<?xml version="1.0" encoding="UTF-8" standalone="no"?>
<svg xmlns="http://www.w3.org/2000/svg" viewBox="0 0 512 512" height="512" width="512" version="1.1">
 <metadata id="metadata605"/>
 <defs id="defs4">
  <linearGradient gradientUnits="userSpaceOnUse" id="0-4" y2="471.66" x2="0" y1="33.753">
   <stop id="stop7-7" stop-color="#6a6a6a"/>
   <stop offset="0.47" id="stop9-4"/>
   <stop offset="0.494" id="stop11-4" stop-color="#ffffff"/>
   <stop offset="0.901" id="stop13-9" stop-color="#ffffff"/>
   <stop offset="0.955" id="stop15-3"/>
   <stop offset="1" id="stop17-1"/>
  </linearGradient>
 </defs>
 <path d="m 471.95,253.05 c 0,120.9 -98.01,218.91 -218.91,218.91 -120.9,0 -218.91,-98.01 -218.91,-218.91 0,-120.9 98.01,-218.91 218.91,-218.91 120.9,0 218.91,98.01 218.91,218.91" id="path21" fill="#BF9E73" fill-rule="evenodd"/>
 <path d="m 471.95,253.05 c 0,120.9 -98.01,218.91 -218.91,218.91 -120.9,0 -218.91,-98.01 -218.91,-218.91 0,-120.9 98.01,-218.91 218.91,-218.91 120.9,0 218.91,98.01 218.91,218.91" id="path23" opacity="0.05" fill="url(#0-4)" fill-rule="evenodd"/>
 <path d="M 256,1 C 115.17,1 1,115.17 1,256 1,396.83 115.17,511 256,511 396.83,511 511,396.83 511,256 511,115.17 396.83,1 256,1 m 8.827,44.931 c 120.9,0 218.9,98 218.9,218.9 0,120.9 -98,218.9 -218.9,218.9 -120.9,0 -218.93,-98 -218.93,-218.9 0,-120.9 98.03,-218.9 218.93,-218.9" id="path27" fill-rule="evenodd" fill-opacity="0.067"/>
 <path id="path31" d="M 256,4.43 C 117.06,4.43 4.43,117.06 4.43,256 4.43,394.94 117.06,507.57 256,507.57 394.94,507.57 507.57,394.94 507.57,256 507.57,117.06 394.94,4.43 256,4.43 m 5.885,38.556 c 120.9,0 218.9,98 218.9,218.9 0,120.9 -98,218.9 -218.9,218.9 -120.9,0 -218.93,-98 -218.93,-218.9 0,-120.9 98.03,-218.9 218.93,-218.9" fill-rule="evenodd" fill-opacity="0.129"/>
 <path id="path33" d="M 256,8.36 C 119.23,8.36 8.36,119.23 8.36,256 8.36,392.77 119.23,503.64 256,503.64 392.77,503.64 503.64,392.77 503.64,256 503.64,119.23 392.77,8.36 256,8.36 m 2.942,31.691 c 120.9,0 218.9,98 218.9,218.9 0,120.9 -98,218.9 -218.9,218.9 -120.9,0 -218.93,-98 -218.93,-218.9 0,-120.9 98.03,-218.9 218.93,-218.9" fill-rule="evenodd" fill-opacity="0.129"/>
 <path d="M 253.04,7.86 C 117.62,7.86 7.85,117.64 7.85,253.05 c 0,135.42 109.78,245.19 245.19,245.19 135.42,0 245.19,-109.78 245.19,-245.19 C 498.23,117.63 388.45,7.86 253.04,7.86 Z m 0,26.297 c 120.9,0 218.9,98 218.9,218.9 0,120.9 -98,218.9 -218.9,218.9 -120.9,0 -218.93,-98 -218.93,-218.9 0,-120.9 98.03,-218.9 218.93,-218.9 z" id="path35" stroke-opacity="0.31" fill="#ffffff" fill-rule="evenodd" stroke="#000000" stroke-width="4.904"/>
 <path id="path433" d="m 249.19,97.06 -14.656,19.906 -21.625,-12 -7.781,23.438 -24.25,-4.719 -0.156,24.719 -24.531,2.969 7.5,23.563 -22.406,10.438 14.406,20.06 -18.09,16.844 1.156,0.844 -0.156,0.156 1.156,0.844 -0.156,0.156 1.156,0.844 c -0.003,0.003 -0.156,0.156 -0.156,0.156 0,0 1.01,0.725 1.125,0.813 -0.003,0.003 -0.156,0.156 -0.156,0.156 0,0 1.03,0.751 1.156,0.844 -0.003,0.003 -0.156,0.156 -0.156,0.156 0,0 1.03,0.751 1.156,0.844 -0.003,0.003 -0.156,0.156 -0.156,0.156 0,0 1.03,0.751 1.156,0.844 -0.003,0.003 -0.156,0.156 -0.156,0.156 0,0 1.03,0.751 1.156,0.844 -0.003,0.003 -0.156,0.156 -0.156,0.156 0,0 1.03,0.751 1.156,0.844 -0.003,0.003 -0.156,0.156 -0.156,0.156 0,0 1.01,0.725 1.125,0.813 -0.003,0.003 -0.156,0.156 -0.156,0.156 0,0 1.03,0.751 1.156,0.844 -0.003,0.003 -0.156,0.156 -0.156,0.156 0,0 1.03,0.751 1.156,0.844 -0.003,0.003 -0.156,0.156 -0.156,0.156 0,0 1.03,0.751 1.156,0.844 -0.003,0.003 -0.156,0.156 -0.156,0.156 0,0 1.03,0.751 1.156,0.844 -0.003,0.003 -0.156,0.156 -0.156,0.156 0,0 1.03,0.751 1.156,0.844 -0.003,0.003 -0.156,0.156 -0.156,0.156 0,0 1.01,0.725 1.125,0.813 -0.003,0.003 -0.156,0.156 -0.156,0.156 0,0 1.03,0.751 1.156,0.844 -0.003,0.003 -0.156,0.156 -0.156,0.156 0,0 1.03,0.751 1.156,0.844 -0.003,0.003 -0.156,0.156 -0.156,0.156 0,0 0.184,0.123 0.188,0.125 l -10.188,18.25 1.313,0.438 -0.313,0.563 1.313,0.438 -0.313,0.563 1.313,0.438 c -0.016,0.029 -0.313,0.563 -0.313,0.563 0,0 1.148,0.393 1.281,0.438 -0.015,0.026 -0.313,0.531 -0.313,0.531 0,0 1.174,0.391 1.313,0.438 -0.016,0.029 -0.313,0.563 -0.313,0.563 0,0 1.174,0.391 1.313,0.438 -0.016,0.029 -0.313,0.563 -0.313,0.563 0,0 1.173,0.391 1.313,0.438 -0.016,0.029 -0.313,0.563 -0.313,0.563 l 1.313,0.438 c -0.016,0.029 -0.313,0.563 -0.313,0.563 0,0 1.173,0.391 1.313,0.438 -0.016,0.029 -0.313,0.563 -0.313,0.563 0,0 1.148,0.393 1.281,0.438 -0.015,0.026 -0.313,0.531 -0.313,0.531 0,0 1.173,0.391 1.313,0.438 -0.016,0.029 -0.313,0.563 -0.313,0.563 0,0 1.173,0.391 1.313,0.438 -0.016,0.029 -0.313,0.563 -0.313,0.563 0,0 1.173,0.391 1.313,0.438 -0.016,0.029 -0.313,0.563 -0.313,0.563 l 1.313,0.438 c -0.016,0.029 -0.313,0.563 -0.313,0.563 l 1.313,0.438 c -0.016,0.029 -0.313,0.563 -0.313,0.563 0,0 1.15,0.363 1.281,0.406 -0.016,0.029 -0.313,0.563 -0.313,0.563 0,0 1.173,0.391 1.313,0.438 -0.016,0.029 -0.313,0.563 -0.313,0.563 0,0 1.173,0.391 1.313,0.438 -0.016,0.029 -0.313,0.563 -0.313,0.563 0,0 1.173,0.391 1.313,0.438 -0.016,0.029 -0.313,0.563 -0.313,0.563 0,0 1.173,0.391 1.313,0.438 -0.016,0.029 -0.313,0.563 -0.313,0.563 0,0 0.944,0.315 1.031,0.344 l -2.219,11.781 1.188,0 -0.188,1 1.188,0 -0.188,1 1.188,0 c -0.015,0.079 -0.188,1 -0.188,1 l 1.156,0 c -0.014,0.074 -0.188,0.969 -0.188,0.969 l 1.188,0 c -0.015,0.079 -0.188,1 -0.188,1 l 1.188,0 c -0.015,0.079 -0.188,1 -0.188,1 l 1.188,0 c -0.015,0.079 -0.188,1 -0.188,1 l 1.188,0 c -0.015,0.079 -0.188,1 -0.188,1 l 1.188,0 c -0.015,0.079 -0.188,1 -0.188,1 l 1.156,0 c -0.014,0.074 -0.188,0.969 -0.188,0.969 l 1.188,0 c -0.015,0.079 -0.188,1 -0.188,1 l 1.188,0 c -0.015,0.079 -0.188,1 -0.188,1 l 1.188,0 c -0.015,0.079 -0.188,1 -0.188,1 l 1.188,0 c -0.015,0.079 -0.188,1 -0.188,1 l 1.188,0 c -0.015,0.079 -0.188,1 -0.188,1 l 1.156,0 c -0.014,0.074 -0.188,0.969 -0.188,0.969 0,0 1.079,-0.001 1.188,0 -0.015,0.079 -0.188,1 -0.188,1 l 1.188,0 c -0.015,0.079 -0.188,1 -0.188,1 l 1.188,0 c -0.015,0.079 -0.188,1 -0.188,1 l 1.188,0 c -0.015,0.079 -0.188,1 -0.188,1 l 1.188,0 c -0.015,0.079 -0.188,1 -0.188,1 l 1.156,0 -0.188,0.969 1.188,0 c -0.015,0.079 -0.188,1 -0.188,1 l 1.188,0 c -0.015,0.079 -0.188,1 -0.188,1 l 1.188,0 c -0.015,0.079 -0.188,1 -0.188,1 l 1.188,0 c -0.015,0.079 -0.188,1 -0.188,1 l 1.188,0 c -0.015,0.079 -0.188,1 -0.188,1 l 1.188,0 c -0.015,0.079 -0.188,1 -0.188,1 l 1.156,0 c -0.014,0.074 -0.188,0.969 -0.188,0.969 l 1.188,0 c -0.015,0.079 -0.188,1 -0.188,1 l 1.188,0 c -0.015,0.079 -0.188,1 -0.188,1 l 1.188,0 c -0.015,0.079 -0.188,1 -0.188,1 l 1.188,0 c -0.015,0.079 -0.188,1 -0.188,1 l 1.188,0 c -0.015,0.079 -0.188,1 -0.188,1 l 1.156,0 c -0.014,0.074 -0.188,0.969 -0.188,0.969 l 1.188,0 c -0.015,0.079 -0.188,1 -0.188,1 l 1.188,0 c -0.015,0.079 -0.188,1 -0.188,1 l 1.188,0 c -0.015,0.079 -0.188,1 -0.188,1 l 1.188,0 c -0.015,0.079 -0.188,1 -0.188,1 l 1.188,0 c -0.015,0.079 -0.188,1 -0.188,1 l 1.156,0 c -0.014,0.074 -0.188,0.969 -0.188,0.969 l 1.188,0 c -0.015,0.079 -0.188,1 -0.188,1 l 0.969,0 -21.469,69.69 1.781,-1.531 c -0.041,0.133 -0.781,2.531 -0.781,2.531 l 1.781,-1.531 c -0.041,0.133 -0.781,2.531 -0.781,2.531 0,0 1.61,-1.384 1.781,-1.531 -0.041,0.133 -0.781,2.531 -0.781,2.531 0,0 1.56,-1.332 1.719,-1.469 -0.038,0.123 -0.75,2.438 -0.75,2.438 0,0 1.61,-1.384 1.781,-1.531 -0.041,0.133 -0.781,2.531 -0.781,2.531 0,0 1.61,-1.384 1.781,-1.531 -0.041,0.133 -0.781,2.531 -0.781,2.531 0,0 1.61,-1.384 1.781,-1.531 -0.041,0.133 -0.781,2.531 -0.781,2.531 0,0 1.61,-1.384 1.781,-1.531 -0.041,0.133 -0.781,2.531 -0.781,2.531 0,0 1.61,-1.384 1.781,-1.531 -0.041,0.133 -0.781,2.531 -0.781,2.531 0,0 1.56,-1.332 1.719,-1.469 -0.038,0.123 -0.75,2.438 -0.75,2.438 0,0 1.61,-1.384 1.781,-1.531 -0.041,0.133 -0.781,2.531 -0.781,2.531 0,0 1.61,-1.384 1.781,-1.531 -0.041,0.133 -0.781,2.531 -0.781,2.531 0,0 1.61,-1.384 1.781,-1.531 -0.041,0.133 -0.781,2.531 -0.781,2.531 0,0 1.61,-1.384 1.781,-1.531 -0.041,0.133 -0.781,2.531 -0.781,2.531 0.001,0 1.61,-1.384 1.781,-1.531 -0.041,0.133 -0.781,2.531 -0.781,2.531 0,0 1.559,-1.332 1.719,-1.469 -0.038,0.123 -0.75,2.438 -0.75,2.438 10e-4,0 1.61,-1.384 1.781,-1.531 -0.041,0.133 -0.781,2.531 -0.781,2.531 10e-4,-10e-4 1.61,-1.384 1.781,-1.531 -0.041,0.133 -0.781,2.531 -0.781,2.531 l 1.781,-1.531 c -0.041,0.133 -0.781,2.531 -0.781,2.531 l 1.781,-1.531 c -0.041,0.133 -0.781,2.531 -0.781,2.531 l 1.781,-1.531 -0.781,2.531 1.719,-1.469 c -0.038,0.123 -0.75,2.438 -0.75,2.438 l 1.781,-1.531 c -0.041,0.133 -0.781,2.531 -0.781,2.531 l 1.781,-1.531 c -0.041,0.133 -0.781,2.531 -0.781,2.531 0.001,-0.001 1.609,-1.383 1.781,-1.531 -0.041,0.133 -0.781,2.531 -0.781,2.531 0.001,-0.001 1.609,-1.383 1.781,-1.531 l -0.781,2.531 c 0.001,-0.001 1.609,-1.383 1.781,-1.531 -0.041,0.133 -0.781,2.531 -0.781,2.531 0.001,-0.001 1.609,-1.383 1.781,-1.531 l -0.781,2.531 c 0.001,-0.001 1.559,-1.331 1.719,-1.469 -0.038,0.123 -0.75,2.438 -0.75,2.438 0.001,-0.001 1.609,-1.383 1.781,-1.531 l -0.781,2.531 c 0.001,-0.001 1.609,-1.383 1.781,-1.531 -0.041,0.133 -0.781,2.531 -0.781,2.531 0.001,-0.001 1.609,-1.383 1.781,-1.531 -0.041,0.133 -0.781,2.531 -0.781,2.531 0.001,-0.001 1.609,-1.383 1.781,-1.531 -0.041,0.133 -0.781,2.531 -0.781,2.531 0.001,-0.001 1.609,-1.383 1.781,-1.531 -0.041,0.133 -0.781,2.531 -0.781,2.531 0.001,-0.001 1.559,-1.331 1.719,-1.469 l -0.75,2.438 c 0.001,-0.001 1.609,-1.383 1.781,-1.531 -0.041,0.133 -0.781,2.531 -0.781,2.531 0.001,-0.001 1.609,-1.383 1.781,-1.531 -0.041,0.133 -0.781,2.531 -0.781,2.531 0.001,-0.001 1.609,-1.383 1.781,-1.531 -0.041,0.133 -0.781,2.531 -0.781,2.531 0.001,-0.001 1.609,-1.383 1.781,-1.531 -0.041,0.133 -0.781,2.531 -0.781,2.531 l 1.781,-1.531 c -0.041,0.133 -0.781,2.531 -0.781,2.531 l 1.719,-1.469 c -0.038,0.123 -0.75,2.438 -0.75,2.438 l 1.781,-1.531 c -0.041,0.133 -0.781,2.531 -0.781,2.531 l 1.781,-1.531 c -0.041,0.133 -0.781,2.531 -0.781,2.531 l 1.781,-1.531 c -0.041,0.133 -0.781,2.531 -0.781,2.531 0.002,-0.001 1.609,-1.383 1.781,-1.531 -0.041,0.133 -0.781,2.531 -0.781,2.531 0.002,-0.001 1.609,-1.383 1.781,-1.531 -0.041,0.133 -0.781,2.531 -0.781,2.531 0.002,-0.001 1.609,-1.383 1.781,-1.531 -0.041,0.133 -0.781,2.531 -0.781,2.531 0.002,-0.001 1.559,-1.331 1.719,-1.469 -0.038,0.123 -0.75,2.438 -0.75,2.438 0.002,-10e-4 1.609,-1.383 1.781,-1.531 l -0.781,2.531 c 0.002,-10e-4 1.609,-1.383 1.781,-1.531 -0.041,0.133 -0.781,2.531 -0.781,2.531 0.002,-10e-4 1.609,-1.383 1.781,-1.531 -0.041,0.133 -0.781,2.531 -0.781,2.531 0.002,-0.002 1.609,-1.383 1.781,-1.531 -0.041,0.133 -0.781,2.531 -0.781,2.531 0.002,-0.002 1.609,-1.383 1.781,-1.531 -0.041,0.133 -0.781,2.531 -0.781,2.531 0.002,-0.002 1.558,-1.331 1.719,-1.469 l -0.75,2.438 c 0.002,-0.002 1.609,-1.383 1.781,-1.531 -0.041,0.133 -0.781,2.531 -0.781,2.531 0.002,-0.002 1.608,-1.383 1.781,-1.531 l -0.781,2.531 c 0.002,-0.002 1.608,-1.383 1.781,-1.531 -0.041,0.133 -0.781,2.531 -0.781,2.531 0.002,-0.002 1.608,-1.383 1.781,-1.531 -0.041,0.133 -0.781,2.531 -0.781,2.531 l 1.781,-1.531 c -0.041,0.133 -0.781,2.531 -0.781,2.531 0.002,-0.002 1.558,-1.331 1.719,-1.469 -0.038,0.123 -0.75,2.438 -0.75,2.438 0.002,-0.002 1.608,-1.382 1.781,-1.531 -0.041,0.133 -0.781,2.531 -0.781,2.531 0.002,-0.002 1.608,-1.382 1.781,-1.531 -0.041,0.133 -0.781,2.531 -0.781,2.531 0.002,-0.002 1.608,-1.382 1.781,-1.531 l -0.781,2.531 c 0.002,-0.002 1.608,-1.382 1.781,-1.531 -0.041,0.133 -0.781,2.531 -0.781,2.531 0.002,-0.002 1.608,-1.382 1.781,-1.531 -0.041,0.133 -0.781,2.531 -0.781,2.531 0.002,-0.002 1.558,-1.33 1.719,-1.469 -0.038,0.123 -0.75,2.438 -0.75,2.438 0.002,-0.002 1.608,-1.382 1.781,-1.531 -0.041,0.133 -0.781,2.531 -0.781,2.531 0.002,-0.002 1.608,-1.382 1.781,-1.531 -0.041,0.133 -0.781,2.531 -0.781,2.531 0.002,-0.002 1.608,-1.382 1.781,-1.531 -0.041,0.133 -0.781,2.531 -0.781,2.531 0.002,-0.002 1.608,-1.382 1.781,-1.531 l -0.781,2.531 c 0.002,-0.002 1.608,-1.382 1.781,-1.531 -0.028,0.09 -0.309,1 -0.531,1.719 0.229,-0.003 0.459,0.004 0.688,0 0.401,-0.344 0.762,-0.648 0.844,-0.719 -0.012,0.038 -0.127,0.423 -0.219,0.719 114.84,-2.411 207.92,-93.26 213.91,-207.19 l -0.656,0 c 0.015,-0.079 0.188,-1 0.188,-1 l -1.188,0 c 0.015,-0.079 0.188,-1 0.188,-1 l -1.156,0 c 0.014,-0.074 0.188,-0.969 0.188,-0.969 l -1.188,0 c 0.015,-0.079 0.188,-1 0.188,-1 l -1.188,0 c 0.015,-0.079 0.188,-1 0.188,-1 l -1.188,0 c 0.015,-0.079 0.188,-1 0.188,-1 l -1.188,0 c 0.015,-0.079 0.188,-1 0.188,-1 l -1.188,0 c 0.015,-0.079 0.188,-1 0.188,-1 l -1.156,0 0.188,-0.969 -1.188,0 0.188,-1 -1.188,0 c 0.015,-0.079 0.188,-1 0.188,-1 l -1.188,0 c 0.015,-0.079 0.188,-1 0.188,-1 l -1.188,0 c 0.015,-0.079 0.188,-1 0.188,-1 l -1.188,0 c 0.015,-0.079 0.188,-1 0.188,-1 l -1.188,0 c 0.015,-0.079 0.188,-1 0.188,-1 l -1.156,0 c 0.014,-0.074 0.188,-0.969 0.188,-0.969 l -1.188,0 c 0.015,-0.079 0.188,-1 0.188,-1 l -1.188,0 c 0.015,-0.079 0.188,-1 0.188,-1 l -1.188,0 c 0.015,-0.079 0.188,-1 0.188,-1 l -1.188,0 c 0.015,-0.079 0.188,-1 0.188,-1 l -1.188,0 c 0.015,-0.079 0.188,-1 0.188,-1 l -1.156,0 c 0.014,-0.074 0.188,-0.969 0.188,-0.969 l -1.188,0 c 0.015,-0.079 0.188,-1 0.188,-1 l -1.188,0 c 0.015,-0.079 0.188,-1 0.188,-1 l -1.188,0 c 0.015,-0.079 0.188,-1 0.188,-1 l -1.188,0 c 0.015,-0.079 0.188,-1 0.188,-1 l -1.188,0 c 0.015,-0.079 0.188,-1 0.188,-1 l -1.156,0 c 0.014,-0.074 0.188,-0.969 0.188,-0.969 l -1.188,0 c 0.015,-0.079 0.188,-1 0.188,-1 l -1.188,0 c 0.015,-0.079 0.188,-1 0.188,-1 l -1.188,0 c 0.015,-0.079 0.188,-1 0.188,-1 l -1.188,0 c 0.015,-0.079 0.188,-1 0.188,-1 l -1.188,0 c 0.015,-0.079 0.188,-1 0.188,-1 l -1.156,0 c 0.014,-0.074 0.188,-0.969 0.188,-0.969 l -1.188,0 c 0.015,-0.079 0.188,-1 0.188,-1 l -1.188,0 c 0.015,-0.079 0.188,-1 0.188,-1 l -1.188,0 c 0.015,-0.079 0.188,-1 0.188,-1 l -1.188,0 c 0.015,-0.079 0.188,-1 0.188,-1 l -1.188,0 c 0.015,-0.079 0.188,-1 0.188,-1 l -1.188,0 c 0.015,-0.079 0.188,-1 0.188,-1 l -1.156,0 c 0.014,-0.074 0.188,-0.969 0.188,-0.969 l -1.188,0 c 0.015,-0.079 0.188,-1 0.188,-1 l -1.188,0 c 0.015,-0.079 0.188,-1 0.188,-1 l -1.188,0 c 0.015,-0.079 0.188,-1 0.188,-1 l -1.188,0 c 0.015,-0.079 0.188,-1 0.188,-1 l -1.188,0 c 0.015,-0.079 0.188,-1 0.188,-1 l -1.156,0 c 0.014,-0.074 0.188,-0.969 0.188,-0.969 l -1.188,0 c 0.015,-0.079 0.188,-1 0.188,-1 l -1.188,0 c 0.015,-0.079 0.188,-1 0.188,-1 l -1.188,0 c 0.015,-0.079 0.188,-1 0.188,-1 l -1.188,0 c 0.015,-0.079 0.188,-1 0.188,-1 l -1.188,0 c 0.015,-0.079 0.188,-1 0.188,-1 l -1.156,0 c 0.014,-0.074 0.188,-0.969 0.188,-0.969 l -1.188,0 c 0.015,-0.079 0.188,-1 0.188,-1 l -1.188,0 c 0.015,-0.079 0.188,-1 0.188,-1 l -1.188,0 c 0.015,-0.079 0.188,-1 0.188,-1 l -1.188,0 c 0.015,-0.079 0.188,-1 0.188,-1 l -1.188,0 c 0.015,-0.079 0.188,-1 0.188,-1 l -1.188,0 c 0.015,-0.079 0.188,-1 0.188,-1 l -1.156,0 c 0.014,-0.074 0.188,-0.969 0.188,-0.969 l -1.188,0 c 0.015,-0.079 0.188,-1 0.188,-1 l -1.188,0 c 0.015,-0.079 0.188,-1 0.188,-1 l -1.188,0 c 0.015,-0.079 0.188,-1 0.188,-1 l -1.188,0 c 0.015,-0.079 0.188,-1 0.188,-1 l -1.188,0 c 0.015,-0.079 0.188,-1 0.188,-1 l -1.156,0 c 0.014,-0.074 0.188,-0.969 0.188,-0.969 l -1.188,0 c 0.015,-0.079 0.188,-1 0.188,-1 l -1.188,0 c 0.015,-0.079 0.188,-1 0.188,-1 l -1.188,0 c 0.015,-0.079 0.188,-1 0.188,-1 l -1.188,0 c 0.015,-0.079 0.188,-1 0.188,-1 l -1.188,0 c 0.015,-0.079 0.188,-1 0.188,-1 l -1.156,0 c 0.014,-0.074 0.188,-0.969 0.188,-0.969 l -1.188,0 c 0.015,-0.079 0.188,-1 0.188,-1 l -1.188,0 c 0.015,-0.079 0.188,-1 0.188,-1 l -1.188,0 c 0.015,-0.079 0.188,-1 0.188,-1 l -1.188,0 c 0.015,-0.079 0.188,-1 0.188,-1 l -1.188,0 c 0.015,-0.079 0.188,-1 0.188,-1 l -1.156,0 c 0.014,-0.074 0.188,-0.969 0.188,-0.969 l -1.188,0 c 0.015,-0.079 0.188,-1 0.188,-1 l -1.188,0 c 0.015,-0.079 0.188,-1 0.188,-1 l -1.188,0 0.188,-1 -1.188,0 c 0.015,-0.079 0.188,-1 0.188,-1 l -1.188,0 c 0.015,-0.079 0.188,-1 0.188,-1 l -1.188,0 c 0.015,-0.079 0.188,-1 0.188,-1 l -1.156,0 c 0.014,-0.074 0.188,-0.969 0.188,-0.969 l -1.188,0 c 0.015,-0.079 0.188,-1 0.188,-1 l -1.188,0 c 0.015,-0.079 0.188,-1 0.188,-1 l -1.188,0 c 0.015,-0.079 0.188,-1 0.188,-1 l -1.188,0 c 0.015,-0.079 0.188,-1 0.188,-1 l -1.188,0 c 0.015,-0.079 0.188,-1 0.188,-1 l -1.156,0 c 0.014,-0.074 0.188,-0.969 0.188,-0.969 l -1.188,0 c 0.015,-0.079 0.188,-1 0.188,-1 l -1.188,0 c 0.015,-0.079 0.188,-1 0.188,-1 l -1.188,0 c 0.015,-0.079 0.188,-1 0.188,-1 l -1.188,0 c 0.015,-0.079 0.188,-1 0.188,-1 l -1.188,0 c 0.015,-0.079 0.188,-1 0.188,-1 l -1.156,0 c 0.014,-0.074 0.188,-0.969 0.188,-0.969 l -1.188,0 c 0.015,-0.079 0.188,-1 0.188,-1 l -1.188,0 c 0.015,-0.079 0.188,-1 0.188,-1 l -1.188,0 c 0.015,-0.079 0.188,-1 0.188,-1 l -1.188,0 c 0.015,-0.079 0.188,-1 0.188,-1 l -1.188,0 c 0.015,-0.079 0.188,-1 0.188,-1 l -1.188,0 0.188,-1 -1.156,0 c 0.014,-0.074 0.188,-0.969 0.188,-0.969 l -1.188,0 c 0.015,-0.079 0.188,-1 0.188,-1 l -1.188,0 c 0.015,-0.079 0.188,-1 0.188,-1 l -1.188,0 c 0.015,-0.079 0.188,-1 0.188,-1 l -1.188,0 c 0.015,-0.079 0.188,-1 0.188,-1 l -1.188,0 c 0.015,-0.079 0.188,-1 0.188,-1 l -1.156,0 c 0.014,-0.074 0.188,-0.969 0.188,-0.969 l -1.188,0 c 0.015,-0.079 0.188,-1 0.188,-1 l -1.188,0 c 0.015,-0.079 0.188,-1 0.188,-1 l -1.188,0 c 0.015,-0.079 0.188,-1 0.188,-1 l -1.188,0 c 0.015,-0.079 0.188,-1 0.188,-1 l -1.188,0 c 0.015,-0.079 0.188,-1 0.188,-1 l -1.156,0 c 0.014,-0.074 0.188,-0.969 0.188,-0.969 l -1.188,0 c 0.015,-0.079 0.188,-1 0.188,-1 l -1.188,0 c 0.015,-0.079 0.188,-1 0.188,-1 l -1.188,0 c 0.015,-0.079 0.188,-1 0.188,-1 l -1.188,0 c 0.015,-0.079 0.188,-1 0.188,-1 l -1.188,0 c 0.015,-0.079 0.188,-1 0.188,-1 l -1.156,0 c 0.014,-0.074 0.188,-0.969 0.188,-0.969 l -1.188,0 0.188,-1 -1.188,0 0.188,-1 -1.188,0 0.188,-1 -3.719,-0.063 c -0.005,-0.044 -0.094,-0.75 -0.094,-0.75 0,0 -0.785,0.262 -0.844,0.281 -0.015,-0.127 -0.156,-1.281 -0.156,-1.281 0,0 -0.785,0.262 -0.844,0.281 -0.015,-0.127 -0.156,-1.281 -0.156,-1.281 0,0 -0.758,0.233 -0.813,0.25 -0.014,-0.115 -0.156,-1.219 -0.156,-1.219 0,0 -0.785,0.262 -0.844,0.281 -0.015,-0.127 -0.156,-1.281 -0.156,-1.281 0,0 -0.785,0.262 -0.844,0.281 -0.015,-0.127 -0.156,-1.281 -0.156,-1.281 0,0 -0.785,0.262 -0.844,0.281 -0.015,-0.127 -0.156,-1.281 -0.156,-1.281 0,0 -0.785,0.262 -0.844,0.281 -0.015,-0.127 -0.156,-1.281 -0.156,-1.281 0,0 -0.785,0.262 -0.844,0.281 -0.015,-0.127 -0.156,-1.281 -0.156,-1.281 0,0 -0.759,0.233 -0.813,0.25 -0.014,-0.115 -0.156,-1.219 -0.156,-1.219 0,0 -0.785,0.262 -0.844,0.281 -0.015,-0.127 -0.156,-1.281 -0.156,-1.281 0,0 -0.785,0.262 -0.844,0.281 -0.015,-0.127 -0.156,-1.281 -0.156,-1.281 0,0 -0.785,0.262 -0.844,0.281 -0.015,-0.127 -0.156,-1.281 -0.156,-1.281 0,0 -0.785,0.262 -0.844,0.281 -0.015,-0.127 -0.156,-1.281 -0.156,-1.281 0,0 -0.785,0.262 -0.844,0.281 -0.015,-0.127 -0.156,-1.281 -0.156,-1.281 0,0 -0.759,0.233 -0.813,0.25 -0.014,-0.115 -0.156,-1.219 -0.156,-1.219 0,0 -0.785,0.263 -0.844,0.281 -0.015,-0.127 -0.156,-1.281 -0.156,-1.281 0,0 -0.785,0.263 -0.844,0.281 -0.015,-0.127 -0.156,-1.281 -0.156,-1.281 0,0 -0.785,0.263 -0.844,0.281 -0.015,-0.127 -0.156,-1.281 -0.156,-1.281 0,0 -0.785,0.263 -0.844,0.281 -0.015,-0.127 -0.156,-1.281 -0.156,-1.281 0,0 -0.785,0.263 -0.844,0.281 -0.015,-0.127 -0.156,-1.281 -0.156,-1.281 0,0 -0.759,0.233 -0.813,0.25 -0.014,-0.115 -0.156,-1.219 -0.156,-1.219 0,0 -0.785,0.263 -0.844,0.281 l -0.156,-1.281 -0.844,0.281 -0.156,-1.281 -0.844,0.281 -0.156,-1.281 -14.813,4.625 c -0.016,-0.033 -0.281,-0.625 -0.281,-0.625 0,0 -0.39,0.27 -0.406,0.281 -0.064,-0.138 -0.594,-1.281 -0.594,-1.281 0,0 -0.39,0.27 -0.406,0.281 -0.064,-0.138 -0.594,-1.281 -0.594,-1.281 0,0 -0.39,0.27 -0.406,0.281 -0.064,-0.138 -0.594,-1.281 -0.594,-1.281 0,0 -0.361,0.271 -0.375,0.281 -0.062,-0.133 -0.594,-1.25 -0.594,-1.25 0,0 -0.39,0.27 -0.406,0.281 -0.064,-0.138 -0.594,-1.281 -0.594,-1.281 0,0 -0.39,0.27 -0.406,0.281 -0.064,-0.138 -0.594,-1.281 -0.594,-1.281 0,0 -0.39,0.27 -0.406,0.281 -0.064,-0.138 -0.594,-1.281 -0.594,-1.281 0,0 -0.39,0.27 -0.406,0.281 -0.064,-0.138 -0.594,-1.281 -0.594,-1.281 0,0 -0.39,0.27 -0.406,0.281 -0.064,-0.138 -0.594,-1.281 -0.594,-1.281 0,0 -0.361,0.271 -0.375,0.281 -0.062,-0.133 -0.594,-1.25 -0.594,-1.25 0,0 -0.39,0.27 -0.406,0.281 -0.064,-0.138 -0.594,-1.281 -0.594,-1.281 0,0 -0.39,0.27 -0.406,0.281 -0.064,-0.138 -0.594,-1.281 -0.594,-1.281 0,0 -0.39,0.27 -0.406,0.281 -0.064,-0.138 -0.594,-1.281 -0.594,-1.281 0,0 -0.39,0.27 -0.406,0.281 -0.064,-0.138 -0.594,-1.281 -0.594,-1.281 0,0 -0.39,0.27 -0.406,0.281 -0.064,-0.138 -0.594,-1.281 -0.594,-1.281 0,0 -0.361,0.271 -0.375,0.281 -0.062,-0.133 -0.594,-1.25 -0.594,-1.25 0,0 -0.39,0.27 -0.406,0.281 l -0.594,-1.281 -0.406,0.281 -0.594,-1.281 -0.406,0.281 -0.594,-1.281 -19.406,13.875 c -0.042,-0.045 -0.594,-0.656 -0.594,-0.656 l -0.031,0.031 c -0.104,-0.112 -0.969,-1.031 -0.969,-1.031 l -0.031,0.031 c -0.098,-0.105 -0.938,-1 -0.938,-1 l -0.031,0.031 c -0.104,-0.112 -0.969,-1.031 -0.969,-1.031 l -0.031,0.031 c -0.104,-0.112 -0.969,-1.031 -0.969,-1.031 l -0.031,0.031 c -0.104,-0.112 -0.969,-1.031 -0.969,-1.031 l -0.031,0.031 c -0.104,-0.112 -0.969,-1.031 -0.969,-1.031 l -0.031,0.031 c -0.104,-0.112 -0.969,-1.031 -0.969,-1.031 l -0.031,0.031 c -0.098,-0.105 -0.938,-1 -0.938,-1 l -0.031,0.031 c -0.104,-0.112 -0.969,-1.031 -0.969,-1.031 l -0.031,0.031 c -0.104,-0.112 -0.969,-1.031 -0.969,-1.031 l -0.031,0.031 c -0.104,-0.112 -0.969,-1.031 -0.969,-1.031 l -0.031,0.031 c -0.104,-0.112 -0.969,-1.031 -0.969,-1.031 l -0.031,0.031 c -0.104,-0.112 -0.969,-1.031 -0.969,-1.031 l -0.031,0.031 c -0.098,-0.105 -0.938,-1 -0.938,-1 l -0.031,0.031 -0.969,-1.031 -0.031,0.031 -0.969,-1.031 -0.031,0.031 -0.969,-1.031" fill-rule="evenodd" fill-opacity="0.235" color="#000000"/>
 <path id="path595" d="m 297.03,252.38 -43.19,13.25 6.25,20.406 c 16.04,-0.917 30.621,-7.165 42.03,-17 l -5.094,-16.656 m 7.344,23.938 c -11.766,9.375 -26.29,15.395 -42.16,16.656 l 37.41,121.97 8.156,-43.12 35.16,30.25 -38.563,-125.75" fill="#ffffff" fill-rule="evenodd" color="#000000"/>
 <path id="path597" d="m 231.38,252.38 -7.938,25.844 c 9.738,5.057 20.815,7.938 32.563,7.938 4.329,0 8.543,-0.413 12.656,-1.156 l 5.938,-19.375 -43.22,-13.25 m -10.03,32.719 -35.844,116.97 35.16,-30.25 8.125,43.13 37.563,-122.41 c -3.392,0.453 -6.829,0.719 -10.344,0.719 -12.444,0 -24.22,-2.947 -34.656,-8.156" fill="#ffffff" fill-rule="evenodd" color="#000000"/>
 <path d="m 249.19,97.06 -14.656,19.906 -21.625,-12 -7.781,23.438 -24.25,-4.719 -0.156,24.719 -24.531,2.969 7.5,23.563 -22.406,10.438 14.406,20.06 -18.09,16.844 19.906,14.656 -12,21.625 23.438,7.781 -4.719,24.25 24.719,0.156 2.969,24.531 23.563,-7.5 10.438,22.406 20.06,-14.406 16.844,18.09 14.656,-19.906 21.625,12 7.781,-23.438 24.25,4.719 0.156,-24.719 24.531,-2.969 -7.5,-23.563 22.406,-10.438 -14.406,-20.06 18.09,-16.844 -19.906,-14.656 12,-21.625 -23.438,-7.781 4.719,-24.25 -24.719,-0.156 -2.969,-24.531 -23.563,7.5 -10.438,-22.406 -20.06,14.406 -16.844,-18.09 m 4.781,40.625 c 0.667,-0.017 1.361,0 2.031,0 42.915,0 77.78,34.867 77.78,77.78 0,42.915 -34.867,77.78 -77.78,77.78 -42.915,0 -77.78,-34.867 -77.78,-77.78 0,-42.24 33.76,-76.72 75.75,-77.78 m 2.031,7.06 c -39.08,0 -70.69,31.637 -70.69,70.72 0,39.08 31.605,70.69 70.69,70.69 39.08,0 70.69,-31.605 70.69,-70.69 0,-39.08 -31.605,-70.72 -70.69,-70.72" id="path599" fill="#ffffff" fill-rule="evenodd"/>
 <path d="m 256,144.75 c -39.08,0 -70.69,31.637 -70.69,70.72 0,39.08 31.605,70.69 70.69,70.69 39.08,0 70.69,-31.605 70.69,-70.69 0,-39.08 -31.605,-70.72 -70.69,-70.72" id="path601" fill="#ffffff" fill-rule="evenodd"/>
</svg>
