<?xml version="1.0" encoding="UTF-8" standalone="no"?>
<svg
   xmlns:dc="http://purl.org/dc/elements/1.1/"
   xmlns:cc="http://creativecommons.org/ns#"
   xmlns:rdf="http://www.w3.org/1999/02/22-rdf-syntax-ns#"
   xmlns:svg="http://www.w3.org/2000/svg"
   xmlns="http://www.w3.org/2000/svg"
   xmlns:sodipodi="http://sodipodi.sourceforge.net/DTD/sodipodi-0.dtd"
   xmlns:inkscape="http://www.inkscape.org/namespaces/inkscape"
   height="512"
   viewBox="0 0 512 512"
   width="512"
   version="1.1"
   id="svg2"
   inkscape:version="0.91 r13725"
   sodipodi:docname="database-chakra.svg">
  <defs
     id="defs17" />
  <sodipodi:namedview
     pagecolor="#ffffff"
     bordercolor="#666666"
     borderopacity="1"
     objecttolerance="10"
     gridtolerance="10"
     guidetolerance="10"
     inkscape:pageopacity="0"
     inkscape:pageshadow="2"
     inkscape:window-width="1920"
     inkscape:window-height="1019"
     id="namedview15"
     showgrid="false"
     inkscape:zoom="0.84782336"
     inkscape:cx="808.49118"
     inkscape:cy="215.22677"
     inkscape:window-x="0"
     inkscape:window-y="13"
     inkscape:window-maximized="1"
     inkscape:current-layer="svg2"
     showguides="false" />
  <metadata
     id="metadata28">
    <rdf:RDF>
      <cc:Work
         rdf:about="">
        <dc:format>image/svg+xml</dc:format>
        <dc:type
           rdf:resource="http://purl.org/dc/dcmitype/StillImage" />
        <dc:title></dc:title>
      </cc:Work>
    </rdf:RDF>
  </metadata>
  <path
     style="fill:#BF9E73;fill-rule:evenodd;fill-opacity:1"
     inkscape:connector-curvature="0"
     d="m 471.95,253.05 c 0,120.9 -98.01,218.9 -218.9,218.9 -120.9,0 -218.9,-98.01 -218.9,-218.9 0,-120.9 98.01,-218.9 218.9,-218.9 120.9,0 218.9,98.01 218.9,218.9"
     id="path6" />
  <path
     inkscape:connector-curvature="0"
     style="fill-opacity:0.23500001"
     id="path415"
     d="m 262.38811,108.31946 c -62.2,0 -112.62,16.664 -112.62,37.22 0,4.496 2.392,8.791 6.813,12.781 0.159,0.159 0.304,0.342 0.469,0.5 0.384,0.411 0.793,0.814 1.219,1.219 0.313,0.332 0.629,0.641 0.969,0.969 l -9.219,-2.938 c -2.01,3.61 -3.188,7.385 -3.188,11.25 l 0,35.16 c 0,13.02 11.94,24.875 31.375,33.688 0.788,0.377 1.592,0.758 2.406,1.125 0.769,0.366 1.58,0.707 2.375,1.063 0.107,0.05 0.205,0.106 0.313,0.156 0.34,0.151 0.686,0.288 1.031,0.438 0.879,0.425 1.774,0.839 2.688,1.25 0.763,0.363 1.556,0.71 2.344,1.063 0.128,0.061 0.246,0.127 0.375,0.188 0.354,0.157 0.704,0.314 1.063,0.469 0.945,0.456 1.922,0.903 2.906,1.344 0.107,0.051 0.205,0.106 0.313,0.156 0.522,0.232 1.03,0.46 1.563,0.688 0.084,0.038 0.165,0.087 0.25,0.125 0.116,0.055 0.227,0.102 0.344,0.156 0.451,0.2 0.885,0.429 1.344,0.625 0.231,0.204 0.484,0.388 0.719,0.563 0.495,0.503 0.989,0.968 1.5,1.344 0.389,0.386 0.789,0.718 1.188,1.031 0.492,0.504 0.993,0.948 1.5,1.344 0.443,0.444 0.888,0.826 1.344,1.188 0.507,0.509 1.01,0.968 1.531,1.375 0.41,0.4 0.83,0.787 1.25,1.125 0.469,0.463 0.924,0.895 1.406,1.281 0.382,0.373 0.766,0.737 1.156,1.063 0.448,0.445 0.915,0.836 1.375,1.219 0.484,0.478 0.97,0.934 1.469,1.344 0.465,0.45 0.897,0.891 1.375,1.281 -20.24,-4.06 -37.24,-10.579 -48.969,-18.625 -0.089,-0.148 -0.196,-0.289 -0.281,-0.438 -0.035,0.06 -0.059,0.127 -0.094,0.188 -0.123,-0.085 -0.254,-0.164 -0.375,-0.25 -0.23,-0.362 -0.477,-0.729 -0.688,-1.094 -0.071,0.12 -0.119,0.254 -0.188,0.375 -0.326,-0.497 -0.647,-0.996 -0.938,-1.5 -0.075,0.127 -0.146,0.248 -0.219,0.375 -0.332,-0.505 -0.643,-1.02 -0.938,-1.531 -0.071,0.12 -0.119,0.254 -0.188,0.375 -0.327,-0.498 -0.678,-0.995 -0.969,-1.5 -0.067,0.114 -0.122,0.229 -0.188,0.344 -0.326,-0.497 -0.647,-0.996 -0.938,-1.5 -0.075,0.127 -0.146,0.248 -0.219,0.375 -0.332,-0.505 -0.643,-1.02 -0.938,-1.531 -0.071,0.12 -0.119,0.254 -0.188,0.375 -0.326,-0.497 -0.647,-0.996 -0.938,-1.5 -0.074,0.126 -0.147,0.249 -0.219,0.375 -0.332,-0.505 -0.643,-1.02 -0.938,-1.531 -0.066,0.112 -0.123,0.231 -0.188,0.344 -0.326,-0.497 -0.679,-0.966 -0.969,-1.469 -0.067,0.114 -0.122,0.229 -0.188,0.344 -0.326,-0.497 -0.647,-0.996 -0.938,-1.5 -0.075,0.127 -0.146,0.248 -0.219,0.375 -0.332,-0.505 -0.643,-1.02 -0.938,-1.531 -0.071,0.12 -0.119,0.254 -0.188,0.375 -0.327,-0.498 -0.678,-0.995 -0.969,-1.5 -2.209,3.758 -3.5,7.758 -3.5,11.813 l 0,35.13 c 0,7.22 3.657,14.08 10.219,20.25 0.371,0.373 0.733,0.757 1.125,1.125 0.381,0.384 0.754,0.777 1.156,1.156 0.38,0.384 0.754,0.778 1.156,1.156 0.371,0.373 0.733,0.757 1.125,1.125 0.381,0.384 0.754,0.777 1.156,1.156 0.371,0.373 0.765,0.788 1.156,1.156 0.371,0.373 0.733,0.757 1.125,1.125 0.381,0.384 0.754,0.777 1.156,1.156 0.371,0.373 0.733,0.757 1.125,1.125 0.381,0.384 0.754,0.777 1.156,1.156 0.38,0.384 0.754,0.778 1.156,1.156 0.371,0.373 0.733,0.757 1.125,1.125 0.381,0.384 0.754,0.777 1.156,1.156 0.371,0.373 0.733,0.757 1.125,1.125 0.381,0.384 0.753,0.777 1.156,1.156 0.38,0.384 0.754,0.778 1.156,1.156 0.371,0.373 0.733,0.757 1.125,1.125 0.149,0.151 0.285,0.319 0.438,0.469 0.588,0.62 1.23,1.237 1.875,1.844 0.371,0.373 0.733,0.757 1.125,1.125 0.381,0.384 0.754,0.777 1.156,1.156 0.371,0.373 0.733,0.757 1.125,1.125 0.381,0.384 0.754,0.777 1.156,1.156 0.38,0.384 0.754,0.778 1.156,1.156 0.371,0.373 0.733,0.757 1.125,1.125 0.381,0.384 0.754,0.777 1.156,1.156 0.371,0.373 0.733,0.788 1.125,1.156 0.165,0.166 0.331,0.335 0.5,0.5 -9.432,-3.36 -17.579,-7.374 -24.09,-11.844 -0.076,-0.128 -0.176,-0.247 -0.25,-0.375 -0.031,0.053 -0.063,0.103 -0.094,0.156 -0.134,-0.093 -0.273,-0.188 -0.406,-0.281 -0.216,-0.342 -0.457,-0.686 -0.656,-1.031 -0.067,0.114 -0.122,0.229 -0.188,0.344 -0.325,-0.495 -0.648,-0.968 -0.938,-1.469 -0.075,0.127 -0.146,0.248 -0.219,0.375 -0.332,-0.504 -0.643,-1.021 -0.938,-1.531 -0.067,0.114 -0.122,0.229 -0.188,0.344 -0.327,-0.498 -0.678,-0.996 -0.969,-1.5 -0.071,0.12 -0.119,0.254 -0.188,0.375 -0.326,-0.497 -0.647,-0.997 -0.938,-1.5 -0.075,0.127 -0.146,0.248 -0.219,0.375 -0.332,-0.504 -0.643,-1.021 -0.938,-1.531 -0.067,0.114 -0.122,0.229 -0.188,0.344 -0.326,-0.497 -0.647,-0.997 -0.938,-1.5 -0.073,0.123 -0.148,0.251 -0.219,0.375 -0.326,-0.497 -0.647,-0.997 -0.938,-1.5 -0.067,0.114 -0.122,0.229 -0.188,0.344 -0.327,-0.498 -0.678,-0.996 -0.969,-1.5 -0.066,0.112 -0.123,0.231 -0.188,0.344 -0.325,-0.495 -0.648,-0.968 -0.938,-1.469 -0.075,0.127 -0.146,0.248 -0.219,0.375 -0.332,-0.504 -0.643,-1.021 -0.938,-1.531 -0.067,0.114 -0.122,0.229 -0.188,0.344 -0.327,-0.498 -0.678,-0.996 -0.969,-1.5 -2.209,3.758 -3.5,7.669 -3.5,11.75 l 0,35.22 c 0,7.213 3.657,14.05 10.219,20.22 0.371,0.373 0.733,0.757 1.125,1.125 0.381,0.384 0.753,0.778 1.156,1.156 0.38,0.383 0.754,0.778 1.156,1.156 0.371,0.373 0.733,0.757 1.125,1.125 0.149,0.15 0.285,0.319 0.438,0.469 0.588,0.619 1.23,1.238 1.875,1.844 0.371,0.373 0.733,0.757 1.125,1.125 0.381,0.383 0.754,0.778 1.156,1.156 0.371,0.373 0.733,0.757 1.125,1.125 0.381,0.384 0.753,0.778 1.156,1.156 0.38,0.383 0.754,0.778 1.156,1.156 0.371,0.373 0.733,0.757 1.125,1.125 0.381,0.383 0.754,0.778 1.156,1.156 0.371,0.373 0.733,0.788 1.125,1.156 0.376,0.378 0.759,0.752 1.156,1.125 0.38,0.383 0.754,0.778 1.156,1.156 0.371,0.373 0.733,0.757 1.125,1.125 0.149,0.15 0.285,0.319 0.438,0.469 0.588,0.619 1.23,1.238 1.875,1.844 0.371,0.373 0.733,0.757 1.125,1.125 0.381,0.383 0.754,0.778 1.156,1.156 0.371,0.373 0.733,0.757 1.125,1.125 0.381,0.384 0.753,0.778 1.156,1.156 0.38,0.383 0.754,0.778 1.156,1.156 0.371,0.373 0.733,0.757 1.125,1.125 0.381,0.383 0.754,0.778 1.156,1.156 0.371,0.373 0.733,0.788 1.125,1.156 0.376,0.378 0.759,0.752 1.156,1.125 0.381,0.383 0.754,0.778 1.156,1.156 0.371,0.373 0.733,0.757 1.125,1.125 0.149,0.15 0.285,0.319 0.438,0.469 0.588,0.619 1.23,1.238 1.875,1.844 0.371,0.373 0.733,0.757 1.125,1.125 0.381,0.383 0.754,0.778 1.156,1.156 0.371,0.373 0.733,0.757 1.125,1.125 0.381,0.384 0.753,0.778 1.156,1.156 0.38,0.383 0.754,0.778 1.156,1.156 0.371,0.373 0.733,0.757 1.125,1.125 0.149,0.15 0.285,0.319 0.438,0.469 0.588,0.619 1.23,1.238 1.875,1.844 0.371,0.373 0.733,0.757 1.125,1.125 0.381,0.383 0.754,0.778 1.156,1.156 0.371,0.373 0.733,0.757 1.125,1.125 0.381,0.383 0.754,0.778 1.156,1.156 0.38,0.383 0.754,0.778 1.156,1.156 0.371,0.373 0.733,0.757 1.125,1.125 0.381,0.383 0.754,0.778 1.156,1.156 0.371,0.373 0.733,0.757 1.125,1.125 0.381,0.384 0.753,0.778 1.156,1.156 0.38,0.383 0.754,0.778 1.156,1.156 0.371,0.373 0.733,0.757 1.125,1.125 0.149,0.15 0.285,0.319 0.438,0.469 0.588,0.619 1.23,1.238 1.875,1.844 0.371,0.373 0.733,0.757 1.125,1.125 0.381,0.383 0.754,0.778 1.156,1.156 0.371,0.373 0.733,0.757 1.125,1.125 0.381,0.384 0.753,0.778 1.156,1.156 0.38,0.383 0.754,0.778 1.156,1.156 0.371,0.373 0.733,0.757 1.125,1.125 0.381,0.383 0.754,0.778 1.156,1.156 0.371,0.373 0.733,0.757 1.125,1.125 0.381,0.384 0.753,0.778 1.156,1.156 0.38,0.383 0.754,0.778 1.156,1.156 0.371,0.373 0.733,0.757 1.125,1.125 0.149,0.15 0.285,0.319 0.438,0.469 0.588,0.619 1.23,1.238 1.875,1.844 0.371,0.373 0.733,0.757 1.125,1.125 0.381,0.383 0.754,0.778 1.156,1.156 0.371,0.373 0.733,0.757 1.125,1.125 0.381,0.384 0.753,0.778 1.156,1.156 0.38,0.383 0.754,0.778 1.156,1.156 0.371,0.373 0.733,0.757 1.125,1.125 0.381,0.383 0.754,0.778 1.156,1.156 0.371,0.373 0.733,0.788 1.125,1.156 0.376,0.378 0.759,0.752 1.156,1.125 0.381,0.383 0.754,0.778 1.156,1.156 0.371,0.373 0.733,0.757 1.125,1.125 0.149,0.15 0.285,0.319 0.438,0.469 0.588,0.619 1.23,1.238 1.875,1.844 0.371,0.373 0.733,0.757 1.125,1.125 0.381,0.383 0.754,0.778 1.156,1.156 0.371,0.373 0.733,0.757 1.125,1.125 0.381,0.384 0.753,0.778 1.156,1.156 0.38,0.383 0.754,0.778 1.156,1.156 0.371,0.373 0.733,0.757 1.125,1.125 0.381,0.383 0.754,0.778 1.156,1.156 0.371,0.373 0.765,0.788 1.156,1.156 0.288,0.29 0.579,0.584 0.875,0.875 0.649,0.006 1.287,0.031 1.938,0.031 120.9,0 218.91,-98.01 218.91,-218.91 0,-2.351 -0.051,-4.698 -0.125,-7.03 -0.237,-0.24 -0.468,-0.481 -0.719,-0.719 -0.361,-0.383 -0.728,-0.747 -1.125,-1.125 -0.361,-0.383 -0.759,-0.778 -1.156,-1.156 -0.433,-0.46 -0.89,-0.923 -1.375,-1.375 -0.292,-0.303 -0.592,-0.607 -0.906,-0.906 -0.366,-0.388 -0.754,-0.773 -1.156,-1.156 -0.361,-0.383 -0.728,-0.747 -1.125,-1.125 -0.361,-0.383 -0.759,-0.778 -1.156,-1.156 -0.433,-0.46 -0.89,-0.923 -1.375,-1.375 -0.292,-0.303 -0.592,-0.607 -0.906,-0.906 -0.362,-0.385 -0.758,-0.777 -1.156,-1.156 -0.356,-0.378 -0.734,-0.752 -1.125,-1.125 -0.361,-0.383 -0.759,-0.778 -1.156,-1.156 -0.366,-0.388 -0.754,-0.773 -1.156,-1.156 -0.361,-0.383 -0.728,-0.747 -1.125,-1.125 -0.361,-0.383 -0.759,-0.778 -1.156,-1.156 -0.433,-0.46 -0.89,-0.923 -1.375,-1.375 -0.292,-0.303 -0.592,-0.607 -0.906,-0.906 -0.274,-0.291 -0.58,-0.587 -0.875,-0.875 -0.044,-0.048 -0.111,-0.077 -0.156,-0.125 -0.048,-0.046 -0.077,-0.11 -0.125,-0.156 -0.361,-0.383 -0.728,-0.747 -1.125,-1.125 -0.361,-0.383 -0.759,-0.778 -1.156,-1.156 -0.366,-0.388 -0.754,-0.773 -1.156,-1.156 -0.361,-0.383 -0.728,-0.747 -1.125,-1.125 -0.362,-0.385 -0.758,-0.777 -1.156,-1.156 -0.356,-0.378 -0.734,-0.752 -1.125,-1.125 -0.361,-0.383 -0.759,-0.778 -1.156,-1.156 -0.366,-0.388 -0.754,-0.773 -1.156,-1.156 -0.361,-0.383 -0.728,-0.747 -1.125,-1.125 -0.361,-0.383 -0.759,-0.778 -1.156,-1.156 -0.433,-0.46 -0.89,-0.923 -1.375,-1.375 -0.292,-0.303 -0.592,-0.607 -0.906,-0.906 -0.362,-0.385 -0.758,-0.777 -1.156,-1.156 -0.358,-0.38 -0.732,-0.75 -1.125,-1.125 -0.054,-0.057 -0.133,-0.099 -0.188,-0.156 -0.153,-0.143 -0.28,-0.295 -0.438,-0.438 -0.179,-0.179 -0.344,-0.385 -0.531,-0.563 -0.366,-0.388 -0.754,-0.773 -1.156,-1.156 -0.361,-0.383 -0.728,-0.747 -1.125,-1.125 -0.362,-0.385 -0.758,-0.777 -1.156,-1.156 -0.433,-0.46 -0.89,-0.923 -1.375,-1.375 -0.292,-0.303 -0.592,-0.607 -0.906,-0.906 -0.366,-0.388 -0.754,-0.773 -1.156,-1.156 -0.361,-0.383 -0.728,-0.747 -1.125,-1.125 -0.361,-0.383 -0.759,-0.778 -1.156,-1.156 -0.433,-0.46 -0.89,-0.923 -1.375,-1.375 -0.292,-0.303 -0.592,-0.607 -0.906,-0.906 -0.362,-0.385 -0.758,-0.777 -1.156,-1.156 -0.358,-0.38 -0.732,-0.75 -1.125,-1.125 -0.054,-0.057 -0.133,-0.099 -0.188,-0.156 -0.153,-0.143 -0.28,-0.295 -0.438,-0.438 -0.179,-0.179 -0.344,-0.385 -0.531,-0.563 -0.366,-0.388 -0.754,-0.773 -1.156,-1.156 -0.361,-0.383 -0.728,-0.747 -1.125,-1.125 -0.361,-0.383 -0.759,-0.778 -1.156,-1.156 -0.433,-0.46 -0.89,-0.923 -1.375,-1.375 -0.292,-0.303 -0.592,-0.607 -0.906,-0.906 -0.366,-0.388 -0.754,-0.773 -1.156,-1.156 -0.361,-0.383 -0.728,-0.747 -1.125,-1.125 -0.361,-0.383 -0.759,-0.778 -1.156,-1.156 -0.433,-0.46 -0.89,-0.923 -1.375,-1.375 -0.292,-0.303 -0.592,-0.607 -0.906,-0.906 -0.362,-0.385 -0.758,-0.777 -1.156,-1.156 -0.356,-0.378 -0.734,-0.752 -1.125,-1.125 -0.361,-0.383 -0.759,-0.778 -1.156,-1.156 -0.366,-0.388 -0.754,-0.773 -1.156,-1.156 -0.361,-0.383 -0.728,-0.747 -1.125,-1.125 -0.361,-0.383 -0.759,-0.778 -1.156,-1.156 -0.433,-0.46 -0.89,-0.923 -1.375,-1.375 -0.292,-0.303 -0.592,-0.607 -0.906,-0.906 -0.274,-0.291 -0.58,-0.587 -0.875,-0.875 -0.044,-0.048 -0.111,-0.077 -0.156,-0.125 -0.048,-0.046 -0.077,-0.11 -0.125,-0.156 -0.361,-0.383 -0.728,-0.747 -1.125,-1.125 -0.361,-0.383 -0.759,-0.778 -1.156,-1.156 -0.366,-0.388 -0.754,-0.773 -1.156,-1.156 -0.361,-0.383 -0.728,-0.747 -1.125,-1.125 -0.362,-0.385 -0.758,-0.777 -1.156,-1.156 -0.356,-0.378 -0.734,-0.752 -1.125,-1.125 -0.361,-0.383 -0.759,-0.778 -1.156,-1.156 -0.366,-0.388 -0.754,-0.773 -1.156,-1.156 -0.361,-0.383 -0.728,-0.747 -1.125,-1.125 -0.361,-0.383 -0.759,-0.778 -1.156,-1.156 -0.433,-0.46 -0.89,-0.923 -1.375,-1.375 -0.292,-0.303 -0.592,-0.607 -0.906,-0.906 -0.362,-0.385 -0.758,-0.777 -1.156,-1.156 -0.358,-0.38 -0.732,-0.75 -1.125,-1.125 -0.054,-0.057 -0.102,-0.13 -0.156,-0.188 -0.153,-0.143 -0.311,-0.264 -0.469,-0.406 -0.179,-0.179 -0.344,-0.385 -0.531,-0.563 -0.366,-0.388 -0.754,-0.773 -1.156,-1.156 -0.361,-0.383 -0.728,-0.747 -1.125,-1.125 -0.362,-0.385 -0.758,-0.777 -1.156,-1.156 -0.433,-0.46 -0.89,-0.923 -1.375,-1.375 -0.292,-0.303 -0.592,-0.607 -0.906,-0.906 -0.366,-0.388 -0.754,-0.773 -1.156,-1.156 -0.361,-0.383 -0.728,-0.747 -1.125,-1.125 -0.361,-0.383 -0.759,-0.778 -1.156,-1.156 -0.433,-0.46 -0.89,-0.923 -1.375,-1.375 -0.292,-0.303 -0.592,-0.607 -0.906,-0.906 -0.362,-0.385 -0.758,-0.777 -1.156,-1.156 -0.358,-0.38 -0.732,-0.75 -1.125,-1.125 -0.054,-0.057 -0.102,-0.13 -0.156,-0.188 -0.153,-0.143 -0.311,-0.264 -0.469,-0.406 -0.179,-0.179 -0.344,-0.385 -0.531,-0.563 -0.366,-0.388 -0.754,-0.773 -1.156,-1.156 -14.258,-15.15 -56.991,-26.12 -107.53,-26.12" />
  <path
     style="fill-opacity:0.06700003;fill-rule:evenodd"
     inkscape:connector-curvature="0"
     d="M 256,1 C 115.17,1 1,115.17 1,256 1,396.83 115.17,511 256,511 396.83,511 511,396.83 511,256 511,115.17 396.83,1 256,1 m 8.827,44.931 c 120.9,0 218.9,98 218.9,218.9 0,120.9 -98,218.9 -218.9,218.9 -120.9,0 -218.93,-98 -218.93,-218.9 0,-120.9 98.03,-218.9 218.93,-218.9"
     id="path8" />
  <g
     style="fill-opacity:0.12900002;fill-rule:evenodd"
     id="g10">
    <path
       inkscape:connector-curvature="0"
       d="m 256,4.433 c -138.94,0 -251.57,112.63 -251.57,251.57 0,138.94 112.63,251.57 251.57,251.57 138.94,0 251.57,-112.63 251.57,-251.57 C 507.57,117.063 394.94,4.433 256,4.433 m 5.885,38.556 c 120.9,0 218.9,98 218.9,218.9 0,120.9 -98,218.9 -218.9,218.9 -120.9,0 -218.93,-98 -218.93,-218.9 0,-120.9 98.03,-218.9 218.93,-218.9"
       id="path12" />
    <path
       inkscape:connector-curvature="0"
       d="m 256,8.356 c -136.77,0 -247.64,110.87 -247.64,247.64 0,136.77 110.87,247.64 247.64,247.64 136.77,0 247.64,-110.87 247.64,-247.64 C 503.64,119.226 392.77,8.356 256,8.356 m 2.942,31.691 c 120.9,0 218.9,98 218.9,218.9 0,120.9 -98,218.9 -218.9,218.9 -120.9,0 -218.93,-98 -218.93,-218.9 0,-120.9 98.03,-218.9 218.93,-218.9"
       id="path14" />
  </g>
  <path
     style="fill:#ffffff;fill-rule:evenodd;stroke:#000000;stroke-width:4.90399981;stroke-opacity:0.31000001"
     inkscape:connector-curvature="0"
     d="m 253.04,7.859 c -135.42,0 -245.19,109.78 -245.19,245.19 0,135.42 109.78,245.19 245.19,245.19 135.42,0 245.19,-109.78 245.19,-245.19 0,-135.42 -109.78,-245.19 -245.19,-245.19 z m 0,26.297 c 120.9,0 218.9,98 218.9,218.9 0,120.9 -98,218.9 -218.9,218.9 -120.9,0 -218.93,-98 -218.93,-218.9 0,-120.9 98.03,-218.9 218.93,-218.9 z"
     id="path16" />
  <path
     style="fill:#ffffff"
     d="M 262.37891 108.29883 C 200.17891 108.29883 149.75781 124.96153 149.75781 145.51953 C 149.75781 166.07453 200.16891 182.74023 262.37891 182.74023 C 324.57891 182.74023 374.99805 166.07753 374.99805 145.51953 C 374.99805 124.96453 324.57891 108.29883 262.37891 108.29883 z M 150.01758 158.05859 C 148.00758 161.66859 146.82422 165.4465 146.82422 169.3125 L 146.82422 204.48242 C 146.82422 231.64242 198.608 253.71289 262.375 253.71289 C 326.195 253.71289 377.95508 231.62242 377.95508 204.48242 L 377.95508 169.3125 C 377.95508 165.4465 376.76906 161.66859 374.78906 158.05859 C 372.58006 177.95359 323.15091 193.87109 262.37891 193.87109 C 201.60291 193.87109 152.25953 177.95359 150.01953 158.05859 L 150.01758 158.05859 z M 150.3418 228.35938 C 148.1328 232.11738 146.82422 236.11492 146.82422 240.16992 L 146.82422 275.30859 C 146.82422 302.48859 198.608 324.47852 262.375 324.47852 C 326.195 324.47852 377.95508 302.47859 377.95508 275.30859 L 377.95508 240.16992 C 377.95508 236.11592 376.6205 232.11937 374.4375 228.35938 C 362.0315 249.85737 316.65795 265.78125 262.37695 265.78125 C 208.13695 265.78125 162.73766 249.84338 150.34766 228.35938 L 150.3418 228.35938 z M 269.38086 267.08008 C 269.57624 267.07378 269.80005 267.09885 270.05664 267.15625 C 278.6541 269.0798 280.15613 263.67669 283.04102 272.33789 C 285.95271 281.08201 282.68546 298.95432 268.42578 295.11914 C 285.52635 297.01863 263.32045 267.27094 269.38086 267.08008 z M 252.38867 271.22461 C 261.85167 271.23728 278.35036 279.78011 270.1875 291.76367 C 277.56269 276.0668 238.96794 288.63063 243.30469 281.61523 C 247.84425 274.26955 243.01441 271.21261 252.38867 271.22461 z M 258.98633 284.65625 C 261.9212 284.66295 264.8479 285.93962 267.43945 289.10156 C 254.3459 277.4385 254.72607 316.96583 249.19531 310.79297 C 243.40416 304.32985 238.9181 307.845 241.82617 299.19141 C 243.9357 292.91299 251.4862 284.63885 258.98633 284.65625 z M 291.47852 286.05664 C 292.05035 286.09992 292.40553 286.50896 292.48633 287.40039 C 293.25916 295.93411 299.01718 295.64941 291.42578 300.99023 C 283.76268 306.38157 265.24522 308.89081 264.5957 294.53516 C 267.74279 309.59464 286.82126 285.70446 291.47852 286.05664 z M 263.98438 290.81445 L 263.98438 290.81641 C 263.98096 290.81765 263.97802 290.81907 263.97461 290.82031 C 248.53611 299.31052 287.3449 311.16957 279.5918 314.36914 C 271.47221 317.72012 273.52968 322.94826 265.95312 317.58789 C 258.30658 312.1787 250.12939 295.86052 263.97461 290.82031 C 263.97821 290.81833 263.98076 290.81643 263.98438 290.81445 z M 150.34766 301.00977 C 148.13866 304.76777 146.83008 308.67877 146.83008 312.75977 L 146.83008 347.96094 C 146.83008 375.12094 198.61386 397.08008 262.38086 397.08008 C 326.20086 397.08008 377.96094 375.10794 377.96094 347.96094 L 377.96094 312.75977 C 377.96094 308.67877 376.62636 304.76777 374.44336 301.00977 C 362.03736 322.46777 316.66381 338.36914 262.38281 338.36914 C 208.14281 338.36914 162.74352 322.46377 150.35352 301.00977 L 150.34766 301.00977 z "
     id="path651" />
</svg>
