<?xml version="1.0" encoding="UTF-8" standalone="no"?>
<svg xmlns="http://www.w3.org/2000/svg" viewBox="0 0 512 512" height="512" width="512" version="1.1">
 <metadata id="metadata603"/>
 <defs id="defs4">
  <linearGradient gradientUnits="userSpaceOnUse" id="0-0" y2="453.24" x2="0" y1="121.74" gradientTransform="translate(0.0012,5e-4)">
   <stop id="stop7-3" stop-color="#6a6a6a"/>
   <stop offset="0.47" id="stop9-4"/>
   <stop offset="0.494" id="stop11-7" stop-color="#ffffff"/>
   <stop offset="0.901" id="stop13-5" stop-color="#ffffff"/>
   <stop offset="0.955" id="stop15-5"/>
   <stop offset="1" id="stop17-8"/>
  </linearGradient>
 </defs>
 <path d="m 108.6312,57.3705 c -7.963,0 -15.228,2.293 -20.693,6.22 -4.545,3.266 -7.751,7.872 -8.752,13.13 l -11.909,0 c -16.447,0 -29.883,13.03 -29.883,29.2 l 0,66.736 c 0,16.17 13.436,29.19 29.883,29.19 l 377.47,0 c 16.447,0 29.883,-13.03 29.883,-29.19 l 0,-66.736 c 0,-16.17 -13.436,-29.2 -29.883,-29.2 l -262.91,0 c -1,-5.256 -4.208,-9.862 -8.753,-13.13 -5.465,-3.927 -12.73,-6.22 -20.693,-6.22 l -43.761,0" id="path115" fill="#cccccc" fill-rule="evenodd"/>
 <path d="m 37.3612,118.4605 c -19.928,0 -38.06,15.818 -36.23,35.853 l 24.26,265.41 c 1.733,18.966 16.271,34.947 36.2,34.947 l 383.41,0 c 19.933,0 34.1,-16.05 36.2,-34.853 l 29.632,-265.41 c 1.123,-10.05 -3.137,-19.263 -9.971,-25.663 -6.833,-6.399 -16.258,-10.284 -26.22,-10.284 l -437.27,0" id="path117" fill="#BF9E73" fill-rule="evenodd"/>
 <path id="path119" d="m 37.3612,118.4505 c -19.928,0 -38.08,15.84 -36.25,35.875 l 11.781,128.78 12.469,136.63 c 1.733,18.966 16.29,34.938 36.22,34.938 l 383.41,0 c 19.933,0 34.09,-16.04 36.19,-34.844 l 15.281,-136.72 14.375,-128.69 c 1.123,-10.05 -3.135,-19.287 -9.969,-25.688 -6.833,-6.399 -16.257,-10.281 -26.22,-10.281 l -437.28,0" opacity="0.05" fill="url(#0-0)"/>
 <path d="m 108.5512,57.2905 c -7.963,0 -15.11,2.403 -20.572,6.33 -4.545,3.266 -7.702,7.931 -8.703,13.187 l -12.13,0 c -17.677,0 -29.802,12.771 -29.802,30.661 l 0,3.956 c 0,-16.17 13.355,-29.27 29.802,-29.27 l 14.286,0 c 1,-5.256 2,-9.657 6.549,-12.923 5.465,-3.927 12.609,-6.33 20.572,-6.33 l 43.78,0 c 7.963,0 15.371,2.403 20.835,6.33 4.545,3.266 5.766,7.668 6.769,12.923 l 264.88,0 c 16.447,0 29.802,11.455 29.802,27.625 l 0,-3.956 c 0,-16.17 -13.355,-29.01 -29.802,-29.01 l -262.95,0 c -1,-5.256 -4.159,-9.921 -8.703,-13.187 -5.465,-3.927 -12.872,-6.33 -20.835,-6.33 z" id="path125" opacity="0.764" fill="#ffffff" fill-rule="evenodd"/>
 <path d="m 37.3512,118.4505 c -19.928,0 -38.05,15.84 -36.22,35.875 l 0.406,4.375 c 3,-15.936 18.732,-27.563 35.813,-27.563 l 437.28,0 c 9.966,0 19.386,3.882 26.22,10.281 4.736,4.435 8.234,10.208 9.563,16.688 l 0.406,-3.688 c 1.123,-10.05 -3.134,-19.288 -9.969,-25.688 -6.833,-6.399 -16.252,-10.281 -26.22,-10.281 l -437.28,0" id="path127" opacity="0.4" fill="#ffffff" fill-rule="evenodd"/>
 <path d="m 255.8112,148.1605 c -34.614,0 -62.813,27.821 -62.813,62.47 0,17.599 7.286,33.519 19,44.938 0.379,0.389 0.767,0.777 1.156,1.156 0.375,0.385 0.771,0.749 1.156,1.125 0.376,0.385 0.74,0.781 1.125,1.156 0.432,0.443 0.868,0.882 1.313,1.313 0.269,0.274 0.538,0.543 0.813,0.813 0.43,0.445 0.869,0.88 1.313,1.313 0.375,0.385 0.771,0.749 1.156,1.125 0.376,0.385 0.74,0.781 1.125,1.156 0.379,0.389 0.767,0.777 1.156,1.156 0.403,0.413 0.805,0.817 1.219,1.219 0.35,0.358 0.704,0.713 1.063,1.063 0.35,0.359 0.705,0.712 1.063,1.063 0.402,0.414 0.806,0.816 1.219,1.219 0.379,0.389 0.767,0.777 1.156,1.156 0.375,0.385 0.771,0.749 1.156,1.125 0.376,0.385 0.74,0.781 1.125,1.156 0.432,0.443 0.868,0.882 1.313,1.313 0.269,0.274 0.538,0.543 0.813,0.813 0.43,0.445 0.869,0.88 1.313,1.313 0.375,0.385 0.771,0.749 1.156,1.125 0.376,0.385 0.74,0.781 1.125,1.156 0.379,0.389 0.767,0.777 1.156,1.156 0.403,0.413 0.805,0.817 1.219,1.219 0.35,0.358 0.704,0.713 1.063,1.063 0.35,0.359 0.705,0.712 1.063,1.063 0.402,0.414 0.806,0.816 1.219,1.219 0.379,0.389 0.767,0.777 1.156,1.156 0.375,0.385 0.771,0.749 1.156,1.125 0.376,0.385 0.74,0.781 1.125,1.156 0.432,0.443 0.868,0.882 1.313,1.313 0.269,0.274 0.538,0.543 0.813,0.813 0.43,0.445 0.869,0.88 1.313,1.313 0.375,0.385 0.771,0.749 1.156,1.125 0.376,0.385 0.74,0.781 1.125,1.156 0.379,0.389 0.767,0.777 1.156,1.156 0.403,0.413 0.805,0.817 1.219,1.219 0.35,0.358 0.704,0.713 1.063,1.063 0.35,0.359 0.705,0.712 1.063,1.063 0.433,0.445 0.867,0.88 1.313,1.313 0.35,0.358 0.704,0.713 1.063,1.063 0.375,0.385 0.771,0.749 1.156,1.125 0.376,0.385 0.74,0.781 1.125,1.156 0.379,0.389 0.767,0.777 1.156,1.156 0.403,0.413 0.805,0.817 1.219,1.219 0.35,0.358 0.704,0.713 1.063,1.063 0.349,0.359 0.705,0.712 1.063,1.063 0.402,0.414 0.806,0.816 1.219,1.219 0.261,0.268 0.515,0.549 0.781,0.813 -11.339,8.573 -15.893,5.568 -32.03,-9.03 -8.98,-8.132 -18.511,-11.87 -27.781,-12 -1.324,-0.019 -2.627,0.062 -3.938,0.188 -31.481,2.994 -58.42,46.561 -48.969,96.91 l 7.094,38.844 0.938,0 0.219,1.156 0.469,0 0.438,0 0.219,1.125 0.938,0 0.219,1.156 0.906,0 0.219,1.125 0.938,0 0.219,1.156 0.938,0 0.219,1.156 0.906,0 0.219,1.125 0.938,0 0.219,1.156 0.938,0 0.219,1.156 0.906,0 0.219,1.125 0.938,0 0.219,1.156 0.906,0 0.219,1.125 0.938,0 0.219,1.156 0.938,0 0.219,1.156 0.906,0 0.219,1.125 0.938,0 c 0.013,0.073 0.219,1.156 0.219,1.156 l 0.906,0 c 0.013,0.069 0.219,1.125 0.219,1.125 l 0.938,0 c 0.013,0.073 0.219,1.156 0.219,1.156 l 0.938,0 c 0.013,0.074 0.219,1.156 0.219,1.156 l 0.906,0 c 0.013,0.07 0.219,1.125 0.219,1.125 l 0.938,0 c 0.014,0.075 0.219,1.156 0.219,1.156 l 0.938,0 c 0.014,0.075 0.219,1.156 0.219,1.156 l 0.906,0 c 0.013,0.071 0.219,1.125 0.219,1.125 l 0.938,0 c 0.014,0.076 0.219,1.156 0.219,1.156 l 0.906,0 c 0.013,0.072 0.219,1.125 0.219,1.125 l 0.938,0 c 0.012,0.068 0.152,0.843 0.188,1.031 l 254.34,0 c 19.933,0 34.09,-16.04 36.19,-34.844 l 7.281,-65.16 c -0.442,-0.453 -0.887,-0.905 -1.344,-1.344 -0.197,-0.199 -0.394,-0.397 -0.594,-0.594 -0.503,-0.522 -1.01,-1.027 -1.531,-1.531 -0.433,-0.441 -0.866,-0.884 -1.313,-1.313 -0.233,-0.236 -0.482,-0.456 -0.719,-0.688 -0.518,-0.534 -1.026,-1.078 -1.563,-1.594 -0.264,-0.267 -0.544,-0.519 -0.813,-0.781 -0.366,-0.376 -0.719,-0.759 -1.094,-1.125 -0.503,-0.517 -1.01,-1.031 -1.531,-1.531 -0.197,-0.199 -0.394,-0.397 -0.594,-0.594 -0.555,-0.575 -1.111,-1.134 -1.688,-1.688 -0.289,-0.292 -0.581,-0.589 -0.875,-0.875 -0.324,-0.332 -0.668,-0.644 -1,-0.969 -0.518,-0.534 -1.026,-1.078 -1.563,-1.594 -0.264,-0.267 -0.544,-0.519 -0.813,-0.781 -0.366,-0.376 -0.719,-0.759 -1.094,-1.125 -0.503,-0.517 -1.01,-1.031 -1.531,-1.531 -0.233,-0.236 -0.482,-0.456 -0.719,-0.688 -0.518,-0.534 -1.026,-1.078 -1.563,-1.594 -0.289,-0.292 -0.581,-0.589 -0.875,-0.875 -0.34,-0.348 -0.683,-0.691 -1.031,-1.031 -0.503,-0.517 -1.01,-1.031 -1.531,-1.531 -0.197,-0.199 -0.394,-0.397 -0.594,-0.594 -0.555,-0.575 -1.111,-1.134 -1.688,-1.688 -0.289,-0.292 -0.581,-0.589 -0.875,-0.875 -0.324,-0.332 -0.668,-0.644 -1,-0.969 -0.518,-0.534 -1.026,-1.078 -1.563,-1.594 -0.264,-0.267 -0.544,-0.519 -0.813,-0.781 -0.366,-0.376 -0.719,-0.759 -1.094,-1.125 -0.503,-0.517 -1.01,-1.031 -1.531,-1.531 -0.233,-0.236 -0.482,-0.456 -0.719,-0.688 -0.518,-0.534 -1.026,-1.078 -1.563,-1.594 -0.289,-0.292 -0.581,-0.589 -0.875,-0.875 -0.34,-0.348 -0.683,-0.691 -1.031,-1.031 -0.503,-0.517 -1.01,-1.031 -1.531,-1.531 -0.197,-0.199 -0.394,-0.397 -0.594,-0.594 -0.473,-0.49 -0.949,-0.963 -1.438,-1.438 -0.462,-0.472 -0.93,-0.949 -1.406,-1.406 -0.233,-0.236 -0.482,-0.456 -0.719,-0.688 -0.518,-0.534 -1.026,-1.078 -1.563,-1.594 -0.264,-0.267 -0.544,-0.519 -0.813,-0.781 -0.366,-0.376 -0.719,-0.759 -1.094,-1.125 -0.503,-0.517 -1.01,-1.031 -1.531,-1.531 -0.233,-0.236 -0.482,-0.456 -0.719,-0.688 -0.518,-0.534 -1.026,-1.078 -1.563,-1.594 -0.289,-0.292 -0.581,-0.589 -0.875,-0.875 -0.34,-0.348 -0.683,-0.691 -1.031,-1.031 -0.503,-0.517 -1.01,-1.031 -1.531,-1.531 -0.197,-0.199 -0.394,-0.397 -0.594,-0.594 -0.503,-0.522 -1.01,-1.027 -1.531,-1.531 -0.433,-0.441 -0.866,-0.884 -1.313,-1.313 -0.233,-0.236 -0.482,-0.456 -0.719,-0.688 -0.518,-0.534 -1.026,-1.078 -1.563,-1.594 -0.264,-0.267 -0.544,-0.519 -0.813,-0.781 -0.366,-0.376 -0.719,-0.759 -1.094,-1.125 -0.503,-0.517 -1.01,-1.031 -1.531,-1.531 -0.197,-0.199 -0.394,-0.397 -0.594,-0.594 -0.555,-0.575 -1.111,-1.134 -1.688,-1.688 -0.289,-0.292 -0.581,-0.589 -0.875,-0.875 -0.324,-0.332 -0.668,-0.644 -1,-0.969 -0.518,-0.534 -1.026,-1.078 -1.563,-1.594 -0.264,-0.267 -0.544,-0.519 -0.813,-0.781 -0.366,-0.376 -0.719,-0.759 -1.094,-1.125 -0.503,-0.517 -1.01,-1.031 -1.531,-1.531 -0.233,-0.236 -0.482,-0.456 -0.719,-0.688 -0.518,-0.534 -1.026,-1.078 -1.563,-1.594 -0.289,-0.292 -0.581,-0.589 -0.875,-0.875 -0.34,-0.348 -0.683,-0.691 -1.031,-1.031 -0.503,-0.517 -1.01,-1.031 -1.531,-1.531 -0.197,-0.199 -0.394,-0.397 -0.594,-0.594 -0.555,-0.575 -1.111,-1.134 -1.688,-1.688 -0.289,-0.292 -0.581,-0.589 -0.875,-0.875 -0.324,-0.332 -0.668,-0.644 -1,-0.969 -0.518,-0.534 -1.026,-1.078 -1.563,-1.594 -0.264,-0.267 -0.544,-0.519 -0.813,-0.781 -0.366,-0.376 -0.719,-0.759 -1.094,-1.125 -0.503,-0.517 -1.01,-1.031 -1.531,-1.531 -0.233,-0.236 -0.482,-0.456 -0.719,-0.688 -0.518,-0.534 -1.026,-1.078 -1.563,-1.594 -0.289,-0.292 -0.581,-0.589 -0.875,-0.875 -0.34,-0.348 -0.683,-0.691 -1.031,-1.031 -0.503,-0.517 -1.01,-1.031 -1.531,-1.531 -0.197,-0.199 -0.394,-0.397 -0.594,-0.594 -0.473,-0.49 -0.949,-0.963 -1.438,-1.438 -0.462,-0.472 -0.93,-0.949 -1.406,-1.406 -0.233,-0.236 -0.482,-0.456 -0.719,-0.688 -0.518,-0.534 -1.026,-1.078 -1.563,-1.594 -0.264,-0.267 -0.544,-0.519 -0.813,-0.781 -0.366,-0.376 -0.719,-0.759 -1.094,-1.125 -0.503,-0.517 -1.01,-1.031 -1.531,-1.531 -0.233,-0.236 -0.482,-0.456 -0.719,-0.688 -0.518,-0.534 -1.026,-1.078 -1.563,-1.594 -0.289,-0.292 -0.581,-0.589 -0.875,-0.875 -0.34,-0.348 -0.683,-0.691 -1.031,-1.031 -0.503,-0.517 -1.01,-1.031 -1.531,-1.531 -0.197,-0.199 -0.394,-0.398 -0.594,-0.594 -0.503,-0.522 -1.01,-1.027 -1.531,-1.531 -0.433,-0.441 -0.866,-0.884 -1.313,-1.313 -0.233,-0.236 -0.482,-0.456 -0.719,-0.688 -0.518,-0.534 -1.026,-1.078 -1.563,-1.594 -0.264,-0.267 -0.544,-0.519 -0.813,-0.781 -0.366,-0.376 -0.719,-0.759 -1.094,-1.125 -0.503,-0.517 -1.01,-1.031 -1.531,-1.531 -0.197,-0.199 -0.394,-0.398 -0.594,-0.594 -0.555,-0.575 -1.111,-1.134 -1.688,-1.688 -0.289,-0.292 -0.581,-0.589 -0.875,-0.875 -0.324,-0.332 -0.668,-0.644 -1,-0.969 -0.518,-0.534 -1.026,-1.078 -1.563,-1.594 -0.264,-0.267 -0.544,-0.519 -0.813,-0.781 -0.366,-0.376 -0.719,-0.759 -1.094,-1.125 -0.503,-0.517 -1.01,-1.031 -1.531,-1.531 -0.233,-0.236 -0.482,-0.456 -0.719,-0.688 -0.518,-0.534 -1.026,-1.078 -1.563,-1.594 -0.289,-0.292 -0.581,-0.589 -0.875,-0.875 -0.34,-0.348 -0.683,-0.691 -1.031,-1.031 -0.503,-0.517 -1.01,-1.031 -1.531,-1.531 -0.197,-0.199 -0.394,-0.398 -0.594,-0.594 -0.555,-0.575 -1.111,-1.134 -1.688,-1.688 -0.289,-0.292 -0.581,-0.589 -0.875,-0.875 -0.324,-0.332 -0.668,-0.644 -1,-0.969 -0.518,-0.534 -1.026,-1.078 -1.563,-1.594 -0.264,-0.267 -0.544,-0.519 -0.813,-0.781 -0.366,-0.376 -0.719,-0.759 -1.094,-1.125 -0.503,-0.517 -1.01,-1.031 -1.531,-1.531 -0.233,-0.236 -0.482,-0.456 -0.719,-0.688 -0.518,-0.534 -1.026,-1.078 -1.563,-1.594 -0.289,-0.292 -0.581,-0.589 -0.875,-0.875 -0.34,-0.348 -0.683,-0.691 -1.031,-1.031 -0.503,-0.517 -1.01,-1.031 -1.531,-1.531 -0.197,-0.199 -0.394,-0.398 -0.594,-0.594 -0.473,-0.49 -0.949,-0.963 -1.438,-1.438 -0.462,-0.472 -0.93,-0.949 -1.406,-1.406 -0.233,-0.236 -0.482,-0.456 -0.719,-0.688 -0.518,-0.534 -1.026,-1.078 -1.563,-1.594 -0.264,-0.267 -0.544,-0.519 -0.813,-0.781 -0.366,-0.376 -0.719,-0.759 -1.094,-1.125 -0.503,-0.517 -1.01,-1.031 -1.531,-1.531 -0.233,-0.236 -0.482,-0.456 -0.719,-0.688 -0.518,-0.534 -1.026,-1.078 -1.563,-1.594 -0.289,-0.292 -0.581,-0.589 -0.875,-0.875 -0.34,-0.348 -0.683,-0.691 -1.031,-1.031 -0.503,-0.517 -1.01,-1.031 -1.531,-1.531 -0.197,-0.199 -0.394,-0.398 -0.594,-0.594 -0.473,-0.49 -0.949,-0.963 -1.438,-1.438 -0.462,-0.472 -0.93,-0.949 -1.406,-1.406 -0.233,-0.236 -0.482,-0.456 -0.719,-0.688 -0.518,-0.534 -1.026,-1.078 -1.563,-1.594 -0.264,-0.267 -0.544,-0.519 -0.813,-0.781 -0.366,-0.376 -0.719,-0.759 -1.094,-1.125 -0.503,-0.517 -1.01,-1.031 -1.531,-1.531 -0.197,-0.199 -0.394,-0.398 -0.594,-0.594 -0.555,-0.575 -1.111,-1.134 -1.688,-1.688 -0.289,-0.292 -0.581,-0.589 -0.875,-0.875 -0.34,-0.348 -0.683,-0.691 -1.031,-1.031 -0.503,-0.517 -1.01,-1.031 -1.531,-1.531 -0.264,-0.267 -0.544,-0.519 -0.813,-0.781 -0.366,-0.376 -0.719,-0.759 -1.094,-1.125 -0.503,-0.517 -1.01,-1.031 -1.531,-1.531 -0.233,-0.236 -0.482,-0.456 -0.719,-0.688 -0.518,-0.534 -1.026,-1.078 -1.563,-1.594 -0.289,-0.292 -0.581,-0.589 -0.875,-0.875 -0.34,-0.348 -0.683,-0.691 -1.031,-1.031 -0.503,-0.517 -1.01,-1.031 -1.531,-1.531 -0.135,-0.136 -0.27,-0.271 -0.406,-0.406 -0.063,-0.062 -0.125,-0.126 -0.188,-0.188 -11.442,-11.858 -27.54,-19.219 -45.34,-19.219" id="path597" fill-rule="evenodd" fill-opacity="0.235"/>
 <path d="m 255.8112,148.1405 c -34.614,0 -62.806,27.829 -62.806,62.48 0,34.614 28.18,62.806 62.806,62.806 34.614,0 62.806,-28.18 62.806,-62.806 0,-34.614 -28.18,-62.48 -62.806,-62.48 m -53.01,141.15 c -31.481,2.994 -58.41,46.573 -48.961,96.92 l 7.096,38.836 94.89,0 94.89,0 7.425,-38.836 c 12.599,-67.13 -39.979,-122.19 -81.05,-85.1 -20.318,18.397 -22.22,18.397 -42.557,0 -10.263,-9.294 -21.253,-12.824 -31.741,-11.821" id="path599" fill="#ffffff" fill-rule="evenodd"/>
</svg>
