<?xml version="1.0" encoding="UTF-8" standalone="no"?>
<svg xmlns="http://www.w3.org/2000/svg" viewBox="0 0 512 512" height="512" width="512" version="1.1">
 <metadata id="metadata369"/>
 <defs id="defs4">
  <linearGradient gradientUnits="userSpaceOnUse" id="0-2" y2="453.26" x2="0" y1="121.76" gradientTransform="translate(0.0012,-0.0195)">
   <stop id="stop7-6" stop-color="#6a6a6a"/>
   <stop offset="0.47" id="stop9-6"/>
   <stop offset="0.494" id="stop11-1" stop-color="#ffffff"/>
   <stop offset="0.901" id="stop13-3" stop-color="#ffffff"/>
   <stop offset="0.955" id="stop15-1"/>
   <stop offset="1" id="stop17-3"/>
  </linearGradient>
 </defs>
 <g id="g113" transform="translate(0.0012,-0.0195)" fill-rule="evenodd">
  <path id="path115" d="m 108.63,57.39 c -7.963,0 -15.228,2.293 -20.693,6.22 -4.545,3.266 -7.751,7.872 -8.752,13.13 l -11.909,0 c -16.447,0 -29.883,13.03 -29.883,29.2 l 0,66.736 c 0,16.17 13.436,29.19 29.883,29.19 l 377.47,0 c 16.447,0 29.883,-13.03 29.883,-29.19 l 0,-66.736 c 0,-16.17 -13.436,-29.2 -29.883,-29.2 l -262.91,0 c -1,-5.256 -4.208,-9.862 -8.753,-13.13 -5.465,-3.927 -12.73,-6.22 -20.693,-6.22 l -43.761,0" fill="#cccccc"/>
  <path id="path117" d="m 37.36,118.48 c -19.928,0 -38.06,15.818 -36.23,35.853 l 24.26,265.41 c 1.733,18.966 16.271,34.947 36.2,34.947 l 383.41,0 c 19.933,0 34.1,-16.05 36.2,-34.853 l 29.632,-265.41 c 1.123,-10.05 -3.137,-19.263 -9.971,-25.663 -6.833,-6.399 -16.258,-10.284 -26.22,-10.284 l -437.27,0" fill="#BF9E73"/>
 </g>
 <path id="path119" d="m 37.3612,118.4505 c -19.928,0 -38.08,15.84 -36.25,35.875 l 11.781,128.78 12.469,136.63 c 1.733,18.966 16.29,34.938 36.22,34.938 l 383.41,0 c 19.933,0 34.09,-16.04 36.19,-34.844 l 15.281,-136.72 14.375,-128.69 c 1.123,-10.05 -3.135,-19.287 -9.969,-25.688 -6.833,-6.399 -16.257,-10.281 -26.22,-10.281 l -437.28,0" opacity="0.05" fill="url(#0-2)"/>
 <g id="g121" transform="translate(0.0012,-0.0195)" fill="#ffffff" fill-rule="evenodd">
  <path id="path123" d="m 108.55,57.31 c -7.963,0 -15.11,2.403 -20.572,6.33 -4.545,3.266 -7.702,7.931 -8.703,13.187 l -12.13,0 c -17.677,0 -29.802,12.771 -29.802,30.661 l 0,3.956 c 0,-16.17 13.355,-29.27 29.802,-29.27 l 14.286,0 c 1,-5.256 2,-9.657 6.549,-12.923 5.465,-3.927 12.609,-6.33 20.572,-6.33 l 43.78,0 c 7.963,0 15.371,2.403 20.835,6.33 4.545,3.266 5.766,7.668 6.769,12.923 l 264.88,0 c 16.447,0 29.802,11.455 29.802,27.625 l 0,-3.956 c 0,-16.17 -13.355,-29.01 -29.802,-29.01 l -262.95,0 c -1,-5.256 -4.159,-9.921 -8.703,-13.187 -5.465,-3.927 -12.872,-6.33 -20.835,-6.33 z" opacity="0.764"/>
  <path id="path125" d="m 37.35,118.47 c -19.928,0 -38.05,15.84 -36.22,35.875 l 0.406,4.375 c 3,-15.936 18.732,-27.563 35.813,-27.563 l 437.28,0 c 9.966,0 19.386,3.882 26.22,10.281 4.736,4.435 8.234,10.208 9.563,16.688 l 0.406,-3.688 c 1.123,-10.05 -3.134,-19.288 -9.969,-25.688 -6.833,-6.399 -16.252,-10.281 -26.22,-10.281 l -437.28,0" opacity="0.4"/>
 </g>
 <path id="path363" d="m 307.9112,157.2305 c -2.073,0.047 -4.179,0.381 -6.25,1.031 l -0.469,0.156 -35.406,11.969 -92.16,31.13 9.156,9.156 c -2.721,-1.623 -5.855,-2.489 -9.06,-2.438 l 17.469,17.469 c -0.008,0.635 -0.079,1.253 -0.156,1.875 l -23.781,-23.781 c -1.627,0.596 -1.983,0.684 -4.063,1.344 -1.092,0.346 -2.183,0.736 -3.219,1.094 -3.109,1.074 -5.921,2.231 -8.156,3.938 -1.929,1.712 -4.436,6.541 -5.563,10.719 -5.04,18.695 3.789,40.737 30.375,76.16 26.861,35.786 43.93,65.894 49.594,87.06 l -10.844,-10.844 -16.625,5.594 -0.469,0.156 c -11.544,4.181 -17.659,16.901 -13.688,28.656 1.163,3.443 3.065,6.409 5.469,8.813 l 38.19,38.19 216.75,0 c 19.933,0 34.09,-16.04 36.19,-34.844 l 9.969,-89.25 -166.69,-166.69 c -4.35,-4.35 -10.344,-6.799 -16.563,-6.656" opacity="0.25"/>
 <path id="path365" d="m 173.6312,201.5105 c 10.07,-0.161 19.566,6.191 22.98,16.296 3.414,10.1 -0.298,20.867 -8.404,26.847 l 92.15,-31.13 35.417,-11.966 c 0.157,-0.053 0.31,-0.101 0.465,-0.157 11.544,-4.181 17.665,-16.931 13.694,-28.687 -3.972,-11.756 -16.556,-18.13 -28.27,-14.456 l -0.465,0.157 -35.417,11.966 -92.15,31.13 m -13.651,4.716 c -3.109,1.074 -5.92,2.241 -8.155,3.948 -1.929,1.712 -4.438,6.517 -5.564,10.695 -5.04,18.695 3.769,40.764 30.355,76.18 33.756,44.972 52.06,80.979 51.679,101.54 -0.188,10.121 -2.688,15.759 -9.514,21.259 l -3.438,2.717 3.973,-0.979 c 2.177,-0.54 34.769,-15.383 72.43,-33.03 50.4,-23.616 69.35,-33.24 71.793,-36.442 4.931,-6.471 4.721,-18.466 -0.489,-28.613 -2.253,-4.388 -11.996,-18.793 -21.662,-32.04 -21.352,-29.26 -34.878,-50.796 -42.05,-67.05 -1.895,-4.297 -3.203,-7.07 -4.277,-8.822 l -12.566,4.246 -92.15,31.13 a 6.681693,6.681693 0 0 1 -6.13743,-11.71937 c 5.809,-4.286 8.556,-11.969 6.073,-19.319 -2.483,-7.35 -9.364,-11.838 -16.561,-11.723 a 6.681693,6.681693 0 0 1 -6.48064,-4.44763 c -1.627,0.596 -1.969,0.708 -4.049,1.368 -1.092,0.346 -2.175,0.727 -3.211,1.085 m 38.31,172.79 c -11.544,4.181 -17.681,16.884 -13.709,28.64 3.498,10.353 13.68,16.539 24.06,15.359 a 6.681693,6.681693 0 0 1 2.5401,-5.6806 l 3.391,-2.701 c 0.014,-0.011 0.033,-0.005 0.047,-0.016 5.675,-4.58 6.819,-7.107 6.987,-16.15 0.11,-5.912 -1.941,-14.624 -6.239,-25.22 l -16.615,5.614 -0.465,0.157" fill="#ffffff"/>
</svg>
