<?xml version="1.0" encoding="UTF-8" standalone="no"?>
<svg xmlns="http://www.w3.org/2000/svg" viewBox="0 0 512 512" height="512" width="512" version="1.1">
 <metadata id="metadata477"/>
 <defs id="defs4">
  <linearGradient gradientUnits="userSpaceOnUse" id="0-4" y2="453.24" x2="0" y1="121.74" gradientTransform="translate(0.0012,5e-4)">
   <stop id="stop7-6" stop-color="#6a6a6a"/>
   <stop offset="0.47" id="stop9-3"/>
   <stop offset="0.494" id="stop11-9" stop-color="#ffffff"/>
   <stop offset="0.901" id="stop13-9" stop-color="#ffffff"/>
   <stop offset="0.955" id="stop15-7"/>
   <stop offset="1" id="stop17-3"/>
  </linearGradient>
 </defs>
 <path d="m 108.6312,57.3705 c -7.963,0 -15.228,2.293 -20.693,6.22 -4.545,3.266 -7.751,7.872 -8.752,13.13 l -11.909,0 c -16.447,0 -29.883,13.03 -29.883,29.2 l 0,66.736 c 0,16.17 13.436,29.19 29.883,29.19 l 377.47,0 c 16.447,0 29.883,-13.03 29.883,-29.19 l 0,-66.736 c 0,-16.17 -13.436,-29.2 -29.883,-29.2 l -262.91,0 c -1,-5.256 -4.208,-9.862 -8.753,-13.13 -5.465,-3.927 -12.73,-6.22 -20.693,-6.22 l -43.761,0" id="path115" fill="#cccccc" fill-rule="evenodd"/>
 <path d="m 37.3612,118.4605 c -19.928,0 -38.06,15.818 -36.23,35.853 l 24.26,265.41 c 1.733,18.966 16.271,34.947 36.2,34.947 l 383.41,0 c 19.933,0 34.1,-16.05 36.2,-34.853 l 29.632,-265.41 c 1.123,-10.05 -3.137,-19.263 -9.971,-25.663 -6.833,-6.399 -16.258,-10.284 -26.22,-10.284 l -437.27,0" id="path117" fill="#BF9E73" fill-rule="evenodd"/>
 <path id="path119" d="m 37.3612,118.4505 c -19.928,0 -38.08,15.84 -36.25,35.875 l 11.781,128.78 12.469,136.63 c 1.733,18.966 16.29,34.938 36.22,34.938 l 383.41,0 c 19.933,0 34.09,-16.04 36.19,-34.844 l 15.281,-136.72 14.375,-128.69 c 1.123,-10.05 -3.135,-19.287 -9.969,-25.688 -6.833,-6.399 -16.257,-10.281 -26.22,-10.281 l -437.28,0" opacity="0.05" fill="url(#0-4)"/>
 <path d="m 108.5512,57.2905 c -7.963,0 -15.11,2.403 -20.572,6.33 -4.545,3.266 -7.702,7.931 -8.703,13.187 l -12.13,0 c -17.677,0 -29.802,12.771 -29.802,30.661 l 0,3.956 c 0,-16.17 13.355,-29.27 29.802,-29.27 l 14.286,0 c 1,-5.256 2,-9.657 6.549,-12.923 5.465,-3.927 12.609,-6.33 20.572,-6.33 l 43.78,0 c 7.963,0 15.371,2.403 20.835,6.33 4.545,3.266 5.766,7.668 6.769,12.923 l 264.88,0 c 16.447,0 29.802,11.455 29.802,27.625 l 0,-3.956 c 0,-16.17 -13.355,-29.01 -29.802,-29.01 l -262.95,0 c -1,-5.256 -4.159,-9.921 -8.703,-13.187 -5.465,-3.927 -12.872,-6.33 -20.835,-6.33 z" id="path125" opacity="0.764" fill="#ffffff" fill-rule="evenodd"/>
 <path d="m 37.3512,118.4505 c -19.928,0 -38.05,15.84 -36.22,35.875 l 0.406,4.375 c 3,-15.936 18.732,-27.563 35.813,-27.563 l 437.28,0 c 9.966,0 19.386,3.882 26.22,10.281 4.736,4.435 8.234,10.208 9.563,16.688 l 0.406,-3.688 c 1.123,-10.05 -3.134,-19.288 -9.969,-25.688 -6.833,-6.399 -16.252,-10.281 -26.22,-10.281 l -437.28,0" id="path127" opacity="0.4" fill="#ffffff" fill-rule="evenodd"/>
 <path d="m 254.9412,161.5605 c -32.716,0 -65.844,21.856 -65.844,55 l 0,60.31 -24.281,0 0,134.69 1,0 0,1 1,0 0,1 1,0 0,1 1,0 0,1 1,0 0,1 0.969,0 0,1 1,0 0,0.969 1,0 0,1 1,0 0,1 1,0 0,1 1,0 0,1 0.969,0 0,1 1,0 0,0.969 1,0 0,1 1,0 0,1 1,0 0,1 1,0 0,1 1,0 0,1 0.969,0 0,0.969 1,0 0,1 1,0 0,1 1,0 0,1 1,0 0,1 1,0 0,1 0.969,0 0,1 1,0 0,0.969 1,0 0,1 1,0 0,1 1,0 0,1 1,0 0,1 0.969,0 0,1 1,0 0,0.969 1,0 0,1 1,0 0,1 1,0 0,1 1,0 0,1 0.969,0 0,1 1,0 0,0.969 1,0 0,1 1,0 0,1 1,0 0,1 1,0 0,1 1,0 0,1 0.969,0 0,0.313 236.41,0 c 19.933,0 34.09,-16.04 36.19,-34.844 l 6.438,-57.56 c -0.105,-0.104 -0.209,-0.208 -0.313,-0.313 -0.005,-0.005 0.005,-0.026 0,-0.031 -0.111,-0.107 -0.232,-0.206 -0.344,-0.313 -0.21,-0.219 -0.41,-0.439 -0.625,-0.656 -0.01,-0.011 -0.021,-0.021 -0.031,-0.031 -0.101,-0.098 -0.211,-0.184 -0.313,-0.281 -0.214,-0.223 -0.438,-0.435 -0.656,-0.656 -0.005,-0.005 0.005,-0.026 0,-0.031 -0.141,-0.136 -0.294,-0.271 -0.438,-0.406 -0.182,-0.189 -0.377,-0.375 -0.563,-0.563 -0.005,-0.005 0.005,-0.026 0,-0.031 -0.141,-0.136 -0.294,-0.271 -0.438,-0.406 -0.182,-0.189 -0.377,-0.375 -0.563,-0.563 -0.005,-0.005 0.005,-0.026 0,-0.031 -0.141,-0.136 -0.294,-0.271 -0.438,-0.406 -0.182,-0.189 -0.377,-0.375 -0.563,-0.563 -0.005,-0.005 0.005,-0.026 0,-0.031 -0.111,-0.107 -0.232,-0.206 -0.344,-0.313 -0.212,-0.221 -0.44,-0.437 -0.656,-0.656 -0.005,-0.005 0.005,-0.026 0,-0.031 -0.111,-0.107 -0.232,-0.206 -0.344,-0.313 -0.21,-0.219 -0.41,-0.439 -0.625,-0.656 -0.322,-0.342 -0.667,-0.664 -1,-1 -0.317,-0.336 -0.673,-0.637 -1,-0.969 -0.005,-0.005 0.005,-0.026 0,-0.031 -0.141,-0.136 -0.294,-0.271 -0.438,-0.406 -0.182,-0.189 -0.377,-0.375 -0.563,-0.563 -0.005,-0.005 0.005,-0.026 0,-0.031 -0.141,-0.136 -0.294,-0.271 -0.438,-0.406 -0.182,-0.189 -0.377,-0.375 -0.563,-0.563 -0.005,-0.005 0.005,-0.026 0,-0.031 -0.111,-0.107 -0.232,-0.206 -0.344,-0.313 -0.212,-0.221 -0.44,-0.437 -0.656,-0.656 -0.005,-0.005 0.005,-0.026 0,-0.031 -0.111,-0.107 -0.232,-0.206 -0.344,-0.313 -0.209,-0.218 -0.412,-0.441 -0.625,-0.656 -0.322,-0.342 -0.667,-0.664 -1,-1 -0.317,-0.336 -0.673,-0.637 -1,-0.969 -0.005,-0.005 0.005,-0.026 0,-0.031 -0.141,-0.136 -0.294,-0.271 -0.438,-0.406 -0.182,-0.189 -0.377,-0.375 -0.563,-0.563 -0.005,-0.005 0.005,-0.026 0,-0.031 -0.141,-0.136 -0.294,-0.271 -0.438,-0.406 -0.182,-0.189 -0.377,-0.375 -0.563,-0.563 -0.005,-0.005 0.005,-0.026 0,-0.031 -0.111,-0.107 -0.232,-0.206 -0.344,-0.313 -0.212,-0.221 -0.44,-0.437 -0.656,-0.656 -0.005,-0.005 0.005,-0.026 0,-0.031 -0.111,-0.107 -0.232,-0.206 -0.344,-0.313 -0.212,-0.221 -0.44,-0.437 -0.656,-0.656 -0.005,-0.005 0.005,-0.026 0,-0.031 -0.111,-0.107 -0.232,-0.206 -0.344,-0.313 -0.21,-0.219 -0.41,-0.439 -0.625,-0.656 -0.01,-0.011 -0.021,-0.021 -0.031,-0.031 -0.101,-0.098 -0.211,-0.184 -0.313,-0.281 -0.214,-0.223 -0.438,-0.435 -0.656,-0.656 -0.005,-0.005 0.005,-0.026 0,-0.031 -0.141,-0.136 -0.294,-0.271 -0.438,-0.406 -0.182,-0.189 -0.377,-0.375 -0.563,-0.563 -0.005,-0.005 0.005,-0.026 0,-0.031 -0.141,-0.136 -0.294,-0.271 -0.438,-0.406 -0.182,-0.189 -0.377,-0.375 -0.563,-0.563 -0.005,-0.005 0.005,-0.026 0,-0.031 -0.111,-0.107 -0.232,-0.206 -0.344,-0.313 -0.212,-0.221 -0.44,-0.437 -0.656,-0.656 -0.005,-0.005 0.005,-0.026 0,-0.031 -0.111,-0.107 -0.232,-0.206 -0.344,-0.313 -0.212,-0.221 -0.44,-0.437 -0.656,-0.656 -0.005,-0.005 0.005,-0.026 0,-0.031 -0.111,-0.107 -0.232,-0.206 -0.344,-0.313 -0.21,-0.219 -0.41,-0.439 -0.625,-0.656 -0.01,-0.011 -0.021,-0.021 -0.031,-0.031 -0.101,-0.098 -0.211,-0.184 -0.313,-0.281 -0.214,-0.223 -0.438,-0.435 -0.656,-0.656 -0.005,-0.005 0.005,-0.026 0,-0.031 -0.141,-0.136 -0.294,-0.271 -0.438,-0.406 -0.182,-0.189 -0.377,-0.375 -0.563,-0.563 -0.005,-0.005 0.005,-0.026 0,-0.031 -0.141,-0.136 -0.294,-0.271 -0.438,-0.406 -0.182,-0.189 -0.377,-0.375 -0.563,-0.563 -0.005,-0.005 0.005,-0.026 0,-0.031 -0.141,-0.136 -0.294,-0.271 -0.438,-0.406 -0.182,-0.189 -0.377,-0.375 -0.563,-0.563 -0.005,-0.005 0.005,-0.026 0,-0.031 -0.111,-0.107 -0.232,-0.206 -0.344,-0.313 -0.212,-0.221 -0.44,-0.437 -0.656,-0.656 -0.005,-0.005 0.005,-0.026 0,-0.031 -0.111,-0.107 -0.232,-0.206 -0.344,-0.313 -0.21,-0.219 -0.41,-0.439 -0.625,-0.656 -0.322,-0.342 -0.667,-0.664 -1,-1 -0.317,-0.336 -0.673,-0.637 -1,-0.969 -0.005,-0.005 0.005,-0.026 0,-0.031 -0.141,-0.136 -0.294,-0.271 -0.438,-0.406 -0.182,-0.189 -0.377,-0.375 -0.563,-0.563 -0.005,-0.005 0.005,-0.026 0,-0.031 -0.141,-0.136 -0.294,-0.271 -0.438,-0.406 -0.182,-0.189 -0.377,-0.375 -0.563,-0.563 -0.005,-0.005 0.005,-0.026 0,-0.031 -0.111,-0.107 -0.232,-0.206 -0.344,-0.313 -0.212,-0.221 -0.44,-0.437 -0.656,-0.656 -0.005,-0.005 0.005,-0.026 0,-0.031 -0.111,-0.107 -0.232,-0.206 -0.344,-0.313 -0.214,-0.223 -0.438,-0.435 -0.656,-0.656 -0.005,-0.005 0.005,-0.026 0,-0.031 -0.133,-0.128 -0.272,-0.248 -0.406,-0.375 -0.19,-0.198 -0.369,-0.398 -0.563,-0.594 -0.005,-0.006 -0.026,0.006 -0.031,0 -0.105,-0.102 -0.206,-0.211 -0.313,-0.313 -0.214,-0.223 -0.438,-0.435 -0.656,-0.656 -0.005,-0.005 0.005,-0.026 0,-0.031 -0.141,-0.136 -0.294,-0.271 -0.438,-0.406 -0.182,-0.189 -0.377,-0.375 -0.563,-0.563 -0.005,-0.005 0.005,-0.026 0,-0.031 -0.141,-0.136 -0.294,-0.271 -0.438,-0.406 -0.182,-0.189 -0.377,-0.375 -0.563,-0.563 -0.005,-0.005 0.005,-0.026 0,-0.031 -0.111,-0.107 -0.232,-0.206 -0.344,-0.313 -0.212,-0.221 -0.44,-0.437 -0.656,-0.656 -0.005,-0.005 0.005,-0.026 0,-0.031 -0.111,-0.107 -0.232,-0.206 -0.344,-0.313 -0.212,-0.221 -0.44,-0.437 -0.656,-0.656 -0.005,-0.005 0.005,-0.026 0,-0.031 -0.111,-0.107 -0.232,-0.206 -0.344,-0.313 -0.21,-0.219 -0.41,-0.439 -0.625,-0.656 -0.01,-0.011 -0.021,-0.021 -0.031,-0.031 -0.101,-0.098 -0.211,-0.184 -0.313,-0.281 -0.214,-0.223 -0.438,-0.435 -0.656,-0.656 -0.005,-0.005 0.005,-0.026 0,-0.031 -0.141,-0.136 -0.294,-0.271 -0.438,-0.406 -0.182,-0.189 -0.377,-0.375 -0.563,-0.563 -0.005,-0.005 0.005,-0.026 0,-0.031 -0.141,-0.136 -0.294,-0.271 -0.438,-0.406 -0.182,-0.189 -0.377,-0.375 -0.563,-0.563 -0.005,-0.005 0.005,-0.026 0,-0.031 -0.111,-0.107 -0.232,-0.206 -0.344,-0.313 -0.212,-0.221 -0.44,-0.437 -0.656,-0.656 -0.005,-0.005 0.005,-0.026 0,-0.031 -0.111,-0.107 -0.232,-0.206 -0.344,-0.313 -0.212,-0.221 -0.44,-0.437 -0.656,-0.656 -0.005,-0.005 0.005,-0.026 0,-0.031 -0.111,-0.107 -0.232,-0.206 -0.344,-0.313 -0.21,-0.219 -0.41,-0.439 -0.625,-0.656 -0.01,-0.011 -0.021,-0.021 -0.031,-0.031 -0.101,-0.098 -0.211,-0.184 -0.313,-0.281 -0.214,-0.223 -0.438,-0.435 -0.656,-0.656 -0.005,-0.005 0.005,-0.026 0,-0.031 -0.141,-0.136 -0.294,-0.271 -0.438,-0.406 -0.182,-0.189 -0.377,-0.375 -0.563,-0.563 -0.005,-0.005 0.005,-0.026 0,-0.031 -0.141,-0.136 -0.294,-0.271 -0.438,-0.406 -0.182,-0.189 -0.377,-0.375 -0.563,-0.563 -0.005,-0.005 0.005,-0.026 0,-0.031 -0.141,-0.136 -0.294,-0.271 -0.438,-0.406 -0.182,-0.189 -0.377,-0.375 -0.563,-0.563 -0.005,-0.005 0.005,-0.026 0,-0.031 -0.111,-0.107 -0.232,-0.206 -0.344,-0.313 -0.212,-0.221 -0.44,-0.437 -0.656,-0.656 -0.005,-0.005 0.005,-0.026 0,-0.031 -0.111,-0.107 -0.232,-0.206 -0.344,-0.313 -0.209,-0.218 -0.412,-0.441 -0.625,-0.656 -0.322,-0.342 -0.667,-0.664 -1,-1 -0.317,-0.336 -0.673,-0.637 -1,-0.969 -0.005,-0.005 0.005,-0.026 0,-0.031 -0.141,-0.136 -0.294,-0.271 -0.438,-0.406 -0.182,-0.189 -0.377,-0.375 -0.563,-0.563 -0.005,-0.005 0.005,-0.026 0,-0.031 -0.141,-0.136 -0.294,-0.271 -0.438,-0.406 -0.182,-0.189 -0.377,-0.375 -0.563,-0.563 -0.005,-0.005 0.005,-0.026 0,-0.031 -0.111,-0.107 -0.232,-0.206 -0.344,-0.313 -0.212,-0.221 -0.44,-0.437 -0.656,-0.656 -0.005,-0.005 0.005,-0.026 0,-0.031 -0.111,-0.107 -0.232,-0.206 -0.344,-0.313 -0.214,-0.223 -0.438,-0.435 -0.656,-0.656 -0.005,-0.005 0.005,-0.026 0,-0.031 -0.111,-0.107 -0.232,-0.206 -0.344,-0.313 -0.21,-0.219 -0.41,-0.439 -0.625,-0.656 -0.005,-0.006 -0.026,0.006 -0.031,0 -0.105,-0.102 -0.206,-0.211 -0.313,-0.313 -0.214,-0.223 -0.438,-0.435 -0.656,-0.656 -0.005,-0.005 0.005,-0.026 0,-0.031 -0.141,-0.136 -0.294,-0.271 -0.438,-0.406 -0.182,-0.189 -0.377,-0.375 -0.563,-0.563 -0.005,-0.005 0.005,-0.026 0,-0.031 -0.141,-0.136 -0.294,-0.271 -0.438,-0.406 -0.182,-0.189 -0.377,-0.375 -0.563,-0.563 -0.005,-0.005 0.005,-0.026 0,-0.031 -0.111,-0.107 -0.232,-0.206 -0.344,-0.313 -0.212,-0.221 -0.44,-0.437 -0.656,-0.656 -0.005,-0.005 0.005,-0.026 0,-0.031 -0.111,-0.107 -0.232,-0.206 -0.344,-0.313 -0.212,-0.221 -0.44,-0.437 -0.656,-0.656 -0.005,-0.005 0.005,-0.026 0,-0.031 -0.111,-0.107 -0.232,-0.206 -0.344,-0.313 -0.21,-0.219 -0.41,-0.439 -0.625,-0.656 -0.01,-0.011 -0.021,-0.021 -0.031,-0.031 -0.101,-0.098 -0.211,-0.184 -0.313,-0.281 -0.214,-0.223 -0.438,-0.435 -0.656,-0.656 -0.005,-0.005 0.005,-0.026 0,-0.031 -0.141,-0.136 -0.294,-0.271 -0.438,-0.406 -0.182,-0.189 -0.377,-0.375 -0.563,-0.563 -0.005,-0.005 0.005,-0.026 0,-0.031 -0.141,-0.136 -0.294,-0.271 -0.438,-0.406 -0.182,-0.189 -0.377,-0.375 -0.563,-0.563 -0.005,-0.005 0.005,-0.026 0,-0.031 -0.141,-0.136 -0.294,-0.271 -0.438,-0.406 -0.182,-0.189 -0.377,-0.375 -0.563,-0.563 -0.005,-0.005 0.005,-0.026 0,-0.031 -0.111,-0.107 -0.232,-0.206 -0.344,-0.313 -0.212,-0.221 -0.44,-0.437 -0.656,-0.656 -0.005,-0.005 0.005,-0.026 0,-0.031 -0.111,-0.107 -0.232,-0.206 -0.344,-0.313 -0.21,-0.219 -0.41,-0.439 -0.625,-0.656 -0.322,-0.342 -0.667,-0.664 -1,-1 -0.317,-0.336 -0.673,-0.637 -1,-0.969 -0.005,-0.005 0.005,-0.026 0,-0.031 -0.141,-0.136 -0.294,-0.271 -0.438,-0.406 -0.182,-0.189 -0.377,-0.375 -0.563,-0.563 -0.005,-0.005 0.005,-0.026 0,-0.031 -0.141,-0.136 -0.294,-0.271 -0.438,-0.406 -0.182,-0.189 -0.377,-0.375 -0.563,-0.563 -0.005,-0.005 0.005,-0.026 0,-0.031 -0.111,-0.107 -0.232,-0.206 -0.344,-0.313 -0.212,-0.221 -0.44,-0.437 -0.656,-0.656 -0.005,-0.005 0.005,-0.026 0,-0.031 -0.111,-0.107 -0.232,-0.206 -0.344,-0.313 -0.214,-0.223 -0.438,-0.435 -0.656,-0.656 -0.005,-0.005 0.005,-0.026 0,-0.031 -0.133,-0.128 -0.272,-0.248 -0.406,-0.375 -0.19,-0.198 -0.369,-0.398 -0.563,-0.594 -0.005,-0.006 -0.026,0.006 -0.031,0 -0.105,-0.102 -0.206,-0.211 -0.313,-0.313 -0.214,-0.223 -0.438,-0.435 -0.656,-0.656 -0.005,-0.005 0.005,-0.026 0,-0.031 -0.141,-0.136 -0.294,-0.271 -0.438,-0.406 -0.182,-0.189 -0.377,-0.375 -0.563,-0.563 -0.005,-0.005 0.005,-0.026 0,-0.031 -0.141,-0.136 -0.294,-0.271 -0.438,-0.406 -0.182,-0.189 -0.377,-0.375 -0.563,-0.563 -0.005,-0.005 0.005,-0.026 0,-0.031 -0.111,-0.107 -0.232,-0.206 -0.344,-0.313 -0.212,-0.221 -0.44,-0.437 -0.656,-0.656 -0.005,-0.005 0.005,-0.026 0,-0.031 -0.111,-0.107 -0.232,-0.206 -0.344,-0.313 -0.212,-0.221 -0.44,-0.437 -0.656,-0.656 -0.005,-0.005 0.005,-0.026 0,-0.031 -0.111,-0.107 -0.232,-0.206 -0.344,-0.313 -0.21,-0.219 -0.41,-0.439 -0.625,-0.656 -0.01,-0.011 -0.021,-0.021 -0.031,-0.031 -0.101,-0.098 -0.211,-0.184 -0.313,-0.281 -0.214,-0.223 -0.438,-0.435 -0.656,-0.656 -0.005,-0.005 0.005,-0.026 0,-0.031 -0.141,-0.136 -0.294,-0.271 -0.438,-0.406 -0.182,-0.189 -0.377,-0.375 -0.563,-0.563 -0.005,-0.005 0.005,-0.026 0,-0.031 -0.141,-0.136 -0.294,-0.271 -0.438,-0.406 -0.182,-0.189 -0.377,-0.375 -0.563,-0.563 -0.005,-0.005 0.005,-0.026 0,-0.031 -0.111,-0.107 -0.232,-0.206 -0.344,-0.313 -0.212,-0.221 -0.44,-0.437 -0.656,-0.656 -0.005,-0.005 0.005,-0.026 0,-0.031 -0.111,-0.107 -0.232,-0.206 -0.344,-0.313 -0.212,-0.221 -0.44,-0.437 -0.656,-0.656 -0.005,-0.005 0.005,-0.026 0,-0.031 -0.111,-0.107 -0.232,-0.206 -0.344,-0.313 -0.21,-0.219 -0.41,-0.439 -0.625,-0.656 -0.01,-0.011 -0.021,-0.021 -0.031,-0.031 -0.101,-0.098 -0.211,-0.184 -0.313,-0.281 -0.214,-0.223 -0.438,-0.435 -0.656,-0.656 -0.005,-0.005 0.005,-0.026 0,-0.031 -0.141,-0.136 -0.294,-0.271 -0.438,-0.406 -0.182,-0.189 -0.377,-0.375 -0.563,-0.563 -0.005,-0.005 0.005,-0.026 0,-0.031 -0.141,-0.136 -0.294,-0.271 -0.438,-0.406 -0.182,-0.189 -0.377,-0.375 -0.563,-0.563 -0.005,-0.005 0.005,-0.026 0,-0.031 -0.141,-0.136 -0.294,-0.271 -0.438,-0.406 -0.182,-0.189 -0.377,-0.375 -0.563,-0.563 -0.005,-0.005 0.005,-0.026 0,-0.031 -0.111,-0.107 -0.232,-0.206 -0.344,-0.313 -0.212,-0.221 -0.44,-0.437 -0.656,-0.656 -0.005,-0.005 0.005,-0.026 0,-0.031 -0.111,-0.107 -0.232,-0.206 -0.344,-0.313 -0.21,-0.219 -0.41,-0.439 -0.625,-0.656 -0.322,-0.342 -0.667,-0.664 -1,-1 -0.317,-0.336 -0.673,-0.637 -1,-0.969 -0.005,-0.005 0.005,-0.026 0,-0.031 -0.141,-0.136 -0.294,-0.271 -0.438,-0.406 -0.182,-0.189 -0.377,-0.375 -0.563,-0.563 -0.005,-0.005 0.005,-0.026 0,-0.031 -0.141,-0.136 -0.294,-0.271 -0.438,-0.406 -0.182,-0.189 -0.377,-0.375 -0.563,-0.563 -0.005,-0.005 0.005,-0.026 0,-0.031 -0.111,-0.107 -0.232,-0.206 -0.344,-0.313 -0.212,-0.221 -0.44,-0.437 -0.656,-0.656 -0.005,-0.005 0.005,-0.026 0,-0.031 -0.111,-0.107 -0.232,-0.206 -0.344,-0.313 -0.214,-0.223 -0.438,-0.435 -0.656,-0.656 -0.005,-0.005 0.005,-0.026 0,-0.031 -0.133,-0.128 -0.272,-0.248 -0.406,-0.375 -0.19,-0.198 -0.369,-0.398 -0.563,-0.594 -0.005,-0.006 -0.026,0.006 -0.031,0 -0.105,-0.102 -0.206,-0.211 -0.313,-0.313 -0.214,-0.223 -0.438,-0.435 -0.656,-0.656 -0.005,-0.005 0.005,-0.026 0,-0.031 -0.141,-0.136 -0.294,-0.271 -0.438,-0.406 -0.182,-0.189 -0.377,-0.375 -0.563,-0.563 -0.005,-0.005 0.005,-0.026 0,-0.031 -0.141,-0.136 -0.294,-0.271 -0.438,-0.406 -0.182,-0.189 -0.377,-0.375 -0.563,-0.563 -0.005,-0.005 0.005,-0.026 0,-0.031 -0.111,-0.107 -0.232,-0.206 -0.344,-0.313 -0.212,-0.221 -0.44,-0.437 -0.656,-0.656 -0.005,-0.005 0.005,-0.026 0,-0.031 -0.111,-0.107 -0.232,-0.206 -0.344,-0.313 -0.212,-0.221 -0.44,-0.437 -0.656,-0.656 -0.005,-0.005 0.005,-0.026 0,-0.031 -0.111,-0.107 -0.232,-0.206 -0.344,-0.313 -0.21,-0.22 -0.41,-0.439 -0.625,-0.656 -0.01,-0.011 -0.021,-0.021 -0.031,-0.031 -0.101,-0.098 -0.211,-0.184 -0.313,-0.281 -0.214,-0.223 -0.438,-0.435 -0.656,-0.656 -0.005,-0.005 0.005,-0.026 0,-0.031 -0.141,-0.136 -0.294,-0.271 -0.438,-0.406 -0.182,-0.189 -0.377,-0.375 -0.563,-0.563 -0.005,-0.005 0.005,-0.026 0,-0.031 -0.141,-0.136 -0.294,-0.271 -0.438,-0.406 -0.182,-0.189 -0.377,-0.375 -0.563,-0.563 -0.005,-0.005 0.005,-0.026 0,-0.031 -0.141,-0.136 -0.294,-0.271 -0.438,-0.406 -0.182,-0.189 -0.377,-0.375 -0.563,-0.563 -0.005,-0.005 0.005,-0.026 0,-0.031 -0.111,-0.107 -0.232,-0.206 -0.344,-0.313 -0.212,-0.221 -0.44,-0.437 -0.656,-0.656 -0.005,-0.005 0.005,-0.026 0,-0.031 -0.111,-0.107 -0.232,-0.206 -0.344,-0.313 -0.21,-0.22 -0.41,-0.439 -0.625,-0.656 -0.322,-0.342 -0.667,-0.664 -1,-1 -0.317,-0.336 -0.673,-0.637 -1,-0.969 -0.005,-0.005 0.005,-0.026 0,-0.031 -0.141,-0.136 -0.294,-0.271 -0.438,-0.406 -0.182,-0.189 -0.377,-0.375 -0.563,-0.563 -0.005,-0.005 0.005,-0.026 0,-0.031 -0.141,-0.136 -0.294,-0.271 -0.438,-0.406 -0.182,-0.189 -0.377,-0.375 -0.563,-0.563 -0.005,-0.005 0.005,-0.026 0,-0.031 -0.111,-0.107 -0.232,-0.206 -0.344,-0.313 -0.212,-0.221 -0.44,-0.437 -0.656,-0.656 -0.005,-0.005 0.005,-0.026 0,-0.031 -0.111,-0.107 -0.232,-0.206 -0.344,-0.313 -0.214,-0.223 -0.438,-0.435 -0.656,-0.656 -0.005,-0.005 0.005,-0.026 0,-0.031 -0.133,-0.128 -0.272,-0.248 -0.406,-0.375 -0.19,-0.198 -0.369,-0.398 -0.563,-0.594 -0.005,-0.006 -0.026,0.006 -0.031,0 -0.105,-0.102 -0.206,-0.211 -0.313,-0.313 -0.214,-0.223 -0.438,-0.435 -0.656,-0.656 -0.005,-0.005 0.005,-0.026 0,-0.031 -0.141,-0.136 -0.294,-0.271 -0.438,-0.406 -0.182,-0.189 -0.377,-0.375 -0.563,-0.563 -0.005,-0.005 0.005,-0.026 0,-0.031 -0.141,-0.136 -0.294,-0.271 -0.438,-0.406 -0.182,-0.189 -0.377,-0.375 -0.563,-0.563 -0.005,-0.005 0.005,-0.026 0,-0.031 -0.111,-0.107 -0.232,-0.206 -0.344,-0.313 -0.212,-0.221 -0.44,-0.437 -0.656,-0.656 -0.005,-0.005 0.005,-0.026 0,-0.031 -0.111,-0.107 -0.232,-0.206 -0.344,-0.313 -0.212,-0.221 -0.44,-0.437 -0.656,-0.656 -0.005,-0.005 0.005,-0.026 0,-0.031 -0.111,-0.107 -0.232,-0.206 -0.344,-0.313 -0.21,-0.22 -0.41,-0.439 -0.625,-0.656 -0.01,-0.011 -0.021,-0.021 -0.031,-0.031 -0.101,-0.098 -0.211,-0.184 -0.313,-0.281 -0.214,-0.223 -0.438,-0.435 -0.656,-0.656 -0.005,-0.005 0.005,-0.026 0,-0.031 -0.141,-0.136 -0.294,-0.271 -0.438,-0.406 -0.182,-0.189 -0.377,-0.375 -0.563,-0.563 -0.005,-0.005 0.005,-0.026 0,-0.031 -0.141,-0.136 -0.294,-0.271 -0.438,-0.406 -0.182,-0.189 -0.377,-0.375 -0.563,-0.563 -0.005,-0.005 0.005,-0.026 0,-0.031 -0.111,-0.107 -0.232,-0.206 -0.344,-0.313 -0.212,-0.221 -0.44,-0.437 -0.656,-0.656 -0.005,-0.005 0.005,-0.026 0,-0.031 -0.111,-0.107 -0.232,-0.206 -0.344,-0.313 -0.212,-0.221 -0.44,-0.437 -0.656,-0.656 -0.005,-0.005 0.005,-0.026 0,-0.031 -0.111,-0.107 -0.232,-0.206 -0.344,-0.313 -0.21,-0.22 -0.41,-0.439 -0.625,-0.656 -0.01,-0.011 -0.021,-0.021 -0.031,-0.031 -0.101,-0.098 -0.211,-0.184 -0.313,-0.281 -0.214,-0.223 -0.438,-0.435 -0.656,-0.656 -0.005,-0.005 0.005,-0.026 0,-0.031 -0.141,-0.136 -0.294,-0.271 -0.438,-0.406 -0.182,-0.189 -0.377,-0.375 -0.563,-0.563 -0.005,-0.005 0.005,-0.026 0,-0.031 -0.141,-0.136 -0.294,-0.271 -0.438,-0.406 -0.182,-0.189 -0.377,-0.375 -0.563,-0.563 -0.005,-0.005 0.005,-0.026 0,-0.031 -0.141,-0.136 -0.294,-0.271 -0.438,-0.406 -0.182,-0.189 -0.377,-0.375 -0.563,-0.563 -0.005,-0.005 0.005,-0.026 0,-0.031 -0.111,-0.107 -0.232,-0.206 -0.344,-0.313 -0.212,-0.221 -0.44,-0.437 -0.656,-0.656 -0.005,-0.005 0.005,-0.026 0,-0.031 -0.111,-0.107 -0.232,-0.206 -0.344,-0.313 -0.21,-0.22 -0.41,-0.439 -0.625,-0.656 -0.322,-0.342 -0.667,-0.664 -1,-1 -0.317,-0.336 -0.673,-0.637 -1,-0.969 -0.005,-0.005 0.005,-0.026 0,-0.031 -0.141,-0.136 -0.294,-0.271 -0.438,-0.406 -0.182,-0.189 -0.377,-0.375 -0.563,-0.563 -0.005,-0.005 0.005,-0.026 0,-0.031 -0.141,-0.136 -0.294,-0.271 -0.438,-0.406 -0.182,-0.189 -0.377,-0.375 -0.563,-0.563 -0.005,-0.005 0.005,-0.026 0,-0.031 -0.111,-0.107 -0.232,-0.206 -0.344,-0.313 -0.212,-0.221 -0.44,-0.437 -0.656,-0.656 -0.005,-0.005 0.005,-0.026 0,-0.031 -0.111,-0.107 -0.232,-0.206 -0.344,-0.313 -0.214,-0.223 -0.438,-0.435 -0.656,-0.656 -0.005,-0.005 0.005,-0.026 0,-0.031 -0.133,-0.128 -0.272,-0.248 -0.406,-0.375 -0.19,-0.198 -0.369,-0.398 -0.563,-0.594 -0.005,-0.006 -0.026,0.006 -0.031,0 -0.105,-0.102 -0.206,-0.211 -0.313,-0.313 -0.214,-0.223 -0.438,-0.435 -0.656,-0.656 -0.005,-0.005 0.005,-0.026 0,-0.031 -0.141,-0.136 -0.294,-0.271 -0.438,-0.406 -0.182,-0.189 -0.377,-0.375 -0.563,-0.563 -0.005,-0.005 0.005,-0.026 0,-0.031 -0.141,-0.136 -0.294,-0.271 -0.438,-0.406 -0.182,-0.189 -0.377,-0.375 -0.563,-0.563 -0.005,-0.005 0.005,-0.026 0,-0.031 -0.111,-0.107 -0.232,-0.206 -0.344,-0.313 -0.212,-0.221 -0.44,-0.437 -0.656,-0.656 -0.005,-0.005 0.005,-0.026 0,-0.031 -0.111,-0.107 -0.232,-0.206 -0.344,-0.313 -0.212,-0.221 -0.44,-0.437 -0.656,-0.656 -0.005,-0.005 0.005,-0.026 0,-0.031 -0.111,-0.107 -0.232,-0.206 -0.344,-0.313 -0.21,-0.22 -0.41,-0.439 -0.625,-0.656 -0.01,-0.011 -0.021,-0.021 -0.031,-0.031 -0.101,-0.098 -0.211,-0.184 -0.313,-0.281 -0.214,-0.223 -0.438,-0.435 -0.656,-0.656 -0.005,-0.005 0.005,-0.026 0,-0.031 -0.141,-0.136 -0.294,-0.271 -0.438,-0.406 -0.182,-0.189 -0.377,-0.375 -0.563,-0.563 -0.005,-0.005 0.005,-0.026 0,-0.031 -0.141,-0.136 -0.294,-0.271 -0.438,-0.406 -0.182,-0.189 -0.377,-0.375 -0.563,-0.563 -0.005,-0.005 0.005,-0.026 0,-0.031 -0.141,-0.136 -0.294,-0.271 -0.438,-0.406 -0.182,-0.189 -0.377,-0.375 -0.563,-0.563 -0.005,-0.005 0.005,-0.026 0,-0.031 -0.111,-0.107 -0.232,-0.206 -0.344,-0.313 -0.212,-0.221 -0.44,-0.437 -0.656,-0.656 -0.005,-0.005 0.005,-0.026 0,-0.031 -0.111,-0.107 -0.232,-0.206 -0.344,-0.313 -0.21,-0.22 -0.41,-0.439 -0.625,-0.656 -0.322,-0.342 -0.667,-0.664 -1,-1 -0.317,-0.336 -0.673,-0.637 -1,-0.969 -0.005,-0.005 0.005,-0.026 0,-0.031 -0.141,-0.136 -0.294,-0.271 -0.438,-0.406 -0.182,-0.189 -0.377,-0.375 -0.563,-0.563 -0.005,-0.005 0.005,-0.026 0,-0.031 -0.141,-0.136 -0.294,-0.271 -0.438,-0.406 -0.182,-0.189 -0.377,-0.375 -0.563,-0.563 -0.005,-0.005 0.005,-0.026 0,-0.031 -0.111,-0.107 -0.232,-0.206 -0.344,-0.313 -0.212,-0.221 -0.44,-0.437 -0.656,-0.656 -0.005,-0.005 0.005,-0.026 0,-0.031 -0.111,-0.107 -0.232,-0.206 -0.344,-0.313 -0.209,-0.218 -0.412,-0.441 -0.625,-0.656 -0.322,-0.342 -0.667,-0.664 -1,-1 -0.317,-0.336 -0.673,-0.637 -1,-0.969 -0.005,-0.005 0.005,-0.026 0,-0.031 -0.141,-0.136 -0.294,-0.271 -0.438,-0.406 -0.182,-0.189 -0.377,-0.375 -0.563,-0.563 -0.005,-0.005 0.005,-0.026 0,-0.031 -0.141,-0.136 -0.294,-0.271 -0.438,-0.406 -0.182,-0.189 -0.377,-0.375 -0.563,-0.563 -0.005,-0.005 0.005,-0.026 0,-0.031 -0.111,-0.107 -0.232,-0.206 -0.344,-0.313 -0.212,-0.221 -0.44,-0.437 -0.656,-0.656 -0.005,-0.005 0.005,-0.026 0,-0.031 -0.111,-0.107 -0.232,-0.206 -0.344,-0.313 -0.212,-0.221 -0.44,-0.437 -0.656,-0.656 -0.005,-0.005 0.005,-0.026 0,-0.031 -0.111,-0.107 -0.232,-0.206 -0.344,-0.313 -0.21,-0.22 -0.41,-0.439 -0.625,-0.656 -0.01,-0.011 -0.021,-0.021 -0.031,-0.031 -0.101,-0.098 -0.211,-0.184 -0.313,-0.281 -0.214,-0.223 -0.438,-0.435 -0.656,-0.656 -0.005,-0.005 0.005,-0.026 0,-0.031 -0.141,-0.136 -0.294,-0.271 -0.438,-0.406 -0.182,-0.189 -0.377,-0.375 -0.563,-0.563 -0.005,-0.005 0.005,-0.026 0,-0.031 -0.141,-0.136 -0.294,-0.271 -0.438,-0.406 -0.182,-0.189 -0.377,-0.375 -0.563,-0.563 -0.005,-0.005 0.005,-0.026 0,-0.031 -0.084,-0.081 -0.165,-0.169 -0.25,-0.25 -0.242,-0.253 -0.502,-0.5 -0.75,-0.75 -0.048,-0.046 -0.108,-0.079 -0.156,-0.125 -11.644,-11.7 -29.532,-20.16 -52.12,-20.16" id="path471" fill-rule="evenodd" fill-opacity="0.235"/>
 <path d="m 254.9312,161.5805 c -32.716,0 -65.84,21.855 -65.84,54.999 l 0,60.3 -24.26,0 0,134.7 182.34,0 0,-134.7 -24.994,0 0,-61.973 c 0,-24.91 -25.759,-53.33 -67.25,-53.33 m -0.469,30.21 c 17.616,-0.092 36.803,12.204 36.803,30.942 l 0,54.15 -72.23,0 0.029,-0.029 0,-53.885 c 0,-20.325 20.242,-31.1 35.396,-31.18 m 0.821,114.63 c 10.08,0 18.255,8.175 18.255,18.255 0,6.01 -2.929,11.326 -7.413,14.651 l 7.238,40.612 -35.836,0 7.179,-40.41 c -4.638,-3.309 -7.677,-8.724 -7.677,-14.856 0,-10.08 8.175,-18.255 18.255,-18.255" id="path473" fill="#ffffff" fill-rule="evenodd"/>
</svg>
