<?xml version="1.0" encoding="UTF-8" standalone="no"?>
<svg xmlns="http://www.w3.org/2000/svg" version="1.1" viewBox="0 0 512 512">
 <metadata id="metadata367"/>
 <defs id="defs4">
  <linearGradient gradientUnits="userSpaceOnUse" id="0-0" y2="453.26" x2="0" y1="121.76" gradientTransform="translate(0.0012,-0.013)">
   <stop id="stop7-9" stop-color="#6a6a6a"/>
   <stop id="stop9-7" offset="0.47"/>
   <stop id="stop11-6" offset="0.494" stop-color="#fff"/>
   <stop id="stop13-4" offset="0.901" stop-color="#fff"/>
   <stop id="stop15-0" offset="0.955"/>
   <stop id="stop17-4" offset="1"/>
  </linearGradient>
 </defs>
 <path d="m 108.6312,57.377 c -7.963,0 -15.228,2.293 -20.693,6.22 -4.545,3.266 -7.751,7.872 -8.752,13.13 l -11.909,0 c -16.447,0 -29.883,13.03 -29.883,29.2 l 0,66.736 c 0,16.17 13.436,29.19 29.883,29.19 l 377.47,0 c 16.447,0 29.883,-13.03 29.883,-29.19 l 0,-66.736 c 0,-16.17 -13.436,-29.2 -29.883,-29.2 l -262.91,0 c -1,-5.256 -4.208,-9.862 -8.753,-13.13 -5.465,-3.927 -12.73,-6.22 -20.693,-6.22 l -43.761,0" id="path115" fill="#cccccc" fill-rule="evenodd"/>
 <path d="m 37.3612,118.467 c -19.928,0 -38.06,15.818 -36.23,35.853 l 24.26,265.41 c 1.733,18.966 16.271,34.947 36.2,34.947 l 383.41,0 c 19.933,0 34.1,-16.05 36.2,-34.853 l 29.632,-265.41 c 1.123,-10.05 -3.137,-19.263 -9.971,-25.663 -6.833,-6.399 -16.258,-10.284 -26.22,-10.284 l -437.27,0" id="path117" fill="#BF9E73" fill-rule="evenodd"/>
 <path id="path119" d="m 37.3612,118.457 c -19.928,0 -38.08,15.84 -36.25,35.875 l 11.781,128.78 12.469,136.63 c 1.733,18.966 16.29,34.938 36.22,34.938 l 383.41,0 c 19.933,0 34.09,-16.04 36.19,-34.844 l 15.281,-136.72 14.375,-128.69 c 1.123,-10.05 -3.135,-19.287 -9.969,-25.688 -6.833,-6.399 -16.257,-10.281 -26.22,-10.281 l -437.28,0" opacity="0.05" fill="url(#0-0)"/>
 <path d="m 108.5512,57.297 c -7.963,0 -15.11,2.403 -20.572,6.33 -4.545,3.266 -7.702,7.931 -8.703,13.187 l -12.13,0 c -17.677,0 -29.802,12.771 -29.802,30.661 l 0,3.956 c 0,-16.17 13.355,-29.27 29.802,-29.27 l 14.286,0 c 1,-5.256 2,-9.657 6.549,-12.923 5.465,-3.927 12.609,-6.33 20.572,-6.33 l 43.78,0 c 7.963,0 15.371,2.403 20.835,6.33 4.545,3.266 5.766,7.668 6.769,12.923 l 264.88,0 c 16.447,0 29.802,11.455 29.802,27.625 l 0,-3.956 c 0,-16.17 -13.355,-29.01 -29.802,-29.01 l -262.95,0 c -1,-5.256 -4.159,-9.921 -8.703,-13.187 -5.465,-3.927 -12.872,-6.33 -20.835,-6.33 z" id="path123" opacity="0.764" fill="#ffffff" fill-rule="evenodd"/>
 <path d="m 37.3512,118.457 c -19.928,0 -38.05,15.84 -36.22,35.875 l 0.406,4.375 c 3,-15.936 18.732,-27.563 35.813,-27.563 l 437.28,0 c 9.966,0 19.386,3.882 26.22,10.281 4.736,4.435 8.234,10.208 9.563,16.688 l 0.406,-3.688 c 1.123,-10.05 -3.134,-19.288 -9.969,-25.688 -6.833,-6.399 -16.252,-10.281 -26.22,-10.281 l -437.28,0" id="path125" opacity="0.4" fill="#ffffff" fill-rule="evenodd"/>
 <path id="path361" d="m 208.0412,161.587 c -13.599,0 -27.2,5.211 -37.617,15.631 -20.84,20.84 -20.84,54.4 0,75.24 l 137.31,137.31 64.922,64.922 72.33,0 c 19.933,0 34.09,-16.04 36.19,-34.844 l 0.715,-6.391 -236.23,-236.23 c -10.42,-10.42 -24.02,-15.631 -37.619,-15.631 m 40.471,2.494 26.625,27.16 26.656,27.13 181.6,181.61 12.926,-115.65 -84.26,-84.26 c -2.168,-2.168 -11.02,-5.567 -38.41,-15.289 -21.17,-7.514 -29.563,-9.01 -92.84,-16.723 l -32.3,-3.967 m -147.83,104.39 c -0.522,-0.133 -3.712,1.904 -7.05,4.525 -3.615,2.837 -9.19,5.641 -13.756,6.936 -4.219,1.196 -7.874,2.409 -8.141,2.676 -0.261,0.261 3.694,4.633 8.848,9.787 l 0.322,0.322 98.19,98.19 c 0.921,1.067 1.897,2.125 2.93,3.158 l 60.62,60.62 114.96,0 -63.717,-63.717 -11.521,-11.521 -96.25,-96.25 -4.967,3.674 -3.48,2.574 -11.125,-11.125 -4.232,2.996 c -3.625,2.576 -5.618,4.057 -7.125,4.396 l -11.07,-11.07 -6.03,4.672 -4.03,3.156 -10.188,-10.188 c -0.912,-0.912 -2.295,-0.232 -5.947,2.564 -3.254,2.492 -5.146,3.858 -6.652,4.063 l -9.811,-9.811 c -0.368,-0.368 -0.644,-0.592 -0.789,-0.629" opacity="0.25"/>
 <path id="path363" d="m 170.4312,177.217 c -20.84,20.84 -20.84,54.4 0,75.24 l 137.31,137.31 c 20.841,20.84 54.4,20.84 75.24,0 20.84,-20.84 20.84,-54.4 0,-75.24 l -137.31,-137.31 c -20.84,-20.84 -54.4,-20.84 -75.24,0 m -98.69,105.39 c -0.267,0.267 3.859,4.817 9.169,10.11 10.896,10.859 21.96,18.528 30.8,21.395 5.455,1.769 124.96,21.748 125.7,21.01 0.174,-0.174 -11.288,-11.934 -25.48,-26.13 l -25.804,-25.804 -4.967,3.674 -4.967,3.674 -4.82,-6.113 -4.82,-6.113 -4.232,2.998 c -8.518,6.05 -8.04,6.079 -13.372,-0.617 l -4.82,-6.05 -6.02,4.673 -5.995,4.702 -3.321,-4.555 c -1.822,-2.491 -3.832,-5.451 -4.467,-6.583 -0.939,-1.675 -2.109,-1.3 -6.377,1.969 -7.298,5.589 -7.755,5.566 -12.344,-0.705 -2.185,-2.987 -4.385,-5.54 -4.908,-5.672 -0.522,-0.133 -3.713,1.904 -7.05,4.526 -3.615,2.837 -9.188,5.641 -13.754,6.936 -4.219,1.196 -7.874,2.408 -8.141,2.674 m 123.7,-80.56 c 6.492,-6.492 17.02,-6.492 23.511,0 6.493,6.492 6.492,17.02 0,23.511 -6.493,6.493 -17.02,6.492 -23.511,0 -6.492,-6.492 -6.493,-17.02 0,-23.511 m 53.08,-37.971 26.626,27.16 26.656,27.13 27.655,2.733 c 15.219,1.495 31.03,2.661 35.12,2.616 10.326,-0.113 22.774,-2.809 30.594,-6.613 6.917,-3.365 16.667,-12.05 17.457,-15.576 0.523,-2.334 -4.789,-4.619 -38.97,-16.752 -21.17,-7.514 -29.562,-9.01 -92.84,-16.722 l -32.3,-3.968 m -75.24,207.31 c -0.577,0.516 -0.995,1.55 -1.469,3.115 -2.327,7.687 12.286,24.911 25.98,30.624 19.788,8.254 54.23,8.613 94.31,0.97 6.516,-1.243 12.197,-2.544 12.608,-2.91 0.411,-0.365 -4.472,-5.882 -10.815,-12.226 l -11.521,-11.521 -6.172,1.469 c -12.513,3 -22.386,-0.142 -36.12,-11.55 -15.46,-12.843 -27.28,-16.14 -37,-10.316 -6.393,3.827 -5.697,5.203 5.173,9.992 5.669,2.498 11.177,5.796 12.696,7.641 2.5,3.037 2.426,3.472 -0.94,6.642 -8.36,7.873 -24.676,4.9 -38.24,-7.02 -5.163,-4.54 -7.223,-6.04 -8.494,-4.908 m 157.56,-26.24 3.762,-3.762 3.762,-3.762 4.232,4.232 4.232,4.232 4.232,-4.232 4.232,-4.232 3.762,3.762 3.762,3.762 -4.232,4.232 -4.232,4.232 4.232,4.232 4.232,4.232 -3.762,3.762 -3.762,3.762 -4.232,-4.232 -4.232,-4.232 -4.232,4.232 -4.232,4.232 -3.762,-3.762 -3.762,-3.762 4.232,-4.232 4.232,-4.232 -4.232,-4.232 -4.232,-4.232" fill="#ffffff"/>
</svg>
