<?xml version="1.0" encoding="UTF-8" standalone="no"?>
<svg xmlns="http://www.w3.org/2000/svg" viewBox="0 0 512 512" height="512" width="512" version="1.1">
 <metadata id="metadata485"/>
 <defs id="defs4">
  <linearGradient gradientUnits="userSpaceOnUse" id="0-7" y2="453.24" x2="0" y1="121.74" gradientTransform="translate(0.0012,5e-4)">
   <stop id="stop7-1" stop-color="#6a6a6a"/>
   <stop offset="0.47" id="stop9-5"/>
   <stop offset="0.494" id="stop11-6" stop-color="#ffffff"/>
   <stop offset="0.901" id="stop13-7" stop-color="#ffffff"/>
   <stop offset="0.955" id="stop15-2"/>
   <stop offset="1" id="stop17-8"/>
  </linearGradient>
 </defs>
 <path d="m 108.6312,57.3705 c -7.963,0 -15.228,2.293 -20.693,6.22 -4.545,3.266 -7.751,7.872 -8.752,13.13 l -11.909,0 c -16.447,0 -29.883,13.03 -29.883,29.2 l 0,66.736 c 0,16.17 13.436,29.19 29.883,29.19 l 377.47,0 c 16.447,0 29.883,-13.03 29.883,-29.19 l 0,-66.736 c 0,-16.17 -13.436,-29.2 -29.883,-29.2 l -262.91,0 c -1,-5.256 -4.208,-9.862 -8.753,-13.13 -5.465,-3.927 -12.73,-6.22 -20.693,-6.22 l -43.761,0" id="path115" fill="#cccccc" fill-rule="evenodd"/>
 <path d="m 37.3612,118.4605 c -19.928,0 -38.06,15.818 -36.23,35.853 l 24.26,265.41 c 1.733,18.966 16.271,34.947 36.2,34.947 l 383.41,0 c 19.933,0 34.1,-16.05 36.2,-34.853 l 29.632,-265.41 c 1.123,-10.05 -3.137,-19.263 -9.971,-25.663 -6.833,-6.399 -16.258,-10.284 -26.22,-10.284 l -437.27,0" id="path117" fill="#BF9E73" fill-rule="evenodd"/>
 <path id="path119" d="m 37.3612,118.4505 c -19.928,0 -38.08,15.84 -36.25,35.875 l 11.781,128.78 12.469,136.63 c 1.733,18.966 16.29,34.938 36.22,34.938 l 383.41,0 c 19.933,0 34.09,-16.04 36.19,-34.844 l 15.281,-136.72 14.375,-128.69 c 1.123,-10.05 -3.135,-19.287 -9.969,-25.688 -6.833,-6.399 -16.257,-10.281 -26.22,-10.281 l -437.28,0" opacity="0.05" fill="url(#0-7)"/>
 <path d="m 108.5512,57.2905 c -7.963,0 -15.11,2.403 -20.572,6.33 -4.545,3.266 -7.702,7.931 -8.703,13.187 l -12.13,0 c -17.677,0 -29.802,12.771 -29.802,30.661 l 0,3.956 c 0,-16.17 13.355,-29.27 29.802,-29.27 l 14.286,0 c 1,-5.256 2,-9.657 6.549,-12.923 5.465,-3.927 12.609,-6.33 20.572,-6.33 l 43.78,0 c 7.963,0 15.371,2.403 20.835,6.33 4.545,3.266 5.766,7.668 6.769,12.923 l 264.88,0 c 16.447,0 29.802,11.455 29.802,27.625 l 0,-3.956 c 0,-16.17 -13.355,-29.01 -29.802,-29.01 l -262.95,0 c -1,-5.256 -4.159,-9.921 -8.703,-13.187 -5.465,-3.927 -12.872,-6.33 -20.835,-6.33 z" id="path125" opacity="0.764" fill="#ffffff" fill-rule="evenodd"/>
 <path d="m 37.3512,118.4505 c -19.928,0 -38.05,15.84 -36.22,35.875 l 0.406,4.375 c 3,-15.936 18.732,-27.563 35.813,-27.563 l 437.28,0 c 9.966,0 19.386,3.882 26.22,10.281 4.736,4.435 8.234,10.208 9.563,16.688 l 0.406,-3.688 c 1.123,-10.05 -3.134,-19.288 -9.969,-25.688 -6.833,-6.399 -16.252,-10.281 -26.22,-10.281 l -437.28,0" id="path127" opacity="0.4" fill="#ffffff" fill-rule="evenodd"/>
 <path d="m 322.7212,162.0905 c -3.384,-0.052 -6.209,0.865 -8.188,2.844 l -14.844,14.844 1,1 62.34,62.34 1,1 1,1 1,1 0.969,0.969 1,1 1,1 1,1 1,1 1,1 0.969,0.969 1,1 1,1 1,1 1,1 1,1 0.969,0.969 1,1 1,1 1,1 1,1 1,1 0.969,0.969 1,1 1,1 1,1 1,1 1,1 1,1 0.969,0.969 1,1 1,1 1,1 1,1 1,1 0.969,0.969 1,1 1,1 1,1 1,1 1,1 0.969,0.969 1,1 1,1 1,1 1,1 1,1 1,1 0.969,0.969 1,1 1,1 1,1 1,1 1,1 0.969,0.969 1,1 1,1 1,1 1,1 1,1 0.969,0.969 1,1 1,1 1,1 1,1 1,1 0.969,0.969 1,1 1,1 1,1 1,1 1,1 1,1 0.969,0.969 1,1 1,1 1,1 1,1 1,1 0.969,0.969 1,1 1,1 1,1 1,1 1,1 0.969,0.969 1,1 1,1 1,1 1,1 1,1 1,1 0.969,0.969 1,1 1,1 1,1 1,1 1,1 0.969,0.969 1,1 1,1 1,1 1,1 1,1 0.969,0.969 1,1 1,1 1,1 1,1 1,1 0.969,0.969 1,1 1,1 1,1 1,1 1,1 1,1 0.969,0.969 1,1 1,1 1,1 1,1 1,1 0.969,0.969 1,1 0.656,0.656 5.531,-49.53 -0.813,-0.813 c -0.042,-0.042 -0.083,-0.083 -0.125,-0.125 l -0.875,-0.875 c -0.032,-0.032 -0.062,-0.062 -0.094,-0.094 l -0.906,-0.906 c -0.032,-0.032 -0.062,-0.062 -0.094,-0.094 l -0.875,-0.875 -0.031,-0.031 c -0.032,-0.032 -0.062,-0.062 -0.094,-0.094 l -0.875,-0.875 c -0.042,-0.042 -0.083,-0.083 -0.125,-0.125 l -0.875,-0.875 c -0.042,-0.042 -0.083,-0.083 -0.125,-0.125 l -0.875,-0.875 c -0.042,-0.042 -0.083,-0.083 -0.125,-0.125 l -0.875,-0.875 c -0.032,-0.032 -0.062,-0.062 -0.094,-0.094 l -0.906,-0.906 c -0.032,-0.032 -0.062,-0.062 -0.094,-0.094 l -0.906,-0.906 c -0.032,-0.032 -0.062,-0.062 -0.094,-0.094 l -0.875,-0.875 c -0.042,-0.042 -0.083,-0.083 -0.125,-0.125 l -0.875,-0.875 c -0.042,-0.042 -0.083,-0.083 -0.125,-0.125 l -0.875,-0.875 c -0.042,-0.042 -0.083,-0.083 -0.125,-0.125 l -0.875,-0.875 c -0.032,-0.032 -0.062,-0.062 -0.094,-0.094 l -0.906,-0.906 c -0.032,-0.032 -0.062,-0.062 -0.094,-0.094 l -0.906,-0.906 c -0.032,-0.032 -0.062,-0.062 -0.094,-0.094 l -0.875,-0.875 c -0.042,-0.042 -0.083,-0.083 -0.125,-0.125 l -0.875,-0.875 c -0.042,-0.042 -0.083,-0.083 -0.125,-0.125 l -0.875,-0.875 c -0.042,-0.042 -0.083,-0.083 -0.125,-0.125 l -0.875,-0.875 c -0.042,-0.042 -0.083,-0.083 -0.125,-0.125 l -0.875,-0.875 c -0.032,-0.032 -0.062,-0.062 -0.094,-0.094 l -0.906,-0.906 c -0.032,-0.032 -0.062,-0.062 -0.094,-0.094 l -0.875,-0.875 c -0.042,-0.042 -0.083,-0.083 -0.125,-0.125 l -0.875,-0.875 c -0.042,-0.042 -0.083,-0.083 -0.125,-0.125 l -0.875,-0.875 c -0.042,-0.042 -0.083,-0.083 -0.125,-0.125 l -0.875,-0.875 c -0.042,-0.042 -0.083,-0.083 -0.125,-0.125 l -0.875,-0.875 c -0.032,-0.032 -0.062,-0.062 -0.094,-0.094 l -0.906,-0.906 c -0.032,-0.032 -0.062,-0.062 -0.094,-0.094 l -0.906,-0.906 c -0.032,-0.032 -0.062,-0.062 -0.094,-0.094 l -0.875,-0.875 c -0.042,-0.042 -0.083,-0.083 -0.125,-0.125 l -0.875,-0.875 c -0.042,-0.042 -0.083,-0.083 -0.125,-0.125 l -0.875,-0.875 c -0.042,-0.042 -0.083,-0.083 -0.125,-0.125 l -0.875,-0.875 c -0.032,-0.032 -0.062,-0.062 -0.094,-0.094 l -0.906,-0.906 c -0.032,-0.032 -0.062,-0.062 -0.094,-0.094 l -0.906,-0.906 c -0.032,-0.032 -0.062,-0.062 -0.094,-0.094 l -0.875,-0.875 c -0.042,-0.042 -0.083,-0.083 -0.125,-0.125 l -0.875,-0.875 c -0.042,-0.042 -0.083,-0.083 -0.125,-0.125 l -0.875,-0.875 c -0.042,-0.042 -0.083,-0.083 -0.125,-0.125 l -0.875,-0.875 c -0.032,-0.032 -0.062,-0.062 -0.094,-0.094 l -0.906,-0.906 c -0.032,-0.032 -0.062,-0.062 -0.094,-0.094 l -0.906,-0.906 c -0.032,-0.032 -0.062,-0.062 -0.094,-0.094 l -0.875,-0.875 c -0.042,-0.042 -0.083,-0.083 -0.125,-0.125 l -0.875,-0.875 c -0.042,-0.042 -0.083,-0.083 -0.125,-0.125 l -0.875,-0.875 c -0.042,-0.042 -0.083,-0.083 -0.125,-0.125 l -0.875,-0.875 c -0.042,-0.042 -0.083,-0.083 -0.125,-0.125 l -0.875,-0.875 c -0.032,-0.032 -0.062,-0.062 -0.094,-0.094 l -0.906,-0.906 c -0.032,-0.032 -0.062,-0.062 -0.094,-0.094 l -0.875,-0.875 c -0.042,-0.042 -0.083,-0.083 -0.125,-0.125 l -0.875,-0.875 c -0.042,-0.042 -0.083,-0.083 -0.125,-0.125 l -0.875,-0.875 c -0.042,-0.042 -0.083,-0.083 -0.125,-0.125 l -0.875,-0.875 c -0.042,-0.042 -0.083,-0.083 -0.125,-0.125 l -0.875,-0.875 c -0.032,-0.032 -0.062,-0.062 -0.094,-0.094 l -0.906,-0.906 c -0.032,-0.032 -0.062,-0.062 -0.094,-0.094 l -0.906,-0.906 c -0.032,-0.032 -0.062,-0.062 -0.094,-0.094 l -0.875,-0.875 c -0.042,-0.042 -0.083,-0.083 -0.125,-0.125 l -0.875,-0.875 c -0.042,-0.042 -0.083,-0.083 -0.125,-0.125 l -0.875,-0.875 c -0.042,-0.042 -0.083,-0.083 -0.125,-0.125 l -0.875,-0.875 c -0.032,-0.032 -0.062,-0.062 -0.094,-0.094 l -0.906,-0.906 c -0.032,-0.032 -0.062,-0.062 -0.094,-0.094 l -0.906,-0.906 c -0.032,-0.032 -0.062,-0.062 -0.094,-0.094 l -0.875,-0.875 c -0.042,-0.042 -0.083,-0.083 -0.125,-0.125 l -0.875,-0.875 c -0.042,-0.042 -0.083,-0.083 -0.125,-0.125 l -0.875,-0.875 c -0.042,-0.042 -0.083,-0.083 -0.125,-0.125 l -0.875,-0.875 c -0.042,-0.042 -0.083,-0.083 -0.125,-0.125 l -0.875,-0.875 c -0.032,-0.032 -0.062,-0.062 -0.094,-0.094 l -0.906,-0.906 c -0.032,-0.032 -0.062,-0.062 -0.094,-0.094 l -0.875,-0.875 c -0.042,-0.042 -0.083,-0.083 -0.125,-0.125 l -0.875,-0.875 c -0.042,-0.042 -0.083,-0.083 -0.125,-0.125 l -0.875,-0.875 c -0.042,-0.042 -0.083,-0.083 -0.125,-0.125 l -0.875,-0.875 c -0.042,-0.042 -0.083,-0.083 -0.125,-0.125 l -0.875,-0.875 c -0.032,-0.032 -0.062,-0.062 -0.094,-0.094 l -0.906,-0.906 c -0.032,-0.032 -0.062,-0.062 -0.094,-0.094 l -0.906,-0.906 c -0.032,-0.032 -0.062,-0.062 -0.094,-0.094 l -0.875,-0.875 c -0.042,-0.042 -0.083,-0.083 -0.125,-0.125 l -0.875,-0.875 c -0.042,-0.042 -0.083,-0.083 -0.125,-0.125 l -0.875,-0.875 c -0.042,-0.042 -0.083,-0.083 -0.125,-0.125 l -0.875,-0.875 c -0.032,-0.032 -0.062,-0.062 -0.094,-0.094 l -0.906,-0.906 c -0.032,-0.032 -0.062,-0.062 -0.094,-0.094 l -0.906,-0.906 c -0.032,-0.032 -0.062,-0.062 -0.094,-0.094 l -0.875,-0.875 c -0.042,-0.042 -0.083,-0.083 -0.125,-0.125 l -0.875,-0.875 c -0.042,-0.042 -0.083,-0.083 -0.125,-0.125 l -0.875,-0.875 c -0.042,-0.042 -0.083,-0.083 -0.125,-0.125 l -0.875,-0.875 c -0.032,-0.032 -0.062,-0.062 -0.094,-0.094 l -0.906,-0.906 c -0.032,-0.032 -0.062,-0.062 -0.094,-0.094 l -0.906,-0.906 c -0.032,-0.032 -0.062,-0.062 -0.094,-0.094 l -0.875,-0.875 c -0.042,-0.042 -0.083,-0.083 -0.125,-0.125 l -0.875,-0.875 c -0.042,-0.042 -0.083,-0.083 -0.125,-0.125 l -0.875,-0.875 c -0.042,-0.042 -0.083,-0.083 -0.125,-0.125 l -0.875,-0.875 c -0.042,-0.042 -0.083,-0.083 -0.125,-0.125 l -0.875,-0.875 c -0.032,-0.032 -0.062,-0.062 -0.094,-0.094 l -0.906,-0.906 c -0.032,-0.032 -0.062,-0.062 -0.094,-0.094 l -0.875,-0.875 c -0.042,-0.042 -0.083,-0.083 -0.125,-0.125 l -0.875,-0.875 c -0.042,-0.042 -0.083,-0.083 -0.125,-0.125 l -0.875,-0.875 c -0.042,-0.042 -0.083,-0.083 -0.125,-0.125 l -0.875,-0.875 c -0.042,-0.042 -0.083,-0.083 -0.125,-0.125 l -0.875,-0.875 c -0.032,-0.032 -0.062,-0.062 -0.094,-0.094 l -0.906,-0.906 c -0.032,-0.032 -0.062,-0.062 -0.094,-0.094 l -0.906,-0.906 c -0.032,-0.032 -0.062,-0.062 -0.094,-0.094 l -0.875,-0.875 c -0.042,-0.042 -0.083,-0.083 -0.125,-0.125 l -0.875,-0.875 c -0.042,-0.042 -0.083,-0.083 -0.125,-0.125 l -0.875,-0.875 c -0.042,-0.042 -0.083,-0.083 -0.125,-0.125 l -0.875,-0.875 c -0.032,-0.032 -0.062,-0.062 -0.094,-0.094 l -0.906,-0.906 c -0.032,-0.032 -0.062,-0.062 -0.094,-0.094 l -0.906,-0.906 c -0.032,-0.032 -0.062,-0.062 -0.094,-0.094 l -0.875,-0.875 c -0.042,-0.042 -0.083,-0.083 -0.125,-0.125 l -0.875,-0.875 c -0.042,-0.042 -0.083,-0.083 -0.125,-0.125 l -0.875,-0.875 c -0.042,-0.042 -0.083,-0.083 -0.125,-0.125 l -0.875,-0.875 c -0.042,-0.042 -0.083,-0.083 -0.125,-0.125 l -0.875,-0.875 c -0.032,-0.032 -0.062,-0.062 -0.094,-0.094 l -0.906,-0.906 c -0.032,-0.032 -0.062,-0.062 -0.094,-0.094 l -0.875,-0.875 c -0.042,-0.042 -0.083,-0.083 -0.125,-0.125 l -0.875,-0.875 c -0.042,-0.042 -0.083,-0.083 -0.125,-0.125 l -0.875,-0.875 c -0.042,-0.042 -0.083,-0.083 -0.125,-0.125 l -0.875,-0.875 c -0.042,-0.042 -0.083,-0.083 -0.125,-0.125 l -0.875,-0.875 c -0.032,-0.032 -0.062,-0.062 -0.094,-0.094 l -0.906,-0.906 c -0.032,-0.032 -0.062,-0.062 -0.094,-0.094 l -0.906,-0.906 c -0.032,-0.032 -0.062,-0.062 -0.094,-0.094 l -0.875,-0.875 c -0.042,-0.042 -0.083,-0.083 -0.125,-0.125 l -0.875,-0.875 c -0.042,-0.042 -0.083,-0.083 -0.125,-0.125 l -0.875,-0.875 c -0.042,-0.042 -0.083,-0.083 -0.125,-0.125 l -0.875,-0.875 c -0.032,-0.032 -0.062,-0.062 -0.094,-0.094 l -0.906,-0.906 c -0.032,-0.032 -0.062,-0.062 -0.094,-0.094 l -0.906,-0.906 c -0.032,-0.032 -0.062,-0.062 -0.094,-0.094 l -0.875,-0.875 c -0.042,-0.042 -0.083,-0.083 -0.125,-0.125 l -0.875,-0.875 c -0.042,-0.042 -0.083,-0.083 -0.125,-0.125 l -0.875,-0.875 c -0.042,-0.042 -0.083,-0.083 -0.125,-0.125 l -0.875,-0.875 c -0.032,-0.032 -0.062,-0.062 -0.094,-0.094 l -0.906,-0.906 c -0.032,-0.032 -0.062,-0.062 -0.094,-0.094 l -0.906,-0.906 c -0.032,-0.032 -0.062,-0.062 -0.094,-0.094 l -0.875,-0.875 c -0.042,-0.042 -0.083,-0.083 -0.125,-0.125 l -0.875,-0.875 c -0.334,-0.334 -0.664,-0.675 -1,-1 -0.334,-0.334 -0.664,-0.675 -1,-1 l -1,-1 c -0.339,-0.339 -0.658,-0.67 -1,-1 -0.328,-0.328 -0.638,-0.648 -0.969,-0.969 -0.334,-0.334 -0.664,-0.675 -1,-1 -0.334,-0.334 -0.664,-0.675 -1,-1 -0.334,-0.334 -0.664,-0.675 -1,-1 -10.852,-10.852 -23.1,-17.274 -31.75,-17.406 m -31.25,25.906 -15.688,15.688 1,1 63.03,63.03 0.688,0.688 0.656,0.656 0.688,0.688 0.281,0.281 0.406,0.406 0.563,0.563 0.125,0.125 0.656,0.656 0.219,0.219 0.469,0.469 0.531,0.531 0.156,0.156 0.688,0.688 0.156,0.156 0.5,0.5 0.5,0.5 0.188,0.188 0.688,0.688 0.125,0.125 0.563,0.563 0.406,0.406 0.25,0.25 0.688,0.688 0.063,0.063 0.625,0.625 0.375,0.375 0.313,0.313 0.656,0.656 0.031,0.031 0.656,0.656 0.344,0.344 0.344,0.344 0.656,0.656 0.688,0.688 0.281,0.281 0.406,0.406 0.594,0.594 0.094,0.094 0.688,0.688 0.219,0.219 0.438,0.438 0.563,0.563 0.125,0.125 0.688,0.688 0.188,0.188 0.5,0.5 0.5,0.5 0.156,0.156 0.688,0.688 0.125,0.125 0.563,0.563 0.438,0.438 0.25,0.25 0.656,0.656 0.094,0.094 0.594,0.594 0.406,0.406 0.281,0.281 0.688,0.688 0.031,0.031 0.625,0.625 0.375,0.375 0.313,0.313 0.688,0.688 0.969,0.969 0.406,0.406 0.594,0.594 0.063,0.063 0.688,0.688 0.25,0.25 0.438,0.438 0.563,0.563 0.125,0.125 0.656,0.656 0.219,0.219 0.469,0.469 0.531,0.531 0.156,0.156 0.688,0.688 0.125,0.125 0.531,0.531 0.469,0.469 0.219,0.219 0.688,0.688 0.094,0.094 0.594,0.594 0.406,0.406 0.25,0.25 0.688,0.688 0.063,0.063 0.625,0.625 0.375,0.375 0.313,0.313 0.656,0.656 0.688,0.688 0.313,0.313 0.375,0.375 0.625,0.625 0.719,0.719 0.281,0.281 0.406,0.406 0.594,0.594 0.094,0.094 0.688,0.688 0.219,0.219 0.438,0.438 0.563,0.563 0.125,0.125 0.688,0.688 0.156,0.156 0.531,0.531 0.469,0.469 0.188,0.188 0.688,0.688 0.125,0.125 0.563,0.563 0.438,0.438 0.25,0.25 0.656,0.656 0.094,0.094 0.594,0.594 0.406,0.406 0.281,0.281 0.688,0.688 0.656,0.656 0.344,0.344 0.344,0.344 0.656,0.656 0.719,0.719 0.281,0.281 0.406,0.406 0.594,0.594 0.063,0.063 0.688,0.688 0.25,0.25 0.438,0.438 0.531,0.531 0.156,0.156 0.656,0.656 0.188,0.188 0.5,0.5 0.5,0.5 0.188,0.188 0.688,0.688 0.125,0.125 0.531,0.531 0.469,0.469 0.219,0.219 0.688,0.688 0.094,0.094 0.594,0.594 0.375,0.375 0.281,0.281 0.688,0.688 0.031,0.031 0.656,0.656 0.344,0.344 0.344,0.344 0.656,0.656 0.688,0.688 0.313,0.313 0.375,0.375 0.625,0.625 0.063,0.063 0.656,0.656 0.281,0.281 0.406,0.406 0.563,0.563 0.125,0.125 0.688,0.688 0.188,0.188 0.469,0.469 0.531,0.531 0.156,0.156 0.688,0.688 0.156,0.156 0.531,0.531 0.469,0.469 0.188,0.188 0.688,0.688 0.125,0.125 0.563,0.563 0.406,0.406 0.281,0.281 0.656,0.656 0.063,0.063 0.625,0.625 0.375,0.375 0.313,0.313 0.688,0.688 0.688,0.688 0.313,0.313 0.344,0.344 0.656,0.656 0.031,0.031 0.688,0.688 0.25,0.25 0.438,0.438 0.563,0.563 0.094,0.094 0.688,0.688 0.219,0.219 0.469,0.469 0.531,0.531 0.156,0.156 0.656,0.656 0.188,0.188 0.5,0.5 0.5,0.5 0.188,0.188 0.688,0.688 0.125,0.125 0.531,0.531 0.438,0.438 0.25,0.25 0.688,0.688 0.063,0.063 0.625,0.625 0.375,0.375 0.281,0.281 0.688,0.688 0.031,0.031 0.656,0.656 0.344,0.344 0.344,0.344 0.656,0.656 0.688,0.688 0.281,0.281 0.406,0.406 0.594,0.594 0.094,0.094 0.656,0.656 0.25,0.25 0.438,0.438 0.563,0.563 0.125,0.125 0.688,0.688 0.188,0.188 0.469,0.469 0.531,0.531 0.156,0.156 0.688,0.688 0.125,0.125 0.563,0.563 0.438,0.438 0.219,0.219 0.688,0.688 0.094,0.094 0.594,0.594 0.406,0.406 0.281,0.281 0.656,0.656 0.063,0.063 0.625,0.625 0.375,0.375 0.313,0.313 0.656,0.656 0.031,0.031 0.688,0.688 0.281,0.281 0.375,0.375 0.625,0.625 0.063,0.063 0.688,0.688 0.25,0.25 0.438,0.438 0.563,0.563 0.094,0.094 0.688,0.688 0.219,0.219 0.469,0.469 0.531,0.531 0.156,0.156 0.656,0.656 0.156,0.156 0.531,0.531 0.469,0.469 0.219,0.219 0.688,0.688 0.094,0.094 0.563,0.563 0.438,0.438 0.25,0.25 0.688,0.688 0.063,0.063 0.625,0.625 0.375,0.375 0.281,0.281 0.688,0.688 0.688,0.688 0.313,0.313 0.375,0.375 0.625,0.625 0.031,0.031 0.969,0.969 0.406,0.406 0.594,0.594 0.094,0.094 0.906,0.906 0.438,0.438 0.531,0.531 0.156,0.156 0.688,0.688 0.156,0.156 0.5,0.5 0.5,0.5 0.188,0.188 0.688,0.688 0.125,0.125 0.563,0.563 0.438,0.438 0.219,0.219 0.688,0.688 0.094,0.094 0.594,0.594 0.406,0.406 0.281,0.281 0.031,0.031 0.625,0.625 0.031,0.031 0.344,0.344 0.313,0.313 0.344,0.344 0.344,0.344 0.656,0.656 1,1 1,1 1,1 0.969,0.969 1,1 0.875,0.875 3.125,-28.25 -0.031,-0.031 -0.219,-0.219 -1,-1 -0.094,-0.094 -0.906,-0.906 -0.406,-0.406 -0.563,-0.563 -0.75,-0.75 -0.25,-0.25 -1,-1 -0.063,-0.063 -0.938,-0.938 -0.375,-0.375 -0.625,-0.625 -0.688,-0.688 -0.313,-0.313 -0.969,-0.969 -0.031,-0.031 -0.969,-0.969 -0.313,-0.313 -0.688,-0.688 -0.625,-0.625 -0.375,-0.375 -0.938,-0.938 -0.063,-0.063 -1,-1 -0.25,-0.25 -0.719,-0.719 -0.594,-0.594 -0.406,-0.406 -0.906,-0.906 -0.094,-0.094 -1,-1 -0.219,-0.219 -0.781,-0.781 -0.531,-0.531 -0.469,-0.469 -0.844,-0.844 -0.156,-0.156 -0.969,-0.969 -0.188,-0.188 -0.813,-0.813 -0.5,-0.5 -0.5,-0.5 -0.813,-0.813 -0.188,-0.188 -1,-1 -0.125,-0.125 -0.875,-0.875 -0.406,-0.406 -0.563,-0.563 -0.75,-0.75 -0.25,-0.25 -1,-1 -0.063,-0.063 -0.938,-0.938 -0.375,-0.375 -0.625,-0.625 -0.688,-0.688 -0.313,-0.313 -0.969,-0.969 -0.031,-0.031 -0.969,-0.969 -0.344,-0.344 -0.656,-0.656 -0.656,-0.656 -0.344,-0.344 -0.969,-0.969 -0.031,-0.031 -1,-1 -0.281,-0.281 -0.688,-0.688 -0.625,-0.625 -0.375,-0.375 -0.938,-0.938 -0.063,-0.063 -1,-1 -0.25,-0.25 -0.75,-0.75 -0.563,-0.563 -0.438,-0.438 -0.844,-0.844 -0.156,-0.156 -0.969,-0.969 -0.188,-0.188 -0.813,-0.813 -0.5,-0.5 -0.5,-0.5 -0.813,-0.813 -0.188,-0.188 -1,-1 -0.125,-0.125 -0.875,-0.875 -0.438,-0.438 -0.531,-0.531 -0.781,-0.781 -0.219,-0.219 -1,-1 -0.094,-0.094 -0.906,-0.906 -0.406,-0.406 -0.594,-0.594 -0.719,-0.719 -0.281,-0.281 -0.969,-0.969 -0.063,-0.063 -0.938,-0.938 -0.375,-0.375 -0.625,-0.625 -0.688,-0.688 -0.313,-0.313 -0.969,-0.969 -0.031,-0.031 -1,-1 -0.281,-0.281 -0.719,-0.719 -0.594,-0.594 -0.375,-0.375 -0.938,-0.938 -0.063,-0.063 -1,-1 -0.25,-0.25 -0.75,-0.75 -0.563,-0.563 -0.438,-0.438 -0.875,-0.875 -0.125,-0.125 -0.969,-0.969 -0.219,-0.219 -0.781,-0.781 -0.531,-0.531 -0.469,-0.469 -0.844,-0.844 -0.156,-0.156 -1,-1 -0.156,-0.156 -0.844,-0.844 -0.469,-0.469 -0.5,-0.5 -0.813,-0.813 -0.188,-0.188 -1,-1 -0.094,-0.094 -0.906,-0.906 -0.406,-0.406 -0.594,-0.594 -0.719,-0.719 -0.281,-0.281 -0.969,-0.969 -0.063,-0.063 -0.938,-0.938 -0.375,-0.375 -0.625,-0.625 -0.688,-0.688 -0.313,-0.313 -1,-1 -1,-1 -0.313,-0.313 -0.688,-0.688 -0.625,-0.625 -0.344,-0.344 -0.969,-0.969 -0.031,-0.031 -1,-1 -0.281,-0.281 -0.719,-0.719 -0.594,-0.594 -0.406,-0.406 -0.906,-0.906 -0.094,-0.094 -0.969,-0.969 -0.25,-0.25 -0.75,-0.75 -0.531,-0.531 -0.469,-0.469 -0.844,-0.844 -0.156,-0.156 -1,-1 -0.156,-0.156 -0.844,-0.844 -0.469,-0.469 -0.5,-0.5 -0.813,-0.813 -0.188,-0.188 -1,-1 -0.125,-0.125 -0.875,-0.875 -0.438,-0.438 -0.563,-0.563 -0.75,-0.75 -0.25,-0.25 -1,-1 -0.063,-0.063 -0.906,-0.906 -0.406,-0.406 -0.594,-0.594 -0.719,-0.719 -0.281,-0.281 -1,-1 -0.031,-0.031 -0.969,-0.969 -0.344,-0.344 -0.656,-0.656 -0.625,-0.625 -0.344,-0.344 -0.969,-0.969 -0.031,-0.031 -1,-1 -0.281,-0.281 -0.719,-0.719 -0.594,-0.594 -0.406,-0.406 -0.906,-0.906 -0.094,-0.094 -0.969,-0.969 -0.25,-0.25 -0.75,-0.75 -0.563,-0.563 -0.438,-0.438 -0.875,-0.875 -0.125,-0.125 -1,-1 -0.188,-0.188 -0.813,-0.813 -0.5,-0.5 -0.469,-0.469 -0.844,-0.844 -0.156,-0.156 -1,-1 -0.156,-0.156 -0.844,-0.844 -0.469,-0.469 -1.313,-1.313 -1.281,-1.281 -1.313,-1.313 -1.313,-1.313 -1.313,-1.313 -1.313,-1.313 -1.313,-1.313 -1.313,-1.313 -1.313,-1.313 -1.313,-1.313 -1.313,-1.313 -1.313,-1.313 -1.313,-1.313 -1.313,-1.313 -1.281,-1.281 -1.313,-1.313 -1.313,-1.313 -1.313,-1.313 -1.313,-1.313 -1.313,-1.313 -1.313,-1.313 -1.313,-1.313 -1.313,-1.313 -1.313,-1.313 -1.313,-1.313 -1.313,-1.313 -1.313,-1.313 -1.281,-1.281 -1.313,-1.313 -1.313,-1.313 -1.313,-1.313 -1.313,-1.313 -1.313,-1.313 -1.313,-1.313 -1.313,-1.313 -1.313,-1.313 -1.313,-1.313 -1.313,-1.313 -1.313,-1.313 -1.313,-1.313 -1.313,-1.313 -1.281,-1.281 -1.313,-1.313 -1.313,-1.313 -1.281,-1.281 -0.031,-0.031 -0.938,-0.938 -0.375,-0.375 -0.625,-0.625 -0.688,-0.688 -0.313,-0.313 -1,-1 m -25.375,25.344 -95.66,95.69 -11.75,11.75 -3,3 -23.875,74.78 c -0.863,3.969 0.344,8.134 3.125,10.781 0.084,0.063 0.165,0.128 0.25,0.188 0.227,0.265 0.465,0.509 0.719,0.75 -0.004,0.02 0.018,0.049 0.031,0.063 0.121,0.09 0.251,0.166 0.375,0.25 0.191,0.216 0.384,0.425 0.594,0.625 -0.009,0.039 0.003,0.099 0.031,0.125 0.156,0.117 0.308,0.207 0.469,0.313 0.157,0.171 0.3,0.34 0.469,0.5 -0.013,0.059 0.021,0.148 0.063,0.188 0.174,0.13 0.351,0.227 0.531,0.344 0.127,0.136 0.24,0.278 0.375,0.406 -0.017,0.079 0.007,0.166 0.063,0.219 0.197,0.147 0.421,0.277 0.625,0.406 0.108,0.113 0.2,0.236 0.313,0.344 -0.022,0.099 -0.006,0.184 0.063,0.25 0.235,0.176 0.473,0.35 0.719,0.5 0.062,0.063 0.123,0.127 0.188,0.188 -0.026,0.118 0.011,0.233 0.094,0.313 0.244,0.183 0.494,0.345 0.75,0.5 0.042,0.042 0.082,0.084 0.125,0.125 -0.03,0.138 0.028,0.283 0.125,0.375 0.28,0.21 0.579,0.389 0.875,0.563 -0.034,0.158 0.014,0.332 0.125,0.438 0.278,0.208 0.551,0.39 0.844,0.563 -0.016,0.159 0.046,0.332 0.156,0.438 0.27,0.202 0.529,0.395 0.813,0.563 -0.002,0.159 0.045,0.301 0.156,0.406 0.265,0.198 0.565,0.366 0.844,0.531 -0.006,0.178 0.032,0.35 0.156,0.469 0.262,0.196 0.537,0.368 0.813,0.531 0.006,0.177 0.063,0.35 0.188,0.469 0.261,0.195 0.538,0.368 0.813,0.531 0.014,0.18 0.06,0.348 0.188,0.469 0.24,0.18 0.498,0.317 0.75,0.469 0.014,0.196 0.112,0.399 0.25,0.531 0.249,0.187 0.488,0.343 0.75,0.5 0.026,0.187 0.116,0.373 0.25,0.5 0.236,0.177 0.471,0.319 0.719,0.469 0.028,0.2 0.107,0.364 0.25,0.5 0.237,0.178 0.501,0.35 0.75,0.5 0.037,0.193 0.111,0.367 0.25,0.5 0.233,0.175 0.474,0.321 0.719,0.469 0.039,0.205 0.133,0.39 0.281,0.531 0.232,0.174 0.475,0.322 0.719,0.469 0.046,0.2 0.135,0.392 0.281,0.531 0.219,0.164 0.458,0.297 0.688,0.438 0.049,0.21 0.159,0.416 0.313,0.563 0.218,0.163 0.459,0.298 0.688,0.438 0.054,0.207 0.16,0.417 0.313,0.563 0.214,0.16 0.433,0.269 0.656,0.406 0.057,0.216 0.153,0.41 0.313,0.563 0.22,0.165 0.457,0.328 0.688,0.469 0.064,0.203 0.16,0.386 0.313,0.531 0.208,0.155 0.439,0.304 0.656,0.438 0.066,0.213 0.184,0.411 0.344,0.563 0.204,0.153 0.411,0.306 0.625,0.438 0.069,0.221 0.209,0.404 0.375,0.563 0.202,0.151 0.414,0.276 0.625,0.406 0.072,0.23 0.202,0.429 0.375,0.594 0.201,0.15 0.415,0.277 0.625,0.406 0.076,0.224 0.206,0.432 0.375,0.594 0.205,0.153 0.411,0.275 0.625,0.406 0.08,0.22 0.207,0.434 0.375,0.594 0.204,0.153 0.412,0.275 0.625,0.406 0.083,0.216 0.178,0.404 0.344,0.563 0.197,0.148 0.419,0.279 0.625,0.406 0.086,0.228 0.2,0.427 0.375,0.594 0.201,0.151 0.415,0.277 0.625,0.406 0.089,0.224 0.202,0.429 0.375,0.594 0.2,0.15 0.416,0.278 0.625,0.406 0.092,0.217 0.206,0.432 0.375,0.594 0.183,0.137 0.371,0.256 0.563,0.375 0.095,0.233 0.256,0.453 0.438,0.625 0.199,0.149 0.385,0.278 0.594,0.406 0.096,0.214 0.237,0.433 0.406,0.594 0.186,0.14 0.368,0.254 0.563,0.375 0.1,0.226 0.228,0.424 0.406,0.594 0.189,0.141 0.397,0.284 0.594,0.406 0.102,0.22 0.231,0.427 0.406,0.594 0.196,0.147 0.389,0.281 0.594,0.406 0.104,0.222 0.229,0.425 0.406,0.594 0.183,0.137 0.372,0.256 0.563,0.375 0.107,0.228 0.256,0.452 0.438,0.625 0.189,0.141 0.397,0.253 0.594,0.375 0.109,0.226 0.225,0.453 0.406,0.625 0.186,0.139 0.369,0.255 0.563,0.375 0.11,0.222 0.259,0.455 0.438,0.625 0.176,0.132 0.348,0.229 0.531,0.344 0.115,0.241 0.245,0.442 0.438,0.625 0.178,0.134 0.376,0.259 0.563,0.375 0.116,0.233 0.25,0.446 0.438,0.625 0.173,0.129 0.382,0.231 0.563,0.344 0.119,0.244 0.241,0.469 0.438,0.656 0.181,0.136 0.374,0.258 0.563,0.375 0.119,0.228 0.252,0.448 0.438,0.625 0.172,0.129 0.353,0.232 0.531,0.344 0.123,0.242 0.272,0.469 0.469,0.656 0.17,0.128 0.354,0.233 0.531,0.344 0.038,0.073 0.081,0.147 0.125,0.219 l 264.63,0 c 17.346,0 30.29,-12.141 34.75,-27.688 l -0.063,-0.063 -0.031,-0.031 -0.969,-0.969 -0.344,-0.344 -0.656,-0.656 -0.656,-0.656 -0.344,-0.344 -0.969,-0.969 -1,-1 -0.313,-0.313 -0.688,-0.688 -0.625,-0.625 -0.375,-0.375 -0.938,-0.938 -0.063,-0.063 -1,-1 -0.25,-0.25 -0.719,-0.719 -0.594,-0.594 -0.406,-0.406 -0.875,-0.875 -0.125,-0.125 -1,-1 -0.188,-0.188 -0.469,-0.469 -0.344,-0.344 -0.5,-0.5 -0.5,-0.5 -0.813,-0.813 -0.156,-0.156 -1,-1 -0.156,-0.156 -0.844,-0.844 -0.469,-0.469 -0.531,-0.531 -0.781,-0.781 -0.219,-0.219 -1,-1 -0.094,-0.094 -0.906,-0.906 -0.406,-0.406 -0.563,-0.563 -0.75,-0.75 -0.25,-0.25 -1,-1 -0.063,-0.063 -0.938,-0.938 -0.375,-0.375 -0.625,-0.625 -0.688,-0.688 -0.313,-0.313 -0.969,-0.969 -0.031,-0.031 -0.969,-0.969 -0.313,-0.313 -0.688,-0.688 -0.625,-0.625 -0.375,-0.375 -0.938,-0.938 -0.063,-0.063 -1,-1 -0.25,-0.25 -0.719,-0.719 -0.594,-0.594 -0.406,-0.406 -0.906,-0.906 -0.094,-0.094 -1,-1 -0.219,-0.219 -0.781,-0.781 -0.531,-0.531 -0.469,-0.469 -0.844,-0.844 -0.156,-0.156 -0.969,-0.969 -0.188,-0.188 -0.813,-0.813 -0.5,-0.5 -0.5,-0.5 -0.813,-0.813 -0.188,-0.188 -1,-1 -0.125,-0.125 -0.875,-0.875 -0.406,-0.406 -0.563,-0.563 -0.75,-0.75 -0.25,-0.25 -1,-1 -0.063,-0.063 -0.938,-0.938 -0.375,-0.375 -0.625,-0.625 -0.688,-0.688 -0.313,-0.313 -0.969,-0.969 -0.031,-0.031 -0.969,-0.969 -0.344,-0.344 -0.656,-0.656 -0.656,-0.656 -0.344,-0.344 -0.969,-0.969 -0.031,-0.031 -1,-1 -0.281,-0.281 -0.688,-0.688 -0.625,-0.625 -0.375,-0.375 -0.938,-0.938 -0.063,-0.063 -1,-1 -0.25,-0.25 -0.75,-0.75 -0.563,-0.563 -0.438,-0.438 -0.844,-0.844 -0.156,-0.156 -0.969,-0.969 -0.188,-0.188 -0.813,-0.813 -0.5,-0.5 -0.5,-0.5 -0.813,-0.813 -0.188,-0.188 -1,-1 -0.125,-0.125 -0.875,-0.875 -0.438,-0.438 -0.531,-0.531 -0.781,-0.781 -0.219,-0.219 -1,-1 -0.094,-0.094 -0.906,-0.906 -0.406,-0.406 -0.594,-0.594 -0.719,-0.719 -0.281,-0.281 -0.969,-0.969 -0.063,-0.063 -0.938,-0.938 -0.375,-0.375 -0.625,-0.625 -0.688,-0.688 -0.313,-0.313 -0.969,-0.969 -0.031,-0.031 -1,-1 -0.281,-0.281 -0.719,-0.719 -0.594,-0.594 -0.375,-0.375 -0.938,-0.938 -0.063,-0.063 -1,-1 -0.25,-0.25 -0.75,-0.75 -0.563,-0.563 -0.438,-0.438 -0.875,-0.875 -0.125,-0.125 -0.969,-0.969 -0.219,-0.219 -0.781,-0.781 -0.531,-0.531 -0.469,-0.469 -0.844,-0.844 -0.156,-0.156 -1,-1 -0.156,-0.156 -0.844,-0.844 -0.469,-0.469 -0.5,-0.5 -0.813,-0.813 -0.188,-0.188 -1,-1 -0.094,-0.094 -0.906,-0.906 -0.406,-0.406 -0.594,-0.594 -0.719,-0.719 -0.281,-0.281 -0.969,-0.969 -0.063,-0.063 -0.938,-0.938 -0.375,-0.375 -0.625,-0.625 -0.688,-0.688 -0.313,-0.313 -1,-1 -1,-1 -0.313,-0.313 -0.688,-0.688 -0.625,-0.625 -0.344,-0.344 -0.969,-0.969 -0.031,-0.031 -1,-1 -0.281,-0.281 -0.719,-0.719 -0.594,-0.594 -0.406,-0.406 -0.906,-0.906 -0.094,-0.094 -0.969,-0.969 -0.25,-0.25 -0.75,-0.75 -0.531,-0.531 -0.469,-0.469 -0.844,-0.844 -0.156,-0.156 -1,-1 -0.156,-0.156 -0.844,-0.844 -0.469,-0.469 -0.5,-0.5 -0.813,-0.813 -0.188,-0.188 -1,-1 -0.125,-0.125 -0.875,-0.875 -0.438,-0.438 -0.563,-0.563 -0.75,-0.75 -0.25,-0.25 -1,-1 -0.063,-0.063 -0.906,-0.906 -0.406,-0.406 -0.594,-0.594 -0.719,-0.719 -0.281,-0.281 -1,-1 -0.031,-0.031 -0.969,-0.969 -0.344,-0.344 -0.656,-0.656 -0.625,-0.625 -0.344,-0.344 -0.969,-0.969 -0.031,-0.031 -1,-1 -0.281,-0.281 -0.719,-0.719 -0.594,-0.594 -0.406,-0.406 -0.906,-0.906 -0.094,-0.094 -0.969,-0.969 -0.25,-0.25 -0.75,-0.75 -0.563,-0.563 -0.438,-0.438 -0.875,-0.875 -0.125,-0.125 -1,-1 -0.188,-0.188 -0.813,-0.813 -0.5,-0.5 -0.469,-0.469 -0.844,-0.844 -0.156,-0.156 -1,-1 -0.156,-0.156 -0.844,-0.844 -0.469,-0.469 -1.313,-1.313 -1.281,-1.281 -1.313,-1.313 -1.313,-1.313 -1.313,-1.313 -1.313,-1.313 -1.313,-1.313 -1.313,-1.313 -1.313,-1.313 -1.313,-1.313 -1.313,-1.313 -1.313,-1.313 -1.313,-1.313 -1.313,-1.313 -1.281,-1.281 -1.313,-1.313 -1.313,-1.313 -1.313,-1.313 -1.313,-1.313 -1.313,-1.313 -1.313,-1.313 -1.313,-1.313 -1.313,-1.313 -1.313,-1.313 -1.313,-1.313 -1.313,-1.313 -1.313,-1.313 -1.281,-1.281 -1.313,-1.313 -1.313,-1.313 -1.313,-1.313 -1.313,-1.313 -1.313,-1.313 -1.313,-1.313 -1.313,-1.313 -1.313,-1.313 -1.313,-1.313 -1.313,-1.313 -1.313,-1.313 -1.313,-1.313 -1.313,-1.313 -1.281,-1.281 -1.313,-1.313 -1.313,-1.313 -1.281,-1.281 -0.031,-0.031 -0.938,-0.938 -0.375,-0.375 -0.625,-0.625 -0.688,-0.688 -0.313,-0.313 -1,-1" id="path471" fill-rule="evenodd" fill-opacity="0.235"/>
 <path id="path475" d="m 266.09966,213.35093 -95.66235,95.66235 -11.75944,11.75944 -2.99201,2.99201 -23.86681,74.80282 a 9.7366675,10.847937 45 0 0 3.13259,10.77443 9.7366675,10.847937 45 0 0 8.73754,1.17999 l 75.8565,-23.93694 2.47236,-2.47236 11.42051,-11.4205 95.99949,-95.99949 -63.34186,-63.34187 m -63.21375,127.35464 a 2.7172407,2.7172407 0 0 1 0.92713,2.16331 l -1.05412,22.65806 4.14412,4.14413 a 2.7172407,2.7172407 0 0 1 -1.22213,4.53734 l -35.78179,9.56578 a 2.7172407,2.7172407 0 0 1 -2.62688,-0.68832 l -6.93969,-6.93969 a 2.7172407,2.7172407 0 0 1 -0.70238,-2.66903 l 10.43786,-36.76174 a 2.7172407,2.7172407 0 0 1 4.53734,-1.19404 l 5.57674,5.57674 20.77637,-1.05322 a 2.7172407,2.7172407 0 0 1 1.92451,0.66023" fill="#ffffff" fill-rule="evenodd"/>
 <rect transform="rotate(45)" id="rect477" y="-123.74" x="339.04" ry="17.959" rx="38.544" height="35.918" width="89.59" fill="#ffffff" fill-rule="evenodd"/>
 <path id="path479" d="m 314.63434,164.83423 63.34636,63.34636 -14.94205,14.94205 -63.34636,-63.34636 z" fill="#ffffff" fill-rule="evenodd"/>
 <path id="path481" d="m 291.47956,187.98901 63.34636,63.34636 -15.6878,15.6878 -63.34636,-63.34636 z" fill="#ffffff" fill-rule="evenodd"/>
</svg>
