<?xml version="1.0" encoding="UTF-8" standalone="no"?>
<svg xmlns="http://www.w3.org/2000/svg" version="1.1" width="512" height="512" viewBox="0 0 512 512">
 <metadata id="metadata473"/>
 <defs id="defs4">
  <linearGradient gradientTransform="translate(0.00333,-0.0045)" y1="213.78" x2="0" y2="454.64" id="0-5" gradientUnits="userSpaceOnUse">
   <stop id="stop7-0" stop-color="#6a6a6a"/>
   <stop id="stop9-4" offset="0.47"/>
   <stop id="stop11-7" offset="0.494" stop-color="#ffffff"/>
   <stop id="stop13-1" offset="0.901" stop-color="#ffffff"/>
   <stop id="stop15-5" offset="0.955"/>
   <stop id="stop17-6" offset="1"/>
  </linearGradient>
 </defs>
 <path d="m 108.62333,57.3655 c -7.963,0 -15.223,2.323 -20.688,6.25 -4.545,3.266 -7.749,7.867 -8.75,13.13 l -11.906,0 c -16.447,0 -29.875,13.02 -29.875,29.19 l 0,66.75 c 0,0.505 0.005,1 0.031,1.5 -10e-4,0.011 10e-4,0.021 0,0.031 -0.026,0.499 -0.031,1.026 -0.031,1.531 l 0,66.72 c 0,16.17 13.428,29.22 29.875,29.22 l 377.47,0 c 16.447,0 29.875,-13.05 29.875,-29.22 l 0,-66.72 c 0,-0.505 -0.005,-1.032 -0.031,-1.531 0.001,-0.011 -10e-4,-0.021 0,-0.031 0.026,-0.499 0.031,-0.995 0.031,-1.5 l 0,-66.75 c 0,-16.17 -13.428,-29.19 -29.875,-29.19 l -262.91,0 c -1,-5.255 -4.205,-9.857 -8.75,-13.12 -5.465,-3.927 -12.756,-6.25 -20.719,-6.25 l -43.75,0" id="path349" fill="#cccccc" fill-rule="evenodd"/>
 <path id="path459" d="m 108.54333,57.3055 c -7.963,0 -15.11,2.403 -20.572,6.33 -4.545,3.266 -7.702,7.931 -8.703,13.187 l -12.13,0 c -17.677,0 -29.802,12.771 -29.802,30.661 l 0,3.956 c 0,-16.17 13.355,-29.27 29.802,-29.27 l 14.286,0 c 1,-5.256 2,-9.657 6.549,-12.923 5.465,-3.927 12.609,-6.33 20.572,-6.33 l 43.78,0 c 7.963,0 15.371,2.403 20.835,6.33 4.545,3.266 5.766,7.668 6.769,12.923 l 264.88,0 c 16.447,0 29.802,11.455 29.802,27.625 l 0,-3.956 c 0,-16.17 -13.355,-29.01 -29.802,-29.01 l -262.95,0 c -1,-5.256 -4.159,-9.921 -8.703,-13.187 -5.465,-3.927 -12.872,-6.33 -20.835,-6.33 z" opacity="0.764" fill="#ffffff" fill-rule="evenodd"/>
 <path id="path461" d="m 37.35333,213.7155 c -19.928,0 -38.06,11.337 -36.23,25.697 l 24.26,190.23 c 1.733,13.594 16.271,25.05 36.2,25.05 l 383.41,0 c 19.933,0 34.1,-11.5 36.2,-24.98 l 29.632,-190.23 c 1.123,-7.206 -3.137,-13.807 -9.971,-18.394 -6.833,-4.587 -16.258,-7.371 -26.22,-7.371 l -437.27,0" fill="#BF9E73" fill-rule="evenodd"/>
 <path d="m 37.34333,213.7055 c -19.928,0 -38.05,11.353 -36.22,25.713 l 0.406,3.136 c 3,-11.423 18.732,-19.755 35.812,-19.755 l 437.28,0 c 9.966,0 19.386,2.782 26.22,7.369 4.736,3.178 8.234,7.317 9.563,11.96 l 0.406,-2.643 c 1.123,-7.206 -3.134,-13.825 -9.969,-18.411 -6.833,-4.587 -16.252,-7.369 -26.22,-7.369 l -437.28,0" id="path465" opacity="0.4" fill="#ffffff" fill-rule="evenodd"/>
 <path id="path469" d="m 37.35333,213.7155 c -19.928,0 -38.06,11.337 -36.23,25.697 l 24.26,190.23 c 1.733,13.594 16.271,25.05 36.2,25.05 l 383.41,0 c 19.933,0 34.1,-11.5 36.2,-24.98 l 29.632,-190.23 c 1.123,-7.206 -3.137,-13.807 -9.971,-18.394 -6.833,-4.587 -16.258,-7.371 -26.22,-7.371 l -437.27,0" opacity="0.05" fill="url(#0-5)" fill-rule="evenodd"/>
</svg>
