<?xml version="1.0" encoding="UTF-8" standalone="no"?>
<svg xmlns="http://www.w3.org/2000/svg" viewBox="0 0 512 512" height="512" width="512" version="1.1">
 <metadata id="metadata471"/>
 <defs id="defs4">
  <linearGradient gradientTransform="translate(0.0012,-0.0195)" gradientUnits="userSpaceOnUse" id="0-1" y2="453.26" x2="0" y1="121.76">
   <stop id="stop7-3" stop-color="#6a6a6a"/>
   <stop offset="0.47" id="stop9-0"/>
   <stop offset="0.494" id="stop11-2" stop-color="#ffffff"/>
   <stop offset="0.901" id="stop13-6" stop-color="#ffffff"/>
   <stop offset="0.955" id="stop15-3"/>
   <stop offset="1" id="stop17-1"/>
  </linearGradient>
 </defs>
 <text x="729.64" y="233.72" id="text21" font-family="&apos;Gentium Book Basic&apos;" word-spacing="0" line-height="125%" letter-spacing="0" font-size="129.23"><tspan x="729.64" y="233.72" id="tspan23"/>
 </text>
 <text x="378.91" y="588.73" transform="scale(4.0128205,0.24920128)" id="text25" font-family="Arial" text-anchor="middle" font-size="46.954"/>
 <text x="1310.91" y="153.72" id="text27" font-family="&apos;Gentium Book Basic&apos;" word-spacing="0" line-height="125%" letter-spacing="0" font-size="129.23"><tspan x="1310.91" y="153.72" id="tspan29"/>
 </text>
 <text x="523.76" y="267.69" transform="scale(4.0128205,0.24920128)" id="text31" font-family="Arial" text-anchor="middle" font-size="46.954"/>
 <text x="239.33" y="-27.54" id="text33" font-family="&apos;Gentium Book Basic&apos;" word-spacing="0" line-height="125%" letter-spacing="0" font-size="129.23"><tspan x="239.33" y="-27.54" id="tspan35"/>
 </text>
 <text x="256.72" y="-459.66" transform="scale(4.0128205,0.24920128)" id="text37" font-family="Arial" text-anchor="middle" font-size="46.954"/>
 <text x="1337.38" y="-244.01" id="text39" font-family="&apos;Gentium Book Basic&apos;" word-spacing="0" line-height="125%" letter-spacing="0" font-size="129.23"><tspan x="1337.38" y="-244.01" id="tspan41"/>
 </text>
 <text x="530.36" y="-1328.33" transform="scale(4.0128205,0.24920128)" id="text43" font-family="Arial" text-anchor="middle" font-size="46.954"/>
 <text x="1918.65" y="-324.02" id="text45" font-family="&apos;Gentium Book Basic&apos;" word-spacing="0" line-height="125%" letter-spacing="0" font-size="129.23"><tspan x="1918.65" y="-324.02" id="tspan47"/>
 </text>
 <text x="675.21" y="-1649.36" transform="scale(4.0128205,0.24920128)" id="text49" font-family="Arial" text-anchor="middle" font-size="46.954"/>
 <text x="1529.53" y="-796.42" id="text51" font-family="&apos;Gentium Book Basic&apos;" word-spacing="0" line-height="125%" letter-spacing="0" font-size="129.23"><tspan x="1529.53" y="-796.42" id="tspan53"/>
 </text>
 <text x="578.24" y="-3545.01" transform="scale(4.0128205,0.24920128)" id="text55" font-family="Arial" text-anchor="middle" font-size="46.954"/>
 <text x="2110.8" y="-876.42" id="text57" font-family="&apos;Gentium Book Basic&apos;" word-spacing="0" line-height="125%" letter-spacing="0" font-size="129.23"><tspan x="2110.8" y="-876.42" id="tspan59"/>
 </text>
 <text x="723.09" y="-3866.05" transform="scale(4.0128205,0.24920128)" id="text61" font-family="Arial" text-anchor="middle" font-size="46.954"/>
 <text id="text65" y="538.3" x="277.99" font-family="&apos;Gentium Book Basic&apos;" word-spacing="0" line-height="125%" letter-spacing="0" font-size="208.33"><tspan id="tspan67" y="538.3" x="277.99"/>
 </text>
 <text id="text69" y="-509.16" x="3833.78" font-family="&apos;Gentium Book Basic&apos;" word-spacing="0" line-height="125%" letter-spacing="0" font-size="129.23"><tspan id="tspan71" y="-509.16" x="3833.78"/>
 </text>
 <text x="1152.45" y="-2392.3" transform="scale(4.0128205,0.24920128)" id="text73" font-family="Arial" text-anchor="middle" font-size="46.954"/>
 <text x="4415.05" y="-589.16" id="text75" font-family="&apos;Gentium Book Basic&apos;" word-spacing="0" line-height="125%" letter-spacing="0" font-size="129.23"><tspan x="4415.05" y="-589.16" id="tspan77"/>
 </text>
 <text x="1297.3" y="-2713.32" transform="scale(4.0128205,0.24920128)" id="text79" font-family="Arial" text-anchor="middle" font-size="46.954"/>
 <text x="3343.47" y="-770.41" id="text81" font-family="&apos;Gentium Book Basic&apos;" word-spacing="0" line-height="125%" letter-spacing="0" font-size="129.23"><tspan x="3343.47" y="-770.41" id="tspan83"/>
 </text>
 <text x="1030.27" y="-3440.68" transform="scale(4.0128205,0.24920128)" id="text85" font-family="Arial" text-anchor="middle" font-size="46.954"/>
 <text x="4441.52" y="-986.89" id="text87" font-family="&apos;Gentium Book Basic&apos;" word-spacing="0" line-height="125%" letter-spacing="0" font-size="129.23"><tspan x="4441.52" y="-986.89" id="tspan89"/>
 </text>
 <text x="1303.9" y="-4309.35" transform="scale(4.0128205,0.24920128)" id="text91" font-family="Arial" text-anchor="middle" font-size="46.954"/>
 <text x="5022.79" y="-1066.89" id="text93" font-family="&apos;Gentium Book Basic&apos;" word-spacing="0" line-height="125%" letter-spacing="0" font-size="129.23"><tspan x="5022.79" y="-1066.89" id="tspan95"/>
 </text>
 <text x="1448.75" y="-4630.37" transform="scale(4.0128205,0.24920128)" id="text97" font-family="Arial" text-anchor="middle" font-size="46.954"/>
 <text x="4633.67" y="-1539.29" id="text99" font-family="&apos;Gentium Book Basic&apos;" word-spacing="0" line-height="125%" letter-spacing="0" font-size="129.23"><tspan x="4633.67" y="-1539.29" id="tspan101"/>
 </text>
 <text x="1351.78" y="-6526.04" transform="scale(4.0128205,0.24920128)" id="text103" font-family="Arial" text-anchor="middle" font-size="46.954"/>
 <text x="5214.93" y="-1619.29" id="text105" font-family="&apos;Gentium Book Basic&apos;" word-spacing="0" line-height="125%" letter-spacing="0" font-size="129.23"><tspan x="5214.93" y="-1619.29" id="tspan107"/>
 </text>
 <text x="1496.63" y="-6847.06" transform="scale(4.0128205,0.24920128)" id="text109" font-family="Arial" text-anchor="middle" font-size="46.954"/>
 <text x="3382.13" y="-204.58" id="text111" font-family="&apos;Gentium Book Basic&apos;" word-spacing="0" line-height="125%" letter-spacing="0" font-size="208.33"><tspan x="3382.13" y="-204.58" id="tspan113"/>
 </text>
 <path id="path117" d="m 108.6312,57.3705 c -7.963,0 -15.228,2.293 -20.693,6.22 -4.545,3.266 -7.751,7.872 -8.752,13.13 l -11.909,0 c -16.447,0 -29.883,13.03 -29.883,29.2 l 0,66.736 c 0,16.17 13.436,29.19 29.883,29.19 l 377.47,0 c 16.447,0 29.883,-13.03 29.883,-29.19 l 0,-66.736 c 0,-16.17 -13.436,-29.2 -29.883,-29.2 l -262.91,0 c -1,-5.256 -4.208,-9.862 -8.753,-13.13 -5.465,-3.927 -12.73,-6.22 -20.693,-6.22 l -43.761,0" fill="#cccccc" fill-rule="evenodd"/>
 <path id="path119" d="m 37.3612,118.4605 c -19.928,0 -38.06,15.818 -36.23,35.853 l 24.26,265.41 c 1.733,18.966 16.271,34.947 36.2,34.947 l 383.41,0 c 19.933,0 34.1,-16.05 36.2,-34.853 l 29.632,-265.41 c 1.123,-10.05 -3.137,-19.263 -9.971,-25.663 -6.833,-6.399 -16.258,-10.284 -26.22,-10.284 l -437.27,0" fill="#BF9E73" fill-rule="evenodd"/>
 <path d="m 37.3612,118.4505 c -19.928,0 -38.08,15.84 -36.25,35.875 l 11.781,128.78 12.469,136.63 c 1.733,18.966 16.29,34.938 36.22,34.938 l 383.41,0 c 19.933,0 34.09,-16.04 36.19,-34.844 l 15.281,-136.72 14.375,-128.69 c 1.123,-10.05 -3.135,-19.287 -9.969,-25.688 -6.833,-6.399 -16.257,-10.281 -26.22,-10.281 l -437.28,0" id="path121" opacity="0.05" fill="url(#0-1)"/>
 <path id="path127" d="m 108.5512,57.2905 c -7.963,0 -15.11,2.403 -20.572,6.33 -4.545,3.266 -7.702,7.931 -8.703,13.187 l -12.13,0 c -17.677,0 -29.802,12.771 -29.802,30.661 l 0,3.956 c 0,-16.17 13.355,-29.27 29.802,-29.27 l 14.286,0 c 1,-5.256 2,-9.657 6.549,-12.923 5.465,-3.927 12.609,-6.33 20.572,-6.33 l 43.78,0 c 7.963,0 15.371,2.403 20.835,6.33 4.545,3.266 5.766,7.668 6.769,12.923 l 264.88,0 c 16.447,0 29.802,11.455 29.802,27.625 l 0,-3.956 c 0,-16.17 -13.355,-29.01 -29.802,-29.01 l -262.95,0 c -1,-5.256 -4.159,-9.921 -8.703,-13.187 -5.465,-3.927 -12.872,-6.33 -20.835,-6.33 z" opacity="0.764" fill="#ffffff" fill-rule="evenodd"/>
 <path id="path129" d="m 37.3512,118.4505 c -19.928,0 -38.05,15.84 -36.22,35.875 l 0.406,4.375 c 3,-15.936 18.732,-27.563 35.813,-27.563 l 437.28,0 c 9.966,0 19.386,3.882 26.22,10.281 4.736,4.435 8.234,10.208 9.563,16.688 l 0.406,-3.688 c 1.123,-10.05 -3.134,-19.288 -9.969,-25.688 -6.833,-6.399 -16.252,-10.281 -26.22,-10.281 l -437.28,0" opacity="0.4" fill="#ffffff" fill-rule="evenodd"/>
 <text x="90.12" y="140.64" id="text131" font-family="&apos;Gentium Book Basic&apos;" word-spacing="0" line-height="125%" letter-spacing="0" font-size="129.23"><tspan x="90.12" y="140.64" id="tspan133"/>
 </text>
 <text x="219.54" y="215.21" transform="scale(4.0128205,0.24920128)" id="text135" font-family="Arial" text-anchor="middle" font-size="46.954"/>
 <text x="671.39" y="60.64" id="text137" font-family="&apos;Gentium Book Basic&apos;" word-spacing="0" line-height="125%" letter-spacing="0" font-size="129.23"><tspan x="671.39" y="60.64" id="tspan139"/>
 </text>
 <text x="364.39" y="-105.82" transform="scale(4.0128205,0.24920128)" id="text141" font-family="Arial" text-anchor="middle" font-size="46.954"/>
 <text x="-400.19" y="-120.62" id="text143" font-family="&apos;Gentium Book Basic&apos;" word-spacing="0" line-height="125%" letter-spacing="0" font-size="129.23"><tspan x="-400.19" y="-120.62" id="tspan145"/>
 </text>
 <text x="97.35" y="-833.16" transform="scale(4.0128205,0.24920128)" id="text147" font-family="Arial" text-anchor="middle" font-size="46.954"/>
 <text x="697.86" y="-337.09" id="text149" font-family="&apos;Gentium Book Basic&apos;" word-spacing="0" line-height="125%" letter-spacing="0" font-size="129.23"><tspan x="697.86" y="-337.09" id="tspan151"/>
 </text>
 <text x="370.99" y="-1701.83" transform="scale(4.0128205,0.24920128)" id="text153" font-family="Arial" text-anchor="middle" font-size="46.954"/>
 <text x="1279.13" y="-417.1" id="text155" font-family="&apos;Gentium Book Basic&apos;" word-spacing="0" line-height="125%" letter-spacing="0" font-size="129.23"><tspan x="1279.13" y="-417.1" id="tspan157"/>
 </text>
 <text x="515.84" y="-2022.87" transform="scale(4.0128205,0.24920128)" id="text159" font-family="Arial" text-anchor="middle" font-size="46.954"/>
 <text x="890.01" y="-889.5" id="text161" font-family="&apos;Gentium Book Basic&apos;" word-spacing="0" line-height="125%" letter-spacing="0" font-size="129.23"><tspan x="890.01" y="-889.5" id="tspan163"/>
 </text>
 <text x="418.87" y="-3918.51" transform="scale(4.0128205,0.24920128)" id="text165" font-family="Arial" text-anchor="middle" font-size="46.954"/>
 <text x="1471.27" y="-969.5" id="text167" font-family="&apos;Gentium Book Basic&apos;" word-spacing="0" line-height="125%" letter-spacing="0" font-size="129.23"><tspan x="1471.27" y="-969.5" id="tspan169"/>
 </text>
 <text x="563.72" y="-4239.54" transform="scale(4.0128205,0.24920128)" id="text171" font-family="Arial" text-anchor="middle" font-size="46.954"/>
 <text id="text175" y="445.22" x="-361.53" font-family="&apos;Gentium Book Basic&apos;" word-spacing="0" line-height="125%" letter-spacing="0" font-size="0"><tspan id="tspan177" y="445.22" x="-361.53"/>
 </text>
 <text id="text179" y="426.26" x="-2585.36" font-family="&apos;Gentium Book Basic&apos;" word-spacing="0" line-height="125%" letter-spacing="0" font-size="0"><tspan id="tspan181" y="426.26" x="-2585.36"/>
 </text>
 <text x="-326.55" y="1147.62" transform="scale(4.0128205,0.24920128)" id="text183" font-family="Arial" text-anchor="middle" font-size="75.7"/>
 <text x="-1879.02" y="270.63" id="text185" font-family="&apos;Gentium Book Basic&apos;" word-spacing="0" line-height="125%" letter-spacing="0" font-size="208.33"><tspan x="-1879.02" y="270.63" id="tspan187"/>
 </text>
 <text x="-150.53" y="523.09" transform="scale(4.0128205,0.24920128)" id="text189" font-family="Arial" text-anchor="middle" font-size="75.7"/>
 <text x="-1845.65" y="262.51" id="text191" font-family="&apos;Gentium Book Basic&apos;" word-spacing="0" line-height="125%" letter-spacing="0" font-size="208.33"><tspan x="-1845.65" y="262.51" id="tspan193"/>
 </text>
 <text x="-142.21" y="490.49" transform="scale(4.0128205,0.24920128)" id="text195" font-family="Arial" text-anchor="middle" font-size="75.7"/>
 <text x="-695.23" y="108.1" id="text197" font-family="&apos;Gentium Book Basic&apos;" word-spacing="0" line-height="125%" letter-spacing="0" font-size="129.23"><tspan x="-695.23" y="108.1" id="tspan199"/>
 </text>
 <text x="23.831" y="84.63" transform="scale(4.0128205,0.24920128)" id="text201" font-family="Arial" text-anchor="middle" font-size="46.954"/>
 <text x="-113.97" y="28.1" id="text203" font-family="&apos;Gentium Book Basic&apos;" word-spacing="0" line-height="125%" letter-spacing="0" font-size="129.23"><tspan x="-113.97" y="28.1" id="tspan205"/>
 </text>
 <text x="168.68" y="-236.41" transform="scale(4.0128205,0.24920128)" id="text207" font-family="Arial" text-anchor="middle" font-size="46.954"/>
 <text x="-1185.55" y="-153.16" id="text209" font-family="&apos;Gentium Book Basic&apos;" word-spacing="0" line-height="125%" letter-spacing="0" font-size="129.23"><tspan x="-1185.55" y="-153.16" id="tspan211"/>
 </text>
 <text x="-98.36" y="-963.73" transform="scale(4.0128205,0.24920128)" id="text213" font-family="Arial" text-anchor="middle" font-size="46.954"/>
 <text x="-87.5" y="-369.63" id="text215" font-family="&apos;Gentium Book Basic&apos;" word-spacing="0" line-height="125%" letter-spacing="0" font-size="129.23"><tspan x="-87.5" y="-369.63" id="tspan217"/>
 </text>
 <text x="175.28" y="-1832.41" transform="scale(4.0128205,0.24920128)" id="text219" font-family="Arial" text-anchor="middle" font-size="46.954"/>
 <text x="493.77" y="-449.63" id="text221" font-family="&apos;Gentium Book Basic&apos;" word-spacing="0" line-height="125%" letter-spacing="0" font-size="129.23"><tspan x="493.77" y="-449.63" id="tspan223"/>
 </text>
 <text x="320.12" y="-2153.44" transform="scale(4.0128205,0.24920128)" id="text225" font-family="Arial" text-anchor="middle" font-size="46.954"/>
 <text x="104.65" y="-922.03" id="text227" font-family="&apos;Gentium Book Basic&apos;" word-spacing="0" line-height="125%" letter-spacing="0" font-size="129.23"><tspan x="104.65" y="-922.03" id="tspan229"/>
 </text>
 <text x="223.16" y="-4049.07" transform="scale(4.0128205,0.24920128)" id="text231" font-family="Arial" text-anchor="middle" font-size="46.954"/>
 <text x="685.91" y="-1002.04" id="text233" font-family="&apos;Gentium Book Basic&apos;" word-spacing="0" line-height="125%" letter-spacing="0" font-size="129.23"><tspan x="685.91" y="-1002.04" id="tspan235"/>
 </text>
 <text x="368" y="-4370.1" transform="scale(4.0128205,0.24920128)" id="text237" font-family="Arial" text-anchor="middle" font-size="46.954"/>
 <text id="text241" y="412.68" x="-1146.89" font-family="&apos;Gentium Book Basic&apos;" word-spacing="0" line-height="125%" letter-spacing="0" font-size="208.33"><tspan id="tspan243" y="412.68" x="-1146.89"/>
 </text>
 <text id="text245" y="-630.91" x="-745.68" font-family="&apos;Gentium Book Basic&apos;" word-spacing="0" line-height="125%" letter-spacing="0" font-size="129.23"><tspan id="tspan247" y="-630.91" x="-745.68"/>
 </text>
 <text x="11.261" y="-2880.85" transform="scale(4.0128205,0.24920128)" id="text249" font-family="Arial" text-anchor="middle" font-size="46.954"/>
 <text x="-164.41" y="-710.91" id="text251" font-family="&apos;Gentium Book Basic&apos;" word-spacing="0" line-height="125%" letter-spacing="0" font-size="129.23"><tspan x="-164.41" y="-710.91" id="tspan253"/>
 </text>
 <text x="156.11" y="-3201.88" transform="scale(4.0128205,0.24920128)" id="text255" font-family="Arial" text-anchor="middle" font-size="46.954"/>
 <text x="-1235.99" y="-892.17" id="text257" font-family="&apos;Gentium Book Basic&apos;" word-spacing="0" line-height="125%" letter-spacing="0" font-size="129.23"><tspan x="-1235.99" y="-892.17" id="tspan259"/>
 </text>
 <text x="-110.93" y="-3929.24" transform="scale(4.0128205,0.24920128)" id="text261" font-family="Arial" text-anchor="middle" font-size="46.954"/>
 <text x="-137.94" y="-1108.64" id="text263" font-family="&apos;Gentium Book Basic&apos;" word-spacing="0" line-height="125%" letter-spacing="0" font-size="129.23"><tspan x="-137.94" y="-1108.64" id="tspan265"/>
 </text>
 <text x="162.71" y="-4797.88" transform="scale(4.0128205,0.24920128)" id="text267" font-family="Arial" text-anchor="middle" font-size="46.954"/>
 <text x="443.32" y="-1188.65" id="text269" font-family="&apos;Gentium Book Basic&apos;" word-spacing="0" line-height="125%" letter-spacing="0" font-size="129.23"><tspan x="443.32" y="-1188.65" id="tspan271"/>
 </text>
 <text x="307.55" y="-5118.92" transform="scale(4.0128205,0.24920128)" id="text273" font-family="Arial" text-anchor="middle" font-size="46.954"/>
 <text x="54.2" y="-1661.05" id="text275" font-family="&apos;Gentium Book Basic&apos;" word-spacing="0" line-height="125%" letter-spacing="0" font-size="129.23"><tspan x="54.2" y="-1661.05" id="tspan277"/>
 </text>
 <text x="210.59" y="-7014.55" transform="scale(4.0128205,0.24920128)" id="text279" font-family="Arial" text-anchor="middle" font-size="46.954"/>
 <text x="635.47" y="-1741.05" id="text281" font-family="&apos;Gentium Book Basic&apos;" word-spacing="0" line-height="125%" letter-spacing="0" font-size="129.23"><tspan x="635.47" y="-1741.05" id="tspan283"/>
 </text>
 <text x="355.43" y="-7335.58" transform="scale(4.0128205,0.24920128)" id="text285" font-family="Arial" text-anchor="middle" font-size="46.954"/>
 <text id="text289" y="-326.33" x="-1197.34" font-family="&apos;Gentium Book Basic&apos;" word-spacing="0" line-height="125%" letter-spacing="0" font-size="208.33"><tspan id="tspan291" y="-326.33" x="-1197.34"/>
 </text>
 <text id="text293" y="-1373.79" x="2358.46" font-family="&apos;Gentium Book Basic&apos;" word-spacing="0" line-height="125%" letter-spacing="0" font-size="129.23"><tspan id="tspan295" y="-1373.79" x="2358.46"/>
 </text>
 <text x="784.8" y="-5861.85" transform="scale(4.0128205,0.24920128)" id="text297" font-family="Arial" text-anchor="middle" font-size="46.954"/>
 <text x="2939.72" y="-1453.79" id="text299" font-family="&apos;Gentium Book Basic&apos;" word-spacing="0" line-height="125%" letter-spacing="0" font-size="129.23"><tspan x="2939.72" y="-1453.79" id="tspan301"/>
 </text>
 <text x="929.65" y="-6182.89" transform="scale(4.0128205,0.24920128)" id="text303" font-family="Arial" text-anchor="middle" font-size="46.954"/>
 <text x="1868.14" y="-1635.04" id="text305" font-family="&apos;Gentium Book Basic&apos;" word-spacing="0" line-height="125%" letter-spacing="0" font-size="129.23"><tspan x="1868.14" y="-1635.04" id="tspan307"/>
 </text>
 <text x="662.61" y="-6910.21" transform="scale(4.0128205,0.24920128)" id="text309" font-family="Arial" text-anchor="middle" font-size="46.954"/>
 <text x="2966.19" y="-1851.52" id="text311" font-family="&apos;Gentium Book Basic&apos;" word-spacing="0" line-height="125%" letter-spacing="0" font-size="129.23"><tspan x="2966.19" y="-1851.52" id="tspan313"/>
 </text>
 <text x="936.25" y="-7778.88" transform="scale(4.0128205,0.24920128)" id="text315" font-family="Arial" text-anchor="middle" font-size="46.954"/>
 <text x="3547.46" y="-1931.52" id="text317" font-family="&apos;Gentium Book Basic&apos;" word-spacing="0" line-height="125%" letter-spacing="0" font-size="129.23"><tspan x="3547.46" y="-1931.52" id="tspan319"/>
 </text>
 <text x="1081.09" y="-8099.92" transform="scale(4.0128205,0.24920128)" id="text321" font-family="Arial" text-anchor="middle" font-size="46.954"/>
 <text x="3158.34" y="-2403.92" id="text323" font-family="&apos;Gentium Book Basic&apos;" word-spacing="0" line-height="125%" letter-spacing="0" font-size="129.23"><tspan x="3158.34" y="-2403.92" id="tspan325"/>
 </text>
 <text x="984.13" y="-9995.55" transform="scale(4.0128205,0.24920128)" id="text327" font-family="Arial" text-anchor="middle" font-size="46.954"/>
 <text x="3739.61" y="-2483.92" id="text329" font-family="&apos;Gentium Book Basic&apos;" word-spacing="0" line-height="125%" letter-spacing="0" font-size="129.23"><tspan x="3739.61" y="-2483.92" id="tspan331"/>
 </text>
 <text x="1128.97" y="-10316.57" transform="scale(4.0128205,0.24920128)" id="text333" font-family="Arial" text-anchor="middle" font-size="46.954"/>
 <text id="text337" y="-1069.21" x="1906.8" font-family="&apos;Gentium Book Basic&apos;" word-spacing="0" line-height="125%" letter-spacing="0" font-size="0"><tspan id="tspan339" y="-1069.21" x="1906.8"/>
 </text>
 <text id="text341" y="-315.13" x="-2635.81" font-family="&apos;Gentium Book Basic&apos;" word-spacing="0" line-height="125%" letter-spacing="0" font-size="0"><tspan id="tspan343" y="-315.13" x="-2635.81"/>
 </text>
 <text x="-339.12" y="-1827.44" transform="scale(4.0128205,0.24920128)" id="text345" font-family="Arial" text-anchor="middle" font-size="75.7"/>
 <text x="-2635.81" y="-315.13" id="text347" font-family="&apos;Gentium Book Basic&apos;" word-spacing="0" line-height="125%" letter-spacing="0" font-size="208.33"><tspan x="-2635.81" y="-315.13" id="tspan349"/>
 </text>
 <text x="-339.12" y="-1827.44" transform="scale(4.0128205,0.24920128)" id="text351" font-family="Arial" text-anchor="middle" font-size="75.7"/>
 <text x="-2969.36" y="317.78" id="text353" font-family="&apos;Gentium Book Basic&apos;" word-spacing="0" line-height="125%" letter-spacing="0" font-size="208.33"><tspan x="-2969.36" y="317.78" id="tspan355"/>
 </text>
 <text x="-422.24" y="712.32" transform="scale(4.0128205,0.24920128)" id="text357" font-family="Arial" text-anchor="middle" font-size="75.7"/>
 <text x="-2263.02" y="162.15" id="text359" font-family="&apos;Gentium Book Basic&apos;" word-spacing="0" line-height="125%" letter-spacing="0" font-size="208.33"><tspan x="-2263.02" y="162.15" id="tspan361"/>
 </text>
 <text x="-246.22" y="87.8" transform="scale(4.0128205,0.24920128)" id="text363" font-family="Arial" text-anchor="middle" font-size="75.7"/>
 <path id="path459" d="m 256.0012,161.5905 c -69.04,0 -125,55.964 -125,125 0,33.823 13.459,64.5 35.28,87 0.076,0.08 0.143,0.17 0.219,0.25 0.372,0.382 0.748,0.748 1.125,1.125 0.439,0.449 0.867,0.901 1.313,1.344 0.33,0.335 0.666,0.669 1,1 0.33,0.335 0.666,0.669 1,1 0.33,0.335 0.666,0.669 1,1 0.544,0.552 1.102,1.083 1.656,1.625 0.326,0.334 0.639,0.67 0.969,1 0.048,0.046 0.108,0.079 0.156,0.125 0.293,0.299 0.579,0.61 0.875,0.906 0.011,0.01 0.021,0.021 0.031,0.031 0.037,0.036 0.088,0.058 0.125,0.094 0.386,0.393 0.765,0.799 1.156,1.188 0.33,0.335 0.666,0.669 1,1 0.435,0.441 0.871,0.878 1.313,1.313 0.114,0.115 0.229,0.229 0.344,0.344 0.116,0.114 0.227,0.23 0.344,0.344 0.208,0.211 0.416,0.416 0.625,0.625 0.048,0.046 0.108,0.079 0.156,0.125 0.332,0.338 0.665,0.666 1,1 0.011,0.01 0.021,0.021 0.031,0.031 0.386,0.393 0.765,0.799 1.156,1.188 0.33,0.335 0.666,0.669 1,1 0.33,0.335 0.666,0.669 1,1 0.217,0.22 0.438,0.438 0.656,0.656 0.324,0.331 0.673,0.641 1,0.969 0.326,0.334 0.639,0.67 0.969,1 0.048,0.046 0.108,0.079 0.156,0.125 0.396,0.404 0.786,0.82 1.188,1.219 0.33,0.335 0.666,0.669 1,1 0.33,0.335 0.666,0.669 1,1 0.544,0.552 1.102,1.083 1.656,1.625 0.326,0.334 0.639,0.67 0.969,1 0.048,0.046 0.108,0.079 0.156,0.125 0.33,0.336 0.667,0.668 1,1 0.011,0.01 0.021,0.021 0.031,0.031 0.386,0.393 0.765,0.799 1.156,1.188 0.33,0.335 0.666,0.669 1,1 0.435,0.441 0.871,0.878 1.313,1.313 0.114,0.115 0.229,0.229 0.344,0.344 0.116,0.114 0.227,0.23 0.344,0.344 0.208,0.211 0.416,0.416 0.625,0.625 0.048,0.046 0.108,0.079 0.156,0.125 0.296,0.301 0.576,0.608 0.875,0.906 0.011,0.01 0.021,0.021 0.031,0.031 0.037,0.036 0.088,0.058 0.125,0.094 0.386,0.393 0.765,0.799 1.156,1.188 0.33,0.335 0.666,0.669 1,1 0.435,0.441 0.871,0.878 1.313,1.313 0.114,0.115 0.229,0.229 0.344,0.344 0.324,0.331 0.673,0.641 1,0.969 0.043,0.041 0.082,0.084 0.125,0.125 0.285,0.291 0.556,0.587 0.844,0.875 0.048,0.046 0.108,0.079 0.156,0.125 0.396,0.404 0.786,0.82 1.188,1.219 0.33,0.335 0.666,0.669 1,1 0.33,0.335 0.666,0.669 1,1 0.544,0.552 1.102,1.083 1.656,1.625 0.326,0.334 0.639,0.67 0.969,1 0.048,0.046 0.108,0.079 0.156,0.125 0.396,0.404 0.786,0.82 1.188,1.219 0.33,0.335 0.666,0.669 1,1 0.33,0.335 0.666,0.669 1,1 0.544,0.552 1.102,1.083 1.656,1.625 0.326,0.334 0.639,0.67 0.969,1 0.048,0.046 0.108,0.079 0.156,0.125 0.33,0.336 0.667,0.668 1,1 0.011,0.01 0.021,0.021 0.031,0.031 0.386,0.393 0.765,0.799 1.156,1.188 0.33,0.335 0.666,0.669 1,1 0.435,0.441 0.871,0.878 1.313,1.313 0.114,0.115 0.229,0.229 0.344,0.344 0.116,0.114 0.227,0.23 0.344,0.344 0.208,0.211 0.416,0.416 0.625,0.625 0.048,0.046 0.108,0.079 0.156,0.125 0.296,0.301 0.576,0.608 0.875,0.906 0.011,0.01 0.021,0.021 0.031,0.031 0.037,0.036 0.088,0.058 0.125,0.094 0.386,0.393 0.765,0.799 1.156,1.188 0.33,0.335 0.666,0.669 1,1 0.33,0.335 0.666,0.669 1,1 0.217,0.22 0.438,0.438 0.656,0.656 0.324,0.331 0.673,0.641 1,0.969 0.326,0.334 0.639,0.67 0.969,1 0.048,0.046 0.108,0.079 0.156,0.125 0.396,0.404 0.786,0.82 1.188,1.219 0.33,0.335 0.666,0.669 1,1 0.33,0.335 0.666,0.669 1,1 0.544,0.552 1.102,1.083 1.656,1.625 0.326,0.334 0.639,0.67 0.969,1 0.048,0.046 0.108,0.079 0.156,0.125 0.293,0.299 0.579,0.61 0.875,0.906 0.011,0.01 0.021,0.021 0.031,0.031 0.048,0.046 0.108,0.079 0.156,0.125 0.376,0.383 0.744,0.778 1.125,1.156 0.33,0.335 0.666,0.669 1,1 0.544,0.552 1.102,1.083 1.656,1.625 0.036,0.038 0.058,0.088 0.094,0.125 0.29,0.296 0.582,0.582 0.875,0.875 0.048,0.046 0.108,0.079 0.156,0.125 0.332,0.338 0.665,0.666 1,1 0.011,0.01 0.021,0.021 0.031,0.031 0.386,0.393 0.765,0.799 1.156,1.188 0.33,0.335 0.666,0.669 1,1 0.249,0.252 0.5,0.5 0.75,0.75 l 197.69,0 c 19.933,0 34.09,-16.04 36.19,-34.844 l 8.531,-76.31 c -0.016,-0.025 -0.042,-0.042 -0.063,-0.063 -0.288,-0.288 -0.584,-0.559 -0.875,-0.844 -0.026,-0.027 -0.037,-0.067 -0.063,-0.094 -0.021,-0.021 -0.041,-0.042 -0.063,-0.063 -0.205,-0.214 -0.419,-0.412 -0.625,-0.625 -0.116,-0.114 -0.227,-0.23 -0.344,-0.344 -0.333,-0.333 -0.664,-0.671 -1,-1 -0.333,-0.333 -0.664,-0.671 -1,-1 -0.333,-0.333 -0.664,-0.671 -1,-1 -0.276,-0.275 -0.566,-0.54 -0.844,-0.813 -0.01,-0.011 -0.021,-0.021 -0.031,-0.031 -0.006,-0.006 0.006,-0.025 0,-0.031 -0.021,-0.021 -0.041,-0.042 -0.063,-0.063 -0.02,-0.021 -0.042,-0.041 -0.063,-0.063 -0.286,-0.286 -0.586,-0.561 -0.875,-0.844 -0.01,-0.011 -0.021,-0.021 -0.031,-0.031 -0.037,-0.036 -0.057,-0.089 -0.094,-0.125 -0.33,-0.33 -0.666,-0.643 -1,-0.969 -0.119,-0.122 -0.224,-0.254 -0.344,-0.375 -0.213,-0.206 -0.411,-0.42 -0.625,-0.625 -0.333,-0.333 -0.664,-0.671 -1,-1 -0.333,-0.333 -0.664,-0.671 -1,-1 -0.333,-0.333 -0.664,-0.671 -1,-1 -0.286,-0.286 -0.586,-0.561 -0.875,-0.844 -0.01,-0.011 -0.021,-0.021 -0.031,-0.031 -0.037,-0.036 -0.057,-0.089 -0.094,-0.125 -0.322,-0.337 -0.674,-0.635 -1,-0.969 -0.12,-0.12 -0.224,-0.256 -0.344,-0.375 -0.213,-0.206 -0.411,-0.42 -0.625,-0.625 -0.333,-0.333 -0.664,-0.671 -1,-1 -0.333,-0.333 -0.664,-0.671 -1,-1 -0.333,-0.333 -0.664,-0.671 -1,-1 -0.276,-0.275 -0.566,-0.54 -0.844,-0.813 -0.01,-0.011 -0.021,-0.021 -0.031,-0.031 -0.006,-0.006 0.006,-0.025 0,-0.031 -0.021,-0.021 -0.041,-0.042 -0.063,-0.063 -0.02,-0.021 -0.042,-0.041 -0.063,-0.063 -0.288,-0.288 -0.584,-0.559 -0.875,-0.844 -0.026,-0.027 -0.037,-0.067 -0.063,-0.094 -0.021,-0.021 -0.041,-0.042 -0.063,-0.063 -0.325,-0.325 -0.641,-0.648 -0.969,-0.969 -0.333,-0.333 -0.664,-0.671 -1,-1 -0.333,-0.333 -0.664,-0.671 -1,-1 -0.333,-0.333 -0.664,-0.671 -1,-1 -0.276,-0.275 -0.566,-0.54 -0.844,-0.813 -0.01,-0.011 -0.021,-0.021 -0.031,-0.031 -0.01,-0.01 -0.021,-0.021 -0.031,-0.031 -0.037,-0.036 -0.057,-0.089 -0.094,-0.125 -0.288,-0.288 -0.584,-0.559 -0.875,-0.844 -0.026,-0.027 -0.037,-0.067 -0.063,-0.094 -0.021,-0.021 -0.041,-0.042 -0.063,-0.063 -0.33,-0.33 -0.666,-0.643 -1,-0.969 -0.01,-0.011 -0.021,-0.021 -0.031,-0.031 -0.032,-0.031 -0.062,-0.063 -0.094,-0.094 -0.078,-0.079 -0.141,-0.171 -0.219,-0.25 -0.213,-0.206 -0.411,-0.42 -0.625,-0.625 -0.333,-0.333 -0.664,-0.671 -1,-1 -0.333,-0.333 -0.664,-0.671 -1,-1 -0.333,-0.333 -0.664,-0.671 -1,-1 -0.286,-0.286 -0.586,-0.561 -0.875,-0.844 -0.01,-0.011 -0.021,-0.021 -0.031,-0.031 -0.037,-0.036 -0.057,-0.089 -0.094,-0.125 -0.33,-0.33 -0.666,-0.643 -1,-0.969 -0.119,-0.122 -0.224,-0.254 -0.344,-0.375 -0.213,-0.206 -0.411,-0.42 -0.625,-0.625 -0.333,-0.333 -0.664,-0.671 -1,-1 -0.333,-0.333 -0.664,-0.671 -1,-1 -0.333,-0.333 -0.664,-0.671 -1,-1 -0.286,-0.286 -0.586,-0.561 -0.875,-0.844 -0.01,-0.011 -0.021,-0.021 -0.031,-0.031 -0.037,-0.036 -0.057,-0.089 -0.094,-0.125 -0.33,-0.33 -0.666,-0.643 -1,-0.969 -0.12,-0.12 -0.224,-0.256 -0.344,-0.375 -0.213,-0.206 -0.411,-0.42 -0.625,-0.625 -0.218,-0.218 -0.436,-0.44 -0.656,-0.656 -0.116,-0.112 -0.227,-0.232 -0.344,-0.344 -0.333,-0.333 -0.664,-0.671 -1,-1 -0.333,-0.333 -0.664,-0.671 -1,-1 -0.276,-0.275 -0.566,-0.54 -0.844,-0.813 -0.01,-0.011 -0.021,-0.021 -0.031,-0.031 -0.006,-0.006 0.006,-0.025 0,-0.031 -0.021,-0.021 -0.041,-0.042 -0.063,-0.063 -0.02,-0.021 -0.042,-0.041 -0.063,-0.063 -0.288,-0.288 -0.584,-0.559 -0.875,-0.844 -0.026,-0.027 -0.037,-0.067 -0.063,-0.094 -0.021,-0.021 -0.041,-0.042 -0.063,-0.063 -0.325,-0.325 -0.641,-0.648 -0.969,-0.969 -0.333,-0.333 -0.664,-0.671 -1,-1 -0.333,-0.333 -0.664,-0.671 -1,-1 -0.333,-0.333 -0.664,-0.671 -1,-1 -0.276,-0.275 -0.566,-0.54 -0.844,-0.813 -0.01,-0.011 -0.021,-0.021 -0.031,-0.031 -0.01,-0.01 -0.021,-0.021 -0.031,-0.031 -0.037,-0.036 -0.057,-0.089 -0.094,-0.125 -0.286,-0.286 -0.586,-0.561 -0.875,-0.844 -0.01,-0.011 -0.021,-0.021 -0.031,-0.031 -0.037,-0.036 -0.057,-0.089 -0.094,-0.125 -0.33,-0.33 -0.666,-0.643 -1,-0.969 -0.119,-0.122 -0.224,-0.254 -0.344,-0.375 -0.213,-0.206 -0.411,-0.42 -0.625,-0.625 -0.333,-0.333 -0.664,-0.671 -1,-1 -0.333,-0.333 -0.664,-0.671 -1,-1 -0.333,-0.333 -0.664,-0.671 -1,-1 -0.286,-0.286 -0.586,-0.561 -0.875,-0.844 -0.01,-0.011 -0.021,-0.021 -0.031,-0.031 -0.037,-0.036 -0.057,-0.089 -0.094,-0.125 -0.33,-0.33 -0.666,-0.643 -1,-0.969 -0.119,-0.122 -0.224,-0.254 -0.344,-0.375 -0.213,-0.206 -0.411,-0.42 -0.625,-0.625 -0.333,-0.333 -0.664,-0.671 -1,-1 -0.333,-0.333 -0.664,-0.671 -1,-1 -0.333,-0.333 -0.664,-0.671 -1,-1 -0.286,-0.286 -0.586,-0.561 -0.875,-0.844 -0.01,-0.011 -0.021,-0.021 -0.031,-0.031 -0.037,-0.036 -0.057,-0.089 -0.094,-0.125 -0.288,-0.288 -0.584,-0.559 -0.875,-0.844 -0.041,-0.043 -0.084,-0.082 -0.125,-0.125 -0.12,-0.12 -0.224,-0.256 -0.344,-0.375 -0.213,-0.206 -0.411,-0.42 -0.625,-0.625 -0.333,-0.333 -0.664,-0.671 -1,-1 -0.333,-0.333 -0.664,-0.671 -1,-1 -0.333,-0.333 -0.664,-0.671 -1,-1 -0.276,-0.276 -0.566,-0.54 -0.844,-0.813 -0.01,-0.011 -0.021,-0.021 -0.031,-0.031 -0.006,-0.006 0.006,-0.025 0,-0.031 -0.021,-0.021 -0.041,-0.042 -0.063,-0.063 -0.02,-0.021 -0.042,-0.041 -0.063,-0.063 -0.288,-0.288 -0.584,-0.559 -0.875,-0.844 -0.026,-0.027 -0.037,-0.067 -0.063,-0.094 -0.021,-0.021 -0.041,-0.042 -0.063,-0.063 -0.33,-0.33 -0.666,-0.643 -1,-0.969 -0.01,-0.011 -0.021,-0.021 -0.031,-0.031 -0.032,-0.031 -0.062,-0.063 -0.094,-0.094 -0.078,-0.079 -0.141,-0.171 -0.219,-0.25 -0.213,-0.206 -0.411,-0.42 -0.625,-0.625 -0.333,-0.333 -0.664,-0.671 -1,-1 -0.333,-0.333 -0.664,-0.671 -1,-1 -0.333,-0.333 -0.664,-0.671 -1,-1 -0.286,-0.286 -0.586,-0.561 -0.875,-0.844 -0.01,-0.011 -0.021,-0.021 -0.031,-0.031 -0.037,-0.036 -0.057,-0.089 -0.094,-0.125 -0.33,-0.33 -0.666,-0.643 -1,-0.969 -0.119,-0.122 -0.224,-0.254 -0.344,-0.375 -0.213,-0.206 -0.411,-0.42 -0.625,-0.625 -0.333,-0.333 -0.664,-0.671 -1,-1 -0.333,-0.333 -0.664,-0.671 -1,-1 -0.333,-0.333 -0.664,-0.671 -1,-1 -0.286,-0.286 -0.586,-0.561 -0.875,-0.844 -0.01,-0.011 -0.021,-0.021 -0.031,-0.031 -0.037,-0.036 -0.057,-0.089 -0.094,-0.125 -0.33,-0.33 -0.666,-0.643 -1,-0.969 -0.12,-0.12 -0.224,-0.256 -0.344,-0.375 -0.213,-0.206 -0.411,-0.42 -0.625,-0.625 -0.333,-0.333 -0.664,-0.671 -1,-1 -0.333,-0.333 -0.664,-0.671 -1,-1 -0.333,-0.333 -0.664,-0.671 -1,-1 -0.276,-0.276 -0.566,-0.54 -0.844,-0.813 -0.01,-0.011 -0.021,-0.021 -0.031,-0.031 -0.01,-0.01 -0.021,-0.021 -0.031,-0.031 -0.037,-0.036 -0.057,-0.089 -0.094,-0.125 -0.288,-0.288 -0.584,-0.559 -0.875,-0.844 -0.026,-0.027 -0.037,-0.067 -0.063,-0.094 -0.021,-0.021 -0.041,-0.042 -0.063,-0.063 -0.209,-0.209 -0.414,-0.417 -0.625,-0.625 -0.117,-0.113 -0.226,-0.231 -0.344,-0.344 -0.114,-0.116 -0.229,-0.228 -0.344,-0.344 -0.219,-0.217 -0.436,-0.44 -0.656,-0.656 -0.333,-0.333 -0.664,-0.671 -1,-1 -0.333,-0.333 -0.664,-0.671 -1,-1 -0.276,-0.275 -0.566,-0.54 -0.844,-0.813 -0.01,-0.011 -0.021,-0.021 -0.031,-0.031 -0.006,-0.006 0.006,-0.025 0,-0.031 -0.021,-0.021 -0.041,-0.042 -0.063,-0.063 -0.02,-0.021 -0.042,-0.041 -0.063,-0.063 -0.286,-0.286 -0.586,-0.561 -0.875,-0.844 -0.01,-0.011 -0.021,-0.021 -0.031,-0.031 -0.037,-0.036 -0.057,-0.089 -0.094,-0.125 -0.33,-0.33 -0.666,-0.643 -1,-0.969 -0.119,-0.122 -0.224,-0.254 -0.344,-0.375 -0.213,-0.206 -0.411,-0.42 -0.625,-0.625 -0.333,-0.333 -0.664,-0.671 -1,-1 -0.333,-0.333 -0.664,-0.671 -1,-1 -0.333,-0.333 -0.664,-0.671 -1,-1 -0.286,-0.286 -0.586,-0.561 -0.875,-0.844 -0.01,-0.011 -0.021,-0.021 -0.031,-0.031 -0.037,-0.036 -0.057,-0.089 -0.094,-0.125 -0.33,-0.33 -0.666,-0.643 -1,-0.969 -0.119,-0.122 -0.224,-0.254 -0.344,-0.375 -0.213,-0.206 -0.411,-0.42 -0.625,-0.625 -0.333,-0.333 -0.664,-0.671 -1,-1 -0.333,-0.333 -0.664,-0.671 -1,-1 -0.333,-0.333 -0.664,-0.671 -1,-1 -0.286,-0.286 -0.586,-0.561 -0.875,-0.844 -0.01,-0.011 -0.021,-0.021 -0.031,-0.031 -0.037,-0.036 -0.057,-0.089 -0.094,-0.125 -0.288,-0.288 -0.584,-0.559 -0.875,-0.844 -0.041,-0.043 -0.084,-0.082 -0.125,-0.125 -0.12,-0.12 -0.224,-0.256 -0.344,-0.375 -0.213,-0.206 -0.411,-0.42 -0.625,-0.625 -0.333,-0.333 -0.664,-0.671 -1,-1 -0.333,-0.333 -0.664,-0.671 -1,-1 -0.333,-0.333 -0.664,-0.671 -1,-1 -0.276,-0.275 -0.566,-0.54 -0.844,-0.813 -0.01,-0.011 -0.021,-0.021 -0.031,-0.031 -0.01,-0.01 -0.021,-0.021 -0.031,-0.031 -0.037,-0.036 -0.057,-0.089 -0.094,-0.125 -0.288,-0.288 -0.584,-0.559 -0.875,-0.844 -0.026,-0.027 -0.037,-0.067 -0.063,-0.094 -0.021,-0.021 -0.041,-0.042 -0.063,-0.063 -0.33,-0.33 -0.666,-0.643 -1,-0.969 -0.01,-0.011 -0.021,-0.021 -0.031,-0.031 -0.032,-0.031 -0.062,-0.063 -0.094,-0.094 -0.078,-0.079 -0.141,-0.171 -0.219,-0.25 -0.213,-0.206 -0.411,-0.42 -0.625,-0.625 -0.333,-0.333 -0.664,-0.671 -1,-1 -0.333,-0.333 -0.664,-0.671 -1,-1 -0.276,-0.275 -0.566,-0.54 -0.844,-0.813 -0.01,-0.011 -0.021,-0.021 -0.031,-0.031 -0.006,-0.006 0.006,-0.025 0,-0.031 -0.021,-0.021 -0.041,-0.042 -0.063,-0.063 -0.02,-0.021 -0.042,-0.041 -0.063,-0.063 -0.286,-0.286 -0.586,-0.561 -0.875,-0.844 -0.011,-0.01 -0.021,-0.021 -0.031,-0.031 -0.037,-0.036 -0.057,-0.089 -0.094,-0.125 -0.33,-0.33 -0.666,-0.643 -1,-0.969 -0.119,-0.122 -0.224,-0.254 -0.344,-0.375 -0.213,-0.206 -0.411,-0.42 -0.625,-0.625 -0.333,-0.333 -0.664,-0.671 -1,-1 -0.333,-0.333 -0.664,-0.671 -1,-1 -0.333,-0.333 -0.664,-0.671 -1,-1 -0.286,-0.286 -0.586,-0.561 -0.875,-0.844 -0.01,-0.011 -0.021,-0.021 -0.031,-0.031 -0.037,-0.036 -0.057,-0.089 -0.094,-0.125 -0.33,-0.33 -0.666,-0.643 -1,-0.969 -0.12,-0.12 -0.224,-0.256 -0.344,-0.375 -0.213,-0.206 -0.411,-0.42 -0.625,-0.625 -0.333,-0.333 -0.664,-0.671 -1,-1 -0.333,-0.333 -0.664,-0.671 -1,-1 -0.333,-0.333 -0.664,-0.671 -1,-1 -0.276,-0.275 -0.566,-0.54 -0.844,-0.813 -0.01,-0.011 -0.021,-0.021 -0.031,-0.031 -0.006,-0.006 0.006,-0.025 0,-0.031 -0.021,-0.021 -0.041,-0.042 -0.063,-0.063 -0.01,-0.011 -0.021,-0.021 -0.031,-0.031 -0.011,-0.01 -0.021,-0.021 -0.031,-0.031 -0.288,-0.288 -0.584,-0.559 -0.875,-0.844 -0.026,-0.027 -0.037,-0.067 -0.063,-0.094 -0.021,-0.021 -0.041,-0.042 -0.063,-0.063 -0.325,-0.325 -0.641,-0.648 -0.969,-0.969 -0.333,-0.333 -0.664,-0.671 -1,-1 -0.333,-0.333 -0.664,-0.671 -1,-1 -0.333,-0.333 -0.664,-0.671 -1,-1 -0.276,-0.275 -0.566,-0.54 -0.844,-0.813 -0.01,-0.011 -0.021,-0.021 -0.031,-0.031 -0.01,-0.01 -0.021,-0.021 -0.031,-0.031 -0.037,-0.036 -0.057,-0.089 -0.094,-0.125 -0.286,-0.286 -0.586,-0.561 -0.875,-0.844 -0.01,-0.011 -0.021,-0.021 -0.031,-0.031 -0.037,-0.036 -0.057,-0.089 -0.094,-0.125 -0.33,-0.33 -0.666,-0.643 -1,-0.969 -0.119,-0.122 -0.224,-0.254 -0.344,-0.375 -0.213,-0.206 -0.411,-0.42 -0.625,-0.625 -0.333,-0.333 -0.664,-0.671 -1,-1 -0.333,-0.333 -0.664,-0.671 -1,-1 -0.333,-0.333 -0.664,-0.671 -1,-1 -0.333,-0.333 -0.664,-0.671 -1,-1 -0.33,-0.33 -0.666,-0.643 -1,-0.969 -0.377,-0.377 -0.743,-0.753 -1.125,-1.125 -0.08,-0.076 -0.17,-0.143 -0.25,-0.219 -22.503,-21.822 -53.18,-35.28 -87,-35.28" fill-opacity="0.235"/>
 <path d="m 256.0048,161.5828 c -69.03298,0 -125.0013,55.96429 -125.0013,125.0013 0,69.03298 55.96429,125.0013 125.0013,125.0013 69.03298,0 125.0013,-55.96429 125.0013,-125.0013 0,-69.03298 -55.96429,-125.0013 -125.0013,-125.0013 m 0,225.8088 c -55.58526,0 -100.8075,-45.22224 -100.8075,-100.8075 0,-55.58526 45.22224,-100.8075 100.8075,-100.8075 55.58526,0 100.8075,45.22224 100.8075,100.8075 0,55.58526 -45.22224,100.8075 -100.8075,100.8075" id="path463" fill="#ffffff"/>
 <path d="m 173.53217,276.50335 28.21803,0 0,20.1615 -28.21803,0 0,-20.1615 m 50.48843,93.38807 -6.96782,-4.07262 10.72592,-18.41955 6.97185,4.07262 -10.72995,18.41552 m -35.73828,-32.66567 -4.0323,-6.98394 18.4881,-10.68156 4.0323,6.97991 -18.4881,10.68559 m 14.4558,-83.6299 -18.4881,-10.68156 4.0323,-6.98394 18.49213,10.68559 -4.0323,6.97991 m 25.04461,-27.85109 -10.72591,-18.41552 6.97184,-4.07262 10.72592,18.41551 -6.97185,4.07263 m 84.00088,50.27068 c -0.81856,2.52019 -1.23389,6.39926 -1.23389,11.63722 0,5.00005 0.41533,8.82267 1.23389,11.46786 0.81856,2.65325 2.50002,3.97585 5.04037,3.97585 2.54035,0 4.20569,-1.3226 4.99602,-3.97585 0.7863,-2.64519 1.1855,-6.46781 1.1855,-11.46786 0,-5.23796 -0.3992,-9.11703 -1.1855,-11.63722 -0.79033,-2.52019 -2.45567,-3.77827 -4.99602,-3.77827 -2.54438,-0.004 -4.22181,1.25808 -5.04037,3.77827" id="path465" fill="#ffffff"/>
 <path d="m 254.29107,196.15977 0,90.42433 0,90.42433 c 49.94004,0 90.42433,-40.48429 90.42433,-90.42433 0,-49.94004 -40.48429,-90.42433 -90.42433,-90.42433 m 39.30686,109.71889 c -2.54841,2.78631 -6.31861,4.18552 -11.31463,4.18552 -6.15329,0 -10.42753,-2.00808 -12.82675,-6.02829 -0.72984,-1.24598 -1.27017,-2.7097 -1.62501,-4.40327 -0.45565,-2.18147 1.33872,-3.99601 3.56052,-3.99601 l 0.33871,0 c 2.22583,0 3.99198,1.00001 4.20569,2.20567 0.14113,0.79033 0.36291,1.49598 0.6613,2.11293 1.04033,2.10083 2.92745,3.14922 5.66135,3.14922 1.66937,0 3.13309,-0.58065 4.37907,-1.72985 1.25002,-1.14921 1.87502,-2.79842 1.87502,-4.96376 0,-2.85891 -1.15727,-4.77022 -3.46778,-5.72587 -0.76613,-0.31452 -1.7863,-0.54033 -3.06858,-0.66936 -1.73388,-0.18146 -3.15325,-1.51212 -3.15325,-3.20165 0,-1.68953 1.31856,-3.04439 2.93551,-3.21777 1.25808,-0.13307 2.20567,-0.35081 2.86697,-0.6492 1.89114,-0.83872 2.8347,-2.54035 2.8347,-5.10086 0,-1.66131 -0.47984,-3.0081 -1.44759,-4.0323 -0.96776,-1.04034 -2.33067,-1.5605 -4.08876,-1.5605 -2.01615,0 -3.496,0.64113 -4.44359,1.91937 -0.5121,0.68952 -0.88307,1.50405 -1.10082,2.44357 -0.34678,1.45163 -2.04437,2.68552 -4.25004,2.68552 -2.20567,0 -3.96375,-1.41131 -3.66133,-3.11294 0.18549,-1.04033 0.44355,-2.05244 0.77823,-3.03229 0.70162,-1.70163 1.79841,-3.27019 3.29439,-4.70973 1.12098,-1.02017 2.44761,-1.7984 3.98391,-2.33873 1.54438,-0.54033 3.42746,-0.81049 5.66539,-0.81049 4.15327,0 7.50007,1.07662 10.05252,3.22584 2.54841,2.14921 3.81859,5.03231 3.81859,8.65331 0,2.56051 -0.75807,4.7178 -2.27825,6.47991 -0.44759,0.5121 -0.90324,0.94759 -1.36292,1.30647 -0.82662,0.64113 -0.72984,1.07662 0.18145,1.69759 0.45969,0.31856 0.97179,0.73388 1.54034,1.25405 2.18148,2.02018 3.2702,4.77827 3.2702,8.27831 0.004,3.68149 -1.27421,6.9154 -3.81456,9.70171 m 34.8794,-34.83503 c 2.22986,3.89923 3.33874,9.43961 3.33874,16.6171 0,7.1775 -1.10888,12.70578 -3.33874,16.58485 -2.2339,3.87908 -6.117,5.81861 -11.65738,5.81861 -5.54038,0 -9.42349,-1.93953 -11.65738,-5.81861 -2.22986,-3.87907 -3.33875,-9.40735 -3.33875,-16.58485 0,-7.17749 1.10889,-12.71787 3.33875,-16.61711 2.23389,-3.89923 6.117,-5.84683 11.65738,-5.84683 5.54038,-0.004 9.42348,1.9476 11.65738,5.84683" id="path467" fill="#ffffff"/>
</svg>
