<?xml version="1.0" encoding="UTF-8" standalone="no"?>
<svg xmlns="http://www.w3.org/2000/svg" viewBox="0 0 512 512" height="512" width="512" version="1.1">
 <metadata id="metadata941"/>
 <defs id="defs4">
  <linearGradient gradientUnits="userSpaceOnUse" id="0-4" y2="453.24" x2="0" y1="121.74" gradientTransform="translate(0.0012,5e-4)">
   <stop id="stop7-5" stop-color="#6a6a6a"/>
   <stop offset="0.47" id="stop9-1"/>
   <stop offset="0.494" id="stop11-0" stop-color="#ffffff"/>
   <stop offset="0.901" id="stop13-3" stop-color="#ffffff"/>
   <stop offset="0.955" id="stop15-4"/>
   <stop offset="1" id="stop17-9"/>
  </linearGradient>
 </defs>
 <path d="m 108.6312,57.3705 c -7.963,0 -15.228,2.293 -20.693,6.22 -4.545,3.266 -7.751,7.872 -8.752,13.13 l -11.909,0 c -16.447,0 -29.883,13.03 -29.883,29.2 l 0,66.736 c 0,16.17 13.436,29.19 29.883,29.19 l 377.47,0 c 16.447,0 29.883,-13.03 29.883,-29.19 l 0,-66.736 c 0,-16.17 -13.436,-29.2 -29.883,-29.2 l -262.91,0 c -1,-5.256 -4.208,-9.862 -8.753,-13.13 -5.465,-3.927 -12.73,-6.22 -20.693,-6.22 l -43.761,0" id="path115" fill="#cccccc" fill-rule="evenodd"/>
 <path d="m 37.3612,118.4605 c -19.928,0 -38.06,15.818 -36.23,35.853 l 24.26,265.41 c 1.733,18.966 16.271,34.947 36.2,34.947 l 383.41,0 c 19.933,0 34.1,-16.05 36.2,-34.853 l 29.632,-265.41 c 1.123,-10.05 -3.137,-19.263 -9.971,-25.663 -6.833,-6.399 -16.258,-10.284 -26.22,-10.284 l -437.27,0" id="path117" fill="#BF9E73" fill-rule="evenodd"/>
 <path id="path119" d="m 37.3612,118.4505 c -19.928,0 -38.08,15.84 -36.25,35.875 l 11.781,128.78 12.469,136.63 c 1.733,18.966 16.29,34.938 36.22,34.938 l 383.41,0 c 19.933,0 34.09,-16.04 36.19,-34.844 l 15.281,-136.72 14.375,-128.69 c 1.123,-10.05 -3.135,-19.287 -9.969,-25.688 -6.833,-6.399 -16.257,-10.281 -26.22,-10.281 l -437.28,0" opacity="0.05" fill="url(#0-4)"/>
 <path d="m 108.5512,57.2905 c -7.963,0 -15.11,2.403 -20.572,6.33 -4.545,3.266 -7.702,7.931 -8.703,13.187 l -12.13,0 c -17.677,0 -29.802,12.771 -29.802,30.661 l 0,3.956 c 0,-16.17 13.355,-29.27 29.802,-29.27 l 14.286,0 c 1,-5.256 2,-9.657 6.549,-12.923 5.465,-3.927 12.609,-6.33 20.572,-6.33 l 43.78,0 c 7.963,0 15.371,2.403 20.835,6.33 4.545,3.266 5.766,7.668 6.769,12.923 l 264.88,0 c 16.447,0 29.802,11.455 29.802,27.625 l 0,-3.956 c 0,-16.17 -13.355,-29.01 -29.802,-29.01 l -262.95,0 c -1,-5.256 -4.159,-9.921 -8.703,-13.187 -5.465,-3.927 -12.872,-6.33 -20.835,-6.33 z" id="path125" opacity="0.764" fill="#ffffff" fill-rule="evenodd"/>
 <path d="m 37.3512,118.4505 c -19.928,0 -38.05,15.84 -36.22,35.875 l 0.406,4.375 c 3,-15.936 18.732,-27.563 35.813,-27.563 l 437.28,0 c 9.966,0 19.386,3.882 26.22,10.281 4.736,4.435 8.234,10.208 9.563,16.688 l 0.406,-3.688 c 1.123,-10.05 -3.134,-19.288 -9.969,-25.688 -6.833,-6.399 -16.252,-10.281 -26.22,-10.281 l -437.28,0" id="path127" opacity="0.4" fill="#ffffff" fill-rule="evenodd"/>
 <path d="m 313.7512,163.6605 -58.25,48.31 -0.656,-0.531 0.156,-0.094 -59.62,-47.22 -89.69,58.938 1.625,1.25 -0.188,0.125 c 0.006,0.005 1.533,1.179 1.625,1.25 l -0.188,0.125 c 0.006,0.005 1.561,1.178 1.656,1.25 -10e-4,0.001 -0.219,0.125 -0.219,0.125 0.006,0.005 1.562,1.149 1.656,1.219 -10e-4,0.001 -0.219,0.156 -0.219,0.156 0.006,0.005 1.561,1.149 1.656,1.219 -0.001,0.001 -0.219,0.156 -0.219,0.156 0.006,0.005 1.59,1.148 1.688,1.219 -0.001,0.001 -0.25,0.156 -0.25,0.156 0.006,0.005 1.591,1.118 1.688,1.188 -0.002,0.001 -0.25,0.188 -0.25,0.188 0.006,0.005 1.59,1.119 1.688,1.188 -0.002,0.001 -0.25,0.188 -0.25,0.188 0.006,0.005 1.618,1.118 1.719,1.188 -0.002,0.001 -0.281,0.188 -0.281,0.188 0.006,0.005 1.618,1.118 1.719,1.188 -0.002,0.001 -0.281,0.188 -0.281,0.188 0.006,0.005 1.619,1.089 1.719,1.156 -0.002,0.001 -0.281,0.219 -0.281,0.219 0.006,0.005 1.647,1.088 1.75,1.156 -0.002,0.002 -0.313,0.219 -0.313,0.219 0.006,0.005 1.646,1.088 1.75,1.156 -0.002,0.002 -0.313,0.219 -0.313,0.219 0.006,0.005 1.647,1.059 1.75,1.125 -0.002,0.002 -0.281,0.219 -0.281,0.219 0.006,0.005 1.675,1.057 1.781,1.125 -0.003,0.002 -0.344,0.25 -0.344,0.25 0.006,0.005 1.675,1.058 1.781,1.125 -0.003,0.002 -0.344,0.25 -0.344,0.25 0.006,0.005 1.704,1.027 1.813,1.094 l -0.375,0.281 c 0.006,0.005 1.704,1.027 1.813,1.094 -0.004,0.003 -0.375,0.281 -0.375,0.281 0.006,0.005 1.703,1.028 1.813,1.094 -0.004,0.003 -0.375,0.281 -0.375,0.281 0.006,0.005 1.733,0.997 1.844,1.063 l -0.406,0.313 c 0.006,0.005 1.733,0.998 1.844,1.063 -0.004,0.003 -0.406,0.313 -0.406,0.313 0.006,0.005 1.734,0.968 1.844,1.031 -0.005,0.004 -0.406,0.344 -0.406,0.344 0.006,0.005 1.762,0.967 1.875,1.031 -0.005,0.004 -0.438,0.344 -0.438,0.344 0.006,0.005 1.761,0.968 1.875,1.031 -0.005,0.004 -0.438,0.344 -0.438,0.344 0.006,0.005 1.762,0.938 1.875,1 -0.006,0.005 -0.438,0.375 -0.438,0.375 0.006,0.005 1.79,0.938 1.906,1 -0.006,0.005 -0.469,0.375 -0.469,0.375 0.006,0.005 1.789,0.938 1.906,1 -0.006,0.005 -0.469,0.375 -0.469,0.375 0.006,0.005 1.819,0.907 1.938,0.969 -0.007,0.006 -0.5,0.406 -0.5,0.406 0.006,0.005 1.818,0.908 1.938,0.969 -0.007,0.006 -0.469,0.406 -0.469,0.406 0.006,0.005 1.819,0.878 1.938,0.938 -0.008,0.006 -0.5,0.438 -0.5,0.438 0.006,0.005 1.847,0.878 1.969,0.938 -0.008,0.007 -0.531,0.438 -0.531,0.438 0.006,0.005 1.819,0.849 1.938,0.906 -0.008,0.007 -0.5,0.438 -0.5,0.438 0.006,0.005 1.847,0.849 1.969,0.906 -0.009,0.008 -0.531,0.469 -0.531,0.469 0.006,0.005 1.846,0.849 1.969,0.906 l -0.531,0.469 c 0.006,0.005 1.876,0.818 2,0.875 -0.01,0.009 -0.563,0.5 -0.563,0.5 0.006,0.005 1.875,0.819 2,0.875 -0.01,0.009 -0.563,0.5 -0.563,0.5 0.006,0.005 1.876,0.789 2,0.844 -0.01,0.01 -0.563,0.531 -0.563,0.531 0.005,0.004 1.514,0.622 1.594,0.656 l -53.656,44.531 1.469,0.875 -0.313,0.25 1.469,0.875 -0.313,0.281 1.469,0.875 -0.344,0.281 1.469,0.875 -0.313,0.25 1.469,0.875 -0.313,0.281 1.438,0.875 -0.313,0.25 1.469,0.875 -0.313,0.281 1.469,0.875 -0.344,0.281 1.469,0.875 -0.313,0.25 1.469,0.875 -0.313,0.281 1.469,0.875 -0.344,0.281 1.469,0.875 -0.313,0.25 1.469,0.875 -0.313,0.281 1.438,0.875 -0.313,0.25 1.469,0.875 -0.313,0.281 1.469,0.875 -0.344,0.281 1.469,0.875 -0.313,0.25 1.469,0.875 -0.313,0.281 1.438,0.875 -0.313,0.25 1.469,0.875 -0.313,0.281 1.469,0.875 -0.344,0.281 1.469,0.875 -0.313,0.25 1.469,0.875 -0.313,0.281 1.469,0.875 -0.344,0.281 1.469,0.875 -0.313,0.25 1.469,0.875 -0.313,0.281 1.438,0.875 -0.313,0.25 1.469,0.875 -0.313,0.281 1.469,0.875 -0.344,0.281 1.469,0.875 -0.313,0.25 1.469,0.875 -0.313,0.281 1.438,0.875 -0.313,0.25 1.469,0.875 -0.313,0.281 1.469,0.875 -0.344,0.281 1.469,0.875 -0.313,0.25 1.469,0.875 -0.313,0.281 1.469,0.875 -0.344,0.281 1.469,0.875 -0.313,0.25 1.469,0.875 -0.313,0.281 1.438,0.875 -0.313,0.25 1.469,0.875 -0.313,0.281 1.469,0.875 -0.344,0.281 1.469,0.875 -0.313,0.25 1.469,0.906 -0.313,0.25 1.469,0.875 -0.344,0.281 1.469,0.875 -0.313,0.25 1.469,0.875 -0.344,0.281 1.469,0.875 -0.313,0.25 1.469,0.875 -0.313,0.281 1.469,0.875 -0.344,0.281 1.469,0.875 -0.313,0.25 0.938,0.563 0,5.75 1.125,0.531 0,0.625 1.156,0.563 0,0.594 c 0,0 1.097,0.518 1.125,0.531 l 0,0.594 c 0,0 1.126,0.548 1.156,0.563 l 0,0.594 c 0,0 1.126,0.548 1.156,0.563 l 0,0.563 c 0,0 1.097,0.518 1.125,0.531 l 0,0.625 c 0,0 1.126,0.548 1.156,0.563 l 0,0.594 c 0,0 1.126,0.548 1.156,0.563 l 0,0.563 c 0,0 1.097,0.518 1.125,0.531 l 0,0.625 c 0,0 1.126,0.548 1.156,0.563 l 0,0.594 c 0,0 1.097,0.518 1.125,0.531 l 0,0.594 c 0,0 1.126,0.548 1.156,0.563 l 0,0.594 c 0,0 1.126,0.548 1.156,0.563 l 0,0.563 c 0,0 1.097,0.518 1.125,0.531 l 0,0.625 c 0,0 1.126,0.548 1.156,0.563 l 0,0.594 c 0,0 1.097,0.518 1.125,0.531 l 0,0.594 c 0,0 1.126,0.548 1.156,0.563 l 0,0.594 c 0,0 1.126,0.548 1.156,0.563 l 0,0.563 0,0.031 c 0,0 1.097,0.518 1.125,0.531 l 0,0.594 c 0,0 1.126,0.548 1.156,0.563 l 0,0.594 c 0,0 1.126,0.548 1.156,0.563 l 0,0.563 c 0,0 1.097,0.518 1.125,0.531 l 0,0.625 c 0,0 1.126,0.548 1.156,0.563 l 0,0.594 c 0,0 1.097,0.518 1.125,0.531 l 0,0.594 c 0,0 1.126,0.548 1.156,0.563 l 0,0.594 c 0,0 1.126,0.548 1.156,0.563 l 0,0.563 1.125,0.531 0,0.625 c 0,0 1.126,0.548 1.156,0.563 l 0,0.594 1.125,0.531 0,0.594 1.156,0.563 0,0.594 c 0,0 1.126,0.548 1.156,0.563 l 0,0.594 c 0,0 1.097,0.518 1.125,0.531 l 0,0.594 c 0,0 1.126,0.548 1.156,0.563 l 0,0.594 c 0,0 1.126,0.548 1.156,0.563 l 0,0.563 c 0,0 1.097,0.518 1.125,0.531 l 0,0.625 c 0,0 1.126,0.548 1.156,0.563 l 0,0.594 c 0,0 1.097,0.518 1.125,0.531 l 0,0.594 1.156,0.563 0,0.594 c 0,0 1.126,0.548 1.156,0.563 l 0,0.563 c 0,0 1.097,0.518 1.125,0.531 l 0,0.625 c 0,0 1.126,0.548 1.156,0.563 l 0,0.594 c 0,0 1.097,0.518 1.125,0.531 l 0,0.594 0.031,0 c 0,0 1.097,0.518 1.125,0.531 l 0,0.625 1.156,0.563 0,0.594 c 0,0 1.097,0.518 1.125,0.531 l 0,0.594 c 0.001,0 1.126,0.548 1.156,0.563 l 0,0.594 c 0.001,0 1.126,0.548 1.156,0.563 l 0,0.563 c 10e-4,0 1.097,0.518 1.125,0.531 l 0,0.625 c 10e-4,0 1.126,0.548 1.156,0.563 l 0,0.594 1.125,0.531 0,0.594 c 0.001,0 1.126,0.548 1.156,0.563 l 0,0.594 1.156,0.563 0,0.563 c 0.001,0 1.097,0.518 1.125,0.531 l 0,0.625 c 0.001,0 1.126,0.548 1.156,0.563 l 0,0.594 c 0.001,0 1.126,0.548 1.156,0.563 l 0,0.563 c 10e-4,0 1.097,0.518 1.125,0.531 l 0,0.625 c 10e-4,0 1.126,0.548 1.156,0.563 l 0,0.594 1.125,0.531 0,0.594 c 0.001,0 1.126,0.548 1.156,0.563 l 0,0.594 c 0.001,0 1.126,0.548 1.156,0.563 l 0,0.563 c 0.001,0 1.096,0.518 1.125,0.531 l 0,0.625 c 0.001,0 1.126,0.548 1.156,0.563 l 0,0.563 207.88,0 c 19.933,0 34.09,-16.04 36.19,-34.844 l 12.375,-110.72 c -0.405,-0.25 -0.816,-0.514 -0.844,-0.531 0.003,-0.003 0.313,-0.25 0.313,-0.25 -10e-4,-0.001 -1.392,-0.847 -1.438,-0.875 l 0.281,-0.25 c -0.001,-0.001 -1.392,-0.847 -1.438,-0.875 0.004,-0.003 0.313,-0.281 0.313,-0.281 l -1.469,-0.906 0.313,-0.25 c -0.001,-0.001 -1.392,-0.847 -1.438,-0.875 0.003,-0.002 0.281,-0.25 0.281,-0.25 -0.001,-0.001 -1.392,-0.847 -1.438,-0.875 0.004,-0.003 0.313,-0.281 0.313,-0.281 l -1.438,-0.875 c 0.003,-0.002 0.281,-0.25 0.281,-0.25 -10e-4,-10e-4 -1.392,-0.847 -1.438,-0.875 0.004,-0.003 0.313,-0.281 0.313,-0.281 -10e-4,-10e-4 -1.421,-0.877 -1.469,-0.906 0.003,-0.003 0.313,-0.25 0.313,-0.25 l -1.438,-0.875 c 0.003,-0.002 0.281,-0.25 0.281,-0.25 -10e-4,-10e-4 -1.392,-0.847 -1.438,-0.875 0.004,-0.003 0.313,-0.281 0.313,-0.281 -10e-4,-10e-4 -1.392,-0.847 -1.438,-0.875 0.003,-0.002 0.281,-0.25 0.281,-0.25 l -1.438,-0.875 0.313,-0.281 c -0.001,-10e-4 -1.421,-0.877 -1.469,-0.906 0.003,-0.003 0.313,-0.25 0.313,-0.25 l -1.438,-0.875 0.281,-0.25 -1.438,-0.875 c 0.004,-0.003 0.313,-0.281 0.313,-0.281 -0.001,-0.001 -1.421,-0.877 -1.469,-0.906 l 0.313,-0.25 -1.438,-0.875 c 0.003,-0.002 0.281,-0.25 0.281,-0.25 -10e-4,-0.001 -1.392,-0.847 -1.438,-0.875 l 0.313,-0.281 c -10e-4,-0.001 -1.392,-0.847 -1.438,-0.875 0.003,-0.002 0.281,-0.25 0.281,-0.25 l -1.438,-0.875 0.313,-0.281 c -10e-4,-0.001 -1.421,-0.877 -1.469,-0.906 0.003,-0.003 0.313,-0.25 0.313,-0.25 -10e-4,0 -1.392,-0.847 -1.438,-0.875 0.003,-0.002 0.281,-0.25 0.281,-0.25 l -1.438,-0.875 c 0.004,-0.003 0.313,-0.281 0.313,-0.281 -0.001,0 -1.421,-0.877 -1.469,-0.906 0.003,-0.003 0.313,-0.25 0.313,-0.25 -10e-4,0 -1.362,-0.848 -1.406,-0.875 0.003,-0.002 0.281,-0.25 0.281,-0.25 l -1.469,-0.906 c 0.003,-0.003 0.313,-0.25 0.313,-0.25 -10e-4,0 -1.392,-0.847 -1.438,-0.875 0.003,-0.002 0.281,-0.25 0.281,-0.25 -0.001,0 -1.392,-0.847 -1.438,-0.875 0.004,-0.003 0.313,-0.281 0.313,-0.281 l -1.469,-0.906 0.313,-0.25 c -0.001,0 -1.392,-0.847 -1.438,-0.875 0.003,-0.002 0.281,-0.25 0.281,-0.25 -0.001,0 -1.392,-0.847 -1.438,-0.875 l 0.313,-0.281 c -0.001,0 -1.392,-0.847 -1.438,-0.875 0.003,-0.002 0.281,-0.25 0.281,-0.25 -10e-4,0 -1.392,-0.847 -1.438,-0.875 l 0.313,-0.281 c -10e-4,0 -1.421,-0.877 -1.469,-0.906 0.003,-0.003 0.313,-0.25 0.313,-0.25 -10e-4,0 -1.392,-0.847 -1.438,-0.875 0.003,-0.002 0.281,-0.25 0.281,-0.25 -10e-4,0 -1.392,-0.847 -1.438,-0.875 0.004,-0.003 0.313,-0.281 0.313,-0.281 -10e-4,0 -1.421,-0.877 -1.469,-0.906 l 0.313,-0.25 c -10e-4,0 -1.362,-0.848 -1.406,-0.875 0.003,-0.002 0.281,-0.25 0.281,-0.25 -10e-4,0 -1.421,-0.877 -1.469,-0.906 0.003,-0.003 0.313,-0.25 0.313,-0.25 -10e-4,0 -1.392,-0.847 -1.438,-0.875 0.003,-0.002 0.281,-0.25 0.281,-0.25 -0.001,0 -1.392,-0.847 -1.438,-0.875 0.004,-0.003 0.313,-0.281 0.313,-0.281 -0.001,0 -1.421,-0.877 -1.469,-0.906 0.003,-0.003 0.313,-0.25 0.313,-0.25 0,0 -1.392,-0.847 -1.438,-0.875 0.003,-0.002 0.281,-0.25 0.281,-0.25 0,0 -1.392,-0.847 -1.438,-0.875 l 0.313,-0.281 c 0,0 -1.392,-0.847 -1.438,-0.875 0.003,-0.002 0.281,-0.25 0.281,-0.25 0,0 -1.392,-0.847 -1.438,-0.875 l 0.313,-0.281 c 0,0 -1.421,-0.877 -1.469,-0.906 0.003,-0.003 0.313,-0.25 0.313,-0.25 0,0 -1.392,-0.847 -1.438,-0.875 l 0.281,-0.25 c 0,0 -1.392,-0.847 -1.438,-0.875 0.004,-0.003 0.313,-0.281 0.313,-0.281 0,0 -1.421,-0.877 -1.469,-0.906 l 0.313,-0.25 c 0,0 -1.392,-0.847 -1.438,-0.875 0.003,-0.002 0.281,-0.25 0.281,-0.25 0,0 -1.392,-0.847 -1.438,-0.875 0.004,-0.003 0.313,-0.281 0.313,-0.281 0,0 -1.392,-0.847 -1.438,-0.875 0.003,-0.002 0.281,-0.25 0.281,-0.25 0,0 -1.392,-0.847 -1.438,-0.875 0.004,-0.003 0.313,-0.281 0.313,-0.281 0,0 -1.421,-0.877 -1.469,-0.906 0.003,-0.003 0.313,-0.25 0.313,-0.25 0,0 -1.392,-0.847 -1.438,-0.875 0.003,-0.002 0.281,-0.25 0.281,-0.25 0,0 -1.392,-0.847 -1.438,-0.875 0.004,-0.003 0.313,-0.281 0.313,-0.281 0,0 -1.392,-0.847 -1.438,-0.875 0.003,-0.002 0.281,-0.25 0.281,-0.25 0,0 -1.392,-0.847 -1.438,-0.875 l 0.313,-0.281 c 0,0 -1.421,-0.877 -1.469,-0.906 0.003,-0.003 0.313,-0.25 0.313,-0.25 0,0 -1.392,-0.847 -1.438,-0.875 l 0.281,-0.25 c 0,0 -1.392,-0.847 -1.438,-0.875 0.004,-0.003 0.313,-0.281 0.313,-0.281 0,0 -1.421,-0.877 -1.469,-0.906 l 0.313,-0.25 c 0,0 -1.392,-0.847 -1.438,-0.875 0.003,-0.002 0.281,-0.25 0.281,-0.25 0,0 -1.392,-0.847 -1.438,-0.875 l 0.313,-0.281 c 0,0 -1.392,-0.847 -1.438,-0.875 0.003,-0.002 0.281,-0.25 0.281,-0.25 0,0 -1.392,-0.847 -1.438,-0.875 l 0.313,-0.281 c 0,0 -1.421,-0.877 -1.469,-0.906 0.003,-0.003 0.313,-0.25 0.313,-0.25 0,0 -1.392,-0.847 -1.438,-0.875 0.003,-0.002 0.281,-0.25 0.281,-0.25 0,0 -1.392,-0.847 -1.438,-0.875 0.004,-0.003 0.313,-0.281 0.313,-0.281 0,0 -1.392,-0.847 -1.438,-0.875 0.003,-0.002 0.281,-0.25 0.281,-0.25 0,0 -1.392,-0.847 -1.438,-0.875 0.004,-0.003 0.313,-0.281 0.313,-0.281 0,0 -1.421,-0.877 -1.469,-0.906 0.003,-0.003 0.313,-0.25 0.313,-0.25 0,0 -1.393,-0.847 -1.438,-0.875 0.003,-0.002 0.281,-0.25 0.281,-0.25 0,0 -1.393,-0.847 -1.438,-0.875 0.004,-0.003 0.313,-0.281 0.313,-0.281 0,0 -1.422,-0.877 -1.469,-0.906 0.003,-0.003 0.313,-0.25 0.313,-0.25 0,0 -1.393,-0.847 -1.438,-0.875 0.003,-0.002 0.281,-0.25 0.281,-0.25 l -1.438,-0.875 0.313,-0.281 -90.03,-55.41 m -57.906,48.594 1.063,0.625 -0.313,0.25 -0.906,-0.75 c 0.001,0 0.156,-0.094 0.156,-0.094 l 0,-0.031 m 0.844,0.938 1.375,0.813 -0.313,0.281 1.469,0.875 -0.313,0.281 1.438,0.875 -0.313,0.25 1.469,0.875 -0.313,0.281 1.469,0.875 -0.313,0.281 1.438,0.875 -0.313,0.25 1.469,0.875 -0.313,0.281 1.438,0.875 -0.313,0.25 1.469,0.875 -0.313,0.281 1.469,0.875 -0.313,0.281 1.438,0.875 -0.313,0.25 1.469,0.875 -0.313,0.281 1.438,0.875 -0.313,0.25 1.469,0.875 -0.313,0.281 c 0.003,0.002 1.42,0.846 1.469,0.875 l -0.313,0.281 c 0.003,0.002 1.391,0.847 1.438,0.875 l -0.313,0.25 1.469,0.875 -0.313,0.281 c 0.003,0.002 1.42,0.846 1.469,0.875 l -0.313,0.281 c 0.003,0.002 1.391,0.847 1.438,0.875 l -0.313,0.25 1.469,0.875 -0.313,0.281 c 0.003,0.002 1.391,0.847 1.438,0.875 l -0.313,0.25 c 0.003,0.002 1.421,0.846 1.469,0.875 l -0.313,0.281 c 0.003,0.002 1.421,0.846 1.469,0.875 l -0.313,0.281 c 0.002,0.001 1.391,0.847 1.438,0.875 l -0.313,0.25 1.469,0.875 -0.313,0.281 c 0.002,0.001 1.421,0.846 1.469,0.875 l -0.313,0.25 c 0.002,0.001 1.421,0.846 1.469,0.875 l -0.344,0.281 1.469,0.875 -0.313,0.281 c 0.002,0.001 1.391,0.847 1.438,0.875 l -0.313,0.25 c 0.002,0.001 1.421,0.846 1.469,0.875 l -0.313,0.281 c 0.002,0.001 1.421,0.846 1.469,0.875 l -0.313,0.281 c 0.002,0.001 1.391,0.847 1.438,0.875 l -0.313,0.25 c 0.002,0.001 1.421,0.846 1.469,0.875 l -0.313,0.281 c 0.002,0.001 1.391,0.847 1.438,0.875 l -0.313,0.25 c 0.002,0.001 1.421,0.846 1.469,0.875 l -0.313,0.281 1.469,0.875 -0.313,0.281 c 0.002,0.001 1.391,0.847 1.438,0.875 l -0.313,0.25 c 0.002,0.001 1.421,0.846 1.469,0.875 l -0.313,0.281 c 0.002,0.001 1.421,0.846 1.469,0.875 l -0.313,0.281 c 0.002,10e-4 1.391,0.847 1.438,0.875 l -0.313,0.25 1.469,0.875 -0.313,0.281 c 0.002,10e-4 1.391,0.847 1.438,0.875 l -0.313,0.25 c 0.002,10e-4 1.421,0.846 1.469,0.875 l -0.313,0.281 1.469,0.875 -0.313,0.281 c 0.002,10e-4 1.391,0.847 1.438,0.875 l -0.313,0.25 c 0.002,10e-4 1.421,0.846 1.469,0.875 l -0.313,0.281 c 0.002,10e-4 1.391,0.847 1.438,0.875 l -0.313,0.25 c 0.002,10e-4 1.421,0.846 1.469,0.875 l -0.313,0.281 1.469,0.875 -0.313,0.281 c 0.002,0.001 1.391,0.847 1.438,0.875 l -0.313,0.25 c 0.002,0.001 1.421,0.846 1.469,0.875 l -0.313,0.281 1.469,0.875 -0.313,0.281 c 0.002,0.001 1.391,0.847 1.438,0.875 l -0.313,0.25 c 0.002,0.001 1.421,0.846 1.469,0.875 l -0.313,0.281 c 0.002,10e-4 1.391,0.847 1.438,0.875 l -0.313,0.25 c 0.002,10e-4 1.421,0.846 1.469,0.875 l -0.313,0.281 1.469,0.906 -0.313,0.25 c 0.002,10e-4 1.391,0.847 1.438,0.875 l -0.313,0.25 c 0.002,10e-4 1.421,0.846 1.469,0.875 l -0.313,0.281 1.438,0.875 -0.313,0.25 c 0.002,10e-4 1.126,0.669 1.156,0.688 l -3.313,2.094 -0.375,-0.313 c 10e-4,-0.001 0.094,-0.156 0.094,-0.156 l -0.938,-0.75 c 10e-4,-10e-4 0.094,-0.156 0.094,-0.156 l -0.938,-0.75 0.094,-0.156 -0.969,-0.75 0.094,-0.156 -0.938,-0.75 c 10e-4,-10e-4 0.094,-0.156 0.094,-0.156 l -0.938,-0.75 c 10e-4,-10e-4 0.094,-0.156 0.094,-0.156 l -0.938,-0.75 c 0.001,-10e-4 0.094,-0.156 0.094,-0.156 l -0.938,-0.75 c 0.001,-0.001 0.094,-0.156 0.094,-0.156 l -0.938,-0.75 c 0.001,-0.001 0.094,-0.156 0.094,-0.156 l -0.969,-0.75 c 0.001,-0.001 0.125,-0.188 0.125,-0.188 l -0.938,-0.75 c 10e-4,-0.001 0.094,-0.156 0.094,-0.156 l -0.969,-0.781 c 0,-0.001 0.094,-0.125 0.094,-0.125 l -0.969,-0.75 c 10e-4,-0.001 0.125,-0.156 0.125,-0.156 l -0.969,-0.75 c 10e-4,-0.001 0.125,-0.156 0.125,-0.156 l -0.969,-0.75 c 10e-4,-10e-4 0.125,-0.156 0.125,-0.156 l -0.969,-0.75 c 10e-4,-10e-4 0.125,-0.156 0.125,-0.156 l -0.969,-0.75 c 10e-4,-10e-4 0.125,-0.156 0.125,-0.156 l -0.969,-0.75 0.125,-0.156 -0.969,-0.75 0.125,-0.156 -0.969,-0.781 c 0.001,-0.001 0.125,-0.156 0.125,-0.156 l -0.031,0 -0.969,-0.75 c 0.001,-0.001 0.125,-0.156 0.125,-0.156 l -0.969,-0.75 c 0.001,-0.001 0.125,-0.156 0.125,-0.156 l -0.969,-0.75 c 10e-4,-10e-4 0.125,-0.156 0.125,-0.156 l -0.969,-0.75 c 10e-4,-10e-4 0.125,-0.156 0.125,-0.156 l -0.969,-0.781 c 10e-4,-10e-4 0.125,-0.125 0.125,-0.125 l -0.969,-0.781 c 10e-4,-10e-4 0.125,-0.125 0.125,-0.125 l -0.969,-0.781 c 10e-4,-10e-4 0.125,-0.125 0.125,-0.125 l -0.969,-0.781 c 10e-4,-0.001 0.125,-0.125 0.125,-0.125 l -1,-0.781 c 10e-4,-0.001 0.125,-0.125 0.125,-0.125 l -1,-0.781 c 10e-4,-0.001 0.156,-0.156 0.156,-0.156 l -0.969,-0.781 c 0.001,-10e-4 0.125,-0.125 0.125,-0.125 l -0.969,-0.781 c 0.001,-10e-4 0.125,-0.125 0.125,-0.125 l -0.969,-0.781 c 0.001,-10e-4 0.125,-0.125 0.125,-0.125 l -0.969,-0.781 0.125,-0.125 -0.969,-0.781 0.125,-0.125 -0.969,-0.781 0.125,-0.125 -1,-0.781 c 10e-4,-0.001 0.125,-0.125 0.125,-0.125 l -0.969,-0.781 c 10e-4,-10e-4 0.125,-0.125 0.125,-0.125 l -0.969,-0.781 c 10e-4,-0.001 0.125,-0.125 0.125,-0.125 l -1,-0.781 c 10e-4,-0.001 0.156,-0.156 0.156,-0.156 l -0.969,-0.781 c 0.001,-0.001 0.125,-0.125 0.125,-0.125 l -0.969,-0.781 c 0.001,-10e-4 0.125,-0.125 0.125,-0.125 l -0.969,-0.781 c 0.001,0 0.125,-0.125 0.125,-0.125 l -1,-0.781 c 0.001,-0.001 0.156,-0.125 0.156,-0.125 l -1,-0.781 c 10e-4,0 0.125,-0.125 0.125,-0.125 l -1,-0.781 c 10e-4,-0.001 0.156,-0.125 0.156,-0.125 l -1,-0.781 c 10e-4,-10e-4 0.156,-0.125 0.156,-0.125 l -1,-0.781 c 10e-4,-0.001 0.156,-0.125 0.156,-0.125 l -1,-0.781 c 10e-4,-0.001 0.156,-0.125 0.156,-0.125 l -1,-0.813 c 10e-4,-10e-4 0.156,-0.125 0.156,-0.125 l -1,-0.781 c 10e-4,-0.001 0.156,-0.125 0.156,-0.125 l -1,-0.781 0.156,-0.125 -1,-0.813 c 0,0 0.125,-0.094 0.125,-0.094 l -1,-0.781 0.156,-0.125 -1,-0.781 0.156,-0.125 -1,-0.781 0.156,-0.125 -1,-0.781 0.156,-0.125 -1,-0.781 c 10e-4,-0.001 0.156,-0.125 0.156,-0.125 l -1,-0.781 c 10e-4,-0.001 0.156,-0.125 0.156,-0.125 l -1.031,-0.813 c 10e-4,-0.001 0.188,-0.125 0.188,-0.125 l -1,-0.813 0.125,-0.094 -1,-0.781 c 10e-4,0 0.156,-0.125 0.156,-0.125 l -1,-0.781 c 10e-4,0 0.156,-0.125 0.156,-0.125 -0.004,-0.003 -0.961,-0.75 -1,-0.781 10e-4,0 0.156,-0.125 0.156,-0.125 l -1,-0.781 c 10e-4,0 0.156,-0.125 0.156,-0.125 l -1,-0.781 c 10e-4,0 0.156,-0.125 0.156,-0.125 l -1,-0.781 c 10e-4,0 0.156,-0.125 0.156,-0.125 l -1,-0.781 c 0.001,0 0.156,-0.125 0.156,-0.125 l -1.031,-0.813 c 0.001,0 0.156,-0.094 0.156,-0.094 l -1,-0.781 c 0.001,0 0.156,-0.125 0.156,-0.125 l 0,-0.031 -1,-0.781 c 0.001,0 0.156,-0.125 0.156,-0.125 l -1,-0.781 c 0.001,0 0.156,-0.125 0.156,-0.125 l -1,-0.781 c 10e-4,0 0.156,-0.125 0.156,-0.125 l -1,-0.781 c 10e-4,0 0.156,-0.125 0.156,-0.125 l -1,-0.781 c 10e-4,0 0.156,-0.125 0.156,-0.125 l -1,-0.813 c 10e-4,0 0.156,-0.094 0.156,-0.094 l -1.031,-0.813 c 10e-4,0 0.156,-0.094 0.156,-0.094 l -1,-0.813 c 10e-4,0 0.156,-0.094 0.156,-0.094 l -1,-0.813 c 0.001,0 0.156,-0.094 0.156,-0.094" id="path883" fill-rule="evenodd" fill-opacity="0.235"/>
 <path d="m 313.7612,164.5605 -58.29,48.32 92.06,55.42 56.26,-48.35 -90.04,-55.4 m -118.39,0.464 -89.69,58.929 59.37,46.03 89.95,-57.745 -59.63,-47.22 m 152.24,104.88 -90.79,57.25 58.5,47.14 91.02,-56.03 -58.732,-48.35 m -182.39,1.711 -58.29,48.32 92.04,55.42 56.29,-48.35 -90.04,-55.4 m 94.99,67.806 0,86.12 85.02,-41.572 0,-19.335 c -10.151,6.249 -20.311,12.494 -30.495,18.697 -18.18,-14.629 -36.35,-29.28 -54.53,-43.916 m -9.01,0.985 c -17.14,14.704 -34.28,29.417 -51.43,44.12 -11.204,-6.733 -22.397,-13.462 -33.597,-20.2 l 0,20.291 85.02,40.755 0,-84.966" id="path885" fill="#ffffff" fill-rule="evenodd"/>
</svg>
