<?xml version="1.0" encoding="UTF-8" standalone="no"?>
<svg xmlns="http://www.w3.org/2000/svg" viewBox="0 0 512 512" height="512" width="512" version="1.1">
 <metadata id="metadata463"/>
 <defs id="defs4">
  <linearGradient gradientUnits="userSpaceOnUse" id="0-7" y2="453.24" x2="0" y1="121.74" gradientTransform="translate(0.0012,-0.0025)">
   <stop id="stop7-0" stop-color="#6a6a6a"/>
   <stop offset="0.47" id="stop9-2"/>
   <stop offset="0.494" id="stop11-3" stop-color="#ffffff"/>
   <stop offset="0.901" id="stop13-7" stop-color="#ffffff"/>
   <stop offset="0.955" id="stop15-7"/>
   <stop offset="1" id="stop17-0"/>
  </linearGradient>
 </defs>
 <path d="m 108.6312,57.3675 c -7.963,0 -15.228,2.293 -20.693,6.22 -4.545,3.266 -7.751,7.872 -8.752,13.13 l -11.909,0 c -16.447,0 -29.883,13.03 -29.883,29.2 l 0,66.736 c 0,16.17 13.436,29.19 29.883,29.19 l 377.47,0 c 16.447,0 29.883,-13.03 29.883,-29.19 l 0,-66.736 c 0,-16.17 -13.436,-29.2 -29.883,-29.2 l -262.91,0 c -1,-5.256 -4.208,-9.862 -8.753,-13.13 -5.465,-3.927 -12.73,-6.22 -20.693,-6.22 l -43.761,0" id="path115" fill="#cccccc" fill-rule="evenodd"/>
 <path d="m 37.3612,118.4575 c -19.928,0 -38.06,15.818 -36.23,35.853 l 24.26,265.41 c 1.733,18.966 16.271,34.947 36.2,34.947 l 383.41,0 c 19.933,0 34.1,-16.05 36.2,-34.853 l 29.632,-265.41 c 1.123,-10.05 -3.137,-19.263 -9.971,-25.663 -6.833,-6.399 -16.258,-10.284 -26.22,-10.284 l -437.27,0" id="path117" fill="#BF9E73" fill-rule="evenodd"/>
 <path id="path119" d="m 37.3612,118.4475 c -19.928,0 -38.08,15.84 -36.25,35.875 l 11.781,128.78 12.469,136.63 c 1.733,18.966 16.29,34.938 36.22,34.938 l 383.41,0 c 19.933,0 34.09,-16.04 36.19,-34.844 l 15.281,-136.72 14.375,-128.69 c 1.123,-10.05 -3.135,-19.287 -9.969,-25.688 -6.833,-6.399 -16.257,-10.281 -26.22,-10.281 l -437.28,0" opacity="0.05" fill="url(#0-7)"/>
 <path d="m 108.5512,57.2875 c -7.963,0 -15.11,2.403 -20.572,6.33 -4.545,3.266 -7.702,7.931 -8.703,13.187 l -12.13,0 c -17.677,0 -29.802,12.771 -29.802,30.661 l 0,3.956 c 0,-16.17 13.355,-29.27 29.802,-29.27 l 14.286,0 c 1,-5.256 2,-9.657 6.549,-12.923 5.465,-3.927 12.609,-6.33 20.572,-6.33 l 43.78,0 c 7.963,0 15.371,2.403 20.835,6.33 4.545,3.266 5.766,7.668 6.769,12.923 l 264.88,0 c 16.447,0 29.802,11.455 29.802,27.625 l 0,-3.956 c 0,-16.17 -13.355,-29.01 -29.802,-29.01 l -262.95,0 c -1,-5.256 -4.159,-9.921 -8.703,-13.187 -5.465,-3.927 -12.872,-6.33 -20.835,-6.33 z" id="path125" opacity="0.764" fill="#ffffff" fill-rule="evenodd"/>
 <path d="m 37.3512,118.4475 c -19.928,0 -38.05,15.84 -36.22,35.875 l 0.406,4.375 c 3,-15.936 18.732,-27.563 35.813,-27.563 l 437.28,0 c 9.966,0 19.386,3.882 26.22,10.281 4.736,4.435 8.234,10.208 9.563,16.688 l 0.406,-3.688 c 1.123,-10.05 -3.134,-19.288 -9.969,-25.688 -6.833,-6.399 -16.252,-10.281 -26.22,-10.281 l -437.28,0" id="path127" opacity="0.4" fill="#ffffff" fill-rule="evenodd"/>
 <path id="path457" d="m 187.6312,161.5575 c -46.31,0 -83.969,37.688 -83.969,84 0,20.391 3.297,50.797 31.906,79.41 0.153,0.153 0.343,0.313 0.5,0.469 0.172,0.174 0.326,0.358 0.5,0.531 0.12,0.117 0.253,0.226 0.375,0.344 0.118,0.122 0.225,0.253 0.344,0.375 0.094,0.095 0.187,0.187 0.281,0.281 0.02,0.02 0.043,0.043 0.063,0.063 0.306,0.313 0.594,0.625 0.906,0.938 0.188,0.188 0.4,0.403 0.594,0.594 0.136,0.138 0.269,0.269 0.406,0.406 0.156,0.153 0.309,0.314 0.469,0.469 0.178,0.18 0.351,0.351 0.531,0.531 0.114,0.115 0.258,0.228 0.375,0.344 0.213,0.216 0.409,0.441 0.625,0.656 0.283,0.284 0.609,0.584 0.906,0.875 0.031,0.032 0.062,0.062 0.094,0.094 0.12,0.118 0.252,0.225 0.375,0.344 0.118,0.122 0.225,0.253 0.344,0.375 0.094,0.095 0.187,0.187 0.281,0.281 0.02,0.02 0.043,0.043 0.063,0.063 0.306,0.313 0.594,0.625 0.906,0.938 0.188,0.188 0.4,0.403 0.594,0.594 0.136,0.138 0.269,0.269 0.406,0.406 0.156,0.153 0.309,0.314 0.469,0.469 0.178,0.18 0.351,0.351 0.531,0.531 0.114,0.115 0.258,0.228 0.375,0.344 0.213,0.216 0.409,0.441 0.625,0.656 0.283,0.284 0.609,0.584 0.906,0.875 0.031,0.032 0.062,0.062 0.094,0.094 0.12,0.118 0.252,0.225 0.375,0.344 0.118,0.122 0.225,0.253 0.344,0.375 0.094,0.095 0.187,0.187 0.281,0.281 0.02,0.02 0.043,0.043 0.063,0.063 0.306,0.313 0.594,0.625 0.906,0.938 0.188,0.188 0.4,0.403 0.594,0.594 0.136,0.138 0.269,0.269 0.406,0.406 0.156,0.153 0.309,0.314 0.469,0.469 0.178,0.18 0.351,0.351 0.531,0.531 0.149,0.149 0.316,0.317 0.469,0.469 0.178,0.18 0.351,0.351 0.531,0.531 0.283,0.284 0.609,0.584 0.906,0.875 0.031,0.032 0.062,0.062 0.094,0.094 0.12,0.118 0.252,0.225 0.375,0.344 0.213,0.216 0.409,0.441 0.625,0.656 0.114,0.114 0.259,0.229 0.375,0.344 0.118,0.122 0.225,0.253 0.344,0.375 0.094,0.095 0.187,0.187 0.281,0.281 0.02,0.02 0.043,0.043 0.063,0.063 0.306,0.313 0.594,0.625 0.906,0.938 0.188,0.188 0.4,0.403 0.594,0.594 0.136,0.138 0.269,0.269 0.406,0.406 0.156,0.153 0.309,0.314 0.469,0.469 0.178,0.18 0.351,0.351 0.531,0.531 0.114,0.115 0.258,0.228 0.375,0.344 0.213,0.216 0.409,0.441 0.625,0.656 0.283,0.284 0.609,0.584 0.906,0.875 0.031,0.032 0.062,0.062 0.094,0.094 0.12,0.118 0.252,0.225 0.375,0.344 0.118,0.122 0.225,0.253 0.344,0.375 0.094,0.095 0.187,0.187 0.281,0.281 0.02,0.02 0.043,0.043 0.063,0.063 0.306,0.313 0.594,0.625 0.906,0.938 0.188,0.188 0.4,0.403 0.594,0.594 0.136,0.138 0.269,0.269 0.406,0.406 0.156,0.153 0.309,0.314 0.469,0.469 0.178,0.18 0.351,0.351 0.531,0.531 0.114,0.115 0.258,0.228 0.375,0.344 0.213,0.216 0.409,0.441 0.625,0.656 0.283,0.284 0.609,0.584 0.906,0.875 0.031,0.032 0.062,0.062 0.094,0.094 0.12,0.118 0.252,0.225 0.375,0.344 0.118,0.122 0.225,0.253 0.344,0.375 0.094,0.095 0.187,0.187 0.281,0.281 0.02,0.02 0.043,0.043 0.063,0.063 0.306,0.313 0.594,0.625 0.906,0.938 0.188,0.188 0.4,0.403 0.594,0.594 0.136,0.138 0.269,0.269 0.406,0.406 0.156,0.153 0.309,0.314 0.469,0.469 0.178,0.18 0.351,0.351 0.531,0.531 0.114,0.115 0.258,0.228 0.375,0.344 0.213,0.216 0.409,0.441 0.625,0.656 0.283,0.284 0.609,0.584 0.906,0.875 0.031,0.032 0.062,0.062 0.094,0.094 0.12,0.118 0.252,0.225 0.375,0.344 0.118,0.122 0.225,0.253 0.344,0.375 0.094,0.095 0.187,0.187 0.281,0.281 0.02,0.02 0.043,0.043 0.063,0.063 0.306,0.313 0.594,0.625 0.906,0.938 0.188,0.188 0.4,0.403 0.594,0.594 0.136,0.138 0.269,0.269 0.406,0.406 0.156,0.153 0.309,0.314 0.469,0.469 0.178,0.18 0.351,0.351 0.531,0.531 0.149,0.149 0.316,0.317 0.469,0.469 0.178,0.18 0.351,0.351 0.531,0.531 0.273,0.274 0.589,0.563 0.875,0.844 0.042,0.042 0.083,0.083 0.125,0.125 0.12,0.118 0.252,0.225 0.375,0.344 0.213,0.216 0.409,0.441 0.625,0.656 0.114,0.114 0.259,0.229 0.375,0.344 0.118,0.122 0.225,0.253 0.344,0.375 0.094,0.095 0.187,0.187 0.281,0.281 0.02,0.02 0.043,0.043 0.063,0.063 0.306,0.313 0.594,0.625 0.906,0.938 0.188,0.188 0.4,0.403 0.594,0.594 0.136,0.138 0.269,0.269 0.406,0.406 0.156,0.153 0.309,0.314 0.469,0.469 0.178,0.18 0.351,0.351 0.531,0.531 0.114,0.115 0.258,0.228 0.375,0.344 0.213,0.216 0.409,0.441 0.625,0.656 0.283,0.284 0.609,0.584 0.906,0.875 0.031,0.032 0.062,0.062 0.094,0.094 0.12,0.118 0.252,0.225 0.375,0.344 0.118,0.122 0.225,0.253 0.344,0.375 0.094,0.095 0.187,0.187 0.281,0.281 0.02,0.02 0.043,0.043 0.063,0.063 0.306,0.313 0.594,0.625 0.906,0.938 0.188,0.188 0.4,0.403 0.594,0.594 0.136,0.138 0.269,0.269 0.406,0.406 0.156,0.153 0.309,0.314 0.469,0.469 0.178,0.18 0.351,0.351 0.531,0.531 0.114,0.115 0.258,0.228 0.375,0.344 0.213,0.216 0.409,0.441 0.625,0.656 0.283,0.284 0.609,0.584 0.906,0.875 0.031,0.032 0.062,0.062 0.094,0.094 0.12,0.118 0.252,0.225 0.375,0.344 0.118,0.122 0.225,0.253 0.344,0.375 0.094,0.095 0.187,0.187 0.281,0.281 0.02,0.02 0.043,0.043 0.063,0.063 0.306,0.313 0.594,0.625 0.906,0.938 0.188,0.188 0.4,0.403 0.594,0.594 0.136,0.138 0.269,0.269 0.406,0.406 0.156,0.153 0.309,0.314 0.469,0.469 0.178,0.18 0.351,0.351 0.531,0.531 0.149,0.149 0.316,0.317 0.469,0.469 0.178,0.18 0.351,0.351 0.531,0.531 0.283,0.284 0.609,0.584 0.906,0.875 0.031,0.032 0.062,0.062 0.094,0.094 0.12,0.118 0.252,0.225 0.375,0.344 0.213,0.216 0.409,0.441 0.625,0.656 0.114,0.114 0.259,0.229 0.375,0.344 0.118,0.122 0.225,0.253 0.344,0.375 0.094,0.095 0.187,0.187 0.281,0.281 0.02,0.02 0.043,0.043 0.063,0.063 0.306,0.313 0.594,0.625 0.906,0.938 0.188,0.188 0.4,0.403 0.594,0.594 0.136,0.138 0.269,0.269 0.406,0.406 0.156,0.153 0.309,0.314 0.469,0.469 0.178,0.18 0.351,0.351 0.531,0.531 0.114,0.115 0.258,0.228 0.375,0.344 0.213,0.216 0.409,0.441 0.625,0.656 0.283,0.284 0.609,0.584 0.906,0.875 0.031,0.032 0.062,0.062 0.094,0.094 0.12,0.118 0.252,0.225 0.375,0.344 0.118,0.122 0.225,0.253 0.344,0.375 0.094,0.095 0.187,0.187 0.281,0.281 0.02,0.02 0.043,0.043 0.063,0.063 0.306,0.313 0.594,0.625 0.906,0.938 0.188,0.188 0.4,0.403 0.594,0.594 0.136,0.138 0.269,0.269 0.406,0.406 0.156,0.153 0.309,0.314 0.469,0.469 0.178,0.18 0.351,0.351 0.531,0.531 0.114,0.115 0.258,0.228 0.375,0.344 0.213,0.216 0.409,0.441 0.625,0.656 0.283,0.284 0.609,0.584 0.906,0.875 0.031,0.032 0.062,0.062 0.094,0.094 0.12,0.118 0.252,0.225 0.375,0.344 0.118,0.122 0.225,0.253 0.344,0.375 0.094,0.095 0.187,0.187 0.281,0.281 0.02,0.02 0.043,0.043 0.063,0.063 0.306,0.313 0.594,0.625 0.906,0.938 0.188,0.188 0.4,0.403 0.594,0.594 0.136,0.138 0.269,0.269 0.406,0.406 0.156,0.153 0.309,0.314 0.469,0.469 0.178,0.18 0.351,0.351 0.531,0.531 0.114,0.115 0.258,0.228 0.375,0.344 0.213,0.216 0.409,0.441 0.625,0.656 0.283,0.284 0.609,0.584 0.906,0.875 0.031,0.032 0.062,0.062 0.094,0.094 0.12,0.118 0.252,0.225 0.375,0.344 0.118,0.122 0.225,0.253 0.344,0.375 0.094,0.095 0.187,0.187 0.281,0.281 0.02,0.02 0.043,0.043 0.063,0.063 0.306,0.313 0.594,0.625 0.906,0.938 0.188,0.188 0.4,0.403 0.594,0.594 0.136,0.138 0.269,0.269 0.406,0.406 0.156,0.153 0.309,0.314 0.469,0.469 0.178,0.18 0.351,0.351 0.531,0.531 0.149,0.149 0.316,0.317 0.469,0.469 0.178,0.18 0.351,0.351 0.531,0.531 0.273,0.274 0.589,0.563 0.875,0.844 0.042,0.042 0.083,0.083 0.125,0.125 0.12,0.118 0.252,0.225 0.375,0.344 0.213,0.216 0.409,0.441 0.625,0.656 0.114,0.114 0.259,0.229 0.375,0.344 0.118,0.122 0.225,0.253 0.344,0.375 0.094,0.095 0.187,0.187 0.281,0.281 0.02,0.02 0.043,0.043 0.063,0.063 0.306,0.313 0.594,0.625 0.906,0.938 0.188,0.188 0.4,0.403 0.594,0.594 0.136,0.138 0.269,0.269 0.406,0.406 0.156,0.153 0.309,0.314 0.469,0.469 0.178,0.18 0.351,0.351 0.531,0.531 0.114,0.115 0.258,0.228 0.375,0.344 0.213,0.216 0.409,0.441 0.625,0.656 0.283,0.284 0.609,0.584 0.906,0.875 0.031,0.032 0.062,0.062 0.094,0.094 0.12,0.118 0.252,0.225 0.375,0.344 0.118,0.122 0.225,0.253 0.344,0.375 0.094,0.095 0.187,0.187 0.281,0.281 0.02,0.02 0.043,0.043 0.063,0.063 0.306,0.313 0.594,0.625 0.906,0.938 0.188,0.188 0.4,0.403 0.594,0.594 0.136,0.138 0.269,0.269 0.406,0.406 0.156,0.153 0.309,0.314 0.469,0.469 0.178,0.18 0.351,0.351 0.531,0.531 0.114,0.115 0.258,0.228 0.375,0.344 0.213,0.216 0.409,0.441 0.625,0.656 0.283,0.284 0.609,0.584 0.906,0.875 0.031,0.032 0.062,0.062 0.094,0.094 0.12,0.118 0.252,0.225 0.375,0.344 0.118,0.122 0.225,0.253 0.344,0.375 0.094,0.095 0.187,0.187 0.281,0.281 0.02,0.02 0.043,0.043 0.063,0.063 0.306,0.313 0.594,0.625 0.906,0.938 0.188,0.188 0.4,0.403 0.594,0.594 0.136,0.138 0.269,0.269 0.406,0.406 0.156,0.153 0.309,0.314 0.469,0.469 0.178,0.18 0.351,0.351 0.531,0.531 0.149,0.149 0.316,0.317 0.469,0.469 0.178,0.18 0.351,0.351 0.531,0.531 0.283,0.284 0.609,0.584 0.906,0.875 0.031,0.032 0.062,0.062 0.094,0.094 0.12,0.118 0.252,0.225 0.375,0.344 0.213,0.216 0.409,0.441 0.625,0.656 0.114,0.114 0.259,0.229 0.375,0.344 0.118,0.122 0.225,0.253 0.344,0.375 0.094,0.095 0.187,0.187 0.281,0.281 0.02,0.02 0.043,0.043 0.063,0.063 0.306,0.313 0.594,0.625 0.906,0.938 0.148,0.148 0.317,0.318 0.469,0.469 0.178,0.18 0.351,0.351 0.531,0.531 0.148,0.148 0.317,0.318 0.469,0.469 0.178,0.18 0.351,0.351 0.531,0.531 0.114,0.115 0.258,0.228 0.375,0.344 0.213,0.216 0.409,0.441 0.625,0.656 0.283,0.284 0.609,0.584 0.906,0.875 0.031,0.032 0.062,0.062 0.094,0.094 0.12,0.118 0.252,0.225 0.375,0.344 0.118,0.122 0.225,0.253 0.344,0.375 0.094,0.095 0.187,0.187 0.281,0.281 0.02,0.02 0.043,0.043 0.063,0.063 0.306,0.313 0.594,0.625 0.906,0.938 0.188,0.188 0.4,0.403 0.594,0.594 0.136,0.138 0.269,0.269 0.406,0.406 0.156,0.153 0.309,0.314 0.469,0.469 0.178,0.18 0.351,0.351 0.531,0.531 0.114,0.115 0.258,0.228 0.375,0.344 0.213,0.216 0.409,0.441 0.625,0.656 0.283,0.284 0.609,0.584 0.906,0.875 0.031,0.032 0.062,0.062 0.094,0.094 0.12,0.118 0.252,0.225 0.375,0.344 0.118,0.122 0.225,0.253 0.344,0.375 0.094,0.095 0.187,0.187 0.281,0.281 0.02,0.02 0.043,0.043 0.063,0.063 0.306,0.313 0.594,0.625 0.906,0.938 0.188,0.188 0.4,0.403 0.594,0.594 0.136,0.138 0.269,0.269 0.406,0.406 0.156,0.153 0.309,0.314 0.469,0.469 0.178,0.18 0.351,0.351 0.531,0.531 0.114,0.115 0.258,0.228 0.375,0.344 0.213,0.216 0.409,0.441 0.625,0.656 0.283,0.284 0.609,0.584 0.906,0.875 0.031,0.032 0.062,0.062 0.094,0.094 0.12,0.118 0.252,0.225 0.375,0.344 0.118,0.122 0.225,0.253 0.344,0.375 0.094,0.095 0.187,0.187 0.281,0.281 0.02,0.02 0.043,0.043 0.063,0.063 0.306,0.313 0.594,0.625 0.906,0.938 0.188,0.188 0.4,0.403 0.594,0.594 0.136,0.138 0.269,0.269 0.406,0.406 0.156,0.153 0.309,0.314 0.469,0.469 0.178,0.18 0.351,0.351 0.531,0.531 0.109,0.109 0.228,0.228 0.344,0.344 l 179.75,0 c 19.933,0 34.09,-16.04 36.19,-34.844 l 13.656,-122.47 c -0.052,-0.052 -0.104,-0.105 -0.156,-0.156 -0.362,-0.369 -0.725,-0.731 -1.094,-1.094 -0.331,-0.336 -0.663,-0.67 -1,-1 -0.476,-0.483 -0.95,-0.966 -1.438,-1.438 -0.052,-0.052 -0.104,-0.104 -0.156,-0.156 -0.422,-0.433 -0.851,-0.857 -1.281,-1.281 -0.33,-0.337 -0.664,-0.669 -1,-1 -0.346,-0.352 -0.679,-0.716 -1.031,-1.063 -0.346,-0.352 -0.71,-0.685 -1.063,-1.031 -0.476,-0.483 -0.95,-0.966 -1.438,-1.438 -0.052,-0.052 -0.104,-0.104 -0.156,-0.156 -0.422,-0.433 -0.851,-0.857 -1.281,-1.281 -0.33,-0.337 -0.664,-0.669 -1,-1 -0.346,-0.352 -0.679,-0.716 -1.031,-1.063 -0.346,-0.352 -0.71,-0.685 -1.063,-1.031 -0.352,-0.357 -0.704,-0.712 -1.063,-1.063 -0.456,-0.462 -0.909,-0.924 -1.375,-1.375 -0.042,-0.042 -0.083,-0.083 -0.125,-0.125 -0.432,-0.444 -0.871,-0.878 -1.313,-1.313 -0.346,-0.352 -0.679,-0.716 -1.031,-1.063 -0.346,-0.352 -0.71,-0.685 -1.063,-1.031 -0.352,-0.357 -0.704,-0.712 -1.063,-1.063 -0.456,-0.462 -0.909,-0.924 -1.375,-1.375 -0.042,-0.042 -0.083,-0.083 -0.125,-0.125 -0.432,-0.444 -0.871,-0.878 -1.313,-1.313 -0.33,-0.337 -0.664,-0.669 -1,-1 -0.362,-0.369 -0.725,-0.731 -1.094,-1.094 -0.331,-0.336 -0.663,-0.67 -1,-1 -0.476,-0.483 -0.95,-0.966 -1.438,-1.438 -0.052,-0.052 -0.104,-0.104 -0.156,-0.156 -0.422,-0.433 -0.851,-0.857 -1.281,-1.281 -0.33,-0.337 -0.664,-0.669 -1,-1 -0.346,-0.352 -0.679,-0.716 -1.031,-1.063 -0.346,-0.352 -0.71,-0.685 -1.063,-1.031 -0.352,-0.357 -0.704,-0.712 -1.063,-1.063 -0.29,-0.294 -0.581,-0.585 -0.875,-0.875 -0.31,-0.315 -0.623,-0.627 -0.938,-0.938 -0.33,-0.337 -0.664,-0.669 -1,-1 -0.346,-0.352 -0.679,-0.716 -1.031,-1.063 -0.346,-0.352 -0.71,-0.685 -1.063,-1.031 -0.352,-0.357 -0.704,-0.712 -1.063,-1.063 -0.456,-0.462 -0.909,-0.924 -1.375,-1.375 -0.042,-0.042 -0.083,-0.083 -0.125,-0.125 -0.432,-0.444 -0.871,-0.878 -1.313,-1.313 -0.33,-0.337 -0.664,-0.669 -1,-1 -0.362,-0.369 -0.725,-0.731 -1.094,-1.094 -0.331,-0.336 -0.663,-0.67 -1,-1 -0.476,-0.483 -0.95,-0.966 -1.438,-1.438 -0.052,-0.052 -0.104,-0.104 -0.156,-0.156 -0.422,-0.433 -0.851,-0.857 -1.281,-1.281 -0.33,-0.337 -0.664,-0.669 -1,-1 -0.346,-0.352 -0.679,-0.716 -1.031,-1.063 -0.346,-0.352 -0.71,-0.685 -1.063,-1.031 -0.476,-0.483 -0.95,-0.966 -1.438,-1.438 -0.052,-0.052 -0.104,-0.104 -0.156,-0.156 -0.422,-0.433 -0.851,-0.857 -1.281,-1.281 -0.33,-0.337 -0.664,-0.669 -1,-1 -0.346,-0.352 -0.679,-0.716 -1.031,-1.063 -0.346,-0.352 -0.71,-0.685 -1.063,-1.031 -0.352,-0.357 -0.704,-0.712 -1.063,-1.063 -0.456,-0.462 -0.909,-0.924 -1.375,-1.375 -0.042,-0.042 -0.083,-0.083 -0.125,-0.125 -0.432,-0.444 -0.871,-0.878 -1.313,-1.313 -0.346,-0.352 -0.679,-0.716 -1.031,-1.063 -0.346,-0.352 -0.71,-0.685 -1.063,-1.031 -0.352,-0.357 -0.704,-0.712 -1.063,-1.063 -0.456,-0.462 -0.909,-0.924 -1.375,-1.375 -0.042,-0.042 -0.083,-0.083 -0.125,-0.125 -0.432,-0.444 -0.871,-0.878 -1.313,-1.313 -0.33,-0.337 -0.664,-0.669 -1,-1 -0.362,-0.369 -0.725,-0.731 -1.094,-1.094 -0.331,-0.336 -0.663,-0.67 -1,-1 -0.476,-0.483 -0.95,-0.966 -1.438,-1.438 -0.052,-0.052 -0.104,-0.104 -0.156,-0.156 -0.422,-0.433 -0.851,-0.857 -1.281,-1.281 -0.33,-0.337 -0.664,-0.669 -1,-1 -0.346,-0.352 -0.679,-0.716 -1.031,-1.063 -0.346,-0.352 -0.71,-0.685 -1.063,-1.031 -0.352,-0.357 -0.704,-0.712 -1.063,-1.063 -0.29,-0.294 -0.581,-0.585 -0.875,-0.875 -0.31,-0.315 -0.623,-0.627 -0.938,-0.938 -0.33,-0.337 -0.664,-0.669 -1,-1 -0.346,-0.352 -0.679,-0.716 -1.031,-1.063 -0.346,-0.352 -0.71,-0.685 -1.063,-1.031 -0.352,-0.357 -0.704,-0.712 -1.063,-1.063 -0.456,-0.462 -0.909,-0.924 -1.375,-1.375 -0.042,-0.042 -0.083,-0.083 -0.125,-0.125 -0.432,-0.444 -0.871,-0.878 -1.313,-1.313 -0.33,-0.337 -0.664,-0.669 -1,-1 -0.362,-0.369 -0.725,-0.731 -1.094,-1.094 -0.331,-0.336 -0.663,-0.67 -1,-1 -0.476,-0.483 -0.95,-0.966 -1.438,-1.438 -0.052,-0.052 -0.104,-0.104 -0.156,-0.156 -0.422,-0.433 -0.851,-0.857 -1.281,-1.281 -0.33,-0.337 -0.664,-0.669 -1,-1 -0.346,-0.352 -0.679,-0.716 -1.031,-1.063 -0.346,-0.352 -0.71,-0.685 -1.063,-1.031 -0.476,-0.483 -0.95,-0.966 -1.438,-1.438 -0.052,-0.052 -0.104,-0.104 -0.156,-0.156 -0.422,-0.433 -0.851,-0.857 -1.281,-1.281 -0.33,-0.337 -0.664,-0.669 -1,-1 -0.346,-0.352 -0.679,-0.716 -1.031,-1.063 -0.346,-0.352 -0.71,-0.685 -1.063,-1.031 -0.352,-0.357 -0.704,-0.712 -1.063,-1.063 -0.456,-0.462 -0.909,-0.924 -1.375,-1.375 -0.042,-0.042 -0.083,-0.083 -0.125,-0.125 -0.432,-0.444 -0.871,-0.878 -1.313,-1.313 -0.346,-0.352 -0.679,-0.716 -1.031,-1.063 -0.346,-0.352 -0.71,-0.685 -1.063,-1.031 -0.352,-0.357 -0.704,-0.712 -1.063,-1.063 -0.456,-0.462 -0.909,-0.924 -1.375,-1.375 -0.042,-0.042 -0.083,-0.083 -0.125,-0.125 -15.274,-15.72 -36.625,-25.531 -60.22,-25.531 -27.749,0 -52.34,13.537 -67.66,34.34 -0.103,-0.105 -0.209,-0.208 -0.313,-0.313 -0.037,-0.036 -0.088,-0.058 -0.125,-0.094 -0.031,-0.031 -0.063,-0.063 -0.094,-0.094 -0.016,-0.015 -0.016,-0.047 -0.031,-0.063 -0.24,-0.25 -0.507,-0.472 -0.75,-0.719 -0.084,-0.083 -0.166,-0.168 -0.25,-0.25 -0.245,-0.255 -0.502,-0.498 -0.75,-0.75 -0.085,-0.083 -0.165,-0.167 -0.25,-0.25 -0.24,-0.249 -0.476,-0.504 -0.719,-0.75 -0.089,-0.088 -0.191,-0.163 -0.281,-0.25 -0.24,-0.249 -0.476,-0.504 -0.719,-0.75 -0.089,-0.088 -0.191,-0.163 -0.281,-0.25 -0.24,-0.249 -0.476,-0.504 -0.719,-0.75 -0.089,-0.088 -0.191,-0.163 -0.281,-0.25 -0.24,-0.25 -0.476,-0.503 -0.719,-0.75 -0.021,-0.021 -0.041,-0.042 -0.063,-0.063 -0.062,-0.063 -0.125,-0.125 -0.188,-0.188 -0.245,-0.255 -0.502,-0.498 -0.75,-0.75 -0.079,-0.077 -0.171,-0.142 -0.25,-0.219 -0.112,-0.117 -0.231,-0.228 -0.344,-0.344 -0.138,-0.133 -0.268,-0.274 -0.406,-0.406 -0.084,-0.083 -0.166,-0.168 -0.25,-0.25 -0.24,-0.25 -0.476,-0.503 -0.719,-0.75 -0.084,-0.082 -0.166,-0.168 -0.25,-0.25 -15.232,-15.326 -36.31,-24.844 -59.56,-24.844" fill-opacity="0.235"/>
 <path id="path459" d="m 187.6212,161.5775 c -46.31,0 -83.969,37.688 -83.969,84 0,20.391 3.297,50.797 31.906,79.41 25.594,25.641 108.14,81.55 111.66,83.91 2.656,1.797 5.734,2.688 8.781,2.688 3.047,0 6.094,-0.891 8.75,-2.688 3.484,-2.359 86.02,-58.27 111.66,-83.91 28.609,-28.609 31.938,-59.02 31.938,-79.41 0,-46.31 -37.688,-84 -84,-84 -28.16,0 -53.08,13.922 -68.34,35.25 -15.266,-21.328 -40.22,-35.25 -68.37,-35.25" fill="#ffffff"/>
</svg>
