<?xml version="1.0" encoding="UTF-8" standalone="no"?>
<svg xmlns="http://www.w3.org/2000/svg" viewBox="0 0 512 512" height="512" width="512" version="1.1">
 <metadata id="metadata465"/>
 <defs id="defs4">
  <linearGradient gradientUnits="userSpaceOnUse" id="0-5" y2="453.24" x2="0" y1="121.74" gradientTransform="translate(0.0012,5e-4)">
   <stop id="stop7-6" stop-color="#6a6a6a"/>
   <stop offset="0.47" id="stop9-7"/>
   <stop offset="0.494" id="stop11-5" stop-color="#ffffff"/>
   <stop offset="0.901" id="stop13-7" stop-color="#ffffff"/>
   <stop offset="0.955" id="stop15-6"/>
   <stop offset="1" id="stop17-4"/>
  </linearGradient>
 </defs>
 <path d="m 108.6312,57.3705 c -7.963,0 -15.228,2.293 -20.693,6.22 -4.545,3.266 -7.751,7.872 -8.752,13.13 l -11.909,0 c -16.447,0 -29.883,13.03 -29.883,29.2 l 0,66.736 c 0,16.17 13.436,29.19 29.883,29.19 l 377.47,0 c 16.447,0 29.883,-13.03 29.883,-29.19 l 0,-66.736 c 0,-16.17 -13.436,-29.2 -29.883,-29.2 l -262.91,0 c -1,-5.256 -4.208,-9.862 -8.753,-13.13 -5.465,-3.927 -12.73,-6.22 -20.693,-6.22 l -43.761,0" id="path115" fill="#cccccc" fill-rule="evenodd"/>
 <path d="m 37.3612,118.4605 c -19.928,0 -38.06,15.818 -36.23,35.853 l 24.26,265.41 c 1.733,18.966 16.271,34.947 36.2,34.947 l 383.41,0 c 19.933,0 34.1,-16.05 36.2,-34.853 l 29.632,-265.41 c 1.123,-10.05 -3.137,-19.263 -9.971,-25.663 -6.833,-6.399 -16.258,-10.284 -26.22,-10.284 l -437.27,0" id="path117" fill="#BF9E73" fill-rule="evenodd"/>
 <path id="path119" d="m 37.3612,118.4505 c -19.928,0 -38.08,15.84 -36.25,35.875 l 11.781,128.78 12.469,136.63 c 1.733,18.966 16.29,34.938 36.22,34.938 l 383.41,0 c 19.933,0 34.09,-16.04 36.19,-34.844 l 15.281,-136.72 14.375,-128.69 c 1.123,-10.05 -3.135,-19.287 -9.969,-25.688 -6.833,-6.399 -16.257,-10.281 -26.22,-10.281 l -437.28,0" opacity="0.05" fill="url(#0-5)"/>
 <path d="m 108.5512,57.2905 c -7.963,0 -15.11,2.403 -20.572,6.33 -4.545,3.266 -7.702,7.931 -8.703,13.187 l -12.13,0 c -17.677,0 -29.802,12.771 -29.802,30.661 l 0,3.956 c 0,-16.17 13.355,-29.27 29.802,-29.27 l 14.286,0 c 1,-5.256 2,-9.657 6.549,-12.923 5.465,-3.927 12.609,-6.33 20.572,-6.33 l 43.78,0 c 7.963,0 15.371,2.403 20.835,6.33 4.545,3.266 5.766,7.668 6.769,12.923 l 264.88,0 c 16.447,0 29.802,11.455 29.802,27.625 l 0,-3.956 c 0,-16.17 -13.355,-29.01 -29.802,-29.01 l -262.95,0 c -1,-5.256 -4.159,-9.921 -8.703,-13.187 -5.465,-3.927 -12.872,-6.33 -20.835,-6.33 z" id="path125" opacity="0.764" fill="#ffffff" fill-rule="evenodd"/>
 <path d="m 37.3512,118.4505 c -19.928,0 -38.05,15.84 -36.22,35.875 l 0.406,4.375 c 3,-15.936 18.732,-27.563 35.813,-27.563 l 437.28,0 c 9.966,0 19.386,3.882 26.22,10.281 4.736,4.435 8.234,10.208 9.563,16.688 l 0.406,-3.688 c 1.123,-10.05 -3.134,-19.288 -9.969,-25.688 -6.833,-6.399 -16.252,-10.281 -26.22,-10.281 l -437.28,0" id="path127" opacity="0.4" fill="#ffffff" fill-rule="evenodd"/>
 <path d="m 193.5012,161.5605 -9.781,38.594 c -12.971,8.337 -21.469,22.966 -21.469,39.531 0,8.168 2.171,15.782 5.844,22.469 l -37.09,149.41 1.25,0 c -0.003,0.013 -0.25,1 -0.25,1 l 1.25,0 c -0.003,0.013 -0.25,1 -0.25,1 l 1.25,0 c -0.003,0.013 -0.25,1 -0.25,1 l 1.219,0 c -0.003,0.013 -0.25,0.969 -0.25,0.969 l 1.25,0 -0.25,1 1.25,0 c -0.003,0.013 -0.25,1 -0.25,1 l 1.25,0 c -0.003,0.013 -0.25,1 -0.25,1 l 1.25,0 c -0.003,0.013 -0.25,1 -0.25,1 l 1.25,0 c -0.003,0.013 -0.25,1 -0.25,1 l 1.219,0 -0.25,0.969 1.25,0 c -0.003,0.013 -0.25,1 -0.25,1 l 1.25,0 -0.25,1 1.25,0 c -0.003,0.013 -0.25,1 -0.25,1 l 1.25,0 c -0.003,0.013 -0.25,1 -0.25,1 l 1.25,0 -0.25,1 1.219,0 c -0.003,0.013 -0.25,0.969 -0.25,0.969 l 1.25,0 -0.25,1 1.25,0 c -0.003,0.013 -0.25,1 -0.25,1 l 1.25,0 c -0.003,0.013 -0.25,1 -0.25,1 l 1.25,0 c -0.003,0.013 -0.25,1 -0.25,1 l 1.25,0 c -0.003,0.013 -0.25,1 -0.25,1 l 1.219,0 -0.25,0.969 1.25,0 c -0.003,0.013 -0.25,1 -0.25,1 l 1.25,0 c -0.003,0.013 -0.25,1 -0.25,1 l 1.25,0 c -0.003,0.013 -0.25,1 -0.25,1 l 1.25,0 c -0.003,0.013 -0.25,1 -0.25,1 l 1.25,0 -0.25,1 1.25,0 c -0.003,0.013 -0.25,1 -0.25,1 l 1.219,0 c -0.003,0.013 -0.25,0.969 -0.25,0.969 l 1.25,0 c -0.003,0.013 -0.25,1 -0.25,1 l 1.25,0 c -0.003,0.013 -0.25,1 -0.25,1 l 1.25,0 -0.25,1 1.25,0 c -0.003,0.013 -0.25,1 -0.25,1 l 1.25,0 c -0.003,0.013 -0.25,1 -0.25,1 l 1.219,0 c -0.003,0.013 -0.25,0.969 -0.25,0.969 l 1.25,0 c -0.003,0.013 -0.25,1 -0.25,1 l 1.25,0 -0.25,1 1.25,0 c -0.003,0.013 -0.25,1 -0.25,1 l 1.25,0 c -0.003,0.013 -0.25,1 -0.25,1 l 1.25,0 c -0.003,0.013 -0.25,1 -0.25,1 l 1.219,0 c -0.003,0.013 -0.25,0.969 -0.25,0.969 l 1.25,0 -0.25,1 1.25,0 c -0.003,0.013 -0.25,1 -0.25,1 l 1.25,0 c -10e-4,0.005 -0.055,0.188 -0.094,0.344 l 270.06,0 c 19.933,0 34.09,-16.04 36.19,-34.844 l 15.844,-141.87 -0.594,0 0,-0.969 -1,0 0,-1 -1,0 0,-1 -1,0 0,-1 -1,0 0,-1 -1,0 0,-1 -1,0 0,-1 -0.969,0 0,-0.969 -1,0 0,-1 -1,0 0,-1 -1,0 0,-1 -1,0 0,-1 -1,0 0,-1 -0.969,0 0,-0.969 -1,0 0,-1 -1,0 0,-1 -1,0 0,-1 -1,0 0,-1 -1,0 0,-1 -0.969,0 0,-0.969 -1,0 0,-1 -1,0 0,-1 -1,0 0,-1 -1,0 0,-1 -1,0 0,-1 -0.969,0 0,-0.969 -1,0 0,-1 -1,0 0,-1 -1,0 0,-1 -1,0 0,-1 -1,0 0,-1 -1,0 0,-1 -0.969,0 0,-0.969 -1,0 0,-1 -1,0 0,-1 -1,0 0,-1 -1,0 0,-1 -1,0 0,-1 -0.969,0 0,-0.969 -1,0 0,-1 -1,0 0,-1 -1,0 0,-1 -1,0 0,-1 -1,0 0,-1 -0.969,0 0,-0.969 -1,0 0,-1 -1,0 0,-1 -1,0 0,-1 -1,0 0,-1 -1,0 0,-1 -1,0 0,-1 -0.969,0 0,-0.969 -1,0 0,-1 -1,0 0,-1 -1,0 0,-1 -1,0 0,-1 -1,0 0,-1 -0.969,0 0,-0.969 -1,0 0,-1 -1,0 0,-1 -1,0 0,-1 -1,0 0,-1 -1,0 0,-1 -0.969,0 0,-0.969 -1,0 0,-1 -1,0 0,-1 -1,0 0,-1 -1,0 0,-1 -1,0 0,-1 -0.969,0 0,-0.969 -1,0 0,-1 -1,0 0,-1 -1,0 0,-1 -1,0 0,-1 -1,0 0,-1 -1,0 0,-1 -0.969,0 0,-0.969 -1,0 0,-1 -1,0 0,-1 -1,0 0,-1 -1,0 0,-1 -1,0 0,-1 -0.969,0 0,-0.969 -1,0 0,-1 -1,0 0,-1 -1,0 0,-1 -1,0 0,-1 -1,0 0,-1 -0.969,0 0,-0.969 -1,0 0,-1 -1,0 0,-1 -1,0 0,-1 -1,0 0,-1 -1,0 0,-1 -1,0 0,-1 -0.969,0 0,-0.969 -1,0 0,-1 -1,0 0,-1 -1,0 0,-1 -1,0 0,-1 -1,0 0,-1 -0.969,0 0,-0.969 -1,0 0,-1 -1,0 0,-1 -1,0 0,-1 -1,0 0,-1 -1,0 0,-1 -0.969,0 0,-0.969 -1,0 0,-1 -1,0 0,-1 -1,0 0,-1 -1,0 0,-1 -1,0 0,-1 -0.969,0 0,-0.969 -1,0 0,-1 -1,0 0,-1 -1,0 0,-1 -78.12,0 0,78.59 -0.25,0 -0.25,-0.969 -0.75,0 -0.25,-1 -0.75,0 -0.25,-1 -0.75,0 -0.25,-1 -0.75,0 -0.25,-1 -0.75,0 -0.25,-1 -0.719,0 -0.25,-0.969 -0.75,0 -0.25,-1 -0.75,0 -0.25,-1 -0.75,0 -0.25,-1 -0.75,0 -0.25,-1 -0.75,0 -0.25,-1 -0.75,0 -0.25,-1 -0.719,0 -0.25,-0.969 -0.75,0 -0.25,-1 -0.75,0 -0.25,-1 -0.75,0 -0.25,-1 -0.75,0 -0.25,-1 -0.75,0 -0.25,-1 -0.719,0 -0.25,-0.969 -0.75,0 -0.25,-1 -0.75,0 -0.25,-1 -0.75,0 -0.25,-1 -0.75,0 -0.25,-1 -0.75,0 -0.25,-1 -0.719,0 -0.25,-0.969 -0.75,0 -0.25,-1 -0.75,0 -0.25,-1 -0.75,0 -0.25,-1 -0.75,0 -0.25,-1 -0.75,0 -0.25,-1 -0.719,0 -0.25,-0.969 -0.75,0 -0.25,-1 -0.75,0 -0.25,-1 -0.75,0 -0.25,-1 -0.75,0 -0.25,-1 -0.75,0 -0.25,-1 -0.75,0 -0.25,-1 -0.719,0 -0.25,-0.969 -0.75,0 -0.25,-1 -0.75,0 -0.25,-1 -0.75,0 -0.25,-1 -0.75,0 -0.25,-1 -0.75,0 -0.25,-1 -0.719,0 -0.25,-0.969 -0.75,0 -0.25,-1 -0.75,0 -0.25,-1 -0.75,0 -0.25,-1 -0.75,0 -0.25,-1 -0.75,0 -0.25,-1 -0.719,0 -0.25,-0.969 -0.75,0 -0.25,-1 -0.75,0 -0.25,-1 -0.75,0 -0.25,-1 -0.75,0 -0.25,-1 -0.75,0 -0.25,-1 -0.75,0 -0.25,-1 -0.719,0 -0.25,-0.969 -0.75,0 -0.25,-1 -0.75,0 -0.25,-1 -0.75,0 -0.25,-1 -0.75,0 -0.25,-1 -0.75,0 -0.25,-1 -0.719,0 -0.25,-0.969 -0.75,0 -0.25,-1 -0.75,0 -0.25,-1 -0.75,0 -0.25,-1 -0.75,0 -0.25,-1 -0.75,0 -0.25,-1 -0.719,0 -0.25,-0.969 -0.75,0 -0.25,-1 -0.75,0 -0.25,-1 -0.75,0 -0.25,-1 -0.75,0 -0.25,-1 -0.75,0 -0.25,-1 -0.719,0 -0.25,-0.969 -0.75,0 -0.25,-1 -0.75,0 -0.25,-1 -0.75,0 -0.25,-1 -31.25,0" id="path459" fill-opacity="0.235" color="#000000"/>
 <path d="m 193.5012,161.5805 -9.766,38.574 c -12.971,8.337 -21.484,22.986 -21.484,39.551 0,8.168 2.186,15.774 5.859,22.461 l -37.11,149.41 15.625,0 62.5,-109.37 62.5,109.38 15.625,0 -37.11,-149.41 c 3.673,-6.687 5.859,-14.293 5.859,-22.461 0,-16.565 -8.513,-31.21 -21.484,-39.551 l -9.766,-38.574 -31.25,0 m 109.38,0 0,250 78.13,0 0,-15.625 -46.875,0 0,-15.625 46.875,0 0,-31.25 -31.25,0 0,-15.625 31.25,0 0,-31.25 -46.875,0 0,-15.625 46.875,0 0,-31.25 -31.25,0 0,-15.625 31.25,0 0,-31.25 -46.875,0 0,-15.625 46.875,0 0,-31.25 -78.12,0 m -109.37,62.5 31.25,0 0,31.25 -31.25,0 0,-31.25" id="path461" fill="#ffffff" color="#000000"/>
</svg>
