<?xml version="1.0" encoding="UTF-8" standalone="no"?>
<svg xmlns="http://www.w3.org/2000/svg" version="1.1" viewBox="0 0 512 512">
 <metadata id="metadata369"/>
 <defs id="defs4">
  <linearGradient gradientUnits="userSpaceOnUse" id="0-7" y2="453.26" x2="0" y1="121.76" gradientTransform="translate(0.00121,-0.002)">
   <stop id="stop7-8" stop-color="#6a6a6a"/>
   <stop id="stop9-7" offset="0.47"/>
   <stop id="stop11-8" offset="0.494" stop-color="#fff"/>
   <stop id="stop13-9" offset="0.901" stop-color="#fff"/>
   <stop id="stop15-9" offset="0.955"/>
   <stop id="stop17-1" offset="1"/>
  </linearGradient>
 </defs>
 <path d="m 108.63121,57.388 c -7.963,0 -15.228,2.293 -20.693,6.22 -4.545,3.266 -7.751,7.872 -8.752,13.13 l -11.909,0 c -16.447,0 -29.883,13.03 -29.883,29.2 l 0,66.736 c 0,16.17 13.436,29.19 29.883,29.19 l 377.47,0 c 16.447,0 29.883,-13.03 29.883,-29.19 l 0,-66.736 c 0,-16.17 -13.436,-29.2 -29.883,-29.2 l -262.91,0 c -1,-5.256 -4.208,-9.862 -8.753,-13.13 -5.465,-3.927 -12.73,-6.22 -20.693,-6.22 l -43.761,0" id="path115" fill="#cccccc" fill-rule="evenodd"/>
 <path d="m 37.36121,118.478 c -19.928,0 -38.06,15.818 -36.23,35.853 l 24.26,265.41 c 1.733,18.966 16.271,34.947 36.2,34.947 l 383.41,0 c 19.933,0 34.1,-16.05 36.2,-34.853 l 29.632,-265.41 c 1.123,-10.05 -3.137,-19.263 -9.971,-25.663 -6.833,-6.399 -16.258,-10.284 -26.22,-10.284 l -437.27,0" id="path117" fill="#BF9E73" fill-rule="evenodd"/>
 <path id="path119" d="m 37.36121,118.468 c -19.928,0 -38.08,15.84 -36.25,35.875 l 11.781,128.78 12.469,136.63 c 1.733,18.966 16.29,34.938 36.22,34.938 l 383.40999,0 c 19.933,0 34.09,-16.04 36.19,-34.844 l 15.281,-136.72 14.375,-128.69 c 1.123,-10.05 -3.135,-19.287 -9.969,-25.688 -6.833,-6.399 -16.257,-10.281 -26.22,-10.281 l -437.27999,0" opacity="0.05" fill="url(#0-7)"/>
 <path d="m 108.55121,57.308 c -7.963,0 -15.11,2.403 -20.572,6.33 -4.545,3.266 -7.702,7.931 -8.703,13.187 l -12.13,0 c -17.677,0 -29.802,12.771 -29.802,30.661 l 0,3.956 c 0,-16.17 13.355,-29.27 29.802,-29.27 l 14.286,0 c 1,-5.256 2,-9.657 6.549,-12.923 5.465,-3.927 12.609,-6.33 20.572,-6.33 l 43.78,0 c 7.963,0 15.371,2.403 20.835,6.33 4.545,3.266 5.766,7.668 6.769,12.923 l 264.88,0 c 16.447,0 29.802,11.455 29.802,27.625 l 0,-3.956 c 0,-16.17 -13.355,-29.01 -29.802,-29.01 l -262.95,0 c -1,-5.256 -4.159,-9.921 -8.703,-13.187 -5.465,-3.927 -12.872,-6.33 -20.835,-6.33 z" id="path123" opacity="0.764" fill="#ffffff" fill-rule="evenodd"/>
 <path d="m 37.35121,118.468 c -19.928,0 -38.05,15.84 -36.22,35.875 l 0.406,4.375 c 3,-15.936 18.732,-27.563 35.813,-27.563 l 437.28,0 c 9.966,0 19.386,3.882 26.22,10.281 4.736,4.435 8.234,10.208 9.563,16.688 l 0.406,-3.688 c 1.123,-10.05 -3.134,-19.288 -9.969,-25.688 -6.833,-6.399 -16.252,-10.281 -26.22,-10.281 l -437.28,0" id="path125" opacity="0.4" fill="#ffffff" fill-rule="evenodd"/>
 <path d="m 238.12121,161.598 0,0.004 c -67.35,0 -121.93,55.965 -121.93,125 0,35.08 14.09,66.789 36.797,89.49 l 78.6,78.6 213.4,0 c 19.933,0 34.09,-16.04 36.19,-34.844 l 1.527,-13.668 -244.59,-244.59" id="path363" opacity="0.25" color="#000000"/>
 <path d="m 238.12121,161.598 c -67.35,0 -121.93,55.965 -121.93,125 0,69.04 54.58,125 121.93,125 l 157.69,0 0,-23.439 -157.69,0 c -54.719,0 -99.08,-45.47 -99.08,-101.56 0,-56.09 44.36,-101.58 99.08,-101.58 l 0,-23.415 m 0,31.24 c -50.51,0 -91.44,41.979 -91.44,93.76 0,51.776 40.928,93.73 91.44,93.73 l 157.69,0 0,-23.439 -157.69,0 c -37.882,0 -68.59,-31.461 -68.59,-70.29 0,-38.832 30.708,-70.32 68.59,-70.32 9.205,0 17.95,1.88 25.97,5.251 l 8.68,-21.736 c -11,-4.622 -22.758,-6.954 -34.65,-6.954 m 0,31.24 c -33.673,0 -60.951,27.994 -60.951,62.51 0,34.518 27.28,62.49 60.951,62.49 l 157.69,0 0,-23.439 -157.69,0 c -21.05,0 -38.1,-17.476 -38.1,-39.05 0,-21.574 17.06,-39.07 38.1,-39.07 10.523,0 20.02,4.402 26.916,11.471 l 16.202,-16.604 c -11.434,-11.721 -26.947,-18.307 -43.12,-18.307" id="path365" fill="#ffffff" color="#000000"/>
</svg>
