<?xml version="1.0" encoding="UTF-8" standalone="no"?>
<svg xmlns="http://www.w3.org/2000/svg" viewBox="0 0 512 512" height="512" width="512" version="1.1">
 <metadata id="metadata513"/>
 <defs id="defs4">
  <linearGradient gradientUnits="userSpaceOnUse" id="0-0" y2="453.24" x2="0" y1="121.74" gradientTransform="translate(0.0012,5e-4)">
   <stop id="stop7-8" stop-color="#6a6a6a"/>
   <stop offset="0.47" id="stop9-7"/>
   <stop offset="0.494" id="stop11-4" stop-color="#ffffff"/>
   <stop offset="0.901" id="stop13-5" stop-color="#ffffff"/>
   <stop offset="0.955" id="stop15-9"/>
   <stop offset="1" id="stop17-0"/>
  </linearGradient>
 </defs>
 <g id="g113" transform="translate(0.0012,5e-4)" fill-rule="evenodd">
  <path id="path115" d="m 108.63,57.37 c -7.963,0 -15.228,2.293 -20.693,6.22 -4.545,3.266 -7.751,7.872 -8.752,13.13 l -11.909,0 c -16.447,0 -29.883,13.03 -29.883,29.2 l 0,66.736 c 0,16.17 13.436,29.19 29.883,29.19 l 377.47,0 c 16.447,0 29.883,-13.03 29.883,-29.19 l 0,-66.736 c 0,-16.17 -13.436,-29.2 -29.883,-29.2 l -262.91,0 c -1,-5.256 -4.208,-9.862 -8.753,-13.13 -5.465,-3.927 -12.73,-6.22 -20.693,-6.22 l -43.761,0" fill="#cccccc"/>
  <path id="path117" d="m 37.36,118.46 c -19.928,0 -38.06,15.818 -36.23,35.853 l 24.26,265.41 c 1.733,18.966 16.271,34.947 36.2,34.947 l 383.41,0 c 19.933,0 34.1,-16.05 36.2,-34.853 l 29.632,-265.41 c 1.123,-10.05 -3.137,-19.263 -9.971,-25.663 -6.833,-6.399 -16.258,-10.284 -26.22,-10.284 l -437.27,0" fill="#BF9E73"/>
 </g>
 <path id="path119" d="m 37.3612,118.4505 c -19.928,0 -38.08,15.84 -36.25,35.875 l 11.781,128.78 12.469,136.63 c 1.733,18.966 16.29,34.938 36.22,34.938 l 383.41,0 c 19.933,0 34.09,-16.04 36.19,-34.844 l 15.281,-136.72 14.375,-128.69 c 1.123,-10.05 -3.135,-19.287 -9.969,-25.688 -6.833,-6.399 -16.257,-10.281 -26.22,-10.281 l -437.28,0" opacity="0.05" fill="url(#0-0)"/>
 <g id="g121" transform="translate(0.0012,5e-4)" fill="#ffffff" fill-rule="evenodd">
  <path id="path125" d="m 108.55,57.29 c -7.963,0 -15.11,2.403 -20.572,6.33 -4.545,3.266 -7.702,7.931 -8.703,13.187 l -12.13,0 c -17.677,0 -29.802,12.771 -29.802,30.661 l 0,3.956 c 0,-16.17 13.355,-29.27 29.802,-29.27 l 14.286,0 c 1,-5.256 2,-9.657 6.549,-12.923 5.465,-3.927 12.609,-6.33 20.572,-6.33 l 43.78,0 c 7.963,0 15.371,2.403 20.835,6.33 4.545,3.266 5.766,7.668 6.769,12.923 l 264.88,0 c 16.447,0 29.802,11.455 29.802,27.625 l 0,-3.956 c 0,-16.17 -13.355,-29.01 -29.802,-29.01 l -262.95,0 c -1,-5.256 -4.159,-9.921 -8.703,-13.187 -5.465,-3.927 -12.872,-6.33 -20.835,-6.33 z" opacity="0.764"/>
  <path id="path127" d="m 37.35,118.45 c -19.928,0 -38.05,15.84 -36.22,35.875 l 0.406,4.375 c 3,-15.936 18.732,-27.563 35.813,-27.563 l 437.28,0 c 9.966,0 19.386,3.882 26.22,10.281 4.736,4.435 8.234,10.208 9.563,16.688 l 0.406,-3.688 c 1.123,-10.05 -3.134,-19.288 -9.969,-25.688 -6.833,-6.399 -16.252,-10.281 -26.22,-10.281 l -437.28,0" opacity="0.4"/>
 </g>
 <g id="g505" transform="translate(0.0012,5e-4)" fill-rule="evenodd">
  <path id="path507" d="m 223.56,161.56 c -25.785,0 -46.688,20.933 -46.688,46.719 0,12.957 5.29,24.62 13.813,33.03 0.369,0.387 0.743,0.751 1.125,1.125 0.406,0.422 0.797,0.843 1.219,1.25 0.293,0.301 0.605,0.582 0.906,0.875 0.327,0.337 0.663,0.673 1,1 0.409,0.421 0.826,0.844 1.25,1.25 0.145,0.147 0.291,0.293 0.438,0.438 0.42,0.441 0.844,0.857 1.281,1.281 0.366,0.378 0.715,0.76 1.094,1.125 0.329,0.337 0.661,0.673 1,1 0.293,0.301 0.605,0.582 0.906,0.875 0.327,0.337 0.663,0.673 1,1 0.409,0.421 0.826,0.844 1.25,1.25 0.155,0.158 0.311,0.313 0.469,0.469 0.4,0.419 0.804,0.815 1.219,1.219 0.374,0.387 0.738,0.783 1.125,1.156 0.293,0.301 0.605,0.582 0.906,0.875 0.327,0.337 0.663,0.673 1,1 0.388,0.4 0.785,0.801 1.188,1.188 -2.102,-0.744 -4.362,-1.352 -6.813,-1.781 -1.806,-0.195 -3.627,-0.271 -5.438,-0.219 -5.433,0.157 -10.783,1.541 -15.313,3.906 -5.347,3.876 -9.508,9.921 -12.656,16.844 -0.258,-0.263 -0.504,-0.481 -0.75,-0.688 -0.36,-0.389 -0.694,-0.749 -1.031,-1.031 -0.342,-0.369 -0.679,-0.729 -1,-1 -0.359,-0.39 -0.726,-0.719 -1.063,-1 -0.325,-0.353 -0.631,-0.706 -0.938,-0.969 -0.378,-0.416 -0.773,-0.801 -1.125,-1.094 -0.366,-0.399 -0.721,-0.751 -1.063,-1.031 -0.33,-0.357 -0.66,-0.678 -0.969,-0.938 -0.369,-0.406 -0.719,-0.779 -1.063,-1.063 -0.348,-0.38 -0.675,-0.731 -1,-1 -0.345,-0.379 -0.678,-0.731 -1,-1 -0.366,-0.405 -0.754,-0.752 -1.094,-1.031 -0.345,-0.379 -0.678,-0.734 -1,-1 -0.354,-0.392 -0.702,-0.76 -1.031,-1.031 -0.373,-0.412 -0.749,-0.756 -1.094,-1.031 -0.349,-0.384 -0.676,-0.706 -1,-0.969 -0.306,-0.34 -0.589,-0.629 -0.875,-0.875 -0.415,-0.476 -0.809,-0.884 -1.188,-1.188 -0.352,-0.391 -0.675,-0.737 -1,-1 -0.33,-0.368 -0.663,-0.684 -0.969,-0.938 -0.437,-0.498 -0.855,-0.924 -1.25,-1.219 -0.287,-0.311 -0.545,-0.593 -0.813,-0.813 -0.374,-0.427 -0.751,-0.788 -1.094,-1.063 -0.409,-0.463 -0.787,-0.881 -1.156,-1.156 -0.36,-0.396 -0.703,-0.755 -1.031,-1 -0.36,-0.398 -0.703,-0.755 -1.031,-1 -0.357,-0.396 -0.675,-0.758 -1,-1 -0.361,-0.403 -0.704,-0.756 -1.031,-1 -0.27,-0.303 -0.53,-0.569 -0.781,-0.781 -0.437,-0.522 -0.861,-0.96 -1.25,-1.25 -0.358,-0.405 -0.708,-0.759 -1.031,-1 -0.355,-0.403 -0.711,-0.761 -1.031,-1 -0.37,-0.423 -0.7,-0.79 -1.031,-1.031 -0.347,-0.397 -0.687,-0.735 -1,-0.969 -0.358,-0.416 -0.71,-0.76 -1.031,-1 -0.376,-0.438 -0.728,-0.823 -1.063,-1.063 -0.34,-0.395 -0.663,-0.741 -0.969,-0.969 -0.354,-0.417 -0.716,-0.765 -1.031,-1 -0.366,-0.434 -0.707,-0.796 -1.031,-1.031 -0.347,-0.412 -0.691,-0.739 -1,-0.969 -0.39,-0.47 -0.753,-0.828 -1.094,-1.063 -0.367,-0.438 -0.71,-0.777 -1.031,-1 -0.33,-0.396 -0.645,-0.75 -0.938,-0.969 -0.391,-0.484 -0.755,-0.831 -1.094,-1.063 -0.356,-0.435 -0.689,-0.749 -1,-0.969 -0.348,-0.432 -0.696,-0.747 -1,-0.969 -0.374,-0.473 -0.709,-0.804 -1.031,-1.031 -0.372,-0.471 -0.743,-0.812 -1.063,-1.031 -0.369,-0.467 -0.715,-0.82 -1.031,-1.031 -0.366,-0.468 -0.687,-0.791 -1,-1 -0.376,-0.485 -0.745,-0.795 -1.063,-1 -0.369,-0.479 -0.72,-0.799 -1.031,-1 -0.381,-0.499 -0.714,-0.837 -1.031,-1.031 -0.397,-0.52 -0.769,-0.889 -1.094,-1.063 -0.371,-0.482 -0.696,-0.834 -1,-1 -0.369,-0.485 -0.73,-0.839 -1.031,-1 -0.389,-0.52 -0.751,-0.883 -1.063,-1.031 -0.373,-0.5 -0.702,-0.857 -1,-1 -0.204,-0.277 -0.411,-0.517 -0.594,-0.688 -0.132,-0.163 -0.275,-0.311 -0.406,-0.469 -0.341,-0.441 -0.665,-0.874 -1,-1.281 -0.602,-0.786 -1.199,-1.535 -1.781,-2.219 -0.254,-0.322 -0.5,-0.603 -0.75,-0.906 -0.412,-0.535 -0.816,-1.043 -1.219,-1.531 -0.386,-0.502 -0.778,-0.977 -1.156,-1.438 -0.491,-0.64 -0.99,-1.239 -1.469,-1.813 -0.412,-0.53 -0.816,-1.017 -1.219,-1.5 -0.313,-0.403 -0.63,-0.781 -0.938,-1.156 -4.494,-5.863 -8.49,-9.04 -11.688,-8.969 -0.395,0.009 -0.785,0.079 -1.156,0.188 -0.791,0.232 -1.64,0.834 -2.313,1.531 -10.767,11.164 -1.667,78.75 20.344,151.16 7.01,23.05 14.393,43.42 21.688,60.66 l 0.594,0 c 0.095,0.225 0.186,0.463 0.281,0.688 0.035,0.115 0.088,0.227 0.125,0.313 l 0.625,0 c 0.052,0.123 0.104,0.253 0.156,0.375 0.07,0.229 0.146,0.454 0.219,0.625 l 0.625,0 c 0.013,0.03 0.019,0.064 0.031,0.094 0.105,0.344 0.235,0.649 0.344,0.906 l 0.625,0 c 0.116,0.36 0.225,0.688 0.344,0.969 l 0.656,0 c 0.119,0.35 0.223,0.715 0.344,1 l 0.625,0 c 0.126,0.36 0.248,0.701 0.375,1 l 0.625,0 c 0.13,0.363 0.245,0.693 0.375,1 l 0.625,0 c 0.128,0.351 0.246,0.697 0.375,1 l 0.625,0 c 0.127,0.341 0.248,0.7 0.375,1 l 0.594,0 c 0.128,0.34 0.247,0.667 0.375,0.969 l 0.625,0 c 0.13,0.342 0.245,0.693 0.375,1 l 0.625,0 c 0.129,0.335 0.246,0.697 0.375,1 l 0.594,0 c 0.131,0.339 0.276,0.692 0.406,1 l 0.594,0 c 0.13,0.334 0.277,0.694 0.406,1 l 0.594,0 c 0.129,0.329 0.278,0.696 0.406,1 l 0.594,0 c 0.127,0.324 0.248,0.669 0.375,0.969 l 0.625,0 c 0.13,0.329 0.245,0.694 0.375,1 l 0.625,0 c 0.129,0.326 0.246,0.696 0.375,1 l 0.625,0 c 0.13,0.326 0.246,0.695 0.375,1 l 0.625,0 c 0.129,0.323 0.247,0.697 0.375,1 l 0.594,0 c 0.131,0.327 0.276,0.692 0.406,1 l 0.625,0 c 0.126,0.314 0.249,0.672 0.375,0.969 l 0.594,0 c 0.129,0.322 0.246,0.695 0.375,1 l 0.594,0 c 0.137,0.34 0.27,0.678 0.406,1 l 0.594,0 c 0.135,0.334 0.272,0.683 0.406,1 l 0.594,0 c 0.135,0.334 0.272,0.682 0.406,1 l 0.594,0 c 0.135,0.334 0.271,0.682 0.406,1 l 0.594,0 c 0.133,0.329 0.273,0.686 0.406,1 l 0.563,0 c 0.133,0.327 0.274,0.656 0.406,0.969 l 0.594,0 c 0.136,0.336 0.27,0.679 0.406,1 l 0.594,0 c 0.135,0.331 0.272,0.682 0.406,1 l 0.594,0 c 0.135,0.331 0.272,0.682 0.406,1 l 0.594,0 c 0.135,0.331 0.271,0.681 0.406,1 l 0.594,0 c 0.134,0.328 0.273,0.685 0.406,1 l 0.594,0 c 0.131,0.32 0.244,0.66 0.375,0.969 l 0.594,0 c 0.136,0.333 0.27,0.679 0.406,1 l 0.594,0 c 0.136,0.333 0.27,0.679 0.406,1 l 0.594,0 c 0.135,0.329 0.272,0.682 0.406,1 l 0.594,0 c 0.135,0.33 0.271,0.681 0.406,1 l 0.594,0 c 0.135,0.33 0.271,0.681 0.406,1 l 0.594,0 c 0.131,0.318 0.244,0.66 0.375,0.969 l 0.594,0 c 0.136,0.331 0.27,0.679 0.406,1 l 0.594,0 c 0.136,0.331 0.27,0.679 0.406,1 l 0.594,0 c 0.046,0.111 0.079,0.229 0.125,0.344 l 275.81,0 c 19.933,0 34.09,-16.04 36.19,-34.844 l 15.344,-137.53 -0.375,-0.219 0.156,-0.313 -1.156,-0.656 c 0.006,-0.014 0.156,-0.344 0.156,-0.344 l -1.156,-0.656 0.156,-0.344 -1.156,-0.656 c 0.007,-0.014 0.156,-0.344 0.156,-0.344 l -1.156,-0.656 c 0.007,-0.014 0.156,-0.344 0.156,-0.344 l -1.156,-0.656 0.156,-0.344 -1.156,-0.656 c 0.007,-0.014 0.156,-0.344 0.156,-0.344 l -1.125,-0.656 0.156,-0.313 -1.156,-0.656 c 0.007,-0.015 0.156,-0.344 0.156,-0.344 l -1.156,-0.656 c 0.007,-0.015 0.156,-0.344 0.156,-0.344 l -1.156,-0.656 0.156,-0.344 -1.156,-0.656 c 0.007,-0.015 0.156,-0.344 0.156,-0.344 l -1.156,-0.656 0.156,-0.344 -1.125,-0.625 c 0.007,-0.016 0.156,-0.344 0.156,-0.344 l -1.156,-0.656 c 0.007,-0.016 0.156,-0.344 0.156,-0.344 l -1.156,-0.656 c 0.008,-0.016 0.156,-0.344 0.156,-0.344 l -1.156,-0.656 c 0.008,-0.016 0.156,-0.344 0.156,-0.344 l -1.156,-0.656 0.156,-0.344 -1.156,-0.656 c 0.008,-0.017 0.156,-0.344 0.156,-0.344 l -1.125,-0.656 0.156,-0.313 -1.156,-0.656 c 0.008,-0.017 0.156,-0.344 0.156,-0.344 l -1.156,-0.656 c 0.008,-0.017 0.156,-0.344 0.156,-0.344 l -1.156,-0.656 0.156,-0.344 -1.156,-0.656 c 0.008,-0.018 0.156,-0.344 0.156,-0.344 l -1.156,-0.656 0.156,-0.344 -1.156,-0.656 c 0.009,-0.018 0.156,-0.344 0.156,-0.344 l -1.125,-0.625 c 0.009,-0.019 0.156,-0.344 0.156,-0.344 l -1.156,-0.656 c 0.009,-0.019 0.156,-0.344 0.156,-0.344 l -1.156,-0.656 c 0.009,-0.019 0.156,-0.344 0.156,-0.344 l -1.156,-0.656 0.156,-0.344 -1.156,-0.656 c 0.009,-0.02 0.156,-0.344 0.156,-0.344 l -1.156,-0.656 c 0.01,-0.02 0.156,-0.344 0.156,-0.344 l -1.125,-0.656 c 0.008,-0.018 0.156,-0.313 0.156,-0.313 l -1.156,-0.656 c 0.01,-0.021 0.156,-0.344 0.156,-0.344 l -1.156,-0.656 0.156,-0.344 -1.156,-0.656 c 0.01,-0.022 0.156,-0.344 0.156,-0.344 l -1.156,-0.656 c 0.01,-0.022 0.156,-0.344 0.156,-0.344 l -1.156,-0.656 c 0.011,-0.022 0.156,-0.344 0.156,-0.344 l -1.125,-0.625 c 0.011,-0.023 0.156,-0.344 0.156,-0.344 l -1.156,-0.656 c 0.011,-0.023 0.156,-0.344 0.156,-0.344 l -1.156,-0.656 c 0.011,-0.024 0.156,-0.344 0.156,-0.344 l -1.156,-0.656 c 0.011,-0.024 0.156,-0.344 0.156,-0.344 l -1.156,-0.656 c 0.012,-0.024 0.156,-0.344 0.156,-0.344 l -1.156,-0.656 c 0.012,-0.025 0.156,-0.344 0.156,-0.344 l -1.125,-0.656 c 0.01,-0.022 0.156,-0.313 0.156,-0.313 l -1.156,-0.656 c 0.012,-0.026 0.156,-0.344 0.156,-0.344 l -1.156,-0.656 c 0.013,-0.027 0.156,-0.344 0.156,-0.344 l -1.156,-0.656 c 0.013,-0.027 0.156,-0.344 0.156,-0.344 l -1.156,-0.656 c 0.013,-0.028 0.156,-0.344 0.156,-0.344 l -1.156,-0.656 c 0.013,-0.028 0.156,-0.344 0.156,-0.344 l -1.156,-0.656 c 0.014,-0.029 0.156,-0.344 0.156,-0.344 l -1.125,-0.656 c 0.012,-0.026 0.156,-0.313 0.156,-0.313 l -1.156,-0.656 0.156,-0.344 -1.156,-0.656 c 0.015,-0.031 0.156,-0.344 0.156,-0.344 l -1.156,-0.656 c 0.015,-0.032 0.156,-0.344 0.156,-0.344 l -1.156,-0.656 c 0.015,-0.033 0.156,-0.344 0.156,-0.344 l -1.156,-0.656 c 0.016,-0.034 0.156,-0.344 0.156,-0.344 l -1.125,-0.656 c 0.014,-0.03 0.156,-0.313 0.156,-0.313 l -1.156,-0.656 c 0.017,-0.036 0.156,-0.344 0.156,-0.344 l -1.156,-0.656 c 0.017,-0.037 0.156,-0.344 0.156,-0.344 l -1.156,-0.656 c 0.018,-0.038 0.156,-0.344 0.156,-0.344 l -1.156,-0.656 c 0.018,-0.039 0.156,-0.344 0.156,-0.344 l -1.156,-0.656 c 0.019,-0.04 0.156,-0.344 0.156,-0.344 l -1.125,-0.656 c 0.017,-0.036 0.156,-0.313 0.156,-0.313 l -1.156,-0.656 c 0.02,-0.043 0.156,-0.344 0.156,-0.344 l -1.156,-0.656 c 0.021,-0.045 0.156,-0.344 0.156,-0.344 l -1.156,-0.656 c 0.022,-0.046 0.156,-0.344 0.156,-0.344 l -1.156,-0.656 c 0.023,-0.048 0.156,-0.344 0.156,-0.344 l -1.156,-0.656 c 0.024,-0.05 0.156,-0.344 0.156,-0.344 l -1.156,-0.656 c 0.024,-0.052 0.156,-0.344 0.156,-0.344 l -1.125,-0.625 c 0.026,-0.054 0.156,-0.344 0.156,-0.344 l -1.156,-0.656 c 0.027,-0.057 0.156,-0.344 0.156,-0.344 l -1.156,-0.656 c 0.028,-0.06 0.156,-0.344 0.156,-0.344 l -1.156,-0.656 c 0.03,-0.063 0.156,-0.344 0.156,-0.344 l -1.156,-0.656 c 0.031,-0.065 0.156,-0.344 0.156,-0.344 l -1.156,-0.656 c 0.032,-0.068 0.156,-0.344 0.156,-0.344 l -1.125,-0.656 c 0.03,-0.063 0.156,-0.313 0.156,-0.313 l -1.156,-0.656 c 0.037,-0.078 0.156,-0.344 0.156,-0.344 l -1.156,-0.656 c 0.039,-0.083 0.156,-0.344 0.156,-0.344 l -1.156,-0.656 c 0.041,-0.087 0.156,-0.344 0.156,-0.344 l -1.156,-0.656 c 0.044,-0.093 0.156,-0.344 0.156,-0.344 l -1.156,-0.656 c 0.048,-0.101 0.156,-0.344 0.156,-0.344 l -1.125,-0.656 c 0.046,-0.097 0.156,-0.313 0.156,-0.313 l -1.156,-0.656 c 0.057,-0.122 0.156,-0.344 0.156,-0.344 l -1.156,-0.656 c 0.061,-0.13 0.156,-0.344 0.156,-0.344 l -1.156,-0.656 c 0.067,-0.143 0.156,-0.344 0.156,-0.344 l -1.156,-0.656 c 0.074,-0.157 0.156,-0.344 0.156,-0.344 l -1.156,-0.656 c 0.08,-0.169 0.156,-0.344 0.156,-0.344 l -1.125,-0.656 c 0.074,-0.158 0.156,-0.313 0.156,-0.313 l -1.156,-0.656 c 0.029,-0.061 0.156,-0.344 0.156,-0.344 l -1.156,-0.656 0.063,-0.156 0.094,-0.188 -1.156,-0.656 0.156,-0.344 -23.06,-13.156 -37.844,85.53 c -0.093,-0.093 -0.187,-0.189 -0.281,-0.281 -0.328,-0.34 -0.662,-0.67 -1,-1 -0.374,-0.388 -0.769,-0.751 -1.156,-1.125 -0.446,-0.458 -0.879,-0.904 -1.344,-1.344 -0.513,-0.547 -1.055,-1.072 -1.594,-1.594 -0.327,-0.337 -0.663,-0.673 -1,-1 -0.293,-0.302 -0.574,-0.613 -0.875,-0.906 -0.374,-0.388 -0.769,-0.751 -1.156,-1.125 -0.285,-0.293 -0.552,-0.59 -0.844,-0.875 -0.354,-0.367 -0.728,-0.708 -1.094,-1.063 -0.327,-0.337 -0.663,-0.673 -1,-1 -0.327,-0.337 -0.663,-0.673 -1,-1 -0.327,-0.337 -0.663,-0.673 -1,-1 -0.339,-0.349 -0.681,-0.693 -1.031,-1.031 -0.247,-0.254 -0.497,-0.502 -0.75,-0.75 -0.522,-0.545 -1.046,-1.075 -1.594,-1.594 -0.513,-0.547 -1.055,-1.072 -1.594,-1.594 -0.327,-0.337 -0.663,-0.673 -1,-1 -0.293,-0.302 -0.574,-0.613 -0.875,-0.906 -0.374,-0.388 -0.769,-0.751 -1.156,-1.125 -0.446,-0.458 -0.879,-0.904 -1.344,-1.344 -0.513,-0.547 -1.055,-1.072 -1.594,-1.594 -0.327,-0.337 -0.663,-0.673 -1,-1 -0.293,-0.302 -0.574,-0.613 -0.875,-0.906 -0.374,-0.388 -0.769,-0.751 -1.156,-1.125 -0.446,-0.458 -0.879,-0.904 -1.344,-1.344 -0.513,-0.547 -1.055,-1.072 -1.594,-1.594 -0.327,-0.337 -0.663,-0.673 -1,-1 -0.327,-0.337 -0.663,-0.673 -1,-1 -0.339,-0.349 -0.681,-0.693 -1.031,-1.031 -0.285,-0.293 -0.552,-0.59 -0.844,-0.875 -0.488,-0.506 -0.989,-0.985 -1.5,-1.469 -0.513,-0.547 -1.055,-1.072 -1.594,-1.594 -0.327,-0.337 -0.663,-0.673 -1,-1 -0.339,-0.349 -0.681,-0.693 -1.031,-1.031 -0.247,-0.254 -0.497,-0.502 -0.75,-0.75 -0.522,-0.545 -1.046,-1.075 -1.594,-1.594 -0.513,-0.547 -1.055,-1.072 -1.594,-1.594 -0.327,-0.337 -0.663,-0.673 -1,-1 -0.293,-0.302 -0.574,-0.613 -0.875,-0.906 -0.374,-0.388 -0.769,-0.751 -1.156,-1.125 -0.446,-0.458 -0.879,-0.904 -1.344,-1.344 -0.513,-0.547 -1.055,-1.072 -1.594,-1.594 -0.327,-0.337 -0.663,-0.673 -1,-1 -0.293,-0.302 -0.574,-0.613 -0.875,-0.906 -0.374,-0.388 -0.769,-0.751 -1.156,-1.125 -0.446,-0.458 -0.879,-0.904 -1.344,-1.344 -0.513,-0.547 -1.055,-1.072 -1.594,-1.594 -0.327,-0.337 -0.663,-0.673 -1,-1 -0.327,-0.337 -0.663,-0.673 -1,-1 -0.339,-0.349 -0.681,-0.693 -1.031,-1.031 -0.247,-0.254 -0.497,-0.502 -0.75,-0.75 -0.522,-0.545 -1.046,-1.075 -1.594,-1.594 -0.513,-0.547 -1.055,-1.072 -1.594,-1.594 -0.327,-0.337 -0.663,-0.673 -1,-1 -0.293,-0.302 -0.574,-0.613 -0.875,-0.906 -0.328,-0.34 -0.662,-0.67 -1,-1 -0.49,-0.508 -0.988,-0.984 -1.5,-1.469 -0.513,-0.547 -1.055,-1.072 -1.594,-1.594 -0.327,-0.337 -0.663,-0.673 -1,-1 -0.293,-0.302 -0.574,-0.613 -0.875,-0.906 -0.374,-0.388 -0.769,-0.751 -1.156,-1.125 -0.446,-0.458 -0.879,-0.904 -1.344,-1.344 -0.513,-0.547 -1.055,-1.072 -1.594,-1.594 -0.327,-0.337 -0.663,-0.673 -1,-1 -0.327,-0.337 -0.663,-0.673 -1,-1 -0.339,-0.349 -0.681,-0.693 -1.031,-1.031 -0.285,-0.293 -0.552,-0.59 -0.844,-0.875 -0.488,-0.506 -0.989,-0.985 -1.5,-1.469 -0.513,-0.547 -1.055,-1.072 -1.594,-1.594 -0.327,-0.337 -0.663,-0.673 -1,-1 -0.339,-0.349 -0.681,-0.693 -1.031,-1.031 -0.247,-0.254 -0.497,-0.502 -0.75,-0.75 -0.522,-0.545 -1.046,-1.075 -1.594,-1.594 -0.513,-0.547 -1.055,-1.072 -1.594,-1.594 -0.327,-0.337 -0.663,-0.673 -1,-1 -8.438,-8.688 -20.22,-14.09 -33.31,-14.09" fill-opacity="0.235"/>
  <path id="path509" d="m 223.57,161.58 c -25.785,0 -46.705,20.92 -46.705,46.705 0,25.785 20.92,46.512 46.705,46.512 25.785,0 46.512,-20.726 46.512,-46.512 0,-25.785 -20.726,-46.705 -46.512,-46.705 m 159.11,16.473 -53.682,121.71 21.318,8.915 23.256,-49.22 0,60.853 -8.14,0 0,11.822 -6.977,0 0,-12.984 -24.22,0 0,-2.326 -32.558,-14.729 -58.14,-3.101 c -2.311,-5.071 -5.113,-10.1 -8.915,-14.922 -3.66,-4.762 -7.286,-9.244 -9.884,-13.76 -5.611,-6.159 -12.492,-10.652 -22.481,-12.403 -1.806,-0.195 -3.615,-0.246 -5.426,-0.193 -5.433,0.157 -10.781,1.511 -15.31,3.876 -6.992,5.068 -11.99,13.843 -15.31,23.45 -3.068,9.416 -4.716,19.558 -6.202,29.07 -1.586,14.264 -0.936,28.06 2.907,43.02 4.479,18.654 11.571,37.14 17.442,54.46 l 83.33,0 c -1.062,-11.821 -3.262,-34.673 -4.07,-39.922 -1.038,-6.744 -5.101,-30.15 -5.62,-34.3 -0.74,-3.674 -1.412,-7.168 -2.132,-10.659 l 79.65,0 0,5.426 -52.907,0 0,18.605 30.426,0 0,60.853 19.961,0 0,-60.853 103.88,0 0,-18.605 -24.03,0 0,-11.822 -20.736,0 0,-91.67 17.636,-37.4 -23.06,-13.178 m -296.71,20.15 c -0.792,0.232 -1.653,0.853 -2.326,1.55 -10.768,11.162 -1.662,78.76 20.349,151.16 7.01,23.05 14.41,43.43 21.705,60.66 l 40.12,0 c -3.542,-27.728 -11.347,-63.707 -22.674,-100.97 -20.635,-67.878 -45.3,-115.88 -57.17,-112.4" fill="#ffffff"/>
 </g>
</svg>
