<?xml version="1.0" encoding="UTF-8" standalone="no"?>
<svg xmlns="http://www.w3.org/2000/svg" viewBox="0 0 512 512" height="512" width="512" version="1.1">
 <metadata id="metadata423"/>
 <defs id="defs4">
  <linearGradient gradientUnits="userSpaceOnUse" id="0-2" y2="453.26" x2="0" y1="121.76" gradientTransform="translate(0.00121,-0.0195)">
   <stop id="stop7-2" stop-color="#6a6a6a"/>
   <stop offset="0.47" id="stop9-7"/>
   <stop offset="0.494" id="stop11-5" stop-color="#ffffff"/>
   <stop offset="0.901" id="stop13-6" stop-color="#ffffff"/>
   <stop offset="0.955" id="stop15-1"/>
   <stop offset="1" id="stop17-5"/>
  </linearGradient>
 </defs>
 <g id="g113" transform="translate(0.00121,-0.0195)" fill-rule="evenodd">
  <path id="path115" d="m 108.63,57.39 c -7.963,0 -15.228,2.293 -20.693,6.22 -4.545,3.266 -7.751,7.872 -8.752,13.13 l -11.909,0 c -16.447,0 -29.883,13.03 -29.883,29.2 l 0,66.736 c 0,16.17 13.436,29.19 29.883,29.19 l 377.47,0 c 16.447,0 29.883,-13.03 29.883,-29.19 l 0,-66.736 c 0,-16.17 -13.436,-29.2 -29.883,-29.2 l -262.91,0 c -1,-5.256 -4.208,-9.862 -8.753,-13.13 -5.465,-3.927 -12.73,-6.22 -20.693,-6.22 l -43.761,0" fill="#cccccc"/>
  <path id="path117" d="m 37.36,118.48 c -19.928,0 -38.06,15.818 -36.23,35.853 l 24.26,265.41 c 1.733,18.966 16.271,34.947 36.2,34.947 l 383.41,0 c 19.933,0 34.1,-16.05 36.2,-34.853 l 29.632,-265.41 c 1.123,-10.05 -3.137,-19.263 -9.971,-25.663 -6.833,-6.399 -16.258,-10.284 -26.22,-10.284 l -437.27,0" fill="#BF9E73"/>
 </g>
 <path id="path119" d="m 37.36121,118.4505 c -19.928,0 -38.08,15.84 -36.25,35.875 l 11.781,128.78 12.469,136.63 c 1.733,18.966 16.29,34.938 36.22,34.938 l 383.40999,0 c 19.933,0 34.09,-16.04 36.19,-34.844 l 15.281,-136.72 14.375,-128.69 c 1.123,-10.05 -3.135,-19.287 -9.969,-25.688 -6.833,-6.399 -16.257,-10.281 -26.22,-10.281 l -437.27999,0" opacity="0.05" fill="url(#0-2)"/>
 <g id="g121" transform="translate(0.00121,-0.0195)" fill="#ffffff" fill-rule="evenodd">
  <path id="path125" d="m 108.55,57.31 c -7.963,0 -15.11,2.403 -20.572,6.33 -4.545,3.266 -7.702,7.931 -8.703,13.187 l -12.13,0 c -17.677,0 -29.802,12.771 -29.802,30.661 l 0,3.956 c 0,-16.17 13.355,-29.27 29.802,-29.27 l 14.286,0 c 1,-5.256 2,-9.657 6.549,-12.923 5.465,-3.927 12.609,-6.33 20.572,-6.33 l 43.78,0 c 7.963,0 15.371,2.403 20.835,6.33 4.545,3.266 5.766,7.668 6.769,12.923 l 264.88,0 c 16.447,0 29.802,11.455 29.802,27.625 l 0,-3.956 c 0,-16.17 -13.355,-29.01 -29.802,-29.01 l -262.95,0 c -1,-5.256 -4.159,-9.921 -8.703,-13.187 -5.465,-3.927 -12.872,-6.33 -20.835,-6.33 z" opacity="0.764"/>
  <path id="path127" d="m 37.35,118.47 c -19.928,0 -38.05,15.84 -36.22,35.875 l 0.406,4.375 c 3,-15.936 18.732,-27.563 35.813,-27.563 l 437.28,0 c 9.966,0 19.386,3.882 26.22,10.281 4.736,4.435 8.234,10.208 9.563,16.688 l 0.406,-3.688 c 1.123,-10.05 -3.134,-19.288 -9.969,-25.688 -6.833,-6.399 -16.252,-10.281 -26.22,-10.281 l -437.28,0" opacity="0.4"/>
 </g>
 <g id="g415" transform="translate(0.00121,-0.0195)" fill-rule="evenodd">
  <path id="path417" d="m 329.47,161.63 c -7.321,0.219 -14.712,1.713 -21.906,4.594 -32.685,13.09 -48.658,50.04 -35.938,82.78 l -19.875,73.09 c -0.597,0.211 -1.188,0.45 -1.781,0.688 -8.691,3.48 -15.753,9.309 -20.719,16.469 l -112.81,-0.531 0,54.44 61.53,61.53 267.03,0 c 19.933,0 34.09,-16.04 36.19,-34.844 l 13.563,-121.47 -117.94,-117.94 c -12.459,-12.459 -29.649,-19.341 -47.34,-18.813" opacity="0.25"/>
  <path id="path419" d="m 329.47,161.63 c -7.321,0.219 -14.712,1.713 -21.906,4.594 -32.685,13.09 -48.658,50.04 -35.938,82.78 l -19.875,73.09 c -0.597,0.211 -1.188,0.45 -1.781,0.688 -8.691,3.48 -15.753,9.309 -20.719,16.469 l -112.81,-0.531 0,54.44 114.09,0.438 c 12.251,15.969 34.05,22.536 53.656,14.688 22.333,-8.943 33.818,-33.397 27,-56 l 40.656,-65.719 c 1.14,-0.384 2.276,-0.798 3.406,-1.25 32.891,-13.171 48.886,-50.52 35.719,-83.41 -10.29,-25.697 -35.35,-41.06 -61.5,-40.28 m 0.844,28.16 c 14.661,-0.433 28.699,8.214 34.469,22.625 7.387,18.444 -1.554,39.37 -20,46.75 -18.444,7.387 -39.39,-1.585 -46.781,-20.03 -7.387,-18.444 1.585,-39.39 20.03,-46.781 4.03,-1.616 8.176,-2.441 12.281,-2.563 m -64.31,139.78 c 14.669,-0.436 28.727,8.183 34.5,22.594 7.387,18.444 -1.617,39.4 -20.06,46.781 -12.444,4.984 -26,2.509 -35.781,-5.281 l 17.313,0.063 c 15.04,0.086 27.23,-11.963 27.313,-27 0.086,-15.04 -11.964,-27.23 -27,-27.313 l -19.844,-0.094 c 3.175,-2.988 6.959,-5.465 11.25,-7.188 4.03,-1.616 8.205,-2.44 12.313,-2.563" fill="#ffffff"/>
 </g>
</svg>
