<?xml version="1.0" encoding="UTF-8" standalone="no"?>
<svg xmlns="http://www.w3.org/2000/svg" version="1.1" viewBox="0 0 512 512">
 <metadata id="metadata369"/>
 <defs id="defs4">
  <linearGradient gradientUnits="userSpaceOnUse" id="0-2" y2="453.26" x2="0" y1="121.76" gradientTransform="translate(0.0012,-0.0015)">
   <stop id="stop7-3" stop-color="#6a6a6a"/>
   <stop id="stop9-1" offset="0.47"/>
   <stop id="stop11-6" offset="0.494" stop-color="#fff"/>
   <stop id="stop13-5" offset="0.901" stop-color="#fff"/>
   <stop id="stop15-5" offset="0.955"/>
   <stop id="stop17-9" offset="1"/>
  </linearGradient>
 </defs>
 <path d="m 108.6312,57.3885 c -7.963,0 -15.228,2.293 -20.693,6.22 -4.545,3.266 -7.751,7.872 -8.752,13.13 l -11.909,0 c -16.447,0 -29.883,13.03 -29.883,29.2 l 0,66.736 c 0,16.17 13.436,29.19 29.883,29.19 l 377.47,0 c 16.447,0 29.883,-13.03 29.883,-29.19 l 0,-66.736 c 0,-16.17 -13.436,-29.2 -29.883,-29.2 l -262.91,0 c -1,-5.256 -4.208,-9.862 -8.753,-13.13 -5.465,-3.927 -12.73,-6.22 -20.693,-6.22 l -43.761,0" id="path115" fill="#cccccc" fill-rule="evenodd"/>
 <path d="m 37.3612,118.4785 c -19.928,0 -38.06,15.818 -36.23,35.853 l 24.26,265.41 c 1.733,18.966 16.271,34.947 36.2,34.947 l 383.41,0 c 19.933,0 34.1,-16.05 36.2,-34.853 l 29.632,-265.41 c 1.123,-10.05 -3.137,-19.263 -9.971,-25.663 -6.833,-6.399 -16.258,-10.284 -26.22,-10.284 l -437.27,0" id="path117" fill="#BF9E73" fill-rule="evenodd"/>
 <path id="path119" d="m 37.3612,118.4685 c -19.928,0 -38.08,15.84 -36.25,35.875 l 11.781,128.78 12.469,136.63 c 1.733,18.966 16.29,34.938 36.22,34.938 l 383.41,0 c 19.933,0 34.09,-16.04 36.19,-34.844 l 15.281,-136.72 14.375,-128.69 c 1.123,-10.05 -3.135,-19.287 -9.969,-25.688 -6.833,-6.399 -16.257,-10.281 -26.22,-10.281 l -437.28,0" opacity="0.05" fill="url(#0-2)"/>
 <path d="m 108.5512,57.3085 c -7.963,0 -15.11,2.403 -20.572,6.33 -4.545,3.266 -7.702,7.931 -8.703,13.187 l -12.13,0 c -17.677,0 -29.802,12.771 -29.802,30.661 l 0,3.956 c 0,-16.17 13.355,-29.27 29.802,-29.27 l 14.286,0 c 1,-5.256 2,-9.657 6.549,-12.923 5.465,-3.927 12.609,-6.33 20.572,-6.33 l 43.78,0 c 7.963,0 15.371,2.403 20.835,6.33 4.545,3.266 5.766,7.668 6.769,12.923 l 264.88,0 c 16.447,0 29.802,11.455 29.802,27.625 l 0,-3.956 c 0,-16.17 -13.355,-29.01 -29.802,-29.01 l -262.95,0 c -1,-5.256 -4.159,-9.921 -8.703,-13.187 -5.465,-3.927 -12.872,-6.33 -20.835,-6.33 z" id="path123" opacity="0.764" fill="#ffffff" fill-rule="evenodd"/>
 <path d="m 37.3512,118.4685 c -19.928,0 -38.05,15.84 -36.22,35.875 l 0.406,4.375 c 3,-15.936 18.732,-27.563 35.813,-27.563 l 437.28,0 c 9.966,0 19.386,3.882 26.22,10.281 4.736,4.435 8.234,10.208 9.563,16.688 l 0.406,-3.688 c 1.123,-10.05 -3.134,-19.288 -9.969,-25.688 -6.833,-6.399 -16.252,-10.281 -26.22,-10.281 l -437.28,0" id="path125" opacity="0.4" fill="#ffffff" fill-rule="evenodd"/>
 <path d="m 262.2812,162.8385 17.438,17.438 -3.188,24.313 -32.844,-32.844 0,99.53 -38.438,-35.594 59.34,59.34 -3.406,25.813 -30.438,-30.438 -41,-37.969 39.38,39.38 -44.09,38.563 16.188,16.188 -1.156,1 43.625,43.625 0,10.313 53.19,53.19 148.11,0 c 19.933,0 34.09,-16.04 36.19,-34.844 l 5.098,-45.604 -159.34,-159.34 -37.37,-30.09 -9.219,-9.219 -0.219,1.625 -17.844,-14.375" id="path363" opacity="0.25" color="#000000"/>
 <path d="m 254.87079,160.30278 a 11.423989,11.423989 0 0 0 -11.1875,11.4375 l 0,99.53 -38.438,-35.594 a 11.423989,11.423989 0 1 0 -15.5,16.75 l 41,37.969 -45.719,39.969 a 11.423989,11.423989 0 1 0 15.03125,17.1875 l 43.625,-38.12 0,92.06 a 11.423989,11.423989 0 0 0 18.78125,8.71875 l 58.875,-49.563 a 11.423989,11.423989 0 0 0 0.375,-17.125 l -55.19,-51.09 0,-3.531 61,-56.719 a 11.423989,11.423989 0 0 0 -0.59375,-17.28125 l -64.66,-52.06 a 11.423989,11.423989 0 0 0 -7.40625,-2.53125 m 11.656,35.28 35.781,28.844 -35.781,33.28 0,-62.12 m 0,127.94 30.22,27.969 -30.22,25.438 0,-53.41" id="path365" fill="#ffffff" color="#000000"/>
</svg>
