<?xml version="1.0" encoding="UTF-8" standalone="no"?>
<svg xmlns="http://www.w3.org/2000/svg" version="1.1" viewBox="0 0 512 512">
 <metadata id="metadata509"/>
 <defs id="defs4">
  <linearGradient gradientUnits="userSpaceOnUse" id="0-1" y2="453.26" x2="0" y1="121.76" gradientTransform="translate(0.00121,-0.005)">
   <stop id="stop7-9" stop-color="#6a6a6a"/>
   <stop id="stop9-2" offset="0.47"/>
   <stop id="stop11-4" offset="0.494" stop-color="#fff"/>
   <stop id="stop13-3" offset="0.901" stop-color="#fff"/>
   <stop id="stop15-9" offset="0.955"/>
   <stop id="stop17-2" offset="1"/>
  </linearGradient>
 </defs>
 <g id="g113" transform="translate(0.00121,-0.005)" fill-rule="evenodd">
  <path id="path115" d="m 108.63,57.39 c -7.963,0 -15.228,2.293 -20.693,6.22 -4.545,3.266 -7.751,7.872 -8.752,13.13 l -11.909,0 c -16.447,0 -29.883,13.03 -29.883,29.2 l 0,66.736 c 0,16.17 13.436,29.19 29.883,29.19 l 377.47,0 c 16.447,0 29.883,-13.03 29.883,-29.19 l 0,-66.736 c 0,-16.17 -13.436,-29.2 -29.883,-29.2 l -262.91,0 c -1,-5.256 -4.208,-9.862 -8.753,-13.13 -5.465,-3.927 -12.73,-6.22 -20.693,-6.22 l -43.761,0" fill="#cccccc"/>
  <path id="path117" d="m 37.36,118.48 c -19.928,0 -38.06,15.818 -36.23,35.853 l 24.26,265.41 c 1.733,18.966 16.271,34.947 36.2,34.947 l 383.41,0 c 19.933,0 34.1,-16.05 36.2,-34.853 l 29.632,-265.41 c 1.123,-10.05 -3.137,-19.263 -9.971,-25.663 -6.833,-6.399 -16.258,-10.284 -26.22,-10.284 l -437.27,0" fill="#BF9E73"/>
 </g>
 <path id="path119" d="m 37.36121,118.465 c -19.928,0 -38.08,15.84 -36.25,35.875 l 11.781,128.78 12.469,136.63 c 1.733,18.966 16.29,34.938 36.22,34.938 l 383.40999,0 c 19.933,0 34.09,-16.04 36.19,-34.844 l 15.281,-136.72 14.375,-128.69 c 1.123,-10.05 -3.135,-19.287 -9.969,-25.688 -6.833,-6.399 -16.257,-10.281 -26.22,-10.281 l -437.27999,0" opacity="0.05" fill="url(#0-1)"/>
 <g id="g121" transform="translate(0.00121,-0.005)" fill="#ffffff" fill-rule="evenodd">
  <path id="path123" d="m 108.55,57.31 c -7.963,0 -15.11,2.403 -20.572,6.33 -4.545,3.266 -7.702,7.931 -8.703,13.187 l -12.13,0 c -17.677,0 -29.802,12.771 -29.802,30.661 l 0,3.956 c 0,-16.17 13.355,-29.27 29.802,-29.27 l 14.286,0 c 1,-5.256 2,-9.657 6.549,-12.923 5.465,-3.927 12.609,-6.33 20.572,-6.33 l 43.78,0 c 7.963,0 15.371,2.403 20.835,6.33 4.545,3.266 5.766,7.668 6.769,12.923 l 264.88,0 c 16.447,0 29.802,11.455 29.802,27.625 l 0,-3.956 c 0,-16.17 -13.355,-29.01 -29.802,-29.01 l -262.95,0 c -1,-5.256 -4.159,-9.921 -8.703,-13.187 -5.465,-3.927 -12.872,-6.33 -20.835,-6.33 z" opacity="0.764"/>
  <path id="path125" d="m 37.35,118.47 c -19.928,0 -38.05,15.84 -36.22,35.875 l 0.406,4.375 c 3,-15.936 18.732,-27.563 35.813,-27.563 l 437.28,0 c 9.966,0 19.386,3.882 26.22,10.281 4.736,4.435 8.234,10.208 9.563,16.688 l 0.406,-3.688 c 1.123,-10.05 -3.134,-19.288 -9.969,-25.688 -6.833,-6.399 -16.252,-10.281 -26.22,-10.281 l -437.28,0" opacity="0.4"/>
 </g>
 <path id="path503" d="m 130.9812,161.595 c -9.413,0 -17.06,7.617 -17.06,17.03 l 0,26.07 15.1,15.1 -15.06,0 0,174.74 c 0,9.412 7.649,17.06 17.06,17.06 l 0.002,0 43.1,43.1 270.88,0 c 19.933,0 34.09,-16.04 36.19,-34.844 l 15.281,-136.72 1.324,-11.852 -104.5,-104.5 c -3.094,-3.197 -7.432,-5.184 -12.24,-5.184 l -250.03,0 -0.033,0" opacity="0.25"/>
 <path id="path505" d="m 130.9812,161.595 c -9.413,0 -17.06,7.616 -17.06,17.03 l 0,26.07 284.16,0 0,-26.07 c 0,-9.416 -7.613,-17.03 -17.03,-17.03 l -250.03,0 -0.033,0 m 176.15,11.331 c 6.265,0 11.396,5.129 11.396,11.396 0,6.268 -5.132,11.331 -11.396,11.331 -6.265,0 -11.331,-5.063 -11.331,-11.331 0,-6.268 5.065,-11.396 11.331,-11.396 m 31.27,0 c 6.265,0 11.364,5.129 11.364,11.396 0,6.268 -5.099,11.331 -11.364,11.331 -6.26499,0 -11.331,-5.063 -11.331,-11.331 0,-6.268 5.065,-11.396 11.331,-11.396 m 31.24001,0 c 6.26499,0 11.36399,5.129 11.36399,11.396 0,6.268 -5.099,11.331 -11.36399,11.331 -6.26501,0 -11.36401,-5.063 -11.36401,-11.331 0,-6.268 5.099,-11.396 11.36401,-11.396 m -255.70001,46.863 0,174.74 c 0,9.413 7.649,17.06 17.06,17.06 l 250,0 c 9.416,0 17.03,-7.652 17.03,-17.06 l 0,-174.74 -284.09,0 m 139.34,29.604 3.93,0 15.1,0 6.746,0 -1.801,6.484 -32.29,117.86 -1.015,3.799 -3.93,0 -15.1,0 -6.746,0 1.801,-6.484 32.29,-117.86 1.015,-3.799 m -41.623,24.594 0,8.482 0,13.853 0,3.209 -2.882,1.408 -27.12,13.361 26.919,11.789 3.078,1.343 0,3.373 0,13.787 0,8.02 -7.303,-3.373 -54.886,-25.25 -2.98,-1.375 0,-3.275 0,-8.253 0,-3.111 2.751,-1.441 54.886,-28.622 7.532,-3.93 m 88.65,0 7.532,3.93 54.886,28.622 2.751,1.441 0,3.111 0,8.253 0,3.275 -2.98,1.375 -54.886,25.25 -7.303,3.373 0,-8.02 0,-13.787 0,-3.373 3.078,-1.343 26.919,-11.789 -27.12,-13.361 -2.882,-1.408 0,-3.209 0,-13.853 0,-8.482" fill="#ffffff"/>
</svg>
