<?xml version="1.0" encoding="UTF-8" standalone="no"?>
<svg xmlns="http://www.w3.org/2000/svg" viewBox="0 0 512 512" height="512" width="512" version="1.1">
 <metadata id="metadata487"/>
 <defs id="defs4">
  <linearGradient gradientUnits="userSpaceOnUse" id="0-3" y2="453.24" x2="0" y1="121.74" gradientTransform="translate(0.00121,14.341)">
   <stop id="stop7-9" stop-color="#6a6a6a"/>
   <stop offset="0.47" id="stop9-3"/>
   <stop offset="0.494" id="stop11-5" stop-color="#ffffff"/>
   <stop offset="0.901" id="stop13-4" stop-color="#ffffff"/>
   <stop offset="0.955" id="stop15-3"/>
   <stop offset="1" id="stop17-5"/>
  </linearGradient>
 </defs>
 <path d="m 108.63121,71.711 c -7.963,0 -15.228,2.293 -20.693,6.22 -4.545,3.266 -7.751,7.872 -8.752,13.13 l -11.909,0 c -16.447,0 -29.883,13.03 -29.883,29.2 l 0,66.736 c 0,16.17 13.436,29.19 29.883,29.19 l 377.47,0 c 16.447,0 29.883,-13.03 29.883,-29.19 l 0,-66.736 c 0,-16.17 -13.436,-29.2 -29.883,-29.2 l -262.91,0 c -1,-5.256 -4.208,-9.862 -8.753,-13.13 -5.465,-3.927 -12.73,-6.22 -20.693,-6.22 l -43.761,0" id="path115" fill="#cccccc" fill-rule="evenodd"/>
 <path d="m 37.36121,132.801 c -19.928,0 -38.06,15.818 -36.23,35.853 l 24.26,265.41 c 1.733,18.966 16.271,34.947 36.2,34.947 l 383.41,0 c 19.933,0 34.1,-16.05 36.2,-34.853 l 29.632,-265.41 c 1.123,-10.05 -3.137,-19.263 -9.971,-25.663 -6.833,-6.399 -16.258,-10.284 -26.22,-10.284 l -437.27,0" id="path117" fill="#BF9E73" fill-rule="evenodd"/>
 <path id="path119" d="m 37.36121,132.791 c -19.928,0 -38.08,15.84 -36.25,35.875 l 11.781,128.78 12.469,136.63 c 1.733,18.966 16.29,34.938 36.22,34.938 l 383.40999,0 c 19.933,0 34.09,-16.04 36.19,-34.844 l 15.281,-136.72 14.375,-128.69 c 1.123,-10.05 -3.135,-19.287 -9.969,-25.688 -6.833,-6.399 -16.257,-10.281 -26.22,-10.281 l -437.27999,0" opacity="0.05" fill="url(#0-3)"/>
 <path d="m 108.55121,71.631 c -7.963,0 -15.11,2.403 -20.572,6.33 -4.545,3.266 -7.702,7.931 -8.703,13.187 l -12.13,0 c -17.677,0 -29.802,12.771 -29.802,30.661 l 0,3.956 c 0,-16.17 13.355,-29.27 29.802,-29.27 l 14.286,0 c 1,-5.256 2,-9.657 6.549,-12.923 5.465,-3.927 12.609,-6.33 20.572,-6.33 l 43.78,0 c 7.963,0 15.371,2.403 20.835,6.33 4.545,3.266 5.766,7.668 6.769,12.923 l 264.88,0 c 16.447,0 29.802,11.455 29.802,27.625 l 0,-3.956 c 0,-16.17 -13.355,-29.01 -29.802,-29.01 l -262.95,0 c -1,-5.256 -4.159,-9.921 -8.703,-13.187 -5.465,-3.927 -12.872,-6.33 -20.835,-6.33 z" id="path125" opacity="0.764" fill="#ffffff" fill-rule="evenodd"/>
 <path d="m 37.35121,132.791 c -19.928,0 -38.05,15.84 -36.22,35.875 l 0.406,4.375 c 3,-15.936 18.732,-27.563 35.813,-27.563 l 437.28,0 c 9.966,0 19.386,3.882 26.22,10.281 4.736,4.435 8.234,10.208 9.563,16.688 l 0.406,-3.688 c 1.123,-10.05 -3.134,-19.288 -9.969,-25.688 -6.833,-6.399 -16.252,-10.281 -26.22,-10.281 l -437.28,0" id="path127" opacity="0.4" fill="#ffffff" fill-rule="evenodd"/>
 <path id="path465" d="m 255.7012,42.95 c -78.54,0 -147.4,41.505 -186.05999,103.81 C 109.0112,86.077 177.6312,45.89 255.7012,45.89 c 78.07,0 146.69,40.19 186.06,100.88 -38.664,-62.31 -107.52,-103.81 -186.06,-103.81" fill="#fff8eb" fill-opacity="0.271"/>
 <path d="m 254.22121,200.971 c -32.659,0.337 -64.22,18.399 -81.84,45.563 -1.136,-3.191 -5.513,-5.23 -6.719,-8.438 -6.854,-8.706 -31.21,-8.826 -45.5,-4 -41.27,11.39 -59.44,69.53 -37.31,106.25 168.74,171.7 55.77,53.669 129.38,128.69 l 232.78,0 c 19.933,0 34.09,-16.04 36.19,-34.844 l 10.875,-97.53 c -23.946,-28.693 -47.738,-57.55 -72.19,-85.81 -16.731,-14.942 -63.07,-23.17 -66.938,-12.531 4.393,5.181 22.785,42.575 8.75,26.563 -25.13,-23.644 -46.914,-54.33 -82.969,-61.41 -8.03,-1.841 -16.27,-2.65 -24.5,-2.5" id="path475" fill-rule="evenodd" fill-opacity="0.235"/>
 <path id="path479" d="m 370.99821,230.926 c -7.318,0 -14.369,1.136 -21,3.219 13.752,18.695 21.875,41.794 21.875,66.781 0,24.988 -8.123,48.09 -21.875,66.781 6.631,2.083 13.682,3.219 21,3.219 38.66,0 70,-31.34 70,-70 0,-38.66 -31.34,-70 -70,-70" fill="#ffffff" fill-rule="evenodd"/>
 <path id="path481" d="m 140.99821,230.926 c -38.66,0 -70,31.34 -70,70 0,38.66 31.34,70 70,70 7.353,0 14.435,-1.148 21.09,-3.25 -13.736,-18.689 -21.844,-41.778 -21.844,-66.75 0,-24.972 8.108,-48.06 21.844,-66.75 -6.658,-2.102 -13.741,-3.25 -21.09,-3.25" fill="#ffffff" fill-rule="evenodd"/>
 <path id="path483" d="m 356.34382,300.9273 a 99.94565,99.94565 0 0 1 -199.8913,0 99.94565,99.94565 0 1 1 199.8913,0" fill="#ffffff" fill-rule="evenodd"/>
</svg>
