<?xml version="1.0" encoding="UTF-8" standalone="no"?>
<svg xmlns="http://www.w3.org/2000/svg" viewBox="0 0 512 512" height="512" width="512" version="1.1">
 <metadata id="metadata833"/>
 <defs id="defs4">
  <linearGradient gradientUnits="userSpaceOnUse" id="0-9" y2="453.24" x2="0" y1="121.74" gradientTransform="translate(0.00121,5e-4)">
   <stop id="stop7-0" stop-color="#6a6a6a"/>
   <stop offset="0.47" id="stop9-3"/>
   <stop offset="0.494" id="stop11-5" stop-color="#ffffff"/>
   <stop offset="0.901" id="stop13-6" stop-color="#ffffff"/>
   <stop offset="0.955" id="stop15-3"/>
   <stop offset="1" id="stop17-7"/>
  </linearGradient>
 </defs>
 <g id="g113" transform="translate(0.00121,5e-4)" fill-rule="evenodd">
  <path id="path115" d="m 108.63,57.37 c -7.963,0 -15.228,2.293 -20.693,6.22 -4.545,3.266 -7.751,7.872 -8.752,13.13 l -11.909,0 c -16.447,0 -29.883,13.03 -29.883,29.2 l 0,66.736 c 0,16.17 13.436,29.19 29.883,29.19 l 377.47,0 c 16.447,0 29.883,-13.03 29.883,-29.19 l 0,-66.736 c 0,-16.17 -13.436,-29.2 -29.883,-29.2 l -262.91,0 c -1,-5.256 -4.208,-9.862 -8.753,-13.13 -5.465,-3.927 -12.73,-6.22 -20.693,-6.22 l -43.761,0" fill="#cccccc"/>
  <path id="path117" d="m 37.36,118.46 c -19.928,0 -38.06,15.818 -36.23,35.853 l 24.26,265.41 c 1.733,18.966 16.271,34.947 36.2,34.947 l 383.41,0 c 19.933,0 34.1,-16.05 36.2,-34.853 l 29.632,-265.41 c 1.123,-10.05 -3.137,-19.263 -9.971,-25.663 -6.833,-6.399 -16.258,-10.284 -26.22,-10.284 l -437.27,0" fill="#BF9E73"/>
 </g>
 <path id="path119" d="m 37.36121,118.4505 c -19.928,0 -38.08,15.84 -36.25,35.875 l 11.781,128.78 12.469,136.63 c 1.733,18.966 16.29,34.938 36.22,34.938 l 383.40999,0 c 19.933,0 34.09,-16.04 36.19,-34.844 l 15.281,-136.72 14.375,-128.69 c 1.123,-10.05 -3.135,-19.287 -9.969,-25.688 -6.833,-6.399 -16.257,-10.281 -26.22,-10.281 l -437.27999,0" opacity="0.05" fill="url(#0-9)"/>
 <g id="g121" transform="translate(0.00121,5e-4)" fill="#ffffff" fill-rule="evenodd">
  <path id="path125" d="m 108.55,57.29 c -7.963,0 -15.11,2.403 -20.572,6.33 -4.545,3.266 -7.702,7.931 -8.703,13.187 l -12.13,0 c -17.677,0 -29.802,12.771 -29.802,30.661 l 0,3.956 c 0,-16.17 13.355,-29.27 29.802,-29.27 l 14.286,0 c 1,-5.256 2,-9.657 6.549,-12.923 5.465,-3.927 12.609,-6.33 20.572,-6.33 l 43.78,0 c 7.963,0 15.371,2.403 20.835,6.33 4.545,3.266 5.766,7.668 6.769,12.923 l 264.88,0 c 16.447,0 29.802,11.455 29.802,27.625 l 0,-3.956 c 0,-16.17 -13.355,-29.01 -29.802,-29.01 l -262.95,0 c -1,-5.256 -4.159,-9.921 -8.703,-13.187 -5.465,-3.927 -12.872,-6.33 -20.835,-6.33 z" opacity="0.764"/>
  <path id="path127" d="m 37.35,118.45 c -19.928,0 -38.05,15.84 -36.22,35.875 l 0.406,4.375 c 3,-15.936 18.732,-27.563 35.813,-27.563 l 437.28,0 c 9.966,0 19.386,3.882 26.22,10.281 4.736,4.435 8.234,10.208 9.563,16.688 l 0.406,-3.688 c 1.123,-10.05 -3.134,-19.288 -9.969,-25.688 -6.833,-6.399 -16.252,-10.281 -26.22,-10.281 l -437.28,0" opacity="0.4"/>
 </g>
 <path id="path827" d="m 115.9412,170.5305 1.313,1.156 -0.156,0 1.281,1.125 -0.156,0 1.313,1.156 -0.156,0 1.281,1.125 -0.156,0 1.313,1.156 -0.156,0 1.313,1.156 -0.156,0 1.281,1.125 -0.156,0 1.313,1.156 -0.156,0 1.313,1.156 -0.156,0 1.281,1.125 -0.156,0 1.313,1.156 -0.156,0 1.281,1.125 -0.156,0 1.313,1.156 -0.156,0 1.313,1.156 -0.156,0 1.281,1.125 -0.156,0 1.313,1.156 -0.156,0 1.281,1.125 -0.156,0 1.313,1.156 -0.156,0 1.313,1.156 -0.156,0 1.281,1.125 -0.156,0 1.313,1.156 -0.156,0 1.313,1.156 -0.156,0 1.281,1.125 -0.156,0 1.313,1.156 -0.156,0 1.281,1.125 -0.156,0 1.313,1.156 -0.156,0 1.313,1.156 -0.156,0 1.281,1.125 -0.156,0 1.313,1.156 -0.156,0 1.313,1.156 -0.156,0 1.281,1.125 -0.156,0 1.313,1.156 -0.156,0 1.281,1.125 -0.156,0 1.313,1.156 -0.156,0 1.313,1.156 -0.156,0 1.281,1.125 -0.156,0 1.313,1.156 -0.156,0 1.281,1.125 -0.156,0 1.313,1.156 -0.156,0 1.313,1.156 -0.156,0 1.281,1.125 -0.156,0 1.313,1.156 -0.156,0 1.313,1.156 -0.156,0 1.281,1.125 -0.156,0 1.313,1.156 -0.156,0 1.281,1.125 -0.156,0 1.313,1.156 -0.156,0 1.313,1.156 -0.156,0 1.281,1.125 -0.156,0 1.313,1.156 -0.156,0 1.281,1.125 -0.156,0 1.313,1.156 -0.156,0 1.313,1.156 -0.156,0 1.281,1.125 -0.156,0 1.313,1.156 -0.156,0 1.313,1.156 -0.156,0 1.281,1.125 -0.156,0 1.313,1.156 -0.156,0 1.281,1.125 -0.156,0 1.313,1.156 -0.156,0 1.313,1.156 -0.156,0 1.281,1.125 -0.156,0 1.313,1.156 -0.156,0 1.281,1.125 -0.156,0 1.313,1.156 -0.156,0 1.313,1.156 -0.156,0 1.281,1.125 -0.156,0 1.313,1.156 -0.156,0 1.313,1.156 -0.156,0 1.281,1.125 -0.156,0 1.313,1.156 -0.156,0 1.281,1.125 -0.156,0 1.313,1.156 -0.156,0 1.313,1.156 -0.156,0 1.281,1.125 -0.156,0 1.313,1.156 -0.156,0 1.313,1.156 -0.156,0 1.281,1.125 -0.156,0 1.313,1.156 -0.156,0 1.281,1.125 -0.156,0 1.313,1.156 -0.156,0 1.313,1.156 -0.156,0 1.281,1.125 -0.156,0 1.313,1.156 -0.156,0 1.281,1.125 -0.156,0 1.313,1.156 -0.156,0 1.313,1.156 -0.156,0 1.281,1.125 -0.156,0 1.313,1.156 -0.156,0 1.313,1.156 -0.156,0 1.281,1.125 -0.156,0 1.313,1.156 -0.156,0 1.281,1.125 -0.156,0 1.313,1.156 -0.156,0 1.313,1.156 -0.156,0 1.281,1.125 -0.156,0 1.313,1.156 -0.156,0 1.281,1.125 -0.156,0 1.313,1.156 -0.156,0 1.313,1.156 -0.156,0 1.281,1.125 -0.156,0 1.313,1.156 -0.156,0 1.313,1.156 -0.156,0 1.281,1.125 -0.156,0 1.313,1.156 -0.156,0 1.281,1.125 -0.156,0 1.313,1.156 -0.156,0 1.313,1.156 -0.156,0 1.281,1.125 -0.156,0 1.313,1.156 -0.156,0 1.281,1.125 -0.156,0 1.313,1.156 -0.156,0 1.313,1.156 -0.156,0 1.281,1.125 -0.156,0 1.313,1.156 -0.156,0 1.313,1.156 -0.156,0 1.281,1.125 -0.156,0 1.313,1.156 -0.156,0 1.281,1.125 -0.156,0 1.313,1.156 -0.156,0 1.313,1.156 -0.156,0 1.281,1.125 -0.156,0 1.313,1.156 -0.156,0 1.281,1.125 -0.156,0 1.313,1.156 -0.156,0 1.219,1.063 -4.219,4.125 -37.5,-32.781 -0.844,0.938 -1.156,-1 0.063,-0.094 -1.219,-1.063 0.063,-0.094 -1.188,-1.031 0.063,-0.094 -1.219,-1.063 0.063,-0.094 -1.219,-1.063 0.063,-0.094 -1.188,-1.031 0.063,-0.094 -1.219,-1.063 0.063,-0.094 -1.219,-1.063 0.063,-0.094 -1.188,-1.031 0.063,-0.094 -1.219,-1.063 0.063,-0.094 -1.188,-1.031 0.063,-0.094 -1.219,-1.063 0.063,-0.094 -102.69,-89.84 0,204.75 1.156,-1.281 0,2.438 1.125,-1.25 0,2.375 1.156,-1.281 0,2.438 1.125,-1.25 0,2.375 1.156,-1.281 0,2.438 1.156,-1.281 0,2.438 1.125,-1.25 0,2.375 1.156,-1.281 0,2.438 1.156,-1.281 0,2.438 1.125,-1.25 0,2.375 1.156,-1.281 0,2.438 1.125,-1.25 0,2.313 -0.75,0.844 1.906,0 0,0.313 -0.75,0.844 1.906,0 0,0.25 -0.781,0.875 1.906,0 0,0.313 -0.75,0.844 1.906,0 0,0.25 -0.781,0.875 1.906,0 0,0.313 -0.75,0.844 1.906,0 0,0.313 -0.75,0.844 1.906,0 0,0.25 -0.781,0.875 1.906,0 0,0.313 -0.75,0.844 1.906,0 0,0.313 -0.75,0.844 1.906,0 0,0.25 -0.781,0.875 1.906,0 0,0.313 -0.75,0.844 1.906,0 0,0.25 -0.781,0.875 1.906,0 0,0.313 -0.75,0.844 1.906,0 0,0.313 -0.75,0.844 1.906,0 0,0.25 -0.781,0.875 1.906,0 0,0.313 -0.75,0.844 1.906,0 0,0.25 -0.781,0.875 1.938,0 0,0.281 -0.781,0.875 1.906,0 0,0.313 -0.75,0.844 1.906,0 0,0.25 -0.781,0.875 1.906,0 0,0.313 -0.75,0.844 1.906,0 0,0.313 -0.75,0.844 1.906,0 0,0.25 -0.781,0.875 1.906,0 0,0.313 -0.75,0.844 1.906,0 0,0.25 -0.781,0.875 1.906,0 0,0.313 -0.75,0.844 1.906,0 0,0.313 -0.75,0.844 1.906,0 0,0.25 -0.781,0.875 1.906,0 0,0.313 -0.75,0.844 1.906,0 0,0.313 -0.75,0.844 1.906,0 0,0.25 -0.781,0.875 1.906,0 0,0.313 -0.75,0.844 1.906,0 0,0.25 -0.781,0.875 1.906,0 0,0.313 -0.75,0.844 1.906,0 0,0.313 -0.75,0.844 1.906,0 0,0.25 -0.781,0.875 1.906,0 0,0.313 -0.75,0.844 1.906,0 0,0.25 -0.781,0.875 1.906,0 0,0.313 -0.75,0.844 1.906,0 0,0.313 -0.75,0.844 1.906,0 0,0.25 -0.781,0.875 1.906,0 0,0.313 -0.75,0.844 1.906,0 0,0.313 -0.75,0.844 1.906,0 0,0.25 -0.781,0.875 1.906,0 0,0.313 -0.75,0.844 1.906,0 0,0.25 -0.25,0.281 277.63,0 c 19.933,0 34.09,-16.04 36.19,-34.844 l 16.5,-147.66 0,-1.813 -1,0.875 -0.156,0 0,-2.031 -1.063,0.906 -0.063,0 0,-2.031 -1,0.875 -0.156,0 0,-2.031 -1,0.875 -0.156,0 0,-2.031 -1.063,0.906 -0.063,0 0,-2.031 -1,0.875 -0.156,0 0,-2.031 -1.063,0.906 -0.063,0 0,-2.031 -1,0.875 -0.156,0 0,-2.031 -1,0.875 -0.156,0 0,-2.031 -1.063,0.906 -0.063,0 0,-2.031 -1,0.875 -0.156,0 0,-2.031 -1.063,0.906 -0.094,0 0,-2.063 -1.063,0.906 -0.063,0 0,-2.031 -1,0.875 -0.156,0 0,-2.031 -1.063,0.906 -0.063,0 0,-2.031 -1,0.875 -0.156,0 0,-2.031 -1,0.875 -0.156,0 0,-2.031 -1.063,0.906 -0.063,0 0,-2.031 -1,0.875 -0.156,0 0,-2.031 -1.063,0.906 -0.063,0 0,-2.031 -1,0.875 -0.156,0 0,-2.031 -1,0.875 -0.156,0 0,-2.031 -1.063,0.906 -0.063,0 0,-2.031 -1,0.875 -0.156,0 0,-2.031 -1,0.875 -0.156,0 0,-2.031 -1.063,0.906 -0.063,0 0,-2.031 -1,0.875 -0.156,0 0,-2.031 -1.063,0.906 -0.063,0 0,-2.031 -1,0.875 -0.156,0 0,-2.031 -1,0.875 -0.156,0 0,-2.031 -1.063,0.906 -0.063,0 0,-2.031 -1,0.875 -0.156,0 0,-2.031 -1.063,0.906 -0.063,0 0,-2.031 -1,0.875 -0.156,0 0,-2.031 -1,0.875 -0.156,0 0,-2.031 -1.063,0.906 -0.063,0 0,-2.031 -1,0.875 -0.156,0 0,-2.031 -1,0.875 -0.156,0 0,-2.031 -1.063,0.906 -0.063,0 0,-2.031 -1,0.875 -0.156,0 0,-2.031 -1.063,0.906 -0.063,0 0,-2.031 -1,0.875 -0.156,0 0,-2.031 -1,0.875 -0.156,0 0,-2.031 -1.063,0.906 -0.063,0 0,-2.031 -1,0.875 -0.156,0 0,-2.031 -1.063,0.906 -0.063,0 0,-2.031 -1,0.875 -0.156,0 0,-2.031 -1,0.875 -0.156,0 0,-2.031 -1.063,0.906 -0.063,0 0,-2.031 -1,0.875 -0.156,0 0,-2.031 -1,0.875 -0.156,0 0,-2.031 -1.063,0.906 -0.063,0 0,-2.031 -1,0.875 -0.156,0 0,-2.031 -1.063,0.906 -0.063,0 0,-2.031 -1,0.875 -0.156,0 0,-2.031 -1,0.875 -0.156,0 0,-2.031 -1.063,0.906 -0.063,0 0,-2.031 -1,0.875 -0.156,0 0,-2.031 -1.063,0.906 -0.094,0 0,-2.063 -1.063,0.906 -0.063,0 0,-2.031 -1,0.875 -0.156,0 0,-2.031 -1.063,0.906 -0.063,0 0,-2.031 -1,0.875 -0.156,0 0,-2.031 -1,0.875 -0.156,0 0,-2.031 -1.063,0.906 -0.063,0 0,-2.031 -1,0.875 -0.156,0 0,-2.031 -1.063,0.906 -0.063,0 0,-2.031 -1,0.875 -0.156,0 0,-2.031 -1,0.875 -0.156,0 0,-2.031 -1.063,0.906 -0.063,0 0,-2.031 -1,0.875 -0.156,0 0,-2.031 -1,0.875 -0.156,0 0,-2.031 -1.063,0.906 -0.063,0 0,-2.031 -1,0.875 -0.156,0 0,-2.031 -1.063,0.906 -0.063,0 0,-2.031 -1,0.875 -0.156,0 0,-2.031 -1,0.875 -2.375,0 1.281,-1.125 -2.469,0 1.313,-1.156 -2.406,0 1.281,-1.125 -2.469,0 1.313,-1.156 -2.469,0 1.313,-1.156 -2.406,0 1.281,-1.125 -2.469,0 1.313,-1.156 -2.469,0 1.313,-1.156 -2.406,0 1.281,-1.125 -2.469,0 1.313,-1.156 -2.406,0 1.281,-1.125 -2.469,0 1.313,-1.156 -280.09,0" fill-opacity="0.235"/>
 <path id="path829" d="m 293.4812,285.9505 104.26,116.67 -283.51,0 104.26,-116.67 37.501,32.808 m 140.04,-148.22 -280.07,0 140.04,122.54 m 52.05,-19.85 102.67,114.89 0,-204.73 m -309.44,0 0,204.73 102.66,-114.9" fill="#ffffff"/>
</svg>
