<?xml version="1.0" encoding="UTF-8" standalone="no"?>
<svg xmlns="http://www.w3.org/2000/svg" viewBox="0 0 512 512" height="512" width="512" version="1.1">
 <metadata id="metadata655"/>
 <defs id="defs4">
  <linearGradient gradientUnits="userSpaceOnUse" id="0-9" y2="471.66" x2="0" y1="33.753">
   <stop id="stop7-1" stop-color="#6a6a6a"/>
   <stop offset="0.47" id="stop9-2"/>
   <stop offset="0.494" id="stop11-4" stop-color="#ffffff"/>
   <stop offset="0.901" id="stop13-6" stop-color="#ffffff"/>
   <stop offset="0.955" id="stop15-8"/>
   <stop offset="1" id="stop17-5"/>
  </linearGradient>
 </defs>
 <g transform="translate(349.28814,-344.94915)" id="g3723">
  <g transform="translate(-349.28814,344.94915)" id="g19" fill-rule="evenodd">
   <path d="m 471.95,253.05 c 0,120.9 -98.01,218.91 -218.91,218.91 -120.9,0 -218.91,-98.01 -218.91,-218.91 0,-120.9 98.01,-218.91 218.91,-218.91 120.9,0 218.91,98.01 218.91,218.91" id="path21" fill="#BF9E73"/>
   <path d="m 471.95,253.05 c 0,120.9 -98.01,218.91 -218.91,218.91 -120.9,0 -218.91,-98.01 -218.91,-218.91 0,-120.9 98.01,-218.91 218.91,-218.91 120.9,0 218.91,98.01 218.91,218.91" id="path23" opacity="0.05" fill="url(#0-9)"/>
   <path d="M 256,1 C 115.17,1 1,115.17 1,256 1,396.83 115.17,511 256,511 396.83,511 511,396.83 511,256 511,115.17 396.83,1 256,1 m 8.827,44.931 c 120.9,0 218.9,98 218.9,218.9 0,120.9 -98,218.9 -218.9,218.9 -120.9,0 -218.93,-98 -218.93,-218.9 0,-120.9 98.03,-218.9 218.93,-218.9" id="path27" fill-opacity="0.067"/>
   <g id="g29" fill-opacity="0.129">
    <path d="M 256,4.43 C 117.06,4.43 4.43,117.06 4.43,256 4.43,394.94 117.06,507.57 256,507.57 394.94,507.57 507.57,394.94 507.57,256 507.57,117.06 394.94,4.43 256,4.43 m 5.885,38.556 c 120.9,0 218.9,98 218.9,218.9 0,120.9 -98,218.9 -218.9,218.9 -120.9,0 -218.93,-98 -218.93,-218.9 0,-120.9 98.03,-218.9 218.93,-218.9" id="path31"/>
    <path d="M 256,8.36 C 119.23,8.36 8.36,119.23 8.36,256 8.36,392.77 119.23,503.64 256,503.64 392.77,503.64 503.64,392.77 503.64,256 503.64,119.23 392.77,8.36 256,8.36 m 2.942,31.691 c 120.9,0 218.9,98 218.9,218.9 0,120.9 -98,218.9 -218.9,218.9 -120.9,0 -218.93,-98 -218.93,-218.9 0,-120.9 98.03,-218.9 218.93,-218.9" id="path33"/>
   </g>
   <path d="M 253.04,7.86 C 117.62,7.86 7.85,117.64 7.85,253.05 c 0,135.42 109.78,245.19 245.19,245.19 135.42,0 245.19,-109.78 245.19,-245.19 C 498.23,117.63 388.45,7.86 253.04,7.86 Z m 0,26.297 c 120.9,0 218.9,98 218.9,218.9 0,120.9 -98,218.9 -218.9,218.9 -120.9,0 -218.93,-98 -218.93,-218.9 0,-120.9 98.03,-218.9 218.93,-218.9 z" id="path35" stroke-opacity="0.31" fill="#ffffff" stroke="#000000" stroke-width="4.904"/>
  </g>
  <path d="m -93.288136,434.57915 c -57.756004,0 -104.560004,15.446 -104.560004,34.531 0,3.969 2.056,7.763 5.781,11.313 0.026,0.028 0.036,0.066 0.063,0.094 0.168,0.159 0.325,0.311 0.5,0.469 0.091,0.092 0.188,0.189 0.281,0.281 0.122,0.136 0.248,0.271 0.375,0.406 0.166,0.157 0.327,0.312 0.5,0.469 0.052,0.052 0.104,0.104 0.156,0.156 0.465,0.524 0.994,1.018 1.531,1.531 0.035,0.038 0.058,0.087 0.094,0.125 0.168,0.159 0.325,0.311 0.5,0.469 0.061,0.062 0.125,0.126 0.188,0.188 0.414,0.465 0.872,0.918 1.344,1.375 0.399,0.437 0.863,0.852 1.313,1.281 0.035,0.038 0.058,0.087 0.094,0.125 0.168,0.159 0.325,0.311 0.5,0.469 0.061,0.062 0.125,0.126 0.188,0.188 0.438,0.491 0.936,0.955 1.438,1.438 0.055,0.06 0.1,0.128 0.156,0.188 0.168,0.159 0.325,0.311 0.5,0.469 0.091,0.092 0.188,0.189 0.281,0.281 0.122,0.136 0.248,0.271 0.375,0.406 0.166,0.157 0.327,0.312 0.5,0.469 0.052,0.052 0.104,0.104 0.156,0.156 0.465,0.524 0.994,1.018 1.531,1.531 0.035,0.038 0.058,0.087 0.094,0.125 0.168,0.159 0.325,0.311 0.5,0.469 0.061,0.062 0.125,0.126 0.188,0.188 0.452,0.507 0.949,1 1.469,1.5 0.041,0.044 0.084,0.081 0.125,0.125 0.168,0.159 0.325,0.311 0.5,0.469 0.091,0.092 0.188,0.189 0.281,0.281 0.122,0.136 0.248,0.271 0.375,0.406 0.166,0.157 0.327,0.312 0.5,0.469 0.052,0.052 0.104,0.104 0.156,0.156 0.465,0.524 0.994,1.018 1.531,1.531 0.035,0.038 0.058,0.087 0.094,0.125 0.168,0.159 0.325,0.311 0.5,0.469 0.138,0.14 0.263,0.299 0.406,0.438 0.166,0.182 0.356,0.351 0.531,0.531 0.087,0.08 0.161,0.17 0.25,0.25 0.114,0.115 0.226,0.23 0.344,0.344 0.399,0.437 0.863,0.852 1.313,1.281 0.035,0.038 0.058,0.087 0.094,0.125 0.168,0.159 0.325,0.311 0.5,0.469 0.087,0.088 0.161,0.194 0.25,0.281 -0.064,0 -0.124,10e-4 -0.188,0 -0.298,-0.106 -0.581,-0.236 -0.875,-0.344 -0.149,-0.318 -0.285,-0.616 -0.406,-0.938 -0.392,0 -0.779,-0.014 -1.156,-0.031 -0.204,-0.424 -0.377,-0.851 -0.531,-1.281 -0.387,0 -0.754,-0.013 -1.125,-0.031 -0.199,-0.429 -0.383,-0.847 -0.531,-1.281 -0.406,0 -0.8,-0.041 -1.188,-0.063 -0.183,-0.415 -0.333,-0.829 -0.469,-1.25 -0.414,0 -0.826,-0.039 -1.219,-0.063 -0.174,-0.411 -0.31,-0.834 -0.438,-1.25 -0.411,0 -0.831,-0.006 -1.219,-0.031 -0.174,-0.426 -0.344,-0.85 -0.469,-1.281 -0.421,0 -0.824,-0.003 -1.219,-0.031 -0.168,-0.428 -0.319,-0.848 -0.438,-1.281 -0.433,0 -0.848,-0.03 -1.25,-0.063 -0.151,-0.41 -0.3,-0.835 -0.406,-1.25 -0.462,0 -0.891,-0.021 -1.313,-0.063 -0.144,-0.409 -0.245,-0.836 -0.344,-1.25 -0.471,0 -0.922,-0.015 -1.344,-0.063 -0.138,-0.412 -0.22,-0.834 -0.313,-1.25 -0.47,0 -0.932,-0.04 -1.344,-0.094 -0.127,-0.401 -0.26,-0.813 -0.344,-1.219 -0.502,0 -0.956,-0.024 -1.375,-0.094 -0.12,-0.401 -0.204,-0.783 -0.281,-1.188 -0.525,0 -0.998,-0.068 -1.406,-0.156 -0.106,-0.382 -0.183,-0.77 -0.25,-1.156 -0.561,0 -1.064,-0.099 -1.438,-0.219 -0.093,-0.365 -0.16,-0.725 -0.219,-1.094 -0.8,0 -1.441,-0.212 -1.531,-0.469 -0.062,-0.284 -0.115,-0.558 -0.156,-0.844 -0.561,0 -1.01,-0.16 -1.031,-0.344 -0.11,0.197 -0.208,0.396 -0.313,0.594 -0.136,-0.517 -0.246,-1.039 -0.313,-1.563 -0.281,0 -0.49,-0.064 -0.5,-0.156 -0.227,0.409 -0.452,0.806 -0.656,1.219 -0.252,-0.786 -0.41,-1.574 -0.5,-2.375 -1.863,3.352 -2.969,6.848 -2.969,10.438 l 0,32.656 c 0,6.609 3.34,12.885 9.281,18.563 0.414,0.424 0.87,0.832 1.313,1.25 0.361,0.365 0.743,0.734 1.125,1.094 0.011,0.011 0.021,0.021 0.031,0.031 0.345,0.324 0.669,0.649 1.031,0.969 0.33,0.334 0.683,0.67 1.031,1 0.047,0.048 0.077,0.108 0.125,0.156 0.333,0.313 0.65,0.628 1,0.938 0.021,0.02 0.041,0.042 0.063,0.063 0.021,0.021 0.041,0.041 0.063,0.063 0.324,0.303 0.63,0.606 0.969,0.906 0.032,0.03 0.061,0.063 0.094,0.094 0.077,0.077 0.172,0.142 0.25,0.219 0.293,0.271 0.538,0.575 0.844,0.844 0.333,0.313 0.65,0.628 1,0.938 0.385,0.391 0.808,0.771 1.219,1.156 0.016,0.016 0.015,0.046 0.031,0.063 0.312,0.292 0.611,0.587 0.938,0.875 0.391,0.398 0.801,0.795 1.219,1.188 0.011,0.011 0.021,0.021 0.031,0.031 0.313,0.293 0.609,0.585 0.938,0.875 0.032,0.03 0.062,0.064 0.094,0.094 0.032,0.032 0.062,0.062 0.094,0.094 0.301,0.282 0.591,0.565 0.906,0.844 0.35,0.358 0.722,0.71 1.094,1.063 0.338,0.346 0.704,0.69 1.063,1.031 0.384,0.393 0.808,0.769 1.219,1.156 0.042,0.043 0.083,0.082 0.125,0.125 0.291,0.272 0.571,0.543 0.875,0.813 0.313,0.321 0.637,0.652 0.969,0.969 0.407,0.421 0.843,0.836 1.281,1.25 0.053,0.054 0.103,0.103 0.156,0.156 0.281,0.262 0.55,0.522 0.844,0.781 0.363,0.345 0.709,0.691 1.094,1.031 0.064,0.061 0.123,0.127 0.188,0.188 0.153,0.155 0.312,0.315 0.469,0.469 0.17,0.154 0.326,0.316 0.5,0.469 0.043,0.04 0.082,0.085 0.125,0.125 0.032,0.032 0.062,0.062 0.094,0.094 0.27,0.252 0.53,0.501 0.813,0.75 0.059,0.056 0.128,0.1 0.188,0.156 0.047,0.048 0.078,0.109 0.125,0.156 0.261,0.243 0.51,0.479 0.781,0.719 0.404,0.418 0.845,0.808 1.281,1.219 0.048,0.049 0.077,0.107 0.125,0.156 0.262,0.244 0.508,0.477 0.781,0.719 0.058,0.06 0.098,0.128 0.156,0.188 -8.576,-3.102 -15.966,-6.777 -21.906,-10.875 -0.094,-0.156 -0.191,-0.312 -0.281,-0.469 -0.036,0.06 -0.059,0.127 -0.094,0.188 -0.122,-0.086 -0.254,-0.164 -0.375,-0.25 -0.229,-0.359 -0.478,-0.731 -0.688,-1.094 -0.067,0.114 -0.122,0.229 -0.188,0.344 -0.326,-0.492 -0.65,-0.97 -0.938,-1.469 -0.074,0.125 -0.147,0.249 -0.219,0.375 -0.337,-0.507 -0.641,-1.017 -0.938,-1.531 -0.067,0.114 -0.122,0.229 -0.188,0.344 -0.328,-0.495 -0.679,-0.998 -0.969,-1.5 -0.071,0.12 -0.119,0.255 -0.188,0.375 -0.331,-0.5 -0.645,-0.993 -0.938,-1.5 -0.074,0.125 -0.147,0.249 -0.219,0.375 -0.337,-0.507 -0.641,-1.017 -0.938,-1.531 -0.067,0.114 -0.122,0.229 -0.188,0.344 -0.328,-0.495 -0.679,-0.998 -0.969,-1.5 -0.071,0.12 -0.119,0.255 -0.188,0.375 -0.331,-0.5 -0.645,-0.993 -0.938,-1.5 -0.067,0.114 -0.122,0.229 -0.188,0.344 -0.328,-0.495 -0.679,-0.998 -0.969,-1.5 -0.067,0.114 -0.122,0.229 -0.188,0.344 -0.326,-0.493 -0.65,-0.97 -0.938,-1.469 -0.074,0.125 -0.147,0.249 -0.219,0.375 -0.337,-0.507 -0.641,-1.017 -0.938,-1.531 -2.051,3.489 -3.25,7.204 -3.25,10.969 l 0,32.625 c 0,6.457 3.169,12.592 8.844,18.16 0.427,0.453 0.884,0.898 1.344,1.344 0.303,0.316 0.619,0.625 0.938,0.938 0.425,0.45 0.887,0.901 1.344,1.344 0.303,0.316 0.619,0.625 0.938,0.938 0.366,0.388 0.766,0.773 1.156,1.156 0.427,0.453 0.884,0.898 1.344,1.344 0.303,0.316 0.619,0.625 0.938,0.938 0.366,0.388 0.766,0.773 1.156,1.156 0.363,0.385 0.738,0.777 1.125,1.156 0.362,0.383 0.771,0.747 1.156,1.125 0.425,0.45 0.887,0.901 1.344,1.344 0.303,0.316 0.619,0.625 0.938,0.938 0.366,0.388 0.766,0.773 1.156,1.156 0.427,0.453 0.884,0.898 1.344,1.344 0.303,0.316 0.619,0.625 0.938,0.938 0.366,0.388 0.766,0.773 1.156,1.156 0.364,0.386 0.737,0.745 1.125,1.125 0.366,0.388 0.766,0.773 1.156,1.156 0.427,0.453 0.884,0.898 1.344,1.344 0.303,0.316 0.619,0.625 0.938,0.938 0.366,0.388 0.766,0.773 1.156,1.156 0.363,0.385 0.738,0.777 1.125,1.156 0.362,0.383 0.771,0.747 1.156,1.125 0.425,0.45 0.887,0.901 1.344,1.344 0.313,0.327 0.639,0.646 0.969,0.969 0.352,0.372 0.719,0.758 1.094,1.125 0.03,0.032 0.064,0.062 0.094,0.094 -8.838,-3.146 -16.448,-6.901 -22.531,-11.09 -0.094,-0.156 -0.191,-0.312 -0.281,-0.469 -0.038,0.065 -0.087,0.123 -0.125,0.188 -0.103,-0.072 -0.21,-0.146 -0.313,-0.219 -0.241,-0.375 -0.5,-0.746 -0.719,-1.125 -0.072,0.122 -0.118,0.252 -0.188,0.375 -0.331,-0.499 -0.645,-0.994 -0.938,-1.5 -0.074,0.125 -0.147,0.249 -0.219,0.375 -0.337,-0.507 -0.641,-1.018 -0.938,-1.531 -0.067,0.114 -0.122,0.229 -0.188,0.344 -0.328,-0.494 -0.679,-0.999 -0.969,-1.5 -0.067,0.114 -0.122,0.229 -0.188,0.344 -0.326,-0.492 -0.65,-0.97 -0.938,-1.469 -0.074,0.125 -0.147,0.249 -0.219,0.375 -0.337,-0.507 -0.641,-1.018 -0.938,-1.531 -0.067,0.114 -0.122,0.229 -0.188,0.344 -0.328,-0.494 -0.679,-0.999 -0.969,-1.5 -0.071,0.12 -0.119,0.255 -0.188,0.375 -0.331,-0.499 -0.645,-0.994 -0.938,-1.5 -0.067,0.114 -0.122,0.229 -0.188,0.344 -0.328,-0.494 -0.679,-0.999 -0.969,-1.5 -0.067,0.114 -0.122,0.229 -0.188,0.344 -0.326,-0.492 -0.65,-0.97 -0.938,-1.469 -0.074,0.125 -0.147,0.249 -0.219,0.375 -0.337,-0.507 -0.641,-1.018 -0.938,-1.531 -2.051,3.489 -3.25,7.148 -3.25,10.938 l 0,32.656 c 0,6.54 3.269,12.753 9.09,18.375 0.286,0.298 0.574,0.611 0.875,0.906 0.444,0.471 0.927,0.912 1.406,1.375 0.271,0.282 0.56,0.565 0.844,0.844 0.384,0.409 0.776,0.816 1.188,1.219 0.441,0.467 0.931,0.916 1.406,1.375 0.286,0.298 0.574,0.611 0.875,0.906 0.477,0.505 0.983,1 1.5,1.5 0.257,0.265 0.545,0.519 0.813,0.781 0.274,0.291 0.556,0.587 0.844,0.875 0.522,0.564 1.114,1.103 1.688,1.656 0.271,0.282 0.56,0.565 0.844,0.844 0.384,0.409 0.776,0.816 1.188,1.219 0.441,0.467 0.931,0.916 1.406,1.375 0.286,0.298 0.574,0.611 0.875,0.906 0.444,0.471 0.927,0.912 1.406,1.375 0.271,0.282 0.56,0.565 0.844,0.844 0.384,0.409 0.776,0.816 1.188,1.219 0.441,0.467 0.931,0.916 1.406,1.375 0.286,0.298 0.574,0.611 0.875,0.906 0.409,0.433 0.842,0.855 1.281,1.281 0.327,0.343 0.685,0.661 1.031,1 0.274,0.291 0.556,0.587 0.844,0.875 0.522,0.564 1.114,1.103 1.688,1.656 0.271,0.282 0.56,0.565 0.844,0.844 0.384,0.409 0.776,0.816 1.188,1.219 0.441,0.467 0.931,0.916 1.406,1.375 0.286,0.298 0.574,0.611 0.875,0.906 0.444,0.471 0.927,0.912 1.406,1.375 0.271,0.282 0.56,0.565 0.844,0.844 0.384,0.409 0.776,0.816 1.188,1.219 0.441,0.467 0.931,0.916 1.406,1.375 0.271,0.282 0.56,0.565 0.844,0.844 0.423,0.45 0.857,0.901 1.313,1.344 0.327,0.343 0.685,0.661 1.031,1 0.362,0.384 0.739,0.778 1.125,1.156 0.444,0.471 0.927,0.912 1.406,1.375 0.271,0.282 0.56,0.565 0.844,0.844 0.384,0.409 0.776,0.816 1.188,1.219 0.441,0.467 0.931,0.916 1.406,1.375 0.286,0.298 0.574,0.611 0.875,0.906 0.444,0.471 0.927,0.912 1.406,1.375 0.291,0.303 0.601,0.607 0.906,0.906 0.274,0.291 0.556,0.587 0.844,0.875 0.522,0.564 1.114,1.103 1.688,1.656 0.271,0.282 0.56,0.565 0.844,0.844 0.384,0.409 0.776,0.816 1.188,1.219 0.441,0.467 0.931,0.916 1.406,1.375 0.286,0.298 0.574,0.611 0.875,0.906 0.444,0.471 0.927,0.912 1.406,1.375 0.271,0.282 0.56,0.565 0.844,0.844 0.384,0.409 0.776,0.816 1.188,1.219 0.441,0.467 0.931,0.916 1.406,1.375 0.286,0.298 0.574,0.611 0.875,0.906 0.444,0.471 0.927,0.912 1.406,1.375 0.291,0.303 0.601,0.607 0.906,0.906 0.274,0.291 0.556,0.587 0.844,0.875 0.522,0.564 1.114,1.103 1.688,1.656 0.271,0.282 0.56,0.565 0.844,0.844 0.384,0.409 0.776,0.816 1.188,1.219 0.441,0.467 0.931,0.916 1.406,1.375 0.286,0.298 0.574,0.611 0.875,0.906 0.444,0.471 0.927,0.912 1.406,1.375 0.271,0.282 0.56,0.565 0.844,0.844 0.384,0.409 0.776,0.816 1.188,1.219 0.441,0.467 0.931,0.916 1.406,1.375 0.286,0.298 0.574,0.611 0.875,0.906 0.409,0.433 0.842,0.855 1.281,1.281 0.342,0.358 0.7,0.709 1.063,1.063 0.24,0.254 0.499,0.498 0.75,0.75 l -135.12,0 c 1.141,1.156 2.269,2.31 3.438,3.438 0.005,0.005 0.026,-0.005 0.031,0 0.021,0.02 0.041,0.042 0.063,0.063 0.177,0.176 0.353,0.356 0.531,0.531 0.175,0.17 0.325,0.362 0.5,0.531 0.005,0.005 0.026,-0.005 0.031,0 0.117,0.113 0.227,0.231 0.344,0.344 0.267,0.265 0.512,0.549 0.781,0.813 0.005,0.005 0.026,-0.005 0.031,0 0.385,0.377 0.737,0.782 1.125,1.156 0.005,0.005 0.026,-0.005 0.031,0 0.021,0.02 0.041,0.042 0.063,0.063 0.177,0.176 0.353,0.356 0.531,0.531 0.173,0.168 0.326,0.364 0.5,0.531 0.005,0.005 0.026,-0.005 0.031,0 0.116,0.112 0.227,0.232 0.344,0.344 0.264,0.266 0.516,0.548 0.781,0.813 0.005,0.005 0.026,-0.005 0.031,0 0.198,0.197 0.395,0.397 0.594,0.594 0.185,0.18 0.345,0.383 0.531,0.563 0.005,0.005 0.026,-0.005 0.031,0 0.106,0.102 0.206,0.21 0.313,0.313 0.267,0.265 0.512,0.549 0.781,0.813 0.005,0.005 0.026,-0.005 0.031,0 0.385,0.377 0.737,0.782 1.125,1.156 0.005,0.005 0.026,-0.005 0.031,0 0.021,0.02 0.041,0.042 0.063,0.063 0.177,0.176 0.353,0.356 0.531,0.531 0.175,0.17 0.325,0.362 0.5,0.531 0.005,0.005 0.026,-0.005 0.031,0 0.117,0.113 0.227,0.231 0.344,0.344 0.119,0.12 0.227,0.252 0.344,0.375 37.594,30.416 85.44,48.656 137.560004,48.656 120.9,0 218.909996,-98.01 218.909996,-218.91 0,-8.253 -0.454,-16.422 -1.344,-24.438 -0.107,-0.104 -0.205,-0.211 -0.313,-0.313 -0.242,-0.257 -0.521,-0.495 -0.781,-0.75 -0.464,-0.515 -0.966,-1.027 -1.5,-1.531 -0.359,-0.381 -0.759,-0.781 -1.156,-1.156 -0.267,-0.284 -0.555,-0.563 -0.844,-0.844 -0.441,-0.484 -0.935,-0.963 -1.438,-1.438 -0.357,-0.38 -0.729,-0.782 -1.125,-1.156 -0.357,-0.38 -0.761,-0.751 -1.156,-1.125 -0.359,-0.381 -0.759,-0.781 -1.156,-1.156 -0.242,-0.257 -0.521,-0.495 -0.781,-0.75 -0.464,-0.515 -0.966,-1.027 -1.5,-1.531 -0.362,-0.385 -0.755,-0.777 -1.156,-1.156 -0.356,-0.378 -0.731,-0.753 -1.125,-1.125 -0.359,-0.381 -0.759,-0.781 -1.156,-1.156 -0.242,-0.257 -0.521,-0.495 -0.781,-0.75 -0.464,-0.515 -0.966,-1.027 -1.5,-1.531 -0.359,-0.381 -0.759,-0.781 -1.156,-1.156 -0.267,-0.284 -0.555,-0.563 -0.844,-0.844 -0.441,-0.484 -0.935,-0.963 -1.438,-1.438 -0.357,-0.38 -0.728996,-0.782 -1.124996,-1.156 -0.357,-0.38 -0.761,-0.751 -1.156,-1.125 -0.359,-0.381 -0.759,-0.781 -1.156,-1.156 -0.242,-0.257 -0.521,-0.495 -0.781,-0.75 -0.464,-0.515 -0.966,-1.027 -1.5,-1.531 -0.359,-0.381 -0.759,-0.781 -1.156,-1.156 -0.356,-0.378 -0.731,-0.753 -1.125,-1.125 -0.359,-0.381 -0.759,-0.781 -1.156,-1.156 -0.242,-0.257 -0.521,-0.495 -0.781,-0.75 -0.464,-0.515 -0.966,-1.027 -1.5,-1.531 -0.359,-0.381 -0.759,-0.781 -1.156,-1.156 -0.267,-0.284 -0.555,-0.563 -0.844,-0.844 -0.441,-0.484 -0.935,-0.963 -1.438,-1.438 -0.357,-0.38 -0.729,-0.782 -1.125,-1.156 -0.357,-0.38 -0.761,-0.751 -1.156,-1.125 -0.359,-0.381 -0.759,-0.781 -1.156,-1.156 -0.242,-0.257 -0.521,-0.495 -0.781,-0.75 -0.464,-0.515 -0.966,-1.027 -1.5,-1.531 -0.359,-0.381 -0.759,-0.781 -1.156,-1.156 -0.267,-0.284 -0.555,-0.563 -0.844,-0.844 -0.441,-0.484 -0.935,-0.963 -1.438,-1.438 -0.242,-0.257 -0.521,-0.495 -0.781,-0.75 -0.464,-0.515 -0.966,-1.027 -1.5,-1.531 -0.359,-0.381 -0.759,-0.781 -1.156,-1.156 -0.242,-0.257 -0.521,-0.495 -0.781,-0.75 -0.464,-0.515 -0.966,-1.027 -1.5,-1.531 -0.357,-0.38 -0.729,-0.782 -1.125,-1.156 -0.357,-0.38 -0.761,-0.751 -1.156,-1.125 -0.359,-0.381 -0.759,-0.781 -1.156,-1.156 -0.242,-0.257 -0.521,-0.495 -0.781,-0.75 -0.464,-0.515 -0.966,-1.027 -1.5,-1.531 -0.359,-0.381 -0.759,-0.781 -1.156,-1.156 -0.267,-0.284 -0.555,-0.563 -0.844,-0.844 -0.441,-0.484 -0.935,-0.963 -1.438,-1.438 -0.357,-0.38 -0.729,-0.782 -1.125,-1.156 -0.357,-0.38 -0.761,-0.751 -1.156,-1.125 -0.359,-0.381 -0.759,-0.781 -1.156,-1.156 -0.242,-0.257 -0.521,-0.495 -0.781,-0.75 -0.464,-0.515 -0.966,-1.027 -1.5,-1.531 -0.357,-0.38 -0.729,-0.782 -1.125,-1.156 -0.357,-0.38 -0.761,-0.751 -1.156,-1.125 -0.359,-0.381 -0.759,-0.781 -1.156,-1.156 -0.242,-0.257 -0.521,-0.495 -0.781,-0.75 -0.464,-0.515 -0.966,-1.027 -1.5,-1.531 -0.359,-0.381 -0.759,-0.781 -1.156,-1.156 -0.267,-0.284 -0.555,-0.563 -0.844,-0.844 -0.441,-0.484 -0.935,-0.963 -1.438,-1.438 -0.357,-0.38 -0.729,-0.782 -1.125,-1.156 -0.357,-0.38 -0.761,-0.751 -1.156,-1.125 -0.359,-0.381 -0.759,-0.781 -1.156,-1.156 -0.242,-0.257 -0.521,-0.495 -0.781,-0.75 -0.464,-0.515 -0.966,-1.027 -1.5,-1.531 -0.362,-0.385 -0.755,-0.777 -1.156,-1.156 -0.356,-0.378 -0.731,-0.753 -1.125,-1.125 -0.359,-0.381 -0.759,-0.781 -1.156,-1.156 -0.242,-0.257 -0.521,-0.495 -0.781,-0.75 -0.464,-0.515 -0.966,-1.027 -1.5,-1.531 -0.359,-0.381 -0.759,-0.781 -1.156,-1.156 -0.267,-0.284 -0.555,-0.563 -0.844,-0.844 -0.441,-0.484 -0.935,-0.963 -1.438,-1.438 -0.357,-0.38 -0.729,-0.782 -1.125,-1.156 -0.357,-0.38 -0.761,-0.751 -1.156,-1.125 -0.359,-0.381 -0.759,-0.781 -1.156,-1.156 -0.242,-0.257 -0.521,-0.495 -0.781,-0.75 -0.464,-0.515 -0.966,-1.027 -1.5,-1.531 -0.359,-0.381 -0.759,-0.781 -1.156,-1.156 -0.267,-0.284 -0.555,-0.563 -0.844,-0.844 -0.441,-0.484 -0.935,-0.963 -1.438,-1.438 -0.242,-0.257 -0.521,-0.495 -0.781,-0.75 -0.464,-0.515 -0.966,-1.027 -1.5,-1.531 -0.359,-0.381 -0.759,-0.781 -1.156,-1.156 -0.267,-0.284 -0.555,-0.563 -0.844,-0.844 -0.441,-0.484 -0.935,-0.963 -1.438,-1.438 -0.357,-0.38 -0.729,-0.782 -1.125,-1.156 -0.357,-0.38 -0.761,-0.751 -1.156,-1.125 -0.359,-0.381 -0.759,-0.781 -1.156,-1.156 -0.242,-0.257 -0.521,-0.495 -0.781,-0.75 -0.464,-0.515 -0.966,-1.027 -1.5,-1.531 -0.359,-0.381 -0.759,-0.781 -1.1559996,-1.156 -0.267,-0.284 -0.555,-0.563 -0.844,-0.844 -0.441,-0.484 -0.935,-0.963 -1.438,-1.438 -0.357,-0.38 -0.729,-0.782 -1.125,-1.156 -13.237,-14.06 -52.9480004,-24.25 -99.8700004,-24.25" id="path415" fill-opacity="0.235"/>
  <path d="m -93.288136,434.55915 c -57.756004,0 -104.570004,15.471 -104.570004,34.556 0,19.09 46.81,34.556 104.570004,34.556 57.756,0 104.57,-15.471 104.57,-34.556 0,-19.09 -46.81,-34.556 -104.57,-34.556 m -104.320004,46.2 c -1.863,3.352 -2.966,6.859 -2.966,10.448 l 0,32.651 c 0,25.21 48.08,45.712 107.290004,45.712 59.26,0 107.31,-20.511 107.31,-45.712 l 0,-32.651 c 0,-3.589 -1.1,-7.097 -2.939,-10.448 -2.0509996,18.472 -47.945,33.25 -104.38,33.25 -56.430004,0 -102.240004,-14.778 -104.320004,-33.25 m 0.299,65.28 c -2.051,3.489 -3.265,7.201 -3.265,10.965 l 0,32.624 c 0,25.24 48.08,45.657 107.290004,45.657 59.26,0 107.31,-20.431 107.31,-45.657 l 0,-32.624 c 0,-3.765 -1.239,-7.476 -3.265,-10.965 -11.51899959,19.961 -53.647,34.746 -104.05,34.746 -50.360004,0 -92.520004,-14.798 -104.020004,-34.746 m 0,67.45 c -2.051,3.489 -3.265,7.121 -3.265,10.911 l 0,32.679 c 0,25.21 48.08,45.603 107.290004,45.603 59.26,0 107.31,-20.402 107.31,-45.603 l 0,-32.679 c 0,-3.79 -1.239,-7.422 -3.265,-10.911 -11.51899959,19.923 -53.647,34.692 -104.05,34.692 -50.360004,0 -92.520004,-14.769 -104.020004,-34.692 m 96.7,97.9 0,42.42 -147.64,0 c 4.667,4.731 9.557,9.233 14.639,13.523 l 280.640004,0 c 5.082,-4.29 9.971,-8.792 14.639,-13.523 l -147.61,0 0,-42.42 -14.666004,0" id="path417" fill="#ffffff"/>
 </g>
</svg>
