<?xml version="1.0" encoding="UTF-8" standalone="no"?>
<svg xmlns="http://www.w3.org/2000/svg" viewBox="0 0 512 512" height="512" width="512" version="1.1">
 <metadata id="metadata473"/>
 <defs id="defs4">
  <linearGradient gradientUnits="userSpaceOnUse" id="0-1" y2="471.66" x2="0" y1="33.753">
   <stop id="stop7-7" stop-color="#6a6a6a"/>
   <stop offset="0.47" id="stop9-7"/>
   <stop offset="0.494" id="stop11-4" stop-color="#ffffff"/>
   <stop offset="0.901" id="stop13-0" stop-color="#ffffff"/>
   <stop offset="0.955" id="stop15-6"/>
   <stop offset="1" id="stop17-6"/>
  </linearGradient>
 </defs>
 <path d="m 471.95,253.05 c 0,120.9 -98.01,218.91 -218.91,218.91 -120.9,0 -218.91,-98.01 -218.91,-218.91 0,-120.9 98.01,-218.91 218.91,-218.91 120.9,0 218.91,98.01 218.91,218.91" id="path21" fill="#BF9E73" fill-rule="evenodd"/>
 <path d="m 471.95,253.05 c 0,120.9 -98.01,218.91 -218.91,218.91 -120.9,0 -218.91,-98.01 -218.91,-218.91 0,-120.9 98.01,-218.91 218.91,-218.91 120.9,0 218.91,98.01 218.91,218.91" id="path23" opacity="0.05" fill="url(#0-1)" fill-rule="evenodd"/>
 <path d="M 256,1 C 115.17,1 1,115.17 1,256 1,396.83 115.17,511 256,511 396.83,511 511,396.83 511,256 511,115.17 396.83,1 256,1 m 8.827,44.931 c 120.9,0 218.9,98 218.9,218.9 0,120.9 -98,218.9 -218.9,218.9 -120.9,0 -218.93,-98 -218.93,-218.9 0,-120.9 98.03,-218.9 218.93,-218.9" id="path27" fill-rule="evenodd" fill-opacity="0.067"/>
 <path id="path31" d="M 256,4.43 C 117.06,4.43 4.43,117.06 4.43,256 4.43,394.94 117.06,507.57 256,507.57 394.94,507.57 507.57,394.94 507.57,256 507.57,117.06 394.94,4.43 256,4.43 m 5.885,38.556 c 120.9,0 218.9,98 218.9,218.9 0,120.9 -98,218.9 -218.9,218.9 -120.9,0 -218.93,-98 -218.93,-218.9 0,-120.9 98.03,-218.9 218.93,-218.9" fill-rule="evenodd" fill-opacity="0.129"/>
 <path id="path33" d="M 256,8.36 C 119.23,8.36 8.36,119.23 8.36,256 8.36,392.77 119.23,503.64 256,503.64 392.77,503.64 503.64,392.77 503.64,256 503.64,119.23 392.77,8.36 256,8.36 m 2.942,31.691 c 120.9,0 218.9,98 218.9,218.9 0,120.9 -98,218.9 -218.9,218.9 -120.9,0 -218.93,-98 -218.93,-218.9 0,-120.9 98.03,-218.9 218.93,-218.9" fill-rule="evenodd" fill-opacity="0.129"/>
 <path d="M 253.04,7.86 C 117.62,7.86 7.85,117.64 7.85,253.05 c 0,135.42 109.78,245.19 245.19,245.19 135.42,0 245.19,-109.78 245.19,-245.19 C 498.23,117.63 388.45,7.86 253.04,7.86 Z m 0,26.297 c 120.9,0 218.9,98 218.9,218.9 0,120.9 -98,218.9 -218.9,218.9 -120.9,0 -218.93,-98 -218.93,-218.9 0,-120.9 98.03,-218.9 218.93,-218.9 z" id="path35" stroke-opacity="0.31" fill="#ffffff" fill-rule="evenodd" stroke="#000000" stroke-width="4.904"/>
 <path id="path421" d="m 255.81,98.38 c -39.43,0 -71.5,31.695 -71.5,71.13 0,19.969 8.226,38.05 21.469,51.03 0.331,0.337 0.663,0.669 1,1 0.269,0.274 0.539,0.543 0.813,0.813 0.385,0.395 0.762,0.801 1.156,1.188 0.329,0.335 0.665,0.671 1,1 0.386,0.394 0.792,0.771 1.188,1.156 0.27,0.273 0.538,0.544 0.813,0.813 0.331,0.337 0.663,0.669 1,1 0.269,0.274 0.539,0.543 0.813,0.813 0.401,0.411 0.808,0.817 1.219,1.219 0.314,0.32 0.617,0.655 0.938,0.969 0.386,0.394 0.792,0.771 1.188,1.156 0.243,0.246 0.504,0.476 0.75,0.719 0.356,0.364 0.699,0.737 1.063,1.094 0.357,0.364 0.729,0.706 1.094,1.063 0.242,0.246 0.473,0.507 0.719,0.75 0.385,0.395 0.762,0.801 1.156,1.188 0.386,0.394 0.792,0.771 1.188,1.156 0.243,0.246 0.504,0.476 0.75,0.719 0.356,0.364 0.699,0.737 1.063,1.094 0.357,0.364 0.729,0.706 1.094,1.063 0.242,0.246 0.473,0.507 0.719,0.75 0.385,0.395 0.762,0.801 1.156,1.188 0.314,0.32 0.649,0.623 0.969,0.938 0.402,0.41 0.807,0.818 1.219,1.219 0.27,0.273 0.538,0.544 0.813,0.813 0.331,0.337 0.663,0.669 1,1 0.269,0.274 0.539,0.543 0.813,0.813 0.385,0.395 0.762,0.801 1.156,1.188 0.329,0.335 0.665,0.671 1,1 0.386,0.394 0.792,0.771 1.188,1.156 0.27,0.273 0.538,0.544 0.813,0.813 0.331,0.337 0.663,0.669 1,1 0.357,0.364 0.729,0.706 1.094,1.063 0.242,0.246 0.473,0.507 0.719,0.75 0.385,0.395 0.762,0.801 1.156,1.188 0.386,0.394 0.792,0.771 1.188,1.156 0.243,0.246 0.504,0.476 0.75,0.719 0.356,0.364 0.699,0.737 1.063,1.094 0.357,0.364 0.729,0.706 1.094,1.063 0.242,0.246 0.473,0.507 0.719,0.75 0.385,0.395 0.762,0.801 1.156,1.188 0.386,0.394 0.792,0.771 1.188,1.156 0.243,0.246 0.504,0.476 0.75,0.719 0.356,0.364 0.699,0.737 1.063,1.094 0.331,0.337 0.663,0.669 1,1 0.269,0.274 0.539,0.543 0.813,0.813 0.385,0.395 0.762,0.801 1.156,1.188 0.329,0.335 0.665,0.671 1,1 0.386,0.394 0.792,0.771 1.188,1.156 0.27,0.273 0.538,0.544 0.813,0.813 0.331,0.337 0.663,0.669 1,1 0.269,0.274 0.539,0.543 0.813,0.813 0.401,0.411 0.808,0.817 1.219,1.219 0.314,0.32 0.617,0.655 0.938,0.969 0.386,0.394 0.792,0.771 1.188,1.156 0.243,0.246 0.504,0.476 0.75,0.719 0.356,0.364 0.699,0.737 1.063,1.094 0.357,0.364 0.729,0.706 1.094,1.063 0.242,0.246 0.473,0.507 0.719,0.75 0.385,0.395 0.762,0.801 1.156,1.188 0.397,0.405 0.813,0.792 1.219,1.188 0.284,0.287 0.586,0.561 0.875,0.844 0.14,0.142 0.265,0.296 0.406,0.438 0.021,0.02 0.041,0.042 0.063,0.063 -12.907,9.753 -18.08,6.362 -36.438,-10.25 -11.686,-10.576 -24.18,-14.607 -36.12,-13.469 -35.837,3.415 -66.5,53.02 -55.75,110.34 0.031,0.172 8.06,44.22 8.06,44.22 l 0.813,0 c 0.008,0.044 0.188,1 0.188,1 l 0.531,0 0.281,0 0.188,0.969 0.813,0 c 0.008,0.045 0.188,1 0.188,1 l 0.813,0 c 0.008,0.045 0.188,1 0.188,1 l 0.813,0 c 0.008,0.045 0.188,1 0.188,1 l 0.781,0 c 0.008,0.045 0.188,1 0.188,1 l 0.813,0 c 0.008,0.046 0.188,1 0.188,1 l 0.813,0 c 0.008,0.043 0.188,0.969 0.188,0.969 l 0.813,0 0.188,1 0.813,0 c 0.008,0.046 0.188,1 0.188,1 l 0.813,0 0.188,1 0.781,0 c 0.009,0.047 0.188,1 0.188,1 l 0.813,0 c 0.009,0.047 0.188,1 0.188,1 l 0.813,0 c 0.008,0.045 0.188,0.969 0.188,0.969 l 0.813,0 c 0.009,0.048 0.188,1 0.188,1 l 0.813,0 c 0.009,0.048 0.188,1 0.188,1 l 0.813,0 c 0.009,0.048 0.188,1 0.188,1 l 0.781,0 0.188,1 0.813,0 c 0.009,0.049 0.188,1 0.188,1 l 0.813,0 c 0.009,0.049 0.188,1 0.188,1 l 0.813,0 c 0.008,0.046 0.188,0.969 0.188,0.969 l 0.813,0 c 0.009,0.049 0.188,1 0.188,1 l 0.813,0 c 0.009,0.05 0.188,1 0.188,1 l 0.813,0 c 0.009,0.05 0.188,1 0.188,1 l 0.781,0 0.188,1 0.813,0 c 0.009,0.05 0.188,1 0.188,1 l 0.813,0 0.188,0.969 0.813,0 c 0.009,0.051 0.188,1 0.188,1 l 0.813,0 c 0.009,0.051 0.188,1 0.188,1 l 0.813,0 c 0.009,0.052 0.188,1 0.188,1 l 0.781,0 c 0.009,0.052 0.188,1 0.188,1 l 0.813,0 c 0.01,0.052 0.188,1 0.188,1 l 0.813,0 c 0.009,0.05 0.188,0.969 0.188,0.969 l 0.813,0 0.188,1 0.813,0 c 0.01,0.053 0.188,1 0.188,1 l 0.813,0 c 0.01,0.053 0.188,1 0.188,1 l 0.781,0 c 0.01,0.054 0.188,1 0.188,1 l 0.813,0 c 0.01,0.054 0.188,1 0.188,1 l 0.813,0 c 0.009,0.051 0.188,0.969 0.188,0.969 l 0.813,0 c 0.01,0.055 0.188,1 0.188,1 l 0.813,0 0.188,1 0.813,0 c 0.01,0.055 0.188,1 0.188,1 l 0.781,0 0.188,1 0.813,0 c 0.01,0.056 0.188,1 0.188,1 l 0.813,0 c 0.01,0.057 0.188,1 0.188,1 l 0.813,0 c 0.01,0.053 0.188,0.969 0.188,0.969 l 0.813,0 c 0.01,0.057 0.188,1 0.188,1 l 0.813,0 c 0.011,0.058 0.188,1 0.188,1 l 0.813,0 c 0.011,0.058 0.188,1 0.188,1 l 0.781,0 0.188,1 0.813,0 c 0.011,0.059 0.188,1 0.188,1 l 0.813,0 c 0.01,0.056 0.188,0.969 0.188,0.969 l 0.813,0 c 0.002,0.013 0.017,0.141 0.031,0.219 16.871,4.168 34.497,6.406 52.656,6.406 110.81,0 202.4,-82.36 216.91,-189.19 -0.28,-0.283 -0.559,-0.565 -0.844,-0.844 -0.284,-0.289 -0.554,-0.591 -0.844,-0.875 -0.357,-0.364 -0.698,-0.738 -1.063,-1.094 -0.428,-0.435 -0.874,-0.857 -1.313,-1.281 -0.243,-0.244 -0.504,-0.478 -0.75,-0.719 -0.331,-0.336 -0.662,-0.67 -1,-1 -0.331,-0.336 -0.662,-0.67 -1,-1 -0.331,-0.336 -0.662,-0.67 -1,-1 -0.284,-0.289 -0.554,-0.591 -0.844,-0.875 -0.439,-0.448 -0.893,-0.876 -1.344,-1.313 -0.259,-0.261 -0.518,-0.524 -0.781,-0.781 -0.329,-0.335 -0.664,-0.672 -1,-1 -0.331,-0.336 -0.662,-0.67 -1,-1 -0.331,-0.336 -0.662,-0.67 -1,-1 -0.284,-0.289 -0.554,-0.591 -0.844,-0.875 -0.357,-0.364 -0.698,-0.738 -1.063,-1.094 -0.428,-0.435 -0.874,-0.857 -1.313,-1.281 -0.243,-0.244 -0.504,-0.478 -0.75,-0.719 -0.331,-0.336 -0.662,-0.67 -1,-1 -0.331,-0.336 -0.662,-0.67 -1,-1 -0.284,-0.289 -0.554,-0.591 -0.844,-0.875 -0.357,-0.364 -0.698,-0.738 -1.063,-1.094 -0.428,-0.435 -0.874,-0.857 -1.313,-1.281 -0.243,-0.244 -0.504,-0.478 -0.75,-0.719 -0.331,-0.336 -0.662,-0.67 -1,-1 -0.331,-0.336 -0.662,-0.67 -1,-1 -0.191,-0.194 -0.369,-0.402 -0.563,-0.594 -0.493,-0.509 -0.992,-1.01 -1.5,-1.5 -0.368,-0.373 -0.749,-0.729 -1.125,-1.094 -0.259,-0.261 -0.518,-0.524 -0.781,-0.781 -0.329,-0.335 -0.664,-0.672 -1,-1 -0.331,-0.336 -0.662,-0.67 -1,-1 -0.331,-0.336 -0.662,-0.67 -1,-1 -0.284,-0.289 -0.554,-0.591 -0.844,-0.875 -0.439,-0.448 -0.893,-0.876 -1.344,-1.313 -0.259,-0.261 -0.518,-0.524 -0.781,-0.781 -0.329,-0.335 -0.664,-0.672 -1,-1 -0.331,-0.336 -0.662,-0.67 -1,-1 -0.331,-0.336 -0.662,-0.67 -1,-1 -0.284,-0.289 -0.554,-0.591 -0.844,-0.875 -0.357,-0.364 -0.698,-0.738 -1.063,-1.094 -0.428,-0.435 -0.874,-0.857 -1.313,-1.281 -0.243,-0.244 -0.504,-0.478 -0.75,-0.719 -0.331,-0.336 -0.662,-0.67 -1,-1 -0.331,-0.336 -0.662,-0.67 -1,-1 -0.284,-0.289 -0.554,-0.591 -0.844,-0.875 -0.357,-0.364 -0.698,-0.738 -1.063,-1.094 -0.428,-0.435 -0.874,-0.857 -1.313,-1.281 -0.243,-0.244 -0.504,-0.478 -0.75,-0.719 -0.331,-0.336 -0.662,-0.67 -1,-1 -0.331,-0.336 -0.662,-0.67 -1,-1 -0.331,-0.336 -0.662,-0.67 -1,-1 -0.284,-0.289 -0.554,-0.591 -0.844,-0.875 -0.439,-0.448 -0.893,-0.876 -1.344,-1.313 -0.259,-0.261 -0.518,-0.524 -0.781,-0.781 -0.329,-0.335 -0.664,-0.672 -1,-1 -0.331,-0.336 -0.662,-0.67 -1,-1 -0.331,-0.336 -0.662,-0.67 -1,-1 -0.284,-0.289 -0.554,-0.591 -0.844,-0.875 -0.357,-0.364 -0.698,-0.738 -1.063,-1.094 -0.428,-0.435 -0.874,-0.857 -1.313,-1.281 -0.243,-0.244 -0.504,-0.478 -0.75,-0.719 -0.331,-0.336 -0.662,-0.67 -1,-1 -0.331,-0.336 -0.662,-0.67 -1,-1 -0.284,-0.289 -0.554,-0.591 -0.844,-0.875 -0.357,-0.364 -0.698,-0.738 -1.063,-1.094 -0.428,-0.435 -0.874,-0.857 -1.313,-1.281 -0.243,-0.244 -0.504,-0.478 -0.75,-0.719 -0.331,-0.336 -0.662,-0.67 -1,-1 -0.331,-0.336 -0.662,-0.67 -1,-1 -0.191,-0.194 -0.369,-0.402 -0.563,-0.594 -0.493,-0.509 -0.992,-1.01 -1.5,-1.5 -0.368,-0.373 -0.749,-0.729 -1.125,-1.094 -0.259,-0.261 -0.518,-0.524 -0.781,-0.781 -0.329,-0.335 -0.664,-0.672 -1,-1 -0.331,-0.336 -0.662,-0.67 -1,-1 -0.331,-0.336 -0.662,-0.67 -1,-1 -0.284,-0.289 -0.554,-0.591 -0.844,-0.875 -0.439,-0.448 -0.893,-0.876 -1.344,-1.313 -0.259,-0.261 -0.518,-0.524 -0.781,-0.781 -0.329,-0.335 -0.664,-0.672 -1,-1 -0.331,-0.336 -0.662,-0.67 -1,-1 -0.331,-0.336 -0.662,-0.67 -1,-1 -0.284,-0.289 -0.554,-0.591 -0.844,-0.875 -0.357,-0.364 -0.698,-0.738 -1.063,-1.094 -0.428,-0.435 -0.874,-0.857 -1.313,-1.281 -0.243,-0.244 -0.504,-0.478 -0.75,-0.719 -0.331,-0.336 -0.662,-0.67 -1,-1 -0.331,-0.336 -0.662,-0.67 -1,-1 -0.284,-0.289 -0.554,-0.591 -0.844,-0.875 -0.357,-0.364 -0.698,-0.738 -1.063,-1.094 -0.428,-0.435 -0.874,-0.857 -1.313,-1.281 -0.243,-0.244 -0.504,-0.478 -0.75,-0.719 -0.331,-0.336 -0.662,-0.67 -1,-1 -0.331,-0.336 -0.662,-0.67 -1,-1 -0.331,-0.336 -0.662,-0.67 -1,-1 -0.284,-0.289 -0.554,-0.591 -0.844,-0.875 -0.439,-0.448 -0.893,-0.876 -1.344,-1.313 -0.259,-0.261 -0.518,-0.524 -0.781,-0.781 -0.329,-0.335 -0.664,-0.672 -1,-1 -0.331,-0.336 -0.662,-0.67 -1,-1 -0.331,-0.336 -0.662,-0.67 -1,-1 -0.284,-0.289 -0.554,-0.591 -0.844,-0.875 -0.439,-0.448 -0.893,-0.876 -1.344,-1.313 -0.259,-0.261 -0.518,-0.524 -0.781,-0.781 -0.329,-0.335 -0.664,-0.672 -1,-1 -0.331,-0.336 -0.662,-0.67 -1,-1 -0.331,-0.336 -0.662,-0.67 -1,-1 -0.284,-0.289 -0.554,-0.591 -0.844,-0.875 -0.357,-0.364 -0.698,-0.738 -1.063,-1.094 -0.428,-0.435 -0.874,-0.857 -1.313,-1.281 -0.243,-0.244 -0.504,-0.478 -0.75,-0.719 -0.331,-0.336 -0.662,-0.67 -1,-1 -0.331,-0.336 -0.662,-0.67 -1,-1 -0.191,-0.194 -0.369,-0.402 -0.563,-0.594 -0.473,-0.488 -0.951,-0.963 -1.438,-1.438 -0.404,-0.41 -0.805,-0.819 -1.219,-1.219 -0.243,-0.244 -0.504,-0.478 -0.75,-0.719 -0.329,-0.335 -0.664,-0.672 -1,-1 -0.331,-0.336 -0.662,-0.67 -1,-1 -0.331,-0.336 -0.662,-0.67 -1,-1 -0.284,-0.289 -0.554,-0.591 -0.844,-0.875 -0.439,-0.448 -0.893,-0.876 -1.344,-1.313 -0.259,-0.261 -0.518,-0.524 -0.781,-0.781 -0.329,-0.335 -0.664,-0.672 -1,-1 -0.331,-0.336 -0.662,-0.67 -1,-1 -0.331,-0.336 -0.662,-0.67 -1,-1 -0.284,-0.289 -0.554,-0.591 -0.844,-0.875 -0.357,-0.364 -0.698,-0.738 -1.063,-1.094 -0.428,-0.435 -0.874,-0.857 -1.313,-1.281 -0.243,-0.244 -0.504,-0.478 -0.75,-0.719 -0.331,-0.336 -0.662,-0.67 -1,-1 -0.331,-0.336 -0.662,-0.67 -1,-1 -0.284,-0.289 -0.554,-0.591 -0.844,-0.875 -0.357,-0.364 -0.698,-0.738 -1.063,-1.094 -0.428,-0.435 -0.874,-0.857 -1.313,-1.281 -0.243,-0.244 -0.504,-0.478 -0.75,-0.719 -0.331,-0.336 -0.662,-0.67 -1,-1 -0.331,-0.336 -0.662,-0.67 -1,-1 -0.191,-0.194 -0.369,-0.402 -0.563,-0.594 -0.493,-0.509 -0.992,-1.01 -1.5,-1.5 -0.368,-0.373 -0.749,-0.729 -1.125,-1.094 -0.259,-0.261 -0.518,-0.524 -0.781,-0.781 -0.329,-0.335 -0.664,-0.672 -1,-1 -0.331,-0.336 -0.662,-0.67 -1,-1 -0.331,-0.336 -0.662,-0.67 -1,-1 -0.284,-0.289 -0.554,-0.591 -0.844,-0.875 -0.439,-0.448 -0.893,-0.876 -1.344,-1.313 -0.259,-0.261 -0.518,-0.524 -0.781,-0.781 -0.329,-0.335 -0.664,-0.672 -1,-1 -0.331,-0.336 -0.662,-0.67 -1,-1 -0.331,-0.336 -0.662,-0.67 -1,-1 -0.284,-0.289 -0.554,-0.591 -0.844,-0.875 -0.357,-0.364 -0.698,-0.738 -1.063,-1.094 -0.428,-0.435 -0.874,-0.857 -1.313,-1.281 -0.243,-0.244 -0.504,-0.478 -0.75,-0.719 -0.331,-0.336 -0.662,-0.67 -1,-1 -0.331,-0.336 -0.662,-0.67 -1,-1 -0.191,-0.194 -0.369,-0.402 -0.563,-0.594 -0.473,-0.488 -0.951,-0.963 -1.438,-1.438 -0.404,-0.41 -0.805,-0.819 -1.219,-1.219 -0.243,-0.244 -0.504,-0.478 -0.75,-0.719 -0.329,-0.335 -0.664,-0.672 -1,-1 -0.331,-0.336 -0.662,-0.67 -1,-1 -12.99,-13.191 -31.08,-21.375 -51.09,-21.375" fill-rule="evenodd" fill-opacity="0.235"/>
 <path id="path469" d="m 255.82,98.38 c -39.43,0 -71.5,31.689 -71.5,71.12 0,39.43 32.07,71.5 71.5,71.5 39.43,0 71.5,-32.07 71.5,-71.5 0,-39.43 -32.07,-71.12 -71.5,-71.12 m -60.36,160.69 c -35.837,3.414 -66.5,53.01 -55.742,110.33 l 8.07,44.21 108.02,0 108.02,0 8.457,-44.21 c 14.338,-76.43 -45.517,-139.18 -92.26,-96.88 -23.13,20.934 -25.306,20.934 -48.44,0 -11.686,-10.576 -24.19,-14.593 -36.14,-13.455" fill="#ffffff" fill-rule="evenodd"/>
</svg>
