<?xml version="1.0" encoding="UTF-8" standalone="no"?>
<svg xmlns="http://www.w3.org/2000/svg" height="512" width="512" version="1.1" viewBox="0 0 512 512">
 <metadata id="metadata468"/>
 <text id="text4" font-size="129.23" line-height="125%" y="231.36" x="729.64" font-family="Gentium Book Basic" word-spacing="0" letter-spacing="0"><tspan id="tspan6" y="231.36" x="729.64"/>
 </text>
 <text id="text8" transform="scale(4.0128 .2492)" font-size="46.954" y="579.25" x="378.91" font-family="Arial" text-anchor="middle"/>
 <text id="text10" font-size="129.23" line-height="125%" y="151.36" x="1310.91" font-family="Gentium Book Basic" word-spacing="0" letter-spacing="0"><tspan id="tspan12" y="151.36" x="1310.91"/>
 </text>
 <text id="text14" transform="scale(4.0128 .2492)" font-size="46.954" y="258.22" x="523.76" font-family="Arial" text-anchor="middle"/>
 <text id="text16" font-size="129.23" line-height="125%" y="-29.901" x="239.33" font-family="Gentium Book Basic" word-spacing="0" letter-spacing="0"><tspan id="tspan18" y="-29.901" x="239.33"/>
 </text>
 <text id="text20" transform="scale(4.0128 .2492)" font-size="46.954" y="-469.14" x="256.72" font-family="Arial" text-anchor="middle"/>
 <text id="text22" font-size="129.23" line-height="125%" y="-246.37" x="1337.38" font-family="Gentium Book Basic" word-spacing="0" letter-spacing="0"><tspan id="tspan24" y="-246.37" x="1337.38"/>
 </text>
 <text id="text26" transform="scale(4.0128 .2492)" font-size="46.954" y="-1337.81" x="530.36" font-family="Arial" text-anchor="middle"/>
 <text id="text28" font-size="129.23" line-height="125%" y="-326.38" x="1918.65" font-family="Gentium Book Basic" word-spacing="0" letter-spacing="0"><tspan id="tspan30" y="-326.38" x="1918.65"/>
 </text>
 <text id="text32" transform="scale(4.0128 .2492)" font-size="46.954" y="-1658.85" x="675.21" font-family="Arial" text-anchor="middle"/>
 <text id="text34" font-size="129.23" line-height="125%" y="-798.78" x="1529.53" font-family="Gentium Book Basic" word-spacing="0" letter-spacing="0"><tspan id="tspan36" y="-798.78" x="1529.53"/>
 </text>
 <text id="text38" transform="scale(4.0128 .2492)" font-size="46.954" y="-3554.51" x="578.24" font-family="Arial" text-anchor="middle"/>
 <text id="text40" font-size="129.23" line-height="125%" y="-878.78" x="2110.79" font-family="Gentium Book Basic" word-spacing="0" letter-spacing="0"><tspan id="tspan42" y="-878.78" x="2110.79"/>
 </text>
 <text id="text44" transform="scale(4.0128 .2492)" font-size="46.954" y="-3875.54" x="723.09" font-family="Arial" text-anchor="middle"/>
 <g id="g46" font-family="Gentium Book Basic" line-height="125%" word-spacing="0" letter-spacing="0">
  <text id="text48" y="535.94" x="277.99" font-size="208.33"><tspan id="tspan50" y="535.94" x="277.99"/>
  </text>
  <text id="text52" y="-11.341" x="-307.18" font-size="200"><tspan id="tspan54" y="-11.341" x="-307.18"/>
  </text>
 </g>
 <text id="text56" transform="scale(4.0128 .2492)" font-size="72.67" y="-585.88" x="228.47" font-family="Arial" text-anchor="middle"/>
 <text id="text58" font-size="200" line-height="125%" y="41.802" x="438.2" font-family="Gentium Book Basic" word-spacing="0" letter-spacing="0"><tspan id="tspan60" y="41.802" x="438.2"/>
 </text>
 <text id="text62" transform="scale(4.0128 .2492)" font-size="72.67" y="-372.63" x="414.22" font-family="Arial" text-anchor="middle"/>
 <text id="text64" font-size="200" line-height="125%" y="-82.02" x="1337.81" font-family="Gentium Book Basic" word-spacing="0" letter-spacing="0"><tspan id="tspan66" y="-82.02" x="1337.81"/>
 </text>
 <text id="text68" transform="scale(4.0128 .2492)" font-size="72.67" y="-869.49" x="638.4" font-family="Arial" text-anchor="middle"/>
 <text id="text70" font-size="200" line-height="125%" y="-134.65" x="465.66" font-family="Gentium Book Basic" word-spacing="0" letter-spacing="0"><tspan id="tspan72" y="-134.65" x="465.66"/>
 </text>
 <text id="text74" transform="scale(4.0128 .2492)" font-size="72.67" y="-1080.71" x="421.06" font-family="Arial" text-anchor="middle"/>
 <text id="text76" font-size="200" line-height="125%" y="-258.47" x="1365.27" font-family="Gentium Book Basic" word-spacing="0" letter-spacing="0"><tspan id="tspan78" y="-258.47" x="1365.27"/>
 </text>
 <text id="text80" transform="scale(4.0128 .2492)" font-size="72.67" y="-1577.57" x="645.24" font-family="Arial" text-anchor="middle"/>
 <text id="text82" font-size="200" line-height="125%" y="317.23" x="-2544.32" font-family="Gentium Book Basic" word-spacing="0" letter-spacing="0"><tspan id="tspan84" y="317.23" x="-2544.32"/>
 </text>
 <text id="text86" transform="scale(4.0128 .2492)" font-size="72.67" y="732.62" x="-329.03" font-family="Arial" text-anchor="middle"/>
 <text id="text88" font-size="200" line-height="125%" y="81.8" x="-616.04" font-family="Gentium Book Basic" word-spacing="0" letter-spacing="0"><tspan id="tspan90" y="81.8" x="-616.04"/>
 </text>
 <text id="text92" transform="scale(4.0128 .2492)" font-size="72.67" y="-212.12" x="151.5" font-family="Arial" text-anchor="middle"/>
 <text id="text94" font-size="200" line-height="125%" y="134.94" x="129.34" font-family="Gentium Book Basic" word-spacing="0" letter-spacing="0"><tspan id="tspan96" y="134.94" x="129.34"/>
 </text>
 <text id="text98" transform="scale(4.0128 .2492)" font-size="72.67" y="1.138" x="337.25" font-family="Arial" text-anchor="middle"/>
 <text id="text100" font-size="200" line-height="125%" y="11.127" x="1028.95" font-family="Gentium Book Basic" word-spacing="0" letter-spacing="0"><tspan id="tspan102" y="11.127" x="1028.95"/>
 </text>
 <text id="text104" transform="scale(4.0128 .2492)" font-size="72.67" y="-495.72" x="561.43" font-family="Arial" text-anchor="middle"/>
 <text id="text106" font-size="200" line-height="125%" y="-41.51" x="156.8" font-family="Gentium Book Basic" word-spacing="0" letter-spacing="0"><tspan id="tspan108" y="-41.51" x="156.8"/>
 </text>
 <text id="text110" transform="scale(4.0128 .2492)" font-size="72.67" y="-706.95" x="344.09" font-family="Arial" text-anchor="middle"/>
 <text id="text112" font-size="200" line-height="125%" y="-165.33" x="1056.42" font-family="Gentium Book Basic" word-spacing="0" letter-spacing="0"><tspan id="tspan114" y="-165.33" x="1056.42"/>
 </text>
 <text id="text116" transform="scale(4.0128 .2492)" font-size="72.67" y="-1203.81" x="568.28" font-family="Arial" text-anchor="middle"/>
 <text id="text118" font-size="200" line-height="125%" y="410.37" x="-2853.18" font-family="Gentium Book Basic" word-spacing="0" letter-spacing="0"><tspan id="tspan120" y="410.37" x="-2853.18"/>
 </text>
 <text id="text122" transform="scale(4.0128 .2492)" font-size="72.67" y="1106.39" x="-406" font-family="Arial" text-anchor="middle"/>
 <text id="text124" font-size="200" line-height="125%" y="-35.06" x="-1330.61" font-family="Gentium Book Basic" word-spacing="0" letter-spacing="0"><tspan id="tspan126" y="-35.06" x="-1330.61"/>
 </text>
 <text id="text128" transform="scale(4.0128 .2492)" font-size="72.67" y="-681.04" x="-26.571" font-family="Arial" text-anchor="middle"/>
 <text id="text130" font-size="200" line-height="125%" y="18.09" x="-585.23" font-family="Gentium Book Basic" word-spacing="0" letter-spacing="0"><tspan id="tspan132" y="18.09" x="-585.23"/>
 </text>
 <text id="text134" transform="scale(4.0128 .2492)" font-size="72.67" y="-467.79" x="159.18" font-family="Arial" text-anchor="middle"/>
 <text id="text136" font-size="200" line-height="125%" y="-105.73" x="314.38" font-family="Gentium Book Basic" word-spacing="0" letter-spacing="0"><tspan id="tspan138" y="-105.73" x="314.38"/>
 </text>
 <text id="text140" transform="scale(4.0128 .2492)" font-size="72.67" y="-964.65" x="383.36" font-family="Arial" text-anchor="middle"/>
 <text id="text142" font-size="200" line-height="125%" y="-158.37" x="-557.77" font-family="Gentium Book Basic" word-spacing="0" letter-spacing="0"><tspan id="tspan144" y="-158.37" x="-557.77"/>
 </text>
 <text id="text146" transform="scale(4.0128 .2492)" font-size="72.67" y="-1175.88" x="166.02" font-family="Arial" text-anchor="middle"/>
 <text id="text148" font-size="200" line-height="125%" y="-282.18" x="341.85" font-family="Gentium Book Basic" word-spacing="0" letter-spacing="0"><tspan id="tspan150" y="-282.18" x="341.85"/>
 </text>
 <text id="text152" transform="scale(4.0128 .2492)" font-size="72.67" y="-1672.73" x="390.2" font-family="Arial" text-anchor="middle"/>
 <text id="text154" font-size="200" line-height="125%" y="293.52" x="-3567.75" font-family="Gentium Book Basic" word-spacing="0" letter-spacing="0"><tspan id="tspan156" y="293.52" x="-3567.75"/>
 </text>
 <text id="text158" transform="scale(4.0128 .2492)" font-size="72.67" y="637.46" x="-584.07" font-family="Arial" text-anchor="middle"/>
 <g id="g160" fill-rule="evenodd">
  <path id="path162" d="m471.95 253.05c0 120.9-98.01 218.9-218.9 218.9-120.9 0-218.9-98.01-218.9-218.9 0-120.9 98.01-218.9 218.9-218.9 120.9 0 218.9 98.01 218.9 218.9" fill="#BF9E73"/>
  <path id="path164" d="m252.56 105.69c-72.04 0.287-137.95 59.39-145.62 131.19-7.337 50.96 15.03 102.8 53.5 136.09 33.02 32.891 65.918 65.89 98.84 98.88 115.91-3.247 209.28-96.59 212.56-212.5-39.42-39.587-78.8-79.23-118.87-118.12-26.788-22.824-61.769-35.649-96.97-35.5-1.146-0.025-2.294-0.036-3.438-0.031" fill-opacity="0.235"/>
  <path id="path166" d="m256 1c-140.83 0-255 114.17-255 255s114.17 255 255 255 255-114.17 255-255-114.17-255-255-255m8.827 44.931c120.9 0 218.9 98 218.9 218.9s-98 218.9-218.9 218.9-218.93-98-218.93-218.9 98.03-218.9 218.93-218.9" fill-opacity="0.067"/>
  <g id="g168" fill-opacity="0.129">
   <path id="path170" d="m256 4.433c-138.94 0-251.57 112.63-251.57 251.57s112.63 251.57 251.57 251.57 251.57-112.63 251.57-251.57-112.63-251.57-251.57-251.57m5.885 38.556c120.9 0 218.9 98 218.9 218.9s-98 218.9-218.9 218.9-218.93-98-218.93-218.9 98.03-218.9 218.93-218.9"/>
   <path id="path172" d="m256 8.356c-136.77 0-247.64 110.87-247.64 247.64s110.87 247.64 247.64 247.64 247.64-110.87 247.64-247.64-110.87-247.64-247.64-247.64m2.942 31.691c120.9 0 218.9 98 218.9 218.9s-98 218.9-218.9 218.9-218.93-98-218.93-218.9 98.03-218.9 218.93-218.9"/>
  </g>
  <path id="path174" d="m253.04 7.859c-135.42 0-245.19 109.78-245.19 245.19 0 135.42 109.78 245.19 245.19 245.19 135.42 0 245.19-109.78 245.19-245.19 0-135.42-109.78-245.19-245.19-245.19zm0 26.297c120.9 0 218.9 98 218.9 218.9s-98 218.9-218.9 218.9-218.93-98-218.93-218.9 98.03-218.9 218.93-218.9z" stroke-opacity="0.31" stroke="#000" stroke-width="4.904" fill="#fff"/>
 </g>
 <text id="text176" font-size="129.23" line-height="125%" y="231.36" x="729.64" font-family="Gentium Book Basic" word-spacing="0" letter-spacing="0"><tspan id="tspan178" y="231.36" x="729.64"/>
 </text>
 <text id="text180" transform="scale(4.0128 .2492)" font-size="46.954" y="579.25" x="378.91" font-family="Arial" text-anchor="middle"/>
 <text id="text182" font-size="129.23" line-height="125%" y="151.36" x="1310.91" font-family="Gentium Book Basic" word-spacing="0" letter-spacing="0"><tspan id="tspan184" y="151.36" x="1310.91"/>
 </text>
 <text id="text186" transform="scale(4.0128 .2492)" font-size="46.954" y="258.22" x="523.76" font-family="Arial" text-anchor="middle"/>
 <text id="text188" font-size="129.23" line-height="125%" y="-29.901" x="239.33" font-family="Gentium Book Basic" word-spacing="0" letter-spacing="0"><tspan id="tspan190" y="-29.901" x="239.33"/>
 </text>
 <text id="text192" transform="scale(4.0128 .2492)" font-size="46.954" y="-469.14" x="256.72" font-family="Arial" text-anchor="middle"/>
 <text id="text194" font-size="129.23" line-height="125%" y="-246.37" x="1337.38" font-family="Gentium Book Basic" word-spacing="0" letter-spacing="0"><tspan id="tspan196" y="-246.37" x="1337.38"/>
 </text>
 <text id="text198" transform="scale(4.0128 .2492)" font-size="46.954" y="-1337.8" x="530.36" font-family="Arial" text-anchor="middle"/>
 <text id="text200" font-size="129.23" line-height="125%" y="-326.38" x="1918.65" font-family="Gentium Book Basic" word-spacing="0" letter-spacing="0"><tspan id="tspan202" y="-326.38" x="1918.65"/>
 </text>
 <text id="text204" transform="scale(4.0128 .2492)" font-size="46.954" y="-1658.84" x="675.21" font-family="Arial" text-anchor="middle"/>
 <text id="text206" font-size="129.23" line-height="125%" y="-798.78" x="1529.53" font-family="Gentium Book Basic" word-spacing="0" letter-spacing="0"><tspan id="tspan208" y="-798.78" x="1529.53"/>
 </text>
 <text id="text210" transform="scale(4.0128 .2492)" font-size="46.954" y="-3554.49" x="578.24" font-family="Arial" text-anchor="middle"/>
 <text id="text212" font-size="129.23" line-height="125%" y="-878.78" x="2110.79" font-family="Gentium Book Basic" word-spacing="0" letter-spacing="0"><tspan id="tspan214" y="-878.78" x="2110.79"/>
 </text>
 <text id="text216" transform="scale(4.0128 .2492)" font-size="46.954" y="-3875.52" x="723.09" font-family="Arial" text-anchor="middle"/>
 <g id="g218" font-family="Gentium Book Basic" line-height="125%" word-spacing="0" letter-spacing="0">
  <text id="text220" y="535.94" x="277.99" font-size="208.33"><tspan id="tspan222" y="535.94" x="277.99"/>
  </text>
  <text id="text224" y="227.12" x="104.96" font-size="129.23"><tspan id="tspan226" y="227.12" x="104.96"/>
  </text>
 </g>
 <text id="text228" transform="scale(4.0128 .2492)" font-size="46.954" y="562.23" x="223.24" font-family="Arial" text-anchor="middle"/>
 <text id="text230" font-size="129.23" line-height="125%" y="147.11" x="686.23" font-family="Gentium Book Basic" word-spacing="0" letter-spacing="0"><tspan id="tspan232" y="147.11" x="686.23"/>
 </text>
 <text id="text234" transform="scale(4.0128 .2492)" font-size="46.954" y="241.19" x="368.09" font-family="Arial" text-anchor="middle"/>
 <text id="text236" font-size="129.23" line-height="125%" y="-34.14" x="-385.35" font-family="Gentium Book Basic" word-spacing="0" letter-spacing="0"><tspan id="tspan238" y="-34.14" x="-385.35"/>
 </text>
 <text id="text240" transform="scale(4.0128 .2492)" font-size="46.954" y="-486.16" x="101.05" font-family="Arial" text-anchor="middle"/>
 <text id="text242" font-size="129.23" line-height="125%" y="-250.62" x="712.7" font-family="Gentium Book Basic" word-spacing="0" letter-spacing="0"><tspan id="tspan244" y="-250.62" x="712.7"/>
 </text>
 <text id="text246" transform="scale(4.0128 .2492)" font-size="46.954" y="-1354.84" x="374.69" font-family="Arial" text-anchor="middle"/>
 <text id="text248" font-size="129.23" line-height="125%" y="-330.62" x="1293.97" font-family="Gentium Book Basic" word-spacing="0" letter-spacing="0"><tspan id="tspan250" y="-330.62" x="1293.97"/>
 </text>
 <text id="text252" transform="scale(4.0128 .2492)" font-size="46.954" y="-1675.87" x="519.54" font-family="Arial" text-anchor="middle"/>
 <text id="text254" font-size="129.23" line-height="125%" y="-803.02" x="904.85" font-family="Gentium Book Basic" word-spacing="0" letter-spacing="0"><tspan id="tspan256" y="-803.02" x="904.85"/>
 </text>
 <text id="text258" transform="scale(4.0128 .2492)" font-size="46.954" y="-3571.53" x="422.57" font-family="Arial" text-anchor="middle"/>
 <text id="text260" font-size="129.23" line-height="125%" y="-883.02" x="1486.12" font-family="Gentium Book Basic" word-spacing="0" letter-spacing="0"><tspan id="tspan262" y="-883.02" x="1486.12"/>
 </text>
 <text id="text264" transform="scale(4.0128 .2492)" font-size="46.954" y="-3892.57" x="567.42" font-family="Arial" text-anchor="middle"/>
 <g id="g266" font-family="Gentium Book Basic" line-height="125%" word-spacing="0" letter-spacing="0">
  <text id="text268" y="531.69" x="-346.69" font-size="208.33"><tspan id="tspan270" y="531.69" x="-346.69"/>
  </text>
  <text id="text272" y="-15.584" x="-931.86" font-size="200"><tspan id="tspan274" y="-15.584" x="-931.86"/>
  </text>
 </g>
 <text id="text276" transform="scale(4.0128 .2492)" font-size="72.67" y="-602.91" x="72.797" font-family="Arial" text-anchor="middle"/>
 <text id="text278" font-size="200" line-height="125%" y="37.559" x="-186.48" font-family="Gentium Book Basic" word-spacing="0" letter-spacing="0"><tspan id="tspan280" y="37.559" x="-186.48"/>
 </text>
 <text id="text282" transform="scale(4.0128 .2492)" font-size="72.67" y="-389.66" x="258.55" font-family="Arial" text-anchor="middle"/>
 <text id="text284" font-size="200" line-height="125%" y="-86.26" x="713.13" font-family="Gentium Book Basic" word-spacing="0" letter-spacing="0"><tspan id="tspan286" y="-86.26" x="713.13"/>
 </text>
 <text id="text288" transform="scale(4.0128 .2492)" font-size="72.67" y="-886.51" x="482.73" font-family="Arial" text-anchor="middle"/>
 <text id="text290" font-size="200" line-height="125%" y="-138.9" x="-159.02" font-family="Gentium Book Basic" word-spacing="0" letter-spacing="0"><tspan id="tspan292" y="-138.9" x="-159.02"/>
 </text>
 <text id="text294" transform="scale(4.0128 .2492)" font-size="72.67" y="-1097.74" x="265.39" font-family="Arial" text-anchor="middle"/>
 <text id="text296" font-size="200" line-height="125%" y="-262.71" x="740.6" font-family="Gentium Book Basic" word-spacing="0" letter-spacing="0"><tspan id="tspan298" y="-262.71" x="740.6"/>
 </text>
 <text id="text300" transform="scale(4.0128 .2492)" font-size="72.67" y="-1594.6" x="489.57" font-family="Arial" text-anchor="middle"/>
 <text id="text302" font-size="200" line-height="125%" y="312.99" x="-3169" font-family="Gentium Book Basic" word-spacing="0" letter-spacing="0"><tspan id="tspan304" y="312.99" x="-3169"/>
 </text>
 <text id="text306" transform="scale(4.0128 .2492)" font-size="72.67" y="715.59" x="-484.7" font-family="Arial" text-anchor="middle"/>
 <text id="text308" font-size="200" line-height="125%" y="77.56" x="-1240.72" font-family="Gentium Book Basic" word-spacing="0" letter-spacing="0"><tspan id="tspan310" y="77.56" x="-1240.72"/>
 </text>
 <text id="text312" transform="scale(4.0128 .2492)" font-size="72.67" y="-229.14" x="-4.17" font-family="Arial" text-anchor="middle"/>
 <text id="text314" font-size="200" line-height="125%" y="130.7" x="-495.34" font-family="Gentium Book Basic" word-spacing="0" letter-spacing="0"><tspan id="tspan316" y="130.7" x="-495.34"/>
 </text>
 <text id="text318" transform="scale(4.0128 .2492)" font-size="72.67" y="-15.889" x="181.58" font-family="Arial" text-anchor="middle"/>
 <text id="text320" font-size="200" line-height="125%" y="6.884" x="404.27" font-family="Gentium Book Basic" word-spacing="0" letter-spacing="0"><tspan id="tspan322" y="6.884" x="404.27"/>
 </text>
 <text id="text324" transform="scale(4.0128 .2492)" font-size="72.67" y="-512.75" x="405.76" font-family="Arial" text-anchor="middle"/>
 <text id="text326" font-size="200" line-height="125%" y="-45.754" x="-467.88" font-family="Gentium Book Basic" word-spacing="0" letter-spacing="0"><tspan id="tspan328" y="-45.754" x="-467.88"/>
 </text>
 <text id="text330" transform="scale(4.0128 .2492)" font-size="72.67" y="-723.97" x="188.42" font-family="Arial" text-anchor="middle"/>
 <text id="text332" font-size="200" line-height="125%" y="-169.57" x="431.74" font-family="Gentium Book Basic" word-spacing="0" letter-spacing="0"><tspan id="tspan334" y="-169.57" x="431.74"/>
 </text>
 <text id="text336" transform="scale(4.0128 .2492)" font-size="72.67" y="-1220.83" x="412.61" font-family="Arial" text-anchor="middle"/>
 <text id="text338" font-size="200" line-height="125%" y="406.13" x="-3477.86" font-family="Gentium Book Basic" word-spacing="0" letter-spacing="0"><tspan id="tspan340" y="406.13" x="-3477.86"/>
 </text>
 <text id="text342" transform="scale(4.0128 .2492)" font-size="72.67" y="1089.36" x="-561.67" font-family="Arial" text-anchor="middle"/>
 <text id="text344" font-size="200" line-height="125%" y="-39.3" x="-1955.29" font-family="Gentium Book Basic" word-spacing="0" letter-spacing="0"><tspan id="tspan346" y="-39.3" x="-1955.29"/>
 </text>
 <text id="text348" transform="scale(4.0128 .2492)" font-size="72.67" y="-698.07" x="-182.24" font-family="Arial" text-anchor="middle"/>
 <text id="text350" font-size="200" line-height="125%" y="13.844" x="-1209.91" font-family="Gentium Book Basic" word-spacing="0" letter-spacing="0"><tspan id="tspan352" y="13.844" x="-1209.91"/>
 </text>
 <text id="text354" transform="scale(4.0128 .2492)" font-size="72.67" y="-484.82" x="3.507" font-family="Arial" text-anchor="middle"/>
 <text id="text356" font-size="200" line-height="125%" y="-109.97" x="-310.3" font-family="Gentium Book Basic" word-spacing="0" letter-spacing="0"><tspan id="tspan358" y="-109.97" x="-310.3"/>
 </text>
 <text id="text360" transform="scale(4.0128 .2492)" font-size="72.67" y="-981.68" x="227.69" font-family="Arial" text-anchor="middle"/>
 <text id="text362" font-size="200" line-height="125%" y="-162.61" x="-1182.45" font-family="Gentium Book Basic" word-spacing="0" letter-spacing="0"><tspan id="tspan364" y="-162.61" x="-1182.45"/>
 </text>
 <text id="text366" transform="scale(4.0128 .2492)" font-size="72.67" y="-1192.9" x="10.351" font-family="Arial" text-anchor="middle"/>
 <text id="text368" font-size="200" line-height="125%" y="-286.43" x="-282.83" font-family="Gentium Book Basic" word-spacing="0" letter-spacing="0"><tspan id="tspan370" y="-286.43" x="-282.83"/>
 </text>
 <text id="text372" transform="scale(4.0128 .2492)" font-size="72.67" y="-1689.76" x="234.54" font-family="Arial" text-anchor="middle"/>
 <text id="text374" font-size="200" line-height="125%" y="289.27" x="-4192.43" font-family="Gentium Book Basic" word-spacing="0" letter-spacing="0"><tspan id="tspan376" y="289.27" x="-4192.43"/>
 </text>
 <text id="text378" transform="scale(4.0128 .2492)" font-size="72.67" y="620.43" x="-739.74" font-family="Arial" text-anchor="middle"/>
 <path id="path380" d="m256 105.72c-82.998 0-150.28 67.28-150.28 150.28 0 82.998 67.28 150.28 150.28 150.28 1.077 0 2.147-0.04 3.219-0.063-0.142-1.173-0.25-2.351-0.25-3.563 0-12.18 7.438-22.503 17.375-29.12 9.937-6.622 22.745-10.281 36.719-10.281 6.851 0 13.356 0.963 19.406 2.656v-135h24.719v0.031c0.089 0.001 19.706 0.229 39.28 14.844 3.282 2.451 6.562 5.322 9.781 8.625-0.857-82.26-67.783-148.69-150.25-148.69m51.781 17.906c17.756 6.938 34.407 17.563 48.75 31.906 12.07 12.07 21.549 25.785 28.375 40.41l-87.81 50.688c-1.716-7.462-5.5-14.562-11.313-20.375-6.05-6.05-13.484-9.857-21.281-11.469l43.28-91.16m-51.78 97.19c19.417 0 35.16 15.744 35.16 35.16 0 19.417-15.744 35.16-35.16 35.16-19.417 0-35.16-15.744-35.16-35.16 0-19.417 15.744-35.16 35.16-35.16m0 7.781c-15.12 0-27.375 12.258-27.375 27.375 0 15.12 12.258 27.375 27.375 27.375 15.12 0 27.375-12.258 27.375-27.375 0-15.12-12.258-27.375-27.375-27.375m0 8.06c10.671 0 19.313 8.642 19.313 19.313s-8.642 19.313-19.313 19.313-19.313-8.642-19.313-19.313 8.642-19.313 19.313-19.313m-41.469 28.625c0.322 1.399 0.722 2.788 1.188 4.156 0.155 0.456 0.298 0.892 0.469 1.344 1.369 3.618 3.257 7.07 5.656 10.281 0.299 0.4 0.592 0.796 0.906 1.188 0.949 1.18 1.968 2.311 3.063 3.406 1.891 1.891 3.899 3.543 6.03 5 0.426 0.291 0.847 0.601 1.281 0.875 1.742 1.099 3.553 2.056 5.406 2.875 0.923 0.409 1.837 0.755 2.781 1.094 1.416 0.509 2.891 0.959 4.344 1.313 0.484 0.118 0.951 0.212 1.438 0.313l-43.28 91.16c-1.117-0.437-2.235-0.846-3.344-1.313-1.101-0.462-2.19-0.947-3.281-1.438-2.193-0.988-4.319-2.02-6.469-3.125-1.063-0.545-2.136-1.145-3.188-1.719-0.009-0.003-0.024 0.003-0.031 0-1.059-0.578-2.078-1.143-3.125-1.75-2.1-1.218-4.17-2.478-6.219-3.813-1.021-0.665-2.026-1.337-3.03-2.031-4.04-2.779-7.955-5.785-11.75-9.03-0.942-0.805-1.887-1.635-2.813-2.469-0.005-0.005-0.026 0.005-0.031 0-0.931-0.838-1.836-1.695-2.75-2.563-0.914-0.867-1.823-1.759-2.719-2.656-4.533-4.533-8.675-9.294-12.469-14.25-0.631-0.825-1.233-1.633-1.844-2.469-5.501-7.52-10.189-15.461-14.03-23.688l87.81-50.688m152.63 29.344v62.47c12.05-13.236 21.763-28.622 28.5-45.531-0.25-0.272-0.498-0.545-0.75-0.813-8.579-9.115-17.33-15.166-27.75-16.12" fill="#fff"/>
 <text id="text382" font-size="4847.5" line-height="125%" y="1209.21" x="-27704.54" font-family="Gentium Book Basic" word-spacing="0" letter-spacing="0"><tspan id="tspan384" y="1209.21" x="-27704.54"/>
 </text>
 <text id="text386" transform="scale(4.0128 .2492)" font-size="1761.4" y="-8245.29" x="488.95" font-family="Arial" text-anchor="middle"/>
 <text id="text388" font-size="4847.5" line-height="125%" y="2121.1" x="-27839.26" font-family="Gentium Book Basic" word-spacing="0" letter-spacing="0"><tspan id="tspan390" y="2121.1" x="-27839.26"/>
 </text>
 <text id="text392" transform="scale(4.0128 .2492)" font-size="1761.4" y="-4586.1" x="455.42" font-family="Arial" text-anchor="middle"/>
 <g id="g394" fill="#BF9E73">
  <text id="text396" transform="scale(1.0508 .95163)" line-height="125%" font-size="2975.6" y="-4932.81" x="-13349.95" font-family="Gentium Book Basic" word-spacing="0" letter-spacing="0"><tspan id="tspan398" y="-4932.81" x="-13349.95"/>
  </text>
  <text id="text400" transform="scale(4.2168 .23715)" font-size="1081.3" y="-27834.31" x="1211.27" font-family="Arial" text-anchor="middle"/>
  <text id="text402" transform="scale(1.0508 .95163)" line-height="125%" font-size="1592.9" y="-5757.68" x="-3948.82" font-family="Gentium Book Basic" word-spacing="0" letter-spacing="0"><tspan id="tspan404" y="-5757.68" x="-3948.82"/>
  </text>
  <text id="text406" transform="scale(4.2168 .23715)" font-size="578.78" y="-27408.26" x="1445.33" font-family="Arial" text-anchor="middle"/>
  <text id="text408" font-size="4653.7" line-height="125%" y="-1903.88" x="-40036.84" font-family="Gentium Book Basic" word-spacing="0" letter-spacing="0"><tspan id="tspan410" y="-1903.88" x="-40036.84"/>
  </text>
  <text id="text412" transform="scale(4.0128 .2492)" font-size="1690.9" y="-20213.15" x="-2879.85" font-family="Arial" text-anchor="middle"/>
 </g>
 <g id="g414">
  <text id="text416" stroke-width="23.268" font-size="4847.5" line-height="125%" stroke="#cd1d31" y="-14128.22" x="-25856.32" font-family="Gentium Book Basic" word-spacing="0" letter-spacing="0"><tspan id="tspan418" y="-14128.22" x="-25856.32"/>
  </text>
  <text id="text420" transform="scale(4.0128 .2492)" font-size="1761.4" y="-69791.79" x="949.66" font-family="Arial" text-anchor="middle"/>
  <text id="text422" stroke-width="23.268" font-size="4847.5" line-height="125%" stroke="#cd1d31" y="-13216.33" x="-25991.28" font-family="Gentium Book Basic" word-spacing="0" letter-spacing="0"><tspan id="tspan424" y="-13216.33" x="-25991.28"/>
  </text>
  <text id="text426" transform="scale(4.0128 .2492)" font-size="1761.4" y="-66132.37" x="916" font-family="Arial" text-anchor="middle"/>
 </g>
 <g id="g428" fill="#BF9E73" transform="matrix(23.268 0 0 23.268 -581.38 -175.73)" stroke="#cd1d31">
  <text id="text430" transform="scale(1.0508 .95163)" line-height="125%" font-size="127.88" y="-896.71" x="-474.37" font-family="Gentium Book Basic" word-spacing="0" letter-spacing="0"><tspan id="tspan432" y="-896.71" x="-474.37"/>
  </text>
  <text id="text434" transform="scale(4.2168 .23715)" font-size="46.47" y="-3943.87" x="76.82" font-family="Arial" text-anchor="middle"/>
  <text id="text436" transform="scale(1.0508 .95163)" line-height="125%" font-size="68.46" y="-932.16" x="-70.35" font-family="Gentium Book Basic" word-spacing="0" letter-spacing="0"><tspan id="tspan438" y="-932.16" x="-70.35"/>
  </text>
  <text id="text440" transform="scale(4.2168 .23715)" font-size="24.874" y="-3925.56" x="86.87" font-family="Arial" text-anchor="middle"/>
  <text id="text442" font-size="200" line-height="125%" y="-733.42" x="-1616.23" font-family="Gentium Book Basic" word-spacing="0" letter-spacing="0"><tspan id="tspan444" y="-733.42" x="-1616.23"/>
  </text>
 </g>
 <text id="text446" transform="scale(4.0128 .2492)" font-size="1690.9" y="-81759.64" x="-2419.36" font-family="Arial" fill="#BF9E73" text-anchor="middle"/>
 <g id="g448">
  <text id="text450" stroke-width="23.268" font-size="4653.7" line-height="125%" stroke="#cd1d31" y="-20816.52" x="-8883.58" font-family="Gentium Book Basic" word-spacing="0" letter-spacing="0"><tspan id="tspan452" y="-20816.52" x="-8883.58"/>
  </text>
  <text id="text454" transform="scale(4.0128 .2492)" font-size="1690.9" y="-96106.23" x="4883.42" font-family="Arial" text-anchor="middle"/>
  <text id="text456" stroke-width="23.268" font-size="4653.7" line-height="125%" stroke="#cd1d31" y="-23697.62" x="12049.23" font-family="Gentium Book Basic" word-spacing="0" letter-spacing="0"><tspan id="tspan458" y="-23697.62" x="12049.23"/>
  </text>
  <text id="text460" transform="scale(4.0128 .2492)" font-size="1690.9" y="-107667.36" x="10099.96" font-family="Arial" text-anchor="middle"/>
 </g>
 <path id="path462" d="m357.18 240.92h-14.705v139.94c-7.812-4.695-18.06-7.621-29.41-7.621-24.345 0-44.1 13.152-44.1 29.41s19.758 29.41 44.1 29.41c24.345 0 44.1-13.152 44.1-29.41v-117.62c36.757-5.973 58.808 36.757 73.51 58.808-9.186-102.91-73.51-102.91-73.51-102.91" fill="#fff"/>
</svg>
