<?xml version="1.0" encoding="UTF-8" standalone="no"?>
<svg xmlns="http://www.w3.org/2000/svg" height="512" width="512" version="1.1" viewBox="0 0 512 512">
 <metadata id="metadata280"/>
 <text id="text4" font-size="129.23" line-height="125%" y="369.84" x="1296.56" font-family="Gentium Book Basic" word-spacing="0" letter-spacing="0"><tspan id="tspan6" y="369.84" x="1296.56"/>
 </text>
 <text id="text8" transform="scale(4.0128 .2492)" font-size="46.954" y="1134.95" x="520.18" font-family="Arial" text-anchor="middle"/>
 <text id="text10" font-size="129.23" line-height="125%" y="289.84" x="1877.82" font-family="Gentium Book Basic" word-spacing="0" letter-spacing="0"><tspan id="tspan12" y="289.84" x="1877.82"/>
 </text>
 <text id="text14" transform="scale(4.0128 .2492)" font-size="46.954" y="813.91" x="665.03" font-family="Arial" text-anchor="middle"/>
 <text id="text16" font-size="129.23" line-height="125%" y="108.58" x="806.25" font-family="Gentium Book Basic" word-spacing="0" letter-spacing="0"><tspan id="tspan18" y="108.58" x="806.25"/>
 </text>
 <text id="text20" transform="scale(4.0128 .2492)" font-size="46.954" y="86.56" x="398" font-family="Arial" text-anchor="middle"/>
 <text id="text22" font-size="129.23" line-height="125%" y="-107.89" x="1904.3" font-family="Gentium Book Basic" word-spacing="0" letter-spacing="0"><tspan id="tspan24" y="-107.89" x="1904.3"/>
 </text>
 <text id="text26" transform="scale(4.0128 .2492)" font-size="46.954" y="-782.11" x="671.63" font-family="Arial" text-anchor="middle"/>
 <text id="text28" font-size="129.23" line-height="125%" y="-187.9" x="2485.56" font-family="Gentium Book Basic" word-spacing="0" letter-spacing="0"><tspan id="tspan30" y="-187.9" x="2485.56"/>
 </text>
 <text id="text32" transform="scale(4.0128 .2492)" font-size="46.954" y="-1103.15" x="816.48" font-family="Arial" text-anchor="middle"/>
 <text id="text34" font-size="129.23" line-height="125%" y="-660.3" x="2096.44" font-family="Gentium Book Basic" word-spacing="0" letter-spacing="0"><tspan id="tspan36" y="-660.3" x="2096.44"/>
 </text>
 <text id="text38" transform="scale(4.0128 .2492)" font-size="46.954" y="-2998.81" x="719.51" font-family="Arial" text-anchor="middle"/>
 <text id="text40" font-size="129.23" line-height="125%" y="-740.3" x="2677.71" font-family="Gentium Book Basic" word-spacing="0" letter-spacing="0"><tspan id="tspan42" y="-740.3" x="2677.71"/>
 </text>
 <text id="text44" transform="scale(4.0128 .2492)" font-size="46.954" y="-3319.85" x="864.37" font-family="Arial" text-anchor="middle"/>
 <text id="text46" font-size="208.33" line-height="125%" y="674.42" x="844.9" font-family="Gentium Book Basic" word-spacing="0" letter-spacing="0"><tspan id="tspan48" y="674.42" x="844.9"/>
 </text>
 <path id="path50" fill="#BF9E73" d="m471.95 253.05c0 120.9-98.01 218.9-218.9 218.9-120.9 0-218.9-98.01-218.9-218.9 0-120.9 98.01-218.9 218.9-218.9 120.9 0 218.9 98.01 218.9 218.9" fill-rule="evenodd"/>
 <path id="path52" d="m231.81 111.53c-1.341 0.053-2.773 0.27-4.313 0.719-23.07-0.136-46.15-0.038-69.22-0.063-7.165 6.494 5.575 28.14-7.688 26.25-22.08-4.771-35.569 6.06-29.25 29.625 0.297 75.82-1.296 151.7 0.906 227.47 12.05 15.339 28.06 28.509 41.625 43.03 7.79 7.75 15.565 15.511 23.344 23.281 20.783 6.547 42.898 10.09 65.844 10.09 120.89 0 218.88-97.98 218.88-218.87 0-1.033-0.017-2.064-0.031-3.094-30.884-30.921-61.796-61.865-92.91-92.91-22.467-9.04-13.588 25.23-17.09 31.469-10.481-10.504-20.799-21.92-32.09-31.938-23.04-12.245-8.02 35.05-20.438 18.75-12.12-12.298-24.371-24.337-36.5-36.594-10.389 2.231-13.844-8.789-20.75-13.344-6.01-5.751-10.928-14.245-20.313-13.875" fill-opacity="0.235"/>
 <g id="g54" fill-rule="evenodd">
  <path id="path56" d="m256 1c-140.83 0-255 114.17-255 255s114.17 255 255 255 255-114.17 255-255-114.17-255-255-255m8.827 44.931c120.9 0 218.9 98 218.9 218.9s-98 218.9-218.9 218.9-218.93-98-218.93-218.9 98.03-218.9 218.93-218.9" fill-opacity="0.067"/>
  <g id="g58" fill-opacity="0.129">
   <path id="path60" d="m256 4.433c-138.94 0-251.57 112.63-251.57 251.57s112.63 251.57 251.57 251.57 251.57-112.63 251.57-251.57-112.63-251.57-251.57-251.57m5.885 38.556c120.9 0 218.9 98 218.9 218.9s-98 218.9-218.9 218.9-218.93-98-218.93-218.9 98.03-218.9 218.93-218.9"/>
   <path id="path62" d="m256 8.356c-136.77 0-247.64 110.87-247.64 247.64s110.87 247.64 247.64 247.64 247.64-110.87 247.64-247.64-110.87-247.64-247.64-247.64m2.942 31.691c120.9 0 218.9 98 218.9 218.9s-98 218.9-218.9 218.9-218.93-98-218.93-218.9 98.03-218.9 218.93-218.9"/>
  </g>
  <path id="path64" d="m253.04 7.859c-135.42 0-245.19 109.78-245.19 245.19 0 135.42 109.78 245.19 245.19 245.19 135.42 0 245.19-109.78 245.19-245.19 0-135.42-109.78-245.19-245.19-245.19zm0 26.297c120.9 0 218.9 98 218.9 218.9s-98 218.9-218.9 218.9-218.93-98-218.93-218.9 98.03-218.9 218.93-218.9z" stroke-opacity="0.31" stroke="#000" stroke-width="4.904" fill="#fff"/>
 </g>
 <text id="text66" font-size="129.23" line-height="125%" y="231.36" x="729.64" font-family="Gentium Book Basic" word-spacing="0" letter-spacing="0"><tspan id="tspan68" y="231.36" x="729.64"/>
 </text>
 <text id="text70" transform="scale(4.0128 .2492)" font-size="46.954" y="579.25" x="378.91" font-family="Arial" text-anchor="middle"/>
 <text id="text72" font-size="129.23" line-height="125%" y="151.36" x="1310.91" font-family="Gentium Book Basic" word-spacing="0" letter-spacing="0"><tspan id="tspan74" y="151.36" x="1310.91"/>
 </text>
 <text id="text76" transform="scale(4.0128 .2492)" font-size="46.954" y="258.22" x="523.76" font-family="Arial" text-anchor="middle"/>
 <text id="text78" font-size="129.23" line-height="125%" y="-29.901" x="239.33" font-family="Gentium Book Basic" word-spacing="0" letter-spacing="0"><tspan id="tspan80" y="-29.901" x="239.33"/>
 </text>
 <text id="text82" transform="scale(4.0128 .2492)" font-size="46.954" y="-469.14" x="256.72" font-family="Arial" text-anchor="middle"/>
 <text id="text84" font-size="129.23" line-height="125%" y="-246.37" x="1337.38" font-family="Gentium Book Basic" word-spacing="0" letter-spacing="0"><tspan id="tspan86" y="-246.37" x="1337.38"/>
 </text>
 <text id="text88" transform="scale(4.0128 .2492)" font-size="46.954" y="-1337.8" x="530.36" font-family="Arial" text-anchor="middle"/>
 <text id="text90" font-size="129.23" line-height="125%" y="-326.38" x="1918.65" font-family="Gentium Book Basic" word-spacing="0" letter-spacing="0"><tspan id="tspan92" y="-326.38" x="1918.65"/>
 </text>
 <text id="text94" transform="scale(4.0128 .2492)" font-size="46.954" y="-1658.84" x="675.21" font-family="Arial" text-anchor="middle"/>
 <text id="text96" font-size="129.23" line-height="125%" y="-798.78" x="1529.53" font-family="Gentium Book Basic" word-spacing="0" letter-spacing="0"><tspan id="tspan98" y="-798.78" x="1529.53"/>
 </text>
 <text id="text100" transform="scale(4.0128 .2492)" font-size="46.954" y="-3554.49" x="578.24" font-family="Arial" text-anchor="middle"/>
 <text id="text102" font-size="129.23" line-height="125%" y="-878.78" x="2110.79" font-family="Gentium Book Basic" word-spacing="0" letter-spacing="0"><tspan id="tspan104" y="-878.78" x="2110.79"/>
 </text>
 <text id="text106" transform="scale(4.0128 .2492)" font-size="46.954" y="-3875.52" x="723.09" font-family="Arial" text-anchor="middle"/>
 <g id="g108" font-family="Gentium Book Basic" line-height="125%" word-spacing="0" letter-spacing="0">
  <text id="text110" y="535.94" x="277.99" font-size="208.33"><tspan id="tspan112" y="535.94" x="277.99"/>
  </text>
  <text id="text114" y="1125.07" x="-27646.87" font-size="4848.2"><tspan id="tspan116" y="1125.07" x="-27646.87"/>
  </text>
 </g>
 <text id="text118" transform="scale(4.0128 .2492)" font-size="1761.7" y="-8584.7" x="504.33" font-family="Arial" text-anchor="middle"/>
 <text id="text120" font-size="4848.2" line-height="125%" y="2037.09" x="-27781.61" font-family="Gentium Book Basic" word-spacing="0" letter-spacing="0"><tspan id="tspan122" y="2037.09" x="-27781.61"/>
 </text>
 <text id="text124" transform="scale(4.0128 .2492)" font-size="1761.7" y="-4925.02" x="470.79" font-family="Arial" text-anchor="middle"/>
 <g id="g126" fill="#BF9E73" transform="matrix(23.272 0 0 23.272 -520.02 -260.06)">
  <text id="text128" transform="scale(1.0508 .95163)" line-height="125%" font-size="127.88" y="-204.06" x="-549.96" font-family="Gentium Book Basic" word-spacing="0" letter-spacing="0"><tspan id="tspan130" y="-204.06" x="-549.96"/>
  </text>
  <text id="text132" transform="scale(4.2168 .23715)" font-size="46.47" y="-1164.37" x="57.981" font-family="Arial" text-anchor="middle"/>
  <text id="text134" transform="scale(1.0508 .95163)" line-height="125%" font-size="68.46" y="-239.51" x="-145.93" font-family="Gentium Book Basic" word-spacing="0" letter-spacing="0"><tspan id="tspan136" y="-239.51" x="-145.93"/>
  </text>
  <text id="text138" transform="scale(4.2168 .23715)" font-size="24.874" y="-1146.06" x="68.04" font-family="Arial" text-anchor="middle"/>
  <text id="text140" font-size="200" line-height="125%" y="-74.27" x="-1695.66" font-family="Gentium Book Basic" word-spacing="0" letter-spacing="0"><tspan id="tspan142" y="-74.27" x="-1695.66"/>
  </text>
  <text id="text144" transform="scale(4.0128 .2492)" font-size="72.67" y="-838.39" x="-117.54" font-family="Arial" text-anchor="middle"/>
 </g>
 <g id="g146" transform="matrix(23.272 0 0 23.272 -520.02 -260.06)">
  <g id="g148">
   <text id="text150" font-size="208.33" line-height="125%" stroke="#cd1d31" y="-599.63" x="-1086.23" font-family="Gentium Book Basic" word-spacing="0" letter-spacing="0"><tspan id="tspan152" y="-599.63" x="-1086.23"/>
   </text>
   <text id="text154" transform="scale(4.0128 .2492)" font-size="75.7" y="-2969.12" x="47.04" font-family="Arial" text-anchor="middle"/>
   <text id="text156" font-size="208.33" line-height="125%" stroke="#cd1d31" y="-560.44" x="-1092.03" font-family="Gentium Book Basic" word-spacing="0" letter-spacing="0"><tspan id="tspan158" y="-560.44" x="-1092.03"/>
   </text>
   <text id="text160" transform="scale(4.0128 .2492)" font-size="75.7" y="-2811.85" x="45.593" font-family="Arial" text-anchor="middle"/>
  </g>
  <g id="g162" fill="#BF9E73">
   <g id="g164" stroke="#cd1d31">
    <text id="text166" transform="scale(1.0508 .95163)" line-height="125%" font-size="127.88" y="-896.71" x="-474.37" font-family="Gentium Book Basic" word-spacing="0" letter-spacing="0"><tspan id="tspan168" y="-896.71" x="-474.37"/>
    </text>
    <text id="text170" transform="scale(4.2168 .23715)" font-size="46.47" y="-3943.87" x="76.82" font-family="Arial" text-anchor="middle"/>
    <text id="text172" transform="scale(1.0508 .95163)" line-height="125%" font-size="68.46" y="-932.16" x="-70.35" font-family="Gentium Book Basic" word-spacing="0" letter-spacing="0"><tspan id="tspan174" y="-932.16" x="-70.35"/>
    </text>
    <text id="text176" transform="scale(4.2168 .23715)" font-size="24.874" y="-3925.56" x="86.87" font-family="Arial" text-anchor="middle"/>
    <text id="text178" font-size="200" line-height="125%" y="-733.42" x="-1616.23" font-family="Gentium Book Basic" word-spacing="0" letter-spacing="0"><tspan id="tspan180" y="-733.42" x="-1616.23"/>
    </text>
   </g>
   <text id="text182" transform="scale(4.0128 .2492)" font-size="72.67" y="-3483.46" x="-97.75" font-family="Arial" text-anchor="middle"/>
  </g>
  <g id="g184">
   <text id="text186" font-size="200" line-height="125%" stroke="#cd1d31" y="-887.07" x="-356.8" font-family="Gentium Book Basic" word-spacing="0" letter-spacing="0"><tspan id="tspan188" y="-887.07" x="-356.8"/>
   </text>
   <text id="text190" transform="scale(4.0128 .2492)" font-size="72.67" y="-4100.03" x="216.1" font-family="Arial" text-anchor="middle"/>
   <text id="text192" font-size="200" line-height="125%" stroke="#cd1d31" y="-1010.89" x="542.82" font-family="Gentium Book Basic" word-spacing="0" letter-spacing="0"><tspan id="tspan194" y="-1010.89" x="542.82"/>
   </text>
   <text id="text196" transform="scale(4.0128 .2492)" font-size="72.67" y="-4596.89" x="440.29" font-family="Arial" text-anchor="middle"/>
  </g>
 </g>
 <text id="text198" font-size="129.23" line-height="125%" y="33.97" x="188.67" font-family="Gentium Book Basic" word-spacing="0" letter-spacing="0"><tspan id="tspan200" y="33.97" x="188.67"/>
 </text>
 <text id="text202" transform="scale(4.0128 .2492)" font-size="46.954" y="-212.84" x="244.1" font-family="Arial" text-anchor="middle"/>
 <text id="text204" font-size="129.23" line-height="125%" y="-46.03" x="769.94" font-family="Gentium Book Basic" word-spacing="0" letter-spacing="0"><tspan id="tspan206" y="-46.03" x="769.94"/>
 </text>
 <text id="text208" transform="scale(4.0128 .2492)" font-size="46.954" y="-533.87" x="388.95" font-family="Arial" text-anchor="middle"/>
 <text id="text210" font-size="129.23" line-height="125%" y="-227.29" x="-301.64" font-family="Gentium Book Basic" word-spacing="0" letter-spacing="0"><tspan id="tspan212" y="-227.29" x="-301.64"/>
 </text>
 <text id="text214" transform="scale(4.0128 .2492)" font-size="46.954" y="-1261.23" x="121.91" font-family="Arial" text-anchor="middle"/>
 <text id="text216" font-size="129.23" line-height="125%" y="-443.76" x="796.41" font-family="Gentium Book Basic" word-spacing="0" letter-spacing="0"><tspan id="tspan218" y="-443.76" x="796.41"/>
 </text>
 <text id="text220" transform="scale(4.0128 .2492)" font-size="46.954" y="-2129.89" x="395.55" font-family="Arial" text-anchor="middle"/>
 <text id="text222" font-size="129.23" line-height="125%" y="-523.77" x="1377.68" font-family="Gentium Book Basic" word-spacing="0" letter-spacing="0"><tspan id="tspan224" y="-523.77" x="1377.68"/>
 </text>
 <text id="text226" transform="scale(4.0128 .2492)" font-size="46.954" y="-2450.93" x="540.4" font-family="Arial" text-anchor="middle"/>
 <text id="text228" font-size="129.23" line-height="125%" y="-996.17" x="988.56" font-family="Gentium Book Basic" word-spacing="0" letter-spacing="0"><tspan id="tspan230" y="-996.17" x="988.56"/>
 </text>
 <text id="text232" transform="scale(4.0128 .2492)" font-size="46.954" y="-4346.58" x="443.43" font-family="Arial" text-anchor="middle"/>
 <text id="text234" font-size="129.23" line-height="125%" y="-1076.17" x="1569.82" font-family="Gentium Book Basic" word-spacing="0" letter-spacing="0"><tspan id="tspan236" y="-1076.17" x="1569.82"/>
 </text>
 <text id="text238" transform="scale(4.0128 .2492)" font-size="46.954" y="-4667.61" x="588.27" font-family="Arial" text-anchor="middle"/>
 <g id="g240" transform="translate(-540.97,-197.39)" font-size="208.33" font-family="Gentium Book Basic" line-height="125%" word-spacing="0" letter-spacing="0">
  <text id="text242" y="535.94" x="277.99"><tspan id="tspan244" y="535.94" x="277.99"/>
  </text>
  <text id="text246" y="11.553" x="-860.84"><tspan id="tspan248" y="11.553" x="-860.84"/>
  </text>
  <text id="text250" y="289.67" x="-3219.67"><tspan id="tspan252" y="289.67" x="-3219.67"/>
  </text>
  <text id="text254" y="62.38" x="-2931.46"><tspan id="tspan256" y="62.38" x="-2931.46"/>
  </text>
  <text id="text258" y="-194.52" x="1263.14"><tspan id="tspan260" y="-194.52" x="1263.14"/>
  </text>
  <text id="text262" y="-49.48" x="-864.79"><tspan id="tspan264" y="-49.48" x="-864.79"/>
  </text>
  <text id="text266" y="228.64" x="-3223.62"><tspan id="tspan268" y="228.64" x="-3223.62"/>
  </text>
  <text id="text270" y="1.35" x="-2935.41"><tspan id="tspan272" y="1.35" x="-2935.41"/>
  </text>
 </g>
 <path id="path274" d="m158.29 112.18-0.932 1.324c-0.765 1.092-0.932 3.412-0.932 13.13v11.804h-14.937c-16.441 0-17.628 0.219-19.357 3.562-0.801 1.548-0.914 16.226-0.914 127.13 0 137.38-0.244 127.75 3.45 129.76 1.419 0.77 11.214 0.893 74.63 0.914l73.03 0.019 2.01-2.033 2.033-2.033v-77.69h62.808l2.275 2.35c4.846 4.993 12.263 4.589 16.448-0.895l1.716-2.256 0.186-16.895c0.134-12.917 0.332-16.914 0.895-16.914 1.162 0 9.12-3.962 12.215-6.079 14.279-9.771 24.575-29.792 25.623-49.866l0.354-6.713h-99.246v3.058c0 8.837 3.549 23.2 7.814 31.646 6.383 12.649 16.16 22.23 27.25 26.723l4.03 1.641 0.168 9.04 0.168 9.04h-62.696v-159.32l-1.734-1.939-1.753-1.958-15.851-0.168-15.87-0.186v-12.159c0-10.261-0.141-12.319-0.932-13.11-0.834-0.834-5.412-0.932-41.44-0.932h-40.504m167.07 43.581c-4.245 0.012-7.587 1.808-9.436 5.072-1.316 2.323-1.333 2.777-1.343 21.02l-0.019 18.648h-8.261c-7.617 0-8.425 0.106-10.294 1.361-1.304 0.876-2.345 2.261-2.909 3.879-0.771 2.214-0.771 2.821 0 5.04 0.564 1.618 1.605 3 2.909 3.879l2.033 1.361h103.2l2.312-2.312c2.101-2.101 2.312-2.612 2.312-5.445s-0.211-3.344-2.312-5.445l-2.312-2.312h-17.454v-19c0-18.782-0.021-19.05-1.361-21.04-0.746-1.107-2.29-2.638-3.431-3.413-1.768-1.201-2.65-1.375-5.967-1.194-4.608 0.252-7.147 1.742-8.951 5.277-1.1 2.157-1.175 3.574-1.175 20.849v18.518h-27.45v-19c0-18.782-0.021-19.05-1.361-21.04-2.217-3.29-4.879-4.711-8.727-4.699" fill="#fff"/>
</svg>
