<?xml version="1.0" encoding="UTF-8" standalone="no"?>
<svg xmlns="http://www.w3.org/2000/svg" viewBox="0 0 512 512">
 <g fill-opacity="0.078">
  <path d="m66.61 0c-4.047 0-7.299 3.253-7.299 7.299v497.4c0 4.047 3.253 7.299 7.299 7.299h378.79c4.047 0 7.299-3.253 7.299-7.299v-359.46l-145.21-145.24h-240.88"/>
  <path d="m69.2 3.5c-3.991 0-7.2 3.208-7.2 7.2v490.6c0 3.991 3.208 7.2 7.2 7.2h373.61c3.991 0 7.2-3.208 7.2-7.2v-354.55l-143.22-143.25h-237.59"/>
  <path d="m71.786 7c-3.936 0-7.1 3.164-7.1 7.1v483.8c0 3.936 3.164 7.1 7.1 7.1h368.43c3.936 0 7.1-3.164 7.1-7.1v-349.63l-141.24-141.27h-234.29"/>
 </g>
 <path fill="#efbe5b" d="m74.38 10.5c-3.881 0-7 3.119-7 7v477c0 3.881 3.119 7 7 7h363.25c3.881 0 7-3.119 7-7v-344.72l-139.25-139.28h-231"/>
 <path d="m308.78 148.78c4.487 5.957 11.24 10.578 16.06 16.313 39.915 39.949 79.85 79.881 119.78 119.81v-135.12h-132.25c-1.321 0-2.542-0.37-3.594-1" fill-opacity="0.235"/>
 <path fill="#fff" d="m444.62 149.78l-139.25-139.28v132.28c0 3.881 3.119 7 7 7h132.25" fill-opacity="0.196"/>
 <g>
  <path opacity="0.25" d="m207.44 210.41c-27.439 0-38.813 12.292-38.813 41.656v47.06c0 17.978-6.817 27.25-22.03 29.344v24.281l21.514 21.514c0.343 2.401 0.518 5 0.518 7.83v47.06c0 15.169 3.036 25.782 9.752 32.498l39.846 39.846h219.41c3.881 0 7-3.119 7-7v-163.91l-111.01-111.01c-6.293-6.293-15.815-9.17-29.09-9.17-2.173 0-7.05 0.012-11.125 0.313v23.969l21.275 21.275c0.12 2.716 0.162 5.787 0.162 9.287v36.844c0 1.736 0.039 3.395 0.113 4.988l-96.36-96.36c-4.075-0.3-8.983-0.313-11.156-0.313"/>
  <path d="m207.44 210.41c-27.439 0-38.813 12.292-38.813 41.656v47.06c0 17.978-6.817 27.25-22.03 29.344v24.281c15.214 2.097 22.03 11.365 22.03 29.344v47.06c0 29.365 11.373 41.656 38.813 41.656 2.173 0 7.081-0.012 11.156-0.313v-23.969c-19.289-1.798-21.438-5.093-21.438-30.563v-36.844c0-23.372-6.538-33.581-24.469-38.37 18.202-5.394 24.469-15.284 24.469-38.656v-36.844c0-25.469 2.149-28.765 21.438-30.563v-23.969c-4.075-0.3-8.983-0.313-11.156-0.313m97.09 0c-2.173 0-7.05 0.012-11.125 0.313v23.969c19.289 1.798 21.438 5.093 21.438 30.563v36.844c0 23.372 6.538 33.581 24.469 38.38-18.202 5.394-24.469 15.284-24.469 38.656v36.844c0 25.469-2.149 28.765-21.438 30.563v23.969c4.075 0.3 8.952 0.313 11.125 0.313 27.439 0 38.844-12.292 38.844-41.656v-47.06c0-17.978 6.817-27.25 22.03-29.344v-24.281c-15.214-2.097-22.03-11.365-22.03-29.344v-47.06c0-29.365-11.405-41.656-38.844-41.656" fill="#fff"/>
 </g>
</svg>
