<?xml version="1.0" encoding="UTF-8" standalone="no"?>
<svg xmlns="http://www.w3.org/2000/svg" xmlns:xlink="http://www.w3.org/1999/xlink" viewBox="0 0 512 512">
 <g fill-opacity="0.078">
  <path d="m32.563 0c-4.774 0-8.594 3.266-8.594 7.313v497.38c0 4.047 3.82 7.313 8.594 7.313h446.88c4.774 0 8.594-3.266 8.594-7.313v-360.03l-144.66-144.66h-310.81"/>
  <path d="m35.625 3.5c-4.709 0-8.5 3.196-8.5 7.188v490.62c0 3.991 3.791 7.188 8.5 7.188h440.75c4.709 0 8.5-3.196 8.5-7.188v-356.28l-141.53-141.53h-307.72"/>
  <path d="m38.688 7c-4.643 0-8.375 3.158-8.375 7.094v483.82c0 3.936 3.732 7.094 8.375 7.094h434.63c4.643 0 8.375-3.158 8.375-7.094v-352.62l-138.28-138.28h-304.72"/>
 </g>
 <path d="m41.719 10.5c-4.578 0-8.25 3.119-8.25 7v477c0 3.881 3.672 7 8.25 7h428.56c4.578 0 8.25-3.119 8.25-7v-348.06l-135.97-135.94h-300.84" fill="#cf2e41"/>
 <path id="0" fill-opacity="0.196" fill="#fff" d="m478.53 146.44l-135.97-135.94v128.94c0 3.881 3.672 7 8.25 7h127.72"/>
 <use width="1" xlink:href="#0" height="1"/>
 <path d="m345.03 144.56l133.5 129.38v-127.5h-127.72c-2.185 0-4.154-0.71-5.625-1.875h-0.156" fill-opacity="0.196"/>
 <g fill-rule="evenodd">
  <path opacity="0.25" d="m254.63 134.25c-42.3 0-85.16 28.27-85.16 71.13v77.969h-31.344v174.16l44 44h288.16c4.578 0 8.25-3.119 8.25-7v-177.75l-156.59-156.59c-15.06-15.06-38.18-25.906-67.31-25.906"/>
  <path d="m254.62 134.26c-42.3 0-85.13 28.26-85.13 71.12v77.973h-31.371v174.17h235.77v-174.17h-32.32v-80.13c0-32.21-33.31-68.955-86.952-68.955m-0.606 39.06c22.778-0.119 47.587 15.78 47.587 40.01v70.02h-93.39l0.037-0.038v-69.68c0-26.28 26.17-40.21 45.768-40.31m1.061 148.22c13.03 0 23.604 10.571 23.604 23.604 0 7.773-3.788 14.644-9.586 18.944l9.358 52.51h-46.34l9.282-52.25c-5.997-4.279-9.927-11.28-9.927-19.21 0-13.03 10.571-23.604 23.604-23.604" fill="#fff"/>
 </g>
</svg>
