<?xml version="1.0" encoding="UTF-8" standalone="no"?>
<svg xmlns="http://www.w3.org/2000/svg" xmlns:xlink="http://www.w3.org/1999/xlink" viewBox="0 0 512 512">
 <text font-size="129.23" y="148.92" x="-109.95" font-family="Gentium Book Basic" line-height="125%" word-spacing="0" letter-spacing="0"><tspan y="148.92" x="-109.95"/>
 </text>
 <text transform="scale(4.0128.2492)" font-size="46.954" y="248.43" x="169.68" font-family="Arial" text-anchor="middle"/>
 <text font-size="129.23" y="68.919" x="471.32" font-family="Gentium Book Basic" line-height="125%" word-spacing="0" letter-spacing="0"><tspan y="68.919" x="471.32"/>
 </text>
 <text transform="scale(4.0128.2492)" font-size="46.954" y="-72.6" x="314.53" font-family="Arial" text-anchor="middle"/>
 <text font-size="129.23" y="-112.34" x="-600.26" font-family="Gentium Book Basic" line-height="125%" word-spacing="0" letter-spacing="0"><tspan y="-112.34" x="-600.26"/>
 </text>
 <text transform="scale(4.0128.2492)" font-size="46.954" y="-799.96" x="47.49" font-family="Arial" text-anchor="middle"/>
 <text font-size="129.23" y="-328.81" x="497.79" font-family="Gentium Book Basic" line-height="125%" word-spacing="0" letter-spacing="0"><tspan y="-328.81" x="497.79"/>
 </text>
 <text transform="scale(4.0128.2492)" font-size="46.954" y="-1668.62" x="321.13" font-family="Arial" text-anchor="middle"/>
 <text font-size="129.23" y="-408.82" x="1079.06" font-family="Gentium Book Basic" line-height="125%" word-spacing="0" letter-spacing="0"><tspan y="-408.82" x="1079.06"/>
 </text>
 <text transform="scale(4.0128.2492)" font-size="46.954" y="-1989.66" x="465.98" font-family="Arial" text-anchor="middle"/>
 <text font-size="129.23" y="-881.22" x="689.94" font-family="Gentium Book Basic" line-height="125%" word-spacing="0" letter-spacing="0"><tspan y="-881.22" x="689.94"/>
 </text>
 <text transform="scale(4.0128.2492)" font-size="46.954" y="-3885.31" x="369.01" font-family="Arial" text-anchor="middle"/>
 <text font-size="129.23" y="-961.22" x="1271.2" font-family="Gentium Book Basic" line-height="125%" word-spacing="0" letter-spacing="0"><tspan y="-961.22" x="1271.2"/>
 </text>
 <text transform="scale(4.0128.2492)" font-size="46.954" y="-4206.34" x="513.86" font-family="Arial" text-anchor="middle"/>
 <text font-size="208.33" y="453.5" x="-561.6" font-family="Gentium Book Basic" line-height="125%" word-spacing="0" letter-spacing="0"><tspan y="453.5" x="-561.6"/>
 </text>
 <path opacity="0.1" d="m36.06 0c-5.63 0-10.156 4.527-10.156 10.156v491.69c0 5.63 4.527 10.156 10.156 10.156h439.88c5.63 0 10.156-4.527 10.156-10.156v-334.09l-167.75-167.75h-282.28"/>
 <path opacity="0.1" d="m39.06 3.5c-5.553 0-10.03 4.479-10.03 10.03v484.94c0 5.553 4.479 10.03 10.03 10.03h433.88c5.553 0 10.03-4.479 10.03-10.03v-327.84l-167.12-167.12h-276.78"/>
 <path opacity="0.1" d="m42.06 7c-5.476 0-9.875 4.399-9.875 9.875v478.25c0 5.476 4.399 9.875 9.875 9.875h427.88c5.476 0 9.875-4.399 9.875-9.875v-321.66l-166.47-166.47h-271.28"/>
 <path d="m45.06 10.5c-5.399 0-9.719 4.351-9.719 9.75v471.5c0 5.399 4.32 9.75 9.719 9.75h421.88c5.399 0 9.719-4.351 9.719-9.75v-315.44l-165.81-165.81h-265.78" fill="#49a026"/>
 <path opacity="0.25" d="m316.59 175.47c10.496 10.551 21.254 21.353 31.938 32.09h-104.87c6.085 6.085 2.171 20.575-0.031 23.531-5.063-5.063-16.484-16.734-23.19-23.438-6.605 0-18.896 0.573-29.5-0.094-9.213 12.85-18.08 26.363-27.16 39.469-12.704-13.577-26.15-25.923-38.906-39.469-10.25 0.007-20.509-0.024-30.75 0l47.938 70-47.938 69.47c7.806 7.243 0.002 0.139 18.25 16.625-0.189 0.637-24.782 0.413-28.09 0.156 0 7.828-0.188 2.308-0.188 13.906 0.281 29.643 0.225 59.29 0 88.94 14.844 14.761 17.75 17.628 34.938 34.844h347.91c5.399 0 9.719-4.351 9.719-9.75v-315.44h-156.09c-1.422 0-2.756-0.3-3.969-0.844"/>
 <path id="0" fill-opacity="0.196" fill="#fff" d="m476.66 176.31l-165.81-165.81v156.06c0 5.399 4.32 9.75 9.719 9.75h156.09"/>
 <use xlink:href="#0"/>
 <text font-size="208.33" y="-43.575" x="-990.51" font-family="Gentium Book Basic" line-height="125%" word-spacing="0" letter-spacing="0"><tspan y="-43.575" x="-990.51"/>
 </text>
 <text transform="scale(4.0128.2492)" font-size="75.7" y="-737.75" x="70.891" font-family="Arial" text-anchor="middle"/>
 <text font-size="208.33" y="-811.53" x="-1638.27" font-family="Gentium Book Basic" line-height="125%" word-spacing="0" letter-spacing="0"><tspan y="-811.53" x="-1638.27"/>
 </text>
 <text transform="scale(4.0128.2492)" font-size="75.7" y="-3819.41" x="-90.53" font-family="Arial" text-anchor="middle"/>
 <text font-size="208.33" y="-967.16" x="-931.93" font-family="Gentium Book Basic" line-height="125%" word-spacing="0" letter-spacing="0"><tspan y="-967.16" x="-931.93"/>
 </text>
 <text transform="scale(4.0128.2492)" font-size="75.7" y="-4443.94" x="85.49" font-family="Arial" text-anchor="middle"/>
 <text font-size="129.23" y="244.38" x="-34.02" font-family="Gentium Book Basic" line-height="125%" word-spacing="0" letter-spacing="0"><tspan y="244.38" x="-34.02"/>
 </text>
 <text transform="scale(4.0128.2492)" font-size="46.954" y="631.48" x="188.6" font-family="Arial" text-anchor="middle"/>
 <text font-size="129.23" y="164.38" x="547.25" font-family="Gentium Book Basic" line-height="125%" word-spacing="0" letter-spacing="0"><tspan y="164.38" x="547.25"/>
 </text>
 <text transform="scale(4.0128.2492)" font-size="46.954" y="310.45" x="333.45" font-family="Arial" text-anchor="middle"/>
 <text font-size="129.23" y="-16.884" x="-524.33" font-family="Gentium Book Basic" line-height="125%" word-spacing="0" letter-spacing="0"><tspan y="-16.884" x="-524.33"/>
 </text>
 <text transform="scale(4.0128.2492)" font-size="46.954" y="-416.9" x="66.41" font-family="Arial" text-anchor="middle"/>
 <text font-size="129.23" y="-233.35" x="573.72" font-family="Gentium Book Basic" line-height="125%" word-spacing="0" letter-spacing="0"><tspan y="-233.35" x="573.72"/>
 </text>
 <text transform="scale(4.0128.2492)" font-size="46.954" y="-1285.57" x="340.05" font-family="Arial" text-anchor="middle"/>
 <text font-size="129.23" y="-313.36" x="1154.99" font-family="Gentium Book Basic" line-height="125%" word-spacing="0" letter-spacing="0"><tspan y="-313.36" x="1154.99"/>
 </text>
 <text transform="scale(4.0128.2492)" font-size="46.954" y="-1606.61" x="484.9" font-family="Arial" text-anchor="middle"/>
 <text font-size="129.23" y="-785.76" x="765.87" font-family="Gentium Book Basic" line-height="125%" word-spacing="0" letter-spacing="0"><tspan y="-785.76" x="765.87"/>
 </text>
 <text transform="scale(4.0128.2492)" font-size="46.954" y="-3502.26" x="387.93" font-family="Arial" text-anchor="middle"/>
 <text font-size="129.23" y="-865.76" x="1347.13" font-family="Gentium Book Basic" line-height="125%" word-spacing="0" letter-spacing="0"><tspan y="-865.76" x="1347.13"/>
 </text>
 <text transform="scale(4.0128.2492)" font-size="46.954" y="-3823.29" x="532.78" font-family="Arial" text-anchor="middle"/>
 <g font-family="Gentium Book Basic" line-height="125%" font-size="208.33" word-spacing="0" letter-spacing="0">
  <text y="548.96" x="-485.67"><tspan y="548.96" x="-485.67"/>
  </text>
  <text y="-513.27" x="-394.98"><tspan y="-513.27" x="-394.98"/>
  </text>
 </g>
 <text transform="scale(4.0128.2492)" font-size="75.7" y="-2622.56" x="219.3" font-family="Arial" text-anchor="middle"/>
 <text font-size="208.33" y="-1281.22" x="-1042.75" font-family="Gentium Book Basic" line-height="125%" word-spacing="0" letter-spacing="0"><tspan y="-1281.22" x="-1042.75"/>
 </text>
 <text transform="scale(4.0128.2492)" font-size="75.7" y="-5704.22" x="57.872" font-family="Arial" text-anchor="middle"/>
 <text font-size="208.33" y="-1436.85" x="-336.41" font-family="Gentium Book Basic" line-height="125%" word-spacing="0" letter-spacing="0"><tspan y="-1436.85" x="-336.41"/>
 </text>
 <text transform="scale(4.0128.2492)" font-size="75.7" y="-6328.75" x="233.89" font-family="Arial" text-anchor="middle"/>
 <g fill="#fff">
  <path d="m9.639 9v14.1c0.216 0.319 0.431 0.517 0.756 0.629h12.11l-3.428-3.447h-6l-0.004-7.863h7.797v6.152l3.492 3.492v-12.11c-0.116-0.653-0.502-0.865-0.959-0.961h-13.764m18.355 5.04c-0.457 0.097-0.845 0.307-0.961 0.961l-0.006 6.875 3.369-3.369v-1.109h3l-0.004 2.986h-1.111l-3.654 3.301h7.359c0.34-0.066 0.562-0.196 0.756-0.582v-9.06h-8.75m-15.518 12.221c-0.34 0.066-0.563 0.196-0.758 0.582v12.16h11.684c0.457-0.096 0.843-0.307 0.959-0.961l0.008-9.918-3.369 3.367v4.086h-5.984l0.004-5.955h4.221l3.428-3.361h-10.191m16.15 0l3.428 3.361h2.932l0.004 4.658h-4.596v-2.789l-3.369-3.367 0.006 8.553c0.116 0.653 0.504 0.865 0.961 0.961h10.367v-10.795c-0.194-0.386-0.418-0.516-0.758-0.582h-8.975" transform="matrix(3.4309 0 0 3.4309 52.15 -.198)"/>
 </g>
 <text font-size="129.23" y="-305.88" x="1009.05" font-family="Gentium Book Basic" line-height="125%" word-spacing="0" letter-spacing="0"><tspan y="-305.88" x="1009.05"/>
 </text>
 <text transform="scale(4.0128.2492)" font-size="46.954" y="-1576.61" x="448.54" font-family="Arial" text-anchor="middle"/>
 <text font-size="129.23" y="-385.88" x="1590.32" font-family="Gentium Book Basic" line-height="125%" word-spacing="0" letter-spacing="0"><tspan y="-385.88" x="1590.32"/>
 </text>
 <text transform="scale(4.0128.2492)" font-size="46.954" y="-1897.64" x="593.39" font-family="Arial" text-anchor="middle"/>
 <text font-size="129.23" y="-567.14" x="518.74" font-family="Gentium Book Basic" line-height="125%" word-spacing="0" letter-spacing="0"><tspan y="-567.14" x="518.74"/>
 </text>
 <text transform="scale(4.0128.2492)" font-size="46.954" y="-2625" x="326.35" font-family="Arial" text-anchor="middle"/>
 <text font-size="129.23" y="-783.61" x="1616.79" font-family="Gentium Book Basic" line-height="125%" word-spacing="0" letter-spacing="0"><tspan y="-783.61" x="1616.79"/>
 </text>
 <text transform="scale(4.0128.2492)" font-size="46.954" y="-3493.66" x="599.99" font-family="Arial" text-anchor="middle"/>
 <text font-size="129.23" y="-863.62" x="2198.06" font-family="Gentium Book Basic" line-height="125%" word-spacing="0" letter-spacing="0"><tspan y="-863.62" x="2198.06"/>
 </text>
 <text transform="scale(4.0128.2492)" font-size="46.954" y="-3814.7" x="744.84" font-family="Arial" text-anchor="middle"/>
 <text font-size="129.23" y="-1336.02" x="1808.94" font-family="Gentium Book Basic" line-height="125%" word-spacing="0" letter-spacing="0"><tspan y="-1336.02" x="1808.94"/>
 </text>
 <text transform="scale(4.0128.2492)" font-size="46.954" y="-5710.35" x="647.87" font-family="Arial" text-anchor="middle"/>
 <text font-size="129.23" y="-1416.02" x="2390.2" font-family="Gentium Book Basic" line-height="125%" word-spacing="0" letter-spacing="0"><tspan y="-1416.02" x="2390.2"/>
 </text>
 <text transform="scale(4.0128.2492)" font-size="46.954" y="-6031.38" x="792.72" font-family="Arial" text-anchor="middle"/>
 <g font-family="Gentium Book Basic" line-height="125%" font-size="208.33" word-spacing="0" letter-spacing="0">
  <text y="-1.303" x="557.4"><tspan y="-1.303" x="557.4"/>
  </text>
  <text y="-498.38" x="128.5"><tspan y="-498.38" x="128.5"/>
  </text>
 </g>
 <text transform="scale(4.0128.2492)" font-size="75.7" y="-2562.79" x="349.75" font-family="Arial" text-anchor="middle"/>
 <text font-size="208.33" y="-1266.33" x="-519.27" font-family="Gentium Book Basic" line-height="125%" word-spacing="0" letter-spacing="0"><tspan y="-1266.33" x="-519.27"/>
 </text>
 <text transform="scale(4.0128.2492)" font-size="75.7" y="-5644.46" x="188.32" font-family="Arial" text-anchor="middle"/>
 <text font-size="208.33" y="-1421.96" x="187.07" font-family="Gentium Book Basic" line-height="125%" word-spacing="0" letter-spacing="0"><tspan y="-1421.96" x="187.07"/>
 </text>
 <text transform="scale(4.0128.2492)" font-size="75.7" y="-6268.98" x="364.34" font-family="Arial" text-anchor="middle"/>
 <text font-size="129.23" y="-136.66" x="659.77" font-family="Gentium Book Basic" line-height="125%" word-spacing="0" letter-spacing="0"><tspan y="-136.66" x="659.77"/>
 </text>
 <text transform="scale(4.0128.2492)" font-size="46.954" y="-897.56" x="361.5" font-family="Arial" text-anchor="middle"/>
 <text font-size="129.23" y="-216.66" x="1241.04" font-family="Gentium Book Basic" line-height="125%" word-spacing="0" letter-spacing="0"><tspan y="-216.66" x="1241.04"/>
 </text>
 <text transform="scale(4.0128.2492)" font-size="46.954" y="-1218.59" x="506.34" font-family="Arial" text-anchor="middle"/>
 <text font-size="129.23" y="-397.92" x="169.46" font-family="Gentium Book Basic" line-height="125%" word-spacing="0" letter-spacing="0"><tspan y="-397.92" x="169.46"/>
 </text>
 <text transform="scale(4.0128.2492)" font-size="46.954" y="-1945.95" x="239.31" font-family="Arial" text-anchor="middle"/>
 <text font-size="129.23" y="-614.39" x="1267.51" font-family="Gentium Book Basic" line-height="125%" word-spacing="0" letter-spacing="0"><tspan y="-614.39" x="1267.51"/>
 </text>
 <text transform="scale(4.0128.2492)" font-size="46.954" y="-2814.61" x="512.94" font-family="Arial" text-anchor="middle"/>
 <text font-size="129.23" y="-694.4" x="1848.78" font-family="Gentium Book Basic" line-height="125%" word-spacing="0" letter-spacing="0"><tspan y="-694.4" x="1848.78"/>
 </text>
 <text transform="scale(4.0128.2492)" font-size="46.954" y="-3135.65" x="657.79" font-family="Arial" text-anchor="middle"/>
 <text font-size="129.23" y="-1166.8" x="1459.66" font-family="Gentium Book Basic" line-height="125%" word-spacing="0" letter-spacing="0"><tspan y="-1166.8" x="1459.66"/>
 </text>
 <text transform="scale(4.0128.2492)" font-size="46.954" y="-5031.3" x="560.82" font-family="Arial" text-anchor="middle"/>
 <text font-size="129.23" y="-1246.8" x="2040.92" font-family="Gentium Book Basic" line-height="125%" word-spacing="0" letter-spacing="0"><tspan y="-1246.8" x="2040.92"/>
 </text>
 <text transform="scale(4.0128.2492)" font-size="46.954" y="-5352.33" x="705.67" font-family="Arial" text-anchor="middle"/>
 <text font-size="208.33" y="167.92" x="208.12" font-family="Gentium Book Basic" line-height="125%" word-spacing="0" letter-spacing="0"><tspan y="167.92" x="208.12"/>
 </text>
 <path d="m94.13 207.56l47.937 70-47.937 69.47h30.75l32.469-48.12 33.406 48.13h30l-48.31-69.47 48.31-70h-30l-33.406 48.688-32.469-48.688h-30.75m149.53 0v156.25h-159.56v24.688c0.541 27.22-0.004 55.01 0 78.13v0.031h343.81v-259.09h-184.24m24.906 24.719h54.781v53.41h-54.781v-53.41m79.69 0h54.781v53.41h-54.781v-53.41m-79.69 78.13h54.781v53.41h-54.781v-53.407m79.69 0h54.781v53.41h-54.781v-53.407m-239.06 78.13h54.781v53.41h-54.781v-53.407m79.69 0h54.781v53.41h-54.781v-53.403m79.69 0h54.781v53.41h-54.781v-53.41m79.69 0h54.781v53.41h-54.781v-53.41" fill="#fff"/>
</svg>
