<?xml version="1.0" encoding="UTF-8" standalone="no"?>
<svg xmlns="http://www.w3.org/2000/svg" xmlns:xlink="http://www.w3.org/1999/xlink" viewBox="0 0 512 512">
 <text font-size="129.23" y="148.92" x="-109.95" font-family="Gentium Book Basic" line-height="125%" word-spacing="0" letter-spacing="0"><tspan y="148.92" x="-109.95"/>
 </text>
 <text transform="scale(4.0128.2492)" font-size="46.954" y="248.43" x="169.68" font-family="Arial" text-anchor="middle"/>
 <text font-size="129.23" y="68.919" x="471.32" font-family="Gentium Book Basic" line-height="125%" word-spacing="0" letter-spacing="0"><tspan y="68.919" x="471.32"/>
 </text>
 <text transform="scale(4.0128.2492)" font-size="46.954" y="-72.6" x="314.53" font-family="Arial" text-anchor="middle"/>
 <text font-size="129.23" y="-112.34" x="-600.26" font-family="Gentium Book Basic" line-height="125%" word-spacing="0" letter-spacing="0"><tspan y="-112.34" x="-600.26"/>
 </text>
 <text transform="scale(4.0128.2492)" font-size="46.954" y="-799.96" x="47.49" font-family="Arial" text-anchor="middle"/>
 <text font-size="129.23" y="-328.81" x="497.79" font-family="Gentium Book Basic" line-height="125%" word-spacing="0" letter-spacing="0"><tspan y="-328.81" x="497.79"/>
 </text>
 <text transform="scale(4.0128.2492)" font-size="46.954" y="-1668.62" x="321.13" font-family="Arial" text-anchor="middle"/>
 <text font-size="129.23" y="-408.82" x="1079.06" font-family="Gentium Book Basic" line-height="125%" word-spacing="0" letter-spacing="0"><tspan y="-408.82" x="1079.06"/>
 </text>
 <text transform="scale(4.0128.2492)" font-size="46.954" y="-1989.66" x="465.98" font-family="Arial" text-anchor="middle"/>
 <text font-size="129.23" y="-881.22" x="689.94" font-family="Gentium Book Basic" line-height="125%" word-spacing="0" letter-spacing="0"><tspan y="-881.22" x="689.94"/>
 </text>
 <text transform="scale(4.0128.2492)" font-size="46.954" y="-3885.31" x="369.01" font-family="Arial" text-anchor="middle"/>
 <text font-size="129.23" y="-961.22" x="1271.2" font-family="Gentium Book Basic" line-height="125%" word-spacing="0" letter-spacing="0"><tspan y="-961.22" x="1271.2"/>
 </text>
 <text transform="scale(4.0128.2492)" font-size="46.954" y="-4206.34" x="513.86" font-family="Arial" text-anchor="middle"/>
 <g font-family="Gentium Book Basic" line-height="125%" font-size="208.33" word-spacing="0" letter-spacing="0">
  <text y="453.5" x="-561.6"><tspan y="453.5" x="-561.6"/>
  </text>
  <text y="-43.575" x="-990.51"><tspan y="-43.575" x="-990.51"/>
  </text>
 </g>
 <text transform="scale(4.0128.2492)" font-size="75.7" y="-737.75" x="70.891" font-family="Arial" text-anchor="middle"/>
 <text font-size="208.33" y="-811.53" x="-1638.27" font-family="Gentium Book Basic" line-height="125%" word-spacing="0" letter-spacing="0"><tspan y="-811.53" x="-1638.27"/>
 </text>
 <text transform="scale(4.0128.2492)" font-size="75.7" y="-3819.41" x="-90.53" font-family="Arial" text-anchor="middle"/>
 <text font-size="208.33" y="-967.16" x="-931.93" font-family="Gentium Book Basic" line-height="125%" word-spacing="0" letter-spacing="0"><tspan y="-967.16" x="-931.93"/>
 </text>
 <text transform="scale(4.0128.2492)" font-size="75.7" y="-4443.94" x="85.49" font-family="Arial" text-anchor="middle"/>
 <text font-size="129.23" y="318.14" x="-459.24" font-family="Gentium Book Basic" line-height="125%" word-spacing="0" letter-spacing="0"><tspan y="318.14" x="-459.24"/>
 </text>
 <text transform="scale(4.0128.2492)" font-size="46.954" y="927.48" x="82.64" font-family="Arial" text-anchor="middle"/>
 <text font-size="129.23" y="238.14" x="122.03" font-family="Gentium Book Basic" line-height="125%" word-spacing="0" letter-spacing="0"><tspan y="238.14" x="122.03"/>
 </text>
 <text transform="scale(4.0128.2492)" font-size="46.954" y="606.45" x="227.49" font-family="Arial" text-anchor="middle"/>
 <text font-size="129.23" y="56.879" x="-949.55" font-family="Gentium Book Basic" line-height="125%" word-spacing="0" letter-spacing="0"><tspan y="56.879" x="-949.55"/>
 </text>
 <text transform="scale(4.0128.2492)" font-size="46.954" y="-120.91" x="-39.552" font-family="Arial" text-anchor="middle"/>
 <text font-size="129.23" y="-159.59" x="148.5" font-family="Gentium Book Basic" line-height="125%" word-spacing="0" letter-spacing="0"><tspan y="-159.59" x="148.5"/>
 </text>
 <text transform="scale(4.0128.2492)" font-size="46.954" y="-989.57" x="234.09" font-family="Arial" text-anchor="middle"/>
 <text font-size="129.23" y="-239.6" x="729.77" font-family="Gentium Book Basic" line-height="125%" word-spacing="0" letter-spacing="0"><tspan y="-239.6" x="729.77"/>
 </text>
 <text transform="scale(4.0128.2492)" font-size="46.954" y="-1310.61" x="378.94" font-family="Arial" text-anchor="middle"/>
 <text font-size="129.23" y="-712" x="340.65" font-family="Gentium Book Basic" line-height="125%" word-spacing="0" letter-spacing="0"><tspan y="-712" x="340.65"/>
 </text>
 <text transform="scale(4.0128.2492)" font-size="46.954" y="-3206.26" x="281.97" font-family="Arial" text-anchor="middle"/>
 <text font-size="129.23" y="-792" x="921.91" font-family="Gentium Book Basic" line-height="125%" word-spacing="0" letter-spacing="0"><tspan y="-792" x="921.91"/>
 </text>
 <text transform="scale(4.0128.2492)" font-size="46.954" y="-3527.29" x="426.82" font-family="Arial" text-anchor="middle"/>
 <text font-size="208.33" y="622.72" x="-910.89" font-family="Gentium Book Basic" line-height="125%" word-spacing="0" letter-spacing="0"><tspan y="622.72" x="-910.89"/>
 </text>
 <path opacity="0.1" d="m36.06 512c-5.63 0-10.156-4.527-10.156-10.156v-491.69c0-5.63 4.527-10.156 10.156-10.156h439.88c5.63 0 10.156 4.527 10.156 10.156v334.09l-167.75 167.75h-282.28"/>
 <path opacity="0.1" d="m39.06 508.5c-5.553 0-10.03-4.479-10.03-10.03v-484.94c0-5.553 4.479-10.03 10.03-10.03h433.88c5.553 0 10.03 4.479 10.03 10.03v327.84l-167.12 167.13h-276.78"/>
 <path opacity="0.1" d="m42.06 505c-5.476 0-9.875-4.399-9.875-9.875v-478.25c0-5.476 4.399-9.875 9.875-9.875h427.88c5.476 0 9.875 4.399 9.875 9.875v321.66l-166.47 166.47h-271.28"/>
 <path d="m45.06 501.5c-5.399 0-9.719-4.351-9.719-9.75v-471.5c0-5.399 4.32-9.75 9.719-9.75h421.88c5.399 0 9.719 4.351 9.719 9.75v315.44l-165.81 165.81h-265.78" fill="#9bbe22"/>
 <path opacity="0.25" d="m100.47 50.563v275.38l175.56 175.56h34.813l165.81-165.81v-224.31l-60.813-60.813h-315.37"/>
 <path id="0" fill-opacity="0.196" fill="#fff" d="m476.66 335.69l-165.81 165.81v-156.06c0-5.399 4.32-9.75 9.719-9.75h156.09"/>
 <use xlink:href="#0"/>
 <path d="m230.04 394.61c-17.246-0.088-26.601 4.26-32.03 7.563-23.597-5.201-46.2-4.799-64.34 10.438 26.617-7.348 50.23-7.967 66.969 1.5 15.649-12.541 47.969-17.09 58.19-16.12-11.476-2.371-20.942-3.335-28.781-3.375m-31.438 34.969c-22.75 0.255-39.08 9.467-43.75 16.344-22.23-9.765-72.01-0.897-83.66 18.656 37.2-14.404 65.56-13.868 87.44 1.375 19.34-22.85 61.07-31.628 74.47-30.09-12.513-4.65-24.16-6.397-34.5-6.281" fill="#fff"/>
 <text font-size="129.23" y="79.7" x="-764.81" font-family="Gentium Book Basic" line-height="125%" word-spacing="0" letter-spacing="0"><tspan y="79.7" x="-764.81"/>
 </text>
 <text transform="scale(4.0128.2492)" font-size="46.954" y="-29.345" x="6.489" font-family="Arial" text-anchor="middle"/>
 <text font-size="129.23" y="-0.302" x="-183.54" font-family="Gentium Book Basic" line-height="125%" word-spacing="0" letter-spacing="0"><tspan y="-0.302" x="-183.54"/>
 </text>
 <text transform="scale(4.0128.2492)" font-size="46.954" y="-350.37" x="151.34" font-family="Arial" text-anchor="middle"/>
 <text font-size="129.23" y="-181.56" x="-1255.12" font-family="Gentium Book Basic" line-height="125%" word-spacing="0" letter-spacing="0"><tspan y="-181.56" x="-1255.12"/>
 </text>
 <text transform="scale(4.0128.2492)" font-size="46.954" y="-1077.73" x="-115.7" font-family="Arial" text-anchor="middle"/>
 <text font-size="129.23" y="-398.03" x="-157.07" font-family="Gentium Book Basic" line-height="125%" word-spacing="0" letter-spacing="0"><tspan y="-398.03" x="-157.07"/>
 </text>
 <text transform="scale(4.0128.2492)" font-size="46.954" y="-1946.39" x="157.94" font-family="Arial" text-anchor="middle"/>
 <text font-size="129.23" y="-478.04" x="424.2" font-family="Gentium Book Basic" line-height="125%" word-spacing="0" letter-spacing="0"><tspan y="-478.04" x="424.2"/>
 </text>
 <text transform="scale(4.0128.2492)" font-size="46.954" y="-2267.43" x="302.79" font-family="Arial" text-anchor="middle"/>
 <text font-size="129.23" y="-950.44" x="35.08" font-family="Gentium Book Basic" line-height="125%" word-spacing="0" letter-spacing="0"><tspan y="-950.44" x="35.08"/>
 </text>
 <text transform="scale(4.0128.2492)" font-size="46.954" y="-4163.08" x="205.82" font-family="Arial" text-anchor="middle"/>
 <text font-size="129.23" y="-1030.44" x="616.34" font-family="Gentium Book Basic" line-height="125%" word-spacing="0" letter-spacing="0"><tspan y="-1030.44" x="616.34"/>
 </text>
 <text transform="scale(4.0128.2492)" font-size="46.954" y="-4484.11" x="350.67" font-family="Arial" text-anchor="middle"/>
 <g font-family="Gentium Book Basic" line-height="125%" font-size="208.33" word-spacing="0" letter-spacing="0">
  <text y="384.28" x="-1216.46"><tspan y="384.28" x="-1216.46"/>
  </text>
  <text y="-112.8" x="-1645.36"><tspan y="-112.8" x="-1645.36"/>
  </text>
 </g>
 <text transform="scale(4.0128.2492)" font-size="75.7" y="-1015.52" x="-92.3" font-family="Arial" text-anchor="middle"/>
 <text font-size="208.33" y="-880.75" x="-2293.13" font-family="Gentium Book Basic" line-height="125%" word-spacing="0" letter-spacing="0"><tspan y="-880.75" x="-2293.13"/>
 </text>
 <text transform="scale(4.0128.2492)" font-size="75.7" y="-4097.19" x="-253.72" font-family="Arial" text-anchor="middle"/>
 <text font-size="208.33" y="-1036.38" x="-1586.79" font-family="Gentium Book Basic" line-height="125%" word-spacing="0" letter-spacing="0"><tspan y="-1036.38" x="-1586.79"/>
 </text>
 <text transform="scale(4.0128.2492)" font-size="75.7" y="-4721.71" x="-77.7" font-family="Arial" text-anchor="middle"/>
 <text font-size="129.23" y="175.16" x="-688.88" font-family="Gentium Book Basic" line-height="125%" word-spacing="0" letter-spacing="0"><tspan y="175.16" x="-688.88"/>
 </text>
 <text transform="scale(4.0128.2492)" font-size="46.954" y="353.71" x="25.412" font-family="Arial" text-anchor="middle"/>
 <text font-size="129.23" y="95.16" x="-107.61" font-family="Gentium Book Basic" line-height="125%" word-spacing="0" letter-spacing="0"><tspan y="95.16" x="-107.61"/>
 </text>
 <text transform="scale(4.0128.2492)" font-size="46.954" y="32.681" x="170.26" font-family="Arial" text-anchor="middle"/>
 <text font-size="129.23" y="-86.11" x="-1179.19" font-family="Gentium Book Basic" line-height="125%" word-spacing="0" letter-spacing="0"><tspan y="-86.11" x="-1179.19"/>
 </text>
 <text transform="scale(4.0128.2492)" font-size="46.954" y="-694.68" x="-96.78" font-family="Arial" text-anchor="middle"/>
 <text font-size="129.23" y="-302.57" x="-81.14" font-family="Gentium Book Basic" line-height="125%" word-spacing="0" letter-spacing="0"><tspan y="-302.57" x="-81.14"/>
 </text>
 <text transform="scale(4.0128.2492)" font-size="46.954" y="-1563.34" x="176.86" font-family="Arial" text-anchor="middle"/>
 <text font-size="129.23" y="-382.58" x="500.13" font-family="Gentium Book Basic" line-height="125%" word-spacing="0" letter-spacing="0"><tspan y="-382.58" x="500.13"/>
 </text>
 <text transform="scale(4.0128.2492)" font-size="46.954" y="-1884.38" x="321.71" font-family="Arial" text-anchor="middle"/>
 <text font-size="129.23" y="-854.98" x="111.01" font-family="Gentium Book Basic" line-height="125%" word-spacing="0" letter-spacing="0"><tspan y="-854.98" x="111.01"/>
 </text>
 <text transform="scale(4.0128.2492)" font-size="46.954" y="-3780.03" x="224.74" font-family="Arial" text-anchor="middle"/>
 <text font-size="129.23" y="-934.98" x="692.27" font-family="Gentium Book Basic" line-height="125%" word-spacing="0" letter-spacing="0"><tspan y="-934.98" x="692.27"/>
 </text>
 <text transform="scale(4.0128.2492)" font-size="46.954" y="-4101.06" x="369.59" font-family="Arial" text-anchor="middle"/>
 <g font-family="Gentium Book Basic" line-height="125%" word-spacing="0" letter-spacing="0">
  <text y="479.74" x="-1140.53" font-size="208.33"><tspan y="479.74" x="-1140.53"/>
  </text>
  <text y="148.53" x="-693.1" font-size="129.23"><tspan y="148.53" x="-693.1"/>
  </text>
 </g>
 <text transform="scale(4.0128.2492)" font-size="46.954" y="246.85" x="24.358" font-family="Arial" text-anchor="middle"/>
 <text font-size="129.23" y="68.53" x="-111.83" font-family="Gentium Book Basic" line-height="125%" word-spacing="0" letter-spacing="0"><tspan y="68.53" x="-111.83"/>
 </text>
 <text transform="scale(4.0128.2492)" font-size="46.954" y="-74.18" x="169.21" font-family="Arial" text-anchor="middle"/>
 <text font-size="129.23" y="-112.73" x="-1183.41" font-family="Gentium Book Basic" line-height="125%" word-spacing="0" letter-spacing="0"><tspan y="-112.73" x="-1183.41"/>
 </text>
 <text transform="scale(4.0128.2492)" font-size="46.954" y="-801.54" x="-97.83" font-family="Arial" text-anchor="middle"/>
 <text font-size="129.23" y="-329.2" x="-85.36" font-family="Gentium Book Basic" line-height="125%" word-spacing="0" letter-spacing="0"><tspan y="-329.2" x="-85.36"/>
 </text>
 <text transform="scale(4.0128.2492)" font-size="46.954" y="-1670.2" x="175.81" font-family="Arial" text-anchor="middle"/>
 <text font-size="129.23" y="-409.21" x="495.91" font-family="Gentium Book Basic" line-height="125%" word-spacing="0" letter-spacing="0"><tspan y="-409.21" x="495.91"/>
 </text>
 <text transform="scale(4.0128.2492)" font-size="46.954" y="-1991.24" x="320.66" font-family="Arial" text-anchor="middle"/>
 <text font-size="129.23" y="-881.61" x="106.79" font-family="Gentium Book Basic" line-height="125%" word-spacing="0" letter-spacing="0"><tspan y="-881.61" x="106.79"/>
 </text>
 <text transform="scale(4.0128.2492)" font-size="46.954" y="-3886.89" x="223.69" font-family="Arial" text-anchor="middle"/>
 <text font-size="129.23" y="-961.61" x="688.05" font-family="Gentium Book Basic" line-height="125%" word-spacing="0" letter-spacing="0"><tspan y="-961.61" x="688.05"/>
 </text>
 <text transform="scale(4.0128.2492)" font-size="46.954" y="-4207.92" x="368.54" font-family="Arial" text-anchor="middle"/>
 <g font-family="Gentium Book Basic" line-height="125%" word-spacing="0" letter-spacing="0">
  <text y="453.11" x="-1144.75" font-size="208.33"><tspan y="453.11" x="-1144.75"/>
  </text>
  <text y="52.09" x="-866.06" font-size="129.23"><tspan y="52.09" x="-866.06"/>
  </text>
 </g>
 <text transform="scale(4.0128.2492)" font-size="46.954" y="-140.15" x="-18.742" font-family="Arial" text-anchor="middle"/>
 <text font-size="129.23" y="-27.915" x="-284.79" font-family="Gentium Book Basic" line-height="125%" word-spacing="0" letter-spacing="0"><tspan y="-27.915" x="-284.79"/>
 </text>
 <text transform="scale(4.0128.2492)" font-size="46.954" y="-461.18" x="126.11" font-family="Arial" text-anchor="middle"/>
 <text font-size="129.23" y="-209.18" x="-1356.37" font-family="Gentium Book Basic" line-height="125%" word-spacing="0" letter-spacing="0"><tspan y="-209.18" x="-1356.37"/>
 </text>
 <text transform="scale(4.0128.2492)" font-size="46.954" y="-1188.54" x="-140.93" font-family="Arial" text-anchor="middle"/>
 <text font-size="129.23" y="-425.64" x="-258.32" font-family="Gentium Book Basic" line-height="125%" word-spacing="0" letter-spacing="0"><tspan y="-425.64" x="-258.32"/>
 </text>
 <text transform="scale(4.0128.2492)" font-size="46.954" y="-2057.2" x="132.71" font-family="Arial" text-anchor="middle"/>
 <text font-size="129.23" y="-505.65" x="322.95" font-family="Gentium Book Basic" line-height="125%" word-spacing="0" letter-spacing="0"><tspan y="-505.65" x="322.95"/>
 </text>
 <text transform="scale(4.0128.2492)" font-size="46.954" y="-2378.24" x="277.56" font-family="Arial" text-anchor="middle"/>
 <text font-size="129.23" y="-978.05" x="-66.17" font-family="Gentium Book Basic" line-height="125%" word-spacing="0" letter-spacing="0"><tspan y="-978.05" x="-66.17"/>
 </text>
 <text transform="scale(4.0128.2492)" font-size="46.954" y="-4273.89" x="180.59" font-family="Arial" text-anchor="middle"/>
 <text font-size="129.23" y="-1058.06" x="515.09" font-family="Gentium Book Basic" line-height="125%" word-spacing="0" letter-spacing="0"><tspan y="-1058.06" x="515.09"/>
 </text>
 <text transform="scale(4.0128.2492)" font-size="46.954" y="-4594.92" x="325.44" font-family="Arial" text-anchor="middle"/>
 <g font-family="Gentium Book Basic" line-height="125%" font-size="208.33" word-spacing="0" letter-spacing="0">
  <text y="356.67" x="-1317.71"><tspan y="356.67" x="-1317.71"/>
  </text>
  <text y="-140.41" x="-1746.61"><tspan y="-140.41" x="-1746.61"/>
  </text>
 </g>
 <text transform="scale(4.0128.2492)" font-size="75.7" y="-1126.33" x="-117.53" font-family="Arial" text-anchor="middle"/>
 <text font-size="208.33" y="-908.36" x="-2394.38" font-family="Gentium Book Basic" line-height="125%" word-spacing="0" letter-spacing="0"><tspan y="-908.36" x="-2394.38"/>
 </text>
 <text transform="scale(4.0128.2492)" font-size="75.7" y="-4207.99" x="-278.95" font-family="Arial" text-anchor="middle"/>
 <text font-size="208.33" y="-1063.99" x="-1688.04" font-family="Gentium Book Basic" line-height="125%" word-spacing="0" letter-spacing="0"><tspan y="-1063.99" x="-1688.04"/>
 </text>
 <text transform="scale(4.0128.2492)" font-size="75.7" y="-4832.52" x="-102.93" font-family="Arial" text-anchor="middle"/>
 <text font-size="129.23" y="147.54" x="-790.13" font-family="Gentium Book Basic" line-height="125%" word-spacing="0" letter-spacing="0"><tspan y="147.54" x="-790.13"/>
 </text>
 <text transform="scale(4.0128.2492)" font-size="46.954" y="242.9" x="0.181" font-family="Arial" text-anchor="middle"/>
 <text font-size="129.23" y="67.54" x="-208.86" font-family="Gentium Book Basic" line-height="125%" word-spacing="0" letter-spacing="0"><tspan y="67.54" x="-208.86"/>
 </text>
 <text transform="scale(4.0128.2492)" font-size="46.954" y="-78.13" x="145.03" font-family="Arial" text-anchor="middle"/>
 <text font-size="129.23" y="-113.72" x="-1280.44" font-family="Gentium Book Basic" line-height="125%" word-spacing="0" letter-spacing="0"><tspan y="-113.72" x="-1280.44"/>
 </text>
 <text transform="scale(4.0128.2492)" font-size="46.954" y="-805.48" x="-122.01" font-family="Arial" text-anchor="middle"/>
 <text font-size="129.23" y="-330.19" x="-182.39" font-family="Gentium Book Basic" line-height="125%" word-spacing="0" letter-spacing="0"><tspan y="-330.19" x="-182.39"/>
 </text>
 <text transform="scale(4.0128.2492)" font-size="46.954" y="-1674.15" x="151.63" font-family="Arial" text-anchor="middle"/>
 <text font-size="129.23" y="-410.2" x="398.88" font-family="Gentium Book Basic" line-height="125%" word-spacing="0" letter-spacing="0"><tspan y="-410.2" x="398.88"/>
 </text>
 <text transform="scale(4.0128.2492)" font-size="46.954" y="-1995.19" x="296.48" font-family="Arial" text-anchor="middle"/>
 <text font-size="129.23" y="-882.6" x="9.765" font-family="Gentium Book Basic" line-height="125%" word-spacing="0" letter-spacing="0"><tspan y="-882.6" x="9.765"/>
 </text>
 <text transform="scale(4.0128.2492)" font-size="46.954" y="-3890.84" x="199.51" font-family="Arial" text-anchor="middle"/>
 <text font-size="129.23" y="-962.6" x="591.02" font-family="Gentium Book Basic" line-height="125%" word-spacing="0" letter-spacing="0"><tspan y="-962.6" x="591.02"/>
 </text>
 <text transform="scale(4.0128.2492)" font-size="46.954" y="-4211.86" x="344.36" font-family="Arial" text-anchor="middle"/>
 <g font-family="Gentium Book Basic" line-height="125%" word-spacing="0" letter-spacing="0">
  <text y="452.12" x="-1241.78" font-size="208.33"><tspan y="452.12" x="-1241.78"/>
  </text>
  <text y="650.24" x="-584.73" font-size="129.23"><tspan y="650.24" x="-584.73"/>
  </text>
 </g>
 <text transform="scale(4.0128.2492)" font-size="46.954" y="2260.14" x="51.37" font-family="Arial" text-anchor="middle"/>
 <text font-size="129.23" y="570.24" x="-3.461" font-family="Gentium Book Basic" line-height="125%" word-spacing="0" letter-spacing="0"><tspan y="570.24" x="-3.461"/>
 </text>
 <text transform="scale(4.0128.2492)" font-size="46.954" y="1939.12" x="196.21" font-family="Arial" text-anchor="middle"/>
 <text font-size="129.23" y="388.98" x="-1075.04" font-family="Gentium Book Basic" line-height="125%" word-spacing="0" letter-spacing="0"><tspan y="388.98" x="-1075.04"/>
 </text>
 <text transform="scale(4.0128.2492)" font-size="46.954" y="1211.76" x="-70.824" font-family="Arial" text-anchor="middle"/>
 <text font-size="129.23" y="172.51" x="23.01" font-family="Gentium Book Basic" line-height="125%" word-spacing="0" letter-spacing="0"><tspan y="172.51" x="23.01"/>
 </text>
 <text transform="scale(4.0128.2492)" font-size="46.954" y="343.09" x="202.81" font-family="Arial" text-anchor="middle"/>
 <text font-size="129.23" y="92.5" x="604.28" font-family="Gentium Book Basic" line-height="125%" word-spacing="0" letter-spacing="0"><tspan y="92.5" x="604.28"/>
 </text>
 <text transform="scale(4.0128.2492)" font-size="46.954" y="22.05" x="347.66" font-family="Arial" text-anchor="middle"/>
 <text font-size="129.23" y="-379.9" x="215.16" font-family="Gentium Book Basic" line-height="125%" word-spacing="0" letter-spacing="0"><tspan y="-379.9" x="215.16"/>
 </text>
 <text transform="scale(4.0128.2492)" font-size="46.954" y="-1873.6" x="250.69" font-family="Arial" text-anchor="middle"/>
 <text font-size="129.23" y="-459.9" x="796.42" font-family="Gentium Book Basic" line-height="125%" word-spacing="0" letter-spacing="0"><tspan y="-459.9" x="796.42"/>
 </text>
 <text transform="scale(4.0128.2492)" font-size="46.954" y="-2194.62" x="395.54" font-family="Arial" text-anchor="middle"/>
 <g font-family="Gentium Book Basic" line-height="125%" word-spacing="0" letter-spacing="0">
  <text y="954.82" x="-1036.38" font-size="208.33"><tspan y="954.82" x="-1036.38"/>
  </text>
  <text y="572.14" x="-1528.46" font-size="129.23"><tspan y="572.14" x="-1528.46"/>
  </text>
 </g>
 <text transform="scale(4.0128.2492)" font-size="46.954" y="1946.74" x="-183.81" font-family="Arial" text-anchor="middle"/>
 <text font-size="129.23" y="492.14" x="-947.19" font-family="Gentium Book Basic" line-height="125%" word-spacing="0" letter-spacing="0"><tspan y="492.14" x="-947.19"/>
 </text>
 <text transform="scale(4.0128.2492)" font-size="46.954" y="1625.71" x="-38.964" font-family="Arial" text-anchor="middle"/>
 <text font-size="129.23" y="310.88" x="-2018.77" font-family="Gentium Book Basic" line-height="125%" word-spacing="0" letter-spacing="0"><tspan y="310.88" x="-2018.77"/>
 </text>
 <text transform="scale(4.0128.2492)" font-size="46.954" y="898.35" x="-306" font-family="Arial" text-anchor="middle"/>
 <text font-size="129.23" y="94.41" x="-920.72" font-family="Gentium Book Basic" line-height="125%" word-spacing="0" letter-spacing="0"><tspan y="94.41" x="-920.72"/>
 </text>
 <text transform="scale(4.0128.2492)" font-size="46.954" y="29.685" x="-32.364" font-family="Arial" text-anchor="middle"/>
 <text font-size="129.23" y="14.4" x="-339.45" font-family="Gentium Book Basic" line-height="125%" word-spacing="0" letter-spacing="0"><tspan y="14.4" x="-339.45"/>
 </text>
 <text transform="scale(4.0128.2492)" font-size="46.954" y="-291.35" x="112.49" font-family="Arial" text-anchor="middle"/>
 <text font-size="129.23" y="-458" x="-728.57" font-family="Gentium Book Basic" line-height="125%" word-spacing="0" letter-spacing="0"><tspan y="-458" x="-728.57"/>
 </text>
 <text transform="scale(4.0128.2492)" font-size="46.954" y="-2187" x="15.516" font-family="Arial" text-anchor="middle"/>
 <text font-size="129.23" y="-538" x="-147.31" font-family="Gentium Book Basic" line-height="125%" word-spacing="0" letter-spacing="0"><tspan y="-538" x="-147.31"/>
 </text>
 <text transform="scale(4.0128.2492)" font-size="46.954" y="-2508.03" x="160.37" font-family="Arial" text-anchor="middle"/>
 <g font-family="Gentium Book Basic" line-height="125%" word-spacing="0" letter-spacing="0">
  <text y="876.72" x="-1980.11" font-size="208.33"><tspan y="876.72" x="-1980.11"/>
  </text>
  <text y="646.99" x="-1281.01" font-size="129.23"><tspan y="646.99" x="-1281.01"/>
  </text>
 </g>
 <text transform="scale(4.0128.2492)" font-size="46.954" y="2247.08" x="-122.15" font-family="Arial" text-anchor="middle"/>
 <text font-size="129.23" y="566.99" x="-699.74" font-family="Gentium Book Basic" line-height="125%" word-spacing="0" letter-spacing="0"><tspan y="566.99" x="-699.74"/>
 </text>
 <text transform="scale(4.0128.2492)" font-size="46.954" y="1926.05" x="22.702" font-family="Arial" text-anchor="middle"/>
 <text font-size="129.23" y="385.72" x="-1771.32" font-family="Gentium Book Basic" line-height="125%" word-spacing="0" letter-spacing="0"><tspan y="385.72" x="-1771.32"/>
 </text>
 <text transform="scale(4.0128.2492)" font-size="46.954" y="1198.69" x="-244.34" font-family="Arial" text-anchor="middle"/>
 <text font-size="129.23" y="169.26" x="-673.27" font-family="Gentium Book Basic" line-height="125%" word-spacing="0" letter-spacing="0"><tspan y="169.26" x="-673.27"/>
 </text>
 <text transform="scale(4.0128.2492)" font-size="46.954" y="330.03" x="29.3" font-family="Arial" text-anchor="middle"/>
 <text font-size="129.23" y="89.25" x="-92" font-family="Gentium Book Basic" line-height="125%" word-spacing="0" letter-spacing="0"><tspan y="89.25" x="-92"/>
 </text>
 <text transform="scale(4.0128.2492)" font-size="46.954" y="8.987" x="174.15" font-family="Arial" text-anchor="middle"/>
 <text font-size="129.23" y="-383.15" x="-481.12" font-family="Gentium Book Basic" line-height="125%" word-spacing="0" letter-spacing="0"><tspan y="-383.15" x="-481.12"/>
 </text>
 <text transform="scale(4.0128.2492)" font-size="46.954" y="-1886.66" x="77.18" font-family="Arial" text-anchor="middle"/>
 <text font-size="129.23" y="-463.15" x="100.14" font-family="Gentium Book Basic" line-height="125%" word-spacing="0" letter-spacing="0"><tspan y="-463.15" x="100.14"/>
 </text>
 <text transform="scale(4.0128.2492)" font-size="46.954" y="-2207.69" x="222.03" font-family="Arial" text-anchor="middle"/>
 <g font-family="Gentium Book Basic" line-height="125%" word-spacing="0" letter-spacing="0">
  <text y="951.57" x="-1732.66" font-size="208.33"><tspan y="951.57" x="-1732.66"/>
  </text>
  <text y="-35.27" x="-2147.05" font-size="129.23"><tspan y="-35.27" x="-2147.05"/>
  </text>
 </g>
 <text transform="scale(4.0128.2492)" font-size="46.954" y="-490.7" x="-337.97" font-family="Arial" text-anchor="middle"/>
 <text font-size="129.23" y="-115.27" x="-1565.78" font-family="Gentium Book Basic" line-height="125%" word-spacing="0" letter-spacing="0"><tspan y="-115.27" x="-1565.78"/>
 </text>
 <text transform="scale(4.0128.2492)" font-size="46.954" y="-811.73" x="-193.12" font-family="Arial" text-anchor="middle"/>
 <text font-size="129.23" y="-296.53" x="-2637.36" font-family="Gentium Book Basic" line-height="125%" word-spacing="0" letter-spacing="0"><tspan y="-296.53" x="-2637.36"/>
 </text>
 <text transform="scale(4.0128.2492)" font-size="46.954" y="-1539.08" x="-460.16" font-family="Arial" text-anchor="middle"/>
 <text font-size="129.23" y="-513" x="-1539.31" font-family="Gentium Book Basic" line-height="125%" word-spacing="0" letter-spacing="0"><tspan y="-513" x="-1539.31"/>
 </text>
 <text transform="scale(4.0128.2492)" font-size="46.954" y="-2407.75" x="-186.52" font-family="Arial" text-anchor="middle"/>
 <text font-size="129.23" y="-593.01" x="-958.04" font-family="Gentium Book Basic" line-height="125%" word-spacing="0" letter-spacing="0"><tspan y="-593.01" x="-958.04"/>
 </text>
 <text transform="scale(4.0128.2492)" font-size="46.954" y="-2728.79" x="-41.668" font-family="Arial" text-anchor="middle"/>
 <text font-size="129.23" y="-1065.41" x="-1347.16" font-family="Gentium Book Basic" line-height="125%" word-spacing="0" letter-spacing="0"><tspan y="-1065.41" x="-1347.16"/>
 </text>
 <text transform="scale(4.0128.2492)" font-size="46.954" y="-4624.44" x="-138.64" font-family="Arial" text-anchor="middle"/>
 <text font-size="129.23" y="-1145.41" x="-765.9" font-family="Gentium Book Basic" line-height="125%" word-spacing="0" letter-spacing="0"><tspan y="-1145.41" x="-765.9"/>
 </text>
 <text transform="scale(4.0128.2492)" font-size="46.954" y="-4945.46" x="6.212" font-family="Arial" text-anchor="middle"/>
 <g font-family="Gentium Book Basic" line-height="125%" font-size="208.33" word-spacing="0" letter-spacing="0">
  <text y="269.31" x="-2598.7"><tspan y="269.31" x="-2598.7"/>
  </text>
  <text y="-227.77" x="-3027.6"><tspan y="-227.77" x="-3027.6"/>
  </text>
 </g>
 <text transform="scale(4.0128.2492)" font-size="75.7" y="-1476.87" x="-436.75" font-family="Arial" text-anchor="middle"/>
 <text font-size="208.33" y="-995.72" x="-3675.37" font-family="Gentium Book Basic" line-height="125%" word-spacing="0" letter-spacing="0"><tspan y="-995.72" x="-3675.37"/>
 </text>
 <text transform="scale(4.0128.2492)" font-size="75.7" y="-4558.54" x="-598.18" font-family="Arial" text-anchor="middle"/>
 <text font-size="208.33" y="-1151.35" x="-2969.03" font-family="Gentium Book Basic" line-height="125%" word-spacing="0" letter-spacing="0"><tspan y="-1151.35" x="-2969.03"/>
 </text>
 <text transform="scale(4.0128.2492)" font-size="75.7" y="-5183.06" x="-422.16" font-family="Arial" text-anchor="middle"/>
 <text font-size="129.23" y="133.95" x="-2496.34" font-family="Gentium Book Basic" line-height="125%" word-spacing="0" letter-spacing="0"><tspan y="133.95" x="-2496.34"/>
 </text>
 <text transform="scale(4.0128.2492)" font-size="46.954" y="188.35" x="-425.01" font-family="Arial" text-anchor="middle"/>
 <text font-size="129.23" y="53.949" x="-1915.07" font-family="Gentium Book Basic" line-height="125%" word-spacing="0" letter-spacing="0"><tspan y="53.949" x="-1915.07"/>
 </text>
 <text transform="scale(4.0128.2492)" font-size="46.954" y="-132.67" x="-280.16" font-family="Arial" text-anchor="middle"/>
 <text font-size="129.23" y="-127.31" x="-2986.65" font-family="Gentium Book Basic" line-height="125%" word-spacing="0" letter-spacing="0"><tspan y="-127.31" x="-2986.65"/>
 </text>
 <text transform="scale(4.0128.2492)" font-size="46.954" y="-860.03" x="-547.2" font-family="Arial" text-anchor="middle"/>
 <text font-size="129.23" y="-343.78" x="-1888.6" font-family="Gentium Book Basic" line-height="125%" word-spacing="0" letter-spacing="0"><tspan y="-343.78" x="-1888.6"/>
 </text>
 <text transform="scale(4.0128.2492)" font-size="46.954" y="-1728.7" x="-273.56" font-family="Arial" text-anchor="middle"/>
 <text font-size="129.23" y="-423.79" x="-1307.33" font-family="Gentium Book Basic" line-height="125%" word-spacing="0" letter-spacing="0"><tspan y="-423.79" x="-1307.33"/>
 </text>
 <text transform="scale(4.0128.2492)" font-size="46.954" y="-2049.73" x="-128.71" font-family="Arial" text-anchor="middle"/>
 <text font-size="129.23" y="-896.19" x="-1696.45" font-family="Gentium Book Basic" line-height="125%" word-spacing="0" letter-spacing="0"><tspan y="-896.19" x="-1696.45"/>
 </text>
 <text transform="scale(4.0128.2492)" font-size="46.954" y="-3945.38" x="-225.68" font-family="Arial" text-anchor="middle"/>
 <text font-size="129.23" y="-976.19" x="-1115.19" font-family="Gentium Book Basic" line-height="125%" word-spacing="0" letter-spacing="0"><tspan y="-976.19" x="-1115.19"/>
 </text>
 <text transform="scale(4.0128.2492)" font-size="46.954" y="-4266.41" x="-80.83" font-family="Arial" text-anchor="middle"/>
 <text font-size="208.33" y="438.53" x="-2947.99" font-family="Gentium Book Basic" line-height="125%" word-spacing="0" letter-spacing="0"><tspan y="438.53" x="-2947.99"/>
 </text>
 <path d="m100.46 50.575v275.36h315.39v-275.36h-315.39m30.522 30.523h70.69v91.9h-70.69v-91.9m101.21 0h153.13v91.9h-153.13v-91.9m-101.21 122.42h70.69v91.9h-70.69v-91.9m101.21 0h153.13v91.9h-153.13v-91.9" fill="#f9f9f9"/>
</svg>
