<?xml version="1.0" encoding="UTF-8" standalone="no"?>
<svg
   xmlns:dc="http://purl.org/dc/elements/1.1/"
   xmlns:cc="http://creativecommons.org/ns#"
   xmlns:rdf="http://www.w3.org/1999/02/22-rdf-syntax-ns#"
   xmlns:svg="http://www.w3.org/2000/svg"
   xmlns="http://www.w3.org/2000/svg"
   xmlns:sodipodi="http://sodipodi.sourceforge.net/DTD/sodipodi-0.dtd"
   xmlns:inkscape="http://www.inkscape.org/namespaces/inkscape"
   viewBox="0 0 512 512"
   id="svg2"
   version="1.1"
   inkscape:version="0.91 r13725"
   sodipodi:docname="application-x-executable.svg">
  <metadata
     id="metadata62">
    <rdf:RDF>
      <cc:Work
         rdf:about="">
        <dc:format>image/svg+xml</dc:format>
        <dc:type
           rdf:resource="http://purl.org/dc/dcmitype/StillImage" />
        <dc:title></dc:title>
      </cc:Work>
    </rdf:RDF>
  </metadata>
  <defs
     id="defs60" />
  <sodipodi:namedview
     pagecolor="#ffffff"
     bordercolor="#666666"
     borderopacity="1"
     objecttolerance="10"
     gridtolerance="10"
     guidetolerance="10"
     inkscape:pageopacity="0"
     inkscape:pageshadow="2"
     inkscape:window-width="1680"
     inkscape:window-height="999"
     id="namedview58"
     showgrid="false"
     inkscape:zoom="0.4609375"
     inkscape:cx="256"
     inkscape:cy="256"
     inkscape:window-x="0"
     inkscape:window-y="25"
     inkscape:window-maximized="1"
     inkscape:current-layer="svg2" />
  <g
     fill="#654641"
     id="g4">
    <text
       transform="scale(1.05082.95163)"
       font-size="84.77"
       y="221.3"
       x="681.22"
       font-family="Gentium Book Basic"
       line-height="125%"
       word-spacing="0"
       letter-spacing="0"
       id="text6">
      <tspan
         y="221.3"
         x="681.22"
         id="tspan8" />
    </text>
    <text
       transform="scale(4.21679.23715)"
       font-size="30.8"
       y="659.01"
       x="299.04"
       font-family="Arial"
       text-anchor="middle"
       id="text10" />
    <text
       transform="scale(1.05082.95163)"
       font-size="45.38"
       y="197.8"
       x="949.03"
       font-family="Gentium Book Basic"
       line-height="125%"
       word-spacing="0"
       letter-spacing="0"
       id="text12">
      <tspan
         y="197.8"
         x="949.03"
         id="tspan14" />
    </text>
    <text
       transform="scale(4.21679.23715)"
       font-size="16.488"
       y="671.14"
       x="305.7"
       font-family="Arial"
       text-anchor="middle"
       id="text16" />
    <text
       font-size="132.57"
       y="290.09"
       x="-25.07"
       font-family="Gentium Book Basic"
       line-height="125%"
       word-spacing="0"
       letter-spacing="0"
       id="text18">
      <tspan
         y="290.09"
         x="-25.07"
         id="tspan20" />
    </text>
    <text
       transform="scale(4.0128.2492)"
       font-size="48.17"
       y="805.88"
       x="195.94"
       font-family="Arial"
       text-anchor="middle"
       id="text22" />
  </g>
  <g
     id="g24">
    <g
       font-family="Gentium Book Basic"
       line-height="125%"
       font-size="208.33"
       word-spacing="0"
       letter-spacing="0"
       id="g26">
      <text
         y="270.21"
         x="237.18"
         id="text28">
        <tspan
           y="270.21"
           x="237.18"
           id="tspan30" />
      </text>
      <text
         y="112.37"
         x="-55.893"
         id="text32">
        <tspan
           y="112.37"
           x="-55.893"
           id="tspan34" />
      </text>
    </g>
    <g
       fill-opacity="0.078"
       id="g36">
      <path
         d="m32.554 0c-4.774 0-8.59 3.266-8.59 7.313v497.38c0 4.047 3.816 7.313 8.59 7.313h446.89c4.774 0 8.59-3.266 8.59-7.313v-497.38c0-4.047-3.816-7.313-8.59-7.313h-446.89"
         id="path38" />
      <path
         d="m35.614 3.5c-4.709 0-8.479 3.196-8.479 7.188v490.62c0 3.991 3.771 7.188 8.479 7.188h440.77c4.709 0 8.479-3.196 8.479-7.188v-490.62c0-3.991-3.771-7.188-8.479-7.188h-440.78"
         id="path40" />
      <path
         d="m38.674 7c-4.643 0-8.369 3.158-8.369 7.094v483.82c0 3.936 3.725 7.094 8.369 7.094h434.65c4.643 0 8.369-3.158 8.369-7.094v-483.81c0-3.936-3.725-7.094-8.369-7.094h-434.65"
         id="path42" />
    </g>
  </g>
  <path
     d="m41.734 10.5c-4.578 0-8.258 3.119-8.258 7v477c0 3.881 3.68 7 8.258 7h428.53c4.578 0 8.258-3.119 8.258-7v-477c0-3.881-3.68-7-8.258-7h-428.54"
     fill="#e4a146"
     id="path44"
     style="fill:#cccccc" />
  <path
     d="m33.469 255.75v238.75c0 3.881 3.672 7 8.25 7h214.34v-245.75h-222.59"
     fill="#924565"
     id="path46"
     style="fill:#4d4d4d" />
  <path
     d="m256.06 10.5v245.25h222.47v-238.25c0-3.881-3.672-7-8.25-7h-214.22"
     fill="#366378"
     id="path48"
     style="fill:#b3b3b3" />
  <path
     d="m41.719 10.5c-4.578 0-8.25 3.119-8.25 7v238.25h222.59v-245.25h-214.34"
     fill="#9a3034"
     id="path50"
     style="fill:#666666" />
  <g
     fill-opacity="0.969"
     id="g52">
    <path
       opacity="0.25"
       d="m254.5 87.65c-20.949 0-23.16 1.371-28.381 17.531l180.18 180.18h-0.004l-180.18-180.18c-4.748 14.715-8.518 18.287-26.758 25.357l73.34 73.34c-0.003-0.001-0.006-0.003-0.01-0.004l-73.34-73.34c-16.545 6.413-21.342 6.426-29.424 0.049l-0.031-0.031c-9.835-7.773-22.19-5.204-34.34 7.139l80.67 80.67c-0.002 0.002-0.002 0.004-0.004 0.006l-80.67-80.67c-13.697 13.912-14.658 18.5-6.951 33.2l0.016 0.016c6.894 13.153 6.641 18.848-1.645 37.05v0.002l176.84 176.84-0.002 0.002-176.84-176.84c-6.279 13.797-9.276 16.618-22.08 20.807l180.29 180.29-180.29-180.29c-14.58 4.774-17.236 9.266-17.236 29.14l0.004 0.004c0.001 11.995 0.847 18.15 4.635 21.936l41.756 41.756c2.884 8.181 1.528 10.143-3.596 19.795h-0.002c-8.538 16.08-7.811 19.619 7.123 34.629l125.46 125.46h71.23l-30.633-30.633v-0.008l30.641 30.641h136c4.578 0 8.258-3.119 8.258-7v-140.72l-35.504-35.504v-0.004l35.504 35.504v-114.12l-105.88-105.88c-12.35-12.35-18.205-12.725-32.844-4.984l41.07 41.07-0.002 0.002-41.07-41.07c-10.519 5.562-14.98 6.595-22.578 4.03l-40.537-40.535-0.025-0.025c-4.17-4.172-10.319-4.621-22.16-4.621h-0.002v-0.002"
       id="path54" />
    <path
       d="m235.22 420.14c-5.33-5.882-8-11.582-8-17.08 0-7.212-6.991-13.275-22.667-19.659-17.585-7.161-20.357-7.176-32.992-0.175-15.451 8.561-19.07 7.794-33.985-7.194-14.934-15.01-15.661-18.546-7.123-34.629 6.954-13.1 6.994-11.996-1.131-31.565-7.448-17.939-10.345-20.764-25.21-24.589-14.15-3.64-16.457-7.476-16.457-27.339 0-19.875 2.657-24.366 17.237-29.14 12.804-4.189 15.801-7.01 22.08-20.807 8.289-18.214 8.541-23.906 1.638-37.07-7.707-14.701-6.746-19.288 6.951-33.2 12.152-12.343 24.505-14.912 34.34-7.139 8.107 6.41 12.892 6.407 29.466-0.017 18.24-7.07 22.01-10.643 26.758-25.358 5.216-16.16 7.431-17.531 28.38-17.531 22.606 0 24.463 1.636 31.431 27.688 1.107 4.139 6.679 7.388 27.584 16.08 10.1 4.198 14.172 3.792 26.291-2.616 16.2-8.566 21.642-7.192 37.03 9.347 10.453 11.233 11.406 21.814 2.996 33.25-5.576 7.581-5.244 13.235 1.775 30.26 7.437 18.04 9.347 19.948 24.547 24.498 16.868 5.05 18.906 8.746 18.03 32.696-0.737 20.06-2.995 24.06-14.653 25.933-15.695 2.523-19.727 6.01-26.917 23.274-7.389 17.742-7.114 21.854 2.427 36.37 6.495 9.885 3.606 18.244-11.216 32.456-12.622 12.1-20.74 12.932-34.507 3.529-8.919-6.092-10.434-5.985-30.18 2.133-18.1 7.439-20.21 9.81-24.04 26.911-2.875 12.863-6.677 14.886-27.985 14.886-16.377 0-18.437-0.396-21.892-4.209m43.19-115.22c34.564-16.436 42.25-60.09 15.43-87.63-27.617-28.36-75.01-17.919-88.99 19.602-16.897 45.36 30.01 88.74 73.56 68.03"
       fill="#fff"
       id="path56" />
  </g>
</svg>
