<?xml version="1.0" encoding="UTF-8" standalone="no"?>
<svg xmlns="http://www.w3.org/2000/svg" viewBox="0 0 512 512">
 <g fill-opacity="0.078">
  <path d="m66.61 0c-4.047 0-7.299 3.253-7.299 7.299v497.4c0 4.047 3.253 7.299 7.299 7.299h378.79c4.047 0 7.299-3.253 7.299-7.299v-359.46l-145.21-145.24h-240.88"/>
  <path d="m69.2 3.5c-3.991 0-7.2 3.208-7.2 7.2v490.6c0 3.991 3.208 7.2 7.2 7.2h373.61c3.991 0 7.2-3.208 7.2-7.2v-354.55l-143.22-143.25h-237.59"/>
  <path d="m71.786 7c-3.936 0-7.1 3.164-7.1 7.1v483.8c0 3.936 3.164 7.1 7.1 7.1h368.43c3.936 0 7.1-3.164 7.1-7.1v-349.63l-141.24-141.27h-234.29"/>
 </g>
 <path d="m74.38 10.5c-3.881 0-7 3.119-7 7v477c0 3.881 3.119 7 7 7h363.25c3.881 0 7-3.119 7-7v-344.72l-139.25-139.28h-231" fill="#d23638"/>
 <path d="m308.78 148.78c4.487 5.957 11.24 10.578 16.06 16.313 39.915 39.949 79.85 79.881 119.78 119.81v-135.12h-132.25c-1.321 0-2.542-0.37-3.594-1" fill-opacity="0.235"/>
 <path fill="#fff" d="m444.62 149.78l-139.25-139.28v132.28c0 3.881 3.119 7 7 7h132.25" fill-opacity="0.196"/>
 <path opacity="0.25" d="m202 145.91c-0.413 0.01-0.834 0.026-1.25 0.063-14.627-0.256-27.25 14.278-24.16 28.813 2.081 22.21 16.418 40.25 27.594 58.59 1.256 6.827-2.353 13.47-2.594 20.25-7.286 39.803-18.399 79.37-35.5 115.91-21.16 9.742-45.12 19.379-57.5 40.38-5.194 9.632-2.124 21.501 5.25 28.875l62.719 62.719h261.06c3.881 0 7-3.119 7-7v-109.22l-2.688-2.688c-1.174-3.455-2.663-6.83-4.531-10.09-0.898-1.304-1.911-2.536-3.03-3.656l-215.12-215.09-0.813-0.844c-4.353-4.353-10.24-7.145-16.438-7"/>
 <path d="m200.75 145.96c-14.627-0.256-27.25 14.293-24.16 28.827 2.081 22.21 16.402 40.23 27.578 58.57 1.256 6.827-2.345 13.478-2.586 20.258-7.286 39.803-18.402 79.39-35.503 115.93-21.16 9.742-45.12 19.362-57.5 40.36-7.855 14.567 3.205 34.23 19.44 35.765 15.06 2.061 26.24-10.847 34.476-21.663 8.597-11.633 14.254-25.485 21.407-37.987 43.29-17.434 88.83-29.619 135.32-34.24 18.797 13.454 38.715 29.326 62.817 30.28 14.01-0.209 25.349-13.809 23.81-27.623-0.902-12.577-12.08-21.397-23.651-23.759-18.669-5.624-38.664-2.544-57.656-2.408-36.545-29.2-70.28-62.798-96.85-101.24 1.972-23.371 5.932-49.22-6.237-70.48-4.62-6.705-12.451-11.299-20.707-10.581m0.697 21.22c4.115 0.793 4.389 6.922 5.541 10.2 1.084 6.68 0.966 13.496 0.887 20.242-4.9-9.159-11.266-18.728-10.132-29.587 1.292-0.05 2.435-0.705 3.704-0.855m22.67 91.14c21.781 27.08 45.974 52.02 72.38 74.63-34.814 5.309-69.4 14.204-102.52 26.2 12.703-33.2 22.376-67.5 28.749-102.51 0.464 0.56 0.929 1.119 1.393 1.679m135.86 91.04c8.445 0.815 18.19 0.325 24.95 6.146 0.635 5.253-5.792 6.02-9.214 4.118-7.14-2.383-14.202-5.381-20.264-9.947 1.51-0.094 3.01-0.287 4.528-0.317m-211.03 55.25c-4.02 7.468-9.861 14.51-15.958 19.799-2.029 3.284-7.596-2.788-5.03-5.354 5.29-8.279 14.523-12.667 22.702-17.613l-1.71 3.168" fill="#fff"/>
</svg>
