<?xml version="1.0" encoding="UTF-8" standalone="no"?>
<svg xmlns="http://www.w3.org/2000/svg" xmlns:xlink="http://www.w3.org/1999/xlink" viewBox="0 0 512 512">
 <text font-size="129.23" y="148.92" x="-109.95" font-family="Gentium Book Basic" line-height="125%" word-spacing="0" letter-spacing="0"><tspan y="148.92" x="-109.95"/>
 </text>
 <text transform="scale(4.0128.2492)" font-size="46.954" y="248.43" x="169.68" font-family="Arial" text-anchor="middle"/>
 <text font-size="129.23" y="68.919" x="471.32" font-family="Gentium Book Basic" line-height="125%" word-spacing="0" letter-spacing="0"><tspan y="68.919" x="471.32"/>
 </text>
 <text transform="scale(4.0128.2492)" font-size="46.954" y="-72.6" x="314.53" font-family="Arial" text-anchor="middle"/>
 <text font-size="129.23" y="-112.34" x="-600.26" font-family="Gentium Book Basic" line-height="125%" word-spacing="0" letter-spacing="0"><tspan y="-112.34" x="-600.26"/>
 </text>
 <text transform="scale(4.0128.2492)" font-size="46.954" y="-799.96" x="47.49" font-family="Arial" text-anchor="middle"/>
 <text font-size="129.23" y="-328.81" x="497.79" font-family="Gentium Book Basic" line-height="125%" word-spacing="0" letter-spacing="0"><tspan y="-328.81" x="497.79"/>
 </text>
 <text transform="scale(4.0128.2492)" font-size="46.954" y="-1668.62" x="321.13" font-family="Arial" text-anchor="middle"/>
 <text font-size="129.23" y="-408.82" x="1079.06" font-family="Gentium Book Basic" line-height="125%" word-spacing="0" letter-spacing="0"><tspan y="-408.82" x="1079.06"/>
 </text>
 <text transform="scale(4.0128.2492)" font-size="46.954" y="-1989.66" x="465.98" font-family="Arial" text-anchor="middle"/>
 <text font-size="129.23" y="-881.22" x="689.94" font-family="Gentium Book Basic" line-height="125%" word-spacing="0" letter-spacing="0"><tspan y="-881.22" x="689.94"/>
 </text>
 <text transform="scale(4.0128.2492)" font-size="46.954" y="-3885.31" x="369.01" font-family="Arial" text-anchor="middle"/>
 <text font-size="129.23" y="-961.22" x="1271.2" font-family="Gentium Book Basic" line-height="125%" word-spacing="0" letter-spacing="0"><tspan y="-961.22" x="1271.2"/>
 </text>
 <text transform="scale(4.0128.2492)" font-size="46.954" y="-4206.34" x="513.86" font-family="Arial" text-anchor="middle"/>
 <text font-size="208.33" y="453.5" x="-561.6" font-family="Gentium Book Basic" line-height="125%" word-spacing="0" letter-spacing="0"><tspan y="453.5" x="-561.6"/>
 </text>
 <path opacity="0.1" d="m36.06 0c-5.63 0-10.156 4.527-10.156 10.156v491.69c0 5.63 4.527 10.156 10.156 10.156h439.88c5.63 0 10.156-4.527 10.156-10.156v-334.09l-167.75-167.75h-282.28"/>
 <path opacity="0.1" d="m39.06 3.5c-5.553 0-10.03 4.479-10.03 10.03v484.94c0 5.553 4.479 10.03 10.03 10.03h433.88c5.553 0 10.03-4.479 10.03-10.03v-327.84l-167.12-167.12h-276.78"/>
 <path opacity="0.1" d="m42.06 7c-5.476 0-9.875 4.399-9.875 9.875v478.25c0 5.476 4.399 9.875 9.875 9.875h427.88c5.476 0 9.875-4.399 9.875-9.875v-321.66l-166.47-166.47h-271.28"/>
 <path d="m45.06 10.5c-5.399 0-9.719 4.351-9.719 9.75v471.5c0 5.399 4.32 9.75 9.719 9.75h421.88c5.399 0 9.719-4.351 9.719-9.75v-315.44l-165.81-165.81h-265.78" fill="#9bbe22"/>
 <path id="0" fill-opacity="0.196" fill="#fff" d="m476.66 176.31l-165.81-165.81v156.06c0 5.399 4.32 9.75 9.719 9.75h156.09"/>
 <use xlink:href="#0"/>
 <path opacity="0.25" d="m316.59 175.47c6.521 6.555 13.236 13.294 19.844 19.938h-248.87v275.38l30.719 30.719h348.66c5.399 0 9.719-4.351 9.719-9.75v-315.44h-156.09c-1.422 0-2.756-0.3-3.969-0.844"/>
 <text font-size="208.33" y="-43.575" x="-990.51" font-family="Gentium Book Basic" line-height="125%" word-spacing="0" letter-spacing="0"><tspan y="-43.575" x="-990.51"/>
 </text>
 <text transform="scale(4.0128.2492)" font-size="75.7" y="-737.75" x="70.891" font-family="Arial" text-anchor="middle"/>
 <text font-size="208.33" y="-811.53" x="-1638.27" font-family="Gentium Book Basic" line-height="125%" word-spacing="0" letter-spacing="0"><tspan y="-811.53" x="-1638.27"/>
 </text>
 <text transform="scale(4.0128.2492)" font-size="75.7" y="-3819.41" x="-90.53" font-family="Arial" text-anchor="middle"/>
 <text font-size="208.33" y="-967.16" x="-931.93" font-family="Gentium Book Basic" line-height="125%" word-spacing="0" letter-spacing="0"><tspan y="-967.16" x="-931.93"/>
 </text>
 <text transform="scale(4.0128.2492)" font-size="75.7" y="-4443.94" x="85.49" font-family="Arial" text-anchor="middle"/>
 <g fill="#fff">
  <path d="m72.27 108.77c37.2-14.404 65.56-13.86 87.44 1.383 19.34-22.85 61.09-31.632 74.49-30.1-40.04-14.88-71.46 0.077-78.25 10.08-22.23-9.765-72.03-0.918-83.67 18.636"/>
  <path d="m134.75 56.812c26.617-7.348 50.23-7.979 66.97 1.488 15.649-12.541 47.967-17.08 58.19-16.11-36.725-7.588-52.912-0.63-60.811 4.174-23.597-5.201-46.2-4.787-64.34 10.45"/>
 </g>
 <text font-size="129.23" y="244.38" x="-34.02" font-family="Gentium Book Basic" line-height="125%" word-spacing="0" letter-spacing="0"><tspan y="244.38" x="-34.02"/>
 </text>
 <text transform="scale(4.0128.2492)" font-size="46.954" y="631.48" x="188.6" font-family="Arial" text-anchor="middle"/>
 <text font-size="129.23" y="164.38" x="547.25" font-family="Gentium Book Basic" line-height="125%" word-spacing="0" letter-spacing="0"><tspan y="164.38" x="547.25"/>
 </text>
 <text transform="scale(4.0128.2492)" font-size="46.954" y="310.45" x="333.45" font-family="Arial" text-anchor="middle"/>
 <text font-size="129.23" y="-16.884" x="-524.33" font-family="Gentium Book Basic" line-height="125%" word-spacing="0" letter-spacing="0"><tspan y="-16.884" x="-524.33"/>
 </text>
 <text transform="scale(4.0128.2492)" font-size="46.954" y="-416.9" x="66.41" font-family="Arial" text-anchor="middle"/>
 <text font-size="129.23" y="-233.35" x="573.72" font-family="Gentium Book Basic" line-height="125%" word-spacing="0" letter-spacing="0"><tspan y="-233.35" x="573.72"/>
 </text>
 <text transform="scale(4.0128.2492)" font-size="46.954" y="-1285.57" x="340.05" font-family="Arial" text-anchor="middle"/>
 <text font-size="129.23" y="-313.36" x="1154.99" font-family="Gentium Book Basic" line-height="125%" word-spacing="0" letter-spacing="0"><tspan y="-313.36" x="1154.99"/>
 </text>
 <text transform="scale(4.0128.2492)" font-size="46.954" y="-1606.61" x="484.9" font-family="Arial" text-anchor="middle"/>
 <text font-size="129.23" y="-785.76" x="765.87" font-family="Gentium Book Basic" line-height="125%" word-spacing="0" letter-spacing="0"><tspan y="-785.76" x="765.87"/>
 </text>
 <text transform="scale(4.0128.2492)" font-size="46.954" y="-3502.26" x="387.93" font-family="Arial" text-anchor="middle"/>
 <text font-size="129.23" y="-865.76" x="1347.13" font-family="Gentium Book Basic" line-height="125%" word-spacing="0" letter-spacing="0"><tspan y="-865.76" x="1347.13"/>
 </text>
 <text transform="scale(4.0128.2492)" font-size="46.954" y="-3823.29" x="532.78" font-family="Arial" text-anchor="middle"/>
 <g font-family="Gentium Book Basic" line-height="125%" word-spacing="0" letter-spacing="0">
  <text y="548.96" x="-485.67" font-size="208.33"><tspan y="548.96" x="-485.67"/>
  </text>
  <text y="747.08" x="171.37" font-size="129.23"><tspan y="747.08" x="171.37"/>
  </text>
 </g>
 <text transform="scale(4.0128.2492)" font-size="46.954" y="2648.72" x="239.79" font-family="Arial" text-anchor="middle"/>
 <text font-size="129.23" y="667.08" x="752.64" font-family="Gentium Book Basic" line-height="125%" word-spacing="0" letter-spacing="0"><tspan y="667.08" x="752.64"/>
 </text>
 <text transform="scale(4.0128.2492)" font-size="46.954" y="2327.69" x="384.64" font-family="Arial" text-anchor="middle"/>
 <text font-size="129.23" y="485.81" x="-318.94" font-family="Gentium Book Basic" line-height="125%" word-spacing="0" letter-spacing="0"><tspan y="485.81" x="-318.94"/>
 </text>
 <text transform="scale(4.0128.2492)" font-size="46.954" y="1600.34" x="117.6" font-family="Arial" text-anchor="middle"/>
 <text font-size="129.23" y="269.35" x="779.11" font-family="Gentium Book Basic" line-height="125%" word-spacing="0" letter-spacing="0"><tspan y="269.35" x="779.11"/>
 </text>
 <text transform="scale(4.0128.2492)" font-size="46.954" y="731.67" x="391.24" font-family="Arial" text-anchor="middle"/>
 <text font-size="129.23" y="189.34" x="1360.38" font-family="Gentium Book Basic" line-height="125%" word-spacing="0" letter-spacing="0"><tspan y="189.34" x="1360.38"/>
 </text>
 <text transform="scale(4.0128.2492)" font-size="46.954" y="410.63" x="536.09" font-family="Arial" text-anchor="middle"/>
 <text font-size="129.23" y="-283.06" x="971.26" font-family="Gentium Book Basic" line-height="125%" word-spacing="0" letter-spacing="0"><tspan y="-283.06" x="971.26"/>
 </text>
 <text transform="scale(4.0128.2492)" font-size="46.954" y="-1485.02" x="439.12" font-family="Arial" text-anchor="middle"/>
 <text font-size="129.23" y="-363.06" x="1552.52" font-family="Gentium Book Basic" line-height="125%" word-spacing="0" letter-spacing="0"><tspan y="-363.06" x="1552.52"/>
 </text>
 <text transform="scale(4.0128.2492)" font-size="46.954" y="-1806.05" x="583.97" font-family="Arial" text-anchor="middle"/>
 <g font-family="Gentium Book Basic" line-height="125%" word-spacing="0" letter-spacing="0">
  <text y="1051.66" x="-280.28" font-size="208.33"><tspan y="1051.66" x="-280.28"/>
  </text>
  <text y="668.97" x="-772.36" font-size="129.23"><tspan y="668.97" x="-772.36"/>
  </text>
 </g>
 <text transform="scale(4.0128.2492)" font-size="46.954" y="2335.31" x="4.609" font-family="Arial" text-anchor="middle"/>
 <text font-size="129.23" y="588.97" x="-191.09" font-family="Gentium Book Basic" line-height="125%" word-spacing="0" letter-spacing="0"><tspan y="588.97" x="-191.09"/>
 </text>
 <text transform="scale(4.0128.2492)" font-size="46.954" y="2014.29" x="149.46" font-family="Arial" text-anchor="middle"/>
 <text font-size="129.23" y="407.71" x="-1262.67" font-family="Gentium Book Basic" line-height="125%" word-spacing="0" letter-spacing="0"><tspan y="407.71" x="-1262.67"/>
 </text>
 <text transform="scale(4.0128.2492)" font-size="46.954" y="1286.93" x="-117.58" font-family="Arial" text-anchor="middle"/>
 <text font-size="129.23" y="191.24" x="-164.62" font-family="Gentium Book Basic" line-height="125%" word-spacing="0" letter-spacing="0"><tspan y="191.24" x="-164.62"/>
 </text>
 <text transform="scale(4.0128.2492)" font-size="46.954" y="418.26" x="156.06" font-family="Arial" text-anchor="middle"/>
 <text font-size="129.23" y="111.23" x="416.65" font-family="Gentium Book Basic" line-height="125%" word-spacing="0" letter-spacing="0"><tspan y="111.23" x="416.65"/>
 </text>
 <text transform="scale(4.0128.2492)" font-size="46.954" y="97.23" x="300.91" font-family="Arial" text-anchor="middle"/>
 <text font-size="129.23" y="-361.17" x="27.535" font-family="Gentium Book Basic" line-height="125%" word-spacing="0" letter-spacing="0"><tspan y="-361.17" x="27.535"/>
 </text>
 <text transform="scale(4.0128.2492)" font-size="46.954" y="-1798.42" x="203.94" font-family="Arial" text-anchor="middle"/>
 <text font-size="129.23" y="-441.17" x="608.79" font-family="Gentium Book Basic" line-height="125%" word-spacing="0" letter-spacing="0"><tspan y="-441.17" x="608.79"/>
 </text>
 <text transform="scale(4.0128.2492)" font-size="46.954" y="-2119.45" x="348.79" font-family="Arial" text-anchor="middle"/>
 <g font-family="Gentium Book Basic" line-height="125%" word-spacing="0" letter-spacing="0">
  <text y="973.55" x="-1224.01" font-size="208.33"><tspan y="973.55" x="-1224.01"/>
  </text>
  <text y="743.82" x="-524.9" font-size="129.23"><tspan y="743.82" x="-524.9"/>
  </text>
 </g>
 <text transform="scale(4.0128.2492)" font-size="46.954" y="2635.65" x="66.27" font-family="Arial" text-anchor="middle"/>
 <text font-size="129.23" y="663.82" x="56.37" font-family="Gentium Book Basic" line-height="125%" word-spacing="0" letter-spacing="0"><tspan y="663.82" x="56.37"/>
 </text>
 <text transform="scale(4.0128.2492)" font-size="46.954" y="2314.63" x="211.12" font-family="Arial" text-anchor="middle"/>
 <text font-size="129.23" y="482.56" x="-1015.21" font-family="Gentium Book Basic" line-height="125%" word-spacing="0" letter-spacing="0"><tspan y="482.56" x="-1015.21"/>
 </text>
 <text transform="scale(4.0128.2492)" font-size="46.954" y="1587.27" x="-55.915" font-family="Arial" text-anchor="middle"/>
 <text font-size="129.23" y="266.09" x="82.84" font-family="Gentium Book Basic" line-height="125%" word-spacing="0" letter-spacing="0"><tspan y="266.09" x="82.84"/>
 </text>
 <text transform="scale(4.0128.2492)" font-size="46.954" y="718.6" x="217.72" font-family="Arial" text-anchor="middle"/>
 <text font-size="129.23" y="186.08" x="664.11" font-family="Gentium Book Basic" line-height="125%" word-spacing="0" letter-spacing="0"><tspan y="186.08" x="664.11"/>
 </text>
 <text transform="scale(4.0128.2492)" font-size="46.954" y="397.57" x="362.57" font-family="Arial" text-anchor="middle"/>
 <text font-size="129.23" y="-286.32" x="274.99" font-family="Gentium Book Basic" line-height="125%" word-spacing="0" letter-spacing="0"><tspan y="-286.32" x="274.99"/>
 </text>
 <text transform="scale(4.0128.2492)" font-size="46.954" y="-1498.08" x="265.6" font-family="Arial" text-anchor="middle"/>
 <text font-size="129.23" y="-366.32" x="856.25" font-family="Gentium Book Basic" line-height="125%" word-spacing="0" letter-spacing="0"><tspan y="-366.32" x="856.25"/>
 </text>
 <text transform="scale(4.0128.2492)" font-size="46.954" y="-1819.11" x="410.45" font-family="Arial" text-anchor="middle"/>
 <g font-family="Gentium Book Basic" line-height="125%" word-spacing="0" letter-spacing="0">
  <text y="1048.4" x="-976.55" font-size="208.33"><tspan y="1048.4" x="-976.55"/>
  </text>
  <text y="61.56" x="-1390.94" font-size="129.23"><tspan y="61.56" x="-1390.94"/>
  </text>
 </g>
 <text transform="scale(4.0128.2492)" font-size="46.954" y="-102.12" x="-149.54" font-family="Arial" text-anchor="middle"/>
 <text font-size="129.23" y="-18.437" x="-809.67" font-family="Gentium Book Basic" line-height="125%" word-spacing="0" letter-spacing="0"><tspan y="-18.437" x="-809.67"/>
 </text>
 <text transform="scale(4.0128.2492)" font-size="46.954" y="-423.15" x="-4.695" font-family="Arial" text-anchor="middle"/>
 <text font-size="129.23" y="-199.7" x="-1881.25" font-family="Gentium Book Basic" line-height="125%" word-spacing="0" letter-spacing="0"><tspan y="-199.7" x="-1881.25"/>
 </text>
 <text transform="scale(4.0128.2492)" font-size="46.954" y="-1150.5" x="-271.73" font-family="Arial" text-anchor="middle"/>
 <text font-size="129.23" y="-416.17" x="-783.2" font-family="Gentium Book Basic" line-height="125%" word-spacing="0" letter-spacing="0"><tspan y="-416.17" x="-783.2"/>
 </text>
 <text transform="scale(4.0128.2492)" font-size="46.954" y="-2019.17" x="1.905" font-family="Arial" text-anchor="middle"/>
 <text font-size="129.23" y="-496.18" x="-201.93" font-family="Gentium Book Basic" line-height="125%" word-spacing="0" letter-spacing="0"><tspan y="-496.18" x="-201.93"/>
 </text>
 <text transform="scale(4.0128.2492)" font-size="46.954" y="-2340.21" x="146.75" font-family="Arial" text-anchor="middle"/>
 <text font-size="129.23" y="-968.58" x="-591.05" font-family="Gentium Book Basic" line-height="125%" word-spacing="0" letter-spacing="0"><tspan y="-968.58" x="-591.05"/>
 </text>
 <text transform="scale(4.0128.2492)" font-size="46.954" y="-4235.86" x="49.785" font-family="Arial" text-anchor="middle"/>
 <text font-size="129.23" y="-1048.58" x="-9.793" font-family="Gentium Book Basic" line-height="125%" word-spacing="0" letter-spacing="0"><tspan y="-1048.58" x="-9.793"/>
 </text>
 <text transform="scale(4.0128.2492)" font-size="46.954" y="-4556.89" x="194.63" font-family="Arial" text-anchor="middle"/>
 <g font-family="Gentium Book Basic" line-height="125%" font-size="208.33" word-spacing="0" letter-spacing="0">
  <text y="366.14" x="-1842.59"><tspan y="366.14" x="-1842.59"/>
  </text>
  <text y="-130.93" x="-2271.5"><tspan y="-130.93" x="-2271.5"/>
  </text>
 </g>
 <text transform="scale(4.0128.2492)" font-size="75.7" y="-1088.29" x="-248.33" font-family="Arial" text-anchor="middle"/>
 <text font-size="208.33" y="-898.88" x="-2919.26" font-family="Gentium Book Basic" line-height="125%" word-spacing="0" letter-spacing="0"><tspan y="-898.88" x="-2919.26"/>
 </text>
 <text transform="scale(4.0128.2492)" font-size="75.7" y="-4169.96" x="-409.76" font-family="Arial" text-anchor="middle"/>
 <text font-size="208.33" y="-1054.51" x="-2212.92" font-family="Gentium Book Basic" line-height="125%" word-spacing="0" letter-spacing="0"><tspan y="-1054.51" x="-2212.92"/>
 </text>
 <text transform="scale(4.0128.2492)" font-size="75.7" y="-4794.48" x="-233.74" font-family="Arial" text-anchor="middle"/>
 <text font-size="129.23" y="230.78" x="-1740.23" font-family="Gentium Book Basic" line-height="125%" word-spacing="0" letter-spacing="0"><tspan y="230.78" x="-1740.23"/>
 </text>
 <text transform="scale(4.0128.2492)" font-size="46.954" y="576.93" x="-236.59" font-family="Arial" text-anchor="middle"/>
 <text font-size="129.23" y="150.78" x="-1158.96" font-family="Gentium Book Basic" line-height="125%" word-spacing="0" letter-spacing="0"><tspan y="150.78" x="-1158.96"/>
 </text>
 <text transform="scale(4.0128.2492)" font-size="46.954" y="255.9" x="-91.74" font-family="Arial" text-anchor="middle"/>
 <text font-size="129.23" y="-30.478" x="-2230.54" font-family="Gentium Book Basic" line-height="125%" word-spacing="0" letter-spacing="0"><tspan y="-30.478" x="-2230.54"/>
 </text>
 <text transform="scale(4.0128.2492)" font-size="46.954" y="-471.45" x="-358.78" font-family="Arial" text-anchor="middle"/>
 <text font-size="129.23" y="-246.95" x="-1132.49" font-family="Gentium Book Basic" line-height="125%" word-spacing="0" letter-spacing="0"><tspan y="-246.95" x="-1132.49"/>
 </text>
 <text transform="scale(4.0128.2492)" font-size="46.954" y="-1340.12" x="-85.14" font-family="Arial" text-anchor="middle"/>
 <text font-size="129.23" y="-326.96" x="-551.22" font-family="Gentium Book Basic" line-height="125%" word-spacing="0" letter-spacing="0"><tspan y="-326.96" x="-551.22"/>
 </text>
 <text transform="scale(4.0128.2492)" font-size="46.954" y="-1661.16" x="59.711" font-family="Arial" text-anchor="middle"/>
 <text font-size="129.23" y="-799.36" x="-940.34" font-family="Gentium Book Basic" line-height="125%" word-spacing="0" letter-spacing="0"><tspan y="-799.36" x="-940.34"/>
 </text>
 <text transform="scale(4.0128.2492)" font-size="46.954" y="-3556.81" x="-37.26" font-family="Arial" text-anchor="middle"/>
 <text font-size="129.23" y="-879.36" x="-359.08" font-family="Gentium Book Basic" line-height="125%" word-spacing="0" letter-spacing="0"><tspan y="-879.36" x="-359.08"/>
 </text>
 <text transform="scale(4.0128.2492)" font-size="46.954" y="-3877.83" x="107.59" font-family="Arial" text-anchor="middle"/>
 <text font-size="208.33" y="535.36" x="-2191.88" font-family="Gentium Book Basic" line-height="125%" word-spacing="0" letter-spacing="0"><tspan y="535.36" x="-2191.88"/>
 </text>
 <path d="m87.57 195.41v275.36h315.39v-275.36h-315.39m30.522 30.523h70.69v91.9h-70.69v-91.9m101.21 0h153.13v91.9h-153.13v-91.9m-101.21 122.42h70.69v91.9h-70.69v-91.9m101.21 0h153.13v91.9h-153.13v-91.9" fill="#f9f9f9"/>
</svg>
