<?xml version="1.0" encoding="UTF-8" standalone="no"?>
<svg xmlns="http://www.w3.org/2000/svg" viewBox="0 0 512 512">
 <g fill-opacity="0.078">
  <path d="m66.61 0c-4.047 0-7.299 3.253-7.299 7.299v497.4c0 4.047 3.253 7.299 7.299 7.299h378.79c4.047 0 7.299-3.253 7.299-7.299v-359.46l-145.21-145.24h-240.88"/>
  <path d="m69.2 3.5c-3.991 0-7.2 3.208-7.2 7.2v490.6c0 3.991 3.208 7.2 7.2 7.2h373.61c3.991 0 7.2-3.208 7.2-7.2v-354.55l-143.22-143.25h-237.59"/>
  <path d="m71.786 7c-3.936 0-7.1 3.164-7.1 7.1v483.8c0 3.936 3.164 7.1 7.1 7.1h368.43c3.936 0 7.1-3.164 7.1-7.1v-349.63l-141.24-141.27h-234.29"/>
 </g>
 <path fill="#cd1d31" d="m74.38 10.5c-3.881 0-7 3.119-7 7v477c0 3.881 3.119 7 7 7h363.25c3.881 0 7-3.119 7-7v-344.72l-139.25-139.28h-231"/>
 <path d="m308.78 148.78c4.487 5.957 11.24 10.578 16.06 16.313 39.915 39.949 79.85 79.881 119.78 119.81v-135.12h-132.25c-1.321 0-2.542-0.37-3.594-1" fill-opacity="0.235"/>
 <path fill="#fff" d="m444.62 149.78l-139.25-139.28v132.28c0 3.881 3.119 7 7 7h132.25" fill-opacity="0.196"/>
 <text font-size="129.23" y="39.41" x="-210.55" font-family="Gentium Book Basic" line-height="125%" word-spacing="0" letter-spacing="0"><tspan y="39.41" x="-210.55"/>
 </text>
 <text transform="scale(4.0128.2492)" font-size="46.954" y="-191" x="144.61" font-family="Arial" text-anchor="middle"/>
 <text font-size="129.23" y="-40.586" x="370.72" font-family="Gentium Book Basic" line-height="125%" word-spacing="0" letter-spacing="0"><tspan y="-40.586" x="370.72"/>
 </text>
 <text transform="scale(4.0128.2492)" font-size="46.954" y="-512.03" x="289.46" font-family="Arial" text-anchor="middle"/>
 <text font-size="129.23" y="-221.85" x="-700.86" font-family="Gentium Book Basic" line-height="125%" word-spacing="0" letter-spacing="0"><tspan y="-221.85" x="-700.86"/>
 </text>
 <text transform="scale(4.0128.2492)" font-size="46.954" y="-1239.38" x="22.422" font-family="Arial" text-anchor="middle"/>
 <text font-size="129.23" y="-438.32" x="397.19" font-family="Gentium Book Basic" line-height="125%" word-spacing="0" letter-spacing="0"><tspan y="-438.32" x="397.19"/>
 </text>
 <text transform="scale(4.0128.2492)" font-size="46.954" y="-2108.05" x="296.06" font-family="Arial" text-anchor="middle"/>
 <text font-size="129.23" y="-518.33" x="978.46" font-family="Gentium Book Basic" line-height="125%" word-spacing="0" letter-spacing="0"><tspan y="-518.33" x="978.46"/>
 </text>
 <text transform="scale(4.0128.2492)" font-size="46.954" y="-2429.09" x="440.91" font-family="Arial" text-anchor="middle"/>
 <text font-size="129.23" y="-990.73" x="589.34" font-family="Gentium Book Basic" line-height="125%" word-spacing="0" letter-spacing="0"><tspan y="-990.73" x="589.34"/>
 </text>
 <text transform="scale(4.0128.2492)" font-size="46.954" y="-4324.74" x="343.94" font-family="Arial" text-anchor="middle"/>
 <text font-size="129.23" y="-1070.73" x="1170.6" font-family="Gentium Book Basic" line-height="125%" word-spacing="0" letter-spacing="0"><tspan y="-1070.73" x="1170.6"/>
 </text>
 <text transform="scale(4.0128.2492)" font-size="46.954" y="-4645.77" x="488.79" font-family="Arial" text-anchor="middle"/>
 <g font-family="Gentium Book Basic" line-height="125%" word-spacing="0" letter-spacing="0">
  <text y="343.99" x="-662.2" font-size="208.33"><tspan y="343.99" x="-662.2"/>
  </text>
  <text y="209.67" x="91.81" font-size="129.23"><tspan y="209.67" x="91.81"/>
  </text>
 </g>
 <text transform="scale(4.0128.2492)" font-size="46.954" y="492.19" x="219.96" font-family="Arial" text-anchor="middle"/>
 <text font-size="129.23" y="129.67" x="673.08" font-family="Gentium Book Basic" line-height="125%" word-spacing="0" letter-spacing="0"><tspan y="129.67" x="673.08"/>
 </text>
 <text transform="scale(4.0128.2492)" font-size="46.954" y="171.16" x="364.81" font-family="Arial" text-anchor="middle"/>
 <text font-size="129.23" y="-51.596" x="-398.5" font-family="Gentium Book Basic" line-height="125%" word-spacing="0" letter-spacing="0"><tspan y="-51.596" x="-398.5"/>
 </text>
 <text transform="scale(4.0128.2492)" font-size="46.954" y="-556.2" x="97.77" font-family="Arial" text-anchor="middle"/>
 <text font-size="129.23" y="-268.06" x="699.55" font-family="Gentium Book Basic" line-height="125%" word-spacing="0" letter-spacing="0"><tspan y="-268.06" x="699.55"/>
 </text>
 <text transform="scale(4.0128.2492)" font-size="46.954" y="-1424.86" x="371.41" font-family="Arial" text-anchor="middle"/>
 <text font-size="129.23" y="-348.07" x="1280.82" font-family="Gentium Book Basic" line-height="125%" word-spacing="0" letter-spacing="0"><tspan y="-348.07" x="1280.82"/>
 </text>
 <text transform="scale(4.0128.2492)" font-size="46.954" y="-1745.9" x="516.26" font-family="Arial" text-anchor="middle"/>
 <text font-size="129.23" y="-820.47" x="891.7" font-family="Gentium Book Basic" line-height="125%" word-spacing="0" letter-spacing="0"><tspan y="-820.47" x="891.7"/>
 </text>
 <text transform="scale(4.0128.2492)" font-size="46.954" y="-3641.55" x="419.29" font-family="Arial" text-anchor="middle"/>
 <text font-size="129.23" y="-900.47" x="1472.96" font-family="Gentium Book Basic" line-height="125%" word-spacing="0" letter-spacing="0"><tspan y="-900.47" x="1472.96"/>
 </text>
 <text transform="scale(4.0128.2492)" font-size="46.954" y="-3962.58" x="564.14" font-family="Arial" text-anchor="middle"/>
 <text font-size="208.33" y="514.25" x="-359.84" font-family="Gentium Book Basic" line-height="125%" word-spacing="0" letter-spacing="0"><tspan y="514.25" x="-359.84"/>
 </text>
 <g>
  <path opacity="0.25" d="m373.38 219.38c-0.585-0.036-1.21 0.035-1.813 0.25-0.01 0.004-0.021-0.004-0.031 0-3.368 1.206-9.729 2.931-13.719 4-5.498 1.473-12.393 3.332-16.281 4.063-2.539 0.48-4.051 2.872-3.406 5.375l1.094 4.03c0.211 0.801 0.612 1.486 1.145 2.02l6.459 6.459-7.98 22.385-29.467-29.467c-1.119-1.119-2.805-1.548-4.469-0.988-5.01 1.667-13.188 3.838-18.688 5.313-4.306 1.154-12.745 3.412-16.406 4.094-0.007 0.001-0.025-0.001-0.031 0-0.278 0.047-0.549 0.119-0.813 0.219l0.016 0.078-0.047-0.047c-2.079 0.848-3.164 2.954-2.594 5.125v0.031l1.094 4.03c0.212 0.793 0.611 1.466 1.135 1.99l54.48 54.48-1.898 5.391-34.545-34.545c-1.062-1.062-2.621-1.496-4.201-1.064l-52.06 13.967-28.9-28.9c-1.055-1.055-2.609-1.494-4.191-1.066l-96.44 25.813c-2.266 0.601-3.591 2.727-3.156 5.03l7.06 37.688c0.176 0.93 0.608 1.723 1.209 2.324l55.971 55.971c-0.995 0.308-2.067 0.624-3.305 0.955l-4.719 1.281c-2.386 0.64-3.733 2.958-3.094 5.344l1.094 4.03c0.215 0.803 0.618 1.487 1.148 2.02l94.45 94.45h190.16c3.881 0 7-3.119 7-7v-205.38l-68.51-68.51c-0.73-0.73-1.702-1.168-2.748-1.232"/>
  <path d="m373.38 219.38c-0.585-0.036-1.21 0.035-1.813 0.25-0.01 0.004-0.021-0.004-0.031 0-3.368 1.206-9.729 2.931-13.719 4-5.498 1.473-12.393 3.332-16.281 4.063-2.539 0.48-4.051 2.872-3.406 5.375l1.094 4.03c0.59 2.237 2.661 3.572 4.938 3.188 0.015-0.003 0.016 0.003 0.031 0 1.857-0.311 2.269-0.032 2.656 0.25h0.031c0.292 0.213 0.574 0.689 0.75 1.344 0.245 0.913 0.173 1.102-0.438 2.719l-0.031 0.031c-0.022 0.059-0.008 0.062-0.031 0.125l-0.031 0.063-11.375 31.906-29.5-25.344c-0.039-0.036-0.025-0.028-0.063-0.063-0.075-0.07-0.057-0.06-0.125-0.125 0.363-0.381 0.963-0.898 2.563-1.375 2.328-0.687 3.629-2.968 3-5.313l-1.094-4.03v-0.031c-0.689-2.467-3.166-3.754-5.594-2.938-5.01 1.667-13.188 3.838-18.688 5.313-4.306 1.154-12.745 3.412-16.406 4.094-0.007 0.001-0.025-0.001-0.031 0-0.278 0.047-0.549 0.119-0.813 0.219l0.031 0.156-0.063-0.125c-2.079 0.848-3.164 2.954-2.594 5.125v0.031l1.094 4.03c0.64 2.386 2.958 3.702 5.344 3.063 4.514-1.21 7.369-1.753 8.906-1.688 1.648 0.069 2.331 0.369 4.5 2.156h0.062v0.031c0.017 0.013 0.014 0.019 0.031 0.031l42.5 36.594-16.688 47.41v0.031c-3.715 10.375-12.292 12.642-15.375 13.469-2.386 0.64-3.733 2.958-3.094 5.344l1.063 4c0.002 0.009-0.003 0.022 0 0.031 0.683 2.525 3.257 3.866 5.719 2.969 1.057-0.379 2.795-0.86 4.375-1.313 0.623 8.145 0.386 14.485-1.75 18.875-2.62 5.384-8.11 9.561-21.06 13.03l-23.19 6.219c-1.348 0.361-2.152 0.51-2.719 0.594-0.179-0.502-0.39-1.141-0.688-2.25l-11.344-42.469 11.5-3.094c3.685-0.987 6.336-1.335 8.188-1.25s2.856 0.524 3.719 1.219c1.618 1.303 3.504 5.353 5.344 12.219 0.64 2.386 2.958 3.702 5.344 3.063l2.688-0.719c2.386-0.64 3.733-2.958 3.094-5.344l-11.656-43.44c-0.64-2.386-2.958-3.733-5.344-3.094l-2.688 0.719c-2.386 0.639-3.733 2.958-3.094 5.344 1.808 6.748 2.208 11.136 1.469 13-0.394 0.993-1.047 1.854-2.625 2.844-1.578 0.989-4.089 2.01-7.781 3l-11.531 3.063-9.969-37.16c-0.281-1.048-0.375-1.62-0.469-2.125 0.571-0.23 1.347-0.524 2.656-0.875l22.813-6.125c12.372-3.314 18.469-2.524 22.813 0.656 4.287 3.14 7.766 10.09 11.844 20.688 0.836 2.127 3.01 3.23 5.219 2.625l3-0.813c2.567-0.674 3.908-3.268 2.969-5.75v-0.031l-13.906-35.844c-0.816-2.156-2.995-3.264-5.219-2.656l-68.844 18.469-11.06-31.656c-0.003-0.009 0.003-0.022 0-0.031-0.763-2.224-2.976-3.395-5.25-2.781l-96.44 25.813c-2.266 0.601-3.591 2.727-3.156 5.03l7.06 37.688c0.484 2.561 2.922 4.088 5.438 3.406l2.969-0.813c0.01-0.003 0.022 0.003 0.031 0 2.23-0.604 3.557-2.689 3.156-4.969v-0.031c-2.605-13.998-3.087-21.817-1.219-25.594 0.967-1.958 2.47-3.429 5.625-5.094 3.136-1.654 7.821-3.272 14.156-4.969l8.125-2.156c0.179 0.534 0.389 1.246 0.625 2.125l24.375 90.91c0.377 1.409 0.557 2.487 0.563 2.719 0.025-0.041-0.817 0.608-2.438 1.281-1.661 0.69-4.124 1.525-7.531 2.438l-4.719 1.281c-2.386 0.64-3.733 2.958-3.094 5.344l1.094 4.03c0.65 2.429 3.03 3.773 5.438 3.063 7.966-2.302 16.234-4.693 24.375-6.875 8.114-2.174 16.488-4.263 24.531-6.25 2.444-0.59 3.839-2.947 3.188-5.375l-1.094-4c-0.64-2.386-2.958-3.733-5.344-3.094l-4.656 1.25c-3.35 0.898-5.877 1.403-7.625 1.625-1.687 0.215-2.668 0.066-2.625 0.094-0.116-0.212-0.497-1.278-0.875-2.688l-24.375-90.91c-0.239-0.891-0.426-1.618-0.531-2.156l7.906-2.125c6.148-1.647 10.887-2.57 14.375-2.719h0.094c3.52-0.139 5.573 0.39 7.375 1.563 3.01 1.959 6.117 7.71 9.906 17.719l-4.125 1.094c-2.386 0.64-3.702 2.958-3.063 5.344l1.219 4.594c0.64 2.386 2.958 3.733 5.344 3.094 2.932-0.786 5.237-1.331 6.906-1.656 1.536-0.3 2.464-0.293 2.531-0.313 0.117 0.209 0.542 1.129 0.969 2.719l24.16 90.09c0.428 1.597 0.527 2.68 0.531 2.906-0.047 0-0.856 0.464-2.344 0.969-1.611 0.547-3.872 1.212-6.813 2-2.386 0.64-3.733 2.958-3.094 5.344l1.094 4.03c0.64 2.386 2.958 3.733 5.344 3.094l86.88-23.281h0.031c2.149-0.583 3.462-2.541 3.188-4.75l-4.156-34.25c4.546-1.209 10.615-2.825 13.875-3.438 2.539-0.48 4.051-2.872 3.406-5.375v-0.031l-1.094-4c-0.003-0.009 0.003-0.022 0-0.031-0.6-2.204-2.646-3.556-4.906-3.188-1.808 0.302-2.291 0.022-2.719-0.281-0.357-0.253-0.631-0.69-0.781-1.25-0.282-1.051-0.192-1.16 0.156-2 0.013-0.022 0.019-0.04 0.031-0.063l0.031-0.094c0.019-0.046 0.043-0.042 0.063-0.094l0.031-0.125 0.031-0.063 14.13-40.12 35.5 30.594 0.125 0.125 0.031 0.031 0.094 0.063c0.05 0.041 0.016 0.023 0.063 0.063-0.388 0.381-1.054 0.885-2.719 1.438-2.241 0.754-3.429 2.998-2.813 5.281l1.063 4.03c0.689 2.467 3.166 3.785 5.594 2.969 5.01-1.666 13.151-3.837 18.656-5.313 4.323-1.158 12.835-3.413 16.5-4.094 2.539-0.48 4.051-2.872 3.406-5.375v-0.031l-1.094-4.03c-0.64-2.386-2.958-3.733-5.344-3.094-5.226 1.4-8.123 1.826-9.344 1.719-1.355-0.119-1.755-0.389-3.875-2.156l-0.156-0.125-48.656-41.781 14.09-39.438 0.031-0.031v-0.031c0.789-2.146 1.667-4.661 3.781-7.156s5.455-5.03 11.563-6.75c2.357-0.663 3.665-2.948 3.03-5.313l-1.063-4.03v-0.031c-0.523-1.885-2.091-3.077-3.875-3.188" fill="#fff"/>
 </g>
</svg>
