<?xml version="1.0" encoding="UTF-8" standalone="no"?>
<svg xmlns="http://www.w3.org/2000/svg" xmlns:xlink="http://www.w3.org/1999/xlink" viewBox="0 0 512 512">
 <text font-size="208.33" y="456.61" x="-477.49" font-family="Gentium Book Basic" line-height="125%" word-spacing="0" letter-spacing="0"><tspan y="456.61" x="-477.49"/>
 </text>
 <text transform="scale(4.0128.2492)" font-size="75.7" y="1269.4" x="198.74" font-family="Arial" text-anchor="middle"/>
 <text font-size="208.33" y="300.98" x="228.86" font-family="Gentium Book Basic" line-height="125%" word-spacing="0" letter-spacing="0"><tspan y="300.98" x="228.86"/>
 </text>
 <text transform="scale(4.0128.2492)" font-size="75.7" y="644.88" x="374.76" font-family="Arial" text-anchor="middle"/>
 <text font-size="208.33" y="292.85" x="262.23" font-family="Gentium Book Basic" line-height="125%" word-spacing="0" letter-spacing="0"><tspan y="292.85" x="262.23"/>
 </text>
 <text transform="scale(4.0128.2492)" font-size="75.7" y="612.28" x="383.07" font-family="Arial" text-anchor="middle"/>
 <g fill-opacity="0.078">
  <path d="m32.563 0c-4.774 0-8.594 3.266-8.594 7.313v497.38c0 4.047 3.82 7.313 8.594 7.313h446.87c4.774 0 8.594-3.266 8.594-7.313v-360.03l-144.66-144.66h-310.81"/>
  <path d="m35.625 3.5c-4.709 0-8.5 3.196-8.5 7.188v490.62c0 3.991 3.791 7.188 8.5 7.188h440.75c4.709 0 8.5-3.196 8.5-7.188v-356.28l-141.53-141.53h-307.72"/>
  <path d="m38.688 7c-4.643 0-8.375 3.158-8.375 7.094v483.82c0 3.936 3.732 7.094 8.375 7.094h434.62c4.643 0 8.375-3.158 8.375-7.094v-352.62l-138.28-138.28h-304.72"/>
 </g>
 <path fill="#e75177" d="m41.719 10.5c-4.578 0-8.25 3.119-8.25 7v477c0 3.881 3.672 7 8.25 7h428.56c4.578 0 8.25-3.119 8.25-7v-348.06l-135.97-135.94h-300.84"/>
 <path id="0" fill-opacity="0.196" fill="#fff" d="m478.53 146.44l-135.97-135.94v128.94c0 3.881 3.672 7 8.25 7h127.72"/>
 <use width="1" xlink:href="#0" height="1"/>
 <path d="m345.03 144.56l133.5 129.38v-127.5h-127.72c-2.185 0-4.154-0.71-5.625-1.875h-0.156" fill-opacity="0.196"/>
 <text font-size="129.23" y="190.14" x="1462.93" font-family="Gentium Book Basic" line-height="125%" word-spacing="0" letter-spacing="0"><tspan y="190.14" x="1462.93"/>
 </text>
 <text transform="scale(4.0128.2492)" font-size="46.954" y="413.84" x="561.64" font-family="Arial" text-anchor="middle"/>
 <text font-size="129.23" y="110.14" x="2044.2" font-family="Gentium Book Basic" line-height="125%" word-spacing="0" letter-spacing="0"><tspan y="110.14" x="2044.2"/>
 </text>
 <text transform="scale(4.0128.2492)" font-size="46.954" y="92.81" x="706.49" font-family="Arial" text-anchor="middle"/>
 <text font-size="129.23" y="-71.12" x="972.62" font-family="Gentium Book Basic" line-height="125%" word-spacing="0" letter-spacing="0"><tspan y="-71.12" x="972.62"/>
 </text>
 <text transform="scale(4.0128.2492)" font-size="46.954" y="-634.55" x="439.46" font-family="Arial" text-anchor="middle"/>
 <text font-size="129.23" y="-287.59" x="2070.67" font-family="Gentium Book Basic" line-height="125%" word-spacing="0" letter-spacing="0"><tspan y="-287.59" x="2070.67"/>
 </text>
 <text transform="scale(4.0128.2492)" font-size="46.954" y="-1503.21" x="713.09" font-family="Arial" text-anchor="middle"/>
 <text font-size="129.23" y="-367.6" x="2651.94" font-family="Gentium Book Basic" line-height="125%" word-spacing="0" letter-spacing="0"><tspan y="-367.6" x="2651.94"/>
 </text>
 <text transform="scale(4.0128.2492)" font-size="46.954" y="-1824.25" x="857.94" font-family="Arial" text-anchor="middle"/>
 <text font-size="129.23" y="-840" x="2262.82" font-family="Gentium Book Basic" line-height="125%" word-spacing="0" letter-spacing="0"><tspan y="-840" x="2262.82"/>
 </text>
 <text transform="scale(4.0128.2492)" font-size="46.954" y="-3719.9" x="760.97" font-family="Arial" text-anchor="middle"/>
 <text font-size="129.23" y="-920" x="2844.08" font-family="Gentium Book Basic" line-height="125%" word-spacing="0" letter-spacing="0"><tspan y="-920" x="2844.08"/>
 </text>
 <text transform="scale(4.0128.2492)" font-size="46.954" y="-4040.93" x="905.82" font-family="Arial" text-anchor="middle"/>
 <text font-size="208.33" y="494.72" x="1011.28" font-family="Gentium Book Basic" line-height="125%" word-spacing="0" letter-spacing="0"><tspan y="494.72" x="1011.28"/>
 </text>
 <path opacity="0.25" d="m186.31 192.53c-9.614 0-17.438 7.823-17.438 17.438v34.844l17.406 17.406h-52.25c-9.614 0-17.438 7.823-17.438 17.438v87.13c0 4.814 1.954 9.171 5.109 12.326l47.17 47.17v27.627c0 4.814 1.954 9.171 5.109 12.326l35.27 35.27h261.03c4.578 0 8.25-3.119 8.25-7v-156.34l-140.52-140.52c-3.155-3.155-7.513-5.109-12.326-5.109h-139.37"/>
 <path d="m186.31 192.53c-9.614 0-17.438 7.823-17.438 17.438v34.844h17.438v-34.844h139.38v34.844h17.438v-34.844c0-9.614-7.806-17.438-17.438-17.438h-139.37m-52.28 69.69c-9.614 0-17.438 7.823-17.438 17.438v87.13c0 9.632 7.823 17.438 17.438 17.438h34.844v69.69c0 9.632 7.823 17.438 17.438 17.438h139.38c9.632 0 17.438-7.806 17.438-17.438v-69.69h34.844c9.632 0 17.438-7.806 17.438-17.438v-87.12c0-9.614-7.806-17.438-17.438-17.438h-243.94m226.53 17.438c9.631 0 17.406 7.823 17.406 17.438 0 9.632-7.774 17.406-17.406 17.406s-17.438-7.775-17.438-17.406c0-9.614 7.806-17.438 17.438-17.438m-174.25 52.28h139.38v121.97h-139.37v-121.97m17.406 17.406v17.438h69.72v-17.438h-69.72m0 34.875v17.406h104.56v-17.406h-104.56m0 34.844v17.406h104.56v-17.406h-104.56" fill="#fff"/>
</svg>
