<?xml version="1.0" encoding="UTF-8" standalone="no"?>
<svg xmlns="http://www.w3.org/2000/svg" xmlns:xlink="http://www.w3.org/1999/xlink" viewBox="0 0 512 512">
 <text font-size="129.23" y="148.92" x="-109.95" font-family="Gentium Book Basic" line-height="125%" word-spacing="0" letter-spacing="0"><tspan y="148.92" x="-109.95"/>
 </text>
 <text transform="scale(4.0128.2492)" font-size="46.954" y="248.43" x="169.68" font-family="Arial" text-anchor="middle"/>
 <text font-size="129.23" y="68.919" x="471.32" font-family="Gentium Book Basic" line-height="125%" word-spacing="0" letter-spacing="0"><tspan y="68.919" x="471.32"/>
 </text>
 <text transform="scale(4.0128.2492)" font-size="46.954" y="-72.6" x="314.53" font-family="Arial" text-anchor="middle"/>
 <text font-size="129.23" y="-112.34" x="-600.26" font-family="Gentium Book Basic" line-height="125%" word-spacing="0" letter-spacing="0"><tspan y="-112.34" x="-600.26"/>
 </text>
 <text transform="scale(4.0128.2492)" font-size="46.954" y="-799.96" x="47.49" font-family="Arial" text-anchor="middle"/>
 <text font-size="129.23" y="-328.81" x="497.79" font-family="Gentium Book Basic" line-height="125%" word-spacing="0" letter-spacing="0"><tspan y="-328.81" x="497.79"/>
 </text>
 <text transform="scale(4.0128.2492)" font-size="46.954" y="-1668.62" x="321.13" font-family="Arial" text-anchor="middle"/>
 <text font-size="129.23" y="-408.82" x="1079.06" font-family="Gentium Book Basic" line-height="125%" word-spacing="0" letter-spacing="0"><tspan y="-408.82" x="1079.06"/>
 </text>
 <text transform="scale(4.0128.2492)" font-size="46.954" y="-1989.66" x="465.98" font-family="Arial" text-anchor="middle"/>
 <text font-size="129.23" y="-881.22" x="689.94" font-family="Gentium Book Basic" line-height="125%" word-spacing="0" letter-spacing="0"><tspan y="-881.22" x="689.94"/>
 </text>
 <text transform="scale(4.0128.2492)" font-size="46.954" y="-3885.31" x="369.01" font-family="Arial" text-anchor="middle"/>
 <text font-size="129.23" y="-961.22" x="1271.2" font-family="Gentium Book Basic" line-height="125%" word-spacing="0" letter-spacing="0"><tspan y="-961.22" x="1271.2"/>
 </text>
 <text transform="scale(4.0128.2492)" font-size="46.954" y="-4206.34" x="513.86" font-family="Arial" text-anchor="middle"/>
 <text font-size="208.33" y="453.5" x="-561.6" font-family="Gentium Book Basic" line-height="125%" word-spacing="0" letter-spacing="0"><tspan y="453.5" x="-561.6"/>
 </text>
 <path opacity="0.1" d="m36.06 0c-5.63 0-10.156 4.527-10.156 10.156v491.69c0 5.63 4.527 10.156 10.156 10.156h439.88c5.63 0 10.156-4.527 10.156-10.156v-334.09l-167.75-167.75h-282.28"/>
 <path opacity="0.1" d="m39.06 3.5c-5.553 0-10.03 4.479-10.03 10.03v484.94c0 5.553 4.479 10.03 10.03 10.03h433.88c5.553 0 10.03-4.479 10.03-10.03v-327.84l-167.12-167.12h-276.78"/>
 <path opacity="0.1" d="m42.06 7c-5.476 0-9.875 4.399-9.875 9.875v478.25c0 5.476 4.399 9.875 9.875 9.875h427.88c5.476 0 9.875-4.399 9.875-9.875v-321.66l-166.47-166.47h-271.28"/>
 <path d="m45.06 10.5c-5.399 0-9.719 4.351-9.719 9.75v471.5c0 5.399 4.32 9.75 9.719 9.75h421.88c5.399 0 9.719-4.351 9.719-9.75v-315.44l-165.81-165.81h-265.78" fill="#d8b232"/>
 <path id="0" fill-opacity="0.196" fill="#fff" d="m476.66 176.31l-165.81-165.81v156.06c0 5.399 4.32 9.75 9.719 9.75h156.09"/>
 <use xlink:href="#0"/>
 <path opacity="0.25" d="m255.31 165.19c-14.355 5.635-12.204 25.834-13.469 38.844-0.427 6.622 1.271 17.99 6.406 23.13l0.531 0.5 8.03 8.06c-25.26 3.737-49.41 14.627-67.44 33.06-5.63 5.286-10.634 11.29-14.875 17.813l-19.16-19.16c-8.599-8.599-20.52-13.953-31.375-19.12-2.875-1.171-5.888-2.166-9.03-2.156-15.764 1.533-11.357 13.11-3.063 21.406l49.38 49.38c-5.57 22.01-3.52 45.685 8.813 65.53 3.591 5.907 7.883 11.289 12.719 16.13l102.91 102.91h181.25c5.399 0 9.719-4.351 9.719-9.75v-315.43h-156.09c-1.422 0-2.756-0.3-3.969-0.844 23.932 24.06 48.573 48.833 72.813 73.19-10.688 4.136-20.231 11.337-29.22 18.531l-99.12-99.12c-1.464-1.464-3.325-2.507-5.75-2.875m-78.06 244.47c-15.243 3.825-26.373 16.761-37 27.656-8.266 5.3-7.669 15.11-3 19.781l44.41 44.41h90.09l-90-90c-1.164-1.164-2.753-1.881-4.5-1.844"/>
 <text font-size="208.33" y="-43.575" x="-990.51" font-family="Gentium Book Basic" line-height="125%" word-spacing="0" letter-spacing="0"><tspan y="-43.575" x="-990.51"/>
 </text>
 <text transform="scale(4.0128.2492)" font-size="75.7" y="-737.75" x="70.891" font-family="Arial" text-anchor="middle"/>
 <text font-size="208.33" y="-811.53" x="-1638.27" font-family="Gentium Book Basic" line-height="125%" word-spacing="0" letter-spacing="0"><tspan y="-811.53" x="-1638.27"/>
 </text>
 <text transform="scale(4.0128.2492)" font-size="75.7" y="-3819.41" x="-90.53" font-family="Arial" text-anchor="middle"/>
 <text font-size="208.33" y="-967.16" x="-931.93" font-family="Gentium Book Basic" line-height="125%" word-spacing="0" letter-spacing="0"><tspan y="-967.16" x="-931.93"/>
 </text>
 <text transform="scale(4.0128.2492)" font-size="75.7" y="-4443.94" x="85.49" font-family="Arial" text-anchor="middle"/>
 <g fill="#fff">
  <path d="m72.27 108.77c37.2-14.404 65.56-13.86 87.44 1.383 19.34-22.85 61.09-31.632 74.49-30.1-40.04-14.88-71.46 0.077-78.25 10.08-22.23-9.765-72.03-0.918-83.67 18.636"/>
  <path d="m134.75 56.812c26.617-7.348 50.23-7.979 66.97 1.488 15.649-12.541 47.967-17.08 58.19-16.11-36.725-7.588-52.912-0.63-60.811 4.174-23.597-5.201-46.2-4.787-64.34 10.45"/>
 </g>
 <text font-size="129.23" y="244.38" x="-34.02" font-family="Gentium Book Basic" line-height="125%" word-spacing="0" letter-spacing="0"><tspan y="244.38" x="-34.02"/>
 </text>
 <text transform="scale(4.0128.2492)" font-size="46.954" y="631.48" x="188.6" font-family="Arial" text-anchor="middle"/>
 <text font-size="129.23" y="164.38" x="547.25" font-family="Gentium Book Basic" line-height="125%" word-spacing="0" letter-spacing="0"><tspan y="164.38" x="547.25"/>
 </text>
 <text transform="scale(4.0128.2492)" font-size="46.954" y="310.45" x="333.45" font-family="Arial" text-anchor="middle"/>
 <text font-size="129.23" y="-16.884" x="-524.33" font-family="Gentium Book Basic" line-height="125%" word-spacing="0" letter-spacing="0"><tspan y="-16.884" x="-524.33"/>
 </text>
 <text transform="scale(4.0128.2492)" font-size="46.954" y="-416.9" x="66.41" font-family="Arial" text-anchor="middle"/>
 <text font-size="129.23" y="-233.35" x="573.72" font-family="Gentium Book Basic" line-height="125%" word-spacing="0" letter-spacing="0"><tspan y="-233.35" x="573.72"/>
 </text>
 <text transform="scale(4.0128.2492)" font-size="46.954" y="-1285.57" x="340.05" font-family="Arial" text-anchor="middle"/>
 <text font-size="129.23" y="-313.36" x="1154.99" font-family="Gentium Book Basic" line-height="125%" word-spacing="0" letter-spacing="0"><tspan y="-313.36" x="1154.99"/>
 </text>
 <text transform="scale(4.0128.2492)" font-size="46.954" y="-1606.61" x="484.9" font-family="Arial" text-anchor="middle"/>
 <text font-size="129.23" y="-785.76" x="765.87" font-family="Gentium Book Basic" line-height="125%" word-spacing="0" letter-spacing="0"><tspan y="-785.76" x="765.87"/>
 </text>
 <text transform="scale(4.0128.2492)" font-size="46.954" y="-3502.26" x="387.93" font-family="Arial" text-anchor="middle"/>
 <text font-size="129.23" y="-865.76" x="1347.13" font-family="Gentium Book Basic" line-height="125%" word-spacing="0" letter-spacing="0"><tspan y="-865.76" x="1347.13"/>
 </text>
 <text transform="scale(4.0128.2492)" font-size="46.954" y="-3823.29" x="532.78" font-family="Arial" text-anchor="middle"/>
 <text font-size="208.33" y="548.96" x="-485.67" font-family="Gentium Book Basic" line-height="125%" word-spacing="0" letter-spacing="0"><tspan y="548.96" x="-485.67"/>
 </text>
 <path d="m255.31 165.18c-14.355 5.635-12.194 25.834-13.459 38.844-0.665 10.304 3.778 32.12 18.394 24.02 10.806-9.76 7.537-26.559 7.217-39.587-1.527-8.06-1.796-21.699-12.153-23.27m24.269 69.08c-33.08-0.64-66.802 10.57-90.21 34.505-30.11 28.27-41.855 77.39-19.298 113.69 16.683 27.44 48.46 43.563 79.86 46.15 27.768-0.14 54.821-13.1 75.1-31.582 19.543-17.515 26.843-45.967 19.08-70.886-7.523-31.36-38.592-54.762-70.92-52.33-27.951 0.845-57.16 17.917-63.993 46.46-5.857 21.385 9.04 45.36 29.13 52.971 14 7.03 34.469-12.636 13.781-19.505-15.727-4.584-25.783-24.26-12.57-37.22 14.493-18.329 44.16-26.08 62.834-9.461 16.414 14.529 26.9 42.11 12.511 61.52-13.23 17.488-32.15 34.376-55.55 33.33-17.12 0.577-36.82 1.158-49.17-13-12.984-11.688-26.666-26.13-24.947-45.09-2.619-43.14 34.6-81.18 76.42-85.65 16.21-2.943 31.925 2.452 47.649 5.236 26.17 4.518 16.355-25.299-2.822-25.868-8.718-2.549-17.858-3.258-26.907-3.289m-164.64 11.886c-22.895 2.226-3.236 25.62 9.07 29.411 10.179 6.76 35.657 18.847 36.951-1.263-8.359-12.834-23.493-19.574-36.975-25.997-2.875-1.171-5.91-2.161-9.05-2.152m282.76 0c-15.68 3.318-28.857 14.07-41.13 23.961-15.531 7.743-2.565 29.72 11.192 18.218 14.379-8.496 31.718-15.97 39.48-31.694 2.02-5.972-3.814-11.122-9.546-10.489m-220.44 163.5c-15.243 3.825-26.36 16.754-36.987 27.649-14.284 9.158-2.135 31.85 11.84 18.05 12.57-10.365 26.429-21.899 31.514-37.897 0.796-3.865-2.343-7.884-6.363-7.797m144.32 11.546c-15.33 7.681 2.547 27.381 8.06 37.19 4.773 13.278 30.907 29.886 29.09 5.115-4.541-15.352-16.15-27.883-27.881-38.35-2.657-2.02-5.765-4.133-9.267-3.95" fill="#fff"/>
</svg>
