<?xml version="1.0" encoding="UTF-8" standalone="no"?>
<svg xmlns="http://www.w3.org/2000/svg" xmlns:xlink="http://www.w3.org/1999/xlink" viewBox="0 0 512 512">
 <text font-size="129.23" y="148.92" x="-109.95" font-family="Gentium Book Basic" line-height="125%" word-spacing="0" letter-spacing="0"><tspan y="148.92" x="-109.95"/>
 </text>
 <text transform="scale(4.0128.2492)" font-size="46.954" y="248.43" x="169.68" font-family="Arial" text-anchor="middle"/>
 <text font-size="129.23" y="68.919" x="471.32" font-family="Gentium Book Basic" line-height="125%" word-spacing="0" letter-spacing="0"><tspan y="68.919" x="471.32"/>
 </text>
 <text transform="scale(4.0128.2492)" font-size="46.954" y="-72.6" x="314.53" font-family="Arial" text-anchor="middle"/>
 <text font-size="129.23" y="-112.34" x="-600.26" font-family="Gentium Book Basic" line-height="125%" word-spacing="0" letter-spacing="0"><tspan y="-112.34" x="-600.26"/>
 </text>
 <text transform="scale(4.0128.2492)" font-size="46.954" y="-799.96" x="47.49" font-family="Arial" text-anchor="middle"/>
 <text font-size="129.23" y="-328.81" x="497.79" font-family="Gentium Book Basic" line-height="125%" word-spacing="0" letter-spacing="0"><tspan y="-328.81" x="497.79"/>
 </text>
 <text transform="scale(4.0128.2492)" font-size="46.954" y="-1668.62" x="321.13" font-family="Arial" text-anchor="middle"/>
 <text font-size="129.23" y="-408.82" x="1079.06" font-family="Gentium Book Basic" line-height="125%" word-spacing="0" letter-spacing="0"><tspan y="-408.82" x="1079.06"/>
 </text>
 <text transform="scale(4.0128.2492)" font-size="46.954" y="-1989.66" x="465.98" font-family="Arial" text-anchor="middle"/>
 <text font-size="129.23" y="-881.22" x="689.94" font-family="Gentium Book Basic" line-height="125%" word-spacing="0" letter-spacing="0"><tspan y="-881.22" x="689.94"/>
 </text>
 <text transform="scale(4.0128.2492)" font-size="46.954" y="-3885.31" x="369.01" font-family="Arial" text-anchor="middle"/>
 <text font-size="129.23" y="-961.22" x="1271.2" font-family="Gentium Book Basic" line-height="125%" word-spacing="0" letter-spacing="0"><tspan y="-961.22" x="1271.2"/>
 </text>
 <text transform="scale(4.0128.2492)" font-size="46.954" y="-4206.34" x="513.86" font-family="Arial" text-anchor="middle"/>
 <g font-family="Gentium Book Basic" line-height="125%" font-size="208.33" word-spacing="0" letter-spacing="0">
  <text y="453.5" x="-561.6"><tspan y="453.5" x="-561.6"/>
  </text>
  <text y="-43.575" x="-990.51"><tspan y="-43.575" x="-990.51"/>
  </text>
 </g>
 <text transform="scale(4.0128.2492)" font-size="75.7" y="-737.75" x="70.891" font-family="Arial" text-anchor="middle"/>
 <text font-size="208.33" y="-811.53" x="-1638.27" font-family="Gentium Book Basic" line-height="125%" word-spacing="0" letter-spacing="0"><tspan y="-811.53" x="-1638.27"/>
 </text>
 <text transform="scale(4.0128.2492)" font-size="75.7" y="-3819.41" x="-90.53" font-family="Arial" text-anchor="middle"/>
 <text font-size="208.33" y="-967.16" x="-931.93" font-family="Gentium Book Basic" line-height="125%" word-spacing="0" letter-spacing="0"><tspan y="-967.16" x="-931.93"/>
 </text>
 <text transform="scale(4.0128.2492)" font-size="75.7" y="-4443.94" x="85.49" font-family="Arial" text-anchor="middle"/>
 <text font-size="129.23" y="318.14" x="-459.24" font-family="Gentium Book Basic" line-height="125%" word-spacing="0" letter-spacing="0"><tspan y="318.14" x="-459.24"/>
 </text>
 <text transform="scale(4.0128.2492)" font-size="46.954" y="927.48" x="82.64" font-family="Arial" text-anchor="middle"/>
 <text font-size="129.23" y="238.14" x="122.03" font-family="Gentium Book Basic" line-height="125%" word-spacing="0" letter-spacing="0"><tspan y="238.14" x="122.03"/>
 </text>
 <text transform="scale(4.0128.2492)" font-size="46.954" y="606.45" x="227.49" font-family="Arial" text-anchor="middle"/>
 <text font-size="129.23" y="56.879" x="-949.55" font-family="Gentium Book Basic" line-height="125%" word-spacing="0" letter-spacing="0"><tspan y="56.879" x="-949.55"/>
 </text>
 <text transform="scale(4.0128.2492)" font-size="46.954" y="-120.91" x="-39.552" font-family="Arial" text-anchor="middle"/>
 <text font-size="129.23" y="-159.59" x="148.5" font-family="Gentium Book Basic" line-height="125%" word-spacing="0" letter-spacing="0"><tspan y="-159.59" x="148.5"/>
 </text>
 <text transform="scale(4.0128.2492)" font-size="46.954" y="-989.57" x="234.09" font-family="Arial" text-anchor="middle"/>
 <text font-size="129.23" y="-239.6" x="729.77" font-family="Gentium Book Basic" line-height="125%" word-spacing="0" letter-spacing="0"><tspan y="-239.6" x="729.77"/>
 </text>
 <text transform="scale(4.0128.2492)" font-size="46.954" y="-1310.61" x="378.94" font-family="Arial" text-anchor="middle"/>
 <text font-size="129.23" y="-712" x="340.65" font-family="Gentium Book Basic" line-height="125%" word-spacing="0" letter-spacing="0"><tspan y="-712" x="340.65"/>
 </text>
 <text transform="scale(4.0128.2492)" font-size="46.954" y="-3206.26" x="281.97" font-family="Arial" text-anchor="middle"/>
 <text font-size="129.23" y="-792" x="921.91" font-family="Gentium Book Basic" line-height="125%" word-spacing="0" letter-spacing="0"><tspan y="-792" x="921.91"/>
 </text>
 <text transform="scale(4.0128.2492)" font-size="46.954" y="-3527.29" x="426.82" font-family="Arial" text-anchor="middle"/>
 <text font-size="208.33" y="622.72" x="-910.89" font-family="Gentium Book Basic" line-height="125%" word-spacing="0" letter-spacing="0"><tspan y="622.72" x="-910.89"/>
 </text>
 <path opacity="0.1" d="m36.06 512c-5.63 0-10.156-4.527-10.156-10.156v-491.69c0-5.63 4.527-10.156 10.156-10.156h439.88c5.63 0 10.156 4.527 10.156 10.156v334.09l-167.75 167.75h-282.28"/>
 <path opacity="0.1" d="m39.06 508.5c-5.553 0-10.03-4.479-10.03-10.03v-484.94c0-5.553 4.479-10.03 10.03-10.03h433.88c5.553 0 10.03 4.479 10.03 10.03v327.84l-167.12 167.13h-276.78"/>
 <path opacity="0.1" d="m42.06 505c-5.476 0-9.875-4.399-9.875-9.875v-478.25c0-5.476 4.399-9.875 9.875-9.875h427.88c5.476 0 9.875 4.399 9.875 9.875v321.66l-166.47 166.47h-271.28"/>
 <path d="m45.06 501.5c-5.399 0-9.719-4.351-9.719-9.75v-471.5c0-5.399 4.32-9.75 9.719-9.75h421.88c5.399 0 9.719 4.351 9.719 9.75v315.44l-165.81 165.81h-265.78" fill="#4586ea"/>
 <path opacity="0.25" d="m86.34 57.03v161.47l32.31 32.31h-32.31v32.31l32.28 32.28h-32.28v32.28l153.81 153.81h70.69l165.81-165.81v-231.94l-46.688-46.688h-173v30.438l-30.469-30.469h-140.16"/>
 <path id="0" fill-opacity="0.196" fill="#fff" d="m476.66 335.69l-165.81 165.81v-156.06c0-5.399 4.32-9.75 9.719-9.75h156.09"/>
 <use xlink:href="#0"/>
 <g fill="#fff">
  <path d="m230.04 394.61c-17.246-0.088-26.601 4.26-32.03 7.563-23.597-5.201-46.2-4.799-64.34 10.438 26.617-7.348 50.23-7.967 66.969 1.5 15.649-12.541 47.969-17.09 58.19-16.12-11.476-2.371-20.942-3.335-28.781-3.375m-31.438 34.969c-22.75 0.255-39.08 9.467-43.75 16.344-22.23-9.765-72.01-0.897-83.66 18.656 37.2-14.404 65.56-13.868 87.44 1.375 19.34-22.85 61.07-31.628 74.47-30.09-12.513-4.65-24.16-6.397-34.5-6.281"/>
  <path d="m86.34 57.03v161.47h140.16v-161.47h-140.16m170.63 0.031v32.28h173v-32.28h-173m0 64.56v32.28h173v-32.28h-173m0 64.63v32.25h173v-32.25h-173m-170.62 64.56v32.31h343.63v-32.31h-343.62m0 64.59v32.28h206.25v-32.28h-206.25"/>
 </g>
</svg>
