<?xml version="1.0" encoding="UTF-8" standalone="no"?>
<svg xmlns="http://www.w3.org/2000/svg" viewBox="0 0 512 512">
 <g fill-opacity="0.078">
  <path d="m32.554 0c-4.774 0-8.59 3.266-8.59 7.313v497.38c0 4.047 3.816 7.313 8.59 7.313h446.89c4.774 0 8.59-3.266 8.59-7.313v-497.38c0-4.047-3.816-7.313-8.59-7.313h-446.89"/>
  <path d="m35.614 3.5c-4.709 0-8.479 3.196-8.479 7.188v490.62c0 3.991 3.771 7.188 8.479 7.188h440.77c4.709 0 8.479-3.196 8.479-7.188v-490.62c0-3.991-3.771-7.188-8.479-7.188h-440.78"/>
  <path d="m38.674 7c-4.643 0-8.369 3.158-8.369 7.094v483.82c0 3.936 3.725 7.094 8.369 7.094h434.65c4.643 0 8.369-3.158 8.369-7.094v-483.81c0-3.936-3.725-7.094-8.369-7.094h-434.65"/>
 </g>
 <path d="m41.734 10.5c-4.578 0-8.258 3.119-8.258 7v477c0 3.881 3.68 7 8.258 7h428.53c4.578 0 8.258-3.119 8.258-7v-477c0-3.881-3.68-7-8.258-7h-428.54" fill="#0078ad"/>
 <path d="m91 50.28c-11.898 0-21.469 9.571-21.469 21.469v313.19c0 11.898 9.571 21.469 21.469 21.469h330c11.898 0 21.469-9.571 21.469-21.469v-236.44l-98.22-98.22h-253.25" fill="#fff"/>
 <path opacity="0.25" d="m427.53 133.44l-78.906 6.906 129.91 129.94v-85.84l-51-51"/>
 <path d="m442.47 148.5l-98.22-98.22v76.75c0 11.898 9.571 21.469 21.469 21.469h76.75" fill="#a4a4a4"/>
 <path opacity="0.25" d="m309.38 176.16c-24.18 0-43.787 18.402-44.813 41.906l-26-25.969c-2.315-2.315-4.91-4.375-7.781-6.125-8.766-5.218-18.983-7.094-39.438-7.094h-38.19v154.25l168.38 168.38h148.75c4.578 0 8.25-3.119 8.25-7v-169.16l-136.03-136.03c-8.368-8.368-20.345-13.156-33.12-13.156"/>
 <path d="m309.38 176.16c-24.838 0-44.875 19.423-44.875 43.844 0 19.411 11.493 34.21 32.16 41.938 20.663 7.723 21.918 8.358 26.719 11.906 4.592 3.757 7.094 9.186 7.094 15.656 0 11.06-8.56 18.781-20.875 18.781-12.732 0-19.623-6.247-20.875-19.19h-29.844c1.044 12.11 3.77 19.829 10.03 27.969 9.184 11.897 24.407 18.781 40.688 18.781 27.76 0 49.25-21.5 49.25-49.47 0-12.732-4.806-23.807-13.781-32.16-6.05-5.635-11.03-8.333-26.06-13.969-14.61-5.427-15.04-5.654-17.12-6.906-5.635-3.548-8.563-8.333-8.563-13.969 0-9.184 6.483-15.656 15.875-15.656 9.601 0 15.446 5.845 16.281 16.281h29.625c-0.626-11.688-3.332-19.621-9.594-27.344-8.349-10.436-21.723-16.5-36.12-16.5m-156.22 2.719v154.25h28.594v-58.656h9.188c21.916 0 31.911-1.657 40.469-6.875 12.523-7.723 20.25-23.384 20.25-41.12 0-17.741-7.517-32.36-20.875-40.5-8.766-5.218-18.983-7.094-39.438-7.094h-38.19m28.594 27.344h9.594c9.392 0 13.564 0.425 18.16 1.469 8.349 2.296 13.375 9.586 13.375 19.19 0 7.514-3.353 13.379-9.406 16.719-4.383 2.296-12.313 3.531-23.375 3.531h-8.344v-40.906" fill="#0078ad"/>
</svg>
