<?xml version="1.0" encoding="UTF-8" standalone="no"?>
<svg xmlns="http://www.w3.org/2000/svg" viewBox="0 0 512 512">
 <g fill-opacity="0.078">
  <path d="m32.554 0c-4.774 0-8.59 3.266-8.59 7.313v497.38c0 4.047 3.816 7.313 8.59 7.313h446.89c4.774 0 8.59-3.266 8.59-7.313v-497.38c0-4.047-3.816-7.313-8.59-7.313h-446.89"/>
  <path d="m35.614 3.5c-4.709 0-8.479 3.196-8.479 7.188v490.62c0 3.991 3.771 7.188 8.479 7.188h440.77c4.709 0 8.479-3.196 8.479-7.188v-490.62c0-3.991-3.771-7.188-8.479-7.188h-440.78"/>
  <path d="m38.674 7c-4.643 0-8.369 3.158-8.369 7.094v483.82c0 3.936 3.725 7.094 8.369 7.094h434.65c4.643 0 8.369-3.158 8.369-7.094v-483.81c0-3.936-3.725-7.094-8.369-7.094h-434.65"/>
 </g>
 <path d="m41.734 10.5c-4.578 0-8.258 3.119-8.258 7v477c0 3.881 3.68 7 8.258 7h428.53c4.578 0 8.258-3.119 8.258-7v-477c0-3.881-3.68-7-8.258-7h-428.54" fill="#b93d48"/>
 <path d="m91 50.28c-11.898 0-21.469 9.571-21.469 21.469v313.19c0 11.898 9.571 21.469 21.469 21.469h330c11.898 0 21.469-9.571 21.469-21.469v-236.44l-98.22-98.22h-253.25" fill="#fff"/>
 <path opacity="0.25" d="m204.53 124.72c-22.585 0-41.25 18.17-41.25 40.781 0 11.306 4.67 21.638 12.156 29.13l63.63 63.63c-2.745 2.633-5.545 5.093-8.438 7.313-4.402 3.264-8.503 5.29-11.875 6.156-1.571 0.402-2.92 0.586-4.156 0.438l-16.281-16.281c-9.476-9.476-18.523-14.91-26.969-16.875-12.138-2.822-23.16 1.913-32.25 10.438-18.19 17.04-29.962 50.21-35.09 80.16l-0.469 2.375 169.56 169.53h197.19c4.578 0 8.25-3.119 8.25-7v-147.41l-125.72-125.75c-1.475-1.475-2.986-2.863-4.563-4.156-9.03-7.4-19.98-11.691-33.22-11.844-4.047-0.06-7.89 0.341-11.563 1.125l-69.59-69.59c-7.511-7.511-17.927-12.156-29.344-12.156"/>
 <path d="m204.54 124.72c-22.585 0-41.25 18.17-41.25 40.784 0 22.613 18.644 41.25 41.25 41.25 22.613 0 41.26-18.644 41.26-41.25 0-22.613-18.675-40.784-41.26-40.784m110.49 80.62c-19.551-0.289-34.461 10.164-47.43 22.761-12.963 12.599-24.02 27.515-36.991 37.463-4.402 3.264-8.484 5.302-11.856 6.168-3.372 0.862-5.78 0.618-8.06-1.423-13.998-18.658-27.298-28.493-39.36-31.3-12.138-2.822-23.15 1.908-32.25 10.433-18.19 17.04-29.957 50.19-35.09 80.14l-0.472 2.371h304.93l-1.423-2.843c-13.642-27.757-23.12-58.16-36.04-82.05-6.46-11.94-13.738-22.473-22.761-29.873-9.03-7.4-19.956-11.703-33.19-11.856" fill="#b93d48"/>
 <path opacity="0.25" d="m427.53 133.44l-78.906 6.906 129.91 129.94v-85.84l-51-51"/>
 <path d="m442.47 148.5l-98.22-98.22v76.75c0 11.898 9.571 21.469 21.469 21.469h76.75" fill="#a4a4a4"/>
</svg>
