<?xml version="1.0" encoding="UTF-8" standalone="no"?>
<svg xmlns="http://www.w3.org/2000/svg" viewBox="0 0 512 512">
 <g fill-opacity="0.078">
  <rect width="464.07" rx="58.46" x="23.964" height="512"/>
  <rect y="3.5" width="457.73" rx="57.661" x="27.14" height="505"/>
  <rect y="7" width="451.38" rx="56.862" x="30.31" height="498"/>
 </g>
 <rect rx="56.06" height="491" width="445.04" y="10.5" x="33.481" fill="#ba9f74"/>
 <path fill="#282629" d="m33.469 334.16v111.28c0 31.06 25 56.06 56.06 56.06h332.94c31.06 0 56.06-25 56.06-56.06v-111.28h-445.06" fill-opacity="0.235"/>
 <rect rx="10.523" height="58.46" width="147.32" y="387.54" x="89.46" fill="#fff"/>
 <path d="m101.8 392.78v47.969h10.458v-47.969h-10.458m20.376 0v47.969h2.185v-47.969h-2.185m14.411 0v47.969h5.843v-47.969h-5.843m13.944 0v47.969h10.409v-47.969h-10.409m17.946 0v47.969h6.948v-47.969h-6.948m14.19 0v47.969h11.05v-47.969h-11.05m19.15 0v47.969h5.205v-47.969h-5.205m15.05 0v47.969h7.586v-47.969h-7.586" fill="#282629"/>
 <g>
  <path opacity="0.25" d="m316.91 10.5v259.19a4.3504 4.3504 0 0 1 -7.8125 2.625l-22.12-29.406-35.25 27.375a4.3504 4.3504 0 0 1 -6.3438 -1.0938l-18.313-29-24.16 32.13a4.3504 4.3504 0 0 1 -3.5625 1.7188l222.78 227.47h0.344c31.06 0 56.06-25 56.06-56.06v-273.31l-161.62-161.62"/>
  <path opacity="0.32" d="m195.09 10.5v259.19a4.3504 4.3504 0 0 0 7.8125 2.625l24.16-32.12 18.313 29a4.3504 4.3504 0 0 0 6.3438 1.0938l35.25-27.375 22.13 29.406a4.3504 4.3504 0 0 0 7.8125 -2.625v-259.19h-121.81" fill="#fff8eb"/>
 </g>
</svg>
