<?xml version="1.0" encoding="UTF-8" standalone="no"?>
<svg xmlns="http://www.w3.org/2000/svg" viewBox="0 0 512 512">
 <g fill-opacity="0.078">
  <rect width="464.07" rx="58.46" x="23.964" height="512"/>
  <rect y="3.5" width="457.73" rx="57.661" x="27.14" height="505"/>
  <rect y="7" width="451.38" rx="56.862" x="30.31" height="498"/>
 </g>
 <rect rx="56.06" height="491" width="445.04" y="10.5" x="33.481" fill="#ba9f74"/>
 <path fill="#282629" d="m33.469 334.16v111.28c0 31.06 25 56.06 56.06 56.06h332.94c31.06 0 56.06-25 56.06-56.06v-111.28h-445.06" fill-opacity="0.235"/>
 <rect rx="10.523" height="58.46" width="147.32" y="387.54" x="89.46" fill="#fff"/>
 <path d="m101.8 392.78v47.969h10.458v-47.969h-10.458m20.376 0v47.969h2.185v-47.969h-2.185m14.411 0v47.969h5.843v-47.969h-5.843m13.944 0v47.969h10.409v-47.969h-10.409m17.946 0v47.969h6.948v-47.969h-6.948m14.19 0v47.969h11.05v-47.969h-11.05m19.15 0v47.969h5.205v-47.969h-5.205m15.05 0v47.969h7.586v-47.969h-7.586" fill="#282629"/>
 <path opacity="0.25" d="m247.41 57.63c-3.883 0.057-7.776 0.263-11.656 0.5-1.323 0.09-2.611-0.029-3.906 0.563-7.292 0.736-14.599 2.219-21.813 4.344-17.253 4.787-34.26 13.14-50.5 25.313-12.193 9.04-23.952 20.427-34.813 34.406-16.06 20.788-30.469 47.956-38.781 81.938-4.179 17.453-6.794 36.552-6.656 55.844l240.97 240.97h102.21c31.06 0 56.06-25 56.06-56.06v-220.62l-120.24-120.24c-11.386-11.386-23.446-20.38-35.727-27.338l-0.463-0.463c-18.01-9.91-36.614-15.906-55.28-18.438-5.171-0.447-10.355-0.679-15.531-0.719-1.294-0.01-2.581-0.019-3.875 0"/>
 <path d="m247.41 57.63c-3.883 0.057-7.776 0.263-11.656 0.5-1.323 0.09-2.611-0.029-3.906 0.563-7.292 0.736-14.599 2.219-21.813 4.344-17.253 4.787-34.26 13.14-50.5 25.313-12.193 9.04-23.952 20.427-34.813 34.406-16.06 20.788-30.469 47.956-38.781 81.938-4.179 17.453-6.794 36.552-6.656 55.844 14.04-4.781 28.03-9.644 42.06-14.469 4.987-1.47 9.915-3.862 14.938-4.844-1.315-11.549-2.746-23.411-1.875-35.31 0.937-24.973 7.826-47.756 16.813-65.37 12.681-24.519 29.12-40.768 46.13-51.31 23.1-14.203 47.705-18.07 71.781-13.344 14.638 3.395 29.18 9.723 42.844 20.531 0.691 0.474 1.381 1.399 2.156 1.125l-0.219 0.563c10.2 7.984 19.843 18.888 28.28 32.5 10.123 16.356 18.507 37.936 21.469 63.03 1.47 13.357 1.497 27.457-0.313 40.719 0.123 0.035 0.252 0.059 0.375 0.094 18.595 5.637 37.22 11.257 55.813 16.875-0.925-21.802-4.752-42.991-10.656-61.66-5.417-17.232-12.451-32.33-20.25-45.719-19.07-31.943-42.42-53.42-66.59-67l0.063-0.156c-18.01-9.91-36.614-15.906-55.28-18.437-5.171-0.447-10.355-0.679-15.531-0.719-1.294-0.01-2.581-0.019-3.875 0m1.719 128.94c-3.577 0-6.556 4.223-7.813 10.219-2.753-0.929-5.543-1.84-8.313-2.563-0.188 1.965-0.352 3.77-0.5 5.75 2.616 0.861 5.215 1.808 7.813 2.875 0.108 0.034 0.204-0.034 0.313 0 0 9.01 3.803 16.25 8.5 16.25 3.719 0 7-4.469 8.156-10.844 3.14 1.042 6.325 2.204 9.469 3.188 8.47 2.764 16.805 5.927 25.281 8.625 8.924 3.114 17.851 5.864 26.781 8.906 12.876 4.256 25.859 9.03 38.75 13.09 20.615 7.236 41.25 13.93 61.875 21.03 4.268 1.307 8.508 2.878 12.781 4.156 0.132-1.934 0.237-3.868 0.5-5.75-4.307-1.821-8.642-2.857-12.969-4.469-18.963-6.354-37.914-12.749-56.875-19.12-4.358-1.364-8.601-3.243-12.969-4.469-12.989-4.568-26.09-8.691-39.09-13.06-1.267-0.638-2.541-0.731-3.813-1.281-3.11-1-6.19-2.354-9.313-3.188-12.996-4.51-26.08-8.779-39.09-13.06-0.253-0.192-0.535-0.253-0.813-0.344-0.093-8.851-4.02-15.938-8.656-15.938" fill="#fff"/>
</svg>
