<?xml version="1.0" encoding="UTF-8" standalone="no"?>
<svg xmlns="http://www.w3.org/2000/svg" viewBox="0 0 512 512">
 <g fill-opacity="0.078">
  <path d="m66.61 0c-4.047 0-7.299 3.253-7.299 7.299v497.4c0 4.047 3.253 7.299 7.299 7.299h378.79c4.047 0 7.299-3.253 7.299-7.299v-359.46l-145.21-145.24h-240.88"/>
  <path d="m69.2 3.5c-3.991 0-7.2 3.208-7.2 7.2v490.6c0 3.991 3.208 7.2 7.2 7.2h373.61c3.991 0 7.2-3.208 7.2-7.2v-354.55l-143.22-143.25h-237.59"/>
  <path d="m71.786 7c-3.936 0-7.1 3.164-7.1 7.1v483.8c0 3.936 3.164 7.1 7.1 7.1h368.43c3.936 0 7.1-3.164 7.1-7.1v-349.63l-141.24-141.27h-234.29"/>
 </g>
 <path d="m74.38 10.5c-3.881 0-7 3.119-7 7v477c0 3.881 3.119 7 7 7h363.25c3.881 0 7-3.119 7-7v-344.72l-139.25-139.28h-231" fill="#62c0dc"/>
 <path d="m308.78 148.78c4.487 5.957 11.24 10.578 16.06 16.313 39.915 39.949 79.85 79.881 119.78 119.81v-135.12h-132.25c-1.321 0-2.542-0.37-3.594-1" fill-opacity="0.235"/>
 <path fill="#fff" d="m444.62 149.78l-139.25-139.28v132.28c0 3.881 3.119 7 7 7h132.25" fill-opacity="0.196"/>
 <path opacity="0.318" d="m255.74 137.45c-15.28 0-30.03 2.247-43.95 6.423 1.554 7.506-0.108 15.438 7.378 15.333 4.835 6.485-9.633 1.923 0.815 6.921 6.01 4.489-6.347 7.07 1.094 11.1-8.576 4.198 1.386 21.965 7.756 26.41 10.484 8.373 4.649-17.734 16.347-19.09 6.357-6.885 17.507-11.31 25.435-18.236-7.749-0.597-12.29-5.18-4.952-8.01 13.506 13.13 3.4-6.204-4.077-9.267 7.234-2.183 14.268-0.601 13.265-6.264 2.376-1.649 2.561-2.941 1.531-3.918-6.752-0.912-13.641-1.392-20.643-1.392m-74.56 19.41c-4.46 2.499-8.777 5.214-12.946 8.134 3.935 0.157 6.835 1.031 9.148 6.702 10.337 5.652 0.906 15.243-3.6 18.535 7.536-4.224 20.744 16.693 17.14 5.091-4.435-3.072 11.92 4.934 3.44-5.05-7.804-11.928 0.608-5.329 3.898-2.546 11.19-9.519-12.656-10.687-6.702-20.483-2.911-2.237-6.323-7.01-10.381-10.381m-7.398 33.37c-0.243 0.136-0.465 0.287-0.696 0.477 0.216-0.142 0.445-0.294 0.696-0.477m41.4-25.296c-5.831 4.609 11.08 5.477 0 0m132.05 2.963c-7.527 6.272-12.199 15.63-17.6 23.824-11.625 4.972-11.197 26.309 1.79 19.489 3.476 5.759-2.428 14.829 7.696 7.298 8.167-10.253 1.435-26.826 15.333-33.29 1.012 5.03-12.818 23.807 3.341 20.722 14.608 0.523-10.605 1.37-3.5 10.222-7.382-4.155-3.55 11.344-13.185 7.736-8.347 4.308-13.824-2-11.912-8.909-6.567 3.634 2.052 13.901-9.347 14.517-2.553 8.602-23.555 7.289-11.614 16.05 5.302 13.04-19.741 0.824-12.628 16.466 6.086 15.468 18.829-5.11 24-9.09 9.672-7.117 23.856 11.295 16.566 13.13 9.179-1.644 7.02-10.357-0.835-13.782-4.359-10.726 13.794 5.282 12.787 10.659 6.407 11.382 3.782-11.67 10.301-1.472-0.761 10.758 26.23 2.537 13.344 16.248-11.08 2.117-22-2.694-31.541 0.398-8.877-0.075-8.402-9.08-11.634-11.336-11.292 0.87-25.27 0.772-32.833 9.426-8.175 10.64-19.947 25.511-11.04 39.1 8.916 20.13 31.02 1.036 43.731 12.926 3.778 4.958-3.276 10.858 5.171 16.228 3.179 11.439-3.61 22.296 4.196 33.23 4.04 10.284 6.553 25.685 21.577 16.287 15.901-9.08 11.659-25.811 24.779-35.08-10.382-19.06 12.716-27.402 18.475-42.876-12.583 1.748-23.807-10.175-26.847-22.15-5.286-5.818-3.916-14.391 1.989-3.46 8.116 7.461 8.295 29.585 23.307 18.2 1.701-0.675 4.133-1.808 6.602-3.222 0.44-4.454 0.687-8.965 0.736-13.523-8.413-0.02-15.284-19.08-2.784-5.548 0.949 0.382 1.871 0.732 2.764 1.074-0.129-7.161-0.727-14.212-1.81-21.1-1.206 1.901-3.692 2.056-7.418-1.83 1.496-9.377-9.923-16.53 2.347-19.887-9.674-30.951-28.945-57.653-54.31-76.66m-184.21 0.915c-1.017 0.778-2.026 1.564-3.02 2.367-1.615 3.966-4.583 7.794-5.588 4.733-28.544 25.329-47.529 61.18-50.871 101.48 4 6.937 11.191 18.791 11.594 14.12-5.351-5.316-10.864-21.264-1.81-7.06 8.11 13.502 19.06 22.262 35.04 25.475 8.737 2.819 15.922 12.513 23.606 10.381 4.345 10.866-12.877 21.307 0.577 31.441 7.02 10.26 18.833 16.997 12.449 31.401-4.111 12.952-2.843 26.946-5.628 39.32 3.942 2.28 7.996 4.396 12.151 6.324 1.95-8.51 3.615-16.854 10.202-22.771 12.156 0.091 2.331-12.411 14.398-10.779 7.363-9.156 9.489-20.09 21.915-23.725 1.484-11.11 20.666-28.13 0.855-32.455-5.384-2.518-19.256-3.411-18.2-4.654 2.146-11.03-17.909-14.182-26.45-18.694-11.213-7.551-28.07 12.542-32.02-4.773-2.357-5.448-10.981-5.514-7.02-13.921-7.139 6.736-21.1 4.675-17.441-8.333 5.552-10.955 26.874-11.487 30.506 1.69-5.04-14.533 9.745-25.855 17.958-36.19 1.672-4.942 11.613-9.173 8.193-2.605 5.825-0.199 14.644-10.171 4.296-5.568-0.146-9.09-9.06-6.502-11.952-5.21 5.361-8.07 32.908-3.65 21.378-16.844-8.934-3.434-8.206-23.474-17.242-12.31 0.76-6.879-18.396-20.345-17.978-8.81 2.338 10.322 0.421 22.21-4.554 28.975-1.038-15.12-28.24-11.804-24.739-27.921 5.064-7.681 11.01-18.277 11.574-17.321 8.431-3.054 15.309-11.53 7.816-17.759m12.09 5.01c-4.938 7.675 7.297 2.834 0 0m108.13 9.09c-5.782 6.315-13.399-1.669-13.523 3.759 1.048 1.64 5.243 13.351 14.438 4.713 4.935-1.974 2.98-6.948-0.915-8.472m-123.1 3.759c-10.966 9.09 18.628 9.935 2.327 1.054l-2.327-1.054m144.54 25.26c-7.609 4.921 3.935 15.183 0 20.03-4.947 8.178 18.388-0.575 5.926-7.1-0.854-5.392-6.832-11.916-5.906-12.927h-0.02m-5.191 9.764c-11 2.951-2.504 18.19 1.392 3.838 0.219-0.832 0.523-3.866-1.392-3.838m-88.08 11.02c-10.234 6.62-1.594 13.24 5.906 10.262-1.54-3.994-5.837-6.523-5.906-10.262m167.07 11.236c-0.693 6.48 14.723 16.532-1.909 13.245-8.796 0.979-21.979-0.261-10.898-10.659 3.501-1.994 12.699 6.903 7.915-1.392 1.696-0.103 3.294-0.705 4.892-1.193m24.342 4.992c-1.634 1.77-2.575 3.716 1.472 5.708-0.457-1.917-0.943-3.819-1.472-5.708m-75.15 9.03c-6.416 3.921 4.436 6.928 0 0m-161.1 36.552c-1.082 3.423 20.296 6.896 5.548 1.412l-2.207-0.736-3.341-0.676m16.586 4.872c-6.483 6.243 13.356 1.865 0 0" fill="#fff8eb"/>
 <path d="m264.69 183.59c-4.429 21.735-8.922 43.46-13.375 65.19-12.513-12.513-23.364-24.52-36.781-37.938-4.03 4.258-12.702 11.02-18.75 12.969-31.19 16.11-63.41 28.37-94.03 44.844 2.201 9.545 10.339 13.158 4.219 29.938-0.565 1.548-3.833 1.462-4.656 3.25 38.41 38.41 131.23 131.49 199.97 199.66h136.34c3.881 0 7-3.119 7-7v-191.84c-12.195-12.06-24.11-23.86-35.563-35.31-24.514-12.457-49.15-25-73.59-37.41-16.44-16.44-33.633-34.13-45.844-46.34h-24.938" fill-opacity="0.235"/>
 <g transform="matrix(1.21841 0 0 1.42073-70.879-115.24)" stroke="#fff8eb" fill="#fff">
  <path d="m141.91 293.24c-0.943-0.707 0-23.1 0-23.1l91.93-40.07v26.873l-63.17 24.04 62.703 25.459v26.17z"/>
  <path d="m275.86 210.8h19.502l-33.504 139.18h-19.335z"/>
  <path d="m394.66 293.24c0.943-0.707 0-23.1 0-23.1l-91.93-40.07v26.873l63.17 24.04-62.704 25.459v26.17z"/>
 </g>
</svg>
