<?xml version="1.0" encoding="UTF-8" standalone="no"?>
<svg xmlns="http://www.w3.org/2000/svg" viewBox="0 0 512 512">
 <g fill-opacity="0.078">
  <path d="m66.61 0c-4.047 0-7.299 3.253-7.299 7.299v497.4c0 4.047 3.253 7.299 7.299 7.299h378.79c4.047 0 7.299-3.253 7.299-7.299v-359.46l-145.21-145.24h-240.88"/>
  <path d="m69.2 3.5c-3.991 0-7.2 3.208-7.2 7.2v490.6c0 3.991 3.208 7.2 7.2 7.2h373.61c3.991 0 7.2-3.208 7.2-7.2v-354.55l-143.22-143.25h-237.59"/>
  <path d="m71.786 7c-3.936 0-7.1 3.164-7.1 7.1v483.8c0 3.936 3.164 7.1 7.1 7.1h368.43c3.936 0 7.1-3.164 7.1-7.1v-349.63l-141.24-141.27h-234.29"/>
 </g>
 <path fill="#009587" d="m74.38 10.5c-3.881 0-7 3.119-7 7v477c0 3.881 3.119 7 7 7h363.25c3.881 0 7-3.119 7-7v-344.72l-139.25-139.28h-231"/>
 <path d="m308.78 148.78c4.487 5.957 11.24 10.578 16.06 16.313 39.915 39.949 79.85 79.881 119.78 119.81v-135.12h-132.25c-1.321 0-2.542-0.37-3.594-1" fill-opacity="0.235"/>
 <path fill="#fff" d="m444.62 149.78l-139.25-139.28v132.28c0 3.881 3.119 7 7 7h132.25" fill-opacity="0.196"/>
 <text font-size="129.23" y="39.41" x="-210.55" font-family="Gentium Book Basic" line-height="125%" word-spacing="0" letter-spacing="0"><tspan y="39.41" x="-210.55"/>
 </text>
 <text transform="scale(4.0128.2492)" font-size="46.954" y="-191" x="144.61" font-family="Arial" text-anchor="middle"/>
 <text font-size="129.23" y="-40.586" x="370.72" font-family="Gentium Book Basic" line-height="125%" word-spacing="0" letter-spacing="0"><tspan y="-40.586" x="370.72"/>
 </text>
 <text transform="scale(4.0128.2492)" font-size="46.954" y="-512.03" x="289.46" font-family="Arial" text-anchor="middle"/>
 <text font-size="129.23" y="-221.85" x="-700.86" font-family="Gentium Book Basic" line-height="125%" word-spacing="0" letter-spacing="0"><tspan y="-221.85" x="-700.86"/>
 </text>
 <text transform="scale(4.0128.2492)" font-size="46.954" y="-1239.38" x="22.422" font-family="Arial" text-anchor="middle"/>
 <text font-size="129.23" y="-438.32" x="397.19" font-family="Gentium Book Basic" line-height="125%" word-spacing="0" letter-spacing="0"><tspan y="-438.32" x="397.19"/>
 </text>
 <text transform="scale(4.0128.2492)" font-size="46.954" y="-2108.05" x="296.06" font-family="Arial" text-anchor="middle"/>
 <text font-size="129.23" y="-518.33" x="978.46" font-family="Gentium Book Basic" line-height="125%" word-spacing="0" letter-spacing="0"><tspan y="-518.33" x="978.46"/>
 </text>
 <text transform="scale(4.0128.2492)" font-size="46.954" y="-2429.09" x="440.91" font-family="Arial" text-anchor="middle"/>
 <text font-size="129.23" y="-990.73" x="589.34" font-family="Gentium Book Basic" line-height="125%" word-spacing="0" letter-spacing="0"><tspan y="-990.73" x="589.34"/>
 </text>
 <text transform="scale(4.0128.2492)" font-size="46.954" y="-4324.74" x="343.94" font-family="Arial" text-anchor="middle"/>
 <text font-size="129.23" y="-1070.73" x="1170.6" font-family="Gentium Book Basic" line-height="125%" word-spacing="0" letter-spacing="0"><tspan y="-1070.73" x="1170.6"/>
 </text>
 <text transform="scale(4.0128.2492)" font-size="46.954" y="-4645.77" x="488.79" font-family="Arial" text-anchor="middle"/>
 <g font-family="Gentium Book Basic" line-height="125%" word-spacing="0" letter-spacing="0">
  <text y="343.99" x="-662.2" font-size="208.33"><tspan y="343.99" x="-662.2"/>
  </text>
  <text y="209.67" x="91.81" font-size="129.23"><tspan y="209.67" x="91.81"/>
  </text>
 </g>
 <text transform="scale(4.0128.2492)" font-size="46.954" y="492.19" x="219.96" font-family="Arial" text-anchor="middle"/>
 <text font-size="129.23" y="129.67" x="673.08" font-family="Gentium Book Basic" line-height="125%" word-spacing="0" letter-spacing="0"><tspan y="129.67" x="673.08"/>
 </text>
 <text transform="scale(4.0128.2492)" font-size="46.954" y="171.16" x="364.81" font-family="Arial" text-anchor="middle"/>
 <text font-size="129.23" y="-51.596" x="-398.5" font-family="Gentium Book Basic" line-height="125%" word-spacing="0" letter-spacing="0"><tspan y="-51.596" x="-398.5"/>
 </text>
 <text transform="scale(4.0128.2492)" font-size="46.954" y="-556.2" x="97.77" font-family="Arial" text-anchor="middle"/>
 <text font-size="129.23" y="-268.06" x="699.55" font-family="Gentium Book Basic" line-height="125%" word-spacing="0" letter-spacing="0"><tspan y="-268.06" x="699.55"/>
 </text>
 <text transform="scale(4.0128.2492)" font-size="46.954" y="-1424.86" x="371.41" font-family="Arial" text-anchor="middle"/>
 <text font-size="129.23" y="-348.07" x="1280.82" font-family="Gentium Book Basic" line-height="125%" word-spacing="0" letter-spacing="0"><tspan y="-348.07" x="1280.82"/>
 </text>
 <text transform="scale(4.0128.2492)" font-size="46.954" y="-1745.9" x="516.26" font-family="Arial" text-anchor="middle"/>
 <text font-size="129.23" y="-820.47" x="891.7" font-family="Gentium Book Basic" line-height="125%" word-spacing="0" letter-spacing="0"><tspan y="-820.47" x="891.7"/>
 </text>
 <text transform="scale(4.0128.2492)" font-size="46.954" y="-3641.55" x="419.29" font-family="Arial" text-anchor="middle"/>
 <text font-size="129.23" y="-900.47" x="1472.96" font-family="Gentium Book Basic" line-height="125%" word-spacing="0" letter-spacing="0"><tspan y="-900.47" x="1472.96"/>
 </text>
 <text transform="scale(4.0128.2492)" font-size="46.954" y="-3962.58" x="564.14" font-family="Arial" text-anchor="middle"/>
 <g font-family="Gentium Book Basic" line-height="125%" word-spacing="0" letter-spacing="0">
  <text y="514.25" x="-359.84" font-size="208.33"><tspan y="514.25" x="-359.84"/>
  </text>
  <text y="179.29" x="78.79" font-size="129.23"><tspan y="179.29" x="78.79"/>
  </text>
 </g>
 <text transform="scale(4.0128.2492)" font-size="46.954" y="370.31" x="216.72" font-family="Arial" text-anchor="middle"/>
 <text font-size="129.23" y="99.29" x="660.06" font-family="Gentium Book Basic" line-height="125%" word-spacing="0" letter-spacing="0"><tspan y="99.29" x="660.06"/>
 </text>
 <text transform="scale(4.0128.2492)" font-size="46.954" y="49.28" x="361.57" font-family="Arial" text-anchor="middle"/>
 <text font-size="129.23" y="-81.969" x="-411.52" font-family="Gentium Book Basic" line-height="125%" word-spacing="0" letter-spacing="0"><tspan y="-81.969" x="-411.52"/>
 </text>
 <text transform="scale(4.0128.2492)" font-size="46.954" y="-678.08" x="94.53" font-family="Arial" text-anchor="middle"/>
 <text font-size="129.23" y="-298.44" x="686.53" font-family="Gentium Book Basic" line-height="125%" word-spacing="0" letter-spacing="0"><tspan y="-298.44" x="686.53"/>
 </text>
 <text transform="scale(4.0128.2492)" font-size="46.954" y="-1546.74" x="368.17" font-family="Arial" text-anchor="middle"/>
 <text font-size="129.23" y="-378.45" x="1267.8" font-family="Gentium Book Basic" line-height="125%" word-spacing="0" letter-spacing="0"><tspan y="-378.45" x="1267.8"/>
 </text>
 <text transform="scale(4.0128.2492)" font-size="46.954" y="-1867.78" x="513.01" font-family="Arial" text-anchor="middle"/>
 <text font-size="129.23" y="-850.85" x="878.68" font-family="Gentium Book Basic" line-height="125%" word-spacing="0" letter-spacing="0"><tspan y="-850.85" x="878.68"/>
 </text>
 <text transform="scale(4.0128.2492)" font-size="46.954" y="-3763.43" x="416.05" font-family="Arial" text-anchor="middle"/>
 <text font-size="129.23" y="-930.85" x="1459.94" font-family="Gentium Book Basic" line-height="125%" word-spacing="0" letter-spacing="0"><tspan y="-930.85" x="1459.94"/>
 </text>
 <text transform="scale(4.0128.2492)" font-size="46.954" y="-4084.46" x="560.89" font-family="Arial" text-anchor="middle"/>
 <g font-family="Gentium Book Basic" line-height="125%" word-spacing="0" letter-spacing="0">
  <text y="483.87" x="-372.86" font-size="208.33"><tspan y="483.87" x="-372.86"/>
  </text>
  <text y="244.98" x="39.5" font-size="129.23"><tspan y="244.98" x="39.5"/>
  </text>
 </g>
 <text transform="scale(4.0128.2492)" font-size="46.954" y="633.89" x="206.92" font-family="Arial" text-anchor="middle"/>
 <text font-size="129.23" y="164.98" x="620.77" font-family="Gentium Book Basic" line-height="125%" word-spacing="0" letter-spacing="0"><tspan y="164.98" x="620.77"/>
 </text>
 <text transform="scale(4.0128.2492)" font-size="46.954" y="312.87" x="351.77" font-family="Arial" text-anchor="middle"/>
 <text font-size="129.23" y="-16.283" x="-450.81" font-family="Gentium Book Basic" line-height="125%" word-spacing="0" letter-spacing="0"><tspan y="-16.283" x="-450.81"/>
 </text>
 <text transform="scale(4.0128.2492)" font-size="46.954" y="-414.49" x="84.74" font-family="Arial" text-anchor="middle"/>
 <text font-size="129.23" y="-232.75" x="647.24" font-family="Gentium Book Basic" line-height="125%" word-spacing="0" letter-spacing="0"><tspan y="-232.75" x="647.24"/>
 </text>
 <text transform="scale(4.0128.2492)" font-size="46.954" y="-1283.16" x="358.37" font-family="Arial" text-anchor="middle"/>
 <text font-size="129.23" y="-312.76" x="1228.51" font-family="Gentium Book Basic" line-height="125%" word-spacing="0" letter-spacing="0"><tspan y="-312.76" x="1228.51"/>
 </text>
 <text transform="scale(4.0128.2492)" font-size="46.954" y="-1604.19" x="503.22" font-family="Arial" text-anchor="middle"/>
 <text font-size="129.23" y="-785.16" x="839.39" font-family="Gentium Book Basic" line-height="125%" word-spacing="0" letter-spacing="0"><tspan y="-785.16" x="839.39"/>
 </text>
 <text transform="scale(4.0128.2492)" font-size="46.954" y="-3499.84" x="406.25" font-family="Arial" text-anchor="middle"/>
 <text font-size="129.23" y="-865.16" x="1420.65" font-family="Gentium Book Basic" line-height="125%" word-spacing="0" letter-spacing="0"><tspan y="-865.16" x="1420.65"/>
 </text>
 <text transform="scale(4.0128.2492)" font-size="46.954" y="-3820.87" x="551.1" font-family="Arial" text-anchor="middle"/>
 <g font-family="Gentium Book Basic" transform="translate(-690.14 13.618)" line-height="125%" word-spacing="0" letter-spacing="0">
  <text y="535.94" x="277.99" font-size="208.33"><tspan y="535.94" x="277.99"/>
  </text>
  <text y="135.65" x="148.44" font-size="129.23"><tspan y="135.65" x="148.44"/>
  </text>
 </g>
 <text transform="scale(4.0128.2492)" font-size="46.954" y="249.85" x="62.09" font-family="Arial" text-anchor="middle"/>
 <text font-size="129.23" y="69.27" x="39.57" font-family="Gentium Book Basic" line-height="125%" word-spacing="0" letter-spacing="0"><tspan y="69.27" x="39.57"/>
 </text>
 <text transform="scale(4.0128.2492)" font-size="46.954" y="-71.18" x="206.93" font-family="Arial" text-anchor="middle"/>
 <text font-size="129.23" y="-111.99" x="-1032.01" font-family="Gentium Book Basic" line-height="125%" word-spacing="0" letter-spacing="0"><tspan y="-111.99" x="-1032.01"/>
 </text>
 <text transform="scale(4.0128.2492)" font-size="46.954" y="-798.54" x="-60.1" font-family="Arial" text-anchor="middle"/>
 <text font-size="129.23" y="-328.46" x="66.04" font-family="Gentium Book Basic" line-height="125%" word-spacing="0" letter-spacing="0"><tspan y="-328.46" x="66.04"/>
 </text>
 <text transform="scale(4.0128.2492)" font-size="46.954" y="-1667.19" x="213.53" font-family="Arial" text-anchor="middle"/>
 <text font-size="129.23" y="-408.47" x="647.31" font-family="Gentium Book Basic" line-height="125%" word-spacing="0" letter-spacing="0"><tspan y="-408.47" x="647.31"/>
 </text>
 <text transform="scale(4.0128.2492)" font-size="46.954" y="-1988.23" x="358.38" font-family="Arial" text-anchor="middle"/>
 <text font-size="129.23" y="-880.87" x="258.19" font-family="Gentium Book Basic" line-height="125%" word-spacing="0" letter-spacing="0"><tspan y="-880.87" x="258.19"/>
 </text>
 <text transform="scale(4.0128.2492)" font-size="46.954" y="-3883.87" x="261.41" font-family="Arial" text-anchor="middle"/>
 <text font-size="129.23" y="-960.87" x="839.45" font-family="Gentium Book Basic" line-height="125%" word-spacing="0" letter-spacing="0"><tspan y="-960.87" x="839.45"/>
 </text>
 <text transform="scale(4.0128.2492)" font-size="46.954" y="-4204.9" x="406.26" font-family="Arial" text-anchor="middle"/>
 <text font-size="208.33" y="453.85" x="-993.35" font-family="Gentium Book Basic" line-height="125%" word-spacing="0" letter-spacing="0"><tspan y="453.85" x="-993.35"/>
 </text>
 <path opacity="0.25" d="m254.66 174.21c-18.654 0-20.626 1.22-25.27 15.611-4.228 13.1-7.585 16.284-23.826 22.58-14.758 5.72-19.02 5.721-26.24 0.014-8.753-6.921-19.752-4.634-30.572 6.357-12.196 12.389-13.05 16.474-6.189 29.564 6.146 11.725 5.922 16.794-1.459 33.01-5.59 12.282-8.259 14.795-19.66 18.525-12.982 4.247-15.348 8.248-15.348 25.945 0 10.69 0.751 16.17 4.127 19.541l37.19 37.19c2.561 7.273 1.355 9.02-3.205 17.613-7.603 14.321-6.956 17.468 6.342 30.834l0.5 0.502c0.042 0.042 0.079 0.077 0.121 0.119l69.879 69.879h216.58c3.881 0 7-3.119 7-7v-194.44l-84.77-84.77c-10.997-10.997-16.211-11.332-29.25-4.439-9.369 4.954-13.344 5.873-20.11 3.584l-36.11-36.11c-3.715-3.715-9.191-4.115-19.734-4.115"/>
 <path d="m237.5 470.27c-4.746-5.237-7.124-10.313-7.124-15.204 0-6.422-6.225-11.821-20.18-17.505-15.658-6.377-18.13-6.39-29.377-0.156-13.758 7.623-16.985 6.94-30.26-6.405-13.297-13.366-13.945-16.514-6.342-30.834 6.192-11.665 6.228-10.682-1.01-28.11-6.632-15.973-9.212-18.489-22.45-21.895-12.598-3.241-14.654-6.656-14.654-24.343 0-17.697 2.366-21.696 15.348-25.944 11.401-3.73 14.07-6.245 19.66-18.527 7.381-16.218 7.605-21.287 1.459-33.01-6.862-13.09-6.01-17.17 6.189-29.563 10.82-10.991 21.82-13.278 30.574-6.357 7.219 5.708 11.48 5.705 26.24-0.015 16.241-6.296 19.598-9.477 23.826-22.58 4.644-14.391 6.617-15.61 25.27-15.61 20.13 0 21.783 1.457 27.987 24.654 0.986 3.686 5.948 6.578 24.562 14.318 8.989 3.738 12.619 3.377 23.41-2.329 14.425-7.627 19.271-6.404 32.975 8.323 9.307 10 10.157 19.423 2.668 29.605-4.965 6.75-4.67 11.785 1.58 26.946 6.622 16.06 8.323 17.762 21.857 21.814 15.02 4.496 16.834 7.788 16.05 29.11-0.656 17.864-2.667 21.422-13.05 23.09-13.975 2.246-17.566 5.351-23.968 20.723-6.579 15.798-6.335 19.459 2.161 32.389 5.783 8.802 3.211 16.245-9.987 28.899-11.239 10.776-18.468 11.515-30.726 3.142-7.942-5.425-9.291-5.329-26.874 1.899-16.11 6.624-17.998 8.735-21.401 23.962-2.56 11.454-5.946 13.255-24.919 13.255-14.583 0-16.417-0.353-19.493-3.748m38.458-102.59c30.776-14.635 37.621-53.51 13.74-78.03-24.591-25.25-66.795-15.956-79.24 17.454-15.05 40.39 26.719 79.02 65.5 60.57" fill="#fff"/>
</svg>
