<?xml version="1.0" encoding="UTF-8" standalone="no"?>
<svg xmlns="http://www.w3.org/2000/svg" viewBox="0 0 512 512">
 <text font-size="129.23" y="39.41" x="-210.55" font-family="Gentium Book Basic" line-height="125%" word-spacing="0" letter-spacing="0"><tspan y="39.41" x="-210.55"/>
 </text>
 <text transform="scale(4.0128.2492)" font-size="46.954" y="-191" x="144.61" font-family="Arial" text-anchor="middle"/>
 <text font-size="129.23" y="-40.586" x="370.72" font-family="Gentium Book Basic" line-height="125%" word-spacing="0" letter-spacing="0"><tspan y="-40.586" x="370.72"/>
 </text>
 <text transform="scale(4.0128.2492)" font-size="46.954" y="-512.03" x="289.46" font-family="Arial" text-anchor="middle"/>
 <text font-size="129.23" y="-221.85" x="-700.86" font-family="Gentium Book Basic" line-height="125%" word-spacing="0" letter-spacing="0"><tspan y="-221.85" x="-700.86"/>
 </text>
 <text transform="scale(4.0128.2492)" font-size="46.954" y="-1239.38" x="22.422" font-family="Arial" text-anchor="middle"/>
 <text font-size="129.23" y="-438.32" x="397.19" font-family="Gentium Book Basic" line-height="125%" word-spacing="0" letter-spacing="0"><tspan y="-438.32" x="397.19"/>
 </text>
 <text transform="scale(4.0128.2492)" font-size="46.954" y="-2108.05" x="296.06" font-family="Arial" text-anchor="middle"/>
 <text font-size="129.23" y="-518.33" x="978.46" font-family="Gentium Book Basic" line-height="125%" word-spacing="0" letter-spacing="0"><tspan y="-518.33" x="978.46"/>
 </text>
 <text transform="scale(4.0128.2492)" font-size="46.954" y="-2429.09" x="440.91" font-family="Arial" text-anchor="middle"/>
 <text font-size="129.23" y="-990.73" x="589.34" font-family="Gentium Book Basic" line-height="125%" word-spacing="0" letter-spacing="0"><tspan y="-990.73" x="589.34"/>
 </text>
 <text transform="scale(4.0128.2492)" font-size="46.954" y="-4324.74" x="343.94" font-family="Arial" text-anchor="middle"/>
 <text font-size="129.23" y="-1070.73" x="1170.6" font-family="Gentium Book Basic" line-height="125%" word-spacing="0" letter-spacing="0"><tspan y="-1070.73" x="1170.6"/>
 </text>
 <text transform="scale(4.0128.2492)" font-size="46.954" y="-4645.77" x="488.79" font-family="Arial" text-anchor="middle"/>
 <g font-family="Gentium Book Basic" line-height="125%" word-spacing="0" letter-spacing="0">
  <text y="343.99" x="-662.2" font-size="208.33"><tspan y="343.99" x="-662.2"/>
  </text>
  <text y="209.67" x="91.81" font-size="129.23"><tspan y="209.67" x="91.81"/>
  </text>
 </g>
 <text transform="scale(4.0128.2492)" font-size="46.954" y="492.19" x="219.96" font-family="Arial" text-anchor="middle"/>
 <text font-size="129.23" y="129.67" x="673.08" font-family="Gentium Book Basic" line-height="125%" word-spacing="0" letter-spacing="0"><tspan y="129.67" x="673.08"/>
 </text>
 <text transform="scale(4.0128.2492)" font-size="46.954" y="171.16" x="364.81" font-family="Arial" text-anchor="middle"/>
 <text font-size="129.23" y="-51.596" x="-398.5" font-family="Gentium Book Basic" line-height="125%" word-spacing="0" letter-spacing="0"><tspan y="-51.596" x="-398.5"/>
 </text>
 <text transform="scale(4.0128.2492)" font-size="46.954" y="-556.2" x="97.77" font-family="Arial" text-anchor="middle"/>
 <text font-size="129.23" y="-268.06" x="699.55" font-family="Gentium Book Basic" line-height="125%" word-spacing="0" letter-spacing="0"><tspan y="-268.06" x="699.55"/>
 </text>
 <text transform="scale(4.0128.2492)" font-size="46.954" y="-1424.86" x="371.41" font-family="Arial" text-anchor="middle"/>
 <text font-size="129.23" y="-348.07" x="1280.82" font-family="Gentium Book Basic" line-height="125%" word-spacing="0" letter-spacing="0"><tspan y="-348.07" x="1280.82"/>
 </text>
 <text transform="scale(4.0128.2492)" font-size="46.954" y="-1745.9" x="516.26" font-family="Arial" text-anchor="middle"/>
 <text font-size="129.23" y="-820.47" x="891.7" font-family="Gentium Book Basic" line-height="125%" word-spacing="0" letter-spacing="0"><tspan y="-820.47" x="891.7"/>
 </text>
 <text transform="scale(4.0128.2492)" font-size="46.954" y="-3641.55" x="419.29" font-family="Arial" text-anchor="middle"/>
 <text font-size="129.23" y="-900.47" x="1472.96" font-family="Gentium Book Basic" line-height="125%" word-spacing="0" letter-spacing="0"><tspan y="-900.47" x="1472.96"/>
 </text>
 <text transform="scale(4.0128.2492)" font-size="46.954" y="-3962.58" x="564.14" font-family="Arial" text-anchor="middle"/>
 <g font-family="Gentium Book Basic" line-height="125%" word-spacing="0" letter-spacing="0">
  <text y="514.25" x="-359.84" font-size="208.33"><tspan y="514.25" x="-359.84"/>
  </text>
  <text y="179.29" x="78.79" font-size="129.23"><tspan y="179.29" x="78.79"/>
  </text>
 </g>
 <text transform="scale(4.0128.2492)" font-size="46.954" y="370.31" x="216.72" font-family="Arial" text-anchor="middle"/>
 <text font-size="129.23" y="99.29" x="660.06" font-family="Gentium Book Basic" line-height="125%" word-spacing="0" letter-spacing="0"><tspan y="99.29" x="660.06"/>
 </text>
 <text transform="scale(4.0128.2492)" font-size="46.954" y="49.28" x="361.57" font-family="Arial" text-anchor="middle"/>
 <text font-size="129.23" y="-81.969" x="-411.52" font-family="Gentium Book Basic" line-height="125%" word-spacing="0" letter-spacing="0"><tspan y="-81.969" x="-411.52"/>
 </text>
 <text transform="scale(4.0128.2492)" font-size="46.954" y="-678.08" x="94.53" font-family="Arial" text-anchor="middle"/>
 <text font-size="129.23" y="-298.44" x="686.53" font-family="Gentium Book Basic" line-height="125%" word-spacing="0" letter-spacing="0"><tspan y="-298.44" x="686.53"/>
 </text>
 <text transform="scale(4.0128.2492)" font-size="46.954" y="-1546.74" x="368.17" font-family="Arial" text-anchor="middle"/>
 <text font-size="129.23" y="-378.45" x="1267.8" font-family="Gentium Book Basic" line-height="125%" word-spacing="0" letter-spacing="0"><tspan y="-378.45" x="1267.8"/>
 </text>
 <text transform="scale(4.0128.2492)" font-size="46.954" y="-1867.78" x="513.01" font-family="Arial" text-anchor="middle"/>
 <text font-size="129.23" y="-850.85" x="878.68" font-family="Gentium Book Basic" line-height="125%" word-spacing="0" letter-spacing="0"><tspan y="-850.85" x="878.68"/>
 </text>
 <text transform="scale(4.0128.2492)" font-size="46.954" y="-3763.43" x="416.05" font-family="Arial" text-anchor="middle"/>
 <text font-size="129.23" y="-930.85" x="1459.94" font-family="Gentium Book Basic" line-height="125%" word-spacing="0" letter-spacing="0"><tspan y="-930.85" x="1459.94"/>
 </text>
 <text transform="scale(4.0128.2492)" font-size="46.954" y="-4084.46" x="560.89" font-family="Arial" text-anchor="middle"/>
 <g font-family="Gentium Book Basic" line-height="125%" word-spacing="0" letter-spacing="0">
  <text y="483.87" x="-372.86" font-size="208.33"><tspan y="483.87" x="-372.86"/>
  </text>
  <text y="244.98" x="39.5" font-size="129.23"><tspan y="244.98" x="39.5"/>
  </text>
 </g>
 <text transform="scale(4.0128.2492)" font-size="46.954" y="633.89" x="206.92" font-family="Arial" text-anchor="middle"/>
 <text font-size="129.23" y="164.98" x="620.77" font-family="Gentium Book Basic" line-height="125%" word-spacing="0" letter-spacing="0"><tspan y="164.98" x="620.77"/>
 </text>
 <text transform="scale(4.0128.2492)" font-size="46.954" y="312.87" x="351.77" font-family="Arial" text-anchor="middle"/>
 <text font-size="129.23" y="-16.283" x="-450.81" font-family="Gentium Book Basic" line-height="125%" word-spacing="0" letter-spacing="0"><tspan y="-16.283" x="-450.81"/>
 </text>
 <text transform="scale(4.0128.2492)" font-size="46.954" y="-414.49" x="84.74" font-family="Arial" text-anchor="middle"/>
 <text font-size="129.23" y="-232.75" x="647.24" font-family="Gentium Book Basic" line-height="125%" word-spacing="0" letter-spacing="0"><tspan y="-232.75" x="647.24"/>
 </text>
 <text transform="scale(4.0128.2492)" font-size="46.954" y="-1283.16" x="358.37" font-family="Arial" text-anchor="middle"/>
 <text font-size="129.23" y="-312.76" x="1228.51" font-family="Gentium Book Basic" line-height="125%" word-spacing="0" letter-spacing="0"><tspan y="-312.76" x="1228.51"/>
 </text>
 <text transform="scale(4.0128.2492)" font-size="46.954" y="-1604.19" x="503.22" font-family="Arial" text-anchor="middle"/>
 <text font-size="129.23" y="-785.16" x="839.39" font-family="Gentium Book Basic" line-height="125%" word-spacing="0" letter-spacing="0"><tspan y="-785.16" x="839.39"/>
 </text>
 <text transform="scale(4.0128.2492)" font-size="46.954" y="-3499.84" x="406.25" font-family="Arial" text-anchor="middle"/>
 <text font-size="129.23" y="-865.16" x="1420.65" font-family="Gentium Book Basic" line-height="125%" word-spacing="0" letter-spacing="0"><tspan y="-865.16" x="1420.65"/>
 </text>
 <text transform="scale(4.0128.2492)" font-size="46.954" y="-3820.87" x="551.1" font-family="Arial" text-anchor="middle"/>
 <g font-family="Gentium Book Basic" transform="translate(-690.14 13.618)" line-height="125%" word-spacing="0" letter-spacing="0">
  <text y="535.94" x="277.99" font-size="208.33"><tspan y="535.94" x="277.99"/>
  </text>
  <text y="135.65" x="148.44" font-size="129.23"><tspan y="135.65" x="148.44"/>
  </text>
 </g>
 <text transform="scale(4.0128.2492)" font-size="46.954" y="249.85" x="62.09" font-family="Arial" text-anchor="middle"/>
 <text font-size="129.23" y="69.27" x="39.57" font-family="Gentium Book Basic" line-height="125%" word-spacing="0" letter-spacing="0"><tspan y="69.27" x="39.57"/>
 </text>
 <text transform="scale(4.0128.2492)" font-size="46.954" y="-71.18" x="206.93" font-family="Arial" text-anchor="middle"/>
 <text font-size="129.23" y="-111.99" x="-1032.01" font-family="Gentium Book Basic" line-height="125%" word-spacing="0" letter-spacing="0"><tspan y="-111.99" x="-1032.01"/>
 </text>
 <text transform="scale(4.0128.2492)" font-size="46.954" y="-798.54" x="-60.1" font-family="Arial" text-anchor="middle"/>
 <text font-size="129.23" y="-328.46" x="66.04" font-family="Gentium Book Basic" line-height="125%" word-spacing="0" letter-spacing="0"><tspan y="-328.46" x="66.04"/>
 </text>
 <text transform="scale(4.0128.2492)" font-size="46.954" y="-1667.19" x="213.53" font-family="Arial" text-anchor="middle"/>
 <text font-size="129.23" y="-408.47" x="647.31" font-family="Gentium Book Basic" line-height="125%" word-spacing="0" letter-spacing="0"><tspan y="-408.47" x="647.31"/>
 </text>
 <text transform="scale(4.0128.2492)" font-size="46.954" y="-1988.23" x="358.38" font-family="Arial" text-anchor="middle"/>
 <text font-size="129.23" y="-880.87" x="258.19" font-family="Gentium Book Basic" line-height="125%" word-spacing="0" letter-spacing="0"><tspan y="-880.87" x="258.19"/>
 </text>
 <text transform="scale(4.0128.2492)" font-size="46.954" y="-3883.87" x="261.41" font-family="Arial" text-anchor="middle"/>
 <text font-size="129.23" y="-960.87" x="839.45" font-family="Gentium Book Basic" line-height="125%" word-spacing="0" letter-spacing="0"><tspan y="-960.87" x="839.45"/>
 </text>
 <text transform="scale(4.0128.2492)" font-size="46.954" y="-4204.9" x="406.26" font-family="Arial" text-anchor="middle"/>
 <text font-size="208.33" y="453.85" x="-993.35" font-family="Gentium Book Basic" line-height="125%" word-spacing="0" letter-spacing="0"><tspan y="453.85" x="-993.35"/>
 </text>
 <g transform="translate(-.005.002)" fill-opacity="0.078">
  <path d="m66.61 0c-4.047 0-7.299 3.253-7.299 7.299v497.4c0 4.047 3.253 7.299 7.299 7.299h378.79c4.047 0 7.299-3.253 7.299-7.299v-359.46l-145.21-145.24h-240.88"/>
  <path d="m69.2 3.5c-3.991 0-7.2 3.208-7.2 7.2v490.6c0 3.991 3.208 7.2 7.2 7.2h373.61c3.991 0 7.2-3.208 7.2-7.2v-354.55l-143.22-143.25h-237.59"/>
  <path d="m71.786 7c-3.936 0-7.1 3.164-7.1 7.1v483.8c0 3.936 3.164 7.1 7.1 7.1h368.43c3.936 0 7.1-3.164 7.1-7.1v-349.63l-141.24-141.27h-234.29"/>
 </g>
 <path d="m74.38 10.502c-3.881 0-7 3.119-7 7v477c0 3.881 3.119 7 7 7h363.25c3.881 0 7-3.119 7-7v-344.72l-139.25-139.28h-231" fill="#009587"/>
 <path d="m106 131.91v26.16h2v2h1.969v1.969h2v2h2v2h1.969v1.969h2v2h2v2h1.969v1.969h2v2h2v2h1.969v1.969h2v2h2v2h2v2h1.969v1.469h-29.844v26.16h2v2h1.969v1.969h2v2h2v2h1.969v1.969h2v2h2v2h1.969v1.969h2v2h2v2h1.969v1.969h2v2h2v2h2v2h1.969v1.469h-29.844v26.19h2v2h1.969v1.969h2v2h2v2h1.969v1.969h2v2h2v2h1.969v1.969h2v2h2v2h1.969v1.969h2v2h2v2h2v2h1.969v1.469h-29.844v26.16h2v2h1.969v1.969h2v2h2v2h1.969v1.969h2v2h2v2h1.969v1.969h2v2h2v2h1.969v1.969h2v2h2v2h2v2h1.969v1.469h-29.844v26.16h2v2h1.969v1.969h2v2h2v2h1.969v1.969h2v2h2v2h1.969v1.969h2v2h2v2h1.969v1.969h2v2h2v2h2v2h1.969v1.969h2v2h2v2h1.969v1.969h2v2h2v2h1.969v1.969h2v2h2v2h1.969v1.969h2v2h2v2h1.969v1.969h2v2h2v2h1.969v1.969h2v2h2v2h1.969v1.969h2v2h2v2h2v2h1.969v1.969h2v2h2v2h1.969v1.969h2v2h2v2h1.969v1.969h2v2h2v2h1.969v1.969h2v2h2v2h1.969v1.969h2v2h2v2h1.969v1.969h2v2h2v2h1.969v1.969h2v2h2v2h2v2h1.969v1.969h2v2h2v2h210.22c3.881 0 7-3.119 7-7v-344.72h-132.25c-0.364 0-0.714-0.041-1.063-0.094-0.12-0.018-0.226-0.038-0.344-0.063-0.209-0.042-0.424-0.096-0.625-0.156-0.239-0.072-0.46-0.154-0.688-0.25-0.137-0.059-0.273-0.12-0.406-0.188-0.251-0.125-0.486-0.253-0.719-0.406 0.52 0.789 1.18 1.48 1.969 2 0.521 0.789 1.211 1.449 2 1.969 0.521 0.79 1.21 1.479 2 2 0.528 0.8 1.196 1.508 2 2.031 0.513 0.771 1.166 1.424 1.938 1.938 0.524 0.804 1.231 1.472 2.031 2 0.528 0.8 1.196 1.508 2 2.031 0.513 0.771 1.166 1.424 1.938 1.938 0.524 0.804 1.231 1.472 2.031 2 0.528 0.8 1.196 1.508 2 2.031 0.513 0.771 1.167 1.425 1.938 1.938 0.524 0.804 1.231 1.472 2.031 2 0.528 0.8 1.196 1.508 2 2.031 0.513 0.771 1.166 1.424 1.938 1.938 0.524 0.804 1.231 1.472 2.031 2 0.528 0.8 1.196 1.508 2 2.031 0.513 0.772 1.166 1.424 1.938 1.938 0.524 0.804 1.231 1.472 2.031 2 0.521 0.79 1.21 1.479 2 2 0.231 0.351 0.492 0.666 0.781 0.969h-9.438v-1.781h-1.969v-1.969h-2v-2h-2v-2h-1.969v-1.969h-2v-2h-2v-2h-1.969v-1.969h-2v-2h-2v-2h-1.969v-1.969h-2v-2h-2v-2h-1.969v-1.969h-2v-2h-2v-2h-2v-2h-1.969v-1.969h-2v-2h-2v-2h-1.969v-1.969h-2v-2h-2v-2h-1.969v-1.969h-2v-2h-2v-2h-1.969v-1.969h-2v-2h-177.97" fill-opacity="0.235"/>
 <g fill="#fff">
  <path d="m106 131.91v26.16h177.97v-26.16h-177.97m0 55.5v26.16h300v-26.16h-300m0 55.5v26.19h231.91c0.23-0.186 0.457-0.377 0.688-0.563 11.724-8.089 22.85-18.478 35.406-25.625h-268m0 55.53v26.16h175.31c7.784-8.989 15.836-17.743 24.22-26.16h-199.53m300 5.25c-6.731 6.788-13.28 13.757-19.625 20.906h19.625v-20.906m-300 50.25v26.16h89.44c-5.05-7.751-5.508-17.453-2.625-26.16h-86.81m256.25 0c-6.493 8.519-12.725 17.234-18.656 26.16h62.41v-26.16h-43.75"/>
  <path d="m444.62 149.78l-139.25-139.28v132.28c0 3.881 3.119 7 7 7h132.25" fill-opacity="0.196"/>
 </g>
 <g fill="#555753">
  <text font-size="200" stroke="#555753" y="116.28" x="-575.74" font-family="Gentium Book Basic" line-height="125%" word-spacing="0" letter-spacing="0"><tspan y="116.28" x="-575.74"/>
  </text>
  <text transform="scale(4.0128.2492)" font-size="72.67" y="-73.74" x="161.54" font-family="Arial" text-anchor="middle"/>
  <text font-size="200" stroke="#555753" y="169.43" x="169.64" font-family="Gentium Book Basic" line-height="125%" word-spacing="0" letter-spacing="0"><tspan y="169.43" x="169.64"/>
  </text>
  <text transform="scale(4.0128.2492)" font-size="72.67" y="139.51" x="347.29" font-family="Arial" text-anchor="middle"/>
  <text font-size="200" stroke="#555753" y="45.61" x="1069.25" font-family="Gentium Book Basic" line-height="125%" word-spacing="0" letter-spacing="0"><tspan y="45.61" x="1069.25"/>
  </text>
  <text transform="scale(4.0128.2492)" font-size="72.67" y="-357.35" x="571.47" font-family="Arial" text-anchor="middle"/>
  <text font-size="200" stroke="#555753" y="-7.03" x="197.1" font-family="Gentium Book Basic" line-height="125%" word-spacing="0" letter-spacing="0"><tspan y="-7.03" x="197.1"/>
  </text>
  <text transform="scale(4.0128.2492)" font-size="72.67" y="-568.58" x="354.13" font-family="Arial" text-anchor="middle"/>
  <text font-size="200" stroke="#555753" y="-130.85" x="1096.72" font-family="Gentium Book Basic" line-height="125%" word-spacing="0" letter-spacing="0"><tspan y="-130.85" x="1096.72"/>
  </text>
  <text transform="scale(4.0128.2492)" font-size="72.67" y="-1065.43" x="578.32" font-family="Arial" text-anchor="middle"/>
  <text font-size="200" stroke="#555753" y="444.86" x="-2812.88" font-family="Gentium Book Basic" line-height="125%" word-spacing="0" letter-spacing="0"><tspan y="444.86" x="-2812.88"/>
  </text>
  <text transform="scale(4.0128.2492)" font-size="72.67" y="1244.76" x="-395.95" font-family="Arial" text-anchor="middle"/>
 </g>
 <path d="m397.36 250.81a16.697 16.697 0 0 0 -8.2812 2.125c-41.553 23.447-84.7 64.774-122.81 115.75l-34.31-19.375a16.697 16.697 0 0 0 -20.875 25.438l55.38 64.22a16.697 16.697 0 0 0 27.625 -3.5312c27.61-56.28 60.692-106.96 114.41-155.56a16.697 16.697 0 0 0 -11.125 -29.062" fill="#fff"/>
 <text font-size="208.33" y="478.97" x="-957.33" font-family="Gentium Book Basic" line-height="125%" word-spacing="0" letter-spacing="0"><tspan y="478.97" x="-957.33"/>
 </text>
 <text transform="scale(4.0128.2492)" font-size="75.7" y="1359.15" x="79.16" font-family="Arial" text-anchor="middle"/>
</svg>
