<?xml version="1.0" encoding="UTF-8" standalone="no"?>
<svg xmlns="http://www.w3.org/2000/svg" xmlns:inkscape="http://www.inkscape.org/namespaces/inkscape" version="1.1" width="512" height="512" viewBox="0 0 512 512">
 <metadata id="metadata72"/>
 <g id="g4" fill-rule="evenodd">
  <path d="m 471.95,253.05 c 0,120.9 -98.01,218.9 -218.9,218.9 -120.9,0 -218.9,-98.01 -218.9,-218.9 0,-120.9 98.01,-218.9 218.9,-218.9 120.9,0 218.9,98.01 218.9,218.9" inkscape:connector-curvature="0" id="path6" fill="#BF9E73"/>
  <path d="m 306.75,120.06 c -1.718,0.025 -3.464,0.099 -5.188,0.156 -29.18,-1.429 -40.533,25.05 -61.31,42.38 -24.998,16.889 -34.785,-20.562 -55.625,-32.594 -15.615,2.781 -42.14,15.341 -58.75,23.344 6.779,14.316 27.05,23.07 15.844,42.688 -4.602,26.608 9.382,51.731 29.13,68.75 12.748,17.1 38.15,28.28 40.813,50.13 6.6,21.811 -0.584,57.34 -3.969,70.22 26.894,26.894 55.892,56.978 82.09,83.75 96.82,-16.367 172.04,-96.29 181.22,-195.37 -49.973,-49.97 -99.89,-100.02 -150,-149.84 -4.095,-3.231 -9.1,-3.668 -14.25,-3.594" inkscape:connector-curvature="0" id="path8" fill-opacity="0.235"/>
  <path d="M 256,1 C 115.17,1 1,115.17 1,256 1,396.83 115.17,511 256,511 396.83,511 511,396.83 511,256 511,115.17 396.83,1 256,1 m 8.827,44.931 c 120.9,0 218.9,98 218.9,218.9 0,120.9 -98,218.9 -218.9,218.9 -120.9,0 -218.93,-98 -218.93,-218.9 0,-120.9 98.03,-218.9 218.93,-218.9" inkscape:connector-curvature="0" id="path10" fill-opacity="0.067"/>
  <g id="g12" fill-opacity="0.129">
   <path d="m 256,4.433 c -138.94,0 -251.57,112.63 -251.57,251.57 0,138.94 112.63,251.57 251.57,251.57 138.94,0 251.57,-112.63 251.57,-251.57 C 507.57,117.063 394.94,4.433 256,4.433 m 5.885,38.556 c 120.9,0 218.9,98 218.9,218.9 0,120.9 -98,218.9 -218.9,218.9 -120.9,0 -218.93,-98 -218.93,-218.9 0,-120.9 98.03,-218.9 218.93,-218.9" inkscape:connector-curvature="0" id="path14"/>
   <path d="m 256,8.356 c -136.77,0 -247.64,110.87 -247.64,247.64 0,136.77 110.87,247.64 247.64,247.64 136.77,0 247.64,-110.87 247.64,-247.64 C 503.64,119.226 392.77,8.356 256,8.356 m 2.942,31.691 c 120.9,0 218.9,98 218.9,218.9 0,120.9 -98,218.9 -218.9,218.9 -120.9,0 -218.93,-98 -218.93,-218.9 0,-120.9 98.03,-218.9 218.93,-218.9" inkscape:connector-curvature="0" id="path16"/>
  </g>
  <path d="m 253.04,7.859 c -135.42,0 -245.19,109.78 -245.19,245.19 0,135.42 109.78,245.19 245.19,245.19 135.42,0 245.19,-109.78 245.19,-245.19 0,-135.42 -109.78,-245.19 -245.19,-245.19 z m 0,26.297 c 120.9,0 218.9,98 218.9,218.9 0,120.9 -98,218.9 -218.9,218.9 -120.9,0 -218.93,-98 -218.93,-218.9 0,-120.9 98.03,-218.9 218.93,-218.9 z" inkscape:connector-curvature="0" id="path18" stroke-opacity="0.31" fill="#ffffff" stroke="#000000" stroke-width="4.904"/>
 </g>
 <text x="729.64" y="231.36" id="text20" font-family="Gentium Book Basic" word-spacing="0" line-height="125%" letter-spacing="0" font-size="129.23"><tspan x="729.64" y="231.36" id="tspan22"/>
 </text>
 <text x="378.91" y="579.25" transform="scale(4.0128,0.2492)" id="text24" font-family="Arial" text-anchor="middle" font-size="46.954"/>
 <text x="1310.91" y="151.36" id="text26" font-family="Gentium Book Basic" word-spacing="0" line-height="125%" letter-spacing="0" font-size="129.23"><tspan x="1310.91" y="151.36" id="tspan28"/>
 </text>
 <text x="523.76" y="258.22" transform="scale(4.0128,0.2492)" id="text30" font-family="Arial" text-anchor="middle" font-size="46.954"/>
 <text x="239.33" y="-29.901" id="text32" font-family="Gentium Book Basic" word-spacing="0" line-height="125%" letter-spacing="0" font-size="129.23"><tspan x="239.33" y="-29.901" id="tspan34"/>
 </text>
 <text x="256.72" y="-469.14" transform="scale(4.0128,0.2492)" id="text36" font-family="Arial" text-anchor="middle" font-size="46.954"/>
 <text x="1337.38" y="-246.37" id="text38" font-family="Gentium Book Basic" word-spacing="0" line-height="125%" letter-spacing="0" font-size="129.23"><tspan x="1337.38" y="-246.37" id="tspan40"/>
 </text>
 <text x="530.36" y="-1337.81" transform="scale(4.0128,0.2492)" id="text42" font-family="Arial" text-anchor="middle" font-size="46.954"/>
 <text x="1918.65" y="-326.38" id="text44" font-family="Gentium Book Basic" word-spacing="0" line-height="125%" letter-spacing="0" font-size="129.23"><tspan x="1918.65" y="-326.38" id="tspan46"/>
 </text>
 <text x="675.21" y="-1658.85" transform="scale(4.0128,0.2492)" id="text48" font-family="Arial" text-anchor="middle" font-size="46.954"/>
 <text x="1529.53" y="-798.78" id="text50" font-family="Gentium Book Basic" word-spacing="0" line-height="125%" letter-spacing="0" font-size="129.23"><tspan x="1529.53" y="-798.78" id="tspan52"/>
 </text>
 <text x="578.24" y="-3554.51" transform="scale(4.0128,0.2492)" id="text54" font-family="Arial" text-anchor="middle" font-size="46.954"/>
 <text x="2110.79" y="-878.78" id="text56" font-family="Gentium Book Basic" word-spacing="0" line-height="125%" letter-spacing="0" font-size="129.23"><tspan x="2110.79" y="-878.78" id="tspan58"/>
 </text>
 <text x="723.09" y="-3875.54" transform="scale(4.0128,0.2492)" id="text60" font-family="Arial" text-anchor="middle" font-size="46.954"/>
 <text x="277.99" y="535.94" id="text62" font-family="Gentium Book Basic" word-spacing="0" line-height="125%" letter-spacing="0" font-size="208.33"><tspan x="277.99" y="535.94" id="tspan64"/>
 </text>
 <path d="m 299.51,117.66 c -1.851,0.063 -3.736,0.114 -5.833,0.224 -6.21,1.296 -11.992,4.182 -17.947,6.281 -9.213,3.614 -18.07,9.792 -21.873,19.18 -0.953,2.081 -5.128,8.829 -7.291,11.89 -4.05,4.728 -9.191,8.605 -14.358,12 -6.415,3.816 -11.649,8.852 -17.947,17.274 -6.365,8.75 -6.92,16.354 -10.1,26.25 -4.895,5.177 -8.761,-1.964 -7.515,-6.955 2.996,-12.08 8.378,-22.968 7.628,-35.782 -1.855,-16.874 -8.807,-39.4 -28.828,-40.718 -4.474,0.014 -5.745,0.721 -10.768,5.272 -3.363,3.047 -5.602,4.084 -11.1,5.496 -6.571,1.615 -13.578,0.496 -19.742,3.365 -2.948,1.728 -6.507,6.992 -7.291,10.768 -0.654,3.15 0.915,6.271 4.04,7.964 6.298,2.961 17.04,0.753 18.396,9.534 -2.141,9.301 -7.966,15.729 -7.628,25.01 -0.414,10.157 0.879,18.551 1.57,28.491 0.914,12.183 9.714,18.645 15.816,28.828 9.186,11.724 25.49,23.969 41.17,19.18 5.441,-1.759 7.619,-1.448 9.647,1.458 1.383,1.983 1.576,3.81 0.785,8.188 -0.964,5.343 -0.955,15.495 0,21.2 0.708,4.226 1.235,10.654 1.234,14.246 -10e-4,2.937 0.582,6.61 1.346,9.647 0.498,1.98 0.585,4.053 0.785,10.768 0.136,4.534 0.373,8.964 0.561,9.871 0.635,3.074 0.495,5.577 -0.897,15.14 -0.589,4.048 -2.634,11.447 -4.04,14.582 -0.758,1.692 -2.708,5.647 -4.375,8.861 -0.14,0.271 -0.229,0.458 -0.336,0.673 0.716,-0.043 1.539,-0.068 2.243,-0.112 5.555,-0.346 10.832,-0.814 16.04,-1.234 -1.648,0.111 -3.286,0.21 -4.935,0.336 0.817,-4.02 1.625,-8.326 1.795,-11.329 0.16,-2.824 0.546,-6.07 1.01,-8.301 0.419,-2.022 0.839,-5.402 1.01,-7.515 0.401,-4.966 0.789,-6.407 3.141,-11.441 1.07,-2.29 2.281,-5.313 2.692,-6.73 0.718,-2.478 0.738,-2.959 0.673,-10.207 -0.059,-6.591 0.091,-7.945 0.673,-11.441 1.155,-6.944 1.689,-9.01 3.926,-13.573 3.041,-6.198 3.298,-7.146 3.589,-12.787 0.34,-6.579 1.418,-9.988 3.702,-12.339 1.285,-1.322 2.396,-2.02 4.487,-2.243 0.697,-0.075 1.528,0.003 2.468,0 3.958,-0.011 5.731,0.527 6.955,2.131 1.147,1.504 1.273,3.356 0.336,7.403 -0.42,1.814 -0.945,5.101 -1.122,7.291 -0.387,4.8 -1.224,7.53 -3.365,11.329 -2.729,4.843 -2.801,5.269 -2.804,13.348 -0.004,6.489 0.052,7.153 0.673,9.09 0.371,1.154 1.109,2.702 1.683,3.477 1.272,1.72 5.065,4.971 9.09,7.852 3.895,2.791 8.322,7.083 10.993,10.656 2.836,3.76 6.894,7.475 7.403,12.339 0.008,3.554 -2.062,8.04 -5.05,10.993 -1.531,1.513 -2.581,2.223 -5.608,3.702 -4.168,2.035 -5.74,3.358 -6.06,5.05 -0.122,0.648 0.104,1.149 0.336,1.683 7.416,-0.008 14.433,0.117 21.09,0.336 1.294,-0.957 2.312,-2.189 3.141,-3.926 1.137,-2.381 2.01,-3.574 3.141,-3.477 1.129,0.097 2.421,1.524 4.15,4.15 1.16,1.761 2.259,2.999 3.365,3.926 2.52,0.149 5.108,0.268 7.515,0.449 1.384,-1.3 2.317,-3.507 2.804,-6.842 0.291,-1.988 0.28,-2.888 -0.112,-5.16 -0.899,-5.211 -2.136,-7.236 -5.833,-10.32 -1.248,-1.041 -2.61,-2.396 -3.03,-3.03 -1.113,-1.68 -1.462,-3.906 -1.01,-6.06 0.551,-2.621 3.112,-7.268 6.06,-11.217 2.638,-3.537 4.02,-5.746 6.169,-9.871 0.804,-1.546 1.998,-3.062 3.814,-4.935 1.454,-1.501 3.048,-3.602 3.589,-4.599 l 0.897,-1.795 v -10.207 c -0.036,-7.276 0.384,-14.332 1.346,-21.537 0.797,-8.641 3.86,-15.46 8.08,-22.883 2.411,-4.979 3.543,-6.394 5.608,-6.394 2.771,0 4.456,3.068 5.272,9.534 0.933,6.347 4.02,11.778 5.945,17.835 1.173,4.314 2.01,6.255 4.711,11.666 2.562,5.134 4.721,10.862 5.384,14.358 0.351,1.85 0.447,4.416 0.449,9.759 0.003,7.871 0.263,11.01 1.234,15.03 0.737,3.058 1.098,11.826 0.785,17.723 -0.183,3.449 -0.251,3.898 -2.131,9.422 -2.757,8.103 -3.389,10.47 -3.926,14.582 -0.517,3.961 -0.866,4.92 -2.692,8.861 -0.261,0.564 -0.382,1.051 -0.561,1.57 6.642,1.289 12.563,2.684 18.17,4.15 0.154,-0.3 0.359,-0.579 0.449,-0.897 0.703,-3.138 -0.294,-6.366 -0.112,-9.534 0.442,-0.715 -0.602,-5.804 -2.356,-11.217 -2.788,-8.608 -3,-9.982 -1.57,-15.816 0.249,-1.013 0.635,-4.383 0.785,-7.515 0.289,-6.02 0.56,-7.531 2.131,-11.441 1.409,-3.507 1.824,-5.05 2.02,-8.637 0.227,-4.166 -0.265,-6.612 -1.795,-10.207 -1.514,-3.556 -1.711,-5.18 -1.01,-8.974 0.759,-4.107 0.757,-13.749 0,-16.825 -0.753,-3.06 -1.137,-14.157 -1.01,-28.379 l 1.57,-17.386 c 2.419,-9.407 3.893,-12.787 5.833,-12.787 1.777,0 3.449,2.907 4.599,8.188 0.704,4.898 0.349,9.927 1.234,14.806 1.147,6.737 -0.689,13.479 -4.15,19.293 -2.054,3.603 -2.763,6.195 -2.243,8.08 0.414,1.501 1.946,3.177 3.141,3.477 0.519,0.13 1.168,-0.077 1.907,-0.449 0.915,-0.46 1.845,-1.606 5.05,-6.394 2.171,-3.245 4.239,-6.675 4.599,-7.628 2.987,-13.1 3.109,-22.766 1.458,-35.67 0,-8.381 -1.16,-11.521 -6.955,-17.835 -10.843,-13.504 -17.1,-25.359 -23.331,-41.28 -2.147,-3.568 -5.276,-7.897 -7.628,-10.544 -3.663,-4.123 -5.85,-8.206 -7.852,-14.358 -2.887,-7.326 -5.359,-15.98 -9.647,-22.322 -4.04,-4.522 -7.801,-9.489 -13.685,-11.778 -5.59,-2.62 -10.376,-2.879 -15.928,-2.692 m -6.06,155.47 c 0.442,0.029 0.858,0.289 1.346,0.673 1.378,1.084 1.706,2.304 2.468,10.544 0.397,4.301 0.913,9.694 1.234,12 1.417,10.187 1.641,13.377 1.234,16.825 -0.21,1.776 -0.423,5.437 -0.561,8.08 -0.387,7.435 -1.44,10.73 -5.496,17.723 -1.238,2.134 -2.756,4.889 -3.365,6.169 -1.212,2.548 -2.514,4.263 -3.814,4.935 -1.276,0.66 -2.945,0.54 -4.599,-0.336 -2.279,-1.208 -6.419,-4.418 -8.413,-6.506 -2.134,-2.235 -3.039,-3.442 -5.496,-7.852 -2.793,-5.01 -3.139,-6.066 -3.141,-8.301 -0.002,-2.923 1.066,-5.09 3.926,-7.852 1.249,-1.206 3.951,-3.884 5.945,-5.945 4.127,-4.266 4.238,-4.481 5.272,-10.544 0.937,-5.494 0.958,-5.587 4.823,-11.217 1.384,-2.02 2.042,-3.848 3.702,-10.1 1.534,-5.774 2.225,-7.205 3.477,-7.852 0.599,-0.31 1.016,-0.477 1.458,-0.449" inkscape:connector-curvature="0" id="path66" fill="#ffffff" fill-rule="evenodd"/>
</svg>
