<?xml version="1.0" encoding="UTF-8" standalone="no"?>
<svg xmlns="http://www.w3.org/2000/svg" xmlns:inkscape="http://www.inkscape.org/namespaces/inkscape" version="1.1" width="512" height="512" viewBox="0 0 512 512">
 <metadata id="metadata102"/>
 <g id="g4" font-family="Gentium Book Basic" word-spacing="0" line-height="125%" letter-spacing="0" font-size="208.33">
  <text x="478.8" y="89.28" id="text6"><tspan x="478.8" y="89.28" id="tspan8"/>
  </text>
  <text x="-1880.03" y="367.4" id="text10"><tspan x="-1880.03" y="367.4" id="tspan12"/>
  </text>
  <text x="-1591.81" y="140.11" id="text14"><tspan x="-1591.81" y="140.11" id="tspan16"/>
  </text>
  <text x="2602.79" y="-116.79" id="text18"><tspan x="2602.79" y="-116.79" id="tspan20"/>
  </text>
  <text x="474.85" y="28.25" id="text22"><tspan x="474.85" y="28.25" id="tspan24"/>
  </text>
  <text x="-1883.98" y="306.36" id="text26"><tspan x="-1883.98" y="306.36" id="tspan28"/>
  </text>
  <text x="-1595.76" y="79.08" id="text30"><tspan x="-1595.76" y="79.08" id="tspan32"/>
  </text>
 </g>
 <g id="g34" fill-rule="evenodd">
  <path d="m 471.95,253.05 c 0,120.9 -98.01,218.9 -218.9,218.9 -120.9,0 -218.9,-98.01 -218.9,-218.9 0,-120.9 98.01,-218.9 218.9,-218.9 120.9,0 218.9,98.01 218.9,218.9" inkscape:connector-curvature="0" id="path36" fill="#BF9E73"/>
  <path d="M 256,1 C 115.17,1 1,115.17 1,256 1,396.83 115.17,511 256,511 396.83,511 511,396.83 511,256 511,115.17 396.83,1 256,1 m 8.827,44.931 c 120.9,0 218.9,98 218.9,218.9 0,120.9 -98,218.9 -218.9,218.9 -120.9,0 -218.93,-98 -218.93,-218.9 0,-120.9 98.03,-218.9 218.93,-218.9" inkscape:connector-curvature="0" id="path40" fill-opacity="0.067"/>
  <g id="g42" fill-opacity="0.129">
   <path d="m 256,4.433 c -138.94,0 -251.57,112.63 -251.57,251.57 0,138.94 112.63,251.57 251.57,251.57 138.94,0 251.57,-112.63 251.57,-251.57 C 507.57,117.063 394.94,4.433 256,4.433 m 5.885,38.556 c 120.9,0 218.9,98 218.9,218.9 0,120.9 -98,218.9 -218.9,218.9 -120.9,0 -218.93,-98 -218.93,-218.9 0,-120.9 98.03,-218.9 218.93,-218.9" inkscape:connector-curvature="0" id="path44"/>
   <path d="m 256,8.356 c -136.77,0 -247.64,110.87 -247.64,247.64 0,136.77 110.87,247.64 247.64,247.64 136.77,0 247.64,-110.87 247.64,-247.64 C 503.64,119.226 392.77,8.356 256,8.356 m 2.942,31.691 c 120.9,0 218.9,98 218.9,218.9 0,120.9 -98,218.9 -218.9,218.9 -120.9,0 -218.93,-98 -218.93,-218.9 0,-120.9 98.03,-218.9 218.93,-218.9" inkscape:connector-curvature="0" id="path46"/>
  </g>
  <path d="m 253.04,7.859 c -135.42,0 -245.19,109.78 -245.19,245.19 0,135.42 109.78,245.19 245.19,245.19 135.42,0 245.19,-109.78 245.19,-245.19 0,-135.42 -109.78,-245.19 -245.19,-245.19 z m 0,26.297 c 120.9,0 218.9,98 218.9,218.9 0,120.9 -98,218.9 -218.9,218.9 -120.9,0 -218.93,-98 -218.93,-218.9 0,-120.9 98.03,-218.9 218.93,-218.9 z" inkscape:connector-curvature="0" id="path48" stroke-opacity="0.31" fill="#ffffff" stroke="#000000" stroke-width="4.904"/>
 </g>
 <text x="729.64" y="231.36" id="text50" font-family="Gentium Book Basic" word-spacing="0" line-height="125%" letter-spacing="0" font-size="129.23"><tspan x="729.64" y="231.36" id="tspan52"/>
 </text>
 <text x="378.91" y="579.25" transform="scale(4.0128,0.2492)" id="text54" font-family="Arial" text-anchor="middle" font-size="46.954"/>
 <text x="1310.91" y="151.36" id="text56" font-family="Gentium Book Basic" word-spacing="0" line-height="125%" letter-spacing="0" font-size="129.23"><tspan x="1310.91" y="151.36" id="tspan58"/>
 </text>
 <text x="523.76" y="258.22" transform="scale(4.0128,0.2492)" id="text60" font-family="Arial" text-anchor="middle" font-size="46.954"/>
 <text x="239.33" y="-29.901" id="text62" font-family="Gentium Book Basic" word-spacing="0" line-height="125%" letter-spacing="0" font-size="129.23"><tspan x="239.33" y="-29.901" id="tspan64"/>
 </text>
 <text x="256.72" y="-469.14" transform="scale(4.0128,0.2492)" id="text66" font-family="Arial" text-anchor="middle" font-size="46.954"/>
 <text x="1337.38" y="-246.37" id="text68" font-family="Gentium Book Basic" word-spacing="0" line-height="125%" letter-spacing="0" font-size="129.23"><tspan x="1337.38" y="-246.37" id="tspan70"/>
 </text>
 <text x="530.36" y="-1337.81" transform="scale(4.0128,0.2492)" id="text72" font-family="Arial" text-anchor="middle" font-size="46.954"/>
 <text x="1918.65" y="-326.38" id="text74" font-family="Gentium Book Basic" word-spacing="0" line-height="125%" letter-spacing="0" font-size="129.23"><tspan x="1918.65" y="-326.38" id="tspan76"/>
 </text>
 <text x="675.21" y="-1658.85" transform="scale(4.0128,0.2492)" id="text78" font-family="Arial" text-anchor="middle" font-size="46.954"/>
 <text x="1529.53" y="-798.78" id="text80" font-family="Gentium Book Basic" word-spacing="0" line-height="125%" letter-spacing="0" font-size="129.23"><tspan x="1529.53" y="-798.78" id="tspan82"/>
 </text>
 <text x="578.24" y="-3554.51" transform="scale(4.0128,0.2492)" id="text84" font-family="Arial" text-anchor="middle" font-size="46.954"/>
 <text x="2110.79" y="-878.78" id="text86" font-family="Gentium Book Basic" word-spacing="0" line-height="125%" letter-spacing="0" font-size="129.23"><tspan x="2110.79" y="-878.78" id="tspan88"/>
 </text>
 <text x="723.09" y="-3875.54" transform="scale(4.0128,0.2492)" id="text90" font-family="Arial" text-anchor="middle" font-size="46.954"/>
 <text x="277.99" y="535.94" id="text92" font-family="Gentium Book Basic" word-spacing="0" line-height="125%" letter-spacing="0" font-size="208.33"><tspan x="277.99" y="535.94" id="tspan94"/>
 </text>
 <path d="m 85.41,193.7 1.21,12.43 8.701,-0.847 3.952,40.604 6.452,66.29 16.521,-1.608 c -1.177,3.443 -1.667,7.182 -1.291,11.04 1.408,14.465 14.278,25.05 28.742,23.644 14.465,-1.408 25.05,-14.278 23.644,-28.742 -0.375,-3.857 -1.565,-7.433 -3.383,-10.584 l 14.851,-1.445 c -1.177,3.443 -1.667,7.182 -1.291,11.04 1.408,14.465 14.278,25.05 28.742,23.644 14.465,-1.408 25.05,-14.278 23.644,-28.742 -0.375,-3.857 -1.565,-7.433 -3.383,-10.584 l 18.994,-1.849 c -1.177,3.443 -1.667,7.182 -1.291,11.04 1.408,14.465 14.278,25.05 28.742,23.644 14.465,-1.408 25.05,-14.278 23.644,-28.742 -0.375,-3.857 -1.565,-7.433 -3.383,-10.584 l 18.994,-1.849 c -1.177,3.443 -1.667,7.182 -1.291,11.04 1.408,14.465 14.278,25.05 28.742,23.644 14.465,-1.408 25.05,-14.278 23.644,-28.742 -0.375,-3.857 -1.565,-7.433 -3.383,-10.584 l 9.413,-0.916 2.641,27.14 47.647,-4.637 -52.1,-42.2 -4.535,-46.599 -8.481,0.825 0.116,-33.05 4.765,-0.464 -1.452,-14.916 -49.36,4.804 1.452,14.916 8.494,-0.827 6.073,32.451 -56.802,5.528 c -0.003,-0.721 -0.037,-1.45 -0.108,-2.185 -1.041,-10.698 -9.12,-18.666 -18.04,-17.797 -8.924,0.869 -15.315,10.245 -14.274,20.942 0.072,0.736 0.18,1.457 0.315,2.165 l -19.577,1.905 c -1.975,-7.03 -5.599,-11.793 -9.269,-11.436 -3.67,0.357 -6.308,5.728 -6.89,13.01 l -14.709,1.432 -3.952,-40.604 8.701,-0.847 -1.21,-12.43 -109.38,10.646" inkscape:connector-curvature="0" id="path96" fill="#ffffff" fill-rule="evenodd"/>
</svg>
