<?xml version="1.0" encoding="UTF-8" standalone="no"?>
<svg xmlns="http://www.w3.org/2000/svg" xmlns:inkscape="http://www.inkscape.org/namespaces/inkscape" version="1.1" width="512" height="512" viewBox="0 0 512 512">
 <metadata id="metadata74"/>
 <g transform="translate(0,-540.36)" id="g4">
  <g id="g6" fill-rule="evenodd">
   <path d="m 471.95,793.41 c 0,120.9 -98.01,218.9 -218.9,218.9 -120.9,0 -218.9,-98.01 -218.9,-218.9 0,-120.9 98.01,-218.9 218.9,-218.9 120.9,0 218.9,98.01 218.9,218.9" inkscape:connector-curvature="0" id="path8" fill="#BF9E73"/>
   <path d="m 251.25,106.69 -14.188,35.906 c -4.813,-0.939 -9.05,-18.883 -14.438,-2.719 -3.597,17.607 -10.768,23.12 -16.5,11.125 -3.991,-5.408 -11.628,2.586 -25.469,-9.406 -20.17,-12.615 6.911,25.24 8.156,35.5 8.657,15.247 -14.845,-3.904 -22.09,-5.656 -6.66,-1.979 -26.351,-17.864 -17.12,-2.875 l 15.16,34.781 -32.563,-7.094 c 8.194,8.04 11.975,16.995 4.125,17.813 5.473,5.473 0.439,0.283 10.813,12.406 0.523,0.611 -0.772,2.353 -2.094,2.844 -23.425,5.849 -11.498,4.606 -33,9.719 29.573,29.573 21.03,21.22 28.844,29.03 22.568,3.278 -12.484,6.891 -22.313,12.625 6.192,6.192 15.172,12.484 28.19,25.5 1.999,1.999 -2.388,9.201 -5.531,12.344 2.756,3.303 2.183,2.652 5.875,6.344 0.742,0.742 -1.046,2.414 -2.906,4.438 -7.04,6.06 -5.967,5.748 -9.06,8.844 45.584,45.584 77.03,77.22 133,133.25 102.69,-6.993 185.98,-84.79 201.31,-184.97 -48.931,-49.08 -98.88,-99.6 -141.03,-143.22 -5.224,0.058 -18.669,7.822 -27.06,10.844 -16.232,-16.232 -36.862,-34.14 -50.09,-47.37" inkscape:connector-curvature="0" transform="translate(0,540.36)" id="path10" fill-opacity="0.235"/>
   <path d="m 256,541.36 c -140.83,0 -255,114.17 -255,255 0,140.83 114.17,255 255,255 140.83,0 255,-114.17 255,-255 0,-140.83 -114.17,-255 -255,-255 m 8.827,44.931 c 120.9,0 218.9,98 218.9,218.9 0,120.9 -98,218.9 -218.9,218.9 -120.9,0 -218.93,-98 -218.93,-218.9 0,-120.9 98.03,-218.9 218.93,-218.9" inkscape:connector-curvature="0" id="path12" fill-opacity="0.067"/>
   <g id="g14" fill-opacity="0.129">
    <path d="M 256,544.79 C 117.06,544.79 4.43,657.42 4.43,796.36 4.43,935.3 117.06,1047.93 256,1047.93 394.94,1047.93 507.57,935.3 507.57,796.36 507.57,657.42 394.94,544.79 256,544.79 m 5.885,38.556 c 120.9,0 218.9,98 218.9,218.9 0,120.9 -98,218.9 -218.9,218.9 -120.9,0 -218.93,-98 -218.93,-218.9 0,-120.9 98.03,-218.9 218.93,-218.9" inkscape:connector-curvature="0" id="path16"/>
    <path d="M 256,548.72 C 119.23,548.72 8.36,659.59 8.36,796.36 8.36,933.13 119.23,1044 256,1044 392.77,1044 503.64,933.13 503.64,796.36 503.64,659.59 392.77,548.72 256,548.72 m 2.942,31.691 c 120.9,0 218.9,98 218.9,218.9 0,120.9 -98,218.9 -218.9,218.9 -120.9,0 -218.93,-98 -218.93,-218.9 0,-120.9 98.03,-218.9 218.93,-218.9" inkscape:connector-curvature="0" id="path18"/>
   </g>
   <path d="M 253.04,548.22 C 117.62,548.22 7.85,658 7.85,793.41 c 0,135.42 109.78,245.19 245.19,245.19 135.42,0 245.19,-109.78 245.19,-245.19 0,-135.42 -109.78,-245.19 -245.19,-245.19 z m 0,26.297 c 120.9,0 218.9,98 218.9,218.9 0,120.9 -98,218.9 -218.9,218.9 -120.9,0 -218.93,-98 -218.93,-218.9 0,-120.9 98.03,-218.9 218.93,-218.9 z" inkscape:connector-curvature="0" id="path20" stroke-opacity="0.31" fill="#ffffff" stroke="#000000" stroke-width="4.904"/>
  </g>
  <text x="729.64" y="771.72" id="text22" font-family="Gentium Book Basic" word-spacing="0" line-height="125%" letter-spacing="0" font-size="129.23"><tspan x="729.64" y="771.72" id="tspan24"/>
  </text>
  <text x="378.91" y="2747.64" transform="scale(4.0128,0.2492)" id="text26" font-family="Arial" text-anchor="middle" font-size="46.954"/>
  <text x="1310.91" y="691.72" id="text28" font-family="Gentium Book Basic" word-spacing="0" line-height="125%" letter-spacing="0" font-size="129.23"><tspan x="1310.91" y="691.72" id="tspan30"/>
  </text>
  <text x="523.76" y="2426.6" transform="scale(4.0128,0.2492)" id="text32" font-family="Arial" text-anchor="middle" font-size="46.954"/>
  <text x="239.33" y="510.46" id="text34" font-family="Gentium Book Basic" word-spacing="0" line-height="125%" letter-spacing="0" font-size="129.23"><tspan x="239.33" y="510.46" id="tspan36"/>
  </text>
  <text x="256.72" y="1699.25" transform="scale(4.0128,0.2492)" id="text38" font-family="Arial" text-anchor="middle" font-size="46.954"/>
  <text x="1337.38" y="293.99" id="text40" font-family="Gentium Book Basic" word-spacing="0" line-height="125%" letter-spacing="0" font-size="129.23"><tspan x="1337.38" y="293.99" id="tspan42"/>
  </text>
  <text x="530.36" y="830.57" transform="scale(4.0128,0.2492)" id="text44" font-family="Arial" text-anchor="middle" font-size="46.954"/>
  <text x="1918.65" y="213.99" id="text46" font-family="Gentium Book Basic" word-spacing="0" line-height="125%" letter-spacing="0" font-size="129.23"><tspan x="1918.65" y="213.99" id="tspan48"/>
  </text>
  <text x="675.21" y="509.54" transform="scale(4.0128,0.2492)" id="text50" font-family="Arial" text-anchor="middle" font-size="46.954"/>
  <text x="1529.53" y="-258.41" id="text52" font-family="Gentium Book Basic" word-spacing="0" line-height="125%" letter-spacing="0" font-size="129.23"><tspan x="1529.53" y="-258.41" id="tspan54"/>
  </text>
  <text x="578.24" y="-1386.12" transform="scale(4.0128,0.2492)" id="text56" font-family="Arial" text-anchor="middle" font-size="46.954"/>
  <text x="2110.79" y="-338.42" id="text58" font-family="Gentium Book Basic" word-spacing="0" line-height="125%" letter-spacing="0" font-size="129.23"><tspan x="2110.79" y="-338.42" id="tspan60"/>
  </text>
  <text x="723.09" y="-1707.16" transform="scale(4.0128,0.2492)" id="text62" font-family="Arial" text-anchor="middle" font-size="46.954"/>
  <text x="277.99" y="1076.3" id="text64" font-family="Gentium Book Basic" word-spacing="0" line-height="125%" letter-spacing="0" font-size="208.33"><tspan x="277.99" y="1076.3" id="tspan66"/>
  </text>
  <path d="m 251.24,647.04 -18.1,45.918 -6.927,-21.786 -11.228,28.49 -7.681,-3.966 -5.642,-8.798 -0.642,5.558 -29.746,-15.362 20.781,47.79 -45.807,-23.657 18.49,42.483 -32.54,-7.094 12.345,15.502 -8.575,2.737 15.641,6.173 3.212,3.994 -43.879,13.965 35.05,13.798 -18.993,0.81 15.613,11.647 -24.384,15.641 40.08,4.553 -17.317,33.517 20.11,-8.742 -26.14,28.434 36.701,-5.335 -3.128,14.384 -3.184,3.463 33.377,-4.86 1.983,46.868 28.27,-37.874 2.123,50.39 29.97,-40.16 0.419,9.776 5.502,-7.346 18.77,17.261 -2.598,-17.792 32.986,30.31 -9.161,-63.07 3.827,-0.168 35.724,32.847 -4.972,-34.13 2.737,-0.112 3.575,1.843 -0.866,-1.955 23.657,-1.01 -32.819,-24.495 -0.475,-3.212 63.68,-2.681 -47.06,-35.11 29.19,-9.301 -20.14,-7.932 30.08,-32.707 -35.612,5.167 -22.736,-8.938 18.379,-35.556 -24.719,10.753 -1.089,-25.948 -27.596,36.953 29.27,-56.62 -43.15,18.77 0.056,-0.251 -0.614,0.503 -3.296,1.424 -6.648,-20.892 -7.206,18.295 -16.926,-53.15" inkscape:connector-curvature="0" id="path68" fill="#ffffff" fill-rule="evenodd"/>
 </g>
</svg>
