<?xml version="1.0" encoding="UTF-8" standalone="no"?>
<!-- Created with Inkscape (http://www.inkscape.org/) -->

<svg
   xmlns:dc="http://purl.org/dc/elements/1.1/"
   xmlns:cc="http://creativecommons.org/ns#"
   xmlns:rdf="http://www.w3.org/1999/02/22-rdf-syntax-ns#"
   xmlns:svg="http://www.w3.org/2000/svg"
   xmlns="http://www.w3.org/2000/svg"
   xmlns:inkscape="http://www.inkscape.org/namespaces/inkscape"
   version="1.1"
   width="100%"
   height="100%"
   viewBox="0 0 512 512"
   id="svg2">
  <metadata
     id="metadata74">
    <rdf:RDF>
      <cc:Work
         rdf:about="">
        <dc:format>image/svg+xml</dc:format>
        <dc:type
           rdf:resource="http://purl.org/dc/dcmitype/StillImage" />
      </cc:Work>
    </rdf:RDF>
  </metadata>
  <defs
     id="defs72" />
  <g
     transform="translate(0,-540.36)"
     id="g4">
    <g
       id="g6"
       style="fill-rule:evenodd">
      <path
         d="m 471.95,793.41 c 0,120.9 -98.01,218.9 -218.9,218.9 -120.9,0 -218.9,-98.01 -218.9,-218.9 0,-120.9 98.01,-218.9 218.9,-218.9 120.9,0 218.9,98.01 218.9,218.9"
         inkscape:connector-curvature="0"
         id="path8"
         style="fill:#BF9E73" />
      <path
         d="m 265.28,119.22 c -1.464,0 -2.738,1.472 -3.969,1.5 -0.186,0.695 -3.441,2.872 -3.969,5.313 -0.468,2.163 -0.938,5.749 -0.938,8.281 v 0.75 c 0,4.375 0.94,9.07 1.781,12.781 0.487,2.148 1.349,3.652 1.813,5.344 0.427,1.559 1.947,3.251 2.625,4.531 0.133,-0.031 0.199,-0.037 0.313,-0.063 0.254,0.376 0.513,0.732 0.688,1.063 0.132,-0.031 0.2,-0.037 0.313,-0.063 0.254,0.376 0.513,0.732 0.688,1.063 0.132,-0.031 0.2,-0.037 0.313,-0.063 0.24,0.355 0.485,0.685 0.656,1 -0.416,0.04 -0.831,0.083 -1.25,0.125 -0.325,0.849 -2.571,0.949 -3.5,5.156 -0.077,0.35 -0.117,0.696 -0.156,1.031 l 4.313,3.219 -2.813,3.75 -1.281,-0.969 c 0.012,0.269 0.031,0.533 0.031,0.813 l 0.406,0.531 c -0.026,2.284 1.19,5.429 1.688,7.781 -0.19,-0.218 -0.396,-0.423 -0.781,-0.688 -0.241,-0.323 -0.463,-0.602 -0.938,-0.938 -0.253,-0.347 -0.492,-0.627 -0.969,-0.969 -0.259,-0.356 -0.515,-0.653 -1,-1 -0.259,-0.356 -0.515,-0.653 -1,-1 -0.255,-0.35 -0.502,-0.632 -0.969,-0.969 -0.289,-0.399 -0.508,-0.69 -1.094,-1.094 -0.241,-0.323 -0.463,-0.602 -0.938,-0.938 -0.253,-0.347 -0.492,-0.627 -0.969,-0.969 -0.259,-0.356 -0.515,-0.653 -1,-1 -0.259,-0.356 -0.515,-0.653 -1,-1 -0.255,-0.35 -0.502,-0.632 -0.969,-0.969 -0.275,-0.38 -0.518,-0.666 -1.031,-1.031 -0.276,-0.379 -0.494,-0.671 -1.063,-1.063 -0.237,-0.318 -0.448,-0.611 -0.906,-0.938 -0.253,-0.346 -0.524,-0.628 -1,-0.969 -0.259,-0.356 -0.515,-0.653 -1,-1 -0.255,-0.35 -0.502,-0.632 -0.969,-0.969 -0.275,-0.38 -0.518,-0.666 -1.031,-1.031 -0.276,-0.379 -0.494,-0.671 -1.063,-1.063 -0.241,-0.323 -0.463,-0.602 -0.938,-0.938 -0.253,-0.347 -0.492,-0.627 -0.969,-0.969 -0.259,-0.356 -0.515,-0.653 -1,-1 -0.259,-0.356 -0.515,-0.653 -1,-1 -0.255,-0.35 -0.502,-0.632 -0.969,-0.969 -0.289,-0.399 -0.508,-0.69 -1.094,-1.094 -0.241,-0.323 -0.463,-0.602 -0.938,-0.938 -0.253,-0.347 -0.492,-0.627 -0.969,-0.969 -0.259,-0.356 -0.515,-0.653 -1,-1 -0.259,-0.356 -0.515,-0.653 -1,-1 -0.255,-0.35 -0.502,-0.632 -0.969,-0.969 -0.271,-0.375 -0.522,-0.669 -1.031,-1.031 -0.098,-0.135 -0.211,-0.293 -0.313,-0.406 l 0.063,-0.063 -0.094,-0.094 c -0.016,0.024 -0.05,0.036 -0.063,0.063 -0.168,-0.173 -0.345,-0.348 -0.656,-0.563 -0.163,-0.219 -0.304,-0.43 -0.531,-0.625 l 0.063,-0.063 -0.094,-0.063 c -0.032,0.009 -0.067,0.015 -0.094,0.031 -0.074,-0.059 -0.159,-0.122 -0.25,-0.188 -0.259,-0.356 -0.515,-0.653 -1,-1 -0.259,-0.356 -0.515,-0.653 -1,-1 -0.255,-0.35 -0.502,-0.632 -0.969,-0.969 -0.275,-0.38 -0.518,-0.666 -1.031,-1.031 -0.111,-0.152 -0.194,-0.301 -0.313,-0.438 -0.177,-0.203 -0.41,-0.391 -0.75,-0.625 -0.237,-0.318 -0.448,-0.611 -0.906,-0.938 -0.253,-0.346 -0.524,-0.628 -1,-0.969 -0.468,-0.643 -0.77,-0.947 -2.844,-2.156 -1.292,-0.754 -4.225,-1.906 -6.219,-1.906 h -1.906 c -4.543,0 -9.06,4.354 -9.06,9.06 0,4.04 2.577,10.11 3.625,13.563 0.59,1.944 4.688,11.04 4.688,12.313 0.924,0.619 2.469,7.517 2.469,9.438 0.268,0.18 0.764,0.812 1.156,1.125 0.296,0.275 0.691,0.784 1.031,1.031 0.294,0.286 0.678,0.766 1,1 0.294,0.286 0.678,0.766 1,1 0.169,0.165 0.357,0.378 0.563,0.594 -1.06,0.521 -1.964,1.09 -2.406,1.75 0.262,1.021 0.519,2.041 0.781,3.063 0.812,2.959 1.626,5.916 2.438,8.875 0.178,1.972 2.788,6.683 3.719,8.094 0.763,1.155 1.948,3.188 3.406,4.469 -1,-1.186 -1.825,-2.588 -2.406,-3.469 -0.931,-1.411 -3.541,-6.121 -3.719,-8.094 -0.812,-2.959 -1.626,-5.916 -2.438,-8.875 -0.262,-1.022 -0.519,-2.041 -0.781,-3.063 0.442,-0.66 1.346,-1.229 2.406,-1.75 0.074,0.077 0.147,0.12 0.219,0.188 0,0.008 0,0.023 0,0.031 0.05,0.046 0.109,0.087 0.156,0.125 0.17,0.156 0.344,0.394 0.563,0.625 -1.038,0.515 -1.908,1.131 -2.344,1.781 0.262,1.021 0.519,2.041 0.781,3.063 0.812,2.959 1.626,5.916 2.438,8.875 0.178,1.972 2.788,6.683 3.719,8.094 0.775,1.175 1.977,3.256 3.469,4.531 0.269,0.313 0.55,0.578 0.844,0.844 0.11,0.132 0.23,0.249 0.344,0.375 -0.483,0.555 -0.938,1.073 -0.938,1.281 0,1.235 0.547,3.087 1.375,5.094 -0.201,-0.246 -0.457,-0.528 -0.563,-0.625 -0.113,-0.104 -0.263,-0.22 -0.438,-0.344 -0.2,-0.244 -0.426,-0.528 -0.531,-0.625 -0.118,-0.109 -0.284,-0.245 -0.469,-0.375 -0.201,-0.246 -0.426,-0.527 -0.531,-0.625 -0.109,-0.1 -0.27,-0.224 -0.438,-0.344 -0.213,-0.262 -0.452,-0.554 -0.563,-0.656 -0.125,-0.115 -0.298,-0.269 -0.5,-0.406 -0.18,-0.218 -0.402,-0.503 -0.5,-0.594 -0.112,-0.103 -0.262,-0.221 -0.438,-0.344 -0.21,-0.258 -0.453,-0.555 -0.563,-0.656 -0.102,-0.095 -0.248,-0.2 -0.406,-0.313 -0.222,-0.273 -0.479,-0.582 -0.594,-0.688 -0.116,-0.107 -0.282,-0.216 -0.469,-0.344 -0.192,-0.233 -0.397,-0.53 -0.5,-0.625 -0.105,-0.097 -0.271,-0.227 -0.438,-0.344 -0.214,-0.263 -0.451,-0.553 -0.563,-0.656 -0.115,-0.106 -0.283,-0.249 -0.469,-0.375 -0.192,-0.233 -0.428,-0.529 -0.531,-0.625 -0.113,-0.105 -0.284,-0.25 -0.469,-0.375 -0.193,-0.234 -0.427,-0.529 -0.531,-0.625 -0.11,-0.101 -0.26,-0.223 -0.438,-0.344 -0.209,-0.255 -0.452,-0.554 -0.563,-0.656 -0.108,-0.1 -0.261,-0.224 -0.438,-0.344 -0.201,-0.245 -0.455,-0.557 -0.563,-0.656 -0.095,-0.088 -0.225,-0.176 -0.375,-0.281 -0.231,-0.285 -0.506,-0.608 -0.625,-0.719 -0.104,-0.096 -0.236,-0.197 -0.406,-0.313 -0.213,-0.26 -0.45,-0.552 -0.563,-0.656 -0.102,-0.095 -0.27,-0.231 -0.438,-0.344 -0.205,-0.249 -0.453,-0.555 -0.563,-0.656 -0.099,-0.092 -0.244,-0.203 -0.406,-0.313 -0.221,-0.27 -0.478,-0.58 -0.594,-0.688 -0.105,-0.097 -0.261,-0.228 -0.438,-0.344 -0.203,-0.246 -0.453,-0.555 -0.563,-0.656 -0.107,-0.099 -0.256,-0.227 -0.438,-0.344 -0.2,-0.242 -0.454,-0.556 -0.563,-0.656 -0.093,-0.086 -0.222,-0.179 -0.375,-0.281 -0.23,-0.282 -0.505,-0.608 -0.625,-0.719 -0.097,-0.089 -0.245,-0.175 -0.406,-0.281 -0.214,-0.261 -0.448,-0.582 -0.563,-0.688 -0.093,-0.086 -0.251,-0.179 -0.406,-0.281 -0.226,-0.276 -0.475,-0.609 -0.594,-0.719 -0.088,-0.081 -0.229,-0.184 -0.375,-0.281 -0.234,-0.287 -0.503,-0.606 -0.625,-0.719 -0.098,-0.09 -0.27,-0.206 -0.438,-0.313 -0.209,-0.254 -0.45,-0.583 -0.563,-0.688 -0.073,-0.068 -0.226,-0.138 -0.344,-0.219 -0.25,-0.308 -0.528,-0.662 -0.656,-0.781 -0.084,-0.077 -0.235,-0.158 -0.375,-0.25 -0.231,-0.283 -0.503,-0.638 -0.625,-0.75 -0.092,-0.085 -0.246,-0.181 -0.406,-0.281 -0.213,-0.258 -0.448,-0.581 -0.563,-0.688 -0.077,-0.071 -0.216,-0.166 -0.344,-0.25 -0.246,-0.302 -0.529,-0.632 -0.656,-0.75 -0.086,-0.079 -0.257,-0.188 -0.406,-0.281 -0.221,-0.269 -0.476,-0.609 -0.594,-0.719 -0.081,-0.075 -0.235,-0.162 -0.375,-0.25 -0.237,-0.29 -0.5,-0.635 -0.625,-0.75 -0.084,-0.078 -0.226,-0.191 -0.375,-0.281 -0.226,-0.275 -0.504,-0.607 -0.625,-0.719 -0.1,-0.093 -0.25,-0.212 -0.438,-0.313 -0.202,-0.244 -0.451,-0.585 -0.563,-0.688 -0.071,-0.065 -0.191,-0.142 -0.313,-0.219 -0.25,-0.307 -0.526,-0.661 -0.656,-0.781 -0.08,-0.074 -0.231,-0.166 -0.375,-0.25 -0.23,-0.28 -0.502,-0.605 -0.625,-0.719 -0.088,-0.081 -0.242,-0.193 -0.406,-0.281 -0.22,-0.266 -0.475,-0.609 -0.594,-0.719 -0.088,-0.082 -0.24,-0.195 -0.406,-0.281 -0.221,-0.268 -0.474,-0.608 -0.594,-0.719 -0.079,-0.073 -0.227,-0.17 -0.375,-0.25 -0.265,-0.326 -0.488,-0.624 -0.625,-0.75 -0.075,-0.07 -0.203,-0.174 -0.344,-0.25 -0.268,-0.33 -0.518,-0.622 -0.656,-0.75 -0.071,-0.066 -0.18,-0.147 -0.313,-0.219 -0.282,-0.349 -0.544,-0.649 -0.688,-0.781 -0.067,-0.062 -0.156,-0.12 -0.281,-0.188 -0.291,-0.36 -0.541,-0.646 -0.688,-0.781 -0.074,-0.068 -0.202,-0.183 -0.344,-0.25 -0.276,-0.34 -0.515,-0.619 -0.656,-0.75 -0.059,-0.054 -0.172,-0.129 -0.281,-0.188 -0.3,-0.372 -0.568,-0.673 -0.719,-0.813 -0.064,-0.06 -0.189,-0.129 -0.313,-0.188 -0.29,-0.359 -0.54,-0.676 -0.688,-0.813 -0.062,-0.057 -0.161,-0.134 -0.281,-0.188 -0.297,-0.368 -0.569,-0.674 -0.719,-0.813 -0.061,-0.057 -0.161,-0.108 -0.281,-0.156 -0.302,-0.374 -0.567,-0.703 -0.719,-0.844 -0.06,-0.055 -0.164,-0.114 -0.281,-0.156 -0.298,-0.369 -0.537,-0.673 -0.688,-0.813 -0.049,-0.045 -0.154,-0.116 -0.25,-0.156 -0.315,-0.391 -0.593,-0.699 -0.75,-0.844 -0.055,-0.051 -0.174,-0.13 -0.281,-0.156 -0.307,-0.381 -0.564,-0.701 -0.719,-0.844 -0.048,-0.045 -0.156,-0.102 -0.25,-0.125 -0.315,-0.391 -0.592,-0.729 -0.75,-0.875 -0.05,-0.046 -0.158,-0.125 -0.25,-0.125 -0.317,-0.393 -0.592,-0.729 -0.75,-0.875 -0.042,-0.039 -0.142,-0.094 -0.219,-0.094 -0.325,-0.404 -0.62,-0.757 -0.781,-0.906 -0.034,-0.031 -0.095,-0.063 -0.156,-0.063 -0.019,-0.018 -0.043,-0.045 -0.063,-0.063 -0.317,-0.393 -0.591,-0.697 -0.75,-0.844 -0.025,-0.023 -0.11,-0.063 -0.156,-0.063 -0.029,-0.027 -0.064,-0.067 -0.094,-0.094 -0.318,-0.395 -0.59,-0.696 -0.75,-0.844 -0.017,-0.016 -0.063,-0.063 -0.094,-0.063 -0.099,-0.092 -0.23,-0.183 -0.344,-0.281 -0.24,-0.291 -0.432,-0.536 -0.563,-0.656 -0.008,-0.008 -0.047,-0.031 -0.063,-0.031 -0.088,-0.081 -0.213,-0.164 -0.313,-0.25 -0.26,-0.317 -0.487,-0.591 -0.625,-0.719 -1.681,-1.554 -5.572,-4.156 -8.656,-4.156 h -0.938 v -0.406 h -2.094 v 0.406 h -0.563 c -2.02,0 -3.793,1.946 -4.875,3.063 -1.104,1.139 -1.938,3.728 -1.938,5.969 v 0.188 c 0.141,1 0.297,2.027 0.438,3.03 0.425,0.706 1.181,3.589 1.688,4.688 0.684,1.484 1.348,2.653 2.156,4.063 0.675,1.176 1.619,2.748 2.406,3.813 0.453,0.613 0.855,0.986 1.219,1.25 0.379,0.474 0.717,0.809 1.031,1.031 0.37,0.458 0.693,0.783 1,1 0.359,0.447 0.701,0.751 1,0.969 0.367,0.461 0.696,0.779 1,1 0.259,0.326 0.493,0.584 0.719,0.781 0.763,1.711 1.466,3.543 2.125,4.594 0.483,0.771 0.413,1.487 0.969,2.25 0.256,0.351 0.727,1.447 1.031,1.969 0.661,1.136 0.858,3.168 1.75,4.5 0,1.184 0.385,1.428 0.906,2.281 0.399,0.652 1.226,1.363 1.344,1.688 0.069,0 0.123,0.002 0.188,0 0.363,0.414 0.736,0.79 0.813,1 0.069,0 0.123,0.002 0.188,0 0.361,0.412 0.737,0.791 0.813,1 0.069,0 0.123,0.002 0.188,0 0.359,0.41 0.737,0.792 0.813,1 0.022,0 0.025,-0.031 0.031,-0.031 0.046,0 0.081,0.001 0.125,0 0.366,0.422 0.735,0.787 0.813,1 0.03,0 0.054,0 0.063,0 0.045,0 0.082,0.001 0.125,0 0.364,0.419 0.736,0.788 0.813,1 h 0.063 c 0.045,0 0.082,0.001 0.125,0 0.319,0.367 0.624,0.688 0.75,0.906 0.477,2.303 4.313,8.595 5.313,9.906 1.193,1.566 2.02,3.219 3.5,4.406 0.307,0.352 0.625,0.699 1,1 0.306,0.35 0.627,0.701 1,1 0.304,0.348 0.629,0.702 1,1 0.303,0.346 0.6,0.673 0.969,0.969 0.309,0.357 0.621,0.696 1,1 0.308,0.355 0.623,0.697 1,1 0.306,0.353 0.625,0.699 1,1 0.305,0.352 0.627,0.7 1,1 0.303,0.35 0.628,0.702 1,1 0.302,0.348 0.599,0.672 0.969,0.969 0.073,0.085 0.142,0.167 0.219,0.25 0.154,0.652 0.426,1.333 0.688,1.625 0.238,0.266 1.539,1.712 1.625,1.781 0.09,0.073 0.288,0.271 0.406,0.375 0.236,0.259 0.563,0.6 0.594,0.625 0.004,0.003 0.026,0 0.031,0 0.062,0.05 0.206,0.185 0.281,0.25 0.295,0.324 0.652,0.721 0.688,0.75 0.008,0.007 0.02,0.03 0.031,0.031 0.088,0.071 0.292,0.243 0.406,0.344 0.225,0.247 0.533,0.601 0.563,0.625 0.012,0.01 0.015,0.03 0.031,0.031 0.076,0.061 0.247,0.228 0.344,0.313 0.242,0.265 0.563,0.6 0.594,0.625 0.016,0.013 0.071,0.061 0.094,0.063 0.054,0.044 0.185,0.163 0.25,0.219 0.288,0.316 0.621,0.69 0.656,0.719 0.02,0.016 0.066,0.06 0.094,0.063 0.054,0.043 0.186,0.163 0.25,0.219 0.286,0.315 0.621,0.691 0.656,0.719 0.024,0.02 0.092,0.091 0.125,0.094 0.055,0.044 0.185,0.162 0.25,0.219 0.268,0.294 0.592,0.661 0.625,0.688 0.028,0.023 0.086,0.091 0.125,0.094 0.054,0.044 0.185,0.163 0.25,0.219 0.266,0.293 0.592,0.661 0.625,0.688 0.032,0.026 0.112,0.09 0.156,0.094 0.022,0.018 0.07,0.074 0.094,0.094 0.33,0.364 0.711,0.781 0.75,0.813 0.036,0.029 0.106,0.121 0.156,0.125 0.047,0.038 0.163,0.14 0.219,0.188 0.253,0.278 0.562,0.631 0.594,0.656 0.04,0.033 0.163,0.152 0.219,0.156 0.014,0.012 0.047,0.05 0.063,0.063 0.319,0.351 0.681,0.751 0.719,0.781 0.044,0.036 0.157,0.151 0.219,0.156 0.014,0.012 0.047,0.05 0.063,0.063 0.317,0.349 0.681,0.751 0.719,0.781 0.048,0.039 0.183,0.182 0.25,0.188 0.335,0.369 0.711,0.781 0.75,0.813 0.053,0.042 0.178,0.181 0.25,0.188 0.333,0.367 0.711,0.781 0.75,0.813 0.046,0.037 0.14,0.115 0.219,0.156 0.346,0.381 0.741,0.811 0.781,0.844 0.061,0.049 0.198,0.181 0.281,0.188 -0.668,0.873 -1.165,1.64 -1.25,2.063 -0.455,0.61 -0.108,0.276 -0.563,0.75 -0.127,0.373 -1.125,0.995 -1.125,3.406 -0.804,0 -0.375,4.241 -0.375,5.094 0,3.899 2.815,7.792 4.844,9.844 0.052,0.053 0.159,0.1 0.219,0.156 -1.889,-2.162 -4.03,-5.574 -4.03,-8.969 -0.01,-0.01 -0.031,-0.012 -0.031,-0.031 0,-0.849 -0.425,-5.063 0.375,-5.063 0,-0.004 -0.004,-0.031 0,-0.031 0,-2.399 0.998,-3.035 1.125,-3.406 0.452,-0.472 0.11,-0.143 0.563,-0.75 0.085,-0.423 0.548,-1.188 1.219,-2.063 0.006,0.007 0.025,-0.007 0.031,0 0.01,0.004 0.022,0.031 0.031,0.031 0.3,0.33 0.621,0.721 0.656,0.75 0.062,0.05 0.215,0.184 0.313,0.219 -0.675,0.878 -1.165,1.639 -1.25,2.063 -0.45,0.604 -0.113,0.281 -0.563,0.75 -0.001,0.004 -0.031,0.007 -0.031,0.031 -0.126,0.37 -1.094,0.988 -1.094,3.375 -0.008,0 0,0.023 0,0.031 -0.796,0 -0.375,4.218 -0.375,5.063 0,0.039 0.011,0.073 0.031,0.094 0,3.86 2.804,7.719 4.813,9.75 0.009,0.009 0.019,0.025 0.031,0.031 0.109,0.11 0.267,0.252 0.406,0.375 0.187,0.207 0.385,0.414 0.563,0.594 0.014,0.014 0.044,0.022 0.063,0.031 0.06,0.061 0.149,0.153 0.219,0.219 0.238,0.269 0.464,0.493 0.688,0.719 0.018,0.019 0.069,0.05 0.094,0.063 0.06,0.061 0.149,0.154 0.219,0.219 0.237,0.268 0.465,0.494 0.688,0.719 0.023,0.023 0.094,0.079 0.125,0.094 0.048,0.049 0.133,0.105 0.188,0.156 0.241,0.273 0.461,0.521 0.688,0.75 0.028,0.028 0.088,0.076 0.125,0.094 0.017,0.017 0.045,0.045 0.063,0.063 0.271,0.312 0.559,0.587 0.813,0.844 0.032,0.033 0.112,0.073 0.156,0.094 0.285,0.33 0.578,0.638 0.844,0.906 0.037,0.038 0.106,0.101 0.156,0.125 0.039,0.039 0.113,0.084 0.156,0.125 0.208,0.235 0.428,0.486 0.625,0.688 -0.694,0.268 -1.426,0.5 -2.25,0.5 h -1.5 c -0.295,0 -1.492,-0.75 -2.844,-0.75 -0.441,0 -0.551,0.385 -1.313,0.563 v 0.563 c 0,0.656 -0.375,0.282 -0.375,0.938 v 0.75 c 0,0.148 0.661,1.66 0.813,1.844 0.237,0.286 0.493,0.489 0.813,0.625 0.061,0.121 0.157,0.338 0.188,0.375 h 0.031 c 0.234,0.283 0.465,0.49 0.781,0.625 0.062,0.123 0.157,0.338 0.188,0.375 h 0.063 c 0.219,0.264 0.463,0.459 0.75,0.594 0.068,0.135 0.155,0.367 0.188,0.406 h 0.094 c 0.201,0.243 0.401,0.429 0.656,0.563 -2.67,0.67 -4.817,1.49 -5.313,2.719 h -0.75 c -0.854,0 -2.754,1.952 -3.281,2.594 -0.623,0.757 -1.813,2.727 -1.813,4 -0.135,0.181 -0.271,0.381 -0.406,0.563 -0.07,0.761 -0.149,1.52 -0.219,2.281 -0.034,0.728 1.082,3.127 1.563,3.594 0.385,0.373 2.101,2.151 2.344,2.563 0.792,1.342 2.75,5.231 2.75,7.06 v 1.313 c 0,0.471 -1.851,4.01 -2.188,4.969 -0.923,2.636 -1.219,2.321 -1.219,5.406 v 0.625 c -0.259,-0.284 -0.521,-0.56 -0.781,-0.813 -0.31,-0.348 -0.624,-0.697 -0.938,-1 -0.245,-0.275 -0.502,-0.502 -0.75,-0.75 -0.364,-0.42 -0.724,-0.828 -1.094,-1.188 -0.305,-0.343 -0.629,-0.669 -0.938,-0.969 -0.307,-0.344 -0.628,-0.667 -0.938,-0.969 -0.309,-0.347 -0.626,-0.697 -0.938,-1 -0.31,-0.348 -0.625,-0.664 -0.938,-0.969 -0.995,-1.118 -2.045,-2.038 -2.875,-2.594 -3.203,-0.377 -6.422,-0.748 -9.625,-1.125 -0.132,0.062 -0.242,0.125 -0.375,0.188 -0.009,-0.065 -0.022,-0.122 -0.031,-0.188 -2.547,0.378 -5.107,0.749 -7.656,1.125 -0.207,-0.222 -0.4,-0.429 -0.625,-0.594 -0.306,-0.38 -0.621,-0.742 -0.969,-1 -0.327,-0.408 -0.657,-0.764 -1.031,-1.031 -0.304,-0.372 -0.625,-0.717 -0.969,-0.969 -0.674,-0.831 -1.423,-1.5 -2.313,-1.5 -0.23,0 -0.594,0.385 -0.594,0.75 v 0.375 c 0,0.732 0.378,0.057 0.406,1.344 -0.617,-0.014 -1.642,-0.454 -2.531,-0.969 -0.271,-0.308 -0.552,-0.609 -0.844,-0.813 -0.315,-0.376 -0.621,-0.758 -0.969,-1 -0.258,-0.308 -0.53,-0.584 -0.813,-0.813 -0.621,-0.776 -1.339,-1.5 -2.031,-1.5 -2.484,0 0.025,3.464 -4,0.406 -0.053,-0.04 -0.106,-0.056 -0.156,-0.094 -0.132,-0.198 -0.238,-0.394 -0.313,-0.469 -0.02,-0.005 -0.042,-0.027 -0.063,-0.031 -0.064,-0.063 -0.334,-0.252 -0.5,-0.375 -0.179,-0.264 -0.313,-0.501 -0.406,-0.594 -0.01,-0.002 -0.021,0.003 -0.031,0 -0.066,-0.066 -0.354,-0.244 -0.531,-0.375 -0.179,-0.265 -0.313,-0.501 -0.406,-0.594 -0.542,-0.541 -5.236,-3.545 -6.06,-3.563 l -6.03,-1.344 c -0.883,0.016 -1.773,0.016 -2.656,0.031 -3.151,0 -5.252,1.098 -7.563,1.688 -3.02,0.769 -3.797,1.658 -6.06,3 -3.603,2.134 -6.375,6.02 -6.375,11.75 0,3.961 2.01,6.908 4.219,8.906 0.379,0.416 0.789,0.772 1.188,1.125 0.344,0.37 0.702,0.712 1.063,1.031 0.312,0.335 0.612,0.645 0.938,0.938 0.31,0.339 0.644,0.641 0.969,0.938 0.422,0.471 0.865,0.891 1.313,1.281 0.276,0.292 0.558,0.554 0.844,0.813 0.331,0.365 0.683,0.716 1.031,1.031 0.378,0.418 0.788,0.772 1.188,1.125 0.308,0.333 0.615,0.647 0.938,0.938 0.398,0.438 0.83,0.822 1.25,1.188 0.326,0.345 0.66,0.671 1,0.969 0.339,0.363 0.677,0.72 1.031,1.031 0.286,0.307 0.577,0.606 0.875,0.875 0.403,0.448 0.823,0.848 1.25,1.219 0.263,0.281 0.539,0.533 0.813,0.781 0.412,0.463 0.843,0.869 1.281,1.25 0.332,0.355 0.684,0.666 1.031,0.969 0.34,0.367 0.675,0.719 1.031,1.031 0.312,0.336 0.642,0.647 0.969,0.938 0.353,0.388 0.721,0.735 1.094,1.063 0.308,0.336 0.615,0.648 0.938,0.938 0.391,0.435 0.804,0.796 1.219,1.156 0.333,0.358 0.683,0.695 1.031,1 0.321,0.347 0.632,0.672 0.969,0.969 0.373,0.41 0.763,0.784 1.156,1.125 0.307,0.33 0.617,0.623 0.938,0.906 0.318,0.352 0.633,0.668 0.969,0.969 0.392,0.441 0.832,0.826 1.25,1.188 0.335,0.361 0.68,0.696 1.031,1 0.308,0.334 0.614,0.652 0.938,0.938 0.344,0.381 0.699,0.743 1.063,1.063 0.327,0.36 0.686,0.664 1.031,0.969 0.32,0.356 0.631,0.666 0.969,0.969 0.388,0.439 0.805,0.829 1.219,1.188 0.432,0.468 0.889,0.91 1.344,1.281 0.2,0.204 0.389,0.41 0.594,0.594 0.475,0.537 0.992,1.023 1.5,1.438 0.223,0.228 0.426,0.454 0.656,0.656 0.327,0.367 0.653,0.691 1,1 0.376,0.425 0.787,0.779 1.188,1.125 0.428,0.469 0.86,0.912 1.313,1.281 0.221,0.228 0.428,0.454 0.656,0.656 0.374,0.423 0.757,0.812 1.156,1.156 0.34,0.375 0.703,0.721 1.063,1.031 0.301,0.331 0.62,0.595 0.938,0.875 0.453,0.515 0.921,0.979 1.406,1.375 0.278,0.288 0.555,0.566 0.844,0.813 0.408,0.447 0.818,0.867 1.25,1.219 0.228,0.238 0.451,0.479 0.688,0.688 0.445,0.508 0.928,0.954 1.406,1.344 0.25,0.262 0.49,0.492 0.75,0.719 0.351,0.396 0.72,0.772 1.094,1.094 0.412,0.459 0.843,0.892 1.281,1.25 0.253,0.266 0.487,0.521 0.75,0.75 0.009,0.011 0.022,0.021 0.031,0.031 0.083,0.072 0.166,0.151 0.25,0.219 0.258,0.272 0.512,0.548 0.781,0.781 0.42,0.476 0.863,0.883 1.313,1.25 0.261,0.277 0.509,0.545 0.781,0.781 0.347,0.393 0.723,0.745 1.094,1.063 0.324,0.364 0.655,0.702 1,1 0.01,0.011 0.022,0.02 0.031,0.031 0.074,0.063 0.145,0.127 0.219,0.188 0.253,0.269 0.517,0.52 0.781,0.75 0.351,0.403 0.716,0.77 1.094,1.094 0.403,0.457 0.818,0.867 1.25,1.219 0.288,0.309 0.573,0.586 0.875,0.844 0.389,0.437 0.803,0.849 1.219,1.188 0.263,0.282 0.537,0.543 0.813,0.781 0.348,0.4 0.719,0.775 1.094,1.094 0.01,0.011 0.022,0.021 0.031,0.031 0.05,0.042 0.106,0.084 0.156,0.125 0.282,0.303 0.548,0.592 0.844,0.844 0.318,0.364 0.659,0.674 1,0.969 0.356,0.413 0.741,0.768 1.125,1.094 0.01,0.011 0.022,0.02 0.031,0.031 0.04,0.034 0.085,0.061 0.125,0.094 0.342,0.372 0.671,0.737 1.031,1.031 0.291,0.318 0.599,0.614 0.906,0.875 0.015,0.017 0.016,0.045 0.031,0.063 0.038,0.032 0.087,0.062 0.125,0.094 0.288,0.312 0.572,0.618 0.875,0.875 0.019,0.022 0.044,0.041 0.063,0.063 0.029,0.024 0.065,0.039 0.094,0.063 0.296,0.324 0.594,0.642 0.906,0.906 0.019,0.021 0.044,0.041 0.063,0.063 0.027,0.023 0.067,0.04 0.094,0.063 0.269,0.295 0.528,0.567 0.813,0.813 0.395,0.463 0.822,0.869 1.25,1.219 0.296,0.326 0.624,0.611 0.938,0.875 0.333,0.383 0.673,0.729 1.031,1.031 0.024,0.028 0.038,0.066 0.063,0.094 0.017,0.014 0.046,0.018 0.063,0.031 0.304,0.336 0.615,0.636 0.938,0.906 0.024,0.028 0.038,0.066 0.063,0.094 0.006,0.005 0.025,-0.005 0.031,0 0.312,0.348 0.637,0.66 0.969,0.938 0.024,0.027 0.038,0.067 0.063,0.094 0.006,0.005 0.026,-0.005 0.031,0 0.308,0.344 0.609,0.663 0.938,0.938 0.024,0.028 0.038,0.066 0.063,0.094 0.006,0.005 0.026,-0.005 0.031,0 0.306,0.342 0.643,0.634 0.969,0.906 0.359,0.414 0.738,0.809 1.125,1.125 0.335,0.377 0.673,0.708 1.031,1 0.337,0.381 0.702,0.737 1.063,1.031 0.334,0.378 0.674,0.708 1.031,1 0.34,0.387 0.698,0.734 1.063,1.031 0.329,0.371 0.68,0.713 1.031,1 0.334,0.381 0.673,0.739 1.031,1.031 0.011,0.008 0.02,0.023 0.031,0.031 0.327,0.371 0.681,0.715 1.031,1 0.329,0.375 0.678,0.712 1.031,1 0.334,0.385 0.671,0.738 1.031,1.031 0.012,0.009 0.02,0.023 0.031,0.031 0.326,0.374 0.681,0.683 1.031,0.969 0.328,0.38 0.677,0.742 1.031,1.031 0.012,0.009 0.02,0.023 0.031,0.031 0.01,0.011 0.022,0.02 0.031,0.031 0,0.022 0,0.041 0,0.063 0.036,0.029 0.113,0.092 0.156,0.125 0.265,0.282 0.566,0.524 0.844,0.75 -0.001,0.053 0,0.102 0,0.156 0.089,0.072 0.272,0.188 0.406,0.281 0.208,0.209 0.411,0.419 0.625,0.594 -0.001,0.063 0,0.124 0,0.188 0.11,0.09 0.323,0.224 0.5,0.344 0.177,0.171 0.351,0.322 0.531,0.469 0.005,0.006 -0.005,0.025 0,0.031 -0.001,0.064 0,0.122 0,0.188 0.14,0.114 0.382,0.278 0.625,0.438 0.133,0.125 0.271,0.232 0.406,0.344 -0.003,0.085 -0.031,0.163 -0.031,0.25 0.204,0.166 0.535,0.407 0.938,0.656 0.043,0.037 0.082,0.089 0.125,0.125 -0.003,0.094 -0.031,0.185 -0.031,0.281 0.206,0.168 0.531,0.373 0.938,0.625 0.029,0.025 0.065,0.038 0.094,0.063 -0.005,0.117 -0.031,0.223 -0.031,0.344 0.22,0.18 0.618,0.415 1.063,0.688 -0.005,0.116 -0.031,0.225 -0.031,0.344 0.219,0.178 0.593,0.418 1.031,0.688 -0.006,0.124 0,0.247 0,0.375 0.221,0.18 0.588,0.415 1.031,0.688 -0.005,0.117 -0.031,0.223 -0.031,0.344 0.223,0.182 0.616,0.444 1.063,0.719 -0.004,0.105 -0.031,0.204 -0.031,0.313 0.219,0.179 0.596,0.419 1.031,0.688 -0.006,0.124 -0.031,0.247 -0.031,0.375 0.221,0.181 0.623,0.416 1.063,0.688 -0.005,0.117 -0.031,0.223 -0.031,0.344 0.225,0.184 0.583,0.442 1.031,0.719 -0.004,0.105 0,0.204 0,0.313 0.225,0.184 0.584,0.443 1.031,0.719 -0.005,0.114 -0.031,0.226 -0.031,0.344 0.227,0.185 0.612,0.409 1.063,0.688 -0.006,0.117 -0.031,0.223 -0.031,0.344 0.225,0.184 0.586,0.443 1.031,0.719 -0.005,0.105 0,0.204 0,0.313 0.227,0.186 0.582,0.441 1.031,0.719 -0.006,0.114 -0.031,0.226 -0.031,0.344 0.225,0.183 0.59,0.445 1.031,0.719 -0.005,0.106 0,0.203 0,0.313 0.224,0.182 0.595,0.447 1.031,0.719 -0.005,0.105 -0.031,0.204 -0.031,0.313 0.226,0.184 0.622,0.444 1.063,0.719 -0.006,0.114 -0.031,0.226 -0.031,0.344 0.223,0.182 0.599,0.448 1.031,0.719 -0.005,0.106 0,0.203 0,0.313 0.225,0.183 0.595,0.446 1.031,0.719 -0.005,0.109 -0.031,0.2 -0.031,0.313 0.227,0.185 0.591,0.475 1.031,0.75 -0.005,0.103 0,0.206 0,0.313 0.229,0.186 0.588,0.442 1.031,0.719 -0.005,0.106 0,0.203 0,0.313 0.227,0.185 0.593,0.444 1.031,0.719 -0.006,0.115 -0.031,0.224 -0.031,0.344 0.225,0.183 0.601,0.417 1.031,0.688 -0.006,0.113 0,0.226 0,0.344 0.227,0.185 0.597,0.445 1.031,0.719 -0.005,0.106 -0.031,0.202 -0.031,0.313 0.224,0.183 0.604,0.449 1.031,0.719 -0.006,0.115 0,0.225 0,0.344 0.226,0.184 0.601,0.447 1.031,0.719 -0.005,0.103 0,0.206 0,0.313 0.225,0.184 0.605,0.449 1.031,0.719 -0.006,0.106 -0.031,0.202 -0.031,0.313 0.223,0.182 0.612,0.453 1.031,0.719 -0.007,0.115 0,0.225 0,0.344 0.224,0.183 0.609,0.451 1.031,0.719 -0.006,0.103 -0.031,0.205 -0.031,0.313 0.219,0.179 0.624,0.428 1.031,0.688 -0.007,0.116 0,0.223 0,0.344 0.228,0.186 0.601,0.477 1.031,0.75 -0.006,0.104 0,0.204 0,0.313 0.229,0.187 0.599,0.445 1.031,0.719 -0.006,0.103 -0.031,0.205 -0.031,0.313 0.224,0.183 0.613,0.452 1.031,0.719 -0.006,0.106 0,0.202 0,0.313 0.231,0.188 0.63,0.444 1.063,0.719 -10e-4,0.01 0.001,0.021 0,0.031 1.203,-0.12 2.397,-0.267 3.594,-0.406 0.593,-0.069 1.19,-0.114 1.781,-0.188 0.167,-0.021 0.333,-0.041 0.5,-0.063 3.211,-0.408 6.397,-0.892 9.563,-1.438 0.187,-0.032 0.375,-0.061 0.563,-0.094 0.24,-0.042 0.479,-0.082 0.719,-0.125 1.515,-0.271 3.03,-0.573 4.531,-0.875 1.138,-0.228 2.275,-0.473 3.406,-0.719 0.604,-0.131 1.211,-0.239 1.813,-0.375 0.313,-0.071 0.625,-0.147 0.938,-0.219 1.411,-0.326 2.819,-0.678 4.219,-1.031 1.711,-0.431 3.399,-0.873 5.094,-1.344 1.695,-0.471 3.385,-0.958 5.063,-1.469 0.01,-0.003 0.022,0.003 0.031,0 40.674,-12.383 76.33,-36.31 103.16,-67.938 0.825,-0.973 1.629,-1.95 2.438,-2.938 0.809,-0.987 1.615,-1.998 2.406,-3 0.792,-1 1.569,-1.984 2.344,-3 1.549,-2.031 3.084,-4.101 4.563,-6.188 0.739,-1.043 1.466,-2.1 2.188,-3.156 0.721,-1.057 1.422,-2.118 2.125,-3.188 0.703,-1.07 1.409,-2.136 2.094,-3.219 0.692,-1.095 1.389,-2.205 2.063,-3.313 0.658,-1.083 1.298,-2.186 1.938,-3.281 0.25,-0.427 0.503,-0.852 0.75,-1.281 0.394,-0.685 0.77,-1.373 1.156,-2.063 1.257,-2.241 2.477,-4.493 3.656,-6.781 0.374,-0.725 0.728,-1.457 1.094,-2.188 0.211,-0.421 0.448,-0.827 0.656,-1.25 0.286,-0.58 0.563,-1.167 0.844,-1.75 0.278,-0.576 0.54,-1.171 0.813,-1.75 0.486,-1.032 0.967,-2.053 1.438,-3.094 0.061,-0.136 0.126,-0.27 0.188,-0.406 0.53,-1.178 1.053,-2.373 1.563,-3.563 0.451,-1.053 0.877,-2.126 1.313,-3.188 0.057,-0.138 0.131,-0.268 0.188,-0.406 0.304,-0.746 0.61,-1.499 0.906,-2.25 0.18,-0.456 0.354,-0.917 0.531,-1.375 0.468,-1.211 0.928,-2.404 1.375,-3.625 0.448,-1.223 0.886,-2.455 1.313,-3.688 0.158,-0.456 0.314,-0.918 0.469,-1.375 0.265,-0.782 0.525,-1.558 0.781,-2.344 0.299,-0.917 0.588,-1.827 0.875,-2.75 0.276,-0.888 0.547,-1.795 0.813,-2.688 0.53,-1.784 1.046,-3.572 1.531,-5.375 0.042,-0.156 0.083,-0.312 0.125,-0.469 0.031,-0.115 0.063,-0.229 0.094,-0.344 0.306,-1.155 0.587,-2.306 0.875,-3.469 0.273,-1.102 0.557,-2.204 0.813,-3.313 0.041,-0.176 0.085,-0.355 0.125,-0.531 0.364,-1.596 0.702,-3.204 1.031,-4.813 0.279,-1.364 0.528,-2.721 0.781,-4.094 0.172,-0.933 0.339,-1.875 0.5,-2.813 0.354,-2.065 0.673,-4.134 0.969,-6.219 0.08,-0.565 0.174,-1.121 0.25,-1.688 -0.043,-0.024 -0.08,-0.043 -0.125,-0.063 -0.243,-0.443 -0.55,-0.812 -0.969,-1 -0.242,-0.437 -0.558,-0.777 -0.969,-0.969 -0.249,-0.449 -0.575,-0.807 -1,-1 -0.25,-0.438 -0.551,-0.777 -0.969,-0.969 -0.252,-0.447 -0.546,-0.801 -0.969,-1 -0.253,-0.441 -0.55,-0.801 -0.969,-1 -0.249,-0.426 -0.564,-0.769 -0.969,-0.969 -0.255,-0.441 -0.553,-0.794 -0.969,-1 -0.245,-0.415 -0.549,-0.762 -0.938,-0.969 -0.25,-0.427 -0.57,-0.789 -0.969,-1 -0.257,-0.435 -0.591,-0.788 -1,-1 -0.253,-0.418 -0.574,-0.758 -0.969,-0.969 -0.253,-0.418 -0.576,-0.755 -0.969,-0.969 -0.259,-0.433 -0.564,-0.78 -0.969,-1 -0.254,-0.419 -0.577,-0.78 -0.969,-1 -0.255,-0.413 -0.581,-0.75 -0.969,-0.969 -0.265,-0.434 -0.592,-0.775 -1,-1 -0.261,-0.418 -0.574,-0.778 -0.969,-1 -0.255,-0.402 -0.558,-0.748 -0.938,-0.969 -0.267,-0.431 -0.595,-0.77 -1,-1 -0.261,-0.411 -0.58,-0.774 -0.969,-1 -0.262,-0.406 -0.583,-0.775 -0.969,-1 -0.264,-0.41 -0.579,-0.741 -0.969,-0.969 -0.268,-0.416 -0.605,-0.77 -1,-1 -0.267,-0.404 -0.581,-0.773 -0.969,-1 -0.27,-0.409 -0.576,-0.739 -0.969,-0.969 -0.265,-0.402 -0.587,-0.737 -0.969,-0.969 -0.268,-0.407 -0.583,-0.766 -0.969,-1 -0.271,-0.411 -0.578,-0.732 -0.969,-0.969 -0.266,-0.403 -0.59,-0.73 -0.969,-0.969 -0.269,-0.408 -0.585,-0.759 -0.969,-1 -0.286,-0.434 -0.616,-0.785 -1.031,-1.031 -0.257,-0.372 -0.552,-0.676 -0.906,-0.906 -0.008,-0.012 -0.023,-0.019 -0.031,-0.031 -0.012,-0.007 -0.019,-0.024 -0.031,-0.031 -0.255,-0.371 -0.525,-0.705 -0.875,-0.938 -0.264,-0.4 -0.6,-0.72 -0.969,-0.969 -0.008,-0.012 -0.023,-0.019 -0.031,-0.031 -0.025,-0.016 -0.037,-0.047 -0.063,-0.063 -0.247,-0.352 -0.543,-0.648 -0.875,-0.875 -0.265,-0.402 -0.6,-0.747 -0.969,-1 -0.3,-0.454 -0.662,-0.832 -1.094,-1.094 -0.242,-0.339 -0.523,-0.619 -0.844,-0.844 -0.266,-0.404 -0.602,-0.742 -0.969,-1 -0.287,-0.434 -0.628,-0.797 -1.031,-1.063 -0.251,-0.361 -0.572,-0.666 -0.906,-0.906 -0.268,-0.406 -0.602,-0.705 -0.969,-0.969 -0.296,-0.449 -0.645,-0.819 -1.063,-1.094 -0.246,-0.349 -0.552,-0.637 -0.875,-0.875 -0.285,-0.432 -0.638,-0.756 -1.031,-1.031 -0.286,-0.417 -0.61,-0.767 -1,-1.031 -0.265,-0.375 -0.586,-0.688 -0.938,-0.938 -0.279,-0.407 -0.592,-0.734 -0.969,-1 -0.283,-0.408 -0.619,-0.735 -1,-1 -0.274,-0.39 -0.605,-0.71 -0.969,-0.969 -0.288,-0.412 -0.613,-0.763 -1,-1.031 -0.282,-0.394 -0.594,-0.71 -0.969,-0.969 -0.273,-0.381 -0.579,-0.712 -0.938,-0.969 -0.286,-0.406 -0.62,-0.731 -1,-1 -0.284,-0.397 -0.593,-0.736 -0.969,-1 -0.278,-0.385 -0.605,-0.708 -0.969,-0.969 -0.284,-0.397 -0.595,-0.733 -0.969,-1 -0.298,-0.414 -0.635,-0.76 -1.031,-1.031 -0.268,-0.358 -0.564,-0.657 -0.906,-0.906 -0.273,-0.382 -0.584,-0.703 -0.938,-0.969 -0.296,-0.416 -0.641,-0.784 -1.031,-1.063 -0.261,-0.351 -0.575,-0.656 -0.906,-0.906 -0.294,-0.413 -0.645,-0.751 -1.031,-1.031 -0.287,-0.391 -0.598,-0.732 -0.969,-1 -0.271,-0.367 -0.593,-0.678 -0.938,-0.938 -0.291,-0.403 -0.623,-0.754 -1,-1.031 -0.292,-0.395 -0.624,-0.728 -1,-1 -0.276,-0.368 -0.587,-0.708 -0.938,-0.969 -0.285,-0.386 -0.605,-0.698 -0.969,-0.969 -0.284,-0.385 -0.606,-0.728 -0.969,-1 -0.284,-0.382 -0.64,-0.698 -1,-0.969 -0.28,-0.376 -0.584,-0.7 -0.938,-0.969 -0.296,-0.402 -0.622,-0.75 -1,-1.031 -0.275,-0.365 -0.593,-0.674 -0.938,-0.938 -0.285,-0.388 -0.608,-0.722 -0.969,-1 -0.289,-0.39 -0.634,-0.722 -1,-1 -0.278,-0.37 -0.59,-0.699 -0.938,-0.969 -0.299,-0.403 -0.651,-0.746 -1.031,-1.031 -0.298,-0.393 -0.623,-0.721 -1,-1 -0.272,-0.353 -0.571,-0.677 -0.906,-0.938 -0.302,-0.404 -0.649,-0.744 -1.031,-1.031 -0.281,-0.365 -0.589,-0.67 -0.938,-0.938 -0.29,-0.384 -0.606,-0.721 -0.969,-1 -0.305,-0.402 -0.647,-0.745 -1.031,-1.031 -0.288,-0.368 -0.582,-0.7 -0.938,-0.969 -0.282,-0.365 -0.59,-0.699 -0.938,-0.969 -0.275,-0.359 -0.6,-0.669 -0.938,-0.938 -0.301,-0.399 -0.655,-0.741 -1.031,-1.031 -0.291,-0.375 -0.61,-0.724 -0.969,-1 -0.289,-0.374 -0.613,-0.693 -0.969,-0.969 -0.284,-0.366 -0.621,-0.695 -0.969,-0.969 -0.292,-0.379 -0.609,-0.719 -0.969,-1 -0.297,-0.385 -0.633,-0.716 -1,-1 -0.304,-0.39 -0.624,-0.745 -1,-1.031 -0.284,-0.357 -0.592,-0.669 -0.938,-0.938 -0.289,-0.371 -0.616,-0.69 -0.969,-0.969 -0.284,-0.365 -0.592,-0.693 -0.938,-0.969 -0.306,-0.398 -0.653,-0.738 -1.031,-1.031 -0.286,-0.362 -0.591,-0.695 -0.938,-0.969 -0.302,-0.387 -0.631,-0.712 -1,-1 -0.283,-0.358 -0.596,-0.696 -0.938,-0.969 -0.287,-0.367 -0.622,-0.658 -0.969,-0.938 -0.297,-0.383 -0.608,-0.742 -0.969,-1.031 -0.302,-0.386 -0.632,-0.741 -1,-1.031 -0.282,-0.354 -0.599,-0.665 -0.938,-0.938 -0.302,-0.386 -0.664,-0.709 -1.031,-1 -0.299,-0.376 -0.607,-0.715 -0.969,-1 -0.296,-0.371 -0.612,-0.718 -0.969,-1 -0.303,-0.38 -0.633,-0.713 -1,-1 -0.291,-0.36 -0.589,-0.693 -0.938,-0.969 -0.304,-0.38 -0.633,-0.711 -1,-1 -0.275,-0.34 -0.58,-0.64 -0.906,-0.906 -0.304,-0.386 -0.634,-0.737 -1,-1.031 -0.294,-0.367 -0.617,-0.717 -0.969,-1 -0.299,-0.373 -0.642,-0.682 -1,-0.969 -0.293,-0.363 -0.588,-0.719 -0.938,-1 -0.278,-0.347 -0.609,-0.633 -0.938,-0.906 -0.301,-0.382 -0.639,-0.736 -1,-1.031 -0.3,-0.376 -0.641,-0.709 -1,-1 -0.288,-0.358 -0.596,-0.688 -0.938,-0.969 -0.321,-0.402 -0.676,-0.757 -1.063,-1.063 -0.269,-0.327 -0.561,-0.613 -0.875,-0.875 -0.312,-0.394 -0.657,-0.727 -1.031,-1.031 -0.303,-0.374 -0.609,-0.74 -0.969,-1.031 -0.299,-0.366 -0.615,-0.683 -0.969,-0.969 -0.297,-0.365 -0.618,-0.683 -0.969,-0.969 -0.287,-0.354 -0.6,-0.656 -0.938,-0.938 -0.296,-0.369 -0.619,-0.709 -0.969,-1 -0.307,-0.383 -0.636,-0.732 -1,-1.031 -0.302,-0.37 -0.644,-0.678 -1,-0.969 -0.3,-0.366 -0.615,-0.712 -0.969,-1 -0.28,-0.342 -0.58,-0.663 -0.906,-0.938 -0.299,-0.371 -0.648,-0.706 -1,-1 -0.306,-0.377 -0.639,-0.734 -1,-1.031 -0.295,-0.357 -0.624,-0.685 -0.969,-0.969 -0.318,-0.39 -0.654,-0.727 -1.031,-1.031 -0.289,-0.346 -0.57,-0.661 -0.906,-0.938 -0.306,-0.374 -0.641,-0.704 -1,-1 -0.3,-0.364 -0.618,-0.711 -0.969,-1 -0.3,-0.363 -0.618,-0.68 -0.969,-0.969 -0.301,-0.365 -0.617,-0.709 -0.969,-1 -0.302,-0.365 -0.617,-0.678 -0.969,-0.969 -1.216,-1.471 -2.825,-2.406 -4.938,-2.406 -4.512,0 -7.963,3.908 -8.313,8.125 -0.192,2.314 -0.355,4.758 -0.563,7.531 -0.166,2.217 0.15,5.473 -0.281,7.844 -0.117,0.646 -0.142,1.164 -0.156,1.656 -0.048,-0.043 -0.112,-0.121 -0.156,-0.156 -0.027,-0.022 -0.118,-0.067 -0.156,-0.094 -0.301,-0.37 -0.605,-0.72 -0.844,-0.906 -0.024,-0.019 -0.092,-0.071 -0.125,-0.094 -0.304,-0.375 -0.634,-0.718 -0.875,-0.906 -0.024,-0.019 -0.092,-0.071 -0.125,-0.094 -0.304,-0.375 -0.603,-0.687 -0.844,-0.875 -0.027,-0.022 -0.118,-0.067 -0.156,-0.094 -0.309,-0.383 -0.599,-0.715 -0.844,-0.906 -0.027,-0.022 -0.118,-0.067 -0.156,-0.094 -0.309,-0.383 -0.599,-0.715 -0.844,-0.906 -0.038,-0.03 -0.16,-0.085 -0.219,-0.125 -0.29,-0.354 -0.551,-0.695 -0.781,-0.875 -0.027,-0.022 -0.118,-0.067 -0.156,-0.094 -0.301,-0.37 -0.605,-0.72 -0.844,-0.906 -0.028,-0.022 -0.117,-0.066 -0.156,-0.094 -0.301,-0.37 -0.605,-0.72 -0.844,-0.906 -0.024,-0.019 -0.092,-0.071 -0.125,-0.094 -0.304,-0.375 -0.603,-0.687 -0.844,-0.875 -0.027,-0.022 -0.118,-0.067 -0.156,-0.094 -0.309,-0.383 -0.599,-0.715 -0.844,-0.906 -0.027,-0.022 -0.118,-0.067 -0.156,-0.094 -0.309,-0.383 -0.599,-0.715 -0.844,-0.906 -0.034,-0.027 -0.137,-0.09 -0.188,-0.125 -0.296,-0.363 -0.578,-0.691 -0.813,-0.875 -0.027,-0.022 -0.118,-0.067 -0.156,-0.094 -0.301,-0.37 -0.605,-0.72 -0.844,-0.906 -0.028,-0.022 -0.117,-0.066 -0.156,-0.094 -0.301,-0.37 -0.605,-0.72 -0.844,-0.906 -0.024,-0.019 -0.092,-0.071 -0.125,-0.094 -0.304,-0.375 -0.603,-0.687 -0.844,-0.875 -0.027,-0.022 -0.118,-0.067 -0.156,-0.094 -0.309,-0.383 -0.599,-0.715 -0.844,-0.906 -0.027,-0.022 -0.118,-0.067 -0.156,-0.094 -0.309,-0.383 -0.599,-0.715 -0.844,-0.906 -0.027,-0.022 -0.118,-0.067 -0.156,-0.094 -0.309,-0.383 -0.599,-0.715 -0.844,-0.906 -0.027,-0.022 -0.118,-0.067 -0.156,-0.094 -0.301,-0.37 -0.605,-0.72 -0.844,-0.906 -0.027,-0.022 -0.118,-0.067 -0.156,-0.094 -0.301,-0.37 -0.605,-0.72 -0.844,-0.906 -0.024,-0.019 -0.092,-0.071 -0.125,-0.094 -0.304,-0.375 -0.634,-0.718 -0.875,-0.906 -0.024,-0.019 -0.092,-0.071 -0.125,-0.094 -0.304,-0.375 -0.603,-0.687 -0.844,-0.875 -0.027,-0.022 -0.118,-0.067 -0.156,-0.094 -0.309,-0.383 -0.599,-0.715 -0.844,-0.906 -0.027,-0.022 -0.118,-0.067 -0.156,-0.094 -0.309,-0.383 -0.599,-0.715 -0.844,-0.906 -0.027,-0.022 -0.118,-0.067 -0.156,-0.094 -0.301,-0.37 -0.605,-0.72 -0.844,-0.906 -0.027,-0.022 -0.118,-0.067 -0.156,-0.094 -0.301,-0.37 -0.605,-0.72 -0.844,-0.906 -0.024,-0.019 -0.092,-0.071 -0.125,-0.094 -0.304,-0.375 -0.634,-0.718 -0.875,-0.906 -0.024,-0.019 -0.092,-0.071 -0.125,-0.094 -0.304,-0.375 -0.603,-0.687 -0.844,-0.875 -0.027,-0.022 -0.118,-0.067 -0.156,-0.094 -0.309,-0.383 -0.599,-0.715 -0.844,-0.906 -0.027,-0.022 -0.118,-0.067 -0.156,-0.094 -0.309,-0.383 -0.599,-0.715 -0.844,-0.906 -0.038,-0.03 -0.16,-0.085 -0.219,-0.125 -0.29,-0.354 -0.551,-0.695 -0.781,-0.875 -0.027,-0.022 -0.118,-0.067 -0.156,-0.094 -0.301,-0.37 -0.605,-0.72 -0.844,-0.906 -0.028,-0.022 -0.117,-0.066 -0.156,-0.094 -0.301,-0.37 -0.605,-0.72 -0.844,-0.906 -0.024,-0.019 -0.092,-0.071 -0.125,-0.094 -0.304,-0.375 -0.603,-0.687 -0.844,-0.875 -0.027,-0.022 -0.118,-0.067 -0.156,-0.094 -0.309,-0.383 -0.599,-0.715 -0.844,-0.906 -0.027,-0.022 -0.118,-0.067 -0.156,-0.094 -0.309,-0.383 -0.599,-0.715 -0.844,-0.906 -0.034,-0.027 -0.137,-0.09 -0.188,-0.125 -0.296,-0.363 -0.578,-0.691 -0.813,-0.875 -0.027,-0.022 -0.118,-0.067 -0.156,-0.094 -0.301,-0.37 -0.605,-0.72 -0.844,-0.906 -0.028,-0.022 -0.117,-0.066 -0.156,-0.094 -0.301,-0.37 -0.605,-0.72 -0.844,-0.906 -0.024,-0.019 -0.092,-0.071 -0.125,-0.094 -0.304,-0.375 -0.603,-0.687 -0.844,-0.875 -0.027,-0.022 -0.118,-0.067 -0.156,-0.094 -0.309,-0.383 -0.599,-0.715 -0.844,-0.906 -0.027,-0.022 -0.118,-0.067 -0.156,-0.094 -0.309,-0.383 -0.599,-0.715 -0.844,-0.906 -0.027,-0.022 -0.118,-0.067 -0.156,-0.094 -0.309,-0.383 -0.599,-0.715 -0.844,-0.906 -0.518,-0.405 -3.136,-1.844 -3.813,-1.844 h -4.531 m -55.719,16.406 c -4.543,0 -9.06,4.354 -9.06,9.06 0,4.04 2.577,10.11 3.625,13.563 0.59,1.944 4.688,11.04 4.688,12.313 0.924,0.619 2.469,7.517 2.469,9.438 0.234,0.157 0.64,0.664 1,1 0,-1.921 -1.545,-8.819 -2.469,-9.438 0,-1.27 -4.098,-10.368 -4.688,-12.313 -1.048,-3.455 -3.625,-9.523 -3.625,-13.563 0,-4.708 4.52,-9.06 9.06,-9.06 h 1.906 c 1.994,0 4.926,1.152 6.219,1.906 0.924,0.539 1.454,0.877 1.844,1.156 -0.468,-0.643 -0.77,-0.947 -2.844,-2.156 -1.292,-0.754 -4.225,-1.906 -6.219,-1.906 h -1.906 m 53.906,47.688 c 0.359,0.149 0.765,0.431 1.188,0.719 -0.313,-0.196 -0.7,-0.434 -1.188,-0.719 m 1,1 c 0.924,0.539 1.454,0.877 1.844,1.156 -0.189,-0.26 -0.361,-0.487 -0.625,-0.719 1.081,0.869 1.444,1.427 -1.219,-0.438 m 1.625,1.281 c 2.519,-0.133 8.13,2.266 6.438,6.313 1.022,0.648 1.319,0.985 1.656,1.438 -0.385,-0.265 -0.949,-0.608 -1.781,-1.094 0.059,-0.116 0.077,-0.23 0.125,-0.344 -0.305,-0.194 -0.667,-0.389 -1.125,-0.656 -7.34,-3.829 -7.326,-5.55 -5.313,-5.656 m -58.34,14.375 c -0.144,0 -0.159,0.063 -0.344,0.063 l 0.344,-0.063 m 22.438,17.25 c 0.261,0.291 0.529,0.57 0.813,0.813 0.054,0.062 0.102,0.127 0.156,0.188 -0.484,0.557 -0.875,1.135 -0.875,1.344 0,1.233 0.518,3.091 1.344,5.094 -0.196,-0.239 -0.428,-0.53 -0.531,-0.625 -0.117,-0.108 -0.257,-0.246 -0.438,-0.375 -0.828,-2.01 -1.375,-3.859 -1.375,-5.094 0,-0.209 0.42,-0.786 0.906,-1.344 m -2.938,83 c 0.021,0.011 0.041,0.021 0.063,0.031 0.068,0.136 0.155,0.367 0.188,0.406 h 0.125 c 0.188,0.228 0.39,0.401 0.625,0.531 -2.692,0.668 -4.846,1.518 -5.344,2.75 h -0.031 -0.719 c -0.009,0 -0.026,0.025 -0.031,0.031 -0.846,0 -2.728,1.927 -3.25,2.563 -0.006,0.008 -0.031,0.019 -0.031,0.031 -0.616,0.75 -1.781,2.708 -1.781,3.969 -0.134,0.179 -0.273,0.383 -0.406,0.563 -0.069,0.753 -0.15,1.528 -0.219,2.281 0,0.007 -0.005,0.027 0,0.031 -0.033,0.721 1.087,3.1 1.563,3.563 -0.398,-0.419 -0.847,-0.851 -1,-1 -0.478,-0.464 -1.596,-2.87 -1.563,-3.594 0.069,-0.757 0.149,-1.524 0.219,-2.281 0.134,-0.18 0.272,-0.382 0.406,-0.563 0,-1.267 1.193,-3.247 1.813,-4 0.525,-0.639 2.4,-2.594 3.25,-2.594 0.003,-0.003 0.027,0 0.031,0 h 0.75 c 0.497,-1.232 2.656,-2.049 5.344,-2.719 m -8.313,17.781 c 0.6,0.631 1.26,1.284 1.406,1.531 0.008,0.013 0.031,0.044 0.031,0.063 0.784,1.329 2.719,5.187 2.719,7 v 1.313 c 0,0.005 -0.028,0.022 -0.031,0.031 0,0.466 -1.823,3.985 -2.156,4.938 -0.009,0.026 -0.031,10e-4 -0.031,0.031 -0.914,2.61 -1.188,2.321 -1.188,5.375 v 0.031 0.688 c -0.246,-0.274 -0.502,-0.535 -0.75,-0.781 -0.083,-0.096 -0.166,-0.188 -0.25,-0.281 v -0.656 c 0,-3.07 0.3,-2.752 1.219,-5.375 0,-0.015 -0.005,-0.018 0,-0.031 0.335,-0.957 2.156,-4.469 2.156,-4.938 0.002,-0.005 0.031,-0.029 0.031,-0.031 v -1.313 c 0,-1.822 -1.962,-5.696 -2.75,-7.03 0,-0.009 0.004,-0.024 0,-0.031 -0.06,-0.102 -0.206,-0.302 -0.406,-0.531"
         inkscape:connector-curvature="0"
         transform="translate(0,540.36)"
         id="path10"
         style="fill-opacity:0.23500001" />
      <path
         d="m 256,541.36 c -140.83,0 -255,114.17 -255,255 0,140.83 114.17,255 255,255 140.83,0 255,-114.17 255,-255 0,-140.83 -114.17,-255 -255,-255 m 8.827,44.931 c 120.9,0 218.9,98 218.9,218.9 0,120.9 -98,218.9 -218.9,218.9 -120.9,0 -218.93,-98 -218.93,-218.9 0,-120.9 98.03,-218.9 218.93,-218.9"
         inkscape:connector-curvature="0"
         id="path12"
         style="fill-opacity:0.06700003" />
      <g
         id="g14"
         style="fill-opacity:0.12900002">
        <path
           d="M 256,544.79 C 117.06,544.79 4.43,657.42 4.43,796.36 4.43,935.3 117.06,1047.93 256,1047.93 394.94,1047.93 507.57,935.3 507.57,796.36 507.57,657.42 394.94,544.79 256,544.79 m 5.885,38.556 c 120.9,0 218.9,98 218.9,218.9 0,120.9 -98,218.9 -218.9,218.9 -120.9,0 -218.93,-98 -218.93,-218.9 0,-120.9 98.03,-218.9 218.93,-218.9"
           inkscape:connector-curvature="0"
           id="path16" />
        <path
           d="M 256,548.72 C 119.23,548.72 8.36,659.59 8.36,796.36 8.36,933.13 119.23,1044 256,1044 392.77,1044 503.64,933.13 503.64,796.36 503.64,659.59 392.77,548.72 256,548.72 m 2.942,31.691 c 120.9,0 218.9,98 218.9,218.9 0,120.9 -98,218.9 -218.9,218.9 -120.9,0 -218.93,-98 -218.93,-218.9 0,-120.9 98.03,-218.9 218.93,-218.9"
           inkscape:connector-curvature="0"
           id="path18" />
      </g>
      <path
         d="M 253.04,548.22 C 117.62,548.22 7.85,658 7.85,793.41 c 0,135.42 109.78,245.19 245.19,245.19 135.42,0 245.19,-109.78 245.19,-245.19 0,-135.42 -109.78,-245.19 -245.19,-245.19 z m 0,26.297 c 120.9,0 218.9,98 218.9,218.9 0,120.9 -98,218.9 -218.9,218.9 -120.9,0 -218.93,-98 -218.93,-218.9 0,-120.9 98.03,-218.9 218.93,-218.9 z"
         inkscape:connector-curvature="0"
         id="path20"
         style="fill:#ffffff;stroke:#000000;stroke-width:4.90399981;stroke-opacity:0.31000001" />
    </g>
    <text
       x="729.64001"
       y="771.71997"
       id="text22"
       style="font-size:129.22999573px;line-height:125%;letter-spacing:0;word-spacing:0;font-family:Gentium Book Basic">
      <tspan
         x="729.64001"
         y="771.71997"
         id="tspan24" />
    </text>
    <text
       x="378.91"
       y="2747.6399"
       transform="scale(4.0128,0.2492)"
       id="text26"
       style="font-size:46.95399857px;text-anchor:middle;font-family:Arial" />
    <text
       x="1310.91"
       y="691.71997"
       id="text28"
       style="font-size:129.22999573px;line-height:125%;letter-spacing:0;word-spacing:0;font-family:Gentium Book Basic">
      <tspan
         x="1310.91"
         y="691.71997"
         id="tspan30" />
    </text>
    <text
       x="523.76001"
       y="2426.6001"
       transform="scale(4.0128,0.2492)"
       id="text32"
       style="font-size:46.95399857px;text-anchor:middle;font-family:Arial" />
    <text
       x="239.33"
       y="510.45999"
       id="text34"
       style="font-size:129.22999573px;line-height:125%;letter-spacing:0;word-spacing:0;font-family:Gentium Book Basic">
      <tspan
         x="239.33"
         y="510.45999"
         id="tspan36" />
    </text>
    <text
       x="256.72"
       y="1699.25"
       transform="scale(4.0128,0.2492)"
       id="text38"
       style="font-size:46.95399857px;text-anchor:middle;font-family:Arial" />
    <text
       x="1337.38"
       y="293.98999"
       id="text40"
       style="font-size:129.22999573px;line-height:125%;letter-spacing:0;word-spacing:0;font-family:Gentium Book Basic">
      <tspan
         x="1337.38"
         y="293.98999"
         id="tspan42" />
    </text>
    <text
       x="530.35999"
       y="830.57001"
       transform="scale(4.0128,0.2492)"
       id="text44"
       style="font-size:46.95399857px;text-anchor:middle;font-family:Arial" />
    <text
       x="1918.65"
       y="213.99001"
       id="text46"
       style="font-size:129.22999573px;line-height:125%;letter-spacing:0;word-spacing:0;font-family:Gentium Book Basic">
      <tspan
         x="1918.65"
         y="213.99001"
         id="tspan48" />
    </text>
    <text
       x="675.21002"
       y="509.54001"
       transform="scale(4.0128,0.2492)"
       id="text50"
       style="font-size:46.95399857px;text-anchor:middle;font-family:Arial" />
    <text
       x="1529.53"
       y="-258.41"
       id="text52"
       style="font-size:129.22999573px;line-height:125%;letter-spacing:0;word-spacing:0;font-family:Gentium Book Basic">
      <tspan
         x="1529.53"
         y="-258.41"
         id="tspan54" />
    </text>
    <text
       x="578.23999"
       y="-1386.12"
       transform="scale(4.0128,0.2492)"
       id="text56"
       style="font-size:46.95399857px;text-anchor:middle;font-family:Arial" />
    <text
       x="2110.79"
       y="-338.42001"
       id="text58"
       style="font-size:129.22999573px;line-height:125%;letter-spacing:0;word-spacing:0;font-family:Gentium Book Basic">
      <tspan
         x="2110.79"
         y="-338.42001"
         id="tspan60" />
    </text>
    <text
       x="723.09003"
       y="-1707.16"
       transform="scale(4.0128,0.2492)"
       id="text62"
       style="font-size:46.95399857px;text-anchor:middle;font-family:Arial" />
    <text
       x="277.98999"
       y="1076.3"
       id="text64"
       style="font-size:208.33000183px;line-height:125%;letter-spacing:0;word-spacing:0;font-family:Gentium Book Basic">
      <tspan
         x="277.98999"
         y="1076.3"
         id="tspan66" />
    </text>
    <path
       d="m 84.53,204.92 c -0.018,0.006 -0.035,0.012 -0.053,0.018 0.175,0.153 2.636,1.555 2.765,1.555 0.144,0 0.288,0 0.432,0 -0.085,-1.015 -0.691,-2.557 -0.691,-3.283 0,-1.202 0.762,-5.39 1.383,-5.615 0,-0.643 0.95,-2.114 1.255,-2.72 0.26,-0.518 1.136,-2.291 1.683,-2.291 0.029,0 0.058,0 0.087,0 0.199,0 0.259,0.06 0.259,0.259 0,0.029 0,0.058 0,0.086 0,0.837 -2.331,2.775 -2.344,4.307 -0.424,0.316 -0.567,1.361 -0.7,1.894 -0.088,0.352 -0.24,1.465 -0.24,1.92 0,0.029 0,0.058 0,0.086 0,3 0.915,6.155 2.398,7.623 0.378,0.374 0.866,0.906 1.285,1.22 0.559,0.418 0.985,0.588 1.555,0.951 0.86,0.548 2.474,1.176 3.835,1.176 0.001,0.052 0.001,0.103 0.001,0.155 0.806,0.063 1.612,0.127 2.418,0.19 5.01,0.443 8.16,-3.536 10.535,-5.881 0.68,-0.671 1.147,-1.556 2.091,-1.969 0.807,-0.353 1.814,-1.138 2.431,-1.716 0.816,-0.765 1.266,-1.209 1.952,-2.109 0.685,-0.899 0.934,-1.843 1.483,-2.664 0,-0.406 -0.032,-0.66 0.259,-0.778 0,-0.547 0,-1.094 0,-1.641 0,-1.412 -0.128,-1.267 -0.55,-2.473 -0.154,-0.44 -1.01,-2.062 -1.01,-2.278 0,-0.202 0,-0.403 0,-0.605 0,-0.838 0.901,-2.615 1.263,-3.229 0.111,-0.188 0.894,-1.01 1.07,-1.176 0.22,-0.214 0.729,-1.311 0.713,-1.644 -0.032,-0.348 -0.064,-0.696 -0.096,-1.044 -0.062,-0.083 -0.124,-0.166 -0.185,-0.249 0,-0.583 -0.556,-1.49 -0.841,-1.837 -0.241,-0.294 -1.101,-1.186 -1.492,-1.186 -0.115,0 -0.23,0 -0.346,0 -0.627,-1.554 -6.999,-1.732 -8.382,-2.765 -0.864,-0.086 -1.728,-0.172 -2.592,-0.258 -0.802,-0.254 -0.692,-1.66 -0.951,-1.9 -0.178,-0.231 -0.722,-0.179 -0.778,-0.175 -0.522,0.054 -1.044,0.108 -1.566,0.162 -0.083,0.062 -0.166,0.124 -0.249,0.185 -0.527,0 -3.02,0.355 -3.02,0.605 0,0.675 1.807,1.394 2.403,1.657 0.441,0.195 2.561,1.186 2.868,1.193 0.055,0.208 0.665,0.691 0.778,0.691 0.31,0 0.936,0.615 1.205,0.869 0.32,0.301 0.615,0.629 0.936,0.965 0.287,0.301 1.489,1.821 1.489,2.226 0,1.709 -1.231,-0.585 -1.707,-1.058 -0.294,-0.293 -1.629,-1.474 -1.663,-1.793 -0.278,-0.03 -1.193,-0.908 -1.614,-1.151 -0.577,-0.334 -1.183,-0.73 -1.756,-1.01 -0.406,-0.197 -0.448,-0.321 -0.917,-0.465 -0.243,-0.075 -0.717,-0.324 -0.931,-0.451 -0.353,-0.209 -2.752,-1.416 -3.25,-1.416 -0.058,0 -0.115,0 -0.173,0 -0.28,0 -1.596,0.605 -1.642,0.605 -0.719,0 -1.299,-0.432 -2.074,-0.432 -0.115,0 -0.23,0 -0.346,0 -1.108,0 -3,0.481 -3.853,0.813 -2.297,0.895 -3.763,1.95 -5.931,2.882 -0.722,0.31 -1.864,1.542 -2.313,1.661 0.374,-1.604 4.229,-3.695 5.484,-4.279 0.419,-0.195 0.558,-0.276 0.925,-0.457 0.748,-0.37 1.172,-0.427 1.963,-0.715 0.292,-0.107 4.548,-1.804 3.38,-1.804 -0.013,0 -0.958,-0.261 -1.244,-0.311 -0.505,-0.088 -1.084,-0.036 -1.609,-0.033 -0.977,0.005 -2.076,-0.174 -3.11,-0.174 -0.551,-0.169 -6.525,-1.356 -7.086,-3.455 0.5,0.116 1.281,0.816 1.739,1.026 1.344,0.616 2.811,1.34 4.304,1.612 0.3,0.137 1.125,0.299 1.475,0.299 0.461,0 0.922,0 1.383,0 0.233,0 0.238,-0.041 0.432,-0.086 -0.016,-0.739 -0.9,-0.835 -1.399,-1.069 -0.548,-0.172 -1.095,-0.343 -1.643,-0.515 0.049,-0.226 1.72,0.075 2.01,0.105 0.256,0.051 2.294,0.554 2.591,0.615 0.401,0.388 1.23,0.06 1.728,0.432 0.522,0 2.926,0.782 3.24,0.994 0.819,0.552 2.996,0.12 4.04,0.283 0.465,0.073 3.509,-0.1 4.01,-0.189 0.535,-0.095 1.575,-0.091 1.95,-0.21 0.464,-0.148 1.246,-0.444 1.627,-0.533 -0.033,-1.494 -5.625,-2.702 -5.79,-3.11 -0.541,0 -2.214,-0.593 -2.872,-0.757 -1.333,-0.334 -2.561,-0.66 -3.792,-0.872 -0.083,-0.062 -0.166,-0.124 -0.249,-0.185 -0.825,0 -1.302,-0.144 -2.041,-0.292 -0.325,-0.065 -1.838,-0.399 -2.02,-0.399 -1.305,0 -2.5,-0.507 -3.973,-0.521 -0.816,-0.008 -2.633,-0.055 -2.854,-0.602 -0.502,0 -2.534,-0.62 -3.108,-0.78 -0.416,-0.116 -2.936,-0.515 -3.373,-0.515 -0.404,-0.011 -0.808,-0.021 -1.212,-0.031 -0.979,0.068 -1.957,0.136 -2.936,0.204 0,0.086 0,0.173 0,0.259 0,0.406 1.701,0.81 1.815,1.123 1.15,0 1.888,0.691 2.765,0.691 0.115,0 0.23,0 0.346,0 0.257,0.635 2.161,-0.004 2.246,0.827 -0.954,-0.012 -1.908,-0.024 -2.861,-0.037 -0.087,-0.042 -0.175,-0.085 -0.262,-0.127 -0.917,-0.192 -1.835,-0.385 -2.752,-0.577 -1.124,-0.752 -4.234,-1.025 -4.234,-2.937 0,-0.177 0.147,-0.383 0.173,-0.691 0.437,-0.036 0.605,-0.259 0.778,-0.259 0.288,0 0.576,0 0.864,0 0.365,0 1.352,0.424 1.726,0.521 0.491,0.127 1.525,0.17 2.163,0.17 0.087,0 0.173,0 0.259,0 0,0.058 0,0.115 0,0.173 1.042,0 2.388,0.143 3.376,0.253 0.725,0.08 0.936,0.067 1.584,0.231 0.272,0.069 1.414,0.38 1.521,0.38 0.087,0 0.173,0 0.259,0 0,0.058 0,0.115 0,0.173 0.115,0 0.23,0 0.346,0 0.028,0 1.092,0.526 1.295,0.606 0.646,0.254 1.147,0.083 1.749,0.239 0.698,0.18 2.732,0.278 3.621,0.266 0.083,0.062 0.166,0.124 0.249,0.185 2.333,0 9.947,1.237 12.357,2.851 0.676,0 4.429,1.683 5.246,2.01 0.649,0.261 1.477,1.14 2.071,1.558 1.076,0.759 1.56,0.144 2.966,0.144 0.3,-0.201 1.823,-0.656 2.364,-0.919 0.576,-0.28 1.552,-0.96 1.978,-1.391 0.928,-0.939 2.225,-2.729 2.225,-4.514 0,-0.39 0.195,-2.332 -0.173,-2.332 0,-1.103 -0.46,-1.384 -0.518,-1.555 -0.208,-0.217 -0.051,-0.066 -0.259,-0.345 -0.141,-0.703 -2.627,-3.325 -3.213,-3.785 -0.676,-0.53 -1.27,-1.048 -2.036,-1.506 -0.131,-0.078 -2.441,-1.384 -2.441,-0.583 0,0.086 0,0.173 0,0.259 0,0.559 0.259,0.893 0.259,1.037 0,0.257 -10e-4,0.513 -10e-4,0.77 -0.201,0.031 -0.402,0.063 -0.603,0.094 -0.054,-0.65 -2.246,-2.475 -2.817,-2.972 -0.422,-0.367 -0.984,-0.701 -1.323,-1.01 -0.19,-0.173 -1.198,-0.854 -1.4,-0.933 -0.176,-0.069 -1.514,-0.696 -1.564,-0.768 -0.129,-0.186 -0.16,-0.469 -0.388,-0.735 -0.172,-0.2 -0.415,-0.369 -0.63,-0.493 -0.433,-0.251 -1.178,-0.421 -1.859,-0.462 -1.204,-0.071 -2.892,0.288 -4.286,0.276 -0.083,0.059 -0.166,0.118 -0.25,0.177 -0.345,0.032 -0.691,0.063 -1.036,0.095 -0.749,0.007 -1.499,0.013 -2.249,0.02 -0.431,-0.036 -0.863,-0.071 -1.294,-0.107 -0.089,-0.22 -0.974,-0.566 -1.203,-0.785 -0.408,-0.391 -0.663,-0.585 -1.245,-0.828 -0.602,-0.251 -0.575,-0.425 -1.425,-0.649 -0.315,-0.083 -1.362,-0.284 -1.485,-0.589 -0.631,0 -0.633,-0.173 -1.123,-0.173 -0.835,0 -1.671,0 -2.506,0 -0.539,0 -0.899,0.264 -1.728,0.26 -0.692,-0.004 -1.254,0.011 -1.883,0.105 -0.581,0.087 -1.188,0.246 -1.669,0.318 -0.878,0.131 -0.795,0.512 -1.46,0.527 -0.114,0.216 -1.203,0.945 -1.478,1.2 -0.487,0.45 -1.11,0.697 -1.684,1.081 -0.908,0.606 -2.411,1.672 -3.02,2.505 -0.229,0.311 -0.345,0.381 -0.593,0.703 -0.173,0.225 -0.445,0.649 -0.585,0.797 -0.444,0.468 -0.617,1.33 -0.945,1.819 -0.526,1.171 -1.713,2.989 -1.713,4.248 0,0.62 -0.461,1.152 -0.691,1.728 -0.173,0.576 -0.346,1.152 -0.519,1.728 -0.086,0.317 -0.173,0.633 -0.259,0.95 -0.003,0.201 -0.005,0.403 -0.008,0.604 -0.228,2.189 -0.456,4.377 -0.683,6.566 -0.058,0 -0.115,0 -0.173,0 0,0.173 0,0.345 0,0.518 0,1.657 -0.505,5.086 -0.759,6.756 -0.174,1.146 -0.349,2.262 -0.448,3.353 -0.089,0.986 -0.521,2.411 -0.521,3.28 0,1.889 0.153,3.374 0.432,5.356 0,0.144 0,0.288 0,0.432 0.18,0.073 0.787,1.714 0.925,2.01 0.363,0.787 0.722,1.226 1.149,1.875 0.762,1.156 1.936,2.162 3.095,2.953 0.316,0.216 1.551,1.067 1.866,1.158 0.556,0.162 0.584,0.173 1.033,0.436 0.337,0.197 0.812,0.246 1.166,0.389 0.905,0.366 3.728,1.084 4.938,1.111 0.096,-0.238 1.02,-0.486 1.277,-0.71 0.399,-0.348 0.759,-0.504 1.487,-0.5 1.518,0.008 2.49,-0.258 3.803,-0.258 0.403,0 0.807,0 1.21,0 0.233,0 0.238,0.041 0.432,0.086 0,0.115 0,0.23 0,0.345 0,0.244 -0.275,0.385 -0.426,0.513 -0.618,0.074 -1.438,0.498 -1.58,1.03 0.016,-0.032 0.032,-0.065 0.047,-0.097 0.757,0.375 1.514,0.751 2.272,1.127 m 29.413,-93.54 c 0,0.43 -3.195,9.975 -3.431,10.368 -0.037,0.431 -0.074,0.862 -0.112,1.294 -1.368,0.916 -2.294,3.614 -2.817,5.476 -0.263,0.935 -2.108,5.82 -2.108,6.185 0,0.202 0,0.403 0,0.605 0,0.931 3.37,0.355 3.37,1.123 0,0.086 0,0.173 0,0.259 -0.365,0.085 -0.735,0.129 -0.772,0.48 0.43,0.07 0.86,0.14 1.29,0.211 0,0.144 0,0.288 0,0.432 -0.355,0.03 -0.193,0.086 -0.519,0.086 -1.374,0 -1.947,-0.167 -2.844,0.612 -0.366,0.318 -0.605,0.49 -0.936,0.879 -0.306,0.36 -0.477,0.942 -0.714,1.101 0,0.508 -0.475,1.783 -0.519,2.591 -0.061,1.131 -0.25,1.567 -0.035,2.8 0.2,1.145 0.218,1.592 0.625,2.485 0.132,0.288 0.365,0.792 0.553,1 0.234,0.261 0.837,0.452 0.93,0.711 0.317,0 0.634,0 0.951,0 0.834,0 2.172,-0.931 2.749,-1.312 0.431,-0.286 0.716,-0.631 1.076,-0.997 1.289,-1.307 3.088,-4.901 3.088,-6.415 0,-0.204 -0.859,-1.103 -1.058,-1.275 -0.359,-0.309 -1.176,-0.584 -1.189,-1.144 0.101,-0.027 0.236,-0.086 0.259,-0.086 0.937,0 1.573,0.95 1.901,0.95 1.197,0 2.164,-1.768 2.696,-2.574 0.426,-0.646 1.624,-2.807 1.706,-3.709 0.371,-1.354 0.743,-2.708 1.114,-4.062 0.12,-0.468 0.24,-0.935 0.36,-1.402 -0.525,-0.784 -2.442,-1.338 -3.458,-1.726 -0.632,-0.241 -1.167,-0.495 -1.948,-0.644 -0.627,-0.12 -1.766,-0.278 -1.766,-0.913 0,-0.754 0.741,-0.605 1.21,-0.605 0.202,0 0.403,0 0.605,0 0.236,-0.884 2.431,-0.518 3.457,-0.518 0.127,0.315 1.124,0.575 1.502,0.659 0.691,0.154 1.098,0.464 1.696,0.464 0.176,0 0.528,-0.495 0.691,-0.605 0,-0.879 0.701,-4.04 1.123,-4.319 0,-0.581 1.873,-4.743 2.143,-5.633 0.48,-1.581 1.659,-4.353 1.659,-6.202 0,-2.155 -2.069,-4.147 -4.148,-4.147 -0.288,0 -0.576,0 -0.864,0 -0.912,0 -2.261,0.518 -2.852,0.863 -1.524,0.889 -0.937,0.658 -1.966,1.836 -0.281,0.322 -1.246,1.849 -1.45,2.265 -0.196,0.399 -1.026,2.461 -1.25,2.552 m -23.16,-8.466 c -0.536,0.8 -0.864,6.933 -0.834,8.592 0.191,0.159 0.383,0.319 0.574,0.478 0.086,0 0.173,0 0.259,0 0.194,0 0.19,0.068 0.346,0.167 0.518,0.031 1.037,0.062 1.555,0.093 0,1.219 -1.481,0.815 -1.815,2.246 -0.538,0.045 -1.928,1.08 -2.078,1.551 -0.322,1.016 -0.602,1.659 -0.601,3.03 0.001,2.484 -0.37,4.494 -0.336,6.997 -0.002,0.879 -0.459,3.549 0.053,4.83 0.171,0.427 0.449,0.699 0.888,0.699 0.144,0 0.288,0 0.432,0 0,0.086 0,0.173 0,0.259 0,0.423 -1.493,1.128 -1.845,1.87 -0.26,0.547 -0.747,2.233 -0.747,2.968 -0.021,0.866 -0.043,1.733 -0.064,2.599 0.136,1.091 0.273,2.183 0.41,3.275 0.384,0.574 0.554,1.014 1.169,1.423 0.41,0.272 1.301,0.651 1.942,0.651 0.202,0 0.403,0 0.605,0 2.676,0 5.098,-4.878 5.098,-7.688 0.052,0 0.105,-0.001 0.157,-0.001 0.034,-0.489 0.068,-0.978 0.102,-1.467 0,-0.086 0,-0.173 0,-0.259 0,-1.481 -0.108,-2.235 -1.648,-2.413 -0.233,-0.027 -1.231,0.053 -1.543,0.087 -0.89,0.096 -1.843,0.426 -2.857,0.426 -0.141,0 -0.259,-0.052 -0.259,-0.173 0,-0.602 1.303,-1.151 1.832,-1.278 1.573,-0.378 2.513,-0.709 4.13,-0.709 0.059,0.146 0.454,0.345 0.605,0.345 1.061,0 0.16,-0.95 -0.432,-0.95 -0.778,-0.004 -1.556,-0.007 -2.335,-0.01 -0.662,0.09 -1.324,0.18 -1.986,0.269 -0.198,0.03 -0.233,-0.063 -0.519,-0.086 0,-0.115 0,-0.23 0,-0.345 0.483,-0.129 1.149,-0.95 2.16,-0.95 1.495,0 3.457,0.776 3.457,-0.95 0,-0.213 1.049,-2.568 1.176,-3.23 0.209,-1.087 0.811,-2.607 0.799,-3.692 0.062,-0.083 0.124,-0.166 0.185,-0.249 0,-1.278 0.321,-2.296 0.038,-3.58 -0.425,-1.925 -1.446,-1.975 -1.595,-2.364 -0.345,-0.034 -0.69,-0.069 -1.035,-0.103 -1.639,-0.19 -3.791,0.432 -5.258,0.429 -0.033,-0.172 -0.066,-0.344 -0.1,-0.515 0.915,-0.484 1.381,-0.605 2.765,-0.605 0.5,0 3.02,0.395 3.02,0.086 0,-0.584 -2.625,-0.809 -3.284,-0.864 0,-0.086 0,-0.173 0,-0.259 0,-0.422 1.477,-0.432 1.815,-0.432 0.545,0 1.14,0.14 1.469,0.345 0.62,0.387 0.576,0.331 1.382,0.519 0.31,-0.586 1.01,-1.366 1.203,-2.08 0.212,-0.774 0.614,-1.462 0.837,-2.445 0.385,-1.698 0.811,-3.839 0.811,-5.841 0,-0.115 0,-0.23 0,-0.346 0,-1.159 -0.221,-2.808 -0.435,-3.798 -0.242,-1.117 -1.727,-2.104 -1.811,-2.422 -0.563,-0.013 -1.144,-0.691 -1.815,-0.691 -0.691,0 -1.383,0 -2.074,0 -0.309,0 -1.508,0.661 -1.745,0.847 -0.343,0.268 -0.927,1.103 -1.152,1.526 -0.412,0.772 -1.077,3.074 -1.077,4.192 m 51.588,13.994 c -0.144,0 -0.288,0 -0.432,0 -1.412,0 -3.201,1.195 -3.97,1.906 -0.402,0.372 -2.14,2.804 -2.482,3.393 -0.215,0.37 -0.932,1.46 -1.204,1.733 -0.175,0.177 -0.89,1.527 -1.089,1.848 -0.368,0.59 -1.798,3.435 -1.798,4.164 -0.428,0.286 -1.759,2.531 -1.815,3.196 0.208,0.005 2.034,0.457 2.299,0.552 0.02,0.007 0.935,0.432 1,0.468 0.373,0.201 0.658,0.571 0.847,0.621 0,0.086 0,0.173 0,0.259 -1.304,0.108 -1.782,-0.605 -2.765,-0.605 0.178,0.762 1.123,1.052 1.123,1.641 0,0.086 0,0.173 0,0.259 -0.144,0 -0.288,0 -0.432,0 -0.986,0 -2.485,-1.296 -3.284,-1.296 -0.327,0 -3.01,4.055 -3.43,4.605 -0.561,0.737 -2.981,4.229 -3.046,5.06 0.373,0.176 0.745,0.352 1.118,0.528 0,0.173 0,0.345 0,0.518 -0.302,0.07 -0.291,0.173 -0.605,0.173 -0.086,0 -0.173,0 -0.259,0 -1.354,0 -1.526,-0.84 -1.555,0.864 -1.407,0.117 -3.255,3.628 -3.89,4.663 -0.516,0.84 -1.468,2.151 -1.468,3.457 0,0.115 0,0.23 0,0.346 0,1.373 1.401,2.851 2.765,2.851 0.203,0.009 0.406,0.018 0.609,0.027 0.488,-0.067 0.977,-0.133 1.465,-0.2 0.123,-0.304 0.428,-0.196 0.78,-0.43 0.288,-0.192 0.466,-0.316 0.744,-0.552 0.272,-0.231 1.296,-0.966 1.328,-1.264 0.513,-0.043 1.445,-0.994 1.817,-1.294 0.039,-0.032 0.633,-0.691 0.742,-0.813 0.182,-0.203 0.379,-0.822 0.379,-1.176 0,-0.115 0,-0.23 0,-0.345 0,-0.387 -0.247,-0.482 -0.259,-1.037 -0.515,-0.137 -0.459,-0.938 -0.85,-1.211 -0.033,-0.374 -0.067,-0.748 -0.1,-1.121 -0.26,-0.388 -1.383,-1.272 -1.383,-1.641 0,-0.199 0.06,-0.259 0.259,-0.259 0.173,0 0.346,0 0.519,0 0.978,0 1.512,1 2.264,1.279 0.959,0.353 1.691,1.572 2.057,1.572 0.509,0 1.703,-1.168 2.075,-1.467 0.677,-0.543 1.062,-1.304 1.608,-2.02 0.488,-0.64 2.452,-3.874 2.452,-4.719 0,-0.214 -1.186,-1.525 -1.21,-2.591 1.027,0.085 1.29,1.641 1.728,1.641 0.167,0 0.346,-0.154 0.346,-0.259 0,-1.195 -1.517,-1.972 -1.728,-2.764 0.105,-0.059 0.092,-0.086 0.259,-0.086 0.34,0 1.891,1.058 1.988,1.296 0.086,0 0.173,0 0.259,0 0.192,0 0.357,0.259 1.037,0.259 0.054,-0.148 0.435,-0.467 0.617,-0.765 0.239,-0.39 0.42,-0.507 0.42,-1.049 0.408,-0.61 0.489,-1.54 0.792,-2.059 0.139,-0.239 0.363,-0.742 0.48,-0.903 0.255,-0.349 0.222,-0.673 0.443,-1.025 0.565,-0.902 1.201,-3.097 1.961,-3.741 0.529,-0.448 0.949,-0.059 1.732,-1.119 0.36,-0.487 0.791,-1.213 1.1,-1.751 0.37,-0.645 0.683,-1.176 0.996,-1.855 0.232,-0.503 0.577,-1.826 0.772,-2.149 0.064,-0.46 0.129,-0.919 0.193,-1.379 0,-0.029 0,-0.058 0,-0.086 0,-1.025 -0.379,-2.223 -0.884,-2.745 -0.495,-0.511 -1.303,-1.402 -2.227,-1.402 -0.086,0 -0.173,0 -0.259,0 0,-0.058 0,-0.115 0,-0.173 -0.317,0 -0.634,0 -0.951,0 0,0.058 0,0.115 0,0.173 m 0.778,68.24 c -0.378,0.008 -2.526,1.384 -2.774,1.632 -0.085,0.085 -0.257,0.405 -0.488,0.636 -0.207,0.208 -0.38,0.336 -0.611,0.512 -1.842,1.399 -0.693,-0.188 -1.83,-0.188 -0.532,0 -1.136,0.945 -1.418,1.347 -0.224,0.32 -1.358,0.974 -1.866,0.985 0.013,-0.589 0.173,-0.27 0.173,-0.605 0,-0.058 0,-0.115 0,-0.173 0,-0.167 -0.154,-0.345 -0.259,-0.345 -1.19,0 -1.903,2.508 -2.497,2.361 -1.237,-0.183 -2.474,-0.367 -3.711,-0.55 -0.004,0.03 -0.009,0.06 -0.013,0.09 -0.061,-0.028 -0.121,-0.057 -0.182,-0.085 -1.466,0.172 -2.932,0.345 -4.398,0.517 -1.013,0.678 -2.765,2.541 -2.765,4.147 -0.304,0.454 -0.346,0.983 -0.346,1.728 0,0.672 0.259,1.088 0.259,1.814 0.508,0.34 0.067,0.555 0.534,0.762 0.222,0.098 0.754,0.381 0.938,0.383 0.345,-0.036 0.69,-0.072 1.034,-0.108 1.105,-0.74 2.436,-1.211 4.03,-1.503 0.756,-0.139 1.71,-0.272 2.386,-0.379 0.49,-0.078 2.131,-0.45 2.315,-0.45 0.173,0 0.492,0.085 0.547,-0.093 1.449,-0.548 1.121,-0.567 1.924,-1.756 0.317,-0.469 0.307,-1.047 0.812,-1.089 0.045,0.194 0.086,0.199 0.086,0.432 -0.004,0.028 -0.009,0.056 -0.013,0.084 -0.14,1.124 -0.28,2.247 -0.419,3.371 -0.04,0.273 0.062,0.308 0.093,0.589 0.084,0.034 0.169,0.068 0.253,0.102 0.577,-0.135 1.236,-0.476 2.073,-0.418 1.873,0.082 3.745,0.163 5.618,0.245 1.049,0 1.821,0.173 3.02,0.173 1.134,0 2.652,-0.691 3.726,-0.679 0.083,-0.062 0.166,-0.124 0.249,-0.185 1.175,0 3.702,-1.469 4.423,-2.058 1.116,-0.91 2.231,-2.345 2.231,-4.335 0,-2.623 -1.273,-4.395 -2.923,-5.371 -1.037,-0.614 -1.396,-1.019 -2.776,-1.371 -1.058,-0.27 -2.02,-0.773 -3.461,-0.773 -0.404,-0.007 -0.809,-0.015 -1.213,-0.022 -0.921,0.209 -1.841,0.418 -2.762,0.627 m -77.858,-72.65 v 1.641 c 0,1.656 1.246,1.9 2.592,1.9 0.577,0 1.728,-0.329 1.728,0.346 -0.275,0.394 -0.097,0.29 -0.827,0.469 -0.589,0.144 -1.077,0.222 -1.679,0.222 -0.198,0 -0.951,-0.479 -0.951,0 0,0.524 0.13,1.382 0.691,1.382 0.347,0 1.01,-0.691 1.296,-0.691 0.308,0 0.346,0.074 0.346,0.346 0,0.371 -0.436,0.413 -0.728,0.568 -1.315,0.695 -1.137,3.362 -1.346,4.701 v 1.123 c 0,1.535 0.509,3.726 1.105,4.683 0.651,1.043 1.371,2.919 2.956,2.919 0.861,0 1.544,-0.432 1.901,-0.432 1.794,0 0.073,1.123 -0.605,1.123 -0.552,0 -1.555,0.585 -1.555,1.209 0,0.724 0.923,6.573 1.11,7.01 0.103,0.242 0.39,1.261 0.45,1.537 0.149,0.676 0.294,0.971 0.533,1.54 0.206,0.49 0.368,0.83 0.901,1.086 0.497,0.239 0.888,0.488 1.586,0.488 h 0.346 c 0.577,0 2.058,-1.116 2.264,-1.537 0.395,-0.806 0.761,-1.958 0.762,-3.125 10e-4,-1.351 0.14,-2.52 0.004,-3.723 -0.075,-0.66 -0.067,-1.087 -0.196,-1.704 -0.269,-1.285 -0.578,-2.337 -0.847,-3.645 h -0.173 c 0,-0.892 -0.484,-1.327 -0.766,-1.826 -0.446,-0.792 0.074,-1.449 0.074,-2.148 0,-0.747 -0.24,-2.598 -0.383,-3.331 -0.219,-1.122 -0.489,-1.912 -0.793,-2.921 -0.28,-0.93 -0.687,-1.779 -1.035,-2.68 -0.186,-0.482 -0.358,-0.895 -0.53,-1.284 -0.251,-0.571 -0.106,-0.98 -0.231,-1.669 -0.198,-1.085 -0.063,-2.561 -0.139,-3.576 -0.095,-1.269 -0.168,-2.399 -0.256,-3.458 -0.16,-1.93 -1.74,-3.712 -3.805,-3.712 -3.01,0 -3.802,4.086 -3.802,7.17 m 40.787,62.46 v 0.086 c 0,0.335 0.16,0.016 0.173,0.605 0.421,0.112 0.53,0.601 1.317,0.843 0.589,0.181 1.343,0.053 2.054,0.106 1.428,0.106 2.089,0.864 3.542,0.864 h 2.42 c 0.423,0 0.643,-0.12 0.845,-0.364 0.07,-0.084 0.365,-0.777 0.365,-0.845 v -0.346 c 0,-0.3 -0.173,-0.132 -0.173,-0.432 v -0.259 c -0.348,-0.081 -0.403,-0.259 -0.605,-0.259 -0.618,0 -1.161,0.345 -1.296,0.345 h -0.691 c -0.975,0 -1.695,-0.677 -2.421,-0.622 l -1.221,0.089 -0.332,0.274 c -0.594,0 -0.666,0.173 -1.037,0.173 -0.393,0 -1.543,-0.359 -1.642,-0.605 h -0.951 c -0.202,0 -0.346,0.143 -0.346,0.345 m -3.889,-8.466 0.001,0.249 0.776,0.097 h 0.346 c 1.465,0 1.793,-1.278 2.603,-1.294 l -0.097,0.776 -0.022,0.347 0.109,1.38 c 0.34,0.507 0.988,2.419 1.642,2.419 h 0.259 c 0.199,0 0.259,-0.06 0.259,-0.259 v -0.259 c 0,-1.584 -2.217,-2.947 -1.383,-4.578 0,-1.449 0.841,-2.144 0.864,-3.196 -0.088,0.065 -0.822,1.183 -1.013,1.406 -0.388,0.453 -0.789,0.811 -1.228,1.191 -0.641,0.554 -2.01,1.697 -3.116,1.722 m -10.196,-3.887 0.266,1.983 0.425,0.868 c 0.27,0.023 0.307,0.086 0.605,0.086 0.353,0 0.519,-0.574 0.519,-0.95 v -1.123 c 0,-0.337 -0.426,-0.87 -0.435,-1.638 -0.009,-0.717 0.056,-1.393 -0.083,-1.99 -0.738,0.061 -1.432,1.847 -1.296,2.764 m -9.765,-3.369 -0.02,1.384 0.106,1.121 c 0.449,0.301 0.094,0.329 0.778,0.691 0.517,-0.12 0.691,-0.23 0.691,-0.864 v -0.605 c 0,-0.414 -0.295,-1.233 -0.329,-1.659 -0.035,-0.437 0.243,-1.047 0.243,-1.709 0.465,-0.188 0.04,-0.915 -0.846,0.104 -0.187,0.215 -0.623,1.14 -0.623,1.537"
       inkscape:connector-curvature="0"
       transform="matrix(-2.18513,0,0,2.18513,476.86,449.04)"
       id="path68"
       style="fill:#ffffff;fill-rule:evenodd" />
  </g>
</svg>
