<?xml version="1.0" encoding="UTF-8" standalone="no"?>
<svg
   xmlns:dc="http://purl.org/dc/elements/1.1/"
   xmlns:cc="http://creativecommons.org/ns#"
   xmlns:rdf="http://www.w3.org/1999/02/22-rdf-syntax-ns#"
   xmlns:svg="http://www.w3.org/2000/svg"
   xmlns="http://www.w3.org/2000/svg"
   xmlns:sodipodi="http://sodipodi.sourceforge.net/DTD/sodipodi-0.dtd"
   xmlns:inkscape="http://www.inkscape.org/namespaces/inkscape"
   height="512"
   viewBox="0 0 512 512"
   width="512"
   version="1.1"
   id="svg2"
   inkscape:version="0.91 r13725"
   sodipodi:docname="applications-astronomy.svg">
  <defs
     id="defs17" />
  <sodipodi:namedview
     pagecolor="#ffffff"
     bordercolor="#666666"
     borderopacity="1"
     objecttolerance="10"
     gridtolerance="10"
     guidetolerance="10"
     inkscape:pageopacity="0"
     inkscape:pageshadow="2"
     inkscape:window-width="1920"
     inkscape:window-height="1020"
     id="namedview15"
     showgrid="false"
     inkscape:zoom="1.2614468"
     inkscape:cx="152.31299"
     inkscape:cy="123.98094"
     inkscape:window-x="0"
     inkscape:window-y="0"
     inkscape:window-maximized="1"
     inkscape:current-layer="svg2" />
  <metadata
     id="metadata28">
    <rdf:RDF>
      <cc:Work
         rdf:about="">
        <dc:format>image/svg+xml</dc:format>
        <dc:type
           rdf:resource="http://purl.org/dc/dcmitype/StillImage" />
        <dc:title></dc:title>
      </cc:Work>
    </rdf:RDF>
  </metadata>
  <path
     style="fill:#BF9E73;fill-rule:evenodd;fill-opacity:1"
     inkscape:connector-curvature="0"
     d="m 471.95,253.05 c 0,120.9 -98.01,218.9 -218.9,218.9 -120.9,0 -218.9,-98.01 -218.9,-218.9 0,-120.9 98.01,-218.9 218.9,-218.9 120.9,0 218.9,98.01 218.9,218.9"
     id="path6" />
  <path
     style="fill-opacity:0.06700003;fill-rule:evenodd"
     inkscape:connector-curvature="0"
     d="M 256,1 C 115.17,1 1,115.17 1,256 1,396.83 115.17,511 256,511 396.83,511 511,396.83 511,256 511,115.17 396.83,1 256,1 m 8.827,44.931 c 120.9,0 218.9,98 218.9,218.9 0,120.9 -98,218.9 -218.9,218.9 -120.9,0 -218.93,-98 -218.93,-218.9 0,-120.9 98.03,-218.9 218.93,-218.9"
     id="path8" />
  <g
     style="fill-opacity:0.12900002;fill-rule:evenodd"
     id="g10">
    <path
       inkscape:connector-curvature="0"
       d="m 256,4.433 c -138.94,0 -251.57,112.63 -251.57,251.57 0,138.94 112.63,251.57 251.57,251.57 138.94,0 251.57,-112.63 251.57,-251.57 C 507.57,117.063 394.94,4.433 256,4.433 m 5.885,38.556 c 120.9,0 218.9,98 218.9,218.9 0,120.9 -98,218.9 -218.9,218.9 -120.9,0 -218.93,-98 -218.93,-218.9 0,-120.9 98.03,-218.9 218.93,-218.9"
       id="path12" />
    <path
       inkscape:connector-curvature="0"
       d="m 256,8.356 c -136.77,0 -247.64,110.87 -247.64,247.64 0,136.77 110.87,247.64 247.64,247.64 136.77,0 247.64,-110.87 247.64,-247.64 C 503.64,119.226 392.77,8.356 256,8.356 m 2.942,31.691 c 120.9,0 218.9,98 218.9,218.9 0,120.9 -98,218.9 -218.9,218.9 -120.9,0 -218.93,-98 -218.93,-218.9 0,-120.9 98.03,-218.9 218.93,-218.9"
       id="path14" />
  </g>
  <path
     style="fill:#ffffff;fill-rule:evenodd;stroke:#000000;stroke-width:4.90399981;stroke-opacity:0.31000001"
     inkscape:connector-curvature="0"
     d="m 253.04,7.859 c -135.42,0 -245.19,109.78 -245.19,245.19 0,135.42 109.78,245.19 245.19,245.19 135.42,0 245.19,-109.78 245.19,-245.19 0,-135.42 -109.78,-245.19 -245.19,-245.19 z m 0,26.297 c 120.9,0 218.9,98 218.9,218.9 0,120.9 -98,218.9 -218.9,218.9 -120.9,0 -218.93,-98 -218.93,-218.9 0,-120.9 98.03,-218.9 218.93,-218.9 z"
     id="path16" />
  <path
     inkscape:connector-curvature="0"
     style="opacity:0.25"
     id="path4190"
     d="m 379.93062,158.20494 c 1.11815,19.86342 -94.6004,-19.29042 -95.3474,-19.10342 l -9.77156,-12.39442 c -12.395,-6.969 9.7607,-11.08229 -8.7643,-11.36429 -1.129,-0.018 -2.246,-0.024 -3.336,0 -16.356,0.358 -28.394,5.332 -37.533,12.662 -0.379,0.304 -0.744,0.621 -1.113,0.934 l -4.193,-4.193 c -8.754,-2.926 -10.04429,13.44228 -30.8383,13.46028 -1.835,0.001 -12.19028,11.85385 -14.02228,11.95485 -14.657,0.81 16.48727,33.81642 6.38527,44.12842 -10.1,10.313 -45.39942,-15.57141 -43.98142,11.58859 0.286,5.357 -7.23571,13.64357 -3.27671,30.64357 3.958,17 -7.50757,22.60429 -0.74557,40.31829 6.535,17.12 42.50571,85.23284 50.38571,93.11084 l 120.8443,95.93716 c 97.12,-22.39 168.87429,-121.20285 168.87429,-225.11285"
     sodipodi:nodetypes="ccccccccccccccccc" />
  <g
     transform="matrix(9.8197226,0,0,9.8193588,77.693638,69.072522)"
     style="fill:#ffffff"
     id="g4">
    <path
       inkscape:connector-curvature="0"
       d="m 18.566,4.156 c -8.789,0 -15.211,6.781 -14.328,15.1 0.742,7.02 6.441,12.906 13.477,14.586 -1.203,-1.965 -1.98,-4.176 -2.227,-6.5 -0.883,-8.32 5.543,-15.04 14.332,-15.04 1.383,0 2.707,0.172 4.02,0.484 C 30.742,7.704 24.906,4.153 18.563,4.153 m 0,3.113 c 2.754,0 5.406,0.852 7.684,2.258 -8.574,1.66 -14.738,9.238 -13.84,18.09 C 9.673,25.348 7.673,22.29 7.313,18.915 6.618,12.345 11.368,7.263 18.563,7.263"
       id="path6-3"
       style="fill:#ffffff" />
    <path
       inkscape:connector-curvature="0"
       d="m 11.266,9.781 c 1.551,0 2.805,1.508 2.805,3.371 l 0,11.941 c 0,1.863 -1.254,3.371 -2.805,3.371 -1.551,0 -2.809,-1.508 -2.809,-3.371 l 0,-11.941 c 0,-1.863 1.258,-3.371 2.809,-3.371 z"
       id="path8-6"
       style="fill:#ffffff" />
    <path
       inkscape:connector-curvature="0"
       d="m 9.418,11.855 c 1.508,0 2.73,1.512 2.73,3.375 l 0,6.402 c 0,1.863 -1.223,3.371 -2.73,3.371 -1.508,0 -2.727,-1.508 -2.727,-3.371 l 0,-6.402 c 0,-1.863 1.219,-3.375 2.727,-3.375 z"
       id="path10"
       style="fill:#ffffff" />
    <path
       inkscape:connector-curvature="0"
       d="m 12.957,8.242 c 1.551,0 2.805,1.512 2.805,3.371 l 0,4.637 c 0,1.863 -1.254,3.375 -2.805,3.375 -1.551,0 -2.809,-1.512 -2.809,-3.375 l 0,-4.637 c 0,-1.859 1.258,-3.371 2.809,-3.371 z"
       id="path12-7"
       style="fill:#ffffff" />
    <path
       inkscape:connector-curvature="0"
       d="m 14.289,5.551 4.02,0 c 1.859,0 3.371,1.512 3.371,3.375 l 0,2.48 c 0,1.863 -1.512,3.371 -3.371,3.371 l -4.02,0 c -1.859,0 -3.371,-1.508 -3.371,-3.371 l 0,-2.48 c 0,-1.863 1.512,-3.375 3.371,-3.375 z"
       id="path14-5"
       style="fill:#ffffff" />
    <path
       inkscape:connector-curvature="0"
       d="m 15.879,11.09 c 1.082,0 1.961,1.461 1.961,3.266 0,1.805 -0.879,3.27 -1.961,3.27 -1.086,0 -1.961,-1.465 -1.961,-3.27 0,-1.805 0.875,-3.266 1.961,-3.266 z"
       id="path16-3"
       style="fill:#ffffff" />
    <path
       inkscape:connector-curvature="0"
       d="m 22.363,7.01 0.637,0 c 1.863,0 3.375,1.07 3.375,2.387 0,1.316 -1.512,2.383 -3.375,2.383 l -0.637,0 c -1.863,0 -3.371,-1.066 -3.371,-2.383 0,-1.316 1.508,-2.387 3.371,-2.387 z"
       id="path18"
       style="fill:#ffffff" />
  </g>
</svg>
