<?xml version="1.0" encoding="UTF-8" standalone="no"?>
<svg xmlns="http://www.w3.org/2000/svg" xmlns:inkscape="http://www.inkscape.org/namespaces/inkscape" version="1.1" width="512" height="512" viewBox="0 0 512 512">
 <metadata id="metadata72"/>
 <path d="m 471.95,253.05 c 0,120.9 -98.01,218.9 -218.9,218.9 -120.9,0 -218.9,-98.01 -218.9,-218.9 0,-120.9 98.01,-218.9 218.9,-218.9 120.9,0 218.9,98.01 218.9,218.9" inkscape:connector-curvature="0" id="path4" fill="#BF9E73" fill-rule="evenodd"/>
 <path d="m 358.97,135.47 c -13.591,2.396 -21.96,15.646 -32.844,23.406 -15.616,13.996 -29.15,28.06 -44.2,42.605 -8.333,16.03 5.94,44.72 -15.627,52.772 -23.677,5.933 -55.21,-1.304 -73.29,19.06 -20.96,32.21 -42.06,64.891 -56.969,100.41 32.667,32.667 65.55,65.61 97.19,97.31 6.529,0.586 13.13,0.938 19.813,0.938 120.9,0 218.91,-98.01 218.91,-218.91 0,-3.39 -0.098,-6.773 -0.25,-10.125 -34.594,-34.594 -69.18,-69.2 -103.78,-103.78 l -4.25,-2.781 z" inkscape:connector-curvature="0" id="path6" fill-opacity="0.235"/>
 <g id="g8" fill-rule="evenodd">
  <path d="M 256,1 C 115.17,1 1,115.17 1,256 1,396.83 115.17,511 256,511 396.83,511 511,396.83 511,256 511,115.17 396.83,1 256,1 m 8.827,44.931 c 120.9,0 218.9,98 218.9,218.9 0,120.9 -98,218.9 -218.9,218.9 -120.9,0 -218.93,-98 -218.93,-218.9 0,-120.9 98.03,-218.9 218.93,-218.9" inkscape:connector-curvature="0" id="path10" fill-opacity="0.067"/>
  <g id="g12" fill-opacity="0.129">
   <path d="m 256,4.433 c -138.94,0 -251.57,112.63 -251.57,251.57 0,138.94 112.63,251.57 251.57,251.57 138.94,0 251.57,-112.63 251.57,-251.57 C 507.57,117.063 394.94,4.433 256,4.433 m 5.885,38.556 c 120.9,0 218.9,98 218.9,218.9 0,120.9 -98,218.9 -218.9,218.9 -120.9,0 -218.93,-98 -218.93,-218.9 0,-120.9 98.03,-218.9 218.93,-218.9" inkscape:connector-curvature="0" id="path14"/>
   <path d="m 256,8.356 c -136.77,0 -247.64,110.87 -247.64,247.64 0,136.77 110.87,247.64 247.64,247.64 136.77,0 247.64,-110.87 247.64,-247.64 C 503.64,119.226 392.77,8.356 256,8.356 m 2.942,31.691 c 120.9,0 218.9,98 218.9,218.9 0,120.9 -98,218.9 -218.9,218.9 -120.9,0 -218.93,-98 -218.93,-218.9 0,-120.9 98.03,-218.9 218.93,-218.9" inkscape:connector-curvature="0" id="path16"/>
  </g>
  <path d="m 253.04,7.859 c -135.42,0 -245.19,109.78 -245.19,245.19 0,135.42 109.78,245.19 245.19,245.19 135.42,0 245.19,-109.78 245.19,-245.19 0,-135.42 -109.78,-245.19 -245.19,-245.19 z m 0,26.297 c 120.9,0 218.9,98 218.9,218.9 0,120.9 -98,218.9 -218.9,218.9 -120.9,0 -218.93,-98 -218.93,-218.9 0,-120.9 98.03,-218.9 218.93,-218.9 z" inkscape:connector-curvature="0" id="path18" stroke-opacity="0.31" fill="#ffffff" stroke="#000000" stroke-width="4.904"/>
 </g>
 <text x="729.64" y="231.36" id="text20" font-family="Gentium Book Basic" word-spacing="0" line-height="125%" letter-spacing="0" font-size="129.23"><tspan x="729.64" y="231.36" id="tspan22"/>
 </text>
 <text x="378.91" y="579.25" transform="scale(4.0128,0.2492)" id="text24" font-family="Arial" text-anchor="middle" font-size="46.954"/>
 <text x="1310.91" y="151.36" id="text26" font-family="Gentium Book Basic" word-spacing="0" line-height="125%" letter-spacing="0" font-size="129.23"><tspan x="1310.91" y="151.36" id="tspan28"/>
 </text>
 <text x="523.76" y="258.22" transform="scale(4.0128,0.2492)" id="text30" font-family="Arial" text-anchor="middle" font-size="46.954"/>
 <text x="239.33" y="-29.901" id="text32" font-family="Gentium Book Basic" word-spacing="0" line-height="125%" letter-spacing="0" font-size="129.23"><tspan x="239.33" y="-29.901" id="tspan34"/>
 </text>
 <text x="256.72" y="-469.14" transform="scale(4.0128,0.2492)" id="text36" font-family="Arial" text-anchor="middle" font-size="46.954"/>
 <text x="1337.38" y="-246.37" id="text38" font-family="Gentium Book Basic" word-spacing="0" line-height="125%" letter-spacing="0" font-size="129.23"><tspan x="1337.38" y="-246.37" id="tspan40"/>
 </text>
 <text x="530.36" y="-1337.81" transform="scale(4.0128,0.2492)" id="text42" font-family="Arial" text-anchor="middle" font-size="46.954"/>
 <text x="1918.65" y="-326.38" id="text44" font-family="Gentium Book Basic" word-spacing="0" line-height="125%" letter-spacing="0" font-size="129.23"><tspan x="1918.65" y="-326.38" id="tspan46"/>
 </text>
 <text x="675.21" y="-1658.85" transform="scale(4.0128,0.2492)" id="text48" font-family="Arial" text-anchor="middle" font-size="46.954"/>
 <text x="1529.53" y="-798.78" id="text50" font-family="Gentium Book Basic" word-spacing="0" line-height="125%" letter-spacing="0" font-size="129.23"><tspan x="1529.53" y="-798.78" id="tspan52"/>
 </text>
 <text x="578.24" y="-3554.51" transform="scale(4.0128,0.2492)" id="text54" font-family="Arial" text-anchor="middle" font-size="46.954"/>
 <text x="2110.79" y="-878.78" id="text56" font-family="Gentium Book Basic" word-spacing="0" line-height="125%" letter-spacing="0" font-size="129.23"><tspan x="2110.79" y="-878.78" id="tspan58"/>
 </text>
 <text x="723.09" y="-3875.54" transform="scale(4.0128,0.2492)" id="text60" font-family="Arial" text-anchor="middle" font-size="46.954"/>
 <text x="277.99" y="535.94" id="text62" font-family="Gentium Book Basic" word-spacing="0" line-height="125%" letter-spacing="0" font-size="208.33"><tspan x="277.99" y="535.94" id="tspan64"/>
 </text>
 <path d="m 357.59,135.5 c -3.678,0.317 -7.364,2.157 -10.344,5.04 l -66.39,57.728 c -2.85,2.753 -4.433,6.658 -4.433,10.588 0,1.908 0.406,3.621 1.104,5.302 0.033,0.089 -0.033,0.219 0,0.284 -2.468,5.261 -1.681,12.593 -1.681,28.451 0,5.83 -15.192,11.984 -18.967,11.984 h -0.568 c -12.05,0 -51.23,1.811 -63.31,18.431 -12.08,16.621 -57.47,92.13 -57.47,103.21 18.11,0 149.73,-65.784 156.5,-71.971 8.144,-7.478 4.149,-22.58 -1.112,-32.632 0.033,-0.033 -0.033,-0.219 0,-0.284 0.122,-0.349 0.187,-0.893 -0.284,-1.681 -2.826,-4.726 -4.474,-9.516 -4.474,-16.17 0,-14.786 1.551,-22.938 4.758,-27.598 7.105,1.21 17.441,-2.249 22.04,-6.69 l 58.29,-55.54 c 5.935,-5.71 7.332,-14.337 1.397,-20.08 l -4.758,-4.726 c -2.947,-2.886 -6.658,-3.933 -10.304,-3.616 z" inkscape:connector-curvature="0" id="path66" fill="#ffffff"/>
</svg>
