<?xml version="1.0" encoding="UTF-8" standalone="no"?>
<svg xmlns="http://www.w3.org/2000/svg" xmlns:inkscape="http://www.inkscape.org/namespaces/inkscape" version="1.1" width="512" height="512" viewBox="0 0 512 512">
 <metadata id="metadata90"/>
 <g transform="translate(0,-540.36)" id="g4">
  <g id="g6" fill-rule="evenodd">
   <path d="m 471.95,793.41 c 0,120.9 -98.01,218.9 -218.9,218.9 -120.9,0 -218.9,-98.01 -218.9,-218.9 0,-120.9 98.01,-218.9 218.9,-218.9 120.9,0 218.9,98.01 218.9,218.9" inkscape:connector-curvature="0" id="path8" fill="#BF9E73"/>
   <path d="m 250.19,125.16 -124.03,56.75 v 9.594 h 1 v 1 h 1 v 1 h 1 v 1 h 0.969 v 0.969 h 1 v 1 h 1 v 1 h 1 v 1 h 1 v 1 h 1 v 1 h 0.969 v 0.969 h 1 v 1 h 1 v 1 h 1 v 1 h 1 v 1 h 1 v 1 h 0.969 v 0.969 h 1 v 1 h 1 v 1 h 1 v 1 h 1 v 1 h 1 v 1 h 0.969 v 0.969 h 0.031 0.969 v 1 h 1 v 1 h 1 v 1 h 1 v 1 h 1 v 1 h 1 v 1 h 0.969 v 0.969 h 1 v 1 h 1 v 1 h 1 v 1 h 1 v 1 h 1 v 1 h 0.969 v 0.969 h 1 v 1 h 1 v 1 h 1 v 1 h 0.406 v 95.91 h -7.438 c -6.33,0 -11.438,3.404 -11.438,7.625 v 1.813 1.094 8.844 h 1 v 1 h 1 v 1 h 1 v 1 h 0.969 v 0.969 h 1 v 1 h 1 v 1 h 1 v 1 h 1 v 1 h 1 v 0.781 h -14.406 c -7.47,0 -13.469,3.404 -13.469,7.625 v 1.813 1.094 8.844 h 1 v 0.938 0.063 h 1 v 0.906 0.094 h 1 v 0.844 0.156 h 0.969 v 0.813 0.156 h 1 v 0.781 0.219 h 1 v 0.75 0.25 h 1 v 0.688 0.313 h 1 v 0.625 0.375 h 1 v 0.594 0.406 h 0.969 v 0.531 0.438 h 1 v 0.531 0.469 h 1 v 0.469 0.531 h 1 v 0.438 0.563 h 1 v 0.375 0.625 h 1 v 0.313 0.688 h 0.969 v 0.281 0.688 h 1 v 0.25 0.75 h 1 v 0.219 0.781 h 1 v 0.156 0.844 h 1 v 0.125 0.875 h 1 v 0.063 0.938 h 0.969 v 0.031 0.938 h 1 v 1 h 1 v 1 h 1 v 1 h 1 v 1 h 1 v 1 h 1 v 1 h 0.969 v 0.969 h 1 v 1 h 1 v 1 h 1 v 1 h 1 v 1 h 1 v 1 h 0.969 v 0.969 h 1 v 1 h 1 v 1 h 1 v 1 h 1 v 1 h 1 v 1 h 0.969 v 0.969 h 1 v 1 h 1 v 1 h 1 v 1 h 1 v 1 h 1 v 1 h 1 v 1 h 0.969 v 0.969 h 1 v 1 h 1 v 1 h 1 v 1 h 1 v 1 h 1 v 1 h 0.969 v 0.969 h 1 v 1 h 1 v 1 h 1 v 1 h 1 v 1 h 1 v 1 h 0.969 v 0.969 h 1 v 1 h 1 v 1 h 1 v 1 h 1 v 1 h 1 v 1 h 0.969 v 0.969 h 1 v 1 h 1 v 1 h 1 v 1 h 1 v 1 h 1 v 1 h 1 v 1 h 0.969 v 0.969 h 1 v 1 h 1 v 1 h 1 v 1 h 1 v 1 h 1 v 1 h 0.969 v 0.969 h 1 v 1 h 1 v 1 h 1 v 1 h 1 v 1 h 1 v 1 h 0.969 v 0.969 h 1 v 1 h 1 v 1 h 1 v 1 h 1 v 1 h 1 v 1 h 1 v 1 h 0.969 v 0.969 h 1 v 1 h 1 v 1 h 1 v 1 h 1 v 1 h 1 v 1 h 0.969 v 0.781 c 9.473,1.252 19.12,1.938 28.938,1.938 112.39,0 204.99,-84.71 217.47,-193.75 -0.272,-0.128 -0.553,-0.246 -0.563,-0.25 v -0.531 c -10e-4,0 -0.983,-0.461 -1,-0.469 v -0.531 c -10e-4,0 -0.983,-0.461 -1,-0.469 v -0.531 c -10e-4,0 -0.983,-0.461 -1,-0.469 v -0.531 c -10e-4,0 -0.983,-0.461 -1,-0.469 v -0.531 l -0.969,-0.438 v -0.531 c -0.001,0 -0.983,-0.461 -1,-0.469 v -0.531 l -1,-0.469 v -0.531 c -0.001,0 -0.983,-0.461 -1,-0.469 v -0.531 l -1,-0.469 v -0.531 c -0.001,-10e-4 -0.983,-0.461 -1,-0.469 v -0.531 l -1,-0.469 v -0.531 c -0.001,0 -0.953,-0.43 -0.969,-0.438 v -0.531 l -1,-0.469 v -0.531 c -0.001,-10e-4 -0.983,-0.461 -1,-0.469 v -0.531 l -1,-0.469 v -0.531 c -0.001,-10e-4 -0.983,-0.461 -1,-0.469 v -0.531 l -1,-0.469 v -0.531 c -0.001,-10e-4 -0.953,-0.43 -0.969,-0.438 v -0.531 l -1,-0.469 v -0.531 c -0.001,-10e-4 -0.983,-0.461 -1,-0.469 v -0.531 l -1,-0.469 v -0.531 c -0.001,-10e-4 -0.983,-0.461 -1,-0.469 v -0.531 l -1,-0.469 v -0.531 c -0.001,-10e-4 -0.953,-0.43 -0.969,-0.438 v -0.531 l -1,-0.469 v -0.531 c -0.001,-0.001 -0.983,-0.461 -1,-0.469 v -0.531 l -1,-0.469 v -0.531 c -0.001,-0.001 -0.983,-0.461 -1,-0.469 v -0.531 l -1,-0.469 v -0.531 c -0.001,-0.001 -0.983,-0.461 -1,-0.469 v -0.531 l -0.969,-0.438 v -0.531 c -10e-4,-0.001 -0.983,-0.461 -1,-0.469 v -0.531 l -1,-0.469 v -0.531 c -10e-4,-0.001 -0.983,-0.461 -1,-0.469 v -0.531 l -1,-0.469 v -0.531 c -10e-4,-0.001 -0.983,-0.461 -1,-0.469 v -0.531 l -0.969,-0.438 v -0.531 c -10e-4,-0.001 -0.983,-0.461 -1,-0.469 v -0.531 l -1,-0.469 v -0.531 c -10e-4,-0.001 -0.983,-0.461 -1,-0.469 v -0.531 l -1,-0.469 v -0.531 c -10e-4,-0.001 -0.983,-0.461 -1,-0.469 v -0.531 l -0.969,-0.438 v -0.531 c -10e-4,-0.001 -0.982,-0.461 -1,-0.469 v -0.531 l -1,-0.469 v -0.531 c -10e-4,-0.001 -0.982,-0.461 -1,-0.469 v -0.531 l -1,-0.469 v -0.531 c -10e-4,-0.001 -0.982,-0.461 -1,-0.469 v -0.531 l -0.969,-0.438 v -0.531 c -0.002,-10e-4 -0.982,-0.461 -1,-0.469 v -0.531 l -1,-0.469 v -0.531 c -0.002,-10e-4 -0.982,-0.461 -1,-0.469 v -0.531 l -1,-0.469 v -0.531 c -0.002,-10e-4 -0.982,-0.461 -1,-0.469 v -0.531 l -1,-0.469 v -0.531 c -0.002,-10e-4 -0.952,-0.43 -0.969,-0.438 v -0.531 l -1,-0.469 v -0.531 c -0.002,-0.001 -0.982,-0.461 -1,-0.469 v -0.531 c -0.002,-0.001 -0.982,-0.461 -1,-0.469 v -0.531 c -0.002,-0.001 -0.982,-0.461 -1,-0.469 v -0.531 l -1,-0.469 v -0.531 c -0.002,-0.001 -0.952,-0.43 -0.969,-0.438 v -0.531 l -1,-0.469 v -0.531 c -0.002,-0.001 -0.982,-0.461 -1,-0.469 v -0.531 c -0.002,-0.001 -0.982,-0.461 -1,-0.469 v -0.531 c -0.002,-0.001 -0.982,-0.461 -1,-0.469 v -0.531 c -0.002,-0.001 -0.982,-0.461 -1,-0.469 v -0.531 c -0.002,-0.001 -0.952,-0.43 -0.969,-0.438 v -0.531 c -0.002,-0.001 -0.982,-0.461 -1,-0.469 v -0.531 c -0.002,-0.001 -0.982,-0.461 -1,-0.469 v -0.531 c -0.002,-0.001 -0.982,-0.461 -1,-0.469 v -0.531 c -0.002,-0.001 -0.982,-0.461 -1,-0.469 v -0.531 l -1,-0.469 v -0.531 c -0.002,-0.001 -0.982,-0.461 -1,-0.469 v -0.531 c -0.002,-0.001 -0.952,-0.43 -0.969,-0.438 v -0.531 c -0.002,-0.001 -0.982,-0.461 -1,-0.469 v -0.531 c -0.002,-0.001 -0.982,-0.461 -1,-0.469 v -0.531 l -1,-0.469 v -0.531 l -1,-0.469 v -0.531 l -1,-0.469 v -0.531 l -0.969,-0.438 v -0.531 l -1,-0.469 v -0.531 l -1,-0.469 v -0.531 l -1,-0.469 v -0.531 l -1,-0.469 v -0.531 l -1,-0.469 v -0.531 l -0.969,-0.438 v -0.531 l -1,-0.469 v -0.531 l -1,-0.469 v -0.531 l -1,-0.469 v -0.531 l -1,-0.469 v -0.531 l -1,-0.469 v -0.531 l -0.969,-0.438 v -0.531 l -1,-0.469 v -0.531 l -1,-0.469 v -0.531 l -1,-0.469 v -0.531 l -124.22,-56.75" inkscape:connector-curvature="0" transform="translate(0,540.36)" id="path10" fill-opacity="0.235"/>
   <path d="m 256,541.36 c -140.83,0 -255,114.17 -255,255 0,140.83 114.17,255 255,255 140.83,0 255,-114.17 255,-255 0,-140.83 -114.17,-255 -255,-255 m 8.827,44.931 c 120.9,0 218.9,98 218.9,218.9 0,120.9 -98,218.9 -218.9,218.9 -120.9,0 -218.93,-98 -218.93,-218.9 0,-120.9 98.03,-218.9 218.93,-218.9" inkscape:connector-curvature="0" id="path12" fill-opacity="0.067"/>
   <g id="g14" fill-opacity="0.129">
    <path d="M 256,544.79 C 117.06,544.79 4.43,657.42 4.43,796.36 4.43,935.3 117.06,1047.93 256,1047.93 394.94,1047.93 507.57,935.3 507.57,796.36 507.57,657.42 394.94,544.79 256,544.79 m 5.885,38.556 c 120.9,0 218.9,98 218.9,218.9 0,120.9 -98,218.9 -218.9,218.9 -120.9,0 -218.93,-98 -218.93,-218.9 0,-120.9 98.03,-218.9 218.93,-218.9" inkscape:connector-curvature="0" id="path16"/>
    <path d="M 256,548.72 C 119.23,548.72 8.36,659.59 8.36,796.36 8.36,933.13 119.23,1044 256,1044 392.77,1044 503.64,933.13 503.64,796.36 503.64,659.59 392.77,548.72 256,548.72 m 2.942,31.691 c 120.9,0 218.9,98 218.9,218.9 0,120.9 -98,218.9 -218.9,218.9 -120.9,0 -218.93,-98 -218.93,-218.9 0,-120.9 98.03,-218.9 218.93,-218.9" inkscape:connector-curvature="0" id="path18"/>
   </g>
   <path d="M 253.04,548.22 C 117.62,548.22 7.85,658 7.85,793.41 c 0,135.42 109.78,245.19 245.19,245.19 135.42,0 245.19,-109.78 245.19,-245.19 0,-135.42 -109.78,-245.19 -245.19,-245.19 z m 0,26.297 c 120.9,0 218.9,98 218.9,218.9 0,120.9 -98,218.9 -218.9,218.9 -120.9,0 -218.93,-98 -218.93,-218.9 0,-120.9 98.03,-218.9 218.93,-218.9 z" inkscape:connector-curvature="0" id="path20" stroke-opacity="0.31" fill="#ffffff" stroke="#000000" stroke-width="4.904"/>
  </g>
  <text x="729.64" y="771.72" id="text22" font-family="Gentium Book Basic" word-spacing="0" line-height="125%" letter-spacing="0" font-size="129.23"><tspan x="729.64" y="771.72" id="tspan24"/>
  </text>
  <text x="378.91" y="2747.64" transform="scale(4.0128,0.2492)" id="text26" font-family="Arial" text-anchor="middle" font-size="46.954"/>
  <text x="1310.91" y="691.72" id="text28" font-family="Gentium Book Basic" word-spacing="0" line-height="125%" letter-spacing="0" font-size="129.23"><tspan x="1310.91" y="691.72" id="tspan30"/>
  </text>
  <text x="523.76" y="2426.6" transform="scale(4.0128,0.2492)" id="text32" font-family="Arial" text-anchor="middle" font-size="46.954"/>
  <text x="239.33" y="510.46" id="text34" font-family="Gentium Book Basic" word-spacing="0" line-height="125%" letter-spacing="0" font-size="129.23"><tspan x="239.33" y="510.46" id="tspan36"/>
  </text>
  <text x="256.72" y="1699.25" transform="scale(4.0128,0.2492)" id="text38" font-family="Arial" text-anchor="middle" font-size="46.954"/>
  <text x="1337.38" y="293.99" id="text40" font-family="Gentium Book Basic" word-spacing="0" line-height="125%" letter-spacing="0" font-size="129.23"><tspan x="1337.38" y="293.99" id="tspan42"/>
  </text>
  <text x="530.36" y="830.57" transform="scale(4.0128,0.2492)" id="text44" font-family="Arial" text-anchor="middle" font-size="46.954"/>
  <text x="1918.65" y="213.99" id="text46" font-family="Gentium Book Basic" word-spacing="0" line-height="125%" letter-spacing="0" font-size="129.23"><tspan x="1918.65" y="213.99" id="tspan48"/>
  </text>
  <text x="675.21" y="509.54" transform="scale(4.0128,0.2492)" id="text50" font-family="Arial" text-anchor="middle" font-size="46.954"/>
  <text x="1529.53" y="-258.41" id="text52" font-family="Gentium Book Basic" word-spacing="0" line-height="125%" letter-spacing="0" font-size="129.23"><tspan x="1529.53" y="-258.41" id="tspan54"/>
  </text>
  <text x="578.24" y="-1386.12" transform="scale(4.0128,0.2492)" id="text56" font-family="Arial" text-anchor="middle" font-size="46.954"/>
  <text x="2110.79" y="-338.42" id="text58" font-family="Gentium Book Basic" word-spacing="0" line-height="125%" letter-spacing="0" font-size="129.23"><tspan x="2110.79" y="-338.42" id="tspan60"/>
  </text>
  <text x="723.09" y="-1707.16" transform="scale(4.0128,0.2492)" id="text62" font-family="Arial" text-anchor="middle" font-size="46.954"/>
  <text x="277.99" y="1076.3" id="text64" font-family="Gentium Book Basic" word-spacing="0" line-height="125%" letter-spacing="0" font-size="208.33"><tspan x="277.99" y="1076.3" id="tspan66"/>
  </text>
  <g transform="matrix(0.48483,0,0,0.48483,-462.77,396.84)" id="g68" fill="#ffffff" fill-rule="evenodd">
   <g transform="translate(0,540.36)" id="g70">
    <path d="m 1470.5,13.781 -255.78,117.06 v 19.813 h 39.969 c -0.086,0.639 -0.125,1.28 -0.125,1.938 0,10.185 10.564,18.375 23.688,18.375 h 385.03 c 13.12,0 23.688,-8.19 23.688,-18.375 0,-0.657 -0.039,-1.298 -0.125,-1.938 h 39.906 v -19.781 l -256.25,-117.09" inkscape:connector-curvature="0" id="path72"/>
    <path d="m 1278.16,426.44 c -13.06,0 -23.562,7.01 -23.562,15.719 v 3.75 2.281 18.219 h 433.38 v -18.219 -2.281 -3.75 c 0,-8.707 -10.505,-15.719 -23.563,-15.719 h -386.25" inkscape:connector-curvature="0" id="path74"/>
   </g>
   <path d="m 1243.4,1024.8 c -15.407,0 -27.803,7.01 -27.803,15.719 v 3.75 2.281 18.219 h 511.38 v -18.219 -2.281 -3.75 c 0,-8.707 -12.396,-15.719 -27.803,-15.719 h -455.77" inkscape:connector-curvature="0" id="path76"/>
   <path d="m 1293.5,188.5 h 59.5 v 241 h -59.5 z" inkscape:connector-curvature="0" transform="translate(0,540.36)" id="path78"/>
   <path d="m 1391.5,728.86 h 59.5 v 241 h -59.5 z" inkscape:connector-curvature="0" id="path80"/>
   <path d="m 1490,728.86 h 59.5 v 241 H 1490 z" inkscape:connector-curvature="0" id="path82"/>
   <path d="m 1589.5,728.86 h 59.5 v 241 h -59.5 z" inkscape:connector-curvature="0" id="path84"/>
  </g>
 </g>
</svg>
