<?xml version="1.0" encoding="UTF-8" standalone="no"?>
<svg xmlns="http://www.w3.org/2000/svg" xmlns:inkscape="http://www.inkscape.org/namespaces/inkscape" version="1.1" width="512" height="512" viewBox="0 0 512 512">
 <metadata id="metadata72"/>
 <path d="m 471.95,253.05 c 0,120.9 -98.01,218.9 -218.9,218.9 -120.9,0 -218.9,-98.01 -218.9,-218.9 0,-120.9 98.01,-218.9 218.9,-218.9 120.9,0 218.9,98.01 218.9,218.9" inkscape:connector-curvature="0" id="path4" fill="#BF9E73" fill-rule="evenodd"/>
 <path d="m 221.53,132.84 c -30.08,14.363 -52.737,51.61 -90.91,43.813 -23.681,-3.312 -63.62,-5.35 -44,30.22 9.758,32.17 30.486,58.59 55.25,80.56 58.48,58.2 116.73,116.64 175,175.06 89.75,-27.325 155.06,-110.75 155.06,-209.44 0,-0.24 10e-4,-0.479 0,-0.719 -14.291,-14.393 -28.936,-28.767 -43.28,-43.688 -27.464,-16.806 -64.52,20.273 -95.22,2.031 -19.768,-13.789 -46.29,-18.639 -64.19,-30.28 -15.902,-15.892 -31.673,-31.93 -47.719,-47.563" inkscape:connector-curvature="0" id="path6" fill-opacity="0.235"/>
 <g id="g8" fill-rule="evenodd">
  <path d="M 256,1 C 115.17,1 1,115.17 1,256 1,396.83 115.17,511 256,511 396.83,511 511,396.83 511,256 511,115.17 396.83,1 256,1 m 8.827,44.931 c 120.9,0 218.9,98 218.9,218.9 0,120.9 -98,218.9 -218.9,218.9 -120.9,0 -218.93,-98 -218.93,-218.9 0,-120.9 98.03,-218.9 218.93,-218.9" inkscape:connector-curvature="0" id="path10" fill-opacity="0.067"/>
  <g id="g12" fill-opacity="0.129">
   <path d="m 256,4.433 c -138.94,0 -251.57,112.63 -251.57,251.57 0,138.94 112.63,251.57 251.57,251.57 138.94,0 251.57,-112.63 251.57,-251.57 C 507.57,117.063 394.94,4.433 256,4.433 m 5.885,38.556 c 120.9,0 218.9,98 218.9,218.9 0,120.9 -98,218.9 -218.9,218.9 -120.9,0 -218.93,-98 -218.93,-218.9 0,-120.9 98.03,-218.9 218.93,-218.9" inkscape:connector-curvature="0" id="path14"/>
   <path d="m 256,8.356 c -136.77,0 -247.64,110.87 -247.64,247.64 0,136.77 110.87,247.64 247.64,247.64 136.77,0 247.64,-110.87 247.64,-247.64 C 503.64,119.226 392.77,8.356 256,8.356 m 2.942,31.691 c 120.9,0 218.9,98 218.9,218.9 0,120.9 -98,218.9 -218.9,218.9 -120.9,0 -218.93,-98 -218.93,-218.9 0,-120.9 98.03,-218.9 218.93,-218.9" inkscape:connector-curvature="0" id="path16"/>
  </g>
  <path d="m 253.04,7.859 c -135.42,0 -245.19,109.78 -245.19,245.19 0,135.42 109.78,245.19 245.19,245.19 135.42,0 245.19,-109.78 245.19,-245.19 0,-135.42 -109.78,-245.19 -245.19,-245.19 z m 0,26.297 c 120.9,0 218.9,98 218.9,218.9 0,120.9 -98,218.9 -218.9,218.9 -120.9,0 -218.93,-98 -218.93,-218.9 0,-120.9 98.03,-218.9 218.93,-218.9 z" inkscape:connector-curvature="0" id="path18" stroke-opacity="0.31" fill="#ffffff" stroke="#000000" stroke-width="4.904"/>
 </g>
 <text x="729.64" y="231.36" id="text20" font-family="Gentium Book Basic" word-spacing="0" line-height="125%" letter-spacing="0" font-size="129.23"><tspan x="729.64" y="231.36" id="tspan22"/>
 </text>
 <text x="378.91" y="579.25" transform="scale(4.0128,0.2492)" id="text24" font-family="Arial" text-anchor="middle" font-size="46.954"/>
 <text x="1310.91" y="151.36" id="text26" font-family="Gentium Book Basic" word-spacing="0" line-height="125%" letter-spacing="0" font-size="129.23"><tspan x="1310.91" y="151.36" id="tspan28"/>
 </text>
 <text x="523.76" y="258.22" transform="scale(4.0128,0.2492)" id="text30" font-family="Arial" text-anchor="middle" font-size="46.954"/>
 <text x="239.33" y="-29.901" id="text32" font-family="Gentium Book Basic" word-spacing="0" line-height="125%" letter-spacing="0" font-size="129.23"><tspan x="239.33" y="-29.901" id="tspan34"/>
 </text>
 <text x="256.72" y="-469.14" transform="scale(4.0128,0.2492)" id="text36" font-family="Arial" text-anchor="middle" font-size="46.954"/>
 <text x="1337.38" y="-246.37" id="text38" font-family="Gentium Book Basic" word-spacing="0" line-height="125%" letter-spacing="0" font-size="129.23"><tspan x="1337.38" y="-246.37" id="tspan40"/>
 </text>
 <text x="530.36" y="-1337.81" transform="scale(4.0128,0.2492)" id="text42" font-family="Arial" text-anchor="middle" font-size="46.954"/>
 <text x="1918.65" y="-326.38" id="text44" font-family="Gentium Book Basic" word-spacing="0" line-height="125%" letter-spacing="0" font-size="129.23"><tspan x="1918.65" y="-326.38" id="tspan46"/>
 </text>
 <text x="675.21" y="-1658.85" transform="scale(4.0128,0.2492)" id="text48" font-family="Arial" text-anchor="middle" font-size="46.954"/>
 <text x="1529.53" y="-798.78" id="text50" font-family="Gentium Book Basic" word-spacing="0" line-height="125%" letter-spacing="0" font-size="129.23"><tspan x="1529.53" y="-798.78" id="tspan52"/>
 </text>
 <text x="578.24" y="-3554.51" transform="scale(4.0128,0.2492)" id="text54" font-family="Arial" text-anchor="middle" font-size="46.954"/>
 <text x="2110.79" y="-878.78" id="text56" font-family="Gentium Book Basic" word-spacing="0" line-height="125%" letter-spacing="0" font-size="129.23"><tspan x="2110.79" y="-878.78" id="tspan58"/>
 </text>
 <text x="723.09" y="-3875.54" transform="scale(4.0128,0.2492)" id="text60" font-family="Arial" text-anchor="middle" font-size="46.954"/>
 <text x="277.99" y="535.94" id="text62" font-family="Gentium Book Basic" word-spacing="0" line-height="125%" letter-spacing="0" font-size="208.33"><tspan x="277.99" y="535.94" id="tspan64"/>
 </text>
 <path d="m 221.09,132.86 c -0.94,0.086 -2.373,0.537 -3.631,1.179 -3.776,1.926 -18.742,13.349 -26.836,20.469 -12.551,11.04 -28.686,20.21 -38.485,21.884 -3.853,0.659 -9.672,0.737 -21.506,0.259 -8.923,-0.36 -22.17,-0.672 -29.43,-0.684 -15.971,-0.027 -17.698,0.54 -18.511,5.966 -0.579,3.861 0.649,14.276 2.382,20.16 3.519,11.951 12.237,31.1 20.917,45.913 3.806,6.497 6.543,9.868 15.21,18.771 5.811,5.968 14.763,14.281 19.903,18.464 6.84,5.567 11.07,9.74 15.705,15.564 6.138,7.704 14.349,15.682 20.61,20.02 1.671,1.158 5.17,2.726 7.758,3.466 16.198,4.633 36.13,-2.614 42.38,-15.375 2.918,-5.966 5.695,-17.97 6.508,-28.09 0.854,-10.62 2.288,-19.46 4.976,-30.939 1.069,-4.565 2.556,-11.02 3.325,-14.338 3.547,-15.312 3.544,-25.17 -0.094,-50.44 -1.473,-10.23 -5.899,-26.296 -10.305,-37.471 -2.156,-5.469 -8.07,-14.09 -10.116,-14.738 -0.182,-0.058 -0.441,-0.076 -0.755,-0.047 m 59.38,53.624 c -0.355,-0.012 -0.696,0.002 -1.014,0.024 -0.339,0.023 -0.645,0.058 -0.943,0.118 -6.262,1.252 -11.724,13.767 -13.583,31.17 -1.585,14.838 -0.737,45.33 1.533,55.44 1.746,7.775 9.632,28.795 14.267,38.01 4.545,9.04 6.567,14.467 8.395,22.544 3.303,14.588 9.961,28.434 16.483,34.26 10.176,9.1 25.04,13.09 37.66,10.116 6.383,-1.505 11.546,-4.249 15.304,-8.112 5.629,-5.786 12.52,-15.14 16.672,-22.638 4.721,-8.53 11.172,-17.868 18.653,-26.977 6.962,-8.478 15.16,-20.343 18.13,-26.25 2.819,-5.601 10.557,-28.14 12.781,-37.21 1.757,-7.164 4.646,-28.889 4.646,-34.971 0,-6.72 -2.193,-14.809 -4.693,-17.309 -2.105,-2.105 -2.369,-2.166 -7.239,-1.674 -6.838,0.69 -18.16,3.034 -25.869,5.353 -16.274,4.899 -34.915,7.831 -43.32,6.791 -8.372,-1.036 -18.291,-5.331 -39.22,-16.931 -13.934,-7.724 -23.335,-11.593 -28.651,-11.767 m -59.873,3.584 c 1.22,-0.238 11.162,12.536 11.154,14.338 0,0.533 -8.771,6.485 -19.502,13.229 -10.731,6.744 -19.901,12.262 -20.374,12.262 -0.474,0 -0.873,-0.295 -0.873,-0.66 0,-1.293 28.449,-38.945 29.595,-39.17 m -102.13,33.04 c 2.058,0 44.669,13.352 45.607,14.29 0.434,0.434 0.604,0.976 0.354,1.226 -0.251,0.251 -9.399,1.1 -20.327,1.887 -10.928,0.786 -21.492,1.454 -23.464,1.462 h -3.584 v -9.433 c 0,-8.739 0.097,-9.433 1.415,-9.433 m 205.32,29.43 c 1.11,-0.001 1.562,0.282 1.132,0.684 -1.142,1.065 -36.34,19.69 -37.21,19.69 -0.432,0 -0.911,-0.255 -1.085,-0.566 -0.595,-1.064 -3.01,-14.582 -2.665,-14.927 0.392,-0.393 37.01,-4.88 39.829,-4.881 m 37.24,4.03 c 0.372,-0.372 38.37,13.917 39.19,14.738 0.735,0.731 -5.493,14.441 -6.556,14.432 -0.44,-0.004 -8.02,-6.501 -16.861,-14.432 -8.839,-7.931 -15.947,-14.567 -15.776,-14.738 m -144.34,8.772 c 2.337,-0.154 3.68,1.017 5.259,4.174 1.654,3.307 1.887,4.764 1.887,11.72 0,7.42 -0.147,8.262 -2.429,12.899 -2.983,6.06 -9.09,12.06 -15.04,14.786 -5.145,2.356 -15.796,3.084 -21.435,1.486 -10.726,-3.041 -21.19,-14.634 -21.388,-23.699 -0.121,-5.597 0.613,-5.872 15.611,-5.872 12.605,0 13.12,-0.065 17.14,-2.052 2.283,-1.126 7.04,-4.446 10.564,-7.381 3.528,-2.935 7.15,-5.526 8.04,-5.754 0.66,-0.168 1.253,-0.271 1.792,-0.307 m 113.95,47.19 c 0.775,-0.009 1.648,0 2.618,0 7.518,0 8.691,0.205 12.498,2.075 5.149,2.529 10.78,7.923 13.182,12.663 3.281,6.474 4.196,17.504 1.839,21.907 -1.326,2.477 -4.527,1.735 -14.01,-3.207 -8.754,-4.563 -9.146,-4.697 -15.823,-4.999 -5.623,-0.255 -8.211,0.056 -14.479,1.674 -4.197,1.084 -8.5,1.957 -9.55,1.957 -2.658,0 -3.699,-2.349 -3.325,-7.522 0.635,-8.784 7.354,-17.896 16.318,-22.14 4.127,-1.955 5.302,-2.342 10.73,-2.405" inkscape:connector-curvature="0" id="path66" fill="#ffffff"/>
</svg>
