<?xml version="1.0" encoding="UTF-8" standalone="no"?>
<svg xmlns="http://www.w3.org/2000/svg" xmlns:inkscape="http://www.inkscape.org/namespaces/inkscape" version="1.1" width="512" height="512" viewBox="0 0 512 512">
 <metadata id="metadata122"/>
 <path d="m 471.95,253.05 c 0,120.9 -98.01,218.9 -218.9,218.9 -120.9,0 -218.9,-98.01 -218.9,-218.9 0,-120.9 98.01,-218.9 218.9,-218.9 120.9,0 218.9,98.01 218.9,218.9" inkscape:connector-curvature="0" id="path4" fill="#BF9E73" fill-rule="evenodd"/>
 <path d="m 238.13,108.88 c -5.12,0.15 -3.386,19.785 -8.656,11.438 -6.681,-12.04 -20.652,-13.563 -16.906,3 -1.169,5.439 -12.998,-14.12 -18.313,-14.313 -8.06,5.92 -2.407,19.422 -4.094,28.75 3.534,7.856 21.608,17.833 3.063,14.906 -18.216,-3.127 -39.08,9.07 -35.875,29.813 -1.228,6.215 3.738,27.577 -5.563,14.594 -6.68,-8.241 -14.43,-15.435 -25.781,-12.688 -13.373,-3.561 -22.473,6.194 -8.188,14.5 18.304,13.222 -8.356,2.253 -8.375,14.03 2.369,5.224 24.24,18.09 10.938,16.75 -17.224,-2.901 -8.116,12.665 1,18.09 13.145,8.445 -25.16,0.04 -8.25,14.219 11.616,9.437 11.674,11.542 -2.969,12 -6.01,8.406 22.18,19.749 11.156,21.22 -17.774,-3.13 -9.742,12.279 0.281,18.09 22.815,22.545 46.26,44.738 68.53,67.66 11.679,15.364 27.622,28.22 40.969,42.594 15.665,15.646 31.32,31.31 46.969,46.969 102.51,-11.66 183.5,-94.08 192.94,-197.25 -54.55,-54.632 -109.08,-109.25 -163.91,-163.72 -11.795,-0.3 -0.645,26.758 -13.844,8.438 -8.414,-14.383 -18.265,-5.267 -14.688,8.25 -7.172,-4.155 -15.547,-23.457 -22.844,-13.09 2.71,16.02 -3.604,10.766 -11.375,1.281 -2.809,-4.05 -4.785,-5.573 -6.219,-5.531" inkscape:connector-curvature="0" id="path6" fill-opacity="0.235"/>
 <g id="g8" fill-rule="evenodd">
  <path d="M 256,1 C 115.17,1 1,115.17 1,256 1,396.83 115.17,511 256,511 396.83,511 511,396.83 511,256 511,115.17 396.83,1 256,1 m 8.827,44.931 c 120.9,0 218.9,98 218.9,218.9 0,120.9 -98,218.9 -218.9,218.9 -120.9,0 -218.93,-98 -218.93,-218.9 0,-120.9 98.03,-218.9 218.93,-218.9" inkscape:connector-curvature="0" id="path10" fill-opacity="0.067"/>
  <g id="g12" fill-opacity="0.129">
   <path d="m 256,4.433 c -138.94,0 -251.57,112.63 -251.57,251.57 0,138.94 112.63,251.57 251.57,251.57 138.94,0 251.57,-112.63 251.57,-251.57 C 507.57,117.063 394.94,4.433 256,4.433 m 5.885,38.556 c 120.9,0 218.9,98 218.9,218.9 0,120.9 -98,218.9 -218.9,218.9 -120.9,0 -218.93,-98 -218.93,-218.9 0,-120.9 98.03,-218.9 218.93,-218.9" inkscape:connector-curvature="0" id="path14"/>
   <path d="m 256,8.356 c -136.77,0 -247.64,110.87 -247.64,247.64 0,136.77 110.87,247.64 247.64,247.64 136.77,0 247.64,-110.87 247.64,-247.64 C 503.64,119.226 392.77,8.356 256,8.356 m 2.942,31.691 c 120.9,0 218.9,98 218.9,218.9 0,120.9 -98,218.9 -218.9,218.9 -120.9,0 -218.93,-98 -218.93,-218.9 0,-120.9 98.03,-218.9 218.93,-218.9" inkscape:connector-curvature="0" id="path16"/>
  </g>
  <path d="m 253.04,7.859 c -135.42,0 -245.19,109.78 -245.19,245.19 0,135.42 109.78,245.19 245.19,245.19 135.42,0 245.19,-109.78 245.19,-245.19 0,-135.42 -109.78,-245.19 -245.19,-245.19 z m 0,26.297 c 120.9,0 218.9,98 218.9,218.9 0,120.9 -98,218.9 -218.9,218.9 -120.9,0 -218.93,-98 -218.93,-218.9 0,-120.9 98.03,-218.9 218.93,-218.9 z" inkscape:connector-curvature="0" id="path18" stroke-opacity="0.31" fill="#ffffff" stroke="#000000" stroke-width="4.904"/>
 </g>
 <text x="729.64" y="231.36" id="text20" font-family="Gentium Book Basic" word-spacing="0" line-height="125%" letter-spacing="0" font-size="129.23"><tspan x="729.64" y="231.36" id="tspan22"/>
 </text>
 <text x="378.91" y="579.25" transform="scale(4.0128,0.2492)" id="text24" font-family="Arial" text-anchor="middle" font-size="46.954"/>
 <text x="1310.91" y="151.36" id="text26" font-family="Gentium Book Basic" word-spacing="0" line-height="125%" letter-spacing="0" font-size="129.23"><tspan x="1310.91" y="151.36" id="tspan28"/>
 </text>
 <text x="523.76" y="258.22" transform="scale(4.0128,0.2492)" id="text30" font-family="Arial" text-anchor="middle" font-size="46.954"/>
 <text x="239.33" y="-29.901" id="text32" font-family="Gentium Book Basic" word-spacing="0" line-height="125%" letter-spacing="0" font-size="129.23"><tspan x="239.33" y="-29.901" id="tspan34"/>
 </text>
 <text x="256.72" y="-469.14" transform="scale(4.0128,0.2492)" id="text36" font-family="Arial" text-anchor="middle" font-size="46.954"/>
 <text x="1337.38" y="-246.37" id="text38" font-family="Gentium Book Basic" word-spacing="0" line-height="125%" letter-spacing="0" font-size="129.23"><tspan x="1337.38" y="-246.37" id="tspan40"/>
 </text>
 <text x="530.36" y="-1337.81" transform="scale(4.0128,0.2492)" id="text42" font-family="Arial" text-anchor="middle" font-size="46.954"/>
 <text x="1918.65" y="-326.38" id="text44" font-family="Gentium Book Basic" word-spacing="0" line-height="125%" letter-spacing="0" font-size="129.23"><tspan x="1918.65" y="-326.38" id="tspan46"/>
 </text>
 <text x="675.21" y="-1658.85" transform="scale(4.0128,0.2492)" id="text48" font-family="Arial" text-anchor="middle" font-size="46.954"/>
 <text x="1529.53" y="-798.78" id="text50" font-family="Gentium Book Basic" word-spacing="0" line-height="125%" letter-spacing="0" font-size="129.23"><tspan x="1529.53" y="-798.78" id="tspan52"/>
 </text>
 <text x="578.24" y="-3554.51" transform="scale(4.0128,0.2492)" id="text54" font-family="Arial" text-anchor="middle" font-size="46.954"/>
 <text x="2110.79" y="-878.78" id="text56" font-family="Gentium Book Basic" word-spacing="0" line-height="125%" letter-spacing="0" font-size="129.23"><tspan x="2110.79" y="-878.78" id="tspan58"/>
 </text>
 <text x="723.09" y="-3875.54" transform="scale(4.0128,0.2492)" id="text60" font-family="Arial" text-anchor="middle" font-size="46.954"/>
 <text x="277.99" y="535.94" id="text62" font-family="Gentium Book Basic" word-spacing="0" line-height="125%" letter-spacing="0" font-size="208.33"><tspan x="277.99" y="535.94" id="tspan64"/>
 </text>
 <g transform="matrix(4.73421,0,0,4.73421,95.46,95.54)" id="g66" fill="#ffffff">
  <path d="m 44.28,9.785 c 0.48,0 0.871,-0.389 0.871,-0.869 V 3.713 c 0,-0.48 -0.391,-0.871 -0.871,-0.871 -0.479,0 -0.869,0.391 -0.869,0.871 v 5.203 c 0,0.48 0.391,0.869 0.869,0.869" inkscape:connector-curvature="0" id="path68"/>
  <path d="m 39.544,9.785 c 0.481,0 0.872,-0.389 0.872,-0.869 V 3.713 c 0,-0.48 -0.391,-0.871 -0.872,-0.871 -0.478,0 -0.868,0.391 -0.868,0.871 v 5.203 c 0,0.48 0.39,0.869 0.868,0.869" inkscape:connector-curvature="0" id="path70"/>
  <path d="m 34.719,9.785 c 0.479,0 0.867,-0.389 0.867,-0.869 V 3.713 c 0,-0.48 -0.389,-0.871 -0.867,-0.871 -0.48,0 -0.871,0.391 -0.871,0.871 v 5.203 c 0,0.48 0.39,0.869 0.871,0.869" inkscape:connector-curvature="0" id="path72"/>
  <path d="m 29.98,9.785 c 0.479,0 0.869,-0.389 0.869,-0.869 V 3.713 c 0,-0.48 -0.391,-0.871 -0.869,-0.871 -0.48,0 -0.87,0.391 -0.87,0.871 v 5.203 c 0,0.48 0.39,0.869 0.87,0.869" inkscape:connector-curvature="0" id="path74"/>
  <path d="m 25.609,9.785 c 0.477,0 0.868,-0.389 0.868,-0.869 V 3.713 c 0,-0.48 -0.391,-0.871 -0.868,-0.871 -0.482,0 -0.871,0.391 -0.871,0.871 v 5.203 c 0,0.48 0.389,0.869 0.871,0.869" inkscape:connector-curvature="0" id="path76"/>
  <path d="m 20.87,9.785 c 0.479,0 0.868,-0.389 0.868,-0.869 V 3.713 c 0,-0.48 -0.389,-0.871 -0.868,-0.871 -0.48,0 -0.87,0.39 -0.87,0.871 v 5.203 c 0,0.48 0.39,0.869 0.87,0.869" inkscape:connector-curvature="0" id="path78"/>
  <path d="M 8.912,18.761 H 3.711 c -0.48,0 -0.869,0.391 -0.869,0.869 0,0.478 0.389,0.869 0.869,0.869 h 5.201 c 0.482,0 0.871,-0.391 0.871,-0.869 0,-0.478 -0.389,-0.869 -0.871,-0.869" inkscape:connector-curvature="0" id="path80"/>
  <path d="M 8.912,23.5 H 3.711 c -0.48,0 -0.869,0.389 -0.869,0.868 0,0.48 0.389,0.869 0.869,0.869 h 5.201 c 0.482,0 0.871,-0.389 0.871,-0.869 0,-0.48 -0.389,-0.868 -0.871,-0.868" inkscape:connector-curvature="0" id="path82"/>
  <path d="M 8.912,28.328 H 3.711 c -0.48,0 -0.869,0.389 -0.869,0.871 0,0.479 0.389,0.868 0.869,0.868 h 5.201 c 0.482,0 0.871,-0.389 0.871,-0.868 0,-0.482 -0.389,-0.871 -0.871,-0.871" inkscape:connector-curvature="0" id="path84"/>
  <path d="M 8.912,33.06 H 3.711 c -0.48,0 -0.869,0.391 -0.869,0.869 0,0.478 0.389,0.869 0.869,0.869 h 5.201 c 0.482,0 0.871,-0.391 0.871,-0.869 0,-0.478 -0.389,-0.869 -0.871,-0.869" inkscape:connector-curvature="0" id="path86"/>
  <path d="M 8.912,37.434 H 3.711 c -0.48,0 -0.869,0.391 -0.869,0.869 0,0.482 0.389,0.873 0.869,0.873 h 5.201 c 0.482,0 0.871,-0.391 0.871,-0.873 0,-0.479 -0.389,-0.869 -0.871,-0.869" inkscape:connector-curvature="0" id="path88"/>
  <path d="M 8.912,42.17 H 3.711 c -0.48,0 -0.869,0.388 -0.869,0.869 0,0.479 0.389,0.87 0.869,0.87 h 5.201 c 0.482,0 0.871,-0.391 0.871,-0.87 0,-0.481 -0.389,-0.869 -0.871,-0.869" inkscape:connector-curvature="0" id="path90"/>
  <path d="m 44.28,54.22 c -0.479,0 -0.869,0.391 -0.869,0.869 v 5.203 c 0,0.481 0.391,0.869 0.869,0.869 0.48,0 0.871,-0.388 0.871,-0.869 v -5.203 c 0,-0.479 -0.39,-0.869 -0.871,-0.869" inkscape:connector-curvature="0" id="path92"/>
  <path d="m 39.544,54.22 c -0.478,0 -0.868,0.391 -0.868,0.869 v 5.203 c 0,0.481 0.391,0.869 0.868,0.869 0.481,0 0.872,-0.388 0.872,-0.869 v -5.203 c 0,-0.479 -0.391,-0.869 -0.872,-0.869" inkscape:connector-curvature="0" id="path94"/>
  <path d="m 34.719,54.22 c -0.48,0 -0.871,0.391 -0.871,0.869 v 5.203 c 0,0.481 0.391,0.869 0.871,0.869 0.479,0 0.867,-0.388 0.867,-0.869 v -5.203 c 0,-0.479 -0.389,-0.869 -0.867,-0.869" inkscape:connector-curvature="0" id="path96"/>
  <path d="m 29.98,54.22 c -0.48,0 -0.87,0.391 -0.87,0.869 v 5.203 c 0,0.481 0.389,0.869 0.87,0.869 0.479,0 0.869,-0.388 0.869,-0.869 v -5.203 c 0,-0.479 -0.391,-0.869 -0.869,-0.869" inkscape:connector-curvature="0" id="path98"/>
  <path d="m 25.609,54.22 c -0.482,0 -0.871,0.391 -0.871,0.869 v 5.203 c 0,0.481 0.389,0.869 0.871,0.869 0.477,0 0.868,-0.388 0.868,-0.869 v -5.203 c 0,-0.479 -0.391,-0.869 -0.868,-0.869" inkscape:connector-curvature="0" id="path100"/>
  <path d="m 20.87,54.22 c -0.48,0 -0.871,0.391 -0.871,0.869 v 5.203 c 0,0.481 0.391,0.869 0.871,0.869 0.479,0 0.868,-0.388 0.868,-0.869 v -5.203 c 0,-0.479 -0.389,-0.869 -0.868,-0.869" inkscape:connector-curvature="0" id="path102"/>
  <path d="m 46.699,12.06 h -28.25 c -2.964,0 -5.378,2.416 -5.378,5.38 v 28.25 c 0,2.969 2.414,5.385 5.378,5.385 h 28.25 c 2.965,0 5.381,-2.416 5.381,-5.385 V 17.44 c 0,-2.964 -2.416,-5.38 -5.381,-5.38 m -25.516,8.584 c -0.948,0 -1.716,-0.768 -1.716,-1.714 0,-0.946 0.768,-1.716 1.716,-1.716 0.944,0 1.714,0.77 1.714,1.716 0,0.946 -0.77,1.714 -1.714,1.714 m 20.48,19.445 H 23.68 v -18.15 h 17.983 v 18.15" inkscape:connector-curvature="0" id="path104"/>
  <path d="m 55.08,20.499 h 5.204 c 0.48,0 0.871,-0.391 0.871,-0.869 0,-0.478 -0.391,-0.869 -0.871,-0.869 H 55.08 c -0.479,0 -0.869,0.391 -0.869,0.869 0,0.478 0.39,0.869 0.869,0.869" inkscape:connector-curvature="0" id="path106"/>
  <path d="m 60.29,23.5 h -5.204 c -0.479,0 -0.869,0.389 -0.869,0.868 0,0.48 0.391,0.869 0.869,0.869 h 5.204 c 0.48,0 0.871,-0.389 0.871,-0.869 0,-0.48 -0.39,-0.868 -0.871,-0.868" inkscape:connector-curvature="0" id="path108"/>
  <path d="m 60.29,28.328 h -5.204 c -0.479,0 -0.869,0.389 -0.869,0.871 0,0.479 0.391,0.868 0.869,0.868 h 5.204 c 0.48,0 0.871,-0.389 0.871,-0.868 0,-0.482 -0.39,-0.871 -0.871,-0.871" inkscape:connector-curvature="0" id="path110"/>
  <path d="m 60.29,33.06 h -5.204 c -0.479,0 -0.869,0.391 -0.869,0.869 0,0.478 0.391,0.869 0.869,0.869 h 5.204 c 0.48,0 0.871,-0.391 0.871,-0.869 0,-0.478 -0.39,-0.869 -0.871,-0.869" inkscape:connector-curvature="0" id="path112"/>
  <path d="m 60.29,37.434 h -5.204 c -0.479,0 -0.869,0.391 -0.869,0.869 0,0.482 0.391,0.873 0.869,0.873 h 5.204 c 0.48,0 0.871,-0.391 0.871,-0.873 0,-0.479 -0.39,-0.869 -0.871,-0.869" inkscape:connector-curvature="0" id="path114"/>
  <path d="m 60.29,42.17 h -5.204 c -0.479,0 -0.869,0.388 -0.869,0.869 0,0.479 0.391,0.87 0.869,0.87 h 5.204 c 0.48,0 0.871,-0.391 0.871,-0.87 0,-0.481 -0.39,-0.869 -0.871,-0.869" inkscape:connector-curvature="0" id="path116"/>
 </g>
</svg>
