<?xml version="1.0" encoding="UTF-8" standalone="no"?>
<svg
   xmlns:dc="http://purl.org/dc/elements/1.1/"
   xmlns:cc="http://creativecommons.org/ns#"
   xmlns:rdf="http://www.w3.org/1999/02/22-rdf-syntax-ns#"
   xmlns:svg="http://www.w3.org/2000/svg"
   xmlns="http://www.w3.org/2000/svg"
   xmlns:sodipodi="http://sodipodi.sourceforge.net/DTD/sodipodi-0.dtd"
   xmlns:inkscape="http://www.inkscape.org/namespaces/inkscape"
   height="512"
   viewBox="0 0 512 512"
   width="512"
   version="1.1"
   id="svg2"
   inkscape:version="0.91 r13725"
   sodipodi:docname="applications-3D.svg">
  <sodipodi:namedview
     pagecolor="#ffffff"
     bordercolor="#666666"
     borderopacity="1"
     objecttolerance="10"
     gridtolerance="10"
     guidetolerance="10"
     inkscape:pageopacity="0"
     inkscape:pageshadow="2"
     inkscape:window-width="1920"
     inkscape:window-height="1020"
     id="namedview15"
     showgrid="false"
     inkscape:zoom="0.52170187"
     inkscape:cx="910.04076"
     inkscape:cy="884.99669"
     inkscape:window-x="0"
     inkscape:window-y="0"
     inkscape:window-maximized="1"
     inkscape:current-layer="svg2" />
  <defs
     id="defs17" />
  <metadata
     id="metadata28">
    <rdf:RDF>
      <cc:Work
         rdf:about="">
        <dc:format>image/svg+xml</dc:format>
        <dc:type
           rdf:resource="http://purl.org/dc/dcmitype/StillImage" />
        <dc:title></dc:title>
      </cc:Work>
    </rdf:RDF>
  </metadata>
  <path
     id="path6"
     d="m 471.95,253.05 c 0,120.9 -98.01,218.9 -218.9,218.9 -120.9,0 -218.9,-98.01 -218.9,-218.9 0,-120.9 98.01,-218.9 218.9,-218.9 120.9,0 218.9,98.01 218.9,218.9"
     inkscape:connector-curvature="0"
     style="fill:#BF9E73;fill-rule:evenodd;fill-opacity:1" />
  <path
     id="path8"
     d="M 256,1 C 115.17,1 1,115.17 1,256 1,396.83 115.17,511 256,511 396.83,511 511,396.83 511,256 511,115.17 396.83,1 256,1 m 8.827,44.931 c 120.9,0 218.9,98 218.9,218.9 0,120.9 -98,218.9 -218.9,218.9 -120.9,0 -218.93,-98 -218.93,-218.9 0,-120.9 98.03,-218.9 218.93,-218.9"
     inkscape:connector-curvature="0"
     style="fill-opacity:0.06700003;fill-rule:evenodd" />
  <g
     id="g10"
     style="fill-opacity:0.12900002;fill-rule:evenodd">
    <path
       id="path12"
       d="m 256,4.433 c -138.94,0 -251.57,112.63 -251.57,251.57 0,138.94 112.63,251.57 251.57,251.57 138.94,0 251.57,-112.63 251.57,-251.57 C 507.57,117.063 394.94,4.433 256,4.433 m 5.885,38.556 c 120.9,0 218.9,98 218.9,218.9 0,120.9 -98,218.9 -218.9,218.9 -120.9,0 -218.93,-98 -218.93,-218.9 0,-120.9 98.03,-218.9 218.93,-218.9"
       inkscape:connector-curvature="0" />
    <path
       id="path14"
       d="m 256,8.356 c -136.77,0 -247.64,110.87 -247.64,247.64 0,136.77 110.87,247.64 247.64,247.64 136.77,0 247.64,-110.87 247.64,-247.64 C 503.64,119.226 392.77,8.356 256,8.356 m 2.942,31.691 c 120.9,0 218.9,98 218.9,218.9 0,120.9 -98,218.9 -218.9,218.9 -120.9,0 -218.93,-98 -218.93,-218.9 0,-120.9 98.03,-218.9 218.93,-218.9"
       inkscape:connector-curvature="0" />
  </g>
  <path
     sodipodi:nodetypes="cccccccccc"
     d="m 377.14607,121.00413 -50.12659,2.69448 -34.17299,0.42647 -161.92509,2.9976 -4.89014,33.68289 1.71544,19.82012 c -1.68175,12.95727 5.88054,17.54539 2.04265,21.41011 0.91679,70.06657 -7.19691,124.92741 -10.99309,177.89741 l 161.34861,92.08858 c 99.69764,4.21204 228.60412,-148.32093 183.9777,-285.88175"
     id="path4190"
     style="opacity:0.25"
     inkscape:connector-curvature="0" />
  <g
     id="g14"
     style="stroke:#a57855;stroke-width:1.58299994;stroke-miterlimit:4;stroke-dasharray:none"
     transform="matrix(8.7445245,0,0,8.7444601,84.07377,84.491854)">
    <path
       id="path16-5"
       style="fill:none;stroke:#ffffff;stroke-width:10.66399956;stroke-linecap:round;stroke-opacity:1"
       d="m 34.395,32.03 187.21,0 c 1.316,0 2.368,1.053 2.368,2.368 l 0,187.21 c 0,1.316 -1.053,2.368 -2.368,2.368 l -187.21,0 c -1.316,0 -2.368,-1.053 -2.368,-2.368 l 0,-187.21 c 0,-1.316 1.053,-2.368 2.368,-2.368 z"
       transform="scale(0.14844,0.14844)"
       inkscape:connector-curvature="0" />
  </g>
  <g
     transform="translate(-7.9756856,-1.8335932)"
     id="g4231">
    <path
       inkscape:connector-curvature="0"
       d="m 169.37029,287.32989 58.81489,8.57717 0,-31.85806 -58.81489,-3.67594 0,-24.50619 58.81489,-3.67594 0,-31.85805 -58.81489,8.57717 0,-25.73152 88.22232,-23.28089 0,176.44465 -88.22232,-23.28089"
       style="fill:#ffffff;fill-rule:evenodd"
       id="path4" />
    <path
       inkscape:connector-curvature="0"
       d="m 273.21263,160.47918 0,88.22232 0,88.22233 c 9.80248,0 25.34432,-3.72004 39.25894,-9.43979 11.67965,-4.79342 23.16816,-10.09165 31.92667,-20.39897 12.12077,-14.27241 12.12077,-48.58109 12.12077,-58.38357 0,-9.80248 0.005,-44.11116 -12.12077,-58.38357 -8.75361,-10.30731 -20.24211,-15.60555 -31.92667,-20.39896 -13.92932,-5.71975 -29.45646,-9.43979 -39.25894,-9.43979 m 29.40744,39.20992 c 9.80248,0.20095 18.73744,6.86664 23.63378,13.50782 5.77366,7.82238 5.77366,30.60334 5.77366,35.50458 0,4.90124 0,27.68221 -5.77366,35.50459 -4.90124,6.64118 -13.8313,13.30687 -23.63378,13.50781 l 0,-49.0124 z"
       style="fill:#ffffff"
       id="path6-35" />
  </g>
  <path
     id="path16"
     d="m 253.04,7.859 c -135.42,0 -245.19,109.78 -245.19,245.19 0,135.42 109.78,245.19 245.19,245.19 135.42,0 245.19,-109.78 245.19,-245.19 0,-135.42 -109.78,-245.19 -245.19,-245.19 z m 0,26.297 c 120.9,0 218.9,98 218.9,218.9 0,120.9 -98,218.9 -218.9,218.9 -120.9,0 -218.93,-98 -218.93,-218.9 0,-120.9 98.03,-218.9 218.93,-218.9 z"
     inkscape:connector-curvature="0"
     style="fill:#ffffff;fill-rule:evenodd;stroke:#000000;stroke-width:4.90399981;stroke-opacity:0.31000001" />
</svg>
