<?xml version="1.0" encoding="UTF-8" standalone="no"?>
<svg xmlns="http://www.w3.org/2000/svg" xmlns:inkscape="http://www.inkscape.org/namespaces/inkscape" version="1.1" width="512" height="512" viewBox="0 0 512 512">
 <metadata id="metadata72"/>
 <path d="m 320.03418,234.63704 a 178.68575,178.68575 0 1 1 -357.37149,0 178.68575,178.68575 0 1 1 357.37149,0" inkscape:connector-curvature="0" transform="matrix(1.29104,0,0,1.29104,73.51,-46.927)" id="path4" fill="#BF9E73"/>
 <g id="g6" fill-rule="evenodd">
  <path d="m 353.19,121.91 c -13.946,4.687 -27.707,17.05 -16.688,27.375 -5.05,15.323 -23.21,55.718 -40.969,32.469 -18.716,-17.78 -35.623,-37.761 -55.56,-54.06 -29.11,-9.07 -46.605,26.03 -73.41,30.594 -26.25,8.723 -36.797,36.479 -37.25,61.938 0.905,27.512 -32.362,39.16 -33.656,64.38 8.06,16.795 0.98,36.814 5.406,54.875 2.698,20.427 18.487,33.925 32.5,47 26.304,27.21 53.644,53.4 79.969,80.59 0.556,0.538 1.101,1.086 1.656,1.625 12.295,2.143 24.936,3.281 37.844,3.281 120.9,0 218.91,-98.01 218.91,-218.91 0,-24.13 -3.913,-47.35 -11.125,-69.06 -17.623,-17.534 -35.32,-34.978 -53.22,-52.22 -17.586,-4.843 -36.397,-3.111 -54.41,-9.875" inkscape:connector-curvature="0" id="path8" fill-opacity="0.235"/>
  <path d="M 256,1 C 115.17,1 1,115.17 1,256 1,396.83 115.17,511 256,511 396.83,511 511,396.83 511,256 511,115.17 396.83,1 256,1 m 8.827,44.931 c 120.9,0 218.9,98 218.9,218.9 0,120.9 -98,218.9 -218.9,218.9 -120.9,0 -218.93,-98 -218.93,-218.9 0,-120.9 98.03,-218.9 218.93,-218.9" inkscape:connector-curvature="0" id="path10" fill-opacity="0.067"/>
  <g id="g12" fill-opacity="0.129">
   <path d="m 256,4.433 c -138.94,0 -251.57,112.63 -251.57,251.57 0,138.94 112.63,251.57 251.57,251.57 138.94,0 251.57,-112.63 251.57,-251.57 C 507.57,117.063 394.94,4.433 256,4.433 m 5.885,38.556 c 120.9,0 218.9,98 218.9,218.9 0,120.9 -98,218.9 -218.9,218.9 -120.9,0 -218.93,-98 -218.93,-218.9 0,-120.9 98.03,-218.9 218.93,-218.9" inkscape:connector-curvature="0" id="path14"/>
   <path d="m 256,8.356 c -136.77,0 -247.64,110.87 -247.64,247.64 0,136.77 110.87,247.64 247.64,247.64 136.77,0 247.64,-110.87 247.64,-247.64 C 503.64,119.226 392.77,8.356 256,8.356 m 2.942,31.691 c 120.9,0 218.9,98 218.9,218.9 0,120.9 -98,218.9 -218.9,218.9 -120.9,0 -218.93,-98 -218.93,-218.9 0,-120.9 98.03,-218.9 218.93,-218.9" inkscape:connector-curvature="0" id="path16"/>
  </g>
  <path d="m 253.04,7.859 c -135.42,0 -245.19,109.78 -245.19,245.19 0,135.42 109.78,245.19 245.19,245.19 135.42,0 245.19,-109.78 245.19,-245.19 0,-135.42 -109.78,-245.19 -245.19,-245.19 z m 0,26.297 c 120.9,0 218.9,98 218.9,218.9 0,120.9 -98,218.9 -218.9,218.9 -120.9,0 -218.93,-98 -218.93,-218.9 0,-120.9 98.03,-218.9 218.93,-218.9 z" inkscape:connector-curvature="0" id="path18" stroke-opacity="0.31" fill="#ffffff" stroke="#000000" stroke-width="4.904"/>
 </g>
 <text x="729.64" y="231.36" id="text20" font-family="Gentium Book Basic" word-spacing="0" line-height="125%" letter-spacing="0" font-size="129.23"><tspan x="729.64" y="231.36" id="tspan22"/>
 </text>
 <text x="378.91" y="579.25" transform="scale(4.0128,0.2492)" id="text24" font-family="Arial" text-anchor="middle" font-size="46.954"/>
 <text x="1310.91" y="151.36" id="text26" font-family="Gentium Book Basic" word-spacing="0" line-height="125%" letter-spacing="0" font-size="129.23"><tspan x="1310.91" y="151.36" id="tspan28"/>
 </text>
 <text x="523.76" y="258.22" transform="scale(4.0128,0.2492)" id="text30" font-family="Arial" text-anchor="middle" font-size="46.954"/>
 <text x="239.33" y="-29.901" id="text32" font-family="Gentium Book Basic" word-spacing="0" line-height="125%" letter-spacing="0" font-size="129.23"><tspan x="239.33" y="-29.901" id="tspan34"/>
 </text>
 <text x="256.72" y="-469.14" transform="scale(4.0128,0.2492)" id="text36" font-family="Arial" text-anchor="middle" font-size="46.954"/>
 <text x="1337.38" y="-246.37" id="text38" font-family="Gentium Book Basic" word-spacing="0" line-height="125%" letter-spacing="0" font-size="129.23"><tspan x="1337.38" y="-246.37" id="tspan40"/>
 </text>
 <text x="530.36" y="-1337.81" transform="scale(4.0128,0.2492)" id="text42" font-family="Arial" text-anchor="middle" font-size="46.954"/>
 <text x="1918.65" y="-326.38" id="text44" font-family="Gentium Book Basic" word-spacing="0" line-height="125%" letter-spacing="0" font-size="129.23"><tspan x="1918.65" y="-326.38" id="tspan46"/>
 </text>
 <text x="675.21" y="-1658.85" transform="scale(4.0128,0.2492)" id="text48" font-family="Arial" text-anchor="middle" font-size="46.954"/>
 <text x="1529.53" y="-798.78" id="text50" font-family="Gentium Book Basic" word-spacing="0" line-height="125%" letter-spacing="0" font-size="129.23"><tspan x="1529.53" y="-798.78" id="tspan52"/>
 </text>
 <text x="578.24" y="-3554.51" transform="scale(4.0128,0.2492)" id="text54" font-family="Arial" text-anchor="middle" font-size="46.954"/>
 <text x="2110.79" y="-878.78" id="text56" font-family="Gentium Book Basic" word-spacing="0" line-height="125%" letter-spacing="0" font-size="129.23"><tspan x="2110.79" y="-878.78" id="tspan58"/>
 </text>
 <text x="723.09" y="-3875.54" transform="scale(4.0128,0.2492)" id="text60" font-family="Arial" text-anchor="middle" font-size="46.954"/>
 <text x="277.99" y="535.94" id="text62" font-family="Gentium Book Basic" word-spacing="0" line-height="125%" letter-spacing="0" font-size="208.33"><tspan x="277.99" y="535.94" id="tspan64"/>
 </text>
 <path d="m 207.66,389.97 c 10.317,-1.137 -1.819,-9.808 -5.24,-11.54 -6.604,-3.302 -11.973,-7.07 -16.12,-13.283 -6.55,-9.981 -9.808,-23.21 -12.601,-34.675 -1.851,-7.784 -3.334,-12.309 1.613,-18.902 4.904,-6.56 -3.464,-11.973 1.732,-18.902 8.715,-11.638 12.395,-27.02 21.01,-38.529 2.457,-3.259 1.57,-6.301 5.077,-6.636 1.689,-0.173 6.05,3.215 7.524,4.19 4.276,2.869 9.483,4.222 13.662,7.02 2.122,1.397 6.138,0.379 7.87,1.732 5.03,3.93 3.843,16.15 3.334,22.409 -0.758,8.931 -7.903,11.713 -7.903,20.298 0,10.36 2.198,17.429 -1.061,28.04 -1.862,6.095 -6.55,13.02 -7.318,19.248 -0.628,4.904 0.303,4.774 1.743,9.429 1.689,5.532 2.111,10.479 7.351,12.98 3.01,1.397 15.1,1.992 16.791,-1.397 3.345,-6.636 -9.386,-8.92 -11.54,-12.98 -4.655,-8.715 6.301,-31.3 10.479,-38.864 2.328,-4.103 6.766,-7.405 8.422,-11.54 2.241,-5.586 -2.284,-9.397 -1.57,-13.662 1.397,-8.336 4.904,-17.17 7.535,-25.2 6.127,-18.653 14.625,9.678 18.18,16.823 1.44,2.793 2.457,5.878 3.854,8.758 1.689,3.388 -2.035,6.301 -1.018,10.49 0.931,3.93 5.499,6.127 8.03,9.09 3.854,4.525 6.517,10.23 8.585,15.773 4.319,11.54 5.835,31.665 13.824,40.932 1.148,1.353 4.363,0.596 5.586,1.775 2.793,2.706 -0.714,5.705 4.742,7.524 4.179,1.397 14.755,2.923 18.728,0.509 7.61,-4.612 -1.905,-10.274 -6.636,-15.05 -6.679,-6.647 -14.42,-12.731 -19.627,-20.645 -6.853,-10.403 -8.282,-22.12 -9.635,-34.12 -0.639,-5.792 5.618,-8.671 0.206,-15.6 -1.732,-2.208 -7.02,-1.905 -7.02,-4.19 0,-7.232 -0.217,-14.506 0,-21.695 0.249,-8.758 0.206,-23.18 8.585,-28.71 11.12,-7.448 25.25,-9.397 35.855,-17.343 10.577,-7.946 20.255,-15.13 26.642,-27.822 3.302,-6.647 5.03,-13.153 7.697,-19.963 1.949,-5.03 1.397,-3.345 4.525,-6.301 1.862,-1.732 4.612,-2.966 6.679,-4.904 5.37,-5.164 6.344,-10.236 15.394,-8.08 3.594,0.888 9.516,7.614 11.551,3.511 1.31,-2.623 0.498,-5.03 -0.173,-7.697 -1.018,-3.975 3.8,-5.286 3.681,-9.09 -0.217,-6.554 -10.782,-13.448 -16.282,-14.546 -6.939,-1.395 -14.55,1.607 -21.911,0.169 -5.911,-1.142 -11.07,-4.355 -16.78,-5.751 -5.965,-1.523 -11.334,-2.031 -16.455,1.564 -2.328,1.649 -3.215,4.61 -5.24,6.301 -1.732,1.395 -3.259,1.015 -5.25,2.453 -5.997,4.313 -6.463,10.699 3.854,8.754 -4.363,17.976 -25.462,66.3 -49.02,41.32 -10.988,-11.67 -21.1,-24.618 -31.503,-36.75 -9.169,-10.698 -14.506,-22.75 -30.11,-20.678 -15.394,2.03 -25.917,12.601 -37.847,21.355 -9.721,7.189 -21.19,8.754 -31.503,14.714 -10.954,6.301 -20.722,16.921 -24.487,29.06 -5.455,17.548 -2.326,34.458 -11.926,51.12 -5.793,10.111 -14.04,17.17 -21.355,25.549 -3.933,4.525 -6.555,10.739 -5.244,16.791 0.888,4.179 3.849,4.947 3.849,9.808 0,8.498 -0.423,16.91 -0.042,25.419 0.338,7.567 0.93,14.961 1.988,22.452 0.93,6.463 3.297,8.282 5.413,13.07 3.129,7.06 2.621,10.144 10.149,12.937 4.271,1.57 11.544,4.742 16.11,4.568 6.555,-0.292 7.485,-5.705 2.453,-11.54 -3.256,-3.811 -9.304,-5.03 -12.94,-9.137 -10.615,-11.887 -15.182,-47.622 -6.301,-60.22 3.679,-5.24 8.373,-5.283 8.71,-13.272 0.339,-7.145 -2.579,-9.646 3.891,-16.12 20.553,-10.479 22.709,-17.971 29.391,-14.376 8.124,4.406 1.736,29.14 0,36.07 -3.13,12.439 -15.435,18.274 -7.358,30.831 5.793,8.964 8.499,18.23 12.429,28.71 3.551,9.429 3.259,22.929 8.931,30.788 1.093,1.526 2.826,2.371 3.843,3.854 0.758,1.093 1.905,4.265 2.457,4.904 2.36,2.75 2.869,3.464 6.679,4.904 6.766,2.577 15.05,1.732 22.366,1.732" inkscape:connector-curvature="0" id="path66" fill="#ffffff" fill-rule="evenodd"/>
</svg>
