<?xml version="1.0" encoding="UTF-8" standalone="no"?>
<svg xmlns="http://www.w3.org/2000/svg" xmlns:sodipodi="http://sodipodi.sourceforge.net/DTD/sodipodi-0.dtd" xmlns:inkscape="http://www.inkscape.org/namespaces/inkscape" viewBox="0 0 512 512" version="1.1">
 <metadata id="metadata118"/>
 <path inkscape:connector-curvature="0" d="m 471.95,253.05 c 0,120.9 -98.01,218.9 -218.9,218.9 -120.9,0 -218.9,-98.01 -218.9,-218.9 0,-120.9 98.01,-218.9 218.9,-218.9 120.9,0 218.9,98.01 218.9,218.9" id="path50" fill="#BF9E73" fill-rule="evenodd"/>
 <path inkscape:connector-curvature="0" d="m 378.58,73.71 c -6.386,8.252 -15.769,13.321 -29.04,15.729 -2.198,0.399 -9.985,1.01 -17.313,1.375 -24.398,1.217 -37.71,4.074 -51.969,11.156 -18.956,9.416 -32.26,26.589 -35.969,46.41 -1.494,7.973 -0.663,13.289 2.779,16.73 l 27.432,27.432 c -1.913,0.898 -3.832,1.628 -5.898,2.275 -7.11,2.228 -18.203,2.228 -25.313,0 -8.534,-2.675 -14.525,-6.676 -27.969,-18.656 -15.497,-13.81 -24.356,-18.1 -37.625,-18.281 -12.188,-0.165 -24.667,5.771 -37.656,17.969 -31.33,29.418 -51.15,77.8 -51.37,125.31 -0.052,10.973 0.676,16.11 3.531,24.813 3.839,11.707 10.183,22.15 17.314,29.28 l 114.82,114.82 c 9.402,1.232 18.988,1.877 28.727,1.877 120.89,0 218.9,-98 218.9,-218.9 0,-56.01 -21.05,-107.1 -55.65,-145.81 L 398.95,89.878 c -1.613,-1.443 -3.248,-2.865 -4.902,-4.264 -1.455,-1.23 -2.931,-2.435 -4.418,-3.629 -0.299,-0.239 -0.596,-0.483 -0.896,-0.721 -1.145,-0.91 -2.309,-1.797 -3.473,-2.684 -2.192,-1.664 -4.416,-3.287 -6.672,-4.869" id="path52" opacity="0.25"/>
 <path inkscape:connector-curvature="0" d="m 378.59,73.69 c -6.386,8.265 -15.774,13.341 -29.06,15.75 -2.198,0.399 -9.985,1.01 -17.313,1.375 -24.398,1.217 -37.71,4.074 -51.969,11.156 -18.956,9.416 -32.26,26.589 -35.969,46.41 -1.949,10.399 0.06,16.279 6.656,19.375 3.297,1.547 8.778,1.25 12.03,-0.656 3.807,-2.231 5.362,-5.149 6.625,-12.469 3.445,-19.963 19.15,-32.414 45.969,-36.438 2.565,-0.385 10.963,-1.017 18.656,-1.406 19.762,-1 29.18,-2.851 40.656,-8 9.408,-4.221 17.678,-10.882 24.06,-18.906 -6.453,-5.772 -13.237,-11.204 -20.344,-16.188 m -200.91,84.19 c -12.188,-0.165 -24.667,5.771 -37.656,17.969 -31.33,29.418 -51.15,77.8 -51.37,125.31 -0.052,10.973 0.676,16.11 3.531,24.813 6.427,19.597 19.869,35.649 32.28,38.563 8.604,2.02 19.95,-1.145 30.16,-8.406 2.421,-1.722 9.941,-8.547 16.719,-15.16 22.638,-22.07 30.22,-27.799 45.31,-34.22 11.813,-5.03 24.466,-7.406 39.28,-7.406 14.815,0 27.499,2.381 39.31,7.406 15.09,6.42 22.675,12.145 45.31,34.22 6.778,6.609 14.298,13.434 16.719,15.16 8.868,6.309 18.989,9.646 26.906,8.875 16.05,-1.564 32.394,-22.354 38.03,-48.37 2.672,-12.332 0.465,-40.01 -4.781,-59.938 -8.786,-33.365 -24.29,-60.838 -45.594,-80.84 -12.989,-12.198 -25.437,-18.13 -37.625,-17.969 -13.269,0.18 -22.13,4.471 -37.625,18.281 -13.444,11.98 -19.466,15.981 -28,18.656 -7.11,2.228 -18.203,2.228 -25.313,0 -8.534,-2.675 -14.525,-6.676 -27.969,-18.656 -15.497,-13.81 -24.356,-18.1 -37.625,-18.281 m 157.06,47.44 c 3.643,10e-4 7.348,1.231 10.438,3.875 8.921,7.636 7.648,21.524 -2.469,27 -3.179,1.721 -8.01,2.667 -10.5,2.063 -10.65,-2.589 -16.226,-11.303 -13.406,-20.938 2.209,-7.548 8.983,-12 15.938,-12 m -170.72,3.406 13.313,0 13.313,0 0,13 0,12.969 13,0 13,0 0,13.344 0,13.313 -13,0 -13,0 0,13 0,12.969 -13.313,0 -13.313,0 0,-12.969 0,-13 -13,0 -13,0 0,-13.313 0,-13.344 13,0 13,0 0,-12.969 0,-13 m 144.84,22.656 c 3.277,0.008 8.653,2.438 11.25,5.063 8.536,8.626 5.182,23.21 -6.281,27.25 -10.68,3.768 -21.881,-4.219 -21.906,-15.656 -0.02,-9.131 7.661,-16.679 16.938,-16.656 m 51.969,0.281 c 2.738,-0.004 5.474,0.503 7.344,1.5 5.859,3.124 9.125,8.459 9.125,14.875 0,6.748 -3.443,12.06 -9.781,15.06 -2.121,1 -4.535,1.563 -6.656,1.563 -6.161,0 -12.93,-4.487 -15.281,-10.125 -1.279,-3.067 -1.349,-9.82 -0.125,-12.75 1.312,-3.14 4.833,-6.922 8,-8.594 1.898,-1 4.637,-1.528 7.375,-1.531 m -26.22,26.22 c 14.307,0 21.779,16.5 12.344,27.22 -1.494,1.698 -3.927,3.64 -5.406,4.313 -3.237,1.47 -10.369,1.616 -13.438,0.281 -6.26,-2.724 -10.665,-10.138 -10,-16.781 0.872,-8.713 7.812,-15.03 16.5,-15.03" id="path54" fill="#ffffff"/>
 <path id="path58" d="M 256,1 C 115.17,1 1,115.17 1,256 1,396.83 115.17,511 256,511 396.83,511 511,396.83 511,256 511,115.17 396.83,1 256,1 m 8.827,44.931 c 120.9,0 218.9,98 218.9,218.9 0,120.9 -98,218.9 -218.9,218.9 -120.9,0 -218.93,-98 -218.93,-218.9 0,-120.9 98.03,-218.9 218.93,-218.9" inkscape:connector-curvature="0" fill-rule="evenodd" fill-opacity="0.067"/>
 <g id="g60" fill-rule="evenodd" fill-opacity="0.129">
  <path id="path62" d="m 256,4.433 c -138.94,0 -251.57,112.63 -251.57,251.57 0,138.94 112.63,251.57 251.57,251.57 138.94,0 251.57,-112.63 251.57,-251.57 C 507.57,117.063 394.94,4.433 256,4.433 m 5.885,38.556 c 120.9,0 218.9,98 218.9,218.9 0,120.9 -98,218.9 -218.9,218.9 -120.9,0 -218.93,-98 -218.93,-218.9 0,-120.9 98.03,-218.9 218.93,-218.9" inkscape:connector-curvature="0"/>
  <path id="path64" d="m 256,8.356 c -136.77,0 -247.64,110.87 -247.64,247.64 0,136.77 110.87,247.64 247.64,247.64 136.77,0 247.64,-110.87 247.64,-247.64 C 503.64,119.226 392.77,8.356 256,8.356 m 2.942,31.691 c 120.9,0 218.9,98 218.9,218.9 0,120.9 -98,218.9 -218.9,218.9 -120.9,0 -218.93,-98 -218.93,-218.9 0,-120.9 98.03,-218.9 218.93,-218.9" inkscape:connector-curvature="0"/>
 </g>
 <path id="path66" d="m 253.04,7.859 c -135.42,0 -245.19,109.78 -245.19,245.19 0,135.42 109.78,245.19 245.19,245.19 135.42,0 245.19,-109.78 245.19,-245.19 0,-135.42 -109.78,-245.19 -245.19,-245.19 z m 0,26.297 c 120.9,0 218.9,98 218.9,218.9 0,120.9 -98,218.9 -218.9,218.9 -120.9,0 -218.93,-98 -218.93,-218.9 0,-120.9 98.03,-218.9 218.93,-218.9 z" inkscape:connector-curvature="0" stroke-opacity="0.31" fill="#ffffff" fill-rule="evenodd" stroke="#000000" stroke-width="4.904"/>
</svg>
