<?xml version="1.0" encoding="UTF-8" standalone="no"?>
<svg xmlns="http://www.w3.org/2000/svg" xmlns:inkscape="http://www.inkscape.org/namespaces/inkscape" version="1.1" width="512" height="512" viewBox="0 0 512 512">
 <metadata id="metadata72"/>
 <path d="m 471.95,253.05 c 0,120.9 -98.01,218.9 -218.9,218.9 -120.9,0 -218.9,-98.01 -218.9,-218.9 0,-120.9 98.01,-218.9 218.9,-218.9 120.9,0 218.9,98.01 218.9,218.9" inkscape:connector-curvature="0" id="path4" fill="#BF9E73" fill-rule="evenodd"/>
 <path d="m 242.5,118.13 c -22.374,0.344 -39.434,26.13 -19.531,43.656 9.95,16.471 -7.989,14.05 -18.344,13.688 -17.06,0.744 -34.515,-1.687 -51.25,1.625 -18.02,8.214 -11.382,29.756 -12.656,45.41 v 26.22 c 7.645,5.595 13.935,12.217 19.594,19.344 7.669,5.233 12.443,12.667 19.625,18.313 11.587,5.704 10.186,20.526 -8.781,18.13 -10.973,-7.258 -35.862,-20.324 -30.438,2.719 0.335,19.941 -0.716,39.99 0.563,59.875 8.87,17.16 26.13,28.567 38.938,42.938 20.46,20.576 40.954,41.11 61.47,61.63 3.762,0.192 7.534,0.313 11.344,0.313 102.91,0 189.25,-71.03 212.66,-166.72 -41.67,-41.648 -83.28,-83.35 -124.97,-125 -17.487,-2.22 -29,-12.884 -40.594,-26.19 -15.954,-14.09 -28.752,-37.14 -53.09,-35.656 -1.53,-0.213 -3.04,-0.304 -4.531,-0.281" inkscape:connector-curvature="0" id="path6" fill-opacity="0.235" color="#000000"/>
 <g id="g8" fill-rule="evenodd">
  <path d="M 256,1 C 115.17,1 1,115.17 1,256 1,396.83 115.17,511 256,511 396.83,511 511,396.83 511,256 511,115.17 396.83,1 256,1 m 8.827,44.931 c 120.9,0 218.9,98 218.9,218.9 0,120.9 -98,218.9 -218.9,218.9 -120.9,0 -218.93,-98 -218.93,-218.9 0,-120.9 98.03,-218.9 218.93,-218.9" inkscape:connector-curvature="0" id="path10" fill-opacity="0.067"/>
  <g id="g12" fill-opacity="0.129">
   <path d="m 256,4.433 c -138.94,0 -251.57,112.63 -251.57,251.57 0,138.94 112.63,251.57 251.57,251.57 138.94,0 251.57,-112.63 251.57,-251.57 C 507.57,117.063 394.94,4.433 256,4.433 m 5.885,38.556 c 120.9,0 218.9,98 218.9,218.9 0,120.9 -98,218.9 -218.9,218.9 -120.9,0 -218.93,-98 -218.93,-218.9 0,-120.9 98.03,-218.9 218.93,-218.9" inkscape:connector-curvature="0" id="path14"/>
   <path d="m 256,8.356 c -136.77,0 -247.64,110.87 -247.64,247.64 0,136.77 110.87,247.64 247.64,247.64 136.77,0 247.64,-110.87 247.64,-247.64 C 503.64,119.226 392.77,8.356 256,8.356 m 2.942,31.691 c 120.9,0 218.9,98 218.9,218.9 0,120.9 -98,218.9 -218.9,218.9 -120.9,0 -218.93,-98 -218.93,-218.9 0,-120.9 98.03,-218.9 218.93,-218.9" inkscape:connector-curvature="0" id="path16"/>
  </g>
  <path d="m 253.04,7.859 c -135.42,0 -245.19,109.78 -245.19,245.19 0,135.42 109.78,245.19 245.19,245.19 135.42,0 245.19,-109.78 245.19,-245.19 0,-135.42 -109.78,-245.19 -245.19,-245.19 z m 0,26.297 c 120.9,0 218.9,98 218.9,218.9 0,120.9 -98,218.9 -218.9,218.9 -120.9,0 -218.93,-98 -218.93,-218.9 0,-120.9 98.03,-218.9 218.93,-218.9 z" inkscape:connector-curvature="0" id="path18" stroke-opacity="0.31" fill="#ffffff" stroke="#000000" stroke-width="4.904"/>
 </g>
 <text x="729.64" y="231.36" id="text20" font-family="Gentium Book Basic" word-spacing="0" line-height="125%" letter-spacing="0" font-size="129.23"><tspan x="729.64" y="231.36" id="tspan22"/>
 </text>
 <text x="378.91" y="579.25" transform="scale(4.0128,0.2492)" id="text24" font-family="Arial" text-anchor="middle" font-size="46.954"/>
 <text x="1310.91" y="151.36" id="text26" font-family="Gentium Book Basic" word-spacing="0" line-height="125%" letter-spacing="0" font-size="129.23"><tspan x="1310.91" y="151.36" id="tspan28"/>
 </text>
 <text x="523.76" y="258.22" transform="scale(4.0128,0.2492)" id="text30" font-family="Arial" text-anchor="middle" font-size="46.954"/>
 <text x="239.33" y="-29.901" id="text32" font-family="Gentium Book Basic" word-spacing="0" line-height="125%" letter-spacing="0" font-size="129.23"><tspan x="239.33" y="-29.901" id="tspan34"/>
 </text>
 <text x="256.72" y="-469.14" transform="scale(4.0128,0.2492)" id="text36" font-family="Arial" text-anchor="middle" font-size="46.954"/>
 <text x="1337.38" y="-246.37" id="text38" font-family="Gentium Book Basic" word-spacing="0" line-height="125%" letter-spacing="0" font-size="129.23"><tspan x="1337.38" y="-246.37" id="tspan40"/>
 </text>
 <text x="530.36" y="-1337.81" transform="scale(4.0128,0.2492)" id="text42" font-family="Arial" text-anchor="middle" font-size="46.954"/>
 <text x="1918.65" y="-326.38" id="text44" font-family="Gentium Book Basic" word-spacing="0" line-height="125%" letter-spacing="0" font-size="129.23"><tspan x="1918.65" y="-326.38" id="tspan46"/>
 </text>
 <text x="675.21" y="-1658.85" transform="scale(4.0128,0.2492)" id="text48" font-family="Arial" text-anchor="middle" font-size="46.954"/>
 <text x="1529.53" y="-798.78" id="text50" font-family="Gentium Book Basic" word-spacing="0" line-height="125%" letter-spacing="0" font-size="129.23"><tspan x="1529.53" y="-798.78" id="tspan52"/>
 </text>
 <text x="578.24" y="-3554.51" transform="scale(4.0128,0.2492)" id="text54" font-family="Arial" text-anchor="middle" font-size="46.954"/>
 <text x="2110.79" y="-878.78" id="text56" font-family="Gentium Book Basic" word-spacing="0" line-height="125%" letter-spacing="0" font-size="129.23"><tspan x="2110.79" y="-878.78" id="tspan58"/>
 </text>
 <text x="723.09" y="-3875.54" transform="scale(4.0128,0.2492)" id="text60" font-family="Arial" text-anchor="middle" font-size="46.954"/>
 <text x="277.99" y="535.94" id="text62" font-family="Gentium Book Basic" word-spacing="0" line-height="125%" letter-spacing="0" font-size="208.33"><tspan x="277.99" y="535.94" id="tspan64"/>
 </text>
 <path d="m 247.04,118.4 c -18.62,0 -33.714,10.45 -33.714,23.341 0.542,4.809 3.582,10.882 5.187,12.967 7.78,10.374 7.78,16.857 5.835,20.747 h -62.89 c -11.494,0 -20.747,9.253 -20.747,20.747 v 52.52 c 3.89,1.945 10.374,1.945 20.747,-5.835 2.085,-1.605 8.158,-4.645 12.967,-5.187 12.891,0 23.341,15.09 23.341,33.714 0,18.62 -10.45,33.714 -23.341,33.714 -3.956,-0.067 -9.971,-3.605 -12.967,-5.187 -10.374,-7.78 -16.857,-7.78 -20.747,-5.835 v 68.08 c 0,11.494 9.253,20.747 20.747,20.747 h 83.64 c 1.945,-3.89 1.945,-10.374 -5.835,-20.747 -1.605,-2.085 -4.645,-8.158 -5.187,-12.967 0,-12.891 15.09,-23.341 33.714,-23.341 18.62,0 33.714,10.45 33.714,23.341 -0.067,3.956 -3.605,9.971 -5.187,12.967 -7.78,10.374 -7.78,16.857 -5.835,20.747 h 36.956 c 11.494,0 20.747,-9.253 20.747,-20.747 v -57.703 c 3.89,-1.945 10.374,-1.945 20.747,5.835 2.996,1.581 9.01,5.12 12.967,5.187 12.891,0 23.341,-15.09 23.341,-33.714 0,-18.62 -10.45,-33.714 -23.341,-33.714 -4.809,0.542 -10.882,3.582 -12.967,5.187 -10.374,7.78 -16.857,7.78 -20.747,5.835 v -62.89 c 0,-11.494 -9.253,-20.747 -20.747,-20.747 h -57.703 c -1.945,-3.89 -1.945,-10.374 5.835,-20.747 1.581,-2.996 5.12,-9.01 5.187,-12.967 0,-12.891 -15.09,-23.341 -33.714,-23.341" inkscape:connector-curvature="0" id="path66" fill="#ffffff" color="#000000"/>
</svg>
