<?xml version="1.0" encoding="UTF-8" standalone="no"?>
<svg
   xmlns:dc="http://purl.org/dc/elements/1.1/"
   xmlns:cc="http://creativecommons.org/ns#"
   xmlns:rdf="http://www.w3.org/1999/02/22-rdf-syntax-ns#"
   xmlns:svg="http://www.w3.org/2000/svg"
   xmlns="http://www.w3.org/2000/svg"
   xmlns:sodipodi="http://sodipodi.sourceforge.net/DTD/sodipodi-0.dtd"
   xmlns:inkscape="http://www.inkscape.org/namespaces/inkscape"
   height="512"
   viewBox="0 0 512 512"
   width="512"
   version="1.1"
   id="svg2"
   inkscape:version="0.91 r13725"
   sodipodi:docname="applications-internet.svg">
  <sodipodi:namedview
     pagecolor="#ffffff"
     bordercolor="#666666"
     borderopacity="1"
     objecttolerance="10"
     gridtolerance="10"
     guidetolerance="10"
     inkscape:pageopacity="0"
     inkscape:pageshadow="2"
     inkscape:window-width="1920"
     inkscape:window-height="1019"
     id="namedview15"
     showgrid="false"
     inkscape:zoom="1.0298489"
     inkscape:cx="687.25814"
     inkscape:cy="317.48178"
     inkscape:window-x="0"
     inkscape:window-y="13"
     inkscape:window-maximized="1"
     inkscape:current-layer="svg2" />
  <defs
     id="defs17" />
  <metadata
     id="metadata28">
    <rdf:RDF>
      <cc:Work
         rdf:about="">
        <dc:format>image/svg+xml</dc:format>
        <dc:type
           rdf:resource="http://purl.org/dc/dcmitype/StillImage" />
        <dc:title></dc:title>
      </cc:Work>
    </rdf:RDF>
  </metadata>
  <path
     id="path6"
     d="m 471.95,253.05 c 0,120.9 -98.01,218.9 -218.9,218.9 -120.9,0 -218.9,-98.01 -218.9,-218.9 0,-120.9 98.01,-218.9 218.9,-218.9 120.9,0 218.9,98.01 218.9,218.9"
     inkscape:connector-curvature="0"
     style="fill:#BF9E73;fill-rule:evenodd;fill-opacity:1" />
  <path
     style="color:#000000;opacity:0.25"
     id="path805"
     d="m 258.00432,97.359671 c -15.935,0 -31.386,2.403 -45.855,6.868999 l 20.715,20.715 c -12.503,-5.51 -25.506,-10.146 -39.09,-13.672 -16.296,7.437 -31.11,17.554 -43.795,29.883 3.533,10.421 7.312,20.433 11.328,30.05 l -20.432,-20.432 c -23.596,27.2 -37.955,62.67 -37.955,101.5 0,2.964 0.005,6.01 0.172,8.932 l 8.541,8.541 c -2.234,2.28 -4.454,4.583 -6.652,6.916 3.466,22 11.489,42.38 23.19,60.28 l 11.924,11.924 c -1.056,0.031 -2.111,0.062 -3.164,0.098 3.509,4.386 7.274,8.573 11.248,12.547 l 106.81,106.81 c 120.89,-0.012 218.88,-98.02 218.88,-218.91 0,-0.091 -0.004,-0.182 -0.004,-0.273 l -106.12,-106.12 c -4.643,-4.643 -9.576,-8.998 -14.766,-13.03 0.028,1.038 0.137,2.102 0.172,2.92 0.028,0.645 0.044,1.164 0.068,1.785 l -15.01,-15.01 c -18.19,-11.03 -38.883,-18.377 -60.971,-21.119999 l -6.67,7.583999 -8.615,-8.614999 c -1.33,-0.034 -2.611,-0.172 -3.949,-0.172"
     inkscape:connector-curvature="0" />
  <path
     id="path8"
     d="M 256,1 C 115.17,1 1,115.17 1,256 1,396.83 115.17,511 256,511 396.83,511 511,396.83 511,256 511,115.17 396.83,1 256,1 m 8.827,44.931 c 120.9,0 218.9,98 218.9,218.9 0,120.9 -98,218.9 -218.9,218.9 -120.9,0 -218.93,-98 -218.93,-218.9 0,-120.9 98.03,-218.9 218.93,-218.9"
     inkscape:connector-curvature="0"
     style="fill-opacity:0.06700003;fill-rule:evenodd" />
  <g
     id="g10"
     style="fill-opacity:0.12900002;fill-rule:evenodd">
    <path
       id="path12"
       d="m 256,4.433 c -138.94,0 -251.57,112.63 -251.57,251.57 0,138.94 112.63,251.57 251.57,251.57 138.94,0 251.57,-112.63 251.57,-251.57 C 507.57,117.063 394.94,4.433 256,4.433 m 5.885,38.556 c 120.9,0 218.9,98 218.9,218.9 0,120.9 -98,218.9 -218.9,218.9 -120.9,0 -218.93,-98 -218.93,-218.9 0,-120.9 98.03,-218.9 218.93,-218.9"
       inkscape:connector-curvature="0" />
    <path
       id="path14"
       d="m 256,8.356 c -136.77,0 -247.64,110.87 -247.64,247.64 0,136.77 110.87,247.64 247.64,247.64 136.77,0 247.64,-110.87 247.64,-247.64 C 503.64,119.226 392.77,8.356 256,8.356 m 2.942,31.691 c 120.9,0 218.9,98 218.9,218.9 0,120.9 -98,218.9 -218.9,218.9 -120.9,0 -218.93,-98 -218.93,-218.9 0,-120.9 98.03,-218.9 218.93,-218.9"
       inkscape:connector-curvature="0" />
  </g>
  <path
     id="path16"
     d="m 253.04,7.859 c -135.42,0 -245.19,109.78 -245.19,245.19 0,135.42 109.78,245.19 245.19,245.19 135.42,0 245.19,-109.78 245.19,-245.19 0,-135.42 -109.78,-245.19 -245.19,-245.19 z m 0,26.297 c 120.9,0 218.9,98 218.9,218.9 0,120.9 -98,218.9 -218.9,218.9 -120.9,0 -218.93,-98 -218.93,-218.9 0,-120.9 98.03,-218.9 218.93,-218.9 z"
     inkscape:connector-curvature="0"
     style="fill:#ffffff;fill-rule:evenodd;stroke:#000000;stroke-width:4.90399981;stroke-opacity:0.31000001" />
  <path
     style="color:#000000;fill:#ffffff"
     inkscape:connector-curvature="0"
     d="m 257.91432,97.359671 c -85.6,0 -155,69.399999 -155,154.999999 0,85.6 69.4,155 155,155 85.6,0 155,-69.4 155,-155 0,-85.6 -69.4,-154.999999 -155,-154.999999 m 0,22.780999 c 73.02,0 132.22,59.2 132.22,132.22 0,73.02 -59.2,132.22 -132.22,132.22 -73.02,0 -132.22,-59.2 -132.22,-132.22 0,-73.02 59.2,-132.22 132.22,-132.22"
     id="path809" />
  <path
     style="color:#000000;fill:#ffffff"
     inkscape:connector-curvature="0"
     d="m 257.98432,133.86967 c -12.182,0 -23.994,1.837 -35.05,5.252 8.565,2.788 16.812,6.072 24.814,9.847 l 13.26,-14.967 c -1.017,-0.025 -1.997,-0.131 -3.02,-0.131 m 14.705,0.919 -16.28,18.512 c 3.412,1.796 6.8,3.685 10.11,5.646 2.575,-1.783 5.689,-2.888 9.06,-2.888 5.139,0 9.687,2.528 12.604,6.302 10.315,-4.151 20.691,-7.928 31.12,-11.422 -13.909,-8.433 -29.724,-14.05 -46.609,-16.15 m -63.808,9.716 c -12.458,5.685 -23.786,13.42 -33.479,22.845 5.562,16.407 11.907,31.514 19.04,45.3 6.263,-4.394 12.591,-8.582 19.04,-12.604 -1.036,-2.115 -1.707,-4.445 -1.707,-6.958 0,-8.809 7.208,-15.886 16.02,-15.886 0.046,0 0.086,0 0.131,0 4.294,-6.806 9.138,-13.77 14.179,-20.744 -10.573,-4.876 -21.62,-8.937 -33.22,-11.948 m 121.71,14.311 c 0.021,0.793 0.104,1.607 0.131,2.232 0.169,3.915 0.253,7.29 0.394,9.716 0.071,1.213 0.206,2.197 0.263,2.888 0.029,0.346 0.115,0.748 0.131,0.919 l 0,0.394 0,0.656 c -0.265,12.154 -1.184,23.453 -2.626,34.27 6.591,6.987 12.781,14.327 18.906,21.794 6.251,-5.119 11.934,-9.656 18.775,-15.361 1.158,-0.966 2.256,-1.921 3.414,-2.888 -7.589,-21.841 -21.491,-40.702 -39.39,-54.617 m -9.06,1.182 c -10.07,3.384 -20.12,7.02 -30.07,11.03 0.017,0.317 0.131,0.597 0.131,0.919 0,1.246 -0.255,2.512 -0.525,3.676 10.338,7.913 20.21,16.603 29.541,25.864 0.875,-8.294 1.504,-16.876 1.707,-25.996 -0.003,-0.035 0.002,-0.097 0,-0.131 -0.017,-0.244 -0.102,-0.581 -0.131,-0.919 -0.067,-0.819 -0.19,-1.896 -0.263,-3.151 -0.145,-2.509 -0.223,-5.907 -0.394,-9.847 -0.017,-0.404 0.017,-1.028 0,-1.444 m -71.16,0.656 c -4.789,6.572 -9.292,13.05 -13.392,19.431 1.6,1.135 2.982,2.566 4.07,4.201 6.233,-3.301 12.567,-6.446 18.906,-9.453 -0.166,-0.922 -0.263,-1.919 -0.263,-2.888 0,-2.01 0.369,-3.871 1.05,-5.646 -3.389,-1.987 -6.875,-3.841 -10.372,-5.646 m -81.926,14.05 c -18.04,20.791 -29.02,47.907 -29.02,77.59 0,2.266 0.004,4.593 0.131,6.827 14.951,-15.253 30.938,-28.94 47.659,-41.23 -7,-13.26 -13.211,-27.659 -18.775,-43.19 m 95.71,8.271 c -6.886,3.261 -13.73,6.76 -20.482,10.372 -0.14,8.689 -7.164,15.755 -15.886,15.755 -2.41,0 -4.648,-0.619 -6.696,-1.575 -4.89,9.589 -8.996,19.19 -12.604,28.884 14.704,22.383 32.11,41.01 52.25,56.718 10.11,-5.172 20.388,-11.187 30.985,-18.25 -0.846,-2.212 -1.313,-4.711 -1.313,-7.221 0,-11.01 8.945,-19.825 19.956,-19.825 0.356,0 0.699,0.113 1.05,0.131 3.332,-10.909 5.907,-22.492 7.746,-34.792 -10.296,-10.674 -21.282,-20.617 -32.823,-29.541 -2.842,2.62 -6.596,4.333 -10.766,4.333 -4.511,0 -8.521,-1.979 -11.422,-4.989 m -56.46,31.773 c -2.943,1.962 -5.897,3.864 -8.797,5.908 1.172,2.092 2.334,4.138 3.545,6.171 1.619,-4.052 3.42,-8.05 5.252,-12.08 m 119.34,7.09 c -1.79,9.98 -4.048,19.52 -6.827,28.622 0.888,0.506 1.699,1.075 2.495,1.707 2.964,-2.378 8.485,-6.831 17.987,-14.573 -4.416,-5.391 -9.01,-10.623 -13.654,-15.755 m 45.821,1.313 c -0.122,0.102 -0.272,0.161 -0.394,0.263 -6.883,5.741 -12.48,10.332 -18.775,15.492 7.545,9.571 14.746,19.419 21.663,29.409 0.702,-5.217 1.05,-10.609 1.05,-16.02 0,-10.08 -1.176,-19.804 -3.545,-29.15 m -181.18,2.888 c -17.927,13.25 -34.922,28.18 -50.679,44.902 2.65,16.821 8.783,32.4 17.724,46.08 4.683,-0.062 9.305,-0.144 13.786,-0.394 0.056,-6.984 4.606,-12.865 10.897,-14.967 3.108,-22.763 7.925,-43.73 15.1,-64.07 -2.36,-3.703 -4.604,-7.658 -6.827,-11.554 m 154.79,18.775 c -9.49,7.743 -15,12.174 -17.987,14.573 1.163,2.531 1.838,5.304 1.838,8.271 0,11.01 -8.945,19.956 -19.956,19.956 -1.614,0 -3.224,-0.163 -4.726,-0.525 -2.686,5.491 -5.613,10.924 -8.665,16.28 4.9,2.722 8.271,7.914 8.271,13.917 0,1.334 -0.217,2.569 -0.525,3.807 11.372,5.812 23.4,11.03 36.11,15.886 15.396,-15.06 26.64,-34.23 32.04,-55.799 -8.351,-12.412 -17.14,-24.618 -26.39,-36.37 m -141.66,1.969 c -5.658,17.343 -9.537,35.27 -12.21,54.617 5.65,1.517 9.962,5.961 11.291,11.685 16.672,-3.19 32.358,-8.381 48.05,-15.624 -17.821,-14.431 -33.493,-31.17 -47.13,-50.679 m 92.04,35.58 c -9.549,6.331 -18.872,12.06 -28.1,16.937 3.14,2.249 6.317,4.438 9.584,6.565 2.5,-2.413 5.671,-3.96 9.322,-4.333 3.588,-6.125 6.772,-12.363 9.847,-18.643 -0.218,-0.186 -0.446,-0.33 -0.656,-0.525 m -36.893,21.269 c -18.531,8.935 -36.924,15.15 -56.718,18.775 -2.178,5.675 -7.448,9.697 -13.786,10.11 -0.377,5.144 -0.635,10.519 -0.919,15.886 14.723,10.666 31.944,17.903 50.679,20.875 l 0.525,-0.394 c 12.814,-16.315 24.355,-31.474 34.53,-46.48 -0.559,-1.626 -0.919,-3.304 -0.919,-5.12 0,-1.354 0.208,-2.683 0.525,-3.939 -4.773,-3.119 -9.398,-6.34 -13.917,-9.716 m -84.55,22.19 c -3.251,0.221 -6.632,0.28 -9.978,0.394 4.278,5.347 9.05,10.305 14.179,14.836 0.213,-3.643 0.381,-7.225 0.656,-10.766 -1.921,-1.167 -3.581,-2.621 -4.858,-4.464 m 124.86,3.02 c -2.863,2.735 -6.756,4.333 -11.03,4.333 -3.472,0 -6.572,-1 -9.19,-2.888 -9,13.143 -19.11,26.431 -29.934,40.31 2.592,0.169 5.242,0.263 7.877,0.263 28.631,0 54.879,-10.143 75.36,-27.05 -11.553,-4.592 -22.574,-9.526 -33.09,-14.967"
     id="path811" />
</svg>
