<?xml version="1.0" encoding="UTF-8" standalone="no"?>
<svg xmlns="http://www.w3.org/2000/svg" xmlns:inkscape="http://www.inkscape.org/namespaces/inkscape" version="1.1" width="512" height="512" viewBox="0 0 512 512">
 <metadata id="metadata76"/>
 <path d="m 471.95,253.05 c 0,120.9 -98.01,218.9 -218.9,218.9 -120.9,0 -218.9,-98.01 -218.9,-218.9 0,-120.9 98.01,-218.9 218.9,-218.9 120.9,0 218.9,98.01 218.9,218.9" inkscape:connector-curvature="0" id="path4" fill="#BF9E73" fill-rule="evenodd"/>
 <path d="m 190.03,119.56 v 17.844 h 1 v 1 h 1 v 1 h 1 v 1 h 0.969 v 0.969 h 1 v 1 h 1 v 1 h 1 v 1 h 1 v 1 h 1 v 1 h 0.969 v 0.969 h 1 v 1 h 1 v 1 h 1 v 1 h 0.438 c -0.147,17.563 -0.267,44.39 0.188,57.59 -0.104,3.938 -9.826,17.16 -17.625,27.781 -4.86,6.649 -10.238,13.965 -15.594,21.813 -15.922,23.432 -31.343,50.895 -37.938,62.63 -0.027,0.048 -1.75,3.125 -1.75,3.125 -6.787,11.978 -6.861,28.3 -0.219,39.719 1.465,2.514 3.21,4.693 5.156,6.531 0.065,0.069 0.122,0.151 0.188,0.219 0.08,0.074 0.169,0.146 0.25,0.219 0.115,0.116 0.227,0.231 0.344,0.344 0.31,0.333 0.614,0.656 0.938,0.969 0.414,0.446 0.844,0.87 1.281,1.281 0.051,0.053 0.105,0.104 0.156,0.156 0.081,0.075 0.168,0.145 0.25,0.219 0.114,0.114 0.228,0.232 0.344,0.344 0.136,0.146 0.268,0.295 0.406,0.438 0.08,0.074 0.169,0.146 0.25,0.219 0.114,0.114 0.228,0.232 0.344,0.344 0.136,0.146 0.268,0.295 0.406,0.438 0.08,0.074 0.169,0.146 0.25,0.219 0.15,0.151 0.316,0.291 0.469,0.438 0.1,0.106 0.18,0.239 0.281,0.344 0.08,0.074 0.169,0.146 0.25,0.219 0.115,0.116 0.227,0.231 0.344,0.344 0.31,0.333 0.614,0.656 0.938,0.969 0.363,0.391 0.744,0.761 1.125,1.125 0.377,0.4 0.761,0.785 1.156,1.156 0.051,0.053 0.105,0.104 0.156,0.156 0.081,0.075 0.168,0.145 0.25,0.219 0.114,0.114 0.228,0.232 0.344,0.344 0.136,0.146 0.268,0.295 0.406,0.438 0.08,0.074 0.169,0.146 0.25,0.219 0.114,0.114 0.228,0.232 0.344,0.344 0.136,0.146 0.268,0.295 0.406,0.438 0.08,0.074 0.169,0.146 0.25,0.219 0.115,0.116 0.227,0.231 0.344,0.344 0.303,0.325 0.622,0.631 0.938,0.938 0.37,0.399 0.737,0.785 1.125,1.156 0.377,0.4 0.761,0.785 1.156,1.156 0.051,0.053 0.105,0.104 0.156,0.156 0.081,0.075 0.168,0.145 0.25,0.219 0.114,0.114 0.228,0.232 0.344,0.344 0.136,0.146 0.268,0.295 0.406,0.438 0.08,0.074 0.169,0.146 0.25,0.219 0.114,0.114 0.228,0.232 0.344,0.344 0.136,0.146 0.268,0.295 0.406,0.438 0.08,0.074 0.169,0.146 0.25,0.219 0.15,0.151 0.316,0.291 0.469,0.438 0.1,0.106 0.18,0.239 0.281,0.344 0.08,0.074 0.169,0.146 0.25,0.219 0.068,0.068 0.15,0.12 0.219,0.188 0.394,0.428 0.773,0.853 1.188,1.25 0.377,0.4 0.761,0.785 1.156,1.156 0.051,0.053 0.105,0.104 0.156,0.156 0.081,0.075 0.168,0.145 0.25,0.219 0.114,0.114 0.228,0.232 0.344,0.344 0.136,0.146 0.268,0.295 0.406,0.438 0.08,0.074 0.169,0.146 0.25,0.219 0.114,0.114 0.228,0.232 0.344,0.344 0.136,0.146 0.268,0.295 0.406,0.438 0.08,0.074 0.169,0.146 0.25,0.219 0.15,0.151 0.284,0.322 0.438,0.469 0.1,0.106 0.211,0.209 0.313,0.313 0.08,0.074 0.169,0.146 0.25,0.219 0.115,0.116 0.227,0.231 0.344,0.344 0.31,0.333 0.614,0.656 0.938,0.969 0.414,0.446 0.844,0.87 1.281,1.281 0.051,0.053 0.105,0.104 0.156,0.156 0.081,0.075 0.168,0.145 0.25,0.219 0.114,0.114 0.228,0.232 0.344,0.344 0.136,0.146 0.268,0.295 0.406,0.438 0.08,0.074 0.169,0.146 0.25,0.219 0.114,0.114 0.228,0.232 0.344,0.344 0.136,0.146 0.268,0.295 0.406,0.438 0.08,0.074 0.169,0.146 0.25,0.219 0.114,0.114 0.228,0.232 0.344,0.344 0.136,0.146 0.268,0.295 0.406,0.438 0.08,0.074 0.169,0.146 0.25,0.219 0.115,0.116 0.227,0.231 0.344,0.344 0.283,0.303 0.582,0.588 0.875,0.875 0.387,0.42 0.78,0.829 1.188,1.219 0.377,0.4 0.761,0.785 1.156,1.156 0.051,0.053 0.105,0.104 0.156,0.156 0.081,0.075 0.168,0.145 0.25,0.219 0.114,0.114 0.228,0.232 0.344,0.344 0.136,0.146 0.268,0.295 0.406,0.438 0.08,0.074 0.169,0.146 0.25,0.219 0.114,0.114 0.228,0.232 0.344,0.344 0.136,0.146 0.268,0.295 0.406,0.438 0.08,0.074 0.169,0.146 0.25,0.219 0.115,0.116 0.227,0.231 0.344,0.344 0.303,0.325 0.622,0.631 0.938,0.938 0.37,0.399 0.737,0.785 1.125,1.156 0.377,0.4 0.761,0.785 1.156,1.156 0.051,0.053 0.105,0.104 0.156,0.156 0.081,0.075 0.168,0.145 0.25,0.219 0.114,0.114 0.228,0.232 0.344,0.344 0.136,0.146 0.268,0.295 0.406,0.438 0.08,0.074 0.169,0.146 0.25,0.219 0.114,0.114 0.228,0.232 0.344,0.344 0.136,0.146 0.268,0.295 0.406,0.438 0.08,0.074 0.169,0.146 0.25,0.219 0.15,0.151 0.316,0.291 0.469,0.438 0.1,0.106 0.18,0.239 0.281,0.344 0.08,0.074 0.169,0.146 0.25,0.219 0.115,0.116 0.227,0.231 0.344,0.344 0.31,0.333 0.614,0.656 0.938,0.969 0.414,0.446 0.844,0.87 1.281,1.281 0.051,0.053 0.105,0.104 0.156,0.156 0.081,0.075 0.168,0.145 0.25,0.219 0.114,0.114 0.228,0.232 0.344,0.344 0.136,0.146 0.268,0.295 0.406,0.438 0.08,0.074 0.169,0.146 0.25,0.219 0.114,0.114 0.228,0.232 0.344,0.344 0.136,0.146 0.268,0.295 0.406,0.438 0.08,0.074 0.169,0.146 0.25,0.219 0.15,0.151 0.284,0.322 0.438,0.469 0.1,0.106 0.211,0.209 0.313,0.313 0.08,0.074 0.169,0.146 0.25,0.219 0.115,0.116 0.227,0.231 0.344,0.344 0.31,0.333 0.614,0.656 0.938,0.969 0.363,0.391 0.744,0.761 1.125,1.125 0.377,0.4 0.761,0.785 1.156,1.156 0.051,0.053 0.105,0.104 0.156,0.156 0.081,0.075 0.168,0.145 0.25,0.219 0.114,0.114 0.228,0.232 0.344,0.344 0.136,0.146 0.268,0.295 0.406,0.438 0.08,0.074 0.169,0.146 0.25,0.219 0.114,0.114 0.228,0.232 0.344,0.344 0.136,0.146 0.268,0.295 0.406,0.438 0.08,0.074 0.169,0.146 0.25,0.219 0.115,0.116 0.227,0.231 0.344,0.344 0.303,0.325 0.622,0.631 0.938,0.938 0.37,0.399 0.737,0.785 1.125,1.156 0.377,0.4 0.761,0.785 1.156,1.156 0.051,0.053 0.105,0.104 0.156,0.156 0.081,0.075 0.168,0.145 0.25,0.219 0.114,0.114 0.228,0.232 0.344,0.344 0.136,0.146 0.268,0.295 0.406,0.438 0.08,0.074 0.169,0.146 0.25,0.219 0.114,0.114 0.228,0.232 0.344,0.344 0.136,0.146 0.268,0.295 0.406,0.438 0.08,0.074 0.169,0.146 0.25,0.219 0.15,0.151 0.284,0.322 0.438,0.469 0.1,0.106 0.211,0.209 0.313,0.313 0.08,0.074 0.169,0.146 0.25,0.219 0.068,0.068 0.15,0.12 0.219,0.188 0.394,0.428 0.773,0.853 1.188,1.25 0.377,0.4 0.761,0.785 1.156,1.156 0.051,0.053 0.105,0.104 0.156,0.156 0.081,0.075 0.168,0.145 0.25,0.219 0.114,0.114 0.228,0.232 0.344,0.344 0.136,0.146 0.268,0.295 0.406,0.438 0.08,0.074 0.169,0.146 0.25,0.219 0.114,0.114 0.228,0.232 0.344,0.344 0.136,0.146 0.268,0.295 0.406,0.438 0.08,0.074 0.169,0.146 0.25,0.219 0.15,0.151 0.316,0.291 0.469,0.438 0.1,0.106 0.18,0.239 0.281,0.344 0.08,0.074 0.169,0.146 0.25,0.219 0.115,0.116 0.227,0.231 0.344,0.344 0.31,0.333 0.614,0.656 0.938,0.969 0.414,0.446 0.844,0.87 1.281,1.281 0.051,0.053 0.105,0.104 0.156,0.156 0.081,0.075 0.168,0.145 0.25,0.219 0.114,0.114 0.228,0.232 0.344,0.344 0.136,0.146 0.268,0.295 0.406,0.438 0.08,0.074 0.169,0.146 0.25,0.219 0.114,0.114 0.228,0.232 0.344,0.344 0.136,0.146 0.268,0.295 0.406,0.438 0.08,0.074 0.169,0.146 0.25,0.219 0.15,0.151 0.284,0.322 0.438,0.469 0.1,0.106 0.211,0.209 0.313,0.313 0.08,0.074 0.169,0.146 0.25,0.219 0.115,0.116 0.227,0.231 0.344,0.344 0.31,0.333 0.614,0.656 0.938,0.969 0.363,0.391 0.744,0.761 1.125,1.125 0.377,0.4 0.761,0.785 1.156,1.156 0.051,0.053 0.105,0.104 0.156,0.156 0.081,0.075 0.168,0.145 0.25,0.219 0.114,0.114 0.228,0.232 0.344,0.344 0.136,0.146 0.268,0.295 0.406,0.438 0.08,0.074 0.169,0.146 0.25,0.219 0.114,0.114 0.228,0.232 0.344,0.344 0.136,0.146 0.268,0.295 0.406,0.438 0.08,0.074 0.169,0.146 0.25,0.219 0.115,0.116 0.227,0.231 0.344,0.344 0.303,0.325 0.622,0.631 0.938,0.938 0.37,0.399 0.737,0.785 1.125,1.156 0.377,0.4 0.761,0.785 1.156,1.156 0.051,0.053 0.105,0.104 0.156,0.156 0.081,0.075 0.168,0.145 0.25,0.219 0.114,0.114 0.228,0.232 0.344,0.344 0.136,0.146 0.268,0.295 0.406,0.438 0.08,0.074 0.169,0.146 0.25,0.219 0.114,0.114 0.228,0.232 0.344,0.344 0.136,0.146 0.268,0.295 0.406,0.438 0.08,0.074 0.169,0.146 0.25,0.219 0.15,0.151 0.284,0.322 0.438,0.469 0.1,0.106 0.211,0.209 0.313,0.313 0.08,0.074 0.169,0.146 0.25,0.219 0.068,0.068 0.15,0.12 0.219,0.188 0.394,0.428 0.773,0.853 1.188,1.25 0.377,0.4 0.761,0.785 1.156,1.156 0.051,0.053 0.105,0.104 0.156,0.156 0.081,0.075 0.168,0.145 0.25,0.219 0.114,0.114 0.228,0.232 0.344,0.344 0.136,0.146 0.268,0.295 0.406,0.438 0.08,0.074 0.169,0.146 0.25,0.219 0.114,0.114 0.228,0.232 0.344,0.344 0.136,0.146 0.268,0.295 0.406,0.438 0.08,0.074 0.169,0.146 0.25,0.219 0.15,0.151 0.316,0.291 0.469,0.438 0.1,0.106 0.18,0.239 0.281,0.344 0.08,0.074 0.169,0.146 0.25,0.219 0.115,0.116 0.227,0.231 0.344,0.344 0.31,0.333 0.614,0.656 0.938,0.969 0.414,0.446 0.844,0.87 1.281,1.281 0.051,0.053 0.105,0.104 0.156,0.156 0.081,0.075 0.168,0.145 0.25,0.219 0.114,0.114 0.228,0.232 0.344,0.344 0.136,0.146 0.268,0.295 0.406,0.438 0.08,0.074 0.169,0.146 0.25,0.219 0.114,0.114 0.228,0.232 0.344,0.344 0.136,0.146 0.268,0.295 0.406,0.438 0.08,0.074 0.169,0.146 0.25,0.219 0.114,0.114 0.228,0.232 0.344,0.344 0.136,0.146 0.268,0.295 0.406,0.438 0.08,0.074 0.169,0.146 0.25,0.219 0.115,0.116 0.227,0.231 0.344,0.344 0.303,0.325 0.622,0.631 0.938,0.938 0.208,0.224 0.415,0.441 0.625,0.656 5.142,0.361 10.328,0.563 15.563,0.563 114.25,0 208.06,-87.53 218.03,-199.19 h -0.156 v -0.969 h -1 v -1 h -1 v -1 h -1 v -1 h -1 v -1 h -1 v -1 h -0.969 v -0.969 h -1 v -1 h -1 v -1 h -1 v -1 h -1 v -1 h -1 v -1 h -0.969 v -0.969 h -1 v -1 h -1 v -1 h -1 v -1 h -1 v -1 h -1 v -1 h -0.969 v -0.969 h -0.031 -0.969 v -1 h -1 v -1 h -1 v -1 h -1 v -1 h -1 v -1 h -1 v -1 h -0.969 v -0.969 h -1 v -1 h -1 v -1 h -1 v -1 h -1 v -1 h -1 v -1 h -0.969 v -0.969 h -1 v -1 h -1 v -1 h -1 v -1 h -1 v -1 h -1 v -1 h -0.969 v -0.969 h -1 v -1 h -1 v -1 h -1 v -1 h -1 v -1 h -1 v -1 h -1 v -1 h -0.969 v -0.969 h -1 v -1 h -1 v -1 h -1 v -1 h -1 v -1 h -1 v -1 h -0.969 v -0.969 h -1 v -1 h -1 v -1 h -1 v -1 h -1 v -1 h -1 v -1 h -0.969 v -0.969 h -1 v -1 h -1 v -1 h -1 v -1 h -1 v -1 h -1 v -1 h -0.969 v -0.969 h -1 v -1 h -1 v -1 h -1 v -1 h -1 v -1 h -1 v -1 h -1 v -1 h -0.969 V 203.2 h -1 v -1 h -1 v -1 h -1 v -1 h -1 v -1 h -1 v -1 h -0.969 v -0.969 h -1 v -1 h -1 v -1 h -1 v -1 h -1 v -1 h -1 v -1 h -0.969 v -0.969 h -1 v -1 h -1 v -1 h -1 v -1 h -1 v -1 h -1 v -1 h -1 v -1 h -0.969 v -0.969 h -1 v -1 h -1 v -1 h -1 v -1 h -1 v -1 h -1 v -1 h -0.969 v -0.969 h -1 v -1 h -1 v -1 h -1 v -1 h -1 v -1 h -1 v -1 h -0.969 v -0.969 h -1 v -1 h -1 v -1 h -1 v -1 h -1 v -1 h -1 v -1 h -0.969 v -0.969 h -1 v -1 h -1 v -1 h -1 v -1 h -1 v -1 h -1 v -1 h -1 v -1 h -0.969 v -0.969 h -1 v -1 h -1 v -1 h -1 v -1 h -1 v -1 h -1 v -1 h -0.969 v -0.969 h -1 v -1 h -1 v -1 h -1 v -1 h -1 v -1 h -1 v -1 h -0.969 v -0.969 h -1 v -1 h -1 v -1 h -1 v -1 h -1 v -1 h -1 v -1 h -1 v -1 h -0.969 v -0.969 h -1 v -1 h -1 v -1 h -1 v -1 h -1 v -1 h -1 v -1 h -0.969 v -0.969 h -1 v -1 h -1 v -1 h -1 v -1 h -1 v -1 h -1 v -1 h -0.969 v -0.969 h -1 v -1 h -1 v -1 h -1 v -1 h -1 v -1 h -1 v -1 h -0.969 v -0.969 h -1 v -1 h -1 v -1 h -1 v -1 h -128.62" inkscape:connector-curvature="0" id="path6" fill-opacity="0.235"/>
 <g id="g8" fill-rule="evenodd">
  <path d="M 256,1 C 115.17,1 1,115.17 1,256 1,396.83 115.17,511 256,511 396.83,511 511,396.83 511,256 511,115.17 396.83,1 256,1 m 8.827,44.931 c 120.9,0 218.9,98 218.9,218.9 0,120.9 -98,218.9 -218.9,218.9 -120.9,0 -218.93,-98 -218.93,-218.9 0,-120.9 98.03,-218.9 218.93,-218.9" inkscape:connector-curvature="0" id="path10" fill-opacity="0.067"/>
  <g id="g12" fill-opacity="0.129">
   <path d="m 256,4.433 c -138.94,0 -251.57,112.63 -251.57,251.57 0,138.94 112.63,251.57 251.57,251.57 138.94,0 251.57,-112.63 251.57,-251.57 C 507.57,117.063 394.94,4.433 256,4.433 m 5.885,38.556 c 120.9,0 218.9,98 218.9,218.9 0,120.9 -98,218.9 -218.9,218.9 -120.9,0 -218.93,-98 -218.93,-218.9 0,-120.9 98.03,-218.9 218.93,-218.9" inkscape:connector-curvature="0" id="path14"/>
   <path d="m 256,8.356 c -136.77,0 -247.64,110.87 -247.64,247.64 0,136.77 110.87,247.64 247.64,247.64 136.77,0 247.64,-110.87 247.64,-247.64 C 503.64,119.226 392.77,8.356 256,8.356 m 2.942,31.691 c 120.9,0 218.9,98 218.9,218.9 0,120.9 -98,218.9 -218.9,218.9 -120.9,0 -218.93,-98 -218.93,-218.9 0,-120.9 98.03,-218.9 218.93,-218.9" inkscape:connector-curvature="0" id="path16"/>
  </g>
  <path d="m 253.04,7.859 c -135.42,0 -245.19,109.78 -245.19,245.19 0,135.42 109.78,245.19 245.19,245.19 135.42,0 245.19,-109.78 245.19,-245.19 0,-135.42 -109.78,-245.19 -245.19,-245.19 z m 0,26.297 c 120.9,0 218.9,98 218.9,218.9 0,120.9 -98,218.9 -218.9,218.9 -120.9,0 -218.93,-98 -218.93,-218.9 0,-120.9 98.03,-218.9 218.93,-218.9 z" inkscape:connector-curvature="0" id="path18" stroke-opacity="0.31" fill="#ffffff" stroke="#000000" stroke-width="4.904"/>
 </g>
 <text x="729.64" y="231.36" id="text20" font-family="Gentium Book Basic" word-spacing="0" line-height="125%" letter-spacing="0" font-size="129.23"><tspan x="729.64" y="231.36" id="tspan22"/>
 </text>
 <text x="378.91" y="579.25" transform="scale(4.0128,0.2492)" id="text24" font-family="Arial" text-anchor="middle" font-size="46.954"/>
 <text x="1310.91" y="151.36" id="text26" font-family="Gentium Book Basic" word-spacing="0" line-height="125%" letter-spacing="0" font-size="129.23"><tspan x="1310.91" y="151.36" id="tspan28"/>
 </text>
 <text x="523.76" y="258.22" transform="scale(4.0128,0.2492)" id="text30" font-family="Arial" text-anchor="middle" font-size="46.954"/>
 <text x="239.33" y="-29.901" id="text32" font-family="Gentium Book Basic" word-spacing="0" line-height="125%" letter-spacing="0" font-size="129.23"><tspan x="239.33" y="-29.901" id="tspan34"/>
 </text>
 <text x="256.72" y="-469.14" transform="scale(4.0128,0.2492)" id="text36" font-family="Arial" text-anchor="middle" font-size="46.954"/>
 <text x="1337.38" y="-246.37" id="text38" font-family="Gentium Book Basic" word-spacing="0" line-height="125%" letter-spacing="0" font-size="129.23"><tspan x="1337.38" y="-246.37" id="tspan40"/>
 </text>
 <text x="530.36" y="-1337.81" transform="scale(4.0128,0.2492)" id="text42" font-family="Arial" text-anchor="middle" font-size="46.954"/>
 <text x="1918.65" y="-326.38" id="text44" font-family="Gentium Book Basic" word-spacing="0" line-height="125%" letter-spacing="0" font-size="129.23"><tspan x="1918.65" y="-326.38" id="tspan46"/>
 </text>
 <text x="675.21" y="-1658.85" transform="scale(4.0128,0.2492)" id="text48" font-family="Arial" text-anchor="middle" font-size="46.954"/>
 <text x="1529.53" y="-798.78" id="text50" font-family="Gentium Book Basic" word-spacing="0" line-height="125%" letter-spacing="0" font-size="129.23"><tspan x="1529.53" y="-798.78" id="tspan52"/>
 </text>
 <text x="578.24" y="-3554.51" transform="scale(4.0128,0.2492)" id="text54" font-family="Arial" text-anchor="middle" font-size="46.954"/>
 <text x="2110.79" y="-878.78" id="text56" font-family="Gentium Book Basic" word-spacing="0" line-height="125%" letter-spacing="0" font-size="129.23"><tspan x="2110.79" y="-878.78" id="tspan58"/>
 </text>
 <text x="723.09" y="-3875.54" transform="scale(4.0128,0.2492)" id="text60" font-family="Arial" text-anchor="middle" font-size="46.954"/>
 <text x="277.99" y="535.94" id="text62" font-family="Gentium Book Basic" word-spacing="0" line-height="125%" letter-spacing="0" font-size="208.33"><tspan x="277.99" y="535.94" id="tspan64"/>
 </text>
 <g transform="matrix(6.88366,0,0,6.88366,125.56,119.56)" id="g66" fill="#ffffff">
  <path d="m 37.15,29.594 -0.255,-0.452 c -0.958,-1.705 -3.197,-5.694 -5.511,-9.1 -0.777,-1.141 -1.558,-2.206 -2.267,-3.171 -1.132,-1.543 -2.54,-3.461 -2.554,-4.03 0.085,-2.502 0.027,-8.42 0.007,-10.25 h 1.478 V -0.002 H 9.366 v 2.593 h 1.959 c -0.022,1.829 -0.079,7.746 0.007,10.246 -0.015,0.572 -1.423,2.491 -2.556,4.03 -0.706,0.966 -1.488,2.031 -2.266,3.171 -2.313,3.404 -4.553,7.394 -5.511,9.1 L 0.744,29.59 c -0.986,1.74 -0.996,4.114 -0.031,5.773 0.733,1.258 1.91,1.951 3.31,1.951 h 29.847 0.003 c 1.398,0 2.575,-0.693 3.308,-1.951 0.966,-1.659 0.956,-4.03 -0.031,-5.773 m -1.824,4.692 c -0.342,0.589 -0.831,0.887 -1.456,0.887 H 4.023 C 3.402,35.169 2.912,34.872 2.569,34.282 1.987,33.284 2.005,31.72 2.613,30.648 L 2.87,30.187 c 0.943,-1.678 3.152,-5.611 5.418,-8.938 0.759,-1.121 1.525,-2.164 2.221,-3.111 1.978,-2.697 3.01,-4.16 2.969,-5.372 C 13.4,10.539 13.442,5.362 13.466,3.126 h 10.965 c 0.022,2.236 0.066,7.413 -0.01,9.64 -0.043,1.212 0.988,2.674 2.967,5.372 0.694,0.947 1.461,1.991 2.222,3.111 2.263,3.327 4.472,7.26 5.416,8.938 l 0.256,0.461 c 0.609,1.072 0.627,2.637 0.044,3.634" inkscape:connector-curvature="0" id="path68"/>
  <path d="m 33.904,29.829 c -0.563,-1 -1.88,-3.346 -3.241,-5.347 -0.348,-0.514 -0.693,-0.989 -1.025,-1.444 0,0 -1.725,0.714 -7.04,0.892 -5.317,0.18 -6.214,1.521 -9.207,1.253 -2.993,-0.269 -5.126,-2.145 -5.126,-2.145 -0.331,0.455 -0.676,0.93 -1.024,1.444 -1.36,2 -2.68,4.347 -3.241,5.347 l -0.149,0.267 c -0.579,1.023 -0.586,2.418 -0.018,3.394 0.433,0.739 1.122,1.146 1.945,1.146 h 1.872 6.934 8.739 6.978 1.829 c 0.822,0 1.513,-0.407 1.946,-1.146 0.564,-0.976 0.561,-2.371 -0.02,-3.394 l -0.15,-0.267 M 9.433,30.152 c -0.981,0 -1.779,-0.795 -1.779,-1.777 0,-0.982 0.798,-1.778 1.779,-1.778 0.981,0 1.777,0.796 1.777,1.778 0,0.981 -0.796,1.777 -1.777,1.777 m 1.976,3.047 c -0.351,0 -0.636,-0.284 -0.636,-0.636 0,-0.351 0.285,-0.635 0.636,-0.635 0.35,0 0.636,0.284 0.636,0.635 0,0.352 -0.286,0.636 -0.636,0.636 m 5.595,-4.02 c -0.593,0 -1.071,-0.481 -1.071,-1.075 0,-0.589 0.479,-1.072 1.071,-1.072 0.591,0 1.072,0.482 1.072,1.072 0,0.593 -0.481,1.075 -1.072,1.075 m 4.309,3.584 c -0.464,0 -0.839,-0.377 -0.839,-0.84 0,-0.464 0.375,-0.839 0.839,-0.839 0.464,0 0.842,0.375 0.842,0.839 -0.001,0.463 -0.379,0.84 -0.842,0.84 m 5.397,-1.605 c -1.057,0 -1.914,-0.858 -1.914,-1.917 0,-1.057 0.857,-1.916 1.914,-1.916 1.062,0 1.918,0.859 1.918,1.916 0,1.058 -0.856,1.917 -1.918,1.917 m 1.978,2.036 c -0.35,0 -0.635,-0.284 -0.635,-0.636 0,-0.351 0.285,-0.635 0.635,-0.635 0.352,0 0.636,0.284 0.636,0.635 -0.001,0.352 -0.285,0.636 -0.636,0.636" inkscape:connector-curvature="0" id="path70"/>
 </g>
</svg>
