<?xml version="1.0" encoding="UTF-8" standalone="no"?>
<svg xmlns:dc="http://purl.org/dc/elements/1.1/" xmlns:cc="http://creativecommons.org/ns#" xmlns:rdf="http://www.w3.org/1999/02/22-rdf-syntax-ns#" xmlns:svg="http://www.w3.org/2000/svg" xmlns="http://www.w3.org/2000/svg" xmlns:sodipodi="http://sodipodi.sourceforge.net/DTD/sodipodi-0.dtd" xmlns:inkscape="http://www.inkscape.org/namespaces/inkscape" viewBox="0 0 512 512" version="1.1" id="svg2" inkscape:version="0.91 r" sodipodi:docname="redhat-sound_video.svg">
<defs id="defs14" />
<sodipodi:namedview pagecolor="#ffffff" bordercolor="#666666" borderopacity="1" objecttolerance="10" gridtolerance="10" guidetolerance="10" inkscape:pageopacity="0" inkscape:pageshadow="2" inkscape:window-width="737" inkscape:window-height="480" id="namedview12" showgrid="false" inkscape:zoom="0.4609375" inkscape:cx="256" inkscape:cy="256" inkscape:window-x="0" inkscape:window-y="0" inkscape:window-maximized="0" inkscape:current-layer="svg2" />
<metadata id="metadata854">
<rdf:RDF>
<cc:Work rdf:about="">
<dc:format>image/svg+xml</dc:format>
<dc:type rdf:resource="http://purl.org/dc/dcmitype/StillImage" />
</cc:Work>
</rdf:RDF>
</metadata>
<path id="path788" d="m 471.95,253.05 c 0,120.9 -98.01,218.9 -218.9,218.9 -120.9,0 -218.9,-98.01 -218.9,-218.9 0,-120.9 98.01,-218.9 218.9,-218.9 120.9,0 218.9,98.01 218.9,218.9" inkscape:connector-curvature="0" fill="#BF9E73" fill-rule="evenodd" style="fill:#BF9E73;fill-opacity:1" />
<path id="path790" d="M 256,1 C 115.17,1 1,115.17 1,256 1,396.83 115.17,511 256,511 396.83,511 511,396.83 511,256 511,115.17 396.83,1 256,1 m 8.827,44.931 c 120.9,0 218.9,98 218.9,218.9 0,120.9 -98,218.9 -218.9,218.9 -120.9,0 -218.93,-98 -218.93,-218.9 0,-120.9 98.03,-218.9 218.93,-218.9" inkscape:connector-curvature="0" fill-rule="evenodd" fill-opacity="0.067" />
<path inkscape:connector-curvature="0" d="m 256,4.433 c -138.94,0 -251.57,112.63 -251.57,251.57 0,138.94 112.63,251.57 251.57,251.57 138.94,0 251.57,-112.63 251.57,-251.57 C 507.57,117.063 394.94,4.433 256,4.433 m 5.885,38.556 c 120.9,0 218.9,98 218.9,218.9 0,120.9 -98,218.9 -218.9,218.9 -120.9,0 -218.93,-98 -218.93,-218.9 0,-120.9 98.03,-218.9 218.93,-218.9" id="path794" fill-rule="evenodd" fill-opacity="0.129" />
<path inkscape:connector-curvature="0" d="m 256,8.356 c -136.77,0 -247.64,110.87 -247.64,247.64 0,136.77 110.87,247.64 247.64,247.64 136.77,0 247.64,-110.87 247.64,-247.64 C 503.64,119.226 392.77,8.356 256,8.356 m 2.942,31.691 c 120.9,0 218.9,98 218.9,218.9 0,120.9 -98,218.9 -218.9,218.9 -120.9,0 -218.93,-98 -218.93,-218.9 0,-120.9 98.03,-218.9 218.93,-218.9" id="path796" fill-rule="evenodd" fill-opacity="0.129" />
<path id="path798" d="m 253.04,7.859 c -135.42,0 -245.19,109.78 -245.19,245.19 0,135.42 109.78,245.19 245.19,245.19 135.42,0 245.19,-109.78 245.19,-245.19 0,-135.42 -109.78,-245.19 -245.19,-245.19 z m 0,26.297 c 120.9,0 218.9,98 218.9,218.9 0,120.9 -98,218.9 -218.9,218.9 -120.9,0 -218.93,-98 -218.93,-218.9 0,-120.9 98.03,-218.9 218.93,-218.9 z" inkscape:connector-curvature="0" stroke-opacity="0.31" fill="#ffffff" fill-rule="evenodd" stroke="#000000" stroke-width="4.904" />
<path inkscape:connector-curvature="0" d="m 225.43,94.61 c -76.872,0 -139.28,62.38 -139.28,139.25 0,38.38 15.559,73.1 40.707,98.25 l 139.43,139.43 c 114.72,-6.847 205.66,-102.04 205.66,-218.49 0,-5.306 -0.197,-10.566 -0.568,-15.777 l -103.23,-103.23 -2.313,0 -23.12,0 -2.281,0 0,2.281 0,15.813 -18,-18 c -25.06,-24.436 -59.2,-39.531 -96.97,-39.531 l -0.031,0" id="path846" opacity="0.25" />
<path inkscape:connector-curvature="0" d="m 225.43,94.61 c -76.872,0 -139.28,62.38 -139.28,139.25 0,76.871 62.41,139.06 139.28,139.06 3.735,0 7.434,-0.176 11.09,-0.469 6.998,-39.3 46.812,-67.3 85.91,-66.12 l 0,-172.19 C 297.37,109.705 263.23,94.61 225.46,94.61 l -0.031,0 m -0.063,16.09 c 6.944,0.003 13.884,0.624 20.719,1.781 l -5.906,72.938 c -2.709,-0.826 -5.452,-1.331 -8.25,-1.688 l -9.563,-73 c 0.991,-0.025 2.01,-0.031 3,-0.031 m 40.781,7.406 c 20.491,7.225 38.459,19.8 52.31001,35.969 l -51.16001,52.31 c -5.05,-7.707 -12.253,-13.948 -20.656,-17.906 l 19.5,-70.37 m 74.28,15.938 0,2.281 0,191.13 c -12.91399,-4.229 -28.473,-4.402 -44.06,1.438 -15.04,5.637 -27.04,15.369 -34.375,26.594 -7.336,11.225 -9.93,24.08 -5.781,35.813 4.15,11.74 14.19,19.969 26.844,23.719 12.654,3.75 27.901,3.168 42.93801,-2.469 25.48699,-9.552 42.49699,-30.752 42.15999,-51.44 -10e-4,-0.047 0,-0.109 0,-0.156 l 0,-155.28 c 17.321,3.972 26.797,16.861 31.5,31.344 4.958,15.263 4.43,31.981 2.313,38.438 -0.547,1.666 -0.798,3.289 -0.594,4.781 0.204,1.492 0.884,3.197 2.625,3.875 1.74,0.678 3.572,-0.001 5.03,-1.156 1.464,-1.156 2.86,-2.923 4.469,-5.5 11.08,-17.76 13.938,-33.364 11.594,-47.22 -2.344,-13.85 -9.678,-25.907 -18.219,-36.719 -8.541,-10.812 -18.445,-20.48 -26,-29.875 -7.556,-9.395 -12.719,-18.256 -12.719,-27.313 l 0,-2.281 -2.313,0 -23.12,0 -2.281,0 m -115,76.81 c 12.668,0 22.844,10.332 22.844,23 0,12.668 -10.175,22.813 -22.844,22.813 -12.668,0 -22.969,-10.143 -22.969,-22.813 0,-12.668 10.301,-23 22.969,-23 m -31.625,61.688 c 7.207,5.86 15.865,9.596 25,10.813 l -25,68.906 c -20.573,-5.488 -39.677,-16.284 -55.06,-31.625 l 55.06,-48.09" id="path848" fill="#ffffff" />
</svg>
