<?xml version="1.0" encoding="UTF-8" standalone="no"?>
<svg
   xmlns:dc="http://purl.org/dc/elements/1.1/"
   xmlns:cc="http://creativecommons.org/ns#"
   xmlns:rdf="http://www.w3.org/1999/02/22-rdf-syntax-ns#"
   xmlns:svg="http://www.w3.org/2000/svg"
   xmlns="http://www.w3.org/2000/svg"
   xmlns:sodipodi="http://sodipodi.sourceforge.net/DTD/sodipodi-0.dtd"
   xmlns:inkscape="http://www.inkscape.org/namespaces/inkscape"
   height="512"
   viewBox="0 0 512 512"
   width="512"
   version="1.1"
   id="svg2"
   inkscape:version="0.91 r13725"
   sodipodi:docname="applications-interfacedesign.svg">
  <defs
     id="defs17" />
  <sodipodi:namedview
     pagecolor="#ffffff"
     bordercolor="#666666"
     borderopacity="1"
     objecttolerance="10"
     gridtolerance="10"
     guidetolerance="10"
     inkscape:pageopacity="0"
     inkscape:pageshadow="2"
     inkscape:window-width="1920"
     inkscape:window-height="1020"
     id="namedview15"
     showgrid="false"
     inkscape:zoom="2.0868075"
     inkscape:cx="410.1167"
     inkscape:cy="-47.025291"
     inkscape:window-x="0"
     inkscape:window-y="0"
     inkscape:window-maximized="1"
     inkscape:current-layer="svg2" />
  <metadata
     id="metadata28">
    <rdf:RDF>
      <cc:Work
         rdf:about="">
        <dc:format>image/svg+xml</dc:format>
        <dc:type
           rdf:resource="http://purl.org/dc/dcmitype/StillImage" />
        <dc:title></dc:title>
      </cc:Work>
    </rdf:RDF>
  </metadata>
  <path
     style="fill:#BF9E73;fill-rule:evenodd;fill-opacity:1"
     inkscape:connector-curvature="0"
     d="m 471.95,253.05 c 0,120.9 -98.01,218.9 -218.9,218.9 -120.9,0 -218.9,-98.01 -218.9,-218.9 0,-120.9 98.01,-218.9 218.9,-218.9 120.9,0 218.9,98.01 218.9,218.9"
     id="path6" />
  <path
     inkscape:connector-curvature="0"
     style="opacity:0.25"
     id="path4190"
     d="m 371.56791,135.00312 -40.63889,6.76063 -30.78453,-0.25122 -158.53663,6.38606 1.20909,16.06289 -0.99533,20.49781 c -1.68175,12.95727 -0.21869,17.54539 -4.05658,21.41011 0.91679,70.06656 3.64617,113.40663 -0.15001,166.37663 l 153.89399,99.5432 c 99.69764,4.21204 227.92643,-114.43631 183.30001,-251.99712"
     sodipodi:nodetypes="cccccccccc" />
  <path
     style="fill-opacity:0.06700003;fill-rule:evenodd"
     inkscape:connector-curvature="0"
     d="M 256,1 C 115.17,1 1,115.17 1,256 1,396.83 115.17,511 256,511 396.83,511 511,396.83 511,256 511,115.17 396.83,1 256,1 m 8.827,44.931 c 120.9,0 218.9,98 218.9,218.9 0,120.9 -98,218.9 -218.9,218.9 -120.9,0 -218.93,-98 -218.93,-218.9 0,-120.9 98.03,-218.9 218.93,-218.9"
     id="path8" />
  <g
     style="fill-opacity:0.12900002;fill-rule:evenodd"
     id="g10">
    <path
       inkscape:connector-curvature="0"
       d="m 256,4.433 c -138.94,0 -251.57,112.63 -251.57,251.57 0,138.94 112.63,251.57 251.57,251.57 138.94,0 251.57,-112.63 251.57,-251.57 C 507.57,117.063 394.94,4.433 256,4.433 m 5.885,38.556 c 120.9,0 218.9,98 218.9,218.9 0,120.9 -98,218.9 -218.9,218.9 -120.9,0 -218.93,-98 -218.93,-218.9 0,-120.9 98.03,-218.9 218.93,-218.9"
       id="path12" />
    <path
       inkscape:connector-curvature="0"
       d="m 256,8.356 c -136.77,0 -247.64,110.87 -247.64,247.64 0,136.77 110.87,247.64 247.64,247.64 136.77,0 247.64,-110.87 247.64,-247.64 C 503.64,119.226 392.77,8.356 256,8.356 m 2.942,31.691 c 120.9,0 218.9,98 218.9,218.9 0,120.9 -98,218.9 -218.9,218.9 -120.9,0 -218.93,-98 -218.93,-218.9 0,-120.9 98.03,-218.9 218.93,-218.9"
       id="path14" />
  </g>
  <path
     style="fill:#ffffff;fill-rule:evenodd;stroke:#000000;stroke-width:4.90399981;stroke-opacity:0.31000001"
     inkscape:connector-curvature="0"
     d="m 253.04,7.859 c -135.42,0 -245.19,109.78 -245.19,245.19 0,135.42 109.78,245.19 245.19,245.19 135.42,0 245.19,-109.78 245.19,-245.19 0,-135.42 -109.78,-245.19 -245.19,-245.19 z m 0,26.297 c 120.9,0 218.9,98 218.9,218.9 0,120.9 -98,218.9 -218.9,218.9 -120.9,0 -218.93,-98 -218.93,-218.9 0,-120.9 98.03,-218.9 218.93,-218.9 z"
     id="path16" />
  <g
     transform="matrix(7.9256922,0,0,7.9256922,103.08917,102.11376)"
     id="g4192"
     style="fill:none;fill-opacity:1;stroke:#ffffff;stroke-opacity:1">
    <path
       inkscape:connector-curvature="0"
       id="path4"
       style="fill:none;fill-opacity:1;stroke:#ffffff;stroke-width:1.60000002;stroke-linecap:round;stroke-miterlimit:4;stroke-dasharray:none;stroke-opacity:1"
       d="m 5.155,4.8 28.09,0 c 0.197,0 0.355,0.158 0.355,0.355 l 0,28.09 c 0,0.197 -0.158,0.355 -0.355,0.355 l -28.09,0 C 4.958,33.6 4.8,33.442 4.8,33.245 l 0,-28.09 C 4.8,4.958 4.958,4.8 5.155,4.8" />
    <path
       inkscape:connector-curvature="0"
       id="path6-5"
       style="fill:none;fill-opacity:1;stroke:#ffffff;stroke-width:0.80000001;stroke-linecap:round;stroke-linejoin:round;stroke-miterlimit:4;stroke-dasharray:none;stroke-opacity:1"
       d="m 9.2,17.2 4.8,0 0,4.8 -4.8,0" />
    <path
       inkscape:connector-curvature="0"
       id="path8-6"
       style="fill:none;fill-opacity:1;stroke:#ffffff;stroke-width:0.80000001;stroke-linecap:round;stroke-linejoin:round;stroke-miterlimit:4;stroke-dasharray:none;stroke-opacity:1"
       d="M 29.2,19.602 C 29.2,20.925 28.125,22 26.798,22 25.475,22 24.4,20.925 24.4,19.602 c 0,-1.327 1.075,-2.402 2.398,-2.402 1.327,0 2.402,1.075 2.402,2.402 z" />
    <path
       inkscape:connector-curvature="0"
       id="path10"
       style="fill:none;fill-opacity:1;stroke:#ffffff;stroke-width:0.80000001;stroke-linecap:round;stroke-linejoin:round;stroke-miterlimit:4;stroke-dasharray:none;stroke-opacity:1"
       d="m 10.292,9.2 17.819,0 c 0.605,0 1.088,0.44 1.088,0.992 l 0,2.02 c 0,0.551 -0.484,0.992 -1.088,0.992 l -17.819,0 C 9.687,13.204 9.2,12.764 9.2,12.212 l 0,-2.02 C 9.2,9.641 9.688,9.2 10.292,9.2 Z" />
    <path
       inkscape:connector-curvature="0"
       id="path12-2"
       style="fill:none;fill-opacity:1;fill-rule:evenodd;stroke:#ffffff;stroke-opacity:1"
       d="m 28,19.6 c 0,0.66 -0.536,1.2 -1.202,1.2 -0.662,0 -1.198,-0.54 -1.198,-1.2 0,-0.66 0.536,-1.2 1.198,-1.2 0.666,0 1.202,0.54 1.202,1.2" />
    <path
       inkscape:connector-curvature="0"
       id="path14-9"
       style="fill:none;fill-opacity:1;stroke:#ffffff;stroke-width:0.80000001;stroke-linecap:round;stroke-linejoin:round;stroke-miterlimit:4;stroke-dasharray:none;stroke-opacity:1"
       d="m 22.8,9.2 0,4 4.996,0 c 0.783,0 1.404,-0.548 1.404,-1.234 l 0,-1.523 c 0,-0.686 -0.621,-1.244 -1.404,-1.244 z" />
    <path
       inkscape:connector-curvature="0"
       id="path16-1"
       style="fill:none;fill-opacity:1;stroke:#ffffff;stroke-width:0.80000001;stroke-linecap:round;stroke-linejoin:round;stroke-miterlimit:4;stroke-dasharray:none;stroke-opacity:1"
       d="m 9.2,24.4 4.8,0 0,4.8 -4.8,0 z" />
    <path
       inkscape:connector-curvature="0"
       id="path18"
       style="fill:none;fill-opacity:1;stroke:#ffffff;stroke-width:0.80000001;stroke-linecap:round;stroke-linejoin:round;stroke-miterlimit:4;stroke-dasharray:none;stroke-opacity:1"
       d="m 29.2,26.798 c 0,1.327 -1.075,2.402 -2.402,2.402 -1.323,0 -2.398,-1.075 -2.398,-2.402 0,-1.323 1.075,-2.398 2.398,-2.398 1.327,0 2.402,1.075 2.402,2.398" />
    <path
       inkscape:connector-curvature="0"
       id="path20"
       style="fill:none;fill-opacity:1;stroke:#ffffff;stroke-opacity:1"
       d="m 10.4,18.4 0.8,0 0,0.8 -0.8,0 z" />
    <path
       inkscape:connector-curvature="0"
       id="path22"
       style="fill:none;fill-opacity:1;stroke:#ffffff;stroke-opacity:1"
       d="m 10.4,20 0.8,0 0,0.8 -0.8,0 z" />
    <path
       inkscape:connector-curvature="0"
       id="path24"
       style="fill:none;fill-opacity:1;stroke:#ffffff;stroke-opacity:1"
       d="m 12,20 0.8,0 0,0.8 -0.8,0 z" />
    <path
       inkscape:connector-curvature="0"
       id="path26"
       style="fill:none;fill-opacity:1;stroke:#ffffff;stroke-opacity:1"
       d="m 12,18.4 0.8,0 0,0.8 -0.8,0 z" />
    <path
       inkscape:connector-curvature="0"
       id="path28"
       style="fill:none;fill-opacity:1;stroke:#ffffff;stroke-opacity:1"
       d="m 11.2,19.2 0.8,0 0,0.8 -0.8,0 z" />
    <path
       inkscape:connector-curvature="0"
       id="path30"
       style="fill:none;fill-opacity:1;stroke:#ffffff;stroke-opacity:1"
       d="m 24.8,10.4 0.8,0 0,0.8 -0.8,0 z" />
    <path
       inkscape:connector-curvature="0"
       id="path32"
       style="fill:none;fill-opacity:1;stroke:#ffffff;stroke-opacity:1"
       d="m 26.4,10.4 0.8,0 0,0.8 -0.8,0 z" />
    <path
       inkscape:connector-curvature="0"
       id="path34"
       style="fill:none;fill-opacity:1;stroke:#ffffff;stroke-opacity:1"
       d="m 25.6,11.2 0.8,0 0,0.8 -0.8,0 z" />
  </g>
</svg>
