<?xml version="1.0" encoding="UTF-8" standalone="no"?>
<svg xmlns="http://www.w3.org/2000/svg" xmlns:inkscape="http://www.inkscape.org/namespaces/inkscape" version="1.1" width="512" height="512" viewBox="0 0 512 512">
 <metadata id="metadata72"/>
 <path d="m 471.95,253.05 c 0,120.9 -98.01,218.9 -218.9,218.9 -120.9,0 -218.9,-98.01 -218.9,-218.9 0,-120.9 98.01,-218.9 218.9,-218.9 120.9,0 218.9,98.01 218.9,218.9" inkscape:connector-curvature="0" id="path4" fill="#BF9E73" fill-rule="evenodd"/>
 <path d="m 140.5,134 v 83.5 83.5 h 1 v 1 h 1 v 1 h 1 v 1 h 0.969 v 0.969 h 1 v 1 h 1 v 1 h 1 v 1 h 1 v 1 h 1 v 1 h 0.969 v 0.969 h 1 v 1 h 1 v 1 h 1 v 1 h 1 v 1 h 1 v 1 h 0.969 v 0.969 h 1 v 1 h 1 v 1 h 1 v 1 h 1 v 1 h 1 v 1 h 0.969 v 0.969 h 0.031 0.969 v 1 h 1 v 1 h 1 v 1 h 1 v 1 h 1 v 1 h 1 v 1 h 0.969 v 0.969 h 1 v 1 h 1 v 1 h 1 v 1 h 1 v 1 h 1 v 1 h 0.969 v 0.969 h 1 v 1 h 1 v 1 h 1 v 1 h 1 v 1 h 1 v 1 h 0.969 v 0.969 h 1 v 1 h 1 v 1 h 1 v 1 h 1 v 1 h 1 v 1 h 1 v 1 h 0.969 v 0.969 h 1 v 1 h 1 v 1 h 1 v 1 h 1 v 1 h 1 v 1 h 0.969 v 0.969 h 1 v 1 h 1 v 1 h 1 v 1 h 1 v 1 h 1 v 1 h 0.969 v 0.969 h 1 v 1 h 1 v 1 h 1 v 1 h 1 v 1 h 1 v 1 h 0.969 v 0.969 h 0.031 0.969 v 1 h 1 v 1 h 1 v 1 h 1 v 1 h 1 v 1 h 1 v 1 h 0.969 v 0.969 h 1 v 1 h 1 v 1 h 1 v 1 h 1 v 1 h 1 v 1 h 0.969 v 0.969 h 1 v 1 h 1 v 1 h 1 v 1 h 1 v 1 h 1 v 1 h 0.969 v 0.969 h 1 v 1 h 1 v 1 h 1 v 1 h 1 v 1 h 1 v 1 h 1 v 1 h 0.969 v 0.969 h 1 v 1 h 1 v 1 h 1 v 1 h 1 v 1 h 1 v 1 h 0.969 v 0.969 h 1 v 1 h 1 v 1 h 1 v 1 h 1 v 1 h 1 v 1 h 0.969 v 0.969 h 1 v 1 h 1 v 1 h 1 v 1 h 1 v 1 h 1 v 1 h 0.969 v 0.969 h 1 v 1 h 1 v 1 h 1 v 1 h 1 v 1 h 1 v 1 h 1 v 1 h 0.969 v 0.969 h 1 v 1 h 1 v 1 h 1 v 1 h 1 v 1 h 1 v 1 h 0.969 v 0.969 h 1 v 1 h 1 v 1 h 1 v 1 h 1 v 1 h 1 v 1 h 0.969 v 0.969 h 1 v 1 h 1 v 1 h 1 v 1 h 1 v 1 h 1 v 1 h 1 v 1 h 0.969 v 0.969 h 1 v 1 h 1 v 1 h 1 v 1 h 1 v 1 h 1 v 1 h 0.969 v 0.969 h 1 v 1 h 1 v 1 h 1 v 1 h 1 v 1 h 1 v 1 h 0.969 v 0.969 h 1 v 1 h 1 v 1 h 1 v 1 h 1 v 1 h 1 v 1 h 0.969 v 0.969 h 1 v 1 h 1 v 1 h 1 v 1 h 1 v 1 h 1 v 1 h 1 v 1 h 0.969 v 0.969 h 1 v 1 h 1 v 1 h 1 v 1 h 1 v 1 h 1 v 0.375 c 77.87,-19.228 139.34,-80.13 159.34,-157.69 v -0.344 h -1 v -1 h -1 v -1 h -0.969 v -0.969 h -1 v -1 h -1 v -1 h -1 v -1 h -1 v -1 h -1 v -1 h -1 v -1 h -0.969 v -0.969 h -1 v -1 h -1 v -1 h -1 v -1 h -1 v -1 h -1 v -1 h -0.969 v -0.969 h -1 v -1 h -1 v -1 h -1 v -1 h -1 v -1 h -1 v -1 h -0.969 v -0.969 h -1 v -1 h -1 v -1 h -1 v -1 h -1 v -1 h -1 v -1 h -1 v -1 h -0.969 v -0.969 h -1 v -1 h -1 v -1 h -1 v -1 h -1 v -1 h -1 v -1 h -0.969 v -0.969 h -1 v -1 h -1 v -1 h -1 v -1 h -1 v -1 h -1 v -1 h -0.969 v -0.969 h -1 v -1 h -1 v -1 h -1 v -1 h -1 v -1 h -1 v -1 h -0.969 v -0.969 h -1 v -1 h -1 v -1 h -1 v -1 h -1 v -1 h -1 v -1 h -1 v -1 h -0.969 v -0.969 h -1 v -1 h -1 v -1 h -1 v -1 h -1 v -1 h -1 v -1 h -0.969 v -0.969 h -1 v -1 h -1 v -1 h -1 v -1 h -1 v -1 h -1 v -1 h -0.969 v -0.969 h -1 v -1 h -1 v -1 h -1 v -1 h -1 v -1 h -1 v -1 h -1 v -1 h -0.969 v -0.969 h -1 v -1 h -1 v -1 h -1 v -1 h -1 v -1 h -1 v -1 h -0.969 v -0.969 h -1 v -1 h -1 v -1 h -1 v -1 h -1 v -1 h -1 v -1 h -0.969 v -0.969 h -1 v -1 h -1 v -1 h -1 v -1 h -1 v -1 h -1 v -1 h -0.969 V 217 h -0.938 -0.063 v -1 h -0.625 -0.375 v -1 h -0.313 -0.688 v -1 h -22.406 v -0.406 h -1 v -1 h -0.969 v -0.969 h -1 v -1 h -1 v -1 h -1 v -1 h -1 v -1 h -1 v -1 h -0.969 v -0.969 h -1 v -1 h -1 v -1 h -1 v -1 h -1 v -1 h -1 v -1 h -1 v -1 h -0.969 v -0.969 h -1 v -1 h -1 v -1 h -1 v -1 h -1 v -1 h -1 v -1 h -0.969 v -0.969 h -1 v -1 h -1 v -1 h -1 v -1 h -1 v -1 h -1 v -1 h -0.969 v -0.969 h -1 v -1 h -1 v -1 h -1 v -1 h -1 v -1 h -1 v -1 h -0.969 v -0.969 h -1 v -1 h -1 v -1 h -1 v -1 h -1 v -1 h -1 v -1 h -1 v -1 h -0.969 v -0.969 h -1 v -1 h -1 v -1 h -1 v -1 h -1 v -1 h -1 v -1 h -0.969 v -0.969 h -1 v -1 h -1 v -1 h -1 v -1 h -1 v -1 h -1 v -1 h -0.969 v -0.969 h -1 v -1 h -1 v -1 h -1 v -1 h -1 v -1 h -1 v -1 h -1 v -1 h -0.969 v -0.969 h -1 v -1 h -1 v -1 h -1 v -1 h -1 v -1 h -1 v -1 h -0.969 v -0.969 h -1 v -1 h -1 v -1 h -1 v -1 h -1 v -1 h -1 v -1 h -0.969 v -0.969 h -1 v -1 h -1 v -1 h -1 v -1 h -1 v -1 h -1 v -1 h -0.969 v -0.969 h -0.031 -0.969 v -1 h -1 v -1 h -1 v -1 h -64.5 -64.5" inkscape:connector-curvature="0" id="path6" fill-opacity="0.235"/>
 <g id="g8" fill-rule="evenodd">
  <path d="M 256,1 C 115.17,1 1,115.17 1,256 1,396.83 115.17,511 256,511 396.83,511 511,396.83 511,256 511,115.17 396.83,1 256,1 m 8.827,44.931 c 120.9,0 218.9,98 218.9,218.9 0,120.9 -98,218.9 -218.9,218.9 -120.9,0 -218.93,-98 -218.93,-218.9 0,-120.9 98.03,-218.9 218.93,-218.9" inkscape:connector-curvature="0" id="path10" fill-opacity="0.067"/>
  <g id="g12" fill-opacity="0.129">
   <path d="m 256,4.433 c -138.94,0 -251.57,112.63 -251.57,251.57 0,138.94 112.63,251.57 251.57,251.57 138.94,0 251.57,-112.63 251.57,-251.57 C 507.57,117.063 394.94,4.433 256,4.433 m 5.885,38.556 c 120.9,0 218.9,98 218.9,218.9 0,120.9 -98,218.9 -218.9,218.9 -120.9,0 -218.93,-98 -218.93,-218.9 0,-120.9 98.03,-218.9 218.93,-218.9" inkscape:connector-curvature="0" id="path14"/>
   <path d="m 256,8.356 c -136.77,0 -247.64,110.87 -247.64,247.64 0,136.77 110.87,247.64 247.64,247.64 136.77,0 247.64,-110.87 247.64,-247.64 C 503.64,119.226 392.77,8.356 256,8.356 m 2.942,31.691 c 120.9,0 218.9,98 218.9,218.9 0,120.9 -98,218.9 -218.9,218.9 -120.9,0 -218.93,-98 -218.93,-218.9 0,-120.9 98.03,-218.9 218.93,-218.9" inkscape:connector-curvature="0" id="path16"/>
  </g>
  <path d="m 253.04,7.859 c -135.42,0 -245.19,109.78 -245.19,245.19 0,135.42 109.78,245.19 245.19,245.19 135.42,0 245.19,-109.78 245.19,-245.19 0,-135.42 -109.78,-245.19 -245.19,-245.19 z m 0,26.297 c 120.9,0 218.9,98 218.9,218.9 0,120.9 -98,218.9 -218.9,218.9 -120.9,0 -218.93,-98 -218.93,-218.9 0,-120.9 98.03,-218.9 218.93,-218.9 z" inkscape:connector-curvature="0" id="path18" stroke-opacity="0.31" fill="#ffffff" stroke="#000000" stroke-width="4.904"/>
 </g>
 <text x="729.64" y="231.36" id="text20" font-family="Gentium Book Basic" word-spacing="0" line-height="125%" letter-spacing="0" font-size="129.23"><tspan x="729.64" y="231.36" id="tspan22"/>
 </text>
 <text x="378.91" y="579.25" transform="scale(4.0128,0.2492)" id="text24" font-family="Arial" text-anchor="middle" font-size="46.954"/>
 <text x="1310.91" y="151.36" id="text26" font-family="Gentium Book Basic" word-spacing="0" line-height="125%" letter-spacing="0" font-size="129.23"><tspan x="1310.91" y="151.36" id="tspan28"/>
 </text>
 <text x="523.76" y="258.22" transform="scale(4.0128,0.2492)" id="text30" font-family="Arial" text-anchor="middle" font-size="46.954"/>
 <text x="239.33" y="-29.901" id="text32" font-family="Gentium Book Basic" word-spacing="0" line-height="125%" letter-spacing="0" font-size="129.23"><tspan x="239.33" y="-29.901" id="tspan34"/>
 </text>
 <text x="256.72" y="-469.14" transform="scale(4.0128,0.2492)" id="text36" font-family="Arial" text-anchor="middle" font-size="46.954"/>
 <text x="1337.38" y="-246.37" id="text38" font-family="Gentium Book Basic" word-spacing="0" line-height="125%" letter-spacing="0" font-size="129.23"><tspan x="1337.38" y="-246.37" id="tspan40"/>
 </text>
 <text x="530.36" y="-1337.81" transform="scale(4.0128,0.2492)" id="text42" font-family="Arial" text-anchor="middle" font-size="46.954"/>
 <text x="1918.65" y="-326.38" id="text44" font-family="Gentium Book Basic" word-spacing="0" line-height="125%" letter-spacing="0" font-size="129.23"><tspan x="1918.65" y="-326.38" id="tspan46"/>
 </text>
 <text x="675.21" y="-1658.85" transform="scale(4.0128,0.2492)" id="text48" font-family="Arial" text-anchor="middle" font-size="46.954"/>
 <text x="1529.53" y="-798.78" id="text50" font-family="Gentium Book Basic" word-spacing="0" line-height="125%" letter-spacing="0" font-size="129.23"><tspan x="1529.53" y="-798.78" id="tspan52"/>
 </text>
 <text x="578.24" y="-3554.51" transform="scale(4.0128,0.2492)" id="text54" font-family="Arial" text-anchor="middle" font-size="46.954"/>
 <text x="2110.79" y="-878.78" id="text56" font-family="Gentium Book Basic" word-spacing="0" line-height="125%" letter-spacing="0" font-size="129.23"><tspan x="2110.79" y="-878.78" id="tspan58"/>
 </text>
 <text x="723.09" y="-3875.54" transform="scale(4.0128,0.2492)" id="text60" font-family="Arial" text-anchor="middle" font-size="46.954"/>
 <text x="277.99" y="535.94" id="text62" font-family="Gentium Book Basic" word-spacing="0" line-height="125%" letter-spacing="0" font-size="208.33"><tspan x="277.99" y="535.94" id="tspan64"/>
 </text>
 <path d="m 140.5,134 v 83.5 83.5 h 48.5 48.5 v -18 c 0,-13.74 -0.296,-18.01 -1.25,-18 -0.688,0.007 -4.779,1.132 -9.06,2.5 -10.126,3.234 -13,3.221 -15.656,-0.156 -2.276,-2.893 -3.644,-7.07 -2.656,-8.06 0.34,-0.34 3.305,-0.988 6.594,-1.438 6.55,-0.896 17.302,-4.889 20.19,-7.5 1.626,-1.471 1.844,-3.419 1.844,-17.469 0,-14.607 -0.15,-15.887 -1.938,-16.844 -2.916,-1.561 -6.586,-1.242 -8.313,0.719 -0.848,0.963 -2.767,4.225 -4.281,7.25 -9.777,19.537 -29.32,38.16 -43,41 -10.545,2.189 -17.8,-0.773 -21.938,-8.938 -7.504,-14.809 1.663,-36.11 20.03,-46.563 2.715,-1.546 5.5,-3.501 6.188,-4.344 1.618,-1.983 1.638,-14.362 0.031,-15.969 -0.754,-0.754 -4.562,-1.21 -10.25,-1.219 -13.184,-0.02 -13.708,-0.23 -13.344,-5.844 l 0.313,-4.625 11.25,0.344 c 13.607,0.431 14.229,0.106 14.25,-7.719 0.008,-3.095 0.395,-6.199 0.844,-6.906 1.122,-1.769 7.43,-2.681 9.813,-1.406 1.683,0.901 1.896,1.87 1.531,6.906 -0.623,8.612 0,8.932 15.13,7.5 6.699,-0.634 16.181,-1.859 21.09,-2.719 4.913,-0.86 9.558,-1.352 10.313,-1.063 0.962,0.369 1.276,1.978 1.063,5.313 l -0.281,4.75 -7,1.219 c -3.85,0.667 -14.425,1.933 -23.5,2.813 -18.269,1.772 -19,2.103 -19,8.594 0,6.26 1.671,7.07 12.844,6.281 10.328,-0.73 11.441,-1.162 13.781,-5.688 1.356,-2.621 1.908,-2.882 5.03,-2.375 5.078,0.824 6.473,2.332 5.75,6.188 -1.065,5.676 1.411,6.469 19.813,6.469 h 15.781 v -36 -36 h -64.5 -64.5 m 69.16,75.969 c -4.875,0.003 -10.955,1.756 -12.156,4 -1.326,2.477 -1.3,18.606 0.031,21.09 1.747,3.263 4.677,2.282 8.406,-2.813 8.139,-11.12 11.518,-20.294 7.969,-21.656 -1.13,-0.434 -2.625,-0.626 -4.25,-0.625 m 36.844,4.03 v 82 82 h 62.5 62.5 v -82 -82 h -62.5 -62.5 m -64.25,6.188 c -3.043,0.372 -9.344,6.067 -11.781,10.844 -7.888,15.461 -1.667,27.03 11.563,21.5 3.88,-1.621 5.69,-5.062 4.875,-9.281 -0.292,-1.513 -0.837,-7.25 -1.219,-12.75 -0.643,-9.262 -0.856,-10.03 -2.875,-10.313 -0.172,-0.024 -0.36,-0.025 -0.563,0 m 127.16,19.813 c 7.804,0 11.214,0.403 12.781,1.5 2.34,1.639 3.533,4.626 14.844,37 4.228,12.1 10.4,29.65 13.719,39 9.421,26.541 9.43,26.5 -5.344,26.5 -10.82,0 -13.1,-1.088 -14.25,-6.844 -0.298,-1.489 -1.51,-5.289 -2.688,-8.438 l -2.125,-5.719 h -16.313 c -11.836,0 -16.575,0.343 -17.313,1.25 -0.559,0.688 -2.165,4.552 -3.563,8.594 -1.398,4.04 -3.303,8.204 -4.25,9.25 -1.452,1.605 -3.158,1.906 -10.875,1.906 -9.875,0 -11.55,-0.708 -11.531,-4.938 0.016,-3.627 32.463,-94.84 34.563,-97.16 1.509,-1.667 3.133,-1.906 12.344,-1.906 m 0.344,32.938 c -0.17,0.01 -0.319,0.17 -0.469,0.438 -1.351,2.415 -8.781,24.688 -8.781,26.313 0,0.968 2.296,1.313 9.09,1.313 h 9.125 l -0.656,-3.438 c -0.356,-1.895 -2.259,-8.529 -4.219,-14.719 -2.32,-7.325 -3.359,-9.948 -4.094,-9.906" inkscape:connector-curvature="0" id="path66" fill="#ffffff"/>
</svg>
