<?xml version="1.0" encoding="UTF-8" standalone="no"?>
<svg xmlns="http://www.w3.org/2000/svg" xmlns:inkscape="http://www.inkscape.org/namespaces/inkscape" version="1.1" width="512" height="512" viewBox="0 0 512 512">
 <metadata id="metadata78"/>
 <path d="m 471.95,253.05 c 0,120.9 -98.01,218.9 -218.9,218.9 -120.9,0 -218.9,-98.01 -218.9,-218.9 0,-120.9 98.01,-218.9 218.9,-218.9 120.9,0 218.9,98.01 218.9,218.9" inkscape:connector-curvature="0" id="path4" fill="#BF9E73" fill-rule="evenodd"/>
 <path d="m 243.53,125.78 c -1.729,0.064 -3.476,0.428 -5.281,1.156 -9.598,0.613 -27.328,-3.839 -26.16,11.313 1.971,22.98 -15.178,-16 -26.688,-11.313 -16.474,0.417 -33.1,-0.865 -49.47,0.656 -9.269,6.677 -3.802,19.956 -5.281,29.844 v 219.16 c 10.481,17.847 29.628,30.499 43.594,46.25 16.12,15.533 32.08,31.19 47.938,46.938 10.08,1.423 20.367,2.188 30.844,2.188 110.54,0 201.93,-81.957 216.78,-188.41 -52.1,-51.947 -103.78,-104.36 -156.28,-155.87 l -4.313,-0.875 c -12.241,3.357 -25.13,5.449 -36.75,10.5 -6.717,1.726 -16.835,-11.979 -28.938,-11.531" inkscape:connector-curvature="0" id="path6" fill-opacity="0.235"/>
 <g id="g8" fill-rule="evenodd">
  <path d="M 256,1 C 115.17,1 1,115.17 1,256 1,396.83 115.17,511 256,511 396.83,511 511,396.83 511,256 511,115.17 396.83,1 256,1 m 8.827,44.931 c 120.9,0 218.9,98 218.9,218.9 0,120.9 -98,218.9 -218.9,218.9 -120.9,0 -218.93,-98 -218.93,-218.9 0,-120.9 98.03,-218.9 218.93,-218.9" inkscape:connector-curvature="0" id="path10" fill-opacity="0.067"/>
  <g id="g12" fill-opacity="0.129">
   <path d="m 256,4.433 c -138.94,0 -251.57,112.63 -251.57,251.57 0,138.94 112.63,251.57 251.57,251.57 138.94,0 251.57,-112.63 251.57,-251.57 C 507.57,117.063 394.94,4.433 256,4.433 m 5.885,38.556 c 120.9,0 218.9,98 218.9,218.9 0,120.9 -98,218.9 -218.9,218.9 -120.9,0 -218.93,-98 -218.93,-218.9 0,-120.9 98.03,-218.9 218.93,-218.9" inkscape:connector-curvature="0" id="path14"/>
   <path d="m 256,8.356 c -136.77,0 -247.64,110.87 -247.64,247.64 0,136.77 110.87,247.64 247.64,247.64 136.77,0 247.64,-110.87 247.64,-247.64 C 503.64,119.226 392.77,8.356 256,8.356 m 2.942,31.691 c 120.9,0 218.9,98 218.9,218.9 0,120.9 -98,218.9 -218.9,218.9 -120.9,0 -218.93,-98 -218.93,-218.9 0,-120.9 98.03,-218.9 218.93,-218.9" inkscape:connector-curvature="0" id="path16"/>
  </g>
  <path d="m 253.04,7.859 c -135.42,0 -245.19,109.78 -245.19,245.19 0,135.42 109.78,245.19 245.19,245.19 135.42,0 245.19,-109.78 245.19,-245.19 0,-135.42 -109.78,-245.19 -245.19,-245.19 z m 0,26.297 c 120.9,0 218.9,98 218.9,218.9 0,120.9 -98,218.9 -218.9,218.9 -120.9,0 -218.93,-98 -218.93,-218.9 0,-120.9 98.03,-218.9 218.93,-218.9 z" inkscape:connector-curvature="0" id="path18" stroke-opacity="0.31" fill="#ffffff" stroke="#000000" stroke-width="4.904"/>
 </g>
 <text x="729.64" y="231.36" id="text20" font-family="Gentium Book Basic" word-spacing="0" line-height="125%" letter-spacing="0" font-size="129.23"><tspan x="729.64" y="231.36" id="tspan22"/>
 </text>
 <text x="378.91" y="579.25" transform="scale(4.0128,0.2492)" id="text24" font-family="Arial" text-anchor="middle" font-size="46.954"/>
 <text x="1310.91" y="151.36" id="text26" font-family="Gentium Book Basic" word-spacing="0" line-height="125%" letter-spacing="0" font-size="129.23"><tspan x="1310.91" y="151.36" id="tspan28"/>
 </text>
 <text x="523.76" y="258.22" transform="scale(4.0128,0.2492)" id="text30" font-family="Arial" text-anchor="middle" font-size="46.954"/>
 <text x="239.33" y="-29.901" id="text32" font-family="Gentium Book Basic" word-spacing="0" line-height="125%" letter-spacing="0" font-size="129.23"><tspan x="239.33" y="-29.901" id="tspan34"/>
 </text>
 <text x="256.72" y="-469.14" transform="scale(4.0128,0.2492)" id="text36" font-family="Arial" text-anchor="middle" font-size="46.954"/>
 <text x="1337.38" y="-246.37" id="text38" font-family="Gentium Book Basic" word-spacing="0" line-height="125%" letter-spacing="0" font-size="129.23"><tspan x="1337.38" y="-246.37" id="tspan40"/>
 </text>
 <text x="530.36" y="-1337.81" transform="scale(4.0128,0.2492)" id="text42" font-family="Arial" text-anchor="middle" font-size="46.954"/>
 <text x="1918.65" y="-326.38" id="text44" font-family="Gentium Book Basic" word-spacing="0" line-height="125%" letter-spacing="0" font-size="129.23"><tspan x="1918.65" y="-326.38" id="tspan46"/>
 </text>
 <text x="675.21" y="-1658.85" transform="scale(4.0128,0.2492)" id="text48" font-family="Arial" text-anchor="middle" font-size="46.954"/>
 <text x="1529.53" y="-798.78" id="text50" font-family="Gentium Book Basic" word-spacing="0" line-height="125%" letter-spacing="0" font-size="129.23"><tspan x="1529.53" y="-798.78" id="tspan52"/>
 </text>
 <text x="578.24" y="-3554.51" transform="scale(4.0128,0.2492)" id="text54" font-family="Arial" text-anchor="middle" font-size="46.954"/>
 <text x="2110.79" y="-878.78" id="text56" font-family="Gentium Book Basic" word-spacing="0" line-height="125%" letter-spacing="0" font-size="129.23"><tspan x="2110.79" y="-878.78" id="tspan58"/>
 </text>
 <text x="723.09" y="-3875.54" transform="scale(4.0128,0.2492)" id="text60" font-family="Arial" text-anchor="middle" font-size="46.954"/>
 <text x="277.99" y="535.94" id="text62" font-family="Gentium Book Basic" word-spacing="0" line-height="125%" letter-spacing="0" font-size="208.33"><tspan x="277.99" y="535.94" id="tspan64"/>
 </text>
 <g transform="matrix(8.70447,0,0,8.70447,90.61,90.62)" id="g66" fill="#ffffff">
  <path d="m 5.594,4.172 c -0.551,0 -0.992,0.438 -0.992,0.984 v 27.699 c 0,0.547 0.441,0.985 0.992,0.985 h 5.613 c 0.555,0 0.996,-0.438 0.996,-0.985 V 5.156 c 0,-0.547 -0.441,-0.984 -0.996,-0.984 z m 0.937,2.781 h 3.742 V 18.078 H 6.531 z m 1.871,16.688 c 1.031,0 1.871,0.832 1.871,1.855 0,1.024 -0.839,1.856 -1.871,1.856 -1.035,0 -1.871,-0.832 -1.871,-1.856 0,-1.023 0.836,-1.855 1.871,-1.855" inkscape:connector-curvature="0" id="path68"/>
  <path d="m 14.949,4.172 c -0.551,0 -0.992,0.438 -0.992,0.984 v 27.699 c 0,0.547 0.441,0.985 0.992,0.985 h 3.742 c 0.555,0 0.997,-0.438 0.997,-0.985 V 5.156 c 0,-0.547 -0.442,-0.984 -0.997,-0.984 z m 0,2.781 h 3.742 v 11.125 h -3.742 z m 1.871,16.688 c 1.035,0 1.871,0.832 1.871,1.855 0,1.024 -0.836,1.856 -1.871,1.856 -1.031,0 -1.871,-0.832 -1.871,-1.856 0,-1.023 0.84,-1.855 1.871,-1.855" inkscape:connector-curvature="0" id="path70"/>
  <path d="m 21.297,5.148 c -0.531,0.145 -0.844,0.68 -0.703,1.207 l 7.234,26.758 c 0.145,0.527 0.688,0.835 1.219,0.695 l 3.613,-0.957 c 0.535,-0.145 0.848,-0.68 0.703,-1.207 L 26.129,4.886 C 25.988,4.358 25.445,4.05 24.914,4.19 z m 0.726,2.688 3.618,-0.957 2.902,10.746 -3.613,0.961 z m 6.168,15.641 c 0.997,-0.266 2.024,0.324 2.289,1.312 0.27,0.988 -0.324,2.01 -1.32,2.27 -1,0.265 -2.023,-0.321 -2.293,-1.309 -0.265,-0.988 0.324,-2.01 1.324,-2.273" inkscape:connector-curvature="0" id="path72"/>
 </g>
</svg>
