<?xml version="1.0" encoding="UTF-8" standalone="no"?>
<svg
   xmlns:dc="http://purl.org/dc/elements/1.1/"
   xmlns:cc="http://creativecommons.org/ns#"
   xmlns:rdf="http://www.w3.org/1999/02/22-rdf-syntax-ns#"
   xmlns:svg="http://www.w3.org/2000/svg"
   xmlns="http://www.w3.org/2000/svg"
   xmlns:sodipodi="http://sodipodi.sourceforge.net/DTD/sodipodi-0.dtd"
   xmlns:inkscape="http://www.inkscape.org/namespaces/inkscape"
   height="512"
   viewBox="0 0 512 512"
   width="512"
   version="1.1"
   id="svg2"
   inkscape:version="0.91 r13725"
   sodipodi:docname="applications-lisp.svg">
  <defs
     id="defs17" />
  <sodipodi:namedview
     pagecolor="#ffffff"
     bordercolor="#666666"
     borderopacity="1"
     objecttolerance="10"
     gridtolerance="10"
     guidetolerance="10"
     inkscape:pageopacity="0"
     inkscape:pageshadow="2"
     inkscape:window-width="1920"
     inkscape:window-height="1020"
     id="namedview15"
     showgrid="false"
     inkscape:zoom="0.73779787"
     inkscape:cx="-103.13656"
     inkscape:cy="555.03907"
     inkscape:window-x="0"
     inkscape:window-y="0"
     inkscape:window-maximized="1"
     inkscape:current-layer="svg2" />
  <metadata
     id="metadata28">
    <rdf:RDF>
      <cc:Work
         rdf:about="">
        <dc:format>image/svg+xml</dc:format>
        <dc:type
           rdf:resource="http://purl.org/dc/dcmitype/StillImage" />
        <dc:title></dc:title>
      </cc:Work>
    </rdf:RDF>
  </metadata>
  <path
     style="fill:#BF9E73;fill-rule:evenodd;fill-opacity:1"
     inkscape:connector-curvature="0"
     d="m 471.95,253.05 c 0,120.9 -98.01,218.9 -218.9,218.9 -120.9,0 -218.9,-98.01 -218.9,-218.9 0,-120.9 98.01,-218.9 218.9,-218.9 120.9,0 218.9,98.01 218.9,218.9"
     id="path6" />
  <path
     inkscape:connector-curvature="0"
     style="opacity:0.25"
     id="path4190"
     d="m 407.7326,153.07353 -75.2181,9.69785 -32.37001,-13.33144 -27.4209,1.76579 -76.39665,9.58479 -16.85014,17.32685 -12.06156,15.47842 -0.0198,12.80456 2.37058,9.98772 7.04098,-3.083 -7.26143,20.76859 -38.00406,-30.5647 -7.98392,69.39657 -8.03695,38.13048 9.92531,40.88283 165.10467,117.47439 c 91.3976,2.60558 195.74755,-116.66084 179.9456,-248.64272"
     sodipodi:nodetypes="ccccccccccccccccc" />
  <path
     style="fill-opacity:0.06700003;fill-rule:evenodd"
     inkscape:connector-curvature="0"
     d="M 256,1 C 115.17,1 1,115.17 1,256 1,396.83 115.17,511 256,511 396.83,511 511,396.83 511,256 511,115.17 396.83,1 256,1 m 8.827,44.931 c 120.9,0 218.9,98 218.9,218.9 0,120.9 -98,218.9 -218.9,218.9 -120.9,0 -218.93,-98 -218.93,-218.9 0,-120.9 98.03,-218.9 218.93,-218.9"
     id="path8" />
  <g
     style="fill-opacity:0.12900002;fill-rule:evenodd"
     id="g10">
    <path
       inkscape:connector-curvature="0"
       d="m 256,4.433 c -138.94,0 -251.57,112.63 -251.57,251.57 0,138.94 112.63,251.57 251.57,251.57 138.94,0 251.57,-112.63 251.57,-251.57 C 507.57,117.063 394.94,4.433 256,4.433 m 5.885,38.556 c 120.9,0 218.9,98 218.9,218.9 0,120.9 -98,218.9 -218.9,218.9 -120.9,0 -218.93,-98 -218.93,-218.9 0,-120.9 98.03,-218.9 218.93,-218.9"
       id="path12" />
    <path
       inkscape:connector-curvature="0"
       d="m 256,8.356 c -136.77,0 -247.64,110.87 -247.64,247.64 0,136.77 110.87,247.64 247.64,247.64 136.77,0 247.64,-110.87 247.64,-247.64 C 503.64,119.226 392.77,8.356 256,8.356 m 2.942,31.691 c 120.9,0 218.9,98 218.9,218.9 0,120.9 -98,218.9 -218.9,218.9 -120.9,0 -218.93,-98 -218.93,-218.9 0,-120.9 98.03,-218.9 218.93,-218.9"
       id="path14" />
  </g>
  <path
     style="fill:#ffffff;fill-rule:evenodd;stroke:#000000;stroke-width:4.90399981;stroke-opacity:0.31000001"
     inkscape:connector-curvature="0"
     d="m 253.04,7.859 c -135.42,0 -245.19,109.78 -245.19,245.19 0,135.42 109.78,245.19 245.19,245.19 135.42,0 245.19,-109.78 245.19,-245.19 0,-135.42 -109.78,-245.19 -245.19,-245.19 z m 0,26.297 c 120.9,0 218.9,98 218.9,218.9 0,120.9 -98,218.9 -218.9,218.9 -120.9,0 -218.93,-98 -218.93,-218.9 0,-120.9 98.03,-218.9 218.93,-218.9 z"
     id="path16" />
  <path
     inkscape:connector-curvature="0"
     d="m 210.43437,146.02989 c -29.6539,0 -54.08003,24.42615 -54.08003,54.08002 l 0,90.13337 c 0,9.95974 8.06694,18.02667 18.02667,18.02667 9.95974,0 18.02668,-8.06693 18.02668,-18.02667 l 0,-90.13337 c 0,-10.16704 7.85962,-18.02666 18.02668,-18.02666 l 171.25338,0 c 3.2448,0 6.19216,1.6945 7.81456,4.50667 1.62241,2.81215 1.62241,6.20118 0,9.01332 -1.6224,2.81217 -4.56976,4.50667 -7.81456,4.50667 -24.67851,0 -45.06668,20.38818 -45.06668,45.06668 l 0,45.06669 c 0,9.95974 8.06692,18.02667 18.02667,18.02667 9.95974,0 18.02668,-8.06693 18.02668,-18.02667 l 0,-45.06669 c 0,-5.19169 3.82165,-9.01333 9.01333,-9.01333 16.07079,0 31.00587,-8.61675 39.04577,-22.53334 8.03989,-13.9166 8.03989,-31.15008 0,-45.06669 -8.0399,-13.91658 -22.97498,-22.53334 -39.04577,-22.53334 z m -90.13336,54.08002 c -9.95974,0 -18.02668,8.06693 -18.02668,18.02667 l 0,90.13337 c 0,29.65387 24.42614,54.08002 54.08001,54.08002 37.55857,0 75.10814,0 112.6667,0 17.68416,0 34.07942,-9.47301 42.92151,-24.78667 8.84208,-15.31367 8.84208,-34.25969 0,-49.57335 -8.84209,-15.31366 -25.23735,-24.78668 -42.92151,-24.78668 l -9.01333,0 c -4.85819,0 -9.29275,-2.55078 -11.72635,-6.76001 -2.43361,-4.20922 -2.43361,-9.31078 0,-13.52001 2.4336,-4.20922 6.86816,-6.75999 11.72635,-6.75999 l 40.56002,0 c 9.95973,0 18.02665,-8.06694 18.02665,-18.02668 0,-9.95974 -8.06692,-18.02667 -18.02665,-18.02667 l -40.56002,0 c -17.68418,0 -34.11548,9.47302 -42.95755,24.78667 -8.8421,15.31366 -8.8421,34.25969 0,49.57335 8.84207,15.31366 25.27337,24.78667 42.95755,24.78667 l 9.01333,0 c 4.85819,0 9.29275,2.55079 11.72635,6.76001 2.4336,4.20922 2.4336,9.31078 0,13.52 -2.4336,4.20923 -6.86816,6.76 -11.72635,6.76 -37.55856,0 -75.10813,0 -112.6667,0 -10.16704,0 -18.02666,-7.85962 -18.02666,-18.02666 l 0,-90.13337 c 0,-9.95974 -8.06694,-18.02667 -18.02667,-18.02667 z"
     style="opacity:1;fill:#ffffff;fill-opacity:1;fill-rule:nonzero;stroke:none"
     id="path4-3" />
</svg>
