<?xml version="1.0" encoding="UTF-8" standalone="no"?>
<svg
   xmlns:dc="http://purl.org/dc/elements/1.1/"
   xmlns:cc="http://creativecommons.org/ns#"
   xmlns:rdf="http://www.w3.org/1999/02/22-rdf-syntax-ns#"
   xmlns:svg="http://www.w3.org/2000/svg"
   xmlns="http://www.w3.org/2000/svg"
   xmlns:sodipodi="http://sodipodi.sourceforge.net/DTD/sodipodi-0.dtd"
   xmlns:inkscape="http://www.inkscape.org/namespaces/inkscape"
   height="512"
   width="512"
   version="1.1"
   viewBox="0 0 512 512"
   id="svg2"
   inkscape:version="0.91 r13725"
   sodipodi:docname="preferences-system-network-proxy.svg">
  <defs
     id="defs39" />
  <sodipodi:namedview
     pagecolor="#ffffff"
     bordercolor="#666666"
     borderopacity="1"
     objecttolerance="10"
     gridtolerance="10"
     guidetolerance="10"
     inkscape:pageopacity="0"
     inkscape:pageshadow="2"
     inkscape:window-width="1680"
     inkscape:window-height="991"
     id="namedview37"
     showgrid="false"
     inkscape:zoom="0.4609375"
     inkscape:cx="256"
     inkscape:cy="256"
     inkscape:window-x="0"
     inkscape:window-y="0"
     inkscape:window-maximized="1"
     inkscape:current-layer="svg2" />
  <metadata
     id="metadata72">
    <rdf:RDF>
      <cc:Work
         rdf:about="">
        <dc:format>image/svg+xml</dc:format>
        <dc:type
           rdf:resource="http://purl.org/dc/dcmitype/StillImage" />
      </cc:Work>
    </rdf:RDF>
  </metadata>
  <path
     id="path4"
     fill="#0279ad"
     d="m471.95 253.05c0 120.9-98.01 218.9-218.9 218.9-120.9 0-218.9-98.01-218.9-218.9 0-120.9 98.01-218.9 218.9-218.9 120.9 0 218.9 98.01 218.9 218.9"
     fill-rule="evenodd"
     style="fill:#BF9E73;fill-opacity:1" />
  <path
     id="path6"
     d="m256.22 120.91c-21.17 0-41.23 4.924-59.09 13.656-0.02-0.008-0.656-0.25-0.656-0.25-0.083 0.225-0.168 0.462-0.25 0.688-44.46 22.15-75.09 68.11-75.09 121.03 0 36.854 14.864 70.29 38.906 94.69 0.041 0.042 0.084 0.083 0.125 0.125 0.274 0.277 0.567 0.537 0.844 0.813 0.056 0.058 0.1 0.129 0.156 0.188 0.423 0.42 0.852 0.836 1.281 1.25 0.041 0.042 0.084 0.083 0.125 0.125 0.29 0.285 0.551 0.592 0.844 0.875 0.379 0.374 0.742 0.756 1.125 1.125 0.331 0.325 0.666 0.647 1 0.969 0.135 0.136 0.271 0.271 0.406 0.406 0.066 0.069 0.121 0.15 0.188 0.219 0.041 0.042 0.084 0.083 0.125 0.125 0.164 0.159 0.335 0.31 0.5 0.469 0.127 0.133 0.247 0.274 0.375 0.406 0.09 0.087 0.191 0.163 0.281 0.25 0.335 0.331 0.661 0.673 1 1 0.041 0.042 0.084 0.083 0.125 0.125 0.29 0.285 0.551 0.592 0.844 0.875 0.379 0.374 0.742 0.756 1.125 1.125 0.336 0.33 0.661 0.673 1 1 0.405 0.398 0.809 0.795 1.219 1.188 0.127 0.133 0.247 0.274 0.375 0.406 0.09 0.087 0.191 0.163 0.281 0.25 0.335 0.331 0.661 0.673 1 1 0.335 0.331 0.661 0.673 1 1 0.021 0.021 0.042 0.041 0.063 0.063 0.161 0.162 0.307 0.339 0.469 0.5 0.051 0.053 0.105 0.103 0.156 0.156 0.138 0.134 0.268 0.273 0.406 0.406 0.336 0.33 0.661 0.673 1 1 0.405 0.398 0.809 0.795 1.219 1.188 0.127 0.133 0.247 0.274 0.375 0.406 0.09 0.087 0.191 0.163 0.281 0.25 0.335 0.331 0.661 0.673 1 1 0.335 0.331 0.661 0.673 1 1 0.021 0.021 0.042 0.041 0.063 0.063 0.161 0.162 0.307 0.339 0.469 0.5 0.051 0.053 0.105 0.103 0.156 0.156 0.138 0.134 0.268 0.273 0.406 0.406 0.336 0.33 0.661 0.673 1 1 0.294 0.289 0.579 0.589 0.875 0.875 0.444 0.438 0.893 0.88 1.344 1.313 0.127 0.133 0.247 0.274 0.375 0.406 0.09 0.087 0.191 0.163 0.281 0.25 0.335 0.331 0.661 0.673 1 1 0.041 0.042 0.084 0.083 0.125 0.125 0.29 0.285 0.551 0.592 0.844 0.875 0.379 0.374 0.742 0.756 1.125 1.125 0.336 0.33 0.661 0.673 1 1 0.405 0.398 0.809 0.795 1.219 1.188 0.127 0.133 0.247 0.274 0.375 0.406 0.09 0.087 0.191 0.163 0.281 0.25 0.335 0.331 0.661 0.673 1 1 0.335 0.331 0.661 0.673 1 1 0.021 0.021 0.042 0.041 0.063 0.063 0.161 0.162 0.307 0.339 0.469 0.5 0.051 0.053 0.105 0.103 0.156 0.156 0.138 0.134 0.268 0.273 0.406 0.406 0.336 0.33 0.661 0.673 1 1 0.405 0.398 0.809 0.795 1.219 1.188 0.127 0.133 0.247 0.274 0.375 0.406 0.09 0.087 0.191 0.163 0.281 0.25 0.335 0.331 0.661 0.673 1 1 0.335 0.331 0.661 0.673 1 1 0.021 0.021 0.042 0.041 0.063 0.063 0.161 0.162 0.307 0.339 0.469 0.5 0.051 0.053 0.105 0.103 0.156 0.156 0.138 0.134 0.268 0.273 0.406 0.406 0.336 0.33 0.661 0.673 1 1 0.294 0.289 0.579 0.589 0.875 0.875 0.444 0.438 0.893 0.88 1.344 1.313 0.127 0.133 0.247 0.274 0.375 0.406 0.09 0.087 0.191 0.163 0.281 0.25 0.335 0.331 0.661 0.673 1 1 0.041 0.042 0.084 0.083 0.125 0.125 0.111 0.109 0.201 0.235 0.313 0.344 0.082 0.085 0.168 0.165 0.25 0.25 0.095 0.093 0.186 0.189 0.281 0.281 0.379 0.374 0.742 0.756 1.125 1.125 0.294 0.289 0.579 0.589 0.875 0.875 0.444 0.438 0.893 0.88 1.344 1.313 0.127 0.133 0.247 0.274 0.375 0.406 0.09 0.087 0.191 0.163 0.281 0.25 0.335 0.331 0.661 0.673 1 1 0.041 0.042 0.084 0.083 0.125 0.125 0.29 0.285 0.551 0.592 0.844 0.875 0.379 0.374 0.742 0.756 1.125 1.125 0.336 0.33 0.661 0.673 1 1 0.405 0.398 0.809 0.795 1.219 1.188 0.127 0.133 0.247 0.274 0.375 0.406 0.09 0.087 0.191 0.163 0.281 0.25 0.335 0.331 0.661 0.673 1 1 0.335 0.331 0.661 0.673 1 1 0.021 0.021 0.042 0.041 0.063 0.063 0.161 0.162 0.307 0.339 0.469 0.5 0.051 0.053 0.105 0.103 0.156 0.156 0.138 0.134 0.268 0.273 0.406 0.406 0.336 0.33 0.661 0.673 1 1 0.405 0.398 0.809 0.795 1.219 1.188 0.127 0.133 0.247 0.274 0.375 0.406 0.09 0.087 0.191 0.163 0.281 0.25 0.335 0.331 0.661 0.673 1 1 0.335 0.331 0.661 0.673 1 1 0.021 0.021 0.042 0.041 0.063 0.063 0.161 0.162 0.307 0.339 0.469 0.5 0.051 0.053 0.105 0.103 0.156 0.156 0.138 0.134 0.268 0.273 0.406 0.406 0.336 0.33 0.661 0.673 1 1 0.294 0.289 0.579 0.589 0.875 0.875 0.444 0.438 0.893 0.88 1.344 1.313 0.127 0.133 0.247 0.274 0.375 0.406 0.09 0.087 0.191 0.163 0.281 0.25 0.335 0.331 0.661 0.673 1 1 0.041 0.042 0.084 0.083 0.125 0.125 0.29 0.285 0.551 0.592 0.844 0.875 0.379 0.374 0.742 0.756 1.125 1.125 0.336 0.33 0.661 0.673 1 1 0.405 0.398 0.809 0.795 1.219 1.188 0.127 0.133 0.247 0.274 0.375 0.406 0.09 0.087 0.191 0.163 0.281 0.25 0.335 0.331 0.661 0.673 1 1 0.335 0.331 0.661 0.673 1 1 0.021 0.021 0.042 0.041 0.063 0.063 0.161 0.162 0.307 0.339 0.469 0.5 0.051 0.053 0.105 0.103 0.156 0.156 0.138 0.134 0.268 0.273 0.406 0.406 0.336 0.33 0.661 0.673 1 1 0.405 0.398 0.809 0.795 1.219 1.188 0.127 0.133 0.247 0.274 0.375 0.406 0.09 0.087 0.191 0.163 0.281 0.25 0.335 0.331 0.661 0.673 1 1 0.335 0.331 0.661 0.673 1 1 0.021 0.021 0.042 0.041 0.063 0.063 0.161 0.162 0.307 0.339 0.469 0.5 0.051 0.053 0.105 0.103 0.156 0.156 0.138 0.134 0.268 0.273 0.406 0.406 0.336 0.33 0.661 0.673 1 1 0.294 0.289 0.579 0.589 0.875 0.875 0.444 0.438 0.893 0.88 1.344 1.313 0.127 0.133 0.247 0.274 0.375 0.406 0.09 0.087 0.191 0.163 0.281 0.25 0.335 0.331 0.661 0.673 1 1 0.041 0.042 0.084 0.083 0.125 0.125 0.111 0.109 0.201 0.235 0.313 0.344 0.082 0.085 0.168 0.165 0.25 0.25 0.095 0.093 0.186 0.189 0.281 0.281 0.379 0.374 0.742 0.756 1.125 1.125 0.294 0.289 0.579 0.589 0.875 0.875 0.444 0.438 0.893 0.88 1.344 1.313 0.127 0.133 0.247 0.274 0.375 0.406 0.09 0.087 0.191 0.163 0.281 0.25 0.335 0.331 0.661 0.673 1 1 0.041 0.042 0.084 0.083 0.125 0.125 0.29 0.285 0.551 0.592 0.844 0.875 0.379 0.374 0.742 0.756 1.125 1.125 0.336 0.33 0.661 0.673 1 1 0.405 0.398 0.809 0.795 1.219 1.188 0.127 0.133 0.247 0.274 0.375 0.406 0.09 0.087 0.191 0.163 0.281 0.25 0.335 0.331 0.661 0.673 1 1 0.335 0.331 0.661 0.673 1 1 0.021 0.021 0.042 0.041 0.063 0.063 0.161 0.162 0.307 0.339 0.469 0.5 0.051 0.053 0.105 0.103 0.156 0.156 0.138 0.134 0.268 0.273 0.406 0.406 0.336 0.33 0.661 0.673 1 1 0.405 0.398 0.809 0.795 1.219 1.188 0.127 0.133 0.247 0.274 0.375 0.406 0.09 0.087 0.191 0.163 0.281 0.25 0.335 0.331 0.661 0.673 1 1 0.335 0.331 0.661 0.673 1 1 0.021 0.021 0.042 0.041 0.063 0.063 0.161 0.162 0.307 0.339 0.469 0.5 0.051 0.053 0.105 0.103 0.156 0.156 0.138 0.134 0.268 0.273 0.406 0.406 0.336 0.33 0.661 0.673 1 1 0.294 0.289 0.579 0.589 0.875 0.875 0.444 0.438 0.893 0.88 1.344 1.313 0.127 0.133 0.247 0.274 0.375 0.406 0.09 0.087 0.191 0.163 0.281 0.25 0.335 0.331 0.661 0.673 1 1 0.041 0.042 0.084 0.083 0.125 0.125 0.29 0.285 0.551 0.592 0.844 0.875 0.379 0.374 0.742 0.756 1.125 1.125 0.336 0.33 0.661 0.673 1 1 0.405 0.398 0.809 0.795 1.219 1.188 0.127 0.133 0.247 0.274 0.375 0.406 0.032 0.031 0.06 0.065 0.094 0.094 99.7-12.08 178.71-91.17 190.69-190.91l-0.031-0.031c-0.326-0.337-0.671-0.666-1-1-0.327-0.339-0.669-0.665-1-1-0.329-0.341-0.667-0.663-1-1-0.139-0.144-0.267-0.294-0.406-0.438-0.052-0.052-0.104-0.105-0.156-0.156-0.134-0.138-0.271-0.269-0.406-0.406-0.092-0.095-0.189-0.186-0.281-0.281-0.239-0.231-0.478-0.458-0.719-0.688-0.326-0.337-0.671-0.666-1-1-0.326-0.337-0.671-0.666-1-1-0.327-0.339-0.669-0.665-1-1-0.329-0.341-0.667-0.663-1-1-0.329-0.341-0.667-0.663-1-1-0.087-0.09-0.162-0.191-0.25-0.281-0.239-0.231-0.478-0.458-0.719-0.688-0.326-0.337-0.671-0.666-1-1-0.326-0.337-0.671-0.666-1-1-0.327-0.339-0.669-0.665-1-1-0.329-0.341-0.667-0.663-1-1-0.329-0.341-0.667-0.663-1-1-0.087-0.091-0.162-0.191-0.25-0.281-0.106-0.103-0.206-0.21-0.313-0.313-0.134-0.138-0.271-0.269-0.406-0.406-0.322-0.334-0.674-0.638-1-0.969-0.326-0.337-0.671-0.666-1-1-0.326-0.337-0.671-0.666-1-1-0.327-0.339-0.669-0.665-1-1-0.329-0.341-0.667-0.663-1-1-0.094-0.093-0.187-0.188-0.281-0.281-0.17-0.164-0.329-0.336-0.5-0.5-0.058-0.058-0.098-0.13-0.156-0.188-0.011-0.01-0.021-0.021-0.031-0.031-0.092-0.095-0.189-0.186-0.281-0.281-0.239-0.231-0.478-0.458-0.719-0.688-0.326-0.337-0.671-0.666-1-1-0.326-0.337-0.671-0.666-1-1-0.327-0.339-0.669-0.665-1-1-0.329-0.341-0.667-0.663-1-1-0.329-0.341-0.667-0.663-1-1-0.087-0.09-0.162-0.191-0.25-0.281-0.239-0.231-0.478-0.458-0.719-0.688-0.326-0.337-0.671-0.666-1-1-0.326-0.337-0.671-0.666-1-1-0.327-0.339-0.669-0.665-1-1-0.329-0.341-0.667-0.663-1-1-0.329-0.341-0.667-0.663-1-1-0.087-0.09-0.162-0.191-0.25-0.281-0.239-0.231-0.478-0.458-0.719-0.688-0.326-0.337-0.671-0.666-1-1-0.326-0.337-0.671-0.666-1-1-0.326-0.337-0.671-0.666-1-1-0.329-0.341-0.667-0.663-1-1-0.329-0.341-0.667-0.663-1-1-0.324-0.335-0.641-0.668-0.969-1-0.322-0.334-0.674-0.638-1-0.969-0.326-0.337-0.671-0.666-1-1-0.326-0.337-0.671-0.666-1-1-0.327-0.339-0.669-0.665-1-1-0.329-0.341-0.667-0.663-1-1-0.094-0.093-0.187-0.188-0.281-0.281-0.17-0.164-0.329-0.336-0.5-0.5-0.058-0.058-0.098-0.13-0.156-0.188-0.011-0.01-0.021-0.021-0.031-0.031-0.092-0.095-0.189-0.186-0.281-0.281-0.239-0.231-0.478-0.458-0.719-0.688-0.326-0.337-0.671-0.666-1-1-0.326-0.337-0.671-0.666-1-1-0.327-0.339-0.669-0.665-1-1-0.329-0.341-0.667-0.663-1-1-0.329-0.341-0.667-0.663-1-1-0.087-0.09-0.162-0.191-0.25-0.281-0.239-0.231-0.478-0.458-0.719-0.688-0.326-0.337-0.671-0.666-1-1-0.326-0.337-0.671-0.666-1-1-0.327-0.339-0.669-0.665-1-1-0.329-0.341-0.667-0.663-1-1-0.329-0.341-0.667-0.663-1-1-0.265-0.257-0.514-0.526-0.781-0.781-0.068-0.068-0.119-0.151-0.188-0.219-0.322-0.334-0.674-0.638-1-0.969-0.326-0.337-0.671-0.666-1-1-0.326-0.337-0.671-0.666-1-1-0.327-0.339-0.669-0.665-1-1-0.329-0.341-0.667-0.663-1-1-0.139-0.144-0.267-0.294-0.406-0.438-0.052-0.052-0.104-0.105-0.156-0.156-0.134-0.138-0.271-0.269-0.406-0.406-0.092-0.095-0.189-0.186-0.281-0.281-0.239-0.231-0.478-0.458-0.719-0.688-0.326-0.337-0.671-0.666-1-1-0.326-0.337-0.671-0.666-1-1-0.327-0.339-0.669-0.665-1-1-0.329-0.341-0.667-0.663-1-1-0.329-0.341-0.667-0.663-1-1-0.087-0.09-0.162-0.191-0.25-0.281-0.239-0.231-0.478-0.458-0.719-0.688-0.326-0.337-0.671-0.666-1-1-0.326-0.337-0.671-0.666-1-1-0.327-0.339-0.669-0.665-1-1-0.329-0.341-0.667-0.663-1-1-0.329-0.341-0.667-0.663-1-1-0.087-0.09-0.162-0.191-0.25-0.281-0.239-0.231-0.478-0.458-0.719-0.688-0.326-0.337-0.671-0.666-1-1-0.326-0.337-0.671-0.666-1-1-0.326-0.337-0.671-0.666-1-1-0.329-0.341-0.667-0.663-1-1-0.329-0.341-0.667-0.663-1-1-0.092-0.096-0.189-0.186-0.281-0.281-0.101-0.098-0.211-0.184-0.313-0.281-0.021-0.021-0.042-0.041-0.063-0.063-0.048-0.046-0.077-0.11-0.125-0.156-0.068-0.068-0.119-0.151-0.188-0.219-0.322-0.334-0.674-0.638-1-0.969-0.326-0.337-0.671-0.666-1-1-0.326-0.337-0.671-0.666-1-1-0.327-0.339-0.669-0.665-1-1-0.329-0.341-0.667-0.663-1-1-0.139-0.144-0.267-0.294-0.406-0.438-0.052-0.052-0.104-0.105-0.156-0.156-0.134-0.138-0.271-0.269-0.406-0.406-0.092-0.095-0.189-0.186-0.281-0.281-0.239-0.231-0.478-0.458-0.719-0.688-0.326-0.337-0.671-0.666-1-1-0.326-0.337-0.671-0.666-1-1-0.327-0.339-0.669-0.665-1-1-0.329-0.341-0.667-0.663-1-1-0.329-0.341-0.667-0.663-1-1-0.087-0.09-0.162-0.191-0.25-0.281-0.239-0.231-0.478-0.458-0.719-0.688-0.326-0.337-0.671-0.666-1-1-0.326-0.337-0.671-0.666-1-1-0.327-0.339-0.669-0.665-1-1-0.329-0.341-0.667-0.663-1-1-0.329-0.341-0.667-0.663-1-1-0.087-0.091-0.162-0.191-0.25-0.281-0.106-0.103-0.206-0.21-0.313-0.313-0.134-0.138-0.271-0.269-0.406-0.406-0.322-0.334-0.674-0.638-1-0.969-0.326-0.337-0.671-0.666-1-1-0.326-0.337-0.671-0.666-1-1-0.327-0.339-0.669-0.665-1-1-0.329-0.341-0.667-0.663-1-1-0.094-0.093-0.187-0.188-0.281-0.281-0.17-0.164-0.329-0.336-0.5-0.5-0.058-0.058-0.098-0.13-0.156-0.188-0.011-0.01-0.021-0.021-0.031-0.031-0.092-0.095-0.189-0.186-0.281-0.281-0.239-0.231-0.478-0.458-0.719-0.688-0.326-0.337-0.671-0.666-1-1-0.326-0.337-0.671-0.666-1-1-0.327-0.339-0.669-0.665-1-1-0.329-0.341-0.667-0.663-1-1-0.329-0.341-0.667-0.663-1-1-0.087-0.09-0.162-0.191-0.25-0.281-0.239-0.231-0.478-0.458-0.719-0.688-10.692-11.07-23.26-20.323-37.19-27.22-0.057-0.154-0.131-0.314-0.188-0.469l-0.438 0.188c-17.772-8.682-37.766-13.594-58.875-13.594"
     fill-opacity="0.235"
     color="#000000" />
  <g
     id="g8"
     fill-rule="evenodd">
    <path
       id="path10"
       d="m256 1c-140.83 0-255 114.17-255 255s114.17 255 255 255 255-114.17 255-255-114.17-255-255-255m8.827 44.931c120.9 0 218.9 98 218.9 218.9s-98 218.9-218.9 218.9-218.93-98-218.93-218.9 98.03-218.9 218.93-218.9"
       fill-opacity="0.067" />
    <g
       id="g12"
       fill-opacity="0.129">
      <path
         id="path14"
         d="m256 4.433c-138.94 0-251.57 112.63-251.57 251.57s112.63 251.57 251.57 251.57 251.57-112.63 251.57-251.57-112.63-251.57-251.57-251.57m5.885 38.556c120.9 0 218.9 98 218.9 218.9s-98 218.9-218.9 218.9-218.93-98-218.93-218.9 98.03-218.9 218.93-218.9" />
      <path
         id="path16"
         d="m256 8.356c-136.77 0-247.64 110.87-247.64 247.64s110.87 247.64 247.64 247.64 247.64-110.87 247.64-247.64-110.87-247.64-247.64-247.64m2.942 31.691c120.9 0 218.9 98 218.9 218.9s-98 218.9-218.9 218.9-218.93-98-218.93-218.9 98.03-218.9 218.93-218.9" />
    </g>
    <path
       id="path18"
       d="m253.04 7.859c-135.42 0-245.19 109.78-245.19 245.19 0 135.42 109.78 245.19 245.19 245.19 135.42 0 245.19-109.78 245.19-245.19 0-135.42-109.78-245.19-245.19-245.19zm0 26.297c120.9 0 218.9 98 218.9 218.9s-98 218.9-218.9 218.9-218.93-98-218.93-218.9 98.03-218.9 218.93-218.9z"
       stroke-opacity="0.31"
       stroke="#000"
       stroke-width="4.904"
       fill="#fff" />
  </g>
  <text
     id="text20"
     font-size="129.23"
     line-height="125%"
     y="231.36"
     x="729.64"
     font-family="Gentium Book Basic"
     word-spacing="0"
     letter-spacing="0">
    <tspan
       id="tspan22"
       y="231.36"
       x="729.64" />
  </text>
  <text
     id="text24"
     transform="scale(4.0128 .2492)"
     font-size="46.954"
     y="579.25"
     x="378.91"
     font-family="Arial"
     text-anchor="middle" />
  <text
     id="text26"
     font-size="129.23"
     line-height="125%"
     y="151.36"
     x="1310.91"
     font-family="Gentium Book Basic"
     word-spacing="0"
     letter-spacing="0">
    <tspan
       id="tspan28"
       y="151.36"
       x="1310.91" />
  </text>
  <text
     id="text30"
     transform="scale(4.0128 .2492)"
     font-size="46.954"
     y="258.22"
     x="523.76"
     font-family="Arial"
     text-anchor="middle" />
  <text
     id="text32"
     font-size="129.23"
     line-height="125%"
     y="-29.901"
     x="239.33"
     font-family="Gentium Book Basic"
     word-spacing="0"
     letter-spacing="0">
    <tspan
       id="tspan34"
       y="-29.901"
       x="239.33" />
  </text>
  <text
     id="text36"
     transform="scale(4.0128 .2492)"
     font-size="46.954"
     y="-469.14"
     x="256.72"
     font-family="Arial"
     text-anchor="middle" />
  <text
     id="text38"
     font-size="129.23"
     line-height="125%"
     y="-246.37"
     x="1337.38"
     font-family="Gentium Book Basic"
     word-spacing="0"
     letter-spacing="0">
    <tspan
       id="tspan40"
       y="-246.37"
       x="1337.38" />
  </text>
  <text
     id="text42"
     transform="scale(4.0128 .2492)"
     font-size="46.954"
     y="-1337.81"
     x="530.36"
     font-family="Arial"
     text-anchor="middle" />
  <text
     id="text44"
     font-size="129.23"
     line-height="125%"
     y="-326.38"
     x="1918.65"
     font-family="Gentium Book Basic"
     word-spacing="0"
     letter-spacing="0">
    <tspan
       id="tspan46"
       y="-326.38"
       x="1918.65" />
  </text>
  <text
     id="text48"
     transform="scale(4.0128 .2492)"
     font-size="46.954"
     y="-1658.85"
     x="675.21"
     font-family="Arial"
     text-anchor="middle" />
  <text
     id="text50"
     font-size="129.23"
     line-height="125%"
     y="-798.78"
     x="1529.53"
     font-family="Gentium Book Basic"
     word-spacing="0"
     letter-spacing="0">
    <tspan
       id="tspan52"
       y="-798.78"
       x="1529.53" />
  </text>
  <text
     id="text54"
     transform="scale(4.0128 .2492)"
     font-size="46.954"
     y="-3554.51"
     x="578.24"
     font-family="Arial"
     text-anchor="middle" />
  <text
     id="text56"
     font-size="129.23"
     line-height="125%"
     y="-878.78"
     x="2110.79"
     font-family="Gentium Book Basic"
     word-spacing="0"
     letter-spacing="0">
    <tspan
       id="tspan58"
       y="-878.78"
       x="2110.79" />
  </text>
  <text
     id="text60"
     transform="scale(4.0128 .2492)"
     font-size="46.954"
     y="-3875.54"
     x="723.09"
     font-family="Arial"
     text-anchor="middle" />
  <text
     id="text62"
     font-size="208.33"
     line-height="125%"
     y="535.94"
     x="277.99"
     font-family="Gentium Book Basic"
     word-spacing="0"
     letter-spacing="0">
    <tspan
       id="tspan64"
       y="535.94"
       x="277.99" />
  </text>
  <path
     id="path66"
     d="m256.23 120.91c-21.17 0-41.24 4.935-59.1 13.668l-0.675-0.253c-0.083 0.225-0.171 0.449-0.253 0.675-44.46 22.15-75.09 68.11-75.09 121.03 0 52.961 30.7 98.9 75.21 121.03 0.12 0.278 0.217 0.566 0.337 0.844l0.717-0.295c17.799 8.654 37.774 13.499 58.847 13.499 21.02 0 40.921-4.8 58.64-13.415l0.506 0.211c0.091-0.208 0.163-0.424 0.253-0.633 44.608-22.05 75.26-68.11 75.26-121.24 0-53.09-30.604-99.17-75.17-121.24-0.057-0.154-0.112-0.31-0.169-0.464l-0.464 0.169c-17.772-8.682-37.738-13.583-58.847-13.583m-8.648 17.253v58.847h-50.916c3.169-16.83 7.522-33.467 13.08-49.651 11.755-5.03 24.478-8.235 37.839-9.196m16.874 0c13.329 0.917 26.04 4.02 37.755 8.985 5.589 16.251 9.982 32.958 13.161 49.862h-50.916v-58.847m59.18 20.881c14.16 9.92 26.04 22.888 34.675 37.966h-25.732c-2.31-12.783-5.315-25.482-8.943-37.966m-135.37 0.253c-3.593 12.402-6.567 25.02-8.859 37.713h-25.648c8.622-14.953 20.443-27.825 34.507-37.713m-42.479 54.59h31.01c-1.496 11.234-2.484 22.505-2.911 33.747h-35.519c0.825-11.818 3.386-23.15 7.424-33.747m48.09 0h53.7v33.747h-56.7c0.446-11.225 1.436-22.515 2.995-33.747m70.57 0h53.658c1.556 11.232 2.594 22.523 3.037 33.747h-56.69v-33.74m70.74 0h31.09c4.01 10.6 6.521 21.929 7.34 33.747h-35.519c-0.43-11.242-1.413-22.513-2.911-33.747m-196.83 50.621h35.31c0.125 11.339 0.786 22.617 2.067 33.747h-29.909c-4.04-10.588-6.63-21.942-7.467-33.747m52.27 0h56.949v33.747h-54.76c-1.339-11.1-2.065-22.377-2.194-33.747m73.822 0h56.906c-0.132 11.37-0.852 22.647-2.194 33.747h-54.713v-33.747m73.907 0h35.27c-0.83 11.805-3.367 23.16-7.382 33.747h-29.993c1.279-11.13 1.987-22.409 2.109-33.747m-184.51 50.621h24.34c2.15 12.507 5.082 24.763 8.816 36.7-13.476-9.741-24.8-22.24-33.16-36.7m41.509 0h52.22v58.763c-13.505-0.972-26.358-4.245-38.22-9.365-6.256-15.683-10.905-32.26-14.01-49.4m69.1 0h52.18c-3.116 17.207-7.751 33.867-14.05 49.609-11.82 5.062-24.66 8.227-38.13 9.154v-58.75m69.39 0h24.382c-8.36 14.557-19.702 27.14-33.24 36.911 3.764-12 6.699-24.333 8.859-36.911"
     fill="#fff"
     color="#000000" />
</svg>
