<?xml version="1.0" encoding="UTF-8" standalone="no"?>
<svg
   xmlns:dc="http://purl.org/dc/elements/1.1/"
   xmlns:cc="http://creativecommons.org/ns#"
   xmlns:rdf="http://www.w3.org/1999/02/22-rdf-syntax-ns#"
   xmlns:svg="http://www.w3.org/2000/svg"
   xmlns="http://www.w3.org/2000/svg"
   xmlns:sodipodi="http://sodipodi.sourceforge.net/DTD/sodipodi-0.dtd"
   xmlns:inkscape="http://www.inkscape.org/namespaces/inkscape"
   width="512"
   height="512"
   viewBox="0 0 135.46666 135.46666"
   version="1.1"
   id="svg2"
   inkscape:version="0.91 r13725"
   sodipodi:docname="preferences-desktop-display.svg">
  <defs
     id="defs22" />
  <sodipodi:namedview
     pagecolor="#ffffff"
     bordercolor="#666666"
     borderopacity="1"
     objecttolerance="10"
     gridtolerance="10"
     guidetolerance="10"
     inkscape:pageopacity="0"
     inkscape:pageshadow="2"
     inkscape:window-width="1920"
     inkscape:window-height="1020"
     id="namedview20"
     showgrid="false"
     inkscape:zoom="1.5250549"
     inkscape:cx="256"
     inkscape:cy="256"
     inkscape:window-x="0"
     inkscape:window-y="0"
     inkscape:window-maximized="1"
     inkscape:current-layer="layer1" />
  <metadata
     id="metadata9615">
    <rdf:RDF>
      <cc:Work
         rdf:about="">
        <dc:format>image/svg+xml</dc:format>
        <dc:type
           rdf:resource="http://purl.org/dc/dcmitype/StillImage" />
      </cc:Work>
    </rdf:RDF>
  </metadata>
  <g
     inkscape:label="Layer 1"
     inkscape:groupmode="layer"
     id="layer1"
     transform="translate(0,-161.53335)">
    <path
       style="fill:#BF9E73;fill-rule:evenodd;fill-opacity:1"
       inkscape:connector-curvature="0"
       id="path12484"
       d="m 124.88333,228.48775 c 0,31.98812 -25.931809,57.91994 -57.919935,57.91994 -31.988126,0 -57.9199391,-25.93182 -57.9199391,-57.91994 0,-31.98813 25.9318131,-57.91994 57.9199391,-57.91994 31.988126,0 57.919935,25.93181 57.919935,57.91994" />
    <path
       style="fill-opacity:0.06700003;fill-rule:evenodd"
       inkscape:connector-curvature="0"
       id="path12486"
       d="m 67.733332,161.79793 c -37.261271,0 -67.46875133,30.20748 -67.46875133,67.46875 0,37.26127 30.20748033,67.46875 67.46875133,67.46875 37.261268,0 67.468748,-30.20748 67.468748,-67.46875 0,-37.26127 -30.20748,-67.46875 -67.468748,-67.46875 m 2.335478,11.88799 c 31.98813,0 57.91729,25.92917 57.91729,57.9173 0,31.98812 -25.92916,57.91729 -57.91729,57.91729 -31.988126,0 -57.925231,-25.92917 -57.925231,-57.91729 0,-31.98813 25.937105,-57.9173 57.925231,-57.9173" />
    <g
       style="fill-opacity:0.12900002;fill-rule:evenodd"
       id="g12488"
       transform="matrix(0.26458334,0,0,0.26458334,-753.77148,173.35387)">
      <path
         inkscape:connector-curvature="0"
         id="path12490"
         d="m 3104.9,-40.25 c -138.94,0 -251.57,112.63 -251.57,251.57 0,138.94 112.63,251.57 251.57,251.57 138.94,0 251.57,-112.63 251.57,-251.57 0,-138.94 -112.63,-251.57 -251.57,-251.57 m 5.885,38.556 c 120.9,0 218.9,98 218.9,218.9 0,120.9 -98,218.9 -218.9,218.9 -120.9,0 -218.93,-98 -218.93,-218.9 0,-120.9 98.03,-218.9 218.93,-218.9" />
      <path
         inkscape:connector-curvature="0"
         id="path12492"
         d="m 3104.9,-36.32 c -136.77,0 -247.64,110.87 -247.64,247.64 0,136.77 110.87,247.64 247.64,247.64 136.77,0 247.64,-110.87 247.64,-247.64 0,-136.77 -110.87,-247.64 -247.64,-247.64 m 2.942,31.691 c 120.9,0 218.9,98 218.9,218.9 0,120.9 -98,218.9 -218.9,218.9 -120.9,0 -218.93,-98 -218.93,-218.9 0,-120.9 98.03,-218.9 218.93,-218.9" />
    </g>
    <path
       style="fill:#ffffff;fill-rule:evenodd;stroke:#000000;stroke-width:1.2975167;stroke-opacity:0.31000001"
       inkscape:connector-curvature="0"
       id="path12494"
       d="m 66.966041,163.61297 c -35.829876,0 -64.8731895,29.04596 -64.8731895,64.87319 0,35.82987 29.0459595,64.87319 64.8731895,64.87319 35.829879,0 64.873189,-29.04596 64.873189,-64.87319 0,-35.82988 -29.04596,-64.87319 -64.873189,-64.87319 z m 0,6.95775 c 31.988125,0 57.917289,25.92917 57.917289,57.91729 0,31.98813 -25.929164,57.91729 -57.917289,57.91729 -31.988126,0 -57.9252309,-25.92916 -57.9252309,-57.91729 0,-31.98812 25.9371049,-57.91729 57.9252309,-57.91729 z" />
    <path
       style="opacity:0.25"
       inkscape:connector-curvature="0"
       id="path12498"
       d="m 39.131873,193.54687 c -7.818702,0 -14.239346,7.68615 -14.239346,17.04446 l 0,37.35123 17.047105,17.0471 -0.0026,0 -17.044459,-17.04445 c 0,5.23187 2.006865,9.94092 5.142706,13.0757 l 24.087668,24.08767 c 4.132262,0.93345 8.430683,1.42875 12.845256,1.42875 32.056918,0 58.044293,-25.98208 58.044293,-58.04165 0,-4.41669 -0.49556,-8.71749 -1.42981,-12.85187 l -18.1266,-18.1266 c 0.007,0.007 0.0127,0.0135 0.019,0.0201 l -0.0201,-0.0201 c -2.47333,-2.47333 -5.648326,-3.96769 -9.095582,-3.96822 l 0,-5.3e-4 -57.224085,0" />
    <path
       style="fill:#ffffff"
       d="M 147.90039 120.99609 C 118.34939 120.99609 94.080078 150.04602 94.080078 185.41602 L 94.080078 326.58594 C 94.080078 361.95593 118.34939 391.00586 147.90039 391.00586 L 364.17969 391.00586 C 393.73069 391.00586 417.99805 361.95593 417.99805 326.58594 L 417.99805 185.41602 C 417.99805 150.04602 393.73069 120.99609 364.17969 120.99609 L 147.90039 120.99609 z M 226.26367 146.49414 C 272.34219 146.47882 318.43125 146.64453 364.5 146.53516 L 364.49219 146.53906 C 379.92918 145.89106 390.82745 160.82851 392.89844 174.72852 C 394.16945 225.38851 393.11309 276.14665 393.45703 326.84766 C 394.62706 342.70266 386.52219 361.6161 369.86719 365.41211 C 296.64718 366.48009 223.29735 365.58404 150.02734 365.87695 C 133.93234 367.61395 121.47035 352.34963 119.52734 337.47266 C 118.29735 286.51264 119.26009 235.46567 118.99609 184.47266 C 117.8701 168.76766 126.56684 150.02738 143.33984 146.81641 C 170.9736 146.57702 198.61656 146.50334 226.26367 146.49414 z "
       transform="matrix(0.26458333,0,0,0.26458333,0,161.53335)"
       id="path12500" />
    <path
       style="fill:#ffffff"
       inkscape:connector-curvature="0"
       id="path12504"
       d="m 43.867915,204.31806 c -4.659313,0.29607 -7.599892,5.26441 -7.329223,9.59114 0.237596,12.97517 -0.221985,25.32592 0.11086,36.57601 15.499292,-14.91986 33.686751,-32.37707 47.52446,-46.17774 -13.434219,0.002 -26.871084,-0.006 -40.306626,0.008" />
  </g>
</svg>
