<?xml version="1.0" encoding="UTF-8" standalone="no"?>
<svg xmlns="http://www.w3.org/2000/svg" xmlns:sodipodi="http://sodipodi.sourceforge.net/DTD/sodipodi-0.dtd" xmlns:inkscape="http://www.inkscape.org/namespaces/inkscape" viewBox="0 0 512 512" version="1.1">
 <metadata id="metadata1124"/>
 <path id="path1058" d="m 471.95,253.05 c 0,120.9 -98.01,218.9 -218.9,218.9 -120.9,0 -218.9,-98.01 -218.9,-218.9 0,-120.9 98.01,-218.9 218.9,-218.9 120.9,0 218.9,98.01 218.9,218.9" inkscape:connector-curvature="0" fill="#BF9E73" fill-rule="evenodd"/>
 <path id="path1060" d="M 256,1 C 115.17,1 1,115.17 1,256 1,396.83 115.17,511 256,511 396.83,511 511,396.83 511,256 511,115.17 396.83,1 256,1 m 8.827,44.931 c 120.9,0 218.9,98 218.9,218.9 0,120.9 -98,218.9 -218.9,218.9 -120.9,0 -218.93,-98 -218.93,-218.9 0,-120.9 98.03,-218.9 218.93,-218.9" inkscape:connector-curvature="0" fill-rule="evenodd" fill-opacity="0.067"/>
 <path inkscape:connector-curvature="0" d="m 256,4.433 c -138.94,0 -251.57,112.63 -251.57,251.57 0,138.94 112.63,251.57 251.57,251.57 138.94,0 251.57,-112.63 251.57,-251.57 C 507.57,117.063 394.94,4.433 256,4.433 m 5.885,38.556 c 120.9,0 218.9,98 218.9,218.9 0,120.9 -98,218.9 -218.9,218.9 -120.9,0 -218.93,-98 -218.93,-218.9 0,-120.9 98.03,-218.9 218.93,-218.9" id="path1064" fill-rule="evenodd" fill-opacity="0.129"/>
 <path inkscape:connector-curvature="0" d="m 256,8.356 c -136.77,0 -247.64,110.87 -247.64,247.64 0,136.77 110.87,247.64 247.64,247.64 136.77,0 247.64,-110.87 247.64,-247.64 C 503.64,119.226 392.77,8.356 256,8.356 m 2.942,31.691 c 120.9,0 218.9,98 218.9,218.9 0,120.9 -98,218.9 -218.9,218.9 -120.9,0 -218.93,-98 -218.93,-218.9 0,-120.9 98.03,-218.9 218.93,-218.9" id="path1066" fill-rule="evenodd" fill-opacity="0.129"/>
 <path id="path1068" d="m 253.04,7.859 c -135.42,0 -245.19,109.78 -245.19,245.19 0,135.42 109.78,245.19 245.19,245.19 135.42,0 245.19,-109.78 245.19,-245.19 0,-135.42 -109.78,-245.19 -245.19,-245.19 z m 0,26.297 c 120.9,0 218.9,98 218.9,218.9 0,120.9 -98,218.9 -218.9,218.9 -120.9,0 -218.93,-98 -218.93,-218.9 0,-120.9 98.03,-218.9 218.93,-218.9 z" inkscape:connector-curvature="0" stroke-opacity="0.31" fill="#ffffff" fill-rule="evenodd" stroke="#000000" stroke-width="4.904"/>
 <path inkscape:connector-curvature="0" d="m 300.82,113.26 c -3.137,0.045 -6.165,0.221 -9.236,0.666 l 11.166,11.166 -0.008,0 -11.162,-11.162 c -8.19,1.186 -16.254,4.917 -24.06,13.172 l -0.002,-0.002 -0.029,0.029 0,0.002 -0.029,0.027 0.006,0.006 c -5.718,6.168 -9.282,13.542 -12.303,23.391 l -0.004,-0.004 -9.961,0 c -6.555,0 -11.863,5.251 -11.957,11.783 l 38.807,38.807 -0.008,0 -38.801,-38.801 -104.15,0 c -13.08,0 -23.598,10.542 -23.598,23.627 l 82.24,82.24 0,0.004 -82.24,-82.24 0,158.82 c 0.003,6.538 2.631,12.435 6.893,16.697 l 106.07,106.07 c -0.04,-0.04 -0.077,-0.083 -0.117,-0.123 l 0.127,0.127 c 0.722,0.722 1.494,1.391 2.305,2.01 10.537,1.558 21.315,2.375 32.29,2.375 120.89,0 218.9,-98 218.9,-218.9 0,-3.948 -0.108,-7.872 -0.314,-11.77 l -72.03,-72.03 c 0.027,0.027 0.052,0.055 0.078,0.082 l -0.082,-0.082 c -4.27,-4.27 -10.174,-6.905 -16.715,-6.906 l -0.004,-0.004 -15.92,0 -49.08,-49.08 c -5.04,0.16 -9.579,0.021 -13.869,0 l -0.002,0 c -1.073,-0.006 -2.14,-0.015 -3.186,0 l 11.854,11.854 c -0.001,0 -0.003,0 -0.004,0 l -11.854,-11.854 m -89.26,252.66 2.461,2.461 -2.461,0 0,-2.461" id="path1116" opacity="0.25"/>
 <path inkscape:connector-curvature="0" d="m 300.82,113.26 c -3.137,0.045 -6.165,0.221 -9.236,0.666 -8.191,1.186 -16.255,4.918 -24.06,13.174 l -0.029,0.029 -0.029,0.029 c -5.72,6.169 -9.285,13.544 -12.306,23.395 l -9.96,0 c -6.555,0 -11.864,5.252 -11.958,11.784 l -104.15,0 c -13.08,0 -23.598,10.542 -23.598,23.627 l 0,158.82 c 0,13.08 10.513,23.598 23.598,23.598 l 253.79,0 c 13.08,0 23.627,-10.513 23.627,-23.598 l 0,-158.82 c 0,-13.08 -10.542,-23.627 -23.627,-23.627 l -95.09,0 c -0.094,-6.532 -5.403,-11.784 -11.958,-11.784 l -8.281,0 c 2.356,-6.862 4.871,-11.438 8.513,-15.375 0.011,-0.011 0.019,-0.018 0.029,-0.029 6.406,-6.766 11.02,-8.694 17.17,-9.584 6.157,-0.892 14.15,-0.206 24.988,-0.55 a 5.884135,5.884135 0 1 0 -0.37645,-11.75551 c -5.04,0.16 -9.579,0.021 -13.869,0 -1.073,-0.006 -2.139,-0.015 -3.185,0 m -130.58,87.88 22.01,0 c 4.12,0 7.412,3.321 7.412,7.441 l 0,21.803 c 0,4.12 -3.292,7.441 -7.412,7.441 l -22.01,0 c -4.121,0 -7.441,-3.321 -7.441,-7.441 l 0,-21.803 c 0,-4.12 3.321,-7.441 7.441,-7.441 m 49.831,0 22.01,0 c 4.12,0 7.441,3.321 7.441,7.441 l 0,21.803 c 0,4.12 -3.321,7.441 -7.441,7.441 l -22.01,0 c -4.12,0 -7.441,-3.321 -7.441,-7.441 l 0,-21.803 c 0,-4.12 3.321,-7.441 7.441,-7.441 m 49.86,0 21.976,0 c 4.121,0 7.441,3.321 7.441,7.441 l 0,21.803 c 0,4.12 -3.321,7.441 -7.441,7.441 l -21.976,0 c -4.12,0 -7.441,-3.321 -7.441,-7.441 l 0,-21.803 c 0,-4.12 3.321,-7.441 7.441,-7.441 m 49.831,0 21.976,0 c 4.12,0 7.441,3.321 7.441,7.441 l 0,21.803 c 0,4.12 -3.321,7.441 -7.441,7.441 l -21.976,0 c -4.121,0 -7.441,-3.321 -7.441,-7.441 l 0,-21.803 c 0,-4.12 3.321,-7.441 7.441,-7.441 m -174.45,57.1 22.01,0 c 4.12,0 7.441,3.321 7.441,7.441 l 0,21.803 c 0,4.12 -3.321,7.441 -7.441,7.441 l -22.01,0 c -4.12,0 -7.441,-3.321 -7.441,-7.441 l 0,-21.803 c 0,-4.12 3.321,-7.441 7.441,-7.441 m 49.86,0 21.976,0 c 4.12,0 7.441,3.321 7.441,7.441 l 0,21.803 c 0,4.12 -3.321,7.441 -7.441,7.441 l -21.976,0 c -4.12,0 -7.441,-3.321 -7.441,-7.441 l 0,-21.803 c 0,-4.12 3.321,-7.441 7.441,-7.441 m 49.831,0 21.976,0 c 4.12,0 7.441,3.321 7.441,7.441 l 0,21.803 c 0,4.12 -3.321,7.441 -7.441,7.441 l -21.976,0 c -4.12,0 -7.441,-3.321 -7.441,-7.441 l 0,-21.803 c 0,-4.12 3.321,-7.441 7.441,-7.441 m 49.831,0 22.01,0 c 4.12,0 7.441,3.321 7.441,7.441 l 0,21.803 c 0,4.12 -3.321,7.441 -7.441,7.441 l -22.01,0 c -4.12,0 -7.441,-3.321 -7.441,-7.441 l 0,-21.803 c 0,-4.12 3.321,-7.441 7.441,-7.441 m 49.831,0 22.01,0 c 4.12,0 7.441,3.321 7.441,7.441 l 0,21.803 c 0,4.12 -3.321,7.441 -7.441,7.441 l -22.01,0 c -4.121,0 -7.412,-3.321 -7.412,-7.441 l 0,-21.803 c 0,-4.12 3.292,-7.441 7.412,-7.441 m -146.39,52.726 115.47,0 c 6.626,0 11.958,5.332 11.958,11.958 l 0,12.769 c 0,6.626 -5.332,11.958 -11.958,11.958 l -115.47,0 c -6.626,0 -11.958,-5.332 -11.958,-11.958 l 0,-12.769 c 0,-6.626 5.332,-11.958 11.958,-11.958" id="path1118" fill="#ffffff"/>
</svg>
