<?xml version="1.0" encoding="UTF-8" standalone="no"?>
<svg xmlns="http://www.w3.org/2000/svg" xmlns:sodipodi="http://sodipodi.sourceforge.net/DTD/sodipodi-0.dtd" xmlns:inkscape="http://www.inkscape.org/namespaces/inkscape" viewBox="0 0 512 512" version="1.1">
 <metadata id="metadata1222"/>
 <path id="path1154" d="m 471.95,253.05 c 0,120.9 -98.01,218.91 -218.91,218.91 -120.9,0 -218.91,-98.01 -218.91,-218.91 0,-120.9 98.01,-218.91 218.91,-218.91 120.9,0 218.91,98.01 218.91,218.91" inkscape:connector-curvature="0" fill="#BF9E73" fill-rule="evenodd"/>
 <path id="path1156" d="M 256,1 C 115.17,1 1,115.17 1,256 1,396.83 115.17,511 256,511 396.83,511 511,396.83 511,256 511,115.17 396.83,1 256,1 m 8.827,44.931 c 120.9,0 218.9,98 218.9,218.9 0,120.9 -98,218.9 -218.9,218.9 -120.9,0 -218.93,-98 -218.93,-218.9 0,-120.9 98.03,-218.9 218.93,-218.9" inkscape:connector-curvature="0" fill-rule="evenodd" fill-opacity="0.067"/>
 <path inkscape:connector-curvature="0" d="M 256,4.43 C 117.06,4.43 4.43,117.06 4.43,256 4.43,394.94 117.06,507.57 256,507.57 394.94,507.57 507.57,394.94 507.57,256 507.57,117.06 394.94,4.43 256,4.43 m 5.885,38.556 c 120.9,0 218.9,98 218.9,218.9 0,120.9 -98,218.9 -218.9,218.9 -120.9,0 -218.93,-98 -218.93,-218.9 0,-120.9 98.03,-218.9 218.93,-218.9" id="path1160" fill-rule="evenodd" fill-opacity="0.129"/>
 <path inkscape:connector-curvature="0" d="M 256,8.36 C 119.23,8.36 8.36,119.23 8.36,256 8.36,392.77 119.23,503.64 256,503.64 392.77,503.64 503.64,392.77 503.64,256 503.64,119.23 392.77,8.36 256,8.36 m 2.942,31.691 c 120.9,0 218.9,98 218.9,218.9 0,120.9 -98,218.9 -218.9,218.9 -120.9,0 -218.93,-98 -218.93,-218.9 0,-120.9 98.03,-218.9 218.93,-218.9" id="path1162" fill-rule="evenodd" fill-opacity="0.129"/>
 <path id="path1164" d="M 253.04,7.86 C 117.62,7.86 7.85,117.64 7.85,253.05 c 0,135.42 109.78,245.19 245.19,245.19 135.42,0 245.19,-109.78 245.19,-245.19 C 498.23,117.63 388.45,7.86 253.04,7.86 m 0,26.297 c 120.9,0 218.9,98 218.9,218.9 0,120.9 -98,218.9 -218.9,218.9 -120.9,0 -218.93,-98 -218.93,-218.9 0,-120.9 98.03,-218.9 218.93,-218.9 z" inkscape:connector-curvature="0" stroke-opacity="0.31" fill="#ffffff" fill-rule="evenodd" stroke="#000000" stroke-width="4.904"/>
 <path id="path1214" d="m 241.85,100.62 c -85.66,0 -155.37,69.72 -155.37,155.38 0,42.83 17.428,81.67 45.564,109.81 l 105.6,105.6 c 5.089,0.354 10.223,0.547 15.402,0.547 120.9,0 218.91,-98.01 218.91,-218.91 0,-6.754 -0.323,-13.432 -0.922,-20.03 l -45.49,-45.49 -13.16,0.713 -18.01,0.992 -40.713,-40.715 c -0.035,-0.035 -0.031,-0.028 -0.063,-0.059 l -0.441,-0.441 -0.004,0 -1.486,-1.486 c -0.594,-0.594 -1.185,-1.174 -1.77,-1.744 -27.905,-27.25 -66.02,-44.17 -108.04,-44.17" inkscape:connector-curvature="0" opacity="0.25" color="#000000"/>
 <path id="path1216" d="m 241.85,100.62 c -85.66,0 -155.38,69.72 -155.38,155.38 0,85.66 69.72,155.38 155.38,155.38 29.19,0 56.618,-8.245 79.941,-22.26 l 7.143,-4.298 -4.95,-6.699 -23.594,-31.775 -3.942,-5.306 -5.78,3.201 c -6.596,3.632 -13.693,6.568 -21.13,8.685 l -5.246,1.482 -0.237,5.454 -0.148,3.26 c -8.124,1.819 -16.67,2.786 -25.432,2.786 -8.863,0 -17.509,-0.984 -25.728,-2.846 l -0.534,-5.928 -0.445,-4.772 -4.505,-1.66 c -13.468,-4.905 -25.58,-12.588 -35.658,-22.379 l -3.646,-3.557 -4.683,2.075 -7.736,3.409 c -11.567,-12.423 -20.12,-27.511 -25.19,-44.31 l 8.625,-5.246 4.357,-2.668 -0.86,-5.04 c -0.929,-5.504 -1.393,-11.185 -1.393,-16.984 0,-7.799 0.866,-15.342 2.519,-22.586 l 1.215,-5.306 -4.683,-2.846 -9.781,-5.958 c 5.05,-16.711 13.544,-31.72 25.02,-44.11 l 11.827,5.928 4.535,2.282 3.824,-3.349 c 9.282,-8.11 20.04,-14.542 31.834,-18.822 l 4.713,-1.719 0.267,-5.01 0.622,-12.39 c 8.141,-1.828 16.709,-2.786 25.491,-2.786 9.146,0 18.05,1.071 26.499,3.053 l 3.675,15.06 0.889,3.616 0.03,0 0.089,0.385 1.037,4.357 4.328,1.186 c 1.961,0.533 4.668,1.469 7.707,2.668 l 0.711,0.296 0.741,0.119 c 0.127,0.023 0.119,0.01 0.237,0.03 2.694,1.231 5.328,2.487 7.884,3.764 l 0.03,0.03 0.03,0 c 0.505,0.246 1.034,0.53 1.63,0.83 13.922,7.01 28.795,18.401 32.04,25.728 l 10.908,-4.061 c 4.326,7.775 7.76,16.15 10.256,24.957 l -8.477,11.945 -1.749,2.46 0.415,2.964 c 0.616,4.454 0.919,9.174 0.919,13.901 0,4.728 -0.302,9.416 -0.919,13.872 l -0.385,2.964 1.719,2.431 8.507,12.03 -0.593,2.223 1.867,2.875 6.936,10.611 7.114,10.908 5.928,-11.619 25.521,-50.06 0,-0.03 25.521,-49.559 6.02,-11.738 -13.16,0.711 -30.11,1.66 c -5.378,-11.235 -11.987,-21.755 -19.741,-31.3 -2.31,-2.844 -4.725,-5.62 -7.262,-8.329 0.46,0.491 0.268,0.239 -0.119,-0.178 -0.009,-0.009 -0.021,-0.021 -0.03,-0.03 -0.376,-0.404 -0.793,-0.859 -1.275,-1.363 l -0.03,0 0,-0.03 c -0.375,-0.389 -0.601,-0.571 -0.652,-0.622 -0.005,-0.005 0.005,-0.024 0,-0.03 l -0.03,0 c -1.09,-1.128 -2.17,-2.195 -3.231,-3.231 -27.905,-27.25 -66.02,-44.16 -108.04,-44.16 m -3.379,102.56 c -27.297,0 -49.44,22.14 -49.44,49.44 0,27.3 22.04,49.915 49.44,49.915 27.402,0 49.945,-22.514 49.945,-49.915 0,-27.401 -22.648,-49.44 -49.945,-49.44" inkscape:connector-curvature="0" fill="#ffffff" color="#000000"/>
</svg>
