<?xml version="1.0" encoding="UTF-8" standalone="no"?>
<svg
   xmlns:dc="http://purl.org/dc/elements/1.1/"
   xmlns:cc="http://creativecommons.org/ns#"
   xmlns:rdf="http://www.w3.org/1999/02/22-rdf-syntax-ns#"
   xmlns:svg="http://www.w3.org/2000/svg"
   xmlns="http://www.w3.org/2000/svg"
   xmlns:sodipodi="http://sodipodi.sourceforge.net/DTD/sodipodi-0.dtd"
   xmlns:inkscape="http://www.inkscape.org/namespaces/inkscape"
   height="512"
   width="512"
   version="1.1"
   viewBox="0 0 512 512"
   id="svg2"
   inkscape:version="0.91 r13725"
   sodipodi:docname="dialog-question.svg">
  <defs
     id="defs39" />
  <sodipodi:namedview
     pagecolor="#ffffff"
     bordercolor="#666666"
     borderopacity="1"
     objecttolerance="10"
     gridtolerance="10"
     guidetolerance="10"
     inkscape:pageopacity="0"
     inkscape:pageshadow="2"
     inkscape:window-width="1920"
     inkscape:window-height="1020"
     id="namedview37"
     showgrid="false"
     inkscape:zoom="1.5250549"
     inkscape:cx="256"
     inkscape:cy="256"
     inkscape:window-x="0"
     inkscape:window-y="0"
     inkscape:window-maximized="1"
     inkscape:current-layer="svg2" />
  <metadata
     id="metadata72">
    <rdf:RDF>
      <cc:Work
         rdf:about="">
        <dc:format>image/svg+xml</dc:format>
        <dc:type
           rdf:resource="http://purl.org/dc/dcmitype/StillImage" />
      </cc:Work>
    </rdf:RDF>
  </metadata>
  <path
     id="path4"
     fill="#ef6a47"
     d="m471.95 253.05c0 120.9-98.01 218.91-218.91 218.91s-218.91-98.01-218.91-218.91 98.01-218.91 218.91-218.91 218.91 98.01 218.91 218.91"
     fill-rule="evenodd"
     style="fill:#BF9E73;fill-opacity:1" />
  <path
     id="path6"
     d="m251.97 118.59c-33.867 0.442-69.967 27.07-67.22 63.44 0.891 22.871 22.696 34.765 36.13 50.41 9.08 9.106 18.18 18.198 27.28 27.28-5.926 19.413-10.393 41.851-5.375 61.34 8.758 8.677 17.505 17.414 26.19 26.19-20.385-13.376-48.814 9.978-39.781 32.563 7.295 15.258 22.82 24.41 34.06 36.688 16.438 15.886 33.18 31.456 49.813 47.13 77.98-22.19 138.21-86.53 154.5-166.81-53.55-53.623-107.17-107.16-160.84-160.66-14.07-12.263-33.06-17.587-51.47-17.531-1.086-0.041-2.189-0.045-3.281-0.031m48.625 260.22l1.25 1.25c-0.009 0.016 0.009 0.047 0 0.063-0.402-0.423-0.849-0.891-1.25-1.313"
     fill-opacity="0.235" />
  <g
     id="g8"
     fill-rule="evenodd">
    <path
       id="path10"
       d="m256 1c-140.83 0-255 114.17-255 255s114.17 255 255 255 255-114.17 255-255-114.17-255-255-255m8.827 44.931c120.9 0 218.9 98 218.9 218.9s-98 218.9-218.9 218.9-218.93-98-218.93-218.9 98.03-218.9 218.93-218.9"
       fill-opacity="0.067" />
    <g
       id="g12"
       fill-opacity="0.129"
       transform="translate(0,-540.36)">
      <path
         id="path14"
         d="m256 544.79c-138.94 0-251.57 112.63-251.57 251.57s112.63 251.54 251.57 251.54 251.57-112.6 251.57-251.54-112.63-251.57-251.57-251.57m5.885 38.556c120.9 0 218.9 98 218.9 218.9s-98 218.9-218.9 218.9-218.93-98-218.93-218.9 98.03-218.9 218.93-218.9" />
      <path
         id="path16"
         d="m256 548.72c-136.77 0-247.64 110.87-247.64 247.64s110.87 247.64 247.64 247.64 247.64-110.87 247.64-247.64-110.87-247.64-247.64-247.64m2.942 31.691c120.9 0 218.9 98 218.9 218.9s-98 218.9-218.9 218.9-218.93-98-218.93-218.9 98.03-218.9 218.93-218.9" />
    </g>
    <path
       id="path18"
       d="m253.04 7.86c-135.42 0-245.19 109.78-245.19 245.19 0 135.42 109.78 245.19 245.19 245.19 135.42 0 245.19-109.78 245.19-245.19 0-135.42-109.78-245.19-245.19-245.19zm0 26.297c120.9 0 218.9 98 218.9 218.9s-98 218.9-218.9 218.9-218.93-98-218.93-218.9 98.03-218.9 218.93-218.9z"
       stroke-opacity="0.31"
       stroke="#000"
       stroke-width="4.904"
       fill="#fff" />
  </g>
  <text
     id="text20"
     font-size="129.23"
     line-height="125%"
     y="231.36"
     x="729.64"
     font-family="Gentium Book Basic"
     word-spacing="0"
     letter-spacing="0">
    <tspan
       id="tspan22"
       y="231.36"
       x="729.64" />
  </text>
  <text
     id="text24"
     transform="scale(4.0128 .2492)"
     font-size="46.954"
     y="579.26"
     x="378.91"
     font-family="Arial"
     text-anchor="middle" />
  <text
     id="text26"
     font-size="129.23"
     line-height="125%"
     y="151.36"
     x="1310.91"
     font-family="Gentium Book Basic"
     word-spacing="0"
     letter-spacing="0">
    <tspan
       id="tspan28"
       y="151.36"
       x="1310.91" />
  </text>
  <text
     id="text30"
     transform="scale(4.0128 .2492)"
     font-size="46.954"
     y="258.22"
     x="523.76"
     font-family="Arial"
     text-anchor="middle" />
  <text
     id="text32"
     font-size="129.23"
     line-height="125%"
     y="-29.9"
     x="239.33"
     font-family="Gentium Book Basic"
     word-spacing="0"
     letter-spacing="0">
    <tspan
       id="tspan34"
       y="-29.9"
       x="239.33" />
  </text>
  <text
     id="text36"
     transform="scale(4.0128 .2492)"
     font-size="46.954"
     y="-469.13"
     x="256.72"
     font-family="Arial"
     text-anchor="middle" />
  <text
     id="text38"
     font-size="129.23"
     line-height="125%"
     y="-246.37"
     x="1337.38"
     font-family="Gentium Book Basic"
     word-spacing="0"
     letter-spacing="0">
    <tspan
       id="tspan40"
       y="-246.37"
       x="1337.38" />
  </text>
  <text
     id="text42"
     transform="scale(4.0128 .2492)"
     font-size="46.954"
     y="-1337.8"
     x="530.36"
     font-family="Arial"
     text-anchor="middle" />
  <text
     id="text44"
     font-size="129.23"
     line-height="125%"
     y="-326.37"
     x="1918.65"
     font-family="Gentium Book Basic"
     word-spacing="0"
     letter-spacing="0">
    <tspan
       id="tspan46"
       y="-326.37"
       x="1918.65" />
  </text>
  <text
     id="text48"
     transform="scale(4.0128 .2492)"
     font-size="46.954"
     y="-1658.83"
     x="675.21"
     font-family="Arial"
     text-anchor="middle" />
  <text
     id="text50"
     font-size="129.23"
     line-height="125%"
     y="-798.77"
     x="1529.53"
     font-family="Gentium Book Basic"
     word-spacing="0"
     letter-spacing="0">
    <tspan
       id="tspan52"
       y="-798.77"
       x="1529.53" />
  </text>
  <text
     id="text54"
     transform="scale(4.0128 .2492)"
     font-size="46.954"
     y="-3554.48"
     x="578.24"
     font-family="Arial"
     text-anchor="middle" />
  <text
     id="text56"
     font-size="129.23"
     line-height="125%"
     y="-878.78"
     x="2110.79"
     font-family="Gentium Book Basic"
     word-spacing="0"
     letter-spacing="0">
    <tspan
       id="tspan58"
       y="-878.78"
       x="2110.79" />
  </text>
  <text
     id="text60"
     transform="scale(4.0128 .2492)"
     font-size="46.954"
     y="-3875.52"
     x="723.09"
     font-family="Arial"
     text-anchor="middle" />
  <text
     id="text62"
     font-size="208.33"
     line-height="125%"
     y="535.94"
     x="277.99"
     font-family="Gentium Book Basic"
     word-spacing="0"
     letter-spacing="0">
    <tspan
       id="tspan64"
       y="535.94"
       x="277.99" />
  </text>
  <path
     id="path66"
     d="m255.25 118.63c-38.01 0-70.62 25.771-70.62 59.906 0 9.466 2.592 18.08 7.469 24.688 4.876 6.605 12.464 11.188 21 11.188 12.949 0 24.06-10.32 24.06-23.313 0-5.983-2.32-11.902-6.313-17.281-0.067-0.095-0.059-0.063-0.125-0.156-3.01-4.25-4.6-6.69-5.03-7.594-0.441-0.924-0.375-0.487-0.375-2.688 0-4.124 1.926-7.782 5.938-10.906 4.01-3.124 10.111-5.344 17.344-5.344 9.01 0 15.07 3.03 19.688 8.875 4.62 5.845 7.656 15.16 7.656 27.719 0 7.957-0.41 12.596-2.781 19.875s-6.911 17.228-15.188 33.781a8.1508 8.1508 0 0 0 -0.0312 0.0312c-13.87 28.11-16.723 40.876-17.469 77.78a8.1508 8.1508 0 0 0 8.125 8.3125h6.906a8.1508 8.1508 0 0 0 6.3125 -1.6875 8.1508 8.1508 0 0 0 0.21875 -0.15625 8.1508 8.1508 0 0 0 0.21875 -0.21875 8.1508 8.1508 0 0 0 0.375 -0.34375 8.1508 8.1508 0 0 0 0.4375 -0.5 8.1508 8.1508 0 0 0 0.0937 -0.0937 8.1508 8.1508 0 0 0 1.7812 -6.0938 8.1508 8.1508 0 0 0 0 -0.0625c0.51-20.931 5.552-34.837 18.469-50.813 22.03-24.2 23.06-25.449 28.906-34.22 0.008-0.012 0.023-0.019 0.031-0.031 10-14.813 15.03-30.655 15.03-47.06 0-18.461-7.687-34.794-20.656-46.06-12.969-11.269-30.96-17.531-51.47-17.531m0.5 224.94c-15.706 0-27.969 12.253-27.969 27.469s12.253 27.5 27.469 27.5 27.5-12.284 27.5-27.5c0-14.725-12.275-27.469-27-27.469"
     fill="#fff" />
</svg>
