<?xml version="1.0" encoding="UTF-8" standalone="no"?>
<svg xmlns="http://www.w3.org/2000/svg" height="512" width="512" version="1.1" viewBox="0 0 512 512">
 <metadata id="metadata72"/>
 <path id="path4" fill="#cd1d31" d="m471.95 253.05c0 120.9-98.01 218.91-218.91 218.91s-218.91-98.01-218.91-218.91 98.01-218.91 218.91-218.91 218.91 98.01 218.91 218.91" fill-rule="evenodd"/>
 <path id="path6" d="m348.28 121.91c-11.548 0.155-19.384 9.239-26.969 17.375l-79.69 79.69c4.851 3.533 7.03 7.477 11.875 11 2.389 3.744 7.523 7.02 9.844 10.75 4.858 3.472 7.06 7.489 11.906 11 2.394 3.729 7.45 6.989 9.844 10.719 5.683 3.232 8.185 9.479 12.906 17 5.178 4.067 9.273 9.666 14.469 13.719 4.327 5.488 9.777 9.398 14.13 14.875 5.178 4.069 9.301 9.659 14.469 13.75 4.377 5.445 9.795 9.413 14.156 14.875 5.19 4.058 9.269 9.672 14.469 13.719 4.327 5.489 9.782 9.396 14.13 14.875 5.176 4.072 9.306 9.659 14.469 13.75 4.376 5.445 9.797 9.416 14.156 14.875 1.618 1.262 3.126 2.684 4.594 4.156 34.16-38.614 54.906-89.36 54.906-144.97 0-13.399-1.195-26.515-3.5-39.25-28.319-28.316-56.637-56.633-84.938-84.969-8.297-6.52-20.03-6.152-30.03-6.438-1.812-0.371-3.538-0.522-5.188-0.5m-146.69 105.03c-47.27-0.017-87.08 47.44-78.25 94.13 4.554 35.833 36.47 56.43 59 81.09 23.307 23.22 46.541 46.523 69.781 69.813 0.302 0.001 0.604 0 0.906 0 63.14 0 120.05-26.736 160-69.5-52.1-52.19-104.14-104.43-156.59-156.25-14.527-12.378-33.505-19.331-52.594-19.25-0.754-0.024-1.5-0.031-2.25-0.031" fill-opacity="0.235"/>
 <g id="g8" fill-rule="evenodd">
  <path id="path10" d="m256 1c-140.83 0-255 114.17-255 255s114.17 255 255 255 255-114.17 255-255-114.17-255-255-255m8.827 44.931c120.9 0 218.9 98 218.9 218.9s-98 218.9-218.9 218.9-218.93-98-218.93-218.9 98.03-218.9 218.93-218.9" fill-opacity="0.067"/>
  <g id="g12" fill-opacity="0.129">
   <path id="path14" d="m256 4.43c-138.94 0-251.57 112.63-251.57 251.57s112.63 251.57 251.57 251.57 251.57-112.63 251.57-251.57-112.63-251.57-251.57-251.57m5.885 38.556c120.9 0 218.9 98 218.9 218.9s-98 218.9-218.9 218.9-218.93-98-218.93-218.9 98.03-218.9 218.93-218.9"/>
   <path id="path16" d="m256 8.36c-136.77 0-247.64 110.87-247.64 247.64s110.87 247.64 247.64 247.64 247.64-110.87 247.64-247.64-110.87-247.64-247.64-247.64m2.942 31.691c120.9 0 218.9 98 218.9 218.9s-98 218.9-218.9 218.9-218.93-98-218.93-218.9 98.03-218.9 218.93-218.9"/>
  </g>
  <path id="path18" d="m253.04 7.86c-135.42 0-245.19 109.78-245.19 245.19 0 135.42 109.78 245.19 245.19 245.19 135.42 0 245.19-109.78 245.19-245.19 0-135.42-109.78-245.19-245.19-245.19zm0 26.297c120.9 0 218.9 98 218.9 218.9s-98 218.9-218.9 218.9-218.93-98-218.93-218.9 98.03-218.9 218.93-218.9z" stroke-opacity="0.31" stroke="#000" stroke-width="4.904" fill="#fff"/>
 </g>
 <text id="text20" font-size="129.23" line-height="125%" y="231.36" x="729.64" font-family="Gentium Book Basic" word-spacing="0" letter-spacing="0"><tspan id="tspan22" y="231.36" x="729.64"/>
 </text>
 <text id="text24" transform="scale(4.0128 .2492)" font-size="46.954" y="579.26" x="378.91" font-family="Arial" text-anchor="middle"/>
 <text id="text26" font-size="129.23" line-height="125%" y="151.36" x="1310.91" font-family="Gentium Book Basic" word-spacing="0" letter-spacing="0"><tspan id="tspan28" y="151.36" x="1310.91"/>
 </text>
 <text id="text30" transform="scale(4.0128 .2492)" font-size="46.954" y="258.22" x="523.76" font-family="Arial" text-anchor="middle"/>
 <text id="text32" font-size="129.23" line-height="125%" y="-29.9" x="239.33" font-family="Gentium Book Basic" word-spacing="0" letter-spacing="0"><tspan id="tspan34" y="-29.9" x="239.33"/>
 </text>
 <text id="text36" transform="scale(4.0128 .2492)" font-size="46.954" y="-469.13" x="256.72" font-family="Arial" text-anchor="middle"/>
 <text id="text38" font-size="129.23" line-height="125%" y="-246.37" x="1337.38" font-family="Gentium Book Basic" word-spacing="0" letter-spacing="0"><tspan id="tspan40" y="-246.37" x="1337.38"/>
 </text>
 <text id="text42" transform="scale(4.0128 .2492)" font-size="46.954" y="-1337.8" x="530.36" font-family="Arial" text-anchor="middle"/>
 <text id="text44" font-size="129.23" line-height="125%" y="-326.37" x="1918.65" font-family="Gentium Book Basic" word-spacing="0" letter-spacing="0"><tspan id="tspan46" y="-326.37" x="1918.65"/>
 </text>
 <text id="text48" transform="scale(4.0128 .2492)" font-size="46.954" y="-1658.83" x="675.21" font-family="Arial" text-anchor="middle"/>
 <text id="text50" font-size="129.23" line-height="125%" y="-798.77" x="1529.53" font-family="Gentium Book Basic" word-spacing="0" letter-spacing="0"><tspan id="tspan52" y="-798.77" x="1529.53"/>
 </text>
 <text id="text54" transform="scale(4.0128 .2492)" font-size="46.954" y="-3554.48" x="578.24" font-family="Arial" text-anchor="middle"/>
 <text id="text56" font-size="129.23" line-height="125%" y="-878.78" x="2110.79" font-family="Gentium Book Basic" word-spacing="0" letter-spacing="0"><tspan id="tspan58" y="-878.78" x="2110.79"/>
 </text>
 <text id="text60" transform="scale(4.0128 .2492)" font-size="46.954" y="-3875.52" x="723.09" font-family="Arial" text-anchor="middle"/>
 <text id="text62" font-size="208.33" line-height="125%" y="535.94" x="277.99" font-family="Gentium Book Basic" word-spacing="0" letter-spacing="0"><tspan id="tspan64" y="535.94" x="277.99"/>
 </text>
 <path id="path66" d="m122.37 308.46c0 44.99 36.468 81.47 81.47 81.47 44.99 0 81.5-36.499 81.5-81.5 0-45-36.51-81.47-81.5-81.47-45 0-81.47 36.51-81.47 81.5m28.28 26.06c0-14.986 12.149-27.12 27.13-27.12 14.997 0 27.13 12.139 27.13 27.13 0 14.986-12.13 27.13-27.12 27.13-14.976 0-27.12-12.139-27.12-27.12m90.97-115.56c6.737 2.837 13.03 6.516 18.906 10.75l81.56-81.56c3.567-3.556 9.371-3.567 12.938 0 3.556 3.556 3.556 9.35 0 12.906l-80.69 80.69c9.48 10.02 16.818 22.06 21.375 35.406h14.5c4.589 0 8.344-3.745 8.344-8.344v-22.95h22.969c4.589 0 8.344-3.745 8.344-8.344v-22.938h22.938c4.589 0 8.344-3.745 8.344-8.344v-23.375l5.813-5.813c3.567-3.567 5.458-39.28-3.469-48.22-8.948-8.938-44.694-7.06-48.25-3.5l-93.62 93.63" fill="#fff"/>
</svg>
