<?xml version="1.0" encoding="UTF-8" standalone="no"?>
<svg xmlns="http://www.w3.org/2000/svg" height="512" width="512" version="1.1" viewBox="0 0 512 512">
 <metadata id="metadata72"/>
 <path id="path4" fill="#e4a146" d="m471.95 253.05c0 120.9-98.01 218.91-218.91 218.91s-218.91-98.01-218.91-218.91 98.01-218.91 218.91-218.91 218.91 98.01 218.91 218.91" fill-rule="evenodd"/>
 <path id="path6" d="m227.06 110.03c-20.04 0.836-13.673 33.58-35.06 26.469-21.99-8.716-7.789 32.34-19.12 17.406-4.565-3.528-7.425-12.458-14.875-9.5-24.604 5.334-38.26 31.513-34.531 55.34 0.335 55.49-0.551 111.25 0.656 166.63 6.819 22.1 27.53 34.58 42.563 50.813 17.999 17.629 36.22 35 54.41 52.44 10.426 1.524 21.09 2.344 31.938 2.344 104.82 0 192.42-73.68 213.88-172.06-14.609-14.481-29.02-29.15-43.12-44.12-33.906-34.392-66.951-69.69-101.47-103.44-11.996-11.474-26.728-10.143-24.594 1.625-8.634-7.576-15.546-20.272-29.06-17.5-11.432-9.814-20.358-26.19-37.22-26.16-1.586-0.249-3.039-0.337-4.375-0.281" fill-opacity="0.235"/>
 <g id="g8" fill-rule="evenodd">
  <path id="path10" d="m256 1c-140.83 0-255 114.17-255 255s114.17 255 255 255 255-114.17 255-255-114.17-255-255-255m8.827 44.931c120.9 0 218.9 98 218.9 218.9s-98 218.9-218.9 218.9-218.93-98-218.93-218.9 98.03-218.9 218.93-218.9" fill-opacity="0.067"/>
  <g id="g12" fill-opacity="0.129">
   <path id="path14" d="m256 4.43c-138.94 0-251.57 112.63-251.57 251.57s112.63 251.57 251.57 251.57 251.57-112.63 251.57-251.57-112.63-251.57-251.57-251.57m5.885 38.556c120.9 0 218.9 98 218.9 218.9s-98 218.9-218.9 218.9-218.93-98-218.93-218.9 98.03-218.9 218.93-218.9"/>
   <path id="path16" d="m256 8.36c-136.77 0-247.64 110.87-247.64 247.64s110.87 247.64 247.64 247.64 247.64-110.87 247.64-247.64-110.87-247.64-247.64-247.64m2.942 31.691c120.9 0 218.9 98 218.9 218.9s-98 218.9-218.9 218.9-218.93-98-218.93-218.9 98.03-218.9 218.93-218.9"/>
  </g>
  <path id="path18" d="m253.04 7.86c-135.42 0-245.19 109.78-245.19 245.19 0 135.42 109.78 245.19 245.19 245.19 135.42 0 245.19-109.78 245.19-245.19 0-135.42-109.78-245.19-245.19-245.19zm0 26.297c120.9 0 218.9 98 218.9 218.9s-98 218.9-218.9 218.9-218.93-98-218.93-218.9 98.03-218.9 218.93-218.9z" stroke-opacity="0.31" stroke="#000" stroke-width="4.904" fill="#fff"/>
 </g>
 <text id="text20" font-size="129.23" line-height="125%" y="231.36" x="729.64" font-family="Gentium Book Basic" word-spacing="0" letter-spacing="0"><tspan id="tspan22" y="231.36" x="729.64"/>
 </text>
 <text id="text24" transform="scale(4.0128 .2492)" font-size="46.954" y="579.26" x="378.91" font-family="Arial" text-anchor="middle"/>
 <text id="text26" font-size="129.23" line-height="125%" y="151.36" x="1310.91" font-family="Gentium Book Basic" word-spacing="0" letter-spacing="0"><tspan id="tspan28" y="151.36" x="1310.91"/>
 </text>
 <text id="text30" transform="scale(4.0128 .2492)" font-size="46.954" y="258.22" x="523.76" font-family="Arial" text-anchor="middle"/>
 <text id="text32" font-size="129.23" line-height="125%" y="-29.9" x="239.33" font-family="Gentium Book Basic" word-spacing="0" letter-spacing="0"><tspan id="tspan34" y="-29.9" x="239.33"/>
 </text>
 <text id="text36" transform="scale(4.0128 .2492)" font-size="46.954" y="-469.13" x="256.72" font-family="Arial" text-anchor="middle"/>
 <text id="text38" font-size="129.23" line-height="125%" y="-246.37" x="1337.38" font-family="Gentium Book Basic" word-spacing="0" letter-spacing="0"><tspan id="tspan40" y="-246.37" x="1337.38"/>
 </text>
 <text id="text42" transform="scale(4.0128 .2492)" font-size="46.954" y="-1337.8" x="530.36" font-family="Arial" text-anchor="middle"/>
 <text id="text44" font-size="129.23" line-height="125%" y="-326.37" x="1918.65" font-family="Gentium Book Basic" word-spacing="0" letter-spacing="0"><tspan id="tspan46" y="-326.37" x="1918.65"/>
 </text>
 <text id="text48" transform="scale(4.0128 .2492)" font-size="46.954" y="-1658.83" x="675.21" font-family="Arial" text-anchor="middle"/>
 <text id="text50" font-size="129.23" line-height="125%" y="-798.77" x="1529.53" font-family="Gentium Book Basic" word-spacing="0" letter-spacing="0"><tspan id="tspan52" y="-798.77" x="1529.53"/>
 </text>
 <text id="text54" transform="scale(4.0128 .2492)" font-size="46.954" y="-3554.48" x="578.24" font-family="Arial" text-anchor="middle"/>
 <text id="text56" font-size="129.23" line-height="125%" y="-878.78" x="2110.79" font-family="Gentium Book Basic" word-spacing="0" letter-spacing="0"><tspan id="tspan58" y="-878.78" x="2110.79"/>
 </text>
 <text id="text60" transform="scale(4.0128 .2492)" font-size="46.954" y="-3875.52" x="723.09" font-family="Arial" text-anchor="middle"/>
 <text id="text62" font-size="208.33" line-height="125%" y="535.94" x="277.99" font-family="Gentium Book Basic" word-spacing="0" letter-spacing="0"><tspan id="tspan64" y="535.94" x="277.99"/>
 </text>
 <path id="path66" d="m231.44 110.31c-6.48 0.087-12.894 2.644-17.875 7.625-4.26 4.255-7.656 11.646-7.656 16.656v1.875h-10.09c-11.307 0.017-13.349 0.534-16.219 3.938-2.78 3.31-2.988 5.386-1.594 17.13 0.689 5.791 1.636 11.803 2.125 13.344 1.492 4.7 6.06 8.739 11.281 10.03 0.937 0.232 19.618 0.393 41.531 0.344 39.13-0.093 39.891-0.116 42.41-1.281 6.836-3.178 8.588-6.524 10.219-19.625 1.777-14.279 1.589-16.719-1.563-20.09-3.053-3.265-5.07-3.765-15.875-3.781h-9.781l-0.344-2.125c-1.239-7.774-3.584-12.498-8.313-16.875-5.234-4.847-11.77-7.243-18.25-7.156m0.438 12.719c4.235 0.024 8.492 1.967 11.281 5.938 1.456 2.066 1.758 3.079 1.938 6.625 0.188 3.738 0.056 4.527-1.375 7.156-1.847 3.391-5.171 5.933-8.844 6.781-3.314 0.763-3.708 0.747-7.344-0.5-7.509-2.581-11.278-11.836-7.688-18.781 2.49-4.811 7.231-7.246 12.03-7.219m67.844 20.16 0.344 2.188c0.445 2.626-2.12 23.985-3.469 28.844-2.506 9.03-11.452 17.351-20.875 19.438-3.543 0.787-9.376 0.893-45.625 0.75l-41.531-0.156-3.438-1.375c-8.539-3.424-15.07-9.967-17.594-17.594-1.125-3.396-3.75-23.06-3.75-28.12 0-4.431 0.292-4.303-5.781-2.75-16.854 4.313-29.537 17.13-33.531 33.938-1.088 4.591-1.12 6.98-0.969 95.69l0.156 90.97 1.344 3.969c5.743 16.993 18.386 28.39 35.38 31.875 2.984 0.615 22.402 0.776 101.88 0.813 109.02 0.049 101.73 0.316 109.53-3.781 7.529-3.955 13.14-10.875 15.656-19.219 1.186-3.965 1.214-4.339 1.063-66.31l-0.156-62.31-1.875-4c-1.724-3.664-3.521-5.616-22.22-24.375-11.177-11.213-21.01-20.73-21.875-21.19l-1.563-0.844-0.031-6.688c-0.016-8.188-0.668-13.13-2.563-18.813-5.226-15.685-19.494-27.775-36.03-30.531l-2.469-0.406m30.19 68.938 0.219 11.563c0.2 10.288 0.367 11.889 1.5 14.75 2.488 6.292 7.373 11.192 13.594 13.625 2.895 1.129 4.653 1.336 15.219 1.625l11.969 0.313v120.09l-1.406 2.781c-1.578 3.087-4.02 5.432-7.594 7.344l-2.406 1.281-55.47 0.125c-52.623 0.126-55.674 0.088-58.53-0.906-3.999-1.39-6.726-3.709-8.875-7.5l-1.75-3.125v-150.25l1.281-2.406c1.736-3.245 4.572-5.987 7.906-7.625l2.75-1.344 40.781-0.156 40.813-0.188" fill="#fff"/>
</svg>
