<?xml version="1.0" encoding="UTF-8" standalone="no"?>
<svg
   xmlns:dc="http://purl.org/dc/elements/1.1/"
   xmlns:cc="http://creativecommons.org/ns#"
   xmlns:rdf="http://www.w3.org/1999/02/22-rdf-syntax-ns#"
   xmlns:svg="http://www.w3.org/2000/svg"
   xmlns="http://www.w3.org/2000/svg"
   xmlns:sodipodi="http://sodipodi.sourceforge.net/DTD/sodipodi-0.dtd"
   xmlns:inkscape="http://www.inkscape.org/namespaces/inkscape"
   viewBox="0 0 512 512"
   height="512"
   width="512"
   version="1.1"
   id="svg2"
   inkscape:version="0.91 r13725"
   sodipodi:docname="xfce-trash_full.svg">
  <sodipodi:namedview
     pagecolor="#ffffff"
     bordercolor="#666666"
     borderopacity="1"
     objecttolerance="10"
     gridtolerance="10"
     guidetolerance="10"
     inkscape:pageopacity="0"
     inkscape:pageshadow="2"
     inkscape:window-width="753"
     inkscape:window-height="480"
     id="namedview21"
     showgrid="false"
     inkscape:zoom="0.4609375"
     inkscape:cx="256"
     inkscape:cy="256"
     inkscape:window-x="0"
     inkscape:window-y="0"
     inkscape:window-maximized="0"
     inkscape:current-layer="svg2" />
  <metadata
     id="metadata833">
    <rdf:RDF>
      <cc:Work
         rdf:about="">
        <dc:format>image/svg+xml</dc:format>
        <dc:type
           rdf:resource="http://purl.org/dc/dcmitype/StillImage" />
      </cc:Work>
    </rdf:RDF>
  </metadata>
  <defs
     id="defs4">
    <linearGradient
       gradientUnits="userSpaceOnUse"
       id="0-4"
       y2="471.66"
       x2="0"
       y1="33.753">
      <stop
         id="stop7-6"
         stop-color="#6a6a6a" />
      <stop
         offset="0.47"
         id="stop9-5" />
      <stop
         offset="0.494"
         id="stop11-9"
         stop-color="#ffffff" />
      <stop
         offset="0.901"
         id="stop13-7"
         stop-color="#ffffff" />
      <stop
         offset="0.955"
         id="stop15-5" />
      <stop
         offset="1"
         id="stop17-0" />
    </linearGradient>
  </defs>
  <path
     d="m 471.95,253.05 c 0,120.9 -98.01,218.91 -218.91,218.91 -120.9,0 -218.91,-98.01 -218.91,-218.91 0,-120.9 98.01,-218.91 218.91,-218.91 120.9,0 218.91,98.01 218.91,218.91"
     id="path21"
     fill="#d23638"
     fill-rule="evenodd" />
  <path
     d="M 256,1 C 115.17,1 1,115.17 1,256 1,396.83 115.17,511 256,511 396.83,511 511,396.83 511,256 511,115.17 396.83,1 256,1 m 8.827,44.931 c 120.9,0 218.9,98 218.9,218.9 0,120.9 -98,218.9 -218.9,218.9 -120.9,0 -218.93,-98 -218.93,-218.9 0,-120.9 98.03,-218.9 218.93,-218.9"
     id="path27"
     fill-rule="evenodd"
     fill-opacity="0.067" />
  <path
     id="path31"
     d="M 256,4.43 C 117.06,4.43 4.43,117.06 4.43,256 4.43,394.94 117.06,507.57 256,507.57 394.94,507.57 507.57,394.94 507.57,256 507.57,117.06 394.94,4.43 256,4.43 m 5.885,38.556 c 120.9,0 218.9,98 218.9,218.9 0,120.9 -98,218.9 -218.9,218.9 -120.9,0 -218.93,-98 -218.93,-218.9 0,-120.9 98.03,-218.9 218.93,-218.9"
     fill-rule="evenodd"
     fill-opacity="0.129" />
  <path
     id="path33"
     d="M 256,8.36 C 119.23,8.36 8.36,119.23 8.36,256 8.36,392.77 119.23,503.64 256,503.64 392.77,503.64 503.64,392.77 503.64,256 503.64,119.23 392.77,8.36 256,8.36 m 2.942,31.691 c 120.9,0 218.9,98 218.9,218.9 0,120.9 -98,218.9 -218.9,218.9 -120.9,0 -218.93,-98 -218.93,-218.9 0,-120.9 98.03,-218.9 218.93,-218.9"
     fill-rule="evenodd"
     fill-opacity="0.129" />
  <path
     d="M 253.04,7.86 C 117.62,7.86 7.85,117.64 7.85,253.05 c 0,135.42 109.78,245.19 245.19,245.19 135.42,0 245.19,-109.78 245.19,-245.19 C 498.23,117.63 388.45,7.86 253.04,7.86 Z m 0,26.297 c 120.9,0 218.9,98 218.9,218.9 0,120.9 -98,218.9 -218.9,218.9 -120.9,0 -218.93,-98 -218.93,-218.9 0,-120.9 98.03,-218.9 218.93,-218.9 z"
     id="path35"
     stroke-opacity="0.31"
     fill="#ffffff"
     fill-rule="evenodd"
     stroke="#000000"
     stroke-width="4.904" />
  <path
     id="path827"
     d="m 229.02999,86.19 c -6.111,0 -11.219,6.642 -12.781,15.75 l 0,4.531 11.875,11.875 -55.03,0 c -18.793,0 -34.544,13.09 -39.34,31.06 l 0,8.938 18.281,18.281 0,58.656 0,4.813 0,149.38 c 0,9.546 3.831,18.18 10.06,24.406 l 55.16,55.16 c 11.644,1.914 23.596,2.938 35.781,2.938 120.90001,0 218.91001,-98.01 218.91001,-218.91 0,-6.399 -0.274,-12.74 -0.813,-19 l -103.91,-103.91 c -7.331,-7.331 -17.308,-11.813 -28.313,-11.813 l -20,0 -28.969,-28.969 c -2.02,-2.02 -4.41201,-3.188 -6.969,-3.188 l -53.938,0"
     opacity="0.25" />
  <path
     id="path829"
     d="m 229.02999,86.19 c -6.111,0 -11.219,6.642 -12.781,15.75 l 0,4.531 79.5,0 0,-4.531 c -1.56199,-9.108 -6.671,-15.75 -12.781,-15.75 l -53.938,0 m -55.938,32.16 c -18.793,0 -34.544,13.09 -39.34,31.06 l 0,8.938 244.50001,0 0,-8.938 c -4.804,-17.978 -20.555,-31.06 -39.34,-31.06 l -165.81001,0 m -21.06,55.41 0,61.53 0,4.813 0,149.38 c 0,19.09 15.375,34.469 34.469,34.469 l 138.97001,0 c 19.09,0 34.469,-15.375 34.469,-34.469 l 0,-149.37 0,-4.813 0,-61.53 -207.91001,0"
     fill="#ffffff" />
</svg>
