<?xml version="1.0" encoding="UTF-8" standalone="no"?>
<svg
   xmlns:dc="http://purl.org/dc/elements/1.1/"
   xmlns:cc="http://creativecommons.org/ns#"
   xmlns:rdf="http://www.w3.org/1999/02/22-rdf-syntax-ns#"
   xmlns:svg="http://www.w3.org/2000/svg"
   xmlns="http://www.w3.org/2000/svg"
   xmlns:sodipodi="http://sodipodi.sourceforge.net/DTD/sodipodi-0.dtd"
   xmlns:inkscape="http://www.inkscape.org/namespaces/inkscape"
   height="512"
   viewBox="0 0 512 512"
   width="512"
   version="1.1"
   id="svg2"
   inkscape:version="0.91 r"
   sodipodi:docname="chrome-ddfplgpeamcbpecnihfpikllkfojgkai-Default.svg">
  <defs
     id="defs17" />
  <sodipodi:namedview
     pagecolor="#ffffff"
     bordercolor="#666666"
     borderopacity="1"
     objecttolerance="10"
     gridtolerance="10"
     guidetolerance="10"
     inkscape:pageopacity="0"
     inkscape:pageshadow="2"
     inkscape:window-width="1678"
     inkscape:window-height="997"
     id="namedview15"
     showgrid="false"
     inkscape:zoom="0.4609375"
     inkscape:cx="-490.30508"
     inkscape:cy="256"
     inkscape:window-x="0"
     inkscape:window-y="0"
     inkscape:window-maximized="0"
     inkscape:current-layer="svg2" />
  <metadata
     id="metadata70">
    <rdf:RDF>
      <cc:Work
         rdf:about="">
        <dc:format>image/svg+xml</dc:format>
        <dc:type
           rdf:resource="http://purl.org/dc/dcmitype/StillImage" />
      </cc:Work>
    </rdf:RDF>
  </metadata>
  <path
     id="path8"
     d="m471.95 253.05c0 120.9-98.006 218.91-218.91 218.91s-218.91-98.006-218.91-218.91 98.006-218.91 218.91-218.91 218.91 98.006 218.91 218.91"
     fill-rule="evenodd"
     fill="#BF9E73" />
  <path
     id="path10"
     d="m256 1c-140.83 0-255 114.17-255 255s114.17 255 255 255 255-114.17 255-255-114.17-255-255-255m8.827 44.931c120.9 0 218.9 98 218.9 218.9s-98 218.9-218.9 218.9-218.93-98-218.93-218.9 98.03-218.9 218.93-218.9"
     fill-rule="evenodd"
     fill-opacity="0.067" />
  <path
     id="path14"
     d="m256 4.43c-138.94 0-251.57 112.63-251.57 251.57s112.63 251.57 251.57 251.57 251.57-112.63 251.57-251.57-112.63-251.57-251.57-251.57m5.885 38.556c120.9 0 218.9 98 218.9 218.9s-98 218.9-218.9 218.9-218.93-98-218.93-218.9 98.03-218.9 218.93-218.9"
     fill-rule="evenodd"
     fill-opacity="0.129" />
  <path
     id="path16"
     d="m256 8.36c-136.77 0-247.64 110.87-247.64 247.64s110.87 247.64 247.64 247.64 247.64-110.87 247.64-247.64-110.87-247.64-247.64-247.64m2.942 31.691c120.9 0 218.9 98 218.9 218.9s-98 218.9-218.9 218.9-218.93-98-218.93-218.9 98.03-218.9 218.93-218.9"
     fill-rule="evenodd"
     fill-opacity="0.129" />
  <path
     id="path18"
     d="m253.04 7.86c-135.42 0-245.19 109.78-245.19 245.19 0 135.42 109.78 245.19 245.19 245.19 135.42 0 245.19-109.78 245.19-245.19 0-135.42-109.78-245.19-245.19-245.19zm0 26.297c120.9 0 218.9 98 218.9 218.9s-98 218.9-218.9 218.9-218.93-98-218.93-218.9 98.03-218.9 218.93-218.9z"
     stroke-opacity="0.31"
     fill-rule="evenodd"
     stroke="#000"
     stroke-width="4.904"
     fill="#fff" />
  <path
     id="path3400"
     opacity="0.25"
     d="m256 116.06c-65.342 0-120.22 44.793-135.62 105.34 47.106 67.637 55.606 78.973 38.844 135.75l113.88 113.88c104.87-9.5332 188.39-93.009 197.94-197.88l-116.1-116.09c-25.323-25.323-60.296-41-98.938-41z" />
  <path
     id="path3181"
     d="m395.93 256c0 77.282-62.65 139.93-139.93 139.93-77.282 0-139.93-62.65-139.93-139.93 0-77.282 62.65-139.93 139.93-139.93 77.282 0 139.93 62.65 139.93 139.93z"
     fill="#fff" />
  <path
     id="path3511"
     d="m395.93 256c0 77.282-62.65 139.93-139.93 139.93-77.282 0-139.93-62.65-139.93-139.93 0-77.282 62.65-139.93 139.93-139.93 77.282 0 139.93 62.65 139.93 139.93z"
     style="fill:#BF9E73;fill-opacity:1;opacity:0.72000001" />
  <path
     id="path3569"
     d="m320.63 256c0 35.692-28.934 64.625-64.625 64.625-35.692 0-64.625-28.934-64.625-64.625 0-35.692 28.934-64.625 64.625-64.625 35.692 0 64.625 28.934 64.625 64.625z"
     fill="#fff" />
  <path
     id="path6802"
     d="m280.28 271.76q0 4.5475-1.4653 8.3878-1.4148 3.7896-4.3959 6.5686-2.9307 2.7791-7.5288 4.3455-4.5981 1.5663-10.864 1.5663-6.2655 0-10.864-1.5663-4.5475-1.5664-7.5793-4.2949-2.9812-2.7791-4.4465-6.5687-1.4148-3.8401-1.4148-8.3372 0-3.8907 1.1621-6.9225 1.2127-3.0317 3.1833-5.2044 2.0211-2.2232 4.5476-3.537 2.5769-1.3642 5.3054-1.819v-0.2018q-2.9812-0.70781-5.356-2.2737-2.3243-1.5664-3.9412-3.7391-1.5663-2.2233-2.4253-4.9013-0.8082-2.6779-0.8082-5.6591 0-3.7391 1.4148-7.0234 1.4653-3.3349 4.2949-5.8107 2.8296-2.5265 7.0234-3.9412 4.1939-1.4654 9.7015-1.4654 5.8108 0 10.055 1.4654 4.2949 1.4653 7.0741 3.9917 2.8295 2.4759 4.1938 5.8108 1.3642 3.3349 1.3642 7.074 0 2.9306-0.8589 5.6086-0.80821 2.678-2.4254 4.9012-1.5664 2.1727-3.9412 3.7391-2.3243 1.5158-5.4066 2.1222v0.2018q3.0822 0.50499 5.7098 1.8695 2.6275 1.3138 4.5475 3.537 1.9201 2.1727 3.0317 5.2044t1.1116 6.8718zm-11.217-33.551q0-2.678-0.70783-4.9012-0.6571-2.2232-2.2232-3.7896-1.5664-1.6169-4.0928-2.4759-2.5264-0.90961-6.215-0.90961-3.5875 0-6.0634 0.90961-2.4758 0.8589-4.0927 2.4759-1.5664 1.5664-2.2738 3.7896-0.70782 2.2232-0.70782 4.9012 0 2.1222 0.5557 4.3455 0.5557 2.2232 2.0211 4.0422t4.0423 2.9812q2.5769 1.1621 6.6192 1.1621 4.2949 0 6.8718-1.1621 2.6275-1.1622 3.9917-2.9812 1.4148-1.819 1.819-4.0422 0.45428-2.2233 0.45428-4.3455zm1.7685 32.692q0-2.5769-0.70781-4.9517-0.70783-2.4254-2.4254-4.2444-1.7179-1.8695-4.6486-2.9811-2.8801-1.1622-7.2255-1.1622-3.9917 0-6.8214 1.1622-2.779 1.1116-4.5475 2.9811-1.718 1.8696-2.5264 4.3454-0.8082 2.4254-0.8082 5.0528 0 3.2844 0.8082 6.013 0.80819 2.678 2.5769 4.6486 1.7685 1.92 4.6486 2.9811t6.973 1.0611q4.1433 0 6.9729-1.0611 2.8295-1.0611 4.5475-2.9811 1.718-1.9706 2.4253-4.6991 0.7575-2.7791 0.7575-6.1645z" />
</svg>
