<?xml version="1.0" encoding="UTF-8" standalone="no"?>
<svg xmlns="http://www.w3.org/2000/svg" height="512" viewBox="0 0 512 512" width="512" version="1.1">
 <metadata id="metadata72"/>
 <g id="g4" fill-rule="evenodd">
  <path id="path6" fill="#BF9E73" d="m471.95 253.05c0 120.9-98.01 218.9-218.9 218.9-120.9 0-218.9-98.01-218.9-218.9 0-120.9 98.01-218.9 218.9-218.9 120.9 0 218.9 98.01 218.9 218.9"/>
  <path id="path8" fill-opacity="0.235" d="m253.72 115.69c-43.692 0.984-137.57 188.41-137.41 253.28 0.302 5.35 2.195 8.995 5.03 11.469 0.352 0.384 0.737 0.786 1.125 1.125 0.35 0.381 0.708 0.726 1.094 1.063 0.355 0.388 0.732 0.783 1.125 1.125 0.355 0.388 0.701 0.751 1.094 1.094 0.355 0.388 0.732 0.783 1.125 1.125 0.352 0.384 0.674 0.755 1.063 1.094 0.352 0.384 0.737 0.755 1.125 1.094 0.352 0.384 0.705 0.755 1.094 1.094 0.355 0.388 0.701 0.751 1.094 1.094 0.355 0.388 0.732 0.783 1.125 1.125 0.355 0.388 0.701 0.751 1.094 1.094 0.38 0.414 0.765 0.825 1.188 1.188 0.332 0.357 0.636 0.714 1 1.031 0.352 0.384 0.737 0.786 1.125 1.125 0.35 0.381 0.708 0.726 1.094 1.063 0.355 0.388 0.732 0.783 1.125 1.125 0.355 0.388 0.701 0.751 1.094 1.094 0.38 0.414 0.765 0.825 1.188 1.188 0.332 0.357 0.636 0.714 1 1.031 0.352 0.384 0.737 0.786 1.125 1.125 0.35 0.381 0.708 0.726 1.094 1.063 0.355 0.388 0.732 0.751 1.125 1.094 0.355 0.388 0.701 0.783 1.094 1.125 0.352 0.384 0.737 0.755 1.125 1.094 0.352 0.384 0.674 0.786 1.063 1.125 0.352 0.384 0.705 0.755 1.094 1.094 0.35 0.381 0.739 0.757 1.125 1.094 0.355 0.388 0.701 0.751 1.094 1.094 0.355 0.388 0.732 0.783 1.125 1.125 0.355 0.388 0.701 0.751 1.094 1.094 0.363 0.396 0.723 0.808 1.125 1.156 0.345 0.374 0.682 0.731 1.063 1.063 0.352 0.384 0.737 0.755 1.125 1.094 0.355 0.388 0.701 0.751 1.094 1.094 0.355 0.388 0.732 0.751 1.125 1.094 0.355 0.388 0.701 0.783 1.094 1.125 0.38 0.414 0.765 0.825 1.188 1.188 0.332 0.357 0.636 0.714 1 1.031 0.352 0.384 0.705 0.755 1.094 1.094 0.35 0.381 0.739 0.757 1.125 1.094 0.355 0.388 0.701 0.751 1.094 1.094 0.355 0.388 0.732 0.783 1.125 1.125 0.38 0.414 0.765 0.794 1.188 1.156 0.332 0.357 0.636 0.745 1 1.063 0.352 0.384 0.705 0.755 1.094 1.094 0.35 0.381 0.739 0.757 1.125 1.094 0.355 0.388 0.701 0.751 1.094 1.094 0.355 0.388 0.732 0.783 1.125 1.125 0.355 0.388 0.701 0.751 1.094 1.094 0.352 0.384 0.705 0.755 1.094 1.094 0.352 0.384 0.705 0.786 1.094 1.125 0.35 0.381 0.708 0.726 1.094 1.063 0.355 0.388 0.732 0.783 1.125 1.125 0.355 0.388 0.701 0.751 1.094 1.094 0.355 0.388 0.732 0.783 1.125 1.125 0.38 0.414 0.765 0.825 1.188 1.188 0.332 0.357 0.636 0.714 1 1.031 0.352 0.384 0.705 0.755 1.094 1.094 0.35 0.381 0.739 0.757 1.125 1.094 0.355 0.388 0.701 0.751 1.094 1.094 0.355 0.388 0.732 0.783 1.125 1.125 0.38 0.414 0.734 0.794 1.156 1.156 0.332 0.357 0.667 0.745 1.031 1.063 0.352 0.384 0.705 0.755 1.094 1.094 0.35 0.381 0.739 0.726 1.125 1.063 0.355 0.388 0.701 0.783 1.094 1.125 0.355 0.388 0.732 0.751 1.125 1.094 0.352 0.384 0.705 0.786 1.094 1.125 0.352 0.384 0.674 0.755 1.063 1.094 0.352 0.384 0.737 0.786 1.125 1.125 0.35 0.381 0.708 0.726 1.094 1.063 0.355 0.388 0.732 0.783 1.125 1.125 0.355 0.388 0.701 0.751 1.094 1.094 0.355 0.388 0.732 0.783 1.125 1.125 0.352 0.384 0.674 0.755 1.063 1.094 0.352 0.384 0.737 0.786 1.125 1.125 0.352 0.384 0.705 0.724 1.094 1.063 0.355 0.388 0.732 0.751 1.125 1.094 0.274 0.299 0.551 0.599 0.844 0.875 14.454 3 29.405 4.625 44.75 4.625 100.14 0 184.62-67.27 210.66-159.06l-0.156-0.156c-0.052-0.051-0.073-0.137-0.125-0.188-0.366-0.374-0.761-0.699-1.125-1.063-0.371-0.38-0.724-0.755-1.094-1.125-0.374-0.383-0.753-0.722-1.125-1.094-0.13-0.136-0.246-0.303-0.375-0.438-0.006-0.006-0.025 0.006-0.031 0-0.227-0.231-0.429-0.461-0.656-0.688-0.134-0.137-0.304-0.24-0.438-0.375-0.167-0.162-0.302-0.341-0.469-0.5l-0.219-0.219c-0.134-0.137-0.273-0.24-0.406-0.375-0.06-0.058-0.128-0.13-0.188-0.188-0.122-0.123-0.222-0.253-0.344-0.375-0.058-0.056-0.099-0.131-0.156-0.188-0.366-0.374-0.761-0.699-1.125-1.063-0.371-0.38-0.724-0.755-1.094-1.125-0.374-0.383-0.753-0.722-1.125-1.094-0.13-0.136-0.246-0.272-0.375-0.406-0.006-0.006-0.025 0.006-0.031 0-0.227-0.231-0.429-0.492-0.656-0.719-0.134-0.137-0.273-0.24-0.406-0.375-0.167-0.162-0.333-0.309-0.5-0.469-0.075-0.075-0.112-0.175-0.188-0.25-0.134-0.137-0.304-0.24-0.438-0.375-0.06-0.058-0.097-0.13-0.156-0.188-0.122-0.123-0.222-0.253-0.344-0.375-0.058-0.056-0.13-0.131-0.188-0.188-0.134-0.137-0.273-0.24-0.406-0.375-0.072-0.069-0.147-0.119-0.219-0.188-0.116-0.117-0.228-0.259-0.344-0.375-0.052-0.051-0.073-0.106-0.125-0.156-0.368-0.377-0.759-0.696-1.125-1.063-0.374-0.383-0.721-0.753-1.094-1.125-0.13-0.136-0.277-0.272-0.406-0.406-0.006-0.006-0.025 0.006-0.031 0-0.227-0.231-0.429-0.461-0.656-0.688-0.134-0.137-0.273-0.271-0.406-0.406-0.167-0.162-0.333-0.309-0.5-0.469-0.075-0.075-0.112-0.175-0.188-0.25-0.134-0.137-0.304-0.24-0.438-0.375-0.06-0.058-0.097-0.13-0.156-0.188-0.122-0.123-0.222-0.253-0.344-0.375-0.058-0.056-0.13-0.1-0.188-0.156-0.134-0.137-0.273-0.271-0.406-0.406-0.072-0.069-0.147-0.119-0.219-0.188-0.116-0.117-0.228-0.228-0.344-0.344-0.052-0.051-0.073-0.137-0.125-0.188-0.368-0.377-0.759-0.696-1.125-1.063-0.371-0.38-0.724-0.755-1.094-1.125-0.134-0.138-0.241-0.27-0.375-0.406-0.245-0.237-0.506-0.456-0.75-0.688-0.13-0.136-0.246-0.272-0.375-0.406-0.006-0.006-0.025 0.006-0.031 0-0.227-0.231-0.429-0.492-0.656-0.719-0.134-0.137-0.273-0.24-0.406-0.375-0.167-0.162-0.333-0.309-0.5-0.469-0.075-0.075-0.144-0.175-0.219-0.25-0.134-0.137-0.273-0.24-0.406-0.375-0.072-0.069-0.116-0.15-0.188-0.219-0.116-0.117-0.259-0.228-0.375-0.344-0.052-0.051-0.073-0.137-0.125-0.188-0.366-0.374-0.73-0.699-1.094-1.063-0.371-0.38-0.755-0.724-1.125-1.094-0.374-0.383-0.721-0.753-1.094-1.125-0.13-0.136-0.277-0.272-0.406-0.406-0.006-0.006-0.025 0.006-0.031 0-0.227-0.231-0.429-0.461-0.656-0.688-0.134-0.137-0.273-0.271-0.406-0.406-0.167-0.162-0.333-0.309-0.5-0.469-0.075-0.075-0.112-0.175-0.188-0.25-0.134-0.137-0.304-0.24-0.438-0.375-0.06-0.058-0.097-0.13-0.156-0.188-0.122-0.123-0.222-0.253-0.344-0.375-0.058-0.056-0.13-0.1-0.188-0.156-0.134-0.137-0.273-0.271-0.406-0.406-0.072-0.069-0.147-0.119-0.219-0.188-0.116-0.117-0.228-0.228-0.344-0.344-0.052-0.051-0.073-0.137-0.125-0.188-0.368-0.377-0.759-0.696-1.125-1.063-0.374-0.383-0.721-0.753-1.094-1.125-0.13-0.136-0.246-0.272-0.375-0.406-0.006-0.006-0.056 0.006-0.063 0-0.227-0.231-0.429-0.461-0.656-0.688-0.134-0.137-0.273-0.24-0.406-0.375-0.167-0.162-0.302-0.341-0.469-0.5-0.075-0.075-0.144-0.175-0.219-0.25-0.134-0.137-0.273-0.24-0.406-0.375-0.06-0.058-0.128-0.099-0.188-0.156-0.122-0.123-0.222-0.284-0.344-0.406-0.058-0.056-0.13-0.1-0.188-0.156-0.134-0.137-0.273-0.24-0.406-0.375-0.072-0.069-0.147-0.15-0.219-0.219-0.116-0.117-0.228-0.228-0.344-0.344-0.052-0.051-0.073-0.137-0.125-0.188-0.368-0.377-0.759-0.696-1.125-1.063-0.374-0.383-0.721-0.753-1.094-1.125-0.13-0.136-0.246-0.272-0.375-0.406-0.006-0.006-0.025 0.006-0.031 0-0.227-0.231-0.429-0.461-0.656-0.688-0.134-0.137-0.304-0.24-0.438-0.375-0.167-0.162-0.302-0.341-0.469-0.5-0.075-0.075-0.144-0.175-0.219-0.25-0.134-0.137-0.273-0.24-0.406-0.375-0.06-0.058-0.128-0.099-0.188-0.156-0.122-0.123-0.222-0.253-0.344-0.375-0.058-0.056-0.099-0.131-0.156-0.188-0.134-0.137-0.304-0.24-0.438-0.375-0.072-0.069-0.116-0.15-0.188-0.219-0.116-0.117-0.228-0.228-0.344-0.344-0.052-0.051-0.105-0.106-0.156-0.156-0.366-0.374-0.73-0.73-1.094-1.094-0.371-0.38-0.755-0.724-1.125-1.094-0.374-0.383-0.721-0.753-1.094-1.125-0.13-0.136-0.277-0.272-0.406-0.406-0.006-0.006-0.025 0.006-0.031 0-0.227-0.231-0.429-0.461-0.656-0.688-0.134-0.137-0.273-0.271-0.406-0.406-0.167-0.162-0.333-0.309-0.5-0.469-0.075-0.075-0.112-0.175-0.188-0.25-0.134-0.137-0.273-0.24-0.406-0.375-0.06-0.058-0.128-0.13-0.188-0.188-0.122-0.123-0.222-0.253-0.344-0.375-0.058-0.056-0.13-0.1-0.188-0.156-0.366-0.374-0.73-0.73-1.094-1.094-0.371-0.38-0.755-0.724-1.125-1.094-0.374-0.383-0.721-0.753-1.094-1.125-0.13-0.136-0.246-0.272-0.375-0.406-0.006-0.006-0.025 0.006-0.031 0-0.227-0.231-0.429-0.461-0.656-0.688-0.134-0.137-0.304-0.24-0.438-0.375-0.167-0.162-0.302-0.341-0.469-0.5-0.075-0.076-0.144-0.175-0.219-0.25-0.134-0.137-0.273-0.24-0.406-0.375-0.06-0.058-0.128-0.099-0.188-0.156-0.122-0.123-0.222-0.284-0.344-0.406-0.058-0.056-0.099-0.1-0.156-0.156-0.134-0.137-0.304-0.24-0.438-0.375-0.072-0.069-0.116-0.15-0.188-0.219-0.116-0.117-0.228-0.228-0.344-0.344-0.052-0.051-0.105-0.137-0.156-0.188-0.368-0.377-0.727-0.696-1.094-1.063-0.374-0.383-0.753-0.722-1.125-1.094-0.13-0.136-0.246-0.303-0.375-0.438-0.006-0.006-0.025 0.006-0.031 0-0.227-0.231-0.429-0.461-0.656-0.688-0.134-0.137-0.304-0.24-0.438-0.375-0.167-0.162-0.302-0.341-0.469-0.5-0.075-0.076-0.144-0.144-0.219-0.219-0.134-0.137-0.273-0.271-0.406-0.406-0.06-0.058-0.128-0.099-0.188-0.156-0.122-0.123-0.222-0.253-0.344-0.375-0.058-0.056-0.099-0.131-0.156-0.188-0.134-0.137-0.304-0.24-0.438-0.375-0.072-0.069-0.116-0.15-0.188-0.219-0.116-0.117-0.228-0.228-0.344-0.344-0.052-0.051-0.105-0.106-0.156-0.156-0.368-0.377-0.727-0.727-1.094-1.094-0.371-0.38-0.755-0.724-1.125-1.094-0.134-0.138-0.241-0.27-0.375-0.406-0.245-0.237-0.474-0.487-0.719-0.719-0.13-0.136-0.246-0.272-0.375-0.406-0.006-0.006-0.025 0.006-0.031 0-0.227-0.231-0.461-0.461-0.688-0.688-0.134-0.137-0.273-0.24-0.406-0.375-0.167-0.162-0.302-0.341-0.469-0.5-0.075-0.076-0.144-0.175-0.219-0.25-0.134-0.137-0.273-0.24-0.406-0.375-0.072-0.069-0.147-0.119-0.219-0.188-0.116-0.117-0.228-0.259-0.344-0.375-0.052-0.051-0.073-0.106-0.125-0.156-0.366-0.374-0.761-0.699-1.125-1.063-0.371-0.38-0.724-0.755-1.094-1.125-0.374-0.383-0.753-0.722-1.125-1.094-0.13-0.136-0.246-0.303-0.375-0.438-0.006-0.006-0.025 0.006-0.031 0-0.227-0.231-0.429-0.461-0.656-0.688-0.134-0.137-0.304-0.24-0.438-0.375-0.167-0.162-0.302-0.341-0.469-0.5-0.075-0.076-0.144-0.144-0.219-0.219-0.134-0.137-0.273-0.271-0.406-0.406-0.06-0.058-0.128-0.099-0.188-0.156-0.122-0.123-0.222-0.253-0.344-0.375-0.058-0.056-0.099-0.131-0.156-0.188-0.134-0.137-0.304-0.24-0.438-0.375-0.072-0.069-0.116-0.15-0.188-0.219-0.116-0.117-0.228-0.228-0.344-0.344-0.052-0.051-0.105-0.106-0.156-0.156-0.368-0.377-0.727-0.727-1.094-1.094-0.374-0.383-0.753-0.722-1.125-1.094-0.13-0.136-0.246-0.303-0.375-0.438-0.006-0.006-0.025 0.006-0.031 0-0.227-0.231-0.429-0.461-0.656-0.688-0.134-0.137-0.273-0.24-0.406-0.375-0.167-0.162-0.333-0.309-0.5-0.469-0.075-0.075-0.144-0.175-0.219-0.25-0.134-0.137-0.273-0.24-0.406-0.375-0.06-0.058-0.097-0.13-0.156-0.188-0.122-0.123-0.253-0.253-0.375-0.375-0.058-0.056-0.099-0.131-0.156-0.188-0.134-0.137-0.273-0.24-0.406-0.375-0.072-0.069-0.147-0.15-0.219-0.219-0.116-0.117-0.228-0.228-0.344-0.344-0.052-0.051-0.105-0.106-0.156-0.156-0.368-0.377-0.727-0.727-1.094-1.094-0.374-0.383-0.753-0.722-1.125-1.094-0.13-0.136-0.246-0.272-0.375-0.406-0.006-0.006-0.025 0.006-0.031 0-0.227-0.231-0.429-0.492-0.656-0.719-0.134-0.137-0.273-0.24-0.406-0.375-0.167-0.162-0.333-0.309-0.5-0.469-0.075-0.075-0.112-0.175-0.188-0.25-0.134-0.137-0.304-0.24-0.438-0.375-0.06-0.058-0.097-0.13-0.156-0.188-0.122-0.123-0.222-0.253-0.344-0.375-0.058-0.056-0.13-0.1-0.188-0.156-0.134-0.137-0.273-0.271-0.406-0.406-0.072-0.069-0.147-0.119-0.219-0.188-0.116-0.117-0.228-0.228-0.344-0.344-0.052-0.051-0.073-0.137-0.125-0.188-0.368-0.377-0.759-0.696-1.125-1.063-0.371-0.38-0.724-0.755-1.094-1.125-0.134-0.138-0.272-0.27-0.406-0.406-0.245-0.237-0.474-0.456-0.719-0.688-0.13-0.136-0.246-0.303-0.375-0.438-0.006-0.006-0.025 0.006-0.031 0-0.227-0.231-0.429-0.461-0.656-0.688-0.134-0.137-0.273-0.24-0.406-0.375-0.167-0.162-0.333-0.341-0.5-0.5-0.075-0.076-0.144-0.144-0.219-0.219-0.134-0.137-0.273-0.24-0.406-0.375-0.06-0.058-0.097-0.13-0.156-0.188-0.122-0.123-0.253-0.253-0.375-0.375-0.058-0.056-0.099-0.131-0.156-0.188-0.366-0.374-0.761-0.699-1.125-1.063-0.371-0.38-0.724-0.755-1.094-1.125-0.374-0.383-0.753-0.722-1.125-1.094-0.13-0.136-0.246-0.272-0.375-0.406-0.006-0.006-0.025 0.006-0.031 0-0.227-0.231-0.429-0.492-0.656-0.719-0.134-0.137-0.273-0.24-0.406-0.375-0.167-0.162-0.333-0.309-0.5-0.469-0.075-0.076-0.112-0.175-0.188-0.25-0.134-0.137-0.304-0.24-0.438-0.375-0.06-0.058-0.097-0.13-0.156-0.188-0.122-0.123-0.222-0.253-0.344-0.375-0.058-0.056-0.13-0.131-0.188-0.188-0.134-0.137-0.273-0.24-0.406-0.375-0.072-0.069-0.147-0.119-0.219-0.188-0.116-0.117-0.228-0.228-0.344-0.344-0.052-0.051-0.073-0.137-0.125-0.188-0.368-0.377-0.759-0.696-1.125-1.063-0.374-0.383-0.721-0.753-1.094-1.125-0.13-0.136-0.277-0.272-0.406-0.406-0.006-0.006-0.025 0.006-0.031 0-0.227-0.231-0.429-0.461-0.656-0.688-0.134-0.137-0.273-0.271-0.406-0.406-0.167-0.162-0.333-0.309-0.5-0.469-0.075-0.076-0.112-0.175-0.188-0.25-0.134-0.137-0.304-0.24-0.438-0.375-0.06-0.058-0.097-0.13-0.156-0.188-0.122-0.123-0.222-0.253-0.344-0.375-0.058-0.056-0.13-0.1-0.188-0.156-0.134-0.137-0.273-0.271-0.406-0.406-0.072-0.069-0.147-0.119-0.219-0.188-0.116-0.117-0.228-0.228-0.344-0.344-0.052-0.051-0.073-0.137-0.125-0.188-0.368-0.377-0.759-0.696-1.125-1.063-0.371-0.38-0.724-0.755-1.094-1.125-0.134-0.138-0.241-0.27-0.375-0.406-0.245-0.237-0.506-0.456-0.75-0.688-0.13-0.136-0.246-0.272-0.375-0.406-0.006-0.006-0.025 0.006-0.031 0-0.227-0.231-0.429-0.492-0.656-0.719-0.134-0.137-0.273-0.24-0.406-0.375-0.167-0.162-0.333-0.309-0.5-0.469-0.075-0.076-0.112-0.175-0.188-0.25-0.134-0.137-0.304-0.24-0.438-0.375-0.072-0.069-0.116-0.15-0.188-0.219-0.116-0.117-0.259-0.228-0.375-0.344-0.052-0.051-0.073-0.137-0.125-0.188-0.366-0.374-0.73-0.699-1.094-1.063-0.371-0.38-0.755-0.724-1.125-1.094-0.374-0.383-0.721-0.753-1.094-1.125-0.13-0.136-0.277-0.272-0.406-0.406-0.006-0.006-0.025 0.006-0.031 0-0.227-0.231-0.429-0.461-0.656-0.688-0.134-0.137-0.273-0.271-0.406-0.406-0.167-0.162-0.333-0.309-0.5-0.469-0.075-0.075-0.112-0.175-0.188-0.25-0.134-0.137-0.304-0.24-0.438-0.375-0.06-0.058-0.097-0.13-0.156-0.188-0.122-0.123-0.222-0.253-0.344-0.375-0.058-0.056-0.13-0.1-0.188-0.156-0.134-0.137-0.273-0.271-0.406-0.406-0.072-0.069-0.147-0.119-0.219-0.188-0.116-0.117-0.228-0.228-0.344-0.344-0.052-0.051-0.073-0.137-0.125-0.188-0.368-0.377-0.759-0.696-1.125-1.063-0.374-0.383-0.721-0.753-1.094-1.125-0.13-0.136-0.246-0.272-0.375-0.406-0.006-0.006-0.056 0.006-0.063 0-0.227-0.231-0.429-0.461-0.656-0.688-0.134-0.137-0.273-0.24-0.406-0.375-0.167-0.162-0.302-0.341-0.469-0.5-0.075-0.075-0.144-0.175-0.219-0.25-0.134-0.137-0.273-0.24-0.406-0.375-0.06-0.058-0.128-0.099-0.188-0.156-0.122-0.123-0.222-0.284-0.344-0.406-0.058-0.056-0.13-0.1-0.188-0.156-0.134-0.137-0.273-0.24-0.406-0.375-0.072-0.069-0.147-0.15-0.219-0.219-0.116-0.117-0.228-0.228-0.344-0.344-0.052-0.051-0.073-0.137-0.125-0.188-0.368-0.377-0.759-0.696-1.125-1.063-0.374-0.383-0.721-0.753-1.094-1.125-0.13-0.136-0.246-0.272-0.375-0.406-0.006-0.006-0.025 0.006-0.031 0-0.227-0.231-0.429-0.461-0.656-0.688-0.134-0.137-0.304-0.24-0.438-0.375-0.167-0.162-0.302-0.341-0.469-0.5-0.075-0.076-0.144-0.144-0.219-0.219-0.134-0.137-0.273-0.271-0.406-0.406-0.06-0.058-0.128-0.099-0.188-0.156-0.122-0.123-0.222-0.253-0.344-0.375-0.058-0.056-0.099-0.131-0.156-0.188-0.134-0.137-0.304-0.24-0.438-0.375-0.072-0.069-0.116-0.15-0.188-0.219-0.116-0.117-0.228-0.228-0.344-0.344-0.052-0.051-0.105-0.106-0.156-0.156-0.368-0.377-0.727-0.727-1.094-1.094-0.371-0.38-0.755-0.724-1.125-1.094-0.134-0.138-0.241-0.301-0.375-0.438-0.245-0.237-0.474-0.456-0.719-0.688-0.13-0.136-0.246-0.272-0.375-0.406-0.006-0.006-0.056 0.006-0.063 0-0.227-0.231-0.429-0.461-0.656-0.688-0.134-0.137-0.273-0.24-0.406-0.375-0.167-0.162-0.302-0.341-0.469-0.5-0.075-0.076-0.144-0.175-0.219-0.25-0.134-0.137-0.273-0.24-0.406-0.375-0.06-0.058-0.128-0.099-0.188-0.156-0.122-0.123-0.222-0.284-0.344-0.406-0.058-0.056-0.13-0.1-0.188-0.156-0.366-0.374-0.73-0.73-1.094-1.094-0.371-0.38-0.755-0.724-1.125-1.094-0.374-0.383-0.721-0.753-1.094-1.125-0.13-0.136-0.246-0.272-0.375-0.406-0.006-0.006-0.025 0.006-0.031 0-0.227-0.231-0.429-0.461-0.656-0.688-0.134-0.137-0.304-0.24-0.438-0.375-0.167-0.162-0.302-0.341-0.469-0.5-0.075-0.076-0.144-0.175-0.219-0.25-0.134-0.137-0.273-0.24-0.406-0.375-0.06-0.058-0.128-0.099-0.188-0.156-0.122-0.123-0.222-0.253-0.344-0.375-0.058-0.056-0.099-0.131-0.156-0.188-0.134-0.137-0.304-0.24-0.438-0.375-0.072-0.069-0.116-0.15-0.188-0.219-0.116-0.117-0.228-0.228-0.344-0.344-0.052-0.051-0.105-0.137-0.156-0.188-0.368-0.377-0.727-0.696-1.094-1.063-0.374-0.383-0.753-0.722-1.125-1.094-0.13-0.136-0.246-0.303-0.375-0.438-0.006-0.006-0.025 0.006-0.031 0-0.227-0.231-0.429-0.461-0.656-0.688-0.134-0.137-0.304-0.24-0.438-0.375-0.167-0.162-0.302-0.341-0.469-0.5-0.075-0.076-0.144-0.144-0.219-0.219-0.134-0.137-0.273-0.271-0.406-0.406-0.06-0.058-0.128-0.099-0.188-0.156-0.122-0.123-0.222-0.253-0.344-0.375-0.058-0.056-0.099-0.131-0.156-0.188-0.134-0.137-0.273-0.24-0.406-0.375-0.072-0.069-0.147-0.15-0.219-0.219-0.116-0.117-0.228-0.228-0.344-0.344-0.052-0.051-0.105-0.106-0.156-0.156-0.368-0.377-0.727-0.727-1.094-1.094-0.374-0.383-0.753-0.722-1.125-1.094-0.134-0.137-0.241-0.27-0.375-0.406-0.245-0.237-0.474-0.487-0.719-0.719-0.124-0.13-0.251-0.246-0.375-0.375-0.012-0.012-0.019-0.02-0.031-0.031-0.227-0.231-0.429-0.461-0.656-0.688-0.134-0.137-0.304-0.24-0.438-0.375-0.167-0.162-0.302-0.341-0.469-0.5-0.075-0.075-0.144-0.175-0.219-0.25-0.134-0.137-0.273-0.24-0.406-0.375-0.072-0.069-0.147-0.119-0.219-0.188-0.116-0.117-0.228-0.259-0.344-0.375-0.052-0.051-0.073-0.106-0.125-0.156-0.366-0.374-0.761-0.699-1.125-1.063-0.371-0.38-0.724-0.755-1.094-1.125-0.374-0.383-0.753-0.722-1.125-1.094-0.13-0.136-0.246-0.303-0.375-0.438-0.006-0.006-0.025 0.006-0.031 0-0.227-0.231-0.429-0.461-0.656-0.688-0.134-0.137-0.304-0.24-0.438-0.375-0.167-0.162-0.302-0.341-0.469-0.5l-0.219-0.219c-11.392-11.658-22.06-18.37-30.938-18.16"/>
  <path id="path10" fill-opacity="0.067" d="m256 1c-140.83 0-255 114.17-255 255s114.17 255 255 255 255-114.17 255-255-114.17-255-255-255m8.827 44.931c120.9 0 218.9 98 218.9 218.9s-98 218.9-218.9 218.9-218.93-98-218.93-218.9 98.03-218.9 218.93-218.9"/>
  <g id="g12" fill-opacity="0.129">
   <path id="path14" d="m256 4.433c-138.94 0-251.57 112.63-251.57 251.57s112.63 251.57 251.57 251.57 251.57-112.63 251.57-251.57-112.63-251.57-251.57-251.57m5.885 38.556c120.9 0 218.9 98 218.9 218.9s-98 218.9-218.9 218.9-218.93-98-218.93-218.9 98.03-218.9 218.93-218.9"/>
   <path id="path16" d="m256 8.356c-136.77 0-247.64 110.87-247.64 247.64s110.87 247.64 247.64 247.64 247.64-110.87 247.64-247.64-110.87-247.64-247.64-247.64m2.942 31.691c120.9 0 218.9 98 218.9 218.9s-98 218.9-218.9 218.9-218.93-98-218.93-218.9 98.03-218.9 218.93-218.9"/>
  </g>
  <path id="path18" d="m253.04 7.859c-135.42 0-245.19 109.78-245.19 245.19 0 135.42 109.78 245.19 245.19 245.19 135.42 0 245.19-109.78 245.19-245.19 0-135.42-109.78-245.19-245.19-245.19zm0 26.297c120.9 0 218.9 98 218.9 218.9s-98 218.9-218.9 218.9-218.93-98-218.93-218.9 98.03-218.9 218.93-218.9z" stroke-opacity="0.31" stroke="#000" stroke-width="4.904" fill="#fff"/>
 </g>
 <path id="path66" d="m116.32 368.99c-0.162-64.876 93.71-252.33 137.4-253.32 21.85-0.525 54.59 40.995 82.12 94.63 27.536 53.639 49.872 119.41 50.92 167.5 0 0-105.71-206.49-132.08-207.1-26.851-0.66-99.73 145.48-91.06 161.75 8.466 15.898 165.56-35.35 165.56-35.35-3.386 5.217-105.95 73.03-182.87 89.01-11.611-0.525-29.03 0-29.995-17.12" fill-rule="evenodd" fill="#fff"/>
</svg>
