<?xml version="1.0" encoding="UTF-8" standalone="no"?>
<svg xmlns="http://www.w3.org/2000/svg" height="512" viewBox="0 0 512 512" width="512" version="1.1">
 <metadata id="metadata72"/>
 <path id="path4" d="m471.95 253.05c0 120.9-98.01 218.9-218.9 218.9-120.9 0-218.9-98.01-218.9-218.9 0-120.9 98.01-218.9 218.9-218.9 120.9 0 218.9 98.01 218.9 218.9" fill-rule="evenodd" fill="#BF9E73"/>
 <path id="path6" opacity="0.25" d="m241.31 122.19c-0.921 0.039-1.926 0.153-3.03 0.375h-90.72c-21.604-0.496-27.03 22.338-25 39.531v85.41c3.901 2.401 6.06 6.546 9.938 8.969 1.756 4.293 15.244 10.42-0.969 8-14.876-4.433-7.02 13.921-8.969 22.438 0.358 27.614-0.74 55.32 0.563 82.88 6.453 16.485 22.632 26.451 34 39.594 19.873 19.85 39.732 39.702 59.59 59.56 11.821 1.975 23.961 3 36.34 3 120.89 0 218.88-97.98 218.88-218.87 0-12.381-1.025-24.523-3-36.34-28.896-28.896-57.79-57.794-86.69-86.69-13.687-12.02-32.889-5.997-49.5-7.469h-68.25c-1.183 4.393 2.492 21.18-2.031 15.906-2.423-3.879-6.567-6.04-8.969-9.938-3.414-2.763-5.74-6.613-12.188-6.344"/>
 <g id="g8" fill-rule="evenodd">
  <path id="path10" fill-opacity="0.067" d="m256 1c-140.83 0-255 114.17-255 255s114.17 255 255 255 255-114.17 255-255-114.17-255-255-255m8.827 44.931c120.9 0 218.9 98 218.9 218.9s-98 218.9-218.9 218.9-218.93-98-218.93-218.9 98.03-218.9 218.93-218.9"/>
  <g id="g12" fill-opacity="0.129">
   <path id="path14" d="m256 4.433c-138.94 0-251.57 112.63-251.57 251.57s112.63 251.57 251.57 251.57 251.57-112.63 251.57-251.57-112.63-251.57-251.57-251.57m5.885 38.556c120.9 0 218.9 98 218.9 218.9s-98 218.9-218.9 218.9-218.93-98-218.93-218.9 98.03-218.9 218.93-218.9"/>
   <path id="path16" d="m256 8.356c-136.77 0-247.64 110.87-247.64 247.64s110.87 247.64 247.64 247.64 247.64-110.87 247.64-247.64-110.87-247.64-247.64-247.64m2.942 31.691c120.9 0 218.9 98 218.9 218.9s-98 218.9-218.9 218.9-218.93-98-218.93-218.9 98.03-218.9 218.93-218.9"/>
  </g>
  <path id="path18" d="m253.04 7.859c-135.42 0-245.19 109.78-245.19 245.19 0 135.42 109.78 245.19 245.19 245.19 135.42 0 245.19-109.78 245.19-245.19 0-135.42-109.78-245.19-245.19-245.19zm0 26.297c120.9 0 218.9 98 218.9 218.9s-98 218.9-218.9 218.9-218.93-98-218.93-218.9 98.03-218.9 218.93-218.9z" stroke-opacity="0.31" stroke="#000" stroke-width="4.904" fill="#fff"/>
 </g>
 <path id="path66" fill="#fff" d="m147.56 122.56c-13.839 0-25 11.161-25 25v99.94h124.94c-0.077-41.637 0.009-83.29 0.031-124.94h-99.97m116.94 0v124.94c41.646-0.128 83.29-0.011 124.94 0.031v-99.97c0-13.839-11.161-25-25-25h-99.94m-84.75 34.406h26.03v22.781h22.781v26.03h-22.781v22.781h-26.03v-22.78h-22.78v-26.03h22.781v-22.781m103.69 22.781h71.59v26.03h-71.59v-26.03m-160.87 84.72v99.97c0 13.839 11.161 25 25 25h99.94v-124.94c-41.646 0.128-83.29 0.011-124.94-0.031m141.94 0.031c0.128 41.646 0.011 83.29-0.031 124.94h99.97c13.839 0 25-11.161 25-25v-99.94h-124.94m-87.84 20.22 16.09 16.13 16.13-16.12 18.406 18.406-16.09 16.09 16.09 16.13-18.406 18.406-16.12-16.09-16.09 16.09-18.406-18.406 16.13-16.12-16.12-16.09 18.406-18.406m106.78 3.094h71.59v26.03h-71.59v-26.03m0 36.813h71.59v26.03h-71.59v-26.03"/>
</svg>
