<?xml version="1.0" encoding="UTF-8" standalone="no"?>
<svg xmlns="http://www.w3.org/2000/svg" height="512" viewBox="0 0 512 512" width="512" version="1.1">
 <metadata id="metadata80"/>
 <g id="g4" fill-rule="evenodd">
  <path id="path6" fill="#BF9E73" d="m471.95 253.05c0 120.9-98.01 218.9-218.9 218.9-120.9 0-218.9-98.01-218.9-218.9 0-120.9 98.01-218.9 218.9-218.9 120.9 0 218.9 98.01 218.9 218.9"/>
  <path id="path8" fill-opacity="0.235" d="m202.13 146.31-0.125 0.344-55.59 158.16-0.25 0.656h1.375l-0.125 0.344-0.25 0.656h1.344l-0.125 0.344-0.25 0.656h1.375l-0.125 0.313-0.25 0.656h1.375l-0.125 0.344-0.25 0.656h1.375l-0.125 0.344-0.25 0.656h1.375l-0.125 0.344-0.25 0.656h1.375l-0.125 0.344-0.25 0.656h1.344l-0.125 0.344-0.25 0.656h1.375l-0.125 0.313-0.25 0.656h1.375l-0.125 0.344-0.25 0.656h1.375l-0.125 0.344-0.25 0.656h1.375l-0.125 0.344-0.25 0.656h1.375l-0.125 0.344-0.25 0.656h1.375l-0.125 0.344-0.25 0.656h1.344l-0.125 0.313-0.25 0.656h1.375l-0.125 0.344-0.25 0.656h1.375l-0.125 0.344-0.25 0.656h1.375l-0.125 0.344-0.25 0.656h1.375l-0.125 0.344-0.25 0.656h1.375l-0.125 0.344-0.25 0.656h1.344l-0.125 0.344-0.25 0.656h1.375l-0.125 0.313-0.25 0.656h1.375l-0.125 0.344-0.25 0.656h1.375l-0.125 0.344-0.25 0.656h1.375l-0.125 0.344-0.25 0.656h1.375l-0.125 0.344-0.25 0.656h1.344l-0.125 0.344-0.25 0.656h1.375l-0.125 0.313-0.25 0.656h1.375l-0.125 0.344-0.25 0.656h1.375l-0.125 0.344-0.25 0.656h1.375l-0.125 0.344-0.25 0.656h1.375l-0.125 0.344-0.25 0.656h1.375l-0.125 0.344-0.25 0.656h1.344l-0.125 0.313-0.25 0.656h1.375l-0.125 0.344-0.25 0.656h1.375l-0.125 0.344-0.25 0.656h1.375l-0.125 0.344-0.25 0.656h1.375l-0.125 0.344-0.25 0.656h1.375l-0.125 0.344-0.25 0.656h1.344l-0.125 0.313-0.25 0.656h1.375l-0.125 0.344-0.25 0.656h1.375l-0.125 0.344-0.25 0.656h1.375l-0.125 0.344-0.25 0.656h1.375l-0.125 0.344-0.25 0.656h1.375l-0.125 0.344-0.25 0.656h1.344l-0.125 0.344-0.25 0.656h1.375l-0.125 0.313-0.25 0.656h1.375l-0.125 0.344-0.25 0.656h1.375l-0.125 0.344-0.25 0.656h1.375l-0.125 0.344-0.25 0.656h1.375l-0.125 0.344-0.25 0.656h1.344l-0.125 0.344-0.25 0.656h1.375l-0.125 0.313-0.25 0.656h1.375l-0.125 0.344-0.25 0.656h1.375l-0.125 0.344-0.25 0.656h1.375l-0.125 0.344-0.25 0.656h1.375l-0.125 0.344-0.25 0.656h1.375l-0.125 0.344-0.25 0.656h1.344l-0.125 0.313-0.25 0.656h1.375l-0.125 0.344-0.25 0.656h1.375l-0.125 0.344-0.25 0.656h1.375l-0.125 0.344-0.25 0.656h1.375l-0.125 0.344-0.25 0.656h1.375l-0.125 0.344-0.25 0.656h1.344l-0.125 0.344-0.25 0.656h1.375l-0.125 0.313-0.25 0.656h1.375l-0.125 0.344-0.25 0.656h1.375l-0.125 0.344-0.25 0.656h1.375l-0.125 0.344-0.25 0.656h1.375l-0.125 0.344-0.25 0.656h1.344l-0.125 0.344-0.25 0.656h1.375l-0.125 0.313-0.25 0.656h1.375l-0.125 0.344-0.25 0.656h1.375l-0.125 0.344-0.25 0.656h1.375l-0.125 0.344-0.25 0.656h1.375l-0.125 0.344-0.25 0.656h1.375l-0.125 0.344-0.25 0.656h1.344l-0.125 0.313-0.25 0.656h1.375l-0.125 0.344-0.25 0.656h1.375l-0.125 0.344-0.25 0.656h1.375l-0.125 0.344-0.25 0.656h1.375l-0.125 0.344-0.25 0.656h1.375l-0.125 0.344-0.25 0.656h1.344l-0.125 0.313-0.25 0.656h1.375l-0.125 0.344-0.25 0.656h1.375l-0.125 0.344-0.25 0.656h1.375l-0.125 0.344-0.25 0.656h1.375l-0.125 0.344-0.25 0.656h1.375l-0.125 0.344-0.25 0.656h1.344l-0.125 0.344-0.25 0.656h1.375l-0.125 0.313-0.25 0.656h1.375l-0.125 0.344-0.25 0.656h1.375l-0.125 0.344-0.25 0.656h1.375l-0.125 0.344-0.25 0.656h1.375l-0.125 0.344-0.25 0.656h1.344l-0.125 0.344-0.25 0.656h1.375l-0.125 0.313-0.25 0.656h1.375l-0.125 0.344-0.25 0.656h1.375l-0.125 0.344-0.25 0.656h1.375l-0.125 0.344-0.25 0.656h1.375l-0.125 0.344-0.25 0.656h1.375l-0.125 0.344-0.25 0.656h1.344l-0.125 0.313-0.25 0.656h1.375l-0.125 0.344-0.25 0.656h1.375l-0.125 0.344-0.25 0.656h1.375l-0.125 0.344-0.25 0.656h1.375l-0.125 0.344-0.25 0.656h1.375l-0.125 0.344-0.25 0.656h1.344l-0.125 0.313-0.25 0.656h1.375l-0.125 0.344-0.25 0.656h1.375l-0.125 0.344-0.25 0.656h1.375l-0.125 0.344-0.25 0.656h1.375l-0.125 0.344-0.25 0.656h1.375l-0.125 0.344-0.25 0.656h1.344l-0.125 0.344-0.25 0.656h1.375l-0.125 0.313-0.25 0.656h1.375l-0.125 0.344-0.25 0.656h1.375l-0.125 0.344-0.25 0.656h1.375l-0.125 0.344-0.25 0.656h1.375l-0.125 0.344-0.25 0.656h1.344l-0.125 0.344-0.25 0.656h1.375l-0.125 0.313-0.25 0.656h1.375l-0.125 0.344-0.25 0.656h1.375l-0.125 0.344-0.25 0.656h1.375l-0.125 0.344-0.25 0.656h1.375l-0.125 0.344-0.25 0.656h1.375l-0.125 0.344-0.25 0.656h1.344l-0.125 0.313-0.25 0.656h1.375l-0.125 0.344-0.25 0.656h1.375l-0.125 0.344-0.25 0.656h1.375l-0.125 0.344-0.25 0.656h1.375l-0.125 0.344-0.25 0.656h1.375l-0.125 0.344-0.25 0.656h1.344l-0.125 0.344-0.25 0.656h1.375l-0.125 0.313-0.25 0.656h1.375l-0.125 0.344-0.25 0.656h1.375l-0.125 0.344-0.25 0.656h1.375l-0.125 0.344-0.25 0.656h1.375l-0.125 0.344-0.25 0.656h1.344l-0.125 0.344-0.25 0.656h1.375l-0.125 0.313-0.25 0.656h1.375l-0.125 0.344-0.25 0.656h1.375l-0.125 0.344-0.25 0.656h1.375l-0.125 0.344-0.25 0.656h1.375l-0.125 0.344-0.25 0.656h1.375l-0.125 0.344-0.25 0.656h1.344l-0.125 0.313-0.25 0.656h1.375l-0.125 0.344-0.25 0.656h1.375l-0.125 0.344-0.25 0.656h1.375l-0.125 0.344-0.25 0.656h1.375l-0.125 0.344-0.25 0.656h1.375l-0.125 0.344-0.25 0.656h1.344l-0.125 0.313-0.25 0.656h1.375l-0.125 0.344-0.25 0.656h1.375l-0.125 0.344-0.25 0.656h1.375l-0.125 0.344-0.25 0.656h1.375l-0.125 0.344-0.25 0.656h1.375l-0.125 0.344-0.25 0.656h1.344l-0.125 0.344-0.25 0.656h1.375l-0.125 0.313-0.25 0.656h1.375l-0.125 0.344-0.156 0.375c92.7-23.24 161.93-105.58 165.34-204.66-0.152-0.159-0.314-0.313-0.469-0.469-0.124-0.115-0.249-0.231-0.375-0.344-0.047-0.046-0.078-0.11-0.125-0.156-0.322-0.34-0.662-0.673-1-1-0.322-0.34-0.662-0.673-1-1-0.326-0.343-0.658-0.67-1-1-0.326-0.343-0.658-0.67-1-1-0.316-0.333-0.638-0.649-0.969-0.969-0.161-0.17-0.335-0.333-0.5-0.5-0.124-0.115-0.249-0.231-0.375-0.344-0.047-0.046-0.078-0.11-0.125-0.156-0.322-0.34-0.662-0.673-1-1-0.322-0.34-0.662-0.673-1-1-0.326-0.343-0.658-0.67-1-1-0.326-0.343-0.658-0.67-1-1-0.316-0.333-0.638-0.649-0.969-0.969-0.161-0.17-0.335-0.333-0.5-0.5-0.124-0.115-0.249-0.231-0.375-0.344-0.047-0.046-0.078-0.11-0.125-0.156-0.322-0.34-0.662-0.673-1-1-0.322-0.34-0.662-0.673-1-1-0.322-0.34-0.662-0.673-1-1-0.326-0.343-0.658-0.67-1-1-0.316-0.333-0.638-0.649-0.969-0.969-0.319-0.336-0.666-0.677-1-1-0.161-0.17-0.335-0.333-0.5-0.5-0.124-0.115-0.249-0.231-0.375-0.344-0.047-0.046-0.078-0.11-0.125-0.156-0.322-0.34-0.662-0.673-1-1-0.322-0.34-0.662-0.673-1-1-0.326-0.343-0.658-0.67-1-1-0.326-0.343-0.658-0.67-1-1-0.316-0.333-0.638-0.649-0.969-0.969-0.161-0.17-0.335-0.333-0.5-0.5-0.124-0.115-0.249-0.231-0.375-0.344-0.047-0.046-0.078-0.11-0.125-0.156-0.322-0.34-0.662-0.673-1-1-0.322-0.34-0.662-0.673-1-1-0.326-0.343-0.658-0.67-1-1-0.326-0.343-0.658-0.67-1-1-0.316-0.333-0.638-0.649-0.969-0.969-0.161-0.17-0.335-0.333-0.5-0.5-0.124-0.115-0.249-0.231-0.375-0.344-0.047-0.046-0.078-0.11-0.125-0.156-0.322-0.34-0.662-0.673-1-1-0.322-0.34-0.662-0.673-1-1-0.326-0.343-0.658-0.67-1-1-0.326-0.343-0.658-0.67-1-1-0.316-0.333-0.638-0.649-0.969-0.969-0.319-0.336-0.666-0.677-1-1-0.161-0.17-0.335-0.333-0.5-0.5-0.124-0.115-0.249-0.231-0.375-0.344-0.047-0.046-0.078-0.11-0.125-0.156-0.322-0.34-0.662-0.673-1-1-0.322-0.34-0.662-0.673-1-1-0.326-0.343-0.658-0.67-1-1-0.321-0.338-0.633-0.675-0.969-1-0.317-0.335-0.668-0.647-1-0.969-0.161-0.17-0.335-0.333-0.5-0.5-0.124-0.115-0.249-0.231-0.375-0.344-0.047-0.046-0.078-0.11-0.125-0.156-0.322-0.34-0.662-0.673-1-1-0.322-0.34-0.662-0.673-1-1-0.326-0.343-0.658-0.67-1-1-0.326-0.343-0.658-0.67-1-1-0.316-0.333-0.638-0.649-0.969-0.969-0.161-0.17-0.335-0.333-0.5-0.5-0.124-0.115-0.249-0.231-0.375-0.344-0.047-0.046-0.078-0.11-0.125-0.156-0.322-0.34-0.662-0.673-1-1-0.322-0.34-0.662-0.673-1-1-0.326-0.343-0.658-0.67-1-1-0.326-0.343-0.658-0.67-1-1-0.316-0.333-0.638-0.649-0.969-0.969-0.161-0.17-0.335-0.333-0.5-0.5-0.124-0.115-0.249-0.231-0.375-0.344-0.047-0.046-0.078-0.11-0.125-0.156-0.322-0.34-0.662-0.673-1-1-0.322-0.34-0.662-0.673-1-1-0.322-0.34-0.662-0.673-1-1-0.326-0.343-0.658-0.67-1-1-0.316-0.333-0.638-0.649-0.969-0.969-0.319-0.336-0.666-0.677-1-1-0.161-0.17-0.335-0.333-0.5-0.5-0.124-0.115-0.249-0.231-0.375-0.344-0.047-0.046-0.078-0.11-0.125-0.156-0.322-0.34-0.662-0.673-1-1-0.322-0.34-0.662-0.673-1-1-0.957-1.01-1.969-1.951-3.063-2.844-8.737-7.135-21.236-10.687-37.469-10.688-16.95 0-32.408 3.645-46.34 10.938l-0.438 0.219 0.219 0.438 10.906 22.22 0.188 0.438 0.438-0.188 0.375 0.75 0.188 0.438 0.438-0.156 0.344 0.719 0.188 0.438 0.469-0.188 0.344 0.719 0.188 0.438 0.438-0.188 0.375 0.75 0.188 0.438 0.438-0.188 0.375 0.75 0.188 0.438 0.438-0.188 0.375 0.75 0.188 0.438 0.438-0.188 0.375 0.75 0.188 0.438 0.438-0.156 0.344 0.719 0.188 0.438 0.469-0.188 0.344 0.719 0.188 0.438 0.438-0.188 0.375 0.75 0.188 0.438 0.438-0.188 0.375 0.75 0.188 0.438 0.438-0.188 0.375 0.75 0.188 0.438 0.438-0.188 0.375 0.75 0.188 0.438 0.438-0.188 0.375 0.75 0.188 0.438 0.438-0.188 0.344 0.719 0.188 0.438 0.438-0.188 0.375 0.75 0.156 0.375c-5.096 0.813-9.666 1.939-13.75 3.375l-0.031-0.125h-0.657l-0.219-0.656-0.125-0.344h-0.657l-0.219-0.656-0.125-0.344h-0.657l-0.219-0.656-0.125-0.344h-0.657l-0.219-0.656-0.125-0.344h-0.657l-0.219-0.656-0.125-0.344h-0.625l-0.219-0.625-0.125-0.344h-0.657l-0.219-0.656-0.125-0.344h-0.657l-0.219-0.656-0.125-0.344h-0.657l-0.219-0.656-0.125-0.344h-0.657l-0.219-0.656-0.125-0.344h-0.657l-0.219-0.656-0.125-0.344h-0.625l-0.219-0.625-0.125-0.344h-0.657l-0.219-0.656-0.125-0.344h-0.657l-0.219-0.656-0.125-0.344h-0.657l-0.219-0.656-0.125-0.344h-0.657l-0.219-0.656-0.125-0.344h-0.657l-0.219-0.656-0.125-0.344h-0.657l-0.219-0.625-0.125-0.344h-0.625l-0.219-0.656-0.125-0.344h-0.657l-0.219-0.656-0.125-0.344h-0.657l-0.219-0.656-0.125-0.344h-0.657l-0.219-0.656-0.125-0.344h-0.657l-0.219-0.656-0.125-0.344h-0.657l-0.219-0.625-0.125-0.344h-0.625l-0.219-0.656-0.125-0.344h-0.657l-0.219-0.656-0.125-0.344h-0.657l-0.219-0.656-0.125-0.344h-0.657l-0.219-0.656-0.125-0.344h-0.657l-0.219-0.656-0.125-0.344h-0.657l-0.219-0.656-0.125-0.344h-0.625l-0.219-0.625-0.125-0.344h-0.657l-0.219-0.656-0.125-0.344h-0.657l-0.219-0.656-0.125-0.344h-0.657l-0.219-0.656-0.125-0.344h-0.657l-0.219-0.656-0.125-0.344h-0.657l-0.219-0.656-0.125-0.344h-0.657l-0.219-0.625-0.125-0.344h-0.625l-0.219-0.656-0.125-0.344h-0.657l-0.219-0.656-0.125-0.344h-0.657l-0.219-0.656-0.125-0.344h-0.657l-0.219-0.656-0.125-0.344h-0.657l-0.219-0.656-0.125-0.344h-0.657l-0.219-0.625-0.125-0.344h-0.625l-0.219-0.656-0.125-0.344h-0.657l-0.219-0.656-0.125-0.344h-0.657l-0.219-0.656-0.125-0.344h-0.657l-0.219-0.656-0.125-0.344h-0.657l-0.219-0.656-0.125-0.344h-0.657l-0.219-0.656-0.125-0.344h-0.625l-0.219-0.625-0.125-0.344h-0.657l-0.219-0.656-0.125-0.344h-0.657l-0.219-0.656-0.125-0.344h-0.657l-0.219-0.656-0.125-0.344h-0.657l-0.219-0.656-0.125-0.344h-0.657l-0.219-0.656-0.125-0.344h-0.625l-0.219-0.625-0.125-0.344h-0.657l-0.219-0.656-0.125-0.344h-0.657l-0.219-0.656-0.125-0.344h-0.657l-0.219-0.656-0.125-0.344h-0.657l-0.219-0.656-0.125-0.344h-0.657l-0.219-0.656-0.125-0.344h-0.657l-0.219-0.625-0.125-0.344h-0.625l-0.219-0.656-0.125-0.344h-0.657l-0.219-0.656-0.125-0.344h-0.657l-0.219-0.656-0.125-0.344h-0.657l-0.219-0.656-0.125-0.344h-0.657l-0.219-0.656-0.125-0.344h-0.657l-0.219-0.625-0.125-0.344h-0.625l-0.219-0.656-0.125-0.344h-0.657l-0.219-0.656-0.125-0.344h-0.657l-0.219-0.656-0.125-0.344h-0.657l-0.219-0.656-0.125-0.344h-0.657l-0.219-0.656-0.125-0.344h-0.657l-0.219-0.656-0.125-0.344h-0.625l-0.219-0.625-0.125-0.344h-0.657l-0.219-0.656-0.125-0.344h-0.657l-0.219-0.656-0.125-0.344h-0.657l-0.219-0.656-0.125-0.344h-0.657l-0.219-0.656-0.125-0.344h-0.657l-0.219-0.656-0.125-0.344h-0.657l-0.219-0.625-0.125-0.344h-0.625l-0.219-0.656-0.125-0.344h-0.657l-0.219-0.656-0.125-0.344h-0.657l-0.219-0.656-0.125-0.344h-0.657l-0.219-0.656-0.125-0.344h-0.657l-0.219-0.656-0.125-0.344h-0.657l-0.219-0.625-0.125-0.344h-0.625l-0.219-0.656-0.125-0.344h-0.657l-0.219-0.656-0.125-0.344h-41.532"/>
  <path id="path10" fill="#BF9E73" d="m82.64 105.97c-31.396 41.787-50 93.74-50 150.03s18.604 108.24 50 150.03v-300.06"/>
  <path id="path12" fill="#BF9E73" d="m122.64 63.906c-14.901 12.424-28.333 26.535-40 42.06v300.06c11.667 15.528 25.1 29.638 40 42.06v-384.19"/>
  <path id="path14" fill-opacity="0.067" d="m256 1c-140.83 0-255 114.17-255 255s114.17 255 255 255 255-114.17 255-255-114.17-255-255-255m8.827 44.931c120.9 0 218.9 98 218.9 218.9s-98 218.9-218.9 218.9-218.93-98-218.93-218.9 98.03-218.9 218.93-218.9"/>
  <g id="g16" fill-opacity="0.129">
   <path id="path18" d="m256 4.433c-138.94 0-251.57 112.63-251.57 251.57s112.63 251.57 251.57 251.57 251.57-112.63 251.57-251.57-112.63-251.57-251.57-251.57m5.885 38.556c120.9 0 218.9 98 218.9 218.9s-98 218.9-218.9 218.9-218.93-98-218.93-218.9 98.03-218.9 218.93-218.9"/>
   <path id="path20" d="m256 8.356c-136.77 0-247.64 110.87-247.64 247.64s110.87 247.64 247.64 247.64 247.64-110.87 247.64-247.64-110.87-247.64-247.64-247.64m2.942 31.691c120.9 0 218.9 98 218.9 218.9s-98 218.9-218.9 218.9-218.93-98-218.93-218.9 98.03-218.9 218.93-218.9"/>
  </g>
  <path id="path22" d="m253.04 7.859c-135.42 0-245.19 109.78-245.19 245.19 0 135.42 109.78 245.19 245.19 245.19 135.42 0 245.19-109.78 245.19-245.19 0-135.42-109.78-245.19-245.19-245.19zm0 26.297c120.9 0 218.9 98 218.9 218.9s-98 218.9-218.9 218.9-218.93-98-218.93-218.9 98.03-218.9 218.93-218.9z" stroke-opacity="0.31" stroke="#000" stroke-width="4.904" fill="#fff"/>
 </g>
 <text id="text24" font-size="129.23" line-height="125%" y="231.36" x="729.64" font-family="Gentium Book Basic" word-spacing="0" letter-spacing="0"><tspan id="tspan26" y="231.36" x="729.64"/>
 </text>
 <text id="text28" font-size="46.954" transform="scale(4.0128 .2492)" y="579.25" x="378.91" font-family="Arial" text-anchor="middle"/>
 <text id="text30" font-size="129.23" line-height="125%" y="151.36" x="1310.91" font-family="Gentium Book Basic" word-spacing="0" letter-spacing="0"><tspan id="tspan32" y="151.36" x="1310.91"/>
 </text>
 <text id="text34" font-size="46.954" transform="scale(4.0128 .2492)" y="258.22" x="523.76" font-family="Arial" text-anchor="middle"/>
 <text id="text36" font-size="129.23" line-height="125%" y="-29.901" x="239.33" font-family="Gentium Book Basic" word-spacing="0" letter-spacing="0"><tspan id="tspan38" y="-29.901" x="239.33"/>
 </text>
 <text id="text40" font-size="46.954" transform="scale(4.0128 .2492)" y="-469.14" x="256.72" font-family="Arial" text-anchor="middle"/>
 <text id="text42" font-size="129.23" line-height="125%" y="-246.37" x="1337.38" font-family="Gentium Book Basic" word-spacing="0" letter-spacing="0"><tspan id="tspan44" y="-246.37" x="1337.38"/>
 </text>
 <text id="text46" font-size="46.954" transform="scale(4.0128 .2492)" y="-1337.81" x="530.36" font-family="Arial" text-anchor="middle"/>
 <text id="text48" font-size="129.23" line-height="125%" y="-326.38" x="1918.65" font-family="Gentium Book Basic" word-spacing="0" letter-spacing="0"><tspan id="tspan50" y="-326.38" x="1918.65"/>
 </text>
 <text id="text52" font-size="46.954" transform="scale(4.0128 .2492)" y="-1658.85" x="675.21" font-family="Arial" text-anchor="middle"/>
 <text id="text54" font-size="129.23" line-height="125%" y="-798.78" x="1529.53" font-family="Gentium Book Basic" word-spacing="0" letter-spacing="0"><tspan id="tspan56" y="-798.78" x="1529.53"/>
 </text>
 <text id="text58" font-size="46.954" transform="scale(4.0128 .2492)" y="-3554.51" x="578.24" font-family="Arial" text-anchor="middle"/>
 <text id="text60" font-size="129.23" line-height="125%" y="-878.78" x="2110.79" font-family="Gentium Book Basic" word-spacing="0" letter-spacing="0"><tspan id="tspan62" y="-878.78" x="2110.79"/>
 </text>
 <text id="text64" font-size="46.954" transform="scale(4.0128 .2492)" y="-3875.54" x="723.09" font-family="Arial" text-anchor="middle"/>
 <g id="g66" line-height="125%" fill="#fff" word-spacing="0" letter-spacing="0">
  <text id="text68" y="535.94" x="277.99" font-size="208.33" font-family="Gentium Book Basic"><tspan id="tspan70" y="535.94" x="277.99" fill="#ffffff"/>
  </text>
  <text id="text72" font-size="220.65" font-weight="bold" y="304.97" x="146.76" font-family="Sans"><tspan id="tspan74" y="304.97" x="146.76" fill="#ffffff">Aa</tspan>
  </text>
 </g>
</svg>
