<?xml version="1.0" encoding="UTF-8" standalone="no"?>
<svg xmlns="http://www.w3.org/2000/svg" height="512" viewBox="0 0 512 512" width="512" version="1.1">
 <metadata id="metadata70"/>
 <path id="path8" fill-rule="evenodd" fill="#BF9E73" d="m471.95 253.05c0 120.9-98.006 218.91-218.91 218.91s-218.91-98.006-218.91-218.91 98.006-218.91 218.91-218.91 218.91 98.006 218.91 218.91"/>
 <path id="path5488" opacity="0.25" d="m188.31 153.47c-7.75 8.92-9.68-0.07-20.84 0.09h-9.63v41.47c-9.07 2.89-25.02-3.29-22.18 11.5 1.5 13.48-0.12 26.55-17.07 21.56-16.64-5.47 5.05 23.6-13.62 16.1-16.364-4.42-22.569 1.99-24.689 14.4 2.269 9.64 1.173 10.59 0.157 14.38 48.592 40.41 33.232 26.54 48.972 40.56 0.91 1.56 0.77 1.43 0.31 3.5 27.44 23.73 20.1 17.05 27.75 24.03 0.97 4.95 0.42 11.41 0.37 17.38 128.6 106.82 111.68 90.91 134.72 109.94 101.73-18.56 178.93-107.4 179.38-214.38-84.24-70.94 9.79 8.65-117.91-100.44-11.2 3.45-32.7-4.25-27.15 13.5 0 24.08-3.54 48.17-3.54 72.25-10.61-1.34-26.56 2.64-33.93-1.93-100.3-83.67-68.02-61.29-101.1-83.91z"/>
 <path id="path10" fill-rule="evenodd" fill-opacity="0.067" d="m256 1c-140.83 0-255 114.17-255 255s114.17 255 255 255 255-114.17 255-255-114.17-255-255-255m8.827 44.931c120.9 0 218.9 98 218.9 218.9s-98 218.9-218.9 218.9-218.93-98-218.93-218.9 98.03-218.9 218.93-218.9"/>
 <path id="path14" fill-rule="evenodd" fill-opacity="0.129" d="m256 4.43c-138.94 0-251.57 112.63-251.57 251.57s112.63 251.57 251.57 251.57 251.57-112.63 251.57-251.57-112.63-251.57-251.57-251.57m5.885 38.556c120.9 0 218.9 98 218.9 218.9s-98 218.9-218.9 218.9-218.93-98-218.93-218.9 98.03-218.9 218.93-218.9"/>
 <path id="path16" fill-rule="evenodd" fill-opacity="0.129" d="m256 8.36c-136.77 0-247.64 110.87-247.64 247.64s110.87 247.64 247.64 247.64 247.64-110.87 247.64-247.64-110.87-247.64-247.64-247.64m2.942 31.691c120.9 0 218.9 98 218.9 218.9s-98 218.9-218.9 218.9-218.93-98-218.93-218.9 98.03-218.9 218.93-218.9"/>
 <path id="path18" d="m253.04 7.86c-135.42 0-245.19 109.78-245.19 245.19 0 135.42 109.78 245.19 245.19 245.19 135.42 0 245.19-109.78 245.19-245.19 0-135.42-109.78-245.19-245.19-245.19zm0 26.297c120.9 0 218.9 98 218.9 218.9s-98 218.9-218.9 218.9-218.93-98-218.93-218.9 98.03-218.9 218.93-218.9z" stroke-opacity="0.31" fill-rule="evenodd" stroke="#000" stroke-width="4.904" fill="#fff"/>
 <path id="rect3115" fill="#fff" d="m157.84 153.56v41.469h-28.156v28.188h-23.219v16.094h-26.188v33.375h26.188v16.094h23.219v28.188h28.156v41.469h30.844v-85.75h134.66v85.75h30.812v-41.469h28.188v-28.188h23.188v-16.094h26.188v-33.375h-26.188v-16.094h-23.188v-28.188h-28.188v-41.469h-30.812v85.75h-134.66v-85.75h-30.844z"/>
</svg>
