<?xml version="1.0" encoding="UTF-8" standalone="no"?>
<svg
   xmlns:dc="http://purl.org/dc/elements/1.1/"
   xmlns:cc="http://creativecommons.org/ns#"
   xmlns:rdf="http://www.w3.org/1999/02/22-rdf-syntax-ns#"
   xmlns:svg="http://www.w3.org/2000/svg"
   xmlns="http://www.w3.org/2000/svg"
   xmlns:sodipodi="http://sodipodi.sourceforge.net/DTD/sodipodi-0.dtd"
   xmlns:inkscape="http://www.inkscape.org/namespaces/inkscape"
   height="512"
   viewBox="0 0 512 512"
   width="512"
   version="1.1"
   id="svg2"
   inkscape:version="0.91 r13725"
   sodipodi:docname="AdobeAIR.svg">
  <defs
     id="defs39" />
  <sodipodi:namedview
     pagecolor="#ffffff"
     bordercolor="#666666"
     borderopacity="1"
     objecttolerance="10"
     gridtolerance="10"
     guidetolerance="10"
     inkscape:pageopacity="0"
     inkscape:pageshadow="2"
     inkscape:window-width="1680"
     inkscape:window-height="1024"
     id="namedview37"
     showgrid="false"
     inkscape:zoom="0.4609375"
     inkscape:cx="-162.71186"
     inkscape:cy="256"
     inkscape:window-x="0"
     inkscape:window-y="0"
     inkscape:window-maximized="0"
     inkscape:current-layer="svg2" />
  <metadata
     id="metadata72">
    <rdf:RDF>
      <cc:Work
         rdf:about="">
        <dc:format>image/svg+xml</dc:format>
        <dc:type
           rdf:resource="http://purl.org/dc/dcmitype/StillImage" />
      </cc:Work>
    </rdf:RDF>
  </metadata>
  <path
     id="path4"
     d="m471.95 253.05c0 120.9-98.01 218.9-218.9 218.9-120.9 0-218.9-98.01-218.9-218.9 0-120.9 98.01-218.9 218.9-218.9 120.9 0 218.9 98.01 218.9 218.9"
     fill-rule="evenodd"
     fill="#BF9E73" />
  <path
     id="path6"
     fill-opacity="0.235"
     d="m291.31 129.44c-1.523 0.004-3 0.073-4.5 0.188-20.959 1.597-36.15 15.05-44.813 40.28-12.518 36.458-33.705 58.15-70.906 72.28-21.982 8.352-29.654 13.95-36.5 27.06-5.52 10.573-6.689 26.06-3.094 39.03 1.527 5.508 7.17 13.315 13.563 19.563 0.33 0.335 0.665 0.673 1 1 0.438 0.445 0.866 0.882 1.313 1.313 0.204 0.205 0.419 0.392 0.625 0.594 0.296 0.301 0.575 0.611 0.875 0.906 0.383 0.391 0.767 0.776 1.156 1.156 0.33 0.335 0.665 0.673 1 1 0.33 0.335 0.665 0.673 1 1 0.438 0.445 0.866 0.882 1.313 1.313 0.204 0.205 0.419 0.392 0.625 0.594 0.169 0.179 0.329 0.354 0.5 0.531l0.188 0.188c0.446 0.459 0.889 0.899 1.344 1.344 0.33 0.335 0.665 0.673 1 1 0.33 0.335 0.665 0.673 1 1 0.438 0.445 0.866 0.882 1.313 1.313 0.204 0.205 0.419 0.392 0.625 0.594 0.031 0.032 0.063 0.062 0.094 0.094 0.302 0.306 0.6 0.607 0.906 0.906 0.177 0.187 0.353 0.378 0.531 0.563l0.156 0.156c0.441 0.454 0.894 0.904 1.344 1.344 0.33 0.335 0.665 0.673 1 1 0.33 0.335 0.665 0.673 1 1 0.438 0.445 0.866 0.882 1.313 1.313 0.204 0.205 0.419 0.392 0.625 0.594 0.177 0.187 0.353 0.378 0.531 0.563l0.156 0.156c0.441 0.454 0.894 0.904 1.344 1.344 0.33 0.335 0.665 0.673 1 1 0.33 0.335 0.665 0.673 1 1 0.438 0.445 0.866 0.882 1.313 1.313 0.204 0.205 0.419 0.392 0.625 0.594 0.164 0.174 0.334 0.328 0.5 0.5 0.068 0.068 0.119 0.151 0.188 0.219 0.446 0.459 0.889 0.899 1.344 1.344 0.33 0.335 0.665 0.673 1 1 0.33 0.335 0.665 0.673 1 1 0.438 0.445 0.866 0.882 1.313 1.313 0.204 0.205 0.419 0.392 0.625 0.594 0.169 0.179 0.329 0.354 0.5 0.531l0.188 0.188c0.446 0.459 0.889 0.899 1.344 1.344 0.33 0.335 0.665 0.673 1 1 0.33 0.335 0.665 0.673 1 1 0.438 0.445 0.866 0.882 1.313 1.313 0.204 0.205 0.419 0.392 0.625 0.594 0.031 0.032 0.063 0.062 0.094 0.094 0.302 0.306 0.6 0.607 0.906 0.906 0.177 0.187 0.353 0.378 0.531 0.563l0.156 0.156c0.441 0.454 0.894 0.904 1.344 1.344 0.33 0.335 0.665 0.673 1 1 0.33 0.335 0.665 0.673 1 1 0.438 0.445 0.866 0.882 1.313 1.313 0.204 0.205 0.419 0.392 0.625 0.594 0.296 0.301 0.575 0.611 0.875 0.906 0.383 0.391 0.767 0.776 1.156 1.156 0.33 0.335 0.665 0.673 1 1 0.33 0.335 0.665 0.673 1 1 0.438 0.445 0.866 0.882 1.313 1.313 0.204 0.205 0.419 0.392 0.625 0.594 0.164 0.174 0.334 0.328 0.5 0.5 0.068 0.068 0.119 0.151 0.188 0.219 0.446 0.459 0.889 0.899 1.344 1.344 0.33 0.335 0.665 0.673 1 1 0.33 0.335 0.665 0.673 1 1 0.438 0.445 0.866 0.882 1.313 1.313 0.204 0.205 0.419 0.392 0.625 0.594 0.031 0.032 0.063 0.062 0.094 0.094 0.302 0.306 0.6 0.607 0.906 0.906 0.177 0.187 0.353 0.378 0.531 0.563l0.156 0.156c0.441 0.454 0.894 0.904 1.344 1.344 0.33 0.335 0.665 0.673 1 1 0.33 0.335 0.665 0.673 1 1 0.438 0.445 0.866 0.882 1.313 1.313 0.204 0.205 0.419 0.392 0.625 0.594 0.177 0.187 0.353 0.378 0.531 0.563l0.156 0.156c0.441 0.454 0.894 0.904 1.344 1.344 0.33 0.335 0.665 0.673 1 1 0.33 0.335 0.665 0.673 1 1 0.438 0.445 0.866 0.882 1.313 1.313 0.204 0.205 0.419 0.392 0.625 0.594 0.169 0.179 0.329 0.354 0.5 0.531l0.188 0.188c0.446 0.459 0.889 0.899 1.344 1.344 0.33 0.335 0.665 0.673 1 1 0.33 0.335 0.665 0.673 1 1 0.438 0.445 0.866 0.882 1.313 1.313 0.204 0.205 0.419 0.392 0.625 0.594 0.164 0.174 0.334 0.328 0.5 0.5 0.068 0.068 0.119 0.151 0.188 0.219 0.446 0.459 0.889 0.899 1.344 1.344 0.33 0.335 0.665 0.673 1 1 0.33 0.335 0.665 0.673 1 1 0.438 0.445 0.866 0.882 1.313 1.313 0.204 0.205 0.419 0.392 0.625 0.594 0.031 0.032 0.063 0.062 0.094 0.094 0.302 0.306 0.6 0.607 0.906 0.906 0.177 0.187 0.353 0.378 0.531 0.563l0.156 0.156c0.441 0.454 0.894 0.904 1.344 1.344 0.33 0.335 0.665 0.673 1 1 0.33 0.335 0.665 0.673 1 1 0.438 0.445 0.866 0.882 1.313 1.313 0.204 0.205 0.419 0.392 0.625 0.594 0.296 0.301 0.575 0.611 0.875 0.906 0.383 0.391 0.767 0.776 1.156 1.156 0.33 0.335 0.665 0.673 1 1 0.33 0.335 0.665 0.673 1 1 0.438 0.445 0.866 0.882 1.313 1.313 0.204 0.205 0.419 0.392 0.625 0.594 0.169 0.179 0.329 0.354 0.5 0.531l0.188 0.188c0.446 0.459 0.889 0.899 1.344 1.344 0.33 0.335 0.665 0.673 1 1 0.33 0.335 0.665 0.673 1 1 0.438 0.445 0.866 0.882 1.313 1.313 0.204 0.205 0.419 0.392 0.625 0.594 0.031 0.032 0.063 0.062 0.094 0.094 0.302 0.306 0.6 0.607 0.906 0.906 0.177 0.187 0.353 0.378 0.531 0.563l0.156 0.156c0.441 0.454 0.894 0.904 1.344 1.344 0.33 0.335 0.665 0.673 1 1 0.368 0.374 0.72 0.761 1.094 1.125 0.45 0.455 0.917 0.873 1.375 1.313 0.021 0.021 0.042 0.041 0.063 0.063 0.137 0.137 0.268 0.271 0.406 0.406 0.177 0.187 0.353 0.378 0.531 0.563l0.156 0.156c0.441 0.454 0.894 0.904 1.344 1.344 0.33 0.335 0.665 0.673 1 1 0.33 0.335 0.665 0.673 1 1 0.438 0.445 0.866 0.882 1.313 1.313 0.204 0.205 0.419 0.392 0.625 0.594 0.164 0.174 0.334 0.328 0.5 0.5 0.068 0.068 0.119 0.151 0.188 0.219 0.446 0.459 0.889 0.899 1.344 1.344 0.33 0.335 0.665 0.673 1 1 0.33 0.335 0.665 0.673 1 1 0.438 0.445 0.866 0.882 1.313 1.313 0.204 0.205 0.419 0.392 0.625 0.594 0.169 0.179 0.329 0.354 0.5 0.531l0.188 0.188c0.446 0.459 0.889 0.899 1.344 1.344 0.33 0.335 0.665 0.673 1 1 0.33 0.335 0.665 0.673 1 1 0.438 0.445 0.866 0.882 1.313 1.313 0.204 0.205 0.419 0.392 0.625 0.594 0.031 0.032 0.063 0.062 0.094 0.094 0.302 0.306 0.6 0.607 0.906 0.906 0.177 0.187 0.353 0.378 0.531 0.563l0.156 0.156c0.441 0.454 0.894 0.904 1.344 1.344 0.33 0.335 0.665 0.673 1 1 0.33 0.335 0.665 0.673 1 1 0.438 0.445 0.866 0.882 1.313 1.313 0.204 0.205 0.419 0.392 0.625 0.594 0.296 0.301 0.575 0.611 0.875 0.906 0.383 0.391 0.767 0.776 1.156 1.156 0.33 0.335 0.665 0.673 1 1 0.33 0.335 0.665 0.673 1 1 0.438 0.445 0.866 0.882 1.313 1.313 0.204 0.205 0.419 0.392 0.625 0.594 0.164 0.174 0.334 0.328 0.5 0.5 0.068 0.068 0.119 0.151 0.188 0.219 0.208 0.214 0.417 0.417 0.625 0.625 94.13-14.494 168.51-88.975 182.84-183.16-0.22-0.219-0.441-0.438-0.656-0.656-0.164-0.174-0.333-0.358-0.5-0.531-0.168-0.16-0.333-0.312-0.5-0.469-0.164-0.174-0.333-0.358-0.5-0.531-0.17-0.161-0.331-0.311-0.5-0.469-0.318-0.337-0.67-0.665-1-1-0.318-0.337-0.67-0.665-1-1-0.31-0.328-0.647-0.643-0.969-0.969-0.316-0.335-0.672-0.667-1-1-0.163-0.173-0.334-0.359-0.5-0.531-0.168-0.16-0.333-0.312-0.5-0.469-0.164-0.174-0.333-0.358-0.5-0.531-0.168-0.16-0.333-0.312-0.5-0.469-0.164-0.174-0.333-0.358-0.5-0.531-0.171-0.163-0.33-0.309-0.5-0.469-0.318-0.337-0.67-0.665-1-1-0.159-0.168-0.338-0.332-0.5-0.5-0.066-0.062-0.122-0.126-0.188-0.188-0.097-0.1-0.183-0.213-0.281-0.313-0.313-0.331-0.675-0.639-1-0.969-0.316-0.335-0.672-0.667-1-1-0.164-0.174-0.333-0.358-0.5-0.531-0.168-0.16-0.333-0.312-0.5-0.469-0.164-0.174-0.333-0.358-0.5-0.531-0.171-0.163-0.33-0.309-0.5-0.469-0.318-0.337-0.67-0.665-1-1-0.159-0.168-0.338-0.332-0.5-0.5-0.066-0.062-0.122-0.126-0.188-0.188-0.097-0.1-0.183-0.213-0.281-0.313-0.313-0.331-0.675-0.639-1-0.969-0.316-0.335-0.672-0.667-1-1-0.164-0.174-0.333-0.358-0.5-0.531-0.168-0.16-0.333-0.312-0.5-0.469-0.164-0.174-0.333-0.358-0.5-0.531-0.17-0.161-0.331-0.311-0.5-0.469-0.318-0.337-0.67-0.665-1-1-0.318-0.337-0.67-0.665-1-1-0.31-0.328-0.647-0.643-0.969-0.969-0.316-0.335-0.672-0.667-1-1-0.164-0.174-0.333-0.358-0.5-0.531-0.168-0.16-0.333-0.312-0.5-0.469-0.164-0.174-0.333-0.358-0.5-0.531-0.168-0.16-0.333-0.312-0.5-0.469-0.318-0.337-0.67-0.665-1-1-0.318-0.337-0.67-0.665-1-1-0.308-0.326-0.649-0.645-0.969-0.969-0.316-0.335-0.672-0.667-1-1-0.316-0.335-0.672-0.667-1-1-0.164-0.174-0.333-0.358-0.5-0.531-0.168-0.16-0.333-0.312-0.5-0.469-0.164-0.174-0.333-0.358-0.5-0.531-0.171-0.163-0.33-0.309-0.5-0.469-0.318-0.337-0.67-0.665-1-1-0.159-0.168-0.338-0.332-0.5-0.5-0.066-0.062-0.122-0.126-0.188-0.188-0.097-0.1-0.183-0.213-0.281-0.313-0.313-0.331-0.675-0.639-1-0.969-0.316-0.335-0.672-0.667-1-1-0.164-0.174-0.333-0.358-0.5-0.531-0.168-0.16-0.333-0.312-0.5-0.469-0.164-0.174-0.333-0.358-0.5-0.531-0.171-0.163-0.33-0.309-0.5-0.469-0.318-0.337-0.67-0.665-1-1-0.159-0.168-0.338-0.332-0.5-0.5-0.066-0.062-0.122-0.126-0.188-0.188-0.097-0.1-0.183-0.213-0.281-0.313-0.313-0.331-0.675-0.639-1-0.969-0.316-0.335-0.672-0.667-1-1-0.164-0.174-0.333-0.358-0.5-0.531-0.168-0.16-0.333-0.312-0.5-0.469-0.164-0.174-0.333-0.358-0.5-0.531-0.17-0.161-0.331-0.311-0.5-0.469-0.318-0.337-0.67-0.665-1-1-0.318-0.337-0.67-0.665-1-1-0.31-0.328-0.647-0.643-0.969-0.969-0.316-0.335-0.672-0.667-1-1-0.163-0.173-0.334-0.359-0.5-0.531-0.168-0.16-0.333-0.312-0.5-0.469-0.164-0.174-0.333-0.358-0.5-0.531-0.168-0.16-0.333-0.312-0.5-0.469-0.164-0.174-0.333-0.358-0.5-0.531-0.171-0.163-0.33-0.309-0.5-0.469-0.318-0.337-0.67-0.665-1-1-0.159-0.168-0.338-0.332-0.5-0.5-0.066-0.062-0.122-0.126-0.188-0.188-0.097-0.1-0.183-0.213-0.281-0.313-0.313-0.331-0.675-0.639-1-0.969-0.316-0.335-0.672-0.667-1-1-0.164-0.174-0.333-0.358-0.5-0.531-0.168-0.16-0.333-0.312-0.5-0.469-0.164-0.174-0.333-0.358-0.5-0.531-0.171-0.163-0.33-0.309-0.5-0.469-0.318-0.337-0.67-0.665-1-1-0.159-0.168-0.338-0.332-0.5-0.5-0.066-0.062-0.122-0.126-0.188-0.188-0.097-0.1-0.183-0.213-0.281-0.313-0.313-0.331-0.675-0.639-1-0.969-0.316-0.335-0.672-0.667-1-1-0.164-0.174-0.333-0.358-0.5-0.531-0.168-0.16-0.333-0.312-0.5-0.469-0.164-0.174-0.333-0.358-0.5-0.531-0.17-0.161-0.331-0.311-0.5-0.469-0.318-0.337-0.67-0.665-1-1-0.318-0.337-0.67-0.665-1-1-0.31-0.328-0.647-0.643-0.969-0.969-0.316-0.335-0.672-0.667-1-1-0.164-0.174-0.333-0.358-0.5-0.531-0.168-0.16-0.333-0.312-0.5-0.469-0.164-0.174-0.333-0.358-0.5-0.531-0.168-0.16-0.333-0.312-0.5-0.469-0.318-0.337-0.67-0.665-1-1-0.318-0.337-0.67-0.665-1-1-0.308-0.326-0.649-0.645-0.969-0.969-0.316-0.335-0.672-0.667-1-1-0.316-0.335-0.672-0.667-1-1-0.164-0.174-0.333-0.358-0.5-0.531-0.168-0.16-0.333-0.312-0.5-0.469-0.164-0.174-0.333-0.358-0.5-0.531-0.171-0.163-0.33-0.309-0.5-0.469-0.318-0.337-0.67-0.665-1-1-0.159-0.168-0.338-0.332-0.5-0.5-0.066-0.062-0.122-0.126-0.188-0.188-0.097-0.1-0.183-0.213-0.281-0.313-0.313-0.331-0.675-0.639-1-0.969-0.316-0.335-0.672-0.667-1-1-0.164-0.174-0.333-0.358-0.5-0.531-0.168-0.16-0.333-0.312-0.5-0.469-0.164-0.174-0.333-0.358-0.5-0.531-0.171-0.163-0.33-0.309-0.5-0.469-0.318-0.337-0.67-0.665-1-1-0.159-0.168-0.338-0.332-0.5-0.5-0.066-0.062-0.122-0.126-0.188-0.188-0.097-0.1-0.183-0.213-0.281-0.313-0.313-0.331-0.675-0.639-1-0.969-0.316-0.335-0.672-0.667-1-1-0.164-0.174-0.333-0.358-0.5-0.531-0.168-0.16-0.333-0.312-0.5-0.469-0.164-0.174-0.333-0.358-0.5-0.531-0.17-0.161-0.331-0.311-0.5-0.469-0.318-0.337-0.67-0.665-1-1-0.318-0.337-0.67-0.665-1-1-0.31-0.328-0.647-0.643-0.969-0.969-0.316-0.335-0.672-0.667-1-1-0.164-0.174-0.333-0.358-0.5-0.531-0.168-0.16-0.333-0.312-0.5-0.469-0.164-0.174-0.333-0.358-0.5-0.531-0.168-0.16-0.333-0.312-0.5-0.469-0.318-0.337-0.67-0.665-1-1-0.318-0.337-0.67-0.665-1-1-0.159-0.168-0.338-0.332-0.5-0.5-0.066-0.062-0.122-0.126-0.188-0.188-0.097-0.1-0.183-0.213-0.281-0.313-0.313-0.331-0.675-0.639-1-0.969-0.316-0.335-0.672-0.667-1-1-0.164-0.174-0.333-0.358-0.5-0.531-0.168-0.16-0.333-0.312-0.5-0.469-0.164-0.174-0.333-0.358-0.5-0.531-0.171-0.163-0.33-0.309-0.5-0.469-0.318-0.337-0.67-0.665-1-1-0.159-0.168-0.338-0.332-0.5-0.5-0.066-0.062-0.122-0.126-0.188-0.188-0.097-0.1-0.183-0.213-0.281-0.313-0.313-0.331-0.675-0.639-1-0.969-0.316-0.335-0.672-0.667-1-1-0.164-0.174-0.333-0.358-0.5-0.531-0.168-0.16-0.333-0.312-0.5-0.469-0.164-0.174-0.333-0.358-0.5-0.531-0.171-0.163-0.33-0.309-0.5-0.469-0.318-0.337-0.67-0.665-1-1-0.318-0.337-0.67-0.665-1-1-0.31-0.328-0.647-0.643-0.969-0.969-0.316-0.335-0.672-0.667-1-1-0.164-0.174-0.333-0.358-0.5-0.531-0.168-0.16-0.333-0.312-0.5-0.469-0.164-0.174-0.333-0.358-0.5-0.531-0.168-0.16-0.333-0.312-0.5-0.469-0.318-0.337-0.67-0.665-1-1-0.318-0.337-0.67-0.665-1-1-0.308-0.326-0.649-0.645-0.969-0.969-0.316-0.335-0.672-0.667-1-1-0.316-0.335-0.672-0.667-1-1-0.164-0.174-0.333-0.358-0.5-0.531-0.168-0.16-0.333-0.312-0.5-0.469-0.164-0.174-0.333-0.358-0.5-0.531-0.171-0.163-0.33-0.309-0.5-0.469-0.318-0.337-0.67-0.665-1-1-0.159-0.168-0.338-0.332-0.5-0.5-0.066-0.062-0.122-0.126-0.188-0.188-0.097-0.1-0.183-0.213-0.281-0.313-0.313-0.331-0.675-0.639-1-0.969-0.316-0.335-0.672-0.667-1-1-0.164-0.174-0.333-0.358-0.5-0.531-0.168-0.16-0.333-0.312-0.5-0.469-0.164-0.174-0.333-0.358-0.5-0.531-0.171-0.163-0.33-0.309-0.5-0.469-0.318-0.337-0.67-0.665-1-1-0.159-0.168-0.338-0.332-0.5-0.5-0.066-0.062-0.122-0.126-0.188-0.188-0.097-0.1-0.183-0.213-0.281-0.313-0.313-0.331-0.675-0.639-1-0.969-0.316-0.335-0.672-0.667-1-1-0.164-0.174-0.333-0.358-0.5-0.531-0.168-0.16-0.333-0.312-0.5-0.469-0.164-0.174-0.333-0.358-0.5-0.531-0.17-0.161-0.331-0.311-0.5-0.469-0.318-0.337-0.67-0.665-1-1-0.318-0.337-0.67-0.665-1-1-0.31-0.328-0.647-0.643-0.969-0.969-0.316-0.335-0.672-0.667-1-1-0.164-0.174-0.333-0.358-0.5-0.531-0.168-0.16-0.333-0.312-0.5-0.469-0.164-0.174-0.333-0.358-0.5-0.531-0.168-0.16-0.333-0.312-0.5-0.469-0.794-0.842-1.628-1.671-2.5-2.5-9.804-9.33-17.805-13.09-31-14.156-1.618-0.13-3.165-0.192-4.688-0.188" />
  <g
     id="g8"
     fill-rule="evenodd">
    <path
       id="path10"
       fill-opacity="0.067"
       d="m256 1c-140.83 0-255 114.17-255 255s114.17 255 255 255 255-114.17 255-255-114.17-255-255-255m8.827 44.931c120.9 0 218.9 98 218.9 218.9s-98 218.9-218.9 218.9-218.93-98-218.93-218.9 98.03-218.9 218.93-218.9" />
    <g
       id="g12"
       fill-opacity="0.129">
      <path
         id="path14"
         d="m256 4.433c-138.94 0-251.57 112.63-251.57 251.57s112.63 251.57 251.57 251.57 251.57-112.63 251.57-251.57-112.63-251.57-251.57-251.57m5.885 38.556c120.9 0 218.9 98 218.9 218.9s-98 218.9-218.9 218.9-218.93-98-218.93-218.9 98.03-218.9 218.93-218.9" />
      <path
         id="path16"
         d="m256 8.356c-136.77 0-247.64 110.87-247.64 247.64s110.87 247.64 247.64 247.64 247.64-110.87 247.64-247.64-110.87-247.64-247.64-247.64m2.942 31.691c120.9 0 218.9 98 218.9 218.9s-98 218.9-218.9 218.9-218.93-98-218.93-218.9 98.03-218.9 218.93-218.9" />
    </g>
    <path
       id="path18"
       d="m253.04 7.859c-135.42 0-245.19 109.78-245.19 245.19 0 135.42 109.78 245.19 245.19 245.19 135.42 0 245.19-109.78 245.19-245.19 0-135.42-109.78-245.19-245.19-245.19zm0 26.297c120.9 0 218.9 98 218.9 218.9s-98 218.9-218.9 218.9-218.93-98-218.93-218.9 98.03-218.9 218.93-218.9z"
       stroke-opacity="0.31"
       stroke="#000"
       stroke-width="4.904"
       fill="#fff" />
  </g>
  <text
     id="text20"
     font-size="129.23"
     line-height="125%"
     y="231.36"
     x="729.64"
     font-family="Gentium Book Basic"
     word-spacing="0"
     letter-spacing="0">
    <tspan
       id="tspan22"
       y="231.36"
       x="729.64" />
  </text>
  <text
     id="text24"
     font-size="46.954"
     transform="scale(4.0128 .2492)"
     y="579.25"
     x="378.91"
     font-family="Arial"
     text-anchor="middle" />
  <text
     id="text26"
     font-size="129.23"
     line-height="125%"
     y="151.36"
     x="1310.91"
     font-family="Gentium Book Basic"
     word-spacing="0"
     letter-spacing="0">
    <tspan
       id="tspan28"
       y="151.36"
       x="1310.91" />
  </text>
  <text
     id="text30"
     font-size="46.954"
     transform="scale(4.0128 .2492)"
     y="258.22"
     x="523.76"
     font-family="Arial"
     text-anchor="middle" />
  <text
     id="text32"
     font-size="129.23"
     line-height="125%"
     y="-29.901"
     x="239.33"
     font-family="Gentium Book Basic"
     word-spacing="0"
     letter-spacing="0">
    <tspan
       id="tspan34"
       y="-29.901"
       x="239.33" />
  </text>
  <text
     id="text36"
     font-size="46.954"
     transform="scale(4.0128 .2492)"
     y="-469.14"
     x="256.72"
     font-family="Arial"
     text-anchor="middle" />
  <text
     id="text38"
     font-size="129.23"
     line-height="125%"
     y="-246.37"
     x="1337.38"
     font-family="Gentium Book Basic"
     word-spacing="0"
     letter-spacing="0">
    <tspan
       id="tspan40"
       y="-246.37"
       x="1337.38" />
  </text>
  <text
     id="text42"
     font-size="46.954"
     transform="scale(4.0128 .2492)"
     y="-1337.81"
     x="530.36"
     font-family="Arial"
     text-anchor="middle" />
  <text
     id="text44"
     font-size="129.23"
     line-height="125%"
     y="-326.38"
     x="1918.65"
     font-family="Gentium Book Basic"
     word-spacing="0"
     letter-spacing="0">
    <tspan
       id="tspan46"
       y="-326.38"
       x="1918.65" />
  </text>
  <text
     id="text48"
     font-size="46.954"
     transform="scale(4.0128 .2492)"
     y="-1658.85"
     x="675.21"
     font-family="Arial"
     text-anchor="middle" />
  <text
     id="text50"
     font-size="129.23"
     line-height="125%"
     y="-798.78"
     x="1529.53"
     font-family="Gentium Book Basic"
     word-spacing="0"
     letter-spacing="0">
    <tspan
       id="tspan52"
       y="-798.78"
       x="1529.53" />
  </text>
  <text
     id="text54"
     font-size="46.954"
     transform="scale(4.0128 .2492)"
     y="-3554.51"
     x="578.24"
     font-family="Arial"
     text-anchor="middle" />
  <text
     id="text56"
     font-size="129.23"
     line-height="125%"
     y="-878.78"
     x="2110.79"
     font-family="Gentium Book Basic"
     word-spacing="0"
     letter-spacing="0">
    <tspan
       id="tspan58"
       y="-878.78"
       x="2110.79" />
  </text>
  <text
     id="text60"
     font-size="46.954"
     transform="scale(4.0128 .2492)"
     y="-3875.54"
     x="723.09"
     font-family="Arial"
     text-anchor="middle" />
  <text
     id="text62"
     font-size="208.33"
     line-height="125%"
     y="535.94"
     x="277.99"
     font-family="Gentium Book Basic"
     word-spacing="0"
     letter-spacing="0">
    <tspan
       id="tspan64"
       y="535.94"
       x="277.99" />
  </text>
  <path
     id="path66"
     fill="#BF9E73"
     d="m286.8 129.63c-20.959 1.597-36.14 15.05-44.807 40.28-12.518 36.458-33.692 58.13-70.893 72.27-21.982 8.352-29.674 13.949-36.521 27.06-5.52 10.573-6.664 26.08-3.069 39.05 2.393 8.632 14.849 22.891 24.552 27.984 9.188 4.823 26.411 5.415 51.865 1.538 14.918-2.272 18.515-2.399 32.22 0.308 19.299 3.81 37.517 12.999 53.09 26.446 14.41 12.441 20.19 15.466 31.3 17.221 10.786 1.703 19.1 0.618 30.08-3.998 9.766-4.108 20.497-15.07 24.859-25.22 1.621-3.77 3.05-12.03 3.069-18.758 0.041-14.525-4.4-24.467-15.959-37.824-11.278-13.03-19.319-26.06-23.938-38.747-5.492-15.09-6.661-45.33-2.455-64.27 4.72-21.258 0.75-35.931-13.196-49.2-9.804-9.33-17.801-13.08-30.996-14.15-3.237-0.26-6.213-0.228-9.207 0m-20.255 95.94c10.762-0.234 21.912 3.786 30.69 12.301 21.836 21.18 16.646 55.21-10.434 68.883-8.571 4.328-22.51 5.255-32.22 2.153-9.154-2.924-20.13-12.161-25.17-21.526-2.124-3.952-3.036-10.429-3.069-19.07-0.042-10.916 0.801-13.998 5.217-21.526 7.937-13.53 21.15-20.918 34.986-21.22"
     style="fill:#ffffff" />
</svg>
