<?xml version="1.0" encoding="UTF-8" standalone="no"?>
<svg xmlns="http://www.w3.org/2000/svg" height="512" viewBox="0 0 512 512" width="512" version="1.1">
 <metadata id="metadata70"/>
 <path id="path8-0" fill-rule="evenodd" fill="#BF9E73" d="m471.95 253.05c0 120.9-98.006 218.91-218.91 218.91s-218.91-98.006-218.91-218.91 98.006-218.91 218.91-218.91 218.91 98.006 218.91 218.91"/>
 <path id="path11258" opacity="0.25" d="m265.75 124.78c-36.7-0.3-71.97 17.01-95.56 45.31-44.78 51.16-58.96 136.49-15.41 192.5 35.92 36.33 71.98 72.74 108.06 109.16 111.84-4.93 201.83-93.77 208.66-205.09-41.6-41.91-83.22-83.79-124.81-125.57-19.27-15.72-46.02-15.12-69.5-15.65-3.82-0.42-7.64-0.63-11.44-0.66z"/>
 <path id="path10-2" fill-rule="evenodd" fill-opacity="0.067" d="m256 1c-140.83 0-255 114.17-255 255s114.17 255 255 255 255-114.17 255-255-114.17-255-255-255m8.827 44.931c120.9 0 218.9 98 218.9 218.9s-98 218.9-218.9 218.9-218.93-98-218.93-218.9 98.03-218.9 218.93-218.9"/>
 <path id="path14-8" fill-rule="evenodd" fill-opacity="0.129" d="m256 4.43c-138.94 0-251.57 112.63-251.57 251.57s112.63 251.57 251.57 251.57 251.57-112.63 251.57-251.57-112.63-251.57-251.57-251.57m5.885 38.556c120.9 0 218.9 98 218.9 218.9s-98 218.9-218.9 218.9-218.93-98-218.93-218.9 98.03-218.9 218.93-218.9"/>
 <path id="path16-0" fill-rule="evenodd" fill-opacity="0.129" d="m256 8.36c-136.77 0-247.64 110.87-247.64 247.64s110.87 247.64 247.64 247.64 247.64-110.87 247.64-247.64-110.87-247.64-247.64-247.64m2.942 31.691c120.9 0 218.9 98 218.9 218.9s-98 218.9-218.9 218.9-218.93-98-218.93-218.9 98.03-218.9 218.93-218.9"/>
 <path id="path18-2" d="m253.04 7.86c-135.42 0-245.19 109.78-245.19 245.19 0 135.42 109.78 245.19 245.19 245.19 135.42 0 245.19-109.78 245.19-245.19 0-135.42-109.78-245.19-245.19-245.19zm0 26.297c120.9 0 218.9 98 218.9 218.9s-98 218.9-218.9 218.9-218.93-98-218.93-218.9 98.03-218.9 218.93-218.9z" stroke-opacity="0.31" fill-rule="evenodd" stroke="#000" stroke-width="4.904" fill="#fff"/>
 <path id="path874" fill="#fff" d="m230.43 383.22c7.8432-2.1778 22.447-11.173 32.454-19.978l18.193-16.013 3.6648 9.6344c4.7882 12.598 22.607 26.424 34.051 26.424 22.576 0 48.931-18.395 48.931-34.151 0-7.7703-2.0037-9.1529-13.296-9.1529-25.603 0-29.936-19.176-16.397-72.546 7.6316-30.087 8.8448-40.24 5.3155-44.492-6.8953-8.3111-25.181-16.802-36.174-16.802-8.9971 0-10.284 2.4067-16.308 30.51-11.176 52.134-13.584 59.309-24.093 71.802-19.05 22.638-45.713 29.987-63.526 17.51-32.982-23.097-25.643-98.816 12.638-130.37 18.376-15.144 37.76-20.942 70.028-20.942 30.773 0 47.438 5.0618 67.091 20.381 12.331 9.6208 15.196 10.519 17.163 5.3907 3.6897-9.6141-1.772-31.502-11.394-45.659-15.296-22.506-34.26-29.323-81.586-29.323-37.167 0-43.565 1.097-63.474 10.874-58.721 28.835-94.312 102.16-82.931 170.84 9.8692 59.557 49.673 89.936 99.65 76.056z"/>
</svg>
