<?xml version="1.0" encoding="UTF-8" standalone="no"?>
<svg xmlns="http://www.w3.org/2000/svg" height="512" viewBox="0 0 512 512" width="512" version="1.1">
 <metadata id="metadata80"/>
 <g id="g4" fill-rule="evenodd">
  <path id="path6" fill="#BF9E73" d="m471.95 253.05c0 120.9-98.01 218.9-218.9 218.9-120.9 0-218.9-98.01-218.9-218.9 0-120.9 98.01-218.9 218.9-218.9 120.9 0 218.9 98.01 218.9 218.9"/>
  <path id="path8" fill-opacity="0.235" d="m256 106.38c-49.42 0-92.62 26.566-116.19 66.16-5.539 9.305-9.96 19.339-13.156 29.906l1.219 0.344c-0.068 0.221-0.152 0.435-0.219 0.656 0 0 1.196 0.337 1.219 0.344-0.068 0.221-0.152 0.435-0.219 0.656 0 0 1.166 0.337 1.188 0.344-0.064 0.208-0.124 0.416-0.188 0.625 0 0 1.166 0.337 1.188 0.344-0.068 0.22-0.152 0.436-0.219 0.656 0 0 1.196 0.337 1.219 0.344-0.068 0.221-0.152 0.435-0.219 0.656 0 0 1.196 0.337 1.219 0.344-0.068 0.221-0.152 0.435-0.219 0.656 0 0 1.196 0.337 1.219 0.344-0.068 0.221-0.152 0.435-0.219 0.656 0 0 1.196 0.337 1.219 0.344-0.068 0.221-0.152 0.435-0.219 0.656 0 0 1.166 0.337 1.188 0.344-0.064 0.208-0.124 0.416-0.188 0.625 0 0 1.166 0.337 1.188 0.344-0.068 0.22-0.152 0.436-0.219 0.656 0 0 1.196 0.337 1.219 0.344-0.068 0.221-0.152 0.435-0.219 0.656 0 0 1.196 0.337 1.219 0.344-0.068 0.221-0.152 0.435-0.219 0.656 0 0 1.196 0.337 1.219 0.344-0.068 0.221-0.152 0.435-0.219 0.656 0 0 1.196 0.337 1.219 0.344-0.068 0.221-0.152 0.435-0.219 0.656 0 0 1.166 0.337 1.188 0.344-0.065 0.21-0.124 0.415-0.188 0.625 0 0 1.166 0.337 1.188 0.344-0.068 0.22-0.152 0.436-0.219 0.656 0 0 1.196 0.337 1.219 0.344-0.068 0.221-0.152 0.435-0.219 0.656 0 0 1.196 0.337 1.219 0.344-0.068 0.221-0.152 0.435-0.219 0.656 0 0 1.196 0.337 1.219 0.344-0.068 0.221-0.152 0.435-0.219 0.656 0 0 1.196 0.337 1.219 0.344-0.068 0.221-0.152 0.435-0.219 0.656 0 0 1.196 0.337 1.219 0.344-0.068 0.221-0.152 0.435-0.219 0.656 0 0 1.136 0.338 1.156 0.344-0.064 0.208-0.125 0.417-0.188 0.625 0 0 1.196 0.337 1.219 0.344-0.068 0.22-0.152 0.436-0.219 0.656 0 0 1.196 0.337 1.219 0.344-0.068 0.221-0.152 0.435-0.219 0.656 0 0 1.196 0.337 1.219 0.344-0.068 0.221-0.152 0.435-0.219 0.656 0 0 1.196 0.337 1.219 0.344-0.068 0.221-0.152 0.435-0.219 0.656 0 0 1.196 0.337 1.219 0.344-0.068 0.221-0.152 0.435-0.219 0.656 0 0 1.166 0.337 1.188 0.344-0.064 0.208-0.124 0.416-0.188 0.625 0 0 1.166 0.337 1.188 0.344-0.068 0.22-0.152 0.436-0.219 0.656l1.219 0.344c-0.068 0.221-0.152 0.435-0.219 0.656 0 0 1.196 0.337 1.219 0.344-0.068 0.221-0.152 0.435-0.219 0.656 0 0 1.196 0.337 1.219 0.344-0.068 0.221-0.152 0.435-0.219 0.656 0 0 1.196 0.337 1.219 0.344-0.068 0.221-0.152 0.435-0.219 0.656l1.188 0.344c-0.065 0.21-0.124 0.415-0.188 0.625l1.188 0.344c-0.068 0.22-0.152 0.436-0.219 0.656 0 0 1.196 0.337 1.219 0.344-0.068 0.221-0.152 0.435-0.219 0.656 0 0 1.196 0.337 1.219 0.344-0.068 0.221-0.152 0.435-0.219 0.656l1.219 0.344c-0.068 0.221-0.152 0.435-0.219 0.656 0 0 1.196 0.337 1.219 0.344-0.029 0.095-0.065 0.187-0.094 0.281h-73.53v0.031c-0.001 0.258 0 0.523 0 0.781 0 46.06 18.981 87.69 49.563 117.47 0.145 0.146 0.292 0.292 0.438 0.438 0.323 0.313 0.643 0.628 0.969 0.938 0.005 0.005-0.005 0.026 0 0.031 0.14 0.14 0.297 0.267 0.438 0.406 0.051 0.053 0.105 0.103 0.156 0.156 0.151 0.152 0.286 0.318 0.438 0.469 0.491 0.499 0.972 1.01 1.469 1.5 0.166 0.167 0.333 0.333 0.5 0.5 0.163 0.16 0.336 0.309 0.5 0.469 0.478 0.482 0.954 0.961 1.438 1.438l0.063 0.063c0.269 0.265 0.541 0.518 0.813 0.781 0.01 0.011 0.021 0.021 0.031 0.031 0.031 0.032 0.063 0.062 0.094 0.094 0.157 0.157 0.312 0.313 0.469 0.469 0.051 0.053 0.105 0.103 0.156 0.156 0.151 0.152 0.286 0.318 0.438 0.469 0.491 0.499 0.972 1.01 1.469 1.5 0.166 0.167 0.333 0.333 0.5 0.5 0.131 0.129 0.274 0.246 0.406 0.375 0.508 0.513 1.017 1.025 1.531 1.531l0.063 0.063c0.268 0.263 0.543 0.52 0.813 0.781 0.01 0.011 0.021 0.021 0.031 0.031 0.057 0.057 0.099 0.13 0.156 0.188 0.131 0.129 0.275 0.246 0.406 0.375 0.191 0.184 0.37 0.38 0.563 0.563 0.01 0.011 0.021 0.021 0.031 0.031 0.006 0.006-0.006 0.025 0 0.031l0.031 0.031c0.45 0.458 0.888 0.922 1.344 1.375 0.363 0.366 0.728 0.731 1.094 1.094 0.166 0.167 0.333 0.333 0.5 0.5 0.31 0.305 0.625 0.604 0.938 0.906l0.063 0.063c0.27 0.261 0.541 0.522 0.813 0.781 0.01 0.011 0.021 0.021 0.031 0.031 0.057 0.057 0.099 0.13 0.156 0.188 0.131 0.129 0.275 0.246 0.406 0.375 0.191 0.184 0.37 0.38 0.563 0.563 0.01 0.011 0.021 0.021 0.031 0.031 0.006 0.006-0.006 0.025 0 0.031l0.031 0.031c0.45 0.458 0.888 0.922 1.344 1.375 0.363 0.366 0.728 0.731 1.094 1.094 0.166 0.167 0.333 0.333 0.5 0.5 0.31 0.305 0.625 0.604 0.938 0.906l0.063 0.063c0.27 0.261 0.541 0.522 0.813 0.781 0.01 0.011 0.021 0.021 0.031 0.031 0.057 0.057 0.099 0.13 0.156 0.188 0.131 0.129 0.275 0.246 0.406 0.375 0.191 0.184 0.37 0.38 0.563 0.563 0.005 0.005-0.005 0.026 0 0.031 0.14 0.14 0.297 0.267 0.438 0.406 0.051 0.053 0.105 0.103 0.156 0.156 0.151 0.152 0.286 0.318 0.438 0.469 0.491 0.499 0.972 1.01 1.469 1.5 0.166 0.167 0.333 0.333 0.5 0.5 0.163 0.16 0.336 0.309 0.5 0.469 0.478 0.482 0.954 0.961 1.438 1.438l0.063 0.063c0.269 0.265 0.541 0.518 0.813 0.781 0.01 0.011 0.021 0.021 0.031 0.031 0.031 0.032 0.063 0.062 0.094 0.094 0.157 0.157 0.312 0.313 0.469 0.469 0.051 0.053 0.105 0.103 0.156 0.156 0.151 0.152 0.286 0.318 0.438 0.469 0.491 0.499 0.972 1.01 1.469 1.5 0.166 0.167 0.333 0.333 0.5 0.5 0.131 0.129 0.274 0.246 0.406 0.375 0.508 0.513 1.017 1.025 1.531 1.531l0.063 0.063c0.268 0.263 0.543 0.52 0.813 0.781 0.01 0.011 0.021 0.021 0.031 0.031 0.057 0.057 0.099 0.13 0.156 0.188 0.131 0.129 0.275 0.246 0.406 0.375 0.191 0.184 0.37 0.38 0.563 0.563 0.01 0.011 0.021 0.021 0.031 0.031 0.006 0.006-0.006 0.025 0 0.031l0.031 0.031c0.45 0.458 0.888 0.922 1.344 1.375 0.363 0.366 0.728 0.731 1.094 1.094 0.166 0.167 0.333 0.333 0.5 0.5 0.31 0.305 0.625 0.604 0.938 0.906l0.063 0.063c0.27 0.261 0.541 0.522 0.813 0.781 0.01 0.011 0.021 0.021 0.031 0.031 0.057 0.057 0.099 0.13 0.156 0.188 0.131 0.129 0.275 0.246 0.406 0.375 0.191 0.184 0.37 0.38 0.563 0.563 0.005 0.005-0.005 0.026 0 0.031 0.14 0.14 0.297 0.267 0.438 0.406 0.051 0.053 0.105 0.103 0.156 0.156 0.151 0.152 0.286 0.318 0.438 0.469 0.491 0.499 0.972 1.01 1.469 1.5 0.166 0.167 0.333 0.333 0.5 0.5 0.163 0.16 0.336 0.309 0.5 0.469 0.478 0.482 0.954 0.961 1.438 1.438l0.063 0.063c0.269 0.265 0.541 0.518 0.813 0.781 0.01 0.011 0.021 0.021 0.031 0.031 0.031 0.032 0.063 0.062 0.094 0.094 0.157 0.157 0.312 0.313 0.469 0.469 0.051 0.053 0.105 0.103 0.156 0.156 0.151 0.152 0.286 0.318 0.438 0.469 0.491 0.499 0.972 1.01 1.469 1.5 0.166 0.167 0.333 0.333 0.5 0.5 0.131 0.129 0.274 0.246 0.406 0.375 0.51 0.515 1.015 1.023 1.531 1.531l0.063 0.063c0.269 0.265 0.541 0.518 0.813 0.781 0.01 0.011 0.021 0.021 0.031 0.031 0.187 0.188 0.374 0.375 0.563 0.563 0.031 0.032 0.063 0.062 0.094 0.094 0.129 0.133 0.245 0.274 0.375 0.406l0.156 0.156c0.45 0.458 0.888 0.922 1.344 1.375 0.363 0.366 0.728 0.731 1.094 1.094 0.166 0.167 0.333 0.333 0.5 0.5 0.31 0.305 0.625 0.604 0.938 0.906l0.063 0.063c0.27 0.261 0.541 0.522 0.813 0.781 0.01 0.011 0.021 0.021 0.031 0.031 0.057 0.057 0.099 0.13 0.156 0.188 0.131 0.129 0.275 0.246 0.406 0.375 0.191 0.184 0.37 0.38 0.563 0.563 0.01 0.011 0.021 0.021 0.031 0.031 0.006 0.006-0.006 0.025 0 0.031l0.031 0.031c0.45 0.458 0.888 0.922 1.344 1.375 0.363 0.366 0.728 0.731 1.094 1.094 0.166 0.167 0.333 0.333 0.5 0.5 0.31 0.305 0.625 0.604 0.938 0.906l0.063 0.063c0.27 0.261 0.541 0.522 0.813 0.781 0.01 0.011 0.021 0.021 0.031 0.031 0.057 0.057 0.099 0.13 0.156 0.188 0.131 0.129 0.275 0.246 0.406 0.375 0.191 0.184 0.37 0.38 0.563 0.563 0.005 0.005-0.005 0.026 0 0.031 0.14 0.14 0.297 0.267 0.438 0.406 0.051 0.053 0.105 0.103 0.156 0.156 0.151 0.152 0.286 0.318 0.438 0.469 0.491 0.499 0.972 1.01 1.469 1.5 0.166 0.167 0.333 0.333 0.5 0.5 0.163 0.16 0.336 0.309 0.5 0.469 0.478 0.482 0.954 0.961 1.438 1.438l0.063 0.063c0.269 0.265 0.541 0.518 0.813 0.781 0.01 0.011 0.021 0.021 0.031 0.031 0.031 0.032 0.063 0.062 0.094 0.094 0.157 0.157 0.312 0.313 0.469 0.469 0.051 0.053 0.105 0.103 0.156 0.156 0.151 0.152 0.286 0.318 0.438 0.469 0.491 0.499 0.972 1.01 1.469 1.5 0.166 0.167 0.333 0.333 0.5 0.5 0.131 0.129 0.274 0.246 0.406 0.375 0.508 0.513 1.017 1.025 1.531 1.531l0.063 0.063c0.268 0.263 0.543 0.52 0.813 0.781 0.01 0.011 0.021 0.021 0.031 0.031 0.057 0.057 0.099 0.13 0.156 0.188 0.131 0.129 0.275 0.246 0.406 0.375 0.191 0.184 0.37 0.38 0.563 0.563 0.01 0.011 0.021 0.021 0.031 0.031 0.006 0.006-0.006 0.025 0 0.031l0.031 0.031c0.45 0.458 0.888 0.922 1.344 1.375 0.363 0.366 0.728 0.731 1.094 1.094 0.166 0.167 0.333 0.333 0.5 0.5 0.31 0.305 0.625 0.604 0.938 0.906l0.063 0.063c0.27 0.261 0.541 0.522 0.813 0.781 0.01 0.011 0.021 0.021 0.031 0.031 0.057 0.057 0.099 0.13 0.156 0.188 0.131 0.129 0.275 0.246 0.406 0.375 0.191 0.184 0.37 0.38 0.563 0.563 0.005 0.005-0.005 0.026 0 0.031 0.14 0.14 0.297 0.267 0.438 0.406 0.051 0.053 0.105 0.103 0.156 0.156 0.151 0.152 0.286 0.318 0.438 0.469 0.491 0.499 0.972 1.01 1.469 1.5 0.166 0.167 0.333 0.333 0.5 0.5 0.163 0.16 0.336 0.309 0.5 0.469 0.478 0.482 0.954 0.961 1.438 1.438l0.063 0.063c0.269 0.265 0.541 0.518 0.813 0.781 0.01 0.011 0.021 0.021 0.031 0.031 0.031 0.032 0.063 0.062 0.094 0.094 0.157 0.157 0.312 0.313 0.469 0.469 0.051 0.053 0.105 0.103 0.156 0.156 0.151 0.152 0.286 0.318 0.438 0.469 0.491 0.499 0.972 1.01 1.469 1.5 0.166 0.167 0.333 0.333 0.5 0.5 0.163 0.16 0.336 0.309 0.5 0.469 0.478 0.482 0.954 0.961 1.438 1.438l0.063 0.063c0.269 0.265 0.541 0.518 0.813 0.781 0.01 0.011 0.021 0.021 0.031 0.031 0.187 0.188 0.374 0.375 0.563 0.563 0.031 0.032 0.063 0.062 0.094 0.094 0.129 0.133 0.245 0.274 0.375 0.406l0.156 0.156c0.482 0.49 0.949 0.985 1.438 1.469 0.166 0.167 0.333 0.333 0.5 0.5 0.131 0.129 0.274 0.246 0.406 0.375 0.508 0.513 1.017 1.025 1.531 1.531l0.063 0.063c0.268 0.263 0.543 0.52 0.813 0.781 0.01 0.011 0.021 0.021 0.031 0.031 0.057 0.057 0.099 0.13 0.156 0.188 0.131 0.129 0.275 0.246 0.406 0.375 0.191 0.184 0.37 0.38 0.563 0.563 0.01 0.011 0.021 0.021 0.031 0.031 0.006 0.006-0.006 0.025 0 0.031l0.031 0.031c0.45 0.458 0.888 0.922 1.344 1.375 0.363 0.366 0.728 0.731 1.094 1.094 0.166 0.167 0.333 0.333 0.5 0.5 0.31 0.305 0.625 0.604 0.938 0.906l0.063 0.063c0.27 0.261 0.541 0.522 0.813 0.781 0.01 0.011 0.021 0.021 0.031 0.031 0.031 0.031 0.067 0.059 0.094 0.094 115.9-0.73 210.43-91.52 217.13-205.91l-0.125-0.125c-0.332-0.336-0.665-0.668-1-1-0.332-0.336-0.665-0.668-1-1-0.329-0.332-0.668-0.671-1-1-0.65-0.658-1.305-1.325-1.969-1.969-0.166-0.168-0.333-0.333-0.5-0.5-0.168-0.164-0.331-0.336-0.5-0.5-0.847-0.875-1.724-1.711-2.594-2.563-0.786-0.802-1.569-1.624-2.375-2.406-0.166-0.168-0.333-0.333-0.5-0.5-0.168-0.164-0.331-0.336-0.5-0.5-0.332-0.336-0.665-0.668-1-1-0.332-0.336-0.665-0.668-1-1-0.332-0.336-0.665-0.668-1-1-0.65-0.658-1.305-1.325-1.969-1.969-0.166-0.168-0.333-0.333-0.5-0.5-0.168-0.164-0.331-0.336-0.5-0.5-0.332-0.336-0.665-0.668-1-1-0.332-0.336-0.665-0.668-1-1-0.332-0.336-0.665-0.668-1-1-0.329-0.332-0.668-0.671-1-1-0.322-0.325-0.644-0.647-0.969-0.969-0.332-0.336-0.665-0.668-1-1-0.332-0.336-0.665-0.668-1-1-0.332-0.336-0.665-0.668-1-1-0.332-0.336-0.665-0.668-1-1-0.329-0.332-0.668-0.671-1-1-0.65-0.658-1.305-1.325-1.969-1.969-0.166-0.168-0.333-0.333-0.5-0.5-0.168-0.164-0.331-0.336-0.5-0.5-0.847-0.875-1.724-1.711-2.594-2.563-0.786-0.802-1.569-1.624-2.375-2.406-0.166-0.168-0.333-0.333-0.5-0.5-0.168-0.164-0.331-0.336-0.5-0.5-0.332-0.336-0.665-0.668-1-1-0.332-0.336-0.665-0.668-1-1-0.332-0.336-0.665-0.668-1-1-0.329-0.332-0.668-0.671-1-1-0.322-0.325-0.644-0.647-0.969-0.969-0.332-0.336-0.665-0.668-1-1-0.332-0.336-0.665-0.668-1-1-0.332-0.336-0.665-0.668-1-1-0.332-0.336-0.665-0.668-1-1-0.329-0.332-0.668-0.671-1-1-0.322-0.325-0.644-0.647-0.969-0.969-0.332-0.336-0.665-0.668-1-1-0.166-0.168-0.333-0.333-0.5-0.5-0.168-0.164-0.331-0.336-0.5-0.5-0.847-0.875-1.724-1.711-2.594-2.563-0.786-0.802-1.569-1.624-2.375-2.406-0.166-0.168-0.333-0.333-0.5-0.5-0.168-0.164-0.331-0.336-0.5-0.5-0.332-0.336-0.665-0.668-1-1-0.332-0.336-0.665-0.668-1-1-0.332-0.336-0.665-0.668-1-1-0.65-0.658-1.305-1.325-1.969-1.969-0.166-0.168-0.333-0.333-0.5-0.5-0.168-0.164-0.331-0.336-0.5-0.5-0.332-0.336-0.665-0.668-1-1-0.332-0.336-0.665-0.668-1-1-0.332-0.336-0.665-0.668-1-1-0.329-0.332-0.668-0.671-1-1-0.322-0.325-0.644-0.647-0.969-0.969-0.332-0.336-0.665-0.668-1-1-0.332-0.336-0.665-0.668-1-1-0.332-0.336-0.665-0.668-1-1-0.332-0.336-0.665-0.668-1-1-0.329-0.332-0.668-0.671-1-1-0.65-0.658-1.305-1.325-1.969-1.969-0.166-0.168-0.333-0.333-0.5-0.5-0.168-0.164-0.331-0.336-0.5-0.5-0.847-0.875-1.724-1.711-2.594-2.563-0.786-0.802-1.569-1.624-2.375-2.406-0.166-0.168-0.333-0.333-0.5-0.5-0.168-0.164-0.331-0.336-0.5-0.5-0.332-0.336-0.665-0.668-1-1-0.332-0.336-0.665-0.668-1-1-0.332-0.336-0.665-0.668-1-1-0.329-0.332-0.668-0.671-1-1-0.322-0.325-0.644-0.647-0.969-0.969-0.332-0.336-0.665-0.668-1-1-0.332-0.336-0.665-0.668-1-1-0.332-0.336-0.665-0.668-1-1-0.332-0.336-0.665-0.668-1-1-0.329-0.332-0.668-0.671-1-1-0.322-0.325-0.644-0.647-0.969-0.969-0.332-0.336-0.665-0.668-1-1-0.166-0.168-0.333-0.333-0.5-0.5-0.168-0.164-0.331-0.336-0.5-0.5-0.847-0.875-1.724-1.711-2.594-2.563-0.786-0.802-1.569-1.624-2.375-2.406-0.166-0.168-0.333-0.333-0.5-0.5-0.168-0.164-0.331-0.336-0.5-0.5-0.332-0.336-0.665-0.668-1-1-0.332-0.336-0.665-0.668-1-1-0.332-0.336-0.665-0.668-1-1-0.65-0.658-1.305-1.325-1.969-1.969-0.166-0.168-0.333-0.333-0.5-0.5-0.168-0.164-0.331-0.336-0.5-0.5-0.332-0.336-0.665-0.668-1-1-0.332-0.336-0.665-0.668-1-1-0.332-0.336-0.665-0.668-1-1-0.329-0.332-0.668-0.671-1-1-0.322-0.325-0.644-0.647-0.969-0.969-0.332-0.336-0.665-0.668-1-1-0.332-0.336-0.665-0.668-1-1-0.332-0.336-0.665-0.668-1-1-0.332-0.336-0.665-0.668-1-1-0.329-0.332-0.668-0.671-1-1-0.65-0.658-1.305-1.325-1.969-1.969-0.166-0.168-0.333-0.333-0.5-0.5-0.168-0.164-0.331-0.336-0.5-0.5-24.558-25.361-58.949-41.12-97.03-41.12"/>
  <path id="path10" fill-opacity="0.067" d="m256 1c-140.83 0-255 114.17-255 255s114.17 255 255 255 255-114.17 255-255-114.17-255-255-255m8.827 44.931c120.9 0 218.9 98 218.9 218.9s-98 218.9-218.9 218.9-218.93-98-218.93-218.9 98.03-218.9 218.93-218.9"/>
  <g id="g12" fill-opacity="0.129">
   <path id="path14" d="m256 4.433c-138.94 0-251.57 112.63-251.57 251.57s112.63 251.57 251.57 251.57 251.57-112.63 251.57-251.57-112.63-251.57-251.57-251.57m5.885 38.556c120.9 0 218.9 98 218.9 218.9s-98 218.9-218.9 218.9-218.93-98-218.93-218.9 98.03-218.9 218.93-218.9"/>
   <path id="path16" d="m256 8.356c-136.77 0-247.64 110.87-247.64 247.64s110.87 247.64 247.64 247.64 247.64-110.87 247.64-247.64-110.87-247.64-247.64-247.64m2.942 31.691c120.9 0 218.9 98 218.9 218.9s-98 218.9-218.9 218.9-218.93-98-218.93-218.9 98.03-218.9 218.93-218.9"/>
  </g>
  <path id="path18" d="m253.04 7.859c-135.42 0-245.19 109.78-245.19 245.19 0 135.42 109.78 245.19 245.19 245.19 135.42 0 245.19-109.78 245.19-245.19 0-135.42-109.78-245.19-245.19-245.19zm0 26.297c120.9 0 218.9 98 218.9 218.9s-98 218.9-218.9 218.9-218.93-98-218.93-218.9 98.03-218.9 218.93-218.9z" stroke-opacity="0.31" stroke="#000" stroke-width="4.904" fill="#fff"/>
 </g>
 <text id="text20" font-size="129.23" line-height="125%" y="231.36" x="729.64" font-family="Gentium Book Basic" word-spacing="0" letter-spacing="0"><tspan id="tspan22" y="231.36" x="729.64"/>
 </text>
 <text id="text24" font-size="46.954" transform="scale(4.0128 .2492)" y="579.25" x="378.91" font-family="Arial" text-anchor="middle"/>
 <text id="text26" font-size="129.23" line-height="125%" y="151.36" x="1310.91" font-family="Gentium Book Basic" word-spacing="0" letter-spacing="0"><tspan id="tspan28" y="151.36" x="1310.91"/>
 </text>
 <text id="text30" font-size="46.954" transform="scale(4.0128 .2492)" y="258.22" x="523.76" font-family="Arial" text-anchor="middle"/>
 <text id="text32" font-size="129.23" line-height="125%" y="-29.901" x="239.33" font-family="Gentium Book Basic" word-spacing="0" letter-spacing="0"><tspan id="tspan34" y="-29.901" x="239.33"/>
 </text>
 <text id="text36" font-size="46.954" transform="scale(4.0128 .2492)" y="-469.14" x="256.72" font-family="Arial" text-anchor="middle"/>
 <text id="text38" font-size="129.23" line-height="125%" y="-246.37" x="1337.38" font-family="Gentium Book Basic" word-spacing="0" letter-spacing="0"><tspan id="tspan40" y="-246.37" x="1337.38"/>
 </text>
 <text id="text42" font-size="46.954" transform="scale(4.0128 .2492)" y="-1337.81" x="530.36" font-family="Arial" text-anchor="middle"/>
 <text id="text44" font-size="129.23" line-height="125%" y="-326.38" x="1918.65" font-family="Gentium Book Basic" word-spacing="0" letter-spacing="0"><tspan id="tspan46" y="-326.38" x="1918.65"/>
 </text>
 <text id="text48" font-size="46.954" transform="scale(4.0128 .2492)" y="-1658.85" x="675.21" font-family="Arial" text-anchor="middle"/>
 <text id="text50" font-size="129.23" line-height="125%" y="-798.78" x="1529.53" font-family="Gentium Book Basic" word-spacing="0" letter-spacing="0"><tspan id="tspan52" y="-798.78" x="1529.53"/>
 </text>
 <text id="text54" font-size="46.954" transform="scale(4.0128 .2492)" y="-3554.51" x="578.24" font-family="Arial" text-anchor="middle"/>
 <text id="text56" font-size="129.23" line-height="125%" y="-878.78" x="2110.79" font-family="Gentium Book Basic" word-spacing="0" letter-spacing="0"><tspan id="tspan58" y="-878.78" x="2110.79"/>
 </text>
 <text id="text60" font-size="46.954" transform="scale(4.0128 .2492)" y="-3875.54" x="723.09" font-family="Arial" text-anchor="middle"/>
 <g id="g62" font-family="Gentium Book Basic" font-size="208.33" line-height="125%" word-spacing="0" letter-spacing="0">
  <text id="text64" y="535.94" x="277.99"><tspan id="tspan66" y="535.94" x="277.99"/>
  </text>
  <text id="text68" y="470.64" x="-1767.82"><tspan id="tspan70" y="470.64" x="-1767.82"/>
  </text>
 </g>
 <text id="text72" font-size="75.7" transform="scale(4.0128 .2492)" y="1325.7" x="-122.81" font-family="Arial" text-anchor="middle"/>
 <path id="path74" d="m256 106.37c-49.42 0-92.62 26.587-116.19 66.18-5.539 9.305-9.962 19.321-13.159 29.888l129.96 38.456h-164.56c-0.001 0.258 0 0.532 0 0.791 0 90.55 73.4 163.95 163.95 163.95s163.95-73.4 163.95-163.95c0-0.258 0.001-0.532 0-0.791h-28.817c-0.116-24.979-7.02-48.31-18.948-68.34-23.567-39.59-66.767-66.18-116.19-66.18" fill-rule="evenodd" fill="#fff"/>
</svg>
