<?xml version="1.0" encoding="UTF-8" standalone="no"?>
<svg xmlns="http://www.w3.org/2000/svg" height="512" viewBox="0 0 512 512" width="512" version="1.1">
 <metadata id="metadata74"/>
 <g id="g4" transform="translate(0,-540.36)">
  <path id="path6" d="m471.95 793.41c0 120.9-98.01 218.9-218.9 218.9-120.9 0-218.9-98.01-218.9-218.9 0-120.9 98.01-218.9 218.9-218.9 120.9 0 218.9 98.01 218.9 218.9" fill-rule="evenodd" fill="#BF9E73"/>
    <g id="g10" fill-rule="evenodd">
   <path id="path12" fill-opacity="0.067" d="m256 541.36c-140.83 0-255 114.17-255 255s114.17 255 255 255 255-114.17 255-255-114.17-255-255-255m8.827 44.931c120.9 0 218.9 98 218.9 218.9s-98 218.9-218.9 218.9-218.93-98-218.93-218.9 98.03-218.9 218.93-218.9"/>
   <g id="g14" fill-opacity="0.129">
    <path id="path16" d="m256 544.79c-138.94 0-251.57 112.63-251.57 251.57s112.63 251.54 251.57 251.54 251.57-112.6 251.57-251.54-112.63-251.57-251.57-251.57m5.885 38.556c120.9 0 218.9 98 218.9 218.9s-98 218.9-218.9 218.9-218.93-98-218.93-218.9 98.03-218.9 218.93-218.9"/>
    <path id="path18" d="m256 548.72c-136.77 0-247.64 110.87-247.64 247.64s110.87 247.64 247.64 247.64 247.64-110.87 247.64-247.64-110.87-247.64-247.64-247.64m2.942 31.691c120.9 0 218.9 98 218.9 218.9s-98 218.9-218.9 218.9-218.93-98-218.93-218.9 98.03-218.9 218.93-218.9"/>
   </g>
   <path id="path20" d="m253.04 548.22c-135.42 0-245.19 109.78-245.19 245.19 0 135.42 109.78 245.19 245.19 245.19 135.42 0 245.19-109.78 245.19-245.19 0-135.42-109.78-245.19-245.19-245.19zm0 26.297c120.9 0 218.9 98 218.9 218.9s-98 218.9-218.9 218.9-218.93-98-218.93-218.9 98.03-218.9 218.93-218.9z" stroke-opacity="0.31" stroke="#000" stroke-width="4.904" fill="#fff"/>
  </g>
  <path id="path68" fill="#fff" d="m360.5 915.71c0 11.816-9.609 21.428-21.424 21.428h-166.14c-11.826 0-21.431-9.616-21.431-21.428 0-1.146 0.212-2.284 0.62-3.356l57.55-150.81c0.02-0.239 0.054-0.478 0.084-0.714v-86.42h-6.799c-5.205 0-9.417-4.218-9.417-9.42s4.211-9.42 9.417-9.42h16.216c5.205 0 9.424 4.218 9.424 9.42v96.56c0 0.542-0.047 1.078-0.138 1.614 0 1.149-0.276 2.695-0.691 3.763l-34.662 90.84h124.98l-35.811-90.73c-0.387-0.977-0.606-2.01-0.65-3.056l-0.077-0.569c-0.04-0.371-0.061-0.741-0.061-1.112v-97.31c0-5.202 4.211-9.42 9.417-9.42h16.64c5.205 0 9.417 4.218 9.417 9.42s-4.211 9.42-9.417 9.42h-7.227v87.04l59.52 150.8c0.435 1.105 0.66 2.274 0.66 3.46m-122.74-78.93c0-3.895 3.164-7.07 7.06-7.07 3.898 0 7.07 3.167 7.07 7.07 0 3.891-3.17 7.07-7.07 7.07-3.898 0-7.06-3.174-7.06-7.07m4.703 0c0 1.297 1.058 2.352 2.355 2.352s2.355-1.055 2.355-2.352c0-1.301-1.058-2.355-2.355-2.355s-2.355 1.055-2.355 2.355m31.791-7.07c0-3.895 3.17-7.07 7.07-7.07 3.898 0 7.06 3.167 7.06 7.07 0 3.891-3.164 7.07-7.06 7.07-3.898 0-7.07-3.17-7.07-7.07m4.71 0c0 1.297 1.058 2.352 2.355 2.352s2.355-1.055 2.355-2.352c0-1.3-1.058-2.355-2.355-2.355s-2.355 1.058-2.355 2.355m-24.339-23.547c0-5.411 4.403-9.814 9.818-9.814 5.407 0 9.811 4.403 9.811 9.814 0 5.407-4.403 9.814-9.811 9.814-5.418 0-9.818-4.403-9.818-9.814m4.71 0c0 2.813 2.291 5.104 5.108 5.104 2.81 0 5.108-2.291 5.108-5.104 0-2.817-2.298-5.108-5.108-5.108-2.817 0-5.108 2.291-5.108 5.108"/>
 </g>
</svg>
