<?xml version="1.0" encoding="UTF-8" standalone="no"?>
<svg xmlns="http://www.w3.org/2000/svg" height="512" viewBox="0 0 512 512" width="512" version="1.1">
 <metadata id="metadata82"/>
 <g id="g16" fill-rule="evenodd">
  <path id="path18" fill="#BF9E73" d="m471.95 253.05c0 120.9-98.01 218.91-218.91 218.91s-218.91-98.01-218.91-218.91 98.01-218.91 218.91-218.91 218.91 98.01 218.91 218.91"/>
  <path id="path20" fill-opacity="0.067" d="m256 1c-140.83 0-255 114.17-255 255s114.17 255 255 255 255-114.17 255-255-114.17-255-255-255m8.827 44.931c120.9 0 218.9 98 218.9 218.9s-98 218.9-218.9 218.9-218.93-98-218.93-218.9 98.03-218.9 218.93-218.9"/>
  <g id="g22" fill-opacity="0.129">
   <path id="path24" d="m256 4.43c-138.94 0-251.57 112.63-251.57 251.57s112.63 251.57 251.57 251.57 251.57-112.63 251.57-251.57-112.63-251.57-251.57-251.57m5.885 38.556c120.9 0 218.9 98 218.9 218.9s-98 218.9-218.9 218.9-218.93-98-218.93-218.9 98.03-218.9 218.93-218.9"/>
   <path id="path26" d="m256 8.36c-136.77 0-247.64 110.87-247.64 247.64s110.87 247.64 247.64 247.64 247.64-110.87 247.64-247.64-110.87-247.64-247.64-247.64m2.942 31.691c120.9 0 218.9 98 218.9 218.9s-98 218.9-218.9 218.9-218.93-98-218.93-218.9 98.03-218.9 218.93-218.9"/>
  </g>
  <path id="path28" d="m253.04 7.86c-135.42 0-245.19 109.78-245.19 245.19 0 135.42 109.78 245.19 245.19 245.19 135.42 0 245.19-109.78 245.19-245.19 0-135.42-109.78-245.19-245.19-245.19zm0 26.297c120.9 0 218.9 98 218.9 218.9s-98 218.9-218.9 218.9-218.93-98-218.93-218.9 98.03-218.9 218.93-218.9z" stroke-opacity="0.31" stroke="#000" stroke-width="4.904" fill="#fff"/>
 </g>
 <path id="path76" opacity="0.25" d="m299 103.19c-12.336 0.416-23.13 5.03-28.16 13.06-5.335 8.526-2.797 18.765 5.406 26.969l4.938 4.938-20.781 22.25c-7.769-4.719-16.206-8.751-25.406-11.813-5.677-1.889-11.382-3.352-17.06-4.406l-40.72-40.69c-2.758-2.758-6.463-5.16-10.969-6.906-13.339-5.169-28.496-2.559-33.813 5.938-3.532 5.644-1.846 12.436 3.594 17.875l26.469 26.469c-25.317 7.808-45.506 24.719-53.844 48.25-10.164 28.685-0.206 60.11 23.13 83.44l176.41 176.38c94.2-24.448 163.75-110.03 163.75-211.87 0-0.689-0.025-1.375-0.031-2.063l-133.47-133.47c-4.15-4.15-9.74-7.787-16.5-10.406-6.621-2.566-13.568-3.826-20.16-3.938-0.941-0.016-1.856-0.032-2.781 0"/>
 <path id="path78" fill="#fff" d="m301.78 103.17c-0.941-0.016-1.874-0.005-2.799 0.027-12.336 0.416-23.12 5.03-28.15 13.06-6.368 10.176-1.514 22.756 10.795 31.454l-21.22 22.684c-7.769-4.719-16.229-8.747-25.429-11.808-19.498-6.489-39.31-7.939-57.39-5.118l-7.863-14.714c4.823-1.371 8.833-3.928 11.06-7.49 5.316-8.496-1.214-19.514-14.554-24.683-13.339-5.169-28.483-2.552-33.799 5.944s1.188 19.594 14.527 24.763c4.416 1.711 9.05 2.577 13.434 2.639l8.13 15.274c-28.12 6.865-50.879 24.555-59.868 49.926-15.514 43.785 15.849 93.92 70.1 111.98 37.806 12.582 76.74 6.258 102.12-13.541l22.391 21.298c-2.696 2.77-5.065 5.809-6.85 9.329-11.742 23.15 2.631 53.38 32.09 67.47 29.463 14.09 62.947 6.788 74.69-16.367 11.742-23.15-2.63-53.38-32.09-67.47-21.596-10.326-45.32-9.106-61.07 1.386l-22.577-21.404c7.833-7.638 13.929-16.752 17.646-27.24 12.01-33.9-4.142-71.67-37.21-95.35l21.564-22.95c1.065 0.492 2.174 0.948 3.305 1.386 20.18 7.82 43.06 3.79 51.1-9.06 8.04-12.852-1.758-29.658-21.938-37.478-6.621-2.566-13.563-3.833-20.15-3.945m-98.95 80.61c4.463-0.018 8.923 0.114 13.408 0.4 16.266 1.037 28.06 4.164 34.945 9.543 7.405 5.695 10.266 14.775 8.103 27.802l-9.543 57.58-40.596-9.116 4.372-15.407c-6.615 5.14-13.4 8.536-20.258 10.129-6.795 1.522-14.25 1.354-22.2-0.48-10.34-2.384-17.13-7.083-20.551-13.888-3.159-6.47-2.683-13.548 1.173-21.19 4.449-8.819 10.837-14.544 19.379-17.539 8.603-2.993 20.455-3.647 36.25-1.866l18.392 2.079 0.533-1.893c1.066-3.747-0.118-6.597-3.492-8.61-3.277-2-8.807-3.338-16.473-4.02-6.05-0.542-11.735-0.589-17.11-0.16-5.309 0.423-10.417 1.311-15.354 2.666l7.117-14.874c5.812-0.597 11.633-0.947 17.459-1.066 1.486-0.039 2.964-0.074 4.452-0.08m-5.144 40.28c-3.438-0.046-6.361 0.344-8.796 1.173-3.838 1.334-6.48 3.76-7.943 7.357-1.375 3.378-1.175 6.317 0.613 8.796 1.909 2.495 5.282 4.227 10.182 5.145 6.243 1.168 12.268 0.152 17.913-3.039 5.618-3.221 9.239-7.727 10.849-13.381l0.88-3.092-16.953-2.399c-2.44-0.345-4.681-0.532-6.744-0.56"/>
</svg>
