<?xml version="1.0" encoding="UTF-8" standalone="no"?>
<svg xmlns:dc="http://purl.org/dc/elements/1.1/" xmlns:cc="http://creativecommons.org/ns#" xmlns:rdf="http://www.w3.org/1999/02/22-rdf-syntax-ns#" xmlns:svg="http://www.w3.org/2000/svg" xmlns="http://www.w3.org/2000/svg" xmlns:sodipodi="http://sodipodi.sourceforge.net/DTD/sodipodi-0.dtd" xmlns:inkscape="http://www.inkscape.org/namespaces/inkscape" height="512" viewBox="0 0 512 512" width="512" version="1.1" id="svg2" inkscape:version="0.91 r" sodipodi:docname="android-sdk.svg">
<defs id="defs17" />
<sodipodi:namedview pagecolor="#ffffff" bordercolor="#666666" borderopacity="1" objecttolerance="10" gridtolerance="10" guidetolerance="10" inkscape:pageopacity="0" inkscape:pageshadow="2" inkscape:window-width="1680" inkscape:window-height="1022" id="namedview15" showgrid="false" inkscape:zoom="1.3037281" inkscape:cx="172.48005" inkscape:cy="244.919" inkscape:window-x="1680" inkscape:window-y="0" inkscape:window-maximized="1" inkscape:current-layer="svg2" />
<metadata id="metadata28">
<rdf:RDF>
<cc:Work rdf:about="">
<dc:format>image/svg+xml</dc:format>
<dc:type rdf:resource="http://purl.org/dc/dcmitype/StillImage" />
<dc:title></dc:title>
</cc:Work>
</rdf:RDF>
</metadata>
<path style="fill:#BF9E73;fill-rule:evenodd;fill-opacity:1" inkscape:connector-curvature="0" d="m 471.95,253.05 c 0,120.9 -98.01,218.9 -218.9,218.9 -120.9,0 -218.9,-98.01 -218.9,-218.9 0,-120.9 98.01,-218.9 218.9,-218.9 120.9,0 218.9,98.01 218.9,218.9" id="path6" />
<path inkscape:connector-curvature="0" style="fill:#ffffff" d="m 173.40519,155.04498 c -0.35,0.004 -0.712,0.071 -1.063,0.188 -1.855,0.627 -2.844,2.638 -2.219,4.5 l 5.125,15.16 2.281,6.75 2.313,6.844 c -32.81,5.766 -59.42,26.2 -67.31,55.656 l 192.38,51.563 c 7.89,-29.447 -4.938,-60.48 -30.469,-81.87 l 5.438,-4.75 5.344,-4.719 12.03,-10.563 c 1.473,-1.3 1.596,-3.524 0.313,-5 -1.312,-1.484 -3.55,-1.649 -5.03,-0.344 l -12.875,11.313 -5.406,4.781 -5.5,4.813 c -11.13,-8.141 -24.25,-14.55 -38.875,-18.469 -14.61,-3.915 -29.17,-4.923 -42.875,-3.438 l -2.344,-6.906 -2.281,-6.844 -5.5,-16.219 c -0.391,-1.164 -1.334,-2.01 -2.438,-2.313 -0.331,-0.091 -0.682,-0.129 -1.031,-0.125 m 3.781,55.38 c 1.051,-0.041 2.118,0.057 3.188,0.344 5.692,1.525 9.06,7.401 7.531,13.09 -1.525,5.692 -7.339,9.06 -13.03,7.531 -5.707,-1.529 -9.119,-7.37 -7.594,-13.06 1.239,-4.625 5.351,-7.727 9.906,-7.906 m 178.22,9.75 c -9.09,0.359 -17.268,6.551 -19.75,15.813 l -23.625,88.19 c -3.049,11.378 3.702,23.07 15.09,26.13 11.378,3.049 23.08,-3.716 26.13,-15.09 l 23.625,-88.19 c 3.052,-11.392 -3.685,-23.08 -15.06,-26.12 -2.136,-0.572 -4.308,-0.802 -6.406,-0.719 m -95.78,12.344 c 1.049,-0.042 2.151,0.058 3.219,0.344 5.706,1.529 9.06,7.401 7.531,13.09 -1.525,5.692 -7.356,9.06 -13.06,7.531 -5.692,-1.525 -9.09,-7.37 -7.563,-13.06 1.239,-4.625 5.329,-7.725 9.875,-7.906 m -191.530004,15.438 c -9.09,0.36 -17.3,6.551 -19.781,15.813 l -10.219,38.16 c 5.207,23.429 14.14,45.44 26.19,65.38 0.693,-1.34 1.25,-2.766 1.656,-4.281 l 23.625004,-88.19 c 3.052,-11.392 -3.709004,-23.11 -15.090004,-26.16 -2.135,-0.572 -4.277,-0.802 -6.375,-0.719 m 40.750004,9.938 -4.594,17.16 -3.75,13.969 -25.344004,94.56 c 39.837004,54.3 104.090004,89.56 176.590004,89.56 l 0.281,0 c 4.115,-2.931 7.281,-7.249 8.688,-12.5 l 32.19,-120.06 3.719,-13.969 4.594,-17.16 -1.469,-0.406 -189.44,-50.75 -1.469,-0.406" id="path17" />
<path style="fill-opacity:0.06700003;fill-rule:evenodd" inkscape:connector-curvature="0" d="M 256,1 C 115.17,1 1,115.17 1,256 1,396.83 115.17,511 256,511 396.83,511 511,396.83 511,256 511,115.17 396.83,1 256,1 m 8.827,44.931 c 120.9,0 218.9,98 218.9,218.9 0,120.9 -98,218.9 -218.9,218.9 -120.9,0 -218.93,-98 -218.93,-218.9 0,-120.9 98.03,-218.9 218.93,-218.9" id="path8" />
<g style="fill-opacity:0.12900002;fill-rule:evenodd" id="g10">
<path inkscape:connector-curvature="0" d="m 256,4.433 c -138.94,0 -251.57,112.63 -251.57,251.57 0,138.94 112.63,251.57 251.57,251.57 138.94,0 251.57,-112.63 251.57,-251.57 C 507.57,117.063 394.94,4.433 256,4.433 m 5.885,38.556 c 120.9,0 218.9,98 218.9,218.9 0,120.9 -98,218.9 -218.9,218.9 -120.9,0 -218.93,-98 -218.93,-218.9 0,-120.9 98.03,-218.9 218.93,-218.9" id="path12" />
<path inkscape:connector-curvature="0" d="m 256,8.356 c -136.77,0 -247.64,110.87 -247.64,247.64 0,136.77 110.87,247.64 247.64,247.64 136.77,0 247.64,-110.87 247.64,-247.64 C 503.64,119.226 392.77,8.356 256,8.356 m 2.942,31.691 c 120.9,0 218.9,98 218.9,218.9 0,120.9 -98,218.9 -218.9,218.9 -120.9,0 -218.93,-98 -218.93,-218.9 0,-120.9 98.03,-218.9 218.93,-218.9" id="path14" />
</g>
<path style="fill:#ffffff;fill-rule:evenodd;stroke:#000000;stroke-width:4.90399981;stroke-opacity:0.31000001" inkscape:connector-curvature="0" d="m 253.04,7.859 c -135.42,0 -245.19,109.78 -245.19,245.19 0,135.42 109.78,245.19 245.19,245.19 135.42,0 245.19,-109.78 245.19,-245.19 0,-135.42 -109.78,-245.19 -245.19,-245.19 z m 0,26.297 c 120.9,0 218.9,98 218.9,218.9 0,120.9 -98,218.9 -218.9,218.9 -120.9,0 -218.93,-98 -218.93,-218.9 0,-120.9 98.03,-218.9 218.93,-218.9 z" id="path16" />
</svg>
