<?xml version="1.0" encoding="UTF-8" standalone="no"?>
<svg xmlns="http://www.w3.org/2000/svg" height="512" viewBox="0 0 512 512" width="512" version="1.1">
 <metadata id="metadata74"/>
 <g id="g4" transform="translate(0,-540.36)">
  <g id="g6" fill-rule="evenodd">
   <path id="path8" fill="#BF9E73" d="m471.95 793.41c0 120.9-98.01 218.9-218.9 218.9-120.9 0-218.9-98.01-218.9-218.9 0-120.9 98.01-218.9 218.9-218.9 120.9 0 218.9 98.01 218.9 218.9"/>
   <path id="path10" fill-opacity="0.235" d="m245.31 633.42c-50.09 87.42-100.17 174.85-150.25 262.28 37.747 37.747 76.45 80.939 115.01 111.92 16.239 12.411 18.888 4.07 33.387 4.654 82.5 4.168 165.01-42.629 202.92-116.17 12.01-18.2 26.946-30.72 16.72-43.18 10.51 7.939 21.18 19.679-42.835-44.33-57.882-57.691-115.52-115.53-173.36-173.34l-1.592-1.824"/>
   <path id="path12" fill-opacity="0.067" d="m256 541.36c-140.83 0-255 114.17-255 255s114.17 255 255 255 255-114.17 255-255-114.17-255-255-255m8.827 44.931c120.9 0 218.9 98 218.9 218.9s-98 218.9-218.9 218.9-218.93-98-218.93-218.9 98.03-218.9 218.93-218.9"/>
   <g id="g14" fill-opacity="0.129">
    <path id="path16" d="m256 544.79c-138.94 0-251.57 112.63-251.57 251.57s112.63 251.54 251.57 251.54 251.57-112.6 251.57-251.54-112.63-251.57-251.57-251.57m5.885 38.556c120.9 0 218.9 98 218.9 218.9s-98 218.9-218.9 218.9-218.93-98-218.93-218.9 98.03-218.9 218.93-218.9"/>
    <path id="path18" d="m256 548.72c-136.77 0-247.64 110.87-247.64 247.64s110.87 247.64 247.64 247.64 247.64-110.87 247.64-247.64-110.87-247.64-247.64-247.64m2.942 31.691c120.9 0 218.9 98 218.9 218.9s-98 218.9-218.9 218.9-218.93-98-218.93-218.9 98.03-218.9 218.93-218.9"/>
   </g>
   <path id="path20" d="m253.04 548.22c-135.42 0-245.19 109.78-245.19 245.19 0 135.42 109.78 245.19 245.19 245.19 135.42 0 245.19-109.78 245.19-245.19 0-135.42-109.78-245.19-245.19-245.19zm0 26.297c120.9 0 218.9 98 218.9 218.9s-98 218.9-218.9 218.9-218.93-98-218.93-218.9 98.03-218.9 218.93-218.9z" stroke-opacity="0.31" stroke="#000" stroke-width="4.904" fill="#fff"/>
  </g>
  <path id="path68" d="m245.31 633.41-76.83 134.13-73.41 128.18c1.931-0.772 3.839-1.51 5.739-2.24 0.613-1.064 1.349-1.7 2.16-1.7 0.399 0 0.779 0.16 1.14 0.44 2.816-1.054 5.598-2.062 8.358-3.02v-1.66c0-5.124 1.974-9.238 4.439-9.238 2.258 0 4.123 3.46 4.419 7.979 2.237-0.707 4.468-1.394 6.679-2.04v-18.18c0-5.124 1.881-9.258 4.219-9.258s4.219 4.134 4.219 9.258v15.837c2.685-0.694 5.354-1.341 8.02-1.94v-35.393c0-5.124 2.087-9.238 4.679-9.238s4.679 4.114 4.679 9.238v33.474c2.972-0.546 5.946-1.032 8.918-1.46v-50.97c0-5.124 2.088-9.258 4.679-9.258 2.592 0 4.679 4.135 4.679 9.258v49.81c2.585-0.263 5.173-0.486 7.778-0.66v-65.39c0-5.124 2.294-9.238 5.139-9.238s5.139 4.114 5.139 9.238v64.948c2.723-0.061 5.472-0.092 8.238-0.06v-75.39c0-5.124 2.294-9.258 5.139-9.258s5.119 4.134 5.119 9.258v75.71c2.384 0.123 4.789 0.271 7.219 0.46v-69.09c0-5.124 2.294-9.238 5.139-9.238s5.139 4.114 5.139 9.238v70.07c1.961 0.219 3.942 0.46 5.939 0.72v-69.53c0-5.124 2.294-9.258 5.139-9.258s5.139 4.134 5.139 9.258v71.01c2.713 0.43 5.449 0.881 8.238 1.38v-59.25c0-5.124 2.388-9.238 5.359-9.238s5.379 4.114 5.379 9.238v61.31c2.833 0.574 5.699 1.18 8.618 1.82 0.223 0.041 0.418 0.079 0.64 0.12v-48.51c0-5.124 1.881-9.238 4.219-9.238 2.339 0 4.219 4.114 4.219 9.238v50.09c3.701 0.701 7.173 1.367 10.538 2.02v-38.05c0-5.124 1.881-9.238 4.219-9.238s4.219 4.114 4.219 9.238v39.712c3.656 0.716 6.98 1.355 10.298 2v-24.795c0-5.124 2.088-9.258 4.679-9.258 2.592 0 4.679 4.134 4.679 9.258v26.595c2.636 0.493 5.167 0.943 7.659 1.38v-13.237c0-5.124 1.694-9.258 3.779-9.258s3.759 4.135 3.759 9.258v14.497c2.079 0.328 4.138 0.637 6.179 0.92v-4.22c0-5.124 1.788-9.258 3.999-9.258 2.213 0 3.979 4.135 3.979 9.258v5.199c1.68 0.183 3.358 0.349 5.059 0.5 0.135-4.797 1.65-8.558 3.519-8.558 1.936 0 3.503 4.04 3.539 9.08 1.754 0.105 3.544 0.189 5.359 0.26 0.641-2.33 1.694-3.839 2.879-3.839 1.217 0 2.284 1.585 2.919 4.02 2.94 0.054 6.01 0.054 9.198 0.02 0.442-0.611 0.951-0.96 1.48-0.96 0.517 0 1.01 0.334 1.44 0.92 3.108-0.057 6.314-0.144 9.718-0.28l4.579-0.58-74.59-130.24-76.83-134.13" fill-rule="evenodd" fill="#fff"/>
 </g>
</svg>
