<?xml version="1.0" encoding="UTF-8" standalone="no"?>
<svg xmlns="http://www.w3.org/2000/svg" height="512" viewBox="0 0 512 512" width="512" version="1.1">
 <metadata id="metadata120"/>
 <g id="g4" transform="translate(0,-540.36)">
  <path id="path6" fill-rule="evenodd" fill="#BF9E73" transform="matrix(.98613 0 0 .98613 66.66 799.57)" d="m418.71-3.2542a226.71 226.71 0 1 1 -453.42 0 226.71 226.71 0 1 1 453.42 0"/>
  <g id="g8" fill="#BF9E73">
   
   <g id="g12" transform="matrix(.75439 0 0 .75439 -50.781 489.71)" color="#000000">
    <path id="path14" d="m160.84 360.28-1.656 2.469-17.813 26.719-16.03-24.281-1.625-2.5-1.688 2.469-7.188 10.5v7.094l8.813-12.906 16.03 24.344 1.656 2.531 1.688-2.5 17.875-26.781 16.563 24.344 1.406 2.031 1.688-1.781 15.938-16.469 9.844-0.469-2.406 117.28 4 0.063 2.438-119.41 0.063-2.156-2.156 0.125-12.781 0.594-0.813 0.031-0.531 0.594-14.75 15.281-16.906-24.781-1.656-2.438"/>
    <path id="path16" d="m208.08 387.42c-17.904 2.33-32.735 17.12-32.735 33.377 0 16.259 14.831 27.22 32.735 24.888 17.904-2.33 32.735-17.15 32.735-33.409s-14.831-27.19-32.735-24.856m0 4.047c16.09-2.094 28.812 7.621 28.812 21.32s-12.72 26.757-28.812 28.852c-16.09 2.094-28.812-7.653-28.812-21.352s12.72-26.726 28.812-28.82"/>
    <path id="path18" d="m222.38 418.5a2.0002 2.0002 0 0 0 -0.125 0.0312l-30.469 2.438a2.0002 2.0002 0 1 0 0.3125 3.9688l30.46-2.44a2.0022 2.0022 0 1 0 -0.1875 -4"/>
    <path id="path20" d="m234.47 398.41-51.19 3.063a2.0002 2.0002 0 0 0 -1.0938 3.5625l23.75 18.281a2.0002 2.0002 0 0 0 2.4688 0l27.406-21.313a2.0002 2.0002 0 0 0 -1.3438 -3.5938m-6.219 4.375-21.09 16.438-18.313-14.09 39.41-2.344"/>
    <path id="path22" d="m233.81 488.59-57.25 4.25a2.0049 2.0049 0 1 0 0.28125 4l57.28-4.281a2.0002 2.0002 0 1 0 -0.3125 -3.9688"/>
    <path id="path24" d="m222.84 498.94-35.34 3.063a2.0002 2.0002 0 1 0 0.34375 3.9688l35.34-3.03a2.0074 2.0074 0 1 0 -0.34375 -4"/>
    <path id="path26" d="m213.72 509.91-15.844 1.219a2.0061 2.0061 0 1 0 0.3125 4l15.844-1.219a2.0061 2.0061 0 1 0 -0.3125 -4"/>
    <path id="path28" d="m291.03 365.56-6.06 0.563-6.688 0.594-4.25 0.406 3 3 1.281 1.281-10.313 9.06 0.25-3.688 0.344-4.563-3.594 2.875-20.813 16.688 2.5 3.125 17.25-13.813-0.281 3.938-0.344 4.844 3.656-3.188 14.188-12.438 1.969 1.969 2.031 2.031 1.188-2.594 3.125-6.656 1.563-3.406 0.031-0.031h-0.031"/>
    <path id="path30" d="m334.51 222.71c-6.635 0.855-12.336 6.367-12.336 12.634s5.701 10.321 12.336 9.466 12.336-6.378 12.336-12.644c0-6.267-5.701-10.31-12.336-9.455m0 4.03c4.815-0.62 8.393 2.218 8.393 5.938s-3.578 7.49-8.393 8.111c-4.815 0.62-8.393-2.228-8.393-5.948s3.578-7.48 8.393-8.1"/>
    <path id="path32" d="m341.62 236.94a2.0002 2.0002 0 0 0 -1.0938 3.5312l28.66 23.78a2.0002 2.0002 0 1 0 2.5312 -3.0938l-28.625-23.75a2.0002 2.0002 0 0 0 -1.48 -0.47"/>
    <path id="path34" d="m370.44 246.66a2.0002 2.0002 0 0 0 -1.9688 2.0312v11.406h-14.469a2.0002 2.0002 0 1 0 0 4h18.469v-15.406a2.0002 2.0002 0 0 0 -2.0312 -2.0312"/>
    <path id="path36" d="m334.28 198.53a2.0002 2.0002 0 0 0 -1.78 2.03v23.75a2.0002 2.0002 0 1 0 4 0v-23.75a2.0002 2.0002 0 0 0 -2.2188 -2.0312"/>
    <path id="path38" d="m400.08 304.56c-0.053 0.008-0.105 0.019-0.156 0.031l-68.01 9.75-1.438 0.094-0.344 1.406-1.219 12.813-0.344 1.406 1.25 0.75 14.75 9.156-31.719 17.25-3.844 2.094 4.094 1.531 31.625 12-30.781 19.781-3.438 2.219 3.844 1.344 30.719 10.781-31.06 18.531-3.063 1.813 3.125 1.656 16 8.594v54.844c-0.015 1.057 0.943 2.028 2 2.028s2.01-0.972 2-2.028v-57.248l-1.063-0.563-13.906-7.469 31.656-18.906 3.688-2.188-4.03-1.406-30.875-10.844 30.688-19.719 3.344-2.156-3.719-1.406-31.28-11.875 30.906-16.781 3.03-1.656-2.938-1.813-16.406-10.188 0.5-10 66.58-9.625c1.047-0.041 1.963-1.031 1.922-2.078s-1.031-1.963-2.078-1.922"/>
    <path id="path40" d="m289.5 383.91-6 0.563-6.719 0.594-4.25 0.406 3.03 3 1.281 1.281-10.344 9.03 0.281-3.656 0.344-4.813-3.656 3.156-18.469 15.938 2.625 3.03 14.813-12.781-0.25 3.719-0.344 4.844 3.656-3.188 14.188-12.438 1.969 1.969 2 2.031 1.219-2.594 3.094-6.656 1.563-3.344 0.094-0.094h-0.126"/>
   </g>
  </g>
  <path id="path42" fill-opacity="0.235" transform="translate(0,540.36)" d="m223.22 87.63-115.06 313.41 48.688 48.719c29.03 14.223 61.678 22.19 96.19 22.19 95.9 0 177.4-61.66 207-147.5z"/>
  <g id="g44" fill-rule="evenodd">
   <path id="path46" fill-opacity="0.067" d="m256 541.36c-140.83 0-255 114.17-255 255s114.17 255 255 255 255-114.17 255-255-114.17-255-255-255m8.827 44.931c120.9 0 218.9 98 218.9 218.9s-98 218.9-218.9 218.9-218.93-98-218.93-218.9 98.03-218.9 218.93-218.9"/>
   <g id="g48" fill-opacity="0.129">
    <path id="path50" d="m256 544.79c-138.94 0-251.57 112.63-251.57 251.57s112.63 251.54 251.57 251.54 251.57-112.6 251.57-251.54-112.63-251.57-251.57-251.57m5.885 38.556c120.9 0 218.9 98 218.9 218.9s-98 218.9-218.9 218.9-218.93-98-218.93-218.9 98.03-218.9 218.93-218.9"/>
    <path id="path52" d="m256 548.72c-136.77 0-247.64 110.87-247.64 247.64s110.87 247.64 247.64 247.64 247.64-110.87 247.64-247.64-110.87-247.64-247.64-247.64m2.942 31.691c120.9 0 218.9 98 218.9 218.9s-98 218.9-218.9 218.9-218.93-98-218.93-218.9 98.03-218.9 218.93-218.9"/>
   </g>
  </g>
  <path id="path100" d="m253.04 548.22c-135.42 0-245.19 109.78-245.19 245.19 0 135.42 109.78 245.19 245.19 245.19 135.42 0 245.19-109.78 245.19-245.19 0-135.42-109.78-245.19-245.19-245.19zm0 26.297c120.9 0 218.9 98 218.9 218.9s-98 218.9-218.9 218.9-218.93-98-218.93-218.9 98.03-218.9 218.93-218.9z" stroke-opacity="0.31" fill-rule="evenodd" stroke="#000" stroke-width="4.904" fill="#fff"/>
 </g>
 <g id="g102" transform="matrix(.92959 0 0 .92959 -109.85 -149.08)" color="#000000">
  <g id="g104" stroke-linejoin="round" stroke="#fff" stroke-linecap="round" stroke-width="38">
   <path id="path106" fill="none" d="m251.64 581.98 95.05-313.79 98.71 313.18"/>
   <path id="path108" fill="#BF9E73" d="m357.05 494.85h-77.38"/>
  </g>
  <g id="g110" fill="#fff">
   <path id="path112" d="m520.03 461.34c-19.01 0-34.406 15.14-34.406 33.813 0 18.676 15.393 33.813 34.406 33.813 19.01 0 34.438-15.14 34.438-33.813 0-18.676-15.425-33.813-34.438-33.813m-10.656 17.656 26.06 16.906-26.06 14.781v-31.688"/>
   <path id="path114" d="m520.03 537.5c-19.01 0-34.406 15.14-34.406 33.813 0 18.676 15.393 33.813 34.406 33.813 19.01 0 34.438-15.14 34.438-33.813 0-18.676-15.425-33.813-34.438-33.813m-13.09 22.531h25.625v25h-25.62v-25"/>
  </g>
 </g>
</svg>
