<?xml version="1.0" encoding="UTF-8" standalone="no"?>
<svg xmlns="http://www.w3.org/2000/svg" height="512" viewBox="0 0 512 512" width="512" version="1.1">
 <metadata id="metadata72"/>
 <path id="path4" d="m471.95 253.05c0 120.9-98.01 218.9-218.9 218.9-120.9 0-218.9-98.01-218.9-218.9 0-120.9 98.01-218.9 218.9-218.9 120.9 0 218.9 98.01 218.9 218.9" fill-rule="evenodd" fill="#BF9E73"/>
 <path id="path6" fill-opacity="0.235" d="m377.16 135.53-73.75 81.969-0.313-0.531-0.156 0.406-0.938-1.5-0.156 0.375-0.875-1.469-0.219 0.406-0.875-1.5-0.219 0.438-0.875-1.5-0.219 0.438-0.875-1.5-0.188 0.406-0.906-1.5-0.188 0.406-0.906-1.5-0.156 0.375-0.875-1.469-0.219 0.406-0.875-1.469-0.219 0.406-0.875-1.5-0.219 0.438-0.875-1.5-0.188 0.406-0.906-1.5-0.188 0.406-0.906-1.5-0.188 0.406-0.875-1.5-0.188 0.375-0.875-1.438-0.219 0.406-0.875-1.5-0.219 0.406-0.875-1.5-0.188 0.438-0.906-1.5-0.188 0.406-0.906-1.5-0.188 0.406-0.875-1.469-0.188 0.344-0.875-1.438-0.219 0.406-0.875-1.5-0.188 0.406-0.906-1.5-0.188 0.438-0.906-1.5-0.188 0.406-0.875-1.5-0.219 0.406-0.875-1.469-0.188 0.375-0.875-1.469-0.219 0.406-0.875-1.5-0.188 0.406-0.906-1.5-0.188 0.438-0.906-1.5-0.188 0.406-0.875-1.5-0.219 0.438-0.875-1.5-0.188 0.375-0.875-1.469-0.188 0.406-0.906-1.5-0.188 0.406-0.906-1.5-0.188 0.406-0.875-1.5-0.219 0.438-0.875-1.469-0.219 0.406-0.875-1.5-0.219 0.406-0.875-1.5-0.156 0.375-0.906-1.469-0.188 0.406-0.906-1.5-44.531 96.97c-40.468-7.154-78.38-22.893-110.37-50.688 10.516 53.42 20.982 95.51 73.56 148.09 0.024 0.007 0.07 0.024 0.094 0.031 0.342 0.345 0.654 0.685 1 1.031v0.031c0.024 0.007 0.038 0.024 0.063 0.031 0.342 0.345 0.685 0.654 1.031 1 0.073 0.074 0.177 0.144 0.25 0.219 0.291 0.293 0.55 0.581 0.844 0.875 0.073 0.074 0.177 0.144 0.25 0.219 0.078 0.08 0.14 0.139 0.219 0.219 0.211 0.212 0.412 0.444 0.625 0.656 0.006 0.006 0.026-0.006 0.031 0 0.358 0.361 0.701 0.732 1.063 1.094 0.359 0.362 0.668 0.731 1.031 1.094 0.365 0.368 0.725 0.725 1.094 1.094 0.024 0.007 0.038 0.024 0.063 0.031 0.342 0.345 0.685 0.654 1.031 1 0.073 0.074 0.177 0.144 0.25 0.219 0.291 0.293 0.55 0.581 0.844 0.875 0.073 0.074 0.146 0.144 0.219 0.219 0.078 0.08 0.172 0.139 0.25 0.219 0.211 0.212 0.412 0.444 0.625 0.656 0.006 0.006 0.026-0.006 0.031 0 0.358 0.361 0.701 0.732 1.063 1.094 0.359 0.362 0.668 0.731 1.031 1.094 0.365 0.368 0.725 0.694 1.094 1.063 0.024 0.007 0.038 0.056 0.063 0.063 0.342 0.345 0.685 0.654 1.031 1 0.073 0.074 0.177 0.144 0.25 0.219 0.291 0.293 0.55 0.581 0.844 0.875 0.073 0.074 0.146 0.144 0.219 0.219 0.078 0.08 0.172 0.139 0.25 0.219 0.211 0.212 0.412 0.444 0.625 0.656 0.006 0.006 0.026-0.006 0.031 0 0.358 0.361 0.669 0.732 1.031 1.094 0.359 0.362 0.699 0.731 1.063 1.094 0.365 0.368 0.725 0.694 1.094 1.063 0.024 0.007 0.038 0.056 0.063 0.063 0.342 0.345 0.685 0.654 1.031 1 0.365 0.368 0.725 0.725 1.094 1.094 0.073 0.074 0.146 0.144 0.219 0.219 0.078 0.08 0.172 0.139 0.25 0.219 0.212 0.213 0.412 0.443 0.625 0.656 0.006 0.006 0.026-0.006 0.031 0 0.358 0.361 0.669 0.732 1.031 1.094 0.359 0.362 0.699 0.731 1.063 1.094 0.365 0.368 0.725 0.694 1.094 1.063 0.365 0.368 0.725 0.725 1.094 1.094 0.024 0.007 0.038 0.024 0.063 0.031 0.342 0.345 0.685 0.685 1.031 1.031 0.073 0.074 0.146 0.113 0.219 0.188 0.291 0.293 0.55 0.612 0.844 0.906 0.073 0.074 0.177 0.113 0.25 0.188 0.078 0.08 0.172 0.17 0.25 0.25 0.211 0.212 0.381 0.444 0.594 0.656 0.006 0.006 0.026-0.006 0.031 0 0.358 0.361 0.701 0.701 1.063 1.063 0.359 0.362 0.699 0.731 1.063 1.094 0.365 0.368 0.725 0.725 1.094 1.094 0.024 0.007 0.038 0.024 0.063 0.031 0.342 0.345 0.685 0.685 1.031 1.031 0.073 0.074 0.146 0.113 0.219 0.188 0.291 0.293 0.55 0.612 0.844 0.906 0.073 0.074 0.177 0.113 0.25 0.188 0.078 0.08 0.172 0.17 0.25 0.25 0.211 0.212 0.381 0.444 0.594 0.656 0.006 0.006 0.026-0.006 0.031 0 0.358 0.361 0.701 0.701 1.063 1.063 0.359 0.362 0.699 0.731 1.063 1.094 0.365 0.368 0.725 0.725 1.094 1.094 0.024 0.007 0.038 0.024 0.063 0.031 0.342 0.345 0.685 0.685 1.031 1.031 0.073 0.074 0.146 0.113 0.219 0.188 0.291 0.293 0.55 0.612 0.844 0.906 0.073 0.074 0.177 0.113 0.25 0.188 0.078 0.08 0.172 0.17 0.25 0.25 0.211 0.212 0.381 0.412 0.594 0.625 0.006 0.006 0.026-0.006 0.031 0 0.358 0.361 0.701 0.732 1.063 1.094 0.359 0.362 0.699 0.731 1.063 1.094 0.365 0.368 0.725 0.725 1.094 1.094 0.024 0.007 0.038 0.024 0.063 0.031 0.342 0.345 0.654 0.685 1 1.031v0.031c0.024 0.007 0.07 0.024 0.094 0.031 0.342 0.345 0.654 0.685 1 1.031 0.073 0.074 0.177 0.113 0.25 0.188 0.291 0.293 0.55 0.581 0.844 0.875 0.073 0.074 0.177 0.144 0.25 0.219 0.078 0.08 0.14 0.17 0.219 0.25 0.211 0.212 0.412 0.412 0.625 0.625 0.006 0.006 0.026-0.006 0.031 0 0.358 0.361 0.701 0.732 1.063 1.094 0.359 0.362 0.699 0.731 1.063 1.094 0.365 0.368 0.694 0.725 1.063 1.094 0.024 0.007 0.07 0.024 0.094 0.031 0.342 0.345 0.654 0.685 1 1.031 0.073 0.074 0.177 0.113 0.25 0.188 0.291 0.293 0.55 0.581 0.844 0.875 0.073 0.074 0.177 0.144 0.25 0.219 0.078 0.08 0.14 0.17 0.219 0.25 0.211 0.212 0.412 0.412 0.625 0.625 0.006 0.006 0.026-0.006 0.031 0 0.358 0.361 0.701 0.732 1.063 1.094 0.359 0.362 0.668 0.731 1.031 1.094 0.365 0.368 0.725 0.725 1.094 1.094 0.024 0.007 0.07 0.024 0.094 0.031 0.342 0.345 0.654 0.654 1 1 0.073 0.074 0.177 0.144 0.25 0.219 0.291 0.293 0.55 0.581 0.844 0.875 0.073 0.074 0.177 0.144 0.25 0.219 0.078 0.08 0.14 0.139 0.219 0.219 0.211 0.212 0.412 0.444 0.625 0.656 0.006 0.006 0.026-0.006 0.031 0 0.358 0.361 0.701 0.732 1.063 1.094 0.359 0.362 0.668 0.731 1.031 1.094 0.365 0.368 0.725 0.725 1.094 1.094 0.024 0.007 0.038 0.024 0.063 0.031 0.342 0.345 0.685 0.654 1.031 1 0.365 0.368 0.725 0.725 1.094 1.094 0.073 0.074 0.177 0.144 0.25 0.219 0.078 0.08 0.14 0.139 0.219 0.219 0.212 0.213 0.412 0.443 0.625 0.656 0.006 0.006 0.026-0.006 0.031 0 0.358 0.361 0.701 0.732 1.063 1.094 0.359 0.362 0.668 0.731 1.031 1.094 0.365 0.368 0.725 0.725 1.094 1.094 0.365 0.368 0.725 0.694 1.094 1.063 0.024 0.007 0.038 0.056 0.063 0.063 0.342 0.345 0.685 0.654 1.031 1 0.073 0.074 0.146 0.144 0.219 0.219 0.291 0.293 0.581 0.581 0.875 0.875 0.073 0.074 0.146 0.144 0.219 0.219 0.078 0.08 0.172 0.139 0.25 0.219 0.211 0.212 0.412 0.444 0.625 0.656 0.006 0.006 0.026-0.006 0.031 0 0.358 0.361 0.669 0.732 1.031 1.094 0.359 0.362 0.699 0.731 1.063 1.094 0.365 0.368 0.725 0.694 1.094 1.063 0.024 0.007 0.038 0.024 0.063 0.031 0.342 0.345 0.685 0.685 1.031 1.031 0.073 0.074 0.146 0.144 0.219 0.219 0.291 0.293 0.581 0.581 0.875 0.875 0.073 0.074 0.146 0.113 0.219 0.188 0.078 0.08 0.172 0.17 0.25 0.25 0.211 0.212 0.381 0.444 0.594 0.656 0.006 0.006 0.057-0.006 0.063 0 0.358 0.361 0.669 0.732 1.031 1.094 0.359 0.362 0.699 0.699 1.063 1.063 0.365 0.368 0.725 0.725 1.094 1.094 0.024 0.007 0.038 0.024 0.063 0.031 0.342 0.345 0.685 0.685 1.031 1.031 0.073 0.074 0.146 0.144 0.219 0.219 0.291 0.293 0.581 0.581 0.875 0.875 0.073 0.074 0.146 0.113 0.219 0.188 0.078 0.08 0.172 0.17 0.25 0.25 0.211 0.212 0.381 0.444 0.594 0.656 0.006 0.006 0.057-0.006 0.063 0 0.358 0.361 0.669 0.732 1.031 1.094 0.359 0.362 0.699 0.699 1.063 1.063 0.365 0.368 0.725 0.725 1.094 1.094 0.024 0.007 0.038 0.024 0.063 0.031 0.342 0.345 0.685 0.685 1.031 1.031 0.365 0.368 0.725 0.725 1.094 1.094 0.073 0.074 0.146 0.113 0.219 0.188 0.291 0.293 0.55 0.612 0.844 0.906 0.073 0.074 0.177 0.113 0.25 0.188 0.078 0.08 0.172 0.17 0.25 0.25 0.211 0.212 0.381 0.412 0.594 0.625 0.006 0.006 0.026-0.006 0.031 0 0.358 0.361 0.701 0.732 1.063 1.094 0.359 0.362 0.699 0.731 1.063 1.094 0.365 0.368 0.725 0.725 1.094 1.094 0.024 0.007 0.038 0.024 0.063 0.031 0.121 0.122 0.224 0.255 0.344 0.375 107.85-13.584 191.25-105.62 191.25-217.16 0-7.61-0.398-15.15-1.156-22.563l-0.438 0.5v-2.281l-1.094 1.219v-2.313l-1.094 1.219v-2.313l-1.094 1.219v-2.313l-1.063 1.219v-2.313l-1.063 1.156v-2.25l-1.094 1.25v-2.313l-1.094 1.219v-2.281l-1.094 1.219v-2.313l-1.063 1.219v-2.313l-1.094 1.219v-2.313l-1.063 1.156v-2.25l-1.094 1.25v-2.313l-1.094 1.219v-2.281l-1.094 1.219v-2.313l-1.063 1.219v-2.313l-1.094 1.219v-2.313l-1.094 1.25v-2.313l-1.063 1.156v-2.25l-1.094 1.219v-2.281l-1.094 1.219v-2.313l-1.063 1.219v-2.313l-1.094 1.219v-2.313l-1.094 1.25v-2.313l-1.063 1.156v-2.25l-1.094 1.219v-2.281l-1.063 1.219v-2.313l-1.094 1.219v-2.313l-1.094 1.25v-2.344l-1.094 1.25v-2.313l-1.063 1.156v-2.25l-1.094 1.219v-2.313l-1.063 1.219v-2.281l-1.094 1.219v-2.313l-1.094 1.25v-2.313l-1.094 1.219v-2.313l-1.094 1.219v-2.313l-1.031 1.156v-2.25l-1.094 1.219v-2.281l-1.094 1.219v-2.313l-1.094 1.25v-2.313l-1.094 1.219v-2.313l-1.094 1.219v-2.313l-1.031 1.156v-2.25l-1.094 1.219v-2.281l-1.094 1.25v-2.313l-1.094 1.219v-2.313l-1.094 1.219v-2.313l-1.094 1.219v-2.313l-1.031 1.156v-2.25l-1.094 1.219v-2.313l-1.094 1.25v-2.281l-1.094 1.219v-2.313l-1.094 1.219v-2.313l-1.094 1.219v-2.313l-1.031 1.156v-2.25l-1.094 1.219v-2.313l-1.094 1.25v-2.281l-1.094 1.219v-2.313l-1.094 1.219v-2.313l-1.063 1.219v-2.313l-1.094 1.219v-2.313l-1.063 1.156v-2.25l-1.094 1.25v-2.281l-1.094 1.219v-2.313l-1.094 1.219v-2.313l-1.063 1.219v-2.313l-1.094 1.219v-2.313l-1.063 1.156v-2.219l-1.094 1.219v-2.281l-1.094 1.219v-2.313l-1.094 1.219v-2.313l-1.063 1.219v-2.313l-1.094 1.219v-2.313l-1.063 1.156v-2.219l-1.094 1.219v-2.313l-1.094 1.219v-2.281l-1.063 1.219v-2.313l-1.094 1.219v-2.313l-1.094 1.25v-2.344l-1.094 1.25v-2.313l-1.063 1.156v-2.25l-1.094 1.219v-2.281l-1.063 1.219v-2.313l-1.094 1.219v-2.313l-1.094 1.25v-2.313l-1.094 1.219v-2.313"/>
 <g id="g8" fill-rule="evenodd">
  <path id="path10" fill-opacity="0.067" d="m256 1c-140.83 0-255 114.17-255 255s114.17 255 255 255 255-114.17 255-255-114.17-255-255-255m8.827 44.931c120.9 0 218.9 98 218.9 218.9s-98 218.9-218.9 218.9-218.93-98-218.93-218.9 98.03-218.9 218.93-218.9"/>
  <g id="g12" fill-opacity="0.129">
   <path id="path14" d="m256 4.433c-138.94 0-251.57 112.63-251.57 251.57s112.63 251.57 251.57 251.57 251.57-112.63 251.57-251.57-112.63-251.57-251.57-251.57m5.885 38.556c120.9 0 218.9 98 218.9 218.9s-98 218.9-218.9 218.9-218.93-98-218.93-218.9 98.03-218.9 218.93-218.9"/>
   <path id="path16" d="m256 8.356c-136.77 0-247.64 110.87-247.64 247.64s110.87 247.64 247.64 247.64 247.64-110.87 247.64-247.64-110.87-247.64-247.64-247.64m2.942 31.691c120.9 0 218.9 98 218.9 218.9s-98 218.9-218.9 218.9-218.93-98-218.93-218.9 98.03-218.9 218.93-218.9"/>
  </g>
  <path id="path18" d="m253.04 7.859c-135.42 0-245.19 109.78-245.19 245.19 0 135.42 109.78 245.19 245.19 245.19 135.42 0 245.19-109.78 245.19-245.19 0-135.42-109.78-245.19-245.19-245.19zm0 26.297c120.9 0 218.9 98 218.9 218.9s-98 218.9-218.9 218.9-218.93-98-218.93-218.9 98.03-218.9 218.93-218.9z" stroke-opacity="0.31" stroke="#000" stroke-width="4.904" fill="#fff"/>
 </g>
 <path id="path66" fill="#fff" d="m377.18 135.53v199.81c-73.61 42.07-126.2 52.581-199.81 31.549-52.581-52.581-63.1-94.65-73.61-148.07 73.61 63.939 178.78 63.939 273.42 42.906l-178.78 42.07 60.29-131.24 65.902 110.21-42.07-42.07z"/>
</svg>
