<?xml version="1.0" encoding="UTF-8" standalone="no"?>
<svg xmlns="http://www.w3.org/2000/svg" height="512" viewBox="0 0 512 512" width="512" version="1.1">
 <metadata id="metadata70"/>
 <path id="path4" fill-rule="evenodd" fill="#BF9E73" d="m471.95 253.05c0 120.9-98.01 218.9-218.9 218.9-120.9 0-218.9-98.01-218.9-218.9 0-120.9 98.01-218.9 218.9-218.9 120.9 0 218.9 98.01 218.9 218.9"/>
 <path id="path10" fill-opacity="0.235" fill="#BF9E73" d="m32.625 335.32c41.15 81.63 125.72 137.63 223.38 137.63 97.65 0 182.23-55.997 223.38-137.63h-446.74"/>
 <path id="path26522" opacity="0.25" d="m256.44 34.188c0.1 22.893-1.35 14.517-19.1 14.437-5.86 3.874-1.55 15.906-3.65 21 3.45 4.648 10.18 12.745 12.28 18.75 13.21 13.215-18.57-1.633-10.09 14.065 2.54 6.99-1.21 8.52-2.19 12.25 2.24 3.88 3.45 5.21 6.15 9.9 11.26 19.49 13.29 13.92 5.91 14.47-8.99 5.06-11.43 10.28-12.13 20.75 7.43 11.1 0.07-0.03 14.76 22.75 4.94 10.01-2.51 3-13.04 1.1-2.73 7.35-0.6 17.07-1.65 21.28 7.81 7.81 0.91 4.04-1.88 4.28-9.63 8.94 2.27 29.06 0.38 41.09-8.3 21.1-30.03 51.81-21.41 68.47 31.48 49.04 63.27 97.92 95.1 146.75 74.96-18.58 134.69-75.8 156.81-149.31-100.42-160.5-4.7-7.52-176.19-279.5-9.82-1.508-19.85-2.377-30.06-2.532z"/>
 <path id="path3058" fill="#fff" d="m256.35 24.595v22.428h22.731v-22.428h-22.731zm-22.731 22.529v22.529h22.731v-22.529h-22.731zm22.731 22.529v22.529h22.731v-22.529h-22.731zm-22.731 22.63v22.428h22.731v-22.428h-22.731zm22.731 22.529v22.428h22.731v-22.428h-22.731zm-22.731 22.529v22.529h22.731v-22.529h-22.731zm22.731 22.529v22.529h22.731v-22.529h-22.731zm-22.731 22.63v22.529h22.731v-22.529h-22.731zm1.4144 26.065c-4.5993 0-8.2844 3.7861-8.2844 8.3854v36.876c-13.05 9.2253-21.62 24.438-21.62 41.624 0 28.075 22.742 50.818 50.818 50.818 28.075 0 50.919-22.742 50.919-50.818 0-17.18-8.5481-32.398-21.62-41.624v-36.876c0-4.5993-3.6851-8.3854-8.2844-8.3854h-41.927zm20.913 58.9c15.407 0 27.884 12.578 27.884 27.985s-12.477 27.884-27.884 27.884-27.884-12.477-27.884-27.884 12.477-27.985 27.884-27.985z"/>
 <g id="g76" fill-rule="evenodd">
  <path id="path78" fill-opacity="0.067" d="m256 1c-140.83 0-255 114.17-255 255s114.17 255 255 255 255-114.17 255-255-114.17-255-255-255m8.827 44.931c120.9 0 218.9 98 218.9 218.9s-98 218.9-218.9 218.9-218.93-98-218.93-218.9 98.03-218.9 218.93-218.9"/>
  <g id="g80" fill-opacity="0.129">
   <path id="path82" d="m256 4.433c-138.94 0-251.57 112.63-251.57 251.57s112.63 251.57 251.57 251.57 251.57-112.63 251.57-251.57-112.63-251.57-251.57-251.57m5.885 38.556c120.9 0 218.9 98 218.9 218.9s-98 218.9-218.9 218.9-218.93-98-218.93-218.9 98.03-218.9 218.93-218.9"/>
   <path id="path84" d="m256 8.356c-136.77 0-247.64 110.87-247.64 247.64s110.87 247.64 247.64 247.64 247.64-110.87 247.64-247.64-110.87-247.64-247.64-247.64m2.942 31.691c120.9 0 218.9 98 218.9 218.9s-98 218.9-218.9 218.9-218.93-98-218.93-218.9 98.03-218.9 218.93-218.9"/>
  </g>
  <path id="path86" d="m253.04 7.859c-135.42 0-245.19 109.78-245.19 245.19 0 135.42 109.78 245.19 245.19 245.19 135.42 0 245.19-109.78 245.19-245.19 0-135.42-109.78-245.19-245.19-245.19zm0 26.297c120.9 0 218.9 98 218.9 218.9s-98 218.9-218.9 218.9-218.93-98-218.93-218.9 98.03-218.9 218.93-218.9z" stroke-opacity="0.31" stroke="#000" stroke-width="4.904" fill="#fff"/>
 </g>
</svg>
