<?xml version="1.0" encoding="UTF-8" standalone="no"?>
<svg xmlns="http://www.w3.org/2000/svg" height="512" viewBox="0 0 512 512" width="512" version="1.1">
 <metadata id="metadata76"/>
 <path id="path4" d="m471.95 253.05c0 120.9-98.01 218.9-218.9 218.9-120.9 0-218.9-98.01-218.9-218.9 0-120.9 98.01-218.9 218.9-218.9 120.9 0 218.9 98.01 218.9 218.9" fill-rule="evenodd" fill="#BF9E73"/>
 
 <g id="g8" fill-rule="evenodd">
  <path id="path10" fill-opacity="0.067" d="m256 1c-140.83 0-255 114.17-255 255s114.17 255 255 255 255-114.17 255-255-114.17-255-255-255m8.827 44.931c120.9 0 218.9 98 218.9 218.9s-98 218.9-218.9 218.9-218.93-98-218.93-218.9 98.03-218.9 218.93-218.9"/>
  <g id="g12" fill-opacity="0.129">
   <path id="path14" d="m256 4.433c-138.94 0-251.57 112.63-251.57 251.57s112.63 251.57 251.57 251.57 251.57-112.63 251.57-251.57-112.63-251.57-251.57-251.57m5.885 38.556c120.9 0 218.9 98 218.9 218.9s-98 218.9-218.9 218.9-218.93-98-218.93-218.9 98.03-218.9 218.93-218.9"/>
   <path id="path16" d="m256 8.356c-136.77 0-247.64 110.87-247.64 247.64s110.87 247.64 247.64 247.64 247.64-110.87 247.64-247.64-110.87-247.64-247.64-247.64m2.942 31.691c120.9 0 218.9 98 218.9 218.9s-98 218.9-218.9 218.9-218.93-98-218.93-218.9 98.03-218.9 218.93-218.9"/>
  </g>
  <path id="path18" d="m253.04 7.859c-135.42 0-245.19 109.78-245.19 245.19 0 135.42 109.78 245.19 245.19 245.19 135.42 0 245.19-109.78 245.19-245.19 0-135.42-109.78-245.19-245.19-245.19zm0 26.297c120.9 0 218.9 98 218.9 218.9s-98 218.9-218.9 218.9-218.93-98-218.93-218.9 98.03-218.9 218.93-218.9z" stroke-opacity="0.31" stroke="#000" stroke-width="4.904" fill="#fff"/>
 </g>
 <g id="g66" transform="matrix(26.889 0 0 26.889 -921.18 -26914)" fill="#fff">
  <path id="path68" d="m43.875 1.75c-0.71-0.014-1.467 0.048-2.219 0.125l-1.094 0.719c0.007 0.424-0.064 0.995 0.281 1.25l3.375-0.125 0.25 0.969-0.875 0.5c-2.549 0.03-3.525 1.072-3.844 2.094 0.09 0.984 0.25 1.862 0.75 2.438 0.9 0.777 1.873 0.81 2.844 0.656l1.719-0.688 1.125 0.719 1.531-1.063-0.344-1.219c0.475-1.164 0.282-2.305 0.438-3.469-0.494-1.077-1.066-2.069-1.969-2.563-0.607-0.242-1.259-0.33-1.969-0.344m0.063 4.469c0.616 0 1.125 0.509 1.125 1.125s-0.509 1.094-1.125 1.094-1.125-0.477-1.125-1.094c0-0.616 0.509-1.125 1.125-1.125" transform="translate(0 1004.4)"/>
  <path id="path70" d="m44.24 1005.9c-0.15-0.013-0.303 0-0.462 0.013-0.939 0.04-2.602 0.013-3.25 0.773-0.396 0.467-0.211 1.554 0.396 1.668 0.756 0.141 2.035-0.208 2.855-0.122 0.571 0.06 0.739 0.519 0.273 0.838-0.493 0.338-1.612 0.235-2.176 0.405-1.953 0.587-2.654 1.83-2.176 3.514 0.312 1.098 1.415 1.913 2.619 1.96 2.316-0.013 1.884-1.173 3.01-0.565 0.369 0.426 1.113 0.563 1.498 0.264 0.62-0.481 1.554-0.739 0.895-1.724-0.316-0.472 0.42-1.083 0.254-3.429-0.147-2.082-1.479-3.51-3.731-3.59zm-0.452 0.302c1.206-0.053 2.131 0.273 2.779 0.848s1.038 1.41 1.112 2.459c0.081 1.141-0.059 1.836-0.179 2.327-0.06 0.246-0.114 0.444-0.141 0.64-0.027 0.197-0.011 0.417 0.113 0.603 0.144 0.215 0.181 0.363 0.179 0.452s-0.04 0.146-0.122 0.236c-0.166 0.179-0.539 0.372-0.886 0.64-0.103 0.081-0.308 0.124-0.528 0.084-0.22-0.039-0.434-0.15-0.565-0.302-0.024-0.027-0.053-0.049-0.085-0.065-0.308-0.167-0.562-0.245-0.801-0.207s-0.399 0.168-0.556 0.273c-0.312 0.21-0.682 0.457-1.781 0.462h-0.01c-1.075-0.045-2.065-0.795-2.336-1.752-0.224-0.788-0.17-1.417 0.141-1.931 0.311-0.515 0.906-0.936 1.837-1.215 0.216-0.064 0.633-0.093 1.055-0.132s0.863-0.074 1.206-0.311c0.3-0.206 0.462-0.551 0.358-0.857-0.104-0.307-0.412-0.481-0.773-0.518-0.467-0.049-1 0.026-1.517 0.084-0.514 0.059-1 0.095-1.31 0.038-0.142-0.026-0.282-0.198-0.339-0.471s0.002-0.585 0.113-0.716c0.243-0.287 0.753-0.468 1.338-0.556s1.215-0.092 1.696-0.113z"/>
 </g>
</svg>
