<?xml version="1.0" encoding="UTF-8" standalone="no"?>
<svg xmlns="http://www.w3.org/2000/svg" height="512" viewBox="0 0 512 512" width="512" version="1.1">
 <metadata id="metadata72"/>
 <path id="path4" d="m471.95 253.05c0 120.9-98.01 218.9-218.9 218.9-120.9 0-218.9-98.01-218.9-218.9 0-120.9 98.01-218.9 218.9-218.9 120.9 0 218.9 98.01 218.9 218.9" fill-rule="evenodd" fill="#BF9E73"/>
 <path id="path6" fill-opacity="0.235" d="m266.72 125.19-129.06 247.34h1.531c-0.004 0.008-0.531 1-0.531 1h1.531c-0.004 0.008-0.531 1-0.531 1h1.5c-0.004 0.008-0.5 0.969-0.5 0.969h1.531c-0.004 0.008-0.531 1-0.531 1h1.5c-0.004 0.008-0.531 1-0.531 1h1.531c-0.004 0.008-0.531 1-0.531 1h1.531c-0.004 0.008-0.531 1-0.531 1h1.531c-0.004 0.008-0.531 1-0.531 1h1.5c-0.004 0.008-0.5 0.969-0.5 0.969h1.531c-0.004 0.008-0.531 1-0.531 1h1.5c-0.004 0.008-0.531 1-0.531 1h1.531c-0.004 0.008-0.531 1-0.531 1h1.531c-0.004 0.008-0.531 1-0.531 1h1.531c-0.004 0.008-0.531 1-0.531 1h1.5c-0.004 0.008-0.5 0.969-0.5 0.969h1.531c-0.004 0.008-0.531 1-0.531 1h1.5l-0.531 1h1.531c-0.004 0.008-0.531 1-0.531 1h1.531l-0.531 1h1.531c-0.004 0.008-0.531 1-0.531 1h1.531l-0.531 1h1.5c-0.004 0.008-0.5 0.969-0.5 0.969h1.531l-0.531 1h1.5c-0.004 0.008-0.531 1-0.531 1h1.531l-0.531 1h1.531c-0.004 0.008-0.531 1-0.531 1h1.531c-0.004 0.008-0.531 1-0.531 1h1.5c-0.004 0.008-0.5 0.968-0.5 0.969h1.531c-0.004 0.008-0.531 1-0.531 1h1.5c-0.004 0.008-0.531 1-0.531 1h1.531c-0.004 0.008-0.531 1-0.531 1h1.531c-0.004 0.008-0.531 1-0.531 1h1.531c-0.004 0.008-0.531 1-0.531 1h1.5c-0.004 0.008-0.5 0.968-0.5 0.969h1.531c-0.004 0.008-0.531 1-0.531 1h1.5c-0.004 0.008-0.531 1-0.531 1h1.531c-0.004 0.008-0.531 1-0.531 1h1.531c-0.004 0.008-0.531 1-0.531 1h1.531c-0.004 0.008-0.531 1-0.531 1h1.5l-0.5 0.969h1.531l-0.531 1h1.531c-0.004 0.009-0.531 1-0.531 1h1.5c-0.004 0.009-0.531 1-0.531 1h1.531c-0.004 0.009-0.531 1-0.531 1h1.531c-0.004 0.009-0.531 1-0.531 1h1.531c-0.004 0.009-0.531 1-0.531 1h1.5c-0.004 0.008-0.5 0.968-0.5 0.969h1.531c-0.004 0.009-0.531 1-0.531 1h1.5c-0.004 0.009-0.531 1-0.531 1h1.531c-0.004 0.009-0.531 1-0.531 1h1.531c-0.004 0.009-0.531 1-0.531 1h1.531l-0.531 1h1.5c-0.004 0.008-0.5 0.968-0.5 0.969h1.531c-0.005 0.009-0.531 0.999-0.531 1h1.5c-0.005 0.009-0.531 0.999-0.531 1h1.531l-0.531 1h1.531c-0.005 0.009-0.531 0.999-0.531 1h1.531l-0.531 1h1.5c-0.004 0.008-0.5 0.968-0.5 0.969h1.531l-0.531 1h1.5c-0.005 0.009-0.531 0.999-0.531 1h1.531l-0.531 1h1.531c-0.005 0.009-0.531 0.999-0.531 1h1.531l-0.531 1h1.531c-0.005 0.009-0.531 0.999-0.531 1h1.5l-0.5 0.969h1.531c-0.005 0.009-0.531 0.999-0.531 1h1.5l-0.531 1h1.531c-0.005 0.009-0.531 0.999-0.531 1h1.531c-0.005 0.009-0.531 0.999-0.531 1h1.531c-0.005 0.009-0.531 0.999-0.531 1h1.5c-0.004 0.008-0.5 0.968-0.5 0.969h1.531c-0.005 0.009-0.531 0.999-0.531 1h1.5c-0.005 0.009-0.531 0.999-0.531 1h1.531c-0.005 0.009-0.531 0.999-0.531 1h1.531c-0.005 0.009-0.531 0.999-0.531 1h1.531c-0.005 0.009-0.531 0.999-0.531 1h1.5c-0.004 0.008-0.5 0.968-0.5 0.969h1.531c-0.005 0.009-0.531 0.999-0.531 1h1.5l-0.531 1h1.531l-0.531 1h1.531l-0.531 1h1.531l-0.531 1h1.5l-0.5 0.969h1.531l-0.531 1h1.531l-0.531 1h1.5l-0.531 1h1.531l-0.531 1h1.531c-0.005 0.009-0.531 0.999-0.531 1h1.531l-0.531 1h1.5l-0.5 0.969h1.531l-0.531 1h1.5l-0.531 1h1.531l-0.531 1h1.531c-0.005 0.009-0.531 0.999-0.531 1h1.531c-0.005 0.009-0.531 0.999-0.531 1h1.5c-0.004 0.008-0.5 0.968-0.5 0.969h1.531c-0.005 0.009-0.531 0.999-0.531 1h1.5l-0.531 1h1.531c-0.002 0.003-0.096 0.203-0.188 0.375 5.132 0.36 10.308 0.563 15.531 0.563 116.05 0 211.01-90.32 218.44-204.5h-0.5l-0.094-1h-0.906c-0.001-0.009-0.094-0.967-0.094-0.969h-0.906c-0.001-0.009-0.094-0.999-0.094-1h-0.906c-0.001-0.009-0.094-0.999-0.094-1h-0.906c-0.001-0.009-0.094-0.999-0.094-1h-0.906l-0.094-1h-0.875c-0.001-0.009-0.094-0.999-0.094-1h-0.906c-0.001-0.009-0.094-0.967-0.094-0.969h-0.906c-0.001-0.009-0.094-0.999-0.094-1h-0.906c-0.001-0.009-0.094-0.999-0.094-1h-0.906l-0.094-1h-0.906c-0.001-0.009-0.094-0.999-0.094-1h-0.875c-0.001-0.009-0.094-0.999-0.094-1h-0.906c-0.001-0.009-0.094-0.999-0.094-1h-0.906c-0.001-0.009-0.094-0.968-0.094-0.969h-0.906l-0.094-1h-0.906c-0.001-0.009-0.094-0.999-0.094-1h-0.906c-0.001-0.009-0.094-0.999-0.094-1h-0.906c-0.001-0.009-0.094-0.999-0.094-1h-0.875c-0.001-0.009-0.094-0.999-0.094-1h-0.906l-0.094-0.969h-0.906c-0.001-0.009-0.094-0.999-0.094-1h-0.906c-0.001-0.009-0.094-0.999-0.094-1h-0.906c-0.001-0.009-0.094-0.999-0.094-1h-0.906c-0.001-0.009-0.094-0.999-0.094-1h-0.875l-0.094-1h-0.906c-0.001-0.009-0.094-0.968-0.094-0.969h-0.906c-0.001-0.009-0.094-0.999-0.094-1h-0.906c-0.001-0.009-0.094-0.999-0.094-1h-0.906c-0.001-0.009-0.094-0.999-0.094-1h-0.906l-0.094-1h-0.875c-0.001-0.009-0.094-0.999-0.094-1h-0.906c-0.001-0.009-0.094-0.999-0.094-1h-0.906c-0.001-0.009-0.094-0.968-0.094-0.969h-0.906c-0.001-0.009-0.094-0.999-0.094-1h-0.906l-0.094-1h-0.906c-0.001-0.009-0.094-0.999-0.094-1h-0.875c-0.001-0.009-0.094-0.999-0.094-1h-0.906c-0.001-0.009-0.094-0.999-0.094-1h-0.906c-0.001-0.009-0.094-0.968-0.094-0.969h-0.906l-0.094-1h-0.906c-0.001-0.009-0.094-0.999-0.094-1h-0.906c-0.001-0.009-0.094-0.999-0.094-1h-0.906c-0.001-0.009-0.094-0.999-0.094-1h-0.875c-0.001-0.009-0.094-0.999-0.094-1h-0.906l-0.094-0.969h-0.906c-0.001-0.009-0.094-0.999-0.094-1h-0.906c-0.001-0.009-0.094-0.999-0.094-1h-0.906c-0.001-0.009-0.094-0.999-0.094-1h-0.906c-0.001-0.009-0.094-0.999-0.094-1h-0.875l-0.094-1h-0.906c-0.001-0.008-0.094-0.968-0.094-0.969h-0.906c-0.001-0.009-0.094-0.999-0.094-1h-0.906c-0.001-0.009-0.094-0.999-0.094-1h-0.906c-0.001-0.009-0.094-0.999-0.094-1h-0.906l-0.094-1h-0.875c-0.001-0.009-0.094-0.999-0.094-1h-0.906c-0.001-0.009-0.094-0.999-0.094-1h-0.906c-0.001-0.008-0.094-0.968-0.094-0.969h-0.906c-0.001-0.009-0.094-0.999-0.094-1h-0.906l-0.094-1h-0.906c-0.001-0.009-0.094-0.999-0.094-1h-0.906c-0.001-0.009-0.094-0.999-0.094-1h-0.875c-0.001-0.009-0.094-0.999-0.094-1h-0.906c-0.001-0.008-0.094-0.968-0.094-0.969h-0.906l-0.094-1h-0.906c-0.001-0.009-0.094-0.999-0.094-1h-0.906c-0.001-0.009-0.094-0.999-0.094-1h-0.906c-0.001-0.009-0.094-0.999-0.094-1h-0.875c-0.001-0.009-0.094-0.999-0.094-1h-0.906l-0.094-0.969h-0.906c-0.001-0.009-0.094-0.999-0.094-1h-0.906c-0.001-0.009-0.094-0.999-0.094-1h-0.906c-0.001-0.009-0.094-0.999-0.094-1h-0.906c-0.001-0.009-0.094-0.999-0.094-1h-0.875l-0.094-1h-0.906c-0.001-0.009-0.094-0.999-0.094-1h-0.906c-0.001-0.008-0.094-0.968-0.094-0.969h-0.906c-0.001-0.009-0.094-0.999-0.094-1h-0.906c-0.001-0.009-0.094-0.999-0.094-1h-0.906l-0.094-1h-0.875c-0.001-0.009-0.094-0.999-0.094-1h-0.906c-0.001-0.009-0.094-0.999-0.094-1h-0.906c-0.001-0.008-0.094-0.968-0.094-0.969h-0.906c-0.001-0.009-0.094-0.999-0.094-1h-0.906l-0.094-1h-0.906c-0.001-0.009-0.094-0.999-0.094-1h-0.906c-0.001-0.009-0.094-0.999-0.094-1h-0.875c-0.001-0.009-0.094-0.999-0.094-1h-0.906c-0.001-0.008-0.094-0.968-0.094-0.969h-0.906l-0.094-1h-0.906c-0.001-0.009-0.094-1-0.094-1h-0.906c-0.001-0.009-0.094-1-0.094-1h-0.906c-0.001-0.009-0.094-1-0.094-1h-0.875c-0.001-0.008-0.094-1-0.094-1h-0.906c-0.001-0.008-0.094-0.968-0.094-0.969h-0.906c-0.001-0.008-0.094-1-0.094-1h-0.906l-0.094-1h-0.906c-0.001-0.008-0.094-1-0.094-1h-0.906c-0.001-0.008-0.094-1-0.094-1h-0.875c-0.001-0.008-0.094-1-0.094-1h-0.906c-0.001-0.008-0.094-1-0.094-1h-0.906c-0.15-0.01-0.24-0.97-0.24-0.97h-0.906c-0.001-0.008-0.094-1-0.094-1h-0.906c-0.001-0.008-0.094-1-0.094-1h-0.906c-0.001-0.008-0.094-1-0.094-1h-0.875c-0.001-0.008-0.094-1-0.094-1h-0.906c-0.001-0.008-0.094-1-0.094-1h-0.906c-0.001-0.008-0.094-0.968-0.094-0.969h-0.906c-0.001-0.008-0.094-1-0.094-1h-0.906c-0.001-0.008-0.094-1-0.094-1h-0.906c-0.001-0.008-0.094-1-0.094-1h-0.906c-0.001-0.008-0.094-1-0.094-1h-0.875c-0.001-0.008-0.094-1-0.094-1h-0.906c-0.001-0.008-0.094-0.968-0.094-0.969h-0.906c-0.001-0.008-0.094-1-0.094-1h-0.906c-0.001-0.008-0.094-1-0.094-1h-0.906l-0.094-1h-0.906c-0.001-0.008-0.094-1-0.094-1h-0.875c-0.001-0.008-0.094-1-0.094-1h-0.906c-0.001-0.008-0.094-1-0.094-1h-0.906c-0.001-0.008-0.094-0.969-0.094-0.969h-0.906c-0.001-0.008-0.094-1-0.094-1h-0.906c-0.001-0.008-0.094-1-0.094-1h-0.906c-0.001-0.008-0.094-1-0.094-1h-0.875c-0.001-0.008-0.094-1-0.094-1h-0.906c-0.001-0.008-0.094-1-0.094-1h-0.906c-0.001-0.008-0.094-0.969-0.094-0.969h-0.906c-0.001-0.008-0.094-1-0.094-1h-0.906c-0.001-0.008-0.094-1-0.094-1h-0.906c-0.001-0.008-0.094-1-0.094-1h-0.906c-0.001-0.008-0.094-1-0.094-1h-0.875c-0.001-0.008-0.094-1-0.094-1h-0.906c-0.001-0.008-0.094-0.969-0.094-0.969h-0.906c-0.001-0.008-0.094-1-0.094-1h-0.906c-0.001-0.008-0.094-1-0.094-1h-0.906c-0.001-0.008-0.094-1-0.094-1h-0.906c-0.001-0.008-0.094-1-0.094-1h-0.875c-0.001-0.008-0.094-1-0.094-1h-0.906c-0.001-0.008-0.094-0.969-0.094-0.969h-0.906c-0.001-0.008-0.094-1-0.094-1h-0.906c-0.001-0.008-0.094-1-0.094-1h-0.906l-0.094-1h-62.844"/>
 <g id="g8" transform="translate(0,-540.36)" fill-rule="evenodd">
  <path id="path10" fill-opacity="0.067" d="m256 541.36c-140.83 0-255 114.17-255 255s114.17 255 255 255 255-114.17 255-255-114.17-255-255-255m8.827 44.931c120.9 0 218.9 98 218.9 218.9s-98 218.9-218.9 218.9-218.93-98-218.93-218.9 98.03-218.9 218.93-218.9"/>
  <g id="g12" fill-opacity="0.129">
   <path id="path14" d="m256 544.79c-138.94 0-251.57 112.63-251.57 251.57s112.63 251.54 251.57 251.54 251.57-112.6 251.57-251.54-112.63-251.57-251.57-251.57m5.885 38.556c120.9 0 218.9 98 218.9 218.9s-98 218.9-218.9 218.9-218.93-98-218.93-218.9 98.03-218.9 218.93-218.9"/>
   <path id="path16" d="m256 548.72c-136.77 0-247.64 110.87-247.64 247.64s110.87 247.64 247.64 247.64 247.64-110.87 247.64-247.64-110.87-247.64-247.64-247.64m2.942 31.691c120.9 0 218.9 98 218.9 218.9s-98 218.9-218.9 218.9-218.93-98-218.93-218.9 98.03-218.9 218.93-218.9"/>
  </g>
  <path id="path18" d="m253.04 548.22c-135.42 0-245.19 109.78-245.19 245.19 0 135.42 109.78 245.19 245.19 245.19 135.42 0 245.19-109.78 245.19-245.19 0-135.42-109.78-245.19-245.19-245.19zm0 26.297c120.9 0 218.9 98 218.9 218.9s-98 218.9-218.9 218.9-218.93-98-218.93-218.9 98.03-218.9 218.93-218.9z" stroke-opacity="0.31" stroke="#000" stroke-width="4.904" fill="#fff"/>
 </g>
 <path id="path66" fill="#fff" d="m300.25 313.9h-79.69l-28.98 58.63h-53.916l129.06-247.34h62.846l24.768 247.34h-50.04l-4.04-58.63m-2.527-43.807-4.381-58.971-0.842-22.409-0.505-26.28h-0.842c-6.07 16.512-12.02 30.777-17.86 42.796l-31.676 64.868h56.11"/>
</svg>
