<?xml version="1.0" encoding="UTF-8" standalone="no"?>
<svg xmlns="http://www.w3.org/2000/svg" height="512" viewBox="0 0 512 512" width="512" version="1.1">
 <metadata id="metadata28"/>
 <g id="g4" transform="translate(0,-540.36)">
  <path id="path6" fill-rule="evenodd" fill="#BF9E73" transform="matrix(1.5323 0 0 1.5323 42.896 144.03)" d="m280 423.79c0 78.898-63.959 142.86-142.86 142.86-78.898 0-142.86-63.959-142.86-142.86 0-78.898 63.959-142.86 142.86-142.86 78.898 0 142.86 63.959 142.86 142.86"/>
  
  <g id="g10" fill-rule="evenodd">
   <path id="path12" fill-opacity="0.067" d="m256 541.36c-140.83 0-255 114.17-255 255s114.17 255 255 255 255-114.17 255-255-114.17-255-255-255m8.827 44.931c120.9 0 218.9 98 218.9 218.9s-98 218.9-218.9 218.9-218.93-98-218.93-218.9 98.03-218.9 218.93-218.9"/>
   <g id="g14" fill-opacity="0.129">
    <path id="path16" d="m256 544.79c-138.94 0-251.57 112.63-251.57 251.57s112.63 251.54 251.57 251.54 251.57-112.6 251.57-251.54-112.63-251.57-251.57-251.57m5.885 38.556c120.9 0 218.9 98 218.9 218.9s-98 218.9-218.9 218.9-218.93-98-218.93-218.9 98.03-218.9 218.93-218.9"/>
    <path id="path18" d="m256 548.72c-136.77 0-247.64 110.87-247.64 247.64s110.87 247.64 247.64 247.64 247.64-110.87 247.64-247.64-110.87-247.64-247.64-247.64m2.942 31.691c120.9 0 218.9 98 218.9 218.9s-98 218.9-218.9 218.9-218.93-98-218.93-218.9 98.03-218.9 218.93-218.9"/>
   </g>
   <path id="path20" d="m253.04 548.22c-135.42 0-245.19 109.78-245.19 245.19 0 135.42 109.78 245.19 245.19 245.19 135.42 0 245.19-109.78 245.19-245.19 0-135.42-109.78-245.19-245.19-245.19zm0 26.297c120.9 0 218.9 98 218.9 218.9s-98 218.9-218.9 218.9-218.93-98-218.93-218.9 98.03-218.9 218.93-218.9z" stroke-opacity="0.31" stroke="#000" stroke-width="4.904" fill="#fff"/>
  </g>
  <path id="path22" fill="#fff" d="m289.46 651.49c-0.138-0.049-0.091 0.207 0.115 0.746 0.227 0.597 0.56 0.933 0.746 0.746 0.186-0.186 0.012-0.68-0.402-1.09-0.224-0.223-0.377-0.373-0.459-0.402m-76.3 9.67c-2.22 0.008-3.255 0.386-5.969 1.722-2.309 1.137-4.791 2.968-6.083 4.476-2.481 2.894-5.267 8.511-6.227 12.54-5.182 21.747 7.167 49.06 24.965 55.21 8.283 2.863 17.259-0.367 22.12-7.948 6.02-9.376 6.945-23.862 2.41-37.877-2.637-8.151-6.02-13.746-11.708-19.426-6.268-6.256-10.1-8.221-16.787-8.608-1.11-0.064-1.986-0.089-2.726-0.086m68.753 5.423c-5.146 0.056-10.01 2.33-14.261 6.743-11.946 12.402-14.465 37.19-5.624 55.47 4.103 8.482 11.445 15.11 18.25 16.471 11.59 2.313 22.712-7.457 27.23-23.932 1.883-6.866 1.886-21.358 0-28.408-3.173-11.858-10.794-22.2-18.451-25.05-2.42-0.901-4.806-1.317-7.145-1.291m-120.6 30.962c-10.04 0.225-16.494 7.74-17.992 21.06-2.477 22.04 13.293 48.619 30.876 52.05 3.894 0.761 4.231 0.761 7.719-0.143 6.268-1.626 10.285-5.862 12.97-13.63 1.997-5.779 2.01-17.504 0-24.907-5.079-18.719-18.584-33.452-31.507-34.377-0.701-0.05-1.396-0.072-2.066-0.057m175.56 18.91c-4.579 0.022-9.136 1.992-13.11 6.198-6.344 6.708-9.525 17.14-8.895 29.3 0.429 8.292 1.473 12.484 4.792 19.398 3.152 6.565 8.809 12.476 13.802 14.434 4.173 1.636 10.588 1.523 14.233-0.23 6.185-2.973 12.01-11.599 13.917-20.603 1.426-6.732 1.178-16.594-0.574-23.501-3.973-15.663-14.09-25.04-24.16-24.993m-86.69 30.417c-10.4 0.042-12.09 0.195-17.561 1.636-9.449 2.487-24.05 10.495-30.962 16.959-6.583 6.158-8.123 9.899-9.613 23.731-1.16 10.764-1.775 13.538-4.247 18.766-2.595 5.49-7.179 10.244-18.766 19.426-11.551 9.154-13.759 11.183-17.1 15.868-6.179 8.659-6.493 17.564-1.033 27.949 7.93 15.08 27.88 27.607 47.2 29.642 14.914 1.57 26.05-2.023 56.18-18.221 19.948-10.724 29.808-13.892 43.01-13.86 4.257 0.01 11.05 0.306 15.12 0.689 10.762 1.013 23.452 0.9 28.896-0.258 11.392-2.425 19.741-9.143 25.309-20.373 5.894-11.888 7.12-21.876 3.53-29.04-4.047-8.08-10.12-13.41-17.877-15.754-2.205-0.666-7.82-1.996-12.482-2.956-4.663-0.959-10.06-2.337-11.994-3.07-8.921-3.384-17.812-11.583-28.15-25.883-8.03-11.1-12.917-15.675-20.976-19.599-9.682-4.714-14.732-5.709-28.494-5.653m-122.36 12.798c-1.918 0.09-3.818 0.452-5.653 1.062-8.589 2.853-13.605 13.324-12.11 25.25 2.1 16.748 14.952 33.501 29.556 38.48 2.804 0.956 5.443 1.338 8.895 1.349 4.29 0.014 5.361-0.214 8.666-1.865 6.739-3.367 10.359-10.394 10.359-20.17 0-22.734-21.17-44.977-39.714-44.1"/>
 </g>
</svg>
