<?xml version="1.0" encoding="UTF-8" standalone="no"?>
<svg xmlns:dc="http://purl.org/dc/elements/1.1/" xmlns:cc="http://creativecommons.org/ns#" xmlns:rdf="http://www.w3.org/1999/02/22-rdf-syntax-ns#" xmlns:svg="http://www.w3.org/2000/svg" xmlns="http://www.w3.org/2000/svg" xmlns:sodipodi="http://sodipodi.sourceforge.net/DTD/sodipodi-0.dtd" xmlns:inkscape="http://www.inkscape.org/namespaces/inkscape" height="512" viewBox="0 0 512 512" width="512" version="1.1" id="svg2" inkscape:version="0.91 r" sodipodi:docname="bitcoin-qt.svg">
<defs id="defs17" />
<sodipodi:namedview pagecolor="#ffffff" bordercolor="#666666" borderopacity="1" objecttolerance="10" gridtolerance="10" guidetolerance="10" inkscape:pageopacity="0" inkscape:pageshadow="2" inkscape:window-width="1680" inkscape:window-height="1022" id="namedview15" showgrid="false" inkscape:zoom="1.3037281" inkscape:cx="52.823198" inkscape:cy="244.919" inkscape:window-x="1680" inkscape:window-y="0" inkscape:window-maximized="1" inkscape:current-layer="svg2" />
<metadata id="metadata28">
<rdf:RDF>
<cc:Work rdf:about="">
<dc:format>image/svg+xml</dc:format>
<dc:type rdf:resource="http://purl.org/dc/dcmitype/StillImage" />
<dc:title></dc:title>
</cc:Work>
</rdf:RDF>
</metadata>
<path inkscape:connector-curvature="0" style="fill:#BF9E73;fill-rule:evenodd" d="m 472.63245,255.80662 c 0,120.9 -98.01,218.91 -218.91,218.91 -120.9,0 -218.91,-98.01 -218.91,-218.91 0,-120.9 98.01,-218.910008 218.91,-218.910008 120.9,0 218.91,98.010008 218.91,218.910008" id="path3530" />
<path inkscape:connector-curvature="0" style="opacity:0.25" d="m 231.93245,102.50662 c -7.48,4.4 -26.9,-3.344004 -27.84,5.97 -0.16,13.86 0.81,28.27 0.62,42.12 -19.61,0.11 -40.38,-0.35 -60,-0.25 2.27,8.53 1.68,23.53 0.06,28.6 11.62,12.98 -0.11,0.36 38,40.81 3.35,11.71 2.22,32.57 3.97,45.84 -6.07,23.08 23.84,79.88 -14.94,76.72 -18.39,-7.05 -23.53,17.98 -24.62,24.28 86.98,96.19 86.86,95.71 97.97,107.94 2.84,0.11 5.69,0.19 8.56,0.19 101.94,0 187.61,-69.7 211.97,-164.03 -63.03,-71.65 -0.18,0.19 -184.16,-208.13 -12.26,2.61 -24.93,5.96 -27.28,15.28 0.63,6.91 0.7,10.23 -0.72,9.85 -6.68,-7.66 -0.05,0.08 -21.59,-25.19" id="path3532" />
<path style="fill-opacity:0.06700003;fill-rule:evenodd" inkscape:connector-curvature="0" d="M 256,1 C 115.17,1 1,115.17 1,256 1,396.83 115.17,511 256,511 396.83,511 511,396.83 511,256 511,115.17 396.83,1 256,1 m 8.827,44.931 c 120.9,0 218.9,98 218.9,218.9 0,120.9 -98,218.9 -218.9,218.9 -120.9,0 -218.93,-98 -218.93,-218.9 0,-120.9 98.03,-218.9 218.93,-218.9" id="path8" />
<path inkscape:connector-curvature="0" style="fill:#ffffff" d="m 231.93245,102.51662 0,47.2 1.345,0.331 c 0.739,0.183 5.511,0.256 10.604,0.161 l 9.26,-0.171 0.156,-23.748 0.156,-23.746 28.06,0 0,23.914 c 0,18.618 0.166,23.963 0.748,24.13 0.41,0.119 4.046,0.651 8.08,1.183 18.01,2.376 33.962,7.943 44.672,15.586 8.656,6.177 15.62,15.937 17.905,25.09 1.405,5.648 1.444,17.593 0.061,23.265 -2.738,11.276 -10.781,22.67 -20.836,29.522 -1.561,1.063 -2.836,2.168 -2.836,2.454 10e-4,0.286 1.41,0.983 3.135,1.549 4.914,1.611 12.259,5.489 16.857,8.902 8.867,6.581 15.214,15.658 17.981,25.714 1.331,4.847 1.818,19.15 0.888,26.19 -2.515,19.04 -9.448,31.981 -22.325,41.685 -12.736,9.597 -28.19,14.01 -51.783,14.768 l -12.248,0.394 -0.154,24.05 -0.156,24.05 -28.06,0 -0.156,-24.05 -0.156,-24.05 -20.91,0 -0.156,24.05 -0.154,24.05 -28.06,0 0,-48.4 -56.754,0 0,-5.58 c 0,-3.069 0.176,-9.654 0.392,-14.636 l 0.392,-9.06 11.638,0 c 12.922,0 15.363,-0.433 18.365,-3.265 4.02,-3.793 3.865,-0.647 3.851,-77.34 -0.01,-67.13 -0.041,-69.12 -1.176,-71.61 -0.971,-2.138 -1.737,-2.829 -4.617,-4.159 -3.367,-1.555 -3.801,-1.599 -17.344,-1.836 l -13.891,-0.244 0,-28.524 29.423,-0.156 29.423,-0.154 0.298,-23.599 0.298,-23.596 13.891,-0.161 z m 0,78.883 0,28.626 c 0,15.745 0.163,29.05 0.363,29.572 0.322,0.837 2.75,0.946 21.18,0.946 20.302,0 20.912,-0.03 24.649,-1.392 10.79,-3.917 16.809,-10.405 19.534,-21.06 2.889,-11.296 0.161,-22.01 -7.02,-27.559 -9.05,-6.993 -19.22,-9.132 -43.4,-9.132 z m 0.298,88.72 -0.154,31.365 c -0.081,17.25 -0.02,31.728 0.154,32.17 0.461,1.201 43.628,0.603 49.586,-0.688 12.29,-2.662 21.22,-7.906 25.885,-15.202 2.819,-4.41 4.945,-11.525 5.305,-17.747 0.856,-14.822 -7.103,-23.61 -25.811,-28.496 -5.227,-1.365 -6.069,-1.404 -30.17,-1.404 z" id="path3592" />
<g style="fill-opacity:0.12900002;fill-rule:evenodd" id="g10">
<path inkscape:connector-curvature="0" d="m 256,4.433 c -138.94,0 -251.57,112.63 -251.57,251.57 0,138.94 112.63,251.57 251.57,251.57 138.94,0 251.57,-112.63 251.57,-251.57 C 507.57,117.063 394.94,4.433 256,4.433 m 5.885,38.556 c 120.9,0 218.9,98 218.9,218.9 0,120.9 -98,218.9 -218.9,218.9 -120.9,0 -218.93,-98 -218.93,-218.9 0,-120.9 98.03,-218.9 218.93,-218.9" id="path12" />
<path inkscape:connector-curvature="0" d="m 256,8.356 c -136.77,0 -247.64,110.87 -247.64,247.64 0,136.77 110.87,247.64 247.64,247.64 136.77,0 247.64,-110.87 247.64,-247.64 C 503.64,119.226 392.77,8.356 256,8.356 m 2.942,31.691 c 120.9,0 218.9,98 218.9,218.9 0,120.9 -98,218.9 -218.9,218.9 -120.9,0 -218.93,-98 -218.93,-218.9 0,-120.9 98.03,-218.9 218.93,-218.9" id="path14" />
</g>
<path style="fill:#ffffff;fill-rule:evenodd;stroke:#000000;stroke-width:4.90399981;stroke-opacity:0.31000001" inkscape:connector-curvature="0" d="m 253.04,7.859 c -135.42,0 -245.19,109.78 -245.19,245.19 0,135.42 109.78,245.19 245.19,245.19 135.42,0 245.19,-109.78 245.19,-245.19 0,-135.42 -109.78,-245.19 -245.19,-245.19 z m 0,26.297 c 120.9,0 218.9,98 218.9,218.9 0,120.9 -98,218.9 -218.9,218.9 -120.9,0 -218.93,-98 -218.93,-218.9 0,-120.9 98.03,-218.9 218.93,-218.9 z" id="path16" />
</svg>
