<?xml version="1.0" encoding="UTF-8" standalone="no"?>
<svg
   xmlns:dc="http://purl.org/dc/elements/1.1/"
   xmlns:cc="http://creativecommons.org/ns#"
   xmlns:rdf="http://www.w3.org/1999/02/22-rdf-syntax-ns#"
   xmlns:svg="http://www.w3.org/2000/svg"
   xmlns="http://www.w3.org/2000/svg"
   xmlns:sodipodi="http://sodipodi.sourceforge.net/DTD/sodipodi-0.dtd"
   xmlns:inkscape="http://www.inkscape.org/namespaces/inkscape"
   height="512"
   viewBox="0 0 512 512"
   width="512"
   version="1.1"
   id="svg2"
   inkscape:version="0.91 r13725"
   sodipodi:docname="bitwig-studio.svg">
  <defs
     id="defs17" />
  <sodipodi:namedview
     pagecolor="#ffffff"
     bordercolor="#666666"
     borderopacity="1"
     objecttolerance="10"
     gridtolerance="10"
     guidetolerance="10"
     inkscape:pageopacity="0"
     inkscape:pageshadow="2"
     inkscape:window-width="1920"
     inkscape:window-height="1052"
     id="namedview15"
     showgrid="false"
     inkscape:zoom="0.9099002"
     inkscape:cx="-80.578989"
     inkscape:cy="239.2924"
     inkscape:window-x="1920"
     inkscape:window-y="0"
     inkscape:window-maximized="1"
     inkscape:current-layer="svg2" />
  <metadata
     id="metadata28">
    <rdf:RDF>
      <cc:Work
         rdf:about="">
        <dc:format>image/svg+xml</dc:format>
        <dc:type
           rdf:resource="http://purl.org/dc/dcmitype/StillImage" />
        <dc:title></dc:title>
      </cc:Work>
    </rdf:RDF>
  </metadata>
  <path
     style="fill:#BF9E73;fill-rule:evenodd;fill-opacity:1"
     inkscape:connector-curvature="0"
     d="m 471.95,253.05 c 0,120.9 -98.01,218.9 -218.9,218.9 -120.9,0 -218.9,-98.01 -218.9,-218.9 0,-120.9 98.01,-218.9 218.9,-218.9 120.9,0 218.9,98.01 218.9,218.9"
     id="path6" />
  <path
     style="fill-opacity:0.06700003;fill-rule:evenodd"
     inkscape:connector-curvature="0"
     d="M 256,1 C 115.17,1 1,115.17 1,256 1,396.83 115.17,511 256,511 396.83,511 511,396.83 511,256 511,115.17 396.83,1 256,1 m 8.827,44.931 c 120.9,0 218.9,98 218.9,218.9 0,120.9 -98,218.9 -218.9,218.9 -120.9,0 -218.93,-98 -218.93,-218.9 0,-120.9 98.03,-218.9 218.93,-218.9"
     id="path8" />
  <g
     style="fill-opacity:0.12900002;fill-rule:evenodd"
     id="g10">
    <path
       inkscape:connector-curvature="0"
       d="m 256,4.433 c -138.94,0 -251.57,112.63 -251.57,251.57 0,138.94 112.63,251.57 251.57,251.57 138.94,0 251.57,-112.63 251.57,-251.57 C 507.57,117.063 394.94,4.433 256,4.433 m 5.885,38.556 c 120.9,0 218.9,98 218.9,218.9 0,120.9 -98,218.9 -218.9,218.9 -120.9,0 -218.93,-98 -218.93,-218.9 0,-120.9 98.03,-218.9 218.93,-218.9"
       id="path12" />
    <path
       inkscape:connector-curvature="0"
       d="m 256,8.356 c -136.77,0 -247.64,110.87 -247.64,247.64 0,136.77 110.87,247.64 247.64,247.64 136.77,0 247.64,-110.87 247.64,-247.64 C 503.64,119.226 392.77,8.356 256,8.356 m 2.942,31.691 c 120.9,0 218.9,98 218.9,218.9 0,120.9 -98,218.9 -218.9,218.9 -120.9,0 -218.93,-98 -218.93,-218.9 0,-120.9 98.03,-218.9 218.93,-218.9"
       id="path14" />
  </g>
  <path
     inkscape:connector-curvature="0"
     style="opacity:0.25"
     id="path4190"
     d="m 288.34358,169.79495 -18.4265,29.06243 -37.59521,-28.57421 -22.32653,26.24382 -35.94023,-26.78538 -21.20989,27.10225 71.55601,52.39255 -5.46529,9.28238 -44.81685,-31.28954 -17.31188,28.56518 L 115.95,226.80421 95.742013,254.51523 160.65595,300.17684 156.62662,314.08806 117.17085,284.90249 97.201786,312.95218 315.50312,463.945 C 371.72209,452.60959 417.9321,410.13521 455.50234,340.78157 l 17.83952,-69.34652 -127.11171,-101.27229 -16.70392,28.67726"
     sodipodi:nodetypes="ccccccccccccccccccccc" />
  <path
     style="fill:#ffffff;fill-rule:evenodd;stroke:#000000;stroke-width:4.90399981;stroke-opacity:0.31000001"
     inkscape:connector-curvature="0"
     d="m 253.04,7.859 c -135.42,0 -245.19,109.78 -245.19,245.19 0,135.42 109.78,245.19 245.19,245.19 135.42,0 245.19,-109.78 245.19,-245.19 0,-135.42 -109.78,-245.19 -245.19,-245.19 z m 0,26.297 c 120.9,0 218.9,98 218.9,218.9 0,120.9 -98,218.9 -218.9,218.9 -120.9,0 -218.93,-98 -218.93,-218.9 0,-120.9 98.03,-218.9 218.93,-218.9 z"
     id="path16" />
  <g
     transform="matrix(11.458821,0,0,11.458821,-24.434779,-27.641618)"
     style="fill:#ffffff;fill-opacity:1"
     id="g27">
    <path
       inkscape:connector-curvature="0"
       d="M 23,18.5 A 1.5,1.5 0 0 1 21.5,20 1.5,1.5 0 0 1 20,18.5 1.5,1.5 0 0 1 21.5,17 1.5,1.5 0 0 1 23,18.5 Z"
       id="path29"
       style="fill:#ffffff;fill-opacity:1" />
    <path
       inkscape:connector-curvature="0"
       d="M 28,18.5 A 1.5,1.5 0 0 1 26.5,20 1.5,1.5 0 0 1 25,18.5 1.5,1.5 0 0 1 26.5,17 1.5,1.5 0 0 1 28,18.5 Z"
       id="path31"
       style="fill:#ffffff;fill-opacity:1" />
    <path
       inkscape:connector-curvature="0"
       d="M 33,18.5 A 1.5,1.5 0 0 1 31.5,20 1.5,1.5 0 0 1 30,18.5 1.5,1.5 0 0 1 31.5,17 1.5,1.5 0 0 1 33,18.5 Z"
       id="path33"
       style="fill:#ffffff;fill-opacity:1" />
    <path
       inkscape:connector-curvature="0"
       d="M 18,18.5 A 1.5,1.5 0 0 1 16.5,20 1.5,1.5 0 0 1 15,18.5 1.5,1.5 0 0 1 16.5,17 1.5,1.5 0 0 1 18,18.5 Z"
       id="path35"
       style="fill:#ffffff;fill-opacity:1" />
    <path
       inkscape:connector-curvature="0"
       d="M 13,23.5 A 1.5,1.5 0 0 1 11.5,25 1.5,1.5 0 0 1 10,23.5 1.5,1.5 0 0 1 11.5,22 1.5,1.5 0 0 1 13,23.5 Z"
       id="path37"
       style="fill:#ffffff;fill-opacity:1" />
    <path
       inkscape:connector-curvature="0"
       d="M 18,23.5 A 1.5,1.5 0 0 1 16.5,25 1.5,1.5 0 0 1 15,23.5 1.5,1.5 0 0 1 16.5,22 1.5,1.5 0 0 1 18,23.5 Z"
       id="path39"
       style="fill:#ffffff;fill-opacity:1" />
    <path
       inkscape:connector-curvature="0"
       d="M 23,23.5 A 1.5,1.5 0 0 1 21.5,25 1.5,1.5 0 0 1 20,23.5 1.5,1.5 0 0 1 21.5,22 1.5,1.5 0 0 1 23,23.5 Z"
       id="path41"
       style="fill:#ffffff;fill-opacity:1" />
    <path
       inkscape:connector-curvature="0"
       d="M 28,23.5 A 1.5,1.5 0 0 1 26.5,25 1.5,1.5 0 0 1 25,23.5 1.5,1.5 0 0 1 26.5,22 1.5,1.5 0 0 1 28,23.5 Z"
       id="path43"
       style="fill:#ffffff;fill-opacity:1" />
    <path
       inkscape:connector-curvature="0"
       d="M 33,23.5 A 1.5,1.5 0 0 1 31.5,25 1.5,1.5 0 0 1 30,23.5 1.5,1.5 0 0 1 31.5,22 1.5,1.5 0 0 1 33,23.5 Z"
       id="path45"
       style="fill:#ffffff;fill-opacity:1" />
    <path
       inkscape:connector-curvature="0"
       d="M 38,23.5 A 1.5,1.5 0 0 1 36.5,25 1.5,1.5 0 0 1 35,23.5 1.5,1.5 0 0 1 36.5,22 1.5,1.5 0 0 1 38,23.5 Z"
       id="path47"
       style="fill:#ffffff;fill-opacity:1" />
    <path
       inkscape:connector-curvature="0"
       d="M 13,28.5 A 1.5,1.5 0 0 1 11.5,30 1.5,1.5 0 0 1 10,28.5 1.5,1.5 0 0 1 11.5,27 1.5,1.5 0 0 1 13,28.5 Z"
       id="path49"
       style="fill:#ffffff;fill-opacity:1" />
    <path
       inkscape:connector-curvature="0"
       d="M 18,28.5 A 1.5,1.5 0 0 1 16.5,30 1.5,1.5 0 0 1 15,28.5 1.5,1.5 0 0 1 16.5,27 1.5,1.5 0 0 1 18,28.5 Z"
       id="path51"
       style="fill:#ffffff;fill-opacity:1" />
    <path
       inkscape:connector-curvature="0"
       d="M 33,28.5 A 1.5,1.5 0 0 1 31.5,30 1.5,1.5 0 0 1 30,28.5 1.5,1.5 0 0 1 31.5,27 1.5,1.5 0 0 1 33,28.5 Z"
       id="path53"
       style="fill:#ffffff;fill-opacity:1" />
    <path
       inkscape:connector-curvature="0"
       d="M 38,28.5 A 1.5,1.5 0 0 1 36.5,30 1.5,1.5 0 0 1 35,28.5 1.5,1.5 0 0 1 36.5,27 1.5,1.5 0 0 1 38,28.5 Z"
       id="path55"
       style="fill:#ffffff;fill-opacity:1" />
  </g>
</svg>
