<?xml version="1.0" encoding="UTF-8" standalone="no"?>
<svg xmlns="http://www.w3.org/2000/svg" height="512" viewBox="0 0 512 512" width="512" version="1.1">
 <metadata id="metadata84"/>
 <g id="g4" fill-rule="evenodd">
  <path id="path6" fill="#BF9E73" d="m471.95 253.05c0 120.9-98.01 218.9-218.9 218.9-120.9 0-218.9-98.01-218.9-218.9 0-120.9 98.01-218.9 218.9-218.9 120.9 0 218.9 98.01 218.9 218.9"/>
  <path id="path8" fill-opacity="0.067" d="m256 1c-140.83 0-255 114.17-255 255s114.17 255 255 255 255-114.17 255-255-114.17-255-255-255m8.827 44.931c120.9 0 218.9 98 218.9 218.9s-98 218.9-218.9 218.9-218.93-98-218.93-218.9 98.03-218.9 218.93-218.9"/>
  <g id="g10" fill-opacity="0.129">
   <path id="path12" d="m256 4.433c-138.94 0-251.57 112.63-251.57 251.57s112.63 251.57 251.57 251.57 251.57-112.63 251.57-251.57-112.63-251.57-251.57-251.57m5.885 38.556c120.9 0 218.9 98 218.9 218.9s-98 218.9-218.9 218.9-218.93-98-218.93-218.9 98.03-218.9 218.93-218.9"/>
   <path id="path14" d="m256 8.356c-136.77 0-247.64 110.87-247.64 247.64s110.87 247.64 247.64 247.64 247.64-110.87 247.64-247.64-110.87-247.64-247.64-247.64m2.942 31.691c120.9 0 218.9 98 218.9 218.9s-98 218.9-218.9 218.9-218.93-98-218.93-218.9 98.03-218.9 218.93-218.9"/>
  </g>
  <path id="path16" d="m253.04 7.859c-135.42 0-245.19 109.78-245.19 245.19 0 135.42 109.78 245.19 245.19 245.19 135.42 0 245.19-109.78 245.19-245.19 0-135.42-109.78-245.19-245.19-245.19zm0 26.297c120.9 0 218.9 98 218.9 218.9s-98 218.9-218.9 218.9-218.93-98-218.93-218.9 98.03-218.9 218.93-218.9z" stroke-opacity="0.31" stroke="#000" stroke-width="4.904" fill="#fff"/>
 </g>
 <path id="path64" fill-opacity="0.235" d="m305.81 98.66c-31.342 0.173-62.706-0.306-94.03 0.284-22.431 4.439-27.378 30.809-39.42 46.818-10.399 12.881-13.607 32.666-1.761 45.741 15.392 16.948 31.714 32.392 47.938 48.531 23.528 23.19 46.48 47.28 70.06 70.06-5.414 10.234 4.067 32.32-17.813 10.438-25.9-25.9-52.39-51.06-74.37-74.969-23.789-23.789-24.651-30.973-44.518-31.348-19.715-1.454-38.19-0.096-57.628 3.097 4.432 8.249 0.206 0.406 14.271 16.564 13.578 13.578-1.466 10.682-2.612 15.561-7.22 13.817-20.451 28.796-9.767 44.36 15.207 26.521 30.17 53.19 45.529 79.62 33.33 33.33 65.49 64.816 95.91 95.24 1.932 4.066 10.01 2.922 16.431 3.062 86.52 1.305 169.67-55.39 201.59-135.57 13.474-32.68 18.68-68.66 15.352-103.84-31.77-32.879-67.944-66.769-96.24-98.06-6.01-0.229-12.746 9.265-17.291 6.842-9.935-8.988-18.538-21-29.523-29.647-5.356-6.848-32.373-2.794-13.366-6.531-13.694 0.706-0.725-1.679-5.519-1.947-14.892 1.128 3.675-2.426-1.372-2.469-14.57 0.875 4.948-1.707-1.844-1.844"/>
 <g id="g66" transform="matrix(1.1267 0 0 1.1267 39.675 39.677)" fill="#fff">
  <path id="path68" d="m336.08 227.3c-6.629 8.105-16.66 12.918-27.28 12.824 0 0-67.906 0-67.906 0.016l0.031-20.11c0.008-3.109-1.566-3.676-3.469-1.211-8.793 11.371-31.2 41.699-31.2 55.641 0 13.934 22.402 44.27 31.2 55.637 1.902 2.465 3.477 1.902 3.469-1.211l-0.031-20.03h34.609c8.348 0.059 16.473-4.227 20.938-11.957l40.02-69.35c1.555-2.699 1.59-2.664-0.383-0.254"/>
  <path id="path70" d="m294.77 84.28-17.355 10.06c0.012 0-8.684-15.184-12.156-21.2-4.914-8.449-13.949-13.77-23.719-13.742-9.785 0.012-18.836 5.371-23.637 13.883-0.02 0.016-7.98 13.723-15.984 27.672l16.15 27.973-17.563 9.84c-2.711 1.52-2.43 3.145 0.656 3.555 14.246 1.926 51.719 6.148 63.797-0.824 12.06-6.969 27.13-41.512 32.59-54.813 1.18-2.879-0.09-3.969-2.781-2.406"/>
  <path id="path72" d="m278.22 152.52-10.695 6.176c-13.48 7.781-18.1 25.02-10.309 38.492l20.594 35.668c16.09 0 31.945 0.008 31.961 0.008 9.801 0.074 18.918-5.164 23.828-13.621 4.879-8.461 4.836-18.996-0.129-27.426 0-0.012-7.621-13.199-16.746-28.996-7.789-13.477-25.03-18.09-38.504-10.301"/>
  <path id="path74" d="m49.602 224.97 40.04 69.35c1.555 2.699 1.508 2.699 0.402-0.211-3.691-9.781-2.855-20.887 2.531-30.05l33.961-58.809 17.398 10.09c2.695 1.563 3.969 0.48 2.785-2.398-5.449-13.301-20.52-47.867-32.586-54.832-12.08-6.965-49.555-2.734-63.797-0.809-3.09 0.418-3.387 2.066-0.688 3.613l17.402 9.988-17.324 29.98c-4.234 7.188-4.578 16.363-0.125 24.09"/>
  <path id="path76" d="m114.38 240.87c-8.02 13.93-15.965 27.672-15.977 27.695-4.953 8.418-5.01 18.926-0.105 27.402 4.891 8.48 14.02 13.711 23.793 13.637h33.492c15.566 0 28.19-12.617 28.19-28.18v-12.375c0-15.563-12.613-28.18-28.18-28.18"/>
  <path id="path78" d="m156.04 52.36c-8.926 0-16.453 5.03-20.789 12.13-3.992 6.473-13.781 23.445-22.17 38.08-7.738 13.504-3.043 30.781 10.434 38.566l10.922 6.301c13.48 7.781 30.703 3.156 38.48-10.328 13.887-24.06 33.754-58.49 38.926-67.39 5.332-9.184 14.09-15.27 24.273-16.91 3.078-0.496 3.102-0.445-0.016-0.445"/>
 </g>
</svg>
