<?xml version="1.0" encoding="UTF-8" standalone="no"?>
<svg
   xmlns:dc="http://purl.org/dc/elements/1.1/"
   xmlns:cc="http://creativecommons.org/ns#"
   xmlns:rdf="http://www.w3.org/1999/02/22-rdf-syntax-ns#"
   xmlns:svg="http://www.w3.org/2000/svg"
   xmlns="http://www.w3.org/2000/svg"
   xmlns:sodipodi="http://sodipodi.sourceforge.net/DTD/sodipodi-0.dtd"
   xmlns:inkscape="http://www.inkscape.org/namespaces/inkscape"
   height="512"
   viewBox="0 0 512 512"
   width="512"
   version="1.1"
   id="svg2"
   inkscape:version="0.91 r13725"
   sodipodi:docname="blueman-plugin.svg">
  <defs
     id="defs17" />
  <sodipodi:namedview
     pagecolor="#ffffff"
     bordercolor="#666666"
     borderopacity="1"
     objecttolerance="10"
     gridtolerance="10"
     guidetolerance="10"
     inkscape:pageopacity="0"
     inkscape:pageshadow="2"
     inkscape:window-width="1920"
     inkscape:window-height="1022"
     id="namedview15"
     showgrid="false"
     inkscape:zoom="0.4609375"
     inkscape:cx="-112.81356"
     inkscape:cy="256"
     inkscape:window-x="0"
     inkscape:window-y="0"
     inkscape:window-maximized="1"
     inkscape:current-layer="svg2" />
  <metadata
     id="metadata28">
    <rdf:RDF>
      <cc:Work
         rdf:about="">
        <dc:format>image/svg+xml</dc:format>
        <dc:type
           rdf:resource="http://purl.org/dc/dcmitype/StillImage" />
      </cc:Work>
    </rdf:RDF>
  </metadata>
  <g
     id="g4"
     transform="translate(0,-540.36)">
    <path
       id="path6"
       fill-rule="evenodd"
       fill="#98bd48"
       transform="matrix(1.5323 0 0 1.5323 42.896 144.03)"
       d="m280 423.79c0 78.898-63.959 142.86-142.86 142.86-78.898 0-142.86-63.959-142.86-142.86 0-78.898 63.959-142.86 142.86-142.86 78.898 0 142.86 63.959 142.86 142.86"
       style="fill:#BF9E73;fill-opacity:1" />
    <path
       id="path8"
       d="m252.5 116.66c-18.62 0-33.719 10.453-33.719 23.344 0.542 4.809 3.583 10.884 5.188 12.969 7.78 10.374 7.758 16.86 5.813 20.75h-62.875c-11.494 0-20.75 9.256-20.75 20.75v52.5c0.316 0.158 0.649 0.308 1 0.438v0.563c0.319 0.159 0.646 0.308 1 0.438v0.563c0.307 0.154 0.628 0.28 0.969 0.406v0.594c0.307 0.154 0.66 0.28 1 0.406v0.594c0.31 0.155 0.657 0.279 1 0.406v0.563c0.316 0.158 0.649 0.308 1 0.438v0.563c0.316 0.158 0.649 0.308 1 0.438v0.563c0.316 0.158 0.649 0.308 1 0.438v0.563c0.319 0.159 0.646 0.308 1 0.438v0.563c0.307 0.154 0.628 0.28 0.969 0.406v0.594c0.307 0.154 0.66 0.28 1 0.406v0.563c0.31 0.155 0.657 0.31 1 0.438v0.563c0.316 0.158 0.649 0.308 1 0.438v0.563c0.316 0.158 0.649 0.308 1 0.438v0.563c0.319 0.159 0.646 0.308 1 0.438v0.563c0.307 0.154 0.628 0.28 0.969 0.406v0.594c0.307 0.154 0.66 0.28 1 0.406v0.594c0.31 0.155 0.657 0.279 1 0.406v0.563c0.316 0.158 0.649 0.308 1 0.438v0.563c0.316 0.158 0.649 0.308 1 0.438v0.563c0.319 0.159 0.646 0.308 1 0.438v0.563c0.307 0.154 0.628 0.28 0.969 0.406v0.594c0.307 0.154 0.66 0.28 1 0.406v0.594c0.31 0.155 0.657 0.279 1 0.406v0.563c0.316 0.158 0.649 0.308 1 0.438v0.563c0.316 0.158 0.649 0.308 1 0.438v0.563c0.319 0.159 0.646 0.308 1 0.438v0.563c0.319 0.159 0.646 0.308 1 0.438v0.563c0.307 0.154 0.628 0.28 0.969 0.406v0.594c0.31 0.155 0.657 0.279 1 0.406v0.563c0.307 0.154 0.66 0.28 1 0.406v0.594c0.316 0.158 0.649 0.308 1 0.438v0.563c0.316 0.158 0.649 0.308 1 0.438v0.563c0.319 0.159 0.646 0.308 1 0.438v0.563c0.307 0.154 0.628 0.28 0.969 0.406v0.594c0.307 0.154 0.66 0.28 1 0.406v0.563c0.31 0.155 0.657 0.31 1 0.438v0.563c0.316 0.158 0.649 0.308 1 0.438v0.563c0.316 0.158 0.649 0.308 1 0.438v0.563c0.319 0.159 0.646 0.308 1 0.438v0.563c0.307 0.154 0.628 0.28 0.969 0.406v0.594c0.307 0.154 0.66 0.28 1 0.406v0.594c0.31 0.155 0.657 0.279 1 0.406v0.563c0.316 0.158 0.649 0.308 1 0.438v0.563c0.316 0.158 0.649 0.308 1 0.438v0.563c0.319 0.159 0.646 0.308 1 0.438v0.563c0.307 0.154 0.628 0.28 0.969 0.406v0.594c0.307 0.154 0.66 0.28 1 0.406v0.594c0.31 0.155 0.657 0.279 1 0.406v0.281c-4.063 4.953-9.299 7.938-15.03 7.938-3.956-0.067-9.973-3.606-12.969-5.188-10.374-7.78-16.86-7.758-20.75-5.813v68.06c0 6 2.545 11.375 6.594 15.16 0.324 0.347 0.653 0.676 1 1 0.353 0.377 0.714 0.744 1.094 1.094 0.253 0.267 0.514 0.528 0.781 0.781 0.352 0.382 0.715 0.74 1.094 1.094 0.322 0.345 0.655 0.678 1 1 0.322 0.345 0.655 0.678 1 1 0.337 0.361 0.669 0.727 1.031 1.063 0.339 0.36 0.699 0.696 1.063 1.031 0.253 0.267 0.514 0.528 0.781 0.781 0.335 0.363 0.671 0.724 1.031 1.063 0.336 0.362 0.702 0.694 1.063 1.031 0.322 0.345 0.655 0.678 1 1 0.322 0.345 0.655 0.678 1 1 0.354 0.379 0.712 0.742 1.094 1.094 0.253 0.267 0.514 0.528 0.781 0.781 0.335 0.363 0.671 0.724 1.031 1.063 0.336 0.362 0.702 0.694 1.063 1.031 0.322 0.345 0.655 0.678 1 1 0.322 0.345 0.655 0.678 1 1 0.324 0.347 0.653 0.676 1 1 0.317 0.339 0.63 0.683 0.969 1 0.317 0.339 0.661 0.652 1 0.969 0.324 0.347 0.653 0.676 1 1 0.322 0.345 0.655 0.678 1 1 0.322 0.345 0.655 0.678 1 1 0.337 0.361 0.669 0.727 1.031 1.063 0.339 0.36 0.699 0.696 1.063 1.031 0.253 0.267 0.514 0.528 0.781 0.781 0.352 0.382 0.715 0.74 1.094 1.094 0.322 0.345 0.655 0.678 1 1 0.322 0.345 0.655 0.678 1 1 0.322 0.345 0.655 0.678 1 1 0.354 0.379 0.712 0.742 1.094 1.094 0.253 0.267 0.514 0.528 0.781 0.781 0.335 0.363 0.671 0.724 1.031 1.063 0.336 0.362 0.702 0.694 1.063 1.031 0.322 0.345 0.655 0.678 1 1 0.322 0.345 0.655 0.678 1 1 0.354 0.379 0.712 0.742 1.094 1.094 0.253 0.267 0.514 0.528 0.781 0.781 0.35 0.38 0.717 0.741 1.094 1.094 0.324 0.347 0.653 0.676 1 1 0.322 0.345 0.655 0.678 1 1 0.322 0.345 0.655 0.678 1 1 0.324 0.347 0.653 0.676 1 1 0.353 0.377 0.714 0.744 1.094 1.094 0.253 0.267 0.514 0.528 0.781 0.781 0.352 0.382 0.715 0.74 1.094 1.094 0.322 0.345 0.655 0.678 1 1 0.322 0.345 0.655 0.678 1 1 0.337 0.361 0.669 0.727 1.031 1.063 0.339 0.36 0.699 0.696 1.063 1.031 0.253 0.267 0.514 0.528 0.781 0.781 0.335 0.363 0.671 0.724 1.031 1.063 0.336 0.362 0.702 0.694 1.063 1.031 0.322 0.345 0.655 0.678 1 1 0.322 0.345 0.655 0.678 1 1 0.354 0.379 0.712 0.742 1.094 1.094 0.253 0.267 0.514 0.528 0.781 0.781 0.335 0.363 0.671 0.724 1.031 1.063 0.336 0.362 0.702 0.694 1.063 1.031 0.322 0.345 0.655 0.678 1 1 0.322 0.345 0.655 0.678 1 1 0.324 0.347 0.653 0.676 1 1 0.317 0.339 0.63 0.683 0.969 1 0.317 0.339 0.661 0.652 1 0.969 0.324 0.347 0.653 0.676 1 1 0.322 0.345 0.655 0.678 1 1 0.322 0.345 0.655 0.678 1 1 0.337 0.361 0.669 0.727 1.031 1.063 0.339 0.36 0.699 0.696 1.063 1.031 0.253 0.267 0.514 0.528 0.781 0.781 0.352 0.382 0.715 0.74 1.094 1.094 0.322 0.345 0.655 0.678 1 1 0.322 0.345 0.655 0.678 1 1 0.322 0.345 0.655 0.678 1 1 0.354 0.379 0.712 0.742 1.094 1.094 0.253 0.267 0.514 0.528 0.781 0.781 0.335 0.363 0.671 0.724 1.031 1.063 0.336 0.362 0.702 0.694 1.063 1.031 0.322 0.345 0.655 0.678 1 1 0.322 0.345 0.655 0.678 1 1 0.354 0.379 0.712 0.742 1.094 1.094 0.253 0.267 0.514 0.528 0.781 0.781 0.35 0.38 0.717 0.741 1.094 1.094 0.324 0.347 0.653 0.676 1 1 0.322 0.345 0.655 0.678 1 1 0.322 0.345 0.655 0.678 1 1 0.324 0.347 0.653 0.676 1 1 0.353 0.377 0.714 0.744 1.094 1.094 0.253 0.267 0.514 0.528 0.781 0.781 0.352 0.382 0.715 0.74 1.094 1.094 0.322 0.345 0.655 0.678 1 1 0.322 0.345 0.655 0.678 1 1 0.337 0.361 0.669 0.727 1.031 1.063 0.339 0.36 0.699 0.696 1.063 1.031 0.223 0.235 0.454 0.463 0.688 0.688 1.327 0.024 2.636 0.063 3.969 0.063 105.02 0 192.77-73.981 214-172.66-0.197-0.199-0.389-0.403-0.594-0.594-0.322-0.345-0.655-0.678-1-1-0.322-0.345-0.655-0.678-1-1-0.287-0.307-0.57-0.617-0.875-0.906-0.332-0.36-0.675-0.696-1.031-1.031-0.371-0.4-0.755-0.787-1.156-1.156-0.289-0.305-0.599-0.588-0.906-0.875-0.322-0.345-0.655-0.678-1-1-0.322-0.345-0.655-0.678-1-1-0.287-0.307-0.57-0.617-0.875-0.906-0.35-0.38-0.717-0.741-1.094-1.094-0.353-0.377-0.714-0.744-1.094-1.094-0.289-0.305-0.599-0.588-0.906-0.875-0.322-0.345-0.655-0.678-1-1-0.322-0.345-0.655-0.678-1-1-0.287-0.307-0.57-0.617-0.875-0.906-0.35-0.38-0.717-0.741-1.094-1.094-0.356-0.381-0.71-0.74-1.094-1.094-0.289-0.305-0.599-0.588-0.906-0.875-0.322-0.345-0.655-0.678-1-1-0.322-0.345-0.655-0.678-1-1-0.322-0.345-0.655-0.678-1-1-0.287-0.307-0.57-0.617-0.875-0.906-0.384-0.416-0.771-0.804-1.188-1.188-0.289-0.305-0.599-0.588-0.906-0.875-0.322-0.345-0.655-0.678-1-1-0.322-0.345-0.655-0.678-1-1-0.322-0.345-0.655-0.678-1-1-0.287-0.307-0.57-0.617-0.875-0.906-0.332-0.36-0.675-0.696-1.031-1.031-0.371-0.4-0.755-0.787-1.156-1.156-0.289-0.305-0.599-0.588-0.906-0.875-0.322-0.345-0.655-0.678-1-1-0.322-0.345-0.655-0.678-1-1-0.287-0.307-0.57-0.617-0.875-0.906-0.37-0.401-0.756-0.786-1.156-1.156-0.336-0.356-0.671-0.7-1.031-1.031-0.289-0.305-0.599-0.588-0.906-0.875-0.322-0.345-0.655-0.678-1-1-0.322-0.345-0.655-0.678-1-1-0.322-0.345-0.655-0.678-1-1-0.287-0.307-0.57-0.617-0.875-0.906-0.384-0.416-0.771-0.804-1.188-1.188-0.289-0.305-0.599-0.588-0.906-0.875-0.322-0.345-0.655-0.678-1-1-0.322-0.345-0.655-0.678-1-1-0.322-0.345-0.655-0.678-1-1-0.287-0.307-0.57-0.617-0.875-0.906-0.332-0.36-0.675-0.696-1.031-1.031-0.371-0.4-0.755-0.787-1.156-1.156-0.289-0.305-0.599-0.588-0.906-0.875-0.322-0.345-0.655-0.678-1-1-0.322-0.345-0.655-0.678-1-1-0.287-0.307-0.57-0.617-0.875-0.906-0.35-0.38-0.717-0.741-1.094-1.094-0.353-0.377-0.714-0.744-1.094-1.094-0.289-0.305-0.599-0.588-0.906-0.875-0.322-0.345-0.655-0.678-1-1-0.322-0.345-0.655-0.678-1-1-0.287-0.307-0.57-0.617-0.875-0.906-0.35-0.38-0.717-0.741-1.094-1.094-0.356-0.381-0.71-0.74-1.094-1.094-0.289-0.305-0.599-0.588-0.906-0.875-0.322-0.345-0.655-0.678-1-1-0.322-0.345-0.655-0.678-1-1-0.322-0.345-0.655-0.678-1-1-0.287-0.307-0.57-0.617-0.875-0.906-0.384-0.416-0.771-0.804-1.188-1.188-0.289-0.305-0.599-0.588-0.906-0.875-0.322-0.345-0.655-0.678-1-1-0.322-0.345-0.655-0.678-1-1-0.322-0.345-0.655-0.678-1-1-0.287-0.307-0.57-0.617-0.875-0.906-0.332-0.36-0.675-0.696-1.031-1.031-0.371-0.4-0.755-0.787-1.156-1.156-0.289-0.305-0.599-0.588-0.906-0.875-0.322-0.345-0.655-0.678-1-1-0.322-0.345-0.655-0.678-1-1-0.287-0.307-0.57-0.617-0.875-0.906-0.37-0.401-0.756-0.786-1.156-1.156-0.336-0.356-0.671-0.7-1.031-1.031-0.289-0.305-0.599-0.588-0.906-0.875-0.322-0.345-0.655-0.678-1-1-0.322-0.345-0.655-0.678-1-1-0.322-0.345-0.655-0.678-1-1-0.287-0.307-0.57-0.617-0.875-0.906-0.384-0.416-0.771-0.804-1.188-1.188-0.289-0.305-0.599-0.588-0.906-0.875-0.322-0.345-0.655-0.678-1-1-0.322-0.345-0.655-0.678-1-1-0.322-0.345-0.655-0.678-1-1-0.287-0.307-0.57-0.617-0.875-0.906-0.353-0.384-0.713-0.738-1.094-1.094-0.353-0.377-0.714-0.744-1.094-1.094-0.289-0.305-0.599-0.588-0.906-0.875-0.322-0.345-0.655-0.678-1-1-0.322-0.345-0.655-0.678-1-1-0.287-0.307-0.57-0.617-0.875-0.906-0.35-0.38-0.717-0.741-1.094-1.094-0.353-0.377-0.714-0.744-1.094-1.094-0.289-0.305-0.599-0.588-0.906-0.875-0.322-0.345-0.655-0.678-1-1-0.322-0.345-0.655-0.678-1-1-0.287-0.307-0.57-0.617-0.875-0.906-0.37-0.401-0.756-0.786-1.156-1.156-0.336-0.356-0.671-0.7-1.031-1.031-0.289-0.305-0.599-0.588-0.906-0.875-0.322-0.345-0.655-0.678-1-1-0.322-0.345-0.655-0.678-1-1-0.322-0.345-0.655-0.678-1-1-0.287-0.307-0.57-0.617-0.875-0.906-0.384-0.416-0.771-0.804-1.188-1.188-0.289-0.305-0.599-0.588-0.906-0.875-0.322-0.345-0.655-0.678-1-1-0.322-0.345-0.655-0.678-1-1-0.322-0.345-0.655-0.678-1-1-0.287-0.307-0.57-0.617-0.875-0.906-0.332-0.36-0.675-0.696-1.031-1.031-0.371-0.4-0.755-0.787-1.156-1.156-0.289-0.305-0.599-0.588-0.906-0.875-3.782-4.048-9.154-6.594-15.16-6.594h-5.656c-0.303-0.31-0.614-0.607-0.938-0.906-0.327-0.338-0.648-0.674-1-1-0.327-0.338-0.648-0.674-1-1-0.327-0.338-0.649-0.675-1-1-0.327-0.338-0.649-0.675-1-1-0.01-0.011-0.021-0.021-0.031-0.031-0.011-0.01-0.02-0.021-0.031-0.031-0.025-0.026-0.068-0.037-0.094-0.063-0.141-0.16-0.291-0.311-0.438-0.469-0.136-0.132-0.266-0.276-0.406-0.406-0.318-0.327-0.628-0.685-0.969-1-0.01-0.011-0.021-0.021-0.031-0.031-0.011-0.01-0.021-0.022-0.031-0.031-0.303-0.31-0.614-0.607-0.938-0.906-0.327-0.338-0.648-0.674-1-1-0.327-0.338-0.649-0.675-1-1-0.327-0.338-0.649-0.675-1-1-0.01-0.011-0.021-0.021-0.031-0.031-0.011-0.01-0.02-0.021-0.031-0.031-0.025-0.026-0.068-0.037-0.094-0.063-0.141-0.16-0.291-0.311-0.438-0.469-0.136-0.132-0.266-0.276-0.406-0.406-0.318-0.327-0.659-0.685-1-1-0.318-0.327-0.628-0.654-0.969-0.969-0.327-0.338-0.648-0.674-1-1-0.327-0.338-0.649-0.675-1-1-0.327-0.338-0.649-0.675-1-1-0.01-0.011-0.021-0.021-0.031-0.031-0.011-0.01-0.02-0.021-0.031-0.031-0.025-0.026-0.068-0.037-0.094-0.063-0.141-0.16-0.291-0.311-0.438-0.469-0.136-0.132-0.266-0.276-0.406-0.406-0.318-0.327-0.659-0.685-1-1-0.318-0.327-0.628-0.654-0.969-0.969-0.327-0.338-0.648-0.674-1-1-0.327-0.338-0.648-0.674-1-1-0.327-0.338-0.649-0.675-1-1-0.347-0.359-0.688-0.718-1.063-1.063-0.025-0.026-0.068-0.037-0.094-0.063-0.141-0.16-0.291-0.311-0.438-0.469-0.136-0.132-0.266-0.276-0.406-0.406-0.318-0.327-0.628-0.654-0.969-0.969-0.327-0.338-0.648-0.674-1-1-0.327-0.338-0.648-0.674-1-1-0.327-0.338-0.649-0.675-1-1-0.327-0.338-0.649-0.675-1-1-0.01-0.011-0.021-0.021-0.031-0.031-0.011-0.01-0.02-0.021-0.031-0.031-0.025-0.026-0.068-0.037-0.094-0.063-0.141-0.16-0.291-0.311-0.438-0.469-0.136-0.132-0.266-0.276-0.406-0.406-0.318-0.327-0.659-0.685-1-1-0.318-0.327-0.628-0.654-0.969-0.969-0.327-0.338-0.648-0.674-1-1-0.327-0.338-0.649-0.675-1-1-0.327-0.338-0.649-0.675-1-1-0.01-0.011-0.021-0.021-0.031-0.031-0.011-0.01-0.02-0.021-0.031-0.031-0.025-0.026-0.068-0.037-0.094-0.063-0.141-0.16-0.291-0.311-0.438-0.469-0.136-0.132-0.266-0.276-0.406-0.406-0.318-0.327-0.659-0.685-1-1-0.318-0.327-0.628-0.654-0.969-0.969-0.327-0.338-0.648-0.674-1-1-0.327-0.338-0.648-0.674-1-1-0.327-0.338-0.649-0.675-1-1-0.01-0.011-0.021-0.021-0.031-0.031-0.011-0.01-0.02-0.021-0.031-0.031-0.025-0.026-0.068-0.037-0.094-0.063-0.262-0.299-0.563-0.585-0.844-0.875-0.021-0.02-0.041-0.043-0.063-0.063-0.025-0.026-0.068-0.037-0.094-0.063-0.141-0.16-0.291-0.311-0.438-0.469-0.136-0.132-0.266-0.276-0.406-0.406-0.318-0.327-0.628-0.654-0.969-0.969-0.327-0.338-0.648-0.674-1-1-0.327-0.338-0.648-0.674-1-1-6.05-6.253-16.313-10.375-28-10.375"
       fill-opacity="0.235"
       transform="translate(0,540.36)"
       color="#000000" />
    <g
       id="g10"
       fill-rule="evenodd">
      <path
         id="path12"
         fill-opacity="0.067"
         d="m256 541.36c-140.83 0-255 114.17-255 255s114.17 255 255 255 255-114.17 255-255-114.17-255-255-255m8.827 44.931c120.9 0 218.9 98 218.9 218.9s-98 218.9-218.9 218.9-218.93-98-218.93-218.9 98.03-218.9 218.93-218.9" />
      <g
         id="g14"
         fill-opacity="0.129">
        <path
           id="path16"
           d="m256 544.79c-138.94 0-251.57 112.63-251.57 251.57s112.63 251.54 251.57 251.54 251.57-112.6 251.57-251.54-112.63-251.57-251.57-251.57m5.885 38.556c120.9 0 218.9 98 218.9 218.9s-98 218.9-218.9 218.9-218.93-98-218.93-218.9 98.03-218.9 218.93-218.9" />
        <path
           id="path18"
           d="m256 548.72c-136.77 0-247.64 110.87-247.64 247.64s110.87 247.64 247.64 247.64 247.64-110.87 247.64-247.64-110.87-247.64-247.64-247.64m2.942 31.691c120.9 0 218.9 98 218.9 218.9s-98 218.9-218.9 218.9-218.93-98-218.93-218.9 98.03-218.9 218.93-218.9" />
      </g>
      <path
         id="path20"
         d="m253.04 548.22c-135.42 0-245.19 109.78-245.19 245.19 0 135.42 109.78 245.19 245.19 245.19 135.42 0 245.19-109.78 245.19-245.19 0-135.42-109.78-245.19-245.19-245.19zm0 26.297c120.9 0 218.9 98 218.9 218.9s-98 218.9-218.9 218.9-218.93-98-218.93-218.9 98.03-218.9 218.93-218.9z"
         stroke-opacity="0.31"
         stroke="#000"
         stroke-width="4.904"
         fill="#fff" />
    </g>
    <path
       id="path22"
       fill="#fff"
       d="m252.48 657.02c-18.62 0-33.714 10.45-33.714 23.341 0.542 4.809 3.582 10.882 5.187 12.967 7.78 10.374 7.78 16.857 5.835 20.747h-62.89c-11.494 0-20.747 9.253-20.747 20.747v52.52c3.89 1.945 10.374 1.945 20.747-5.835 2.085-1.605 8.158-4.645 12.967-5.187 12.891 0 23.341 15.09 23.341 33.714 0 18.62-10.45 33.714-23.341 33.714-3.956-0.067-9.971-3.605-12.967-5.187-10.374-7.78-16.857-7.78-20.747-5.835v68.08c0 11.494 9.253 20.747 20.747 20.747h83.64c1.945-3.89 1.945-10.374-5.835-20.747-1.605-2.085-4.645-8.158-5.187-12.967 0-12.891 15.09-23.341 33.714-23.341 18.62 0 33.714 10.45 33.714 23.341-0.067 3.956-3.605 9.971-5.187 12.967-7.78 10.374-7.78 16.857-5.835 20.747h36.956c11.494 0 20.747-9.253 20.747-20.747v-57.703c3.89-1.945 10.374-1.945 20.747 5.835 2.996 1.581 9.01 5.12 12.967 5.187 12.891 0 23.341-15.09 23.341-33.714 0-18.62-10.45-33.714-23.341-33.714-4.809 0.542-10.882 3.582-12.967 5.187-10.374 7.78-16.857 7.78-20.747 5.835v-62.89c0-11.494-9.253-20.747-20.747-20.747h-57.703c-1.945-3.89-1.945-10.374 5.835-20.747 1.581-2.996 5.12-9.01 5.187-12.967 0-12.891-15.09-23.341-33.714-23.341"
       color="#000000" />
  </g>
</svg>
