<?xml version="1.0" encoding="UTF-8" standalone="no"?>
<svg
   xmlns:dc="http://purl.org/dc/elements/1.1/"
   xmlns:cc="http://creativecommons.org/ns#"
   xmlns:rdf="http://www.w3.org/1999/02/22-rdf-syntax-ns#"
   xmlns:svg="http://www.w3.org/2000/svg"
   xmlns="http://www.w3.org/2000/svg"
   xmlns:sodipodi="http://sodipodi.sourceforge.net/DTD/sodipodi-0.dtd"
   xmlns:inkscape="http://www.inkscape.org/namespaces/inkscape"
   height="512"
   viewBox="0 0 512 512"
   width="512"
   version="1.1"
   id="svg2"
   inkscape:version="0.91 r13725"
   sodipodi:docname="bluetooth-inactive.svg">
  <defs
     id="defs18" />
  <sodipodi:namedview
     pagecolor="#ffffff"
     bordercolor="#666666"
     borderopacity="1"
     objecttolerance="10"
     gridtolerance="10"
     guidetolerance="10"
     inkscape:pageopacity="0"
     inkscape:pageshadow="2"
     inkscape:window-width="733"
     inkscape:window-height="480"
     id="namedview16"
     showgrid="false"
     inkscape:zoom="0.4609375"
     inkscape:cx="256"
     inkscape:cy="256"
     inkscape:window-x="0"
     inkscape:window-y="25"
     inkscape:window-maximized="0"
     inkscape:current-layer="svg2" />
  <metadata
     id="metadata30">
    <rdf:RDF>
      <cc:Work
         rdf:about="">
        <dc:format>image/svg+xml</dc:format>
        <dc:type
           rdf:resource="http://purl.org/dc/dcmitype/StillImage" />
      </cc:Work>
    </rdf:RDF>
  </metadata>
  <g
     id="g4"
     fill-rule="evenodd">
    <path
       id="path6"
       fill="#BF9E73"
       d="m471.95 253.05c0 120.9-98.01 218.9-218.9 218.9-120.9 0-218.9-98.01-218.9-218.9 0-120.9 98.01-218.9 218.9-218.9 120.9 0 218.9 98.01 218.9 218.9" />
    <path
       id="path8"
       fill-opacity="0.067"
       d="m256 1c-140.83 0-255 114.17-255 255s114.17 255 255 255 255-114.17 255-255-114.17-255-255-255m8.827 44.931c120.9 0 218.9 98 218.9 218.9s-98 218.9-218.9 218.9-218.93-98-218.93-218.9 98.03-218.9 218.93-218.9" />
  </g>
  <path
     id="path10"
     fill-opacity="0.235"
     d="m264.41 93.81c-6.976 0.372-12.441 6.139-12.438 13.13v123.94l-13.03 11.156-49.844-44.12c-3.478-3.331-8.507-4.467-13.09-3-4.587 1.467-8.01 5.3-8.906 10.03-0.862 4.529 0.719 9.156 4.125 12.219 0.3 0.336 0.6 0.662 0.938 0.969 0.321 0.362 0.667 0.703 1.031 1.031 0.311 0.349 0.649 0.683 1 1 0.318 0.356 0.672 0.677 1.031 1 0.308 0.342 0.654 0.689 1 1 0.306 0.34 0.624 0.659 0.969 0.969 0.3 0.336 0.6 0.662 0.938 0.969 0.321 0.362 0.667 0.703 1.031 1.031 0.311 0.349 0.649 0.683 1 1 0.357 0.4 0.747 0.767 1.156 1.125 0.276 0.299 0.569 0.6 0.875 0.875 0.323 0.358 0.666 0.707 1.031 1.031 0.283 0.312 0.56 0.62 0.875 0.906 0.321 0.362 0.667 0.703 1.031 1.031 0.311 0.349 0.649 0.683 1 1 0.323 0.361 0.666 0.704 1.031 1.031 0.31 0.345 0.651 0.655 1 0.969 0.308 0.342 0.654 0.689 1 1 0.306 0.34 0.624 0.659 0.969 0.969 0.3 0.336 0.6 0.662 0.938 0.969 0.321 0.362 0.667 0.703 1.031 1.031 0.323 0.361 0.666 0.704 1.031 1.031 0.31 0.345 0.651 0.655 1 0.969 0.308 0.342 0.654 0.689 1 1 0.306 0.34 0.624 0.659 0.969 0.969 0.3 0.336 0.6 0.662 0.938 0.969 0.321 0.362 0.667 0.703 1.031 1.031 0.311 0.349 0.649 0.683 1 1 0.318 0.356 0.672 0.677 1.031 1 0.308 0.342 0.654 0.689 1 1 0.323 0.358 0.666 0.707 1.031 1.031 0.283 0.312 0.56 0.62 0.875 0.906 0.321 0.362 0.667 0.703 1.031 1.031 0.311 0.349 0.649 0.683 1 1 0.323 0.361 0.666 0.704 1.031 1.031 0.31 0.345 0.651 0.655 1 0.969 0.335 0.372 0.682 0.758 1.063 1.094 0.269 0.293 0.546 0.574 0.844 0.844 0.321 0.362 0.667 0.703 1.031 1.031 0.311 0.349 0.649 0.683 1 1 0.323 0.361 0.666 0.704 1.031 1.031 0.31 0.345 0.651 0.655 1 0.969 0.308 0.342 0.654 0.689 1 1 0.306 0.34 0.624 0.659 0.969 0.969 0.296 0.331 0.606 0.635 0.938 0.938l-50.53 43.13c-3.736 3-5.551 7.811-4.719 12.531 0.52 2.95 2.029 5.568 4.188 7.5 0.327 0.364 0.665 0.706 1.031 1.031 0.306 0.337 0.629 0.664 0.969 0.969 0.313 0.347 0.651 0.688 1 1 0.337 0.374 0.684 0.729 1.063 1.063 0.311 0.338 0.624 0.695 0.969 1 0.295 0.323 0.611 0.614 0.938 0.906 0.327 0.364 0.665 0.706 1.031 1.031 0.316 0.348 0.648 0.687 1 1 0.306 0.337 0.629 0.664 0.969 0.969 0.337 0.374 0.684 0.729 1.063 1.063 0.316 0.344 0.649 0.691 1 1 0.291 0.317 0.585 0.619 0.906 0.906 0.317 0.353 0.646 0.683 1 1 0.327 0.364 0.665 0.706 1.031 1.031 0.306 0.337 0.629 0.664 0.969 0.969 0.357 0.395 0.722 0.775 1.125 1.125 0.299 0.322 0.607 0.646 0.938 0.938 0.311 0.338 0.624 0.695 0.969 1 0.295 0.323 0.611 0.614 0.938 0.906 0.327 0.364 0.665 0.706 1.031 1.031 0.306 0.337 0.629 0.664 0.969 0.969 0.313 0.347 0.651 0.688 1 1 0.337 0.374 0.684 0.729 1.063 1.063 0.311 0.338 0.624 0.695 0.969 1 0.295 0.323 0.611 0.614 0.938 0.906 0.327 0.364 0.665 0.706 1.031 1.031 0.316 0.348 0.648 0.687 1 1 0.306 0.337 0.629 0.664 0.969 0.969 0.337 0.374 0.684 0.729 1.063 1.063 0.311 0.338 0.624 0.695 0.969 1 0.295 0.323 0.611 0.614 0.938 0.906 0.327 0.364 0.665 0.706 1.031 1.031 0.316 0.348 0.648 0.687 1 1 0.306 0.337 0.629 0.664 0.969 0.969 0.337 0.374 0.684 0.729 1.063 1.063 0.316 0.344 0.649 0.691 1 1 0.311 0.338 0.624 0.695 0.969 1 0.295 0.323 0.611 0.614 0.938 0.906 0.327 0.364 0.665 0.706 1.031 1.031 0.306 0.337 0.629 0.664 0.969 0.969 0.313 0.347 0.651 0.688 1 1 0.337 0.374 0.684 0.729 1.063 1.063 0.311 0.338 0.624 0.695 0.969 1 0.295 0.323 0.611 0.614 0.938 0.906 0.327 0.364 0.665 0.706 1.031 1.031 0.306 0.337 0.629 0.664 0.969 0.969 0.313 0.347 0.651 0.688 1 1 0.337 0.374 0.684 0.729 1.063 1.063 0.311 0.338 0.624 0.695 0.969 1 0.295 0.323 0.611 0.614 0.938 0.906 0.327 0.364 0.665 0.706 1.031 1.031 0.316 0.348 0.648 0.687 1 1 0.306 0.337 0.629 0.664 0.969 0.969 0.337 0.374 0.684 0.729 1.063 1.063 0.316 0.344 0.649 0.691 1 1 0.291 0.317 0.585 0.619 0.906 0.906 0.327 0.364 0.665 0.706 1.031 1.031 0.316 0.348 0.648 0.687 1 1 0.306 0.337 0.629 0.665 0.969 0.969 0.357 0.395 0.722 0.775 1.125 1.125 0.299 0.322 0.607 0.646 0.938 0.938 0.311 0.338 0.624 0.695 0.969 1 0.295 0.323 0.611 0.614 0.938 0.906 0.327 0.364 0.665 0.706 1.031 1.031 0.306 0.337 0.629 0.665 0.969 0.969 0.313 0.347 0.651 0.688 1 1 0.337 0.374 0.684 0.729 1.063 1.063 0.311 0.338 0.624 0.695 0.969 1 0.295 0.323 0.611 0.614 0.938 0.906 0.327 0.364 0.665 0.706 1.031 1.031 0.316 0.348 0.648 0.687 1 1 0.306 0.337 0.629 0.665 0.969 0.969 0.337 0.374 0.684 0.729 1.063 1.063 0.311 0.338 0.624 0.695 0.969 1 0.295 0.323 0.611 0.614 0.938 0.906 0.327 0.364 0.665 0.706 1.031 1.031 0.316 0.348 0.648 0.687 1 1 0.306 0.337 0.629 0.665 0.969 0.969 0.337 0.374 0.684 0.729 1.063 1.063 0.316 0.344 0.649 0.691 1 1 0.317 0.345 0.647 0.69 1 1 0.291 0.317 0.585 0.619 0.906 0.906 0.327 0.364 0.665 0.706 1.031 1.031 0.306 0.337 0.629 0.665 0.969 0.969 0.313 0.347 0.651 0.688 1 1 0.337 0.374 0.684 0.729 1.063 1.063 0.311 0.338 0.624 0.695 0.969 1 0.295 0.323 0.611 0.614 0.938 0.906 0.327 0.364 0.665 0.706 1.031 1.031 0.306 0.337 0.629 0.665 0.969 0.969 0.313 0.347 0.651 0.688 1 1 0.337 0.374 0.684 0.729 1.063 1.063 0.311 0.338 0.624 0.695 0.969 1 0.295 0.323 0.611 0.614 0.938 0.906 0.327 0.364 0.665 0.706 1.031 1.031 0.316 0.348 0.648 0.687 1 1 0.306 0.337 0.629 0.665 0.969 0.969 0.337 0.374 0.684 0.729 1.063 1.063 0.316 0.344 0.649 0.691 1 1 0.291 0.317 0.585 0.619 0.906 0.906 0.327 0.364 0.665 0.706 1.031 1.031 0.316 0.348 0.648 0.687 1 1 0.306 0.337 0.629 0.665 0.969 0.969 0.357 0.395 0.722 0.775 1.125 1.125 0.299 0.322 0.607 0.646 0.938 0.938 0.311 0.338 0.624 0.695 0.969 1 0.295 0.323 0.611 0.614 0.938 0.906 0.327 0.364 0.665 0.706 1.031 1.031 0.306 0.337 0.629 0.665 0.969 0.969 0.313 0.347 0.651 0.688 1 1 0.337 0.374 0.684 0.729 1.063 1.063 0.311 0.338 0.624 0.695 0.969 1 0.295 0.323 0.611 0.614 0.938 0.906 0.327 0.364 0.665 0.706 1.031 1.031 0.316 0.348 0.648 0.687 1 1 0.306 0.337 0.629 0.665 0.969 0.969 0.337 0.374 0.684 0.729 1.063 1.063 0.311 0.338 0.624 0.695 0.969 1 0.295 0.323 0.611 0.614 0.938 0.906 0.327 0.364 0.665 0.706 1.031 1.031 0.316 0.348 0.648 0.687 1 1 0.306 0.337 0.629 0.665 0.969 0.969 0.337 0.374 0.684 0.729 1.063 1.063 0.316 0.344 0.649 0.691 1 1 0.291 0.317 0.585 0.619 0.906 0.906 0.317 0.353 0.646 0.683 1 1 0.327 0.364 0.665 0.706 1.031 1.031 0.306 0.337 0.629 0.665 0.969 0.969 0.313 0.347 0.651 0.688 1 1 0.337 0.374 0.684 0.729 1.063 1.063 0.311 0.338 0.624 0.695 0.969 1 0.295 0.323 0.611 0.614 0.938 0.906 0.327 0.364 0.665 0.706 1.031 1.031 0.306 0.337 0.629 0.665 0.969 0.969 0.313 0.347 0.651 0.688 1 1 0.337 0.374 0.684 0.729 1.063 1.063 0.311 0.338 0.624 0.695 0.969 1 0.295 0.323 0.611 0.614 0.938 0.906 0.327 0.364 0.665 0.706 1.031 1.031 0.316 0.348 0.648 0.687 1 1 0.306 0.337 0.629 0.665 0.969 0.969 0.089 0.099 0.19 0.185 0.281 0.281 84.77-20.838 150.15-91.05 163.84-178.41-0.296-0.337-0.604-0.661-0.938-0.969h-0.031c-0.305-0.349-0.625-0.682-0.969-1h-0.031c-0.305-0.349-0.625-0.682-0.969-1-0.001-0.001-0.462-0.431-0.469-0.438-0.177-0.184-0.343-0.388-0.531-0.563l-0.594-0.563c-0.135-0.137-0.264-0.275-0.406-0.406-0.305-0.349-0.656-0.682-1-1-0.305-0.349-0.625-0.682-0.969-1h-0.031c-0.305-0.349-0.625-0.682-0.969-1h-0.031c-0.305-0.349-0.625-0.682-0.969-1h-0.031c-0.305-0.349-0.625-0.682-0.969-1l-0.594-0.563c-0.135-0.137-0.264-0.275-0.406-0.406-0.305-0.349-0.656-0.682-1-1-0.305-0.349-0.656-0.682-1-1-0.305-0.349-0.625-0.682-0.969-1h-0.031c-0.305-0.349-0.625-0.682-0.969-1h-0.031c-0.305-0.349-0.625-0.682-0.969-1-0.001-0.001-0.583-0.553-0.594-0.563-0.135-0.137-0.264-0.275-0.406-0.406h-0.031c-0.305-0.349-0.625-0.682-0.969-1-0.305-0.349-0.656-0.682-1-1-0.305-0.349-0.625-0.682-0.969-1h-0.031c-0.305-0.349-0.625-0.682-0.969-1h-0.031c-0.305-0.349-0.625-0.682-0.969-1 0 0-0.462-0.432-0.469-0.438-0.177-0.184-0.343-0.388-0.531-0.563l-0.594-0.563c-0.135-0.137-0.264-0.275-0.406-0.406-0.305-0.349-0.656-0.682-1-1-0.305-0.349-0.625-0.682-0.969-1h-0.031c-0.305-0.349-0.625-0.682-0.969-1h-0.031c-0.305-0.349-0.625-0.682-0.969-1 0 0-0.462-0.432-0.469-0.438-0.177-0.184-0.343-0.388-0.531-0.563l-0.594-0.563c-0.135-0.137-0.264-0.275-0.406-0.406-0.305-0.349-0.656-0.682-1-1-0.305-0.349-0.625-0.682-0.969-1h-0.031c-0.305-0.349-0.625-0.682-0.969-1h-0.031c-0.305-0.349-0.625-0.682-0.969-1h-0.031c-0.305-0.349-0.625-0.682-0.969-1l-0.594-0.563c-0.135-0.137-0.264-0.275-0.406-0.406h-0.031c-0.305-0.349-0.625-0.682-0.969-1-0.305-0.349-0.656-0.682-1-1-0.305-0.349-0.625-0.682-0.969-1h-0.031c-0.305-0.349-0.625-0.682-0.969-1h-0.031c-0.305-0.349-0.625-0.682-0.969-1 0 0-0.584-0.553-0.594-0.563-0.135-0.137-0.264-0.275-0.406-0.406h-0.031c-0.305-0.349-0.625-0.682-0.969-1-0.305-0.349-0.656-0.682-1-1-0.305-0.349-0.625-0.682-0.969-1h-0.031c-0.305-0.349-0.625-0.682-0.969-1h-0.031c-0.305-0.349-0.625-0.682-0.969-1 0 0-0.462-0.432-0.469-0.438-0.177-0.184-0.343-0.388-0.531-0.563 0 0-0.584-0.553-0.594-0.563-0.135-0.137-0.264-0.275-0.406-0.406-0.305-0.349-0.656-0.682-1-1-0.305-0.349-0.625-0.682-0.969-1h-0.031c-0.305-0.349-0.625-0.682-0.969-1h-0.031c-0.305-0.349-0.625-0.682-0.969-1 0 0-0.462-0.432-0.469-0.438-0.177-0.184-0.343-0.388-0.531-0.563l-0.594-0.563c-0.135-0.137-0.264-0.275-0.406-0.406-0.305-0.349-0.656-0.682-1-1-0.305-0.349-0.656-0.682-1-1-0.305-0.349-0.625-0.682-0.969-1h-0.031c-0.305-0.349-0.625-0.682-0.969-1h-0.031c-0.305-0.349-0.625-0.682-0.969-1l-0.594-0.563c-0.135-0.137-0.264-0.275-0.406-0.406h-0.031c-0.305-0.349-0.625-0.682-0.969-1-0.305-0.349-0.656-0.682-1-1-0.305-0.349-0.625-0.682-0.969-1h-0.031c-0.305-0.349-0.625-0.682-0.969-1h-0.031c-0.305-0.349-0.625-0.682-0.969-1 0 0-0.462-0.432-0.469-0.438-0.177-0.184-0.343-0.388-0.531-0.563 0 0-0.584-0.553-0.594-0.563-0.135-0.137-0.264-0.275-0.406-0.406-0.305-0.349-0.656-0.682-1-1-0.305-0.349-0.625-0.682-0.969-1h-0.031c-0.305-0.349-0.625-0.682-0.969-1h-0.031c-0.305-0.349-0.625-0.682-0.969-1 0 0-0.462-0.432-0.469-0.438-0.177-0.184-0.343-0.388-0.531-0.563l-0.594-0.563c-0.135-0.137-0.264-0.275-0.406-0.406-0.305-0.349-0.656-0.682-1-1-0.305-0.349-0.625-0.682-0.969-1h-0.031c-0.305-0.349-0.625-0.682-0.969-1h-0.031c-0.305-0.349-0.625-0.682-0.969-1h-0.031c-0.305-0.349-0.625-0.682-0.969-1l-0.594-0.563c-0.135-0.137-0.264-0.275-0.406-0.406h-0.031c-0.305-0.349-0.625-0.682-0.969-1-0.305-0.349-0.656-0.682-1-1-0.305-0.349-0.625-0.682-0.969-1h-0.031c-0.305-0.349-0.625-0.682-0.969-1h-0.031c-0.305-0.349-0.625-0.682-0.969-1 0 0-0.584-0.553-0.594-0.563-0.135-0.137-0.264-0.275-0.406-0.406h-0.031c-0.305-0.349-0.625-0.682-0.969-1-0.305-0.349-0.656-0.682-1-1-0.305-0.349-0.625-0.682-0.969-1h-0.031c-0.305-0.349-0.625-0.682-0.969-1h-0.031c-0.305-0.349-0.625-0.682-0.969-1 0 0-0.463-0.432-0.469-0.438-0.177-0.184-0.343-0.388-0.531-0.563 0 0-0.584-0.553-0.594-0.563-0.135-0.137-0.264-0.275-0.406-0.406-0.305-0.349-0.656-0.682-1-1-0.305-0.349-0.625-0.682-0.969-1h-0.031c-0.305-0.349-0.625-0.682-0.969-1h-0.031c-0.305-0.349-0.625-0.682-0.969-1 0 0-0.463-0.432-0.469-0.438-0.177-0.184-0.343-0.388-0.531-0.563l-0.594-0.563c-0.135-0.137-0.264-0.275-0.406-0.406-0.305-0.349-0.656-0.682-1-1-0.305-0.349-0.656-0.682-1-1-0.305-0.349-0.625-0.682-0.969-1h-0.031c-0.305-0.349-0.625-0.682-0.969-1h-0.031c-0.305-0.349-0.625-0.682-0.969-1l-0.594-0.563c-0.135-0.137-0.264-0.275-0.406-0.406h-0.031c-0.305-0.349-0.625-0.682-0.969-1-0.305-0.349-0.656-0.682-1-1-0.305-0.349-0.625-0.682-0.969-1h-0.031c-0.305-0.349-0.625-0.682-0.969-1h-0.031c-0.305-0.349-0.625-0.682-0.969-1 0 0-0.463-0.432-0.469-0.438-0.177-0.184-0.343-0.388-0.531-0.563 0 0-0.584-0.553-0.594-0.563-0.135-0.137-0.264-0.275-0.406-0.406-0.305-0.349-0.656-0.682-1-1-0.305-0.349-0.625-0.682-0.969-1h-0.031c-0.305-0.349-0.625-0.682-0.969-1h-0.031c-0.305-0.349-0.625-0.682-0.969-1 0 0-0.463-0.432-0.469-0.438-0.177-0.184-0.343-0.388-0.531-0.563 0 0-0.584-0.553-0.594-0.563-0.135-0.137-0.264-0.275-0.406-0.406-0.305-0.349-0.656-0.682-1-1-0.305-0.349-0.625-0.682-0.969-1h-0.031c-0.305-0.349-0.625-0.682-0.969-1h-0.031c-0.305-0.349-0.625-0.682-0.969-1h-0.031c-0.305-0.349-0.625-0.682-0.969-1l-72.938-67.56c-2.608-2.409-6.08-3.661-9.625-3.469z"
     color="#000000" />
  <g
     id="g12"
     fill-rule="evenodd">
    <g
       id="g14"
       fill-opacity="0.129">
      <path
         id="path16"
         d="m256 4.433c-138.94 0-251.57 112.63-251.57 251.57s112.63 251.57 251.57 251.57 251.57-112.63 251.57-251.57-112.63-251.57-251.57-251.57m5.885 38.556c120.9 0 218.9 98 218.9 218.9s-98 218.9-218.9 218.9-218.93-98-218.93-218.9 98.03-218.9 218.93-218.9" />
      <path
         id="path18"
         d="m256 8.356c-136.77 0-247.64 110.87-247.64 247.64s110.87 247.64 247.64 247.64 247.64-110.87 247.64-247.64-110.87-247.64-247.64-247.64m2.942 31.691c120.9 0 218.9 98 218.9 218.9s-98 218.9-218.9 218.9-218.93-98-218.93-218.9 98.03-218.9 218.93-218.9" />
    </g>
    <path
       id="path20"
       d="m253.04 7.859c-135.42 0-245.19 109.78-245.19 245.19 0 135.42 109.78 245.19 245.19 245.19 135.42 0 245.19-109.78 245.19-245.19 0-135.42-109.78-245.19-245.19-245.19zm0 26.297c120.9 0 218.9 98 218.9 218.9s-98 218.9-218.9 218.9-218.93-98-218.93-218.9 98.03-218.9 218.93-218.9z"
       stroke-opacity="0.31"
       stroke="#000"
       stroke-width="4.904"
       fill="#fff" />
  </g>
  <path
     id="path24"
     stroke-linejoin="round"
     d="m173.96 314.98 63.68-54.52 100.39-85.955-72.92-67.56v298.12l65.41-64.34-150.13-132.97"
     stroke="#fff"
     stroke-linecap="round"
     stroke-width="26.27"
     fill="none" />
</svg>
