<?xml version="1.0" encoding="UTF-8" standalone="no"?>
<svg xmlns="http://www.w3.org/2000/svg" height="512" viewBox="0 0 512 512" width="512" version="1.1">
 <metadata id="metadata72"/>
 <path id="path4" d="m471.95 253.05c0 120.9-98.01 218.9-218.9 218.9-120.9 0-218.9-98.01-218.9-218.9 0-120.9 98.01-218.9 218.9-218.9 120.9 0 218.9 98.01 218.9 218.9" fill-rule="evenodd" fill="#BF9E73"/>
 <path id="path6" fill-opacity="0.235" d="m248.75 120.06c-14.505 2.154-28.851 5.274-42.625 10 12.88-4.236 27.324-7.606 42.625-10m141.94 80.06c2.693 2.894 5.03 5.556 6.688 7.656 10.3 13.01 18.606 27.396 21.719 37.594 1.861 6.097 1.89 15.379 0.031 21.09-3.939 12.11-13.555 25.953-27.938 40.28-13.192 13.14-25.766 22.669-41.37 31.375l-5.938 3.313-1.063 3.844c-5.327 19.16-25.851 37.12-51.938 45.44-12.588 4.01-30.551 6.332-33.375 4.313-0.798-0.57-1.438-1.499-1.438-2.063s1.728-2.748 3.844-4.844c6.342-6.283 12.854-17.03 16.25-26.875 0.661-1.917 1.188-3.571 1.188-3.656s-1.95-0.495-4.344-0.906c-6.085-1.046-14.846-4.118-22.344-7.875-16-8.02-29.21-17.862-53.09-39.469-25.22-22.815-28.15-24.912-32.813-23.625-3.892 1.075-7.778 4.983-14.25 14.438-3.437 5.02-7.536 10.541-9.125 12.25-5.563 5.982-19.11 13.676-30.719 17.469-6.137 2-14.742 3.333-17.313 2.688l-0.875-0.219c0.048 0.3 0.103 0.609 0.156 0.906 4.848 3.463 7.795 8.267 12.625 11.719 2.804 4.162 7.439 7.01 10.281 11.156 4.803 3.488 7.794 8.282 12.625 11.75 2.782 4.154 7.449 6.971 10.25 11.156 4.814 3.448 7.829 8.248 12.625 11.75 3.396 4.117 7.24 7.917 11.438 11.438 3.4 4.089 7.186 7.928 11.438 11.406 2.807 4.193 7.463 6.998 10.281 11.156 4.803 3.488 7.794 8.282 12.625 11.75 2.782 4.154 7.449 6.971 10.25 11.156 4.825 3.451 7.832 8.264 12.625 11.75 3.388 4.106 7.221 7.894 11.406 11.406 7.218 0.718 14.531 1.125 21.938 1.125 111.95 0 204.26-84.04 217.31-192.47-26.5-26.502-53.04-52.987-79.66-79.37m-26.875 31.438c-4.554 0.05-9.08 1.862-12.688 5.469-6.693 6.693-7.243 16.641-1.344 24.375 2.02 2.644 7.421 5.756 11.03 6.344 4.957 0.807 11.77-1.083 15.594-4.344 3.187-2.719 6-9.466 6-14.313 0-3.771-2.57-9.253-5.781-12.313-3.7-3.526-8.259-5.269-12.813-5.219m-268.34 66.813c-2.557 8.87-3.901 18.08-3.656 26.5l0.063-1.906c0.366-8.788 1.585-17.06 3.594-24.594"/>
 <g id="g8" fill-rule="evenodd">
  <path id="path10" fill-opacity="0.067" d="m256 1c-140.83 0-255 114.17-255 255s114.17 255 255 255 255-114.17 255-255-114.17-255-255-255m8.827 44.931c120.9 0 218.9 98 218.9 218.9s-98 218.9-218.9 218.9-218.93-98-218.93-218.9 98.03-218.9 218.93-218.9"/>
  <g id="g12" fill-opacity="0.129">
   <path id="path14" d="m256 4.433c-138.94 0-251.57 112.63-251.57 251.57s112.63 251.57 251.57 251.57 251.57-112.63 251.57-251.57-112.63-251.57-251.57-251.57m5.885 38.556c120.9 0 218.9 98 218.9 218.9s-98 218.9-218.9 218.9-218.93-98-218.93-218.9 98.03-218.9 218.93-218.9"/>
   <path id="path16" d="m256 8.356c-136.77 0-247.64 110.87-247.64 247.64s110.87 247.64 247.64 247.64 247.64-110.87 247.64-247.64-110.87-247.64-247.64-247.64m2.942 31.691c120.9 0 218.9 98 218.9 218.9s-98 218.9-218.9 218.9-218.93-98-218.93-218.9 98.03-218.9 218.93-218.9"/>
  </g>
  <path id="path18" d="m253.04 7.859c-135.42 0-245.19 109.78-245.19 245.19 0 135.42 109.78 245.19 245.19 245.19 135.42 0 245.19-109.78 245.19-245.19 0-135.42-109.78-245.19-245.19-245.19zm0 26.297c120.9 0 218.9 98 218.9 218.9s-98 218.9-218.9 218.9-218.93-98-218.93-218.9 98.03-218.9 218.93-218.9z" stroke-opacity="0.31" stroke="#000" stroke-width="4.904" fill="#fff"/>
 </g>
 <path id="path66" fill="#fff" d="m288.84 116.24c-0.366-0.001-0.755 0.01-1.189 0.02-1.155 0.027-2.57 0.105-4.372 0.201-35.28 1.886-68.924 9.02-93.62 19.864-12.618 5.541-12.613 5.551-1.189 16.902 9.07 9.01 15.182 16 20.871 23.933l3.546 4.936-4.049 4.392c-13.214 14.4-32.573 34.37-35.759 36.867-4.837 3.792-5.955 4.092-9.348 2.579-3.623-1.617-7.426-5.825-13.86-15.351-6.608-9.782-9.382-12.644-16.399-16.882-12.683-7.661-26.22-12.343-35.779-12.369-6.083-0.017-6.02-0.084-6 6.346 0.024 11.231 2.99 25.905 7.434 36.806 5.807 14.245 15.584 25.551 26.19 30.3l2.619 1.189-3.324 1.652c-19.19 9.637-31.437 34.09-32.737 65.33l-0.383 9.146 1.853 0.463c2.571 0.645 11.188-0.695 17.325-2.7 11.613-3.793 25.14-11.484 30.702-17.466 1.589-1.709 5.689-7.228 9.126-12.249 6.472-9.455 10.351-13.37 14.243-14.444 4.661-1.287 7.601 0.836 32.817 23.651 23.881 21.606 37.1 31.427 53.1 39.445 7.498 3.757 16.237 6.851 22.321 7.897 2.393 0.411 4.351 0.821 4.351 0.907 0 0.085-0.528 1.729-1.189 3.646-3.396 9.85-9.896 20.591-16.237 26.874-2.116 2.096-3.848 4.271-3.848 4.835s0.653 1.484 1.45 2.055c2.824 2.02 20.773-0.299 33.36-4.311 26.09-8.315 46.608-26.27 51.936-45.43l1.068-3.828 5.943-3.324c15.609-8.706 28.19-18.246 41.38-31.387 14.383-14.328 23.983-28.16 27.922-40.27 1.859-5.715 1.841-14.996-0.02-21.09-3.113-10.197-11.417-24.581-21.717-37.592-6.676-8.433-24.1-25.685-32.696-32.374-7.364-5.73-18.508-13.276-23.53-15.935-1.863-0.987-4.054-3.064-6.124-5.802-9.08-12.01-32.02-32.45-40.775-36.32-1.779-0.787-2.857-1.099-5.419-1.108m74.962 115.31c4.554-0.05 9.133 1.692 12.833 5.218 3.211 3.06 5.782 8.538 5.782 12.309 0 4.846-2.836 11.605-6.02 14.324-3.823 3.261-10.616 5.158-15.573 4.351-3.61-0.587-9.02-3.702-11.04-6.346-5.899-7.734-5.363-17.683 1.33-24.376 3.606-3.606 8.138-5.43 12.692-5.48"/>
</svg>
