<?xml version="1.0" encoding="UTF-8" standalone="no"?>
<svg
   xmlns:dc="http://purl.org/dc/elements/1.1/"
   xmlns:cc="http://creativecommons.org/ns#"
   xmlns:rdf="http://www.w3.org/1999/02/22-rdf-syntax-ns#"
   xmlns:svg="http://www.w3.org/2000/svg"
   xmlns="http://www.w3.org/2000/svg"
   xmlns:sodipodi="http://sodipodi.sourceforge.net/DTD/sodipodi-0.dtd"
   xmlns:inkscape="http://www.inkscape.org/namespaces/inkscape"
   height="512"
   viewBox="0 0 512 512"
   width="512"
   version="1.1"
   id="svg2"
   inkscape:version="0.91 r13725"
   sodipodi:docname="bluetooth.svg">
  <defs
     id="defs19" />
  <sodipodi:namedview
     pagecolor="#ffffff"
     bordercolor="#666666"
     borderopacity="1"
     objecttolerance="10"
     gridtolerance="10"
     guidetolerance="10"
     inkscape:pageopacity="0"
     inkscape:pageshadow="2"
     inkscape:window-width="1680"
     inkscape:window-height="999"
     id="namedview17"
     showgrid="false"
     inkscape:zoom="0.4609375"
     inkscape:cx="256"
     inkscape:cy="256"
     inkscape:window-x="0"
     inkscape:window-y="25"
     inkscape:window-maximized="1"
     inkscape:current-layer="svg2" />
  <metadata
     id="metadata32">
    <rdf:RDF>
      <cc:Work
         rdf:about="">
        <dc:format>image/svg+xml</dc:format>
        <dc:type
           rdf:resource="http://purl.org/dc/dcmitype/StillImage" />
      </cc:Work>
    </rdf:RDF>
  </metadata>
  <g
     style="fill-rule:evenodd"
     id="g6"
     transform="translate(0,-540.36)">
    <path
       style="fill:#BF9E73"
       inkscape:connector-curvature="0"
       transform="matrix(1.5323,0,0,1.5323,42.896,144.03)"
       d="m 280,423.79 c 0,78.898 -63.959,142.86 -142.86,142.86 -78.898,0 -142.86,-63.959 -142.86,-142.86 0,-78.898 63.959,-142.86 142.86,-142.86 78.898,0 142.86,63.959 142.86,142.86"
       id="path8" />
    <path
       style="fill-opacity:0.06700003"
       inkscape:connector-curvature="0"
       d="m 256,541.36 c -140.83,0 -255,114.17 -255,255 0,140.83 114.17,255 255,255 140.83,0 255,-114.17 255,-255 0,-140.83 -114.17,-255 -255,-255 m 8.827,44.931 c 120.9,0 218.9,98 218.9,218.9 0,120.9 -98,218.9 -218.9,218.9 -120.9,0 -218.93,-98 -218.93,-218.9 0,-120.9 98.03,-218.9 218.93,-218.9"
       id="path10" />
  </g>
  <path
     style="color:#000000;fill-opacity:0.23500001"
     inkscape:connector-curvature="0"
     d="m 264.41,93.81 c -6.976,0.372 -12.441,6.139 -12.438,13.13 l 0,123.94 -13.03,11.156 -49.844,-44.12 c -3.478,-3.331 -8.507,-4.467 -13.09,-3 -4.587,1.467 -8.01,5.3 -8.906,10.03 -0.862,4.529 0.719,9.156 4.125,12.219 0.3,0.336 0.6,0.662 0.938,0.969 0.321,0.362 0.667,0.703 1.031,1.031 0.311,0.349 0.649,0.683 1,1 0.318,0.356 0.672,0.677 1.031,1 0.308,0.342 0.654,0.689 1,1 0.306,0.34 0.624,0.659 0.969,0.969 0.3,0.336 0.6,0.662 0.938,0.969 0.321,0.362 0.667,0.703 1.031,1.031 0.311,0.349 0.649,0.683 1,1 0.357,0.4 0.747,0.767 1.156,1.125 0.276,0.299 0.569,0.6 0.875,0.875 0.323,0.358 0.666,0.707 1.031,1.031 0.283,0.312 0.56,0.62 0.875,0.906 0.321,0.362 0.667,0.703 1.031,1.031 0.311,0.349 0.649,0.683 1,1 0.323,0.361 0.666,0.704 1.031,1.031 0.31,0.345 0.651,0.655 1,0.969 0.308,0.342 0.654,0.689 1,1 0.306,0.34 0.624,0.659 0.969,0.969 0.3,0.336 0.6,0.662 0.938,0.969 0.321,0.362 0.667,0.703 1.031,1.031 0.323,0.361 0.666,0.704 1.031,1.031 0.31,0.345 0.651,0.655 1,0.969 0.308,0.342 0.654,0.689 1,1 0.306,0.34 0.624,0.659 0.969,0.969 0.3,0.336 0.6,0.662 0.938,0.969 0.321,0.362 0.667,0.703 1.031,1.031 0.311,0.349 0.649,0.683 1,1 0.318,0.356 0.672,0.677 1.031,1 0.308,0.342 0.654,0.689 1,1 0.323,0.358 0.666,0.707 1.031,1.031 0.283,0.312 0.56,0.62 0.875,0.906 0.321,0.362 0.667,0.703 1.031,1.031 0.311,0.349 0.649,0.683 1,1 0.323,0.361 0.666,0.704 1.031,1.031 0.31,0.345 0.651,0.655 1,0.969 0.335,0.372 0.682,0.758 1.063,1.094 0.269,0.293 0.546,0.574 0.844,0.844 0.321,0.362 0.667,0.703 1.031,1.031 0.311,0.349 0.649,0.683 1,1 0.323,0.361 0.666,0.704 1.031,1.031 0.31,0.345 0.651,0.655 1,0.969 0.308,0.342 0.654,0.689 1,1 0.306,0.34 0.624,0.659 0.969,0.969 0.296,0.331 0.606,0.635 0.938,0.938 l -50.53,43.13 c -3.736,3 -5.551,7.811 -4.719,12.531 0.52,2.95 2.029,5.568 4.188,7.5 0.327,0.364 0.665,0.706 1.031,1.031 0.306,0.337 0.629,0.664 0.969,0.969 0.313,0.347 0.651,0.688 1,1 0.337,0.374 0.684,0.729 1.063,1.063 0.311,0.338 0.624,0.695 0.969,1 0.295,0.323 0.611,0.614 0.938,0.906 0.327,0.364 0.665,0.706 1.031,1.031 0.316,0.348 0.648,0.687 1,1 0.306,0.337 0.629,0.664 0.969,0.969 0.337,0.374 0.684,0.729 1.063,1.063 0.316,0.344 0.649,0.691 1,1 0.291,0.317 0.585,0.619 0.906,0.906 0.317,0.353 0.646,0.683 1,1 0.327,0.364 0.665,0.706 1.031,1.031 0.306,0.337 0.629,0.664 0.969,0.969 0.357,0.395 0.722,0.775 1.125,1.125 0.299,0.322 0.607,0.646 0.938,0.938 0.311,0.338 0.624,0.695 0.969,1 0.295,0.323 0.611,0.614 0.938,0.906 0.327,0.364 0.665,0.706 1.031,1.031 0.306,0.337 0.629,0.664 0.969,0.969 0.313,0.347 0.651,0.688 1,1 0.337,0.374 0.684,0.729 1.063,1.063 0.311,0.338 0.624,0.695 0.969,1 0.295,0.323 0.611,0.614 0.938,0.906 0.327,0.364 0.665,0.706 1.031,1.031 0.316,0.348 0.648,0.687 1,1 0.306,0.337 0.629,0.664 0.969,0.969 0.337,0.374 0.684,0.729 1.063,1.063 0.311,0.338 0.624,0.695 0.969,1 0.295,0.323 0.611,0.614 0.938,0.906 0.327,0.364 0.665,0.706 1.031,1.031 0.316,0.348 0.648,0.687 1,1 0.306,0.337 0.629,0.664 0.969,0.969 0.337,0.374 0.684,0.729 1.063,1.063 0.316,0.344 0.649,0.691 1,1 0.311,0.338 0.624,0.695 0.969,1 0.295,0.323 0.611,0.614 0.938,0.906 0.327,0.364 0.665,0.706 1.031,1.031 0.306,0.337 0.629,0.664 0.969,0.969 0.313,0.347 0.651,0.688 1,1 0.337,0.374 0.684,0.729 1.063,1.063 0.311,0.338 0.624,0.695 0.969,1 0.295,0.323 0.611,0.614 0.938,0.906 0.327,0.364 0.665,0.706 1.031,1.031 0.306,0.337 0.629,0.664 0.969,0.969 0.313,0.347 0.651,0.688 1,1 0.337,0.374 0.684,0.729 1.063,1.063 0.311,0.338 0.624,0.695 0.969,1 0.295,0.323 0.611,0.614 0.938,0.906 0.327,0.364 0.665,0.706 1.031,1.031 0.316,0.348 0.648,0.687 1,1 0.306,0.337 0.629,0.664 0.969,0.969 0.337,0.374 0.684,0.729 1.063,1.063 0.316,0.344 0.649,0.691 1,1 0.291,0.317 0.585,0.619 0.906,0.906 0.327,0.364 0.665,0.706 1.031,1.031 0.316,0.348 0.648,0.687 1,1 0.306,0.337 0.629,0.665 0.969,0.969 0.357,0.395 0.722,0.775 1.125,1.125 0.299,0.322 0.607,0.646 0.938,0.938 0.311,0.338 0.624,0.695 0.969,1 0.295,0.323 0.611,0.614 0.938,0.906 0.327,0.364 0.665,0.706 1.031,1.031 0.306,0.337 0.629,0.665 0.969,0.969 0.313,0.347 0.651,0.688 1,1 0.337,0.374 0.684,0.729 1.063,1.063 0.311,0.338 0.624,0.695 0.969,1 0.295,0.323 0.611,0.614 0.938,0.906 0.327,0.364 0.665,0.706 1.031,1.031 0.316,0.348 0.648,0.687 1,1 0.306,0.337 0.629,0.665 0.969,0.969 0.337,0.374 0.684,0.729 1.063,1.063 0.311,0.338 0.624,0.695 0.969,1 0.295,0.323 0.611,0.614 0.938,0.906 0.327,0.364 0.665,0.706 1.031,1.031 0.316,0.348 0.648,0.687 1,1 0.306,0.337 0.629,0.665 0.969,0.969 0.337,0.374 0.684,0.729 1.063,1.063 0.316,0.344 0.649,0.691 1,1 0.317,0.345 0.647,0.69 1,1 0.291,0.317 0.585,0.619 0.906,0.906 0.327,0.364 0.665,0.706 1.031,1.031 0.306,0.337 0.629,0.665 0.969,0.969 0.313,0.347 0.651,0.688 1,1 0.337,0.374 0.684,0.729 1.063,1.063 0.311,0.338 0.624,0.695 0.969,1 0.295,0.323 0.611,0.614 0.938,0.906 0.327,0.364 0.665,0.706 1.031,1.031 0.306,0.337 0.629,0.665 0.969,0.969 0.313,0.347 0.651,0.688 1,1 0.337,0.374 0.684,0.729 1.063,1.063 0.311,0.338 0.624,0.695 0.969,1 0.295,0.323 0.611,0.614 0.938,0.906 0.327,0.364 0.665,0.706 1.031,1.031 0.316,0.348 0.648,0.687 1,1 0.306,0.337 0.629,0.665 0.969,0.969 0.337,0.374 0.684,0.729 1.063,1.063 0.316,0.344 0.649,0.691 1,1 0.291,0.317 0.585,0.619 0.906,0.906 0.327,0.364 0.665,0.706 1.031,1.031 0.316,0.348 0.648,0.687 1,1 0.306,0.337 0.629,0.665 0.969,0.969 0.357,0.395 0.722,0.775 1.125,1.125 0.299,0.322 0.607,0.646 0.938,0.938 0.311,0.338 0.624,0.695 0.969,1 0.295,0.323 0.611,0.614 0.938,0.906 0.327,0.364 0.665,0.706 1.031,1.031 0.306,0.337 0.629,0.665 0.969,0.969 0.313,0.347 0.651,0.688 1,1 0.337,0.374 0.684,0.729 1.063,1.063 0.311,0.338 0.624,0.695 0.969,1 0.295,0.323 0.611,0.614 0.938,0.906 0.327,0.364 0.665,0.706 1.031,1.031 0.316,0.348 0.648,0.687 1,1 0.306,0.337 0.629,0.665 0.969,0.969 0.337,0.374 0.684,0.729 1.063,1.063 0.311,0.338 0.624,0.695 0.969,1 0.295,0.323 0.611,0.614 0.938,0.906 0.327,0.364 0.665,0.706 1.031,1.031 0.316,0.348 0.648,0.687 1,1 0.306,0.337 0.629,0.665 0.969,0.969 0.337,0.374 0.684,0.729 1.063,1.063 0.316,0.344 0.649,0.691 1,1 0.291,0.317 0.585,0.619 0.906,0.906 0.317,0.353 0.646,0.683 1,1 0.327,0.364 0.665,0.706 1.031,1.031 0.306,0.337 0.629,0.665 0.969,0.969 0.313,0.347 0.651,0.688 1,1 0.337,0.374 0.684,0.729 1.063,1.063 0.311,0.338 0.624,0.695 0.969,1 0.295,0.323 0.611,0.614 0.938,0.906 0.327,0.364 0.665,0.706 1.031,1.031 0.306,0.337 0.629,0.665 0.969,0.969 0.313,0.347 0.651,0.688 1,1 0.337,0.374 0.684,0.729 1.063,1.063 0.311,0.338 0.624,0.695 0.969,1 0.295,0.323 0.611,0.614 0.938,0.906 0.327,0.364 0.665,0.706 1.031,1.031 0.316,0.348 0.648,0.687 1,1 0.306,0.337 0.629,0.665 0.969,0.969 0.089,0.099 0.19,0.185 0.281,0.281 84.77,-20.838 150.15,-91.05 163.84,-178.41 -0.296,-0.337 -0.604,-0.661 -0.938,-0.969 l -0.031,0 c -0.305,-0.349 -0.625,-0.682 -0.969,-1 l -0.031,0 c -0.305,-0.349 -0.625,-0.682 -0.969,-1 -0.001,-10e-4 -0.462,-0.431 -0.469,-0.438 -0.177,-0.184 -0.343,-0.388 -0.531,-0.563 l -0.594,-0.563 c -0.135,-0.137 -0.264,-0.275 -0.406,-0.406 -0.305,-0.349 -0.656,-0.682 -1,-1 -0.305,-0.349 -0.625,-0.682 -0.969,-1 l -0.031,0 c -0.305,-0.349 -0.625,-0.682 -0.969,-1 l -0.031,0 c -0.305,-0.349 -0.625,-0.682 -0.969,-1 l -0.031,0 c -0.305,-0.349 -0.625,-0.682 -0.969,-1 l -0.594,-0.563 c -0.135,-0.137 -0.264,-0.275 -0.406,-0.406 -0.305,-0.349 -0.656,-0.682 -1,-1 -0.305,-0.349 -0.656,-0.682 -1,-1 -0.305,-0.349 -0.625,-0.682 -0.969,-1 l -0.031,0 c -0.305,-0.349 -0.625,-0.682 -0.969,-1 l -0.031,0 c -0.305,-0.349 -0.625,-0.682 -0.969,-1 -10e-4,-0.001 -0.583,-0.553 -0.594,-0.563 -0.135,-0.137 -0.264,-0.275 -0.406,-0.406 l -0.031,0 c -0.305,-0.349 -0.625,-0.682 -0.969,-1 -0.305,-0.349 -0.656,-0.682 -1,-1 -0.305,-0.349 -0.625,-0.682 -0.969,-1 l -0.031,0 c -0.305,-0.349 -0.625,-0.682 -0.969,-1 l -0.031,0 c -0.305,-0.349 -0.625,-0.682 -0.969,-1 0,0 -0.462,-0.432 -0.469,-0.438 -0.177,-0.184 -0.343,-0.388 -0.531,-0.563 l -0.594,-0.563 c -0.135,-0.137 -0.264,-0.275 -0.406,-0.406 -0.305,-0.349 -0.656,-0.682 -1,-1 -0.305,-0.349 -0.625,-0.682 -0.969,-1 l -0.031,0 c -0.305,-0.349 -0.625,-0.682 -0.969,-1 l -0.031,0 c -0.305,-0.349 -0.625,-0.682 -0.969,-1 0,0 -0.462,-0.432 -0.469,-0.438 -0.177,-0.184 -0.343,-0.388 -0.531,-0.563 l -0.594,-0.563 c -0.135,-0.137 -0.264,-0.275 -0.406,-0.406 -0.305,-0.349 -0.656,-0.682 -1,-1 -0.305,-0.349 -0.625,-0.682 -0.969,-1 l -0.031,0 c -0.305,-0.349 -0.625,-0.682 -0.969,-1 l -0.031,0 c -0.305,-0.349 -0.625,-0.682 -0.969,-1 l -0.031,0 c -0.305,-0.349 -0.625,-0.682 -0.969,-1 l -0.594,-0.563 c -0.135,-0.137 -0.264,-0.275 -0.406,-0.406 l -0.031,0 c -0.305,-0.349 -0.625,-0.682 -0.969,-1 -0.305,-0.349 -0.656,-0.682 -1,-1 -0.305,-0.349 -0.625,-0.682 -0.969,-1 l -0.031,0 c -0.305,-0.349 -0.625,-0.682 -0.969,-1 l -0.031,0 c -0.305,-0.349 -0.625,-0.682 -0.969,-1 0,0 -0.584,-0.553 -0.594,-0.563 -0.135,-0.137 -0.264,-0.275 -0.406,-0.406 l -0.031,0 c -0.305,-0.349 -0.625,-0.682 -0.969,-1 -0.305,-0.349 -0.656,-0.682 -1,-1 -0.305,-0.349 -0.625,-0.682 -0.969,-1 l -0.031,0 c -0.305,-0.349 -0.625,-0.682 -0.969,-1 l -0.031,0 c -0.305,-0.349 -0.625,-0.682 -0.969,-1 0,0 -0.462,-0.432 -0.469,-0.438 -0.177,-0.184 -0.343,-0.388 -0.531,-0.563 0,0 -0.584,-0.553 -0.594,-0.563 -0.135,-0.137 -0.264,-0.275 -0.406,-0.406 -0.305,-0.349 -0.656,-0.682 -1,-1 -0.305,-0.349 -0.625,-0.682 -0.969,-1 l -0.031,0 c -0.305,-0.349 -0.625,-0.682 -0.969,-1 l -0.031,0 c -0.305,-0.349 -0.625,-0.682 -0.969,-1 0,0 -0.462,-0.432 -0.469,-0.438 -0.177,-0.184 -0.343,-0.388 -0.531,-0.563 l -0.594,-0.563 c -0.135,-0.137 -0.264,-0.275 -0.406,-0.406 -0.305,-0.349 -0.656,-0.682 -1,-1 -0.305,-0.349 -0.656,-0.682 -1,-1 -0.305,-0.349 -0.625,-0.682 -0.969,-1 l -0.031,0 c -0.305,-0.349 -0.625,-0.682 -0.969,-1 l -0.031,0 c -0.305,-0.349 -0.625,-0.682 -0.969,-1 l -0.594,-0.563 c -0.135,-0.137 -0.264,-0.275 -0.406,-0.406 l -0.031,0 c -0.305,-0.349 -0.625,-0.682 -0.969,-1 -0.305,-0.349 -0.656,-0.682 -1,-1 -0.305,-0.349 -0.625,-0.682 -0.969,-1 l -0.031,0 c -0.305,-0.349 -0.625,-0.682 -0.969,-1 l -0.031,0 c -0.305,-0.349 -0.625,-0.682 -0.969,-1 0,0 -0.462,-0.432 -0.469,-0.438 -0.177,-0.184 -0.343,-0.388 -0.531,-0.563 0,0 -0.584,-0.553 -0.594,-0.563 -0.135,-0.137 -0.264,-0.275 -0.406,-0.406 -0.305,-0.349 -0.656,-0.682 -1,-1 -0.305,-0.349 -0.625,-0.682 -0.969,-1 l -0.031,0 c -0.305,-0.349 -0.625,-0.682 -0.969,-1 l -0.031,0 c -0.305,-0.349 -0.625,-0.682 -0.969,-1 0,0 -0.462,-0.432 -0.469,-0.438 -0.177,-0.184 -0.343,-0.388 -0.531,-0.563 l -0.594,-0.563 c -0.135,-0.137 -0.264,-0.275 -0.406,-0.406 -0.305,-0.349 -0.656,-0.682 -1,-1 -0.305,-0.349 -0.625,-0.682 -0.969,-1 l -0.031,0 c -0.305,-0.349 -0.625,-0.682 -0.969,-1 l -0.031,0 c -0.305,-0.349 -0.625,-0.682 -0.969,-1 l -0.031,0 c -0.305,-0.349 -0.625,-0.682 -0.969,-1 l -0.594,-0.563 c -0.135,-0.137 -0.264,-0.275 -0.406,-0.406 l -0.031,0 c -0.305,-0.349 -0.625,-0.682 -0.969,-1 -0.305,-0.349 -0.656,-0.682 -1,-1 -0.305,-0.349 -0.625,-0.682 -0.969,-1 l -0.031,0 c -0.305,-0.349 -0.625,-0.682 -0.969,-1 l -0.031,0 c -0.305,-0.349 -0.625,-0.682 -0.969,-1 0,0 -0.584,-0.553 -0.594,-0.563 -0.135,-0.137 -0.264,-0.275 -0.406,-0.406 l -0.031,0 c -0.305,-0.349 -0.625,-0.682 -0.969,-1 -0.305,-0.349 -0.656,-0.682 -1,-1 -0.305,-0.349 -0.625,-0.682 -0.969,-1 l -0.031,0 c -0.305,-0.349 -0.625,-0.682 -0.969,-1 l -0.031,0 c -0.305,-0.349 -0.625,-0.682 -0.969,-1 0,0 -0.463,-0.432 -0.469,-0.438 -0.177,-0.184 -0.343,-0.388 -0.531,-0.563 0,0 -0.584,-0.553 -0.594,-0.563 -0.135,-0.137 -0.264,-0.275 -0.406,-0.406 -0.305,-0.349 -0.656,-0.682 -1,-1 -0.305,-0.349 -0.625,-0.682 -0.969,-1 l -0.031,0 c -0.305,-0.349 -0.625,-0.682 -0.969,-1 l -0.031,0 c -0.305,-0.349 -0.625,-0.682 -0.969,-1 0,0 -0.463,-0.432 -0.469,-0.438 -0.177,-0.184 -0.343,-0.388 -0.531,-0.563 l -0.594,-0.563 c -0.135,-0.137 -0.264,-0.275 -0.406,-0.406 -0.305,-0.349 -0.656,-0.682 -1,-1 -0.305,-0.349 -0.656,-0.682 -1,-1 -0.305,-0.349 -0.625,-0.682 -0.969,-1 l -0.031,0 c -0.305,-0.349 -0.625,-0.682 -0.969,-1 l -0.031,0 c -0.305,-0.349 -0.625,-0.682 -0.969,-1 l -0.594,-0.563 c -0.135,-0.137 -0.264,-0.275 -0.406,-0.406 l -0.031,0 c -0.305,-0.349 -0.625,-0.682 -0.969,-1 -0.305,-0.349 -0.656,-0.682 -1,-1 -0.305,-0.349 -0.625,-0.682 -0.969,-1 l -0.031,0 c -0.305,-0.349 -0.625,-0.682 -0.969,-1 l -0.031,0 c -0.305,-0.349 -0.625,-0.682 -0.969,-1 0,0 -0.463,-0.432 -0.469,-0.438 -0.177,-0.184 -0.343,-0.388 -0.531,-0.563 0,0 -0.584,-0.553 -0.594,-0.563 -0.135,-0.137 -0.264,-0.275 -0.406,-0.406 -0.305,-0.349 -0.656,-0.682 -1,-1 -0.305,-0.349 -0.625,-0.682 -0.969,-1 l -0.031,0 c -0.305,-0.349 -0.625,-0.682 -0.969,-1 l -0.031,0 c -0.305,-0.349 -0.625,-0.682 -0.969,-1 0,0 -0.463,-0.432 -0.469,-0.438 -0.177,-0.184 -0.343,-0.388 -0.531,-0.563 0,0 -0.584,-0.553 -0.594,-0.563 -0.135,-0.137 -0.264,-0.275 -0.406,-0.406 -0.305,-0.349 -0.656,-0.682 -1,-1 -0.305,-0.349 -0.625,-0.682 -0.969,-1 l -0.031,0 c -0.305,-0.349 -0.625,-0.682 -0.969,-1 l -0.031,0 c -0.305,-0.349 -0.625,-0.682 -0.969,-1 l -0.031,0 c -0.305,-0.349 -0.625,-0.682 -0.969,-1 l -72.938,-67.56 c -2.608,-2.409 -6.08,-3.661 -9.625,-3.469"
     id="path12" />
  <g
     style="fill-rule:evenodd"
     id="g14"
     transform="translate(0,-540.36)">
    <g
       style="fill-opacity:0.12900002"
       id="g16">
      <path
         inkscape:connector-curvature="0"
         d="M 256,544.79 C 117.06,544.79 4.43,657.42 4.43,796.36 4.43,935.3 117.06,1047.9 256,1047.9 394.94,1047.9 507.57,935.3 507.57,796.36 507.57,657.42 394.94,544.79 256,544.79 m 5.885,38.556 c 120.9,0 218.9,98 218.9,218.9 0,120.9 -98,218.9 -218.9,218.9 -120.9,0 -218.93,-98 -218.93,-218.9 0,-120.9 98.03,-218.9 218.93,-218.9"
         id="path18" />
      <path
         inkscape:connector-curvature="0"
         d="M 256,548.72 C 119.23,548.72 8.36,659.59 8.36,796.36 8.36,933.13 119.23,1044 256,1044 392.77,1044 503.64,933.13 503.64,796.36 503.64,659.59 392.77,548.72 256,548.72 m 2.942,31.691 c 120.9,0 218.9,98 218.9,218.9 0,120.9 -98,218.9 -218.9,218.9 -120.9,0 -218.93,-98 -218.93,-218.9 0,-120.9 98.03,-218.9 218.93,-218.9"
         id="path20" />
    </g>
    <path
       style="fill:#ffffff;stroke:#000000;stroke-width:4.90399981;stroke-opacity:0.31000001"
       inkscape:connector-curvature="0"
       d="M 253.04,548.22 C 117.62,548.22 7.85,658 7.85,793.41 c 0,135.42 109.78,245.19 245.19,245.19 135.42,0 245.19,-109.78 245.19,-245.19 0,-135.42 -109.78,-245.19 -245.19,-245.19 z m 0,26.297 c 120.9,0 218.9,98 218.9,218.9 0,120.9 -98,218.9 -218.9,218.9 -120.9,0 -218.93,-98 -218.93,-218.9 0,-120.9 98.03,-218.9 218.93,-218.9 z"
       id="path22" />
  </g>
  <path
     style="fill:none;stroke:#ffffff;stroke-width:26.27000046;stroke-linecap:round;stroke-linejoin:round"
     inkscape:connector-curvature="0"
     d="m 173.96,314.98 63.68,-54.52 100.39,-85.955 -72.92,-67.56 0,298.12 65.41,-64.34 -150.13,-132.97"
     id="path26" />
</svg>
