<?xml version="1.0" encoding="UTF-8" standalone="no"?>
<svg xmlns="http://www.w3.org/2000/svg" height="512" width="512" version="1.1">
 <metadata id="metadata66"/>
 <path id="path6" fill-rule="evenodd" fill="#BF9E73" d="m471.95 253.05c0 120.9-98.006 218.9-218.9 218.9-120.9 0-218.9-98.006-218.9-218.9 0-120.9 98.006-218.9 218.9-218.9 120.9 0 218.9 98.006 218.9 218.9z"/>
 <path id="path4182" fill-opacity="0.235" d="m155.59 141.28c-2.9038 5.6801-17.472 11.348-11.531 17.031 25.855 25.762 51.412 51.677 77.125 77.375-3.5884 10.176-4.6178 17.447-12.031 7.125-8.0162-8.1521-16.278-16.252-24.406-24.375-15.032 27.157-11.708 62.779 7.5938 86.969l-51.03 51.04c38.563 38.554 77.013 77.014 115.47 115.47 117.94-1.981 213.18-97.234 215.12-215.19-33.63-33.64-67.25-67.22-100.65-100.47-4.7671-5.1259-9.8687-9.905-14.781-14.969-17.902 17.648-35.844 36.363-53.719 53.312-4.4264-3.9759-6.7217-8.4098-13.594-11.938-26.531-13.047-59.852-7.9455-82.656 9.5312-16.961-16.975-33.916-33.938-50.906-50.906z" color="#000000"/>
 <path id="path8" d="m256 1c-140.83 0-255 114.17-255 255s114.17 255 255 255 255-114.17 255-255-114.17-255-255-255zm8.8269 44.931c120.9 0 218.9 97.999 218.9 218.9s-97.999 218.9-218.9 218.9-218.93-97.999-218.93-218.9 98.029-218.9 218.93-218.9z" fill-rule="evenodd" fill-opacity="0.067"/>
 <path id="path10" d="m256 4.4327c-138.94 0-251.57 112.63-251.57 251.57 0.0027 138.94 112.63 251.57 251.57 251.57s251.57-112.63 251.57-251.57-112.63-251.57-251.57-251.57zm5.8846 38.556c120.9 0 218.9 97.999 218.9 218.9s-97.999 218.9-218.9 218.9-218.93-97.999-218.93-218.9 98.029-218.9 218.93-218.9z" fill-rule="evenodd" fill-opacity="0.129"/>
 <path id="path12" d="m256 8.3558c-136.77 0-247.64 110.87-247.64 247.64-0.0042 136.77 110.87 247.64 247.64 247.64s247.64-110.87 247.64-247.64-110.87-247.64-247.64-247.64zm2.9423 31.691c120.9 0 218.9 97.999 218.9 218.9s-97.999 218.9-218.9 218.9-218.93-97.999-218.93-218.9 98.029-218.9 218.93-218.9z" fill-rule="evenodd" fill-opacity="0.129"/>
 <path id="path14" d="m253.04 7.8591c-135.42 0-245.19 109.78-245.19 245.19 0 135.42 109.78 245.19 245.19 245.19 135.42 0 245.19-109.78 245.19-245.19 0-135.42-109.78-245.19-245.19-245.19zm0 26.297c120.9 0 218.9 97.999 218.9 218.9s-97.999 218.9-218.9 218.9-218.93-97.999-218.93-218.9 98.029-218.9 218.93-218.9z" stroke-opacity="0.31" fill-rule="evenodd" stroke="#000" stroke-width="4.904" fill="#fff"/>
 <path id="path3103" fill="#fff" d="m155.6 141.28-14.288 14.288 51.037 51.096v0.17631l14.288 14.288c10.96-15.474 28.986-25.636 49.391-25.636 7.8807 0 15.321 1.669 22.226 4.4099l15.17-15.111c-11.207-5.9484-23.829-9.4666-37.396-9.4666-18.621 0-35.738 6.4549-49.391 17.052l-51.037-51.096zm200.86 0-51.096 51.096c-0.0773-0.0606-0.0991-0.17611-0.17631-0.23519l-14.288 14.288c15.533 10.953 25.636 29.116 25.636 49.567 0 7.9507-1.6226 15.565-4.4099 22.52l15.111 15.111c6.0022-11.247 9.4666-23.998 9.4666-37.631 0-18.621-6.4549-35.679-17.052-49.332l51.037-51.096-14.229-14.288zm-100.43 74.381c-22.278 0-40.336 18.058-40.336 40.336s18.058 40.336 40.336 40.336 40.336-18.058 40.336-40.336-18.058-40.336-40.336-40.336zm-71.264 2.7636c-6.0026 11.246-9.4666 23.939-9.4666 37.572 0 18.621 6.4549 35.738 17.052 49.391l-51.037 51.037 14.288 14.288 15.111-15.111-0.2352-0.2352 50.214-50.214c-15.27-10.97-25.23-28.9-25.23-49.14 0-7.9507 1.6814-15.506 4.4687-22.461l-15.17-15.111zm120.6 72.44c-10.96 15.474-28.927 25.636-49.332 25.636-8.1175 0-15.858-1.6869-22.932-4.5863l-15.111 15.111c11.345 6.1389 24.243 9.643 38.043 9.643 18.621 0 35.679-6.3961 49.332-16.993l51.096 51.037 14.229-14.288-29.987-30.223-21.05-20.815c0.0337-0.047-0.0337-0.19008 0-0.2352l-14.31-14.27z" color="#000000"/>
</svg>
