<?xml version="1.0" encoding="UTF-8" standalone="no"?>
<svg xmlns:dc="http://purl.org/dc/elements/1.1/" xmlns:cc="http://creativecommons.org/ns#" xmlns:rdf="http://www.w3.org/1999/02/22-rdf-syntax-ns#" xmlns:svg="http://www.w3.org/2000/svg" xmlns="http://www.w3.org/2000/svg" xmlns:sodipodi="http://sodipodi.sourceforge.net/DTD/sodipodi-0.dtd" xmlns:inkscape="http://www.inkscape.org/namespaces/inkscape" width="1814.17" height="1814.17" viewBox="0 0 512 512" version="1.1" id="svg2" inkscape:version="0.91 r" sodipodi:docname="boot-repair.svg">
<defs id="defs20" />
<sodipodi:namedview pagecolor="#ffffff" bordercolor="#666666" borderopacity="1" objecttolerance="10" gridtolerance="10" guidetolerance="10" inkscape:pageopacity="0" inkscape:pageshadow="2" inkscape:window-width="733" inkscape:window-height="480" id="namedview18" showgrid="false" inkscape:zoom="0.13008703" inkscape:cx="907.08502" inkscape:cy="907.08502" inkscape:window-x="0" inkscape:window-y="0" inkscape:window-maximized="0" inkscape:current-layer="layer1" />
<metadata id="metadata7217">
<rdf:RDF>
<cc:Work rdf:about="">
<dc:format>image/svg+xml</dc:format>
<dc:type rdf:resource="http://purl.org/dc/dcmitype/StillImage" />
</cc:Work>
</rdf:RDF>
</metadata>
<g inkscape:label="Layer 1" inkscape:groupmode="layer" id="layer1" transform="translate(0,215.00001)">
<path style="fill:#BF9E73;fill-rule:evenodd" inkscape:connector-curvature="0" id="path7506" d="m 471.94999,38.050006 c 0,120.899974 -98.01,218.909964 -218.90999,218.909964 -120.90001,0 -218.910003,-98.00999 -218.910003,-218.909964 0,-120.900014 98.009993,-218.910016 218.910003,-218.910016 120.89999,0 218.90999,98.010002 218.90999,218.910016" />
<path style="opacity:0.25" inkscape:connector-curvature="0" id="path7508" d="m 352.28,-98.53002 c -3.16601,-0.07786 -6.14301,2.290016 -11.50001,2.40601 -38.85,-2.880983 -86.93,34.250001 -59.03,74.030019 -1.471,17.9999989 -5.83499,30.5399794 -17.969,23.9379766 -10.92599,-10.7190043 -0.35599,0.1050708 -27,-26.1599986 -10.94799,-0.980977 -20.754,-1.933984 -32,-1.250003 -8.292,10.943999 3.285,45.798007 -25.03,34.500017 -9.08,-9.05000274 -19.354,2.933972 -28.875,-3.9689951 -14.411,8.1149851 -12.306,19.3090011 -0.81299,29.3099701 12.02999,16.266028 -9.81301,29.604018 -26.50001,23.438021 -13.39199,4.66201 -7.32,24.639004 -6.68799,35.906002 9.24099,10.329981 -0.10802,0.176126 27.68799,29.937981 1.304,1.39702 -3.42399,3.69002 -5.49999,5.688 -11.224,12.25001 8.42,21.25402 15.09,30.19003 32.37799,32.40895 64.95899,64.97896 97.46999,97.49998 0.46901,0.003 0.93701,0.0302 1.406,0.0302 120.9,0 218.91,-98.00998 218.91,-218.909998 0,-6.526979 -0.28384,-12.993978 -0.84401,-19.374991 -76.63999,-77.589238 -49.72397,-50.549252 -76.93797,-77.439229 -22.71702,-23.059992 -0.16301,0.233197 -38.56202,-38.719028 -1.194,-0.744983 -2.257,-1.036989 -3.313,-1.062992 z" />
<g style="fill-rule:evenodd" transform="translate(-2.4364798e-6,-215.00001)" id="g7510">
<path style="fill-opacity:0.06700003" inkscape:connector-curvature="0" id="path7512" d="M 256,1 C 115.17,1 1,115.17 1,256 1,396.83 115.17,511 256,511 396.83,511 511,396.83 511,256 511,115.17 396.83,1 256,1 m 8.827,44.931 c 120.9,0 218.9,98 218.9,218.9 0,120.9 -98,218.9 -218.9,218.9 -120.9,0 -218.93,-98 -218.93,-218.9 0,-120.9 98.03,-218.9 218.93,-218.9" />
<g style="fill-opacity:0.12900002" id="g7514">
<path inkscape:connector-curvature="0" id="path7516" d="M 256,4.43 C 117.06,4.43 4.43,117.06 4.43,256 4.43,394.94 117.06,507.57 256,507.57 394.94,507.57 507.57,394.94 507.57,256 507.57,117.06 394.94,4.43 256,4.43 m 5.885,38.556 c 120.9,0 218.9,98 218.9,218.9 0,120.9 -98,218.9 -218.9,218.9 -120.9,0 -218.93,-98 -218.93,-218.9 0,-120.9 98.03,-218.9 218.93,-218.9" />
<path inkscape:connector-curvature="0" id="path7518" d="M 256,8.36 C 119.23,8.36 8.36,119.23 8.36,256 8.36,392.77 119.23,503.64 256,503.64 392.77,503.64 503.64,392.77 503.64,256 503.64,119.23 392.77,8.36 256,8.36 m 2.942,31.691 c 120.9,0 218.9,98 218.9,218.9 0,120.9 -98,218.9 -218.9,218.9 -120.9,0 -218.93,-98 -218.93,-218.9 0,-120.9 98.03,-218.9 218.93,-218.9" />
</g>
<path style="fill:#ffffff;stroke:#000000;stroke-width:4.90399981;stroke-opacity:0.31000001" inkscape:connector-curvature="0" id="path7520" d="M 253.04,7.86 C 117.62,7.86 7.85,117.64 7.85,253.05 c 0,135.42 109.78,245.19 245.19,245.19 135.42,0 245.19,-109.78 245.19,-245.19 C 498.23,117.63 388.45,7.86 253.04,7.86 Z m 0,26.297 c 120.9,0 218.9,98 218.9,218.9 0,120.9 -98,218.9 -218.9,218.9 -120.9,0 -218.93,-98 -218.93,-218.9 0,-120.9 98.03,-218.9 218.93,-218.9 z" />
</g>
<g style="fill:#ffffff" transform="translate(-2.4364798e-6,-215.00001)" id="g7700">
<g style="line-height:125%;font-family:'Gentium Book Basic';letter-spacing:0;word-spacing:0" letter-spacing="0" word-spacing="0" id="g7702" line-height="125%" />
<path inkscape:connector-curvature="0" id="path7712" d="m 355.9,117.42 c -24.27,-6.094 -53.57,2.153 -71.48,20.09 -16.975,16.972 -16.312,35.16 -6.276,52.9 1.431,2.531 4.174,7.623 -2.784,14.584 -10.04,10.04 -23.331,22.683 -37.37,35.819 -19.08,17.382 -35.421,28.439 -35.996,29.01 -11.505,11.497 -11.856,29.778 -0.796,40.835 11.05,11.06 29.328,10.712 40.835,-0.795 19.376,-27.16 40.25,-48.43 63.949,-72.26 7.339,-7.346 13.798,-4.792 16.728,-3.204 17.34,9.38 35.07,9.613 51.641,-6.961 17.927,-17.936 26.18,-47.21 20.09,-71.48 l -43.09,43.09 c 0,0 -12.843,0.006 -25.699,-12.838 -12.845,-12.856 -12.838,-25.699 -12.838,-25.699 l 43.09,-43.09 z M 320.68,274.8 c -1.232,-1.093 -2.82,-1.769 -4.53,-1.967 l -22.21,-2.585 c -0.678,-2.269 -1.459,-4.506 -2.342,-6.717 -12.935,13.42 -25.09,27.604 -36.615,42.23 -8.297,16.548 -29.41,25.466 -46.846,18.783 -22.607,-7.378 -30.11,-39.02 -15.181,-56.723 18.847,-15.323 37.761,-30.749 55.4,-47.531 -2.185,-0.875 -4.41,-1.648 -6.651,-2.32 l -2.541,-21.987 c -0.453,-3.909 -3.553,-7.113 -7.955,-7.115 l -23.401,0.022 c -4.402,0 -7.392,3.221 -7.955,7.115 l -3.16,21.987 c -11.465,4.508 -14.516,5.924 -14.474,5.9 L 164.873,210.17 c -3.084,-2.444 -7.517,-2.515 -10.629,0.597 l -16.551,16.551 c -3.113,3.113 -2.952,7.474 -0.597,10.629 l 13.325,17.877 c -2.496,4.655 -4.439,9.521 -5.922,14.496 l -21.81,2.497 c -3.909,0.453 -7.091,3.575 -7.093,7.977 l -0.022,23.401 c 0,4.402 3.198,7.368 7.093,7.933 l 21.898,3.16 c 1.504,4.976 3.492,9.843 6.01,14.496 l -13.722,17.302 c -2.444,3.084 -2.515,7.561 0.597,10.673 l 16.551,16.551 c 3.113,3.113 7.496,2.93 10.651,0.575 l 17.854,-13.347 c 4.547,2.425 9.292,4.371 14.14,5.834 l 3.204,22.12 c 0.564,3.895 3.53,7.091 7.933,7.093 l 23.423,0 c 4.402,0 7.502,-3.206 7.955,-7.115 l 2.541,-22.12 c 4.923,-1.478 9.732,-3.429 14.341,-5.9 l 17.877,13.325 c 3.152,2.355 7.517,2.515 10.629,-0.597 L 301.1,357.627 c 3.113,-3.113 3.042,-7.543 0.597,-10.629 l -13.766,-17.39 c 2.462,-4.577 4.438,-9.344 5.922,-14.231 l 22.296,-3.248 c 3.895,-0.564 7.113,-3.553 7.115,-7.955 l -0.022,-23.401 c 0,-2.201 -0.769,-4.08 -2.055,-5.458 -0.161,-0.172 -0.332,-0.352 -0.508,-0.508 z m -87.33,3.712 c 2.27,2.27 3.69,5.396 3.69,8.861 0,6.93 -5.621,12.551 -12.551,12.551 -6.93,0 -12.551,-5.621 -12.551,-12.551 0,-6.93 5.621,-12.551 12.551,-12.551 3.465,0 6.591,1.42 8.861,3.69" />
</g>
</g>
</svg>
