<?xml version="1.0" encoding="UTF-8" standalone="no"?>
<svg xmlns="http://www.w3.org/2000/svg" xmlns:sodipodi="http://sodipodi.sourceforge.net/DTD/sodipodi-0.dtd" xmlns:inkscape="http://www.inkscape.org/namespaces/inkscape" width="1814.17" height="1814.17" viewBox="0 0 512 512" version="1.1">
 <metadata id="metadata7258"/>
 <g inkscape:label="Layer 1" inkscape:groupmode="layer" id="layer1" transform="translate(0,215.00001)">
  <g id="g7283" transform="matrix(3.7795274,0,0,3.7795274,733.1429,-118.66256)">
   <g id="g7696" transform="matrix(0.26458334,0,0,0.26458334,-193.9774,-25.489286)" fill-rule="evenodd">
    <path d="m 471.95,253.05 c 0,120.9 -98.01,218.91 -218.91,218.91 -120.9,0 -218.91,-98.01 -218.91,-218.91 0,-120.9 98.01,-218.91 218.91,-218.91 120.9,0 218.91,98.01 218.91,218.91" id="path7698" inkscape:connector-curvature="0" fill="#BF9E73"/>
    <path d="M 256,1 C 115.17,1 1,115.17 1,256 1,396.83 115.17,511 256,511 396.83,511 511,396.83 511,256 511,115.17 396.83,1 256,1 m 8.827,44.931 c 120.9,0 218.9,98 218.9,218.9 0,120.9 -98,218.9 -218.9,218.9 -120.9,0 -218.93,-98 -218.93,-218.9 0,-120.9 98.03,-218.9 218.93,-218.9" id="path7700" inkscape:connector-curvature="0" fill-opacity="0.067"/>
    <g id="g7702" fill-opacity="0.129">
     <path d="M 256,4.43 C 117.06,4.43 4.43,117.06 4.43,256 4.43,394.94 117.06,507.57 256,507.57 394.94,507.57 507.57,394.94 507.57,256 507.57,117.06 394.94,4.43 256,4.43 m 5.885,38.556 c 120.9,0 218.9,98 218.9,218.9 0,120.9 -98,218.9 -218.9,218.9 -120.9,0 -218.93,-98 -218.93,-218.9 0,-120.9 98.03,-218.9 218.93,-218.9" id="path7704" inkscape:connector-curvature="0"/>
     <path d="M 256,8.36 C 119.23,8.36 8.36,119.23 8.36,256 8.36,392.77 119.23,503.64 256,503.64 392.77,503.64 503.64,392.77 503.64,256 503.64,119.23 392.77,8.36 256,8.36 m 2.942,31.691 c 120.9,0 218.9,98 218.9,218.9 0,120.9 -98,218.9 -218.9,218.9 -120.9,0 -218.93,-98 -218.93,-218.9 0,-120.9 98.03,-218.9 218.93,-218.9" id="path7706" inkscape:connector-curvature="0"/>
    </g>
    <path d="M 253.04,7.86 C 117.62,7.86 7.85,117.64 7.85,253.05 c 0,135.42 109.78,245.19 245.19,245.19 135.42,0 245.19,-109.78 245.19,-245.19 C 498.23,117.63 388.45,7.86 253.04,7.86 Z m 0,26.297 c 120.9,0 218.9,98 218.9,218.9 0,120.9 -98,218.9 -218.9,218.9 -120.9,0 -218.93,-98 -218.93,-218.9 0,-120.9 98.03,-218.9 218.93,-218.9 z" id="path7708" inkscape:connector-curvature="0" stroke-opacity="0.31" fill="#ffffff" stroke="#000000" stroke-width="4.904"/>
   </g>
   <path d="m -142.17727,-2.3620556 0,28.6808336 -28.66496,0 -5.3e-4,3.193521 6.68073,6.678083 c -1.30175,1.775355 -2.07698,3.966105 -2.07698,6.334126 0,2.786062 1.06098,5.328708 2.80459,7.236354 l 0.51329,0.510646 4.72017,4.722813 -12.64233,0 0,3.182937 28.66496,28.664959 0,0.008 12.46982,12.46981 c 0.889,0.0397 1.778,0.0662 2.67758,0.0662 31.988126,0 57.919936,-25.931817 57.919936,-57.919943 0,-6.823604 -1.18268,-13.374688 -3.34962,-19.454813 L -88.377954,6.0966734 c -1.93939,-1.942042 -4.62756,-3.14325 -7.588246,-3.14325 -2.532063,0 -4.8551,0.881063 -6.68867,2.3495 l -7.66498,-7.666038 -3.18293,0 0,8.003646 -2.68817,-2.688166 -4.89479,0 -3.38931,5.762625 -5.76263,-5.762625 -3.43958,0 -5.31813,-5.31548 -3.18294,0 z" id="path7804" inkscape:connector-curvature="0" opacity="0.25"/>
   <path d="m -142.17727,-2.3620556 0,28.6834796 -28.66496,0 0,3.190875 28.66496,0 0,25.482022 -28.66496,0 0,3.182937 28.66496,0 0,28.675539 3.18294,0 0,-28.675539 25.48996,0 0,28.675539 3.18294,0 0,-28.675539 28.675536,0 0,-3.182937 -28.675536,0 0,-25.482022 28.675536,0 0,-3.190875 -28.675536,0 0,-28.6834796 -3.18294,0 0,28.6834796 -25.48996,0 0,-28.6834796 -3.18294,0 m 6.92944,5.315479 6.65692,10.3848956 -7.11068,11.054557 4.86992,0 4.9821,-8.10948 4.98581,8.111067 5.18425,0 -7.24429,-10.808229 6.731,-10.6336046 -4.89479,0 -4.52967,7.7152506 -4.62201,-7.7152506 -5.01068,0 z m 39.282688,0 c -5.921108,0 -10.723828,4.79425 -10.723828,10.7156246 0,5.921376 4.80219,10.723828 10.723828,10.723828 5.921638,0 10.723828,-4.802188 10.723828,-10.723828 0,-5.9216386 -4.80219,-10.7156246 -10.723828,-10.7156246 m 0,3.158596 c 4.177508,0 7.565498,3.379523 7.565498,7.5570286 0,4.177507 -3.38799,7.565496 -7.565498,7.565496 -4.177508,0 -7.565498,-3.387989 -7.565498,-7.565496 0,-4.1775056 3.38799,-7.5570286 7.565498,-7.5570286 m -43.026538,23.3997506 25.48995,0 0,25.482021 -25.48995,0 0,-25.482021 m -16.52059,2.2987 c -5.92111,0 -10.72383,4.79425 -10.72383,10.715625 0,5.921375 4.80219,10.723828 10.72383,10.723828 5.92164,0 10.72383,-4.802188 10.72383,-10.723828 0,-5.92164 -4.80219,-10.715625 -10.72383,-10.715625 m 0,3.158596 c 4.17751,0 7.5655,3.379523 7.5655,7.557029 0,4.177507 -3.38799,7.565496 -7.5655,7.565496 -4.1775,0 -7.56549,-3.387989 -7.56549,-7.565496 0,-4.177506 3.38799,-7.557029 7.56549,-7.557029 m 20.26444,25.524355 6.65692,10.384896 -7.112,11.05165 4.87098,0 4.98475,-8.112129 4.98475,8.112129 5.18424,0 -7.24297,-10.806646 6.73047,-10.633604 -4.89479,0 -4.52966,7.71525 -4.62201,-7.71525 -5.01068,0 z" id="path7806" inkscape:connector-curvature="0" fill="#ffffff"/>
  </g>
 </g>
</svg>
