<?xml version="1.0" encoding="UTF-8" standalone="no"?>
<svg xmlns="http://www.w3.org/2000/svg" xmlns:sodipodi="http://sodipodi.sourceforge.net/DTD/sodipodi-0.dtd" xmlns:inkscape="http://www.inkscape.org/namespaces/inkscape" width="1814.17" height="1814.17" viewBox="0 0 512 512" version="1.1">
 <metadata id="metadata7282"/>
 <g inkscape:label="Layer 1" inkscape:groupmode="layer" id="layer1" transform="translate(0,215.00001)">
  <g id="g7307" transform="matrix(3.7795274,0,0,3.7795274,418.85716,-564.37684)">
   <g id="g7792" transform="matrix(0.26458334,0,0,0.26458334,-110.82263,92.43929)" fill-rule="evenodd">
    <path d="m 471.95,253.05 c 0,120.9 -98.01,218.91 -218.91,218.91 -120.9,0 -218.91,-98.01 -218.91,-218.91 0,-120.9 98.01,-218.91 218.91,-218.91 120.9,0 218.91,98.01 218.91,218.91" id="path7794" inkscape:connector-curvature="0" fill="#BF9E73"/>
    <path d="M 256,1 C 115.17,1 1,115.17 1,256 1,396.83 115.17,511 256,511 396.83,511 511,396.83 511,256 511,115.17 396.83,1 256,1 m 8.827,44.931 c 120.9,0 218.9,98 218.9,218.9 0,120.9 -98,218.9 -218.9,218.9 -120.9,0 -218.93,-98 -218.93,-218.9 0,-120.9 98.03,-218.9 218.93,-218.9" id="path7796" inkscape:connector-curvature="0" fill-opacity="0.067"/>
    <g id="g7798" fill-opacity="0.129">
     <path d="M 256,4.43 C 117.06,4.43 4.43,117.06 4.43,256 4.43,394.94 117.06,507.57 256,507.57 394.94,507.57 507.57,394.94 507.57,256 507.57,117.06 394.94,4.43 256,4.43 m 5.885,38.556 c 120.9,0 218.9,98 218.9,218.9 0,120.9 -98,218.9 -218.9,218.9 -120.9,0 -218.93,-98 -218.93,-218.9 0,-120.9 98.03,-218.9 218.93,-218.9" id="path7800" inkscape:connector-curvature="0"/>
     <path d="M 256,8.36 C 119.23,8.36 8.36,119.23 8.36,256 8.36,392.77 119.23,503.64 256,503.64 392.77,503.64 503.64,392.77 503.64,256 503.64,119.23 392.77,8.36 256,8.36 m 2.942,31.691 c 120.9,0 218.9,98 218.9,218.9 0,120.9 -98,218.9 -218.9,218.9 -120.9,0 -218.93,-98 -218.93,-218.9 0,-120.9 98.03,-218.9 218.93,-218.9" id="path7802" inkscape:connector-curvature="0"/>
    </g>
    <path d="M 253.04,7.86 C 117.62,7.86 7.85,117.64 7.85,253.05 c 0,135.42 109.78,245.19 245.19,245.19 135.42,0 245.19,-109.78 245.19,-245.19 C 498.23,117.63 388.45,7.86 253.04,7.86 Z m 0,26.297 c 120.9,0 218.9,98 218.9,218.9 0,120.9 -98,218.9 -218.9,218.9 -120.9,0 -218.93,-98 -218.93,-218.9 0,-120.9 98.03,-218.9 218.93,-218.9 z" id="path7804" inkscape:connector-curvature="0" stroke-opacity="0.31" fill="#ffffff" stroke="#000000" stroke-width="4.904"/>
   </g>
   <path d="m -30.553336,131.06052 c -10.0965,0 -18.698105,6.38969 -21.978938,15.34583 -2.410354,-2.30187 -5.662084,-3.73856 -9.260417,-3.73856 -6.810375,0 -12.424834,5.07206 -13.303251,11.64167 -7.858125,0.16669 -14.17955,6.58812 -14.17955,14.48594 0,3.9952 1.612371,7.60677 4.224867,10.22085 l 0.339196,0.33073 37.893626,37.89362 c 0.976312,0.0476 1.955271,0.0741 2.942167,0.0741 29.876751,0 54.469777,-22.62188 57.589207,-51.66784 l -27.730977,-27.73099 c -4.233334,-4.23333 -10.072688,-6.85535 -16.528522,-6.85535 l -0.0079,0 z" id="path7852" inkscape:connector-curvature="0" opacity="0.25"/>
   <path d="m -30.55069,131.06052 c -10.093855,0 -18.700751,6.38969 -21.981584,15.34425 -2.411148,-2.30241 -5.66473,-3.73327 -9.260417,-3.73327 -6.809846,0 -12.420865,5.06941 -13.297959,11.63981 -7.858125,0.1651 -14.184048,6.58865 -14.184048,14.48805 0,6.73206 4.588933,12.36319 10.81061,13.98958 l 68.4847491,0 c 7.53322,-2.00448 13.07836,-8.83099 13.07836,-17.00212 0,-7.31573 -4.44474,-13.60488 -10.78389,-16.28511 -2.27647,-10.53597 -11.6469581,-18.43881 -22.8652921,-18.43881 m -32.350605,15.64746 c 1.066271,0 1.935427,0.84137 1.935427,1.90765 l 0,7.65836 c 1.471348,-1.03505 3.258608,-1.65894 5.198004,-1.65894 3.47398,0 6.494992,1.94548 8.016876,4.81013 1.524793,-2.85962 4.521729,-4.81013 7.990417,-4.81013 5.001683,0 9.040812,4.0394 9.040812,9.04082 0,5.00168 -4.039394,9.06991 -9.040812,9.06991 -3.468688,0 -6.465888,-1.96956 -7.990417,-4.83843 -1.522413,2.87496 -4.542896,4.83843 -8.016876,4.83843 -5.001683,0 -9.040813,-4.06691 -9.040813,-9.06991 0,-0.10425 0.02408,-0.20056 0.02752,-0.30401 -0.01323,-0.0918 -0.02752,-0.18124 -0.02752,-0.27649 l 0,-14.45895 c 0,-1.06627 0.841375,-1.90765 1.907646,-1.90765 m 32.128356,7.2988 c 0.63156,-0.0185 1.259416,0.27252 1.658937,0.82947 l 3.87059,5.39194 3.843338,-5.39194 c 0.636058,-0.88636 1.876689,-1.10755 2.764896,-0.47017 0.886354,0.63606 1.107545,1.87669 0.470164,2.7649 l -4.672542,6.46959 4.672542,6.49737 c 0.634206,0.88371 0.410104,2.10582 -0.470164,2.73712 -0.881857,0.63288 -2.124605,0.44847 -2.764896,-0.44238 l -3.843338,-5.39195 -3.87059,5.39195 c -0.639498,0.89085 -1.883039,1.07526 -2.764896,0.44238 -0.880004,-0.63156 -1.104106,-1.85473 -0.470164,-2.73712 l 4.672542,-6.49737 -4.672542,-6.46959 c -0.637382,-0.88821 -0.416454,-2.1299 0.470164,-2.7649 0.341842,-0.24553 0.738188,-0.34845 1.105959,-0.35956 m -24.995189,4.06426 c -3.084512,0 -5.585354,2.50058 -5.585354,5.58535 0,3.08452 2.500577,5.58536 5.585354,5.58536 3.084513,0 5.585355,-2.50058 5.585355,-5.58536 0,-3.08451 -2.500578,-5.58535 -5.585355,-5.58535 m 16.007293,0 c -3.084513,0 -5.585355,2.50058 -5.585355,5.58535 0,3.08452 2.500577,5.58536 5.585355,5.58536 3.084512,0 5.585354,-2.50058 5.585354,-5.58536 0,-3.08451 -2.500577,-5.58535 -5.585354,-5.58535" id="path7854" inkscape:connector-curvature="0" fill="#ffffff"/>
  </g>
 </g>
</svg>
