<?xml version="1.0" encoding="UTF-8" standalone="no"?>
<svg xmlns="http://www.w3.org/2000/svg" height="512" viewBox="0 0 512 512" width="512" version="1.1" xmlns:xlink="http://www.w3.org/1999/xlink">
 <metadata id="metadata77"/>
 <defs id="defs4">
  <path id="0" fill="#fff" d="m13 10.5c0 1.381-1.119 2.5-2.5 2.5s-2.5-1.119-2.5-2.5 1.119-2.5 2.5-2.5 2.5 1.119 2.5 2.5"/>
 </defs>
 <g id="g7" transform="translate(0,-540.36)">
  <path id="path9" fill-rule="evenodd" fill="#BF9E73" transform="matrix(1.5323 0 0 1.5323 42.896 144.03)" d="m280 423.79c0 78.898-63.959 142.86-142.86 142.86-78.898 0-142.86-63.959-142.86-142.86 0-78.898 63.959-142.86 142.86-142.86 78.898 0 142.86 63.959 142.86 142.86"/>
  <path id="path11" d="m203.38 114.69c-11.212 0-20.281 9.04-20.281 20.19 0 1.949 0.263 3.842 0.781 5.625l-12.719 11.844c-4.672-3.349-10.394-5.344-16.594-5.344-15.697 0-28.438 12.678-28.438 28.28 0 7.896 3.3 14.981 8.563 20.09 0.368 0.395 0.735 0.783 1.125 1.156 0.322 0.34 0.661 0.676 1 1 0.322 0.34 0.661 0.676 1 1 0.322 0.34 0.661 0.676 1 1 0.389 0.411 0.774 0.8 1.188 1.188 0.041 0.043 0.084 0.083 0.125 0.125 0.127 0.117 0.246 0.229 0.375 0.344 0.475 0.518 0.956 1.019 1.469 1.5 0.005 0.006-0.005 0.026 0 0.031v140.88c-9.458 4.588-15.969 14.241-15.969 25.406 0 7.818 3.209 14.885 8.375 20 0.41 0.448 0.844 0.86 1.281 1.281 0.38 0.403 0.785 0.776 1.188 1.156 0.324 0.338 0.659 0.678 1 1 0.476 0.496 0.958 1.01 1.469 1.469 0.327 0.325 0.626 0.66 0.969 0.969 0.015 0.017 0.016 0.046 0.031 0.063 0.322 0.32 0.632 0.634 0.969 0.938 0.015 0.017 0.016 0.046 0.031 0.063 0.011 0.01 0.021 0.021 0.031 0.031 0.464 0.507 0.969 0.965 1.469 1.438 0.324 0.338 0.659 0.678 1 1 0.476 0.496 0.958 1.01 1.469 1.469 0.327 0.325 0.626 0.66 0.969 0.969 0.015 0.017 0.016 0.046 0.031 0.063 0.322 0.32 0.632 0.634 0.969 0.938 0.015 0.017 0.016 0.046 0.031 0.063 0.011 0.01 0.021 0.021 0.031 0.031 0.464 0.507 0.969 0.965 1.469 1.438 0.324 0.338 0.659 0.678 1 1 0.324 0.338 0.659 0.678 1 1 0.321 0.335 0.631 0.681 0.969 1 0.478 0.499 0.955 0.974 1.469 1.438 0.015 0.017 0.016 0.046 0.031 0.063 0.011 0.01 0.021 0.021 0.031 0.031 0.41 0.448 0.844 0.86 1.281 1.281 0.38 0.403 0.785 0.776 1.188 1.156 0.324 0.338 0.659 0.678 1 1 0.476 0.496 0.958 1.01 1.469 1.469 0.327 0.325 0.626 0.66 0.969 0.969 0.015 0.017 0.016 0.046 0.031 0.063 0.011 0.01 0.021 0.021 0.031 0.031 0.41 0.448 0.844 0.86 1.281 1.281 0.38 0.403 0.785 0.776 1.188 1.156 0.324 0.338 0.659 0.678 1 1 0.476 0.496 0.958 1.01 1.469 1.469 0.327 0.325 0.626 0.66 0.969 0.969 0.015 0.017 0.016 0.046 0.031 0.063 0.322 0.32 0.632 0.634 0.969 0.938 0.015 0.017 0.016 0.046 0.031 0.063 0.011 0.01 0.021 0.021 0.031 0.031 0.464 0.507 0.969 0.965 1.469 1.438 0.324 0.338 0.659 0.678 1 1 0.324 0.338 0.659 0.678 1 1 0.321 0.335 0.631 0.681 0.969 1 0.478 0.499 0.955 0.974 1.469 1.438 0.015 0.017 0.016 0.046 0.031 0.063 0.011 0.01 0.021 0.021 0.031 0.031 0.464 0.507 0.969 0.965 1.469 1.438 0.324 0.338 0.659 0.678 1 1 0.324 0.338 0.659 0.678 1 1 0.321 0.335 0.631 0.681 0.969 1 0.478 0.499 0.955 0.974 1.469 1.438 0.015 0.017 0.016 0.046 0.031 0.063 0.011 0.01 0.021 0.021 0.031 0.031 0.41 0.448 0.844 0.86 1.281 1.281 0.38 0.403 0.785 0.776 1.188 1.156 0.324 0.338 0.659 0.678 1 1 0.476 0.496 0.958 1.01 1.469 1.469 0.327 0.325 0.626 0.66 0.969 0.969 0.015 0.017 0.016 0.046 0.031 0.063 0.322 0.32 0.632 0.634 0.969 0.938 0.015 0.017 0.016 0.046 0.031 0.063 0.011 0.01 0.021 0.021 0.031 0.031 0.464 0.507 0.969 0.965 1.469 1.438 0.324 0.338 0.659 0.678 1 1 0.476 0.496 0.958 1.01 1.469 1.469 0.327 0.325 0.626 0.66 0.969 0.969 0.015 0.017 0.016 0.046 0.031 0.063 0.322 0.32 0.632 0.634 0.969 0.938 0.015 0.017 0.016 0.046 0.031 0.063 0.011 0.01 0.021 0.021 0.031 0.031 0.464 0.507 0.969 0.965 1.469 1.438 0.324 0.338 0.659 0.678 1 1 0.324 0.338 0.659 0.678 1 1 0.321 0.335 0.631 0.681 0.969 1 0.478 0.499 0.955 0.974 1.469 1.438 0.015 0.017 0.016 0.046 0.031 0.063 0.011 0.01 0.021 0.021 0.031 0.031 0.41 0.448 0.844 0.86 1.281 1.281 0.38 0.403 0.785 0.776 1.188 1.156 0.324 0.338 0.659 0.678 1 1 0.476 0.496 0.958 1.01 1.469 1.469 0.327 0.325 0.626 0.66 0.969 0.969 0.015 0.017 0.016 0.046 0.031 0.063 0.011 0.01 0.021 0.021 0.031 0.031 0.41 0.448 0.844 0.86 1.281 1.281 0.38 0.403 0.785 0.776 1.188 1.156 0.324 0.338 0.659 0.678 1 1 0.476 0.496 0.958 1.01 1.469 1.469 0.327 0.325 0.626 0.66 0.969 0.969 0.015 0.017 0.016 0.046 0.031 0.063 0.322 0.32 0.632 0.634 0.969 0.938 0.015 0.017 0.016 0.046 0.031 0.063 0.011 0.01 0.021 0.021 0.031 0.031 0.464 0.507 0.969 0.965 1.469 1.438 0.324 0.338 0.659 0.678 1 1 0.324 0.338 0.659 0.678 1 1 0.122 0.128 0.254 0.246 0.375 0.375 12.716 2.298 25.809 3.531 39.19 3.531 120.9 0 218.91-98.01 218.91-218.91 0-1.252-0.01-2.503-0.031-3.75-0.226-0.22-0.45-0.442-0.688-0.656-0.026-0.026-0.036-0.068-0.063-0.094-0.464-0.507-0.969-0.965-1.469-1.438-0.324-0.338-0.659-0.678-1-1-0.324-0.338-0.659-0.678-1-1-0.476-0.496-0.958-1.01-1.469-1.469l-0.063-0.063c-0.146-0.159-0.288-0.313-0.438-0.469-0.157-0.148-0.309-0.293-0.469-0.438-0.026-0.026-0.036-0.068-0.063-0.094-0.321-0.351-0.662-0.666-1-1-0.464-0.507-0.969-0.965-1.469-1.438-0.324-0.338-0.659-0.678-1-1-0.476-0.496-0.958-1.01-1.469-1.469l-0.063-0.063c-0.146-0.159-0.288-0.313-0.438-0.469-0.157-0.148-0.309-0.293-0.469-0.438-0.026-0.026-0.036-0.068-0.063-0.094-0.316-0.345-0.667-0.671-1-1-0.464-0.507-0.969-0.965-1.469-1.438-0.324-0.338-0.659-0.678-1-1-0.324-0.338-0.659-0.678-1-1-0.321-0.335-0.631-0.681-0.969-1-0.175-0.182-0.352-0.353-0.531-0.531-0.316-0.345-0.667-0.671-1-1-0.464-0.507-0.969-0.965-1.469-1.438-0.324-0.338-0.659-0.678-1-1-0.324-0.338-0.659-0.678-1-1-0.321-0.335-0.631-0.681-0.969-1-0.175-0.182-0.352-0.353-0.531-0.531-0.316-0.345-0.667-0.671-1-1-0.321-0.351-0.662-0.666-1-1-0.464-0.507-0.969-0.965-1.469-1.438-0.324-0.338-0.659-0.678-1-1-0.476-0.496-0.958-1.01-1.469-1.469l-0.063-0.063c-0.146-0.159-0.288-0.313-0.438-0.469-0.157-0.148-0.309-0.293-0.469-0.438-0.026-0.026-0.036-0.068-0.063-0.094-0.316-0.345-0.667-0.671-1-1-0.464-0.507-0.969-0.965-1.469-1.438-0.324-0.338-0.659-0.678-1-1-0.476-0.496-0.958-1.01-1.469-1.469l-0.063-0.063c-0.146-0.159-0.288-0.313-0.438-0.469-0.157-0.148-0.309-0.293-0.469-0.438-0.026-0.026-0.036-0.068-0.063-0.094-0.316-0.345-0.667-0.671-1-1-0.464-0.507-0.969-0.965-1.469-1.438-0.324-0.338-0.659-0.678-1-1-0.324-0.338-0.659-0.678-1-1-0.321-0.335-0.631-0.681-0.969-1-0.175-0.182-0.352-0.353-0.531-0.531-0.316-0.345-0.667-0.671-1-1-0.464-0.507-0.969-0.965-1.469-1.438-0.324-0.338-0.659-0.678-1-1-0.324-0.338-0.659-0.678-1-1-0.476-0.496-0.958-1.01-1.469-1.469l-0.063-0.063c-0.146-0.159-0.288-0.313-0.438-0.469-0.157-0.148-0.309-0.293-0.469-0.438-0.026-0.026-0.036-0.068-0.063-0.094-0.321-0.351-0.662-0.666-1-1-0.464-0.507-0.969-0.965-1.469-1.438-0.324-0.338-0.659-0.678-1-1-0.476-0.496-0.958-1.01-1.469-1.469l-0.063-0.063c-0.146-0.159-0.288-0.313-0.438-0.469-0.157-0.148-0.309-0.293-0.469-0.438-0.026-0.026-0.036-0.068-0.063-0.094-0.316-0.345-0.667-0.671-1-1-0.464-0.507-0.969-0.965-1.469-1.438-0.324-0.338-0.659-0.678-1-1-0.324-0.338-0.659-0.678-1-1-0.321-0.335-0.631-0.681-0.969-1-0.175-0.182-0.352-0.353-0.531-0.531-0.316-0.345-0.667-0.671-1-1-0.464-0.507-0.969-0.965-1.469-1.438-0.324-0.338-0.659-0.678-1-1-0.324-0.338-0.659-0.678-1-1-0.321-0.335-0.631-0.681-0.969-1-0.175-0.182-0.352-0.353-0.531-0.531-0.316-0.345-0.667-0.671-1-1-0.321-0.351-0.662-0.666-1-1-0.464-0.507-0.969-0.965-1.469-1.438-0.324-0.338-0.659-0.678-1-1-0.476-0.496-0.958-1.01-1.469-1.469l-0.063-0.063c-0.146-0.159-0.288-0.313-0.438-0.469-0.157-0.148-0.309-0.293-0.469-0.438-0.026-0.026-0.036-0.068-0.063-0.094-0.316-0.345-0.667-0.671-1-1-0.464-0.507-0.969-0.965-1.469-1.438-0.324-0.338-0.659-0.678-1-1-0.476-0.496-0.958-1.01-1.469-1.469l-0.063-0.063c-0.146-0.159-0.288-0.313-0.438-0.469-0.157-0.148-0.309-0.293-0.469-0.438-0.026-0.026-0.036-0.068-0.063-0.094-0.316-0.345-0.667-0.671-1-1-0.464-0.507-0.969-0.965-1.469-1.438-0.324-0.338-0.659-0.678-1-1-0.324-0.338-0.659-0.678-1-1-0.321-0.335-0.631-0.681-0.969-1-0.175-0.182-0.352-0.353-0.531-0.531-0.316-0.345-0.667-0.671-1-1-0.464-0.507-0.969-0.965-1.469-1.438-0.324-0.338-0.659-0.678-1-1-0.324-0.338-0.659-0.678-1-1-0.321-0.335-0.631-0.681-0.969-1-0.18-0.188-0.377-0.348-0.563-0.531-0.146-0.159-0.288-0.313-0.438-0.469-0.157-0.148-0.309-0.293-0.469-0.438-5.151-5.14-12.252-8.344-20.12-8.344-2.475 0-4.867 0.314-7.156 0.906-0.22-0.226-0.457-0.44-0.688-0.656-0.336-0.361-0.701-0.696-1.063-1.031-0.304-0.324-0.613-0.634-0.938-0.938-0.352-0.379-0.713-0.742-1.094-1.094-0.274-0.291-0.553-0.57-0.844-0.844-0.335-0.362-0.671-0.725-1.031-1.063-0.336-0.361-0.701-0.696-1.063-1.031-0.322-0.344-0.655-0.679-1-1-0.304-0.324-0.613-0.634-0.938-0.938-0.352-0.379-0.713-0.742-1.094-1.094-0.309-0.328-0.638-0.63-0.969-0.938-0.267-0.285-0.53-0.575-0.813-0.844-0.368-0.401-0.757-0.786-1.156-1.156-0.322-0.344-0.655-0.679-1-1-0.322-0.344-0.655-0.679-1-1-0.304-0.324-0.613-0.634-0.938-0.938-0.373-0.401-0.752-0.786-1.156-1.156-0.253-0.266-0.514-0.529-0.781-0.781-0.352-0.381-0.714-0.741-1.094-1.094-0.322-0.344-0.655-0.679-1-1-0.322-0.344-0.655-0.679-1-1-0.304-0.324-0.613-0.634-0.938-0.938-0.352-0.379-0.713-0.742-1.094-1.094-0.274-0.291-0.553-0.57-0.844-0.844-0.335-0.362-0.671-0.725-1.031-1.063-0.336-0.361-0.701-0.696-1.063-1.031-0.322-0.344-0.655-0.679-1-1-3.7-3.95-8.952-6.438-14.813-6.438-7.718 0-14.441 4.29-17.875 10.594h-68.69c-0.005-0.005-0.026 0.005-0.031 0-0.084-0.092-0.164-0.191-0.25-0.281-0.021-0.02-0.041-0.043-0.063-0.063-0.308-0.322-0.608-0.636-0.938-0.938-0.333-0.35-0.674-0.705-1.031-1.031-0.308-0.322-0.64-0.636-0.969-0.938-0.323-0.34-0.654-0.683-1-1-3.704-3.894-8.937-6.344-14.75-6.344" fill-opacity="0.235" transform="translate(0,540.36)"/>
  <g id="g13" fill-rule="evenodd">
   <path id="path15" fill-opacity="0.067" d="m256 541.36c-140.83 0-255 114.17-255 255s114.17 255 255 255 255-114.17 255-255-114.17-255-255-255m8.827 44.931c120.9 0 218.9 98 218.9 218.9s-98 218.9-218.9 218.9-218.93-98-218.93-218.9 98.03-218.9 218.93-218.9"/>
   <g id="g17" fill-opacity="0.129">
    <path id="path19" d="m256 544.79c-138.94 0-251.57 112.63-251.57 251.57s112.63 251.54 251.57 251.54 251.57-112.6 251.57-251.54-112.63-251.57-251.57-251.57m5.885 38.556c120.9 0 218.9 98 218.9 218.9s-98 218.9-218.9 218.9-218.93-98-218.93-218.9 98.03-218.9 218.93-218.9"/>
    <path id="path21" d="m256 548.72c-136.77 0-247.64 110.87-247.64 247.64s110.87 247.64 247.64 247.64 247.64-110.87 247.64-247.64-110.87-247.64-247.64-247.64m2.942 31.691c120.9 0 218.9 98 218.9 218.9s-98 218.9-218.9 218.9-218.93-98-218.93-218.9 98.03-218.9 218.93-218.9"/>
   </g>
   <path id="path23" d="m253.04 548.22c-135.42 0-245.19 109.78-245.19 245.19 0 135.42 109.78 245.19 245.19 245.19 135.42 0 245.19-109.78 245.19-245.19 0-135.42-109.78-245.19-245.19-245.19zm0 26.297c120.9 0 218.9 98 218.9 218.9s-98 218.9-218.9 218.9-218.93-98-218.93-218.9 98.03-218.9 218.93-218.9z" stroke-opacity="0.31" stroke="#000" stroke-width="4.904" fill="#fff"/>
  </g>
  <g id="g25" transform="matrix(1.413 0 0 1.413 612.79 -230.45)">
   <use id="use27" xlink:href="#0" transform="matrix(8.0459 0 0 7.998 -265.11 585.42)" height="1" width="1"/>
   <g id="g29" fill="#fff">
    <path id="path31" d="m-333.2 677.94v119.97h17.241v-119.97z"/>
    <path id="path33" d="m-188.8 803.69h-120.69v5.713h120.69z"/>
   </g>
   <use id="use35" xlink:href="#0" transform="matrix(5.747 0 0 5.7129 -275.38 660.97)" height="1" width="1"/>
   <use id="use37" xlink:href="#0" transform="matrix(8.0459 0 0 7.998 -408.78 585.58)" height="1" width="1"/>
   <use id="use39" xlink:href="#0" transform="matrix(8.0459 0 0 7.998 -408.88 722.69)" height="1" width="1"/>
   <use id="use41" xlink:href="#0" transform="matrix(8.0459 0 0 7.998 -265.11 722.72)" height="1" width="1"/>
   <g id="g43" fill="#fff">
    <path id="path45" d="m-189.18 678.44v119.97h17.241v-119.97z"/>
    <path id="path47" d="m-189.82 660.84h-120.69v17.14h120.69z"/>
    <path id="path49" d="m-184.23 797.95h-133.9v17.14h133.9z"/>
   </g>
   <use id="use51" xlink:href="#0" transform="matrix(5.747 0 0 5.7129 -350.09 660.97)" height="1" width="1"/>
   <use id="use53" xlink:href="#0" transform="matrix(5.747 0 0 5.7129 -350.09 580.99)" height="1" width="1"/>
   <use id="use55" xlink:href="#0" transform="matrix(5.747 0 0 5.7129 -275.38 580.99)" height="1" width="1"/>
   <g id="g57" fill="#fff">
    <path id="path59" d="m-296.69 647.17v69.38h11.494v-69.38z"/>
    <path id="path61" d="m-219.97 647.63v69.38h11.494v-69.38z"/>
    <path id="path63" d="m-217.42 634.19h-69.791v11.426h69.791z"/>
    <path id="path65" d="m-217.42 714.98h-69.791v11.426h69.791z"/>
    <path id="path67" d="m-290.75 712.69-43.13 103.6 9.27 3.813 43.13-103.6z"/>
    <path id="path69" d="m-213.87 712.69 43.13 103.6-9.27 3.813-43.13-103.6z"/>
    <path id="path71" d="m-212.15 635.17 37 34.461-5.343 4.889-37-34.462z"/>
    <path id="path73" d="m-295.41 637.39-37 34.461 5.343 4.889 37-34.462z"/>
   </g>
  </g>
 </g>
</svg>
