<?xml version="1.0" encoding="UTF-8" standalone="no"?>
<svg
   xmlns:dc="http://purl.org/dc/elements/1.1/"
   xmlns:cc="http://creativecommons.org/ns#"
   xmlns:rdf="http://www.w3.org/1999/02/22-rdf-syntax-ns#"
   xmlns:svg="http://www.w3.org/2000/svg"
   xmlns="http://www.w3.org/2000/svg"
   xmlns:sodipodi="http://sodipodi.sourceforge.net/DTD/sodipodi-0.dtd"
   xmlns:inkscape="http://www.inkscape.org/namespaces/inkscape"
   sodipodi:docname="brasero.svg"
   inkscape:version="0.91 r13725"
   id="svg2"
   version="1.1"
   width="512"
   viewBox="0 0 512 512"
   height="512">
  <defs
     id="defs15" />
  <sodipodi:namedview
     inkscape:current-layer="svg2"
     inkscape:window-maximized="1"
     inkscape:window-y="25"
     inkscape:window-x="0"
     inkscape:cy="256"
     inkscape:cx="256"
     inkscape:zoom="0.4609375"
     showgrid="false"
     id="namedview13"
     inkscape:window-height="999"
     inkscape:window-width="1680"
     inkscape:pageshadow="2"
     inkscape:pageopacity="0"
     guidetolerance="10"
     gridtolerance="10"
     objecttolerance="10"
     borderopacity="1"
     bordercolor="#666666"
     pagecolor="#ffffff" />
  <metadata
     id="metadata72">
    <rdf:RDF>
      <cc:Work
         rdf:about="">
        <dc:format>image/svg+xml</dc:format>
        <dc:type
           rdf:resource="http://purl.org/dc/dcmitype/StillImage" />
        <dc:title></dc:title>
      </cc:Work>
    </rdf:RDF>
  </metadata>
  <path
     id="path4"
     d="m471.95 253.05c0 120.9-98.01 218.9-218.9 218.9-120.9 0-218.9-98.01-218.9-218.9 0-120.9 98.01-218.9 218.9-218.9 120.9 0 218.9 98.01 218.9 218.9"
     fill-rule="evenodd"
     fill="#b93d48"
     style="fill:#BF9E73;fill-opacity:1" />
  <g
     id="g8"
     fill-rule="evenodd">
    <path
       id="path10"
       fill-opacity="0.067"
       d="m256 1c-140.83 0-255 114.17-255 255s114.17 255 255 255 255-114.17 255-255-114.17-255-255-255m8.827 44.931c120.9 0 218.9 98 218.9 218.9s-98 218.9-218.9 218.9-218.93-98-218.93-218.9 98.03-218.9 218.93-218.9" />
    <g
       id="g12"
       fill-opacity="0.129">
      <path
         id="path14"
         d="m256 4.433c-138.94 0-251.57 112.63-251.57 251.57s112.63 251.57 251.57 251.57 251.57-112.63 251.57-251.57-112.63-251.57-251.57-251.57m5.885 38.556c120.9 0 218.9 98 218.9 218.9s-98 218.9-218.9 218.9-218.93-98-218.93-218.9 98.03-218.9 218.93-218.9" />
      <path
         id="path16"
         d="m256 8.356c-136.77 0-247.64 110.87-247.64 247.64s110.87 247.64 247.64 247.64 247.64-110.87 247.64-247.64-110.87-247.64-247.64-247.64m2.942 31.691c120.9 0 218.9 98 218.9 218.9s-98 218.9-218.9 218.9-218.93-98-218.93-218.9 98.03-218.9 218.93-218.9" />
    </g>
    <path
       id="path18"
       d="m253.04 7.859c-135.42 0-245.19 109.78-245.19 245.19 0 135.42 109.78 245.19 245.19 245.19 135.42 0 245.19-109.78 245.19-245.19 0-135.42-109.78-245.19-245.19-245.19zm0 26.297c120.9 0 218.9 98 218.9 218.9s-98 218.9-218.9 218.9-218.93-98-218.93-218.9 98.03-218.9 218.93-218.9z"
       stroke-opacity="0.31"
       stroke="#000"
       stroke-width="4.904"
       fill="#fff" />
  </g>
  <path
     inkscape:connector-curvature="0"
     style="fill-opacity:0.23500001"
     id="path6"
     d="m 256.03036,118.53336 c -24.21,0 -48.4,6.442 -70.09,19.531 l 54.19,98.19 c 0.113,-0.062 0.23,-0.126 0.344,-0.188 l 0.656,1.188 c 0.115,-0.063 0.228,-0.125 0.344,-0.188 0.016,0.028 0.656,1.188 0.656,1.188 0.115,-0.063 0.228,-0.125 0.344,-0.188 0.016,0.028 0.656,1.188 0.656,1.188 0.115,-0.063 0.228,-0.125 0.344,-0.188 0.015,0.027 0.625,1.156 0.625,1.156 0.114,-0.063 0.229,-0.126 0.344,-0.188 0.016,0.028 0.656,1.188 0.656,1.188 0.114,-0.063 0.229,-0.126 0.344,-0.188 0.016,0.028 0.656,1.188 0.656,1.188 0.113,-0.062 0.23,-0.126 0.344,-0.188 0.016,0.028 0.656,1.188 0.656,1.188 0.113,-0.062 0.23,-0.126 0.344,-0.188 0.016,0.028 0.656,1.188 0.656,1.188 0.115,-0.063 0.228,-0.125 0.344,-0.188 0.016,0.028 0.656,1.188 0.656,1.188 0.115,-0.063 0.228,-0.125 0.344,-0.188 0.015,0.027 0.625,1.156 0.625,1.156 0.114,-0.063 0.229,-0.126 0.344,-0.188 0.016,0.028 0.656,1.188 0.656,1.188 0.114,-0.063 0.229,-0.126 0.344,-0.188 0.016,0.028 0.656,1.188 0.656,1.188 0.114,-0.063 0.229,-0.126 0.344,-0.188 0.016,0.028 0.656,1.188 0.656,1.188 0.113,-0.062 0.23,-0.126 0.344,-0.188 0.016,0.028 0.656,1.188 0.656,1.188 0.115,-0.063 0.228,-0.125 0.344,-0.188 0.016,0.028 0.656,1.188 0.656,1.188 0.115,-0.063 0.228,-0.125 0.344,-0.188 0.015,0.027 0.625,1.156 0.625,1.156 0.114,-0.063 0.229,-0.126 0.344,-0.188 0.016,0.028 0.656,1.188 0.656,1.188 0.114,-0.063 0.229,-0.126 0.344,-0.188 0.016,0.028 0.656,1.188 0.656,1.188 0.114,-0.063 0.229,-0.126 0.344,-0.188 l 0.656,1.188 c 0.113,-0.062 0.23,-0.126 0.344,-0.188 0.016,0.028 0.656,1.188 0.656,1.188 0.115,-0.063 0.228,-0.125 0.344,-0.188 0.016,0.028 0.656,1.188 0.656,1.188 0.115,-0.063 0.228,-0.125 0.344,-0.188 0.015,0.027 0.625,1.156 0.625,1.156 l 0.031,0 c 0.103,-0.057 0.209,-0.1 0.313,-0.156 0.015,0.027 0.656,1.156 0.656,1.156 0.114,-0.063 0.229,-0.126 0.344,-0.188 0.016,0.028 0.656,1.188 0.656,1.188 0.114,-0.063 0.229,-0.126 0.344,-0.188 0.016,0.028 0.656,1.188 0.656,1.188 0.113,-0.062 0.23,-0.126 0.344,-0.188 0.016,0.028 0.656,1.188 0.656,1.188 0.113,-0.062 0.23,-0.126 0.344,-0.188 0.016,0.028 0.656,1.188 0.656,1.188 0.115,-0.063 0.228,-0.125 0.344,-0.188 0.016,0.028 0.656,1.188 0.656,1.188 0.115,-0.063 0.228,-0.125 0.344,-0.188 0.015,0.027 0.625,1.156 0.625,1.156 0.114,-0.063 0.229,-0.126 0.344,-0.188 0.016,0.028 0.656,1.188 0.656,1.188 0.114,-0.063 0.229,-0.126 0.344,-0.188 0.016,0.028 0.656,1.188 0.656,1.188 0.113,-0.062 0.23,-0.126 0.344,-0.188 0.016,0.028 0.656,1.188 0.656,1.188 0.113,-0.062 0.23,-0.126 0.344,-0.188 0.016,0.028 0.656,1.188 0.656,1.188 0.115,-0.063 0.228,-0.125 0.344,-0.188 0.016,0.028 0.656,1.188 0.656,1.188 0.115,-0.063 0.228,-0.125 0.344,-0.188 0.015,0.027 0.625,1.156 0.625,1.156 0.114,-0.063 0.229,-0.126 0.344,-0.188 0.016,0.028 0.656,1.188 0.656,1.188 0.114,-0.063 0.229,-0.126 0.344,-0.188 0.016,0.028 0.656,1.188 0.656,1.188 0.114,-0.063 0.229,-0.126 0.344,-0.188 0.016,0.028 0.656,1.188 0.656,1.188 0.113,-0.062 0.23,-0.126 0.344,-0.188 0.016,0.028 0.656,1.188 0.656,1.188 0.115,-0.063 0.228,-0.125 0.344,-0.188 0.016,0.028 0.656,1.188 0.656,1.188 0.115,-0.063 0.228,-0.125 0.344,-0.188 0.015,0.027 0.625,1.156 0.625,1.156 0.114,-0.063 0.229,-0.126 0.344,-0.188 0.016,0.028 0.656,1.188 0.656,1.188 0.114,-0.063 0.229,-0.126 0.344,-0.188 0.016,0.028 0.656,1.188 0.656,1.188 0.114,-0.063 0.229,-0.126 0.344,-0.188 0.016,0.028 0.656,1.188 0.656,1.188 0.113,-0.062 0.23,-0.126 0.344,-0.188 0.016,0.028 0.656,1.188 0.656,1.188 -3,5.449 -7.491,9.956 -12.938,12.969 l 24.688,44.719 -0.938,0 c -0.025,-0.317 -0.031,-0.645 -0.031,-0.969 l 0,-0.031 -0.969,0 c -0.025,-0.314 0,-0.617 0,-0.938 l 0,-0.031 -0.969,0 c -0.027,-0.322 -0.031,-0.64 -0.031,-0.969 l 0,-0.031 -0.969,0 c -0.026,-0.318 -0.031,-0.644 -0.031,-0.969 l 0,-0.031 -0.969,0 c -0.028,-0.323 -0.031,-0.638 -0.031,-0.969 l 0,-0.031 -0.938,0 c -0.027,-0.319 -0.063,-0.642 -0.063,-0.969 l 0,-0.031 -0.938,0 c -0.027,-0.317 -0.063,-0.645 -0.063,-0.969 l 0,-0.031 -0.938,0 c -0.027,-0.312 -0.063,-0.649 -0.063,-0.969 l 0,-0.031 -0.938,0 c -0.027,-0.31 -0.031,-0.62 -0.031,-0.938 l 0,-0.031 -0.938,0 c -0.03,-0.326 -0.063,-0.635 -0.063,-0.969 l 0,-0.031 -0.938,0 c -0.03,-0.321 -0.063,-0.64 -0.063,-0.969 l 0,-0.031 -0.938,0 c -0.031,-0.322 -0.063,-0.639 -0.063,-0.969 l 0,-0.031 -0.938,0 c -0.03,-0.317 -0.063,-0.644 -0.063,-0.969 l 0,-0.031 -0.938,0 c -0.031,-0.319 -0.063,-0.642 -0.063,-0.969 l 0,-0.031 -0.906,0 c -0.03,-0.31 -0.063,-0.619 -0.063,-0.938 l 0,-0.031 -0.938,0 c -0.033,-0.322 -0.063,-0.638 -0.063,-0.969 l 0,-0.031 -0.938,0 c -0.034,-0.324 -0.063,-0.636 -0.063,-0.969 l 0,-0.031 -0.938,0 c -0.033,-0.318 -0.063,-0.642 -0.063,-0.969 l 0,-0.031 -0.938,0 c -0.034,-0.32 -0.063,-0.639 -0.063,-0.969 l 0,-0.031 -0.938,0 c -0.034,-0.314 -0.063,-0.645 -0.063,-0.969 l 0,-0.031 -0.906,0 c -0.034,-0.315 -0.063,-0.614 -0.063,-0.938 l 0,-0.031 -0.938,0 c -0.036,-0.319 -0.063,-0.641 -0.063,-0.969 l 0,-0.031 -0.938,0 c -0.037,-0.321 -0.063,-0.638 -0.063,-0.969 l 0,-0.031 -0.906,0 c -0.039,-0.323 -0.094,-0.635 -0.094,-0.969 l 0,-0.031 -0.906,0 c -0.038,-0.316 -0.094,-0.642 -0.094,-0.969 l 0,-0.031 -0.906,0 c -0.039,-0.318 -0.094,-0.64 -0.094,-0.969 l 0,-0.031 -0.906,0 c -0.038,-0.31 -0.063,-0.617 -0.063,-0.938 l 0,-0.031 -0.938,0 c -0.042,-0.323 -0.063,-0.635 -0.063,-0.969 l 0,-0.031 -0.938,0 c -0.041,-0.316 -0.063,-0.642 -0.063,-0.969 l 0,-0.031 -0.938,0 c -0.043,-0.318 -0.063,-0.639 -0.063,-0.969 l 0,-0.031 -0.938,0 c -0.042,-0.311 -0.063,-0.647 -0.063,-0.969 l 0,-0.031 -0.938,0 c -0.043,-0.313 -0.063,-0.644 -0.063,-0.969 l 0,-0.031 -0.906,0 c -0.045,-0.315 -0.094,-0.641 -0.094,-0.969 l 0,-0.031 -0.906,0 c -0.044,-0.308 -0.063,-0.618 -0.063,-0.938 l 0,-0.031 -0.906,0 c -0.05,-0.322 -0.094,-0.633 -0.094,-0.969 l 0,-0.031 -0.906,0 c -0.049,-0.315 -0.094,-0.64 -0.094,-0.969 l 0,-0.031 -0.906,0 c -0.051,-0.316 -0.094,-0.638 -0.094,-0.969 l 0,-0.031 -0.906,0 c -0.05,-0.309 -0.094,-0.645 -0.094,-0.969 l 0,-0.031 -0.906,0 c -0.052,-0.312 -0.094,-0.642 -0.094,-0.969 l 0,-0.031 -0.906,0 c -0.054,-0.312 -0.063,-0.609 -0.063,-0.938 l 0,-0.031 -0.906,0 c -0.058,-0.317 -0.094,-0.635 -0.094,-0.969 l 0,-0.031 -0.906,0 c -0.059,-0.316 -0.094,-0.636 -0.094,-0.969 l 0,-0.031 -0.875,0 c -0.061,-0.314 -0.125,-0.637 -0.125,-0.969 l 0,-0.031 -0.875,0 c -0.063,-0.313 -0.125,-0.637 -0.125,-0.969 l 0,-0.031 -0.875,0 c -0.062,-0.307 -0.125,-0.643 -0.125,-0.969 l 0,-0.031 -0.875,0 c -0.064,-0.306 -0.094,-0.613 -0.094,-0.938 l 0,-0.031 -0.875,0 c -0.073,-0.319 -0.125,-0.627 -0.125,-0.969 l 0,-0.031 -0.875,0 c -0.073,-0.313 -0.125,-0.633 -0.125,-0.969 l 0,-0.031 -0.875,0 c -0.075,-0.31 -0.125,-0.636 -0.125,-0.969 l 0,-0.031 -0.875,0 c -0.079,-0.311 -0.125,-0.633 -0.125,-0.969 l 0,-0.031 -0.844,0 c -0.082,-0.309 -0.156,-0.634 -0.156,-0.969 l 0,-0.031 -0.844,0 c -0.083,-0.303 -0.156,-0.639 -0.156,-0.969 l -0.844,0 c -0.089,-0.306 -0.125,-0.634 -0.125,-0.969 l 0,-0.031 -0.844,0 c -0.097,-0.311 -0.156,-0.626 -0.156,-0.969 l 0,-0.031 -0.844,0 c -0.1,-0.305 -0.156,-0.63 -0.156,-0.969 l 0,-0.031 -0.813,0 c -0.104,-0.302 -0.188,-0.631 -0.188,-0.969 l 0,-0.031 -0.813,0 c -0.107,-0.297 -0.188,-0.635 -0.188,-0.969 l 0,-0.031 -0.781,0 c -0.119,-0.299 -0.219,-0.627 -0.219,-0.969 l 0,-0.031 -0.75,0 c -0.126,-0.296 -0.219,-0.595 -0.219,-0.938 l 0,-0.031 -0.781,0 c -0.138,-0.295 -0.219,-0.621 -0.219,-0.969 l 0,-0.031 -0.75,0 c -0.153,-0.294 -0.25,-0.615 -0.25,-0.969 l 0,-0.031 -0.75,0 c -0.158,-0.283 -0.25,-0.621 -0.25,-0.969 l 0,-0.031 -0.719,0 c -0.177,-0.279 -0.281,-0.613 -0.281,-0.969 l 0,-0.031 -0.656,0 c -0.203,-0.273 -0.344,-0.603 -0.344,-0.969 l 0,-0.031 -0.625,0 c -0.217,-0.257 -0.344,-0.574 -0.344,-0.938 l 0,-0.031 -0.563,0 c -0.267,-0.24 -0.438,-0.581 -0.438,-0.969 l 0,-0.031 -0.438,0 c -0.334,-0.201 -0.563,-0.551 -0.563,-0.969 l 0,-0.031 -0.5,0 0,-0.094 c -0.303,-0.168 -0.5,-0.504 -0.5,-0.875 l 0,-0.031 -0.563,0 c -0.001,-0.084 0,-0.166 0,-0.25 -0.253,-0.14 -0.438,-0.409 -0.438,-0.719 l 0,-0.031 -0.625,0 c -0.001,-0.127 -0.031,-0.248 -0.031,-0.375 -0.202,-0.112 -0.344,-0.346 -0.344,-0.594 l 0,-0.031 -0.719,0 c -0.003,-0.177 0,-0.353 0,-0.531 -0.152,-0.084 -0.25,-0.221 -0.25,-0.406 l 0,-0.031 -0.813,0 c -0.005,-0.231 -0.031,-0.456 -0.031,-0.688 -0.101,-0.056 -0.156,-0.158 -0.156,-0.281 l 0,-0.031 -0.875,0 c -0.007,-0.28 -0.031,-0.562 -0.031,-0.844 -0.05,-0.028 -0.094,-0.063 -0.094,-0.125 l 0,-0.031 -0.969,0 c -0.009,-0.323 -0.031,-0.643 -0.031,-0.969 l 0,-0.031 -107.25,0 c 0,52.36 26.743,100.82 70.13,127 l 0.031,-0.031 c 0.212,0.129 0.413,0.278 0.625,0.406 0,0.26 0.128,0.495 0.344,0.625 l 0.188,-0.344 c 0.032,0.019 0.062,0.043 0.094,0.063 0,0.521 0.287,1.021 0.719,1.281 l 0.094,-0.156 c 0.168,0.468 0.48,0.899 0.906,1.156 l 0.031,-0.031 c 0.211,0.356 0.469,0.67 0.813,0.906 0.233,0.354 0.531,0.686 0.875,0.938 0.239,0.333 0.519,0.622 0.844,0.875 0.251,0.337 0.546,0.642 0.875,0.906 0.266,0.339 0.569,0.666 0.906,0.938 0.277,0.338 0.564,0.662 0.906,0.938 0.221,0.259 0.463,0.493 0.719,0.719 0.254,0.311 0.514,0.606 0.813,0.875 0.257,0.313 0.544,0.601 0.844,0.875 0.315,0.38 0.658,0.737 1.031,1.063 0.253,0.287 0.527,0.556 0.813,0.813 0.217,0.248 0.448,0.491 0.688,0.719 0.247,0.292 0.506,0.578 0.781,0.844 0.33,0.393 0.684,0.745 1.063,1.094 0.293,0.33 0.58,0.67 0.906,0.969 0.274,0.303 0.574,0.598 0.875,0.875 0.283,0.312 0.564,0.62 0.875,0.906 0.285,0.312 0.564,0.619 0.875,0.906 0.287,0.311 0.563,0.619 0.875,0.906 0.19,0.204 0.394,0.399 0.594,0.594 0.379,0.426 0.767,0.832 1.188,1.219 0.292,0.31 0.561,0.649 0.875,0.938 0.288,0.304 0.567,0.622 0.875,0.906 0.137,0.144 0.265,0.298 0.406,0.438 0.299,0.335 0.616,0.654 0.938,0.969 0.269,0.297 0.557,0.562 0.844,0.844 0.344,0.381 0.691,0.739 1.063,1.094 0.055,0.059 0.101,0.129 0.156,0.188 0.038,0.035 0.087,0.059 0.125,0.094 0.072,0.075 0.146,0.145 0.219,0.219 0.35,0.393 0.717,0.788 1.094,1.156 0.084,0.091 0.164,0.191 0.25,0.281 0.069,0.065 0.149,0.123 0.219,0.188 0.041,0.042 0.084,0.083 0.125,0.125 0.308,0.344 0.641,0.674 0.969,1 0.31,0.342 0.639,0.676 0.969,1 0.095,0.103 0.185,0.211 0.281,0.313 0.1,0.095 0.211,0.188 0.313,0.281 0.339,0.378 0.671,0.766 1.031,1.125 0.275,0.299 0.556,0.588 0.844,0.875 0.286,0.312 0.606,0.608 0.906,0.906 0.274,0.297 0.557,0.59 0.844,0.875 0.334,0.362 0.679,0.718 1.031,1.063 0.045,0.048 0.079,0.108 0.125,0.156 0.163,0.158 0.333,0.315 0.5,0.469 0.283,0.308 0.579,0.61 0.875,0.906 0.279,0.302 0.553,0.615 0.844,0.906 0.276,0.298 0.557,0.587 0.844,0.875 0.492,0.532 1,1.064 1.531,1.563 0.326,0.358 0.659,0.718 1,1.063 0.29,0.313 0.605,0.604 0.906,0.906 0.272,0.293 0.531,0.591 0.813,0.875 0.26,0.28 0.543,0.54 0.813,0.813 0.33,0.357 0.656,0.719 1,1.063 0.251,0.268 0.523,0.521 0.781,0.781 0.095,0.102 0.185,0.211 0.281,0.313 0.157,0.155 0.309,0.317 0.469,0.469 0.275,0.297 0.56,0.587 0.844,0.875 0.29,0.313 0.606,0.602 0.906,0.906 0.281,0.302 0.554,0.613 0.844,0.906 0.277,0.298 0.558,0.585 0.844,0.875 0.235,0.253 0.477,0.503 0.719,0.75 0.309,0.335 0.649,0.643 0.969,0.969 0.291,0.313 0.575,0.633 0.875,0.938 0.351,0.377 0.729,0.729 1.094,1.094 0.036,0.038 0.058,0.088 0.094,0.125 0.146,0.145 0.289,0.294 0.438,0.438 0.275,0.297 0.561,0.586 0.844,0.875 0.305,0.329 0.622,0.648 0.938,0.969 0.029,0.033 0.064,0.061 0.094,0.094 0.176,0.188 0.352,0.377 0.531,0.563 0.409,0.444 0.824,0.884 1.25,1.313 0.041,0.043 0.084,0.082 0.125,0.125 0.083,0.083 0.166,0.168 0.25,0.25 0.146,0.151 0.29,0.32 0.438,0.469 0.06,0.064 0.127,0.124 0.188,0.188 0.082,0.082 0.167,0.169 0.25,0.25 0.072,0.075 0.146,0.144 0.219,0.219 0.352,0.378 0.699,0.758 1.063,1.125 0.05,0.053 0.106,0.103 0.156,0.156 0.095,0.095 0.186,0.187 0.281,0.281 0.138,0.143 0.267,0.296 0.406,0.438 0.05,0.053 0.106,0.103 0.156,0.156 0.104,0.104 0.208,0.209 0.313,0.313 0.051,0.053 0.105,0.104 0.156,0.156 0.582,0.624 1.169,1.248 1.781,1.844 0.101,0.107 0.211,0.206 0.313,0.313 0.116,0.116 0.227,0.229 0.344,0.344 0.062,0.063 0.126,0.124 0.188,0.188 0.107,0.115 0.204,0.23 0.313,0.344 0.125,0.125 0.249,0.251 0.375,0.375 0.041,0.042 0.084,0.083 0.125,0.125 0.116,0.124 0.227,0.252 0.344,0.375 0.134,0.134 0.271,0.273 0.406,0.406 0.021,0.021 0.042,0.041 0.063,0.063 0.127,0.137 0.246,0.271 0.375,0.406 0.135,0.136 0.269,0.272 0.406,0.406 0.295,0.317 0.604,0.627 0.906,0.938 0.135,0.144 0.27,0.295 0.406,0.438 0.144,0.145 0.292,0.294 0.438,0.438 0.047,0.048 0.078,0.108 0.125,0.156 0.09,0.096 0.191,0.186 0.281,0.281 0.148,0.149 0.288,0.29 0.438,0.438 0.041,0.042 0.084,0.083 0.125,0.125 0.096,0.103 0.184,0.211 0.281,0.313 0.156,0.158 0.31,0.313 0.469,0.469 0.015,0.016 0.016,0.047 0.031,0.063 0.11,0.117 0.233,0.227 0.344,0.344 0.162,0.163 0.336,0.308 0.5,0.469 0.637,0.681 1.269,1.38 1.938,2.031 0.04,0.043 0.085,0.083 0.125,0.125 0.178,0.179 0.351,0.354 0.531,0.531 0.107,0.114 0.205,0.231 0.313,0.344 0.186,0.188 0.374,0.377 0.563,0.563 0.162,0.173 0.305,0.361 0.469,0.531 0.198,0.198 0.393,0.398 0.594,0.594 0.02,0.022 0.042,0.041 0.063,0.063 0.093,0.094 0.188,0.188 0.281,0.281 0.171,0.184 0.356,0.353 0.531,0.531 106.61,-4.443 193.52,-85.1 207.63,-188.94 -0.251,-0.144 -0.5,-0.29 -0.75,-0.438 10e-4,-0.002 0.188,-0.313 0.188,-0.313 -0.393,-0.237 -0.793,-0.455 -1.188,-0.688 10e-4,-0.002 0.188,-0.313 0.188,-0.313 -0.393,-0.237 -0.793,-0.455 -1.188,-0.688 10e-4,-0.002 0.188,-0.313 0.188,-0.313 -0.373,-0.225 -0.75,-0.435 -1.125,-0.656 l 0.156,-0.313 c -0.39,-0.235 -0.796,-0.457 -1.188,-0.688 10e-4,-0.002 0.188,-0.313 0.188,-0.313 -0.393,-0.237 -0.793,-0.455 -1.188,-0.688 10e-4,-0.002 0.188,-0.313 0.188,-0.313 -0.393,-0.237 -0.793,-0.455 -1.188,-0.688 10e-4,-0.002 0.188,-0.313 0.188,-0.313 -0.393,-0.237 -0.793,-0.455 -1.188,-0.688 l 0.188,-0.313 c -0.393,-0.237 -0.793,-0.455 -1.188,-0.688 10e-4,-0.002 0.188,-0.313 0.188,-0.313 -0.373,-0.225 -0.75,-0.435 -1.125,-0.656 10e-4,-0.002 0.156,-0.313 0.156,-0.313 l -0.031,0 c -0.384,-0.232 -0.771,-0.46 -1.156,-0.688 0.001,-0.002 0.188,-0.313 0.188,-0.313 -0.393,-0.237 -0.793,-0.455 -1.188,-0.688 l 0.188,-0.313 c -0.393,-0.237 -0.793,-0.455 -1.188,-0.688 0.001,-0.002 0.188,-0.313 0.188,-0.313 -0.393,-0.237 -0.793,-0.455 -1.188,-0.688 0.001,-0.002 0.188,-0.313 0.188,-0.313 -0.393,-0.237 -0.793,-0.455 -1.188,-0.688 0.001,-0.002 0.188,-0.313 0.188,-0.313 -0.393,-0.237 -0.793,-0.455 -1.188,-0.688 l 0.188,-0.313 c -0.373,-0.225 -0.75,-0.435 -1.125,-0.656 0.001,-0.002 0.156,-0.313 0.156,-0.313 -0.393,-0.237 -0.793,-0.455 -1.188,-0.688 10e-4,-0.002 0.188,-0.313 0.188,-0.313 -0.393,-0.237 -0.793,-0.455 -1.188,-0.688 10e-4,-0.002 0.188,-0.313 0.188,-0.313 -0.393,-0.237 -0.793,-0.455 -1.188,-0.688 10e-4,-0.002 0.188,-0.313 0.188,-0.313 -0.393,-0.237 -0.793,-0.455 -1.188,-0.688 10e-4,-0.002 0.188,-0.313 0.188,-0.313 -0.393,-0.237 -0.793,-0.455 -1.188,-0.688 10e-4,-0.002 0.188,-0.313 0.188,-0.313 -0.373,-0.225 -0.75,-0.435 -1.125,-0.656 0.001,-0.002 0.156,-0.313 0.156,-0.313 -0.393,-0.237 -0.793,-0.455 -1.188,-0.688 10e-4,-0.002 0.188,-0.313 0.188,-0.313 -0.393,-0.237 -0.793,-0.455 -1.188,-0.688 10e-4,-0.002 0.188,-0.313 0.188,-0.313 -0.393,-0.237 -0.793,-0.455 -1.188,-0.688 10e-4,-0.002 0.188,-0.313 0.188,-0.313 -0.393,-0.237 -0.793,-0.455 -1.188,-0.688 l 0.188,-0.313 c -0.393,-0.237 -0.793,-0.455 -1.188,-0.688 10e-4,-0.002 0.188,-0.313 0.188,-0.313 -0.373,-0.225 -0.75,-0.435 -1.125,-0.656 0.001,-0.002 0.156,-0.313 0.156,-0.313 -0.39,-0.235 -0.796,-0.457 -1.188,-0.688 10e-4,-0.002 0.188,-0.313 0.188,-0.313 -0.393,-0.237 -0.793,-0.455 -1.188,-0.688 10e-4,-0.002 0.188,-0.313 0.188,-0.313 -0.393,-0.237 -0.793,-0.455 -1.188,-0.688 10e-4,-0.002 0.188,-0.313 0.188,-0.313 -0.393,-0.237 -0.793,-0.455 -1.188,-0.688 10e-4,-0.002 0.188,-0.313 0.188,-0.313 -0.393,-0.237 -0.793,-0.455 -1.188,-0.688 10e-4,-0.002 0.188,-0.313 0.188,-0.313 -0.393,-0.237 -0.793,-0.455 -1.188,-0.688 l 0.188,-0.313 c -0.373,-0.225 -0.75,-0.435 -1.125,-0.656 10e-4,-0.002 0.156,-0.313 0.156,-0.313 -0.393,-0.237 -0.793,-0.455 -1.188,-0.688 10e-4,-0.002 0.188,-0.313 0.188,-0.313 -0.393,-0.237 -0.793,-0.455 -1.188,-0.688 10e-4,-0.002 0.188,-0.313 0.188,-0.313 -0.393,-0.237 -0.793,-0.455 -1.188,-0.688 l 0.188,-0.313 c -0.393,-0.237 -0.793,-0.455 -1.188,-0.688 10e-4,-0.002 0.188,-0.313 0.188,-0.313 -0.393,-0.237 -0.793,-0.455 -1.188,-0.688 10e-4,-0.002 0.188,-0.313 0.188,-0.313 -0.373,-0.225 -0.75,-0.435 -1.125,-0.656 10e-4,-0.002 0.156,-0.313 0.156,-0.313 -0.393,-0.237 -0.793,-0.455 -1.188,-0.688 10e-4,-0.002 0.188,-0.313 0.188,-0.313 -0.393,-0.237 -0.793,-0.455 -1.188,-0.688 l 0.188,-0.313 c -0.393,-0.237 -0.793,-0.455 -1.188,-0.688 10e-4,-0.002 0.188,-0.313 0.188,-0.313 -0.393,-0.237 -0.793,-0.455 -1.188,-0.688 10e-4,-0.002 0.188,-0.313 0.188,-0.313 -0.393,-0.237 -0.793,-0.455 -1.188,-0.688 l 0.188,-0.313 c -0.373,-0.225 -0.75,-0.435 -1.125,-0.656 l 0.156,-0.313 c -0.391,-0.236 -0.795,-0.456 -1.188,-0.688 10e-4,-0.002 0.188,-0.313 0.188,-0.313 -0.393,-0.237 -0.793,-0.455 -1.188,-0.688 10e-4,-0.002 0.188,-0.313 0.188,-0.313 -0.393,-0.237 -0.793,-0.455 -1.188,-0.688 l 0.188,-0.313 c -0.393,-0.237 -0.793,-0.455 -1.188,-0.688 10e-4,-0.002 0.188,-0.313 0.188,-0.313 -0.393,-0.237 -0.793,-0.455 -1.188,-0.688 10e-4,-0.002 0.188,-0.313 0.188,-0.313 -0.373,-0.225 -0.75,-0.435 -1.125,-0.656 10e-4,-0.002 0.156,-0.313 0.156,-0.313 -0.39,-0.235 -0.796,-0.457 -1.188,-0.688 l 0.188,-0.313 c -0.393,-0.237 -0.793,-0.455 -1.188,-0.688 l 0.188,-0.313 c -0.393,-0.237 -0.793,-0.455 -1.188,-0.688 0.001,-0.002 0.188,-0.313 0.188,-0.313 -0.393,-0.237 -0.793,-0.455 -1.188,-0.688 l 0.188,-0.313 c -0.393,-0.237 -0.793,-0.455 -1.188,-0.688 l 0.188,-0.313 c -0.393,-0.237 -0.793,-0.455 -1.188,-0.688 0.001,-0.002 0.188,-0.313 0.188,-0.313 -0.373,-0.225 -0.75,-0.435 -1.125,-0.656 10e-4,-0.002 0.156,-0.313 0.156,-0.313 -0.393,-0.237 -0.793,-0.455 -1.188,-0.688 l 0.188,-0.313 c -0.393,-0.237 -0.793,-0.455 -1.188,-0.688 l 0.188,-0.313 c -0.393,-0.237 -0.793,-0.455 -1.188,-0.688 0.001,-0.002 0.188,-0.313 0.188,-0.313 -0.393,-0.237 -0.793,-0.455 -1.188,-0.688 0.001,-0.002 0.188,-0.313 0.188,-0.313 -0.393,-0.237 -0.793,-0.455 -1.188,-0.688 l 0.188,-0.313 c -0.373,-0.225 -0.75,-0.435 -1.125,-0.656 l 0.156,-0.313 c -0.393,-0.237 -0.793,-0.455 -1.188,-0.688 0.001,-0.002 0.188,-0.313 0.188,-0.313 -0.393,-0.237 -0.793,-0.455 -1.188,-0.688 0.001,-0.002 0.188,-0.313 0.188,-0.313 -0.393,-0.237 -0.793,-0.455 -1.188,-0.688 l 0.188,-0.313 c -0.393,-0.237 -0.793,-0.455 -1.188,-0.688 l 0.188,-0.313 c -0.393,-0.237 -0.793,-0.455 -1.188,-0.688 0.001,-0.002 0.188,-0.313 0.188,-0.313 -0.373,-0.225 -0.75,-0.435 -1.125,-0.656 0.001,-0.002 0.156,-0.313 0.156,-0.313 -0.39,-0.235 -0.796,-0.457 -1.188,-0.688 l 0.188,-0.313 c -0.393,-0.237 -0.793,-0.455 -1.188,-0.688 0.001,-0.002 0.188,-0.313 0.188,-0.313 -0.393,-0.237 -0.793,-0.455 -1.188,-0.688 0.001,-0.002 0.188,-0.313 0.188,-0.313 -0.393,-0.237 -0.793,-0.455 -1.188,-0.688 0.001,-0.002 0.188,-0.313 0.188,-0.313 -0.393,-0.237 -0.793,-0.455 -1.188,-0.688 l 0.188,-0.313 c -0.393,-0.237 -0.793,-0.455 -1.188,-0.688 0.001,-0.002 0.188,-0.313 0.188,-0.313 -0.373,-0.225 -0.75,-0.435 -1.125,-0.656 0.001,-0.002 0.156,-0.313 0.156,-0.313 -0.393,-0.237 -0.793,-0.455 -1.188,-0.688 l 0.188,-0.313 c -0.393,-0.237 -0.793,-0.455 -1.188,-0.688 10e-4,-0.002 0.188,-0.313 0.188,-0.313 -0.393,-0.237 -0.793,-0.455 -1.188,-0.688 10e-4,-0.002 0.188,-0.313 0.188,-0.313 -0.393,-0.237 -0.793,-0.455 -1.188,-0.688 10e-4,-0.002 0.188,-0.313 0.188,-0.313 -0.393,-0.237 -0.793,-0.455 -1.188,-0.688 10e-4,-0.002 0.188,-0.313 0.188,-0.313 -0.373,-0.225 -0.75,-0.435 -1.125,-0.656 0.001,-0.002 0.156,-0.313 0.156,-0.313 -0.393,-0.237 -0.793,-0.455 -1.188,-0.688 10e-4,-0.002 0.188,-0.313 0.188,-0.313 -0.393,-0.237 -0.793,-0.455 -1.188,-0.688 10e-4,-0.002 0.188,-0.313 0.188,-0.313 -0.393,-0.237 -0.793,-0.455 -1.188,-0.688 10e-4,-0.002 0.188,-0.313 0.188,-0.313 -0.393,-0.237 -0.793,-0.455 -1.188,-0.688 10e-4,-0.002 0.188,-0.313 0.188,-0.313 -0.393,-0.237 -0.793,-0.455 -1.188,-0.688 10e-4,-0.002 0.188,-0.313 0.188,-0.313 -0.373,-0.225 -0.75,-0.435 -1.125,-0.656 0.001,-0.002 0.156,-0.313 0.156,-0.313 -0.391,-0.236 -0.795,-0.456 -1.188,-0.688 10e-4,-0.002 0.188,-0.313 0.188,-0.313 -0.393,-0.237 -0.793,-0.455 -1.188,-0.688 10e-4,-0.002 0.188,-0.313 0.188,-0.313 -0.393,-0.237 -0.793,-0.455 -1.188,-0.688 10e-4,-0.002 0.188,-0.313 0.188,-0.313 -0.393,-0.237 -0.793,-0.455 -1.188,-0.688 10e-4,-0.002 0.188,-0.313 0.188,-0.313 -0.393,-0.237 -0.793,-0.455 -1.188,-0.688 10e-4,-0.002 0.188,-0.313 0.188,-0.313 -0.373,-0.225 -0.75,-0.435 -1.125,-0.656 10e-4,-0.002 0.156,-0.313 0.156,-0.313 -0.39,-0.235 -0.796,-0.457 -1.188,-0.688 10e-4,-0.002 0.188,-0.313 0.188,-0.313 -0.393,-0.237 -0.793,-0.455 -1.188,-0.688 10e-4,-0.002 0.188,-0.313 0.188,-0.313 -0.393,-0.237 -0.793,-0.455 -1.188,-0.688 10e-4,-0.002 0.188,-0.313 0.188,-0.313 -0.393,-0.237 -0.793,-0.455 -1.188,-0.688 10e-4,-0.002 0.188,-0.313 0.188,-0.313 -0.393,-0.237 -0.793,-0.455 -1.188,-0.688 10e-4,-0.002 0.188,-0.313 0.188,-0.313 -0.393,-0.237 -0.793,-0.455 -1.188,-0.688 10e-4,-0.002 0.188,-0.313 0.188,-0.313 -0.373,-0.225 -0.75,-0.435 -1.125,-0.656 10e-4,-0.002 0.156,-0.313 0.156,-0.313 -0.393,-0.237 -0.793,-0.455 -1.188,-0.688 10e-4,-0.002 0.188,-0.313 0.188,-0.313 -0.393,-0.237 -0.793,-0.455 -1.188,-0.688 10e-4,-0.002 0.188,-0.313 0.188,-0.313 -0.393,-0.237 -0.793,-0.455 -1.188,-0.688 10e-4,-0.002 0.188,-0.313 0.188,-0.313 -0.393,-0.237 -0.793,-0.455 -1.188,-0.688 10e-4,-0.002 0.188,-0.313 0.188,-0.313 -0.393,-0.237 -0.793,-0.455 -1.188,-0.688 10e-4,-0.002 0.188,-0.313 0.188,-0.313 -0.373,-0.225 -0.75,-0.435 -1.125,-0.656 10e-4,-0.002 0.156,-0.313 0.156,-0.313 -0.393,-0.237 -0.793,-0.455 -1.188,-0.688 0.001,-0.002 0.188,-0.313 0.188,-0.313 -0.393,-0.237 -0.793,-0.455 -1.188,-0.688 0.001,-0.002 0.188,-0.313 0.188,-0.313 -0.393,-0.237 -0.793,-0.455 -1.188,-0.688 0.001,-0.002 0.188,-0.313 0.188,-0.313 -0.393,-0.237 -0.793,-0.455 -1.188,-0.688 0.001,-0.002 0.188,-0.313 0.188,-0.313 -0.393,-0.237 -0.793,-0.455 -1.188,-0.688 0.001,-0.002 0.188,-0.313 0.188,-0.313 -0.373,-0.225 -0.75,-0.435 -1.125,-0.656 10e-4,-0.002 0.156,-0.313 0.156,-0.313 -0.39,-0.235 -0.796,-0.457 -1.188,-0.688 0.001,-0.002 0.188,-0.313 0.188,-0.313 -0.393,-0.237 -0.793,-0.455 -1.188,-0.688 0.001,-0.002 0.188,-0.313 0.188,-0.313 -0.393,-0.237 -0.793,-0.455 -1.188,-0.688 0.001,-0.002 0.188,-0.313 0.188,-0.313 -0.393,-0.237 -0.793,-0.455 -1.188,-0.688 0.001,-0.002 0.188,-0.313 0.188,-0.313 -0.393,-0.237 -0.793,-0.455 -1.188,-0.688 0.001,-0.002 0.188,-0.313 0.188,-0.313 -0.393,-0.237 -0.793,-0.455 -1.188,-0.688 0.001,-0.002 0.188,-0.313 0.188,-0.313 -0.373,-0.225 -0.75,-0.435 -1.125,-0.656 10e-4,-0.002 0.156,-0.313 0.156,-0.313 -0.393,-0.237 -0.793,-0.455 -1.188,-0.688 0.001,-0.002 0.188,-0.313 0.188,-0.313 -0.393,-0.237 -0.793,-0.455 -1.188,-0.688 l 0.13,-0.35 c -0.393,-0.237 -0.793,-0.455 -1.188,-0.688 0.001,-0.002 0.188,-0.313 0.188,-0.313 -0.393,-0.237 -0.793,-0.455 -1.188,-0.688 0.001,-0.002 0.188,-0.313 0.188,-0.313 -0.393,-0.237 -0.793,-0.455 -1.188,-0.688 0.001,-0.002 0.188,-0.313 0.188,-0.313 -0.373,-0.225 -0.75,-0.435 -1.125,-0.656 0.001,-0.002 0.156,-0.313 0.156,-0.313 -0.393,-0.237 -0.793,-0.455 -1.188,-0.688 10e-4,-0.002 0.188,-0.313 0.188,-0.313 -0.393,-0.237 -0.793,-0.455 -1.188,-0.688 10e-4,-0.002 0.188,-0.313 0.188,-0.313 -0.393,-0.237 -0.793,-0.455 -1.188,-0.688 10e-4,-0.002 0.188,-0.313 0.188,-0.313 -0.393,-0.237 -0.793,-0.455 -1.188,-0.688 10e-4,-0.002 0.188,-0.313 0.188,-0.313 -0.393,-0.237 -0.793,-0.455 -1.188,-0.688 10e-4,-0.002 0.188,-0.313 0.188,-0.313 -0.373,-0.225 -0.75,-0.435 -1.125,-0.656 0.001,-0.002 0.156,-0.313 0.156,-0.313 -0.393,-0.237 -0.793,-0.455 -1.188,-0.688 10e-4,-0.002 0.188,-0.313 0.188,-0.313 -0.393,-0.237 -0.793,-0.455 -1.188,-0.688 10e-4,-0.002 0.188,-0.313 0.188,-0.313 -0.393,-0.237 -0.793,-0.455 -1.188,-0.688 10e-4,-0.002 0.188,-0.313 0.188,-0.313 -0.393,-0.237 -0.793,-0.455 -1.188,-0.688 10e-4,-0.002 0.188,-0.313 0.188,-0.313 -0.393,-0.237 -0.793,-0.455 -1.188,-0.688 10e-4,-0.002 0.188,-0.313 0.188,-0.313 -0.373,-0.225 -0.75,-0.435 -1.125,-0.656 0.001,-0.002 0.156,-0.313 0.156,-0.313 -0.39,-0.235 -0.796,-0.457 -1.188,-0.688 10e-4,-0.002 0.188,-0.313 0.188,-0.313 -0.393,-0.237 -0.793,-0.455 -1.188,-0.688 l 0.188,-0.313 c -0.393,-0.237 -0.793,-0.455 -1.188,-0.688 l 0.188,-0.313 c -21.691,-13.09 -45.886,-19.531 -70.09,-19.531 m 40.656,220.22 0.531,0.969 -0.5,0 c -0.025,-0.321 -0.031,-0.641 -0.031,-0.969 m 1.031,1.875 0.063,0.094 -0.063,0 c -0.002,-0.031 0.002,-0.062 0,-0.094" />
  <path
     id="path66"
     fill="#fff"
     d="m256 119.22c-24.21 0-48.4 6.442-70.09 19.531l54.19 98.19c4.72-2.606 10.134-4.094 15.906-4.094 5.773 0 11.187 1.488 15.906 4.094l54.19-98.19c-21.691-13.09-45.886-19.531-70.09-19.531m-140.22 146.56c0 52.36 26.743 100.82 70.13 127l54.16-98.09c-10.159-5.621-17.03-16.442-17.03-28.875v-0.031h-107.25m173.19 0v0.031c0 12.433-6.872 23.254-17.03 28.875l54.16 98.09c43.38-26.18 70.13-74.64 70.13-127h-107.25" />
</svg>
