<?xml version="1.0" encoding="UTF-8" standalone="no"?>
<svg xmlns="http://www.w3.org/2000/svg" height="512" viewBox="0 0 512 512" width="512" version="1.1">
 <metadata id="metadata80"/>
 <path id="path4" d="m471.95 253.05c0 120.9-98.01 218.9-218.9 218.9-120.9 0-218.9-98.01-218.9-218.9 0-120.9 98.01-218.9 218.9-218.9 120.9 0 218.9 98.01 218.9 218.9" fill-rule="evenodd" fill="#BF9E73"/>
 <path id="path6" d="m256.73 32.577c-119.06 0-216.41 93.37-223.62 211.27 2.263 5.493 7.424 9.187 10.357 14.599l1.414 13.07 2.37-12.12 26.1 11.08 18.04 16.893 15.479 2.293c-5.528 12.662-16.713 33.06-14.676 47.2 1.185 8.221 9.466 19.947 14.217 26.638 6.637 9.346 19.17 14.873 22.511 26.638l0.535 19.377 3.631 14.523c-0.6 5.087-4.576 13.239-3.822 19.15 10.253 7.143 21.13 13.435 32.524 18.804 1.994-1.897 1.739-5.998-0.077-8.905l8.828-12.345 11.198-8.37 7.873-27.632 16.969-11.122c6.946-10.534 1.911-19.296 4.51-30.12l11.427-32.677c-12.92-4.898-31.435-10.909-40.55-21.785l-2.37 1.223-2.408-10.892-14.294-7.262-2.37 2.408-3.593-16.931-19.07-1.567-14.332-7.911c-6.171-0.891-14.341 9.342-16.663 14.294l-8.37-1.185 2.408-2.446-7.147-4.854 1.185 4.854c-5.142-5.397-6.03-12.205-4.777-19.377l-8.332-3.631-1.223 3.631c-1.491-5.99-0.862-13.726 3.593-18.15-6.534-4.525-10.926-0.267-15.479 4.854l-9.555-19.377c-2.627 5.941-1.669 11.867-1.185 18.15h-2.408c-0.527-6.773-2.159-14.178 1.223-20.562 6.32-11.93 25.301-16.963 36.957-14.523l-1.223 2.408 10.739 9.708c0.049-18.508 7.236-20.464 17.313-33.938l7.03-12.994c7.82-8.732 19.967-14.686 30.46-18.612l13.147-8.293c-4.256-7.479-15.442-5.339-22.625-4.854 12.917-7.462 30.479-3.419 39.33-16.931-9.652-7.131-9.652-25.736-25.03-18.15l2.37-7.262-13.11-6.077-9.555 20.256-13.11 16.05-1.185-8.446c-5.04-2.378-18.915-6.559-19.19-13.338-0.294-7.368 22.13-18.498 27.556-22.969l-2.408 6.04 9.249-0.879c1.959-1.256 20.545-27.871 22.931-11.236 12.927 4.975 14.404 10.677 27.441 2.446l-8.332-3.669c-1.315-11.954-11.728-12.07-21.479-12.08l30.995-14.523c3.451 8.594 14.269 10.353 17.772 18.268 2.488 5.624-4.888 9.01-4.701 14.408 0.231 6.653 6.6 14.787 9.593 20.562l17.925-19.874c9.897-5.357 25.827-5.944 33.709-14.599 9.125-10.02 4.104-25.966 21.1-26.03-3.448-1.473-9-2.591-11.924 0l-3.593-3.631h4.777c-2.493-3.471-4.163-5.364-8.332-6.077-0.974-1.223-2.229-2.042-3.631-2.637-3.657-0.178-7.344-0.268-11.05-0.268m104.07 35.581c-4.191 3.484-11.301 5.241-16.663 6.077l-9.746 13.606-11.351 9.593c-1.828 4.409 1.086 11.08 1.987 15.517l11.924-6.04c1.715 6.01 6.362 7.559 10.739 10.892 7.07-13.616 0.985-26.635 17.886-33.9l-10.739 13.338 3.593-2.446 1.185 7.262 1.185-9.669c3.149 10.919-0.146 25.918-11.924 30.04l-11.924-0.994v-7.262c-6.781 1.437-6.526 4.865-4.739 10.892-4.602-1.328-7.348-1.107-10.739 2.408-3.642-3.8-6.607-6.688-7.147-12.08-2.315-2.341-3.354-3.935-3.593-7.262l-8.332-1.223 3.554 19.377c-3.181-6.06-6.475-7.537-13.11-6.077l3.593 14.523 4.777-1.185-3.593-1.223 4.777-8.485 2.37 13.338 10.739-2.446c-3.01 2.916-5.409 3.624-9.555 3.631l1.223 3.631h-5.962l8.332 14.523c-19.535 0.164-19.761 10.318-19.07 26.638 3.813 0.279 5.668 0.852 8.332 3.631 15.776-8.439 19.413-24.12 38.14-29.05 3.039 9.595 12.439 9.02 9.555 20.6 9.202-1.907 11.778-9.789 5.962-16.969 7.84 4.741 10.08 14.476 15.478 21.785 3.801-5.067 2.342-10.858 8.37-14.523v3.631c10.1 9.1 17.07 11.152 29.81 15.746-4.379 6.311-9.662 12.48-17.886 11.962-10.07-0.633-22.918-10.649-29.81 1.338l-19.19-15.44c-10.641-4.556-21.1-0.248-32.07-1.491l-4.777 2.408 2.37 1.223c-21.843 9.977-33.959 36.25-36.23 58.09l-4.166 14.523c2.323 14.184 14.175 28.872 24.12 38.524 7 6.795 12.03-6.486 18.689 0.229 8.812-3.387 22.11-9.299 30.19 0.153 5.309 6.211-0.237 11.356 1.605 18 3.187 11.498 10.796 24.971 10.778 37.531l-2.981 30.23c2.612 18.436 12.684 33.959 12.841 53.28 14.618-1.529 31.06-8.993 39.17-21.785l3.478-10.778 6.04-7.491-2.293-11.886c3.412-8.314 17.222-9.223 19.3-18.307 2.83-12.367-4.562-27.01-0.153-39.9 6.8-19.868 25.735-34.418 26.26-56.907l-14.294 1.223c12.868-16.03 40.13-24.1 26.22-48.42l-5.962 7.262h-2.37c-4.604-9.807-11.915-10.83-11.924-23.01 11.161 9.752 22.707 10.06 33.365 21.785 0.973-0.535 1.783-1.211 2.446-2.026-8.147-62.56-41.822-117.04-90.16-152.53-9.09-0.905-19.831-2.204-25.53-7.605h-2.408v-0.038" fill-opacity="0.437" fill="#fff"/>
 <g id="g8" fill-rule="evenodd">
  <path id="path10" fill-opacity="0.067" d="m256 1c-140.83 0-255 114.17-255 255s114.17 255 255 255 255-114.17 255-255-114.17-255-255-255m8.827 44.931c120.9 0 218.9 98 218.9 218.9s-98 218.9-218.9 218.9-218.93-98-218.93-218.9 98.03-218.9 218.93-218.9"/>
  <g id="g12" fill-opacity="0.129">
   <path id="path14" d="m256 4.433c-138.94 0-251.57 112.63-251.57 251.57s112.63 251.57 251.57 251.57 251.57-112.63 251.57-251.57-112.63-251.57-251.57-251.57m5.885 38.556c120.9 0 218.9 98 218.9 218.9s-98 218.9-218.9 218.9-218.93-98-218.93-218.9 98.03-218.9 218.93-218.9"/>
   <path id="path16" d="m256 8.356c-136.77 0-247.64 110.87-247.64 247.64s110.87 247.64 247.64 247.64 247.64-110.87 247.64-247.64-110.87-247.64-247.64-247.64m2.942 31.691c120.9 0 218.9 98 218.9 218.9s-98 218.9-218.9 218.9-218.93-98-218.93-218.9 98.03-218.9 218.93-218.9"/>
  </g>
  <path id="path18" d="m253.04 7.859c-135.42 0-245.19 109.78-245.19 245.19 0 135.42 109.78 245.19 245.19 245.19 135.42 0 245.19-109.78 245.19-245.19 0-135.42-109.78-245.19-245.19-245.19zm0 26.297c120.9 0 218.9 98 218.9 218.9s-98 218.9-218.9 218.9-218.93-98-218.93-218.9 98.03-218.9 218.93-218.9z" stroke-opacity="0.31" stroke="#000" stroke-width="4.904" fill="#fff"/>
 </g>
 <path id="path66" fill="#fff" d="m254.13 132.34c-0.516 0.318-3.534 11.688-6.844 25.906-3.416 14.677-6.666 27.27-7.25 27.969-0.125 0.151-0.393 0.335-0.719 0.531-26.394 5.929-47.21 26.534-53.44 52.813-0.01 0.042-0.022 0.083-0.031 0.125-1.112 2.724-1.998 3.18-4.531 3.844-2.02 0.529-13.813 3.289-26.19 6.125-12.375 2.836-22.84 5.462-23.25 5.844s10.615 3.324 24.5 6.531c13.885 3.208 26.17 6.374 27.28 7.06 0.615 0.379 1.362 1.45 2.094 2.844 6.13 26.726 27.328 47.692 54.19 53.47 3.353 2.211 3.808 5.528 6.438 16.625 2.02 8.509 4.891 20.874 6.406 27.469 2.044 8.896 2.986 11.476 3.594 10 0.45-1.094 3.298-12.8 6.344-26s5.913-24.845 6.344-25.875c0.361-0.862 2.288-2.01 5.469-3.375 23.16-6.634 41.475-24.716 48.41-47.75 0.273-0.908 0.513-1.827 0.75-2.75-0.238 0.927-0.476 1.839-0.75 2.75 0.974-3.01 2.32-5.672 3.094-5.969 0.801-0.308 13.226-3.286 27.594-6.625s26.28-6.215 26.469-6.406c0.469-0.464-3.446-1.48-29.344-7.469-12.1-2.798-22.846-5.422-23.875-5.844-0.713-0.292-1.627-1.646-2.688-3.875-0.007-0.014-0.025-0.018-0.031-0.031-6.236-27.579-28.496-49.06-56.5-54.12-0.249-0.286-0.431-0.592-0.563-0.906-0.495-1.186-3.467-13.406-6.594-27.16-3.127-13.75-5.979-25.332-6.344-25.75-0.011-0.013-0.015-0.01-0.031 0m0.812 52.656c1.224 0 2.448 0.03 3.656 0.094-1.21-0.061-2.431-0.094-3.656-0.094-0.984 0-1.963 0.023-2.938 0.063 0.976-0.041 1.952-0.063 2.938-0.063m-4.281 0.156c-0.997 0.059-1.983 0.119-2.969 0.219-0.879 0.089-1.756 0.191-2.625 0.313 0.872-0.123 1.743-0.221 2.625-0.313 0.985-0.102 1.972-0.158 2.969-0.219m4.281 18.844c28.719 0 52 23.281 52 52s-23.281 52-52 52-52-23.281-52-52 23.281-52 52-52m-70.66 45.03c-0.089 0.914-0.165 1.826-0.219 2.75 0.056-0.926 0.127-1.834 0.219-2.75m141.31 0.094c0.09 0.905 0.164 1.804 0.219 2.719-0.053-0.914-0.132-1.814-0.219-2.719m-141.56 3.531c-0.051 1.108-0.094 2.223-0.094 3.344 0 1.047 0.049 2.089 0.094 3.125-0.046-1.032-0.094-2.081-0.094-3.125 0-1.119 0.041-2.237 0.094-3.344m141.84 0.344c0.043 0.992 0.063 1.998 0.063 3 0-1.01-0.021-2-0.063-3m-141.81 7.094c0.059 1.04 0.147 2.066 0.25 3.094-0.106-1.032-0.19-2.049-0.25-3.094m141.75 0.094c-0.06 1.025-0.147 2.05-0.25 3.063-0.086 0.844-0.198 1.696-0.313 2.531 0.116-0.839 0.226-1.683 0.313-2.531 0.103-1.017 0.19-2.033 0.25-3.063m-0.875 7.656c-0.106 0.631-0.222 1.25-0.344 1.875 0.122-0.621 0.238-1.248 0.344-1.875m-77.25 58.781c1.132 0.115 2.26 0.22 3.406 0.281-1.145-0.062-2.276-0.166-3.406-0.281m3.594 0.281c1.21 0.061 2.431 0.094 3.656 0.094 1.163 0 2.32-0.038 3.469-0.094-1.151 0.056-2.305 0.094-3.469 0.094-1.223 0-2.448-0.032-3.656-0.094"/>
 <path id="path68" fill-opacity="0.235" d="m374.19 127.38-237.47 256.88 85.53 85.53c10.06 1.417 20.326 2.188 30.781 2.188 120.9 0 218.91-98.01 218.91-218.91 0-10.161-0.691-20.18-2.031-29.969l-95.72-95.72"/>
 <g id="g70" fill="#fff">
  <path id="path72" d="m237.27 238.95c37.435-30.23-0.097-0.034 37.36-30.13 99.78-81.57 0.438 0.088 99.87-81.85-88.84 125.7-61.965 88.4-89.23 126.48-7.272 10.175-13.783 18.5-14.468 18.5-33.637-32.76-0.104-0.121-33.523-33"/>
  <path id="path74" d="m271.95 271.25c-37.03 30.721 0.097 0.033-36.956 30.626-98.69 82.88-0.439-0.082-98.78 83.16 87.17-126.86 60.792-89.22 87.55-127.65 7.137-10.27 13.537-18.68 14.223-18.689 34.07 32.31 0.106 0.12 33.956 32.554"/>
 </g>
</svg>
