<?xml version="1.0" encoding="UTF-8" standalone="no"?>
<svg xmlns="http://www.w3.org/2000/svg" xmlns:sodipodi="http://sodipodi.sourceforge.net/DTD/sodipodi-0.dtd" xmlns:inkscape="http://www.inkscape.org/namespaces/inkscape" width="1814.17" height="1814.17" viewBox="0 0 512 512" version="1.1">
 <metadata id="metadata7392"/>
 <g inkscape:label="Layer 1" inkscape:groupmode="layer" id="layer1" transform="translate(0,215.00001)">
  <g id="g7417" transform="matrix(3.7795274,0,0,3.7795274,424.57147,-578.66256)">
   <path d="m 12.535576,163.17187 c 0,31.98812 -25.931816,57.91994 -57.919942,57.91994 -31.988127,0 -57.919944,-25.93182 -57.919944,-57.91994 0,-31.98813 25.931817,-57.91994 57.919944,-57.91994 31.988126,0 57.919942,25.93181 57.919942,57.91994" id="path7964" inkscape:connector-curvature="0" fill="#BF9E73" fill-rule="evenodd"/>
   <path d="m -45.328804,120.94966 -29.384626,41.16652 c 7.875059,11.56626 0.207433,-0.0701 19.695584,28.4771 l 0,16.3629 c 4.575704,4.47834 8.659019,9.271 12.840494,14.04673 23.743709,-1.29487 43.6721283,-16.89285 51.3371083,-38.32225 -18.19937,-20.55284 -36.3987323,-41.10303 -54.4882953,-61.72994" id="path7966" inkscape:connector-curvature="0" opacity="0.25"/>
   <g id="g7968" transform="matrix(0.26458334,0,0,0.26458334,-112.33454,96.219052)" fill-rule="evenodd">
    <path d="M 256,1 C 115.17,1 1,115.17 1,256 1,396.83 115.17,511 256,511 396.83,511 511,396.83 511,256 511,115.17 396.83,1 256,1 m 8.827,44.931 c 120.9,0 218.9,98 218.9,218.9 0,120.9 -98,218.9 -218.9,218.9 -120.9,0 -218.93,-98 -218.93,-218.9 0,-120.9 98.03,-218.9 218.93,-218.9" id="path7970" inkscape:connector-curvature="0" fill-opacity="0.067"/>
    <g id="g7972" fill-opacity="0.129">
     <path d="M 256,4.43 C 117.06,4.43 4.43,117.06 4.43,256 4.43,394.94 117.06,507.57 256,507.57 394.94,507.57 507.57,394.94 507.57,256 507.57,117.06 394.94,4.43 256,4.43 m 5.885,38.556 c 120.9,0 218.9,98 218.9,218.9 0,120.9 -98,218.9 -218.9,218.9 -120.9,0 -218.93,-98 -218.93,-218.9 0,-120.9 98.03,-218.9 218.93,-218.9" id="path7974" inkscape:connector-curvature="0"/>
     <path d="M 256,8.36 C 119.23,8.36 8.36,119.23 8.36,256 8.36,392.77 119.23,503.64 256,503.64 392.77,503.64 503.64,392.77 503.64,256 503.64,119.23 392.77,8.36 256,8.36 m 2.942,31.691 c 120.9,0 218.9,98 218.9,218.9 0,120.9 -98,218.9 -218.9,218.9 -120.9,0 -218.93,-98 -218.93,-218.9 0,-120.9 98.03,-218.9 218.93,-218.9" id="path7976" inkscape:connector-curvature="0"/>
    </g>
    <path d="M 253.04,7.86 C 117.62,7.86 7.85,117.64 7.85,253.05 c 0,135.42 109.78,245.19 245.19,245.19 135.42,0 245.19,-109.78 245.19,-245.19 C 498.23,117.63 388.45,7.86 253.04,7.86 Z m 0,26.297 c 120.9,0 218.9,98 218.9,218.9 0,120.9 -98,218.9 -218.9,218.9 -120.9,0 -218.93,-98 -218.93,-218.9 0,-120.9 98.03,-218.9 218.93,-218.9 z" id="path7978" inkscape:connector-curvature="0" stroke-opacity="0.31" fill="#ffffff" stroke="#000000" stroke-width="4.904"/>
   </g>
   <path d="m -45.328804,120.94437 -29.384626,41.17181 19.695584,0 0,44.84159 19.378084,0 0,-17.42626 7.450667,7.45067 13.702507,-13.70251 -21.15238,-21.15238 -0.01032,0 19.706167,0 -29.384626,-41.1824" id="path8074" inkscape:connector-curvature="0" fill="#ffffff"/>
  </g>
 </g>
</svg>
