<?xml version="1.0" encoding="UTF-8" standalone="no"?>
<svg xmlns="http://www.w3.org/2000/svg" height="512" viewBox="0 0 512 512" width="512" version="1.1">
 <metadata id="metadata80"/>
 <path id="path4" d="m471.95 253.05c0 120.9-98.01 218.9-218.9 218.9-120.9 0-218.9-98.01-218.9-218.9 0-120.9 98.01-218.9 218.9-218.9 120.9 0 218.9 98.01 218.9 218.9" fill-rule="evenodd" fill="#BF9E73"/>
 
 <g id="g8" fill-rule="evenodd">
  <path id="path10" fill-opacity="0.067" d="m256 1c-140.83 0-255 114.17-255 255s114.17 255 255 255 255-114.17 255-255-114.17-255-255-255m8.827 44.931c120.9 0 218.9 98 218.9 218.9s-98 218.9-218.9 218.9-218.93-98-218.93-218.9 98.03-218.9 218.93-218.9"/>
  <g id="g12" fill-opacity="0.129">
   <path id="path14" d="m256 4.433c-138.94 0-251.57 112.63-251.57 251.57s112.63 251.57 251.57 251.57 251.57-112.63 251.57-251.57-112.63-251.57-251.57-251.57m5.885 38.556c120.9 0 218.9 98 218.9 218.9s-98 218.9-218.9 218.9-218.93-98-218.93-218.9 98.03-218.9 218.93-218.9"/>
   <path id="path16" d="m256 8.356c-136.77 0-247.64 110.87-247.64 247.64s110.87 247.64 247.64 247.64 247.64-110.87 247.64-247.64-110.87-247.64-247.64-247.64m2.942 31.691c120.9 0 218.9 98 218.9 218.9s-98 218.9-218.9 218.9-218.93-98-218.93-218.9 98.03-218.9 218.93-218.9"/>
  </g>
  <path id="path18" d="m253.04 7.859c-135.42 0-245.19 109.78-245.19 245.19 0 135.42 109.78 245.19 245.19 245.19 135.42 0 245.19-109.78 245.19-245.19 0-135.42-109.78-245.19-245.19-245.19zm0 26.297c120.9 0 218.9 98 218.9 218.9s-98 218.9-218.9 218.9-218.93-98-218.93-218.9 98.03-218.9 218.93-218.9z" stroke-opacity="0.31" stroke="#000" stroke-width="4.904" fill="#fff"/>
 </g>
 <g id="g66" transform="matrix(11.286 0 0 11.286 134.84 102.65)" fill="#fff">
  <path id="path68" d="m20.249 14.11c-0.121 0-0.233 0.026-0.351 0.037 0.12-0.735 0.199-0.821 0.214-1.596 0 0.005-0.003 0.01-0.003 0.017 0.009-0.069 0.023-0.138 0.024-0.208-0.184-3.865-4.83-6.08-10.06-6.126-5.236 0.046-9.88 2.261-10.07 6.126 0.005 0.07 0.021 0.139 0.025 0.208 0.155 6.923 4.587 12.479 10.04 12.479 2.987 0 5.664-1.675 7.503-4.318 0.655 0.745 1.605 1.222 2.678 1.222 1.98 0 3.587-2.271 3.587-4.253 0-1.979-1.606-3.588-3.586-3.588m-3.678 0.922c-1.607 0.915-3.948 1.524-6.547 1.521-2.602 0.004-4.944-0.606-6.553-1.521-1.631-0.927-2.4-2.064-2.386-3.07-0.015-1.015 0.758-2.151 2.386-3.077 1.609-0.917 3.951-1.524 6.553-1.52 2.599-0.005 4.94 0.603 6.547 1.52 1.631 0.927 2.404 2.062 2.389 3.077 0.015 1.01-0.758 2.143-2.389 3.07m3.678 4.974c-0.76-0.001-1.372-0.527-1.558-1.227 0.259-0.563 0.488-1.821 0.683-2.433 0.258-0.165 0.545-0.287 0.875-0.291 0.904 0.004 1.639 0.739 1.641 1.643-0.003 0.906-0.737 2.307-1.641 2.308"/>
  <path id="path70" d="m15.753 9.175c-1.406-0.8-3.455-1.331-5.73-1.329-2.277-0.002-4.328 0.529-5.736 1.329-1.424 0.812-2.101 1.807-2.089 2.695-0.011 0.881 0.662 1.876 2.089 2.688 0 0 1.991-4.168 5.188-1.029 3.196 3.139 1.574-3.319 4.137-0.82 2.563 2.498 4.233-0.839 4.233-0.839 0.013-0.889-0.663-1.883-2.092-2.695"/>
  <path id="path72" d="m7.595 1.783c0.128 0.104 0.262 0.18 0.385 0.26 0.239 0.158 0.504 0.312 0.683 0.502 0.093 0.094 0.17 0.2 0.238 0.297 0.067 0.099 0.124 0.193 0.16 0.291 0.071 0.192 0.059 0.375 0.021 0.585-0.073 0.428-0.335 0.906-0.593 1.431l0.043 0.051c0.292-0.103 0.537-0.278 0.757-0.493 0.216-0.218 0.402-0.487 0.496-0.826 0.097-0.331 0.036-0.744-0.158-1.045-0.186-0.312-0.478-0.495-0.762-0.602-0.143-0.059-0.289-0.1-0.411-0.151-0.126-0.054-0.243-0.125-0.343-0.215-0.205-0.175-0.297-0.461-0.273-0.626 0.008-0.083 0.023-0.152 0.051-0.244 0.031-0.087 0.083-0.186 0.15-0.286 0.131-0.203 0.308-0.411 0.486-0.652l-0.03-0.06c-0.158 0.009-0.306 0.051-0.446 0.111-0.143 0.058-0.276 0.14-0.399 0.245-0.123 0.107-0.237 0.24-0.316 0.41-0.08 0.168-0.111 0.386-0.05 0.578 0.06 0.192 0.183 0.337 0.311 0.439"/>
  <path id="path74" d="m10.238 3.02c0.099 0.067 0.194 0.109 0.277 0.159 0.162 0.097 0.336 0.21 0.431 0.35 0.102 0.142 0.163 0.278 0.194 0.377 0.024 0.107 0.004 0.185-0.009 0.301-0.014 0.112-0.053 0.255-0.101 0.414-0.05 0.161-0.114 0.33-0.169 0.533l0.044 0.05c0.217-0.039 0.397-0.141 0.559-0.275 0.16-0.136 0.299-0.319 0.369-0.559 0.073-0.238 0.023-0.546-0.126-0.76-0.139-0.224-0.357-0.34-0.559-0.394-0.101-0.03-0.204-0.05-0.283-0.078-0.082-0.029-0.157-0.073-0.217-0.134-0.13-0.117-0.146-0.328-0.103-0.393 0.017-0.035 0.024-0.055 0.032-0.1 0.013-0.044 0.036-0.101 0.067-0.165 0.066-0.132 0.161-0.28 0.253-0.475l-0.03-0.06c-0.115-0.016-0.22 0.001-0.322 0.031-0.104 0.028-0.2 0.078-0.289 0.148-0.09 0.07-0.174 0.162-0.233 0.287-0.062 0.12-0.084 0.288-0.033 0.433 0.051 0.147 0.151 0.246 0.248 0.31"/>
 </g>
</svg>
