<?xml version="1.0" encoding="UTF-8" standalone="no"?>
<svg xmlns="http://www.w3.org/2000/svg" xmlns:sodipodi="http://sodipodi.sourceforge.net/DTD/sodipodi-0.dtd" xmlns:inkscape="http://www.inkscape.org/namespaces/inkscape" version="1.1" viewBox="0 0 512 512">
 <metadata id="metadata6484"/>
 <path inkscape:connector-curvature="0" id="path2306" d="m 471.95,253.05 c 0,120.9 -98.01,218.91 -218.91,218.91 -120.9,0 -218.91,-98.01 -218.91,-218.91 0,-120.9 98.01,-218.91 218.91,-218.91 120.9,0 218.91,98.01 218.91,218.91" fill="#BF9E73" fill-rule="evenodd"/>
 <g id="g2308">
  <path inkscape:connector-curvature="0" id="path2310" d="m 37.625,213.91 c -2.294,12.704 -3.5,25.791 -3.5,39.16 0,25.55 4.392,50.05 12.438,72.844 l 412.94,0 c 8.04,-22.796 12.438,-47.3 12.438,-72.844 0,-13.365 -1.175,-26.452 -3.469,-39.16 l -430.84,0 z" fill="#BF9E73"/>
  <path inkscape:connector-curvature="0" id="path2312" d="m 253.03,34.16 c -120.9,0 -218.91,98.01 -218.91,218.91 0,1.438 0.035,2.85 0.063,4.281 l 437.69,0 c 0.028,-1.431 0.063,-2.843 0.063,-4.281 0,-120.9 -98.01,-218.91 -218.91,-218.91 z" fill="#BF9E73"/>
 </g>
 <g id="g2314" fill-rule="evenodd">
  <path inkscape:connector-curvature="0" id="path2316" d="M 256,1 C 115.17,1 1,115.17 1,256 1,396.83 115.17,511 256,511 396.83,511 511,396.83 511,256 511,115.17 396.83,1 256,1 m 8.827,44.931 c 120.9,0 218.9,98 218.9,218.9 0,120.9 -98,218.9 -218.9,218.9 -120.9,0 -218.93,-98 -218.93,-218.9 0,-120.9 98.03,-218.9 218.93,-218.9" fill-opacity="0.067"/>
  <g id="g2318" fill-opacity="0.129">
   <path inkscape:connector-curvature="0" id="path2320" d="M 256,4.43 C 117.06,4.43 4.43,117.06 4.43,256 4.43,394.94 117.06,507.57 256,507.57 394.94,507.57 507.57,394.94 507.57,256 507.57,117.06 394.94,4.43 256,4.43 m 5.885,38.556 c 120.9,0 218.9,98 218.9,218.9 0,120.9 -98,218.9 -218.9,218.9 -120.9,0 -218.93,-98 -218.93,-218.9 0,-120.9 98.03,-218.9 218.93,-218.9"/>
   <path inkscape:connector-curvature="0" id="path2322" d="M 256,8.36 C 119.23,8.36 8.36,119.23 8.36,256 8.36,392.77 119.23,503.64 256,503.64 392.77,503.64 503.64,392.77 503.64,256 503.64,119.23 392.77,8.36 256,8.36 m 2.942,31.691 c 120.9,0 218.9,98 218.9,218.9 0,120.9 -98,218.9 -218.9,218.9 -120.9,0 -218.93,-98 -218.93,-218.9 0,-120.9 98.03,-218.9 218.93,-218.9"/>
  </g>
  <path inkscape:connector-curvature="0" id="path2324" d="M 253.04,7.86 C 117.62,7.86 7.85,117.64 7.85,253.05 c 0,135.42 109.78,245.19 245.19,245.19 135.42,0 245.19,-109.78 245.19,-245.19 C 498.23,117.63 388.45,7.86 253.04,7.86 Z m 0,26.297 c 120.9,0 218.9,98 218.9,218.9 0,120.9 -98,218.9 -218.9,218.9 -120.9,0 -218.93,-98 -218.93,-218.9 0,-120.9 98.03,-218.9 218.93,-218.9 z" stroke-opacity="0.31" fill="#ffffff" stroke="#000000" stroke-width="4.904"/>
 </g>
 <path inkscape:connector-curvature="0" id="path6476" d="M 370.82,131.6 217.72,284.7 141.18,208.16 93.33,256 l 127.22,127.22 82.89,82.9 c 83.19,-19.61 148.06,-86.68 164.46,-171.06 1.16,-5.97 2.09,-12.03 2.75,-18.17 0.01,-0.07 0.02,-0.14 0.02,-0.2 0.01,-0.02 0.01,-0.04 0.01,-0.05 0.13,-1.28 0.26,-2.56 0.37,-3.85 0.04,-0.41 0.08,-0.83 0.11,-1.24 0.1,-1.17 0.18,-2.34 0.26,-3.51 0.04,-0.53 0.07,-1.08 0.11,-1.62 0.07,-1.13 0.13,-2.27 0.18,-3.42 l 0.06,-1.5 c 0.04,-1.2 0.09,-2.4 0.11,-3.61 0.01,-0.2 0.01,-0.4 0.01,-0.6 0.03,-1.41 0.06,-2.82 0.06,-4.24 0,-1.66 -0.03,-3.33 -0.07,-4.99 -0.02,-1.13 -0.07,-2.26 -0.11,-3.4 -0.03,-0.69 -0.05,-1.39 -0.08,-2.09 -0.04,-0.81 -0.09,-1.63 -0.14,-2.45 -0.05,-1.02 -0.12,-2.04 -0.19,-3.05 -0.05,-0.69 -0.1,-1.37 -0.16,-2.05 -0.09,-1.12 -0.19,-2.23 -0.29,-3.33 L 421.5,182.28 370.82,131.6" opacity="0.25"/>
 <path inkscape:connector-curvature="0" id="path6478" d="m 370.82,131.6 -153.1,153.1 -75.13,-75.13 -1.414,-1.414 -47.848,47.848 1.416,1.414 122.98,122.98 1.416,1.414 1.414,1.414 200.95,-200.95 -1.414,-1.414 -1.414,-1.414 -46.43,-46.43 -1.414,-1.414 z" fill="#ffffff"/>
</svg>
