<?xml version="1.0" encoding="UTF-8" standalone="no"?>
<svg xmlns="http://www.w3.org/2000/svg" height="512" viewBox="0 0 512 512" width="512" version="1.1">
 <metadata id="metadata70"/>
 <defs id="defs68">
  <linearGradient id="ButtonShadow" y2="7.02" gradientUnits="userSpaceOnUse" x2="0" gradientTransform="scale(1.0059 .99417)" y1="92.54">
   <stop id="stop3750-1"/>
   <stop id="stop3752-6" stop-opacity="0.588" offset="1"/>
  </linearGradient>
  <filter id="filter3174" color-interpolation-filters="sRGB">
   <feGaussianBlur id="feGaussianBlur3176" stdDeviation="1.71"/>
  </filter>
 </defs>
 <path id="path8" fill-rule="evenodd" fill="#BF9E73" d="m471.95 253.05c0 120.9-98.006 218.91-218.91 218.91s-218.91-98.006-218.91-218.91 98.006-218.91 218.91-218.91 218.91 98.006 218.91 218.91"/>
 <path id="rect13772" fill="#BF9E73" d="m253.03 34.156c-117.71 0-213.7 92.895-218.69 209.38h219.16v-209.38c-0.15645-0.000328-0.31222 0-0.46875 0z" color="#000000"/>
 <path id="rect13790" fill="#BF9E73" d="m253.5 274.44v197.53c113.47-0.24 206.67-86.82 217.41-197.53h-217.41z" color="#000000"/>
 <path id="rect13785" fill="#BF9E73" d="m253.5 34.156v240.28h217.41c0.68204-7.0355 1.0312-14.161 1.0312-21.375 0-120.75-97.756-218.65-218.44-218.91z" color="#000000"/>
 <path id="path10" fill-rule="evenodd" fill-opacity="0.067" d="m256 1c-140.83 0-255 114.17-255 255s114.17 255 255 255 255-114.17 255-255-114.17-255-255-255m8.827 44.931c120.9 0 218.9 98 218.9 218.9s-98 218.9-218.9 218.9-218.93-98-218.93-218.9 98.03-218.9 218.93-218.9"/>
 <path id="path14" d="m256 4.43c-138.94 0-251.57 112.63-251.57 251.57s112.63 251.57 251.57 251.57 251.57-112.63 251.57-251.57-112.63-251.57-251.57-251.57m5.885 38.556c120.9 0 218.9 98 218.9 218.9s-98 218.9-218.9 218.9-218.93-98-218.93-218.9 98.03-218.9 218.93-218.9" fill-rule="evenodd" fill-opacity="0.129"/>
 <path id="path16" d="m256 8.36c-136.77 0-247.64 110.87-247.64 247.64s110.87 247.64 247.64 247.64 247.64-110.87 247.64-247.64-110.87-247.64-247.64-247.64m2.942 31.691c120.9 0 218.9 98 218.9 218.9s-98 218.9-218.9 218.9-218.93-98-218.93-218.9 98.03-218.9 218.93-218.9" fill-rule="evenodd" fill-opacity="0.129"/>
 <path id="path18" d="m253.04 7.86c-135.42 0-245.19 109.78-245.19 245.19 0 135.42 109.78 245.19 245.19 245.19 135.42 0 245.19-109.78 245.19-245.19 0-135.42-109.78-245.19-245.19-245.19zm0 26.297c120.9 0 218.9 98 218.9 218.9s-98 218.9-218.9 218.9-218.93-98-218.93-218.9 98.03-218.9 218.93-218.9z" stroke-opacity="0.31" fill-rule="evenodd" stroke="#000" stroke-width="4.904" fill="#fff"/>
 <path id="path15017" opacity="0.25" d="m126 127.12v85.94l30.47 30.47h-28.19v141.35l83.1 83.09c13.48 2.6 27.41 4 41.65 4 120.15 0 217.66-96.8 218.88-216.66l-102.07-102.06c-9.01-9.02-21.46-14.59-35.22-14.59-19.43 0-36.27 11.13-44.5 27.37l-38.9-38.91h-125.22z" color="#000000"/>
 <path id="path13780" fill="#fff" d="m126 127.12v85.938h125.22v-85.938h-125.22zm208.62 11.531c-27.535 0-49.875 22.34-49.875 49.875s22.34 49.844 49.875 49.844 49.844-22.308 49.844-49.844c0-27.535-22.308-49.875-49.844-49.875zm-206.34 104.88v141.34h125.22v-141.34h-125.22zm159.53 30.906v86.656h98.188v-86.656h-98.188z" color="#000000"/>
</svg>
