<?xml version="1.0" encoding="UTF-8" standalone="no"?>
<svg xmlns="http://www.w3.org/2000/svg" height="512" viewBox="0 0 512 512" width="512" version="1.1">
 <metadata id="metadata70"/>
 <defs id="defs68">
  <linearGradient id="ButtonShadow" y2="7.02" gradientUnits="userSpaceOnUse" x2="0" gradientTransform="scale(1.0059 .99417)" y1="92.54">
   <stop id="stop3750-1"/>
   <stop id="stop3752-6" stop-opacity="0.588" offset="1"/>
  </linearGradient>
  <filter id="filter3174" color-interpolation-filters="sRGB">
   <feGaussianBlur id="feGaussianBlur3176" stdDeviation="1.71"/>
  </filter>
  <radialGradient id="radialGradient21305" gradientUnits="userSpaceOnUse" cy="64" cx="64" r="64">
   <stop id="stop4218-0" stop-color="#fff"/>
   <stop id="stop4220-2" stop-color="#e8e8e8" offset="0.688"/>
   <stop id="stop4222-6" stop-color="#686868" offset="0.875"/>
   <stop id="stop4224-6" offset="1"/>
  </radialGradient>
 </defs>
 <path id="path8" fill-rule="evenodd" fill="#BF9E73" d="m471.95 253.05c0 120.9-98.006 218.91-218.91 218.91s-218.91-98.006-218.91-218.91 98.006-218.91 218.91-218.91 218.91 98.006 218.91 218.91"/>
 <path id="path17238" fill="#BF9E73" d="m253.03 34.156c-26.412 0-51.713 4.6781-75.156 13.25v411.31c23.444 8.5717 48.745 13.25 75.156 13.25 23.199 0 45.549-3.6257 66.531-10.312 11.489-63.957 17.844-134.5 17.844-208.59 0-74.127-6.3741-144.65-17.875-208.62-20.971-6.6789-43.315-10.281-66.5-10.281z" color="#000000"/>
 <path id="path17231" fill="#BF9E73" d="m253.03 34.156c-2.6385 0-5.2591 0.06367-7.875 0.15625v437.5c2.6156 0.0926 5.2368 0.15625 7.875 0.15625 47.461 0 91.389-15.119 127.25-40.781 15.593-53.332 24.406-113.92 24.406-178.12 0-64.237-8.8333-124.8-24.438-178.16-35.857-25.653-79.769-40.75-127.22-40.75z" color="#000000"/>
 <path id="rect17216" fill="#BF9E73" d="m312.41 42.281v421.53c92.05-25.87 159.53-110.43 159.53-210.75s-67.48-184.9-159.53-210.78z" color="#000000"/>
 <path id="path17243" opacity="0.24" fill-rule="evenodd" fill="#fff" d="m471.95 253.05c0 120.9-98.006 218.91-218.91 218.91s-218.91-98.006-218.91-218.91 98.006-218.91 218.91-218.91 218.91 98.006 218.91 218.91"/>
 <path id="path10" d="m256 1c-140.83 0-255 114.17-255 255s114.17 255 255 255 255-114.17 255-255-114.17-255-255-255m8.827 44.931c120.9 0 218.9 98 218.9 218.9s-98 218.9-218.9 218.9-218.93-98-218.93-218.9 98.03-218.9 218.93-218.9" fill-rule="evenodd" fill-opacity="0.067"/>
 <path id="path14" fill-rule="evenodd" fill-opacity="0.129" d="m256 4.43c-138.94 0-251.57 112.63-251.57 251.57s112.63 251.57 251.57 251.57 251.57-112.63 251.57-251.57-112.63-251.57-251.57-251.57m5.885 38.556c120.9 0 218.9 98 218.9 218.9s-98 218.9-218.9 218.9-218.93-98-218.93-218.9 98.03-218.9 218.93-218.9"/>
 <path id="path16" fill-rule="evenodd" fill-opacity="0.129" d="m256 8.36c-136.77 0-247.64 110.87-247.64 247.64s110.87 247.64 247.64 247.64 247.64-110.87 247.64-247.64-110.87-247.64-247.64-247.64m2.942 31.691c120.9 0 218.9 98 218.9 218.9s-98 218.9-218.9 218.9-218.93-98-218.93-218.9 98.03-218.9 218.93-218.9"/>
 <path id="path18" d="m253.04 7.86c-135.42 0-245.19 109.78-245.19 245.19 0 135.42 109.78 245.19 245.19 245.19 135.42 0 245.19-109.78 245.19-245.19 0-135.42-109.78-245.19-245.19-245.19zm0 26.297c120.9 0 218.9 98 218.9 218.9s-98 218.9-218.9 218.9-218.93-98-218.93-218.9 98.03-218.9 218.93-218.9z" stroke-opacity="0.31" fill-rule="evenodd" stroke="#000" stroke-width="4.904" fill="#fff"/>
 <path id="path18807" opacity="0.25" d="m132.62 125.41v260.87l82.38 82.38c12.35 2.16 25.06 3.31 38.03 3.31 118.27 0 214.61-93.81 218.75-211.06l-92.09-92.1h-45.28v113.13l-156.53-156.53h-45.26z" color="#000000"/>
 <path id="rect17206" fill="#fff" d="m132.62 125.41v260.88h45.25v-260.88h-45.25zm201.78 43.406v217.47h45.281v-217.47h-45.281zm-134.52 74.3v143.16h45.281v-143.16h-45.281zm67.281 47.719v95.438h45.25v-95.438h-45.25z" color="#000000"/>
</svg>
