<?xml version="1.0" encoding="UTF-8" standalone="no"?>
<svg xmlns="http://www.w3.org/2000/svg" height="512" viewBox="0 0 512 512" width="512" version="1.1">
 <metadata id="metadata76"/>
 <path id="path4" d="m471.95 253.05c0 120.9-98.01 218.9-218.9 218.9-120.9 0-218.9-98.01-218.9-218.9 0-120.9 98.01-218.9 218.9-218.9 120.9 0 218.9 98.01 218.9 218.9" fill-rule="evenodd" fill="#BF9E73"/>
 <path id="path6" fill-opacity="0.235" d="m290 108.47c-60.02 0.075-112.42 56.29-107.59 116.38 0.475 34.19 20.691 62.975 44.938 85.19 44.57 44.45 89.02 89.02 133.53 133.53 66.31-37.616 111.06-108.81 111.06-190.5 0-3.895-0.112-7.78-0.313-11.625-34.752-34.762-69.53-69.51-104.37-104.19-20.09-18.399-47.13-28.879-74.37-28.75-0.956-0.027-1.922-0.032-2.875-0.031m-105.34 180.72c-24.11 20.417-48.886 40.09-72.56 60.969-11.07 14.917 6.25 26.461 15.438 36.22 27.01 27 54.04 54.04 81.06 81.06 14.356 2.962 29.2 4.531 44.44 4.531 33.426 0 65.1-7.51 93.44-20.906-27.05-27.03-54.04-53.981-80.56-80.62-15.288-15.14-30.741-30.624-45.781-45.781-11.913-11.544-23.623-23.24-35.469-35.469"/>
 <g id="g8" fill-rule="evenodd">
  <path id="path10" fill-opacity="0.067" d="m256 1c-140.83 0-255 114.17-255 255s114.17 255 255 255 255-114.17 255-255-114.17-255-255-255m8.827 44.931c120.9 0 218.9 98 218.9 218.9s-98 218.9-218.9 218.9-218.93-98-218.93-218.9 98.03-218.9 218.93-218.9"/>
  <g id="g12" fill-opacity="0.129">
   <path id="path14" d="m256 4.433c-138.94 0-251.57 112.63-251.57 251.57s112.63 251.57 251.57 251.57 251.57-112.63 251.57-251.57-112.63-251.57-251.57-251.57m5.885 38.556c120.9 0 218.9 98 218.9 218.9s-98 218.9-218.9 218.9-218.93-98-218.93-218.9 98.03-218.9 218.93-218.9"/>
   <path id="path16" d="m256 8.356c-136.77 0-247.64 110.87-247.64 247.64s110.87 247.64 247.64 247.64 247.64-110.87 247.64-247.64-110.87-247.64-247.64-247.64m2.942 31.691c120.9 0 218.9 98 218.9 218.9s-98 218.9-218.9 218.9-218.93-98-218.93-218.9 98.03-218.9 218.93-218.9"/>
  </g>
  <path id="path18" d="m253.04 7.859c-135.42 0-245.19 109.78-245.19 245.19 0 135.42 109.78 245.19 245.19 245.19 135.42 0 245.19-109.78 245.19-245.19 0-135.42-109.78-245.19-245.19-245.19zm0 26.297c120.9 0 218.9 98 218.9 218.9s-98 218.9-218.9 218.9-218.93-98-218.93-218.9 98.03-218.9 218.93-218.9z" stroke-opacity="0.31" stroke="#000" stroke-width="4.904" fill="#fff"/>
 </g>
 <g id="g66" transform="matrix(1.0564 0 0 1.0564 53.17 53.17)" fill="#fff">
  <path id="path68" d="m58.22 278.64 66.24-55.21c9.379 14.422 21.684 26.73 36.09 36.11l-55.19 66.24c-6.137 7.363-16.723 7.859-23.508 1.074l-24.699-24.69c-6.785-6.785-6.289-17.371 1.074-23.508"/>
  <path id="path70" d="m122.18 157.09c0-57.836 46.891-104.73 104.73-104.73 57.836 0 104.73 46.895 104.73 104.73 0 57.836-46.895 104.73-104.73 104.73-57.836 0-104.73-46.891-104.73-104.73m104.73 78.55c43.31 0 78.55-35.23 78.55-78.55 0-43.31-35.23-78.55-78.55-78.55-43.31 0-78.55 35.23-78.55 78.55 0 43.31 35.23 78.55 78.55 78.55"/>
 </g>
</svg>
