<?xml version="1.0" encoding="UTF-8" standalone="no"?>
<svg xmlns:dc="http://purl.org/dc/elements/1.1/" xmlns:cc="http://creativecommons.org/ns#" xmlns:rdf="http://www.w3.org/1999/02/22-rdf-syntax-ns#" xmlns:svg="http://www.w3.org/2000/svg" xmlns="http://www.w3.org/2000/svg" xmlns:sodipodi="http://sodipodi.sourceforge.net/DTD/sodipodi-0.dtd" xmlns:inkscape="http://www.inkscape.org/namespaces/inkscape" height="512" viewBox="0 0 512 512" width="512" version="1.1" id="svg2" inkscape:version="0.91 r" sodipodi:docname="ccc_large.svg">
<defs id="defs17" />
<sodipodi:namedview pagecolor="#ffffff" bordercolor="#666666" borderopacity="1" objecttolerance="10" gridtolerance="10" guidetolerance="10" inkscape:pageopacity="0" inkscape:pageshadow="2" inkscape:window-width="1680" inkscape:window-height="1022" id="namedview15" showgrid="false" inkscape:zoom="1.3037281" inkscape:cx="172.48005" inkscape:cy="244.919" inkscape:window-x="1680" inkscape:window-y="0" inkscape:window-maximized="1" inkscape:current-layer="svg2" />
<metadata id="metadata28">
<rdf:RDF>
<cc:Work rdf:about="">
<dc:format>image/svg+xml</dc:format>
<dc:type rdf:resource="http://purl.org/dc/dcmitype/StillImage" />
<dc:title></dc:title>
</cc:Work>
</rdf:RDF>
</metadata>
<path style="fill:#BF9E73;fill-rule:evenodd" inkscape:connector-curvature="0" d="m 471.95,253.05 c 0,120.9 -98.01,218.9 -218.9,218.9 -120.9,0 -218.9,-98.01 -218.9,-218.9 0,-120.9 98.01,-218.9 218.9,-218.9 120.9,0 218.9,98.01 218.9,218.9" id="path6" />
<path style="fill-opacity:0.06700003;fill-rule:evenodd" inkscape:connector-curvature="0" d="M 256,1 C 115.17,1 1,115.17 1,256 1,396.83 115.17,511 256,511 396.83,511 511,396.83 511,256 511,115.17 396.83,1 256,1 m 8.827,44.931 c 120.9,0 218.9,98 218.9,218.9 0,120.9 -98,218.9 -218.9,218.9 -120.9,0 -218.93,-98 -218.93,-218.9 0,-120.9 98.03,-218.9 218.93,-218.9" id="path8" />
<g style="fill-opacity:0.12900002;fill-rule:evenodd" id="g10">
<path inkscape:connector-curvature="0" d="m 256,4.433 c -138.94,0 -251.57,112.63 -251.57,251.57 0,138.94 112.63,251.57 251.57,251.57 138.94,0 251.57,-112.63 251.57,-251.57 C 507.57,117.063 394.94,4.433 256,4.433 m 5.885,38.556 c 120.9,0 218.9,98 218.9,218.9 0,120.9 -98,218.9 -218.9,218.9 -120.9,0 -218.93,-98 -218.93,-218.9 0,-120.9 98.03,-218.9 218.93,-218.9" id="path12" />
<path inkscape:connector-curvature="0" d="m 256,8.356 c -136.77,0 -247.64,110.87 -247.64,247.64 0,136.77 110.87,247.64 247.64,247.64 136.77,0 247.64,-110.87 247.64,-247.64 C 503.64,119.226 392.77,8.356 256,8.356 m 2.942,31.691 c 120.9,0 218.9,98 218.9,218.9 0,120.9 -98,218.9 -218.9,218.9 -120.9,0 -218.93,-98 -218.93,-218.9 0,-120.9 98.03,-218.9 218.93,-218.9" id="path14" />
</g>
<path style="fill-opacity:0.23500001;fill-rule:evenodd" inkscape:connector-curvature="0" d="m 320.55319,107.97444 c -20.954,1.229 -43.801,20.321 -50.41,25.03 -9.792,8.229 -17.212,12.968 -26.344,21.875 -31.764,32.35 -8.967,9.27 -28.844,29.06 -1.327,0.43 -2.617,0.9 -3.906,1.406 -0.437,-0.465 -0.88,-0.905 -1.344,-1.344 -0.541,-0.583 -1.104,-1.146 -1.688,-1.688 -0.005,-0.005 0.005,-0.026 0,-0.031 -0.173,-0.161 -0.355,-0.312 -0.531,-0.469 -0.212,-0.215 -0.407,-0.448 -0.625,-0.656 -0.578,-0.63 -1.186,-1.231 -1.813,-1.813 -0.483,-0.511 -0.984,-1.021 -1.5,-1.5 -0.418,-0.443 -0.838,-0.863 -1.281,-1.281 -0.541,-0.583 -1.104,-1.146 -1.688,-1.688 -0.005,-0.005 0.005,-0.026 0,-0.031 -0.173,-0.161 -0.355,-0.312 -0.531,-0.469 -0.212,-0.215 -0.407,-0.448 -0.625,-0.656 -0.578,-0.63 -1.186,-1.231 -1.813,-1.813 -0.483,-0.511 -0.984,-1.021 -1.5,-1.5 -5.828,-6.17 -14.06,-10.03 -23.22,-10.03 -17.64,0 -31.938,14.297 -31.938,31.938 0,9.334 3.991,17.754 10.375,23.594 0.342,0.357 0.673,0.722 1.031,1.063 0.615,0.667 1.268,1.294 1.938,1.906 0.488,0.509 0.98,1.024 1.5,1.5 0.482,0.502 0.955,0.999 1.469,1.469 0.49,0.511 0.977,1.022 1.5,1.5 0.342,0.357 0.673,0.722 1.031,1.063 0.615,0.667 1.268,1.294 1.938,1.906 0.488,0.509 0.98,1.024 1.5,1.5 0.482,0.502 0.955,0.999 1.469,1.469 0.49,0.511 0.977,1.022 1.5,1.5 0.342,0.357 0.673,0.722 1.031,1.063 0.615,0.667 1.268,1.294 1.938,1.906 0.192,0.2 0.397,0.398 0.594,0.594 -0.325,1.581 -0.599,3.193 -0.813,4.813 -4.711,-1.402 -9.709,-2.188 -14.875,-2.188 -28.793,0 -52.12,23.363 -52.12,52.16 0,14.922 6.267,28.375 16.313,37.875 0.395,0.404 0.78,0.827 1.188,1.219 0.391,0.407 0.814,0.793 1.219,1.188 0.669,0.708 1.355,1.393 2.063,2.063 0.299,0.306 0.6,0.607 0.906,0.906 0.644,0.681 1.289,1.355 1.969,2 0.421,0.433 0.846,0.863 1.281,1.281 0.391,0.407 0.814,0.793 1.219,1.188 0.669,0.708 1.355,1.393 2.063,2.063 0.299,0.306 0.6,0.607 0.906,0.906 0.644,0.681 1.289,1.355 1.969,2 0.421,0.433 0.846,0.863 1.281,1.281 0.391,0.407 0.814,0.793 1.219,1.188 0.669,0.708 1.355,1.393 2.063,2.063 0.299,0.306 0.6,0.607 0.906,0.906 0.644,0.681 1.289,1.355 1.969,2 0.421,0.433 0.846,0.863 1.281,1.281 0.391,0.407 0.814,0.793 1.219,1.188 0.669,0.708 1.355,1.393 2.063,2.063 0.299,0.306 0.6,0.607 0.906,0.906 0.644,0.681 1.289,1.355 1.969,2 0.421,0.433 0.846,0.863 1.281,1.281 0.391,0.407 0.814,0.793 1.219,1.188 0.669,0.708 1.355,1.393 2.063,2.063 0.299,0.306 0.6,0.607 0.906,0.906 0.644,0.681 1.289,1.355 1.969,2 0.421,0.433 0.846,0.863 1.281,1.281 0.391,0.407 0.814,0.793 1.219,1.188 0.669,0.708 1.355,1.393 2.063,2.063 0.299,0.306 0.6,0.607 0.906,0.906 0.644,0.681 1.289,1.355 1.969,2 0.421,0.433 0.846,0.863 1.281,1.281 0.391,0.407 0.814,0.793 1.219,1.188 0.669,0.708 1.355,1.393 2.063,2.063 0.328,0.336 0.663,0.673 1,1 0.615,0.647 1.228,1.291 1.875,1.906 0.421,0.433 0.846,0.863 1.281,1.281 0.391,0.407 0.814,0.793 1.219,1.188 0.669,0.708 1.355,1.393 2.063,2.063 0.395,0.404 0.78,0.827 1.188,1.219 0.485,0.505 0.995,0.983 1.5,1.469 0.486,0.505 0.963,1.015 1.469,1.5 0.391,0.407 0.814,0.793 1.219,1.188 0.669,0.708 1.355,1.393 2.063,2.063 0.395,0.404 0.78,0.827 1.188,1.219 0.418,0.436 0.848,0.86 1.281,1.281 0.615,0.647 1.259,1.26 1.906,1.875 0.327,0.337 0.664,0.672 1,1 0.669,0.708 1.355,1.393 2.063,2.063 0.395,0.404 0.78,0.827 1.188,1.219 0.418,0.436 0.848,0.86 1.281,1.281 0.645,0.679 1.319,1.325 2,1.969 0.299,0.306 0.6,0.607 0.906,0.906 0.669,0.708 1.355,1.393 2.063,2.063 0.395,0.404 0.78,0.827 1.188,1.219 0.418,0.436 0.848,0.86 1.281,1.281 0.645,0.679 1.319,1.325 2,1.969 0.299,0.306 0.6,0.607 0.906,0.906 0.669,0.708 1.355,1.393 2.063,2.063 0.395,0.404 0.78,0.827 1.188,1.219 0.418,0.436 0.848,0.86 1.281,1.281 0.645,0.679 1.319,1.325 2,1.969 0.299,0.306 0.6,0.607 0.906,0.906 0.669,0.708 1.355,1.393 2.063,2.063 0.395,0.404 0.78,0.827 1.188,1.219 0.418,0.436 0.848,0.86 1.281,1.281 0.645,0.679 1.319,1.325 2,1.969 0.299,0.306 0.6,0.607 0.906,0.906 0.669,0.708 1.355,1.393 2.063,2.063 0.395,0.404 0.78,0.827 1.188,1.219 0.418,0.436 0.848,0.86 1.281,1.281 0.645,0.679 1.319,1.325 2,1.969 0.299,0.306 0.6,0.607 0.906,0.906 0.669,0.708 1.355,1.393 2.063,2.063 0.395,0.404 0.78,0.827 1.188,1.219 0.418,0.436 0.848,0.86 1.281,1.281 0.645,0.679 1.319,1.325 2,1.969 0.299,0.306 0.6,0.607 0.906,0.906 0.669,0.708 1.355,1.393 2.063,2.063 0.395,0.404 0.78,0.827 1.188,1.219 0.391,0.407 0.814,0.793 1.219,1.188 0.669,0.708 1.355,1.393 2.063,2.063 0.299,0.306 0.6,0.607 0.906,0.906 0.669,0.708 1.355,1.393 2.063,2.063 0.395,0.404 0.78,0.827 1.188,1.219 0.391,0.407 0.814,0.793 1.219,1.188 0.669,0.708 1.355,1.393 2.063,2.063 0.299,0.306 0.6,0.607 0.906,0.906 0.669,0.708 1.355,1.393 2.063,2.063 0.395,0.404 0.78,0.827 1.188,1.219 0.391,0.407 0.814,0.793 1.219,1.188 0.669,0.708 1.355,1.393 2.063,2.063 0.299,0.306 0.6,0.607 0.906,0.906 0.669,0.708 1.355,1.393 2.063,2.063 0.395,0.404 0.78,0.827 1.188,1.219 0.391,0.407 0.814,0.793 1.219,1.188 0.101,0.107 0.21,0.206 0.313,0.313 117.56,-1.761 212.66,-96.18 215.5,-213.47 -0.15,-0.132 -0.309,-0.26 -0.469,-0.375 -0.127,-0.205 -0.006,-0.001 -0.219,-0.344 -0.394,-0.437 -0.832,-0.802 -1.281,-1.125 -0.128,-0.206 -0.004,0.002 -0.219,-0.344 -0.394,-0.437 -0.801,-0.833 -1.25,-1.156 -0.127,-0.205 -0.006,-0.001 -0.219,-0.344 -0.394,-0.437 -0.832,-0.802 -1.281,-1.125 -0.13,-0.21 0.008,-0.01 -0.219,-0.375 -0.394,-0.437 -0.832,-0.802 -1.281,-1.125 -0.127,-0.205 -0.005,0 -0.219,-0.344 -0.394,-0.437 -0.801,-0.833 -1.25,-1.156 -0.127,-0.205 -0.006,-10e-4 -0.219,-0.344 -0.394,-0.437 -0.832,-0.802 -1.281,-1.125 -0.128,-0.206 -0.004,0.002 -0.219,-0.344 -0.394,-0.437 -0.801,-0.833 -1.25,-1.156 -0.127,-0.205 -0.006,-0.001 -0.219,-0.344 -0.394,-0.437 -0.832,-0.802 -1.281,-1.125 -0.13,-0.21 0.008,-0.01 -0.219,-0.375 -0.394,-0.437 -0.832,-0.802 -1.281,-1.125 -0.127,-0.205 -0.005,0 -0.219,-0.344 -0.394,-0.437 -0.801,-0.833 -1.25,-1.156 -0.127,-0.205 -0.006,-0.001 -0.219,-0.344 -0.394,-0.437 -0.832,-0.802 -1.281,-1.125 -0.128,-0.206 -0.004,0.002 -0.219,-0.344 -0.394,-0.437 -0.801,-0.833 -1.25,-1.156 -0.127,-0.205 -0.006,-0.001 -0.219,-0.344 -0.394,-0.437 -0.832,-0.802 -1.281,-1.125 -0.13,-0.21 0.008,-0.01 -0.219,-0.375 -0.394,-0.437 -0.832,-0.802 -1.281,-1.125 -0.127,-0.205 -0.005,0 -0.219,-0.344 -0.394,-0.437 -0.801,-0.833 -1.25,-1.156 -0.127,-0.205 -0.006,-0.001 -0.219,-0.344 -0.394,-0.437 -0.832,-0.802 -1.281,-1.125 -0.128,-0.206 -0.004,0.002 -0.219,-0.344 -0.394,-0.437 -0.801,-0.833 -1.25,-1.156 -0.127,-0.205 -0.006,-0.001 -0.219,-0.344 -0.394,-0.437 -0.832,-0.802 -1.281,-1.125 -0.13,-0.21 0.008,-0.01 -0.219,-0.375 -0.394,-0.437 -0.832,-0.802 -1.281,-1.125 -0.127,-0.205 -0.005,0 -0.219,-0.344 -0.394,-0.437 -0.801,-0.833 -1.25,-1.156 -0.127,-0.205 -0.006,-0.001 -0.219,-0.344 -0.394,-0.437 -0.832,-0.802 -1.281,-1.125 -0.128,-0.206 -0.004,0.002 -0.219,-0.344 l 0,-0.031 c -0.394,-0.437 -0.801,-0.802 -1.25,-1.125 -0.127,-0.205 -0.006,-0.001 -0.219,-0.344 -0.394,-0.437 -0.832,-0.802 -1.281,-1.125 -0.13,-0.21 0.008,-0.01 -0.219,-0.375 -0.394,-0.437 -0.832,-0.802 -1.281,-1.125 -0.128,-0.206 -0.004,0.002 -0.219,-0.344 -0.394,-0.437 -0.801,-0.833 -1.25,-1.156 -0.127,-0.205 -0.006,-0.001 -0.219,-0.344 -0.394,-0.437 -0.832,-0.802 -1.281,-1.125 -0.13,-0.21 0.008,-0.01 -0.219,-0.375 -0.394,-0.437 -0.801,-0.802 -1.25,-1.125 -0.127,-0.205 -0.006,-10e-4 -0.219,-0.344 -0.394,-0.437 -0.832,-0.802 -1.281,-1.125 -0.13,-0.21 0.008,-0.01 -0.219,-0.375 -0.394,-0.437 -0.832,-0.802 -1.281,-1.125 -0.128,-0.206 -0.004,0.002 -0.219,-0.344 -0.394,-0.437 -0.801,-0.833 -1.25,-1.156 -0.127,-0.205 -0.006,-0.001 -0.219,-0.344 -0.394,-0.437 -0.832,-0.802 -1.281,-1.125 -0.13,-0.21 0.008,-0.01 -0.219,-0.375 -0.394,-0.437 -0.801,-0.802 -1.25,-1.125 -0.127,-0.205 -0.006,-0.001 -0.219,-0.344 -0.394,-0.437 -0.832,-0.802 -1.281,-1.125 -0.13,-0.21 0.008,-0.01 -0.219,-0.375 -0.394,-0.437 -0.832,-0.802 -1.281,-1.125 -0.128,-0.206 -0.004,0.002 -0.219,-0.344 -0.394,-0.437 -0.801,-0.833 -1.25,-1.156 -0.127,-0.205 -0.006,-0.001 -0.219,-0.344 -0.394,-0.437 -0.832,-0.802 -1.281,-1.125 -0.13,-0.21 0.008,-0.01 -0.219,-0.375 -0.394,-0.437 -0.801,-0.802 -1.25,-1.125 -0.127,-0.205 -0.006,-0.001 -0.219,-0.344 -0.394,-0.437 -0.832,-0.802 -1.281,-1.125 -0.13,-0.21 0.008,-0.01 -0.219,-0.375 -0.394,-0.437 -0.832,-0.802 -1.281,-1.125 -0.128,-0.206 -0.004,0.002 -0.219,-0.344 -0.394,-0.437 -0.801,-0.833 -1.25,-1.156 -0.127,-0.205 -0.006,-10e-4 -0.219,-0.344 -0.394,-0.437 -0.832,-0.802 -1.281,-1.125 -0.13,-0.21 0.008,-0.01 -0.219,-0.375 -0.394,-0.437 -0.801,-0.802 -1.25,-1.125 -0.127,-0.205 -0.006,-0.001 -0.219,-0.344 -0.394,-0.437 -0.832,-0.833 -1.281,-1.156 -0.127,-0.205 -0.006,-0.001 -0.219,-0.344 -0.394,-0.437 -0.832,-0.802 -1.281,-1.125 -0.128,-0.206 -0.004,0.002 -0.219,-0.344 -0.394,-0.437 -0.801,-0.833 -1.25,-1.156 -0.127,-0.205 -0.006,-0.001 -0.219,-0.344 -0.394,-0.437 -0.832,-0.802 -1.281,-1.125 -0.13,-0.21 0.008,-0.01 -0.219,-0.375 -0.394,-0.437 -0.801,-0.802 -1.25,-1.125 -0.127,-0.205 -0.006,-0.001 -0.219,-0.344 -0.394,-0.437 -0.832,-0.833 -1.281,-1.156 -0.127,-0.205 -0.006,-0.001 -0.219,-0.344 -0.394,-0.437 -0.832,-0.802 -1.281,-1.125 -0.128,-0.206 -0.004,0.002 -0.219,-0.344 -0.394,-0.437 -0.801,-0.833 -1.25,-1.156 -0.127,-0.205 -0.006,-0.001 -0.219,-0.344 -0.394,-0.437 -0.832,-0.802 -1.281,-1.125 -0.13,-0.21 0.008,-0.01 -0.219,-0.375 -0.378,-0.419 -0.789,-0.779 -1.219,-1.094 -0.132,-0.213 -0.014,0.004 -0.25,-0.375 -0.394,-0.437 -0.832,-0.833 -1.281,-1.156 -0.127,-0.205 -0.006,-10e-4 -0.219,-0.344 -0.394,-0.437 -0.832,-0.802 -1.281,-1.125 -0.128,-0.206 -0.004,0.002 -0.219,-0.344 -0.394,-0.437 -0.801,-0.833 -1.25,-1.156 -0.127,-0.205 -0.006,-0.001 -0.219,-0.344 -0.394,-0.437 -0.832,-0.802 -1.281,-1.125 -0.13,-0.21 0.008,-0.01 -0.219,-0.375 -0.378,-0.419 -0.789,-0.779 -1.219,-1.094 -0.132,-0.213 -0.014,0.004 -0.25,-0.375 -0.394,-0.437 -0.832,-0.833 -1.281,-1.156 -0.127,-0.205 -0.006,-0.001 -0.219,-0.344 -0.394,-0.437 -0.832,-0.802 -1.281,-1.125 -0.128,-0.206 -0.004,0.002 -0.219,-0.344 -0.394,-0.437 -0.801,-0.833 -1.25,-1.156 -0.127,-0.205 -0.006,-0.001 -0.219,-0.344 -0.394,-0.437 -0.832,-0.802 -1.281,-1.125 -0.13,-0.21 0.008,-0.01 -0.219,-0.375 -0.378,-0.419 -0.789,-0.779 -1.219,-1.094 -0.132,-0.213 -0.014,0.004 -0.25,-0.375 -0.394,-0.437 -0.832,-0.833 -1.281,-1.156 -0.127,-0.205 -0.006,-0.001 -0.219,-0.344 -0.394,-0.437 -0.832,-0.802 -1.281,-1.125 -0.128,-0.206 -0.004,0.002 -0.219,-0.344 -0.394,-0.437 -0.801,-0.833 -1.25,-1.156 -0.127,-0.205 -0.006,-10e-4 -0.219,-0.344 -0.394,-0.437 -0.832,-0.802 -1.281,-1.125 -0.13,-0.21 0.008,-0.01 -0.219,-0.375 -0.378,-0.419 -0.789,-0.779 -1.219,-1.094 -0.132,-0.213 -0.014,0.004 -0.25,-0.375 -0.394,-0.437 -0.832,-0.833 -1.281,-1.156 -0.127,-0.205 -0.006,-0.001 -0.219,-0.344 -0.394,-0.437 -0.832,-0.802 -1.281,-1.125 -0.128,-0.206 -0.004,0.002 -0.219,-0.344 -0.394,-0.437 -0.801,-0.833 -1.25,-1.156 -0.127,-0.205 -0.006,-0.001 -0.219,-0.344 -0.394,-0.437 -0.832,-0.802 -1.281,-1.125 -0.13,-0.21 0.008,-0.01 -0.219,-0.375 -0.378,-0.419 -0.789,-0.779 -1.219,-1.094 -0.132,-0.213 -0.014,0.004 -0.25,-0.375 l -0.031,0 c -0.394,-0.437 -0.801,-0.833 -1.25,-1.156 -0.127,-0.205 -0.006,-0.001 -0.219,-0.344 -0.394,-0.437 -0.832,-0.802 -1.281,-1.125 -0.128,-0.206 -0.004,0.002 -0.219,-0.344 -0.394,-0.437 -0.801,-0.833 -1.25,-1.156 -0.127,-0.205 -0.006,-0.001 -0.219,-0.344 -0.394,-0.437 -0.832,-0.802 -1.281,-1.125 -0.13,-0.21 0.008,-0.01 -0.219,-0.375 -0.378,-0.419 -0.789,-0.779 -1.219,-1.094 -0.132,-0.213 -0.014,0.004 -0.25,-0.375 l -0.031,0 c -0.394,-0.437 -0.801,-0.833 -1.25,-1.156 -0.127,-0.205 -0.006,-0.001 -0.219,-0.344 -0.394,-0.437 -0.832,-0.802 -1.281,-1.125 -0.128,-0.206 -0.004,0.002 -0.219,-0.344 -0.394,-0.437 -0.801,-0.833 -1.25,-1.156 -0.127,-0.205 -0.006,-0.001 -0.219,-0.344 -0.394,-0.437 -0.832,-0.802 -1.281,-1.125 -0.13,-0.21 0.008,-0.01 -0.219,-0.375 -0.394,-0.437 -0.832,-0.802 -1.281,-1.125 -0.127,-0.205 -0.005,0 -0.219,-0.344 -0.394,-0.437 -0.801,-0.833 -1.25,-1.156 -0.127,-0.205 -0.006,-0.001 -0.219,-0.344 -0.394,-0.437 -0.832,-0.802 -1.281,-1.125 -0.128,-0.206 -0.004,0.002 -0.219,-0.344 -0.394,-0.437 -0.801,-0.833 -1.25,-1.156 -0.127,-0.205 -0.006,-10e-4 -0.219,-0.344 -0.394,-0.437 -0.832,-0.802 -1.281,-1.125 -0.13,-0.21 0.008,-0.01 -0.219,-0.375 -0.394,-0.437 -0.832,-0.802 -1.281,-1.125 -0.127,-0.205 -0.005,0 -0.219,-0.344 -0.394,-0.437 -0.801,-0.833 -1.25,-1.156 -0.127,-0.205 -0.006,-0.001 -0.219,-0.344 -0.394,-0.437 -0.832,-0.802 -1.281,-1.125 -0.128,-0.206 -0.004,0.002 -0.219,-0.344 -0.394,-0.437 -0.801,-0.833 -1.25,-1.156 -0.127,-0.205 -0.006,-0.001 -0.219,-0.344 -0.394,-0.437 -0.832,-0.802 -1.281,-1.125 -0.13,-0.21 0.008,-0.01 -0.219,-0.375 -0.394,-0.437 -0.832,-0.802 -1.281,-1.125 -0.127,-0.205 -0.005,0 -0.219,-0.344 -0.394,-0.437 -0.801,-0.833 -1.25,-1.156 -0.127,-0.205 -0.006,-0.001 -0.219,-0.344 -0.394,-0.437 -0.832,-0.802 -1.281,-1.125 -0.128,-0.206 -0.004,0.002 -0.219,-0.344 -0.394,-0.437 -0.801,-0.833 -1.25,-1.156 -0.127,-0.205 -0.006,-0.001 -0.219,-0.344 -0.394,-0.437 -0.832,-0.802 -1.281,-1.125 -0.13,-0.21 0.008,-0.01 -0.219,-0.375 -3.153,-3.494 -8.399,-3.089 -10.781,-3.094" id="path386" />
<path inkscape:connector-curvature="0" style="fill:#ffffff;fill-rule:evenodd" id="path444" d="m 320.57319,107.98444 c -20.954,1.229 -43.801,20.311 -50.41,25.02 -9.792,8.229 -17.216,12.967 -26.348,21.874 -31.764,32.35 -8.968,9.287 -28.845,29.08 -3.602,1.166 -7.07,2.615 -10.378,4.344 -1.981,-15.738 -15.43,-27.908 -31.706,-27.908 -17.64,0 -31.94,14.3 -31.94,31.94 0,17.57 14.188,31.827 31.732,31.94 -1.783,4.728 -3.038,9.711 -3.719,14.877 -4.711,-1.402 -9.711,-2.185 -14.877,-2.185 -28.793,0 -52.12,23.382 -52.12,52.18 0,28.793 23.33,52.12 52.12,52.12 22.517,0 41.709,-14.287 49,-34.28 9.675,5.373 20.791,8.427 32.642,8.427 3.479,0 6.91,-0.272 10.248,-0.78 -2.152,4.514 -3.381,9.541 -3.381,14.877 0,19.18 15.57,34.723 34.749,34.723 19.18,0 34.723,-15.544 34.723,-34.723 0,-17.01 -12.275,-31.12 -28.428,-34.1 12.03,-12.17 19.481,-28.898 19.481,-47.36 0,-26.18 -14.958,-48.881 -36.777,-60.03 6.736,-8.379 13.794,-16.603 22.576,-24.813 7.529,-6.957 7.811,-8.164 16.15,-13.863 20.538,-8.67 -7.833,52.06 -10.43,59.718 9,-16.763 20.443,-32.27 27.362,-50.09 5.218,-10.432 9.08,-19.656 11.34,-31 1.085,-4.767 1.328,-9.638 -0.312,-14.201 -1.342,-2.089 -0.03,-0.009 -1.691,-2.679 -3.153,-3.495 -8.386,-3.091 -10.768,-3.095 m 35.451,96.26 c -25.716,0 -46.557,20.867 -46.557,46.583 0,25.716 20.841,46.557 46.557,46.557 25.716,0 46.557,-20.841 46.557,-46.557 0,-25.716 -20.841,-46.583 -46.557,-46.583" />
<path style="fill:#ffffff;fill-rule:evenodd;stroke:#000000;stroke-width:4.90399981;stroke-opacity:0.31000001" inkscape:connector-curvature="0" d="m 253.04,7.859 c -135.42,0 -245.19,109.78 -245.19,245.19 0,135.42 109.78,245.19 245.19,245.19 135.42,0 245.19,-109.78 245.19,-245.19 0,-135.42 -109.78,-245.19 -245.19,-245.19 z m 0,26.297 c 120.9,0 218.9,98 218.9,218.9 0,120.9 -98,218.9 -218.9,218.9 -120.9,0 -218.93,-98 -218.93,-218.9 0,-120.9 98.03,-218.9 218.93,-218.9 z" id="path16" />
</svg>
