<?xml version="1.0" encoding="UTF-8" standalone="no"?>
<svg xmlns="http://www.w3.org/2000/svg" height="512" viewBox="0 0 512 512" width="512" version="1.1">
 <metadata id="metadata72"/>
 <path id="path4" d="m471.95 253.05c0 120.9-98.01 218.9-218.9 218.9-120.9 0-218.9-98.01-218.9-218.9 0-120.9 98.01-218.9 218.9-218.9 120.9 0 218.9 98.01 218.9 218.9" fill-rule="evenodd" fill="#BF9E73"/>
 <path id="path6" fill-opacity="0.235" d="m190.31 115.31v45.594h1v1h1v1h1v0.969h1v1h1v1h1v1h0.969v1h1v1h1v0.969h1v1h1v1h1v1h0.969v1h1v1h1v1h1v0.969h1v1h1v1h0.969v1h1v1h1v1h1v0.969h1v1h1v1h1v1h0.969v0.719c-13.786 2.483-27.02 6.196-39.75 11.188 0.131 0.239 2.26 5.628 6.438 16.16 4.178 10.529 6.338 15.985 6.469 16.344 0.179-0.063 0.352-0.125 0.531-0.188 0.028 0.073 0.427 1.066 0.438 1.094 0.18-0.062 0.352-0.126 0.531-0.188 0.029 0.076 0.426 1.063 0.438 1.094 0.18-0.062 0.351-0.126 0.531-0.188 0.031 0.079 0.425 1.059 0.438 1.094 0.168-0.058 0.332-0.099 0.5-0.156 0.032 0.082 0.423 1.056 0.438 1.094 0.179-0.061 0.353-0.127 0.531-0.188 0.033 0.084 0.422 1.053 0.438 1.094 0.18-0.061 0.352-0.127 0.531-0.188 0.034 0.088 0.421 1.049 0.438 1.094 0.18-0.06 0.352-0.128 0.531-0.188 0.035 0.09 0.419 1.046 0.438 1.094 0.178-0.059 0.354-0.098 0.531-0.156 0.036 0.093 0.418 1.043 0.438 1.094 0.168-0.056 0.332-0.101 0.5-0.156 0.036 0.093 0.417 1.01 0.438 1.063 0.181-0.059 0.351-0.129 0.531-0.188 0.039 0.099 0.415 1.036 0.438 1.094 0.177-0.058 0.354-0.099 0.531-0.156 0.038 0.099 0.414 1 0.438 1.063 0.178-0.057 0.354-0.099 0.531-0.156 0.041 0.105 0.413 1.029 0.438 1.094 0.178-0.057 0.354-0.1 0.531-0.156 0.041 0.104 0.412 0.996 0.438 1.063 0.179-0.057 0.353-0.1 0.531-0.156 0.042 0.107 0.411 0.993 0.438 1.063 0.179-0.056 0.352-0.1 0.531-0.156 0.043 0.109 0.378 0.99 0.406 1.063 0.178-0.055 0.354-0.101 0.531-0.156 0.046 0.117 0.407 1.015 0.438 1.094 0.178-0.055 0.354-0.102 0.531-0.156 0.045 0.116 0.407 0.983 0.438 1.063 0.178-0.055 0.353-0.102 0.531-0.156 0.047 0.119 0.405 0.979 0.438 1.063 0.179-0.054 0.353-0.102 0.531-0.156 0.048 0.122 0.404 0.976 0.438 1.063 0.17-0.051 0.33-0.105 0.5-0.156 0.05 0.129 0.402 1 0.438 1.094 0.179-0.053 0.353-0.103 0.531-0.156 0.05 0.127 0.401 0.969 0.438 1.063 0.178-0.053 0.354-0.104 0.531-0.156 0.051 0.13 0.4 0.966 0.438 1.063 0.189-0.055 0.374-0.101 0.563-0.156 0.052 0.132 0.368 0.964 0.406 1.063 0.18-0.052 0.352-0.105 0.531-0.156 0.055 0.14 0.396 0.988 0.438 1.094 0.18-0.052 0.352-0.105 0.531-0.156 0.054 0.137 0.365 0.957 0.406 1.063 0.189-0.054 0.374-0.103 0.563-0.156 0.055 0.14 0.364 0.954 0.406 1.063 0.19-0.053 0.373-0.103 0.563-0.156 0.056 0.143 0.363 0.951 0.406 1.063 0.192-0.054 0.371-0.103 0.563-0.156 0.057 0.146 0.361 0.947 0.406 1.063 0.182-0.05 0.35-0.106 0.531-0.156 0.061 0.155 0.39 0.971 0.438 1.094 0.193-0.052 0.37-0.104 0.563-0.156 0.06 0.152 0.359 0.941 0.406 1.063 0.18-0.049 0.352-0.077 0.531-0.125 0.059 0.15 0.359 0.909 0.406 1.031 0.193-0.051 0.37-0.105 0.563-0.156 0.062 0.158 0.356 0.934 0.406 1.063 0.18-0.047 0.352-0.078 0.531-0.125 0.064 0.162 0.385 0.93 0.438 1.063 0.191-0.05 0.372-0.076 0.563-0.125 0.062 0.158 0.355 0.9 0.406 1.031 0.191-0.049 0.372-0.076 0.563-0.125 0.063 0.161 0.353 0.897 0.406 1.031 0.181-0.046 0.351-0.08 0.531-0.125 0.065 0.164 0.352 0.893 0.406 1.031 0.181-0.045 0.351-0.08 0.531-0.125 0.068 0.174 0.38 0.916 0.438 1.063 0.191-0.047 0.373-0.078 0.563-0.125 0.067 0.169 0.35 0.887 0.406 1.031 0.191-0.047 0.372-0.079 0.563-0.125 0.068 0.172 0.348 0.884 0.406 1.031 0.191-0.046 0.372-0.079 0.563-0.125 0.069 0.175 0.347 0.881 0.406 1.031 0.182-0.043 0.35-0.082 0.531-0.125 0.072 0.183 0.344 0.905 0.406 1.063 0.191-0.045 0.372-0.081 0.563-0.125 0.017 0.043 0.077 0.208 0.094 0.25-20.524 3.303-36.539 8.831-47.969 16.594-14.623 9.811-21.906 24.947-21.906 45.41 0 19.02 6.134 33.611 18.406 43.781 0.069 0.056 0.149 0.1 0.219 0.156 0.234 0.203 0.448 0.425 0.688 0.625 0 0.095 0.033 0.168 0.094 0.219 0.26 0.211 0.517 0.418 0.781 0.625 0.013 0.158 0.08 0.286 0.188 0.375 0.254 0.206 0.524 0.392 0.781 0.594 0.041 0.16 0.097 0.305 0.219 0.406 0.224 0.181 0.461 0.353 0.688 0.531 0.059 0.183 0.167 0.348 0.313 0.469 0.215 0.174 0.439 0.329 0.656 0.5 0.076 0.193 0.184 0.368 0.344 0.5 0.202 0.164 0.421 0.308 0.625 0.469 0.091 0.199 0.204 0.358 0.375 0.5 0.174 0.141 0.356 0.267 0.531 0.406 0.107 0.237 0.266 0.426 0.469 0.594 0.167 0.135 0.332 0.273 0.5 0.406 0.119 0.232 0.264 0.424 0.469 0.594 0.173 0.14 0.357 0.268 0.531 0.406 0.127 0.219 0.268 0.427 0.469 0.594 0.161 0.13 0.338 0.246 0.5 0.375 0.137 0.224 0.292 0.452 0.5 0.625 0.151 0.123 0.316 0.223 0.469 0.344 0.149 0.238 0.309 0.472 0.531 0.656 0.133 0.107 0.273 0.206 0.406 0.313 0.159 0.245 0.362 0.495 0.594 0.688 0.123 0.099 0.252 0.183 0.375 0.281 0.17 0.259 0.379 0.483 0.625 0.688 0.103 0.084 0.209 0.167 0.313 0.25 0.182 0.277 0.393 0.532 0.656 0.75 0.103 0.083 0.209 0.167 0.313 0.25 0.19 0.279 0.419 0.527 0.688 0.75 0.11 0.089 0.233 0.161 0.344 0.25 0.192 0.269 0.393 0.532 0.656 0.75 0.086 0.069 0.164 0.15 0.25 0.219 0.206 0.29 0.467 0.547 0.75 0.781 0.093 0.075 0.188 0.144 0.281 0.219 0.206 0.277 0.444 0.554 0.719 0.781 0.063 0.051 0.124 0.105 0.188 0.156 0.223 0.306 0.511 0.563 0.813 0.813 0.059 0.047 0.129 0.078 0.188 0.125 0.232 0.316 0.469 0.616 0.781 0.875 0.051 0.042 0.105 0.084 0.156 0.125 0.24 0.323 0.523 0.609 0.844 0.875 0.063 0.051 0.124 0.105 0.188 0.156 0.237 0.305 0.506 0.59 0.813 0.844 0.058 0.047 0.129 0.078 0.188 0.125 0.244 0.312 0.497 0.614 0.813 0.875 0.052 0.042 0.104 0.083 0.156 0.125 0.246 0.308 0.531 0.616 0.844 0.875 0.052 0.042 0.104 0.083 0.156 0.125 0.251 0.309 0.528 0.582 0.844 0.844 0.018 0.014 0.045 0.017 0.063 0.031 0.274 0.348 0.586 0.677 0.938 0.969 0.011 0.009 0.02 0.022 0.031 0.031 0.281 0.354 0.578 0.671 0.938 0.969 0.029 0.023 0.065 0.039 0.094 0.063 0.273 0.332 0.565 0.655 0.906 0.938 0.029 0.024 0.064 0.039 0.094 0.063 0.275 0.33 0.565 0.655 0.906 0.938 0.023 0.018 0.04 0.044 0.063 0.063 0.277 0.328 0.597 0.655 0.938 0.938 0.296 0.355 0.633 0.696 1 1 0.023 0.018 0.04 0.044 0.063 0.063 0.283 0.327 0.595 0.622 0.938 0.906 0.302 0.355 0.599 0.694 0.969 1 0.018 0.014 0.045 0.017 0.063 0.031 0.294 0.337 0.583 0.675 0.938 0.969 0.305 0.351 0.632 0.695 1 1 0.307 0.35 0.631 0.695 1 1 0.306 0.345 0.635 0.697 1 1 0.244 0.273 0.501 0.534 0.781 0.781 0.361 0.427 0.744 0.82 1.188 1.188 0.265 0.293 0.539 0.58 0.844 0.844 0.309 0.356 0.635 0.685 1 1 0.298 0.339 0.621 0.666 0.969 0.969 0.297 0.338 0.623 0.665 0.969 0.969 0.298 0.338 0.623 0.665 0.969 0.969 0.266 0.302 0.572 0.568 0.875 0.844 0.339 0.396 0.694 0.773 1.094 1.125 0.302 0.341 0.621 0.66 0.969 0.969 0.304 0.342 0.62 0.69 0.969 1 0.309 0.346 0.646 0.686 1 1 0.268 0.298 0.574 0.569 0.875 0.844 0.313 0.359 0.641 0.705 1 1.031 0.317 0.359 0.669 0.674 1.031 1 0.318 0.356 0.638 0.707 1 1.031 0.293 0.324 0.608 0.639 0.938 0.938 0.281 0.313 0.592 0.617 0.906 0.906 0.308 0.348 0.652 0.68 1 1 0.297 0.333 0.636 0.631 0.969 0.938 0.352 0.396 0.692 0.796 1.094 1.156 0.327 0.357 0.663 0.704 1.031 1.031 0.248 0.267 0.511 0.531 0.781 0.781 0.342 0.383 0.707 0.743 1.094 1.094 0.287 0.314 0.589 0.614 0.906 0.906 0.357 0.394 0.753 0.764 1.156 1.125 0.297 0.318 0.579 0.641 0.906 0.938 0.304 0.328 0.603 0.663 0.938 0.969 0.275 0.298 0.575 0.564 0.875 0.844 0.344 0.381 0.709 0.742 1.094 1.094 0.289 0.312 0.591 0.614 0.906 0.906 0.334 0.365 0.692 0.723 1.063 1.063 0.277 0.298 0.574 0.595 0.875 0.875 0.354 0.388 0.7 0.766 1.094 1.125 0.308 0.33 0.632 0.659 0.969 0.969 0.31 0.332 0.63 0.657 0.969 0.969 0.31 0.332 0.662 0.657 1 0.969 0.284 0.304 0.567 0.62 0.875 0.906 0.339 0.367 0.721 0.719 1.094 1.063 0.32 0.341 0.62 0.68 0.969 1 0.309 0.329 0.633 0.659 0.969 0.969 0.311 0.332 0.631 0.656 0.969 0.969 0.295 0.315 0.618 0.64 0.938 0.938 0.313 0.335 0.63 0.653 0.969 0.969 0.317 0.339 0.657 0.68 1 1 0.33 0.352 0.672 0.7 1.031 1.031 0.374 0.396 0.746 0.786 1.156 1.156 0.246 0.254 0.489 0.507 0.75 0.75 0.33 0.351 0.643 0.7 1 1.031 0.309 0.328 0.636 0.627 0.969 0.938 0.328 0.348 0.646 0.703 1 1.031 0.317 0.334 0.659 0.683 1 1 0.32 0.337 0.625 0.649 0.969 0.969 0.313 0.33 0.632 0.655 0.969 0.969 0.317 0.334 0.629 0.652 0.969 0.969 0.32 0.337 0.656 0.68 1 1 0.314 0.33 0.632 0.655 0.969 0.969 0.252 0.265 0.515 0.527 0.781 0.781 0.066 0.071 0.12 0.148 0.188 0.219 0.005 0.005 0.026-0.005 0.031 0 0.316 0.331 0.631 0.654 0.969 0.969 0.324 0.34 0.653 0.677 1 1 0.318 0.332 0.629 0.652 0.969 0.969 0.221 0.231 0.456 0.464 0.688 0.688 0.01 0.011 0.021 0.02 0.031 0.031 103.14-10.326 185.17-92.23 195.69-195.31h-0.438v-1h-1v-1h-1v-1h-1v-1h-1v-1h-1v-1h-0.969v-0.969h-1v-1h-1v-1h-1v-1h-1v-1h-1v-1h-0.969v-0.969h-1v-1h-1v-1h-1v-1h-1v-1h-1v-1h-0.969v-0.969h-1v-1h-1v-1h-1v-1h-1v-1h-1v-1h-1v-0.969h-0.969v-1h-1v-1h-1v-1h-1v-1h-1v-1h-1v-1h-0.969v-0.969h-1v-1h-1v-1h-1v-1h-1v-1h-1v-1h-0.969v-0.969h-1v-1h-1v-1h-1v-1h-1v-1h-1v-1h-0.969v-0.969h-1v-1h-1v-1h-1v-1h-1v-1h-1v-1h-1v-1h-0.969v-0.969h-1v-1h-1v-1h-1v-1h-1v-1h-1v-1h-0.969v-0.969h-1v-1h-1v-1h-1v-1h-1v-1h-1v-1h-0.969v-0.969h-1v-1h-1v-1h-1v-1h-1v-1h-1v-1h-1v-0.969h-0.969v-1h-1v-1h-1v-1h-1v-1h-1v-1h-1v-1h-0.969v-0.969h-1v-1h-1v-1h-1v-1h-1v-1h-1v-1h-0.969v-0.969h-1v-1h-1v-1h-1v-1h-1v-1h-1v-1h-0.969v-0.969h-1v-1h-1v-1h-1v-1h-1v-1h-1v-1h-1v-1h-0.969v-0.969h-1v-1h-1v-1h-1v-1h-1v-1h-1v-1h-0.969v-0.969h-1v-1h-1v-1h-1v-1h-1v-1h-1v-1h-0.969v-0.969h-1v-1h-1v-1h-1v-1h-1v-1h-1v-1h-1v-0.969h-0.969v-1h-1v-1h-1v-1h-1v-1h-1v-1h-1v-1h-0.969v-0.969h-1v-1h-1v-1h-1v-1h-1v-1h-1v-1h-0.969v-0.969h-1v-1h-1v-1h-1v-1h-1v-1h-1v-1h-0.969v-0.969h-1v-1h-1v-1h-1v-1h-1v-1h-1v-1h-1v-1h-0.969v-0.969h-1v-1h-1v-1h-1v-1h-1v-1h-1v-1h-0.969v-0.969h-1v-1h-1v-1h-1v-1h-1v-1h-1v-1h-0.969v-0.969h-1v-1h-1v-1h-1v-1h-1v-1h-1v-1h-0.969v-0.969h-1v-1h-1v-1.001h-1v-1h-1v-1h-38.37v44.781h-0.469v-1h-1v-1h-1v-1h-1v-0.969h-1v-1h-1v-1h-1v-1h-0.969v-1h-1v-1h-1v-0.969h-1v-1h-1v-1h-1v-1h-0.94v-1h-1v-1h-1v-0.969h-1v-1h-1v-1h-1v-1h-0.969v-1h-1v-1h-1v-1h-1v-0.969h-1v-1h-1v-1h-0.969v-1h-1v-1h-1v-1h-1v-0.969h-1v-1h-1v-1h-1v-1h-0.969v-1h-1v-1h-1v-0.969h-1v-1h-1v-1h-1v-1h-0.969v-1h-1v-1h-1v-0.969h-1v-1h-1v-1h-1v-1h-0.969v-1h-38.221m82.969 45.594h0.5v0.188h-0.5v-0.188m1 1h0.5v0.188h-0.5v-0.188m1 1h0.469v0.188h-0.469v-0.188m1 0.969h0.469v0.188h-0.469v-0.188m1 1h0.469v0.188h-0.469v-0.188m1 1h0.469v0.188h-0.469v-0.188m0.969 1h0.5v0.188h-0.5v-0.188m1 1h0.5v0.188h-0.5v-0.188m1 1h0.469v0.188h-0.469v-0.188m1 0.969h0.469v0.188h-0.469v-0.188m1 1h0.469v0.188h-0.469v-0.188m1 1h0.469v0.188h-0.469v-0.188m0.969 1h0.5v0.188h-0.5v-0.188m1 1h0.5v0.188h-0.5v-0.188m1 1h0.469v0.188h-0.469v-0.188m1 1h0.469v0.156h-0.469v-0.156m1 0.969h0.469v0.188h-0.469v-0.188m1 1h0.469v0.188h-0.469v-0.188m1 1h0.469v0.188h-0.469v-0.188m0.969 1h0.5v0.188h-0.5v-0.188m1 1h0.469v0.188h-0.469v-0.188m1 1h0.469v0.156h-0.469v-0.156m1 0.969h0.469v0.188h-0.469v-0.188m1 1h0.469v0.188h-0.469v-0.188m1 1h0.469v0.188h-0.469v-0.188m0.969 1h0.5v0.188h-0.5v-0.188m1 1h0.5v0.188h-0.5v-0.188m1 1h0.469v0.188h-0.469v-0.188m1.188 0.969h0.281v0.094c-0.094-0.033-0.187-0.061-0.281-0.094"/>
 <g id="g8" fill-rule="evenodd">
  <path id="path10" fill-opacity="0.067" d="m256 1c-140.83 0-255 114.17-255 255s114.17 255 255 255 255-114.17 255-255-114.17-255-255-255m8.827 44.931c120.9 0 218.9 98 218.9 218.9s-98 218.9-218.9 218.9-218.93-98-218.93-218.9 98.03-218.9 218.93-218.9"/>
  <g id="g12" fill-opacity="0.129">
   <path id="path14" d="m256 4.433c-138.94 0-251.57 112.63-251.57 251.57s112.63 251.57 251.57 251.57 251.57-112.63 251.57-251.57-112.63-251.57-251.57-251.57m5.885 38.556c120.9 0 218.9 98 218.9 218.9s-98 218.9-218.9 218.9-218.93-98-218.93-218.9 98.03-218.9 218.93-218.9"/>
   <path id="path16" d="m256 8.356c-136.77 0-247.64 110.87-247.64 247.64s110.87 247.64 247.64 247.64 247.64-110.87 247.64-247.64-110.87-247.64-247.64-247.64m2.942 31.691c120.9 0 218.9 98 218.9 218.9s-98 218.9-218.9 218.9-218.93-98-218.93-218.9 98.03-218.9 218.93-218.9"/>
  </g>
  <path id="path18" d="m253.04 7.859c-135.42 0-245.19 109.78-245.19 245.19 0 135.42 109.78 245.19 245.19 245.19 135.42 0 245.19-109.78 245.19-245.19 0-135.42-109.78-245.19-245.19-245.19zm0 26.297c120.9 0 218.9 98 218.9 218.9s-98 218.9-218.9 218.9-218.93-98-218.93-218.9 98.03-218.9 218.93-218.9z" stroke-opacity="0.31" stroke="#000" stroke-width="4.904" fill="#fff"/>
 </g>
 <path id="path66" fill="#fff" d="m190.33 160.9v-45.586h38.19v45.59h-38.19m82.45 0v-45.586h38.38v45.59h-38.38m-46.22 227.75c-19.976 0-36.17-5.03-48.568-15.08-12.273-10.17-18.409-24.767-18.409-43.791 0-20.46 7.311-35.595 21.934-45.41 14.623-9.931 36.687-16.212 66.19-18.844 4.047-0.478 8.421-0.957 13.12-1.436 4.7-0.478 9.988-0.957 15.863-1.436 5.875-0.478 10.51-0.898 13.905-1.256v-10.409c0-11.965-3-20.639-9.01-26.02-6.01-5.504-15.14-8.256-27.417-8.256-17.495 0-39.1 4.487-64.823 13.46-0.13-0.359-2.285-5.803-6.463-16.332s-6.332-15.913-6.463-16.15c25.328-9.931 52.746-14.896 82.25-14.896 28.984 0 50.07 5.803 63.26 17.409 13.186 11.486 19.78 30.15 19.78 55.995v128.68h-37.993c-0.131-0.478-1.567-4.487-4.308-12.02-2.742-7.538-4.113-11.546-4.113-12.02-10.706 9.572-21.22 16.631-31.53 21.18-10.184 4.427-22.587 6.64-37.21 6.64m13.904-33.382c11.881 0 22.2-2.572 30.943-7.717 8.878-5.264 15.21-11.606 18.996-19.02v-38.05c-0.392 0-3.852 0.239-10.379 0.718-6.398 0.478-9.857 0.718-10.38 0.718-20.759 1.675-35.969 5.265-45.631 10.768-9.661 5.504-14.492 14.358-14.492 26.562 0 8.375 2.676 14.836 8.03 19.383 5.353 4.427 12.991 6.641 22.913 6.64"/>
</svg>
