<?xml version="1.0" encoding="UTF-8" standalone="no"?>
<svg xmlns:dc="http://purl.org/dc/elements/1.1/" xmlns:cc="http://creativecommons.org/ns#" xmlns:rdf="http://www.w3.org/1999/02/22-rdf-syntax-ns#" xmlns:svg="http://www.w3.org/2000/svg" xmlns="http://www.w3.org/2000/svg" xmlns:sodipodi="http://sodipodi.sourceforge.net/DTD/sodipodi-0.dtd" xmlns:inkscape="http://www.inkscape.org/namespaces/inkscape" height="512" viewBox="0 0 512 512" width="512" version="1.1" id="svg2" inkscape:version="0.91 r" sodipodi:docname="chrome-app-list.svg">
<defs id="defs17" />
<sodipodi:namedview pagecolor="#ffffff" bordercolor="#666666" borderopacity="1" objecttolerance="10" gridtolerance="10" guidetolerance="10" inkscape:pageopacity="0" inkscape:pageshadow="2" inkscape:window-width="1680" inkscape:window-height="994" id="namedview15" showgrid="false" inkscape:zoom="1.3037281" inkscape:cx="53.590229" inkscape:cy="244.919" inkscape:window-x="0" inkscape:window-y="0" inkscape:window-maximized="1" inkscape:current-layer="svg2" />
<metadata id="metadata28">
<rdf:RDF>
<cc:Work rdf:about="">
<dc:format>image/svg+xml</dc:format>
<dc:type rdf:resource="http://purl.org/dc/dcmitype/StillImage" />
<dc:title></dc:title>
</cc:Work>
</rdf:RDF>
</metadata>
<path style="fill:#BF9E73;fill-rule:evenodd;fill-opacity:1" inkscape:connector-curvature="0" d="m 471.95,253.05 c 0,120.9 -98.01,218.9 -218.9,218.9 -120.9,0 -218.9,-98.01 -218.9,-218.9 0,-120.9 98.01,-218.9 218.9,-218.9 120.9,0 218.9,98.01 218.9,218.9" id="path6" />
<path style="fill-opacity:0.06700003;fill-rule:evenodd" inkscape:connector-curvature="0" d="M 256,1 C 115.17,1 1,115.17 1,256 1,396.83 115.17,511 256,511 396.83,511 511,396.83 511,256 511,115.17 396.83,1 256,1 m 8.827,44.931 c 120.9,0 218.9,98 218.9,218.9 0,120.9 -98,218.9 -218.9,218.9 -120.9,0 -218.93,-98 -218.93,-218.9 0,-120.9 98.03,-218.9 218.93,-218.9" id="path8" />
<g style="fill-opacity:0.12900002;fill-rule:evenodd" id="g10">
<path inkscape:connector-curvature="0" d="m 256,4.433 c -138.94,0 -251.57,112.63 -251.57,251.57 0,138.94 112.63,251.57 251.57,251.57 138.94,0 251.57,-112.63 251.57,-251.57 C 507.57,117.063 394.94,4.433 256,4.433 m 5.885,38.556 c 120.9,0 218.9,98 218.9,218.9 0,120.9 -98,218.9 -218.9,218.9 -120.9,0 -218.93,-98 -218.93,-218.9 0,-120.9 98.03,-218.9 218.93,-218.9" id="path12" />
<path inkscape:connector-curvature="0" d="m 256,8.356 c -136.77,0 -247.64,110.87 -247.64,247.64 0,136.77 110.87,247.64 247.64,247.64 136.77,0 247.64,-110.87 247.64,-247.64 C 503.64,119.226 392.77,8.356 256,8.356 m 2.942,31.691 c 120.9,0 218.9,98 218.9,218.9 0,120.9 -98,218.9 -218.9,218.9 -120.9,0 -218.93,-98 -218.93,-218.9 0,-120.9 98.03,-218.9 218.93,-218.9" id="path14" />
</g>
<path inkscape:connector-curvature="0" style="opacity:0.25" d="m 334.9331,121.1887 -18.781,36.688 -40.75,6.281 29.09,29.19 -5.188,31.906 -85.37,-85.37 c -9.695,-9.695 -23.11,-15.688 -37.906,-15.688 -29.575,0 -53.53,23.925 -53.53,53.5 0,14.788 5.994,28.18 15.688,37.875 l 143.06,143.06 0,21.03 c 0,2.587 2.069,4.656 4.656,4.656 l 63.31,63.31 c 73.939,-35.14 125.06,-110.5 125.06,-197.81 0,-1.764 -0.021,-3.528 -0.063,-5.281 l -80.03,-80.03 -18.969,-3.063 -40.28,-40.25 m -158.91,162.94 -27.25,46.09 -26.28,46.656 86.969,86.969 c 14.814,3.164 30.18,4.844 45.938,4.844 30.983,0 60.44,-6.421 87.16,-18.03 l -166.53,-166.53" id="path3724" />
<path style="fill:#ffffff;fill-rule:evenodd;stroke:#000000;stroke-width:4.90399981;stroke-opacity:0.31000001" inkscape:connector-curvature="0" d="m 253.04,7.859 c -135.42,0 -245.19,109.78 -245.19,245.19 0,135.42 109.78,245.19 245.19,245.19 135.42,0 245.19,-109.78 245.19,-245.19 0,-135.42 -109.78,-245.19 -245.19,-245.19 z m 0,26.297 c 120.9,0 218.9,98 218.9,218.9 0,120.9 -98,218.9 -218.9,218.9 -120.9,0 -218.93,-98 -218.93,-218.9 0,-120.9 98.03,-218.9 218.93,-218.9 z" id="path16" />
<path inkscape:connector-curvature="0" style="fill:#ffffff" d="m 334.9531,121.1687 -18.781,36.719 -40.75,6.281 29.09,29.19 -6.594,40.688 36.75,-18.656 36.656,18.844 -6.375,-40.719 29.25,-29 -40.688,-6.531 -18.563,-36.812 m -158.91,3 c -29.575,0 -53.56,23.956 -53.56,53.53 0,29.575 23.987,53.56 53.56,53.56 29.575,0 53.56,-23.987 53.56,-53.56 0,-29.575 -23.987,-53.53 -53.56,-53.53 m 109.88,153.06 c -2.587,0 -4.656,2.069 -4.656,4.656 l 0,97.78 c 0,2.587 2.069,4.656 4.656,4.656 l 97.78,0 c 2.587,0 4.656,-2.069 4.656,-4.656 l 0,-97.78 c 0,-2.587 -2.069,-4.656 -4.656,-4.656 l -97.78,0 m -109.87,6.906 -27.25,46.09 -26.312,46.656 53.56,0.531 53.56,-0.531 -26.313,-46.656 -27.25,-46.09" id="path3726" />
</svg>
