<?xml version="1.0" encoding="UTF-8" standalone="no"?>
<svg xmlns="http://www.w3.org/2000/svg" xmlns:sodipodi="http://sodipodi.sourceforge.net/DTD/sodipodi-0.dtd" xmlns:inkscape="http://www.inkscape.org/namespaces/inkscape" width="1814.17" height="1814.17" viewBox="0 0 512 512" version="1.1">
 <metadata id="metadata16072"/>
 <g inkscape:label="Layer 1" inkscape:groupmode="layer" id="layer1" transform="translate(0,215.00001)">
  <g id="g16097" transform="matrix(3.7795276,0,0,3.7795276,561.71432,69.908871)">
   <g id="g25324" transform="matrix(0.26458334,0,0,0.26458334,-148.62025,-75.382145)" fill-rule="evenodd">
    <path d="m 471.95,253.05 c 0,120.9 -98.01,218.91 -218.91,218.91 -120.9,0 -218.91,-98.01 -218.91,-218.91 0,-120.9 98.01,-218.91 218.91,-218.91 120.9,0 218.91,98.01 218.91,218.91" id="path25326" inkscape:connector-curvature="0" fill="#BF9E73"/>
    <path d="M 256,1 C 115.17,1 1,115.17 1,256 1,396.83 115.17,511 256,511 396.83,511 511,396.83 511,256 511,115.17 396.83,1 256,1 m 8.827,44.931 c 120.9,0 218.9,98 218.9,218.9 0,120.9 -98,218.9 -218.9,218.9 -120.9,0 -218.93,-98 -218.93,-218.9 0,-120.9 98.03,-218.9 218.93,-218.9" id="path25328" inkscape:connector-curvature="0" fill-opacity="0.067"/>
    <g id="g25330" fill-opacity="0.129">
     <path d="M 256,4.43 C 117.06,4.43 4.43,117.06 4.43,256 4.43,394.94 117.06,507.57 256,507.57 394.94,507.57 507.57,394.94 507.57,256 507.57,117.06 394.94,4.43 256,4.43 m 5.885,38.556 c 120.9,0 218.9,98 218.9,218.9 0,120.9 -98,218.9 -218.9,218.9 -120.9,0 -218.93,-98 -218.93,-218.9 0,-120.9 98.03,-218.9 218.93,-218.9" id="path25332" inkscape:connector-curvature="0"/>
     <path d="M 256,8.36 C 119.23,8.36 8.36,119.23 8.36,256 8.36,392.77 119.23,503.64 256,503.64 392.77,503.64 503.64,392.77 503.64,256 503.64,119.23 392.77,8.36 256,8.36 m 2.942,31.691 c 120.9,0 218.9,98 218.9,218.9 0,120.9 -98,218.9 -218.9,218.9 -120.9,0 -218.93,-98 -218.93,-218.9 0,-120.9 98.03,-218.9 218.93,-218.9" id="path25334" inkscape:connector-curvature="0"/>
    </g>
    <path d="M 253.04,7.86 C 117.62,7.86 7.85,117.64 7.85,253.05 c 0,135.42 109.78,245.19 245.19,245.19 135.42,0 245.19,-109.78 245.19,-245.19 C 498.23,117.63 388.45,7.86 253.04,7.86 Z m 0,26.297 c 120.9,0 218.9,98 218.9,218.9 0,120.9 -98,218.9 -218.9,218.9 -120.9,0 -218.93,-98 -218.93,-218.9 0,-120.9 98.03,-218.9 218.93,-218.9 z" id="path25336" inkscape:connector-curvature="0" stroke-opacity="0.31" fill="#ffffff" stroke="#000000" stroke-width="4.904"/>
   </g>
   <path d="m -80.886915,-54.736706 c -2.591329,0 -4.67995,1.916112 -4.67995,4.299479 l 0,9.260417 c -14.951605,2.067454 -26.781125,13.895917 -28.847525,28.847522 l -9.26041,0 c -2.3839,0 -4.29948,2.088621 -4.29948,4.6799495 0,1.367632 0.53551,2.59424 1.38906,3.447521 l 53.107168,53.1071665 c 25.431753,-3.60203 45.545373,-23.7146 49.146353,-49.14635349 L -77.438865,-53.348173 c -0.853545,-0.853546 -2.080154,-1.389062 -3.447521,-1.389062" id="path25432" inkscape:connector-curvature="0" opacity="0.25"/>
   <path d="m -80.886915,-54.731414 c -2.591329,0 -4.676775,1.912937 -4.676775,4.296304 l 0,9.2583 c -14.95161,2.067454 -26.78642,13.901209 -28.85281,28.852814 l -9.2583,0 c -2.3839,0 -4.29631,2.085446 -4.29631,4.6767745 0,2.591329 1.91294,4.676775 4.29631,4.676775 l 9.2583,0 c 2.06745,14.9516055 13.9012,26.7864185 28.85281,28.8528155 l 0,9.2583 c 0,2.38389 2.085446,4.2963 4.676775,4.2963 2.59133,0 4.676775,-1.91293 4.676775,-4.2963 l 0,-9.2583 c 14.951605,-2.067456 26.786418,-13.90121 28.852811,-28.8528155 l 9.2583,0 c 2.3839,0 4.29631,-2.085446 4.29631,-4.676775 0,-2.5913285 -1.91294,-4.6767745 -4.29631,-4.6767745 l -9.2583,0 C -49.42478,-27.275601 -61.258535,-39.110414 -76.21014,-41.17681 l 0,-9.2583 c 0,-2.383896 -2.085445,-4.296304 -4.676775,-4.296304 m -4.676775,21.433896 0,8.933128 c 0,2.383895 2.085446,4.296304 4.676775,4.296304 2.59133,0 4.676775,-1.912938 4.676775,-4.296304 l 0,-8.933128 c 10.646834,1.929342 19.04418,10.326688 20.973522,20.973522 l -8.933127,0 c -2.383896,0 -4.296305,2.085446 -4.296305,4.6767745 0,2.591329 1.912938,4.676775 4.296305,4.676775 l 8.933127,0 C -57.16596,7.6763875 -65.563306,16.073734 -76.21014,18.003076 l 0,-8.9331285 c 0,-2.383896 -2.085445,-4.296304 -4.676775,-4.296304 -2.591329,0 -4.676775,1.912937 -4.676775,4.296304 l 0,8.9331285 C -96.210524,16.073734 -104.60787,7.6763875 -106.53721,-2.9704465 l 8.933126,0 c 2.383896,0 4.296304,-2.085446 4.296304,-4.676775 0,-2.5913285 -1.912937,-4.6767745 -4.296304,-4.6767745 l -8.933126,0 c 1.92934,-10.646834 10.326686,-19.04418 20.97352,-20.973522" id="path25434" inkscape:connector-curvature="0" fill="#ffffff"/>
  </g>
 </g>
</svg>
