<?xml version="1.0" encoding="UTF-8" standalone="no"?>
<svg
   xmlns:dc="http://purl.org/dc/elements/1.1/"
   xmlns:cc="http://creativecommons.org/ns#"
   xmlns:rdf="http://www.w3.org/1999/02/22-rdf-syntax-ns#"
   xmlns:svg="http://www.w3.org/2000/svg"
   xmlns="http://www.w3.org/2000/svg"
   xmlns:sodipodi="http://sodipodi.sourceforge.net/DTD/sodipodi-0.dtd"
   xmlns:inkscape="http://www.inkscape.org/namespaces/inkscape"
   height="512"
   viewBox="0 0 512 512"
   width="512"
   version="1.1"
   id="svg2"
   inkscape:version="0.91 r13725"
   sodipodi:docname="clementine.svg">
  <defs
     id="defs16" />
  <sodipodi:namedview
     pagecolor="#ffffff"
     bordercolor="#666666"
     borderopacity="1"
     objecttolerance="10"
     gridtolerance="10"
     guidetolerance="10"
     inkscape:pageopacity="0"
     inkscape:pageshadow="2"
     inkscape:window-width="1680"
     inkscape:window-height="991"
     id="namedview14"
     showgrid="false"
     inkscape:zoom="1.84375"
     inkscape:cx="306.85552"
     inkscape:cy="226.65254"
     inkscape:window-x="0"
     inkscape:window-y="0"
     inkscape:window-maximized="1"
     inkscape:current-layer="svg2" />
  <metadata
     id="metadata102">
    <rdf:RDF>
      <cc:Work
         rdf:about="">
        <dc:format>image/svg+xml</dc:format>
        <dc:type
           rdf:resource="http://purl.org/dc/dcmitype/StillImage" />
      </cc:Work>
    </rdf:RDF>
  </metadata>
  <g
     id="g4"
     font-family="Gentium Book Basic"
     font-size="208.33"
     line-height="125%"
     word-spacing="0"
     letter-spacing="0" />
  <g
     id="g34"
     fill-rule="evenodd">
    <path
       id="path36"
       fill="#BF9E73"
       d="m471.95 253.05c0 120.9-98.01 218.9-218.9 218.9-120.9 0-218.9-98.01-218.9-218.9 0-120.9 98.01-218.9 218.9-218.9 120.9 0 218.9 98.01 218.9 218.9" />
    <path
       id="path40"
       fill-opacity="0.067"
       d="m256 1c-140.83 0-255 114.17-255 255s114.17 255 255 255 255-114.17 255-255-114.17-255-255-255m8.827 44.931c120.9 0 218.9 98 218.9 218.9s-98 218.9-218.9 218.9-218.93-98-218.93-218.9 98.03-218.9 218.93-218.9" />
    <g
       id="g42"
       fill-opacity="0.129">
      <path
         id="path44"
         d="m256 4.433c-138.94 0-251.57 112.63-251.57 251.57s112.63 251.57 251.57 251.57 251.57-112.63 251.57-251.57-112.63-251.57-251.57-251.57m5.885 38.556c120.9 0 218.9 98 218.9 218.9s-98 218.9-218.9 218.9-218.93-98-218.93-218.9 98.03-218.9 218.93-218.9" />
      <path
         id="path46"
         d="m256 8.356c-136.77 0-247.64 110.87-247.64 247.64s110.87 247.64 247.64 247.64 247.64-110.87 247.64-247.64-110.87-247.64-247.64-247.64m2.942 31.691c120.9 0 218.9 98 218.9 218.9s-98 218.9-218.9 218.9-218.93-98-218.93-218.9 98.03-218.9 218.93-218.9" />
    </g>
    <path
       id="path48"
       d="m253.04 7.859c-135.42 0-245.19 109.78-245.19 245.19 0 135.42 109.78 245.19 245.19 245.19 135.42 0 245.19-109.78 245.19-245.19 0-135.42-109.78-245.19-245.19-245.19zm0 26.297c120.9 0 218.9 98 218.9 218.9s-98 218.9-218.9 218.9-218.93-98-218.93-218.9 98.03-218.9 218.93-218.9z"
       stroke-opacity="0.31"
       stroke="#000"
       stroke-width="4.904"
       fill="#fff" />
  </g>
  <path
     style="fill-opacity:0.23500001;fill-rule:evenodd"
     inkscape:connector-curvature="0"
     id="path38"
     d="m 235.25248,91.229091 c -1.92,0.036 -3.754,0.178 -5.531,0.406 -14.1,1.813 -16.888,1.746 -30.406,9.499999 -6.343,3.638 -9.14,9.02 -8.03,16.25 43.41,93.76999 -0.075,-0.036 43.41,93.90999 0.796,0.933 1.44,1.971 2.25,2.594 0.345,0.424 0.696,0.816 1.094,1.094 0.318,0.382 0.635,0.745 1,1 0.318,0.382 0.635,0.745 1,1 0.282,0.338 0.559,0.632 0.875,0.875 0.351,0.433 0.72,0.811 1.125,1.094 0.318,0.382 0.635,0.745 1,1 0.318,0.382 0.604,0.745 0.969,1 0.318,0.382 0.635,0.745 1,1 0.318,0.382 0.635,0.745 1,1 0.282,0.338 0.559,0.632 0.875,0.875 0.351,0.433 0.72,0.811 1.125,1.094 0.318,0.382 0.635,0.745 1,1 0.281,0.338 0.56,0.664 0.875,0.906 0.345,0.424 0.696,0.816 1.094,1.094 0.318,0.382 0.635,0.745 1,1 0.108,0.129 0.202,0.257 0.313,0.375 -0.762,0.12 -1.511,0.253 -2.25,0.438 -0.14,-0.103 -0.295,-0.195 -0.438,-0.281 -0.308,-0.398 -0.243,-0.306 -0.563,-0.719 -0.153,-0.112 -0.313,-0.189 -0.469,-0.281 -0.302,-0.39 -0.218,-0.315 -0.531,-0.719 -0.144,-0.106 -0.291,-0.193 -0.438,-0.281 -0.308,-0.398 -0.243,-0.306 -0.563,-0.719 -0.142,-0.104 -0.293,-0.194 -0.438,-0.281 -0.308,-0.398 -0.243,-0.306 -0.563,-0.719 -0.143,-0.105 -0.292,-0.163 -0.438,-0.25 -0.317,-0.408 -0.234,-0.326 -0.563,-0.75 -0.142,-0.104 -0.294,-0.164 -0.438,-0.25 -0.316,-0.408 -0.234,-0.327 -0.563,-0.75 -0.149,-0.109 -0.286,-0.191 -0.438,-0.281 -0.295,-0.38 -0.227,-0.294 -0.531,-0.688 -0.138,-0.101 -0.297,-0.166 -0.438,-0.25 -0.317,-0.409 -0.234,-0.326 -0.563,-0.75 -0.146,-0.107 -0.289,-0.194 -0.438,-0.281 -0.309,-0.399 -0.243,-0.306 -0.563,-0.719 -0.144,-0.106 -0.291,-0.195 -0.438,-0.281 -0.309,-0.399 -0.243,-0.306 -0.563,-0.719 -0.133,-0.098 -0.271,-0.169 -0.406,-0.25 -0.323,-0.417 -0.259,-0.318 -0.594,-0.75 -0.148,-0.109 -0.286,-0.193 -0.438,-0.281 -0.309,-0.399 -0.243,-0.306 -0.563,-0.719 -0.142,-0.104 -0.293,-0.165 -0.438,-0.25 -0.303,-0.391 -0.218,-0.314 -0.531,-0.719 -0.145,-0.106 -0.29,-0.195 -0.438,-0.281 -0.309,-0.399 -0.243,-0.306 -0.563,-0.719 -0.143,-0.105 -0.292,-0.196 -0.438,-0.281 -0.309,-0.399 -0.243,-0.306 -0.563,-0.719 -0.158,-0.116 -0.307,-0.221 -0.469,-0.313 -0.295,-0.381 -0.227,-0.295 -0.531,-0.688 -0.143,-0.105 -0.292,-0.166 -0.438,-0.25 -0.318,-0.41 -0.234,-0.326 -0.563,-0.75 -0.141,-0.103 -0.294,-0.167 -0.438,-0.25 -0.318,-0.41 -0.234,-0.326 -0.563,-0.75 -0.149,-0.109 -0.286,-0.195 -0.438,-0.281 -0.295,-0.381 -0.227,-0.295 -0.531,-0.688 -0.137,-0.1 -0.298,-0.169 -0.438,-0.25 -0.318,-0.41 -0.234,-0.326 -0.563,-0.75 -0.145,-0.106 -0.29,-0.197 -0.438,-0.281 -0.31,-0.4 -0.243,-0.306 -0.563,-0.719 -0.143,-0.105 -0.292,-0.198 -0.438,-0.281 -0.31,-0.4 -0.243,-0.306 -0.563,-0.719 -0.145,-0.106 -0.289,-0.166 -0.438,-0.25 -0.318,-0.41 -0.234,-0.326 -0.563,-0.75 -0.143,-0.105 -0.292,-0.168 -0.438,-0.25 -0.318,-0.411 -0.234,-0.326 -0.563,-0.75 -0.141,-0.103 -0.294,-0.169 -0.438,-0.25 -0.318,-0.41 -0.234,-0.327 -0.563,-0.75 -0.14,-0.103 -0.263,-0.169 -0.406,-0.25 -0.31,-0.401 -0.243,-0.306 -0.563,-0.719 -0.137,-0.1 -0.298,-0.171 -0.438,-0.25 -0.318,-0.411 -0.234,-0.326 -0.563,-0.75 -0.152,-0.112 -0.313,-0.197 -0.469,-0.281 -0.304,-0.392 -0.218,-0.315 -0.531,-0.719 -0.15,-0.11 -0.316,-0.198 -0.469,-0.281 -0.304,-0.392 -0.218,-0.315 -0.531,-0.719 -0.15,-0.11 -0.283,-0.198 -0.438,-0.281 -0.31,-0.4 -0.243,-0.306 -0.563,-0.719 -0.148,-0.109 -0.286,-0.199 -0.438,-0.281 -0.31,-0.401 -0.243,-0.306 -0.563,-0.719 -0.146,-0.107 -0.288,-0.201 -0.438,-0.281 -0.296,-0.382 -0.227,-0.295 -0.531,-0.688 -0.143,-0.105 -0.291,-0.202 -0.438,-0.281 -0.311,-0.401 -0.242,-0.306 -0.563,-0.719 -0.141,-0.103 -0.293,-0.203 -0.438,-0.281 -0.311,-0.401 -0.243,-0.306 -0.563,-0.719 -0.157,-0.115 -0.308,-0.229 -0.469,-0.313 -0.296,-0.382 -0.227,-0.295 -0.531,-0.688 -0.154,-0.113 -0.311,-0.2 -0.469,-0.281 -0.304,-0.393 -0.218,-0.315 -0.531,-0.719 -0.151,-0.111 -0.282,-0.201 -0.438,-0.281 -0.311,-0.401 -0.243,-0.306 -0.563,-0.719 -0.149,-0.109 -0.285,-0.202 -0.438,-0.281 -0.297,-0.383 -0.227,-0.295 -0.531,-0.688 -0.146,-0.107 -0.319,-0.204 -0.469,-0.281 -0.305,-0.394 -0.218,-0.314 -0.531,-0.71899 -0.143,-0.105 -0.291,-0.205 -0.438,-0.281 -0.311,-0.402 -0.243,-0.306 -0.563,-0.719 -0.14,-0.103 -0.293,-0.207 -0.438,-0.281 -0.311,-0.401 -0.243,-0.306 -0.563,-0.719 -0.146,-0.107 -0.287,-0.174 -0.438,-0.25 -0.319,-0.412 -0.234,-0.326 -0.563,-0.75 -0.143,-0.105 -0.29,-0.176 -0.438,-0.25 -0.319,-0.412 -0.234,-0.327 -0.563,-0.75 -0.152,-0.111 -0.281,-0.205 -0.438,-0.281 -0.297,-0.383 -0.227,-0.295 -0.531,-0.688 -0.137,-0.101 -0.296,-0.179 -0.438,-0.25 -0.32,-0.413 -0.234,-0.326 -0.563,-0.75 -0.136,-0.099 -0.298,-0.18 -0.438,-0.25 -0.32,-0.413 -0.234,-0.326 -0.563,-0.75 -0.144,-0.105 -0.289,-0.21 -0.438,-0.281 -0.312,-0.402 -0.243,-0.306 -0.563,-0.719 -0.13,-0.095 -0.273,-0.152 -0.406,-0.219 -0.334,-0.431 -0.25,-0.338 -0.594,-0.781 -0.139,-0.102 -0.263,-0.181 -0.406,-0.25 -0.326,-0.421 -0.259,-0.318 -0.594,-0.75 -0.146,-0.107 -0.287,-0.18 -0.438,-0.25 -0.32,-0.413 -0.234,-0.326 -0.563,-0.75 -0.121,-0.089 -0.25,-0.125 -0.375,-0.188 -0.335,-0.432 -0.25,-0.337 -0.594,-0.781 -0.139,-0.102 -0.294,-0.183 -0.438,-0.25 -0.32,-0.413 -0.234,-0.326 -0.563,-0.75 -0.129,-0.095 -0.273,-0.187 -0.406,-0.25 -0.326,-0.421 -0.259,-0.318 -0.594,-0.75 -0.132,-0.097 -0.27,-0.156 -0.406,-0.219 -0.335,-0.432 -0.25,-0.338 -0.594,-0.781 -0.132,-0.097 -0.27,-0.156 -0.406,-0.219 -0.335,-0.432 -0.25,-0.338 -0.594,-0.781 -0.14,-0.103 -0.261,-0.187 -0.406,-0.25 -0.326,-0.421 -0.259,-0.318 -0.594,-0.75 -0.125,-0.091 -0.246,-0.129 -0.375,-0.188 -0.335,-0.432 -0.25,-0.337 -0.594,-0.781 -0.123,-0.091 -0.279,-0.161 -0.406,-0.219 -0.335,-0.432 -0.25,-0.338 -0.594,-0.781 -0.132,-0.097 -0.269,-0.191 -0.406,-0.25 -0.327,-0.422 -0.258,-0.317 -0.594,-0.75 -0.123,-0.09 -0.247,-0.163 -0.375,-0.219 -0.341,-0.44 -0.275,-0.329 -0.625,-0.781 -0.123,-0.09 -0.247,-0.164 -0.375,-0.219 -0.341,-0.44 -0.275,-0.329 -0.625,-0.781 -0.124,-0.091 -0.246,-0.134 -0.375,-0.188 -0.266,-0.343 -0.354,-0.462 -0.625,-0.813 -0.126,-0.092 -0.244,-0.135 -0.375,-0.188 -0.255,-0.33 -0.333,-0.445 -0.594,-0.781 -0.116,-0.085 -0.255,-0.137 -0.375,-0.188 -0.267,-0.344 -0.353,-0.462 -0.625,-0.813 -0.121,-0.089 -0.249,-0.169 -0.375,-0.219 -0.26,-0.336 -0.36,-0.439 -0.625,-0.781 -0.123,-0.09 -0.247,-0.139 -0.375,-0.188 -0.266,-0.344 -0.353,-0.462 -0.625,-0.813 -0.118,-0.087 -0.252,-0.141 -0.375,-0.188 -0.266,-0.344 -0.353,-0.462 -0.625,-0.813 -0.124,-0.091 -0.245,-0.173 -0.375,-0.219 -0.26,-0.336 -0.36,-0.439 -0.625,-0.781 -0.127,-0.093 -0.242,-0.144 -0.375,-0.188 -0.266,-0.344 -0.353,-0.462 -0.625,-0.813 -0.13,-0.096 -0.238,-0.146 -0.375,-0.188 -0.255,-0.329 -0.334,-0.446 -0.594,-0.781 -0.116,-0.085 -0.254,-0.148 -0.375,-0.188 -0.266,-0.344 -0.353,-0.462 -0.625,-0.813 -0.12,-0.088 -0.249,-0.15 -0.375,-0.188 -0.266,-0.344 -0.353,-0.462 -0.625,-0.813 -0.114,-0.084 -0.224,-0.121 -0.344,-0.156 -0.278,-0.358 -0.373,-0.479 -0.656,-0.844 -0.109,-0.08 -0.229,-0.123 -0.344,-0.156 -0.278,-0.358 -0.373,-0.478 -0.656,-0.844 -0.112,-0.082 -0.225,-0.126 -0.344,-0.156 -0.278,-0.358 -0.373,-0.478 -0.656,-0.844 -0.118,-0.087 -0.218,-0.13 -0.344,-0.156 -0.267,-0.344 -0.353,-0.462 -0.625,-0.813 -0.103,-0.076 -0.235,-0.13 -0.344,-0.156 -0.278,-0.359 -0.373,-0.478 -0.656,-0.844 -0.106,-0.077 -0.232,-0.102 -0.344,-0.125 -0.284,-0.367 -0.366,-0.501 -0.656,-0.875 -0.113,-0.083 -0.223,-0.14 -0.344,-0.156 -0.278,-0.359 -0.373,-0.478 -0.656,-0.844 -0.104,-0.077 -0.201,-0.11 -0.313,-0.125 -0.289,-0.373 -0.393,-0.495 -0.688,-0.875 -0.102,-0.075 -0.204,-0.113 -0.313,-0.125 -0.289,-0.373 -0.393,-0.495 -0.688,-0.875 -0.092,-0.068 -0.182,-0.083 -0.281,-0.094 -0.289,-0.373 -0.392,-0.494 -0.688,-0.875 -0.099,-0.073 -0.205,-0.123 -0.313,-0.125 -0.007,-0.005 -0.024,0.005 -0.031,0 -0.284,-0.367 -0.366,-0.501 -0.656,-0.875 -0.088,-0.065 -0.186,-0.092 -0.281,-0.094 -0.012,-0.009 -0.02,-0.023 -0.031,-0.031 -0.289,-0.373 -0.392,-0.494 -0.688,-0.875 -0.077,-0.057 -0.167,-0.092 -0.25,-0.094 -0.031,-0.023 -0.063,-0.04 -0.094,-0.063 -0.278,-0.359 -0.373,-0.478 -0.656,-0.844 -0.066,-0.049 -0.147,-0.061 -0.219,-0.063 -0.042,-0.031 -0.083,-0.063 -0.125,-0.094 -0.278,-0.359 -0.373,-0.478 -0.656,-0.844 -0.055,-0.041 -0.097,-0.061 -0.156,-0.063 -0.082,-0.06 -0.168,-0.099 -0.25,-0.156 -0.256,-0.33 -0.334,-0.446 -0.594,-0.781 -0.044,-0.032 -0.077,-0.03 -0.125,-0.031 -0.086,-0.063 -0.164,-0.128 -0.25,-0.188 -0.25,-0.322 -0.34,-0.423 -0.594,-0.75 -0.033,-0.024 -0.089,-0.062 -0.125,-0.063 -0.102,-0.075 -0.21,-0.117 -0.313,-0.188 -0.245,-0.316 -0.314,-0.429 -0.563,-0.75 -0.022,-0.016 -0.07,-0.031 -0.094,-0.031 -0.113,-0.083 -0.23,-0.141 -0.344,-0.219 -0.245,-0.315 -0.314,-0.429 -0.563,-0.75 -0.011,-0.008 -0.019,-0.031 -0.031,-0.031 -0.146,-0.107 -0.291,-0.214 -0.438,-0.313 -0.22,-0.284 -0.308,-0.368 -0.531,-0.656 -2.21,-1.622 -4.553,-2.309 -6.938,-2.344 -3.974,-0.058 -8.07,1.747 -11.875,4.281 -8.7,5.798 -14.871,11.08 -19.25,16.75 -8.685,11.25 -10.706,13.178 -14.781,28.22 -1.704,6.28999 -0.437,11.55299 4.03,15.68799 0.275,0.301 0.569,0.585 0.875,0.875 0.304,0.339 0.657,0.644 1,0.969 0.363,0.407 0.767,0.801 1.188,1.188 0.262,0.284 0.522,0.569 0.813,0.844 0.312,0.351 0.645,0.664 1,1 0.387,0.434 0.829,0.839 1.281,1.25 0.327,0.351 0.66,0.696 1.031,1.031 0.236,0.253 0.491,0.506 0.75,0.75 0.356,0.398 0.745,0.778 1.156,1.156 0.315,0.344 0.642,0.671 1,1 0.314,0.342 0.644,0.673 1,1 0.269,0.294 0.543,0.592 0.844,0.875 0.361,0.406 0.767,0.772 1.188,1.156 0.267,0.291 0.546,0.564 0.844,0.844 0.347,0.389 0.723,0.786 1.125,1.156 0.312,0.342 0.675,0.674 1.031,1 0.314,0.345 0.641,0.671 1,1 0.313,0.343 0.643,0.673 1,1 0.372,0.408 0.783,0.801 1.219,1.188 0.224,0.238 0.441,0.489 0.688,0.719 0.309,0.347 0.645,0.669 1,1 0.308,0.346 0.647,0.671 1,1 0.357,0.402 0.768,0.776 1.188,1.156 0.297,0.323 0.6,0.66 0.938,0.969 0.311,0.343 0.643,0.673 1,1 0.331,0.365 0.711,0.716 1.094,1.063 0.312,0.34 0.642,0.676 1,1 0.267,0.291 0.543,0.596 0.844,0.875 0.358,0.403 0.765,0.776 1.188,1.156 0.315,0.343 0.638,0.674 1,1 0.44,0.479 0.904,0.96 1.438,1.406 0.108,0.108 0.199,0.237 0.313,0.344 0.374,0.431 0.802,0.845 1.25,1.25 0.311,0.34 0.642,0.676 1,1 0.309,0.338 0.644,0.678 1,1 0.316,0.347 0.665,0.702 1.031,1.031 0.287,0.315 0.577,0.606 0.906,0.906 0.283,0.316 0.613,0.605 0.938,0.906 0.33,0.375 0.706,0.74 1.094,1.094 0.284,0.317 0.58,0.635 0.906,0.938 0.311,0.355 0.667,0.664 1.031,1 0.317,0.36 0.66,0.722 1.031,1.063 0.335,0.377 0.729,0.738 1.125,1.094 0.285,0.314 0.579,0.639 0.906,0.938 0.029,0.033 0.064,0.061 0.094,0.094 -2.605,-0.387 -12.32,-1.684 -49.844,-6.438 -7.227995,1.109 -10.532995,7.486 -11.968995,14.656 -2.052,10.251 -2.664,18.361 -1.75,25.469 1.813,14.1 1.746,16.889 9.499995,30.406 1.146,1.997 2.474,3.655 3.969,4.938 0.356,0.368 0.715,0.709 1.094,1.031 0.344,0.355 0.666,0.689 1.031,1 0.347,0.36 0.693,0.716 1.063,1.031 0.346,0.358 0.695,0.686 1.063,1 0.255,0.264 0.515,0.51 0.781,0.75 0.424,0.459 0.855,0.891 1.313,1.281 0.321,0.332 0.66,0.644 1,0.938 0.343,0.36 0.698,0.685 1.063,1 0.359,0.377 0.742,0.735 1.125,1.063 0.322,0.334 0.659,0.674 1,0.969 0.36,0.378 0.709,0.735 1.094,1.063 0.344,0.358 0.697,0.719 1.063,1.031 0.332,0.346 0.679,0.666 1.031,0.969 0.33,0.346 0.68,0.666 1.031,0.969 0.364,0.385 0.736,0.762 1.125,1.094 0.339,0.354 0.67,0.692 1.031,1 0.352,0.37 0.717,0.68 1.094,1 0.341,0.356 0.668,0.722 1.031,1.031 0.35,0.367 0.72,0.683 1.094,1 0.089,0.115 0.179,0.226 0.281,0.313 0.246,0.243 0.492,0.499 0.75,0.719 0.117,0.145 0.236,0.276 0.375,0.375 0.201,0.196 0.385,0.382 0.594,0.563 0.198,0.266 0.393,0.493 0.656,0.625 0.027,0.026 0.066,0.037 0.094,0.063 0.013,0.022 0.018,0.04 0.031,0.063 0.258,0.45 0.578,0.76 0.969,0.938 0.013,0.022 0.018,0.04 0.031,0.063 0.253,0.442 0.561,0.749 0.938,0.938 0.008,0.014 0.023,0.018 0.031,0.031 0.263,0.458 0.61,0.805 1,1 0.272,0.473 0.628,0.829 1.031,1.031 0.277,0.469 0.625,0.828 1.031,1.031 0.281,0.464 0.592,0.827 1,1.031 0.287,0.466 0.618,0.824 1.031,1.031 0.268,0.425 0.566,0.726 0.938,0.938 0.283,0.464 0.632,0.806 1.031,1.031 0.283,0.454 0.607,0.805 1,1.031 0.284,0.45 0.64,0.771 1.031,1 0.286,0.449 0.608,0.799 1,1.031 0.286,0.446 0.611,0.795 1,1.031 0.286,0.44 0.615,0.762 1,1 0.105,0.16 0.226,0.304 0.344,0.438 -0.498,0.386 -0.677,0.51 -1.188,0.906 -4.326,5.895 -2.118,12.728 1.938,18.813 4.405,6.61 8.512,11.79 12.719,15.813 0.391,0.393 0.795,0.784 1.188,1.156 0.228,0.227 0.459,0.468 0.688,0.688 0.45,0.456 0.892,0.915 1.344,1.344 0.229,0.228 0.458,0.466 0.688,0.688 0.482,0.488 0.953,0.98 1.438,1.438 0.197,0.196 0.396,0.403 0.594,0.594 l 0.031,0.031 c 0.417,0.422 0.831,0.852 1.25,1.25 0.302,0.302 0.603,0.616 0.906,0.906 0.339,0.341 0.691,0.675 1.031,1 0.021,0.022 0.042,0.041 0.063,0.063 0.317,0.318 0.619,0.664 0.938,0.969 0.341,0.343 0.689,0.673 1.031,1 0.021,0.022 0.042,0.041 0.063,0.063 0.313,0.315 0.623,0.637 0.938,0.938 0.332,0.335 0.666,0.681 1,1 0.29,0.307 0.585,0.58 0.875,0.875 0.039,0.042 0.086,0.083 0.125,0.125 0.399,0.402 0.787,0.808 1.188,1.188 0.25,0.25 0.499,0.509 0.75,0.75 0.407,0.413 0.81,0.83 1.219,1.219 0.258,0.272 0.523,0.519 0.781,0.781 0.049,0.053 0.107,0.104 0.156,0.156 0.386,0.389 0.768,0.789 1.156,1.156 0.292,0.292 0.582,0.595 0.875,0.875 0.339,0.342 0.691,0.675 1.031,1 l 0.031,0.031 c 0.328,0.33 0.64,0.686 0.969,1 0.33,0.333 0.669,0.652 1,0.969 0.377,0.381 0.746,0.765 1.125,1.125 0.01,0.011 0.021,0.02 0.031,0.031 0.304,0.305 0.602,0.615 0.906,0.906 0.02,0.021 0.043,0.041 0.063,0.063 0.316,0.318 0.621,0.666 0.938,0.969 0.404,0.408 0.813,0.805 1.219,1.188 0.289,0.289 0.585,0.568 0.875,0.844 0.02,0.021 0.043,0.041 0.063,0.063 0.306,0.307 0.6,0.645 0.906,0.938 0.34,0.343 0.69,0.675 1.031,1 0.035,0.037 0.059,0.088 0.094,0.125 0.248,0.249 0.502,0.511 0.75,0.75 0.445,0.453 0.897,0.89 1.344,1.313 0.227,0.227 0.46,0.469 0.688,0.688 0.481,0.491 0.954,0.983 1.438,1.438 0.197,0.196 0.396,0.404 0.594,0.594 0.429,0.438 0.85,0.873 1.281,1.281 0.692,0.736 1.397,1.436 2.094,2.094 l 0.031,0.031 c 0.216,0.217 0.439,0.447 0.656,0.656 0.392,0.401 0.793,0.781 1.188,1.156 0.069,0.074 0.15,0.145 0.219,0.219 0.265,0.265 0.516,0.559 0.781,0.813 0.35,0.355 0.711,0.697 1.063,1.031 0.065,0.069 0.123,0.15 0.188,0.219 0.207,0.207 0.418,0.425 0.625,0.625 0.401,0.411 0.816,0.804 1.219,1.188 0.069,0.074 0.149,0.145 0.219,0.219 0.264,0.264 0.516,0.56 0.781,0.813 0.37,0.375 0.753,0.742 1.125,1.094 0.049,0.053 0.107,0.104 0.156,0.156 0.187,0.186 0.375,0.382 0.563,0.563 0.44,0.452 0.87,0.894 1.313,1.313 0.05,0.053 0.107,0.104 0.156,0.156 0.188,0.188 0.374,0.381 0.563,0.563 0.437,0.448 0.873,0.898 1.313,1.313 0.059,0.063 0.129,0.125 0.188,0.188 0.175,0.175 0.356,0.362 0.531,0.531 0.334,0.343 0.665,0.677 1,1 0.412,0.424 0.836,0.825 1.25,1.219 0.099,0.107 0.214,0.208 0.313,0.313 0.231,0.23 0.455,0.467 0.688,0.688 0.031,0.031 0.063,0.062 0.094,0.094 0.074,0.08 0.144,0.171 0.219,0.25 0.165,0.165 0.334,0.34 0.5,0.5 0.331,0.341 0.667,0.679 1,1 0.393,0.405 0.792,0.811 1.188,1.188 0.381,0.388 0.773,0.764 1.156,1.125 0.238,0.241 0.48,0.488 0.719,0.719 0.461,0.476 0.911,0.939 1.375,1.375 0.262,0.265 0.518,0.53 0.781,0.781 0.415,0.425 0.833,0.827 1.25,1.219 0.084,0.091 0.166,0.192 0.25,0.281 0.134,0.133 0.272,0.277 0.406,0.406 0.334,0.345 0.665,0.677 1,1 0.412,0.427 0.835,0.825 1.25,1.219 0.335,0.342 0.663,0.68 1,1 0.345,0.352 0.685,0.703 1.031,1.031 0.105,0.107 0.208,0.208 0.313,0.313 0.044,0.047 0.081,0.109 0.125,0.156 0.115,0.114 0.228,0.232 0.344,0.344 0.409,0.424 0.838,0.828 1.25,1.219 0.376,0.383 0.747,0.77 1.125,1.125 0.228,0.231 0.459,0.467 0.688,0.688 0.451,0.468 0.89,0.917 1.344,1.344 0.279,0.283 0.564,0.546 0.844,0.813 0.382,0.393 0.741,0.794 1.125,1.156 0.247,0.252 0.502,0.511 0.75,0.75 0.417,0.433 0.831,0.854 1.25,1.25 0.345,0.353 0.684,0.704 1.031,1.031 0.335,0.342 0.663,0.682 1,1 0.345,0.353 0.684,0.704 1.031,1.031 0.252,0.258 0.497,0.506 0.75,0.75 0.41,0.428 0.838,0.829 1.25,1.219 0.365,0.375 0.726,0.748 1.094,1.094 0.239,0.244 0.479,0.488 0.719,0.719 0.105,0.11 0.209,0.206 0.313,0.313 4.285,0.25 8.59,0.406 12.938,0.406 120.9,0 218.91,-98.01 218.91,-218.91 0,-4.616 -0.156,-9.204 -0.438,-13.75 -0.135,-0.126 -0.269,-0.253 -0.406,-0.375 -0.056,-0.06 -0.1,-0.129 -0.156,-0.188 -0.103,-0.099 -0.21,-0.185 -0.313,-0.281 -0.179,-0.183 -0.352,-0.387 -0.531,-0.563 -0.339,-0.36 -0.691,-0.699 -1.031,-1.031 -0.336,-0.356 -0.694,-0.702 -1.031,-1.031 -0.052,-0.055 -0.104,-0.102 -0.156,-0.156 -0.033,-0.032 -0.061,-0.062 -0.094,-0.094 -0.254,-0.264 -0.526,-0.501 -0.781,-0.75 -0.046,-0.049 -0.079,-0.108 -0.125,-0.156 -0.125,-0.12 -0.25,-0.227 -0.375,-0.344 -0.175,-0.178 -0.356,-0.36 -0.531,-0.531 -0.34,-0.361 -0.689,-0.699 -1.031,-1.031 -0.036,-0.038 -0.057,-0.087 -0.094,-0.125 -0.092,-0.089 -0.189,-0.163 -0.281,-0.25 -0.213,-0.219 -0.412,-0.449 -0.625,-0.656 -0.334,-0.354 -0.696,-0.674 -1.031,-1 -0.036,-0.038 -0.058,-0.088 -0.094,-0.125 -0.093,-0.09 -0.188,-0.163 -0.281,-0.25 -0.214,-0.22 -0.442,-0.448 -0.656,-0.656 -0.337,-0.358 -0.692,-0.702 -1.031,-1.031 -0.026,-0.027 -0.037,-0.067 -0.063,-0.094 -0.125,-0.121 -0.249,-0.227 -0.375,-0.344 -0.195,-0.2 -0.398,-0.404 -0.594,-0.594 -0.021,-0.022 -0.042,-0.04 -0.063,-0.063 -0.334,-0.322 -0.632,-0.643 -0.969,-0.938 -0.015,-0.016 -0.016,-0.046 -0.031,-0.063 -0.123,-0.118 -0.252,-0.229 -0.375,-0.344 -0.205,-0.21 -0.42,-0.426 -0.625,-0.625 -0.016,-0.017 -0.016,-0.046 -0.031,-0.063 -0.082,-0.079 -0.168,-0.142 -0.25,-0.219 -0.245,-0.254 -0.473,-0.512 -0.719,-0.75 -0.336,-0.356 -0.694,-0.705 -1.031,-1.031 -0.337,-0.358 -0.692,-0.673 -1.031,-1 -0.005,-0.005 0.005,-0.026 0,-0.031 -0.115,-0.111 -0.229,-0.205 -0.344,-0.313 -0.226,-0.233 -0.46,-0.469 -0.688,-0.688 -0.341,-0.362 -0.688,-0.701 -1.031,-1.031 -0.343,-0.364 -0.687,-0.7 -1.031,-1.031 -0.334,-0.355 -0.664,-0.677 -1,-1 -0.336,-0.357 -0.693,-0.707 -1.031,-1.031 -0.338,-0.359 -0.691,-0.705 -1.031,-1.031 -0.34,-0.361 -0.689,-0.704 -1.031,-1.031 -0.342,-0.363 -0.687,-0.671 -1.031,-1 -0.339,-0.36 -0.69,-0.705 -1.031,-1.031 -0.34,-0.361 -0.658,-0.705 -1,-1.031 -0.337,-0.358 -0.692,-0.708 -1.031,-1.031 -0.339,-0.36 -0.69,-0.675 -1.031,-1 -0.108,-0.114 -0.205,-0.233 -0.313,-0.344 -0.152,-0.139 -0.316,-0.273 -0.469,-0.406 -0.089,-0.087 -0.161,-0.196 -0.25,-0.281 -0.343,-0.364 -0.686,-0.704 -1.031,-1.031 -0.345,-0.366 -0.684,-0.703 -1.031,-1.031 -0.337,-0.357 -0.661,-0.679 -1,-1 -0.339,-0.359 -0.69,-0.709 -1.031,-1.031 -0.34,-0.361 -0.689,-0.708 -1.031,-1.031 -0.341,-0.362 -0.688,-0.708 -1.031,-1.031 -0.343,-0.363 -0.686,-0.676 -1.031,-1 -0.341,-0.362 -0.688,-0.709 -1.031,-1.031 -0.342,-0.363 -0.656,-0.709 -1,-1.031 -0.34,-0.361 -0.688,-0.71 -1.031,-1.031 -0.345,-0.366 -0.684,-0.707 -1.031,-1.031 -0.339,-0.359 -0.69,-0.682 -1.031,-1 -0.345,-0.366 -0.683,-0.708 -1.031,-1.031 -0.351,-0.372 -0.708,-0.704 -1.063,-1.031 -0.481,-0.507 -0.95,-1.015 -1.438,-1.438 -0.205,-0.205 -0.388,-0.435 -0.594,-0.625 -0.397,-0.42 -0.817,-0.828 -1.219,-1.188 -0.313,-0.32299 -0.622,-0.65199 -0.938,-0.93799 -0.338,-0.352 -0.69,-0.692 -1.031,-1 -0.339,-0.355 -0.657,-0.722 -1,-1.031 -0.333,-0.348 -0.663,-0.696 -1,-1 -0.307,-0.322 -0.628,-0.623 -0.938,-0.906 -0.337,-0.357 -0.66,-0.721 -1,-1.031 -0.339,-0.362 -0.689,-0.687 -1.031,-1 -0.367,-0.391 -0.723,-0.76 -1.094,-1.094 -0.269,-0.284 -0.541,-0.56 -0.813,-0.813 -0.404,-0.44 -0.81,-0.852 -1.219,-1.219 -0.291,-0.308 -0.581,-0.605 -0.875,-0.875 -0.372,-0.402 -0.749,-0.786 -1.125,-1.125 -0.389,-0.416 -0.793,-0.78 -1.188,-1.125 -0.116,-0.121 -0.227,-0.26 -0.344,-0.375 -0.046,-0.053 -0.079,-0.104 -0.125,-0.156 -0.05,-0.048 -0.106,-0.078 -0.156,-0.125 -0.438,-0.486 -0.869,-0.92 -1.313,-1.313 -0.152,-0.161 -0.316,-0.319 -0.469,-0.469 -0.035,-0.041 -0.058,-0.085 -0.094,-0.125 -0.049,-0.048 -0.107,-0.079 -0.156,-0.125 -0.399,-0.445 -0.784,-0.855 -1.188,-1.219 -0.315,-0.342 -0.65,-0.647 -0.969,-0.938 -0.387,-0.425 -0.764,-0.81 -1.156,-1.156 -0.312,-0.336 -0.622,-0.654 -0.938,-0.938 -0.332,-0.362 -0.664,-0.698 -1,-1 -0.339,-0.371 -0.688,-0.724 -1.031,-1.031 -0.233,-0.255 -0.484,-0.495 -0.719,-0.719 -0.428,-0.495 -0.88,-0.894 -1.313,-1.281 -0.341,-0.377 -0.654,-0.723 -1,-1.031 -0.338,-0.374 -0.689,-0.695 -1.031,-1 -0.354,-0.394 -0.703,-0.747 -1.063,-1.063 -0.256,-0.282 -0.523,-0.541 -0.781,-0.781 -0.405,-0.468 -0.809,-0.89 -1.219,-1.25 -0.366,-0.406 -0.753,-0.745 -1.125,-1.063 -0.088,-0.09 -0.162,-0.192 -0.25,-0.281 -0.179,-0.186 -0.35,-0.367 -0.531,-0.531 -0.051,-0.059 -0.105,-0.099 -0.156,-0.156 -0.045,-0.039 -0.08,-0.087 -0.125,-0.125 -0.124,-0.127 -0.251,-0.25 -0.375,-0.375 -0.047,-0.05 -0.078,-0.107 -0.125,-0.156 -0.083,-0.08 -0.166,-0.143 -0.25,-0.219 -0.103,-0.12 -0.209,-0.201 -0.313,-0.313 -0.033,-0.031 -0.061,-0.063 -0.094,-0.094 -0.073,-0.074 -0.146,-0.146 -0.219,-0.219 -0.016,-0.016 -0.016,-0.047 -0.031,-0.063 -0.031,-0.033 -0.063,-0.061 -0.094,-0.094 -0.092,-0.089 -0.189,-0.167 -0.281,-0.25 -0.06,-0.07 -0.127,-0.121 -0.188,-0.188 -0.149,-0.154 -0.288,-0.319 -0.438,-0.469 -0.02,-0.02 -0.042,-0.043 -0.063,-0.063 -0.021,-0.022 -0.042,-0.041 -0.063,-0.063 -0.094,-0.09 -0.187,-0.166 -0.281,-0.25 -0.128,-0.148 -0.247,-0.272 -0.375,-0.406 -0.11,-0.112 -0.203,-0.234 -0.313,-0.344 -0.353,-0.375 -0.708,-0.707 -1.063,-1.063 -0.347,-0.368 -0.683,-0.713 -1.031,-1.063 -0.248,-0.263 -0.502,-0.497 -0.75,-0.75 -0.108,-0.104 -0.205,-0.21 -0.313,-0.313 -0.249,-0.265 -0.5,-0.495 -0.75,-0.75 -0.011,-0.01 -0.02,-0.021 -0.031,-0.031 -0.088,-0.09 -0.161,-0.192 -0.25,-0.281 -0.349,-0.371 -0.712,-0.711 -1.063,-1.063 -0.349,-0.37 -0.681,-0.711 -1.031,-1.063 -0.26,-0.276 -0.521,-0.516 -0.781,-0.781 -0.096,-0.093 -0.185,-0.19 -0.281,-0.281 -0.259,-0.275 -0.522,-0.517 -0.781,-0.781 -0.043,-0.041 -0.082,-0.084 -0.125,-0.125 -0.047,-0.047 -0.078,-0.109 -0.125,-0.156 -0.269,-0.285 -0.544,-0.538 -0.813,-0.813 -0.087,-0.084 -0.163,-0.168 -0.25,-0.25 -0.348,-0.369 -0.683,-0.711 -1.031,-1.063 -0.349,-0.371 -0.713,-0.71 -1.063,-1.063 -0.349,-0.37 -0.682,-0.71 -1.031,-1.063 -0.28,-0.297 -0.563,-0.558 -0.844,-0.844 -0.075,-0.072 -0.144,-0.147 -0.219,-0.219 -0.28,-0.297 -0.564,-0.559 -0.844,-0.844 -0.021,-0.021 -0.041,-0.042 -0.063,-0.063 -0.047,-0.047 -0.078,-0.109 -0.125,-0.156 -0.289,-0.307 -0.585,-0.58 -0.875,-0.875 -0.065,-0.063 -0.123,-0.126 -0.188,-0.188 -0.348,-0.369 -0.683,-0.711 -1.031,-1.063 -0.349,-0.371 -0.713,-0.71 -1.063,-1.063 -0.346,-0.367 -0.685,-0.713 -1.031,-1.063 -0.353,-0.374 -0.709,-0.706 -1.063,-1.063 -0.347,-0.368 -0.684,-0.712 -1.031,-1.063 -0.31,-0.329 -0.627,-0.622 -0.938,-0.938 -0.043,-0.042 -0.082,-0.084 -0.125,-0.125 -0.348,-0.369 -0.683,-0.711 -1.031,-1.063 -0.349,-0.371 -0.713,-0.709 -1.063,-1.063 -0.32,-0.34 -0.648,-0.643 -0.969,-0.969 -0.033,-0.031 -0.061,-0.062 -0.094,-0.094 -0.35,-0.372 -0.68,-0.708 -1.031,-1.063 -0.321,-0.34 -0.647,-0.643 -0.969,-0.969 -0.032,-0.031 -0.062,-0.063 -0.094,-0.094 -0.328,-0.348 -0.64,-0.667 -0.969,-1 -0.022,-0.021 -0.041,-0.042 -0.063,-0.063 -0.332,-0.352 -0.667,-0.663 -1,-1 -0.022,-0.021 -0.041,-0.042 -0.063,-0.063 -2.065,-2.19 -4.123,-4.076 -6.25,-5.719 -11.25,-8.685 -13.209,-10.706 -28.25,-14.781 -1.764,-0.478 -3.429,-0.715 -5.03,-0.719 -4.806,-0.011 -8.88,2.141 -12.12,6.563 -7.477,20.364 -4.983,13.497 -7.5,20.344 -0.162,-0.16 -0.329,-0.316 -0.5,-0.469 -0.369,-0.409 -0.766,-0.794 -1.188,-1.156 -0.318,-0.337 -0.614,-0.696 -0.969,-1 -0.318,-0.338 -0.644,-0.695 -1,-1 -0.263,-0.279 -0.524,-0.556 -0.813,-0.813 -0.315,-0.349 -0.647,-0.685 -1,-1 -0.315,-0.349 -0.647,-0.685 -1,-1 -0.29,-0.322 -0.614,-0.614 -0.938,-0.906 -0.305,-0.344 -0.626,-0.689 -0.969,-1 -0.388,-0.437 -0.803,-0.866 -1.25,-1.25 -0.243,-0.258 -0.485,-0.511 -0.75,-0.75 -0.334,-0.376 -0.684,-0.726 -1.063,-1.063 -0.315,-0.349 -0.647,-0.685 -1,-1 -0.29,-0.322 -0.614,-0.614 -0.938,-0.906 -0.388,-0.437 -0.802,-0.866 -1.25,-1.25 -0.318,-0.337 -0.614,-0.696 -0.969,-1 -0.243,-0.258 -0.485,-0.511 -0.75,-0.75 -0.334,-0.376 -0.684,-0.726 -1.063,-1.063 -0.315,-0.349 -0.647,-0.685 -1,-1 -0.315,-0.349 -0.647,-0.685 -1,-1 -0.369,-0.409 -0.766,-0.794 -1.188,-1.156 -0.318,-0.337 -0.614,-0.696 -0.969,-1 -0.318,-0.338 -0.644,-0.695 -1,-1 -0.263,-0.279 -0.524,-0.556 -0.813,-0.813 -0.315,-0.349 -0.647,-0.685 -1,-1 -0.315,-0.349 -0.647,-0.685 -1,-1 -0.29,-0.322 -0.614,-0.614 -0.938,-0.906 -0.388,-0.437 -0.771,-0.866 -1.219,-1.25 -0.318,-0.338 -0.644,-0.695 -1,-1 -0.263,-0.279 -0.524,-0.556 -0.813,-0.813 -0.315,-0.349 -0.647,-0.685 -1,-1 -0.315,-0.349 -0.647,-0.685 -1,-1 -0.29,-0.322 -0.614,-0.614 -0.938,-0.906 -0.305,-0.343999 -0.626,-0.688999 -0.969,-0.999999 -2.759,-3.107 -7.12,-4.842 -11.813,-5.781 -7.689,-1.539 -14.179,-2.296 -19.938,-2.188" />
  <path
     id="path96"
     d="m235.19 91.44c-1.92 0.036-3.754 0.178-5.531 0.406-14.1 1.813-16.888 1.746-30.406 9.5-6.343 3.638-9.14 9.02-8.03 16.25 43.41 93.77-0.075-0.036 43.41 93.91 1.338 1.569 2.212 3.438 4.25 3.125l14.75-2.281c2.038-0.313 2.325-2.349 3.125-4.25 12.633-102.99 0.09-0.376 13.03-102.53-1.109-7.228-7.486-10.502-14.656-11.938-7.689-1.539-14.179-2.296-19.938-2.188m84.63 14.281c-4.806-0.011-8.88 2.141-12.12 6.563-35.613 97-0.006-0.11-35.688 97.06-0.163 2.056-0.881 3.998 0.781 5.219l12.03 8.813c1.663 1.22 3.309-0.002 5.219-0.781 81.76-63.892 0.333-0.197 81.72-63.28 4.327-5.895 2.149-12.727-1.906-18.813-5.798-8.7-11.08-14.902-16.75-19.281-11.25-8.686-13.209-10.705-28.25-14.781-1.765-0.478-3.429-0.715-5.03-0.719m-167.34 31.31c-3.974-0.058-8.07 1.747-11.875 4.281-8.7 5.798-14.87 11.08-19.25 16.75-8.686 11.25-10.705 13.177-14.781 28.22-1.913 7.06-0.083 12.829 5.813 17.16 97 35.613-0.079 0.037 97.09 35.719 2.056 0.163 3.967 0.85 5.188-0.813l8.844-12.03c1.22-1.663-0.034-3.278-0.813-5.188-63.892-81.76-0.197-0.365-63.28-81.75-2.211-1.623-4.553-2.309-6.938-2.344m245.03 54.875c-0.846 0.018-1.721 0.111-2.625 0.25-93.77 43.41 0.036-0.075-93.91 43.41-1.569 1.338-3.406 2.212-3.094 4.25l2.25 14.75c0.313 2.038 2.349 2.294 4.25 3.094 102.99 12.633 0.376 0.122 102.53 13.06 7.228-1.109 10.533-7.486 11.969-14.656 2.052-10.252 2.664-18.361 1.75-25.469-1.813-14.1-1.746-16.92-9.5-30.438-3.184-5.55-7.701-8.374-13.625-8.25m-141.16 37.25c-14.496 0-26.25 11.754-26.25 26.25s11.754 26.25 26.25 26.25 26.25-11.754 26.25-26.25-11.754-26.25-26.25-26.25m-151.25 10.656c-7.228 1.109-10.533 7.486-11.969 14.656-2.052 10.252-2.664 18.361-1.75 25.469 1.813 14.1 1.746 16.888 9.5 30.406 3.638 6.343 9.02 9.14 16.25 8.03 93.77-43.41-0.036 0.075 93.91-43.41 1.569-1.338 3.407-2.212 3.094-4.25l-2.25-14.75c-0.313-2.038-2.349-2.325-4.25-3.125-102.99-12.633-0.376-0.09-102.53-13.03m195.22 30.563c-0.894 0.013-1.671 0.262-2.281 1.094l-8.844 12.03c-1.22 1.663 0.034 3.309 0.813 5.219 63.892 81.76 0.197 0.333 63.28 81.72 5.895 4.327 12.727 2.149 18.813-1.906 8.7-5.798 14.87-11.08 19.25-16.75 8.686-11.25 10.706-13.209 14.781-28.25 1.913-7.06 0.083-12.829-5.813-17.16-97-35.613 0.079-0.006-97.09-35.688-1.028-0.082-2.01-0.325-2.906-0.313m-74.25 17.781c-1.054 0.134-2.15 0.794-3.344 1.281-81.76 63.892-0.365 0.197-81.75 63.28-4.327 5.895-2.118 12.727 1.938 18.813 5.798 8.7 11.08 14.902 16.75 19.281 11.25 8.686 13.177 10.705 28.22 14.781 7.06 1.913 12.861 0.051 17.188-5.844 35.613-97 0.006 0.11 35.688-97.06 0.163-2.056 0.85-3.998-0.813-5.219l-12-8.813c-0.623-0.458-1.242-0.58-1.875-0.5m46.656 9.219-14.719 2.281c-2.038 0.313-2.326 2.349-3.125 4.25-12.633 102.99-0.09 0.376-13.03 102.53 1.109 7.228 7.455 10.502 14.625 11.938 10.252 2.052 18.361 2.696 25.469 1.781 14.1-1.813 16.92-1.746 30.438-9.5 6.343-3.638 9.109-9.02 8-16.25-43.41-93.77 0.106 0.036-43.37-93.91-1.338-1.569-2.243-3.438-4.281-3.125"
     fill-rule="evenodd"
     fill="#fff" />
</svg>
