<?xml version="1.0" encoding="UTF-8" standalone="no"?>
<svg xmlns="http://www.w3.org/2000/svg" height="512" viewBox="0 0 512 512" width="512" version="1.1">
 <metadata id="metadata72"/>
 <path id="path4" d="m471.95 253.05c0 120.9-98.01 218.9-218.9 218.9-120.9 0-218.9-98.01-218.9-218.9 0-120.9 98.01-218.9 218.9-218.9 120.9 0 218.9 98.01 218.9 218.9" fill-rule="evenodd" fill="#BF9E73"/>
 <path id="path6" fill-opacity="0.235" d="m255.97 115.72-115 229.69h1.125l-0.094 0.156c-0.001 0.001-0.281 0.594-0.281 0.594h1.125l-0.375 0.75h1.094c-0.177 0.354-0.344 0.719-0.344 0.719h1.125l-0.375 0.75h1.125l-0.375 0.75h1.125c-0.128 0.255-0.375 0.75-0.375 0.75h1.125l-0.375 0.75h1.125c-0.103 0.207-0.375 0.75-0.375 0.75h1.125l-0.375 0.75h1.094c-0.085 0.171-0.375 0.75-0.375 0.75h1.125l-0.375 0.75h1.125c-0.073 0.145-0.375 0.75-0.375 0.75h1.125c-0.068 0.135-0.375 0.75-0.375 0.75h1.125l-0.375 0.75h1.125c-0.06 0.119-0.375 0.75-0.375 0.75h1.125l-0.375 0.75h1.125l-0.375 0.75h1.125c-0.051 0.101-0.375 0.75-0.375 0.75h1.125l-0.375 0.75h1.125c-0.043 0.086-0.375 0.719-0.375 0.719h1.125l-0.375 0.75h1.125l-0.375 0.75h1.125c-0.04 0.081-0.375 0.75-0.375 0.75h1.125c-0.039 0.077-0.375 0.75-0.375 0.75h1.125l-0.375 0.75h1.094l-0.375 0.75h1.125c-0.035 0.069-0.375 0.75-0.375 0.75h1.125c-0.033 0.067-0.375 0.75-0.375 0.75h1.125l-0.375 0.75h1.125l-0.375 0.75h1.125c-0.03 0.061-0.375 0.75-0.375 0.75h1.125c-0.029 0.059-0.375 0.75-0.375 0.75h1.125c-0.029 0.057-0.375 0.75-0.375 0.75h1.125c-0.028 0.055-0.375 0.75-0.375 0.75h1.125l-0.375 0.75h1.125l-0.375 0.75h1.094c-0.023 0.046-0.344 0.719-0.344 0.719h1.125l-0.375 0.75h1.125c-0.024 0.049-0.375 0.75-0.375 0.75h1.125c-0.024 0.047-0.375 0.75-0.375 0.75h1.125l-0.375 0.75h1.125c-0.023 0.045-0.375 0.75-0.375 0.75h1.094l-0.375 0.75h1.125c-0.022 0.043-0.375 0.75-0.375 0.75h1.125l-0.375 0.75h1.125c-0.021 0.041-0.375 0.75-0.375 0.75h1.125l-0.375 0.75h1.125l-0.375 0.75h1.125c-0.019 0.039-0.375 0.75-0.375 0.75h1.125l-0.375 0.75h1.125c-0.019 0.037-0.375 0.75-0.375 0.75h1.125l-0.375 0.75h1.125c-0.017 0.034-0.375 0.719-0.375 0.719h1.125l-0.375 0.75h1.125c-0.017 0.035-0.375 0.75-0.375 0.75h1.125l-0.375 0.75h1.125l-0.375 0.75h1.125c-0.017 0.033-0.375 0.75-0.375 0.75h1.125l-0.375 0.75h1.094l-0.375 0.75h1.125l-0.375 0.75h1.125c-0.016 0.031-0.375 0.75-0.375 0.75h1.125l-0.375 0.75h1.125l-0.375 0.75h1.125c-0.015 0.029-0.375 0.75-0.375 0.75h1.125l-0.375 0.75h1.125c-0.014 0.029-0.375 0.75-0.375 0.75h1.125l-0.375 0.75h1.125l-0.375 0.75h1.125l-0.375 0.719h1.125l-0.375 0.75h1.125c-0.013 0.027-0.375 0.75-0.375 0.75h1.125l-0.375 0.75h1.125l-0.375 0.75h1.125l-0.375 0.75h1.125l-0.375 0.75h1.094c-0.013 0.025-0.375 0.75-0.375 0.75h1.125l-0.375 0.75h1.125l-0.375 0.75h1.125l-0.375 0.75h1.125l-0.375 0.75h1.125l-0.375 0.75h1.125c-0.012 0.023-0.375 0.75-0.375 0.75h1.125c-0.011 0.023-0.375 0.75-0.375 0.75h1.125c-0.011 0.023-0.375 0.75-0.375 0.75h1.125l-0.375 0.75h1.125c-0.01 0.021-0.375 0.719-0.375 0.719h1.125l-0.375 0.75h1.125l-0.375 0.75h1.125l-0.375 0.75h1.125l-0.375 0.75h1.125l-0.375 0.75h1.094l-0.375 0.75h1.125c-0.01 0.021-0.375 0.75-0.375 0.75h1.125l-0.375 0.75h1.125l-0.375 0.75h1.125l-0.375 0.75h1.125l-0.375 0.75h1.125l-0.375 0.75h1.125l-0.375 0.75h1.125c-0.01 0.019-0.375 0.75-0.375 0.75h1.125c-0.009 0.019-0.375 0.75-0.375 0.75h1.125l-0.375 0.75h1.125c-0.009 0.017-0.375 0.719-0.375 0.719h1.125l-0.375 0.75h1.125l-0.375 0.75h1.125l-0.375 0.75h1.125l-0.375 0.75h1.125l-0.375 0.75h1.094l-0.375 0.75h1.125c-0.009 0.017-0.375 0.75-0.375 0.75h1.125l-0.375 0.75h1.125l-0.375 0.75h1.125l-0.375 0.75h1.125l-0.375 0.75h1.125l-0.375 0.75h1.125l-0.375 0.75h1.125l-0.375 0.75h1.125l-0.375 0.75h1.125c-0.008 0.015-0.375 0.719-0.375 0.719h1.125l-0.375 0.75h1.125l-0.375 0.75h1.125l-0.375 0.75h1.125l-0.375 0.75h1.125l-0.375 0.75h1.125c-0.008 0.015-0.375 0.75-0.375 0.75h1.094l-0.375 0.75h1.125l-0.375 0.75h1.125l-0.375 0.75h1.125l-0.375 0.75h1.125l-0.375 0.75h1.125c-0.007 0.015-0.375 0.75-0.375 0.75h1.125l-0.375 0.75h1.125l-0.375 0.75h1.125l-0.375 0.75h1.125l-0.375 0.75h1.125c-0.007 0.013-0.375 0.719-0.375 0.719h1.125l-0.375 0.75h1.125l-0.375 0.75h1.125l-0.375 0.75h1.125l-0.375 0.75h1.125l-0.375 0.75h1.094l-0.375 0.75h1.125l-0.375 0.75h1.125l-0.375 0.75h1.125l-0.375 0.75h1.125l-0.375 0.75h1.125l-0.375 0.75h1.125l-0.375 0.75h1.125l-0.375 0.75h1.125l-0.375 0.75h1.125l-0.375 0.75h1.125l-0.375 0.75h1.125c-0.006 0.012-0.375 0.719-0.375 0.719h1.125l-0.375 0.75h1.125l-0.375 0.75h1.125l-0.375 0.75h1.125l-0.375 0.75h1.125l-0.375 0.75h1.094l-0.375 0.75h1.125l-0.375 0.75h1.125l-0.375 0.75h1.125l-0.375 0.75h1.125l-0.375 0.75h1.125l-0.375 0.75h1.125l-0.375 0.75h1.125l-0.375 0.75h1.125l-0.375 0.75h1.125l-0.188 0.344c90.73-5.958 166.35-67.16 193.53-150.31l-0.188-0.406-0.156 0.344-0.563-1.094-0.188 0.375-0.563-1.125-0.188 0.375-0.563-1.125-0.188 0.375-0.563-1.125-0.188 0.375-0.563-1.125-0.188 0.375-0.563-1.125-0.188 0.375-0.563-1.125-0.188 0.375-0.563-1.125-0.188 0.375-0.563-1.125-0.188 0.375-0.563-1.125-0.188 0.375-0.563-1.125-0.188 0.375-0.563-1.125-0.188 0.375-0.563-1.125-0.188 0.375-0.563-1.094-0.188 0.375-0.563-1.125-0.188 0.375-0.563-1.125-0.188 0.375-0.563-1.125-0.156 0.344c-0.008-0.016-0.563-1.094-0.563-1.094l-0.188 0.375-0.563-1.125-0.188 0.375-0.563-1.125-0.188 0.375-0.563-1.125-0.188 0.375-0.563-1.125-0.188 0.375-0.563-1.125-0.188 0.375-0.563-1.125-0.188 0.375c-0.009-0.018-0.563-1.125-0.563-1.125l-0.188 0.375-0.563-1.125-0.188 0.375-0.563-1.125-0.188 0.375-0.563-1.125-0.188 0.375-0.563-1.125-0.188 0.375-0.563-1.125-0.188 0.375-0.563-1.094-0.188 0.375-0.563-1.125-0.188 0.375-0.563-1.125-0.188 0.375-0.563-1.125-0.156 0.344c-0.009-0.017-0.563-1.094-0.563-1.094l-0.188 0.375-0.563-1.125-0.188 0.375-0.563-1.125-0.188 0.375-0.563-1.125-0.188 0.375-0.563-1.125-0.188 0.375-0.563-1.125-0.188 0.375-0.563-1.125-0.188 0.375-0.563-1.125-0.188 0.375-0.563-1.125-0.188 0.375-0.563-1.125-0.188 0.375-0.563-1.125-0.188 0.375-0.563-1.125-0.188 0.375-0.563-1.125-0.188 0.375-0.563-1.094-0.188 0.375-0.563-1.125-0.188 0.375-0.563-1.125-0.156 0.344-0.563-1.094-0.188 0.375-0.563-1.125-0.188 0.375-0.563-1.125-0.188 0.375-0.563-1.125-0.188 0.375-0.563-1.125-0.188 0.375-0.563-1.125-0.188 0.375-0.563-1.125-0.188 0.375-0.563-1.125-0.188 0.375-0.563-1.125-0.188 0.375-0.563-1.125-0.188 0.375-0.563-1.125-0.188 0.375-0.563-1.125-0.188 0.375-0.563-1.125-0.188 0.375-0.563-1.125-0.188 0.375-0.563-1.094-0.188 0.375-0.563-1.125-0.188 0.375-0.563-1.125-0.156 0.344-0.563-1.094-0.188 0.375-0.563-1.125-0.188 0.375-0.563-1.125-0.188 0.375-0.563-1.125-0.188 0.375-0.563-1.125-0.188 0.375-0.563-1.125-0.188 0.375-0.563-1.125-0.188 0.375-0.563-1.125-0.188 0.375-0.563-1.125-0.188 0.375-0.563-1.125-0.188 0.375-0.563-1.125-0.188 0.375-0.563-1.125-0.188 0.375-0.563-1.125-0.188 0.375-0.563-1.094-0.188 0.375-0.563-1.125-0.188 0.375-0.563-1.125-0.188 0.375-0.563-1.125-0.156 0.344-0.563-1.094-0.188 0.375-0.563-1.125-0.188 0.375-0.563-1.125-0.188 0.375-0.563-1.125-0.188 0.375-0.563-1.125-0.188 0.375-0.563-1.125-0.188 0.375-0.563-1.125-0.188 0.375-0.563-1.125-0.188 0.375-0.563-1.125-0.188 0.375-0.563-1.125-0.188 0.375-0.563-1.125-0.188 0.375c-0.012-0.024-0.563-1.125-0.563-1.125l-0.188 0.375-0.563-1.125-0.188 0.375c-0.012-0.024-0.563-1.094-0.563-1.094l-0.188 0.375c-0.012-0.025-0.563-1.125-0.563-1.125l-0.188 0.375c-0.013-0.025-0.563-1.125-0.563-1.125l-0.188 0.375c-0.013-0.025-0.563-1.125-0.563-1.125l-0.156 0.344-0.563-1.094-0.188 0.375c-0.013-0.025-0.563-1.125-0.563-1.125l-0.188 0.375c-0.013-0.026-0.563-1.125-0.563-1.125l-0.188 0.375c-0.013-0.026-0.563-1.125-0.563-1.125l-0.188 0.375c-0.013-0.026-0.563-1.125-0.563-1.125l-0.188 0.375-0.563-1.125-0.188 0.375c-0.013-0.026-0.563-1.125-0.563-1.125l-0.188 0.375-0.563-1.125-0.188 0.375c-0.013-0.027-0.563-1.125-0.563-1.125l-0.188 0.375c-0.013-0.027-0.563-1.125-0.563-1.125l-0.188 0.375c-0.013-0.027-0.563-1.125-0.563-1.125l-0.188 0.375c-0.014-0.027-0.563-1.125-0.563-1.125l-0.188 0.375-0.563-1.125-0.188 0.375c-0.013-0.026-0.563-1.094-0.563-1.094l-0.188 0.375c-0.014-0.028-0.563-1.125-0.563-1.125l-0.188 0.375c-0.014-0.028-0.563-1.125-0.563-1.125l-0.156 0.344c-0.013-0.027-0.563-1.094-0.563-1.094l-0.188 0.375-0.563-1.125-0.188 0.375c-0.014-0.028-0.563-1.125-0.563-1.125l-0.188 0.375c-0.014-0.028-0.563-1.125-0.563-1.125l-0.188 0.375c-0.014-0.029-0.563-1.125-0.563-1.125l-0.188 0.375c-0.014-0.029-0.563-1.125-0.563-1.125l-0.188 0.375-0.563-1.125-0.188 0.375c-0.015-0.029-0.563-1.125-0.563-1.125l-0.188 0.375c-0.015-0.029-0.563-1.125-0.563-1.125l-0.188 0.375c-0.015-0.03-0.563-1.125-0.563-1.125l-0.188 0.375c-0.015-0.03-0.563-1.125-0.563-1.125l-0.188 0.375-0.563-1.125-0.188 0.375c-0.015-0.03-0.563-1.125-0.563-1.125l-0.188 0.375c-0.015-0.029-0.563-1.094-0.563-1.094l-0.188 0.375c-0.015-0.031-0.563-1.125-0.563-1.125l-0.188 0.375c-0.015-0.031-0.563-1.125-0.563-1.125l-0.188 0.375c-0.016-0.031-0.563-1.125-0.563-1.125l-0.156 0.344c-0.015-0.03-0.563-1.094-0.563-1.094l-0.188 0.375-0.563-1.125-0.188 0.375c-0.016-0.032-0.563-1.125-0.563-1.125l-0.188 0.375c-0.016-0.032-0.563-1.125-0.563-1.125l-0.188 0.375c-0.016-0.032-0.563-1.125-0.563-1.125l-0.188 0.375c-0.016-0.032-0.563-1.125-0.563-1.125l-0.188 0.375-0.563-1.125-0.188 0.375c-0.016-0.033-0.563-1.125-0.563-1.125l-0.188 0.375c-0.017-0.033-0.563-1.125-0.563-1.125l-0.188 0.375c-0.017-0.033-0.563-1.125-0.563-1.125l-0.188 0.375c-0.017-0.034-0.563-1.125-0.563-1.125l-0.188 0.375-0.563-1.125-0.188 0.375c-0.017-0.034-0.563-1.125-0.563-1.125l-0.188 0.375c-0.017-0.033-0.563-1.094-0.563-1.094l-0.188 0.375c-0.017-0.035-0.563-1.125-0.563-1.125l-0.188 0.375c-0.018-0.035-0.563-1.125-0.563-1.125l-0.188 0.375-0.563-1.125-0.156 0.344c-0.017-0.034-0.563-1.094-0.563-1.094l-0.188 0.375c-0.018-0.036-0.563-1.125-0.563-1.125l-0.188 0.375c-0.018-0.036-0.563-1.125-0.563-1.125l-0.188 0.375c-0.018-0.036-0.563-1.125-0.563-1.125l-0.188 0.375c-0.018-0.037-0.563-1.125-0.563-1.125l-0.188 0.375c-0.019-0.037-0.563-1.125-0.563-1.125l-0.188 0.375c-0.019-0.037-0.563-1.125-0.563-1.125l-0.188 0.375c-0.019-0.038-0.563-1.125-0.563-1.125l-0.188 0.375c-0.019-0.038-0.563-1.125-0.563-1.125l-0.188 0.375-0.563-1.125-0.188 0.375c-0.019-0.039-0.563-1.125-0.563-1.125l-0.188 0.375-0.563-1.125-0.188 0.375c-0.02-0.039-0.563-1.125-0.563-1.125l-0.188 0.375c-0.019-0.038-0.563-1.094-0.563-1.094l-0.188 0.375-0.563-1.125-0.188 0.375c-0.02-0.04-0.563-1.125-0.563-1.125l-0.156 0.344c-0.02-0.039-0.563-1.094-0.563-1.094l-0.188 0.375c-0.021-0.041-0.563-1.125-0.563-1.125l-0.188 0.375c-0.021-0.042-0.563-1.125-0.563-1.125l-0.188 0.375c-0.021-0.042-0.563-1.125-0.563-1.125l-0.188 0.375c-0.021-0.042-0.563-1.125-0.563-1.125l-0.188 0.375-0.563-1.125-0.188 0.375c-0.022-0.043-0.563-1.125-0.563-1.125l-0.188 0.375c-0.022-0.044-0.563-1.125-0.563-1.125l-0.188 0.375c-0.022-0.044-0.563-1.125-0.563-1.125l-0.188 0.375c-0.022-0.045-0.563-1.125-0.563-1.125l-0.188 0.375-0.563-1.125-0.188 0.375c-0.023-0.045-0.563-1.125-0.563-1.125l-0.188 0.375c-0.023-0.046-0.563-1.125-0.563-1.125l-0.188 0.375c-0.022-0.044-0.563-1.094-0.563-1.094l-0.188 0.375c-0.023-0.047-0.563-1.125-0.563-1.125l-0.188 0.375-0.563-1.125-0.188 0.375c-0.024-0.048-0.563-1.125-0.563-1.125l-0.156 0.344-0.563-1.094-0.188 0.375c-0.025-0.049-0.563-1.125-0.563-1.125l-0.188 0.375c-0.025-0.05-0.563-1.125-0.563-1.125l-0.188 0.375-0.563-1.125-0.188 0.375c-0.025-0.051-0.563-1.125-0.563-1.125l-0.188 0.375c-0.026-0.051-0.563-1.125-0.563-1.125l-0.188 0.375c-0.026-0.052-0.563-1.125-0.563-1.125l-0.188 0.375c-0.026-0.052-0.563-1.125-0.563-1.125l-0.188 0.375c-0.027-0.053-0.563-1.125-0.563-1.125l-0.188 0.375c-0.027-0.054-0.563-1.125-0.563-1.125l-0.188 0.375c-0.027-0.054-0.563-1.125-0.563-1.125l-0.188 0.375c-0.028-0.055-0.563-1.125-0.563-1.125l-0.188 0.375c-0.028-0.056-0.563-1.125-0.563-1.125l-0.188 0.375c-0.027-0.054-0.563-1.094-0.563-1.094l-0.188 0.375c-0.029-0.057-0.563-1.125-0.563-1.125l-0.188 0.375c-0.029-0.058-0.563-1.125-0.563-1.125l-0.188 0.375c-0.029-0.059-0.563-1.125-0.563-1.125l-0.156 0.344c-0.029-0.057-0.563-1.094-0.563-1.094l-0.188 0.375c-0.03-0.06-0.563-1.125-0.563-1.125l-0.188 0.375c-0.031-0.061-0.563-1.125-0.563-1.125l-0.188 0.375c-0.031-0.062-0.563-1.125-0.563-1.125l-0.188 0.375c-0.032-0.063-0.563-1.125-0.563-1.125l-0.188 0.375c-0.032-0.064-0.563-1.125-0.563-1.125l-0.188 0.375c-0.032-0.065-0.563-1.125-0.563-1.125l-0.188 0.375c-0.033-0.066-0.563-1.125-0.563-1.125l-0.188 0.375c-0.033-0.067-0.563-1.125-0.563-1.125l-0.188 0.375c-0.034-0.068-0.563-1.125-0.563-1.125l-0.188 0.375c-0.034-0.069-0.563-1.125-0.563-1.125l-0.188 0.375c-0.035-0.07-0.563-1.125-0.563-1.125l-0.188 0.375c-0.036-0.071-0.563-1.125-0.563-1.125l-0.188 0.375c-0.035-0.069-0.563-1.094-0.563-1.094l-0.188 0.375c-0.037-0.073-0.563-1.125-0.563-1.125l-0.188 0.375c-0.037-0.075-0.563-1.125-0.563-1.125l-0.188 0.375-0.563-1.125-0.156 0.344c-0.037-0.074-0.563-1.094-0.563-1.094l-0.188 0.375-0.563-1.125-0.188 0.375c-0.04-0.08-0.563-1.125-0.563-1.125l-0.188 0.375-0.563-1.125-0.188 0.375-0.563-1.125-0.188 0.375c-0.042-0.085-0.563-1.125-0.563-1.125l-0.188 0.375-0.563-1.125-0.188 0.375c-0.044-0.088-0.563-1.125-0.563-1.125l-0.188 0.375-0.563-1.125-0.188 0.375c-0.046-0.092-0.563-1.125-0.563-1.125l-0.188 0.375c-0.047-0.094-0.563-1.125-0.563-1.125l-0.188 0.375-0.563-1.125-0.188 0.375c-0.047-0.094-0.563-1.094-0.563-1.094l-0.188 0.375-0.563-1.125-0.188 0.375c-0.051-0.102-0.563-1.125-0.563-1.125l-0.188 0.375-0.563-1.125-0.156 0.344-0.563-1.094-0.188 0.375c-0.055-0.11-0.563-1.125-0.563-1.125l-0.188 0.375c-0.057-0.113-0.563-1.125-0.563-1.125l-0.188 0.375c-0.058-0.116-0.563-1.125-0.563-1.125l-0.188 0.375c-0.06-0.119-0.563-1.125-0.563-1.125l-0.188 0.375c-0.061-0.122-0.563-1.125-0.563-1.125l-0.188 0.375c-0.063-0.126-0.563-1.125-0.563-1.125l-0.188 0.375c-0.065-0.129-0.563-1.125-0.563-1.125l-0.188 0.375c-0.067-0.133-0.563-1.125-0.563-1.125l-0.188 0.375c-0.069-0.137-0.563-1.125-0.563-1.125l-0.188 0.375c-0.071-0.142-0.563-1.125-0.563-1.125l-0.188 0.375c-0.073-0.146-0.563-1.125-0.563-1.125l-0.188 0.375c-0.076-0.151-0.563-1.125-0.563-1.125l-0.188 0.375c-0.075-0.15-0.563-1.094-0.563-1.094l-0.188 0.375c-0.081-0.162-0.563-1.125-0.563-1.125l-0.188 0.375c-0.084-0.168-0.563-1.125-0.563-1.125l-0.188 0.375c-0.088-0.175-0.563-1.125-0.563-1.125l-0.156 0.344c-0.088-0.175-0.563-1.094-0.563-1.094l-0.188 0.375c-0.095-0.191-0.563-1.125-0.563-1.125l-0.188 0.375c-0.1-0.2-0.563-1.125-0.563-1.125l-0.188 0.375c-0.104-0.208-0.563-1.125-0.563-1.125l-0.188 0.375c-0.109-0.218-0.563-1.125-0.563-1.125l-0.188 0.375c-0.115-0.229-0.563-1.125-0.563-1.125l-0.188 0.375c-0.121-0.242-0.563-1.125-0.563-1.125l-0.188 0.375c-0.128-0.255-0.563-1.125-0.563-1.125l-0.188 0.375c-0.135-0.27-0.563-1.125-0.563-1.125l-0.188 0.375c-0.144-0.287-0.563-1.125-0.563-1.125l-0.188 0.375c-0.154-0.307-0.563-1.125-0.563-1.125l-0.188 0.375c-0.164-0.328-0.563-1.125-0.563-1.125l-0.188 0.375c-0.176-0.352-0.563-1.125-0.563-1.125l-0.188 0.375c-0.186-0.371-0.563-1.094-0.563-1.094l-0.188 0.375c-0.209-0.417-0.563-1.125-0.563-1.125l-0.188 0.375-0.563-1.125-0.188 0.375c-0.246-0.492-0.563-1.125-0.563-1.125l-0.188 0.344-0.531-1.094-0.188 0.375-0.563-1.125-0.188 0.375c-0.255-0.509-0.563-1.125-0.563-1.125l-0.188 0.375-0.563-1.125-0.188 0.375-0.281-0.563c-0.001-0.001-0.281-0.563-0.281-0.563l-0.188 0.375-0.563-1.125"/>
 <g id="g8" fill-rule="evenodd">
  <path id="path10" fill-opacity="0.067" d="m256 1c-140.83 0-255 114.17-255 255s114.17 255 255 255 255-114.17 255-255-114.17-255-255-255m8.827 44.931c120.9 0 218.9 98 218.9 218.9s-98 218.9-218.9 218.9-218.93-98-218.93-218.9 98.03-218.9 218.93-218.9"/>
  <g id="g12" fill-opacity="0.129">
   <path id="path14" d="m256 4.433c-138.94 0-251.57 112.63-251.57 251.57s112.63 251.57 251.57 251.57 251.57-112.63 251.57-251.57-112.63-251.57-251.57-251.57m5.885 38.556c120.9 0 218.9 98 218.9 218.9s-98 218.9-218.9 218.9-218.93-98-218.93-218.9 98.03-218.9 218.93-218.9"/>
   <path id="path16" d="m256 8.356c-136.77 0-247.64 110.87-247.64 247.64s110.87 247.64 247.64 247.64 247.64-110.87 247.64-247.64-110.87-247.64-247.64-247.64m2.942 31.691c120.9 0 218.9 98 218.9 218.9s-98 218.9-218.9 218.9-218.93-98-218.93-218.9 98.03-218.9 218.93-218.9"/>
  </g>
  <path id="path18" d="m253.04 7.859c-135.42 0-245.19 109.78-245.19 245.19 0 135.42 109.78 245.19 245.19 245.19 135.42 0 245.19-109.78 245.19-245.19 0-135.42-109.78-245.19-245.19-245.19zm0 26.297c120.9 0 218.9 98 218.9 218.9s-98 218.9-218.9 218.9-218.93-98-218.93-218.9 98.03-218.9 218.93-218.9z" stroke-opacity="0.31" stroke="#000" stroke-width="4.904" fill="#fff"/>
 </g>
 <path id="path66" fill="#fff" d="m255.97 115.72 9.563 110.97 7.75-7.06 8.125 96.31-78.62-32.12 62.688-57.06-9.5-111.03l-115 229.69h230.06l-115.05-229.69"/>
</svg>
