<?xml version="1.0" encoding="UTF-8" standalone="no"?>
<svg xmlns="http://www.w3.org/2000/svg" height="512" viewBox="0 0 512 512" width="512" version="1.1">
 <metadata id="metadata86"/>
 <g id="g4" transform="translate(0,-540.36)">
  <path id="path6" d="m471.95 793.41c0 120.9-98.01 218.9-218.9 218.9-120.9 0-218.9-98.01-218.9-218.9 0-120.9 98.01-218.9 218.9-218.9 120.9 0 218.9 98.01 218.9 218.9" fill-rule="evenodd" fill="#BF9E73"/>
  <path id="path8" d="m354.63 123.53c-11.753-0.093-20.228 7.181-32.781 20.25-26.962 32.609-46.869 69.961-63.06 108.38-1.116-0.804-2.568-1.134-4-0.75-1.43 0.383-2.529 1.404-3.094 2.656-33.24-25.18-69.18-47.55-108.84-62.31-24.22-7.01-35.969-8.264-50.34 9.813-17.277 25.715-12.345 58.47-7.781 89.19 0.229-0.474 0.43-0.907 0.656-1.375 0.117 0.789 0.227 1.589 0.344 2.375 0.229-0.474 0.43-0.907 0.656-1.375 0.117 0.789 0.227 1.589 0.344 2.375 0.229-0.474 0.43-0.907 0.656-1.375 0.117 0.787 0.227 1.591 0.344 2.375 0.219-0.453 0.409-0.866 0.625-1.313 0.112 0.758 0.231 1.525 0.344 2.281 0.226-0.466 0.434-0.884 0.656-1.344 0.115 0.779 0.228 1.567 0.344 2.344 0.226-0.467 0.434-0.883 0.656-1.344 0.115 0.779 0.228 1.567 0.344 2.344 0.229-0.474 0.43-0.907 0.656-1.375 0.117 0.789 0.227 1.589 0.344 2.375 0.229-0.474 0.43-0.907 0.656-1.375 0.117 0.789 0.227 1.589 0.344 2.375 0.229-0.474 0.43-0.907 0.656-1.375 0.117 0.787 0.227 1.591 0.344 2.375 0.221-0.457 0.438-0.862 0.656-1.313 0.112 0.757 0.2 1.526 0.313 2.281 0.226-0.466 0.434-0.884 0.656-1.344 0.115 0.779 0.228 1.567 0.344 2.344 0.226-0.466 0.434-0.884 0.656-1.344 0.115 0.779 0.228 1.567 0.344 2.344 0.229-0.474 0.43-0.907 0.656-1.375 0.117 0.789 0.227 1.589 0.344 2.375 0.229-0.474 0.43-0.907 0.656-1.375 0.117 0.789 0.227 1.589 0.344 2.375 0.229-0.474 0.43-0.907 0.656-1.375 0.117 0.789 0.227 1.589 0.344 2.375 0.221-0.457 0.438-0.862 0.656-1.313 0.112 0.757 0.2 1.526 0.313 2.281 0.226-0.466 0.434-0.884 0.656-1.344 0.115 0.779 0.228 1.567 0.344 2.344 0.226-0.466 0.434-0.884 0.656-1.344 0.115 0.779 0.228 1.567 0.344 2.344 0.229-0.474 0.43-0.907 0.656-1.375 0.117 0.789 0.227 1.589 0.344 2.375 0.229-0.474 0.43-0.907 0.656-1.375 0.117 0.789 0.227 1.589 0.344 2.375 0.229-0.474 0.43-0.907 0.656-1.375 0.117 0.789 0.227 1.589 0.344 2.375 0.221-0.457 0.438-0.862 0.656-1.313 0.112 0.757 0.2 1.526 0.313 2.281 0.226-0.466 0.434-0.884 0.656-1.344 0.115 0.779 0.228 1.567 0.344 2.344 0.226-0.466 0.434-0.884 0.656-1.344 0.115 0.779 0.228 1.567 0.344 2.344 0.226-0.467 0.434-0.883 0.656-1.344 0.115 0.779 0.228 1.567 0.344 2.344 0.229-0.474 0.43-0.907 0.656-1.375 0.117 0.789 0.227 1.589 0.344 2.375 0.229-0.474 0.43-0.907 0.656-1.375 0.117 0.789 0.227 1.589 0.344 2.375 0.229-0.474 0.43-0.907 0.656-1.375 0.117 0.787 0.227 1.591 0.344 2.375 0.219-0.452 0.409-0.866 0.625-1.313 0.112 0.758 0.231 1.525 0.344 2.281 0.226-0.466 0.434-0.884 0.656-1.344 0.115 0.779 0.228 1.567 0.344 2.344 0.226-0.466 0.434-0.884 0.656-1.344 0.115 0.779 0.228 1.567 0.344 2.344 0.229-0.474 0.43-0.907 0.656-1.375 0.117 0.789 0.227 1.589 0.344 2.375 0.229-0.474 0.43-0.907 0.656-1.375 0.117 0.789 0.227 1.589 0.344 2.375 0.229-0.474 0.43-0.907 0.656-1.375 0.117 0.787 0.227 1.591 0.344 2.375 0.221-0.457 0.438-0.862 0.656-1.313 0.112 0.757 0.2 1.526 0.313 2.281 0.226-0.466 0.434-0.884 0.656-1.344 0.115 0.779 0.228 1.567 0.344 2.344 0.226-0.466 0.434-0.884 0.656-1.344 0.115 0.779 0.228 1.567 0.344 2.344 0.229-0.474 0.43-0.907 0.656-1.375 0.117 0.789 0.227 1.589 0.344 2.375 0.229-0.474 0.43-0.907 0.656-1.375 0.117 0.789 0.227 1.589 0.344 2.375 0.229-0.474 0.43-0.907 0.656-1.375 0.117 0.789 0.227 1.589 0.344 2.375 0.221-0.457 0.438-0.862 0.656-1.313 0.112 0.757 0.2 1.526 0.313 2.281 0.226-0.466 0.434-0.884 0.656-1.344 0.115 0.779 0.228 1.567 0.344 2.344 0.226-0.466 0.434-0.884 0.656-1.344 0.112 0.758 0.231 1.525 0.344 2.281-10.799-3.916-22.1-11.691-37.19-21.938 8.645 21.892 17.675 44.896 33.656 60.688 0.329 0.337 0.665 0.669 1 1 0.329 0.337 0.665 0.669 1 1 0.359 0.368 0.727 0.733 1.094 1.094 0.371 0.379 0.746 0.754 1.125 1.125 0.083 0.084 0.166 0.166 0.25 0.25 0.335 0.325 0.659 0.65 1 0.969 0.207 0.209 0.415 0.419 0.625 0.625 0.294 0.301 0.576 0.611 0.875 0.906 0.329 0.337 0.665 0.669 1 1 0.359 0.368 0.727 0.733 1.094 1.094 0.371 0.379 0.746 0.754 1.125 1.125 0.083 0.084 0.166 0.166 0.25 0.25 0.335 0.325 0.659 0.65 1 0.969 0.207 0.209 0.415 0.419 0.625 0.625 0.294 0.301 0.576 0.611 0.875 0.906 0.329 0.337 0.665 0.669 1 1 0.359 0.368 0.727 0.733 1.094 1.094 0.262 0.268 0.546 0.517 0.813 0.781 0.515 0.53 1.032 1.048 1.563 1.563 0.207 0.209 0.415 0.419 0.625 0.625 0.294 0.301 0.576 0.611 0.875 0.906 0.329 0.337 0.665 0.669 1 1 0.359 0.368 0.727 0.733 1.094 1.094 0.328 0.335 0.666 0.671 1 1 0.274 0.28 0.566 0.537 0.844 0.813 0.381 0.392 0.767 0.773 1.156 1.156 0.294 0.301 0.576 0.611 0.875 0.906 0.329 0.337 0.665 0.669 1 1 0.329 0.337 0.665 0.669 1 1 0.359 0.368 0.727 0.733 1.094 1.094 0.371 0.379 0.746 0.754 1.125 1.125 0.083 0.084 0.166 0.166 0.25 0.25 0.335 0.325 0.659 0.65 1 0.969 0.207 0.209 0.415 0.419 0.625 0.625 0.294 0.301 0.576 0.611 0.875 0.906 0.329 0.337 0.665 0.669 1 1 0.359 0.368 0.727 0.733 1.094 1.094 0.262 0.268 0.546 0.517 0.813 0.781 0.515 0.53 1.032 1.048 1.563 1.563 0.207 0.209 0.415 0.419 0.625 0.625 0.294 0.301 0.576 0.611 0.875 0.906 0.329 0.337 0.665 0.669 1 1 0.359 0.368 0.727 0.733 1.094 1.094 0.381 0.39 0.767 0.775 1.156 1.156 0.082 0.083 0.168 0.167 0.25 0.25 0.325 0.315 0.638 0.629 0.969 0.938 0.207 0.209 0.415 0.419 0.625 0.625 0.294 0.301 0.576 0.611 0.875 0.906 0.329 0.337 0.665 0.669 1 1 0.329 0.337 0.665 0.669 1 1 0.359 0.368 0.727 0.733 1.094 1.094 0.371 0.379 0.746 0.754 1.125 1.125 0.083 0.084 0.166 0.166 0.25 0.25 0.335 0.325 0.659 0.65 1 0.969 0.207 0.209 0.415 0.419 0.625 0.625 0.294 0.301 0.576 0.611 0.875 0.906 0.329 0.337 0.665 0.669 1 1 0.359 0.368 0.727 0.733 1.094 1.094 0.371 0.379 0.746 0.754 1.125 1.125 0.083 0.084 0.166 0.166 0.25 0.25 0.335 0.325 0.659 0.65 1 0.969 0.207 0.209 0.415 0.419 0.625 0.625 0.294 0.301 0.576 0.611 0.875 0.906 0.329 0.337 0.665 0.669 1 1 0.359 0.368 0.727 0.733 1.094 1.094 0.262 0.268 0.546 0.517 0.813 0.781 0.515 0.53 1.032 1.048 1.563 1.563 0.207 0.209 0.415 0.419 0.625 0.625 0.294 0.301 0.576 0.611 0.875 0.906 0.329 0.337 0.665 0.669 1 1 0.359 0.368 0.727 0.733 1.094 1.094 0.328 0.335 0.666 0.671 1 1 0.274 0.28 0.566 0.537 0.844 0.813 0.381 0.392 0.767 0.773 1.156 1.156 0.294 0.301 0.576 0.611 0.875 0.906 0.329 0.337 0.665 0.669 1 1 0.329 0.337 0.665 0.669 1 1 0.359 0.368 0.727 0.733 1.094 1.094 0.371 0.379 0.746 0.754 1.125 1.125 0.083 0.084 0.166 0.166 0.25 0.25 0.335 0.325 0.659 0.65 1 0.969 0.207 0.209 0.415 0.419 0.625 0.625 0.294 0.301 0.576 0.611 0.875 0.906 0.329 0.337 0.665 0.669 1 1 0.359 0.368 0.727 0.733 1.094 1.094 0.262 0.268 0.546 0.517 0.813 0.781 0.515 0.53 1.032 1.048 1.563 1.563 0.207 0.209 0.415 0.419 0.625 0.625 0.294 0.301 0.576 0.611 0.875 0.906 0.329 0.337 0.665 0.669 1 1 0.359 0.368 0.727 0.733 1.094 1.094 0.381 0.39 0.767 0.775 1.156 1.156 0.082 0.083 0.168 0.167 0.25 0.25 0.325 0.315 0.638 0.629 0.969 0.938 0.207 0.209 0.415 0.419 0.625 0.625 0.294 0.301 0.576 0.611 0.875 0.906 0.329 0.337 0.665 0.669 1 1 0.329 0.337 0.665 0.669 1 1 0.359 0.368 0.727 0.733 1.094 1.094 0.371 0.379 0.746 0.754 1.125 1.125 0.083 0.084 0.166 0.166 0.25 0.25 0.335 0.325 0.659 0.65 1 0.969 0.207 0.209 0.415 0.419 0.625 0.625 0.294 0.301 0.576 0.611 0.875 0.906 0.329 0.337 0.665 0.669 1 1 0.359 0.368 0.727 0.733 1.094 1.094 0.278 0.284 0.561 0.564 0.844 0.844 10.323 1.493 20.857 2.281 31.594 2.281 120.9 0 218.91-98.01 218.91-218.91 0-10.726-0.76-21.281-2.25-31.594-0.083-0.083-0.166-0.167-0.25-0.25-0.274-0.279-0.534-0.569-0.813-0.844-0.329-0.337-0.665-0.669-1-1-0.359-0.368-0.727-0.733-1.094-1.094-0.262-0.268-0.546-0.517-0.813-0.781-0.52-0.535-1.027-1.074-1.563-1.594-0.223-0.224-0.462-0.435-0.688-0.656-0.274-0.279-0.534-0.569-0.813-0.844-0.329-0.337-0.665-0.669-1-1-0.359-0.368-0.727-0.733-1.094-1.094-0.464-0.475-0.93-0.944-1.406-1.406-0.216-0.217-0.438-0.41-0.656-0.625-0.108-0.102-0.204-0.211-0.313-0.313-0.006-0.005 0.006-0.026 0-0.031-0.223-0.224-0.462-0.435-0.688-0.656-0.274-0.279-0.534-0.569-0.813-0.844-0.329-0.337-0.665-0.669-1-1-0.329-0.337-0.665-0.669-1-1-0.359-0.368-0.727-0.733-1.094-1.094-0.454-0.464-0.909-0.923-1.375-1.375-0.223-0.224-0.462-0.435-0.688-0.656-0.016-0.016-0.015-0.046-0.031-0.063-0.092-0.087-0.189-0.164-0.281-0.25-0.171-0.172-0.327-0.36-0.5-0.531-0.329-0.337-0.665-0.669-1-1-0.329-0.337-0.665-0.669-1-1-0.359-0.368-0.727-0.733-1.094-1.094-0.454-0.464-0.909-0.923-1.375-1.375-0.202-0.203-0.421-0.393-0.625-0.594-0.021-0.021-0.042-0.041-0.063-0.063-0.108-0.102-0.204-0.211-0.313-0.313-0.228-0.23-0.456-0.461-0.688-0.688-0.274-0.279-0.534-0.569-0.813-0.844-0.329-0.337-0.665-0.669-1-1-0.359-0.368-0.727-0.733-1.094-1.094-0.262-0.268-0.546-0.517-0.813-0.781-0.52-0.535-1.027-1.074-1.563-1.594-0.223-0.224-0.462-0.435-0.688-0.656-0.274-0.279-0.534-0.569-0.813-0.844-0.329-0.337-0.665-0.669-1-1-0.359-0.368-0.727-0.733-1.094-1.094-0.328-0.335-0.666-0.671-1-1-0.457-0.467-0.907-0.921-1.375-1.375-0.223-0.224-0.462-0.435-0.688-0.656-0.274-0.279-0.534-0.569-0.813-0.844-0.329-0.337-0.665-0.669-1-1-0.329-0.337-0.665-0.669-1-1-0.359-0.368-0.727-0.733-1.094-1.094-0.454-0.464-0.909-0.923-1.375-1.375-0.202-0.203-0.421-0.393-0.625-0.594-0.021-0.021-0.042-0.041-0.063-0.063-0.108-0.102-0.204-0.211-0.313-0.313-0.228-0.23-0.456-0.461-0.688-0.688-0.274-0.279-0.534-0.569-0.813-0.844-0.329-0.337-0.665-0.669-1-1-0.359-0.368-0.727-0.733-1.094-1.094-0.454-0.464-0.909-0.923-1.375-1.375-0.202-0.203-0.421-0.393-0.625-0.594-0.021-0.021-0.042-0.041-0.063-0.063-0.108-0.102-0.204-0.211-0.313-0.313-0.228-0.23-0.456-0.461-0.688-0.688-0.274-0.279-0.534-0.569-0.813-0.844-0.329-0.337-0.665-0.669-1-1-0.359-0.368-0.727-0.733-1.094-1.094-0.262-0.268-0.546-0.517-0.813-0.781-0.52-0.535-1.027-1.074-1.563-1.594-0.223-0.224-0.462-0.435-0.688-0.656-0.274-0.279-0.534-0.569-0.813-0.844-0.329-0.337-0.665-0.669-1-1-0.359-0.368-0.727-0.733-1.094-1.094-0.328-0.335-0.666-0.671-1-1-0.454-0.464-0.909-0.923-1.375-1.375-0.223-0.224-0.462-0.435-0.688-0.656-0.016-0.016-0.015-0.046-0.031-0.063-0.092-0.087-0.189-0.164-0.281-0.25-0.171-0.172-0.327-0.36-0.5-0.531-0.329-0.337-0.665-0.669-1-1-0.329-0.337-0.665-0.669-1-1-0.359-0.368-0.727-0.733-1.094-1.094-0.454-0.464-0.909-0.923-1.375-1.375-0.202-0.203-0.421-0.393-0.625-0.594-0.021-0.021-0.042-0.041-0.063-0.063-0.108-0.102-0.204-0.211-0.313-0.313-0.228-0.23-0.456-0.461-0.688-0.688-0.274-0.279-0.534-0.569-0.813-0.844-0.329-0.337-0.665-0.669-1-1-0.359-0.368-0.727-0.733-1.094-1.094-0.262-0.268-0.546-0.517-0.813-0.781-0.52-0.535-1.027-1.074-1.563-1.594-0.223-0.224-0.462-0.435-0.688-0.656-0.274-0.279-0.534-0.569-0.813-0.844-0.329-0.337-0.665-0.669-1-1-0.359-0.368-0.727-0.733-1.094-1.094-0.328-0.335-0.666-0.671-1-1-0.457-0.467-0.907-0.921-1.375-1.375-0.202-0.203-0.421-0.393-0.625-0.594-5.316-5.429-11.402-10.07-18.531-13.563-6.04-2.381-11.151-3.557-15.75-3.594m-226.47 208.66c0.077 0.519 0.142 1.045 0.219 1.563-0.278-0.096-0.565-0.18-0.844-0.281 0.214-0.443 0.413-0.844 0.625-1.281m1 1c0.043 0.291 0.082 0.585 0.125 0.875-0.154-0.05-0.315-0.105-0.469-0.156 0.119-0.246 0.226-0.474 0.344-0.719m1 1c0.008 0.052 0.023 0.104 0.031 0.156-0.032-0.01-0.062-0.022-0.094-0.031 0.021-0.043 0.042-0.082 0.063-0.125" fill-opacity="0.235" transform="translate(0,540.36)"/>
  <g id="g10" fill-rule="evenodd">
   <path id="path12" fill-opacity="0.067" d="m256 541.36c-140.83 0-255 114.17-255 255s114.17 255 255 255 255-114.17 255-255-114.17-255-255-255m8.827 44.931c120.9 0 218.9 98 218.9 218.9s-98 218.9-218.9 218.9-218.93-98-218.93-218.9 98.03-218.9 218.93-218.9"/>
   <g id="g14" fill-opacity="0.129">
    <path id="path16" d="m256 544.79c-138.94 0-251.57 112.63-251.57 251.57s112.63 251.54 251.57 251.54 251.57-112.6 251.57-251.54-112.63-251.57-251.57-251.57m5.885 38.556c120.9 0 218.9 98 218.9 218.9s-98 218.9-218.9 218.9-218.93-98-218.93-218.9 98.03-218.9 218.93-218.9"/>
    <path id="path18" d="m256 548.72c-136.77 0-247.64 110.87-247.64 247.64s110.87 247.64 247.64 247.64 247.64-110.87 247.64-247.64-110.87-247.64-247.64-247.64m2.942 31.691c120.9 0 218.9 98 218.9 218.9s-98 218.9-218.9 218.9-218.93-98-218.93-218.9 98.03-218.9 218.93-218.9"/>
   </g>
   <path id="path20" d="m253.04 548.22c-135.42 0-245.19 109.78-245.19 245.19 0 135.42 109.78 245.19 245.19 245.19 135.42 0 245.19-109.78 245.19-245.19 0-135.42-109.78-245.19-245.19-245.19zm0 26.297c120.9 0 218.9 98 218.9 218.9s-98 218.9-218.9 218.9-218.93-98-218.93-218.9 98.03-218.9 218.93-218.9z" stroke-opacity="0.31" stroke="#000" stroke-width="4.904" fill="#fff"/>
  </g>
  <g id="g68" transform="matrix(.90699 -.24303 .24303 .90699 -169.73 136.28)" fill="#fff">
   <g id="g70" transform="matrix(2.4809 0 0 2.4809 -2208.4 -1042.8)">
    <path id="path72" d="m993.99 200.87c23.265-13.184 26.537-13.409 38.39-19.19 18.63-5.558 23.474 0.302 35.86 14.647-1.52-13.244-3.111-27.37-13.13-36.11-7.969-5.898-12.709-4.083-21.971 1.515-15.229 10.829-27.929 24.558-39.14 39.14" transform="translate(0,540.36)"/>
    <path id="path74" d="m992.73 741.24c-23.265-13.184-26.537-13.409-38.39-19.19-18.63-5.558-23.474 0.302-35.86 14.647 1.52-13.244 3.111-27.37 13.13-36.11 7.969-5.898 12.709-4.083 21.971 1.515 15.229 10.829 27.929 24.558 39.14 39.14"/>
    <path id="path76" d="m993.99 741.38c23.265 13.184 26.537 13.409 38.39 19.19 18.63 5.558 23.474-0.302 35.86-14.647-1.52 13.244-3.111 27.37-13.13 36.11-7.969 5.898-12.709 4.083-21.971-1.515-15.229-10.829-27.929-24.558-39.14-39.14"/>
    <path id="path78" d="m992.73 741.38c-23.265 13.184-26.537 13.409-38.39 19.19-18.63 5.558-23.474-0.302-35.86-14.647 1.52 13.244 3.111 27.37 13.13 36.11 7.969 5.898 12.709 4.083 21.971-1.515 15.229-10.829 27.929-24.558 39.14-39.14"/>
   </g>
   <path id="path80" d="m258.85 258.45c0 2.789-2.261 5.05-5.05 5.05s-5.05-2.261-5.05-5.05 2.261-5.05 5.05-5.05 5.05 2.261 5.05 5.05" fill-rule="evenodd" transform="translate(2.199,537.91)"/>
  </g>
 </g>
</svg>
