<?xml version="1.0" encoding="UTF-8" standalone="no"?>
<svg xmlns="http://www.w3.org/2000/svg" xmlns:sodipodi="http://sodipodi.sourceforge.net/DTD/sodipodi-0.dtd" xmlns:inkscape="http://www.inkscape.org/namespaces/inkscape" width="1814.17" height="1814.17" viewBox="0 0 512 512" version="1.1">
 <metadata id="metadata15614"/>
 <g inkscape:label="Layer 1" inkscape:groupmode="layer" id="layer1" transform="translate(0,215.00001)">
  <g id="g15635" transform="matrix(3.7795272,0,0,3.7795272,336.00002,-415.80539)">
   <path d="m 35.970099,120.08258 c 1.778,38.48894 -42.6799425,69.62511 -78.232006,54.59148 C -74.816241,162.87894 -91.440013,119.1195 -71.514241,89.779851 -55.472553,63.123079 -16.695218,52.96837 9.2551155,71.250815 25.442329,81.762976 36.501909,100.56929 35.970099,120.08232 Z" id="path4" inkscape:connector-curvature="0" fill="#BF9E73" fill-rule="evenodd"/>
   <path d="m -37.843365,99.646164 c -8.057621,0.256117 -17.327563,-0.03572 -22.862646,6.961986 -8.617744,9.36572 -5.891213,25.8445 5.042958,32.21302 15.755938,12.48569 31.580668,25.019 47.4027515,37.54702 25.3788305,-6.15156 44.2277505,-29.01156 44.2277505,-56.28217 0,-3.76634 -0.36354,-7.44802 -1.05013,-11.01328 -2.65377,-2.15344 -6.08806,-4.94268 -11.44323,-9.310688 -0.55536,1.144588 -4.34314,-0.42545 -4.96094,0.959118 -1.35493,-0.943243 0.008,0.008 -1.38086,-0.942714 -1.07156,0.495304 -2.65906,0.630764 -4.93606,-0.01667 -0.0318,3.835404 0.0712,7.913684 -0.0661,11.559114 -4.3611285,-3.04694 -0.12912,0.1143 -11.89804945,-9.69856 -1.83462105,-1.52983 -4.30397705,-1.921673 -6.88710405,-1.65365 -5.7192335,0.69427 -3.5517665,9.68719 -5.3990875,10.52539 -4.306887,-3.2602 -0.02143,0.0744 -11.435292,-8.78152 -2.971535,-2.023799 -6.171142,-3.07102 -9.682163,-0.39688 -0.170391,0.73475 -0.664368,1.43907 -1.058333,1.13268 -3.625586,-2.818866 0.0254,0.008 -3.61315,-2.802991" id="path3666" inkscape:connector-curvature="0" opacity="0.25"/>
   <path d="m -21.166677,53.39435 c -37.261272,0 -67.468753,30.20748 -67.468753,67.46875 0,37.26127 30.207481,67.46875 67.468753,67.46875 37.261276,0 67.468756,-30.20748 67.468756,-67.46875 0,-37.26127 -30.20748,-67.46875 -67.468756,-67.46875 m 2.335477,11.887994 c 31.988129,0 57.917299,25.929168 57.917299,57.917296 0,31.98812 -25.92917,57.91729 -57.917299,57.91729 -31.988126,0 -57.925231,-25.92917 -57.925231,-57.91729 0,-31.988128 25.937105,-57.917296 57.925231,-57.917296" id="path25436" inkscape:connector-curvature="0" fill-rule="evenodd" fill-opacity="0.067"/>
   <path d="m -21.166677,54.30187 c -36.761209,0 -66.561232,29.800023 -66.561232,66.56123 0,36.76121 29.800023,66.56123 66.561232,66.56123 36.761206,0 66.561236,-29.80002 66.561236,-66.56123 0,-36.761207 -29.80003,-66.56123 -66.561236,-66.56123 m 1.557073,10.201276 c 31.988123,0 57.917293,25.929168 57.917293,57.917294 0,31.98813 -25.92917,57.91729 -57.917293,57.91729 -31.988126,0 -57.925231,-25.92916 -57.925231,-57.91729 0,-31.988126 25.937105,-57.917294 57.925231,-57.917294" id="path25440" inkscape:connector-curvature="0" fill-rule="evenodd" fill-opacity="0.129"/>
   <path d="m -21.166677,55.341683 c -36.187063,0 -65.521419,29.334356 -65.521419,65.521417 0,36.18707 29.334356,65.52142 65.521419,65.52142 36.187066,0 65.521416,-29.33435 65.521416,-65.52142 0,-36.187061 -29.33435,-65.521417 -65.521416,-65.521417 m 0.778404,8.384911 c 31.988122,0 57.917292,25.929168 57.917292,57.917296 0,31.98812 -25.92917,57.91729 -57.917292,57.91729 -31.988126,0 -57.925231,-25.92917 -57.925231,-57.91729 0,-31.988128 25.937105,-57.917296 57.925231,-57.917296" id="path25442" inkscape:connector-curvature="0" fill-rule="evenodd" fill-opacity="0.129"/>
   <path d="m -21.949843,55.209391 c -35.829877,0 -64.873191,29.04596 -64.873191,64.873189 0,35.82988 29.04596,64.87319 64.873191,64.87319 35.829872,0 64.873192,-29.04596 64.873192,-64.87319 0,-35.829875 -29.04596,-64.873189 -64.873192,-64.873189 z m 0,6.957748 c 31.988126,0 57.917292,25.929168 57.917292,57.917291 0,31.98813 -25.929166,57.9173 -57.917292,57.9173 -31.988127,0 -57.925232,-25.92917 -57.925232,-57.9173 0,-31.988123 25.937105,-57.917291 57.925232,-57.917291 z" id="path25444" inkscape:connector-curvature="0" stroke-opacity="0.31" fill="#ffffff" fill-rule="evenodd" stroke="#000000" stroke-width="1.298"/>
   <path d="m -37.840719,99.64881 -5.974292,0.235479 c -8.202083,0.322791 -11.646959,1.587501 -16.113125,5.921371 -8.630974,8.37142 -7.612063,24.13265 2.021416,31.27111 4.976813,3.68829 10.255251,4.80483 21.505334,4.55348 7.559147,-0.16669 8.929688,-0.5715 10.911417,-3.22792 0.854605,-1.143 0.963084,-1.98437 1.09273,-8.45344 0.07937,-3.95023 0.283104,-7.17814 0.449791,-7.1755 0.169334,0.003 2.505605,3.65655 5.191126,8.12007 4.878916,8.10683 6.479646,9.99331 9.1783955,10.80293 l 0.0026,-0.005 c 2.12725,0.63765 3.468687,0.50536 5.535083,-0.55562 3.22262505,-1.65365 3.62479205,-2.89719 3.62479205,-11.26596 0,-3.91054 0.150812,-7.10142 0.338667,-7.09083 0.185208,0.008 2.46591595,3.57981 5.07206195,7.93485 2.6035,4.3524 5.3922095,8.49577 6.1938965,9.2075 3.725329,3.29406 9.625539,2.52413 11.538479,-1.50548 0.66675,-1.40229 0.75406,-3.74121 0.75406,-20.11891 l 0,-18.531421 -4.96093,0 0,17.388421 c 0,11.12572 -0.16669,17.70327 -0.46567,18.26154 -0.59267,1.1086 -2.75167,1.15623 -3.69623,0.0847 -0.381,-0.43392 -4.4820425,-6.87652 -9.1122515,-14.31661 -4.63020795,-7.44008 -8.691562,-13.80331 -9.024937,-14.14198 -1.44198,-1.46579 -1.595438,-0.13229 -1.595438,13.85888 0,14.33248 -0.06879,14.89869 -1.865313,15.51781 -0.407458,0.14023 -1.143,-0.0291 -1.63777,-0.37571 -0.497417,-0.3466 -4.7095835,-6.77333 -9.3636045,-14.28221 -4.656667,-7.50887 -8.818563,-14.03085 -9.252479,-14.49387 -1.643063,-1.76213 -1.780646,-0.70644 -1.780646,13.64985 0,13.08894 -0.04762,13.92502 -0.859896,14.66057 -0.769938,0.69585 -1.860021,0.76464 -10.257896,0.63235 -9.215438,-0.14287 -9.445626,-0.16933 -11.940647,-1.39435 -2.971271,-1.45786 -5.926667,-4.48205 -7.299854,-7.4639 -0.788458,-1.71185 -0.973667,-2.95804 -0.976313,-6.62517 -0.0026,-4.19893 0.100542,-4.7281 1.484313,-7.54062 1.656292,-3.36021 3.987271,-5.57213 7.567084,-7.18344 1.807104,-0.81227 3.283479,-1.03187 7.966604,-1.18798 l 5.749396,-0.19314 0,-4.971525 z m 50.051228,0.111125 0,9.694335 c 0,5.33135 -0.17727,9.69433 -0.39423,9.69433 -0.21695,0 -2.2965805,-3.29671 -4.6222675,-7.32631 -5.945188,-10.29758 -7.69937495,-12.062355 -11.985626,-12.059709 -2.656416,0.0026 -4.585229,1.098019 -6.0219155,3.421059 -0.957792,1.55046 -1.079501,2.3839 -1.304396,8.93763 l -0.248709,7.22842 -4.423833,-7.65176 c -4.992688,-8.636 -5.376334,-9.16516 -7.747,-10.77647 -1.28323,-0.87048 -2.278063,-1.156233 -4.011084,-1.156233 -2.812521,0.0026 -4.693708,1.053043 -6.183313,3.447523 -1.058333,1.70127 -1.082146,1.98173 -1.232958,13.90914 -0.105833,8.60955 -0.304271,12.26873 -0.674688,12.50421 -0.288395,0.18256 -2.365375,0.33867 -4.614333,0.34131 -5.389563,0.008 -8.47725,-0.91016 -10.623021,-3.16177 -4.34975,-4.56406 -2.632605,-12.13908 3.312583,-14.62087 1.135063,-0.47361 3.135313,-0.6985 6.199188,-0.6985 l 4.524375,0 0,-4.96094 -5.167313,0 c -4.101041,0 -5.675312,0.1905 -7.630583,0.9234 -5.114396,1.91293 -8.498417,6.97177 -8.564563,12.79525 -0.07937,7.14375 3.598333,12.21846 10.12825,13.97529 l 0,-0.005 c 1.653646,0.44185 4.884209,0.6641 9.980084,0.68527 7.006167,0.0265 7.569729,-0.0317 8.003646,-0.84137 0.291042,-0.54505 0.468313,-5.84994 0.468313,-14.11817 0,-13.60488 0.111125,-14.52827 1.801812,-14.82725 1.775354,-0.31486 2.820459,1.05039 11.419417,14.93044 4.918605,7.93485 9.1492915,14.55737 9.4059375,14.71612 0.256646,0.15875 0.645583,0.008 0.859896,-0.33337 0.216958,-0.34132 0.396875,-6.82096 0.402167,-14.39598 0.0053,-10.10709 0.150812,-13.91973 0.547687,-14.31661 0.870479,-0.87048 2.831042,-0.62706 3.820584,0.47361 0.500062,0.55827 4.714875,7.15168 9.36625,14.65527 4.6513735,7.50093 8.6598135,13.76627 8.9111635,13.92237 0.25136,0.15346 0.635,0 0.84932,-0.34131 0.21695,-0.34131 0.39687,-8.28146 0.40216,-17.64242 l 0.005,-17.020643 -4.95829,0 z" id="path18600" inkscape:connector-curvature="0" fill="#ffffff"/>
  </g>
 </g>
</svg>
