<?xml version="1.0" encoding="UTF-8" standalone="no"?>
<svg xmlns="http://www.w3.org/2000/svg" height="512" viewBox="0 0 512 512" width="512" version="1.1">
 <metadata id="metadata72"/>
 <path id="path4" d="m471.95 253.05c0 120.9-98.01 218.9-218.9 218.9-120.9 0-218.9-98.01-218.9-218.9 0-120.9 98.01-218.9 218.9-218.9 120.9 0 218.9 98.01 218.9 218.9" fill-rule="evenodd" fill="#BF9E73"/>
 <path id="path6" fill-opacity="0.235" d="m143.91 142.28c-0.872 0-1.625 0.798-1.625 1.781v91.19c0 0.656 0.331 1.222 0.813 1.531 0.128 0.194 0.283 0.343 0.469 0.469 0.132 0.21 0.303 0.367 0.5 0.5 0.132 0.21 0.303 0.367 0.5 0.5 0.132 0.21 0.303 0.367 0.5 0.5 0.132 0.21 0.303 0.367 0.5 0.5 0.132 0.21 0.303 0.367 0.5 0.5 0.132 0.21 0.303 0.367 0.5 0.5 0.132 0.21 0.303 0.367 0.5 0.5 0.14 0.223 0.319 0.396 0.531 0.531 0.134 0.197 0.306 0.376 0.5 0.5 0.134 0.197 0.306 0.376 0.5 0.5 0.134 0.197 0.306 0.376 0.5 0.5 0.134 0.197 0.306 0.376 0.5 0.5 0.134 0.197 0.306 0.376 0.5 0.5 0.126 0.185 0.29 0.348 0.469 0.469 0.13 0.197 0.311 0.374 0.5 0.5 0.13 0.197 0.311 0.374 0.5 0.5 0.13 0.197 0.311 0.374 0.5 0.5 0.13 0.197 0.311 0.374 0.5 0.5 0.136 0.206 0.3 0.372 0.5 0.5 0.136 0.205 0.301 0.372 0.5 0.5 0.136 0.205 0.301 0.372 0.5 0.5 0.136 0.205 0.301 0.372 0.5 0.5 0.136 0.205 0.301 0.372 0.5 0.5 0.136 0.205 0.301 0.372 0.5 0.5 0.128 0.194 0.283 0.343 0.469 0.469 0.132 0.21 0.303 0.367 0.5 0.5 0.132 0.21 0.303 0.367 0.5 0.5 0.132 0.21 0.303 0.367 0.5 0.5 0.132 0.21 0.303 0.367 0.5 0.5 0.132 0.21 0.303 0.367 0.5 0.5 0.132 0.21 0.303 0.367 0.5 0.5 0.132 0.21 0.303 0.367 0.5 0.5 0.14 0.223 0.319 0.396 0.531 0.531 0.134 0.197 0.306 0.376 0.5 0.5 0.134 0.197 0.306 0.376 0.5 0.5 0.134 0.197 0.306 0.376 0.5 0.5 0.134 0.197 0.306 0.376 0.5 0.5 0.134 0.197 0.306 0.376 0.5 0.5 0.126 0.185 0.29 0.348 0.469 0.469 0.13 0.197 0.311 0.374 0.5 0.5 0.13 0.197 0.311 0.374 0.5 0.5 0.13 0.197 0.311 0.374 0.5 0.5 0.13 0.197 0.311 0.374 0.5 0.5 0.136 0.206 0.3 0.372 0.5 0.5 0.136 0.205 0.301 0.372 0.5 0.5 0.136 0.205 0.301 0.372 0.5 0.5 0.136 0.205 0.301 0.372 0.5 0.5 0.136 0.205 0.301 0.372 0.5 0.5 0.136 0.205 0.301 0.372 0.5 0.5 0.128 0.194 0.283 0.343 0.469 0.469 0.132 0.21 0.303 0.367 0.5 0.5 0.132 0.21 0.303 0.367 0.5 0.5 0.132 0.21 0.303 0.367 0.5 0.5 0.132 0.21 0.303 0.367 0.5 0.5 0.132 0.21 0.303 0.367 0.5 0.5 0.132 0.21 0.303 0.367 0.5 0.5 0.132 0.21 0.303 0.367 0.5 0.5 0.14 0.223 0.319 0.396 0.531 0.531 0.134 0.197 0.306 0.376 0.5 0.5 0.134 0.197 0.306 0.376 0.5 0.5 0.134 0.197 0.306 0.376 0.5 0.5 0.134 0.197 0.306 0.376 0.5 0.5 0.134 0.197 0.306 0.376 0.5 0.5 0.126 0.185 0.29 0.348 0.469 0.469 0.13 0.197 0.311 0.374 0.5 0.5 0.13 0.197 0.311 0.374 0.5 0.5 0.13 0.197 0.311 0.374 0.5 0.5 0.13 0.197 0.311 0.374 0.5 0.5 0.136 0.206 0.3 0.372 0.5 0.5 0.136 0.205 0.301 0.372 0.5 0.5 0.136 0.205 0.301 0.372 0.5 0.5 0.136 0.205 0.301 0.372 0.5 0.5 0.136 0.205 0.301 0.372 0.5 0.5 0.136 0.205 0.301 0.372 0.5 0.5 0.128 0.194 0.283 0.343 0.469 0.469 0.075 0.12 0.151 0.216 0.25 0.313h-37.31c-0.872 0-1.625 0.798-1.625 1.781v91.19c0 0.656 0.331 1.222 0.813 1.531 0.128 0.194 0.283 0.343 0.469 0.469 0.132 0.21 0.303 0.367 0.5 0.5 0.132 0.21 0.303 0.367 0.5 0.5 0.132 0.21 0.303 0.367 0.5 0.5 0.132 0.21 0.303 0.367 0.5 0.5 0.132 0.21 0.303 0.367 0.5 0.5 0.132 0.21 0.303 0.367 0.5 0.5 0.132 0.21 0.303 0.367 0.5 0.5 0.14 0.223 0.319 0.396 0.531 0.531 0.134 0.197 0.306 0.376 0.5 0.5 0.134 0.197 0.306 0.376 0.5 0.5 0.134 0.197 0.306 0.376 0.5 0.5 0.134 0.197 0.306 0.376 0.5 0.5 0.134 0.197 0.306 0.376 0.5 0.5 0.126 0.185 0.29 0.348 0.469 0.469 0.13 0.197 0.311 0.374 0.5 0.5 0.13 0.197 0.311 0.374 0.5 0.5 0.13 0.197 0.311 0.374 0.5 0.5 0.13 0.197 0.311 0.374 0.5 0.5 0.136 0.206 0.3 0.372 0.5 0.5 0.136 0.205 0.301 0.372 0.5 0.5 0.136 0.205 0.301 0.372 0.5 0.5 0.136 0.205 0.301 0.372 0.5 0.5 0.136 0.205 0.301 0.372 0.5 0.5 0.136 0.205 0.301 0.372 0.5 0.5 0.128 0.194 0.283 0.343 0.469 0.469 0.132 0.21 0.303 0.367 0.5 0.5 0.132 0.21 0.303 0.367 0.5 0.5 0.132 0.21 0.303 0.367 0.5 0.5 0.132 0.21 0.303 0.367 0.5 0.5 0.132 0.21 0.303 0.367 0.5 0.5 0.132 0.21 0.303 0.367 0.5 0.5 0.132 0.21 0.303 0.367 0.5 0.5 0.14 0.223 0.319 0.396 0.531 0.531 0.134 0.197 0.306 0.376 0.5 0.5 0.134 0.197 0.306 0.376 0.5 0.5 0.134 0.197 0.306 0.376 0.5 0.5 0.134 0.197 0.306 0.376 0.5 0.5 0.134 0.197 0.306 0.376 0.5 0.5 0.126 0.185 0.29 0.348 0.469 0.469 0.13 0.197 0.311 0.374 0.5 0.5 0.13 0.197 0.311 0.374 0.5 0.5 0.13 0.197 0.311 0.374 0.5 0.5 0.13 0.197 0.311 0.374 0.5 0.5 0.136 0.206 0.3 0.372 0.5 0.5 0.136 0.205 0.301 0.372 0.5 0.5 0.136 0.205 0.301 0.372 0.5 0.5 0.136 0.205 0.301 0.372 0.5 0.5 0.136 0.205 0.301 0.372 0.5 0.5 0.136 0.205 0.301 0.372 0.5 0.5 0.128 0.194 0.283 0.343 0.469 0.469 0.132 0.21 0.303 0.367 0.5 0.5 0.132 0.21 0.303 0.367 0.5 0.5 0.132 0.21 0.303 0.367 0.5 0.5 0.132 0.21 0.303 0.367 0.5 0.5 0.132 0.21 0.303 0.367 0.5 0.5 0.132 0.21 0.303 0.367 0.5 0.5 0.132 0.21 0.303 0.367 0.5 0.5 0.14 0.223 0.319 0.396 0.531 0.531 0.134 0.197 0.306 0.376 0.5 0.5 0.134 0.197 0.306 0.376 0.5 0.5 0.134 0.197 0.306 0.376 0.5 0.5 0.134 0.197 0.306 0.376 0.5 0.5 0.134 0.197 0.306 0.376 0.5 0.5 0.126 0.185 0.29 0.348 0.469 0.469 0.13 0.197 0.311 0.374 0.5 0.5 0.13 0.197 0.311 0.374 0.5 0.5 0.13 0.197 0.311 0.374 0.5 0.5 0.13 0.197 0.311 0.374 0.5 0.5 0.136 0.206 0.3 0.372 0.5 0.5 0.136 0.205 0.301 0.372 0.5 0.5 0.136 0.205 0.301 0.372 0.5 0.5 0.136 0.205 0.301 0.372 0.5 0.5 0.136 0.205 0.301 0.372 0.5 0.5 0.136 0.205 0.301 0.372 0.5 0.5 0.128 0.194 0.283 0.343 0.469 0.469 0.132 0.21 0.303 0.367 0.5 0.5 0.132 0.21 0.303 0.367 0.5 0.5 0.132 0.21 0.303 0.367 0.5 0.5 0.132 0.21 0.303 0.367 0.5 0.5 0.132 0.21 0.303 0.367 0.5 0.5 0.132 0.21 0.303 0.367 0.5 0.5 0.132 0.21 0.303 0.367 0.5 0.5 0.14 0.223 0.319 0.396 0.531 0.531 0.134 0.197 0.306 0.376 0.5 0.5 0.134 0.197 0.306 0.376 0.5 0.5 0.134 0.197 0.306 0.376 0.5 0.5 0.134 0.197 0.306 0.376 0.5 0.5 0.134 0.197 0.306 0.376 0.5 0.5 0.126 0.185 0.29 0.348 0.469 0.469 0.13 0.197 0.311 0.374 0.5 0.5 0.13 0.197 0.311 0.374 0.5 0.5 0.13 0.197 0.311 0.374 0.5 0.5 0.13 0.197 0.311 0.374 0.5 0.5 0.136 0.206 0.3 0.372 0.5 0.5 0.136 0.205 0.301 0.372 0.5 0.5 0.136 0.205 0.301 0.372 0.5 0.5 0.136 0.205 0.301 0.372 0.5 0.5 0.136 0.205 0.301 0.372 0.5 0.5 0.136 0.205 0.301 0.372 0.5 0.5 0.128 0.194 0.283 0.343 0.469 0.469 0.132 0.21 0.303 0.367 0.5 0.5 0.132 0.21 0.303 0.367 0.5 0.5 0.132 0.21 0.303 0.367 0.5 0.5 0.132 0.21 0.303 0.367 0.5 0.5 0.132 0.21 0.303 0.367 0.5 0.5 0.132 0.21 0.303 0.367 0.5 0.5 0.132 0.21 0.303 0.367 0.5 0.5 0.14 0.223 0.319 0.396 0.531 0.531 0.134 0.197 0.306 0.376 0.5 0.5 0.134 0.197 0.306 0.376 0.5 0.5 0.134 0.197 0.306 0.376 0.5 0.5 0.134 0.197 0.306 0.376 0.5 0.5 0.134 0.197 0.306 0.376 0.5 0.5 0.126 0.185 0.29 0.348 0.469 0.469 0.13 0.197 0.311 0.374 0.5 0.5 0.13 0.197 0.311 0.374 0.5 0.5 0.13 0.197 0.311 0.374 0.5 0.5 0.13 0.197 0.311 0.374 0.5 0.5 0.124 0.188 0.291 0.345 0.469 0.469 0.139 0.221 0.321 0.396 0.531 0.531 0.136 0.205 0.301 0.372 0.5 0.5 0.136 0.205 0.301 0.372 0.5 0.5 0.136 0.205 0.301 0.372 0.5 0.5 0.136 0.205 0.301 0.372 0.5 0.5 0.128 0.194 0.283 0.343 0.469 0.469 0.132 0.21 0.303 0.367 0.5 0.5 0.132 0.21 0.303 0.367 0.5 0.5 0.132 0.21 0.303 0.367 0.5 0.5 0.132 0.21 0.303 0.367 0.5 0.5 0.132 0.21 0.303 0.367 0.5 0.5 0.132 0.21 0.303 0.367 0.5 0.5 0.132 0.21 0.303 0.367 0.5 0.5 0.14 0.223 0.319 0.396 0.531 0.531 0.134 0.197 0.306 0.376 0.5 0.5 0.134 0.197 0.306 0.376 0.5 0.5 0.134 0.197 0.306 0.376 0.5 0.5 0.134 0.197 0.306 0.376 0.5 0.5 0.134 0.197 0.306 0.376 0.5 0.5 0.126 0.185 0.29 0.348 0.469 0.469 0.13 0.197 0.311 0.374 0.5 0.5 0.13 0.197 0.311 0.374 0.5 0.5 0.13 0.197 0.311 0.374 0.5 0.5 0.13 0.197 0.311 0.374 0.5 0.5 0.124 0.188 0.291 0.345 0.469 0.469 0.139 0.221 0.321 0.396 0.531 0.531 0.136 0.205 0.301 0.372 0.5 0.5 0.136 0.205 0.301 0.372 0.5 0.5 0.136 0.205 0.301 0.372 0.5 0.5 0.136 0.205 0.301 0.372 0.5 0.5 0.128 0.194 0.283 0.343 0.469 0.469 0.132 0.21 0.303 0.367 0.5 0.5 0.132 0.21 0.303 0.367 0.5 0.5 0.132 0.21 0.303 0.367 0.5 0.5 0.132 0.21 0.303 0.367 0.5 0.5 0.132 0.21 0.303 0.367 0.5 0.5 0.132 0.21 0.303 0.367 0.5 0.5 0.132 0.21 0.303 0.367 0.5 0.5 0.14 0.223 0.319 0.396 0.531 0.531 0.134 0.197 0.306 0.376 0.5 0.5 0.134 0.197 0.306 0.376 0.5 0.5 0.134 0.197 0.306 0.376 0.5 0.5 0.134 0.197 0.306 0.376 0.5 0.5 0.134 0.197 0.306 0.376 0.5 0.5 0.126 0.185 0.29 0.348 0.469 0.469 0.13 0.197 0.311 0.374 0.5 0.5 0.13 0.197 0.311 0.374 0.5 0.5 0.13 0.197 0.311 0.374 0.5 0.5 0.13 0.197 0.311 0.374 0.5 0.5 0.124 0.188 0.291 0.345 0.469 0.469 0.139 0.221 0.321 0.396 0.531 0.531 0.136 0.205 0.301 0.372 0.5 0.5 0.136 0.205 0.301 0.372 0.5 0.5 0.136 0.205 0.301 0.372 0.5 0.5 0.136 0.205 0.301 0.372 0.5 0.5 0.128 0.194 0.283 0.343 0.469 0.469 0.132 0.21 0.303 0.367 0.5 0.5 0.132 0.21 0.303 0.367 0.5 0.5 0.132 0.21 0.303 0.367 0.5 0.5 0.132 0.21 0.303 0.367 0.5 0.5 0.132 0.21 0.303 0.367 0.5 0.5 0.132 0.21 0.303 0.367 0.5 0.5 0.132 0.21 0.303 0.367 0.5 0.5 0.14 0.223 0.319 0.396 0.531 0.531 0.134 0.197 0.306 0.376 0.5 0.5 0.134 0.197 0.306 0.376 0.5 0.5 0.134 0.197 0.306 0.376 0.5 0.5 0.134 0.197 0.306 0.376 0.5 0.5 0.134 0.197 0.306 0.376 0.5 0.5 0.126 0.185 0.29 0.348 0.469 0.469 0.13 0.197 0.311 0.374 0.5 0.5 0.13 0.197 0.311 0.374 0.5 0.5 0.13 0.197 0.311 0.374 0.5 0.5 0.13 0.197 0.311 0.374 0.5 0.5 0.124 0.188 0.291 0.345 0.469 0.469 0.139 0.221 0.321 0.396 0.531 0.531 0.136 0.205 0.301 0.372 0.5 0.5 0.136 0.205 0.301 0.372 0.5 0.5 0.136 0.205 0.301 0.372 0.5 0.5 0.136 0.205 0.301 0.372 0.5 0.5 0.131 0.198 0.279 0.374 0.469 0.5 0.13 0.2 0.31 0.34 0.5 0.469 0.132 0.21 0.303 0.367 0.5 0.5 0.132 0.21 0.303 0.367 0.5 0.5 0.132 0.21 0.303 0.367 0.5 0.5 0.029 0.046 0.061 0.084 0.094 0.125 2.539 0.087 5.065 0.156 7.625 0.156 120.9 0 218.91-98.01 218.91-218.91 0-2.571-0.068-5.138-0.156-7.688-0.051-0.039-0.101-0.091-0.156-0.125-0.136-0.206-0.299-0.378-0.5-0.5-0.136-0.206-0.299-0.378-0.5-0.5-0.136-0.206-0.299-0.378-0.5-0.5-0.117-0.177-0.24-0.321-0.406-0.438-0.124-0.21-0.31-0.367-0.5-0.5-0.124-0.21-0.31-0.367-0.5-0.5-0.125-0.212-0.308-0.366-0.5-0.5-0.125-0.212-0.308-0.366-0.5-0.5-0.125-0.212-0.308-0.366-0.5-0.5-0.125-0.212-0.308-0.366-0.5-0.5-0.125-0.212-0.308-0.366-0.5-0.5-0.125-0.212-0.308-0.366-0.5-0.5-0.125-0.212-0.308-0.366-0.5-0.5-0.133-0.226-0.323-0.395-0.531-0.531-0.128-0.2-0.31-0.376-0.5-0.5-0.128-0.2-0.31-0.376-0.5-0.5-0.139-0.217-0.32-0.405-0.531-0.531-0.136-0.202-0.301-0.38-0.5-0.5-0.136-0.202-0.301-0.38-0.5-0.5-0.136-0.202-0.301-0.38-0.5-0.5-0.136-0.202-0.301-0.38-0.5-0.5-0.136-0.202-0.301-0.38-0.5-0.5-0.136-0.202-0.301-0.38-0.5-0.5-0.136-0.202-0.301-0.38-0.5-0.5-0.13-0.192-0.281-0.35-0.469-0.469-0.133-0.206-0.302-0.375-0.5-0.5-0.133-0.206-0.302-0.375-0.5-0.5-0.133-0.206-0.302-0.375-0.5-0.5-0.118-0.184-0.266-0.317-0.438-0.438-0.124-0.21-0.31-0.367-0.5-0.5-0.124-0.21-0.31-0.367-0.5-0.5-0.125-0.212-0.308-0.366-0.5-0.5-0.125-0.212-0.308-0.366-0.5-0.5-0.125-0.212-0.308-0.366-0.5-0.5-0.125-0.212-0.308-0.366-0.5-0.5-0.125-0.212-0.308-0.366-0.5-0.5-0.125-0.212-0.308-0.366-0.5-0.5-0.125-0.212-0.308-0.366-0.5-0.5-0.133-0.226-0.323-0.395-0.531-0.531-0.128-0.2-0.31-0.376-0.5-0.5-0.128-0.2-0.31-0.376-0.5-0.5-0.139-0.217-0.32-0.405-0.531-0.531-0.136-0.202-0.301-0.38-0.5-0.5-0.136-0.202-0.301-0.38-0.5-0.5-0.136-0.202-0.301-0.38-0.5-0.5-0.136-0.202-0.301-0.38-0.5-0.5-0.136-0.202-0.301-0.38-0.5-0.5-0.136-0.202-0.301-0.38-0.5-0.5-0.136-0.202-0.301-0.38-0.5-0.5-0.134-0.199-0.304-0.349-0.5-0.469-0.136-0.206-0.299-0.378-0.5-0.5-0.136-0.206-0.299-0.378-0.5-0.5-0.136-0.206-0.299-0.378-0.5-0.5-0.117-0.177-0.24-0.321-0.406-0.438-0.124-0.21-0.31-0.367-0.5-0.5-0.124-0.21-0.31-0.367-0.5-0.5-0.125-0.212-0.308-0.366-0.5-0.5-0.125-0.212-0.308-0.366-0.5-0.5-0.125-0.212-0.308-0.366-0.5-0.5-0.125-0.212-0.308-0.366-0.5-0.5-0.125-0.212-0.308-0.366-0.5-0.5-0.125-0.212-0.308-0.366-0.5-0.5-0.125-0.212-0.308-0.366-0.5-0.5-0.133-0.226-0.323-0.395-0.531-0.531-0.128-0.2-0.31-0.376-0.5-0.5-0.128-0.2-0.31-0.376-0.5-0.5-0.139-0.217-0.32-0.405-0.531-0.531-0.136-0.202-0.301-0.38-0.5-0.5-0.136-0.202-0.301-0.38-0.5-0.5-0.136-0.202-0.301-0.38-0.5-0.5-0.136-0.202-0.301-0.38-0.5-0.5-0.136-0.202-0.301-0.38-0.5-0.5-0.136-0.202-0.301-0.38-0.5-0.5-0.136-0.202-0.301-0.38-0.5-0.5-0.13-0.192-0.281-0.35-0.469-0.469-0.133-0.206-0.302-0.375-0.5-0.5-0.133-0.206-0.302-0.375-0.5-0.5-0.133-0.206-0.302-0.375-0.5-0.5-0.118-0.184-0.266-0.317-0.438-0.438-0.124-0.21-0.31-0.367-0.5-0.5-0.124-0.21-0.31-0.367-0.5-0.5-0.125-0.212-0.308-0.366-0.5-0.5-0.125-0.212-0.308-0.366-0.5-0.5-0.125-0.212-0.308-0.366-0.5-0.5-0.125-0.212-0.308-0.366-0.5-0.5-0.125-0.212-0.308-0.366-0.5-0.5-0.125-0.212-0.308-0.366-0.5-0.5-0.125-0.212-0.308-0.366-0.5-0.5-0.133-0.226-0.323-0.395-0.531-0.531-0.128-0.2-0.31-0.376-0.5-0.5-0.128-0.2-0.31-0.376-0.5-0.5-0.139-0.217-0.32-0.405-0.531-0.531-0.136-0.202-0.301-0.38-0.5-0.5-0.136-0.202-0.301-0.38-0.5-0.5-0.136-0.202-0.301-0.38-0.5-0.5-0.136-0.202-0.301-0.38-0.5-0.5-0.136-0.202-0.301-0.38-0.5-0.5-0.136-0.202-0.301-0.38-0.5-0.5-0.136-0.202-0.301-0.38-0.5-0.5-0.134-0.199-0.304-0.349-0.5-0.469-0.136-0.206-0.299-0.378-0.5-0.5-0.136-0.206-0.299-0.378-0.5-0.5-0.136-0.206-0.299-0.378-0.5-0.5-0.117-0.177-0.24-0.321-0.406-0.438-0.124-0.21-0.31-0.367-0.5-0.5-0.124-0.21-0.31-0.367-0.5-0.5-0.125-0.212-0.308-0.366-0.5-0.5-0.125-0.212-0.308-0.366-0.5-0.5-0.125-0.212-0.308-0.366-0.5-0.5-0.125-0.212-0.308-0.366-0.5-0.5-0.125-0.212-0.308-0.366-0.5-0.5-0.125-0.212-0.308-0.366-0.5-0.5-0.125-0.212-0.308-0.366-0.5-0.5-0.133-0.226-0.323-0.395-0.531-0.531-0.128-0.2-0.31-0.376-0.5-0.5-0.128-0.2-0.31-0.376-0.5-0.5-0.139-0.217-0.32-0.405-0.531-0.531-0.136-0.202-0.301-0.38-0.5-0.5-0.136-0.202-0.301-0.38-0.5-0.5-0.136-0.202-0.301-0.38-0.5-0.5-0.136-0.202-0.301-0.38-0.5-0.5-0.136-0.202-0.301-0.38-0.5-0.5-0.136-0.202-0.301-0.38-0.5-0.5-0.136-0.202-0.301-0.38-0.5-0.5-0.13-0.192-0.281-0.35-0.469-0.469-0.133-0.206-0.302-0.375-0.5-0.5-0.133-0.206-0.302-0.375-0.5-0.5-0.133-0.206-0.302-0.375-0.5-0.5-0.118-0.184-0.266-0.317-0.438-0.438-0.124-0.21-0.31-0.367-0.5-0.5-0.124-0.21-0.31-0.367-0.5-0.5-0.125-0.212-0.308-0.366-0.5-0.5-0.125-0.212-0.308-0.366-0.5-0.5-0.125-0.212-0.308-0.366-0.5-0.5-0.125-0.212-0.308-0.366-0.5-0.5-0.125-0.212-0.308-0.366-0.5-0.5-0.125-0.212-0.308-0.366-0.5-0.5-0.125-0.212-0.308-0.366-0.5-0.5-0.125-0.212-0.308-0.366-0.5-0.5-0.133-0.226-0.323-0.395-0.531-0.531-0.128-0.2-0.31-0.376-0.5-0.5-0.139-0.217-0.32-0.405-0.531-0.531-0.136-0.202-0.301-0.38-0.5-0.5-0.136-0.202-0.301-0.38-0.5-0.5-0.136-0.202-0.301-0.38-0.5-0.5-0.136-0.202-0.301-0.38-0.5-0.5-0.136-0.202-0.301-0.38-0.5-0.5-0.136-0.202-0.301-0.38-0.5-0.5-0.136-0.202-0.301-0.38-0.5-0.5-0.134-0.199-0.304-0.349-0.5-0.469-0.136-0.206-0.299-0.378-0.5-0.5-0.136-0.206-0.299-0.378-0.5-0.5-0.136-0.206-0.299-0.378-0.5-0.5-0.142-0.215-0.287-0.408-0.5-0.531-0.114-0.167-0.247-0.295-0.406-0.406-0.124-0.21-0.31-0.367-0.5-0.5-0.125-0.212-0.308-0.366-0.5-0.5-0.125-0.212-0.308-0.366-0.5-0.5-0.125-0.212-0.308-0.366-0.5-0.5-0.125-0.212-0.308-0.366-0.5-0.5-0.125-0.212-0.308-0.366-0.5-0.5-0.125-0.212-0.308-0.366-0.5-0.5-0.125-0.212-0.308-0.366-0.5-0.5-0.125-0.212-0.308-0.366-0.5-0.5-0.133-0.226-0.323-0.395-0.531-0.531-0.128-0.2-0.31-0.376-0.5-0.5-0.139-0.217-0.32-0.405-0.531-0.531-0.136-0.202-0.301-0.38-0.5-0.5-0.136-0.202-0.301-0.38-0.5-0.5-0.136-0.202-0.301-0.38-0.5-0.5-0.136-0.202-0.301-0.38-0.5-0.5-0.136-0.202-0.301-0.38-0.5-0.5-0.136-0.202-0.301-0.38-0.5-0.5-0.136-0.202-0.301-0.38-0.5-0.5-0.136-0.202-0.301-0.38-0.5-0.5-0.13-0.192-0.281-0.35-0.469-0.469-0.133-0.206-0.302-0.375-0.5-0.5-0.133-0.206-0.302-0.375-0.5-0.5-0.143-0.222-0.313-0.405-0.531-0.531-0.114-0.167-0.247-0.295-0.406-0.406-0.124-0.21-0.31-0.367-0.5-0.5-0.125-0.212-0.308-0.366-0.5-0.5-0.125-0.212-0.308-0.366-0.5-0.5-0.125-0.212-0.308-0.366-0.5-0.5-0.125-0.212-0.308-0.366-0.5-0.5-0.125-0.212-0.308-0.366-0.5-0.5-0.125-0.212-0.308-0.366-0.5-0.5-0.125-0.212-0.308-0.366-0.5-0.5-0.125-0.212-0.308-0.366-0.5-0.5-0.133-0.226-0.323-0.395-0.531-0.531-0.128-0.2-0.31-0.376-0.5-0.5-0.139-0.217-0.32-0.405-0.531-0.531-0.136-0.202-0.301-0.38-0.5-0.5-0.136-0.202-0.301-0.38-0.5-0.5-0.136-0.202-0.301-0.38-0.5-0.5-0.136-0.202-0.301-0.38-0.5-0.5-0.136-0.202-0.301-0.38-0.5-0.5-0.136-0.202-0.301-0.38-0.5-0.5-0.136-0.202-0.301-0.38-0.5-0.5-0.136-0.202-0.301-0.38-0.5-0.5-0.134-0.199-0.304-0.349-0.5-0.469-0.136-0.206-0.299-0.378-0.5-0.5-0.136-0.206-0.299-0.378-0.5-0.5-0.136-0.206-0.299-0.378-0.5-0.5-0.117-0.177-0.24-0.321-0.406-0.438-0.279-0.474-0.768-0.781-1.313-0.781h-91.62c-0.872 0-1.563 0.798-1.563 1.781v37.13c-0.078-0.084-0.158-0.154-0.25-0.219-0.124-0.21-0.31-0.367-0.5-0.5-0.124-0.21-0.31-0.367-0.5-0.5-0.125-0.212-0.308-0.366-0.5-0.5-0.125-0.212-0.308-0.366-0.5-0.5-0.125-0.212-0.308-0.366-0.5-0.5-0.125-0.212-0.308-0.366-0.5-0.5-0.125-0.212-0.308-0.366-0.5-0.5-0.125-0.212-0.308-0.366-0.5-0.5-0.125-0.212-0.308-0.366-0.5-0.5-0.125-0.212-0.308-0.366-0.5-0.5-0.133-0.226-0.323-0.395-0.531-0.531-0.128-0.2-0.31-0.376-0.5-0.5-0.139-0.217-0.32-0.405-0.531-0.531-0.136-0.202-0.301-0.38-0.5-0.5-0.136-0.202-0.301-0.38-0.5-0.5-0.136-0.202-0.301-0.38-0.5-0.5-0.136-0.202-0.301-0.38-0.5-0.5-0.136-0.202-0.301-0.38-0.5-0.5-0.136-0.202-0.301-0.38-0.5-0.5-0.136-0.202-0.301-0.38-0.5-0.5-0.136-0.202-0.301-0.38-0.5-0.5-0.13-0.192-0.281-0.35-0.469-0.469-0.133-0.206-0.302-0.375-0.5-0.5-0.133-0.206-0.302-0.375-0.5-0.5-0.143-0.222-0.313-0.405-0.531-0.531-0.114-0.167-0.247-0.295-0.406-0.406-0.124-0.21-0.31-0.367-0.5-0.5-0.125-0.212-0.308-0.366-0.5-0.5-0.125-0.212-0.308-0.366-0.5-0.5-0.125-0.212-0.308-0.366-0.5-0.5-0.125-0.212-0.308-0.366-0.5-0.5-0.125-0.212-0.308-0.366-0.5-0.5-0.125-0.212-0.308-0.366-0.5-0.5-0.125-0.212-0.308-0.366-0.5-0.5-0.125-0.212-0.308-0.366-0.5-0.5-0.133-0.226-0.323-0.395-0.531-0.531-0.128-0.2-0.31-0.376-0.5-0.5-0.139-0.217-0.32-0.405-0.531-0.531-0.136-0.202-0.301-0.38-0.5-0.5-0.136-0.202-0.301-0.38-0.5-0.5-0.136-0.202-0.301-0.38-0.5-0.5-0.136-0.202-0.301-0.38-0.5-0.5-0.136-0.202-0.301-0.38-0.5-0.5-0.136-0.202-0.301-0.38-0.5-0.5-0.136-0.202-0.301-0.38-0.5-0.5-0.136-0.202-0.301-0.38-0.5-0.5-0.134-0.199-0.304-0.349-0.5-0.469-0.136-0.206-0.299-0.378-0.5-0.5-0.136-0.206-0.299-0.378-0.5-0.5-0.142-0.215-0.287-0.408-0.5-0.531-0.114-0.167-0.247-0.295-0.406-0.406-0.124-0.21-0.31-0.367-0.5-0.5-0.125-0.212-0.308-0.366-0.5-0.5-0.125-0.212-0.308-0.366-0.5-0.5-0.125-0.212-0.308-0.366-0.5-0.5-0.125-0.212-0.308-0.366-0.5-0.5-0.125-0.212-0.308-0.366-0.5-0.5-0.125-0.212-0.308-0.366-0.5-0.5-0.125-0.212-0.308-0.366-0.5-0.5-0.125-0.212-0.308-0.366-0.5-0.5-0.133-0.226-0.323-0.395-0.531-0.531-0.128-0.2-0.31-0.376-0.5-0.5-0.139-0.217-0.32-0.405-0.531-0.531-0.136-0.202-0.301-0.38-0.5-0.5-0.136-0.202-0.301-0.38-0.5-0.5-0.136-0.202-0.301-0.38-0.5-0.5-0.136-0.202-0.301-0.38-0.5-0.5-0.136-0.202-0.301-0.38-0.5-0.5-0.136-0.202-0.301-0.38-0.5-0.5-0.136-0.202-0.301-0.38-0.5-0.5-0.136-0.202-0.301-0.38-0.5-0.5-0.13-0.192-0.281-0.35-0.469-0.469-0.133-0.206-0.302-0.375-0.5-0.5-0.133-0.206-0.302-0.375-0.5-0.5-0.133-0.206-0.302-0.375-0.5-0.5-0.118-0.184-0.266-0.317-0.438-0.438-0.279-0.474-0.768-0.781-1.313-0.781h-91.59"/>
 <g id="g8" fill-rule="evenodd">
  <path id="path10" fill-opacity="0.067" d="m256 1c-140.83 0-255 114.17-255 255s114.17 255 255 255 255-114.17 255-255-114.17-255-255-255m8.827 44.931c120.9 0 218.9 98 218.9 218.9s-98 218.9-218.9 218.9-218.93-98-218.93-218.9 98.03-218.9 218.93-218.9"/>
  <g id="g12" fill-opacity="0.129">
   <path id="path14" d="m256 4.433c-138.94 0-251.57 112.63-251.57 251.57s112.63 251.57 251.57 251.57 251.57-112.63 251.57-251.57-112.63-251.57-251.57-251.57m5.885 38.556c120.9 0 218.9 98 218.9 218.9s-98 218.9-218.9 218.9-218.93-98-218.93-218.9 98.03-218.9 218.93-218.9"/>
   <path id="path16" d="m256 8.356c-136.77 0-247.64 110.87-247.64 247.64s110.87 247.64 247.64 247.64 247.64-110.87 247.64-247.64-110.87-247.64-247.64-247.64m2.942 31.691c120.9 0 218.9 98 218.9 218.9s-98 218.9-218.9 218.9-218.93-98-218.93-218.9 98.03-218.9 218.93-218.9"/>
  </g>
  <path id="path18" d="m253.04 7.859c-135.42 0-245.19 109.78-245.19 245.19 0 135.42 109.78 245.19 245.19 245.19 135.42 0 245.19-109.78 245.19-245.19 0-135.42-109.78-245.19-245.19-245.19zm0 26.297c120.9 0 218.9 98 218.9 218.9s-98 218.9-218.9 218.9-218.93-98-218.93-218.9 98.03-218.9 218.93-218.9z" stroke-opacity="0.31" stroke="#000" stroke-width="4.904" fill="#fff"/>
 </g>
 <path id="path66" fill="#fff" d="m143.9 142.27c-0.872 0-1.606 0.801-1.606 1.785v91.2c0 0.984 0.735 1.785 1.606 1.785h91.6c0.872 0 1.562-0.801 1.562-1.785v-91.2c0-0.984-0.69-1.785-1.562-1.785h-91.6m132.64 0c-0.872 0-1.562 0.801-1.562 1.785v91.2c0 0.984 0.69 1.785 1.562 1.785h91.6c0.872 0 1.562-0.801 1.562-1.785v-91.2c0-0.984-0.69-1.785-1.562-1.785h-91.6m-132.64 132.68c-0.872 0-1.606 0.801-1.606 1.785v91.2c0 0.984 0.735 1.785 1.606 1.785h91.6c0.872 0 1.562-0.801 1.562-1.785v-91.2c0-0.984-0.69-1.785-1.562-1.785h-91.6m132.64 0c-0.872 0-1.562 0.801-1.562 1.785v91.2c0 0.984 0.69 1.785 1.562 1.785h91.6c0.872 0 1.562-0.801 1.562-1.785v-91.2c0-0.984-0.69-1.785-1.562-1.785h-91.6"/>
</svg>
