<?xml version="1.0" encoding="UTF-8" standalone="no"?>
<svg
   xmlns:dc="http://purl.org/dc/elements/1.1/"
   xmlns:cc="http://creativecommons.org/ns#"
   xmlns:rdf="http://www.w3.org/1999/02/22-rdf-syntax-ns#"
   xmlns:svg="http://www.w3.org/2000/svg"
   xmlns="http://www.w3.org/2000/svg"
   xmlns:xlink="http://www.w3.org/1999/xlink"
   xmlns:sodipodi="http://sodipodi.sourceforge.net/DTD/sodipodi-0.dtd"
   xmlns:inkscape="http://www.inkscape.org/namespaces/inkscape"
   height="512"
   viewBox="0 0 512 512"
   width="512"
   version="1.1"
   id="svg2"
   inkscape:version="0.91 r13725"
   sodipodi:docname="colorhug-ccmx.svg">
  <sodipodi:namedview
     pagecolor="#ffffff"
     bordercolor="#666666"
     borderopacity="1"
     objecttolerance="10"
     gridtolerance="10"
     guidetolerance="10"
     inkscape:pageopacity="0"
     inkscape:pageshadow="2"
     inkscape:window-width="1680"
     inkscape:window-height="1024"
     id="namedview47"
     showgrid="false"
     inkscape:zoom="0.4609375"
     inkscape:cx="-162.71186"
     inkscape:cy="256"
     inkscape:window-x="0"
     inkscape:window-y="0"
     inkscape:window-maximized="0"
     inkscape:current-layer="svg2" />
  <metadata
     id="metadata70">
    <rdf:RDF>
      <cc:Work
         rdf:about="">
        <dc:format>image/svg+xml</dc:format>
        <dc:type
           rdf:resource="http://purl.org/dc/dcmitype/StillImage" />
      </cc:Work>
    </rdf:RDF>
  </metadata>
  <defs
     id="defs68">
    <linearGradient
       id="ButtonShadow"
       gradientUnits="userSpaceOnUse"
       y1="92.54"
       gradientTransform="scale(1.0059 .99417)"
       x2="0"
       y2="7.02">
      <stop
         id="stop3750-1" />
      <stop
         id="stop3752-6"
         stop-opacity="0.588"
         offset="1" />
    </linearGradient>
    <filter
       id="filter3174"
       color-interpolation-filters="sRGB">
      <feGaussianBlur
         id="feGaussianBlur3176"
         stdDeviation="1.71" />
    </filter>
    <radialGradient
       id="radialGradient21305"
       gradientUnits="userSpaceOnUse"
       cy="64"
       cx="64"
       r="64">
      <stop
         id="stop4218-0"
         stop-color="#fff" />
      <stop
         id="stop4220-2"
         stop-color="#e8e8e8"
         offset="0.688" />
      <stop
         id="stop4222-6"
         stop-color="#686868"
         offset="0.875" />
      <stop
         id="stop4224-6"
         offset="1" />
    </radialGradient>
    <filter
       id="filter3657"
       color-interpolation-filters="sRGB">
      <feGaussianBlur
         id="feGaussianBlur3659"
         stdDeviation="1.14" />
    </filter>
    <clipPath
       id="clipPath3649">
      <rect
         id="rect3651"
         rx="4"
         height="76"
         width="76"
         y="10"
         x="10"
         fill="#fff" />
    </clipPath>
    <clipPath
       id="clipPath3625">
      <path
         id="path3627"
         d="m0 0v96h96v-96h-96zm12 6h72c3.324 0 6 2.676 6 6v72c0 3.324-2.676 6-6 6h-72c-3.324 0-6-2.676-6-6v-72c0-3.324 2.676-6 6-6z" />
    </clipPath>
    <linearGradient
       id="linearGradient3737">
      <stop
         id="stop3739"
         stop-color="#fff" />
      <stop
         id="stop3741"
         stop-color="#fff"
         stop-opacity="0"
         offset="1" />
    </linearGradient>
    <linearGradient
       id="linearGradient31361"
       gradientUnits="userSpaceOnUse"
       x2="0"
       gradientTransform="matrix(5.5614 0 0 5.5614 -68.443 384.26)"
       y1="90"
       y2="5.988">
      <stop
         id="stop3702"
         stop-color="#2276c5" />
      <stop
         id="stop3704"
         stop-color="#68baf4"
         offset="1" />
    </linearGradient>
    <radialGradient
       id="radialGradient31364"
       cx="48"
       xlink:href="#linearGradient3737"
       gradientUnits="userSpaceOnUse"
       cy="90.17"
       r="42"
       gradientTransform="matrix(6.4363 0 0 5.5387 -110.44 -170.79)" />
    <linearGradient
       id="linearGradient31367"
       xlink:href="#linearGradient3737"
       gradientUnits="userSpaceOnUse"
       x2="0"
       gradientTransform="matrix(5.5614 0 0 5.5614 -68.443 -171.89)"
       y1="6"
       y2="63.893" />
    <linearGradient
       id="linearGradient31370"
       gradientUnits="userSpaceOnUse"
       x2="0"
       gradientTransform="matrix(5.5614 0 0 5.5614 -68.443 -171.89)"
       y1="6"
       y2="90.02">
      <stop
         id="stop3639"
         stop-color="#f0f0f0" />
      <stop
         id="stop3641"
         stop-color="#dcdcdc"
         offset="1" />
    </linearGradient>
    <filter
       id="filter3794"
       width="1.384"
       y="-0.192"
       x="-0.192"
       height="1.384"
       color-interpolation-filters="sRGB">
      <feGaussianBlur
         id="feGaussianBlur3796"
         stdDeviation="5.28" />
    </filter>
    <linearGradient
       id="linearGradient3613"
       y2="138.66"
       gradientUnits="userSpaceOnUse"
       y1="20.221"
       x2="0">
      <stop
         id="stop3739-0"
         stop-color="#fff" />
      <stop
         id="stop3741-6"
         stop-color="#fff"
         stop-opacity="0"
         offset="1" />
    </linearGradient>
    <clipPath
       id="clipPath3613">
      <rect
         id="rect3615"
         rx="6"
         height="84"
         width="84"
         y="6"
         x="6"
         fill="#fff" />
    </clipPath>
  </defs>
  <path
     id="path11"
     stroke="#00b2de"
     fill-rule="evenodd"
     fill="#666"
     d="m471.95 253.05c0 120.9-98.01 218.9-218.9 218.9-120.9 0-218.9-98.01-218.9-218.9 0-120.9 98.01-218.9 218.9-218.9 120.9 0 218.9 98.01 218.9 218.9"
     style="fill:#BF9E73;fill-opacity:1" />
  <path
     id="path15"
     d="m256 1c-140.83 0-255 114.17-255 255s114.17 255 255 255 255-114.17 255-255-114.17-255-255-255m8.827 44.931c120.9 0 218.9 98 218.9 218.9s-98 218.9-218.9 218.9-218.93-98-218.93-218.9 98.03-218.9 218.93-218.9"
     fill-rule="evenodd"
     fill-opacity="0.067" />
  <path
     id="path19"
     fill-rule="evenodd"
     fill-opacity="0.129"
     d="m256 4.43c-138.94 0-251.57 112.63-251.57 251.57s112.63 251.57 251.57 251.57 251.57-112.63 251.57-251.57-112.63-251.57-251.57-251.57m5.885 38.556c120.9 0 218.9 98 218.9 218.9s-98 218.9-218.9 218.9-218.93-98-218.93-218.9 98.03-218.9 218.93-218.9" />
  <path
     id="path21"
     fill-rule="evenodd"
     fill-opacity="0.129"
     d="m256 8.36c-136.77 0-247.64 110.87-247.64 247.64s110.87 247.64 247.64 247.64 247.64-110.87 247.64-247.64-110.87-247.64-247.64-247.64m2.942 31.691c120.9 0 218.9 98 218.9 218.9s-98 218.9-218.9 218.9-218.93-98-218.93-218.9 98.03-218.9 218.93-218.9" />
  <path
     id="path23"
     d="m253.04 7.86c-135.42 0-245.19 109.78-245.19 245.19 0 135.42 109.78 245.19 245.19 245.19 135.42 0 245.19-109.78 245.19-245.19 0-135.42-109.78-245.19-245.19-245.19zm0 26.297c120.9 0 218.9 98 218.9 218.9s-98 218.9-218.9 218.9-218.93-98-218.93-218.9 98.03-218.9 218.93-218.9z"
     stroke-opacity="0.31"
     fill-rule="evenodd"
     stroke="#000"
     stroke-width="4.904"
     fill="#fff" />
  <path
     id="path9682"
     opacity="0.25"
     d="m256 114.22c-52.39 0-94.84 42.32-94.84 94.53 0 2.92 0.11 5.77 0.37 8.63-32.56 14.97-55.15 47.79-55.15 85.87 0 26.05 10.55 49.62 27.65 66.72l101.25 101.25c5.87 0.47 11.8 0.72 17.78 0.72 108.98 0 199.35-79.64 216.1-183.91l-144.41-144.41-1.56-1.59c-17.17-17.17-40.94-27.81-67.19-27.81z" />
  <path
     id="path18"
     fill="#fff"
     d="m256 114.22c-52.388 0-94.844 42.324-94.844 94.531 0 2.9191 0.11516 5.7734 0.375 8.625 12.075-5.5513 25.517-8.625 39.688-8.625 6.6357 0 13.156 0.67702 19.406 1.9688-0.0367-0.65509-0.0937-1.3046-0.0937-1.9688 0-19.519 15.883-35.375 35.469-35.375s35.469 15.856 35.469 35.375c0 0.66419-0.0571 1.3136-0.0937 1.9688 6.2511-1.2917 12.739-1.9688 19.375-1.9688 14.171 0 27.644 3.0737 39.719 8.625 0.25984-2.8516 0.375-5.7059 0.375-8.625 0-52.207-42.456-94.531-94.844-94.531zm94.47 103.16c-1.8922 20.784-10.558 39.641-23.75 54.344 11.561 5.8234 19.5 17.74 19.5 31.531 0 19.519-15.851 35.344-35.438 35.344-7.1661 0-13.86-2.1077-19.438-5.75-6.4082 19.41-18.916 36.051-35.312 47.625 15.467 10.913 34.356 17.312 54.75 17.312 52.388 0 94.844-42.324 94.844-94.531 0-38.08-22.599-70.901-55.156-85.875zm-188.94 0c-32.558 14.974-55.156 47.795-55.156 85.875 0 52.207 42.456 94.531 94.844 94.531 20.394 0 39.283-6.399 54.75-17.312-16.396-11.574-28.904-28.215-35.312-47.625-5.5772 3.6423-12.271 5.75-19.438 5.75-19.586 0-35.438-15.825-35.438-35.344 0-13.791 7.9394-25.708 19.5-31.531-13.192-14.702-21.858-33.56-23.75-54.344zm94.47-39.79c-17.259 0-31.156 13.914-31.156 31.156 0 17.243 13.897 31.094 31.156 31.094s31.156-13.851 31.156-31.094-13.897-31.156-31.156-31.156zm-54.78 94.53c-17.259 0-31.125 13.882-31.125 31.125s13.866 31.125 31.125 31.125 31.188-13.882 31.188-31.125-13.929-31.125-31.188-31.125zm109.56 0c-17.259 0-31.188 13.882-31.188 31.125s13.929 31.125 31.188 31.125 31.125-13.882 31.125-31.125-13.866-31.125-31.125-31.125z" />
</svg>
