<?xml version="1.0" encoding="UTF-8" standalone="no"?>
<svg xmlns="http://www.w3.org/2000/svg" height="512" viewBox="0 0 512 512" width="512" version="1.1">
 <metadata id="metadata74"/>
 <g id="g4" fill-rule="evenodd">
  <path id="path6" fill="#BF9E73" d="m471.95 253.05c0 120.9-98.01 218.91-218.91 218.91s-218.91-98.01-218.91-218.91 98.01-218.91 218.91-218.91 218.91 98.01 218.91 218.91"/>
  <path id="path8" fill-opacity="0.067" d="m256 1c-140.83 0-255 114.17-255 255s114.17 255 255 255 255-114.17 255-255-114.17-255-255-255m8.827 44.931c120.9 0 218.9 98 218.9 218.9s-98 218.9-218.9 218.9-218.93-98-218.93-218.9 98.03-218.9 218.93-218.9"/>
  <g id="g10" fill-opacity="0.129">
   <path id="path12" d="m256 4.43c-138.94 0-251.57 112.63-251.57 251.57s112.63 251.57 251.57 251.57 251.57-112.63 251.57-251.57-112.63-251.57-251.57-251.57m5.885 38.556c120.9 0 218.9 98 218.9 218.9s-98 218.9-218.9 218.9-218.93-98-218.93-218.9 98.03-218.9 218.93-218.9"/>
   <path id="path14" d="m256 8.36c-136.77 0-247.64 110.87-247.64 247.64s110.87 247.64 247.64 247.64 247.64-110.87 247.64-247.64-110.87-247.64-247.64-247.64m2.942 31.691c120.9 0 218.9 98 218.9 218.9s-98 218.9-218.9 218.9-218.93-98-218.93-218.9 98.03-218.9 218.93-218.9"/>
  </g>
  <path id="path16" d="m253.04 7.86c-135.42 0-245.19 109.78-245.19 245.19 0 135.42 109.78 245.19 245.19 245.19 135.42 0 245.19-109.78 245.19-245.19 0-135.42-109.78-245.19-245.19-245.19zm0 26.297c120.9 0 218.9 98 218.9 218.9s-98 218.9-218.9 218.9-218.93-98-218.93-218.9 98.03-218.9 218.93-218.9z" stroke-opacity="0.31" stroke="#000" stroke-width="4.904" fill="#fff"/>
 </g>
 <g id="g64" color="#000000">
  <path id="path66" opacity="0.25" d="m248.47 173.38 1.938 5.03c0.331 0.867 0.647 1.721 0.969 2.563 0.011 0.031 0.02 0.063 0.031 0.094 0.708 1.989 1.417 3.979 2.125 5.969l-13.57-13.57h-11.501v41.469l-41.34-41.34h-30.063v7.157l-7.156-7.156h-35.282c-11.822 0-21.438 9.647-21.438 21.469v121.88c0 5.919 2.422 11.297 6.313 15.188l139.38 139.38c4.684 0.299 9.397 0.469 14.156 0.469 120.9 0 218.91-98.01 218.91-218.91 0-9.576-0.62-19.03-1.813-28.28l-51.31-51.31h-11.501l-0.906 2.406c-0.466 1.26-0.941 2.521-1.406 3.781l-6.281-6.281h-42.719l-0.875 2.438c-5.39 15.11-10.766 30.23-16.16 45.34l-47.781-47.781h-42.719"/>
  <path id="path68" fill="#fff" d="m248.47 173.38 1.938 5.03c0.331 0.867 0.647 1.721 0.969 2.563 0.011 0.031 0.02 0.063 0.031 0.094 18.405 51.711 36.835 103.42 55.28 155.13l0.906 2.438h42.5l-1.75-4.938c-18.712-52.64-37.482-105.25-56.25-157.87l-0.906-2.438h-42.719m107.53 0-0.875 2.438c-9.09 25.497-18.19 50.998-27.28 76.5 7.087 19.924 14.179 39.832 21.281 59.75l1.094-3.063c15.207-42.647 30.383-85.29 45.563-127.94 0.011-0.031 0.02-0.063 0.031-0.094 0.322-0.841 0.669-1.696 1-2.563l1.906-5.03h-42.71m-127.53 0.094v165.1h33.22v-105.6l-0.219-0.625c-6.775-18.846-13.647-37.684-20.594-56.47l-0.906-2.406h-11.501m178.84 0-0.906 2.406c-6.946 18.784-13.819 37.623-20.594 56.47l-0.219 0.625v105.59h33.22v-165.1h-11.501m-292.69 0.125c-11.822 0-21.438 9.647-21.438 21.469v121.88c0 11.822 9.615 21.469 21.438 21.469h35.281v-24.598h-11.313v-115.62h11.313v-24.598h-35.282m42.44 0v24.598h30.063v-24.598h-30.063m0 140.22v24.598h30.063v-24.598h-30.063"/>
 </g>
</svg>
