<?xml version="1.0" encoding="UTF-8" standalone="no"?>
<svg xmlns="http://www.w3.org/2000/svg" height="512" viewBox="0 0 512 512" width="512" version="1.1">
 <metadata id="metadata72"/>
 <path id="path4" d="m471.95 253.05c0 120.9-98.01 218.9-218.9 218.9-120.9 0-218.9-98.01-218.9-218.9 0-120.9 98.01-218.9 218.9-218.9 120.9 0 218.9 98.01 218.9 218.9" fill-rule="evenodd" fill="#BF9E73"/>
 <path id="path6" fill-opacity="0.235" d="m153.88 136.34c-6.01 0-10.875 6.292-10.875 14.09v209.13c0 4.605 1.728 8.662 4.375 11.219 0.035 0.038 0.059 0.088 0.094 0.125 0.105 0.099 0.205 0.187 0.313 0.281 0.177 0.196 0.345 0.381 0.531 0.563 0.193 0.212 0.39 0.399 0.594 0.594 0.01 0.011 0.021 0.02 0.031 0.031 0.114 0.107 0.227 0.211 0.344 0.313 0.055 0.061 0.101 0.128 0.156 0.188 0.111 0.105 0.229 0.213 0.344 0.313 0.055 0.061 0.101 0.128 0.156 0.188 0.111 0.105 0.229 0.213 0.344 0.313 0.055 0.061 0.101 0.128 0.156 0.188 0.111 0.105 0.229 0.213 0.344 0.313 0.055 0.061 0.101 0.128 0.156 0.188 0.111 0.105 0.229 0.213 0.344 0.313 0.054 0.06 0.101 0.129 0.156 0.188 0.111 0.105 0.229 0.213 0.344 0.313 0.054 0.06 0.101 0.129 0.156 0.188 0.111 0.105 0.229 0.213 0.344 0.313 0.054 0.06 0.101 0.129 0.156 0.188 0.111 0.105 0.229 0.213 0.344 0.313 0.054 0.06 0.101 0.129 0.156 0.188 0.111 0.105 0.229 0.213 0.344 0.313 0.054 0.06 0.101 0.129 0.156 0.188 0.111 0.105 0.229 0.213 0.344 0.313 0.054 0.06 0.101 0.129 0.156 0.188 0.111 0.105 0.229 0.213 0.344 0.313 0.054 0.06 0.101 0.129 0.156 0.188 0.111 0.105 0.229 0.213 0.344 0.313 0.054 0.06 0.101 0.129 0.156 0.188 0.111 0.105 0.229 0.213 0.344 0.313 0.054 0.06 0.101 0.129 0.156 0.188 0.111 0.105 0.229 0.213 0.344 0.313 0.054 0.06 0.101 0.129 0.156 0.188 0.111 0.105 0.229 0.213 0.344 0.313 0.054 0.06 0.101 0.129 0.156 0.188 0.111 0.105 0.229 0.213 0.344 0.313 0.054 0.06 0.101 0.129 0.156 0.188 0.111 0.105 0.229 0.213 0.344 0.313 0.054 0.06 0.101 0.129 0.156 0.188 0.111 0.105 0.229 0.213 0.344 0.313 0.054 0.06 0.101 0.129 0.156 0.188 0.108 0.102 0.201 0.216 0.313 0.313 0.058 0.065 0.128 0.124 0.188 0.188 0.108 0.102 0.201 0.216 0.313 0.313 0.058 0.065 0.128 0.124 0.188 0.188 0.125 0.118 0.246 0.233 0.375 0.344 0.044 0.049 0.08 0.109 0.125 0.156 0.105 0.099 0.205 0.187 0.313 0.281 0.063 0.071 0.123 0.15 0.188 0.219 0.105 0.099 0.205 0.187 0.313 0.281 0.177 0.196 0.345 0.381 0.531 0.563 0.193 0.212 0.39 0.399 0.594 0.594 0.01 0.011 0.021 0.02 0.031 0.031 0.114 0.107 0.227 0.211 0.344 0.313 0.055 0.061 0.101 0.128 0.156 0.188 0.111 0.105 0.229 0.213 0.344 0.313 0.055 0.061 0.101 0.128 0.156 0.188 0.111 0.105 0.229 0.213 0.344 0.313 0.055 0.061 0.101 0.128 0.156 0.188 0.111 0.105 0.229 0.213 0.344 0.313 0.055 0.061 0.101 0.128 0.156 0.188 0.111 0.105 0.229 0.213 0.344 0.313 0.054 0.06 0.101 0.129 0.156 0.188 0.111 0.105 0.229 0.213 0.344 0.313 0.054 0.06 0.101 0.129 0.156 0.188 0.111 0.105 0.229 0.213 0.344 0.313 0.054 0.06 0.101 0.129 0.156 0.188 0.111 0.105 0.229 0.213 0.344 0.313 0.054 0.06 0.101 0.129 0.156 0.188 0.111 0.105 0.229 0.213 0.344 0.313 0.054 0.06 0.101 0.129 0.156 0.188 0.111 0.105 0.229 0.213 0.344 0.313 0.054 0.06 0.101 0.129 0.156 0.188 0.111 0.105 0.229 0.213 0.344 0.313 0.054 0.06 0.101 0.129 0.156 0.188 0.111 0.105 0.229 0.213 0.344 0.313 0.054 0.06 0.101 0.129 0.156 0.188 0.111 0.105 0.229 0.213 0.344 0.313 0.054 0.06 0.101 0.129 0.156 0.188 0.111 0.105 0.229 0.213 0.344 0.313 0.054 0.06 0.101 0.129 0.156 0.188 0.111 0.105 0.229 0.213 0.344 0.313 0.054 0.06 0.101 0.129 0.156 0.188 0.111 0.105 0.229 0.213 0.344 0.313 0.054 0.06 0.101 0.129 0.156 0.188 0.111 0.105 0.229 0.213 0.344 0.313 0.054 0.06 0.101 0.129 0.156 0.188 0.111 0.105 0.229 0.213 0.344 0.313 0.054 0.06 0.101 0.129 0.156 0.188 0.108 0.102 0.201 0.216 0.313 0.313 0.058 0.065 0.128 0.124 0.188 0.188 0.108 0.102 0.201 0.216 0.313 0.313 0.058 0.065 0.128 0.124 0.188 0.188 0.125 0.118 0.246 0.233 0.375 0.344 0.044 0.049 0.08 0.109 0.125 0.156 0.105 0.099 0.205 0.187 0.313 0.281 0.063 0.071 0.123 0.15 0.188 0.219 0.105 0.099 0.205 0.187 0.313 0.281 0.177 0.196 0.345 0.381 0.531 0.563 0.193 0.212 0.39 0.399 0.594 0.594 0.01 0.011 0.021 0.02 0.031 0.031 0.114 0.107 0.227 0.211 0.344 0.313 0.055 0.061 0.101 0.128 0.156 0.188 0.111 0.105 0.229 0.213 0.344 0.313 0.055 0.061 0.101 0.128 0.156 0.188 0.111 0.105 0.229 0.213 0.344 0.313 0.055 0.061 0.101 0.128 0.156 0.188 0.111 0.105 0.229 0.213 0.344 0.313 0.055 0.061 0.101 0.128 0.156 0.188 0.111 0.105 0.229 0.213 0.344 0.313 0.054 0.06 0.101 0.129 0.156 0.188 0.111 0.105 0.229 0.213 0.344 0.313 0.054 0.06 0.101 0.129 0.156 0.188 0.111 0.105 0.229 0.213 0.344 0.313 0.054 0.06 0.101 0.129 0.156 0.188 0.111 0.105 0.229 0.213 0.344 0.313 0.054 0.06 0.101 0.129 0.156 0.188 0.111 0.105 0.229 0.213 0.344 0.313 0.054 0.06 0.101 0.129 0.156 0.188 0.111 0.105 0.229 0.213 0.344 0.313 0.054 0.06 0.101 0.129 0.156 0.188 0.111 0.105 0.229 0.213 0.344 0.313 0.054 0.06 0.101 0.129 0.156 0.188 0.111 0.105 0.229 0.213 0.344 0.313 0.054 0.06 0.101 0.129 0.156 0.188 0.111 0.105 0.229 0.213 0.344 0.313 0.054 0.06 0.101 0.129 0.156 0.188 0.111 0.105 0.229 0.213 0.344 0.313 0.054 0.06 0.101 0.129 0.156 0.188 0.111 0.105 0.229 0.213 0.344 0.313 0.054 0.06 0.101 0.129 0.156 0.188 0.111 0.105 0.229 0.213 0.344 0.313 0.054 0.06 0.101 0.129 0.156 0.188 0.111 0.105 0.229 0.213 0.344 0.313 0.054 0.06 0.101 0.129 0.156 0.188 0.111 0.105 0.229 0.213 0.344 0.313 0.054 0.06 0.101 0.129 0.156 0.188 0.108 0.102 0.201 0.216 0.313 0.313 0.058 0.065 0.128 0.124 0.188 0.188 0.108 0.102 0.201 0.216 0.313 0.313 0.058 0.065 0.128 0.124 0.188 0.188 0.125 0.118 0.246 0.233 0.375 0.344 0.044 0.049 0.08 0.109 0.125 0.156 0.105 0.099 0.205 0.187 0.313 0.281 0.063 0.071 0.123 0.15 0.188 0.219 0.105 0.099 0.205 0.187 0.313 0.281 0.177 0.196 0.345 0.381 0.531 0.563 0.193 0.212 0.39 0.399 0.594 0.594 0.01 0.011 0.021 0.02 0.031 0.031 0.114 0.107 0.227 0.211 0.344 0.313 0.055 0.061 0.101 0.128 0.156 0.188 0.111 0.105 0.229 0.213 0.344 0.313 0.055 0.061 0.101 0.128 0.156 0.188 0.111 0.105 0.229 0.213 0.344 0.313 0.055 0.061 0.101 0.128 0.156 0.188 0.111 0.105 0.229 0.213 0.344 0.313 0.055 0.061 0.101 0.128 0.156 0.188 0.111 0.105 0.229 0.213 0.344 0.313 0.054 0.06 0.101 0.129 0.156 0.188 0.111 0.105 0.229 0.213 0.344 0.313 0.054 0.06 0.101 0.129 0.156 0.188 0.111 0.105 0.229 0.213 0.344 0.313 0.054 0.06 0.101 0.129 0.156 0.188 0.111 0.105 0.229 0.213 0.344 0.313 0.054 0.06 0.101 0.129 0.156 0.188 0.111 0.105 0.229 0.213 0.344 0.313 0.054 0.06 0.101 0.129 0.156 0.188 0.111 0.105 0.229 0.213 0.344 0.313 0.054 0.06 0.101 0.129 0.156 0.188 0.111 0.105 0.229 0.213 0.344 0.313 0.054 0.06 0.101 0.129 0.156 0.188 0.111 0.105 0.229 0.213 0.344 0.313 0.054 0.06 0.101 0.129 0.156 0.188 0.111 0.105 0.229 0.213 0.344 0.313 0.054 0.06 0.101 0.129 0.156 0.188 0.111 0.105 0.229 0.213 0.344 0.313 0.054 0.06 0.101 0.129 0.156 0.188 0.111 0.105 0.229 0.213 0.344 0.313 0.054 0.06 0.101 0.129 0.156 0.188 0.111 0.105 0.229 0.213 0.344 0.313 0.054 0.06 0.101 0.129 0.156 0.188 0.111 0.105 0.229 0.213 0.344 0.313 0.054 0.06 0.101 0.129 0.156 0.188 0.111 0.105 0.229 0.213 0.344 0.313 0.054 0.06 0.101 0.129 0.156 0.188 0.108 0.102 0.201 0.216 0.313 0.313 0.058 0.065 0.128 0.124 0.188 0.188 0.108 0.102 0.201 0.216 0.313 0.313 0.058 0.065 0.128 0.124 0.188 0.188 0.125 0.118 0.246 0.233 0.375 0.344 0.044 0.049 0.08 0.109 0.125 0.156 0.105 0.099 0.205 0.187 0.313 0.281 0.063 0.071 0.123 0.15 0.188 0.219 0.105 0.099 0.205 0.187 0.313 0.281 0.177 0.196 0.345 0.381 0.531 0.563 0.193 0.212 0.39 0.399 0.594 0.594 0.01 0.011 0.021 0.02 0.031 0.031 0.114 0.107 0.227 0.211 0.344 0.313 0.055 0.061 0.101 0.128 0.156 0.188 0.111 0.105 0.229 0.213 0.344 0.313 0.055 0.061 0.101 0.128 0.156 0.188 0.111 0.105 0.229 0.213 0.344 0.313 0.055 0.061 0.101 0.128 0.156 0.188 0.111 0.105 0.229 0.213 0.344 0.313 0.055 0.061 0.101 0.128 0.156 0.188 0.111 0.105 0.229 0.213 0.344 0.313 0.054 0.06 0.101 0.129 0.156 0.188 0.111 0.105 0.229 0.213 0.344 0.313 0.054 0.06 0.101 0.129 0.156 0.188 0.111 0.105 0.229 0.213 0.344 0.313 0.054 0.06 0.101 0.129 0.156 0.188 0.111 0.105 0.229 0.213 0.344 0.313 0.054 0.06 0.101 0.129 0.156 0.188 0.111 0.105 0.229 0.213 0.344 0.313 0.054 0.06 0.101 0.129 0.156 0.188 0.111 0.105 0.229 0.213 0.344 0.313 0.054 0.06 0.101 0.129 0.156 0.188 0.111 0.105 0.229 0.213 0.344 0.313 0.054 0.06 0.101 0.129 0.156 0.188 0.111 0.105 0.229 0.213 0.344 0.313 0.054 0.06 0.101 0.129 0.156 0.188 0.111 0.105 0.229 0.213 0.344 0.313 0.054 0.06 0.101 0.129 0.156 0.188 0.111 0.105 0.229 0.213 0.344 0.313 0.054 0.06 0.101 0.129 0.156 0.188 0.111 0.105 0.229 0.213 0.344 0.313 0.054 0.06 0.101 0.129 0.156 0.188 0.111 0.105 0.229 0.213 0.344 0.313 0.054 0.06 0.101 0.129 0.156 0.188 0.111 0.105 0.229 0.213 0.344 0.313 0.054 0.06 0.101 0.129 0.156 0.188 0.111 0.105 0.229 0.213 0.344 0.313 0.054 0.06 0.101 0.129 0.156 0.188 0.108 0.102 0.201 0.216 0.313 0.313 0.058 0.065 0.128 0.124 0.188 0.188 0.108 0.102 0.201 0.216 0.313 0.313 0.058 0.065 0.128 0.124 0.188 0.188 0.125 0.118 0.246 0.233 0.375 0.344 0.044 0.049 0.08 0.109 0.125 0.156 0.105 0.099 0.205 0.187 0.313 0.281 0.063 0.071 0.123 0.15 0.188 0.219 0.105 0.099 0.205 0.187 0.313 0.281 0.177 0.196 0.345 0.381 0.531 0.563 0.193 0.212 0.39 0.399 0.594 0.594 0.01 0.011 0.021 0.02 0.031 0.031 0.114 0.107 0.227 0.211 0.344 0.313 0.055 0.061 0.101 0.128 0.156 0.188 0.111 0.105 0.229 0.213 0.344 0.313 0.055 0.061 0.101 0.128 0.156 0.188 0.111 0.105 0.229 0.213 0.344 0.313 0.055 0.061 0.101 0.128 0.156 0.188 0.111 0.105 0.229 0.213 0.344 0.313 0.055 0.061 0.101 0.128 0.156 0.188 0.111 0.105 0.229 0.213 0.344 0.313 0.054 0.06 0.101 0.129 0.156 0.188 0.111 0.105 0.229 0.213 0.344 0.313 0.054 0.06 0.101 0.129 0.156 0.188 0.111 0.105 0.229 0.213 0.344 0.313 0.054 0.06 0.101 0.129 0.156 0.188 0.111 0.105 0.229 0.213 0.344 0.313 0.054 0.06 0.101 0.129 0.156 0.188 0.111 0.105 0.229 0.213 0.344 0.313 0.054 0.06 0.101 0.129 0.156 0.188 0.111 0.105 0.229 0.213 0.344 0.313 0.054 0.06 0.101 0.129 0.156 0.188 0.111 0.105 0.229 0.213 0.344 0.313 0.054 0.06 0.101 0.129 0.156 0.188 0.111 0.105 0.229 0.213 0.344 0.313 0.054 0.06 0.101 0.129 0.156 0.188 0.111 0.105 0.229 0.213 0.344 0.313 0.054 0.06 0.101 0.129 0.156 0.188 0.111 0.105 0.229 0.213 0.344 0.313 0.054 0.06 0.101 0.129 0.156 0.188 0.111 0.105 0.229 0.213 0.344 0.313 0.054 0.06 0.101 0.129 0.156 0.188 0.111 0.105 0.229 0.213 0.344 0.313 0.054 0.06 0.101 0.129 0.156 0.188 0.111 0.105 0.229 0.213 0.344 0.313 0.054 0.06 0.101 0.129 0.156 0.188 0.111 0.105 0.229 0.213 0.344 0.313 0.054 0.06 0.101 0.129 0.156 0.188 0.111 0.105 0.229 0.213 0.344 0.313 0.054 0.06 0.101 0.129 0.156 0.188 0.108 0.102 0.201 0.216 0.313 0.313 0.058 0.065 0.128 0.124 0.188 0.188 0.125 0.118 0.246 0.233 0.375 0.344 0.044 0.049 0.08 0.109 0.125 0.156 0.105 0.099 0.205 0.187 0.313 0.281 0.063 0.071 0.123 0.15 0.188 0.219 0.105 0.099 0.205 0.187 0.313 0.281 0.177 0.196 0.345 0.381 0.531 0.563 0.193 0.212 0.39 0.399 0.594 0.594 0.01 0.011 0.021 0.02 0.031 0.031 0.114 0.107 0.227 0.211 0.344 0.313 0.055 0.061 0.101 0.128 0.156 0.188 0.111 0.105 0.229 0.213 0.344 0.313 0.055 0.061 0.101 0.128 0.156 0.188 0.111 0.105 0.229 0.213 0.344 0.313 0.055 0.061 0.101 0.128 0.156 0.188 0.111 0.105 0.229 0.213 0.344 0.313 0.055 0.061 0.101 0.128 0.156 0.188 0.111 0.105 0.229 0.213 0.344 0.313 0.054 0.06 0.101 0.129 0.156 0.188 0.111 0.105 0.229 0.213 0.344 0.313 0.054 0.06 0.101 0.129 0.156 0.188 0.111 0.105 0.229 0.213 0.344 0.313 0.054 0.06 0.101 0.129 0.156 0.188 0.111 0.105 0.229 0.213 0.344 0.313 0.054 0.06 0.101 0.129 0.156 0.188 0.111 0.105 0.229 0.213 0.344 0.313 0.054 0.06 0.101 0.129 0.156 0.188 0.111 0.105 0.229 0.213 0.344 0.313 0.054 0.06 0.101 0.129 0.156 0.188 0.111 0.105 0.229 0.213 0.344 0.313 0.054 0.06 0.101 0.129 0.156 0.188 0.111 0.105 0.229 0.213 0.344 0.313 0.054 0.06 0.101 0.129 0.156 0.188 0.111 0.105 0.229 0.213 0.344 0.313 0.054 0.06 0.101 0.129 0.156 0.188 0.111 0.105 0.229 0.213 0.344 0.313 0.054 0.06 0.101 0.129 0.156 0.188 0.111 0.105 0.229 0.213 0.344 0.313 0.054 0.06 0.101 0.129 0.156 0.188 0.111 0.105 0.229 0.213 0.344 0.313 0.054 0.06 0.101 0.129 0.156 0.188 0.111 0.105 0.229 0.213 0.344 0.313 0.054 0.06 0.101 0.129 0.156 0.188 0.111 0.105 0.229 0.213 0.344 0.313 0.054 0.06 0.101 0.129 0.156 0.188 0.111 0.105 0.229 0.213 0.344 0.313 0.054 0.06 0.101 0.129 0.156 0.188 0.108 0.102 0.201 0.216 0.313 0.313 0.058 0.065 0.128 0.124 0.188 0.188 0.108 0.102 0.201 0.216 0.313 0.313 0.058 0.065 0.128 0.124 0.188 0.188 0.125 0.118 0.246 0.233 0.375 0.344 0.044 0.049 0.08 0.109 0.125 0.156 0.105 0.099 0.205 0.187 0.313 0.281 0.177 0.196 0.345 0.381 0.531 0.563 0.193 0.212 0.39 0.399 0.594 0.594 0.01 0.011 0.021 0.02 0.031 0.031 0.114 0.107 0.227 0.211 0.344 0.313 0.055 0.061 0.101 0.128 0.156 0.188 0.111 0.105 0.229 0.213 0.344 0.313 0.055 0.061 0.101 0.128 0.156 0.188 0.111 0.105 0.229 0.213 0.344 0.313 0.055 0.061 0.101 0.128 0.156 0.188 0.111 0.105 0.229 0.213 0.344 0.313 0.055 0.061 0.101 0.128 0.156 0.188 0.111 0.105 0.229 0.213 0.344 0.313 0.054 0.06 0.101 0.129 0.156 0.188 0.111 0.105 0.229 0.213 0.344 0.313 0.054 0.06 0.101 0.129 0.156 0.188 0.111 0.105 0.229 0.213 0.344 0.313 0.054 0.06 0.101 0.129 0.156 0.188 0.111 0.105 0.229 0.213 0.344 0.313 0.054 0.06 0.101 0.129 0.156 0.188 0.111 0.105 0.229 0.213 0.344 0.313 0.054 0.06 0.101 0.129 0.156 0.188 0.111 0.105 0.229 0.213 0.344 0.313 0.054 0.06 0.101 0.129 0.156 0.188 0.111 0.105 0.229 0.213 0.344 0.313 0.054 0.06 0.101 0.129 0.156 0.188 0.111 0.105 0.229 0.213 0.344 0.313 0.054 0.06 0.101 0.129 0.156 0.188 0.111 0.105 0.229 0.213 0.344 0.313 0.054 0.06 0.101 0.129 0.156 0.188 0.111 0.105 0.229 0.213 0.344 0.313 0.054 0.06 0.101 0.129 0.156 0.188 0.111 0.105 0.229 0.213 0.344 0.313 0.054 0.06 0.101 0.129 0.156 0.188 0.111 0.105 0.229 0.213 0.344 0.313 0.054 0.06 0.101 0.129 0.156 0.188 0.111 0.105 0.229 0.213 0.344 0.313 0.054 0.06 0.101 0.129 0.156 0.188 0.111 0.105 0.229 0.213 0.344 0.313 0.054 0.06 0.101 0.129 0.156 0.188 0.111 0.105 0.229 0.213 0.344 0.313 0.054 0.06 0.101 0.129 0.156 0.188 0.108 0.102 0.201 0.216 0.313 0.313 0.058 0.065 0.128 0.124 0.188 0.188 0.108 0.102 0.201 0.216 0.313 0.313 0.058 0.065 0.128 0.124 0.188 0.188 0.125 0.118 0.246 0.233 0.375 0.344 0.044 0.049 0.08 0.109 0.125 0.156 0.105 0.099 0.205 0.187 0.313 0.281 0.177 0.196 0.345 0.381 0.531 0.563 0.132 0.145 0.269 0.274 0.406 0.406 1.525 0.031 3.03 0.063 4.563 0.063 120.9 0 218.91-98.01 218.91-218.91 0-4.69-0.147-9.352-0.438-13.969h-0.281v-0.5h-0.5v-0.5h-0.5v-0.5h-0.5v-0.5h-0.5v-0.5h-0.5v-0.5h-0.5v-0.5h-0.5v-0.5h-0.5v-0.5h-0.5v-0.5h-0.5v-0.5h-0.5v-0.5h-0.5v-0.5h-0.5v-0.5h-0.5v-0.5h-0.5v-0.5h-0.5v-0.5h-0.5v-0.5h-0.469v-0.469h-0.5v-0.5h-0.5v-0.5h-0.5v-0.5h-0.5v-0.5h-0.5v-0.5h-0.5v-0.5h-0.5v-0.5h-0.5v-0.5h-0.5v-0.5h-0.5v-0.5h-0.5v-0.5h-0.5v-0.5h-0.5v-0.5h-0.5v-0.5h-0.5v-0.5h-0.5v-0.5h-0.5v-0.5h-0.5v-0.5h-0.5v-0.5h-0.5v-0.5h-0.5v-0.5h-0.5v-0.5h-0.5v-0.5h-0.5v-0.5h-0.469v-0.469h-0.5v-0.5h-0.5v-0.5h-0.5v-0.5h-0.5v-0.5h-0.5v-0.5h-0.5v-0.5h-0.5v-0.5h-0.5v-0.5h-0.5v-0.5h-0.5v-0.5h-0.5v-0.5h-0.5v-0.5h-0.5v-0.5h-0.5v-0.5h-0.5v-0.5h-0.5v-0.5h-0.5v-0.5h-0.5v-0.5h-0.5v-0.5h-0.5v-0.5h-0.5v-0.5h-0.5v-0.5h-0.5v-0.5h-0.5v-0.5h-0.469v-0.469h-0.5v-0.5h-0.5v-0.5h-0.5v-0.5h-0.5v-0.5h-0.5v-0.5h-0.5v-0.5h-0.5v-0.5h-0.5v-0.5h-0.5v-0.5h-0.5v-0.5h-0.5v-0.5h-0.5v-0.5h-0.5v-0.5h-0.5v-0.5h-0.5v-0.5h-0.5v-0.5h-0.5v-0.5h-0.5v-0.5h-0.5v-0.5h-0.5v-0.5h-0.5v-0.5h-0.5v-0.5h-0.5v-0.5h-0.5v-0.5h-0.469v-0.469h-0.5v-0.5h-0.5v-0.5h-0.5v-0.5h-0.5v-0.5h-0.5v-0.5h-0.5v-0.5h-0.5v-0.5h-0.5v-0.5h-0.5v-0.5h-0.5v-0.5h-0.5v-0.5h-0.5v-0.5h-0.5v-0.5h-0.5v-0.5h-0.5v-0.5h-0.5v-0.5h-0.5v-0.5h-0.5v-0.5h-0.5v-0.5h-0.5v-0.5h-0.5v-0.5h-0.5v-0.5h-0.5v-0.5h-0.5v-0.5h-0.469v-0.469h-0.5v-0.5h-0.5v-0.5h-0.5v-0.5h-0.5v-0.5h-0.5v-0.5h-0.5v-0.5h-0.5v-0.5h-0.5v-0.5h-0.5v-0.5h-0.5v-0.5h-0.5v-0.5h-0.5v-0.5h-0.5v-0.5h-0.5v-0.5h-0.5v-0.5h-0.5v-0.5h-0.5v-0.5h-0.5v-0.5h-0.5v-0.5h-0.5v-0.5h-0.5v-0.5h-0.5v-0.5h-0.5v-0.5h-0.5v-0.5h-0.469v-0.469h-0.5v-0.5h-0.5v-0.5h-0.5v-0.5h-0.5v-0.5h-0.5v-0.5h-0.5v-0.5h-0.5v-0.5h-0.5v-0.5h-0.5v-0.5h-0.5v-0.5h-0.5v-0.5h-0.5v-0.5h-0.5v-0.5h-0.5v-0.5h-0.5v-0.5h-0.5v-0.5h-0.5v-0.5h-0.5v-0.5h-0.5v-0.5h-0.5v-0.5h-0.5v-0.5h-0.5v-0.5h-0.5v-0.5h-0.5v-0.5h-0.469v-0.469h-0.5v-0.5h-0.5v-0.5h-0.5v-0.5h-0.5v-0.5h-0.5v-0.5h-0.5v-0.5h-0.5v-0.5h-0.5v-0.5h-0.5v-0.5h-0.5v-0.5h-0.5v-0.5h-0.5v-0.5h-0.5v-0.5h-0.5v-0.5h-0.5v-0.5h-0.5v-0.5h-0.5v-0.5h-0.5v-0.5h-0.5v-0.5h-0.5v-0.5h-0.5v-0.5h-0.5v-0.5h-0.5v-0.5h-0.5v-0.5h-0.469v-0.44h-0.5v-0.5h-0.5v-0.5h-0.5v-0.5h-0.5v-0.5h-0.5v-0.5h-0.5v-0.5h-0.5v-0.5h-0.5v-0.5h-0.5v-0.5h-0.5v-0.5h-0.5v-0.5h-0.5v-0.5h-22.22v13.5h-0.344v-0.5h-0.5v-0.5h-0.5v-0.5h-0.5v-0.5h-0.5v-0.5h-0.5v-0.5h-0.5v-0.5h-0.5v-0.5h-0.5v-0.5h-0.5v-0.5h-0.5v-0.5h-0.5v-0.5h-0.5v-0.5h-0.469v-0.469h-0.5v-0.5h-0.5v-0.5h-0.5v-0.5h-0.5v-0.5h-0.5v-0.5h-0.5v-0.5h-0.5v-0.5h-0.5v-0.5h-0.5v-0.5h-0.5v-0.5h-0.5v-0.5h-0.5v-0.5h-154.34v11.938h-0.344v-0.5h-0.5v-0.5h-0.5v-0.5h-0.5v-0.5h-0.5v-0.5h-0.5v-0.5h-0.5v-0.5h-0.5v-0.5h-0.5v-0.5h-0.5v-0.5h-0.5v-0.5h-0.5v-0.5h-0.469v-0.47h-0.5v-0.5h-0.5v-0.5h-0.5v-0.5h-0.5v-0.5h-0.5v-0.5h-0.5v-0.5h-0.5v-0.5h-0.5v-0.5h-0.5v-0.5h-0.5v-0.5h-0.5v-0.5h-0.5v-0.5h-13.406"/>
 <g id="g8" fill-rule="evenodd">
  <path id="path10" fill-opacity="0.067" d="m256 1c-140.83 0-255 114.17-255 255s114.17 255 255 255 255-114.17 255-255-114.17-255-255-255m8.827 44.931c120.9 0 218.9 98 218.9 218.9s-98 218.9-218.9 218.9-218.93-98-218.93-218.9 98.03-218.9 218.93-218.9"/>
  <g id="g12" fill-opacity="0.129">
   <path id="path14" d="m256 4.433c-138.94 0-251.57 112.63-251.57 251.57s112.63 251.57 251.57 251.57 251.57-112.63 251.57-251.57-112.63-251.57-251.57-251.57m5.885 38.556c120.9 0 218.9 98 218.9 218.9s-98 218.9-218.9 218.9-218.93-98-218.93-218.9 98.03-218.9 218.93-218.9"/>
   <path id="path16" d="m256 8.356c-136.77 0-247.64 110.87-247.64 247.64s110.87 247.64 247.64 247.64 247.64-110.87 247.64-247.64-110.87-247.64-247.64-247.64m2.942 31.691c120.9 0 218.9 98 218.9 218.9s-98 218.9-218.9 218.9-218.93-98-218.93-218.9 98.03-218.9 218.93-218.9"/>
  </g>
  <path id="path18" d="m253.04 7.859c-135.42 0-245.19 109.78-245.19 245.19 0 135.42 109.78 245.19 245.19 245.19 135.42 0 245.19-109.78 245.19-245.19 0-135.42-109.78-245.19-245.19-245.19zm0 26.297c120.9 0 218.9 98 218.9 218.9s-98 218.9-218.9 218.9-218.93-98-218.93-218.9 98.03-218.9 218.93-218.9z" stroke-opacity="0.31" stroke="#000" stroke-width="4.904" fill="#fff"/>
 </g>
 <path id="path66" fill="#fff" d="m153.88 136.34c-6.01 0-10.875 6.292-10.875 14.09v209.13c0 7.764 4.862 14.03 10.875 14.03h13.406v-237.25h-13.41m192.88 0v56.09h22.22v-56.09h-22.22m-167.16 0.531v236.72h154.34v-236.72h-154.34m78.53 58.56c-0.932 0.809-1.486 1.768-1.844 2.813 0.875-1.261 2.344-1.938 2.344-1.938 0 2.259 2.386 4.237 3.563 5.094-0.235-0.565-0.438-0.906-0.438-0.906 0.442 0.461 0.802 0.923 1.094 1.375 0.188 0.038 0.331 0.087 0.5 0.125-0.48-0.668-0.844-1.094-0.844-1.094 0.461 0.405 0.827 0.789 1.156 1.156 0.405 0.094 0.789 0.168 1.156 0.281-0.207-0.282-0.344-0.438-0.344-0.438 0.245 0.179 0.462 0.374 0.688 0.563 6.418 1.901 9.06 5.5 9.06 5.5 5.646 6.343 2.728 16.54 1.844 19.16 2.541-0.715 0.625 6.094 0.625 6.094-0.311 1.957-1.117 2.799-1.625 3.156-1.318 9.392-9.763 20.19-18.656 20.19-7.736 0-16.283-10.269-17.469-20.19-0.499-0.358-1.324-1.199-1.625-3.156 0.009-0.009-2.074-7.371 0.938-5.969-2.117-11.152-0.531-14.969-0.531-14.969 2.72-8.423 12.09-12.469 12.09-12.469 2.089-2.268 2.116-1.49 1.938-0.813 0.583-0.734 1.125-1.156 1.125-1.156-0.555 0.583-0.936 1.176-1.219 1.75l1.031 0.531c0.612-0.998 1.281-1.625 1.281-1.625-0.461 0.602-0.84 1.173-1.094 1.719l0.531 0.25c0.546-1.948 2.166-3.052 2.844-3.438 0.903-1.092 1.875-1.594 1.875-1.594m-2.156 1.969c-0.678 0.668-1.112 1.463-1.375 2.281l0.313 0.125c0.207-0.96 0.611-1.776 1.063-2.406m90.78 1.156v56.06h22.22v-56.06h-22.22m-76.34 54.09s0.057 2.83 8 5.625 14.928 4.714 17.375 10.125c0 0 8.132 18.55 6.25 35 0 0-0.093 1.359-2.813 3.063 0 0-18.774 7.858-44.531 7.313 0 0-25.1-1.254-41.09-8.406 0 0-2.25-0.549-2.344-5.781-0.009 0 0.814-22.976 7.75-33.28 0 0 2.01-2.693 6.719-4.5 0 0 16.06-4.903 17.16-9.06 0 0 11.891 30.727 27.531-0.094m76.34 8.094v56.06h22.22v-56.06h-22.22m0.031 60.47v54.44h22.22v-54.44h-22.22"/>
</svg>
