<?xml version="1.0" encoding="UTF-8" standalone="no"?>
<svg xmlns="http://www.w3.org/2000/svg" height="512" viewBox="0 0 512 512" width="512" version="1.1">
 <metadata id="metadata74"/>
 <g id="g4" fill-rule="evenodd">
  <path id="path6" fill="#BF9E73" d="m471.95 253.05c0 120.9-98.01 218.91-218.91 218.91s-218.91-98.01-218.91-218.91 98.01-218.91 218.91-218.91 218.91 98.01 218.91 218.91"/>
  <path id="path8" fill-opacity="0.067" d="m256 1c-140.83 0-255 114.17-255 255s114.17 255 255 255 255-114.17 255-255-114.17-255-255-255m8.827 44.931c120.9 0 218.9 98 218.9 218.9s-98 218.9-218.9 218.9-218.93-98-218.93-218.9 98.03-218.9 218.93-218.9"/>
  <g id="g10" fill-opacity="0.129">
   <path id="path12" d="m256 4.43c-138.94 0-251.57 112.63-251.57 251.57s112.63 251.57 251.57 251.57 251.57-112.63 251.57-251.57-112.63-251.57-251.57-251.57m5.885 38.556c120.9 0 218.9 98 218.9 218.9s-98 218.9-218.9 218.9-218.93-98-218.93-218.9 98.03-218.9 218.93-218.9"/>
   <path id="path14" d="m256 8.36c-136.77 0-247.64 110.87-247.64 247.64s110.87 247.64 247.64 247.64 247.64-110.87 247.64-247.64-110.87-247.64-247.64-247.64m2.942 31.691c120.9 0 218.9 98 218.9 218.9s-98 218.9-218.9 218.9-218.93-98-218.93-218.9 98.03-218.9 218.93-218.9"/>
  </g>
  <path id="path16" d="m253.04 7.86c-135.42 0-245.19 109.78-245.19 245.19 0 135.42 109.78 245.19 245.19 245.19 135.42 0 245.19-109.78 245.19-245.19 0-135.42-109.78-245.19-245.19-245.19zm0 26.297c120.9 0 218.9 98 218.9 218.9s-98 218.9-218.9 218.9-218.93-98-218.93-218.9 98.03-218.9 218.93-218.9z" stroke-opacity="0.31" stroke="#000" stroke-width="4.904" fill="#fff"/>
 </g>
 <g id="g64" color="#000000">
  <path id="path66" opacity="0.25" d="m293.41 121.16-17.219 82.59-14.12-14.12c-10.354-3.368-21.46-5.531-32.938-5.531-58.667 0-106.12 47.744-106.12 106.41 0 12.474 2.111 24.16 6.06 35.28l-39.5 22.656 119 119c14.356 2.962 29.24 4.531 44.47 4.531 120.9 0 218.91-98.01 218.91-218.91 0-15.258-1.56-30.15-4.531-44.531l-44.969-44.969-129.03-42.41"/>
  <path id="path68" fill="#fff" d="m293.39 121.17 129.04 42.4-39.501 22.648c3.952 11.12 6.06 22.814 6.06 35.29 0 58.664-47.46 106.39-106.13 106.39-11.477 0-22.564-2.163-32.918-5.53 42.572-13.846 73.47-53.672 73.47-100.86 0-0.306 0.002-0.482 0-0.788l-57.67 33.18 27.65-132.73m-64.26 62.939c11.477 0 22.564 2.163 32.918 5.531-42.572 13.847-73.47 53.672-73.47 100.86 0 0.306-0.002 0.482 0 0.788l57.672-33.18-27.651 132.72-129.04-42.4 39.501-22.647c-3.952-11.12-6.06-22.814-6.06-35.29 0-58.663 47.46-106.39 106.13-106.39"/>
 </g>
</svg>
