<?xml version="1.0" encoding="UTF-8" standalone="no"?>
<svg xmlns="http://www.w3.org/2000/svg" height="512" viewBox="0 0 512 512" width="512" version="1.1" xmlns:xlink="http://www.w3.org/1999/xlink">
 <metadata id="metadata70"/>
 <defs id="defs68">
  <linearGradient id="ButtonShadow" gradientUnits="userSpaceOnUse" y1="92.54" gradientTransform="scale(1.0059 .99417)" x2="0" y2="7.02">
   <stop id="stop3750-1"/>
   <stop id="stop3752-6" stop-opacity="0.588" offset="1"/>
  </linearGradient>
  <filter id="filter3174" color-interpolation-filters="sRGB">
   <feGaussianBlur id="feGaussianBlur3176" stdDeviation="1.71"/>
  </filter>
  <radialGradient id="radialGradient21305" gradientUnits="userSpaceOnUse" cy="64" cx="64" r="64">
   <stop id="stop4218-0" stop-color="#fff"/>
   <stop id="stop4220-2" stop-color="#e8e8e8" offset="0.688"/>
   <stop id="stop4222-6" stop-color="#686868" offset="0.875"/>
   <stop id="stop4224-6" offset="1"/>
  </radialGradient>
  <filter id="filter3657" color-interpolation-filters="sRGB">
   <feGaussianBlur id="feGaussianBlur3659" stdDeviation="1.14"/>
  </filter>
  <clipPath id="clipPath3649">
   <rect id="rect3651" rx="4" height="76" width="76" y="10" x="10" fill="#fff"/>
  </clipPath>
  <clipPath id="clipPath3625">
   <path id="path3627" d="m0 0v96h96v-96h-96zm12 6h72c3.324 0 6 2.676 6 6v72c0 3.324-2.676 6-6 6h-72c-3.324 0-6-2.676-6-6v-72c0-3.324 2.676-6 6-6z"/>
  </clipPath>
  <linearGradient id="linearGradient3737">
   <stop id="stop3739" stop-color="#fff"/>
   <stop id="stop3741" stop-color="#fff" stop-opacity="0" offset="1"/>
  </linearGradient>
  <linearGradient id="linearGradient31361" gradientUnits="userSpaceOnUse" x2="0" gradientTransform="matrix(5.5614 0 0 5.5614 -68.443 384.26)" y1="90" y2="5.988">
   <stop id="stop3702" stop-color="#2276c5"/>
   <stop id="stop3704" stop-color="#68baf4" offset="1"/>
  </linearGradient>
  <radialGradient id="radialGradient31364" cx="48" xlink:href="#linearGradient3737" gradientUnits="userSpaceOnUse" cy="90.17" r="42" gradientTransform="matrix(6.4363 0 0 5.5387 -110.44 -170.79)"/>
  <linearGradient id="linearGradient31367" xlink:href="#linearGradient3737" gradientUnits="userSpaceOnUse" x2="0" gradientTransform="matrix(5.5614 0 0 5.5614 -68.443 -171.89)" y1="6" y2="63.893"/>
  <linearGradient id="linearGradient31370" gradientUnits="userSpaceOnUse" x2="0" gradientTransform="matrix(5.5614 0 0 5.5614 -68.443 -171.89)" y1="6" y2="90.02">
   <stop id="stop3639" stop-color="#f0f0f0"/>
   <stop id="stop3641" stop-color="#dcdcdc" offset="1"/>
  </linearGradient>
  <filter id="filter3794" width="1.384" y="-0.192" x="-0.192" height="1.384" color-interpolation-filters="sRGB">
   <feGaussianBlur id="feGaussianBlur3796" stdDeviation="5.28"/>
  </filter>
  <linearGradient id="linearGradient3613" y2="138.66" gradientUnits="userSpaceOnUse" y1="20.221" x2="0">
   <stop id="stop3739-0" stop-color="#fff"/>
   <stop id="stop3741-6" stop-color="#fff" stop-opacity="0" offset="1"/>
  </linearGradient>
  <clipPath id="clipPath3613">
   <rect id="rect3615" rx="6" height="84" width="84" y="6" x="6" fill="#fff"/>
  </clipPath>
  <clipPath id="clipPath3613-1">
   <rect id="rect3615-2" rx="6" height="84" width="84" y="6" x="6" fill="#fff"/>
  </clipPath>
 </defs>
 <path id="path6" fill-rule="evenodd" fill="#BF9E73" d="m471.95 253.05c0 120.9-98.006 218.91-218.91 218.91s-218.91-98.006-218.91-218.91 98.006-218.91 218.91-218.91 218.91 98.006 218.91 218.91"/>
 <path id="path12" d="m256 1c-140.83 0-255 114.17-255 255s114.17 255 255 255 255-114.17 255-255-114.17-255-255-255m8.827 44.931c120.9 0 218.9 98 218.9 218.9s-98 218.9-218.9 218.9-218.93-98-218.93-218.9 98.03-218.9 218.93-218.9" fill-rule="evenodd" fill-opacity="0.067"/>
 <path id="path16-0" d="m256 4.43c-138.94 0-251.57 112.63-251.57 251.57s112.63 251.57 251.57 251.57 251.57-112.63 251.57-251.57-112.63-251.57-251.57-251.57m5.885 38.556c120.9 0 218.9 98 218.9 218.9s-98 218.9-218.9 218.9-218.93-98-218.93-218.9 98.03-218.9 218.93-218.9" fill-rule="evenodd" fill-opacity="0.129"/>
 <path id="path18-8" d="m256 8.36c-136.77 0-247.64 110.87-247.64 247.64s110.87 247.64 247.64 247.64 247.64-110.87 247.64-247.64-110.87-247.64-247.64-247.64m2.942 31.691c120.9 0 218.9 98 218.9 218.9s-98 218.9-218.9 218.9-218.93-98-218.93-218.9 98.03-218.9 218.93-218.9" fill-rule="evenodd" fill-opacity="0.129"/>
 <path id="path20" d="m253.04 7.86c-135.42 0-245.19 109.78-245.19 245.19 0 135.42 109.78 245.19 245.19 245.19 135.42 0 245.19-109.78 245.19-245.19 0-135.42-109.78-245.19-245.19-245.19zm0 26.297c120.9 0 218.9 98 218.9 218.9s-98 218.9-218.9 218.9-218.93-98-218.93-218.9 98.03-218.9 218.93-218.9z" stroke-opacity="0.31" fill-rule="evenodd" stroke="#000" stroke-width="4.904" fill="#fff"/>
 <path id="path9822" opacity="0.25" d="m320.12 118.47c-24.13 0-45.72 11.56-59.12 29.37 4.58 6.31 8.25 13.32 10.81 20.85l-27.62-27.63c-13.33-13.32-31.8-21.56-52.22-21.56-40.61 0-73.5 32.64-73.5 72.91 0 20.02 8.13 38.16 21.31 51.34l54.78 54.78c-15.96 34.46-1.01 78.44 9.32 95l76.68 76.69c107.9-13.55 191.38-105.59 191.38-217.16 0-4.6-0.16-9.18-0.44-13.72l-99.34-99.34c-13.29-13.29-31.69-21.53-52.04-21.53z"/>
 <path id="path30" d="m320.11 118.46c-24.139 0-45.694 11.553-59.098 29.37 9.4975 13.076 15.043 29.216 15.043 46.562 0 9.2423-1.7355 17.894-4.6562 26.146 17.212 13.275 32.373 30.337 47.636 46.92 39.139-1.6403 74.499-36.713 74.499-75.932 0-40.268-32.821-73.066-73.425-73.066zm-128.13 1.0297c-40.604 0-73.514 32.642-73.514 72.91s32.91 72.91 73.514 72.91c15.01 0 28.973-4.4747 40.607-12.133l84.931 140.36c11.373-4.9702 28.92-74.5 7.7006-102.12-21.488-34.012-43.092-51.631-64.672-72.843 3.1569-8.1297 4.9696-16.936 4.9696-26.169 0-40.268-32.933-72.91-73.537-72.91zm130.28 43.383c15.731 0 28.295 12.564 28.295 28.295s-12.564 28.654-28.295 28.654-28.654-12.922-28.654-28.654c0-15.731 12.922-28.295 28.654-28.295zm-128.81 1.567c15.829 0 28.609 12.687 28.609 28.385s-12.78 28.363-28.609 28.363-28.833-12.664-28.833-28.363c0-15.698 13.003-28.385 28.833-28.385zm30.489 103.15c-56.324 31.483-33.968 103.62-20.057 125.94l46.786-79.536-26.728-46.405z" fill="#fff"/>
</svg>
