<?xml version="1.0" encoding="UTF-8" standalone="no"?>
<svg xmlns="http://www.w3.org/2000/svg" viewBox="0 0 512 512">
 <path stroke="#00b2de" fill-rule="evenodd" d="m471.95 253.05c0 120.9-98.01 218.9-218.9 218.9-120.9 0-218.9-98.01-218.9-218.9 0-120.9 98.01-218.9 218.9-218.9 120.9 0 218.9 98.01 218.9 218.9" fill="#BF9E73"/>
 <text font-size="129.23" y="231.36" x="729.64" font-family="&apos;Gentium Book Basic&apos;" line-height="125%" word-spacing="0" letter-spacing="0"><tspan y="231.36" x="729.64"/>
 </text>
 <text transform="scale(4.0128.2492)" font-size="46.954" y="579.26" x="378.91" font-family="Arial" text-anchor="middle"/>
 <text font-size="129.23" y="151.36" x="1310.91" font-family="&apos;Gentium Book Basic&apos;" line-height="125%" word-spacing="0" letter-spacing="0"><tspan y="151.36" x="1310.91"/>
 </text>
 <text transform="scale(4.0128.2492)" font-size="46.954" y="258.22" x="523.76" font-family="Arial" text-anchor="middle"/>
 <text font-size="129.23" y="-29.9" x="239.33" font-family="&apos;Gentium Book Basic&apos;" line-height="125%" word-spacing="0" letter-spacing="0"><tspan y="-29.9" x="239.33"/>
 </text>
 <text transform="scale(4.0128.2492)" font-size="46.954" y="-469.13" x="256.72" font-family="Arial" text-anchor="middle"/>
 <text font-size="129.23" y="-246.37" x="1337.38" font-family="&apos;Gentium Book Basic&apos;" line-height="125%" word-spacing="0" letter-spacing="0"><tspan y="-246.37" x="1337.38"/>
 </text>
 <text transform="scale(4.0128.2492)" font-size="46.954" y="-1337.8" x="530.36" font-family="Arial" text-anchor="middle"/>
 <text font-size="129.23" y="-326.37" x="1918.65" font-family="&apos;Gentium Book Basic&apos;" line-height="125%" word-spacing="0" letter-spacing="0"><tspan y="-326.37" x="1918.65"/>
 </text>
 <text transform="scale(4.0128.2492)" font-size="46.954" y="-1658.83" x="675.21" font-family="Arial" text-anchor="middle"/>
 <text font-size="129.23" y="-798.77" x="1529.53" font-family="&apos;Gentium Book Basic&apos;" line-height="125%" word-spacing="0" letter-spacing="0"><tspan y="-798.77" x="1529.53"/>
 </text>
 <text transform="scale(4.0128.2492)" font-size="46.954" y="-3554.48" x="578.24" font-family="Arial" text-anchor="middle"/>
 <text font-size="129.23" y="-878.78" x="2110.79" font-family="&apos;Gentium Book Basic&apos;" line-height="125%" word-spacing="0" letter-spacing="0"><tspan y="-878.78" x="2110.79"/>
 </text>
 <text transform="scale(4.0128.2492)" font-size="46.954" y="-3875.52" x="723.09" font-family="Arial" text-anchor="middle"/>
 <text font-size="208.33" y="535.94" x="277.99" font-family="&apos;Gentium Book Basic&apos;" line-height="125%" word-spacing="0" letter-spacing="0"><tspan y="535.94" x="277.99"/>
 </text>
 <g fill-rule="evenodd">
  <path d="m256 1c-140.83 0-255 114.17-255 255s114.17 255 255 255 255-114.17 255-255-114.17-255-255-255m8.827 44.931c120.9 0 218.9 98 218.9 218.9s-98 218.9-218.9 218.9-218.93-98-218.93-218.9 98.03-218.9 218.93-218.9" fill-opacity="0.067"/>
  <g fill-opacity="0.129">
   <path d="m256 4.43c-138.94 0-251.57 112.63-251.57 251.57s112.63 251.57 251.57 251.57 251.57-112.63 251.57-251.57-112.63-251.57-251.57-251.57m5.885 38.556c120.9 0 218.9 98 218.9 218.9s-98 218.9-218.9 218.9-218.93-98-218.93-218.9 98.03-218.9 218.93-218.9"/>
   <path d="m256 8.36c-136.77 0-247.64 110.87-247.64 247.64s110.87 247.64 247.64 247.64 247.64-110.87 247.64-247.64-110.87-247.64-247.64-247.64m2.942 31.691c120.9 0 218.9 98 218.9 218.9s-98 218.9-218.9 218.9-218.93-98-218.93-218.9 98.03-218.9 218.93-218.9"/>
  </g>
  <path stroke="#000" stroke-width="4.904" d="m253.04 7.86c-135.42 0-245.19 109.78-245.19 245.19 0 135.42 109.78 245.19 245.19 245.19 135.42 0 245.19-109.78 245.19-245.19 0-135.42-109.78-245.19-245.19-245.19m0 26.297c120.9 0 218.9 98 218.9 218.9s-98 218.9-218.9 218.9-218.93-98-218.93-218.9 98.03-218.9 218.93-218.9z" stroke-opacity="0.31" fill="#fff"/>
 </g>
 <text font-size="129.23" y="231.36" x="729.64" font-family="&apos;Gentium Book Basic&apos;" line-height="125%" word-spacing="0" letter-spacing="0"><tspan y="231.36" x="729.64"/>
 </text>
 <text transform="scale(4.0128.2492)" font-size="46.954" y="579.26" x="378.91" font-family="Arial" text-anchor="middle"/>
 <text font-size="129.23" y="151.36" x="1310.91" font-family="&apos;Gentium Book Basic&apos;" line-height="125%" word-spacing="0" letter-spacing="0"><tspan y="151.36" x="1310.91"/>
 </text>
 <text transform="scale(4.0128.2492)" font-size="46.954" y="258.22" x="523.76" font-family="Arial" text-anchor="middle"/>
 <text font-size="129.23" y="-29.9" x="239.33" font-family="&apos;Gentium Book Basic&apos;" line-height="125%" word-spacing="0" letter-spacing="0"><tspan y="-29.9" x="239.33"/>
 </text>
 <text transform="scale(4.0128.2492)" font-size="46.954" y="-469.13" x="256.72" font-family="Arial" text-anchor="middle"/>
 <text font-size="129.23" y="-246.37" x="1337.38" font-family="&apos;Gentium Book Basic&apos;" line-height="125%" word-spacing="0" letter-spacing="0"><tspan y="-246.37" x="1337.38"/>
 </text>
 <text transform="scale(4.0128.2492)" font-size="46.954" y="-1337.8" x="530.36" font-family="Arial" text-anchor="middle"/>
 <text font-size="129.23" y="-326.37" x="1918.65" font-family="&apos;Gentium Book Basic&apos;" line-height="125%" word-spacing="0" letter-spacing="0"><tspan y="-326.37" x="1918.65"/>
 </text>
 <text transform="scale(4.0128.2492)" font-size="46.954" y="-1658.83" x="675.21" font-family="Arial" text-anchor="middle"/>
 <text font-size="129.23" y="-798.77" x="1529.53" font-family="&apos;Gentium Book Basic&apos;" line-height="125%" word-spacing="0" letter-spacing="0"><tspan y="-798.77" x="1529.53"/>
 </text>
 <text transform="scale(4.0128.2492)" font-size="46.954" y="-3554.48" x="578.24" font-family="Arial" text-anchor="middle"/>
 <text font-size="129.23" y="-878.78" x="2110.79" font-family="&apos;Gentium Book Basic&apos;" line-height="125%" word-spacing="0" letter-spacing="0"><tspan y="-878.78" x="2110.79"/>
 </text>
 <text transform="scale(4.0128.2492)" font-size="46.954" y="-3875.52" x="723.09" font-family="Arial" text-anchor="middle"/>
 <g font-family="&apos;Gentium Book Basic&apos;" line-height="125%" font-size="208.33" word-spacing="0" letter-spacing="0">
  <text y="535.94" x="277.99"><tspan y="535.94" x="277.99"/>
  </text>
  <text y="557.19" x="-1976.75"><tspan y="557.19" x="-1976.75"/>
  </text>
 </g>
 <text transform="scale(4.0128.2492)" font-size="75.7" y="1673.03" x="-174.88" font-family="Arial" text-anchor="middle"/>
 <text font-size="208.33" y="401.56" x="-1270.41" font-family="&apos;Gentium Book Basic&apos;" line-height="125%" word-spacing="0" letter-spacing="0"><tspan y="401.56" x="-1270.41"/>
 </text>
 <text transform="scale(4.0128.2492)" font-size="75.7" y="1048.5" x="1.134" font-family="Arial" text-anchor="middle"/>
 <text font-size="208.33" y="393.44" x="-1237.04" font-family="&apos;Gentium Book Basic&apos;" line-height="125%" word-spacing="0" letter-spacing="0"><tspan y="393.44" x="-1237.04"/>
 </text>
 <text transform="scale(4.0128.2492)" font-size="75.7" y="1015.9" x="9.454" font-family="Arial" text-anchor="middle"/>
 <text font-size="61.51" y="124.99" x="-980.22" font-family="&apos;Gentium Book Basic&apos;" line-height="125%" word-spacing="0" letter-spacing="0"><tspan y="124.99" x="-980.22"/>
 </text>
 <text transform="scale(4.0128.2492)" font-size="22.349" y="335.39" x="-150.46" font-family="Arial" text-anchor="middle"/>
 <text font-size="208.33" y="491.76" x="-1291.06" font-family="&apos;Gentium Book Basic&apos;" line-height="125%" word-spacing="0" letter-spacing="0"><tspan y="491.76" x="-1291.06"/>
 </text>
 <text transform="scale(4.0128.2492)" font-size="75.7" y="1410.47" x="-4.01" font-family="Arial" text-anchor="middle"/>
 <text font-size="208.33" y="336.13" x="-584.71" font-family="&apos;Gentium Book Basic&apos;" line-height="125%" word-spacing="0" letter-spacing="0"><tspan y="336.13" x="-584.71"/>
 </text>
 <text transform="scale(4.0128.2492)" font-size="75.7" y="785.95" x="172.01" font-family="Arial" text-anchor="middle"/>
 <text font-size="208.33" y="328.01" x="-551.34" font-family="&apos;Gentium Book Basic&apos;" line-height="125%" word-spacing="0" letter-spacing="0"><tspan y="328.01" x="-551.34"/>
 </text>
 <text transform="scale(4.0128.2492)" font-size="75.7" y="753.35" x="180.33" font-family="Arial" text-anchor="middle"/>
 <text font-size="208.33" y="517.45" x="-1973.76" font-family="&apos;Gentium Book Basic&apos;" line-height="125%" word-spacing="0" letter-spacing="0"><tspan y="517.45" x="-1973.76"/>
 </text>
 <text transform="scale(4.0128.2492)" font-size="75.7" y="1513.54" x="-174.14" font-family="Arial" text-anchor="middle"/>
 <text font-size="208.33" y="361.82" x="-1267.42" font-family="&apos;Gentium Book Basic&apos;" line-height="125%" word-spacing="0" letter-spacing="0"><tspan y="361.82" x="-1267.42"/>
 </text>
 <text transform="scale(4.0128.2492)" font-size="75.7" y="889.02" x="1.884" font-family="Arial" text-anchor="middle"/>
 <text font-size="208.33" y="353.69" x="-1234.05" font-family="&apos;Gentium Book Basic&apos;" line-height="125%" word-spacing="0" letter-spacing="0"><tspan y="353.69" x="-1234.05"/>
 </text>
 <text transform="scale(4.0128.2492)" font-size="75.7" y="856.42" x="10.204" font-family="Arial" text-anchor="middle"/>
 <text transform="rotate(30)" font-size="208.33" y="804.47" x="-1768.43" font-family="&apos;Gentium Book Basic&apos;" line-height="125%" word-spacing="0" letter-spacing="0"><tspan y="804.47" x="-1768.43"/>
 </text>
 <text transform="matrix(3.47525 2.0064-.1246.21581 0 0)" font-size="75.7" y="2665.3" x="-122.96" font-family="Arial" text-anchor="middle"/>
 <text transform="rotate(30)" font-size="208.33" y="648.84" x="-1062.08" font-family="&apos;Gentium Book Basic&apos;" line-height="125%" word-spacing="0" letter-spacing="0"><tspan y="648.84" x="-1062.08"/>
 </text>
 <text transform="matrix(3.47525 2.0064-.1246.21581 0 0)" font-size="75.7" y="2040.78" x="53.05" font-family="Arial" text-anchor="middle"/>
 <text transform="rotate(30)" font-size="208.33" y="640.72" x="-1028.7" font-family="&apos;Gentium Book Basic&apos;" line-height="125%" word-spacing="0" letter-spacing="0"><tspan y="640.72" x="-1028.7"/>
 </text>
 <text transform="matrix(3.47525 2.0064-.1246.21581 0 0)" font-size="75.7" y="2008.18" x="61.37" font-family="Arial" text-anchor="middle"/>
 <text transform="rotate(30)" font-size="61.51" y="372.28" x="-771.89" font-family="&apos;Gentium Book Basic&apos;" line-height="125%" word-spacing="0" letter-spacing="0"><tspan y="372.28" x="-771.89"/>
 </text>
 <text transform="matrix(3.47525 2.0064-.1246.21581 0 0)" font-size="22.349" y="1327.68" x="-98.54" font-family="Arial" text-anchor="middle"/>
 <text font-size="129.23" y="239.03" x="-86.63" font-family="&apos;Gentium Book Basic&apos;" line-height="125%" word-spacing="0" letter-spacing="0"><tspan y="239.03" x="-86.63"/>
 </text>
 <text transform="scale(4.0128.2492)" font-size="46.954" y="610.04" x="175.49" font-family="Arial" text-anchor="middle"/>
 <text font-size="129.23" y="159.03" x="494.64" font-family="&apos;Gentium Book Basic&apos;" line-height="125%" word-spacing="0" letter-spacing="0"><tspan y="159.03" x="494.64"/>
 </text>
 <text transform="scale(4.0128.2492)" font-size="46.954" y="289" x="320.34" font-family="Arial" text-anchor="middle"/>
 <text font-size="129.23" y="-22.23" x="-576.94" font-family="&apos;Gentium Book Basic&apos;" line-height="125%" word-spacing="0" letter-spacing="0"><tspan y="-22.23" x="-576.94"/>
 </text>
 <text transform="scale(4.0128.2492)" font-size="46.954" y="-438.34" x="53.3" font-family="Arial" text-anchor="middle"/>
 <text font-size="129.23" y="-238.7" x="521.11" font-family="&apos;Gentium Book Basic&apos;" line-height="125%" word-spacing="0" letter-spacing="0"><tspan y="-238.7" x="521.11"/>
 </text>
 <text transform="scale(4.0128.2492)" font-size="46.954" y="-1307.02" x="326.94" font-family="Arial" text-anchor="middle"/>
 <text font-size="129.23" y="-318.7" x="1102.38" font-family="&apos;Gentium Book Basic&apos;" line-height="125%" word-spacing="0" letter-spacing="0"><tspan y="-318.7" x="1102.38"/>
 </text>
 <text transform="scale(4.0128.2492)" font-size="46.954" y="-1628.05" x="471.79" font-family="Arial" text-anchor="middle"/>
 <text font-size="129.23" y="-791.1" x="713.26" font-family="&apos;Gentium Book Basic&apos;" line-height="125%" word-spacing="0" letter-spacing="0"><tspan y="-791.1" x="713.26"/>
 </text>
 <text transform="scale(4.0128.2492)" font-size="46.954" y="-3523.7" x="374.82" font-family="Arial" text-anchor="middle"/>
 <text font-size="129.23" y="-871.11" x="1294.52" font-family="&apos;Gentium Book Basic&apos;" line-height="125%" word-spacing="0" letter-spacing="0"><tspan y="-871.11" x="1294.52"/>
 </text>
 <text transform="scale(4.0128.2492)" font-size="46.954" y="-3844.74" x="519.67" font-family="Arial" text-anchor="middle"/>
 <text font-size="208.33" y="543.61" x="-538.28" font-family="&apos;Gentium Book Basic&apos;" line-height="125%" word-spacing="0" letter-spacing="0"><tspan y="543.61" x="-538.28"/>
 </text>
 <path opacity="0.25" d="m256.28 105.99c-0.443 0-0.887 0.132-1.33 0.354-1.373 0.044-2.701 0.532-3.896 1.285 0 0-0.133 0.133-0.178 0.266-3.543 1.461-5.757 3.809-7.484 5.891-2.524 3.056-4.782 6.598-7.04 10.584-4.783 8.104-9.566 18.377-14.305 28.563-4.871 10.363-9.743 20.77-13.729 28.697-1.949 3.897-3.807 7.22-5.225 9.611-0.31 0.576-0.753 0.929-1.063 1.416-0.487 0.133-0.976 0.4-1.729 0.488-2.48 0.576-6.067 1.506-10.318 2.303-8.503 1.461-19.44 2.744-30.11 4.383-10.939 1.771-21.524 3.676-30.381 5.713-4.296 0.93-8.147 1.905-11.602 3.322-1.86 0.93-3.544 1.594-5.404 2.967-1.816 1.373-4.294 3.277-5.623 7.617-1.373 4.473-0.531 7.617 0.178 9.92 0.797 2.391 1.549 3.941 2.479 5.713 1.949 3.321 4.651 6.688 7.574 10.1 5.846 7.086 13.773 15.15 21.479 23.25 8.02 8.06 15.721 15.766 21.877 22.01 2.967 3.277 5.669 6.199 7.219 8.236 0.487 0.576 0.62 0.93 0.93 1.506v1.594c-0.089 2.746-0.488 6.51-1.02 10.895-1.417 8.901-3.365 20.283-5.27 31.576-1.86 11.381-3.543 22.763-4.385 31.975-0.443 4.65-0.798 8.635-0.443 12.754 0.089 1.904 0.443 4.119 1.107 6.289 0.521 1.937 1.294 4.31 3.66 6.676l68.928 68.928c7.197 0.714 14.496 1.084 21.881 1.084 111.09 0 202.85-82.76 217-189.99l-68.21-68.21c-0.79-0.79-1.589-1.395-2.303-1.922-1.86-1.373-3.675-2.17-5.402-2.967-3.41-1.417-7.262-2.392-11.734-3.322-7.572-1.777-16.715-3.447-26.18-5.02l-91.02-91.02c-1.762-1.762-4.308-3.197-8.758-3.346l-0.162-0.162"/>
 <path d="m256.28 105.99c-0.443 0-0.886 0.133-1.329 0.354-1.373 0.044-2.701 0.531-3.897 1.284 0 0-0.133 0.133-0.177 0.266-3.543 1.461-5.757 3.809-7.484 5.89-2.524 3.056-4.783 6.599-7.04 10.584-4.783 8.104-9.566 18.378-14.304 28.564-4.871 10.363-9.743 20.77-13.729 28.697-1.949 3.897-3.809 7.219-5.226 9.61-0.31 0.576-0.753 0.93-1.063 1.417-0.487 0.133-0.974 0.399-1.727 0.487-2.48 0.576-6.067 1.506-10.319 2.303-8.503 1.461-19.441 2.746-30.11 4.384-10.939 1.771-21.523 3.676-30.38 5.713-4.296 0.93-8.149 1.904-11.603 3.321-1.86 0.93-3.543 1.594-5.403 2.967-1.816 1.373-4.296 3.277-5.624 7.617-1.373 4.473-0.531 7.617 0.177 9.92 0.797 2.391 1.55 3.941 2.48 5.713 1.949 3.321 4.65 6.687 7.573 10.1 5.846 7.086 13.773 15.15 21.478 23.25 8.02 8.06 15.721 15.766 21.877 22.01 2.967 3.277 5.669 6.2 7.219 8.237 0.487 0.576 0.62 0.93 0.93 1.506v1.594c-0.089 2.746-0.487 6.51-1.019 10.894-1.417 8.901-3.366 20.283-5.27 31.576-1.86 11.381-3.543 22.763-4.384 31.974-0.443 4.65-0.797 8.636-0.443 12.754 0.089 1.904 0.443 4.119 1.107 6.289 0.62 2.303 1.594 5.226 5.181 8.02 3.454 2.701 6.643 2.79 8.946 2.701 2.17 0 3.941-0.31 5.801-0.797 3.72-0.93 7.263-2.524 11.47-4.384 8.193-3.764 18.16-8.724 27.944-14.171 9.699-5.314 19.22-10.983 26.881-15.15 3.809-2.037 7.219-3.631 9.566-4.694 0.62-0.31 1.063-0.31 1.594-0.399 0.531 0.089 0.974 0.089 1.55 0.399 2.391 1.019 5.801 2.657 9.61 4.694 7.661 4.163 17.18 9.654 27.01 15.15 9.699 5.27 19.618 10.407 27.811 14.171 4.207 1.86 7.75 3.41 11.47 4.384 1.86 0.487 3.676 0.797 5.801 0.797 2.303 0.133 5.359 0 8.99-2.701 3.41-2.834 4.384-5.713 5.137-8.02 0.797-2.303 1.019-4.384 1.107-6.289 0.354-3.986 0-8.06-0.443-12.754-0.886-9.344-2.657-20.593-4.384-31.974-1.86-11.381-3.853-22.763-5.226-31.576-0.576-4.429-0.93-8.149-1.107-10.894v-1.594c0.354-0.576 0.487-0.93 0.974-1.506 1.55-2.037 4.207-4.96 7.219-8.237 6.111-6.244 13.906-14.13 21.877-22.01 7.75-8.104 15.588-16.16 21.523-23.25 2.879-3.41 5.536-6.776 7.529-10.1 0.93-1.771 1.816-3.321 2.48-5.713 0.841-2.303 1.55-5.359 0.31-9.92-1.373-4.34-3.809-6.244-5.669-7.617s-3.676-2.17-5.403-2.967c-3.41-1.417-7.263-2.391-11.736-3.321-8.68-2.037-19.397-3.941-30.336-5.713-10.85-1.771-21.788-2.923-30.11-4.384-4.251-0.841-7.75-1.594-10.363-2.303-0.62-0.089-1.24-0.354-1.771-0.487-0.354-0.487-0.797-0.841-1.019-1.417-1.417-2.391-3.277-5.713-5.226-9.61-3.897-8.02-8.724-18.467-13.64-28.697-4.871-10.186-9.61-20.46-14.304-28.564-2.303-3.986-4.65-7.529-7.086-10.584-2.391-3.01-4.207-7.661-12.843-7.661" fill="#fff"/>
</svg>
