<?xml version="1.0" encoding="UTF-8" standalone="no"?>
<svg xmlns="http://www.w3.org/2000/svg" height="512" viewBox="0 0 512 512" width="512" version="1.1">
 <metadata id="metadata70"/>
 <path id="path6" d="m471.95 253.05c0 120.9-98.01 218.9-218.9 218.9-120.9 0-218.9-98.01-218.9-218.9 0-120.9 98.01-218.9 218.9-218.9 120.9 0 218.9 98.01 218.9 218.9" fill-rule="evenodd" fill="#BF9E73"/>
 <path id="path8" d="m319.44 115.59c-9.314 1.442-32.22 16.467-19.469 24.594 55.19 55.2 110.36 110.42 165.56 165.63 4.099-16.559 6.319-33.851 6.406-51.656-42.07-42.17-84.11-84.37-126.53-126.34-7.327-6.2-16.14-11.704-25.969-12.219m-33.75 27.594-16.531 16.531c46.754 46.629 93.02 93.29 139.63 139.63 14.581 14.632 29.21 29.18 43.813 43.75 3.487-7.715 6.538-15.652 9.125-23.813-58.656-58.691-117.27-117.4-176.03-176.09m-26.75 26.719c-38.789 38.794-77.59 77.58-116.37 116.38l-25.16 78.81c-1.277 12 11.557 17.592 18.13 25.688 27.488 27.18 53.07 52.602 78.34 77.69 12.705 2.294 25.791 3.5 39.16 3.5 83.33 0 155.8-46.567 192.78-115.09-62.25-62.31-124.48-124.59-186.87-186.97" fill-rule="evenodd" fill-opacity="0.235"/>
 <path id="path10" d="m253.03 34.157c-120.9 0-218.91 98.01-218.91 218.91 0 63.5 27.05 120.67 70.25 160.66-36.28-39.06-58.47-91.39-58.47-148.91 0-120.9 98.01-218.87 218.91-218.87 57.46 0 109.73 22.14 148.78 58.34-39.98-43.12-97.12-70.12-160.56-70.12" fill-rule="evenodd" fill-opacity="0.067"/>
 <g id="g12" fill-rule="evenodd" transform="translate(0 -.003)" fill-opacity="0.129">
  <path id="path14" d="m256 4.433c-138.94 0-251.57 112.63-251.57 251.57s112.63 251.57 251.57 251.57 251.57-112.63 251.57-251.57-112.63-251.57-251.57-251.57m5.885 38.556c120.9 0 218.9 98 218.9 218.9s-98 218.9-218.9 218.9-218.93-98-218.93-218.9 98.03-218.9 218.93-218.9"/>
  <path id="path16" d="m256 8.356c-136.77 0-247.64 110.87-247.64 247.64s110.87 247.64 247.64 247.64 247.64-110.87 247.64-247.64-110.87-247.64-247.64-247.64m2.942 31.691c120.9 0 218.9 98 218.9 218.9s-98 218.9-218.9 218.9-218.93-98-218.93-218.9 98.03-218.9 218.93-218.9"/>
 </g>
 <g id="g18" fill="#fff" transform="translate(0 -.003)" fill-rule="evenodd">
  <path id="path20" stroke="#000" stroke-width="4.904" stroke-opacity="0.31" d="m253.04 7.859c-135.42 0-245.19 109.78-245.19 245.19 0 135.42 109.78 245.19 245.19 245.19 135.42 0 245.19-109.78 245.19-245.19 0-135.42-109.78-245.19-245.19-245.19zm0 26.297c120.9 0 218.9 98 218.9 218.9s-98 218.9-218.9 218.9-218.93-98-218.93-218.9 98.03-218.9 218.93-218.9z"/>
  <path id="path22" d="m258.93 169.91-100.81 100.81-12.391 12.391-3.153 3.153-25.15 78.83a10.261 11.432 45 0 0 3.3012 11.354 10.261 11.432 45 0 0 9.2078 1.2435l79.939-25.23 2.605-2.605 12.04-12.04 101.17-101.17-66.749-66.749m-66.616 134.21a2.8635 2.8635 0 0 1 0.97704 2.2798l-1.11 23.878 4.367 4.367a2.8635 2.8635 0 0 1 -1.2879 4.7816l-37.705 10.08a2.8635 2.8635 0 0 1 -2.7683 -0.72537l-7.313-7.313a2.8635 2.8635 0 0 1 -0.74017 -2.8127l10.999-38.741a2.8635 2.8635 0 0 1 4.7816 -1.2583l5.877 5.877 21.894-1.11a2.8635 2.8635 0 0 1 2.0281 0.69577"/>
  <path id="path24" d="m319.45 115.6c-3.813-0.084-7.07 0.931-9.38 3.166l-0.118 0.118-15.624 15.653 66.756 66.756 15.417-15.446 0.237-0.207c0.035-0.035 0.054-0.083 0.089-0.118 7.256-7.474 1.711-24.831-12.517-39.06l-15.15-15.15c-9.829-9.829-21.18-15.525-29.709-15.712"/>
  <path id="path26" d="m285.67 143.18 66.757 66.757-16.532 16.532-66.757-66.757z"/>
 </g>
</svg>
