<?xml version="1.0" encoding="UTF-8" standalone="no"?>
<svg xmlns="http://www.w3.org/2000/svg" height="512" viewBox="0 0 512 512" width="512" version="1.1">
 <metadata id="metadata581"/>
 <defs id="defs4">
  <linearGradient id="0" y1="33.753" x2="0" y2="471.66" gradientUnits="userSpaceOnUse">
   <stop id="stop7" stop-color="#6a6a6a"/>
   <stop id="stop9" offset="0.47"/>
   <stop id="stop11" stop-color="#fff" offset="0.494"/>
   <stop id="stop13" stop-color="#fff" offset="0.901"/>
   <stop id="stop15" offset="0.955"/>
   <stop id="stop17" offset="1"/>
  </linearGradient>
 </defs>
 <g id="g19" fill-rule="evenodd">
  <path id="path21" fill="#BF9E73" d="m471.95 253.05c0 120.9-98.01 218.91-218.91 218.91s-218.91-98.01-218.91-218.91 98.01-218.91 218.91-218.91 218.91 98.01 218.91 218.91"/>
  <path id="path23" opacity="0.05" fill="url(#0)" d="m471.95 253.05c0 120.9-98.01 218.91-218.91 218.91s-218.91-98.01-218.91-218.91 98.01-218.91 218.91-218.91 218.91 98.01 218.91 218.91"/>
  <path id="path27" fill-opacity="0.067" d="m256 1c-140.83 0-255 114.17-255 255s114.17 255 255 255 255-114.17 255-255-114.17-255-255-255m8.827 44.931c120.9 0 218.9 98 218.9 218.9s-98 218.9-218.9 218.9-218.93-98-218.93-218.9 98.03-218.9 218.93-218.9"/>
  <g id="g29" fill-opacity="0.129">
   <path id="path31" d="m256 4.43c-138.94 0-251.57 112.63-251.57 251.57s112.63 251.57 251.57 251.57 251.57-112.63 251.57-251.57-112.63-251.57-251.57-251.57m5.885 38.556c120.9 0 218.9 98 218.9 218.9s-98 218.9-218.9 218.9-218.93-98-218.93-218.9 98.03-218.9 218.93-218.9"/>
   <path id="path33" d="m256 8.36c-136.77 0-247.64 110.87-247.64 247.64s110.87 247.64 247.64 247.64 247.64-110.87 247.64-247.64-110.87-247.64-247.64-247.64m2.942 31.691c120.9 0 218.9 98 218.9 218.9s-98 218.9-218.9 218.9-218.93-98-218.93-218.9 98.03-218.9 218.93-218.9"/>
  </g>
  <path id="path35" d="m253.04 7.86c-135.42 0-245.19 109.78-245.19 245.19 0 135.42 109.78 245.19 245.19 245.19 135.42 0 245.19-109.78 245.19-245.19 0-135.42-109.78-245.19-245.19-245.19zm0 26.297c120.9 0 218.9 98 218.9 218.9s-98 218.9-218.9 218.9-218.93-98-218.93-218.9 98.03-218.9 218.93-218.9z" stroke-opacity="0.31" stroke="#000" stroke-width="4.904" fill="#fff"/>
 </g>
 <path id="path415" fill-opacity="0.235" d="m157.47 133.19v17.313h1v1h1v1h1v1h0.969v0.969h1v1h1v1h1v1h1v1h1v1h0.969v0.969h1v1h1v1h1v1h1v0.188h-13.94v125.22h1v1h1v1h1v1h0.969v0.969h1v1h1v1h1v1h1v1h1v1h0.969v0.969h1v1h1v1h1v1h1v1h1v1h0.969v0.969h1v1h1v1h1v1h1v1h1v1h0.969v0.969h1v1h1v1h1v1h1v1h1v1h1v1h0.969v0.969h1v1h1v1h1v1h1v1h1v1h0.969v0.969h1v1h1v1h1v0.5h-70.62v52.656h1v1h1v1h1v1h0.969v0.969h1v1h1v1h1v1h1v1h1v1h0.969v0.969h1v1h1v1h1v1h1v1h1v1h0.969v0.969h1v1h1v1h1v1h1v1h1v1h0.969v0.969h1v1h1v1h1v1h1v1h1v1h1v1h0.969v0.969h1v1h1v1h1v1h1v1h1v1h0.969v0.969h1v1h1v1h1v1h1v1h1v1h0.969v0.969h1v1h1v1h1v1h1v1h1v1h1v1h0.969v0.969h1v1h1v1h1v1h1v1h1v1h0.969v0.969h1v1h1v1h1v1h1v1h1v1h0.969v0.969h1v1h1v1h1v1h1v1h1v1h0.969v0.969h1v1h1v1h1v1h1v1h1v1h1v1h0.969v0.969h1v1h1v1h1v1h1v1h1v1h0.969v0.969h1v1h1v1h1v1h1v1h1v1h0.969v0.969h1v1h1v1h1v1h1v1h1v1h1v0.313c12.285 2.14 24.915 3.281 37.813 3.281 120.9 0 218.91-98.01 218.91-218.91 0-4.16-0.115-8.304-0.344-12.406h-0.125v-1h-1v-1h-1v-1h-1v-1h-0.969v-0.969h-1v-1h-1v-1h-1v-1h-1v-1h-1v-1h-0.969v-0.969h-1v-1h-1v-1h-1v-1h-1v-1h-1v-1h-0.969v-0.969h-1v-1h-1v-1h-1v-1h-1v-1h-1v-1h-1v-1h-0.969v-0.969h-1v-1h-1v-1h-1v-1h-1v-1h-1v-1h-0.969v-0.969h-1v-1h-1v-1h-1v-1h-1v-1h-1v-1h-0.969v-0.969h-1v-1h-1v-1h-1v-1h-1v-1h-1v-1h-1v-1h-0.969v-0.969h-1v-1h-1v-1h-1v-1h-1v-1h-1v-1h-0.969v-0.969h-1v-1h-1v-1h-1v-1h-1v-1h-1v-1h-0.969v-0.969h-1v-1h-1v-1h-1v-1h-1v-1h-1v-1h-0.969v-0.969h-1v-1h-1v-1h-1v-1h-1v-1h-1v-1h-1v-1h-0.969v-0.969h-1v-1h-1v-1h-1v-1h-1v-1h-1v-1h-0.969v-0.969h-1v-1h-1v-1h-1v-1h-1v-1h-1v-1h-0.969v-0.969h-1v-1h-1v-1h-1v-1h-1v-1h-1v-1h-1v-1h-0.969v-0.969h-1v-1h-1v-1h-1v-1h-1v-1h-1v-1h-0.969v-0.969h-1v-1h-1v-1h-1v-1h-1v-1h-1v-1h-0.969v-0.969h-1v-1h-1v-1h-1v-1h-1v-1h-1v-1h-0.969v-0.969h-1v-1h-1v-1h-1v-1h-207.53" color="#000000"/>
  <g id="g463" transform="translate(.281 12.29)" fill="#fff" color="#000000">
  <path id="path465" d="m124.37 313.87v52.64h262.7v-52.64h-262.7m49.38 11.753c8.532 0 15.449 6.917 15.449 15.449s-6.917 15.449-15.449 15.449-15.449-6.917-15.449-15.449 6.917-15.449 15.449-15.449m54.671 0c8.532 0 15.449 6.917 15.449 15.449s-6.917 15.449-15.449 15.449-15.449-6.917-15.449-15.449 6.917-15.449 15.449-15.449m54.638 0c8.532 0 15.449 6.917 15.449 15.449s-6.917 15.449-15.449 15.449-15.449-6.917-15.449-15.449 6.917-15.449 15.449-15.449m54.638 0c8.532 0 15.449 6.917 15.449 15.449s-6.917 15.449-15.449 15.449-15.449-6.917-15.449-15.449 6.917-15.449 15.449-15.449"/>
  <path id="path467" d="m157.2 151.34v125.2h207.5v-125.2h-207.5"/>
  <path id="path469" d="m157.19 120.91h207.51v17.293h-207.51z"/>
 </g>
</svg>
