<?xml version="1.0" encoding="UTF-8" standalone="no"?>
<svg
   xmlns:dc="http://purl.org/dc/elements/1.1/"
   xmlns:cc="http://creativecommons.org/ns#"
   xmlns:rdf="http://www.w3.org/1999/02/22-rdf-syntax-ns#"
   xmlns:svg="http://www.w3.org/2000/svg"
   xmlns="http://www.w3.org/2000/svg"
   xmlns:sodipodi="http://sodipodi.sourceforge.net/DTD/sodipodi-0.dtd"
   xmlns:inkscape="http://www.inkscape.org/namespaces/inkscape"
   height="512"
   viewBox="0 0 512 512"
   width="512"
   version="1.1"
   id="svg2"
   inkscape:version="0.91 r13725"
   sodipodi:docname="preferences-startup.svg">
  <defs
     id="defs17" />
  <sodipodi:namedview
     pagecolor="#ffffff"
     bordercolor="#666666"
     borderopacity="1"
     objecttolerance="10"
     gridtolerance="10"
     guidetolerance="10"
     inkscape:pageopacity="0"
     inkscape:pageshadow="2"
     inkscape:window-width="1920"
     inkscape:window-height="1021"
     id="namedview15"
     showgrid="false"
     inkscape:zoom="2.1312512"
     inkscape:cx="44.037768"
     inkscape:cy="137.20268"
     inkscape:window-x="0"
     inkscape:window-y="0"
     inkscape:window-maximized="1"
     inkscape:current-layer="svg2" />
  <metadata
     id="metadata28">
    <rdf:RDF>
      <cc:Work
         rdf:about="">
        <dc:format>image/svg+xml</dc:format>
        <dc:type
           rdf:resource="http://purl.org/dc/dcmitype/StillImage" />
        <dc:title />
      </cc:Work>
    </rdf:RDF>
  </metadata>
  <path
     style="fill:#BF9E73;fill-rule:evenodd;fill-opacity:1"
     inkscape:connector-curvature="0"
     d="m 471.95,253.05 c 0,120.9 -98.01,218.9 -218.9,218.9 -120.9,0 -218.9,-98.01 -218.9,-218.9 0,-120.9 98.01,-218.9 218.9,-218.9 120.9,0 218.9,98.01 218.9,218.9"
     id="path6" />
  <path
     style="fill-opacity:0.06700003;fill-rule:evenodd"
     inkscape:connector-curvature="0"
     d="M 256,1 C 115.17,1 1,115.17 1,256 1,396.83 115.17,511 256,511 396.83,511 511,396.83 511,256 511,115.17 396.83,1 256,1 m 8.827,44.931 c 120.9,0 218.9,98 218.9,218.9 0,120.9 -98,218.9 -218.9,218.9 -120.9,0 -218.93,-98 -218.93,-218.9 0,-120.9 98.03,-218.9 218.93,-218.9"
     id="path8" />
  <g
     style="fill-opacity:0.12900002;fill-rule:evenodd"
     id="g10">
    <path
       inkscape:connector-curvature="0"
       d="m 256,4.433 c -138.94,0 -251.57,112.63 -251.57,251.57 0,138.94 112.63,251.57 251.57,251.57 138.94,0 251.57,-112.63 251.57,-251.57 C 507.57,117.063 394.94,4.433 256,4.433 m 5.885,38.556 c 120.9,0 218.9,98 218.9,218.9 0,120.9 -98,218.9 -218.9,218.9 -120.9,0 -218.93,-98 -218.93,-218.9 0,-120.9 98.03,-218.9 218.93,-218.9"
       id="path12" />
    <path
       inkscape:connector-curvature="0"
       d="m 256,8.356 c -136.77,0 -247.64,110.87 -247.64,247.64 0,136.77 110.87,247.64 247.64,247.64 136.77,0 247.64,-110.87 247.64,-247.64 C 503.64,119.226 392.77,8.356 256,8.356 m 2.942,31.691 c 120.9,0 218.9,98 218.9,218.9 0,120.9 -98,218.9 -218.9,218.9 -120.9,0 -218.93,-98 -218.93,-218.9 0,-120.9 98.03,-218.9 218.93,-218.9"
       id="path14" />
  </g>
  <path
     inkscape:connector-curvature="0"
     style="opacity:0.25"
     id="path4190"
     d="M 470.98313,225.45354 374.84848,168.64337 282.31116,144.7828 217.13644,110.81734 c 0,0 -6.78048,51.74373 -30.77934,70.87844 -30.68743,24.46763 -74.76186,32.15737 -74.76186,32.15737 0,0 37.71008,20.83518 51.82559,40.51019 3.7142,5.17707 -0.34278,14.36552 0.14071,18.2123 3.63584,28.92764 -38.74416,50.05318 -35.45373,54.15337 l 62.78335,31.32307 25.06064,36.79839 123.84025,56.75006 c 97.12,-22.39 135.46033,-79.72642 135.46033,-183.63642"
     sodipodi:nodetypes="ccccscssccccc" />
  <path
     inkscape:connector-curvature="0"
     d="m 196.47213,386.82061 c -13.50477,-5.92132 -17.37324,-8.24449 -17.7116,-10.63569 -0.23894,-1.68134 1.54355,-10.95137 3.95917,-20.59814 5.87945,-23.47768 5.80445,-24.73869 -1.92378,-31.9175 l -6.31548,-5.86899 -22.1225,5.62306 c -20.81091,5.2847 -22.26028,5.47656 -24.45264,3.14466 -3.16036,-3.35744 -15.99016,-35.98481 -15.39367,-39.14518 0.2686,-1.41971 8.02124,-7.12473 17.74126,-13.05302 23.19688,-14.14835 21.75972,-12.52631 20.88417,-23.56663 l -0.73951,-9.31363 c -11.88655,-9.12652 -38.158,-26.7863 -38.158,-26.7863 0,0 14.86693,-38.21207 17.08546,-39.07017 1.1895,-0.46046 11.88972,1.59238 23.77942,4.56263 l 21.61671,5.39807 6.86488,-6.95557 6.86487,-6.95558 -5.06319,-20.1778 c -2.78363,-11.09788 -4.86786,-21.87483 -4.62891,-23.95034 0.38545,-3.34872 2.45398,-4.62543 18.43367,-11.3874 9.89966,-4.1894 19.22027,-7.45441 20.71498,-7.25732 1.77379,0.23371 6.64164,6.88232 14.04023,19.16969 6.22653,10.34616 12.13214,19.22028 13.1228,19.70166 0.99066,0.4901 5.1103,0.62265 9.15666,0.29476 l 7.35673,-0.59649 0.91567,-11.84786 c 0.50405,-6.51605 0.91915,-15.56632 0.92439,-20.10803 0.003,-4.54344 0.6244,-8.64389 1.37611,-9.11132 1.29066,-0.80404 106.60101,58.53115 110.71715,62.38043 1.59936,1.4982 1.39355,2.31096 -1.20694,4.75449 -4.25218,3.99404 -105.53709,61.27116 -108.34513,61.27116 -3.41325,0 -3.97836,-3.14118 -3.97836,-22.08239 l 0,-17.49359 -10.44033,0.73429 c -21.53299,1.5139 -38.35858,12.60829 -47.47512,31.30881 -4.41962,9.05724 -4.71438,10.61649 -4.71438,24.92356 0,13.78907 0.39068,16.06515 4.04288,23.56141 5.56551,11.42401 14.97681,20.72021 26.5927,26.26653 8.87586,4.23822 10.88335,4.62367 24.0829,4.62367 12.60829,0 15.42331,-0.48312 22.63352,-3.8894 16.9442,-8.00554 29.84202,-25.26366 32.18961,-43.04677 0.55986,-4.25741 1.86795,-8.07007 2.90397,-8.47122 1.03775,-0.40115 10.82753,1.36565 21.75797,3.92603 19.20283,4.4981 20.56674,5.07541 40.55791,17.13779 11.37695,6.86488 20.98185,13.2815 21.36032,14.25647 0.3715,0.97496 -2.78188,10.46476 -7.01139,21.08649 -6.89627,17.34184 -8.06484,19.3598 -11.42227,19.75571 -2.05808,0.2407 -12.74957,-1.85923 -23.7585,-4.66553 l -20.01734,-5.10332 -6.9765,6.99395 -6.97651,6.99395 5.32134,22.00913 c 2.92664,12.10424 4.98819,22.88294 4.58355,23.94511 -0.88252,2.31969 -34.57032,16.87268 -39.05796,16.87268 -2.49585,0 -5.49225,-3.95393 -14.57392,-19.23771 l -11.43275,-19.23772 -9.49328,-0.42382 c -11.1938,-0.50056 -9.64851,-1.89238 -23.51606,21.19811 -8.30901,13.83616 -10.85196,17.02267 -13.78906,17.28429 -1.97958,0.17617 -11.3752,-3.09059 -20.87894,-7.25731 z"
     style="fill:#ffffff"
     id="path12-3"
     sodipodi:nodetypes="ccccccccccccccccccccccccccccccsscccsccscccsccccccccscsccccccc" />
  <path
     style="fill:#ffffff;fill-rule:evenodd;stroke:#000000;stroke-width:4.90399981;stroke-opacity:0.31000001"
     inkscape:connector-curvature="0"
     d="m 253.04,7.859 c -135.42,0 -245.19,109.78 -245.19,245.19 0,135.42 109.78,245.19 245.19,245.19 135.42,0 245.19,-109.78 245.19,-245.19 0,-135.42 -109.78,-245.19 -245.19,-245.19 z m 0,26.297 c 120.9,0 218.9,98 218.9,218.9 0,120.9 -98,218.9 -218.9,218.9 -120.9,0 -218.93,-98 -218.93,-218.9 0,-120.9 98.03,-218.9 218.93,-218.9 z"
     id="path16" />
</svg>
