<?xml version="1.0" encoding="UTF-8" standalone="no"?>
<svg xmlns="http://www.w3.org/2000/svg" height="512" viewBox="0 0 512 512" width="512" version="1.1">
 <metadata id="metadata82"/>
 <path id="path16" d="m471.95 253.05c0 120.9-98.01 218.91-218.91 218.91s-218.91-98.01-218.91-218.91 98.01-218.91 218.91-218.91 218.91 98.01 218.91 218.91" fill-rule="evenodd" fill="#BF9E73"/>
 <path id="path18" opacity="0.25" d="m182.19 106.91c-46.719 0.995-84.77 49.565-73.66 95.28 5.881 31.742 33.901 50.28 54.34 72.56-30.06 33.581-22.423 90.94 14.844 116.09 28.511 28.511 54.736 54.955 80.53 81.03 117.07-2.737 211.38-97.37 213.63-214.56-31.46-31.497-62.932-62.961-94.59-94.25-28.18-25.02-74.25-25.04-102.53-0.188-22.755-21.03-42-49.857-74.969-54.781-5.072-0.901-10.226-1.268-15.375-1.188-0.746-0.008-1.477-0.016-2.219 0" color="#000000"/>
 <g id="g20" fill-rule="evenodd">
  <path id="path22" fill-opacity="0.067" d="m256 1c-140.83 0-255 114.17-255 255s114.17 255 255 255 255-114.17 255-255-114.17-255-255-255m8.827 44.931c120.9 0 218.9 98 218.9 218.9s-98 218.9-218.9 218.9-218.93-98-218.93-218.9 98.03-218.9 218.93-218.9"/>
  <g id="g24" fill-opacity="0.129">
   <path id="path26" d="m256 4.43c-138.94 0-251.57 112.63-251.57 251.57s112.63 251.57 251.57 251.57 251.57-112.63 251.57-251.57-112.63-251.57-251.57-251.57m5.885 38.556c120.9 0 218.9 98 218.9 218.9s-98 218.9-218.9 218.9-218.93-98-218.93-218.9 98.03-218.9 218.93-218.9"/>
   <path id="path28" d="m256 8.36c-136.77 0-247.64 110.87-247.64 247.64s110.87 247.64 247.64 247.64 247.64-110.87 247.64-247.64-110.87-247.64-247.64-247.64m2.942 31.691c120.9 0 218.9 98 218.9 218.9s-98 218.9-218.9 218.9-218.93-98-218.93-218.9 98.03-218.9 218.93-218.9"/>
  </g>
  <path id="path30" d="m253.04 7.86c-135.42 0-245.19 109.78-245.19 245.19 0 135.42 109.78 245.19 245.19 245.19 135.42 0 245.19-109.78 245.19-245.19 0-135.42-109.78-245.19-245.19-245.19zm0 26.297c120.9 0 218.9 98 218.9 218.9s-98 218.9-218.9 218.9-218.93-98-218.93-218.9 98.03-218.9 218.93-218.9z" stroke-opacity="0.31" stroke="#000" stroke-width="4.904" fill="#fff"/>
 </g>
 <path id="path78" fill="#fff" d="m188.4 106.93a79.215 79.215 0 0 0 -81.519 79.182 79.215 79.215 0 0 0 56.132 75.622c15.525-14.758 35.991-24.22 57.786-24.2 6.01-0.209 12.01 0.341 17.944 1.33-0.51-2.773-0.918-5.579-1.115-8.414-2.702-24.954 7.234-49.5 24.13-67.46a79.215 79.215 0 0 0 -73.356 -56.06m139.81 37.254a79.215 79.215 0 0 0 -81.519 79.182 79.218 79.218 0 0 0 158.44 0 79.215 79.215 0 0 0 -76.916 -79.182m-102.52 102.52a79.215 79.215 0 0 0 -81.519 79.182 79.218 79.218 0 0 0 158.44 0 79.215 79.215 0 0 0 -2.0137 -17.512c-27.786-8.606-50.89-31.751-59.51-59.656a79.215 79.215 0 0 0 -15.39 -2.0137" color="#000000"/>
</svg>
