<?xml version="1.0" encoding="UTF-8" standalone="no"?>
<svg xmlns="http://www.w3.org/2000/svg" height="512" viewBox="0 0 512 512" width="512" version="1.1">
 <metadata id="metadata72"/>
 <path id="path4" d="m471.95 253.05c0 120.9-98.01 218.9-218.9 218.9-120.9 0-218.9-98.01-218.9-218.9 0-120.9 98.01-218.9 218.9-218.9 120.9 0 218.9 98.01 218.9 218.9" fill-rule="evenodd" fill="#BF9E73"/>
 <path id="path6" fill-opacity="0.235" d="m168.84 110.81c-0.136 0.003-0.271 0.014-0.406 0.031-1.994 0.215-3.504 1.901-3.5 3.906-0.001 0.042-0.001 0.083 0 0.125v28.938c-0.002 0.073-0.002 0.146 0 0.219v117.44c-0.002 1.295 0.641 2.49 1.688 3.219 0.273 0.397 0.624 0.754 1.031 1.031 0.263 0.372 0.585 0.736 0.969 1 0.256 0.363 0.599 0.676 0.969 0.938 0.274 0.404 0.618 0.751 1.031 1.031 0.271 0.389 0.599 0.727 1 1 0.271 0.389 0.599 0.727 1 1 0.269 0.381 0.606 0.732 1 1 0.265 0.376 0.582 0.734 0.969 1 0.264 0.375 0.614 0.734 1 1 0.268 0.381 0.606 0.701 1 0.969 0.271 0.389 0.599 0.727 1 1 0.263 0.378 0.583 0.7 0.969 0.969 0.266 0.39 0.604 0.725 1 1 0.274 0.399 0.622 0.754 1.031 1.031 0.263 0.372 0.585 0.736 0.969 1 0.268 0.38 0.607 0.701 1 0.969 0.271 0.389 0.599 0.727 1 1 0.263 0.378 0.583 0.7 0.969 0.969 0.274 0.401 0.621 0.752 1.031 1.031 0.27 0.383 0.604 0.731 1 1 0.263 0.372 0.585 0.736 0.969 1 0.268 0.38 0.607 0.701 1 0.969 0.271 0.389 0.599 0.727 1 1 0.271 0.389 0.599 0.727 1 1 0.263 0.378 0.583 0.7 0.969 0.969 0.265 0.386 0.608 0.727 1 1 0.269 0.392 0.6 0.756 1 1.031 0.256 0.363 0.599 0.676 0.969 0.938 0.274 0.404 0.618 0.751 1.031 1.031 0.271 0.389 0.599 0.727 1 1 0.263 0.378 0.583 0.7 0.969 0.969 0.274 0.401 0.621 0.752 1.031 1.031 0.265 0.376 0.582 0.734 0.969 1 0.264 0.375 0.614 0.734 1 1 0.268 0.381 0.606 0.701 1 0.969 0.271 0.389 0.599 0.727 1 1 0.263 0.378 0.583 0.7 0.969 0.969 0.266 0.39 0.604 0.725 1 1 0.274 0.399 0.622 0.754 1.031 1.031 0.263 0.372 0.585 0.736 0.969 1 0.268 0.38 0.607 0.701 1 0.969 0.271 0.389 0.599 0.727 1 1 0.263 0.378 0.583 0.7 0.969 0.969 0.274 0.401 0.621 0.752 1.031 1.031 0.27 0.383 0.604 0.731 1 1 0.263 0.372 0.585 0.736 0.969 1 0.256 0.363 0.599 0.676 0.969 0.938 0.274 0.404 0.618 0.751 1.031 1.031 0.271 0.389 0.599 0.727 1 1 0.263 0.378 0.583 0.7 0.969 0.969 0.265 0.386 0.608 0.727 1 1 0.269 0.392 0.6 0.756 1 1.031 0.256 0.363 0.599 0.676 0.969 0.938 0.274 0.404 0.618 0.751 1.031 1.031 0.271 0.389 0.599 0.727 1 1 0.263 0.378 0.583 0.7 0.969 0.969 0.237 0.348 0.534 0.648 0.875 0.906l-56.59 38.688c-1.056 0.732-1.686 1.934-1.688 3.219v34.03c-0.003 1.3 0.633 2.522 1.688 3.25 0.27 0.388 0.632 0.728 1.031 1 0.263 0.372 0.585 0.736 0.969 1 0.256 0.363 0.598 0.676 0.969 0.938 0.274 0.404 0.618 0.75 1.031 1.031 0.271 0.389 0.599 0.727 1 1 0.268 0.385 0.605 0.698 1 0.969 0.268 0.387 0.604 0.728 1 1 0.267 0.385 0.574 0.76 0.969 1.031 0.264 0.375 0.614 0.734 1 1 0.268 0.381 0.606 0.701 1 0.969 0.271 0.389 0.599 0.727 1 1 0.263 0.378 0.583 0.7 0.969 0.969 0.269 0.394 0.599 0.754 1 1.031 0.266 0.382 0.608 0.73 1 1 0.264 0.375 0.614 0.734 1 1 0.268 0.38 0.607 0.701 1 0.969 0.271 0.389 0.599 0.727 1 1 0.263 0.378 0.583 0.7 0.969 0.969 0.271 0.397 0.626 0.722 1.031 1 0.272 0.392 0.596 0.757 1 1.031 0.263 0.372 0.585 0.736 0.969 1 0.268 0.38 0.607 0.701 1 0.969 0.271 0.389 0.599 0.727 1 1 0.271 0.389 0.599 0.727 1 1 0.266 0.382 0.577 0.73 0.969 1 0.27 0.388 0.632 0.728 1.031 1 0.263 0.372 0.585 0.736 0.969 1 0.256 0.363 0.598 0.676 0.969 0.938 0.274 0.404 0.618 0.75 1.031 1.031 0.271 0.389 0.599 0.727 1 1 0.263 0.378 0.583 0.7 0.969 0.969 0.271 0.397 0.626 0.722 1.031 1 0.267 0.385 0.574 0.76 0.969 1.031 0.264 0.375 0.614 0.734 1 1 0.268 0.381 0.606 0.701 1 0.969 0.271 0.389 0.599 0.727 1 1 0.263 0.378 0.583 0.7 0.969 0.969 0.269 0.394 0.599 0.754 1 1.031 0.271 0.389 0.63 0.728 1.031 1 0.263 0.372 0.585 0.736 0.969 1 0.268 0.38 0.607 0.701 1 0.969 0.271 0.389 0.599 0.727 1 1 0.263 0.378 0.583 0.7 0.969 0.969 0.271 0.397 0.626 0.722 1.031 1 0.272 0.392 0.596 0.757 1 1.031 0.263 0.372 0.585 0.736 0.969 1 0.256 0.363 0.598 0.676 0.969 0.938 0.274 0.404 0.618 0.75 1.031 1.031 0.271 0.389 0.599 0.727 1 1 0.266 0.382 0.577 0.73 0.969 1 0.265 0.381 0.61 0.731 1 1 0.266 0.382 0.608 0.73 1 1 0.256 0.363 0.598 0.676 0.969 0.938 0.274 0.404 0.618 0.75 1.031 1.031 0.271 0.389 0.599 0.727 1 1 0.263 0.378 0.583 0.7 0.969 0.969 0.271 0.397 0.626 0.722 1.031 1 0.267 0.385 0.574 0.76 0.969 1.031 0.264 0.375 0.614 0.734 1 1 0.268 0.38 0.607 0.701 1 0.969 0.271 0.389 0.599 0.727 1 1 0.263 0.378 0.583 0.7 0.969 0.969 0.269 0.394 0.599 0.754 1 1.031 0.271 0.389 0.63 0.728 1.031 1 0.263 0.372 0.585 0.736 0.969 1 0.268 0.38 0.607 0.701 1 0.969 0.271 0.389 0.599 0.727 1 1 0.271 0.389 0.599 0.727 1 1 0.268 0.385 0.605 0.698 1 0.969 0.271 0.391 0.598 0.758 1 1.031 0.263 0.372 0.585 0.736 0.969 1 0.064 0.091 0.145 0.165 0.219 0.25 5.132 0.36 10.308 0.563 15.531 0.563 93.14 0 172.69-58.19 204.31-140.19-0.151-0.146-0.328-0.288-0.5-0.406-0.272-0.39-0.595-0.727-1-1-0.267-0.383-0.573-0.729-0.969-1-0.267-0.383-0.604-0.729-1-1-0.268-0.383-0.604-0.729-1-1-0.264-0.378-0.61-0.699-1-0.969-0.264-0.378-0.61-0.731-1-1-0.272-0.39-0.595-0.727-1-1-0.267-0.383-0.573-0.729-0.969-1-0.267-0.383-0.604-0.729-1-1-0.267-0.383-0.604-0.729-1-1-0.268-0.383-0.604-0.729-1-1-0.264-0.378-0.61-0.699-1-0.969-0.264-0.378-0.61-0.731-1-1-0.272-0.39-0.595-0.727-1-1-0.267-0.383-0.573-0.729-0.969-1-0.267-0.383-0.604-0.729-1-1-0.268-0.383-0.604-0.729-1-1-0.264-0.378-0.61-0.699-1-0.969-0.264-0.378-0.61-0.731-1-1-0.272-0.39-0.595-0.727-1-1-0.267-0.383-0.573-0.729-0.969-1-0.267-0.383-0.604-0.729-1-1-0.268-0.383-0.604-0.729-1-1-0.264-0.378-0.61-0.699-1-0.969-0.264-0.378-0.61-0.731-1-1-0.272-0.39-0.595-0.727-1-1-0.267-0.383-0.573-0.729-0.969-1-0.267-0.383-0.604-0.729-1-1-0.267-0.383-0.604-0.729-1-1-0.272-0.39-0.626-0.727-1.031-1-0.26-0.364-0.591-0.708-0.969-0.969-0.272-0.39-0.595-0.727-1-1-0.267-0.383-0.573-0.729-0.969-1-0.267-0.383-0.604-0.729-1-1-0.267-0.383-0.604-0.729-1-1-0.268-0.383-0.604-0.729-1-1-0.264-0.378-0.61-0.699-1-0.969-0.264-0.378-0.61-0.731-1-1-0.272-0.39-0.595-0.727-1-1-0.267-0.383-0.573-0.729-0.969-1-0.267-0.383-0.604-0.729-1-1-0.268-0.383-0.604-0.729-1-1-0.264-0.378-0.61-0.699-1-0.969-0.264-0.378-0.61-0.731-1-1-0.272-0.39-0.595-0.727-1-1-0.267-0.383-0.573-0.729-0.969-1-0.267-0.383-0.604-0.729-1-1-0.268-0.383-0.604-0.729-1-1-0.264-0.378-0.61-0.699-1-0.969-0.264-0.378-0.61-0.731-1-1-0.272-0.39-0.595-0.727-1-1-0.267-0.383-0.573-0.729-0.969-1-0.267-0.383-0.604-0.729-1-1-0.267-0.383-0.604-0.729-1-1-0.268-0.383-0.604-0.729-1-1-0.264-0.378-0.61-0.699-1-0.969-0.264-0.378-0.61-0.731-1-1-0.272-0.39-0.595-0.727-1-1-0.267-0.383-0.573-0.729-0.969-1-0.267-0.383-0.604-0.729-1-1-0.268-0.383-0.604-0.729-1-1-0.264-0.378-0.61-0.699-1-0.969-0.264-0.378-0.61-0.731-1-1-0.272-0.39-0.595-0.727-1-1-0.267-0.383-0.573-0.729-0.969-1-0.267-0.383-0.604-0.729-1-1-0.268-0.383-0.604-0.729-1-1-0.264-0.378-0.61-0.699-1-0.969-0.264-0.378-0.61-0.731-1-1-0.272-0.39-0.595-0.727-1-1-0.267-0.383-0.573-0.729-0.969-1-0.267-0.383-0.604-0.729-1-1-0.267-0.383-0.604-0.729-1-1-0.264-0.378-0.61-0.699-1-0.969-0.264-0.378-0.61-0.731-1-1-0.272-0.39-0.595-0.727-1-1-0.267-0.383-0.573-0.729-0.969-1-0.267-0.383-0.604-0.729-1-1-0.272-0.39-0.626-0.727-1.031-1l-207.14-141.25c-0.653-0.448-1.427-0.688-2.219-0.688"/>
 <g id="g8" fill-rule="evenodd">
  <path id="path10" fill-opacity="0.067" d="m256 1c-140.83 0-255 114.17-255 255s114.17 255 255 255 255-114.17 255-255-114.17-255-255-255m8.827 44.931c120.9 0 218.9 98 218.9 218.9s-98 218.9-218.9 218.9-218.93-98-218.93-218.9 98.03-218.9 218.93-218.9"/>
  <g id="g12" fill-opacity="0.129">
   <path id="path14" d="m256 4.433c-138.94 0-251.57 112.63-251.57 251.57s112.63 251.57 251.57 251.57 251.57-112.63 251.57-251.57-112.63-251.57-251.57-251.57m5.885 38.556c120.9 0 218.9 98 218.9 218.9s-98 218.9-218.9 218.9-218.93-98-218.93-218.9 98.03-218.9 218.93-218.9"/>
   <path id="path16" d="m256 8.356c-136.77 0-247.64 110.87-247.64 247.64s110.87 247.64 247.64 247.64 247.64-110.87 247.64-247.64-110.87-247.64-247.64-247.64m2.942 31.691c120.9 0 218.9 98 218.9 218.9s-98 218.9-218.9 218.9-218.93-98-218.93-218.9 98.03-218.9 218.93-218.9"/>
  </g>
  <path id="path18" d="m253.04 7.859c-135.42 0-245.19 109.78-245.19 245.19 0 135.42 109.78 245.19 245.19 245.19 135.42 0 245.19-109.78 245.19-245.19 0-135.42-109.78-245.19-245.19-245.19zm0 26.297c120.9 0 218.9 98 218.9 218.9s-98 218.9-218.9 218.9-218.93-98-218.93-218.9 98.03-218.9 218.93-218.9z" stroke-opacity="0.31" stroke="#000" stroke-width="4.904" fill="#fff"/>
 </g>
 <text id="text20" font-size="129.23" line-height="125%" y="231.36" x="729.64" font-family="Gentium Book Basic" word-spacing="0" letter-spacing="0"><tspan id="tspan22" y="231.36" x="729.64"/>
 </text>
 <text id="text24" font-size="46.954" transform="scale(4.0128 .2492)" y="579.25" x="378.91" font-family="Arial" text-anchor="middle"/>
 <text id="text26" font-size="129.23" line-height="125%" y="151.36" x="1310.91" font-family="Gentium Book Basic" word-spacing="0" letter-spacing="0"><tspan id="tspan28" y="151.36" x="1310.91"/>
 </text>
 <text id="text30" font-size="46.954" transform="scale(4.0128 .2492)" y="258.22" x="523.76" font-family="Arial" text-anchor="middle"/>
 <text id="text32" font-size="129.23" line-height="125%" y="-29.901" x="239.33" font-family="Gentium Book Basic" word-spacing="0" letter-spacing="0"><tspan id="tspan34" y="-29.901" x="239.33"/>
 </text>
 <text id="text36" font-size="46.954" transform="scale(4.0128 .2492)" y="-469.14" x="256.72" font-family="Arial" text-anchor="middle"/>
 <text id="text38" font-size="129.23" line-height="125%" y="-246.37" x="1337.38" font-family="Gentium Book Basic" word-spacing="0" letter-spacing="0"><tspan id="tspan40" y="-246.37" x="1337.38"/>
 </text>
 <text id="text42" font-size="46.954" transform="scale(4.0128 .2492)" y="-1337.81" x="530.36" font-family="Arial" text-anchor="middle"/>
 <text id="text44" font-size="129.23" line-height="125%" y="-326.38" x="1918.65" font-family="Gentium Book Basic" word-spacing="0" letter-spacing="0"><tspan id="tspan46" y="-326.38" x="1918.65"/>
 </text>
 <text id="text48" font-size="46.954" transform="scale(4.0128 .2492)" y="-1658.85" x="675.21" font-family="Arial" text-anchor="middle"/>
 <text id="text50" font-size="129.23" line-height="125%" y="-798.78" x="1529.53" font-family="Gentium Book Basic" word-spacing="0" letter-spacing="0"><tspan id="tspan52" y="-798.78" x="1529.53"/>
 </text>
 <text id="text54" font-size="46.954" transform="scale(4.0128 .2492)" y="-3554.51" x="578.24" font-family="Arial" text-anchor="middle"/>
 <text id="text56" font-size="129.23" line-height="125%" y="-878.78" x="2110.79" font-family="Gentium Book Basic" word-spacing="0" letter-spacing="0"><tspan id="tspan58" y="-878.78" x="2110.79"/>
 </text>
 <text id="text60" font-size="46.954" transform="scale(4.0128 .2492)" y="-3875.54" x="723.09" font-family="Arial" text-anchor="middle"/>
 <text id="text62" font-size="208.33" line-height="125%" y="535.94" x="277.99" font-family="Gentium Book Basic" word-spacing="0" letter-spacing="0"><tspan id="tspan64" y="535.94" x="277.99"/>
 </text>
 <path id="path66" stroke-linejoin="round" d="m168.85 114.75v29.27l-0.002-0.002v117.47l82.48-56.47 74.78 50.988-157.26 107.22v34.02l207.15-141.25-207.15-141.25z" stroke="#fff" stroke-linecap="round" stroke-width="7.841" fill="#fff"/>
</svg>
