<?xml version="1.0" encoding="UTF-8" standalone="no"?>
<svg
   xmlns:dc="http://purl.org/dc/elements/1.1/"
   xmlns:cc="http://creativecommons.org/ns#"
   xmlns:rdf="http://www.w3.org/1999/02/22-rdf-syntax-ns#"
   xmlns:svg="http://www.w3.org/2000/svg"
   xmlns="http://www.w3.org/2000/svg"
   xmlns:sodipodi="http://sodipodi.sourceforge.net/DTD/sodipodi-0.dtd"
   xmlns:inkscape="http://www.inkscape.org/namespaces/inkscape"
   height="512"
   viewBox="0 0 512 512"
   width="512"
   version="1.1"
   id="svg2"
   inkscape:version="0.91 r13725"
   sodipodi:docname="deepin-launcher.svg">
  <defs
     id="defs17">
    <filter
       x="-0.5"
       y="-0.5"
       width="2"
       height="2"
       filterUnits="objectBoundingBox"
       id="filter-1">
      <feOffset
         dx="0"
         dy="1"
         in="SourceAlpha"
         result="shadowOffsetOuter1"
         id="feOffset11" />
      <feGaussianBlur
         stdDeviation="0.5"
         in="shadowOffsetOuter1"
         result="shadowBlurOuter1"
         id="feGaussianBlur13" />
      <feColorMatrix
         values="0 0 0 0 0   0 0 0 0 0   0 0 0 0 0  0 0 0 0.3 0"
         type="matrix"
         in="shadowBlurOuter1"
         result="shadowMatrixOuter1"
         id="feColorMatrix15" />
      <feMerge
         id="feMerge17">
        <feMergeNode
           in="shadowMatrixOuter1"
           id="feMergeNode19" />
        <feMergeNode
           in="SourceGraphic"
           id="feMergeNode21" />
      </feMerge>
    </filter>
    <filter
       x="-0.5"
       y="-0.5"
       width="2"
       height="2"
       filterUnits="objectBoundingBox"
       id="filter4196">
      <feOffset
         dx="0"
         dy="1"
         in="SourceAlpha"
         result="shadowOffsetOuter1"
         id="feOffset4198" />
      <feGaussianBlur
         stdDeviation="0.5"
         in="shadowOffsetOuter1"
         result="shadowBlurOuter1"
         id="feGaussianBlur4200" />
      <feColorMatrix
         values="0 0 0 0 0   0 0 0 0 0   0 0 0 0 0  0 0 0 0.3 0"
         type="matrix"
         in="shadowBlurOuter1"
         result="shadowMatrixOuter1"
         id="feColorMatrix4202" />
      <feMerge
         id="feMerge4204">
        <feMergeNode
           in="shadowMatrixOuter1"
           id="feMergeNode4206" />
        <feMergeNode
           in="SourceGraphic"
           id="feMergeNode4208" />
      </feMerge>
    </filter>
    <filter
       x="-0.5"
       y="-0.5"
       width="2"
       height="2"
       filterUnits="objectBoundingBox"
       id="filter4210">
      <feOffset
         dx="0"
         dy="1"
         in="SourceAlpha"
         result="shadowOffsetOuter1"
         id="feOffset4212" />
      <feGaussianBlur
         stdDeviation="0.5"
         in="shadowOffsetOuter1"
         result="shadowBlurOuter1"
         id="feGaussianBlur4214" />
      <feColorMatrix
         values="0 0 0 0 0   0 0 0 0 0   0 0 0 0 0  0 0 0 0.3 0"
         type="matrix"
         in="shadowBlurOuter1"
         result="shadowMatrixOuter1"
         id="feColorMatrix4216" />
      <feMerge
         id="feMerge4218">
        <feMergeNode
           in="shadowMatrixOuter1"
           id="feMergeNode4220" />
        <feMergeNode
           in="SourceGraphic"
           id="feMergeNode4222" />
      </feMerge>
    </filter>
  </defs>
  <sodipodi:namedview
     pagecolor="#ffffff"
     bordercolor="#666666"
     borderopacity="1"
     objecttolerance="10"
     gridtolerance="10"
     guidetolerance="10"
     inkscape:pageopacity="0"
     inkscape:pageshadow="2"
     inkscape:window-width="1920"
     inkscape:window-height="1022"
     id="namedview15"
     showgrid="false"
     inkscape:zoom="1.4259111"
     inkscape:cx="366.99566"
     inkscape:cy="254.06088"
     inkscape:window-x="0"
     inkscape:window-y="0"
     inkscape:window-maximized="1"
     inkscape:current-layer="svg2" />
  <metadata
     id="metadata28">
    <rdf:RDF>
      <cc:Work
         rdf:about="">
        <dc:format>image/svg+xml</dc:format>
        <dc:type
           rdf:resource="http://purl.org/dc/dcmitype/StillImage" />
        <dc:title></dc:title>
      </cc:Work>
    </rdf:RDF>
  </metadata>
  <path
     style="fill:#BF9E73;fill-rule:evenodd;fill-opacity:1"
     inkscape:connector-curvature="0"
     d="m 471.95,253.05 c 0,120.9 -98.01,218.9 -218.9,218.9 -120.9,0 -218.9,-98.01 -218.9,-218.9 0,-120.9 98.01,-218.9 218.9,-218.9 120.9,0 218.9,98.01 218.9,218.9"
     id="path6" />
  <path
     style="fill-opacity:0.06700003;fill-rule:evenodd"
     inkscape:connector-curvature="0"
     d="M 256,1 C 115.17,1 1,115.17 1,256 1,396.83 115.17,511 256,511 396.83,511 511,396.83 511,256 511,115.17 396.83,1 256,1 m 8.827,44.931 c 120.9,0 218.9,98 218.9,218.9 0,120.9 -98,218.9 -218.9,218.9 -120.9,0 -218.93,-98 -218.93,-218.9 0,-120.9 98.03,-218.9 218.93,-218.9"
     id="path8" />
  <g
     style="fill-opacity:0.12900002;fill-rule:evenodd"
     id="g10">
    <path
       inkscape:connector-curvature="0"
       d="m 256,4.433 c -138.94,0 -251.57,112.63 -251.57,251.57 0,138.94 112.63,251.57 251.57,251.57 138.94,0 251.57,-112.63 251.57,-251.57 C 507.57,117.063 394.94,4.433 256,4.433 m 5.885,38.556 c 120.9,0 218.9,98 218.9,218.9 0,120.9 -98,218.9 -218.9,218.9 -120.9,0 -218.93,-98 -218.93,-218.9 0,-120.9 98.03,-218.9 218.93,-218.9"
       id="path12" />
    <path
       inkscape:connector-curvature="0"
       d="m 256,8.356 c -136.77,0 -247.64,110.87 -247.64,247.64 0,136.77 110.87,247.64 247.64,247.64 136.77,0 247.64,-110.87 247.64,-247.64 C 503.64,119.226 392.77,8.356 256,8.356 m 2.942,31.691 c 120.9,0 218.9,98 218.9,218.9 0,120.9 -98,218.9 -218.9,218.9 -120.9,0 -218.93,-98 -218.93,-218.9 0,-120.9 98.03,-218.9 218.93,-218.9"
       id="path14" />
  </g>
  <path
     inkscape:connector-curvature="0"
     style="opacity:0.25"
     id="path4190"
     d="m 358.39706,81.455314 15.09132,82.612486 -90.75122,-52.38543 188.22347,154.46152 1.12071,-22.69836 0.76134,22.00103 -104.98903,-85.02817 -172.27793,35.35032 -7.42386,45.48959 69.52916,57.40166 -3.22186,4.2307 -41.331,-34.98315 c -43.5864,46.4357 -43.03879,58.06861 -94.28717,44.48551 l -1.04908,12.10637 43.01124,61.87565 112.12558,70.44242 c 107.29235,-14.34865 205.1441,-121.20284 204.84279,-235.00313 -0.0405,-15.3013 -5.20594,-48.88188 -7.97944,-63.38137"
     sodipodi:nodetypes="ccccccccccccccccsc" />
  <path
     style="fill:#ffffff;fill-rule:evenodd;stroke:#000000;stroke-width:4.90399981;stroke-opacity:0.31000001"
     inkscape:connector-curvature="0"
     d="m 253.04,7.859 c -135.42,0 -245.19,109.78 -245.19,245.19 0,135.42 109.78,245.19 245.19,245.19 135.42,0 245.19,-109.78 245.19,-245.19 0,-135.42 -109.78,-245.19 -245.19,-245.19 z m 0,26.297 c 120.9,0 218.9,98 218.9,218.9 0,120.9 -98,218.9 -218.9,218.9 -120.9,0 -218.93,-98 -218.93,-218.9 0,-120.9 98.03,-218.9 218.93,-218.9 z"
     id="path16" />
  <path
     style="fill:#ffffff;fill-rule:evenodd;stroke:none;stroke-width:1;"
     d="M 368.96094 180.48242 L 368.91992 180.55273 L 270.64453 123.8125 C 263.12482 132.2524 255.33146 142.22964 250.75391 150.1582 C 245.43605 159.369 240.41715 169.14065 235.86523 179.06641 C 224.32971 176.0376 193.1308 170.09241 185.04492 191.67578 C 174.01771 221.11036 183.66797 256.90234 183.66797 256.90234 C 183.66797 256.90234 183.5361 259.26036 185.92578 261.18945 C 188.98555 263.6554 188.88086 261.10547 188.88086 261.10547 C 188.88086 261.10547 191.11826 247.33672 197.2168 228.48828 C 200.04643 219.7434 210.78105 221.18707 218.99023 223.78125 C 214.79305 238.20749 211.42005 256.51351 211.18945 267.31836 L 274.36719 303.79492 C 283.60916 298.19279 297.77502 286.11948 308.16992 275.27148 C 314.52114 281.08376 321.14089 289.65553 314.98242 296.47852 C 301.70845 311.18422 290.90234 320.00781 290.90234 320.00781 C 290.90234 320.00781 288.64311 321.1906 292.30859 322.60742 C 295.17408 323.71239 297.14844 322.41992 297.14844 322.41992 C 297.14844 322.41992 332.96978 312.88237 352.94727 288.61523 C 367.59607 270.82098 346.84782 246.77448 338.45703 238.29883 C 344.77702 229.39387 350.73097 220.16002 356.04883 210.94922 C 360.67064 202.944 365.40077 191.23112 368.96094 180.48242 z "
     id="path4250" />
  <path
     style="fill:#ffffff;fill-rule:evenodd;stroke:none;stroke-width:1;"
     d="M 348.45312 79.978516 C 332.88514 80.597551 307.31028 89.616585 282.32422 111.83789 L 373.51562 164.48633 C 382.50708 120.85999 370.59864 87.92616 360.31055 81.986328 C 357.73852 80.50137 353.65369 79.771724 348.45312 79.978516 z "
     id="Combined-Shape" />
  <path
     style="fill:#ffffff;fill-rule:evenodd;stroke:none;stroke-width:1;"
     inkscape:connector-curvature="0"
     id="path33"
     d="M 9.0000002,39 C 5,39 2.5,36 1.5999756,34 c 0,0 4.900027,13 19.4000254,13 C 35.499999,47 40.400023,34 40.400024,34 39.5,36 37,39 33,39 29.270697,39 25.541395,35.520872 25.053718,31 l -1.103209,0 C 23.805587,32.791584 23.236299,36.500951 21,37.997464 18.763701,36.500951 18.194413,32.791584 18.049491,31 l -1.103209,0 c -0.487677,4.520872 -4.216979,8 -7.9462818,8 z"
     transform="matrix(-7.0196881,-4.0528189,-4.0528189,7.0196881,507.72326,167.09501)" />
</svg>
