<?xml version="1.0" encoding="UTF-8" standalone="no"?>
<svg xmlns="http://www.w3.org/2000/svg" height="512" viewBox="0 0 512 512" width="512" version="1.1" xmlns:xlink="http://www.w3.org/1999/xlink">
 <metadata id="metadata70"/>
 <defs id="defs68">
  <linearGradient id="ButtonShadow" gradientUnits="userSpaceOnUse" y1="92.54" gradientTransform="scale(1.0059 .99417)" x2="0" y2="7.02">
   <stop id="stop3750-1"/>
   <stop id="stop3752-6" stop-opacity="0.588" offset="1"/>
  </linearGradient>
  <filter id="filter3174" color-interpolation-filters="sRGB">
   <feGaussianBlur id="feGaussianBlur3176" stdDeviation="1.71"/>
  </filter>
  <radialGradient id="radialGradient21305" gradientUnits="userSpaceOnUse" cy="64" cx="64" r="64">
   <stop id="stop4218-0" stop-color="#fff"/>
   <stop id="stop4220-2" stop-color="#e8e8e8" offset="0.688"/>
   <stop id="stop4222-6" stop-color="#686868" offset="0.875"/>
   <stop id="stop4224-6" offset="1"/>
  </radialGradient>
  <filter id="filter3657" color-interpolation-filters="sRGB">
   <feGaussianBlur id="feGaussianBlur3659" stdDeviation="1.14"/>
  </filter>
  <clipPath id="clipPath3649">
   <rect id="rect3651" rx="4" height="76" width="76" y="10" x="10" fill="#fff"/>
  </clipPath>
  <clipPath id="clipPath3625">
   <path id="path3627" d="m0 0v96h96v-96h-96zm12 6h72c3.324 0 6 2.676 6 6v72c0 3.324-2.676 6-6 6h-72c-3.324 0-6-2.676-6-6v-72c0-3.324 2.676-6 6-6z"/>
  </clipPath>
  <linearGradient id="linearGradient3737">
   <stop id="stop3739" stop-color="#fff"/>
   <stop id="stop3741" stop-color="#fff" stop-opacity="0" offset="1"/>
  </linearGradient>
  <linearGradient id="linearGradient31361" gradientUnits="userSpaceOnUse" x2="0" gradientTransform="matrix(5.5614 0 0 5.5614 -68.443 384.26)" y1="90" y2="5.988">
   <stop id="stop3702" stop-color="#2276c5"/>
   <stop id="stop3704" stop-color="#68baf4" offset="1"/>
  </linearGradient>
  <radialGradient id="radialGradient31364" cx="48" xlink:href="#linearGradient3737" gradientUnits="userSpaceOnUse" cy="90.17" r="42" gradientTransform="matrix(6.4363 0 0 5.5387 -110.44 -170.79)"/>
  <linearGradient id="linearGradient31367" xlink:href="#linearGradient3737" gradientUnits="userSpaceOnUse" x2="0" gradientTransform="matrix(5.5614 0 0 5.5614 -68.443 -171.89)" y1="6" y2="63.893"/>
  <linearGradient id="linearGradient31370" gradientUnits="userSpaceOnUse" x2="0" gradientTransform="matrix(5.5614 0 0 5.5614 -68.443 -171.89)" y1="6" y2="90.02">
   <stop id="stop3639" stop-color="#f0f0f0"/>
   <stop id="stop3641" stop-color="#dcdcdc" offset="1"/>
  </linearGradient>
  <filter id="filter3794" width="1.384" y="-0.192" x="-0.192" height="1.384" color-interpolation-filters="sRGB">
   <feGaussianBlur id="feGaussianBlur3796" stdDeviation="5.28"/>
  </filter>
  <linearGradient id="linearGradient3613" y2="138.66" gradientUnits="userSpaceOnUse" y1="20.221" x2="0">
   <stop id="stop3739-0" stop-color="#fff"/>
   <stop id="stop3741-6" stop-color="#fff" stop-opacity="0" offset="1"/>
  </linearGradient>
  <clipPath id="clipPath3613">
   <rect id="rect3615" rx="6" height="84" width="84" y="6" x="6" fill="#fff"/>
  </clipPath>
  <clipPath id="clipPath3613-1">
   <rect id="rect3615-2" rx="6" height="84" width="84" y="6" x="6" fill="#fff"/>
  </clipPath>
 </defs>
 <path id="path8-2" fill-rule="evenodd" fill="#BF9E73" d="m471.95 253.05c0 120.9-98.006 218.91-218.91 218.91s-218.91-98.006-218.91-218.91 98.006-218.91 218.91-218.91 218.91 98.006 218.91 218.91"/>
 <path id="path3789" fill-rule="evenodd" fill="#BF9E73" d="m222.16 36.312c-24.243 3.4227-47.208 10.814-68.219 21.5v390.47c21.011 10.685 43.977 18.077 68.219 21.5v-433.47z" color="#000000"/>
 <path id="path3791" fill-rule="evenodd" fill="#BF9E73" d="m253.03 34.156c-10.481 0-20.787 0.73192-30.875 2.1562v433.47c10.088 1.4243 20.394 2.1875 30.875 2.1875 12.744 0 25.228-1.1288 37.375-3.2188v-431.41c-12.147-2.0898-24.632-3.1875-37.375-3.1875z" color="#000000"/>
 <path id="path3793" fill-rule="evenodd" fill="#BF9E73" d="m290.41 37.344v431.41c24.351-4.1897 47.328-12.38 68.219-23.906v-383.59c-20.89-11.525-43.87-19.717-68.22-23.906z" color="#000000"/>
 <path id="path3797" fill-rule="evenodd" fill="#BF9E73" d="m153.94 57.812c-71.102 36.16-119.82 110.02-119.82 195.25 0 85.233 48.713 159.06 119.81 195.22v-390.47z" color="#000000"/>
 <path id="path10-1" d="m256 1c-140.83 0-255 114.17-255 255s114.17 255 255 255 255-114.17 255-255-114.17-255-255-255m8.827 44.931c120.9 0 218.9 98 218.9 218.9s-98 218.9-218.9 218.9-218.93-98-218.93-218.9 98.03-218.9 218.93-218.9" fill-rule="evenodd" fill-opacity="0.067"/>
 <path id="path14-0" d="m256 4.43c-138.94 0-251.57 112.63-251.57 251.57s112.63 251.57 251.57 251.57 251.57-112.63 251.57-251.57-112.63-251.57-251.57-251.57m5.885 38.556c120.9 0 218.9 98 218.9 218.9s-98 218.9-218.9 218.9-218.93-98-218.93-218.9 98.03-218.9 218.93-218.9" fill-rule="evenodd" fill-opacity="0.129"/>
 <path id="path16-3" d="m256 8.36c-136.77 0-247.64 110.87-247.64 247.64s110.87 247.64 247.64 247.64 247.64-110.87 247.64-247.64-110.87-247.64-247.64-247.64m2.942 31.691c120.9 0 218.9 98 218.9 218.9s-98 218.9-218.9 218.9-218.93-98-218.93-218.9 98.03-218.9 218.93-218.9" fill-rule="evenodd" fill-opacity="0.129"/>
 <path id="path18-1" d="m253.04 7.86c-135.42 0-245.19 109.78-245.19 245.19 0 135.42 109.78 245.19 245.19 245.19 135.42 0 245.19-109.78 245.19-245.19 0-135.42-109.78-245.19-245.19-245.19zm0 26.297c120.9 0 218.9 98 218.9 218.9s-98 218.9-218.9 218.9-218.93-98-218.93-218.9 98.03-218.9 218.93-218.9z" stroke-opacity="0.31" fill-rule="evenodd" stroke="#000" stroke-width="4.904" fill="#fff"/>
 <path id="rect5116" opacity="0.2" fill="#fff" d="m253.03 34.156c-120.9 0-218.91 98.009-218.91 218.91 0 4.19 0.14269 8.3368 0.375 12.469h437.09c0.23224-4.1313 0.34375-8.2794 0.34375-12.469 0-120.9-98.009-218.91-218.91-218.91z"/>
 <path id="path4635" opacity="0.25" fill-rule="evenodd" d="m225.06 171.41v17.31l8 8h-8v17.31l8 8h-8v17.31l8 8h-8v17.32l8 8h-8v6.75l-6.75-6.75h-16.72l-50.62-50.63h-60.595v17.31l8 8h-8v17.32l8 8h-8v17.31l8 8h-8v17.31l8 8h-8v17.31l128.74 128.75c11.05 1.72 22.38 2.63 33.91 2.63 120.9 0 218.91-98.01 218.91-218.91 0-11.53-0.88-22.85-2.6-33.9l-47.75-47.75h-60.56v17.31l8 8h-8v17.31l8 8h-8v8.03l-8.03-8.03h-16.69l-50.62-50.62h-60.63z" color="#000000"/>
 <path id="path3787" fill-rule="evenodd" fill="#fff" d="m225.06 171.41v17.312h60.625v-17.312h-60.625zm135.97 0v17.312h60.562v-17.312h-60.562zm-135.97 25.312v17.312h60.625v-17.312h-60.625zm135.97 0v17.312h60.562v-17.312h-60.562zm-270.66 25.312v17.312h60.594v-17.312h-60.594zm134.69 0v17.312h60.625v-17.312h-60.625zm67.375 0v17.312h60.562v-17.312h-60.562zm68.594 0v17.312h60.562v-17.312h-60.562zm-270.66 25.312v17.312h60.594v-17.312h-60.594zm134.69 0v17.312h60.625v-17.312h-60.625zm67.375 0v17.312h60.562v-17.312h-60.562zm68.594 0v17.312h60.562v-17.312h-60.562zm-270.66 25.312v17.312h60.594v-17.312h-60.594zm67.375 0v17.312h60.562v-17.312h-60.562zm67.312 0v17.312h60.625v-17.312h-60.625zm67.375 0v17.312h60.562v-17.312h-60.562zm68.594 0v17.312h60.562v-17.312h-60.562zm-270.66 25.312v17.312h60.594v-17.312h-60.594zm67.375 0v17.312h60.562v-17.312h-60.562zm67.312 0v17.312h60.625v-17.312h-60.625zm67.375 0v17.312h60.562v-17.312h-60.562zm68.594 0v17.312h60.562v-17.312h-60.562zm-270.66 25.312v17.312h60.594v-17.312h-60.594zm67.375 0v17.312h60.562v-17.312h-60.562zm67.312 0v17.312h60.625v-17.312h-60.625zm67.375 0v17.312h60.562v-17.312h-60.562zm68.594 0v17.312h60.562v-17.312h-60.562z" color="#000000"/>
</svg>
