<?xml version="1.0" encoding="UTF-8" standalone="no"?>
<svg xmlns="http://www.w3.org/2000/svg" height="512" viewBox="0 0 512 512" width="512" version="1.1">
 <metadata id="metadata26"/>
 <g id="g4" transform="translate(0,-540.36)" fill-rule="evenodd">
  <path id="path6" d="m280 423.79c0 78.898-63.959 142.86-142.86 142.86-78.898 0-142.86-63.959-142.86-142.86 0-78.898 63.959-142.86 142.86-142.86 78.898 0 142.86 63.959 142.86 142.86" fill="#BF9E73" transform="matrix(1.5323 0 0 1.5323 42.896 144.03)"/>
  <path id="path8" fill-opacity="0.067" d="m256 541.36c-140.83 0-255 114.17-255 255s114.17 255 255 255 255-114.17 255-255-114.17-255-255-255m8.827 44.931c120.9 0 218.9 98 218.9 218.9s-98 218.9-218.9 218.9-218.93-98-218.93-218.9 98.03-218.9 218.93-218.9"/>
  <g id="g10" fill-opacity="0.129">
   <path id="path12" d="m256 544.79c-138.94 0-251.57 112.63-251.57 251.57s112.63 251.54 251.57 251.54 251.57-112.6 251.57-251.54-112.63-251.57-251.57-251.57m5.885 38.556c120.9 0 218.9 98 218.9 218.9s-98 218.9-218.9 218.9-218.93-98-218.93-218.9 98.03-218.9 218.93-218.9"/>
   <path id="path14" d="m256 548.72c-136.77 0-247.64 110.87-247.64 247.64s110.87 247.64 247.64 247.64 247.64-110.87 247.64-247.64-110.87-247.64-247.64-247.64m2.942 31.691c120.9 0 218.9 98 218.9 218.9s-98 218.9-218.9 218.9-218.93-98-218.93-218.9 98.03-218.9 218.93-218.9"/>
  </g>
  <path id="path16" d="m253.04 548.22c-135.42 0-245.19 109.78-245.19 245.19 0 135.42 109.78 245.19 245.19 245.19 135.42 0 245.19-109.78 245.19-245.19 0-135.42-109.78-245.19-245.19-245.19zm0 26.297c120.9 0 218.9 98 218.9 218.9s-98 218.9-218.9 218.9-218.93-98-218.93-218.9 98.03-218.9 218.93-218.9z" stroke-opacity="0.31" stroke="#000" stroke-width="4.904" fill="#fff"/>
  <path id="path18" d="m254 102.91c-36.464 47.855-160.36 182.81-107.59 260.81 2.758 4.077 5.971 7.878 9.563 11.406 0.258 0.263 0.519 0.521 0.781 0.781 0.134 0.137 0.271 0.27 0.406 0.406 0.185 0.18 0.376 0.352 0.563 0.531 0.328 0.337 0.665 0.668 1 1 0.246 0.253 0.5 0.5 0.75 0.75 0.428 0.444 0.841 0.909 1.281 1.344 0.328 0.336 0.665 0.669 1 1 0.345 0.353 0.71 0.684 1.063 1.031 0.299 0.305 0.602 0.605 0.906 0.906 0.134 0.137 0.271 0.27 0.406 0.406 0.185 0.18 0.376 0.352 0.563 0.531 0.246 0.253 0.5 0.5 0.75 0.75 0.428 0.444 0.841 0.909 1.281 1.344 0.328 0.336 0.665 0.669 1 1 0.36 0.369 0.757 0.7 1.125 1.063 0.284 0.29 0.555 0.589 0.844 0.875 0.134 0.137 0.271 0.27 0.406 0.406 0.185 0.18 0.376 0.352 0.563 0.531 0.246 0.253 0.5 0.5 0.75 0.75 0.428 0.444 0.841 0.909 1.281 1.344 0.328 0.336 0.665 0.669 1 1 0.36 0.369 0.757 0.7 1.125 1.063 0.284 0.29 0.555 0.589 0.844 0.875 0.134 0.137 0.271 0.27 0.406 0.406 0.185 0.18 0.376 0.352 0.563 0.531 0.328 0.337 0.665 0.668 1 1 0.246 0.253 0.5 0.5 0.75 0.75 0.428 0.444 0.841 0.909 1.281 1.344 0.425 0.435 0.876 0.854 1.313 1.281 0.021 0.021 0.042 0.041 0.063 0.063 0.163 0.159 0.336 0.311 0.5 0.469 0.39 0.401 0.788 0.793 1.188 1.188 0.108 0.11 0.204 0.234 0.313 0.344 0.185 0.18 0.376 0.352 0.563 0.531 0.246 0.253 0.5 0.5 0.75 0.75 0.428 0.444 0.841 0.909 1.281 1.344 0.328 0.336 0.665 0.669 1 1 0.36 0.369 0.757 0.7 1.125 1.063 0.284 0.29 0.555 0.589 0.844 0.875 0.134 0.137 0.271 0.27 0.406 0.406 0.185 0.18 0.376 0.352 0.563 0.531 0.246 0.253 0.5 0.5 0.75 0.75 0.428 0.444 0.841 0.909 1.281 1.344 0.328 0.336 0.665 0.669 1 1 0.36 0.369 0.757 0.7 1.125 1.063 0.284 0.29 0.555 0.589 0.844 0.875 0.134 0.137 0.271 0.27 0.406 0.406 0.185 0.18 0.376 0.352 0.563 0.531 0.328 0.337 0.665 0.668 1 1 0.246 0.253 0.5 0.5 0.75 0.75 0.428 0.444 0.841 0.909 1.281 1.344 0.36 0.369 0.757 0.7 1.125 1.063 0.284 0.29 0.555 0.589 0.844 0.875 0.134 0.137 0.271 0.27 0.406 0.406 0.185 0.18 0.376 0.352 0.563 0.531 0.328 0.337 0.665 0.668 1 1 0.246 0.253 0.5 0.5 0.75 0.75 0.428 0.444 0.841 0.909 1.281 1.344 0.328 0.336 0.665 0.669 1 1 0.345 0.353 0.71 0.684 1.063 1.031 0.299 0.305 0.602 0.605 0.906 0.906 0.134 0.137 0.271 0.27 0.406 0.406 0.185 0.18 0.376 0.352 0.563 0.531 0.246 0.253 0.5 0.5 0.75 0.75 0.428 0.444 0.841 0.909 1.281 1.344 0.328 0.336 0.665 0.669 1 1 0.36 0.369 0.757 0.7 1.125 1.063 0.284 0.29 0.555 0.589 0.844 0.875 0.134 0.137 0.271 0.27 0.406 0.406 0.185 0.18 0.376 0.352 0.563 0.531 0.246 0.253 0.5 0.5 0.75 0.75 0.428 0.444 0.841 0.909 1.281 1.344 0.328 0.336 0.665 0.669 1 1 0.36 0.369 0.757 0.7 1.125 1.063 0.284 0.29 0.555 0.589 0.844 0.875 0.134 0.137 0.271 0.27 0.406 0.406 0.185 0.18 0.376 0.352 0.563 0.531 0.328 0.337 0.665 0.668 1 1 0.246 0.253 0.5 0.5 0.75 0.75 0.428 0.444 0.841 0.909 1.281 1.344 0.425 0.435 0.876 0.854 1.313 1.281 0.021 0.021 0.042 0.041 0.063 0.063 0.163 0.159 0.336 0.311 0.5 0.469 0.39 0.401 0.788 0.793 1.188 1.188 0.108 0.11 0.204 0.234 0.313 0.344 0.185 0.18 0.376 0.352 0.563 0.531 0.246 0.253 0.5 0.5 0.75 0.75 0.428 0.444 0.841 0.909 1.281 1.344 0.328 0.336 0.665 0.669 1 1 0.36 0.369 0.757 0.7 1.125 1.063 0.284 0.29 0.555 0.589 0.844 0.875 0.134 0.137 0.271 0.27 0.406 0.406 0.185 0.18 0.376 0.352 0.563 0.531 0.246 0.253 0.5 0.5 0.75 0.75 0.428 0.444 0.841 0.909 1.281 1.344 0.328 0.336 0.665 0.669 1 1 0.36 0.369 0.757 0.7 1.125 1.063 0.284 0.29 0.555 0.589 0.844 0.875 0.134 0.137 0.271 0.27 0.406 0.406 0.185 0.18 0.376 0.352 0.563 0.531 0.328 0.337 0.665 0.668 1 1 0.246 0.253 0.5 0.5 0.75 0.75 0.428 0.444 0.841 0.909 1.281 1.344 0.36 0.369 0.757 0.7 1.125 1.063 0.284 0.29 0.555 0.589 0.844 0.875 0.134 0.137 0.271 0.27 0.406 0.406 0.185 0.18 0.376 0.352 0.563 0.531 0.328 0.337 0.665 0.668 1 1 0.246 0.253 0.5 0.5 0.75 0.75 0.428 0.444 0.841 0.909 1.281 1.344 0.328 0.336 0.665 0.669 1 1 0.345 0.353 0.71 0.684 1.063 1.031 0.299 0.305 0.602 0.605 0.906 0.906 0.134 0.137 0.271 0.27 0.406 0.406 0.185 0.18 0.376 0.352 0.563 0.531 0.195 0.2 0.395 0.396 0.594 0.594h0.188c99.21 0 183-66.02 209.88-156.5-3.471-4.635-6.519-8.883-8.906-12.563-0.059 0.078-0.128 0.172-0.188 0.25-0.275-0.414-0.552-0.848-0.813-1.25-0.059 0.078-0.128 0.172-0.188 0.25-0.275-0.414-0.552-0.848-0.813-1.25-0.059 0.078-0.128 0.172-0.188 0.25-0.275-0.414-0.552-0.848-0.813-1.25-0.051 0.067-0.105 0.151-0.156 0.219-0.268-0.403-0.559-0.796-0.813-1.188-0.055 0.072-0.132 0.146-0.188 0.219-0.27-0.407-0.556-0.824-0.813-1.219-0.055 0.072-0.132 0.146-0.188 0.219-0.27-0.407-0.556-0.824-0.813-1.219-0.059 0.078-0.128 0.172-0.188 0.25-0.275-0.414-0.552-0.848-0.813-1.25-0.059 0.078-0.128 0.172-0.188 0.25-0.275-0.414-0.552-0.848-0.813-1.25-0.059 0.078-0.128 0.172-0.188 0.25-0.275-0.414-0.552-0.848-0.813-1.25-0.051 0.067-0.105 0.151-0.156 0.219-0.268-0.403-0.559-0.796-0.813-1.188-0.055 0.072-0.132 0.146-0.188 0.219-0.27-0.407-0.556-0.824-0.813-1.219-0.055 0.072-0.132 0.146-0.188 0.219-0.27-0.407-0.556-0.824-0.813-1.219-0.059 0.078-0.128 0.172-0.188 0.25-0.275-0.414-0.552-0.848-0.813-1.25-0.059 0.078-0.128 0.172-0.188 0.25-0.275-0.414-0.552-0.848-0.813-1.25-0.059 0.078-0.128 0.172-0.188 0.25-0.275-0.414-0.552-0.848-0.813-1.25-0.055 0.072-0.132 0.147-0.188 0.219-0.266-0.401-0.529-0.798-0.781-1.188-0.055 0.072-0.132 0.146-0.188 0.219-0.273-0.411-0.554-0.82-0.813-1.219-0.055 0.072-0.132 0.146-0.188 0.219-0.27-0.407-0.556-0.824-0.813-1.219-0.06 0.078-0.127 0.171-0.188 0.25-0.275-0.414-0.552-0.848-0.813-1.25-0.059 0.078-0.128 0.172-0.188 0.25-0.275-0.414-0.552-0.848-0.813-1.25-0.059 0.078-0.128 0.172-0.188 0.25-0.275-0.414-0.552-0.848-0.813-1.25-0.055 0.072-0.132 0.147-0.188 0.219-0.266-0.401-0.529-0.798-0.781-1.188-0.055 0.072-0.132 0.146-0.188 0.219-0.273-0.411-0.554-0.82-0.813-1.219-0.055 0.072-0.132 0.146-0.188 0.219-0.27-0.407-0.556-0.824-0.813-1.219-0.055 0.072-0.132 0.146-0.188 0.219-0.27-0.407-0.556-0.824-0.813-1.219-0.059 0.078-0.128 0.172-0.188 0.25-0.275-0.414-0.552-0.848-0.813-1.25-0.059 0.078-0.128 0.172-0.188 0.25-0.275-0.414-0.552-0.848-0.813-1.25-0.059 0.078-0.128 0.172-0.188 0.25-0.275-0.414-0.552-0.848-0.813-1.25-0.051 0.067-0.105 0.151-0.156 0.219-0.268-0.403-0.559-0.796-0.813-1.188-0.055 0.072-0.132 0.146-0.188 0.219-0.27-0.407-0.556-0.824-0.813-1.219-0.055 0.072-0.132 0.146-0.188 0.219-0.27-0.407-0.556-0.824-0.813-1.219-0.059 0.078-0.128 0.172-0.188 0.25-0.275-0.414-0.552-0.848-0.813-1.25-0.059 0.078-0.128 0.172-0.188 0.25-0.275-0.414-0.552-0.848-0.813-1.25-0.059 0.078-0.128 0.172-0.188 0.25-0.275-0.414-0.552-0.848-0.813-1.25-0.051 0.067-0.105 0.151-0.156 0.219-0.268-0.403-0.559-0.796-0.813-1.188-0.055 0.072-0.132 0.146-0.188 0.219-0.27-0.407-0.556-0.824-0.813-1.219-0.055 0.072-0.132 0.146-0.188 0.219-0.27-0.407-0.556-0.824-0.813-1.219-0.06 0.078-0.127 0.171-0.188 0.25-0.275-0.414-0.552-0.848-0.813-1.25-0.059 0.078-0.128 0.172-0.188 0.25-0.275-0.414-0.552-0.848-0.813-1.25-0.059 0.078-0.128 0.172-0.188 0.25-0.275-0.414-0.552-0.848-0.813-1.25-0.055 0.072-0.132 0.147-0.188 0.219-0.266-0.401-0.529-0.798-0.781-1.188-0.055 0.072-0.132 0.146-0.188 0.219-0.273-0.411-0.554-0.82-0.813-1.219-0.055 0.072-0.132 0.146-0.188 0.219-0.27-0.407-0.556-0.824-0.813-1.219-0.06 0.078-0.127 0.171-0.188 0.25-0.275-0.414-0.552-0.848-0.813-1.25-0.059 0.078-0.128 0.172-0.188 0.25-0.275-0.414-0.552-0.848-0.813-1.25-0.059 0.078-0.128 0.172-0.188 0.25-0.275-0.414-0.552-0.848-0.813-1.25-0.059 0.078-0.128 0.172-0.188 0.25-0.275-0.414-0.552-0.848-0.813-1.25-0.051 0.067-0.105 0.151-0.156 0.219-0.268-0.403-0.559-0.796-0.813-1.188-0.055 0.072-0.132 0.146-0.188 0.219-0.27-0.407-0.556-0.824-0.813-1.219-0.055 0.072-0.132 0.146-0.188 0.219-0.27-0.407-0.556-0.824-0.813-1.219-0.059 0.078-0.128 0.172-0.188 0.25-0.275-0.414-0.552-0.848-0.813-1.25-0.059 0.078-0.128 0.172-0.188 0.25-0.275-0.414-0.552-0.848-0.813-1.25-0.059 0.078-0.128 0.172-0.188 0.25-0.275-0.414-0.552-0.848-0.813-1.25-0.051 0.067-0.105 0.151-0.156 0.219-0.268-0.403-0.559-0.796-0.813-1.188-0.055 0.072-0.132 0.146-0.188 0.219-0.27-0.407-0.556-0.824-0.813-1.219-0.055 0.072-0.132 0.146-0.188 0.219-0.27-0.407-0.556-0.824-0.813-1.219-0.059 0.078-0.128 0.172-0.188 0.25-0.275-0.414-0.552-0.848-0.813-1.25-0.059 0.078-0.128 0.172-0.188 0.25-0.275-0.414-0.552-0.848-0.813-1.25-0.059 0.078-0.128 0.172-0.188 0.25-0.275-0.414-0.552-0.848-0.813-1.25-0.055 0.072-0.132 0.147-0.188 0.219-0.266-0.401-0.529-0.798-0.781-1.188-0.055 0.072-0.132 0.146-0.188 0.219-0.273-0.411-0.554-0.82-0.813-1.219-0.055 0.072-0.132 0.146-0.188 0.219-0.27-0.407-0.556-0.824-0.813-1.219-0.06 0.078-0.127 0.171-0.188 0.25-0.275-0.414-0.552-0.848-0.813-1.25-0.059 0.078-0.128 0.172-0.188 0.25-0.275-0.414-0.552-0.848-0.813-1.25-0.059 0.078-0.128 0.172-0.188 0.25-0.275-0.414-0.552-0.848-0.813-1.25-0.055 0.072-0.132 0.147-0.188 0.219-0.266-0.401-0.529-0.798-0.781-1.188-0.055 0.072-0.132 0.146-0.188 0.219-0.273-0.411-0.554-0.82-0.813-1.219-0.055 0.072-0.132 0.146-0.188 0.219-0.27-0.407-0.556-0.824-0.813-1.219-0.055 0.072-0.132 0.146-0.188 0.219-0.27-0.407-0.556-0.824-0.813-1.219-0.059 0.078-0.128 0.172-0.188 0.25-0.275-0.414-0.552-0.848-0.813-1.25-0.059 0.078-0.128 0.172-0.188 0.25-0.275-0.414-0.552-0.848-0.813-1.25-0.059 0.078-0.128 0.172-0.188 0.25-0.275-0.414-0.552-0.848-0.813-1.25-0.051 0.067-0.105 0.151-0.156 0.219-0.268-0.403-0.559-0.796-0.813-1.188-0.055 0.072-0.132 0.146-0.188 0.219-0.27-0.407-0.556-0.824-0.813-1.219-0.055 0.072-0.132 0.146-0.188 0.219-0.27-0.407-0.556-0.824-0.813-1.219-0.059 0.078-0.128 0.172-0.188 0.25-0.275-0.414-0.552-0.848-0.813-1.25-0.059 0.078-0.128 0.172-0.188 0.25-0.275-0.414-0.552-0.848-0.813-1.25-0.059 0.078-0.128 0.172-0.188 0.25-0.275-0.414-0.552-0.848-0.813-1.25-0.051 0.067-0.105 0.151-0.156 0.219-0.268-0.403-0.559-0.796-0.813-1.188-0.055 0.072-0.132 0.146-0.188 0.219-0.27-0.407-0.556-0.824-0.813-1.219-0.055 0.072-0.132 0.146-0.188 0.219-0.27-0.407-0.556-0.824-0.813-1.219-0.06 0.078-0.127 0.171-0.188 0.25-0.275-0.414-0.552-0.848-0.813-1.25-0.059 0.078-0.128 0.172-0.188 0.25-0.275-0.414-0.552-0.848-0.813-1.25-0.059 0.078-0.128 0.172-0.188 0.25-0.275-0.414-0.552-0.848-0.813-1.25-0.055 0.072-0.132 0.147-0.188 0.219-0.266-0.401-0.529-0.798-0.781-1.188-0.055 0.072-0.132 0.146-0.188 0.219-0.273-0.411-0.554-0.82-0.813-1.219-0.055 0.072-0.132 0.146-0.188 0.219-0.27-0.407-0.556-0.824-0.813-1.219-0.06 0.078-0.127 0.171-0.188 0.25-0.275-0.414-0.552-0.848-0.813-1.25-0.059 0.078-0.128 0.172-0.188 0.25-0.275-0.414-0.552-0.848-0.813-1.25-0.059 0.078-0.128 0.172-0.188 0.25-0.275-0.414-0.552-0.848-0.813-1.25-0.059 0.078-0.128 0.172-0.188 0.25-0.275-0.414-0.552-0.848-0.813-1.25-0.051 0.067-0.105 0.151-0.156 0.219-0.268-0.403-0.559-0.796-0.813-1.188-0.055 0.072-0.132 0.146-0.188 0.219-0.27-0.407-0.556-0.824-0.813-1.219-0.055 0.072-0.132 0.146-0.188 0.219-0.27-0.407-0.556-0.824-0.813-1.219-0.059 0.078-0.128 0.172-0.188 0.25-0.275-0.414-0.552-0.848-0.813-1.25-0.059 0.078-0.128 0.172-0.188 0.25-0.275-0.414-0.552-0.848-0.813-1.25-0.059 0.078-0.128 0.172-0.188 0.25-0.275-0.414-0.552-0.848-0.813-1.25-0.051 0.067-0.105 0.151-0.156 0.219-0.268-0.403-0.559-0.796-0.813-1.188-0.055 0.072-0.132 0.146-0.188 0.219-0.27-0.407-0.556-0.824-0.813-1.219-0.055 0.072-0.132 0.146-0.188 0.219-0.27-0.407-0.556-0.824-0.813-1.219-0.059 0.078-0.128 0.172-0.188 0.25-0.275-0.414-0.552-0.848-0.813-1.25-0.059 0.078-0.128 0.172-0.188 0.25-0.275-0.414-0.552-0.848-0.813-1.25-0.059 0.078-0.128 0.172-0.188 0.25-0.275-0.414-0.552-0.848-0.813-1.25-0.055 0.072-0.132 0.147-0.188 0.219-0.266-0.401-0.529-0.798-0.781-1.188-0.055 0.072-0.132 0.146-0.188 0.219-0.27-0.407-0.556-0.824-0.813-1.219-0.055 0.072-0.132 0.146-0.188 0.219-0.27-0.407-0.556-0.824-0.813-1.219-0.06 0.078-0.127 0.171-0.188 0.25-0.275-0.414-0.552-0.848-0.813-1.25-0.059 0.078-0.128 0.172-0.188 0.25-0.275-0.414-0.552-0.848-0.813-1.25-0.059 0.078-0.128 0.172-0.188 0.25-0.275-0.414-0.552-0.848-0.813-1.25-0.055 0.072-0.132 0.147-0.188 0.219-0.266-0.401-0.529-0.798-0.781-1.188-0.055 0.072-0.132 0.146-0.188 0.219-0.273-0.411-0.554-0.82-0.813-1.219-0.055 0.072-0.132 0.146-0.188 0.219-0.27-0.407-0.556-0.824-0.813-1.219-0.055 0.072-0.132 0.146-0.188 0.219-0.27-0.407-0.556-0.824-0.813-1.219-0.059 0.078-0.128 0.172-0.188 0.25-0.275-0.414-0.552-0.848-0.813-1.25-0.059 0.078-0.128 0.172-0.188 0.25-0.275-0.414-0.552-0.848-0.813-1.25-0.059 0.078-0.128 0.172-0.188 0.25-0.275-0.414-0.552-0.848-0.813-1.25-0.051 0.067-0.105 0.151-0.156 0.219-0.268-0.403-0.559-0.796-0.813-1.188-0.055 0.072-0.132 0.146-0.188 0.219-0.27-0.407-0.556-0.824-0.813-1.219-0.055 0.072-0.132 0.146-0.188 0.219-0.27-0.407-0.556-0.824-0.813-1.219-0.059 0.078-0.128 0.172-0.188 0.25-0.275-0.414-0.552-0.848-0.813-1.25-0.059 0.078-0.128 0.172-0.188 0.25-0.275-0.414-0.552-0.848-0.813-1.25-0.059 0.078-0.128 0.172-0.188 0.25-0.275-0.414-0.552-0.848-0.813-1.25-0.051 0.067-0.105 0.151-0.156 0.219-0.268-0.403-0.559-0.796-0.813-1.188-0.055 0.072-0.132 0.146-0.188 0.219-0.27-0.407-0.556-0.824-0.813-1.219-0.055 0.072-0.132 0.146-0.188 0.219-0.27-0.407-0.556-0.824-0.813-1.219-0.06 0.078-0.127 0.171-0.188 0.25-0.275-0.414-0.552-0.848-0.813-1.25-0.059 0.078-0.128 0.172-0.188 0.25-0.275-0.414-0.552-0.848-0.813-1.25-0.059 0.078-0.128 0.172-0.188 0.25-0.275-0.414-0.552-0.848-0.813-1.25-0.055 0.072-0.132 0.147-0.188 0.219-0.266-0.401-0.529-0.798-0.781-1.188-0.055 0.072-0.132 0.146-0.188 0.219-0.273-0.411-0.554-0.82-0.813-1.219-0.055 0.072-0.132 0.146-0.188 0.219-0.27-0.407-0.556-0.824-0.813-1.219-0.06 0.078-0.127 0.171-0.188 0.25-0.275-0.414-0.552-0.848-0.813-1.25-0.059 0.078-0.128 0.172-0.188 0.25-0.275-0.414-0.552-0.848-0.813-1.25-0.059 0.078-0.128 0.172-0.188 0.25-0.275-0.414-0.552-0.848-0.813-1.25-0.059 0.078-0.128 0.172-0.188 0.25-0.275-0.414-0.552-0.848-0.813-1.25-0.051 0.067-0.105 0.151-0.156 0.219-0.268-0.403-0.559-0.796-0.813-1.188-0.055 0.072-0.132 0.146-0.188 0.219-0.27-0.407-0.556-0.824-0.813-1.219-0.055 0.072-0.132 0.146-0.188 0.219-0.27-0.407-0.556-0.824-0.813-1.219-0.059 0.078-0.128 0.172-0.188 0.25-0.275-0.414-0.552-0.848-0.813-1.25-0.059 0.078-0.128 0.172-0.188 0.25-0.275-0.414-0.552-0.848-0.813-1.25-0.059 0.078-0.128 0.172-0.188 0.25-0.275-0.414-0.552-0.848-0.813-1.25-0.051 0.067-0.105 0.151-0.156 0.219-0.268-0.403-0.559-0.796-0.813-1.188-0.055 0.072-0.132 0.146-0.188 0.219-0.27-0.407-0.556-0.824-0.813-1.219-0.055 0.072-0.132 0.146-0.188 0.219-0.27-0.407-0.556-0.824-0.813-1.219-0.059 0.078-0.128 0.172-0.188 0.25-0.275-0.414-0.552-0.848-0.813-1.25-0.059 0.078-0.128 0.172-0.188 0.25-0.275-0.414-0.552-0.848-0.813-1.25-0.059 0.078-0.128 0.172-0.188 0.25-0.275-0.414-0.552-0.848-0.813-1.25-0.055 0.072-0.132 0.147-0.188 0.219-0.266-0.401-0.529-0.798-0.781-1.188-0.055 0.072-0.132 0.146-0.188 0.219-0.27-0.407-0.556-0.824-0.813-1.219-0.055 0.072-0.132 0.146-0.188 0.219-0.27-0.407-0.556-0.824-0.813-1.219-0.06 0.078-0.127 0.171-0.188 0.25-0.275-0.414-0.552-0.848-0.813-1.25-0.059 0.078-0.128 0.172-0.188 0.25-0.275-0.414-0.552-0.848-0.813-1.25-0.059 0.078-0.128 0.172-0.188 0.25-0.275-0.414-0.552-0.848-0.813-1.25-0.055 0.072-0.132 0.147-0.188 0.219-0.266-0.401-0.529-0.798-0.781-1.188-0.055 0.072-0.132 0.146-0.188 0.219-0.273-0.411-0.554-0.82-0.813-1.219-0.055 0.072-0.132 0.146-0.188 0.219-0.27-0.407-0.556-0.824-0.813-1.219-0.06 0.078-0.127 0.171-0.188 0.25-0.275-0.414-0.552-0.848-0.813-1.25-0.059 0.078-0.128 0.172-0.188 0.25-0.275-0.414-0.552-0.848-0.813-1.25-0.059 0.078-0.128 0.172-0.188 0.25-0.275-0.414-0.552-0.848-0.813-1.25-0.059 0.078-0.128 0.172-0.188 0.25-0.275-0.414-0.552-0.848-0.813-1.25-0.051 0.067-0.105 0.151-0.156 0.219-0.268-0.403-0.559-0.796-0.813-1.188-0.055 0.072-0.132 0.146-0.188 0.219-0.27-0.407-0.556-0.824-0.813-1.219-0.055 0.072-0.132 0.146-0.188 0.219-0.27-0.407-0.556-0.824-0.813-1.219-0.059 0.078-0.128 0.172-0.188 0.25-0.275-0.414-0.552-0.848-0.813-1.25-0.059 0.078-0.128 0.172-0.188 0.25-0.275-0.414-0.552-0.848-0.813-1.25-0.059 0.078-0.128 0.172-0.188 0.25-0.275-0.414-0.552-0.848-0.813-1.25-0.051 0.067-0.105 0.151-0.156 0.219-0.268-0.403-0.559-0.796-0.813-1.188-0.055 0.072-0.132 0.146-0.188 0.219-0.27-0.407-0.556-0.824-0.813-1.219-0.055 0.072-0.132 0.146-0.188 0.219-0.27-0.407-0.556-0.824-0.813-1.219-0.06 0.078-0.127 0.171-0.188 0.25-0.275-0.414-0.552-0.848-0.813-1.25-0.059 0.078-0.128 0.172-0.188 0.25-0.275-0.414-0.552-0.848-0.813-1.25-0.059 0.078-0.128 0.172-0.188 0.25-0.275-0.414-0.552-0.848-0.813-1.25-0.055 0.072-0.132 0.147-0.188 0.219-0.266-0.401-0.529-0.798-0.781-1.188-0.055 0.072-0.132 0.146-0.188 0.219-0.273-0.411-0.554-0.82-0.813-1.219-0.055 0.072-0.132 0.146-0.188 0.219-0.27-0.407-0.556-0.824-0.813-1.219-0.06 0.078-0.127 0.171-0.188 0.25-0.275-0.414-0.552-0.848-0.813-1.25-0.059 0.078-0.128 0.172-0.188 0.25-0.275-0.414-0.552-0.848-0.813-1.25-0.059 0.078-0.128 0.172-0.188 0.25-0.275-0.414-0.552-0.848-0.813-1.25-0.059 0.078-0.128 0.172-0.188 0.25-0.275-0.414-0.552-0.848-0.813-1.25-0.051 0.067-0.105 0.151-0.156 0.219-0.268-0.403-0.559-0.796-0.813-1.188-0.055 0.072-0.132 0.146-0.188 0.219-0.27-0.407-0.556-0.824-0.813-1.219-0.055 0.072-0.132 0.146-0.188 0.219-0.27-0.407-0.556-0.824-0.813-1.219-0.059 0.078-0.128 0.172-0.188 0.25-0.275-0.414-0.552-0.848-0.813-1.25-0.059 0.078-0.128 0.172-0.188 0.25-0.275-0.414-0.552-0.848-0.813-1.25-0.059 0.078-0.128 0.172-0.188 0.25-0.275-0.414-0.552-0.848-0.813-1.25-0.051 0.067-0.105 0.151-0.156 0.219-0.268-0.403-0.559-0.796-0.813-1.188-0.055 0.072-0.132 0.146-0.188 0.219-0.27-0.407-0.556-0.824-0.813-1.219-0.055 0.072-0.132 0.146-0.188 0.219-0.27-0.407-0.556-0.824-0.813-1.219-0.059 0.078-0.128 0.172-0.188 0.25-0.275-0.414-0.552-0.848-0.813-1.25-0.059 0.078-0.128 0.172-0.188 0.25-0.275-0.414-0.552-0.848-0.813-1.25-0.059 0.078-0.128 0.172-0.188 0.25-0.275-0.414-0.552-0.848-0.813-1.25-0.051 0.067-0.105 0.151-0.156 0.219-0.268-0.403-0.559-0.796-0.813-1.188-0.055 0.072-0.132 0.146-0.188 0.219-0.27-0.407-0.556-0.824-0.813-1.219-0.055 0.072-0.132 0.146-0.188 0.219-0.27-0.407-0.556-0.824-0.813-1.219-0.06 0.078-0.127 0.171-0.188 0.25-0.275-0.414-0.552-0.848-0.813-1.25-0.059 0.078-0.128 0.172-0.188 0.25-0.275-0.414-0.552-0.848-0.813-1.25-0.059 0.078-0.128 0.172-0.188 0.25-0.275-0.414-0.552-0.848-0.813-1.25-0.055 0.072-0.132 0.147-0.188 0.219-0.266-0.401-0.529-0.798-0.781-1.188-0.055 0.072-0.132 0.146-0.188 0.219-0.273-0.411-0.554-0.82-0.813-1.219-0.055 0.072-0.132 0.146-0.188 0.219-0.27-0.407-0.556-0.824-0.813-1.219-0.06 0.078-0.127 0.171-0.188 0.25-0.275-0.414-0.552-0.848-0.813-1.25" fill-opacity="0.235" transform="translate(0,540.36)"/>
 </g>
 <path id="path20" d="m254 102.9c-36.464 47.855-160.35 182.81-107.58 260.81 40.833 60.36 179.63 60.668 219.99 0 52.5-78.91-81.37-212.96-112.41-260.81m-32.25 104.38c1.975-0.103 3.786-0.065 5.726 0 3.143 0.105 6.328 0.299 9.342 0.897 48.22 9.571 57.861 47.855 57.861 47.855s-48.22-38.28-77.15 0 28.93 95.71 67.5 105.28c17.14 4.254 30.25 14.212 39.779 23.928-54.05 25.932-141.25 16.558-171.47-28.11-28.11-41.544-6.148-89.987 26.22-138.18 13.654-6.213 28.368-10.942 42.19-11.665" fill-opacity="0.996" fill="#fff"/>
</svg>
