<?xml version="1.0" encoding="UTF-8" standalone="no"?>
<svg xmlns="http://www.w3.org/2000/svg" height="512" viewBox="0 0 512 512" width="512" version="1.1">
 <metadata id="metadata82"/>
 <g id="g4" fill-rule="evenodd">
  <path id="path6" fill="#BF9E73" d="m471.95 253.05c0 120.9-98.01 218.9-218.9 218.9-120.9 0-218.9-98.01-218.9-218.9 0-120.9 98.01-218.9 218.9-218.9 120.9 0 218.9 98.01 218.9 218.9"/>
  <path id="path8" fill-opacity="0.235" d="m139.72 135.72c-61.43 0-61.719 66.16-61.719 66.16v75.22c0 14.15 9.737 33.01 19.19 42.44 0.186 0.186 0.377 0.35 0.563 0.531 0.147 0.151 0.291 0.323 0.438 0.469 0.248 0.247 0.473 0.48 0.719 0.719 0.091 0.092 0.19 0.191 0.281 0.281 0.175 0.169 0.357 0.335 0.531 0.5 0.157 0.161 0.312 0.344 0.469 0.5 0.175 0.169 0.357 0.335 0.531 0.5 0.148 0.152 0.29 0.321 0.438 0.469 0.186 0.179 0.378 0.356 0.563 0.531 0.147 0.151 0.291 0.323 0.438 0.469 0.182 0.176 0.382 0.36 0.563 0.531 0.147 0.151 0.291 0.323 0.438 0.469 0.186 0.186 0.377 0.35 0.563 0.531 0.147 0.151 0.291 0.323 0.438 0.469 0.186 0.186 0.377 0.35 0.563 0.531 0.147 0.151 0.291 0.323 0.438 0.469 0.248 0.247 0.473 0.48 0.719 0.719 0.091 0.092 0.19 0.191 0.281 0.281 0.175 0.169 0.357 0.335 0.531 0.5 0.148 0.152 0.29 0.321 0.438 0.469 0.186 0.179 0.378 0.356 0.563 0.531 0.148 0.152 0.29 0.321 0.438 0.469 0.182 0.176 0.382 0.36 0.563 0.531 0.147 0.151 0.291 0.323 0.438 0.469 0.182 0.176 0.382 0.36 0.563 0.531 0.147 0.151 0.291 0.323 0.438 0.469 0.186 0.186 0.377 0.35 0.563 0.531 0.147 0.151 0.291 0.323 0.438 0.469 0.248 0.247 0.473 0.48 0.719 0.719 0.091 0.092 0.19 0.191 0.281 0.281 0.175 0.169 0.357 0.335 0.531 0.5 0.148 0.152 0.29 0.321 0.438 0.469 0.186 0.179 0.378 0.356 0.563 0.531 0.148 0.152 0.29 0.321 0.438 0.469 0.182 0.176 0.382 0.36 0.563 0.531 0.147 0.151 0.291 0.323 0.438 0.469 0.182 0.176 0.382 0.36 0.563 0.531 0.147 0.151 0.291 0.323 0.438 0.469 0.186 0.186 0.377 0.35 0.563 0.531 0.147 0.151 0.291 0.323 0.438 0.469 0.248 0.247 0.473 0.48 0.719 0.719 0.091 0.092 0.19 0.191 0.281 0.281 0.175 0.169 0.357 0.335 0.531 0.5 0.148 0.152 0.29 0.321 0.438 0.469l0.031 0.031c0.175 0.169 0.357 0.335 0.531 0.5 0.148 0.152 0.29 0.321 0.438 0.469 0.186 0.179 0.378 0.356 0.563 0.531 0.147 0.151 0.291 0.323 0.438 0.469 0.182 0.176 0.382 0.36 0.563 0.531 0.147 0.151 0.291 0.323 0.438 0.469 0.186 0.186 0.377 0.35 0.563 0.531 0.147 0.151 0.291 0.323 0.438 0.469 0.248 0.247 0.473 0.48 0.719 0.719 0.091 0.092 0.19 0.191 0.281 0.281 0.175 0.169 0.357 0.335 0.531 0.5 0.157 0.161 0.312 0.344 0.469 0.5 0.175 0.169 0.357 0.335 0.531 0.5 0.148 0.152 0.29 0.321 0.438 0.469 0.186 0.179 0.378 0.356 0.563 0.531 0.147 0.151 0.291 0.323 0.438 0.469 0.182 0.176 0.382 0.36 0.563 0.531 0.147 0.151 0.291 0.323 0.438 0.469 0.186 0.186 0.377 0.35 0.563 0.531 0.147 0.151 0.291 0.323 0.438 0.469 0.176 0.175 0.357 0.329 0.531 0.5 0.157 0.161 0.312 0.344 0.469 0.5 0.097 0.097 0.185 0.186 0.281 0.281 1.775 5.282 4.847 9.92 8.719 13.656 0.322 0.336 0.666 0.677 1 1 0.322 0.336 0.666 0.646 1 0.969 0.327 0.342 0.66 0.672 1 1 0.433 0.452 0.858 0.885 1.313 1.313 0.305 0.311 0.59 0.639 0.906 0.938 0.248 0.254 0.495 0.504 0.75 0.75 0.322 0.336 0.666 0.677 1 1 0.332 0.347 0.686 0.699 1.031 1.031 0.312 0.325 0.645 0.625 0.969 0.938 0.433 0.452 0.858 0.885 1.313 1.313 0.305 0.311 0.59 0.639 0.906 0.938 0.248 0.254 0.495 0.504 0.75 0.75 0.322 0.336 0.666 0.677 1 1 0.332 0.347 0.686 0.699 1.031 1.031 0.312 0.325 0.645 0.625 0.969 0.938 0.327 0.342 0.66 0.672 1 1 0.403 0.421 0.796 0.85 1.219 1.25 0.33 0.338 0.657 0.676 1 1 0.248 0.254 0.495 0.504 0.75 0.75 0.322 0.336 0.666 0.677 1 1 0.322 0.336 0.666 0.646 1 0.969 0.327 0.342 0.66 0.672 1 1 0.433 0.452 0.858 0.885 1.313 1.313 0.305 0.311 0.59 0.639 0.906 0.938 0.248 0.254 0.495 0.504 0.75 0.75 0.322 0.336 0.666 0.677 1 1 0.322 0.336 0.666 0.646 1 0.969 0.327 0.342 0.66 0.672 1 1 0.433 0.452 0.858 0.885 1.313 1.313 0.305 0.311 0.59 0.639 0.906 0.938 0.248 0.254 0.495 0.504 0.75 0.75 0.322 0.336 0.666 0.677 1 1 0.332 0.347 0.686 0.699 1.031 1.031 0.312 0.325 0.645 0.625 0.969 0.938 0.327 0.342 0.66 0.672 1 1 0.403 0.421 0.796 0.85 1.219 1.25 0.33 0.338 0.657 0.676 1 1 0.248 0.254 0.495 0.504 0.75 0.75 0.332 0.347 0.686 0.699 1.031 1.031 0.312 0.325 0.645 0.625 0.969 0.938 0.327 0.342 0.66 0.672 1 1 0.408 0.427 0.791 0.845 1.219 1.25 0.33 0.338 0.657 0.676 1 1 0.248 0.254 0.495 0.504 0.75 0.75 0.322 0.336 0.666 0.677 1 1 0.322 0.336 0.666 0.646 1 0.969 0.327 0.342 0.66 0.672 1 1 0.433 0.452 0.858 0.885 1.313 1.313 0.305 0.311 0.59 0.639 0.906 0.938 0.248 0.254 0.495 0.504 0.75 0.75 0.322 0.336 0.666 0.677 1 1 0.332 0.347 0.686 0.699 1.031 1.031 0.312 0.325 0.645 0.625 0.969 0.938 0.433 0.452 0.858 0.885 1.313 1.313 0.305 0.311 0.59 0.639 0.906 0.938 0.248 0.254 0.495 0.504 0.75 0.75 0.322 0.336 0.666 0.677 1 1 0.332 0.347 0.686 0.699 1.031 1.031 0.312 0.325 0.645 0.625 0.969 0.938 0.327 0.342 0.66 0.672 1 1 0.403 0.421 0.796 0.85 1.219 1.25 0.33 0.338 0.657 0.676 1 1 0.248 0.254 0.495 0.504 0.75 0.75 0.322 0.336 0.666 0.677 1 1 0.322 0.336 0.666 0.646 1 0.969 0.327 0.342 0.66 0.672 1 1 0.433 0.452 0.858 0.885 1.313 1.313 0.305 0.311 0.59 0.639 0.906 0.938 0.248 0.254 0.495 0.504 0.75 0.75 0.322 0.336 0.666 0.677 1 1 0.322 0.336 0.666 0.646 1 0.969 0.327 0.342 0.66 0.672 1 1 0.433 0.452 0.858 0.885 1.313 1.313 0.305 0.311 0.59 0.639 0.906 0.938 0.248 0.254 0.495 0.504 0.75 0.75 0.322 0.336 0.666 0.677 1 1 0.332 0.347 0.686 0.699 1.031 1.031 0.312 0.325 0.645 0.625 0.969 0.938 0.433 0.452 0.858 0.885 1.313 1.313 0.305 0.311 0.59 0.639 0.906 0.938 0.248 0.254 0.495 0.504 0.75 0.75 0.322 0.336 0.666 0.677 1 1 0.332 0.347 0.686 0.699 1.031 1.031 0.312 0.325 0.645 0.625 0.969 0.938 0.327 0.342 0.66 0.672 1 1 0.408 0.427 0.791 0.845 1.219 1.25 0.33 0.338 0.657 0.676 1 1 0.248 0.254 0.495 0.504 0.75 0.75 0.322 0.336 0.666 0.677 1 1 0.322 0.336 0.666 0.646 1 0.969 0.327 0.342 0.66 0.672 1 1 0.433 0.452 0.858 0.885 1.313 1.313 0.305 0.311 0.59 0.639 0.906 0.938 0.248 0.254 0.495 0.504 0.75 0.75 0.322 0.336 0.666 0.677 1 1 0.332 0.347 0.686 0.699 1.031 1.031 0.312 0.325 0.645 0.625 0.969 0.938 0.433 0.452 0.858 0.885 1.313 1.313 0.305 0.311 0.59 0.639 0.906 0.938 0.248 0.254 0.495 0.504 0.75 0.75 0.322 0.336 0.666 0.677 1 1 0.332 0.347 0.686 0.699 1.031 1.031 0.312 0.325 0.645 0.625 0.969 0.938 0.327 0.342 0.66 0.672 1 1 0.403 0.421 0.796 0.85 1.219 1.25 0.237 0.243 0.478 0.481 0.719 0.719 2.849 0.11 5.687 0.219 8.563 0.219 120.9 0 218.91-98.01 218.91-218.91 0-0.209 0.001-0.416 0-0.625-0.128-0.116-0.259-0.226-0.406-0.344-0.23-0.291-0.533-0.561-0.875-0.844-0.281-0.386-0.677-0.753-1.156-1.125-0.262-0.323-0.568-0.657-0.969-0.969-0.253-0.312-0.553-0.636-0.938-0.938-0.227-0.288-0.533-0.564-0.875-0.844-0.24-0.33-0.606-0.649-1-0.969-0.243-0.335-0.597-0.676-1-1-0.23-0.317-0.561-0.599-0.938-0.906-0.243-0.35-0.607-0.693-1.031-1.031-0.241-0.332-0.595-0.649-1-0.969-0.236-0.325-0.573-0.655-0.969-0.969-0.239-0.329-0.595-0.652-1-0.969-0.236-0.325-0.568-0.655-0.969-0.969-0.234-0.322-0.602-0.659-1-0.969-0.228-0.314-0.582-0.635-0.969-0.938-0.227-0.329-0.564-0.652-0.969-0.969-0.231-0.335-0.582-0.647-1-0.969-0.23-0.332-0.583-0.649-1-0.969-0.226-0.327-0.559-0.655-0.969-0.969-0.236-0.343-0.59-0.703-1.031-1.031-0.214-0.294-0.539-0.592-0.906-0.875-0.217-0.328-0.587-0.654-1-0.969-0.224-0.341-0.592-0.674-1.031-1-0.218-0.325-0.522-0.658-0.938-0.969-0.21-0.316-0.567-0.603-0.969-0.906-0.213-0.347-0.583-0.669-1.031-1-0.212-0.33-0.541-0.654-0.969-0.969-0.213-0.335-0.559-0.681-1-1-0.21-0.319-0.549-0.634-0.969-0.938-0.209-0.335-0.555-0.651-1-0.969-0.206-0.33-0.559-0.656-1-0.969-0.197-0.322-0.511-0.632-0.938-0.938-0.198-0.346-0.562-0.673-1.031-1-0.206-0.342-0.527-0.679-1-1-0.202-0.327-0.517-0.662-0.969-0.969-0.196-0.319-0.528-0.637-0.969-0.938-0.192-0.334-0.533-0.656-1-0.969-0.158-0.275-0.428-0.55-0.781-0.813-0.09-0.107-0.183-0.206-0.281-0.313-0.012-0.016-0.019-0.046-0.031-0.063-0.115-0.123-0.25-0.253-0.375-0.375-0.02-0.018-0.042-0.045-0.063-0.063-0.29-0.358-0.627-0.71-1-1.063-0.262-0.311-0.551-0.63-0.875-0.938-0.252-0.301-0.534-0.609-0.844-0.906-0.222-0.268-0.482-0.516-0.75-0.781-0.315-0.397-0.679-0.796-1.094-1.188-0.241-0.285-0.52-0.562-0.813-0.844-0.25-0.302-0.505-0.607-0.813-0.906-0.291-0.357-0.629-0.71-1-1.063-0.247-0.293-0.512-0.585-0.813-0.875-0.259-0.313-0.556-0.628-0.875-0.938-0.265-0.32-0.579-0.621-0.906-0.938-0.279-0.338-0.589-0.698-0.938-1.031-0.264-0.313-0.551-0.628-0.875-0.938-0.268-0.317-0.578-0.624-0.906-0.938-0.246-0.291-0.516-0.587-0.813-0.875-0.243-0.293-0.519-0.585-0.813-0.875-0.28-0.344-0.588-0.691-0.938-1.031-0.283-0.34-0.618-0.664-0.969-1-0.248-0.293-0.515-0.585-0.813-0.875-0.262-0.316-0.555-0.625-0.875-0.938-0.289-0.349-0.609-0.686-0.969-1.031-0.242-0.286-0.523-0.561-0.813-0.844-0.246-0.296-0.517-0.582-0.813-0.875-0.312-0.383-0.667-0.778-1.063-1.156-0.255-0.298-0.539-0.58-0.844-0.875-0.264-0.312-0.557-0.629-0.875-0.938-0.269-0.319-0.549-0.654-0.875-0.969-0.251-0.297-0.543-0.581-0.844-0.875-0.275-0.329-0.571-0.674-0.906-1-0.276-0.327-0.603-0.645-0.938-0.969-0.241-0.283-0.496-0.563-0.781-0.844-0.272-0.328-0.576-0.644-0.906-0.969-0.277-0.332-0.57-0.672-0.906-1-0.278-0.329-0.602-0.644-0.938-0.969-0.224-0.262-0.458-0.521-0.719-0.781-0.293-0.358-0.638-0.708-1-1.063-0.293-0.348-0.611-0.687-0.969-1.031-0.25-0.29-0.519-0.588-0.813-0.875-0.249-0.294-0.518-0.584-0.813-0.875-0.305-0.366-0.657-0.732-1.031-1.094-0.246-0.285-0.524-0.561-0.813-0.844-0.264-0.311-0.561-0.629-0.875-0.938-0.287-0.338-0.592-0.697-0.938-1.031-0.237-0.276-0.506-0.539-0.781-0.813-3.626-4.342-12.136-8.479-22.594-10.5-4.294-0.83-8.44-1.218-12.156-1.188-6.194 0.05-11.228 1.25-14.03 3.344-1.224 0.915-2.01 2-2.281 3.25h-0.031v0.094l-2.406 12.375 1.156 0.219-0.156 0.781 0.25 0.031 0.906 0.188-0.156 0.781c0.002 0 0.531 0.094 0.531 0.094l0.625 0.125-0.156 0.781 0.781 0.125 0.344 0.063-0.156 0.781c0.004 0.001 1.063 0.219 1.063 0.219l0.094 0.031c-0.017 0.088-0.156 0.75-0.156 0.75 0.004 0.001 0.914 0.172 1.156 0.219l-0.156 0.781c0.004 0.001 0.701 0.131 1.156 0.219-0.019 0.096-0.156 0.781-0.156 0.781 0.004 0.001 0.617 0.114 1.156 0.219-0.019 0.096-0.156 0.781-0.156 0.781 0.004 0.001 0.583 0.108 1.156 0.219-0.016 0.084-0.123 0.676-0.125 0.688l-10.313-2-2.531 13.09 1.125 0.219-0.125 0.719v0.063l1.125 0.219-0.125 0.625v0.156l1.125 0.219-0.094 0.563-0.031 0.219 1.125 0.219-0.094 0.5-0.063 0.25 1.156 0.219-0.094 0.469c0 0.003-0.063 0.313-0.063 0.313l1.156 0.219-0.094 0.406-0.063 0.375 1.156 0.219-0.063 0.313c-0.001 0.004-0.094 0.469-0.094 0.469l1.156 0.219-0.063 0.25-0.094 0.531 1.125 0.219-0.031 0.188c-0.001 0.005-0.094 0.594-0.094 0.594l1.125 0.219-0.031 0.125-0.125 0.625 1.156 0.219v0.063c0 0.003-0.033 0.161-0.063 0.313l-12.625-2.438-4.125 21.375h-0.469v-0.969h-1v-1h-1v-1h-1v-1h-1v-1h-1v-1h-0.969v-0.969h-1v-1h-1v-1h-1v-1h-1v-1h-1v-1h-0.969v-0.969h-1v-1h-1v-1h-1v-1h-1v-1h-1v-1h-1v-1h-0.969v-0.969h-1v-1h-1v-1h-1v-1h-1v-1h-1v-1h-0.969v-0.969h-1v-1h-1v-1h-1v-1h-1v-1h-1v-1h-0.969v-0.969h-1v-1h-1v-1h-1v-1h-1v-1h-1v-1h-0.969v-0.969h-1v-1h-1v-1h-1v-1h-1v-1h-1v-1h-1v-1h-0.969v-0.969h-1v-1h-1v-1h-1v-1h-1v-1h-1v-1h-0.969v-0.969h-1v-1h-1v-1h-1v-1h-1v-1h-1v-1h-0.969v-0.969h-1v-1h-1v-1h-1v-1h-1v-1h-1v-1h-1v-1h-0.969v-0.969h-1v-1h-1v-1h-1v-1h-1v-1h-1v-1h-0.969v-0.969h-1v-1h-1v-1h-1.001v-1h-1v-1h-1v-1h-0.969v-0.969h-1v-1h-1.001v-1h-1v-1h-1.001v-1h-1v-1h-0.969v-0.969h-1v-1h-1v-1h-1.001v-1h-14.25l-14.313 37.594h-6.875c-0.005-0.005-0.026 0.005-0.031 0-0.167-0.176-0.33-0.357-0.5-0.531-0.153-0.148-0.314-0.291-0.469-0.438-0.183-0.183-0.345-0.382-0.531-0.563-0.327-0.334-0.663-0.673-1-1-0.194-0.198-0.396-0.398-0.594-0.594-0.132-0.138-0.272-0.269-0.406-0.406-0.197-0.191-0.393-0.374-0.594-0.563-0.131-0.137-0.274-0.271-0.406-0.406-0.2-0.194-0.39-0.402-0.594-0.594-0.333-0.33-0.657-0.677-1-1-0.127-0.133-0.246-0.274-0.375-0.406-0.203-0.197-0.418-0.399-0.625-0.594-0.127-0.133-0.246-0.274-0.375-0.406-0.048-0.046-0.108-0.079-0.156-0.125-0.285-0.289-0.551-0.591-0.844-0.875-0.194-0.198-0.396-0.398-0.594-0.594-0.132-0.138-0.272-0.269-0.406-0.406-0.133-0.129-0.271-0.247-0.406-0.375-0.068-0.068-0.119-0.151-0.188-0.219-0.127-0.133-0.277-0.243-0.406-0.375-0.2-0.194-0.39-0.402-0.594-0.594-0.132-0.138-0.272-0.269-0.406-0.406-0.2-0.194-0.39-0.402-0.594-0.594-0.127-0.133-0.246-0.274-0.375-0.406-0.203-0.197-0.418-0.399-0.625-0.594-0.127-0.133-0.246-0.274-0.375-0.406-0.048-0.046-0.108-0.079-0.156-0.125-0.285-0.289-0.551-0.591-0.844-0.875-0.327-0.334-0.663-0.673-1-1-0.194-0.198-0.396-0.398-0.594-0.594-0.132-0.138-0.272-0.269-0.406-0.406-0.197-0.191-0.393-0.374-0.594-0.563-0.131-0.137-0.274-0.271-0.406-0.406-0.2-0.194-0.39-0.402-0.594-0.594-0.333-0.33-0.657-0.678-1-1-0.127-0.133-0.246-0.274-0.375-0.406-0.203-0.197-0.418-0.399-0.625-0.594-0.127-0.133-0.246-0.274-0.375-0.406-0.048-0.046-0.108-0.079-0.156-0.125-0.285-0.289-0.551-0.591-0.844-0.875-0.327-0.334-0.663-0.673-1-1-0.194-0.198-0.396-0.398-0.594-0.594-0.132-0.138-0.272-0.269-0.406-0.406-0.197-0.191-0.393-0.374-0.594-0.563-0.132-0.138-0.272-0.269-0.406-0.406-0.2-0.194-0.39-0.402-0.594-0.594-0.127-0.133-0.246-0.274-0.375-0.406-0.203-0.197-0.418-0.399-0.625-0.594-0.127-0.133-0.246-0.274-0.375-0.406-0.205-0.199-0.416-0.397-0.625-0.594-0.127-0.133-0.246-0.274-0.375-0.406-0.048-0.046-0.108-0.079-0.156-0.125-0.285-0.289-0.551-0.591-0.844-0.875-0.194-0.198-0.396-0.398-0.594-0.594-0.132-0.138-0.272-0.269-0.406-0.406-0.133-0.129-0.271-0.247-0.406-0.375-0.068-0.068-0.119-0.151-0.188-0.219-0.127-0.133-0.277-0.243-0.406-0.375-0.2-0.194-0.39-0.402-0.594-0.594-0.066-0.069-0.121-0.15-0.188-0.219-0.069-0.067-0.149-0.12-0.219-0.188-9.06-9.245-22.12-15.938-41-15.938"/>
  <path id="path10" fill-opacity="0.067" d="m256 1c-140.83 0-255 114.17-255 255s114.17 255 255 255 255-114.17 255-255-114.17-255-255-255m8.827 44.931c120.9 0 218.9 98 218.9 218.9s-98 218.9-218.9 218.9-218.93-98-218.93-218.9 98.03-218.9 218.93-218.9"/>
  <g id="g12" fill-opacity="0.129">
   <path id="path14" d="m256 4.433c-138.94 0-251.57 112.63-251.57 251.57s112.63 251.57 251.57 251.57 251.57-112.63 251.57-251.57-112.63-251.57-251.57-251.57m5.885 38.556c120.9 0 218.9 98 218.9 218.9s-98 218.9-218.9 218.9-218.93-98-218.93-218.9 98.03-218.9 218.93-218.9"/>
   <path id="path16" d="m256 8.356c-136.77 0-247.64 110.87-247.64 247.64s110.87 247.64 247.64 247.64 247.64-110.87 247.64-247.64-110.87-247.64-247.64-247.64m2.942 31.691c120.9 0 218.9 98 218.9 218.9s-98 218.9-218.9 218.9-218.93-98-218.93-218.9 98.03-218.9 218.93-218.9"/>
  </g>
  <path id="path18" d="m253.04 7.859c-135.42 0-245.19 109.78-245.19 245.19 0 135.42 109.78 245.19 245.19 245.19 135.42 0 245.19-109.78 245.19-245.19 0-135.42-109.78-245.19-245.19-245.19zm0 26.297c120.9 0 218.9 98 218.9 218.9s-98 218.9-218.9 218.9-218.93-98-218.93-218.9 98.03-218.9 218.93-218.9z" stroke-opacity="0.31" stroke="#000" stroke-width="4.904" fill="#fff"/>
 </g>
 <g id="g66" fill-rule="evenodd" fill="#fff">
  <path id="path68" d="m139.71 135.72c-61.43 0-61.698 66.15-61.698 66.15v75.22c0 14.15 9.712 33.01 19.16 42.44 16.706 16.673 28.26 14.28 28.26 14.28s0.157 4.649 4.882 18.796c4.725 14.15 18.626 23.678 32.802 23.678s19.16-4.882 19.16-4.882v-18.796s-4.83 0.169-14.28-4.546c-9.452-4.716-9.429-14.25-9.429-14.25s14.08-4.649 28.26-18.796c14.176-14.15 14.311-37.928 14.311-37.928v-70.7s0.006-70.67-61.42-70.67m93.58 9.734-14.311 37.592h-9.429v18.827h9.429v99.2s0.083 23.343 23.709 23.343 28.29-9.398 28.29-9.398v-18.16c-0.443 1.326-2.341 4.211-9.429 4.211-9.451 0-13.975-9.398-13.975-9.398v-89.8h23.404v-18.81h-23.404v-37.592h-14.28m-90.65 13.945c23.631 0 23.709 23.343 23.709 23.343v94.35s-0.083 33.05-23.709 33.05c-23.631 0-23.709-33.05-23.709-33.05v-89.5s0.083-28.19 23.709-28.19"/>
  <g id="g70" transform="matrix(.53304 -.36035 .36035 .53304 -157.52 -91.73)">
   <path id="path72" d="m373.71 816.11-89.45 89.45-10.993 10.993-2.798 2.798-22.315 69.941a9.1038 10.143 45 0 0 2.929 10.074 9.1038 10.143 45 0 0 8.1696 1.1033l70.926-22.381 2.312-2.312 10.678-10.678 89.76-89.76-59.22-59.22m-59.105 119.08a2.5406 2.5406 0 0 1 0.86687 2.0227l-0.985 21.19 3.875 3.875a2.5406 2.5406 0 0 1 -1.1427 4.2424l-33.453 8.945a2.5406 2.5406 0 0 1 -2.4561 -0.64359l-6.488-6.488a2.5406 2.5406 0 0 1 -0.65672 -2.4955l9.759-34.37a2.5406 2.5406 0 0 1 4.2424 -1.1164l5.214 5.214 19.426-0.985a2.5406 2.5406 0 0 1 1.7994 0.61732"/>
   <path id="path74" d="m424.88 228.19c-2.372 0.112-4.319 0.85-5.75 2.219l-0.031-0.031-0.094 0.125-13.875 13.844 59.22 59.25 13.875-13.875c0.031-0.031 0.063-0.062 0.094-0.094 6.409-6.66-1.515-25.08-17.844-41.41-12.818-12.818-26.903-20.442-35.594-20.03" transform="translate(0,540.36)"/>
   <path id="path76" d="m397.44 792.4 59.23 59.23-14.668 14.668-59.23-59.23z"/>
  </g>
 </g>
</svg>
