<?xml version="1.0" encoding="UTF-8" standalone="no"?>
<svg xmlns="http://www.w3.org/2000/svg" height="512" viewBox="0 0 512 512" width="512" version="1.1">
 <metadata id="metadata72"/>
 <path id="path4" d="m471.95 253.05c0 120.9-98.01 218.9-218.9 218.9-120.9 0-218.9-98.01-218.9-218.9 0-120.9 98.01-218.9 218.9-218.9 120.9 0 218.9 98.01 218.9 218.9" fill-rule="evenodd" fill="#BF9E73"/>
 <path id="path6" fill-opacity="0.235" d="m244.06 116.78c-0.273-0.124-12.982 10.543-28.25 23.813-22.1 19.2-28.15 24.16-29.563 24.16h-0.031c-1.057-0.01-16.681-1.484-35-3.406h-0.031c-18.367-1.927-33.509-3.397-33.656-3.25-0.003 0.003 0.007 0.013 0 0.031-0.755 1.853-25.653 84.22-26 86.03-0.003 0.015-0.004 0.011 0 0.031 0.061 0.285 0.856 1.206 2.406 2.688 0.397 0.421 0.939 0.94 1.625 1.594 0.358 0.375 0.774 0.768 1.344 1.313 0.4 0.426 0.918 0.983 1.625 1.656 0.358 0.374 0.775 0.768 1.344 1.313 0.4 0.426 0.919 0.983 1.625 1.656 0.309 0.323 0.596 0.612 1.063 1.063 0.439 0.487 1.183 1.233 2.125 2.125 0.272 0.279 0.47 0.483 0.844 0.844 0.385 0.427 1.01 1.012 1.781 1.75 0.399 0.425 0.919 0.984 1.625 1.656 0.357 0.374 0.775 0.768 1.344 1.313 0.399 0.425 0.92 0.984 1.625 1.656 0.308 0.323 0.597 0.613 1.063 1.063 0.438 0.486 1.184 1.234 2.125 2.125 0.272 0.279 0.47 0.483 0.844 0.844 0.384 0.426 1.01 1.013 1.781 1.75 0.398 0.424 0.92 0.984 1.625 1.656 0.308 0.322 0.597 0.613 1.063 1.063 0.405 0.45 1.068 1.108 1.906 1.906 0.307 0.322 0.598 0.613 1.063 1.063 0.436 0.485 1.185 1.235 2.125 2.125 0.271 0.278 0.471 0.484 0.844 0.844 0.418 0.465 1.12 1.163 2 2 0.374 0.389 0.814 0.841 1.406 1.406 0.307 0.322 0.598 0.614 1.063 1.063 0.435 0.484 1.186 1.235 2.125 2.125 0.271 0.278 0.471 0.484 0.844 0.844 0.435 0.484 1.186 1.235 2.125 2.125 0.27 0.278 0.471 0.484 0.844 0.844 0.416 0.463 1.121 1.164 2 2 0.385 0.401 0.85 0.88 1.469 1.469 0.297 0.309 0.563 0.578 1 1 0.434 0.483 1.187 1.236 2.125 2.125 0.27 0.277 0.472 0.484 0.844 0.844 0.433 0.482 1.188 1.236 2.125 2.125 0.27 0.277 0.472 0.484 0.844 0.844 0.388 0.433 1.019 1.054 1.813 1.813 0.43 0.458 1.028 1.068 1.813 1.813 0.27 0.277 0.472 0.485 0.844 0.844 0.446 0.497 1.234 1.288 2.219 2.219 0.249 0.254 0.42 0.431 0.75 0.75 0.431 0.481 1.189 1.237 2.125 2.125 0.269 0.277 0.473 0.485 0.844 0.844 0.387 0.431 1.02 1.054 1.813 1.813 0.429 0.457 1.028 1.069 1.813 1.813 0.269 0.276 0.473 0.485 0.844 0.844 0.431 0.482 1.186 1.234 2.125 2.125 0.269 0.276 0.473 0.485 0.844 0.844 0.444 0.496 1.236 1.289 2.219 2.219 0.307 0.313 0.601 0.619 1.031 1.031 0.392 0.421 0.92 0.952 1.625 1.625 0.357 0.376 0.764 0.788 1.344 1.344 0.377 0.404 0.866 0.895 1.531 1.531 0.427 0.456 1.03 1.07 1.813 1.813 0.268 0.276 0.473 0.486 0.844 0.844 0.407 0.455 1.106 1.147 1.969 1.969 0.348 0.365 0.731 0.754 1.281 1.281 0.402 0.432 0.955 0.99 1.688 1.688 0.348 0.365 0.731 0.754 1.281 1.281 0.376 0.403 0.867 0.895 1.531 1.531 0.426 0.455 1.03 1.07 1.813 1.813 0.323 0.332 0.653 0.672 1.125 1.125 0.391 0.42 0.92 0.951 1.625 1.625 0.355 0.375 0.765 0.789 1.344 1.344 0.401 0.431 0.956 0.99 1.688 1.688 0.347 0.364 0.732 0.754 1.281 1.281 0.38 0.408 0.885 0.915 1.563 1.563 0.423 0.45 1.016 1.055 1.781 1.781 0.322 0.332 0.653 0.672 1.125 1.125 0.39 0.42 0.92 0.952 1.625 1.625 0.354 0.374 0.766 0.789 1.344 1.344 0.39 0.419 0.921 0.952 1.625 1.625 0.354 0.374 0.766 0.789 1.344 1.344 0.415 0.446 1.01 1.047 1.781 1.781 0.362 0.377 0.775 0.8 1.344 1.344 0.362 0.383 0.809 0.803 1.406 1.375 0.386 0.413 0.881 0.943 1.563 1.594 0.353 0.373 0.767 0.79 1.344 1.344 0.389 0.418 0.922 0.953 1.625 1.625 0.353 0.373 0.767 0.79 1.344 1.344 0.413 0.445 1.01 1.048 1.781 1.781 0.341 0.355 0.695 0.747 1.219 1.25 0.411 0.441 0.997 1 1.75 1.719 0.361 0.376 0.776 0.801 1.344 1.344 0.361 0.382 0.81 0.803 1.406 1.375 0.421 0.451 1 1.074 1.781 1.813 0.268 0.278 0.468 0.48 0.844 0.844 0.421 0.476 1.177 1.224 2.125 2.125 0.268 0.277 0.468 0.48 0.844 0.844 0.411 0.465 1.146 1.191 2.063 2.063 0.36 0.375 0.776 0.801 1.344 1.344 0.36 0.381 0.811 0.804 1.406 1.375 0.42 0.45 1.01 1.075 1.781 1.813 0.268 0.277 0.469 0.48 0.844 0.844 0.419 0.474 1.178 1.225 2.125 2.125 0.268 0.277 0.469 0.48 0.844 0.844 0.402 0.455 1.113 1.154 2 2 0.407 0.427 0.935 0.97 1.625 1.625 0.331 0.343 0.691 0.68 1.188 1.156 0.419 0.449 1.01 1.076 1.781 1.813 0.267 0.277 0.469 0.481 0.844 0.844 0.417 0.473 1.179 1.226 2.125 2.125 0.267 0.276 0.47 0.481 0.844 0.844 0.4 0.454 1.114 1.155 2 2 0.383 0.403 0.865 0.894 1.5 1.5 0.353 0.37 0.749 0.772 1.313 1.313 0.417 0.448 1.01 1.047 1.781 1.781 0.267 0.276 0.47 0.481 0.844 0.844 0.416 0.472 1.18 1.226 2.125 2.125 0.266 0.276 0.47 0.481 0.844 0.844 0.398 0.452 1.115 1.156 2 2 0.394 0.415 0.9 0.932 1.563 1.563 0.338 0.353 0.697 0.718 1.219 1.219 0.417 0.45 1.025 1.064 1.813 1.813 0.266 0.276 0.47 0.482 0.844 0.844 0.414 0.471 1.181 1.227 2.125 2.125 0.329 0.341 0.693 0.682 1.188 1.156 0.396 0.427 0.927 0.992 1.656 1.688 0.393 0.414 0.901 0.932 1.563 1.563 0.337 0.352 0.698 0.719 1.219 1.219 0.432 0.467 1.074 1.117 1.906 1.906 0.246 0.253 0.419 0.428 0.75 0.75 0.413 0.47 1.182 1.228 2.125 2.125 0.328 0.341 0.694 0.682 1.188 1.156 0.379 0.41 0.875 0.936 1.563 1.594 0.357 0.38 0.804 0.797 1.406 1.375 0.364 0.393 0.822 0.879 1.469 1.5 0.431 0.466 1.075 1.118 1.906 1.906 0.306 0.314 0.624 0.61 1.063 1.031 0.431 0.468 1.061 1.136 1.906 1.938 0.311 0.32 0.645 0.631 1.094 1.063 0.378 0.409 0.876 0.937 1.563 1.594 0.356 0.38 0.805 0.797 1.406 1.375 0.363 0.392 0.823 0.879 1.469 1.5 0.404 0.437 0.992 1.028 1.75 1.75 0.373 0.39 0.836 0.832 1.438 1.406 0.419 0.442 0.956 1.025 1.688 1.719 0.305 0.314 0.625 0.611 1.063 1.031 0.389 0.423 0.927 0.99 1.656 1.688 0.348 0.369 0.773 0.764 1.344 1.313 0.395 0.427 0.954 0.987 1.688 1.688 0.39 0.412 0.87 0.932 1.531 1.563 0.372 0.39 0.836 0.832 1.438 1.406 0.373 0.394 0.816 0.875 1.438 1.469 0.343 0.363 0.754 0.744 1.313 1.281 0.388 0.422 0.928 0.991 1.656 1.688 0.016 0.017 0.046 0.045 0.063 0.063 90.54-24.901 157.58-106.5 160.59-204.22-0.091-0.275-0.225-0.734-0.25-0.781-0.008-0.018-0.057-0.029-0.094-0.031-0.06-0.002-0.679 0.05-0.875 0.063-0.274-0.857-0.482-1.441-0.531-1.531-0.008-0.018-0.026-0.029-0.063-0.031-0.062-0.002-0.698 0.049-0.906 0.063-0.273-0.854-0.482-1.442-0.531-1.531-0.008-0.018-0.025-0.029-0.063-0.031-0.063-0.002-0.698 0.049-0.906 0.063-0.268-0.837-0.452-1.412-0.5-1.5-0.008-0.018-0.025-0.029-0.063-0.031-0.062-0.002-0.701 0.049-0.906 0.063-0.273-0.854-0.483-1.443-0.531-1.531-0.008-0.018-0.025-0.029-0.063-0.031-0.063-0.002-0.697 0.048-0.906 0.063-0.272-0.853-0.452-1.444-0.5-1.531-0.008-0.017-0.056 0.002-0.094 0-0.062-0.002-0.678 0.049-0.875 0.063-0.272-0.853-0.483-1.445-0.531-1.531-0.008-0.017-0.024-0.029-0.063-0.031-0.064-0.002-0.7 0.049-0.906 0.063-0.272-0.852-0.484-1.446-0.531-1.531-0.008-0.017-0.024-0.03-0.063-0.031-0.065-0.002-0.696 0.048-0.906 0.063-0.272-0.851-0.453-1.416-0.5-1.5-0.008-0.017-0.024-0.03-0.063-0.031-0.064-0.002-0.699 0.049-0.906 0.063-0.272-0.853-0.484-1.448-0.531-1.531-0.007-0.017-0.024-0.03-0.063-0.031-0.065-0.002-0.699 0.049-0.906 0.063-0.271-0.849-0.453-1.449-0.5-1.531-0.007-0.016-0.055 0.002-0.094 0-0.063-0.002-0.679 0.05-0.875 0.063-0.276-0.863-0.484-1.449-0.531-1.531-0.007-0.016-0.023-0.03-0.063-0.031-0.066-0.002-0.698 0.049-0.906 0.063-0.272-0.85-0.485-1.45-0.531-1.531-0.007-0.016-0.023-0.03-0.063-0.031-0.066-0.002-0.698 0.048-0.906 0.063-0.271-0.849-0.454-1.42-0.5-1.5-0.007-0.016-0.054-0.03-0.094-0.031-0.064-0.002-0.678 0.049-0.875 0.063-0.275-0.861-0.485-1.451-0.531-1.531-0.007-0.016-0.023-0.03-0.063-0.031-0.067-0.002-0.697 0.048-0.906 0.063-0.271-0.848-0.454-1.453-0.5-1.531-0.007-0.015-0.054 0.001-0.094 0-0.067-0.002-0.697 0.048-0.906 0.063-0.275-0.861-0.454-1.453-0.5-1.531-0.007-0.015-0.022-0.03-0.063-0.031-0.067-0.002-0.7 0.049-0.906 0.063-0.275-0.861-0.486-1.454-0.531-1.531-0.007-0.015-0.022-0.03-0.063-0.031-0.068-0.002-0.699 0.08-0.906 0.094-0.274-0.859-0.455-1.486-0.5-1.563-0.007-0.015-0.053 0.001-0.094 0-0.066-0.002-0.677 0.049-0.875 0.063-0.274-0.859-0.486-1.456-0.531-1.531-0.007-0.015-0.021-0.03-0.063-0.031-0.068-0.002-0.699 0.048-0.906 0.063-0.274-0.858-0.486-1.457-0.531-1.531-0.007-0.014-0.021-0.03-0.063-0.031-0.069-0.001-0.698 0.08-0.906 0.094-0.278-0.871-0.455-1.457-0.5-1.531-0.007-0.014-0.021-0.03-0.063-0.031-0.069-0.001-0.698 0.048-0.906 0.063-0.274-0.857-0.487-1.458-0.531-1.531-0.007-0.014-0.021-0.03-0.063-0.031-0.07-0.001-0.697 0.08-0.906 0.094-0.278-0.87-0.456-1.49-0.5-1.563-0.006-0.014-0.052 0.001-0.094 0-0.068-0.001-0.678 0.049-0.875 0.063-0.279-0.873-0.487-1.459-0.531-1.531-0.006-0.014-0.02-0.03-0.063-0.031-0.07-0.001-0.697 0.048-0.906 0.063-0.273-0.855-0.488-1.461-0.531-1.531-0.006-0.013-0.02-0.03-0.063-0.031-0.071-0.001-0.696 0.079-0.906 0.094-0.277-0.868-0.456-1.461-0.5-1.531-0.006-0.013-0.02-0.03-0.063-0.031-0.07-0.001-0.7 0.048-0.906 0.063-0.277-0.867-0.488-1.462-0.531-1.531-0.006-0.013-0.02-0.03-0.063-0.031-0.071-0.001-0.699 0.08-0.906 0.094-0.277-0.868-0.457-1.494-0.5-1.563-0.006-0.013-0.051 0.001-0.094 0-0.072-0.001-0.696 0.048-0.906 0.063-0.277-0.866-0.457-1.464-0.5-1.531-0.006-0.013-0.019-0.03-0.063-0.031-0.072-0.001-0.699 0.048-0.906 0.063-0.276-0.865-0.489-1.465-0.531-1.531-0.006-0.012-0.019-0.03-0.063-0.031-0.072-0.001-0.698 0.08-0.906 0.094-0.277-0.866-0.458-1.497-0.5-1.563-0.006-0.012-0.05 0.001-0.094 0-0.071-0.001-0.676 0.049-0.875 0.063-0.278-0.869-0.489-1.466-0.531-1.531-0.006-0.012-0.019-0.03-0.063-0.031-0.071-0.001-0.678 0.08-0.875 0.094-0.281-0.881-0.489-1.498-0.531-1.563-0.006-0.012-0.05 0.001-0.094 0-0.073-0.001-0.698 0.048-0.906 0.063-0.276-0.864-0.458-1.468-0.5-1.531-0.006-0.012-0.018-0.031-0.063-0.031-0.073-0.001-0.701 0.048-0.906 0.063-0.276-0.863-0.49-1.469-0.531-1.531-0.006-0.012-0.018-0.03-0.063-0.031-0.072-0.001-0.677 0.08-0.875 0.094-0.281-0.881-0.49-1.501-0.531-1.563-0.006-0.011-0.049 0.001-0.094 0-0.075-0.001-0.697 0.048-0.906 0.063-0.275-0.862-0.459-1.471-0.5-1.531-0.005-0.011-0.017-0.031-0.063-0.031-0.072-0.001-0.68 0.049-0.875 0.063-0.277-0.865-0.491-1.472-0.531-1.531-0.005-0.011-0.048 0.001-0.094 0-0.073-0.001-0.676 0.049-0.875 0.063-0.281-0.879-0.49-1.472-0.531-1.531-0.005-0.011-0.017-0.031-0.063-0.031-0.075-0.001-0.699 0.048-0.906 0.063-0.281-0.878-0.491-1.473-0.531-1.531-0.005-0.011-0.017-0.031-0.063-0.031-0.073 0-0.679 0.049-0.875 0.063-0.276-0.863-0.491-1.474-0.531-1.531-0.005-0.01-0.048 0-0.094 0-0.073 0-0.679 0.049-0.875 0.063-0.28-0.876-0.491-1.475-0.531-1.531-0.005-0.01-0.016-0.031-0.063-0.031-0.074 0-0.679 0.049-0.875 0.063-0.28-0.876-0.491-1.476-0.531-1.531-0.005-0.01-0.047 0-0.094 0-0.074 0-0.678 0.049-0.875 0.063-0.28-0.877-0.492-1.508-0.531-1.563-0.005-0.01-0.047 0-0.094 0-0.074 0-0.678 0.049-0.875 0.063-0.279-0.874-0.492-1.477-0.531-1.531-0.005-0.009-0.015-0.031-0.063-0.031-0.075 0-0.678 0.049-0.875 0.063-0.279-0.874-0.492-1.478-0.531-1.531-0.005-0.009-0.047 0-0.094 0-0.075 0-0.677 0.049-0.875 0.063-0.28-0.875-0.493-1.479-0.531-1.531-0.005-0.009-0.015-0.031-0.063-0.031-0.078 0-0.699 0.079-0.906 0.094-0.284-0.889-0.461-1.511-0.5-1.563-0.005-0.009-0.046 0-0.094 0-0.076 0-0.676 0.049-0.875 0.063-0.283-0.885-0.493-1.512-0.531-1.563-0.005-0.009-0.046 0-0.094 0-0.076 0-0.676 0.049-0.875 0.063-0.279-0.873-0.493-1.482-0.531-1.531-0.005-0.009-0.014-0.031-0.063-0.031-0.076 0-0.679 0.049-0.875 0.063-0.279-0.873-0.494-1.483-0.531-1.531-0.004-0.008-0.045 0-0.094 0-0.076 0-0.678 0.049-0.875 0.063-0.283-0.886-0.493-1.483-0.531-1.531-0.004-0.008-0.014-0.031-0.063-0.031-0.08 0-0.697 0.079-0.906 0.094-0.283-0.885-0.494-1.515-0.531-1.563-0.004-0.008-0.014 0-0.063 0-0.077 0-0.678 0.049-0.875 0.063-0.283-0.885-0.494-1.516-0.531-1.563-0.004-0.008-0.045 0-0.094 0-0.078 0-0.678 0.049-0.875 0.063-0.282-0.883-0.494-1.486-0.531-1.531-0.004-0.008-0.013-0.031-0.063-0.031-0.081 0-0.697 0.048-0.906 0.063-0.282-0.883-0.463-1.487-0.5-1.531-0.004-0.007-0.044 0-0.094 0-0.078 0-0.677 0.049-0.875 0.063-0.282-0.883-0.495-1.519-0.531-1.563-0.004-0.007-0.044 0-0.094 0-0.079 0-0.677 0.049-0.875 0.063-0.282-0.881-0.495-1.489-0.531-1.531-0.004-0.007-0.013-0.031-0.063-0.031-0.078 0-0.679 0.049-0.875 0.063-0.282-0.881-0.495-1.49-0.531-1.531-0.004-0.007-0.044 0-0.094 0-0.079 0-0.676 0.049-0.875 0.063-0.282-0.883-0.496-1.49-0.531-1.531-0.004-0.007-0.012-0.031-0.063-0.031-0.082 0-0.699 0.048-0.906 0.063-0.281-0.879-0.465-1.491-0.5-1.531-0.004-0.006-0.043 0-0.094 0-0.08 0-0.678 0.049-0.875 0.063-0.286-0.893-0.496-1.523-0.531-1.563-0.004-0.006-0.043 0-0.094 0-0.081 0.001-0.675 0.049-0.875 0.063-0.281-0.88-0.496-1.493-0.531-1.531-0.004-0.006-0.012-0.032-0.063-0.031-0.083 0.001-0.698 0.048-0.906 0.063-0.281-0.879-0.465-1.494-0.5-1.531-0.003-0.006-0.043 0-0.094 0-0.081 0.001-0.678 0.049-0.875 0.063-0.285-0.891-0.497-1.495-0.531-1.531-0.003-0.006-0.011-0.031-0.063-0.031-0.084 0.001-0.697 0.048-0.906 0.063-0.281-0.878-0.466-1.496-0.5-1.531-0.003-0.005-0.042-0.001-0.094 0-0.081 0.001-0.677 0.049-0.875 0.063-0.285-0.892-0.497-1.528-0.531-1.563-0.003-0.005-0.042-0.001-0.094 0-0.082 0.001-0.677 0.049-0.875 0.063-0.285-0.892-0.497-1.497-0.531-1.531-0.003-0.005-0.01-0.031-0.063-0.031-1.234 0.012-15.956 1.539-33.75 3.406l-0.063 0.031c-18.521 1.939-34.36 3.476-35.31 3.375-0.02-0.002-0.039 0.006-0.063 0-1.436-0.358-10.202-7.482-29.19-23.969-0.016-0.014-0.047-0.018-0.063-0.031-15.05-13.06-27.54-23.843-27.813-23.938"/>
 <g id="g8" transform="translate(0,-540.36)" fill-rule="evenodd">
  <path id="path10" fill-opacity="0.067" d="m256 541.36c-140.83 0-255 114.17-255 255s114.17 255 255 255 255-114.17 255-255-114.17-255-255-255m8.827 44.931c120.9 0 218.9 98 218.9 218.9s-98 218.9-218.9 218.9-218.93-98-218.93-218.9 98.03-218.9 218.93-218.9"/>
  <g id="g12" fill-opacity="0.129">
   <path id="path14" d="m256 544.79c-138.94 0-251.57 112.63-251.57 251.57s112.63 251.54 251.57 251.54 251.57-112.6 251.57-251.54-112.63-251.57-251.57-251.57m5.885 38.556c120.9 0 218.9 98 218.9 218.9s-98 218.9-218.9 218.9-218.93-98-218.93-218.9 98.03-218.9 218.93-218.9"/>
   <path id="path16" d="m256 548.72c-136.77 0-247.64 110.87-247.64 247.64s110.87 247.64 247.64 247.64 247.64-110.87 247.64-247.64-110.87-247.64-247.64-247.64m2.942 31.691c120.9 0 218.9 98 218.9 218.9s-98 218.9-218.9 218.9-218.93-98-218.93-218.9 98.03-218.9 218.93-218.9"/>
  </g>
  <path id="path18" d="m253.04 548.22c-135.42 0-245.19 109.78-245.19 245.19 0 135.42 109.78 245.19 245.19 245.19 135.42 0 245.19-109.78 245.19-245.19 0-135.42-109.78-245.19-245.19-245.19zm0 26.297c120.9 0 218.9 98 218.9 218.9s-98 218.9-218.9 218.9-218.93-98-218.93-218.9 98.03-218.9 218.93-218.9z" stroke-opacity="0.31" stroke="#000" stroke-width="4.904" fill="#fff"/>
 </g>
 <path id="path66" fill="#fff" d="m244.05 116.79c-0.273-0.124-12.959 10.537-28.23 23.806-22.11 19.216-28.18 24.15-29.587 24.15-0.974-0.001-16.655-1.475-35.03-3.402-18.373-1.927-33.521-3.377-33.668-3.231-0.29 0.294-25.666 84.21-26.02 86.04-0.15 0.786 10.01 9.796 34.858 30.946l35.03 29.757h12.583c6.895 0 13.799-0.286 15.474-0.487l3.061-0.332-36.899-30.606c-20.308-16.797-36.878-30.939-36.899-31.458-0.021-0.502 3.431-11.396 7.652-24.316s8.422-26.308 9.522-29.756c1.985-6.221 2.037-6.316 4.081-6.292 1.133 0 14.584 1.517 29.757 3.401l27.546 3.401 21.595-18.534c11.878-10.262 22.367-19.384 23.295-20.237l1.7-1.529 17 14.622c9.326 8.07 19.759 17.193 23.295 20.236l6.462 5.442 29.417-3.572c16.2-2 29.483-3.595 29.587-3.401 0.332 0.611 19.725 60.3 19.725 60.705 0 0.216-16.689 14.213-37.07 31.12l-37.07 30.777 3.231 0.332c1.727 0.216 8.673 0.471 15.474 0.487l12.413 0.162 34.858-29.762c19.19-16.307 34.931-29.864 35.03-30.26 0.146-0.603-25.386-86.6-25.846-87.06-0.079-0.124-15.292 1.454-33.838 3.401-18.545 1.941-34.418 3.501-35.37 3.4-1.217-0.139-9.95-7.221-29.25-23.978-15.07-13.08-27.614-23.876-27.887-23.971zm-0.34 51.863-15.644 15.814-15.474 15.984v13.774c-0.048 21.635 2.442 39.999 7.482 55.6 4.633 14.347 10.04 23.972 18.19 32.14 2.738 2.739 5.127 4.93 5.441 4.93 1.264 0 7.813-6.453 11.223-11.05 5.071-6.841 9.328-15.244 12.583-25.17 5.282-16.11 7.349-30.15 7.822-53.39l0.34-16.834-15.984-15.984-15.984-15.814m95.9 32.31c-0.16-0.155-9.249 0.778-20.235 2.041-10.986 1.253-20.374 2.38-20.745 2.38-0.435 0-0.68 2.958-0.68 8.333 0 28.319-10.19 62.45-25.336 85.02-3.509 5.228-3.85 6.214-2.381 5.272 9.81-6.303 79.7-65.42 79.41-67.17-0.318-1.914-9.734-35.577-10.03-35.879m-191.46 0.332c-0.263 0.286-2.579 8.63-5.271 18.531l-4.931 17.857 1.7 1.701c16.413 14.37 61.45 52.09 72.1 60.36 3.693 2.868 6.867 5.03 6.972 4.928 0.105-0.124-1.601-2.948-3.911-6.461-14.835-22.539-23.733-52.12-25.17-83.66-0.233-5.111-0.641-9.181-0.85-9.181s-9.305-1.132-20.235-2.383c-10.93-1.249-20.14-1.979-20.405-1.695zm59 115.96-37.07 0.155 36.899 18.873c20.224 10.322 36.879 18.602 37.07 18.534 0.19-0.124 16.873-8.448 37.07-18.704l36.729-18.702-36.899-0.155c-20.298-0.108-53.49-0.108-73.8 0.006z"/>
</svg>
