<?xml version="1.0" encoding="UTF-8" standalone="no"?>
<svg xmlns:dc="http://purl.org/dc/elements/1.1/" xmlns:cc="http://creativecommons.org/ns#" xmlns:rdf="http://www.w3.org/1999/02/22-rdf-syntax-ns#" xmlns:svg="http://www.w3.org/2000/svg" xmlns="http://www.w3.org/2000/svg" xmlns:sodipodi="http://sodipodi.sourceforge.net/DTD/sodipodi-0.dtd" xmlns:inkscape="http://www.inkscape.org/namespaces/inkscape" viewBox="0 0 512 512" id="svg2" version="1.1" inkscape:version="0.91 r" sodipodi:docname="devede.svg">
<metadata id="metadata31">
<rdf:RDF>
<cc:Work rdf:about="">
<dc:format>image/svg+xml</dc:format>
<dc:type rdf:resource="http://purl.org/dc/dcmitype/StillImage" />
</cc:Work>
</rdf:RDF>
</metadata>
<sodipodi:namedview pagecolor="#ffffff" bordercolor="#666666" borderopacity="1" objecttolerance="10" gridtolerance="10" guidetolerance="10" inkscape:pageopacity="0" inkscape:pageshadow="2" inkscape:window-width="1680" inkscape:window-height="994" id="namedview29" showgrid="false" inkscape:zoom="0.4609375" inkscape:cx="-120.40678" inkscape:cy="256" inkscape:window-x="0" inkscape:window-y="0" inkscape:window-maximized="1" inkscape:current-layer="g11" />
<defs id="defs4">
<linearGradient id="1" y2="141.65" gradientUnits="userSpaceOnUse" x2="134.94" y1="425.07" x1="490.74">
<stop stop-color="#74c23f" id="stop7" />
<stop stop-color="#f5a0b6" offset="1" id="stop9" />
</linearGradient>
</defs>
<g fill-rule="evenodd" id="g11">
<path d="m470.41 253.05c0 120.9-98.01 218.91-218.91 218.91s-218.91-98.01-218.91-218.91 98.01-218.91 218.91-218.91 218.91 98.01 218.91 218.91" fill="url(#1)" id="path13" style="fill:#BF9E73" />
<path opacity="0.25" d="m252.09 105.66c-81.62 0.101-152.84 76.62-146.16 158.31 0.731 50.969 33.782 92.4 70.16 124.59 27.76 27.677 55.53 55.46 83.31 83.25 115.68-4.103 208.49-97.97 210.94-214.06-39.03-38.943-78.1-77.79-117.34-116.5-26.791-22.834-61.793-35.68-97-35.531-1.3-0.037-2.611-0.064-3.906-0.063" id="path15" />
<path d="m256 1c-140.83 0-255 114.17-255 255s114.17 255 255 255 255-114.17 255-255-114.17-255-255-255m8.827 44.931c120.9 0 218.9 98 218.9 218.9s-98 218.9-218.9 218.9-218.93-98-218.93-218.9 98.03-218.9 218.93-218.9" fill-opacity="0.067" id="path17" />
<g fill-opacity="0.129" id="g19">
<path d="m256 4.43c-138.94 0-251.57 112.63-251.57 251.57s112.63 251.57 251.57 251.57 251.57-112.63 251.57-251.57-112.63-251.57-251.57-251.57m5.885 38.556c120.9 0 218.9 98 218.9 218.9s-98 218.9-218.9 218.9-218.93-98-218.93-218.9 98.03-218.9 218.93-218.9" id="path21" />
<path d="m256 8.36c-136.77 0-247.64 110.87-247.64 247.64s110.87 247.64 247.64 247.64 247.64-110.87 247.64-247.64-110.87-247.64-247.64-247.64m2.942 31.691c120.9 0 218.9 98 218.9 218.9s-98 218.9-218.9 218.9-218.93-98-218.93-218.9 98.03-218.9 218.93-218.9" id="path23" />
</g>
<path stroke="#000" stroke-width="4.904" d="m253.04 7.86c-135.42 0-245.19 109.78-245.19 245.19 0 135.42 109.78 245.19 245.19 245.19 135.42 0 245.19-109.78 245.19-245.19 0-135.42-109.78-245.19-245.19-245.19zm0 26.297c120.9 0 218.9 98 218.9 218.9s-98 218.9-218.9 218.9-218.93-98-218.93-218.9 98.03-218.9 218.93-218.9z" stroke-opacity="0.31" fill="#fff" id="path25" />
</g>
<path fill-rule="evenodd" d="m256 105.72c-82.998 0-150.28 67.28-150.28 150.28 0 82.998 67.28 150.28 150.28 150.28 82.998 0 150.28-67.28 150.28-150.28 0-82.998-67.28-150.28-150.28-150.28m51.793 17.899c17.756 6.938 34.391 17.565 48.734 31.908 12.07 12.07 21.539 25.789 28.365 40.41l-87.81 50.693c-1.716-7.462-5.485-14.555-11.298-20.368-6.05-6.05-13.484-9.874-21.281-11.486l43.29-91.16m-51.793 97.23c19.417 0 35.15 15.738 35.15 35.15 0 19.417-15.738 35.15-35.15 35.15-19.417 0-35.15-15.738-35.15-35.15 0-19.417 15.738-35.15 35.15-35.15m0 7.782c-15.12 0-27.373 12.256-27.373 27.373 0 15.12 12.256 27.373 27.373 27.373 15.12 0 27.373-12.256 27.373-27.373 0-15.12-12.256-27.373-27.373-27.373m0 8.05c10.671 0 19.322 8.651 19.322 19.322s-8.651 19.322-19.322 19.322-19.322-8.651-19.322-19.322 8.651-19.322 19.322-19.322m-41.461 28.634c0.322 1.399 0.716 2.792 1.181 4.16 0.155 0.456 0.312 0.89 0.483 1.342 1.369 3.618 3.237 7.07 5.636 10.278 0.299 0.4 0.598 0.789 0.912 1.181 0.949 1.18 1.964 2.313 3.059 3.408 1.891 1.891 3.908 3.563 6.04 5.02 0.426 0.291 0.854 0.585 1.288 0.859 1.742 1.099 3.541 2.052 5.394 2.871 0.923 0.409 1.847 0.761 2.791 1.1 1.416 0.509 2.868 0.961 4.321 1.315 0.484 0.118 0.962 0.221 1.449 0.322l-43.29 91.16c-1.117-0.437-2.219-0.876-3.328-1.342-1.101-0.462-2.183-0.931-3.274-1.422-2.193-0.988-4.344-2.035-6.494-3.14-1.063-0.545-2.115-1.117-3.167-1.691-0.009-0.003-0.02 0.003-0.027 0-1.059-0.578-2.093-1.164-3.14-1.771-2.1-1.218-4.177-2.477-6.226-3.811-1.021-0.665-2.025-1.346-3.03-2.04-4.04-2.779-7.959-5.774-11.754-9.02-0.942-0.805-1.865-1.635-2.791-2.469-0.005-0.005-0.022 0.005-0.027 0-0.931-0.838-1.85-1.682-2.764-2.549s-1.814-1.76-2.71-2.657c-4.533-4.533-8.685-9.294-12.479-14.25-0.631-0.825-1.241-1.633-1.852-2.469-5.501-7.52-10.168-15.469-14.01-23.696l87.81-50.693" fill="#fff" id="path27" />
</svg>
