<?xml version="1.0" encoding="UTF-8" standalone="no"?>
<svg xmlns="http://www.w3.org/2000/svg" height="512" viewBox="0 0 512 512" width="512" version="1.1">
 <metadata id="metadata74"/>
 <g id="g4" transform="translate(0,-540.36)">
  <g id="g6" fill-rule="evenodd">
   <path id="path8" fill="#BF9E73" d="m471.95 793.41c0 120.9-98.01 218.9-218.9 218.9-120.9 0-218.9-98.01-218.9-218.9 0-120.9 98.01-218.9 218.9-218.9 120.9 0 218.9 98.01 218.9 218.9"/>
   <path id="path10" d="m301.53 169.5c-10.741 0-20.11 6.04-24.813 14.906h-44.37l-61.844 61.875h-6.094c-0.365-0.38-0.744-0.76-1.125-1.125-0.326-0.336-0.662-0.645-1-0.969-0.331-0.342-0.657-0.671-1-1-0.326-0.336-0.662-0.676-1-1-0.326-0.336-0.662-0.676-1-1-0.326-0.336-0.631-0.676-0.969-1-0.326-0.336-0.662-0.676-1-1-0.326-0.336-0.662-0.676-1-1-0.326-0.336-0.662-0.645-1-0.969-0.331-0.342-0.657-0.671-1-1-0.326-0.336-0.662-0.676-1-1-0.326-0.336-0.631-0.676-0.969-1-0.326-0.336-0.662-0.676-1-1-6.839-7.06-16.429-11.438-27.03-11.438-20.766 0.001-37.594 16.828-37.594 37.594 0 10.636 4.404 20.249 11.5 27.09 0.325 0.338 0.662 0.674 1 1 0.348 0.362 0.731 0.684 1.094 1.031 0.303 0.313 0.593 0.635 0.906 0.938 0.325 0.338 0.662 0.674 1 1 0.302 0.314 0.625 0.603 0.938 0.906 0.347 0.363 0.67 0.745 1.031 1.094 0.325 0.338 0.662 0.674 1 1 0.348 0.362 0.731 0.684 1.094 1.031 0.303 0.313 0.593 0.635 0.906 0.938 0.325 0.338 0.662 0.674 1 1 0.302 0.314 0.625 0.603 0.938 0.906 0.347 0.363 0.67 0.745 1.031 1.094 0.325 0.338 0.662 0.674 1 1 0.412 0.428 0.85 0.842 1.281 1.25 0.073 0.074 0.145 0.145 0.219 0.219 0.102 0.095 0.209 0.187 0.313 0.281 0.391 0.413 0.778 0.824 1.188 1.219 0.384 0.399 0.786 0.774 1.188 1.156 0.108 0.11 0.204 0.235 0.313 0.344 0.093 0.086 0.188 0.165 0.281 0.25 0.396 0.419 0.773 0.85 1.188 1.25 0.325 0.338 0.662 0.674 1 1 0.348 0.362 0.731 0.684 1.094 1.031 0.303 0.313 0.593 0.635 0.906 0.938 0.384 0.399 0.786 0.774 1.188 1.156 0.108 0.11 0.204 0.235 0.313 0.344 0.093 0.086 0.188 0.165 0.281 0.25 0.396 0.419 0.773 0.85 1.188 1.25 0.325 0.338 0.662 0.674 1 1 0.348 0.362 0.731 0.684 1.094 1.031 0.303 0.313 0.593 0.635 0.906 0.938 0.325 0.338 0.662 0.674 1 1 0.302 0.314 0.625 0.603 0.938 0.906 0.347 0.363 0.67 0.745 1.031 1.094 0.325 0.338 0.662 0.674 1 1 0.348 0.362 0.731 0.684 1.094 1.031 0.303 0.313 0.593 0.635 0.906 0.938 0.325 0.338 0.662 0.674 1 1 0.302 0.314 0.625 0.603 0.938 0.906 0.383 0.4 0.756 0.805 1.156 1.188 0.293 0.302 0.572 0.614 0.875 0.906 0.325 0.338 0.662 0.674 1 1 0.348 0.362 0.731 0.684 1.094 1.031 0.303 0.313 0.593 0.635 0.906 0.938 0.384 0.399 0.786 0.774 1.188 1.156 0.108 0.11 0.204 0.235 0.313 0.344 0.093 0.086 0.188 0.165 0.281 0.25 0.396 0.419 0.773 0.85 1.188 1.25 0.325 0.338 0.662 0.674 1 1 0.348 0.362 0.731 0.684 1.094 1.031 0.303 0.313 0.593 0.635 0.906 0.938 0.325 0.338 0.662 0.674 1 1 0.302 0.314 0.625 0.603 0.938 0.906 0.347 0.363 0.67 0.745 1.031 1.094 0.325 0.338 0.662 0.674 1 1 0.348 0.362 0.731 0.684 1.094 1.031 0.303 0.313 0.593 0.635 0.906 0.938 0.325 0.338 0.662 0.674 1 1 0.302 0.314 0.625 0.603 0.938 0.906 0.347 0.363 0.67 0.745 1.031 1.094 0.325 0.338 0.662 0.674 1 1 0.412 0.428 0.85 0.842 1.281 1.25 0.073 0.074 0.145 0.145 0.219 0.219 0.102 0.095 0.209 0.187 0.313 0.281 0.391 0.413 0.778 0.824 1.188 1.219 0.384 0.399 0.786 0.774 1.188 1.156 0.108 0.11 0.204 0.235 0.313 0.344 0.093 0.086 0.188 0.165 0.281 0.25 0.396 0.419 0.773 0.85 1.188 1.25 0.325 0.338 0.662 0.674 1 1 0.348 0.362 0.731 0.684 1.094 1.031 0.303 0.313 0.593 0.635 0.906 0.938 0.384 0.399 0.786 0.774 1.188 1.156 0.108 0.11 0.204 0.235 0.313 0.344 0.093 0.086 0.188 0.165 0.281 0.25 0.396 0.419 0.773 0.85 1.188 1.25 0.325 0.338 0.662 0.674 1 1 0.348 0.362 0.731 0.684 1.094 1.031 0.303 0.313 0.593 0.635 0.906 0.938 0.325 0.338 0.662 0.674 1 1 0.302 0.314 0.625 0.603 0.938 0.906 0.347 0.363 0.67 0.745 1.031 1.094 0.325 0.338 0.662 0.674 1 1 0.348 0.362 0.731 0.684 1.094 1.031 0.303 0.313 0.593 0.635 0.906 0.938 0.325 0.338 0.662 0.674 1 1 0.302 0.314 0.625 0.603 0.938 0.906 0.383 0.4 0.756 0.805 1.156 1.188 0.293 0.302 0.572 0.614 0.875 0.906 0.325 0.338 0.662 0.674 1 1 0.348 0.362 0.731 0.684 1.094 1.031 0.303 0.313 0.593 0.635 0.906 0.938 0.384 0.399 0.786 0.774 1.188 1.156 0.108 0.11 0.204 0.235 0.313 0.344 0.093 0.086 0.188 0.165 0.281 0.25 0.396 0.419 0.773 0.85 1.188 1.25 0.325 0.338 0.662 0.674 1 1 0.348 0.362 0.731 0.684 1.094 1.031 0.303 0.313 0.593 0.635 0.906 0.938 0.325 0.338 0.662 0.674 1 1 0.302 0.314 0.625 0.603 0.938 0.906 0.347 0.363 0.67 0.745 1.031 1.094 0.325 0.338 0.662 0.674 1 1 0.348 0.362 0.731 0.684 1.094 1.031 0.303 0.313 0.593 0.635 0.906 0.938 0.325 0.338 0.662 0.674 1 1 0.302 0.314 0.625 0.603 0.938 0.906 0.347 0.363 0.67 0.745 1.031 1.094 0.325 0.338 0.662 0.674 1 1 0.412 0.428 0.85 0.842 1.281 1.25 0.073 0.074 0.145 0.145 0.219 0.219 0.102 0.095 0.209 0.187 0.313 0.281 0.391 0.413 0.778 0.824 1.188 1.219 0.384 0.399 0.786 0.774 1.188 1.156 0.108 0.11 0.204 0.235 0.313 0.344 0.093 0.086 0.188 0.165 0.281 0.25 0.396 0.419 0.773 0.85 1.188 1.25 0.325 0.338 0.662 0.674 1 1 0.348 0.362 0.731 0.684 1.094 1.031 0.303 0.313 0.593 0.635 0.906 0.938 0.384 0.399 0.786 0.774 1.188 1.156 0.108 0.11 0.204 0.235 0.313 0.344 0.093 0.086 0.188 0.165 0.281 0.25 0.396 0.419 0.773 0.85 1.188 1.25 0.325 0.338 0.662 0.674 1 1 0.348 0.362 0.731 0.684 1.094 1.031 0.303 0.313 0.593 0.635 0.906 0.938 0.325 0.338 0.662 0.674 1 1 0.302 0.314 0.625 0.603 0.938 0.906 0.347 0.363 0.67 0.745 1.031 1.094 0.325 0.338 0.662 0.674 1 1 0.348 0.362 0.731 0.684 1.094 1.031 0.303 0.313 0.593 0.635 0.906 0.938 0.325 0.338 0.662 0.674 1 1 0.302 0.314 0.625 0.603 0.938 0.906 0.383 0.4 0.756 0.805 1.156 1.188 0.293 0.302 0.572 0.614 0.875 0.906 0.412 0.428 0.85 0.842 1.281 1.25 0.073 0.074 0.145 0.145 0.219 0.219 0.102 0.095 0.209 0.187 0.313 0.281 0.391 0.413 0.778 0.824 1.188 1.219 0.384 0.399 0.786 0.774 1.188 1.156 0.108 0.11 0.204 0.235 0.313 0.344 0.093 0.086 0.188 0.165 0.281 0.25 0.396 0.419 0.773 0.85 1.188 1.25 0.325 0.338 0.662 0.674 1 1 0.348 0.362 0.731 0.684 1.094 1.031 0.303 0.313 0.593 0.635 0.906 0.938 0.325 0.338 0.662 0.674 1 1 0.302 0.314 0.625 0.603 0.938 0.906 0.347 0.363 0.67 0.745 1.031 1.094 0.325 0.338 0.662 0.674 1 1 0.348 0.362 0.731 0.684 1.094 1.031 0.303 0.313 0.593 0.635 0.906 0.938 0.325 0.338 0.662 0.674 1 1 0.302 0.314 0.625 0.603 0.938 0.906 0.347 0.363 0.67 0.745 1.031 1.094 0.325 0.338 0.662 0.674 1 1 0.348 0.362 0.731 0.684 1.094 1.031 0.303 0.313 0.593 0.635 0.906 0.938 0.325 0.338 0.662 0.674 1 1 0.384 0.399 0.786 0.774 1.188 1.156 0.108 0.11 0.204 0.235 0.313 0.344 0.093 0.086 0.188 0.165 0.281 0.25 0.396 0.419 0.773 0.85 1.188 1.25 0.325 0.338 0.662 0.674 1 1 0.348 0.362 0.731 0.684 1.094 1.031 0.303 0.313 0.593 0.635 0.906 0.938 0.384 0.399 0.786 0.774 1.188 1.156 0.108 0.11 0.204 0.235 0.313 0.344 0.093 0.086 0.188 0.165 0.281 0.25 0.396 0.419 0.773 0.85 1.188 1.25 0.325 0.338 0.662 0.674 1 1 0.348 0.362 0.731 0.684 1.094 1.031 0.303 0.313 0.593 0.635 0.906 0.938 0.325 0.338 0.662 0.674 1 1 0.302 0.314 0.625 0.603 0.938 0.906 0.347 0.363 0.67 0.745 1.031 1.094 0.325 0.338 0.662 0.674 1 1 0.348 0.362 0.731 0.684 1.094 1.031 0.303 0.313 0.593 0.635 0.906 0.938 0.325 0.338 0.662 0.674 1 1 0.302 0.314 0.625 0.603 0.938 0.906 0.347 0.363 0.67 0.745 1.031 1.094 0.325 0.338 0.662 0.674 1 1 0.412 0.428 0.85 0.842 1.281 1.25 0.073 0.074 0.145 0.145 0.219 0.219 0.102 0.095 0.209 0.187 0.313 0.281 0.391 0.413 0.778 0.824 1.188 1.219 0.384 0.399 0.786 0.774 1.188 1.156 0.108 0.11 0.204 0.235 0.313 0.344 0.093 0.086 0.188 0.165 0.281 0.25 0.396 0.419 0.773 0.85 1.188 1.25 0.325 0.338 0.662 0.674 1 1 0.348 0.362 0.731 0.684 1.094 1.031 0.303 0.313 0.593 0.635 0.906 0.938 0.384 0.399 0.786 0.774 1.188 1.156 0.108 0.11 0.204 0.235 0.313 0.344 0.093 0.086 0.188 0.165 0.281 0.25 0.396 0.419 0.773 0.85 1.188 1.25 0.325 0.338 0.662 0.674 1 1 0.348 0.362 0.731 0.684 1.094 1.031 0.149 0.154 0.29 0.314 0.438 0.469 91.41-12.01 165.05-80.4 184.84-169.12l-0.938-0.563 0.313-0.188-1.313-0.813c0.004-0.002 0.313-0.188 0.313-0.188-0.001-0.001-1.19-0.744-1.25-0.781 0.003-0.002 0.281-0.188 0.281-0.188l-1.313-0.813c0.004-0.002 0.313-0.188 0.313-0.188l-1.313-0.813c0.004-0.002 0.313-0.188 0.313-0.188l-1.313-0.813c0.004-0.002 0.313-0.188 0.313-0.188l-1.313-0.813c0.004-0.002 0.313-0.188 0.313-0.188l-1.313-0.813c0.004-0.002 0.313-0.188 0.313-0.188-0.001-0.001-1.218-0.773-1.281-0.813l0.313-0.188c-0.001 0-1.22-0.743-1.281-0.781 0.003-0.002 0.281-0.188 0.281-0.188l-1.313-0.813c0.004-0.002 0.313-0.188 0.313-0.188l-1.313-0.813 0.313-0.188-1.313-0.813c0.004-0.002 0.313-0.188 0.313-0.188l-1.313-0.813c0.004-0.002 0.313-0.188 0.313-0.188-0.001 0-1.218-0.774-1.281-0.813 0.004-0.002 0.313-0.188 0.313-0.188-0.001 0-1.22-0.743-1.281-0.781 0.003-0.002 0.281-0.188 0.281-0.188l-1.313-0.813 0.313-0.188-1.313-0.813c0.004-0.002 0.313-0.188 0.313-0.188l-1.313-0.813c0.004-0.002 0.313-0.188 0.313-0.188l-1.313-0.813 0.313-0.188c-0.001 0-1.218-0.774-1.281-0.813 0.004-0.002 0.313-0.188 0.313-0.188-0.001 0-1.22-0.743-1.281-0.781 0.003-0.002 0.281-0.188 0.281-0.188l-1.313-0.813 0.313-0.188-1.313-0.813c0.004-0.002 0.313-0.188 0.313-0.188l-1.313-0.813c0.004-0.002 0.313-0.188 0.313-0.188l-1.313-0.813c0.004-0.002 0.313-0.188 0.313-0.188l-1.313-0.813c0.004-0.002 0.313-0.188 0.313-0.188s-1.191-0.745-1.25-0.781c0.003-0.002 0.281-0.188 0.281-0.188v-0.031s-1.22-0.743-1.281-0.781c0.003-0.002 0.281-0.188 0.281-0.188l-1.313-0.813c0.004-0.002 0.313-0.188 0.313-0.188s-1.248-0.772-1.313-0.813l0.313-0.188-1.313-0.813c0.004-0.002 0.313-0.188 0.313-0.188l-1.313-0.813c0.004-0.002 0.313-0.188 0.313-0.188s-1.219-0.774-1.281-0.813c0.004-0.002 0.313-0.188 0.313-0.188s-1.22-0.743-1.281-0.781c0.003-0.002 0.281-0.188 0.281-0.188l-1.313-0.813c0.004-0.002 0.313-0.188 0.313-0.188l-1.313-0.813c0.004-0.002 0.313-0.188 0.313-0.188l-1.313-0.813c0.004-0.002 0.313-0.188 0.313-0.188s-1.248-0.773-1.313-0.813c0.004-0.002 0.313-0.188 0.313-0.188s-1.219-0.774-1.281-0.813c0.004-0.002 0.313-0.188 0.313-0.188s-1.22-0.743-1.281-0.781l0.281-0.188-1.313-0.813 0.313-0.188-52.06-32.25 0.031 2.469c-0.374-0.382-0.761-0.734-1.156-1.094l-0.094-0.094c-0.462-0.509-0.94-0.995-1.438-1.469-0.175-0.184-0.352-0.352-0.531-0.531-0.143-0.158-0.291-0.314-0.438-0.469-0.154-0.147-0.311-0.294-0.469-0.438l-0.094-0.094c-0.143-0.158-0.291-0.314-0.438-0.469-0.154-0.147-0.311-0.294-0.469-0.438-0.332-0.334-0.652-0.683-1-1-0.179-0.18-0.348-0.356-0.531-0.531-0.473-0.498-0.961-0.975-1.469-1.438l-0.094-0.094c-0.603-0.664-1.212-1.303-1.875-1.906l-0.094-0.094c-0.143-0.158-0.291-0.314-0.438-0.469-0.154-0.147-0.311-0.294-0.469-0.438l-0.094-0.094c-0.143-0.158-0.291-0.314-0.438-0.469-0.154-0.147-0.311-0.294-0.469-0.438-0.179-0.18-0.348-0.356-0.531-0.531-0.473-0.498-0.961-0.975-1.469-1.438l-0.094-0.094c-0.462-0.509-0.94-0.995-1.438-1.469-0.175-0.184-0.352-0.352-0.531-0.531-0.143-0.158-0.291-0.314-0.438-0.469-0.154-0.147-0.311-0.294-0.469-0.438l-0.094-0.094c-0.143-0.158-0.291-0.314-0.438-0.469-0.154-0.147-0.311-0.294-0.469-0.438-0.179-0.18-0.348-0.356-0.531-0.531-0.473-0.498-0.961-0.975-1.469-1.438l-0.094-0.094c-0.462-0.509-0.94-0.995-1.438-1.469-0.175-0.184-0.352-0.352-0.531-0.531-0.143-0.158-0.291-0.314-0.438-0.469-0.154-0.147-0.311-0.294-0.469-0.438l-0.094-0.094c-0.143-0.158-0.291-0.314-0.438-0.469-0.154-0.147-0.311-0.294-0.469-0.438-0.332-0.334-0.652-0.683-1-1-0.331-0.333-0.652-0.652-1-0.969l-0.094-0.094c-0.462-0.509-0.94-0.995-1.438-1.469-0.175-0.184-0.352-0.352-0.531-0.531-0.143-0.158-0.291-0.314-0.438-0.469-0.154-0.147-0.311-0.294-0.469-0.438l-0.094-0.094c-0.143-0.158-0.291-0.314-0.438-0.469-0.154-0.147-0.311-0.294-0.469-0.438l-0.094-0.094c-0.143-0.158-0.291-0.314-0.438-0.469-0.154-0.147-0.311-0.294-0.469-0.438-0.179-0.18-0.348-0.356-0.531-0.531-0.473-0.498-0.961-0.975-1.469-1.438l-0.094-0.094c-0.603-0.664-1.212-1.303-1.875-1.906l-0.094-0.094c-0.143-0.158-0.291-0.314-0.438-0.469-0.154-0.147-0.311-0.294-0.469-0.438l-0.094-0.094c-0.143-0.158-0.291-0.314-0.438-0.469-0.154-0.147-0.311-0.294-0.469-0.438-0.179-0.18-0.348-0.356-0.531-0.531-0.473-0.498-0.961-0.975-1.469-1.438l-0.094-0.094c-0.462-0.509-0.94-0.995-1.438-1.469-0.175-0.184-0.352-0.352-0.531-0.531-0.143-0.158-0.291-0.314-0.438-0.469-0.154-0.147-0.311-0.294-0.469-0.438l-0.094-0.094c-0.143-0.158-0.291-0.314-0.438-0.469-0.154-0.147-0.311-0.294-0.469-0.438-0.179-0.18-0.348-0.356-0.531-0.531-0.473-0.498-0.961-0.975-1.469-1.438l-0.094-0.094c-0.462-0.509-0.94-0.995-1.438-1.469-0.175-0.184-0.352-0.352-0.531-0.531-0.143-0.158-0.291-0.314-0.438-0.469-0.154-0.147-0.311-0.294-0.469-0.438l-0.094-0.094c-0.143-0.158-0.291-0.314-0.438-0.469-0.154-0.147-0.311-0.294-0.469-0.438-0.332-0.334-0.652-0.683-1-1-0.331-0.333-0.652-0.652-1-0.969l-0.094-0.094c-5.122-5.644-12.494-9.188-20.719-9.188" fill-opacity="0.235" transform="translate(0,540.36)"/>
   <path id="path12" fill-opacity="0.067" d="m256 541.36c-140.83 0-255 114.17-255 255s114.17 255 255 255 255-114.17 255-255-114.17-255-255-255m8.827 44.931c120.9 0 218.9 98 218.9 218.9s-98 218.9-218.9 218.9-218.93-98-218.93-218.9 98.03-218.9 218.93-218.9"/>
   <g id="g14" fill-opacity="0.129">
    <path id="path16" d="m256 544.79c-138.94 0-251.57 112.63-251.57 251.57s112.63 251.54 251.57 251.54 251.57-112.6 251.57-251.54-112.63-251.57-251.57-251.57m5.885 38.556c120.9 0 218.9 98 218.9 218.9s-98 218.9-218.9 218.9-218.93-98-218.93-218.9 98.03-218.9 218.93-218.9"/>
    <path id="path18" d="m256 548.72c-136.77 0-247.64 110.87-247.64 247.64s110.87 247.64 247.64 247.64 247.64-110.87 247.64-247.64-110.87-247.64-247.64-247.64m2.942 31.691c120.9 0 218.9 98 218.9 218.9s-98 218.9-218.9 218.9-218.93-98-218.93-218.9 98.03-218.9 218.93-218.9"/>
   </g>
   <path id="path20" d="m253.04 548.22c-135.42 0-245.19 109.78-245.19 245.19 0 135.42 109.78 245.19 245.19 245.19 135.42 0 245.19-109.78 245.19-245.19 0-135.42-109.78-245.19-245.19-245.19zm0 26.297c120.9 0 218.9 98 218.9 218.9s-98 218.9-218.9 218.9-218.93-98-218.93-218.9 98.03-218.9 218.93-218.9z" stroke-opacity="0.31" stroke="#000" stroke-width="4.904" fill="#fff"/>
  </g>
  <path id="path68" d="m301.52 709.86c-10.741 0-20.09 6.04-24.795 14.907h-44.39l-61.834 61.864h-10.928c-5.321-14.302-19.11-24.489-35.26-24.489-20.766 0-37.59 16.824-37.59 37.59s16.824 37.62 37.59 37.62c16.15 0 29.942-10.188 35.26-24.489h58.59l60.24 60.24h47.02v9.765h43.41v-45.763h-43.41v9.795h-36.12l-34.04-34.04h118.19l0.122 19.805 51.701-32.906-52.07-32.23 0.122 19.1h-144.3l-0.214-0.214-0.214 0.214h-21.03l35.631-35.631h33.519c4.706 8.872 14.05 14.907 24.795 14.907 15.482 0 28.01-12.527 28.01-28.01 0-15.482-12.527-28.04-28.01-28.04" fill-rule="evenodd" fill="#fff"/>
 </g>
</svg>
