<?xml version="1.0" encoding="UTF-8" standalone="no"?>
<svg xmlns="http://www.w3.org/2000/svg" height="512" viewBox="0 0 512 512" width="512" version="1.1">
 <metadata id="metadata102"/>
 <g id="g4" font-family="Gentium Book Basic" font-size="208.33" line-height="125%" word-spacing="0" letter-spacing="0">
 </g>
 <g id="g34" fill-rule="evenodd">
  <path id="path36" fill="#BF9E73" d="m471.95 253.05c0 120.9-98.01 218.9-218.9 218.9-120.9 0-218.9-98.01-218.9-218.9 0-120.9 98.01-218.9 218.9-218.9 120.9 0 218.9 98.01 218.9 218.9"/>
  <path id="path40" fill-opacity="0.067" d="m256 1c-140.83 0-255 114.17-255 255s114.17 255 255 255 255-114.17 255-255-114.17-255-255-255m8.827 44.931c120.9 0 218.9 98 218.9 218.9s-98 218.9-218.9 218.9-218.93-98-218.93-218.9 98.03-218.9 218.93-218.9"/>
  <g id="g42" fill-opacity="0.129">
   <path id="path44" d="m256 4.433c-138.94 0-251.57 112.63-251.57 251.57s112.63 251.57 251.57 251.57 251.57-112.63 251.57-251.57-112.63-251.57-251.57-251.57m5.885 38.556c120.9 0 218.9 98 218.9 218.9s-98 218.9-218.9 218.9-218.93-98-218.93-218.9 98.03-218.9 218.93-218.9"/>
   <path id="path46" d="m256 8.356c-136.77 0-247.64 110.87-247.64 247.64s110.87 247.64 247.64 247.64 247.64-110.87 247.64-247.64-110.87-247.64-247.64-247.64m2.942 31.691c120.9 0 218.9 98 218.9 218.9s-98 218.9-218.9 218.9-218.93-98-218.93-218.9 98.03-218.9 218.93-218.9"/>
  </g>
  <path id="path48" d="m253.04 7.859c-135.42 0-245.19 109.78-245.19 245.19 0 135.42 109.78 245.19 245.19 245.19 135.42 0 245.19-109.78 245.19-245.19 0-135.42-109.78-245.19-245.19-245.19zm0 26.297c120.9 0 218.9 98 218.9 218.9s-98 218.9-218.9 218.9-218.93-98-218.93-218.9 98.03-218.9 218.93-218.9z" stroke-opacity="0.31" stroke="#000" stroke-width="4.904" fill="#fff"/>
 </g>
 <path id="path96" d="m236.43 106.07c-2.579 0.037-5.192 0.13-7.781 0.313-5.568 0.393-10.321 0.862-10.594 1.031s11.699 20.618 26.594 45.44c14.895 24.82 31.822 53.35 37.625 63.38l10.531 18.219 3-4.906c1.64-2.701 7.313-11.996 12.594-20.625s14.07-23.01 19.531-31.969c5.463-8.954 10.956-17.928 12.25-19.969l2.375-3.719-3.187-3.375c-26.948-28.581-64.25-44.36-102.94-43.813m-31.31 4.062c-0.675 0.026-1.718 0.258-3.469 0.719-11.779 3.098-29.07 10.895-39.34 17.75-21.05 14.04-37.605 32.736-48.44 54.59-2.261 4.563-4.125 8.479-4.125 8.719s32.762 0.438 72.812 0.438 72.813-0.155 72.813-0.344c0-0.529-48.03-80.36-48.938-81.34-0.351-0.378-0.638-0.558-1.312-0.531m144.63 52.656c-0.197-0.005-0.372 0.14-0.531 0.375-0.81 1.192-13.568 21.988-28.469 46.38-5.471 8.954-11.558 18.931-13.563 22.19-6.849 11.127-12.254 20.11-17.906 29.875-9.41 16.266-14.344 24.967-14.344 25.19 0 0.115 21.565 0.225 47.938 0.219l47.937-0.031 0.875-3.063c7.931-27.642 7.344-55.86-1.781-83.28-3.306-9.934-10.07-23.754-15.875-32.438-2.71-4.054-3.691-5.39-4.281-5.406m-135.5 40.25-2.125 3.688c-1.167 2.022-4.747 8.215-7.938 13.75s-7.643 13.243-9.906 17.13c-3.657 6.276-4.02 7.211-3.438 8.5 0.895 1.966 21.23 37.3 22.625 39.31l1.094 1.625 23.844-0.031 23.875-0.031 2.656-4.844c2.358-4.267 11.11-19.425 18.656-32.34 1.427-2.442 2.526-4.726 2.438-5.063-0.089-0.336-5.488-9.858-12-21.16l-11.83-20.54h-47.938m-60.813 0.094-48.09 0.188-1.875 7.563c-6.57 26.28-5.549 52.713 3.063 78.59 3.252 9.771 10.04 23.631 15.656 32.06 2.116 3.174 4.03 5.781 4.25 5.781 0.216 0.001 1.405-1.802 2.688-4 2.145-3.676 6.401-10.578 27.406-44.531 20.432-33.03 23.95-38.785 28.09-46.19 1.367-2.442 5.727-9.966 9.687-16.75s7.219-12.457 7.219-12.594c0-0.103-12.197-0.142-29.438-0.125-5.747 0.005-12.05-0.021-18.656 0m30 52.688c-0.085 0.093-1.605 2.569-3.375 5.5s-12.746 20.802-24.406 39.688-21.301 34.724-21.438 35.22c-0.298 1.08 11.08 12.525 17.563 17.656 20.517 16.241 47.732 27.26 73.13 29.625 7.523 0.7 18.53 0.731 25.406 0.063 3.226-0.314 5.938-0.657 6.06-0.781 0.125-0.125-11-19.795-24.719-43.688-34.404-59.918-48.04-83.48-48.22-83.28m138.31 42.03c-8.723 0.003-18.295 0.011-28.313 0.031l-72.875 0.156 23.719 41.28c13.05 22.711 23.952 41.31 24.25 41.31 1.164 0 9.907-2.413 14.688-4.063 20.222-6.979 38.12-18.18 53.22-33.28 7.433-7.433 11.728-12.763 17.969-22.19 4.489-6.778 12.792-22.458 12.188-23.06-0.118-0.118-18.675-0.198-44.844-0.188" fill-rule="evenodd" fill="#fff"/>
</svg>
