<?xml version="1.0" encoding="UTF-8" standalone="no"?>
<svg xmlns="http://www.w3.org/2000/svg" viewBox="0 0 512 512">
 <g fill-rule="evenodd">
  <path d="m471.95 253.05c0 120.9-98.01 218.91-218.91 218.91s-218.91-98.01-218.91-218.91 98.01-218.91 218.91-218.91 218.91 98.01 218.91 218.91" fill="#BF9E73"/>
  <path d="m256 1c-140.83 0-255 114.17-255 255s114.17 255 255 255 255-114.17 255-255-114.17-255-255-255m8.827 44.931c120.9 0 218.9 98 218.9 218.9s-98 218.9-218.9 218.9-218.93-98-218.93-218.9 98.03-218.9 218.93-218.9" fill-opacity="0.067"/>
  <g fill-opacity="0.129">
   <path d="m256 4.43c-138.94 0-251.57 112.63-251.57 251.57s112.63 251.57 251.57 251.57 251.57-112.63 251.57-251.57-112.63-251.57-251.57-251.57m5.885 38.556c120.9 0 218.9 98 218.9 218.9s-98 218.9-218.9 218.9-218.93-98-218.93-218.9 98.03-218.9 218.93-218.9"/>
   <path d="m256 8.36c-136.77 0-247.64 110.87-247.64 247.64s110.87 247.64 247.64 247.64 247.64-110.87 247.64-247.64-110.87-247.64-247.64-247.64m2.942 31.691c120.9 0 218.9 98 218.9 218.9s-98 218.9-218.9 218.9-218.93-98-218.93-218.9 98.03-218.9 218.93-218.9"/>
  </g>
  <path stroke="#000" stroke-width="4.904" d="m253.04 7.86c-135.42 0-245.19 109.78-245.19 245.19 0 135.42 109.78 245.19 245.19 245.19 135.42 0 245.19-109.78 245.19-245.19 0-135.42-109.78-245.19-245.19-245.19zm0 26.297c120.9 0 218.9 98 218.9 218.9s-98 218.9-218.9 218.9-218.93-98-218.93-218.9 98.03-218.9 218.93-218.9z" stroke-opacity="0.31" fill="#fff"/>
 </g>
 <text font-size="129.23" y="231.36" x="729.64" font-family="Gentium Book Basic" line-height="125%" word-spacing="0" letter-spacing="0"><tspan y="231.36" x="729.64"/>
 </text>
 <text transform="scale(4.0128.2492)" font-size="46.954" y="579.26" x="378.91" font-family="Arial" text-anchor="middle"/>
 <text font-size="129.23" y="151.36" x="1310.91" font-family="Gentium Book Basic" line-height="125%" word-spacing="0" letter-spacing="0"><tspan y="151.36" x="1310.91"/>
 </text>
 <text transform="scale(4.0128.2492)" font-size="46.954" y="258.22" x="523.76" font-family="Arial" text-anchor="middle"/>
 <text font-size="129.23" y="-29.9" x="239.33" font-family="Gentium Book Basic" line-height="125%" word-spacing="0" letter-spacing="0"><tspan y="-29.9" x="239.33"/>
 </text>
 <text transform="scale(4.0128.2492)" font-size="46.954" y="-469.13" x="256.72" font-family="Arial" text-anchor="middle"/>
 <text font-size="129.23" y="-246.37" x="1337.38" font-family="Gentium Book Basic" line-height="125%" word-spacing="0" letter-spacing="0"><tspan y="-246.37" x="1337.38"/>
 </text>
 <text transform="scale(4.0128.2492)" font-size="46.954" y="-1337.8" x="530.36" font-family="Arial" text-anchor="middle"/>
 <text font-size="129.23" y="-326.37" x="1918.65" font-family="Gentium Book Basic" line-height="125%" word-spacing="0" letter-spacing="0"><tspan y="-326.37" x="1918.65"/>
 </text>
 <text transform="scale(4.0128.2492)" font-size="46.954" y="-1658.83" x="675.21" font-family="Arial" text-anchor="middle"/>
 <text font-size="129.23" y="-798.77" x="1529.53" font-family="Gentium Book Basic" line-height="125%" word-spacing="0" letter-spacing="0"><tspan y="-798.77" x="1529.53"/>
 </text>
 <text transform="scale(4.0128.2492)" font-size="46.954" y="-3554.48" x="578.24" font-family="Arial" text-anchor="middle"/>
 <text font-size="129.23" y="-878.78" x="2110.79" font-family="Gentium Book Basic" line-height="125%" word-spacing="0" letter-spacing="0"><tspan y="-878.78" x="2110.79"/>
 </text>
 <text transform="scale(4.0128.2492)" font-size="46.954" y="-3875.52" x="723.09" font-family="Arial" text-anchor="middle"/>
 <g font-family="Gentium Book Basic" line-height="125%" word-spacing="0" letter-spacing="0">
  <text y="535.94" x="277.99" font-size="208.33"><tspan y="535.94" x="277.99"/>
  </text>
  <text y="272.59" x="1722.37" font-size="129.23"><tspan y="272.59" x="1722.37"/>
  </text>
 </g>
 <text transform="scale(4.0128.2492)" font-size="46.954" y="744.7" x="626.3" font-family="Arial" text-anchor="middle"/>
 <text font-size="129.23" y="192.59" x="2303.64" font-family="Gentium Book Basic" line-height="125%" word-spacing="0" letter-spacing="0"><tspan y="192.59" x="2303.64"/>
 </text>
 <text transform="scale(4.0128.2492)" font-size="46.954" y="423.67" x="771.15" font-family="Arial" text-anchor="middle"/>
 <text font-size="129.23" y="11.33" x="1232.06" font-family="Gentium Book Basic" line-height="125%" word-spacing="0" letter-spacing="0"><tspan y="11.33" x="1232.06"/>
 </text>
 <text transform="scale(4.0128.2492)" font-size="46.954" y="-303.68" x="504.11" font-family="Arial" text-anchor="middle"/>
 <text font-size="129.23" y="-205.14" x="2330.11" font-family="Gentium Book Basic" line-height="125%" word-spacing="0" letter-spacing="0"><tspan y="-205.14" x="2330.11"/>
 </text>
 <text transform="scale(4.0128.2492)" font-size="46.954" y="-1172.35" x="777.75" font-family="Arial" text-anchor="middle"/>
 <text font-size="129.23" y="-285.15" x="2911.38" font-family="Gentium Book Basic" line-height="125%" word-spacing="0" letter-spacing="0"><tspan y="-285.15" x="2911.38"/>
 </text>
 <text transform="scale(4.0128.2492)" font-size="46.954" y="-1493.39" x="922.6" font-family="Arial" text-anchor="middle"/>
 <text font-size="129.23" y="-757.55" x="2522.26" font-family="Gentium Book Basic" line-height="125%" word-spacing="0" letter-spacing="0"><tspan y="-757.55" x="2522.26"/>
 </text>
 <text transform="scale(4.0128.2492)" font-size="46.954" y="-3389.04" x="825.63" font-family="Arial" text-anchor="middle"/>
 <text font-size="129.23" y="-837.55" x="3103.52" font-family="Gentium Book Basic" line-height="125%" word-spacing="0" letter-spacing="0"><tspan y="-837.55" x="3103.52"/>
 </text>
 <text transform="scale(4.0128.2492)" font-size="46.954" y="-3710.07" x="970.48" font-family="Arial" text-anchor="middle"/>
 <text font-size="208.33" y="577.17" x="1270.72" font-family="Gentium Book Basic" line-height="125%" word-spacing="0" letter-spacing="0"><tspan y="577.17" x="1270.72"/>
 </text>
 <path opacity="0.25" d="m139.59 113.97c-19.781 0-36 16.251-36 36.03v78.906c0 9.898 4.052 18.927 10.594 25.469l46.22 46.22h-2.5c-3.231 0-5.813 2.612-5.813 5.844 0 1.616 0.637 3.074 1.688 4.125l154.41 154.38c84.964-22.05 149.87-93.84 161.78-182.44l-70.938-70.938-1.219-1.25c-2.533-2.533-5.442-4.678-8.625-6.375l-79.37-79.37c-6.532-6.532-15.516-10.594-25.406-10.594h-144.81"/>
 <path d="m139.6 113.97c-19.781 0-36.02 16.239-36.02 36.02v78.93c0 19.781 16.239 36.05 36.02 36.05h39.725c0.094-5.726 0.133-11.439-0.065-17.13-0.027-0.141-0.039-0.282-0.065-0.423h-36.702c-11.303 0-20.383-9.08-20.383-20.383v-75.16c0-11.304 9.06-20.285 20.383-20.285h139.01c11.323 0 20.383 8.981 20.383 20.285v35.3c6.175 0.05 12.355 0.119 18.53 0.163v-37.35c0-19.781-16.239-36.02-36.02-36.02h-144.79m88.03 85.76c-19.781 0-36.02 16.239-36.02 36.02v78.93c0 19.781 16.239 36.05 36.02 36.05h144.76c19.781 0 36.02-16.271 36.02-36.05v-78.93c0-19.781-16.239-36.02-36.02-36.02h-144.76m2.861 17.62h139.04c11.323 0 20.35 8.981 20.35 20.285v75.16c0 11.304-9.05 20.383-20.35 20.383h-139.04c-11.303 0-20.383-9.08-20.383-20.383v-75.16c0-11.304 9.06-20.285 20.383-20.285m-72.59 83.25c-3.231 0-5.819 2.62-5.819 5.851s2.588 5.819 5.819 5.819h21.521c-0.297-3.877-0.47-7.774-0.553-11.67h-20.968m187.44 34.719c3.759 0 6.762 3.035 6.762 6.794s-3 6.827-6.762 6.827c-3.759 0-6.827-3.068-6.827-6.827s3.068-6.794 6.827-6.794m-56.825 24.934c-4.475 0-8.095 3.587-8.095 8.06v17.489c0 0.181 0.021 0.374 0.033 0.553h-34.524c-3.231 0-5.852 2.62-5.852 5.852 0 3.231 2.62 5.819 5.852 5.819h104.97c3.231 0 5.851-2.588 5.851-5.819s-2.62-5.852-5.851-5.852h-33.906c0.012-0.178 0-0.371 0-0.553v-17.489c0-4.476-3.587-8.06-8.06-8.06h-20.415" fill="#fff"/>
</svg>
