<?xml version="1.0" encoding="UTF-8" standalone="no"?>
<svg xmlns="http://www.w3.org/2000/svg" height="512" viewBox="0 0 512 512" width="512" version="1.1">
 <metadata id="metadata72"/>
 <path id="path4" d="m471.95 253.05c0 120.9-98.01 218.9-218.9 218.9-120.9 0-218.9-98.01-218.9-218.9 0-120.9 98.01-218.9 218.9-218.9 120.9 0 218.9 98.01 218.9 218.9" fill-rule="evenodd" fill="#BF9E73"/>
 <path id="path6" fill-opacity="0.235" d="m252.28 104.97c-5.194 0.316-11.741 2.263-14.406 2.344 0.099-0.156 0.194-0.331 0.375-0.531-0.346 0.155-0.764 0.342-1.125 0.5-0.627-0.137-0.652-0.604 0.156-1.5-12.261 5.473-33.859 13.12-46.44 24.438l-0.125-0.969c-0.211 0.253-0.473 0.542-0.719 0.813l-0.281-1.781c-5.708 6.852-24.878 20.461-26.406 29.344l-1.531 0.344c-2.966 5.03-4.895 10.735-7.25 15.906-3.883 6.623-5.709 2.555-5.156 3.594-7.641 15.492-11.443 28.507-14.719 39.19 2.335 3.492 0.029 21 0.938 35.03-2.395 43.32 17.21 85.84 46.25 115.44 0.329 0.342 0.668 0.662 1 1 0.467 0.468 0.934 0.945 1.406 1.406 0.193 0.199 0.4 0.396 0.594 0.594 0.317 0.312 0.618 0.628 0.938 0.938 0.016 0.016 0.016 0.047 0.031 0.063 0.068 0.067 0.15 0.12 0.219 0.188l0.063 0.063c0.241 0.248 0.477 0.503 0.719 0.75 0.068 0.067 0.15 0.12 0.219 0.188l0.063 0.063c0.241 0.248 0.477 0.503 0.719 0.75 0.068 0.067 0.151 0.121 0.219 0.188 0.258 0.266 0.522 0.517 0.781 0.781 0.068 0.067 0.119 0.151 0.188 0.219 0.387 0.386 0.766 0.774 1.156 1.156 0.529 0.526 1.059 1.045 1.594 1.563 0.016 0.016 0.016 0.047 0.031 0.063 0.068 0.067 0.15 0.12 0.219 0.188l0.063 0.063c0.241 0.248 0.477 0.503 0.719 0.75 0.068 0.067 0.15 0.12 0.219 0.188l0.063 0.063c0.241 0.248 0.477 0.503 0.719 0.75 0.068 0.067 0.151 0.121 0.219 0.188 0.258 0.266 0.522 0.517 0.781 0.781 0.068 0.067 0.119 0.151 0.188 0.219 0.387 0.386 0.766 0.774 1.156 1.156 0.464 0.462 0.938 0.92 1.406 1.375 0.077 0.079 0.141 0.171 0.219 0.25 0.068 0.067 0.15 0.12 0.219 0.188l0.063 0.063c0.241 0.248 0.477 0.503 0.719 0.75 0.068 0.067 0.15 0.12 0.219 0.188l0.063 0.063c0.241 0.248 0.477 0.503 0.719 0.75 0.068 0.067 0.151 0.121 0.219 0.188 0.258 0.266 0.522 0.517 0.781 0.781 0.073 0.072 0.146 0.147 0.219 0.219 0.062 0.063 0.126 0.125 0.188 0.188 0.195 0.2 0.398 0.394 0.594 0.594 0.152 0.15 0.285 0.32 0.438 0.469 0.302 0.3 0.602 0.609 0.906 0.906 0.205 0.211 0.419 0.415 0.625 0.625 0.322 0.317 0.644 0.623 0.969 0.938 0.016 0.016 0.016 0.047 0.031 0.063 0.068 0.067 0.15 0.12 0.219 0.188l0.063 0.063c0.241 0.248 0.477 0.503 0.719 0.75 0.068 0.067 0.151 0.121 0.219 0.188 0.258 0.266 0.522 0.517 0.781 0.781 0.073 0.072 0.146 0.147 0.219 0.219 0.062 0.063 0.126 0.125 0.188 0.188 0.196 0.202 0.397 0.393 0.594 0.594 0.152 0.15 0.285 0.32 0.438 0.469 0.302 0.3 0.602 0.609 0.906 0.906 0.529 0.526 1.059 1.045 1.594 1.563 0.016 0.016 0.016 0.047 0.031 0.063 0.068 0.067 0.15 0.12 0.219 0.188l0.063 0.063c0.241 0.248 0.477 0.503 0.719 0.75 0.068 0.067 0.15 0.12 0.219 0.188l0.063 0.063c0.241 0.248 0.477 0.503 0.719 0.75 0.068 0.067 0.151 0.121 0.219 0.188 0.258 0.266 0.522 0.517 0.781 0.781 0.068 0.067 0.119 0.151 0.188 0.219 0.387 0.386 0.766 0.774 1.156 1.156 0.529 0.526 1.059 1.045 1.594 1.563 0.016 0.016 0.016 0.047 0.031 0.063 0.068 0.067 0.15 0.12 0.219 0.188l0.063 0.063c0.241 0.248 0.477 0.503 0.719 0.75 0.068 0.067 0.15 0.12 0.219 0.188l0.063 0.063c0.241 0.248 0.477 0.503 0.719 0.75 0.068 0.067 0.151 0.121 0.219 0.188 0.258 0.266 0.522 0.517 0.781 0.781 0.073 0.072 0.146 0.147 0.219 0.219 0.062 0.063 0.126 0.125 0.188 0.188 0.195 0.2 0.398 0.394 0.594 0.594 0.121 0.119 0.222 0.256 0.344 0.375 0.349 0.347 0.711 0.688 1.063 1.031 0.241 0.248 0.476 0.504 0.719 0.75 0.27 0.265 0.541 0.518 0.813 0.781 0.016 0.016 0.016 0.047 0.031 0.063 0.068 0.067 0.15 0.12 0.219 0.188l0.063 0.063c0.241 0.248 0.477 0.503 0.719 0.75 0.068 0.067 0.151 0.121 0.219 0.188 0.258 0.266 0.522 0.517 0.781 0.781 0.073 0.072 0.146 0.147 0.219 0.219 0.062 0.063 0.126 0.125 0.188 0.188 0.196 0.202 0.397 0.393 0.594 0.594 0.152 0.15 0.285 0.32 0.438 0.469 0.302 0.3 0.602 0.609 0.906 0.906 0.529 0.526 1.059 1.045 1.594 1.563 0.016 0.016 0.016 0.047 0.031 0.063 0.068 0.067 0.15 0.12 0.219 0.188l0.063 0.063c0.241 0.248 0.477 0.503 0.719 0.75 0.068 0.067 0.15 0.12 0.219 0.188l0.063 0.063c0.241 0.248 0.477 0.503 0.719 0.75 0.068 0.067 0.151 0.121 0.219 0.188 0.258 0.266 0.522 0.517 0.781 0.781 0.068 0.067 0.119 0.151 0.188 0.219 0.387 0.386 0.766 0.774 1.156 1.156 0.529 0.526 1.059 1.045 1.594 1.563 0.016 0.016 0.016 0.047 0.031 0.063 0.068 0.067 0.15 0.12 0.219 0.188l0.063 0.063c0.241 0.248 0.477 0.503 0.719 0.75 0.068 0.067 0.15 0.12 0.219 0.188l0.063 0.063c0.241 0.248 0.477 0.503 0.719 0.75 0.068 0.067 0.151 0.121 0.219 0.188 0.258 0.266 0.522 0.517 0.781 0.781 0.068 0.067 0.119 0.151 0.188 0.219 0.387 0.386 0.766 0.774 1.156 1.156 0.464 0.462 0.938 0.92 1.406 1.375 0.077 0.079 0.141 0.171 0.219 0.25 0.068 0.067 0.15 0.12 0.219 0.188l0.063 0.063c0.241 0.248 0.477 0.503 0.719 0.75 0.068 0.067 0.15 0.12 0.219 0.188l0.063 0.063c0.241 0.248 0.477 0.503 0.719 0.75 0.068 0.067 0.151 0.121 0.219 0.188 0.258 0.266 0.522 0.517 0.781 0.781 0.073 0.072 0.146 0.147 0.219 0.219 0.062 0.063 0.126 0.125 0.188 0.188 0.195 0.2 0.398 0.394 0.594 0.594 0.152 0.15 0.285 0.32 0.438 0.469 0.302 0.3 0.602 0.609 0.906 0.906 0.205 0.211 0.419 0.415 0.625 0.625 0.322 0.317 0.644 0.623 0.969 0.938 0.016 0.016 0.016 0.047 0.031 0.063 0.068 0.067 0.15 0.12 0.219 0.188l0.063 0.063c0.241 0.248 0.477 0.503 0.719 0.75 0.068 0.067 0.151 0.121 0.219 0.188 0.258 0.266 0.522 0.517 0.781 0.781 0.073 0.072 0.146 0.147 0.219 0.219 0.062 0.063 0.126 0.125 0.188 0.188 0.196 0.202 0.397 0.393 0.594 0.594 0.152 0.15 0.285 0.32 0.438 0.469 0.302 0.3 0.602 0.609 0.906 0.906 0.529 0.526 1.059 1.045 1.594 1.563 0.016 0.016 0.016 0.047 0.031 0.063 0.068 0.067 0.15 0.12 0.219 0.188l0.063 0.063c0.241 0.248 0.477 0.503 0.719 0.75 0.068 0.067 0.15 0.12 0.219 0.188l0.063 0.063c0.241 0.248 0.477 0.503 0.719 0.75 0.068 0.067 0.151 0.121 0.219 0.188 0.258 0.266 0.522 0.517 0.781 0.781 0.068 0.067 0.119 0.151 0.188 0.219 0.387 0.386 0.766 0.774 1.156 1.156 0.529 0.526 1.059 1.045 1.594 1.563 0.016 0.016 0.016 0.047 0.031 0.063 0.068 0.067 0.15 0.12 0.219 0.188l0.063 0.063c0.241 0.248 0.477 0.503 0.719 0.75 0.068 0.067 0.15 0.12 0.219 0.188l0.063 0.063c0.241 0.248 0.477 0.503 0.719 0.75 0.068 0.067 0.151 0.121 0.219 0.188 0.258 0.266 0.522 0.517 0.781 0.781 0.073 0.072 0.146 0.147 0.219 0.219 0.062 0.063 0.126 0.125 0.188 0.188 0.195 0.2 0.398 0.394 0.594 0.594 0.121 0.119 0.222 0.256 0.344 0.375 0.349 0.347 0.711 0.688 1.063 1.031 0.241 0.248 0.476 0.504 0.719 0.75 0.27 0.265 0.541 0.518 0.813 0.781 0.016 0.016 0.016 0.047 0.031 0.063 0.068 0.067 0.15 0.12 0.219 0.188l0.063 0.063c0.241 0.248 0.477 0.503 0.719 0.75 0.068 0.067 0.151 0.121 0.219 0.188 0.258 0.266 0.522 0.517 0.781 0.781 0.073 0.072 0.146 0.147 0.219 0.219 0.062 0.063 0.126 0.125 0.188 0.188 0.195 0.2 0.398 0.394 0.594 0.594 0.152 0.15 0.285 0.32 0.438 0.469 0.302 0.3 0.602 0.609 0.906 0.906 0.205 0.211 0.419 0.415 0.625 0.625 0.322 0.317 0.644 0.623 0.969 0.938 0.016 0.016 0.016 0.047 0.031 0.063 0.068 0.067 0.15 0.12 0.219 0.188l0.063 0.063c0.241 0.248 0.477 0.503 0.719 0.75 0.068 0.067 0.151 0.121 0.219 0.188l0.063 0.063c0.241 0.248 0.477 0.503 0.719 0.75 0.068 0.067 0.151 0.121 0.219 0.188 0.258 0.266 0.522 0.517 0.781 0.781 0.068 0.067 0.119 0.151 0.188 0.219 0.387 0.386 0.766 0.774 1.156 1.156 0.529 0.526 1.059 1.045 1.594 1.563 0.016 0.016 0.016 0.047 0.031 0.063 0.068 0.067 0.15 0.12 0.219 0.188l0.063 0.063c0.241 0.248 0.477 0.503 0.719 0.75 0.068 0.067 0.15 0.12 0.219 0.188l0.063 0.063c0.241 0.248 0.477 0.503 0.719 0.75 0.068 0.067 0.151 0.121 0.219 0.188 0.258 0.266 0.522 0.517 0.781 0.781 0.068 0.067 0.119 0.151 0.188 0.219 0.387 0.386 0.766 0.774 1.156 1.156 0.24 0.239 0.476 0.482 0.719 0.719 0.157-0.022 0.312-0.04 0.469-0.063 1.773-0.258 3.553-0.542 5.313-0.844 0.167-0.029 0.333-0.065 0.5-0.094 0.366-0.064 0.728-0.122 1.094-0.188 1.702-0.304 3.405-0.626 5.094-0.969 0.094-0.019 0.187-0.043 0.281-0.063 0.596-0.122 1.187-0.248 1.781-0.375 1.177-0.252 2.361-0.51 3.531-0.781 0.187-0.043 0.376-0.081 0.563-0.125 0.388-0.091 0.77-0.188 1.156-0.281 1.646-0.396 3.275-0.817 4.906-1.25 4.03-1.069 8-2.243 11.938-3.531 3.933-1.288 7.825-2.689 11.656-4.188v0.031c31.866-12.453 60.12-32.13 82.69-57.06v-0.094c3.121-3.448 6.132-6.983 9.03-10.625 0.966-1.214 1.934-2.453 2.875-3.688 5.645-7.409 10.822-15.174 15.5-23.281 0.049-0.085 0.107-0.165 0.156-0.25 2.285-3.972 4.431-8.03 6.469-12.156 0.694-1.404 1.367-2.829 2.031-4.25 0.384-0.822 0.782-1.641 1.156-2.469 0.272-0.602 0.546-1.207 0.813-1.813 0.087-0.196 0.164-0.397 0.25-0.594 0.544-1.243 1.072-2.495 1.594-3.75 0.506-1.216 1.016-2.429 1.5-3.656 0.094-0.239 0.188-0.479 0.281-0.719 0.117-0.301 0.228-0.605 0.344-0.906 1.018-2.643 1.989-5.309 2.906-8 0.05-0.146 0.107-0.291 0.156-0.438 0.46-1.361 0.878-2.721 1.313-4.094 0.479-1.514 0.959-3.035 1.406-4.563s0.867-3.052 1.281-4.594c0.829-3.083 1.585-6.178 2.281-9.313 0.348-1.567 0.686-3.17 1-4.75s0.626-3.158 0.906-4.75c0.56-3.184 1.048-6.395 1.469-9.625 0.21-1.615 0.388-3.218 0.563-4.844s0.33-3.27 0.469-4.906c0.133-1.563 0.244-3.115 0.344-4.688 0.005-0.073 0.027-0.146 0.031-0.219 0.006-0.093-0.006-0.188 0-0.281 0.093-1.513 0.188-3.042 0.25-4.563 0.002-0.041-0.002-0.083 0-0.125-0.281-0.283-0.559-0.564-0.844-0.844-0.225-0.227-0.461-0.432-0.688-0.656-0.106-0.103-0.206-0.21-0.313-0.313-0.338-0.332-0.659-0.673-1-1-0.186-0.188-0.375-0.376-0.563-0.563-0.042-0.041-0.083-0.084-0.125-0.125-0.099-0.098-0.182-0.215-0.281-0.313-0.166-0.167-0.334-0.334-0.5-0.5-0.498-0.508-0.995-1-1.5-1.5-0.335-0.337-0.662-0.668-1-1-0.225-0.227-0.461-0.432-0.688-0.656-0.106-0.103-0.206-0.21-0.313-0.313-0.338-0.332-0.659-0.673-1-1-0.326-0.329-0.639-0.676-0.969-1-0.328-0.331-0.668-0.674-1-1-0.335-0.337-0.662-0.668-1-1-0.335-0.337-0.662-0.668-1-1-0.225-0.227-0.461-0.432-0.688-0.656-0.106-0.103-0.206-0.21-0.313-0.313-0.338-0.332-0.659-0.673-1-1-0.098-0.099-0.214-0.182-0.313-0.281-0.127-0.134-0.247-0.273-0.375-0.406-0.106-0.103-0.206-0.21-0.313-0.313-0.186-0.188-0.375-0.376-0.563-0.563-0.042-0.041-0.083-0.084-0.125-0.125-0.099-0.098-0.182-0.215-0.281-0.313-0.166-0.167-0.334-0.334-0.5-0.5-0.498-0.508-0.995-1-1.5-1.5-0.225-0.227-0.461-0.432-0.688-0.656-0.106-0.103-0.206-0.21-0.313-0.313-0.338-0.332-0.659-0.673-1-1-0.098-0.099-0.214-0.182-0.313-0.281-0.127-0.134-0.247-0.273-0.375-0.406-0.106-0.103-0.206-0.21-0.313-0.313-0.326-0.329-0.639-0.676-0.969-1-0.166-0.167-0.334-0.334-0.5-0.5-0.498-0.508-0.995-1-1.5-1.5-0.335-0.337-0.662-0.668-1-1-0.225-0.227-0.461-0.432-0.688-0.656-0.106-0.103-0.206-0.21-0.313-0.313-0.338-0.332-0.659-0.673-1-1-0.186-0.188-0.375-0.376-0.563-0.563-0.042-0.041-0.083-0.084-0.125-0.125-0.099-0.098-0.182-0.215-0.281-0.313-0.166-0.167-0.334-0.334-0.5-0.5-0.498-0.508-0.995-1-1.5-1.5-0.335-0.337-0.662-0.668-1-1-0.225-0.227-0.461-0.432-0.688-0.656-0.106-0.103-0.206-0.21-0.313-0.313-0.338-0.332-0.659-0.673-1-1-0.098-0.099-0.214-0.182-0.313-0.281-0.127-0.134-0.247-0.273-0.375-0.406-0.106-0.103-0.206-0.21-0.313-0.313-0.326-0.329-0.639-0.676-0.969-1-0.335-0.337-0.662-0.668-1-1-0.335-0.337-0.662-0.668-1-1-0.225-0.227-0.461-0.432-0.688-0.656-0.106-0.103-0.206-0.21-0.313-0.313-0.338-0.332-0.659-0.673-1-1-0.098-0.099-0.214-0.182-0.313-0.281-0.127-0.134-0.247-0.273-0.375-0.406-0.106-0.103-0.206-0.21-0.313-0.313-0.186-0.188-0.375-0.376-0.563-0.563-0.042-0.041-0.083-0.084-0.125-0.125-0.099-0.098-0.182-0.215-0.281-0.313-0.166-0.167-0.334-0.334-0.5-0.5-0.498-0.508-0.995-1-1.5-1.5-0.225-0.227-0.461-0.432-0.688-0.656-0.106-0.103-0.206-0.21-0.313-0.313-0.338-0.332-0.659-0.673-1-1-0.098-0.099-0.214-0.182-0.313-0.281-0.127-0.134-0.247-0.273-0.375-0.406-0.106-0.103-0.206-0.21-0.313-0.313-0.326-0.329-0.639-0.676-0.969-1-0.166-0.167-0.334-0.334-0.5-0.5-0.498-0.508-0.995-1-1.5-1.5-0.335-0.337-0.662-0.668-1-1-0.225-0.227-0.461-0.432-0.688-0.656-0.106-0.103-0.206-0.21-0.313-0.313-0.338-0.332-0.659-0.673-1-1-0.186-0.188-0.375-0.376-0.563-0.563-0.042-0.041-0.083-0.084-0.125-0.125-0.099-0.098-0.182-0.215-0.281-0.313-0.166-0.167-0.334-0.334-0.5-0.5-0.498-0.508-0.995-1-1.5-1.5-0.335-0.337-0.662-0.668-1-1-0.225-0.227-0.461-0.432-0.688-0.656-0.106-0.103-0.206-0.21-0.313-0.313-0.338-0.332-0.659-0.673-1-1-0.098-0.099-0.214-0.182-0.313-0.281-0.127-0.134-0.247-0.273-0.375-0.406-0.106-0.103-0.206-0.21-0.313-0.313-0.326-0.329-0.639-0.676-0.969-1-0.166-0.167-0.334-0.334-0.5-0.5-0.498-0.508-0.995-1-1.5-1.5-0.225-0.227-0.461-0.432-0.688-0.656-0.106-0.103-0.206-0.21-0.313-0.313-0.338-0.332-0.659-0.673-1-1-0.098-0.099-0.214-0.182-0.313-0.281-0.127-0.134-0.247-0.273-0.375-0.406-0.106-0.103-0.206-0.21-0.313-0.313-0.186-0.188-0.375-0.376-0.563-0.563-0.042-0.041-0.083-0.084-0.125-0.125-0.099-0.098-0.182-0.215-0.281-0.313-0.166-0.167-0.334-0.334-0.5-0.5-0.498-0.508-0.995-1-1.5-1.5-0.335-0.337-0.662-0.668-1-1-0.225-0.227-0.461-0.432-0.688-0.656-0.106-0.103-0.206-0.21-0.313-0.313-0.338-0.332-0.659-0.673-1-1-0.326-0.329-0.639-0.676-0.969-1-0.166-0.167-0.334-0.334-0.5-0.5-0.498-0.508-0.995-1-1.5-1.5-0.335-0.337-0.662-0.668-1-1-0.225-0.227-0.461-0.432-0.688-0.656-0.106-0.103-0.206-0.21-0.313-0.313-0.338-0.332-0.659-0.673-1-1-0.098-0.099-0.214-0.182-0.313-0.281-0.127-0.134-0.247-0.273-0.375-0.406-0.106-0.103-0.206-0.21-0.313-0.313-0.186-0.188-0.375-0.376-0.563-0.563-0.042-0.041-0.083-0.084-0.125-0.125-0.099-0.098-0.182-0.215-0.281-0.313-0.335-0.337-0.662-0.668-1-1-0.335-0.337-0.662-0.668-1-1-0.225-0.227-0.461-0.432-0.688-0.656-0.106-0.103-0.206-0.21-0.313-0.313-0.232-0.228-0.454-0.462-0.688-0.688-0.045-0.047-0.111-0.078-0.156-0.125-0.058-0.056-0.098-0.132-0.156-0.188-0.098-0.099-0.214-0.182-0.313-0.281-0.127-0.134-0.247-0.273-0.375-0.406-0.106-0.103-0.206-0.21-0.313-0.313-0.326-0.329-0.639-0.676-0.969-1-0.166-0.167-0.334-0.334-0.5-0.5-0.825-0.843-1.655-1.659-2.5-2.469-0.338-0.332-0.659-0.673-1-1-0.098-0.099-0.214-0.182-0.313-0.281-0.127-0.134-0.247-0.273-0.375-0.406-0.106-0.103-0.206-0.21-0.313-0.313-0.186-0.188-0.375-0.376-0.563-0.563-0.042-0.041-0.083-0.084-0.125-0.125-0.099-0.098-0.182-0.215-0.281-0.313-0.166-0.167-0.334-0.334-0.5-0.5-0.498-0.508-0.995-1-1.5-1.5-0.335-0.337-0.662-0.668-1-1-0.225-0.227-0.461-0.432-0.688-0.656-0.106-0.103-0.206-0.21-0.313-0.313-0.338-0.332-0.659-0.673-1-1-0.326-0.329-0.639-0.676-0.969-1-0.166-0.167-0.334-0.334-0.5-0.5-0.498-0.508-0.995-1-1.5-1.5-0.335-0.337-0.662-0.668-1-1-0.225-0.227-0.461-0.432-0.688-0.656-0.106-0.103-0.206-0.21-0.313-0.313-0.338-0.332-0.659-0.673-1-1-0.098-0.099-0.214-0.182-0.313-0.281-0.127-0.134-0.247-0.273-0.375-0.406-0.106-0.103-0.206-0.21-0.313-0.313-0.186-0.188-0.375-0.376-0.563-0.563-0.042-0.041-0.083-0.084-0.125-0.125-0.099-0.098-0.182-0.215-0.281-0.313-0.166-0.167-0.334-0.334-0.5-0.5-0.498-0.508-0.995-1-1.5-1.5-0.225-0.227-0.461-0.432-0.688-0.656-0.106-0.103-0.206-0.21-0.313-0.313-0.338-0.332-0.659-0.673-1-1-0.098-0.099-0.214-0.182-0.313-0.281-0.127-0.134-0.247-0.273-0.375-0.406-0.106-0.103-0.206-0.21-0.313-0.313-0.326-0.329-0.639-0.676-0.969-1-0.166-0.167-0.334-0.334-0.5-0.5-0.498-0.508-0.995-1-1.5-1.5-0.335-0.337-0.662-0.668-1-1-0.225-0.227-0.461-0.432-0.688-0.656-0.106-0.103-0.206-0.21-0.313-0.313-0.338-0.332-0.659-0.673-1-1-0.186-0.188-0.375-0.376-0.563-0.563-0.042-0.041-0.083-0.084-0.125-0.125-0.099-0.098-0.182-0.215-0.281-0.313-0.166-0.167-0.334-0.334-0.5-0.5-0.498-0.508-0.995-1-1.5-1.5-0.335-0.337-0.662-0.668-1-1-0.225-0.227-0.461-0.432-0.688-0.656-0.106-0.103-0.206-0.21-0.313-0.313-0.228-0.23-0.458-0.46-0.688-0.688-0.106-0.103-0.206-0.21-0.313-0.313-7.271-7.333-15.351-13.422-23.16-17.594 0.396 0.363 0.81 0.744 1.219 1.125-0.074-0.04-0.145-0.086-0.219-0.125 0.364 0.334 0.748 0.681 1.125 1.031-0.041-0.022-0.084-0.041-0.125-0.063 0.382 0.35 0.792 0.727 1.188 1.094-0.061-0.033-0.127-0.061-0.188-0.094 0.225 0.206 0.455 0.442 0.688 0.656 0.693 0.824 1.027 1.438 0.563 1.625-0.846-0.503-1.477-0.918-2.156-1.344-0.04-0.076-0.079-0.138-0.125-0.219-0.22-0.09-0.416-0.139-0.625-0.219-0.099-0.237-0.217-0.503-0.375-0.781-0.22-0.09-0.416-0.139-0.625-0.219-0.099-0.236-0.186-0.473-0.344-0.75-0.232-0.094-0.437-0.167-0.656-0.25-0.099-0.236-0.186-0.473-0.344-0.75-0.222-0.09-0.415-0.17-0.625-0.25-0.099-0.236-0.217-0.473-0.375-0.75-0.222-0.09-0.415-0.17-0.625-0.25-0.099-0.236-0.217-0.473-0.375-0.75-0.222-0.09-0.415-0.17-0.625-0.25-0.097-0.23-0.222-0.481-0.375-0.75-0.22-0.09-0.416-0.139-0.625-0.219-0.099-0.237-0.217-0.503-0.375-0.781-7.776-3.168-8.292 0.28-13.438 0.031-14.675-7.786-17.495-6.972-31-11.844l0.625 2.875c-6.231-2.076-9.142-1.01-13.188-0.281-2.654 0.35-4.476 0.312-6 0.188 1.348-0.475 3.254-0.936 5-1.188-2.672 0.353-4.502 0.346-6.03 0.219 1.35-0.48 3.299-0.965 5.063-1.219-4.611 0.609-6.856 0.186-9.03-0.156 0.315-0.168 0.622-0.324 0.938-0.5-0.841 0.051-1.735 0.16-2.625 0.281-0.214-0.021-0.432-0.049-0.656-0.063 0.761-0.396 1.513-0.79 2.281-1.219-1.192 0.073-2.446 0.236-3.719 0.438 0.902-0.471 1.806-0.927 2.719-1.438-1.192 0.073-2.446 0.236-3.719 0.438 0.902-0.471 1.806-0.927 2.719-1.438"/>
 <g id="g8" fill-rule="evenodd">
  <path id="path10" fill-opacity="0.067" d="m256 1c-140.83 0-255 114.17-255 255s114.17 255 255 255 255-114.17 255-255-114.17-255-255-255m8.827 44.931c120.9 0 218.9 98 218.9 218.9s-98 218.9-218.9 218.9-218.93-98-218.93-218.9 98.03-218.9 218.93-218.9"/>
  <g id="g12" fill-opacity="0.129">
   <path id="path14" d="m256 4.433c-138.94 0-251.57 112.63-251.57 251.57s112.63 251.57 251.57 251.57 251.57-112.63 251.57-251.57-112.63-251.57-251.57-251.57m5.885 38.556c120.9 0 218.9 98 218.9 218.9s-98 218.9-218.9 218.9-218.93-98-218.93-218.9 98.03-218.9 218.93-218.9"/>
   <path id="path16" d="m256 8.356c-136.77 0-247.64 110.87-247.64 247.64s110.87 247.64 247.64 247.64 247.64-110.87 247.64-247.64-110.87-247.64-247.64-247.64m2.942 31.691c120.9 0 218.9 98 218.9 218.9s-98 218.9-218.9 218.9-218.93-98-218.93-218.9 98.03-218.9 218.93-218.9"/>
  </g>
  <path id="path18" d="m253.04 7.859c-135.42 0-245.19 109.78-245.19 245.19 0 135.42 109.78 245.19 245.19 245.19 135.42 0 245.19-109.78 245.19-245.19 0-135.42-109.78-245.19-245.19-245.19zm0 26.297c120.9 0 218.9 98 218.9 218.9s-98 218.9-218.9 218.9-218.93-98-218.93-218.9 98.03-218.9 218.93-218.9z" stroke-opacity="0.31" stroke="#000" stroke-width="4.904" fill="#fff"/>
 </g>
 <path id="path66" fill="#fff" d="m349.14 234.25c0.303 8.151-2.378 12.11-4.804 19.12l-4.362 2.169c-3.566 6.929 0.359 4.399-2.2 9.908-5.573 4.949-16.888 15.481-20.511 16.447-2.648-0.029 1.791-3.124 2.371-4.322-7.452 5.114-5.981 7.678-17.381 10.792l-0.331-0.743c-28.1 13.225-67.14-12.978-66.63-48.725-0.299 2.267-0.849 1.701-1.475 2.611-1.45-18.389 8.495-36.86 25.27-44.41 16.406-8.117 35.639-4.791 47.38 6.17-6.45-8.454-19.301-17.418-34.519-16.588-14.915 0.242-28.872 9.719-33.527 20.01-7.638 4.807-8.528 18.541-11.855 21.06-4.484 32.927 8.424 47.15 30.26 63.883 3.428 2.314 0.966 2.669 1.422 4.43-7.253-3.394-13.893-8.522-19.358-14.8 2.901 4.241 6.03 8.363 10.07 11.602-6.845-2.311-15.984-16.575-18.646-17.15 11.791 21.11 47.831 37.03 66.71 29.13-8.738 0.321-19.833 0.179-29.644-3.448-4.132-2.122-9.729-6.511-8.728-7.331 25.761 9.618 52.37 7.28 74.65-10.583 5.674-4.419 11.868-11.932 13.66-12.03-2.696 4.055 0.465 1.95-1.61 5.529 5.641-9.112-2.459-3.711 5.836-15.734l3.063 4.217c-1.147-7.57 9.395-16.753 8.323-28.716 2.419-3.657 2.696 3.94 0.133 12.354 3.559-9.335 0.939-10.836 1.852-18.541 0.982 2.591 2.287 5.341 2.952 8.08-2.321-9.02 2.372-15.191 3.539-20.437-1.151-0.505-3.58 3.988-4.139-6.666 0.11-4.629 1.294-2.426 1.754-3.566-0.905-0.525-3.289-4.072-4.737-10.876 1.043-1.603 2.807 4.146 4.237 4.379-0.921-5.408-2.503-9.534-2.571-13.687-4.183-8.738-1.48 1.166-4.868-3.751-4.453-13.879 3.691-3.222 4.244-9.524 6.74 9.767 10.583 24.914 12.354 31.19-1.348-7.648-3.526-15.06-6.187-22.23 2.055 0.864-3.303-15.731 2.669-4.74-6.373-23.43-27.25-45.32-46.47-55.59 2.345 2.149 5.31 4.848 4.251 5.273-9.561-5.685-7.881-6.133-9.251-8.536-7.776-3.168-8.296 0.258-13.441 0.009-14.675-7.786-17.502-6.96-31.01-11.831l0.616 2.874c-9.719-3.239-11.326 1.221-21.827 0.009-0.636-0.497 3.367-1.808 6.666-2.284-9.399 1.241-8.96-1.855-18.16 0.336 2.264-1.588 4.666-2.645 7.081-3.995-7.661 0.467-18.299 4.46-15.02 0.82-12.499 5.58-34.701 13.41-47.16 25.09l-0.391-2.618c-5.708 6.852-24.894 20.465-26.422 29.347l-1.528 0.351c-2.966 5.03-4.892 10.728-7.247 15.9-3.883 6.623-5.695 2.551-5.142 3.59-7.641 15.492-11.443 28.507-14.719 39.19 2.335 3.492 0.029 21.02 0.938 35.06-3.833 69.31 48.641 136.59 106 152.13 8.407 3.01 20.907 2.905 31.54 3.202-12.543-3.59-14.163-1.9-26.389-6.16-8.815-4.156-10.745-8.896-16.993-14.318l2.473 4.369c-12.246-4.336-7.121-5.364-17.09-8.519l2.641-3.444c-3.97-0.303-10.515-6.687-12.303-10.232l-4.345 0.179c-5.216-6.43-7.999-11.08-7.793-14.675l-1.404 2.503c-1.588-2.729-19.2-24.15-10.06-19.16-1.697-1.546-3.954-2.52-6.4-6.97l1.859-2.123c-4.389-5.658-8.09-12.907-7.807-15.322 2.345 3.164 3.971 3.758 5.583 4.301-11.1-27.543-11.727-1.515-20.13-28.04l1.775-0.146c-1.359-2.061-2.193-4.284-3.286-6.474l0.774-7.709c-7.989-9.23-2.233-39.29-1.075-55.766 0.789-6.7 6.67-13.835 11.133-25.03l-2.719-0.467c5.202-9.07 29.695-36.432 41.04-35.03 5.496-6.902-1.091-0.009-2.169-1.761 12.07-12.492 15.87-8.825 24.02-11.08 8.781-5.212-7.54 2.038-3.377-1.987 15.192-3.876 10.762-8.819 30.575-10.785 2.091 1.189-4.848 1.835-6.589 3.377 12.651-6.194 40.04-4.78 57.84 3.434 20.636 9.652 43.837 38.17 44.755 65l1.043 0.283c-0.527 10.667 1.633 23-2.115 34.33l2.534-5.367"/>
</svg>
