<?xml version="1.0" encoding="UTF-8" standalone="no"?>
<svg xmlns="http://www.w3.org/2000/svg" height="512" viewBox="0 0 512 512" width="512" version="1.1">
 <metadata id="metadata72"/>
 <g id="g4" fill-rule="evenodd">
  <path id="path6" fill="#BF9E73" d="m471.95 253.05c0 120.9-98.01 218.9-218.9 218.9-120.9 0-218.9-98.01-218.9-218.9 0-120.9 98.01-218.9 218.9-218.9 120.9 0 218.9 98.01 218.9 218.9"/>
  <path id="path8" fill-opacity="0.235" d="m263.03 110.19c-19.57 0.616 14.245 57.03 26.813 101.69-0.04-0.063-0.084-0.125-0.125-0.188-0.091-0.135-0.188-0.272-0.281-0.406-0.071-0.115-0.147-0.229-0.219-0.344-0.066-0.098-0.152-0.184-0.219-0.281-0.012-0.019-0.019-0.043-0.031-0.063-0.013-0.019-0.018-0.044-0.031-0.063-0.072-0.116-0.146-0.228-0.219-0.344-0.029-0.043-0.065-0.082-0.094-0.125-0.013-0.019-0.019-0.043-0.031-0.063-0.042-0.062-0.083-0.126-0.125-0.188-0.079-0.127-0.17-0.248-0.25-0.375-0.084-0.124-0.165-0.251-0.25-0.375-0.166-0.25-0.329-0.502-0.5-0.75-0.076-0.122-0.142-0.253-0.219-0.375-0.083-0.123-0.166-0.252-0.25-0.375-0.24-0.388-0.499-0.772-0.75-1.156-0.058-0.087-0.128-0.164-0.188-0.25-0.007-0.012-0.024-0.02-0.031-0.031-0.005-0.007 0.005-0.024 0-0.031-0.091-0.147-0.189-0.292-0.281-0.438-0.071-0.105-0.147-0.208-0.219-0.313-0.117-0.176-0.225-0.356-0.344-0.531-0.037-0.059-0.056-0.129-0.094-0.188-0.008-0.012-0.023-0.019-0.031-0.031-0.091-0.147-0.189-0.291-0.281-0.438-0.066-0.097-0.152-0.184-0.219-0.281-0.098-0.154-0.181-0.316-0.281-0.469-0.071-0.105-0.147-0.208-0.219-0.313-0.096-0.145-0.184-0.293-0.281-0.438-0.061-0.094-0.125-0.187-0.188-0.281-0.32-0.5-0.632-1.01-0.969-1.5-0.103-0.167-0.208-0.334-0.313-0.5-0.029-0.043-0.064-0.082-0.094-0.125-0.133-0.21-0.27-0.417-0.406-0.625-0.05-0.074-0.106-0.145-0.156-0.219-0.012-0.02-0.019-0.043-0.031-0.063-0.106-0.154-0.205-0.315-0.313-0.469-0.05-0.074-0.106-0.145-0.156-0.219-0.111-0.18-0.23-0.352-0.344-0.531-0.042-0.063-0.082-0.125-0.125-0.188-0.005-0.007 0.005-0.024 0-0.031-0.111-0.18-0.231-0.353-0.344-0.531-0.045-0.067-0.111-0.121-0.156-0.188-0.119-0.186-0.223-0.378-0.344-0.563-0.055-0.081-0.101-0.17-0.156-0.25-0.141-0.213-0.294-0.414-0.438-0.625-0.005-0.008 0.005-0.024 0-0.031-0.008-0.012-0.023-0.019-0.031-0.031-0.118-0.191-0.255-0.372-0.375-0.563-0.042-0.062-0.083-0.126-0.125-0.188-0.093-0.146-0.187-0.292-0.281-0.438-0.034-0.05-0.06-0.106-0.094-0.156-0.219-0.334-0.43-0.669-0.656-1-0.138-0.208-0.266-0.418-0.406-0.625-0.13-0.21-0.274-0.416-0.406-0.625-0.029-0.043-0.065-0.082-0.094-0.125-0.008-0.012-0.024-0.019-0.031-0.031-0.026-0.038-0.037-0.087-0.063-0.125-0.1-0.161-0.211-0.309-0.313-0.469-0.167-0.247-0.329-0.505-0.5-0.75-0.021-0.031-0.041-0.063-0.063-0.094-0.281-0.426-0.551-0.86-0.844-1.281-0.025-0.039-0.038-0.086-0.063-0.125-0.021-0.031-0.042-0.063-0.063-0.094-0.09-0.146-0.189-0.292-0.281-0.438-0.053-0.082-0.102-0.168-0.156-0.25-0.037-0.055-0.088-0.101-0.125-0.156-0.137-0.207-0.267-0.419-0.406-0.625-0.149-0.242-0.316-0.478-0.469-0.719-0.008-0.012-0.023-0.019-0.031-0.031-0.157-0.239-0.308-0.481-0.469-0.719-0.005-0.007 0.005-0.024 0-0.031-0.02-0.032-0.043-0.062-0.063-0.094-0.013-0.019-0.018-0.044-0.031-0.063-0.119-0.191-0.254-0.372-0.375-0.563-0.008-0.012-0.023-0.019-0.031-0.031-0.101-0.158-0.21-0.311-0.313-0.469-0.055-0.08-0.101-0.17-0.156-0.25-0.168-0.248-0.329-0.504-0.5-0.75-0.315-0.51-0.638-1.027-0.969-1.531-0.059-0.087-0.128-0.163-0.188-0.25-20.08-30.28-68.25-48.926-101.09-48.969-51.769-0.066-25.11 16.808-50.19 57.38-3.045 4.927-2.238 8.089 1.375 10.06 0.476 0.461 1.065 0.879 1.75 1.25 0.471 0.452 1.045 0.885 1.719 1.25 0.481 0.462 1.088 0.848 1.781 1.219 0.48 0.457 1.06 0.883 1.75 1.25 0.457 0.432 1.01 0.806 1.656 1.156 0.486 0.477 1.068 0.902 1.781 1.281 0.461 0.443 1.027 0.862 1.688 1.219 0.473 0.46 1.093 0.851 1.781 1.219 0.462 0.446 1.021 0.86 1.688 1.219 0.463 0.452 1.046 0.857 1.719 1.219 0.453 0.448 1.029 0.828 1.688 1.188 0.47 0.471 1.085 0.876 1.781 1.25 0.476 0.47 1.077 0.909 1.781 1.281 0.455 0.442 1.028 0.834 1.688 1.188 0.458 0.452 1.047 0.859 1.719 1.219 0.077 0.078 0.166 0.144 0.25 0.219 0.041 0.389 0.435 0.631 1.031 0.781-0.089 0.529 0.264 0.847 0.969 1.031-0.076 0.526 0.3 0.873 1 1.063-0.049 0.507 0.29 0.84 0.969 1.031-0.049 0.514 0.319 0.834 1 1.031-0.042 0.516 0.29 0.86 0.969 1.063-0.015 0.484 0.338 0.796 0.969 1-0.033 0.518 0.335 0.848 1 1.063-0.008 0.245 0.06 0.454 0.219 0.625-20.678 16.408-37.2 39.836-43.875 59.688-7.169 21.33-6.172 29.25-0.063 34.688 0.405 0.439 0.848 0.844 1.313 1.25 0.416 0.441 0.866 0.872 1.344 1.281 0.353 0.365 0.729 0.72 1.125 1.063 0.377 0.397 0.76 0.786 1.188 1.156 0.381 0.4 0.786 0.783 1.219 1.156 0.369 0.387 0.77 0.764 1.188 1.125 0.37 0.388 0.769 0.763 1.188 1.125 0.374 0.395 0.763 0.789 1.188 1.156 0.401 0.425 0.821 0.825 1.281 1.219 0.373 0.388 0.765 0.763 1.188 1.125 0.355 0.371 0.724 0.747 1.125 1.094 0.368 0.39 0.769 0.762 1.188 1.125 0.402 0.428 0.85 0.823 1.313 1.219 0.345 0.359 0.705 0.726 1.094 1.063 0.423 0.45 0.884 0.867 1.375 1.281 0.293 0.303 0.581 0.62 0.906 0.906 0.426 0.464 0.908 0.887 1.406 1.313 0.35 0.368 0.728 0.719 1.125 1.063 0.371 0.395 0.763 0.79 1.188 1.156 0.388 0.414 0.803 0.805 1.25 1.188 0.349 0.369 0.729 0.719 1.125 1.063 0.424 0.456 0.879 0.895 1.375 1.313 0.293 0.305 0.611 0.588 0.938 0.875 0.403 0.442 0.841 0.876 1.313 1.281 0.378 0.405 0.783 0.782 1.219 1.156 0.386 0.412 0.803 0.807 1.25 1.188 0.342 0.361 0.705 0.726 1.094 1.063 0.369 0.397 0.793 0.758 1.219 1.125 0.393 0.424 0.824 0.829 1.281 1.219 0.371 0.394 0.76 0.761 1.188 1.125 0.379 0.404 0.78 0.815 1.219 1.188 0.363 0.386 0.738 0.768 1.156 1.125 0.346 0.37 0.728 0.72 1.125 1.063 0.391 0.426 0.824 0.829 1.281 1.219 0.369 0.394 0.792 0.762 1.219 1.125 0.403 0.431 0.84 0.855 1.313 1.25 0.308 0.322 0.621 0.637 0.969 0.938 0.399 0.439 0.841 0.85 1.313 1.25 0.362 0.389 0.767 0.767 1.188 1.125 0.367 0.395 0.76 0.793 1.188 1.156 0.37 0.399 0.787 0.759 1.219 1.125 0.342 0.37 0.698 0.721 1.094 1.063 0.439 0.485 0.908 0.938 1.438 1.375 0.299 0.313 0.63 0.614 0.969 0.906 0.377 0.417 0.805 0.807 1.25 1.188 0.358 0.393 0.737 0.765 1.156 1.125 0.397 0.439 0.839 0.852 1.313 1.25 0.399 0.429 0.839 0.828 1.313 1.219 0.303 0.32 0.623 0.64 0.969 0.938 0.385 0.429 0.822 0.83 1.281 1.219 0.365 0.399 0.757 0.761 1.188 1.125 0.377 0.413 0.803 0.812 1.25 1.188 0.368 0.4 0.753 0.792 1.188 1.156 0.361 0.392 0.762 0.767 1.188 1.125 0.385 0.421 0.822 0.806 1.281 1.188 0.335 0.361 0.671 0.731 1.063 1.063 0.389 0.431 0.845 0.83 1.313 1.219 0.322 0.348 0.657 0.68 1.031 1 0.394 0.444 0.835 0.851 1.313 1.25 0.347 0.381 0.746 0.747 1.156 1.094 0.356 0.395 0.764 0.767 1.188 1.125 0.392 0.438 0.837 0.856 1.313 1.25 0.317 0.345 0.662 0.653 1.031 0.969 0.406 0.463 0.845 0.899 1.344 1.313 0.342 0.374 0.72 0.722 1.125 1.063 0.355 0.396 0.763 0.767 1.188 1.125 0.339 0.382 0.721 0.748 1.125 1.094 0.388 0.445 0.836 0.853 1.313 1.25 0.381 0.424 0.818 0.807 1.281 1.188 0.337 0.37 0.693 0.727 1.094 1.063 0.447 0.503 0.937 0.963 1.5 1.406 0.285 0.297 0.578 0.6 0.906 0.875 0.365 0.41 0.775 0.819 1.219 1.188 0.337 0.377 0.72 0.722 1.125 1.063 0.367 0.421 0.799 0.812 1.25 1.188 0.436 0.495 0.917 0.941 1.469 1.375 0.291 0.306 0.599 0.625 0.938 0.906 0.368 0.418 0.797 0.815 1.25 1.188 0.324 0.364 0.673 0.703 1.063 1.031 0.368 0.43 0.792 0.838 1.25 1.219 0.428 0.493 0.922 0.913 1.469 1.344 0.295 0.316 0.59 0.618 0.938 0.906 0.364 0.422 0.797 0.814 1.25 1.188 0.336 0.384 0.714 0.719 1.125 1.063 0.428 0.503 0.915 0.97 1.469 1.406 0.363 0.39 0.743 0.776 1.188 1.125 0.305 0.331 0.636 0.638 1 0.938 0.36 0.419 0.768 0.818 1.219 1.188 0.352 0.408 0.748 0.764 1.188 1.125 0.399 0.462 0.863 0.91 1.375 1.313 0.307 0.337 0.63 0.665 1 0.969 0.357 0.418 0.768 0.789 1.219 1.156 0.009 0.011 0.022 0.02 0.031 0.031 0.041 0.033 0.083 0.061 0.125 0.094 0.363 0.404 0.733 0.799 1.188 1.156 0.315 0.349 0.679 0.688 1.063 1 0.388 0.454 0.843 0.887 1.344 1.281 0.319 0.357 0.671 0.682 1.063 1 0.385 0.453 0.813 0.857 1.313 1.25 0.357 0.403 0.737 0.802 1.188 1.156 0.326 0.368 0.72 0.705 1.125 1.031 0.015 0.018 0.016 0.045 0.031 0.063 0.018 0.014 0.044 0.017 0.063 0.031 0.316 0.36 0.67 0.712 1.063 1.031 0.024 0.029 0.038 0.065 0.063 0.094 0.018 0.014 0.045 0.017 0.063 0.031 0.326 0.37 0.686 0.735 1.094 1.063 0.369 0.438 0.8 0.809 1.281 1.188 0.352 0.408 0.736 0.801 1.188 1.156 0.349 0.404 0.74 0.773 1.188 1.125 0.315 0.369 0.696 0.676 1.094 1 0.374 0.463 0.811 0.887 1.313 1.281 0.345 0.404 0.741 0.774 1.188 1.125 0.354 0.418 0.756 0.826 1.219 1.188 0.346 0.406 0.738 0.774 1.188 1.125 0.34 0.405 0.744 0.744 1.188 1.094 0.35 0.42 0.757 0.827 1.219 1.188 0.334 0.397 0.721 0.751 1.156 1.094 0.353 0.43 0.778 0.821 1.25 1.188 0.359 0.431 0.769 0.82 1.25 1.188 0.338 0.397 0.712 0.752 1.156 1.094 0.345 0.415 0.758 0.802 1.219 1.156 0.327 0.393 0.693 0.757 1.125 1.094 0.366 0.453 0.809 0.87 1.313 1.25 0.324 0.381 0.699 0.735 1.125 1.063 0.344 0.42 0.752 0.801 1.219 1.156 0.341 0.417 0.754 0.803 1.219 1.156 0.328 0.401 0.713 0.754 1.156 1.094 0.355 0.446 0.785 0.847 1.281 1.219 0.324 0.39 0.689 0.762 1.125 1.094 0.34 0.424 0.748 0.802 1.219 1.156 0.333 0.415 0.727 0.777 1.188 1.125 0.336 0.424 0.749 0.803 1.219 1.156 0.328 0.411 0.731 0.781 1.188 1.125 0.335 0.427 0.745 0.803 1.219 1.156 0.303 0.385 0.644 0.74 1.063 1.063 0.077 0.087 0.17 0.165 0.25 0.25 0.033 0.039 0.09 0.055 0.125 0.094 0.052 0.071 0.102 0.148 0.156 0.219 111.69-7.238 200.56-98.23 204.41-210.81-0.105-0.102-0.209-0.215-0.313-0.313-0.326-0.355-0.67-0.689-1-1-0.026-0.028-0.037-0.066-0.063-0.094-0.119-0.111-0.255-0.207-0.375-0.313-0.192-0.197-0.369-0.412-0.563-0.594-0.334-0.364-0.661-0.682-1-1-0.068-0.074-0.119-0.147-0.188-0.219-0.069-0.063-0.149-0.127-0.219-0.188-0.196-0.202-0.365-0.408-0.563-0.594-0.326-0.355-0.67-0.658-1-0.969-0.326-0.355-0.67-0.689-1-1-0.326-0.355-0.67-0.689-1-1-0.026-0.028-0.068-0.035-0.094-0.063-0.119-0.111-0.224-0.239-0.344-0.344-0.192-0.197-0.369-0.412-0.563-0.594-0.334-0.364-0.661-0.682-1-1-0.068-0.074-0.119-0.147-0.188-0.219-0.069-0.063-0.149-0.127-0.219-0.188-0.202-0.207-0.39-0.403-0.594-0.594-0.326-0.355-0.639-0.658-0.969-0.969-0.326-0.355-0.67-0.689-1-1-0.326-0.355-0.67-0.689-1-1-0.326-0.355-0.67-0.689-1-1-0.026-0.028-0.037-0.066-0.063-0.094-0.119-0.111-0.255-0.207-0.375-0.313-0.194-0.199-0.367-0.41-0.563-0.594-0.337-0.367-0.659-0.68-1-1-0.326-0.355-0.639-0.658-0.969-0.969-0.326-0.355-0.67-0.689-1-1-0.326-0.355-0.67-0.689-1-1-0.326-0.355-0.67-0.689-1-1-0.026-0.028-0.068-0.035-0.094-0.063-0.119-0.111-0.224-0.239-0.344-0.344-0.194-0.199-0.367-0.41-0.563-0.594-0.334-0.364-0.661-0.682-1-1-0.068-0.074-0.119-0.147-0.188-0.219-0.069-0.063-0.149-0.127-0.219-0.188-0.191-0.196-0.37-0.381-0.563-0.563-0.326-0.355-0.67-0.689-1-1-0.326-0.355-0.67-0.689-1-1-0.326-0.355-0.67-0.689-1-1-0.026-0.028-0.037-0.066-0.063-0.094-0.119-0.111-0.255-0.207-0.375-0.313-0.192-0.197-0.369-0.412-0.563-0.594-0.334-0.364-0.661-0.682-1-1-0.068-0.074-0.119-0.147-0.188-0.219-0.069-0.063-0.149-0.127-0.219-0.188-0.196-0.202-0.365-0.408-0.563-0.594-0.326-0.355-0.67-0.658-1-0.969-0.326-0.355-0.67-0.689-1-1-0.326-0.355-0.67-0.689-1-1-0.326-0.355-0.67-0.689-1-1-0.026-0.028-0.068-0.035-0.094-0.063-0.119-0.111-0.224-0.239-0.344-0.344-0.194-0.199-0.367-0.41-0.563-0.594-0.337-0.367-0.659-0.68-1-1-0.326-0.355-0.639-0.658-0.969-0.969-0.326-0.355-0.67-0.689-1-1-0.326-0.355-0.67-0.689-1-1-0.326-0.355-0.67-0.689-1-1-0.026-0.028-0.037-0.066-0.063-0.094-0.119-0.111-0.255-0.207-0.375-0.313-0.194-0.199-0.367-0.41-0.563-0.594-0.334-0.364-0.661-0.682-1-1-0.068-0.074-0.119-0.147-0.188-0.219-0.069-0.063-0.149-0.127-0.219-0.188-0.191-0.196-0.37-0.381-0.563-0.563-0.326-0.355-0.67-0.689-1-1-0.326-0.355-0.67-0.689-1-1-0.326-0.355-0.67-0.689-1-1-0.026-0.028-0.068-0.035-0.094-0.063-0.119-0.111-0.224-0.239-0.344-0.344-0.194-0.199-0.367-0.41-0.563-0.594-0.334-0.364-0.661-0.682-1-1-0.068-0.074-0.119-0.147-0.188-0.219-0.069-0.063-0.149-0.127-0.219-0.188-0.191-0.196-0.37-0.381-0.563-0.563-0.326-0.355-0.67-0.689-1-1-0.326-0.355-0.67-0.689-1-1-0.326-0.355-0.67-0.689-1-1-0.026-0.028-0.037-0.066-0.063-0.094-0.119-0.111-0.255-0.207-0.375-0.313-0.192-0.197-0.369-0.412-0.563-0.594-0.334-0.364-0.661-0.682-1-1-0.068-0.074-0.119-0.147-0.188-0.219-0.069-0.063-0.149-0.127-0.219-0.188-0.202-0.207-0.39-0.403-0.594-0.594-0.326-0.355-0.639-0.658-0.969-0.969-0.326-0.355-0.67-0.689-1-1-0.326-0.355-0.67-0.689-1-1-0.326-0.355-0.67-0.689-1-1-0.026-0.028-0.068-0.035-0.094-0.063-0.119-0.111-0.224-0.239-0.344-0.344-0.194-0.199-0.367-0.41-0.563-0.594-0.337-0.367-0.659-0.68-1-1-0.326-0.355-0.639-0.658-0.969-0.969-0.326-0.355-0.67-0.689-1-1-0.326-0.355-0.67-0.689-1-1-0.326-0.355-0.67-0.689-1-1-0.026-0.028-0.037-0.066-0.063-0.094-0.119-0.111-0.255-0.207-0.375-0.313-0.194-0.199-0.367-0.41-0.563-0.594-0.334-0.364-0.661-0.682-1-1-0.068-0.074-0.119-0.147-0.188-0.219-0.069-0.063-0.149-0.127-0.219-0.188-0.191-0.196-0.37-0.381-0.563-0.563-0.326-0.355-0.67-0.689-1-1-0.326-0.355-0.67-0.689-1-1-0.326-0.355-0.67-0.689-1-1-0.026-0.028-0.068-0.035-0.094-0.063-0.119-0.111-0.224-0.239-0.344-0.344-0.192-0.197-0.369-0.412-0.563-0.594-0.334-0.364-0.661-0.682-1-1-0.068-0.074-0.119-0.147-0.188-0.219-0.069-0.063-0.149-0.127-0.219-0.188-0.196-0.202-0.365-0.408-0.563-0.594-0.326-0.355-0.67-0.658-1-0.969-0.326-0.355-0.67-0.689-1-1-0.326-0.355-0.67-0.689-1-1-0.026-0.028-0.037-0.066-0.063-0.094-0.119-0.111-0.255-0.207-0.375-0.313-0.192-0.197-0.369-0.412-0.563-0.594-0.331-0.361-0.664-0.685-1-1-0.337-0.367-0.659-0.68-1-1-0.326-0.355-0.639-0.658-0.969-0.969-0.326-0.355-0.67-0.689-1-1-0.326-0.355-0.67-0.689-1-1-0.326-0.355-0.67-0.689-1-1-0.026-0.028-0.068-0.035-0.094-0.063-0.119-0.111-0.224-0.239-0.344-0.344-0.194-0.199-0.367-0.41-0.563-0.594-0.334-0.364-0.661-0.682-1-1-0.068-0.074-0.119-0.147-0.188-0.219-0.069-0.063-0.149-0.127-0.219-0.188-0.191-0.196-0.37-0.381-0.563-0.563-0.326-0.355-0.67-0.689-1-1-0.326-0.355-0.67-0.689-1-1-0.326-0.355-0.67-0.689-1-1-0.026-0.028-0.037-0.066-0.063-0.094-0.119-0.111-0.255-0.207-0.375-0.313-0.194-0.199-0.367-0.41-0.563-0.594-0.334-0.364-0.661-0.682-1-1-0.068-0.074-0.119-0.147-0.188-0.219-0.069-0.063-0.149-0.127-0.219-0.188-0.191-0.196-0.37-0.381-0.563-0.563-0.326-0.355-0.67-0.689-1-1-0.326-0.355-0.67-0.689-1-1-0.326-0.355-0.67-0.689-1-1-0.026-0.028-0.068-0.035-0.094-0.063-0.119-0.111-0.224-0.239-0.344-0.344-0.192-0.197-0.369-0.412-0.563-0.594-0.334-0.364-0.661-0.682-1-1-0.068-0.074-0.119-0.147-0.188-0.219-0.069-0.063-0.149-0.127-0.219-0.188-0.196-0.202-0.365-0.408-0.563-0.594-0.326-0.355-0.67-0.658-1-0.969-0.326-0.355-0.67-0.689-1-1-0.326-0.355-0.67-0.689-1-1-0.326-0.355-0.67-0.689-1-1-0.026-0.028-0.037-0.066-0.063-0.094-0.119-0.111-0.255-0.207-0.375-0.313-0.194-0.199-0.367-0.41-0.563-0.594-0.337-0.367-0.659-0.68-1-1-0.326-0.355-0.639-0.658-0.969-0.969-0.326-0.355-0.67-0.689-1-1-0.326-0.355-0.67-0.689-1-1-0.326-0.355-0.67-0.689-1-1-0.026-0.028-0.068-0.035-0.094-0.063-0.119-0.111-0.224-0.239-0.344-0.344-0.194-0.199-0.367-0.41-0.563-0.594-0.334-0.364-0.661-0.682-1-1-0.068-0.074-0.119-0.147-0.188-0.219-0.069-0.063-0.149-0.127-0.219-0.188-0.191-0.196-0.37-0.381-0.563-0.563-0.326-0.355-0.67-0.689-1-1-0.326-0.355-0.67-0.689-1-1-0.326-0.355-0.67-0.689-1-1-0.026-0.028-0.037-0.066-0.063-0.094-0.119-0.111-0.255-0.207-0.375-0.313-0.192-0.197-0.369-0.412-0.563-0.594-0.334-0.364-0.661-0.682-1-1-0.068-0.074-0.119-0.147-0.188-0.219-0.069-0.063-0.149-0.127-0.219-0.188-0.196-0.202-0.365-0.408-0.563-0.594-0.326-0.355-0.67-0.658-1-0.969-0.326-0.355-0.67-0.689-1-1-0.326-0.355-0.67-0.689-1-1-0.026-0.028-0.068-0.035-0.094-0.063-0.119-0.111-0.224-0.239-0.344-0.344-0.192-0.197-0.369-0.412-0.563-0.594-0.331-0.361-0.664-0.685-1-1-0.337-0.367-0.659-0.68-1-1-0.326-0.355-0.639-0.658-0.969-0.969-0.326-0.355-0.67-0.689-1-1-0.326-0.355-0.67-0.689-1-1-0.326-0.355-0.67-0.689-1-1-0.026-0.028-0.037-0.066-0.063-0.094-0.119-0.111-0.255-0.207-0.375-0.313-0.194-0.199-0.367-0.41-0.563-0.594-0.334-0.364-0.661-0.682-1-1-0.068-0.074-0.119-0.147-0.188-0.219-0.069-0.063-0.149-0.127-0.219-0.188-0.191-0.196-0.37-0.381-0.563-0.563-0.326-0.355-0.67-0.689-1-1-0.326-0.355-0.67-0.689-1-1-0.326-0.355-0.67-0.689-1-1-0.026-0.028-0.068-0.035-0.094-0.063-0.119-0.111-0.224-0.239-0.344-0.344-0.194-0.199-0.367-0.41-0.563-0.594-0.334-0.364-0.661-0.682-1-1-0.068-0.074-0.119-0.147-0.188-0.219-0.069-0.063-0.149-0.127-0.219-0.188-0.191-0.196-0.37-0.381-0.563-0.563-0.326-0.355-0.67-0.689-1-1-0.326-0.355-0.67-0.689-1-1-0.326-0.355-0.67-0.689-1-1-0.026-0.028-0.037-0.066-0.063-0.094-0.119-0.111-0.255-0.207-0.375-0.313-0.192-0.197-0.369-0.412-0.563-0.594-0.334-0.364-0.661-0.682-1-1-0.068-0.074-0.119-0.147-0.188-0.219-0.069-0.063-0.149-0.127-0.219-0.188-0.196-0.202-0.365-0.408-0.563-0.594-0.326-0.355-0.67-0.658-1-0.969-0.326-0.355-0.67-0.689-1-1-0.326-0.355-0.67-0.689-1-1-11.283-12.287-24.858 2.499-60.47-5.469-1.417-0.317-2.639-0.44-3.719-0.406m174.44 362.56c0.019 0.031 0.043 0.063 0.063 0.094-0.008-0.035-0.054-0.059-0.063-0.094"/>
  <path id="path10" fill-opacity="0.067" d="m256 1c-140.83 0-255 114.17-255 255s114.17 255 255 255 255-114.17 255-255-114.17-255-255-255m8.827 44.931c120.9 0 218.9 98 218.9 218.9s-98 218.9-218.9 218.9-218.93-98-218.93-218.9 98.03-218.9 218.93-218.9"/>
  <g id="g12" fill-opacity="0.129">
   <path id="path14" d="m256 4.433c-138.94 0-251.57 112.63-251.57 251.57s112.63 251.57 251.57 251.57 251.57-112.63 251.57-251.57-112.63-251.57-251.57-251.57m5.885 38.556c120.9 0 218.9 98 218.9 218.9s-98 218.9-218.9 218.9-218.93-98-218.93-218.9 98.03-218.9 218.93-218.9"/>
   <path id="path16" d="m256 8.356c-136.77 0-247.64 110.87-247.64 247.64s110.87 247.64 247.64 247.64 247.64-110.87 247.64-247.64-110.87-247.64-247.64-247.64m2.942 31.691c120.9 0 218.9 98 218.9 218.9s-98 218.9-218.9 218.9-218.93-98-218.93-218.9 98.03-218.9 218.93-218.9"/>
  </g>
  <path id="path18" d="m253.04 7.859c-135.42 0-245.19 109.78-245.19 245.19 0 135.42 109.78 245.19 245.19 245.19 135.42 0 245.19-109.78 245.19-245.19 0-135.42-109.78-245.19-245.19-245.19zm0 26.297c120.9 0 218.9 98 218.9 218.9s-98 218.9-218.9 218.9-218.93-98-218.93-218.9 98.03-218.9 218.93-218.9z" stroke-opacity="0.31" stroke="#000" stroke-width="4.904" fill="#fff"/>
 </g>
 <path id="path66" d="m263.02 110.17c-33.469 1.054 89.17 165.34-5.269 154.85 78.75 21.18 96.79-77.53 80.71-125.82-15.932-47.832-24.22-17.99-71.7-28.613-1.417-0.317-2.658-0.454-3.737-0.419m-93.84 22.893c-51.77-0.066-25.1 16.813-50.17 57.38-23.95 38.743 189.19-30.647 148.46 56.04 45.08-66.18-46.03-113.35-98.29-113.42m36.431 74.17c-41.42-0.096-83.11 45.597-94.76 80.27-16.06 47.79 8.707 28.377 40.689 64.07 30.544 34.09 28.45-184.2 100.76-119.79-14.312-17.462-30.481-24.515-46.689-24.552m179.45 7.735c-25.72-1.945-131.09 129.99-148.47 46.823 3.587 79.28 105.85 65.43 148.17 35.656 41.924-29.495 10.128-27.922 5.86-75.05-0.446-4.923-2.403-7.185-5.561-7.424m-151.84 26.28c-76.54 27.811-31.371 117.97 10.868 147.85 41.842 29.603 30.479 0.729 75.32-17.777 42.827-17.674-171.61-83.19-86.19-130.08" fill-rule="evenodd" fill="#fff"/>
</svg>
