<?xml version="1.0" encoding="UTF-8" standalone="no"?>
<svg
   xmlns:dc="http://purl.org/dc/elements/1.1/"
   xmlns:cc="http://creativecommons.org/ns#"
   xmlns:rdf="http://www.w3.org/1999/02/22-rdf-syntax-ns#"
   xmlns:svg="http://www.w3.org/2000/svg"
   xmlns="http://www.w3.org/2000/svg"
   xmlns:sodipodi="http://sodipodi.sourceforge.net/DTD/sodipodi-0.dtd"
   xmlns:inkscape="http://www.inkscape.org/namespaces/inkscape"
   height="512"
   viewBox="0 0 512 512"
   width="512"
   version="1.1"
   id="svg2"
   inkscape:version="0.91 r"
   sodipodi:docname="distributor-logo-linux-mint.svg">
  <defs
     id="defs15" />
  <sodipodi:namedview
     pagecolor="#ffffff"
     bordercolor="#666666"
     borderopacity="1"
     objecttolerance="10"
     gridtolerance="10"
     guidetolerance="10"
     inkscape:pageopacity="0"
     inkscape:pageshadow="2"
     inkscape:window-width="640"
     inkscape:window-height="480"
     id="namedview13"
     showgrid="false"
     inkscape:zoom="0.4609375"
     inkscape:cx="256"
     inkscape:cy="256"
     inkscape:window-x="0"
     inkscape:window-y="0"
     inkscape:window-maximized="0"
     inkscape:current-layer="svg2" />
  <metadata
     id="metadata72">
    <rdf:RDF>
      <cc:Work
         rdf:about="">
        <dc:format>image/svg+xml</dc:format>
        <dc:type
           rdf:resource="http://purl.org/dc/dcmitype/StillImage" />
      </cc:Work>
    </rdf:RDF>
  </metadata>
  <g
     id="g4"
     fill-rule="evenodd">
    <path
       id="path6"
       fill="#BF9E73"
       d="m471.95 253.05c0 120.9-98.01 218.9-218.9 218.9-120.9 0-218.9-98.01-218.9-218.9 0-120.9 98.01-218.9 218.9-218.9 120.9 0 218.9 98.01 218.9 218.9" />
    <path
       id="path10"
       fill-opacity="0.067"
       d="m256 1c-140.83 0-255 114.17-255 255s114.17 255 255 255 255-114.17 255-255-114.17-255-255-255m8.827 44.931c120.9 0 218.9 98 218.9 218.9s-98 218.9-218.9 218.9-218.93-98-218.93-218.9 98.03-218.9 218.93-218.9" />
    <g
       id="g12"
       fill-opacity="0.129">
      <path
         id="path14"
         d="m256 4.433c-138.94 0-251.57 112.63-251.57 251.57s112.63 251.57 251.57 251.57 251.57-112.63 251.57-251.57-112.63-251.57-251.57-251.57m5.885 38.556c120.9 0 218.9 98 218.9 218.9s-98 218.9-218.9 218.9-218.93-98-218.93-218.9 98.03-218.9 218.93-218.9" />
      <path
         id="path16"
         d="m256 8.356c-136.77 0-247.64 110.87-247.64 247.64s110.87 247.64 247.64 247.64 247.64-110.87 247.64-247.64-110.87-247.64-247.64-247.64m2.942 31.691c120.9 0 218.9 98 218.9 218.9s-98 218.9-218.9 218.9-218.93-98-218.93-218.9 98.03-218.9 218.93-218.9" />
    </g>
    <path
       id="path18"
       d="m253.04 7.859c-135.42 0-245.19 109.78-245.19 245.19 0 135.42 109.78 245.19 245.19 245.19 135.42 0 245.19-109.78 245.19-245.19 0-135.42-109.78-245.19-245.19-245.19zm0 26.297c120.9 0 218.9 98 218.9 218.9s-98 218.9-218.9 218.9-218.93-98-218.93-218.9 98.03-218.9 218.93-218.9z"
       stroke-opacity="0.31"
       stroke="#000"
       stroke-width="4.904"
       fill="#fff" />
  </g>
  <path
     id="path66"
     d="m 114.78508,117.9756 0,189.38248 c 0,20.09374 7.65629,37.69908 22.55259,51.94511 12.73209,12.06868 28.00029,19.93821 45.20355,21.70427 l 140.67325,0 c 21.59405,0 40.42647,-7.73934 55.73665,-22.70654 l 0.14876,0 c 13.02001,-12.8463 20.59832,-28.23284 22.45301,-45.55594 l 0,-21.08448 -0.0996,-82.38178 c 0,-16.39687 -6.33185,-30.91247 -18.32975,-42.55029 -12.00869,-11.64704 -26.94938,-17.65028 -43.76395,-17.65028 -16.50505,0 -30.94307,5.90416 -42.62066,16.69524 -11.64399,-10.7738 -25.97404,-16.69524 -42.4719,-16.69524 -16.81937,0 -31.76005,6.00554 -43.76394,17.65028 -11.9967,11.63552 -18.28057,26.15342 -18.28057,42.55029 l 0,82.90595 39.09363,0 0,-82.90595 c 0,-6.28434 2.1822,-11.16089 6.85491,-15.69413 4.68831,-4.54707 9.64535,-6.6311 16.09477,-6.6311 6.58139,0 11.49524,2.07251 16.19434,6.6311 4.67271,4.53324 6.80573,9.40979 6.80573,15.69413 l 0,82.90595 39.09363,0 0,-82.90595 c 0,-6.28434 2.1822,-11.16089 6.85491,-15.69413 4.69791,-4.55744 9.56257,-6.6311 16.14395,-6.6311 6.44583,0 11.45565,2.08288 16.14396,6.6311 4.67271,4.53324 6.75534,9.40979 6.75534,15.69413 l 0.19914,96.83978 c 0,1.21769 -0.0636,2.42733 -0.19914,3.62544 -0.008,0.0622 0.008,0.12787 0,0.19124 -0.054,0.45735 -0.12477,0.93084 -0.19915,1.38359 -0.16435,0.97462 -0.39229,1.91122 -0.64542,2.86164 -4.51316,16.90837 -22.85371,29.95283 -45.64743,29.95283 l -84.54071,-0.28571 0,0.0472 -41.7761,-0.19124 c -20.3116,0 -37.65402,-18.91636 -37.65402,-43.31409 l 0,-182.41269 -37.00741,0"
     inkscape:connector-curvature="0"
     style="fill:#ffffff;fill-rule:evenodd" />
</svg>
