<?xml version="1.0" encoding="UTF-8" standalone="no"?>
<svg xmlns="http://www.w3.org/2000/svg" height="512" viewBox="0 0 512 512" width="512" version="1.1" xmlns:xlink="http://www.w3.org/1999/xlink">
 <metadata id="metadata75"/>
 <path id="path4" d="m471.95 253.05c0 120.9-98.01 218.9-218.9 218.9-120.9 0-218.9-98.01-218.9-218.9 0-120.9 98.01-218.9 218.9-218.9 120.9 0 218.9 98.01 218.9 218.9" fill-rule="evenodd" fill="#BF9E73"/>
 <path id="0" d="m193.53 236.81c-44.902 0-81.72 36.848-81.72 81.75s36.817 81.72 81.72 81.72c44.902 0 81.72-36.817 81.72-81.72v-81.74h-81.71m0 38.25h43.5v43.5c0 24.22-19.28 43.5-43.5 43.5s-43.5-19.28-43.5-43.5 19.28-43.5 43.5-43.5" fill-opacity="0.314" fill="#fff" color="#000000"/>
 <g id="g7" fill-rule="evenodd">
  <path id="path9" fill-opacity="0.067" d="m256 1c-140.83 0-255 114.17-255 255s114.17 255 255 255 255-114.17 255-255-114.17-255-255-255m8.827 44.931c120.9 0 218.9 98 218.9 218.9s-98 218.9-218.9 218.9-218.93-98-218.93-218.9 98.03-218.9 218.93-218.9"/>
  <g id="g11" fill-opacity="0.129">
   <path id="path13" d="m256 4.433c-138.94 0-251.57 112.63-251.57 251.57s112.63 251.57 251.57 251.57 251.57-112.63 251.57-251.57-112.63-251.57-251.57-251.57m5.885 38.556c120.9 0 218.9 98 218.9 218.9s-98 218.9-218.9 218.9-218.93-98-218.93-218.9 98.03-218.9 218.93-218.9"/>
   <path id="path15" d="m256 8.356c-136.77 0-247.64 110.87-247.64 247.64s110.87 247.64 247.64 247.64 247.64-110.87 247.64-247.64-110.87-247.64-247.64-247.64m2.942 31.691c120.9 0 218.9 98 218.9 218.9s-98 218.9-218.9 218.9-218.93-98-218.93-218.9 98.03-218.9 218.93-218.9"/>
  </g>
  <path id="path17" d="m253.04 7.859c-135.42 0-245.19 109.78-245.19 245.19 0 135.42 109.78 245.19 245.19 245.19 135.42 0 245.19-109.78 245.19-245.19 0-135.42-109.78-245.19-245.19-245.19zm0 26.297c120.9 0 218.9 98 218.9 218.9s-98 218.9-218.9 218.9-218.93-98-218.93-218.9 98.03-218.9 218.93-218.9z" stroke-opacity="0.31" stroke="#000" stroke-width="4.904" fill="#fff"/>
 </g>
 <use id="use65" xlink:href="#0" transform="matrix(-1,0,0,-1,512,512)" height="1" width="1" stroke="#ffffff"/>
 <path id="path67" fill-opacity="0.235" d="m318.19 112.03c-45.15 0-81.75 36.629-81.75 81.78v43.06h-34c-10.677 0-19.286 8.404-19.281 19.06 0 5.514 2.325 10.423 6.03 13.875 0.29 0.313 0.596 0.613 0.906 0.906 0.348 0.382 0.715 0.742 1.094 1.094 0.371 0.4 0.753 0.789 1.156 1.156 0.314 0.331 0.631 0.661 0.969 0.969 0.275 0.291 0.551 0.571 0.844 0.844 0.32 0.346 0.655 0.679 1 1 0.29 0.313 0.596 0.613 0.906 0.906 0.348 0.382 0.715 0.742 1.094 1.094 0.341 0.368 0.694 0.723 1.063 1.063 0.35 0.374 0.714 0.749 1.094 1.094 0.266 0.279 0.53 0.55 0.813 0.813 0.32 0.346 0.655 0.679 1 1 0.32 0.346 0.655 0.679 1 1 0.29 0.313 0.596 0.613 0.906 0.906 0.348 0.382 0.715 0.742 1.094 1.094 0.371 0.4 0.753 0.789 1.156 1.156 0.266 0.279 0.53 0.55 0.813 0.813 0.32 0.346 0.655 0.679 1 1 0.32 0.346 0.655 0.679 1 1 0.29 0.313 0.596 0.613 0.906 0.906 0.348 0.382 0.715 0.742 1.094 1.094 0.371 0.4 0.753 0.789 1.156 1.156 0.314 0.331 0.631 0.661 0.969 0.969 0.275 0.291 0.551 0.571 0.844 0.844 0.32 0.346 0.655 0.679 1 1 0.29 0.313 0.596 0.613 0.906 0.906 0.348 0.382 0.715 0.742 1.094 1.094 0.371 0.4 0.753 0.789 1.156 1.156 0.314 0.331 0.631 0.661 0.969 0.969 0.275 0.291 0.551 0.571 0.844 0.844 0.32 0.346 0.655 0.679 1 1 0.29 0.313 0.596 0.613 0.906 0.906 0.348 0.382 0.715 0.742 1.094 1.094 0.341 0.368 0.694 0.723 1.063 1.063 0.35 0.374 0.714 0.749 1.094 1.094 0.266 0.279 0.53 0.55 0.813 0.813 0.32 0.346 0.655 0.679 1 1 0.32 0.346 0.655 0.679 1 1 0.29 0.313 0.596 0.613 0.906 0.906 0.348 0.382 0.715 0.742 1.094 1.094 0.371 0.4 0.753 0.789 1.156 1.156 0.266 0.279 0.53 0.55 0.813 0.813 0.32 0.346 0.655 0.679 1 1 0.32 0.346 0.655 0.679 1 1 0.29 0.313 0.596 0.613 0.906 0.906 0.348 0.382 0.715 0.742 1.094 1.094 0.376 0.406 0.778 0.785 1.188 1.156 0.184 0.193 0.34 0.409 0.531 0.594v1.188c-0.042 23.806-19.35 43.09-43.16 43.09-8.06 0-10.06-1.063-15.563-1.063-11.566 0-19.281 7.747-19.281 18.406 0.002 4.786 2.242 9.197 5.75 12.625 0.055 0.061 0.101 0.127 0.156 0.188 0.07 0.067 0.148 0.121 0.219 0.188 0.321 0.339 0.655 0.679 1 1 0.361 0.381 0.734 0.767 1.125 1.125 0.334 0.347 0.672 0.703 1.031 1.031 0.268 0.277 0.529 0.548 0.813 0.813 0.325 0.344 0.651 0.675 1 1 0.203 0.215 0.412 0.417 0.625 0.625 0.055 0.061 0.101 0.127 0.156 0.188 0.07 0.067 0.148 0.121 0.219 0.188 0.2 0.212 0.415 0.42 0.625 0.625 0.055 0.061 0.101 0.127 0.156 0.188 0.069 0.066 0.149 0.122 0.219 0.188 0.365 0.385 0.73 0.763 1.125 1.125 0.319 0.331 0.627 0.686 0.969 1 0.35 0.364 0.716 0.72 1.094 1.063 0.258 0.266 0.508 0.527 0.781 0.781 0.325 0.344 0.651 0.675 1 1 0.203 0.215 0.412 0.417 0.625 0.625 0.055 0.061 0.101 0.127 0.156 0.188 0.07 0.067 0.148 0.121 0.219 0.188 0.321 0.339 0.655 0.679 1 1 0.361 0.381 0.734 0.767 1.125 1.125 0.334 0.347 0.672 0.703 1.031 1.031 0.268 0.277 0.529 0.548 0.813 0.813 0.325 0.344 0.651 0.675 1 1 0.203 0.215 0.412 0.417 0.625 0.625 0.055 0.061 0.101 0.127 0.156 0.188 0.07 0.067 0.148 0.121 0.219 0.188 0.321 0.339 0.655 0.679 1 1 0.361 0.381 0.734 0.767 1.125 1.125 0.334 0.347 0.672 0.703 1.031 1.031 0.268 0.277 0.529 0.548 0.813 0.813 0.325 0.344 0.651 0.675 1 1 0.203 0.215 0.412 0.417 0.625 0.625 0.055 0.061 0.101 0.127 0.156 0.188 0.07 0.067 0.148 0.121 0.219 0.188 0.321 0.339 0.655 0.679 1 1 0.361 0.381 0.734 0.767 1.125 1.125 0.319 0.331 0.627 0.686 0.969 1 0.35 0.364 0.716 0.72 1.094 1.063 0.258 0.266 0.508 0.527 0.781 0.781 0.203 0.215 0.412 0.417 0.625 0.625 0.055 0.061 0.101 0.127 0.156 0.188 0.07 0.067 0.148 0.121 0.219 0.188 0.2 0.212 0.415 0.42 0.625 0.625 0.055 0.061 0.101 0.127 0.156 0.188 0.069 0.066 0.149 0.122 0.219 0.188 0.365 0.385 0.73 0.763 1.125 1.125 0.319 0.331 0.627 0.686 0.969 1 0.339 0.353 0.698 0.698 1.063 1.031 0.268 0.277 0.529 0.548 0.813 0.813 0.325 0.344 0.651 0.675 1 1 0.203 0.215 0.412 0.417 0.625 0.625 0.055 0.061 0.101 0.127 0.156 0.188 0.07 0.067 0.148 0.121 0.219 0.188 0.321 0.339 0.655 0.679 1 1 0.361 0.381 0.734 0.767 1.125 1.125 0.334 0.347 0.672 0.703 1.031 1.031 0.268 0.277 0.529 0.548 0.813 0.813 0.325 0.344 0.651 0.675 1 1 0.203 0.215 0.412 0.417 0.625 0.625 0.055 0.061 0.101 0.127 0.156 0.188 0.07 0.067 0.148 0.121 0.219 0.188 0.321 0.339 0.655 0.679 1 1 0.361 0.381 0.734 0.767 1.125 1.125 0.334 0.347 0.672 0.703 1.031 1.031 0.268 0.277 0.529 0.548 0.813 0.813 0.325 0.344 0.651 0.675 1 1 0.203 0.215 0.412 0.417 0.625 0.625 0.055 0.061 0.101 0.127 0.156 0.188 0.07 0.067 0.148 0.121 0.219 0.188 0.2 0.212 0.415 0.42 0.625 0.625 0.055 0.061 0.101 0.127 0.156 0.188 0.069 0.066 0.149 0.122 0.219 0.188 0.365 0.385 0.73 0.763 1.125 1.125 0.319 0.331 0.627 0.686 0.969 1 0.35 0.364 0.716 0.72 1.094 1.063 0.258 0.266 0.508 0.527 0.781 0.781 0.325 0.344 0.651 0.675 1 1 0.203 0.215 0.412 0.417 0.625 0.625 0.055 0.061 0.101 0.127 0.156 0.188 0.07 0.067 0.148 0.121 0.219 0.188 0.321 0.339 0.655 0.679 1 1 0.361 0.381 0.734 0.767 1.125 1.125 0.334 0.347 0.672 0.703 1.031 1.031 0.268 0.277 0.529 0.548 0.813 0.813 0.325 0.344 0.651 0.675 1 1 0.203 0.215 0.412 0.417 0.625 0.625 0.055 0.061 0.101 0.127 0.156 0.188 0.07 0.067 0.148 0.121 0.219 0.188 0.321 0.339 0.655 0.679 1 1 0.361 0.381 0.734 0.767 1.125 1.125 0.334 0.347 0.672 0.703 1.031 1.031 0.268 0.277 0.529 0.548 0.813 0.813 0.325 0.344 0.651 0.675 1 1 0.203 0.215 0.412 0.417 0.625 0.625 0.055 0.061 0.101 0.127 0.156 0.188 0.07 0.067 0.148 0.121 0.219 0.188 0.321 0.339 0.655 0.679 1 1 0.361 0.381 0.734 0.767 1.125 1.125 0.319 0.331 0.627 0.686 0.969 1 0.35 0.364 0.716 0.72 1.094 1.063 0.258 0.266 0.508 0.527 0.781 0.781 0.203 0.215 0.412 0.417 0.625 0.625 0.055 0.061 0.101 0.127 0.156 0.188 0.07 0.067 0.148 0.121 0.219 0.188 0.2 0.212 0.415 0.42 0.625 0.625 0.055 0.061 0.101 0.127 0.156 0.188 0.069 0.066 0.149 0.122 0.219 0.188 0.365 0.385 0.73 0.763 1.125 1.125 0.319 0.331 0.627 0.686 0.969 1 0.339 0.353 0.698 0.698 1.063 1.031 0.268 0.277 0.529 0.548 0.813 0.813 0.071 0.075 0.147 0.145 0.219 0.219 2.797 0.106 5.583 0.188 8.406 0.188 120.9 0 218.91-98.01 218.91-218.91 0-2.655-0.063-5.305-0.156-7.938-0.095-0.092-0.184-0.189-0.281-0.281-0.06-0.065-0.126-0.123-0.188-0.188-0.016-0.015-0.046-0.016-0.063-0.031-0.245-0.257-0.491-0.503-0.75-0.75-0.064-0.07-0.122-0.15-0.188-0.219-0.069-0.064-0.149-0.124-0.219-0.188-0.194-0.199-0.392-0.401-0.594-0.594-0.064-0.07-0.122-0.15-0.188-0.219-0.043-0.04-0.081-0.085-0.125-0.125-0.213-0.221-0.433-0.443-0.656-0.656-0.069-0.075-0.148-0.145-0.219-0.219-0.022-0.02-0.041-0.042-0.063-0.063-0.232-0.243-0.474-0.485-0.719-0.719-0.321-0.347-0.655-0.671-1-1-0.321-0.347-0.655-0.671-1-1-0.06-0.065-0.126-0.123-0.188-0.188-0.016-0.015-0.046-0.016-0.063-0.031-0.245-0.257-0.491-0.503-0.75-0.75-0.064-0.07-0.122-0.15-0.188-0.219-0.069-0.064-0.149-0.124-0.219-0.188-0.194-0.199-0.392-0.401-0.594-0.594-0.064-0.07-0.122-0.15-0.188-0.219-0.054-0.05-0.102-0.107-0.156-0.156-0.203-0.21-0.412-0.422-0.625-0.625-0.069-0.075-0.148-0.145-0.219-0.219-0.022-0.02-0.041-0.042-0.063-0.063-0.232-0.243-0.474-0.485-0.719-0.719-0.321-0.347-0.655-0.671-1-1-0.321-0.347-0.655-0.671-1-1-0.06-0.065-0.126-0.123-0.188-0.188-0.016-0.015-0.046-0.016-0.063-0.031-0.245-0.257-0.491-0.503-0.75-0.75-0.064-0.07-0.122-0.15-0.188-0.219-0.069-0.064-0.149-0.124-0.219-0.188-0.194-0.199-0.392-0.401-0.594-0.594-0.064-0.07-0.122-0.15-0.188-0.219-0.054-0.05-0.102-0.107-0.156-0.156-0.203-0.21-0.412-0.422-0.625-0.625-0.069-0.075-0.148-0.145-0.219-0.219-0.022-0.02-0.041-0.042-0.063-0.063-0.232-0.243-0.474-0.485-0.719-0.719-0.317-0.343-0.659-0.675-1-1-0.321-0.347-0.655-0.671-1-1-0.321-0.347-0.655-0.671-1-1-0.06-0.065-0.126-0.123-0.188-0.188-0.016-0.015-0.046-0.016-0.063-0.031-0.245-0.257-0.491-0.503-0.75-0.75-0.064-0.07-0.122-0.15-0.188-0.219-0.054-0.05-0.102-0.107-0.156-0.156-0.203-0.21-0.412-0.422-0.625-0.625-0.313-0.338-0.664-0.679-1-1-0.069-0.075-0.148-0.145-0.219-0.219-0.022-0.02-0.041-0.042-0.063-0.063-0.232-0.243-0.474-0.485-0.719-0.719-0.321-0.347-0.655-0.671-1-1-0.321-0.347-0.655-0.671-1-1-0.06-0.065-0.126-0.123-0.188-0.188-0.016-0.015-0.046-0.016-0.063-0.031-0.245-0.257-0.491-0.503-0.75-0.75-0.064-0.07-0.122-0.15-0.188-0.219-0.069-0.064-0.149-0.124-0.219-0.188-0.194-0.199-0.392-0.401-0.594-0.594-0.064-0.07-0.122-0.15-0.188-0.219-0.054-0.05-0.102-0.107-0.156-0.156-0.203-0.21-0.412-0.422-0.625-0.625-0.069-0.075-0.148-0.145-0.219-0.219-0.022-0.02-0.041-0.042-0.063-0.063-0.232-0.243-0.474-0.485-0.719-0.719-0.321-0.347-0.655-0.671-1-1-0.321-0.347-0.655-0.671-1-1-0.06-0.065-0.126-0.123-0.188-0.188-0.016-0.015-0.046-0.016-0.063-0.031-0.245-0.257-0.491-0.503-0.75-0.75-0.064-0.07-0.122-0.15-0.188-0.219-0.069-0.064-0.149-0.124-0.219-0.188-0.194-0.199-0.392-0.401-0.594-0.594-0.064-0.07-0.122-0.15-0.188-0.219-0.054-0.05-0.102-0.107-0.156-0.156-0.203-0.21-0.412-0.422-0.625-0.625-0.069-0.075-0.148-0.145-0.219-0.219-0.022-0.02-0.041-0.042-0.063-0.063-0.232-0.243-0.474-0.485-0.719-0.719-0.321-0.347-0.655-0.671-1-1-0.321-0.347-0.655-0.671-1-1-0.06-0.065-0.126-0.123-0.188-0.188-0.016-0.015-0.046-0.016-0.063-0.031-0.245-0.257-0.491-0.503-0.75-0.75-0.064-0.07-0.122-0.15-0.188-0.219-0.069-0.064-0.149-0.124-0.219-0.188-0.194-0.199-0.392-0.401-0.594-0.594-0.064-0.07-0.122-0.15-0.188-0.219-0.054-0.05-0.102-0.107-0.156-0.156-0.203-0.21-0.412-0.422-0.625-0.625-0.313-0.338-0.664-0.679-1-1-0.069-0.075-0.148-0.145-0.219-0.219-0.022-0.02-0.041-0.042-0.063-0.063-0.232-0.243-0.474-0.485-0.719-0.719-0.321-0.347-0.655-0.671-1-1-0.321-0.347-0.655-0.671-1-1-0.06-0.065-0.126-0.123-0.188-0.188-0.016-0.015-0.046-0.016-0.063-0.031-0.245-0.257-0.491-0.503-0.75-0.75-0.064-0.07-0.122-0.15-0.188-0.219-0.048-0.045-0.108-0.081-0.156-0.125-0.208-0.216-0.407-0.448-0.625-0.656-0.313-0.338-0.664-0.679-1-1-0.069-0.075-0.148-0.145-0.219-0.219-0.022-0.02-0.041-0.042-0.063-0.063-0.232-0.243-0.474-0.485-0.719-0.719-0.321-0.347-0.655-0.671-1-1-0.321-0.347-0.655-0.671-1-1-0.06-0.065-0.126-0.123-0.188-0.188-0.016-0.015-0.046-0.016-0.063-0.031-0.245-0.257-0.491-0.503-0.75-0.75-0.064-0.07-0.122-0.15-0.188-0.219-0.069-0.064-0.149-0.124-0.219-0.188-0.194-0.199-0.392-0.401-0.594-0.594-0.064-0.07-0.122-0.15-0.188-0.219-0.054-0.05-0.102-0.107-0.156-0.156-0.203-0.21-0.412-0.422-0.625-0.625-0.069-0.075-0.148-0.145-0.219-0.219-0.022-0.02-0.041-0.042-0.063-0.063-0.232-0.243-0.474-0.485-0.719-0.719-0.321-0.347-0.655-0.671-1-1-0.321-0.347-0.655-0.671-1-1-0.06-0.065-0.126-0.123-0.188-0.188-0.016-0.015-0.046-0.016-0.063-0.031-0.245-0.257-0.491-0.503-0.75-0.75-0.064-0.07-0.122-0.15-0.188-0.219-0.069-0.064-0.149-0.124-0.219-0.188-0.194-0.199-0.392-0.401-0.594-0.594-0.064-0.07-0.122-0.15-0.188-0.219-0.054-0.05-0.102-0.107-0.156-0.156-0.203-0.21-0.412-0.422-0.625-0.625-0.069-0.075-0.148-0.145-0.219-0.219-0.022-0.02-0.041-0.042-0.063-0.063-0.232-0.243-0.474-0.485-0.719-0.719-0.317-0.343-0.659-0.675-1-1-0.321-0.347-0.655-0.671-1-1-0.06-0.065-0.126-0.123-0.188-0.188-0.016-0.015-0.046-0.016-0.063-0.031-0.245-0.257-0.491-0.503-0.75-0.75-0.064-0.07-0.122-0.15-0.188-0.219-0.069-0.064-0.149-0.124-0.219-0.188-0.194-0.199-0.392-0.401-0.594-0.594-0.064-0.07-0.122-0.15-0.188-0.219-0.054-0.05-0.102-0.107-0.156-0.156-0.203-0.21-0.412-0.422-0.625-0.625-0.313-0.338-0.664-0.679-1-1-0.069-0.075-0.148-0.145-0.219-0.219-0.022-0.02-0.041-0.042-0.063-0.063-0.232-0.243-0.474-0.485-0.719-0.719-0.321-0.347-0.655-0.671-1-1-0.321-0.347-0.655-0.671-1-1-0.06-0.065-0.126-0.123-0.188-0.188-0.016-0.015-0.046-0.016-0.063-0.031-0.245-0.257-0.491-0.503-0.75-0.75-0.064-0.07-0.122-0.15-0.188-0.219-0.069-0.064-0.149-0.124-0.219-0.188-0.194-0.199-0.392-0.401-0.594-0.594-0.064-0.07-0.122-0.15-0.188-0.219-0.043-0.04-0.081-0.085-0.125-0.125-0.213-0.221-0.433-0.443-0.656-0.656-0.069-0.075-0.148-0.145-0.219-0.219-0.022-0.02-0.041-0.042-0.063-0.063-0.232-0.243-0.474-0.485-0.719-0.719-0.321-0.347-0.655-0.671-1-1-0.321-0.347-0.655-0.671-1-1-0.06-0.065-0.126-0.123-0.188-0.188-0.016-0.015-0.046-0.016-0.063-0.031-0.245-0.257-0.491-0.503-0.75-0.75-0.064-0.07-0.122-0.15-0.188-0.219-0.069-0.064-0.149-0.124-0.219-0.188-0.194-0.199-0.392-0.401-0.594-0.594-0.064-0.07-0.122-0.15-0.188-0.219-0.054-0.05-0.102-0.107-0.156-0.156-0.203-0.21-0.412-0.422-0.625-0.625-0.069-0.075-0.148-0.145-0.219-0.219-0.022-0.02-0.041-0.042-0.063-0.063-0.232-0.243-0.474-0.485-0.719-0.719-0.321-0.347-0.655-0.671-1-1-0.321-0.347-0.655-0.671-1-1-0.06-0.065-0.126-0.123-0.188-0.188-0.016-0.015-0.046-0.016-0.063-0.031-0.245-0.257-0.491-0.503-0.75-0.75-0.064-0.07-0.122-0.15-0.188-0.219-0.069-0.064-0.149-0.124-0.219-0.188-0.194-0.199-0.392-0.401-0.594-0.594-0.064-0.07-0.122-0.15-0.188-0.219-0.054-0.05-0.102-0.107-0.156-0.156-0.203-0.21-0.412-0.422-0.625-0.625-0.313-0.338-0.664-0.679-1-1-0.069-0.075-0.148-0.145-0.219-0.219-0.022-0.02-0.041-0.042-0.063-0.063-0.232-0.243-0.474-0.485-0.719-0.719-0.321-0.347-0.655-0.671-1-1-0.321-0.347-0.655-0.671-1-1-0.06-0.065-0.126-0.123-0.188-0.188-0.016-0.015-0.046-0.016-0.063-0.031-0.245-0.257-0.491-0.503-0.75-0.75-0.064-0.07-0.122-0.15-0.188-0.219-0.054-0.05-0.102-0.107-0.156-0.156-0.203-0.21-0.412-0.422-0.625-0.625-0.313-0.338-0.664-0.679-1-1-0.069-0.075-0.148-0.145-0.219-0.219-0.022-0.02-0.041-0.042-0.063-0.063-0.232-0.243-0.474-0.485-0.719-0.719-0.321-0.347-0.655-0.671-1-1-0.321-0.347-0.655-0.671-1-1-0.06-0.065-0.126-0.123-0.188-0.188-0.016-0.015-0.046-0.016-0.063-0.031-0.245-0.257-0.491-0.503-0.75-0.75-0.064-0.07-0.122-0.15-0.188-0.219-0.069-0.064-0.149-0.124-0.219-0.188-0.194-0.199-0.392-0.401-0.594-0.594-0.064-0.07-0.122-0.15-0.188-0.219-0.054-0.05-0.102-0.107-0.156-0.156-0.203-0.21-0.412-0.422-0.625-0.625-0.069-0.075-0.148-0.145-0.219-0.219-0.022-0.02-0.041-0.042-0.063-0.063-0.232-0.243-0.474-0.485-0.719-0.719-0.321-0.347-0.655-0.671-1-1-0.321-0.347-0.655-0.671-1-1-0.06-0.065-0.126-0.123-0.188-0.188-0.016-0.015-0.046-0.016-0.063-0.031-0.245-0.257-0.491-0.503-0.75-0.75-0.064-0.07-0.122-0.15-0.188-0.219-0.069-0.064-0.149-0.124-0.219-0.188-0.194-0.199-0.392-0.401-0.594-0.594-0.064-0.07-0.122-0.15-0.188-0.219-0.054-0.05-0.102-0.107-0.156-0.156-0.203-0.21-0.412-0.422-0.625-0.625-0.069-0.075-0.148-0.145-0.219-0.219-0.022-0.02-0.041-0.042-0.063-0.063-0.232-0.243-0.474-0.485-0.719-0.719-0.317-0.343-0.659-0.675-1-1-0.321-0.347-0.655-0.671-1-1-0.06-0.065-0.126-0.123-0.188-0.188-0.016-0.015-0.046-0.016-0.063-0.031-0.245-0.257-0.491-0.503-0.75-0.75-0.064-0.07-0.122-0.15-0.188-0.219-0.069-0.064-0.149-0.124-0.219-0.188-0.194-0.199-0.392-0.401-0.594-0.594-0.064-0.07-0.122-0.15-0.188-0.219-0.054-0.05-0.102-0.107-0.156-0.156-0.203-0.21-0.412-0.422-0.625-0.625-0.313-0.338-0.664-0.679-1-1-0.069-0.075-0.148-0.145-0.219-0.219-0.022-0.02-0.041-0.042-0.063-0.063-0.232-0.243-0.474-0.485-0.719-0.719-0.321-0.347-0.655-0.671-1-1-0.321-0.347-0.655-0.671-1-1-0.06-0.065-0.126-0.123-0.188-0.188-0.016-0.015-0.046-0.016-0.063-0.031-0.245-0.257-0.491-0.503-0.75-0.75-0.064-0.07-0.122-0.15-0.188-0.219-0.069-0.064-0.149-0.124-0.219-0.188-0.194-0.199-0.392-0.401-0.594-0.594-0.064-0.07-0.122-0.15-0.188-0.219-0.043-0.04-0.081-0.085-0.125-0.125-0.213-0.221-0.433-0.443-0.656-0.656-0.069-0.075-0.148-0.145-0.219-0.219-0.022-0.02-0.041-0.042-0.063-0.063-0.232-0.243-0.474-0.485-0.719-0.719-0.321-0.347-0.655-0.671-1-1-0.321-0.347-0.655-0.671-1-1-0.06-0.065-0.126-0.123-0.188-0.188-0.016-0.015-0.046-0.016-0.063-0.031-0.245-0.257-0.491-0.503-0.75-0.75-0.064-0.07-0.122-0.15-0.188-0.219-0.069-0.064-0.149-0.124-0.219-0.188-0.194-0.199-0.392-0.401-0.594-0.594-0.064-0.07-0.122-0.15-0.188-0.219-0.054-0.05-0.102-0.107-0.156-0.156-0.203-0.21-0.412-0.422-0.625-0.625-0.069-0.075-0.148-0.145-0.219-0.219-0.022-0.02-0.041-0.042-0.063-0.063-0.232-0.243-0.474-0.485-0.719-0.719-0.321-0.347-0.655-0.671-1-1-3.047-3.298-7.252-5.79-11.875-7-6.341-1.658-11.212-2.438-18.06-2.438"/>
 <path id="path69" fill="#fff" d="m318.44 111.66c-45.15 0-81.75 36.597-81.75 81.75v43.47h-34.25c-10.677 0-19.286 8.404-19.281 19.06 0 10.592 8.53 19 19.09 19h28.344c3.366 0 6.094 2.734 6.094 6.094v37.5c-0.042 23.806-19.35 43.09-43.16 43.09-8.06 0-10.06-1.063-15.563-1.063-11.566 0-19.281 7.747-19.281 18.406 0.003 8.818 7.535 16.393 16.781 18.813 6.341 1.658 11.212 2.438 18.06 2.438 45.15 0 81.78-36.597 81.78-81.75v-43.47h34.22c10.677 0 19.317-8.404 19.313-19.06 0-10.592-8.53-19-19.09-19h-28.375c-3.366 0-6.094-2.734-6.094-6.094v-37.5c0.042-23.806 19.35-43.09 43.16-43.09 8.06 0 10.06 1.063 15.563 1.063 11.566 0 19.313-7.747 19.313-18.406-0.003-8.818-7.566-16.424-16.813-18.844-6.341-1.658-11.212-2.406-18.06-2.406"/>
</svg>
