<?xml version="1.0" encoding="UTF-8" standalone="no"?>
<svg xmlns="http://www.w3.org/2000/svg" height="512" viewBox="0 0 512 512" width="512" version="1.1">
 <metadata id="metadata74"/>
 <path id="path4" d="m471.95 253.05c0 120.9-98.01 218.9-218.9 218.9-120.9 0-218.9-98.01-218.9-218.9 0-120.9 98.01-218.9 218.9-218.9 120.9 0 218.9 98.01 218.9 218.9" fill-rule="evenodd" fill="#BF9E73"/>
 <g id="g6" color="#000000">
  <path id="path10" fill="#fff" d="m121.55 114.67-0.754 28.827c-15.33-4.767-35.06-10.34-49.572-13.947-19.2 27.503-38.972 62.837-38.972 98.92-13.82 50.18 29.839 138.86 18.448 124.44 9.781-1.375 74.946-1.534 95.15 0.754 29.556 3.345 45.764 4.489 65.25 3.02 44.38-3.356 73.7-10.632 106.23-26.535 17-8.312 20.597-12.04 24.274-21.982 3.506-9.476 4.803-18.243 3.02-18.243-0.633 0-6.174 2.154-12.846 5.307-25.03 11.829-46.956 17.725-66.04 16.705-19.835-1.061-51.726-12.58-90.28-31.12l-18.243-8.322-13.66-34.16 12.906 8.322c22.01 14.618 57.998 31.886 79.7 38.748 33.15 10.483 59.03 9.01 85.73-4.583 9.408-4.793 27.319-16.508 27.319-18.18 0-3.157-9.159-33.899-14.414-47.824-13.14-34.821-22.372-46.602-44.02-56.93-24.04-11.467-50.677-19.233-99.39-30.335-23.288-4.945-46.2-9.929-69.836-12.876m134.31 66.761c15.915-0.339 31.08 10.1 35.672 28.04 2.311 9.04 1.601 15.498-3.02 25.09-6.749 14.02-21.679 21.594-37.934 18.937-11.463-1.874-21.378-9.253-26.566-20.474-6.318-13.668-3.38-31.824 7.569-41.733 7.171-6.49 15.938-9.686 24.274-9.86m8.383 18.967c-12.7 0-20.68 9.314-13.66 15.921 5.694 5.359 15.201 6.158 22.766 2.292 4.899-2.504 6.542-6.35 5.277-11.398-0.931-3.715-8.204-6.815-14.383-6.815"/>
 </g>
 <g id="g12" fill-rule="evenodd">
  <path id="path14" fill-opacity="0.067" d="m256 1c-140.83 0-255 114.17-255 255s114.17 255 255 255 255-114.17 255-255-114.17-255-255-255m8.827 44.931c120.9 0 218.9 98 218.9 218.9s-98 218.9-218.9 218.9-218.93-98-218.93-218.9 98.03-218.9 218.93-218.9"/>
  <g id="g16" fill-opacity="0.129">
   <path id="path18" d="m256 4.433c-138.94 0-251.57 112.63-251.57 251.57s112.63 251.57 251.57 251.57 251.57-112.63 251.57-251.57-112.63-251.57-251.57-251.57m5.885 38.556c120.9 0 218.9 98 218.9 218.9s-98 218.9-218.9 218.9-218.93-98-218.93-218.9 98.03-218.9 218.93-218.9"/>
   <path id="path20" d="m256 8.356c-136.77 0-247.64 110.87-247.64 247.64s110.87 247.64 247.64 247.64 247.64-110.87 247.64-247.64-110.87-247.64-247.64-247.64m2.942 31.691c120.9 0 218.9 98 218.9 218.9s-98 218.9-218.9 218.9-218.93-98-218.93-218.9 98.03-218.9 218.93-218.9"/>
  </g>
  <path id="path22" d="m253.04 7.859c-135.42 0-245.19 109.78-245.19 245.19 0 135.42 109.78 245.19 245.19 245.19 135.42 0 245.19-109.78 245.19-245.19 0-135.42-109.78-245.19-245.19-245.19zm0 26.297c120.9 0 218.9 98 218.9 218.9s-98 218.9-218.9 218.9-218.93-98-218.93-218.9 98.03-218.9 218.93-218.9z" stroke-opacity="0.31" stroke="#000" stroke-width="4.904" fill="#fff"/>
 </g>
</svg>
