<?xml version="1.0" encoding="UTF-8" standalone="no"?>
<svg
   xmlns:dc="http://purl.org/dc/elements/1.1/"
   xmlns:cc="http://creativecommons.org/ns#"
   xmlns:rdf="http://www.w3.org/1999/02/22-rdf-syntax-ns#"
   xmlns:svg="http://www.w3.org/2000/svg"
   xmlns="http://www.w3.org/2000/svg"
   xmlns:sodipodi="http://sodipodi.sourceforge.net/DTD/sodipodi-0.dtd"
   xmlns:inkscape="http://www.inkscape.org/namespaces/inkscape"
   height="512"
   viewBox="0 0 512 512"
   width="512"
   version="1.1"
   id="svg2"
   inkscape:version="0.91 r13725"
   sodipodi:docname="document-preview.svg">
  <defs
     id="defs17" />
  <sodipodi:namedview
     pagecolor="#ffffff"
     bordercolor="#666666"
     borderopacity="1"
     objecttolerance="10"
     gridtolerance="10"
     guidetolerance="10"
     inkscape:pageopacity="0"
     inkscape:pageshadow="2"
     inkscape:window-width="1920"
     inkscape:window-height="1022"
     id="namedview15"
     showgrid="false"
     inkscape:zoom="1.0082714"
     inkscape:cx="417.71252"
     inkscape:cy="159.67197"
     inkscape:window-x="0"
     inkscape:window-y="0"
     inkscape:window-maximized="1"
     inkscape:current-layer="svg2"
     showguides="false" />
  <metadata
     id="metadata28">
    <rdf:RDF>
      <cc:Work
         rdf:about="">
        <dc:format>image/svg+xml</dc:format>
        <dc:type
           rdf:resource="http://purl.org/dc/dcmitype/StillImage" />
        <dc:title></dc:title>
      </cc:Work>
    </rdf:RDF>
  </metadata>
  <path
     style="fill:#BF9E73;fill-rule:evenodd;fill-opacity:1"
     inkscape:connector-curvature="0"
     d="m 471.95,253.05 c 0,120.9 -98.01,218.9 -218.9,218.9 -120.9,0 -218.9,-98.01 -218.9,-218.9 0,-120.9 98.01,-218.9 218.9,-218.9 120.9,0 218.9,98.01 218.9,218.9"
     id="path6" />
  <path
     style="fill-opacity:0.06700003;fill-rule:evenodd"
     inkscape:connector-curvature="0"
     d="M 256,1 C 115.17,1 1,115.17 1,256 1,396.83 115.17,511 256,511 396.83,511 511,396.83 511,256 511,115.17 396.83,1 256,1 m 8.827,44.931 c 120.9,0 218.9,98 218.9,218.9 0,120.9 -98,218.9 -218.9,218.9 -120.9,0 -218.93,-98 -218.93,-218.9 0,-120.9 98.03,-218.9 218.93,-218.9"
     id="path8" />
  <path
     inkscape:connector-curvature="0"
     style="opacity:0.25"
     id="path4190"
     d="m 468.92597,224.69175 -209.87466,-101.28387 7.15231,12.00189 -21.92831,-11.89008 -112.88421,13.77554 c 9.53938,74.56624 -2.93562,214.31955 -2.93562,214.31955 l 197.77251,105.56611 c 90.461,-35.38783 151.84484,-101.56627 151.54353,-215.36656 -0.0405,-15.3013 -2.06038,1.82611 -4.83388,-12.67338"
     sodipodi:nodetypes="cccccccsc" />
  <g
     style="fill-opacity:0.12900002;fill-rule:evenodd"
     id="g10">
    <path
       inkscape:connector-curvature="0"
       d="m 256,4.433 c -138.94,0 -251.57,112.63 -251.57,251.57 0,138.94 112.63,251.57 251.57,251.57 138.94,0 251.57,-112.63 251.57,-251.57 C 507.57,117.063 394.94,4.433 256,4.433 m 5.885,38.556 c 120.9,0 218.9,98 218.9,218.9 0,120.9 -98,218.9 -218.9,218.9 -120.9,0 -218.93,-98 -218.93,-218.9 0,-120.9 98.03,-218.9 218.93,-218.9"
       id="path12" />
    <path
       inkscape:connector-curvature="0"
       d="m 256,8.356 c -136.77,0 -247.64,110.87 -247.64,247.64 0,136.77 110.87,247.64 247.64,247.64 136.77,0 247.64,-110.87 247.64,-247.64 C 503.64,119.226 392.77,8.356 256,8.356 m 2.942,31.691 c 120.9,0 218.9,98 218.9,218.9 0,120.9 -98,218.9 -218.9,218.9 -120.9,0 -218.93,-98 -218.93,-218.9 0,-120.9 98.03,-218.9 218.93,-218.9"
       id="path14" />
  </g>
  <path
     style="fill:#ffffff;fill-rule:evenodd;stroke:#000000;stroke-width:4.90399981;stroke-opacity:0.31000001"
     inkscape:connector-curvature="0"
     d="m 253.04,7.859 c -135.42,0 -245.19,109.78 -245.19,245.19 0,135.42 109.78,245.19 245.19,245.19 135.42,0 245.19,-109.78 245.19,-245.19 0,-135.42 -109.78,-245.19 -245.19,-245.19 z m 0,26.297 c 120.9,0 218.9,98 218.9,218.9 0,120.9 -98,218.9 -218.9,218.9 -120.9,0 -218.93,-98 -218.93,-218.9 0,-120.9 98.03,-218.9 218.93,-218.9 z"
     id="path16" />
  <path
     inkscape:connector-curvature="0"
     id="path10"
     d="m 136.62933,123.56425 c -7.9706,0 -14.43566,6.46257 -14.43566,14.43566 l 0,202.02167 c 0,7.97391 6.46589,14.43565 14.43566,14.43565 l 159.17975,0 c 5.08941,0 9.6201,-2.78667 12.18796,-6.76247 l -8.56451,-10.38592 -2.26707,-2.69336 c -10.35327,4.79592 -21.66757,8.11884 -33.81238,8.11884 -22.63201,0 -43.32894,-9.38841 -58.16892,-24.35654 l -61.32732,0 0,-16.23769 48.6937,0 c -5.02492,-8.63861 -8.39306,-18.57886 -9.92088,-28.85193 l -38.77282,0 0,-16.68336 38.32715,0 c 0.64238,-10.25654 3.08354,-19.96733 7.20814,-28.87131 l -45.53529,0 0,-16.23769 55.01051,0 c 11.21886,-14.36792 27.32505,-24.90513 45.55467,-29.2976 l 0,-58.63395 -107.79269,0 z m 122.20897,0 0,51.8521 51.40644,0 -51.40644,-51.8521 z m -114.98146,42.84192 72.60457,0 0,16.23769 -72.60457,0 0,-16.23769 z m 122.53839,28.07687 c -38.97253,0 -70.57002,31.58637 -70.57002,70.55063 0,38.97252 31.60575,70.57002 70.57002,70.57002 38.97252,0 70.57,-31.5975 70.57,-70.57002 0,-38.96426 -31.60575,-70.55063 -70.57,-70.55063 z m 0,17.63281 c 29.17978,0 52.91781,23.7339 52.91781,52.91782 0,29.1831 -23.73389,52.91782 -52.91781,52.91782 -29.17979,0 -52.91784,-23.7339 -52.91784,-52.91782 0,-29.18309 23.73391,-52.91782 52.91784,-52.91782 z m 68.72922,97.75556 c -6.31712,9.71419 -14.55538,17.94253 -24.25966,24.25965 l 37.1258,44.45018 c 4.1337,4.96375 11.58748,5.30571 16.16018,0.73632 l 16.52834,-16.52834 c 4.5727,-4.56691 4.2435,-11.65832 -0.71694,-15.79202 l -44.83772,-37.12579 z"
     style="fill:#ffffff" />
</svg>
