<?xml version="1.0" encoding="UTF-8" standalone="no"?>
<svg xmlns:dc="http://purl.org/dc/elements/1.1/" xmlns:cc="http://creativecommons.org/ns#" xmlns:rdf="http://www.w3.org/1999/02/22-rdf-syntax-ns#" xmlns:svg="http://www.w3.org/2000/svg" xmlns="http://www.w3.org/2000/svg" xmlns:sodipodi="http://sodipodi.sourceforge.net/DTD/sodipodi-0.dtd" xmlns:inkscape="http://www.inkscape.org/namespaces/inkscape" height="512" viewBox="0 0 512 512" width="512" version="1.1" id="svg2" inkscape:version="0.91 r" sodipodi:docname="document-save.svg">
<defs id="defs17" />
<sodipodi:namedview pagecolor="#ffffff" bordercolor="#666666" borderopacity="1" objecttolerance="10" gridtolerance="10" guidetolerance="10" inkscape:pageopacity="0" inkscape:pageshadow="2" inkscape:window-width="1680" inkscape:window-height="994" id="namedview15" showgrid="false" inkscape:zoom="1.3037281" inkscape:cx="53.590229" inkscape:cy="244.919" inkscape:window-x="0" inkscape:window-y="0" inkscape:window-maximized="1" inkscape:current-layer="svg2" />
<metadata id="metadata28">
<rdf:RDF>
<cc:Work rdf:about="">
<dc:format>image/svg+xml</dc:format>
<dc:type rdf:resource="http://purl.org/dc/dcmitype/StillImage" />
<dc:title></dc:title>
</cc:Work>
</rdf:RDF>
</metadata>
<path style="fill:#BF9E73;fill-rule:evenodd;fill-opacity:1" inkscape:connector-curvature="0" d="m 471.95,253.05 c 0,120.9 -98.01,218.9 -218.9,218.9 -120.9,0 -218.9,-98.01 -218.9,-218.9 0,-120.9 98.01,-218.9 218.9,-218.9 120.9,0 218.9,98.01 218.9,218.9" id="path6" />
<path style="fill-opacity:0.06700003;fill-rule:evenodd" inkscape:connector-curvature="0" d="M 256,1 C 115.17,1 1,115.17 1,256 1,396.83 115.17,511 256,511 396.83,511 511,396.83 511,256 511,115.17 396.83,1 256,1 m 8.827,44.931 c 120.9,0 218.9,98 218.9,218.9 0,120.9 -98,218.9 -218.9,218.9 -120.9,0 -218.93,-98 -218.93,-218.9 0,-120.9 98.03,-218.9 218.93,-218.9" id="path8" />
<g style="fill-opacity:0.12900002;fill-rule:evenodd" id="g10">
<path inkscape:connector-curvature="0" d="m 256,4.433 c -138.94,0 -251.57,112.63 -251.57,251.57 0,138.94 112.63,251.57 251.57,251.57 138.94,0 251.57,-112.63 251.57,-251.57 C 507.57,117.063 394.94,4.433 256,4.433 m 5.885,38.556 c 120.9,0 218.9,98 218.9,218.9 0,120.9 -98,218.9 -218.9,218.9 -120.9,0 -218.93,-98 -218.93,-218.9 0,-120.9 98.03,-218.9 218.93,-218.9" id="path12" />
<path inkscape:connector-curvature="0" d="m 256,8.356 c -136.77,0 -247.64,110.87 -247.64,247.64 0,136.77 110.87,247.64 247.64,247.64 136.77,0 247.64,-110.87 247.64,-247.64 C 503.64,119.226 392.77,8.356 256,8.356 m 2.942,31.691 c 120.9,0 218.9,98 218.9,218.9 0,120.9 -98,218.9 -218.9,218.9 -120.9,0 -218.93,-98 -218.93,-218.9 0,-120.9 98.03,-218.9 218.93,-218.9" id="path14" />
</g>
<path inkscape:connector-curvature="0" style="opacity:0.25" d="m 232.51282,102.78392 c -10.617,6.32 -2.269,26.07 -6.625,36.438 l 0,78 c -13.03,0.806 -26.895,-1.673 -39.37,1.406 11.01,19.97 30.815,38.34 44.875,57 11.914,14.596 23.822,29.22 37.28,42.28 -42.543,0.444 -85.17,-0.893 -127.66,0.656 -31.428,5.929 -31.861,51.52 -6.5,67.09 32.541,26.726 62.78,55.849 92.03,86 8.73,1.059 17.61,1.625 26.625,1.625 108.23,0 198.1,-78.56 215.75,-181.75 -21.2,-21.702 -61.5,-62.698 -183.28,-187.66 -6.679,-0.011 -46.46,-1.057 -53.12,-1.094" id="path1462" />
<path style="fill:#ffffff;fill-rule:evenodd;stroke:#000000;stroke-width:4.90399981;stroke-opacity:0.31000001" inkscape:connector-curvature="0" d="m 253.04,7.859 c -135.42,0 -245.19,109.78 -245.19,245.19 0,135.42 109.78,245.19 245.19,245.19 135.42,0 245.19,-109.78 245.19,-245.19 0,-135.42 -109.78,-245.19 -245.19,-245.19 z m 0,26.297 c 120.9,0 218.9,98 218.9,218.9 0,120.9 -98,218.9 -218.9,218.9 -120.9,0 -218.93,-98 -218.93,-218.9 0,-120.9 98.03,-218.9 218.93,-218.9 z" id="path16" />
<path inkscape:connector-curvature="0" style="fill:#ffffff" d="m 232.52282,102.79392 c -8,0 -6.629,5.307 -6.629,5.307 l 0,109.11 -34.941,0 c -10.235,0 -0.802,8.903 -0.802,8.903 l 62.02,74.951 c 0,0 5.069,5.955 10.376,0.628 7.364,-7.342 60.13,-77.4 60.13,-77.4 0,0 9.363,-9.336 -3.054,-9.336 l -32.28,0 0,-107.68 c 0,0 0.135,-4.484 -5.632,-4.484 l -49.19,0 m -86.5,213.59 c -17.988,0 -31.995,14.575 -31.995,32.558 l 0,4.852 c 0,17.988 14.01,32.02 31.995,32.02 l 220.2,0 c 17.988,0 32.02,-14.03 32.02,-32.02 l 0,-4.852 c 0,-17.98 -14.03,-32.558 -32.02,-32.558 l -220.2,0 m 204.49,12.412 c 12.247,0 22.29,10.04 22.29,22.29 0,12.247 -10.04,22.29 -22.29,22.29 -12.247,0 -22.247,-10.04 -22.247,-22.29 0,-12.247 9.999,-22.29 22.247,-22.29" id="path1522" />
</svg>
