<?xml version="1.0" encoding="UTF-8" standalone="no"?>
<svg xmlns="http://www.w3.org/2000/svg" viewBox="0 0 512 512">
 <text font-size="129.23" y="231.36" x="729.64" font-family="Gentium Book Basic" line-height="125%" word-spacing="0" letter-spacing="0"><tspan y="231.36" x="729.64"/>
 </text>
 <text transform="scale(4.0128.2492)" font-size="46.954" y="579.25" x="378.91" font-family="Arial" text-anchor="middle"/>
 <text font-size="129.23" y="151.36" x="1310.91" font-family="Gentium Book Basic" line-height="125%" word-spacing="0" letter-spacing="0"><tspan y="151.36" x="1310.91"/>
 </text>
 <text transform="scale(4.0128.2492)" font-size="46.954" y="258.22" x="523.76" font-family="Arial" text-anchor="middle"/>
 <text font-size="129.23" y="-29.901" x="239.33" font-family="Gentium Book Basic" line-height="125%" word-spacing="0" letter-spacing="0"><tspan y="-29.901" x="239.33"/>
 </text>
 <text transform="scale(4.0128.2492)" font-size="46.954" y="-469.14" x="256.72" font-family="Arial" text-anchor="middle"/>
 <text font-size="129.23" y="-246.37" x="1337.38" font-family="Gentium Book Basic" line-height="125%" word-spacing="0" letter-spacing="0"><tspan y="-246.37" x="1337.38"/>
 </text>
 <text transform="scale(4.0128.2492)" font-size="46.954" y="-1337.8" x="530.36" font-family="Arial" text-anchor="middle"/>
 <text font-size="129.23" y="-326.38" x="1918.65" font-family="Gentium Book Basic" line-height="125%" word-spacing="0" letter-spacing="0"><tspan y="-326.38" x="1918.65"/>
 </text>
 <text transform="scale(4.0128.2492)" font-size="46.954" y="-1658.84" x="675.21" font-family="Arial" text-anchor="middle"/>
 <text font-size="129.23" y="-798.78" x="1529.53" font-family="Gentium Book Basic" line-height="125%" word-spacing="0" letter-spacing="0"><tspan y="-798.78" x="1529.53"/>
 </text>
 <text transform="scale(4.0128.2492)" font-size="46.954" y="-3554.49" x="578.24" font-family="Arial" text-anchor="middle"/>
 <text font-size="129.23" y="-878.78" x="2110.79" font-family="Gentium Book Basic" line-height="125%" word-spacing="0" letter-spacing="0"><tspan y="-878.78" x="2110.79"/>
 </text>
 <text transform="scale(4.0128.2492)" font-size="46.954" y="-3875.52" x="723.09" font-family="Arial" text-anchor="middle"/>
 <g font-family="Gentium Book Basic" line-height="125%" word-spacing="0" letter-spacing="0">
  <text y="535.94" x="277.99" font-size="208.33"><tspan y="535.94" x="277.99"/>
  </text>
  <text y="231.36" x="729.64" font-size="129.23"><tspan y="231.36" x="729.64"/>
  </text>
 </g>
 <text transform="scale(4.0128.2492)" font-size="46.954" y="579.25" x="378.91" font-family="Arial" text-anchor="middle"/>
 <text font-size="129.23" y="151.36" x="1310.91" font-family="Gentium Book Basic" line-height="125%" word-spacing="0" letter-spacing="0"><tspan y="151.36" x="1310.91"/>
 </text>
 <text transform="scale(4.0128.2492)" font-size="46.954" y="258.22" x="523.76" font-family="Arial" text-anchor="middle"/>
 <text font-size="129.23" y="-29.901" x="239.33" font-family="Gentium Book Basic" line-height="125%" word-spacing="0" letter-spacing="0"><tspan y="-29.901" x="239.33"/>
 </text>
 <text transform="scale(4.0128.2492)" font-size="46.954" y="-469.14" x="256.72" font-family="Arial" text-anchor="middle"/>
 <text font-size="129.23" y="-246.37" x="1337.38" font-family="Gentium Book Basic" line-height="125%" word-spacing="0" letter-spacing="0"><tspan y="-246.37" x="1337.38"/>
 </text>
 <text transform="scale(4.0128.2492)" font-size="46.954" y="-1337.8" x="530.36" font-family="Arial" text-anchor="middle"/>
 <text font-size="129.23" y="-326.38" x="1918.65" font-family="Gentium Book Basic" line-height="125%" word-spacing="0" letter-spacing="0"><tspan y="-326.38" x="1918.65"/>
 </text>
 <text transform="scale(4.0128.2492)" font-size="46.954" y="-1658.84" x="675.21" font-family="Arial" text-anchor="middle"/>
 <text font-size="129.23" y="-798.78" x="1529.53" font-family="Gentium Book Basic" line-height="125%" word-spacing="0" letter-spacing="0"><tspan y="-798.78" x="1529.53"/>
 </text>
 <text transform="scale(4.0128.2492)" font-size="46.954" y="-3554.49" x="578.24" font-family="Arial" text-anchor="middle"/>
 <text font-size="129.23" y="-878.78" x="2110.79" font-family="Gentium Book Basic" line-height="125%" word-spacing="0" letter-spacing="0"><tspan y="-878.78" x="2110.79"/>
 </text>
 <text transform="scale(4.0128.2492)" font-size="46.954" y="-3875.52" x="723.09" font-family="Arial" text-anchor="middle"/>
 <text font-size="208.33" y="535.94" x="277.99" font-family="Gentium Book Basic" line-height="125%" word-spacing="0" letter-spacing="0"><tspan y="535.94" x="277.99"/>
 </text>
 <path fill-rule="evenodd" d="m471.95 253.05c0 120.9-98.01 218.91-218.91 218.91s-218.91-98.01-218.91-218.91 98.01-218.91 218.91-218.91 218.91 98.01 218.91 218.91" fill="#BF9E73"/>
 <path opacity="0.25" d="m250.47 87.16c-88.41 1.058-164.49 82.27-161.97 170.31-1.608 55.96 30.607 105.61 71.63 140.97 24.07 24.11 48.23 48.34 72.38 72.56 6.762 0.629 13.605 0.969 20.531 0.969 120.9 0 218.91-98.01 218.91-218.91 0-6.516-0.286-12.972-0.844-19.344-35.859-35.847-71.78-71.64-107.78-107.31-30.05-25.399-69.27-39.671-108.62-39.25-1.409-0.024-2.815-0.017-4.219 0"/>
 <g fill-rule="evenodd">
  <path d="m256 1c-140.83 0-255 114.17-255 255s114.17 255 255 255 255-114.17 255-255-114.17-255-255-255m8.827 44.931c120.9 0 218.9 98 218.9 218.9s-98 218.9-218.9 218.9-218.93-98-218.93-218.9 98.03-218.9 218.93-218.9" fill-opacity="0.067"/>
  <g fill-opacity="0.129">
   <path d="m256 4.43c-138.94 0-251.57 112.63-251.57 251.57s112.63 251.57 251.57 251.57 251.57-112.63 251.57-251.57-112.63-251.57-251.57-251.57m5.885 38.556c120.9 0 218.9 98 218.9 218.9s-98 218.9-218.9 218.9-218.93-98-218.93-218.9 98.03-218.9 218.93-218.9"/>
   <path d="m256 8.36c-136.77 0-247.64 110.87-247.64 247.64s110.87 247.64 247.64 247.64 247.64-110.87 247.64-247.64-110.87-247.64-247.64-247.64m2.942 31.691c120.9 0 218.9 98 218.9 218.9s-98 218.9-218.9 218.9-218.93-98-218.93-218.9 98.03-218.9 218.93-218.9"/>
  </g>
  <path stroke="#000" stroke-width="4.904" d="m253.04 7.86c-135.42 0-245.19 109.78-245.19 245.19 0 135.42 109.78 245.19 245.19 245.19 135.42 0 245.19-109.78 245.19-245.19 0-135.42-109.78-245.19-245.19-245.19zm0 26.297c120.9 0 218.9 98 218.9 218.9s-98 218.9-218.9 218.9-218.93-98-218.93-218.9 98.03-218.9 218.93-218.9z" stroke-opacity="0.31" fill="#fff"/>
 </g>
 <text font-size="129.23" y="231.36" x="729.64" font-family="Gentium Book Basic" line-height="125%" word-spacing="0" letter-spacing="0"><tspan y="231.36" x="729.64"/>
 </text>
 <text transform="scale(4.0128.2492)" font-size="46.954" y="579.26" x="378.91" font-family="Arial" text-anchor="middle"/>
 <text font-size="129.23" y="151.36" x="1310.91" font-family="Gentium Book Basic" line-height="125%" word-spacing="0" letter-spacing="0"><tspan y="151.36" x="1310.91"/>
 </text>
 <text transform="scale(4.0128.2492)" font-size="46.954" y="258.22" x="523.76" font-family="Arial" text-anchor="middle"/>
 <text font-size="129.23" y="-29.9" x="239.33" font-family="Gentium Book Basic" line-height="125%" word-spacing="0" letter-spacing="0"><tspan y="-29.9" x="239.33"/>
 </text>
 <text transform="scale(4.0128.2492)" font-size="46.954" y="-469.13" x="256.72" font-family="Arial" text-anchor="middle"/>
 <text font-size="129.23" y="-246.37" x="1337.38" font-family="Gentium Book Basic" line-height="125%" word-spacing="0" letter-spacing="0"><tspan y="-246.37" x="1337.38"/>
 </text>
 <text transform="scale(4.0128.2492)" font-size="46.954" y="-1337.8" x="530.36" font-family="Arial" text-anchor="middle"/>
 <text font-size="129.23" y="-326.37" x="1918.65" font-family="Gentium Book Basic" line-height="125%" word-spacing="0" letter-spacing="0"><tspan y="-326.37" x="1918.65"/>
 </text>
 <text transform="scale(4.0128.2492)" font-size="46.954" y="-1658.83" x="675.21" font-family="Arial" text-anchor="middle"/>
 <text font-size="129.23" y="-798.77" x="1529.53" font-family="Gentium Book Basic" line-height="125%" word-spacing="0" letter-spacing="0"><tspan y="-798.77" x="1529.53"/>
 </text>
 <text transform="scale(4.0128.2492)" font-size="46.954" y="-3554.48" x="578.24" font-family="Arial" text-anchor="middle"/>
 <text font-size="129.23" y="-878.78" x="2110.79" font-family="Gentium Book Basic" line-height="125%" word-spacing="0" letter-spacing="0"><tspan y="-878.78" x="2110.79"/>
 </text>
 <text transform="scale(4.0128.2492)" font-size="46.954" y="-3875.52" x="723.09" font-family="Arial" text-anchor="middle"/>
 <text font-size="208.33" y="535.94" x="277.99" font-family="Gentium Book Basic" line-height="125%" word-spacing="0" letter-spacing="0"><tspan y="535.94" x="277.99"/>
 </text>
 <path d="m254.69 87.16c-17.47 0.142-35.02 3.048-52.08 8.8-36.01 12.142-67.69 37.416-88.74 70.788-4.131 6.549-12.176 23.14-15.06 31.06-4.519 12.427-7.484 25.305-8.964 38.32-0.001 0.007 0.001 0.014 0 0.02-0.092 0.806-0.187 1.613-0.267 2.42-0.697 6.205-1.087 12.501-1.087 18.892 0 54.84 26.382 103.52 67.14 134.05 0.09 0.067 0.177 0.138 0.267 0.205 13.538 10.416 28.623 18.547 45.07 23.897 17.204 5.974 35.674 9.231 54.912 9.231 84.21 0 153.89-62.18 165.64-143.14 0.06-0.39 0.127-0.779 0.185-1.169 0.086-0.588 0.145-1.177 0.226-1.764 2.939-21.494 1.766-42.512-3.631-64.55-9.57-39.08-34.991-75.41-68.68-98.19-28.56-19.314-61.58-29.13-94.93-28.861m3.713 37.476c5.374-0.023 10.267 0.153 13.148 0.533 20.779 2.746 39.927 9.923 56.963 21.353 9.962 6.684 9.722 6.03 4.431 11.918-12.06 13.422-28.642 25.605-48.697 35.794-5.218 2.651-9.825 4.82-10.236 4.82s-3.02-4.227-5.805-9.395c-10.146-18.832-22.846-39.08-34.15-54.46-3.03-4.116-5.383-7.621-5.231-7.774s2.743-0.756 5.764-1.333c4.564-0.873 14.859-1.418 23.815-1.456m-59.814 13.456l1.6 1.969c3.671 4.465 12.874 16.942 17.477 23.712 12.685 18.66 27.907 45.12 26.441 45.948-2.721 1.535-26.97 7.07-40.984 9.354-13.06 2.132-19.02 2.825-35.01 4.04-7.197 0.547-18.864 0.984-25.948 0.985h-12.882l1.292-4.718c4.191-15.241 13.338-32.812 23.959-46.05 10.496-13.08 27.732-27.28 40.922-33.702l3.138-1.538m160.35 36.697l2.892 3.959c13.301 18.209 22.75 43.533 24.266 65.07 0.243 3.451 0.154 5.977-0.185 5.928-0.324-0.047-4.112-0.78-8.431-1.62-16.12-3.139-24.397-3.857-44.16-3.877-14.441-0.015-20.571 0.251-27.16 1.169-4.678 0.652-9.06 1.24-9.743 1.313-1.012 0.108-2-1.66-5.354-9.436-2.267-5.259-4.146-9.878-4.164-10.277-0.018-0.398 2.96-2.102 6.605-3.795 20.651-9.591 40.775-23.712 57.05-40.02l8.39-8.41m-100.78 62.52c0.378-0.004 6.717 14.329 7.22 16.328 0.139 0.551-2.67 1.971-7.959 4.02-16.08 6.228-35.28 16.921-48.963 27.26-17.719 13.392-35.543 31.89-48.18 49.968-2.027 2.899-3.898 5.259-4.144 5.251-0.582-0.018-7.768-9.752-10.913-14.789-7.576-12.137-14.205-28.821-17.03-42.871-1.659-8.263-3.176-22.359-2.81-26.01l0.205-2.113 17.661-0.226c39.462-0.53 76.16-5.584 107.63-14.81 3.778-1.108 7.05-2.01 7.282-2.01m72.901 36.656c10.388-0.026 21.408 0.633 30.728 1.949 9.167 1.295 21.432 3.639 22.09 4.226 1.395 1.239-4.793 21.09-10.03 32.18-8.575 18.16-21.894 34.958-37.35 47.12-3.11 2.446-5.816 4.451-6.01 4.451-0.476 0-0.75-1.02-2.749-10.215-4.539-20.878-10.984-44.622-18.17-67.01l-3.508-10.974 2.995-0.41c6.223-0.862 13.93-1.292 22.01-1.313m-54.727 8.82c0.661 0 8.555 24.09 12.533 38.24 3.67 13.05 7.929 30.458 10.728 43.876 1.286 6.165 2.476 11.826 2.646 12.595 0.255 1.149-0.182 1.59-2.462 2.441-8.999 3.359-20 5.865-30.707 7.02-0.721 0.077-1.471 0.163-2.215 0.226-0.745 0.063-1.492 0.116-2.256 0.164-10.708 0.674-23.23-0.087-32.963-2.051-17.564-3.544-36.69-11.705-49.907-21.292l-3.405-2.462 3.979-5.908c6.851-10.212 13.464-18.08 24.348-29 15.15-15.205 28.899-25.284 46.85-34.36 7.209-3.644 21.241-9.477 22.83-9.477" fill="#fff"/>
</svg>
