<?xml version="1.0" encoding="UTF-8" standalone="no"?>
<svg xmlns="http://www.w3.org/2000/svg" height="512" viewBox="0 0 512 512" width="512" version="1.1">
 <metadata id="metadata72"/>
 <g id="g4" fill-rule="evenodd">
  <path id="path6" fill="#BF9E73" d="m471.95 253.05c0 120.9-98.01 218.91-218.91 218.91s-218.91-98.01-218.91-218.91 98.01-218.91 218.91-218.91 218.91 98.01 218.91 218.91"/>
  <path id="path8" fill-opacity="0.067" d="m256 1c-140.83 0-255 114.17-255 255s114.17 255 255 255 255-114.17 255-255-114.17-255-255-255m8.827 44.931c120.9 0 218.9 98 218.9 218.9s-98 218.9-218.9 218.9-218.93-98-218.93-218.9 98.03-218.9 218.93-218.9"/>
  <g id="g10" fill-opacity="0.129">
   <path id="path12" d="m256 4.43c-138.94 0-251.57 112.63-251.57 251.57s112.63 251.57 251.57 251.57 251.57-112.63 251.57-251.57-112.63-251.57-251.57-251.57m5.885 38.556c120.9 0 218.9 98 218.9 218.9s-98 218.9-218.9 218.9-218.93-98-218.93-218.9 98.03-218.9 218.93-218.9"/>
   <path id="path14" d="m256 8.36c-136.77 0-247.64 110.87-247.64 247.64s110.87 247.64 247.64 247.64 247.64-110.87 247.64-247.64-110.87-247.64-247.64-247.64m2.942 31.691c120.9 0 218.9 98 218.9 218.9s-98 218.9-218.9 218.9-218.93-98-218.93-218.9 98.03-218.9 218.93-218.9"/>
  </g>
  <path id="path16" d="m253.04 7.86c-135.42 0-245.19 109.78-245.19 245.19 0 135.42 109.78 245.19 245.19 245.19 135.42 0 245.19-109.78 245.19-245.19 0-135.42-109.78-245.19-245.19-245.19zm0 26.297c120.9 0 218.9 98 218.9 218.9s-98 218.9-218.9 218.9-218.93-98-218.93-218.9 98.03-218.9 218.93-218.9z" stroke-opacity="0.31" stroke="#000" stroke-width="4.904" fill="#fff"/>
 </g>
 <path id="path64" opacity="0.25" d="m81.25 182.13v147.75l139.75 139.75c10.455 1.533 21.15 2.344 32.03 2.344 120.9 0 218.91-98.01 218.91-218.91 0-10.889-0.777-21.6-2.313-32.06l-38.875-38.875h-35.531v48.31l-36.73-36.71c-1.771-1.771-3.882-3.285-6.313-4.563-8.956-4.706-23.13-7.03-42.563-7.03h-66.5v53.09l-39.06-39.06c-1.824-1.824-3.903-3.4-6.219-4.719-10.778-6.224-28.703-9.312-53.75-9.313h-62.837"/>
 <path id="path66" fill="#fff" d="m81.25 182.13v147.75h63.06c25.958 0 44.11-2.955 54.44-8.875 10.322-5.92 15.469-17.208 15.469-33.906v-60.12c0-17.457-5.446-29.31-16.375-35.531-10.778-6.224-28.703-9.312-53.75-9.313h-62.85m161.88 0v147.75h35.531v-58.06h16.406l38.688 58.06h41l-42.813-60.781c9.563-1.214 17.531-4.236 23.906-9.09 6.527-4.858 9.781-11.794 9.781-20.75v-25.938c0-11.385-4.481-19.45-13.438-24.16-8.956-4.706-23.13-7.03-42.563-7.03h-66.5m152.09 0v147.75h35.531v-147.75h-35.531m-278.44 25.25h27.09c11.689 0 20.419 1.393 26.19 4.125 5.768 2.733 8.656 7.647 8.656 14.781v60.813c0 7.59-2.589 12.437-7.75 14.563-5.161 1.973-14.588 2.969-28.25 2.969h-25.938v-97.25m161.88 0h30.5c7.894 0 13.437 1.062 16.625 3.188 3.339 1.974 5 5.692 5 11.156v10.5c0 6.376-1.495 10.692-4.531 12.969-3.036 2.125-8.745 3.188-17.09 3.188h-30.5v-41"/>
</svg>
