<?xml version="1.0" encoding="UTF-8" standalone="no"?>
<svg xmlns="http://www.w3.org/2000/svg" height="512" viewBox="0 0 512 512" width="512" version="1.1">
 <metadata id="metadata70"/>
 <path id="path8" fill-rule="evenodd" fill="#BF9E73" d="m471.95 253.05c0 120.9-98.006 218.91-218.91 218.91s-218.91-98.006-218.91-218.91 98.006-218.91 218.91-218.91 218.91 98.006 218.91 218.91"/>
 <path id="path10" d="m256 1c-140.83 0-255 114.17-255 255s114.17 255 255 255 255-114.17 255-255-114.17-255-255-255m8.827 44.931c120.9 0 218.9 98 218.9 218.9s-98 218.9-218.9 218.9-218.93-98-218.93-218.9 98.03-218.9 218.93-218.9" fill-rule="evenodd" fill-opacity="0.067"/>
 <path id="path14" d="m256 4.43c-138.94 0-251.57 112.63-251.57 251.57s112.63 251.57 251.57 251.57 251.57-112.63 251.57-251.57-112.63-251.57-251.57-251.57m5.885 38.556c120.9 0 218.9 98 218.9 218.9s-98 218.9-218.9 218.9-218.93-98-218.93-218.9 98.03-218.9 218.93-218.9" fill-rule="evenodd" fill-opacity="0.129"/>
 <path id="path16" d="m256 8.36c-136.77 0-247.64 110.87-247.64 247.64s110.87 247.64 247.64 247.64 247.64-110.87 247.64-247.64-110.87-247.64-247.64-247.64m2.942 31.691c120.9 0 218.9 98 218.9 218.9s-98 218.9-218.9 218.9-218.93-98-218.93-218.9 98.03-218.9 218.93-218.9" fill-rule="evenodd" fill-opacity="0.129"/>
 <path id="path18" d="m253.04 7.86c-135.42 0-245.19 109.78-245.19 245.19 0 135.42 109.78 245.19 245.19 245.19 135.42 0 245.19-109.78 245.19-245.19 0-135.42-109.78-245.19-245.19-245.19zm0 26.297c120.9 0 218.9 98 218.9 218.9s-98 218.9-218.9 218.9-218.93-98-218.93-218.9 98.03-218.9 218.93-218.9z" stroke-opacity="0.31" fill-rule="evenodd" stroke="#000" stroke-width="4.904" fill="#fff"/>
 <path id="path3962" opacity="0.25" d="m257.28 90.141c-2.64 0.002-5.26 0.053-7.83 0.146-77.04 2.797-127.56 47.563-146.18 75.123-19.862 29.39-45.842 115.93-1.35 176.31 6.52 8.85 13.36 16.71 20.33 23.68l105.04 105.05c8.45 0.98 17.04 1.51 25.75 1.51 120.9 0 218.91-98.01 218.91-218.91 0-7.34-0.37-14.6-1.08-21.76l-86.96-86.95c-27.24-27.25-66.37-52.06-118.62-54.053-2.69-0.102-5.36-0.149-8.01-0.146z"/>
 <path id="path3060" d="m249.45 90.288c-77.04 2.7971-127.56 47.562-146.18 75.12-19.862 29.396-45.842 115.93-1.3518 176.31s103.82 74.668 120.5 77.051c16.684 2.3834 38.429 3.0898 38.429 3.0898 16.088-0.298 107.06-18.558 142.52-73.575 35.45-55.02 39.18-117.67 18.72-153.72-20.45-36.05-70.9-101-156.8-104.28-5.3689-0.20481-10.699-0.1864-15.835 0zm-5.7933 17.573c22.937-0.70129 47.072 2.8874 73.575 10.621 60.579 17.677 90.271 83.938 94.045 100.22 3.7738 16.287 13.687 61.351-20.277 112.2-33.964 50.846-91.971 70.563-104.09 67.782-12.116-2.7807-9.2194-40.317-4.0553-62.761s15.234-30.241 22.98-33.022c7.7461-2.7806 36.769-3.614 47.891-5.6002 11.123-1.9862 27.56-11.935 36.498-27.229 8.9378-15.294 9.407-27.88 4.4415-32.249-4.9654-4.3696-19.809 4.3424-50.595 7.9175s-44.123-2.3232-47.698-9.0762c-3.5751-6.753 7.6639-15.301 9.8487-27.615s-27.99-37.392-35.339-39.974c-7.3488-2.582-30.524-4.2312-64.885 9.0762s-51.99 52.224-43.45 77.051c8.5406 24.827 48.913 73.46 60.83 89.797 11.917 16.336 15.432 35.875 16.028 40.939 0.59576 5.0648-2.0361 15.775-5.214 17.959 0 0-4.541 1.3518-7.9175 1.3518s-29.26-9.9702-39.588-12.552c-10.34-2.57-70.96-43.72-88.838-103.3-17.876-59.59 11.368-128.22 61.018-156.62 27.931-15.976 55.286-24.01 84.776-24.911zm39.781 119.92-22.594 8.8831s6.9356-4.7672 11.007-6.952c4.0717-2.1848 11.587-1.9311 11.587-1.9311z" fill="#fff"/>
</svg>
