<?xml version="1.0" encoding="UTF-8" standalone="no"?>
<svg xmlns="http://www.w3.org/2000/svg" height="512" viewBox="0 0 512 512" width="512" version="1.1">
 <metadata id="metadata70"/>
 <path id="path8-4" fill-rule="evenodd" fill="#BF9E73" d="m471.95 253.05c0 120.9-98.006 218.91-218.91 218.91s-218.91-98.006-218.91-218.91 98.006-218.91 218.91-218.91 218.91 98.006 218.91 218.91"/>
 <path id="path10-6" fill-rule="evenodd" fill-opacity="0.067" d="m256 1c-140.83 0-255 114.17-255 255s114.17 255 255 255 255-114.17 255-255-114.17-255-255-255m8.827 44.931c120.9 0 218.9 98 218.9 218.9s-98 218.9-218.9 218.9-218.93-98-218.93-218.9 98.03-218.9 218.93-218.9"/>
 <path id="path14-0" d="m256 4.43c-138.94 0-251.57 112.63-251.57 251.57s112.63 251.57 251.57 251.57 251.57-112.63 251.57-251.57-112.63-251.57-251.57-251.57m5.885 38.556c120.9 0 218.9 98 218.9 218.9s-98 218.9-218.9 218.9-218.93-98-218.93-218.9 98.03-218.9 218.93-218.9" fill-rule="evenodd" fill-opacity="0.129"/>
 <path id="path16-9" d="m256 8.36c-136.77 0-247.64 110.87-247.64 247.64s110.87 247.64 247.64 247.64 247.64-110.87 247.64-247.64-110.87-247.64-247.64-247.64m2.942 31.691c120.9 0 218.9 98 218.9 218.9s-98 218.9-218.9 218.9-218.93-98-218.93-218.9 98.03-218.9 218.93-218.9" fill-rule="evenodd" fill-opacity="0.129"/>
 <path id="path18-9" d="m253.04 7.86c-135.42 0-245.19 109.78-245.19 245.19 0 135.42 109.78 245.19 245.19 245.19 135.42 0 245.19-109.78 245.19-245.19 0-135.42-109.78-245.19-245.19-245.19zm0 26.297c120.9 0 218.9 98 218.9 218.9s-98 218.9-218.9 218.9-218.93-98-218.93-218.9 98.03-218.9 218.93-218.9z" stroke-opacity="0.31" fill-rule="evenodd" stroke="#000" stroke-width="4.904" fill="#fff"/>
 <path id="path7577" opacity="0.25" fill-rule="evenodd" d="m223.21 104.11c-47.72 0-86.1 9.82-86.1 22v99.72c0 1.88 0.93 3.71 2.67 5.46l44.88 44.88v111.82c0 2.98 1.41 5.8 3.94 8.32l75.37 75.38c115.82-5.7 207.98-101.41 207.98-218.64 0-12.12-1-24.01-2.9-35.59l-96.84-96.85c-9.51-9.5-43.14-16.5-83.42-16.5h-65.58z" color="#000000"/>
 <path id="rect7471" fill-rule="evenodd" fill="#fff" d="m223.21 104.11c-47.723 0-86.106 9.8204-86.106 21.998v99.724c0 8.6125 19.433 16.079 47.557 19.693v142.46c0 11.075 19.408 19.903 43.577 19.903h55.518c24.169 0 43.577-8.8279 43.577-19.903v-142.46c28.124-3.6142 47.557-11.081 47.557-19.693v-99.724c0-12.177-38.383-21.998-86.106-21.998h-65.574z" color="#000000"/>
</svg>
