<?xml version="1.0" encoding="UTF-8" standalone="no"?>
<svg xmlns="http://www.w3.org/2000/svg" viewBox="0 0 512 512">
 <g fill-rule="evenodd">
  <path d="m471.95 253.05c0 120.9-98.01 218.91-218.91 218.91s-218.91-98.01-218.91-218.91 98.01-218.91 218.91-218.91 218.91 98.01 218.91 218.91" fill="#BF9E73"/>
  <path d="m256 1c-140.83 0-255 114.17-255 255s114.17 255 255 255 255-114.17 255-255-114.17-255-255-255m8.827 44.931c120.9 0 218.9 98 218.9 218.9s-98 218.9-218.9 218.9-218.93-98-218.93-218.9 98.03-218.9 218.93-218.9" fill-opacity="0.067"/>
  <g fill-opacity="0.129">
   <path d="m256 4.43c-138.94 0-251.57 112.63-251.57 251.57s112.63 251.57 251.57 251.57 251.57-112.63 251.57-251.57-112.63-251.57-251.57-251.57m5.885 38.556c120.9 0 218.9 98 218.9 218.9s-98 218.9-218.9 218.9-218.93-98-218.93-218.9 98.03-218.9 218.93-218.9"/>
   <path d="m256 8.36c-136.77 0-247.64 110.87-247.64 247.64s110.87 247.64 247.64 247.64 247.64-110.87 247.64-247.64-110.87-247.64-247.64-247.64m2.942 31.691c120.9 0 218.9 98 218.9 218.9s-98 218.9-218.9 218.9-218.93-98-218.93-218.9 98.03-218.9 218.93-218.9"/>
  </g>
  <path stroke="#000" stroke-width="4.904" d="m253.04 7.86c-135.42 0-245.19 109.78-245.19 245.19 0 135.42 109.78 245.19 245.19 245.19 135.42 0 245.19-109.78 245.19-245.19 0-135.42-109.78-245.19-245.19-245.19zm0 26.297c120.9 0 218.9 98 218.9 218.9s-98 218.9-218.9 218.9-218.93-98-218.93-218.9 98.03-218.9 218.93-218.9z" stroke-opacity="0.31" fill="#fff"/>
 </g>
 <text font-size="129.23" y="231.36" x="729.64" font-family="Gentium Book Basic" line-height="125%" word-spacing="0" letter-spacing="0"><tspan y="231.36" x="729.64"/>
 </text>
 <text transform="scale(4.0128.2492)" font-size="46.954" y="579.26" x="378.91" font-family="Arial" text-anchor="middle"/>
 <text font-size="129.23" y="151.36" x="1310.91" font-family="Gentium Book Basic" line-height="125%" word-spacing="0" letter-spacing="0"><tspan y="151.36" x="1310.91"/>
 </text>
 <text transform="scale(4.0128.2492)" font-size="46.954" y="258.22" x="523.76" font-family="Arial" text-anchor="middle"/>
 <text font-size="129.23" y="-29.9" x="239.33" font-family="Gentium Book Basic" line-height="125%" word-spacing="0" letter-spacing="0"><tspan y="-29.9" x="239.33"/>
 </text>
 <text transform="scale(4.0128.2492)" font-size="46.954" y="-469.13" x="256.72" font-family="Arial" text-anchor="middle"/>
 <text font-size="129.23" y="-246.37" x="1337.38" font-family="Gentium Book Basic" line-height="125%" word-spacing="0" letter-spacing="0"><tspan y="-246.37" x="1337.38"/>
 </text>
 <text transform="scale(4.0128.2492)" font-size="46.954" y="-1337.8" x="530.36" font-family="Arial" text-anchor="middle"/>
 <text font-size="129.23" y="-326.37" x="1918.65" font-family="Gentium Book Basic" line-height="125%" word-spacing="0" letter-spacing="0"><tspan y="-326.37" x="1918.65"/>
 </text>
 <text transform="scale(4.0128.2492)" font-size="46.954" y="-1658.83" x="675.21" font-family="Arial" text-anchor="middle"/>
 <text font-size="129.23" y="-798.77" x="1529.53" font-family="Gentium Book Basic" line-height="125%" word-spacing="0" letter-spacing="0"><tspan y="-798.77" x="1529.53"/>
 </text>
 <text transform="scale(4.0128.2492)" font-size="46.954" y="-3554.48" x="578.24" font-family="Arial" text-anchor="middle"/>
 <text font-size="129.23" y="-878.78" x="2110.79" font-family="Gentium Book Basic" line-height="125%" word-spacing="0" letter-spacing="0"><tspan y="-878.78" x="2110.79"/>
 </text>
 <text transform="scale(4.0128.2492)" font-size="46.954" y="-3875.52" x="723.09" font-family="Arial" text-anchor="middle"/>
 <g font-family="Gentium Book Basic" line-height="125%" word-spacing="0" letter-spacing="0">
  <text y="535.94" x="277.99" font-size="208.33"><tspan y="535.94" x="277.99"/>
  </text>
  <text y="272.59" x="1722.37" font-size="129.23"><tspan y="272.59" x="1722.37"/>
  </text>
 </g>
 <text transform="scale(4.0128.2492)" font-size="46.954" y="744.7" x="626.3" font-family="Arial" text-anchor="middle"/>
 <text font-size="129.23" y="192.59" x="2303.64" font-family="Gentium Book Basic" line-height="125%" word-spacing="0" letter-spacing="0"><tspan y="192.59" x="2303.64"/>
 </text>
 <text transform="scale(4.0128.2492)" font-size="46.954" y="423.67" x="771.15" font-family="Arial" text-anchor="middle"/>
 <text font-size="129.23" y="11.33" x="1232.06" font-family="Gentium Book Basic" line-height="125%" word-spacing="0" letter-spacing="0"><tspan y="11.33" x="1232.06"/>
 </text>
 <text transform="scale(4.0128.2492)" font-size="46.954" y="-303.68" x="504.11" font-family="Arial" text-anchor="middle"/>
 <text font-size="129.23" y="-205.14" x="2330.11" font-family="Gentium Book Basic" line-height="125%" word-spacing="0" letter-spacing="0"><tspan y="-205.14" x="2330.11"/>
 </text>
 <text transform="scale(4.0128.2492)" font-size="46.954" y="-1172.35" x="777.75" font-family="Arial" text-anchor="middle"/>
 <text font-size="129.23" y="-285.15" x="2911.38" font-family="Gentium Book Basic" line-height="125%" word-spacing="0" letter-spacing="0"><tspan y="-285.15" x="2911.38"/>
 </text>
 <text transform="scale(4.0128.2492)" font-size="46.954" y="-1493.39" x="922.6" font-family="Arial" text-anchor="middle"/>
 <text font-size="129.23" y="-757.55" x="2522.26" font-family="Gentium Book Basic" line-height="125%" word-spacing="0" letter-spacing="0"><tspan y="-757.55" x="2522.26"/>
 </text>
 <text transform="scale(4.0128.2492)" font-size="46.954" y="-3389.04" x="825.63" font-family="Arial" text-anchor="middle"/>
 <text font-size="129.23" y="-837.55" x="3103.52" font-family="Gentium Book Basic" line-height="125%" word-spacing="0" letter-spacing="0"><tspan y="-837.55" x="3103.52"/>
 </text>
 <text transform="scale(4.0128.2492)" font-size="46.954" y="-3710.07" x="970.48" font-family="Arial" text-anchor="middle"/>
 <text font-size="208.33" y="577.17" x="1270.72" font-family="Gentium Book Basic" line-height="125%" word-spacing="0" letter-spacing="0"><tspan y="577.17" x="1270.72"/>
 </text>
 <g fill-rule="evenodd">
  <path opacity="0.25" d="m256 96.91c-87.86 0-159.09 71.24-159.09 159.09 0 43.929 17.803 83.71 46.594 112.5l103.34 103.34c2.055 0.057 4.119 0.125 6.188 0.125 120.9 0 218.91-98.01 218.91-218.91 0-2.078-0.036-4.155-0.094-6.219l-103.34-103.34c-28.793-28.793-68.57-46.594-112.5-46.594"/>
  <path d="m256 96.91c-87.86 0-159.09 71.24-159.09 159.09 0 87.86 71.24 159.09 159.09 159.09 87.86 0 159.09-71.24 159.09-159.09 0-3.897-0.162-7.767-0.438-11.594-7.679 10.609-16.421 21.79-26 33.13-11.418 13.512-22.822 25.786-33.563 36.38l-31.406-26.531c8.643-12.357 18.863-25.675 30.28-39.19 17.356-20.539 34.709-38.31 49.719-51.47-23.507-58.51-80.78-99.81-147.69-99.81m0 113c25.472 0 46.09 20.621 46.09 46.09 0 25.472-20.621 46.09-46.09 46.09-25.472 0-46.09-20.621-46.09-46.09 0-25.472 20.621-46.09 46.09-46.09m0 9.344c-20.299 0-36.75 16.452-36.75 36.75 0 20.299 16.452 36.75 36.75 36.75 20.299 0 36.75-16.452 36.75-36.75 0-20.299-16.452-36.75-36.75-36.75m0 12.625c13.338 0 24.13 10.787 24.13 24.13 0 13.338-10.787 24.13-24.12 24.13-13.338 0-24.12-10.787-24.12-24.12 0-13.338 10.787-24.12 24.13-24.12m62.06 63.719l29.875 25.22c-9.02 8.477-17.437 15.602-24.813 20.969l-21.594-18.219c4.06-8.165 9.675-17.658 16.531-27.969m-21.344 33.75l20.656 17.469c-8.03 29.25-18.06 32.33-32.375 27.438-14.322-4.893-35.563 24.719-35.563 24.719-18.07-57.08 47.28-69.62 47.28-69.62" fill="#fff"/>
 </g>
</svg>
