<?xml version="1.0" encoding="UTF-8" standalone="no"?>
<svg xmlns="http://www.w3.org/2000/svg" viewBox="0 0 512 512">
 <path fill-rule="evenodd" d="m471.95 253.05c0 120.9-98.01 218.91-218.91 218.91-117.88 0-214.01-93.18-218.73-209.91-0.121-2.984-0.182-5.984-0.182-8.997 0-120.9 98.01-218.91 218.91-218.91s218.91 98.01 218.91 218.91" fill="#BF9E73"/>
 <path opacity="0.25" d="m242.31 102.69c-55.742 0.822-79.71 69.28-73.09 119.22 10.633 35.952-49.29 38.696-55.938 75.34-18.807 34.502-19.532 76.26 13.219 99.75 22.754 22.35 45.576 44.763 68.38 67.16 18.52 5.091 38.02 7.813 58.16 7.813 107.06 0 196.16-76.864 215.16-178.41-59.656-58.56-119.39-117.01-179.34-175.06-13.209-10.198-29.841-15.942-46.531-15.813"/>
 <g fill-rule="evenodd">
  <path d="m256 1c-140.83 0-255 114.17-255 255s114.17 255 255 255 255-114.17 255-255-114.17-255-255-255m8.827 44.931c120.9 0 218.9 98 218.9 218.9s-98 218.9-218.9 218.9-218.93-98-218.93-218.9 98.03-218.9 218.93-218.9" fill-opacity="0.067"/>
  <g fill-opacity="0.129">
   <path d="m256 4.43c-138.94 0-251.57 112.63-251.57 251.57s112.63 251.57 251.57 251.57 251.57-112.63 251.57-251.57-112.63-251.57-251.57-251.57m5.885 38.556c120.9 0 218.9 98 218.9 218.9s-98 218.9-218.9 218.9-218.93-98-218.93-218.9 98.03-218.9 218.93-218.9"/>
   <path d="m256 8.36c-136.77 0-247.64 110.87-247.64 247.64s110.87 247.64 247.64 247.64 247.64-110.87 247.64-247.64-110.87-247.64-247.64-247.64m2.942 31.691c120.9 0 218.9 98 218.9 218.9s-98 218.9-218.9 218.9-218.93-98-218.93-218.9 98.03-218.9 218.93-218.9"/>
  </g>
  <path stroke="#000" stroke-width="4.904" d="m253.04 7.86c-135.42 0-245.19 109.78-245.19 245.19 0 135.42 109.78 245.19 245.19 245.19 135.42 0 245.19-109.78 245.19-245.19 0-135.42-109.78-245.19-245.19-245.19zm0 26.297c120.9 0 218.9 98 218.9 218.9s-98 218.9-218.9 218.9-218.93-98-218.93-218.9 98.03-218.9 218.93-218.9z" stroke-opacity="0.31" fill="#fff"/>
 </g>
 <text font-size="129.23" y="231.36" x="729.64" font-family="Gentium Book Basic" line-height="125%" word-spacing="0" letter-spacing="0"><tspan y="231.36" x="729.64"/>
 </text>
 <text transform="scale(4.0128.2492)" font-size="46.954" y="579.26" x="378.91" font-family="Arial" text-anchor="middle"/>
 <text font-size="129.23" y="151.36" x="1310.91" font-family="Gentium Book Basic" line-height="125%" word-spacing="0" letter-spacing="0"><tspan y="151.36" x="1310.91"/>
 </text>
 <text transform="scale(4.0128.2492)" font-size="46.954" y="258.22" x="523.76" font-family="Arial" text-anchor="middle"/>
 <text font-size="129.23" y="-29.9" x="239.33" font-family="Gentium Book Basic" line-height="125%" word-spacing="0" letter-spacing="0"><tspan y="-29.9" x="239.33"/>
 </text>
 <text transform="scale(4.0128.2492)" font-size="46.954" y="-469.13" x="256.72" font-family="Arial" text-anchor="middle"/>
 <text font-size="129.23" y="-246.37" x="1337.38" font-family="Gentium Book Basic" line-height="125%" word-spacing="0" letter-spacing="0"><tspan y="-246.37" x="1337.38"/>
 </text>
 <text transform="scale(4.0128.2492)" font-size="46.954" y="-1337.8" x="530.36" font-family="Arial" text-anchor="middle"/>
 <text font-size="129.23" y="-326.37" x="1918.65" font-family="Gentium Book Basic" line-height="125%" word-spacing="0" letter-spacing="0"><tspan y="-326.37" x="1918.65"/>
 </text>
 <text transform="scale(4.0128.2492)" font-size="46.954" y="-1658.83" x="675.21" font-family="Arial" text-anchor="middle"/>
 <text font-size="129.23" y="-798.77" x="1529.53" font-family="Gentium Book Basic" line-height="125%" word-spacing="0" letter-spacing="0"><tspan y="-798.77" x="1529.53"/>
 </text>
 <text transform="scale(4.0128.2492)" font-size="46.954" y="-3554.48" x="578.24" font-family="Arial" text-anchor="middle"/>
 <text font-size="129.23" y="-878.78" x="2110.79" font-family="Gentium Book Basic" line-height="125%" word-spacing="0" letter-spacing="0"><tspan y="-878.78" x="2110.79"/>
 </text>
 <text transform="scale(4.0128.2492)" font-size="46.954" y="-3875.52" x="723.09" font-family="Arial" text-anchor="middle"/>
 <g font-family="Gentium Book Basic" line-height="125%" word-spacing="0" letter-spacing="0">
  <text y="535.94" x="277.99" font-size="208.33"><tspan y="535.94" x="277.99"/>
  </text>
  <text y="272.59" x="1722.37" font-size="129.23"><tspan y="272.59" x="1722.37"/>
  </text>
 </g>
 <text transform="scale(4.0128.2492)" font-size="46.954" y="744.7" x="626.3" font-family="Arial" text-anchor="middle"/>
 <text font-size="129.23" y="192.59" x="2303.64" font-family="Gentium Book Basic" line-height="125%" word-spacing="0" letter-spacing="0"><tspan y="192.59" x="2303.64"/>
 </text>
 <text transform="scale(4.0128.2492)" font-size="46.954" y="423.67" x="771.15" font-family="Arial" text-anchor="middle"/>
 <text font-size="129.23" y="11.33" x="1232.06" font-family="Gentium Book Basic" line-height="125%" word-spacing="0" letter-spacing="0"><tspan y="11.33" x="1232.06"/>
 </text>
 <text transform="scale(4.0128.2492)" font-size="46.954" y="-303.68" x="504.11" font-family="Arial" text-anchor="middle"/>
 <text font-size="129.23" y="-205.14" x="2330.11" font-family="Gentium Book Basic" line-height="125%" word-spacing="0" letter-spacing="0"><tspan y="-205.14" x="2330.11"/>
 </text>
 <text transform="scale(4.0128.2492)" font-size="46.954" y="-1172.35" x="777.75" font-family="Arial" text-anchor="middle"/>
 <text font-size="129.23" y="-285.15" x="2911.38" font-family="Gentium Book Basic" line-height="125%" word-spacing="0" letter-spacing="0"><tspan y="-285.15" x="2911.38"/>
 </text>
 <text transform="scale(4.0128.2492)" font-size="46.954" y="-1493.39" x="922.6" font-family="Arial" text-anchor="middle"/>
 <text font-size="129.23" y="-757.55" x="2522.26" font-family="Gentium Book Basic" line-height="125%" word-spacing="0" letter-spacing="0"><tspan y="-757.55" x="2522.26"/>
 </text>
 <text transform="scale(4.0128.2492)" font-size="46.954" y="-3389.04" x="825.63" font-family="Arial" text-anchor="middle"/>
 <text font-size="129.23" y="-837.55" x="3103.52" font-family="Gentium Book Basic" line-height="125%" word-spacing="0" letter-spacing="0"><tspan y="-837.55" x="3103.52"/>
 </text>
 <text transform="scale(4.0128.2492)" font-size="46.954" y="-3710.07" x="970.48" font-family="Arial" text-anchor="middle"/>
 <text font-size="208.33" y="577.17" x="1270.72" font-family="Gentium Book Basic" line-height="125%" word-spacing="0" letter-spacing="0"><tspan y="577.17" x="1270.72"/>
 </text>
 <path d="m242.32 102.7c-0.787 0.006-1.575 0.037-2.361 0.07-7.552 0.312-15.07 1.807-22.22 4.549a10.471 10.471 0 0 0 -0.97229 0.4167c-18.249 7.316-32.654 22.07-41.913 38.961a10.471 10.471 0 0 0 -0.59032 1.0418c-0.004 0.008 0.004 0.026 0 0.035a10.471 10.471 0 0 0 -0.48615 0.93757c-9.03 17.369-12.293 36.31-12.64 52.886-0.275 13.162 1.377 24.844 3.646 34.898-7.67 4.095-18.691 10.512-28.856 18.751a10.48 10.48 0 0 0 -0.76394 0.6945c-13.768 11.309-25.3 25.679-32.433 43.13a10.471 10.471 0 0 0 -0.0695 0.1389c-0.094 0.231-0.185 0.462-0.278 0.694a10.471 10.471 0 0 0 -0.38197 1.0418c-6.814 17.624-9.408 38.12-3.577 56.983a10.471 10.471 0 0 0 0.31252 1.0418c6.371 19.503 21.389 35.14 40.11 43.34a10.471 10.471 0 0 0 0.0346 0 10.471 10.471 0 0 0 1.2501 0.52087c18.07 7.516 38.28 7.906 56.43 4.132a10.471 10.471 0 0 0 0.48614 -0.0695c0.183-0.039 0.373-0.064 0.556-0.104a10.471 10.471 0 0 0 0.0695 -0.0346 10.471 10.471 0 0 0 1.007 -0.24307c18.1-4.126 33.617-12.356 45.837-20.974a10.473 10.473 0 0 0 0.59033 -0.38197c5.498-3.902 10.293-7.902 14.584-11.841 0.906 0.587 1.834 1.185 2.778 1.771a10.471 10.471 0 0 0 0.69449 0.45143c0.008 0.005 0.026-0.005 0.035 0 11.708 7.206 26.65 14.416 44.48 18.16 17.532 3.681 37.74 4.063 56.636-2.327a10.471 10.471 0 0 0 1.0417 -0.34726c0.323-0.114 0.65-0.23 0.972-0.347a10.471 10.471 0 0 0 0.0346 -0.0346c18.615-6.801 34.943-20.09 43.58-38.02a10.478 10.478 0 0 0 0.20836 -0.38198 10.471 10.471 0 0 0 0.4167 -0.97229c8.218-18.14 7.978-39.15 1.285-57.817a10.474 10.474 0 0 0 -0.1389 -0.4167 10.471 10.471 0 0 0 -0.38197 -0.9723c-6.998-18.511-19.983-33.791-33.857-45a10.472 10.472 0 0 0 -0.34724 -0.2778 10.471 10.471 0 0 0 -0.8334 -0.62504c-13.805-10.925-28.312-17.741-40.975-22.15a10.471 10.471 0 0 0 -0.4167 -0.1389 10.471 10.471 0 0 0 -1.007 -0.31253c-0.996-0.336-1.976-0.663-2.952-0.972 0.308-5.669 0.359-11.746-0.07-18.265a10.479 10.479 0 0 0 -0.0346 -0.45143 10.471 10.471 0 0 0 -0.1041 -1.0417c-1.171-14.964-4.683-32.29-13.161-48.962a10.471 10.471 0 0 0 -0.17363 -0.34724c-0.004-0.008 0.004-0.026 0-0.035a10.471 10.471 0 0 0 -0.20834 -0.38197c-8.717-16.948-22.271-32.847-40.14-42.05a10.475 10.475 0 0 0 -0.38198 -0.20834 10.471 10.471 0 0 0 -0.93757 -0.45143c-10.451-5.138-21.939-7.774-33.405-7.674m1.216 21.01c7.872 0.1 15.834 1.948 23.02 5.487a10.471 10.471 0 0 0 0.62505 0.31253c13.04 6.621 24.467 19.536 31.565 33.475a10.471 10.471 0 0 0 0 0.0346c7.137 13.908 10.233 29.09 11.181 42.33a10.479 10.479 0 0 0 0 0.0346c0.288 4.219 0.329 8.213 0.243 12.01-2.975-0.539-5.804-0.959-8.473-1.32a10.48 10.48 0 0 0 -0.20836 -0.0346c-0.068-0.008-0.141-0.026-0.208-0.035-9.125-1.25-16.773-1.754-23.543-2.01a10.479 10.479 0 0 0 -0.34725 -0.0346c-0.034-0.001-0.071 0.001-0.104 0-6.97-0.298-13.176-0.309-18.995-0.139-5.857 0.17-11.571 0.52-17.571 1.215-5.867 0.685-11.748 1.691-17.328 2.57a10.471 10.471 0 0 0 -0.31253 0.0346c-5.475 0.866-11.745 1.829-21.22 4.688-0.25 0.075-0.475 0.13-0.729 0.208a10.479 10.479 0 0 0 -0.2778 0.1041c-5.206 1.585-11.171 3.645-16.425 5.521-1.546-7.844-2.562-16.536-2.361-26.15 0.301-14.365 3.304-30.633 10.661-44.41 7.374-13.849 19.382-25.703 32.502-30.732 5.751-2.204 11.998-3.24 18.3-3.16m23.717 110.95c2.896 0.02 5.91 0.105 9.133 0.243a10.471 10.471 0 0 0 0.0695 0c6.438 0.237 13.421 0.703 21.981 1.875a10.471 10.471 0 0 0 0.0346 0 10.48 10.48 0 0 0 0.10411 0c3.02 0.404 6.198 0.92 9.549 1.563-0.045 0.263-0.093 0.539-0.139 0.799a10.471 10.471 0 0 0 0 0.0346 10.471 10.471 0 0 0 -0.0346 0.10411c-1.603 9.317-3.619 16.74-5.625 23.439a10.471 10.471 0 0 0 -0.0695 0.17362c-0.003 0.01 0.003 0.024 0 0.035-1.944 6.391-3.807 11.78-5.73 16.911a10.471 10.471 0 0 0 -0.31252 0.72922c-1.952 5.03-3.894 9.671-6.01 14.237a10.471 10.471 0 0 0 -0.2778 0.5556c-0.015 0.033-0.019 0.071-0.035 0.104-2.173 4.528-4.471 8.98-7.084 13.612a10.471 10.471 0 0 0 -0.34725 0.59032c-2.663 4.689-5.669 9.612-9.341 15.14a10.471 10.471 0 0 0 -0.5556 0.79867c-3.771 5.734-8.188 11.96-14.307 19.1a10.471 10.471 0 0 0 -0.31253 0.34725c-0.005 0.006 0.005 0.028 0 0.035-0.179 0.208-0.374 0.416-0.556 0.625-2.669-2.205-5.121-4.353-7.396-6.459-0.012-0.012-0.022-0.023-0.035-0.035a10.471 10.471 0 0 0 -0.0346 0c-6.276-5.851-11.1-10.999-15.348-15.8-4.136-4.672-7.639-8.897-10.869-13.06a10.471 10.471 0 0 0 -0.34736 -0.4512c-3.23-4.179-6.131-8.221-8.924-12.501a10.474 10.474 0 0 0 -0.24308 -0.34725 10.471 10.471 0 0 0 0 -0.0346c-2.81-4.29-5.572-8.822-8.403-13.89a10.471 10.471 0 0 0 -0.20835 -0.4167 10.471 10.471 0 0 0 -0.0346 -0.0347c-2.846-5.077-5.758-10.686-8.924-17.571a10.471 10.471 0 0 0 -0.17363 -0.38197c-2.205-4.84-4.416-10.121-6.528-16.286 5.557-2 11.702-4.164 16.946-5.764a10.479 10.479 0 0 0 0.34724 -0.10411 10.479 10.479 0 0 0 0.0695 0c8.751-2.687 13.313-3.326 19.06-4.236 5.792-0.91 11.562-1.888 16.807-2.5 5.139-0.596 10.02-0.915 15.279-1.076a10.474 10.474 0 0 0 0.45141 0c2.694-0.079 5.472-0.124 8.369-0.104m61.15 9.132c11.28 3.931 23.897 9.891 35.593 19.307a10.471 10.471 0 0 0 0.0346 0 10.472 10.472 0 0 0 0.34725 0.2778c11.532 9.339 22.13 22.19 27.398 36.15a10.471 10.471 0 0 0 0.24307 0.65977c5.229 14.354 5.075 30.619-0.833 43.13a10.478 10.478 0 0 0 -0.0695 0.1389c-5.841 12.184-17.975 22.461-31.982 27.572a10.471 10.471 0 0 0 -0.72923 0.24307c-14.416 5.086-31.573 5.03-46.43 1.91-14.464-3.038-26.917-8.834-36.982-14.932a10.471 10.471 0 0 0 -0.20835 -0.1389c-0.092-0.056-0.186-0.118-0.278-0.174 6.242-7.319 10.92-13.88 14.828-19.758a10.471 10.471 0 0 0 0.6945 -0.9723c4.187-6.26 7.605-11.871 10.626-17.189 2.827-4.976 5.318-9.763 7.639-14.55a10.471 10.471 0 0 0 0.24307 -0.45142c0.079-0.163 0.165-0.323 0.243-0.486a10.471 10.471 0 0 0 0.0346 -0.1041 10.471 10.471 0 0 0 0.0346 -0.10411c0.048-0.103 0.091-0.21 0.139-0.313a10.471 10.471 0 0 0 0.24307 -0.5556c2.166-4.678 4.229-9.443 6.216-14.515a10.471 10.471 0 0 0 0.31253 -0.79867 10.471 10.471 0 0 0 0.0346 -0.10411c0.029-0.077 0.04-0.166 0.07-0.243a10.471 10.471 0 0 0 0.24307 -0.62504c1.996-5.327 4.02-11.09 6.077-17.814a10.475 10.475 0 0 0 0.1389 -0.41669c2.063-6.876 4.293-15.07 6.077-25.14m-157.62 13.369c2.078 5.823 4.206 10.894 6.25 15.418a10.471 10.471 0 0 0 0.0695 0.17362c0.096 0.213 0.217 0.449 0.313 0.66a10.471 10.471 0 0 0 0 0.0346c3.47 7.575 6.709 13.857 9.862 19.481a10.471 10.471 0 0 0 0.24307 0.38197c2.925 5.237 5.804 10.02 8.751 14.55a10.471 10.471 0 0 0 0.38198 0.59032c0.005 0.007-0.005 0.027 0 0.035a10.474 10.474 0 0 0 0.20835 0.2778c3.125 4.796 6.376 9.358 9.931 13.959 3.477 4.499 7.219 9.06 11.529 13.959a10.471 10.471 0 0 0 0.0346 0.0346c0.176 0.2 0.343 0.389 0.521 0.59a10.48 10.48 0 0 0 0.72921 0.76395c4.282 4.799 9.289 10.06 15.522 15.904a10.471 10.471 0 0 0 0.0346 0.0695c0.191 0.179 0.362 0.341 0.556 0.521a10.471 10.471 0 0 0 0 0.0346c2.083 1.929 4.356 3.943 6.806 6.01-2.742 2.36-5.708 4.714-8.959 7.05a10.471 10.471 0 0 0 -0.59033 0.4167c-10.697 7.619-24.27 14.793-39.41 18.16a10.471 10.471 0 0 0 -0.34725 0.0695c-15.266 3.332-32.496 2.69-45.976-3.195a10.471 10.471 0 0 0 -0.45143 -0.17362c-13.08-5.873-23.607-17.1-27.988-30.07a10.487 10.487 0 0 0 -0.1389 -0.4167c-4.332-13.26-2.615-30.28 3.125-44.726a10.471 10.471 0 0 0 0.0346 -0.0695c5.711-14.332 15.11-26.2 26.946-35.836a10.48 10.48 0 0 0 0.31253 -0.2778 10.471 10.471 0 0 0 0.0346 0c7.05-5.717 15.08-10.657 21.668-14.376" fill="#fff"/>
</svg>
