<?xml version="1.0" encoding="UTF-8" standalone="no"?>
<svg xmlns="http://www.w3.org/2000/svg" height="512" viewBox="0 0 512 512" width="512" version="1.1">
 <metadata id="metadata156"/>
 <path id="path4" d="m471.95 253.05c0 120.9-98.01 218.9-218.9 218.9-120.9 0-218.9-98.01-218.9-218.9 0-120.9 98.01-218.9 218.9-218.9 120.9 0 218.9 98.01 218.9 218.9" fill-rule="evenodd" fill="#BF9E73"/>
 <path id="path6" fill-opacity="0.235" d="m199.06 95.94c-15.493 4.978-6.941 25.03-9.156 37.38v221.88c40.497 40.497 76.16 76.52 110.44 111.63 66.53-14.657 121.7-59.55 150.34-119.56-84.3-85.87-167.37-170.7-247.34-250.69l-4.25-0.625h-0.031" color="#000000"/>
 <g id="g8" fill-rule="evenodd">
  <path id="path10" fill-opacity="0.067" d="m256 1c-140.83 0-255 114.17-255 255s114.17 255 255 255 255-114.17 255-255-114.17-255-255-255m8.827 44.931c120.9 0 218.9 98 218.9 218.9s-98 218.9-218.9 218.9-218.93-98-218.93-218.9 98.03-218.9 218.93-218.9"/>
  <g id="g12" fill-opacity="0.129">
   <path id="path14" d="m256 4.433c-138.94 0-251.57 112.63-251.57 251.57s112.63 251.57 251.57 251.57 251.57-112.63 251.57-251.57-112.63-251.57-251.57-251.57m5.885 38.556c120.9 0 218.9 98 218.9 218.9s-98 218.9-218.9 218.9-218.93-98-218.93-218.9 98.03-218.9 218.93-218.9"/>
   <path id="path16" d="m256 8.356c-136.77 0-247.64 110.87-247.64 247.64s110.87 247.64 247.64 247.64 247.64-110.87 247.64-247.64-110.87-247.64-247.64-247.64m2.942 31.691c120.9 0 218.9 98 218.9 218.9s-98 218.9-218.9 218.9-218.93-98-218.93-218.9 98.03-218.9 218.93-218.9"/>
  </g>
  <path id="path18" d="m253.04 7.859c-135.42 0-245.19 109.78-245.19 245.19 0 135.42 109.78 245.19 245.19 245.19 135.42 0 245.19-109.78 245.19-245.19 0-135.42-109.78-245.19-245.19-245.19zm0 26.297c120.9 0 218.9 98 218.9 218.9s-98 218.9-218.9 218.9-218.93-98-218.93-218.9 98.03-218.9 218.93-218.9z" stroke-opacity="0.31" stroke="#000" stroke-width="4.904" fill="#fff"/>
 </g>
 <text id="text20" font-size="129.23" line-height="125%" y="231.36" x="729.64" font-family="Gentium Book Basic" word-spacing="0" letter-spacing="0"><tspan id="tspan22" y="231.36" x="729.64"/>
 </text>
 <text id="text24" font-size="46.954" transform="scale(4.0128 .2492)" y="579.25" x="378.91" font-family="Arial" text-anchor="middle"/>
 <text id="text26" font-size="129.23" line-height="125%" y="151.36" x="1310.91" font-family="Gentium Book Basic" word-spacing="0" letter-spacing="0"><tspan id="tspan28" y="151.36" x="1310.91"/>
 </text>
 <text id="text30" font-size="46.954" transform="scale(4.0128 .2492)" y="258.22" x="523.76" font-family="Arial" text-anchor="middle"/>
 <text id="text32" font-size="129.23" line-height="125%" y="-29.901" x="239.33" font-family="Gentium Book Basic" word-spacing="0" letter-spacing="0"><tspan id="tspan34" y="-29.901" x="239.33"/>
 </text>
 <text id="text36" font-size="46.954" transform="scale(4.0128 .2492)" y="-469.14" x="256.72" font-family="Arial" text-anchor="middle"/>
 <text id="text38" font-size="129.23" line-height="125%" y="-246.37" x="1337.38" font-family="Gentium Book Basic" word-spacing="0" letter-spacing="0"><tspan id="tspan40" y="-246.37" x="1337.38"/>
 </text>
 <text id="text42" font-size="46.954" transform="scale(4.0128 .2492)" y="-1337.81" x="530.36" font-family="Arial" text-anchor="middle"/>
 <text id="text44" font-size="129.23" line-height="125%" y="-326.38" x="1918.65" font-family="Gentium Book Basic" word-spacing="0" letter-spacing="0"><tspan id="tspan46" y="-326.38" x="1918.65"/>
 </text>
 <text id="text48" font-size="46.954" transform="scale(4.0128 .2492)" y="-1658.85" x="675.21" font-family="Arial" text-anchor="middle"/>
 <text id="text50" font-size="129.23" line-height="125%" y="-798.78" x="1529.53" font-family="Gentium Book Basic" word-spacing="0" letter-spacing="0"><tspan id="tspan52" y="-798.78" x="1529.53"/>
 </text>
 <text id="text54" font-size="46.954" transform="scale(4.0128 .2492)" y="-3554.51" x="578.24" font-family="Arial" text-anchor="middle"/>
 <text id="text56" font-size="129.23" line-height="125%" y="-878.78" x="2110.79" font-family="Gentium Book Basic" word-spacing="0" letter-spacing="0"><tspan id="tspan58" y="-878.78" x="2110.79"/>
 </text>
 <text id="text60" font-size="46.954" transform="scale(4.0128 .2492)" y="-3875.54" x="723.09" font-family="Arial" text-anchor="middle"/>
 <g id="g62" font-family="Gentium Book Basic" line-height="125%" word-spacing="0" letter-spacing="0">
  <text id="text64" y="535.94" x="277.99" font-size="208.33"><tspan id="tspan66" y="535.94" x="277.99"/>
  </text>
  <text id="text68" y="1287.57" x="-27707.35" font-size="4848.4"><tspan id="tspan70" y="1287.57" x="-27707.35"/>
  </text>
 </g>
 <text id="text72" font-size="1761.7" transform="scale(4.0128 .2492)" y="-7933.25" x="489.6" font-family="Arial" text-anchor="middle"/>
 <text id="text74" font-size="4848.4" line-height="125%" y="2199.62" x="-27842.09" font-family="Gentium Book Basic" word-spacing="0" letter-spacing="0"><tspan id="tspan76" y="2199.62" x="-27842.09"/>
 </text>
 <text id="text78" font-size="1761.7" transform="scale(4.0128 .2492)" y="-4273.4" x="456.06" font-family="Arial" text-anchor="middle"/>
 <g id="g80" fill="#BF9E73">
  <text id="text82" transform="scale(1.0508 .95163)" font-size="2976.1" y="-4851.6" x="-13350.26" font-family="Gentium Book Basic" line-height="125%" word-spacing="0" letter-spacing="0"><tspan id="tspan84" y="-4851.6" x="-13350.26"/>
  </text>
  <text id="text86" font-size="1081.5" transform="scale(4.2168 .23715)" y="-27509.9" x="1212.01" font-family="Arial" text-anchor="middle"/>
  <text id="text88" transform="scale(1.0508 .95163)" font-size="1593.2" y="-5676.62" x="-3947.41" font-family="Gentium Book Basic" line-height="125%" word-spacing="0" letter-spacing="0"><tspan id="tspan90" y="-5676.62" x="-3947.41"/>
  </text>
  <text id="text92" font-size="578.89" transform="scale(4.2168 .23715)" y="-27083.77" x="1446.12" font-family="Arial" text-anchor="middle"/>
  <text id="text94" font-size="4654.5" line-height="125%" y="-1826.09" x="-40041.89" font-family="Gentium Book Basic" word-spacing="0" letter-spacing="0"><tspan id="tspan96" y="-1826.09" x="-40041.89"/>
  </text>
  <text id="text98" font-size="1691.2" transform="scale(4.0128 .2492)" y="-19903.28" x="-2879.81" font-family="Arial" text-anchor="middle"/>
 </g>
 <g id="g100">
  <text id="text102" font-family="Gentium Book Basic" font-size="4848.4" line-height="125%" stroke="#cd1d31" y="-14052.65" x="-25858.79" stroke-width="23.273" word-spacing="0" letter-spacing="0"><tspan id="tspan104" y="-14052.65" x="-25858.79"/>
  </text>
  <text id="text106" font-size="1761.7" transform="scale(4.0128 .2492)" y="-69490.94" x="950.39" font-family="Arial" text-anchor="middle"/>
  <text id="text108" font-family="Gentium Book Basic" font-size="4848.4" line-height="125%" stroke="#cd1d31" y="-13140.6" x="-25993.77" stroke-width="23.273" word-spacing="0" letter-spacing="0"><tspan id="tspan110" y="-13140.6" x="-25993.77"/>
  </text>
  <text id="text112" font-size="1761.7" transform="scale(4.0128 .2492)" y="-65830.85" x="916.72" font-family="Arial" text-anchor="middle"/>
 </g>
 <g id="g114" fill="#BF9E73">
  <g id="g116" stroke="#cd1d31" stroke-width="23.273">
   <text id="text118" transform="scale(1.0508 .95163)" font-size="2976.1" y="-20971.4" x="-11591.08" font-family="Gentium Book Basic" line-height="125%" word-spacing="0" letter-spacing="0"><tspan id="tspan120" y="-20971.4" x="-11591.08"/>
   </text>
   <text id="text122" font-size="1081.5" transform="scale(4.2168 .23715)" y="-92196.84" x="1650.45" font-family="Arial" text-anchor="middle"/>
   <text id="text124" transform="scale(1.0508 .95163)" font-size="1593.2" y="-21796.41" x="-2188.47" font-family="Gentium Book Basic" line-height="125%" word-spacing="0" letter-spacing="0"><tspan id="tspan126" y="-21796.41" x="-2188.47"/>
   </text>
   <text id="text128" font-size="578.89" transform="scale(4.2168 .23715)" y="-91770.7" x="1884.34" font-family="Arial" text-anchor="middle"/>
   <text id="text130" font-size="4654.5" line-height="125%" y="-17166.31" x="-38193.34" font-family="Gentium Book Basic" word-spacing="0" letter-spacing="0"><tspan id="tspan132" y="-17166.31" x="-38193.34"/>
   </text>
  </g>
  <text id="text134" font-size="1691.2" transform="scale(4.0128 .2492)" y="-81460.97" x="-2419.25" font-family="Arial" text-anchor="middle"/>
 </g>
 <g id="g136">
  <text id="text138" font-family="Gentium Book Basic" font-size="4654.5" line-height="125%" stroke="#cd1d31" y="-20742.17" x="-8882.96" stroke-width="23.273" word-spacing="0" letter-spacing="0"><tspan id="tspan140" y="-20742.17" x="-8882.96"/>
  </text>
  <text id="text142" font-size="1691.2" transform="scale(4.0128 .2492)" y="-95810.16" x="4884.86" font-family="Arial" text-anchor="middle"/>
  <text id="text144" font-family="Gentium Book Basic" font-size="4654.5" line-height="125%" stroke="#cd1d31" y="-23623.8" x="12053.65" stroke-width="23.273" word-spacing="0" letter-spacing="0"><tspan id="tspan146" y="-23623.8" x="12053.65"/>
  </text>
  <text id="text148" font-size="1691.2" transform="scale(4.0128 .2492)" y="-107373.4" x="10102.35" font-family="Arial" text-anchor="middle"/>
 </g>
 <path id="path150" fill="#fff" d="m199.03 95.979a9.9895 9.9895 0 0 0 -9.1301 9.9494v249.43a9.9895 9.9895 0 0 0 10.066 9.9494h58.29l40.97 41.44a9.9895 9.9895 0 0 0 10.652 2.341l19.808-7.374a9.9895 9.9895 0 0 0 6.4378 -8.3107l5.393-53.6 38.636-47.991a9.9895 9.9895 0 0 0 -0.58523 -13.227l-172.47-179.57a9.9895 9.9895 0 0 0 -8.0686 -3.0419" color="#000000"/>
</svg>
