<?xml version="1.0" encoding="UTF-8" standalone="no"?>
<svg
   xmlns:dc="http://purl.org/dc/elements/1.1/"
   xmlns:cc="http://creativecommons.org/ns#"
   xmlns:rdf="http://www.w3.org/1999/02/22-rdf-syntax-ns#"
   xmlns:svg="http://www.w3.org/2000/svg"
   xmlns="http://www.w3.org/2000/svg"
   xmlns:sodipodi="http://sodipodi.sourceforge.net/DTD/sodipodi-0.dtd"
   xmlns:inkscape="http://www.inkscape.org/namespaces/inkscape"
   height="512"
   viewBox="0 0 512 512"
   width="512"
   version="1.1"
   id="svg2"
   inkscape:version="0.91 r13725"
   sodipodi:docname="eidete.svg">
  <defs
     id="defs16" />
  <sodipodi:namedview
     pagecolor="#ffffff"
     bordercolor="#666666"
     borderopacity="1"
     objecttolerance="10"
     gridtolerance="10"
     guidetolerance="10"
     inkscape:pageopacity="0"
     inkscape:pageshadow="2"
     inkscape:window-width="1920"
     inkscape:window-height="1022"
     id="namedview14"
     showgrid="false"
     inkscape:zoom="1.9069376"
     inkscape:cx="145.01339"
     inkscape:cy="256"
     inkscape:window-x="0"
     inkscape:window-y="0"
     inkscape:window-maximized="1"
     inkscape:current-layer="svg2" />
  <metadata
     id="metadata72">
    <rdf:RDF>
      <cc:Work
         rdf:about="">
        <dc:format>image/svg+xml</dc:format>
        <dc:type
           rdf:resource="http://purl.org/dc/dcmitype/StillImage" />
        <dc:title></dc:title>
      </cc:Work>
    </rdf:RDF>
  </metadata>
  <path
     id="path4"
     d="m471.95 253.05c0 120.9-98.01 218.9-218.9 218.9-120.9 0-218.9-98.01-218.9-218.9 0-120.9 98.01-218.9 218.9-218.9 120.9 0 218.9 98.01 218.9 218.9"
     fill-rule="evenodd"
     fill="#BF9E73" />
  <g
     id="g8"
     fill-rule="evenodd">
    <path
       id="path10"
       fill-opacity="0.067"
       d="m256 1c-140.83 0-255 114.17-255 255s114.17 255 255 255 255-114.17 255-255-114.17-255-255-255m8.827 44.931c120.9 0 218.9 98 218.9 218.9s-98 218.9-218.9 218.9-218.93-98-218.93-218.9 98.03-218.9 218.93-218.9" />
    <g
       id="g12"
       fill-opacity="0.129">
      <path
         id="path14"
         d="m256 4.433c-138.94 0-251.57 112.63-251.57 251.57s112.63 251.57 251.57 251.57 251.57-112.63 251.57-251.57-112.63-251.57-251.57-251.57m5.885 38.556c120.9 0 218.9 98 218.9 218.9s-98 218.9-218.9 218.9-218.93-98-218.93-218.9 98.03-218.9 218.93-218.9" />
      <path
         id="path16"
         d="m256 8.356c-136.77 0-247.64 110.87-247.64 247.64s110.87 247.64 247.64 247.64 247.64-110.87 247.64-247.64-110.87-247.64-247.64-247.64m2.942 31.691c120.9 0 218.9 98 218.9 218.9s-98 218.9-218.9 218.9-218.93-98-218.93-218.9 98.03-218.9 218.93-218.9" />
    </g>
    <path
       id="path18"
       d="m253.04 7.859c-135.42 0-245.19 109.78-245.19 245.19 0 135.42 109.78 245.19 245.19 245.19 135.42 0 245.19-109.78 245.19-245.19 0-135.42-109.78-245.19-245.19-245.19zm0 26.297c120.9 0 218.9 98 218.9 218.9s-98 218.9-218.9 218.9-218.93-98-218.93-218.9 98.03-218.9 218.93-218.9z"
       stroke-opacity="0.31"
       stroke="#000"
       stroke-width="4.904"
       fill="#fff" />
  </g>
  <path
     inkscape:connector-curvature="0"
     style="opacity:0.25"
     d="m 147.01425,128.52409 c -29.51001,0 -53.719006,24.24 -53.719006,53.75 l 0,117.78 c 0,14.763 6.06,28.22 15.812996,37.969 l 68.96901,68.969 -3.75,0 c -4.821,0 -8.719,3.898 -8.719,8.719 0,2.403 0.963,4.557 2.531,6.125 l 45.531,45.531 c 12.469,2.207 25.303,3.344 38.41,3.344 120.89,0 218.88,-97.98 218.88,-218.87 0,-14.155 -1.34,-27.999 -3.906,-41.41 l -66.12,-66.12 c -9.74,-9.74 -23.16,-15.781 -37.906,-15.781 l -216,0"
     id="path64" />
  <path
     inkscape:connector-curvature="0"
     style="fill:#ffffff"
     d="m 147.01425,128.52409 c -29.51001,0 -53.719006,24.24 -53.719006,53.75 l 0,117.78 c 0,29.51 24.209996,53.75 53.719006,53.75 l 216,0 c 29.51,0 53.719,-24.24 53.719,-53.75 l 0,-117.78 c 0,-29.51 -24.21,-53.75 -53.719,-53.75 l -216,0 m 4.281,26.313 207.44,0 c 16.893,0 30.375,13.386 30.375,30.25 l 0,112.16 c 0,16.864 -13.51,30.375 -30.375,30.375 l -207.44,0 c -16.863,0 -30.375,-13.511 -30.375,-30.375 l 0,-112.16 c 0,-16.864 13.484,-30.25 30.375,-30.25 m 15.03,40.16 c -10.138,0 -18.313,8.174 -18.313,18.313 l 0,59.938 c 0,10.138 8.174,18.313 18.313,18.313 l 96.13,0 c 10.138,0 18.313,-8.174 18.313,-18.313 l 0,-59.938 c 0,-10.138 -8.174,-18.313 -18.313,-18.313 l -96.12,0 m 173.56,9.969 0,76.63 22.13,0 0,-76.62 -22.12,0 m -39.19,17.09 0,42.531 16.875,0 0,-42.531 -16.875,0 m 21.938,108.81 c 5.607,0 10.125,4.517 10.125,10.125 0,5.607 -4.517,10.156 -10.125,10.156 -5.607,0 -10.188,-4.549 -10.188,-10.156 0,-5.607 4.58,-10.125 10.188,-10.125 m -84.78,37.16 c -6.677,0 -12.06,5.386 -12.06,12.06 l 0,26.09 c 0,0.278 0.013,0.539 0.031,0.813 l -51.5,0 c -4.821,0 -8.719,3.898 -8.719,8.719 0,4.821 3.898,8.688 8.719,8.688 l 156.63,0 c 4.821,0 8.688,-3.867 8.688,-8.688 0,-4.821 -3.867,-8.719 -8.688,-8.719 l -50.625,0 c 0.018,-0.273 0.031,-0.534 0.031,-0.813 l 0,-26.09 c 0,-6.677 -5.386,-12.06 -12.06,-12.06 l -30.438,0"
     id="path66" />
</svg>
