<?xml version="1.0" encoding="UTF-8" standalone="no"?>
<svg xmlns="http://www.w3.org/2000/svg" height="512" viewBox="0 0 512 512" width="512" version="1.1">
 <metadata id="metadata86"/>
 <g id="g16" fill-rule="evenodd">
  <path id="path18" fill="#BF9E73" d="m471.95 253.05c0 120.9-98.01 218.91-218.91 218.91s-218.91-98.01-218.91-218.91 98.01-218.91 218.91-218.91 218.91 98.01 218.91 218.91"/>
  <path id="path20" fill-opacity="0.067" d="m256 1c-140.83 0-255 114.17-255 255s114.17 255 255 255 255-114.17 255-255-114.17-255-255-255m8.827 44.931c120.9 0 218.9 98 218.9 218.9s-98 218.9-218.9 218.9-218.93-98-218.93-218.9 98.03-218.9 218.93-218.9"/>
  <g id="g22" fill-opacity="0.129">
   <path id="path24" d="m256 4.43c-138.94 0-251.57 112.63-251.57 251.57s112.63 251.57 251.57 251.57 251.57-112.63 251.57-251.57-112.63-251.57-251.57-251.57m5.885 38.556c120.9 0 218.9 98 218.9 218.9s-98 218.9-218.9 218.9-218.93-98-218.93-218.9 98.03-218.9 218.93-218.9"/>
   <path id="path26" d="m256 8.36c-136.77 0-247.64 110.87-247.64 247.64s110.87 247.64 247.64 247.64 247.64-110.87 247.64-247.64-110.87-247.64-247.64-247.64m2.942 31.691c120.9 0 218.9 98 218.9 218.9s-98 218.9-218.9 218.9-218.93-98-218.93-218.9 98.03-218.9 218.93-218.9"/>
  </g>
  <path id="path28" d="m253.04 7.86c-135.42 0-245.19 109.78-245.19 245.19 0 135.42 109.78 245.19 245.19 245.19 135.42 0 245.19-109.78 245.19-245.19 0-135.42-109.78-245.19-245.19-245.19zm0 26.297c120.9 0 218.9 98 218.9 218.9s-98 218.9-218.9 218.9-218.93-98-218.93-218.9 98.03-218.9 218.93-218.9z" stroke-opacity="0.31" stroke="#000" stroke-width="4.904" fill="#fff"/>
 </g>
 <path id="path76" opacity="0.34" d="m90.19 301.77c6.496-31.25 3.701-80.33 15.954-80.33 21.95 0.001 28.16 102.58 42 102.65 13.768 0.072 0.743-76.959 18.572-76.09 28.667 1.453 19.773-59.996 33.35-60.08 25.06-0.146 14.252 134.4 34.883 133.47 16.578-0.747 12.808-34.28 26.26-32.13 15.512 2.471 11.04 26.714 21.332 26.306 16.1-0.638 3.789-110.16 19.716-109.89 12.355 0.216 27.29 110.57 42.25 110.57 26.556 0-6.368-73.867 50.41-32.581 14.196 10.323 9.08 7.251 26.887 11.789" stroke="#fff4ad" stroke-linecap="round" stroke-width="17.562" fill="none"/>
 <g id="g78" fill-rule="evenodd">
  <path id="path80" opacity="0.25" d="m261.69 87.19c-14.05-0.083-26.1 5.719-35.656 23.906-10.982 20.907-4.525 40.35 8.03 52.906l53.938 53.938c0.534 13.519-1.679 31.646-9 55.906-24.2 80.2-51.804 59.44-55.16 56.53l-0.313-0.281s-3.183 4.558-5.906 14.563l-15.344-15.344c-31.699 0.845-41.531 12.219-44 40.969-1.3 15.14 3.994 27.03 12.406 35.438l65.59 65.59c5.528 0.418 11.11 0.656 16.75 0.656 119.14 0 216.04-95.2 218.84-213.66l-141.31-141.31c-11.455-11.455-22.719-15.594-22.719-15.594-3.263 1.663-6.248 3.618-9 5.75l-16.82-16.83c-7.165-1.85-13.959-3.118-20.344-3.156"/>
  <path id="path82" fill="#fff" d="m282.03 90.33s-36.18 37.612-37.04 82.01c-18.896-10.82-32.812-34.878-18.954-61.26 13.896-26.455 33.07-26.673 55.994-20.752m-79.77 238.99s-20.32 45.543-3.658 90.5c-21.462-3.662-42.793-20.73-40.32-49.53 2.469-28.749 12.278-40.12 43.977-40.964m21.249 0.765s-19.12 27.382-3.698 94.73c40.677-2.22 55.05-7.179 83.57-45.883 28.527-38.704 57.966-177.99 48.812-221.27-9.153-43.29-44.37-56.24-44.37-56.24-39.2 19.981-39.938 77.71-39.938 77.71s36.768 9.653 11.09 94.73c-25.818 85.55-55.47 56.24-55.47 56.24"/>
 </g>
</svg>
