<?xml version="1.0" encoding="UTF-8" standalone="no"?>
<svg xmlns="http://www.w3.org/2000/svg" height="512" viewBox="0 0 512 512" width="512" version="1.1">
 <metadata id="metadata70"/>
 <path id="path4" fill-rule="evenodd" fill="#BF9E73" d="m471.95 253.05c0 120.9-98.01 218.9-218.9 218.9-120.9 0-218.9-98.01-218.9-218.9 0-120.9 98.01-218.9 218.9-218.9 120.9 0 218.9 98.01 218.9 218.9"/>
 <path id="path10-4" d="m256 1c-140.83 0-255 114.17-255 255s114.17 255 255 255 255-114.17 255-255-114.17-255-255-255m8.827 44.931c120.9 0 218.9 98 218.9 218.9s-98 218.9-218.9 218.9-218.93-98-218.93-218.9 98.03-218.9 218.93-218.9" fill-rule="evenodd" fill-opacity="0.067"/>
 <path id="path14-3" d="m256 4.433c-138.94 0-251.57 112.63-251.57 251.57s112.63 251.57 251.57 251.57 251.57-112.63 251.57-251.57-112.63-251.57-251.57-251.57m5.885 38.556c120.9 0 218.9 98 218.9 218.9s-98 218.9-218.9 218.9-218.93-98-218.93-218.9 98.03-218.9 218.93-218.9" fill-rule="evenodd" fill-opacity="0.129"/>
 <path id="path16-9-1" d="m256 8.356c-136.77 0-247.64 110.87-247.64 247.64s110.87 247.64 247.64 247.64 247.64-110.87 247.64-247.64-110.87-247.64-247.64-247.64m2.942 31.691c120.9 0 218.9 98 218.9 218.9s-98 218.9-218.9 218.9-218.93-98-218.93-218.9 98.03-218.9 218.93-218.9" fill-rule="evenodd" fill-opacity="0.129"/>
 <path id="path18-7" d="m253.04 7.859c-135.42 0-245.19 109.78-245.19 245.19 0 135.42 109.78 245.19 245.19 245.19 135.42 0 245.19-109.78 245.19-245.19 0-135.42-109.78-245.19-245.19-245.19zm0 26.297c120.9 0 218.9 98 218.9 218.9s-98 218.9-218.9 218.9-218.93-98-218.93-218.9 98.03-218.9 218.93-218.9z" stroke-opacity="0.31" fill-rule="evenodd" stroke="#000" stroke-width="4.904" fill="#fff"/>
 <path id="path8247" opacity="0.25" fill="#fff" d="m112.71 331.26s17.491 31.222 47.718 40.534c30.274 9.3123 44.595 8.4447 64.48-1.7121 19.932-10.122 47.487-29.186 68.645-40.396 18.844-9.9832 37.596-9.9832 56.44-9.9832 30.505 0 45.324 25.936 40.534 42.79-4.7892 16.901-12.748 27.023-37.411 27.023-24.675 0-15.906-27.879-61.322-13.511-45.416 14.321-95.575 27.879-127.48 10.978-31.812-16.901-51.744-55.758-51.744-55.758m0.0925 0.0462"/>
 <path id="path8249" opacity="0.25" fill="#fff" d="m274.8 259.9s10.619-12.517 18.798-29.915c9.4048-19.932 11.024-32.402-12.378-57.528-23.448-25.172-19.608-19.978-23.367-38.094-3.6555-18.116 34.935-24.038 43.831-7.3688 8.8611 16.67-10.932 13.153 1.3072 33.166 12.251 20.013 19.342 43.022 9.4048 59.784-9.9369 16.762-37.596 39.898-37.596 39.898m-0.0463 0.0463"/>
 <path id="path8251" opacity="0.25" fill="#fff" d="m387.65 294.92c-7.8663 4.1529-18.035 14.911-11.799 20.88 6.1889 6.0154 24.223 2.9846 28.157-4.7429 3.9331-7.7737 2.8457-13.153-2.2558-16.137-5.0668-2.9846-14.055 0-14.055 0m-0.0463 0"/>
 <path id="path8253" opacity="0.25" fill="#fff" d="m312.31 230.17c11.834-14.865 19.249-32.576 20.603-41.934 1.3535-9.3586 8.9421-29.51 15.455-34.935 6.5475-5.4254 22.141 2.6259 18.208 13.697-3.9331 11.024-19.7 15.675-20.927 22.546-1.1799 6.9177 5.6452 9.8907-2.2095 17.988-7.82 8.0398-31.13 22.639-31.13 22.639"/>
 <path id="path8466" opacity="0.25" d="m212.05 162.11c-15.97-0.05-32.23 4.37-46.01 13.75-42.2 28.69-82.015 88.66-47 146.91 4.23 7.02 8.93 13.04 14.03 18.13l130.78 130.78c78.55-3.81 146.24-49.04 181.69-114.31l-77.97-77.98c-2.19-2.19-5.13-4.12-8.85-5.6-0.93-0.37-1.89-0.7-2.87-0.99l-89.46-89.47c-13.74-13.74-33.81-21.17-54.34-21.22z"/>
 <path id="path8245" fill="#fff" d="m192.29 302.52s100.32-38.001 90.74-87.801c-9.5321-49.8-74.834-67.557-116.99-38.857-42.2 28.689-82.017 88.657-47.001 146.9 35.051 58.303 103.52 47.313 146.5 11.799 43.022-35.433 77.228-21.956 93.944-27.833 16.716-5.9228 18.347-25.346-0.76349-32.946-19.11-7.5886-47.764 0-73.249 26.213-25.484 26.213-47.764 54-85.997 38.857-38.232-15.224-85.175-91.191-49.349-129.19 35.792-38.001 67.419-21.956 77.726 0.35861 10.261 22.28 7.4961 37.642-6.8714 57.84-14.321 20.244-28.654 34.612-28.654 34.612m-0.0463 0"/>
</svg>
