<?xml version="1.0" encoding="UTF-8" standalone="no"?>
<svg
   xmlns:dc="http://purl.org/dc/elements/1.1/"
   xmlns:cc="http://creativecommons.org/ns#"
   xmlns:rdf="http://www.w3.org/1999/02/22-rdf-syntax-ns#"
   xmlns:svg="http://www.w3.org/2000/svg"
   xmlns="http://www.w3.org/2000/svg"
   xmlns:sodipodi="http://sodipodi.sourceforge.net/DTD/sodipodi-0.dtd"
   xmlns:inkscape="http://www.inkscape.org/namespaces/inkscape"
   sodipodi:docname="elementary.svg"
   inkscape:version="0.91 r13725"
   id="svg2"
   version="1.1"
   width="512"
   viewBox="0 0 512 512"
   height="512">
  <defs
     id="defs17">
    <inkscape:perspective
       sodipodi:type="inkscape:persp3d"
       inkscape:vp_x="-104.9144 : 167.5551 : 1"
       inkscape:vp_y="0 : 1743.2396 : 0"
       inkscape:vp_z="787.62429 : 167.5551 : 1"
       inkscape:persp3d-origin="341.35494 : 18.798654 : 1"
       id="perspective4438" />
  </defs>
  <sodipodi:namedview
     inkscape:current-layer="svg2"
     inkscape:window-maximized="1"
     inkscape:window-y="0"
     inkscape:window-x="0"
     inkscape:cy="625.16925"
     inkscape:cx="-165.8948"
     inkscape:zoom="0.51858143"
     showgrid="false"
     id="namedview15"
     inkscape:window-height="1022"
     inkscape:window-width="1920"
     inkscape:pageshadow="2"
     inkscape:pageopacity="0"
     guidetolerance="10"
     gridtolerance="10"
     objecttolerance="10"
     borderopacity="1"
     bordercolor="#666666"
     pagecolor="#ffffff" />
  <metadata
     id="metadata28">
    <rdf:RDF>
      <cc:Work
         rdf:about="">
        <dc:format>image/svg+xml</dc:format>
        <dc:type
           rdf:resource="http://purl.org/dc/dcmitype/StillImage" />
        <dc:title></dc:title>
      </cc:Work>
    </rdf:RDF>
  </metadata>
  <path
     style="fill:#BF9E73;fill-rule:evenodd;fill-opacity:1"
     inkscape:connector-curvature="0"
     d="m 471.95,253.05 c 0,120.9 -98.01,218.9 -218.9,218.9 -120.9,0 -218.9,-98.01 -218.9,-218.9 0,-120.9 98.01,-218.9 218.9,-218.9 120.9,0 218.9,98.01 218.9,218.9"
     id="path6" />
  <path
     inkscape:connector-curvature="0"
     style="opacity:0.25"
     id="path4190"
     d="m 289.03134,100.76573 -33.58984,76.28388 -38.53956,42.21125 71.62973,29.28316 -86.43267,29.99023 -39.73319,12.13019 15.5827,-6.68168 -29.18879,104.2406 150.97138,80.72553 c 34.98905,-12.41219 69.67911,-26.2197 101.98052,-51.17419 22.89673,-30.88454 47.38052,-60.5347 62.47643,-97.48654 l 12.79101,-91.61614"
     sodipodi:nodetypes="cccccccccccc" />
  <path
     style="fill-opacity:0.06700003;fill-rule:evenodd"
     inkscape:connector-curvature="0"
     d="M 256,1 C 115.17,1 1,115.17 1,256 1,396.83 115.17,511 256,511 396.83,511 511,396.83 511,256 511,115.17 396.83,1 256,1 m 8.827,44.931 c 120.9,0 218.9,98 218.9,218.9 0,120.9 -98,218.9 -218.9,218.9 -120.9,0 -218.93,-98 -218.93,-218.9 0,-120.9 98.03,-218.9 218.93,-218.9"
     id="path8" />
  <g
     style="fill-opacity:0.12900002;fill-rule:evenodd"
     id="g10">
    <path
       inkscape:connector-curvature="0"
       d="m 256,4.433 c -138.94,0 -251.57,112.63 -251.57,251.57 0,138.94 112.63,251.57 251.57,251.57 138.94,0 251.57,-112.63 251.57,-251.57 C 507.57,117.063 394.94,4.433 256,4.433 m 5.885,38.556 c 120.9,0 218.9,98 218.9,218.9 0,120.9 -98,218.9 -218.9,218.9 -120.9,0 -218.93,-98 -218.93,-218.9 0,-120.9 98.03,-218.9 218.93,-218.9"
       id="path12" />
    <path
       inkscape:connector-curvature="0"
       d="m 256,8.356 c -136.77,0 -247.64,110.87 -247.64,247.64 0,136.77 110.87,247.64 247.64,247.64 136.77,0 247.64,-110.87 247.64,-247.64 C 503.64,119.226 392.77,8.356 256,8.356 m 2.942,31.691 c 120.9,0 218.9,98 218.9,218.9 0,120.9 -98,218.9 -218.9,218.9 -120.9,0 -218.93,-98 -218.93,-218.9 0,-120.9 98.03,-218.9 218.93,-218.9"
       id="path14" />
  </g>
  <path
     style="fill:#ffffff;fill-rule:evenodd;stroke:#000000;stroke-width:4.90399981;stroke-opacity:0.31000001"
     inkscape:connector-curvature="0"
     d="m 253.04,7.859 c -135.42,0 -245.19,109.78 -245.19,245.19 0,135.42 109.78,245.19 245.19,245.19 135.42,0 245.19,-109.78 245.19,-245.19 0,-135.42 -109.78,-245.19 -245.19,-245.19 z m 0,26.297 c 120.9,0 218.9,98 218.9,218.9 0,120.9 -98,218.9 -218.9,218.9 -120.9,0 -218.93,-98 -218.93,-218.9 0,-120.9 98.03,-218.9 218.93,-218.9 z"
     id="path16" />
  <g
     id="g4481">
    <g
       inkscape:corner7="0.26004385 : 0.041097675 : 0.28010926 : 1"
       inkscape:corner0="0.75464051 : 0.16130424 : 0 : 1"
       inkscape:perspectiveID="#perspective4438"
       style="opacity:1;fill:#ffffff;fill-opacity:1;stroke:none;stroke-width:10;stroke-linejoin:round;stroke-miterlimit:4;stroke-dasharray:none;stroke-opacity:1"
       id="g4440"
       sodipodi:type="inkscape:box3d">
      <path
         points="249.25529,405.64384 347.16902,394.51353 237.27888,382.3431 149.42222,388.39313 "
         d="m 149.42222,388.39313 99.83307,17.25071 97.91373,-11.13031 -109.89014,-12.17043 z"
         inkscape:box3dsidetype="13"
         style="fill:#ffffff;fill-opacity:1;fill-rule:evenodd;stroke:none;stroke-width:1px;stroke-linecap:butt;stroke-linejoin:round;stroke-opacity:1"
         id="path4450"
         sodipodi:type="inkscape:box3dside" />
      <path
         points="149.42222,388.39313 237.27888,382.3431 237.27888,279.35803 149.42222,268.96762 "
         d="m 149.42222,268.96762 0,119.42551 87.85666,-6.05003 0,-102.98507 z"
         inkscape:box3dsidetype="6"
         style="fill:#ffffff;fill-opacity:1;fill-rule:evenodd;stroke:none;stroke-width:1px;stroke-linecap:butt;stroke-linejoin:round;stroke-opacity:1"
         id="path4442"
         sodipodi:type="inkscape:box3dside" />
      <path
         points="347.16902,258.45638 347.16902,394.51353 237.27888,382.3431 237.27888,279.35803 "
         d="m 237.27888,279.35803 109.89014,-20.90165 0,136.05715 -109.89014,-12.17043 z"
         inkscape:box3dsidetype="11"
         style="fill:#ffffff;fill-opacity:1;fill-rule:evenodd;stroke:none;stroke-width:1px;stroke-linecap:butt;stroke-linejoin:round;stroke-opacity:1"
         id="path4452"
         sodipodi:type="inkscape:box3dside" />
      <path
         points="249.25529,239.34102 347.16902,258.45638 237.27888,279.35803 149.42222,268.96762 "
         d="m 149.42222,268.96762 99.83307,-29.6266 97.91373,19.11536 -109.89014,20.90165 z"
         inkscape:box3dsidetype="5"
         style="fill:#ffffff;fill-opacity:1;fill-rule:evenodd;stroke:none;stroke-width:1px;stroke-linecap:butt;stroke-linejoin:round;stroke-opacity:1"
         id="path4444"
         sodipodi:type="inkscape:box3dside" />
      <path
         points="249.25529,405.64384 347.16902,394.51353 347.16902,258.45638 249.25529,239.34102 "
         d="m 249.25529,239.34102 0,166.30282 97.91373,-11.13031 0,-136.05715 z"
         inkscape:box3dsidetype="14"
         style="fill:#ffffff;fill-opacity:1;fill-rule:evenodd;stroke:none;stroke-width:1px;stroke-linecap:butt;stroke-linejoin:round;stroke-opacity:1"
         id="path4448"
         sodipodi:type="inkscape:box3dside" />
      <path
         points="249.25529,239.34102 249.25529,405.64384 149.42222,388.39313 149.42222,268.96762 "
         d="m 149.42222,268.96762 99.83307,-29.6266 0,166.30282 -99.83307,-17.25071 z"
         inkscape:box3dsidetype="3"
         style="fill:#ffffff;fill-opacity:1;fill-rule:evenodd;stroke:none;stroke-width:1px;stroke-linecap:butt;stroke-linejoin:round;stroke-opacity:1"
         id="path4446"
         sodipodi:type="inkscape:box3dside" />
    </g>
    <circle
       r="69.199677"
       cy="160.54744"
       cx="253.95941"
       id="path4454"
       style="opacity:1;fill:#ffffff;fill-opacity:1;stroke:none;stroke-width:10;stroke-linejoin:round;stroke-miterlimit:4;stroke-dasharray:none;stroke-opacity:1" />
  </g>
</svg>
