<?xml version="1.0" encoding="UTF-8" standalone="no"?>
<svg xmlns="http://www.w3.org/2000/svg" height="512" viewBox="0 0 512 512" width="512" version="1.1">
 <metadata id="metadata26"/>
 <g id="g4" fill-rule="evenodd">
  <path id="path6" fill="#BF9E73" d="m471.95 253.05c0 120.9-98.01 218.9-218.9 218.9-120.9 0-218.9-98.01-218.9-218.9 0-120.9 98.01-218.9 218.9-218.9 120.9 0 218.9 98.01 218.9 218.9"/>
  <path id="path8" fill-opacity="0.067" d="m256 1c-140.83 0-255 114.17-255 255s114.17 255 255 255 255-114.17 255-255-114.17-255-255-255m8.827 44.931c120.9 0 218.9 98 218.9 218.9s-98 218.9-218.9 218.9-218.93-98-218.93-218.9 98.03-218.9 218.93-218.9"/>
  <g id="g10" fill-opacity="0.129">
   <path id="path12" d="m256 4.433c-138.94 0-251.57 112.63-251.57 251.57s112.63 251.57 251.57 251.57 251.57-112.63 251.57-251.57-112.63-251.57-251.57-251.57m5.885 38.556c120.9 0 218.9 98 218.9 218.9s-98 218.9-218.9 218.9-218.93-98-218.93-218.9 98.03-218.9 218.93-218.9"/>
   <path id="path14" d="m256 8.356c-136.77 0-247.64 110.87-247.64 247.64s110.87 247.64 247.64 247.64 247.64-110.87 247.64-247.64-110.87-247.64-247.64-247.64m2.942 31.691c120.9 0 218.9 98 218.9 218.9s-98 218.9-218.9 218.9-218.93-98-218.93-218.9 98.03-218.9 218.93-218.9"/>
  </g>
  <path id="path16" d="m253.04 7.859c-135.42 0-245.19 109.78-245.19 245.19 0 135.42 109.78 245.19 245.19 245.19 135.42 0 245.19-109.78 245.19-245.19 0-135.42-109.78-245.19-245.19-245.19zm0 26.297c120.9 0 218.9 98 218.9 218.9s-98 218.9-218.9 218.9-218.93-98-218.93-218.9 98.03-218.9 218.93-218.9z" stroke-opacity="0.31" stroke="#000" stroke-width="4.904" fill="#fff"/>
  <path id="path18" fill-opacity="0.235" d="m340.72 114.38c-1.686-0.011-3.385 0.035-5.063 0.125-22.11 0.355-44.19 1.72-66.25 3.188 32.4 29.771 0.526 0.48 32.469 30.03-31.573-0.632-57.841-9.646-87.12-9.313-22.96-1.813-29.525 24.42-15.16 39.06 14.634 22.899 36.34 39.892 54.781 59.56 9.38 8.641-17.282-1.163-23.781 0.813-31.614-1.181-65.841 3.119-91.94 22.281-14.292 10.396-15.626 31.581-4.813 44.969 16.04 19.689 35.4 36.418 52.938 54.781 9.171 9.182 18.37 18.311 27.531 27.5-13.51 0.677-28.16 2.34-42.906 0.75 87.69 85.967 6.498 6.349 85.59 83.78 119.07-2.116 214.94-99.27 214.94-218.84 0-12.403-1.018-24.566-3-36.406-27.723-27.24-68.59-67.03-95.06-92.12-9.519-7.371-21.352-10.08-33.16-10.156"/>
 </g>
 <path id="path20" fill="#fff" d="m171.11 388.09s17.08 4.958 39.804 7.792c9.205 1.148 44.23 5.16 71.08 5.05 0 0 32.703 0.035 50.755-2.527 18.889-2.683 29.59-6.107 35.545-12.941 0.155-1.629 2.875-6.941-4.468-12.06-18.771-13.09-43.04-16.679-90.17-27.873-52.12-13.1-67.7-25.653-75.48-34.735-7.378-9.102 1.385-28 43.38-37.28 21.265-5.175 100.46-6.126 100.46-6.126-22.722-18.04-65.38-50.34-74.1-57.21-7.647-6.02-19.971-15.268-21.295-23.529-1.787-8.04 10.871-11.914 17.572-12.36 21.593-1.489 51.08 1.042 77.29 6.255 13.175 2.62 15.488 2.234 15.488 2.234 18.764 0.894 33.36-8.935 32.613-29.635-0.149-20.998-21.14-37.835-44.38-38.57-21.881-0.693-75.8 3.127-75.8 3.127 62.844 12.956 73.12 16.262 76.4 23.827 1.936 4.468-3.234 8.91-20.551 8.04-18.853-0.945-57.48-5.51-57.48-5.51-36.783-5.659-62.4-11.02-73.57 3.574-7.297 9.534 1.042 21.15 4.319 27.997 14.594 25.465 39.83 42.936 55.845 55.25 6.03 4.633 24.423 14.892 24.423 14.892-57.19-15.637-102.75-6.85-131.64 8.339-33.21 19.657-27.528 52.829 25.17 83.84 31.12 18.317 46.621 27.12 97.58 33.373 29.787 4.75 34.23 6.693 33.999 9.172-0.319 3.491-35.26 4.813-44.859 5.476-24.43 1.685-87.61 2.106-87.93 2.106"/>
</svg>
