<?xml version="1.0" encoding="UTF-8" standalone="no"?>
<svg xmlns="http://www.w3.org/2000/svg" height="512" viewBox="0 0 512 512" width="512" version="1.1">
 <metadata id="metadata101"/>
 <g id="g35" fill-rule="evenodd">
  <path id="path37" fill="#BF9E73" d="m471.95 253.05c0 120.9-98.01 218.91-218.91 218.91s-218.91-98.01-218.91-218.91 98.01-218.91 218.91-218.91 218.91 98.01 218.91 218.91"/>
  <path id="path39" fill-opacity="0.067" d="m256 1c-140.83 0-255 114.17-255 255s114.17 255 255 255 255-114.17 255-255-114.17-255-255-255m8.827 44.931c120.9 0 218.9 98 218.9 218.9s-98 218.9-218.9 218.9-218.93-98-218.93-218.9 98.03-218.9 218.93-218.9"/>
  <g id="g41" fill-opacity="0.129">
   <path id="path43" d="m256 4.43c-138.94 0-251.57 112.63-251.57 251.57s112.63 251.57 251.57 251.57 251.57-112.63 251.57-251.57-112.63-251.57-251.57-251.57m5.885 38.556c120.9 0 218.9 98 218.9 218.9s-98 218.9-218.9 218.9-218.93-98-218.93-218.9 98.03-218.9 218.93-218.9"/>
   <path id="path45" d="m256 8.36c-136.77 0-247.64 110.87-247.64 247.64s110.87 247.64 247.64 247.64 247.64-110.87 247.64-247.64-110.87-247.64-247.64-247.64m2.942 31.691c120.9 0 218.9 98 218.9 218.9s-98 218.9-218.9 218.9-218.93-98-218.93-218.9 98.03-218.9 218.93-218.9"/>
  </g>
  <path id="path47" d="m253.04 7.86c-135.42 0-245.19 109.78-245.19 245.19 0 135.42 109.78 245.19 245.19 245.19 135.42 0 245.19-109.78 245.19-245.19 0-135.42-109.78-245.19-245.19-245.19zm0 26.297c120.9 0 218.9 98 218.9 218.9s-98 218.9-218.9 218.9-218.93-98-218.93-218.9 98.03-218.9 218.93-218.9z" stroke-opacity="0.31" stroke="#000" stroke-width="4.904" fill="#fff"/>
 </g>
 <path id="path95" opacity="0.25" d="m139.56 113.59-46.5 75.38 11.531 11.531h-11.53l153.94 197.91 65.41 65.41c92.05-25.877 159.53-110.43 159.53-210.75 0-15.247-1.564-30.13-4.531-44.5l-94.97-94.97-4.469 7.25-7.25-7.25h-93l18.875 30.594-30.594-30.594-4.469 7.25-7.25-7.25h-93l18.875 30.594-30.594-30.594"/>
 <path id="path97" fill="#fff" d="m139.57 113.6-46.51 75.36h93.18l-46.68-75.36m11.711 0 46.51 75.36 46.51-75.36h-93.01m104.72 0-46.51 75.36h93.01l-46.51-75.36m11.711 0 46.51 75.36 46.51-75.36h-93.01m104.72 0-46.675 75.36h93.18l-46.51-75.36m-279.37 86.9 153.94 197.9-54.99-197.9h-98.95m110.49 0l52.45 197.9 52.45-197.9h-104.89m116.43 0-54.992 197.9 153.94-197.9h-98.95"/>
</svg>
