<?xml version="1.0" encoding="UTF-8" standalone="no"?>
<svg xmlns="http://www.w3.org/2000/svg" height="512" viewBox="0 0 512 512" width="512" version="1.1">
 <metadata id="metadata70"/>
 <g id="g9" fill-rule="evenodd">
  <path id="path11" fill="#BF9E73" d="m471.95 253.05c0 120.9-98.01 218.9-218.9 218.9-120.9 0-218.9-98.01-218.9-218.9 0-120.9 98.01-218.9 218.9-218.9 120.9 0 218.9 98.01 218.9 218.9"/>
  <path id="path13" fill-opacity="0.067" d="m256 1c-140.83 0-255 114.17-255 255s114.17 255 255 255 255-114.17 255-255-114.17-255-255-255m8.827 44.931c120.9 0 218.9 98 218.9 218.9s-98 218.9-218.9 218.9-218.93-98-218.93-218.9 98.03-218.9 218.93-218.9"/>
  <g id="g15" fill-opacity="0.129">
   <path id="path17" d="m256 4.433c-138.94 0-251.57 112.63-251.57 251.57s112.63 251.57 251.57 251.57 251.57-112.63 251.57-251.57-112.63-251.57-251.57-251.57m5.885 38.556c120.9 0 218.9 98 218.9 218.9s-98 218.9-218.9 218.9-218.93-98-218.93-218.9 98.03-218.9 218.93-218.9"/>
   <path id="path19" d="m256 8.356c-136.77 0-247.64 110.87-247.64 247.64s110.87 247.64 247.64 247.64 247.64-110.87 247.64-247.64-110.87-247.64-247.64-247.64m2.942 31.691c120.9 0 218.9 98 218.9 218.9s-98 218.9-218.9 218.9-218.93-98-218.93-218.9 98.03-218.9 218.93-218.9"/>
  </g>
  <path id="path21" d="m253.04 7.859c-135.42 0-245.19 109.78-245.19 245.19 0 135.42 109.78 245.19 245.19 245.19 135.42 0 245.19-109.78 245.19-245.19 0-135.42-109.78-245.19-245.19-245.19zm0 26.297c120.9 0 218.9 98 218.9 218.9s-98 218.9-218.9 218.9-218.93-98-218.93-218.9 98.03-218.9 218.93-218.9z" stroke-opacity="0.31" stroke="#000" stroke-width="4.904" fill="#fff"/>
 </g>
 <path id="path71" opacity="0.25" d="m193.37 124.09l0.01 0.01v31.49l14.97 14.97h-14.98l0.01 0.01v31.49l14.97 14.97h-14.98l0.01 0.01v14.93l-14.94-14.94h-55.16v31.5l14.94 14.94h-14.94v31.5l14.97 14.97h-14.97v31.5l14.97 14.97h-14.97v31.5l77.82 77.82c16.65 4.05 34.05 6.22 51.95 6.22 106.18 0 194.7-75.6 214.67-175.92l-79-79h-47.25l-92.94-92.94h-55.16zm146.26 137.57h7.06l1.81 1.81h-7.06l-1.81-1.81z"/>
 <path id="path207" fill="#fff" d="m193.38 124.09v31.5h55.16v-31.5h-55.16m0 46.47v31.5h55.16v-31.5h-55.16m-70.09 46.47v31.5h55.16v-31.5h-55.16m70.09 0v31.5h55.16v-31.5h-55.16m140.19 0v31.5h55.16v-31.5h-55.16m-210.28 46.44v31.5h55.16v-31.5h-55.16m70.09 0v31.5h55.16v-31.5h-55.16m70.09 0v31.5h55.16v-31.5h-55.16m70.09 0v31.5h55.16v-31.5h-55.16m-210.28 46.47v31.5h55.16v-31.5h-55.16m70.09 0v31.5h55.16v-31.5h-55.16m70.09 0v31.5h55.16v-31.5h-55.16m70.09 0v31.5h55.16v-31.5h-55.16m-210.28 46.47v31.5h55.16v-31.5h-55.16m70.09 0v31.5h55.16v-31.5h-55.16m70.09 0v31.5h55.16v-31.5h-55.16m70.09 0v31.5h55.16v-31.5h-55.16"/>
</svg>
