<?xml version="1.0" encoding="UTF-8" standalone="no"?>
<svg xmlns="http://www.w3.org/2000/svg" height="512" viewBox="0 0 512 512" width="512" version="1.1">
 <metadata id="metadata72"/>
 <path id="path4" d="m471.95 253.05c0 120.9-98.01 218.9-218.9 218.9-120.9 0-218.9-98.01-218.9-218.9 0-120.9 98.01-218.9 218.9-218.9 120.9 0 218.9 98.01 218.9 218.9" fill-rule="evenodd" fill="#BF9E73"/>
 <path id="path6" fill-opacity="0.235" d="m297.88 124.88c-11.963 17.922-15.633 50.693-46.16 49.41-10.734-10.322-20.904-21.248-31.75-31.375-24.37 20.513-43.82 46.988-66.44 69.66-15.372 19.413-40.676 36.1-51.31 56.03 32.513 32.928 65.46 65.32 97.97 98.25 32.33 31.914 64.23 64.36 96.56 96.28 1.189 1.234 2.395 2.464 3.594 3.688 84.82-18.688 151.19-86.56 167.66-172.19-56.61-56.688-113.14-113.48-170.12-169.75"/>
 <g id="g8" fill-rule="evenodd">
  <path id="path10" fill-opacity="0.067" d="m256 1c-140.83 0-255 114.17-255 255s114.17 255 255 255 255-114.17 255-255-114.17-255-255-255m8.827 44.931c120.9 0 218.9 98 218.9 218.9s-98 218.9-218.9 218.9-218.93-98-218.93-218.9 98.03-218.9 218.93-218.9"/>
  <g id="g12" fill-opacity="0.129">
   <path id="path14" d="m256 4.433c-138.94 0-251.57 112.63-251.57 251.57s112.63 251.57 251.57 251.57 251.57-112.63 251.57-251.57-112.63-251.57-251.57-251.57m5.885 38.556c120.9 0 218.9 98 218.9 218.9s-98 218.9-218.9 218.9-218.93-98-218.93-218.9 98.03-218.9 218.93-218.9"/>
   <path id="path16" d="m256 8.356c-136.77 0-247.64 110.87-247.64 247.64s110.87 247.64 247.64 247.64 247.64-110.87 247.64-247.64-110.87-247.64-247.64-247.64m2.942 31.691c120.9 0 218.9 98 218.9 218.9s-98 218.9-218.9 218.9-218.93-98-218.93-218.9 98.03-218.9 218.93-218.9"/>
  </g>
  <path id="path18" d="m253.04 7.859c-135.42 0-245.19 109.78-245.19 245.19 0 135.42 109.78 245.19 245.19 245.19 135.42 0 245.19-109.78 245.19-245.19 0-135.42-109.78-245.19-245.19-245.19zm0 26.297c120.9 0 218.9 98 218.9 218.9s-98 218.9-218.9 218.9-218.93-98-218.93-218.9 98.03-218.9 218.93-218.9z" stroke-opacity="0.31" stroke="#000" stroke-width="4.904" fill="#fff"/>
 </g>
 <path id="path66" fill="#fff" d="m236.42 386.61c-0.531-0.521-3.329-1.159-6.217-1.417-10.955-0.98-24.463-13.698-58.687-55.26-34.06-41.36-49.695-55.15-69.74-61.5-2.3-0.729 0.241-3.798 15.772-19.04 21.02-20.636 35.23-35.609 70.08-73.866 27.67-30.376 31.454-34.06 33.11-32.23 0.641 0.708 4.822 6.658 9.29 13.221 11.269 16.551 20.02 21 30.781 15.648 9.08-4.521 28.807-29.653 34.33-43.739 1.92-4.901 3.19-4.767 6.53 0.688 4.613 7.535 28.916 37.904 44.843 56.04 8.304 9.454 26.21 28.07 39.788 41.36 13.579 13.295 24.681 24.743 24.67 25.439-0.01 0.697-3.694 2.391-8.184 3.764-19.607 5.998-37.926 21.588-87.55 74.51-38.683 41.25-56.37 55.38-71.05 56.713-3.736 0.342-7.227 0.19-7.758-0.329m27.89-76.53c9.581-2.769 11.09-3.783 23.974-16.16 13.359-12.827 25.862-29.383 37.03-49.04 5.268-9.27 5.02-12.41-1.074-13.822-2.195-0.508-10.988-3.943-19.541-7.632-31.776-13.706-41.998-15.12-56.906-7.878-11.02 5.355-36.797 20.645-45.15 26.781-3.465 2.547-8.457 5.381-11.09 6.298-2.635 0.917-5.101 2.445-5.48 3.395-0.937 2.35 15.922 29.11 24.25 38.491 8.06 9.08 19.489 17.64 27.18 20.351 7.962 2.807 15.09 2.598 26.804-0.788"/>
</svg>
