<?xml version="1.0" encoding="UTF-8" standalone="no"?>
<svg
   xmlns:dc="http://purl.org/dc/elements/1.1/"
   xmlns:cc="http://creativecommons.org/ns#"
   xmlns:rdf="http://www.w3.org/1999/02/22-rdf-syntax-ns#"
   xmlns:svg="http://www.w3.org/2000/svg"
   xmlns="http://www.w3.org/2000/svg"
   xmlns:sodipodi="http://sodipodi.sourceforge.net/DTD/sodipodi-0.dtd"
   xmlns:inkscape="http://www.inkscape.org/namespaces/inkscape"
   height="512"
   viewBox="0 0 512 512"
   width="512"
   version="1.1"
   id="svg2"
   inkscape:version="0.91 r13725"
   sodipodi:docname="evolution.svg">
  <defs
     id="defs17" />
  <sodipodi:namedview
     pagecolor="#ffffff"
     bordercolor="#666666"
     borderopacity="1"
     objecttolerance="10"
     gridtolerance="10"
     guidetolerance="10"
     inkscape:pageopacity="0"
     inkscape:pageshadow="2"
     inkscape:window-width="1920"
     inkscape:window-height="1020"
     id="namedview15"
     showgrid="false"
     inkscape:zoom="0.75262253"
     inkscape:cx="724.02034"
     inkscape:cy="-64.30073"
     inkscape:window-x="0"
     inkscape:window-y="0"
     inkscape:window-maximized="1"
     inkscape:current-layer="svg2" />
  <metadata
     id="metadata28">
    <rdf:RDF>
      <cc:Work
         rdf:about="">
        <dc:format>image/svg+xml</dc:format>
        <dc:type
           rdf:resource="http://purl.org/dc/dcmitype/StillImage" />
        <dc:title></dc:title>
      </cc:Work>
    </rdf:RDF>
  </metadata>
  <path
     style="fill:#BF9E73;fill-rule:evenodd;fill-opacity:1"
     inkscape:connector-curvature="0"
     d="m 471.95,253.05 c 0,120.9 -98.01,218.9 -218.9,218.9 -120.9,0 -218.9,-98.01 -218.9,-218.9 0,-120.9 98.01,-218.9 218.9,-218.9 120.9,0 218.9,98.01 218.9,218.9"
     id="path6" />
  <path
     style="fill-opacity:0.06700003;fill-rule:evenodd"
     inkscape:connector-curvature="0"
     d="M 256,1 C 115.17,1 1,115.17 1,256 1,396.83 115.17,511 256,511 396.83,511 511,396.83 511,256 511,115.17 396.83,1 256,1 m 8.827,44.931 c 120.9,0 218.9,98 218.9,218.9 0,120.9 -98,218.9 -218.9,218.9 -120.9,0 -218.93,-98 -218.93,-218.9 0,-120.9 98.03,-218.9 218.93,-218.9"
     id="path8" />
  <g
     style="fill-opacity:0.12900002;fill-rule:evenodd"
     id="g10">
    <path
       inkscape:connector-curvature="0"
       d="m 256,4.433 c -138.94,0 -251.57,112.63 -251.57,251.57 0,138.94 112.63,251.57 251.57,251.57 138.94,0 251.57,-112.63 251.57,-251.57 C 507.57,117.063 394.94,4.433 256,4.433 m 5.885,38.556 c 120.9,0 218.9,98 218.9,218.9 0,120.9 -98,218.9 -218.9,218.9 -120.9,0 -218.93,-98 -218.93,-218.9 0,-120.9 98.03,-218.9 218.93,-218.9"
       id="path12" />
    <path
       inkscape:connector-curvature="0"
       d="m 256,8.356 c -136.77,0 -247.64,110.87 -247.64,247.64 0,136.77 110.87,247.64 247.64,247.64 136.77,0 247.64,-110.87 247.64,-247.64 C 503.64,119.226 392.77,8.356 256,8.356 m 2.942,31.691 c 120.9,0 218.9,98 218.9,218.9 0,120.9 -98,218.9 -218.9,218.9 -120.9,0 -218.93,-98 -218.93,-218.9 0,-120.9 98.03,-218.9 218.93,-218.9"
       id="path14" />
  </g>
  <path
     inkscape:connector-curvature="0"
     style="opacity:0.25"
     id="path4190"
     d="m 190.68787,103.698 -21.4699,-0.78752 -0.33853,136.47557 -13.25095,-13.43572 -6.59433,18.69405 -2.48748,35.014 -6.93523,106.70419 157.03979,83.5113 C 376.90267,445.30374 455.80635,398.4806 474.15336,252.57781 L 462.71717,182.08257 340.26851,94.764047"
     sodipodi:nodetypes="ccccccccccc" />
  <g
     transform="matrix(8.8187428,0,0,8.8187428,47.807022,51.663972)"
     id="g4252">
    <path
       inkscape:connector-curvature="0"
       id="path41"
       d="m 33.968385,19.203728 0,6.428765 -21.690462,0 0,-6.163989 -1.969934,1.313289 0,15.492583 c 0,1.859075 0.0051,1.859786 1.933925,1.859786 l 0.0021,0 22.169176,0 c 1.927198,0 1.923335,1.71e-4 1.923335,-1.859786 l 0,-15.492583 -2.368158,-1.578065 z"
       style="fill:#ffffff;fill-opacity:1;fill-rule:nonzero;stroke:none" />
    <path
       inkscape:connector-curvature="0"
       id="path43-3"
       d="m 13.175396,4.8659479 0,20.0000001 20,0 0,-20.0000001 -20,0 z m 2.355469,2 7.289062,0 c 0.195,0 0.353516,0.160469 0.353516,0.355469 l 0,0.289062 c 0,0.195 -0.158516,0.3535163 -0.353516,0.3535163 l -7.289062,0 c -0.195,0 -0.355469,-0.1585163 -0.355469,-0.3535163 l 0,-0.289062 c 0,-0.195 0.160469,-0.355469 0.355469,-0.355469 z m 0,2.0000003 11.289062,0 c 0.195,0 0.353516,0.160469 0.353516,0.355469 l 0,0.289062 c 0,0.195 -0.158516,0.353516 -0.353516,0.353516 l -11.289062,0 c -0.195,0 -0.355469,-0.158516 -0.355469,-0.353516 l 0,-0.289062 c 0,-0.195 0.160469,-0.355469 0.355469,-0.355469 z m 0,1.9999998 15.289062,0 c 0.195,0 0.353516,0.160469 0.353516,0.355469 l 0,0.289062 c 0,0.195 -0.158516,0.353516 -0.353516,0.353516 l -15.289062,0 c -0.195,0 -0.355469,-0.158516 -0.355469,-0.353516 l 0,-0.289062 c 0,-0.195 0.160469,-0.355469 0.355469,-0.355469 z"
       style="fill:#ffffff;fill-opacity:1;fill-rule:nonzero;stroke:none" />
  </g>
  <path
     style="fill:#ffffff;fill-rule:evenodd;stroke:#000000;stroke-width:4.90399981;stroke-opacity:0.31000001"
     inkscape:connector-curvature="0"
     d="m 253.04,7.859 c -135.42,0 -245.19,109.78 -245.19,245.19 0,135.42 109.78,245.19 245.19,245.19 135.42,0 245.19,-109.78 245.19,-245.19 0,-135.42 -109.78,-245.19 -245.19,-245.19 z m 0,26.297 c 120.9,0 218.9,98 218.9,218.9 0,120.9 -98,218.9 -218.9,218.9 -120.9,0 -218.93,-98 -218.93,-218.9 0,-120.9 98.03,-218.9 218.93,-218.9 z"
     id="path16" />
</svg>
