<?xml version="1.0" encoding="UTF-8" standalone="no"?>
<svg xmlns="http://www.w3.org/2000/svg" height="512" viewBox="0 0 512 512" width="512" version="1.1" xmlns:xlink="http://www.w3.org/1999/xlink">
 <metadata id="metadata85"/>
 <defs id="defs4">
  <path id="0" fill="#fff" d="m21.812 1023h22.625l-8.813-8.813z"/>
 </defs>
 <path id="path7" d="m471.95 253.05c0 120.9-98.01 218.9-218.9 218.9-120.9 0-218.9-98.01-218.9-218.9 0-120.9 98.01-218.9 218.9-218.9 120.9 0 218.9 98.01 218.9 218.9" fill-rule="evenodd" fill="#BF9E73"/>
 <path id="path9" fill-opacity="0.235" d="m293.44 100.84-96.53 25.469 3.906 83.28-0.844-1.438-0.125 0.469-0.875-1.469-0.125 0.469-0.875-1.469-0.125 0.469-0.844-1.438-0.125 0.469-0.875-1.469-0.125 0.469-0.875-1.469-0.125 0.469-0.875-1.469-0.125 0.469-0.875-1.469-0.125 0.469-0.875-1.469-0.125 0.469-0.844-1.438-0.125 0.469-0.875-1.469-0.125 0.469-0.875-1.469-0.125 0.469-0.875-1.469-0.125 0.469-0.875-1.469-0.125 0.469-0.875-1.469-0.125 0.469-0.844-1.438-0.125 0.469-0.875-1.469-0.125 0.469-0.875-1.469-0.125 0.469-0.875-1.469-0.125 0.469-0.875-1.469-0.125 0.469-0.875-1.469-0.125 0.469-0.875-1.469-0.125 0.469-0.844-1.438-0.125 0.469-0.875-1.469-0.125 0.469-0.875-1.469-0.125 0.469-0.875-1.469-0.125 0.469-0.875-1.469-0.125 0.469-0.875-1.469-0.125 0.469-0.844-1.438-0.125 0.469-0.875-1.469-0.125 0.469-0.875-1.469-0.125 0.469-0.875-1.469-0.125 0.469-0.875-1.469-0.125 0.469-0.875-1.469-0.125 0.469-0.844-1.438-0.125 0.469-0.875-1.469-0.125 0.469-0.875-1.469-0.125 0.469-0.875-1.469-0.125 0.469-0.875-1.469-0.125 0.469-0.875-1.469-0.125 0.469-0.875-1.469-0.125 0.469-0.844-1.438-0.125 0.469-0.875-1.469-0.125 0.469-0.875-1.469-0.125 0.469-0.875-1.469-0.125 0.469-0.875-1.469-0.125 0.469-0.875-1.469-0.125 0.469-0.844-1.438-0.125 0.469-0.875-1.469-0.125 0.469-0.875-1.469-0.125 0.469-0.875-1.469-0.125 0.469-0.875-1.469-0.125 0.469-0.875-1.469-0.125 0.469-0.844-1.438-0.125 0.469-0.875-1.469-0.125 0.469-0.875-1.469-0.125 0.469-0.875-1.469-0.125 0.469-0.875-1.469-0.125 0.469-0.875-1.469-0.125 0.469-0.844-1.438-0.125 0.469-0.875-1.469-0.125 0.469-0.875-1.469-0.125 0.469-0.875-1.469-25.875 95.09 1.125 0.563-0.125 0.438 1.125 0.563-0.125 0.438 1.125 0.563-0.125 0.438 1.094 0.563-0.125 0.406 1.125 0.563-0.125 0.438 1.125 0.563-0.125 0.438 1.125 0.563-0.125 0.438 1.125 0.563-0.125 0.438 1.125 0.563-0.125 0.438 1.094 0.563-0.125 0.406 1.125 0.563-0.125 0.438 1.125 0.563-0.125 0.438 1.125 0.563-0.125 0.438 1.125 0.563-0.125 0.438 1.125 0.563-0.125 0.438 1.094 0.563-0.125 0.406 1.125 0.563-0.125 0.438 1.125 0.563-0.125 0.438 1.125 0.563-0.125 0.438 1.125 0.563-0.125 0.438 1.125 0.563-0.125 0.438 1.094 0.563-0.125 0.406 1.125 0.563-0.125 0.438 1.125 0.563-0.125 0.438 1.125 0.563-0.125 0.438 1.125 0.563-0.125 0.438 1.125 0.563-0.125 0.438 1.125 0.563-0.125 0.438 1.094 0.563-0.125 0.406 1.125 0.563-0.125 0.438 1.125 0.563-0.125 0.438 1.125 0.563-0.125 0.438 1.125 0.563-0.125 0.438 1.125 0.563-0.125 0.438 1.094 0.563-0.125 0.406 1.125 0.563-0.125 0.438 1.125 0.563-0.125 0.438 1.125 0.563-0.125 0.438 1.125 0.563-0.125 0.438 1.125 0.563-0.125 0.438 1.094 0.563-0.125 0.406 1.125 0.563-0.125 0.438 1.125 0.563-0.125 0.438 1.125 0.563-0.125 0.438 1.125 0.563-0.125 0.438 1.125 0.563-0.125 0.438 1.125 0.563-0.125 0.438 1.094 0.563-0.125 0.406 1.125 0.563-0.125 0.438 1.125 0.563-0.125 0.438 1.125 0.563-0.125 0.438 1.125 0.563-0.125 0.438 1.125 0.563-0.125 0.438 1.094 0.563-0.125 0.406 1.125 0.563-0.125 0.438 1.125 0.563-0.125 0.438 1.125 0.563-0.125 0.438 1.125 0.563-0.125 0.438 1.125 0.563-0.125 0.438 1.094 0.563-0.125 0.406 0.781 0.406h-72.03l3 3 1 0.969 1 1 1 1 1 1 1 1 1 1 0.969 0.969 1 1 1 1 1 1 1 1 1 1 0.969 0.969 1 1 1 1 1 1 1 1 1 1 0.969 0.969 1 1 1 1 1 1 1 1 1 1 1 1 0.969 0.969 1 1 1 1 1 1 1 1 1 1 0.969 0.969 1 1 1 1 1 1 1 1 1 1 0.969 0.969 1 1 1 1 1 1 1 1 1 1 1 1 0.969 0.969 1 1 1 1 1 1 1 1 1 1 0.969 0.969 1 1 1 1 1 1 1 1 1 1 0.969 0.969 1 1 1 1 1 1 1 1 1 1 0.969 0.969 1 1 1 1 1 1 1 1 1 1 1 1 0.969 0.969 1 1 1 1 1 1 1 1 1 1 0.969 0.969 1 1 1 1 1 1 1 1 1 1 0.969 0.969 1 1 1 1 1 1 1 1 1 1 1 1 0.969 0.969 1 1 1 1 1 1 1 1 1 1 0.969 0.969 1 1 1 1 1 1 1 1 1 1 0.969 0.969 1 1 1 1 1 1 1 1 1 1 0.969 0.969 1 1 1 1 1 1 1 1 1 1 1 1 0.969 0.969 1 1 1 1 1 1 1 1 1 1 0.969 0.969 1 1 1 1 1 1 1 1 1 1 0.969 0.969 1 1 1 1 1 1 1 1 1 1 1 1 0.969 0.969 1 1 1 1 1 1 1 1 1 1 0.969 0.969 1 1 1 1 1 1 1 1 1 1 0.969 0.969 1 1 1 1 1 1 1 1 1 1 0.969 0.969 1 1 1 1 1 1 1 1 1 1 1 1 0.969 0.969 1 1 1 1 1 1 1 1 1 1 0.969 0.969 1 1 1 1 1 1 0.438 0.438c107.01-8.433 192.38-93.79 200.78-200.81l-0.406-0.406-0.969-0.969-1-1-1-1-1-1-1-1-1-1-0.969-0.969-1-1-1-1-1-1-1-1-1-1-0.969-0.969-1-1-1-1-1-1-1-1-1-1-1-1-0.969-0.969-1-1-1-1-1-1-1-1-1-1-0.969-0.969-1-1-1-1-1-1-1-1-1-1-0.969-0.969-1-1-1-1-1-1-1-1-1-1-1-1-0.969-0.969-1-1-1-1-1-1-1-1-1-1-0.969-0.969-1-1-1-1-1-1-1-1-1-1-0.969-0.969-1-1-1-1-1-1-1-1-1-1-0.969-0.969-1-1-1-1-1-1-69.66-68.59-1-1-4.813 3-1.344 0.375 0.875-1.5-1.875 0.5 0.875-1.5-1.813 0.469 0.844-1.438-1.875 0.5 0.875-1.5-1.875 0.5 0.875-1.5-1.875 0.5 0.875-1.5-1.875 0.5 0.875-1.5-1.875 0.5 0.875-1.5-1.813 0.469 0.844-1.438-1.875 0.5 0.875-1.5-1.875 0.5 0.875-1.5-1.875 0.5 0.875-1.5-1.875 0.5 0.875-1.5-1.875 0.5 0.875-1.5-1.813 0.469 0.844-1.438-1.875 0.5 0.875-1.5-1.875 0.5 0.875-1.5-1.875 0.5 0.875-1.5-1.875 0.5 0.875-1.5-1.875 0.5 0.875-1.5-1.875 0.5 0.875-1.5-1.813 0.469 0.844-1.438-1.875 0.5 0.875-1.5-1.875 0.5 0.875-1.5-1.875 0.5 0.875-1.5-1.875 0.5 0.875-1.5-1.875 0.5 0.875-1.5-1.813 0.469 0.844-1.438-1.875 0.5 0.875-1.5-1.875 0.5 0.875-1.5-1.875 0.5 0.875-1.5-1.875 0.5 0.875-1.5-1.875 0.5 0.875-1.5-1.813 0.469 0.844-1.438-1.875 0.5 0.875-1.5-1.875 0.5 0.875-1.5-1.875 0.5 0.875-1.5-1.875 0.5 0.875-1.5-1.875 0.5 0.875-1.5-1.813 0.469 0.844-1.438-1.875 0.5 0.875-1.5-1.875 0.5 0.875-1.5-1.875 0.5 0.875-1.5"/>
 <g id="g11" fill-rule="evenodd">
  <path id="path13" fill-opacity="0.067" d="m256 1c-140.83 0-255 114.17-255 255s114.17 255 255 255 255-114.17 255-255-114.17-255-255-255m8.827 44.931c120.9 0 218.9 98 218.9 218.9s-98 218.9-218.9 218.9-218.93-98-218.93-218.9 98.03-218.9 218.93-218.9"/>
  <g id="g15" fill-opacity="0.129">
   <path id="path17" d="m256 4.433c-138.94 0-251.57 112.63-251.57 251.57s112.63 251.57 251.57 251.57 251.57-112.63 251.57-251.57-112.63-251.57-251.57-251.57m5.885 38.556c120.9 0 218.9 98 218.9 218.9s-98 218.9-218.9 218.9-218.93-98-218.93-218.9 98.03-218.9 218.93-218.9"/>
   <path id="path19" d="m256 8.356c-136.77 0-247.64 110.87-247.64 247.64s110.87 247.64 247.64 247.64 247.64-110.87 247.64-247.64-110.87-247.64-247.64-247.64m2.942 31.691c120.9 0 218.9 98 218.9 218.9s-98 218.9-218.9 218.9-218.93-98-218.93-218.9 98.03-218.9 218.93-218.9"/>
  </g>
  <path id="path21" d="m253.04 7.859c-135.42 0-245.19 109.78-245.19 245.19 0 135.42 109.78 245.19 245.19 245.19 135.42 0 245.19-109.78 245.19-245.19 0-135.42-109.78-245.19-245.19-245.19zm0 26.297c120.9 0 218.9 98 218.9 218.9s-98 218.9-218.9 218.9-218.93-98-218.93-218.9 98.03-218.9 218.93-218.9z" stroke-opacity="0.31" stroke="#000" stroke-width="4.904" fill="#fff"/>
 </g>
 <path id="path69" d="m28.875 24.625c0 2.554-2.071 4.625-4.625 4.625s-4.625-2.071-4.625-4.625 2.071-4.625 4.625-4.625 4.625 2.071 4.625 4.625" fill="#fff" transform="matrix(6.4109 0 0 6.314 99.66 99.58)"/>
 <use id="use71" xlink:href="#0" transform="matrix(8.0204 0 0 7.899 54.764 -7870.2)" height="1" width="1"/>
 <use id="use73" xlink:href="#0" transform="matrix(4.0102 -6.8408 6.9458 3.9495 -6990.2 -3635.5)" height="1" width="1"/>
 <use id="use75" xlink:href="#0" transform="matrix(-4.0102 -6.8408 6.9458 -3.9495 -6789 4490.8)" height="1" width="1"/>
 <use id="use77" xlink:href="#0" transform="matrix(-8.0204 0 0 -7.899 457.24 8382.2)" height="1" width="1"/>
 <use id="use79" xlink:href="#0" transform="matrix(-4.0102 6.8408 -6.9458 -3.9495 7502.2 4147.5)" height="1" width="1"/>
 <use id="use81" xlink:href="#0" transform="matrix(4.0102 6.8408 -6.9458 3.9495 7301 -3978.8)" height="1" width="1"/>
</svg>
