<?xml version="1.0" encoding="UTF-8" standalone="no"?>
<svg xmlns="http://www.w3.org/2000/svg" height="512" viewBox="0 0 512 512" width="512" version="1.1">
 <metadata id="metadata74"/>
 <g id="g4" transform="translate(0,-540.36)">
  <g id="g6" fill-rule="evenodd">
   <path id="path8" fill="#BF9E73" d="m471.95 793.41c0 120.9-98.01 218.9-218.9 218.9-120.9 0-218.9-98.01-218.9-218.9 0-120.9 98.01-218.9 218.9-218.9 120.9 0 218.9 98.01 218.9 218.9"/>
   <path id="path10" d="m181.56 133.75-46.5 219.41h1.188l-0.219 0.969h1.219l-0.219 1h1.219l-0.219 1h1.219l-0.219 1h1.219l-0.219 1h1.219l-0.219 1h1.219l-0.219 0.969h1.188l-0.219 1h1.219l-0.219 1h1.219l-0.219 1h1.219l-0.219 1h1.219l-0.219 1h1.219l-0.219 1h1.188l-0.219 0.969h1.219l-0.219 1h1.219l-0.219 1h1.219l-0.219 1h1.219l-0.219 1h1.219l-0.219 1h1.188l-0.219 0.969h1.219l-0.219 1h1.219l-0.219 1h1.219l-0.219 1h1.219l-0.219 1h1.219l-0.219 1h1.219l-0.219 0.969h1.188l-0.219 1h1.219l-0.219 1h1.219l-0.219 1h1.219l-0.219 1h1.219l-0.219 1h1.219l-0.219 0.969h1.188l-0.219 1h1.219l-0.219 1h1.219l-0.219 1h1.219l-0.219 1h1.219l-0.219 1h1.219l-0.219 1h1.188l-0.219 0.969h1.219l-0.219 1h1.219l-0.219 1h1.219l-0.219 1h1.219l-0.219 1h1.219l-0.219 1h1.188l-0.219 0.969h1.219l-0.219 1h1.219l-0.219 1h1.219l-0.219 1h1.219l-0.219 1h1.219l-0.219 1h1.219l-0.219 0.969h1.18l-0.219 1h1.22l-0.219 1h1.22l-0.219 1h1.22l-0.219 1h1.22l-0.219 1h1.22l-0.219 1h1.188l-0.219 0.969h1.219l-0.219 1h1.219l-0.219 1h1.219l-0.219 1h1.219l-0.219 1h1.219l-0.219 1h1.188l-0.219 0.969h1.219l-0.219 1h1.219l-0.219 1h1.219l-0.219 1h1.219l-0.219 1h1.219l-0.219 1h1.188l-0.219 0.969h1.219l-0.219 1h1.219l-0.219 1h1.219l-0.219 1h1.219l-0.219 1h1.219l-0.219 1h1.219l-0.219 0.969h1.188l-0.219 1h1.219l-0.219 1h1.219l-0.219 1h1.219l-0.219 1h1.219l-0.219 1h1.219l-0.219 1h1.188l-0.219 0.969h1.219l-0.219 1h1.219l-0.219 1h1.219l-0.219 1h1.219l-0.219 1h1.219l-0.219 1h1.188l-0.219 0.969h1.219l-0.219 1h1.219l-0.219 1h1.219l-0.219 1h1.219l-0.219 1h1.219l-0.219 1h1.219l-0.219 0.969h1.188l-0.219 1h1.219l-0.219 1h1.219l-0.219 1h1.219l-0.219 1h1.219l-0.219 1h1.219l-0.219 1h1.188l-0.219 0.969h1.219l-0.219 1h1.219l-0.219 1h1.219l-0.219 1h1.219l-0.219 1h1.219l-0.219 1h1.188l-0.219 0.969h1.219l-0.219 1h1.219l-0.219 1h1.219l-0.219 1h1.219l-0.219 1h1.219l-0.219 1h1.188l-0.219 0.969h1.219l-0.219 1h1.219l-0.219 1h1.219l-0.219 1h1.219l-0.219 1h1.219l-0.219 1h1.219l-0.094 0.375c112.43-0.787 204.73-86.32 216.16-195.91h-0.375c0.009-0.044 0.219-1 0.219-1h-1.219c0.009-0.042 0.219-0.969 0.219-0.969h-1.219l0.219-1h-1.188l0.219-1h-1.219c0.009-0.044 0.219-1 0.219-1h-1.219c0.009-0.044 0.219-1 0.219-1h-1.219c0.009-0.044 0.219-1 0.219-1h-1.219c0.009-0.042 0.219-0.969 0.219-0.969h-1.219l0.219-1h-1.219c0.009-0.044 0.219-1 0.219-1h-1.188c0.009-0.044 0.219-1 0.219-1h-1.219c0.009-0.044 0.219-1 0.219-1h-1.219c0.009-0.044 0.219-1 0.219-1h-1.219c0.009-0.042 0.219-0.969 0.219-0.969h-1.219l0.219-1h-1.219c0.009-0.044 0.219-1 0.219-1h-1.188c0.009-0.044 0.219-1 0.219-1h-1.219c0.009-0.044 0.219-1 0.219-1h-1.219c0.009-0.044 0.219-1 0.219-1h-1.219l0.219-1h-1.219c0.009-0.042 0.219-0.969 0.219-0.969h-1.219c0.009-0.044 0.219-1 0.219-1h-1.188c0.009-0.044 0.219-1 0.219-1h-1.219c0.009-0.044 0.219-1 0.219-1h-1.219c0.009-0.044 0.219-1 0.219-1h-1.219l0.219-1h-1.219c0.009-0.042 0.219-0.969 0.219-0.969h-1.219c0.009-0.044 0.219-1 0.219-1h-1.219c0.009-0.044 0.219-1 0.219-1h-1.188c0.009-0.044 0.219-1 0.219-1h-1.219l0.219-1h-1.219l0.219-1h-1.219c0.009-0.042 0.219-0.969 0.219-0.969h-1.219c0.009-0.044 0.219-1 0.219-1h-1.219c0.009-0.044 0.219-1 0.219-1h-1.188c0.009-0.044 0.219-1 0.219-1h-1.219l0.219-1h-1.219c0.009-0.044 0.219-1 0.219-1h-1.219c0.009-0.042 0.219-0.969 0.219-0.969h-1.219c0.009-0.044 0.219-1 0.219-1h-1.219c0.009-0.044 0.219-1 0.219-1h-1.188c0.009-0.044 0.219-1 0.219-1h-1.219l0.219-1h-1.219c0.009-0.044 0.219-1 0.219-1h-1.219c0.009-0.044 0.219-1 0.219-1h-1.219c0.009-0.042 0.219-0.969 0.219-0.969h-1.219c0.009-0.044 0.219-1 0.219-1h-1.188l0.219-1h-1.219l0.219-1h-1.219c0.009-0.044 0.219-1 0.219-1h-1.219c0.009-0.044 0.219-1 0.219-1h-1.219c0.009-0.042 0.219-0.969 0.219-0.969h-1.219c0.009-0.044 0.219-1 0.219-1h-1.219c0.009-0.044 0.219-1 0.219-1h-1.188c0.009-0.044 0.219-1 0.219-1h-1.219c0.009-0.044 0.219-1 0.219-1h-1.219c0.009-0.044 0.219-1 0.219-1h-1.219c0.009-0.042 0.219-0.969 0.219-0.969h-1.219l0.219-1h-1.219l0.219-1h-1.188c0.009-0.044 0.219-1 0.219-1h-1.219c0.009-0.044 0.219-1 0.219-1h-1.219c0.009-0.044 0.219-1 0.219-1h-1.219c0.009-0.044 0.219-1 0.219-1h-1.219l0.219-0.969h-1.219c0.009-0.044 0.219-1 0.219-1h-1.188c0.009-0.044 0.219-1 0.219-1h-1.219c0.009-0.044 0.219-1 0.219-1h-1.219c0.009-0.044 0.219-1 0.219-1h-1.219c0.009-0.044 0.219-1 0.219-1h-1.219c0.009-0.042 0.219-0.969 0.219-0.969h-1.219c0.009-0.044 0.219-1 0.219-1h-1.219c0.009-0.044 0.219-1 0.219-1h-1.188c0.009-0.044 0.219-1 0.219-1h-1.219c0.009-0.044 0.219-1 0.219-1h-1.219l0.219-1h-1.219c0.009-0.042 0.219-0.969 0.219-0.969h-1.219c0.009-0.044 0.219-1 0.219-1h-1.219c0.009-0.044 0.219-1 0.219-1h-1.188c0.009-0.044 0.219-1 0.219-1h-1.219l0.219-1h-1.219l0.219-1h-1.219c0.009-0.042 0.219-0.969 0.219-0.969h-1.219c0.009-0.044 0.219-1 0.219-1h-1.219c0.009-0.044 0.219-1 0.219-1h-1.188c0.009-0.044 0.219-1 0.219-1h-1.219c0.009-0.044 0.219-1 0.219-1h-1.219c0.009-0.044 0.219-1 0.219-1h-1.219c0.009-0.044 0.219-1 0.219-1h-1.219c0.009-0.042 0.219-0.969 0.219-0.969h-1.219c0.009-0.044 0.219-1 0.219-1h-1.188c0.009-0.044 0.219-1 0.219-1h-1.219c0.009-0.044 0.219-1 0.219-1h-1.219c0.009-0.044 0.219-1 0.219-1h-1.219c0.009-0.044 0.219-1 0.219-1h-1.219c0.009-0.042 0.219-0.969 0.219-0.969h-1.219c0.009-0.044 0.219-1 0.219-1h-1.219c0.009-0.044 0.219-1 0.219-1h-1.188l0.219-1h-1.219c0.009-0.044 0.219-1 0.219-1h-1.219c0.009-0.044 0.219-1 0.219-1h-1.219c0.009-0.042 0.219-0.969 0.219-0.969h-1.219c0.009-0.044 0.219-1 0.219-1h-1.219c0.009-0.044 0.219-1 0.219-1h-1.188c0.009-0.044 0.219-1 0.219-1h-1.219c0.009-0.044 0.219-1 0.219-1h-1.219c0.009-0.044 0.219-1 0.219-1h-1.219c0.009-0.044 0.219-1 0.219-1h-1.219c0.009-0.042 0.219-0.969 0.219-0.969h-1.219l0.219-1h-1.188c0.009-0.044 0.219-1 0.219-1h-1.219c0.009-0.044 0.219-1 0.219-1h-1.219c0.009-0.044 0.219-1 0.219-1h-1.219c0.009-0.044 0.219-1 0.219-1h-1.219c0.009-0.042 0.219-0.969 0.219-0.969h-1.219c0.009-0.044 0.219-1 0.219-1h-1.219c0.009-0.044 0.219-1 0.219-1h-1.188c0.009-0.044 0.219-1 0.219-1h-1.219c0.009-0.044 0.219-1 0.219-1h-1.219c0.009-0.044 0.219-1 0.219-1h-1.219c0.009-0.042 0.219-0.969 0.219-0.969h-1.219c0.009-0.044 0.219-1 0.219-1h-1.219c0.009-0.044 0.219-1 0.219-1h-1.188c0.009-0.044 0.219-1 0.219-1h-1.219c0.009-0.044 0.219-1 0.219-1h-1.219c0.009-0.044 0.219-1 0.219-1h-1.219c0.009-0.042 0.219-0.969 0.219-0.969h-1.219c0.009-0.044 0.219-1 0.219-1h-1.219c0.009-0.044 0.219-1 0.219-1h-1.188c0.009-0.044 0.219-1 0.219-1h-1.219c0.009-0.044 0.219-1 0.219-1h-1.219c0.009-0.044 0.219-1 0.219-1h-1.219c0.009-0.044 0.219-1 0.219-1h-1.219c0.009-0.042 0.219-0.969 0.219-0.969h-1.219c0.009-0.044 0.219-1 0.219-1h-1.188c0.009-0.044 0.219-1 0.219-1h-1.219c0.009-0.044 0.219-1 0.219-1h-1.219c0.009-0.044 0.219-1 0.219-1h-1.219c0.009-0.044 0.219-1 0.219-1h-1.219c0.009-0.042 0.219-0.969 0.219-0.969h-1.219c0.009-0.044 0.219-1 0.219-1h-1.219l0.219-1h-1.188l0.219-1h-147.75" fill-opacity="0.235" transform="translate(0,540.36)"/>
   <path id="path12" fill-opacity="0.067" d="m256 541.36c-140.83 0-255 114.17-255 255s114.17 255 255 255 255-114.17 255-255-114.17-255-255-255m8.827 44.931c120.9 0 218.9 98 218.9 218.9s-98 218.9-218.9 218.9-218.93-98-218.93-218.9 98.03-218.9 218.93-218.9"/>
   <g id="g14" fill-opacity="0.129">
    <path id="path16" d="m256 544.79c-138.94 0-251.57 112.63-251.57 251.57s112.63 251.54 251.57 251.54 251.57-112.6 251.57-251.54-112.63-251.57-251.57-251.57m5.885 38.556c120.9 0 218.9 98 218.9 218.9s-98 218.9-218.9 218.9-218.93-98-218.93-218.9 98.03-218.9 218.93-218.9"/>
    <path id="path18" d="m256 548.72c-136.77 0-247.64 110.87-247.64 247.64s110.87 247.64 247.64 247.64 247.64-110.87 247.64-247.64-110.87-247.64-247.64-247.64m2.942 31.691c120.9 0 218.9 98 218.9 218.9s-98 218.9-218.9 218.9-218.93-98-218.93-218.9 98.03-218.9 218.93-218.9"/>
   </g>
   <path id="path20" d="m253.04 548.22c-135.42 0-245.19 109.78-245.19 245.19 0 135.42 109.78 245.19 245.19 245.19 135.42 0 245.19-109.78 245.19-245.19 0-135.42-109.78-245.19-245.19-245.19zm0 26.297c120.9 0 218.9 98 218.9 218.9s-98 218.9-218.9 218.9-218.93-98-218.93-218.9 98.03-218.9 218.93-218.9z" stroke-opacity="0.31" stroke="#000" stroke-width="4.904" fill="#fff"/>
  </g>
  <path id="path68" d="m181.56 674.11-46.51 219.39h44.647l20.42-95.88h107.08l-93.06 92.11 16.358 28.874c7.542-5.03 19.801-5.636 28.29-5.636 15.09 0 29.872 5.05 45.27 5.05 14.12 0 28.536-0.944 52.11-12.26l8.271-38.682c-16.03 6.598-39.752 12.882-60.38 12.882-8.481 0-16.347-1.89-24.519-3.147l90.17-87.68 7.246-29.533h-168.64l8.783-41.17h102.8l9.405-44.32h-147.74" fill-rule="evenodd" fill="#fff"/>
 </g>
</svg>
