<?xml version="1.0" encoding="UTF-8" standalone="no"?>
<svg xmlns="http://www.w3.org/2000/svg" viewBox="0 0 512 512">
 <text font-size="129.23" y="231.36" x="729.64" font-family="&apos;Gentium Book Basic&apos;" line-height="125%" word-spacing="0" letter-spacing="0"><tspan y="231.36" x="729.64"/>
 </text>
 <text transform="scale(4.0128.2492)" font-size="46.954" y="579.26" x="378.91" font-family="Arial" text-anchor="middle"/>
 <text font-size="129.23" y="151.36" x="1310.91" font-family="&apos;Gentium Book Basic&apos;" line-height="125%" word-spacing="0" letter-spacing="0"><tspan y="151.36" x="1310.91"/>
 </text>
 <text transform="scale(4.0128.2492)" font-size="46.954" y="258.22" x="523.76" font-family="Arial" text-anchor="middle"/>
 <text font-size="129.23" y="-29.9" x="239.33" font-family="&apos;Gentium Book Basic&apos;" line-height="125%" word-spacing="0" letter-spacing="0"><tspan y="-29.9" x="239.33"/>
 </text>
 <text transform="scale(4.0128.2492)" font-size="46.954" y="-469.13" x="256.72" font-family="Arial" text-anchor="middle"/>
 <text font-size="129.23" y="-246.37" x="1337.38" font-family="&apos;Gentium Book Basic&apos;" line-height="125%" word-spacing="0" letter-spacing="0"><tspan y="-246.37" x="1337.38"/>
 </text>
 <text transform="scale(4.0128.2492)" font-size="46.954" y="-1337.8" x="530.36" font-family="Arial" text-anchor="middle"/>
 <text font-size="129.23" y="-326.37" x="1918.65" font-family="&apos;Gentium Book Basic&apos;" line-height="125%" word-spacing="0" letter-spacing="0"><tspan y="-326.37" x="1918.65"/>
 </text>
 <text transform="scale(4.0128.2492)" font-size="46.954" y="-1658.83" x="675.21" font-family="Arial" text-anchor="middle"/>
 <text font-size="129.23" y="-798.77" x="1529.53" font-family="&apos;Gentium Book Basic&apos;" line-height="125%" word-spacing="0" letter-spacing="0"><tspan y="-798.77" x="1529.53"/>
 </text>
 <text transform="scale(4.0128.2492)" font-size="46.954" y="-3554.48" x="578.24" font-family="Arial" text-anchor="middle"/>
 <text font-size="129.23" y="-878.78" x="2110.79" font-family="&apos;Gentium Book Basic&apos;" line-height="125%" word-spacing="0" letter-spacing="0"><tspan y="-878.78" x="2110.79"/>
 </text>
 <text transform="scale(4.0128.2492)" font-size="46.954" y="-3875.52" x="723.09" font-family="Arial" text-anchor="middle"/>
 <g font-family="&apos;Gentium Book Basic&apos;" line-height="125%" word-spacing="0" letter-spacing="0">
  <text y="535.94" x="277.99" font-size="208.33"><tspan y="535.94" x="277.99"/>
  </text>
  <text y="231.36" x="729.64" font-size="129.23"><tspan y="231.36" x="729.64"/>
  </text>
 </g>
 <text transform="scale(4.0128.2492)" font-size="46.954" y="579.26" x="378.91" font-family="Arial" text-anchor="middle"/>
 <text font-size="129.23" y="151.36" x="1310.91" font-family="&apos;Gentium Book Basic&apos;" line-height="125%" word-spacing="0" letter-spacing="0"><tspan y="151.36" x="1310.91"/>
 </text>
 <text transform="scale(4.0128.2492)" font-size="46.954" y="258.22" x="523.76" font-family="Arial" text-anchor="middle"/>
 <text font-size="129.23" y="-29.9" x="239.33" font-family="&apos;Gentium Book Basic&apos;" line-height="125%" word-spacing="0" letter-spacing="0"><tspan y="-29.9" x="239.33"/>
 </text>
 <text transform="scale(4.0128.2492)" font-size="46.954" y="-469.13" x="256.72" font-family="Arial" text-anchor="middle"/>
 <text font-size="129.23" y="-246.37" x="1337.38" font-family="&apos;Gentium Book Basic&apos;" line-height="125%" word-spacing="0" letter-spacing="0"><tspan y="-246.37" x="1337.38"/>
 </text>
 <text transform="scale(4.0128.2492)" font-size="46.954" y="-1337.8" x="530.36" font-family="Arial" text-anchor="middle"/>
 <text font-size="129.23" y="-326.37" x="1918.65" font-family="&apos;Gentium Book Basic&apos;" line-height="125%" word-spacing="0" letter-spacing="0"><tspan y="-326.37" x="1918.65"/>
 </text>
 <text transform="scale(4.0128.2492)" font-size="46.954" y="-1658.83" x="675.21" font-family="Arial" text-anchor="middle"/>
 <text font-size="129.23" y="-798.77" x="1529.53" font-family="&apos;Gentium Book Basic&apos;" line-height="125%" word-spacing="0" letter-spacing="0"><tspan y="-798.77" x="1529.53"/>
 </text>
 <text transform="scale(4.0128.2492)" font-size="46.954" y="-3554.48" x="578.24" font-family="Arial" text-anchor="middle"/>
 <text font-size="129.23" y="-878.78" x="2110.79" font-family="&apos;Gentium Book Basic&apos;" line-height="125%" word-spacing="0" letter-spacing="0"><tspan y="-878.78" x="2110.79"/>
 </text>
 <text transform="scale(4.0128.2492)" font-size="46.954" y="-3875.52" x="723.09" font-family="Arial" text-anchor="middle"/>
 <g font-family="&apos;Gentium Book Basic&apos;" line-height="125%" word-spacing="0" letter-spacing="0">
  <text y="535.94" x="277.99" font-size="208.33"><tspan y="535.94" x="277.99"/>
  </text>
  <text y="272.59" x="1722.37" font-size="129.23"><tspan y="272.59" x="1722.37"/>
  </text>
 </g>
 <text transform="scale(4.0128.2492)" font-size="46.954" y="744.7" x="626.3" font-family="Arial" text-anchor="middle"/>
 <text font-size="129.23" y="192.59" x="2303.64" font-family="&apos;Gentium Book Basic&apos;" line-height="125%" word-spacing="0" letter-spacing="0"><tspan y="192.59" x="2303.64"/>
 </text>
 <text transform="scale(4.0128.2492)" font-size="46.954" y="423.67" x="771.15" font-family="Arial" text-anchor="middle"/>
 <text font-size="129.23" y="11.33" x="1232.06" font-family="&apos;Gentium Book Basic&apos;" line-height="125%" word-spacing="0" letter-spacing="0"><tspan y="11.33" x="1232.06"/>
 </text>
 <text transform="scale(4.0128.2492)" font-size="46.954" y="-303.68" x="504.11" font-family="Arial" text-anchor="middle"/>
 <text font-size="129.23" y="-205.14" x="2330.11" font-family="&apos;Gentium Book Basic&apos;" line-height="125%" word-spacing="0" letter-spacing="0"><tspan y="-205.14" x="2330.11"/>
 </text>
 <text transform="scale(4.0128.2492)" font-size="46.954" y="-1172.35" x="777.75" font-family="Arial" text-anchor="middle"/>
 <text font-size="129.23" y="-285.15" x="2911.38" font-family="&apos;Gentium Book Basic&apos;" line-height="125%" word-spacing="0" letter-spacing="0"><tspan y="-285.15" x="2911.38"/>
 </text>
 <text transform="scale(4.0128.2492)" font-size="46.954" y="-1493.39" x="922.6" font-family="Arial" text-anchor="middle"/>
 <text font-size="129.23" y="-757.55" x="2522.26" font-family="&apos;Gentium Book Basic&apos;" line-height="125%" word-spacing="0" letter-spacing="0"><tspan y="-757.55" x="2522.26"/>
 </text>
 <text transform="scale(4.0128.2492)" font-size="46.954" y="-3389.04" x="825.63" font-family="Arial" text-anchor="middle"/>
 <text font-size="129.23" y="-837.55" x="3103.52" font-family="&apos;Gentium Book Basic&apos;" line-height="125%" word-spacing="0" letter-spacing="0"><tspan y="-837.55" x="3103.52"/>
 </text>
 <text transform="scale(4.0128.2492)" font-size="46.954" y="-3710.07" x="970.48" font-family="Arial" text-anchor="middle"/>
 <g font-family="&apos;Gentium Book Basic&apos;" line-height="125%" word-spacing="0" letter-spacing="0">
  <text y="577.17" x="1270.72" font-size="208.33"><tspan y="577.17" x="1270.72"/>
  </text>
  <text y="231.36" x="729.64" font-size="129.23"><tspan y="231.36" x="729.64"/>
  </text>
 </g>
 <text transform="scale(4.0128.2492)" font-size="46.954" y="579.25" x="378.91" font-family="Arial" text-anchor="middle"/>
 <text font-size="129.23" y="151.36" x="1310.91" font-family="&apos;Gentium Book Basic&apos;" line-height="125%" word-spacing="0" letter-spacing="0"><tspan y="151.36" x="1310.91"/>
 </text>
 <text transform="scale(4.0128.2492)" font-size="46.954" y="258.22" x="523.76" font-family="Arial" text-anchor="middle"/>
 <text font-size="129.23" y="-29.901" x="239.33" font-family="&apos;Gentium Book Basic&apos;" line-height="125%" word-spacing="0" letter-spacing="0"><tspan y="-29.901" x="239.33"/>
 </text>
 <text transform="scale(4.0128.2492)" font-size="46.954" y="-469.14" x="256.72" font-family="Arial" text-anchor="middle"/>
 <text font-size="129.23" y="-246.37" x="1337.38" font-family="&apos;Gentium Book Basic&apos;" line-height="125%" word-spacing="0" letter-spacing="0"><tspan y="-246.37" x="1337.38"/>
 </text>
 <text transform="scale(4.0128.2492)" font-size="46.954" y="-1337.8" x="530.36" font-family="Arial" text-anchor="middle"/>
 <text font-size="129.23" y="-326.38" x="1918.65" font-family="&apos;Gentium Book Basic&apos;" line-height="125%" word-spacing="0" letter-spacing="0"><tspan y="-326.38" x="1918.65"/>
 </text>
 <text transform="scale(4.0128.2492)" font-size="46.954" y="-1658.84" x="675.21" font-family="Arial" text-anchor="middle"/>
 <text font-size="129.23" y="-798.78" x="1529.53" font-family="&apos;Gentium Book Basic&apos;" line-height="125%" word-spacing="0" letter-spacing="0"><tspan y="-798.78" x="1529.53"/>
 </text>
 <text transform="scale(4.0128.2492)" font-size="46.954" y="-3554.49" x="578.24" font-family="Arial" text-anchor="middle"/>
 <text font-size="129.23" y="-878.78" x="2110.79" font-family="&apos;Gentium Book Basic&apos;" line-height="125%" word-spacing="0" letter-spacing="0"><tspan y="-878.78" x="2110.79"/>
 </text>
 <text transform="scale(4.0128.2492)" font-size="46.954" y="-3875.52" x="723.09" font-family="Arial" text-anchor="middle"/>
 <g font-family="&apos;Gentium Book Basic&apos;" line-height="125%" word-spacing="0" letter-spacing="0">
  <text y="535.94" x="277.99" font-size="208.33"><tspan y="535.94" x="277.99"/>
  </text>
  <text y="1377.33" x="-26569.5" font-size="4848.4"><tspan y="1377.33" x="-26569.5"/>
  </text>
 </g>
 <text transform="scale(4.0128.2492)" font-size="1761.7" y="-7573.02" x="773.15" font-family="Arial" text-anchor="middle"/>
 <text font-size="4848.4" y="2289.39" x="-26704.25" font-family="&apos;Gentium Book Basic&apos;" line-height="125%" word-spacing="0" letter-spacing="0"><tspan y="2289.39" x="-26704.25"/>
 </text>
 <text transform="scale(4.0128.2492)" font-size="1761.7" y="-3913.17" x="739.61" font-family="Arial" text-anchor="middle"/>
 <g fill="#BF9E73">
  <text transform="scale(1.05082.95163)" font-size="2976.1" y="-4757.27" x="-12267.45" font-family="&apos;Gentium Book Basic&apos;" line-height="125%" word-spacing="0" letter-spacing="0"><tspan y="-4757.27" x="-12267.45"/>
  </text>
  <text transform="scale(4.21677.23715)" font-size="1081.5" y="-27131.37" x="1481.85" font-family="Arial" text-anchor="middle"/>
  <text transform="scale(1.05082.95163)" font-size="1593.2" y="-5582.29" x="-2864.61" font-family="&apos;Gentium Book Basic&apos;" line-height="125%" word-spacing="0" letter-spacing="0"><tspan y="-5582.29" x="-2864.61"/>
  </text>
  <text transform="scale(4.21677.23715)" font-size="578.89" y="-26705.24" x="1715.95" font-family="Arial" text-anchor="middle"/>
  <text font-size="4654.6" y="-1736.32" x="-38904.05" font-family="&apos;Gentium Book Basic&apos;" line-height="125%" word-spacing="0" letter-spacing="0"><tspan y="-1736.32" x="-38904.05"/>
  </text>
  <text transform="scale(4.0128.2492)" font-size="1691.2" y="-19543.06" x="-2596.26" font-family="Arial" text-anchor="middle"/>
 </g>
 <text stroke-width="23.273" font-size="4848.4" stroke="#cd1d31" y="-13962.89" x="-24720.95" font-family="&apos;Gentium Book Basic&apos;" line-height="125%" word-spacing="0" letter-spacing="0"><tspan y="-13962.89" x="-24720.95"/>
 </text>
 <text transform="scale(4.0128.2492)" font-size="1761.7" y="-69130.72" x="1233.94" font-family="Arial" text-anchor="middle"/>
 <text stroke-width="23.273" font-size="4848.4" stroke="#cd1d31" y="-13050.83" x="-24855.93" font-family="&apos;Gentium Book Basic&apos;" line-height="125%" word-spacing="0" letter-spacing="0"><tspan y="-13050.83" x="-24855.93"/>
 </text>
 <text transform="scale(4.0128.2492)" font-size="1761.7" y="-65470.63" x="1200.27" font-family="Arial" text-anchor="middle"/>
 <g fill="#BF9E73">
  <g stroke="#cd1d31" stroke-width="23.273">
   <text transform="scale(1.05082.95163)" font-size="2976.1" y="-20877.06" x="-10508.27" font-family="&apos;Gentium Book Basic&apos;" line-height="125%" word-spacing="0" letter-spacing="0"><tspan y="-20877.06" x="-10508.27"/>
   </text>
   <text transform="scale(4.21677.23715)" font-size="1081.5" y="-91818.3" x="1920.29" font-family="Arial" text-anchor="middle"/>
   <text transform="scale(1.05082.95163)" font-size="1593.2" y="-21702.08" x="-1105.66" font-family="&apos;Gentium Book Basic&apos;" line-height="125%" word-spacing="0" letter-spacing="0"><tspan y="-21702.08" x="-1105.66"/>
   </text>
   <text transform="scale(4.21677.23715)" font-size="578.89" y="-91392.18" x="2154.18" font-family="Arial" text-anchor="middle"/>
   <text font-size="4654.6" y="-17076.54" x="-37055.5" font-family="&apos;Gentium Book Basic&apos;" line-height="125%" word-spacing="0" letter-spacing="0"><tspan y="-17076.54" x="-37055.5"/>
   </text>
  </g>
  <text transform="scale(4.0128.2492)" font-size="1691.2" y="-81100.75" x="-2135.7" font-family="Arial" text-anchor="middle"/>
 </g>
 <text stroke-width="23.273" font-size="4654.6" stroke="#cd1d31" y="-20652.4" x="-7745.12" font-family="&apos;Gentium Book Basic&apos;" line-height="125%" word-spacing="0" letter-spacing="0"><tspan y="-20652.4" x="-7745.12"/>
 </text>
 <text transform="scale(4.0128.2492)" font-size="1691.2" y="-95449.94" x="5168.41" font-family="Arial" text-anchor="middle"/>
 <text stroke-width="23.273" font-size="4654.6" stroke="#cd1d31" y="-23534.03" x="13191.49" font-family="&apos;Gentium Book Basic&apos;" line-height="125%" word-spacing="0" letter-spacing="0"><tspan y="-23534.03" x="13191.49"/>
 </text>
 <text transform="scale(4.0128.2492)" font-size="1691.2" y="-107013.17" x="10385.9" font-family="Arial" text-anchor="middle"/>
 <g fill="#BF9E73">
  <text stroke-width="23.273" font-size="4654.6" stroke="#555753" y="-506.69" x="2674.54" font-family="&apos;Gentium Book Basic&apos;" line-height="125%" word-spacing="0" letter-spacing="0"><tspan y="-506.69" x="2674.54"/>
  </text>
  <text transform="scale(4.0128.2492)" font-size="1691.2" y="-14609.03" x="7764.94" font-family="Arial" text-anchor="middle"/>
  <text stroke-width="23.273" font-size="4654.6" stroke="#555753" y="730.1" x="20021.57" font-family="&apos;Gentium Book Basic&apos;" line-height="125%" word-spacing="0" letter-spacing="0"><tspan y="730.1" x="20021.57"/>
  </text>
  <text transform="scale(4.0128.2492)" font-size="1691.2" y="-9646.15" x="12087.82" font-family="Arial" text-anchor="middle"/>
  <text stroke-width="23.273" font-size="4654.6" stroke="#555753" y="-2151.51" x="40957.95" font-family="&apos;Gentium Book Basic&apos;" line-height="125%" word-spacing="0" letter-spacing="0"><tspan y="-2151.51" x="40957.95"/>
  </text>
  <text transform="scale(4.0128.2492)" font-size="1691.2" y="-21209.38" x="17305.31" font-family="Arial" text-anchor="middle"/>
  <text stroke-width="23.273" font-size="4654.6" stroke="#555753" y="-3376.59" x="20660.64" font-family="&apos;Gentium Book Basic&apos;" line-height="125%" word-spacing="0" letter-spacing="0"><tspan y="-3376.59" x="20660.64"/>
  </text>
  <text transform="scale(4.0128.2492)" font-size="1691.2" y="-26125.02" x="12247.24" font-family="Arial" text-anchor="middle"/>
  <text stroke-width="23.273" font-size="4654.6" stroke="#555753" y="-6257.98" x="41597.25" font-family="&apos;Gentium Book Basic&apos;" line-height="125%" word-spacing="0" letter-spacing="0"><tspan y="-6257.98" x="41597.25"/>
  </text>
  <text transform="scale(4.0128.2492)" font-size="1691.2" y="-37688.25" x="17464.5" font-family="Arial" text-anchor="middle"/>
  <text stroke-width="23.273" font-size="4654.6" stroke="#555753" y="7140.13" x="-49389.81" font-family="&apos;Gentium Book Basic&apos;" line-height="125%" word-spacing="0" letter-spacing="0"><tspan y="7140.13" x="-49389.81"/>
  </text>
  <text transform="scale(4.0128.2492)" font-size="1691.2" y="16075.9" x="-5209.31" font-family="Arial" text-anchor="middle"/>
 </g>
 <text font-size="129.23" y="231.36" x="729.64" font-family="&apos;Gentium Book Basic&apos;" line-height="125%" word-spacing="0" letter-spacing="0"><tspan y="231.36" x="729.64"/>
 </text>
 <text transform="scale(4.0128.2492)" font-size="46.954" y="579.26" x="378.91" font-family="Arial" text-anchor="middle"/>
 <text font-size="129.23" y="151.36" x="1310.91" font-family="&apos;Gentium Book Basic&apos;" line-height="125%" word-spacing="0" letter-spacing="0"><tspan y="151.36" x="1310.91"/>
 </text>
 <text transform="scale(4.0128.2492)" font-size="46.954" y="258.22" x="523.76" font-family="Arial" text-anchor="middle"/>
 <text font-size="129.23" y="-29.9" x="239.33" font-family="&apos;Gentium Book Basic&apos;" line-height="125%" word-spacing="0" letter-spacing="0"><tspan y="-29.9" x="239.33"/>
 </text>
 <text transform="scale(4.0128.2492)" font-size="46.954" y="-469.13" x="256.72" font-family="Arial" text-anchor="middle"/>
 <text font-size="129.23" y="-246.37" x="1337.38" font-family="&apos;Gentium Book Basic&apos;" line-height="125%" word-spacing="0" letter-spacing="0"><tspan y="-246.37" x="1337.38"/>
 </text>
 <text transform="scale(4.0128.2492)" font-size="46.954" y="-1337.79" x="530.36" font-family="Arial" text-anchor="middle"/>
 <text font-size="129.23" y="-326.37" x="1918.65" font-family="&apos;Gentium Book Basic&apos;" line-height="125%" word-spacing="0" letter-spacing="0"><tspan y="-326.37" x="1918.65"/>
 </text>
 <text transform="scale(4.0128.2492)" font-size="46.954" y="-1658.82" x="675.21" font-family="Arial" text-anchor="middle"/>
 <text font-size="129.23" y="-798.77" x="1529.53" font-family="&apos;Gentium Book Basic&apos;" line-height="125%" word-spacing="0" letter-spacing="0"><tspan y="-798.77" x="1529.53"/>
 </text>
 <text transform="scale(4.0128.2492)" font-size="46.954" y="-3554.46" x="578.24" font-family="Arial" text-anchor="middle"/>
 <text font-size="129.23" y="-878.78" x="2110.79" font-family="&apos;Gentium Book Basic&apos;" line-height="125%" word-spacing="0" letter-spacing="0"><tspan y="-878.78" x="2110.79"/>
 </text>
 <text transform="scale(4.0128.2492)" font-size="46.954" y="-3875.5" x="723.09" font-family="Arial" text-anchor="middle"/>
 <g font-family="&apos;Gentium Book Basic&apos;" line-height="125%" word-spacing="0" letter-spacing="0">
  <text y="535.94" x="277.99" font-size="208.33"><tspan y="535.94" x="277.99"/>
  </text>
  <text y="177.12" x="1532.35" font-size="129.23"><tspan y="177.12" x="1532.35"/>
  </text>
 </g>
 <text transform="scale(4.0128.2492)" font-size="46.954" y="361.61" x="578.94" font-family="Arial" text-anchor="middle"/>
 <text font-size="129.23" y="97.12" x="2113.62" font-family="&apos;Gentium Book Basic&apos;" line-height="125%" word-spacing="0" letter-spacing="0"><tspan y="97.12" x="2113.62"/>
 </text>
 <text transform="scale(4.0128.2492)" font-size="46.954" y="40.575" x="723.79" font-family="Arial" text-anchor="middle"/>
 <text font-size="129.23" y="-84.14" x="1042.04" font-family="&apos;Gentium Book Basic&apos;" line-height="125%" word-spacing="0" letter-spacing="0"><tspan y="-84.14" x="1042.04"/>
 </text>
 <text transform="scale(4.0128.2492)" font-size="46.954" y="-686.77" x="456.76" font-family="Arial" text-anchor="middle"/>
 <text font-size="129.23" y="-300.61" x="2140.09" font-family="&apos;Gentium Book Basic&apos;" line-height="125%" word-spacing="0" letter-spacing="0"><tspan y="-300.61" x="2140.09"/>
 </text>
 <text transform="scale(4.0128.2492)" font-size="46.954" y="-1555.45" x="730.39" font-family="Arial" text-anchor="middle"/>
 <text font-size="129.23" y="-380.61" x="2721.36" font-family="&apos;Gentium Book Basic&apos;" line-height="125%" word-spacing="0" letter-spacing="0"><tspan y="-380.61" x="2721.36"/>
 </text>
 <text transform="scale(4.0128.2492)" font-size="46.954" y="-1876.47" x="875.24" font-family="Arial" text-anchor="middle"/>
 <text font-size="129.23" y="-853.01" x="2332.24" font-family="&apos;Gentium Book Basic&apos;" line-height="125%" word-spacing="0" letter-spacing="0"><tspan y="-853.01" x="2332.24"/>
 </text>
 <text transform="scale(4.0128.2492)" font-size="46.954" y="-3772.13" x="778.27" font-family="Arial" text-anchor="middle"/>
 <text font-size="129.23" y="-933.02" x="2913.5" font-family="&apos;Gentium Book Basic&apos;" line-height="125%" word-spacing="0" letter-spacing="0"><tspan y="-933.02" x="2913.5"/>
 </text>
 <text transform="scale(4.0128.2492)" font-size="46.954" y="-4093.16" x="923.12" font-family="Arial" text-anchor="middle"/>
 <text font-size="208.33" y="481.7" x="1080.7" font-family="&apos;Gentium Book Basic&apos;" line-height="125%" word-spacing="0" letter-spacing="0"><tspan y="481.7" x="1080.7"/>
 </text>
 <g fill-rule="evenodd">
  <path d="m471.95 253.05c0 120.9-98.01 218.91-218.91 218.91s-218.91-98.01-218.91-218.91 98.01-218.91 218.91-218.91 218.91 98.01 218.91 218.91" fill="#BF9E73"/>
  <path d="m256 1c-140.83 0-255 114.17-255 255s114.17 255 255 255 255-114.17 255-255-114.17-255-255-255m8.827 44.931c120.9 0 218.9 98 218.9 218.9s-98 218.9-218.9 218.9-218.93-98-218.93-218.9 98.03-218.9 218.93-218.9" fill-opacity="0.067"/>
  <g fill-opacity="0.129">
   <path d="m256 4.43c-138.94 0-251.57 112.63-251.57 251.57s112.63 251.57 251.57 251.57 251.57-112.63 251.57-251.57-112.63-251.57-251.57-251.57m5.885 38.556c120.9 0 218.9 98 218.9 218.9s-98 218.9-218.9 218.9-218.93-98-218.93-218.9 98.03-218.9 218.93-218.9"/>
   <path d="m256 8.36c-136.77 0-247.64 110.87-247.64 247.64s110.87 247.64 247.64 247.64 247.64-110.87 247.64-247.64-110.87-247.64-247.64-247.64m2.942 31.691c120.9 0 218.9 98 218.9 218.9s-98 218.9-218.9 218.9-218.93-98-218.93-218.9 98.03-218.9 218.93-218.9"/>
  </g>
  <path stroke="#000" stroke-width="4.904" d="m253.04 7.86c-135.42 0-245.19 109.78-245.19 245.19 0 135.42 109.78 245.19 245.19 245.19 135.42 0 245.19-109.78 245.19-245.19 0-135.42-109.78-245.19-245.19-245.19m0 26.297c120.9 0 218.9 98 218.9 218.9s-98 218.9-218.9 218.9-218.93-98-218.93-218.9 98.03-218.9 218.93-218.9z" stroke-opacity="0.31" fill="#fff"/>
 </g>
 <text font-size="129.23" y="231.36" x="729.64" font-family="&apos;Gentium Book Basic&apos;" line-height="125%" word-spacing="0" letter-spacing="0"><tspan y="231.36" x="729.64"/>
 </text>
 <text transform="scale(4.0128.2492)" font-size="46.954" y="579.26" x="378.91" font-family="Arial" text-anchor="middle"/>
 <text font-size="129.23" y="151.36" x="1310.91" font-family="&apos;Gentium Book Basic&apos;" line-height="125%" word-spacing="0" letter-spacing="0"><tspan y="151.36" x="1310.91"/>
 </text>
 <text transform="scale(4.0128.2492)" font-size="46.954" y="258.22" x="523.76" font-family="Arial" text-anchor="middle"/>
 <text font-size="129.23" y="-29.9" x="239.33" font-family="&apos;Gentium Book Basic&apos;" line-height="125%" word-spacing="0" letter-spacing="0"><tspan y="-29.9" x="239.33"/>
 </text>
 <text transform="scale(4.0128.2492)" font-size="46.954" y="-469.13" x="256.72" font-family="Arial" text-anchor="middle"/>
 <text font-size="129.23" y="-246.37" x="1337.38" font-family="&apos;Gentium Book Basic&apos;" line-height="125%" word-spacing="0" letter-spacing="0"><tspan y="-246.37" x="1337.38"/>
 </text>
 <text transform="scale(4.0128.2492)" font-size="46.954" y="-1337.79" x="530.36" font-family="Arial" text-anchor="middle"/>
 <text font-size="129.23" y="-326.37" x="1918.65" font-family="&apos;Gentium Book Basic&apos;" line-height="125%" word-spacing="0" letter-spacing="0"><tspan y="-326.37" x="1918.65"/>
 </text>
 <text transform="scale(4.0128.2492)" font-size="46.954" y="-1658.82" x="675.21" font-family="Arial" text-anchor="middle"/>
 <text font-size="129.23" y="-798.77" x="1529.53" font-family="&apos;Gentium Book Basic&apos;" line-height="125%" word-spacing="0" letter-spacing="0"><tspan y="-798.77" x="1529.53"/>
 </text>
 <text transform="scale(4.0128.2492)" font-size="46.954" y="-3554.46" x="578.24" font-family="Arial" text-anchor="middle"/>
 <text font-size="129.23" y="-878.78" x="2110.79" font-family="&apos;Gentium Book Basic&apos;" line-height="125%" word-spacing="0" letter-spacing="0"><tspan y="-878.78" x="2110.79"/>
 </text>
 <text transform="scale(4.0128.2492)" font-size="46.954" y="-3875.5" x="723.09" font-family="Arial" text-anchor="middle"/>
 <text font-size="208.33" y="535.94" x="277.99" font-family="&apos;Gentium Book Basic&apos;" line-height="125%" word-spacing="0" letter-spacing="0"><tspan y="535.94" x="277.99"/>
 </text>
 <path opacity="0.25" d="m240.01 92.01l46.596 46.598c0.004 0.006 0.009 0.012 0.014 0.018l-46.607-46.607c7.302 62.28-51.725 67.44-78.69 125.87-10.34 22.404-3.193 39.639 9.547 52.38l31.16 31.16-7.229 12.932 78.52 78.52-0.004 0.004-78.53-78.53h-47.25l102.79 102.79-0.002 0.002-102.79-102.79 100.09 105.63 47.844 47.844c83.91-16.484 150.61-80.897 170.43-163.56l-137.75-137.75c-0.418-0.418-0.645-0.635-0.645-0.635l-0.006-0.004c0.639 3.921 0.996 7.531 1.129 10.867l-63.07-63.07c-13.814-13.814-25.563-21.678-25.563-21.678"/>
 <path d="m240.01 92.02c7.302 62.28-51.726 67.44-78.69 125.87-16.399 35.532 11.187 58.07 35.31 70.28 16.18-28.909 32.38-57.811 48.563-86.72l2.406-4.313c18.315 32.717 36.656 65.41 54.969 98.13 40.24-10.781 61.46-39.34 61.875-60.5 0.635-32.707-36.938-68.875-36.938-68.875 6.997 42.933-19.06 49.41-19.06 49.41 9.118-71.37-68.44-123.28-68.44-123.28m7.625 127.78l-52.844 94.56h-47.25l100.09 105.63 100.09-105.62h-47.28l-52.813-94.56" fill="#fff"/>
</svg>
