<?xml version="1.0" encoding="UTF-8" standalone="no"?>
<svg xmlns="http://www.w3.org/2000/svg" height="512" viewBox="0 0 512 512" width="512" version="1.1">
 <metadata id="metadata70"/>
 <defs id="defs68">
  <filter id="filter3174" color-interpolation-filters="sRGB">
   <feGaussianBlur id="feGaussianBlur3176" stdDeviation="1.71"/>
  </filter>
  <linearGradient id="linearGradient3288" gradientUnits="userSpaceOnUse" y1="92.54" gradientTransform="scale(1.0059 .99417)" x2="0" y2="7.02">
   <stop id="stop3750"/>
   <stop id="stop3752" stop-opacity="0.588" offset="1"/>
  </linearGradient>
 </defs>
 <path id="path8" fill-rule="evenodd" fill="#BF9E73" d="m471.95 253.05c0 120.9-98.006 218.91-218.91 218.91s-218.91-98.006-218.91-218.91 98.006-218.91 218.91-218.91 218.91 98.006 218.91 218.91"/>
 <path id="path3329" fill="#BF9E73" d="m255.5 34.188v437.75c119.76-1.3241 216.44-98.802 216.44-218.88s-96.679-217.55-216.44-218.88z" color="#000000"/>
 <path id="path10" d="m256 1c-140.83 0-255 114.17-255 255s114.17 255 255 255 255-114.17 255-255-114.17-255-255-255m8.827 44.931c120.9 0 218.9 98 218.9 218.9s-98 218.9-218.9 218.9-218.93-98-218.93-218.9 98.03-218.9 218.93-218.9" fill-rule="evenodd" fill-opacity="0.067"/>
 <path id="path14" d="m256 4.43c-138.94 0-251.57 112.63-251.57 251.57s112.63 251.57 251.57 251.57 251.57-112.63 251.57-251.57-112.63-251.57-251.57-251.57m5.885 38.556c120.9 0 218.9 98 218.9 218.9s-98 218.9-218.9 218.9-218.93-98-218.93-218.9 98.03-218.9 218.93-218.9" fill-rule="evenodd" fill-opacity="0.129"/>
 <path id="path16" d="m256 8.36c-136.77 0-247.64 110.87-247.64 247.64s110.87 247.64 247.64 247.64 247.64-110.87 247.64-247.64-110.87-247.64-247.64-247.64m2.942 31.691c120.9 0 218.9 98 218.9 218.9s-98 218.9-218.9 218.9-218.93-98-218.93-218.9 98.03-218.9 218.93-218.9" fill-rule="evenodd" fill-opacity="0.129"/>
 <path id="path18" d="m253.04 7.86c-135.42 0-245.19 109.78-245.19 245.19 0 135.42 109.78 245.19 245.19 245.19 135.42 0 245.19-109.78 245.19-245.19 0-135.42-109.78-245.19-245.19-245.19zm0 26.297c120.9 0 218.9 98 218.9 218.9s-98 218.9-218.9 218.9-218.93-98-218.93-218.9 98.03-218.9 218.93-218.9z" stroke-opacity="0.31" fill-rule="evenodd" stroke="#000" stroke-width="4.904" fill="#fff"/>
 <path id="path3830" opacity="0.25" d="m180.12 128.16c-46.154-0.31675-78.715 56.403-54.062 96.031 22.871 29.635 51.884 54.132 77.875 81.156v7.3125l-16.594-16.594h-17.688v13.75l-11.81-11.82c-2.2416-0.45139-6.4483-1.125-10.25-1.125-14.036 0-21.156 6.0662-21.156 23.531v3.2188h-13.188v15.906l12.875 12.875v30.312l85.25 85.25c13.486 2.5984 27.411 4 41.656 4 34.241 0 66.638-7.8549 95.5-21.875 1.1365-0.55208 2.2808-1.1164 3.4062-1.6875 0.58589-0.29724 1.1672-0.60391 1.75-0.90625 0.54439-0.2824 1.0833-0.55692 1.625-0.84375 0.48937-0.25908 0.98159-0.51858 1.4688-0.78125 0.62984-0.33969 1.2489-0.68558 1.875-1.0312 0.39626-0.21869 0.79274-0.43518 1.1875-0.65625 0.10528-0.059 0.20733-0.12835 0.3125-0.1875 0.92006-0.51726 1.8382-1.0324 2.75-1.5625 0.50222-0.29203 1.0003-0.5791 1.5-0.875 0.50221-0.29736 1.0004-0.605 1.5-0.90625 0.22057-0.13303 0.43618-0.27247 0.65625-0.40625 0.77358-0.47014 1.5452-0.95808 2.3125-1.4375 0.92485-0.57811 1.8657-1.1585 2.7812-1.75 0.0633-0.0409 0.12427-0.0841 0.1875-0.125 0.99702-0.64556 1.983-1.2762 2.9688-1.9375 0.94531-0.63396 1.8777-1.2893 2.8125-1.9375 0.95526-0.66242 1.8996-1.3228 2.8438-2 0.17485-0.12544 0.35679-0.24906 0.53125-0.375 0.19929-0.14383 0.39497-0.29302 0.59375-0.4375 0.81524-0.59267 1.6308-1.2089 2.4375-1.8125 1.0061-0.75279 2.0074-1.5117 3-2.2812 0.6055-0.46944 1.2121-0.93062 1.8125-1.4062 0.0526-0.0416 0.10373-0.0833 0.15625-0.125 0.84933-0.67408 1.6922-1.3761 2.5312-2.0625 0.89558-0.73263 1.8038-1.4723 2.6875-2.2188 0.52772-0.4459 1.0703-0.89296 1.5938-1.3438 0.36025-0.3102 0.70429-0.62499 1.0625-0.9375 0.58854-0.51346 1.167-1.0116 1.75-1.5312 0.28129-0.25071 0.56377-0.49786 0.84375-0.75 0.64928-0.58478 1.2953-1.1888 1.9375-1.7812 0.21157-0.19517 0.4142-0.39776 0.625-0.59375 0.70893-0.65907 1.4249-1.3004 2.125-1.9688 0.13798-0.13172 0.26861-0.27417 0.40625-0.40625 0.83673-0.80293 1.6761-1.6215 2.5-2.4375 1.6421-1.6263 3.2536-3.2914 4.8438-4.9688 0.0711-0.075 0.14778-0.14367 0.21875-0.21875 0.72523-0.76713 1.4421-1.535 2.1562-2.3125 0.13398-0.14589 0.27266-0.29125 0.40625-0.4375 0.64856-0.70996 1.2982-1.4378 1.9375-2.1562 0.19618-0.22051 0.39845-0.43495 0.59375-0.65625 0.57199-0.64806 1.1231-1.3139 1.6875-1.9688 0.64371-0.74687 1.2725-1.4944 1.9062-2.25 0.11887-0.14172 0.25649-0.26422 0.375-0.40625 0.3048-0.36522 0.60379-0.72652 0.90625-1.0938 0.43222-0.52486 0.85384-1.0648 1.2812-1.5938 0.36227-0.44832 0.73496-0.89252 1.0938-1.3438 0.36507-0.45913 0.7323-0.91288 1.0938-1.375 0.41305-0.52805 0.81046-1.0618 1.2188-1.5938 0.29828-0.38863 0.61053-0.76557 0.90625-1.1562 0.46238-0.61082 0.91891-1.228 1.375-1.8438 0.23507-0.31741 0.45411-0.65002 0.6875-0.96875 0.51341-0.70107 1.026-1.3864 1.5312-2.0938 0.1698-0.2377 0.33113-0.48034 0.5-0.71875 0.55561-0.78453 1.1108-1.5829 1.6562-2.375 0.11464-0.16647 0.22956-0.3332 0.34375-0.5 0.59394-0.86756 1.1995-1.7485 1.7812-2.625 0.0624-0.0941 0.1252-0.18705 0.1875-0.28125 0.63425-0.95883 1.2555-1.9057 1.875-2.875 0.008-0.0121 0.0235-0.0192 0.0312-0.0312 0.67217-1.0522 1.3142-2.1232 1.9688-3.1875 0.56575-0.92002 1.135-1.8523 1.6875-2.7812 19.451-32.708 30.625-70.902 30.625-111.72 0-3.0015-0.0678-5.9966-0.1875-8.9688-33.502-33.464-67.031-66.911-100.59-100.31-34.112-32.168-96.652-11.136-104.84 34.844-5.6651 9.9598-24.469-21.868-35.406-28.5-12.249-13.64-30.133-22.089-48.562-21.906-0.73927-0.0341-1.4862-0.0575-2.2188-0.0625z"/>
 <path id="path4251" d="m169.66 296.06v86.656h17.688v-86.656h-17.688z" fill="#fff"/>
 <path id="path4249" d="m147.59 296.88c-14.036 0-21.156 6.0662-21.156 23.531v3.2188h-13.188v15.906h12.875v43.188h17.562v-43.188h13.75v-15.906h-13.75v-3.2188c0-5.7472 1.7664-9.3438 6.25-9.3438 2.6315 0 5.3507 0.34284 6.8125 0.90625l1.1-13.97c-2.2416-0.45139-6.4483-1.125-10.25-1.125z" fill="#fff"/>
 <path id="path4247" d="m291.5 296.94v85.781h17.531v-28.781h0.21875l19.062 28.781h23.062l-23.594-31.438 21.906-28.375h-20.719l-19.719 26.125h-0.21875v-52.094h-17.531z" fill="#fff"/>
 <path id="path4245" d="m203.94 296.97v16.438h17.656v-16.438h-17.656z" fill="#fff"/>
 <path id="path4243" d="m392.47 321.56c-8.0512 0-12.707 4.6684-15.906 12.031h-0.1875v-10.688h-16.938v59.812h18.562v-26.25c0-11.379 4.8616-18.188 13.531-18.188 2.1664 0 4.2482 0.0194 6.3125 0.6875l0.90625-16.75c-1.8598-0.33436-4.1154-0.65625-6.2812-0.65625z" fill="#fff"/>
 <path id="path4241" d="m264.53 323.28c-17.055 0-30.062 11.139-30.062 30.438 0 19.187 13.008 30.344 30.062 30.344 4.7594 0 10.1-0.888 14.562-2.5625l-0.40625-14.938c-2.9738 1.7854-7.0281 2.7812-11.094 2.7812-7.7338 0-14.688-6.0222-14.688-15.281 0-10.04 5.9538-16.062 13.688-16.062 4.2637 0 7.5406 0.98923 10.812 3.2188l1.29-14.72c-4.0657-2.2306-8.8017-3.2188-14.156-3.2188z" fill="#fff"/>
 <path id="path3742" d="m203.94 323.31v59.406h17.25v-59.406h-17.25z" fill="#fff"/>
 <path id="path4255" d="m329.22 127.94a64.797 64.797 0 1 0 0 129.59 64.797 64.797 0 0 0 0 -129.59z" fill="#fff"/>
 <g id="g4724">
  <path id="path4632" d="m182.34 127.94a64.797 64.797 0 1 0 0 129.59 64.797 64.797 0 0 0 0 -129.59z" fill="#fff"/>
 </g>
</svg>
