<?xml version="1.0" encoding="UTF-8" standalone="no"?>
<svg xmlns="http://www.w3.org/2000/svg" height="512" viewBox="0 0 512 512" width="512" version="1.1">
 <metadata id="metadata78"/>
 <path id="path4" d="m471.95 253.05c0 120.9-98.01 218.9-218.9 218.9-120.9 0-218.9-98.01-218.9-218.9 0-120.9 98.01-218.9 218.9-218.9 120.9 0 218.9 98.01 218.9 218.9" fill-rule="evenodd" fill="#BF9E73"/>
 <path id="path6" fill-opacity="0.235" d="m142.47 128.69v237.22h1v1h1v1h1v1h0.969v0.969h1v1h1v1h1v1h1v1h1v1h0.969v0.969h1v1h1v1h1v1h1v1h1v1h0.969v0.969h1v1h1v1h1v1h1v1h1v1h0.969v0.969h1v1h1v1h1v1h1v1h1v1h1v1h0.969v0.969h1v1h1v1h1v1h1v1h1v1h0.969v0.969h1v1h1v1h1v1h1v1h1v1h0.969v0.969h1v1h1v1h1v1h1v1h1v1h1v1h0.969v0.969h1v1h1v1h1v1h1v1h1v1h0.969v0.969h1v1h1v1h1v1h1v1h1v1h0.969v0.969h1v1h1v1h1v1h1v1h1v1h0.969v0.969h1v1h1v1h1v1h1v1h1v1h1v1h0.969v0.969h1v1h1v1h1v1h1v1h1v1h0.969v0.969h1v1h1v1h1v1h1v1h1v1h0.969v0.969h1v1h1v1h1v1h1v1h1v1h1v1h0.969v0.969h1v1h1v1h1v1h1v1h1v1h0.969v0.969h1v1h1v1h1v1h1v1h1v1h0.969v0.969h1v1h1v1h1v0.531c1.369 0.025 2.719 0.063 4.094 0.063 120.9 0 218.91-98.01 218.91-218.91 0-3.327-0.072-6.647-0.219-9.938h-0.344v-1h-1v-1h-1v-1h-1v-1h-1v-1h-0.969v-0.969h-1v-1h-1v-1h-1v-1h-1v-1h-1v-1h-0.969v-0.969h-1v-1h-1v-1h-1v-1h-1v-1h-1v-1h-0.969v-0.969h-1v-1h-1v-1h-1v-1h-1v-1h-1v-1h-0.969v-0.969h-1v-1h-1v-1h-1v-1h-1v-1h-1v-1h-1v-1h-0.969v-0.969h-1v-1h-1v-1h-1v-1h-1v-1h-1v-1h-0.969v-0.969h-1v-1h-1v-1h-1v-1h-1v-1h-1v-1h-0.969v-0.969h-1v-1h-1v-1h-1v-1h-1v-1h-1v-1h-1v-1h-0.969v-0.969h-1v-1h-1v-1h-1v-1h-1v-1h-1v-1h-0.969v-0.969h-1v-1h-1v-1h-1v-1h-1v-1h-1v-1h-0.969v-0.969h-1v-1h-1v-1h-1v-1h-1v-1h-1v-1h-0.969v-0.969h-1v-1h-1v-1h-1v-1h-1v-1h-1v-1h-1v-1h-0.969v-0.969h-1v-1h-1v-1h-1v-1h-1v-1h-1v-1h-0.969v-0.969h-1v-1h-1v-1h-1v-1h-1v-1h-1v-1h-0.969v-0.969h-1v-1h-1v-1h-1v-1h-1v-1h-1v-1h-1v-1h-0.969v-0.969h-1v-1h-1v-1h-1v-1h-1v-1h-1v-1h-0.969v-0.969h-1v-1h-1v-1h-1v-1h-1v-1h-1v-1h-0.969v-0.969h-1v-1h-1v-1h-1v-1h-1v-1h-1v-1h-0.969v-0.969h-1v-1h-1v-1h-1v-1h-215.47"/>
 <g id="g8" fill-rule="evenodd">
  <path id="path10" fill-opacity="0.067" d="m256 1c-140.83 0-255 114.17-255 255s114.17 255 255 255 255-114.17 255-255-114.17-255-255-255m8.827 44.931c120.9 0 218.9 98 218.9 218.9s-98 218.9-218.9 218.9-218.93-98-218.93-218.9 98.03-218.9 218.93-218.9"/>
  <g id="g12" fill-opacity="0.129">
   <path id="path14" d="m256 4.433c-138.94 0-251.57 112.63-251.57 251.57s112.63 251.57 251.57 251.57 251.57-112.63 251.57-251.57-112.63-251.57-251.57-251.57m5.885 38.556c120.9 0 218.9 98 218.9 218.9s-98 218.9-218.9 218.9-218.93-98-218.93-218.9 98.03-218.9 218.93-218.9"/>
   <path id="path16" d="m256 8.356c-136.77 0-247.64 110.87-247.64 247.64s110.87 247.64 247.64 247.64 247.64-110.87 247.64-247.64-110.87-247.64-247.64-247.64m2.942 31.691c120.9 0 218.9 98 218.9 218.9s-98 218.9-218.9 218.9-218.93-98-218.93-218.9 98.03-218.9 218.93-218.9"/>
  </g>
  <path id="path18" d="m253.04 7.859c-135.42 0-245.19 109.78-245.19 245.19 0 135.42 109.78 245.19 245.19 245.19 135.42 0 245.19-109.78 245.19-245.19 0-135.42-109.78-245.19-245.19-245.19zm0 26.297c120.9 0 218.9 98 218.9 218.9s-98 218.9-218.9 218.9-218.93-98-218.93-218.9 98.03-218.9 218.93-218.9z" stroke-opacity="0.31" stroke="#000" stroke-width="4.904" fill="#fff"/>
 </g>
 <g id="g66" transform="matrix(1.5824,0,0,1.5824,684.25,-7.178)" fill="#fff">
  <path id="path68" d="m-242.45 185.53h-67.59v-73.34h67.59v73.34"/>
  <path id="path70" d="m219.75 106v100h172.5v-100h-172.5" transform="matrix(.4997 0 0 .4997 -402.23 32.887)"/>
  <path id="path72" d="m-292.42 235.77h-49.966v-149.91h49.966z"/>
 </g>
</svg>
