<?xml version="1.0" encoding="UTF-8" standalone="no"?>
<svg xmlns="http://www.w3.org/2000/svg" viewBox="0 0 512 512">
 <path fill-rule="evenodd" d="m471.95 253.05c0 120.9-98.01 218.91-218.91 218.91s-218.91-98.01-218.91-218.91 98.01-218.91 218.91-218.91 218.91 98.01 218.91 218.91" fill="#BF9E73"/>
 <path d="m233.17 108.46c0.519 11.558-1.558 24.915-3.539 36.35-2.403 13.164-7.596 32.414-5.664 45.38 3.164 21.412 17.922 30.19 29.769 45.38-12.08-0.99-20.808-3.345-31.798-8.587-8.07-3.865-16.04-8.345-22.547-14.528-29.576-28.21-21.702-68.826-12.971-104.07 2.355-9.674 8.345-34.15 7.79-43.26-0.942-14.251-8.309-24.625-15.422-36.35 37.37 4.01 53.11 46.798 54.44 79.54" fill="#BF9E73"/>
 <path d="m343.55 113.03c-10 15.664-24.721 28.11-39.866 38.585-15.941 10.99-33.876 21.509-40.759 40.904-4.203 12.403-2.355 25.989 0 38.586-11.98-6.835-17.693-21.279-21.13-34.06-1.884-6.932-4.106-20.14-3.732-27.27 2.693-58.5 62.884-71 92.8-100.1 12.318-12.03 16.847-23.876 18.26-40.711 19.999 22.692 9.01 61.28-5.567 84.07" fill="#BF9E73"/>
 <g fill="#BF9E73">
  <path d="m135.59 142.37c43.875 37.788 41.28 111.24 106.86 100.1-13.961 21.702-66.1 20.241-86.42 8.02-35.989-21.702-43.682-78.13-64.49-103.32-9.77-11.751-19.673-15.241-33.16-20.519 23.16-14.999 58.4-0.374 77.09 15.712"/>
  <path d="m445.07 169.41c-30.808 33.36-70.903 29.818-111.81 29.914-18.538 0.048-29.2 1.981-42.74 16.09-6.836 7.174-10.519 16.847-18.586 22.499 0-14.347 0.326-22.27 4.625-36.35 2.548-8.345 5.712-15.567 10.809-22.692 29.528-41.52 80.15-27.17 123.08-27.27 25.712-0.048 31.605-4.807 50.01-22.837 4.625 13.961-6.183 30.566-15.374 40.518"/>
 </g>
 <path d="m294.64 230.87c8.816-5.193 17.17-8.816 27.27-11.04 41.895-9.203 66.05 18.49 93.08 45.34 10.76 10.712 26.18 25.808 40.904 30.385 9.903 3.116 17.17 2.548 27.22 1.413-8.261 14.299-27.644 18.441-43.21 19.721-35.615 2.826-65.855-21.18-90.82-43.21-9.529-8.345-17.499-17.27-29.528-22.12-18.828-7.548-32.27-0.145-50.01 4.577 6.606-12.27 12.971-18.26 24.999-25.24" fill="#BF9E73"/>
 <g fill="#BF9E73">
  <path d="m65.26 254.37c32.366-10.289 62.932-2.778 93.12 10.519 12.403 5.471 24.673 12.644 38.585 13.49 18.635 1.039 31.557-13.731 47.691-19.999-4.384 12.644-8.587 21.18-17.08 31.798-5.664 7.125-11.606 12.318-19.25 17.27-33.924 21.932-72.27 5.05-104.44-11.04-11.28-5.567-30.856-15.76-43.21-16.702-10.05-0.797-22.547 4.529-31.798 8.212 4.251-17.318 19.903-28.356 36.35-33.537"/>
  <path d="m290.1 258.38c11.04 0.145 19.11 1.558 29.528 5.616 6.703 2.645 14.77 6.703 20.422 11.183 40.566 32.22 19.903 88.74 30.711 130.86 4.154 16.461 14.48 23.357 23.828 36.35-52.643-1.184-76.99-56.13-77.27-102.18-0.048-13.635-0.374-30.385-5.616-43.21-4.154-10.1-12.838-19.48-21.605-25.808-6.884-4.903-12.971-5.761-18.212-12.789h18.212"/>
 </g>
 <path d="m260.57 303.8c-0.145 9.625-0.942 15.809-4.01 24.999-18.16 55.01-85.02 48.26-120.89 65.63-17.837 8.78-20.241 19.673-31.798 32.03-2.741-46.33 18.26-74.73 61.33-92.09 34.479-13.913 67.981-9.299 83.03-51 2.596-7.27 2.874-10.664 3.297-18.212 10.289 11.135 9.203 24.274 9.06 38.586" fill="#BF9E73"/>
 <path d="m291.66 285.65c5.423 6.413 10.942 14.903 14.154 22.692 22.318 54.59-29.951 91.19-47.559 136.29-6.316 15.941-2.874 22.741 0 38.586-38.02-18.212-29.914-80.06-15.1-111.34l13.345-22.692c7.222-11.606 16.883-24.915 18.912-38.586 2.307-16.412-7.5-31.653-14.77-45.43 13.78 2.826 22.08 9.818 30.953 20.47" fill="#BF9E73"/>
 <g fill-rule="evenodd">
  <path d="m256 1c-140.83 0-255 114.17-255 255s114.17 255 255 255 255-114.17 255-255-114.17-255-255-255m8.827 44.931c120.9 0 218.9 98 218.9 218.9s-98 218.9-218.9 218.9-218.93-98-218.93-218.9 98.03-218.9 218.93-218.9" fill-opacity="0.067"/>
  <g fill-opacity="0.129">
   <path d="m256 4.43c-138.94 0-251.57 112.63-251.57 251.57s112.63 251.57 251.57 251.57 251.57-112.63 251.57-251.57-112.63-251.57-251.57-251.57m5.885 38.556c120.9 0 218.9 98 218.9 218.9s-98 218.9-218.9 218.9-218.93-98-218.93-218.9 98.03-218.9 218.93-218.9"/>
   <path d="m256 8.36c-136.77 0-247.64 110.87-247.64 247.64s110.87 247.64 247.64 247.64 247.64-110.87 247.64-247.64-110.87-247.64-247.64-247.64m2.942 31.691c120.9 0 218.9 98 218.9 218.9s-98 218.9-218.9 218.9-218.93-98-218.93-218.9 98.03-218.9 218.93-218.9"/>
  </g>
  <path stroke="#000" stroke-width="4.904" d="m253.04 7.86c-135.42 0-245.19 109.78-245.19 245.19 0 135.42 109.78 245.19 245.19 245.19 135.42 0 245.19-109.78 245.19-245.19 0-135.42-109.78-245.19-245.19-245.19zm0 26.297c120.9 0 218.9 98 218.9 218.9s-98 218.9-218.9 218.9-218.93-98-218.93-218.9 98.03-218.9 218.93-218.9z" stroke-opacity="0.31" fill="#fff"/>
 </g>
 <text font-size="129.23" y="231.36" x="729.64" font-family="&apos;Gentium Book Basic&apos;" line-height="125%" word-spacing="0" letter-spacing="0"><tspan y="231.36" x="729.64"/>
 </text>
 <text transform="scale(4.0128.2492)" font-size="46.954" y="579.26" x="378.91" font-family="Arial" text-anchor="middle"/>
 <text font-size="129.23" y="151.36" x="1310.91" font-family="&apos;Gentium Book Basic&apos;" line-height="125%" word-spacing="0" letter-spacing="0"><tspan y="151.36" x="1310.91"/>
 </text>
 <text transform="scale(4.0128.2492)" font-size="46.954" y="258.22" x="523.76" font-family="Arial" text-anchor="middle"/>
 <text font-size="129.23" y="-29.9" x="239.33" font-family="&apos;Gentium Book Basic&apos;" line-height="125%" word-spacing="0" letter-spacing="0"><tspan y="-29.9" x="239.33"/>
 </text>
 <text transform="scale(4.0128.2492)" font-size="46.954" y="-469.13" x="256.72" font-family="Arial" text-anchor="middle"/>
 <text font-size="129.23" y="-246.37" x="1337.38" font-family="&apos;Gentium Book Basic&apos;" line-height="125%" word-spacing="0" letter-spacing="0"><tspan y="-246.37" x="1337.38"/>
 </text>
 <text transform="scale(4.0128.2492)" font-size="46.954" y="-1337.8" x="530.36" font-family="Arial" text-anchor="middle"/>
 <text font-size="129.23" y="-326.37" x="1918.65" font-family="&apos;Gentium Book Basic&apos;" line-height="125%" word-spacing="0" letter-spacing="0"><tspan y="-326.37" x="1918.65"/>
 </text>
 <text transform="scale(4.0128.2492)" font-size="46.954" y="-1658.83" x="675.21" font-family="Arial" text-anchor="middle"/>
 <text font-size="129.23" y="-798.77" x="1529.53" font-family="&apos;Gentium Book Basic&apos;" line-height="125%" word-spacing="0" letter-spacing="0"><tspan y="-798.77" x="1529.53"/>
 </text>
 <text transform="scale(4.0128.2492)" font-size="46.954" y="-3554.48" x="578.24" font-family="Arial" text-anchor="middle"/>
 <text font-size="129.23" y="-878.78" x="2110.79" font-family="&apos;Gentium Book Basic&apos;" line-height="125%" word-spacing="0" letter-spacing="0"><tspan y="-878.78" x="2110.79"/>
 </text>
 <text transform="scale(4.0128.2492)" font-size="46.954" y="-3875.52" x="723.09" font-family="Arial" text-anchor="middle"/>
 <g font-family="&apos;Gentium Book Basic&apos;" line-height="125%" word-spacing="0" letter-spacing="0">
  <text y="535.94" x="277.99" font-size="208.33"><tspan y="535.94" x="277.99"/>
  </text>
  <text y="272.59" x="1722.37" font-size="129.23"><tspan y="272.59" x="1722.37"/>
  </text>
 </g>
 <text transform="scale(4.0128.2492)" font-size="46.954" y="744.7" x="626.3" font-family="Arial" text-anchor="middle"/>
 <text font-size="129.23" y="192.59" x="2303.64" font-family="&apos;Gentium Book Basic&apos;" line-height="125%" word-spacing="0" letter-spacing="0"><tspan y="192.59" x="2303.64"/>
 </text>
 <text transform="scale(4.0128.2492)" font-size="46.954" y="423.67" x="771.15" font-family="Arial" text-anchor="middle"/>
 <text font-size="129.23" y="11.33" x="1232.06" font-family="&apos;Gentium Book Basic&apos;" line-height="125%" word-spacing="0" letter-spacing="0"><tspan y="11.33" x="1232.06"/>
 </text>
 <text transform="scale(4.0128.2492)" font-size="46.954" y="-303.68" x="504.11" font-family="Arial" text-anchor="middle"/>
 <text font-size="129.23" y="-205.14" x="2330.11" font-family="&apos;Gentium Book Basic&apos;" line-height="125%" word-spacing="0" letter-spacing="0"><tspan y="-205.14" x="2330.11"/>
 </text>
 <text transform="scale(4.0128.2492)" font-size="46.954" y="-1172.35" x="777.75" font-family="Arial" text-anchor="middle"/>
 <text font-size="129.23" y="-285.15" x="2911.38" font-family="&apos;Gentium Book Basic&apos;" line-height="125%" word-spacing="0" letter-spacing="0"><tspan y="-285.15" x="2911.38"/>
 </text>
 <text transform="scale(4.0128.2492)" font-size="46.954" y="-1493.39" x="922.6" font-family="Arial" text-anchor="middle"/>
 <text font-size="129.23" y="-757.55" x="2522.26" font-family="&apos;Gentium Book Basic&apos;" line-height="125%" word-spacing="0" letter-spacing="0"><tspan y="-757.55" x="2522.26"/>
 </text>
 <text transform="scale(4.0128.2492)" font-size="46.954" y="-3389.04" x="825.63" font-family="Arial" text-anchor="middle"/>
 <text font-size="129.23" y="-837.55" x="3103.52" font-family="&apos;Gentium Book Basic&apos;" line-height="125%" word-spacing="0" letter-spacing="0"><tspan y="-837.55" x="3103.52"/>
 </text>
 <text transform="scale(4.0128.2492)" font-size="46.954" y="-3710.07" x="970.48" font-family="Arial" text-anchor="middle"/>
 <g font-family="&apos;Gentium Book Basic&apos;" line-height="125%" word-spacing="0" letter-spacing="0">
  <text y="577.17" x="1270.72" font-size="208.33"><tspan y="577.17" x="1270.72"/>
  </text>
  <text y="231.36" x="729.64" font-size="129.23"><tspan y="231.36" x="729.64"/>
  </text>
 </g>
 <text transform="scale(4.0128.2492)" font-size="46.954" y="579.25" x="378.91" font-family="Arial" text-anchor="middle"/>
 <text font-size="129.23" y="151.36" x="1310.91" font-family="&apos;Gentium Book Basic&apos;" line-height="125%" word-spacing="0" letter-spacing="0"><tspan y="151.36" x="1310.91"/>
 </text>
 <text transform="scale(4.0128.2492)" font-size="46.954" y="258.22" x="523.76" font-family="Arial" text-anchor="middle"/>
 <text font-size="129.23" y="-29.901" x="239.33" font-family="&apos;Gentium Book Basic&apos;" line-height="125%" word-spacing="0" letter-spacing="0"><tspan y="-29.901" x="239.33"/>
 </text>
 <text transform="scale(4.0128.2492)" font-size="46.954" y="-469.14" x="256.72" font-family="Arial" text-anchor="middle"/>
 <text font-size="129.23" y="-246.37" x="1337.38" font-family="&apos;Gentium Book Basic&apos;" line-height="125%" word-spacing="0" letter-spacing="0"><tspan y="-246.37" x="1337.38"/>
 </text>
 <text transform="scale(4.0128.2492)" font-size="46.954" y="-1337.8" x="530.36" font-family="Arial" text-anchor="middle"/>
 <text font-size="129.23" y="-326.38" x="1918.65" font-family="&apos;Gentium Book Basic&apos;" line-height="125%" word-spacing="0" letter-spacing="0"><tspan y="-326.38" x="1918.65"/>
 </text>
 <text transform="scale(4.0128.2492)" font-size="46.954" y="-1658.84" x="675.21" font-family="Arial" text-anchor="middle"/>
 <text font-size="129.23" y="-798.78" x="1529.53" font-family="&apos;Gentium Book Basic&apos;" line-height="125%" word-spacing="0" letter-spacing="0"><tspan y="-798.78" x="1529.53"/>
 </text>
 <text transform="scale(4.0128.2492)" font-size="46.954" y="-3554.49" x="578.24" font-family="Arial" text-anchor="middle"/>
 <text font-size="129.23" y="-878.78" x="2110.79" font-family="&apos;Gentium Book Basic&apos;" line-height="125%" word-spacing="0" letter-spacing="0"><tspan y="-878.78" x="2110.79"/>
 </text>
 <text transform="scale(4.0128.2492)" font-size="46.954" y="-3875.52" x="723.09" font-family="Arial" text-anchor="middle"/>
 <g font-family="&apos;Gentium Book Basic&apos;" line-height="125%" word-spacing="0" letter-spacing="0">
  <text y="535.94" x="277.99" font-size="208.33"><tspan y="535.94" x="277.99"/>
  </text>
  <text y="1377.33" x="-26569.5" font-size="4848.4"><tspan y="1377.33" x="-26569.5"/>
  </text>
 </g>
 <text transform="scale(4.0128.2492)" font-size="1761.7" y="-7573.02" x="773.15" font-family="Arial" text-anchor="middle"/>
 <text font-size="4848.4" y="2289.39" x="-26704.25" font-family="&apos;Gentium Book Basic&apos;" line-height="125%" word-spacing="0" letter-spacing="0"><tspan y="2289.39" x="-26704.25"/>
 </text>
 <text transform="scale(4.0128.2492)" font-size="1761.7" y="-3913.17" x="739.61" font-family="Arial" text-anchor="middle"/>
 <g fill="#BF9E73">
  <text transform="scale(1.05082.95163)" font-size="2976.1" y="-4757.27" x="-12267.45" font-family="&apos;Gentium Book Basic&apos;" line-height="125%" word-spacing="0" letter-spacing="0"><tspan y="-4757.27" x="-12267.45"/>
  </text>
  <text transform="scale(4.21677.23715)" font-size="1081.5" y="-27131.37" x="1481.85" font-family="Arial" text-anchor="middle"/>
  <text transform="scale(1.05082.95163)" font-size="1593.2" y="-5582.29" x="-2864.61" font-family="&apos;Gentium Book Basic&apos;" line-height="125%" word-spacing="0" letter-spacing="0"><tspan y="-5582.29" x="-2864.61"/>
  </text>
  <text transform="scale(4.21677.23715)" font-size="578.89" y="-26705.24" x="1715.95" font-family="Arial" text-anchor="middle"/>
  <text font-size="4654.6" y="-1736.32" x="-38904.05" font-family="&apos;Gentium Book Basic&apos;" line-height="125%" word-spacing="0" letter-spacing="0"><tspan y="-1736.32" x="-38904.05"/>
  </text>
  <text transform="scale(4.0128.2492)" font-size="1691.2" y="-19543.06" x="-2596.26" font-family="Arial" text-anchor="middle"/>
 </g>
 <text stroke-width="23.273" font-size="4848.4" stroke="#cd1d31" y="-13962.89" x="-24720.95" font-family="&apos;Gentium Book Basic&apos;" line-height="125%" word-spacing="0" letter-spacing="0"><tspan y="-13962.89" x="-24720.95"/>
 </text>
 <text transform="scale(4.0128.2492)" font-size="1761.7" y="-69130.72" x="1233.94" font-family="Arial" text-anchor="middle"/>
 <text stroke-width="23.273" font-size="4848.4" stroke="#cd1d31" y="-13050.83" x="-24855.93" font-family="&apos;Gentium Book Basic&apos;" line-height="125%" word-spacing="0" letter-spacing="0"><tspan y="-13050.83" x="-24855.93"/>
 </text>
 <text transform="scale(4.0128.2492)" font-size="1761.7" y="-65470.63" x="1200.27" font-family="Arial" text-anchor="middle"/>
 <g fill="#BF9E73">
  <g stroke="#cd1d31" stroke-width="23.273">
   <text transform="scale(1.05082.95163)" font-size="2976.1" y="-20877.06" x="-10508.27" font-family="&apos;Gentium Book Basic&apos;" line-height="125%" word-spacing="0" letter-spacing="0"><tspan y="-20877.06" x="-10508.27"/>
   </text>
   <text transform="scale(4.21677.23715)" font-size="1081.5" y="-91818.3" x="1920.29" font-family="Arial" text-anchor="middle"/>
   <text transform="scale(1.05082.95163)" font-size="1593.2" y="-21702.08" x="-1105.66" font-family="&apos;Gentium Book Basic&apos;" line-height="125%" word-spacing="0" letter-spacing="0"><tspan y="-21702.08" x="-1105.66"/>
   </text>
   <text transform="scale(4.21677.23715)" font-size="578.89" y="-91392.18" x="2154.18" font-family="Arial" text-anchor="middle"/>
   <text font-size="4654.6" y="-17076.54" x="-37055.5" font-family="&apos;Gentium Book Basic&apos;" line-height="125%" word-spacing="0" letter-spacing="0"><tspan y="-17076.54" x="-37055.5"/>
   </text>
  </g>
  <text transform="scale(4.0128.2492)" font-size="1691.2" y="-81100.75" x="-2135.7" font-family="Arial" text-anchor="middle"/>
 </g>
 <text stroke-width="23.273" font-size="4654.6" stroke="#cd1d31" y="-20652.4" x="-7745.12" font-family="&apos;Gentium Book Basic&apos;" line-height="125%" word-spacing="0" letter-spacing="0"><tspan y="-20652.4" x="-7745.12"/>
 </text>
 <text transform="scale(4.0128.2492)" font-size="1691.2" y="-95449.94" x="5168.41" font-family="Arial" text-anchor="middle"/>
 <text stroke-width="23.273" font-size="4654.6" stroke="#cd1d31" y="-23534.03" x="13191.49" font-family="&apos;Gentium Book Basic&apos;" line-height="125%" word-spacing="0" letter-spacing="0"><tspan y="-23534.03" x="13191.49"/>
 </text>
 <text transform="scale(4.0128.2492)" font-size="1691.2" y="-107013.17" x="10385.9" font-family="Arial" text-anchor="middle"/>
 <g fill="#BF9E73">
  <text stroke-width="23.273" font-size="4654.6" stroke="#555753" y="-506.69" x="2674.54" font-family="&apos;Gentium Book Basic&apos;" line-height="125%" word-spacing="0" letter-spacing="0"><tspan y="-506.69" x="2674.54"/>
  </text>
  <text transform="scale(4.0128.2492)" font-size="1691.2" y="-14609.03" x="7764.94" font-family="Arial" text-anchor="middle"/>
  <text stroke-width="23.273" font-size="4654.6" stroke="#555753" y="730.1" x="20021.57" font-family="&apos;Gentium Book Basic&apos;" line-height="125%" word-spacing="0" letter-spacing="0"><tspan y="730.1" x="20021.57"/>
  </text>
  <text transform="scale(4.0128.2492)" font-size="1691.2" y="-9646.15" x="12087.82" font-family="Arial" text-anchor="middle"/>
  <text stroke-width="23.273" font-size="4654.6" stroke="#555753" y="-2151.51" x="40957.95" font-family="&apos;Gentium Book Basic&apos;" line-height="125%" word-spacing="0" letter-spacing="0"><tspan y="-2151.51" x="40957.95"/>
  </text>
  <text transform="scale(4.0128.2492)" font-size="1691.2" y="-21209.38" x="17305.31" font-family="Arial" text-anchor="middle"/>
  <text stroke-width="23.273" font-size="4654.6" stroke="#555753" y="-3376.59" x="20660.64" font-family="&apos;Gentium Book Basic&apos;" line-height="125%" word-spacing="0" letter-spacing="0"><tspan y="-3376.59" x="20660.64"/>
  </text>
  <text transform="scale(4.0128.2492)" font-size="1691.2" y="-26125.02" x="12247.24" font-family="Arial" text-anchor="middle"/>
  <text stroke-width="23.273" font-size="4654.6" stroke="#555753" y="-6257.98" x="41597.25" font-family="&apos;Gentium Book Basic&apos;" line-height="125%" word-spacing="0" letter-spacing="0"><tspan y="-6257.98" x="41597.25"/>
  </text>
  <text transform="scale(4.0128.2492)" font-size="1691.2" y="-37688.25" x="17464.5" font-family="Arial" text-anchor="middle"/>
  <text stroke-width="23.273" font-size="4654.6" stroke="#555753" y="7140.13" x="-49389.81" font-family="&apos;Gentium Book Basic&apos;" line-height="125%" word-spacing="0" letter-spacing="0"><tspan y="7140.13" x="-49389.81"/>
  </text>
  <text transform="scale(4.0128.2492)" font-size="1691.2" y="16075.9" x="-5209.31" font-family="Arial" text-anchor="middle"/>
 </g>
 <text font-size="129.23" y="231.36" x="729.64" font-family="&apos;Gentium Book Basic&apos;" line-height="125%" word-spacing="0" letter-spacing="0"><tspan y="231.36" x="729.64"/>
 </text>
 <text transform="scale(4.0128.2492)" font-size="46.954" y="579.26" x="378.91" font-family="Arial" text-anchor="middle"/>
 <text font-size="129.23" y="151.36" x="1310.91" font-family="&apos;Gentium Book Basic&apos;" line-height="125%" word-spacing="0" letter-spacing="0"><tspan y="151.36" x="1310.91"/>
 </text>
 <text transform="scale(4.0128.2492)" font-size="46.954" y="258.22" x="523.76" font-family="Arial" text-anchor="middle"/>
 <text font-size="129.23" y="-29.9" x="239.33" font-family="&apos;Gentium Book Basic&apos;" line-height="125%" word-spacing="0" letter-spacing="0"><tspan y="-29.9" x="239.33"/>
 </text>
 <text transform="scale(4.0128.2492)" font-size="46.954" y="-469.13" x="256.72" font-family="Arial" text-anchor="middle"/>
 <text font-size="129.23" y="-246.37" x="1337.38" font-family="&apos;Gentium Book Basic&apos;" line-height="125%" word-spacing="0" letter-spacing="0"><tspan y="-246.37" x="1337.38"/>
 </text>
 <text transform="scale(4.0128.2492)" font-size="46.954" y="-1337.79" x="530.36" font-family="Arial" text-anchor="middle"/>
 <text font-size="129.23" y="-326.37" x="1918.65" font-family="&apos;Gentium Book Basic&apos;" line-height="125%" word-spacing="0" letter-spacing="0"><tspan y="-326.37" x="1918.65"/>
 </text>
 <text transform="scale(4.0128.2492)" font-size="46.954" y="-1658.82" x="675.21" font-family="Arial" text-anchor="middle"/>
 <text font-size="129.23" y="-798.77" x="1529.53" font-family="&apos;Gentium Book Basic&apos;" line-height="125%" word-spacing="0" letter-spacing="0"><tspan y="-798.77" x="1529.53"/>
 </text>
 <text transform="scale(4.0128.2492)" font-size="46.954" y="-3554.46" x="578.24" font-family="Arial" text-anchor="middle"/>
 <text font-size="129.23" y="-878.78" x="2110.79" font-family="&apos;Gentium Book Basic&apos;" line-height="125%" word-spacing="0" letter-spacing="0"><tspan y="-878.78" x="2110.79"/>
 </text>
 <text transform="scale(4.0128.2492)" font-size="46.954" y="-3875.5" x="723.09" font-family="Arial" text-anchor="middle"/>
 <g font-family="&apos;Gentium Book Basic&apos;" line-height="125%" word-spacing="0" letter-spacing="0">
  <text y="535.94" x="277.99" font-size="208.33"><tspan y="535.94" x="277.99"/>
  </text>
  <text y="177.12" x="1532.35" font-size="129.23"><tspan y="177.12" x="1532.35"/>
  </text>
 </g>
 <text transform="scale(4.0128.2492)" font-size="46.954" y="361.61" x="578.94" font-family="Arial" text-anchor="middle"/>
 <text font-size="129.23" y="97.12" x="2113.62" font-family="&apos;Gentium Book Basic&apos;" line-height="125%" word-spacing="0" letter-spacing="0"><tspan y="97.12" x="2113.62"/>
 </text>
 <text transform="scale(4.0128.2492)" font-size="46.954" y="40.575" x="723.79" font-family="Arial" text-anchor="middle"/>
 <text font-size="129.23" y="-84.14" x="1042.04" font-family="&apos;Gentium Book Basic&apos;" line-height="125%" word-spacing="0" letter-spacing="0"><tspan y="-84.14" x="1042.04"/>
 </text>
 <text transform="scale(4.0128.2492)" font-size="46.954" y="-686.77" x="456.76" font-family="Arial" text-anchor="middle"/>
 <text font-size="129.23" y="-300.61" x="2140.09" font-family="&apos;Gentium Book Basic&apos;" line-height="125%" word-spacing="0" letter-spacing="0"><tspan y="-300.61" x="2140.09"/>
 </text>
 <text transform="scale(4.0128.2492)" font-size="46.954" y="-1555.45" x="730.39" font-family="Arial" text-anchor="middle"/>
 <text font-size="129.23" y="-380.61" x="2721.36" font-family="&apos;Gentium Book Basic&apos;" line-height="125%" word-spacing="0" letter-spacing="0"><tspan y="-380.61" x="2721.36"/>
 </text>
 <text transform="scale(4.0128.2492)" font-size="46.954" y="-1876.47" x="875.24" font-family="Arial" text-anchor="middle"/>
 <text font-size="129.23" y="-853.01" x="2332.24" font-family="&apos;Gentium Book Basic&apos;" line-height="125%" word-spacing="0" letter-spacing="0"><tspan y="-853.01" x="2332.24"/>
 </text>
 <text transform="scale(4.0128.2492)" font-size="46.954" y="-3772.13" x="778.27" font-family="Arial" text-anchor="middle"/>
 <text font-size="129.23" y="-933.02" x="2913.5" font-family="&apos;Gentium Book Basic&apos;" line-height="125%" word-spacing="0" letter-spacing="0"><tspan y="-933.02" x="2913.5"/>
 </text>
 <text transform="scale(4.0128.2492)" font-size="46.954" y="-4093.16" x="923.12" font-family="Arial" text-anchor="middle"/>
 <g font-family="&apos;Gentium Book Basic&apos;" line-height="125%" word-spacing="0" letter-spacing="0">
  <text y="481.7" x="1080.7" font-size="208.33"><tspan y="481.7" x="1080.7"/>
  </text>
  <text y="-78.71" x="1662.54" font-size="129.23"><tspan y="-78.71" x="1662.54"/>
  </text>
 </g>
 <text transform="scale(4.0128.2492)" font-size="46.954" y="-664.99" x="611.39" font-family="Arial" text-anchor="middle"/>
 <text font-size="129.23" y="-158.71" x="2243.81" font-family="&apos;Gentium Book Basic&apos;" line-height="125%" word-spacing="0" letter-spacing="0"><tspan y="-158.71" x="2243.81"/>
 </text>
 <text transform="scale(4.0128.2492)" font-size="46.954" y="-986.03" x="756.24" font-family="Arial" text-anchor="middle"/>
 <text font-size="129.23" y="-339.97" x="1172.23" font-family="&apos;Gentium Book Basic&apos;" line-height="125%" word-spacing="0" letter-spacing="0"><tspan y="-339.97" x="1172.23"/>
 </text>
 <text transform="scale(4.0128.2492)" font-size="46.954" y="-1713.38" x="489.2" font-family="Arial" text-anchor="middle"/>
 <text font-size="129.23" y="-556.44" x="2270.28" font-family="&apos;Gentium Book Basic&apos;" line-height="125%" word-spacing="0" letter-spacing="0"><tspan y="-556.44" x="2270.28"/>
 </text>
 <text transform="scale(4.0128.2492)" font-size="46.954" y="-2582.05" x="762.84" font-family="Arial" text-anchor="middle"/>
 <text font-size="129.23" y="-636.44" x="2851.55" font-family="&apos;Gentium Book Basic&apos;" line-height="125%" word-spacing="0" letter-spacing="0"><tspan y="-636.44" x="2851.55"/>
 </text>
 <text transform="scale(4.0128.2492)" font-size="46.954" y="-2903.08" x="907.69" font-family="Arial" text-anchor="middle"/>
 <text font-size="129.23" y="-1108.84" x="2462.43" font-family="&apos;Gentium Book Basic&apos;" line-height="125%" word-spacing="0" letter-spacing="0"><tspan y="-1108.84" x="2462.43"/>
 </text>
 <text transform="scale(4.0128.2492)" font-size="46.954" y="-4798.73" x="810.72" font-family="Arial" text-anchor="middle"/>
 <text font-size="129.23" y="-1188.85" x="3043.69" font-family="&apos;Gentium Book Basic&apos;" line-height="125%" word-spacing="0" letter-spacing="0"><tspan y="-1188.85" x="3043.69"/>
 </text>
 <text transform="scale(4.0128.2492)" font-size="46.954" y="-5119.77" x="955.57" font-family="Arial" text-anchor="middle"/>
 <g font-family="&apos;Gentium Book Basic&apos;" line-height="125%" word-spacing="0" letter-spacing="0">
  <text y="225.87" x="1210.89" font-size="208.33"><tspan y="225.87" x="1210.89"/>
  </text>
  <text y="-813.41" x="1901.43" font-size="129.23"><tspan y="-813.41" x="1901.43"/>
  </text>
 </g>
 <text transform="scale(4.0128.2492)" font-size="46.954" y="-3613.22" x="670.92" font-family="Arial" text-anchor="middle"/>
 <text font-size="129.23" y="-893.41" x="2482.7" font-family="&apos;Gentium Book Basic&apos;" line-height="125%" word-spacing="0" letter-spacing="0"><tspan y="-893.41" x="2482.7"/>
 </text>
 <text transform="scale(4.0128.2492)" font-size="46.954" y="-3934.26" x="815.77" font-family="Arial" text-anchor="middle"/>
 <text font-size="129.23" y="-1074.67" x="1411.12" font-family="&apos;Gentium Book Basic&apos;" line-height="125%" word-spacing="0" letter-spacing="0"><tspan y="-1074.67" x="1411.12"/>
 </text>
 <text transform="scale(4.0128.2492)" font-size="46.954" y="-4661.61" x="548.73" font-family="Arial" text-anchor="middle"/>
 <text font-size="129.23" y="-1291.14" x="2509.17" font-family="&apos;Gentium Book Basic&apos;" line-height="125%" word-spacing="0" letter-spacing="0"><tspan y="-1291.14" x="2509.17"/>
 </text>
 <text transform="scale(4.0128.2492)" font-size="46.954" y="-5530.27" x="822.37" font-family="Arial" text-anchor="middle"/>
 <text font-size="129.23" y="-1371.14" x="3090.44" font-family="&apos;Gentium Book Basic&apos;" line-height="125%" word-spacing="0" letter-spacing="0"><tspan y="-1371.14" x="3090.44"/>
 </text>
 <text transform="scale(4.0128.2492)" font-size="46.954" y="-5851.3" x="967.22" font-family="Arial" text-anchor="middle"/>
 <text font-size="129.23" y="-1843.54" x="2701.32" font-family="&apos;Gentium Book Basic&apos;" line-height="125%" word-spacing="0" letter-spacing="0"><tspan y="-1843.54" x="2701.32"/>
 </text>
 <text transform="scale(4.0128.2492)" font-size="46.954" y="-7746.94" x="870.25" font-family="Arial" text-anchor="middle"/>
 <text font-size="129.23" y="-1923.55" x="3282.58" font-family="&apos;Gentium Book Basic&apos;" line-height="125%" word-spacing="0" letter-spacing="0"><tspan y="-1923.55" x="3282.58"/>
 </text>
 <text transform="scale(4.0128.2492)" font-size="46.954" y="-8067.98" x="1015.1" font-family="Arial" text-anchor="middle"/>
 <text font-size="208.33" y="-508.83" x="1449.78" font-family="&apos;Gentium Book Basic&apos;" line-height="125%" word-spacing="0" letter-spacing="0"><tspan y="-508.83" x="1449.78"/>
 </text>
 <g fill-rule="evenodd">
  <path opacity="0.25" d="m158.86 112.36c-0.882-0.02-1.567 0.098-2.033 0.367-9.953 5.75-9.924 131.79-9.924 143.28 0 11.302-0.024 133.43 9.443 142.9l71.63 71.63c8.226 0.938 16.587 1.438 25.06 1.438 100.17 0 184.61-67.27 210.63-159.1l-62.39-62.39c-19.14-19.14-106.56-69.6-115.42-74.71-9.481-5.472-109.07-62.999-127.01-63.4"/>
  <path d="m404.98 256c0 11.488-109.16 74.49-119.11 80.23-9.949 5.742-119.09 68.785-129.04 63.04-9.949-5.746-9.925-131.78-9.925-143.28 0-11.488-0.028-137.52 9.925-143.28 9.949-5.746 119.09 57.3 129.04 63.04 9.949 5.746 119.11 68.74 119.11 80.23" fill="#fff"/>
 </g>
</svg>
