<?xml version="1.0" encoding="UTF-8" standalone="no"?>
<svg xmlns="http://www.w3.org/2000/svg" height="512" viewBox="0 0 512 512" width="512" version="1.1">
 <metadata id="metadata76"/>
 <g id="g4" transform="matrix(.95199 0 0 .95199 -678.3 12.289)">
  <path id="path6" fill="#BF9E73" d="m981.41 6c-138.07 0-250 111.93-250 250 0 16.598 1.633 32.807 4.719 48.5 39.442-48.18 96.2-91.22 173.75-91.22 76.31 0 172.64 41.785 291.94 160.78 18.876-35.16 29.594-75.36 29.594-118.06 0-138.07-111.93-250-250-250"/>
  <path id="path8" fill="#BF9E73" d="m909.88 213.28c-77.53 0-134.31 43.02-173.75 91.19 22.573 114.87 123.8 201.53 245.28 201.53 95.37 0 178.25-53.41 220.41-131.94-119.3-119-215.63-160.78-291.94-160.78"/>
 </g>
 <g id="g12" fill-rule="evenodd">
  <path id="path14" fill-opacity="0.067" d="m256 1c-140.83 0-255 114.17-255 255s114.17 255 255 255 255-114.17 255-255-114.17-255-255-255m8.827 44.931c120.9 0 218.9 98 218.9 218.9s-98 218.9-218.9 218.9-218.93-98-218.93-218.9 98.03-218.9 218.93-218.9"/>
  <g id="g16" fill-opacity="0.129">
   <path id="path18" d="m256 4.433c-138.94 0-251.57 112.63-251.57 251.57s112.63 251.57 251.57 251.57 251.57-112.63 251.57-251.57-112.63-251.57-251.57-251.57m5.885 38.556c120.9 0 218.9 98 218.9 218.9s-98 218.9-218.9 218.9-218.93-98-218.93-218.9 98.03-218.9 218.93-218.9"/>
   <path id="path20" d="m256 8.356c-136.77 0-247.64 110.87-247.64 247.64s110.87 247.64 247.64 247.64 247.64-110.87 247.64-247.64-110.87-247.64-247.64-247.64m2.942 31.691c120.9 0 218.9 98 218.9 218.9s-98 218.9-218.9 218.9-218.93-98-218.93-218.9 98.03-218.9 218.93-218.9"/>
  </g>
  <path id="path22" d="m253.04 7.859c-135.42 0-245.19 109.78-245.19 245.19 0 135.42 109.78 245.19 245.19 245.19 135.42 0 245.19-109.78 245.19-245.19 0-135.42-109.78-245.19-245.19-245.19zm0 26.297c120.9 0 218.9 98 218.9 218.9s-98 218.9-218.9 218.9-218.93-98-218.93-218.9 98.03-218.9 218.93-218.9z" stroke-opacity="0.31" stroke="#000" stroke-width="4.904" fill="#fff"/>
 </g>
 <path id="path70" fill="#fff" d="m320.11 234c0 48.661-39.448 88.11-88.11 88.11-48.661 0-88.11-39.448-88.11-88.11 0-48.661 39.448-88.11 88.11-88.11 48.661 0 88.11 39.448 88.11 88.11"/>
</svg>
