<?xml version="1.0" encoding="UTF-8" standalone="no"?>
<svg xmlns="http://www.w3.org/2000/svg" height="512" viewBox="0 0 512 512" width="512" version="1.1">
 <metadata id="metadata72"/>
 <path id="path4" d="m471.95 253.05c0 120.9-98.01 218.9-218.9 218.9-120.9 0-218.9-98.01-218.9-218.9 0-120.9 98.01-218.9 218.9-218.9 120.9 0 218.9 98.01 218.9 218.9" fill-rule="evenodd" fill="#BF9E73"/>
 <path id="path6" fill-opacity="0.235" d="m271.69 149.66c-22.03 0-39.28 10.92-52.22 25.19-12.23 13.485-20.865 29.929-27.344 44l-30.375 1.344-4.281 0.188v16.406l0.5 0.031v0.469l0.5 0.031v0.469l0.5 0.031v0.469l0.5 0.031v0.469l0.5 0.031v0.469l0.5 0.031v0.469l0.5 0.031v0.469l0.5 0.031v0.469l0.5 0.031v0.469s0.397 0.027 0.5 0.031v0.469s0.397 0.027 0.5 0.031v0.469s0.397 0.027 0.5 0.031v0.469l0.469 0.031v0.438s0.397 0.027 0.5 0.031v0.469s0.397 0.027 0.5 0.031v0.469s0.397 0.027 0.5 0.031v0.469s0.397 0.027 0.5 0.031v0.469l0.5 0.031v0.469l0.5 0.031v0.469l0.5 0.031v0.469s0.397 0.027 0.5 0.031v0.469s0.397 0.027 0.5 0.031v0.469s0.397 0.027 0.5 0.031v0.469l0.5 0.031v0.469l0.5 0.031v0.469l0.5 0.031v0.469s0.397 0.027 0.5 0.031v0.469s0.397 0.027 0.5 0.031v0.469c0.001 0 0.397 0.027 0.5 0.031v0.469l0.5 0.031v0.469l0.5 0.031v0.469l0.5 0.031v0.469c0.001 0 0.397 0.027 0.5 0.031v0.469c0.001 0 0.397 0.027 0.5 0.031v0.469c0.001 0 0.397 0.027 0.5 0.031v0.469c0.001 0 0.397 0.027 0.5 0.031v0.469c0.001 0 0.397 0.027 0.5 0.031v0.469l0.469 0.031v0.438l0.5 0.031-19.09 45.563c-5.698 13.782-10.592 25.451-15.25 33.28-2.329 3.915-4.59 6.829-6.625 8.594-2.035 1.764-3.608 2.375-5.313 2.375-1.889 0-3.369-0.156-4.563-0.406-0.055-0.058-0.131-0.099-0.188-0.156-0.1-0.111-0.208-0.233-0.313-0.344-0.057-0.055-0.129-0.101-0.188-0.156-0.1-0.111-0.208-0.233-0.313-0.344-0.057-0.055-0.129-0.101-0.188-0.156-0.1-0.111-0.208-0.233-0.313-0.344-0.057-0.055-0.129-0.101-0.188-0.156-0.1-0.111-0.208-0.233-0.313-0.344-0.057-0.055-0.129-0.101-0.188-0.156-0.1-0.111-0.208-0.233-0.313-0.344-0.057-0.055-0.129-0.101-0.188-0.156-0.102-0.114-0.206-0.231-0.313-0.344l-0.031-0.031c-0.247-0.26-0.503-0.527-0.781-0.781-0.05-0.055-0.105-0.102-0.156-0.156-0.065-0.063-0.152-0.125-0.219-0.188-0.094-0.105-0.183-0.208-0.281-0.313-0.065-0.063-0.152-0.125-0.219-0.188-0.094-0.105-0.183-0.208-0.281-0.313-0.067-0.065-0.149-0.123-0.219-0.188-0.094-0.105-0.183-0.208-0.281-0.313-0.041-0.04-0.083-0.085-0.125-0.125-0.19-0.197-0.386-0.369-0.594-0.563-0.154-0.158-0.304-0.313-0.469-0.469-0.1-0.111-0.208-0.233-0.313-0.344-0.057-0.055-0.129-0.101-0.188-0.156-0.1-0.111-0.208-0.233-0.313-0.344-0.057-0.055-0.129-0.101-0.188-0.156-0.1-0.111-0.208-0.233-0.313-0.344-0.057-0.055-0.129-0.101-0.188-0.156-0.1-0.111-0.208-0.233-0.313-0.344-0.057-0.055-0.129-0.101-0.188-0.156-0.1-0.111-0.208-0.233-0.313-0.344-0.057-0.055-0.129-0.101-0.188-0.156-0.1-0.111-0.208-0.233-0.313-0.344-0.057-0.055-0.129-0.101-0.188-0.156-0.1-0.111-0.208-0.233-0.313-0.344-0.057-0.055-0.129-0.101-0.188-0.156-0.1-0.111-0.208-0.233-0.313-0.344-0.041-0.04-0.083-0.085-0.125-0.125-0.391-0.405-0.813-0.8-1.281-1.188-2.58-2.135-6.336-3.469-11-3.469s-8.586 1.158-11.5 3.344-4.75 5.517-4.75 8.969c0 4.07 1.759 8.25 5.156 11.594 0.213 0.226 0.428 0.437 0.656 0.656 0.01 0.011 0.021 0.02 0.031 0.031 0.129 0.133 0.241 0.276 0.375 0.406 0.178 0.186 0.375 0.35 0.563 0.531 0.164 0.17 0.328 0.334 0.5 0.5 0.164 0.17 0.328 0.334 0.5 0.5 0.164 0.17 0.328 0.334 0.5 0.5 0.164 0.17 0.328 0.334 0.5 0.5 0.164 0.17 0.328 0.334 0.5 0.5 0.164 0.17 0.328 0.334 0.5 0.5 0.189 0.196 0.363 0.404 0.563 0.594 0.163 0.167 0.329 0.337 0.5 0.5 0.163 0.167 0.329 0.337 0.5 0.5 0.163 0.167 0.329 0.337 0.5 0.5 0.163 0.167 0.329 0.337 0.5 0.5 0.163 0.167 0.329 0.337 0.5 0.5 0.229 0.235 0.474 0.461 0.719 0.688l0.031 0.031c0.125 0.116 0.245 0.23 0.375 0.344 0.01 0.011 0.021 0.02 0.031 0.031 0.037 0.037 0.056 0.088 0.094 0.125 0.123 0.113 0.248 0.233 0.375 0.344 0.01 0.011 0.021 0.02 0.031 0.031 0.037 0.037 0.056 0.088 0.094 0.125 0.123 0.113 0.248 0.233 0.375 0.344 0.01 0.011 0.021 0.02 0.031 0.031 0.037 0.037 0.056 0.088 0.094 0.125 0.123 0.113 0.248 0.233 0.375 0.344 0.01 0.011 0.021 0.02 0.031 0.031 0.037 0.037 0.056 0.088 0.094 0.125 0.123 0.113 0.248 0.233 0.375 0.344 0.01 0.011 0.021 0.02 0.031 0.031 0.094 0.094 0.185 0.188 0.281 0.281 0.164 0.17 0.328 0.334 0.5 0.5 0.164 0.17 0.328 0.334 0.5 0.5 0.118 0.123 0.221 0.255 0.344 0.375 0.213 0.226 0.428 0.437 0.656 0.656 0.01 0.011 0.021 0.02 0.031 0.031 0.129 0.133 0.241 0.276 0.375 0.406 0.178 0.186 0.375 0.35 0.563 0.531 0.164 0.17 0.328 0.334 0.5 0.5 0.164 0.17 0.328 0.334 0.5 0.5 0.164 0.17 0.328 0.334 0.5 0.5 0.164 0.17 0.328 0.334 0.5 0.5 0.164 0.17 0.328 0.334 0.5 0.5 0.164 0.17 0.328 0.334 0.5 0.5 0.189 0.196 0.363 0.404 0.563 0.594 0.163 0.167 0.329 0.337 0.5 0.5 0.163 0.167 0.329 0.337 0.5 0.5 0.163 0.167 0.329 0.337 0.5 0.5 0.163 0.167 0.329 0.337 0.5 0.5 0.163 0.167 0.329 0.337 0.5 0.5 0.229 0.235 0.474 0.461 0.719 0.688l0.031 0.031c0.125 0.116 0.245 0.23 0.375 0.344 0.01 0.011 0.021 0.02 0.031 0.031 0.037 0.037 0.056 0.088 0.094 0.125 0.123 0.113 0.248 0.233 0.375 0.344 0.01 0.011 0.021 0.02 0.031 0.031 0.037 0.037 0.056 0.088 0.094 0.125 0.123 0.113 0.248 0.233 0.375 0.344 0.01 0.011 0.021 0.02 0.031 0.031 0.037 0.037 0.056 0.088 0.094 0.125 0.123 0.113 0.248 0.233 0.375 0.344 0.01 0.011 0.021 0.02 0.031 0.031 0.037 0.037 0.056 0.088 0.094 0.125 0.123 0.113 0.248 0.233 0.375 0.344 0.01 0.011 0.021 0.02 0.031 0.031 0.094 0.094 0.185 0.188 0.281 0.281 0.164 0.17 0.328 0.334 0.5 0.5 0.164 0.17 0.328 0.334 0.5 0.5 0.118 0.123 0.221 0.255 0.344 0.375 0.213 0.226 0.428 0.437 0.656 0.656 0.01 0.011 0.021 0.02 0.031 0.031 0.129 0.133 0.241 0.276 0.375 0.406 0.178 0.186 0.375 0.35 0.563 0.531 0.164 0.17 0.328 0.334 0.5 0.5 0.164 0.17 0.328 0.334 0.5 0.5 0.164 0.17 0.328 0.334 0.5 0.5 0.164 0.17 0.328 0.334 0.5 0.5 0.164 0.17 0.328 0.334 0.5 0.5 0.164 0.17 0.328 0.334 0.5 0.5 0.189 0.196 0.363 0.404 0.563 0.594 0.163 0.167 0.329 0.337 0.5 0.5 0.163 0.167 0.329 0.337 0.5 0.5 0.163 0.167 0.329 0.337 0.5 0.5 0.163 0.167 0.329 0.337 0.5 0.5 0.163 0.167 0.329 0.337 0.5 0.5 0.163 0.167 0.329 0.337 0.5 0.5 0.229 0.235 0.474 0.461 0.719 0.688l0.031 0.031c0.125 0.116 0.245 0.23 0.375 0.344 0.01 0.011 0.021 0.02 0.031 0.031 0.037 0.037 0.056 0.088 0.094 0.125 0.123 0.113 0.248 0.233 0.375 0.344 0.01 0.011 0.021 0.02 0.031 0.031 0.037 0.037 0.056 0.088 0.094 0.125 0.123 0.113 0.248 0.233 0.375 0.344 0.01 0.011 0.021 0.02 0.031 0.031 0.037 0.037 0.056 0.088 0.094 0.125 0.123 0.113 0.248 0.233 0.375 0.344 0.01 0.011 0.021 0.02 0.031 0.031 0.094 0.094 0.185 0.188 0.281 0.281 0.164 0.17 0.328 0.334 0.5 0.5 0.164 0.17 0.328 0.334 0.5 0.5 0.118 0.123 0.221 0.255 0.344 0.375 0.213 0.226 0.428 0.437 0.656 0.656 0.01 0.011 0.021 0.02 0.031 0.031 0.129 0.133 0.241 0.276 0.375 0.406 0.178 0.186 0.375 0.35 0.563 0.531 0.164 0.17 0.328 0.334 0.5 0.5 0.164 0.17 0.328 0.334 0.5 0.5 0.164 0.17 0.328 0.334 0.5 0.5 0.164 0.17 0.328 0.334 0.5 0.5 0.164 0.17 0.328 0.334 0.5 0.5 0.164 0.17 0.328 0.334 0.5 0.5 0.189 0.196 0.363 0.404 0.563 0.594 0.163 0.167 0.329 0.337 0.5 0.5 0.163 0.167 0.329 0.337 0.5 0.5 0.163 0.167 0.329 0.337 0.5 0.5 0.163 0.167 0.329 0.337 0.5 0.5 0.163 0.167 0.329 0.337 0.5 0.5 0.163 0.167 0.329 0.337 0.5 0.5 0.229 0.235 0.474 0.461 0.719 0.688l0.031 0.031c0.125 0.116 0.245 0.23 0.375 0.344 0.01 0.011 0.021 0.02 0.031 0.031 0.037 0.037 0.056 0.088 0.094 0.125 0.123 0.113 0.248 0.233 0.375 0.344 0.01 0.011 0.021 0.02 0.031 0.031 0.037 0.037 0.056 0.088 0.094 0.125 0.123 0.113 0.248 0.233 0.375 0.344 0.01 0.011 0.021 0.02 0.031 0.031 0.037 0.037 0.056 0.088 0.094 0.125 0.123 0.113 0.248 0.233 0.375 0.344 0.01 0.011 0.021 0.02 0.031 0.031 0.094 0.094 0.185 0.188 0.281 0.281 0.164 0.17 0.328 0.334 0.5 0.5 0.164 0.17 0.328 0.334 0.5 0.5 0.118 0.123 0.221 0.255 0.344 0.375 0.213 0.226 0.428 0.437 0.656 0.656 0.01 0.011 0.021 0.02 0.031 0.031 0.129 0.133 0.241 0.276 0.375 0.406 0.162 0.169 0.33 0.335 0.5 0.5 0.178 0.186 0.375 0.35 0.563 0.531 0.164 0.17 0.328 0.334 0.5 0.5 0.164 0.17 0.328 0.334 0.5 0.5 0.164 0.17 0.328 0.334 0.5 0.5 0.164 0.17 0.328 0.334 0.5 0.5 0.164 0.17 0.328 0.334 0.5 0.5 0.164 0.17 0.328 0.334 0.5 0.5 0.189 0.196 0.363 0.404 0.563 0.594 0.163 0.167 0.329 0.337 0.5 0.5 0.163 0.167 0.329 0.337 0.5 0.5 0.163 0.167 0.329 0.337 0.5 0.5 0.163 0.167 0.329 0.337 0.5 0.5 0.163 0.167 0.329 0.337 0.5 0.5 0.229 0.235 0.474 0.461 0.719 0.688l0.031 0.031c0.125 0.116 0.245 0.23 0.375 0.344 0.01 0.011 0.021 0.02 0.031 0.031 0.037 0.037 0.056 0.088 0.094 0.125 0.123 0.113 0.248 0.233 0.375 0.344 0.01 0.011 0.021 0.02 0.031 0.031 0.037 0.037 0.056 0.088 0.094 0.125 0.123 0.113 0.248 0.233 0.375 0.344 0.01 0.011 0.021 0.02 0.031 0.031 0.037 0.037 0.056 0.088 0.094 0.125 0.123 0.113 0.248 0.233 0.375 0.344 0.01 0.011 0.021 0.02 0.031 0.031 0.094 0.094 0.185 0.188 0.281 0.281 0.164 0.17 0.328 0.334 0.5 0.5 0.164 0.17 0.328 0.334 0.5 0.5 0.118 0.123 0.221 0.255 0.344 0.375 0.213 0.226 0.428 0.437 0.656 0.656 0.01 0.011 0.021 0.02 0.031 0.031 0.129 0.133 0.241 0.276 0.375 0.406 0.162 0.169 0.33 0.335 0.5 0.5 0.178 0.186 0.375 0.35 0.563 0.531 0.164 0.17 0.328 0.334 0.5 0.5 0.164 0.17 0.328 0.334 0.5 0.5 0.164 0.17 0.328 0.334 0.5 0.5 0.164 0.17 0.328 0.334 0.5 0.5 0.164 0.17 0.328 0.334 0.5 0.5 0.164 0.17 0.328 0.334 0.5 0.5 0.189 0.196 0.363 0.404 0.563 0.594 0.163 0.167 0.329 0.337 0.5 0.5 0.163 0.167 0.329 0.337 0.5 0.5 0.163 0.167 0.329 0.337 0.5 0.5 0.163 0.167 0.329 0.337 0.5 0.5 0.163 0.167 0.329 0.337 0.5 0.5 0.229 0.235 0.474 0.461 0.719 0.688l0.031 0.031c0.125 0.116 0.245 0.23 0.375 0.344 0.01 0.011 0.021 0.02 0.031 0.031 0.037 0.037 0.056 0.088 0.094 0.125 0.123 0.113 0.248 0.233 0.375 0.344 0.01 0.011 0.021 0.02 0.031 0.031 0.037 0.037 0.056 0.088 0.094 0.125 0.123 0.113 0.248 0.233 0.375 0.344 0.01 0.011 0.021 0.02 0.031 0.031 0.037 0.037 0.056 0.088 0.094 0.125 0.123 0.113 0.248 0.233 0.375 0.344 0.01 0.011 0.021 0.02 0.031 0.031 0.094 0.094 0.185 0.188 0.281 0.281 0.164 0.17 0.328 0.334 0.5 0.5 0.164 0.17 0.328 0.334 0.5 0.5 0.118 0.123 0.221 0.255 0.344 0.375 0.213 0.226 0.428 0.437 0.656 0.656 0.01 0.011 0.021 0.02 0.031 0.031 0.129 0.133 0.241 0.276 0.375 0.406 0.162 0.169 0.33 0.335 0.5 0.5 0.178 0.186 0.375 0.35 0.563 0.531 0.164 0.17 0.328 0.334 0.5 0.5 0.164 0.17 0.328 0.334 0.5 0.5 0.164 0.17 0.328 0.334 0.5 0.5 0.164 0.17 0.328 0.334 0.5 0.5 0.164 0.17 0.328 0.334 0.5 0.5 0.164 0.17 0.328 0.334 0.5 0.5 0.189 0.196 0.363 0.404 0.563 0.594 0.163 0.167 0.329 0.337 0.5 0.5 0.163 0.167 0.329 0.337 0.5 0.5 0.163 0.167 0.329 0.337 0.5 0.5 0.163 0.167 0.329 0.337 0.5 0.5 0.163 0.167 0.329 0.337 0.5 0.5 0.229 0.235 0.474 0.461 0.719 0.688l0.031 0.031c0.125 0.116 0.245 0.23 0.375 0.344 0.01 0.011 0.021 0.02 0.031 0.031 0.037 0.037 0.056 0.088 0.094 0.125 0.123 0.113 0.248 0.233 0.375 0.344 0.01 0.011 0.021 0.02 0.031 0.031 0.037 0.037 0.056 0.088 0.094 0.125 0.123 0.113 0.248 0.233 0.375 0.344 0.01 0.011 0.021 0.02 0.031 0.031 0.037 0.037 0.056 0.088 0.094 0.125 0.123 0.113 0.248 0.233 0.375 0.344 0.01 0.011 0.021 0.02 0.031 0.031 0.094 0.094 0.185 0.188 0.281 0.281 0.164 0.17 0.328 0.334 0.5 0.5 0.164 0.17 0.328 0.334 0.5 0.5 0.118 0.123 0.221 0.255 0.344 0.375 0.213 0.226 0.428 0.437 0.656 0.656 0.01 0.011 0.021 0.02 0.031 0.031 0.129 0.133 0.241 0.276 0.375 0.406 0.162 0.169 0.33 0.335 0.5 0.5 0.178 0.186 0.375 0.35 0.563 0.531 0.164 0.17 0.328 0.334 0.5 0.5 0.164 0.17 0.328 0.334 0.5 0.5 0.164 0.17 0.328 0.334 0.5 0.5 0.164 0.17 0.328 0.334 0.5 0.5 0.164 0.17 0.328 0.334 0.5 0.5 0.164 0.17 0.328 0.334 0.5 0.5 0.189 0.196 0.363 0.404 0.563 0.594 0.163 0.167 0.329 0.337 0.5 0.5 0.163 0.167 0.329 0.337 0.5 0.5 0.163 0.167 0.329 0.337 0.5 0.5 0.163 0.167 0.329 0.337 0.5 0.5 0.163 0.167 0.329 0.337 0.5 0.5 0.229 0.235 0.474 0.461 0.719 0.688l0.031 0.031c0.125 0.116 0.245 0.23 0.375 0.344 0.01 0.011 0.021 0.02 0.031 0.031 0.037 0.037 0.056 0.088 0.094 0.125 0.123 0.113 0.248 0.233 0.375 0.344 0.01 0.011 0.021 0.02 0.031 0.031 0.037 0.037 0.056 0.088 0.094 0.125 0.123 0.113 0.248 0.233 0.375 0.344 0.01 0.011 0.021 0.02 0.031 0.031 0.037 0.037 0.056 0.088 0.094 0.125 0.123 0.113 0.248 0.233 0.375 0.344 0.01 0.011 0.021 0.02 0.031 0.031 0.094 0.094 0.185 0.188 0.281 0.281 0.164 0.17 0.328 0.334 0.5 0.5 0.164 0.17 0.328 0.334 0.5 0.5 0.118 0.123 0.221 0.255 0.344 0.375 0.213 0.226 0.428 0.437 0.656 0.656 0.01 0.011 0.021 0.02 0.031 0.031 0.129 0.133 0.241 0.276 0.375 0.406 0.162 0.169 0.33 0.335 0.5 0.5 0.178 0.186 0.375 0.35 0.563 0.531 0.164 0.17 0.328 0.334 0.5 0.5 0.164 0.17 0.328 0.334 0.5 0.5 0.164 0.17 0.328 0.334 0.5 0.5 0.164 0.17 0.328 0.334 0.5 0.5 0.164 0.17 0.328 0.334 0.5 0.5 0.164 0.17 0.328 0.334 0.5 0.5 0.189 0.196 0.363 0.404 0.563 0.594 0.163 0.167 0.329 0.337 0.5 0.5 0.163 0.167 0.329 0.337 0.5 0.5 0.163 0.167 0.329 0.337 0.5 0.5 0.163 0.167 0.329 0.337 0.5 0.5 0.163 0.167 0.329 0.337 0.5 0.5 0.229 0.235 0.474 0.461 0.719 0.688l0.031 0.031c0.125 0.116 0.245 0.23 0.375 0.344 0.01 0.011 0.021 0.02 0.031 0.031 0.037 0.037 0.056 0.088 0.094 0.125 0.123 0.113 0.248 0.233 0.375 0.344 0.01 0.011 0.021 0.02 0.031 0.031 0.037 0.037 0.056 0.088 0.094 0.125 0.123 0.113 0.248 0.233 0.375 0.344 0.01 0.011 0.021 0.02 0.031 0.031 0.037 0.037 0.056 0.088 0.094 0.125 0.123 0.113 0.248 0.233 0.375 0.344 0.01 0.011 0.021 0.02 0.031 0.031 0.094 0.094 0.185 0.188 0.281 0.281 0.164 0.17 0.328 0.334 0.5 0.5 0.164 0.17 0.328 0.334 0.5 0.5 0.118 0.123 0.221 0.255 0.344 0.375 0.193 0.204 0.39 0.397 0.594 0.594 15.488 3.475 31.588 5.344 48.13 5.344 120.9 0 218.91-98.01 218.91-218.91 0-16.456-1.808-32.488-5.25-47.906-0.05-0.045-0.108-0.081-0.156-0.125-0.043-0.049-0.081-0.108-0.125-0.156-0.11-0.109-0.229-0.206-0.344-0.313-0.019-0.021-0.043-0.041-0.063-0.063-0.038-0.035-0.055-0.09-0.094-0.125-0.11-0.109-0.229-0.206-0.344-0.313-0.019-0.021-0.043-0.041-0.063-0.063-0.142-0.13-0.258-0.28-0.406-0.406-0.011-0.01-0.021-0.021-0.031-0.031-0.044-0.049-0.08-0.108-0.125-0.156-0.108-0.107-0.231-0.208-0.344-0.313-0.054-0.06-0.101-0.128-0.156-0.188-0.111-0.11-0.228-0.205-0.344-0.313-0.019-0.022-0.043-0.041-0.063-0.063-0.028-0.025-0.035-0.068-0.063-0.094-0.056-0.055-0.13-0.101-0.188-0.156-0.043-0.038-0.081-0.088-0.125-0.125-0.009-0.01-0.022-0.022-0.031-0.031-0.005-0.005 0.005-0.026 0-0.031-0.149-0.167-0.341-0.307-0.5-0.469-0.019-0.021-0.043-0.041-0.063-0.063-0.037-0.034-0.056-0.091-0.094-0.125-0.107-0.106-0.201-0.209-0.313-0.313-0.053-0.06-0.102-0.129-0.156-0.188-0.11-0.109-0.229-0.206-0.344-0.313-0.301-0.337-0.628-0.651-0.969-0.969-0.052-0.059-0.103-0.129-0.156-0.188-0.111-0.11-0.228-0.205-0.344-0.313-0.055-0.062-0.1-0.126-0.156-0.188-0.101-0.1-0.208-0.183-0.313-0.281-0.053-0.059-0.102-0.129-0.156-0.188-0.107-0.106-0.233-0.209-0.344-0.313-0.053-0.059-0.102-0.129-0.156-0.188-0.107-0.106-0.232-0.209-0.344-0.313-0.056-0.062-0.099-0.126-0.156-0.188-0.1-0.098-0.209-0.185-0.313-0.281-0.024-0.027-0.038-0.067-0.063-0.094-0.033-0.03-0.061-0.064-0.094-0.094-0.067-0.066-0.15-0.122-0.219-0.188-0.044-0.038-0.08-0.087-0.125-0.125-0.053-0.06-0.102-0.128-0.156-0.188-0.098-0.097-0.211-0.186-0.313-0.281-0.062-0.069-0.124-0.15-0.188-0.219-0.032-0.031-0.062-0.063-0.094-0.094-0.198-0.21-0.412-0.423-0.625-0.625-0.021-0.021-0.042-0.041-0.063-0.063-0.048-0.054-0.107-0.103-0.156-0.156-0.011-0.01-0.02-0.021-0.031-0.031-0.066-0.065-0.151-0.123-0.219-0.188-0.032-0.028-0.061-0.066-0.094-0.094-0.029-0.032-0.065-0.062-0.094-0.094-0.037-0.034-0.056-0.091-0.094-0.125l-0.063-0.063c-0.229-0.244-0.47-0.485-0.719-0.719-0.049-0.054-0.107-0.102-0.156-0.156-0.011-0.01-0.02-0.021-0.031-0.031-0.067-0.066-0.15-0.122-0.219-0.188-0.033-0.029-0.061-0.065-0.094-0.094-0.029-0.032-0.064-0.062-0.094-0.094-0.037-0.035-0.056-0.091-0.094-0.125-0.093-0.092-0.186-0.191-0.281-0.281-0.062-0.069-0.124-0.15-0.188-0.219-0.1-0.099-0.209-0.184-0.313-0.281-0.065-0.073-0.121-0.147-0.188-0.219-0.053-0.052-0.102-0.105-0.156-0.156-0.197-0.207-0.413-0.394-0.625-0.594-0.062-0.07-0.124-0.15-0.188-0.219-0.097-0.096-0.212-0.187-0.313-0.281-0.065-0.073-0.12-0.146-0.188-0.219-0.089-0.088-0.19-0.164-0.281-0.25-0.029-0.032-0.065-0.062-0.094-0.094-0.038-0.035-0.055-0.09-0.094-0.125-0.077-0.076-0.171-0.144-0.25-0.219-0.022-0.019-0.041-0.044-0.063-0.063-0.063-0.071-0.123-0.149-0.188-0.219-0.072-0.071-0.145-0.149-0.219-0.219-0.02-0.021-0.042-0.041-0.063-0.063-0.366-0.409-0.768-0.805-1.188-1.188-0.072-0.072-0.144-0.148-0.219-0.219-0.021-0.021-0.042-0.041-0.063-0.063-0.283-0.316-0.591-0.605-0.906-0.906-0.021-0.021-0.042-0.041-0.063-0.063-0.067-0.075-0.15-0.144-0.219-0.219-0.077-0.076-0.171-0.144-0.25-0.219-0.011-0.01-0.02-0.022-0.031-0.031-0.034-0.038-0.059-0.087-0.094-0.125-0.043-0.04-0.082-0.086-0.125-0.125-0.031-0.03-0.063-0.063-0.094-0.094-0.211-0.223-0.429-0.441-0.656-0.656-0.236-0.243-0.463-0.486-0.719-0.719-0.083-0.082-0.165-0.169-0.25-0.25-0.072-0.08-0.145-0.171-0.219-0.25-0.087-0.086-0.192-0.166-0.281-0.25-0.303-0.339-0.63-0.648-0.969-0.969-0.038-0.043-0.086-0.082-0.125-0.125-0.038-0.035-0.056-0.09-0.094-0.125-0.087-0.086-0.191-0.165-0.281-0.25-0.074-0.083-0.142-0.168-0.219-0.25-0.032-0.031-0.062-0.063-0.094-0.094-0.282-0.298-0.565-0.592-0.875-0.875-0.057-0.056-0.129-0.1-0.188-0.156l-0.031-0.031c-0.016-0.014-0.015-0.048-0.031-0.063-0.306-0.342-0.627-0.675-0.969-1-0.137-0.141-0.294-0.268-0.438-0.406-0.021-0.021-0.042-0.041-0.063-0.063-0.049-0.055-0.106-0.102-0.156-0.156-0.033-0.03-0.061-0.064-0.094-0.094-0.232-0.249-0.468-0.48-0.719-0.719-0.082-0.092-0.165-0.19-0.25-0.281-0.079-0.078-0.169-0.142-0.25-0.219-0.04-0.044-0.085-0.081-0.125-0.125-0.044-0.041-0.081-0.085-0.125-0.125-0.072-0.072-0.145-0.148-0.219-0.219-0.081-0.091-0.166-0.192-0.25-0.281-0.076-0.075-0.172-0.144-0.25-0.219-0.081-0.091-0.166-0.191-0.25-0.281-0.078-0.077-0.17-0.143-0.25-0.219-0.045-0.051-0.079-0.106-0.125-0.156-0.043-0.04-0.081-0.085-0.125-0.125-0.069-0.068-0.148-0.12-0.219-0.188-0.082-0.092-0.166-0.191-0.25-0.281-0.077-0.076-0.171-0.144-0.25-0.219-0.084-0.094-0.164-0.189-0.25-0.281-0.021-0.02-0.042-0.042-0.063-0.063-0.291-0.308-0.586-0.613-0.906-0.906-0.078-0.077-0.171-0.143-0.25-0.219-0.085-0.095-0.163-0.188-0.25-0.281-0.021-0.02-0.042-0.042-0.063-0.063-0.219-0.232-0.421-0.464-0.656-0.688-0.127-0.13-0.274-0.247-0.406-0.375-0.021-0.021-0.042-0.041-0.063-0.063-0.059-0.066-0.127-0.122-0.188-0.188-0.032-0.03-0.061-0.064-0.094-0.094-0.22-0.236-0.45-0.46-0.688-0.688-0.092-0.103-0.186-0.211-0.281-0.313-0.068-0.068-0.149-0.121-0.219-0.188-0.059-0.066-0.127-0.122-0.188-0.188-0.033-0.03-0.061-0.063-0.094-0.094-0.221-0.236-0.45-0.46-0.688-0.688-0.091-0.102-0.188-0.212-0.281-0.313-0.069-0.068-0.148-0.12-0.219-0.188-0.095-0.106-0.183-0.208-0.281-0.313-0.058-0.058-0.128-0.099-0.188-0.156-0.091-0.102-0.187-0.212-0.281-0.313-0.067-0.066-0.151-0.122-0.219-0.188-0.091-0.102-0.187-0.212-0.281-0.313-0.067-0.066-0.151-0.122-0.219-0.188-0.094-0.105-0.184-0.209-0.281-0.313-0.021-0.021-0.041-0.042-0.063-0.063-0.294-0.311-0.584-0.61-0.906-0.906-0.057-0.056-0.13-0.1-0.188-0.156-0.1-0.112-0.209-0.233-0.313-0.344-0.021-0.021-0.041-0.042-0.063-0.063-0.189-0.199-0.393-0.4-0.594-0.594-0.068-0.077-0.149-0.143-0.219-0.219-0.032-0.03-0.061-0.064-0.094-0.094-0.22-0.235-0.451-0.461-0.688-0.688-0.153-0.158-0.309-0.315-0.469-0.469-0.104-0.116-0.205-0.23-0.313-0.344-0.052-0.052-0.103-0.105-0.156-0.156-0.158-0.164-0.334-0.309-0.5-0.469-0.1-0.112-0.209-0.233-0.313-0.344-0.058-0.058-0.128-0.099-0.188-0.156-0.104-0.117-0.204-0.229-0.313-0.344-0.053-0.052-0.103-0.104-0.156-0.156-0.159-0.165-0.333-0.308-0.5-0.469-0.101-0.113-0.208-0.233-0.313-0.344-0.056-0.056-0.13-0.101-0.188-0.156-0.103-0.115-0.206-0.23-0.313-0.344-0.021-0.021-0.041-0.042-0.063-0.063-0.249-0.262-0.513-0.498-0.781-0.75-0.011-0.01-0.02-0.022-0.031-0.031-0.038-0.035-0.056-0.09-0.094-0.125-0.026-0.026-0.068-0.037-0.094-0.063-0.016-0.016-0.016-0.046-0.031-0.063l-0.031-0.031c-0.405-0.453-0.851-0.887-1.313-1.313-0.163-0.161-0.329-0.343-0.5-0.5-1.126-1.113-2.418-2.139-3.906-3.03-5.952-3.571-14.56-5.531-26.813-5.531-22.03 0-39.25 10.92-52.19 25.19-2.887 3.184-5.557 6.557-8.06 10-0.011-0.01-0.02-0.022-0.031-0.031-0.104-0.105-0.205-0.209-0.313-0.313-0.102-0.115-0.207-0.231-0.313-0.344-0.057-0.057-0.129-0.1-0.188-0.156-0.104-0.117-0.204-0.229-0.313-0.344l-0.031-0.031c-0.204-0.216-0.408-0.416-0.625-0.625-0.102-0.115-0.207-0.231-0.313-0.344-0.056-0.056-0.13-0.101-0.188-0.156-0.102-0.115-0.207-0.231-0.313-0.344-0.056-0.056-0.13-0.101-0.188-0.156-0.102-0.115-0.207-0.231-0.313-0.344-0.057-0.057-0.129-0.1-0.188-0.156-0.102-0.115-0.207-0.231-0.313-0.344-0.057-0.057-0.129-0.1-0.188-0.156-0.102-0.115-0.207-0.231-0.313-0.344-0.057-0.057-0.129-0.1-0.188-0.156-0.102-0.115-0.207-0.231-0.313-0.344-0.057-0.057-0.129-0.1-0.188-0.156-0.102-0.115-0.207-0.231-0.313-0.344-0.057-0.057-0.129-0.1-0.188-0.156-0.102-0.115-0.207-0.231-0.313-0.344-0.057-0.057-0.129-0.1-0.188-0.156-0.102-0.115-0.206-0.231-0.313-0.344-0.057-0.057-0.129-0.1-0.188-0.156-0.189-0.196-0.363-0.404-0.563-0.594-0.163-0.167-0.329-0.337-0.5-0.5-0.163-0.167-0.329-0.337-0.5-0.5-0.163-0.167-0.329-0.337-0.5-0.5-0.163-0.167-0.329-0.337-0.5-0.5-0.163-0.167-0.329-0.337-0.5-0.5-0.239-0.245-0.494-0.483-0.75-0.719-0.056-0.056-0.13-0.101-0.188-0.156-0.058-0.065-0.128-0.123-0.188-0.188-0.048-0.045-0.077-0.112-0.125-0.156-0.056-0.056-0.13-0.101-0.188-0.156-0.058-0.065-0.128-0.123-0.188-0.188-0.048-0.045-0.077-0.112-0.125-0.156-0.056-0.056-0.13-0.101-0.188-0.156-0.058-0.065-0.128-0.123-0.188-0.188-0.048-0.045-0.077-0.112-0.125-0.156-0.056-0.056-0.13-0.101-0.188-0.156-0.058-0.065-0.128-0.123-0.188-0.188-0.048-0.045-0.077-0.112-0.125-0.156-0.057-0.057-0.129-0.1-0.188-0.156-0.01-0.011-0.022-0.021-0.031-0.031-0.027-0.024-0.035-0.07-0.063-0.094-0.069-0.076-0.148-0.144-0.219-0.219-0.057-0.057-0.129-0.1-0.188-0.156-0.102-0.115-0.207-0.231-0.313-0.344-0.057-0.057-0.129-0.1-0.188-0.156-0.104-0.117-0.204-0.229-0.313-0.344l-0.031-0.031c-0.213-0.226-0.428-0.437-0.656-0.656-0.155-0.16-0.307-0.313-0.469-0.469-0.102-0.115-0.207-0.231-0.313-0.344-0.056-0.056-0.13-0.101-0.188-0.156-0.102-0.115-0.207-0.231-0.313-0.344-0.057-0.057-0.129-0.1-0.188-0.156-0.102-0.115-0.207-0.231-0.313-0.344-0.057-0.057-0.129-0.1-0.188-0.156-0.102-0.115-0.207-0.231-0.313-0.344-0.057-0.057-0.129-0.1-0.188-0.156-0.102-0.115-0.207-0.231-0.313-0.344-0.057-0.057-0.129-0.1-0.188-0.156-0.102-0.115-0.207-0.231-0.313-0.344-0.057-0.057-0.129-0.1-0.188-0.156-0.102-0.115-0.207-0.231-0.313-0.344-0.057-0.057-0.129-0.1-0.188-0.156-0.102-0.115-0.206-0.231-0.313-0.344-0.057-0.057-0.129-0.1-0.188-0.156-0.189-0.196-0.363-0.404-0.563-0.594-0.163-0.167-0.329-0.337-0.5-0.5-0.163-0.167-0.329-0.337-0.5-0.5-0.163-0.167-0.329-0.337-0.5-0.5-0.163-0.167-0.329-0.337-0.5-0.5-0.163-0.167-0.329-0.337-0.5-0.5-0.239-0.245-0.494-0.483-0.75-0.719-0.056-0.056-0.13-0.101-0.188-0.156-0.058-0.065-0.128-0.123-0.188-0.188-0.048-0.045-0.077-0.112-0.125-0.156-0.056-0.056-0.13-0.101-0.188-0.156-0.058-0.065-0.128-0.123-0.188-0.188-0.048-0.045-0.077-0.112-0.125-0.156-0.056-0.056-0.13-0.101-0.188-0.156-0.058-0.065-0.128-0.123-0.188-0.188-0.048-0.045-0.077-0.112-0.125-0.156-0.041-0.04-0.084-0.085-0.125-0.125-0.016-0.015-0.046-0.017-0.063-0.031-0.058-0.065-0.128-0.123-0.188-0.188-0.048-0.045-0.077-0.112-0.125-0.156-0.057-0.057-0.129-0.1-0.188-0.156-0.01-0.011-0.022-0.021-0.031-0.031-0.027-0.024-0.035-0.07-0.063-0.094-0.069-0.076-0.148-0.144-0.219-0.219-0.057-0.057-0.129-0.1-0.188-0.156-0.102-0.115-0.207-0.231-0.313-0.344-0.057-0.057-0.129-0.1-0.188-0.156-0.102-0.115-0.206-0.231-0.313-0.344-0.057-0.057-0.129-0.1-0.188-0.156-1.197-1.243-2.583-2.394-4.219-3.375-5.952-3.571-14.529-5.531-26.781-5.531" color="#000000"/>
 <g id="g8" fill-rule="evenodd">
  <path id="path10" fill-opacity="0.067" d="m256 1c-140.83 0-255 114.17-255 255s114.17 255 255 255 255-114.17 255-255-114.17-255-255-255m8.827 44.931c120.9 0 218.9 98 218.9 218.9s-98 218.9-218.9 218.9-218.93-98-218.93-218.9 98.03-218.9 218.93-218.9"/>
  <g id="g12" fill-opacity="0.129">
   <path id="path14" d="m256 4.433c-138.94 0-251.57 112.63-251.57 251.57s112.63 251.57 251.57 251.57 251.57-112.63 251.57-251.57-112.63-251.57-251.57-251.57m5.885 38.556c120.9 0 218.9 98 218.9 218.9s-98 218.9-218.9 218.9-218.93-98-218.93-218.9 98.03-218.9 218.93-218.9"/>
   <path id="path16" d="m256 8.356c-136.77 0-247.64 110.87-247.64 247.64s110.87 247.64 247.64 247.64 247.64-110.87 247.64-247.64-110.87-247.64-247.64-247.64m2.942 31.691c120.9 0 218.9 98 218.9 218.9s-98 218.9-218.9 218.9-218.93-98-218.93-218.9 98.03-218.9 218.93-218.9"/>
  </g>
  <path id="path18" d="m253.04 7.859c-135.42 0-245.19 109.78-245.19 245.19 0 135.42 109.78 245.19 245.19 245.19 135.42 0 245.19-109.78 245.19-245.19 0-135.42-109.78-245.19-245.19-245.19zm0 26.297c120.9 0 218.9 98 218.9 218.9s-98 218.9-218.9 218.9-218.93-98-218.93-218.9 98.03-218.9 218.93-218.9z" stroke-opacity="0.31" stroke="#000" stroke-width="4.904" fill="#fff"/>
 </g>
 <path id="path66" fill="#fff" d="m271.69 149.66c-22.03 0-39.28 10.92-52.22 25.19-12.23 13.485-20.865 29.929-27.344 44l-30.375 1.344-4.281 0.188v16.406l4.313 0.188 22.25 0.938-26.22 63.41c-5.698 13.782-10.592 25.451-15.25 33.28-2.329 3.915-4.59 6.829-6.625 8.594-2.035 1.764-3.608 2.375-5.313 2.375-4.301 0-6.517-0.797-7.938-1.719s-2.315-2.155-3.469-4c-1.153-1.845-2.451-4.333-5.03-6.469-2.58-2.135-6.336-3.469-11-3.469s-8.586 1.158-11.5 3.344-4.75 5.517-4.75 8.969c0 5.411 3.08 11.02 9.03 14.594 5.952 3.571 14.56 5.531 26.813 5.531 21.993 0 39.559-10.673 53.34-26.5 13.785-15.827 24.19-36.806 33.09-58.56l15.844-38.969 31.13-1.344 4.281-0.188v-16.438l-4.281-0.156-23.22-0.969c7.535-18.357 13.486-32.32 18.313-40.75 2.698-4.71 5.151-7.906 7.219-9.719s3.524-2.313 5.344-2.313c4.301 0 6.485 0.797 7.906 1.719s2.315 2.155 3.469 4c1.153 1.845 2.482 4.333 5.063 6.469 2.58 2.135 6.304 3.469 10.969 3.469 4.664 0 8.617-1.158 11.531-3.344s4.719-5.517 4.719-8.969c0-5.411-3.08-11.02-9.03-14.594-5.952-3.571-14.529-5.531-26.781-5.531m117.53 0c-22.03 0-39.25 10.92-52.19 25.19-12.23 13.485-20.865 29.929-27.344 44l-30.375 1.344-4.281 0.188v16.406l4.281 0.188 22.281 0.938-26.22 63.41c-5.698 13.782-10.592 25.451-15.25 33.28-2.329 3.915-4.59 6.829-6.625 8.594-2.035 1.764-3.639 2.375-5.344 2.375-4.301 0-6.485-0.797-7.906-1.719s-2.315-2.155-3.469-4c-1.153-1.845-2.482-4.333-5.063-6.469-2.58-2.135-6.304-3.469-10.969-3.469-4.664 0-8.617 1.158-11.531 3.344s-4.719 5.517-4.719 8.969c0 5.411 3.08 11.02 9.03 14.594 5.952 3.571 14.529 5.531 26.781 5.531 21.993 0 39.559-10.673 53.34-26.5 13.785-15.827 24.19-36.806 33.09-58.56l15.844-38.969 31.16-1.344 4.281-0.188v-16.438l-4.281-0.156-23.22-0.969c7.535-18.357 13.486-32.32 18.313-40.75 2.698-4.71 5.12-7.906 7.188-9.719s3.524-2.313 5.344-2.313c4.301 0 6.517 0.797 7.938 1.719s2.315 2.155 3.469 4c1.153 1.845 2.451 4.333 5.03 6.469 2.58 2.135 6.336 3.469 11 3.469s8.586-1.158 11.5-3.344 4.75-5.517 4.75-8.969c0-5.411-3.08-11.02-9.03-14.594-5.952-3.571-14.56-5.531-26.813-5.531" color="#000000"/>
</svg>
