<?xml version="1.0" encoding="UTF-8" standalone="no"?>
<svg
   xmlns:dc="http://purl.org/dc/elements/1.1/"
   xmlns:cc="http://creativecommons.org/ns#"
   xmlns:rdf="http://www.w3.org/1999/02/22-rdf-syntax-ns#"
   xmlns:svg="http://www.w3.org/2000/svg"
   xmlns="http://www.w3.org/2000/svg"
   xmlns:sodipodi="http://sodipodi.sourceforge.net/DTD/sodipodi-0.dtd"
   xmlns:inkscape="http://www.inkscape.org/namespaces/inkscape"
   viewBox="0 0 512 512"
   id="svg2"
   version="1.1"
   inkscape:version="0.91 r13725"
   sodipodi:docname="footnote.svg">
  <metadata
     id="metadata268">
    <rdf:RDF>
      <cc:Work
         rdf:about="">
        <dc:format>image/svg+xml</dc:format>
        <dc:type
           rdf:resource="http://purl.org/dc/dcmitype/StillImage" />
      </cc:Work>
    </rdf:RDF>
  </metadata>
  <defs
     id="defs266" />
  <sodipodi:namedview
     pagecolor="#ffffff"
     bordercolor="#666666"
     borderopacity="1"
     objecttolerance="10"
     gridtolerance="10"
     guidetolerance="10"
     inkscape:pageopacity="0"
     inkscape:pageshadow="2"
     inkscape:window-width="1680"
     inkscape:window-height="1024"
     id="namedview264"
     showgrid="false"
     inkscape:zoom="0.4609375"
     inkscape:cx="-162.71186"
     inkscape:cy="256"
     inkscape:window-x="0"
     inkscape:window-y="0"
     inkscape:window-maximized="0"
     inkscape:current-layer="svg2" />
  <path
     fill-rule="evenodd"
     d="m471.95 253.05c0 120.9-98.01 218.9-218.9 218.9-120.9 0-218.9-98.01-218.9-218.9 0-120.9 98.01-218.9 218.9-218.9 120.9 0 218.9 98.01 218.9 218.9"
     fill="#BF9E73"
     id="path4" />
  <path
     d="m149.28 60.28c-3.967 2.14-7.872 4.408-11.688 6.781v371.97c3.815 2.373 7.721 4.641 11.688 6.781v-385.53m-39.875 27.594c-4.04 3.516-7.948 7.169-11.719 10.969v308.41c3.772 3.8 7.679 7.452 11.719 10.969v-330.34"
     fill="#BF9E73"
     id="path6" />
  <path
     fill-opacity="0.286"
     d="m153.84 57.875c-4.959 2.526-9.83 5.241-14.563 8.125h227.53c-4.732-2.884-9.572-5.599-14.531-8.125h-198.44m-58.25 43.13c-2.558 2.648-5.05 5.35-7.469 8.125h329.84c-2.421-2.772-4.913-5.479-7.469-8.125h-314.91m-32.469 43.13c-1.534 2.669-3.01 5.387-4.438 8.125h388.72c-1.423-2.738-2.904-5.456-4.438-8.125h-379.84zm-18.906 43.13c-0.846 2.688-1.631 5.393-2.375 8.125h422.41c-0.744-2.73-1.529-5.439-2.375-8.125h-417.66m-8.906 43.13c-0.276 2.688-0.509 5.409-0.688 8.125h436.84c-0.178-2.715-0.411-5.438-0.688-8.125h-435.47m-0.219 43.13c0.252 2.724 0.555 5.431 0.906 8.125h434.09c0.351-2.694 0.654-5.401 0.906-8.125h-435.91m8.469 43.13c0.829 2.735 1.693 5.437 2.625 8.125h413.72c0.932-2.69 1.827-5.388 2.656-8.125h-419m18.344 43.13c1.532 2.738 3.106 5.462 4.75 8.125h372.78c1.649-2.671 3.245-5.379 4.781-8.125h-382.31m31.563 43.13c2.604 2.772 5.288 5.492 8.03 8.125h303.09c2.749-2.638 5.422-5.347 8.03-8.125h-319.16m56.13 43.13c5.471 2.94 11.08 5.649 16.813 8.125h173.28c5.737-2.475 11.342-5.185 16.813-8.125h-206.91"
     fill="#BF9E73"
     id="path8" />
  <g
     fill-rule="evenodd"
     id="g10">
    <path
       d="m256 1c-140.83 0-255 114.17-255 255s114.17 255 255 255 255-114.17 255-255-114.17-255-255-255m8.827 44.931c120.9 0 218.9 98 218.9 218.9s-98 218.9-218.9 218.9-218.93-98-218.93-218.9 98.03-218.9 218.93-218.9"
       fill-opacity="0.067"
       id="path12" />
    <g
       fill-opacity="0.129"
       id="g14">
      <path
         d="m256 4.433c-138.94 0-251.57 112.63-251.57 251.57s112.63 251.57 251.57 251.57 251.57-112.63 251.57-251.57-112.63-251.57-251.57-251.57m5.885 38.556c120.9 0 218.9 98 218.9 218.9s-98 218.9-218.9 218.9-218.93-98-218.93-218.9 98.03-218.9 218.93-218.9"
         id="path16" />
      <path
         d="m256 8.356c-136.77 0-247.64 110.87-247.64 247.64s110.87 247.64 247.64 247.64 247.64-110.87 247.64-247.64-110.87-247.64-247.64-247.64m2.942 31.691c120.9 0 218.9 98 218.9 218.9s-98 218.9-218.9 218.9-218.93-98-218.93-218.9 98.03-218.9 218.93-218.9"
         id="path18" />
    </g>
    <path
       stroke="#000"
       stroke-width="4.904"
       d="m253.04 7.859c-135.42 0-245.19 109.78-245.19 245.19 0 135.42 109.78 245.19 245.19 245.19 135.42 0 245.19-109.78 245.19-245.19 0-135.42-109.78-245.19-245.19-245.19zm0 26.297c120.9 0 218.9 98 218.9 218.9s-98 218.9-218.9 218.9-218.93-98-218.93-218.9 98.03-218.9 218.93-218.9z"
       stroke-opacity="0.31"
       fill="#fff"
       id="path20" />
  </g>
  <text
     font-size="129.23"
     y="231.36"
     x="729.64"
     font-family="'Gentium Book Basic'"
     line-height="125%"
     word-spacing="0"
     letter-spacing="0"
     id="text22">
    <tspan
       y="231.36"
       x="729.64"
       id="tspan24" />
  </text>
  <text
     transform="scale(4.0128.2492)"
     font-size="46.954"
     y="579.25"
     x="378.91"
     font-family="Arial"
     text-anchor="middle"
     id="text26" />
  <text
     font-size="129.23"
     y="151.36"
     x="1310.91"
     font-family="'Gentium Book Basic'"
     line-height="125%"
     word-spacing="0"
     letter-spacing="0"
     id="text28">
    <tspan
       y="151.36"
       x="1310.91"
       id="tspan30" />
  </text>
  <text
     transform="scale(4.0128.2492)"
     font-size="46.954"
     y="258.22"
     x="523.76"
     font-family="Arial"
     text-anchor="middle"
     id="text32" />
  <text
     font-size="129.23"
     y="-29.901"
     x="239.33"
     font-family="'Gentium Book Basic'"
     line-height="125%"
     word-spacing="0"
     letter-spacing="0"
     id="text34">
    <tspan
       y="-29.901"
       x="239.33"
       id="tspan36" />
  </text>
  <text
     transform="scale(4.0128.2492)"
     font-size="46.954"
     y="-469.14"
     x="256.72"
     font-family="Arial"
     text-anchor="middle"
     id="text38" />
  <text
     font-size="129.23"
     y="-246.37"
     x="1337.38"
     font-family="'Gentium Book Basic'"
     line-height="125%"
     word-spacing="0"
     letter-spacing="0"
     id="text40">
    <tspan
       y="-246.37"
       x="1337.38"
       id="tspan42" />
  </text>
  <text
     transform="scale(4.0128.2492)"
     font-size="46.954"
     y="-1337.8"
     x="530.36"
     font-family="Arial"
     text-anchor="middle"
     id="text44" />
  <text
     font-size="129.23"
     y="-326.38"
     x="1918.65"
     font-family="'Gentium Book Basic'"
     line-height="125%"
     word-spacing="0"
     letter-spacing="0"
     id="text46">
    <tspan
       y="-326.38"
       x="1918.65"
       id="tspan48" />
  </text>
  <text
     transform="scale(4.0128.2492)"
     font-size="46.954"
     y="-1658.84"
     x="675.21"
     font-family="Arial"
     text-anchor="middle"
     id="text50" />
  <text
     font-size="129.23"
     y="-798.78"
     x="1529.53"
     font-family="'Gentium Book Basic'"
     line-height="125%"
     word-spacing="0"
     letter-spacing="0"
     id="text52">
    <tspan
       y="-798.78"
       x="1529.53"
       id="tspan54" />
  </text>
  <text
     transform="scale(4.0128.2492)"
     font-size="46.954"
     y="-3554.49"
     x="578.24"
     font-family="Arial"
     text-anchor="middle"
     id="text56" />
  <text
     font-size="129.23"
     y="-878.78"
     x="2110.79"
     font-family="'Gentium Book Basic'"
     line-height="125%"
     word-spacing="0"
     letter-spacing="0"
     id="text58">
    <tspan
       y="-878.78"
       x="2110.79"
       id="tspan60" />
  </text>
  <text
     transform="scale(4.0128.2492)"
     font-size="46.954"
     y="-3875.52"
     x="723.09"
     font-family="Arial"
     text-anchor="middle"
     id="text62" />
  <g
     font-family="'Gentium Book Basic'"
     line-height="125%"
     word-spacing="0"
     letter-spacing="0"
     id="g64">
    <text
       y="535.94"
       x="277.99"
       font-size="208.33"
       id="text66">
      <tspan
         y="535.94"
         x="277.99"
         id="tspan68" />
    </text>
    <text
       y="270.87"
       x="-1745.96"
       font-size="129.23"
       id="text70">
      <tspan
         y="270.87"
         x="-1745.96"
         id="tspan72" />
    </text>
  </g>
  <text
     transform="scale(4.0128.2492)"
     font-size="46.954"
     y="737.79"
     x="-238.01"
     font-family="Arial"
     text-anchor="middle"
     id="text74" />
  <text
     font-size="129.23"
     y="190.87"
     x="-1164.69"
     font-family="'Gentium Book Basic'"
     line-height="125%"
     word-spacing="0"
     letter-spacing="0"
     id="text76">
    <tspan
       y="190.87"
       x="-1164.69"
       id="tspan78" />
  </text>
  <text
     transform="scale(4.0128.2492)"
     font-size="46.954"
     y="416.76"
     x="-93.17"
     font-family="Arial"
     text-anchor="middle"
     id="text80" />
  <text
     font-size="129.23"
     y="9.608"
     x="-2236.27"
     font-family="'Gentium Book Basic'"
     line-height="125%"
     word-spacing="0"
     letter-spacing="0"
     id="text82">
    <tspan
       y="9.608"
       x="-2236.27"
       id="tspan84" />
  </text>
  <text
     transform="scale(4.0128.2492)"
     font-size="46.954"
     y="-310.6"
     x="-360.2"
     font-family="Arial"
     text-anchor="middle"
     id="text86" />
  <text
     font-size="129.23"
     y="-206.86"
     x="-1138.22"
     font-family="'Gentium Book Basic'"
     line-height="125%"
     word-spacing="0"
     letter-spacing="0"
     id="text88">
    <tspan
       y="-206.86"
       x="-1138.22"
       id="tspan90" />
  </text>
  <text
     transform="scale(4.0128.2492)"
     font-size="46.954"
     y="-1179.26"
     x="-86.57"
     font-family="Arial"
     text-anchor="middle"
     id="text92" />
  <text
     font-size="129.23"
     y="-286.87"
     x="-556.95"
     font-family="'Gentium Book Basic'"
     line-height="125%"
     word-spacing="0"
     letter-spacing="0"
     id="text94">
    <tspan
       y="-286.87"
       x="-556.95"
       id="tspan96" />
  </text>
  <text
     transform="scale(4.0128.2492)"
     font-size="46.954"
     y="-1500.3"
     x="58.28"
     font-family="Arial"
     text-anchor="middle"
     id="text98" />
  <text
     font-size="129.23"
     y="-759.27"
     x="-946.07"
     font-family="'Gentium Book Basic'"
     line-height="125%"
     word-spacing="0"
     letter-spacing="0"
     id="text100">
    <tspan
       y="-759.27"
       x="-946.07"
       id="tspan102" />
  </text>
  <text
     transform="scale(4.0128.2492)"
     font-size="46.954"
     y="-3395.95"
     x="-38.686"
     font-family="Arial"
     text-anchor="middle"
     id="text104" />
  <text
     font-size="129.23"
     y="-839.27"
     x="-364.81"
     font-family="'Gentium Book Basic'"
     line-height="125%"
     word-spacing="0"
     letter-spacing="0"
     id="text106">
    <tspan
       y="-839.27"
       x="-364.81"
       id="tspan108" />
  </text>
  <text
     transform="scale(4.0128.2492)"
     font-size="46.954"
     y="-3716.98"
     x="106.16"
     font-family="Arial"
     text-anchor="middle"
     id="text110" />
  <g
     font-family="'Gentium Book Basic'"
     line-height="125%"
     word-spacing="0"
     letter-spacing="0"
     id="g112">
    <text
       y="575.45"
       x="-2197.61"
       font-size="208.33"
       id="text114">
      <tspan
         y="575.45"
         x="-2197.61"
         id="tspan116" />
    </text>
    <text
       y="525.1"
       x="-1144.61"
       font-size="129.23"
       id="text118">
      <tspan
         y="525.1"
         x="-1144.61"
         id="tspan120" />
    </text>
  </g>
  <text
     transform="scale(4.0128.2492)"
     font-size="46.954"
     y="1757.96"
     x="-88.16"
     font-family="Arial"
     text-anchor="middle"
     id="text122" />
  <text
     font-size="129.23"
     y="445.1"
     x="-563.34"
     font-family="'Gentium Book Basic'"
     line-height="125%"
     word-spacing="0"
     letter-spacing="0"
     id="text124">
    <tspan
       y="445.1"
       x="-563.34"
       id="tspan126" />
  </text>
  <text
     transform="scale(4.0128.2492)"
     font-size="46.954"
     y="1436.93"
     x="56.693"
     font-family="Arial"
     text-anchor="middle"
     id="text128" />
  <text
     font-size="129.23"
     y="263.84"
     x="-1634.92"
     font-family="'Gentium Book Basic'"
     line-height="125%"
     word-spacing="0"
     letter-spacing="0"
     id="text130">
    <tspan
       y="263.84"
       x="-1634.92"
       id="tspan132" />
  </text>
  <text
     transform="scale(4.0128.2492)"
     font-size="46.954"
     y="709.58"
     x="-210.35"
     font-family="Arial"
     text-anchor="middle"
     id="text134" />
  <text
     font-size="129.23"
     y="47.37"
     x="-536.87"
     font-family="'Gentium Book Basic'"
     line-height="125%"
     word-spacing="0"
     letter-spacing="0"
     id="text136">
    <tspan
       y="47.37"
       x="-536.87"
       id="tspan138" />
  </text>
  <text
     transform="scale(4.0128.2492)"
     font-size="46.954"
     y="-159.09"
     x="63.29"
     font-family="Arial"
     text-anchor="middle"
     id="text140" />
  <text
     font-size="129.23"
     y="-32.643"
     x="44.4"
     font-family="'Gentium Book Basic'"
     line-height="125%"
     word-spacing="0"
     letter-spacing="0"
     id="text142">
    <tspan
       y="-32.643"
       x="44.4"
       id="tspan144" />
  </text>
  <text
     transform="scale(4.0128.2492)"
     font-size="46.954"
     y="-480.13"
     x="208.14"
     font-family="Arial"
     text-anchor="middle"
     id="text146" />
  <text
     font-size="129.23"
     y="-505.04"
     x="-344.72"
     font-family="'Gentium Book Basic'"
     line-height="125%"
     word-spacing="0"
     letter-spacing="0"
     id="text148">
    <tspan
       y="-505.04"
       x="-344.72"
       id="tspan150" />
  </text>
  <text
     transform="scale(4.0128.2492)"
     font-size="46.954"
     y="-2375.78"
     x="111.17"
     font-family="Arial"
     text-anchor="middle"
     id="text152" />
  <text
     font-size="129.23"
     y="-585.04"
     x="236.54"
     font-family="'Gentium Book Basic'"
     line-height="125%"
     word-spacing="0"
     letter-spacing="0"
     id="text154">
    <tspan
       y="-585.04"
       x="236.54"
       id="tspan156" />
  </text>
  <text
     transform="scale(4.0128.2492)"
     font-size="46.954"
     y="-2696.8"
     x="256.02"
     font-family="Arial"
     text-anchor="middle"
     id="text158" />
  <g
     font-family="'Gentium Book Basic'"
     line-height="125%"
     word-spacing="0"
     letter-spacing="0"
     id="g160">
    <text
       y="829.68"
       x="-1596.26"
       font-size="208.33"
       id="text162">
      <tspan
         y="829.68"
         x="-1596.26"
         id="tspan164" />
    </text>
    <text
       y="246.55"
       x="1403.27"
       font-size="129.23"
       id="text166">
      <tspan
         y="246.55"
         x="1403.27"
         id="tspan168" />
    </text>
  </g>
  <text
     transform="scale(4.0128.2492)"
     font-size="46.954"
     y="640.19"
     x="546.78"
     font-family="Arial"
     text-anchor="middle"
     id="text170" />
  <text
     font-size="129.23"
     y="166.55"
     x="1984.54"
     font-family="'Gentium Book Basic'"
     line-height="125%"
     word-spacing="0"
     letter-spacing="0"
     id="text172">
    <tspan
       y="166.55"
       x="1984.54"
       id="tspan174" />
  </text>
  <text
     transform="scale(4.0128.2492)"
     font-size="46.954"
     y="319.16"
     x="691.63"
     font-family="Arial"
     text-anchor="middle"
     id="text176" />
  <text
     font-size="129.23"
     y="-14.715"
     x="912.96"
     font-family="'Gentium Book Basic'"
     line-height="125%"
     word-spacing="0"
     letter-spacing="0"
     id="text178">
    <tspan
       y="-14.715"
       x="912.96"
       id="tspan180" />
  </text>
  <text
     transform="scale(4.0128.2492)"
     font-size="46.954"
     y="-408.2"
     x="424.59"
     font-family="Arial"
     text-anchor="middle"
     id="text182" />
  <text
     font-size="129.23"
     y="-231.18"
     x="2011.01"
     font-family="'Gentium Book Basic'"
     line-height="125%"
     word-spacing="0"
     letter-spacing="0"
     id="text184">
    <tspan
       y="-231.18"
       x="2011.01"
       id="tspan186" />
  </text>
  <text
     transform="scale(4.0128.2492)"
     font-size="46.954"
     y="-1276.86"
     x="698.23"
     font-family="Arial"
     text-anchor="middle"
     id="text188" />
  <text
     font-size="129.23"
     y="-311.19"
     x="2592.28"
     font-family="'Gentium Book Basic'"
     line-height="125%"
     word-spacing="0"
     letter-spacing="0"
     id="text190">
    <tspan
       y="-311.19"
       x="2592.28"
       id="tspan192" />
  </text>
  <text
     transform="scale(4.0128.2492)"
     font-size="46.954"
     y="-1597.9"
     x="843.08"
     font-family="Arial"
     text-anchor="middle"
     id="text194" />
  <text
     font-size="129.23"
     y="-783.59"
     x="2203.16"
     font-family="'Gentium Book Basic'"
     line-height="125%"
     word-spacing="0"
     letter-spacing="0"
     id="text196">
    <tspan
       y="-783.59"
       x="2203.16"
       id="tspan198" />
  </text>
  <text
     transform="scale(4.0128.2492)"
     font-size="46.954"
     y="-3493.55"
     x="746.11"
     font-family="Arial"
     text-anchor="middle"
     id="text200" />
  <text
     font-size="129.23"
     y="-863.59"
     x="2784.42"
     font-family="'Gentium Book Basic'"
     line-height="125%"
     word-spacing="0"
     letter-spacing="0"
     id="text202">
    <tspan
       y="-863.59"
       x="2784.42"
       id="tspan204" />
  </text>
  <text
     transform="scale(4.0128.2492)"
     font-size="46.954"
     y="-3814.58"
     x="890.96"
     font-family="Arial"
     text-anchor="middle"
     id="text206" />
  <g
     font-family="'Gentium Book Basic'"
     line-height="125%"
     word-spacing="0"
     letter-spacing="0"
     id="g208">
    <text
       y="551.13"
       x="951.62"
       font-size="208.33"
       id="text210">
      <tspan
         y="551.13"
         x="951.62"
         id="tspan212" />
    </text>
    <text
       y="246.55"
       x="1403.27"
       font-size="129.23"
       id="text214">
      <tspan
         y="246.55"
         x="1403.27"
         id="tspan216" />
    </text>
  </g>
  <text
     transform="scale(4.0128.2492)"
     font-size="46.954"
     y="640.19"
     x="546.78"
     font-family="Arial"
     text-anchor="middle"
     id="text218" />
  <text
     font-size="129.23"
     y="166.55"
     x="1984.54"
     font-family="'Gentium Book Basic'"
     line-height="125%"
     word-spacing="0"
     letter-spacing="0"
     id="text220">
    <tspan
       y="166.55"
       x="1984.54"
       id="tspan222" />
  </text>
  <text
     transform="scale(4.0128.2492)"
     font-size="46.954"
     y="319.16"
     x="691.63"
     font-family="Arial"
     text-anchor="middle"
     id="text224" />
  <text
     font-size="129.23"
     y="-14.715"
     x="912.96"
     font-family="'Gentium Book Basic'"
     line-height="125%"
     word-spacing="0"
     letter-spacing="0"
     id="text226">
    <tspan
       y="-14.715"
       x="912.96"
       id="tspan228" />
  </text>
  <text
     transform="scale(4.0128.2492)"
     font-size="46.954"
     y="-408.2"
     x="424.59"
     font-family="Arial"
     text-anchor="middle"
     id="text230" />
  <text
     font-size="129.23"
     y="-231.18"
     x="2011.01"
     font-family="'Gentium Book Basic'"
     line-height="125%"
     word-spacing="0"
     letter-spacing="0"
     id="text232">
    <tspan
       y="-231.18"
       x="2011.01"
       id="tspan234" />
  </text>
  <text
     transform="scale(4.0128.2492)"
     font-size="46.954"
     y="-1276.85"
     x="698.23"
     font-family="Arial"
     text-anchor="middle"
     id="text236" />
  <text
     font-size="129.23"
     y="-311.19"
     x="2592.28"
     font-family="'Gentium Book Basic'"
     line-height="125%"
     word-spacing="0"
     letter-spacing="0"
     id="text238">
    <tspan
       y="-311.19"
       x="2592.28"
       id="tspan240" />
  </text>
  <text
     transform="scale(4.0128.2492)"
     font-size="46.954"
     y="-1597.89"
     x="843.08"
     font-family="Arial"
     text-anchor="middle"
     id="text242" />
  <text
     font-size="129.23"
     y="-783.59"
     x="2203.16"
     font-family="'Gentium Book Basic'"
     line-height="125%"
     word-spacing="0"
     letter-spacing="0"
     id="text244">
    <tspan
       y="-783.59"
       x="2203.16"
       id="tspan246" />
  </text>
  <text
     transform="scale(4.0128.2492)"
     font-size="46.954"
     y="-3493.53"
     x="746.11"
     font-family="Arial"
     text-anchor="middle"
     id="text248" />
  <text
     font-size="129.23"
     y="-863.59"
     x="2784.42"
     font-family="'Gentium Book Basic'"
     line-height="125%"
     word-spacing="0"
     letter-spacing="0"
     id="text250">
    <tspan
       y="-863.59"
       x="2784.42"
       id="tspan252" />
  </text>
  <text
     transform="scale(4.0128.2492)"
     font-size="46.954"
     y="-3814.56"
     x="890.96"
     font-family="Arial"
     text-anchor="middle"
     id="text254" />
  <text
     font-size="208.33"
     y="551.13"
     x="951.62"
     font-family="'Gentium Book Basic'"
     line-height="125%"
     word-spacing="0"
     letter-spacing="0"
     id="text256">
    <tspan
       y="551.13"
       x="951.62"
       id="tspan258" />
  </text>
  <path
     opacity="0.25"
     d="m373.79 147.91c-2.919 0.151-5.472 1.093-7.344 2.906l-0.125 0.094-13.06 13.154-5.498-5.498h-230.19v23.563l23.594 23.594h-23.594v23.563l23.625 23.625h-23.625v23.594l23.625 23.625h-23.625v23.563l23.594 23.594h-23.594v23.594l97.83 97.83c12.23 2.12 24.806 3.234 37.643 3.234 120.89 0 218.9-98 218.9-218.9 0-7.408-0.371-14.729-1.09-21.947l-69.16-69.16-0.002-0.004c-8.762-8.762-18.889-13.853-26.623-14.03-0.421-0.009-0.852-0.022-1.281 0"
     id="path260" />
  <path
     d="m373.8 147.91c-2.919 0.151-5.472 1.093-7.344 2.906l-0.125 0.094-13.813 13.906-0.312 0.281 0.312 0.281 59.16 59.13 0.313 0.313 0.281-0.313 13.656-13.656 0.188-0.188c0.068-0.068 0.116-0.139 0.125-0.156 3.327-3.47 3.672-9.107 1.656-15.406-2.024-6.324-6.443-13.377-12.781-19.719l-13.406-13.438c-8.763-8.764-18.89-13.857-26.625-14.03-0.421-0.009-0.852-0.022-1.281 0m-256.22 10.656v23.563h206.28c5.514-5.566 11.02-11.13 16.5-16.719 0.437-2.528 4.01-2.226 4.406-3.969 1.032-0.895 2.02-1.865 3-2.875h-230.19m227.59 13.563l-0.313 0.313-14.625 14.656-0.281 0.313 0.281 0.313 59.13 59.09 0.313 0.313 0.313-0.313 14.625-14.656 0.281-0.281-0.281-0.313-59.12-59.12-0.313-0.313m-23.688 23.688l-0.313 0.281-89.22 89.31-11.03 10.969-2.781 2.813-0.094 0.031v0.125l-22.313 69.813-0.031 0.031c-0.802 3.762 0.432 7.918 3.094 10.438l0.031 0.031c2.468 1.846 5.723 2.307 8.531 1.188h0.031l70.781-22.344 0.063-0.031 0.094-0.094 2.281-2.313 10.688-10.625 89.63-89.59 0.281-0.313-0.281-0.313-59.16-59.12-0.281-0.281m-203.91 9.906v23.563h159.19c7.881-7.855 15.759-15.698 23.625-23.563h-182.81m0 47.19v23.594h112.06c7.784-7.875 15.601-15.752 23.438-23.594h-135.5m0 47.22v23.563h84.34c2.641-7.814 5.221-15.651 7.406-23.563h-91.75m230.28 0c-7.861 7.854-15.704 15.706-23.563 23.563h29.25v-23.563h-5.688m-113.87 9.125h0.062c0.084-0.003 0.136-0.003 0.219 0 0.009 0 0.022-0.001 0.031 0h0.031c0.775 0.01 1.518 0.353 2.063 0.906l5.094 5.063 19.16-1c0.008-0.001 0.023 0 0.031 0 0.758-0.034 1.523 0.25 2.094 0.75 0.672 0.594 1.051 1.479 1 2.375l-0.969 20.938 3.719 3.719c0.737 0.741 1.055 1.835 0.781 2.844-0.274 1.01-1.115 1.826-2.125 2.094l-33.375 8.938c-1 0.275-2.132 0.006-2.875-0.719l-6.469-6.469c-0.759-0.749-1.073-1.88-0.781-2.906l9.781-34.34c0.307-1.162 1.337-2.053 2.531-2.188m-116.41 38.03v23.594h70.47c1.542-7.968 3.688-15.803 6.094-23.594h-76.56"
     fill="#BF9E73"
     id="path262"
     style="fill:#ffffff" />
</svg>
