<?xml version="1.0" encoding="UTF-8" standalone="no"?>
<svg xmlns="http://www.w3.org/2000/svg" height="512" viewBox="0 0 512 512" width="512" version="1.1">
 <metadata id="metadata86"/>
 <g id="g4" fill-rule="evenodd">
  <path id="path6" fill="#BF9E73" d="m471.95 253.05c0 120.9-98.01 218.9-218.9 218.9-120.9 0-218.9-98.01-218.9-218.9 0-120.9 98.01-218.9 218.9-218.9 120.9 0 218.9 98.01 218.9 218.9"/>
  <path id="path10" fill-opacity="0.067" d="m256 1c-140.83 0-255 114.17-255 255s114.17 255 255 255 255-114.17 255-255-114.17-255-255-255m8.827 44.931c120.9 0 218.9 98 218.9 218.9s-98 218.9-218.9 218.9-218.93-98-218.93-218.9 98.03-218.9 218.93-218.9"/>
  <g id="g12" fill-opacity="0.129">
   <path id="path14" d="m256 4.433c-138.94 0-251.57 112.63-251.57 251.57s112.63 251.57 251.57 251.57 251.57-112.63 251.57-251.57-112.63-251.57-251.57-251.57m5.885 38.556c120.9 0 218.9 98 218.9 218.9s-98 218.9-218.9 218.9-218.93-98-218.93-218.9 98.03-218.9 218.93-218.9"/>
   <path id="path16" d="m256 8.356c-136.77 0-247.64 110.87-247.64 247.64s110.87 247.64 247.64 247.64 247.64-110.87 247.64-247.64-110.87-247.64-247.64-247.64m2.942 31.691c120.9 0 218.9 98 218.9 218.9s-98 218.9-218.9 218.9-218.93-98-218.93-218.9 98.03-218.9 218.93-218.9"/>
  </g>
  <path id="path18" d="m253.04 7.859c-135.42 0-245.19 109.78-245.19 245.19 0 135.42 109.78 245.19 245.19 245.19 135.42 0 245.19-109.78 245.19-245.19 0-135.42-109.78-245.19-245.19-245.19zm0 26.297c120.9 0 218.9 98 218.9 218.9s-98 218.9-218.9 218.9-218.93-98-218.93-218.9 98.03-218.9 218.93-218.9z" stroke-opacity="0.31" stroke="#000" stroke-width="4.904" fill="#fff"/>
 </g>
 <g id="g66" stroke-linejoin="round" fill-rule="evenodd" transform="matrix(.77061 0 0 .77061 62.55 55)" stroke="#fff" stroke-linecap="round" stroke-width="8" fill="#fff">
  <path id="path68" d="m151.39 406.88c-8.935 14.656-29.669 7.851-18.08-14.891 20.362-43.618 66.15-152.37 90.94-205.99 7.224-16.238 26.451-5.79 20.73 7.838-28.745 64.17-67.34 160.52-93.6 213.04z"/>
  <path id="path70" d="m275.89 341.7c-7.841 12.544-28.575 3.626-16.982-19.12 20.362-43.618 66.15-152.37 90.94-205.99 7.224-16.238 26.451-5.79 20.73 7.838-28.745 64.17-68.44 164.74-94.69 217.27z"/>
  <path id="path72" d="m228.04 333.5c-7.841 16.769-27.48 8.907-15.887-13.835 20.362-43.618 28.932-69.977 53.727-123.6 7.224-16.238 26.451-5.79 20.73 7.838-28.745 64.17-32.32 77.07-58.57 129.6z"/>
  <path id="path74" d="m1.972 297.11c1.063 7.621 5.58 25.31 7.02 30.671 42.51-9.05 75.97-25.844 113.86-48.933 10.779 8.169 17.551 15.172 26.17 23.646 2.802-4.981 9.578-19.02 12.04-22.718-9.02-8.483-12.758-13.453-19.937-18.468 8.637-5.969 8.759-7.66 29.399-25.23-4.312-7.861-6.674-15.578-10.986-23.24-9.988 10.358-17.542 18.681-39.08 32.452-30.685-15.57-58.272-31.29-113.52-45.42-2.661 9.383-4.03 15-5.122 25.453 23.457 7.558 68.792 19.401 94.38 36.683-18.925 12.864-44.867 25.334-94.21 35.11z"/>
  <path id="path76" d="m185.85 226.1c3.548-7.779 5.784-13.02 11.08-24.61-20.307-38.682-23.22-55.16-41.99-88.11-8-13.13-26.01-3.759-19.11 8.759 18.971 36.998 30.352 63.3 50.01 103.96z"/>
  <path id="path78" d="m500.25 224.01c-1.063-7.621-5.58-25.31-7.02-30.671-42.51 9.05-75.97 25.844-113.86 48.933-10.779-8.169-17.551-15.172-26.17-23.646-2.802 4.981-9.578 19.02-12.04 22.718 9.02 8.483 12.758 13.453 19.937 18.468-8.637 5.969-8.759 7.66-29.399 25.23 4.312 7.861 6.674 15.578 10.986 23.24 9.988-10.358 17.542-18.681 39.08-32.452 30.693 15.566 56.37 31.75 111.62 45.885 3.139-9.844 4.984-15.924 6.078-26.375-23.457-7.558-67.836-18.94-93.42-36.22 18.925-12.864 44.867-25.334 94.21-35.11z"/>
  <path id="path80" d="m315.45 289.96c-3.548 7.779-5.784 13.02-11.08 24.61 20.307 38.682 23.22 55.16 41.99 88.11 8 13.13 26.01 3.759 19.11-8.759-18.971-36.998-30.352-63.3-50.01-103.96z"/>
 </g>
</svg>
