<?xml version="1.0" encoding="UTF-8" standalone="no"?>
<svg
   xmlns:dc="http://purl.org/dc/elements/1.1/"
   xmlns:cc="http://creativecommons.org/ns#"
   xmlns:rdf="http://www.w3.org/1999/02/22-rdf-syntax-ns#"
   xmlns:svg="http://www.w3.org/2000/svg"
   xmlns="http://www.w3.org/2000/svg"
   xmlns:sodipodi="http://sodipodi.sourceforge.net/DTD/sodipodi-0.dtd"
   xmlns:inkscape="http://www.inkscape.org/namespaces/inkscape"
   viewBox="0 0 512 512"
   id="svg2"
   version="1.1"
   inkscape:version="0.91 r"
   sodipodi:docname="furiusisomount.svg">
  <metadata
     id="metadata26">
    <rdf:RDF>
      <cc:Work
         rdf:about="">
        <dc:format>image/svg+xml</dc:format>
        <dc:type
           rdf:resource="http://purl.org/dc/dcmitype/StillImage" />
        <dc:title></dc:title>
      </cc:Work>
    </rdf:RDF>
  </metadata>
  <defs
     id="defs24">
    <clipPath
       id="clipPath-588316483">
      <g
         transform="translate(0,-1004.3622)"
         id="g17">
        <path
           inkscape:connector-curvature="0"
           d="m -24,13 c 0,1.105 -0.672,2 -1.5,2 -0.828,0 -1.5,-0.895 -1.5,-2 0,-1.105 0.672,-2 1.5,-2 0.828,0 1.5,0.895 1.5,2 z"
           transform="matrix(15.333333,0,0,11.5,414.99999,878.8622)"
           style="fill:#BF9E73"
           id="path19" />
      </g>
    </clipPath>
    <linearGradient
       id="linear0"
       gradientUnits="userSpaceOnUse"
       y1="279.10001"
       x2="0"
       y2="268.32999"
       gradientTransform="matrix(2.797157,0,0,2.797157,-332.97333,-741.65338)">
      <stop
         style="stop-color:#c8c8c8;stop-opacity:1"
         id="stop22" />
      <stop
         offset="1"
         style="stop-color:#eaeaea;stop-opacity:1"
         id="stop24" />
    </linearGradient>
  </defs>
  <sodipodi:namedview
     pagecolor="#ffffff"
     bordercolor="#666666"
     borderopacity="1"
     objecttolerance="10"
     gridtolerance="10"
     guidetolerance="10"
     inkscape:pageopacity="0"
     inkscape:pageshadow="2"
     inkscape:window-width="640"
     inkscape:window-height="480"
     id="namedview22"
     showgrid="false"
     inkscape:zoom="0.4609375"
     inkscape:cx="256"
     inkscape:cy="256"
     inkscape:window-x="0"
     inkscape:window-y="0"
     inkscape:window-maximized="0"
     inkscape:current-layer="svg2" />
  <path
     style="fill:#BF9E73;fill-rule:evenodd"
     inkscape:connector-curvature="0"
     id="path6"
     d="m 471.95,253.05 c 0,120.9 -98.01,218.91 -218.91,218.91 -120.9,0 -218.91,-98.01 -218.91,-218.91 0,-120.9 98.01,-218.91 218.91,-218.91 120.9,0 218.91,98.01 218.91,218.91" />
  <path
     d="M 323.74008,117.44254 218.84059,303.646 142.0403,258.2266 110.93905,313.43818 275.90045,482.46895 C 385.67632,465.33905 469.7755,368.19824 469.7755,250.93168 c 0,-2.44803 -0.0482,-4.88433 -0.12009,-7.31417 L 377.64125,149.33348 323.74322,117.4479"
     id="path18"
     inkscape:connector-curvature="0"
     style="opacity:0.25" />
  <path
     style="fill-opacity:0.06700003;fill-rule:evenodd"
     inkscape:connector-curvature="0"
     id="path8"
     d="M 256,1 C 115.17,1 1,115.17 1,256 1,396.83 115.17,511 256,511 396.83,511 511,396.83 511,256 511,115.17 396.83,1 256,1 m 8.827,44.931 c 120.9,0 218.9,98 218.9,218.9 0,120.9 -98,218.9 -218.9,218.9 -120.9,0 -218.93,-98 -218.93,-218.9 0,-120.9 98.03,-218.9 218.93,-218.9" />
  <g
     style="fill-opacity:0.12900002;fill-rule:evenodd"
     id="g10">
    <path
       inkscape:connector-curvature="0"
       id="path12"
       d="M 256,4.43 C 117.06,4.43 4.43,117.06 4.43,256 4.43,394.94 117.06,507.57 256,507.57 394.94,507.57 507.57,394.94 507.57,256 507.57,117.06 394.94,4.43 256,4.43 m 5.885,38.556 c 120.9,0 218.9,98 218.9,218.9 0,120.9 -98,218.9 -218.9,218.9 -120.9,0 -218.93,-98 -218.93,-218.9 0,-120.9 98.03,-218.9 218.93,-218.9" />
    <path
       inkscape:connector-curvature="0"
       id="path14"
       d="M 256,8.36 C 119.23,8.36 8.36,119.23 8.36,256 8.36,392.77 119.23,503.64 256,503.64 392.77,503.64 503.64,392.77 503.64,256 503.64,119.23 392.77,8.36 256,8.36 m 2.942,31.691 c 120.9,0 218.9,98 218.9,218.9 0,120.9 -98,218.9 -218.9,218.9 -120.9,0 -218.93,-98 -218.93,-218.9 0,-120.9 98.03,-218.9 218.93,-218.9" />
  </g>
  <path
     style="fill:#ffffff;fill-rule:evenodd;stroke:#000000;stroke-width:4.90399981;stroke-opacity:0.31000001"
     inkscape:connector-curvature="0"
     id="path16"
     d="M 253.04,7.86 C 117.62,7.86 7.85,117.64 7.85,253.05 c 0,135.42 109.78,245.19 245.19,245.19 135.42,0 245.19,-109.78 245.19,-245.19 C 498.23,117.63 388.45,7.86 253.04,7.86 m 0,26.297 c 120.9,0 218.9,98 218.9,218.9 0,120.9 -98,218.9 -218.9,218.9 -120.9,0 -218.93,-98 -218.93,-218.9 0,-120.9 98.03,-218.9 218.93,-218.9 z" />
  <g
     transform="matrix(10.545763,0,0,10.545763,5.0711859,-1.4372863)"
     id="g50">
    <g
       id="g52"
       clip-path="url(#clipPath-588316483)">
      <!-- color: #409bcb -->
      <g
         id="g54">
        <path
           inkscape:connector-curvature="0"
           d="m 24,9 c 8.281,0 14.996,6.715 14.996,15 0,8.281 -6.715,14.996 -14.996,14.996 C 15.715,38.996 9,32.281 9,24 9,15.715 15.715,9 24,9 m 0,0"
           style="fill:url(#linear0);fill-rule:evenodd;stroke:none"
           id="path56" />
        <path
           inkscape:connector-curvature="0"
           d="m 34.527,34.746 c 0.691,-0.691 1.313,-1.457 1.863,-2.27 0.547,-0.809 1.023,-1.688 1.41,-2.602 0.387,-0.914 0.68,-1.871 0.883,-2.867 0.199,-0.996 0.309,-2.027 0.309,-3.078 l -10.699,0 c 0,0.633 -0.129,1.242 -0.359,1.789 -0.227,0.547 -0.563,1.039 -0.977,1.453 l 7.574,7.574 m -0.004,0"
           style="fill:#ffffff;fill-opacity:0.49800002;fill-rule:nonzero;stroke:none"
           id="path58" />
        <path
           inkscape:connector-curvature="0"
           d="m 13.496,13.289 c -0.688,0.688 -1.309,1.449 -1.855,2.262 -0.547,0.813 -1.02,1.684 -1.402,2.594 -0.387,0.91 -0.68,1.863 -0.879,2.852 -0.203,0.992 -0.309,2.02 -0.309,3.07 l 10.664,0 c 0,-0.633 0.125,-1.238 0.359,-1.781 0.23,-0.547 0.563,-1.039 0.973,-1.449 L 13.508,13.294 M 13.496,13.29"
           style="fill:#ffffff;fill-opacity:0.49800002;fill-rule:nonzero;stroke:none"
           id="path60" />
        <path
           inkscape:connector-curvature="0"
           d="m 28.29,24 c 0,2.367 -1.918,4.285 -4.285,4.285 -2.367,0 -4.285,-1.918 -4.285,-4.285 0,-2.367 1.918,-4.285 4.285,-4.285 2.367,0 4.285,1.918 4.285,4.285 m 0,0"
           style="fill:#BF9E73;fill-opacity:0.49800002;fill-rule:nonzero;stroke:none"
           id="path62" />
        <path
           inkscape:connector-curvature="0"
           d="m 20.12,25.762 -9.777,4.445 c 0.75,1.652 1.793,3.133 3.059,4.398 l 7.563,-7.566 c -0.359,-0.363 -0.633,-0.801 -0.844,-1.273 m 0,-0.004"
           style="fill:#ffffff;fill-opacity:0.49800002;fill-rule:nonzero;stroke:none"
           id="path64" />
        <path
           inkscape:connector-curvature="0"
           d="m 34.602,13.398 -7.566,7.562 c 0.363,0.363 0.633,0.801 0.848,1.273 l 9.777,-4.445 C 36.907,16.14 35.868,14.659 34.602,13.393 m 0,0.004"
           style="fill:#ffffff;fill-opacity:0.49800002;fill-rule:nonzero;stroke:none"
           id="path66" />
        <path
           inkscape:connector-curvature="0"
           d="m 39,24 c 0,1.344 -0.18,2.68 -0.535,3.973 L 24,24 m 15,0"
           style="fill:#BF9E73;fill-opacity:0.49800002;fill-rule:nonzero;stroke:none"
           id="path68" />
        <path
           inkscape:connector-curvature="0"
           d="M 9,24 C 9,22.656 9.18,21.32 9.535,20.027 L 24,24 M 9,24"
           style="fill:#BF9E73;fill-opacity:0.49800002;fill-rule:nonzero;stroke:none"
           id="path70" />
        <path
           inkscape:connector-curvature="0"
           d="m 24,9 c 1.344,0 2.68,0.18 3.973,0.535 L 24,24 M 24,9"
           style="fill:#BF9E73;fill-opacity:0.49800002;fill-rule:nonzero;stroke:none"
           id="path72" />
        <path
           inkscape:connector-curvature="0"
           d="m 24,39 c -1.344,0 -2.68,-0.18 -3.973,-0.535 L 24,24 m 0,15"
           style="fill:#BF9E73;fill-opacity:0.49800002;fill-rule:nonzero;stroke:none"
           id="path74" />
        <path
           inkscape:connector-curvature="0"
           d="m 24,21.859 c 0.59,0 1.129,0.238 1.516,0.621 0.387,0.387 0.625,0.926 0.625,1.52 0,0.59 -0.238,1.129 -0.625,1.516 -0.387,0.387 -0.926,0.625 -1.516,0.625 -0.594,0 -1.133,-0.238 -1.52,-0.625 C 22.097,25.129 21.859,24.59 21.859,24 c 0,-0.594 0.238,-1.133 0.621,-1.52 0.387,-0.383 0.926,-0.621 1.52,-0.621 m 0,0"
           style="fill:#ffffff;fill-opacity:0.49800002;fill-rule:nonzero;stroke:none"
           id="path76" />
      </g>
    </g>
  </g>
</svg>
