<?xml version="1.0" encoding="UTF-8" standalone="no"?>
<svg xmlns="http://www.w3.org/2000/svg" xmlns:sodipodi="http://sodipodi.sourceforge.net/DTD/sodipodi-0.dtd" xmlns:inkscape="http://www.inkscape.org/namespaces/inkscape" width="1814.17" height="1814.17" viewBox="0 0 512 512" version="1.1">
 <metadata id="metadata7551"/>
 <g inkscape:label="Layer 1" inkscape:groupmode="layer" id="layer1" transform="translate(0,215.00001)">
  <path inkscape:connector-curvature="0" id="path20" d="m 471.94999,38.049967 c 0,120.900013 -98.00998,218.910003 -218.91,218.910003 -120.90001,0 -218.909997,-98.00999 -218.909997,-218.910003 0,-120.900014 98.009987,-218.909997 218.909997,-218.909997 120.90002,0 218.91,98.009983 218.91,218.909997" fill="#BF9E73" fill-rule="evenodd"/>
  <g transform="translate(-5.3492006e-6,-215.00001)" id="g38">
   <path inkscape:connector-curvature="0" id="path40" d="m 171.89,84.68 c -24.16,0.549 -50.87,3.429 -69.03,19.16 -8.708,7.541 -13.12,30.527 -4.781,38.863 l 56.828,56.828 c -3.116,-0.994 -6.346,-1.531 -9.516,-1.535 -9.571,-0.012 -18.579,4.813 -22.12,16.313 -4.805,15.581 -9.272,49.828 1.238,60.34 l 70.77,70.77 c -7.939,0.99 -19.21,6.167 -24.727,3.768 -1.608,-0.274 -3.168,-0.665 -4.686,-1.154 l -39.971,-39.971 c -1.778,-1.607 -4.03,-2.718 -6.281,-2.5 -0.321,0.031 -0.649,0.1 -0.969,0.188 -13.501,8.439 -4.844,26.621 4.27,35.734 l 59.686,59.686 c -11.704,0.587 -23.541,-3.048 -34.471,-8.758 l -31.73,-31.73 c -1.3,-1.234 -2.746,-2.237 -4.41,-2.9 -14.701,8.288 -6.902,24.916 3.594,35.412 l 67.44,67.44 c 21.894,7.349 45.33,11.336 69.7,11.336 102.28,0 188.17,-70.15 212.2,-164.95 L 277.164,119.26 C 266.498,108.594 253.954,100.005 239.24,94.748 217.775,86.786 194.634,84.708 171.9,84.688" opacity="0.25"/>
   <path inkscape:connector-curvature="0" id="path42" d="m 171.89,84.68 c -24.16,0.549 -50.87,3.429 -69.03,19.16 -11.521,9.98 -15.517,46.98 7.56,41.34 14.99,-3.66 19,-25.19 36.03,-28.56 21.9,-4.34 44.38,-5.31 66.44,-3.38 34.06,4.46 67.2,25.29 80.13,58.38 10.52,26.92 16.6,59.21 0.25,85.28 -13.93,22.23 -36.79,35.87 -55.78,52.97 -20.24,18.24 -18.93,48.59 -18.65,75 0.63,61.3 25.27,52.6 12.62,-2.97 -5.33,-23.42 3.8,-50.22 25.53,-62.84 28.14,-16.34 53.77,-40.29 64.09,-72.34 6.39,-19.85 2.96,-40.69 -3.9,-59.91 C 303.42,148.31 279.42,109.1 239.24,94.75 217.77,86.788 194.63,84.71 171.9,84.69 l -0.01,-0.011 m -26.49,113.32 c -9.57,-0.01 -18.58,4.81 -22.12,16.31 -5.8,18.81 -11.1,64.8 9.81,63.45 24.36,-1.58 -5.44,-41.37 8.69,-59.45 18.48,-23.64 16.12,17.34 26.62,26.29 8.87,7.55 38.57,-32.57 42.91,-7.1 4.05,23.77 -48.84,53.65 -24.47,64.34 17.6,7.73 24.87,-28.98 35.31,-43.94 11.41,-16.32 11.13,-56.98 -17.44,-51.94 -12.8,2.26 -21.71,13.81 -29.4,23.66 3.55,-18.19 -13.96,-31.6 -29.91,-31.62 m -24.94,107.55 c -0.28,-0.02 -0.56,-0.01 -0.84,0.02 l 0,-0.01 c -0.32,0.03 -0.65,0.1 -0.97,0.18 -14.98,9.37 -2.68,30.72 7.25,38.38 22.28,18.09 52.17,26.43 77.47,12.57 5.37,-23.22 -22.94,-3.21 -32.81,-7.5 -19.86,-3.39 -32.57,-24.01 -44.66,-41.12 -1.55,-1.41 -3.47,-2.43 -5.44,-2.52 m -8.45,52.24 -0.01,0 c -19.924,11.23 1.47,37.77 14.9,43.62 26.05,11.34 54.58,23.48 79.38,6.16 9.41,-9.14 1.42,-20.42 -7.12,-10.35 -22.58,10.19 -47.68,-0.49 -67.03,-14.96 -8.28,-6.19 -10.73,-20.73 -20.12,-24.47" fill="#ffffff"/>
  </g>
  <g transform="translate(-5.3492006e-6,-215.00001)" id="g44" fill-rule="evenodd">
   <path inkscape:connector-curvature="0" id="path46" d="M 256,1 C 115.17,1 1,115.17 1,256 1,396.83 115.17,511 256,511 396.83,511 511,396.83 511,256 511,115.17 396.83,1 256,1 m 8.827,44.931 c 120.9,0 218.9,98 218.9,218.9 0,120.9 -98,218.9 -218.9,218.9 -120.9,0 -218.93,-98 -218.93,-218.9 0,-120.9 98.03,-218.9 218.93,-218.9" fill-opacity="0.067"/>
   <g id="g48" transform="translate(0,-540.36)" fill-opacity="0.129">
    <path inkscape:connector-curvature="0" id="path50" d="M 256,544.79 C 117.06,544.79 4.43,657.42 4.43,796.36 4.43,935.3 117.06,1047.9 256,1047.9 394.94,1047.9 507.57,935.3 507.57,796.36 507.57,657.42 394.94,544.79 256,544.79 m 5.885,38.556 c 120.9,0 218.9,98 218.9,218.9 0,120.9 -98,218.9 -218.9,218.9 -120.9,0 -218.93,-98 -218.93,-218.9 0,-120.9 98.03,-218.9 218.93,-218.9"/>
    <path inkscape:connector-curvature="0" id="path52" d="M 256,548.72 C 119.23,548.72 8.36,659.59 8.36,796.36 8.36,933.13 119.23,1044 256,1044 392.77,1044 503.64,933.13 503.64,796.36 503.64,659.59 392.77,548.72 256,548.72 m 2.942,31.691 c 120.9,0 218.9,98 218.9,218.9 0,120.9 -98,218.9 -218.9,218.9 -120.9,0 -218.93,-98 -218.93,-218.9 0,-120.9 98.03,-218.9 218.93,-218.9"/>
   </g>
   <path inkscape:connector-curvature="0" id="path54" d="M 253.04,7.86 C 117.62,7.86 7.85,117.64 7.85,253.05 c 0,135.42 109.78,245.19 245.19,245.19 135.42,0 245.19,-109.78 245.19,-245.19 C 498.23,117.63 388.45,7.86 253.04,7.86 Z m 0,26.297 c 120.9,0 218.9,98 218.9,218.9 0,120.9 -98,218.9 -218.9,218.9 -120.9,0 -218.93,-98 -218.93,-218.9 0,-120.9 98.03,-218.9 218.93,-218.9 z" stroke-opacity="0.31" fill="#ffffff" stroke="#000000" stroke-width="4.904"/>
  </g>
 </g>
</svg>
