<?xml version="1.0" encoding="UTF-8" standalone="no"?>
<svg xmlns="http://www.w3.org/2000/svg" height="512" viewBox="0 0 512 512" width="512" version="1.1">
 <metadata id="metadata82"/>
 <g id="g4" transform="translate(0,-540.36)">
  <text id="text6" font-size="208.33" line-height="125%" y="1089.88" x="-1160.48" font-family="Gentium Book Basic" word-spacing="0" letter-spacing="0"><tspan id="tspan8" y="1089.88" x="-1160.48"/>
  </text>
  <text id="text10" font-size="75.7" transform="scale(4.0128 .2492)" y="3810.63" x="28.534" font-family="Arial" text-anchor="middle"/>
  <g id="g12" fill-rule="evenodd">
   <path id="path14" fill="#BF9E73" d="m471.95 793.41c0 120.9-98.01 218.9-218.9 218.9-120.9 0-218.9-98.01-218.9-218.9 0-120.9 98.01-218.9 218.9-218.9 120.9 0 218.9 98.01 218.9 218.9"/>
   <path id="path16" fill-opacity="0.067" d="m256 541.36c-140.83 0-255 114.17-255 255s114.17 255 255 255 255-114.17 255-255-114.17-255-255-255m8.827 44.931c120.9 0 218.9 98 218.9 218.9s-98 218.9-218.9 218.9-218.93-98-218.93-218.9 98.03-218.9 218.93-218.9"/>
  </g>
  <g id="g20" fill-rule="evenodd">
   <g id="g22" fill-opacity="0.129">
    <path id="path24" d="m256 544.79c-138.94 0-251.57 112.63-251.57 251.57s112.63 251.54 251.57 251.54 251.57-112.6 251.57-251.54-112.63-251.57-251.57-251.57m5.885 38.556c120.9 0 218.9 98 218.9 218.9s-98 218.9-218.9 218.9-218.93-98-218.93-218.9 98.03-218.9 218.93-218.9"/>
    <path id="path26" d="m256 548.72c-136.77 0-247.64 110.87-247.64 247.64s110.87 247.64 247.64 247.64 247.64-110.87 247.64-247.64-110.87-247.64-247.64-247.64m2.942 31.691c120.9 0 218.9 98 218.9 218.9s-98 218.9-218.9 218.9-218.93-98-218.93-218.9 98.03-218.9 218.93-218.9"/>
   </g>
   <path id="path28" d="m253.04 548.22c-135.42 0-245.19 109.78-245.19 245.19 0 135.42 109.78 245.19 245.19 245.19 135.42 0 245.19-109.78 245.19-245.19 0-135.42-109.78-245.19-245.19-245.19zm0 26.297c120.9 0 218.9 98 218.9 218.9s-98 218.9-218.9 218.9-218.93-98-218.93-218.9 98.03-218.9 218.93-218.9z" stroke-opacity="0.31" stroke="#000" stroke-width="4.904" fill="#fff"/>
  </g>
  <text id="text30" font-size="129.23" line-height="125%" y="771.72" x="729.64" font-family="Gentium Book Basic" word-spacing="0" letter-spacing="0"><tspan id="tspan32" y="771.72" x="729.64"/>
  </text>
  <text id="text34" font-size="46.954" transform="scale(4.0128 .2492)" y="2747.64" x="378.91" font-family="Arial" text-anchor="middle"/>
  <text id="text36" font-size="129.23" line-height="125%" y="691.72" x="1310.91" font-family="Gentium Book Basic" word-spacing="0" letter-spacing="0"><tspan id="tspan38" y="691.72" x="1310.91"/>
  </text>
  <text id="text40" font-size="46.954" transform="scale(4.0128 .2492)" y="2426.6" x="523.76" font-family="Arial" text-anchor="middle"/>
  <text id="text42" font-size="129.23" line-height="125%" y="510.46" x="239.33" font-family="Gentium Book Basic" word-spacing="0" letter-spacing="0"><tspan id="tspan44" y="510.46" x="239.33"/>
  </text>
  <text id="text46" font-size="46.954" transform="scale(4.0128 .2492)" y="1699.25" x="256.72" font-family="Arial" text-anchor="middle"/>
  <text id="text48" font-size="129.23" line-height="125%" y="293.99" x="1337.38" font-family="Gentium Book Basic" word-spacing="0" letter-spacing="0"><tspan id="tspan50" y="293.99" x="1337.38"/>
  </text>
  <text id="text52" font-size="46.954" transform="scale(4.0128 .2492)" y="830.57" x="530.36" font-family="Arial" text-anchor="middle"/>
  <text id="text54" font-size="129.23" line-height="125%" y="213.99" x="1918.65" font-family="Gentium Book Basic" word-spacing="0" letter-spacing="0"><tspan id="tspan56" y="213.99" x="1918.65"/>
  </text>
  <text id="text58" font-size="46.954" transform="scale(4.0128 .2492)" y="509.54" x="675.21" font-family="Arial" text-anchor="middle"/>
  <text id="text60" font-size="129.23" line-height="125%" y="-258.41" x="1529.53" font-family="Gentium Book Basic" word-spacing="0" letter-spacing="0"><tspan id="tspan62" y="-258.41" x="1529.53"/>
  </text>
  <text id="text64" font-size="46.954" transform="scale(4.0128 .2492)" y="-1386.12" x="578.24" font-family="Arial" text-anchor="middle"/>
  <text id="text66" font-size="129.23" line-height="125%" y="-338.42" x="2110.79" font-family="Gentium Book Basic" word-spacing="0" letter-spacing="0"><tspan id="tspan68" y="-338.42" x="2110.79"/>
  </text>
  <text id="text70" font-size="46.954" transform="scale(4.0128 .2492)" y="-1707.16" x="723.09" font-family="Arial" text-anchor="middle"/>
  <text id="text72" font-size="208.33" line-height="125%" y="1076.3" x="277.99" font-family="Gentium Book Basic" word-spacing="0" letter-spacing="0"><tspan id="tspan74" y="1076.3" x="277.99"/>
  </text>
  <path id="path76" fill="#fff" d="m232.32 652.91c-1.539 0.091-3.126 0.315-4.617 0.596a1.0599 1.0599 0 0 1 -0.14895 0c-0.769 0.029-1.246 0.282-1.489 0.447s-0.148 0.252-0.149 0.298-0.1 0.09 0.149 0.298 0.754 0.48 1.489 0.596a1.0599 1.0599 0 0 1 0.14895 0 1.0599 1.0599 0 0 1 0.14895 0c7.675 3.34 15.83 6.176 23.23 10.574 0.058 0.034 0.092 0.115 0.149 0.149 4.75 2.147 8.671 5.733 11.617 9.83 3.413 5.139 3.629 12.154 1.489 17.723a1.0599 1.0599 0 0 1 -0.14895 0c-3.662 7.348-6.78 15.445-12.51 21.893-0.046 0.052-0.103 0.097-0.149 0.149-3.546 5.084-9.265 7.344-13.553 10.723-0.052 0.045-0.097 0.104-0.149 0.149-3.282 2.798-7.112 5.24-9.681 8.191-1.423 2.468-2.985 4.492-2.979 7a1.0599 1.0599 0 0 1 0 0.14893 1.0599 1.0599 0 0 1 0 0.14893c-1.255 4.881-0.45 10.03 1.192 14.893 1.148 4.921 3.863 9.407 7.595 12.808 0.045 0.013 0.104-0.012 0.149 0 2.405 0.67 5.481-0.114 8.34-0.894 1.227-2.01 2.681-3.68 4.17-5.362 2.151-2.538 5.232-4.292 8.34-5.362 0.043-0.021 0.106 0.02 0.149 0v-0.149c7.915-3.781 16.532-2.739 24.276-4.468 2.184-0.74 4.323-1.553 5.808-2.979 0.038-0.047 0.112-0.101 0.149-0.149 1.052-1.349 1.739-3.217 2.532-5.064 0.821-1.912 1.804-3.882 3.425-5.51a1.0599 1.0599 0 0 1 0.59579 -0.29786 1.0599 1.0599 0 0 1 0.14886 0c2.901-0.073 5.239 1.277 7.298 2.83 1.908 1.439 3.63 3.03 5.362 4.17 0.033-0.147 0.129-0.118 0.149-0.298 0.067-0.596 0.107-1.247 0.149-1.936 0.041-0.689-0.02-1.357 0.149-1.936a1.0599 1.0599 0 0 1 0.14895 -0.14893c1.308-2.548 2.893-5.691 5.659-7.596 0.052-0.045 0.096-0.105 0.149-0.149 3.755-3.099 9.08-3.632 13.404-1.34v-0.149c2.31 0.943 4.127 2.675 5.957 4.02 1.83 1.346 3.641 2.367 5.659 2.532 1.821 0.345 3.488-0.16 5.064-1.043s3.02-2.114 4.468-3.425c1.324-1.092 2.857-2.93 4.617-4.319 1.727-1.363 4.047-2.364 6.553-1.489 0.044 0.014 0.105-0.014 0.149 0 5.279 1.705 8.545 6.177 12.06 9.532 0.049 0.046 0.1 0.103 0.149 0.149 3.798 2.459 7.444 5.314 11.617 4.617a1.0599 1.0599 0 0 1 0.14886 0 1.0599 1.0599 0 0 1 0.14895 0c5.604 0.601 11.169-2.814 13.851-7.744 1.053-1.931 0.776-4.088-0.596-5.957a1.0599 1.0599 0 0 1 -0.14895 -0.29787 1.0599 1.0599 0 0 1 0 -0.14893c-0.365-2.524-2.57-4.603-3.723-7.596-0.042-0.109-0.11-0.186-0.149-0.298-6.811-11.205-17.189-19.855-27.25-28.446-0.053-0.045-0.096-0.104-0.149-0.149-4.336-2.731-8.178-6.03-12.361-8.638-0.038-0.021-0.111 0.021-0.149 0-7.096-3.902-13.734-8.239-21.15-11.02a1.0599 1.0599 0 0 1 -0.2979 -0.14893c-5.065-2.92-10.559-5.151-16.08-7.298-0.046-0.012-0.103 0.012-0.149 0-5.197-1.389-9.964-3.715-14.893-5.064-7.336-1.757-14.646-3.329-22.04-4.915-9.587-1.828-19.455-1.827-29.34-2.532h-0.149c-4.709 0.009-9.43-0.419-14-0.149m-15.04 4.17c-7 0.383-14.07 2.235-21.15 3.872a1.8062 1.8062 0 0 1 -0.14895 0c-9.568 1.741-18.746 5.547-27.552 9.978-12.02 5.547-23.11 12.992-32.616 22.19-6.6 5.607-11.993 12.625-16.829 19.957-5.238 7.132-8.772 15.449-12.212 23.829-0.042 0.103-0.107 0.195-0.149 0.298l-1.489 5.362c-1.995 8.525-4.431 16.74-4.617 25.17 0.008 0.048-0.008 0.101 0 0.149-0.001 0.049 0.001 0.1 0 0.149 1.402 8.333 4.064 16.628 8.936 23.382 3.967 6.169 8.733 11.835 14.744 15.787a1.8062 1.8062 0 0 1 0.14894 0.14893c3.899 3.277 9.157 4.593 14.297 7.298 0.048 0.01 0.101-0.01 0.149 0 0.101 0.054 0.197 0.094 0.298 0.149 8.955 1.904 18.212 3.169 26.808 0.894a1.8062 1.8062 0 0 1 0.59571 0c-0.118-0.009 0.502-0.076 1.191-0.298 0.69-0.222 1.587-0.514 2.383-0.745 0.398-0.116 0.749-0.248 1.191-0.298 0.241-0.027 0.586 0.112 0.894 0.149 4.448-6.03 8.67-12.49 13.702-18.319a1.8062 1.8062 0 0 1 0.14895 -0.14894c3.943-3.693 8.122-7.384 13.11-9.978a1.8062 1.8062 0 0 1 0.44676 -0.14893c2.852-0.702 5.068-2.493 6.702-5.064a1.8062 1.8062 0 0 1 0.14895 -0.14893c0.937-0.997 1.418-2.472 1.936-4.17s1.08-3.629 2.681-5.362a1.8062 1.8062 0 0 1 0.14895 -0.14892c3.67-3.058 8.92-3.78 13.404-2.383a1.8062 1.8062 0 0 1 -0.14895 -0.14893c-3.634-4.538-6.551-9.859-7.596-15.787-1.273-6.294-0.195-12.873 2.979-18.468a1.8062 1.8062 0 0 1 0.44685 -0.44679c0.971-0.917 1.855-2.308 2.979-3.723 1-1.262 2.29-2.468 4.02-3.277 4.417-3.641 9.654-5.98 12.957-9.681a1.8062 1.8062 0 0 1 0.14895 -0.14892c5.888-5.075 10.01-11.873 13.851-18.914 0.018-0.043-0.017-0.106 0-0.149 1.529-3.749 2.604-7.949 3.276-12.06v-0.149c-0.191-3.746-0.891-7.409-3.276-9.83a1.8062 1.8062 0 0 1 -0.14895 -0.29786c-1.977-2.916-5.261-4.964-8.638-7.149-0.104-0.045-0.195-0.104-0.298-0.149-6.26-2.757-11.932-6.201-18.02-8.34a1.8062 1.8062 0 0 1 -0.44685 -0.14893c-2.464-1.619-5.543-1.832-9.08-2.681-0.1-0.024-0.197 0.025-0.298 0m137.76 78.34c-2.744 1.439-5.01 3.681-7.447 6.106h-0.149c-2.182 2.473-5.114 4.189-8.489 4.468a1.8299 1.8299 0 0 1 -0.14895 0c-2.702-0.01-5.154-1.097-7.149-1.936a1.8299 1.8299 0 0 1 -0.59571 -0.29786c-1.888-1.867-4.245-3.301-6.851-4.468a1.8299 1.8299 0 0 1 -0.44685 -0.29786c-1.428-1.185-3.271-1.518-5.362-1.34-1.758 0.207-3.316 0.77-4.02 1.638a1.8299 1.8299 0 0 1 -0.59571 0.4468c-1.462 0.794-2.348 1.647-2.532 2.979a1.8299 1.8299 0 0 1 -0.14895 0.44681c-0.736 1.547-0.781 3.414-0.745 5.362 3.413 2.826 6.949 5.485 10.723 7.893 0.04 0.017 0.109-0.017 0.149 0 0.059 0.038 0.09 0.111 0.149 0.149 2.921 1.22 6.249 2.086 9.532 3.574 0.045 0.02 0.104-0.02 0.149 0 5.02 1.602 7.979 5.614 11.02 8.489 0.048 0.045 0.101 0.105 0.149 0.149 2.097 1.536 4.054 3.382 5.362 5.808a1.8299 1.8299 0 0 1 0 0.14892c1.999 4.24 3.807 8.587 5.51 12.957a1.8299 1.8299 0 0 1 0.14895 0c1.864 5.782 1.559 11.708 1.489 17.276a1.8299 1.8299 0 0 1 0 0.29786c-0.543 4.186-1.853 7.77-2.83 11.468 1.784-0.165 3.598-0.361 5.362-0.298 0.098-0.005 0.2 0.005 0.298 0 7.761-0.463 15.754-0.973 23.68-0.447 8.02 0.716 16.38 0.435 24.723 1.489 0.119-0.003 0.181-0.001 0.298 0 1.115 0.007 2.162 0.06 2.83 0 0.369-0.033 0.532-0.108 0.596-0.149s0.076 0.102 0.149-0.149a1.8299 1.8299 0 0 1 0 -0.14893c1.306-4.265 1.727-8.93 1.638-13.553-0.014-0.1 0.013-0.198 0-0.298-0.66-5.161-0.621-10.319-0.596-15.34v-0.149c-0.416-6.426-1.163-12.934-2.383-19.212-1.646-8.152-2.851-16.17-5.362-23.829-0.066-0.11-0.087-0.188-0.149-0.298-0.729-1.298-1.11-2.655-1.638-3.574-0.447-0.779-0.939-0.986-1.489-1.191-0.999 0.688-1.824 2.023-3.425 3.425h-0.149c-2.363 2.332-4.971 5.567-9.08 6.702-0.113 0.031-0.182 0.121-0.298 0.149-2.524 0.984-5.01 0.779-7.149 0.745a1.8299 1.8299 0 0 1 -0.2979 0c-3.619-0.505-6.725-2.533-9.234-4.617-3.905-3.62-7.07-7.64-11.17-9.83a1.8299 1.8299 0 0 1 -0.2979 -0.14893c-0.768-0.602-2.02-0.624-3.723-0.596m-59.57 12.51c-2.353 3.143-4.951 5.952-8.04 8.34-4.045 2.488-8.398 4.698-13.255 4.915-4.668 0.719-9.548 1.572-14 2.979-3.533 2.078-7.552 3.162-10.574 6.106-5.309 4.254-12.04 6.427-18.617 7.596-4.693-1.222-9.805-1.737-14.595-0.745-2.676 2.771-4.129 6.363-5.659 9.83-1.314 2.308-3.73 3.485-5.51 5.362-3.725 1.249-6.422 4.321-10.127 5.659-7.958 6.01-12.833 14.92-18.914 22.638-3.053 2.572-1.126 6.675-0.745 9.978 0.542 6.833 5.481 12.917 10.127 16.978 7.93 6.776 18.297 9.421 28.15 12.06 5.986 0.862 11.94 2.076 18.02 1.638 7.156 0.078 14.233 0.132 21.297-1.191 6.304-0.526 12.404-1.988 18.468-3.723 10.497-2.277 20.599-6.03 30.68-9.681 6.745-2.418 13.855-4.203 19.808-8.34 5.421-1.825 9.594-5.975 13.255-10.127 1.215-2.751 3.773-4.837 4.17-7.893 1.739-3.242 2-7.1 3.127-10.574 0.975-5.983 1.834-12.02 0.447-18.02-0.472-6.24-3.671-11.749-7.298-16.68-4.064-7.258-12.646-9.862-19.659-13.404-2.68-1.533-6.02-1.592-8.191-4.17-3.678-3.619-7.787-7.04-12.361-9.532m83.1 74.02c-1.047 0.002-2.098 0.057-3.128 0.149a2.1019 2.1019 0 0 1 -0.14895 0c-8.723 0.071-17.498 1.228-26.361 2.085-2.573 4.163-5.671 7.86-9.08 11.17-0.047 0.058-0.101 0.092-0.149 0.149-2.834 3.361-6.629 4.872-9.532 6.702-0.108 0.111-0.187 0.195-0.298 0.298-2.081 1.935-4.552 2.431-6.404 3.128v0.149c-4.318 2.246-8.847 3.43-12.808 5.213a2.1019 2.1019 0 0 1 -0.2979 0.14893c-5.092 1.402-10.192 2.578-14.893 4.468a2.1019 2.1019 0 0 1 -0.14895 0c-2.727 0.853-5.062 1.927-7.298 3.277v5.808c0.791 2.662 1.424 5.189 2.532 7.149 2.414 4.595 5.806 8.753 9.978 11.766v-0.149c5.37 3.577 10.87 6.917 16.829 8.34a2.1019 2.1019 0 0 1 0.14895 0c4.35 1.315 8.994 2.01 13.702 2.532 0.099 0.011 0.199-0.011 0.298 0 5.763 0.058 11.722-0.607 17.872-0.447 6.71-1.4 13.379-2.464 18.914-5.659a2.1019 2.1019 0 0 1 0.14895 -0.14893c4.717-2.049 9.06-5.136 12.808-8.787a2.1019 2.1019 0 0 1 0.14895 -0.14893c2.214-1.768 3.711-4.741 6.553-7.447 0.055-0.124 0.093-0.177 0.149-0.298 1.305-2.81 2.943-5 3.277-7a2.1019 2.1019 0 0 1 0.14886 -0.59573c1.247-2.567 2.275-5.388 2.234-7.893a2.1019 2.1019 0 0 1 0 -0.29786c0.355-2.289 0.618-4.432 0.447-6.553a2.1019 2.1019 0 0 1 0 -0.29786c0.364-4.223-0.94-8.604-2.234-13.11a2.1019 2.1019 0 0 1 0.44676 -1.9361c1.03-1.291 1.621-3.872 4.319-5.808a2.1019 2.1019 0 0 1 0 -0.14894c0.973-0.662 1.404-1.994 1.936-3.723-0.025-0.06 0.073-0.107-0.149-0.298-0.3-0.259-0.951-0.456-1.489-0.745-2.92-0.273-5.818-0.634-8.489-0.447a2.1019 2.1019 0 0 1 -0.29781 0c-3.326-0.257-6.539-0.602-9.681-0.596m-98.89 41.85-27.552 5.659 15.191 29.935 16.829 12.361 10.723 28.15 29.935-10.723c-2.537-5.01-4.882-10.06-7.744-14.893-2.57-4.062-4.208-8.566-6.106-12.957-0.415-1.642-1.617-2.915-2.83-4.02-2.252-2.564-5.106-4.378-8.191-5.808-3.089-1.374-6.241-2.621-9.532-3.425l-10.723-24.276"/>
 </g>
</svg>
