<?xml version="1.0" encoding="UTF-8" standalone="no"?>
<svg xmlns:dc="http://purl.org/dc/elements/1.1/" xmlns:cc="http://creativecommons.org/ns#" xmlns:rdf="http://www.w3.org/1999/02/22-rdf-syntax-ns#" xmlns:svg="http://www.w3.org/2000/svg" xmlns="http://www.w3.org/2000/svg" xmlns:sodipodi="http://sodipodi.sourceforge.net/DTD/sodipodi-0.dtd" xmlns:inkscape="http://www.inkscape.org/namespaces/inkscape" height="512" viewBox="0 0 512 512" width="512" version="1.1" id="svg2" inkscape:version="0.91 r" sodipodi:docname="gdeb.svg">
<defs id="defs17" />
<sodipodi:namedview pagecolor="#ffffff" bordercolor="#666666" borderopacity="1" objecttolerance="10" gridtolerance="10" guidetolerance="10" inkscape:pageopacity="0" inkscape:pageshadow="2" inkscape:window-width="1680" inkscape:window-height="1022" id="namedview15" showgrid="false" inkscape:zoom="1.3037281" inkscape:cx="373.94114" inkscape:cy="244.919" inkscape:window-x="1680" inkscape:window-y="0" inkscape:window-maximized="1" inkscape:current-layer="svg2" />
<metadata id="metadata28">
<rdf:RDF>
<cc:Work rdf:about="">
<dc:format>image/svg+xml</dc:format>
<dc:type rdf:resource="http://purl.org/dc/dcmitype/StillImage" />
<dc:title />
</cc:Work>
</rdf:RDF>
</metadata>
<path style="fill:#BF9E73;fill-rule:evenodd;fill-opacity:1" inkscape:connector-curvature="0" d="m 471.95,253.05 c 0,120.9 -98.01,218.9 -218.9,218.9 -120.9,0 -218.9,-98.01 -218.9,-218.9 0,-120.9 98.01,-218.9 218.9,-218.9 120.9,0 218.9,98.01 218.9,218.9" id="path6" />
<path style="fill-opacity:0.06700003;fill-rule:evenodd" inkscape:connector-curvature="0" d="M 256,1 C 115.17,1 1,115.17 1,256 1,396.83 115.17,511 256,511 396.83,511 511,396.83 511,256 511,115.17 396.83,1 256,1 m 8.827,44.931 c 120.9,0 218.9,98 218.9,218.9 0,120.9 -98,218.9 -218.9,218.9 -120.9,0 -218.93,-98 -218.93,-218.9 0,-120.9 98.03,-218.9 218.93,-218.9" id="path8" />
<g style="fill-opacity:0.12900002;fill-rule:evenodd" id="g10">
<path inkscape:connector-curvature="0" d="m 256,4.433 c -138.94,0 -251.57,112.63 -251.57,251.57 0,138.94 112.63,251.57 251.57,251.57 138.94,0 251.57,-112.63 251.57,-251.57 C 507.57,117.063 394.94,4.433 256,4.433 m 5.885,38.556 c 120.9,0 218.9,98 218.9,218.9 0,120.9 -98,218.9 -218.9,218.9 -120.9,0 -218.93,-98 -218.93,-218.9 0,-120.9 98.03,-218.9 218.93,-218.9" id="path12" />
<path inkscape:connector-curvature="0" d="m 256,8.356 c -136.77,0 -247.64,110.87 -247.64,247.64 0,136.77 110.87,247.64 247.64,247.64 136.77,0 247.64,-110.87 247.64,-247.64 C 503.64,119.226 392.77,8.356 256,8.356 m 2.942,31.691 c 120.9,0 218.9,98 218.9,218.9 0,120.9 -98,218.9 -218.9,218.9 -120.9,0 -218.93,-98 -218.93,-218.9 0,-120.9 98.03,-218.9 218.93,-218.9" id="path14" />
</g>
<path inkscape:connector-curvature="0" style="opacity:0.25" id="path83038" d="m 252.31838,112.87327 c -4.45,0.27 -9.96,1.8 -12.84,2.14 l -1.36,-1.37 c -11.46,5.12 -31.55,12.24 -43.5,22.73 l -1.48,-1.47 c -5.4,6.48 -23.54,19.35 -24.99,27.76 l -1.44,0.33 c -2.81,4.76 -4.63,10.14 -6.86,15.04 -3.01,5.13 -4.71,3.47 -4.93,3.24 -0.04,-0.04 -0.03,-0.03 0.02,0.07 0.02,0.03 0.03,0.05 0.05,0.08 -7.23,14.66 -10.83,26.97 -13.93,37.07 2.21,3.3 0.03,19.88 0.89,33.16 -2.29,41.49 14.63329,84.47848 44.77,110.23 L 307.959,465.48218 c 95.37,-18.2 153.43938,-95.96891 161.53938,-194.55891 l -124.56,-124.56 c -6.8,-6.79 -14.33,-12.44 -21.61,-16.33 l 3.7,3.69 c 0.49,0.65 0.71,1.14 0.33,1.3 -0.67,-0.4 -1.2,-0.73 -1.75,-1.07 l -7,-7.01 c -7.36,-2.99 -7.85,0.25 -12.72,0.01 -13.88,-7.36 -16.55,-6.58 -29.33,-11.19 l 0.58,2.72 c -5.88,-1.96 -8.62,-0.94 -12.44,-0.25 l -1.9,-1.9 c -3.26,0.43 -5.26,0.3 -6.93,0.08 z" sodipodi:nodetypes="cccccccccccccsccccccccccccccc" />
<path inkscape:connector-curvature="0" style="fill:#ffffff" id="path66" d="m 343.95838,235.12327 c 0.28658,7.7097 -2.2493,11.454 -4.5439,18.085 l -4.1258,2.0516 c -3.373,6.5538 0.33956,4.1608 -2.0809,9.3715 -5.2713,4.681 -15.974,14.643 -19.4,15.556 -2.5046,-0.0276 1.694,-2.9549 2.2426,-4.088 -7.0485,4.8371 -5.6572,7.2623 -16.44,10.208 l -0.31308,-0.70276 c -26.579,12.509 -63.505,-12.275 -63.022,-46.087 -0.28282,2.1443 -0.80301,1.6089 -1.3951,2.4696 -1.3715,-17.393 8.035,-34.864 23.902,-42.005 15.518,-7.6775 33.709,-4.5316 44.815,5.8359 -6.1008,-7.9962 -18.256,-16.475 -32.65,-15.69 -14.107,0.22891 -27.309,9.1928 -31.712,18.927 -7.2244,4.5467 -8.0663,17.537 -11.213,19.92 -4.2412,31.144 7.9679,44.597 28.622,60.424 3.2424,2.1887 0.9137,2.5245 1.345,4.1902 -6.8603,-3.2102 -13.141,-8.0606 -18.31,-13.999 2.7439,4.0114 5.7035,7.9102 9.5248,10.974 -6.4744,-2.1859 -15.119,-15.678 -17.636,-16.221 11.153,19.967 45.241,35.025 63.098,27.553 -8.2649,0.30362 -18.759,0.16937 -28.039,-3.2613 -3.9083,-2.0071 -9.2022,-6.1585 -8.2554,-6.9341 24.366,9.0972 49.535,6.8858 70.608,-10.01 5.3668,-4.1797 11.225,-11.286 12.92,-11.379 -2.55,3.8354 0.43983,1.8444 -1.5228,5.2296 5.3356,-8.6186 -2.3259,-3.5101 5.52,-14.882 l 2.8972,3.9887 c -1.0849,-7.1601 8.8863,-15.846 7.8724,-27.161 2.288,-3.459 2.55,3.7267 0.12584,11.685 3.3663,-8.8296 0.88816,-10.249 1.7517,-17.537 0.92884,2.4507 2.1632,5.0518 2.7922,7.6425 -2.1953,-8.5316 2.2436,-14.369 3.3474,-19.33 -1.0887,-0.47767 -3.3862,3.7721 -3.9149,-6.3051 0.10411,-4.3784 1.224,-2.2947 1.659,-3.3729 -0.85599,-0.49657 -3.1109,-3.8515 -4.4805,-10.287 0.98652,-1.5162 2.655,3.9215 4.0076,4.1419 -0.87114,-5.1152 -2.3675,-9.0178 -2.4318,-12.946 -3.9565,-8.2649 -1.3999,1.1029 -4.6044,-3.5479 -4.2119,-13.128 3.4912,-3.0476 4.0142,-9.0084 6.3751,9.2382 10.01,23.565 11.685,29.501 -1.275,-7.2339 -3.3351,-14.245 -5.852,-21.026 1.9437,0.81721 -3.1242,-14.879 2.5245,-4.4834 -6.0279,-22.161 -25.775,-42.866 -43.954,-52.58 2.218,2.0326 5.0225,4.5855 4.0208,4.9875 -9.0433,-5.3772 -7.4543,-5.801 -8.7501,-8.0738 -7.355,-2.9965 -7.8468,0.24402 -12.713,0.009 -13.88,-7.3644 -16.554,-6.5832 -29.331,-11.19 l 0.58264,2.7184 c -9.1928,-3.0636 -10.713,1.1549 -20.645,0.009 -0.60159,-0.47009 3.1847,-1.7101 6.305,-2.1604 -8.8901,1.1738 -8.4749,-1.7546 -17.177,0.31783 2.1414,-1.502 4.4134,-2.5018 6.6976,-3.7787 -7.2462,0.44171 -17.308,4.2185 -14.207,0.7756 -11.822,5.2779 -32.822,12.684 -44.607,23.732 l -0.36985,-2.4763 c -5.399,6.481 -23.546,19.357 -24.991,27.758 l -1.4453,0.33201 c -2.8054,4.7576 -4.6271,10.147 -6.8546,15.039 -3.6728,6.2644 -5.3866,2.4129 -4.8636,3.3956 -7.2273,14.653 -10.823,26.964 -13.922,37.068 2.2086,3.3029 0.0276,19.882 0.88721,33.162 -3.6254,65.557 46.007,129.19 100.26,143.89 7.9518,2.847 19.775,2.7477 29.832,3.0286 -11.864,-3.3956 -13.396,-1.7971 -24.96,-5.8265 -8.3377,-3.931 -10.163,-8.4143 -16.073,-13.543 l 2.3391,4.1324 c -11.583,-4.1012 -6.7354,-5.0736 -16.165,-8.0578 l 2.498,-3.2575 c -3.7551,-0.28658 -9.9457,-6.3249 -11.637,-9.678 l -4.1097,0.16937 c -4.9336,-6.0819 -7.5659,-10.48 -7.3711,-13.88 l -1.328,2.3675 c -1.502,-2.5812 -18.16,-22.842 -9.5153,-18.123 -1.6051,-1.4623 -3.7399,-2.3836 -6.0535,-6.5926 l 1.7583,-2.0081 c -4.1514,-5.3517 -7.652,-12.208 -7.3843,-14.492 2.218,2.9927 3.756,3.5545 5.2807,4.0681 -10.499,-26.052 -11.092,-1.433 -19.04,-26.522 l 1.6789,-0.13808 c -1.2854,-1.9494 -2.0743,-4.052 -3.1081,-6.1235 l 0.73206,-7.2916 c -7.5564,-8.7303 -2.1121,-37.163 -1.0168,-52.747 0.74629,-6.3372 6.3089,-13.086 10.53,-23.675 l -2.5718,-0.44169 c 4.9204,-8.5789 28.087,-34.459 38.818,-33.133 5.1984,-6.5283 -1.0319,-0.009 -2.0516,-1.6657 11.416,-11.816 15.011,-8.3472 22.719,-10.48 8.3056,-4.9298 -7.1318,1.9277 -3.1942,-1.8794 14.369,-3.6661 10.179,-8.3415 28.92,-10.201 1.9778,1.1246 -4.5855,1.7357 -6.2322,3.1942 11.966,-5.8586 37.872,-4.5212 54.708,3.2481 19.519,9.1294 41.464,36.103 42.332,61.481 l 0.98652,0.26767 c -0.49846,10.089 1.5446,21.755 -2.0005,32.471 l 2.3968,-5.0764" />
<path style="fill:#ffffff;fill-rule:evenodd;stroke:#000000;stroke-width:4.90399981;stroke-opacity:0.31000001" inkscape:connector-curvature="0" d="m 253.04,7.859 c -135.42,0 -245.19,109.78 -245.19,245.19 0,135.42 109.78,245.19 245.19,245.19 135.42,0 245.19,-109.78 245.19,-245.19 0,-135.42 -109.78,-245.19 -245.19,-245.19 z m 0,26.297 c 120.9,0 218.9,98 218.9,218.9 0,120.9 -98,218.9 -218.9,218.9 -120.9,0 -218.93,-98 -218.93,-218.9 0,-120.9 98.03,-218.9 218.93,-218.9 z" id="path16" />
</svg>
