<?xml version="1.0" encoding="UTF-8" standalone="no"?>
<svg xmlns="http://www.w3.org/2000/svg" height="512" viewBox="0 0 512 512" width="512" version="1.1">
 <metadata id="metadata86"/>
 <g id="g4" transform="translate(0,-540.36)">
  <text id="text6" font-size="208.33" line-height="125%" y="1089.88" x="-1160.48" font-family="Gentium Book Basic" word-spacing="0" letter-spacing="0"><tspan id="tspan8" y="1089.88" x="-1160.48"/>
  </text>
  <text id="text10" font-size="75.7" transform="scale(4.0128 .2492)" y="3810.63" x="28.534" font-family="Arial" text-anchor="middle"/>
  <g id="g12" fill-rule="evenodd">
   <path id="path14" fill="#BF9E73" d="m471.95 793.41c0 120.9-98.01 218.9-218.9 218.9-120.9 0-218.9-98.01-218.9-218.9 0-120.9 98.01-218.9 218.9-218.9 120.9 0 218.9 98.01 218.9 218.9"/>
   <path id="path16" d="m256 135.03-51.19 99.75c0.028 0.054 8.48 16.561 14.156 27.625l-0.031 0.063c-0.035-0.069-0.719-1.438-0.719-1.438l-0.25 0.469c-0.037-0.072-0.75-1.469-0.75-1.469l-0.25 0.469c-0.036-0.071-0.75-1.469-0.75-1.469l-0.25 0.469c-0.036-0.07-0.75-1.469-0.75-1.469l-0.25 0.469c-0.036-0.07-0.75-1.469-0.75-1.469l-0.25 0.469c-0.036-0.069-0.75-1.469-0.75-1.469l-0.25 0.469c-0.033-0.065-0.719-1.438-0.719-1.438l-0.25 0.469c-0.035-0.068-0.75-1.469-0.75-1.469l-0.25 0.469c-0.035-0.068-0.75-1.469-0.75-1.469l-0.25 0.469c-0.034-0.067-0.75-1.469-0.75-1.469l-0.25 0.469c-0.034-0.067-0.75-1.469-0.75-1.469l-0.25 0.469c-0.034-0.066-0.75-1.469-0.75-1.469l-0.25 0.469c-0.032-0.062-0.719-1.438-0.719-1.438l-0.25 0.469c-0.033-0.065-0.75-1.469-0.75-1.469l-0.25 0.469c-0.033-0.065-0.75-1.469-0.75-1.469l-0.25 0.469c-0.033-0.064-0.75-1.469-0.75-1.469l-0.25 0.469c-0.033-0.064-0.75-1.469-0.75-1.469l-0.25 0.469c-0.032-0.063-0.75-1.469-0.75-1.469l-0.25 0.469c-0.032-0.063-0.75-1.469-0.75-1.469l-0.25 0.469c-0.03-0.059-0.719-1.438-0.719-1.438l-0.25 0.469-0.75-1.469-0.25 0.469-0.75-1.469-0.25 0.469-0.75-1.469-0.25 0.469-0.75-1.469-0.25 0.469-0.75-1.469-0.25 0.469-0.719-1.438-0.25 0.469c-0.03-0.059-0.75-1.469-0.75-1.469l-0.25 0.469c-0.03-0.059-0.75-1.469-0.75-1.469l-0.25 0.469c-0.03-0.059-0.75-1.469-0.75-1.469l-0.25 0.469c-0.03-0.058-0.75-1.469-0.75-1.469l-0.25 0.469c-0.03-0.058-0.75-1.469-0.75-1.469l-0.25 0.469c-0.028-0.054-0.719-1.438-0.719-1.438l-0.25 0.469c-0.029-0.057-0.75-1.469-0.75-1.469l-0.25 0.469c-0.029-0.057-0.75-1.469-0.75-1.469l-0.25 0.469c-0.029-0.056-0.75-1.469-0.75-1.469l-0.25 0.469c-0.029-0.056-0.75-1.469-0.75-1.469l-0.25 0.469c-0.028-0.055-0.75-1.469-0.75-1.469l-0.25 0.469c-0.027-0.052-0.719-1.438-0.719-1.438l-0.25 0.469c-0.028-0.055-0.75-1.469-0.75-1.469l-0.25 0.469c-0.028-0.054-0.75-1.469-0.75-1.469l-0.25 0.469c-0.028-0.054-0.75-1.469-0.75-1.469l-0.25 0.469c-0.028-0.054-0.75-1.469-0.75-1.469l-0.25 0.469c-0.027-0.053-0.75-1.469-0.75-1.469l-0.25 0.469c-0.027-0.053-0.75-1.469-0.75-1.469l-0.25 0.469c-0.026-0.05-0.719-1.438-0.719-1.438l-0.25 0.469c-0.027-0.052-0.75-1.469-0.75-1.469l-0.25 0.469c-0.027-0.052-0.75-1.469-0.75-1.469l-0.25 0.469c-0.027-0.052-0.75-1.469-0.75-1.469l-0.25 0.469-0.75-1.469s-0.238 0.444-0.25 0.469l-0.75-1.469-0.25 0.469-0.719-1.438-0.25 0.469-0.75-1.469-0.25 0.469-0.75-1.469-0.25 0.469c-0.026-0.05-0.75-1.469-0.75-1.469l-0.25 0.469c-0.026-0.05-0.75-1.469-0.75-1.469l-0.25 0.469c-0.025-0.049-0.75-1.469-0.75-1.469l-0.25 0.469c-0.024-0.047-0.719-1.438-0.719-1.438l-0.25 0.469c-0.025-0.049-0.75-1.469-0.75-1.469l-0.25 0.469c-0.025-0.049-0.75-1.469-0.75-1.469l-0.25 0.469c-0.025-0.048-0.75-1.469-0.75-1.469l-0.25 0.469c-0.025-0.048-0.75-1.469-0.75-1.469l-0.25 0.469c-0.025-0.048-0.75-1.469-0.75-1.469l-0.25 0.469c-0.024-0.048-0.75-1.469-0.75-1.469l-0.25 0.469c-0.023-0.045-0.719-1.438-0.719-1.438l-0.25 0.469c-0.024-0.047-0.75-1.469-0.75-1.469l-0.25 0.469c-0.024-0.047-0.75-1.469-0.75-1.469l-0.25 0.469c-0.024-0.047-0.75-1.469-0.75-1.469l-0.25 0.469c-0.024-0.046-0.75-1.469-0.75-1.469l-0.25 0.469c-0.024-0.046-0.75-1.469-0.75-1.469l-0.25 0.469-0.719-1.438-0.25 0.469c-0.023-0.046-0.75-1.469-0.75-1.469l-0.25 0.469c-0.023-0.045-0.75-1.469-0.75-1.469l-0.25 0.469c-0.023-0.045-0.75-1.469-0.75-1.469l-0.25 0.469c-0.023-0.045-0.75-1.469-0.75-1.469l-0.25 0.469c-0.023-0.045-0.75-1.469-0.75-1.469l-0.25 0.469-0.719-1.438-0.25 0.469-0.75-1.469-0.25 0.469-0.75-1.469-0.25 0.469-0.75-1.469-0.25 0.469-0.75-1.469-0.25 0.469-0.75-1.469-0.219 0.469-0.75-1.438-0.25 0.469c-0.022-0.043-0.75-1.469-0.75-1.469l-0.25 0.469c-0.022-0.043-0.75-1.469-0.75-1.469l-0.25 0.469c-0.022-0.042-0.75-1.469-0.75-1.469-0.1 0.195-51.19 99.78-51.19 99.78l51.19 99.75c0-0.001 0.247-0.463 0.25-0.469l0.75 1.469 0.25-0.469 0.75 1.469 0.25-0.469 0.75 1.469 0.219-0.469 0.75 1.438 0.25-0.469 0.75 1.469 0.25-0.469 0.75 1.469 0.25-0.469 0.75 1.469 0.25-0.469 0.75 1.469 0.25-0.469 0.75 1.469 0.25-0.469 0.719 1.438 0.25-0.469 0.75 1.469 0.25-0.469 0.75 1.469s0.214-0.399 0.25-0.469l0.75 1.469 0.25-0.469c0.023 0.046 0.75 1.469 0.75 1.469l0.25-0.469c0.024 0.046 0.75 1.469 0.75 1.469l0.25-0.469 0.719 1.438 0.25-0.469c0.024 0.046 0.75 1.469 0.75 1.469l0.25-0.469c0.024 0.047 0.75 1.469 0.75 1.469l0.25-0.469c0.024 0.047 0.75 1.469 0.75 1.469l0.25-0.469c0.024 0.047 0.75 1.469 0.75 1.469l0.25-0.469c0.024 0.047 0.75 1.469 0.75 1.469l0.25-0.469c0.023 0.045 0.719 1.438 0.719 1.438l0.25-0.469c0.025 0.048 0.75 1.469 0.75 1.469l0.25-0.469c0.025 0.048 0.75 1.469 0.75 1.469l0.25-0.469c0.025 0.048 0.75 1.469 0.75 1.469l0.25-0.469c0.025 0.049 0.75 1.469 0.75 1.469l0.25-0.469c0.025 0.049 0.75 1.469 0.75 1.469l0.25-0.469c0.025 0.049 0.75 1.469 0.75 1.469l0.25-0.469c0.024 0.047 0.719 1.438 0.719 1.438l0.25-0.469c0.026 0.05 0.75 1.469 0.75 1.469l0.25-0.469 0.75 1.469 0.25-0.469 0.75 1.469 0.25-0.469 0.75 1.469 0.25-0.469 0.75 1.469 0.25-0.469 0.719 1.438 0.25-0.469 0.75 1.469 0.25-0.469c0.027 0.052 0.75 1.469 0.75 1.469l0.25-0.469c0.027 0.052 0.75 1.469 0.75 1.469l0.25-0.469c0.027 0.052 0.75 1.469 0.75 1.469l0.25-0.469c0.027 0.053 0.75 1.469 0.75 1.469l0.25-0.469c0.026 0.051 0.719 1.438 0.719 1.438l0.25-0.469c0.027 0.053 0.75 1.469 0.75 1.469l0.25-0.469c0.028 0.054 0.75 1.469 0.75 1.469l0.25-0.469c0.028 0.054 0.75 1.469 0.75 1.469l0.25-0.469c0.028 0.054 0.75 1.469 0.75 1.469l0.25-0.469c0.028 0.055 0.75 1.469 0.75 1.469l0.25-0.469c0.028 0.055 0.75 1.469 0.75 1.469l0.25-0.469c0.027 0.053 0.719 1.438 0.719 1.438l0.25-0.469c0.029 0.056 0.75 1.469 0.75 1.469l0.25-0.469c0.029 0.056 0.75 1.469 0.75 1.469l0.25-0.469c0.029 0.057 0.75 1.469 0.75 1.469l0.25-0.469c0.029 0.057 0.75 1.469 0.75 1.469l0.25-0.469c0.029 0.057 0.75 1.469 0.75 1.469l0.25-0.469c0.028 0.055 0.719 1.438 0.719 1.438l0.25-0.469c0.03 0.058 0.75 1.469 0.75 1.469l0.25-0.469c0.03 0.058 0.75 1.469 0.75 1.469l0.25-0.469c0.03 0.059 0.75 1.469 0.75 1.469l0.25-0.469 0.75 1.469 0.25-0.469 0.75 1.469 0.25-0.469 0.719 1.438 0.25-0.469 0.75 1.469s0.243-0.454 0.25-0.469l0.75 1.469 0.25-0.469 0.75 1.469 0.25-0.469c0.032 0.062 0.75 1.469 0.75 1.469l0.25-0.469 0.75 1.469 0.25-0.469c0.031 0.06 0.719 1.438 0.719 1.438l0.25-0.469c0.032 0.063 0.75 1.469 0.75 1.469l0.25-0.469c0.033 0.064 0.75 1.469 0.75 1.469l0.25-0.469c0.033 0.064 0.75 1.469 0.75 1.469l0.25-0.469c0.033 0.065 0.75 1.469 0.75 1.469l0.25-0.469c0.033 0.065 0.75 1.469 0.75 1.469l0.25-0.469c0.034 0.066 0.75 1.469 0.75 1.469l0.25-0.469c0.032 0.063 0.719 1.438 0.719 1.438l0.25-0.469c0.034 0.067 0.75 1.469 0.75 1.469l0.25-0.469c0.034 0.067 0.75 1.469 0.75 1.469l0.25-0.469c0.035 0.068 0.75 1.469 0.75 1.469l0.25-0.469c0.035 0.068 0.75 1.469 0.75 1.469l0.25-0.469c0.035 0.069 0.75 1.469 0.75 1.469l0.25-0.469c0.034 0.066 0.719 1.438 0.719 1.438l0.25-0.469c0.036 0.07 0.75 1.469 0.75 1.469l0.25-0.469c0.036 0.07 0.75 1.469 0.75 1.469l0.25-0.469c0.036 0.071 0.75 1.469 0.75 1.469l0.25-0.469c0.037 0.072 0.75 1.469 0.75 1.469l0.25-0.469c0.037 0.072 0.75 1.469 0.75 1.469l0.25-0.469c0.035 0.069 0.719 1.438 0.719 1.438l0.25-0.469 0.75 1.469 0.25-0.469 0.75 1.469 0.25-0.469 0.75 1.469 0.25-0.469 0.75 1.469 0.25-0.469 0.75 1.469 0.25-0.469 0.75 1.469 0.25-0.469c0.038 0.073 0.719 1.438 0.719 1.438l0.25-0.469c0.04 0.078 0.75 1.469 0.75 1.469l0.25-0.469c0.04 0.079 0.75 1.469 0.75 1.469l0.25-0.469c0.016 0.03 0.148 0.301 0.281 0.563 7.996 0.885 16.11 1.375 24.344 1.375 114.69 0 208.76-88.2 218.13-200.47-0.118-0.23-0.25-0.531-0.25-0.531l-0.25 0.469c-0.04-0.078-0.75-1.469-0.75-1.469l-0.25 0.469-0.75-1.469-0.25 0.469-0.719-1.438-0.25 0.469-0.75-1.469-0.25 0.469-0.75-1.469-0.25 0.469-0.75-1.469-0.25 0.469c-0.038-0.074-0.75-1.469-0.75-1.469l-0.25 0.469c-0.038-0.073-0.75-1.469-0.75-1.469l-0.25 0.469c-0.037-0.073-0.75-1.469-0.75-1.469l-0.25 0.469c-0.035-0.069-0.719-1.438-0.719-1.438l-0.25 0.469c-0.037-0.072-0.75-1.469-0.75-1.469l-0.25 0.469c-0.036-0.071-0.75-1.469-0.75-1.469l-0.25 0.469c-0.036-0.07-0.75-1.469-0.75-1.469l-0.25 0.469c-0.036-0.07-0.75-1.469-0.75-1.469l-0.25 0.469c-0.036-0.069-0.75-1.469-0.75-1.469l-0.25 0.469c-0.033-0.065-0.719-1.438-0.719-1.438l-0.25 0.469c-0.035-0.068-0.75-1.469-0.75-1.469l-0.25 0.469c-0.035-0.068-0.75-1.469-0.75-1.469l-0.25 0.469c-0.034-0.067-0.75-1.469-0.75-1.469l-0.25 0.469c-0.034-0.067-0.75-1.469-0.75-1.469l-0.25 0.469c-0.034-0.066-0.75-1.469-0.75-1.469l-0.25 0.469c-0.032-0.062-0.719-1.438-0.719-1.438l-0.25 0.469c-0.033-0.065-0.75-1.469-0.75-1.469l-0.25 0.469c-0.033-0.065-0.75-1.469-0.75-1.469l-0.25 0.469c-0.033-0.064-0.75-1.469-0.75-1.469l-0.25 0.469c-0.033-0.064-0.75-1.469-0.75-1.469l-0.25 0.469c-0.032-0.063-0.75-1.469-0.75-1.469l-0.25 0.469c-0.032-0.063-0.75-1.469-0.75-1.469l-0.25 0.469c-0.03-0.059-0.719-1.438-0.719-1.438l-0.25 0.469-0.75-1.469-0.25 0.469-0.75-1.469-0.25 0.469-0.75-1.469-0.25 0.469-0.75-1.469-0.25 0.469-0.75-1.469-0.25 0.469-0.719-1.438-0.25 0.469c-0.03-0.059-0.75-1.469-0.75-1.469l-0.25 0.469c-0.03-0.059-0.75-1.469-0.75-1.469l-0.25 0.469c-0.03-0.059-0.75-1.469-0.75-1.469l-0.25 0.469c-0.03-0.058-0.75-1.469-0.75-1.469l-0.25 0.469c-0.03-0.058-0.75-1.469-0.75-1.469l-0.25 0.469c-0.028-0.054-0.719-1.438-0.719-1.438l-0.25 0.469c-0.029-0.057-0.75-1.469-0.75-1.469l-0.25 0.469c-0.029-0.057-0.75-1.469-0.75-1.469l-0.25 0.469c-0.029-0.056-0.75-1.469-0.75-1.469l-0.25 0.469c-0.029-0.056-0.75-1.469-0.75-1.469l-0.25 0.469c-0.028-0.055-0.75-1.469-0.75-1.469l-0.25 0.469c-0.027-0.052-0.719-1.438-0.719-1.438l-0.25 0.469c-0.028-0.055-0.75-1.469-0.75-1.469l-0.25 0.469c-0.028-0.054-0.75-1.469-0.75-1.469l-0.25 0.469c-0.028-0.054-0.75-1.469-0.75-1.469l-0.25 0.469c-0.028-0.054-0.75-1.469-0.75-1.469l-0.25 0.469c-0.027-0.053-0.75-1.469-0.75-1.469l-0.25 0.469c-0.027-0.053-0.75-1.469-0.75-1.469l-0.25 0.469c-0.026-0.05-0.719-1.438-0.719-1.438l-0.25 0.469c-0.027-0.052-0.75-1.469-0.75-1.469l-0.25 0.469c-0.027-0.052-0.75-1.469-0.75-1.469l-0.25 0.469c-0.027-0.052-0.75-1.469-0.75-1.469l-0.25 0.469-0.75-1.469s-0.238 0.444-0.25 0.469l-0.75-1.469-0.25 0.469-0.719-1.438-0.25 0.469-0.75-1.469-0.25 0.469-0.75-1.469-0.25 0.469c-0.026-0.05-0.75-1.469-0.75-1.469l-0.25 0.469c-0.026-0.05-0.75-1.469-0.75-1.469l-0.25 0.469c-0.025-0.049-0.75-1.469-0.75-1.469l-0.25 0.469c-0.024-0.047-0.719-1.438-0.719-1.438l-0.25 0.469c-0.025-0.049-0.75-1.469-0.75-1.469l-0.25 0.469c-0.025-0.049-0.75-1.469-0.75-1.469l-0.25 0.469c-0.025-0.048-0.75-1.469-0.75-1.469l-0.25 0.469c-0.025-0.048-0.75-1.469-0.75-1.469l-0.25 0.469c-0.025-0.048-0.75-1.469-0.75-1.469l-0.25 0.469c-0.024-0.048-0.75-1.469-0.75-1.469l-0.25 0.469c-0.023-0.045-0.719-1.438-0.719-1.438l-0.25 0.469c-0.024-0.047-0.75-1.469-0.75-1.469l-0.25 0.469c-0.024-0.047-0.75-1.469-0.75-1.469l-0.25 0.469c-0.024-0.047-0.75-1.469-0.75-1.469l-0.25 0.469c-0.024-0.046-0.75-1.469-0.75-1.469l-0.25 0.469c-0.024-0.046-0.75-1.469-0.75-1.469l-0.25 0.469-0.719-1.438-0.25 0.469c-0.023-0.046-0.75-1.469-0.75-1.469l-0.25 0.469c-0.023-0.045-0.75-1.469-0.75-1.469l-0.25 0.469c-0.023-0.045-0.75-1.469-0.75-1.469l-0.25 0.469c-0.023-0.045-0.75-1.469-0.75-1.469l-0.25 0.469c-0.023-0.045-0.75-1.469-0.75-1.469l-0.25 0.469-0.719-1.438-0.25 0.469-0.75-1.469-0.25 0.469-0.75-1.469-0.25 0.469-0.75-1.469-0.25 0.469-0.75-1.469-0.25 0.469-0.75-1.469-0.219 0.469-0.75-1.438-0.25 0.469c-0.022-0.043-0.75-1.469-0.75-1.469l-0.25 0.469c-0.022-0.043-0.75-1.469-0.75-1.469l-0.25 0.469c-0.022-0.042-0.75-1.469-0.75-1.469l-26.688 52.41c-0.001-0.002-0.156-0.281-0.156-0.281l-0.25 0.469c-0.022-0.042-0.75-1.469-0.75-1.469l-0.25 0.469c-0.022-0.042-0.75-1.469-0.75-1.469l-0.25 0.469-0.75-1.469-0.219 0.469-0.75-1.438-0.25 0.469-0.75-1.469-0.25 0.469-0.75-1.469-0.25 0.469-0.75-1.469-0.25 0.469-0.75-1.469-0.25 0.469-0.75-1.469-0.25 0.469c-0.022-0.042-0.75-1.469-0.75-1.469l-0.25 0.469c-0.021-0.04-0.719-1.438-0.719-1.438l-0.25 0.469c-0.022-0.042-0.75-1.469-0.75-1.469l-0.25 0.469c-0.022-0.042-0.75-1.469-0.75-1.469l-0.25 0.469c-0.022-0.042-0.75-1.469-0.75-1.469l-0.25 0.469c-0.022-0.042-0.75-1.469-0.75-1.469l-0.25 0.469c-0.022-0.042-0.75-1.469-0.75-1.469l-0.25 0.469c-0.021-0.04-0.719-1.438-0.719-1.438l-0.25 0.469c-0.022-0.042-0.75-1.469-0.75-1.469l-0.25 0.469c-0.022-0.042-0.75-1.469-0.75-1.469l-0.25 0.469c-0.022-0.042-0.75-1.469-0.75-1.469l-0.25 0.469c-0.022-0.042-0.75-1.469-0.75-1.469l-0.25 0.469c-0.022-0.042-0.75-1.469-0.75-1.469l-0.25 0.469c-0.021-0.04-0.719-1.438-0.719-1.438l-0.25 0.469c-0.022-0.042-0.75-1.469-0.75-1.469l-0.25 0.469c-0.022-0.042-0.75-1.469-0.75-1.469l-0.25 0.469c-0.022-0.042-0.75-1.469-0.75-1.469l-0.25 0.469c-0.022-0.042-0.75-1.469-0.75-1.469l-0.25 0.469c-0.022-0.042-0.75-1.469-0.75-1.469l-0.25 0.469c-0.022-0.042-0.75-1.469-0.75-1.469l-0.25 0.469-0.719-1.438-0.25 0.469-0.75-1.469-0.25 0.469-0.75-1.469-0.25 0.469-0.75-1.469-0.25 0.469-0.75-1.469-0.25 0.469-0.75-1.469-0.25 0.469-0.719-1.438-0.25 0.469-0.75-1.469-0.25 0.469c-0.022-0.042-0.75-1.469-0.75-1.469l-0.25 0.469c-0.022-0.042-0.75-1.469-0.75-1.469l-0.25 0.469c-0.022-0.042-0.75-1.469-0.75-1.469l-0.25 0.469c-0.022-0.042-0.75-1.469-0.75-1.469l-0.25 0.469c-0.021-0.04-0.719-1.438-0.719-1.438l-0.25 0.469c-0.022-0.042-0.75-1.469-0.75-1.469l-0.25 0.469c-0.022-0.042-0.75-1.469-0.75-1.469l-0.25 0.469c-0.022-0.042-0.75-1.469-0.75-1.469l-0.25 0.469c-0.022-0.042-0.75-1.469-0.75-1.469l-0.25 0.469c-0.022-0.042-0.75-1.469-0.75-1.469l-0.25 0.469c-0.021-0.04-0.719-1.438-0.719-1.438l-0.25 0.469c-0.022-0.042-0.75-1.469-0.75-1.469l-0.25 0.469c-0.022-0.042-0.75-1.469-0.75-1.469l-0.25 0.469c-0.022-0.042-0.75-1.469-0.75-1.469l-0.25 0.469c-0.022-0.042-0.75-1.469-0.75-1.469l-0.25 0.469c-0.022-0.042-0.75-1.469-0.75-1.469l-0.25 0.469c-0.022-0.042-0.75-1.469-0.75-1.469l-0.25 0.469c-0.021-0.04-0.719-1.438-0.719-1.438l-0.25 0.469c-0.022-0.042-0.75-1.469-0.75-1.469l-0.25 0.469c-0.022-0.042-0.75-1.469-0.75-1.469l-0.25 0.469c-0.022-0.042-0.75-1.469-0.75-1.469l-0.25 0.469-0.75-1.469-0.25 0.469-0.75-1.469-0.25 0.469-0.719-1.438-0.25 0.469-0.75-1.469-0.25 0.469-0.75-1.469-0.25 0.469-0.75-1.469-0.25 0.469c-0.022-0.042-0.75-1.469-0.75-1.469l-0.25 0.469c-0.022-0.042-0.75-1.469-0.75-1.469l-0.25 0.469c-0.021-0.04-0.719-1.438-0.719-1.438l-0.25 0.469c-0.022-0.042-0.75-1.469-0.75-1.469l-0.25 0.469c-0.022-0.042-0.75-1.469-0.75-1.469l-0.25 0.469c-0.022-0.042-0.75-1.469-0.75-1.469l-0.25 0.469c-0.022-0.042-0.75-1.469-0.75-1.469l-0.25 0.469c-0.022-0.042-0.75-1.469-0.75-1.469l-0.25 0.469c-0.022-0.042-0.75-1.469-0.75-1.469l-0.25 0.469c-0.021-0.04-0.719-1.438-0.719-1.438l-0.25 0.469c-0.022-0.042-0.75-1.469-0.75-1.469l-0.25 0.469c-0.022-0.042-0.75-1.469-0.75-1.469l-0.25 0.469c-0.022-0.042-0.75-1.469-0.75-1.469l-0.25 0.469c-0.022-0.042-0.75-1.469-0.75-1.469l-0.25 0.469c-0.022-0.042-0.75-1.469-0.75-1.469l-0.25 0.469c-0.021-0.04-0.719-1.438-0.719-1.438l-0.25 0.469c-0.022-0.042-0.75-1.469-0.75-1.469l-0.25 0.469c-0.022-0.042-0.75-1.469-0.75-1.469l-0.25 0.469c-0.022-0.042-0.75-1.469-0.75-1.469l-0.25 0.469c-0.022-0.042-0.75-1.469-0.75-1.469l-0.25 0.469c-0.022-0.042-0.75-1.469-0.75-1.469l-0.25 0.469c-0.021-0.04-0.719-1.438-0.719-1.438l-0.25 0.469c-0.022-0.042-0.75-1.469-0.75-1.469l-0.25 0.469-0.75-1.469-0.25 0.469-0.75-1.469-0.25 0.469-0.75-1.469-0.25 0.469-0.75-1.469-0.25 0.469-0.719-1.438-0.25 0.469c-0.022-0.042-0.75-1.469-0.75-1.469l-0.25 0.469c-0.022-0.042-0.75-1.469-0.75-1.469l-0.25 0.469-0.75-1.469" fill-opacity="0.235" transform="translate(0,540.36)"/>
   <path id="path18" fill-opacity="0.067" d="m256 541.36c-140.83 0-255 114.17-255 255s114.17 255 255 255 255-114.17 255-255-114.17-255-255-255m8.827 44.931c120.9 0 218.9 98 218.9 218.9s-98 218.9-218.9 218.9-218.93-98-218.93-218.9 98.03-218.9 218.93-218.9"/>
   <g id="g20" fill-opacity="0.129">
    <path id="path22" d="m256 544.79c-138.94 0-251.57 112.63-251.57 251.57s112.63 251.54 251.57 251.54 251.57-112.6 251.57-251.54-112.63-251.57-251.57-251.57m5.885 38.556c120.9 0 218.9 98 218.9 218.9s-98 218.9-218.9 218.9-218.93-98-218.93-218.9 98.03-218.9 218.93-218.9"/>
    <path id="path24" d="m256 548.72c-136.77 0-247.64 110.87-247.64 247.64s110.87 247.64 247.64 247.64 247.64-110.87 247.64-247.64-110.87-247.64-247.64-247.64m2.942 31.691c120.9 0 218.9 98 218.9 218.9s-98 218.9-218.9 218.9-218.93-98-218.93-218.9 98.03-218.9 218.93-218.9"/>
   </g>
   <path id="path26" d="m253.04 548.22c-135.42 0-245.19 109.78-245.19 245.19 0 135.42 109.78 245.19 245.19 245.19 135.42 0 245.19-109.78 245.19-245.19 0-135.42-109.78-245.19-245.19-245.19zm0 26.297c120.9 0 218.9 98 218.9 218.9s-98 218.9-218.9 218.9-218.93-98-218.93-218.9 98.03-218.9 218.93-218.9z" stroke-opacity="0.31" stroke="#000" stroke-width="4.904" fill="#fff"/>
  </g>
  <text id="text28" font-size="129.23" line-height="125%" y="771.72" x="729.64" font-family="Gentium Book Basic" word-spacing="0" letter-spacing="0"><tspan id="tspan30" y="771.72" x="729.64"/>
  </text>
  <text id="text32" font-size="46.954" transform="scale(4.0128 .2492)" y="2747.64" x="378.91" font-family="Arial" text-anchor="middle"/>
  <text id="text34" font-size="129.23" line-height="125%" y="691.72" x="1310.91" font-family="Gentium Book Basic" word-spacing="0" letter-spacing="0"><tspan id="tspan36" y="691.72" x="1310.91"/>
  </text>
  <text id="text38" font-size="46.954" transform="scale(4.0128 .2492)" y="2426.6" x="523.76" font-family="Arial" text-anchor="middle"/>
  <text id="text40" font-size="129.23" line-height="125%" y="510.46" x="239.33" font-family="Gentium Book Basic" word-spacing="0" letter-spacing="0"><tspan id="tspan42" y="510.46" x="239.33"/>
  </text>
  <text id="text44" font-size="46.954" transform="scale(4.0128 .2492)" y="1699.25" x="256.72" font-family="Arial" text-anchor="middle"/>
  <text id="text46" font-size="129.23" line-height="125%" y="293.99" x="1337.38" font-family="Gentium Book Basic" word-spacing="0" letter-spacing="0"><tspan id="tspan48" y="293.99" x="1337.38"/>
  </text>
  <text id="text50" font-size="46.954" transform="scale(4.0128 .2492)" y="830.57" x="530.36" font-family="Arial" text-anchor="middle"/>
  <text id="text52" font-size="129.23" line-height="125%" y="213.99" x="1918.65" font-family="Gentium Book Basic" word-spacing="0" letter-spacing="0"><tspan id="tspan54" y="213.99" x="1918.65"/>
  </text>
  <text id="text56" font-size="46.954" transform="scale(4.0128 .2492)" y="509.54" x="675.21" font-family="Arial" text-anchor="middle"/>
  <text id="text58" font-size="129.23" line-height="125%" y="-258.41" x="1529.53" font-family="Gentium Book Basic" word-spacing="0" letter-spacing="0"><tspan id="tspan60" y="-258.41" x="1529.53"/>
  </text>
  <text id="text62" font-size="46.954" transform="scale(4.0128 .2492)" y="-1386.12" x="578.24" font-family="Arial" text-anchor="middle"/>
  <text id="text64" font-size="129.23" line-height="125%" y="-338.42" x="2110.79" font-family="Gentium Book Basic" word-spacing="0" letter-spacing="0"><tspan id="tspan66" y="-338.42" x="2110.79"/>
  </text>
  <text id="text68" font-size="46.954" transform="scale(4.0128 .2492)" y="-1707.16" x="723.09" font-family="Arial" text-anchor="middle"/>
  <text id="text70" font-size="208.33" line-height="125%" y="1076.3" x="277.99" font-family="Gentium Book Basic" word-spacing="0" letter-spacing="0"><tspan id="tspan72" y="1076.3" x="277.99"/>
  </text>
  <g id="g74" fill="#fff" transform="matrix(-.4565 .88972 -.4565 -.88972 0 21.21)" fill-rule="evenodd">
   <path id="path76" d="m244.02-651.05h112.14v112.14h-112.14z"/>
   <path id="path78" d="m-21.877-916.94h112.14v112.14h-112.14z"/>
   <path id="path80" d="m87.23-760.15h112.14v112.14h-112.14z"/>
  </g>
 </g>
</svg>
