<?xml version="1.0" encoding="UTF-8" standalone="no"?>
<svg xmlns="http://www.w3.org/2000/svg" height="512" viewBox="0 0 512 512" width="512" version="1.1">
 <metadata id="metadata90"/>
 <g id="g4" font-family="Gentium Book Basic" font-size="208.33" line-height="125%" word-spacing="0" letter-spacing="0">
 </g>
 <path id="path22" d="m471.95 253.05c0 120.9-98.01 218.9-218.9 218.9-120.9 0-218.9-98.01-218.9-218.9 0-120.9 98.01-218.9 218.9-218.9 120.9 0 218.9 98.01 218.9 218.9" fill-rule="evenodd" fill="#BF9E73"/>
 <g id="g26" fill-rule="evenodd">
  <path id="path28" fill-opacity="0.067" d="m256 1c-140.83 0-255 114.17-255 255s114.17 255 255 255 255-114.17 255-255-114.17-255-255-255m8.827 44.931c120.9 0 218.9 98 218.9 218.9s-98 218.9-218.9 218.9-218.93-98-218.93-218.9 98.03-218.9 218.93-218.9"/>
  <g id="g30" fill-opacity="0.129">
   <path id="path32" d="m256 4.433c-138.94 0-251.57 112.63-251.57 251.57s112.63 251.57 251.57 251.57 251.57-112.63 251.57-251.57-112.63-251.57-251.57-251.57m5.885 38.556c120.9 0 218.9 98 218.9 218.9s-98 218.9-218.9 218.9-218.93-98-218.93-218.9 98.03-218.9 218.93-218.9"/>
   <path id="path34" d="m256 8.356c-136.77 0-247.64 110.87-247.64 247.64s110.87 247.64 247.64 247.64 247.64-110.87 247.64-247.64-110.87-247.64-247.64-247.64m2.942 31.691c120.9 0 218.9 98 218.9 218.9s-98 218.9-218.9 218.9-218.93-98-218.93-218.9 98.03-218.9 218.93-218.9"/>
  </g>
  <path id="path36" d="m253.04 7.859c-135.42 0-245.19 109.78-245.19 245.19 0 135.42 109.78 245.19 245.19 245.19 135.42 0 245.19-109.78 245.19-245.19 0-135.42-109.78-245.19-245.19-245.19zm0 26.297c120.9 0 218.9 98 218.9 218.9s-98 218.9-218.9 218.9-218.93-98-218.93-218.9 98.03-218.9 218.93-218.9z" stroke-opacity="0.31" stroke="#000" stroke-width="4.904" fill="#fff"/>
 </g>
 <path id="path84" fill="#fff" d="m182.43 156.19c-52.965 0-95.94 42.95-95.94 95.91 0 52.957 42.973 95.91 95.94 95.91 52.965 0 95.88-42.95 95.88-95.91 0-52.957-42.911-95.91-95.88-95.91m-0.03 19.573c42.16 0 76.33 34.19 76.33 76.33 0 42.15-34.18 76.33-76.33 76.33-42.16 0-76.33-34.19-76.33-76.33 0-42.15 34.18-76.33 76.33-76.33m174.08 13.151c-34.893 0-63.18 28.29-63.18 63.18 0 34.893 28.29 63.18 63.18 63.18 34.893 0 63.18-28.29 63.18-63.18 0-34.893-28.29-63.18-63.18-63.18m0 19.573c24.08 0 43.611 19.527 43.611 43.611 0 24.08-19.527 43.611-43.611 43.611-24.08 0-43.611-19.527-43.611-43.611 0-24.08 19.527-43.611 43.611-43.611"/>
</svg>
