<?xml version="1.0" encoding="UTF-8" standalone="no"?>
<svg xmlns="http://www.w3.org/2000/svg" height="512" viewBox="0 0 512 512" width="512" version="1.1">
 <metadata id="metadata86"/>
 <path id="path4" d="m471.95 253.05c0 120.9-98.01 218.9-218.9 218.9-120.9 0-218.9-98.01-218.9-218.9 0-120.9 98.01-218.9 218.9-218.9 120.9 0 218.9 98.01 218.9 218.9" fill-rule="evenodd" fill="#BF9E73"/>
 <path id="path6" fill-opacity="0.235" d="m245.84 113.81c-18.662 0-34.05 14.554-35.438 32.875-3.427 1.387-6.835 2.882-10.219 4.5-23.332 11.159-43.11 26.745-58.22 44.781-2.513-0.567-5.132-0.906-7.813-0.906-19.568 0-35.563 15.963-35.563 35.531 0 10.247 4.385 19.528 11.375 26.03 0.147 0.148 0.288 0.292 0.438 0.438 0.051 0.053 0.105 0.103 0.156 0.156 0.113 0.109 0.229 0.205 0.344 0.313 0.136 0.138 0.268 0.27 0.406 0.406-4.441 22.433-2.272 45.41 7.875 66.63 5.377 11.243 12.561 21.05 21.13 29.375-0.702 2.779-1.094 5.664-1.094 8.656 0 10.126 4.289 19.29 11.125 25.781 0.107 0.11 0.204 0.235 0.313 0.344 0.071 0.065 0.148 0.123 0.219 0.188 0.032 0.031 0.062 0.062 0.094 0.094 0.387 0.409 0.782 0.797 1.188 1.188 0.267 0.278 0.537 0.543 0.813 0.813 0.379 0.4 0.759 0.805 1.156 1.188 0.382 0.398 0.788 0.777 1.188 1.156 0.107 0.11 0.204 0.235 0.313 0.344 0.071 0.065 0.148 0.123 0.219 0.188 0.063 0.062 0.124 0.126 0.188 0.188 0.196 0.206 0.393 0.424 0.594 0.625 0.071 0.065 0.148 0.123 0.219 0.188 0.46 0.49 0.919 0.974 1.406 1.438 0.222 0.228 0.46 0.434 0.688 0.656 0.379 0.4 0.759 0.805 1.156 1.188 0.382 0.398 0.788 0.777 1.188 1.156 0.107 0.11 0.204 0.235 0.313 0.344 0.071 0.065 0.148 0.123 0.219 0.188 0.063 0.062 0.124 0.126 0.188 0.188 0.196 0.206 0.393 0.424 0.594 0.625 0.071 0.065 0.148 0.123 0.219 0.188 0.46 0.49 0.919 0.974 1.406 1.438 0.222 0.228 0.46 0.434 0.688 0.656 0.324 0.342 0.663 0.671 1 1 0.379 0.4 0.759 0.805 1.156 1.188 0.382 0.398 0.788 0.777 1.188 1.156 0.107 0.11 0.204 0.235 0.313 0.344 0.071 0.065 0.148 0.123 0.219 0.188 0.46 0.49 0.919 0.974 1.406 1.438 0.222 0.228 0.46 0.434 0.688 0.656 0.324 0.342 0.663 0.671 1 1 0.379 0.4 0.759 0.805 1.156 1.188 0.382 0.398 0.788 0.777 1.188 1.156 0.107 0.11 0.204 0.235 0.313 0.344 0.071 0.065 0.148 0.123 0.219 0.188 0.063 0.062 0.124 0.126 0.188 0.188 0.196 0.206 0.393 0.424 0.594 0.625 0.071 0.065 0.148 0.123 0.219 0.188 0.46 0.49 0.919 0.974 1.406 1.438 0.222 0.228 0.46 0.434 0.688 0.656 0.379 0.4 0.759 0.805 1.156 1.188 0.382 0.398 0.788 0.777 1.188 1.156 0.107 0.11 0.204 0.235 0.313 0.344 0.071 0.065 0.148 0.123 0.219 0.188 0.063 0.062 0.124 0.126 0.188 0.188 0.196 0.206 0.393 0.424 0.594 0.625 0.071 0.065 0.148 0.123 0.219 0.188 0.46 0.49 0.919 0.974 1.406 1.438 0.222 0.228 0.46 0.434 0.688 0.656 0.324 0.342 0.663 0.671 1 1 0.437 0.462 0.883 0.906 1.344 1.344 0.107 0.11 0.204 0.235 0.313 0.344 0.071 0.065 0.148 0.123 0.219 0.188 0.063 0.062 0.124 0.126 0.188 0.188 0.196 0.206 0.393 0.424 0.594 0.625 0.071 0.065 0.148 0.123 0.219 0.188 0.46 0.49 0.919 0.974 1.406 1.438 0.222 0.228 0.46 0.434 0.688 0.656 0.324 0.342 0.663 0.671 1 1 0.379 0.4 0.759 0.805 1.156 1.188 0.382 0.398 0.788 0.777 1.188 1.156 0.107 0.11 0.204 0.235 0.313 0.344 0.071 0.065 0.148 0.123 0.219 0.188 0.063 0.062 0.124 0.126 0.188 0.188 0.196 0.206 0.393 0.424 0.594 0.625 0.071 0.065 0.148 0.123 0.219 0.188 0.032 0.031 0.062 0.062 0.094 0.094 0.387 0.409 0.782 0.797 1.188 1.188 0.267 0.278 0.537 0.543 0.813 0.813 0.379 0.4 0.759 0.805 1.156 1.188 0.382 0.398 0.788 0.777 1.188 1.156 0.107 0.11 0.204 0.235 0.313 0.344 0.071 0.065 0.148 0.123 0.219 0.188 0.063 0.062 0.124 0.126 0.188 0.188 0.196 0.206 0.393 0.424 0.594 0.625 0.071 0.065 0.148 0.123 0.219 0.188 0.46 0.49 0.919 0.974 1.406 1.438 0.222 0.228 0.46 0.434 0.688 0.656 0.379 0.4 0.759 0.805 1.156 1.188 0.382 0.398 0.788 0.777 1.188 1.156 0.107 0.11 0.204 0.235 0.313 0.344 0.071 0.065 0.148 0.123 0.219 0.188 0.063 0.062 0.124 0.126 0.188 0.188 0.196 0.206 0.393 0.424 0.594 0.625 0.071 0.065 0.148 0.123 0.219 0.188 0.46 0.49 0.919 0.974 1.406 1.438 0.222 0.228 0.46 0.434 0.688 0.656 0.324 0.342 0.663 0.671 1 1 0.379 0.4 0.759 0.805 1.156 1.188 0.382 0.398 0.788 0.777 1.188 1.156 0.107 0.11 0.204 0.235 0.313 0.344 0.071 0.065 0.148 0.123 0.219 0.188 0.46 0.49 0.919 0.974 1.406 1.438 0.222 0.228 0.46 0.434 0.688 0.656 0.324 0.342 0.663 0.671 1 1 0.379 0.4 0.759 0.805 1.156 1.188 0.382 0.398 0.788 0.777 1.188 1.156 0.107 0.11 0.204 0.235 0.313 0.344 0.071 0.065 0.148 0.123 0.219 0.188 0.063 0.062 0.124 0.126 0.188 0.188 0.196 0.206 0.393 0.424 0.594 0.625 0.071 0.065 0.148 0.123 0.219 0.188 0.46 0.49 0.919 0.974 1.406 1.438 0.222 0.228 0.46 0.434 0.688 0.656 0.379 0.4 0.759 0.805 1.156 1.188 0.382 0.398 0.788 0.777 1.188 1.156 0.107 0.11 0.204 0.235 0.313 0.344 0.071 0.065 0.148 0.123 0.219 0.188 0.063 0.062 0.124 0.126 0.188 0.188 0.196 0.206 0.393 0.424 0.594 0.625 0.071 0.065 0.148 0.123 0.219 0.188 0.46 0.49 0.919 0.974 1.406 1.438 0.222 0.228 0.46 0.434 0.688 0.656 0.324 0.342 0.663 0.671 1 1 0.437 0.462 0.883 0.906 1.344 1.344 0.107 0.11 0.204 0.235 0.313 0.344 0.071 0.065 0.148 0.123 0.219 0.188 0.063 0.062 0.124 0.126 0.188 0.188 0.196 0.206 0.393 0.424 0.594 0.625 0.071 0.065 0.148 0.123 0.219 0.188 0.46 0.49 0.919 0.974 1.406 1.438 0.031 0.032 0.062 0.063 0.094 0.094 6.609 0.601 13.297 0.938 20.06 0.938 120.53 0 218.31-97.42 218.91-217.81-0.038-0.035-0.088-0.059-0.125-0.094-0.065-0.071-0.122-0.148-0.188-0.219-0.108-0.108-0.234-0.206-0.344-0.313-0.38-0.4-0.759-0.806-1.156-1.188-0.49-0.509-0.981-1.021-1.5-1.5-0.335-0.334-0.652-0.679-1-1-0.117-0.116-0.226-0.229-0.344-0.344-0.464-0.487-0.947-0.946-1.438-1.406-0.065-0.071-0.122-0.148-0.188-0.219-0.263-0.263-0.541-0.527-0.813-0.781-0.065-0.071-0.122-0.148-0.188-0.219-0.108-0.108-0.234-0.206-0.344-0.313-0.545-0.574-1.075-1.151-1.656-1.688-0.335-0.334-0.652-0.679-1-1-0.117-0.116-0.226-0.229-0.344-0.344-0.464-0.487-0.947-0.946-1.438-1.406-0.065-0.071-0.122-0.148-0.188-0.219-0.263-0.263-0.541-0.527-0.813-0.781-0.065-0.071-0.122-0.148-0.188-0.219-0.108-0.108-0.234-0.206-0.344-0.313-0.38-0.4-0.759-0.806-1.156-1.188-0.49-0.509-0.981-1.021-1.5-1.5-0.117-0.116-0.226-0.229-0.344-0.344-0.464-0.487-0.947-0.946-1.438-1.406-0.065-0.071-0.122-0.148-0.188-0.219-0.263-0.263-0.541-0.527-0.813-0.781-0.065-0.071-0.122-0.148-0.188-0.219-0.108-0.108-0.234-0.206-0.344-0.313-0.38-0.4-0.759-0.806-1.156-1.188-0.49-0.509-0.981-1.021-1.5-1.5-0.164-0.164-0.333-0.308-0.5-0.469-0.421-0.438-0.838-0.865-1.281-1.281-0.065-0.071-0.122-0.148-0.188-0.219-0.263-0.263-0.541-0.527-0.813-0.781-0.065-0.071-0.122-0.148-0.188-0.219-0.108-0.108-0.234-0.206-0.344-0.313-0.38-0.4-0.759-0.806-1.156-1.188-0.49-0.509-0.981-1.021-1.5-1.5-0.335-0.334-0.652-0.679-1-1-0.117-0.116-0.226-0.229-0.344-0.344-0.464-0.487-0.947-0.946-1.438-1.406-0.065-0.071-0.122-0.148-0.188-0.219-0.263-0.263-0.541-0.527-0.813-0.781-0.065-0.071-0.122-0.148-0.188-0.219-0.108-0.108-0.234-0.206-0.344-0.313-0.545-0.574-1.075-1.151-1.656-1.688-0.335-0.334-0.652-0.679-1-1-0.117-0.116-0.226-0.229-0.344-0.344-0.464-0.487-0.947-0.946-1.438-1.406-0.065-0.071-0.122-0.148-0.188-0.219-0.263-0.263-0.541-0.527-0.813-0.781-0.065-0.071-0.122-0.148-0.188-0.219-0.108-0.108-0.234-0.206-0.344-0.313-0.38-0.4-0.759-0.806-1.156-1.188-0.49-0.509-0.981-1.021-1.5-1.5-0.117-0.116-0.226-0.229-0.344-0.344-0.464-0.487-0.947-0.946-1.438-1.406-0.065-0.071-0.122-0.148-0.188-0.219-0.263-0.263-0.541-0.527-0.813-0.781-0.065-0.071-0.122-0.148-0.188-0.219-0.108-0.108-0.234-0.206-0.344-0.313-0.38-0.4-0.759-0.806-1.156-1.188-0.49-0.509-0.981-1.021-1.5-1.5-0.335-0.334-0.652-0.679-1-1-0.117-0.116-0.226-0.229-0.344-0.344-0.464-0.487-0.947-0.946-1.438-1.406-0.065-0.071-0.122-0.148-0.188-0.219-0.108-0.108-0.234-0.206-0.344-0.313-0.38-0.4-0.759-0.806-1.156-1.188-0.49-0.509-0.981-1.021-1.5-1.5-0.335-0.334-0.652-0.679-1-1-0.117-0.116-0.226-0.229-0.344-0.344-0.464-0.487-0.947-0.946-1.438-1.406-0.065-0.071-0.122-0.148-0.188-0.219-0.263-0.263-0.541-0.527-0.813-0.781-0.065-0.071-0.122-0.148-0.188-0.219-0.108-0.108-0.234-0.206-0.344-0.313-0.38-0.4-0.759-0.806-1.156-1.188-0.49-0.509-0.981-1.021-1.5-1.5-0.117-0.116-0.226-0.229-0.344-0.344-0.464-0.487-0.947-0.946-1.438-1.406-0.065-0.071-0.122-0.148-0.188-0.219-0.263-0.263-0.541-0.527-0.813-0.781-0.065-0.071-0.122-0.148-0.188-0.219-0.108-0.108-0.234-0.206-0.344-0.313-0.38-0.4-0.759-0.806-1.156-1.188-0.49-0.509-0.981-1.021-1.5-1.5-0.164-0.164-0.333-0.308-0.5-0.469-0.421-0.438-0.838-0.865-1.281-1.281-0.065-0.071-0.122-0.148-0.188-0.219-0.108-0.108-0.234-0.206-0.344-0.313-6.491-6.836-15.656-11.125-25.781-11.125-1.807 0-3.576 0.203-5.313 0.469-0.005-0.005-0.026 0.005-0.031 0-0.006-0.006 0.006-0.025 0-0.031-0.011-0.01-0.021-0.021-0.031-0.031-0.246-0.243-0.501-0.478-0.75-0.719-0.086-0.091-0.163-0.191-0.25-0.281-0.246-0.243-0.501-0.478-0.75-0.719-0.087-0.091-0.163-0.19-0.25-0.281-0.236-0.233-0.481-0.457-0.719-0.688-0.099-0.101-0.182-0.212-0.281-0.313-0.063-0.062-0.124-0.126-0.188-0.188-0.448-0.452-0.888-0.9-1.344-1.344-0.478-0.478-0.95-0.969-1.438-1.438-0.084-0.083-0.166-0.168-0.25-0.25-21.459-21.611-52.15-33.559-85.5-34.875-0.172-0.17-0.356-0.334-0.531-0.5-0.304-0.312-0.622-0.605-0.938-0.906-0.364-0.376-0.713-0.765-1.094-1.125-0.263-0.269-0.51-0.552-0.781-0.813-0.29-0.302-0.606-0.584-0.906-0.875-0.458-0.481-0.922-0.952-1.406-1.406-0.268-0.272-0.536-0.549-0.813-0.813-0.314-0.323-0.643-0.627-0.969-0.938-0.329-0.34-0.658-0.674-1-1-0.329-0.34-0.658-0.674-1-1-6.47-6.684-15.482-10.875-25.469-10.875" color="#000000"/>
 <g id="g8" fill-rule="evenodd">
  <path id="path10" fill-opacity="0.067" d="m256 1c-140.83 0-255 114.17-255 255s114.17 255 255 255 255-114.17 255-255-114.17-255-255-255m8.827 44.931c120.9 0 218.9 98 218.9 218.9s-98 218.9-218.9 218.9-218.93-98-218.93-218.9 98.03-218.9 218.93-218.9"/>
  <g id="g12" fill-opacity="0.129">
   <path id="path14" d="m256 4.433c-138.94 0-251.57 112.63-251.57 251.57s112.63 251.57 251.57 251.57 251.57-112.63 251.57-251.57-112.63-251.57-251.57-251.57m5.885 38.556c120.9 0 218.9 98 218.9 218.9s-98 218.9-218.9 218.9-218.93-98-218.93-218.9 98.03-218.9 218.93-218.9"/>
   <path id="path16" d="m256 8.356c-136.77 0-247.64 110.87-247.64 247.64s110.87 247.64 247.64 247.64 247.64-110.87 247.64-247.64-110.87-247.64-247.64-247.64m2.942 31.691c120.9 0 218.9 98 218.9 218.9s-98 218.9-218.9 218.9-218.93-98-218.93-218.9 98.03-218.9 218.93-218.9"/>
  </g>
  <path id="path18" d="m253.04 7.859c-135.42 0-245.19 109.78-245.19 245.19 0 135.42 109.78 245.19 245.19 245.19 135.42 0 245.19-109.78 245.19-245.19 0-135.42-109.78-245.19-245.19-245.19zm0 26.297c120.9 0 218.9 98 218.9 218.9s-98 218.9-218.9 218.9-218.93-98-218.93-218.9 98.03-218.9 218.93-218.9z" stroke-opacity="0.31" stroke="#000" stroke-width="4.904" fill="#fff"/>
 </g>
 <g id="g66" stroke="#fff" stroke-linecap="square" stroke-miterlimit="10" transform="matrix(10.154 0 0 10.154 83.38 98.61)">
  <path id="path68" stroke-linejoin="round" stroke-width="2.5" fill="none" d="m4.653 21.715c2.553 5.338 10 7.093 16.633 3.92 6.634-3.173 9.942-10.07 7.389-15.409-2.553-5.338-10-7.093-16.633-3.92-6.634 3.173-9.942 10.07-7.389 15.409z"/>
  <g id="g70" fill="#fff">
   <path id="path72" d="m19 5c0 1.657-1.343 3-3 3s-3-1.343-3-3 1.343-3 3-3 3 1.343 3 3z"/>
   <path id="path74" d="m8 13c0 1.657-1.343 3-3 3s-3-1.343-3-3 1.343-3 3-3 3 1.343 3 3z"/>
   <path id="path76" d="m12 26c0 1.657-1.343 3-3 3s-3-1.343-3-3 1.343-3 3-3 3 1.343 3 3z"/>
   <path id="path78" d="m27 24c0 1.657-1.343 3-3 3s-3-1.343-3-3 1.343-3 3-3 3 1.343 3 3z"/>
   <path id="path80" d="m32 11c0 1.657-1.343 3-3 3s-3-1.343-3-3 1.343-3 3-3 3 1.343 3 3z"/>
  </g>
 </g>
</svg>
