<?xml version="1.0" encoding="UTF-8" standalone="no"?>
<svg xmlns="http://www.w3.org/2000/svg" height="512" viewBox="0 0 512 512" width="512" version="1.1">
 <metadata id="metadata74"/>
 <g id="g4" fill-rule="evenodd">
  <path id="path6" fill="#BF9E73" d="m471.95 253.05c0 120.9-98.01 218.9-218.9 218.9-120.9 0-218.9-98.01-218.9-218.9 0-120.9 98.01-218.9 218.9-218.9 120.9 0 218.9 98.01 218.9 218.9"/>
  <path id="path8" fill-opacity="0.067" d="m256 1c-140.83 0-255 114.17-255 255s114.17 255 255 255 255-114.17 255-255-114.17-255-255-255m8.827 44.931c120.9 0 218.9 98 218.9 218.9s-98 218.9-218.9 218.9-218.93-98-218.93-218.9 98.03-218.9 218.93-218.9"/>
  <g id="g10" fill-opacity="0.129">
   <path id="path12" d="m256 4.433c-138.94 0-251.57 112.63-251.57 251.57s112.63 251.57 251.57 251.57 251.57-112.63 251.57-251.57-112.63-251.57-251.57-251.57m5.885 38.556c120.9 0 218.9 98 218.9 218.9s-98 218.9-218.9 218.9-218.93-98-218.93-218.9 98.03-218.9 218.93-218.9"/>
   <path id="path14" d="m256 8.356c-136.77 0-247.64 110.87-247.64 247.64s110.87 247.64 247.64 247.64 247.64-110.87 247.64-247.64-110.87-247.64-247.64-247.64m2.942 31.691c120.9 0 218.9 98 218.9 218.9s-98 218.9-218.9 218.9-218.93-98-218.93-218.9 98.03-218.9 218.93-218.9"/>
  </g>
  <path id="path16" d="m253.04 7.859c-135.42 0-245.19 109.78-245.19 245.19 0 135.42 109.78 245.19 245.19 245.19 135.42 0 245.19-109.78 245.19-245.19 0-135.42-109.78-245.19-245.19-245.19zm0 26.297c120.9 0 218.9 98 218.9 218.9s-98 218.9-218.9 218.9-218.93-98-218.93-218.9 98.03-218.9 218.93-218.9z" stroke-opacity="0.31" stroke="#000" stroke-width="4.904" fill="#fff"/>
 </g>
 <g id="g64" fill-rule="evenodd">
  <path id="path66" fill-opacity="0.235" d="m253.64 85.13c-20.994 30.15-38.34 62.64-58.37 93.41-35.467 9.661-71.7 16.283-106.87 27.03 13.505 17.38 28.548 33.571 42.719 50.34 12.681 16.628 35.23 30.835 27.13 54.44-2.361 29.767-5.863 59.47-6.563 89.34 12.177 10.974 50.903 47.51 73.47 69.03 12.236 2.122 24.813 3.25 37.656 3.25 116.59 0 211.89-91.17 218.53-206.09-20.09-19.11-48.926-47.34-63-60.37-19.458-8.246-40.769-10.966-60.813-17.375-18.64-15.15-34.46-34.32-52.25-50.813-17.271-17.341-34.686-34.716-51.625-52.19"/>
  <path id="path68" fill="#fff" d="m419 205.25c0.681 2.098-70.42 82.26-71.09 84.36-0.681 2.098 9.737 108.74 7.952 110.04-1.786 1.293-100-41.55-102.2-41.55-2.209-0.004-100.41 42.866-102.19 41.571-1.786-1.297 8.614-107.94 7.929-110.04-0.681-2.094-71.796-82.24-71.11-84.34 0.681-2.098 105.32-25.16 107.1-26.459 1.782-1.297 56.04-93.7 58.24-93.7 2.209 0.004 56.47 92.39 58.26 93.68 1.786 1.297 106.42 24.338 107.11 26.437"/>
 </g>
</svg>
