<?xml version="1.0" encoding="UTF-8" standalone="no"?>
<svg
   xmlns:dc="http://purl.org/dc/elements/1.1/"
   xmlns:cc="http://creativecommons.org/ns#"
   xmlns:rdf="http://www.w3.org/1999/02/22-rdf-syntax-ns#"
   xmlns:svg="http://www.w3.org/2000/svg"
   xmlns="http://www.w3.org/2000/svg"
   xmlns:sodipodi="http://sodipodi.sourceforge.net/DTD/sodipodi-0.dtd"
   xmlns:inkscape="http://www.inkscape.org/namespaces/inkscape"
   height="512"
   viewBox="0 0 512 512"
   width="512"
   version="1.1"
   id="svg2"
   inkscape:version="0.91 r13725"
   sodipodi:docname="gimp.svg">
  <defs
     id="defs17" />
  <sodipodi:namedview
     pagecolor="#ffffff"
     bordercolor="#666666"
     borderopacity="1"
     objecttolerance="10"
     gridtolerance="10"
     guidetolerance="10"
     inkscape:pageopacity="0"
     inkscape:pageshadow="2"
     inkscape:window-width="1920"
     inkscape:window-height="1019"
     id="namedview15"
     showgrid="false"
     inkscape:zoom="0.87831352"
     inkscape:cx="237.56171"
     inkscape:cy="231.44021"
     inkscape:window-x="0"
     inkscape:window-y="13"
     inkscape:window-maximized="1"
     inkscape:current-layer="svg2"
     showguides="false" />
  <metadata
     id="metadata28">
    <rdf:RDF>
      <cc:Work
         rdf:about="">
        <dc:format>image/svg+xml</dc:format>
        <dc:type
           rdf:resource="http://purl.org/dc/dcmitype/StillImage" />
        <dc:title></dc:title>
      </cc:Work>
    </rdf:RDF>
  </metadata>
  <path
     style="fill:#BF9E73;fill-rule:evenodd;fill-opacity:1"
     inkscape:connector-curvature="0"
     d="m 471.95,253.05 c 0,120.9 -98.01,218.9 -218.9,218.9 -120.9,0 -218.9,-98.01 -218.9,-218.9 0,-120.9 98.01,-218.9 218.9,-218.9 120.9,0 218.9,98.01 218.9,218.9"
     id="path6" />
  <path
     inkscape:connector-curvature="0"
     style="fill-opacity:0.23500001"
     id="path18"
     d="m 418.31171,140.08374 c -15.863,15.776 -16.928,20.1 -35.563,38.625 -10.579,10.462 -21.685,19.14 -35.563,23.594 -0.163,-0.173 -0.334,-0.331 -0.5,-0.5 -0.163,-0.173 -0.334,-0.331 -0.5,-0.5 -0.143,-0.151 -0.292,-0.29 -0.438,-0.438 -0.183,-0.195 -0.376,-0.373 -0.563,-0.563 -0.163,-0.173 -0.334,-0.331 -0.5,-0.5 -0.163,-0.173 -0.334,-0.331 -0.5,-0.5 -0.163,-0.173 -0.334,-0.331 -0.5,-0.5 -0.163,-0.173 -0.334,-0.331 -0.5,-0.5 -0.163,-0.173 -0.334,-0.331 -0.5,-0.5 -0.163,-0.173 -0.334,-0.331 -0.5,-0.5 -0.163,-0.173 -0.334,-0.331 -0.5,-0.5 -2.628,-2.786 -5.652,-4.933 -8.781,-7.375 l -7.469,-5.438 c -0.052,-0.028 -6.719,-3.656 -6.719,-3.656 -0.076,-0.036 -9.844,-4.656 -9.844,-4.656 -0.064,-0.021 -8.219,-2.688 -8.219,-2.688 -0.077,-0.018 -9.969,-2.313 -9.969,-2.313 -0.13,-0.01 -16.781,-1.281 -16.781,-1.281 l -9.875,0.031 c -0.064,0.009 -8.25,1.125 -8.25,1.125 -7.551,0.696 -9.277,1.341 -13.656,2.5 -1.256,0.388 -8.06,3.479 -8.813,3.594 -0.758,0.118 -15.813,6.5 -15.813,6.5 -0.127,-0.093 -16.406,-11.938 -16.406,-11.938 -0.088,-0.062 -11.281,-7.969 -11.281,-7.969 -0.088,-0.062 -11.313,-7.938 -11.313,-7.938 l 1.938,8 1.531,9 2.156,13.406 1.125,11.313 0.313,8.781 c 0,0 -0.745,12.727 -0.75,13.313 -0.005,0.585 -1.719,9 -1.719,9 l -3.438,8.938 -4.438,6.688 -8.06,6.844 -1.375,0.469 c -0.006,-0.005 -0.026,0.005 -0.031,0 l -0.063,-0.063 c -0.016,-0.015 -0.015,-0.048 -0.031,-0.063 -0.104,-0.108 -0.208,-0.206 -0.313,-0.313 -0.064,-0.061 -0.123,-0.127 -0.188,-0.188 -0.161,-0.167 -0.306,-0.336 -0.469,-0.5 -0.164,-0.171 -0.334,-0.333 -0.5,-0.5 -0.164,-0.171 -0.334,-0.333 -0.5,-0.5 -0.164,-0.171 -0.334,-0.333 -0.5,-0.5 -0.108,-0.112 -0.235,-0.202 -0.344,-0.313 -0.054,-0.051 -0.103,-0.106 -0.156,-0.156 -0.112,-0.116 -0.231,-0.23 -0.344,-0.344 -0.054,-0.051 -0.103,-0.106 -0.156,-0.156 -0.112,-0.116 -0.231,-0.23 -0.344,-0.344 -0.054,-0.051 -0.103,-0.106 -0.156,-0.156 -0.112,-0.116 -0.231,-0.23 -0.344,-0.344 -0.054,-0.051 -0.103,-0.106 -0.156,-0.156 -0.112,-0.116 -0.231,-0.23 -0.344,-0.344 -0.054,-0.051 -0.103,-0.106 -0.156,-0.156 -0.112,-0.116 -0.231,-0.23 -0.344,-0.344 -0.054,-0.051 -0.103,-0.106 -0.156,-0.156 -0.112,-0.116 -0.231,-0.23 -0.344,-0.344 -0.054,-0.051 -0.103,-0.106 -0.156,-0.156 -0.112,-0.116 -0.231,-0.23 -0.344,-0.344 -0.054,-0.051 -0.102,-0.105 -0.156,-0.156 -0.112,-0.116 -0.231,-0.229 -0.344,-0.344 -0.054,-0.051 -0.102,-0.105 -0.156,-0.156 -0.113,-0.117 -0.23,-0.228 -0.344,-0.344 -0.022,-0.021 -0.041,-0.042 -0.063,-0.063 -0.031,-0.031 -0.063,-0.062 -0.094,-0.094 -0.113,-0.117 -0.23,-0.228 -0.344,-0.344 -0.022,-0.021 -0.041,-0.042 -0.063,-0.063 -0.031,-0.031 -0.063,-0.062 -0.094,-0.094 -0.164,-0.171 -0.334,-0.333 -0.5,-0.5 -0.166,-0.173 -0.332,-0.331 -0.5,-0.5 -0.166,-0.173 -0.332,-0.331 -0.5,-0.5 -0.104,-0.108 -0.208,-0.206 -0.313,-0.313 -0.064,-0.061 -0.123,-0.127 -0.188,-0.188 -0.104,-0.108 -0.208,-0.206 -0.313,-0.313 -0.064,-0.061 -0.123,-0.127 -0.188,-0.188 -0.104,-0.108 -0.208,-0.206 -0.313,-0.313 -0.064,-0.061 -0.123,-0.127 -0.188,-0.188 -0.104,-0.108 -0.208,-0.206 -0.313,-0.313 -0.064,-0.061 -0.123,-0.127 -0.188,-0.188 -0.104,-0.108 -0.208,-0.206 -0.313,-0.313 -0.064,-0.061 -0.123,-0.127 -0.188,-0.188 -0.104,-0.108 -0.208,-0.206 -0.313,-0.313 -0.064,-0.061 -0.123,-0.127 -0.188,-0.188 -0.104,-0.108 -0.208,-0.206 -0.313,-0.313 -0.064,-0.061 -0.123,-0.127 -0.188,-0.188 -0.161,-0.167 -0.306,-0.336 -0.469,-0.5 -0.134,-0.139 -0.271,-0.27 -0.406,-0.406 -0.194,-0.203 -0.397,-0.396 -0.594,-0.594 -0.164,-0.171 -0.334,-0.333 -0.5,-0.5 -0.108,-0.112 -0.235,-0.202 -0.344,-0.313 -0.054,-0.051 -0.103,-0.106 -0.156,-0.156 -0.112,-0.116 -0.231,-0.229 -0.344,-0.344 -0.054,-0.051 -0.103,-0.106 -0.156,-0.156 -0.112,-0.116 -0.231,-0.229 -0.344,-0.344 -0.054,-0.051 -0.103,-0.106 -0.156,-0.156 -0.112,-0.116 -0.231,-0.229 -0.344,-0.344 -0.054,-0.051 -0.103,-0.106 -0.156,-0.156 -0.112,-0.116 -0.231,-0.229 -0.344,-0.344 -0.054,-0.051 -0.103,-0.106 -0.156,-0.156 -0.112,-0.116 -0.231,-0.229 -0.344,-0.344 -0.054,-0.051 -0.103,-0.106 -0.156,-0.156 -0.112,-0.116 -0.231,-0.229 -0.344,-0.344 -0.054,-0.051 -0.103,-0.106 -0.156,-0.156 -0.112,-0.116 -0.231,-0.229 -0.344,-0.344 -0.054,-0.051 -0.102,-0.105 -0.156,-0.156 -0.112,-0.116 -0.231,-0.229 -0.344,-0.344 -0.054,-0.051 -0.102,-0.105 -0.156,-0.156 -0.113,-0.117 -0.23,-0.228 -0.344,-0.344 -0.022,-0.021 -0.041,-0.042 -0.063,-0.063 -0.031,-0.031 -0.063,-0.062 -0.094,-0.094 -0.113,-0.117 -0.23,-0.228 -0.344,-0.344 -0.022,-0.021 -0.041,-0.042 -0.063,-0.063 -0.031,-0.031 -0.063,-0.062 -0.094,-0.094 -0.164,-0.171 -0.334,-0.333 -0.5,-0.5 -0.166,-0.173 -0.332,-0.331 -0.5,-0.5 -0.166,-0.173 -0.332,-0.331 -0.5,-0.5 -0.104,-0.108 -0.208,-0.206 -0.313,-0.313 -0.064,-0.061 -0.123,-0.127 -0.188,-0.188 -0.104,-0.108 -0.208,-0.206 -0.313,-0.313 -0.064,-0.061 -0.123,-0.127 -0.188,-0.188 -0.104,-0.108 -0.208,-0.206 -0.313,-0.313 -0.064,-0.061 -0.123,-0.127 -0.188,-0.188 -0.104,-0.108 -0.208,-0.206 -0.313,-0.313 -0.064,-0.061 -0.123,-0.127 -0.188,-0.188 -0.104,-0.108 -0.208,-0.206 -0.313,-0.313 -0.064,-0.061 -0.123,-0.127 -0.188,-0.188 -0.104,-0.108 -0.208,-0.206 -0.313,-0.313 -0.064,-0.061 -0.123,-0.127 -0.188,-0.188 -0.104,-0.108 -0.208,-0.206 -0.313,-0.313 -0.064,-0.061 -0.123,-0.127 -0.188,-0.188 -0.161,-0.167 -0.306,-0.336 -0.469,-0.5 -0.164,-0.171 -0.334,-0.333 -0.5,-0.5 -0.164,-0.171 -0.334,-0.333 -0.5,-0.5 -0.164,-0.171 -0.334,-0.333 -0.5,-0.5 -0.108,-0.112 -0.235,-0.202 -0.344,-0.313 -0.054,-0.051 -0.103,-0.106 -0.156,-0.156 -0.112,-0.116 -0.231,-0.229 -0.344,-0.344 -0.054,-0.051 -0.103,-0.106 -0.156,-0.156 -0.112,-0.116 -0.231,-0.229 -0.344,-0.344 -0.054,-0.051 -0.103,-0.106 -0.156,-0.156 -0.112,-0.116 -0.231,-0.229 -0.344,-0.344 -0.054,-0.051 -0.103,-0.106 -0.156,-0.156 -0.112,-0.116 -0.231,-0.229 -0.344,-0.344 -0.054,-0.051 -0.103,-0.106 -0.156,-0.156 -0.112,-0.116 -0.231,-0.229 -0.344,-0.344 -0.054,-0.051 -0.103,-0.106 -0.156,-0.156 -10.913,-11.326 -26.437,-14.861 -38.905996,-7.531 -15.96,9.383 -20.87,33.01 -10.969,52.781 2.327,4.647 5.285,8.662 8.625,11.969 0.056,0.058 0.1,0.13 0.156,0.188 0.09,0.088 0.191,0.163 0.281,0.25 0.077,0.079 0.142,0.172 0.219,0.25 0.069,0.066 0.149,0.122 0.219,0.188 0.097,0.1 0.184,0.214 0.281,0.313 0.069,0.066 0.149,0.123 0.219,0.188 0.02,0.022 0.042,0.041 0.063,0.063 0.077,0.079 0.142,0.172 0.219,0.25 0.011,0.01 0.021,0.021 0.031,0.031 0.272,0.284 0.534,0.569 0.813,0.844 0.041,0.042 0.083,0.083 0.125,0.125 0.105,0.103 0.206,0.211 0.313,0.313 0.062,0.064 0.125,0.124 0.188,0.188 0.069,0.066 0.149,0.122 0.219,0.188 0.098,0.101 0.182,0.212 0.281,0.313 0.069,0.066 0.149,0.123 0.219,0.188 0.097,0.1 0.184,0.214 0.281,0.313 0.069,0.066 0.149,0.123 0.219,0.188 0.097,0.1 0.184,0.214 0.281,0.313 0.069,0.066 0.149,0.123 0.219,0.188 0.097,0.1 0.184,0.214 0.281,0.313 0.069,0.066 0.149,0.123 0.219,0.188 0.097,0.1 0.184,0.214 0.281,0.313 0.069,0.066 0.149,0.123 0.219,0.188 0.165,0.17 0.332996,0.333 0.499996,0.5 0.022,0.02 0.041,0.042 0.063,0.063 0.021,0.021 0.041,0.042 0.063,0.063 0.052,0.053 0.104,0.104 0.156,0.156 0.07,0.067 0.148,0.122 0.219,0.188 0.098,0.101 0.182,0.212 0.281,0.313 0.07,0.066 0.148,0.122 0.219,0.188 0.097,0.1 0.184,0.214 0.281,0.313 0.069,0.066 0.149,0.123 0.219,0.188 0.097,0.1 0.184,0.214 0.281,0.313 0.069,0.066 0.149,0.123 0.219,0.188 0.097,0.1 0.184,0.214 0.281,0.313 0.069,0.066 0.149,0.123 0.219,0.188 0.097,0.1 0.184,0.214 0.281,0.313 0.069,0.066 0.149,0.123 0.219,0.188 0.097,0.1 0.184,0.214 0.281,0.313 0.069,0.066 0.149,0.123 0.219,0.188 0.097,0.1 0.184,0.214 0.281,0.313 0.069,0.066 0.149,0.123 0.219,0.188 0.097,0.1 0.184,0.214 0.281,0.313 0.069,0.066 0.149,0.123 0.219,0.188 0.097,0.1 0.184,0.214 0.281,0.313 0.069,0.066 0.149,0.123 0.219,0.188 0.097,0.1 0.184,0.214 0.281,0.313 0.069,0.066 0.149,0.123 0.219,0.188 0.097,0.1 0.184,0.214 0.281,0.313 0.069,0.066 0.149,0.123 0.219,0.188 0.097,0.1 0.184,0.214 0.281,0.313 0.069,0.066 0.149,0.123 0.219,0.188 0.097,0.1 0.184,0.214 0.281,0.313 0.069,0.066 0.149,0.123 0.219,0.188 0.097,0.1 0.184,0.214 0.281,0.313 0.069,0.066 0.149,0.123 0.219,0.188 0.02,0.022 0.042,0.041 0.063,0.063 0.077,0.079 0.142,0.172 0.219,0.25 0.011,0.01 0.021,0.021 0.031,0.031 0.272,0.284 0.534,0.569 0.813,0.844 0.041,0.042 0.083,0.083 0.125,0.125 0.105,0.103 0.206,0.211 0.313,0.313 0.062,0.064 0.125,0.124 0.188,0.188 0.069,0.066 0.149,0.122 0.219,0.188 0.098,0.101 0.182,0.212 0.281,0.313 0.069,0.066 0.149,0.123 0.219,0.188 0.097,0.1 0.184,0.214 0.281,0.313 0.069,0.066 0.149,0.123 0.219,0.188 0.097,0.1 0.184,0.214 0.281,0.313 0.069,0.066 0.149,0.123 0.219,0.188 0.097,0.1 0.184,0.214 0.281,0.313 0.069,0.066 0.149,0.123 0.219,0.188 0.097,0.1 0.184,0.214 0.281,0.313 0.069,0.066 0.149,0.123 0.219,0.188 0.118,0.122 0.225,0.255 0.344,0.375 0.011,0.01 0.021,0.021 0.031,0.031 0.059,0.056 0.128,0.101 0.188,0.156 0.021,0.021 0.041,0.042 0.063,0.063 0.052,0.053 0.104,0.104 0.156,0.156 0.07,0.067 0.148,0.122 0.219,0.188 0.098,0.101 0.182,0.212 0.281,0.313 0.07,0.066 0.148,0.122 0.219,0.188 0.097,0.1 0.184,0.214 0.281,0.313 0.069,0.066 0.149,0.123 0.219,0.188 0.097,0.1 0.184,0.214 0.281,0.313 0.069,0.066 0.149,0.123 0.219,0.188 0.097,0.1 0.184,0.214 0.281,0.313 0.069,0.066 0.149,0.123 0.219,0.188 0.097,0.1 0.184,0.214 0.281,0.313 0.069,0.066 0.149,0.123 0.219,0.188 0.097,0.1 0.184,0.214 0.281,0.313 0.069,0.066 0.149,0.123 0.219,0.188 0.097,0.1 0.184,0.214 0.281,0.313 0.069,0.066 0.149,0.123 0.219,0.188 0.097,0.1 0.184,0.214 0.281,0.313 0.069,0.066 0.149,0.123 0.219,0.188 0.097,0.1 0.184,0.214 0.281,0.313 0.069,0.066 0.149,0.123 0.219,0.188 0.097,0.1 0.184,0.214 0.281,0.313 0.069,0.066 0.149,0.123 0.219,0.188 0.097,0.1 0.184,0.214 0.281,0.313 0.069,0.066 0.149,0.123 0.219,0.188 0.097,0.1 0.184,0.214 0.281,0.313 0.069,0.066 0.149,0.123 0.219,0.188 0.097,0.1 0.184,0.214 0.281,0.313 0.069,0.066 0.149,0.123 0.219,0.188 0.097,0.1 0.184,0.214 0.281,0.313 0.069,0.066 0.149,0.123 0.219,0.188 0.02,0.022 0.042,0.041 0.063,0.063 0.077,0.079 0.142,0.172 0.219,0.25 0.011,0.01 0.021,0.021 0.031,0.031 0.272,0.284 0.534,0.569 0.813,0.844 0.041,0.042 0.083,0.083 0.125,0.125 0.105,0.103 0.206,0.211 0.313,0.313 0.062,0.064 0.125,0.124 0.188,0.188 0.069,0.066 0.149,0.122 0.219,0.188 0.098,0.101 0.182,0.212 0.281,0.313 0.069,0.066 0.149,0.123 0.219,0.188 0.097,0.1 0.184,0.214 0.281,0.313 0.069,0.066 0.149,0.123 0.219,0.188 0.097,0.1 0.184,0.214 0.281,0.313 0.069,0.066 0.149,0.123 0.219,0.188 0.097,0.1 0.184,0.214 0.281,0.313 0.069,0.066 0.149,0.123 0.219,0.188 0.097,0.1 0.184,0.214 0.281,0.313 0.069,0.066 0.149,0.123 0.219,0.188 0.165,0.17 0.333,0.333 0.5,0.5 0.022,0.02 0.041,0.042 0.063,0.063 0.021,0.021 0.041,0.042 0.063,0.063 0.052,0.053 0.104,0.104 0.156,0.156 0.07,0.067 0.148,0.122 0.219,0.188 0.098,0.101 0.182,0.212 0.281,0.313 0.07,0.066 0.148,0.122 0.219,0.188 0.097,0.1 0.184,0.214 0.281,0.313 0.069,0.066 0.149,0.123 0.219,0.188 0.097,0.1 0.184,0.214 0.281,0.313 0.069,0.066 0.149,0.123 0.219,0.188 0.097,0.1 0.184,0.214 0.281,0.313 0.069,0.066 0.149,0.123 0.219,0.188 0.097,0.1 0.184,0.214 0.281,0.313 0.069,0.066 0.149,0.123 0.219,0.188 0.097,0.1 0.184,0.214 0.281,0.313 0.069,0.066 0.149,0.123 0.219,0.188 0.097,0.1 0.184,0.214 0.281,0.313 0.069,0.066 0.149,0.123 0.219,0.188 0.097,0.1 0.184,0.214 0.281,0.313 0.069,0.066 0.149,0.123 0.219,0.188 0.097,0.1 0.184,0.214 0.281,0.313 0.069,0.066 0.149,0.123 0.219,0.188 0.097,0.1 0.184,0.214 0.281,0.313 0.069,0.066 0.149,0.123 0.219,0.188 0.097,0.1 0.184,0.214 0.281,0.313 0.069,0.066 0.149,0.123 0.219,0.188 0.097,0.1 0.184,0.214 0.281,0.313 0.069,0.066 0.149,0.123 0.219,0.188 0.097,0.1 0.184,0.214 0.281,0.313 0.069,0.066 0.149,0.123 0.219,0.188 0.097,0.1 0.184,0.214 0.281,0.313 0.069,0.066 0.149,0.123 0.219,0.188 0.02,0.022 0.042,0.041 0.063,0.063 0.077,0.079 0.142,0.172 0.219,0.25 0.011,0.01 0.021,0.021 0.031,0.031 0.225,0.235 0.458,0.459 0.688,0.688 0.212,0.218 0.41,0.444 0.625,0.656 0.041,0.042 0.083,0.083 0.125,0.125 0.105,0.103 0.206,0.211 0.313,0.313 0.062,0.064 0.125,0.124 0.188,0.188 0.069,0.066 0.149,0.122 0.219,0.188 0.097,0.1 0.184,0.214 0.281,0.313 0.069,0.066 0.149,0.123 0.219,0.188 0.097,0.1 0.184,0.214 0.281,0.313 0.069,0.066 0.149,0.123 0.219,0.188 0.097,0.1 0.184,0.214 0.281,0.313 0.069,0.066 0.149,0.123 0.219,0.188 0.097,0.1 0.184,0.214 0.281,0.313 0.069,0.066 0.149,0.123 0.219,0.188 0.118,0.122 0.225,0.255 0.344,0.375 0.011,0.01 0.021,0.021 0.031,0.031 0.059,0.056 0.128,0.101 0.188,0.156 0.021,0.021 0.041,0.042 0.063,0.063 0.052,0.053 0.104,0.104 0.156,0.156 0.07,0.067 0.148,0.122 0.219,0.188 0.041,0.044 0.084,0.082 0.125,0.125 0.057,0.058 0.099,0.129 0.156,0.188 0.07,0.066 0.148,0.122 0.219,0.188 0.098,0.101 0.182,0.212 0.281,0.313 0.069,0.066 0.149,0.123 0.219,0.188 0.097,0.1 0.184,0.214 0.281,0.313 0.069,0.066 0.149,0.123 0.219,0.188 0.097,0.1 0.184,0.214 0.281,0.313 0.069,0.066 0.149,0.123 0.219,0.188 0.097,0.1 0.184,0.214 0.281,0.313 0.069,0.066 0.149,0.123 0.219,0.188 0.097,0.1 0.184,0.214 0.281,0.313 0.069,0.066 0.149,0.123 0.219,0.188 0.097,0.1 0.184,0.214 0.281,0.313 0.069,0.066 0.149,0.123 0.219,0.188 0.097,0.1 0.184,0.214 0.281,0.313 0.069,0.066 0.149,0.123 0.219,0.188 0.097,0.1 0.184,0.214 0.281,0.313 0.069,0.066 0.149,0.123 0.219,0.188 0.097,0.1 0.184,0.214 0.281,0.313 0.069,0.066 0.149,0.123 0.219,0.188 0.097,0.1 0.184,0.214 0.281,0.313 0.069,0.066 0.149,0.123 0.219,0.188 0.097,0.1 0.184,0.214 0.281,0.313 0.069,0.066 0.149,0.123 0.219,0.188 0.097,0.1 0.184,0.214 0.281,0.313 0.069,0.066 0.149,0.123 0.219,0.188 0.097,0.1 0.184,0.214 0.281,0.313 0.069,0.066 0.149,0.123 0.219,0.188 0.02,0.022 0.042,0.041 0.063,0.063 0.077,0.079 0.142,0.172 0.219,0.25 0.011,0.01 0.021,0.021 0.031,0.031 0.225,0.235 0.458,0.459 0.688,0.688 0.212,0.218 0.41,0.444 0.625,0.656 0.041,0.042 0.083,0.083 0.125,0.125 0.105,0.103 0.206,0.211 0.313,0.313 0.062,0.064 0.125,0.124 0.188,0.188 0.069,0.066 0.149,0.122 0.219,0.188 0.097,0.1 0.184,0.214 0.281,0.313 0.069,0.066 0.149,0.123 0.219,0.188 0.097,0.1 0.184,0.214 0.281,0.313 0.069,0.066 0.149,0.123 0.219,0.188 0.097,0.1 0.184,0.214 0.281,0.313 0.069,0.066 0.149,0.123 0.219,0.188 0.097,0.1 0.184,0.214 0.281,0.313 0.069,0.066 0.149,0.123 0.219,0.188 0.165,0.17 0.333,0.333 0.5,0.5 0.022,0.02 0.041,0.042 0.063,0.063 0.021,0.021 0.041,0.042 0.063,0.063 0.052,0.053 0.104,0.104 0.156,0.156 0.07,0.067 0.148,0.122 0.219,0.188 0.041,0.044 0.084,0.082 0.125,0.125 0.057,0.058 0.099,0.129 0.156,0.188 0.07,0.066 0.148,0.122 0.219,0.188 0.098,0.101 0.182,0.212 0.281,0.313 0.069,0.066 0.149,0.123 0.219,0.188 0.097,0.1 0.184,0.214 0.281,0.313 0.069,0.066 0.149,0.123 0.219,0.188 0.097,0.1 0.184,0.214 0.281,0.313 0.069,0.066 0.149,0.123 0.219,0.188 0.097,0.1 0.184,0.214 0.281,0.313 0.069,0.066 0.149,0.123 0.219,0.188 0.097,0.1 0.184,0.214 0.281,0.313 0.069,0.066 0.149,0.123 0.219,0.188 0.097,0.1 0.184,0.214 0.281,0.313 0.069,0.066 0.149,0.123 0.219,0.188 0.097,0.1 0.184,0.214 0.281,0.313 0.069,0.066 0.149,0.123 0.219,0.188 0.097,0.1 0.184,0.214 0.281,0.313 0.069,0.066 0.149,0.123 0.219,0.188 0.097,0.1 0.184,0.214 0.281,0.313 0.069,0.066 0.149,0.123 0.219,0.188 0.097,0.1 0.184,0.214 0.281,0.313 0.069,0.066 0.149,0.123 0.219,0.188 0.097,0.1 0.184,0.214 0.281,0.313 0.069,0.066 0.149,0.123 0.219,0.188 0.097,0.1 0.184,0.214 0.281,0.313 0.069,0.066 0.149,0.123 0.219,0.188 0.097,0.1 0.184,0.214 0.281,0.313 0.069,0.066 0.149,0.123 0.219,0.188 0.02,0.022 0.042,0.041 0.063,0.063 0.077,0.079 0.142,0.172 0.219,0.25 0.011,0.01 0.021,0.021 0.031,0.031 0.225,0.235 0.458,0.459 0.688,0.688 0.212,0.218 0.41,0.444 0.625,0.656 0.041,0.042 0.083,0.083 0.125,0.125 0.105,0.103 0.206,0.211 0.313,0.313 0.062,0.064 0.125,0.124 0.188,0.188 0.069,0.066 0.149,0.122 0.219,0.188 0.097,0.1 0.184,0.214 0.281,0.313 0.069,0.066 0.149,0.123 0.219,0.188 0.097,0.1 0.184,0.214 0.281,0.313 0.069,0.066 0.149,0.123 0.219,0.188 0.097,0.1 0.184,0.214 0.281,0.313 0.069,0.066 0.149,0.123 0.219,0.188 0.097,0.1 0.184,0.214 0.281,0.313 0.069,0.066 0.149,0.123 0.219,0.188 0.118,0.122 0.225,0.255 0.344,0.375 0.011,0.01 0.021,0.021 0.031,0.031 0.059,0.056 0.128,0.101 0.188,0.156 0.021,0.021 0.041,0.042 0.063,0.063 0.052,0.053 0.104,0.104 0.156,0.156 0.07,0.067 0.148,0.122 0.219,0.188 0.041,0.044 0.084,0.082 0.125,0.125 0.057,0.058 0.099,0.129 0.156,0.188 0.07,0.066 0.148,0.122 0.219,0.188 0.098,0.101 0.182,0.212 0.281,0.313 0.069,0.066 0.149,0.123 0.219,0.188 0.097,0.1 0.184,0.214 0.281,0.313 0.069,0.066 0.149,0.123 0.219,0.188 0.097,0.1 0.184,0.214 0.281,0.313 0.069,0.066 0.149,0.123 0.219,0.188 0.097,0.1 0.184,0.214 0.281,0.313 0.069,0.066 0.149,0.123 0.219,0.188 0.097,0.1 0.184,0.214 0.281,0.313 0.069,0.066 0.149,0.123 0.219,0.188 0.097,0.1 0.184,0.214 0.281,0.313 0.069,0.066 0.149,0.123 0.219,0.188 0.097,0.1 0.184,0.214 0.281,0.313 0.069,0.066 0.149,0.123 0.219,0.188 0.097,0.1 0.184,0.214 0.281,0.313 0.069,0.066 0.149,0.123 0.219,0.188 0.097,0.1 0.184,0.214 0.281,0.313 0.069,0.066 0.149,0.123 0.219,0.188 0.097,0.1 0.184,0.214 0.281,0.313 0.069,0.066 0.149,0.123 0.219,0.188 0.097,0.1 0.184,0.214 0.281,0.313 0.069,0.066 0.149,0.123 0.219,0.188 0.097,0.1 0.184,0.214 0.281,0.313 0.069,0.066 0.149,0.123 0.219,0.188 0.097,0.1 0.184,0.214 0.281,0.313 0.069,0.066 0.149,0.123 0.219,0.188 0.02,0.022 0.042,0.041 0.063,0.063 0.077,0.079 0.142,0.172 0.219,0.25 0.011,0.01 0.021,0.021 0.031,0.031 0.225,0.235 0.458,0.459 0.688,0.688 0.212,0.218 0.41,0.444 0.625,0.656 0.041,0.042 0.083,0.083 0.125,0.125 0.105,0.103 0.206,0.211 0.313,0.313 0.062,0.064 0.125,0.124 0.188,0.188 0.069,0.066 0.149,0.122 0.219,0.188 0.097,0.1 0.184,0.214 0.281,0.313 0.069,0.066 0.149,0.123 0.219,0.188 0.097,0.1 0.184,0.214 0.281,0.313 0.069,0.066 0.149,0.123 0.219,0.188 0.097,0.1 0.184,0.214 0.281,0.313 0.069,0.066 0.149,0.123 0.219,0.188 0.097,0.1 0.184,0.214 0.281,0.313 0.069,0.066 0.149,0.123 0.219,0.188 0.165,0.17 0.333,0.333 0.5,0.5 0.022,0.02 0.041,0.042 0.063,0.063 0.021,0.021 0.041,0.042 0.063,0.063 0.052,0.053 0.104,0.104 0.156,0.156 0.07,0.067 0.148,0.122 0.219,0.188 0.041,0.044 0.084,0.082 0.125,0.125 0.057,0.058 0.099,0.129 0.156,0.188 0.07,0.066 0.148,0.122 0.219,0.188 0.098,0.101 0.182,0.212 0.281,0.313 0.069,0.066 0.149,0.123 0.219,0.188 0.097,0.1 0.184,0.214 0.281,0.313 0.069,0.066 0.149,0.123 0.219,0.188 0.097,0.1 0.184,0.214 0.281,0.313 0.069,0.066 0.149,0.123 0.219,0.188 0.097,0.1 0.184,0.214 0.281,0.313 0.069,0.066 0.149,0.123 0.219,0.188 0.097,0.1 0.184,0.214 0.281,0.313 0.069,0.066 0.149,0.123 0.219,0.188 0.097,0.1 0.184,0.214 0.281,0.313 0.069,0.066 0.149,0.123 0.219,0.188 0.097,0.1 0.184,0.214 0.281,0.313 0.069,0.066 0.149,0.123 0.219,0.188 0.097,0.1 0.184,0.214 0.281,0.313 0.069,0.066 0.149,0.123 0.219,0.188 0.097,0.1 0.184,0.214 0.281,0.313 0.069,0.066 0.149,0.123 0.219,0.188 0.097,0.1 0.184,0.214 0.281,0.313 0.069,0.066 0.149,0.123 0.219,0.188 0.097,0.1 0.184,0.214 0.281,0.313 0.069,0.066 0.149,0.123 0.219,0.188 0.097,0.1 0.184,0.214 0.281,0.313 0.069,0.066 0.149,0.123 0.219,0.188 0.097,0.1 0.184,0.214 0.281,0.313 0.069,0.066 0.149,0.123 0.219,0.188 0.02,0.022 0.042,0.041 0.063,0.063 0.077,0.079 0.142,0.172 0.219,0.25 0.011,0.01 0.021,0.021 0.031,0.031 0.225,0.235 0.458,0.459 0.688,0.688 0.212,0.218 0.41,0.444 0.625,0.656 0.041,0.042 0.083,0.083 0.125,0.125 0.105,0.103 0.206,0.211 0.313,0.313 0.062,0.064 0.125,0.124 0.188,0.188 0.069,0.066 0.149,0.122 0.219,0.188 0.097,0.1 0.184,0.214 0.281,0.313 0.069,0.066 0.149,0.123 0.219,0.188 0.097,0.1 0.184,0.214 0.281,0.313 0.069,0.066 0.149,0.123 0.219,0.188 0.097,0.1 0.184,0.214 0.281,0.313 0.069,0.066 0.149,0.123 0.219,0.188 0.097,0.1 0.184,0.214 0.281,0.313 0.069,0.066 0.149,0.123 0.219,0.188 0.118,0.122 0.225,0.255 0.344,0.375 0.011,0.01 0.021,0.021 0.031,0.031 0.059,0.056 0.128,0.101 0.188,0.156 0.021,0.021 0.041,0.042 0.063,0.063 0.052,0.053 0.104,0.104 0.156,0.156 0.07,0.067 0.148,0.122 0.219,0.188 0.041,0.044 0.084,0.082 0.125,0.125 0.057,0.058 0.099,0.129 0.156,0.188 0.07,0.066 0.148,0.122 0.219,0.188 0.098,0.101 0.182,0.212 0.281,0.313 0.069,0.066 0.149,0.123 0.219,0.188 0.097,0.1 0.184,0.214 0.281,0.313 0.069,0.066 0.149,0.123 0.219,0.188 0.097,0.1 0.184,0.214 0.281,0.313 0.069,0.066 0.149,0.123 0.219,0.188 0.097,0.1 0.184,0.214 0.281,0.313 0.069,0.066 0.149,0.123 0.219,0.188 0.097,0.1 0.184,0.214 0.281,0.313 0.069,0.066 0.149,0.123 0.219,0.188 0.097,0.1 0.184,0.214 0.281,0.313 0.069,0.066 0.149,0.123 0.219,0.188 0.097,0.1 0.184,0.214 0.281,0.313 0.069,0.066 0.149,0.123 0.219,0.188 0.097,0.1 0.184,0.214 0.281,0.313 0.069,0.066 0.149,0.123 0.219,0.188 0.097,0.1 0.184,0.214 0.281,0.313 0.069,0.066 0.149,0.123 0.219,0.188 0.097,0.1 0.184,0.214 0.281,0.313 0.069,0.066 0.149,0.123 0.219,0.188 0.097,0.1 0.184,0.214 0.281,0.313 0.069,0.066 0.149,0.123 0.219,0.188 0.097,0.1 0.184,0.214 0.281,0.313 0.069,0.066 0.149,0.123 0.219,0.188 0.097,0.1 0.184,0.214 0.281,0.313 0.069,0.066 0.149,0.123 0.219,0.188 0.097,0.1 0.184,0.214 0.281,0.313 0.069,0.066 0.149,0.123 0.219,0.188 0.02,0.022 0.042,0.041 0.063,0.063 0.077,0.079 0.142,0.172 0.219,0.25 0.011,0.01 0.021,0.021 0.031,0.031 0.272,0.284 0.534,0.569 0.813,0.844 0.041,0.042 0.083,0.083 0.125,0.125 0.105,0.103 0.206,0.211 0.313,0.313 0.062,0.064 0.125,0.124 0.188,0.188 0.069,0.066 0.149,0.122 0.219,0.188 0.097,0.1 0.184,0.214 0.281,0.313 0.069,0.066 0.149,0.123 0.219,0.188 0.097,0.1 0.184,0.214 0.281,0.313 0.069,0.066 0.149,0.123 0.219,0.188 0.097,0.1 0.184,0.214 0.281,0.313 0.069,0.066 0.149,0.123 0.219,0.188 0.097,0.1 0.184,0.214 0.281,0.313 0.069,0.066 0.149,0.123 0.219,0.188 0.165,0.17 0.333,0.333 0.5,0.5 0.022,0.02 0.041,0.042 0.063,0.063 0.021,0.021 0.041,0.042 0.063,0.063 0.052,0.053 0.104,0.104 0.156,0.156 0.07,0.067 0.148,0.122 0.219,0.188 0.041,0.044 0.084,0.082 0.125,0.125 0.057,0.058 0.099,0.129 0.156,0.188 0.07,0.066 0.148,0.122 0.219,0.188 0.098,0.101 0.182,0.212 0.281,0.313 0.069,0.066 0.149,0.123 0.219,0.188 0.097,0.1 0.184,0.214 0.281,0.313 0.069,0.066 0.149,0.123 0.219,0.188 0.097,0.1 0.184,0.214 0.281,0.313 0.069,0.066 0.149,0.123 0.219,0.188 0.097,0.1 0.184,0.214 0.281,0.313 0.069,0.066 0.149,0.123 0.219,0.188 0.097,0.1 0.184,0.214 0.281,0.313 0.069,0.066 0.149,0.123 0.219,0.188 0.097,0.1 0.184,0.214 0.281,0.313 0.069,0.066 0.149,0.123 0.219,0.188 0.097,0.1 0.184,0.214 0.281,0.313 0.069,0.066 0.149,0.123 0.219,0.188 0.097,0.1 0.184,0.214 0.281,0.313 0.069,0.066 0.149,0.123 0.219,0.188 0.097,0.1 0.184,0.214 0.281,0.313 0.069,0.066 0.149,0.123 0.219,0.188 0.097,0.1 0.184,0.214 0.281,0.313 0.069,0.066 0.149,0.123 0.219,0.188 0.097,0.1 0.184,0.214 0.281,0.313 0.069,0.066 0.149,0.123 0.219,0.188 0.097,0.1 0.184,0.214 0.281,0.313 0.069,0.066 0.149,0.123 0.219,0.188 0.097,0.1 0.184,0.214 0.281,0.313 0.069,0.066 0.149,0.123 0.219,0.188 0.097,0.1 0.184,0.214 0.281,0.313 0.069,0.066 0.149,0.123 0.219,0.188 0.02,0.022 0.042,0.041 0.063,0.063 0.077,0.079 0.142,0.172 0.219,0.25 0.011,0.01 0.021,0.021 0.031,0.031 0.272,0.284 0.534,0.569 0.813,0.844 0.041,0.042 0.083,0.083 0.125,0.125 0.105,0.103 0.206,0.211 0.313,0.313 0.062,0.064 0.125,0.124 0.188,0.188 0.069,0.066 0.149,0.122 0.219,0.188 0.097,0.1 0.184,0.214 0.281,0.313 0.069,0.066 0.149,0.123 0.219,0.188 0.097,0.1 0.184,0.214 0.281,0.313 0.069,0.066 0.149,0.123 0.219,0.188 0.097,0.1 0.184,0.214 0.281,0.313 0.069,0.066 0.149,0.123 0.219,0.188 0.097,0.1 0.184,0.214 0.281,0.313 0.069,0.066 0.149,0.123 0.219,0.188 0.118,0.122 0.225,0.255 0.344,0.375 0.011,0.01 0.021,0.021 0.031,0.031 0.059,0.056 0.128,0.101 0.188,0.156 0.021,0.021 0.041,0.042 0.063,0.063 0.052,0.053 0.104,0.104 0.156,0.156 0.07,0.067 0.148,0.122 0.219,0.188 0.041,0.044 0.084,0.082 0.125,0.125 0.057,0.058 0.099,0.129 0.156,0.188 0.07,0.066 0.148,0.122 0.219,0.188 0.098,0.101 0.182,0.212 0.281,0.313 0.069,0.066 0.149,0.123 0.219,0.188 0.097,0.1 0.184,0.214 0.281,0.313 0.069,0.066 0.149,0.123 0.219,0.188 0.097,0.1 0.184,0.214 0.281,0.313 0.069,0.066 0.149,0.123 0.219,0.188 0.097,0.1 0.184,0.214 0.281,0.313 0.069,0.066 0.149,0.123 0.219,0.188 0.097,0.1 0.184,0.214 0.281,0.313 0.069,0.066 0.149,0.123 0.219,0.188 0.097,0.1 0.184,0.214 0.281,0.313 0.069,0.066 0.149,0.123 0.219,0.188 0.097,0.1 0.184,0.214 0.281,0.313 0.069,0.066 0.149,0.123 0.219,0.188 0.097,0.1 0.184,0.214 0.281,0.313 0.069,0.066 0.149,0.123 0.219,0.188 0.097,0.1 0.184,0.214 0.281,0.313 0.069,0.066 0.149,0.123 0.219,0.188 0.097,0.1 0.184,0.214 0.281,0.313 0.069,0.066 0.149,0.123 0.219,0.188 0.097,0.1 0.184,0.214 0.281,0.313 0.069,0.066 0.149,0.123 0.219,0.188 0.097,0.1 0.184,0.214 0.281,0.313 0.069,0.066 0.149,0.123 0.219,0.188 0.097,0.1 0.184,0.214 0.281,0.313 0.069,0.066 0.149,0.123 0.219,0.188 0.097,0.1 0.184,0.214 0.281,0.313 0.069,0.066 0.149,0.123 0.219,0.188 0.02,0.022 0.042,0.041 0.063,0.063 0.077,0.079 0.142,0.172 0.219,0.25 0.011,0.01 0.021,0.021 0.031,0.031 0.272,0.284 0.534,0.569 0.813,0.844 0.041,0.042 0.083,0.083 0.125,0.125 0.105,0.103 0.206,0.211 0.313,0.313 0.062,0.064 0.125,0.124 0.188,0.188 0.069,0.066 0.149,0.122 0.219,0.188 0.097,0.1 0.184,0.214 0.281,0.313 0.069,0.066 0.149,0.123 0.219,0.188 0.097,0.1 0.184,0.214 0.281,0.313 0.069,0.066 0.149,0.123 0.219,0.188 0.097,0.1 0.184,0.214 0.281,0.313 0.069,0.066 0.149,0.123 0.219,0.188 0.097,0.1 0.184,0.214 0.281,0.313 0.069,0.066 0.149,0.123 0.219,0.188 0.165,0.17 0.333,0.333 0.5,0.5 0.022,0.02 0.041,0.042 0.063,0.063 0.021,0.021 0.041,0.042 0.063,0.063 0.052,0.053 0.104,0.104 0.156,0.156 0.07,0.067 0.148,0.122 0.219,0.188 0.041,0.044 0.084,0.082 0.125,0.125 0.057,0.058 0.099,0.129 0.156,0.188 0.07,0.066 0.148,0.122 0.219,0.188 0.098,0.101 0.182,0.212 0.281,0.313 0.069,0.066 0.149,0.123 0.219,0.188 0.097,0.1 0.184,0.214 0.281,0.313 0.069,0.066 0.149,0.123 0.219,0.188 0.097,0.1 0.184,0.214 0.281,0.313 0.069,0.066 0.149,0.123 0.219,0.188 0.097,0.1 0.184,0.214 0.281,0.313 0.069,0.066 0.149,0.123 0.219,0.188 0.097,0.1 0.184,0.214 0.281,0.313 0.069,0.066 0.149,0.123 0.219,0.188 0.097,0.1 0.184,0.214 0.281,0.313 0.069,0.066 0.149,0.123 0.219,0.188 0.097,0.1 0.184,0.214 0.281,0.313 0.069,0.066 0.149,0.123 0.219,0.188 0.097,0.1 0.184,0.214 0.281,0.313 0.069,0.066 0.149,0.123 0.219,0.188 0.097,0.1 0.184,0.214 0.281,0.313 0.069,0.066 0.149,0.123 0.219,0.188 0.097,0.1 0.184,0.214 0.281,0.313 0.069,0.066 0.149,0.123 0.219,0.188 0.097,0.1 0.184,0.214 0.281,0.313 0.069,0.066 0.149,0.123 0.219,0.188 0.097,0.1 0.184,0.214 0.281,0.313 0.069,0.066 0.149,0.123 0.219,0.188 0.097,0.1 0.184,0.214 0.281,0.313 0.069,0.066 0.149,0.123 0.219,0.188 0.097,0.1 0.184,0.214 0.281,0.313 0.069,0.066 0.149,0.123 0.219,0.188 0.02,0.022 0.042,0.041 0.063,0.063 0.077,0.079 0.142,0.172 0.219,0.25 0.011,0.01 0.021,0.021 0.031,0.031 0.272,0.284 0.534,0.569 0.813,0.844 0.041,0.042 0.083,0.083 0.125,0.125 0.105,0.103 0.206,0.211 0.313,0.313 0.062,0.064 0.125,0.124 0.188,0.188 0.069,0.066 0.149,0.122 0.219,0.188 0.097,0.1 0.184,0.214 0.281,0.313 0.069,0.066 0.149,0.123 0.219,0.188 0.097,0.1 0.184,0.214 0.281,0.313 0.069,0.066 0.149,0.123 0.219,0.188 0.097,0.1 0.184,0.214 0.281,0.313 0.069,0.066 0.149,0.123 0.219,0.188 0.097,0.1 0.184,0.214 0.281,0.313 0.069,0.066 0.149,0.123 0.219,0.188 0.097,0.1 0.184,0.214 0.281,0.313 0.069,0.066 0.149,0.123 0.219,0.188 0.118,0.122 0.225,0.255 0.344,0.375 0.011,0.01 0.021,0.021 0.031,0.031 0.059,0.056 0.128,0.101 0.188,0.156 0.021,0.021 0.041,0.042 0.063,0.063 0.052,0.053 0.104,0.104 0.156,0.156 0.07,0.067 0.148,0.122 0.219,0.188 0.098,0.101 0.182,0.212 0.281,0.313 0.07,0.066 0.148,0.122 0.219,0.188 0.097,0.1 0.184,0.214 0.281,0.313 0.069,0.066 0.149,0.123 0.219,0.188 0.097,0.1 0.184,0.214 0.281,0.313 0.069,0.066 0.149,0.123 0.219,0.188 0.097,0.1 0.184,0.214 0.281,0.313 0.069,0.066 0.149,0.123 0.219,0.188 0.097,0.1 0.184,0.214 0.281,0.313 0.069,0.066 0.149,0.123 0.219,0.188 0.097,0.1 0.184,0.214 0.281,0.313 0.069,0.066 0.149,0.123 0.219,0.188 0.097,0.1 0.184,0.214 0.281,0.313 0.069,0.066 0.149,0.123 0.219,0.188 0.097,0.1 0.184,0.214 0.281,0.313 0.069,0.066 0.149,0.123 0.219,0.188 0.097,0.1 0.184,0.214 0.281,0.313 0.069,0.066 0.149,0.123 0.219,0.188 0.097,0.1 0.184,0.214 0.281,0.313 0.069,0.066 0.149,0.123 0.219,0.188 0.097,0.1 0.184,0.214 0.281,0.313 0.069,0.066 0.149,0.123 0.219,0.188 0.097,0.1 0.184,0.214 0.281,0.313 0.069,0.066 0.149,0.123 0.219,0.188 0.097,0.1 0.184,0.214 0.281,0.313 0.069,0.066 0.149,0.123 0.219,0.188 0.097,0.1 0.184,0.214 0.281,0.313 0.069,0.066 0.149,0.123 0.219,0.188 0.02,0.022 0.042,0.041 0.063,0.063 0.077,0.079 0.142,0.172 0.219,0.25 0.011,0.01 0.021,0.021 0.031,0.031 0.272,0.284 0.534,0.569 0.813,0.844 0.041,0.042 0.083,0.083 0.125,0.125 0.105,0.103 0.206,0.211 0.313,0.313 0.062,0.064 0.125,0.124 0.188,0.188 0.069,0.066 0.149,0.122 0.219,0.188 0.097,0.1 0.184,0.214 0.281,0.313 0.069,0.066 0.149,0.123 0.219,0.188 0.097,0.1 0.184,0.214 0.281,0.313 0.069,0.066 0.149,0.123 0.219,0.188 0.097,0.1 0.184,0.214 0.281,0.313 0.069,0.066 0.149,0.123 0.219,0.188 0.097,0.1 0.184,0.214 0.281,0.313 0.069,0.066 0.149,0.123 0.219,0.188 0.097,0.1 0.184,0.214 0.281,0.313 0.069,0.066 0.149,0.123 0.219,0.188 0.165,0.17 0.333,0.333 0.5,0.5 0.022,0.02 0.041,0.042 0.063,0.063 0.021,0.021 0.041,0.042 0.063,0.063 0.052,0.053 0.104,0.104 0.156,0.156 0.07,0.067 0.148,0.122 0.219,0.188 0.098,0.101 0.182,0.212 0.281,0.313 0.07,0.066 0.148,0.122 0.219,0.188 0.097,0.1 0.184,0.214 0.281,0.313 0.069,0.066 0.149,0.123 0.219,0.188 0.097,0.1 0.184,0.214 0.281,0.313 0.069,0.066 0.149,0.123 0.219,0.188 0.097,0.1 0.184,0.214 0.281,0.313 0.069,0.066 0.149,0.123 0.219,0.188 0.097,0.1 0.184,0.214 0.281,0.313 0.069,0.066 0.149,0.123 0.219,0.188 0.097,0.1 0.184,0.214 0.281,0.313 0.069,0.066 0.149,0.123 0.219,0.188 0.097,0.1 0.184,0.214 0.281,0.313 0.069,0.066 0.149,0.123 0.219,0.188 0.097,0.1 0.184,0.214 0.281,0.313 0.069,0.066 0.149,0.123 0.219,0.188 0.097,0.1 0.184,0.214 0.281,0.313 0.069,0.066 0.149,0.123 0.219,0.188 0.097,0.1 0.184,0.214 0.281,0.313 0.069,0.066 0.149,0.123 0.219,0.188 0.097,0.1 0.184,0.214 0.281,0.313 0.069,0.066 0.149,0.123 0.219,0.188 0.097,0.1 0.184,0.214 0.281,0.313 0.069,0.066 0.149,0.123 0.219,0.188 0.097,0.1 0.184,0.214 0.281,0.313 0.069,0.066 0.149,0.123 0.219,0.188 0.097,0.1 0.184,0.214 0.281,0.313 0.069,0.066 0.149,0.123 0.219,0.188 0.02,0.022 0.042,0.041 0.063,0.063 0.077,0.079 0.142,0.172 0.219,0.25 0.011,0.01 0.021,0.021 0.031,0.031 0.272,0.284 0.534,0.569 0.813,0.844 0.041,0.042 0.083,0.083 0.125,0.125 0.105,0.103 0.206,0.211 0.313,0.313 0.062,0.064 0.125,0.124 0.188,0.188 0.069,0.066 0.149,0.122 0.219,0.188 0.097,0.1 0.184,0.214 0.281,0.313 0.069,0.066 0.149,0.123 0.219,0.188 0.097,0.1 0.184,0.214 0.281,0.313 0.069,0.066 0.149,0.123 0.219,0.188 0.097,0.1 0.184,0.214 0.281,0.313 0.069,0.066 0.149,0.123 0.219,0.188 0.097,0.1 0.184,0.214 0.281,0.313 0.069,0.066 0.149,0.123 0.219,0.188 0.097,0.1 0.184,0.214 0.281,0.313 0.069,0.066 0.149,0.123 0.219,0.188 0.118,0.122 0.225,0.255 0.344,0.375 0.011,0.01 0.021,0.021 0.031,0.031 0.059,0.056 0.128,0.101 0.188,0.156 0.021,0.021 0.041,0.042 0.063,0.063 0.052,0.053 0.104,0.104 0.156,0.156 0.07,0.067 0.148,0.122 0.219,0.188 0.098,0.101 0.182,0.212 0.281,0.313 0.07,0.066 0.148,0.122 0.219,0.188 0.097,0.1 0.184,0.214 0.281,0.313 0.069,0.066 0.149,0.123 0.219,0.188 0.097,0.1 0.184,0.214 0.281,0.313 0.069,0.066 0.149,0.123 0.219,0.188 0.097,0.1 0.184,0.214 0.281,0.313 0.069,0.066 0.149,0.123 0.219,0.188 0.097,0.1 0.184,0.214 0.281,0.313 0.069,0.066 0.149,0.123 0.219,0.188 0.097,0.1 0.184,0.214 0.281,0.313 0.069,0.066 0.149,0.123 0.219,0.188 0.097,0.1 0.184,0.214 0.281,0.313 0.069,0.066 0.149,0.123 0.219,0.188 0.097,0.1 0.184,0.214 0.281,0.313 0.069,0.066 0.149,0.123 0.219,0.188 0.097,0.1 0.184,0.214 0.281,0.313 0.069,0.066 0.149,0.123 0.219,0.188 0.097,0.1 0.184,0.214 0.281,0.313 0.069,0.066 0.149,0.123 0.219,0.188 0.097,0.1 0.184,0.214 0.281,0.313 0.069,0.066 0.149,0.123 0.219,0.188 0.097,0.1 0.184,0.214 0.281,0.313 0.069,0.066 0.149,0.123 0.219,0.188 0.097,0.1 0.184,0.214 0.281,0.313 0.069,0.066 0.149,0.123 0.219,0.188 0.097,0.1 0.184,0.214 0.281,0.313 0.069,0.066 0.149,0.123 0.219,0.188 0.02,0.022 0.042,0.041 0.063,0.063 0.077,0.079 0.142,0.172 0.219,0.25 0.011,0.01 0.021,0.021 0.031,0.031 0.272,0.284 0.534,0.569 0.813,0.844 0.041,0.042 0.083,0.083 0.125,0.125 0.105,0.103 0.206,0.211 0.313,0.313 0.062,0.064 0.125,0.124 0.188,0.188 0.069,0.066 0.149,0.122 0.219,0.188 0.097,0.1 0.184,0.214 0.281,0.313 0.069,0.066 0.149,0.123 0.219,0.188 0.097,0.1 0.184,0.214 0.281,0.313 0.069,0.066 0.149,0.123 0.219,0.188 0.097,0.1 0.184,0.214 0.281,0.313 0.069,0.066 0.149,0.123 0.219,0.188 0.097,0.1 0.184,0.214 0.281,0.313 0.069,0.066 0.149,0.123 0.219,0.188 0.097,0.1 0.184,0.214 0.281,0.313 0.069,0.066 0.149,0.123 0.219,0.188 0.165,0.17 0.333,0.333 0.5,0.5 0.022,0.02 0.041,0.042 0.063,0.063 0.021,0.021 0.041,0.042 0.063,0.063 0.052,0.053 0.104,0.104 0.156,0.156 0.07,0.067 0.148,0.122 0.219,0.188 0.098,0.101 0.182,0.212 0.281,0.313 0.07,0.066 0.148,0.122 0.219,0.188 0.097,0.1 0.184,0.214 0.281,0.313 0.069,0.066 0.149,0.123 0.219,0.188 0.097,0.1 0.184,0.214 0.281,0.313 0.069,0.066 0.149,0.123 0.219,0.188 0.097,0.1 0.184,0.214 0.281,0.313 0.069,0.066 0.149,0.123 0.219,0.188 0.097,0.1 0.184,0.214 0.281,0.313 0.069,0.066 0.149,0.123 0.219,0.188 0.097,0.1 0.184,0.214 0.281,0.313 0.069,0.066 0.149,0.123 0.219,0.188 0.097,0.1 0.184,0.214 0.281,0.313 0.069,0.066 0.149,0.123 0.219,0.188 0.097,0.1 0.184,0.214 0.281,0.313 0.069,0.066 0.149,0.123 0.219,0.188 0.097,0.1 0.184,0.214 0.281,0.313 0.069,0.066 0.149,0.123 0.219,0.188 0.097,0.1 0.184,0.214 0.281,0.313 0.069,0.066 0.149,0.123 0.219,0.188 0.097,0.1 0.184,0.214 0.281,0.313 0.069,0.066 0.149,0.123 0.219,0.188 0.097,0.1 0.184,0.214 0.281,0.313 0.069,0.066 0.149,0.123 0.219,0.188 0.097,0.1 0.184,0.214 0.281,0.313 0.069,0.066 0.149,0.123 0.219,0.188 0.097,0.1 0.184,0.214 0.281,0.313 0.069,0.066 0.149,0.123 0.219,0.188 0.02,0.022 0.042,0.041 0.063,0.063 0.077,0.079 0.142,0.172 0.219,0.25 0.011,0.01 0.021,0.021 0.031,0.031 0.272,0.284 0.534,0.569 0.813,0.844 0.041,0.042 0.083,0.083 0.125,0.125 0.105,0.103 0.206,0.211 0.313,0.313 0.062,0.064 0.125,0.124 0.188,0.188 0.069,0.066 0.149,0.122 0.219,0.188 0.097,0.1 0.184,0.214 0.281,0.313 0.069,0.066 0.149,0.123 0.219,0.188 0.097,0.1 0.184,0.214 0.281,0.313 0.069,0.066 0.149,0.123 0.219,0.188 0.097,0.1 0.184,0.214 0.281,0.313 0.069,0.066 0.149,0.123 0.219,0.188 0.097,0.1 0.184,0.214 0.281,0.313 0.069,0.066 0.149,0.123 0.219,0.188 0.097,0.1 0.184,0.214 0.281,0.313 0.069,0.066 0.149,0.123 0.219,0.188 0.097,0.101 0.186,0.21 0.281,0.313 105,-16.12 185.41,-106.84 185.41,-216.34 0,-24.641 -4.087,-48.33 -11.594,-70.44 -0.041,0.042 -0.083,0.083 -0.125,0.125 0.027,-0.105 0.067,-0.207 0.094,-0.313 -0.065,-0.19 -0.153,-0.372 -0.219,-0.563 -0.122,0.123 -0.247,0.247 -0.375,0.375 0.074,-0.282 0.145,-0.563 0.219,-0.844 -0.029,-0.084 -0.065,-0.166 -0.094,-0.25 l -0.594,0.594 c 0.115,-0.438 0.223,-0.873 0.344,-1.313 l -0.031,0 c -0.288,0.286 -0.534,0.533 -0.813,0.813 0.115,-0.438 0.223,-0.873 0.344,-1.313 -0.297,0.296 -0.557,0.556 -0.844,0.844 0.117,-0.448 0.22,-0.894 0.344,-1.344 -0.297,0.296 -0.557,0.556 -0.844,0.844 0.117,-0.448 0.22,-0.894 0.344,-1.344 -0.297,0.296 -0.557,0.556 -0.844,0.844 0.117,-0.448 0.22,-0.894 0.344,-1.344 -0.297,0.296 -0.557,0.556 -0.844,0.844 0.117,-0.448 0.22,-0.894 0.344,-1.344 -0.297,0.296 -0.557,0.556 -0.844,0.844 0.117,-0.448 0.22,-0.894 0.344,-1.344 -0.297,0.296 -0.557,0.556 -0.844,0.844 0.117,-0.448 0.22,-0.894 0.344,-1.344 -0.297,0.296 -0.557,0.556 -0.844,0.844 0.117,-0.448 0.22,-0.894 0.344,-1.344 -0.297,0.296 -0.557,0.556 -0.844,0.844 0.117,-0.448 0.22,-0.894 0.344,-1.344 -0.297,0.296 -0.557,0.556 -0.844,0.844 0.117,-0.448 0.22,-0.894 0.344,-1.344 -0.301,0.3 -0.553,0.583 -0.844,0.875 0.12,-0.458 0.218,-0.916 0.344,-1.375 -0.301,0.3 -0.553,0.583 -0.844,0.875 0.12,-0.458 0.218,-0.916 0.344,-1.375 -0.301,0.3 -0.553,0.583 -0.844,0.875 0.12,-0.458 0.218,-0.916 0.344,-1.375 -0.301,0.3 -0.553,0.583 -0.844,0.875 0.119,-0.454 0.219,-0.92 0.344,-1.375 -0.301,0.3 -0.553,0.583 -0.844,0.875 0.119,-0.454 0.219,-0.92 0.344,-1.375 -0.301,0.3 -0.553,0.583 -0.844,0.875 0.119,-0.454 0.219,-0.92 0.344,-1.375 -0.301,0.3 -0.553,0.583 -0.844,0.875 0.119,-0.454 0.219,-0.92 0.344,-1.375 -0.301,0.3 -0.553,0.583 -0.844,0.875 0.119,-0.454 0.219,-0.92 0.344,-1.375 -0.301,0.3 -0.553,0.583 -0.844,0.875 0.119,-0.454 0.219,-0.92 0.344,-1.375 -0.301,0.3 -0.553,0.583 -0.844,0.875 0.119,-0.454 0.219,-0.92 0.344,-1.375 -0.296,0.294 -0.558,0.557 -0.844,0.844 0.117,-0.445 0.221,-0.897 0.344,-1.344 -0.296,0.294 -0.558,0.557 -0.844,0.844 0.117,-0.445 0.221,-0.897 0.344,-1.344 -0.296,0.294 -0.558,0.557 -0.844,0.844 0.117,-0.445 0.221,-0.897 0.344,-1.344 -0.297,0.296 -0.557,0.556 -0.844,0.844 0.115,-0.439 0.223,-0.872 0.344,-1.313 -0.288,0.286 -0.534,0.533 -0.813,0.813 0.115,-0.438 0.223,-0.873 0.344,-1.313 l -0.031,0 c -0.288,0.286 -0.534,0.533 -0.813,0.813 0.115,-0.438 0.223,-0.873 0.344,-1.313 -0.297,0.296 -0.557,0.556 -0.844,0.844 0.117,-0.448 0.22,-0.894 0.344,-1.344 -0.297,0.296 -0.557,0.556 -0.844,0.844 0.117,-0.448 0.22,-0.894 0.344,-1.344 -0.297,0.296 -0.557,0.556 -0.844,0.844 0.117,-0.448 0.22,-0.894 0.344,-1.344 -0.297,0.296 -0.557,0.556 -0.844,0.844 0.117,-0.448 0.22,-0.894 0.344,-1.344 -0.297,0.296 -0.557,0.556 -0.844,0.844 0.117,-0.448 0.22,-0.894 0.344,-1.344 -0.297,0.296 -0.557,0.556 -0.844,0.844 0.117,-0.448 0.22,-0.894 0.344,-1.344 -0.297,0.296 -0.557,0.556 -0.844,0.844 0.117,-0.448 0.22,-0.894 0.344,-1.344 -0.297,0.296 -0.557,0.556 -0.844,0.844 0.117,-0.448 0.22,-0.894 0.344,-1.344 -0.297,0.296 -0.557,0.556 -0.844,0.844 0.117,-0.448 0.22,-0.894 0.344,-1.344 -0.301,0.3 -0.553,0.583 -0.844,0.875 0.12,-0.458 0.218,-0.916 0.344,-1.375 -0.301,0.3 -0.553,0.583 -0.844,0.875 0.12,-0.458 0.218,-0.916 0.344,-1.375 -0.301,0.3 -0.553,0.583 -0.844,0.875 0.12,-0.458 0.218,-0.916 0.344,-1.375 -0.301,0.3 -0.553,0.583 -0.844,0.875 0.119,-0.454 0.219,-0.92 0.344,-1.375 -0.301,0.3 -0.553,0.583 -0.844,0.875 0.119,-0.454 0.219,-0.92 0.344,-1.375 -0.301,0.3 -0.553,0.583 -0.844,0.875 0.119,-0.454 0.219,-0.92 0.344,-1.375 -0.301,0.3 -0.553,0.583 -0.844,0.875 0.119,-0.454 0.219,-0.92 0.344,-1.375 -0.301,0.3 -0.553,0.583 -0.844,0.875 0.119,-0.454 0.219,-0.92 0.344,-1.375 -0.301,0.3 -0.553,0.583 -0.844,0.875 0.119,-0.454 0.219,-0.92 0.344,-1.375 -0.301,0.3 -0.553,0.583 -0.844,0.875 0.119,-0.454 0.219,-0.92 0.344,-1.375 -0.296,0.294 -0.558,0.557 -0.844,0.844 0.117,-0.445 0.221,-0.897 0.344,-1.344 -0.296,0.294 -0.558,0.557 -0.844,0.844 0.117,-0.445 0.221,-0.897 0.344,-1.344 -0.296,0.294 -0.558,0.557 -0.844,0.844 0.117,-0.445 0.221,-0.897 0.344,-1.344 -0.297,0.296 -0.557,0.556 -0.844,0.844 0.115,-0.439 0.223,-0.872 0.344,-1.313 -0.299,0.297 -0.555,0.554 -0.844,0.844 0.118,-0.449 0.22,-0.893 0.344,-1.344 -0.288,0.286 -0.534,0.533 -0.813,0.813 0.115,-0.438 0.223,-0.873 0.344,-1.313 -0.297,0.296 -0.557,0.556 -0.844,0.844 0.117,-0.448 0.22,-0.894 0.344,-1.344 -0.297,0.296 -0.557,0.556 -0.844,0.844 0.117,-0.448 0.22,-0.894 0.344,-1.344 -0.297,0.296 -0.557,0.556 -0.844,0.844 0.117,-0.448 0.22,-0.894 0.344,-1.344 -0.297,0.296 -0.557,0.556 -0.844,0.844 0.117,-0.448 0.22,-0.894 0.344,-1.344 -0.297,0.296 -0.557,0.556 -0.844,0.844 0.117,-0.448 0.22,-0.894 0.344,-1.344 -0.297,0.296 -0.557,0.556 -0.844,0.844 0.117,-0.448 0.22,-0.894 0.344,-1.344 -0.297,0.296 -0.557,0.556 -0.844,0.844 0.117,-0.448 0.22,-0.894 0.344,-1.344 -0.297,0.296 -0.557,0.556 -0.844,0.844 0.117,-0.448 0.22,-0.894 0.344,-1.344 -0.297,0.296 -0.557,0.556 -0.844,0.844 0.117,-0.448 0.22,-0.894 0.344,-1.344 -0.301,0.3 -0.553,0.583 -0.844,0.875 0.12,-0.458 0.218,-0.916 0.344,-1.375 -0.301,0.3 -0.553,0.583 -0.844,0.875 0.12,-0.458 0.218,-0.916 0.344,-1.375 -0.301,0.3 -0.553,0.583 -0.844,0.875 0.12,-0.458 0.218,-0.916 0.344,-1.375 -0.301,0.3 -0.553,0.583 -0.844,0.875 0.119,-0.454 0.219,-0.92 0.344,-1.375 -0.301,0.3 -0.553,0.583 -0.844,0.875 0.119,-0.454 0.219,-0.92 0.344,-1.375 -0.301,0.3 -0.553,0.583 -0.844,0.875 0.119,-0.454 0.219,-0.92 0.344,-1.375 -0.301,0.3 -0.553,0.583 -0.844,0.875 0.119,-0.454 0.219,-0.92 0.344,-1.375 -0.301,0.3 -0.553,0.583 -0.844,0.875 0.119,-0.454 0.219,-0.92 0.344,-1.375 -0.301,0.3 -0.553,0.583 -0.844,0.875 0.119,-0.454 0.219,-0.92 0.344,-1.375 -0.301,0.3 -0.553,0.583 -0.844,0.875 0.119,-0.454 0.219,-0.92 0.344,-1.375 -0.296,0.294 -0.558,0.557 -0.844,0.844 0.117,-0.445 0.221,-0.897 0.344,-1.344 -0.296,0.294 -0.558,0.557 -0.844,0.844 0.117,-0.445 0.221,-0.897 0.344,-1.344 -0.296,0.294 -0.558,0.557 -0.844,0.844 0.117,-0.445 0.221,-0.897 0.344,-1.344 -0.297,0.296 -0.557,0.556 -0.844,0.844 0.115,-0.439 0.223,-0.872 0.344,-1.313 -0.299,0.297 -0.555,0.554 -0.844,0.844 0.118,-0.449 0.22,-0.893 0.344,-1.344 -0.288,0.286 -0.534,0.533 -0.813,0.813 0.115,-0.438 0.223,-0.873 0.344,-1.313 -0.297,0.296 -0.557,0.556 -0.844,0.844 0.117,-0.448 0.22,-0.894 0.344,-1.344 -0.297,0.296 -0.557,0.556 -0.844,0.844 0.117,-0.448 0.22,-0.894 0.344,-1.344 -0.297,0.296 -0.557,0.556 -0.844,0.844 0.117,-0.448 0.22,-0.894 0.344,-1.344 -0.297,0.296 -0.557,0.556 -0.844,0.844 0.117,-0.448 0.22,-0.894 0.344,-1.344 -0.297,0.296 -0.557,0.556 -0.844,0.844 0.117,-0.448 0.22,-0.894 0.344,-1.344 -0.297,0.296 -0.557,0.556 -0.844,0.844 0.117,-0.448 0.22,-0.894 0.344,-1.344 -0.297,0.296 -0.557,0.556 -0.844,0.844 0.117,-0.448 0.22,-0.894 0.344,-1.344 -0.297,0.296 -0.557,0.556 -0.844,0.844 0.117,-0.448 0.22,-0.894 0.344,-1.344 -0.297,0.296 -0.557,0.556 -0.844,0.844 0.117,-0.448 0.22,-0.894 0.344,-1.344" />
  <path
     style="fill-opacity:0.06700003;fill-rule:evenodd"
     inkscape:connector-curvature="0"
     d="M 256,1 C 115.17,1 1,115.17 1,256 1,396.83 115.17,511 256,511 396.83,511 511,396.83 511,256 511,115.17 396.83,1 256,1 m 8.827,44.931 c 120.9,0 218.9,98 218.9,218.9 0,120.9 -98,218.9 -218.9,218.9 -120.9,0 -218.93,-98 -218.93,-218.9 0,-120.9 98.03,-218.9 218.93,-218.9"
     id="path8" />
  <g
     style="fill-opacity:0.12900002;fill-rule:evenodd"
     id="g10">
    <path
       inkscape:connector-curvature="0"
       d="m 256,4.433 c -138.94,0 -251.57,112.63 -251.57,251.57 0,138.94 112.63,251.57 251.57,251.57 138.94,0 251.57,-112.63 251.57,-251.57 C 507.57,117.063 394.94,4.433 256,4.433 m 5.885,38.556 c 120.9,0 218.9,98 218.9,218.9 0,120.9 -98,218.9 -218.9,218.9 -120.9,0 -218.93,-98 -218.93,-218.9 0,-120.9 98.03,-218.9 218.93,-218.9"
       id="path12" />
    <path
       inkscape:connector-curvature="0"
       d="m 256,8.356 c -136.77,0 -247.64,110.87 -247.64,247.64 0,136.77 110.87,247.64 247.64,247.64 136.77,0 247.64,-110.87 247.64,-247.64 C 503.64,119.226 392.77,8.356 256,8.356 m 2.942,31.691 c 120.9,0 218.9,98 218.9,218.9 0,120.9 -98,218.9 -218.9,218.9 -120.9,0 -218.93,-98 -218.93,-218.9 0,-120.9 98.03,-218.9 218.93,-218.9"
       id="path14" />
  </g>
  <path
     style="fill:#ffffff;fill-rule:evenodd;stroke:#000000;stroke-width:4.90399981;stroke-opacity:0.31000001"
     inkscape:connector-curvature="0"
     d="m 253.04,7.859 c -135.42,0 -245.19,109.78 -245.19,245.19 0,135.42 109.78,245.19 245.19,245.19 135.42,0 245.19,-109.78 245.19,-245.19 0,-135.42 -109.78,-245.19 -245.19,-245.19 z m 0,26.297 c 120.9,0 218.9,98 218.9,218.9 0,120.9 -98,218.9 -218.9,218.9 -120.9,0 -218.93,-98 -218.93,-218.9 0,-120.9 98.03,-218.9 218.93,-218.9 z"
     id="path16" />
  <path
     inkscape:connector-curvature="0"
     style="fill:#ffffff"
     id="path78"
     d="m 178.49171,155.30374 1.93,7.988 1.539,8.994 c 0.973,5.102 1.759,10.395 2.325,15.678 0.93,8.687 1.263,17.349 0.853,25.1 -0.168,2.974 -0.323,5.792 -0.325,6.06 -1.652,9.353 -4.49,19.21 -11.169,25.516 -7.122,6.278 -16.964,8.786 -24.668,9.59 l -0.727,-0.215 c 0.134,-7.338 -1.49,-15.04 -5.089,-22.23 -9.901,-19.776 -30.855,-28.19 -46.814996,-18.807 -15.96,9.382 -20.878,33.02 -10.976,52.8 9,17.976 27.139996,26.545 42.349996,20.915 l -0.171,0.324 c 10.508,13.433 24.693,25.68 36.48,35.1 13.12,10.447 26.894,19.809 40.32,26.349 18.712,8.858 39.03,15.63 57.33,19.08 17.642,-0.045 31.357,-1.52 43.867,-5.352 12.839,-3.932 24.409,-10.347 37.653,-20.247 12.595,-12.439 21.846,-24.09 29.559,-36.654 12.725,-22.459 19.864,-40.595 25.939,-61.822 5.368,-18.929 8.934,-33.55 11.752,-50.566 3.242,-17.374 3.527,-36.789 7.857,-52.828 -15.864,15.776 -16.938,20.1 -35.572,38.624 -10.904,10.783 -22.335,19.666 -36.817,23.988 -3.242,-6.16 -8.01,-9.365 -13.02,-13.273 -9.79,-7.68 -22.15,-13.319 -33.14,-16.273 -10.166,-2.619 -20.625,-3.66 -29.884,-3.574 -11.855,0.501 -22.735,1.868 -33.25,5.629 -6.292,2.298 -12.491,5.134 -19.13,7.941 l -16.406,-11.949 -11.293,-7.946 -11.316,-7.943" />
</svg>
