<?xml version="1.0" encoding="UTF-8" standalone="no"?>
<svg xmlns="http://www.w3.org/2000/svg" height="512" viewBox="0 0 512 512" width="512" version="1.1">
 <metadata id="metadata70"/>
 <defs id="defs68">
  <radialGradient id="radialGradient21305" gradientUnits="userSpaceOnUse" cy="64" cx="64" r="64">
   <stop id="stop4218-0" stop-color="#fff"/>
   <stop id="stop4220-2" stop-color="#e8e8e8" offset="0.688"/>
   <stop id="stop4222-6" stop-color="#686868" offset="0.875"/>
   <stop id="stop4224-6" offset="1"/>
  </radialGradient>
  <filter id="filter3174" color-interpolation-filters="sRGB">
   <feGaussianBlur id="feGaussianBlur3176" stdDeviation="1.71"/>
  </filter>
  <linearGradient id="linearGradient4544" gradientUnits="userSpaceOnUse" x2="0" gradientTransform="scale(1.0059 .99417)" y1="92.54" y2="7.02">
   <stop id="stop3750"/>
   <stop id="stop3752" stop-opacity="0.588" offset="1"/>
  </linearGradient>
 </defs>
 <path id="path8-5" fill-rule="evenodd" fill="#BF9E73" d="m471.95 253.05c0 120.9-98.006 218.91-218.91 218.91s-218.91-98.006-218.91-218.91 98.006-218.91 218.91-218.91 218.91 98.006 218.91 218.91"/>
 <path id="path10" d="m256 1c-140.83 0-255 114.17-255 255s114.17 255 255 255 255-114.17 255-255-114.17-255-255-255m8.827 44.931c120.9 0 218.9 98 218.9 218.9s-98 218.9-218.9 218.9-218.93-98-218.93-218.9 98.03-218.9 218.93-218.9" fill-rule="evenodd" fill-opacity="0.067"/>
 <path id="path14" d="m256 4.43c-138.94 0-251.57 112.63-251.57 251.57s112.63 251.57 251.57 251.57 251.57-112.63 251.57-251.57-112.63-251.57-251.57-251.57m5.885 38.556c120.9 0 218.9 98 218.9 218.9s-98 218.9-218.9 218.9-218.93-98-218.93-218.9 98.03-218.9 218.93-218.9" fill-rule="evenodd" fill-opacity="0.129"/>
 <path id="path16" d="m256 8.36c-136.77 0-247.64 110.87-247.64 247.64s110.87 247.64 247.64 247.64 247.64-110.87 247.64-247.64-110.87-247.64-247.64-247.64m2.942 31.691c120.9 0 218.9 98 218.9 218.9s-98 218.9-218.9 218.9-218.93-98-218.93-218.9 98.03-218.9 218.93-218.9" fill-rule="evenodd" fill-opacity="0.129"/>
 <path id="path18" d="m253.04 7.86c-135.42 0-245.19 109.78-245.19 245.19 0 135.42 109.78 245.19 245.19 245.19 135.42 0 245.19-109.78 245.19-245.19 0-135.42-109.78-245.19-245.19-245.19zm0 26.297c120.9 0 218.9 98 218.9 218.9s-98 218.9-218.9 218.9-218.93-98-218.93-218.9 98.03-218.9 218.93-218.9z" stroke-opacity="0.31" fill-rule="evenodd" stroke="#000" stroke-width="4.904" fill="#fff"/>
 <path id="path3189" opacity="0.25" d="m167.35 117.6c-6.76 10.15-8.37 31.47-3.2 44.5-18.25 15.52-21.15 57.19-12.78 83.43-27.37 0.05-55.702-0.84-75.897 6.36l10.425 10.42c-3.302 0.94-6.522 1.96-9.63 3.08l204.78 204.79c107.67-13.75 190.9-105.72 190.9-217.13 0-0.88-0.03-1.75-0.04-2.63l-132.82-132.82c-9.78 0.35-17.02 1.79-25.56 5.56-6.57 2.9-14.02 10.49-20.78 11.12-6.89 0.65-16.4-3.46-25.55-3.97-21.75-1.19-38.44 1.05-54.32 5.57-12.8-8.49-25.16-17.37-45.53-18.28z"/>
 <path id="path3050" fill="#fff" d="m339.08 117.61c4.6938 10.659 7.7342 28.363 3.1978 41.322 18.554 15.842 24.929 54.353 15.975 85.824 26.446 2.0176 57.942-0.97109 78.279 7.1446-19.008-2.4433-44.967-7.2373-69.485-5.5678-4.6452 0.31687-11.53-0.17675-11.193 6.3589 28.383 2.231 56.584 4.6539 79.885 11.931-23.112-3.7755-51.162-9.5244-79.885-10.326-11.866 23.408-35.729 34.915-68.689 37.338 3.5427 7.7062 10.326 10.643 11.985 23.043 2.4714 18.526-3.8671 45.655 2.3873 58.006 3.0006 5.917 7.8915 6.0733 11.188 11.132-8.0715 9.5524-28.087-1.0713-30.361-11.132-3.9037-17.231 5.945-43.944-4.7864-55.623 0.75768 18.791-4.4448 45.188 0.79863 61.973 2.0661 6.6036 8.0316 9.1504 6.3912 15.1-37.518 3.811-21.84-48.554-27.97-79.465-5.6605 0.40094-3.173 8.4768-3.1935 11.92-0.16058 30.189 6.1779 71.586-26.357 67.545-0.95061-6.3428 4.365-8.5005 6.3902-14.294 5.9332-16.986-1.1112-42.292 1.6091-62.792-12.416 9.3595 1.3041 42.044-6.3902 58.804-4.4329 9.644-18.719 13.841-29.555 9.5362 1.4119-7.1813 8.826-6.0216 11.974-12.714 4.3974-9.3271 0.0323-22.763 1.6005-36.551-22.984 4.586-40.811-0.66607-49.537-15.1-3.9037-6.4775-4.8705-14.119-9.588-19.862-4.6938-5.7446-12.196-6.5206-14.37-14.298 28.463-6.8526 29.555 29.294 55.118 30.189 7.8387 0.28454 11.92-2.2623 19.168-3.9673 2.0295-9.1148 6.3751-15.91 12.781-20.672-31.809-4.3542-58.079-14.258-70.293-38.132-28.917 1.4238-55.377 5.2833-79.885 11.116 22.245-8.0801 49.686-10.976 79.088-11.931-1.7331-10.415-16.926-7.5553-26.357-7.1489-17.527 0.77816-39.592 2.9564-53.525 5.5721 20.196-7.2007 48.533-6.3029 75.898-6.3589-8.369-26.236-5.4676-67.911 12.781-83.431-5.1712-13.03-3.5664-34.352 3.1935-44.502 20.375 0.91505 32.732 9.7971 45.536 18.281 15.875-4.5138 32.571-6.7599 54.32-5.5646 9.1471 0.50548 18.663 4.6172 25.551 3.9673 6.7599-0.63373 14.21-8.2202 20.773-11.116 8.549-3.7755 15.782-5.2154 25.563-5.5678"/>
</svg>
