<?xml version="1.0" encoding="UTF-8" standalone="no"?>
<svg xmlns="http://www.w3.org/2000/svg" height="512" viewBox="0 0 512 512" width="512" version="1.1">
 <metadata id="metadata70"/>
 <path id="path8" d="m471.95 253.05c0 120.9-98.006 218.91-218.91 218.91s-218.91-98.006-218.91-218.91 98.006-218.91 218.91-218.91 218.91 98.006 218.91 218.91" fill-rule="evenodd" fill="#BF9E73"/>
 <path id="path4627" opacity="0.25" d="m254.06 120.19c-29.385 0-54.573 10.1-75.562 30.25-20.989 19.87-32.731 44.49-35.25 73.875-1.1194 13.713 0.55355 25.328 5.0312 34.844 2.0442 4.0876 4.596 7.5258 7.6562 10.344 0.5119 0.53792 1.0187 1.0645 1.5625 1.5625 0.41751 0.43531 0.84265 0.8723 1.2812 1.2812 0.48457 0.5149 0.98651 1.0212 1.5 1.5 0.52985 0.5629 1.0606 1.1053 1.625 1.625 0.5119 0.53792 1.0187 1.0645 1.5625 1.5625 0.41751 0.43531 0.84265 0.8723 1.2812 1.2812 0.48457 0.5149 0.98652 1.0212 1.5 1.5 0.52985 0.5629 1.0606 1.1053 1.625 1.625 0.5119 0.53792 1.0187 1.0645 1.5625 1.5625 0.41751 0.43531 0.84265 0.8723 1.2812 1.2812 0.48457 0.5149 0.98652 1.0212 1.5 1.5 0.48457 0.5149 0.98652 1.0212 1.5 1.5 0.39222 0.41668 0.77634 0.82573 1.1875 1.2188 0.01 0.0108 0.0213 0.0205 0.0312 0.0312 0.0855 0.0815 0.16366 0.16949 0.25 0.25 0.5514 0.58591 1.1299 1.1484 1.7188 1.6875 0.41751 0.43531 0.84265 0.8723 1.2812 1.2812 0.48457 0.5149 0.98652 1.0212 1.5 1.5 0.39222 0.41668 0.77634 0.82573 1.1875 1.2188 0.01 0.0108 0.0213 0.0205 0.0312 0.0312 0.0855 0.0815 0.16366 0.16949 0.25 0.25 0.5514 0.58591 1.1299 1.1484 1.7188 1.6875 0.41751 0.43531 0.84265 0.8723 1.2812 1.2812 0.48457 0.5149 0.98652 1.0212 1.5 1.5 0.56021 0.59515 1.1199 1.1719 1.7188 1.7188-3.0944 1.9378-5.8992 3.8431-8.4375 5.6562-19.31 13.993-29.663 28.828-31.062 44.5-1.2901 13.905 1.6795 24.217 8.9062 31 0.54165 0.59675 1.12 1.1697 1.7188 1.7188 0.48459 0.52058 1.0023 1.0165 1.5312 1.5 0.44506 0.47733 0.89258 0.96016 1.375 1.4062 0.43069 0.4671 0.87763 0.90628 1.3438 1.3438 0.54165 0.59675 1.12 1.1697 1.7188 1.7188 0.43711 0.46957 0.90178 0.93562 1.375 1.375 0.48576 0.5289 1.0002 1.0402 1.5312 1.5312 0.48025 0.52085 0.9757 1.016 1.5 1.5 0.50008 0.54235 1.0147 1.0601 1.5625 1.5625 0.43711 0.46957 0.90178 0.93562 1.375 1.375 0.48576 0.5289 1.0002 1.0402 1.5312 1.5312 0.48025 0.52085 0.9757 1.016 1.5 1.5 0.45051 0.4886 0.91697 0.95007 1.4062 1.4062 0.48577 0.53134 0.99997 1.038 1.5312 1.5312 0.48576 0.5289 1.0002 1.0402 1.5312 1.5312 0.48025 0.52085 0.9757 1.016 1.5 1.5 0.43068 0.4671 0.87763 0.90628 1.3438 1.3438 0.54165 0.59675 1.12 1.1697 1.7188 1.7188 0.48459 0.52058 1.0023 1.0165 1.5312 1.5 0.44506 0.47733 0.89258 0.96016 1.375 1.4062 0.43068 0.4671 0.87763 0.90628 1.3438 1.3438 0.54165 0.59675 1.12 1.1697 1.7188 1.7188 0.48459 0.52058 1.0023 1.0165 1.5312 1.5 0.44506 0.47733 0.89258 0.96016 1.375 1.4062 0.43068 0.4671 0.87763 0.90628 1.3438 1.3438 0.54165 0.59675 1.12 1.1697 1.7188 1.7188 0.43711 0.46957 0.90178 0.93562 1.375 1.375 0.48576 0.5289 1.0002 1.0402 1.5312 1.5312 0.48025 0.52085 0.9757 1.016 1.5 1.5 0.50007 0.54235 1.0147 1.0601 1.5625 1.5625 0.43711 0.46957 0.90178 0.93562 1.375 1.375 0.48576 0.5289 1.0002 1.0402 1.5312 1.5312 0.48025 0.52085 0.9757 1.016 1.5 1.5 0.50007 0.54235 1.0147 1.0601 1.5625 1.5625 0.43711 0.46957 0.90178 0.93562 1.375 1.375 0.48576 0.5289 1.0002 1.0402 1.5312 1.5312 0.48025 0.52085 0.9757 1.016 1.5 1.5 0.43068 0.4671 0.87764 0.90628 1.3438 1.3438 0.54165 0.59675 1.12 1.1697 1.7188 1.7188 0.48459 0.52058 1.0023 1.0165 1.5312 1.5 0.4123 0.4422 0.83688 0.86587 1.2812 1.2812 0.46288 0.50806 0.93313 0.99538 1.4375 1.4688 0.54165 0.59675 1.12 1.1697 1.7188 1.7188 0.48459 0.52058 1.0023 1.0165 1.5312 1.5 0.44506 0.47733 0.89258 0.96016 1.375 1.4062 0.43068 0.4671 0.87764 0.90628 1.3438 1.3438 0.54165 0.59675 1.12 1.1697 1.7188 1.7188 0.48459 0.52058 1.0023 1.0165 1.5312 1.5 0.44506 0.47733 0.89258 0.96016 1.375 1.4062 0.48025 0.52085 0.9757 1.016 1.5 1.5 0.50007 0.54235 1.0147 1.0601 1.5625 1.5625 0.43711 0.46957 0.90178 0.93562 1.375 1.375 0.48576 0.5289 1.0002 1.0402 1.5312 1.5312 0.48025 0.52085 0.9757 1.016 1.5 1.5 0.50007 0.54235 1.0147 1.0601 1.5625 1.5625 0.43711 0.46957 0.90178 0.93562 1.375 1.375 0.48576 0.5289 1.0002 1.0402 1.5312 1.5312 0.48025 0.52085 0.9757 1.016 1.5 1.5 0.43068 0.4671 0.87764 0.90628 1.3438 1.3438 0.53181 0.5859 1.1004 1.1476 1.6875 1.6875 2.1588 0.0629 4.326 0.125 6.5 0.125 108.07 0 197.85-78.316 215.69-181.28-0.37062-0.40178-0.76683-0.79649-1.2188-1.1875-0.43327-0.50207-0.93549-1.0129-1.5-1.5-0.0187-0.0217-0.0436-0.0409-0.0625-0.0625-0.0228-0.0194-0.0395-0.0431-0.0625-0.0625-0.4099-0.4617-0.85355-0.92604-1.375-1.375-0.40163-0.46541-0.86059-0.92247-1.375-1.375-0.45231-0.5385-0.99119-1.0724-1.5938-1.5938-0.43258-0.50127-0.9366-1.0137-1.5-1.5-0.009-0.0108-0.0218-0.0204-0.0312-0.0312-0.0346-0.0297-0.0586-0.0641-0.0937-0.0937-0.4099-0.4617-0.85355-0.92604-1.375-1.375-0.40163-0.46541-0.86059-0.92247-1.375-1.375-0.45231-0.5385-0.99119-1.0724-1.5938-1.5938-0.42878-0.49687-0.94268-1.0178-1.5-1.5-0.43683-0.5062-0.92976-1.009-1.5-1.5-0.43683-0.5062-0.92976-1.009-1.5-1.5-0.42803-0.496-0.91263-0.98738-1.4688-1.4688-0.42878-0.49687-0.94268-1.0178-1.5-1.5-0.43683-0.5062-0.92976-1.009-1.5-1.5-0.43683-0.5062-0.92976-1.009-1.5-1.5-0.40163-0.46541-0.86059-0.92247-1.375-1.375-0.45231-0.5385-0.99118-1.0724-1.5938-1.5938-0.43327-0.50207-0.93549-1.0129-1.5-1.5-0.0187-0.0217-0.0436-0.0409-0.0625-0.0625-0.0228-0.0194-0.0395-0.0431-0.0625-0.0625-0.4099-0.4617-0.85355-0.92604-1.375-1.375-0.40163-0.46541-0.86059-0.92247-1.375-1.375-0.45231-0.5385-0.99118-1.0724-1.5938-1.5938-0.43327-0.50207-0.93549-1.0129-1.5-1.5-0.0187-0.0217-0.0436-0.0409-0.0625-0.0625-0.0228-0.0194-0.0395-0.0431-0.0625-0.0625-0.4099-0.4617-0.85355-0.92604-1.375-1.375-0.40163-0.46541-0.86059-0.92247-1.375-1.375-0.45231-0.5385-0.99118-1.0724-1.5938-1.5938-0.43327-0.50207-0.93549-1.0129-1.5-1.5-0.0187-0.0216-0.0436-0.0409-0.0625-0.0625-0.0228-0.0194-0.0395-0.0431-0.0625-0.0625-0.4099-0.4617-0.85355-0.92604-1.375-1.375-0.40163-0.46541-0.86059-0.92247-1.375-1.375-0.45231-0.5385-0.99118-1.0724-1.5938-1.5938-0.42878-0.49687-0.94268-1.0178-1.5-1.5-0.43683-0.5062-0.92976-1.009-1.5-1.5-0.43683-0.5062-0.92976-1.009-1.5-1.5-0.42803-0.496-0.91263-0.98738-1.4688-1.4688-0.42878-0.49687-0.94268-1.0178-1.5-1.5-0.43683-0.5062-0.92976-1.009-1.5-1.5-0.43683-0.5062-0.92976-1.009-1.5-1.5-0.40163-0.46541-0.86059-0.92247-1.375-1.375-0.45231-0.5385-0.99118-1.0724-1.5938-1.5938-0.43683-0.5062-0.92976-1.009-1.5-1.5-0.43683-0.5062-0.92976-1.009-1.5-1.5-0.40163-0.46541-0.86059-0.92247-1.375-1.375-0.45231-0.5385-0.99118-1.0724-1.5938-1.5938-0.43327-0.50207-0.93549-1.0129-1.5-1.5-0.0187-0.0216-0.0436-0.0409-0.0625-0.0625-0.0228-0.0194-0.0395-0.0431-0.0625-0.0625-0.4099-0.4617-0.85354-0.92604-1.375-1.375-0.40163-0.46541-0.86059-0.92247-1.375-1.375-0.45231-0.5385-0.99118-1.0724-1.5938-1.5938-0.43327-0.50207-0.93549-1.0129-1.5-1.5-0.0187-0.0216-0.0436-0.0409-0.0625-0.0625-0.0228-0.0194-0.0395-0.0431-0.0625-0.0625-0.4099-0.4617-0.85354-0.92604-1.375-1.375-0.40163-0.46541-0.86059-0.92247-1.375-1.375-0.45231-0.5385-0.99118-1.0724-1.5938-1.5938-0.43258-0.50127-0.93659-1.0137-1.5-1.5-0.009-0.0108-0.0218-0.0204-0.0312-0.0312-0.0346-0.0298-0.0586-0.0641-0.0937-0.0937-0.4099-0.4617-0.85354-0.92604-1.375-1.375-0.43683-0.5062-0.92976-1.009-1.5-1.5-0.42803-0.496-0.91263-0.98738-1.4688-1.4688-0.42878-0.49687-0.94268-1.0178-1.5-1.5-0.43683-0.5062-0.92976-1.009-1.5-1.5-0.43683-0.5062-0.92976-1.009-1.5-1.5-0.40163-0.46541-0.86059-0.92247-1.375-1.375-0.45231-0.5385-0.99118-1.0724-1.5938-1.5938-0.43683-0.5062-0.92976-1.009-1.5-1.5-0.43683-0.5062-0.92976-1.009-1.5-1.5-0.40163-0.46541-0.86059-0.92247-1.375-1.375-0.45231-0.5385-0.99118-1.0724-1.5938-1.5938-0.43327-0.50207-0.93549-1.0129-1.5-1.5-0.0187-0.0216-0.0436-0.0409-0.0625-0.0625-0.0228-0.0194-0.0395-0.0431-0.0625-0.0625-0.4099-0.4617-0.85354-0.92604-1.375-1.375-0.40163-0.46541-0.86059-0.92247-1.375-1.375-0.45231-0.5385-0.99118-1.0724-1.5938-1.5938-0.43327-0.50207-0.93549-1.0129-1.5-1.5-0.0187-0.0216-0.0436-0.0409-0.0625-0.0625-0.0228-0.0194-0.0395-0.0431-0.0625-0.0625-0.4099-0.4617-0.85354-0.92604-1.375-1.375-0.40163-0.46541-0.86059-0.92247-1.375-1.375-0.45231-0.5385-0.99118-1.0724-1.5938-1.5938-0.43258-0.50127-0.93659-1.0137-1.5-1.5-0.009-0.0108-0.0218-0.0204-0.0312-0.0312-0.0346-0.0298-0.0586-0.0641-0.0937-0.0937-0.4099-0.4617-0.85354-0.92604-1.375-1.375-0.40163-0.46541-0.86059-0.92247-1.375-1.375-0.45231-0.5385-0.99118-1.0724-1.5938-1.5938-0.42878-0.49687-0.94268-1.0178-1.5-1.5-0.43683-0.5062-0.92976-1.009-1.5-1.5-0.43683-0.5062-0.92976-1.009-1.5-1.5-0.42803-0.496-0.91263-0.98738-1.4688-1.4688-0.42879-0.49687-0.94268-1.0178-1.5-1.5-0.43683-0.5062-0.92976-1.009-1.5-1.5-0.43683-0.5062-0.92976-1.009-1.5-1.5-0.40163-0.46541-0.86059-0.92247-1.375-1.375-0.45231-0.5385-0.99118-1.0724-1.5938-1.5938-0.43327-0.50207-0.93549-1.0129-1.5-1.5-0.0187-0.0216-0.0436-0.0409-0.0625-0.0625-0.0228-0.0194-0.0395-0.0431-0.0625-0.0625-0.4099-0.4617-0.85354-0.92604-1.375-1.375-0.40164-0.46541-0.86059-0.92247-1.375-1.375-0.45231-0.5385-0.99118-1.0724-1.5938-1.5938-0.43327-0.50207-0.93549-1.0129-1.5-1.5-0.0187-0.0216-0.0436-0.0409-0.0625-0.0625-0.0228-0.0194-0.0395-0.0431-0.0625-0.0625-0.4099-0.4617-0.85354-0.92604-1.375-1.375-0.40164-0.46541-0.86059-0.92247-1.375-1.375-0.45232-0.5385-0.99118-1.0724-1.5938-1.5938-0.43327-0.50207-0.93549-1.0129-1.5-1.5-0.0187-0.0216-0.0436-0.0409-0.0625-0.0625-0.0228-0.0194-0.0395-0.0431-0.0625-0.0625-0.4099-0.4617-0.85354-0.92604-1.375-1.375-0.40164-0.46541-0.86059-0.92247-1.375-1.375-0.45232-0.5385-0.99118-1.0724-1.5938-1.5938-0.42879-0.49687-0.94268-1.0178-1.5-1.5-0.43683-0.5062-0.92976-1.009-1.5-1.5-0.43684-0.5062-0.92976-1.009-1.5-1.5-0.42804-0.49601-0.91263-0.98737-1.4688-1.4688-0.42879-0.49687-0.94268-1.0178-1.5-1.5-0.43683-0.5062-0.92976-1.009-1.5-1.5-0.43684-0.5062-0.92976-1.009-1.5-1.5-3.2752-3.7953-10.288-7.155-21.062-10.094-12.314-3.6378-25.192-5.4688-38.625-5.4688z"/>
 <path id="path10" d="m256 1c-140.83 0-255 114.17-255 255s114.17 255 255 255 255-114.17 255-255-114.17-255-255-255m8.827 44.931c120.9 0 218.9 98 218.9 218.9s-98 218.9-218.9 218.9-218.93-98-218.93-218.9 98.03-218.9 218.93-218.9" fill-rule="evenodd" fill-opacity="0.067"/>
 <path id="path14" d="m256 4.43c-138.94 0-251.57 112.63-251.57 251.57s112.63 251.57 251.57 251.57 251.57-112.63 251.57-251.57-112.63-251.57-251.57-251.57m5.885 38.556c120.9 0 218.9 98 218.9 218.9s-98 218.9-218.9 218.9-218.93-98-218.93-218.9 98.03-218.9 218.93-218.9" fill-rule="evenodd" fill-opacity="0.129"/>
 <path id="path16" d="m256 8.36c-136.77 0-247.64 110.87-247.64 247.64s110.87 247.64 247.64 247.64 247.64-110.87 247.64-247.64-110.87-247.64-247.64-247.64m2.942 31.691c120.9 0 218.9 98 218.9 218.9s-98 218.9-218.9 218.9-218.93-98-218.93-218.9 98.03-218.9 218.93-218.9" fill-rule="evenodd" fill-opacity="0.129"/>
 <path id="path18" d="m253.04 7.86c-135.42 0-245.19 109.78-245.19 245.19 0 135.42 109.78 245.19 245.19 245.19 135.42 0 245.19-109.78 245.19-245.19 0-135.42-109.78-245.19-245.19-245.19zm0 26.297c120.9 0 218.9 98 218.9 218.9s-98 218.9-218.9 218.9-218.93-98-218.93-218.9 98.03-218.9 218.93-218.9z" stroke-opacity="0.31" fill-rule="evenodd" stroke="#000" stroke-width="4.904" fill="#fff"/>
 <path id="path4083" d="m369.09 217.59q-23.09 24.77-78.92 52.89-34.42 121.32-101.17 121.32-44.917 0-41.139-40.72 2.0989-23.508 31.064-44.497 20.569-14.693 65.486-34.842 5.0374-15.112 7.9759-28.126-33.583 35.682-69.684 35.262-24.767-0.42327-34.422-19.73-6.7166-14.273-5.0374-34.842 3.778-44.077 35.262-73.881 31.48-30.22 75.56-30.22 20.15 0 38.62 5.4567 18.47 5.0378 22.249 11.754-5.877 39.46-19.31 111.24 47.436-22.668 66.746-41.978l6.7166 10.914zm-114.6-42.82q0.41983-7.5563-2.9385-11.754-2.9385-4.6172-10.914-4.1974-16.791 0.83773-31.904 24.347-12.594 20.15-13.433 35.262-0.83958 15.531 13.853 15.531 14.692 0 29.805-22.248 14.273-20.569 15.532-36.941zm-22.668 123.84q-36.941 18.051-37.781 28.965-0.41975 5.8773 6.2968 5.8773 12.174 0 31.484-34.842z" fill="#fff"/>
</svg>
