<?xml version="1.0" encoding="UTF-8" standalone="no"?>
<svg xmlns="http://www.w3.org/2000/svg" xmlns:xlink="http://www.w3.org/1999/xlink" xmlns:sodipodi="http://sodipodi.sourceforge.net/DTD/sodipodi-0.dtd" xmlns:inkscape="http://www.inkscape.org/namespaces/inkscape" viewBox="0 0 512 512" version="1.1">
 <metadata id="metadata5281"/>
 <defs id="defs4">
  <path id="0" d="m159.54 226.66a55.226 55.226 0 1 1 -110.45 0 55.226 55.226 0 1 1 110.45 0"/>
 </defs>
 <path inkscape:connector-curvature="0" id="path5205" d="m 471.95,253.05 c 0,120.9 -98.01,218.91 -218.91,218.91 -120.9,0 -218.91,-98.01 -218.91,-218.91 0,-120.9 98.01,-218.91 218.91,-218.91 120.9,0 218.91,98.01 218.91,218.91" fill="#BF9E73" fill-rule="evenodd"/>
 <path inkscape:connector-curvature="0" id="path5207" d="m 178.5,116 c -34.518,0 -62.5,27.982 -62.5,62.5 0,34.518 27.982,62.5 62.5,62.5 l 92.5,92.5 c 0,1.471 0.07,2.925 0.17,4.371 L 224.645,291.346 C 213.217,278.843 196.775,271 178.505,271 c -34.518,0 -62.5,27.982 -62.5,62.5 0,16.244 6.197,31.04 16.355,42.15 1.167,1.276 2.398,2.49 3.666,3.666 l 91.11,91.11 c 8.499,1 17.14,1.533 25.912,1.533 43.38,0 83.81,-12.621 117.83,-34.389 l -41.74,-41.74 c 1.446,0.1 2.9,0.17 4.371,0.17 l 39.906,39.906 c 24.829,-16.377 46.12,-37.674 62.5,-62.5 l -39.902,-39.902 c 0,-1.464 -0.069,-2.912 -0.168,-4.352 l 41.729,41.729 c 21.766,-34.02 34.385,-74.45 34.385,-117.82 0,-8.786 -0.533,-17.448 -1.539,-25.963 l -90.96,-90.96 c -11.42,-12.376 -27.776,-20.13 -45.943,-20.13 -34.518,0 -62.5,27.982 -62.5,62.5 0,16.351 6.279,31.23 16.557,42.37 1.022,1.108 2.096,2.164 3.195,3.195 l 47.1,47.1 c -1.439,-0.099 -2.887,-0.168 -4.352,-0.168 l -92.5,-92.5 c 0,-34.518 -27.982,-62.5 -62.5,-62.5" opacity="0.25"/>
 <g id="g5209" fill-rule="evenodd">
  <path inkscape:connector-curvature="0" id="path5211" d="M 256,1 C 115.17,1 1,115.17 1,256 1,396.83 115.17,511 256,511 396.83,511 511,396.83 511,256 511,115.17 396.83,1 256,1 m 8.827,44.931 c 120.9,0 218.9,98 218.9,218.9 0,120.9 -98,218.9 -218.9,218.9 -120.9,0 -218.93,-98 -218.93,-218.9 0,-120.9 98.03,-218.9 218.93,-218.9" fill-opacity="0.067"/>
  <g id="g5213" fill-opacity="0.129">
   <path inkscape:connector-curvature="0" id="path5215" d="M 256,4.43 C 117.06,4.43 4.43,117.06 4.43,256 4.43,394.94 117.06,507.57 256,507.57 394.94,507.57 507.57,394.94 507.57,256 507.57,117.06 394.94,4.43 256,4.43 m 5.885,38.556 c 120.9,0 218.9,98 218.9,218.9 0,120.9 -98,218.9 -218.9,218.9 -120.9,0 -218.93,-98 -218.93,-218.9 0,-120.9 98.03,-218.9 218.93,-218.9"/>
   <path inkscape:connector-curvature="0" id="path5217" d="M 256,8.36 C 119.23,8.36 8.36,119.23 8.36,256 8.36,392.77 119.23,503.64 256,503.64 392.77,503.64 503.64,392.77 503.64,256 503.64,119.23 392.77,8.36 256,8.36 m 2.942,31.691 c 120.9,0 218.9,98 218.9,218.9 0,120.9 -98,218.9 -218.9,218.9 -120.9,0 -218.93,-98 -218.93,-218.9 0,-120.9 98.03,-218.9 218.93,-218.9"/>
  </g>
  <path inkscape:connector-curvature="0" id="path5219" d="M 253.04,7.86 C 117.62,7.86 7.85,117.64 7.85,253.05 c 0,135.42 109.78,245.19 245.19,245.19 135.42,0 245.19,-109.78 245.19,-245.19 C 498.23,117.63 388.45,7.86 253.04,7.86 m 0,26.297 c 120.9,0 218.9,98 218.9,218.9 0,120.9 -98,218.9 -218.9,218.9 -120.9,0 -218.93,-98 -218.93,-218.9 0,-120.9 98.03,-218.9 218.93,-218.9 z" stroke-opacity="0.31" fill="#ffffff" stroke="#000000" stroke-width="4.904"/>
 </g>
 <g id="g5267" fill="#ffffff">
  <use height="512" width="512" id="use5269" xlink:href="#0" transform="matrix(1.1317,0,0,1.1317,215.44,76.982)"/>
  <use height="512" width="512" id="use5271" xlink:href="#0" transform="matrix(1.1317,0,0,1.1317,60.44,-78.02)"/>
 </g>
 <g id="g5273" fill="#BF9E73">
  <use height="512" width="512" id="use5275" xlink:href="#0" transform="matrix(1.1317,0,0,1.1317,215.44,-78.02)"/>
  <use height="512" width="512" id="use5277" xlink:href="#0" transform="matrix(1.1317,0,0,1.1317,60.44,76.982)"/>
 </g>
</svg>
