<?xml version="1.0" encoding="UTF-8" standalone="no"?>
<svg xmlns="http://www.w3.org/2000/svg" xmlns:sodipodi="http://sodipodi.sourceforge.net/DTD/sodipodi-0.dtd" xmlns:inkscape="http://www.inkscape.org/namespaces/inkscape" version="1.1" viewBox="0 0 512 512">
 <metadata id="metadata4470"/>
 <path inkscape:connector-curvature="0" id="path4" d="m 322.44,45.38 -62.26,202.37 -0.06,-0.11 0.03,0.08 -0.01,0.01 L 106.99,89.99 c -11.663,10.46 -22.2,22.15 -31.404,34.87 l 184.55,122.87 -0.04,0.02 -225.72,-5.22 c -0.16,3.49 -0.249,6.99 -0.249,10.52 0,11.62 0.912,23.02 2.656,34.15 l 223.27,-39.42 -196.33,115.24 c 19.05,32.73 46.35,60.07 79.06,79.17 l 117.38,-194.43 0.01,0.01 0,0.01 0,-0.01 0.01,0 0.06,0.06 -0.02,-0.04 177.02,123.57 c 7.97,-12.38 14.72,-25.62 20.09,-39.55 l -197.13,-84.04 0,-0.01 209.26,38.29 c 1.63,-10.76 2.48,-21.78 2.48,-33 0,-21.76 -3.19,-42.77 -9.1,-62.61 l -202.64,57.3 152.71,-144.2 c -24.59,-26.28 -55.57,-46.5 -90.48,-58.16 z M 260.25,247.83 373.52,435.84 C 387,426.93 399.44,416.58 410.61,405 L 260.25,247.83 m -0.13,-0.19 -77.31,-201.99 c -9.58,3.244 -18.87,7.146 -27.81,11.633 l 105.12,190.36 z m 0.06,0.15 -43.21,221.19 c 10.42,1.73 21.08,2.73 31.94,2.93 l 11.27,-224.12" opacity="0.135" fill="#BF9E73"/>
 <g id="g4400" fill-rule="evenodd">
  <path inkscape:connector-curvature="0" id="path4402" d="m 471.95,253.05 c 0,120.9 -98.01,218.91 -218.91,218.91 -120.9,0 -218.91,-98.01 -218.91,-218.91 0,-120.9 98.01,-218.91 218.91,-218.91 120.9,0 218.91,98.01 218.91,218.91" fill="#BF9E73"/>
  <path inkscape:connector-curvature="0" id="path4404" d="M 256,1 C 115.17,1 1,115.17 1,256 1,396.83 115.17,511 256,511 396.83,511 511,396.83 511,256 511,115.17 396.83,1 256,1 m 8.827,44.931 c 120.9,0 218.9,98 218.9,218.9 0,120.9 -98,218.9 -218.9,218.9 -120.9,0 -218.93,-98 -218.93,-218.9 0,-120.9 98.03,-218.9 218.93,-218.9" fill-opacity="0.067"/>
  <g id="g4406" fill-opacity="0.129">
   <path inkscape:connector-curvature="0" id="path4408" d="M 256,4.43 C 117.06,4.43 4.43,117.06 4.43,256 4.43,394.94 117.06,507.57 256,507.57 394.94,507.57 507.57,394.94 507.57,256 507.57,117.06 394.94,4.43 256,4.43 m 5.885,38.556 c 120.9,0 218.9,98 218.9,218.9 0,120.9 -98,218.9 -218.9,218.9 -120.9,0 -218.93,-98 -218.93,-218.9 0,-120.9 98.03,-218.9 218.93,-218.9"/>
   <path inkscape:connector-curvature="0" id="path4410" d="M 256,8.36 C 119.23,8.36 8.36,119.23 8.36,256 8.36,392.77 119.23,503.64 256,503.64 392.77,503.64 503.64,392.77 503.64,256 503.64,119.23 392.77,8.36 256,8.36 m 2.942,31.691 c 120.9,0 218.9,98 218.9,218.9 0,120.9 -98,218.9 -218.9,218.9 -120.9,0 -218.93,-98 -218.93,-218.9 0,-120.9 98.03,-218.9 218.93,-218.9"/>
  </g>
  <path inkscape:connector-curvature="0" id="path4412" d="M 253.04,7.86 C 117.62,7.86 7.85,117.64 7.85,253.05 c 0,135.42 109.78,245.19 245.19,245.19 135.42,0 245.19,-109.78 245.19,-245.19 C 498.23,117.63 388.45,7.86 253.04,7.86 m 0,26.297 c 120.9,0 218.9,98 218.9,218.9 0,120.9 -98,218.9 -218.9,218.9 -120.9,0 -218.93,-98 -218.93,-218.9 0,-120.9 98.03,-218.9 218.93,-218.9 z" stroke-opacity="0.31" fill="#ffffff" stroke="#000000" stroke-width="4.904"/>
 </g>
 <path inkscape:connector-curvature="0" id="path4460" d="m 154.04,57.76 c -16.56,8.412 -31.9,18.873 -45.7,31.04 L 261.54,281.04 154.04,57.76 M 261.54,281.04 73.32,128.05 C 52.29,158.23 38.667,193.96 35.09,232.61 l 226.47,48.46 0,0.01 -0.05,0 -219.94,28.71 c 2.339,8.73 5.203,17.25 8.557,25.51 l 211.43,-54.22 0.01,0 -0.02,0.02 0.02,-0.01 0,0.01 0,-0.02 0.01,0 0.15,0.13 -0.13,-0.15 0.18,-0.06 -0.18,0.04 144.01,-184.96 c -12.77,-12.407 -27.04,-23.277 -42.53,-32.3 l -101.49,217.26 -0.01,0 -0.02,-0.02 0.01,0.04 -0.03,-0.02 z m 0.24,-0.04 208.83,-52.14 c -0.98,-8.99 -2.51,-17.81 -4.56,-26.44 L 261.78,281 m -0.05,0.21 123.45,146.37 c 6.77,-5.14 13.24,-10.65 19.36,-16.52 L 261.73,281.21 M 261.55,281.1 93.73,403.18 c 6.151,6.52 12.69,12.67 19.59,18.39 L 261.55,281.1" opacity="0.135" fill="#BF9E73"/>
 <path inkscape:connector-curvature="0" id="path4462" d="m 277.05,103.51 0.008,0.008 -42.11,0 215.95,215.95 8.05,8.05 c 8.06,-22.295 12.604,-46.27 12.963,-71.27 l -123.04,-123.04 c -4.243,-4.243 -10.977,-4.095 -15.293,0.221 l 44.99,44.99 c -0.002,0.002 -0.004,0.006 -0.006,0.008 l -44.99,-44.99 -11.08,11.08 -37.84,-37.84 c -1.958,-1.958 -4.64,-3.168 -7.598,-3.168 m -42.11,0.008 c -6,0 -10.859,4.978 -10.859,11.08 l 0,21.5 c -10.729,2.859 -20.979,7.176 -30.359,12.631 l -15.291,-15.291 c -2.157,-2.157 -4.741,-3.3 -7.533,-3.324 l -0.002,0 -0.004,-0.006 c -2.793,-0.024 -5.637,0.982 -7.758,3.104 l -0.002,-0.002 -29.92,29.92 0,0.002 c -4.242,4.243 -4.094,10.975 0.221,15.291 l 15.299,15.299 c -5.456,9.381 -9.774,19.632 -12.633,30.361 l 151.82,151.82 0,0.004 -151.83,-151.83 -21.498,0 c -6.1,0.004 -11.07,4.861 -11.07,10.859 l 215.95,215.95 8.06,8.06 c 50.605,-18.312 92.54,-54.739 117.95,-101.46 l -5.447,-5.447 0,-0.004 5.447,5.447 c 5.208,-9.577 9.716,-19.588 13.469,-29.961 l -8.05,-8.05 -42.41,-42.41 -173.54,-173.54 m -131.43,131.42 0,42.11 10.85,10.85 -0.01,0 -10.84,-10.84 c 0,2.958 1.21,5.638 3.168,7.596 l 37.838,37.838 -11.08,11.08 c -4.314,4.316 -4.461,11.05 -0.219,15.289 l 30.07,30.07 c -0.052,-0.05 -0.107,-0.092 -0.158,-0.143 l 93.13,93.13 c 24.991,-0.361 48.97,-4.901 71.26,-12.967 l -8.06,-8.06 -215.95,-215.95" opacity="0.25"/>
 <path inkscape:connector-curvature="0" id="path4464" d="m 234.94,103.52 c -6,0 -10.86,4.978 -10.86,11.08 l 0,21.499 c -10.73,2.859 -20.983,7.177 -30.364,12.633 l -15.293,-15.293 c -2.158,-2.158 -4.743,-3.301 -7.536,-3.325 -2.793,-0.024 -5.636,0.981 -7.757,3.103 l -29.921,29.921 c -4.243,4.243 -4.094,10.977 0.221,15.293 l 15.293,15.293 c -5.456,9.381 -9.774,19.634 -12.633,30.364 l -21.499,0 c -6.104,0 -11.08,4.859 -11.08,10.86 l 0,42.11 c 0,6 4.978,10.86 11.08,10.86 l 21.499,0 c 2.859,10.73 7.177,20.983 12.633,30.364 l -15.293,15.293 c -4.316,4.316 -4.465,11.05 -0.221,15.293 l 29.921,29.921 c 4.243,4.243 10.977,4.094 15.293,-0.222 l 15.293,-15.293 c 9.381,5.456 19.634,9.774 30.364,12.633 l 0,21.499 c 0,6.104 4.859,11.08 10.86,11.08 l 42.11,0 c 6,0 10.86,-4.978 10.86,-11.08 l 0,-21.499 c 10.73,-2.859 20.983,-7.177 30.364,-12.633 l 15.293,15.293 c 4.316,4.316 11.05,4.465 15.293,0.222 l 29.921,-29.921 c 4.243,-4.243 4.094,-10.977 -0.221,-15.293 l -15.293,-15.293 c 5.456,-9.381 9.774,-19.634 12.633,-30.364 l 21.499,0 c 6.104,0 11.08,-4.859 11.08,-10.86 l 0,-42.11 c 0,-6 -4.978,-10.86 -11.08,-10.86 l -21.499,0 c -2.859,-10.73 -7.177,-20.983 -12.633,-30.364 l 15.293,-15.293 c 4.316,-4.316 4.465,-11.05 0.221,-15.293 L 348.86,133.217 c -4.243,-4.243 -10.977,-4.094 -15.293,0.222 l -15.293,15.293 c -9.381,-5.456 -19.634,-9.774 -30.364,-12.633 l 0,-21.499 c 0,-6.104 -4.859,-11.08 -10.86,-11.08 l -42.11,0 M 256,209.9 c 25.447,0 46.1,20.653 46.1,46.1 0,25.447 -20.653,46.1 -46.1,46.1 -25.447,0 -46.1,-20.653 -46.1,-46.1 0,-25.447 20.653,-46.1 46.1,-46.1" fill="#ffffff"/>
</svg>
