<?xml version="1.0" encoding="UTF-8" standalone="no"?>
<svg xmlns="http://www.w3.org/2000/svg" xmlns:sodipodi="http://sodipodi.sourceforge.net/DTD/sodipodi-0.dtd" xmlns:inkscape="http://www.inkscape.org/namespaces/inkscape" version="1.1" viewBox="0 0 512 512">
 <metadata id="metadata5372"/>
 <path inkscape:connector-curvature="0" id="path5298" d="m 471.95,253.05 c 0,120.9 -98.01,218.91 -218.91,218.91 -120.9,0 -218.91,-98.01 -218.91,-218.91 0,-120.9 98.01,-218.91 218.91,-218.91 120.9,0 218.91,98.01 218.91,218.91" fill="#BF9E73" fill-rule="evenodd"/>
 <g id="g5300" fill="#BF9E73">
  <path inkscape:connector-curvature="0" id="path5302" d="m 253.03,34.16 c -120.9,0 -218.91,98.01 -218.91,218.91 0,1.154 0.013,2.287 0.031,3.438 l 221.34,0 0,-222.31 c -0.822,-0.009 -1.644,-0.031 -2.469,-0.031"/>
  <path inkscape:connector-curvature="0" id="path5304" d="m 255.5,478.81 0,-222.31 216.41,0 c 0.018,1.15 0.031,2.283 0.031,3.438 0,120.08 -96.68,217.55 -216.44,218.88"/>
 </g>
 <g id="g5306" fill-rule="evenodd">
  <path inkscape:connector-curvature="0" id="path5308" d="M 256,1 C 115.17,1 1,115.17 1,256 1,396.83 115.17,511 256,511 396.83,511 511,396.83 511,256 511,115.17 396.83,1 256,1 m 8.827,44.931 c 120.9,0 218.9,98 218.9,218.9 0,120.9 -98,218.9 -218.9,218.9 -120.9,0 -218.93,-98 -218.93,-218.9 0,-120.9 98.03,-218.9 218.93,-218.9" fill-opacity="0.067"/>
  <g id="g5310" fill-opacity="0.129">
   <path inkscape:connector-curvature="0" id="path5312" d="M 256,4.43 C 117.06,4.43 4.43,117.06 4.43,256 4.43,394.94 117.06,507.57 256,507.57 394.94,507.57 507.57,394.94 507.57,256 507.57,117.06 394.94,4.43 256,4.43 m 5.885,38.556 c 120.9,0 218.9,98 218.9,218.9 0,120.9 -98,218.9 -218.9,218.9 -120.9,0 -218.93,-98 -218.93,-218.9 0,-120.9 98.03,-218.9 218.93,-218.9"/>
   <path inkscape:connector-curvature="0" id="path5314" d="M 256,8.36 C 119.23,8.36 8.36,119.23 8.36,256 8.36,392.77 119.23,503.64 256,503.64 392.77,503.64 503.64,392.77 503.64,256 503.64,119.23 392.77,8.36 256,8.36 m 2.942,31.691 c 120.9,0 218.9,98 218.9,218.9 0,120.9 -98,218.9 -218.9,218.9 -120.9,0 -218.93,-98 -218.93,-218.9 0,-120.9 98.03,-218.9 218.93,-218.9"/>
  </g>
  <path inkscape:connector-curvature="0" id="path5316" d="M 253.04,7.86 C 117.62,7.86 7.85,117.64 7.85,253.05 c 0,135.42 109.78,245.19 245.19,245.19 135.42,0 245.19,-109.78 245.19,-245.19 C 498.23,117.63 388.45,7.86 253.04,7.86 m 0,26.297 c 120.9,0 218.9,98 218.9,218.9 0,120.9 -98,218.9 -218.9,218.9 -120.9,0 -218.93,-98 -218.93,-218.9 0,-120.9 98.03,-218.9 218.93,-218.9 z" stroke-opacity="0.31" fill="#ffffff" stroke="#000000" stroke-width="4.904"/>
 </g>
 <path inkscape:connector-curvature="0" id="path5364" d="m 145.7,123.74 c -12.164,0 -21.955,9.791 -21.955,21.955 l 0,72.57 c 0,6.082 2.448,11.571 6.416,15.539 l 37.969,37.969 -22.43,0 c -12.164,0 -21.955,9.793 -21.955,21.957 l 0,72.57 c 0,6.212 2.552,11.805 6.67,15.791 l 86.959,86.957 c 11.609,1.903 23.521,2.908 35.668,2.908 120.9,0 218.91,-98.01 218.91,-218.91 0,-12.161 -1.01,-24.08 -2.914,-35.705 l -87.31,-87.31 c -3.958,-3.895 -9.396,-6.291 -15.414,-6.291 l -72.57,0 c -12.164,0 -21.957,9.791 -21.957,21.955 l 0,22.43 -37.969,-37.969 c -3.968,-3.968 -9.457,-6.416 -15.539,-6.416 l -72.57,0" opacity="0.25"/>
 <path inkscape:connector-curvature="0" id="path5366" d="m 145.7,123.74 c -12.164,0 -21.955,9.791 -21.955,21.955 l 0,72.57 c 0,12.164 9.791,21.955 21.955,21.955 l 72.57,0 c 12.164,0 21.955,-9.791 21.955,-21.955 l 0,-72.57 c 0,-12.164 -9.791,-21.955 -21.955,-21.955 l -72.57,0 m 148.03,0 c -12.164,0 -21.955,9.791 -21.955,21.955 l 0,72.57 c 0,12.164 9.791,21.955 21.955,21.955 l 72.57,0 c 12.164,0 21.955,-9.791 21.955,-21.955 l 0,-72.57 c 0,-12.164 -9.791,-21.955 -21.955,-21.955 l -72.57,0 M 145.7,271.77 c -12.164,0 -21.955,9.791 -21.955,21.955 l 0,72.57 c 0,12.164 9.791,21.955 21.955,21.955 l 72.57,0 c 12.164,0 21.955,-9.791 21.955,-21.955 l 0,-72.57 c 0,-12.164 -9.791,-21.955 -21.955,-21.955 l -72.57,0 m 148.03,0 c -12.164,0 -21.955,9.791 -21.955,21.955 l 0,72.57 c 0,12.164 9.791,21.955 21.955,21.955 l 72.57,0 c 12.164,0 21.955,-9.791 21.955,-21.955 l 0,-72.57 c 0,-12.164 -9.791,-21.955 -21.955,-21.955 l -72.57,0" fill="#ffffff"/>
</svg>
