<?xml version="1.0" encoding="UTF-8" standalone="no"?>
<svg xmlns="http://www.w3.org/2000/svg" height="512" viewBox="0 0 512 512" width="512" version="1.1">
 <metadata id="metadata130"/>
 <path id="path4" d="m471.95 253.05c0 120.9-98.01 218.9-218.9 218.9-120.9 0-218.9-98.01-218.9-218.9 0-120.9 98.01-218.9 218.9-218.9 120.9 0 218.9 98.01 218.9 218.9" fill-rule="evenodd" fill="#BF9E73"/>
 <g id="g8" fill-rule="evenodd">
  <path id="path10" fill-opacity="0.235" d="m201.06 116.97c-6.358 0-11.469 5.142-11.469 11.5v57.28c0 3.381 1.44 6.405 3.75 8.5 0.352 0.409 0.75 0.769 1.156 1.125 0.298 0.333 0.634 0.641 0.969 0.938 0.311 0.352 0.648 0.689 1 1 0.296 0.335 0.604 0.671 0.938 0.969 0.356 0.406 0.716 0.804 1.125 1.156 0.251 0.277 0.505 0.53 0.781 0.781 0.343 0.398 0.731 0.746 1.125 1.094 0.321 0.362 0.667 0.712 1.031 1.031 0.298 0.333 0.634 0.641 0.969 0.938 0.296 0.335 0.604 0.671 0.938 0.969 0.356 0.406 0.716 0.804 1.125 1.156 0.283 0.312 0.59 0.596 0.906 0.875 0.279 0.316 0.563 0.623 0.875 0.906 0.352 0.409 0.75 0.769 1.156 1.125 0.298 0.333 0.634 0.641 0.969 0.938 0.311 0.352 0.648 0.689 1 1 0.296 0.335 0.604 0.671 0.938 0.969 0.356 0.406 0.716 0.804 1.125 1.156 0.251 0.277 0.505 0.53 0.781 0.781 0.352 0.409 0.75 0.769 1.156 1.125 0.298 0.333 0.634 0.641 0.969 0.938 0.311 0.352 0.648 0.689 1 1 0.296 0.335 0.604 0.671 0.938 0.969 0.356 0.406 0.716 0.804 1.125 1.156 0.251 0.277 0.505 0.53 0.781 0.781 0.343 0.398 0.731 0.746 1.125 1.094 0.321 0.362 0.667 0.712 1.031 1.031 0.298 0.333 0.634 0.641 0.969 0.938 0.296 0.335 0.604 0.671 0.938 0.969 0.356 0.406 0.716 0.804 1.125 1.156 0.283 0.312 0.59 0.596 0.906 0.875 0.279 0.316 0.563 0.623 0.875 0.906 0.352 0.409 0.75 0.769 1.156 1.125 0.298 0.333 0.634 0.641 0.969 0.938 0.277 0.313 0.566 0.625 0.875 0.906 0.064 0.074 0.122 0.147 0.188 0.219h-121.62v45.344h1.125v1h1.125v1h1.094l0.031 1h1.063l0.031 0.969 1.094-0.031 0.031 1.031 1.094-0.031 0.031 1.031 1.094-0.031 0.031 1.031 1.063-0.031 0.063 1.031 1.063-0.031 0.063 1.031 1.031-0.031 0.063 1 1.063-0.031 0.063 1.031 1.031-0.063 0.094 1.063 1.031-0.063 0.094 1.063 1.031-0.063 0.094 1.063 1.031-0.063 0.094 1.063 1.031-0.063 0.094 1.031 0.969-0.063 0.063 0.563h-36.34c-6.358 0-11.5 5.111-11.5 11.469v30.19c0 3.381 1.463 6.405 3.781 8.5 0.339 0.392 0.705 0.751 1.094 1.094 0.279 0.313 0.595 0.594 0.906 0.875 0.337 0.389 0.708 0.754 1.094 1.094 0.312 0.352 0.647 0.689 1 1 0.312 0.352 0.647 0.689 1 1 0.28 0.316 0.562 0.623 0.875 0.906 0.324 0.375 0.692 0.701 1.063 1.031 0.339 0.387 0.706 0.756 1.094 1.094 0.298 0.331 0.603 0.643 0.938 0.938 0.312 0.352 0.647 0.689 1 1 0.312 0.352 0.647 0.689 1 1 0.312 0.352 0.647 0.689 1 1 0.27 0.305 0.543 0.601 0.844 0.875 0.363 0.423 0.768 0.791 1.188 1.156 0.298 0.331 0.603 0.643 0.938 0.938 0.312 0.352 0.647 0.689 1 1 0.312 0.352 0.647 0.689 1 1 0.312 0.352 0.647 0.689 1 1 0.28 0.316 0.562 0.623 0.875 0.906 0.339 0.392 0.705 0.751 1.094 1.094 0.31 0.349 0.649 0.66 1 0.969 0.312 0.352 0.647 0.689 1 1 0.312 0.352 0.647 0.689 1 1 0.312 0.352 0.647 0.689 1 1 0.28 0.316 0.562 0.623 0.875 0.906 0.339 0.392 0.705 0.751 1.094 1.094 0.307 0.345 0.653 0.663 1 0.969 0.315 0.356 0.644 0.686 1 1 0.312 0.352 0.647 0.689 1 1 0.312 0.352 0.647 0.689 1 1 0.312 0.352 0.647 0.689 1 1 0.27 0.305 0.543 0.601 0.844 0.875 0.363 0.423 0.768 0.791 1.188 1.156 0.298 0.331 0.603 0.643 0.938 0.938 0.312 0.352 0.647 0.689 1 1 0.312 0.352 0.647 0.689 1 1 0.312 0.352 0.647 0.689 1 1 0.27 0.305 0.543 0.601 0.844 0.875 0.363 0.423 0.768 0.791 1.188 1.156 0.298 0.331 0.603 0.643 0.938 0.938 0.312 0.352 0.647 0.689 1 1 0.312 0.352 0.647 0.689 1 1 0.312 0.352 0.647 0.689 1 1 0.28 0.316 0.562 0.623 0.875 0.906 0.339 0.392 0.705 0.751 1.094 1.094 0.279 0.313 0.595 0.594 0.906 0.875 0.337 0.389 0.708 0.754 1.094 1.094 0.312 0.352 0.647 0.689 1 1 0.312 0.352 0.647 0.689 1 1 0.28 0.316 0.562 0.623 0.875 0.906 0.324 0.375 0.692 0.701 1.063 1.031 0.339 0.387 0.706 0.756 1.094 1.094 0.298 0.331 0.603 0.643 0.938 0.938 0.312 0.352 0.647 0.689 1 1 0.312 0.352 0.647 0.689 1 1 0.312 0.352 0.647 0.689 1 1 0.27 0.305 0.543 0.601 0.844 0.875 0.363 0.423 0.768 0.791 1.188 1.156 0.298 0.331 0.603 0.643 0.938 0.938 0.312 0.352 0.647 0.689 1 1 0.312 0.352 0.647 0.689 1 1 0.312 0.352 0.647 0.689 1 1 0.28 0.316 0.562 0.623 0.875 0.906 0.339 0.392 0.705 0.751 1.094 1.094 0.31 0.349 0.649 0.66 1 0.969 0.312 0.352 0.647 0.689 1 1 0.312 0.352 0.647 0.689 1 1 0.312 0.352 0.647 0.689 1 1 0.28 0.316 0.562 0.623 0.875 0.906 0.339 0.392 0.705 0.751 1.094 1.094 0.307 0.345 0.653 0.663 1 0.969 0.315 0.356 0.644 0.686 1 1 0.312 0.352 0.647 0.689 1 1 0.312 0.352 0.647 0.689 1 1 0.312 0.352 0.647 0.689 1 1 0.27 0.305 0.543 0.601 0.844 0.875 0.363 0.423 0.768 0.791 1.188 1.156 0.298 0.331 0.603 0.643 0.938 0.938 0.312 0.352 0.647 0.689 1 1 0.312 0.352 0.647 0.689 1 1 0.312 0.352 0.647 0.689 1 1 0.27 0.305 0.543 0.601 0.844 0.875 0.363 0.423 0.768 0.791 1.188 1.156 0.298 0.331 0.603 0.643 0.938 0.938 0.312 0.352 0.647 0.689 1 1 0.312 0.352 0.647 0.689 1 1 0.312 0.352 0.647 0.689 1 1 0.28 0.316 0.562 0.623 0.875 0.906 0.339 0.392 0.705 0.751 1.094 1.094 0.279 0.313 0.595 0.594 0.906 0.875 0.337 0.389 0.708 0.754 1.094 1.094 0.312 0.352 0.647 0.689 1 1 0.312 0.352 0.647 0.689 1 1 0.28 0.316 0.562 0.623 0.875 0.906 0.324 0.375 0.692 0.701 1.063 1.031 0.339 0.387 0.706 0.756 1.094 1.094 0.298 0.331 0.603 0.643 0.938 0.938 0.312 0.352 0.647 0.689 1 1 0.312 0.352 0.647 0.689 1 1 0.312 0.352 0.647 0.689 1 1 0.27 0.305 0.543 0.601 0.844 0.875 0.363 0.423 0.768 0.791 1.188 1.156 0.298 0.331 0.603 0.643 0.938 0.938 0.312 0.352 0.647 0.689 1 1 0.312 0.352 0.647 0.689 1 1 0.312 0.352 0.647 0.689 1 1 0.28 0.316 0.562 0.623 0.875 0.906 0.339 0.392 0.705 0.751 1.094 1.094 0.31 0.349 0.649 0.66 1 0.969 0.312 0.352 0.647 0.689 1 1 0.312 0.352 0.647 0.689 1 1 0.312 0.352 0.647 0.689 1 1 0.28 0.316 0.562 0.623 0.875 0.906 0.339 0.392 0.705 0.751 1.094 1.094 0.279 0.313 0.595 0.594 0.906 0.875 0.337 0.389 0.708 0.754 1.094 1.094 0.312 0.352 0.647 0.689 1 1 0.312 0.352 0.647 0.689 1 1 0.28 0.316 0.562 0.623 0.875 0.906 0.324 0.375 0.692 0.701 1.063 1.031 0.339 0.387 0.706 0.756 1.094 1.094 0.298 0.331 0.603 0.643 0.938 0.938 0.312 0.352 0.647 0.689 1 1 0.312 0.352 0.647 0.689 1 1 0.312 0.352 0.647 0.689 1 1 0.27 0.305 0.543 0.601 0.844 0.875 0.215 0.25 0.449 0.465 0.688 0.688 14.637 3.085 29.789 4.75 45.34 4.75 27.803 0 54.41-5.203 78.875-14.656v-1.156c0.246 0.302 0.519 0.588 0.813 0.844 75.77-29.624 130.99-100.25 138.38-184.59-0.103-0.102-0.203-0.216-0.313-0.313-0.343-0.389-0.702-0.755-1.094-1.094-0.283-0.313-0.59-0.595-0.906-0.875-0.311-0.353-0.648-0.688-1-1-0.311-0.353-0.648-0.688-1-1-0.311-0.353-0.648-0.688-1-1-0.294-0.334-0.607-0.64-0.938-0.938-0.366-0.42-0.734-0.825-1.156-1.188-0.274-0.301-0.57-0.573-0.875-0.844-0.311-0.353-0.648-0.688-1-1-0.311-0.353-0.648-0.688-1-1-0.311-0.353-0.648-0.688-1-1-0.294-0.334-0.607-0.64-0.938-0.938-0.338-0.388-0.707-0.755-1.094-1.094-0.33-0.37-0.656-0.738-1.031-1.063-0.283-0.313-0.59-0.595-0.906-0.875-0.311-0.353-0.648-0.688-1-1-0.311-0.353-0.648-0.688-1-1-0.311-0.353-0.648-0.688-1-1-0.309-0.351-0.62-0.69-0.969-1-0.343-0.389-0.702-0.755-1.094-1.094-0.283-0.313-0.59-0.595-0.906-0.875-0.311-0.353-0.648-0.688-1-1-0.311-0.353-0.648-0.688-1-1-0.311-0.353-0.648-0.688-1-1-0.294-0.334-0.607-0.64-0.938-0.938-0.366-0.42-0.734-0.825-1.156-1.188-0.274-0.301-0.57-0.573-0.875-0.844-0.311-0.353-0.648-0.688-1-1-0.311-0.353-0.648-0.688-1-1-0.311-0.353-0.648-0.688-1-1-0.294-0.334-0.607-0.64-0.938-0.938-0.338-0.388-0.707-0.755-1.094-1.094-0.33-0.37-0.656-0.738-1.031-1.063-0.283-0.313-0.59-0.595-0.906-0.875-0.311-0.353-0.648-0.688-1-1-0.311-0.353-0.648-0.688-1-1-0.34-0.386-0.705-0.757-1.094-1.094-0.281-0.311-0.562-0.628-0.875-0.906-0.343-0.389-0.702-0.755-1.094-1.094-0.283-0.313-0.59-0.595-0.906-0.875-0.311-0.353-0.648-0.688-1-1-0.311-0.353-0.648-0.688-1-1-0.311-0.353-0.648-0.688-1-1-0.309-0.351-0.62-0.69-0.969-1-0.343-0.389-0.702-0.755-1.094-1.094-0.283-0.313-0.59-0.595-0.906-0.875-0.311-0.353-0.648-0.688-1-1-0.311-0.353-0.648-0.688-1-1-0.311-0.353-0.648-0.688-1-1-0.294-0.334-0.607-0.64-0.938-0.938-0.366-0.42-0.734-0.825-1.156-1.188-0.274-0.301-0.57-0.573-0.875-0.844-0.311-0.353-0.648-0.688-1-1-0.311-0.353-0.648-0.688-1-1-0.311-0.353-0.648-0.688-1-1-0.294-0.334-0.607-0.64-0.938-0.938-0.338-0.388-0.707-0.755-1.094-1.094-0.33-0.37-0.656-0.738-1.031-1.063-0.283-0.313-0.59-0.595-0.906-0.875-0.311-0.353-0.648-0.688-1-1-0.311-0.353-0.648-0.688-1-1-0.311-0.353-0.648-0.688-1-1-0.309-0.351-0.62-0.69-0.969-1-0.343-0.389-0.702-0.755-1.094-1.094-0.283-0.313-0.59-0.595-0.906-0.875-0.311-0.353-0.648-0.688-1-1-0.311-0.353-0.648-0.688-1-1-0.311-0.353-0.648-0.688-1-1-0.294-0.334-0.607-0.64-0.938-0.938-0.366-0.42-0.734-0.825-1.156-1.188-0.274-0.301-0.57-0.573-0.875-0.844-0.311-0.353-0.648-0.688-1-1-0.311-0.353-0.648-0.688-1-1-0.311-0.353-0.648-0.688-1-1-0.294-0.334-0.607-0.64-0.938-0.938-0.366-0.42-0.734-0.825-1.156-1.188-0.309-0.339-0.622-0.669-0.969-0.969-0.283-0.313-0.59-0.595-0.906-0.875-0.311-0.353-0.648-0.688-1-1-0.311-0.353-0.648-0.688-1-1-0.34-0.386-0.705-0.757-1.094-1.094-0.281-0.311-0.562-0.628-0.875-0.906-0.343-0.389-0.702-0.755-1.094-1.094-0.283-0.313-0.59-0.595-0.906-0.875-0.311-0.353-0.648-0.688-1-1-0.311-0.353-0.648-0.688-1-1-0.311-0.353-0.648-0.688-1-1-0.309-0.351-0.62-0.69-0.969-1-0.343-0.389-0.702-0.755-1.094-1.094-0.283-0.313-0.59-0.595-0.906-0.875-0.311-0.353-0.648-0.688-1-1-0.311-0.353-0.648-0.688-1-1-0.311-0.353-0.648-0.688-1-1-0.294-0.334-0.607-0.64-0.938-0.938-0.366-0.42-0.734-0.825-1.156-1.188-0.274-0.301-0.57-0.573-0.875-0.844-0.311-0.353-0.648-0.688-1-1-0.311-0.353-0.648-0.688-1-1-0.311-0.353-0.648-0.688-1-1-0.294-0.334-0.607-0.64-0.938-0.938-0.338-0.388-0.707-0.755-1.094-1.094-0.33-0.37-0.656-0.738-1.031-1.063-0.283-0.313-0.59-0.595-0.906-0.875-0.311-0.353-0.648-0.688-1-1-0.311-0.353-0.648-0.688-1-1-0.34-0.386-0.705-0.757-1.094-1.094-0.281-0.311-0.562-0.628-0.875-0.906-0.343-0.389-0.702-0.755-1.094-1.094-0.283-0.313-0.59-0.595-0.906-0.875-0.311-0.353-0.648-0.688-1-1-0.311-0.353-0.648-0.688-1-1-0.311-0.353-0.648-0.688-1-1-0.294-0.334-0.607-0.64-0.938-0.938-0.366-0.42-0.734-0.825-1.156-1.188-0.274-0.301-0.57-0.573-0.875-0.844-0.311-0.353-0.648-0.688-1-1-0.311-0.353-0.648-0.688-1-1-0.311-0.353-0.648-0.688-1-1-0.294-0.334-0.607-0.64-0.938-0.938-0.366-0.42-0.734-0.825-1.156-1.188-0.274-0.301-0.57-0.573-0.875-0.844-0.311-0.353-0.648-0.688-1-1-0.311-0.353-0.648-0.688-1-1-0.311-0.353-0.648-0.688-1-1-0.314-0.356-0.644-0.685-1-1-0.306-0.347-0.623-0.693-0.969-1-0.343-0.388-0.702-0.755-1.094-1.094-0.283-0.313-0.59-0.595-0.906-0.875-0.311-0.353-0.648-0.688-1-1-0.311-0.353-0.648-0.688-1-1-0.311-0.353-0.648-0.688-1-1-0.309-0.351-0.62-0.69-0.969-1-0.343-0.388-0.702-0.755-1.094-1.094-0.283-0.313-0.59-0.595-0.906-0.875-0.311-0.353-0.648-0.688-1-1-0.311-0.353-0.648-0.688-1-1-0.311-0.353-0.648-0.688-1-1-0.294-0.334-0.607-0.64-0.938-0.938-0.366-0.42-0.734-0.825-1.156-1.188-0.274-0.301-0.57-0.573-0.875-0.844-0.311-0.353-0.648-0.688-1-1-0.311-0.353-0.648-0.688-1-1-0.311-0.353-0.648-0.688-1-1-0.294-0.334-0.607-0.64-0.938-0.938-0.338-0.388-0.707-0.755-1.094-1.094-0.33-0.37-0.656-0.738-1.031-1.063-0.283-0.313-0.59-0.595-0.906-0.875-0.311-0.353-0.648-0.688-1-1-0.311-0.353-0.648-0.688-1-1-0.34-0.386-0.705-0.757-1.094-1.094-0.281-0.311-0.562-0.628-0.875-0.906-0.343-0.388-0.702-0.755-1.094-1.094-2.095-2.318-5.119-3.781-8.5-3.781h-109.87"/>
  <path id="path12" fill-opacity="0.067" d="m256 1c-140.83 0-255 114.17-255 255s114.17 255 255 255 255-114.17 255-255-114.17-255-255-255m8.827 44.931c120.9 0 218.9 98 218.9 218.9s-98 218.9-218.9 218.9-218.93-98-218.93-218.9 98.03-218.9 218.93-218.9"/>
  <g id="g14" fill-opacity="0.129">
   <path id="path16" d="m256 4.433c-138.94 0-251.57 112.63-251.57 251.57s112.63 251.57 251.57 251.57 251.57-112.63 251.57-251.57-112.63-251.57-251.57-251.57m5.885 38.556c120.9 0 218.9 98 218.9 218.9s-98 218.9-218.9 218.9-218.93-98-218.93-218.9 98.03-218.9 218.93-218.9"/>
   <path id="path18" d="m256 8.356c-136.77 0-247.64 110.87-247.64 247.64s110.87 247.64 247.64 247.64 247.64-110.87 247.64-247.64-110.87-247.64-247.64-247.64m2.942 31.691c120.9 0 218.9 98 218.9 218.9s-98 218.9-218.9 218.9-218.93-98-218.93-218.9 98.03-218.9 218.93-218.9"/>
  </g>
  <path id="path20" d="m253.04 7.859c-135.42 0-245.19 109.78-245.19 245.19 0 135.42 109.78 245.19 245.19 245.19 135.42 0 245.19-109.78 245.19-245.19 0-135.42-109.78-245.19-245.19-245.19zm0 26.297c120.9 0 218.9 98 218.9 218.9s-98 218.9-218.9 218.9-218.93-98-218.93-218.9 98.03-218.9 218.93-218.9z" stroke-opacity="0.31" stroke="#000" stroke-width="4.904" fill="#fff"/>
 </g>
 <g id="g68" fill="#fff" transform="matrix(1.6204 0 0 1.6204 -869.87 -245.85)" fill-rule="evenodd">
  <rect id="rect70" rx="7.082" height="49.52" width="81.977" y="223.91" x="653.81"/>
  <path id="path72" d="m686.81 282.31v10.906h-84.12v27.968h15.531v-13.156h68.59v14.09h15.531v-14.09h68.34v14.375h15.531v-29.187h-83.87v-10.9h-15.531"/>
  <rect id="rect74" rx="7.082" height="32.791" width="53.871" y="331.32" x="750.85"/>
  <rect id="rect76" rx="7.082" height="32.791" width="53.871" y="331.32" x="584.88"/>
  <rect id="rect78" rx="7.082" height="32.791" width="53.871" y="331.32" x="667.09"/>
 </g>
</svg>
