<?xml version="1.0" encoding="UTF-8" standalone="no"?>
<svg
   xmlns:dc="http://purl.org/dc/elements/1.1/"
   xmlns:cc="http://creativecommons.org/ns#"
   xmlns:rdf="http://www.w3.org/1999/02/22-rdf-syntax-ns#"
   xmlns:svg="http://www.w3.org/2000/svg"
   xmlns="http://www.w3.org/2000/svg"
   xmlns:sodipodi="http://sodipodi.sourceforge.net/DTD/sodipodi-0.dtd"
   xmlns:inkscape="http://www.inkscape.org/namespaces/inkscape"
   height="512"
   viewBox="0 0 512 512"
   width="512"
   version="1.1"
   id="svg2"
   inkscape:version="0.91 r13725"
   sodipodi:docname="gnome-twitch.svg">
  <defs
     id="defs17">
    <linearGradient
       id="linearGradient3764"
       x1="1"
       x2="47"
       gradientUnits="userSpaceOnUse"
       gradientTransform="matrix(0,-1,1,0,-1.5e-6,47.999998)">
      <stop
         style="stop-color:#7ac0d2;stop-opacity:1"
         id="stop7" />
      <stop
         offset="1"
         style="stop-color:#88c7d8;stop-opacity:1"
         id="stop9" />
    </linearGradient>
  </defs>
  <sodipodi:namedview
     pagecolor="#ffffff"
     bordercolor="#666666"
     borderopacity="1"
     objecttolerance="10"
     gridtolerance="10"
     guidetolerance="10"
     inkscape:pageopacity="0"
     inkscape:pageshadow="2"
     inkscape:window-width="1920"
     inkscape:window-height="1019"
     id="namedview15"
     showgrid="false"
     inkscape:zoom="2.052414"
     inkscape:cx="346.05132"
     inkscape:cy="231.47439"
     inkscape:window-x="0"
     inkscape:window-y="13"
     inkscape:window-maximized="1"
     inkscape:current-layer="svg2" />
  <metadata
     id="metadata28">
    <rdf:RDF>
      <cc:Work
         rdf:about="">
        <dc:format>image/svg+xml</dc:format>
        <dc:type
           rdf:resource="http://purl.org/dc/dcmitype/StillImage" />
        <dc:title></dc:title>
      </cc:Work>
    </rdf:RDF>
  </metadata>
  <path
     style="fill:#BF9E73;fill-rule:evenodd;fill-opacity:1"
     inkscape:connector-curvature="0"
     d="m 471.95,253.05 c 0,120.9 -98.01,218.9 -218.9,218.9 -120.9,0 -218.9,-98.01 -218.9,-218.9 0,-120.9 98.01,-218.9 218.9,-218.9 120.9,0 218.9,98.01 218.9,218.9"
     id="path6" />
  <path
     style="fill-opacity:0.06700003;fill-rule:evenodd"
     inkscape:connector-curvature="0"
     d="M 256,1 C 115.17,1 1,115.17 1,256 1,396.83 115.17,511 256,511 396.83,511 511,396.83 511,256 511,115.17 396.83,1 256,1 m 8.827,44.931 c 120.9,0 218.9,98 218.9,218.9 0,120.9 -98,218.9 -218.9,218.9 -120.9,0 -218.93,-98 -218.93,-218.9 0,-120.9 98.03,-218.9 218.93,-218.9"
     id="path8" />
  <g
     style="fill-opacity:0.12900002;fill-rule:evenodd"
     id="g10">
    <path
       inkscape:connector-curvature="0"
       d="m 256,4.433 c -138.94,0 -251.57,112.63 -251.57,251.57 0,138.94 112.63,251.57 251.57,251.57 138.94,0 251.57,-112.63 251.57,-251.57 C 507.57,117.063 394.94,4.433 256,4.433 m 5.885,38.556 c 120.9,0 218.9,98 218.9,218.9 0,120.9 -98,218.9 -218.9,218.9 -120.9,0 -218.93,-98 -218.93,-218.9 0,-120.9 98.03,-218.9 218.93,-218.9"
       id="path12" />
    <path
       inkscape:connector-curvature="0"
       d="m 256,8.356 c -136.77,0 -247.64,110.87 -247.64,247.64 0,136.77 110.87,247.64 247.64,247.64 136.77,0 247.64,-110.87 247.64,-247.64 C 503.64,119.226 392.77,8.356 256,8.356 m 2.942,31.691 c 120.9,0 218.9,98 218.9,218.9 0,120.9 -98,218.9 -218.9,218.9 -120.9,0 -218.93,-98 -218.93,-218.9 0,-120.9 98.03,-218.9 218.93,-218.9"
       id="path14" />
  </g>
  <path
     style="opacity:0.25;fill:#000000;fill-opacity:1;fill-rule:evenodd;stroke:none;stroke-width:1px;stroke-linecap:butt;stroke-linejoin:miter;stroke-opacity:1"
     d="m 392.63604,119.40217 77.62966,69.11982 c 19.13779,71.4343 -11.42849,152.78156 -55.45828,213.23019 -29.69601,28.89232 -65.89036,48.68696 -104.73543,64.7706 L 119.37771,350.50417 146.07836,149.5603 166.74982,124.75454 Z"
     id="path4178"
     inkscape:connector-curvature="0"
     sodipodi:nodetypes="cccccccc" />
  <path
     style="fill:#ffffff;fill-rule:evenodd;stroke:#000000;stroke-width:4.90399981;stroke-opacity:0.31000001"
     inkscape:connector-curvature="0"
     d="m 253.04,7.859 c -135.42,0 -245.19,109.78 -245.19,245.19 0,135.42 109.78,245.19 245.19,245.19 135.42,0 245.19,-109.78 245.19,-245.19 0,-135.42 -109.78,-245.19 -245.19,-245.19 z m 0,26.297 c 120.9,0 218.9,98 218.9,218.9 0,120.9 -98,218.9 -218.9,218.9 -120.9,0 -218.93,-98 -218.93,-218.9 0,-120.9 98.03,-218.9 218.93,-218.9 z"
     id="path16" />
  <g
     id="g4174"
     transform="matrix(1.6766895,0,0,1.6766895,-124.89806,-181.25816)">
    <path
       id="path29"
       style="opacity:1;fill:#ffffff;fill-opacity:1;stroke:none"
       d="m 158.24402,179.32545 -12.53249,31.33121 0,106.52613 43.8637,0 0,25.06497 25.06497,0 25.06497,-25.06497 25.06497,0 43.8637,-43.8637 0,-93.99364 -150.38982,0 z m 12.53248,12.53248 125.32486,0 0,81.46116 -25.06497,25.06497 -43.8637,0 -18.79873,18.79873 0,-18.79873 -37.59746,0 0,-106.52613 z"
       inkscape:connector-curvature="0" />
    <path
       id="path31"
       style="opacity:1;fill:#ffffff;fill-opacity:1;stroke:none"
       d="m 226.0197,198.12417 c -5.78374,0.006 -12.31317,1.56656 -19.27496,4.90647 -19.52562,9.36803 -20.00812,28.76832 -17.16951,70.28845 0.67049,8.8166 -4.27358,15.36482 -11.56748,25.06497 l 5.30124,6.26624 5.8276,-6.26624 c 0.83341,-1.61669 1.76708,-3.18952 2.82608,-4.69968 4.15452,-5.85267 4.19838,-6.17225 4.19838,-10.05732 0.12533,-7.22498 0.34465,-10.30171 2.81355,-12.94606 -1.27205,-1.56656 -2.79475,-3.27098 -2.85115,-5.16339 -0.13785,-3.33364 2.0616,-5.02552 4.98167,-7.2563 -2.36864,-2.66942 -5.26365,-5.72735 -5.26365,-11.8808 0,-7.77641 3.75975,-14.09905 8.52836,-14.09905 4.76861,0 10.7842,5.26991 10.7842,13.04632 0,1.63549 -0.40104,3.26471 -0.88354,4.83127 3.22712,-0.65169 6.81141,-1.04019 10.4521,-0.3697 -0.34465,-1.35351 -0.51384,-2.74462 -0.51384,-4.14826 -0.006,-8.47822 6.14092,-16.19823 13.71681,-16.1857 7.56962,0.0125 13.70427,7.72001 13.69801,16.1857 0,4.70595 -1.94254,9.13618 -5.25111,12.04372 2.55662,1.15926 4.3989,2.68195 4.21091,5.20098 -0.20052,2.94514 -1.5415,6.22238 -2.57543,7.93307 1.93627,2.38117 2.75715,5.85267 6.82394,11.84319 3.69082,5.31378 4.82501,9.71268 6.9994,15.72827 l 12.96485,3.13313 8.52836,-15.42123 c -5.23858,-7.25004 -9.48083,-14.85726 -11.59255,-25.59133 -4.61822,-23.49215 2.48143,-29.88998 -12.65781,-49.70384 -8.00826,-10.48343 -22.97831,-12.70168 -33.05443,-12.67661 m 11.44216,41.48879 c -3.9352,0.006 -7.11219,3.64696 -7.11219,8.13985 0,1.76708 0.5013,3.48403 1.43497,4.89394 1.26578,0.73315 2.46264,1.32218 3.80361,1.69815 1.30965,0.39477 2.63182,0.80208 4.0292,1.16552 2.97019,-1.06526 4.98793,-4.21091 4.99419,-7.75761 0,-4.49916 -3.20205,-8.14611 -7.14978,-8.13985 z m -32.79752,0.40104 0,0.0125 c -0.18172,-0.006 -0.3697,0 -0.55143,0.0125 -2.9326,0.30078 -4.91273,4.17958 -4.43023,8.65368 0.36971,3.39004 2.07413,6.26624 4.28611,7.21871 1.71695,-1.4475 3.92893,-3.35244 6.12212,-4.50543 0.27571,-1.20312 0.35091,-2.51903 0.20679,-3.82867 -0.44491,-4.16705 -2.86994,-7.43177 -5.62709,-7.56336 z"
       inkscape:connector-curvature="0" />
  </g>
</svg>
