<?xml version="1.0" encoding="UTF-8" standalone="no"?>
<svg
   xmlns:dc="http://purl.org/dc/elements/1.1/"
   xmlns:cc="http://creativecommons.org/ns#"
   xmlns:rdf="http://www.w3.org/1999/02/22-rdf-syntax-ns#"
   xmlns:svg="http://www.w3.org/2000/svg"
   xmlns="http://www.w3.org/2000/svg"
   xmlns:sodipodi="http://sodipodi.sourceforge.net/DTD/sodipodi-0.dtd"
   xmlns:inkscape="http://www.inkscape.org/namespaces/inkscape"
   height="512"
   viewBox="0 0 512 512"
   width="512"
   version="1.1"
   id="svg2"
   inkscape:version="0.91 r13725"
   sodipodi:docname="gnome-tweak-tool.svg">
  <defs
     id="defs16" />
  <sodipodi:namedview
     pagecolor="#ffffff"
     bordercolor="#666666"
     borderopacity="1"
     objecttolerance="10"
     gridtolerance="10"
     guidetolerance="10"
     inkscape:pageopacity="0"
     inkscape:pageshadow="2"
     inkscape:window-width="1680"
     inkscape:window-height="1021"
     id="namedview14"
     showgrid="false"
     inkscape:zoom="1.5268555"
     inkscape:cx="256"
     inkscape:cy="256"
     inkscape:window-x="1920"
     inkscape:window-y="0"
     inkscape:window-maximized="1"
     inkscape:current-layer="svg2" />
  <metadata
     id="metadata72">
    <rdf:RDF>
      <cc:Work
         rdf:about="">
        <dc:format>image/svg+xml</dc:format>
        <dc:type
           rdf:resource="http://purl.org/dc/dcmitype/StillImage" />
      </cc:Work>
    </rdf:RDF>
  </metadata>
  <path
     id="path4"
     d="m471.95 253.05c0 120.9-98.01 218.9-218.9 218.9-120.9 0-218.9-98.01-218.9-218.9 0-120.9 98.01-218.9 218.9-218.9 120.9 0 218.9 98.01 218.9 218.9"
     fill-rule="evenodd"
     fill="#BF9E73" />
  <path
     id="path6"
     fill-opacity="0.235"
     d="m171.94 177.06c-40.876 0-73.78 32.937-73.78 73.813v10.25c0 20.845 8.567 39.631 22.375 53.03 0.062 0.063 0.125 0.125 0.188 0.188 0.154 0.148 0.314 0.291 0.469 0.438 0.32 0.327 0.643 0.648 0.969 0.969 0.257 0.263 0.52 0.522 0.781 0.781 0.421 0.434 0.819 0.889 1.25 1.313 0.33 0.337 0.664 0.67 1 1 0.428 0.437 0.874 0.855 1.313 1.281 0.253 0.255 0.524 0.499 0.781 0.75 0.263 0.268 0.514 0.549 0.781 0.813 0.272 0.279 0.567 0.538 0.844 0.813 0.421 0.434 0.819 0.889 1.25 1.313 0.33 0.337 0.664 0.67 1 1 0.428 0.437 0.874 0.855 1.313 1.281 0.253 0.255 0.524 0.499 0.781 0.75 0.289 0.294 0.581 0.586 0.875 0.875 0.242 0.248 0.473 0.506 0.719 0.75 0.426 0.439 0.845 0.884 1.281 1.313 0.33 0.337 0.664 0.67 1 1 0.423 0.431 0.879 0.829 1.313 1.25 0.259 0.261 0.519 0.524 0.781 0.781 0.289 0.294 0.581 0.586 0.875 0.875 0.242 0.248 0.473 0.506 0.719 0.75 0.426 0.439 0.845 0.884 1.281 1.313 0.33 0.337 0.664 0.67 1 1 0.33 0.337 0.664 0.67 1 1 0.428 0.437 0.874 0.855 1.313 1.281 0.062 0.063 0.125 0.125 0.188 0.188 0.154 0.148 0.314 0.291 0.469 0.438 0.32 0.327 0.643 0.648 0.969 0.969 0.257 0.263 0.52 0.522 0.781 0.781 0.421 0.434 0.819 0.889 1.25 1.313 0.33 0.337 0.664 0.67 1 1 0.428 0.437 0.874 0.855 1.313 1.281 0.253 0.255 0.524 0.499 0.781 0.75 0.289 0.294 0.581 0.586 0.875 0.875 0.248 0.253 0.498 0.5 0.75 0.75 0.421 0.434 0.819 0.889 1.25 1.313 0.33 0.337 0.664 0.67 1 1 0.423 0.431 0.879 0.829 1.313 1.25 0.259 0.261 0.519 0.524 0.781 0.781 0.289 0.294 0.581 0.586 0.875 0.875 0.242 0.248 0.473 0.506 0.719 0.75 0.426 0.439 0.845 0.884 1.281 1.313 0.33 0.337 0.664 0.67 1 1 0.33 0.337 0.664 0.67 1 1 0.428 0.437 0.874 0.855 1.313 1.281 0.062 0.063 0.125 0.125 0.188 0.188 0.154 0.148 0.314 0.291 0.469 0.438 0.32 0.327 0.643 0.648 0.969 0.969 0.257 0.263 0.52 0.522 0.781 0.781 0.421 0.434 0.819 0.889 1.25 1.313 0.33 0.337 0.664 0.67 1 1 0.428 0.437 0.874 0.855 1.313 1.281 0.253 0.255 0.524 0.499 0.781 0.75 0.263 0.268 0.514 0.549 0.781 0.813 0.272 0.279 0.567 0.538 0.844 0.813 0.421 0.434 0.819 0.889 1.25 1.313 0.33 0.337 0.664 0.67 1 1 0.428 0.437 0.874 0.855 1.313 1.281 0.253 0.255 0.524 0.499 0.781 0.75 0.289 0.294 0.581 0.586 0.875 0.875 0.242 0.248 0.473 0.506 0.719 0.75 0.426 0.439 0.845 0.884 1.281 1.313 0.33 0.337 0.664 0.67 1 1 0.423 0.431 0.879 0.829 1.313 1.25 0.259 0.261 0.519 0.524 0.781 0.781 0.289 0.294 0.581 0.586 0.875 0.875 0.242 0.248 0.473 0.506 0.719 0.75 0.426 0.439 0.845 0.884 1.281 1.313 0.33 0.337 0.664 0.67 1 1 0.33 0.337 0.664 0.67 1 1 0.428 0.437 0.874 0.855 1.313 1.281 0.062 0.063 0.125 0.125 0.188 0.188 0.154 0.148 0.314 0.291 0.469 0.438 0.32 0.327 0.643 0.648 0.969 0.969 0.257 0.263 0.52 0.522 0.781 0.781 0.421 0.434 0.819 0.889 1.25 1.313 0.33 0.337 0.664 0.67 1 1 0.428 0.437 0.874 0.855 1.313 1.281 0.253 0.255 0.524 0.499 0.781 0.75 0.289 0.294 0.581 0.586 0.875 0.875 0.248 0.253 0.498 0.5 0.75 0.75 0.421 0.434 0.819 0.889 1.25 1.313 0.33 0.337 0.664 0.67 1 1 0.423 0.431 0.879 0.829 1.313 1.25 0.259 0.261 0.519 0.524 0.781 0.781 0.289 0.294 0.581 0.586 0.875 0.875 0.242 0.248 0.473 0.506 0.719 0.75 0.426 0.439 0.845 0.884 1.281 1.313 0.33 0.337 0.664 0.67 1 1 0.33 0.337 0.664 0.67 1 1 0.428 0.437 0.874 0.855 1.313 1.281 0.062 0.063 0.125 0.125 0.188 0.188 0.154 0.148 0.314 0.291 0.469 0.438 0.32 0.327 0.643 0.648 0.969 0.969 0.257 0.263 0.52 0.522 0.781 0.781 0.421 0.434 0.819 0.889 1.25 1.313 0.33 0.337 0.664 0.67 1 1 0.428 0.437 0.874 0.855 1.313 1.281 0.253 0.255 0.524 0.499 0.781 0.75 0.263 0.268 0.514 0.549 0.781 0.813 0.272 0.279 0.567 0.538 0.844 0.813 0.421 0.434 0.819 0.889 1.25 1.313 0.33 0.337 0.664 0.67 1 1 0.428 0.437 0.874 0.855 1.313 1.281 0.253 0.255 0.524 0.499 0.781 0.75 0.289 0.294 0.581 0.586 0.875 0.875 0.242 0.248 0.473 0.506 0.719 0.75 0.426 0.439 0.845 0.884 1.281 1.313 0.33 0.337 0.664 0.67 1 1 0.423 0.431 0.879 0.829 1.313 1.25 0.259 0.261 0.519 0.524 0.781 0.781 0.289 0.294 0.581 0.586 0.875 0.875 0.242 0.248 0.473 0.506 0.719 0.75 0.426 0.439 0.845 0.884 1.281 1.313 0.33 0.337 0.664 0.67 1 1 0.33 0.337 0.664 0.67 1 1 0.428 0.437 0.874 0.855 1.313 1.281 0.062 0.063 0.125 0.125 0.188 0.188 0.154 0.148 0.314 0.291 0.469 0.438 0.32 0.327 0.643 0.648 0.969 0.969 0.257 0.263 0.52 0.522 0.781 0.781 0.421 0.434 0.819 0.889 1.25 1.313 0.33 0.337 0.664 0.67 1 1 0.428 0.437 0.874 0.855 1.313 1.281 0.253 0.255 0.524 0.499 0.781 0.75 0.289 0.294 0.581 0.586 0.875 0.875 0.248 0.253 0.498 0.5 0.75 0.75 0.421 0.434 0.819 0.889 1.25 1.313 0.33 0.337 0.664 0.67 1 1 0.423 0.431 0.879 0.829 1.313 1.25 0.259 0.261 0.519 0.524 0.781 0.781 0.289 0.294 0.581 0.586 0.875 0.875 0.242 0.248 0.473 0.506 0.719 0.75 0.426 0.439 0.845 0.884 1.281 1.313 0.33 0.337 0.664 0.67 1 1 0.423 0.431 0.879 0.829 1.313 1.25 0.259 0.261 0.519 0.524 0.781 0.781 0.289 0.294 0.581 0.586 0.875 0.875 0.32 0.327 0.643 0.648 0.969 0.969 0.257 0.263 0.52 0.522 0.781 0.781 0.421 0.434 0.819 0.889 1.25 1.313 0.33 0.337 0.664 0.67 1 1 0.428 0.437 0.874 0.855 1.313 1.281 0.253 0.255 0.524 0.499 0.781 0.75 0.263 0.268 0.514 0.549 0.781 0.813 0.272 0.279 0.567 0.538 0.844 0.813 0.421 0.434 0.819 0.889 1.25 1.313 0.33 0.337 0.664 0.67 1 1 0.428 0.437 0.874 0.855 1.313 1.281 0.253 0.255 0.524 0.499 0.781 0.75 0.289 0.294 0.581 0.586 0.875 0.875 0.242 0.248 0.473 0.506 0.719 0.75 0.426 0.439 0.845 0.884 1.281 1.313 0.33 0.337 0.664 0.67 1 1 0.423 0.431 0.879 0.829 1.313 1.25 0.259 0.261 0.519 0.524 0.781 0.781 0.289 0.294 0.581 0.586 0.875 0.875 0.242 0.248 0.473 0.506 0.719 0.75 0.426 0.439 0.845 0.884 1.281 1.313 0.33 0.337 0.664 0.67 1 1 0.33 0.337 0.664 0.67 1 1 0.428 0.437 0.874 0.855 1.313 1.281 0.062 0.063 0.125 0.125 0.188 0.188 0.021 0.02 0.041 0.042 0.063 0.063 101.75-11.07 182.54-91.84 193.63-193.59-0.409-0.424-0.798-0.868-1.219-1.281-0.33-0.337-0.664-0.67-1-1-0.49-0.5-0.996-0.983-1.5-1.469-0.192-0.192-0.4-0.373-0.594-0.563-0.32-0.326-0.642-0.649-0.969-0.969-0.147-0.155-0.289-0.315-0.438-0.469-0.062-0.063-0.125-0.125-0.188-0.188-0.426-0.439-0.845-0.884-1.281-1.313-0.33-0.337-0.664-0.67-1-1-0.49-0.5-0.996-0.983-1.5-1.469-0.192-0.192-0.4-0.373-0.594-0.563-0.32-0.326-0.642-0.649-0.969-0.969-0.289-0.295-0.581-0.585-0.875-0.875-0.257-0.263-0.52-0.522-0.781-0.781-0.421-0.434-0.819-0.889-1.25-1.313-0.33-0.337-0.664-0.67-1-1-0.49-0.5-0.996-0.983-1.5-1.469-0.182-0.182-0.378-0.351-0.563-0.531-0.289-0.295-0.581-0.585-0.875-0.875-0.257-0.263-0.52-0.522-0.781-0.781-0.421-0.434-0.819-0.889-1.25-1.313-0.33-0.337-0.664-0.67-1-1-0.49-0.5-0.996-0.983-1.5-1.469-0.192-0.192-0.4-0.373-0.594-0.563-0.32-0.326-0.642-0.649-0.969-0.969-0.147-0.155-0.289-0.315-0.438-0.469-0.068-0.068-0.15-0.12-0.219-0.188-0.421-0.434-0.819-0.889-1.25-1.313-0.33-0.337-0.664-0.67-1-1-0.49-0.5-0.996-0.983-1.5-1.469-0.192-0.192-0.4-0.373-0.594-0.563-0.32-0.326-0.642-0.649-0.969-0.969-0.147-0.155-0.289-0.315-0.438-0.469-0.062-0.063-0.125-0.125-0.188-0.188-0.426-0.439-0.845-0.884-1.281-1.313-0.33-0.337-0.664-0.67-1-1-0.33-0.337-0.664-0.67-1-1-0.49-0.5-0.996-0.983-1.5-1.469-0.182-0.182-0.378-0.351-0.563-0.531-0.289-0.294-0.581-0.585-0.875-0.875-0.257-0.263-0.52-0.522-0.781-0.781-0.421-0.434-0.819-0.889-1.25-1.313-0.33-0.337-0.664-0.67-1-1-0.49-0.5-0.996-0.983-1.5-1.469-0.207-0.207-0.416-0.42-0.625-0.625-0.264-0.268-0.545-0.518-0.813-0.781-0.257-0.263-0.52-0.522-0.781-0.781-0.421-0.434-0.819-0.889-1.25-1.313-0.33-0.337-0.664-0.67-1-1-0.49-0.5-0.996-0.983-1.5-1.469-0.192-0.192-0.4-0.373-0.594-0.563-0.32-0.326-0.642-0.649-0.969-0.969-0.147-0.155-0.289-0.315-0.438-0.469-0.062-0.063-0.125-0.125-0.188-0.188-0.426-0.439-0.845-0.884-1.281-1.313-0.33-0.337-0.664-0.67-1-1-0.49-0.5-0.996-0.983-1.5-1.469-0.192-0.192-0.4-0.373-0.594-0.563-0.32-0.326-0.642-0.649-0.969-0.969-0.147-0.155-0.289-0.315-0.438-0.469-0.062-0.063-0.125-0.125-0.188-0.188-0.426-0.439-0.845-0.884-1.281-1.313-0.33-0.337-0.664-0.67-1-1-0.33-0.337-0.664-0.67-1-1-0.49-0.5-0.996-0.983-1.5-1.469-0.182-0.182-0.378-0.351-0.563-0.531-0.289-0.294-0.581-0.585-0.875-0.875-0.257-0.263-0.52-0.522-0.781-0.781-0.421-0.434-0.819-0.889-1.25-1.313-0.33-0.337-0.664-0.67-1-1-0.49-0.5-0.996-0.983-1.5-1.469-0.192-0.192-0.4-0.373-0.594-0.563-0.32-0.326-0.642-0.649-0.969-0.969-0.147-0.155-0.289-0.315-0.438-0.469-0.068-0.068-0.15-0.12-0.219-0.188-0.421-0.434-0.819-0.889-1.25-1.313-0.33-0.337-0.664-0.67-1-1-0.49-0.5-0.996-0.983-1.5-1.469-0.192-0.192-0.4-0.373-0.594-0.563-0.32-0.326-0.642-0.649-0.969-0.969-0.147-0.155-0.289-0.315-0.438-0.469-0.062-0.063-0.125-0.125-0.188-0.188-0.426-0.439-0.845-0.884-1.281-1.313-0.33-0.337-0.664-0.67-1-1-0.33-0.337-0.664-0.67-1-1-13.373-13.639-32.03-22.06-52.719-22.06h-168.12"
     color="#000000" />
  <g
     id="g8"
     fill-rule="evenodd">
    <path
       id="path10"
       fill-opacity="0.067"
       d="m256 1c-140.83 0-255 114.17-255 255s114.17 255 255 255 255-114.17 255-255-114.17-255-255-255m8.827 44.931c120.9 0 218.9 98 218.9 218.9s-98 218.9-218.9 218.9-218.93-98-218.93-218.9 98.03-218.9 218.93-218.9" />
    <g
       id="g12"
       fill-opacity="0.129">
      <path
         id="path14"
         d="m256 4.433c-138.94 0-251.57 112.63-251.57 251.57s112.63 251.57 251.57 251.57 251.57-112.63 251.57-251.57-112.63-251.57-251.57-251.57m5.885 38.556c120.9 0 218.9 98 218.9 218.9s-98 218.9-218.9 218.9-218.93-98-218.93-218.9 98.03-218.9 218.93-218.9" />
      <path
         id="path16"
         d="m256 8.356c-136.77 0-247.64 110.87-247.64 247.64s110.87 247.64 247.64 247.64 247.64-110.87 247.64-247.64-110.87-247.64-247.64-247.64m2.942 31.691c120.9 0 218.9 98 218.9 218.9s-98 218.9-218.9 218.9-218.93-98-218.93-218.9 98.03-218.9 218.93-218.9" />
    </g>
    <path
       id="path18"
       d="m253.04 7.859c-135.42 0-245.19 109.78-245.19 245.19 0 135.42 109.78 245.19 245.19 245.19 135.42 0 245.19-109.78 245.19-245.19 0-135.42-109.78-245.19-245.19-245.19zm0 26.297c120.9 0 218.9 98 218.9 218.9s-98 218.9-218.9 218.9-218.93-98-218.93-218.9 98.03-218.9 218.93-218.9z"
       stroke-opacity="0.31"
       stroke="#000"
       stroke-width="4.904"
       fill="#fff" />
  </g>
  <path
     d="M 171.93945 177.06055 C 131.06345 177.06055 98.160156 209.99705 98.160156 250.87305 L 98.160156 261.12305 C 98.160156 301.99905 131.06545 334.93555 171.93945 334.93555 L 340.07031 334.93555 C 380.94631 334.93555 413.84961 301.99905 413.84961 261.12305 L 413.84961 250.87305 C 413.84961 209.99705 380.94431 177.06055 340.07031 177.06055 L 171.94922 177.06055 L 171.93945 177.06055 z M 225.9375 188.69531 C 230.27871 188.81368 233.89412 190.35723 235.4668 193.4043 C 238.39116 199.05908 234.46103 209.04526 225.90234 218.12891 C 217.9794 226.51196 209.38811 230.63421 204.67383 228.16797 C 202.14241 226.83414 199.49917 222.56469 198.8418 219.06445 C 197.56799 212.25566 202.31991 200.07785 208.17188 195.27344 C 212.94795 191.36256 218.86787 188.96089 224.03516 188.73047 C 224.68108 188.68945 225.31733 188.6784 225.9375 188.69531 z M 181.81055 194.0957 C 186.19593 194.09355 188.76467 197.00218 189.50977 202.96094 C 190.42106 210.25281 186.02354 221.14803 181.34375 222.80078 C 178.51862 223.7779 178.46396 223.89037 176.21289 222.80078 C 173.18556 221.33956 170.8557 215.4048 170.8457 208.81055 C 170.81804 199.16911 174.62162 194.0957 181.81055 194.0957 z M 334.94922 198.0293 C 366.96922 198.0293 392.91992 223.98205 392.91992 255.99805 C 392.91992 288.01805 366.96522 313.9668 334.94922 313.9668 C 302.92922 313.9668 276.98047 288.01405 276.98047 255.99805 C 276.98047 223.97805 302.93322 198.0293 334.94922 198.0293 z M 154.10352 203.70312 C 157.85379 203.71883 161.29701 207.92318 162.68164 215.41602 C 163.65003 220.657 162.75795 225.43735 159.88281 228.47656 C 157.22865 231.43526 155.1144 231.23466 152.18359 228.16797 C 148.26516 224.03195 146.84176 220.86282 146.81836 215.08398 C 146.78708 210.19782 146.82137 208.80961 149.38477 206.2207 C 150.65631 204.96007 152.0045 204.02543 153.34961 203.89648 L 153.34961 203.75586 C 153.60184 203.7194 153.8535 203.70208 154.10352 203.70312 z M 134.07227 221.3125 C 137.99571 221.22168 141.83013 225.18091 143.31836 231.87891 C 145.54927 241.76068 140.28022 247.18093 133.75391 241.4375 C 128.28655 236.65833 125.87628 227.16196 129.32031 223.73633 C 130.63268 222.41864 131.89153 221.53551 133.28711 221.38477 C 133.54879 221.34232 133.8107 221.31855 134.07227 221.3125 z M 193.24219 233.99023 C 207.10623 234.23643 216.7473 239.40794 217.73828 248.22656 C 218.69733 256.72674 212.24292 264.43282 193.47461 277.14258 C 180.15137 286.15049 174.8125 291.09474 174.8125 294.38672 C 174.8125 299.1722 180.73274 303.73242 186.47656 303.73242 C 190.10048 303.73242 191.87189 301.77313 193.47461 296.25781 C 195.59663 288.96874 199.93548 286.51598 210.27148 286.45508 C 217.51142 286.4104 219.73675 287.94476 220.07031 293.69531 C 220.26509 297.05559 219.94807 298.78399 217.9707 302.80469 C 214.72929 309.39087 207.15644 316.98157 200.47461 320.29492 C 195.91522 322.72026 194.47745 322.93353 187.41016 323.08984 C 181.2452 323.28522 178.60671 323.02332 175.2793 321.92188 C 168.86225 319.77224 165.01627 317.48024 158.71484 312.36328 C 141.80176 298.5908 132.92681 278.4778 137.71875 264.29297 C 139.69872 258.46197 142.03442 254.66903 146.11719 250.54297 C 153.20619 243.41195 164.26188 238.19452 178.07812 235.37695 C 183.44154 234.19232 188.62075 233.93253 193.24219 233.99023 z "
     id="path66"
     style="fill:#ffffff;fill-opacity:1" />
</svg>
