<?xml version="1.0" encoding="UTF-8" standalone="no"?>
<svg xmlns="http://www.w3.org/2000/svg" xmlns:sodipodi="http://sodipodi.sourceforge.net/DTD/sodipodi-0.dtd" xmlns:inkscape="http://www.inkscape.org/namespaces/inkscape" version="1.1" viewBox="0 0 512 512">
 <metadata id="metadata4418"/>
 <g id="g4350" fill-rule="evenodd">
  <path inkscape:connector-curvature="0" id="path4352" d="m 471.95,253.05 c 0,120.9 -98.01,218.9 -218.9,218.9 -120.9,0 -218.9,-98.01 -218.9,-218.9 0,-120.9 98.01,-218.9 218.9,-218.9 120.9,0 218.9,98.01 218.9,218.9" fill="#BF9E73"/>
  <path inkscape:connector-curvature="0" id="path4354" d="M 256,1 C 115.17,1 1,115.17 1,256 1,396.83 115.17,511 256,511 396.83,511 511,396.83 511,256 511,115.17 396.83,1 256,1 m 8.827,44.931 c 120.9,0 218.9,98 218.9,218.9 0,120.9 -98,218.9 -218.9,218.9 -120.9,0 -218.93,-98 -218.93,-218.9 0,-120.9 98.03,-218.9 218.93,-218.9" fill-opacity="0.067"/>
  <g id="g4356" fill-opacity="0.129">
   <path inkscape:connector-curvature="0" id="path4358" d="m 256,4.433 c -138.94,0 -251.57,112.63 -251.57,251.57 0,138.94 112.63,251.57 251.57,251.57 138.94,0 251.57,-112.63 251.57,-251.57 C 507.57,117.063 394.94,4.433 256,4.433 m 5.885,38.556 c 120.9,0 218.9,98 218.9,218.9 0,120.9 -98,218.9 -218.9,218.9 -120.9,0 -218.93,-98 -218.93,-218.9 0,-120.9 98.03,-218.9 218.93,-218.9"/>
   <path inkscape:connector-curvature="0" id="path4360" d="m 256,8.356 c -136.77,0 -247.64,110.87 -247.64,247.64 0,136.77 110.87,247.64 247.64,247.64 136.77,0 247.64,-110.87 247.64,-247.64 C 503.64,119.226 392.77,8.356 256,8.356 m 2.942,31.691 c 120.9,0 218.9,98 218.9,218.9 0,120.9 -98,218.9 -218.9,218.9 -120.9,0 -218.93,-98 -218.93,-218.9 0,-120.9 98.03,-218.9 218.93,-218.9"/>
  </g>
  <path inkscape:connector-curvature="0" id="path4362" d="m 253.04,7.859 c -135.42,0 -245.19,109.78 -245.19,245.19 0,135.42 109.78,245.19 245.19,245.19 135.42,0 245.19,-109.78 245.19,-245.19 0,-135.42 -109.78,-245.19 -245.19,-245.19 z m 0,26.297 c 120.9,0 218.9,98 218.9,218.9 0,120.9 -98,218.9 -218.9,218.9 -120.9,0 -218.93,-98 -218.93,-218.9 0,-120.9 98.03,-218.9 218.93,-218.9 z" stroke-opacity="0.31" fill="#ffffff" stroke="#000000" stroke-width="4.904"/>
 </g>
 <path inkscape:connector-curvature="0" id="path4410" d="m 233.03,71.936 0,0.002 c -4.823,0.033 -9.653,0.668 -14.344,1.939 l 31.785,31.785 -8.342,31.12 -31.12,8.344 37.06,37.06 c -0.005,0.001 -0.009,0.003 -0.014,0.004 l -37.06,-37.06 -31.811,-31.748 c -5.05,18.755 -0.244,39.597 14.5,54.34 l 0.01,0.01 31.98,31.98 c -1.388,-0.151 -2.773,-0.329 -4.15,-0.559 L 162.561,140.19 c 0,0.003 0.001,0.005 0.002,0.008 l -0.008,-0.008 c -33.769,27.28 -55.37,69.02 -55.37,115.81 0,41.09 16.658,78.29 43.588,105.22 l 0.002,0 110.56,110.56 c 74.78,-2.785 139.97,-43.08 177.3,-102.63 l -8.836,-8.836 0.006,-0.002 8.834,8.834 c 1.409,-2.248 2.788,-4.518 4.117,-6.82 L 438.43,358 l 0.004,0 4.324,4.324 c 17.266,-29.911 27.648,-64.29 29.02,-100.98 l -110.58,-110.58 c 0.068,0.068 0.134,0.137 0.201,0.205 l -0.201,-0.201 c -15.787,-15.787 -35.1,-28.05 -56.66,-35.48 l -0.01,-0.01 0,0.006 0.002,0.002 c 0.343,1.767 0.613,3.549 0.814,5.34 l -32.32,-32.32 c -11.06,-11.03 -25.532,-16.475 -40,-16.375" opacity="0.25"/>
 <path inkscape:connector-curvature="0" id="path4412" d="m 233.03,71.938 c -4.823,0.033 -9.653,0.667 -14.344,1.938 l 31.781,31.781 -8.344,31.13 -31.12,8.344 -31.813,-31.75 c -5.05,18.755 -0.244,39.599 14.5,54.34 15.442,15.452 37.704,19.986 57.16,13.656 l 0.188,0.156 130.72,130.72 c 5.17,5.161 11.936,7.781 18.719,7.781 6.782,0 13.55,-2.621 18.75,-7.781 10.351,-10.311 10.351,-27.05 0,-37.438 l -130.75,-130.72 -1.063,-0.969 c 5.259,-18.873 0.458,-39.97 -14.375,-54.813 -11.06,-11.03 -25.532,-16.475 -40,-16.375 m 71.5,43.34 c 1.441,7.413 1.664,15.07 0.406,22.656 32.773,33.03 65.736,65.862 98.63,98.78 -7.337,-56.649 -46.534,-103.33 -99.03,-121.44 m -141.97,24.906 c -33.769,27.28 -55.37,69.02 -55.37,115.81 0,82.18 66.63,148.81 148.81,148.81 54.09,0 101.45,-28.87 127.5,-72.03 -0.753,-0.345 -1.515,-0.692 -2.25,-1.094 -47.48,-41.614 -89.93,-88.86 -135.28,-132.62 -14.317,2.579 -29.456,0.529 -42.656,-5.406 -22.02,-9.141 -36.468,-30.404 -40.75,-53.47 m 93.44,83.06 c 18.08,0 32.75,14.67 32.75,32.75 0,18.08 -14.67,32.75 -32.75,32.75 -18.08,0 -32.75,-14.67 -32.75,-32.75 0,-18.08 14.67,-32.75 32.75,-32.75 m 146.75,64.34 c 5.603,0 10.125,4.522 10.125,10.125 0.01,5.583 -4.512,10.09 -10.125,10.09 -5.564,0 -10.09,-4.511 -10.09,-10.09 0,-5.603 4.53,-10.125 10.09,-10.125" fill="#ffffff"/>
</svg>
