<?xml version="1.0" encoding="UTF-8" standalone="no"?>
<svg xmlns="http://www.w3.org/2000/svg" xmlns:sodipodi="http://sodipodi.sourceforge.net/DTD/sodipodi-0.dtd" xmlns:inkscape="http://www.inkscape.org/namespaces/inkscape" version="1.1" viewBox="0 0 512 512">
 <metadata id="metadata6074"/>
 <g id="g6006" fill-rule="evenodd">
  <path inkscape:connector-curvature="0" id="path6008" d="m 471.95,253.05 c 0,120.9 -98.01,218.91 -218.91,218.91 -120.9,0 -218.91,-98.01 -218.91,-218.91 0,-120.9 98.01,-218.91 218.91,-218.91 120.9,0 218.91,98.01 218.91,218.91" fill="#BF9E73"/>
  <path inkscape:connector-curvature="0" id="path6010" d="M 256,1 C 115.17,1 1,115.17 1,256 1,396.83 115.17,511 256,511 396.83,511 511,396.83 511,256 511,115.17 396.83,1 256,1 m 8.827,44.931 c 120.9,0 218.9,98 218.9,218.9 0,120.9 -98,218.9 -218.9,218.9 -120.9,0 -218.93,-98 -218.93,-218.9 0,-120.9 98.03,-218.9 218.93,-218.9" fill-opacity="0.067"/>
  <g id="g6012" fill-opacity="0.129">
   <path inkscape:connector-curvature="0" id="path6014" d="M 256,4.43 C 117.06,4.43 4.43,117.06 4.43,256 4.43,394.94 117.06,507.57 256,507.57 394.94,507.57 507.57,394.94 507.57,256 507.57,117.06 394.94,4.43 256,4.43 m 5.885,38.556 c 120.9,0 218.9,98 218.9,218.9 0,120.9 -98,218.9 -218.9,218.9 -120.9,0 -218.93,-98 -218.93,-218.9 0,-120.9 98.03,-218.9 218.93,-218.9"/>
   <path inkscape:connector-curvature="0" id="path6016" d="M 256,8.36 C 119.23,8.36 8.36,119.23 8.36,256 8.36,392.77 119.23,503.64 256,503.64 392.77,503.64 503.64,392.77 503.64,256 503.64,119.23 392.77,8.36 256,8.36 m 2.942,31.691 c 120.9,0 218.9,98 218.9,218.9 0,120.9 -98,218.9 -218.9,218.9 -120.9,0 -218.93,-98 -218.93,-218.9 0,-120.9 98.03,-218.9 218.93,-218.9"/>
  </g>
  <path inkscape:connector-curvature="0" id="path6018" d="M 253.04,7.86 C 117.62,7.86 7.85,117.64 7.85,253.05 c 0,135.42 109.78,245.19 245.19,245.19 135.42,0 245.19,-109.78 245.19,-245.19 C 498.23,117.63 388.45,7.86 253.04,7.86 m 0,26.297 c 120.9,0 218.9,98 218.9,218.9 0,120.9 -98,218.9 -218.9,218.9 -120.9,0 -218.93,-98 -218.93,-218.9 0,-120.9 98.03,-218.9 218.93,-218.9 z" stroke-opacity="0.31" fill="#ffffff" stroke="#000000" stroke-width="4.904"/>
 </g>
 <path inkscape:connector-curvature="0" id="path6066" d="m 256,103.08 c -55.799,0 -100.72,44.92 -100.72,100.72 l 0,49.16 -15.438,0 0,75.41 72.82,72.82 c -13.475,0.041 -17.641,0.453 -23.2,2.211 -3.866,1.224 -8.01,2.97 -9.188,3.875 -0.19,0.145 -0.254,0.279 -0.133,0.4 l 64.1,64.1 c 2.917,0.115 5.844,0.191 8.789,0.191 113.16,0 206.25,-85.86 217.71,-195.98 L 327.27,132.517 c -18.205,-18.205 -43.38,-29.436 -71.28,-29.436" opacity="0.25"/>
 <path inkscape:connector-curvature="0" id="path6068" d="m 256,103.08 c -55.799,0 -100.72,44.92 -100.72,100.72 l 0,49.16 -15.438,0 0,75.41 10.781,-10.125 c 12.08,-11.332 26.2,-21.278 34.844,-24.563 9.126,-3.468 23.968,-6.107 48.41,-8.625 26,-2.679 49.704,-5.878 62.5,-8.406 16.316,-3.224 22.937,-5.542 44.22,-16.688 0.008,-0.004 0.024,0.004 0.031,0 16.06,-8.505 0.405,-0.126 16.03,-8.531 0.061,-0.033 10e-4,0.002 0.063,-0.031 l 0,-47.594 c 0,-55.799 -44.92,-100.72 -100.72,-100.72 m 0,46.06 c 27.854,0 50.28,22.427 50.28,50.28 l 0,53.53 -100.56,0 0,-53.53 c 0,-27.854 22.427,-50.28 50.28,-50.28 z m 116.16,123.69 -8.03,6.75 c -21.734,18.254 -59.19,35.1 -102.59,46.16 -3.558,0.907 -3.159,1.084 4.875,1.875 16.778,1.652 41.753,-1.837 59.06,-8.219 4.785,-1.764 16.469,-7.06 26,-11.781 9.531,-4.723 17.58,-8.358 17.875,-8.06 1.32,1.32 -8.461,15.499 -16,23.19 -24.17,24.652 -67.36,40.493 -116.69,42.75 -15.14,0.693 -15.397,0.719 -10.531,2.156 7.935,2.344 28.999,4.781 41.5,4.781 21.344,0 47.33,-4.639 66.16,-11.781 4.141,-1.572 7.768,-2.607 8.06,-2.313 0.863,0.863 -10.329,12.548 -15.969,16.688 -22.468,16.493 -63.38,26.16 -110.87,26.16 -15.466,0 -19.653,0.358 -25.531,2.219 -3.866,1.224 -8.01,2.97 -9.188,3.875 -1.906,1.461 8.776,1.656 94.88,1.656 l 97,0 0,-136.09" fill="#ffffff"/>
</svg>
