<?xml version="1.0" encoding="UTF-8" standalone="no"?>
<svg xmlns="http://www.w3.org/2000/svg" height="512" viewBox="0 0 512 512" width="512" version="1.1">
 <metadata id="metadata72"/>
 <g id="g4" fill-rule="evenodd">
  <path id="path6" fill="#BF9E73" d="m471.95 253.05c0 120.9-98.01 218.9-218.9 218.9-120.9 0-218.9-98.01-218.9-218.9 0-120.9 98.01-218.9 218.9-218.9 120.9 0 218.9 98.01 218.9 218.9"/>
  <path id="path8" fill-opacity="0.235" d="m280.72 140.5c-27.953 0.591-48.03 24.594-58.03 50.751-5.688 15.211-31.19-9.656-46.2 4.74-29.507 5.91-5.81 42.35-32.2 43.34-39.476 16.14-59.768 70.33-28.668 98.92 44.621 44.48 89.12 89.1 133.66 133.66 1.254 0.021 2.491 0.063 3.75 0.063 108.5 0 198.58-78.954 215.91-182.53-43.896-43.963-87.81-87.93-131.97-131.62-13.914-11.967-32.48-17.323-50.625-17.188-1.886-0.128-3.761-0.164-5.625-0.125"/>
  <path id="path10" fill-opacity="0.067" d="m256 1c-140.83 0-255 114.17-255 255s114.17 255 255 255 255-114.17 255-255-114.17-255-255-255m8.827 44.931c120.9 0 218.9 98 218.9 218.9s-98 218.9-218.9 218.9-218.93-98-218.93-218.9 98.03-218.9 218.93-218.9"/>
  <g id="g12" fill-opacity="0.129">
   <path id="path14" d="m256 4.433c-138.94 0-251.57 112.63-251.57 251.57s112.63 251.57 251.57 251.57 251.57-112.63 251.57-251.57-112.63-251.57-251.57-251.57m5.885 38.556c120.9 0 218.9 98 218.9 218.9s-98 218.9-218.9 218.9-218.93-98-218.93-218.9 98.03-218.9 218.93-218.9"/>
   <path id="path16" d="m256 8.356c-136.77 0-247.64 110.87-247.64 247.64s110.87 247.64 247.64 247.64 247.64-110.87 247.64-247.64-110.87-247.64-247.64-247.64m2.942 31.691c120.9 0 218.9 98 218.9 218.9s-98 218.9-218.9 218.9-218.93-98-218.93-218.9 98.03-218.9 218.93-218.9"/>
  </g>
  <path id="path18" d="m253.04 7.859c-135.42 0-245.19 109.78-245.19 245.19 0 135.42 109.78 245.19 245.19 245.19 135.42 0 245.19-109.78 245.19-245.19 0-135.42-109.78-245.19-245.19-245.19zm0 26.297c120.9 0 218.9 98 218.9 218.9s-98 218.9-218.9 218.9-218.93-98-218.93-218.9 98.03-218.9 218.93-218.9z" stroke-opacity="0.31" stroke="#000" stroke-width="4.904" fill="#fff"/>
 </g>
 <path id="path66" d="m415.08 293.35c0 34.753-27.969 62.927-62.46 62.927h-193.25c-34.488 0-62.45-28.17-62.45-62.927 0-31.388 22.801-57.39 52.633-62.15-0.378-2.202-0.587-4.468-0.587-6.801 0-22.02 17.718-39.868 39.578-39.868 9.75 0 18.683 3.553 25.576 9.463 12.288-27.899 28.04-53.36 72.23-53.36 53.595 0 78.997 41.646 78.997 85.59 0 1.838-0.078 3.659-0.201 5.462 28.489 5.847 49.925 31.23 49.925 61.65" fill-rule="evenodd" fill="#fff"/>
</svg>
