<?xml version="1.0" encoding="UTF-8" standalone="no"?>
<svg xmlns:dc="http://purl.org/dc/elements/1.1/" xmlns:cc="http://creativecommons.org/ns#" xmlns:rdf="http://www.w3.org/1999/02/22-rdf-syntax-ns#" xmlns:svg="http://www.w3.org/2000/svg" xmlns="http://www.w3.org/2000/svg" xmlns:sodipodi="http://sodipodi.sourceforge.net/DTD/sodipodi-0.dtd" xmlns:inkscape="http://www.inkscape.org/namespaces/inkscape" height="512" viewBox="0 0 512 512" width="512" version="1.1" id="svg2" inkscape:version="0.91 r" sodipodi:docname="googleplaystore.svg">
<defs id="defs17" />
<sodipodi:namedview pagecolor="#ffffff" bordercolor="#666666" borderopacity="1" objecttolerance="10" gridtolerance="10" guidetolerance="10" inkscape:pageopacity="0" inkscape:pageshadow="2" inkscape:window-width="1680" inkscape:window-height="994" id="namedview15" showgrid="false" inkscape:zoom="1.3037281" inkscape:cx="53.590229" inkscape:cy="244.919" inkscape:window-x="0" inkscape:window-y="0" inkscape:window-maximized="1" inkscape:current-layer="svg2" />
<metadata id="metadata28">
<rdf:RDF>
<cc:Work rdf:about="">
<dc:format>image/svg+xml</dc:format>
<dc:type rdf:resource="http://purl.org/dc/dcmitype/StillImage" />
<dc:title></dc:title>
</cc:Work>
</rdf:RDF>
</metadata>
<path style="fill:#BF9E73;fill-rule:evenodd;fill-opacity:1" inkscape:connector-curvature="0" d="m 471.95,253.05 c 0,120.9 -98.01,218.9 -218.9,218.9 -120.9,0 -218.9,-98.01 -218.9,-218.9 0,-120.9 98.01,-218.9 218.9,-218.9 120.9,0 218.9,98.01 218.9,218.9" id="path6" />
<path style="fill-opacity:0.06700003;fill-rule:evenodd" inkscape:connector-curvature="0" d="M 256,1 C 115.17,1 1,115.17 1,256 1,396.83 115.17,511 256,511 396.83,511 511,396.83 511,256 511,115.17 396.83,1 256,1 m 8.827,44.931 c 120.9,0 218.9,98 218.9,218.9 0,120.9 -98,218.9 -218.9,218.9 -120.9,0 -218.93,-98 -218.93,-218.9 0,-120.9 98.03,-218.9 218.93,-218.9" id="path8" />
<g style="fill-opacity:0.12900002;fill-rule:evenodd" id="g10">
<path inkscape:connector-curvature="0" d="m 256,4.433 c -138.94,0 -251.57,112.63 -251.57,251.57 0,138.94 112.63,251.57 251.57,251.57 138.94,0 251.57,-112.63 251.57,-251.57 C 507.57,117.063 394.94,4.433 256,4.433 m 5.885,38.556 c 120.9,0 218.9,98 218.9,218.9 0,120.9 -98,218.9 -218.9,218.9 -120.9,0 -218.93,-98 -218.93,-218.9 0,-120.9 98.03,-218.9 218.93,-218.9" id="path12" />
<path inkscape:connector-curvature="0" d="m 256,8.356 c -136.77,0 -247.64,110.87 -247.64,247.64 0,136.77 110.87,247.64 247.64,247.64 136.77,0 247.64,-110.87 247.64,-247.64 C 503.64,119.226 392.77,8.356 256,8.356 m 2.942,31.691 c 120.9,0 218.9,98 218.9,218.9 0,120.9 -98,218.9 -218.9,218.9 -120.9,0 -218.93,-98 -218.93,-218.9 0,-120.9 98.03,-218.9 218.93,-218.9" id="path14" />
</g>
<path inkscape:connector-curvature="0" style="fill:#ffffff;fill-rule:evenodd" d="m 472.8023,253.50052 c 0,120.9 -98.01,218.91 -218.91,218.91 -120.90001,0 -218.910006,-98.01 -218.910006,-218.91 0,-120.9 98.009996,-218.910001 218.910006,-218.910001 120.9,0 218.91,98.010001 218.91,218.910001" id="path3478" />
<path inkscape:connector-curvature="0" style="fill:#BF9E73" d="m 253.8823,34.610519 c -120.90001,0 -218.910006,98.010001 -218.910006,218.910001 0,120.9 98.009996,218.91 218.910006,218.91 120.9,0 218.91,-98.01 218.91,-218.91 0,-120.9 -98.01,-218.910001 -218.91,-218.910001" id="path3480" />
<path inkscape:connector-curvature="0" style="fill:#BF9E73" d="m 276.9423,248.54052 -160.25001,175.53 c 37.53501,30.23 85.24001,48.34 137.19001,48.34 65.32,0 123.95,-28.625 164.06,-74 l -141,-149.87" id="path3482" />
<path inkscape:connector-curvature="0" style="fill:#BF9E73" d="m 411.5723,101.67052 -134.62,146.84 140.91,150.03 c 34.19,-38.62 54.938,-89.4 54.938,-145.03 0,-58.967 -23.306,-112.48 -61.22,-151.84" id="path3484" />
<path inkscape:connector-curvature="0" style="fill:#BF9E73" d="m 253.8823,34.610519 c -55.38,0 -105.95,20.559 -144.50001,54.47 68.57001,73.700001 81.76001,96.650001 156.56001,171.380001 46.33,-49.84 113.45,-89.12 167.44,-132.28 -39.577,-56.570001 -105.22,-93.560001 -179.5,-93.560001" id="path3486" />
<path inkscape:connector-curvature="0" style="opacity:0.25" d="m 148.8123,113.70052 -2.432,1.42 c -1.459,0.849 -3.166,2.845 -4.266,4.982 l -1.83201,3.563 0,255.94 1.60201,2.994 c 0.723,1.352 1.93,2.969 2.934,3.973 l 84.46,84.46 c 8.08,0.904 16.289,1.385 24.611,1.385 69.3,0 131.07,-32.21 171.18,-82.47 l -276.25,-276.25 m 22.521,7.291 3.211,3.566 c 1.764,1.962 26.544,29.26 55.06,60.66 l 0.086,0.086 c 25.677,28.28 47.37,51.827 51.646,56.1 l 9.262,9.262 -0.725,0.793 19.9,21.76 0.023,0.023 c 7.438,8.132 12.957,14 16.457,17.5 l 98.99,98.99 c 17.577,-22.08 30.978,-47.634 39,-75.47 l -68.41,-68.41 c -3.476,-3.476 -12.587,-8.528 -36.43,-21.613 -13.877,-7.615 -26.22,-14.446 -27.434,-15.18 l -2.205,-1.334 -2.719,2.986 -8.891,-8.891 c -0.541,-0.525 -138.14,-76.39 -143.98,-79.37 l -2.852,-1.459" id="path3546" />
<path inkscape:connector-curvature="0" style="fill:#ffffff" d="m 145.4323,387.14052 c -1.075,-0.846 -2.675,-2.886 -3.556,-4.533 l -1.60201,-2.995 0,-255.94 1.83301,-3.563 c 1.1,-2.138 2.806,-4.134 4.265,-4.983 l 2.431,-1.42 2.944,3.242 c 1.619,1.783 29.22,32.07 61.33,67.31 32.11,35.24 58.949,64.778 59.63,65.64 1.232,1.564 0.637,2.246 -61.06,69.966 -34.27,37.614 -62.748,68.48 -63.29,68.6 -0.54,0.114 -1.861,-0.484 -2.936,-1.33 m 39.926,-20.9 c 8.144,-8.901 33.24,-36.402 55.767,-61.12 22.528,-24.714 41.23,-44.662 41.545,-44.33 2.829,2.913 36.634,40.22 36.522,40.31 -0.08,0.061 -27.881,15.283 -61.78,33.827 -33.9,18.545 -64.07,35.08 -67.04,36.742 -2.973,1.663 -8.65,4.764 -12.615,6.891 l -7.208,3.867 14.805,-16.183 m 124.42,-93.01 -19.899,-21.76 7.01,-7.66 c 3.858,-4.213 12.833,-14.05 19.947,-21.867 l 12.933,-14.207 2.205,1.334 c 1.212,0.733 13.558,7.565 27.434,15.18 37.739,20.711 38.567,21.298 38.567,27.363 0,3.627 -1.229,5.619 -5.231,8.482 -2.734,1.955 -59.52,33.535 -62.04,34.499 -0.675,0.259 -7.82,-7.04 -20.926,-21.367 m -80.17,-88 c -28.519,-31.399 -53.3,-58.696 -55.06,-60.66 l -3.211,-3.566 2.851,1.458 c 5.837,2.986 143.43,78.85 143.98,79.37 0.518,0.51 -34.671,39.811 -36.06,40.27 -0.349,0.116 -23.967,-25.477 -52.49,-56.883" id="path3548" />
<path style="fill:#ffffff;fill-rule:evenodd;stroke:#000000;stroke-width:4.90399981;stroke-opacity:0.31000001" inkscape:connector-curvature="0" d="m 253.04,7.859 c -135.42,0 -245.19,109.78 -245.19,245.19 0,135.42 109.78,245.19 245.19,245.19 135.42,0 245.19,-109.78 245.19,-245.19 0,-135.42 -109.78,-245.19 -245.19,-245.19 z m 0,26.297 c 120.9,0 218.9,98 218.9,218.9 0,120.9 -98,218.9 -218.9,218.9 -120.9,0 -218.93,-98 -218.93,-218.9 0,-120.9 98.03,-218.9 218.93,-218.9 z" id="path16" />
</svg>
