<?xml version="1.0" encoding="UTF-8" standalone="no"?>
<svg xmlns="http://www.w3.org/2000/svg" viewBox="0 0 512 512">
 <g fill-rule="evenodd">
  <path d="m471.95 253.05c0 120.9-98.01 218.91-218.91 218.91s-218.91-98.01-218.91-218.91 98.01-218.91 218.91-218.91 218.91 98.01 218.91 218.91" fill="#BF9E73"/>
  <path d="m256 1c-140.83 0-255 114.17-255 255s114.17 255 255 255 255-114.17 255-255-114.17-255-255-255m8.827 44.931c120.9 0 218.9 98 218.9 218.9s-98 218.9-218.9 218.9-218.93-98-218.93-218.9 98.03-218.9 218.93-218.9" fill-opacity="0.067"/>
  <g fill-opacity="0.129">
   <path d="m256 4.43c-138.94 0-251.57 112.63-251.57 251.57s112.63 251.57 251.57 251.57 251.57-112.63 251.57-251.57-112.63-251.57-251.57-251.57m5.885 38.556c120.9 0 218.9 98 218.9 218.9s-98 218.9-218.9 218.9-218.93-98-218.93-218.9 98.03-218.9 218.93-218.9"/>
   <path d="m256 8.36c-136.77 0-247.64 110.87-247.64 247.64s110.87 247.64 247.64 247.64 247.64-110.87 247.64-247.64-110.87-247.64-247.64-247.64m2.942 31.691c120.9 0 218.9 98 218.9 218.9s-98 218.9-218.9 218.9-218.93-98-218.93-218.9 98.03-218.9 218.93-218.9"/>
  </g>
  <path stroke="#000" stroke-width="4.904" d="m253.04 7.86c-135.42 0-245.19 109.78-245.19 245.19 0 135.42 109.78 245.19 245.19 245.19 135.42 0 245.19-109.78 245.19-245.19 0-135.42-109.78-245.19-245.19-245.19m0 26.297c120.9 0 218.9 98 218.9 218.9s-98 218.9-218.9 218.9-218.93-98-218.93-218.9 98.03-218.9 218.93-218.9z" stroke-opacity="0.31" fill="#fff"/>
 </g>
 <text font-size="129.23" y="231.36" x="729.64" font-family="&apos;Gentium Book Basic&apos;" line-height="125%" word-spacing="0" letter-spacing="0"><tspan y="231.36" x="729.64"/>
 </text>
 <text transform="scale(4.0128.2492)" font-size="46.954" y="579.26" x="378.91" font-family="Arial" text-anchor="middle"/>
 <text font-size="129.23" y="151.36" x="1310.91" font-family="&apos;Gentium Book Basic&apos;" line-height="125%" word-spacing="0" letter-spacing="0"><tspan y="151.36" x="1310.91"/>
 </text>
 <text transform="scale(4.0128.2492)" font-size="46.954" y="258.22" x="523.76" font-family="Arial" text-anchor="middle"/>
 <text font-size="129.23" y="-29.9" x="239.33" font-family="&apos;Gentium Book Basic&apos;" line-height="125%" word-spacing="0" letter-spacing="0"><tspan y="-29.9" x="239.33"/>
 </text>
 <text transform="scale(4.0128.2492)" font-size="46.954" y="-469.13" x="256.72" font-family="Arial" text-anchor="middle"/>
 <text font-size="129.23" y="-246.37" x="1337.38" font-family="&apos;Gentium Book Basic&apos;" line-height="125%" word-spacing="0" letter-spacing="0"><tspan y="-246.37" x="1337.38"/>
 </text>
 <text transform="scale(4.0128.2492)" font-size="46.954" y="-1337.8" x="530.36" font-family="Arial" text-anchor="middle"/>
 <text font-size="129.23" y="-326.37" x="1918.65" font-family="&apos;Gentium Book Basic&apos;" line-height="125%" word-spacing="0" letter-spacing="0"><tspan y="-326.37" x="1918.65"/>
 </text>
 <text transform="scale(4.0128.2492)" font-size="46.954" y="-1658.83" x="675.21" font-family="Arial" text-anchor="middle"/>
 <text font-size="129.23" y="-798.77" x="1529.53" font-family="&apos;Gentium Book Basic&apos;" line-height="125%" word-spacing="0" letter-spacing="0"><tspan y="-798.77" x="1529.53"/>
 </text>
 <text transform="scale(4.0128.2492)" font-size="46.954" y="-3554.48" x="578.24" font-family="Arial" text-anchor="middle"/>
 <text font-size="129.23" y="-878.78" x="2110.79" font-family="&apos;Gentium Book Basic&apos;" line-height="125%" word-spacing="0" letter-spacing="0"><tspan y="-878.78" x="2110.79"/>
 </text>
 <text transform="scale(4.0128.2492)" font-size="46.954" y="-3875.52" x="723.09" font-family="Arial" text-anchor="middle"/>
 <text font-size="208.33" y="535.94" x="277.99" font-family="&apos;Gentium Book Basic&apos;" line-height="125%" word-spacing="0" letter-spacing="0"><tspan y="535.94" x="277.99"/>
 </text>
 <path opacity="0.25" d="m256 148.25c-71.66 0-74.39 0.041-81.61 1.219-16.08 2.616-28.28 8.562-39.29 19.14-10.45 10.04-17.224 21.94-20.523 36.07-0.834 3.57-9.07 89.27-10.479 109-0.665 9.343-0.018 20.1 1.584 26.328 1.576 6.138 4.405 11.251 8.316 15.16l115.53 115.53c7.724 0.825 15.565 1.26 23.508 1.26 117.43 0 213.25-92.46 218.66-208.55l-93.81-93.81c-0.42-0.42-0.847-0.836-1.277-1.246-11.01-10.489-22.934-16.264-38.998-18.885-7.222-1.178-9.958-1.219-81.61-1.219"/>
 <path d="m127.53 362.81c-11.12-2.951-18.81-10.974-21.847-22.801-1.602-6.225-2.248-16.985-1.583-26.328 1.405-19.728 9.645-105.43 10.479-109 3.299-14.13 10.07-26.03 20.524-36.07 11.01-10.578 23.21-16.524 39.29-19.14 7.22-1.178 9.954-1.219 81.61-1.219 71.65 0 74.39 0.041 81.61 1.219 16.06 2.621 27.99 8.396 38.999 18.885 11.692 11.139 19.565 26 21.629 40.828 0.795 5.709 8.773 91.93 9.653 104.33 0.676 9.521 0.041 20.23-1.572 26.498-3.076 11.954-10.8 19.925-22.13 22.838-7.206 1.85-13.809 0.879-22.304-3.278-10.762-5.267-17.205-11.182-43.958-40.35l-21.911-23.891h-80.04l-21.911 23.891c-26.75 29.17-33.19 35.08-43.958 40.35-8.455 4.138-15.431 5.14-22.58 3.241m67.23-103.18c14.02-3.77 25.581-15.534 29.21-29.741 1.328-5.189 1.304-14.689-0.05-19.811-3.852-14.562-15.283-25.863-30.04-29.689-4.662-1.208-14.598-1.208-19.258 0-14.761 3.826-26.2 15.13-30.04 29.689-1.37 5.19-1.402 14.671-0.067 19.811 3.01 11.6 11.1 21.618 21.468 26.598 3.114 1.496 7.148 3.01 8.964 3.363s3.842 0.767 4.502 0.919c2.152 0.497 11.927-0.232 15.308-1.141m-18.917-10.664c-0.155-0.422-0.352-5.09-0.438-10.372l-0.155-9.605-10.205-0.3-10.205-0.3-0.168-8.06c-0.126-6.04 0.024-8.176 0.6-8.545 0.422-0.268 5.158-0.491 10.524-0.497l9.755-0.009v-9.785c0-6.81 0.219-10 0.72-10.506 0.996-0.996 14.972-0.996 15.968 0 0.501 0.501 0.72 3.695 0.72 10.506v9.785l9.755 0.009c5.365 0.005 10.1 0.229 10.524 0.497 0.577 0.366 0.727 2.502 0.6 8.545l-0.168 8.06-10.205 0.3-10.205 0.3-0.3 10.205-0.3 10.205-8.267 0.167c-6.286 0.127-8.335-0.016-8.549-0.6m157.46 6.65c8.01-3.879 8.31-16.03 0.503-20.608-3.606-2.114-8.563-2.114-12.169 0-7.783 4.56-7.517 16.648 0.454 20.594 3.434 1.7 7.72 1.705 11.212 0.014m-27.642-24.03c5.913-1.489 10.146-8.416 8.609-14.08-1.516-5.592-6.117-9.227-11.681-9.227-8.743 0-14.397 9.238-10.535 17.215 1.356 2.802 3.67 4.747 7.083 5.969 2.725 0.976 3.124 0.983 6.523 0.127m53.53-1.571c3.852-2.366 5.609-5.922 5.319-10.763-0.184-3.07-0.548-4.131-2.055-6-2.602-3.23-5.892-4.953-9.481-4.965-10.797-0.036-16.07 12.505-8.459 20.12 4.184 4.184 9.532 4.773 14.68 1.613m-24.875-25.21c3.305-2.323 5.09-5.664 5.102-9.552 0.017-5.346-2.185-8.877-6.894-11.06-4.905-2.271-10.725-0.715-14.346 3.837-2.455 3.086-2.917 8.602-1.031 12.299 1.361 2.668 4.386 5.299 7.084 6.162 2.899 0.928 7.447 0.166 10.08-1.688" fill="#fff"/>
</svg>
