<?xml version="1.0" encoding="UTF-8" standalone="no"?>
<svg xmlns="http://www.w3.org/2000/svg" viewBox="0 0 512 512">
 <g fill-rule="evenodd">
  <path d="m471.95 253.05c0 120.9-98.01 218.9-218.9 218.9-120.9 0-218.9-98.01-218.9-218.9 0-120.9 98.01-218.9 218.9-218.9 120.9 0 218.9 98.01 218.9 218.9" fill="#BF9E73"/>
  <path d="m256 1c-140.83 0-255 114.17-255 255s114.17 255 255 255 255-114.17 255-255-114.17-255-255-255m8.827 44.931c120.9 0 218.9 98 218.9 218.9s-98 218.9-218.9 218.9-218.93-98-218.93-218.9 98.03-218.9 218.93-218.9" fill-opacity="0.067"/>
  <g fill-opacity="0.129">
   <path d="m256 4.433c-138.94 0-251.57 112.63-251.57 251.57s112.63 251.57 251.57 251.57 251.57-112.63 251.57-251.57-112.63-251.57-251.57-251.57m5.885 38.556c120.9 0 218.9 98 218.9 218.9s-98 218.9-218.9 218.9-218.93-98-218.93-218.9 98.03-218.9 218.93-218.9"/>
   <path d="m256 8.356c-136.77 0-247.64 110.87-247.64 247.64s110.87 247.64 247.64 247.64 247.64-110.87 247.64-247.64-110.87-247.64-247.64-247.64m2.942 31.691c120.9 0 218.9 98 218.9 218.9s-98 218.9-218.9 218.9-218.93-98-218.93-218.9 98.03-218.9 218.93-218.9"/>
  </g>
  <path stroke="#000" stroke-width="4.904" d="m253.04 7.859c-135.42 0-245.19 109.78-245.19 245.19 0 135.42 109.78 245.19 245.19 245.19 135.42 0 245.19-109.78 245.19-245.19 0-135.42-109.78-245.19-245.19-245.19zm0 26.297c120.9 0 218.9 98 218.9 218.9s-98 218.9-218.9 218.9-218.93-98-218.93-218.9 98.03-218.9 218.93-218.9z" stroke-opacity="0.31" fill="#fff"/>
 </g>
 <text font-size="129.23" y="231.36" x="729.64" font-family="&apos;Gentium Book Basic&apos;" line-height="125%" word-spacing="0" letter-spacing="0"><tspan y="231.36" x="729.64"/>
 </text>
 <text transform="scale(4.0128.2492)" font-size="46.954" y="579.25" x="378.91" font-family="Arial" text-anchor="middle"/>
 <text font-size="129.23" y="151.36" x="1310.91" font-family="&apos;Gentium Book Basic&apos;" line-height="125%" word-spacing="0" letter-spacing="0"><tspan y="151.36" x="1310.91"/>
 </text>
 <text transform="scale(4.0128.2492)" font-size="46.954" y="258.22" x="523.76" font-family="Arial" text-anchor="middle"/>
 <text font-size="129.23" y="-29.901" x="239.33" font-family="&apos;Gentium Book Basic&apos;" line-height="125%" word-spacing="0" letter-spacing="0"><tspan y="-29.901" x="239.33"/>
 </text>
 <text transform="scale(4.0128.2492)" font-size="46.954" y="-469.14" x="256.72" font-family="Arial" text-anchor="middle"/>
 <text font-size="129.23" y="-246.37" x="1337.38" font-family="&apos;Gentium Book Basic&apos;" line-height="125%" word-spacing="0" letter-spacing="0"><tspan y="-246.37" x="1337.38"/>
 </text>
 <text transform="scale(4.0128.2492)" font-size="46.954" y="-1337.8" x="530.36" font-family="Arial" text-anchor="middle"/>
 <text font-size="129.23" y="-326.38" x="1918.65" font-family="&apos;Gentium Book Basic&apos;" line-height="125%" word-spacing="0" letter-spacing="0"><tspan y="-326.38" x="1918.65"/>
 </text>
 <text transform="scale(4.0128.2492)" font-size="46.954" y="-1658.84" x="675.21" font-family="Arial" text-anchor="middle"/>
 <text font-size="129.23" y="-798.78" x="1529.53" font-family="&apos;Gentium Book Basic&apos;" line-height="125%" word-spacing="0" letter-spacing="0"><tspan y="-798.78" x="1529.53"/>
 </text>
 <text transform="scale(4.0128.2492)" font-size="46.954" y="-3554.49" x="578.24" font-family="Arial" text-anchor="middle"/>
 <text font-size="129.23" y="-878.78" x="2110.79" font-family="&apos;Gentium Book Basic&apos;" line-height="125%" word-spacing="0" letter-spacing="0"><tspan y="-878.78" x="2110.79"/>
 </text>
 <text transform="scale(4.0128.2492)" font-size="46.954" y="-3875.52" x="723.09" font-family="Arial" text-anchor="middle"/>
 <g font-family="&apos;Gentium Book Basic&apos;" line-height="125%" font-size="208.33" word-spacing="0" letter-spacing="0">
  <text y="535.94" x="277.99"><tspan y="535.94" x="277.99"/>
  </text>
  <text y="413.27" x="-1771.42"><tspan y="413.27" x="-1771.42"/>
  </text>
 </g>
 <text transform="scale(4.0128.2492)" font-size="75.7" y="1095.48" x="-123.71" font-family="Arial" text-anchor="middle"/>
 <text font-size="208.33" y="859.18" x="-1213.24" font-family="&apos;Gentium Book Basic&apos;" line-height="125%" word-spacing="0" letter-spacing="0"><tspan y="859.18" x="-1213.24"/>
 </text>
 <text transform="scale(4.0128.2492)" font-size="75.7" y="2884.84" x="15.386" font-family="Arial" text-anchor="middle"/>
 <g line-height="125%" word-spacing="0" letter-spacing="0">
  <text y="621.66" x="875.45" font-size="40" font-family="Sans"><tspan y="621.66" x="875.45" font-weight="bold" font-style="italic"/>
  </text>
  <text y="424.14" x="-1886.19" font-size="208.33" font-family="&apos;Gentium Book Basic&apos;"><tspan y="424.14" x="-1886.19"/>
  </text>
 </g>
 <text transform="scale(4.0128.2492)" font-size="75.7" y="1139.12" x="-152.31" font-family="Arial" text-anchor="middle"/>
 <text font-size="208.33" y="268.51" x="-1179.85" font-family="&apos;Gentium Book Basic&apos;" line-height="125%" word-spacing="0" letter-spacing="0"><tspan y="268.51" x="-1179.85"/>
 </text>
 <text transform="scale(4.0128.2492)" font-size="75.7" y="514.61" x="23.707" font-family="Arial" text-anchor="middle"/>
 <text font-size="208.33" y="260.39" x="-1146.48" font-family="&apos;Gentium Book Basic&apos;" line-height="125%" word-spacing="0" letter-spacing="0"><tspan y="260.39" x="-1146.48"/>
 </text>
 <text transform="scale(4.0128.2492)" font-size="75.7" y="482.01" x="32.02" font-family="Arial" text-anchor="middle"/>
 <path opacity="0.25" d="m282.67 94.84c-77.81 0.277-141.38 60.976-146.25 137.63l9.781 9.781h-38.25c0.084 48.26 19.678 91.94 51.31 123.58l105.79 105.79c113.17-6.12 203.48-98.19 206.79-212.09l-102.91-102.91c-15.402-15.402-34.912-26.722-56.68-32.19l-29.582-29.582"/>
 <path d="m282.67 94.84c-77.81 0.277-141.38 60.976-146.25 137.63h82.03c4.563-31.487 31.523-55.708 64.22-55.969v-81.66m9.781 26.313v56.09c23.21 4.43 41.452 24.709 41.563 49.06 0.266 2.01 0.108 4.049 0 6.156h70.03c-4.606-59.22-52.39-106.52-111.59-111.31m-184.5 121.09c0.169 96.47 78.28 174.62 174.72 174.91v-109.78c-35.8-0.285-64.738-29.3-64.906-65.12h-109.81zm224.78 0c-4.885 17.931-20.99 31.14-40.28 31.656v37.906c1.592 0.109 3.192 0.188 4.813 0.188 40.23 0 73.26-30.575 77.25-69.75h-41.781" fill="#fff"/>
</svg>
