<?xml version="1.0" encoding="UTF-8" standalone="no"?>
<svg
   xmlns:dc="http://purl.org/dc/elements/1.1/"
   xmlns:cc="http://creativecommons.org/ns#"
   xmlns:rdf="http://www.w3.org/1999/02/22-rdf-syntax-ns#"
   xmlns:svg="http://www.w3.org/2000/svg"
   xmlns="http://www.w3.org/2000/svg"
   xmlns:sodipodi="http://sodipodi.sourceforge.net/DTD/sodipodi-0.dtd"
   xmlns:inkscape="http://www.inkscape.org/namespaces/inkscape"
   height="512"
   viewBox="0 0 512 512"
   width="512"
   version="1.1"
   id="svg2"
   inkscape:version="0.91 r13725"
   sodipodi:docname="google-chrome-beta.svg">
  <defs
     id="defs17" />
  <sodipodi:namedview
     pagecolor="#ffffff"
     bordercolor="#666666"
     borderopacity="1"
     objecttolerance="10"
     gridtolerance="10"
     guidetolerance="10"
     inkscape:pageopacity="0"
     inkscape:pageshadow="2"
     inkscape:window-width="1920"
     inkscape:window-height="1023"
     id="namedview15"
     showgrid="false"
     inkscape:zoom="0.62106145"
     inkscape:cx="135.72398"
     inkscape:cy="10.510601"
     inkscape:window-x="0"
     inkscape:window-y="0"
     inkscape:window-maximized="1"
     inkscape:current-layer="svg2"
     showguides="false" />
  <metadata
     id="metadata28">
    <rdf:RDF>
      <cc:Work
         rdf:about="">
        <dc:format>image/svg+xml</dc:format>
        <dc:type
           rdf:resource="http://purl.org/dc/dcmitype/StillImage" />
        <dc:title></dc:title>
      </cc:Work>
    </rdf:RDF>
  </metadata>
  <path
     style="fill:#BF9E73;fill-rule:evenodd;fill-opacity:1"
     inkscape:connector-curvature="0"
     d="m 471.95,253.05 c 0,120.9 -98.01,218.9 -218.9,218.9 -120.9,0 -218.9,-98.01 -218.9,-218.9 0,-120.9 98.01,-218.9 218.9,-218.9 120.9,0 218.9,98.01 218.9,218.9"
     id="path6" />
  <path
     inkscape:connector-curvature="0"
     id="path18019"
     d="m 261.81151,83.741731 c -93.90536,0 -170.041136,75.009669 -170.041136,167.526149 l 0.0074,0.007 c 0.0011,46.25825 19.033946,88.13122 49.803496,118.45251 l 0.29097,0.28698 c -0.0953,-0.0936 -0.19572,-0.18573 -0.29097,-0.2799 l 138.0968,101.44323 c 113.30259,-27.33774 174.0154,-91.25237 196.0866,-202.87967 L 385.93747,144.46285 C 355.17315,114.14669 308.78149,83.762183 261.82883,83.762183"
     style="opacity:0.25"
     sodipodi:nodetypes="cccccccccc" />
  <path
     style="fill-opacity:0.06700003;fill-rule:evenodd"
     inkscape:connector-curvature="0"
     d="M 256,1 C 115.17,1 1,115.17 1,256 1,396.83 115.17,511 256,511 396.83,511 511,396.83 511,256 511,115.17 396.83,1 256,1 m 8.827,44.931 c 120.9,0 218.9,98 218.9,218.9 0,120.9 -98,218.9 -218.9,218.9 -120.9,0 -218.93,-98 -218.93,-218.9 0,-120.9 98.03,-218.9 218.93,-218.9"
     id="path8" />
  <g
     style="fill-opacity:0.12900002;fill-rule:evenodd"
     id="g10">
    <path
       inkscape:connector-curvature="0"
       d="m 256,4.433 c -138.94,0 -251.57,112.63 -251.57,251.57 0,138.94 112.63,251.57 251.57,251.57 138.94,0 251.57,-112.63 251.57,-251.57 C 507.57,117.063 394.94,4.433 256,4.433 m 5.885,38.556 c 120.9,0 218.9,98 218.9,218.9 0,120.9 -98,218.9 -218.9,218.9 -120.9,0 -218.93,-98 -218.93,-218.9 0,-120.9 98.03,-218.9 218.93,-218.9"
       id="path12" />
    <path
       inkscape:connector-curvature="0"
       d="m 256,8.356 c -136.77,0 -247.64,110.87 -247.64,247.64 0,136.77 110.87,247.64 247.64,247.64 136.77,0 247.64,-110.87 247.64,-247.64 C 503.64,119.226 392.77,8.356 256,8.356 m 2.942,31.691 c 120.9,0 218.9,98 218.9,218.9 0,120.9 -98,218.9 -218.9,218.9 -120.9,0 -218.93,-98 -218.93,-218.9 0,-120.9 98.03,-218.9 218.93,-218.9"
       id="path14" />
  </g>
  <path
     style="fill:#ffffff;fill-rule:evenodd;stroke:#000000;stroke-width:4.90399981;stroke-opacity:0.31000001"
     inkscape:connector-curvature="0"
     d="m 253.04,7.859 c -135.42,0 -245.19,109.78 -245.19,245.19 0,135.42 109.78,245.19 245.19,245.19 135.42,0 245.19,-109.78 245.19,-245.19 0,-135.42 -109.78,-245.19 -245.19,-245.19 z m 0,26.297 c 120.9,0 218.9,98 218.9,218.9 0,120.9 -98,218.9 -218.9,218.9 -120.9,0 -218.93,-98 -218.93,-218.9 0,-120.9 98.03,-218.9 218.93,-218.9 z"
     id="path16" />
  <g
     transform="matrix(2.3652906,0,0,2.3652906,-44.403603,-1934.8143)"
     id="g3343">
    <path
       inkscape:connector-curvature="0"
       id="path33831"
       d="m 128.00001,853.70593 c -21.09623,0 -40.018466,9.2427 -52.963474,23.89675 l 23.130828,40.0194 c 3.084946,-13.62809 15.293686,-23.85846 29.832646,-23.85846 l 0,-0.0766 63.64807,0 c -11.41838,-23.65741 -35.61318,-39.9811 -63.64807,-39.9811 z"
       style="color:#000000;display:inline;overflow:visible;visibility:visible;fill:#f2f2f2;fill-opacity:1;fill-rule:nonzero;stroke:none;stroke-width:16;marker:none;enable-background:accumulate" />
    <path
       inkscape:connector-curvature="0"
       id="path33829"
       d="m 69.789974,884.30449 c -7.845597,11.38289 -12.446224,25.18343 -12.446224,40.0577 0,34.23197 24.325879,62.7784 56.63989,69.27759 l 23.09254,-40.05769 c -2.87148,0.89625 -5.91584,1.37866 -9.07617,1.37866 -12.62892,0 -23.52281,-7.69129 -28.185914,-18.65019 -0.0049,-0.011 0.0049,-0.0275 0,-0.0382 L 69.789974,884.30449 Z"
       style="color:#000000;display:inline;overflow:visible;visibility:visible;fill:#f9f9f9;fill-opacity:1;fill-rule:nonzero;stroke:none;stroke-width:16;marker:none;enable-background:accumulate" />
    <path
       inkscape:connector-curvature="0"
       id="path33827"
       d="m 128.00001,901.23136 c -12.77439,0 -23.13083,10.35644 -23.13083,23.13083 0,12.77438 10.35644,23.13082 23.13083,23.13082 12.77438,0 23.13082,-10.35644 23.13082,-23.13082 0,-12.77439 -10.35644,-23.13083 -23.13082,-23.13083 z"
       style="color:#000000;display:inline;overflow:visible;visibility:visible;fill:#ffffff;fill-opacity:1;fill-rule:nonzero;stroke:none;stroke-width:16;marker:none;enable-background:accumulate" />
    <path
       inkscape:connector-curvature="0"
       id="path33797"
       d="m 148.37352,901.57602 c 6.26927,5.60968 10.22505,13.74383 10.22505,22.78617 0,6.95446 -2.34799,13.3871 -6.28056,18.5353 l 0.0382,0.0382 -29.94753,51.85288 c 1.84397,0.14422 3.71015,0.22978 5.59122,0.22978 39.03049,0 70.65626,-31.62577 70.65626,-70.65626 0,-7.97962 -1.35449,-15.63251 -3.79131,-22.78616 l -46.49143,0 z"
       style="color:#000000;display:inline;overflow:visible;visibility:visible;fill:#ffffff;fill-opacity:1;fill-rule:nonzero;stroke:none;stroke-width:16;marker:none;enable-background:accumulate" />
  </g>
  <g
     transform="matrix(1.7872622,0,0,1.7872622,206.24408,242.06505)"
     id="g3021">
    <path
       inkscape:connector-curvature="0"
       id="path3019"
       d="m 98.179393,68.57833 c 0.16001,-0.258241 1.23222,-1.705226 2.382687,-3.215525 1.15048,-1.510294 2.09178,-3.017897 2.09178,-3.350231 0,-0.554531 -1.40169,-0.604243 -17.037357,-0.604243 -9.37054,0 -17.1162,0.07885 -17.21257,0.175221 -0.28165,0.281652 -36.55931,0.638545 -37.77461,0.371619 l -1.10394,-0.242469 0.0946,-16.533493 0.0946,-16.533494 40.65675,-0.08005 40.656747,-0.08005 -0.0945,16.734201 c -0.0613,10.858076 -0.22224,16.7311 -0.45829,16.725364 -0.20008,-0.0049 -2.97783,1.591255 -6.17278,3.546924 -5.761297,3.526569 -6.684127,3.991705 -6.123107,3.086235 z"
       style="fill:#3e3e40" />
    <path
       inkscape:connector-curvature="0"
       id="path3017"
       d="m 51.011493,53.916977 c 0.69047,-0.403254 1.62429,-1.280588 2.07516,-1.949627 1.34602,-1.997356 0.96118,-5.453441 -0.76695,-6.887656 -0.47458,-0.39387 -0.42741,-0.620635 0.37285,-1.792443 1.62027,-2.37252 0.70719,-5.515136 -2.07587,-7.144704 -0.96575,-0.565474 -2.10079,-0.741816 -5.57117,-0.865544 -3.90181,-0.139119 -4.40904,-0.08602 -4.84256,0.506843 -0.37093,0.50728 -0.48424,2.682873 -0.48424,9.297613 0,7.614157 0.0725,8.707906 0.61333,9.248705 0.93716,0.937153 8.89449,0.629284 10.67945,-0.413187 z"
       style="fill:#ffffff" />
    <path
       inkscape:connector-curvature="0"
       id="path3015"
       d="m 44.357003,51.017521 c -0.15006,-0.154155 -0.27284,-1.235216 -0.27284,-2.40237 l 0,-2.12209 1.91988,0 c 2.46536,0 3.53692,0.709148 3.53692,2.340703 0,0.664444 -0.23425,1.402492 -0.52055,1.640104 -0.62255,0.516665 -4.27517,0.94248 -4.66341,0.543653 z"
       style="fill:#3e3e40" />
    <path
       inkscape:connector-curvature="0"
       id="path3013"
       d="m 44.084163,41.036258 0,-1.818935 2.10996,0 c 2.26783,0 2.98306,0.403712 2.98306,1.683815 0,1.361485 -0.9456,1.954054 -3.11818,1.954054 l -1.97484,0 0,-1.818934 z"
       style="fill:#3e3e40" />
    <path
       inkscape:connector-curvature="0"
       id="path3011"
       d="m 68.021763,54.626009 c 0.72724,-0.194788 0.82274,-0.420953 0.72757,-1.723024 l -0.10955,-1.498796 -4.18355,-0.181895 -4.18355,-0.181894 0,-2.18272 0,-2.182724 3.44358,-0.105636 c 3.63732,-0.111582 3.9987,-0.284076 4.00848,-1.913381 0.009,-1.543126 -0.59886,-1.800747 -4.25074,-1.800747 l -3.38322,0 0,-1.818934 0,-1.818935 3.66179,0 c 4.31537,0 5.0691,-0.288591 5.0691,-1.94087 0,-1.960872 -0.32038,-2.060788 -6.60812,-2.060788 -5.38939,0 -5.75884,0.04447 -6.12993,0.737869 -0.26177,0.489124 -0.35807,3.682326 -0.28564,9.472203 0.0911,7.285233 0.19979,8.791485 0.65493,9.078809 0.60025,0.378917 10.23016,0.480026 11.56885,0.121463 z"
       style="fill:#ffffff" />
    <path
       inkscape:connector-curvature="0"
       id="path3009"
       d="m 78.667843,54.48358 c 0.66049,-0.353491 0.70365,-0.833255 0.70365,-7.821422 l 0,-7.444835 1.90989,-0.005 c 1.05043,-0.0028 2.26435,-0.100051 2.69759,-0.216268 0.94937,-0.25466 1.34531,-1.566437 0.85893,-2.845709 l -0.35538,-0.934697 -7.0119,0.0056 c -3.85655,0.0028 -7.23291,0.145617 -7.50302,0.316792 -0.49699,0.314952 -0.6914,2.799936 -0.25331,3.238025 0.13079,0.130788 1.37494,0.30205 2.76478,0.380586 l 2.52698,0.142784 0,7.398509 c 0,6.662408 0.0633,7.435394 0.63663,7.769305 0.8285,0.482558 2.14077,0.489649 3.02516,0.01634 z"
       style="fill:#ffffff" />
    <path
       inkscape:connector-curvature="0"
       id="path3007"
       d="m 86.631613,54.50476 c 0.36526,-0.195488 0.96185,-1.183399 1.32574,-2.195364 l 0.66164,-1.839937 3.25811,0.103585 3.2581,0.103589 0.58302,1.745474 c 0.64369,1.927099 1.18141,2.42418 2.63139,2.432507 1.3426,0.0077 2.121527,-0.341519 2.121527,-0.951164 0,-0.8657 -6.604717,-18.123727 -7.045337,-18.409358 -0.69128,-0.448116 -2.69437,-0.308978 -3.22755,0.224202 -0.27643,0.276433 -2.02256,4.482646 -3.88029,9.347138 -3.16112,8.277476 -3.33602,8.874991 -2.72792,9.319641 0.76953,0.562696 2.11487,0.615639 3.04157,0.119687 z"
       style="fill:#ffffff" />
    <path
       inkscape:connector-curvature="0"
       id="path2984"
       d="m 90.205863,46.656361 c -0.11028,-0.110274 0.11454,-1.051573 0.4996,-2.091774 0.38506,-1.040198 0.78981,-2.136824 0.89944,-2.43695 0.1683,-0.460697 1.92854,3.565652 1.94825,4.456393 0.007,0.311629 -3.0421,0.377522 -3.34729,0.07233 z"
       style="fill:#3e3e40" />
  </g>
</svg>
