<?xml version="1.0" encoding="UTF-8" standalone="no"?>
<svg xmlns="http://www.w3.org/2000/svg" xmlns:sodipodi="http://sodipodi.sourceforge.net/DTD/sodipodi-0.dtd" xmlns:inkscape="http://www.inkscape.org/namespaces/inkscape" version="1.1" viewBox="0 0 512 512">
 <metadata id="metadata3286"/>
 <path inkscape:connector-curvature="0" id="path1154" d="m 470.41,253.05 c 0,120.9 -98.01,218.91 -218.91,218.91 -120.9,0 -218.91,-98.01 -218.91,-218.91 0,-120.9 98.01,-218.91 218.91,-218.91 120.9,0 218.91,98.01 218.91,218.91" fill="#BF9E73" fill-rule="evenodd"/>
 <path inkscape:connector-curvature="0" id="path1156" d="m 414.44,106.88 -62.938,53.625 0.125,0.031 c -0.012,0.011 -1.062,0.906 -1.063,0.906 0,0 0.124,0.031 0.125,0.031 -0.013,0.011 -1.062,0.905 -1.063,0.906 0,0 0.093,0.031 0.094,0.031 -0.012,0.011 -0.999,0.874 -1,0.875 0,0 0.092,0.03 0.094,0.031 -0.013,0.011 -0.998,0.873 -1,0.875 -0.001,0.001 0.092,0.03 0.094,0.031 -0.043,0.037 -1.027,0.902 -1.031,0.906 -0.001,0.001 0.093,0.03 0.094,0.031 -0.041,0.036 -0.995,0.87 -1,0.875 -0.002,0.002 0.086,0.057 0.094,0.063 -0.041,0.036 -0.994,0.838 -1,0.844 -0.002,0.002 0.089,0.027 0.094,0.031 -0.043,0.038 -0.993,0.868 -1,0.875 -0.002,0.002 0.089,0.026 0.094,0.031 -0.041,0.037 -0.961,0.836 -0.969,0.844 -0.003,0.003 0.086,0.055 0.094,0.063 -0.044,0.039 -0.991,0.835 -1,0.844 -0.003,0.003 0.089,0.026 0.094,0.031 -0.043,0.038 -0.959,0.834 -0.969,0.844 -0.006,0.006 0.043,0.047 0.063,0.063 -0.042,0.037 -0.928,0.803 -0.938,0.813 -0.006,0.006 0.043,0.047 0.063,0.063 -0.043,0.038 -0.927,0.802 -0.938,0.813 -0.007,0.007 0.044,0.046 0.063,0.063 -0.044,0.039 -0.926,0.801 -0.938,0.813 -0.007,0.007 0.045,0.046 0.063,0.063 -0.045,0.04 -0.925,0.8 -0.938,0.813 -0.008,0.008 0.046,0.045 0.063,0.063 -0.043,0.039 -0.893,0.768 -0.906,0.781 -0.008,0.008 0.046,0.045 0.063,0.063 -0.133,0.118 -0.912,0.787 -0.938,0.813 -0.01,0.01 0.041,0.041 0.063,0.063 -0.127,0.112 -0.88,0.755 -0.906,0.781 -0.01,0.01 0.042,0.04 0.063,0.063 -0.128,0.114 -0.878,0.753 -0.906,0.781 -0.008,0.008 0.022,0.047 0.031,0.063 -0.126,0.112 -0.846,0.752 -0.875,0.781 -0.009,0.009 0.022,0.047 0.031,0.063 -0.126,0.112 -0.845,0.751 -0.875,0.781 -0.016,0.016 -0.006,0.058 0.031,0.094 -0.124,0.11 -0.844,0.719 -0.875,0.75 -0.017,0.017 -0.008,0.055 0.031,0.094 -0.117,0.105 -0.812,0.687 -0.844,0.719 -0.017,0.018 -0.004,0.057 0.031,0.094 -0.126,0.113 -0.841,0.716 -0.875,0.75 -0.018,0.018 -0.002,0.056 0.031,0.094 -0.12,0.107 -0.809,0.685 -0.844,0.719 -0.019,0.019 -10e-4,0.056 0.031,0.094 -0.12,0.108 -0.808,0.683 -0.844,0.719 -0.018,0.018 -0.025,0.06 0,0.094 -0.117,0.106 -0.776,0.683 -0.813,0.719 -0.021,0.021 -0.002,0.053 0.031,0.094 -0.122,0.111 -0.805,0.68 -0.844,0.719 -0.019,0.019 -0.023,0.059 0,0.094 -0.119,0.108 -0.774,0.68 -0.813,0.719 -0.022,0.022 0.004,0.054 0.031,0.094 -0.117,0.106 -0.773,0.648 -0.813,0.688 -0.017,0.017 -0.011,0.036 0,0.063 -0.122,0.11 -0.771,0.677 -0.813,0.719 -0.021,0.021 -0.02,0.089 0,0.125 -0.115,0.104 -0.74,0.646 -0.781,0.688 -0.022,0.022 -0.019,0.057 0,0.094 -0.115,0.105 -0.739,0.645 -0.781,0.688 -0.023,0.023 -0.018,0.057 0,0.094 -0.117,0.107 -0.737,0.644 -0.781,0.688 -0.019,0.019 -0.008,0.034 0,0.063 -0.118,0.108 -0.736,0.642 -0.781,0.688 -0.024,0.024 -0.016,0.087 0,0.125 -0.111,0.102 -0.705,0.612 -0.75,0.656 -0.026,0.026 -0.018,0.053 0,0.094 -0.12,0.11 -0.734,0.64 -0.781,0.688 -0.026,0.026 -0.017,0.052 0,0.094 -0.113,0.104 -0.703,0.609 -0.75,0.656 -0.027,0.027 -0.015,0.052 0,0.094 -0.114,0.105 -0.702,0.608 -0.75,0.656 -0.021,0.021 -0.035,0.064 -0.031,0.094 -0.111,0.103 -0.67,0.608 -0.719,0.656 -0.022,0.022 -0.034,0.064 -0.031,0.094 -0.112,0.103 -0.669,0.607 -0.719,0.656 -0.027,0.028 -0.041,0.054 -0.031,0.094 -0.113,0.104 -0.668,0.605 -0.719,0.656 -0.027,0.027 -0.039,0.055 -0.031,0.094 -0.106,0.099 -0.638,0.575 -0.688,0.625 -0.023,0.023 -0.032,0.063 -0.031,0.094 -0.114,0.106 -0.666,0.603 -0.719,0.656 -0.029,0.029 -0.038,0.052 -0.031,0.094 -0.108,0.101 -0.635,0.573 -0.688,0.625 -0.024,0.024 -0.03,0.062 -0.031,0.094 -0.109,0.102 -0.634,0.572 -0.688,0.625 -0.025,0.025 -0.03,0.061 -0.031,0.094 -0.11,0.103 -0.633,0.571 -0.688,0.625 -0.025,0.025 -0.029,0.061 -0.031,0.094 -0.111,0.104 -0.632,0.569 -0.688,0.625 -0.026,0.026 -0.028,0.061 -0.031,0.094 -0.112,0.104 -0.631,0.568 -0.688,0.625 -0.032,0.032 -0.033,0.051 -0.031,0.094 -0.106,0.099 -0.601,0.538 -0.656,0.594 -0.033,0.033 -0.063,0.082 -0.063,0.125 -0.106,0.099 -0.6,0.537 -0.656,0.594 -0.034,0.034 -0.032,0.049 -0.031,0.094 -0.107,0.1 -0.599,0.536 -0.656,0.594 -0.027,0.027 -0.025,0.06 -0.031,0.094 -0.108,0.101 -0.598,0.535 -0.656,0.594 -0.036,0.036 -0.062,0.077 -0.063,0.125 -0.101,0.095 -0.568,0.506 -0.625,0.563 -0.037,0.037 -0.061,0.077 -0.063,0.125 -0.102,0.096 -0.567,0.505 -0.625,0.563 -0.029,0.029 -0.023,0.059 -0.031,0.094 -0.103,0.097 -0.566,0.504 -0.625,0.563 -0.036,0.036 -0.058,0.079 -0.063,0.125 -0.104,0.098 -0.565,0.503 -0.625,0.563 -0.037,0.037 -0.057,0.078 -0.063,0.125 -0.097,0.092 -0.536,0.473 -0.594,0.531 -0.038,0.037 -0.056,0.078 -0.063,0.125 -0.099,0.093 -0.535,0.472 -0.594,0.531 -0.038,0.038 -0.055,0.078 -0.063,0.125 -0.099,0.094 -0.534,0.471 -0.594,0.531 -0.031,0.031 -0.051,0.088 -0.063,0.125 -0.1,0.095 -0.533,0.47 -0.594,0.531 -0.039,0.039 -0.053,0.078 -0.063,0.125 -0.101,0.096 -0.532,0.469 -0.594,0.531 -0.039,0.039 -0.053,0.077 -0.063,0.125 -0.101,0.096 -0.531,0.469 -0.594,0.531 -0.04,0.04 -0.052,0.076 -0.063,0.125 -0.094,0.09 -0.502,0.44 -0.563,0.5 -0.04,0.04 -0.051,0.077 -0.063,0.125 -0.096,0.091 -0.501,0.438 -0.563,0.5 -0.033,0.033 -0.079,0.087 -0.094,0.125 -0.096,0.092 -0.5,0.438 -0.563,0.5 -0.033,0.033 -0.047,0.087 -0.063,0.125 -0.097,0.093 -0.499,0.437 -0.563,0.5 -0.042,0.042 -0.048,0.107 -0.063,0.156 -0.09,0.087 -0.471,0.408 -0.531,0.469 -0.042,0.042 -0.079,0.107 -0.094,0.156 -0.091,0.088 -0.47,0.407 -0.531,0.469 -0.035,0.035 -0.077,0.086 -0.094,0.125 -0.095,0.091 -0.467,0.436 -0.531,0.5 -0.035,0.035 -0.045,0.054 -0.063,0.094 -0.096,0.092 -0.466,0.435 -0.531,0.5 -0.035,0.035 -0.075,0.085 -0.094,0.125 -0.089,0.086 -0.438,0.407 -0.5,0.469 -0.036,0.036 -0.075,0.085 -0.094,0.125 -0.094,0.09 -0.466,0.404 -0.531,0.469 -0.036,0.036 -0.043,0.085 -0.063,0.125 -0.094,0.091 -0.466,0.403 -0.531,0.469 -0.035,0.035 -0.011,0.086 -0.031,0.125 -0.095,0.092 -0.465,0.402 -0.531,0.469 -0.026,0.026 -0.013,0.066 -0.031,0.094 -0.045,0.042 -0.146,0.117 -0.188,0.156 -0.063,0.062 -0.326,0.295 -0.375,0.344 -0.007,0.007 0.007,0.024 0,0.031 -0.113,0.108 -0.517,0.454 -0.594,0.531 -0.038,0.038 -0.041,0.083 -0.063,0.125 -0.093,0.09 -0.433,0.402 -0.5,0.469 -0.019,0.019 -0.016,0.043 -0.031,0.063 -0.102,0.098 -0.459,0.428 -0.531,0.5 -0.029,0.029 -0.042,0.062 -0.063,0.094 -0.095,0.091 -0.431,0.4 -0.5,0.469 -0.03,0.03 -0.042,0.062 -0.063,0.094 -0.096,0.092 -0.43,0.399 -0.5,0.469 -0.03,0.03 -0.041,0.062 -0.063,0.094 -0.096,0.093 -0.43,0.399 -0.5,0.469 -0.012,0.012 -0.021,0.019 -0.031,0.031 -0.105,0.101 -0.456,0.424 -0.531,0.5 -0.036,0.036 -0.038,0.086 -0.063,0.125 -0.09,0.087 -0.401,0.37 -0.469,0.438 -0.031,0.031 -0.04,0.061 -0.063,0.094 -0.091,0.088 -0.401,0.369 -0.469,0.438 -0.007,0.007 0.006,0.024 0,0.031 -0.111,0.107 -0.482,0.419 -0.563,0.5 -0.018,0.018 -0.016,0.044 -0.031,0.063 -0.099,0.097 -0.426,0.394 -0.5,0.469 -0.036,0.036 -0.037,0.087 -0.063,0.125 -0.085,0.082 -0.372,0.341 -0.438,0.406 -0.028,0.028 -0.041,0.065 -0.063,0.094 -0.093,0.09 -0.398,0.366 -0.469,0.438 -0.028,0.028 -0.041,0.065 -0.063,0.094 -0.093,0.091 -0.397,0.366 -0.469,0.438 -0.025,0.025 -0.042,0.037 -0.063,0.063 -0.09,0.088 -0.367,0.367 -0.438,0.438 -0.022,0.022 -0.044,0.04 -0.063,0.063 -0.091,0.089 -0.366,0.366 -0.438,0.438 -0.007,0.007 0.006,0.025 0,0.031 -0.108,0.105 -0.449,0.387 -0.531,0.469 -0.029,0.029 -0.039,0.064 -0.063,0.094 -0.088,0.086 -0.368,0.336 -0.438,0.406 -0.047,0.047 -0.061,0.107 -0.094,0.156 -0.074,0.072 -0.315,0.284 -0.375,0.344 -0.032,0.032 -0.068,0.06 -0.094,0.094 -0.085,0.083 -0.338,0.338 -0.406,0.406 -0.023,0.023 -0.043,0.039 -0.063,0.063 -0.093,0.091 -0.363,0.363 -0.438,0.438 -0.032,0.032 -0.037,0.061 -0.063,0.094 -0.082,0.08 -0.339,0.308 -0.406,0.375 -0.023,0.023 -0.043,0.039 -0.063,0.063 -0.087,0.085 -0.336,0.336 -0.406,0.406 -0.029,0.028 -0.039,0.065 -0.063,0.094 -0.084,0.082 -0.338,0.306 -0.406,0.375 -0.029,0.029 -0.038,0.064 -0.063,0.094 -0.084,0.083 -0.337,0.306 -0.406,0.375 -0.029,0.029 -0.038,0.064 -0.063,0.094 -0.084,0.083 -0.337,0.305 -0.406,0.375 -0.029,0.029 -0.038,0.064 -0.063,0.094 -0.085,0.083 -0.336,0.305 -0.406,0.375 -0.029,0.029 -0.038,0.064 -0.063,0.094 -0.078,0.077 -0.31,0.278 -0.375,0.344 -0.023,0.023 -0.042,0.039 -0.063,0.063 -0.089,0.088 -0.332,0.332 -0.406,0.406 -0.03,0.03 -0.037,0.064 -0.063,0.094 -0.078,0.077 -0.309,0.278 -0.375,0.344 -0.03,0.03 -0.037,0.064 -0.063,0.094 -0.079,0.077 -0.308,0.277 -0.375,0.344 -0.023,0.023 -0.042,0.039 -0.063,0.063 -0.083,0.082 -0.305,0.305 -0.375,0.375 -0.096,0.095 -0.358,0.327 -0.438,0.406 -0.046,0.046 -0.057,0.11 -0.094,0.156 -0.065,0.064 -0.256,0.225 -0.313,0.281 -0.027,0.027 -0.038,0.066 -0.063,0.094 -0.081,0.08 -0.306,0.275 -0.375,0.344 -0.024,0.024 -0.041,0.038 -0.063,0.063 -0.077,0.076 -0.277,0.277 -0.344,0.344 -0.098,0.098 -0.19,0.181 -0.25,0.281 -0.012,0.011 -0.051,0.02 -0.063,0.031 l -0.094,0.094 c -0.022,0.022 -0.043,0.041 -0.063,0.063 -0.078,0.077 -0.276,0.276 -0.344,0.344 -0.022,0.022 -0.043,0.041 -0.063,0.063 -0.078,0.077 -0.276,0.276 -0.344,0.344 -0.022,0.022 -0.042,0.041 -0.063,0.063 -0.079,0.078 -0.275,0.275 -0.344,0.344 -0.1,0.1 -0.186,0.18 -0.25,0.281 -0.012,0.011 -0.051,0.02 -0.063,0.031 l -0.063,0.063 c -0.022,0.022 -0.042,0.04 -0.063,0.063 -0.079,0.078 -0.274,0.274 -0.344,0.344 -0.101,0.101 -0.184,0.18 -0.25,0.281 -0.015,0.015 -0.047,0.048 -0.063,0.063 -0.01,0.01 -0.053,0.021 -0.063,0.031 -0.017,0.017 -0.015,0.045 -0.031,0.063 -0.029,0.028 -0.097,0.066 -0.125,0.094 l -0.219,0.219 c -0.017,0.017 -0.015,0.045 -0.031,0.063 -0.029,0.029 -0.097,0.066 -0.125,0.094 l -0.219,0.219 c -0.017,0.018 -0.015,0.045 -0.031,0.063 -0.015,0.015 -0.048,0.017 -0.063,0.031 l -0.063,0.063 -0.219,0.219 c -0.018,0.018 -0.015,0.045 -0.031,0.063 -0.033,0.033 -0.093,0.094 -0.125,0.125 -0.046,0.046 -0.176,0.145 -0.219,0.188 -0.189,0.185 -0.57,0.538 -0.719,0.688 -0.097,0.097 -0.18,0.186 -0.25,0.281 l -0.031,0.031 -0.031,0.031 -0.031,0.031 c -0.018,0.018 -0.014,0.045 -0.031,0.063 -0.046,0.045 -0.144,0.113 -0.188,0.156 l -0.125,0.125 c -0.022,0.022 -0.042,0.041 -0.063,0.063 -0.162,0.159 -0.492,0.461 -0.625,0.594 -0.045,0.045 -0.054,0.111 -0.094,0.156 -0.009,0.009 -0.022,0.023 -0.031,0.031 l -0.031,0.031 -0.031,0.031 -0.031,0.031 -0.031,0 c -0.003,0.003 0.003,0.028 0,0.031 l -0.031,0 -0.031,0.031 c -0.007,0.007 0.007,0.025 0,0.031 l -0.063,0.031 -0.031,0.031 -0.031,0.031 c -0.01,0.011 -0.022,0.02 -0.031,0.031 l -0.031,0.031 -0.156,0.156 c -0.022,0.022 -0.041,0.04 -0.063,0.063 l -0.094,0.094 -0.063,0.063 -0.094,0.094 c -0.022,0.023 -0.041,0.04 -0.063,0.063 l -0.063,0.063 -0.031,0.031 -0.219,0.219 c -0.009,0.008 -0.023,0.023 -0.031,0.031 l -0.281,0.281 -0.031,0.031 c -0.151,0.149 -0.4,0.4 -0.531,0.531 l -0.063,0.063 -0.031,0.031 c -0.049,0.049 -0.173,0.141 -0.219,0.188 -0.06,0.06 -0.104,0.129 -0.156,0.188 l -0.125,0.125 -0.188,0.188 c -0.008,0.007 -0.024,0.024 -0.031,0.031 l -0.063,0.063 c -0.012,0.012 -0.02,0.019 -0.031,0.031 -0.043,0.043 -0.111,0.112 -0.156,0.156 -0.009,0.009 -0.022,0.023 -0.031,0.031 l -0.063,0.063 c -0.012,0.012 -0.02,0.019 -0.031,0.031 l -0.25,0.25 -0.031,0.031 -0.094,0.094 -0.156,0.156 c -0.012,0.012 -0.02,0.019 -0.031,0.031 l -0.156,0.156 -0.094,0.094 c -0.033,0.032 -0.061,0.061 -0.094,0.094 -0.022,0.021 -0.041,0.041 -0.063,0.063 -0.027,0.027 -0.099,0.068 -0.125,0.094 -0.053,0.053 -0.077,0.105 -0.125,0.156 -0.031,0.03 -0.096,0.096 -0.125,0.125 l -0.031,0.031 -0.219,0.219 c -0.012,0.012 -0.02,0.019 -0.031,0.031 l -0.219,0.219 c -0.01,0.011 -0.022,0.02 -0.031,0.031 -0.055,0.055 -0.166,0.167 -0.219,0.219 -0.012,0.012 -0.02,0.019 -0.031,0.031 -0.056,0.055 -0.166,0.166 -0.219,0.219 -0.01,0.011 -0.022,0.02 -0.031,0.031 -0.056,0.055 -0.166,0.166 -0.219,0.219 l -0.219,0.219 -0.031,0.031 c -0.007,0.007 -0.025,-0.007 -0.031,0 l -0.031,0.031 -0.156,0.156 c -0.076,0.076 -0.12,0.146 -0.188,0.219 l -0.031,0.031 c -0.01,0.011 -0.021,0.02 -0.031,0.031 l -0.188,0.188 -0.031,0.031 -0.188,0.188 c -0.014,0.014 -0.017,0.018 -0.031,0.031 -0.014,0.014 -0.017,0.018 -0.031,0.031 l -0.031,0.031 c -0.007,0.007 -0.024,-0.007 -0.031,0 l -0.031,0.031 -0.063,0.063 c -0.077,0.077 -0.119,0.145 -0.188,0.219 l -0.063,0.063 -0.034,0.037 c -0.007,0.007 -0.024,-0.007 -0.031,0 l -0.094,0.094 c -0.075,0.076 -0.119,0.147 -0.188,0.219 l -0.188,0.188 c -0.028,0.031 -0.067,0.063 -0.094,0.094 l -0.094,0.094 c -0.029,0.028 -0.065,0.066 -0.094,0.094 -0.01,0.01 -0.022,0.021 -0.031,0.031 -0.017,0.02 -0.046,0.042 -0.063,0.063 l -0.094,0.094 -0.031,0.031 c -0.008,0.007 -0.024,0.024 -0.031,0.031 l -0.031,0.031 -0.031,0.031 -0.125,0.125 c -0.011,0.012 -0.02,0.02 -0.031,0.031 l -0.156,0.156 -0.094,0.094 -0.031,0.031 -0.031,0.031 c -0.009,0.01 -0.022,0.021 -0.031,0.031 -0.119,0.118 -0.327,0.327 -0.438,0.438 l -0.156,0.156 -0.125,0.125 -0.031,0.031 c -0.006,0.006 -0.025,-0.006 -0.031,0 l -0.031,0.031 -0.063,0.063 c -0.06,0.06 -0.069,0.099 -0.125,0.156 l -0.125,0.125 c -0.023,0.024 -0.04,0.039 -0.063,0.063 -0.02,0.022 -0.043,0.041 -0.063,0.063 l -0.125,0.125 c -0.023,0.023 -0.072,0.071 -0.094,0.094 -0.031,0.03 -0.095,0.095 -0.125,0.125 l -0.094,0.094 -0.094,0.094 -0.094,0.094 -0.094,0.094 -0.094,0.094 -0.094,0.094 -0.063,0.063 c -0.026,0.026 -0.068,0.036 -0.094,0.063 l -0.063,0.063 -0.063,0.063 -0.063,0.063 c -0.015,0.015 -0.016,0.048 -0.031,0.063 -0.005,0.005 -0.026,-0.005 -0.031,0 -0.018,0.018 -0.013,0.044 -0.031,0.063 l -0.031,0.031 -0.031,0.031 c -0.015,0.015 -0.048,0.017 -0.063,0.031 l -0.031,0.031 c -0.005,0.005 0.005,0.026 0,0.031 l -0.031,0.031 c -0.005,0.005 -0.026,-0.005 -0.031,0 -0.006,0.006 0.005,0.026 0,0.031 -0.214,0.219 -0.481,0.472 -0.625,0.625 l -0.031,0.031 c -0.289,0.293 -0.818,0.81 -0.813,0.813 0,0.001 -0.031,0.031 -0.031,0.031 0,0.001 -0.031,0.031 -0.031,0.031 l -0.031,0.031 -0.031,0.031 c 0.003,10e-4 14.729,-0.002 26.719,0 l 187.68,0 c 0.013,-0.983 0.031,-1.951 0.031,-2.938 0,-56.19 -21.17,-107.43 -55.969,-146.19 z" fill="#BF9E73"/>
 <path inkscape:connector-curvature="0" id="path1158" d="m 256,34.22 0,184.94 c 0.003,0.426 -0.004,0.859 0,1.281 10e-4,0.47 -0.001,0.88 0,1.344 0.002,1.052 -0.003,2.01 0,3.03 l 0,0.719 c 10e-4,1.574 -0.001,1.596 0,3.063 0.002,13.175 -0.001,27.435 0,27.438 0,0 0.031,-0.03 0.031,-0.031 l 0.031,-0.031 c 0,0 0.03,-0.031 0.031,-0.031 10e-4,0 0.03,-0.031 0.031,-0.031 10e-4,0 0.03,-0.031 0.031,-0.031 0.001,0 0.029,-0.061 0.031,-0.063 0.002,-0.002 0.03,-0.031 0.031,-0.031 0,0.001 0.059,-0.06 0.063,-0.063 0,10e-4 0.059,-0.06 0.063,-0.063 0.004,0.01 0.309,-0.316 0.5,-0.5 0.023,-0.023 0.038,-0.007 0.063,-0.031 l 0.031,-0.031 0.031,-0.031 0.032,-0.032 0.031,-0.031 0.031,-0.031 0.031,-0.031 0.031,-0.031 0.063,-0.063 0.031,-0.031 c 0.015,-0.013 0.046,-0.048 0.063,-0.063 l 0.063,-0.063 0.063,-0.063 c 0.015,-0.013 0.047,-0.049 0.063,-0.063 l 0.094,-0.094 0.063,-0.063 0.094,-0.094 0.063,-0.063 0.094,-0.094 0.094,-0.094 0.125,-0.125 0.094,-0.094 0.094,-0.094 0.125,-0.125 0.125,-0.125 0.125,-0.125 0.125,-0.125 0.125,-0.125 c 0.031,-0.03 0.124,-0.124 0.156,-0.156 l 0.125,-0.125 0.156,-0.156 0.156,-0.156 0.156,-0.156 0.156,-0.156 0.156,-0.156 0.188,-0.188 c 0.051,-0.043 0.1,-0.105 0.156,-0.156 l 0.188,-0.188 0.188,-0.188 0.188,-0.188 0.188,-0.188 0.219,-0.219 c 0.029,-0.029 0.064,-0.065 0.094,-0.094 l 0.063,-0.063 0.031,-0.031 c 0.021,-0.021 0.041,-0.01 0.063,-0.031 0.107,-0.106 0.203,-0.204 0.313,-0.313 l 0.063,-0.063 0.063,-0.063 0.094,-0.094 0.188,-0.188 c 0.062,-0.061 0.125,-0.095 0.188,-0.156 0.005,-0.005 -0.005,-0.026 0,-0.031 0.065,-0.064 0.122,-0.122 0.188,-0.188 0.04,-0.04 0.085,-0.054 0.125,-0.094 l 0.094,-0.094 c 0.245,-0.243 0.459,-0.462 0.719,-0.719 0.022,-0.022 0.04,-0.041 0.063,-0.063 0.033,-0.032 0.061,-0.061 0.094,-0.094 0.25,-0.246 0.455,-0.459 0.719,-0.719 0.1,-0.099 0.179,-0.181 0.281,-0.281 0.029,-0.029 0.033,-0.065 0.063,-0.094 0.034,-0.034 0.059,-0.06 0.094,-0.094 l 0.094,-0.094 0.094,-0.094 0.063,-0.063 c 0.012,-0.012 0.019,-0.02 0.031,-0.031 0.048,-0.048 0.046,-0.047 0.094,-0.094 0.012,-0.012 0.019,-0.02 0.031,-0.031 l 0.063,-0.063 0.031,-0.031 c 0.029,-0.029 0.065,-0.034 0.094,-0.063 l 0.031,-0.031 c 0.031,-0.03 0.063,-0.032 0.094,-0.063 0.047,-0.046 0.078,-0.079 0.125,-0.125 0.216,-0.212 0.345,-0.318 0.563,-0.531 0.031,-0.03 0.031,-0.063 0.063,-0.094 0.053,-0.052 0.104,-0.073 0.156,-0.125 0.007,-0.006 -0.007,-0.025 0,-0.031 0.047,-0.046 0.079,-0.079 0.125,-0.125 l 0.031,-0.031 c 0.064,-0.063 0.124,-0.094 0.188,-0.156 0.068,-0.066 0.088,-0.121 0.156,-0.188 0.058,-0.057 0.099,-0.1 0.156,-0.156 l 0.031,-0.031 c 0.012,-0.011 0.02,-0.02 0.031,-0.031 0.023,-0.022 0.04,-0.04 0.063,-0.063 l 0.031,-0.031 0.031,-0.031 c 0.072,-0.071 0.147,-0.117 0.219,-0.188 0.069,-0.067 0.119,-0.12 0.188,-0.188 0.149,-0.146 0.258,-0.262 0.406,-0.406 0.08,-0.078 0.139,-0.141 0.219,-0.219 0.023,-0.022 0.04,-0.04 0.063,-0.063 0.034,-0.033 0.06,-0.061 0.094,-0.094 0.016,-0.016 0.047,-0.016 0.063,-0.031 0.046,-0.044 0.079,-0.081 0.125,-0.125 0.038,-0.037 0.055,-0.056 0.094,-0.094 0.079,-0.077 0.14,-0.142 0.219,-0.219 0.027,-0.027 0.066,-0.036 0.094,-0.063 0.062,-0.06 0.094,-0.128 0.156,-0.188 0.022,-0.022 0.04,-0.041 0.063,-0.063 0.015,-0.015 0.047,-0.016 0.063,-0.031 0.045,-0.043 0.08,-0.082 0.125,-0.125 0.068,-0.065 0.12,-0.122 0.188,-0.188 0.022,-0.022 0.04,-0.041 0.063,-0.063 l 0.031,-0.031 c 0.05,-0.048 0.075,-0.108 0.125,-0.156 0.042,-0.041 0.053,-0.023 0.094,-0.063 0.011,-0.011 0.02,-0.021 0.031,-0.031 0.016,-0.015 0.047,-0.016 0.063,-0.031 0.011,-0.011 0.02,-0.021 0.031,-0.031 0.045,-0.043 0.08,-0.082 0.125,-0.125 0.056,-0.054 0.1,-0.102 0.156,-0.156 0.045,-0.043 0.08,-0.082 0.125,-0.125 l 62.1,-52.908 c 0.021,-0.018 0.011,-0.014 0.031,-0.031 l 0.094,-0.063 c 0.062,-0.053 0.032,-0.042 0.094,-0.094 0.153,-0.13 0.101,-0.092 0.25,-0.219 0.078,-0.067 0.11,-0.09 0.188,-0.156 l 0.063,-0.031 c 0.079,-0.067 0.048,-0.059 0.125,-0.125 l 0.125,-0.094 c 0.019,-0.016 0.012,-0.015 0.031,-0.031 0.058,-0.049 0.037,-0.045 0.094,-0.094 0.203,-0.173 0.182,-0.148 0.375,-0.313 0.096,-0.082 0.094,-0.077 0.188,-0.156 0.017,-0.015 0.014,-0.017 0.031,-0.031 0.014,-0.012 0.017,-0.019 0.031,-0.031 2.822,-2.405 5.588,-4.746 5.625,-4.781 l 0.063,-0.063 -0.031,-0.031 0.063,-0.031 c 10e-4,-0.001 0.094,-0.062 0.094,-0.063 l 0.125,-0.125 c 0.006,-0.006 0.126,-0.124 0.125,-0.125 l -0.031,-0.031 c 0.005,-0.006 0.091,-0.059 0.094,-0.063 0.157,-0.144 0.139,-0.171 0.219,-0.25 0.086,-0.08 0.063,-0.064 0.125,-0.125 0.024,-0.02 0.039,-0.042 0.063,-0.063 0.004,-0.007 0.064,-0.061 0.063,-0.063 0.025,-0.024 0.039,-0.009 0.063,-0.031 0.047,-0.043 0.079,-0.083 0.125,-0.125 0.048,-0.041 0.077,-0.084 0.125,-0.125 0.021,-0.021 0.043,-0.012 0.063,-0.031 0.008,-0.008 -0.008,-0.024 0,-0.031 0.012,-0.01 0.019,-0.021 0.031,-0.031 0.011,-0.01 0.02,-0.021 0.031,-0.031 0.004,-0.004 0.027,0.004 0.031,0 0.034,-0.031 0.061,-0.032 0.094,-0.063 0.022,-0.019 0.041,-0.044 0.063,-0.063 0.025,-0.021 0.038,-0.042 0.063,-0.063 0.028,-0.024 0.035,-0.07 0.063,-0.094 0.006,-0.006 0.025,0.006 0.031,0 0.098,-0.089 0.187,-0.132 0.281,-0.219 0.102,-0.092 0.152,-0.161 0.25,-0.25 l 0.031,-0.031 c 0.05,-0.044 0.107,-0.081 0.156,-0.125 0.012,-0.011 0.019,-0.02 0.031,-0.031 0.036,-0.033 0.089,-0.061 0.125,-0.094 0.138,-0.12 0.273,-0.226 0.406,-0.344 0.087,-0.074 0.133,-0.145 0.219,-0.219 0.07,-0.064 0.119,-0.093 0.188,-0.156 0.121,-0.104 0.226,-0.179 0.344,-0.281 0.277,-0.236 0.52,-0.46 0.781,-0.688 0.276,-0.235 0.521,-0.46 0.781,-0.688 0.012,-0.01 0.02,-0.021 0.031,-0.031 0.03,-0.025 0.064,-0.037 0.094,-0.063 0.23,-0.206 0.442,-0.396 0.656,-0.594 0.023,-0.021 0.039,-0.042 0.063,-0.063 0.261,-0.222 0.504,-0.41 0.75,-0.625 0.047,-0.042 0.079,-0.083 0.125,-0.125 0.245,-0.209 0.456,-0.391 0.688,-0.594 0.069,-0.062 0.12,-0.126 0.188,-0.188 0.23,-0.196 0.438,-0.371 0.656,-0.563 0.086,-0.078 0.166,-0.142 0.25,-0.219 0.331,-0.292 0.668,-0.565 0.969,-0.844 0.214,-0.182 0.39,-0.353 0.594,-0.531 0.123,-0.112 0.226,-0.203 0.344,-0.313 l 1,-0.844 c 0.193,-0.165 0.347,-0.339 0.531,-0.5 0.017,-0.016 0.046,-0.016 0.063,-0.031 0.145,-0.127 0.298,-0.25 0.438,-0.375 0.367,-0.312 0.697,-0.605 1.031,-0.906 0.1,-0.085 0.183,-0.165 0.281,-0.25 0.068,-0.063 0.152,-0.126 0.219,-0.188 0.198,-0.173 0.407,-0.33 0.594,-0.5 0.393,-0.335 0.74,-0.646 1.094,-0.969 0.089,-0.076 0.163,-0.143 0.25,-0.219 l 0.875,-0.75 c 0.411,-0.35 0.79,-0.693 1.156,-1.031 0.419,-0.357 0.784,-0.686 1.156,-1.031 l 1.219,-1.031 c 0.441,-0.375 0.832,-0.73 1.219,-1.094 0.441,-0.375 0.864,-0.729 1.25,-1.094 0.451,-0.385 0.889,-0.75 1.281,-1.125 0.041,-0.035 0.084,-0.058 0.125,-0.094 l 1.188,-1.031 c 0.248,-0.211 0.458,-0.416 0.688,-0.625 l 0.656,-0.563 c 0.094,-0.08 0.159,-0.17 0.25,-0.25 l 1.125,-0.938 c 0.207,-0.177 0.368,-0.356 0.563,-0.531 l 0.813,-0.688 c 0.225,-0.191 0.416,-0.372 0.625,-0.563 l 0.781,-0.688 1.469,-1.25 c 0.107,-0.091 0.178,-0.19 0.281,-0.281 l 1.188,-1 c 0.219,-0.187 0.391,-0.376 0.594,-0.563 l 0.875,-0.75 c 0.047,-0.04 0.079,-0.085 0.125,-0.125 l 1.406,-1.188 c 0.159,-0.136 0.287,-0.27 0.438,-0.406 l 1.125,-0.969 c 0.258,-0.22 0.484,-0.435 0.719,-0.656 l 0.844,-0.719 c 0.343,-0.292 0.669,-0.58 0.969,-0.875 l 0.625,-0.531 c 0.269,-0.229 0.539,-0.456 0.781,-0.688 l 0.845,-0.72 c 0.28,-0.239 0.562,-0.477 0.813,-0.719 l 0.844,-0.719 c 0.328,-0.279 0.652,-0.56 0.938,-0.844 l 0.75,-0.656 c 0.254,-0.216 0.49,-0.405 0.719,-0.625 l 1,-0.844 c 0.303,-0.258 0.578,-0.519 0.844,-0.781 l 0.875,-0.75 c 0.252,-0.215 0.493,-0.437 0.719,-0.656 l 1.031,-0.875 c 0.251,-0.214 0.494,-0.438 0.719,-0.656 l 1.094,-0.906 c 0.25,-0.213 0.464,-0.438 0.688,-0.656 l 1.125,-0.938 c 0.261,-0.223 0.488,-0.428 0.719,-0.656 l 1.094,-0.938 c 0.248,-0.212 0.498,-0.439 0.719,-0.656 l 1.156,-0.969 c 0.115,-0.098 0.204,-0.213 0.313,-0.313 l 1.594,-1.344 c 0.246,-0.21 0.47,-0.439 0.688,-0.656 l 1.219,-1.031 c 0.245,-0.209 0.471,-0.44 0.688,-0.656 l 1.25,-1.063 c 0.244,-0.208 0.473,-0.409 0.688,-0.625 l 1.281,-1.094 c 0.255,-0.218 0.497,-0.429 0.719,-0.656 l 1.281,-1.094 c 0.242,-0.206 0.476,-0.409 0.688,-0.625 l 1.344,-1.125 c 0.241,-0.205 0.477,-0.441 0.688,-0.656 l 1.375,-1.156 c 0.24,-0.205 0.448,-0.41 0.656,-0.625 l 1.406,-1.188 c 0.263,-0.224 0.526,-0.45 0.75,-0.688 l 1.344,-1.156 c 0.045,-0.038 0.081,-0.086 0.125,-0.125 l 2.031,-1.719 c 0.035,-0.029 0.06,-0.064 0.094,-0.094 -39.26,-46.975 -97.87,-77.21 -163.56,-78.53" fill="#BF9E73"/>
 <path inkscape:connector-curvature="0" id="path1160" d="m 251.5,34.16 c -57.5,0 -109.81,22.15 -148.87,58.41 l 57.875,67.938 0.031,-0.125 c 0.011,0.012 0.906,1.062 0.906,1.063 0,0 0.031,-0.124 0.031,-0.125 0.011,0.013 0.905,1.062 0.906,1.063 0,0 0.031,-0.093 0.031,-0.094 0.011,0.012 0.874,0.999 0.875,1 0,0 0.03,-0.092 0.031,-0.094 0.011,0.013 0.873,0.998 0.875,1 0.001,0.001 0.03,-0.093 0.031,-0.094 0.037,0.042 0.902,1.027 0.906,1.031 0.001,10e-4 0.03,-0.093 0.031,-0.094 0.036,0.041 0.87,0.995 0.875,1 0.002,0.002 0.057,-0.086 0.063,-0.094 0.036,0.041 0.838,0.994 0.844,1 0.002,0.002 0.027,-0.089 0.031,-0.094 0.038,0.043 0.868,0.993 0.875,1 0.002,0.002 0.026,-0.089 0.031,-0.094 0.037,0.042 0.836,0.961 0.844,0.969 0.003,0.003 0.056,-0.087 0.063,-0.094 0.039,0.044 0.835,0.991 0.844,1 0.003,0.003 0.026,-0.089 0.031,-0.094 0.038,0.043 0.834,0.959 0.844,0.969 0.006,0.006 0.047,-0.042 0.063,-0.063 0.037,0.042 0.803,0.928 0.813,0.938 0.006,0.006 0.047,-0.043 0.063,-0.063 0.038,0.043 0.802,0.927 0.813,0.938 0.007,0.007 0.046,-0.044 0.063,-0.063 0.039,0.044 0.801,0.926 0.813,0.938 0.007,0.007 0.046,-0.045 0.063,-0.063 0.04,0.045 0.8,0.925 0.813,0.938 0.008,0.008 0.045,-0.045 0.063,-0.063 0.11,0.124 0.758,0.883 0.781,0.906 0.008,0.008 0.045,-0.046 0.063,-0.063 0.118,0.133 0.787,0.912 0.813,0.938 0.01,0.01 0.041,-0.041 0.063,-0.063 0.112,0.127 0.755,0.88 0.781,0.906 0.01,0.01 0.04,-0.042 0.063,-0.063 0.114,0.128 0.753,0.878 0.781,0.906 0.008,0.008 0.047,-0.022 0.063,-0.031 0.112,0.126 0.752,0.846 0.781,0.875 0.009,0.009 0.047,-0.022 0.063,-0.031 0.112,0.126 0.751,0.845 0.781,0.875 0.016,0.016 0.058,0.006 0.094,-0.031 0.11,0.124 0.719,0.844 0.75,0.875 0.017,0.017 0.055,0.008 0.094,-0.031 0.105,0.117 0.687,0.812 0.719,0.844 0.018,0.018 0.057,0.004 0.094,-0.031 0.113,0.126 0.716,0.841 0.75,0.875 0.018,0.018 0.056,0.002 0.094,-0.031 0.107,0.12 0.685,0.809 0.719,0.844 0.019,0.019 0.056,10e-4 0.094,-0.031 0.108,0.12 0.683,0.808 0.719,0.844 0.018,0.018 0.06,0.025 0.094,0 0.106,0.117 0.683,0.776 0.719,0.813 0.021,0.021 0.053,0.002 0.094,-0.031 0.111,0.122 0.68,0.805 0.719,0.844 0.019,0.019 0.059,0.023 0.094,0 0.108,0.119 0.68,0.774 0.719,0.813 0.022,0.022 0.054,-0.004 0.094,-0.031 0.106,0.117 0.648,0.773 0.688,0.813 0.017,0.017 0.036,0.011 0.063,0 0.11,0.122 0.677,0.771 0.719,0.813 0.017,0.017 0.067,0.01 0.094,0 0.108,0.118 0.677,0.739 0.719,0.781 0.018,0.018 0.035,0.009 0.063,0 0.108,0.119 0.675,0.738 0.719,0.781 0.018,0.018 0.035,0.008 0.063,0 0.11,0.121 0.674,0.736 0.719,0.781 0.019,0.019 0.034,0.008 0.063,0 0.105,0.114 0.643,0.706 0.688,0.75 0.019,0.019 0.065,0.038 0.094,0.031 0.105,0.115 0.642,0.704 0.688,0.75 0.026,0.026 0.053,0.018 0.094,0 0.11,0.12 0.64,0.734 0.688,0.781 0.02,0.02 0.033,0.005 0.063,0 0.107,0.116 0.64,0.702 0.688,0.75 0.027,0.027 0.052,0.016 0.094,0 0.105,0.114 0.608,0.702 0.656,0.75 0.028,0.028 0.052,0.014 0.094,0 0.107,0.116 0.607,0.7 0.656,0.75 0.022,0.022 0.064,0.034 0.094,0.031 0.103,0.112 0.607,0.669 0.656,0.719 0.028,0.028 0.054,0.041 0.094,0.031 0.104,0.113 0.605,0.668 0.656,0.719 0.027,0.027 0.055,0.039 0.094,0.031 0.099,0.106 0.575,0.638 0.625,0.688 0.023,0.023 0.063,0.032 0.094,0.031 0.106,0.114 0.603,0.666 0.656,0.719 0.029,0.029 0.052,0.038 0.094,0.031 0.101,0.108 0.573,0.635 0.625,0.688 0.024,0.024 0.062,0.03 0.094,0.031 0.102,0.109 0.572,0.634 0.625,0.688 0.025,0.025 0.061,0.03 0.094,0.031 0.103,0.11 0.57,0.633 0.625,0.688 0.025,0.025 0.061,0.029 0.094,0.031 0.104,0.111 0.569,0.632 0.625,0.688 0.026,0.026 0.061,0.028 0.094,0.031 0.104,0.112 0.568,0.631 0.625,0.688 0.032,0.032 0.051,0.033 0.094,0.031 0.099,0.106 0.538,0.601 0.594,0.656 0.026,0.026 0.06,0.058 0.094,0.063 0.1,0.107 0.537,0.6 0.594,0.656 0.034,0.034 0.08,0.032 0.125,0.031 0.1,0.107 0.536,0.599 0.594,0.656 0.027,0.027 0.06,0.025 0.094,0.031 0.101,0.107 0.535,0.598 0.594,0.656 0.036,0.036 0.077,0.062 0.125,0.063 0.095,0.101 0.506,0.568 0.563,0.625 0.028,0.028 0.059,0.024 0.094,0.031 0.103,0.109 0.533,0.596 0.594,0.656 0.029,0.029 0.059,0.023 0.094,0.031 0.097,0.103 0.503,0.566 0.563,0.625 0.036,0.036 0.079,0.058 0.125,0.063 0.098,0.104 0.503,0.565 0.563,0.625 0.03,0.03 0.058,0.053 0.094,0.063 0.095,0.101 0.503,0.534 0.563,0.594 0.03,0.03 0.058,0.053 0.094,0.063 0.097,0.102 0.502,0.533 0.563,0.594 0.03,0.03 0.057,0.052 0.094,0.063 0.097,0.102 0.501,0.532 0.563,0.594 0.031,0.031 0.088,0.051 0.125,0.063 0.095,0.1 0.47,0.533 0.531,0.594 0.031,0.031 0.057,0.051 0.094,0.063 0.099,0.104 0.499,0.53 0.563,0.594 0.032,0.032 0.056,0.05 0.094,0.063 0.099,0.104 0.498,0.53 0.563,0.594 0.032,0.032 0.056,0.049 0.094,0.063 0.093,0.098 0.469,0.5 0.531,0.563 0.033,0.033 0.056,0.049 0.094,0.063 0.095,0.099 0.468,0.499 0.531,0.563 0.033,0.033 0.087,0.079 0.125,0.094 0.089,0.093 0.439,0.471 0.5,0.531 0.033,0.033 0.087,0.079 0.125,0.094 0.093,0.097 0.437,0.499 0.5,0.563 0.034,0.034 0.086,0.047 0.125,0.063 0.09,0.094 0.438,0.469 0.5,0.531 0.034,0.034 0.086,0.077 0.125,0.094 0.09,0.094 0.437,0.468 0.5,0.531 0.035,0.035 0.086,0.077 0.125,0.094 0.091,0.095 0.436,0.467 0.5,0.531 0.035,0.035 0.054,0.045 0.094,0.063 0.092,0.096 0.435,0.466 0.5,0.531 0.035,0.035 0.085,0.076 0.125,0.094 0.086,0.089 0.407,0.438 0.469,0.5 0.036,0.036 0.085,0.075 0.125,0.094 0.087,0.09 0.406,0.437 0.469,0.5 0.036,0.036 0.084,0.074 0.125,0.094 0.087,0.091 0.405,0.436 0.469,0.5 0.026,0.026 0.066,0.014 0.094,0.031 0.099,0.103 0.429,0.492 0.5,0.563 0.026,0.026 0.066,0.013 0.094,0.031 0.1,0.104 0.428,0.491 0.5,0.563 0.026,0.026 0.066,0.013 0.094,0.031 0.093,0.097 0.4,0.463 0.469,0.531 0.029,0.029 0.063,0.043 0.094,0.063 0.097,0.101 0.429,0.46 0.5,0.531 0.019,0.019 0.042,0.016 0.063,0.031 0.098,0.102 0.428,0.459 0.5,0.531 0.027,0.027 0.065,0.012 0.094,0.031 0.095,0.099 0.398,0.46 0.469,0.531 0.03,0.03 0.062,0.042 0.094,0.063 0.092,0.095 0.399,0.431 0.469,0.5 0.03,0.03 0.062,0.041 0.094,0.063 0.093,0.096 0.399,0.43 0.469,0.5 0.03,0.03 0.062,0.041 0.094,0.063 0.087,0.089 0.371,0.402 0.438,0.469 0.024,0.024 0.069,0.012 0.094,0.031 0.098,0.102 0.394,0.457 0.469,0.531 0.031,0.031 0.061,0.04 0.094,0.063 0.088,0.09 0.369,0.401 0.438,0.469 0.018,0.018 0.044,0.016 0.063,0.031 0.096,0.099 0.395,0.426 0.469,0.5 0.027,0.027 0.065,0.041 0.094,0.063 0.089,0.092 0.368,0.399 0.438,0.469 0.028,0.028 0.065,0.041 0.094,0.063 0.09,0.092 0.367,0.398 0.438,0.469 0.028,0.028 0.065,0.041 0.094,0.063 0.09,0.093 0.366,0.398 0.438,0.469 0.028,0.028 0.065,0.041 0.094,0.063 0.091,0.093 0.366,0.397 0.438,0.469 0.025,0.025 0.037,0.042 0.063,0.063 0.088,0.09 0.367,0.367 0.438,0.438 0.022,0.022 0.04,0.044 0.063,0.063 0.089,0.091 0.366,0.366 0.438,0.438 0.029,0.029 0.064,0.04 0.094,0.063 0.086,0.088 0.337,0.368 0.406,0.438 0.029,0.029 0.064,0.039 0.094,0.063 0.086,0.088 0.336,0.368 0.406,0.438 0.022,0.022 0.04,0.043 0.063,0.063 0.091,0.093 0.364,0.364 0.438,0.438 0.023,0.023 0.039,0.043 0.063,0.063 0.091,0.093 0.364,0.364 0.438,0.438 0.023,0.023 0.039,0.043 0.063,0.063 0.091,0.093 0.363,0.363 0.438,0.438 0.032,0.032 0.061,0.037 0.094,0.063 0.08,0.082 0.308,0.339 0.375,0.406 0.023,0.023 0.039,0.043 0.063,0.063 0.085,0.087 0.336,0.336 0.406,0.406 0.029,0.029 0.065,0.039 0.094,0.063 0.082,0.083 0.307,0.338 0.375,0.406 0.029,0.029 0.064,0.038 0.094,0.063 0.083,0.084 0.306,0.337 0.375,0.406 0.029,0.029 0.064,0.038 0.094,0.063 0.083,0.084 0.305,0.337 0.375,0.406 0.103,0.105 0.385,0.385 0.469,0.469 0.096,0.098 0.358,0.358 0.438,0.438 0.029,0.029 0.064,0.037 0.094,0.063 0.084,0.085 0.304,0.335 0.375,0.406 0.03,0.03 0.064,0.037 0.094,0.063 0.077,0.078 0.278,0.309 0.344,0.375 0.03,0.03 0.064,0.037 0.094,0.063 0.077,0.079 0.277,0.308 0.344,0.375 0.023,0.023 0.039,0.042 0.063,0.063 0.082,0.083 0.305,0.305 0.375,0.375 0.095,0.096 0.326,0.358 0.406,0.438 0.046,0.046 0.11,0.057 0.156,0.094 0.064,0.065 0.225,0.256 0.281,0.313 0.097,0.097 0.182,0.192 0.281,0.25 0.011,0.012 0.02,0.051 0.031,0.063 l 0.125,0.125 c 0.024,0.024 0.038,0.041 0.063,0.063 0.076,0.077 0.277,0.277 0.344,0.344 0.019,0.019 0.044,0.014 0.063,0.031 0.081,0.082 0.274,0.305 0.344,0.375 0.022,0.022 0.041,0.043 0.063,0.063 0.077,0.078 0.276,0.276 0.344,0.344 0.022,0.022 0.041,0.043 0.063,0.063 0.077,0.078 0.276,0.276 0.344,0.344 0.099,0.099 0.181,0.187 0.281,0.25 0.019,0.019 0.044,0.075 0.063,0.094 l 0.063,0.063 c 0.1,0.1 0.18,0.186 0.281,0.25 0.011,0.012 0.02,0.051 0.031,0.063 l 0.063,0.063 c 0.022,0.022 0.04,0.042 0.063,0.063 l 0.344,0.344 c 0.101,0.101 0.18,0.184 0.281,0.25 0.015,0.015 0.048,0.047 0.063,0.063 0.01,0.01 0.022,0.053 0.031,0.063 0.017,0.017 0.045,0.015 0.063,0.031 0.028,0.029 0.066,0.097 0.094,0.125 l 0.219,0.219 c 0.011,0.011 0.052,0.02 0.063,0.031 0.029,0.029 0.066,0.097 0.094,0.125 l 0.219,0.219 c 0.194,0.197 0.565,0.596 0.719,0.75 0.103,0.103 0.21,0.179 0.313,0.25 0.004,0.004 -0.004,0.027 0,0.031 l 0.031,0.031 0.031,0.031 c 0.104,0.104 0.21,0.209 0.313,0.281 l 0.031,0.031 c 0.004,0.004 -0.004,0.027 0,0.031 0.104,0.104 0.21,0.208 0.313,0.281 0.012,0.012 0.02,0.051 0.031,0.063 l 0.031,0.031 c 0.018,0.018 0.045,0.014 0.063,0.031 0.008,0.008 0.024,0.023 0.031,0.031 0.006,0.006 0.026,-0.006 0.031,0 0.007,0.008 0.024,0.024 0.031,0.031 0.009,0.01 0.022,0.022 0.031,0.031 0.005,0.005 -0.005,0.026 0,0.031 0.039,0.039 0.119,0.151 0.156,0.188 0.018,0.018 0.045,0.014 0.063,0.031 0.037,0.037 0.09,0.12 0.125,0.156 l 0.156,0.156 c 0.007,0.007 0.025,0.024 0.031,0.031 0.013,0.013 0.049,0.018 0.063,0.031 0.02,0.021 0.042,0.073 0.063,0.094 0.011,0.011 0.052,0.021 0.063,0.031 l 0.094,0.094 c 0.004,0.004 -0.004,0.027 0,0.031 0.05,0.05 0.107,0.081 0.156,0.125 0.034,0.03 0.06,0.067 0.094,0.094 0.022,0.017 0.041,0.047 0.063,0.063 l 0.031,0.031 c 0.004,0.004 -0.004,0.027 0,0.031 l 0.031,0 c 0.01,0.01 0.021,0.022 0.031,0.031 l 0,0.031 0.031,0.031 0.031,0.031 c 0.011,0.01 0.02,0.022 0.031,0.031 l 0.031,0 0,0.031 c 0.038,0.032 0.087,0.065 0.125,0.094 l 0.031,0.031 c 0.004,0.004 -0.004,0.027 0,0.031 0.107,0.107 0.209,0.202 0.313,0.281 0.004,0.004 -0.004,0.027 0,0.031 0.107,0.107 0.208,0.201 0.313,0.281 0.004,0.004 -0.004,0.027 0,0.031 0.079,0.079 0.142,0.154 0.219,0.219 0.011,0.011 0.083,0.051 0.094,0.063 0.004,0.004 -0.004,0.027 0,0.031 0.085,0.086 0.167,0.15 0.25,0.219 l 0.063,0.063 c 0.004,0.004 -0.004,0.027 0,0.031 0.102,0.102 0.183,0.202 0.281,0.281 l 0.031,0.031 c 0.023,0.023 0.04,0.041 0.063,0.063 l 0.219,0.219 c 0.011,0.011 0.052,0.02 0.063,0.031 0.005,0.005 -0.005,0.026 0,0.031 0.017,0.017 0.046,0.045 0.063,0.063 l 0.094,0.094 0.094,0.094 0.063,0.063 0.063,0.063 c 0.012,0.012 0.051,0.019 0.063,0.031 0.005,0.005 -0.005,0.026 0,0.031 0.007,0.008 0.024,0.024 0.031,0.031 0.014,0.015 0.048,0.048 0.063,0.063 0.012,0.012 0.019,0.02 0.031,0.031 l 0.031,0.031 0.063,0.063 c 0.013,0.013 0.049,0.018 0.063,0.031 0.009,0.01 0.022,0.022 0.031,0.031 l 0.031,0.031 c 0.005,0.005 -0.005,0.027 0,0.031 l 0.031,0.031 c 0.012,0.012 0.019,0.02 0.031,0.031 l 0.25,0.25 0.031,0.031 0.031,0.031 0.031,0.031 0.031,0.031 c 0.034,0.034 0.09,0.059 0.125,0.094 0.006,0.006 -0.006,0.026 0,0.031 l 0.031,0.031 c 0.012,0.012 0.019,0.02 0.031,0.031 l 0.031,0.031 c 0.036,0.037 0.088,0.056 0.125,0.094 l 0.031,0.031 0.031,0.031 c 0.006,0.006 -0.006,0.026 0,0.031 l 0.031,0.031 0.031,0.031 0.219,0.219 0.031,0.031 0.25,0.25 0.031,0.031 0.219,0.219 0.031,0.031 0.219,0.219 c 0.012,0.012 0.019,0.02 0.031,0.031 l 0.219,0.219 c 0.011,0.01 0.02,0.022 0.031,0.031 0.055,0.056 0.166,0.166 0.219,0.219 0.012,0.012 0.019,0.02 0.031,0.031 0.055,0.056 0.166,0.166 0.219,0.219 l 0.219,0.219 0.031,0.031 0.188,0.188 0.031,0.031 c 0.048,0.049 0.173,0.172 0.219,0.219 0.011,0.01 0.02,0.022 0.031,0.031 l 0.188,0.188 0.031,0.031 0.188,0.188 0.031,0.031 0.156,0.156 0.031,0.031 0.188,0.188 c 0.046,0.046 0.143,0.174 0.188,0.219 0.047,0.047 0.079,0.081 0.125,0.125 l 0.031,0 0.063,0.063 0.031,0.031 0.156,0.156 0.031,0.031 0.156,0.156 0.063,0.063 0.031,0.031 0.031,0.031 0.031,0.031 0.031,0.031 0.094,0.094 0.031,0.031 c 0.007,0.008 0.024,0.024 0.031,0.031 l 0.031,0.031 0.031,0.031 0.125,0.125 c 0.012,0.011 0.02,0.02 0.031,0.031 l 0.156,0.156 0.094,0.094 0.031,0.031 0.031,0.031 c 0.01,0.009 0.021,0.022 0.031,0.031 0.112,0.113 0.333,0.333 0.438,0.438 l 0.094,0.094 0.031,0.031 c 0.004,0.004 -0.004,0.027 0,0.031 l 0.031,0 0.125,0.125 0.125,0.125 0.156,0.156 0.125,0.125 c 0.03,0.027 0.065,0.068 0.094,0.094 l 0.031,0.031 c 0.012,0.011 0.019,0.02 0.031,0.031 l 0.063,0.063 c 0.004,0.004 -0.004,0.027 0,0.031 0.06,0.06 0.099,0.068 0.156,0.125 l 0.094,0.094 0.094,0.094 0.094,0.094 0.094,0.094 0.094,0.094 0.094,0.094 c 0.023,0.023 0.04,0.071 0.063,0.094 0.033,0.033 0.062,0.03 0.094,0.063 l 0.063,0.063 0.063,0.063 0.07,0.069 0.063,0.063 0.063,0.063 0.063,0.063 0.031,0.031 0.031,0.031 0.031,0.031 0.031,0.031 0.031,0.031 0.031,0.031 0.031,0 c 0.005,0.005 -0.005,0.026 0,0.031 0.035,0.034 0.092,0.062 0.125,0.094 0.025,0.023 0.071,0.073 0.094,0.094 0.025,0.023 0.071,0.073 0.094,0.094 0.025,0.023 0.071,0.073 0.094,0.094 0.023,0.023 0.041,0.042 0.063,0.063 0.008,0.007 0.024,0.024 0.031,0.031 0.016,0.015 0.047,0.048 0.063,0.063 0.006,0.006 -0.006,0.026 0,0.031 0.015,0.014 0.048,0.049 0.063,0.063 l 0.031,0.031 c 0.016,0.016 0.047,0.016 0.063,0.031 0.016,0.015 0.048,0.048 0.063,0.063 0.029,0.026 0.039,0.043 0.063,0.063 0.147,0.141 0.56,0.568 0.563,0.563 0.001,10e-4 0.031,0.063 0.031,0.063 0.001,0 0.031,0.031 0.031,0.031 10e-4,0 0.031,0.031 0.031,0.031 0.001,0 0.031,0.031 0.031,0.031 l 0.031,0.031 0.031,0.031 c 10e-4,-0.003 -0.002,-14.541 0,-26.12 10e-4,-1.427 -0.001,-1.708 0,-3.219 l 0,-0.688 c 10e-4,-0.828 -0.001,-1.503 0,-2.344 l 0,-0.781 c 0.002,-1.458 -0.001,-2.581 0,-4.063 l 0,-0.469 c 10e-4,-0.445 -0.001,-0.866 0,-1.313 l 0,-182.79 c -1.496,-0.03 -2.997,-0.063 -4.5,-0.063" fill="#BF9E73"/>
 <path inkscape:connector-curvature="0" id="path1162" d="m 108.34,87.44 c -46.39,40.14 -75.75,99.46 -75.75,165.63 0,0.987 0.018,1.954 0.031,2.938 l 223.42,0 -0.063,-0.063 c 0,0 -0.031,-0.03 -0.031,-0.031 0,-10e-4 -0.031,-0.03 -0.031,-0.031 0,-0.001 -0.031,-0.03 -0.031,-0.031 0,-0.001 -0.061,-0.029 -0.063,-0.031 -0.002,-0.002 -0.031,-0.03 -0.031,-0.031 0.001,0 -0.06,-0.059 -0.063,-0.063 0.001,0 -0.06,-0.059 -0.063,-0.063 0.01,-0.004 -0.317,-0.31 -0.5,-0.5 l -0.031,-0.031 c -0.009,-0.009 0.009,-0.022 0,-0.031 -0.012,-0.013 -0.018,-0.018 -0.031,-0.031 l -0.031,0 c -0.004,-0.004 0.004,-0.027 0,-0.031 l -0.032,-0.032 -0.031,0 c -0.004,-0.004 0.004,-0.027 0,-0.031 l -0.031,-0.031 -0.031,-0.031 -0.031,0 c -0.004,-0.004 0.004,-0.027 0,-0.031 -0.011,-0.011 -0.051,-0.02 -0.063,-0.031 -0.004,-0.004 0.004,-0.027 0,-0.031 l -0.031,0 c -0.004,-0.004 0.004,-0.027 0,-0.031 l -0.063,-0.063 -0.063,-0.063 -0.063,-0.063 -0.063,-0.063 -0.063,-0.063 -0.094,-0.094 -0.25,-0.25 -0.094,-0.094 -0.063,-0.063 -0.063,-0.063 c -0.027,-0.03 -0.064,-0.061 -0.094,-0.094 l -0.094,-0.094 -0.125,-0.125 -0.125,-0.125 -0.125,-0.125 c -0.025,-0.025 -0.099,-0.1 -0.125,-0.125 l -0.125,-0.125 -0.156,-0.156 -0.125,-0.125 -0.156,-0.156 -0.156,-0.156 -0.156,-0.156 -0.156,-0.156 -0.156,-0.156 -0.188,-0.188 -0.156,-0.156 -0.188,-0.188 -0.188,-0.188 -0.188,-0.188 -0.188,-0.188 -0.219,-0.219 -0.188,-0.188 -0.219,-0.219 -0.219,-0.219 c -0.24,-0.242 -0.52,-0.517 -0.781,-0.781 -0.034,-0.035 -0.059,-0.059 -0.094,-0.094 l -0.188,-0.188 -0.031,-0.031 c -0.007,-0.007 0.007,-0.024 0,-0.031 l -0.032,-0.032 c -0.071,-0.071 -0.117,-0.116 -0.188,-0.188 -0.27,-0.272 -0.443,-0.441 -0.719,-0.719 -0.298,-0.301 -0.48,-0.477 -0.781,-0.781 l -0.031,-0.031 c -0.203,-0.204 -0.306,-0.306 -0.5,-0.5 l -0.219,-0.219 -0.031,-0.031 c -0.036,-0.037 -0.058,-0.057 -0.094,-0.094 l -0.031,-0.031 c -0.017,-0.017 -0.014,-0.045 -0.031,-0.063 l -0.031,-0.031 c -0.011,-0.012 -0.02,-0.02 -0.031,-0.031 l -0.063,-0.063 -0.031,-0.031 c -0.006,-0.006 -0.026,0.006 -0.031,0 -0.009,-0.009 0.009,-0.022 0,-0.031 l -0.031,-0.031 c -0.031,-0.031 -0.063,-0.062 -0.094,-0.094 l -0.031,-0.031 c -0.034,-0.035 -0.059,-0.059 -0.094,-0.094 l -0.031,-0.031 c -0.029,-0.029 -0.034,-0.065 -0.063,-0.094 l -0.031,-0.031 c -0.018,-0.019 -0.044,-0.013 -0.063,-0.031 -0.057,-0.058 -0.099,-0.099 -0.156,-0.156 -0.057,-0.058 -0.099,-0.098 -0.156,-0.156 l -0.125,-0.125 -0.031,-0.031 -0.031,-0.031 c -0.017,-0.017 -0.014,-0.045 -0.031,-0.063 -0.024,-0.025 -0.038,-0.038 -0.063,-0.063 -0.011,-0.011 -0.021,-0.02 -0.031,-0.031 l -0.031,-0.031 c -0.059,-0.061 -0.096,-0.095 -0.156,-0.156 -0.057,-0.058 -0.1,-0.099 -0.156,-0.156 l -0.031,-0.031 -0.031,-0.031 c -0.011,-0.012 -0.02,-0.02 -0.031,-0.031 -0.006,-0.006 0.006,-0.025 0,-0.031 -0.025,-0.025 -0.038,-0.037 -0.063,-0.063 -0.012,-0.013 -0.019,-0.019 -0.031,-0.031 -0.006,-0.006 -0.026,0.006 -0.031,0 l -0.031,-0.031 c -0.028,-0.029 -0.034,-0.065 -0.063,-0.094 -0.023,-0.024 -0.039,-0.038 -0.063,-0.063 -0.006,-0.006 -0.026,0.006 -0.031,0 l -0.031,-0.031 c -0.017,-0.018 -0.014,-0.045 -0.031,-0.063 -0.022,-0.023 -0.04,-0.04 -0.063,-0.063 -0.011,-0.012 -0.02,-0.02 -0.031,-0.031 -0.006,-0.006 -0.026,0.006 -0.031,0 -0.067,-0.069 -0.121,-0.119 -0.188,-0.188 -0.012,-0.013 -0.019,-0.019 -0.031,-0.031 -0.022,-0.023 -0.04,-0.04 -0.063,-0.063 -0.016,-0.017 -0.015,-0.046 -0.031,-0.063 l -0.031,-0.031 c -0.022,-0.023 -0.04,-0.04 -0.063,-0.063 -0.078,-0.08 -0.141,-0.139 -0.219,-0.219 -0.078,-0.08 -0.141,-0.139 -0.219,-0.219 -0.077,-0.079 -0.143,-0.141 -0.219,-0.219 -0.022,-0.022 -0.041,-0.04 -0.063,-0.063 -0.032,-0.033 -0.062,-0.061 -0.094,-0.094 -0.01,-0.011 -0.021,-0.021 -0.031,-0.031 -0.016,-0.016 -0.016,-0.046 -0.031,-0.063 -0.087,-0.09 -0.163,-0.16 -0.25,-0.25 -0.077,-0.079 -0.142,-0.14 -0.219,-0.219 -0.07,-0.073 -0.149,-0.115 -0.219,-0.188 -0.025,-0.025 -0.007,-0.038 -0.031,-0.063 -0.011,-0.011 -0.021,-0.02 -0.031,-0.031 -0.011,-0.011 -0.021,-0.02 -0.031,-0.031 -0.015,-0.015 -0.016,-0.047 -0.031,-0.063 -0.02,-0.021 -0.042,-0.042 -0.063,-0.063 l -0.031,-0.031 c -0.022,-0.022 -0.041,-0.04 -0.063,-0.063 -0.054,-0.056 -0.102,-0.1 -0.156,-0.156 -0.032,-0.034 -0.061,-0.06 -0.094,-0.094 l -0.031,-0.031 -41.938,-49.22 -10.938,-12.844 -0.031,-0.031 c -0.018,-0.021 -0.014,-0.011 -0.031,-0.031 -0.035,-0.041 -0.028,-0.022 -0.063,-0.063 -0.017,-0.019 -0.015,-0.012 -0.031,-0.031 -0.009,-0.011 0.009,-0.02 0,-0.031 -0.017,-0.02 -0.014,-0.011 -0.031,-0.031 -0.07,-0.083 -0.056,-0.044 -0.125,-0.125 -0.078,-0.092 -0.048,-0.066 -0.125,-0.156 -0.012,-0.014 -0.019,-0.017 -0.031,-0.031 -0.059,-0.069 -0.036,-0.057 -0.094,-0.125 -0.09,-0.106 -0.13,-0.146 -0.219,-0.25 -0.01,-0.012 0.01,-0.02 0,-0.031 l -0.031,-0.031 c -0.032,-0.037 -0.031,-0.025 -0.063,-0.063 -0.024,-0.028 -0.039,-0.035 -0.063,-0.063 -0.091,-0.107 -0.13,-0.145 -0.219,-0.25 -0.102,-0.12 -0.15,-0.163 -0.25,-0.281 -1.198,-1.404 -2.238,-2.638 -3.063,-3.594 -0.159,-0.185 -0.58,-0.689 -0.688,-0.813 -0.018,-0.021 -0.013,-0.01 -0.031,-0.031 -0.152,-0.178 -1.086,-1.304 -1.094,-1.313 l -0.063,-0.063 -0.031,0.031 c 0,0 -0.031,-0.063 -0.031,-0.063 -0.001,-10e-4 -0.062,-0.094 -0.063,-0.094 l -0.125,-0.125 -0.031,0.031 c -0.002,-0.002 -0.03,-0.061 -0.031,-0.063 -0.015,-0.015 -0.15,-0.152 -0.156,-0.156 -0.144,-0.157 -0.171,-0.139 -0.25,-0.219 -0.12,-0.129 -0.111,-0.112 -0.188,-0.188 -0.002,-0.001 0.001,-0.031 0,-0.031 -0.023,-0.026 -0.04,-0.037 -0.063,-0.063 -0.1,-0.106 -0.086,-0.087 -0.156,-0.156 -0.042,-0.048 -0.084,-0.077 -0.125,-0.125 -0.004,-0.005 0.004,-0.027 0,-0.031 -0.022,-0.024 -0.041,-0.038 -0.063,-0.063 -0.024,-0.027 -0.038,-0.067 -0.063,-0.094 -0.046,-0.051 -0.08,-0.075 -0.125,-0.125 -0.043,-0.05 -0.083,-0.075 -0.125,-0.125 -0.05,-0.056 -0.075,-0.102 -0.125,-0.156 -0.048,-0.056 -0.078,-0.101 -0.125,-0.156 -0.087,-0.096 -0.134,-0.158 -0.219,-0.25 -0.112,-0.131 -0.203,-0.216 -0.313,-0.344 -0.035,-0.038 -0.059,-0.056 -0.094,-0.094 -0.031,-0.036 -0.063,-0.058 -0.094,-0.094 -0.063,-0.069 -0.095,-0.121 -0.156,-0.188 l -0.19,-0.221 c -0.012,-0.013 -0.02,-0.019 -0.031,-0.031 -0.03,-0.034 -0.064,-0.06 -0.094,-0.094 -0.122,-0.136 -0.225,-0.307 -0.344,-0.438 -0.568,-0.667 -1.077,-1.272 -1.594,-1.844 -0.229,-0.26 -0.468,-0.507 -0.688,-0.75 -0.062,-0.071 -0.126,-0.15 -0.188,-0.219 -0.056,-0.062 -0.101,-0.127 -0.156,-0.188 -0.039,-0.045 -0.086,-0.08 -0.125,-0.125 -0.047,-0.052 -0.078,-0.105 -0.125,-0.156 -0.209,-0.246 -0.391,-0.455 -0.594,-0.688 -0.058,-0.064 -0.099,-0.124 -0.156,-0.188 -0.202,-0.237 -0.398,-0.432 -0.594,-0.656 -0.068,-0.075 -0.12,-0.146 -0.188,-0.219 -0.01,-0.011 -0.022,-0.02 -0.031,-0.031 -0.282,-0.331 -0.541,-0.632 -0.813,-0.938 -0.291,-0.342 -0.563,-0.654 -0.844,-0.969 -0.301,-0.353 -0.585,-0.676 -0.875,-1 -0.305,-0.358 -0.612,-0.673 -0.906,-1 -0.101,-0.119 -0.181,-0.228 -0.281,-0.344 -0.057,-0.062 -0.131,-0.127 -0.188,-0.188 -0.154,-0.176 -0.286,-0.364 -0.438,-0.531 -0.322,-0.378 -0.627,-0.72 -0.938,-1.063 -0.141,-0.165 -0.267,-0.31 -0.406,-0.469 -0.032,-0.034 -0.062,-0.06 -0.094,-0.094 -0.158,-0.179 -0.314,-0.361 -0.469,-0.531 -0.131,-0.153 -0.246,-0.29 -0.375,-0.438 -0.054,-0.057 -0.103,-0.1 -0.156,-0.156 -0.153,-0.173 -0.287,-0.367 -0.438,-0.531 -0.106,-0.125 -0.207,-0.223 -0.313,-0.344 l -0.688,-0.813 c -0.141,-0.166 -0.267,-0.31 -0.406,-0.469 l -0.625,-0.719 c -0.363,-0.426 -0.711,-0.811 -1.063,-1.188 l -1.063,-1.25 c -0.385,-0.452 -0.751,-0.856 -1.125,-1.25 -0.167,-0.196 -0.335,-0.346 -0.5,-0.531 l -0.625,-0.75 c -0.051,-0.06 -0.106,-0.098 -0.156,-0.156 l -0.969,-1.156 c -0.211,-0.248 -0.416,-0.458 -0.625,-0.688 l -0.563,-0.656 c -0.215,-0.253 -0.412,-0.454 -0.625,-0.688 l -0.563,-0.656 c -0.105,-0.123 -0.208,-0.225 -0.313,-0.344 l -0.906,-1.063 c -0.107,-0.126 -0.206,-0.223 -0.313,-0.344 l -0.906,-1.063 c -0.211,-0.248 -0.415,-0.459 -0.625,-0.688 l -0.656,-0.75 c -0.152,-0.179 -0.285,-0.332 -0.438,-0.5 l -0.844,-0.969 c -0.177,-0.208 -0.355,-0.369 -0.531,-0.563 l -0.781,-0.938 c -0.04,-0.047 -0.085,-0.078 -0.125,-0.125 l -1.188,-1.406 c -0.121,-0.142 -0.254,-0.24 -0.375,-0.375 l -0.969,-1.156 c -0.22,-0.259 -0.466,-0.515 -0.688,-0.75 l -0.719,-0.844 c -0.22,-0.258 -0.435,-0.485 -0.656,-0.719 l -0.719,-0.875 c -0.239,-0.28 -0.478,-0.53 -0.719,-0.781 l -0.719,-0.844 c -0.218,-0.256 -0.436,-0.488 -0.656,-0.719 l -0.781,-0.938 c -0.218,-0.255 -0.436,-0.489 -0.656,-0.719 l -0.813,-0.969 c -0.258,-0.303 -0.519,-0.577 -0.781,-0.844 l -0.719,-0.844 c -0.216,-0.254 -0.437,-0.491 -0.656,-0.719 l -0.875,-1.031 c -0.256,-0.301 -0.488,-0.581 -0.75,-0.844 l -0.781,-0.906 c -0.214,-0.252 -0.437,-0.494 -0.656,-0.719 l -0.906,-1.063 c -0.214,-0.251 -0.438,-0.495 -0.656,-0.719 l -0.906,-1.094 c -0.234,-0.274 -0.479,-0.54 -0.719,-0.781 l -0.906,-1.063 c -0.212,-0.249 -0.438,-0.498 -0.656,-0.719 l -0.969,-1.156 c -0.211,-0.248 -0.439,-0.468 -0.656,-0.688 l -1,-1.188 c -0.21,-0.247 -0.439,-0.501 -0.656,-0.719 l -1.031,-1.219 c -0.209,-0.246 -0.408,-0.471 -0.625,-0.688 l -1.063,-1.25 c -0.121,-0.142 -0.251,-0.274 -0.375,-0.406 l -1.344,-1.563 c -0.208,-0.244 -0.44,-0.474 -0.656,-0.688 l -1.094,-1.313 c -0.207,-0.243 -0.44,-0.476 -0.656,-0.688 l -1.125,-1.344 c -0.206,-0.242 -0.409,-0.446 -0.625,-0.656 l -1.156,-1.375 c -0.205,-0.241 -0.441,-0.479 -0.656,-0.688 l -1.188,-1.406 c -0.089,-0.105 -0.19,-0.182 -0.281,-0.281 l -1.531,-1.813 c -0.135,-0.159 -0.297,-0.293 -0.438,-0.438 l -1.438,-1.688 c -0.202,-0.237 -0.411,-0.452 -0.625,-0.656 l -1.25,-1.5 c -0.211,-0.248 -0.431,-0.476 -0.656,-0.688 l -1.281,-1.5 c -0.2,-0.235 -0.38,-0.455 -0.594,-0.656 l -0.094,-0.125" fill="#BF9E73"/>
 <path inkscape:connector-curvature="0" id="path1164" d="m 32.625,256 c 0.777,58.732 24.69,111.88 63.03,150.75 l 64.844,-55.25 -0.125,-0.031 c 0.012,-0.01 1.062,-0.906 1.063,-0.906 0,0 -0.124,-0.031 -0.125,-0.031 0.013,-0.011 1.062,-0.905 1.063,-0.906 0,0 -0.093,-0.031 -0.094,-0.031 0.012,-0.011 0.999,-0.874 1,-0.875 0,0 -0.092,-0.03 -0.094,-0.031 0.013,-0.011 0.998,-0.873 1,-0.875 10e-4,-0.001 -0.093,-0.03 -0.094,-0.031 0.042,-0.037 1.027,-0.902 1.031,-0.906 0.001,-0.001 -0.093,-0.03 -0.094,-0.031 0.041,-0.036 0.995,-0.87 1,-0.875 0.002,-0.002 -0.086,-0.057 -0.094,-0.063 0.041,-0.036 0.994,-0.838 1,-0.844 0.002,-0.002 -0.089,-0.027 -0.094,-0.031 0.043,-0.038 0.993,-0.868 1,-0.875 0.002,-0.002 -0.089,-0.026 -0.094,-0.031 0.042,-0.037 0.961,-0.836 0.969,-0.844 0.003,-0.003 -0.086,-0.055 -0.094,-0.063 0.044,-0.039 0.991,-0.835 1,-0.844 0.003,-0.003 -0.089,-0.026 -0.094,-0.031 0.043,-0.038 0.959,-0.834 0.969,-0.844 0.006,-0.006 -0.042,-0.047 -0.063,-0.063 0.042,-0.037 0.928,-0.803 0.938,-0.813 0.006,-0.006 -0.043,-0.046 -0.063,-0.063 0.043,-0.038 0.927,-0.802 0.938,-0.813 0.007,-0.007 -0.044,-0.046 -0.063,-0.063 0.044,-0.039 0.926,-0.801 0.938,-0.813 0.008,-0.008 -0.038,-0.042 -0.063,-0.063 0.045,-0.04 0.925,-0.8 0.938,-0.813 0.008,-0.008 -0.045,-0.045 -0.063,-0.063 0.043,-0.039 0.893,-0.768 0.906,-0.781 0.008,-0.008 -0.046,-0.045 -0.063,-0.063 0.133,-0.118 0.912,-0.787 0.938,-0.813 0.01,-0.01 -0.041,-0.041 -0.063,-0.063 0.127,-0.112 0.88,-0.755 0.906,-0.781 0.01,-0.01 -0.042,-0.04 -0.063,-0.063 0.128,-0.114 0.878,-0.753 0.906,-0.781 0.008,-0.008 -0.022,-0.047 -0.031,-0.063 0.126,-0.112 0.846,-0.752 0.875,-0.781 0.009,-0.009 -0.022,-0.047 -0.031,-0.063 0.126,-0.112 0.845,-0.751 0.875,-0.781 0.016,-0.016 0.006,-0.058 -0.031,-0.094 0.124,-0.11 0.844,-0.719 0.875,-0.75 0.017,-0.017 0.008,-0.055 -0.031,-0.094 0.117,-0.105 0.812,-0.687 0.844,-0.719 0.018,-0.017 0.004,-0.057 -0.031,-0.094 0.126,-0.113 0.841,-0.716 0.875,-0.75 0.018,-0.018 0.002,-0.056 -0.031,-0.094 0.12,-0.107 0.809,-0.685 0.844,-0.719 0.019,-0.019 0.001,-0.056 -0.031,-0.094 0.12,-0.108 0.808,-0.683 0.844,-0.719 0.018,-0.018 0.025,-0.06 0,-0.094 0.117,-0.106 0.776,-0.683 0.813,-0.719 0.021,-0.021 0.002,-0.053 -0.031,-0.094 0.122,-0.111 0.805,-0.68 0.844,-0.719 0.019,-0.019 0.023,-0.059 0,-0.094 0.119,-0.108 0.774,-0.68 0.813,-0.719 0.02,-0.02 0.022,-0.058 0,-0.094 0.113,-0.103 0.742,-0.649 0.781,-0.688 0.022,-0.022 0.026,-0.054 0,-0.094 0.118,-0.107 0.772,-0.647 0.813,-0.688 0.021,-0.021 0.02,-0.089 0,-0.125 0.115,-0.104 0.74,-0.646 0.781,-0.688 0.022,-0.022 0.019,-0.057 0,-0.094 0.115,-0.105 0.739,-0.645 0.781,-0.688 0.023,-0.022 0.018,-0.057 0,-0.094 0.117,-0.107 0.737,-0.644 0.781,-0.688 0.019,-0.019 0.008,-0.034 0,-0.063 0.118,-0.108 0.736,-0.642 0.781,-0.688 0.024,-0.024 0.016,-0.087 0,-0.125 0.111,-0.102 0.705,-0.612 0.75,-0.656 0.026,-0.026 0.018,-0.053 0,-0.094 0.12,-0.11 0.734,-0.64 0.781,-0.688 0.026,-0.026 0.017,-0.052 0,-0.094 0.113,-0.104 0.703,-0.609 0.75,-0.656 0.027,-0.027 0.016,-0.052 0,-0.094 0.115,-0.105 0.702,-0.608 0.75,-0.656 0.021,-0.021 0.035,-0.064 0.031,-0.094 0.111,-0.103 0.67,-0.608 0.719,-0.656 0.022,-0.022 0.034,-0.063 0.031,-0.094 0.112,-0.103 0.669,-0.607 0.719,-0.656 0.028,-0.027 0.041,-0.054 0.031,-0.094 0.113,-0.104 0.668,-0.605 0.719,-0.656 0.028,-0.028 0.04,-0.053 0.031,-0.094 0.106,-0.099 0.638,-0.575 0.688,-0.625 0.023,-0.023 0.032,-0.063 0.031,-0.094 0.114,-0.106 0.666,-0.603 0.719,-0.656 0.029,-0.029 0.038,-0.053 0.031,-0.094 0.108,-0.101 0.635,-0.573 0.688,-0.625 0.024,-0.024 0.03,-0.062 0.031,-0.094 0.109,-0.102 0.634,-0.572 0.688,-0.625 0.025,-0.025 0.03,-0.062 0.031,-0.094 0.11,-0.103 0.633,-0.57 0.688,-0.625 0.033,-0.033 0.068,-0.08 0.063,-0.125 0.104,-0.097 0.603,-0.541 0.656,-0.594 0.026,-0.026 0.028,-0.061 0.031,-0.094 0.112,-0.104 0.631,-0.568 0.688,-0.625 0.032,-0.032 0.033,-0.051 0.031,-0.094 0.106,-0.099 0.601,-0.538 0.656,-0.594 0.033,-0.033 0.063,-0.082 0.063,-0.125 0.106,-0.099 0.6,-0.538 0.656,-0.594 0.034,-0.034 0.032,-0.049 0.031,-0.094 0.107,-0.1 0.599,-0.536 0.656,-0.594 0.027,-0.027 0.025,-0.06 0.031,-0.094 0.108,-0.101 0.598,-0.535 0.656,-0.594 0.036,-0.036 0.062,-0.077 0.063,-0.125 0.101,-0.095 0.568,-0.506 0.625,-0.563 0.037,-0.037 0.061,-0.077 0.063,-0.125 0.102,-0.096 0.567,-0.505 0.625,-0.563 0.029,-0.029 0.023,-0.059 0.031,-0.094 0.103,-0.097 0.566,-0.503 0.625,-0.563 0.036,-0.036 0.058,-0.079 0.063,-0.125 0.104,-0.098 0.565,-0.503 0.625,-0.563 0.037,-0.037 0.057,-0.078 0.063,-0.125 0.097,-0.092 0.536,-0.473 0.594,-0.531 0.037,-0.038 0.056,-0.078 0.063,-0.125 0.099,-0.093 0.535,-0.472 0.594,-0.531 0.038,-0.038 0.055,-0.078 0.063,-0.125 0.099,-0.094 0.534,-0.471 0.594,-0.531 0.031,-0.031 0.051,-0.088 0.063,-0.125 0.1,-0.095 0.533,-0.47 0.594,-0.531 0.039,-0.039 0.053,-0.078 0.063,-0.125 0.1,-0.095 0.532,-0.469 0.594,-0.531 0.039,-0.039 0.053,-0.077 0.063,-0.125 0.101,-0.096 0.531,-0.469 0.594,-0.531 0.04,-0.04 0.052,-0.076 0.063,-0.125 0.095,-0.09 0.502,-0.44 0.563,-0.5 0.04,-0.04 0.051,-0.077 0.063,-0.125 0.096,-0.091 0.501,-0.438 0.563,-0.5 0.033,-0.033 0.079,-0.087 0.094,-0.125 0.096,-0.092 0.5,-0.438 0.563,-0.5 0.033,-0.033 0.047,-0.087 0.063,-0.125 0.097,-0.093 0.499,-0.437 0.563,-0.5 0.034,-0.034 0.047,-0.086 0.063,-0.125 0.097,-0.093 0.498,-0.436 0.563,-0.5 0.042,-0.042 0.047,-0.107 0.063,-0.156 0.091,-0.087 0.47,-0.407 0.531,-0.469 0.043,-0.043 0.078,-0.106 0.094,-0.156 0.092,-0.088 0.469,-0.407 0.531,-0.469 0.035,-0.035 0.045,-0.054 0.063,-0.094 0.096,-0.092 0.466,-0.435 0.531,-0.5 0.035,-0.035 0.076,-0.085 0.094,-0.125 0.089,-0.086 0.438,-0.407 0.5,-0.469 0.036,-0.036 0.075,-0.085 0.094,-0.125 0.094,-0.09 0.466,-0.404 0.531,-0.469 0.036,-0.036 0.043,-0.085 0.063,-0.125 0.094,-0.091 0.466,-0.403 0.531,-0.469 0.035,-0.035 0.011,-0.086 0.031,-0.125 0.095,-0.092 0.465,-0.402 0.531,-0.469 0.026,-0.026 0.013,-0.066 0.031,-0.094 0.034,-0.033 0.157,-0.127 0.188,-0.156 0.087,-0.082 0.303,-0.274 0.375,-0.344 0.007,-0.007 -0.007,-0.024 0,-0.031 0.113,-0.108 0.517,-0.454 0.594,-0.531 0.038,-0.038 0.041,-0.084 0.063,-0.125 0.093,-0.09 0.433,-0.402 0.5,-0.469 0.019,-0.019 0.016,-0.043 0.031,-0.063 0.102,-0.098 0.459,-0.428 0.531,-0.5 0.029,-0.029 0.042,-0.062 0.063,-0.094 0.095,-0.091 0.431,-0.4 0.5,-0.469 0.03,-0.03 0.042,-0.062 0.063,-0.094 0.095,-0.092 0.43,-0.399 0.5,-0.469 0.03,-0.03 0.041,-0.062 0.063,-0.094 0.096,-0.093 0.43,-0.399 0.5,-0.469 0.012,-0.012 0.021,-0.019 0.031,-0.031 0.105,-0.101 0.456,-0.424 0.531,-0.5 0.036,-0.036 0.038,-0.086 0.063,-0.125 0.09,-0.087 0.401,-0.37 0.469,-0.438 0.031,-0.031 0.04,-0.061 0.063,-0.094 0.09,-0.088 0.401,-0.369 0.469,-0.438 0.007,-0.007 -0.006,-0.024 0,-0.031 0.111,-0.107 0.482,-0.419 0.563,-0.5 0.018,-0.018 0.016,-0.044 0.031,-0.063 0.1,-0.097 0.426,-0.394 0.5,-0.469 0.036,-0.036 0.037,-0.087 0.063,-0.125 0.085,-0.082 0.372,-0.341 0.438,-0.406 0.028,-0.028 0.041,-0.065 0.063,-0.094 0.093,-0.09 0.398,-0.366 0.469,-0.438 0.028,-0.028 0.041,-0.065 0.063,-0.094 0.093,-0.091 0.397,-0.366 0.469,-0.438 0.025,-0.025 0.042,-0.037 0.063,-0.063 0.09,-0.088 0.367,-0.367 0.438,-0.438 0.111,-0.108 0.448,-0.417 0.531,-0.5 0.019,-0.019 0.015,-0.043 0.031,-0.063 0.095,-0.093 0.394,-0.363 0.469,-0.438 0.029,-0.029 0.039,-0.064 0.063,-0.094 0.088,-0.086 0.368,-0.336 0.438,-0.406 0.029,-0.029 0.039,-0.064 0.063,-0.094 0.089,-0.087 0.367,-0.336 0.438,-0.406 0.047,-0.047 0.061,-0.107 0.094,-0.156 0.074,-0.072 0.314,-0.283 0.375,-0.344 0.023,-0.023 0.043,-0.039 0.063,-0.063 0.093,-0.091 0.363,-0.363 0.438,-0.438 0.032,-0.032 0.037,-0.061 0.063,-0.094 0.082,-0.081 0.339,-0.308 0.406,-0.375 0.028,-0.028 0.039,-0.065 0.063,-0.094 0.083,-0.082 0.338,-0.307 0.406,-0.375 0.108,-0.105 0.415,-0.384 0.5,-0.469 0.049,-0.049 0.058,-0.105 0.094,-0.156 0.069,-0.067 0.286,-0.254 0.344,-0.313 0.029,-0.029 0.038,-0.064 0.063,-0.094 0.084,-0.083 0.337,-0.305 0.406,-0.375 0.029,-0.029 0.038,-0.064 0.063,-0.094 0.085,-0.083 0.336,-0.305 0.406,-0.375 0.029,-0.029 0.038,-0.064 0.063,-0.094 0.078,-0.077 0.31,-0.278 0.375,-0.344 0.023,-0.023 0.042,-0.039 0.063,-0.063 0.089,-0.088 0.332,-0.332 0.406,-0.406 0.03,-0.03 0.037,-0.064 0.063,-0.094 0.078,-0.077 0.309,-0.278 0.375,-0.344 0.023,-0.023 0.042,-0.039 0.063,-0.063 0.083,-0.082 0.305,-0.305 0.375,-0.375 0.023,-0.023 0.042,-0.039 0.063,-0.063 0.083,-0.082 0.305,-0.305 0.375,-0.375 0.096,-0.094 0.358,-0.327 0.438,-0.406 0.046,-0.046 0.057,-0.11 0.094,-0.156 0.065,-0.064 0.256,-0.225 0.313,-0.281 0.027,-0.027 0.038,-0.066 0.063,-0.094 0.081,-0.08 0.306,-0.275 0.375,-0.344 0.024,-0.024 0.041,-0.038 0.063,-0.063 0.077,-0.076 0.277,-0.277 0.344,-0.344 0.098,-0.098 0.19,-0.181 0.25,-0.281 0.01,-0.01 0.053,-0.022 0.063,-0.031 0.023,-0.022 0.072,-0.072 0.094,-0.094 0.022,-0.022 0.043,-0.041 0.063,-0.063 0.078,-0.077 0.276,-0.276 0.344,-0.344 0.022,-0.022 0.043,-0.041 0.063,-0.063 0.078,-0.077 0.276,-0.276 0.344,-0.344 0.022,-0.022 0.042,-0.041 0.063,-0.063 0.079,-0.078 0.275,-0.275 0.344,-0.344 0.1,-0.1 0.186,-0.18 0.25,-0.281 0.01,-0.01 0.053,-0.021 0.063,-0.031 l 0.063,-0.063 c 0.022,-0.022 0.042,-0.04 0.063,-0.063 l 0.344,-0.344 c 0.101,-0.101 0.184,-0.18 0.25,-0.281 l 0.063,-0.063 c 0.013,-0.012 0.05,-0.019 0.063,-0.031 0.017,-0.017 0.015,-0.045 0.031,-0.063 0.026,-0.025 0.1,-0.069 0.125,-0.094 0.056,-0.055 0.167,-0.167 0.219,-0.219 0.017,-0.017 0.015,-0.045 0.031,-0.063 0.026,-0.026 0.1,-0.069 0.125,-0.094 0.056,-0.055 0.167,-0.167 0.219,-0.219 0.102,-0.102 0.212,-0.211 0.281,-0.313 l 0.031,-0.031 c 0.005,-0.005 0.026,0.005 0.031,0 0.008,-0.007 0.024,-0.024 0.031,-0.031 0.018,-0.017 0.015,-0.045 0.031,-0.063 l 0.125,-0.125 c 0.052,-0.051 0.17,-0.139 0.219,-0.188 0.189,-0.185 0.569,-0.538 0.719,-0.688 0.104,-0.104 0.177,-0.21 0.25,-0.313 0.014,-0.014 0.048,-0.018 0.063,-0.031 l 0.031,-0.031 c 0.018,-0.018 0.014,-0.045 0.031,-0.063 0.041,-0.041 0.149,-0.118 0.188,-0.156 0.032,-0.031 0.095,-0.095 0.125,-0.125 0.022,-0.022 0.042,-0.041 0.063,-0.063 0.162,-0.159 0.492,-0.461 0.625,-0.594 0.074,-0.074 0.128,-0.177 0.188,-0.25 l 0.031,-0.031 0.031,-0.031 c 0.008,-0.01 0.024,-0.021 0.031,-0.031 l 0.031,-0.031 0.031,-0.031 0.063,-0.031 0.031,-0.031 0.031,-0.031 0,-0.031 0.031,0 0.156,-0.156 0.063,-0.063 c 0.053,-0.056 0.111,-0.101 0.156,-0.156 l 0.094,-0.094 0.063,-0.063 c 0.031,-0.033 0.065,-0.061 0.094,-0.094 l 0.219,-0.219 0.031,-0.031 c 0.062,-0.066 0.136,-0.123 0.188,-0.188 l 0.031,-0.031 0.063,-0.063 c 0.067,-0.066 0.188,-0.188 0.25,-0.25 0.101,-0.1 0.284,-0.284 0.375,-0.375 l 0.031,-0.031 c 0.04,-0.04 0.175,-0.144 0.219,-0.188 0.103,-0.103 0.2,-0.213 0.281,-0.313 l 0.156,-0.156 0.031,-0.031 0.094,-0.094 c 0.012,-0.012 0.05,-0.019 0.063,-0.031 l 0.156,-0.156 0.094,-0.094 0.031,-0.031 0.25,-0.25 c 0.055,-0.055 0.076,-0.102 0.125,-0.156 0.011,-0.011 0.02,-0.021 0.031,-0.031 l 0.094,-0.094 0.031,-0.031 0.156,-0.156 0.094,-0.094 0.094,-0.094 0.063,-0.063 c 0.038,-0.038 0.086,-0.055 0.125,-0.094 0.1,-0.099 0.168,-0.186 0.25,-0.281 l 0.031,-0.031 0.219,-0.219 c 0.095,-0.094 0.171,-0.16 0.25,-0.25 l 0.031,-0.031 c 0.055,-0.055 0.166,-0.167 0.219,-0.219 0.095,-0.095 0.17,-0.16 0.25,-0.25 0.012,-0.012 0.02,-0.019 0.031,-0.031 0.056,-0.055 0.166,-0.166 0.219,-0.219 l 0.219,-0.219 0.031,-0.031 c 0.007,-0.007 0.025,0.007 0.031,0 l 0.031,-0.031 c 0.041,-0.041 0.116,-0.117 0.156,-0.156 0.088,-0.088 0.142,-0.166 0.219,-0.25 l 0.031,-0.031 c 0.042,-0.041 0.148,-0.148 0.188,-0.188 l 0.031,-0.031 0.188,-0.188 0.031,-0.031 c 0.013,-0.014 0.018,-0.018 0.031,-0.031 0.035,-0.034 0.059,-0.028 0.094,-0.063 l 0.063,-0.063 c 0.077,-0.077 0.119,-0.145 0.188,-0.219 l 0.063,-0.063 c 0.021,-0.021 0.042,-0.01 0.063,-0.031 0.041,-0.041 0.052,-0.053 0.094,-0.094 0.076,-0.075 0.119,-0.147 0.188,-0.219 0.071,-0.072 0.123,-0.119 0.188,-0.188 l 0.031,-0.031 c 0.046,-0.052 0.115,-0.107 0.156,-0.156 0.029,-0.028 0.065,-0.066 0.094,-0.094 l 0.031,-0.031 c 0.02,-0.021 0.044,-0.042 0.063,-0.063 l 0.094,-0.094 0.031,-0.031 0.031,-0.031 0.031,-0.031 c 0.06,-0.06 0.1,-0.099 0.156,-0.156 0.069,-0.069 0.124,-0.122 0.188,-0.188 l 0.094,-0.094 0.031,-0.031 0.031,-0.031 0.031,-0.031 c 0.119,-0.118 0.327,-0.327 0.438,-0.438 l 0.156,-0.156 0.156,-0.156 c 0.019,-0.019 0.043,-0.012 0.063,-0.031 l 0.031,-0.031 c 0.009,-0.009 0.023,-0.022 0.031,-0.031 0.06,-0.06 0.069,-0.099 0.125,-0.156 0.054,-0.054 0.074,-0.073 0.125,-0.125 0.026,-0.026 0.037,-0.036 0.063,-0.063 0.011,-0.012 0.02,-0.019 0.031,-0.031 0.011,-0.012 0.021,-0.02 0.031,-0.031 l 0.125,-0.125 0.094,-0.094 0.125,-0.125 0.094,-0.094 0.031,-0.031 c 0.032,-0.032 0.063,-0.031 0.094,-0.063 0.02,-0.02 0.011,-0.043 0.031,-0.063 0.011,-0.011 0.051,-0.02 0.063,-0.031 0.034,-0.034 0.03,-0.061 0.063,-0.094 l 0.094,-0.094 0.094,-0.094 0.063,-0.063 c 0.033,-0.033 0.062,-0.031 0.094,-0.063 l 0.063,-0.063 c 0.007,-0.007 -0.007,-0.025 0,-0.031 0.019,-0.019 0.043,-0.012 0.063,-0.031 l 0.063,-0.063 c 0.029,-0.029 0.003,-0.034 0.031,-0.063 l 0.063,-0.063 0.031,-0.031 c 0.029,-0.029 0.034,-0.003 0.063,-0.031 l 0.031,-0.031 0.031,-0.031 c 0.01,-0.01 -0.01,-0.021 0,-0.031 l 0.031,-0.031 0.031,-0.031 0.125,-0.125 0.063,-0.063 c 0.166,-0.17 0.263,-0.257 0.375,-0.375 0.039,-0.042 0.029,-0.026 0.063,-0.063 0.018,-0.019 0.014,-0.013 0.031,-0.031 0.268,-0.273 0.788,-0.779 0.781,-0.781 0,-0.001 0.031,-0.031 0.031,-0.031 0,-10e-4 0.031,-0.031 0.031,-0.031 0,-10e-4 0.031,-0.031 0.031,-0.031 l 0.031,-0.031 0.031,-0.031 -223.35,0 z" fill="#BF9E73"/>
 <path inkscape:connector-curvature="0" id="path1166" d="m 256,255.97 c 0,0 -13.12,13.158 -13.12,13.156 -0.001,-10e-4 -4.358,3.734 -10.688,9.125 -0.141,0.12 -0.107,0.066 -0.25,0.188 l -0.031,0.031 c -0.014,0.012 -0.017,0.019 -0.031,0.031 l -0.031,0.031 -0.094,0.094 c -2.99,2.547 -5.287,4.489 -8.969,7.625 -20.879,17.786 -50.779,43.25 -50.781,43.25 l -0.063,0.031 0.031,0.031 -0.063,0.031 -0.094,0.063 -0.094,0.094 c -0.001,0.001 -0.156,0.125 -0.156,0.125 l -0.156,0.125 -0.156,0.156 -0.219,0.188 -0.219,0.188 -0.25,0.219 -0.281,0.25 -0.281,0.25 -0.313,0.281 c -0.003,0.003 0.001,0.026 0,0.031 l -0.344,0.281 -0.375,0.313 -0.406,0.344 c -0.005,0.004 0.003,0.025 0,0.031 l -0.406,0.344 -0.438,0.375 c -0.017,0.014 -0.032,0.033 -0.031,0.063 -0.012,0.01 -0.429,0.337 -0.438,0.344 -0.018,0.016 -0.03,0.031 -0.031,0.063 l -0.438,0.375 c -0.02,0.017 -0.06,0.03 -0.063,0.063 l -0.469,0.375 c -0.007,0.006 0.005,0.024 0,0.031 l -0.532,0.438 c -0.024,0.021 -0.024,0.058 -0.031,0.094 l -0.531,0.406 c -0.008,0.007 0.006,0.023 0,0.031 l -0.563,0.469 -0.625,0.531 c -0.031,0.026 -0.049,0.053 -0.063,0.094 l -0.563,0.469 -0.656,0.563 c -0.018,0.015 -0.018,0.043 -0.031,0.063 l -0.625,0.531 c -0.011,0.009 -0.022,0.021 -0.031,0.031 l -0.688,0.594 c -0.012,0.01 -0.021,0.02 -0.031,0.031 l -0.688,0.594 c -0.044,0.038 -0.068,0.073 -0.094,0.125 l -0.656,0.531 c -0.047,0.04 -0.065,0.102 -0.094,0.156 l -0.656,0.531 c -0.05,0.043 -0.094,0.069 -0.125,0.125 l -0.688,0.563 c -0.053,0.045 -0.091,0.097 -0.125,0.156 l -0.688,0.563 c -0.056,0.048 -0.119,0.095 -0.156,0.156 l -0.688,0.594 c -0.059,0.051 -0.116,0.092 -0.156,0.156 l -0.719,0.594 c -0.063,0.053 -0.112,0.121 -0.156,0.188 l -0.719,0.594 c -0.074,0.063 -0.137,0.139 -0.188,0.219 l -0.719,0.594 c -0.07,0.059 -0.137,0.115 -0.188,0.188 l -0.75,0.625 c -0.073,0.062 -0.165,0.144 -0.219,0.219 l -0.75,0.625 c -0.077,0.066 -0.161,0.141 -0.219,0.219 l -0.781,0.656 c -0.081,0.069 -0.158,0.138 -0.219,0.219 l -0.781,0.656 c -0.085,0.072 -0.154,0.134 -0.219,0.219 l -0.813,0.688 c -0.089,0.075 -0.181,0.163 -0.25,0.25 l -0.813,0.688 c -0.093,0.079 -0.177,0.159 -0.25,0.25 l -0.813,0.688 c -0.097,0.083 -0.205,0.156 -0.281,0.25 l -0.844,0.719 c -0.012,0.01 -0.02,0.021 -0.031,0.031 l -1.094,0.938 c -0.106,0.09 -0.196,0.212 -0.281,0.313 l -0.875,0.719 c -0.11,0.094 -0.192,0.177 -0.281,0.281 l -0.875,0.75 -1.219,1.031 c -0.119,0.101 -0.215,0.232 -0.313,0.344 l -0.906,0.75 c -0.135,0.115 -0.234,0.216 -0.344,0.344 l -0.875,0.75 c -0.129,0.11 -0.268,0.224 -0.375,0.344 l -0.906,0.75 c -0.134,0.114 -0.263,0.252 -0.375,0.375 l -0.938,0.781 c -0.15,0.128 -0.282,0.236 -0.406,0.375 l -0.906,0.781 c -0.036,0.031 -0.059,0.063 -0.094,0.094 l -1.25,1.063 c -0.168,0.143 -0.298,0.315 -0.438,0.469 l -0.906,0.75 -1.406,1.188 c -0.159,0.136 -0.301,0.293 -0.438,0.438 l -0.969,0.813 c -0.165,0.14 -0.327,0.289 -0.469,0.438 l -0.969,0.813 c -0.17,0.145 -0.322,0.316 -0.469,0.469 l -0.969,0.813 c -0.176,0.15 -0.347,0.311 -0.5,0.469 l -1,0.844 c -0.182,0.155 -0.342,0.307 -0.5,0.469 l -1,0.844 c -0.188,0.16 -0.368,0.333 -0.531,0.5 l -1,0.844 c -0.23,0.196 -0.461,0.389 -0.656,0.594 l -0.906,0.781 c -0.2,0.17 -0.387,0.355 -0.563,0.531 l -1,0.844 c -0.206,0.175 -0.413,0.35 -0.594,0.531 l -1.031,0.875 c -0.212,0.18 -0.407,0.376 -0.594,0.563 l -1.031,0.875 c -0.218,0.186 -0.401,0.371 -0.594,0.563 l -1.031,0.875 c -0.224,0.191 -0.457,0.397 -0.656,0.594 l -1.031,0.875 c -0.274,0.233 -0.512,0.479 -0.75,0.719 l -0.938,0.781 c -0.292,0.249 -0.559,0.494 -0.813,0.75 l -0.906,0.75 c -0.244,0.208 -0.47,0.413 -0.688,0.625 l -1.063,0.906 c -0.251,0.214 -0.494,0.439 -0.719,0.656 l -1.063,0.906 c -0.258,0.219 -0.488,0.433 -0.719,0.656 l -1.063,0.906 c -0.265,0.225 -0.512,0.459 -0.75,0.688 -0.177,0.151 -0.896,0.764 -1.063,0.906 -0.338,0.288 -0.642,0.583 -0.938,0.875 l -0.906,0.75 c -0.291,0.247 -0.552,0.469 -0.813,0.719 l -1.063,0.906 c -0.353,0.301 -0.658,0.603 -0.969,0.906 l -0.906,0.75 c -0.293,0.25 -0.579,0.499 -0.844,0.75 l -1.063,0.906 c -0.368,0.314 -0.706,0.653 -1.031,0.969 l -0.906,0.75 c -0.332,0.283 -0.639,0.56 -0.938,0.844 l -0.969,0.813 c 40.01,43.525 97.41,70.813 161.19,70.813 1.503,0 3,-0.032 4.5,-0.063 l 0,-215.97" fill="#BF9E73"/>
 <path inkscape:connector-curvature="0" id="path1168" d="m 256,256 c -0.001,0.003 0.002,14.493 0,26.03 -0.001,1.424 10e-4,1.711 0,3.219 l 0,0.688 c -0.001,0.827 10e-4,1.504 0,2.344 -0.001,0.291 0,0.521 0,0.813 -0.004,1.382 0.002,2.724 0,4.125 l 0,0.469 c -0.001,0.434 10e-4,0.847 0,1.281 l 0,11.41 c -0.001,0.186 0,0.377 0,0.563 -0.001,0.196 0,0.399 0,0.594 -0.001,0.205 0,0.422 0,0.625 -0.001,0.196 0,0.4 0,0.594 -0.001,0.216 0,0.442 0,0.656 -0.001,0.216 0,0.443 0,0.656 -0.001,0.215 0,0.443 0,0.656 -0.001,0.225 0,0.465 0,0.688 -0.001,0.225 0,0.465 0,0.688 -0.001,0.226 0,0.464 0,0.688 l 0,0.75 c -0.001,0.236 0,0.486 0,0.719 l 0,8.188 c -0.003,0.294 0,0.62 0,0.906 l 0,148.62 c 56.801,-1.145 108.28,-23.928 146.56,-60.44 l -51.06,-59.968 -0.031,0.125 c -0.01,-0.012 -0.906,-1.062 -0.906,-1.063 0,0 -0.031,0.124 -0.031,0.125 -0.011,-0.013 -0.905,-1.062 -0.906,-1.063 0,0 -0.031,0.093 -0.031,0.094 -0.011,-0.012 -0.874,-0.999 -0.875,-1 0,0 -0.03,0.092 -0.031,0.094 -0.012,-0.013 -0.873,-1.029 -0.875,-1.031 -0.001,-0.001 -0.06,0.122 -0.063,0.125 -0.036,-0.041 -0.871,-1.027 -0.875,-1.031 -10e-4,-0.001 -0.03,0.093 -0.031,0.094 -0.036,-0.041 -0.87,-0.995 -0.875,-1 -0.002,-0.002 -0.057,0.086 -0.063,0.094 -0.036,-0.041 -0.838,-0.994 -0.844,-1 -0.002,-0.002 -0.057,0.087 -0.063,0.094 -0.037,-0.042 -0.837,-0.993 -0.844,-1 -0.002,-0.002 -0.026,0.089 -0.031,0.094 -0.036,-0.041 -0.836,-0.961 -0.844,-0.969 -0.003,-0.003 -0.055,0.086 -0.063,0.094 -0.039,-0.044 -0.835,-0.991 -0.844,-1 -0.003,-0.003 -0.055,0.087 -0.063,0.094 -0.037,-0.042 -0.803,-0.96 -0.813,-0.969 -0.006,-0.006 -0.047,0.043 -0.063,0.063 -0.037,-0.042 -0.803,-0.928 -0.813,-0.938 -0.006,-0.006 -0.046,0.043 -0.063,0.063 -0.038,-0.043 -0.802,-0.927 -0.813,-0.938 -0.007,-0.007 -0.046,0.044 -0.063,0.063 -0.039,-0.044 -0.801,-0.926 -0.813,-0.938 -0.008,-0.008 -0.042,0.038 -0.063,0.063 -0.04,-0.045 -0.8,-0.925 -0.813,-0.938 -0.006,-0.006 -0.02,0.053 -0.031,0.063 -0.041,-0.046 -0.799,-0.924 -0.813,-0.938 -0.007,-0.007 -0.047,0.05 -0.063,0.063 -0.114,-0.129 -0.787,-0.881 -0.813,-0.906 -0.01,-0.01 -0.041,0.041 -0.063,0.063 -0.113,-0.127 -0.755,-0.88 -0.781,-0.906 -0.01,-0.01 -0.04,0.042 -0.063,0.063 -0.114,-0.128 -0.753,-0.878 -0.781,-0.906 -0.008,-0.008 -0.047,0.022 -0.063,0.031 -0.112,-0.126 -0.752,-0.846 -0.781,-0.875 -0.009,-0.009 -0.047,0.022 -0.063,0.031 -0.112,-0.126 -0.751,-0.845 -0.781,-0.875 -0.016,-0.016 -0.058,-0.006 -0.094,0.031 -0.11,-0.124 -0.719,-0.844 -0.75,-0.875 -0.013,-0.013 -0.039,-0.017 -0.063,0 -0.108,-0.12 -0.718,-0.812 -0.75,-0.844 -0.017,-0.017 -0.057,0.028 -0.094,0.063 -0.113,-0.126 -0.716,-0.841 -0.75,-0.875 -0.018,-0.018 -0.056,-0.002 -0.094,0.031 -0.108,-0.12 -0.685,-0.809 -0.719,-0.844 -0.019,-0.019 -0.056,-0.001 -0.094,0.031 -0.108,-0.12 -0.683,-0.808 -0.719,-0.844 -0.018,-0.018 -0.06,-0.025 -0.094,0 -0.106,-0.117 -0.683,-0.776 -0.719,-0.813 -0.021,-0.021 -0.053,-0.002 -0.094,0.031 -0.111,-0.123 -0.68,-0.805 -0.719,-0.844 -0.019,-0.019 -0.059,-0.023 -0.094,0 -0.108,-0.119 -0.68,-0.774 -0.719,-0.813 -0.02,-0.02 -0.059,-0.022 -0.094,0 -0.103,-0.113 -0.649,-0.742 -0.688,-0.781 -0.022,-0.022 -0.054,-0.026 -0.094,0 -0.11,-0.121 -0.677,-0.771 -0.719,-0.813 -0.021,-0.021 -0.058,-0.02 -0.094,0 -0.104,-0.115 -0.646,-0.74 -0.688,-0.781 -0.022,-0.022 -0.057,-0.019 -0.094,0 -0.105,-0.115 -0.645,-0.739 -0.688,-0.781 -0.022,-0.023 -0.057,-0.018 -0.094,0 -0.107,-0.117 -0.644,-0.737 -0.688,-0.781 -0.019,-0.019 -0.034,-0.008 -0.063,0 -0.108,-0.118 -0.642,-0.736 -0.688,-0.781 -0.024,-0.024 -0.087,-0.016 -0.125,0 -0.102,-0.111 -0.612,-0.705 -0.656,-0.75 -0.026,-0.026 -0.053,-0.018 -0.094,0 -0.11,-0.12 -0.64,-0.733 -0.688,-0.781 -0.026,-0.026 -0.052,-0.017 -0.094,0 -0.104,-0.113 -0.609,-0.703 -0.656,-0.75 -0.027,-0.027 -0.052,-0.015 -0.094,0 -0.105,-0.115 -0.608,-0.702 -0.656,-0.75 -0.021,-0.021 -0.064,-0.035 -0.094,-0.031 -0.103,-0.111 -0.608,-0.67 -0.656,-0.719 -0.022,-0.022 -0.063,-0.034 -0.094,-0.031 -0.103,-0.112 -0.607,-0.669 -0.656,-0.719 -0.027,-0.027 -0.054,-0.041 -0.094,-0.031 -0.104,-0.113 -0.605,-0.668 -0.656,-0.719 -0.028,-0.028 -0.053,-0.04 -0.094,-0.031 -0.099,-0.106 -0.575,-0.638 -0.625,-0.688 -0.032,-0.032 -0.077,-0.045 -0.125,-0.031 -0.103,-0.111 -0.573,-0.667 -0.625,-0.719 -0.029,-0.029 -0.053,-0.038 -0.094,-0.031 -0.101,-0.108 -0.573,-0.635 -0.625,-0.688 -0.024,-0.024 -0.062,-0.03 -0.094,-0.031 -0.102,-0.109 -0.572,-0.634 -0.625,-0.688 -0.032,-0.032 -0.08,-0.069 -0.125,-0.063 -0.096,-0.103 -0.542,-0.604 -0.594,-0.656 -0.033,-0.033 -0.08,-0.068 -0.125,-0.063 -0.098,-0.103 -0.542,-0.603 -0.595,-0.656 -0.033,-0.033 -0.079,-0.067 -0.125,-0.063 -0.097,-0.104 -0.54,-0.602 -0.594,-0.656 -0.033,-0.033 -0.05,-0.034 -0.094,-0.031 -0.099,-0.106 -0.538,-0.601 -0.594,-0.656 -0.033,-0.033 -0.082,-0.063 -0.125,-0.063 -0.099,-0.106 -0.538,-0.6 -0.594,-0.656 -0.034,-0.034 -0.049,-0.032 -0.094,-0.031 -0.1,-0.107 -0.536,-0.599 -0.594,-0.656 -0.027,-0.027 -0.06,-0.057 -0.094,-0.063 -0.098,-0.104 -0.537,-0.568 -0.594,-0.625 -0.036,-0.036 -0.078,-0.062 -0.125,-0.063 -0.095,-0.101 -0.506,-0.568 -0.563,-0.625 -0.037,-0.037 -0.077,-0.061 -0.125,-0.063 -0.096,-0.102 -0.505,-0.567 -0.563,-0.625 -0.029,-0.029 -0.059,-0.055 -0.094,-0.063 -0.097,-0.103 -0.504,-0.566 -0.563,-0.625 -0.036,-0.036 -0.079,-0.027 -0.125,-0.031 -0.098,-0.104 -0.503,-0.565 -0.563,-0.625 -0.029,-0.03 -0.058,-0.053 -0.094,-0.063 -0.095,-0.101 -0.503,-0.534 -0.563,-0.594 -0.03,-0.03 -0.058,-0.053 -0.094,-0.063 -0.1,-0.106 -0.5,-0.563 -0.563,-0.625 -0.03,-0.03 -0.057,-0.052 -0.094,-0.063 -0.097,-0.103 -0.501,-0.532 -0.563,-0.594 -0.031,-0.031 -0.088,-0.051 -0.125,-0.063 -0.094,-0.099 -0.471,-0.533 -0.531,-0.594 -0.031,-0.031 -0.088,-0.05 -0.125,-0.063 -0.092,-0.096 -0.471,-0.502 -0.531,-0.563 -0.039,-0.039 -0.077,-0.052 -0.125,-0.063 -0.096,-0.101 -0.469,-0.531 -0.531,-0.594 -0.032,-0.032 -0.056,-0.049 -0.094,-0.063 -0.093,-0.098 -0.469,-0.5 -0.531,-0.563 -0.033,-0.033 -0.056,-0.08 -0.094,-0.094 -0.094,-0.099 -0.468,-0.499 -0.531,-0.563 -0.033,-0.033 -0.087,-0.048 -0.125,-0.063 -0.095,-0.099 -0.467,-0.499 -0.531,-0.563 -0.041,-0.041 -0.076,-0.049 -0.125,-0.063 -0.092,-0.097 -0.437,-0.499 -0.5,-0.563 -0.034,-0.034 -0.055,-0.047 -0.094,-0.063 -0.094,-0.098 -0.436,-0.498 -0.5,-0.563 -0.042,-0.042 -0.107,-0.047 -0.156,-0.063 -0.087,-0.091 -0.407,-0.47 -0.469,-0.531 -0.043,-0.043 -0.106,-0.078 -0.156,-0.094 -0.088,-0.092 -0.407,-0.469 -0.469,-0.531 -0.044,-0.044 -0.074,-0.077 -0.125,-0.094 -0.085,-0.089 -0.408,-0.439 -0.469,-0.5 -0.035,-0.035 -0.085,-0.075 -0.125,-0.094 -0.089,-0.093 -0.405,-0.467 -0.469,-0.531 -0.036,-0.036 -0.085,-0.044 -0.125,-0.063 -0.09,-0.094 -0.404,-0.466 -0.469,-0.531 -0.036,-0.036 -0.085,-0.043 -0.125,-0.063 -0.091,-0.094 -0.403,-0.466 -0.469,-0.531 -0.026,-0.026 -0.066,-0.014 -0.094,-0.031 -0.099,-0.103 -0.429,-0.492 -0.5,-0.563 -0.037,-0.037 -0.084,-0.042 -0.125,-0.063 -0.089,-0.092 -0.403,-0.435 -0.469,-0.5 -0.007,-0.007 -0.024,0.007 -0.031,0 -0.108,-0.113 -0.454,-0.517 -0.531,-0.594 -0.038,-0.038 -0.084,-0.041 -0.125,-0.063 -0.09,-0.093 -0.402,-0.433 -0.469,-0.5 -0.019,-0.019 -0.043,-0.016 -0.063,-0.031 -0.098,-0.102 -0.428,-0.459 -0.5,-0.531 -0.029,-0.029 -0.062,-0.042 -0.094,-0.063 -0.092,-0.095 -0.4,-0.431 -0.469,-0.5 -0.03,-0.03 -0.062,-0.042 -0.094,-0.063 -0.092,-0.096 -0.399,-0.43 -0.469,-0.5 -0.03,-0.03 -0.062,-0.041 -0.094,-0.063 -0.093,-0.096 -0.399,-0.43 -0.469,-0.5 -0.012,-0.012 -0.019,-0.021 -0.031,-0.031 -0.101,-0.105 -0.424,-0.456 -0.5,-0.531 -0.045,-0.045 -0.107,-0.067 -0.156,-0.094 -0.08,-0.082 -0.344,-0.375 -0.406,-0.438 -0.007,-0.007 -0.024,0.007 -0.031,0 -0.106,-0.11 -0.42,-0.483 -0.5,-0.563 -0.028,-0.028 -0.064,-0.041 -0.094,-0.063 -0.088,-0.091 -0.369,-0.4 -0.438,-0.469 -0.018,-0.018 -0.044,-0.016 -0.063,-0.031 -0.097,-0.1 -0.394,-0.425 -0.469,-0.5 -0.018,-0.018 -0.044,-0.016 -0.063,-0.031 -0.097,-0.1 -0.394,-0.425 -0.469,-0.5 -0.036,-0.036 -0.087,-0.037 -0.125,-0.063 -0.083,-0.085 -0.34,-0.371 -0.406,-0.438 -0.028,-0.028 -0.065,-0.041 -0.094,-0.063 -0.091,-0.093 -0.366,-0.397 -0.438,-0.469 -0.035,-0.036 -0.057,-0.068 -0.094,-0.094 -0.08,-0.082 -0.341,-0.341 -0.406,-0.406 -0.108,-0.111 -0.417,-0.448 -0.5,-0.531 -0.05,-0.051 -0.102,-0.092 -0.156,-0.125 -0.074,-0.075 -0.314,-0.314 -0.375,-0.375 -0.031,-0.031 -0.062,-0.038 -0.094,-0.063 -0.067,-0.068 -0.256,-0.286 -0.313,-0.344 -0.126,-0.13 -0.466,-0.497 -0.563,-0.594 -0.047,-0.047 -0.107,-0.061 -0.156,-0.094 -0.072,-0.074 -0.283,-0.314 -0.344,-0.375 -0.033,-0.033 -0.06,-0.068 -0.094,-0.094 -0.084,-0.086 -0.337,-0.337 -0.406,-0.406 -0.032,-0.032 -0.061,-0.037 -0.094,-0.063 -0.065,-0.066 -0.257,-0.256 -0.313,-0.313 -0.021,-0.022 -0.042,-0.073 -0.063,-0.094 -0.104,-0.107 -0.385,-0.416 -0.469,-0.5 -0.023,-0.023 -0.039,-0.042 -0.063,-0.063 -0.086,-0.087 -0.335,-0.335 -0.406,-0.406 -0.101,-0.104 -0.386,-0.386 -0.469,-0.469 -0.023,-0.024 -0.039,-0.042 -0.063,-0.063 -0.086,-0.088 -0.334,-0.334 -0.406,-0.406 -0.05,-0.05 -0.105,-0.057 -0.156,-0.094 -0.068,-0.069 -0.254,-0.285 -0.313,-0.344 -0.1,-0.102 -0.355,-0.387 -0.438,-0.469 -0.093,-0.093 -0.183,-0.168 -0.281,-0.219 -0.041,-0.041 -0.15,-0.182 -0.188,-0.219 -0.029,-0.03 -0.064,-0.037 -0.094,-0.063 -0.077,-0.078 -0.278,-0.309 -0.344,-0.375 -0.023,-0.023 -0.039,-0.042 -0.063,-0.063 -0.082,-0.083 -0.305,-0.305 -0.375,-0.375 -0.023,-0.023 -0.039,-0.042 -0.063,-0.063 -0.082,-0.083 -0.305,-0.305 -0.375,-0.375 -0.024,-0.024 -0.039,-0.041 -0.063,-0.063 -0.082,-0.084 -0.304,-0.304 -0.375,-0.375 -0.095,-0.096 -0.326,-0.357 -0.406,-0.438 -0.046,-0.046 -0.11,-0.057 -0.156,-0.094 -0.007,-0.007 -0.025,-0.024 -0.031,-0.031 -0.023,-0.024 -0.071,-0.071 -0.094,-0.094 -0.047,-0.048 -0.111,-0.141 -0.156,-0.188 -0.04,-0.04 -0.084,-0.06 -0.125,-0.094 -0.02,-0.02 -0.043,-0.074 -0.063,-0.094 -0.06,-0.062 -0.162,-0.16 -0.219,-0.219 -0.097,-0.098 -0.324,-0.355 -0.406,-0.438 -0.018,-0.018 -0.045,-0.015 -0.063,-0.031 -0.081,-0.082 -0.273,-0.304 -0.344,-0.375 -0.047,-0.047 -0.109,-0.055 -0.156,-0.094 l -0.031,-0.031 c -0.051,-0.052 -0.14,-0.171 -0.188,-0.219 l -0.031,-0.031 c -0.022,-0.022 -0.041,-0.042 -0.063,-0.063 -0.078,-0.079 -0.275,-0.275 -0.344,-0.344 -0.09,-0.091 -0.297,-0.328 -0.375,-0.406 -0.083,-0.083 -0.166,-0.16 -0.25,-0.219 -0.005,-0.005 -0.027,0.005 -0.031,0 -0.01,-0.007 -0.021,-0.024 -0.031,-0.031 l -0.063,-0.063 c -0.004,-0.005 0.004,-0.027 0,-0.031 -0.027,-0.028 -0.067,-0.066 -0.094,-0.094 -0.012,-0.011 -0.019,-0.021 -0.031,-0.031 -0.172,-0.175 -0.519,-0.55 -0.656,-0.688 -0.088,-0.089 -0.298,-0.298 -0.375,-0.375 -0.102,-0.102 -0.211,-0.181 -0.313,-0.25 l -0.031,-0.031 c -0.005,-0.005 0.005,-0.026 0,-0.031 -0.007,-0.008 -0.024,-0.024 -0.031,-0.031 -0.032,-0.032 -0.062,-0.065 -0.094,-0.094 -0.104,-0.106 -0.314,-0.313 -0.406,-0.406 -0.06,-0.061 -0.163,-0.194 -0.219,-0.25 -0.018,-0.018 -0.045,-0.014 -0.063,-0.031 -0.07,-0.07 -0.218,-0.249 -0.281,-0.313 -0.074,-0.074 -0.145,-0.129 -0.219,-0.188 -0.005,-0.005 -0.026,0.005 -0.031,0 -0.022,-0.017 -0.04,-0.046 -0.063,-0.063 -0.005,-0.005 0.005,-0.026 0,-0.031 l -0.063,-0.063 c -0.022,-0.022 -0.041,-0.042 -0.063,-0.063 -0.08,-0.082 -0.207,-0.205 -0.281,-0.281 l -0.063,-0.063 c -0.106,-0.108 -0.312,-0.311 -0.406,-0.406 -0.052,-0.053 -0.138,-0.169 -0.188,-0.219 -0.021,-0.021 -0.042,-0.043 -0.063,-0.063 -0.063,-0.064 -0.223,-0.192 -0.281,-0.25 l 0,-0.031 c -0.03,-0.03 -0.064,-0.035 -0.094,-0.063 l -0.031,-0.031 -0.031,-0.031 -0.031,0 0,-0.031 -0.031,0 0,-0.031 c -0.034,-0.035 -0.092,-0.091 -0.125,-0.125 -0.022,-0.022 -0.04,-0.041 -0.063,-0.063 l -0.031,-0.031 -0.219,-0.219 -0.031,-0.063 c -0.044,-0.045 -0.113,-0.113 -0.156,-0.156 l -0.125,-0.125 -0.063,-0.063 c -0.084,-0.081 -0.168,-0.155 -0.25,-0.219 l 0,-0.031 c -0.084,-0.084 -0.168,-0.151 -0.25,-0.219 l -0.031,0 c -0.002,-0.002 0.002,-0.029 0,-0.031 l -0.031,-0.031 0,-0.031 c -0.079,-0.079 -0.142,-0.153 -0.219,-0.219 l -0.031,0 c -0.011,-0.009 -0.02,-0.022 -0.031,-0.031 -0.012,-0.012 -0.02,-0.019 -0.031,-0.031 -0.033,-0.033 -0.062,-0.063 -0.094,-0.094 l 0,-0.031 c -0.056,-0.057 -0.134,-0.133 -0.188,-0.188 l -0.031,0 c -0.022,-0.021 -0.041,-0.042 -0.063,-0.063 l -0.031,0 c -0.003,-0.003 0.003,-0.028 0,-0.031 l -0.031,-0.031 c -0.071,-0.072 -0.084,-0.083 -0.156,-0.156 l -0.031,0 c -0.004,-0.004 0.004,-0.027 0,-0.031 -0.015,-0.015 -0.017,-0.016 -0.031,-0.031 -0.017,-0.018 -0.045,-0.045 -0.063,-0.063 l 0,-0.031 -0.063,-0.063 -0.094,-0.094 -0.031,-0.031 c -0.062,-0.062 -0.193,-0.192 -0.25,-0.25 l -0.031,-0.031 -0.25,-0.25 c -0.012,-0.012 -0.019,-0.02 -0.031,-0.031 l -0.031,-0.031 -0.031,0 -0.156,-0.156 0,-0.031 -0.031,-0.031 -0.031,-0.031 -0.063,0 c -0.005,-0.005 0.005,-0.026 0,-0.031 l -0.094,-0.094 -0.031,-0.031 c -0.023,-0.02 -0.04,-0.043 -0.063,-0.063 l 0,-0.031 -0.031,-0.031 -0.063,-0.063 -0.156,-0.156 c -0.046,-0.046 -0.08,-0.083 -0.125,-0.125 l -0.034,-0.003 c -0.036,-0.036 -0.09,-0.089 -0.125,-0.125 -0.055,-0.056 -0.167,-0.166 -0.219,-0.219 l -0.031,-0.031 0,-0.031 -0.031,-0.031 -0.219,-0.219 -0.031,0 -0.125,-0.125 -0.031,-0.031 0,-0.031 c -0.023,-0.023 -0.04,-0.039 -0.063,-0.063 -0.035,-0.035 -0.06,-0.061 -0.094,-0.094 l -0.031,0 c -0.046,-0.044 -0.08,-0.085 -0.125,-0.125 -0.095,-0.095 -0.16,-0.169 -0.25,-0.25 l -0.188,-0.188 0,-0.031 c -0.011,-0.012 -0.02,-0.02 -0.031,-0.031 l -0.031,-0.031 -0.188,-0.188 c -0.058,-0.058 -0.101,-0.104 -0.156,-0.156 l -0.031,0 c -0.022,-0.021 -0.041,-0.043 -0.063,-0.063 -0.024,-0.024 -0.039,-0.04 -0.063,-0.063 -0.042,-0.043 -0.115,-0.115 -0.156,-0.156 l -0.031,-0.031 c -0.07,-0.07 -0.12,-0.125 -0.188,-0.188 l -0.063,-0.063 -0.031,-0.031 -0.031,-0.031 c -0.007,-0.007 0.007,-0.024 0,-0.031 l -0.031,-0.031 -0.031,-0.031 -0.031,-0.031 -0.188,-0.188 -0.063,-0.063 c -0.046,-0.045 -0.081,-0.083 -0.125,-0.125 l -0.031,0 c -0.071,-0.071 -0.12,-0.123 -0.188,-0.188 l -0.031,-0.031 c -0.007,-0.007 0.007,-0.024 0,-0.031 l -0.031,-0.031 c -0.016,-0.017 -0.046,-0.046 -0.063,-0.063 l -0.031,-0.031 -0.031,-0.031 -0.063,-0.063 -0.031,-0.031 -0.031,0 -0.031,-0.031 c -0.007,-0.007 0.007,-0.024 0,-0.031 -0.008,-0.008 -0.024,-0.023 -0.031,-0.031 -0.07,-0.07 -0.121,-0.124 -0.188,-0.188 l -0.031,-0.031 -0.031,0 -0.031,-0.031 c -0.034,-0.034 -0.06,-0.062 -0.094,-0.094 -0.023,-0.023 -0.039,-0.04 -0.063,-0.063 l -0.031,-0.031 c -0.007,-0.007 0.007,-0.024 0,-0.031 l -0.031,-0.031 -0.031,-0.031 -0.031,-0.031 c -0.034,-0.034 -0.06,-0.061 -0.094,-0.094 l -0.031,0 c -0.011,-0.01 -0.021,-0.021 -0.031,-0.031 l -0.031,-0.031 c -0.006,-0.007 0.006,-0.025 0,-0.031 l -0.031,-0.031 -0.031,-0.031 -0.031,-0.031 -0.031,-0.031 -0.063,-0.063 -0.031,0 -0.031,-0.031 c -0.012,-0.01 -0.02,-0.021 -0.031,-0.031 -0.006,-0.006 0.006,-0.025 0,-0.031 l -0.031,0 -0.031,-0.031 c -0.019,-0.019 -0.012,-0.044 -0.031,-0.063 l -0.031,-0.031 -0.031,-0.031 -0.094,-0.094 -0.033,-0.002 c -0.068,-0.067 -0.123,-0.126 -0.188,-0.188 l -0.031,-0.031 c -0.005,-0.005 0.005,-0.027 0,-0.031 l -0.031,-0.031 -0.031,-0.031 c -0.008,-0.009 -0.023,-0.023 -0.031,-0.031 -0.039,-0.039 -0.055,-0.056 -0.094,-0.094 l -0.031,0 -0.031,-0.031 -0.125,-0.125 -0.125,-0.125 c -0.026,-0.026 -0.036,-0.037 -0.063,-0.063 l -0.031,-0.031 -0.031,0 c -0.006,-0.005 0.006,-0.026 0,-0.031 l -0.219,-0.219 c -0.004,-0.004 0.004,-0.027 0,-0.031 l -0.031,0 -0.094,-0.094 -0.094,-0.094 c -0.005,-0.005 0.005,-0.026 0,-0.031 l -0.094,-0.094 -0.094,-0.094 -0.094,-0.094 c -0.039,-0.04 -0.055,-0.055 -0.094,-0.094 -0.033,-0.033 -0.062,-0.03 -0.094,-0.063 -0.033,-0.033 -0.03,-0.062 -0.063,-0.094 l -0.063,-0.063 -0.063,-0.063 c -0.032,-0.032 -0.062,-0.031 -0.094,-0.063 -0.02,-0.02 -0.012,-0.043 -0.031,-0.063 l -0.063,-0.063 c -0.029,-0.029 -0.034,-0.003 -0.063,-0.031 -0.029,-0.029 -0.003,-0.034 -0.031,-0.063 l -0.031,-0.031 -0.031,-0.031 -0.031,-0.031 c -0.019,-0.019 -0.013,-0.012 -0.031,-0.031 l -0.031,0 c -0.01,-0.01 0.009,-0.022 0,-0.031 l -0.031,0 c -0.01,-0.01 0.009,-0.022 0,-0.031 -0.105,-0.105 -0.091,-0.06 -0.188,-0.156 -0.057,-0.055 -0.074,-0.075 -0.125,-0.125 -0.042,-0.038 -0.057,-0.062 -0.094,-0.094 -0.034,-0.032 -0.094,-0.096 -0.125,-0.125 l -0.031,-0.031 c -0.04,-0.038 -0.027,-0.03 -0.063,-0.063 -0.061,-0.058 -0.044,-0.049 -0.094,-0.094 -0.043,-0.041 -0.025,-0.028 -0.063,-0.063 -0.043,-0.041 -0.026,-0.028 -0.063,-0.063 -0.147,-0.141 -0.56,-0.568 -0.563,-0.563 -10e-4,0 -0.031,-0.031 -0.031,-0.031 -0.001,0 -0.031,-0.031 -0.031,-0.031 -0.001,-0.001 -0.031,-0.063 -0.031,-0.063 l -0.031,0 0,-0.031 -0.031,0 -0.031,-0.031 z" fill="#BF9E73"/>
 <path inkscape:connector-curvature="0" id="path1170" d="m 256.03,256 0.031,0.031 0,0.031 0.031,0.031 c 0,0 0.031,0.03 0.031,0.031 0,10e-4 0.061,0.029 0.063,0.031 -10e-4,0 0.113,0.112 0.125,0.125 0.004,0.005 0.055,0.055 0.063,0.063 0.072,0.077 0.249,0.247 0.5,0.5 0.009,0.009 -0.009,0.022 0,0.031 0.011,0.011 0.02,0.019 0.031,0.031 l 0.031,0.031 0.031,0 c 0.01,0.01 -0.01,0.021 0,0.031 l 0.031,0.031 0.031,0.031 0.031,0.031 0.031,0.031 0.094,0.094 0.156,0.156 0.063,0.063 0.156,0.156 0.063,0.063 0.094,0.094 0.281,0.281 c 0.037,0.038 0.054,0.054 0.094,0.094 0.038,0.039 0.053,0.053 0.094,0.094 0.048,0.049 0.072,0.072 0.125,0.125 l 0.094,0.094 c 0.05,0.051 0.07,0.07 0.125,0.125 0.05,0.051 0.07,0.07 0.125,0.125 0.05,0.051 0.07,0.07 0.125,0.125 0.055,0.055 0.222,0.221 0.281,0.281 l 0.281,0.281 c 0.058,0.061 0.089,0.089 0.156,0.156 l 0.156,0.156 c 0.06,0.064 0.087,0.087 0.156,0.156 l 0.344,0.344 0.188,0.188 c 0.065,0.065 0.273,0.272 0.344,0.344 l 0.406,0.406 0.188,0.188 0.25,0.25 c 0.05,0.05 0.106,0.105 0.156,0.156 0.508,0.51 0.643,0.641 1.156,1.156 0.069,0.07 0.087,0.087 0.156,0.156 0.007,0.007 -0.007,0.024 0,0.031 l 0.031,0.031 0.031,0.031 c 0.023,0.023 0.04,0.039 0.063,0.063 l 0.063,0.063 c 0.023,0.024 0.039,0.039 0.063,0.063 0.023,0.024 0.039,0.039 0.063,0.063 0.027,0.028 0.035,0.035 0.063,0.063 0.028,0.029 0.034,0.065 0.063,0.094 0.089,0.09 0.16,0.159 0.25,0.25 0.118,0.119 0.223,0.221 0.344,0.344 0.021,0.022 0.041,0.041 0.063,0.063 0.615,0.622 1.014,0.974 1.625,1.594 0.015,0.016 0.016,0.016 0.031,0.031 l 0.031,0.031 0.031,0.031 c 0.006,0.006 -0.006,0.025 0,0.031 l 0.031,0.031 0.125,0.125 c 0.018,0.018 0.013,0.044 0.031,0.063 0.036,0.036 0.058,0.057 0.094,0.094 0.006,0.006 0.026,-0.006 0.031,0 0.121,0.123 0.191,0.188 0.313,0.313 0.006,0.006 -0.006,0.025 0,0.031 0.047,0.048 0.078,0.077 0.125,0.125 0.005,0.005 0.026,-0.005 0.031,0 0.006,0.006 -0.006,0.025 0,0.031 0.011,0.012 0.02,0.02 0.031,0.031 0.005,0.005 0.026,-0.005 0.031,0 l 0.094,0.094 c 0.011,0.012 0.02,0.02 0.031,0.031 0.011,0.012 0.02,0.02 0.031,0.031 0.006,0.006 -0.006,0.026 0,0.031 l 0.031,0.031 c 0.024,0.024 0.039,0.038 0.063,0.063 0.073,0.074 0.115,0.114 0.188,0.188 0.011,0.012 0.02,0.02 0.031,0.031 0.055,0.056 0.07,0.1 0.125,0.156 0.073,0.075 0.115,0.113 0.188,0.188 0.073,0.075 0.114,0.113 0.188,0.188 0.086,0.088 0.133,0.131 0.219,0.219 0.012,0.013 0.019,0.019 0.031,0.031 0.061,0.063 0.095,0.093 0.156,0.156 0.086,0.089 0.133,0.13 0.219,0.219 0.086,0.089 0.133,0.13 0.219,0.219 0.033,0.033 0.061,0.06 0.094,0.094 0.011,0.011 0.021,0.02 0.031,0.031 0.055,0.056 0.07,0.132 0.125,0.188 0.087,0.089 0.164,0.161 0.25,0.25 0.005,0.005 0.026,-0.005 0.031,0 0.01,0.011 0.021,0.02 0.031,0.031 0.037,0.038 0.057,0.055 0.094,0.094 0.005,0.006 -0.005,0.026 0,0.031 0.012,0.013 0.019,0.019 0.031,0.031 0.025,0.026 0.038,0.037 0.063,0.063 0.05,0.052 0.075,0.073 0.125,0.125 0.064,0.066 0.124,0.121 0.188,0.188 0.025,0.026 0.038,0.037 0.063,0.063 0.1,0.104 0.15,0.146 0.25,0.25 0.075,0.078 0.112,0.109 0.188,0.188 0.025,0.026 0.037,0.036 0.063,0.063 0.005,0.005 -0.005,0.026 0,0.031 0.01,0.01 0.022,0.021 0.031,0.031 0.021,0.022 0.041,0.04 0.063,0.063 l 0.031,0 37.594,44.13 0.719,0.844 0.063,0.063 0.094,0.125 0.094,0.125 9.594,11.25 4.875,5.719 0.031,0.063 0.063,0.063 0.094,0.094 c 0.062,0.072 0.033,0.054 0.094,0.125 l 0.125,0.125 0.156,0.188 c 0.017,0.019 0.015,0.012 0.031,0.031 0.01,0.012 -0.01,0.019 0,0.031 l 0.125,0.125 c 0.058,0.067 0.037,0.058 0.094,0.125 0.048,0.056 0.078,0.07 0.125,0.125 2.904,3.408 5.273,6.209 5.313,6.25 l 0.063,0.063 0.031,-0.031 c 0,0 0.031,0.063 0.031,0.063 0.001,0.001 0.062,0.094 0.063,0.094 l 0.125,0.125 c 0.006,0.006 0.124,0.126 0.125,0.125 l 0.031,-0.031 c 0.17,0.186 0.224,0.223 0.313,0.313 10e-4,0 0.031,0.032 0.031,0.031 0.042,0.046 0.116,0.112 0.156,0.156 0.004,0.004 -0.004,0.027 0,0.031 0.004,0.002 0.061,0.033 0.063,0.031 0.003,0.004 -0.003,0.028 0,0.031 0.062,0.058 0.211,0.195 0.219,0.188 0.018,0.019 0.045,0.076 0.063,0.094 0.004,0.005 -0.004,0.027 0,0.031 0.047,0.054 0.079,0.103 0.125,0.156 0.006,0.007 0.025,-0.007 0.031,0 0.011,0.012 0.021,0.019 0.031,0.031 0.026,0.03 0.037,0.064 0.063,0.094 0.027,0.03 0.067,0.064 0.094,0.094 0.016,0.018 0.016,0.044 0.031,0.063 0.079,0.092 0.141,0.16 0.219,0.25 0.009,0.01 0.022,0.022 0.031,0.031 l 0.25,0.281 c 0.091,0.107 0.161,0.177 0.25,0.281 0.009,0.01 0.022,0.022 0.031,0.031 0.031,0.037 0.063,0.057 0.094,0.094 0.02,0.023 0.043,0.04 0.063,0.063 0.005,0.005 -0.005,0.026 0,0.031 0.009,0.01 0.022,0.022 0.031,0.031 l 0.156,0.188 c 0.062,0.068 0.158,0.152 0.219,0.219 0.058,0.067 0.099,0.121 0.156,0.188 0.03,0.034 0.064,0.06 0.094,0.094 0.009,0.01 0.022,0.021 0.031,0.031 l 0.156,0.219 0.688,0.781 c 0.197,0.216 0.438,0.487 0.625,0.688 0.024,0.026 0.039,0.067 0.063,0.094 l 0.031,0.031 c 0.02,0.024 0.043,0.039 0.063,0.063 0.082,0.093 0.169,0.19 0.25,0.281 0.01,0.011 0.021,0.02 0.031,0.031 0.104,0.118 0.21,0.261 0.313,0.375 l 0.063,0.094 c 0.212,0.249 0.42,0.452 0.625,0.688 0.005,0.006 -0.005,0.026 0,0.031 l 0.125,0.125 c 0.13,0.144 0.248,0.268 0.375,0.406 0.081,0.091 0.17,0.193 0.25,0.281 0.252,0.288 0.508,0.608 0.75,0.875 l 0.188,0.25 c 0.184,0.207 0.384,0.429 0.563,0.625 0.269,0.308 0.554,0.623 0.813,0.906 0.035,0.04 0.059,0.086 0.094,0.125 l 0.219,0.25 c 0.076,0.089 0.144,0.163 0.219,0.25 0.129,0.143 0.249,0.301 0.375,0.438 0.273,0.31 0.55,0.622 0.813,0.906 l 0.344,0.406 0.906,1.031 c 0.04,0.047 0.086,0.079 0.125,0.125 0.106,0.117 0.208,0.262 0.313,0.375 l 0.5,0.594 c 0.175,0.206 0.359,0.367 0.531,0.563 l 0.441,0.535 c 0.288,0.338 0.564,0.629 0.844,0.938 l 0.156,0.188 c 0.106,0.124 0.208,0.223 0.313,0.344 0.01,0.01 0.022,0.021 0.031,0.031 l 0.656,0.781 c 0.322,0.379 0.624,0.722 0.938,1.063 l 0.094,0.094 c 0.102,0.11 0.211,0.238 0.313,0.344 l 0.719,0.875 c 0.274,0.321 0.545,0.582 0.813,0.875 0.06,0.071 0.222,0.274 0.281,0.344 0.079,0.083 0.172,0.169 0.25,0.25 0.12,0.137 0.225,0.274 0.344,0.406 l 0.5,0.594 c 0.05,0.058 0.107,0.099 0.156,0.156 0.029,0.03 0.065,0.064 0.094,0.094 l 0.875,1.063 c 0.317,0.372 0.626,0.7 0.938,1.031 l 0.219,0.25 c 0.059,0.061 0.129,0.128 0.188,0.188 0.026,0.029 0.037,0.065 0.063,0.094 l 0.906,1.063 c 0.08,0.094 0.17,0.159 0.25,0.25 l 0.938,1.125 c 0.177,0.207 0.356,0.368 0.531,0.563 l 0.688,0.813 c 0.124,0.146 0.251,0.267 0.375,0.406 l 0.875,1.031 c 0.127,0.149 0.248,0.264 0.375,0.406 l 0.875,1.031 c 0.115,0.135 0.229,0.246 0.344,0.375 l 0.938,1.094 c 0.106,0.124 0.207,0.224 0.313,0.344 l 1,1.156 c 0.254,0.299 0.495,0.544 0.75,0.813 l 0.594,0.688 c 0.051,0.06 0.106,0.098 0.156,0.156 l 1.188,1.406 c 0.22,0.258 0.435,0.484 0.656,0.719 l 0.719,0.844 c 0.292,0.343 0.58,0.669 0.875,0.969 l 0.531,0.625 c 0.229,0.269 0.457,0.539 0.688,0.781 l 0.719,0.844 c 0.289,0.339 0.583,0.674 0.875,0.969 l 0.594,0.688 c 0.238,0.28 0.477,0.563 0.719,0.813 l 0.75,0.875 c 0.025,0.029 0.038,0.065 0.063,0.094 l 1.406,1.625 c 0.258,0.302 0.519,0.579 0.781,0.844 l 0.75,0.875 c 0.073,0.086 0.145,0.167 0.219,0.25 l 1.313,1.531 c 0.214,0.251 0.438,0.463 0.656,0.688 l 0.906,1.094 c 0.213,0.25 0.438,0.465 0.656,0.688 l 0.938,1.125 c 0.069,0.081 0.149,0.141 0.219,0.219 l 1.375,1.625 c 0.237,0.279 0.505,0.507 0.75,0.75 l 0.906,1.094 c 0.237,0.278 0.473,0.539 0.719,0.781 l 0.938,1.125 c 0.21,0.246 0.408,0.47 0.625,0.688 l 1.031,1.219 c 0.209,0.245 0.44,0.472 0.656,0.688 l 1.063,1.25 c 0.208,0.244 0.409,0.473 0.625,0.688 l 1.094,1.281 c 0.218,0.255 0.429,0.497 0.656,0.719 l 1.094,1.281 c 0.206,0.242 0.41,0.476 0.625,0.688 l 1.125,1.344 c 0.205,0.241 0.441,0.478 0.656,0.688 l 1.156,1.375 c 0.204,0.24 0.41,0.448 0.625,0.656 l 1.188,1.406 c 0.204,0.239 0.411,0.481 0.625,0.688 l 0.719,0.844 c 44.46,-39.492 72.72,-96.81 73.56,-160.75 l -214.34,0" fill="#BF9E73"/>
 <g id="g2336" fill-rule="evenodd">
  <path inkscape:connector-curvature="0" id="path2338" d="M 256,1 C 115.17,1 1,115.17 1,256 1,396.83 115.17,511 256,511 396.83,511 511,396.83 511,256 511,115.17 396.83,1 256,1 m 8.827,44.931 c 120.9,0 218.9,98 218.9,218.9 0,120.9 -98,218.9 -218.9,218.9 -120.9,0 -218.93,-98 -218.93,-218.9 0,-120.9 98.03,-218.9 218.93,-218.9" fill-opacity="0.067"/>
  <g id="g2340" fill-opacity="0.129">
   <path inkscape:connector-curvature="0" id="path2342" d="M 256,4.43 C 117.06,4.43 4.43,117.06 4.43,256 4.43,394.94 117.06,507.57 256,507.57 394.94,507.57 507.57,394.94 507.57,256 507.57,117.06 394.94,4.43 256,4.43 m 5.885,38.556 c 120.9,0 218.9,98 218.9,218.9 0,120.9 -98,218.9 -218.9,218.9 -120.9,0 -218.93,-98 -218.93,-218.9 0,-120.9 98.03,-218.9 218.93,-218.9"/>
   <path inkscape:connector-curvature="0" id="path2344" d="M 256,8.36 C 119.23,8.36 8.36,119.23 8.36,256 8.36,392.77 119.23,503.64 256,503.64 392.77,503.64 503.64,392.77 503.64,256 503.64,119.23 392.77,8.36 256,8.36 m 2.942,31.691 c 120.9,0 218.9,98 218.9,218.9 0,120.9 -98,218.9 -218.9,218.9 -120.9,0 -218.93,-98 -218.93,-218.9 0,-120.9 98.03,-218.9 218.93,-218.9"/>
  </g>
  <path inkscape:connector-curvature="0" id="path2346" d="M 253.04,7.86 C 117.62,7.86 7.85,117.64 7.85,253.05 c 0,135.42 109.78,245.19 245.19,245.19 135.42,0 245.19,-109.78 245.19,-245.19 C 498.23,117.63 388.45,7.86 253.04,7.86 m 0,26.297 c 120.9,0 218.9,98 218.9,218.9 0,120.9 -98,218.9 -218.9,218.9 -120.9,0 -218.93,-98 -218.93,-218.9 0,-120.9 98.03,-218.9 218.93,-218.9 z" stroke-opacity="0.31" fill="#ffffff" stroke="#000000" stroke-width="4.904"/>
 </g>
 <path inkscape:connector-curvature="0" id="path3278" d="m 256,88.25 0,78.28 -78.28,0 -89.47,89.47 167.72,0 -0.008,0.008 -167.7,0 78.27,78.27 89.47,89.47 43.02,43.02 c 36.983,-8.191 70.45,-25.731 97.79,-50.02 l 0.004,0.004 c 0.135,-0.12 0.266,-0.245 0.4,-0.365 1.136,-1.014 2.261,-2.039 3.375,-3.076 0.204,-0.19 0.408,-0.38 0.611,-0.57 0.453,-0.425 0.914,-0.841 1.363,-1.27 l -0.018,-0.02 c 31.458,-30.01 53.982,-69.28 63.21,-113.45 l -42,-42 -167.71,0 0.031,0.031 0,0.002 -0.029,0 -0.031,-0.031 -0.002,-0.002 0.031,0 -0.002,-0.002 c 0.033,0.001 14.714,-0.002 26.691,0 l 141.04,0 -78.28,-78.28 -89.47,-89.47 m -1.188,166.53 c 0.012,0.011 0.021,0.021 0.031,0.031 0.01,0.01 0.02,0.021 0.031,0.031 0.008,0.007 0.024,0.024 0.031,0.031 0.008,0.008 0.02,0.019 0.031,0.031 l -0.031,0 c -0.004,-0.004 0.004,-0.027 0,-0.031 -0.011,-0.011 -0.051,-0.02 -0.063,-0.031 -0.004,-0.004 0.004,-0.027 0,-0.031 l -0.031,0 c -0.004,-0.004 0.004,-0.027 0,-0.031 m 0.313,0.313 c 0.016,0.015 0.048,0.048 0.063,0.063 0.029,0.026 0.039,0.043 0.063,0.063 0.147,0.141 0.56,0.568 0.563,0.563 0.001,0 0.012,0.023 0.021,0.041 -0.009,-0.005 -0.021,-0.009 -0.021,-0.01 0,0 -0.031,-0.03 -0.031,-0.031 0.001,0 -0.06,-0.059 -0.063,-0.063 0.001,0 -0.06,-0.059 -0.063,-0.063 0.01,-0.004 -0.317,-0.31 -0.5,-0.5 l -0.031,-0.031 c -0.009,-0.009 0.009,-0.022 0,-0.031 m 1.781,0 c -0.284,0.286 -0.72,0.715 -0.75,0.75 0,0 0.029,-0.061 0.031,-0.063 0,0 0.03,-0.031 0.031,-0.031 0,0.001 0.059,-0.06 0.063,-0.063 0,0.001 0.059,-0.06 0.063,-0.063 0.004,0.01 0.309,-0.316 0.5,-0.5 0.023,-0.023 0.038,-0.007 0.063,-0.031 m -0.779,1.033 c 0.004,0.002 0.059,0.028 0.061,0.029 -10e-4,0 0.113,0.112 0.125,0.125 0.004,0.005 0.055,0.055 0.063,0.063 0.072,0.077 0.249,0.247 0.5,0.5 0.009,0.009 -0.009,0.022 0,0.031 -0.038,-0.036 -0.025,-0.027 -0.061,-0.061 -0.043,-0.041 -0.026,-0.028 -0.063,-0.063 -0.147,-0.141 -0.56,-0.568 -0.563,-0.563 -0.001,0 -0.031,-0.032 -0.031,-0.031 -10e-4,0 -0.031,-0.032 -0.031,-0.031 m 0.811,0.811 0.031,0 c 0.01,0.01 -0.01,0.021 0,0.031 -0.019,-0.018 -0.023,-0.023 -0.031,-0.031 m 2.219,2.219 0.031,0.031 -0.031,0 c -0.006,-0.005 0.006,-0.026 0,-0.031 m -16.314,9.973 0.029,0 -0.029,0.025 0,-0.025 m -0.107,0.117 c -0.001,0 -0.048,0.038 -0.049,0.039 l 0.031,-0.031 0.018,-0.008" opacity="0.25"/>
 <path inkscape:connector-curvature="0" id="path3280" d="m 256,88.25 0,78.28 -78.28,0 -89.47,89.47 78.28,0 0,78.28 89.47,89.47 0,-78.28 78.28,0 89.47,-89.47 -78.28,0 0,-78.28 L 256,88.25 m 0,118.81 13.969,34.969 34.969,13.969 -34.969,13.969 L 256,304.936 242.031,269.967 207.062,255.998 242.031,242.029 256,207.06" fill="#ffffff"/>
</svg>
