<?xml version="1.0" encoding="UTF-8" standalone="no"?>
<svg xmlns="http://www.w3.org/2000/svg" viewBox="0 0 512 512">
 <g fill-rule="evenodd">
  <path d="m471.95 253.05c0 120.9-98.01 218.91-218.91 218.91s-218.91-98.01-218.91-218.91 98.01-218.91 218.91-218.91 218.91 98.01 218.91 218.91" fill="#BF9E73"/>
  <path d="m256 1c-140.83 0-255 114.17-255 255s114.17 255 255 255 255-114.17 255-255-114.17-255-255-255m8.827 44.931c120.9 0 218.9 98 218.9 218.9s-98 218.9-218.9 218.9-218.93-98-218.93-218.9 98.03-218.9 218.93-218.9" fill-opacity="0.067"/>
  <g fill-opacity="0.129">
   <path d="m256 4.43c-138.94 0-251.57 112.63-251.57 251.57s112.63 251.57 251.57 251.57 251.57-112.63 251.57-251.57-112.63-251.57-251.57-251.57m5.885 38.556c120.9 0 218.9 98 218.9 218.9s-98 218.9-218.9 218.9-218.93-98-218.93-218.9 98.03-218.9 218.93-218.9"/>
   <path d="m256 8.36c-136.77 0-247.64 110.87-247.64 247.64s110.87 247.64 247.64 247.64 247.64-110.87 247.64-247.64-110.87-247.64-247.64-247.64m2.942 31.691c120.9 0 218.9 98 218.9 218.9s-98 218.9-218.9 218.9-218.93-98-218.93-218.9 98.03-218.9 218.93-218.9"/>
  </g>
  <path stroke="#000" stroke-width="4.904" d="m253.04 7.86c-135.42 0-245.19 109.78-245.19 245.19 0 135.42 109.78 245.19 245.19 245.19 135.42 0 245.19-109.78 245.19-245.19 0-135.42-109.78-245.19-245.19-245.19m0 26.297c120.9 0 218.9 98 218.9 218.9s-98 218.9-218.9 218.9-218.93-98-218.93-218.9 98.03-218.9 218.93-218.9z" stroke-opacity="0.31" fill="#fff"/>
 </g>
 
 <path opacity="0.25" d="m152.8 134.55c-19.487 0-35.16 15.693-35.16 35.18v172.53c0 9.75 3.923 18.551 10.283 24.912l103.74 103.74c7.03 0.681 14.157 1.041 21.367 1.041 120.9 0 218.91-98.01 218.91-218.91 0-7.212-0.359-14.34-1.041-21.373l-86.84-86.84c-6.359-6.359-15.15-10.283-24.898-10.283h-206.36l-0.008-0.008"/>
 <path d="m152.81 134.55c-19.487 0-35.16 15.694-35.16 35.18v172.53c0 19.487 15.669 35.18 35.16 35.18h206.36c19.487 0 35.18-15.694 35.18-35.18v-172.52c0-19.487-15.694-35.18-35.18-35.18h-206.36m-3.459 23.773h36.451v29.14h-36.442v-29.14m176.87 0h36.451v29.14h-36.442v-29.14m-176.86 41.531h36.451v29.17h-36.442v-29.17m176.87 0h36.451v29.17h-36.442v-29.17m-176.86 41.555h36.451v29.14h-36.442v-29.14m176.87 0h36.451v29.14h-36.442v-29.14m-176.86 41.531h36.451v29.17h-36.442v-29.17m176.87 0h36.451v29.17h-36.442v-29.17m-176.86 41.555h36.451v29.14h-36.442v-29.14m176.87 0h36.451v29.14h-36.442v-29.14" fill="#fff"/>
</svg>
