<?xml version="1.0" encoding="UTF-8" standalone="no"?>
<svg xmlns="http://www.w3.org/2000/svg" height="512" viewBox="0 0 512 512" width="512" version="1.1">
 <metadata id="metadata72"/>
 <g id="g4" fill-rule="evenodd">
  <path id="path6" fill="#BF9E73" d="m471.95 253.05c0 120.9-98.01 218.9-218.9 218.9-120.9 0-218.9-98.01-218.9-218.9 0-120.9 98.01-218.9 218.9-218.9 120.9 0 218.9 98.01 218.9 218.9"/>
  <path id="path8" fill-opacity="0.235" d="m248.19 108.97c-14.906 0.025-30.472 2.599-18.969 21.844 2.259 9.875 0.555 17.392 1.688 26.594-4.068-4.068-12.88-13.192-19.219-19.531-0.968 0.926-1.37 5.102-10.281 2.719-62.59 18.251-101.5 90.29-82.66 152.63 6.954 28.338 25.577 51.04 48.06 68.59 35.519 35.519 72.77 73.09 108.34 109.03 103.25-10.351 185.34-92.44 195.69-195.69-44.519-44.555-89.02-89.09-133.69-133.5-24.09-21.66-56.71-33.09-88.97-32.69"/>
  <path id="path10" fill-opacity="0.067" d="m256 1c-140.83 0-255 114.17-255 255s114.17 255 255 255 255-114.17 255-255-114.17-255-255-255m8.827 44.931c120.9 0 218.9 98 218.9 218.9s-98 218.9-218.9 218.9-218.93-98-218.93-218.9 98.03-218.9 218.93-218.9"/>
  <g id="g12" fill-opacity="0.129">
   <path id="path14" d="m256 4.433c-138.94 0-251.57 112.63-251.57 251.57s112.63 251.57 251.57 251.57 251.57-112.63 251.57-251.57-112.63-251.57-251.57-251.57m5.885 38.556c120.9 0 218.9 98 218.9 218.9s-98 218.9-218.9 218.9-218.93-98-218.93-218.9 98.03-218.9 218.93-218.9"/>
   <path id="path16" d="m256 8.356c-136.77 0-247.64 110.87-247.64 247.64s110.87 247.64 247.64 247.64 247.64-110.87 247.64-247.64-110.87-247.64-247.64-247.64m2.942 31.691c120.9 0 218.9 98 218.9 218.9s-98 218.9-218.9 218.9-218.93-98-218.93-218.9 98.03-218.9 218.93-218.9"/>
  </g>
  <path id="path18" d="m253.04 7.859c-135.42 0-245.19 109.78-245.19 245.19 0 135.42 109.78 245.19 245.19 245.19 135.42 0 245.19-109.78 245.19-245.19 0-135.42-109.78-245.19-245.19-245.19zm0 26.297c120.9 0 218.9 98 218.9 218.9s-98 218.9-218.9 218.9-218.93-98-218.93-218.9 98.03-218.9 218.93-218.9z" stroke-opacity="0.31" stroke="#000" stroke-width="4.904" fill="#fff"/>
 </g>
 <path id="path66" d="m252.2 108.98c45.892 0.918 80.893 24.352 96.62 45.33l-99.21 72.966-30.826-115.04c11.65-2.497 22.823-3.464 33.414-3.252m-40.515 28.835 29.399 113.81 110.36 63.58c-20.432 41.27-62.985 69.65-112.15 69.65-69.07 0-125.06-55.993-125.06-125.06 0-59.58 41.675-109.4 97.45-121.98m145.9 33.679c43.36 52.54 32.04 110.99 12.344 141.59l-111.62-68.72 99.28-72.867" fill-rule="evenodd" fill="#fff"/>
</svg>
