<?xml version="1.0" encoding="UTF-8" standalone="no"?>
<svg
   xmlns:dc="http://purl.org/dc/elements/1.1/"
   xmlns:cc="http://creativecommons.org/ns#"
   xmlns:rdf="http://www.w3.org/1999/02/22-rdf-syntax-ns#"
   xmlns:svg="http://www.w3.org/2000/svg"
   xmlns="http://www.w3.org/2000/svg"
   xmlns:sodipodi="http://sodipodi.sourceforge.net/DTD/sodipodi-0.dtd"
   xmlns:inkscape="http://www.inkscape.org/namespaces/inkscape"
   sodipodi:docname="grsync.svg"
   inkscape:version="0.91 r13725"
   id="svg2"
   version="1.1"
   width="512"
   viewBox="0 0 512 512"
   height="512">
  <defs
     id="defs23" />
  <sodipodi:namedview
     inkscape:current-layer="svg2"
     inkscape:window-maximized="1"
     inkscape:window-y="0"
     inkscape:window-x="0"
     inkscape:cy="286.21756"
     inkscape:cx="201.69526"
     inkscape:zoom="0.9534688"
     showgrid="false"
     id="namedview21"
     inkscape:window-height="1022"
     inkscape:window-width="1920"
     inkscape:pageshadow="2"
     inkscape:pageopacity="0"
     guidetolerance="10"
     gridtolerance="10"
     objecttolerance="10"
     borderopacity="1"
     bordercolor="#666666"
     pagecolor="#ffffff" />
  <metadata
     id="metadata86">
    <rdf:RDF>
      <cc:Work
         rdf:about="">
        <dc:format>image/svg+xml</dc:format>
        <dc:type
           rdf:resource="http://purl.org/dc/dcmitype/StillImage" />
        <dc:title></dc:title>
      </cc:Work>
    </rdf:RDF>
  </metadata>
  <path
     id="path4"
     d="m471.95 253.05c0 120.9-98.01 218.9-218.9 218.9-120.9 0-218.9-98.01-218.9-218.9 0-120.9 98.01-218.9 218.9-218.9 120.9 0 218.9 98.01 218.9 218.9"
     fill-rule="evenodd"
     fill="#ab4bcc"
     style="fill:#BF9E73;fill-opacity:1" />
  <path
     id="path6"
     fill-opacity="0.235"
     d="m270.75 113c-49.953 0-93.92 26.22-119.31 65.53-0.043-0.052-0.656-0.813-0.656-0.813-0.074-0.043-0.17-0.07-0.25-0.094-0.054-0.065-0.75-0.906-0.75-0.906-0.074-0.043-0.17-0.07-0.25-0.094-0.054-0.065-0.75-0.906-0.75-0.906-0.08-0.047-0.162-0.069-0.25-0.094-0.054-0.065-0.75-0.906-0.75-0.906-0.08-0.047-0.162-0.069-0.25-0.094-0.054-0.065-0.75-0.906-0.75-0.906-0.08-0.047-0.162-0.069-0.25-0.094-0.054-0.065-0.75-0.906-0.75-0.906-0.07-0.041-0.142-0.039-0.219-0.063-0.054-0.065-0.75-0.906-0.75-0.906-0.074-0.043-0.17-0.07-0.25-0.094-0.054-0.065-0.75-0.906-0.75-0.906-0.074-0.043-0.17-0.07-0.25-0.094l-0.75-0.906c-0.08-0.047-0.162-0.069-0.25-0.094l-0.75-0.906c-0.08-0.047-0.162-0.069-0.25-0.094-0.054-0.065-0.75-0.906-0.75-0.906-0.08-0.047-0.162-0.069-0.25-0.094-0.054-0.065-0.75-0.906-0.75-0.906-0.07-0.041-0.142-0.039-0.219-0.063-0.054-0.065-0.75-0.906-0.75-0.906-0.074-0.043-0.17-0.07-0.25-0.094-0.054-0.065-0.75-0.906-0.75-0.906-0.074-0.043-0.17-0.07-0.25-0.094l-0.75-0.906c-0.08-0.047-0.162-0.069-0.25-0.094-0.054-0.065-0.75-0.906-0.75-0.906-0.08-0.047-0.162-0.069-0.25-0.094-0.054-0.065-0.75-0.906-0.75-0.906-0.08-0.047-0.162-0.069-0.25-0.094-0.054-0.065-0.75-0.906-0.75-0.906-0.07-0.041-0.142-0.039-0.219-0.063l-0.75-0.906h-0.031c-0.071-0.042-0.141-0.071-0.219-0.094l-0.75-0.906c-0.074-0.043-0.17-0.07-0.25-0.094-0.054-0.065-0.75-0.906-0.75-0.906-0.074-0.043-0.17-0.07-0.25-0.094-0.054-0.065-0.75-0.906-0.75-0.906-0.202-0.118-0.441-0.13-0.656-0.219-2.86-3.036-9.02-1.197-9.813 2.906-0.08 0.465-20.469 119.44-20.469 119.44-0.455 2.11 0.586 4.321 2.281 5.656 0.301 0.366 0.629 0.708 1 1 0.291 0.355 0.611 0.683 0.969 0.969 0.295 0.362 0.636 0.709 1 1 0.295 0.362 0.636 0.678 1 0.969 0.299 0.369 0.629 0.704 1 1 0.304 0.373 0.623 0.734 1 1.031 0.301 0.366 0.629 0.708 1 1 0.291 0.355 0.611 0.683 0.969 0.969 0.296 0.363 0.635 0.708 1 1 0.295 0.362 0.636 0.678 1 0.969 0.299 0.369 0.629 0.704 1 1 0.304 0.373 0.623 0.734 1 1.031 0.301 0.366 0.629 0.708 1 1 0.291 0.355 0.611 0.683 0.969 0.969 0.296 0.363 0.635 0.708 1 1 0.295 0.362 0.636 0.709 1 1 0.295 0.362 0.636 0.678 1 0.969 0.304 0.373 0.623 0.734 1 1.031 0.301 0.366 0.629 0.708 1 1 0.301 0.366 0.629 0.708 1 1 0.291 0.355 0.611 0.683 0.969 0.969 0.295 0.362 0.636 0.709 1 1 0.295 0.362 0.636 0.678 1 0.969 0.299 0.369 0.629 0.704 1 1 0.304 0.373 0.623 0.734 1 1.031 0.301 0.366 0.629 0.708 1 1 0.291 0.355 0.611 0.683 0.969 0.969 0.296 0.363 0.635 0.708 1 1 0.295 0.362 0.636 0.678 1 0.969 0.299 0.369 0.629 0.704 1 1 0.304 0.373 0.623 0.734 1 1.031 0.301 0.366 0.629 0.708 1 1 0.291 0.355 0.611 0.683 0.969 0.969 0.296 0.363 0.635 0.708 1 1 0.295 0.362 0.636 0.678 1 0.969 0.299 0.369 0.629 0.704 1 1 0.304 0.373 0.623 0.734 1 1.031 0.301 0.366 0.629 0.708 1 1 0.291 0.355 0.611 0.683 0.969 0.969 0.296 0.363 0.635 0.708 1 1 0.295 0.362 0.636 0.709 1 1 0.295 0.362 0.636 0.678 1 0.969 0.304 0.373 0.623 0.734 1 1.031 0.301 0.366 0.629 0.708 1 1 0.301 0.366 0.629 0.708 1 1 0.291 0.355 0.611 0.683 0.969 0.969 0.295 0.362 0.636 0.709 1 1 0.295 0.362 0.636 0.678 1 0.969 0.299 0.369 0.629 0.704 1 1 0.304 0.373 0.623 0.734 1 1.031 0.301 0.366 0.629 0.708 1 1 0.291 0.355 0.611 0.683 0.969 0.969 0.16 0.196 0.318 0.386 0.5 0.563 5.307 7.742 11.349 14.927 18.03 21.469 0.265 0.275 0.546 0.54 0.813 0.813 0.063 0.062 0.125 0.126 0.188 0.188 0.265 0.275 0.546 0.54 0.813 0.813 0.063 0.062 0.125 0.126 0.188 0.188 0.188 0.188 0.373 0.376 0.563 0.563 0.118 0.121 0.225 0.254 0.344 0.375 0.204 0.2 0.419 0.395 0.625 0.594 0.082 0.085 0.167 0.166 0.25 0.25 0.064 0.063 0.124 0.125 0.188 0.188 0.334 0.334 0.662 0.669 1 1 0.332 0.332 0.665 0.672 1 1 0.332 0.332 0.665 0.672 1 1 0.265 0.275 0.546 0.54 0.813 0.813 0.063 0.062 0.125 0.126 0.188 0.188 0.188 0.188 0.373 0.376 0.563 0.563 0.118 0.121 0.225 0.254 0.344 0.375 0.204 0.2 0.419 0.395 0.625 0.594 0.082 0.085 0.167 0.166 0.25 0.25 0.064 0.063 0.124 0.125 0.188 0.188 0.334 0.334 0.662 0.669 1 1 0.332 0.332 0.665 0.672 1 1 0.332 0.332 0.665 0.672 1 1 0.265 0.275 0.546 0.54 0.813 0.813 0.063 0.062 0.125 0.126 0.188 0.188 0.052 0.053 0.104 0.104 0.156 0.156 0.094 0.094 0.187 0.188 0.281 0.281 0.159 0.163 0.309 0.337 0.469 0.5 0.089 0.088 0.192 0.163 0.281 0.25 0.161 0.163 0.307 0.338 0.469 0.5 0.305 0.301 0.599 0.608 0.906 0.906 0.131 0.13 0.274 0.246 0.406 0.375 0.332 0.332 0.665 0.672 1 1 0.332 0.332 0.665 0.672 1 1 0.265 0.275 0.546 0.54 0.813 0.813 0.063 0.062 0.125 0.126 0.188 0.188 0.052 0.053 0.104 0.104 0.156 0.156 0.094 0.094 0.187 0.188 0.281 0.281 0.159 0.163 0.309 0.337 0.469 0.5 0.089 0.088 0.192 0.163 0.281 0.25 0.161 0.163 0.307 0.338 0.469 0.5 0.041 0.042 0.084 0.083 0.125 0.125 0.263 0.259 0.516 0.525 0.781 0.781 0.058 0.057 0.129 0.099 0.188 0.156 0.01 0.011 0.021 0.021 0.031 0.031 0.063 0.062 0.124 0.126 0.188 0.188 0.334 0.334 0.662 0.669 1 1 0.332 0.332 0.665 0.672 1 1 0.265 0.275 0.546 0.54 0.813 0.813 0.063 0.062 0.125 0.126 0.188 0.188 0.265 0.275 0.546 0.54 0.813 0.813 0.063 0.062 0.125 0.126 0.188 0.188 0.188 0.188 0.373 0.376 0.563 0.563 0.077 0.079 0.142 0.171 0.219 0.25 0.246 0.242 0.502 0.478 0.75 0.719 0.082 0.085 0.167 0.166 0.25 0.25 0.064 0.063 0.124 0.125 0.188 0.188 0.334 0.334 0.662 0.669 1 1 0.332 0.332 0.665 0.672 1 1 0.332 0.332 0.665 0.672 1 1 0.265 0.275 0.546 0.54 0.813 0.813 0.063 0.062 0.125 0.126 0.188 0.188 0.188 0.188 0.373 0.376 0.563 0.563 0.118 0.121 0.225 0.254 0.344 0.375 0.204 0.2 0.419 0.395 0.625 0.594 0.082 0.085 0.167 0.166 0.25 0.25 0.064 0.063 0.124 0.125 0.188 0.188 0.334 0.334 0.662 0.669 1 1 0.332 0.332 0.665 0.672 1 1 0.332 0.332 0.665 0.672 1 1 0.265 0.275 0.546 0.54 0.813 0.813 0.063 0.062 0.125 0.126 0.188 0.188 0.052 0.053 0.104 0.104 0.156 0.156 0.094 0.094 0.187 0.188 0.281 0.281 0.159 0.163 0.309 0.337 0.469 0.5 0.089 0.088 0.192 0.163 0.281 0.25 0.161 0.163 0.307 0.338 0.469 0.5 0.041 0.042 0.084 0.083 0.125 0.125 0.263 0.259 0.516 0.525 0.781 0.781 0.058 0.057 0.129 0.099 0.188 0.156 0.01 0.011 0.021 0.021 0.031 0.031 0.063 0.062 0.124 0.126 0.188 0.188 0.334 0.334 0.662 0.669 1 1 0.332 0.332 0.665 0.672 1 1 0.265 0.275 0.546 0.54 0.813 0.813 0.063 0.062 0.125 0.126 0.188 0.188l0.063 0.063c0.241 0.25 0.476 0.502 0.719 0.75 0.068 0.067 0.151 0.121 0.219 0.188 0.202 0.205 0.391 0.421 0.594 0.625 0.061 0.063 0.126 0.125 0.188 0.188 0.194 0.191 0.399 0.373 0.594 0.563 0.134 0.138 0.272 0.269 0.406 0.406 0.063 0.062 0.124 0.125 0.188 0.188 0.334 0.334 0.662 0.669 1 1 0.332 0.332 0.665 0.672 1 1 0.332 0.332 0.665 0.672 1 1 0.265 0.275 0.546 0.54 0.813 0.813 0.063 0.062 0.125 0.126 0.188 0.188 0.188 0.188 0.373 0.376 0.563 0.563 0.077 0.079 0.142 0.171 0.219 0.25 0.246 0.242 0.502 0.478 0.75 0.719 0.082 0.085 0.167 0.166 0.25 0.25 0.064 0.063 0.124 0.125 0.188 0.188 0.334 0.334 0.662 0.669 1 1 0.332 0.332 0.665 0.672 1 1 0.332 0.332 0.665 0.672 1 1 0.265 0.275 0.546 0.54 0.813 0.813 0.063 0.062 0.125 0.126 0.188 0.188 0.052 0.053 0.104 0.104 0.156 0.156 0.094 0.094 0.187 0.188 0.281 0.281 0.159 0.163 0.309 0.337 0.469 0.5 0.089 0.088 0.192 0.163 0.281 0.25 0.161 0.163 0.307 0.338 0.469 0.5 0.305 0.301 0.599 0.608 0.906 0.906 0.131 0.13 0.274 0.246 0.406 0.375 0.332 0.332 0.665 0.672 1 1 0.332 0.332 0.665 0.672 1 1 0.265 0.275 0.546 0.54 0.813 0.813 0.063 0.062 0.125 0.126 0.188 0.188 0.052 0.053 0.104 0.104 0.156 0.156 0.252 0.26 0.497 0.523 0.75 0.781 0.089 0.088 0.192 0.163 0.281 0.25 0.161 0.163 0.307 0.338 0.469 0.5 0.041 0.042 0.084 0.083 0.125 0.125 0.263 0.259 0.516 0.525 0.781 0.781 0.058 0.057 0.129 0.099 0.188 0.156 0.01 0.011 0.021 0.021 0.031 0.031 0.063 0.062 0.124 0.126 0.188 0.188 0.334 0.334 0.662 0.669 1 1 0.332 0.332 0.665 0.672 1 1 0.265 0.275 0.546 0.54 0.813 0.813 0.063 0.062 0.125 0.126 0.188 0.188 0.265 0.275 0.546 0.54 0.813 0.813 0.063 0.062 0.125 0.126 0.188 0.188 0.188 0.188 0.373 0.376 0.563 0.563 0.118 0.121 0.225 0.254 0.344 0.375 0.204 0.2 0.419 0.395 0.625 0.594 0.082 0.085 0.167 0.166 0.25 0.25 0.064 0.063 0.124 0.125 0.188 0.188 0.334 0.334 0.662 0.669 1 1 0.332 0.332 0.665 0.672 1 1 0.332 0.332 0.665 0.672 1 1 0.265 0.275 0.546 0.54 0.813 0.813 0.063 0.062 0.125 0.126 0.188 0.188 0.188 0.188 0.373 0.376 0.563 0.563 0.118 0.121 0.225 0.254 0.344 0.375 0.204 0.2 0.419 0.395 0.625 0.594 0.082 0.085 0.167 0.166 0.25 0.25 0.064 0.063 0.124 0.125 0.188 0.188 0.334 0.334 0.662 0.669 1 1 0.332 0.332 0.665 0.672 1 1 0.332 0.332 0.665 0.672 1 1 0.265 0.275 0.546 0.54 0.813 0.813 0.063 0.062 0.125 0.126 0.188 0.188 0.052 0.053 0.104 0.104 0.156 0.156 0.094 0.094 0.187 0.188 0.281 0.281 0.159 0.163 0.309 0.337 0.469 0.5 0.089 0.088 0.192 0.163 0.281 0.25 0.161 0.163 0.307 0.338 0.469 0.5 0.041 0.042 0.084 0.083 0.125 0.125 0.263 0.259 0.516 0.525 0.781 0.781 0.058 0.057 0.129 0.099 0.188 0.156 0.01 0.011 0.021 0.021 0.031 0.031 0.063 0.062 0.124 0.126 0.188 0.188 0.334 0.334 0.662 0.669 1 1 0.332 0.332 0.665 0.672 1 1 0.265 0.275 0.546 0.54 0.813 0.813 0.063 0.062 0.125 0.126 0.188 0.188 0.052 0.053 0.104 0.104 0.156 0.156 0.252 0.26 0.497 0.523 0.75 0.781 0.089 0.088 0.192 0.163 0.281 0.25 0.161 0.163 0.307 0.338 0.469 0.5 0.041 0.042 0.084 0.083 0.125 0.125 0.263 0.259 0.516 0.525 0.781 0.781 0.058 0.057 0.129 0.099 0.188 0.156 0.01 0.011 0.021 0.021 0.031 0.031 0.063 0.062 0.124 0.126 0.188 0.188 0.334 0.334 0.662 0.669 1 1 0.332 0.332 0.665 0.672 1 1 0.332 0.332 0.665 0.672 1 1 0.265 0.275 0.546 0.54 0.813 0.813 0.063 0.062 0.125 0.126 0.188 0.188 0.188 0.188 0.373 0.376 0.563 0.563 0.118 0.121 0.225 0.254 0.344 0.375 0.204 0.2 0.419 0.395 0.625 0.594 0.082 0.085 0.167 0.166 0.25 0.25 0.064 0.063 0.124 0.125 0.188 0.188 0.334 0.334 0.662 0.669 1 1 0.332 0.332 0.665 0.672 1 1 0.332 0.332 0.665 0.672 1 1 0.265 0.275 0.546 0.54 0.813 0.813 0.063 0.062 0.125 0.126 0.188 0.188 0.052 0.053 0.104 0.104 0.156 0.156 0.094 0.094 0.187 0.188 0.281 0.281 0.159 0.163 0.309 0.337 0.469 0.5 0.089 0.088 0.192 0.163 0.281 0.25 0.161 0.163 0.307 0.338 0.469 0.5 0.305 0.301 0.599 0.608 0.906 0.906 0.131 0.13 0.274 0.246 0.406 0.375 0.332 0.332 0.665 0.672 1 1 0.332 0.332 0.665 0.672 1 1 0.265 0.275 0.546 0.54 0.813 0.813 0.063 0.062 0.125 0.126 0.188 0.188 0.052 0.053 0.104 0.104 0.156 0.156 0.094 0.094 0.187 0.188 0.281 0.281 0.159 0.163 0.309 0.337 0.469 0.5 0.089 0.088 0.192 0.163 0.281 0.25 0.161 0.163 0.307 0.338 0.469 0.5 0.041 0.042 0.084 0.083 0.125 0.125 0.263 0.259 0.516 0.525 0.781 0.781 0.058 0.057 0.129 0.099 0.188 0.156 0.01 0.011 0.021 0.021 0.031 0.031 0.063 0.062 0.124 0.126 0.188 0.188 0.334 0.334 0.662 0.669 1 1 0.042 0.041 0.083 0.083 0.125 0.125 105.89-14.505 187.63-104.73 188.88-214.31-0.021-0.021-0.041-0.042-0.063-0.063l-0.219-0.219c-0.095-0.094-0.186-0.188-0.281-0.281-0.167-0.166-0.332-0.334-0.5-0.5-0.333-0.335-0.664-0.669-1-1l-0.125-0.125c-0.612-0.625-1.221-1.261-1.844-1.875-0.331-0.332-0.666-0.671-1-1-0.328-0.329-0.669-0.643-1-0.969-0.333-0.335-0.664-0.669-1-1-0.146-0.146-0.291-0.292-0.438-0.438-0.117-0.112-0.226-0.232-0.344-0.344-0.073-0.073-0.145-0.146-0.219-0.219l-0.125-0.125c-0.612-0.625-1.221-1.261-1.844-1.875-0.331-0.332-0.666-0.671-1-1-0.333-0.335-0.664-0.669-1-1-0.33-0.332-0.667-0.64-1-0.969l-0.219-0.219c-0.074-0.073-0.144-0.146-0.219-0.219-0.116-0.111-0.227-0.233-0.344-0.344-0.073-0.073-0.145-0.146-0.219-0.219l-0.125-0.125c-0.612-0.625-1.221-1.261-1.844-1.875-0.331-0.332-0.666-0.671-1-1-0.333-0.335-0.664-0.669-1-1-0.33-0.332-0.667-0.64-1-0.969l-0.219-0.219c-0.074-0.073-0.144-0.146-0.219-0.219-0.021-0.02-0.041-0.042-0.063-0.063-0.167-0.166-0.332-0.334-0.5-0.5-0.333-0.335-0.664-0.669-1-1l-0.125-0.125c-0.612-0.625-1.221-1.261-1.844-1.875-0.331-0.332-0.666-0.671-1-1-0.33-0.332-0.667-0.64-1-0.969l-0.219-0.219c-0.095-0.094-0.186-0.188-0.281-0.281-0.167-0.166-0.332-0.334-0.5-0.5-0.333-0.335-0.664-0.669-1-1l-0.125-0.125c-0.612-0.625-1.221-1.261-1.844-1.875-0.331-0.332-0.666-0.671-1-1-0.333-0.335-0.664-0.669-1-1-0.33-0.332-0.667-0.64-1-0.969l-0.219-0.219c-0.074-0.073-0.144-0.146-0.219-0.219-0.116-0.111-0.227-0.233-0.344-0.344-0.073-0.073-0.145-0.146-0.219-0.219l-0.125-0.125c-0.612-0.625-1.221-1.261-1.844-1.875-0.331-0.332-0.666-0.671-1-1-0.333-0.335-0.664-0.669-1-1-0.33-0.332-0.667-0.64-1-0.969l-0.219-0.219c-0.074-0.073-0.144-0.146-0.219-0.219-0.021-0.02-0.041-0.042-0.063-0.063-0.167-0.166-0.332-0.334-0.5-0.5-0.333-0.335-0.664-0.669-1-1l-0.125-0.125c-0.612-0.625-1.221-1.261-1.844-1.875-0.331-0.332-0.666-0.671-1-1-0.33-0.332-0.667-0.64-1-0.969l-0.219-0.219c-0.095-0.094-0.186-0.188-0.281-0.281-0.167-0.166-0.332-0.334-0.5-0.5-0.333-0.335-0.664-0.669-1-1l-0.125-0.125c-0.612-0.625-1.221-1.261-1.844-1.875-0.331-0.332-0.666-0.671-1-1-0.328-0.329-0.669-0.643-1-0.969-0.333-0.335-0.664-0.669-1-1-0.146-0.146-0.291-0.292-0.438-0.438-0.116-0.111-0.227-0.233-0.344-0.344-0.073-0.073-0.145-0.146-0.219-0.219l-0.125-0.125c-0.612-0.625-1.221-1.261-1.844-1.875-0.331-0.332-0.666-0.671-1-1-0.333-0.335-0.664-0.669-1-1-0.33-0.332-0.667-0.64-1-0.969l-0.219-0.219c-0.074-0.073-0.144-0.146-0.219-0.219-0.116-0.111-0.227-0.233-0.344-0.344-0.073-0.073-0.145-0.146-0.219-0.219l-0.125-0.125c-0.612-0.625-1.221-1.261-1.844-1.875-0.331-0.332-0.666-0.671-1-1-0.333-0.335-0.664-0.669-1-1-0.33-0.332-0.667-0.64-1-0.969l-0.219-0.219c-0.074-0.073-0.144-0.146-0.219-0.219-0.021-0.02-0.041-0.042-0.063-0.063-0.167-0.166-0.332-0.334-0.5-0.5-0.333-0.335-0.664-0.669-1-1l-0.125-0.125c-0.612-0.625-1.221-1.261-1.844-1.875-0.331-0.332-0.666-0.671-1-1-0.328-0.329-0.669-0.643-1-0.969-0.333-0.335-0.664-0.669-1-1-0.146-0.146-0.291-0.292-0.438-0.438-0.117-0.112-0.226-0.232-0.344-0.344-0.073-0.073-0.145-0.146-0.219-0.219l-0.125-0.125c-0.612-0.625-1.221-1.261-1.844-1.875-0.331-0.332-0.666-0.671-1-1-0.333-0.335-0.664-0.669-1-1-0.33-0.332-0.667-0.64-1-0.969l-0.219-0.219c-0.074-0.073-0.144-0.146-0.219-0.219-0.116-0.111-0.227-0.233-0.344-0.344-0.073-0.073-0.145-0.146-0.219-0.219l-0.125-0.125c-0.612-0.625-1.221-1.261-1.844-1.875-0.331-0.332-0.666-0.671-1-1-0.333-0.335-0.664-0.669-1-1-0.33-0.332-0.667-0.64-1-0.969l-0.219-0.219c-0.074-0.073-0.144-0.146-0.219-0.219-0.021-0.02-0.041-0.042-0.063-0.063-0.167-0.166-0.332-0.334-0.5-0.5-0.333-0.335-0.664-0.669-1-1l-0.125-0.125c-0.612-0.625-1.221-1.261-1.844-1.875-0.331-0.332-0.666-0.671-1-1-0.33-0.332-0.667-0.64-1-0.969l-0.219-0.219c-0.095-0.094-0.186-0.188-0.281-0.281-0.167-0.166-0.332-0.334-0.5-0.5-0.333-0.335-0.664-0.669-1-1l-0.125-0.125c-0.612-0.625-1.221-1.261-1.844-1.875-0.331-0.332-0.666-0.671-1-1-0.328-0.329-0.669-0.643-1-0.969-0.333-0.335-0.664-0.669-1-1-0.146-0.146-0.291-0.292-0.438-0.438-0.116-0.111-0.227-0.233-0.344-0.344-0.073-0.073-0.145-0.146-0.219-0.219l-0.125-0.125c-0.612-0.625-1.221-1.261-1.844-1.875-0.331-0.332-0.666-0.671-1-1-0.333-0.335-0.664-0.669-1-1-0.33-0.332-0.667-0.64-1-0.969-0.146-0.146-0.291-0.292-0.438-0.438-0.334-0.327-0.662-0.645-1-0.969-25.68-25.1-60.68-40.625-99.16-40.625"
     color="#000000" />
  <g
     id="g8"
     fill-rule="evenodd">
    <path
       id="path10"
       fill-opacity="0.067"
       d="m256 1c-140.83 0-255 114.17-255 255s114.17 255 255 255 255-114.17 255-255-114.17-255-255-255m8.827 44.931c120.9 0 218.9 98 218.9 218.9s-98 218.9-218.9 218.9-218.93-98-218.93-218.9 98.03-218.9 218.93-218.9" />
    <g
       id="g12"
       fill-opacity="0.129">
      <path
         id="path14"
         d="m256 4.433c-138.94 0-251.57 112.63-251.57 251.57s112.63 251.57 251.57 251.57 251.57-112.63 251.57-251.57-112.63-251.57-251.57-251.57m5.885 38.556c120.9 0 218.9 98 218.9 218.9s-98 218.9-218.9 218.9-218.93-98-218.93-218.9 98.03-218.9 218.93-218.9" />
      <path
         id="path16"
         d="m256 8.356c-136.77 0-247.64 110.87-247.64 247.64s110.87 247.64 247.64 247.64 247.64-110.87 247.64-247.64-110.87-247.64-247.64-247.64m2.942 31.691c120.9 0 218.9 98 218.9 218.9s-98 218.9-218.9 218.9-218.93-98-218.93-218.9 98.03-218.9 218.93-218.9" />
    </g>
    <path
       id="path18"
       d="m253.04 7.859c-135.42 0-245.19 109.78-245.19 245.19 0 135.42 109.78 245.19 245.19 245.19 135.42 0 245.19-109.78 245.19-245.19 0-135.42-109.78-245.19-245.19-245.19zm0 26.297c120.9 0 218.9 98 218.9 218.9s-98 218.9-218.9 218.9-218.93-98-218.93-218.9 98.03-218.9 218.93-218.9z"
       stroke-opacity="0.31"
       stroke="#000"
       stroke-width="4.904"
       fill="#fff" />
  </g>
  <path
     style="color:#000000;fill:#ffffff"
     inkscape:connector-curvature="0"
     d="m 270.74116,112.99352 c -50.97799,0 -95.69786,27.32541 -120.83403,67.98742 l -20.02847,-24.15235 c -0.20274,-0.11787 -0.45262,-0.12887 -0.66793,-0.21688 -2.85874,-3.03633 -8.99427,-1.19599 -9.79107,2.90746 L 98.94171,278.93876 c -0.724508,3.3538 2.36997,6.98105 5.78663,6.9339 l 25.59036,-6.48599 c 11.12693,67.75168 69.92206,119.64591 140.42246,119.64591 78.39298,0 142.4184,-64.11971 142.4184,-142.90559 0,-78.78431 -64.02699,-143.12561 -142.4184,-143.12561 z m 17.35047,43.3683 c 7.47924,0.099 15.33253,1.53546 23.58971,4.02487 43.23158,16.54738 73.88092,46.3842 73.88092,95.7293 0,63.87611 -51.26559,115.38687 -114.8211,115.38687 -58.03133,0 -105.61152,-42.97854 -113.48523,-99.07366 l 63.64351,-16.32578 c 4.14117,-0.12888 6.92761,-5.83221 4.45077,-9.16872 l -25.81353,-19.45641 c 0.55478,-2.17038 -8.03087,-8.12988 26.45632,-44.99962 16.2692,-17.39761 38.07987,-26.39502 62.1112,-26.13099"
     id="path68" />
</svg>
