<?xml version="1.0" encoding="UTF-8" standalone="no"?>
<svg xmlns="http://www.w3.org/2000/svg" height="512" viewBox="0 0 512 512" width="512" version="1.1">
 <metadata id="metadata76"/>
 <path id="path4" d="m471.95 253.05c0 120.9-98.01 218.9-218.9 218.9-120.9 0-218.9-98.01-218.9-218.9 0-120.9 98.01-218.9 218.9-218.9 120.9 0 218.9 98.01 218.9 218.9" fill-rule="evenodd" fill="#BF9E73"/>
 <path id="path6" fill-opacity="0.235" d="m287.72 100.34c-53.41 0.231-102.54 43.17-109.62 96.22-5.689 35.2 7.286 73.02 32.375 97.66 2.602 3.422 6.252 5.65 8.844 9.469 2.961 1.325 5.994 6.392 8.875 8.281 3.35 3.245 4.772 5.52 8.281 8.281 2.78 3.707 8.01 7.02 10.06 10.625 3.384 2.732 6.885 6.227 8.844 8.875 2.979 2.501 6.294 5.699 8.281 8.281 3.954 2.739 7.05 7.268 10.656 10.03 3.082 3.961 7.211 6.84 10.03 10.656 4.04 3.178 7.179 6.961 11.25 10.625 2.651 3.055 5.789 6.218 8.844 8.875 2.783 3.873 6.191 5.56 8.875 9.469 4.425 3.075 7.112 7.328 11.25 10.625 2.855 3.276 5.792 6.374 9.438 9.469 2.093 2.953 6.78 6.06 9.469 10.03 3.324 2.522 6.112 5.769 8.875 8.875 2.86 2.298 5.04 4.754 7.719 7.344 66.763-37.493 111.88-108.95 111.88-190.97 0-6.325-0.287-12.592-0.813-18.781-33.838-33.867-64.49-64.8-96.34-96.66-11.995-11.11-26.684-23.85-43.75-29.28-12.93-5.177-26.825-7.964-40.781-7.969-0.85-0.018-1.683-0.035-2.531-0.031m-108.56 185.63c-24.639 20.885-49.945 41.06-74.16 62.41-8.81 9.95-0.347 22.08 7.03 28 6.756 6.677 12.888 12.784 19.375 19.656 17.353 17.351 44.698 46.869 65.75 68.72 17.844 4.699 36.556 7.219 55.875 7.219 32.834 0 63.985-7.234 91.94-20.19-15.14-15.14-30.595-30.592-45.25-45.25-21.971-21.968-44.993-44.998-67.37-67.37-3.321-3.342-6.639-6.06-9.469-9.469-3.01-2.538-5.629-5.125-8.281-8.281-11.344-11.297-23.695-23.731-35.438-35.438"/>
 <g id="g8" fill-rule="evenodd">
  <path id="path10" fill-opacity="0.067" d="m256 1c-140.83 0-255 114.17-255 255s114.17 255 255 255 255-114.17 255-255-114.17-255-255-255m8.827 44.931c120.9 0 218.9 98 218.9 218.9s-98 218.9-218.9 218.9-218.93-98-218.93-218.9 98.03-218.9 218.93-218.9"/>
  <g id="g12" fill-opacity="0.129">
   <path id="path14" d="m256 4.433c-138.94 0-251.57 112.63-251.57 251.57s112.63 251.57 251.57 251.57 251.57-112.63 251.57-251.57-112.63-251.57-251.57-251.57m5.885 38.556c120.9 0 218.9 98 218.9 218.9s-98 218.9-218.9 218.9-218.93-98-218.93-218.9 98.03-218.9 218.93-218.9"/>
   <path id="path16" d="m256 8.356c-136.77 0-247.64 110.87-247.64 247.64s110.87 247.64 247.64 247.64 247.64-110.87 247.64-247.64-110.87-247.64-247.64-247.64m2.942 31.691c120.9 0 218.9 98 218.9 218.9s-98 218.9-218.9 218.9-218.93-98-218.93-218.9 98.03-218.9 218.93-218.9"/>
  </g>
  <path id="path18" d="m253.04 7.859c-135.42 0-245.19 109.78-245.19 245.19 0 135.42 109.78 245.19 245.19 245.19 135.42 0 245.19-109.78 245.19-245.19 0-135.42-109.78-245.19-245.19-245.19zm0 26.297c120.9 0 218.9 98 218.9 218.9s-98 218.9-218.9 218.9-218.93-98-218.93-218.9 98.03-218.9 218.93-218.9z" stroke-opacity="0.31" stroke="#000" stroke-width="4.904" fill="#fff"/>
 </g>
 <g id="g66" transform="matrix(1.0836 0 0 1.0836 44.38 43.637)" fill="#fff">
  <path id="path68" d="m58.22 278.64 66.24-55.21c9.379 14.422 21.684 26.73 36.09 36.11l-55.19 66.24c-6.137 7.363-16.723 7.859-23.508 1.074l-24.699-24.69c-6.785-6.785-6.289-17.371 1.074-23.508"/>
  <path id="path70" d="m122.18 157.09c0-57.836 46.891-104.73 104.73-104.73 57.836 0 104.73 46.895 104.73 104.73 0 57.836-46.895 104.73-104.73 104.73-57.836 0-104.73-46.891-104.73-104.73m104.73 78.55c43.31 0 78.55-35.23 78.55-78.55 0-43.31-35.23-78.55-78.55-78.55-43.31 0-78.55 35.23-78.55 78.55 0 43.31 35.23 78.55 78.55 78.55"/>
 </g>
</svg>
