<?xml version="1.0" encoding="UTF-8" standalone="no"?>
<svg
   xmlns:dc="http://purl.org/dc/elements/1.1/"
   xmlns:cc="http://creativecommons.org/ns#"
   xmlns:rdf="http://www.w3.org/1999/02/22-rdf-syntax-ns#"
   xmlns:svg="http://www.w3.org/2000/svg"
   xmlns="http://www.w3.org/2000/svg"
   xmlns:sodipodi="http://sodipodi.sourceforge.net/DTD/sodipodi-0.dtd"
   xmlns:inkscape="http://www.inkscape.org/namespaces/inkscape"
   height="512"
   viewBox="0 0 512 512"
   width="512"
   version="1.1"
   id="svg2"
   inkscape:version="0.91 r13725"
   sodipodi:docname="gtk3-widget-factory.svg">
  <defs
     id="defs17" />
  <sodipodi:namedview
     pagecolor="#ffffff"
     bordercolor="#666666"
     borderopacity="1"
     objecttolerance="10"
     gridtolerance="10"
     guidetolerance="10"
     inkscape:pageopacity="0"
     inkscape:pageshadow="2"
     inkscape:window-width="1680"
     inkscape:window-height="999"
     id="namedview15"
     showgrid="false"
     inkscape:zoom="1.84375"
     inkscape:cx="273.82368"
     inkscape:cy="262.59785"
     inkscape:window-x="0"
     inkscape:window-y="25"
     inkscape:window-maximized="1"
     inkscape:current-layer="svg2" />
  <metadata
     id="metadata74">
    <rdf:RDF>
      <cc:Work
         rdf:about="">
        <dc:format>image/svg+xml</dc:format>
        <dc:type
           rdf:resource="http://purl.org/dc/dcmitype/StillImage" />
        <dc:title></dc:title>
      </cc:Work>
    </rdf:RDF>
  </metadata>
  <path
     style="fill:#BF9E73;fill-rule:evenodd;fill-opacity:1"
     inkscape:connector-curvature="0"
     d="m 490.30678,256.00699 c 0,129.40454 -104.90024,234.30479 -234.30478,234.30479 -129.40454,0 -234.304785,-104.90025 -234.304785,-234.30479 0,-129.40453 104.900245,-234.304784 234.304785,-234.304784 129.40454,0 234.30478,104.900254 234.30478,234.304784"
     id="path6" />
  <path
     style="fill-opacity:0.23500001"
     inkscape:connector-curvature="0"
     d="m 310.23407,100.45017 c 0,0 -4.32458,7.52178 -16.76126,1.94877 -6.12854,-2.746274 8.62858,45.51014 0.78541,36.43947 -9.49265,-11.15056 -60.4706,-60.545787 -60.4706,-60.545787 l 5.04104,170.751437 c 0,0 30.74822,26.36677 26.74915,27.09994 C 236.27882,281.51554 47.17145,252.88861 141.93,357.2 l 113.04,114.74 c 118.82,-1.031 215.05,-96.73 216.94,-215.34 -0.187,-0.14 -0.374,-0.267 -0.563,-0.406 z"
     id="path8"
     sodipodi:nodetypes="cccccsccccc" />
  <g
     style="fill-rule:evenodd"
     id="g10"
     transform="translate(0,-540.36)">
    <path
       style="fill-opacity:0.06700003"
       inkscape:connector-curvature="0"
       d="m 256,541.36 c -140.83,0 -255,114.17 -255,255 0,140.83 114.17,255 255,255 140.83,0 255,-114.17 255,-255 0,-140.83 -114.17,-255 -255,-255 m 8.827,44.931 c 120.9,0 218.9,98 218.9,218.9 0,120.9 -98,218.9 -218.9,218.9 -120.9,0 -218.93,-98 -218.93,-218.9 0,-120.9 98.03,-218.9 218.93,-218.9"
       id="path12" />
    <g
       style="fill-opacity:0.12900002"
       id="g14">
      <path
         inkscape:connector-curvature="0"
         d="M 256,544.79 C 117.06,544.79 4.43,657.42 4.43,796.36 4.43,935.3 117.06,1047.9 256,1047.9 394.94,1047.9 507.57,935.3 507.57,796.36 507.57,657.42 394.94,544.79 256,544.79 m 5.885,38.556 c 120.9,0 218.9,98 218.9,218.9 0,120.9 -98,218.9 -218.9,218.9 -120.9,0 -218.93,-98 -218.93,-218.9 0,-120.9 98.03,-218.9 218.93,-218.9"
         id="path16" />
      <path
         inkscape:connector-curvature="0"
         d="M 256,548.72 C 119.23,548.72 8.36,659.59 8.36,796.36 8.36,933.13 119.23,1044 256,1044 392.77,1044 503.64,933.13 503.64,796.36 503.64,659.59 392.77,548.72 256,548.72 m 2.942,31.691 c 120.9,0 218.9,98 218.9,218.9 0,120.9 -98,218.9 -218.9,218.9 -120.9,0 -218.93,-98 -218.93,-218.9 0,-120.9 98.03,-218.9 218.93,-218.9"
         id="path18" />
    </g>
    <path
       style="fill:#ffffff;stroke:#000000;stroke-width:4.90399981;stroke-opacity:0.31000001"
       inkscape:connector-curvature="0"
       d="M 253.04,548.22 C 117.62,548.22 7.85,658 7.85,793.41 c 0,135.42 109.78,245.19 245.19,245.19 135.42,0 245.19,-109.78 245.19,-245.19 0,-135.42 -109.78,-245.19 -245.19,-245.19 z m 0,26.297 c 120.9,0 218.9,98 218.9,218.9 0,120.9 -98,218.9 -218.9,218.9 -120.9,0 -218.93,-98 -218.93,-218.9 0,-120.9 98.03,-218.9 218.93,-218.9 z"
       id="path20" />
  </g>
  <path
     inkscape:connector-curvature="0"
     style="fill:#ffffff"
     d="m 340.99787,228.49443 0,40.77022 -78.48248,-40.77022 0,40.77022 -78.50945,-40.77022 0,40.77022 -78.50222,-40.77022 0,132.39353 314.00952,0 0,-91.62989 -78.51603,-40.76364 z m -135.19493,115.64881 -78.48841,0 0,-46.11127 78.48841,0 0,46.11127 z m 95.80535,0 -78.1924,0 0,-46.11127 78.18584,0 0,46.11127 z m 96.09611,0 -78.50222,0 0,-46.11127 78.50222,0 0,46.11127 z"
     id="path4203" />
  <path
     inkscape:connector-curvature="0"
     style="fill:#ffffff"
     d="m 311.66421,101.66493 -21.23659,0 -6.13629,131.5779 34.3511,18.13918 z"
     id="path4205" />
  <path
     inkscape:connector-curvature="0"
     style="fill:#ffffff"
     d="m 233.72767,77.349355 -21.78911,0 -6.13562,155.893475 34.33136,18.13918 z"
     id="path4207" />
</svg>
