<?xml version="1.0" encoding="UTF-8" standalone="no"?>
<svg xmlns="http://www.w3.org/2000/svg" height="512" viewBox="0 0 512 512" width="512" version="1.1">
 <metadata id="metadata44"/>
 <text id="text4" font-size="199.47" line-height="125%" y="537.03" x="-1100.21" font-family="Gentium Book Basic" word-spacing="0" letter-spacing="0"><tspan id="tspan6" y="537.03" x="-1100.21"/>
 </text>
 <text id="text8" font-size="72.48" transform="scale(4.0128 .2492)" y="1616.07" x="30.03" font-family="Arial" text-anchor="middle"/>
 <text id="text10" font-size="208.33" line-height="125%" y="336.71" x="-606.24" font-family="Gentium Book Basic" word-spacing="0" letter-spacing="0"><tspan id="tspan12" y="336.71" x="-606.24"/>
 </text>
 <text id="text14" font-size="75.7" transform="scale(4.0128 .2492)" y="788.26" x="166.65" font-family="Arial" text-anchor="middle"/>
 <g id="g16" fill-rule="evenodd">
  <path id="path18" d="m280 423.79a142.86 142.86 0 1 1 -285.71 0 142.86 142.86 0 1 1 285.71 0" fill="#BF9E73" transform="matrix(1.5323 0 0 1.5323 42.896 -396.33)"/>
  <path id="path20" fill-opacity="0.235" d="m262.59 116.94c-15.375 0.136-30.455 2.164-45 5.969-1.086 0.284-2.17 0.571-3.25 0.875-68.04 19.15-122.99 77.55-138.53 160.41-0.059 0.314-0.161 0.623-0.219 0.938-1.328 5.369-2.454 10.824-3.375 16.406l-1.281 7.594 2 1.969v0.031l1 0.969v0.031l0.969 0.938v0.031l1 0.969v0.031s0.705 0.679 1 0.969v0.031s0.705 0.679 1 0.969v0.031s0.705 0.679 1 0.969v0.031s0.705 0.679 1 0.969v0.031s0.69 0.664 0.969 0.938v0.031s0.705 0.679 1 0.969v0.031s0.705 0.679 1 0.969v0.031s0.705 0.679 1 0.969v0.031c0 0.001 0.705 0.678 1 0.969v0.031c0.001 0.001 0.705 0.678 1 0.969v0.031c0.001 0.001 0.69 0.663 0.969 0.938v0.031c0.001 0.001 0.705 0.678 1 0.969v0.031c0.001 0.001 0.705 0.678 1 0.969v0.031c0.001 0.001 0.705 0.678 1 0.969v0.031c0.001 0.001 0.705 0.678 1 0.969v0.031c0.001 0.001 0.705 0.678 1 0.969v0.031c0.001 0.001 0.69 0.663 0.969 0.938v0.031c0.001 0.001 0.705 0.678 1 0.969v0.031c0.001 0.001 0.705 0.678 1 0.969v0.031l1 0.969v0.031c0.001 0.001 0.705 0.678 1 0.969v0.031c0.001 0.001 0.705 0.678 1 0.969v0.031c0.001 0.001 0.704 0.678 1 0.969v0.031c0.001 0.001 0.69 0.663 0.969 0.938v0.031l1 0.969v0.031c0.001 0.001 0.704 0.678 1 0.969v0.031c0.001 0.001 0.704 0.678 1 0.969v0.031c0.001 0.001 0.704 0.678 1 0.969v0.031c0.001 0.001 0.704 0.678 1 0.969v0.031c0.001 0.001 0.69 0.663 0.969 0.938v0.031c0.001 0.001 0.704 0.678 1 0.969v0.031c0.001 0.001 0.704 0.678 1 0.969v0.031c0.001 0.001 0.704 0.678 1 0.969v0.031c0.001 0.001 0.704 0.678 1 0.969v0.031c0.001 0.001 0.704 0.678 1 0.969v0.031c0.001 0.001 0.69 0.663 0.969 0.938v0.031c0.002 0.002 0.704 0.678 1 0.969v0.031c0.002 0.002 0.704 0.678 1 0.969v0.031c0.002 0.002 0.704 0.678 1 0.969v0.031c0.002 0.002 0.704 0.678 1 0.969v0.031c0.002 0.002 0.704 0.678 1 0.969v0.031c0.002 0.002 0.704 0.678 1 0.969v0.031c0.002 0.002 0.689 0.663 0.969 0.938v0.031c0.002 0.002 0.704 0.678 1 0.969v0.031c0.002 0.002 0.704 0.678 1 0.969v0.031c0.002 0.002 0.704 0.678 1 0.969v0.031c0.002 0.002 0.704 0.678 1 0.969v0.031l1 0.969v0.031l0.969 0.938v0.031l1 0.969v0.031l1 0.969v0.031l1 0.969v0.031l1 0.969v0.031l1 0.969v0.031l0.969 0.938v0.031c0.002 0.002 0.704 0.678 1 0.969v0.031c0.002 0.002 0.704 0.678 1 0.969v0.031c0.002 0.002 0.704 0.678 1 0.969v0.031c0.002 0.002 0.704 0.678 1 0.969v0.031c0.002 0.002 0.704 0.678 1 0.969v0.031c0.002 0.002 0.689 0.663 0.969 0.938v0.031c0.003 0.002 0.704 0.678 1 0.969v0.031c0.003 0.003 0.704 0.678 1 0.969v0.031c0.003 0.003 0.704 0.678 1 0.969v0.031c0.003 0.003 0.704 0.678 1 0.969v0.031c0.003 0.003 0.704 0.678 1 0.969v0.031c0.003 0.003 0.704 0.678 1 0.969v0.031c0.003 0.003 0.689 0.663 0.969 0.938v0.031c0.003 0.003 0.704 0.678 1 0.969v0.031c0.003 0.003 0.704 0.678 1 0.969v0.031c0.003 0.003 0.704 0.678 1 0.969v0.031c0.003 0.003 0.704 0.678 1 0.969v0.031c0.003 0.003 0.704 0.678 1 0.969v0.031c0.003 0.003 0.689 0.663 0.969 0.938v0.031l1 0.969v0.031l1 0.969v0.031l1 0.969v0.031l1 0.969v0.031l1 0.969v0.031l0.969 0.938v0.031l1 0.969v0.031l1 0.969v0.031l1 0.969v0.031c0.003 0.003 0.704 0.677 1 0.969v0.031c0.003 0.003 0.704 0.677 1 0.969v0.031c0.003 0.003 0.704 0.677 1 0.969v0.031c0.003 0.003 0.689 0.662 0.969 0.938v0.031c0.004 0.003 0.704 0.677 1 0.969v0.031c0.004 0.003 0.704 0.677 1 0.969v0.031c0.004 0.004 0.704 0.677 1 0.969v0.031c0.004 0.004 0.704 0.677 1 0.969v0.031c0.004 0.004 0.704 0.677 1 0.969v0.031c0.004 0.004 0.689 0.662 0.969 0.938v0.031c0.004 0.004 0.703 0.677 1 0.969v0.031c0.004 0.004 0.703 0.677 1 0.969v0.031c0.004 0.004 0.703 0.677 1 0.969v0.031c0.004 0.004 0.703 0.677 1 0.969v0.031c0.004 0.004 0.703 0.677 1 0.969v0.031c0.004 0.004 0.689 0.662 0.969 0.938v0.031c0.004 0.004 0.703 0.677 1 0.969v0.031c0.004 0.004 0.703 0.677 1 0.969v0.031c0.004 0.004 0.703 0.677 1 0.969v0.031l1 0.969v0.031l1 0.969v0.031l0.969 0.938v0.031l1 0.969v0.031l1 0.969v0.031l1 0.969v0.031l1 0.969v0.031l1 0.969v0.031c0.004 0.004 0.703 0.677 1 0.969v0.031c0.004 0.004 0.688 0.662 0.969 0.938v0.031c0.004 0.004 0.703 0.677 1 0.969v0.031c0.005 0.004 0.703 0.677 1 0.969v0.031c0.005 0.004 0.703 0.677 1 0.969v0.031c0.005 0.005 0.703 0.677 1 0.969v0.031c0.005 0.005 0.703 0.677 1 0.969v0.031c0.005 0.004 0.688 0.662 0.969 0.938v0.031c0.005 0.005 0.703 0.677 1 0.969v0.031c0.005 0.005 0.703 0.677 1 0.969v0.031c0.005 0.005 0.703 0.677 1 0.969v0.031c0.005 0.005 0.703 0.677 1 0.969v0.031c0.005 0.005 0.703 0.677 1 0.969v0.031c0.005 0.005 0.688 0.662 0.969 0.938v0.031c0.005 0.005 0.703 0.677 1 0.969v0.031c0.005 0.005 0.703 0.677 1 0.969v0.031c0.005 0.005 0.703 0.677 1 0.969v0.031c0.005 0.005 0.703 0.677 1 0.969v0.031c0.005 0.005 0.703 0.677 1 0.969v0.031c0.005 0.005 0.703 0.677 1 0.969v0.031l0.969 0.938v0.031l1 0.969v0.031l1 0.969v0.031l1 0.969v0.031l1 0.969v0.031l1 0.969v0.031l0.969 0.938v0.031l1 0.969v0.031c0.005 0.005 0.703 0.677 1 0.969v0.031c0.006 0.005 0.703 0.677 1 0.969v0.031c0.006 0.005 0.703 0.677 1 0.969v0.031c0.006 0.005 0.703 0.677 1 0.969v0.031c0.005 0.005 0.688 0.662 0.969 0.938v0.031c0.006 0.006 0.703 0.677 1 0.969v0.031c0.006 0.006 0.703 0.677 1 0.969v0.031c0.006 0.006 0.703 0.677 1 0.969v0.031c0.006 0.006 0.703 0.677 1 0.969v0.031c0.006 0.006 0.703 0.677 1 0.969v0.031c0.006 0.006 0.688 0.661 0.969 0.938v0.031c0.006 0.006 0.703 0.677 1 0.969v0.031c0.006 0.006 0.703 0.677 1 0.969v0.031c0.006 0.006 0.703 0.677 1 0.969v0.031c0.006 0.006 0.703 0.677 1 0.969v0.031c0.006 0.006 0.703 0.676 1 0.969v0.031c0.006 0.006 0.703 0.676 1 0.969v0.031c0.006 0.006 0.688 0.661 0.969 0.938v0.031c0.006 0.006 0.703 0.676 1 0.969v0.031l0.719 0.688c6.651 0.608 13.378 0.969 20.19 0.969 120.9 0 218.91-98.01 218.91-218.91 0-5.709-0.196-11.37-0.625-16.969-0.112-0.106-0.233-0.203-0.344-0.313l-0.031-0.031c-0.047-0.047-0.078-0.109-0.125-0.156-0.268-0.268-0.544-0.515-0.813-0.781 0 0-0.03-0.062-0.031-0.063l-0.125-0.125c-0.276-0.277-0.567-0.537-0.844-0.813l-0.031-0.031c-0.047-0.047-0.078-0.11-0.125-0.156-0.277-0.278-0.566-0.537-0.844-0.813l-0.063-0.063c-0.037-0.036-0.057-0.089-0.094-0.125-0.277-0.278-0.566-0.537-0.844-0.813l-0.063-0.063c-0.037-0.036-0.057-0.089-0.094-0.125-0.277-0.278-0.566-0.537-0.844-0.813l-0.063-0.063c-0.037-0.036-0.057-0.089-0.094-0.125-0.278-0.279-0.565-0.536-0.844-0.813l-0.031-0.031c-0.047-0.047-0.078-0.109-0.125-0.156-0.278-0.279-0.565-0.536-0.844-0.813l-0.031-0.031c-0.037-0.036-0.057-0.089-0.094-0.125-0.276-0.277-0.567-0.537-0.844-0.813l-0.031-0.031c-0.047-0.047-0.078-0.11-0.125-0.156-0.277-0.278-0.566-0.537-0.844-0.813l-0.063-0.063c-0.037-0.036-0.057-0.089-0.094-0.125-0.277-0.278-0.566-0.537-0.844-0.813l-0.063-0.063c-0.037-0.036-0.057-0.089-0.094-0.125-0.277-0.278-0.566-0.537-0.844-0.813l-0.063-0.063c-0.037-0.036-0.057-0.089-0.094-0.125-0.278-0.279-0.565-0.536-0.844-0.813l-0.031-0.031c-0.047-0.047-0.078-0.109-0.125-0.156-0.278-0.279-0.565-0.536-0.844-0.813l-0.031-0.031c-0.047-0.047-0.078-0.109-0.125-0.156-0.268-0.268-0.544-0.515-0.813-0.781 0 0-0.03-0.062-0.031-0.063l-0.125-0.125c-0.277-0.278-0.566-0.537-0.844-0.813l-0.063-0.063c-0.037-0.036-0.057-0.089-0.094-0.125-0.277-0.278-0.566-0.537-0.844-0.813l-0.063-0.063c-0.037-0.036-0.057-0.089-0.094-0.125-0.277-0.278-0.566-0.537-0.844-0.813l-0.063-0.063c-0.037-0.036-0.057-0.089-0.094-0.125-0.277-0.278-0.566-0.537-0.844-0.813l-0.09-0.1c-0.037-0.036-0.057-0.089-0.094-0.125-0.278-0.279-0.565-0.536-0.844-0.813l-0.031-0.031c-0.047-0.047-0.078-0.109-0.125-0.156-0.268-0.268-0.544-0.515-0.813-0.781l-0.031-0.063-0.125-0.125c-0.276-0.277-0.567-0.537-0.844-0.813l-0.031-0.031c-0.047-0.047-0.078-0.11-0.125-0.156-0.277-0.278-0.566-0.537-0.844-0.813l-0.063-0.063c-0.037-0.036-0.057-0.089-0.094-0.125-0.277-0.278-0.566-0.537-0.844-0.813l-0.063-0.063c-0.037-0.036-0.057-0.089-0.094-0.125-0.277-0.278-0.566-0.537-0.844-0.813l-0.063-0.063c-0.037-0.036-0.057-0.089-0.094-0.125-0.278-0.279-0.565-0.536-0.844-0.813l-0.031-0.031c-0.047-0.047-0.078-0.109-0.125-0.156-0.268-0.268-0.544-0.515-0.813-0.781l-0.031-0.063-0.125-0.125c-0.276-0.277-0.567-0.537-0.844-0.813l-0.031-0.031c-0.047-0.047-0.078-0.11-0.125-0.156-0.277-0.278-0.566-0.537-0.844-0.813l-0.063-0.063c-0.037-0.036-0.057-0.089-0.094-0.125-0.277-0.278-0.566-0.537-0.844-0.813l-0.063-0.063c-0.037-0.036-0.057-0.089-0.094-0.125-0.335-0.336-0.664-0.667-1-1-0.336-0.337-0.663-0.666-1-1-0.325-0.326-0.642-0.645-0.969-0.969-0.333-0.334-0.665-0.668-1-1-0.335-0.336-0.664-0.667-1-1-0.335-0.336-0.664-0.667-1-1-3.085-3.094-6.217-6.066-9.375-8.938-0.146-0.151-0.287-0.298-0.438-0.438-0.09-0.088-0.191-0.162-0.281-0.25-0.243-0.25-0.475-0.501-0.719-0.75-0.106-0.104-0.207-0.209-0.313-0.313-0.228-0.232-0.459-0.456-0.688-0.688-0.333-0.327-0.666-0.644-1-0.969-49.28-49.35-106.67-71.978-160.59-71.5"/>
  <path id="path22" fill-opacity="0.067" d="m256 1c-140.83 0-255 114.17-255 255s114.17 255 255 255 255-114.17 255-255-114.17-255-255-255m8.827 44.931c120.9 0 218.9 98 218.9 218.9s-98 218.9-218.9 218.9-218.93-98-218.93-218.9 98.03-218.9 218.93-218.9"/>
  <g id="g24" fill-opacity="0.129">
   <path id="path26" d="m256 4.433c-138.94 0-251.57 112.63-251.57 251.57s112.63 251.57 251.57 251.57 251.57-112.63 251.57-251.57-112.63-251.57-251.57-251.57m5.885 38.556c120.9 0 218.9 98 218.9 218.9s-98 218.9-218.9 218.9-218.93-98-218.93-218.9 98.03-218.9 218.93-218.9"/>
   <path id="path28" d="m256 8.356c-136.77 0-247.64 110.87-247.64 247.64s110.87 247.64 247.64 247.64 247.64-110.87 247.64-247.64-110.87-247.64-247.64-247.64m2.942 31.691c120.9 0 218.9 98 218.9 218.9s-98 218.9-218.9 218.9-218.93-98-218.93-218.9 98.03-218.9 218.93-218.9"/>
  </g>
  <path id="path30" d="m253.04 7.859c-135.42 0-245.19 109.78-245.19 245.19 0 135.42 109.78 245.19 245.19 245.19 135.42 0 245.19-109.78 245.19-245.19 0-135.42-109.78-245.19-245.19-245.19zm0 26.297c120.9 0 218.9 98 218.9 218.9s-98 218.9-218.9 218.9-218.93-98-218.93-218.9 98.03-218.9 218.93-218.9z" stroke-opacity="0.31" stroke="#000" stroke-width="4.904" fill="#fff"/>
 </g>
 <g id="g32" fill="#fff">
  <path id="path34" d="m231.64 166.58c-13.904 3.726-26.1 10.734-36.19 19.842l16.668 19.14c7.309-6.56 16.04-11.546 26.14-14.252 34.944-9.363 70.62 11.931 80.19 47.669 9.576 35.737-10.721 71.821-45.665 81.18-34.944 9.363-70.75-11.688-80.33-47.42-2.239-8.354-2.819-16.657-1.971-24.732l-24.689-3.737c-1.321 11.393-0.669 23.19 2.481 34.948 13.157 49.1 63.12 78.54 111.13 65.67 48.01-12.865 76.37-63.29 63.22-112.39-13.157-49.1-62.984-78.78-111-65.918" color="#000000"/>
  <path id="path36" d="m242.62 207.53c-7.53 2.02-14.16 5.72-19.621 10.641l29 33.433 5.797 6.522-8.436-1.26-42.42-6.44c-0.579 5.904-0.233 11.977 1.396 18.05 7.13 26.61 34.14 42.614 60.16 35.642s41.41-34.34 34.28-60.949c-7.13-26.61-34.14-42.614-60.16-35.642"/>
  <path id="path38" d="m214.34 123.77c-68.04 19.15-122.99 77.54-138.53 160.4-0.003 0.011-0.014 0.019-0.017 0.029-0.059 0.314-0.135 0.614-0.192 0.929-1.328 5.369-2.48 10.827-3.401 16.409l-1.254 7.583 5.464 5.382c2.464 2.429 4.925 4.764 7.398 7.02 0.021 0.019 0.044 0.039 0.065 0.058 62.21 64.57 138.89 86.67 205.91 68.76 67.02-17.913 123.17-75.44 146.33-163.32 0.073-0.219 0.082-0.246 0.027-0.082 0.024-0.071 0.041-0.147 0.064-0.218 0.058-0.223 0.135-0.43 0.193-0.654 1.168-3.529 2.294-7.112 3.341-10.776l2.393-8.365-6.137-6.155c-3.085-3.094-6.221-6.05-9.379-8.922-0.234-0.242-0.488-0.443-0.723-0.684-63.851-65.61-141.81-85.66-208.31-68.27-1.086 0.284-2.169 0.566-3.249 0.871m15.931 54.24c58.22-15.779 125.14-6.02 178.13 37.635-51.781 128.12-205.8 167.9-305.42 83.52 16.1-60.34 65.56-103.5 124.53-120.39 0.92-0.263 1.838-0.515 2.762-0.765" color="#000000"/>
 </g>
</svg>
