<?xml version="1.0" encoding="UTF-8" standalone="no"?>
<svg xmlns="http://www.w3.org/2000/svg" height="512" viewBox="0 0 512 512" width="512" version="1.1">
 <metadata id="metadata72"/>
 <g id="g4" fill-rule="evenodd">
  <path id="path6" fill="#BF9E73" d="m471.95 253.05c0 120.9-98.01 218.9-218.9 218.9-120.9 0-218.9-98.01-218.9-218.9 0-120.9 98.01-218.9 218.9-218.9 120.9 0 218.9 98.01 218.9 218.9"/>
  <path id="path8" fill-opacity="0.235" d="m252.22 79.5c-6.546 17.454-19.01 35.37-15.816 54.617-0.657 7.395 21.982 20.591 13.659 20.01-13.907-13.802-27.769-27.696-41.594-41.594-8.841 1.084 0.98 11.368 2.231 16.469 5.421 11.1 10.606 22.574 16.17 33.437 2.892 3.281 6.086 5.613 8.562 8.687-16.682-8.168-33.24-16.735-50-24.656-7.01 4.318 3.851 8.985 6.344 12.938 10.412 10.348 20.833 20.661 31.25 30.969-6.135 4.957-33.395 12.285-20.969 21.375 66.951 66.948 133.93 133.92 200.84 200.84 35.649-33.34 59.654-78.887 66.66-127.22-57.86-57.22-115.25-114.71-172.48-172.54-7.602 5.637-9.104 5.295-12.02-0.486-3.451-1.588-6.768-7.412-10.219-9-3.417-5.27-7.094-6.508-10.563-11.781-3.51-1.704-6.838-7.462-10.25-9.03-0.437-6.287-1.378 3.258-1.81-3.03m-29.12 43.875h0.031-0.031m12.875 48c0.136-0.093 0.441 0.334 0 0m-44.06 40.813c-8.114 9.429-19.428 21.414-20.781 32.813 65.36 65.32 130.43 130.44 195.34 195.3 11.83-7.327 23.988-15.841 33.538-25.365-35.751-35.737-71.52-71.52-107.41-107.41-2.572-0.573-4.433-5.087-6.406-5.844-13.875-13.918-27.795-27.839-41.67-41.05-8.766-8.776-17.531-17.553-26.298-26.328-2.653 4.981-5.31-2.444-7.951-3.735-6.12-6.13-12.241-12.26-18.361-18.39m-24.875 38.09c-6.614 14.744-10.819 33.463-5.75 33.906 3.717-0.378 4.74 1.068-3.156 7.813 11.634 11.694 24.399 24.22 34.625 34.625 9.298 9.304 19.728 19.645 28.09 28.09 6.06 5.853 11.668 11.532 17.22 17.12 3.384 3.316 6.793 6.587 9.812 9.908 2.817 2.323 4.973 4.9 7.406 7.281 2.625 2.141 4.264 4.872 7.313 6.75 0.874 2.264 3.756 3.494 4.907 5.593 2.363 1.927 4.222 3.992 6.188 6.03 2.116 2.078 4.236 3.868 5.999 6.157 1.839 1.538 3.625 3.17 5.03 5 2.309 1.858 4.163 3.937 6.156 6.03 2.088 2.042 4.228 3.829 6 6.156 2.343 1.249 3.341 4.122 5.938 5.125 1.122 2.681 3.871 3.635 5.219 6.03 2.322 1.783 4.107 3.922 6.156 6 2.07 1.991 4.152 3.813 6 6.157 2.172 1.178 3.357 4.092 5.719 4.969 12.426-3.585 27.678-10.52 38-17.812-25.624-25.589-50.986-50.959-76.78-76.78-2.319 2.932-4.649-3.525-6.939-4.564-10.329-10.258-20.81-21.05-31.06-30.468-21.289-21.283-42.628-42.584-64.19-64.19-4.967 2.551-12.982-12.745-17.906-14.938m20.75 17.16-0.25 0.281 0.25-0.281m1.438 1.125-0.406 0.406 0.406-0.406m64.844 0.75-0.125 0.125 0.125-0.125m-63.41 0.344-0.531 0.531 0.531-0.531m64.844 0.781-0.25 0.25 0.25-0.25m-63.41 0.344-0.688 0.656 0.688-0.656m64.844 0.75-0.406 0.406 0.406-0.406m-63.44 0.344c-1.15 1.196-0.806 0.838 0 0m64.875 0.781-0.531 0.531 0.531-0.531m-63.44 0.344c-1.309 1.309-0.872 0.872 0 0m64.875 0.781-0.656 0.656 0.656-0.656m-63.44 0.313c-1.359 1.359-1.034 1.034 0 0m64.875 0.781c-1.15 1.196-0.806 0.838 0 0m-63.44 0.344c-1.448 1.411-1.248 1.216 0 0m64.875 0.781c-1.309 1.309-0.872 0.872 0 0m-63.44 0.313c-1.954 1.954-1.619 1.619 0 0m64.875 0.813c-1.359 1.359-1.034 1.034 0 0m1.438 1.125c-1.421 1.421-1.209 1.209 0 0m1.438 1.094c-1.95 1.997-1.546 1.583 0 0m-45.906 21.375-0.281 0.25 0.281-0.25m1.438 1.094-0.406 0.406 0.406-0.406m1.438 1.125-0.531 0.531 0.531-0.531m-68.28 0.156c-0.139 12.696 0.291 30.08 4.711 39.571 1.066 4.336 10.229 3.075 1.758 9.492 1.13 9.393 7.125 15.916 13.812 21.844 13.94 14.02 27.492 26.987 40.37 40.41 6.535 5.749 12.07 12.379 18.469 17.969 5.057 5.801 10.886 10.587 15.938 16.406 4.828 4.081 8.823 9.099 13.563 13.06 4.64 3.961 7.335 11.716 15.531 8.469 13.03-1.811 28.46-4.33 39.34-9.03-22.12-22.16-44.31-44.34-66.56-66.56-3.515-1.886-6.984-7.131-10.496-9.937-7.974-7.964-15.909-15.97-23.909-23.906-3.561 0.649-7.079-6.591-10.656-8.844-7.539-7.554-15.07-15.11-22.625-22.656-3.295 3.309-6.619-5.465-9.936-6.967l-19.314-19.314m69.72 0.938-0.688 0.688 0.688-0.688m-67.62 0.188-0.125 0.125 0.125-0.125m69.06 0.938c-1.196 1.15-0.838 0.806 0 0m-66.969 0.156-0.281 0.281 0.281-0.281m68.41 0.969c-1.325 1.281-0.867 0.838 0 0m-66.34 0.156-0.375 0.406 0.375-0.406m67.781 0.938c-1.386 1.346-1.071 1.04 0 0m-65.69 0.156-0.531 0.531 0.531-0.531m67.13 0.969c-1.448 1.411-1.248 1.216 0 0m-65.03 0.156-0.688 0.656 0.688-0.656m66.47 0.938c-1.954 1.954-1.619 1.619 0 0m-64.41 0.156c-1.15 1.196-0.806 0.838 0 0m2.094 1.094c-1.309 1.309-0.872 0.872 0 0m2.063 1.125c-1.359 1.359-1.034 1.034 0 0m2.094 1.094c-1.411 1.448-1.216 1.248 0 0m2.094 1.125c-1.997 1.95-1.583 1.546 0 0m9.813 16.281-0.125 0.125 0.125-0.125m1.438 1.125-0.25 0.25 0.25-0.25m1.438 1.094-0.406 0.406 0.406-0.406m64.844 0.75-0.125 0.156 0.125-0.156m-63.41 0.375-0.531 0.531 0.531-0.531m64.844 0.75-0.25 0.281 0.25-0.281m-63.41 0.344-0.688 0.656 0.688-0.656m64.844 0.781-0.406 0.406 0.406-0.406m-63.44 0.344c-1.132 1.132-0.851 0.851 0 0m64.875 0.75-0.531 0.531 0.531-0.531m-63.44 0.344c-1.309 1.309-0.872 0.872 0 0m64.875 0.781-0.656 0.656 0.656-0.656m-63.44 0.344c-1.359 1.359-1.034 1.034 0 0m64.875 0.781c-1.132 1.132-0.851 0.851 0 0m-63.44 0.313c-1.448 1.411-1.248 1.216 0 0m64.875 0.781c-1.309 1.309-0.872 0.872 0 0m-63.44 0.344c-1.997 1.95-1.583 1.546 0 0m64.875 0.781c-1.359 1.359-1.034 1.034 0 0m1.438 1.125c-1.421 1.421-1.209 1.209 0 0m1.438 1.125c-1.997 1.997-1.508 1.508 0 0m-45.906 19.594-0.281 0.281 0.281-0.281m1.438 1.125-0.406 0.375 0.406-0.375m1.438 1.094-0.531 0.531 0.531-0.531m1.438 1.125-0.688 0.656 0.688-0.656m1.438 1.094c-1.275 1.275-0.728 0.728 0 0m1.438 1.125c-1.309 1.309-0.872 0.872 0 0m1.438 1.125c-1.386 1.346-1.071 1.04 0 0m1.438 1.094c-1.438 1.438-1.255 1.255 0 0m1.438 1.125c-1.997 1.95-1.583 1.546 0 0m-47.656 19.75c-1.662 7.76 11.657 15.181 17.188 22.16 19.66 19.265 39.25 38.597 58.906 57.875 8.08-0.359-8.508-10.348-10.875-14.781-21.76-21.754-43.41-43.43-65.22-65.25m2.844 2.219-0.25 0.281 0.25-0.281m1.438 1.125-0.406 0.375 0.406-0.375m64.844 0.75-0.094 0.094 0.094-0.094m-63.41 0.344-0.531 0.531 0.531-0.531m64.844 0.781-0.188 0.188 0.188-0.188m-63.41 0.344-0.688 0.656 0.688-0.656m64.844 0.75-0.281 0.313 0.281-0.313m-63.44 0.344c-1.15 1.196-0.806 0.838 0 0m64.875 0.781-0.406 0.406 0.406-0.406m-63.44 0.344c-1.325 1.281-0.867 0.838 0 0m64.875 0.781-0.5 0.5 0.5-0.5m-63.44 0.313c-1.359 1.359-1.034 1.034 0 0m130.41 0.406c-0.138 4.83-0.028 0.987 0 0m-65.53 0.375-0.594 0.594 0.594-0.594m-63.44 0.344c-1.448 1.411-1.248 1.216 0 0m129.41 0.375c-0.029 1.046-0.135 4.806 0 0m-64.53 0.406-0.688 0.688 0.688-0.688m-63.44 0.313c-1.954 1.954-1.619 1.619 0 0m64.875 0.813c-1.132 1.132-0.851 0.851 0 0m1.438 1.094c-1.298 1.298-0.834 0.834 0 0m1.438 1.125c-1.332 1.332-0.951 0.951 0 0m1.438 1.125c-1.373 1.373-1.077 1.077 0 0m1.438 1.094c-1.411 1.448-1.216 1.248 0 0m1.438 1.125c-2 2.048-1.432 1.466 0 0"/>
  <path id="path10" fill-opacity="0.067" d="m256 1c-140.83 0-255 114.17-255 255s114.17 255 255 255 255-114.17 255-255-114.17-255-255-255m8.827 44.931c120.9 0 218.9 98 218.9 218.9s-98 218.9-218.9 218.9-218.93-98-218.93-218.9 98.03-218.9 218.93-218.9"/>
  <g id="g12" fill-opacity="0.129">
   <path id="path14" d="m256 4.433c-138.94 0-251.57 112.63-251.57 251.57s112.63 251.57 251.57 251.57 251.57-112.63 251.57-251.57-112.63-251.57-251.57-251.57m5.885 38.556c120.9 0 218.9 98 218.9 218.9s-98 218.9-218.9 218.9-218.93-98-218.93-218.9 98.03-218.9 218.93-218.9"/>
   <path id="path16" d="m256 8.356c-136.77 0-247.64 110.87-247.64 247.64s110.87 247.64 247.64 247.64 247.64-110.87 247.64-247.64-110.87-247.64-247.64-247.64m2.942 31.691c120.9 0 218.9 98 218.9 218.9s-98 218.9-218.9 218.9-218.93-98-218.93-218.9 98.03-218.9 218.93-218.9"/>
  </g>
  <path id="path18" d="m253.04 7.859c-135.42 0-245.19 109.78-245.19 245.19 0 135.42 109.78 245.19 245.19 245.19 135.42 0 245.19-109.78 245.19-245.19 0-135.42-109.78-245.19-245.19-245.19zm0 26.297c120.9 0 218.9 98 218.9 218.9s-98 218.9-218.9 218.9-218.93-98-218.93-218.9 98.03-218.9 218.93-218.9z" stroke-opacity="0.31" stroke="#000" stroke-width="4.904" fill="#fff"/>
 </g>
 <path id="path66" d="m252.23 79.51c-7.203 16.06-14.713 32.16-17.03 47.679 0.746 10.333 5.089 17.323 14.512 19.54 12-1.699 16.744-8.741 16.998-19.11-1.962-18.289-8.857-32.698-14.484-48.11m-44.937 32.681c-1.731 0.093-3.494 2.457-3.114 3.2l22.54 47.05h0.143a25.18 6.7388 0 0 0 49.707 0.39994h0.171l22.511-47.05c0.467-0.914-2.271-4.286-4.257-2.857l-38.39 42.08a25.18 6.7388 0 0 0 -9.3987 0l-38.737-42.48c-0.372-0.268-0.772-0.364-1.171-0.343m-21.854 34.28c-2.096-0.049-3.204 3.617-2.485 4.257l37.995 35.709 25.03-7.37c1.287-0.523 2.204-1.383 1.257-2.085l-61.33-30.453c-0.148-0.038-0.317-0.054-0.457-0.057m132.12 0c-0.14 0.004-0.28 0.019-0.429 0.057l-61.33 30.453c-0.947 0.703-0.03 1.562 1.257 2.085l24.997 7.37 38.02-35.709c0.719-0.64-0.418-4.306-2.514-4.257m-51.28 40.08-26.453 0.514c1.05 1.575 10.827 11.541 10.827 11.541l15.626-12.06m12.08 0.086-18.03 17.998 26.768 26.796 25.882-25.911c-10.307-8.825-22.02-15.326-34.624-18.883m-47.16 0.686c-12.375 3.897-23.85 10.656-33.91 19.654l20.911 20.911 26.768-26.825-13.77-13.741m21.426 20.826-26.768 26.825 26.768 26.768 26.825-26.768-26.825-26.825m-60.734 4.03c-8.674 8.925-16.09 19.627-21.94 31.653l14.969 14.941 26.768-26.768-19.797-19.826m128.98 0.857-26.05 26.11 26.739 26.739 20.997-20.997c-5.747-12.09-13.1-22.832-21.683-31.853m-102.67 21.283-26.825 26.796 26.825 26.739 26.768-26.739-26.768-26.796m68.905 3.542-26.768 26.825 26.768 26.739 26.768-26.739-26.768-26.825m-120.07 12.427c-4.04 9.546-7.122 19.82-9.06 30.624l19.854-19.797-10.799-10.827m178.06 0.314-17.655 17.626 26.796 26.768 1.514-1.514c-1.434-15.33-5.147-29.768-10.656-42.88m-160.18 14.627-26.796 26.768 26.796 26.796 26.768-26.796-26.768-26.768m67.7 2.971-26.768 26.768 26.768 26.796 26.825-26.796-26.825-26.768m68.933 4.142-26.739 26.768 26.739 26.796 26.768-26.796-26.768-26.768m-103.36 26.14-26.825 26.768 26.825 26.825 26.768-26.825-26.768-26.768m68.905 3.571-26.768 26.768 26.768 26.796 26.768-26.796-26.768-26.768m-131.41 1.057c-0.051 1.615-0.114 3.255-0.114 4.885 0 12.284 1.439 24.19 4.114 35.395l18.14-18.14-22.14-22.14m198.54 2.514-26.796 26.768 21.826 21.826c4.613-14.291 7.142-29.889 7.142-46.22v-0.2l-2.171-2.171m-169.32 23.74-22.768 22.797c1.303 4.256 2.713 8.409 4.371 12.427l18.397 18.369 26.768-26.768-26.768-26.825m67.7 2.971-26.768 26.825 26.768 26.768 26.825-26.768-26.825-26.825m68.933 4.171-26.739 26.796 26.739 26.739 22.74-22.711c0.825-1.882 1.623-3.774 2.371-5.713l-25.11-25.11m-103.36 24.368-26.825 26.768 26.825 26.796 26.768-26.796-26.768-26.768m68.905 3.571-26.768 26.768 26.768 26.796 26.768-26.796-26.768-26.768m-102.19 27.31-1.857 1.828c7.978 10.44 17.413 19.19 27.882 25.711l0.743-0.743-26.768-26.796m67.7 2.971-26.768 26.796 7.885 7.885c7.163 2.01 14.629 3.085 22.283 3.085 4.621 0 9.143-0.393 13.598-1.143l9.827-9.827-26.825-26.796m68.933 4.142-20.05 20.14c7.891-4.979 15.166-11.206 21.683-18.483l-1.628-1.657" fill-rule="evenodd" fill="#fff"/>
</svg>
