<?xml version="1.0" encoding="UTF-8" standalone="no"?>
<svg xmlns="http://www.w3.org/2000/svg" xmlns:xlink="http://www.w3.org/1999/xlink" xmlns:sodipodi="http://sodipodi.sourceforge.net/DTD/sodipodi-0.dtd" xmlns:inkscape="http://www.inkscape.org/namespaces/inkscape" height="512" width="512" version="1.1" viewBox="0 0 512 512">
 <metadata id="metadata10"/>
 <defs id="defs8">
  <linearGradient y2="7.02" x2="0" gradientTransform="scale(1.0059 .99417)" y1="92.54" gradientUnits="userSpaceOnUse" id="ButtonShadow-5">
   <stop id="stop3750-0"/>
   <stop offset="1" stop-opacity="0.588" id="stop3752-8"/>
  </linearGradient>
  <filter color-interpolation-filters="sRGB" id="filter3174-8">
   <feGaussianBlur stdDeviation="1.71" id="feGaussianBlur3176-5"/>
  </filter>
  <linearGradient id="linearGradient3737">
   <stop stop-color="#fff" id="stop3739"/>
   <stop offset="1" stop-opacity="0" stop-color="#fff" id="stop3741"/>
  </linearGradient>
  <filter x="-0.192" y="-0.192" color-interpolation-filters="sRGB" width="1.384" height="1.384" id="filter3794">
   <feGaussianBlur stdDeviation="5.28" id="feGaussianBlur3796"/>
  </filter>
  <linearGradient y2="138.66" x2="0" y1="20.221" gradientUnits="userSpaceOnUse" xlink:href="#linearGradient3737" id="linearGradient3613"/>
  <clipPath id="clipPath3613">
   <rect fill="#fff" x="6" y="6" width="84" height="84" rx="6" id="rect3615"/>
  </clipPath>
  <clipPath id="clipPath3613-1">
   <rect fill="#fff" x="6" y="6" width="84" height="84" rx="6" id="rect3615-9"/>
  </clipPath>
  <clipPath id="clipPath3613-2">
   <rect fill="#fff" x="6" y="6" width="84" height="84" rx="6" id="rect3615-3"/>
  </clipPath>
  <clipPath id="clipPath3613-8">
   <rect fill="#fff" x="6" y="6" width="84" height="84" rx="6" id="rect3615-8"/>
  </clipPath>
  <clipPath id="clipPath3613-9">
   <rect fill="#fff" x="6" y="6" width="84" height="84" rx="6" id="rect3615-1"/>
  </clipPath>
  <linearGradient y1="92.54" gradientTransform="scale(1.0059 .99417)" x2="0" gradientUnits="userSpaceOnUse" xlink:href="#ButtonShadow-5" y2="7.02" id="linearGradient9267"/>
  <clipPath id="clipPath3613-7">
   <rect fill="#fff" x="6" y="6" width="84" height="84" rx="6" id="rect3615-95"/>
  </clipPath>
  <clipPath id="clipPath3613-1-4">
   <rect fill="#fff" x="6" y="6" width="84" height="84" rx="6" id="rect3615-9-9"/>
  </clipPath>
  <clipPath id="clipPath3613-2-8">
   <rect fill="#fff" x="6" y="6" width="84" height="84" rx="6" id="rect3615-3-4"/>
  </clipPath>
  <clipPath id="clipPath3613-8-6">
   <rect fill="#fff" x="6" y="6" width="84" height="84" rx="6" id="rect3615-8-4"/>
  </clipPath>
  <clipPath id="clipPath3613-9-6">
   <rect fill="#fff" x="6" y="6" width="84" height="84" rx="6" id="rect3615-1-6"/>
  </clipPath>
 </defs>
 <path inkscape:connector-curvature="0" d="m 471.9456,253.05189 c 0,120.89699 -98.00565,218.90724 -218.90724,218.90724 -120.89698,0 -218.90723,-98.00566 -218.90723,-218.90724 0,-120.89698 98.00565,-218.90723 218.90723,-218.90723 120.89699,0 218.90724,98.00565 218.90724,218.90723" id="path3472" fill="#BF9E73" fill-rule="evenodd"/>
 <path inkscape:connector-curvature="0" d="M 256,1 C 115.17,1 1,115.17 1,256 1,396.83 115.17,511 256,511 396.83,511 511,396.83 511,256 511,115.17 396.83,1 256,1 m 8.827,44.931 c 120.9,0 218.9,98 218.9,218.9 0,120.9 -98,218.9 -218.9,218.9 -120.9,0 -218.93,-98 -218.93,-218.9 0,-120.9 98.03,-218.9 218.93,-218.9" id="path3474" fill-rule="evenodd" fill-opacity="0.067"/>
 <path id="path3478" d="M 256,4.43 C 117.06,4.43 4.43,117.06 4.43,256 4.43,394.94 117.06,507.57 256,507.57 394.94,507.57 507.57,394.94 507.57,256 507.57,117.06 394.94,4.43 256,4.43 m 5.885,38.556 c 120.9,0 218.9,98 218.9,218.9 0,120.9 -98,218.9 -218.9,218.9 -120.9,0 -218.93,-98 -218.93,-218.9 0,-120.9 98.03,-218.9 218.93,-218.9" inkscape:connector-curvature="0" fill-rule="evenodd" fill-opacity="0.129"/>
 <path id="path3480" d="M 256,8.36 C 119.23,8.36 8.36,119.23 8.36,256 8.36,392.77 119.23,503.64 256,503.64 392.77,503.64 503.64,392.77 503.64,256 503.64,119.23 392.77,8.36 256,8.36 m 2.942,31.691 c 120.9,0 218.9,98 218.9,218.9 0,120.9 -98,218.9 -218.9,218.9 -120.9,0 -218.93,-98 -218.93,-218.9 0,-120.9 98.03,-218.9 218.93,-218.9" inkscape:connector-curvature="0" fill-rule="evenodd" fill-opacity="0.129"/>
 <path inkscape:connector-curvature="0" d="M 253.04,7.86 C 117.62,7.86 7.85,117.64 7.85,253.05 c 0,135.42 109.78,245.19 245.19,245.19 135.42,0 245.19,-109.78 245.19,-245.19 C 498.23,117.63 388.45,7.86 253.04,7.86 Z m 0,26.297 c 120.9,0 218.9,98 218.9,218.9 0,120.9 -98,218.9 -218.9,218.9 -120.9,0 -218.93,-98 -218.93,-218.9 0,-120.9 98.03,-218.9 218.93,-218.9 z" id="path3482" stroke-opacity="0.31" fill="#ffffff" fill-rule="evenodd" stroke="#000000" stroke-width="4.904"/>
 <path inkscape:connector-curvature="0" d="m 198.94141,95.54688 c -5.43908,0 -9.83399,4.39565 -9.83399,9.83398 l 0,42.98047 c 0,2.70599 1.08839,5.13917 2.85156,6.90234 l 17.01563,17.01563 -10.95117,0 c -14.95484,0 -26.97852,12.08422 -26.97852,27.03906 l 0,10.27734 -16.06054,-16.06054 c -1.76491,-1.76491 -4.20931,-2.84961 -6.92969,-2.84961 l -42.98047,0 c -5.43908,0 -9.83399,4.33797 -9.83399,9.77929 0,2.71945 1.09828,5.17836 2.87696,6.95704 l 37.85742,37.85742 -30.91016,0 c -5.43907,0 -9.83398,4.39565 -9.83398,9.83398 0,2.70598 1.08839,5.13917 2.85156,6.90234 l 37.85547,37.85547 -30.87305,0 c -5.43907,0 -9.83398,4.39566 -9.83398,9.83399 0,2.71945 1.09827,5.17835 2.87695,6.95703 l 91.05078,91.05078 c 0.2401,2.28678 1.26103,4.32938 2.79492,5.86328 l 58.34766,58.34766 c 0.9128,0.0112 1.82283,0.0351 2.73828,0.0351 120.90159,0 218.90625,-98.00926 218.90625,-218.90625 0,-0.50541 -0.0161,-1.00711 -0.0195,-1.51171 l -58.00586,-58.00586 c -1.68352,-1.68353 -3.98872,-2.73739 -6.55859,-2.83204 L 315.05469,98.39649 c -1.76286,-1.76287 -4.19738,-2.84961 -6.9043,-2.84961 -5.43908,0 -9.83398,4.39565 -9.83398,9.83398 l 0,30.86719 -37.82422,-37.82422 c -1.7788,-1.7788 -4.23777,-2.87695 -6.95703,-2.87695 -5.43908,0 -9.78125,4.39565 -9.78125,9.83398 l 0,30.89844 -37.85547,-37.85547 c -1.7788,-1.7788 -4.23778,-2.87695 -6.95703,-2.87695 z" id="path3776" opacity="0.25" fill-rule="evenodd"/>
 <path inkscape:connector-curvature="0" id="path351" d="m 198.94223,95.54655 c -5.43908,0 -9.83431,4.39598 -9.83431,9.83431 l 0,42.98021 c 0,5.43908 4.39598,9.78047 9.83431,9.78047 5.43907,0 9.8343,-4.33915 9.8343,-9.78047 l 0,-42.98021 c 0,-5.43908 -4.39598,-9.83431 -9.8343,-9.83431 m 54.59265,0 c -5.43908,0 -9.78047,4.39598 -9.78047,9.83431 l 0,42.98021 c 0,5.43908 4.33915,9.78047 9.78047,9.78047 5.43908,0 9.83431,-4.33915 9.83431,-9.78047 l 0,-42.98021 c 0,-5.43908 -4.39598,-9.83431 -9.83431,-9.83431 m 54.61509,0 c -5.43908,0 -9.83431,4.39598 -9.83431,9.83431 l 0,42.98021 c 0,5.43908 4.39598,9.78047 9.83431,9.78047 5.43908,0 9.78047,-4.33915 9.78047,-9.78047 l 0,-42.98021 c 0,-5.43908 -4.33915,-9.83431 -9.78047,-9.83431 m -110.12747,76.7333 c -14.95484,0 -26.97853,12.08351 -26.97853,27.03835 l 0,111.65286 c 0,14.95485 12.03117,27.00845 26.97853,27.00845 l 111.04719,0 c 14.95485,0 26.97854,-12.0536 26.97854,-27.00845 l 0,-111.65286 c 0,-14.95484 -12.03117,-27.03835 -26.97854,-27.03835 l -111.04719,0 m 73.8874,16.14226 a 2.4491547,2.4491547 0 0 1 2.29377,1.54827 c 0.37238,0.93019 0.7612,1.69438 1.17545,2.52288 a 2.4491547,2.4491547 0 0 1 0.0573,0.14336 c 1.64055,3.89574 1.7729,3.91742 3.03958,6.45002 0.51444,0.78364 1.46856,2.3352 2.69561,4.78854 a 2.4491547,2.4491547 0 0 1 -0.7168,3.01056 c -6.89194,5.27159 -7.3675,5.74565 -13.04585,10.83853 a 2.4491547,2.4491547 0 0 1 -0.57344,0.51608 2.4491547,2.4491547 0 0 1 -0.086,0.0573 2.4491547,2.4491547 0 0 1 -0.14336,0.0574 2.4491547,2.4491547 0 0 1 -0.086,0.0574 2.4491547,2.4491547 0 0 1 -0.11469,0.0286 2.4491547,2.4491547 0 0 1 -0.25805,0.086 2.4491547,2.4491547 0 0 1 -0.71679,0.086 2.4491547,2.4491547 0 0 1 -0.086,0 2.4491547,2.4491547 0 0 1 -0.17202,-0.0286 2.4491547,2.4491547 0 0 1 -0.28672,-0.0574 2.4491547,2.4491547 0 0 1 -0.0286,0 2.4491547,2.4491547 0 0 1 -0.14336,-0.0573 2.4491547,2.4491547 0 0 1 -0.086,-0.0286 2.4491547,2.4491547 0 0 1 -0.43008,-0.2007 2.4491547,2.4491547 0 0 1 -0.11468,-0.086 2.4491547,2.4491547 0 0 1 -0.086,-0.086 2.4491547,2.4491547 0 0 1 -0.2007,-0.14336 2.4491547,2.4491547 0 0 1 -0.086,-0.086 2.4491547,2.4491547 0 0 1 -0.0573,-0.11469 2.4491547,2.4491547 0 0 1 -0.37273,-0.5161 2.4491547,2.4491547 0 0 1 -0.0286,-0.086 c -0.0314,-0.0456 -0.0269,-0.0695 -0.0576,-0.11441 -4.30325,-6.29973 -6.37375,-9.93525 -7.85653,-14.59368 a 2.4491547,2.4491547 0 0 1 1.20424,-2.95321 c 0.53613,-0.26769 1.2936,-0.81205 2.1221,-1.43417 a 2.4491547,2.4491547 0 0 1 0.11468,-0.0573 c 1.82823,-1.21957 3.21604,-2.25818 4.15745,-3.0134 2.1019,-1.68167 3.84713,-3.0134 4.38626,-3.55552 1.00571,-1.00571 2.18565,-1.70859 3.0964,-2.43689 a 2.4491547,2.4491547 0 0 1 1.26159,-0.51609 2.4491547,2.4491547 0 0 1 0.22937,-0.0286 m -166.8361,2.26557 c -5.43908,0 -9.83431,4.33915 -9.83431,9.78047 0,5.43908 4.39598,9.8343 9.83431,9.8343 l 42.98022,0 c 5.43908,0 9.78047,-4.39597 9.78047,-9.8343 0,-5.43908 -4.33915,-9.78047 -9.78047,-9.78047 l -42.98022,0 m 258.93564,0 c -5.43908,0 -9.83431,4.33915 -9.83431,9.78047 0,5.43908 4.39598,9.8343 9.83431,9.8343 l 42.98025,0 c 5.43908,0 9.78047,-4.39597 9.78047,-9.8343 0,-5.43908 -4.33915,-9.78047 -9.78047,-9.78047 l -42.98025,0 m -98.68701,40.16871 c 1.19115,0 2.39501,0.35667 3.35437,1.14704 0.95935,0.78961 1.6054,2.08171 1.6054,3.38353 0,0.92645 -0.20563,1.70934 -0.57352,3.44036 -0.36789,1.73103 -0.97132,4.30774 -1.89253,8.17133 -1.84394,7.72791 -4.98445,20.6646 -10.26501,42.4067 a 2.4491547,2.4491547 0 0 1 -0.0286,0.0573 c -1.20311,4.41019 -1.77813,8.34032 -1.77813,9.92104 0,1.42371 0.33424,2.43316 0.6311,2.89526 0.2961,0.46136 0.33648,0.45912 0.65951,0.45912 1.28387,0 1.21732,0.13384 3.98546,-1.17545 2.70832,-1.28163 7.83335,-4.02884 17.25789,-9.08881 a 2.4491547,2.4491547 0 0 1 0.22938,-0.17203 2.4491547,2.4491547 0 0 1 0.63078,-0.25805 2.4491547,2.4491547 0 0 1 0.11468,-0.0286 2.4491547,2.4491547 0 0 1 0.14336,-0.0286 2.4491547,2.4491547 0 0 1 0.48742,-0.0574 2.4491547,2.4491547 0 0 1 0.11469,0 2.4491547,2.4491547 0 0 1 0.11469,0 2.4491547,2.4491547 0 0 1 0.25804,0.086 2.4491547,2.4491547 0 0 1 0.22937,0.0573 2.4491547,2.4491547 0 0 1 0.0286,0 2.4491547,2.4491547 0 0 1 0.2007,0.086 2.4491547,2.4491547 0 0 1 0.34407,0.17203 2.4491547,2.4491547 0 0 1 1.06082,1.69162 2.4491547,2.4491547 0 0 1 0.0286,0.11469 2.4491547,2.4491547 0 0 1 0,0.14336 2.4491547,2.4491547 0 0 1 -0.0286,0.6021 2.4491547,2.4491547 0 0 1 -0.0286,0.2007 l -0.0284,0.086 -0.77466,5.36206 a 2.4491547,2.4491547 0 0 1 -1.14689,1.77768 c -1.93665,1.16274 -3.76862,2.36735 -5.67761,3.44036 -0.0703,0.0404 -0.12936,0.0755 -0.20114,0.11441 -3.91219,2.67019 -7.80344,5.15643 -11.66926,7.59781 -11.05612,7.09158 -16.62231,10.09227 -21.38992,10.09227 -2.38305,0 -4.48121,-1.47081 -5.6776,-3.44036 -1.19564,-1.96955 -1.77813,-4.42888 -1.77813,-7.25384 0,-2.58794 0.0531,-4.36831 1.28985,-9.63392 1.23602,-5.2641 3.68861,-14.31178 8.54445,-32.39966 0.004,-0.0135 -0.004,-0.015 0,-0.0284 3.09117,-11.74852 3.64151,-14.43217 3.64151,-16.74419 0,-0.82551 -0.15703,-1.11638 -0.20115,-1.23302 -0.63333,-0.003 -0.7268,-0.071 -2.49446,0.74624 -1.87908,0.86738 -5.19457,2.62607 -11.29839,5.93558 a 2.4491547,2.4491547 0 0 1 -3.61264,-2.32241 l 0.42995,-5.79201 a 2.4491547,2.4491547 0 0 1 1.06082,-1.86368 c 8.52726,-5.71948 15.87906,-10.29117 21.58956,-13.47431 2.85488,-1.59194 5.28654,-2.85638 7.31143,-3.72749 2.02862,-0.87187 3.51738,-1.46259 5.18933,-1.46259 m -160.24863,14.42245 c -5.43908,0 -9.8343,4.39598 -9.8343,9.83431 0,5.43907 4.39597,9.78046 9.8343,9.78046 l 42.98022,0 c 5.43908,0 9.78047,-4.33914 9.78047,-9.78047 0,-5.43908 -4.33915,-9.8343 -9.78047,-9.8343 l -42.98022,0 m 258.93564,0 c -5.43908,0 -9.83431,4.39598 -9.83431,9.8343 0,5.43908 4.39598,9.78047 9.83431,9.78047 l 42.98022,0 c 5.43907,0 9.78047,-4.33914 9.78047,-9.78047 0,-5.43908 -4.33915,-9.8343 -9.78047,-9.8343 l -42.98022,0 m -258.93564,54.59266 c -5.43908,0 -9.8343,4.39597 -9.8343,9.8343 0,5.43908 4.39597,9.83431 9.8343,9.83431 l 42.98022,0 c 5.43908,0 9.78047,-4.39599 9.78047,-9.83431 0,-5.43907 -4.33915,-9.8343 -9.78047,-9.8343 l -42.98022,0 m 258.93564,0 c -5.43908,0 -9.83431,4.39597 -9.83431,9.8343 0,5.43908 4.39598,9.83431 9.83431,9.83431 l 42.98022,0 c 5.43907,0 9.78047,-4.39599 9.78047,-9.83431 0,-5.43907 -4.33915,-9.8343 -9.78047,-9.8343 l -42.98022,0 m -165.06409,53.98698 c -5.43907,0 -9.8343,4.39598 -9.8343,9.83431 l 0,42.98022 c 0,5.43907 4.39598,9.78046 9.8343,9.78046 5.43908,0 9.83431,-4.33914 9.83431,-9.78046 l 0,-42.98022 c 0,-5.43908 -4.39598,-9.83431 -9.83431,-9.83431 m 54.59266,0 c -5.43908,0 -9.78047,4.39598 -9.78047,9.83431 l 0,42.98022 c 0,5.43907 4.33915,9.78046 9.78047,9.78046 5.43908,0 9.83431,-4.33914 9.83431,-9.78046 l 0,-42.98022 c 0,-5.43908 -4.39598,-9.83431 -9.83431,-9.83431 m 54.61509,0 c -5.43908,0 -9.83431,4.39598 -9.83431,9.83431 l 0,42.98022 c 0,5.43907 4.39598,9.78046 9.83431,9.78046 5.43907,0 9.78047,-4.33914 9.78047,-9.78046 l 0,-42.98022 c 0,-5.43908 -4.33915,-9.83431 -9.78047,-9.83431" fill="#ffffff" fill-rule="evenodd"/>
</svg>
