<?xml version="1.0" encoding="UTF-8" standalone="no"?>
<svg xmlns="http://www.w3.org/2000/svg" xmlns:sodipodi="http://sodipodi.sourceforge.net/DTD/sodipodi-0.dtd" xmlns:inkscape="http://www.inkscape.org/namespaces/inkscape" version="1.1" viewBox="0 0 512 512">
 <metadata id="metadata5238"/>
 <g id="g4798" fill-rule="evenodd">
  <path inkscape:connector-curvature="0" id="path4800" d="m 471.95,253.05 c 0,120.9 -98.01,218.9 -218.9,218.9 -120.9,0 -218.9,-98.01 -218.9,-218.9 0,-120.9 98.01,-218.9 218.9,-218.9 120.9,0 218.9,98.01 218.9,218.9" fill="#BF9E73"/>
  <path inkscape:connector-curvature="0" id="path4802" d="M 256,1 C 115.17,1 1,115.17 1,256 1,396.83 115.17,511 256,511 396.83,511 511,396.83 511,256 511,115.17 396.83,1 256,1 m 8.827,44.931 c 120.9,0 218.9,98 218.9,218.9 0,120.9 -98,218.9 -218.9,218.9 -120.9,0 -218.93,-98 -218.93,-218.9 0,-120.9 98.03,-218.9 218.93,-218.9" fill-opacity="0.067"/>
  <g id="g4804" fill-opacity="0.129">
   <path inkscape:connector-curvature="0" id="path4806" d="m 256,4.433 c -138.94,0 -251.57,112.63 -251.57,251.57 0,138.94 112.63,251.57 251.57,251.57 138.94,0 251.57,-112.63 251.57,-251.57 C 507.57,117.063 394.94,4.433 256,4.433 m 5.885,38.556 c 120.9,0 218.9,98 218.9,218.9 0,120.9 -98,218.9 -218.9,218.9 -120.9,0 -218.93,-98 -218.93,-218.9 0,-120.9 98.03,-218.9 218.93,-218.9"/>
   <path inkscape:connector-curvature="0" id="path4808" d="m 256,8.356 c -136.77,0 -247.64,110.87 -247.64,247.64 0,136.77 110.87,247.64 247.64,247.64 136.77,0 247.64,-110.87 247.64,-247.64 C 503.64,119.226 392.77,8.356 256,8.356 m 2.942,31.691 c 120.9,0 218.9,98 218.9,218.9 0,120.9 -98,218.9 -218.9,218.9 -120.9,0 -218.93,-98 -218.93,-218.9 0,-120.9 98.03,-218.9 218.93,-218.9"/>
  </g>
  <path inkscape:connector-curvature="0" id="path4810" d="m 253.04,7.859 c -135.42,0 -245.19,109.78 -245.19,245.19 0,135.42 109.78,245.19 245.19,245.19 135.42,0 245.19,-109.78 245.19,-245.19 0,-135.42 -109.78,-245.19 -245.19,-245.19 z m 0,26.297 c 120.9,0 218.9,98 218.9,218.9 0,120.9 -98,218.9 -218.9,218.9 -120.9,0 -218.93,-98 -218.93,-218.9 0,-120.9 98.03,-218.9 218.93,-218.9 z" stroke-opacity="0.31" fill="#ffffff" stroke="#000000" stroke-width="4.904"/>
 </g>
 <path inkscape:connector-curvature="0" id="path5230" d="m 358.45,111.67 c -15.01,4.787 -30.545,10.4 -46.36,16.84 -94.69,38.539 -162.6,91.5 -151.7,118.31 0.799,1.965 1.999,3.736 3.576,5.313 l 93.57,93.57 c -21.61,15.306 -48.19,30.478 -77.8,43.748 -8.82,3.957 -17.577,7.593 -26.18,10.879 l 69.57,69.58 c 9.786,1.338 19.773,2.043 29.926,2.043 120.89,0 218.9,-98 218.9,-218.9 0,-10.153 -0.707,-20.14 -2.045,-29.926 l -111.46,-111.46" opacity="0.25"/>
 <path inkscape:connector-curvature="0" id="path5232" d="m 294.5,250.63 c -0.791,0.036 -19.54,1.688 -39.867,4.747 -16.712,2.5 -25.825,2.074 -31.869,1.275 -12.763,-2.181 -21.383,-7.217 -24.39,-15.299 -10.352,-27.841 49.579,-81.03 133.88,-118.79 8.851,-3.961 17.578,-7.59 26.19,-10.894 -15.01,4.787 -30.545,10.401 -46.36,16.84 -94.69,38.539 -162.6,91.5 -151.7,118.31 5.498,13.514 29.99,17.777 65.07,13.772 0.062,-0.018 0.147,-0.018 0.213,-0.018 20.406,-1.914 44.836,-6.981 59.971,-5.756 14.74,1.821 24.705,7.02 27.978,15.828 10.343,27.845 -49.597,81.03 -133.89,118.8 -8.82,3.957 -17.578,7.594 -26.18,10.88 15.01,-4.761 30.545,-10.41 46.36,-16.831 94.69,-38.526 162.59,-91.5 151.69,-118.32 -5.058,-12.453 -26.304,-17.06 -57.1,-14.544" fill="#ffffff"/>
</svg>
