<?xml version="1.0" encoding="UTF-8" standalone="no"?>
<svg xmlns="http://www.w3.org/2000/svg" height="512" viewBox="0 0 512 512" width="512" version="1.1">
 <metadata id="metadata72"/>
 <path id="path4" d="m471.95 253.05c0 120.9-98.01 218.9-218.9 218.9-120.9 0-218.9-98.01-218.9-218.9 0-120.9 98.01-218.9 218.9-218.9 120.9 0 218.9 98.01 218.9 218.9" fill-rule="evenodd" fill="#BF9E73"/>
 <path id="path6" fill-opacity="0.235" d="m266.41 116.94c-4.608 0.015-9.235 0.05-13.875 0.094-37.12 0.353-72.94 2.615-79.938 6.5-13.997 7.773-80.04 119.76-79.875 135.03 0.119 11.09 36.16 71.27 61.34 106.38-0.286 0.536-0.591 1.09-0.875 1.625h1.531c-0.181 0.325-0.361 0.649-0.531 0.969h1.531c-0.185 0.333-0.357 0.672-0.531 1h1.5c0.005 0.007-0.005 0.024 0 0.031-0.179 0.323-0.363 0.651-0.531 0.969h1.25c0.061 0.083 0.127 0.167 0.188 0.25-0.141 0.254-0.305 0.501-0.438 0.75h1c0.104 0.14 0.209 0.298 0.313 0.438-0.104 0.188-0.214 0.378-0.313 0.563h0.719c0.161 0.216 0.309 0.412 0.469 0.625-0.067 0.123-0.123 0.254-0.188 0.375h0.469c0.209 0.277 0.418 0.54 0.625 0.813-0.029 0.054-0.065 0.103-0.094 0.156h0.219c4.845 6.378 9.05 11.39 12.13 14.25 0.273 0.273 0.554 0.569 0.813 0.813 0.337 0.34 0.685 0.703 1 1 0.334 0.336 0.688 0.705 1 1 0.337 0.34 0.685 0.703 1 1 0.26 0.262 0.535 0.576 0.781 0.813 0.467 0.476 0.949 0.948 1.375 1.344 0.273 0.273 0.554 0.569 0.813 0.813 0.337 0.34 0.685 0.703 1 1 0.337 0.34 0.685 0.703 1 1 0.337 0.34 0.685 0.703 1 1 0.337 0.34 0.685 0.703 1 1 0.337 0.34 0.685 0.703 1 1 0.326 0.328 0.663 0.68 0.969 0.969 0.337 0.34 0.685 0.703 1 1 0.337 0.34 0.685 0.703 1 1 0.306 0.308 0.619 0.664 0.906 0.938 0.364 0.368 0.755 0.743 1.094 1.063 0.26 0.262 0.535 0.576 0.781 0.813 0.467 0.476 0.949 0.948 1.375 1.344 0.273 0.273 0.554 0.569 0.813 0.813 0.337 0.34 0.685 0.703 1 1 0.334 0.336 0.688 0.705 1 1 0.337 0.34 0.685 0.703 1 1 0.26 0.262 0.535 0.576 0.781 0.813 0.467 0.476 0.949 0.948 1.375 1.344 0.273 0.273 0.554 0.569 0.813 0.813 0.085 0.09 0.166 0.162 0.25 0.25 0.212 0.211 0.422 0.463 0.625 0.656 0.373 0.378 0.779 0.767 1.125 1.094 0.337 0.34 0.685 0.703 1 1 0.26 0.262 0.535 0.576 0.781 0.813 0.467 0.476 0.949 0.948 1.375 1.344 0.273 0.273 0.554 0.569 0.813 0.813 0.337 0.34 0.685 0.703 1 1 0.337 0.34 0.685 0.703 1 1 0.306 0.308 0.619 0.664 0.906 0.938 0.364 0.368 0.755 0.743 1.094 1.063 0.26 0.262 0.535 0.576 0.781 0.813 0.467 0.476 0.949 0.948 1.375 1.344 0.273 0.273 0.554 0.569 0.813 0.813 0.337 0.34 0.685 0.703 1 1 0.306 0.308 0.619 0.664 0.906 0.938 0.364 0.368 0.755 0.743 1.094 1.063 0.26 0.262 0.535 0.576 0.781 0.813 0.467 0.476 0.949 0.948 1.375 1.344 0.273 0.273 0.554 0.569 0.813 0.813 0.337 0.34 0.685 0.703 1 1 0.334 0.336 0.688 0.705 1 1 0.337 0.34 0.685 0.703 1 1 0.26 0.262 0.535 0.576 0.781 0.813 0.467 0.476 0.949 0.948 1.375 1.344 0.273 0.273 0.554 0.569 0.813 0.813 0.337 0.34 0.685 0.703 1 1 0.337 0.34 0.685 0.703 1 1 0.337 0.34 0.685 0.703 1 1 0.26 0.262 0.535 0.576 0.781 0.813 0.467 0.476 0.949 0.948 1.375 1.344 0.273 0.273 0.554 0.569 0.813 0.813 0.337 0.34 0.685 0.703 1 1 0.337 0.34 0.685 0.703 1 1 0.306 0.308 0.619 0.664 0.906 0.938 0.364 0.368 0.755 0.743 1.094 1.063 0.26 0.262 0.535 0.576 0.781 0.813 0.467 0.476 0.949 0.948 1.375 1.344 0.273 0.273 0.554 0.569 0.813 0.813 0.337 0.34 0.685 0.703 1 1 0.306 0.308 0.619 0.664 0.906 0.938 0.364 0.368 0.755 0.743 1.094 1.063 0.26 0.262 0.535 0.576 0.781 0.813 0.467 0.476 0.949 0.948 1.375 1.344 0.273 0.273 0.554 0.569 0.813 0.813 0.085 0.09 0.166 0.162 0.25 0.25 0.212 0.211 0.422 0.463 0.625 0.656 0.373 0.378 0.779 0.767 1.125 1.094 0.337 0.34 0.685 0.703 1 1 0.26 0.262 0.535 0.576 0.781 0.813 0.467 0.476 0.949 0.948 1.375 1.344 0.273 0.273 0.554 0.569 0.813 0.813 0.337 0.34 0.685 0.703 1 1 0.337 0.34 0.685 0.703 1 1 0.306 0.308 0.619 0.664 0.906 0.938 0.364 0.368 0.755 0.743 1.094 1.063 0.26 0.262 0.535 0.576 0.781 0.813 0.467 0.476 0.949 0.948 1.375 1.344 0.273 0.273 0.554 0.569 0.813 0.813 0.337 0.34 0.685 0.703 1 1 0.244 0.246 0.483 0.51 0.719 0.75 117.84-1.897 213.06-96.9 215.28-214.66-0.309-0.316-0.621-0.643-0.906-0.906-0.34-0.337-0.684-0.678-1-0.969-0.176-0.184-0.33-0.357-0.5-0.531-0.016-0.018-0.015-0.045-0.031-0.063-0.108-0.103-0.208-0.183-0.313-0.281-0.204-0.215-0.397-0.393-0.594-0.594-0.353-0.341-0.675-0.682-1-0.969-0.038-0.041-0.056-0.084-0.094-0.125-0.317-0.303-0.612-0.616-0.906-0.875-0.038-0.041-0.056-0.084-0.094-0.125-0.317-0.303-0.612-0.616-0.906-0.875-0.036-0.037-0.058-0.088-0.094-0.125-0.102-0.097-0.182-0.188-0.281-0.281-0.387-0.388-0.768-0.796-1.125-1.125-0.181-0.19-0.356-0.352-0.531-0.531-0.016-0.018-0.015-0.045-0.031-0.063-0.108-0.103-0.208-0.183-0.313-0.281-0.204-0.215-0.397-0.393-0.594-0.594-0.353-0.341-0.675-0.682-1-0.969-0.038-0.041-0.056-0.084-0.094-0.125-0.317-0.303-0.612-0.616-0.906-0.875-0.038-0.041-0.056-0.084-0.094-0.125-0.317-0.303-0.612-0.616-0.906-0.875-0.036-0.037-0.058-0.088-0.094-0.125-0.102-0.097-0.182-0.188-0.281-0.281-0.364-0.364-0.726-0.75-1.063-1.063-0.372-0.371-0.75-0.746-1.094-1.063-0.192-0.201-0.346-0.405-0.531-0.594-0.079-0.076-0.141-0.146-0.219-0.219-0.588-0.591-1.17-1.169-1.688-1.625-0.038-0.041-0.056-0.084-0.094-0.125-0.317-0.303-0.612-0.616-0.906-0.875-0.036-0.037-0.058-0.088-0.094-0.125-0.102-0.097-0.182-0.188-0.281-0.281-0.397-0.397-0.792-0.821-1.156-1.156-0.334-0.331-0.658-0.683-0.969-0.969-0.181-0.19-0.356-0.352-0.531-0.531-0.016-0.018-0.015-0.045-0.031-0.063-0.108-0.103-0.208-0.183-0.313-0.281-0.204-0.215-0.397-0.393-0.594-0.594-0.353-0.341-0.675-0.682-1-0.969-0.038-0.041-0.056-0.084-0.094-0.125-0.317-0.303-0.612-0.616-0.906-0.875-0.036-0.037-0.058-0.088-0.094-0.125-0.102-0.097-0.182-0.188-0.281-0.281-0.397-0.397-0.792-0.821-1.156-1.156-0.34-0.337-0.684-0.678-1-0.969-0.176-0.184-0.33-0.357-0.5-0.531-0.016-0.018-0.015-0.045-0.031-0.063-0.108-0.103-0.208-0.183-0.313-0.281-0.204-0.215-0.397-0.393-0.594-0.594-0.353-0.341-0.675-0.682-1-0.969-0.038-0.041-0.056-0.084-0.094-0.125-0.317-0.303-0.612-0.616-0.906-0.875-0.038-0.041-0.056-0.084-0.094-0.125-0.317-0.303-0.612-0.616-0.906-0.875-0.036-0.037-0.058-0.088-0.094-0.125-0.102-0.097-0.182-0.188-0.281-0.281-0.364-0.364-0.726-0.75-1.063-1.063-0.372-0.371-0.75-0.746-1.094-1.063-0.145-0.144-0.297-0.333-0.438-0.469-0.037-0.037-0.057-0.088-0.094-0.125-0.085-0.081-0.167-0.141-0.25-0.219-0.043-0.046-0.082-0.08-0.125-0.125-0.181-0.168-0.358-0.347-0.531-0.5-0.038-0.041-0.056-0.084-0.094-0.125-0.317-0.303-0.612-0.616-0.906-0.875-0.038-0.041-0.056-0.084-0.094-0.125-0.317-0.303-0.612-0.616-0.906-0.875-0.036-0.037-0.058-0.088-0.094-0.125-0.102-0.097-0.182-0.188-0.281-0.281-0.364-0.364-0.726-0.75-1.063-1.063-0.372-0.371-0.75-0.746-1.094-1.063-0.176-0.184-0.33-0.357-0.5-0.531-0.016-0.018-0.015-0.045-0.031-0.063-0.108-0.103-0.208-0.183-0.313-0.281-0.204-0.215-0.397-0.393-0.594-0.594-0.353-0.341-0.675-0.682-1-0.969-0.038-0.041-0.056-0.084-0.094-0.125-0.317-0.303-0.612-0.616-0.906-0.875-0.036-0.037-0.058-0.088-0.094-0.125-0.102-0.097-0.182-0.188-0.281-0.281-0.397-0.397-0.792-0.821-1.156-1.156-0.334-0.331-0.658-0.683-0.969-0.969-0.181-0.19-0.356-0.352-0.531-0.531-0.016-0.018-0.015-0.045-0.031-0.063-0.108-0.103-0.208-0.183-0.313-0.281-0.204-0.215-0.397-0.393-0.594-0.594-0.353-0.341-0.675-0.682-1-0.969-0.038-0.041-0.056-0.084-0.094-0.125-0.317-0.303-0.612-0.616-0.906-0.875-0.038-0.041-0.056-0.084-0.094-0.125-0.317-0.303-0.612-0.616-0.906-0.875-0.036-0.037-0.058-0.088-0.094-0.125-0.102-0.097-0.182-0.188-0.281-0.281-0.394-0.394-0.794-0.792-1.156-1.125-0.176-0.184-0.33-0.357-0.5-0.531-0.016-0.018-0.015-0.045-0.031-0.063-0.108-0.103-0.208-0.183-0.313-0.281-0.204-0.215-0.397-0.393-0.594-0.594-0.353-0.341-0.675-0.682-1-0.969-0.038-0.041-0.056-0.084-0.094-0.125-0.317-0.303-0.612-0.616-0.906-0.875-0.038-0.041-0.056-0.084-0.094-0.125-0.317-0.303-0.612-0.616-0.906-0.875-0.036-0.037-0.058-0.088-0.094-0.125-0.102-0.097-0.182-0.188-0.281-0.281-0.364-0.364-0.726-0.75-1.063-1.063-0.366-0.365-0.724-0.751-1.063-1.063-0.197-0.207-0.372-0.4-0.563-0.594-0.079-0.076-0.141-0.146-0.219-0.219-0.588-0.591-1.17-1.169-1.688-1.625-0.038-0.041-0.056-0.084-0.094-0.125-0.317-0.303-0.612-0.616-0.906-0.875-0.036-0.037-0.058-0.088-0.094-0.125-0.102-0.097-0.182-0.188-0.281-0.281-0.364-0.364-0.726-0.75-1.063-1.063-0.372-0.371-0.75-0.746-1.094-1.063-0.176-0.184-0.33-0.357-0.5-0.531-0.016-0.018-0.015-0.045-0.031-0.063-0.108-0.103-0.208-0.183-0.313-0.281-0.204-0.215-0.397-0.393-0.594-0.594-0.353-0.341-0.675-0.682-1-0.969-0.038-0.041-0.056-0.084-0.094-0.125-0.317-0.303-0.612-0.616-0.906-0.875-0.036-0.037-0.058-0.088-0.094-0.125-0.102-0.097-0.182-0.188-0.281-0.281-0.397-0.397-0.792-0.821-1.156-1.156-0.334-0.331-0.658-0.683-0.969-0.969-0.181-0.19-0.356-0.352-0.531-0.531-0.016-0.018-0.015-0.045-0.031-0.063-0.108-0.103-0.208-0.183-0.313-0.281-0.204-0.215-0.397-0.393-0.594-0.594-0.353-0.341-0.675-0.682-1-0.969-0.038-0.041-0.056-0.084-0.094-0.125-0.317-0.303-0.612-0.616-0.906-0.875-0.038-0.041-0.056-0.084-0.094-0.125-0.317-0.303-0.612-0.616-0.906-0.875-0.036-0.037-0.058-0.088-0.094-0.125-0.102-0.097-0.182-0.188-0.281-0.281-0.364-0.364-0.726-0.75-1.063-1.063-0.372-0.371-0.75-0.746-1.094-1.063-0.145-0.144-0.297-0.333-0.438-0.469-0.037-0.037-0.057-0.088-0.094-0.125-0.085-0.081-0.167-0.141-0.25-0.219-0.043-0.046-0.082-0.08-0.125-0.125-0.181-0.168-0.358-0.347-0.531-0.5-0.038-0.041-0.056-0.084-0.094-0.125-0.317-0.303-0.612-0.616-0.906-0.875-0.038-0.041-0.056-0.084-0.094-0.125-0.317-0.303-0.612-0.616-0.906-0.875-0.036-0.037-0.058-0.088-0.094-0.125-0.102-0.097-0.182-0.188-0.281-0.281-0.364-0.364-0.726-0.75-1.063-1.063-0.366-0.365-0.724-0.751-1.063-1.063-0.181-0.19-0.356-0.352-0.531-0.531-0.016-0.018-0.015-0.045-0.031-0.063-0.108-0.103-0.208-0.183-0.313-0.281-0.204-0.215-0.397-0.393-0.594-0.594-0.353-0.341-0.675-0.682-1-0.969-0.038-0.041-0.056-0.084-0.094-0.125-0.317-0.303-0.612-0.616-0.906-0.875-0.036-0.037-0.058-0.088-0.094-0.125-0.102-0.097-0.182-0.188-0.281-0.281-0.397-0.397-0.792-0.821-1.156-1.156-0.34-0.337-0.684-0.678-1-0.969-0.176-0.184-0.33-0.357-0.5-0.531-0.016-0.018-0.015-0.045-0.031-0.063-0.108-0.103-0.208-0.183-0.313-0.281-0.204-0.215-0.397-0.393-0.594-0.594-0.353-0.341-0.675-0.682-1-0.969-0.038-0.041-0.056-0.084-0.094-0.125-0.317-0.303-0.612-0.616-0.906-0.875-0.036-0.037-0.058-0.088-0.094-0.125-0.072-0.069-0.147-0.12-0.219-0.188-0.424-0.426-0.831-0.893-1.219-1.25-0.334-0.331-0.658-0.683-0.969-0.969-0.181-0.19-0.356-0.352-0.531-0.531-0.016-0.018-0.015-0.045-0.031-0.063-0.108-0.103-0.208-0.183-0.313-0.281-0.204-0.215-0.397-0.393-0.594-0.594-0.353-0.341-0.675-0.682-1-0.969-0.038-0.041-0.056-0.084-0.094-0.125-0.317-0.303-0.612-0.616-0.906-0.875-0.038-0.041-0.056-0.084-0.094-0.125-0.317-0.303-0.612-0.616-0.906-0.875-0.036-0.037-0.058-0.088-0.094-0.125-0.102-0.097-0.182-0.188-0.281-0.281-0.364-0.364-0.726-0.75-1.063-1.063-0.372-0.371-0.75-0.746-1.094-1.063-0.192-0.201-0.346-0.405-0.531-0.594-0.079-0.076-0.141-0.146-0.219-0.219-0.588-0.591-1.17-1.169-1.688-1.625-0.038-0.041-0.056-0.084-0.094-0.125-0.317-0.303-0.612-0.616-0.906-0.875-0.036-0.037-0.058-0.088-0.094-0.125-0.102-0.097-0.182-0.188-0.281-0.281-0.364-0.364-0.726-0.75-1.063-1.063-0.366-0.365-0.724-0.751-1.063-1.063-0.181-0.19-0.356-0.352-0.531-0.531-0.016-0.018-0.015-0.045-0.031-0.063-0.108-0.103-0.208-0.183-0.313-0.281-0.204-0.215-0.397-0.393-0.594-0.594-0.353-0.341-0.675-0.682-1-0.969-0.038-0.041-0.056-0.084-0.094-0.125-0.317-0.303-0.612-0.616-0.906-0.875-0.036-0.037-0.058-0.088-0.094-0.125-0.102-0.097-0.182-0.188-0.281-0.281-0.397-0.397-0.792-0.821-1.156-1.156-0.34-0.337-0.684-0.678-1-0.969-0.176-0.184-0.33-0.357-0.5-0.531-0.016-0.018-0.015-0.045-0.031-0.063-0.108-0.103-0.208-0.183-0.313-0.281-0.204-0.215-0.397-0.393-0.594-0.594-0.353-0.341-0.675-0.682-1-0.969-0.038-0.041-0.056-0.084-0.094-0.125-0.317-0.303-0.612-0.616-0.906-0.875-0.038-0.041-0.056-0.084-0.094-0.125-0.317-0.303-0.612-0.616-0.906-0.875-0.036-0.037-0.058-0.088-0.094-0.125-0.102-0.097-0.182-0.188-0.281-0.281-0.364-0.364-0.726-0.75-1.063-1.063-0.372-0.371-0.75-0.746-1.094-1.063-0.145-0.144-0.297-0.333-0.438-0.469-0.037-0.037-0.057-0.088-0.094-0.125-0.085-0.081-0.167-0.141-0.25-0.219-0.043-0.046-0.082-0.08-0.125-0.125-0.181-0.168-0.358-0.347-0.531-0.5-0.038-0.041-0.056-0.084-0.094-0.125-0.317-0.303-0.612-0.616-0.906-0.875-0.038-0.041-0.056-0.084-0.094-0.125-0.317-0.303-0.612-0.616-0.906-0.875-0.036-0.037-0.058-0.088-0.094-0.125-0.102-0.097-0.182-0.188-0.281-0.281-0.364-0.364-0.726-0.75-1.063-1.063-0.372-0.371-0.75-0.746-1.094-1.063-0.176-0.184-0.33-0.357-0.5-0.531-0.016-0.018-0.015-0.045-0.031-0.063-0.108-0.103-0.208-0.183-0.313-0.281-0.204-0.215-0.397-0.393-0.594-0.594-0.353-0.341-0.675-0.682-1-0.969-0.038-0.041-0.056-0.084-0.094-0.125-0.317-0.303-0.612-0.616-0.906-0.875-0.036-0.037-0.058-0.088-0.094-0.125-0.102-0.097-0.182-0.188-0.281-0.281-0.397-0.397-0.792-0.821-1.156-1.156-0.186-0.195-0.351-0.379-0.531-0.563-0.079-0.076-0.141-0.146-0.219-0.219-1.614-1.622-3.01-2.787-4.063-3.344-6.195-3.283-36.18-4.04-68.44-3.938"/>
 <g id="g8" fill-rule="evenodd">
  <path id="path10" fill-opacity="0.067" d="m256 1c-140.83 0-255 114.17-255 255s114.17 255 255 255 255-114.17 255-255-114.17-255-255-255m8.827 44.931c120.9 0 218.9 98 218.9 218.9s-98 218.9-218.9 218.9-218.93-98-218.93-218.9 98.03-218.9 218.93-218.9"/>
  <g id="g12" fill-opacity="0.129">
   <path id="path14" d="m256 4.433c-138.94 0-251.57 112.63-251.57 251.57s112.63 251.57 251.57 251.57 251.57-112.63 251.57-251.57-112.63-251.57-251.57-251.57m5.885 38.556c120.9 0 218.9 98 218.9 218.9s-98 218.9-218.9 218.9-218.93-98-218.93-218.9 98.03-218.9 218.93-218.9"/>
   <path id="path16" d="m256 8.356c-136.77 0-247.64 110.87-247.64 247.64s110.87 247.64 247.64 247.64 247.64-110.87 247.64-247.64-110.87-247.64-247.64-247.64m2.942 31.691c120.9 0 218.9 98 218.9 218.9s-98 218.9-218.9 218.9-218.93-98-218.93-218.9 98.03-218.9 218.93-218.9"/>
  </g>
  <path id="path18" d="m253.04 7.859c-135.42 0-245.19 109.78-245.19 245.19 0 135.42 109.78 245.19 245.19 245.19 135.42 0 245.19-109.78 245.19-245.19 0-135.42-109.78-245.19-245.19-245.19zm0 26.297c120.9 0 218.9 98 218.9 218.9s-98 218.9-218.9 218.9-218.93-98-218.93-218.9 98.03-218.9 218.93-218.9z" stroke-opacity="0.31" stroke="#000" stroke-width="4.904" fill="#fff"/>
 </g>
 <path id="path66" fill="#fff" d="m266.42 116.94c-4.608 0.015-9.233 0.061-13.873 0.105-37.12 0.353-72.942 2.606-79.94 6.492-13.996 7.77-80.05 119.74-79.888 135.01 0.119 11.09 36.17 71.28 61.36 106.38-0.286 0.536-0.606 1.088-0.89 1.623h2.042c9.01 12.439 16.534 21.532 20.26 23.506 14.16 7.503 148.55 6.252 162.55-1.518 13.996-7.77 81.41-117.75 81.25-133.02-0.164-15.273-70.28-127.14-84.44-134.65-6.195-3.283-36.16-4.03-68.42-3.926m-12.878 32.14c15.23-0.149 30.1 0.378 41.724 1.309l-39.525 66.28-40.26-65.91c10.132-0.919 23.327-1.531 38.06-1.675m80.46 26.07c19.237 27.477 45.611 72.41 45.703 81.14 0.087 8.337-23.695 51.01-42.4 79.57-3.323-5.716-6.818-11.627-10.68-18.01-11.663-19.484-26.11-40.666-43.29-63.5l50.676-79.21m-158.31 3.403 49 75.18c-14.732 20.951-28.13 40.773-40.21 59.42-4.448 6.988-8.571 13.821-12.617 20.574-19.289-27.29-43.37-66.922-43.45-75.12-0.089-8.48 26.936-51.891 47.27-80.04m77.27 112.92c9.207 12.989 17.282 25.751 24.24 38.32 6.84 11.807 13.07 23.512 18.794 35.13-24.714 1.388-64.07 0.526-86.43-1.885 1.75-3.49 4.01-7.764 6.858-12.826 3.888-6.914 8.01-14.13 12.303-21.673 4.501-7.542 8.896-14.655 13.192-21.359 4.501-6.704 8.181-11.934 11.05-15.705"/>
</svg>
