<?xml version="1.0" encoding="UTF-8" standalone="no"?>
<svg xmlns="http://www.w3.org/2000/svg" xmlns:sodipodi="http://sodipodi.sourceforge.net/DTD/sodipodi-0.dtd" xmlns:inkscape="http://www.inkscape.org/namespaces/inkscape" version="1.1" viewBox="0 0 512 512">
 <metadata id="metadata5994"/>
 <g id="g5554" fill-rule="evenodd">
  <path inkscape:connector-curvature="0" id="path5556" d="m 471.95,253.05 c 0,120.9 -98.01,218.9 -218.9,218.9 -120.9,0 -218.9,-98.01 -218.9,-218.9 0,-120.9 98.01,-218.9 218.9,-218.9 120.9,0 218.9,98.01 218.9,218.9" fill="#BF9E73"/>
  <path inkscape:connector-curvature="0" id="path5558" d="M 256,1 C 115.17,1 1,115.17 1,256 1,396.83 115.17,511 256,511 396.83,511 511,396.83 511,256 511,115.17 396.83,1 256,1 m 8.827,44.931 c 120.9,0 218.9,98 218.9,218.9 0,120.9 -98,218.9 -218.9,218.9 -120.9,0 -218.93,-98 -218.93,-218.9 0,-120.9 98.03,-218.9 218.93,-218.9" fill-opacity="0.067"/>
  <g id="g5560" fill-opacity="0.129">
   <path inkscape:connector-curvature="0" id="path5562" d="m 256,4.433 c -138.94,0 -251.57,112.63 -251.57,251.57 0,138.94 112.63,251.57 251.57,251.57 138.94,0 251.57,-112.63 251.57,-251.57 C 507.57,117.063 394.94,4.433 256,4.433 m 5.885,38.556 c 120.9,0 218.9,98 218.9,218.9 0,120.9 -98,218.9 -218.9,218.9 -120.9,0 -218.93,-98 -218.93,-218.9 0,-120.9 98.03,-218.9 218.93,-218.9"/>
   <path inkscape:connector-curvature="0" id="path5564" d="m 256,8.356 c -136.77,0 -247.64,110.87 -247.64,247.64 0,136.77 110.87,247.64 247.64,247.64 136.77,0 247.64,-110.87 247.64,-247.64 C 503.64,119.226 392.77,8.356 256,8.356 m 2.942,31.691 c 120.9,0 218.9,98 218.9,218.9 0,120.9 -98,218.9 -218.9,218.9 -120.9,0 -218.93,-98 -218.93,-218.9 0,-120.9 98.03,-218.9 218.93,-218.9"/>
  </g>
  <path inkscape:connector-curvature="0" id="path5566" d="m 253.04,7.859 c -135.42,0 -245.19,109.78 -245.19,245.19 0,135.42 109.78,245.19 245.19,245.19 135.42,0 245.19,-109.78 245.19,-245.19 0,-135.42 -109.78,-245.19 -245.19,-245.19 z m 0,26.297 c 120.9,0 218.9,98 218.9,218.9 0,120.9 -98,218.9 -218.9,218.9 -120.9,0 -218.93,-98 -218.93,-218.9 0,-120.9 98.03,-218.9 218.93,-218.9 z" stroke-opacity="0.31" fill="#ffffff" stroke="#000000" stroke-width="4.904"/>
 </g>
 <path inkscape:connector-curvature="0" id="path5986" d="M 252.38,125 C 177,126.565 116.5,177.15 116.5,239.3 c 0,30.31 9.369,56.18 28.471,75.28 l 22.05,22.05 c 3.209,15.349 -14.918,37.861 -14.918,37.861 -1.918,3.375 -1.299,4.892 -0.66,5.531 l 91.7,91.7 c 3.286,0.146 6.588,0.232 9.91,0.232 113.86,0 207.41,-86.93 217.91,-198.05 l -107,-107 c -25.583,-25.583 -64.44,-41.906 -107.96,-41.906 -1.204,0 -2.428,-0.025 -3.625,0" opacity="0.25"/>
 <path inkscape:connector-curvature="0" id="path5988" d="M 252.38,125 C 177,126.565 116.5,177.15 116.5,239.3 c 0,36.27 13.414,66.17 40.862,85.74 0.458,0.432 1.274,1.04 2.675,1.899 20.377,12.403 -7.939,47.55 -7.939,47.55 -2.899,5.101 0,5.955 0,5.955 14.07,3.834 48.02,-18.727 48.02,-18.727 12.442,-9.136 25.905,-12.999 26.02,-13.03 5.07,0.543 10.317,0.907 15.749,1.122 76.986,3.082 153.61,-47.35 153.61,-110.5 0,-63.14 -62.46,-114.3 -139.5,-114.3 -1.204,0 -2.428,-0.025 -3.625,0 m 139.8,163.88 c -1.191,1.853 -2.449,3.666 -3.797,5.437 -23.528,32.86 -60.25,53.859 -99.63,62.35 12.471,5.549 26.758,8.513 41.08,7.939 2.844,-0.115 5.587,-0.32 8.241,-0.604 0,0 7.093,2.057 13.635,6.861 0,0 17.789,11.759 25.16,9.752 0,0 1.518,-0.436 0,-3.107 0,0 -14.854,-18.36 -4.185,-24.854 0.734,-0.45 1.185,-0.766 1.424,-0.992 14.371,-10.244 21.402,-25.931 21.402,-44.918 0,-6.223 -1.166,-12.223 -3.322,-17.864" fill="#ffffff"/>
</svg>
