<?xml version="1.0" encoding="UTF-8" standalone="no"?>
<svg xmlns="http://www.w3.org/2000/svg" height="512" viewBox="0 0 512 512" width="512" version="1.1">
 <metadata id="metadata83"/>
 <defs id="defs4">
  <radialGradient id="0" gradientUnits="userSpaceOnUse" cy="525.42" cx="292.69" gradientTransform="matrix(.5871 .00351 -.00447 .74847 86.51 402.07)" r="184.85">
   <stop id="stop7" stop-color="#fff"/>
   <stop id="stop9" stop-color="#f7f7f7" offset="1"/>
  </radialGradient>
 </defs>
 <g id="g11" transform="translate(0,-540.36)">
  <g id="g13" fill-rule="evenodd">
   <path id="path15" fill="#BF9E73" d="m471.95 793.41c0 120.9-98.01 218.9-218.9 218.9-120.9 0-218.9-98.01-218.9-218.9 0-120.9 98.01-218.9 218.9-218.9 120.9 0 218.9 98.01 218.9 218.9"/>
   <path id="path17" fill-opacity="0.067" d="m256 541.36c-140.83 0-255 114.17-255 255s114.17 255 255 255 255-114.17 255-255-114.17-255-255-255m8.827 44.931c120.9 0 218.9 98 218.9 218.9s-98 218.9-218.9 218.9-218.93-98-218.93-218.9 98.03-218.9 218.93-218.9"/>
   <g id="g19" fill-opacity="0.129">
    <path id="path21" d="m256 544.79c-138.94 0-251.57 112.63-251.57 251.57s112.63 251.54 251.57 251.54 251.57-112.6 251.57-251.54-112.63-251.57-251.57-251.57m5.885 38.556c120.9 0 218.9 98 218.9 218.9s-98 218.9-218.9 218.9-218.93-98-218.93-218.9 98.03-218.9 218.93-218.9"/>
    <path id="path23" d="m256 548.72c-136.77 0-247.64 110.87-247.64 247.64s110.87 247.64 247.64 247.64 247.64-110.87 247.64-247.64-110.87-247.64-247.64-247.64m2.942 31.691c120.9 0 218.9 98 218.9 218.9s-98 218.9-218.9 218.9-218.93-98-218.93-218.9 98.03-218.9 218.93-218.9"/>
   </g>
   <path id="path25" d="m253.04 548.22c-135.42 0-245.19 109.78-245.19 245.19 0 135.42 109.78 245.19 245.19 245.19 135.42 0 245.19-109.78 245.19-245.19 0-135.42-109.78-245.19-245.19-245.19zm0 26.297c120.9 0 218.9 98 218.9 218.9s-98 218.9-218.9 218.9-218.93-98-218.93-218.9 98.03-218.9 218.93-218.9z" stroke-opacity="0.31" stroke="#000" stroke-width="4.904" fill="#fff"/>
  </g>
  <g id="g73" fill-opacity="0.235">
   <rect id="rect75" rx="12.389" transform="rotate(45)" height="267.94" width="267.94" y="248.12" x="610.16" fill="#fff"/>
   <path id="path77" d="m212.94 119.34-1.5 0.125-62.31 4.906-1.281 0.094v265.46c0.015-0.003 0.538-0.084 1-0.156v1.156c0.015-0.003 0.538-0.084 1-0.156v1.156c0.015-0.003 0.538-0.084 1-0.156v1.156c0.015-0.002 0.512-0.085 0.969-0.156v1.125c0.015-0.003 0.538-0.084 1-0.156v1.156c0.015-0.003 0.538-0.084 1-0.156v1.156c0.015-0.003 0.537-0.084 1-0.156v1.156c0.015-0.003 0.537-0.084 1-0.156v1.156c0.015-0.003 0.537-0.084 1-0.156v1.156c0.014-0.002 0.511-0.085 0.969-0.156v1.125c0.015-0.003 0.537-0.084 1-0.156v1.156c0.015-0.003 0.537-0.084 1-0.156v1.156c0.014-0.003 0.537-0.084 1-0.156v1.156c0.014-0.003 0.537-0.084 1-0.156v1.156c0.014-0.003 0.537-0.084 1-0.156v1.156c0.014-0.002 0.511-0.085 0.969-0.156v1.125c0.014-0.003 0.537-0.084 1-0.156v1.156c0.014-0.003 0.537-0.084 1-0.156v1.156c0.014-0.002 0.537-0.084 1-0.156v1.156c0.014-0.002 0.537-0.084 1-0.156v1.156c0.014-0.002 0.537-0.084 1-0.156v1.156c0.013-0.002 0.511-0.084 0.969-0.156v1.125h0.031c0.014-0.002 0.508-0.084 0.969-0.156v1.156c0.014-0.002 0.537-0.084 1-0.156v1.156c0.014-0.002 0.537-0.084 1-0.156v1.156c0.013-0.002 0.537-0.084 1-0.156v1.156c0.013-0.002 0.537-0.084 1-0.156v1.156c0.013-0.002 0.537-0.084 1-0.156v1.156c0.013-0.002 0.511-0.084 0.969-0.156v1.125c0.013-0.002 0.537-0.084 1-0.156v1.156c0.013-0.002 0.537-0.084 1-0.156v1.156c0.013-0.002 0.537-0.084 1-0.156v1.156c0.013-0.002 0.537-0.084 1-0.156v1.156c0.013-0.002 0.537-0.084 1-0.156v1.156c0.012-0.002 0.511-0.084 0.969-0.156v1.125c0.013-0.002 0.537-0.084 1-0.156v1.156c0.013-0.002 0.537-0.084 1-0.156v1.156c0.013-0.002 0.537-0.084 1-0.156v1.156c0.012-0.002 0.537-0.084 1-0.156v1.156c0.012-0.002 0.537-0.084 1-0.156v1.156c0.012-0.002 0.511-0.084 0.969-0.156v1.125c0.012-0.002 0.537-0.084 1-0.156v1.156c0.012-0.002 0.537-0.084 1-0.156v1.156c0.012-0.002 0.537-0.084 1-0.156v1.156l1-0.156v1.156c0.012-0.002 0.536-0.084 1-0.156v1.156c0.012-0.002 0.536-0.084 1-0.156v1.156c0.011-0.002 0.511-0.084 0.969-0.156v1.125c0.012-0.002 0.536-0.084 1-0.156v1.156c0.012-0.002 0.536-0.084 1-0.156v1.156c0.012-0.002 0.536-0.084 1-0.156v1.156c0.011-0.002 0.536-0.084 1-0.156v1.156c0.011-0.002 0.536-0.084 1-0.156v1.156c0.011-0.002 0.51-0.084 0.969-0.156v1.125c0.011-0.002 0.536-0.084 1-0.156v1.156c0.011-0.002 0.536-0.084 1-0.156v1.156c0.011-0.002 0.536-0.084 1-0.156v1.156c0.011-0.002 0.536-0.084 1-0.156v1.156c0.011-0.002 0.536-0.084 1-0.156v1.156c0.011-0.002 0.51-0.084 0.969-0.156v1.125c0.011-0.002 0.536-0.084 1-0.156v1.156c0.011-0.002 0.536-0.084 1-0.156v1.156c0.011-0.002 0.536-0.084 1-0.156v1.156c0.011-0.002 0.536-0.084 1-0.156v1.156c0.01-0.002 0.536-0.084 1-0.156v1.156c0.01-0.002 0.51-0.084 0.969-0.156v1.125c0.01-0.002 0.536-0.084 1-0.156v1.156c0.01-0.002 0.536-0.084 1-0.156v1.156c0.01-0.002 0.536-0.084 1-0.156v1.156c0.01-0.002 0.536-0.084 1-0.156v1.156c0.01-0.002 0.536-0.084 1-0.156v1.156c0.01 0 0.536-0.083 1-0.156v1.156c0.01 0 0.51-0.084 0.969-0.156v1.125c0.01 0 0.536-0.083 1-0.156v1.156c0.01 0 0.536-0.083 1-0.156v1.156c0.01 0 0.536-0.083 1-0.156v1.156c0.01 0 0.536-0.083 1-0.156v1.156c0.009 0 0.536-0.083 1-0.156v1.156c0.009 0 0.51-0.084 0.969-0.156v1.125c0.009 0 0.536-0.083 1-0.156v1.156c0.009 0 0.536-0.083 1-0.156v1.156c0.009 0 0.536-0.083 1-0.156v0.313c7.753 0.831 15.62 1.281 23.594 1.281 120.9 0 218.91-98.01 218.91-218.91 0-2.791-0.053-5.578-0.156-8.344-0.253-0.058-0.345-0.071-0.594-0.125 0.234-0.305 0.5-0.656 0.5-0.656-0.012-0.003-0.869-0.207-1.5-0.344l0.5-0.656c-0.012-0.003-0.869-0.207-1.5-0.344 0.234-0.305 0.5-0.656 0.5-0.656-0.012-0.003-0.869-0.207-1.5-0.344 0.234-0.305 0.5-0.656 0.5-0.656-0.012-0.003-0.835-0.175-1.469-0.313l0.5-0.656c-0.012-0.003-0.869-0.207-1.5-0.344 0.234-0.305 0.5-0.656 0.5-0.656-0.012-0.003-0.869-0.207-1.5-0.344 0.234-0.305 0.5-0.656 0.5-0.656-0.012-0.003-0.869-0.207-1.5-0.344l0.5-0.656c-0.012-0.003-0.869-0.207-1.5-0.344l0.5-0.656c-0.011-0.003-0.869-0.207-1.5-0.344 0.234-0.305 0.5-0.656 0.5-0.656-0.011-0.003-0.834-0.175-1.469-0.313 0.234-0.305 0.5-0.656 0.5-0.656-0.011-0.002-0.869-0.206-1.5-0.344 0.234-0.305 0.5-0.656 0.5-0.656-0.011-0.002-0.869-0.206-1.5-0.344 0.234-0.305 0.5-0.656 0.5-0.656-0.011-0.002-0.869-0.206-1.5-0.344 0.234-0.305 0.5-0.656 0.5-0.656-0.011-0.002-0.869-0.206-1.5-0.344 0.234-0.305 0.5-0.656 0.5-0.656-0.011-0.002-0.869-0.206-1.5-0.344 0.234-0.305 0.5-0.656 0.5-0.656-0.01-0.002-0.834-0.174-1.469-0.313 0.234-0.305 0.5-0.656 0.5-0.656-0.01-0.002-0.869-0.206-1.5-0.344 0.234-0.305 0.5-0.656 0.5-0.656-0.01-0.002-0.869-0.206-1.5-0.344 0.234-0.305 0.5-0.656 0.5-0.656-0.01-0.002-0.869-0.206-1.5-0.344 0.234-0.305 0.5-0.656 0.5-0.656-0.01-0.002-0.869-0.206-1.5-0.344 0.234-0.305 0.5-0.656 0.5-0.656-0.01-0.002-0.869-0.206-1.5-0.344 0.234-0.305 0.5-0.656 0.5-0.656-0.01-0.002-0.869-0.206-1.5-0.344 0.234-0.305 0.5-0.656 0.5-0.656-0.01-0.002-0.834-0.174-1.469-0.313 0.234-0.305 0.5-0.656 0.5-0.656-0.01-0.002-0.869-0.206-1.5-0.344 0.234-0.305 0.5-0.656 0.5-0.656-0.01-0.002-0.868-0.206-1.5-0.344 0.234-0.305 0.5-0.656 0.5-0.656-0.009-0.002-0.868-0.206-1.5-0.344 0.234-0.305 0.5-0.656 0.5-0.656-0.009-0.002-0.868-0.206-1.5-0.344 0.234-0.305 0.5-0.656 0.5-0.656-0.009-0.002-0.868-0.206-1.5-0.344 0.234-0.305 0.5-0.656 0.5-0.656-0.009-0.002-0.834-0.174-1.469-0.313 0.234-0.305 0.5-0.656 0.5-0.656-0.009-0.002-0.868-0.206-1.5-0.344 0.234-0.305 0.5-0.656 0.5-0.656-0.009-0.002-0.868-0.206-1.5-0.344 0.234-0.305 0.5-0.656 0.5-0.656-0.009-0.002-0.868-0.206-1.5-0.344 0.234-0.305 0.5-0.656 0.5-0.656-0.009-0.002-0.868-0.206-1.5-0.344 0.234-0.305 0.5-0.656 0.5-0.656-0.009-0.002-0.868-0.206-1.5-0.344 0.234-0.305 0.5-0.656 0.5-0.656-0.008-0.002-0.833-0.174-1.469-0.313 0.234-0.305 0.5-0.656 0.5-0.656-0.008-0.002-0.868-0.206-1.5-0.344 0.234-0.305 0.5-0.656 0.5-0.656-0.008-0.002-0.868-0.206-1.5-0.344 0.234-0.305 0.5-0.656 0.5-0.656-0.008-0.002-0.868-0.206-1.5-0.344 0.234-0.305 0.5-0.656 0.5-0.656-0.008-0.001-0.868-0.206-1.5-0.344 0.234-0.305 0.5-0.656 0.5-0.656-0.008-0.001-0.868-0.206-1.5-0.344 0.234-0.305 0.5-0.656 0.5-0.656-0.008-0.001-0.868-0.206-1.5-0.344 0.234-0.305 0.5-0.656 0.5-0.656-0.007-0.001-0.833-0.174-1.469-0.313 0.234-0.305 0.5-0.656 0.5-0.656-0.007-0.001-0.868-0.206-1.5-0.344 0.234-0.305 0.5-0.656 0.5-0.656-0.007-0.001-0.868-0.206-1.5-0.344 0.235-0.305 0.5-0.656 0.5-0.656-0.007-0.001-0.868-0.206-1.5-0.344 0.235-0.305 0.5-0.656 0.5-0.656-0.007-0.001-0.868-0.206-1.5-0.344 0.235-0.305 0.5-0.656 0.5-0.656-0.007-0.001-0.868-0.206-1.5-0.344 0.235-0.305 0.5-0.656 0.5-0.656-0.007-0.001-0.833-0.174-1.469-0.313 0.235-0.305 0.5-0.656 0.5-0.656-0.007-0.001-0.868-0.206-1.5-0.344 0.235-0.305 0.5-0.656 0.5-0.656-0.007-0.001-0.868-0.206-1.5-0.344 0.235-0.305 0.5-0.656 0.5-0.656-0.006-0.001-0.867-0.206-1.5-0.344 0.235-0.305 0.5-0.656 0.5-0.656-0.006-0.001-0.867-0.206-1.5-0.344 0.235-0.305 0.5-0.656 0.5-0.656-0.006-0.001-0.867-0.206-1.5-0.344 0.235-0.305 0.5-0.656 0.5-0.656-0.006-0.001-0.833-0.174-1.469-0.313 0.235-0.305 0.5-0.656 0.5-0.656-0.006-0.001-0.867-0.206-1.5-0.344 0.235-0.305 0.5-0.656 0.5-0.656-0.006-0.001-0.867-0.206-1.5-0.344 0.235-0.305 0.5-0.656 0.5-0.656-0.006-0.001-0.867-0.206-1.5-0.344 0.235-0.305 0.5-0.656 0.5-0.656-0.006-0.001-0.867-0.206-1.5-0.344 0.235-0.305 0.5-0.656 0.5-0.656-0.006-0.001-0.867-0.206-1.5-0.344 0.235-0.306 0.5-0.656 0.5-0.656-0.005-0.001-0.833-0.174-1.469-0.313 0.235-0.306 0.5-0.656 0.5-0.656-0.006-0.001-0.867-0.206-1.5-0.344 0.235-0.306 0.5-0.656 0.5-0.656-0.006-0.001-0.867-0.206-1.5-0.344 0.235-0.306 0.5-0.656 0.5-0.656-0.005-0.001-0.867-0.206-1.5-0.344 0.235-0.306 0.5-0.656 0.5-0.656-0.005-0.001-0.867-0.206-1.5-0.344 0.235-0.306 0.5-0.656 0.5-0.656-0.005-0.001-0.867-0.206-1.5-0.344 0.235-0.306 0.5-0.656 0.5-0.656-0.005-0.001-0.867-0.206-1.5-0.344 0.235-0.306 0.5-0.656 0.5-0.656-0.005-0.001-0.832-0.174-1.469-0.313 0.235-0.306 0.5-0.656 0.5-0.656-0.005-0.001-0.867-0.206-1.5-0.344 0.235-0.306 0.5-0.656 0.5-0.656-0.004-0.001-0.867-0.206-1.5-0.344 0.235-0.306 0.5-0.656 0.5-0.656-0.004-0.001-0.867-0.206-1.5-0.344 0.235-0.306 0.5-0.656 0.5-0.656-0.004-0.001-0.867-0.206-1.5-0.344 0.235-0.306 0.5-0.656 0.5-0.656-0.004-0.001-0.867-0.206-1.5-0.344 0.235-0.306 0.5-0.656 0.5-0.656-0.004-0.001-0.832-0.174-1.469-0.313 0.235-0.306 0.5-0.656 0.5-0.656-0.004-0.001-0.867-0.206-1.5-0.344 0.235-0.306 0.5-0.656 0.5-0.656-0.003-0.001-0.866-0.206-1.5-0.344 0.235-0.306 0.5-0.656 0.5-0.656-0.003-0.001-0.866-0.206-1.5-0.344 0.235-0.306 0.5-0.656 0.5-0.656-0.003-0.001-0.866-0.206-1.5-0.344 0.235-0.306 0.5-0.656 0.5-0.656-0.003-0.001-0.866-0.206-1.5-0.344 0.235-0.306 0.5-0.656 0.5-0.656-0.003-0.001-0.832-0.174-1.469-0.313 0.235-0.306 0.5-0.656 0.5-0.656-0.003-0.001-0.866-0.206-1.5-0.344 0.235-0.306 0.5-0.656 0.5-0.656-0.003-0.001-0.866-0.206-1.5-0.344 0.235-0.306 0.5-0.656 0.5-0.656-0.003-0.001-0.866-0.206-1.5-0.344 0.235-0.306 0.5-0.656 0.5-0.656-0.003-0.001-0.866-0.206-1.5-0.344 0.235-0.306 0.5-0.656 0.5-0.656l-1.5-0.344c0.235-0.306 0.5-0.656 0.5-0.656-0.003-0.001-0.866-0.206-1.5-0.344 0.235-0.306 0.5-0.656 0.5-0.656-0.003-0.001-0.832-0.174-1.469-0.313 0.235-0.306 0.5-0.656 0.5-0.656-0.002-0.001-0.866-0.206-1.5-0.344 0.235-0.306 0.5-0.656 0.5-0.656-0.002 0-0.866-0.206-1.5-0.344 0.235-0.306 0.5-0.656 0.5-0.656-0.002 0-0.866-0.206-1.5-0.344 0.235-0.306 0.5-0.656 0.5-0.656l-1.5-0.344c0.235-0.306 0.5-0.656 0.5-0.656-0.002 0-0.866-0.206-1.5-0.344 0.235-0.306 0.5-0.656 0.5-0.656-0.002 0-0.831-0.174-1.469-0.313 0.235-0.306 0.5-0.656 0.5-0.656-0.001 0-0.866-0.206-1.5-0.344 0.235-0.306 0.5-0.656 0.5-0.656-0.001 0-0.866-0.206-1.5-0.344 0.235-0.306 0.5-0.656 0.5-0.656-0.001 0-0.866-0.206-1.5-0.344 0.235-0.306 0.5-0.656 0.5-0.656l-1.5-0.344c0.235-0.306 0.5-0.656 0.5-0.656-0.001 0-0.866-0.206-1.5-0.344 0.235-0.306 0.5-0.656 0.5-0.656-0.001 0-0.831-0.174-1.469-0.313 0.235-0.306 0.5-0.656 0.5-0.656-0.001 0-0.866-0.206-1.5-0.344 0.235-0.306 0.5-0.656 0.5-0.656-0.001 0-0.866-0.206-1.5-0.344l0.5-0.656c-0.001 0-0.866-0.206-1.5-0.344l0.5-0.656-1.5-0.344 0.5-0.656-1.5-0.344c0.235-0.306 0.5-0.656 0.5-0.656l-1.469-0.313 0.5-0.656-1.5-0.344 0.5-0.656-1.5-0.344 0.5-0.656-1.5-0.344 0.5-0.656-2.156-0.469-67.22-14.688-0.844-0.188-0.531 0.688-34.19 44.31-0.563 0.063v-1.063l-1 0.094v-1.094l-1 0.094v-1.094l-1 0.094v-1.094l-1 0.094v-1.094l-1 0.094v-1.094l-1 0.094v-1.094l-0.969 0.094v-1.063l-1 0.094v-1.094l-1 0.094v-1.094l-1 0.094v-1.094l-1 0.094v-1.094l-1 0.094v-1.094l-0.969 0.094v-1.063l-1 0.094v-1.094l-1 0.094v-1.094l-1 0.094v-1.094l-1 0.094v-1.094l-1 0.094v-1.094l-0.969 0.094v-1.063l-1 0.094v-1.094l-1 0.094v-1.094l-1 0.094v-1.094l-1 0.094v-1.094l-1 0.094v-1.094l-1 0.094v-1.094l-0.969 0.094v-1.063l-1 0.094v-1.094l-1 0.094v-1.094l-1 0.094v-1.094l-1 0.094v-1.094l-1 0.094v-1.094l-0.969 0.094v-1.063l-1 0.094v-1.094l-1 0.094v-1.094l-1 0.094v-1.094l-1 0.094v-1.094l-1 0.094v-1.094l-0.969 0.094v-1.063l-1 0.094v-1.094l-1 0.094v-1.094l-1 0.094v-1.094l-1 0.094v-1.094l-1 0.094v-1.094l-0.969 0.094v-1.063l-1 0.094v-1.094l-1 0.094v-1.094l-1 0.094v-1.094" transform="translate(0,540.36)"/>
  </g>
  <path id="path79" stroke="#fff" stroke-width="2.773" fill="url(#0)" d="m149.22 666.13 62.32-4.901v111.33l84.02-108.53 67.22 14.704-86.82 112.03 86.82 118.33-65.816 22.405-85.42-123.23v111.33l-62.32 9.102z"/>
 </g>
</svg>
