<?xml version="1.0" encoding="UTF-8" standalone="no"?>
<svg xmlns="http://www.w3.org/2000/svg" xmlns:sodipodi="http://sodipodi.sourceforge.net/DTD/sodipodi-0.dtd" xmlns:inkscape="http://www.inkscape.org/namespaces/inkscape" version="1.1" viewBox="0 0 512 512">
 <metadata id="metadata6092"/>
 <g id="g6022" fill-rule="evenodd">
  <path inkscape:connector-curvature="0" id="path6024" d="m 471.95,253.05 c 0,120.9 -98.01,218.91 -218.91,218.91 -120.9,0 -218.91,-98.01 -218.91,-218.91 0,-120.9 98.01,-218.91 218.91,-218.91 120.9,0 218.91,98.01 218.91,218.91" fill="#BF9E73"/>
  <path inkscape:connector-curvature="0" id="path6026" d="M 256,1 C 115.17,1 1,115.17 1,256 1,396.83 115.17,511 256,511 396.83,511 511,396.83 511,256 511,115.17 396.83,1 256,1 m 8.827,44.931 c 120.9,0 218.9,98 218.9,218.9 0,120.9 -98,218.9 -218.9,218.9 -120.9,0 -218.93,-98 -218.93,-218.9 0,-120.9 98.03,-218.9 218.93,-218.9" fill-opacity="0.067"/>
  <g id="g6028" fill-opacity="0.129">
   <path inkscape:connector-curvature="0" id="path6030" d="M 256,4.43 C 117.06,4.43 4.43,117.06 4.43,256 4.43,394.94 117.06,507.57 256,507.57 394.94,507.57 507.57,394.94 507.57,256 507.57,117.06 394.94,4.43 256,4.43 m 5.885,38.556 c 120.9,0 218.9,98 218.9,218.9 0,120.9 -98,218.9 -218.9,218.9 -120.9,0 -218.93,-98 -218.93,-218.9 0,-120.9 98.03,-218.9 218.93,-218.9"/>
   <path inkscape:connector-curvature="0" id="path6032" d="M 256,8.36 C 119.23,8.36 8.36,119.23 8.36,256 8.36,392.77 119.23,503.64 256,503.64 392.77,503.64 503.64,392.77 503.64,256 503.64,119.23 392.77,8.36 256,8.36 m 2.942,31.691 c 120.9,0 218.9,98 218.9,218.9 0,120.9 -98,218.9 -218.9,218.9 -120.9,0 -218.93,-98 -218.93,-218.9 0,-120.9 98.03,-218.9 218.93,-218.9"/>
  </g>
  <path inkscape:connector-curvature="0" id="path6034" d="M 253.04,7.86 C 117.62,7.86 7.85,117.64 7.85,253.05 c 0,135.42 109.78,245.19 245.19,245.19 135.42,0 245.19,-109.78 245.19,-245.19 C 498.23,117.63 388.45,7.86 253.04,7.86 m 0,26.297 c 120.9,0 218.9,98 218.9,218.9 0,120.9 -98,218.9 -218.9,218.9 -120.9,0 -218.93,-98 -218.93,-218.9 0,-120.9 98.03,-218.9 218.93,-218.9 z" stroke-opacity="0.31" fill="#ffffff" stroke="#000000" stroke-width="4.904"/>
 </g>
 <g id="g6082" fill-rule="evenodd">
  <path inkscape:connector-curvature="0" id="path6084" d="m 343.19,105.34 0,41.656 -41.688,0 0,41.563 41.688,41.688 0,0.031 110.47,110.47 c 11.755,-26.852 18.291,-56.51 18.291,-87.7 0,-25.635 -4.421,-50.23 -12.518,-73.09 l -32.959,-32.959 -0.063,0 -41.656,-41.656 -41.563,0 m -208,31.563 0,259.1 c 0,1.406 0.097,2.805 0.188,4.188 l 65.5,65.5 c 16.718,4.087 34.18,6.27 52.16,6.27 79.71,0 149.46,-42.61 187.74,-106.29 L 313.53,238.424 c -8.449,-8.449 -19.306,-14.487 -31.473,-17.05 l -84.46,-84.46 -62.41,0" opacity="0.25"/>
  <path inkscape:connector-curvature="0" id="path6086" d="m 343.19,105.34 0,41.656 -41.688,0 0,41.563 41.688,0 0,41.719 41.563,0 0,-41.719 41.719,0 0,-41.563 -41.719,0 0,-41.656 -41.563,0 m -208,31.563 0,259.1 c 0,1.406 0.097,2.805 0.188,4.188 l 61.719,0 0,-24.344 0.5,0 0,-84.22 c 1.914,-7.736 8.937,-13.406 17.281,-13.406 l 37.34,0 c 9.817,0 17.782,7.871 17.781,17.688 l 0,104.28 61.719,0 c 0.09,-1.382 0.188,-2.782 0.188,-4.188 l 0,-113.09 c 0,-34.878 -28.12,-62.906 -63,-62.906 l -70.72,0 c -0.201,0 -0.393,0.003 -0.594,0 l 0,-83.09 -62.41,0" fill="#ffffff"/>
 </g>
</svg>
