<?xml version="1.0" encoding="UTF-8" standalone="no"?>
<svg xmlns="http://www.w3.org/2000/svg" xmlns:sodipodi="http://sodipodi.sourceforge.net/DTD/sodipodi-0.dtd" xmlns:inkscape="http://www.inkscape.org/namespaces/inkscape" version="1.1" viewBox="0 0 512 512">
 <metadata id="metadata6140"/>
 <g id="g6070" fill-rule="evenodd">
  <path inkscape:connector-curvature="0" id="path6072" d="m 471.95,253.05 c 0,120.9 -98.01,218.91 -218.91,218.91 -120.9,0 -218.91,-98.01 -218.91,-218.91 0,-120.9 98.01,-218.91 218.91,-218.91 120.9,0 218.91,98.01 218.91,218.91" fill="#BF9E73"/>
  <path inkscape:connector-curvature="0" id="path6074" d="M 256,1 C 115.17,1 1,115.17 1,256 1,396.83 115.17,511 256,511 396.83,511 511,396.83 511,256 511,115.17 396.83,1 256,1 m 8.827,44.931 c 120.9,0 218.9,98 218.9,218.9 0,120.9 -98,218.9 -218.9,218.9 -120.9,0 -218.93,-98 -218.93,-218.9 0,-120.9 98.03,-218.9 218.93,-218.9" fill-opacity="0.067"/>
  <g id="g6076" fill-opacity="0.129">
   <path inkscape:connector-curvature="0" id="path6078" d="M 256,4.43 C 117.06,4.43 4.43,117.06 4.43,256 4.43,394.94 117.06,507.57 256,507.57 394.94,507.57 507.57,394.94 507.57,256 507.57,117.06 394.94,4.43 256,4.43 m 5.885,38.556 c 120.9,0 218.9,98 218.9,218.9 0,120.9 -98,218.9 -218.9,218.9 -120.9,0 -218.93,-98 -218.93,-218.9 0,-120.9 98.03,-218.9 218.93,-218.9"/>
   <path inkscape:connector-curvature="0" id="path6080" d="M 256,8.36 C 119.23,8.36 8.36,119.23 8.36,256 8.36,392.77 119.23,503.64 256,503.64 392.77,503.64 503.64,392.77 503.64,256 503.64,119.23 392.77,8.36 256,8.36 m 2.942,31.691 c 120.9,0 218.9,98 218.9,218.9 0,120.9 -98,218.9 -218.9,218.9 -120.9,0 -218.93,-98 -218.93,-218.9 0,-120.9 98.03,-218.9 218.93,-218.9"/>
  </g>
  <path inkscape:connector-curvature="0" id="path6082" d="M 253.04,7.86 C 117.62,7.86 7.85,117.64 7.85,253.05 c 0,135.42 109.78,245.19 245.19,245.19 135.42,0 245.19,-109.78 245.19,-245.19 C 498.23,117.63 388.45,7.86 253.04,7.86 m 0,26.297 c 120.9,0 218.9,98 218.9,218.9 0,120.9 -98,218.9 -218.9,218.9 -120.9,0 -218.93,-98 -218.93,-218.9 0,-120.9 98.03,-218.9 218.93,-218.9 z" stroke-opacity="0.31" fill="#ffffff" stroke="#000000" stroke-width="4.904"/>
 </g>
 <g id="g6130" fill-rule="evenodd">
  <path inkscape:connector-curvature="0" id="path6132" d="m 154.72,120.43 0,266.82 c 0,1.448 0.083,2.889 0.176,4.313 l 79.6,79.6 c 6.113,0.513 12.294,0.789 18.539,0.789 89.84,0 167.02,-54.13 200.76,-131.54 l -115.45,-115.45 c -8.695,-8.695 -19.868,-14.912 -32.387,-17.553 l -86.982,-86.982 -64.26,0" opacity="0.25"/>
  <path inkscape:connector-curvature="0" id="path6134" d="m 154.72,120.43 0,266.82 c 0,1.448 0.083,2.89 0.176,4.313 l 63.56,0 0,-25.09 0.528,0 0,-86.71 c 1.971,-7.967 9.189,-13.821 17.782,-13.821 l 38.469,0 c 10.11,0 18.311,8.113 18.31,18.222 l 0,107.4 63.56,0 c 0.092,-1.423 0.176,-2.866 0.176,-4.313 l 0,-116.46 c 0,-35.917 -28.961,-64.79 -64.878,-64.79 l -72.801,0 c -0.207,0 -0.41,0.003 -0.616,0 l 0,-85.57 -64.26,0" fill="#ffffff"/>
 </g>
</svg>
