<?xml version="1.0" encoding="UTF-8" standalone="no"?>
<svg
   xmlns:dc="http://purl.org/dc/elements/1.1/"
   xmlns:cc="http://creativecommons.org/ns#"
   xmlns:rdf="http://www.w3.org/1999/02/22-rdf-syntax-ns#"
   xmlns:svg="http://www.w3.org/2000/svg"
   xmlns="http://www.w3.org/2000/svg"
   xmlns:sodipodi="http://sodipodi.sourceforge.net/DTD/sodipodi-0.dtd"
   xmlns:inkscape="http://www.inkscape.org/namespaces/inkscape"
   height="512"
   viewBox="0 0 512 512"
   width="512"
   version="1.1"
   id="svg2"
   inkscape:version="0.91 r13725"
   sodipodi:docname="ibus-bopomofo.svg">
  <defs
     id="defs17" />
  <sodipodi:namedview
     pagecolor="#ffffff"
     bordercolor="#666666"
     borderopacity="1"
     objecttolerance="10"
     gridtolerance="10"
     guidetolerance="10"
     inkscape:pageopacity="0"
     inkscape:pageshadow="2"
     inkscape:window-width="1920"
     inkscape:window-height="1022"
     id="namedview15"
     showgrid="false"
     inkscape:zoom="0.67378817"
     inkscape:cx="-171.35832"
     inkscape:cy="939.8006"
     inkscape:window-x="0"
     inkscape:window-y="0"
     inkscape:window-maximized="1"
     inkscape:current-layer="svg2" />
  <metadata
     id="metadata28">
    <rdf:RDF>
      <cc:Work
         rdf:about="">
        <dc:format>image/svg+xml</dc:format>
        <dc:type
           rdf:resource="http://purl.org/dc/dcmitype/StillImage" />
        <dc:title></dc:title>
      </cc:Work>
    </rdf:RDF>
  </metadata>
  <path
     style="fill:#BF9E73;fill-rule:evenodd;fill-opacity:1"
     inkscape:connector-curvature="0"
     d="m 471.95,253.05 c 0,120.9 -98.01,218.9 -218.9,218.9 -120.9,0 -218.9,-98.01 -218.9,-218.9 0,-120.9 98.01,-218.9 218.9,-218.9 120.9,0 218.9,98.01 218.9,218.9"
     id="path6" />
  <path
     style="fill-opacity:0.06700003;fill-rule:evenodd"
     inkscape:connector-curvature="0"
     d="M 256,1 C 115.17,1 1,115.17 1,256 1,396.83 115.17,511 256,511 396.83,511 511,396.83 511,256 511,115.17 396.83,1 256,1 m 8.827,44.931 c 120.9,0 218.9,98 218.9,218.9 0,120.9 -98,218.9 -218.9,218.9 -120.9,0 -218.93,-98 -218.93,-218.9 0,-120.9 98.03,-218.9 218.93,-218.9"
     id="path8" />
  <g
     style="fill-opacity:0.12900002;fill-rule:evenodd"
     id="g10">
    <path
       inkscape:connector-curvature="0"
       d="m 256,4.433 c -138.94,0 -251.57,112.63 -251.57,251.57 0,138.94 112.63,251.57 251.57,251.57 138.94,0 251.57,-112.63 251.57,-251.57 C 507.57,117.063 394.94,4.433 256,4.433 m 5.885,38.556 c 120.9,0 218.9,98 218.9,218.9 0,120.9 -98,218.9 -218.9,218.9 -120.9,0 -218.93,-98 -218.93,-218.9 0,-120.9 98.03,-218.9 218.93,-218.9"
       id="path12" />
    <path
       inkscape:connector-curvature="0"
       d="m 256,8.356 c -136.77,0 -247.64,110.87 -247.64,247.64 0,136.77 110.87,247.64 247.64,247.64 136.77,0 247.64,-110.87 247.64,-247.64 C 503.64,119.226 392.77,8.356 256,8.356 m 2.942,31.691 c 120.9,0 218.9,98 218.9,218.9 0,120.9 -98,218.9 -218.9,218.9 -120.9,0 -218.93,-98 -218.93,-218.9 0,-120.9 98.03,-218.9 218.93,-218.9"
       id="path14" />
  </g>
  <path
     inkscape:connector-curvature="0"
     style="opacity:0.25"
     id="path4190"
     d="m 461.92047,186.33512 -272.8553,-91.784162 -39.67172,116.984622 79.93522,25.89916 c -31.30803,62.2819 -20.10438,111.00341 -80.62865,153.05753 L 341.23161,455.5 c 107.29235,-14.34865 136.84122,-99.88538 136.53991,-213.68567 -0.0405,-15.3013 -4.1643,-3.08303 -6.9378,-17.58252"
     sodipodi:nodetypes="ccccccsc" />
  <path
     style="fill:#ffffff;fill-rule:evenodd;stroke:#000000;stroke-width:4.90399981;stroke-opacity:0.31000001"
     inkscape:connector-curvature="0"
     d="m 253.04,7.859 c -135.42,0 -245.19,109.78 -245.19,245.19 0,135.42 109.78,245.19 245.19,245.19 135.42,0 245.19,-109.78 245.19,-245.19 0,-135.42 -109.78,-245.19 -245.19,-245.19 z m 0,26.297 c 120.9,0 218.9,98 218.9,218.9 0,120.9 -98,218.9 -218.9,218.9 -120.9,0 -218.93,-98 -218.93,-218.9 0,-120.9 98.03,-218.9 218.93,-218.9 z"
     id="path16" />
  <g
     style="font-style:normal;font-weight:normal;font-size:40px;font-family:'Bitstream Vera Sans';fill:#ffffff;fill-opacity:1;stroke:none;stroke-width:0.542;stroke-miterlimit:4;stroke-dasharray:none;stroke-opacity:1"
     id="text2839"
     transform="matrix(8.4609417,0,0,8.4609417,283.68364,426.86617)">
    <path
       inkscape:connector-curvature="0"
       d="m 10.821987,-30.503348 c -0.117221,4.778664 -0.286492,8.847671 -0.507812,12.207031 -0.208367,3.359383 -0.384148,5.794277 -0.5273441,7.304687 -0.143262,1.497399 -0.4687825,2.6822937 -0.9765625,3.5546879 -0.5078439,0.8593749 -1.2044578,1.5039055 -2.0898437,1.9335937 -0.8854457,0.4296859 -2.0117466,0.6445294 -3.3789063,0.6445313 -0.6771091,-1.9e-6 -1.8620038,-0.097658 -3.5546875,-0.2929688 -1.6927296,-0.182293 -3.1510614,-0.4296886 -4.375,-0.7421875 l -0.46875,-5.4492186 c 3.0728955,0.833337 5.78773655,1.250003 8.1445313,1.25 0.2083068,3e-6 0.4296608,-0.08463 0.6640625,-0.253906 0.2343478,-0.182288 0.3971081,-0.436194 0.4882812,-0.761719 0.091118,-0.338537 0.2538786,-2.141921 0.4882813,-5.410156 0.2343468,-3.281237 0.3710655,-6.236963 0.4101562,-8.867188 l -5.68359375,0 c -0.69012605,4.609389 -2.22658285,8.567719 -4.60937495,11.875 -2.3828282,3.307295 -5.9895957,6.4583338 -10.8203127,9.4531251 l -3.925781,-4.1992187 C -11.45016,-12.892665 -6.879852,-18.602295 -6.1897316,-25.386161 l -9.6289064,0 0,-5.195312 c 1.783845,-2.499974 3.28775,-5.390596 4.511719,-8.671875 l 5.2929687,1.640625 c -0.7291831,2.174508 -1.8489737,4.544297 -3.359375,7.109375 l 20.1953123,0"
       style="font-weight:bold;fill:#ffffff;fill-opacity:1;stroke:none;stroke-width:0.542;stroke-miterlimit:4;stroke-dasharray:none;stroke-opacity:1"
       id="path2844" />
  </g>
</svg>
