<?xml version="1.0" encoding="UTF-8" standalone="no"?>
<svg
   xmlns:dc="http://purl.org/dc/elements/1.1/"
   xmlns:cc="http://creativecommons.org/ns#"
   xmlns:rdf="http://www.w3.org/1999/02/22-rdf-syntax-ns#"
   xmlns:svg="http://www.w3.org/2000/svg"
   xmlns="http://www.w3.org/2000/svg"
   xmlns:sodipodi="http://sodipodi.sourceforge.net/DTD/sodipodi-0.dtd"
   xmlns:inkscape="http://www.inkscape.org/namespaces/inkscape"
   height="512"
   viewBox="0 0 512 512"
   width="512"
   version="1.1"
   id="svg2"
   inkscape:version="0.91 r13725"
   sodipodi:docname="icedove.svg">
  <defs
     id="defs19" />
  <sodipodi:namedview
     pagecolor="#ffffff"
     bordercolor="#666666"
     borderopacity="1"
     objecttolerance="10"
     gridtolerance="10"
     guidetolerance="10"
     inkscape:pageopacity="0"
     inkscape:pageshadow="2"
     inkscape:window-width="1920"
     inkscape:window-height="1022"
     id="namedview17"
     showgrid="false"
     inkscape:zoom="1.8331929"
     inkscape:cx="154.35763"
     inkscape:cy="256"
     inkscape:window-x="0"
     inkscape:window-y="0"
     inkscape:window-maximized="1"
     inkscape:current-layer="svg2" />
  <metadata
     id="metadata80">
    <rdf:RDF>
      <cc:Work
         rdf:about="">
        <dc:format>image/svg+xml</dc:format>
        <dc:type
           rdf:resource="http://purl.org/dc/dcmitype/StillImage" />
      </cc:Work>
    </rdf:RDF>
  </metadata>
  <path
     id="path4"
     d="m471.95 253.05c0 120.9-98.01 218.9-218.9 218.9-120.9 0-218.9-98.01-218.9-218.9 0-120.9 98.01-218.9 218.9-218.9 120.9 0 218.9 98.01 218.9 218.9"
     fill-rule="evenodd"
     fill="#BF9E73" />
  <path
     id="path6"
     opacity="0.47"
     fill="#BF9E73"
     d="m255.99 38.15c-23.18 0-45.538 3.478-66.6 9.921 1.294 10.51 0.535 20.302 10.575 20.15 7.357 10.327-14.676 3.07 1.222 11.03 9.143 7.149-9.645 11.266 1.677 17.681-13.05 6.685 2.105 34.965 11.797 42.04 15.953 13.334 7.07-28.23 24.873-30.388 9.672-10.963 26.624-18.02 38.689-29.05-11.791-0.95-18.699-8.25-7.533-12.764 20.551 20.908 5.179-9.875-6.197-14.753 11.01-3.477 21.71-0.959 20.18-9.978 0.889-0.646 1.567-1.241 2.075-1.819-10.06-1.361-20.324-2.075-30.758-2.075m-111.09 28.969c-6.07 3.406-11.972 7.07-17.681 11 3.666 1.027 6.644 3.566 9.153 10.01 15.728 9 1.37 24.266-5.486 29.507 11.467-6.726 31.576 26.606 26.1 8.13-6.749-4.893 18.13 7.856 5.231-8.04-11.874-18.994 0.935-8.498 5.941-4.065 17.03-15.16-19.264-17.01-10.205-32.605-3.752-3.02-8.07-8.931-13.05-13.929m49.01 10.234c-8.872 7.339 16.867 8.722 0 0m198.93 6.567c-10.306 9.921-17.06 23.828-24.788 36.1-17.688 7.918-17.03 41.903 2.729 31.04 5.289 9.171-3.694 23.59 11.712 11.598 12.426-16.327 2.164-42.692 23.31-52.987 1.54 8-19.499 37.888 5.088 32.975 22.23 0.833-16.13 2.192-5.316 16.289-11.232-6.617-5.408 18.05-20.07 12.309-12.701 6.859-21.05-3.182-18.14-14.185-9.992 5.787 3.131 22.16-14.213 23.14-3.885 13.698-35.851 11.607-17.681 25.556 8.07 20.758-30.04 1.3-19.216 26.21 9.26 24.632 28.655-8.133 36.528-14.469 14.716-11.334 36.31 17.979 25.21 20.894 13.966-2.618 10.674-16.492-1.279-21.945-6.633-17.08 21 8.407 19.472 16.971 9.749 18.12 5.743-18.571 15.663-2.331-1.158 17.13 39.903 4.04 20.297 25.868-16.857 3.371-33.472-4.297-47.984 0.625-13.507-0.119-12.792-14.463-17.71-18.05-17.18 1.386-38.443 1.228-49.946 15.01-12.438 16.944-30.357 40.648-16.8 62.28 13.567 32.06 47.21 1.647 66.55 20.581 5.748 7.895-4.978 17.288 7.874 25.84 4.836 18.216-5.511 35.489 6.368 52.902 3.983 10.619 7.01 24.654 14.867 29.14 17.15-13.324 32.353-29.05 45.08-46.677 1.395-2.522 3-4.938 4.975-7.192 1.587-2.384 3.136-4.803 4.634-7.249-11.682-25.598 13.42-38.903 25.27-58.33 0.697-2.543 1.323-5.098 1.933-7.675-18.366 1.315-34.501-17.03-38.973-35.477-8.04-9.265-5.943-22.921 3.042-5.515 12.349 11.88 12.633 47.1 35.477 28.967 0.94-0.391 2.057-0.909 3.241-1.478 1.51-8.714 2.525-17.583 3.01-26.607-10.08-5.691-15.733-25.769 0.284-7.846 0.031-1.545 0.056-3.081 0.056-4.634 0-8.377-0.453-16.646-1.336-24.788-2.034 0.148-4.767-1.214-8.187-4.946 2.176-14.274-13.577-25.314 1.336-30.928-13.508-48.916-42.943-91.23-82.38-120.98m-276.14 1.876c-3.863 2.998-7.626 6.117-11.285 9.352-0.031 0.034-0.054 0.081-0.085 0.114-0.328 0.343-0.653 0.606-0.967 0.824-46.26 41.42-75.44 101.5-75.76 168.4 5.843 10.02 12.57 20.245 13.05 14.441-8.142-8.465-16.534-33.848-2.757-11.229 12.34 21.501 29.01 35.448 53.33 40.565 13.295 4.49 24.24 19.912 35.931 16.516 6.611 17.303-19.618 33.949 0.853 50.09 10.687 16.338 28.675 27.07 18.961 50-3.733 12.309-4.561 25.19-5.515 37.779 7.151 4.128 14.558 7.855 22.17 11.2 2.101-4.639 4.873-8.888 8.784-12.565 18.497 0.146 3.556-19.768 21.917-17.17 11.204-14.58 14.437-31.989 33.34-37.779 2.258-17.698 31.451-44.789 1.308-51.68-8.193-4.01-29.3-5.441-27.688-7.419 3.266-17.562-27.26-22.578-40.25-29.763-17.06-12.02-42.712 19.983-48.723-7.59-3.587-8.675-16.716-8.786-10.688-22.17-10.862 10.726-32.08 7.439-26.522-13.275 8.279-17.1 39.604-18.239 46.05 1.478-6.504-22.557 15.412-40.25 27.688-56.43 2.545-7.87 17.654-14.609 12.451-4.15 8.864-0.318 22.284-16.199 6.538-8.869-0.223-14.483-13.763-10.357-18.16-8.301 8.157-12.854 50.06-5.795 32.52-26.806-13.593-5.469-12.489-37.39-26.24-19.614 1.157-10.954-27.982-32.383-27.347-14.01 3.557 16.436 0.634 35.36-6.936 46.14-1.58-24.08-42.956-18.794-37.637-44.46 7.706-12.232 16.738-29.12 17.596-27.602 11.878-4.503 21.727-16.397 14.07-26.01m16.232 5.714c-7.514 12.222 11.1 4.512 0 0m164.51 14.469c-8.797 10.06-20.392-2.645-20.581 5.998 1.594 2.612 7.983 21.26 21.974 7.505 7.509-3.143 4.533-11.08-1.393-13.503m-187.3 5.998c-16.686 14.468 28.357 15.819 3.553 1.677l-3.553-1.677m219.94 40.22c-11.578 7.837 5.988 24.18 0 31.895-7.528 13.02 27.973-0.924 9.01-11.314-1.3-8.586-10.392-18.971-8.983-20.581h-0.028m-7.903 15.549c-16.738 4.699-3.796 28.959 2.132 6.112 0.333-1.325 0.782-6.156-2.132-6.112m-134.03 17.539c-15.572 10.542-2.401 21.09 9.01 16.345-2.343-6.361-8.906-10.392-9.01-16.345m254.22 17.88c-1.054 10.319 22.408 26.327-2.9 21.09-13.384 1.559-33.434-0.413-16.573-16.971 5.328-3.176 19.304 10.992 12.02-2.217 2.581-0.163 5.02-1.127 7.448-1.905m35.16 10.831c-0.46 1.264-0.337 2.571 0.853 3.894-0.277-1.298-0.554-2.605-0.853-3.894m-112.49 11.52c-9.762 6.244 6.75 11.03 0 0m-245.12 58.19c-1.646 5.451 30.883 10.979 8.443 2.246l-3.354-1.166-5.088-1.08m25.24 7.76c-9.864 9.942 20.323 2.97 0 0" />
  <g
     id="g8"
     fill-rule="evenodd">
    <path
       id="path12"
       fill-opacity="0.067"
       d="m256 1c-140.83 0-255 114.17-255 255s114.17 255 255 255 255-114.17 255-255-114.17-255-255-255m8.827 44.931c120.9 0 218.9 98 218.9 218.9s-98 218.9-218.9 218.9-218.93-98-218.93-218.9 98.03-218.9 218.93-218.9" />
    <g
       id="g14"
       fill-opacity="0.129">
      <path
         id="path16"
         d="m256 4.433c-138.94 0-251.57 112.63-251.57 251.57s112.63 251.57 251.57 251.57 251.57-112.63 251.57-251.57-112.63-251.57-251.57-251.57m5.885 38.556c120.9 0 218.9 98 218.9 218.9s-98 218.9-218.9 218.9-218.93-98-218.93-218.9 98.03-218.9 218.93-218.9" />
      <path
         id="path18"
         d="m256 8.356c-136.77 0-247.64 110.87-247.64 247.64s110.87 247.64 247.64 247.64 247.64-110.87 247.64-247.64-110.87-247.64-247.64-247.64m2.942 31.691c120.9 0 218.9 98 218.9 218.9s-98 218.9-218.9 218.9-218.93-98-218.93-218.9 98.03-218.9 218.93-218.9" />
    </g>
    <path
       id="path20"
       d="m253.04 7.859c-135.42 0-245.19 109.78-245.19 245.19 0 135.42 109.78 245.19 245.19 245.19 135.42 0 245.19-109.78 245.19-245.19 0-135.42-109.78-245.19-245.19-245.19zm0 26.297c120.9 0 218.9 98 218.9 218.9s-98 218.9-218.9 218.9-218.93-98-218.93-218.9 98.03-218.9 218.93-218.9z"
       stroke-opacity="0.31"
       stroke="#000"
       stroke-width="4.904"
       fill="#fff" />
  </g>
  <path
     style="fill-opacity:0.23500001;fill-rule:evenodd"
     inkscape:connector-curvature="0"
     id="path10"
     d="m 294.01898,92.081051 c -0.809,0.133 -2.783,2.354 -5.969,6.718999 -10,13.699 -16.813,28.25 -19.719,42.06 -2.584,12.284 -5.03,38.09 -5.03,53.28 l 0,13.688 c 0.008,0.005 0.734,0.458 1,0.625 l 0,0.375 c 0.008,0.005 0.734,0.458 1,0.625 l 0,0.375 c 0.008,0.005 0.734,0.458 1,0.625 l 0,0.375 c 0.007,0.005 0.713,0.464 0.969,0.625 l 0,0.344 c 0.008,0.005 0.734,0.458 1,0.625 l 0,0.375 c 0.008,0.005 0.734,0.458 1,0.625 l 0,0.375 c 0.008,0.005 0.734,0.458 1,0.625 l 0,0.375 c 0.007,0.005 0.734,0.458 1,0.625 l 0,0.375 c 0.007,0.005 0.734,0.458 1,0.625 l 0,0.375 c 0.007,0.005 0.714,0.464 0.969,0.625 l 0,0.344 1,0.625 0,0.375 c 0.007,0.005 0.734,0.458 1,0.625 l 0,0.375 c 0.007,0.005 0.734,0.458 1,0.625 l 0,0.375 1,0.625 0,0.375 c 0.007,0.005 0.734,0.458 1,0.625 l 0,0.375 c 0.007,0.004 0.714,0.464 0.969,0.625 l 0,0.344 c 0.007,0.004 0.734,0.458 1,0.625 l 0,0.375 c 0.007,0.004 0.734,0.458 1,0.625 l 0,0.375 c 0.007,0.004 0.734,0.458 1,0.625 l 0,0.375 c 0.007,0.004 0.734,0.458 1,0.625 l 0,0.375 c 0.007,0.004 0.734,0.458 1,0.625 l 0,0.375 0.969,0.625 0,0.344 0.031,0.031 c 0.007,0.004 0.718,0.436 0.969,0.594 l 0,0.375 c 0.007,0.004 0.734,0.458 1,0.625 l 0,0.375 1,0.625 0,0.375 c 0.007,0.004 0.734,0.458 1,0.625 l 0,0.375 c 0.007,0.004 0.734,0.458 1,0.625 l 0,0.375 c 0.007,0.004 0.734,0.458 1,0.625 l 0,0.375 c 0.007,0.004 0.714,0.465 0.969,0.625 l 0,0.344 c 0.007,0.004 0.734,0.458 1,0.625 l 0,0.375 c 0.007,0.004 0.735,0.458 1,0.625 l 0,0.375 c 0.007,0.004 0.735,0.458 1,0.625 l 0,0.375 c 0.007,0.004 0.735,0.458 1,0.625 l 0,0.375 c 0.006,0.004 0.735,0.458 1,0.625 l 0,0.375 0.969,0.594 0,0.375 1,0.625 0,0.375 c 0.006,0.004 0.7,0.444 0.938,0.594 l 0.063,0.188 0,0.219 c 0.001,0 0.09,0.06 0.094,0.063 l 0.219,0.594 c 0.195,0.56 0.362,1.154 0.531,1.75 -0.185,-0.193 -0.421,-0.385 -0.656,-0.594 -0.099,-0.108 -0.12,-0.142 -0.219,-0.25 -0.208,-0.227 -0.465,-0.468 -0.75,-0.719 -0.112,-0.122 -0.138,-0.159 -0.25,-0.281 -0.169,-0.184 -0.371,-0.362 -0.594,-0.563 -0.178,-0.193 -0.229,-0.244 -0.406,-0.438 -0.193,-0.211 -0.417,-0.452 -0.688,-0.688 -0.131,-0.143 -0.182,-0.17 -0.313,-0.313 -0.15,-0.164 -0.33,-0.32 -0.531,-0.5 -0.203,-0.221 -0.266,-0.279 -0.469,-0.5 -0.164,-0.179 -0.363,-0.363 -0.594,-0.563 -0.165,-0.179 -0.21,-0.227 -0.375,-0.406 -0.11,-0.12 -0.294,-0.276 -0.438,-0.406 -0.243,-0.264 -0.319,-0.328 -0.563,-0.594 -0.098,-0.107 -0.279,-0.228 -0.406,-0.344 -0.262,-0.285 -0.331,-0.37 -0.594,-0.656 -0.116,-0.126 -0.306,-0.265 -0.469,-0.406 -0.236,-0.256 -0.295,-0.336 -0.531,-0.594 -0.107,-0.116 -0.284,-0.244 -0.438,-0.375 -0.249,-0.27 -0.313,-0.353 -0.563,-0.625 -0.13,-0.141 -0.285,-0.299 -0.5,-0.469 -0.216,-0.235 -0.284,-0.296 -0.5,-0.531 -0.11,-0.119 -0.251,-0.262 -0.438,-0.406 -0.23,-0.25 -0.301,-0.312 -0.531,-0.563 -0.09,-0.097 -0.217,-0.223 -0.375,-0.344 -0.268,-0.292 -0.356,-0.363 -0.625,-0.656 -0.048,-0.053 -0.172,-0.125 -0.25,-0.188 -0.326,-0.355 -0.421,-0.455 -0.75,-0.813 -0.052,-0.056 -0.156,-0.136 -0.281,-0.219 -0.236,-0.257 -0.476,-0.522 -0.719,-0.781 -0.17,-0.185 -0.358,-0.376 -0.531,-0.563 -0.03,-0.031 -0.064,-0.063 -0.094,-0.094 -10.47,-11.211 -27.14,-24.278 -51.781,-40.531 -2.111,-1.393 -4.337,-2.917 -6.563,-4.438 -0.056,-0.069 -0.5,-0.594 -0.5,-0.594 l -0.031,0.188 c -0.202,-0.251 -0.969,-1.188 -0.969,-1.188 l -0.031,0.219 c -0.206,-0.257 -0.969,-1.219 -0.969,-1.219 l -0.031,0.219 c -0.205,-0.256 -0.969,-1.219 -0.969,-1.219 l -0.031,0.188 c -0.198,-0.246 -0.969,-1.188 -0.969,-1.188 l -0.031,0.188 c -0.186,-0.232 -0.938,-1.156 -0.938,-1.156 l -0.031,0.219 c -0.201,-0.25 -0.969,-1.219 -0.969,-1.219 l -0.031,0.188 c -0.194,-0.242 -0.969,-1.188 -0.969,-1.188 l -0.031,0.219 -0.969,-1.219 -0.031,0.188 c -0.191,-0.238 -0.969,-1.188 -0.969,-1.188 l -0.031,0.188 c -0.19,-0.236 -0.969,-1.188 -0.969,-1.188 l -0.031,0.219 c -0.194,-0.241 -0.969,-1.219 -0.969,-1.219 l -0.031,0.188 -0.938,-1.156 -0.031,0.188 -0.969,-1.188 -0.031,0.219 c -0.191,-0.238 -0.969,-1.219 -0.969,-1.219 l -0.031,0.188 c -0.184,-0.229 -0.969,-1.188 -0.969,-1.188 l -0.031,0.188 c -0.183,-0.228 -0.969,-1.188 -0.969,-1.188 l -0.031,0.219 -0.969,-1.219 -0.031,0.188 c -0.172,-0.213 -0.938,-1.156 -0.938,-1.156 l -0.031,0.188 c -0.18,-0.224 -0.969,-1.188 -0.969,-1.188 l -0.031,0.188 c -0.179,-0.222 -0.969,-1.188 -0.969,-1.188 l -0.031,0.188 c -0.177,-0.221 -0.969,-1.188 -0.969,-1.188 l -0.031,0.188 c -0.176,-0.219 -0.969,-1.188 -0.969,-1.188 l -0.031,0.219 c -0.181,-0.225 -0.969,-1.219 -0.969,-1.219 l -0.031,0.188 c -0.166,-0.206 -0.938,-1.156 -0.938,-1.156 l -0.031,0.188 c -0.173,-0.215 -0.969,-1.188 -0.969,-1.188 l -0.031,0.188 c -0.173,-0.215 -0.969,-1.188 -0.969,-1.188 l -0.031,0.219 -0.969,-1.219 -0.031,0.219 c -0.175,-0.218 -0.969,-1.219 -0.969,-1.219 l -0.031,0.219 c -0.174,-0.216 -0.969,-1.219 -0.969,-1.219 l -0.031,0.188 c -0.16,-0.199 -0.938,-1.156 -0.938,-1.156 l -0.031,0.188 c -0.167,-0.208 -0.969,-1.188 -0.969,-1.188 l -0.031,0.188 -0.969,-1.188 -0.031,0.219 c -0.171,-0.212 -0.969,-1.219 -0.969,-1.219 l -0.031,0.219 c -0.169,-0.211 -0.969,-1.219 -0.969,-1.219 l -0.031,0.188 c -0.163,-0.203 -0.969,-1.188 -0.969,-1.188 l -0.031,0.188 c -0.162,-0.202 -0.969,-1.188 -0.969,-1.188 l -0.031,0.188 -0.938,-1.156 -0.031,0.188 c -0.161,-0.2 -0.969,-1.188 -0.969,-1.188 l -0.031,0.188 c -0.16,-0.199 -0.969,-1.188 -0.969,-1.188 l -0.031,0.219 c -0.164,-0.204 -0.969,-1.219 -0.969,-1.219 l -0.031,0.219 c -0.163,-0.202 -0.969,-1.219 -0.969,-1.219 l -0.031,0.219 c -0.162,-0.201 -0.969,-1.219 -0.969,-1.219 l -0.031,0.219 c -0.153,-0.191 -0.938,-1.188 -0.938,-1.188 l -0.031,0.188 c -0.156,-0.194 -0.969,-1.188 -0.969,-1.188 l -0.031,0.188 -0.969,-1.188 -0.031,0.188 -0.969,-1.188 -0.031,0.219 -0.969,-1.219 -0.031,0.219 -0.969,-1.219 -0.031,0.188 c -0.144,-0.179 -0.938,-1.156 -0.938,-1.156 l -0.031,0.188 c -0.151,-0.188 -0.969,-1.188 -0.969,-1.188 l -0.031,0.188 c -0.15,-0.187 -0.969,-1.188 -0.969,-1.188 l -0.031,0.188 c -0.149,-0.185 -0.969,-1.188 -0.969,-1.188 l -0.031,0.219 c -0.153,-0.19 -0.969,-1.219 -0.969,-1.219 l -0.031,0.219 c -0.152,-0.189 -0.969,-1.219 -0.969,-1.219 l -0.031,0.219 c -0.151,-0.188 -0.969,-1.219 -0.969,-1.219 l -0.031,0.188 c -0.139,-0.172 -0.938,-1.156 -0.938,-1.156 l -0.031,0.188 c -0.146,-0.181 -0.969,-1.188 -0.969,-1.188 l -0.031,0.188 c -0.145,-0.18 -0.969,-1.188 -0.969,-1.188 l -0.031,0.188 c -0.144,-0.179 -0.969,-1.188 -0.969,-1.188 l -0.03,0.29 c -0.147,-0.183 -0.969,-1.219 -0.969,-1.219 0,0 -0.014,0.112 -0.031,0.219 -0.147,-0.182 -0.969,-1.219 -0.969,-1.219 l -0.031,0.188 -0.938,-1.156 -0.031,0.219 -0.969,-1.219 -0.031,0.219 -0.969,-1.219 -0.031,0.188 c -0.14,-0.174 -0.969,-1.188 -0.969,-1.188 l -0.031,0.188 c -0.139,-0.173 -0.969,-1.188 -0.969,-1.188 l -0.031,0.219 c -0.142,-0.177 -0.969,-1.219 -0.969,-1.219 l -0.031,0.219 c -0.135,-0.168 -0.938,-1.188 -0.938,-1.188 l -0.063,0.188 c -0.134,-0.167 -0.938,-1.188 -0.938,-1.188 l -0.031,0.219 c -0.141,-0.175 -0.969,-1.219 -0.969,-1.219 l -0.031,0.188 c -0.136,-0.169 -0.969,-1.188 -0.969,-1.188 l -0.02,0.16 c -0.131,-0.163 -0.969,-1.156 -0.969,-1.156 l 0,0.223 c -0.142,-0.177 -1,-1.219 -1,-1.219 l 0,0.219 c -0.134,-0.167 -0.969,-1.188 -0.969,-1.188 0,0 -0.031,0.062 -0.031,0.063 0,0.002 -0.03,0.117 -0.031,0.125 -0.13,-0.162 -0.938,-1.188 -0.938,-1.188 l -0.031,0.031 c 0,0.002 -0.029,0.145 -0.031,0.156 -0.128,-0.159 -0.935,-1.153 -0.938,-1.156 0,0.003 -0.029,0.172 -0.031,0.188 -0.136,-0.169 -0.969,-1.219 -0.969,-1.219 -0.013,0.083 -0.875,5.406 -0.875,5.406 -1.179,7.161 0.007,33.386 2.094,46.34 4.592,28.507 14.01,47.09 33.875,66.72 0.096,0.095 0.185,0.187 0.281,0.281 0.242,0.242 0.474,0.477 0.719,0.719 0.058,0.058 0.095,0.1 0.188,0.156 0.277,0.277 0.532,0.566 0.813,0.844 0.016,0.016 0.046,0.016 0.063,0.031 0.319,0.32 0.613,0.648 0.938,0.969 0.021,0.021 0.042,0.043 0.063,0.063 0.304,0.305 0.597,0.6 0.906,0.906 0.032,0.031 0.063,0.065 0.094,0.094 0.305,0.307 0.596,0.599 0.906,0.906 0.146,0.144 0.278,0.286 0.438,0.406 0.195,0.195 0.365,0.399 0.563,0.594 0.06,0.06 0.128,0.102 0.188,0.156 0.278,0.279 0.53,0.565 0.813,0.844 0.033,0.033 0.061,0.063 0.094,0.094 0.303,0.305 0.598,0.601 0.906,0.906 0.04,0.04 0.085,0.056 0.125,0.094 0.297,0.298 0.573,0.608 0.875,0.906 0.045,0.044 0.081,0.083 0.125,0.125 0.285,0.286 0.554,0.558 0.844,0.844 0.038,0.038 0.087,0.058 0.125,0.094 0.299,0.3 0.571,0.606 0.875,0.906 0.039,0.039 0.086,0.057 0.125,0.094 0.3,0.301 0.57,0.605 0.875,0.906 0.175,0.173 0.357,0.348 0.531,0.5 0.031,0.031 0.063,0.062 0.094,0.094 0.132,0.132 0.242,0.275 0.375,0.406 0.19,0.188 0.374,0.367 0.563,0.531 0.031,0.031 0.063,0.062 0.094,0.094 0.121,0.12 0.222,0.255 0.344,0.375 0.204,0.202 0.39,0.385 0.594,0.563 0.031,0.032 0.063,0.062 0.094,0.094 0.111,0.11 0.201,0.233 0.313,0.344 0.219,0.216 0.407,0.404 0.625,0.594 0.031,0.032 0.062,0.062 0.094,0.094 0.09,0.09 0.159,0.191 0.25,0.281 0.059,0.058 0.13,0.101 0.188,0.156 0.28,0.28 0.528,0.563 0.813,0.844 0.06,0.059 0.129,0.1 0.188,0.156 0.278,0.279 0.53,0.564 0.813,0.844 0.066,0.065 0.123,0.125 0.188,0.188 0.274,0.275 0.534,0.537 0.813,0.813 0.278,0.274 0.536,0.541 0.813,0.781 l 0.063,0.063 c 0.048,0.047 0.077,0.109 0.125,0.156 0.07,0.07 0.149,0.12 0.219,0.188 0.266,0.266 0.511,0.546 0.781,0.813 0.181,0.179 0.353,0.336 0.531,0.5 0.482,0.489 0.941,0.978 1.438,1.469 0.081,0.08 0.169,0.141 0.25,0.219 0.04,0.042 0.085,0.083 0.125,0.125 0.217,0.217 0.405,0.439 0.625,0.656 0.082,0.081 0.169,0.14 0.25,0.219 0.149,0.152 0.287,0.316 0.438,0.469 0.106,0.105 0.206,0.207 0.313,0.313 0.033,0.032 0.061,0.062 0.094,0.094 0.303,0.305 0.597,0.601 0.906,0.906 0.066,0.065 0.122,0.124 0.188,0.188 0.272,0.273 0.536,0.539 0.813,0.813 0.093,0.092 0.189,0.161 0.281,0.25 0.245,0.245 0.47,0.504 0.719,0.75 0.094,0.093 0.188,0.16 0.281,0.25 0.238,0.238 0.446,0.48 0.688,0.719 0.07,0.069 0.149,0.12 0.219,0.188 0.268,0.268 0.509,0.544 0.781,0.813 0.076,0.075 0.144,0.146 0.219,0.219 0.263,0.264 0.513,0.517 0.781,0.781 0.076,0.075 0.143,0.145 0.219,0.219 0.262,0.263 0.515,0.518 0.781,0.781 0.044,0.043 0.081,0.082 0.125,0.125 0.292,0.294 0.577,0.58 0.875,0.875 0.066,0.065 0.122,0.124 0.188,0.188 0.272,0.273 0.536,0.539 0.813,0.813 0.066,0.065 0.122,0.124 0.188,0.188 0.262,0.263 0.514,0.517 0.781,0.781 0.086,0.085 0.165,0.167 0.25,0.25 0.253,0.254 0.493,0.496 0.75,0.75 0.087,0.086 0.164,0.167 0.25,0.25 0.252,0.252 0.494,0.497 0.75,0.75 0.055,0.054 0.102,0.103 0.156,0.156 0.282,0.284 0.556,0.559 0.844,0.844 0.076,0.075 0.143,0.145 0.219,0.219 0.262,0.263 0.515,0.518 0.781,0.781 0.044,0.043 0.081,0.082 0.125,0.125 0.292,0.294 0.577,0.581 0.875,0.875 0.077,0.076 0.142,0.144 0.219,0.219 0.253,0.254 0.492,0.495 0.75,0.75 0.082,0.081 0.169,0.14 0.25,0.219 0.257,0.258 0.488,0.523 0.75,0.781 0.081,0.08 0.17,0.141 0.25,0.219 l 0.031,0.031 c 0.248,0.249 0.467,0.501 0.719,0.75 0.081,0.08 0.169,0.14 0.25,0.219 0.128,0.131 0.246,0.275 0.375,0.406 0.127,0.126 0.247,0.249 0.375,0.375 0.049,0.049 0.107,0.077 0.156,0.125 0.021,0.022 0.042,0.041 0.063,0.063 0.267,0.268 0.51,0.544 0.781,0.813 0.088,0.087 0.163,0.165 0.25,0.25 0.251,0.252 0.495,0.498 0.75,0.75 0.055,0.054 0.101,0.103 0.156,0.156 0.281,0.283 0.557,0.56 0.844,0.844 0.077,0.076 0.142,0.144 0.219,0.219 0.253,0.254 0.492,0.495 0.75,0.75 0.082,0.081 0.169,0.14 0.25,0.219 0.123,0.126 0.251,0.249 0.375,0.375 0.132,0.132 0.242,0.274 0.375,0.406 0.044,0.043 0.081,0.082 0.125,0.125 0.292,0.294 0.577,0.58 0.875,0.875 0.098,0.097 0.184,0.186 0.281,0.281 0.241,0.242 0.474,0.477 0.719,0.719 l 0.125,0.125 c 0.292,0.294 0.577,0.581 0.875,0.875 0.076,0.075 0.143,0.145 0.219,0.219 -3.275,6.42 -3.02,8.867 1.188,12.813 0.307,0.324 0.633,0.656 1,1 0.322,0.34 0.674,0.7 1.063,1.063 0.308,0.322 0.633,0.658 1,1 0.308,0.322 0.633,0.657 1,1 0.289,0.302 0.596,0.617 0.938,0.938 0.308,0.326 0.63,0.653 1,1 0.25,0.265 0.522,0.535 0.813,0.813 -2.384,-0.407 -4.707,-1.01 -6.5,-1.781 -1.413,-0.61 -3.242,1.186 -7.781,7.688 -5.209,7.461 -6.779,8.91 -13.219,11.969 -7.641,3.629 -14.12,6.619 -39.12,18.219 -8.285,3.844 -22.506,10.607 -31.625,15.03 l -16.594,8.06 0.813,8.531 c 1.356,15.09 4,23.531 10.06,28.969 0.323,0.332 0.655,0.657 1,0.969 0.301,0.312 0.617,0.613 0.938,0.906 0.338,0.356 0.668,0.699 1.031,1.031 0.337,0.354 0.701,0.7 1.063,1.031 0.376,0.396 0.749,0.79 1.156,1.156 0.265,0.274 0.532,0.521 0.813,0.781 0.373,0.399 0.752,0.787 1.156,1.156 0.31,0.327 0.637,0.631 0.969,0.938 0.409,0.436 0.834,0.85 1.281,1.25 0.337,0.348 0.7,0.707 1.063,1.031 0.289,0.299 0.567,0.594 0.875,0.875 0.347,0.366 0.719,0.722 1.094,1.063 0.325,0.341 0.651,0.682 1,1 0.334,0.352 0.703,0.703 1.063,1.031 0.357,0.377 0.738,0.745 1.125,1.094 0.306,0.32 0.61,0.606 0.938,0.906 0.338,0.359 0.698,0.698 1.063,1.031 0.346,0.368 0.688,0.722 1.063,1.063 0.401,0.425 0.841,0.83 1.281,1.219 0.315,0.322 0.631,0.636 0.969,0.938 0.324,0.337 0.651,0.686 1,1 0.345,0.361 0.689,0.728 1.063,1.063 0.296,0.309 0.589,0.617 0.906,0.906 0.393,0.418 0.819,0.805 1.25,1.188 0.282,0.292 0.574,0.57 0.875,0.844 0.385,0.409 0.766,0.813 1.188,1.188 0.286,0.298 0.568,0.596 0.875,0.875 0.412,0.44 0.857,0.85 1.313,1.25 0.263,0.27 0.533,0.527 0.813,0.781 0.355,0.379 0.707,0.745 1.094,1.094 0.312,0.33 0.633,0.662 0.969,0.969 0.367,0.392 0.755,0.766 1.156,1.125 0.392,0.413 0.787,0.811 1.219,1.188 0.254,0.26 0.512,0.505 0.781,0.75 0.381,0.409 0.768,0.815 1.188,1.188 0.32,0.335 0.653,0.659 1,0.969 0.38,0.402 0.769,0.79 1.188,1.156 0.261,0.27 0.534,0.528 0.813,0.781 0.381,0.41 0.767,0.815 1.188,1.188 0.284,0.298 0.57,0.597 0.875,0.875 0.378,0.408 0.801,0.785 1.219,1.156 0.338,0.356 0.694,0.704 1.063,1.031 0.346,0.363 0.684,0.729 1.063,1.063 0.279,0.293 0.575,0.571 0.875,0.844 0.373,0.403 0.775,0.79 1.188,1.156 0.331,0.35 0.67,0.71 1.031,1.031 0.338,0.358 0.692,0.703 1.063,1.031 0.339,0.357 0.692,0.704 1.063,1.031 0.312,0.329 0.629,0.665 0.969,0.969 0.376,0.402 0.77,0.793 1.188,1.156 0.305,0.318 0.606,0.644 0.938,0.938 0.343,0.364 0.717,0.7 1.094,1.031 0.332,0.351 0.667,0.71 1.031,1.031 0.328,0.348 0.672,0.682 1.031,1 0.288,0.306 0.594,0.623 0.906,0.906 0.384,0.42 0.79,0.811 1.219,1.188 0.29,0.308 0.591,0.591 0.906,0.875 0.333,0.364 0.664,0.7 1.031,1.031 0.322,0.352 0.677,0.679 1.031,1 0.383,0.421 0.789,0.811 1.219,1.188 0.234,0.249 0.468,0.485 0.719,0.719 0.377,0.426 0.795,0.807 1.219,1.188 0.375,0.411 0.767,0.788 1.188,1.156 0.321,0.344 0.646,0.687 1,1 0.348,0.375 0.707,0.724 1.094,1.063 0.287,0.307 0.593,0.593 0.906,0.875 0.369,0.407 0.742,0.793 1.156,1.156 0.297,0.32 0.612,0.614 0.938,0.906 0.35,0.386 0.733,0.747 1.125,1.094 0.342,0.372 0.713,0.728 1.094,1.063 0.302,0.326 0.605,0.64 0.938,0.938 0.074,0.081 0.173,0.14 0.25,0.219 12.608,2.258 25.587,3.469 38.844,3.469 114.89,0 209.11,-88.51 218.19,-201.06 -0.044,0.033 -0.078,0.058 -0.125,0.094 0.154,-0.94 0.053,-1.409 -0.344,-1.344 -0.163,0.027 -0.398,0.147 -0.656,0.344 0.154,-0.94 0.053,-1.409 -0.344,-1.344 -0.156,0.026 -0.383,0.132 -0.625,0.313 0.147,-0.92 0.017,-1.377 -0.375,-1.313 -0.16,0.026 -0.405,0.154 -0.656,0.344 0.155,-0.943 0.053,-1.409 -0.344,-1.344 -0.168,0.028 -0.389,0.168 -0.656,0.375 0.162,-0.962 0.057,-1.441 -0.344,-1.375 -0.168,0.028 -0.389,0.168 -0.656,0.375 0.157,-0.948 0.054,-1.44 -0.344,-1.375 -0.168,0.028 -0.389,0.168 -0.656,0.375 0.157,-0.948 0.054,-1.44 -0.344,-1.375 -0.163,0.027 -0.367,0.178 -0.625,0.375 0.154,-0.94 0.053,-1.409 -0.344,-1.344 -0.163,0.027 -0.398,0.147 -0.656,0.344 0.154,-0.94 0.053,-1.409 -0.344,-1.344 -0.16,0.026 -0.405,0.154 -0.656,0.344 0.155,-0.943 0.053,-1.409 -0.344,-1.344 -0.166,0.027 -0.392,0.172 -0.656,0.375 0.162,-0.962 0.057,-1.441 -0.344,-1.375 -0.168,0.028 -0.389,0.168 -0.656,0.375 0.157,-0.948 0.054,-1.44 -0.344,-1.375 -0.168,0.028 -0.389,0.168 -0.656,0.375 0.157,-0.948 0.054,-1.44 -0.344,-1.375 -0.163,0.027 -0.367,0.178 -0.625,0.375 0.154,-0.94 0.053,-1.409 -0.344,-1.344 -0.163,0.027 -0.398,0.147 -0.656,0.344 0.154,-0.94 0.053,-1.409 -0.344,-1.344 -0.156,0.026 -0.383,0.132 -0.625,0.313 0.147,-0.92 0.017,-1.377 -0.375,-1.313 -0.16,0.026 -0.405,0.154 -0.656,0.344 0.155,-0.943 0.053,-1.409 -0.344,-1.344 -0.168,0.028 -0.389,0.168 -0.656,0.375 0.162,-0.962 0.057,-1.441 -0.344,-1.375 -0.168,0.028 -0.389,0.168 -0.656,0.375 0.157,-0.948 0.054,-1.44 -0.344,-1.375 -0.163,0.027 -0.367,0.178 -0.625,0.375 0.154,-0.94 0.053,-1.409 -0.344,-1.344 -0.163,0.027 -0.398,0.147 -0.656,0.344 0.154,-0.94 0.053,-1.409 -0.344,-1.344 -0.156,0.026 -0.383,0.132 -0.625,0.313 0.147,-0.92 0.017,-1.377 -0.375,-1.313 -0.16,0.026 -0.405,0.154 -0.656,0.344 0.155,-0.943 0.053,-1.409 -0.344,-1.344 -0.168,0.028 -0.389,0.168 -0.656,0.375 0.162,-0.962 0.057,-1.441 -0.344,-1.375 -0.168,0.028 -0.389,0.168 -0.656,0.375 0.157,-0.948 0.054,-1.44 -0.344,-1.375 -0.168,0.028 -0.389,0.168 -0.656,0.375 0.157,-0.948 0.054,-1.44 -0.344,-1.375 -0.163,0.027 -0.367,0.178 -0.625,0.375 0.154,-0.94 0.053,-1.409 -0.344,-1.344 -0.156,0.026 -0.383,0.132 -0.625,0.313 0.147,-0.92 0.017,-1.377 -0.375,-1.313 -0.16,0.026 -0.405,0.154 -0.656,0.344 0.155,-0.943 0.053,-1.409 -0.344,-1.344 -0.166,0.027 -0.392,0.172 -0.656,0.375 0.162,-0.962 0.057,-1.441 -0.344,-1.375 -0.168,0.028 -0.389,0.168 -0.656,0.375 0.157,-0.948 0.054,-1.44 -0.344,-1.375 -0.168,0.028 -0.389,0.168 -0.656,0.375 0.157,-0.948 0.054,-1.44 -0.344,-1.375 -0.163,0.027 -0.367,0.178 -0.625,0.375 0.154,-0.94 0.053,-1.409 -0.344,-1.344 -0.163,0.027 -0.398,0.147 -0.656,0.344 0.154,-0.94 0.053,-1.409 -0.344,-1.344 -0.161,0.027 -0.402,0.151 -0.656,0.344 0.155,-0.943 0.053,-1.409 -0.344,-1.344 -0.16,0.026 -0.405,0.154 -0.656,0.344 0.155,-0.943 0.053,-1.409 -0.344,-1.344 -0.168,0.028 -0.389,0.168 -0.656,0.375 0.157,-0.948 0.054,-1.44 -0.344,-1.375 -0.168,0.028 -0.389,0.168 -0.656,0.375 0.157,-0.948 0.054,-1.44 -0.344,-1.375 -0.163,0.027 -0.367,0.178 -0.625,0.375 0.154,-0.94 0.053,-1.409 -0.344,-1.344 -0.163,0.027 -0.398,0.147 -0.656,0.344 0.154,-0.94 0.053,-1.409 -0.344,-1.344 -0.156,0.026 -0.383,0.132 -0.625,0.313 0.147,-0.92 0.017,-1.377 -0.375,-1.313 -0.16,0.026 -0.405,0.154 -0.656,0.344 0.155,-0.943 0.053,-1.409 -0.344,-1.344 -0.168,0.028 -0.389,0.168 -0.656,0.375 0.162,-0.962 0.057,-1.441 -0.344,-1.375 -0.168,0.028 -0.389,0.168 -0.656,0.375 0.157,-0.948 0.054,-1.44 -0.344,-1.375 -0.163,0.027 -0.367,0.178 -0.625,0.375 0.154,-0.94 0.053,-1.409 -0.344,-1.344 -0.163,0.027 -0.398,0.147 -0.656,0.344 0.154,-0.94 0.053,-1.409 -0.344,-1.344 -0.156,0.026 -0.383,0.132 -0.625,0.313 0.147,-0.92 0.017,-1.377 -0.375,-1.313 -0.16,0.026 -0.405,0.154 -0.656,0.344 0.155,-0.943 0.053,-1.409 -0.344,-1.344 -0.168,0.028 -0.389,0.168 -0.656,0.375 0.162,-0.962 0.057,-1.441 -0.344,-1.375 -0.168,0.028 -0.389,0.168 -0.656,0.375 0.157,-0.948 0.054,-1.44 -0.344,-1.375 -0.168,0.028 -0.389,0.168 -0.656,0.375 0.157,-0.948 0.054,-1.44 -0.344,-1.375 -0.163,0.027 -0.367,0.178 -0.625,0.375 0.154,-0.94 0.053,-1.409 -0.344,-1.344 -0.163,0.027 -0.398,0.147 -0.656,0.344 0.154,-0.94 0.053,-1.409 -0.344,-1.344 -0.16,0.026 -0.405,0.154 -0.656,0.344 0.155,-0.943 0.053,-1.409 -0.344,-1.344 -0.166,0.027 -0.392,0.172 -0.656,0.375 0.162,-0.962 0.057,-1.441 -0.344,-1.375 -0.168,0.028 -0.389,0.168 -0.656,0.375 0.157,-0.948 0.054,-1.44 -0.344,-1.375 -0.168,0.028 -0.389,0.168 -0.656,0.375 0.157,-0.948 0.054,-1.44 -0.344,-1.375 -0.163,0.027 -0.367,0.178 -0.625,0.375 0.154,-0.94 0.053,-1.409 -0.344,-1.344 -0.163,0.027 -0.398,0.147 -0.656,0.344 0.154,-0.94 0.053,-1.409 -0.344,-1.344 -0.156,0.026 -0.383,0.132 -0.625,0.313 0.147,-0.92 0.017,-1.377 -0.375,-1.313 -0.16,0.026 -0.405,0.154 -0.656,0.344 0.155,-0.942 0.053,-1.409 -0.344,-1.344 -0.168,0.028 -0.389,0.168 -0.656,0.375 0.162,-0.962 0.057,-1.441 -0.344,-1.375 -0.168,0.028 -0.389,0.168 -0.656,0.375 0.157,-0.948 0.054,-1.44 -0.344,-1.375 -0.163,0.027 -0.367,0.178 -0.625,0.375 0.154,-0.94 0.053,-1.409 -0.344,-1.344 -0.163,0.027 -0.398,0.147 -0.656,0.344 0.154,-0.94 0.053,-1.409 -0.344,-1.344 -0.156,0.026 -0.383,0.132 -0.625,0.313 0.147,-0.92 0.017,-1.377 -0.375,-1.313 -0.16,0.026 -0.405,0.154 -0.656,0.344 0.155,-0.942 0.053,-1.409 -0.344,-1.344 -0.168,0.028 -0.389,0.168 -0.656,0.375 0.162,-0.962 0.057,-1.441 -0.344,-1.375 -0.168,0.028 -0.389,0.168 -0.656,0.375 0.157,-0.948 0.054,-1.44 -0.344,-1.375 -0.168,0.028 -0.389,0.168 -0.656,0.375 0.157,-0.948 0.054,-1.44 -0.344,-1.375 -0.163,0.027 -0.367,0.178 -0.625,0.375 0.154,-0.94 0.053,-1.409 -0.344,-1.344 -0.156,0.026 -0.383,0.132 -0.625,0.313 0.147,-0.92 0.017,-1.377 -0.375,-1.313 -0.16,0.026 -0.405,0.154 -0.656,0.344 0.155,-0.942 0.053,-1.409 -0.344,-1.344 -0.168,0.028 -0.389,0.168 -0.656,0.375 0.162,-0.962 0.057,-1.441 -0.344,-1.375 -0.168,0.028 -0.389,0.168 -0.656,0.375 0.157,-0.948 0.054,-1.44 -0.344,-1.375 -0.168,0.028 -0.389,0.168 -0.656,0.375 0.157,-0.948 0.054,-1.44 -0.344,-1.375 -0.163,0.027 -0.367,0.178 -0.625,0.375 0.154,-0.94 0.053,-1.409 -0.344,-1.344 -0.163,0.027 -0.398,0.147 -0.656,0.344 0.154,-0.94 0.053,-1.409 -0.344,-1.344 -0.161,0.027 -0.402,0.151 -0.656,0.344 0.155,-0.942 0.053,-1.409 -0.344,-1.344 -0.16,0.026 -0.405,0.154 -0.656,0.344 0.155,-0.942 0.053,-1.409 -0.344,-1.344 -0.168,0.028 -0.389,0.168 -0.656,0.375 0.157,-0.948 0.054,-1.44 -0.344,-1.375 -0.168,0.028 -0.389,0.168 -0.656,0.375 0.157,-0.948 0.054,-1.44 -0.344,-1.375 -0.163,0.027 -0.367,0.178 -0.625,0.375 0.154,-0.94 0.053,-1.409 -0.344,-1.344 -0.163,0.027 -0.398,0.147 -0.656,0.344 0.154,-0.94 0.053,-1.409 -0.344,-1.344 -0.156,0.026 -0.383,0.132 -0.625,0.313 0.147,-0.92 0.017,-1.377 -0.375,-1.313 -0.16,0.026 -0.405,0.154 -0.656,0.344 0.155,-0.942 0.053,-1.409 -0.344,-1.344 -0.168,0.028 -0.389,0.168 -0.656,0.375 0.162,-0.961 0.057,-1.441 -0.344,-1.375 -0.168,0.028 -0.389,0.168 -0.656,0.375 0.157,-0.948 0.054,-1.44 -0.344,-1.375 -0.163,0.027 -0.367,0.178 -0.625,0.375 0.154,-0.94 0.053,-1.409 -0.344,-1.344 -0.163,0.027 -0.398,0.147 -0.656,0.344 0.154,-0.94 0.053,-1.409 -0.344,-1.344 -0.156,0.026 -0.383,0.132 -0.625,0.313 0.147,-0.92 0.017,-1.377 -0.375,-1.313 -0.16,0.026 -0.405,0.154 -0.656,0.344 0.155,-0.942 0.053,-1.409 -0.344,-1.344 -0.168,0.028 -0.389,0.168 -0.656,0.375 0.162,-0.961 0.057,-1.441 -0.344,-1.375 -0.168,0.028 -0.389,0.168 -0.656,0.375 0.157,-0.948 0.054,-1.44 -0.344,-1.375 -0.168,0.028 -0.389,0.168 -0.656,0.375 0.157,-0.948 0.054,-1.44 -0.344,-1.375 -0.163,0.027 -0.367,0.178 -0.625,0.375 0.154,-0.94 0.053,-1.409 -0.344,-1.344 -0.156,0.026 -0.383,0.132 -0.625,0.313 0.147,-0.92 0.017,-1.377 -0.375,-1.313 -0.16,0.026 -0.405,0.154 -0.656,0.344 0.155,-0.942 0.053,-1.409 -0.344,-1.344 -0.166,0.027 -0.392,0.172 -0.656,0.375 0.162,-0.961 0.057,-1.441 -0.344,-1.375 -0.168,0.028 -0.389,0.168 -0.656,0.375 0.157,-0.948 0.054,-1.44 -0.344,-1.375 -0.168,0.028 -0.389,0.168 -0.656,0.375 0.157,-0.948 0.054,-1.44 -0.344,-1.375 -0.163,0.027 -0.367,0.178 -0.625,0.375 0.154,-0.94 0.053,-1.409 -0.344,-1.344 -0.163,0.027 -0.398,0.147 -0.656,0.344 0.154,-0.94 0.053,-1.409 -0.344,-1.344 -0.156,0.026 -0.383,0.132 -0.625,0.313 0.147,-0.92 0.017,-1.377 -0.375,-1.313 -0.16,0.026 -0.405,0.154 -0.656,0.344 0.155,-0.942 0.053,-1.409 -0.344,-1.344 -0.168,0.028 -0.389,0.168 -0.656,0.375 0.162,-0.961 0.057,-1.441 -0.344,-1.375 -0.168,0.028 -0.389,0.168 -0.656,0.375 0.157,-0.948 0.054,-1.44 -0.344,-1.375 -0.163,0.027 -0.367,0.178 -0.625,0.375 0.154,-0.94 0.053,-1.409 -0.344,-1.344 -0.163,0.027 -0.398,0.147 -0.656,0.344 0.154,-0.94 0.053,-1.409 -0.344,-1.344 -0.156,0.026 -0.383,0.132 -0.625,0.313 0.147,-0.92 0.017,-1.377 -0.375,-1.313 -0.16,0.026 -0.405,0.154 -0.656,0.344 0.155,-0.942 0.053,-1.409 -0.344,-1.344 -0.168,0.028 -0.389,0.168 -0.656,0.375 0.162,-0.961 0.057,-1.441 -0.344,-1.375 -0.168,0.028 -0.389,0.168 -0.656,0.375 0.157,-0.948 0.054,-1.44 -0.344,-1.375 -0.168,0.028 -0.389,0.168 -0.656,0.375 0.157,-0.948 0.054,-1.44 -0.344,-1.375 -0.163,0.027 -0.367,0.178 -0.625,0.375 0.154,-0.94 0.053,-1.409 -0.344,-1.344 -0.156,0.026 -0.383,0.132 -0.625,0.313 0.147,-0.92 0.017,-1.377 -0.375,-1.313 -0.16,0.026 -0.405,0.154 -0.656,0.344 0.155,-0.942 0.053,-1.409 -0.344,-1.344 -0.168,0.028 -0.389,0.168 -0.656,0.375 0.162,-0.961 0.057,-1.441 -0.344,-1.375 -0.168,0.028 -0.389,0.168 -0.656,0.375 0.157,-0.948 0.054,-1.44 -0.344,-1.375 -0.168,0.028 -0.389,0.168 -0.656,0.375 0.157,-0.948 0.054,-1.44 -0.344,-1.375 -0.163,0.027 -0.367,0.178 -0.625,0.375 0.154,-0.94 0.053,-1.409 -0.344,-1.344 -0.163,0.027 -0.398,0.147 -0.656,0.344 0.154,-0.94 0.053,-1.409 -0.344,-1.344 -0.161,0.027 -0.402,0.151 -0.656,0.344 0.155,-0.942 0.053,-1.409 -0.344,-1.344 -0.16,0.026 -0.405,0.154 -0.656,0.344 0.155,-0.942 0.053,-1.409 -0.344,-1.344 -0.168,0.028 -0.389,0.168 -0.656,0.375 0.157,-0.948 0.054,-1.44 -0.344,-1.375 -0.168,0.028 -0.389,0.168 -0.656,0.375 0.157,-0.948 0.054,-1.44 -0.344,-1.375 -0.163,0.027 -0.367,0.178 -0.625,0.375 0.154,-0.94 0.053,-1.409 -0.344,-1.344 -0.163,0.027 -0.398,0.147 -0.656,0.344 0.154,-0.94 0.053,-1.409 -0.344,-1.344 -0.156,0.026 -0.383,0.132 -0.625,0.313 0.147,-0.92 0.017,-1.377 -0.375,-1.313 -0.16,0.026 -0.405,0.154 -0.656,0.344 0.155,-0.942 0.053,-1.409 -0.344,-1.344 -0.168,0.028 -0.389,0.168 -0.656,0.375 0.162,-0.961 0.057,-1.441 -0.344,-1.375 -0.168,0.028 -0.389,0.168 -0.656,0.375 0.157,-0.948 0.054,-1.44 -0.344,-1.375 -0.163,0.027 -0.367,0.178 -0.625,0.375 0.154,-0.94 0.053,-1.409 -0.344,-1.344 -0.163,0.027 -0.398,0.147 -0.656,0.344 0.154,-0.94 0.053,-1.409 -0.344,-1.344 -0.156,0.026 -0.383,0.132 -0.625,0.313 0.147,-0.92 0.017,-1.377 -0.375,-1.313 -0.16,0.026 -0.405,0.154 -0.656,0.344 0.155,-0.942 0.053,-1.409 -0.344,-1.344 -0.168,0.028 -0.389,0.168 -0.656,0.375 0.162,-0.961 0.057,-1.441 -0.344,-1.375 -0.168,0.028 -0.389,0.168 -0.656,0.375 0.157,-0.948 0.054,-1.44 -0.344,-1.375 -0.168,0.028 -0.389,0.168 -0.656,0.375 0.157,-0.948 0.054,-1.44 -0.344,-1.375 -0.163,0.027 -0.367,0.178 -0.625,0.375 0.154,-0.94 0.053,-1.409 -0.344,-1.344 -0.156,0.026 -0.383,0.132 -0.625,0.313 0.147,-0.92 0.017,-1.377 -0.375,-1.313 -0.16,0.026 -0.405,0.154 -0.656,0.344 0.155,-0.942 0.053,-1.409 -0.344,-1.344 -0.166,0.027 -0.392,0.172 -0.656,0.375 0.162,-0.961 0.057,-1.441 -0.344,-1.375 -0.168,0.028 -0.389,0.168 -0.656,0.375 0.157,-0.948 0.054,-1.44 -0.344,-1.375 -0.168,0.028 -0.389,0.168 -0.656,0.375 0.157,-0.948 0.054,-1.44 -0.344,-1.375 -0.163,0.027 -0.367,0.178 -0.625,0.375 0.154,-0.94 0.053,-1.409 -0.344,-1.344 -0.163,0.027 -0.398,0.147 -0.656,0.344 0.154,-0.94 0.053,-1.409 -0.344,-1.344 -0.156,0.026 -0.383,0.132 -0.625,0.313 0.147,-0.92 0.017,-1.377 -0.375,-1.313 -0.16,0.026 -0.405,0.154 -0.656,0.344 0.155,-0.942 0.053,-1.409 -0.344,-1.344 -0.168,0.028 -0.389,0.168 -0.656,0.375 0.162,-0.961 0.057,-1.441 -0.344,-1.375 -0.168,0.028 -0.389,0.168 -0.656,0.375 0.157,-0.948 0.054,-1.44 -0.344,-1.375 -0.163,0.027 -0.367,0.178 -0.625,0.375 0.154,-0.94 0.053,-1.409 -0.344,-1.344 -0.163,0.027 -0.398,0.147 -0.656,0.344 0.154,-0.94 0.053,-1.409 -0.344,-1.344 -0.156,0.026 -0.383,0.132 -0.625,0.313 0.147,-0.92 0.017,-1.377 -0.375,-1.313 -0.16,0.026 -0.405,0.154 -0.656,0.344 0.155,-0.942 0.053,-1.409 -0.344,-1.344 -0.168,0.028 -0.389,0.168 -0.656,0.375 0.162,-0.961 0.057,-1.441 -0.344,-1.375 -0.168,0.028 -0.389,0.168 -0.656,0.375 0.157,-0.948 0.054,-1.44 -0.344,-1.375 -0.163,0.027 -0.367,0.178 -0.625,0.375 0.156,-0.945 0.022,-1.44 -0.375,-1.375 -0.163,0.027 -0.367,0.178 -0.625,0.375 0.154,-0.94 0.053,-1.409 -0.344,-1.344 -0.156,0.026 -0.383,0.132 -0.625,0.313 0.147,-0.92 0.017,-1.377 -0.375,-1.313 -0.16,0.026 -0.405,0.154 -0.656,0.344 0.155,-0.942 0.053,-1.409 -0.344,-1.344 -0.168,0.028 -0.389,0.168 -0.656,0.375 0.162,-0.961 0.057,-1.441 -0.344,-1.375 -0.168,0.028 -0.389,0.168 -0.656,0.375 0.157,-0.948 0.054,-1.44 -0.344,-1.375 -0.168,0.028 -0.389,0.168 -0.656,0.375 0.157,-0.948 0.054,-1.44 -0.344,-1.375 -0.163,0.027 -0.367,0.178 -0.625,0.375 0.154,-0.94 0.053,-1.409 -0.344,-1.344 -0.163,0.027 -0.398,0.147 -0.656,0.344 0.154,-0.94 0.053,-1.409 -0.344,-1.344 -0.16,0.026 -0.405,0.154 -0.656,0.344 0.155,-0.942 0.053,-1.409 -0.344,-1.344 -0.16,0.026 -0.405,0.154 -0.656,0.344 0.155,-0.942 0.053,-1.409 -0.344,-1.344 -0.168,0.028 -0.389,0.168 -0.656,0.375 0.157,-0.948 0.054,-1.44 -0.344,-1.375 -0.168,0.028 -0.389,0.168 -0.656,0.375 0.157,-0.948 0.054,-1.44 -0.344,-1.375 -0.163,0.027 -0.367,0.178 -0.625,0.375 0.154,-0.94 0.053,-1.409 -0.344,-1.344 -0.163,0.027 -0.398,0.147 -0.656,0.344 0.154,-0.94 0.053,-1.409 -0.344,-1.344 -0.156,0.026 -0.383,0.132 -0.625,0.313 0.147,-0.92 0.017,-1.377 -0.375,-1.313 -0.16,0.026 -0.405,0.154 -0.656,0.344 0.155,-0.942 0.053,-1.409 -0.344,-1.344 -0.168,0.028 -0.389,0.168 -0.656,0.375 0.162,-0.960999 0.057,-1.440999 -0.344,-1.374999 -0.168,0.028 -0.389,0.168 -0.656,0.375 0.157,-0.948 0.054,-1.44 -0.344,-1.375 -0.163,0.027 -0.367,0.178 -0.625,0.375 0.154,-0.94 0.053,-1.409 -0.344,-1.344 -0.163,0.027 -0.398,0.147 -0.656,0.344 0.154,-0.94 0.053,-1.409 -0.344,-1.344 -0.156,0.026 -0.383,0.132 -0.625,0.313 0.147,-0.92 0.017,-1.377 -0.375,-1.313 -0.16,0.026 -0.405,0.154 -0.656,0.344 0.155,-0.942 0.053,-1.409 -0.344,-1.344" />
  <g
     id="g68"
     fill="#fff"
     transform="matrix(-1.1159 0 0 1.1159 2670 -1.363)"
     fill-rule="evenodd">
    <path
       id="path70"
       d="m2130.6 83.25c-0.435-0.072-0.495 0.538-0.188 1.813 2.032 8.435 2.89 20.577 2.438 34.19-0.556 16.73-1.934 23.23-10.25 48.47-5.825 17.677-6.21 20.754-3.531 26.875 1.171 2.674 3.953 7.605 6.219 10.969l4.125 6.125 8.594-8.719c4.729-4.799 11.212-10.379 14.375-12.375l5.75-3.625v-12.25c0-13.614-2.184-36.742-4.5-47.75-2.604-12.381-8.726-25.411-17.688-37.688-2.855-3.912-4.618-5.912-5.344-6.03" />
    <path
       id="path72"
       d="m2259.6 98.78-11.5 14.281c-12.717 15.774-31.717 35.487-42.5 44.09-3.85 3.073-13.3 9.733-21 14.813-22.509 14.85-37.624 26.729-46.969 36.906-2.226 2.424-4.51 4.899-5.094 5.5-0.583 0.601-2.352 3.691-3.906 6.875-3.517 7.205-4.226 16.09-2.219 27.22 0.794 4.4 1.294 8.153 1.125 8.344s-1.284-2.734-2.469-6.5c-2.937-9.336-3.044-21.72-0.25-29.75l2.063-5.906-6-7.594c-6.845-8.665-9.826-14.14-12.188-22.344-2.941-10.212-9.1-14.75-20-14.75-9.509 0-17.891 6.529-20.313 15.875-0.729 2.813-1.682 3.664-6.25 5.5-2.97 1.194-5.541 2.623-5.719 3.156-0.177 0.533 1.781 2.095 4.375 3.469 11.762 6.23 16.256 13.983 19.688 34.13 3.745 21.979 15.873 47.27 28.28 59 7.555 7.142 18.472 12.287 33.594 15.813 7.482 1.745 12.707 2.51 31.375 4.656 3.437 0.395 5.995 2.02 15 9.563 5.971 5 14.925 12.373 19.875 16.375 4.95 4 14.175 11.642 20.5 16.969l11.5 9.688 6.281-0.625c3.465-0.348 8.776-1.563 11.781-2.688 12.08-4.518 16.197-11.671 17.938-31.03l0.719-7.656-14.875-7.219c-8.172-3.965-20.919-10.02-28.344-13.469-22.404-10.396-28.22-13.09-35.06-16.344-5.771-2.741-7.175-4.03-11.844-10.719-4.068-5.826-5.703-7.422-6.969-6.875-4.361 1.883-12.15 2.712-15.344 1.625l-3.281-1.125 3.156 0.531c4.606 0.763 10.838-1.232 14.844-4.75 5.084-4.464 5.208-6.456 0.906-14.281-3.628-6.601-3.661-6.786-1.813-8.594 1.038-1.016 6.828-4.805 12.844-8.438 16.728-10.1 26.07-17.13 36.594-27.531 17.805-17.593 26.26-34.27 30.375-59.813 1.87-11.612 2.931-35.11 1.875-41.531l-0.781-4.844m-175.91 88.28c0.718-0.001 1.431 0.494 2.469 1.531 1.842 1.842 1.946 2.353 0.781 4.219-1.395 2.233-3.433 2.679-5.688 1.25-1.772-1.123-1.121-5.131 1.063-6.5 0.513-0.322 0.944-0.5 1.375-0.5m102.16 108c0.672 0.023 1.242 0.564 2.094 1.813 1.62 2.374 5.323 11.26 4.875 11.688-0.124 0.119-1.793-0.602-3.719-1.594-6.863-3.534-9.01-8.801-4.656-11.406 0.569-0.34 1-0.514 1.406-0.5" />
    <path
       id="path74"
       d="m2171 312.19c-0.968-0.051-1.944 0.351-2.937 1.25-2.61 2.362-2.531 4.812 0.25 7.969 2.453 2.784 9.211 6.437 12 6.5 1.619 0.037 1.582-0.105-0.156-1.844-1.034-1.034-2.646-4.209-3.594-7.06-1.444-4.346-3.433-6.699-5.563-6.813" />
  </g>
</svg>
