<?xml version="1.0" encoding="UTF-8" standalone="no"?>
<svg xmlns="http://www.w3.org/2000/svg" height="512" viewBox="0 0 512 512" width="512" version="1.1">
 <metadata id="metadata72"/>
 <path id="path4" d="m471.95 253.05c0 120.9-98.01 218.9-218.9 218.9-120.9 0-218.9-98.01-218.9-218.9 0-120.9 98.01-218.9 218.9-218.9 120.9 0 218.9 98.01 218.9 218.9" fill-rule="evenodd" fill="#BF9E73"/>
 <path id="path6" fill-opacity="0.235" d="m339.9 139.75c-16.11-0.05-20.01 29.472-24.608 23.719-11.714-11.714-18.351-17.246-24.319-23.25-3.511 0.411-13.192 1.172-19.781 0-36.765 0.27-73.66-0.4-110.34 0.5-24.622 4.269-32.09 39.715-11.219 53.5 11.133 10.234 22.342 20.424 33.469 30.688-29.933-12.22-60.45 27.471-39.469 52.75 11.823 12.955 24.815 24.811 37.16 37.28-23.495-4.412-51.61 14.932-41.688 40.75 9.518 16.505 25.847 27.774 38.844 41.594 25.643 24.84 51.45 49.549 76.875 74.66 120.08-0.958 217.13-98.57 217.13-218.87 0-0.376 0.002-0.75 0-1.125-36.481-36.516-72.992-73.02-109.62-109.37-4.867-3.851-11.183-6.04-17.406-5.688-1.891-0.768-3.344 2.881-5.01 2.875"/>
 <g id="g8" fill-rule="evenodd">
  <path id="path10" fill-opacity="0.067" d="m256 1c-140.83 0-255 114.17-255 255s114.17 255 255 255 255-114.17 255-255-114.17-255-255-255m8.827 44.931c120.9 0 218.9 98 218.9 218.9s-98 218.9-218.9 218.9-218.93-98-218.93-218.9 98.03-218.9 218.93-218.9"/>
  <g id="g12" fill-opacity="0.129">
   <path id="path14" d="m256 4.433c-138.94 0-251.57 112.63-251.57 251.57s112.63 251.57 251.57 251.57 251.57-112.63 251.57-251.57-112.63-251.57-251.57-251.57m5.885 38.556c120.9 0 218.9 98 218.9 218.9s-98 218.9-218.9 218.9-218.93-98-218.93-218.9 98.03-218.9 218.93-218.9"/>
   <path id="path16" d="m256 8.356c-136.77 0-247.64 110.87-247.64 247.64s110.87 247.64 247.64 247.64 247.64-110.87 247.64-247.64-110.87-247.64-247.64-247.64m2.942 31.691c120.9 0 218.9 98 218.9 218.9s-98 218.9-218.9 218.9-218.93-98-218.93-218.9 98.03-218.9 218.93-218.9"/>
  </g>
  <path id="path18" d="m253.04 7.859c-135.42 0-245.19 109.78-245.19 245.19 0 135.42 109.78 245.19 245.19 245.19 135.42 0 245.19-109.78 245.19-245.19 0-135.42-109.78-245.19-245.19-245.19zm0 26.297c120.9 0 218.9 98 218.9 218.9s-98 218.9-218.9 218.9-218.93-98-218.93-218.9 98.03-218.9 218.93-218.9z" stroke-opacity="0.31" stroke="#000" stroke-width="4.904" fill="#fff"/>
 </g>
 <path id="path66" fill="#fff" d="m344.91 136.89c-4.252 0-5.174 0.119-7.691 0.785-5.03 1.33-8.91 3.628-12.399 7.298-5.533 5.82-8.875 14.412-9.888 25.348-0.417 4.496-0.417 166.83 0 171.08 0.668 6.796 2.238 12.499 4.709 17.579 4.141 8.513 10.877 13.751 19.933 15.381h0.078c0.747 0.134 3.482 0.131 6.121 0.078 4.185-0.082 5.114-0.194 7.377-0.863 12.716-3.76 20.2-14.97 21.738-32.803 0.232-2.671 0.224-27.739 0.157-87.42-0.105-92.2 0.06-85.06-1.805-92.44-3.135-12.423-10.312-20.478-20.718-23.23-2.517-0.665-3.36-0.785-7.612-0.785m-53.834 3.296-64.51 0.078-64.43 0.078-2.197 0.628c-5.953 1.719-9.59 3.779-13.733 7.848-4.675 4.591-7.143 9.02-8.397 15.15-3.5 17.09 8.465 33.415 26.05 35.549 1.761 0.214 12.958 0.313 34.29 0.314 24.279 0.001 31.83 0.049 32.1 0.314 0.465 0.459 0.461 59.06 0 63.25-2.203 20.03-14.469 37.412-32.646 46.22-3.406 1.651-7.833 3.33-11.457 4.238-4.732 1.185-7.457 1.479-15.46 1.726-6.761 0.209-8.354 0.327-10.437 0.863-10.958 2.822-19.2 10.897-22.05 21.581-0.615 2.308-0.756 3.427-0.785 6.906-0.02 2.541 0.149 4.973 0.392 6.2 2.341 11.7 11.501 20.933 23.307 23.464 2.524 0.541 3.512 0.583 11.928 0.471 9.329-0.124 12.976-0.451 19.776-1.648 48.945-8.615 87.61-46.764 96.37-95.11 1.85-10.204 1.707-5.637 1.805-74.944l0.078-63.17m-121.24 82.949c-3.114 0.081-5.499 0.554-8.475 1.491-5.451 1.716-11.328 5.351-14.91 9.182-9.696 10.369-12.254 25.26-6.435 37.904 2.372 5.155 7.339 11.07 12.01 14.204 4.131 2.775 9.471 4.825 14.283 5.572 14.05 2.182 28.23-4.434 35.471-16.558 5.959-9.973 6.369-22.573 1.099-32.96-3.451-6.802-9.982-12.896-17.11-16.01-4.147-1.812-7.545-2.568-12.478-2.747-1.247-0.045-2.415-0.105-3.453-0.078"/>
</svg>
