<?xml version="1.0" encoding="UTF-8" standalone="no"?>
<svg xmlns="http://www.w3.org/2000/svg" height="512" viewBox="0 0 512 512" width="512" version="1.1" xmlns:xlink="http://www.w3.org/1999/xlink">
 <metadata id="metadata37"/>
 <defs id="defs4">
  <path id="0" d="m293.81 491.89c0 28.02-22.716 50.738-50.738 50.738-28.02 0-50.738-22.716-50.738-50.738 0-28.02 22.716-50.738 50.738-50.738 28.02 0 50.738 22.716 50.738 50.738" fill-rule="evenodd" fill="#fff"/>
 </defs>
 <g id="g7" transform="matrix(.98077 0 0 .98077 -111.85 -263.01)">
  <g id="g9" transform="translate(-1750.5)">
   <g id="g11" fill-rule="evenodd">
    <path id="path13" d="m280 423.79c0 78.898-63.959 142.86-142.86 142.86-78.898 0-142.86-63.959-142.86-142.86 0-78.898 63.959-142.86 142.86-142.86 78.898 0 142.86 63.959 142.86 142.86" fill="#BF9E73" transform="matrix(1.5624 0 0 1.5624 1908.2 -135.93)"/>
    <path id="path15" fill-opacity="0.235" d="m1993.5 475.44c-28.02 0-50.719 22.728-50.719 50.75 0 14.337 5.944 27.28 15.5 36.5 0.586 0.614 1.197 1.197 1.813 1.781 0.426 0.439 0.84 0.889 1.281 1.313 0.475 0.495 0.975 0.962 1.469 1.438 0.498 0.52 1.012 1.033 1.531 1.531 0.552 0.575 1.109 1.139 1.688 1.688 0.426 0.439 0.84 0.889 1.281 1.313 0.475 0.495 0.975 0.962 1.469 1.438 0.498 0.52 1.012 1.033 1.531 1.531 0.552 0.575 1.109 1.139 1.688 1.688 0.426 0.439 0.84 0.889 1.281 1.313 0.424 0.442 0.873 0.855 1.313 1.281 0.549 0.579 1.112 1.135 1.688 1.688 0.552 0.575 1.109 1.139 1.688 1.688 0.426 0.439 0.84 0.889 1.281 1.313 0.424 0.442 0.873 0.855 1.313 1.281 0.549 0.579 1.112 1.135 1.688 1.688 0.498 0.519 1.01 1.034 1.531 1.531 0.475 0.494 0.943 0.994 1.438 1.469 0.424 0.442 0.873 0.855 1.313 1.281 0.549 0.579 1.112 1.135 1.688 1.688 0.452 0.471 0.905 0.953 1.375 1.406 0.586 0.614 1.197 1.197 1.813 1.781 0.426 0.439 0.84 0.889 1.281 1.313 0.475 0.495 0.975 0.962 1.469 1.438 0.498 0.52 1.012 1.033 1.531 1.531 0.552 0.575 1.109 1.139 1.688 1.688 0.426 0.439 0.84 0.889 1.281 1.313 0.475 0.495 0.975 0.962 1.469 1.438 0.498 0.52 1.012 1.033 1.531 1.531 0.552 0.575 1.109 1.139 1.688 1.688 0.426 0.439 0.84 0.889 1.281 1.313 0.424 0.442 0.873 0.855 1.313 1.281 0.549 0.579 1.112 1.135 1.688 1.688 0.552 0.575 1.109 1.139 1.688 1.688 0.426 0.439 0.84 0.889 1.281 1.313 0.424 0.442 0.873 0.855 1.313 1.281 0.549 0.579 1.112 1.135 1.688 1.688 0.498 0.519 1.012 1.034 1.531 1.531 0.475 0.494 0.943 0.994 1.438 1.469 0.424 0.442 0.873 0.855 1.313 1.281 0.549 0.579 1.112 1.135 1.688 1.688 0.498 0.519 1.01 1.034 1.531 1.531 0.475 0.494 0.943 0.994 1.438 1.469 0.424 0.442 0.873 0.855 1.313 1.281 0.584 0.615 1.167 1.227 1.781 1.813 0.454 0.47 0.935 0.923 1.406 1.375 0.552 0.575 1.109 1.139 1.688 1.688 0.426 0.439 0.84 0.889 1.281 1.313 0.475 0.495 0.975 0.962 1.469 1.438 0.498 0.52 1.012 1.033 1.531 1.531 0.552 0.575 1.109 1.139 1.688 1.688 0.426 0.439 0.84 0.889 1.281 1.313 0.424 0.442 0.873 0.855 1.313 1.281 0.549 0.579 1.112 1.135 1.688 1.688 0.552 0.575 1.109 1.139 1.688 1.688 0.426 0.439 0.84 0.889 1.281 1.313 0.424 0.442 0.873 0.855 1.313 1.281 0.549 0.579 1.112 1.135 1.688 1.688 0.498 0.519 1.01 1.034 1.531 1.531 0.475 0.494 0.943 0.994 1.438 1.469 0.424 0.442 0.873 0.855 1.313 1.281 0.549 0.579 1.112 1.135 1.688 1.688 0.498 0.519 1.012 1.034 1.531 1.531 0.475 0.494 0.943 0.994 1.438 1.469 0.424 0.442 0.873 0.855 1.313 1.281 0.584 0.615 1.167 1.227 1.781 1.813 0.42 0.435 0.846 0.862 1.281 1.281 0.586 0.614 1.197 1.197 1.813 1.781 0.426 0.439 0.84 0.889 1.281 1.313 0.475 0.495 0.974 0.962 1.469 1.438 0.498 0.52 1.012 1.033 1.531 1.531 0.552 0.575 1.109 1.139 1.688 1.688 0.426 0.439 0.84 0.889 1.281 1.313 0.475 0.495 0.974 0.962 1.469 1.438 0.498 0.52 1.012 1.033 1.531 1.531 0.552 0.575 1.109 1.139 1.688 1.688 0.426 0.439 0.84 0.889 1.281 1.313 0.424 0.442 0.873 0.855 1.313 1.281 0.549 0.579 1.112 1.135 1.688 1.688 0.552 0.575 1.109 1.139 1.688 1.688 0.426 0.439 0.84 0.889 1.281 1.313 0.424 0.442 0.873 0.855 1.313 1.281 0.549 0.579 1.112 1.135 1.688 1.688 0.498 0.519 1.01 1.034 1.531 1.531 0.475 0.494 0.943 0.994 1.438 1.469 0.424 0.442 0.873 0.855 1.313 1.281 0.549 0.579 1.112 1.135 1.688 1.688 0.452 0.471 0.905 0.953 1.375 1.406 0.586 0.614 1.197 1.197 1.813 1.781 0.426 0.439 0.84 0.889 1.281 1.313 0.475 0.495 0.974 0.962 1.469 1.438 0.498 0.52 1.012 1.033 1.531 1.531 0.552 0.575 1.109 1.139 1.688 1.688 0.426 0.439 0.84 0.889 1.281 1.313 0.475 0.495 0.974 0.962 1.469 1.438 0.498 0.52 1.012 1.033 1.531 1.531 0.552 0.575 1.109 1.139 1.688 1.688 0.426 0.439 0.84 0.889 1.281 1.313 0.424 0.442 0.873 0.855 1.313 1.281 0.549 0.579 1.112 1.135 1.688 1.688 0.552 0.575 1.109 1.139 1.688 1.688 0.426 0.439 0.84 0.889 1.281 1.313 0.424 0.442 0.873 0.855 1.313 1.281 0.549 0.579 1.112 1.135 1.688 1.688 0.498 0.519 1.012 1.034 1.531 1.531 0.475 0.494 0.943 0.994 1.438 1.469 0.424 0.442 0.873 0.855 1.313 1.281 0.549 0.579 1.112 1.135 1.688 1.688 0.498 0.519 1.01 1.034 1.531 1.531 0.475 0.494 0.943 0.994 1.438 1.469 0.424 0.442 0.873 0.855 1.313 1.281 0.584 0.615 1.167 1.227 1.781 1.813 0.454 0.47 0.935 0.923 1.406 1.375 0.552 0.575 1.109 1.139 1.688 1.688 0.426 0.439 0.84 0.889 1.281 1.313 0.475 0.495 0.974 0.962 1.469 1.438 0.498 0.52 1.012 1.033 1.531 1.531 0.552 0.575 1.109 1.139 1.688 1.688 0.426 0.439 0.84 0.889 1.281 1.313 0.424 0.442 0.873 0.855 1.313 1.281 0.549 0.579 1.112 1.135 1.688 1.688 0.552 0.575 1.109 1.139 1.688 1.688 0.426 0.439 0.84 0.889 1.281 1.313 0.424 0.442 0.873 0.855 1.313 1.281 0.224 0.236 0.459 0.458 0.688 0.688 105.64-10.09 189.81-93.8 200.56-199.25-0.492-0.509-0.985-1.012-1.5-1.5-0.427-0.44-0.839-0.888-1.281-1.313-0.475-0.495-0.974-0.962-1.469-1.438-0.498-0.52-1.012-1.033-1.531-1.531-0.499-0.52-1.01-1.033-1.531-1.531-0.476-0.495-0.942-0.994-1.438-1.469-0.475-0.495-0.974-0.962-1.469-1.438-0.498-0.52-1.012-1.033-1.531-1.531-0.499-0.52-1.01-1.033-1.531-1.531-0.476-0.495-0.942-0.994-1.438-1.469-0.424-0.442-0.873-0.855-1.313-1.281-0.549-0.579-1.112-1.135-1.688-1.688-0.499-0.52-1.01-1.033-1.531-1.531-0.476-0.495-0.942-0.994-1.438-1.469-0.424-0.442-0.873-0.855-1.313-1.281-0.549-0.579-1.112-1.135-1.688-1.688-0.486-0.507-0.993-1.014-1.5-1.5-0.553-0.576-1.108-1.138-1.688-1.688-0.427-0.44-0.839-0.888-1.281-1.313-0.424-0.442-0.873-0.855-1.313-1.281-0.544-0.573-1.117-1.14-1.688-1.688-0.553-0.576-1.108-1.138-1.688-1.688-0.427-0.44-0.839-0.888-1.281-1.313-0.475-0.495-0.974-0.962-1.469-1.438-0.498-0.52-1.012-1.033-1.531-1.531-0.553-0.576-1.108-1.138-1.688-1.688-0.427-0.44-0.839-0.888-1.281-1.313-0.475-0.495-0.974-0.962-1.469-1.438-0.498-0.52-1.012-1.033-1.531-1.531-0.499-0.52-1.01-1.033-1.531-1.531-0.476-0.495-0.942-0.994-1.438-1.469-0.424-0.442-0.873-0.855-1.313-1.281-0.549-0.579-1.112-1.135-1.688-1.688-0.499-0.52-1.01-1.033-1.531-1.531-0.476-0.495-0.942-0.994-1.438-1.469-0.424-0.442-0.873-0.855-1.313-1.281-0.549-0.579-1.112-1.135-1.688-1.688-0.547-0.57-1.115-1.143-1.688-1.688-0.427-0.44-0.839-0.888-1.281-1.313-9.237-9.63-22.23-15.625-36.625-15.625-28.02 0-50.719 22.728-50.719 50.75 0 1.751 0.077 3.482 0.25 5.188-0.101-0.097-0.211-0.185-0.313-0.281-0.402-0.413-0.803-0.819-1.219-1.219-0.439-0.458-0.887-0.902-1.344-1.344-0.486-0.511-0.993-1.01-1.5-1.5-0.579-0.609-1.172-1.201-1.781-1.781-0.429-0.444-0.868-0.885-1.313-1.313-0.541-0.565-1.09-1.117-1.656-1.656-0.4-0.414-0.805-0.819-1.219-1.219-0.58-0.609-1.172-1.201-1.781-1.781-0.49-0.507-0.989-1.013-1.5-1.5-0.441-0.457-0.886-0.904-1.344-1.344-0.439-0.458-0.887-0.902-1.344-1.344-0.579-0.609-1.172-1.201-1.781-1.781-0.49-0.507-0.989-1.013-1.5-1.5-0.441-0.457-0.886-0.904-1.344-1.344-0.439-0.458-0.887-0.902-1.344-1.344-0.58-0.609-1.172-1.201-1.781-1.781-0.49-0.507-0.989-1.013-1.5-1.5-0.441-0.457-0.886-0.904-1.344-1.344-0.439-0.458-0.887-0.902-1.344-1.344-0.486-0.511-0.993-1.01-1.5-1.5-0.579-0.609-1.172-1.201-1.781-1.781-0.441-0.457-0.886-0.904-1.344-1.344-0.439-0.458-0.887-0.902-1.344-1.344-0.486-0.511-0.993-1.01-1.5-1.5-0.58-0.609-1.172-1.201-1.781-1.781-0.49-0.507-0.989-1.013-1.5-1.5-0.441-0.455-0.887-0.905-1.344-1.344-9.229-9.624-22.21-15.625-36.594-15.625-28.02 0-50.75 22.728-50.75 50.75 0 2.379 0.183 4.709 0.5 7-0.058-0.057-0.129-0.1-0.188-0.156-0.54-0.568-1.091-1.114-1.656-1.656-0.499-0.52-1.01-1.033-1.531-1.531-0.476-0.495-0.942-0.994-1.438-1.469-0.424-0.442-0.873-0.855-1.313-1.281-0.549-0.579-1.112-1.135-1.688-1.688-0.486-0.507-0.993-1.014-1.5-1.5-0.553-0.576-1.108-1.138-1.688-1.688-0.427-0.44-0.839-0.888-1.281-1.313-0.424-0.442-0.873-0.855-1.313-1.281-0.544-0.573-1.117-1.14-1.688-1.688-0.553-0.576-1.108-1.138-1.688-1.688-0.427-0.44-0.839-0.888-1.281-1.313-0.475-0.495-0.974-0.962-1.469-1.438-0.498-0.52-1.012-1.033-1.531-1.531-0.553-0.576-1.108-1.138-1.688-1.688-0.427-0.44-0.839-0.888-1.281-1.313-0.475-0.495-0.974-0.962-1.469-1.438-0.498-0.52-1.012-1.033-1.531-1.531-0.499-0.52-1.01-1.033-1.531-1.531-0.476-0.495-0.942-0.994-1.438-1.469-0.424-0.442-0.873-0.855-1.313-1.281-0.549-0.579-1.112-1.135-1.688-1.688-0.499-0.52-1.01-1.033-1.531-1.531-0.476-0.495-0.942-0.994-1.438-1.469-0.424-0.442-0.873-0.855-1.313-1.281-0.549-0.579-1.112-1.135-1.688-1.688-0.547-0.57-1.115-1.143-1.688-1.688-0.427-0.44-0.839-0.888-1.281-1.313-9.237-9.63-22.23-15.625-36.625-15.625"/>
   </g>
   <use id="use17" xlink:href="#0" transform="translate(1750.5 34.3)" height="1" width="1"/>
   <use id="use19" xlink:href="#0" transform="translate(1879.4 34.3)" height="1" width="1"/>
   <use id="use21" xlink:href="#0" transform="translate(2006.9 34.3)" height="1" width="1"/>
  </g>
  <g id="g23" fill-rule="evenodd">
   <path id="path25" fill-opacity="0.067" d="m375.06 269.19c-143.59 0-260 116.41-260 260s116.41 260 260 260 260-116.41 260-260-116.41-260-260-260m9 45.813c123.27 0 223.19 99.92 223.19 223.19s-99.92 223.19-223.19 223.19-223.22-99.92-223.22-223.19 99.95-223.19 223.22-223.19"/>
   <g id="g27" fill-opacity="0.129">
    <path id="path29" d="m375.06 272.69c-141.66 0-256.5 114.84-256.5 256.5s114.84 256.5 256.5 256.5 256.5-114.84 256.5-256.5-114.84-256.5-256.5-256.5m6 39.31c123.27 0 223.19 99.92 223.19 223.19s-99.92 223.19-223.19 223.19-223.22-99.92-223.22-223.19 99.95-223.19 223.22-223.19"/>
    <path id="path31" d="m375.06 276.69c-139.45 0-252.5 113.05-252.5 252.5s113.05 252.5 252.5 252.5 252.5-113.05 252.5-252.5-113.05-252.5-252.5-252.5m3 32.31c123.27 0 223.19 99.92 223.19 223.19s-99.92 223.19-223.19 223.19-223.22-99.92-223.22-223.19 99.95-223.19 223.22-223.19"/>
   </g>
   <path id="path33" d="m372.05 276.18c-138.07 0-250 111.93-250 250s111.93 250 250 250 250-111.93 250-250-111.93-250-250-250zm0 26.813c123.27 0 223.19 99.92 223.19 223.19s-99.92 223.19-223.19 223.19-223.22-99.92-223.22-223.19 99.95-223.19 223.22-223.19z" stroke-opacity="0.31" stroke="#000" stroke-width="5" fill="#fff"/>
  </g>
 </g>
</svg>
