<?xml version="1.0" encoding="UTF-8" standalone="no"?>
<svg xmlns="http://www.w3.org/2000/svg" xmlns:sodipodi="http://sodipodi.sourceforge.net/DTD/sodipodi-0.dtd" xmlns:inkscape="http://www.inkscape.org/namespaces/inkscape" width="1814.17" height="1814.17" viewBox="0 0 512 512" version="1.1">
 <metadata id="metadata6674"/>
 <g inkscape:label="Layer 1" inkscape:groupmode="layer" id="layer1" transform="translate(0,215.00001)">
  <g id="g6699" transform="matrix(3.794349,0,0,3.794349,-418.06157,-678.61639)">
   <g id="g6576" transform="matrix(0.26458334,0,0,0.26458334,109.91547,121.92143)" fill-rule="evenodd">
    <path d="m 471.95,253.05 c 0,120.9 -98.01,218.91 -218.91,218.91 -120.9,0 -218.91,-98.01 -218.91,-218.91 0,-120.9 98.01,-218.91 218.91,-218.91 120.9,0 218.91,98.01 218.91,218.91" id="path6578" inkscape:connector-curvature="0" fill="#BF9E73"/>
    <path d="M 256,1 C 115.17,1 1,115.17 1,256 1,396.83 115.17,511 256,511 396.83,511 511,396.83 511,256 511,115.17 396.83,1 256,1 m 8.827,44.931 c 120.9,0 218.9,98 218.9,218.9 0,120.9 -98,218.9 -218.9,218.9 -120.9,0 -218.93,-98 -218.93,-218.9 0,-120.9 98.03,-218.9 218.93,-218.9" id="path6580" inkscape:connector-curvature="0" fill-opacity="0.067"/>
    <g id="g6582" fill-opacity="0.129">
     <path d="M 256,4.43 C 117.06,4.43 4.43,117.06 4.43,256 4.43,394.94 117.06,507.57 256,507.57 394.94,507.57 507.57,394.94 507.57,256 507.57,117.06 394.94,4.43 256,4.43 m 5.885,38.556 c 120.9,0 218.9,98 218.9,218.9 0,120.9 -98,218.9 -218.9,218.9 -120.9,0 -218.93,-98 -218.93,-218.9 0,-120.9 98.03,-218.9 218.93,-218.9" id="path6584" inkscape:connector-curvature="0"/>
     <path d="M 256,8.36 C 119.23,8.36 8.36,119.23 8.36,256 8.36,392.77 119.23,503.64 256,503.64 392.77,503.64 503.64,392.77 503.64,256 503.64,119.23 392.77,8.36 256,8.36 m 2.942,31.691 c 120.9,0 218.9,98 218.9,218.9 0,120.9 -98,218.9 -218.9,218.9 -120.9,0 -218.93,-98 -218.93,-218.9 0,-120.9 98.03,-218.9 218.93,-218.9" id="path6586" inkscape:connector-curvature="0"/>
    </g>
    <path d="M 253.04,7.86 C 117.62,7.86 7.85,117.64 7.85,253.05 c 0,135.42 109.78,245.19 245.19,245.19 135.42,0 245.19,-109.78 245.19,-245.19 C 498.23,117.63 388.45,7.86 253.04,7.86 m 0,26.297 c 120.9,0 218.9,98 218.9,218.9 0,120.9 -98,218.9 -218.9,218.9 -120.9,0 -218.93,-98 -218.93,-218.9 0,-120.9 98.03,-218.9 218.93,-218.9 z" id="path6588" inkscape:connector-curvature="0" stroke-opacity="0.31" fill="#ffffff" stroke="#000000" stroke-width="4.904"/>
   </g>
   <path d="m 133.86027,172.29281 0,34.72656 39.67956,39.67957 c 1.1012,0.0624 2.2098,0.0971 3.32634,0.0971 30.29215,0 55.1471,-23.25423 57.69769,-52.88227 l -14.31925,-14.31925 c -1.07739,-1.07739 -2.69955,-1.69678 -4.07512,-1.76107 -0.0524,-0.002 -0.10504,2.6e-4 -0.15769,-5.3e-4 l -5.53932,-5.53932 -8.70637,0 0,6.70296 -4.36351,-4.36351 c -0.2368,-0.2368 -0.49953,-0.45429 -0.78766,-0.65273 -1.61687,-1.12659 -2.99165,-1.68672 -8.65691,-1.68672 l -9.53293,0 0,4.48972 -4.48972,-4.48972 -11.53424,0 -0.52388,4.32118 -4.32117,-4.32118 -10.93788,0 0,4.23334 -4.23333,-4.23334 -8.52488,0" id="path6636" inkscape:connector-curvature="0" opacity="0.25"/>
   <path d="m 133.86027,172.29281 0,34.72656 8.52487,0 0,-34.72656 -8.52487,0 m 12.7582,0 0,34.72656 7.67292,0 0,-19.49714 3.58855,19.49714 5.28346,0 3.50573,-19.49714 0,19.49714 7.26784,0 0,-34.72656 -11.53425,0 -1.98437,16.37109 -2.86094,-16.37109 -10.93788,0 m 31.80821,0 0,34.72656 9.56734,0 c 5.43771,0 7.25963,-0.60007 8.78945,-1.8026 1.51183,-1.20253 2.26563,-2.89216 2.26563,-5.0509 l 0,-21.0185 c 0,-2.32622 -0.81095,-4.05262 -2.43099,-5.16758 -1.61687,-1.12659 -2.99164,-1.68672 -8.6569,-1.68672 l -9.53294,0 m 23.34154,0 0,34.72657 7.02813,0 c 0,0 0.54028,-2.06507 1.13268,-1.80261 0.59822,0.25691 3.61579,1.52136 5.69674,1.52136 2.08095,0 2.921,-0.136 3.93568,-0.56224 1.24327,-0.82603 1.86796,-1.94654 1.86796,-3.36524 l 0,-20.19829 c 0.21299,-2.90989 -2.88846,-4.66805 -5.2586,-4.77838 -2.37305,-0.10795 -4.81833,1.4277 -5.69674,2.41433 l 0,-7.95338 -8.70638,0 m -14.57589,5.53138 c 1.32556,-0.006 2.72864,0.0648 2.72864,1.54623 l 0,20.36471 c 0,1.64333 -1.83726,1.42214 -3.29088,1.42214 l 0,-23.32567 c 0.18177,0 0.37306,-0.007 0.56224,-0.008 m 24.48189,4.43177 c 0.7911,0 1.19062,0.42651 1.19062,1.28164 l 0,17.4969 c -0.003,0.85063 -0.40216,1.4388 -1.19062,1.4388 -0.80275,0 -1.20729,-0.59187 -1.20729,-1.447 l 0,-17.53659 c 0,-0.82021 0.39872,-1.2319 1.20729,-1.2319" id="path6638" inkscape:connector-curvature="0" fill="#ffffff"/>
  </g>
 </g>
</svg>
