<?xml version="1.0" encoding="UTF-8" standalone="no"?>
<svg
   xmlns:dc="http://purl.org/dc/elements/1.1/"
   xmlns:cc="http://creativecommons.org/ns#"
   xmlns:rdf="http://www.w3.org/1999/02/22-rdf-syntax-ns#"
   xmlns:svg="http://www.w3.org/2000/svg"
   xmlns="http://www.w3.org/2000/svg"
   xmlns:sodipodi="http://sodipodi.sourceforge.net/DTD/sodipodi-0.dtd"
   xmlns:inkscape="http://www.inkscape.org/namespaces/inkscape"
   height="512"
   viewBox="0 0 512 512"
   width="512"
   version="1.1"
   id="svg2"
   inkscape:version="0.91 r"
   sodipodi:docname="gnome-weather.svg">
  <defs
     id="defs18" />
  <sodipodi:namedview
     pagecolor="#ffffff"
     bordercolor="#666666"
     borderopacity="1"
     objecttolerance="10"
     gridtolerance="10"
     guidetolerance="10"
     inkscape:pageopacity="0"
     inkscape:pageshadow="2"
     inkscape:window-width="1680"
     inkscape:window-height="998"
     id="namedview16"
     showgrid="false"
     inkscape:zoom="0.4609375"
     inkscape:cx="256"
     inkscape:cy="256"
     inkscape:window-x="0"
     inkscape:window-y="0"
     inkscape:window-maximized="1"
     inkscape:current-layer="svg2" />
  <metadata
     id="metadata76">
    <rdf:RDF>
      <cc:Work
         rdf:about="">
        <dc:format>image/svg+xml</dc:format>
        <dc:type
           rdf:resource="http://purl.org/dc/dcmitype/StillImage" />
      </cc:Work>
    </rdf:RDF>
  </metadata>
  <path
     id="path4"
     d="m471.95 253.05c0 120.9-98.01 218.9-218.9 218.9-120.9 0-218.9-98.01-218.9-218.9 0-120.9 98.01-218.9 218.9-218.9 120.9 0 218.9 98.01 218.9 218.9"
     fill-rule="evenodd"
     fill="#59f"
     style="fill:#BF9E73;fill-opacity:1" />
  <path
     id="path6"
     fill-opacity="0.235"
     d="m234.28 125.28 2.219 58.719c0.31-0.208 0.625-0.422 0.938-0.625l0.063 1.625c0.31-0.208 0.625-0.422 0.938-0.625l0.063 1.625c0.314-0.211 0.621-0.419 0.938-0.625l0.063 1.625c0.302-0.203 0.602-0.396 0.906-0.594l0.063 1.563c0.308-0.207 0.627-0.392 0.938-0.594l0.063 1.594c0.308-0.207 0.627-0.392 0.938-0.594l0.063 1.594c0.31-0.208 0.625-0.422 0.938-0.625l0.063 1.625c0.31-0.208 0.625-0.422 0.938-0.625l0.063 1.625c0.314-0.211 0.621-0.419 0.938-0.625l0.063 1.625c0.302-0.203 0.602-0.396 0.906-0.594l0.063 1.563c0.308-0.207 0.627-0.392 0.938-0.594l0.063 1.594c0.308-0.207 0.627-0.392 0.938-0.594l0.063 1.594c0.31-0.208 0.625-0.422 0.938-0.625l0.031 1.094c-8.178 4.579-15.477 11.256-21.12 19.875-0.949 1.449-1.836 2.908-2.656 4.406 0.472 0.085 0.938 0.185 1.406 0.281-0.136 0.239-0.274 0.477-0.406 0.719 0.472 0.085 0.938 0.185 1.406 0.281-0.136 0.239-0.274 0.477-0.406 0.719 0.473 0.085 0.937 0.185 1.406 0.281-0.135 0.238-0.275 0.479-0.406 0.719 0.463 0.083 0.915 0.187 1.375 0.281-0.131 0.232-0.278 0.454-0.406 0.688 0.468 0.084 0.942 0.186 1.406 0.281-0.136 0.239-0.274 0.477-0.406 0.719 0.472 0.085 0.938 0.185 1.406 0.281-0.136 0.239-0.274 0.477-0.406 0.719 0.472 0.085 0.938 0.185 1.406 0.281-0.136 0.239-0.274 0.477-0.406 0.719 0.472 0.085 0.938 0.185 1.406 0.281-0.136 0.239-0.274 0.477-0.406 0.719 0.473 0.085 0.937 0.185 1.406 0.281-0.134 0.237-0.275 0.48-0.406 0.719 0.463 0.083 0.915 0.187 1.375 0.281-0.131 0.232-0.278 0.454-0.406 0.688 0.468 0.084 0.942 0.186 1.406 0.281-0.136 0.239-0.274 0.477-0.406 0.719 0.472 0.085 0.938 0.185 1.406 0.281-0.136 0.239-0.274 0.477-0.406 0.719 0.472 0.085 0.938 0.185 1.406 0.281-0.136 0.239-0.274 0.477-0.406 0.719 0.472 0.085 0.938 0.185 1.406 0.281-0.136 0.239-0.274 0.477-0.406 0.719 0.473 0.085 0.937 0.185 1.406 0.281-0.136 0.239-0.274 0.477-0.406 0.719 0.463 0.083 0.915 0.187 1.375 0.281-0.131 0.232-0.278 0.454-0.406 0.688 0.468 0.084 0.942 0.186 1.406 0.281-0.136 0.239-0.274 0.477-0.406 0.719 0.472 0.085 0.938 0.185 1.406 0.281-0.136 0.239-0.274 0.477-0.406 0.719 0.472 0.085 0.938 0.185 1.406 0.281-0.136 0.239-0.274 0.477-0.406 0.719 0.472 0.085 0.938 0.185 1.406 0.281-0.136 0.239-0.274 0.477-0.406 0.719 0.472 0.085 0.938 0.185 1.406 0.281-0.136 0.239-0.274 0.477-0.406 0.719 0.463 0.083 0.915 0.187 1.375 0.281-0.131 0.232-0.278 0.454-0.406 0.688 0.468 0.084 0.942 0.186 1.406 0.281-0.136 0.239-0.274 0.477-0.406 0.719 0.472 0.085 0.938 0.185 1.406 0.281-0.136 0.239-0.274 0.477-0.406 0.719 0.472 0.085 0.938 0.185 1.406 0.281-0.136 0.239-0.274 0.477-0.406 0.719 0.472 0.085 0.938 0.185 1.406 0.281-0.136 0.239-0.274 0.477-0.406 0.719 0.472 0.085 0.938 0.185 1.406 0.281-0.136 0.239-0.274 0.477-0.406 0.719 0.473 0.085 0.937 0.185 1.406 0.281-0.135 0.238-0.275 0.479-0.406 0.719 0.463 0.083 0.915 0.187 1.375 0.281-0.131 0.232-0.278 0.454-0.406 0.688 0.468 0.084 0.942 0.186 1.406 0.281-0.136 0.239-0.274 0.477-0.406 0.719 0.472 0.085 0.938 0.185 1.406 0.281-0.136 0.239-0.274 0.477-0.406 0.719 0.472 0.085 0.938 0.185 1.406 0.281-0.136 0.239-0.274 0.477-0.406 0.719 0.472 0.085 0.938 0.185 1.406 0.281-0.136 0.239-0.274 0.477-0.406 0.719 0.473 0.085 0.937 0.185 1.406 0.281-0.136 0.239-0.274 0.477-0.406 0.719 0.463 0.083 0.915 0.187 1.375 0.281-0.131 0.232-0.278 0.454-0.406 0.688 0.468 0.084 0.942 0.186 1.406 0.281-0.136 0.239-0.274 0.477-0.406 0.719 0.474 0.085 0.935 0.216 1.406 0.313-0.108 0.191-0.238 0.37-0.344 0.563-0.248 0.075-0.505 0.138-0.75 0.219 0.063-0.104 0.124-0.208 0.188-0.313l-1.531-0.094c0.178-0.302 0.349-0.606 0.531-0.906l-1.5-0.094c0.174-0.295 0.353-0.582 0.531-0.875l-1.531-0.094c0.177-0.301 0.35-0.607 0.531-0.906l-1.531-0.094c0.178-0.302 0.349-0.606 0.531-0.906l-1.531-0.094c0.178-0.302 0.349-0.606 0.531-0.906l-1.531-0.094c0.178-0.302 0.349-0.606 0.531-0.906l-1.531-0.094c0.178-0.302 0.349-0.606 0.531-0.906l-1.531-0.094c0.178-0.302 0.349-0.606 0.531-0.906l-1.5-0.094c0.173-0.293 0.354-0.584 0.531-0.875l-1.531-0.094c0.178-0.302 0.349-0.606 0.531-0.906l-1.531-0.094c0.178-0.302 0.349-0.606 0.531-0.906l-1.531-0.094c0.178-0.302 0.349-0.606 0.531-0.906l-1.531-0.094c0.178-0.302 0.349-0.606 0.531-0.906l-1.531-0.094c0.178-0.302 0.349-0.606 0.531-0.906l-1.5-0.094c0.173-0.293 0.354-0.584 0.531-0.875l-1.531-0.094c0.177-0.301 0.35-0.607 0.531-0.906l-1.531-0.094c0.178-0.302 0.349-0.606 0.531-0.906l-1.531-0.094c0.178-0.302 0.349-0.606 0.531-0.906l-1.531-0.094c0.178-0.302 0.349-0.606 0.531-0.906l-1.531-0.094c0.178-0.302 0.349-0.606 0.531-0.906l-1.5-0.094c0.173-0.293 0.354-0.584 0.531-0.875l-1.531-0.094c0.177-0.301 0.35-0.607 0.531-0.906l-1.531-0.094c0.178-0.302 0.349-0.606 0.531-0.906l-1.531-0.094c0.178-0.302 0.349-0.606 0.531-0.906l-1.531-0.094c0.178-0.302 0.349-0.606 0.531-0.906l-1.531-0.094c0.178-0.302 0.349-0.606 0.531-0.906l-1.531-0.094c0.178-0.302 0.349-0.606 0.531-0.906l-1.5-0.094c0.173-0.293 0.354-0.584 0.531-0.875l-1.531-0.094c0.178-0.302 0.349-0.606 0.531-0.906l-1.531-0.094c0.178-0.302 0.349-0.606 0.531-0.906l-1.531-0.094c0.178-0.302 0.349-0.606 0.531-0.906l-1.531-0.094c0.178-0.302 0.349-0.606 0.531-0.906l-1.531-0.094c0.178-0.302 0.349-0.606 0.531-0.906l-1.5-0.094c0.173-0.293 0.354-0.584 0.531-0.875l-1.531-0.094c0.177-0.301 0.35-0.607 0.531-0.906l-1.531-0.094c0.178-0.302 0.349-0.606 0.531-0.906l-1.531-0.094c0.178-0.302 0.349-0.606 0.531-0.906l-1.531-0.094c0.178-0.302 0.349-0.606 0.531-0.906l-1.531-0.094c0.178-0.302 0.349-0.606 0.531-0.906l-1.5-0.094c0.173-0.293 0.354-0.584 0.531-0.875l-1.531-0.094c0.177-0.301 0.35-0.607 0.531-0.906l-1.531-0.094c0.178-0.302 0.349-0.606 0.531-0.906l-1.531-0.094c0.178-0.302 0.349-0.606 0.531-0.906l-1.531-0.094c0.178-0.302 0.349-0.606 0.531-0.906l-1.531-0.094c0.178-0.302 0.349-0.606 0.531-0.906l-1.5-0.094c0.174-0.295 0.353-0.582 0.531-0.875l-1.531-0.094c0.177-0.301 0.35-0.607 0.531-0.906l-1.531-0.094c0.178-0.302 0.349-0.606 0.531-0.906l-1.531-0.094c0.178-0.302 0.349-0.606 0.531-0.906l-55.22-2.969 1.313 1.031-0.313-0.031 1.313 1.031-0.313-0.031 1.313 1.031-0.313-0.031 1.25 1-0.281-0.031 1.313 1.031-0.313-0.031 1.313 1.031-0.313-0.031 1.313 1.031-0.313-0.031 1.313 1.031-0.313-0.031 1.313 1.031-0.313-0.031 1.25 1-0.281-0.031 1.313 1.031-0.313-0.031 1.313 1.031-0.313-0.031 1.313 1.031-0.313-0.031 1.313 1.031-0.313-0.031 1.313 1.031-0.313-0.031 1.25 1-0.281-0.031 1.313 1.031-0.313-0.031 1.313 1.031-0.313-0.031 1.313 1.031-0.313-0.031 1.313 1.031-0.313-0.031 1.313 1.031-0.313-0.031 1.25 1-0.281-0.031 1.313 1.031-0.313-0.031 1.313 1.031-0.313-0.031 1.313 1.031-0.313-0.031 1.313 1.031-0.313-0.031 1.313 1.031-0.313-0.031 1.281 1.031-0.281-0.031 1.281 1-0.313-0.031 1.313 1.031-0.313-0.031 1.281 1h-0.281l0.281 0.219c-22.23 6.862-38.41 27.589-38.41 52.06 0 0.942 0.375 1.794 0.375 2.719-21.339 6.634-36.688 24.767-36.688 46.28 0 12.921 5.515 24.633 14.531 33.375 0.267 0.274 0.538 0.544 0.813 0.813 0.462 0.478 0.925 0.945 1.406 1.406 0.254 0.257 0.49 0.529 0.75 0.781 0.327 0.335 0.663 0.673 1 1 0.327 0.335 0.663 0.673 1 1 0.325 0.332 0.666 0.645 1 0.969 0.267 0.274 0.538 0.544 0.813 0.813 0.395 0.409 0.778 0.822 1.188 1.219 0.397 0.406 0.807 0.793 1.219 1.188 0.252 0.255 0.492 0.531 0.75 0.781 0.327 0.335 0.663 0.673 1 1 0.325 0.332 0.666 0.645 1 0.969 0.33 0.338 0.66 0.671 1 1 0.267 0.274 0.538 0.544 0.813 0.813 0.462 0.478 0.925 0.945 1.406 1.406 0.254 0.257 0.49 0.529 0.75 0.781 0.327 0.335 0.663 0.673 1 1 0.327 0.335 0.663 0.673 1 1 0.325 0.332 0.666 0.645 1 0.969 0.267 0.274 0.538 0.544 0.813 0.813 0.462 0.478 0.925 0.945 1.406 1.406 0.254 0.257 0.49 0.529 0.75 0.781 0.327 0.335 0.663 0.673 1 1 0.327 0.335 0.663 0.673 1 1 0.325 0.332 0.666 0.645 1 0.969 0.267 0.274 0.538 0.544 0.813 0.813 0.462 0.478 0.925 0.945 1.406 1.406 0.254 0.257 0.49 0.529 0.75 0.781 0.327 0.335 0.663 0.673 1 1 0.327 0.335 0.663 0.673 1 1 0.325 0.332 0.666 0.645 1 0.969 0.33 0.338 0.66 0.671 1 1 0.267 0.274 0.538 0.544 0.813 0.813 0.462 0.478 0.925 0.945 1.406 1.406 0.252 0.255 0.492 0.531 0.75 0.781 0.327 0.335 0.663 0.673 1 1 0.303 0.31 0.626 0.603 0.938 0.906 0.349 0.359 0.702 0.713 1.063 1.063 0.267 0.274 0.538 0.544 0.813 0.813 0.462 0.478 0.925 0.945 1.406 1.406 0.254 0.257 0.49 0.529 0.75 0.781 0.327 0.335 0.663 0.673 1 1 0.327 0.335 0.663 0.673 1 1 0.325 0.332 0.666 0.645 1 0.969 0.267 0.274 0.538 0.544 0.813 0.813 0.462 0.478 0.925 0.945 1.406 1.406 0.254 0.257 0.49 0.529 0.75 0.781 0.327 0.335 0.663 0.673 1 1 0.327 0.335 0.663 0.673 1 1 0.325 0.332 0.666 0.645 1 0.969 0.267 0.274 0.538 0.544 0.813 0.813 0.395 0.409 0.778 0.822 1.188 1.219 0.397 0.406 0.807 0.793 1.219 1.188 0.252 0.255 0.492 0.531 0.75 0.781 0.327 0.335 0.663 0.673 1 1 0.325 0.332 0.666 0.645 1 0.969 0.33 0.338 0.66 0.671 1 1 0.267 0.274 0.538 0.544 0.813 0.813 0.462 0.478 0.925 0.945 1.406 1.406 0.254 0.257 0.49 0.529 0.75 0.781 0.327 0.335 0.663 0.673 1 1 0.327 0.335 0.663 0.673 1 1 0.325 0.332 0.666 0.645 1 0.969 0.267 0.274 0.538 0.544 0.813 0.813 0.462 0.478 0.925 0.945 1.406 1.406 0.254 0.257 0.49 0.529 0.75 0.781 0.327 0.335 0.663 0.673 1 1 0.327 0.335 0.663 0.673 1 1 0.325 0.332 0.666 0.645 1 0.969 0.267 0.274 0.538 0.544 0.813 0.813 0.462 0.478 0.925 0.945 1.406 1.406 0.254 0.257 0.49 0.529 0.75 0.781 0.327 0.335 0.663 0.673 1 1 0.327 0.335 0.663 0.673 1 1 0.325 0.332 0.666 0.645 1 0.969 0.267 0.274 0.538 0.544 0.813 0.813 0.395 0.409 0.778 0.822 1.188 1.219 0.397 0.406 0.807 0.793 1.219 1.188 0.252 0.255 0.492 0.531 0.75 0.781 0.327 0.335 0.663 0.673 1 1 0.325 0.332 0.666 0.645 1 0.969 0.33 0.338 0.66 0.671 1 1 0.267 0.274 0.538 0.544 0.813 0.813 0.462 0.478 0.925 0.945 1.406 1.406 0.254 0.257 0.49 0.529 0.75 0.781 0.327 0.335 0.663 0.673 1 1 0.327 0.335 0.663 0.673 1 1 0.325 0.332 0.666 0.645 1 0.969 0.267 0.274 0.538 0.544 0.813 0.813 0.462 0.478 0.925 0.945 1.406 1.406 0.254 0.257 0.49 0.529 0.75 0.781 0.327 0.335 0.663 0.673 1 1 0.327 0.335 0.663 0.673 1 1 0.325 0.332 0.666 0.645 1 0.969 0.267 0.274 0.538 0.544 0.813 0.813 0.395 0.409 0.778 0.822 1.188 1.219 0.397 0.406 0.807 0.793 1.219 1.188 0.252 0.255 0.492 0.531 0.75 0.781 0.327 0.335 0.663 0.673 1 1 0.325 0.332 0.666 0.645 1 0.969 8.09 0.906 16.296 1.406 24.625 1.406 114.88 0 209.09-88.5 218.19-201.03l-0.594 0.563 0.656-2.531-1.688 1.531 0.688-2.531-1.688 1.531 0.688-2.531-1.625 1.5 0.656-2.469-1.656 1.531 0.656-2.531-1.656 1.531 0.656-2.531-1.656 1.531 0.656-2.531-1.688 1.531 0.688-2.531-1.688 1.531 0.688-2.531-1.625 1.5 0.656-2.469-1.656 1.531 0.656-2.531-1.656 1.531 0.656-2.531-1.656 1.531 0.656-2.531-1.688 1.531 0.688-2.531-1.688 1.531 0.688-2.531-1.625 1.5 0.656-2.469-1.656 1.531 0.656-2.531-1.656 1.531 0.656-2.531-1.656 1.531 0.656-2.531-1.688 1.531 0.688-2.531-1.688 1.531 0.688-2.531-1.688 1.531 0.688-2.531-1.625 1.5 0.656-2.469-1.656 1.531 0.656-2.531-1.656 1.531 0.656-2.531-1.656 1.531 0.656-2.531-1.688 1.531 0.688-2.531-1.688 1.531 0.688-2.531-1.625 1.5 0.656-2.469-1.656 1.531 0.656-2.531-1.656 1.531 0.656-2.531-1.656 1.531 0.656-2.531-1.688 1.531 0.688-2.531-1.688 1.531 0.688-2.531-1.625 1.5 0.656-2.469-1.656 1.531 0.656-2.531-1.656 1.531 0.656-2.531-1.656 1.531 0.656-2.531-1.688 1.531 0.688-2.531-1.688 1.531 0.688-2.531-1.625 1.5 0.656-2.469-1.656 1.531 0.656-2.531-1.656 1.531 0.656-2.531-1.656 1.531 0.656-2.531-1.656 1.531 0.656-2.531-1.688 1.531 0.688-2.531-1.688 1.531 0.688-2.531-1.625 1.5 0.656-2.469-1.656 1.531 0.656-2.531-1.656 1.531 0.656-2.531-1.656 1.531 0.656-2.531-1.688 1.531 0.688-2.531-1.688 1.531 0.688-2.531-1.625 1.5 0.656-2.469-1.656 1.531 0.656-2.531-1.656 1.531 0.656-2.531-1.656 1.531 0.656-2.531-1.688 1.531 0.688-2.531-1.688 1.531 0.688-2.531-1.625 1.5 0.656-2.469-1.656 1.531 0.656-2.531-1.656 1.531 0.656-2.531-1.656 1.531 0.656-2.531-1.688 1.531 0.688-2.531-1.688 1.531 0.688-2.531-1.688 1.531 0.688-2.531-1.625 1.5 0.656-2.469-1.688 1.531 0.688-2.531-1.688 1.531 0.688-2.531-1.688 1.531 0.688-2.531-1.688 1.531 0.688-2.531-1.688 1.531 0.688-2.531-1.625 1.5 0.656-2.469-1.688 1.531 0.688-2.531-1.688 1.531 0.688-2.531-1.688 1.531 0.688-2.531-1.688 1.531 0.688-2.531-1.688 1.531 0.688-2.531-1.625 1.5 0.656-2.469-1.688 1.531 0.688-2.531-1.688 1.531 0.688-2.531-1.688 1.531 0.688-2.531-1.688 1.531 0.688-2.531-1.688 1.531 0.688-2.531-1.625 1.5 0.656-2.469-1.688 1.531 0.688-2.531-1.688 1.531 0.688-2.531-1.688 1.531 0.688-2.531-1.688 1.531 0.688-2.531-1.688 1.531 0.688-2.531-1.688 1.531 0.688-2.531-1.625 1.5 0.656-2.469-1.688 1.531 0.688-2.531-1.688 1.531 0.688-2.531-1.688 1.531 0.688-2.531-1.688 1.531 0.688-2.531-1.688 1.531 0.688-2.531-1.625 1.5 0.656-2.469-1.688 1.531 0.688-2.531-1.688 1.531 0.688-2.531-1.688 1.531 0.688-2.531-1.688 1.531 0.688-2.531-1.688 1.531 0.688-2.531-1.625 1.5 0.656-2.469-1.688 1.531 0.688-2.531-1.688 1.531 0.688-2.531-1.688 1.531 0.688-2.531-1.688 1.531 0.688-2.531-1.688 1.531 0.688-2.531-1.688 1.531 0.688-2.531-1.625 1.5 0.656-2.469-1.688 1.531 0.688-2.531-1.688 1.531 0.688-2.531-1.688 1.531 0.688-2.531-1.688 1.531 0.688-2.531-1.688 1.531 0.688-2.531-1.625 1.5 0.656-2.469-1.688 1.531 0.688-2.531-1.688 1.531 0.688-2.531-1.688 1.531 0.688-2.531-1.688 1.531 0.688-2.531-1.688 1.531 0.688-2.531-1.625 1.5 0.656-2.469-1.688 1.531 0.688-2.531-1.688 1.531 0.688-2.531-1.688 1.531 0.688-2.531-1.688 1.531 0.688-2.531-1.688 1.531 0.688-2.531-1.625 1.5 0.656-2.469-1.688 1.531 0.688-2.531-1.688 1.531 0.688-2.531-1.688 1.531 0.688-2.531-40 36.781c0.502 0.174 1 0.377 1.5 0.563l-0.5 0.438c0.5 0.174 1 0.346 1.5 0.531l-0.5 0.469c0.5 0.174 1 0.346 1.5 0.531l-0.5 0.469c0.487 0.169 0.953 0.351 1.438 0.531l-0.469 0.438c0.502 0.174 1 0.377 1.5 0.563l-0.5 0.438c0.502 0.174 1 0.377 1.5 0.563l-0.5 0.438c0.502 0.174 1 0.377 1.5 0.563l-0.5 0.438c0.5 0.174 1 0.346 1.5 0.531l-0.5 0.469c0.5 0.174 1 0.346 1.5 0.531l-0.5 0.469c0.487 0.169 0.953 0.351 1.438 0.531l-0.469 0.438c0.502 0.174 1 0.377 1.5 0.563l-0.5 0.438c0.502 0.174 1 0.377 1.5 0.563l-0.5 0.438c0.502 0.174 1 0.377 1.5 0.563l-0.5 0.438c0.502 0.174 1 0.377 1.5 0.563l-0.5 0.438c0.5 0.174 1 0.346 1.5 0.531l-0.5 0.469c0.482 0.167 0.958 0.353 1.438 0.531l-0.469 0.438c0.502 0.174 1 0.377 1.5 0.563l-0.5 0.438c0.502 0.174 1 0.377 1.5 0.563l-0.5 0.438c0.502 0.174 1 0.377 1.5 0.563l-0.5 0.438c0.502 0.174 1 0.377 1.5 0.563l-0.5 0.438c0.5 0.174 1 0.346 1.5 0.531l-0.5 0.469c0.482 0.167 0.958 0.353 1.438 0.531l-0.469 0.438c0.502 0.174 1 0.377 1.5 0.563l-0.5 0.438c0.502 0.174 1 0.377 1.5 0.563l-0.5 0.438c0.502 0.174 1 0.377 1.5 0.563l-0.5 0.438c0.502 0.174 1 0.377 1.5 0.563l-0.5 0.438c0.5 0.174 1 0.346 1.5 0.531l-0.5 0.469c0.5 0.174 1 0.346 1.5 0.531l-0.5 0.469c0.487 0.169 0.953 0.351 1.438 0.531l-0.469 0.438c0.502 0.174 1 0.377 1.5 0.563l-0.5 0.438c0.502 0.174 1 0.377 1.5 0.563l-0.5 0.438c0.502 0.174 1 0.377 1.5 0.563l-0.5 0.438c0.5 0.174 1 0.346 1.5 0.531l-0.5 0.469c0.5 0.174 1 0.346 1.5 0.531l-0.5 0.469c0.482 0.167 0.958 0.353 1.438 0.531l-0.469 0.438c0.502 0.174 1 0.377 1.5 0.563l-0.5 0.438c0.502 0.174 1 0.377 1.5 0.563l-0.5 0.438c0.502 0.174 1 0.377 1.5 0.563l-0.5 0.438c0.502 0.174 1 0.377 1.5 0.563l-0.5 0.438c0.5 0.174 1 0.346 1.5 0.531l-0.5 0.469c0.482 0.167 0.958 0.353 1.438 0.531l-0.469 0.438c0.502 0.174 1 0.377 1.5 0.563l-0.5 0.438c0.502 0.174 1 0.377 1.5 0.563l-0.5 0.438c0.502 0.174 1 0.377 1.5 0.563l-0.5 0.438c0.502 0.174 1 0.377 1.5 0.563l-0.5 0.438c0.5 0.174 1 0.346 1.5 0.531l-0.5 0.469c0.5 0.174 1 0.346 1.5 0.531l-0.5 0.469c0.487 0.169 0.953 0.351 1.438 0.531l-0.469 0.438c0.502 0.174 1 0.377 1.5 0.563l-0.5 0.438c0.502 0.174 1 0.377 1.5 0.563l-0.5 0.438c0.502 0.174 1 0.377 1.5 0.563l-0.5 0.438c0.5 0.174 1 0.346 1.5 0.531l-0.063 0.094-3.875-0.781c1.556 4.81 2.705 9.754 3.406 14.781-0.446-0.459-0.913-0.898-1.375-1.344-0.19-0.192-0.401-0.373-0.594-0.563-0.466-0.48-0.923-0.972-1.406-1.438-0.331-0.334-0.66-0.672-1-1-0.331-0.334-0.66-0.672-1-1-0.115-0.116-0.228-0.229-0.344-0.344-0.53-0.552-1.072-1.091-1.625-1.625-0.19-0.192-0.401-0.373-0.594-0.563-0.326-0.336-0.665-0.671-1-1-0.466-0.48-0.923-0.972-1.406-1.438-0.331-0.334-0.66-0.672-1-1-0.115-0.116-0.228-0.229-0.344-0.344-0.53-0.552-1.072-1.091-1.625-1.625-0.19-0.192-0.401-0.373-0.594-0.563-0.328-0.338-0.663-0.669-1-1-0.466-0.48-0.923-0.972-1.406-1.438-0.331-0.334-0.66-0.672-1-1-0.115-0.116-0.228-0.229-0.344-0.344-0.388-0.404-0.787-0.793-1.188-1.188-0.471-0.486-0.949-0.965-1.438-1.438-0.19-0.192-0.401-0.373-0.594-0.563-0.466-0.48-0.923-0.972-1.406-1.438-0.331-0.334-0.66-0.672-1-1-0.331-0.334-0.66-0.672-1-1-0.115-0.116-0.228-0.229-0.344-0.344-0.53-0.552-1.072-1.091-1.625-1.625-0.19-0.192-0.401-0.373-0.594-0.563-0.326-0.336-0.665-0.671-1-1-0.466-0.48-0.923-0.972-1.406-1.438-0.331-0.334-0.66-0.672-1-1-0.115-0.116-0.228-0.229-0.344-0.344-0.53-0.552-1.072-1.091-1.625-1.625-0.211-0.213-0.442-0.415-0.656-0.625-0.307-0.315-0.623-0.628-0.938-0.938-2.287-2.356-4.77-4.564-7.469-6.563-1.962-1.452-3.973-2.769-6.03-3.938l-0.406-0.594v0.406c-0.033-0.018-0.061-0.044-0.094-0.063l-0.906-1.344 0.031 0.531-1.031-1.531 0.031 0.5-1.031-1.5 0.031 0.5-1.031-1.5 0.031 0.5-1.031-1.5 0.031 0.5-1-1.469 0.031 0.5-1.031-1.5 0.031 0.5-1.031-1.5 0.031 0.5-1.031-1.5 0.031 0.5-1.031-1.5 0.031 0.5-1.031-1.5 0.031 0.5-1-1.469 0.031 0.5-1.031-1.5 0.031 0.5-1.031-1.5 0.031 0.5-1.031-1.5 0.031 0.5-1.031-1.5 0.031 0.5-1.031-1.5 0.031 0.5-1-1.469 0.031 0.5-1.031-1.5 0.031 0.5-1.031-1.5 0.031 0.5-1.031-1.5 0.031 0.5-1.031-1.5 0.031 0.5-1.031-1.5 0.031 0.5-1-1.469 0.031 0.5-1.031-1.5 0.031 0.5-1.031-1.5 0.031 0.5-1.031-1.5 0.031 0.5-1.031-1.5 0.031 0.5-1.031-1.5 0.031 0.5-1.031-1.5 0.031 0.5-1-1.469 0.031 0.5-1.031-1.5 0.031 0.5-1.031-1.5 0.031 0.5-1.031-1.5 0.031 0.5-1.031-1.5 0.031 0.5-1.031-1.5 0.031 0.5-1-1.469 0.031 0.5-1.031-1.5 0.031 0.5-1.031-1.5 0.031 0.5-1.031-1.5 0.031 0.5-1.031-1.5 0.031 0.5-1.031-1.5 0.031 0.5-1-1.469 0.031 0.5-1.031-1.5 0.031 0.5-1.031-1.5 0.031 0.5-1.031-1.5 0.031 0.5-1.031-1.5 0.031 0.5-1.031-1.5 0.031 0.5-1.031-1.5 0.031 0.5-1-1.469 0.031 0.5-1.031-1.5 0.031 0.5-1.031-1.5 0.031 0.5-1.031-1.5 0.031 0.5-1.031-1.5 0.031 0.5-1.031-1.5 0.031 0.5-1-1.469 0.031 0.5-1.031-1.5 0.031 0.5-1.031-1.5 0.031 0.5-1.031-1.5 0.031 0.5-1.031-1.5 0.031 0.5-1.031-1.5 0.031 0.5-1-1.469 0.031 0.5-1.031-1.5 0.031 0.5-1.031-1.5 0.031 0.5-1.031-1.5 0.031 0.5-1.031-1.5 0.031 0.5-1.031-1.5 0.031 0.5-1-1.469 0.031 0.5-1.031-1.5 0.031 0.5-1.031-1.5 0.031 0.5-1.031-1.5" />
  <g
     id="g8"
     fill-rule="evenodd">
    <path
       id="path10"
       fill-opacity="0.067"
       d="m256 1c-140.83 0-255 114.17-255 255s114.17 255 255 255 255-114.17 255-255-114.17-255-255-255m8.827 44.931c120.9 0 218.9 98 218.9 218.9s-98 218.9-218.9 218.9-218.93-98-218.93-218.9 98.03-218.9 218.93-218.9" />
    <g
       id="g12"
       fill-opacity="0.129">
      <path
         id="path14"
         d="m256 4.433c-138.94 0-251.57 112.63-251.57 251.57s112.63 251.57 251.57 251.57 251.57-112.63 251.57-251.57-112.63-251.57-251.57-251.57m5.885 38.556c120.9 0 218.9 98 218.9 218.9s-98 218.9-218.9 218.9-218.93-98-218.93-218.9 98.03-218.9 218.93-218.9" />
      <path
         id="path16"
         d="m256 8.356c-136.77 0-247.64 110.87-247.64 247.64s110.87 247.64 247.64 247.64 247.64-110.87 247.64-247.64-110.87-247.64-247.64-247.64m2.942 31.691c120.9 0 218.9 98 218.9 218.9s-98 218.9-218.9 218.9-218.93-98-218.93-218.9 98.03-218.9 218.93-218.9" />
    </g>
    <path
       id="path18"
       d="m253.04 7.859c-135.42 0-245.19 109.78-245.19 245.19 0 135.42 109.78 245.19 245.19 245.19 135.42 0 245.19-109.78 245.19-245.19 0-135.42-109.78-245.19-245.19-245.19zm0 26.297c120.9 0 218.9 98 218.9 218.9s-98 218.9-218.9 218.9-218.93-98-218.93-218.9 98.03-218.9 218.93-218.9z"
       stroke-opacity="0.31"
       stroke="#000"
       stroke-width="4.904"
       fill="#fff" />
  </g>
  <g
     id="g66"
     transform="matrix(38.599 0 0 38.599 -16.358 -5.445)"
     fill="#fff">
    <path
       id="path68"
       d="m6.493 3.387 0.057 1.521c0.235-0.157 0.496-0.26 0.766-0.302l-0.824-1.219m2.763 0.346-1.036 0.953c0.18 0.062 0.354 0.154 0.516 0.274 0.056 0.042 0.109 0.086 0.16 0.132zm-1.663 1.307c-0.484 0.005-0.958 0.25-1.255 0.704-0.025 0.038-0.047 0.076-0.069 0.115 0.414 0.075 0.775 0.318 1.038 0.651 0.101-0.03 0.206-0.048 0.317-0.048 0.647 0 1.181 0.563 1.19 1.248 0.021-0.028 0.042-0.057 0.062-0.088 0.488-0.745 0.316-1.769-0.385-2.288-0.274-0.203-0.588-0.298-0.898-0.295m-3.077 0.427 0.723 0.564c0.171-0.094 0.357-0.157 0.555-0.183 0.042-0.104 0.093-0.207 0.153-0.305l-1.431-0.077m4.956 0.53c0.079 0.244 0.116 0.503 0.108 0.761l1.145-0.512zm-0.25 1.897c-0.035 0.053-0.072 0.104-0.111 0.152 0.19 0.231 0.327 0.512 0.394 0.82l0.287 0.166z" />
    <path
       id="path70"
       fill-rule="evenodd"
       d="m5.739 6.209c0.53 0 0.984 0.3 1.225 0.732 0.136-0.102 0.309-0.168 0.5-0.168 0.433 0 0.784 0.316 0.784 0.706 0 0.087-0.017 0.17-0.049 0.247 0.492 0.198 0.833 0.646 0.833 1.164 0 0.704-0.629 1.27-1.411 1.27h-2.822c-0.782 0-1.411-0.566-1.411-1.27 0-0.557 0.398-1.028 0.95-1.199 0-0.024-0.01-0.046-0.01-0.071 0-0.779 0.632-1.411 1.411-1.411" />
  </g>
</svg>
