<?xml version="1.0" encoding="UTF-8" standalone="no"?>
<svg xmlns="http://www.w3.org/2000/svg" viewBox="0 0 512 512">
 <g fill-rule="evenodd">
  <path d="m471.93 253.06c0 120.9-98.01 218.9-218.9 218.9-120.9 0-218.9-98.01-218.9-218.9 0-120.9 98.01-218.9 218.9-218.9 120.9 0 218.9 98.01 218.9 218.9" fill="#BF9E73"/>
  <g transform="matrix(3.5433 0 0 3.5433 -.004 0)">
   <path d="m72.25 0.282c-39.746 0-71.967 32.22-71.967 71.967 0 39.746 32.22 71.967 71.967 71.967 39.746 0 71.967-32.22 71.967-71.967 0-39.746-32.22-71.967-71.967-71.967m2.491 12.681c34.12 0 61.777 27.657 61.777 61.777s-27.657 61.777-61.777 61.777-61.786-27.657-61.786-61.777 27.666-61.777 61.786-61.777" fill-opacity="0.067"/>
   <g fill-opacity="0.129">
    <path d="m72.25 1.251c-39.21 0-70.998 31.787-70.998 70.998 0 39.21 31.787 70.998 70.998 70.998 39.21 0 70.998-31.787 70.998-70.998 0-39.21-31.787-70.998-70.998-70.998m1.661 10.881c34.12 0 61.777 27.657 61.777 61.777s-27.657 61.777-61.777 61.777-61.786-27.657-61.786-61.777 27.666-61.777 61.786-61.777"/>
    <path d="m72.25 2.358c-38.6 0-69.891 31.29-69.891 69.891 0 38.6 31.29 69.891 69.891 69.891 38.6 0 69.891-31.29 69.891-69.891 0-38.6-31.29-69.891-69.891-69.891m0.83 8.944c34.12 0 61.777 27.657 61.777 61.777s-27.657 61.777-61.777 61.777-61.786-27.657-61.786-61.777 27.666-61.777 61.786-61.777"/>
   </g>
   <path stroke="#000" stroke-width="1.384" d="m71.41 2.218c-38.22 0-69.2 30.981-69.2 69.2 0 38.22 30.981 69.2 69.2 69.2 38.22 0 69.2-30.981 69.2-69.2 0-38.22-30.981-69.2-69.2-69.2zm0 7.422c34.12 0 61.777 27.657 61.777 61.777s-27.657 61.777-61.777 61.777-61.786-27.657-61.786-61.777 27.666-61.777 61.786-61.777" stroke-opacity="0.31" fill="#fff"/>
  </g>
 </g>
 <path opacity="0.25" d="m254.22 106.3c-12.326 0.05-24.12 1.131-34.502 2.928-30.554 5.365-36.15 16.498-36.15 37.12v27.26l9.04 9.04h-36.15c-21.01 0-39.38 12.521-45.13 36.25-6.625 27.2-6.974 44.19 0 72.55 2.58 10.666 6.975 19.782 13.391 26.2l58.35 58.35c1.611 3.653 3.949 6.908 6.83 9.789l85.09 85.09c103.69-10.33 186.06-93.01 195.93-196.84l-150.27-150.27c-7.473-7.473-18.15-12.626-28.895-14.387-12.306-2.035-25.13-2.962-37.38-2.924h-0.002l-0.156-0.156"/>
 <path d="m254.23 106.3c-12.326 0.05-24.12 1.13-34.504 2.927-30.554 5.365-36.15 16.5-36.15 37.12v27.26h72.24v9.04h-99.35c-21.01 0-39.38 12.52-45.13 36.25-6.625 27.2-6.974 44.19 0 72.55 5.115 21.15 17.358 36.2 38.35 36.2h21.257v-36.15c0-23.542 20.668-44.21 45.18-44.21h75.63c20.07 0 39.07-16.377 39.07-36.3v-64.49c0-19.35-19.436-33.904-39.07-37.12-12.376-2.046-25.27-2.977-37.585-2.927l0.051-0.154m-39.07 21.873c7.461 0 13.555 6.149 13.555 13.709 0 7.511-6.094 13.555-13.555 13.555-7.511 0-13.606-6.04-13.606-13.555 0-7.548 6.05-13.709 13.606-13.709m125.95 54.48v31.731c0 24.565-21.1 42.36-45.13 42.36h-79.23c-19.737 0-36.15 19.678-36.15 39.23v68.03c0 19.35 17.03 30.698 36.15 36.25 22.856 6.625 47.719 7.897 75.07 0 18.18-5.215 36.15-15.689 36.15-36.25v-27.26h-72.14v-9.04h108.29c20.96 0 28.836-14.566 36.15-36.25 7.548-22.369 7.161-43.906 0-72.55-5.215-20.71-15.14-36.2-36.15-36.2l-23-0.051m-44.67 172.31c7.461 0 13.555 5.993 13.555 13.504s-6.04 13.709-13.555 13.709c-7.511 0-13.606-6.199-13.606-13.709s6.096-13.504 13.606-13.504" fill="#fff"/>
</svg>
