<?xml version="1.0" encoding="UTF-8" standalone="no"?>
<svg xmlns="http://www.w3.org/2000/svg" viewBox="0 0 512 512">
 <path fill-rule="evenodd" d="m471.93 253.06c0 120.9-98.01 218.9-218.9 218.9-120.9 0-218.9-98.01-218.9-218.9 0-120.9 98.01-218.9 218.9-218.9 120.9 0 218.9 98.01 218.9 218.9" fill="#BF9E73"/>
 <path opacity="0.25" d="m172.2 84.68c-24.16 0.549-50.87 3.429-69.03 19.16-8.708 7.541-13.12 30.527-4.783 38.863l56.828 56.828c-3.115-0.994-6.344-1.531-9.514-1.535-9.571-0.012-18.579 4.813-22.12 16.313-4.805 15.581-9.272 49.828 1.238 60.34l70.77 70.77c-7.939 0.99-19.21 6.167-24.727 3.768-1.608-0.274-3.168-0.665-4.686-1.154l-39.971-39.971c-1.778-1.607-4.03-2.718-6.281-2.5-0.321 0.031-0.649 0.1-0.969 0.188-13.501 8.439-4.844 26.621 4.27 35.734l59.686 59.686c-11.704 0.587-23.543-3.048-34.473-8.758l-31.73-31.73c-1.3-1.234-2.744-2.237-4.408-2.9-14.701 8.288-6.904 24.916 3.592 35.412l67.44 67.44c21.894 7.349 45.33 11.336 69.7 11.336 102.28 0 188.16-70.15 212.2-164.95l-187.76-187.76c-10.666-10.666-23.21-19.255-37.922-24.512-21.465-7.962-44.606-10.04-67.34-10.06"/>
 <path d="m172.2 84.68c-24.16 0.549-50.87 3.429-69.03 19.16-11.52 9.976-15.518 46.979 7.563 41.34 14.987-3.659 18.997-25.19 36.03-28.563 21.896-4.334 44.38-5.304 66.44-3.375 34.06 4.457 67.2 25.286 80.12 58.38 10.512 26.92 16.598 59.21 0.25 85.28-13.937 22.23-36.795 35.863-55.781 52.969-20.238 18.234-18.93 48.585-18.656 75 0.635 61.3 25.27 52.595 12.625-2.969-5.33-23.423 3.8-50.22 25.531-62.844 28.14-16.34 53.772-40.29 64.09-72.34 6.39-19.847 2.959-40.686-3.906-59.906-13.752-38.499-37.758-77.71-77.938-92.06-21.465-7.962-44.606-10.04-67.34-10.06m-26.5 113.31c-9.571-0.012-18.579 4.813-22.12 16.313-5.799 18.803-11.1 64.795 9.813 63.44 24.356-1.58-5.442-41.36 8.688-59.44 18.485-23.646 16.12 17.333 26.625 26.28 8.866 7.551 38.563-32.57 42.906-7.094 4.052 23.77-48.84 53.646-24.469 64.34 17.598 7.724 24.865-28.985 35.31-43.938 11.405-16.323 11.128-56.98-17.438-51.938-12.802 2.26-21.715 13.8-29.406 23.656 3.558-18.19-13.955-31.606-29.906-31.625m-25.781 107.56c-0.321 0.031-0.649 0.1-0.969 0.188-14.978 9.362-2.684 30.715 7.25 38.38 22.278 18.09 52.17 26.427 77.47 12.563 5.37-23.22-22.943-3.21-32.813-7.5-19.86-3.383-32.573-24.01-44.656-41.12-1.778-1.607-4.03-2.718-6.281-2.5m-7.625 52.22c-19.92 11.231 1.47 37.777 14.906 43.625 26.05 11.339 54.58 23.476 79.38 6.156 9.408-9.136 1.418-20.42-7.125-10.344-22.58 10.189-47.68-0.498-67.03-14.969-8.273-6.186-10.73-20.721-20.12-24.469" fill="#fff"/>
 <g transform="matrix(3.5433 0 0 3.5433 -.004 0)" fill-rule="evenodd">
  <path d="m72.25 0.282c-39.746 0-71.967 32.22-71.967 71.967 0 39.746 32.22 71.967 71.967 71.967 39.746 0 71.967-32.22 71.967-71.967 0-39.746-32.22-71.967-71.967-71.967m2.491 12.681c34.12 0 61.777 27.657 61.777 61.777s-27.657 61.777-61.777 61.777-61.786-27.657-61.786-61.777 27.666-61.777 61.786-61.777" fill-opacity="0.067"/>
  <g fill-opacity="0.129">
   <path d="m72.25 1.251c-39.21 0-70.998 31.787-70.998 70.998 0 39.21 31.787 70.998 70.998 70.998 39.21 0 70.998-31.787 70.998-70.998 0-39.21-31.787-70.998-70.998-70.998m1.661 10.881c34.12 0 61.777 27.657 61.777 61.777s-27.657 61.777-61.777 61.777-61.786-27.657-61.786-61.777 27.666-61.777 61.786-61.777"/>
   <path d="m72.25 2.358c-38.6 0-69.891 31.29-69.891 69.891 0 38.6 31.29 69.891 69.891 69.891 38.6 0 69.891-31.29 69.891-69.891 0-38.6-31.29-69.891-69.891-69.891m0.83 8.944c34.12 0 61.777 27.657 61.777 61.777s-27.657 61.777-61.777 61.777-61.786-27.657-61.786-61.777 27.666-61.777 61.786-61.777"/>
  </g>
  <path stroke="#000" stroke-width="1.384" d="m71.41 2.218c-38.22 0-69.2 30.981-69.2 69.2 0 38.22 30.981 69.2 69.2 69.2 38.22 0 69.2-30.981 69.2-69.2 0-38.22-30.981-69.2-69.2-69.2zm0 7.422c34.12 0 61.777 27.657 61.777 61.777s-27.657 61.777-61.777 61.777-61.786-27.657-61.786-61.777 27.666-61.777 61.786-61.777" stroke-opacity="0.31" fill="#fff"/>
 </g>
 <text font-size="129.22" y="231.34" x="729.63" font-family="&apos;Gentium Book Basic&apos;" line-height="125%" word-spacing="0" letter-spacing="0"><tspan y="231.34" x="729.63"/>
 </text>
 <text transform="scale(4.0128.2492)" font-size="46.952" y="579.26" x="378.92" font-family="Arial" text-anchor="middle"/>
 <text font-size="129.22" y="151.36" x="1310.91" font-family="&apos;Gentium Book Basic&apos;" line-height="125%" word-spacing="0" letter-spacing="0"><tspan y="151.36" x="1310.91"/>
 </text>
 <text transform="scale(4.0128.2492)" font-size="46.952" y="258.22" x="523.77" font-family="Arial" text-anchor="middle"/>
 <text font-size="129.22" y="-29.902" x="239.31" font-family="&apos;Gentium Book Basic&apos;" line-height="125%" word-spacing="0" letter-spacing="0"><tspan y="-29.902" x="239.31"/>
 </text>
 <text transform="scale(4.0128.2492)" font-size="46.952" y="-469.13" x="256.71" font-family="Arial" text-anchor="middle"/>
 <text font-size="129.22" y="-246.37" x="1337.38" font-family="&apos;Gentium Book Basic&apos;" line-height="125%" word-spacing="0" letter-spacing="0"><tspan y="-246.37" x="1337.38"/>
 </text>
 <text transform="scale(4.0128.2492)" font-size="46.952" y="-1337.81" x="530.36" font-family="Arial" text-anchor="middle"/>
 <text font-size="129.22" y="-326.37" x="1918.66" font-family="&apos;Gentium Book Basic&apos;" line-height="125%" word-spacing="0" letter-spacing="0"><tspan y="-326.37" x="1918.66"/>
 </text>
 <text transform="scale(4.0128.2492)" font-size="46.952" y="-1658.83" x="675.21" font-family="Arial" text-anchor="middle"/>
 <text font-size="129.22" y="-798.77" x="1529.54" font-family="&apos;Gentium Book Basic&apos;" line-height="125%" word-spacing="0" letter-spacing="0"><tspan y="-798.77" x="1529.54"/>
 </text>
 <text transform="scale(4.0128.2492)" font-size="46.952" y="-3554.49" x="578.23" font-family="Arial" text-anchor="middle"/>
 <text font-size="129.22" y="-878.78" x="2110.78" font-family="&apos;Gentium Book Basic&apos;" line-height="125%" word-spacing="0" letter-spacing="0"><tspan y="-878.78" x="2110.78"/>
 </text>
 <text transform="scale(4.0128.2492)" font-size="46.952" y="-3875.51" x="723.08" font-family="Arial" text-anchor="middle"/>
 <text font-size="208.33" y="535.92" x="277.97" font-family="&apos;Gentium Book Basic&apos;" line-height="125%" word-spacing="0" letter-spacing="0"><tspan y="535.92" x="277.97"/>
 </text>
</svg>
