<?xml version="1.0" encoding="UTF-8" standalone="no"?>
<svg xmlns="http://www.w3.org/2000/svg" viewBox="0 0 512 512">
 <g fill-rule="evenodd">
  <path d="m471.95 253.05c0 120.9-98.01 218.9-218.9 218.9-120.9 0-218.9-98.01-218.9-218.9 0-120.9 98.01-218.9 218.9-218.9 120.9 0 218.9 98.01 218.9 218.9" fill="#BF9E73"/>
  <path d="m256 1c-140.83 0-255 114.17-255 255s114.17 255 255 255 255-114.17 255-255-114.17-255-255-255m8.827 44.931c120.9 0 218.9 98 218.9 218.9s-98 218.9-218.9 218.9-218.93-98-218.93-218.9 98.03-218.9 218.93-218.9" fill-opacity="0.067"/>
  <g fill-opacity="0.129">
   <path d="m256 4.433c-138.94 0-251.57 112.63-251.57 251.57s112.63 251.57 251.57 251.57 251.57-112.63 251.57-251.57-112.63-251.57-251.57-251.57m5.885 38.556c120.9 0 218.9 98 218.9 218.9s-98 218.9-218.9 218.9-218.93-98-218.93-218.9 98.03-218.9 218.93-218.9"/>
   <path d="m256 8.356c-136.77 0-247.64 110.87-247.64 247.64s110.87 247.64 247.64 247.64 247.64-110.87 247.64-247.64-110.87-247.64-247.64-247.64m2.942 31.691c120.9 0 218.9 98 218.9 218.9s-98 218.9-218.9 218.9-218.93-98-218.93-218.9 98.03-218.9 218.93-218.9"/>
  </g>
  <path stroke="#000" stroke-width="4.904" d="m253.04 7.859c-135.42 0-245.19 109.78-245.19 245.19 0 135.42 109.78 245.19 245.19 245.19 135.42 0 245.19-109.78 245.19-245.19 0-135.42-109.78-245.19-245.19-245.19zm0 26.297c120.9 0 218.9 98 218.9 218.9s-98 218.9-218.9 218.9-218.93-98-218.93-218.9 98.03-218.9 218.93-218.9z" stroke-opacity="0.31" fill="#fff"/>
 </g>
 <text font-size="129.23" y="231.36" x="729.64" font-family="&apos;Gentium Book Basic&apos;" line-height="125%" word-spacing="0" letter-spacing="0"><tspan y="231.36" x="729.64"/>
 </text>
 <text transform="scale(4.0128.2492)" font-size="46.954" y="579.25" x="378.91" font-family="Arial" text-anchor="middle"/>
 <text font-size="129.23" y="151.36" x="1310.91" font-family="&apos;Gentium Book Basic&apos;" line-height="125%" word-spacing="0" letter-spacing="0"><tspan y="151.36" x="1310.91"/>
 </text>
 <text transform="scale(4.0128.2492)" font-size="46.954" y="258.22" x="523.76" font-family="Arial" text-anchor="middle"/>
 <text font-size="129.23" y="-29.901" x="239.33" font-family="&apos;Gentium Book Basic&apos;" line-height="125%" word-spacing="0" letter-spacing="0"><tspan y="-29.901" x="239.33"/>
 </text>
 <text transform="scale(4.0128.2492)" font-size="46.954" y="-469.14" x="256.72" font-family="Arial" text-anchor="middle"/>
 <text font-size="129.23" y="-246.37" x="1337.38" font-family="&apos;Gentium Book Basic&apos;" line-height="125%" word-spacing="0" letter-spacing="0"><tspan y="-246.37" x="1337.38"/>
 </text>
 <text transform="scale(4.0128.2492)" font-size="46.954" y="-1337.8" x="530.36" font-family="Arial" text-anchor="middle"/>
 <text font-size="129.23" y="-326.38" x="1918.65" font-family="&apos;Gentium Book Basic&apos;" line-height="125%" word-spacing="0" letter-spacing="0"><tspan y="-326.38" x="1918.65"/>
 </text>
 <text transform="scale(4.0128.2492)" font-size="46.954" y="-1658.84" x="675.21" font-family="Arial" text-anchor="middle"/>
 <text font-size="129.23" y="-798.78" x="1529.53" font-family="&apos;Gentium Book Basic&apos;" line-height="125%" word-spacing="0" letter-spacing="0"><tspan y="-798.78" x="1529.53"/>
 </text>
 <text transform="scale(4.0128.2492)" font-size="46.954" y="-3554.49" x="578.24" font-family="Arial" text-anchor="middle"/>
 <text font-size="129.23" y="-878.78" x="2110.79" font-family="&apos;Gentium Book Basic&apos;" line-height="125%" word-spacing="0" letter-spacing="0"><tspan y="-878.78" x="2110.79"/>
 </text>
 <text transform="scale(4.0128.2492)" font-size="46.954" y="-3875.52" x="723.09" font-family="Arial" text-anchor="middle"/>
 <g font-family="&apos;Gentium Book Basic&apos;" line-height="125%" word-spacing="0" letter-spacing="0">
  <text y="535.94" x="277.99" font-size="208.33"><tspan y="535.94" x="277.99"/>
  </text>
  <text y="270.87" x="-1745.96" font-size="129.23"><tspan y="270.87" x="-1745.96"/>
  </text>
 </g>
 <text transform="scale(4.0128.2492)" font-size="46.954" y="737.79" x="-238.01" font-family="Arial" text-anchor="middle"/>
 <text font-size="129.23" y="190.87" x="-1164.69" font-family="&apos;Gentium Book Basic&apos;" line-height="125%" word-spacing="0" letter-spacing="0"><tspan y="190.87" x="-1164.69"/>
 </text>
 <text transform="scale(4.0128.2492)" font-size="46.954" y="416.76" x="-93.17" font-family="Arial" text-anchor="middle"/>
 <text font-size="129.23" y="9.608" x="-2236.27" font-family="&apos;Gentium Book Basic&apos;" line-height="125%" word-spacing="0" letter-spacing="0"><tspan y="9.608" x="-2236.27"/>
 </text>
 <text transform="scale(4.0128.2492)" font-size="46.954" y="-310.6" x="-360.2" font-family="Arial" text-anchor="middle"/>
 <text font-size="129.23" y="-206.86" x="-1138.22" font-family="&apos;Gentium Book Basic&apos;" line-height="125%" word-spacing="0" letter-spacing="0"><tspan y="-206.86" x="-1138.22"/>
 </text>
 <text transform="scale(4.0128.2492)" font-size="46.954" y="-1179.26" x="-86.57" font-family="Arial" text-anchor="middle"/>
 <text font-size="129.23" y="-286.87" x="-556.95" font-family="&apos;Gentium Book Basic&apos;" line-height="125%" word-spacing="0" letter-spacing="0"><tspan y="-286.87" x="-556.95"/>
 </text>
 <text transform="scale(4.0128.2492)" font-size="46.954" y="-1500.3" x="58.28" font-family="Arial" text-anchor="middle"/>
 <text font-size="129.23" y="-759.27" x="-946.07" font-family="&apos;Gentium Book Basic&apos;" line-height="125%" word-spacing="0" letter-spacing="0"><tspan y="-759.27" x="-946.07"/>
 </text>
 <text transform="scale(4.0128.2492)" font-size="46.954" y="-3395.95" x="-38.686" font-family="Arial" text-anchor="middle"/>
 <text font-size="129.23" y="-839.27" x="-364.81" font-family="&apos;Gentium Book Basic&apos;" line-height="125%" word-spacing="0" letter-spacing="0"><tspan y="-839.27" x="-364.81"/>
 </text>
 <text transform="scale(4.0128.2492)" font-size="46.954" y="-3716.98" x="106.16" font-family="Arial" text-anchor="middle"/>
 <g font-family="&apos;Gentium Book Basic&apos;" line-height="125%" word-spacing="0" letter-spacing="0">
  <text y="575.45" x="-2197.61" font-size="208.33"><tspan y="575.45" x="-2197.61"/>
  </text>
  <text y="525.1" x="-1144.61" font-size="129.23"><tspan y="525.1" x="-1144.61"/>
  </text>
 </g>
 <text transform="scale(4.0128.2492)" font-size="46.954" y="1757.96" x="-88.16" font-family="Arial" text-anchor="middle"/>
 <text font-size="129.23" y="445.1" x="-563.34" font-family="&apos;Gentium Book Basic&apos;" line-height="125%" word-spacing="0" letter-spacing="0"><tspan y="445.1" x="-563.34"/>
 </text>
 <text transform="scale(4.0128.2492)" font-size="46.954" y="1436.93" x="56.693" font-family="Arial" text-anchor="middle"/>
 <text font-size="129.23" y="263.84" x="-1634.92" font-family="&apos;Gentium Book Basic&apos;" line-height="125%" word-spacing="0" letter-spacing="0"><tspan y="263.84" x="-1634.92"/>
 </text>
 <text transform="scale(4.0128.2492)" font-size="46.954" y="709.58" x="-210.35" font-family="Arial" text-anchor="middle"/>
 <text font-size="129.23" y="47.37" x="-536.87" font-family="&apos;Gentium Book Basic&apos;" line-height="125%" word-spacing="0" letter-spacing="0"><tspan y="47.37" x="-536.87"/>
 </text>
 <text transform="scale(4.0128.2492)" font-size="46.954" y="-159.09" x="63.29" font-family="Arial" text-anchor="middle"/>
 <text font-size="129.23" y="-32.643" x="44.4" font-family="&apos;Gentium Book Basic&apos;" line-height="125%" word-spacing="0" letter-spacing="0"><tspan y="-32.643" x="44.4"/>
 </text>
 <text transform="scale(4.0128.2492)" font-size="46.954" y="-480.13" x="208.14" font-family="Arial" text-anchor="middle"/>
 <text font-size="129.23" y="-505.04" x="-344.72" font-family="&apos;Gentium Book Basic&apos;" line-height="125%" word-spacing="0" letter-spacing="0"><tspan y="-505.04" x="-344.72"/>
 </text>
 <text transform="scale(4.0128.2492)" font-size="46.954" y="-2375.78" x="111.17" font-family="Arial" text-anchor="middle"/>
 <text font-size="129.23" y="-585.04" x="236.54" font-family="&apos;Gentium Book Basic&apos;" line-height="125%" word-spacing="0" letter-spacing="0"><tspan y="-585.04" x="236.54"/>
 </text>
 <text transform="scale(4.0128.2492)" font-size="46.954" y="-2696.8" x="256.02" font-family="Arial" text-anchor="middle"/>
 <g font-family="&apos;Gentium Book Basic&apos;" line-height="125%" word-spacing="0" letter-spacing="0">
  <text y="829.68" x="-1596.26" font-size="208.33"><tspan y="829.68" x="-1596.26"/>
  </text>
  <text y="246.55" x="1403.27" font-size="129.23"><tspan y="246.55" x="1403.27"/>
  </text>
 </g>
 <text transform="scale(4.0128.2492)" font-size="46.954" y="640.19" x="546.78" font-family="Arial" text-anchor="middle"/>
 <text font-size="129.23" y="166.55" x="1984.54" font-family="&apos;Gentium Book Basic&apos;" line-height="125%" word-spacing="0" letter-spacing="0"><tspan y="166.55" x="1984.54"/>
 </text>
 <text transform="scale(4.0128.2492)" font-size="46.954" y="319.16" x="691.63" font-family="Arial" text-anchor="middle"/>
 <text font-size="129.23" y="-14.715" x="912.96" font-family="&apos;Gentium Book Basic&apos;" line-height="125%" word-spacing="0" letter-spacing="0"><tspan y="-14.715" x="912.96"/>
 </text>
 <text transform="scale(4.0128.2492)" font-size="46.954" y="-408.2" x="424.59" font-family="Arial" text-anchor="middle"/>
 <text font-size="129.23" y="-231.18" x="2011.01" font-family="&apos;Gentium Book Basic&apos;" line-height="125%" word-spacing="0" letter-spacing="0"><tspan y="-231.18" x="2011.01"/>
 </text>
 <text transform="scale(4.0128.2492)" font-size="46.954" y="-1276.86" x="698.23" font-family="Arial" text-anchor="middle"/>
 <text font-size="129.23" y="-311.19" x="2592.28" font-family="&apos;Gentium Book Basic&apos;" line-height="125%" word-spacing="0" letter-spacing="0"><tspan y="-311.19" x="2592.28"/>
 </text>
 <text transform="scale(4.0128.2492)" font-size="46.954" y="-1597.9" x="843.08" font-family="Arial" text-anchor="middle"/>
 <text font-size="129.23" y="-783.59" x="2203.16" font-family="&apos;Gentium Book Basic&apos;" line-height="125%" word-spacing="0" letter-spacing="0"><tspan y="-783.59" x="2203.16"/>
 </text>
 <text transform="scale(4.0128.2492)" font-size="46.954" y="-3493.55" x="746.11" font-family="Arial" text-anchor="middle"/>
 <text font-size="129.23" y="-863.59" x="2784.42" font-family="&apos;Gentium Book Basic&apos;" line-height="125%" word-spacing="0" letter-spacing="0"><tspan y="-863.59" x="2784.42"/>
 </text>
 <text transform="scale(4.0128.2492)" font-size="46.954" y="-3814.58" x="890.96" font-family="Arial" text-anchor="middle"/>
 <g font-family="&apos;Gentium Book Basic&apos;" line-height="125%" word-spacing="0" letter-spacing="0">
  <text y="551.13" x="951.62" font-size="208.33"><tspan y="551.13" x="951.62"/>
  </text>
  <text y="246.55" x="1403.27" font-size="129.23"><tspan y="246.55" x="1403.27"/>
  </text>
 </g>
 <text transform="scale(4.0128.2492)" font-size="46.954" y="640.19" x="546.78" font-family="Arial" text-anchor="middle"/>
 <text font-size="129.23" y="166.55" x="1984.54" font-family="&apos;Gentium Book Basic&apos;" line-height="125%" word-spacing="0" letter-spacing="0"><tspan y="166.55" x="1984.54"/>
 </text>
 <text transform="scale(4.0128.2492)" font-size="46.954" y="319.16" x="691.63" font-family="Arial" text-anchor="middle"/>
 <text font-size="129.23" y="-14.715" x="912.96" font-family="&apos;Gentium Book Basic&apos;" line-height="125%" word-spacing="0" letter-spacing="0"><tspan y="-14.715" x="912.96"/>
 </text>
 <text transform="scale(4.0128.2492)" font-size="46.954" y="-408.2" x="424.59" font-family="Arial" text-anchor="middle"/>
 <text font-size="129.23" y="-231.18" x="2011.01" font-family="&apos;Gentium Book Basic&apos;" line-height="125%" word-spacing="0" letter-spacing="0"><tspan y="-231.18" x="2011.01"/>
 </text>
 <text transform="scale(4.0128.2492)" font-size="46.954" y="-1276.85" x="698.23" font-family="Arial" text-anchor="middle"/>
 <text font-size="129.23" y="-311.19" x="2592.28" font-family="&apos;Gentium Book Basic&apos;" line-height="125%" word-spacing="0" letter-spacing="0"><tspan y="-311.19" x="2592.28"/>
 </text>
 <text transform="scale(4.0128.2492)" font-size="46.954" y="-1597.89" x="843.08" font-family="Arial" text-anchor="middle"/>
 <text font-size="129.23" y="-783.59" x="2203.16" font-family="&apos;Gentium Book Basic&apos;" line-height="125%" word-spacing="0" letter-spacing="0"><tspan y="-783.59" x="2203.16"/>
 </text>
 <text transform="scale(4.0128.2492)" font-size="46.954" y="-3493.53" x="746.11" font-family="Arial" text-anchor="middle"/>
 <text font-size="129.23" y="-863.59" x="2784.42" font-family="&apos;Gentium Book Basic&apos;" line-height="125%" word-spacing="0" letter-spacing="0"><tspan y="-863.59" x="2784.42"/>
 </text>
 <text transform="scale(4.0128.2492)" font-size="46.954" y="-3814.56" x="890.96" font-family="Arial" text-anchor="middle"/>
 <text font-size="208.33" y="551.13" x="951.62" font-family="&apos;Gentium Book Basic&apos;" line-height="125%" word-spacing="0" letter-spacing="0"><tspan y="551.13" x="951.62"/>
 </text>
 <g fill-rule="evenodd">
  <path opacity="0.25" d="m145.55 125.68c55.52 63.78 62.858 129.59 59.924 172.8-2.572 37.875-25.666 52.06-30.08 53.848-9.199 3.728-30.797 9.298-61.61-10.646 0 10.526 4.051 20.375 11.68 28l100.61 100.61c8.841 1.087 17.843 1.654 26.979 1.654 105.2 0 193.06-74.22 214.1-173.15l-123.67-123.67c-21.17-21.17-63.55-36.617-109.21-43.41 2.154 9.452 7.636 17.623 14.852 24.838l65.16 65.16c-2.31 2.02-5.138 3.916-8.268 5.793l-85.47-85.47c-1.249-1.249-2.01-1.707-2.01-1.707s-34.659-14.65-72.988-14.65"/>
  <path d="m145.55 125.68c55.52 63.78 62.858 129.59 59.924 172.8-2.572 37.875-25.666 52.06-30.08 53.846-9.199 3.728-30.798 9.299-61.61-10.645 0 23.269 19.794 43.22 54.27 43.22 34.478 0 62.71-27.929 68.44-59.38 19.898-162.38-17.962-185.19-17.962-185.19s-34.66-14.652-72.989-14.652m88.72 6.04c9.644 42.32 85.996 58.967 85.996 79.09 0 20.12-52.25 23.583-51.45 56.19 0.804 45.09 63.49 104.76 129.39 119.33-28.933-34.687-102.05-110.29-77.944-129.72 86.8-61.05 7.234-111.01-85.996-124.88" fill="#fff"/>
 </g>
</svg>
