<?xml version="1.0" encoding="UTF-8" standalone="no"?>
<svg xmlns="http://www.w3.org/2000/svg" height="512" viewBox="0 0 512 512" width="512" version="1.1">
 <metadata id="metadata72"/>
 <path id="path4" d="m471.95 253.05c0 120.9-98.01 218.9-218.9 218.9-120.9 0-218.9-98.01-218.9-218.9 0-120.9 98.01-218.9 218.9-218.9 120.9 0 218.9 98.01 218.9 218.9" fill-rule="evenodd" fill="#BF9E73"/>
 <g id="g8" transform="translate(0,-540.36)" fill-rule="evenodd">
  <path id="path10" fill-opacity="0.067" d="m256 541.36c-140.83 0-255 114.17-255 255s114.17 255 255 255 255-114.17 255-255-114.17-255-255-255m8.827 44.931c120.9 0 218.9 98 218.9 218.9s-98 218.9-218.9 218.9-218.93-98-218.93-218.9 98.03-218.9 218.93-218.9"/>
  <g id="g12" fill-opacity="0.129">
   <path id="path14" d="m256 544.79c-138.94 0-251.57 112.63-251.57 251.57s112.63 251.54 251.57 251.54 251.57-112.6 251.57-251.54-112.63-251.57-251.57-251.57m5.885 38.556c120.9 0 218.9 98 218.9 218.9s-98 218.9-218.9 218.9-218.93-98-218.93-218.9 98.03-218.9 218.93-218.9"/>
   <path id="path16" d="m256 548.72c-136.77 0-247.64 110.87-247.64 247.64s110.87 247.64 247.64 247.64 247.64-110.87 247.64-247.64-110.87-247.64-247.64-247.64m2.942 31.691c120.9 0 218.9 98 218.9 218.9s-98 218.9-218.9 218.9-218.93-98-218.93-218.9 98.03-218.9 218.93-218.9"/>
  </g>
  <path id="path18" d="m253.04 548.22c-135.42 0-245.19 109.78-245.19 245.19 0 135.42 109.78 245.19 245.19 245.19 135.42 0 245.19-109.78 245.19-245.19 0-135.42-109.78-245.19-245.19-245.19zm0 26.297c120.9 0 218.9 98 218.9 218.9s-98 218.9-218.9 218.9-218.93-98-218.93-218.9 98.03-218.9 218.93-218.9z" stroke-opacity="0.31" stroke="#000" stroke-width="4.904" fill="#fff"/>
 </g>
 <path id="path66" stroke="#fff" fill="#fff" d="m289.47 73.798a3.6443 3.6443 0 0 0 -3.4785 4.5301c3.338 13.147 2.067 23.577-1.968 32.763-4.04 9.186-10.98 17.16-19.28 24.673-16.6 15.03-38.489 27.797-50.667 46.08-8.61 12.927-6.399 27.17 1.834 40.636 8.233 13.465 22.19 27.01 38.13 41.39a3.6443 3.6443 0 0 0 5.7975 -4.1796c-6.646-15.02-20.1-28.04-24.916-41.796-2.407-6.88-2.891-13.734 0.297-21.68 3.187-7.946 10.285-17.1 23.567-27.585 34.444-27.19 43.55-50.4 43.31-67.14-0.244-16.746-9.977-26.642-9.977-26.642a3.6443 3.6443 0 0 0 -2.6426 -1.0516m41.769 68.357a3.6443 3.6443 0 0 0 -0.0809 0.027 3.6443 3.6443 0 0 0 -0.56627 0.10786s-29.06 7.166-51.665 22.759c-11.301 7.797-21.21 17.827-24.592 30.659-3.383 12.832 0.314 27.923 14.507 44.28 7.225 8.318 6.074 15.04 3.398 20.682-2.677 5.646-7.227 9.411-7.227 9.411a3.6443 3.6443 0 0 0 3.9908 6.0672s0.593-0.376 0.647-0.404c1-0.523 10.494-5.514 18.525-14.265 4.231-4.61 7.995-10.254 9.384-16.88 1.388-6.627 0.135-14.166-5.069-21.491-4.444-6.246-8.485-11.597-10.84-16.395-2.355-4.797-3.146-8.763-1.672-13.51 2.948-9.494 17.03-23.17 53.34-44.22a3.6443 3.6443 0 0 0 -2.0763 -6.8222m20.547 112.74c-4.454 0.009-9.158 0.809-13.914 2.481-4.821 1.712-7.227 5.636-7.227 5.636a3.6443 3.6443 0 0 0 4.4492 5.3121s1.812-0.76 6.579-1.753c8.04-1.675 18.508 4.01 20.06 13.13 0.777 4.559-0.407 10.301-5.744 17.18-5.337 6.876-14.859 14.704-30.25 22.705a3.6443 3.6443 0 0 0 -1.6988 1.8336c-0.024 0.038-0.048 0.044-0.081 0.081-0.023 0.026-0.031 0.057-0.054 0.081-0.045 0.048-0.103 0.104-0.135 0.135a3.6443 3.6443 0 0 0 -0.0539 0.027 3.6443 3.6443 0 0 0 -1.2134 2.7235s2.332 1.054 4.126 1.861l0.431 1.672c38.12-10.02 54.51-27.27 55.872-43.576 1.357-16.302-13.03-29.562-31.14-29.527m-135.96 3.182c-7.08 0.007-27.669 1.159-51.935 12.889-2.359 1.141-4.192 2.273-5.636 3.667-1.443 1.394-2.63 3.357-2.508 5.609s1.478 3.98 2.939 5.15c1.461 1.171 3.21 2.024 5.258 2.804 8.193 3.123 21.852 5.01 38.668 5.986 33.633 1.956 79.04-0.156 110.64-8.467a3.6443 3.6443 0 0 0 1.1325 -0.51233c5.945-4.06 14.696-7.874 14.696-7.874a3.6443 3.6443 0 0 0 -2.0763 -6.93s-25.16 4.474-50.13 6.579c-30.648 2.568-63.838 3.02-79.74 0.89-4.381-0.585-7.232-1.318-8.872-1.941 1.301-0.866 3.37-1.906 5.797-2.912 9.8-4.064 24.97-7.712 24.97-7.712a3.6443 3.6443 0 0 0 -0.59322 -7.1727s-0.985-0.056-2.616-0.054m-12.161 38.048a3.6443 3.6443 0 0 0 -0.78199 0.18875c-7.323 2.431-12.463 4.87-15.936 7.712-1.736 1.421-3.081 2.983-3.883 4.854s-0.891 4.103-0.216 5.986c1.35 3.766 4.687 6.02 8.898 7.982 4.211 1.957 9.598 3.508 16.02 4.746 25.677 4.95 67.854 4.47 108.13-7.308a3.6443 3.6443 0 0 0 0.18876 -6.93c-7.567-2.668-12.404-7.55-12.404-7.55a3.6443 3.6443 0 0 0 -3.2898 -1.0247c-38.475 7.409-60.22 7.194-88.39 4.287-5.15-0.533-7.816-1.669-8.602-2.265-0.197-0.149-0.33-0.236-0.404-0.27 0.036-0.019 0.08-0.064 0.108-0.162 0.126-0.44 0.881-1.558 1.672-2.373s1.456-1.294 1.456-1.294a3.6443 3.6443 0 0 0 -2.1842 -6.5795 3.6443 3.6443 0 0 0 -0.3775 0m8.1435 36.646a3.6443 3.6443 0 0 0 -0.0809 0.027 3.6443 3.6443 0 0 0 -0.64716 0.13482c-6.716 1.877-11.468 3.969-14.696 6.687s-4.861 6.966-3.586 10.57 4.333 6.05 8.224 8.224 8.831 4.01 14.669 5.501c23.352 5.945 60.953 6.336 94.67-8.116a3.6443 3.6443 0 0 0 -0.10786 -6.7413c-10.406-4.047-17.797-8.683-17.797-8.683a3.6443 3.6443 0 0 0 -2.6156 -0.48537c-29.08 5.504-41.912 5.92-68.28 2.912-5.05-0.581-7.901-1.487-9.09-2.103 0.134-0.173 0.087-0.116 0.297-0.297 0.582-0.502 1.106-0.809 1.106-0.809a3.6443 3.6443 0 0 0 -2.0763 -6.8222m-34.27 24.322c-12.496-0.024-30 5.32-40.42 12.134-2.605 1.703-4.804 3.482-6.364 5.663-1.56 2.18-2.47 5.218-1.429 8.04 1.041 2.818 3.447 4.715 6.606 6.175s7.286 2.565 12.755 3.452c67.27 10.91 128.51 8.487 168.88 1.294 20.19-3.596 35.04-8.207 43.47-13.59 4.214-2.691 7.482-5.86 7.388-10.301-0.047-2.22-1.14-4.296-2.67-5.851-1.529-1.555-3.496-2.757-5.932-3.856a3.6443 3.6443 0 0 0 -3.829 6.1211s0.94 1.182 0.917 1.699c-0.012 0.259 0.021 0.722-1.321 1.834-1.343 1.112-4.074 2.622-8.764 4.045-18 5.453-57.5 9.307-96.1 9.788-19.303 0.24-38.457-0.344-54.766-1.861s-29.871-4.084-37.4-7.361c-0.279-0.121-0.154-0.106-0.351-0.216 0.549-0.459 1.252-1.043 2.238-1.564 4.418-2.335 11.798-4.557 14.939-5.231a3.6443 3.6443 0 0 0 0.027 0c6.979-1.513 10.489-1.213 10.489-1.213a3.6443 3.6443 0 0 0 2.3729 -6.6064c-2.974-2.095-6.637-2.581-10.732-2.589m201.78 19.9a3.6443 3.6443 0 0 0 -3.1549 2.1572c-0.077 0.116-0.257 0.377-0.647 0.782-0.81 0.839-2.458 2.246-5.582 3.991-6.248 3.49-18.37 8.263-40.933 12.512-50.897 9.578-114.3 8.486-151.38 2.373l-0.162 0.971a3.6443 3.6443 0 0 0 -1.7258 5.42c-0.296 0.019-0.947 0.051-0.944 0.054 0.017 0.014 0.03 0.036 0.054 0.054 0.048 0.036 0.096 0.088 0.162 0.135 0.132 0.094 0.305 0.195 0.512 0.324 0.415 0.257 0.996 0.573 1.78 0.944 1.568 0.742 3.969 1.697 7.577 2.697 7.216 1.999 19.261 4.245 39.26 5.528 30.397 1.946 68.791 1.429 100.15-3.209 15.679-2.319 29.573-5.651 40.04-10.409 10.471-4.758 18.12-11.334 18.822-20.413a3.6443 3.6443 0 0 0 -3.829 -3.9099"/>
</svg>
