<?xml version="1.0" encoding="UTF-8" standalone="no"?>
<svg
   xmlns:dc="http://purl.org/dc/elements/1.1/"
   xmlns:cc="http://creativecommons.org/ns#"
   xmlns:rdf="http://www.w3.org/1999/02/22-rdf-syntax-ns#"
   xmlns:svg="http://www.w3.org/2000/svg"
   xmlns="http://www.w3.org/2000/svg"
   xmlns:sodipodi="http://sodipodi.sourceforge.net/DTD/sodipodi-0.dtd"
   xmlns:inkscape="http://www.inkscape.org/namespaces/inkscape"
   height="512"
   viewBox="0 0 512 512"
   width="512"
   version="1.1"
   id="svg2"
   inkscape:version="0.91 r13725"
   sodipodi:docname="jokosher.svg">
  <sodipodi:namedview
     pagecolor="#ffffff"
     bordercolor="#666666"
     borderopacity="1"
     objecttolerance="10"
     gridtolerance="10"
     guidetolerance="10"
     inkscape:pageopacity="0"
     inkscape:pageshadow="2"
     inkscape:window-width="1680"
     inkscape:window-height="1024"
     id="namedview19"
     showgrid="false"
     inkscape:zoom="0.4609375"
     inkscape:cx="-162.71186"
     inkscape:cy="256"
     inkscape:window-x="0"
     inkscape:window-y="0"
     inkscape:window-maximized="0"
     inkscape:current-layer="svg2" />
  <metadata
     id="metadata93">
    <rdf:RDF>
      <cc:Work
         rdf:about="">
        <dc:format>image/svg+xml</dc:format>
        <dc:type
           rdf:resource="http://purl.org/dc/dcmitype/StillImage" />
      </cc:Work>
    </rdf:RDF>
  </metadata>
  <defs
     id="defs4">
    <radialGradient
       id="0"
       gradientUnits="userSpaceOnUse"
       cy="256"
       cx="256"
       r="226.38">
      <stop
         id="stop21"
         stop-color="#d45500"
         stop-opacity="0.344" />
      <stop
         id="stop23"
         stop-color="#e65c00"
         offset="1" />
    </radialGradient>
  </defs>
  <path
     id="path25"
     d="m471.95 253.05c0 120.9-98.01 218.91-218.91 218.91s-218.91-98.01-218.91-218.91 98.01-218.91 218.91-218.91 218.91 98.01 218.91 218.91"
     fill-rule="evenodd"
     fill="#BF9E73" />
  <path
     id="path27"
     opacity="0.5"
     fill="url(#0)"
     d="m210.72 38.25c-27.554 5.396-53.23 15.942-76.03 30.625l114.06 179.88-179.12-115.22c-14.844 22.734-25.561 48.4-31.12 75.938l207.91 46.531-206.97 45.03c6.06 27.09 17.11 52.29 32.19 74.56l177.13-112.34-112.53 174.94c22.426 14.182 47.58 24.382 74.53 29.656l45.25-202.25 43.781 201.34c26.492-5.763 51.2-16.318 73.16-30.719l-109.69-172.97 172.22 110.81c14.561-21.906 25.27-46.572 31.19-73.06l-201.06-45 202.5-44.03c-5.118-26.945-15.17-52.16-29.19-74.62l-175.66 111.41 113.44-176.34c-22.21-15.23-47.36-26.499-74.44-32.719l-46.25 206.72-45.28-208.16"
     style="fill:#ffffff;fill-opacity:1;opacity:0.7" />
  <path
     id="path29"
     opacity="0.25"
     d="m228.78 99.56-61.719 13.813v194.5c0 11.05-1.915 19.483-5.781 25.281-3.866 5.799-10.648 8.687-20.313 8.688-5.246 0-9.53-0.26-12.844-0.813-3.59-0.552-7.452-1.526-11.594-2.906l-8.281 50.13 70.938 70.938c23.08 8.27 47.923 12.781 73.844 12.781 92.72 0 171.96-57.66 203.88-139.06l-228.12-233.34" />
  <path
     style="fill-opacity:0.06700003;fill-rule:evenodd"
     inkscape:connector-curvature="0"
     d="M 256,1 C 115.17,1 1,115.17 1,256 1,396.83 115.17,511 256,511 396.83,511 511,396.83 511,256 511,115.17 396.83,1 256,1 m 8.827,44.931 c 120.9,0 218.9,98 218.9,218.9 0,120.9 -98,218.9 -218.9,218.9 -120.9,0 -218.93,-98 -218.93,-218.9 0,-120.9 98.03,-218.9 218.93,-218.9"
     id="path33" />
  <g
     style="fill-opacity:0.12900002;fill-rule:evenodd"
     id="g35">
    <path
       inkscape:connector-curvature="0"
       d="M 256,4.43 C 117.06,4.43 4.43,117.06 4.43,256 4.43,394.94 117.06,507.57 256,507.57 394.94,507.57 507.57,394.94 507.57,256 507.57,117.06 394.94,4.43 256,4.43 m 5.885,38.556 c 120.9,0 218.9,98 218.9,218.9 0,120.9 -98,218.9 -218.9,218.9 -120.9,0 -218.93,-98 -218.93,-218.9 0,-120.9 98.03,-218.9 218.93,-218.9"
       id="path37" />
    <path
       inkscape:connector-curvature="0"
       d="M 256,8.36 C 119.23,8.36 8.36,119.23 8.36,256 8.36,392.77 119.23,503.64 256,503.64 392.77,503.64 503.64,392.77 503.64,256 503.64,119.23 392.77,8.36 256,8.36 m 2.942,31.691 c 120.9,0 218.9,98 218.9,218.9 0,120.9 -98,218.9 -218.9,218.9 -120.9,0 -218.93,-98 -218.93,-218.9 0,-120.9 98.03,-218.9 218.93,-218.9"
       id="path39" />
  </g>
  <path
     style="fill:#ffffff;fill-rule:evenodd;stroke:#000000;stroke-width:4.90399981;stroke-opacity:0.31000001"
     inkscape:connector-curvature="0"
     d="M 253.04,7.86 C 117.62,7.86 7.85,117.64 7.85,253.05 c 0,135.42 109.78,245.19 245.19,245.19 135.42,0 245.19,-109.78 245.19,-245.19 C 498.23,117.63 388.45,7.86 253.04,7.86 Z m 0,26.297 c 120.9,0 218.9,98 218.9,218.9 0,120.9 -98,218.9 -218.9,218.9 -120.9,0 -218.93,-98 -218.93,-218.9 0,-120.9 98.03,-218.9 218.93,-218.9 z"
     id="path41" />
  <path
     id="path89"
     fill="#fff"
     d="m146.77 394.04c-3.866 0-9.526-0.414-16.982-1.243-7.732-0.828-14.911-2.347-21.538-4.556l8.284-50.12c4.142 1.381 8.01 2.347 11.597 2.899 3.314 0.552 7.594 0.828 12.84 0.828 9.665 0 16.43-2.899 20.296-8.698s5.799-14.221 5.799-25.27v-194.52l61.715-13.821v210c0 28.718-7.04 49.98-21.12 63.786s-34.378 20.71-60.887 20.71" />
</svg>
