<?xml version="1.0" encoding="UTF-8" standalone="no"?>
<svg xmlns:dc="http://purl.org/dc/elements/1.1/" xmlns:cc="http://creativecommons.org/ns#" xmlns:rdf="http://www.w3.org/1999/02/22-rdf-syntax-ns#" xmlns:svg="http://www.w3.org/2000/svg" xmlns="http://www.w3.org/2000/svg" xmlns:sodipodi="http://sodipodi.sourceforge.net/DTD/sodipodi-0.dtd" xmlns:inkscape="http://www.inkscape.org/namespaces/inkscape" height="512" viewBox="0 0 512 512" width="512" version="1.1" id="svg2" inkscape:version="0.91 r" sodipodi:docname="kaddressbook.svg">
<defs id="defs17" />
<sodipodi:namedview pagecolor="#ffffff" bordercolor="#666666" borderopacity="1" objecttolerance="10" gridtolerance="10" guidetolerance="10" inkscape:pageopacity="0" inkscape:pageshadow="2" inkscape:window-width="1680" inkscape:window-height="994" id="namedview15" showgrid="false" inkscape:zoom="1.3037281" inkscape:cx="53.590229" inkscape:cy="244.919" inkscape:window-x="0" inkscape:window-y="0" inkscape:window-maximized="1" inkscape:current-layer="svg2" />
<metadata id="metadata28">
<rdf:RDF>
<cc:Work rdf:about="">
<dc:format>image/svg+xml</dc:format>
<dc:type rdf:resource="http://purl.org/dc/dcmitype/StillImage" />
<dc:title></dc:title>
</cc:Work>
</rdf:RDF>
</metadata>
<path style="fill:#BF9E73;fill-rule:evenodd;fill-opacity:1" inkscape:connector-curvature="0" d="m 471.95,253.05 c 0,120.9 -98.01,218.9 -218.9,218.9 -120.9,0 -218.9,-98.01 -218.9,-218.9 0,-120.9 98.01,-218.9 218.9,-218.9 120.9,0 218.9,98.01 218.9,218.9" id="path6" />
<path style="fill-opacity:0.06700003;fill-rule:evenodd" inkscape:connector-curvature="0" d="M 256,1 C 115.17,1 1,115.17 1,256 1,396.83 115.17,511 256,511 396.83,511 511,396.83 511,256 511,115.17 396.83,1 256,1 m 8.827,44.931 c 120.9,0 218.9,98 218.9,218.9 0,120.9 -98,218.9 -218.9,218.9 -120.9,0 -218.93,-98 -218.93,-218.9 0,-120.9 98.03,-218.9 218.93,-218.9" id="path8" />
<g style="fill-opacity:0.12900002;fill-rule:evenodd" id="g10">
<path inkscape:connector-curvature="0" d="m 256,4.433 c -138.94,0 -251.57,112.63 -251.57,251.57 0,138.94 112.63,251.57 251.57,251.57 138.94,0 251.57,-112.63 251.57,-251.57 C 507.57,117.063 394.94,4.433 256,4.433 m 5.885,38.556 c 120.9,0 218.9,98 218.9,218.9 0,120.9 -98,218.9 -218.9,218.9 -120.9,0 -218.93,-98 -218.93,-218.9 0,-120.9 98.03,-218.9 218.93,-218.9" id="path12" />
<path inkscape:connector-curvature="0" d="m 256,8.356 c -136.77,0 -247.64,110.87 -247.64,247.64 0,136.77 110.87,247.64 247.64,247.64 136.77,0 247.64,-110.87 247.64,-247.64 C 503.64,119.226 392.77,8.356 256,8.356 m 2.942,31.691 c 120.9,0 218.9,98 218.9,218.9 0,120.9 -98,218.9 -218.9,218.9 -120.9,0 -218.93,-98 -218.93,-218.9 0,-120.9 98.03,-218.9 218.93,-218.9" id="path14" />
</g>
<path inkscape:connector-curvature="0" style="opacity:0.25" d="m 160.50086,112.28969 c -0.503,0.016 -1.042,0.061 -1.625,0.156 l 18.09,18.09 -0.01,0 -18.09,-18.09 c -2.331,0.38 -5.154,1.185 -8.498,2.813 l -0.002,-0.002 c -6.762,3 -14.448,12.05 -14.12,24.313 l 0,244.09 18.07,18.07 -0.01,0 -18.06,-18.06 c 0,6.02 2.01,10.03 4.682,12.709 l 0.021,0.021 73.55,73.55 c 11.813,1.972 23.94,3.02 36.31,3.02 120.9,0 218.91,-98.01 218.91,-218.91 0,-16.71 -1.88,-32.98 -5.426,-48.617 l -92.99,-92.99 -207.94,0 c -0.284,0.014 -1.361,-0.204 -2.865,-0.156 l -0.004,-0.004" id="path3722" />
<path inkscape:connector-curvature="0" style="fill:#ffffff" d="m 160.50086,112.28969 c -0.503,0.016 -1.042,0.061 -1.625,0.156 -2.332,0.38 -5.155,1.185 -8.5,2.813 -6.762,3 -14.45,12.05 -14.12,24.313 l 0,244.09 c 0,18.08 18.09,18.06 18.09,18.06 l 216.97,0 0,-253.12 -18.09,0 0,-18.06 18.09,0 0,-18.09 -207.94,0 c -0.285,0.014 -1.365,-0.205 -2.875,-0.156 m 1.906,18.16 c 0.624,-0.013 0.955,0.134 0.969,0.094 l 171.78,0 0,18.06 -171.78,0 c -0.108,0 -0.82,-0.418 -1.688,-0.563 -1.591,-0.253 -3.792,-1.111 -5.094,-2.25 -1.23,-1.211 -2.105,-1.699 -2.25,-6.219 0.289,-5.858 1.654,-6.383 3.969,-7.938 1.157,-0.597 2.326,-0.944 3.375,-1.125 l 0,0.031 c 0.267,-0.045 0.511,-0.089 0.719,-0.094 m 97.41,67.16 c 14.188,0 26.874,2.915 38.03,8.719 11.157,5.804 19.781,14.04 25.844,24.75 6.06,10.706 9.09,23.07 9.09,37.06 0,9.287 -1.502,17.792 -4.469,25.531 -2.967,7.739 -7.145,13.773 -12.563,18.09 -5.418,4.321 -11.716,6.469 -18.875,6.469 -4.773,0 -9.04,-1.118 -12.781,-3.375 -3.676,-2.322 -6.265,-5.353 -7.813,-9.09 l -1.563,0 c -3.16,3.87 -6.986,6.93 -11.5,9.188 -4.515,2.193 -9.547,3.281 -15.09,3.281 -11.415,0 -20.422,-3.414 -27,-10.25 -6.578,-6.901 -9.875,-16.29 -9.875,-28.16 0,-13.479 4.268,-24.397 12.781,-32.781 8.577,-8.384 19.938,-12.562 34.06,-12.563 5.224,0 11.257,0.499 18.09,1.531 6.836,0.968 12.398,2.234 16.719,3.781 l -2.219,47.31 c 0,9.03 2.442,13.531 7.344,13.531 4.127,0 7.424,-3 9.875,-9 2.451,-6.06 3.687,-13.949 3.688,-23.688 0,-10.383 -2.179,-19.536 -6.5,-27.469 -4.257,-7.997 -10.32,-14.12 -18.19,-18.313 -7.804,-4.256 -16.75,-6.375 -26.875,-6.375 -12.963,0 -24.295,2.708 -33.969,8.125 -9.674,5.418 -17.06,13.158 -22.16,23.22 -5.095,10.06 -7.625,21.687 -7.625,34.844 0,17.865 4.738,31.549 14.219,41.09 9.545,9.48 23.348,14.219 41.41,14.219 7.223,0 14.964,-0.794 23.22,-2.406 8.255,-1.612 16.08,-3.821 23.5,-6.594 l 0,18.688 c -13.673,5.804 -29.01,8.687 -45.969,8.688 -24.507,0 -43.607,-6.445 -57.34,-19.344 -13.673,-12.899 -20.531,-30.822 -20.531,-53.781 0,-15.93 3.533,-30.41 10.563,-43.44 7.094,-13.03 17.13,-23.18 30.09,-30.469 12.963,-7.352 27.736,-11.03 44.38,-11.03 m -0.563,54.47 c -8.06,0 -14.361,2.501 -18.875,7.531 -4.45,5.03 -6.656,11.919 -6.656,20.625 0,13.608 5.532,20.406 16.625,20.406 5.74,0 10.125,-2.031 13.156,-6.094 3.096,-4.127 4.98,-10.838 5.625,-20.12 l 1.25,-21.375 c -2.967,-0.645 -6.675,-0.969 -11.125,-0.969" id="path3724" />
<path style="fill:#ffffff;fill-rule:evenodd;stroke:#000000;stroke-width:4.90399981;stroke-opacity:0.31000001" inkscape:connector-curvature="0" d="m 253.04,7.859 c -135.42,0 -245.19,109.78 -245.19,245.19 0,135.42 109.78,245.19 245.19,245.19 135.42,0 245.19,-109.78 245.19,-245.19 0,-135.42 -109.78,-245.19 -245.19,-245.19 z m 0,26.297 c 120.9,0 218.9,98 218.9,218.9 0,120.9 -98,218.9 -218.9,218.9 -120.9,0 -218.93,-98 -218.93,-218.9 0,-120.9 98.03,-218.9 218.93,-218.9 z" id="path16" />
</svg>
