<?xml version="1.0" encoding="UTF-8" standalone="no"?>
<svg xmlns="http://www.w3.org/2000/svg" height="512" viewBox="0 0 512 512" width="512" version="1.1">
 <metadata id="metadata72"/>
 <g id="g4" transform="translate(0,-540.36)" fill-rule="evenodd">
  <path id="path6" fill="#BF9E73" d="m471.95 793.41c0 120.9-98.01 218.9-218.9 218.9-120.9 0-218.9-98.01-218.9-218.9 0-120.9 98.01-218.9 218.9-218.9 120.9 0 218.9 98.01 218.9 218.9"/>
  <path id="path10" fill-opacity="0.067" d="m256 541.36c-140.83 0-255 114.17-255 255s114.17 255 255 255 255-114.17 255-255-114.17-255-255-255m8.827 44.931c120.9 0 218.9 98 218.9 218.9s-98 218.9-218.9 218.9-218.93-98-218.93-218.9 98.03-218.9 218.93-218.9"/>
  <g id="g12" fill-opacity="0.129">
   <path id="path14" d="m256 544.79c-138.94 0-251.57 112.63-251.57 251.57s112.63 251.54 251.57 251.54 251.57-112.6 251.57-251.54-112.63-251.57-251.57-251.57m5.885 38.556c120.9 0 218.9 98 218.9 218.9s-98 218.9-218.9 218.9-218.93-98-218.93-218.9 98.03-218.9 218.93-218.9"/>
   <path id="path16" d="m256 548.72c-136.77 0-247.64 110.87-247.64 247.64s110.87 247.64 247.64 247.64 247.64-110.87 247.64-247.64-110.87-247.64-247.64-247.64m2.942 31.691c120.9 0 218.9 98 218.9 218.9s-98 218.9-218.9 218.9-218.93-98-218.93-218.9 98.03-218.9 218.93-218.9"/>
  </g>
  <path id="path18" d="m253.04 548.22c-135.42 0-245.19 109.78-245.19 245.19 0 135.42 109.78 245.19 245.19 245.19 135.42 0 245.19-109.78 245.19-245.19 0-135.42-109.78-245.19-245.19-245.19zm0 26.297c120.9 0 218.9 98 218.9 218.9s-98 218.9-218.9 218.9-218.93-98-218.93-218.9 98.03-218.9 218.93-218.9z" stroke-opacity="0.31" stroke="#000" stroke-width="4.904" fill="#fff"/>
 </g>
 <path id="path66" d="m249.09 127.82c-3.983 0-7.173 3.19-7.173 7.173v22.095c-54.58 7.217-96.72 53.921-96.72 110.47 0 61.55 49.921 111.47 111.47 111.47 61.55 0 111.43-49.921 111.43-111.47 0-57.37-43.33-104.62-99.06-110.77v-21.797c0-3.983-3.19-7.173-7.173-7.173h-12.772m-56.812 7.514c-0.688-0.004-1.37-0.005-2.065 0.021-9.816 0.367-20.246 3.692-29.885 9.813-0.277-0.287-0.566-0.566-0.873-0.83-6.2-5.343-16.254-3.835-22.457 3.363-6.01 6.973-6.184 16.741-0.553 22.2-11.816 20.1-11.763 43.13 1.852 56.748 0.304 0.304 0.666 0.539 0.979 0.83 0.456-1.778 0.821-3.601 1.362-5.343 1.065-3.424 2.299-6.755 3.683-10.03 1.384-3.27 2.914-6.459 4.598-9.557s3.505-6.096 5.471-9c1.965-2.908 4.072-5.729 6.301-8.429s4.593-5.296 7.07-7.769c2.474-2.473 5.069-4.818 7.769-7.05 2.701-2.228 5.499-4.336 8.408-6.301s5.926-3.787 9.03-5.47c3.099-1.683 6.287-3.215 9.557-4.598 3.271-1.383 6.644-2.618 10.07-3.682 2.788-0.867 5.636-1.548 8.514-2.192-0.638-0.762-1.246-1.544-1.958-2.256-7.01-7.01-16.542-10.416-26.863-10.473m127.44 0c-10.321 0.057-19.853 3.463-26.863 10.473-0.712 0.712-1.32 1.494-1.958 2.256 2.879 0.645 5.748 1.325 8.536 2.192 3.424 1.065 6.776 2.299 10.05 3.682 3.271 1.383 6.48 2.915 9.579 4.598s6.095 3.506 9 5.47c2.909 1.965 5.707 4.073 8.408 6.301s5.295 4.572 7.769 7.05c2.474 2.473 4.838 5.069 7.07 7.769 2.229 2.7 4.335 5.521 6.301 8.429 1.965 2.908 3.787 5.906 5.471 9 1.684 3.098 3.214 6.287 4.598 9.557s2.617 6.602 3.682 10.03c0.542 1.742 0.928 3.565 1.384 5.343 0.314-0.291 0.654-0.526 0.958-0.83 13.615-13.615 13.668-36.652 1.852-56.748 5.631-5.461 5.456-15.228-0.553-22.2-6.203-7.198-16.256-8.706-22.457-3.363-0.307 0.265-0.596 0.543-0.873 0.83-9.64-6.121-20.07-9.445-29.885-9.813-0.695-0.026-1.377-0.025-2.065-0.021m-63.05 45.19c48.08 0 87.04 38.959 87.04 87.04 0 48.08-38.959 87.06-87.04 87.06-48.08 0-87.08-38.98-87.08-87.06s39-87.04 87.08-87.04m-27.672 12.537c-1.503-0.006-3.03 0.343-4.449 1.107l-1.15 0.617c-4.552 2.443-6.249 8.07-3.81 12.623l25.25 47.19-31.546 38.74c-3.06 3.754-2.498 9.222 1.256 12.282l1.894 1.575c3.754 3.06 9.244 2.498 12.303-1.256l35.824-43.977c0.449-0.551 0.812-1.133 1.107-1.745 1.465-2.67 1.593-6 0.043-8.898l-28.544-53.34c-1.677-3.131-4.868-4.903-8.174-4.917m-65.69 158.5c-1.907 0-3.796 0.731-5.258 2.192l-10.26 10.239c-2.923 2.923-2.923 7.614 0 10.537l7.471 7.471c2.923 2.923 7.635 2.923 10.558 0l10.239-10.239c2.923-2.923 2.923-7.614 0-10.537l-7.471-7.471c-1.461-1.461-3.372-2.192-5.279-2.192m185.21 0c-1.907 0-3.818 0.731-5.279 2.192l-7.471 7.471c-2.923 2.923-2.923 7.614 0 10.537l10.238 10.239c2.923 2.923 7.635 2.923 10.558 0l7.471-7.471c2.923-2.923 2.923-7.614 0-10.537l-10.239-10.239c-1.461-1.461-3.372-2.192-5.279-2.192" fill-rule="evenodd" fill="#fff"/>
</svg>
