<?xml version="1.0" encoding="UTF-8" standalone="no"?>
<svg xmlns:dc="http://purl.org/dc/elements/1.1/" xmlns:cc="http://creativecommons.org/ns#" xmlns:rdf="http://www.w3.org/1999/02/22-rdf-syntax-ns#" xmlns:svg="http://www.w3.org/2000/svg" xmlns="http://www.w3.org/2000/svg" xmlns:sodipodi="http://sodipodi.sourceforge.net/DTD/sodipodi-0.dtd" xmlns:inkscape="http://www.inkscape.org/namespaces/inkscape" height="512" viewBox="0 0 512 512" width="512" version="1.1" id="svg2" inkscape:version="0.91 r" sodipodi:docname="kalgebra.svg">
<defs id="defs17" />
<sodipodi:namedview pagecolor="#ffffff" bordercolor="#666666" borderopacity="1" objecttolerance="10" gridtolerance="10" guidetolerance="10" inkscape:pageopacity="0" inkscape:pageshadow="2" inkscape:window-width="1680" inkscape:window-height="1022" id="namedview15" showgrid="false" inkscape:zoom="1.3037281" inkscape:cx="52.823198" inkscape:cy="244.919" inkscape:window-x="1680" inkscape:window-y="0" inkscape:window-maximized="1" inkscape:current-layer="svg2" />
<metadata id="metadata28">
<rdf:RDF>
<cc:Work rdf:about="">
<dc:format>image/svg+xml</dc:format>
<dc:type rdf:resource="http://purl.org/dc/dcmitype/StillImage" />
<dc:title></dc:title>
</cc:Work>
</rdf:RDF>
</metadata>
<path style="fill:#BF9E73;fill-rule:evenodd" inkscape:connector-curvature="0" id="path3714" d="m 474.63245,252.74349 c 0,120.9 -98.01,218.91 -218.91,218.91 -120.9,0 -218.910003,-98.01 -218.910003,-218.91 0,-120.9 98.010003,-218.910003 218.910003,-218.910003 120.9,0 218.91,98.010003 218.91,218.910003" />
<path inkscape:connector-curvature="0" style="opacity:0.25" d="m 172.72245,128.12349 -16.773,9.492 -5.182,34.545 -19.979,-19.979 -15.01,8.828 41.05,71.07 42.06,42.06 c -1.463,4.714 -2.91,9.338 -4.256,13.479 l -38.727,-38.727 c -4.36,-4.36 -9.797,-2.172 -19.605,3.49 -10.769,6.217 -12.309,9.344 -6.826,14.826 l 9.03,9.03 c 6.248,9.139 14.221,28.03 19.422,46.988 6.392,23.307 13.205,47.14 15.229,52.971 1.205,3.471 2.113,5.662 3.03,6.574 l 88.67,88.67 c 116.66,-4.795 209.76,-100.87 209.76,-218.7 0,-9.454 -0.599,-18.769 -1.762,-27.906 l -74.52,-74.52 c -7.847,0 -20.965,-0.131 -80.18,-0.131 l 21.19,21.19 c -8.157,0 -6.423,0.002 -17.436,0.002 l -66.43,0 -21.19,-21.19 -8.672,30.834 -52.906,-52.906" id="path3772" />
<path inkscape:connector-curvature="0" style="fill:#ffffff" d="m 172.72245,128.12349 -16.774,9.49 -5.297,35.31 -1.104,11.918 -18.76,-32.665 -15.01,8.828 41.05,71.07 15.01,-8.608 -14.567,-25.381 3.752,-8.387 35.975,19.2 16.995,-9.711 -47.894,-25.381 z m 61.58,22.07 -23.837,84.75 c -13.09,46.614 -25.935,84.75 -28.471,84.75 -2.536,0 -7.849,-16.01 -13.02,-35.31 -10.924,-40.771 -13.1,-43.3 -32.665,-32 -13.325,7.693 -12.521,10.655 -1.766,19.2 6.413,5.096 17,28.339 23.395,51.646 6.392,23.307 13.205,47.14 15.229,52.97 3.27,9.417 4.351,9.417 9.27,0 3.044,-5.827 17.782,-54.29 32.665,-107.71 l 26.926,-97.11 79.896,0 c 48.13,0 66.62,-0.006 76.2,-0.006 0,-5.568 0.225,-14.945 0.225,-21.05 -7.847,0 -20.965,-0.131 -80.18,-0.131 z m 34.872,44.583 -64.888,184.51 41.935,0 13.243,-43.7 67.1,0 13.243,43.7 42.16,0 -65.33,-184.51 z m 23.837,28.471 c 0.67,3.02 1.802,7.162 3.311,12.36 1.593,5.198 8.644,27.665 20.967,67.32 l -47.894,0 c 13.08,-42.33 20.849,-68.946 23.616,-79.68" id="path3774" />
<path style="fill-opacity:0.06700003;fill-rule:evenodd" inkscape:connector-curvature="0" d="M 256,1 C 115.17,1 1,115.17 1,256 1,396.83 115.17,511 256,511 396.83,511 511,396.83 511,256 511,115.17 396.83,1 256,1 m 8.827,44.931 c 120.9,0 218.9,98 218.9,218.9 0,120.9 -98,218.9 -218.9,218.9 -120.9,0 -218.93,-98 -218.93,-218.9 0,-120.9 98.03,-218.9 218.93,-218.9" id="path8" />
<g style="fill-opacity:0.12900002;fill-rule:evenodd" id="g10">
<path inkscape:connector-curvature="0" d="m 256,4.433 c -138.94,0 -251.57,112.63 -251.57,251.57 0,138.94 112.63,251.57 251.57,251.57 138.94,0 251.57,-112.63 251.57,-251.57 C 507.57,117.063 394.94,4.433 256,4.433 m 5.885,38.556 c 120.9,0 218.9,98 218.9,218.9 0,120.9 -98,218.9 -218.9,218.9 -120.9,0 -218.93,-98 -218.93,-218.9 0,-120.9 98.03,-218.9 218.93,-218.9" id="path12" />
<path inkscape:connector-curvature="0" d="m 256,8.356 c -136.77,0 -247.64,110.87 -247.64,247.64 0,136.77 110.87,247.64 247.64,247.64 136.77,0 247.64,-110.87 247.64,-247.64 C 503.64,119.226 392.77,8.356 256,8.356 m 2.942,31.691 c 120.9,0 218.9,98 218.9,218.9 0,120.9 -98,218.9 -218.9,218.9 -120.9,0 -218.93,-98 -218.93,-218.9 0,-120.9 98.03,-218.9 218.93,-218.9" id="path14" />
</g>
<path style="fill:#ffffff;fill-rule:evenodd;stroke:#000000;stroke-width:4.90399981;stroke-opacity:0.31000001" inkscape:connector-curvature="0" d="m 253.04,7.859 c -135.42,0 -245.19,109.78 -245.19,245.19 0,135.42 109.78,245.19 245.19,245.19 135.42,0 245.19,-109.78 245.19,-245.19 0,-135.42 -109.78,-245.19 -245.19,-245.19 z m 0,26.297 c 120.9,0 218.9,98 218.9,218.9 0,120.9 -98,218.9 -218.9,218.9 -120.9,0 -218.93,-98 -218.93,-218.9 0,-120.9 98.03,-218.9 218.93,-218.9 z" id="path16" />
</svg>
