<?xml version="1.0" encoding="UTF-8" standalone="no"?>
<svg
   xmlns:dc="http://purl.org/dc/elements/1.1/"
   xmlns:cc="http://creativecommons.org/ns#"
   xmlns:rdf="http://www.w3.org/1999/02/22-rdf-syntax-ns#"
   xmlns:svg="http://www.w3.org/2000/svg"
   xmlns="http://www.w3.org/2000/svg"
   xmlns:sodipodi="http://sodipodi.sourceforge.net/DTD/sodipodi-0.dtd"
   xmlns:inkscape="http://www.inkscape.org/namespaces/inkscape"
   height="512"
   viewBox="0 0 512 512"
   width="512"
   version="1.1"
   id="svg2"
   inkscape:version="0.91 r13725"
   sodipodi:docname="kapow.svg">
  <defs
     id="defs292" />
  <sodipodi:namedview
     pagecolor="#ffffff"
     bordercolor="#666666"
     borderopacity="1"
     objecttolerance="10"
     gridtolerance="10"
     guidetolerance="10"
     inkscape:pageopacity="0"
     inkscape:pageshadow="2"
     inkscape:window-width="1680"
     inkscape:window-height="1024"
     id="namedview290"
     showgrid="false"
     inkscape:zoom="0.4609375"
     inkscape:cx="-162.71186"
     inkscape:cy="256"
     inkscape:window-x="0"
     inkscape:window-y="0"
     inkscape:window-maximized="0"
     inkscape:current-layer="svg2" />
  <metadata
     id="metadata70">
    <rdf:RDF>
      <cc:Work
         rdf:about="">
        <dc:format>image/svg+xml</dc:format>
        <dc:type
           rdf:resource="http://purl.org/dc/dcmitype/StillImage" />
      </cc:Work>
    </rdf:RDF>
  </metadata>
  <path
     id="path4"
     d="m471.93 253.06c0 120.9-98.008 218.9-218.9 218.9-120.9 0-218.9-98.008-218.9-218.9 0-120.9 98.008-218.9 218.9-218.9 120.9 0 218.9 98.008 218.9 218.9"
     fill-rule="evenodd"
     fill="#BF9E73" />
  <path
     id="path6"
     fill-opacity="0.235"
     d="m372.3 117.16c-2.666 0-5.332 1.02-7.3749 3.063l-111.97 111.97c-2.644 0.007-5.265 0.51599-7.7189 1.5l-100.97-89.219c-3.962-3.5-9.9689-3.118-13.469 0.84399-3.5 3.962-3.118 9.9689 0.84399 13.469l0.125 0.094c0.271 0.30999 0.55799 0.62599 0.87499 0.90599l0.125 0.094c0.271 0.31 0.558 0.62599 0.87499 0.90599 0 0 0.094 0.062 0.094 0.063 0.278 0.32 0.58 0.649 0.906 0.93799l0.15599 0.125c0.258 0.291 0.513 0.579 0.813 0.844 0 0 0.187 0.156 0.188 0.156 0.25799 0.29099 0.51299 0.57899 0.81299 0.84399 0 0 0.187 0.156 0.188 0.156 0.258 0.291 0.51299 0.57899 0.81299 0.84399l0.125 0.094c0.271 0.31 0.558 0.626 0.87499 0.90599l0.125 0.094c0.271 0.31 0.558 0.626 0.875 0.906 0 0 0.094 0.062 0.094 0.063 0.27799 0.32 0.57999 0.649 0.90599 0.938 0 0 0.094 0.062 0.094 0.063 0.278 0.31999 0.54799 0.61799 0.87499 0.90599 0 0 0.187 0.156 0.188 0.156 0.258 0.291 0.513 0.57899 0.81299 0.84399 0 0 0.187 0.156 0.188 0.156 0.258 0.291 0.513 0.579 0.81299 0.84399l0.188 0.188c0.253 0.284 0.52 0.554 0.813 0.813 0 0 0.125 0.093 0.125 0.094 0.27099 0.30999 0.55799 0.62599 0.87499 0.90599l0.094 0.063c0.278 0.31999 0.57999 0.64899 0.90599 0.93799 0 0 0.094 0.062 0.094 0.063 0.278 0.32 0.548 0.61799 0.87499 0.90599 0 0 0.187 0.156 0.188 0.156 0.258 0.291 0.513 0.579 0.813 0.84399 0 0 0.18699 0.156 0.18799 0.156 0.258 0.291 0.513 0.579 0.813 0.844l0.188 0.188c0.25299 0.28399 0.51999 0.55399 0.81299 0.81299 0 0 0.125 0.093 0.125 0.094 0.271 0.31 0.55799 0.62599 0.87499 0.90599 0 0 0.125 0.093 0.125 0.094 0.271 0.31 0.558 0.626 0.87499 0.90599l0.094 0.063c0.278 0.32 0.548 0.618 0.875 0.906l0.031 0.031 0.15599 0.12499c0.258 0.291 0.513 0.579 0.813 0.844l0.188 0.156c0.25799 0.29099 0.51299 0.57899 0.81299 0.84399 0 0 0.187 0.156 0.188 0.156 0.258 0.291 0.51299 0.57899 0.81299 0.84399l0.125 0.094c0.271 0.31 0.558 0.626 0.87499 0.90599l0.125 0.094c0.271 0.31 0.558 0.626 0.875 0.906l0.094 0.063c0.27799 0.31999 0.57999 0.64899 0.90599 0.93799l0.156 0.125c0.258 0.29099 0.51299 0.57899 0.81299 0.84399 0 0 0.187 0.156 0.188 0.156 0.258 0.291 0.513 0.57899 0.81299 0.84399l0.188 0.156c0.258 0.291 0.513 0.579 0.813 0.84399 0 0 0.12499 0.093 0.12499 0.094 0.271 0.31 0.558 0.626 0.875 0.906l0.125 0.094c0.27099 0.30999 0.55799 0.62599 0.87499 0.90599 0 0 0.094 0.062 0.094 0.063 0.278 0.32 0.57999 0.64899 0.90599 0.93799l0.094 0.063c0.278 0.32 0.548 0.618 0.87499 0.90599 0 0 0.187 0.156 0.188 0.156 0.258 0.291 0.513 0.579 0.813 0.844l0.18799 0.15599c0.258 0.291 0.513 0.579 0.813 0.844l0.188 0.188c0.25299 0.28399 0.51999 0.55399 0.81299 0.81299 0 0 0.125 0.093 0.125 0.094 0.271 0.31 0.55799 0.62599 0.87499 0.90599l0.094 0.063c0.278 0.32 0.58 0.649 0.90599 0.93799 0 0 0.094 0.062 0.094 0.063 0.278 0.32 0.548 0.618 0.875 0.906l0.188 0.15599c0.25799 0.291 0.51299 0.579 0.81299 0.844l0.188 0.156c0.258 0.29099 0.51299 0.57899 0.81299 0.84399l0.188 0.156c0.258 0.291 0.513 0.57899 0.81299 0.84399l0.125 0.094c0.271 0.31 0.558 0.626 0.875 0.90599 0 0 0.12499 0.093 0.12499 0.094 0.271 0.31 0.558 0.626 0.875 0.906l0.094 0.063c0.27799 0.31999 0.57999 0.64899 0.90599 0.93799 0 0 0.156 0.124 0.156 0.125 0.258 0.291 0.51299 0.57899 0.81299 0.84399l0.188 0.156c0.258 0.291 0.513 0.579 0.81299 0.84399l0.188 0.156c0.258 0.291 0.513 0.579 0.813 0.844 0 0 0.125 0.093 0.125 0.094 0.27099 0.31 0.55799 0.626 0.87499 0.906 0 0 0.125 0.093 0.125 0.094 0.27099 0.30999 0.55799 0.62599 0.87499 0.90599l0.094 0.063c0.278 0.32 0.57999 0.64899 0.90599 0.93799l0.156 0.125c0.258 0.291 0.513 0.579 0.81299 0.84399 0 0 0.187 0.155 0.188 0.156 0.258 0.291 0.513 0.579 0.813 0.844l0.188 0.15599c0.25799 0.291 0.51299 0.579 0.81299 0.844l0.188 0.188c0.253 0.28399 0.51999 0.55399 0.81299 0.81299l0.125 0.094c0.271 0.31 0.558 0.62599 0.87499 0.90599l0.094 0.063c0.278 0.32 0.58 0.649 0.906 0.93799l0.094 0.063c0.278 0.32 0.548 0.618 0.875 0.906l0.188 0.156c0.25799 0.29099 0.51299 0.57899 0.81299 0.84399 0 0 0.187 0.155 0.188 0.156 0.258 0.291 0.51299 0.57899 0.81299 0.84399l0.188 0.188c0.253 0.284 0.52 0.55399 0.81299 0.81299 0 0 0.125 0.093 0.125 0.094 0.271 0.31 0.558 0.626 0.875 0.90599l0.12499 0.094c0.271 0.31 0.558 0.626 0.875 0.906l0.094 0.063c0.278 0.31999 0.54799 0.61799 0.87499 0.90599l0.031 0.031s0.156 0.124 0.156 0.125c0.258 0.291 0.51299 0.57899 0.81299 0.84399 0 0 0.187 0.155 0.188 0.156 0.258 0.291 0.513 0.579 0.81299 0.84399l0.188 0.156c0.258 0.291 0.513 0.579 0.813 0.844l0.125 0.094c0.27099 0.31 0.55799 0.626 0.87499 0.906 0 0 0.125 0.093 0.125 0.094 0.271 0.30999 0.55799 0.62599 0.87499 0.90599l0.094 0.063c0.278 0.32 0.58 0.64899 0.90599 0.93799 0 0 0.156 0.124 0.156 0.125 0.258 0.291 0.513 0.579 0.813 0.84399l0.18799 0.156c0.258 0.291 0.513 0.579 0.813 0.844l0.188 0.156c0.25799 0.29099 0.51299 0.57899 0.81299 0.84399l0.125 0.094c0.271 0.31 0.55799 0.62599 0.87499 0.90599l0.125 0.094c0.271 0.31 0.558 0.62599 0.87499 0.90599 0 0 0.093 0.062 0.094 0.063 0.278 0.32 0.58 0.649 0.906 0.93799l0.094 0.063c0.278 0.32 0.548 0.618 0.875 0.906 0 0 0.187 0.155 0.188 0.156 0.25799 0.29099 0.51299 0.57899 0.81299 0.84399l0.188 0.156c0.258 0.291 0.51299 0.57899 0.81299 0.84399l0.188 0.188c0.253 0.284 0.52 0.554 0.81299 0.81299l0.125 0.094c0.271 0.31 0.558 0.626 0.875 0.906 0 0 0.093 0.062 0.094 0.063 0.27799 0.32 0.57999 0.649 0.90599 0.938l0.094 0.063c0.278 0.31999 0.54799 0.61799 0.87499 0.90599l0.188 0.156c0.258 0.291 0.513 0.57899 0.81299 0.84399 0 0 0.187 0.155 0.188 0.156 0.258 0.291 0.513 0.579 0.813 0.84399l0.18799 0.156c0.258 0.291 0.513 0.579 0.813 0.844 0 0 0.125 0.093 0.125 0.094 0.27099 0.30999 0.55799 0.62599 0.87499 0.90599l0.125 0.094c0.271 0.31 0.55799 0.62599 0.87499 0.90599l0.094 0.063c0.278 0.32 0.58 0.64899 0.90599 0.93799l0.156 0.125c0.258 0.291 0.513 0.579 0.813 0.84399l0.18799 0.156c0.258 0.291 0.513 0.579 0.813 0.844 0 0 0.187 0.155 0.188 0.156 0.25799 0.29099 0.51299 0.57899 0.81299 0.84399l0.125 0.094c0.271 0.31 0.55799 0.62599 0.87499 0.90599 0 0 0.125 0.093 0.125 0.094 0.271 0.31 0.558 0.626 0.87499 0.90599l0.094 0.063c0.278 0.32 0.58 0.649 0.906 0.938l0.156 0.12499c0.25799 0.291 0.51299 0.579 0.81299 0.844 0 0 0.186 0.155 0.188 0.156 0.258 0.29099 0.51299 0.57899 0.81299 0.84399 0 0 0.155 0.156 0.156 0.156 0.262 0.297 0.539 0.57399 0.84399 0.84399l0.125 0.094c0.271 0.31 0.558 0.626 0.87499 0.90599l0.125 0.094c0.271 0.31 0.558 0.626 0.875 0.906l0.063 0.063c0.146 0.16899 0.30899 0.33899 0.46899 0.49999 1.118 2.759 2.841 5.274 5.03 7.3439 0.341 0.368 0.694 0.718 1.063 1.063 0.368 0.39399 0.725 0.78999 1.125 1.156l-73.189 134.75c-1.258 2.319-0.55199 5.259 1.563 6.781 0.291 0.366 0.609 0.71799 0.99999 0.99999 0.264 0.332 0.529 0.643 0.875 0.90599 0.28199 0.373 0.61799 0.709 0.99999 1 0.281 0.37299 0.61799 0.70899 0.99999 0.99999 0.295 0.38999 0.657 0.73199 1.063 1.031 0.297 0.38 0.628 0.74099 1.031 1.031 0.291 0.366 0.609 0.718 1 0.99999 0.26399 0.332 0.52899 0.643 0.87499 0.906 0.282 0.37299 0.61799 0.70899 0.99999 0.99999 0.281 0.37299 0.618 0.70899 0.99999 0.99999 0.281 0.373 0.618 0.70899 1 0.99999 0.29499 0.39 0.65699 0.732 1.063 1.031 0.297 0.38 0.62799 0.741 1.031 1.031 0.264 0.33199 0.529 0.64299 0.87499 0.90599 0.282 0.373 0.618 0.70899 0.99999 0.99999 0.281 0.373 0.618 0.709 1 0.99999 0.28099 0.373 0.61799 0.709 0.99999 0.99999 0.295 0.39 0.65699 0.732 1.063 1.031 0.297 0.37999 0.628 0.74099 1.031 1.031 0.291 0.366 0.609 0.71799 0.99999 0.99999 0.264 0.332 0.529 0.643 0.875 0.90599 0.282 0.373 0.61799 0.709 0.99999 1 0.281 0.37299 0.61799 0.70899 0.99999 0.99999 0.295 0.38999 0.657 0.73199 1.063 1.031 0.297 0.38 0.628 0.74099 1.031 1.031 0.29099 0.366 0.60899 0.718 0.99999 0.99999 0.264 0.332 0.52899 0.643 0.87499 0.906 0.282 0.37299 0.618 0.70899 0.99999 0.99999 0.281 0.373 0.618 0.70899 0.99999 0.99999 0.295 0.39 0.657 0.73199 1.063 1.031 0.29699 0.38 0.62799 0.741 1.031 1.031 0.291 0.366 0.60899 0.718 0.99999 1 0.264 0.33199 0.529 0.64299 0.87499 0.90599 0.282 0.373 0.618 0.70899 1 0.99999 0.28099 0.373 0.61799 0.709 0.99999 0.99999 0.281 0.373 0.61799 0.709 0.99999 1 0.295 0.38999 0.65699 0.73199 1.063 1.031 0.297 0.37999 0.628 0.74099 1.031 1.031 0.291 0.366 0.609 0.71799 1 0.99999 0.26399 0.332 0.52899 0.643 0.87499 0.90599 0.282 0.373 0.61799 0.709 0.99999 1 0.281 0.37299 0.618 0.70899 0.99999 0.99999 0.295 0.39 0.657 0.73199 1.063 1.031 0.297 0.38 0.628 0.74099 1.031 1.031 0.29099 0.366 0.60899 0.718 0.99999 0.99999 0.264 0.332 0.52899 0.643 0.87499 0.906 0.282 0.37299 0.618 0.70899 0.99999 0.99999 0.281 0.373 0.618 0.70899 1 0.99999 0.29499 0.39 0.65699 0.732 1.063 1.031 0.29699 0.38 0.62799 0.741 1.031 1.031 0.291 0.36599 0.60899 0.71799 0.99999 0.99999 0.264 0.33199 0.529 0.64299 0.87499 0.90599 0.282 0.373 0.618 0.70899 1 0.99999 0.28099 0.373 0.61799 0.709 0.99999 0.99999 0.295 0.391 0.65699 0.731 1.063 1.031 0.284 0.36299 0.61799 0.71799 0.99999 0.99999 0.297 0.38 0.628 0.74099 1.031 1.031 0.264 0.332 0.529 0.64299 0.875 0.90599 0.25899 0.344 0.56099 0.663 0.90599 0.938 8.2879 0.95199 16.707 1.469 25.25 1.469 120.9 0 218.91-98.009 218.91-218.91 0-15.523-1.615-30.672-4.688-45.28-0.202-0.202-0.411-0.38-0.625-0.56299-0.127-0.141-0.239-0.302-0.37499-0.438-0.202-0.202-0.411-0.38-0.625-0.563-0.127-0.141-0.239-0.30199-0.375-0.43799-0.20199-0.202-0.41099-0.38-0.62499-0.563-0.127-0.141-0.239-0.302-0.375-0.438-0.165-0.16499-0.327-0.31699-0.49999-0.46899-0.152-0.173-0.304-0.335-0.469-0.5-0.136-0.136-0.297-0.248-0.438-0.37499-0.182-0.214-0.35999-0.423-0.56299-0.625-0.136-0.136-0.297-0.248-0.438-0.375-0.182-0.214-0.36-0.42299-0.563-0.62499-0.20199-0.202-0.41099-0.38-0.62499-0.563-0.127-0.141-0.239-0.302-0.375-0.43799-0.202-0.202-0.41099-0.38-0.62499-0.563-0.127-0.141-0.239-0.302-0.375-0.438-0.202-0.20199-0.411-0.37999-0.62499-0.56299-0.127-0.141-0.239-0.302-0.375-0.438-0.165-0.165-0.327-0.317-0.5-0.46899-0.152-0.173-0.304-0.335-0.46899-0.5-0.136-0.136-0.297-0.248-0.438-0.375-0.182-0.214-0.36-0.42299-0.563-0.62499-0.13599-0.136-0.29699-0.248-0.43799-0.375-0.182-0.214-0.36-0.423-0.563-0.62499-0.136-0.136-0.297-0.248-0.43799-0.375-0.182-0.214-0.36-0.423-0.563-0.625-0.202-0.202-0.411-0.37999-0.625-0.56299-0.12699-0.141-0.23899-0.302-0.37499-0.438-0.202-0.202-0.411-0.38-0.625-0.56299-0.127-0.141-0.239-0.302-0.37499-0.438-0.165-0.165-0.327-0.317-0.5-0.469-0.152-0.173-0.304-0.33499-0.469-0.49999-0.136-0.136-0.29699-0.248-0.43799-0.375-0.182-0.214-0.36-0.423-0.563-0.625-0.136-0.13599-0.297-0.24799-0.438-0.37499-0.18199-0.214-0.35999-0.423-0.56299-0.625-0.136-0.136-0.297-0.248-0.438-0.37499-0.182-0.214-0.35999-0.423-0.56299-0.625-0.202-0.202-0.411-0.38-0.625-0.563-0.127-0.14099-0.239-0.30199-0.375-0.43799-0.20199-0.202-0.41099-0.38-0.62499-0.563-0.127-0.141-0.239-0.30199-0.375-0.43799-0.202-0.202-0.41099-0.38-0.62499-0.563-0.127-0.141-0.239-0.302-0.375-0.438-0.131-0.13099-0.271-0.22199-0.406-0.34399-0.18199-0.214-0.35999-0.423-0.56299-0.625-0.136-0.136-0.297-0.248-0.438-0.375-0.182-0.21399-0.36-0.42299-0.56299-0.62499-0.136-0.136-0.297-0.248-0.438-0.375-0.182-0.214-0.36-0.42299-0.563-0.62499-0.20199-0.202-0.41099-0.38-0.62499-0.563-0.127-0.141-0.239-0.302-0.375-0.43799-0.202-0.202-0.41099-0.38-0.62499-0.563-0.127-0.141-0.239-0.302-0.375-0.438-0.202-0.202-0.411-0.37999-0.625-0.56299-0.12699-0.141-0.23899-0.302-0.37499-0.438-0.165-0.165-0.327-0.317-0.5-0.469-0.152-0.17299-0.304-0.33499-0.46899-0.49999-0.136-0.136-0.297-0.248-0.438-0.375-0.182-0.214-0.36-0.42299-0.563-0.62499-0.136-0.136-0.29699-0.248-0.43799-0.375-0.182-0.214-0.36-0.423-0.563-0.625-0.17-0.16999-0.353-0.31299-0.53099-0.46899-0.156-0.179-0.298-0.361-0.469-0.531-0.202-0.202-0.411-0.37999-0.625-0.56299-0.12699-0.141-0.23899-0.302-0.37499-0.438-0.202-0.202-0.411-0.38-0.625-0.563-0.127-0.14099-0.239-0.30199-0.37499-0.43799-0.165-0.165-0.327-0.317-0.5-0.469-0.152-0.173-0.304-0.335-0.469-0.49999-0.136-0.136-0.29699-0.248-0.43799-0.375-0.182-0.214-0.36-0.423-0.563-0.625-0.136-0.13599-0.297-0.24799-0.438-0.37499-0.18199-0.214-0.35999-0.423-0.56299-0.625-0.136-0.136-0.297-0.248-0.438-0.375-0.182-0.21399-0.36-0.42299-0.56299-0.62499-0.202-0.202-0.411-0.38-0.625-0.563-0.127-0.14099-0.239-0.30199-0.375-0.43799-0.20199-0.202-0.41099-0.38-0.62499-0.563-0.127-0.141-0.239-0.302-0.375-0.43799-0.202-0.202-0.41099-0.38-0.62499-0.563-0.122-0.135-0.213-0.276-0.344-0.406-0.136-0.136-0.297-0.24799-0.438-0.37499-0.182-0.214-0.35999-0.423-0.56299-0.625-0.136-0.136-0.297-0.248-0.438-0.375-0.182-0.21399-0.36-0.42299-0.56299-0.62499-0.136-0.136-0.297-0.248-0.438-0.375-0.182-0.214-0.36-0.42299-0.563-0.62499-0.20199-0.202-0.41099-0.38-0.62499-0.563-0.127-0.141-0.239-0.302-0.375-0.438-0.202-0.20199-0.411-0.37999-0.62499-0.56299-0.127-0.141-0.239-0.302-0.375-0.438-0.202-0.202-0.411-0.37999-0.625-0.56299-0.12699-0.141-0.23899-0.302-0.37499-0.438-0.165-0.165-0.327-0.317-0.5-0.469-0.152-0.17299-0.304-0.33499-0.46899-0.49999-0.136-0.136-0.297-0.248-0.438-0.375-0.182-0.214-0.36-0.423-0.563-0.62499-0.136-0.136-0.29699-0.248-0.43799-0.375-0.182-0.214-0.36-0.423-0.563-0.625-0.202-0.20199-0.411-0.37999-0.62499-0.56299-0.127-0.141-0.239-0.302-0.375-0.438-0.202-0.202-0.411-0.37999-0.625-0.56299-0.127-0.141-0.23899-0.302-0.37499-0.438-0.202-0.202-0.411-0.38-0.625-0.563-0.127-0.14099-0.239-0.30199-0.375-0.43799-0.16499-0.165-0.32699-0.317-0.49999-0.469-0.152-0.173-0.304-0.335-0.469-0.49999-0.136-0.136-0.297-0.248-0.43799-0.375-0.182-0.214-0.36-0.423-0.563-0.625-0.136-0.136-0.297-0.24799-0.438-0.37499-0.18199-0.214-0.35999-0.423-0.56299-0.625-0.136-0.136-0.297-0.248-0.438-0.375-0.182-0.21399-0.36-0.42299-0.56299-0.62499-0.202-0.202-0.411-0.38-0.625-0.563-0.127-0.141-0.239-0.30199-0.375-0.43799-0.20199-0.202-0.41099-0.38-0.62499-0.563-0.127-0.141-0.239-0.302-0.375-0.43799-0.165-0.165-0.327-0.317-0.49999-0.469-0.152-0.173-0.304-0.335-0.469-0.5-0.136-0.136-0.297-0.248-0.438-0.37499-0.182-0.214-0.35999-0.423-0.56299-0.625-0.136-0.136-0.297-0.248-0.438-0.375-0.182-0.21399-0.36-0.42299-0.56299-0.62499-0.136-0.136-0.297-0.248-0.438-0.375-0.182-0.214-0.36-0.423-0.563-0.62499-0.202-0.202-0.41099-0.38-0.62499-0.563-0.127-0.141-0.239-0.302-0.375-0.438-0.202-0.20199-0.411-0.37999-0.62499-0.56299-0.127-0.141-0.239-0.302-0.375-0.438-0.202-0.202-0.411-0.37999-0.625-0.56299-0.127-0.141-0.23899-0.302-0.37499-0.438-0.131-0.131-0.271-0.222-0.406-0.344-0.182-0.214-0.36-0.42299-0.563-0.62499-0.13599-0.136-0.29699-0.248-0.43799-0.375-0.182-0.214-0.36-0.423-0.563-0.62499-0.136-0.136-0.297-0.248-0.43799-0.375-0.182-0.214-0.36-0.423-0.563-0.625-0.202-0.20199-0.411-0.37999-0.62499-0.56299-0.127-0.141-0.239-0.302-0.375-0.438-0.202-0.202-0.411-0.38-0.625-0.56299-0.127-0.141-0.23899-0.302-0.37499-0.438-0.202-0.202-0.411-0.38-0.625-0.563-0.127-0.141-0.239-0.30199-0.375-0.43799-0.16499-0.165-0.32699-0.317-0.49999-0.469-0.152-0.173-0.304-0.335-0.469-0.5-0.136-0.13599-0.297-0.24799-0.43799-0.37499-0.182-0.214-0.36-0.423-0.563-0.625-0.136-0.136-0.297-0.248-0.438-0.37499-0.182-0.214-0.35999-0.423-0.56299-0.625-0.17-0.17-0.353-0.313-0.531-0.469-0.156-0.17899-0.298-0.36099-0.46899-0.53099-0.202-0.202-0.411-0.38-0.625-0.563-0.127-0.141-0.239-0.30199-0.375-0.43799-0.202-0.202-0.41099-0.38-0.62499-0.563-0.127-0.141-0.239-0.302-0.375-0.438-0.165-0.16499-0.327-0.31699-0.49999-0.46899-0.152-0.173-0.304-0.335-0.469-0.5-0.136-0.136-0.297-0.248-0.438-0.37499-0.182-0.214-0.35999-0.423-0.56299-0.625-0.136-0.136-0.297-0.248-0.438-0.375-0.182-0.214-0.36-0.42299-0.563-0.62499-0.13599-0.136-0.29699-0.248-0.43799-0.375-0.182-0.214-0.36-0.423-0.563-0.62499-0.202-0.202-0.41099-0.38-0.62499-0.563-0.127-0.141-0.239-0.302-0.375-0.438-0.202-0.20199-0.411-0.37999-0.62499-0.56299-0.127-0.141-0.239-0.302-0.375-0.438-0.165-0.165-0.327-0.317-0.5-0.46899-0.152-0.173-0.304-0.335-0.46899-0.5-0.136-0.136-0.297-0.248-0.438-0.375-0.182-0.214-0.36-0.42299-0.563-0.62499-0.136-0.136-0.29699-0.248-0.43799-0.375-0.182-0.214-0.36-0.423-0.563-0.62499-0.136-0.136-0.297-0.248-0.43799-0.375-0.182-0.214-0.36-0.423-0.563-0.625-2.043-2.043-4.709-3.063-7.3749-3.063" />
  <g
     id="g8"
     transform="matrix(3.5433 0 0 3.5433 -.0039308 -.00038744)"
     fill-rule="evenodd">
    <path
       id="path10"
       fill-opacity="0.067"
       d="m72.25 0.282c-39.746 0-71.967 32.22-71.967 71.967 0 39.746 32.22 71.967 71.967 71.967 39.746 0 71.967-32.22 71.967-71.967 0-39.746-32.22-71.967-71.967-71.967m2.491 12.681c34.12 0 61.777 27.657 61.777 61.777s-27.657 61.777-61.777 61.777-61.786-27.657-61.786-61.777 27.666-61.777 61.786-61.777" />
    <g
       id="g12"
       fill-opacity="0.129">
      <path
         id="path14"
         d="m72.25 1.251c-39.21 0-70.998 31.787-70.998 70.998 0 39.21 31.787 70.998 70.998 70.998 39.21 0 70.998-31.787 70.998-70.998 0-39.21-31.787-70.998-70.998-70.998m1.661 10.881c34.12 0 61.777 27.657 61.777 61.777s-27.657 61.777-61.777 61.777-61.786-27.657-61.786-61.777 27.666-61.777 61.786-61.777" />
      <path
         id="path16"
         d="m72.25 2.358c-38.6 0-69.891 31.29-69.891 69.891 0 38.6 31.29 69.891 69.891 69.891 38.6 0 69.891-31.29 69.891-69.891 0-38.6-31.29-69.891-69.891-69.891m0.83 8.944c34.12 0 61.777 27.657 61.777 61.777s-27.657 61.777-61.777 61.777-61.786-27.657-61.786-61.777 27.666-61.777 61.786-61.777" />
    </g>
    <path
       id="path18"
       d="m71.41 2.218c-38.22 0-69.2 30.981-69.2 69.2 0 38.22 30.981 69.2 69.2 69.2 38.22 0 69.2-30.981 69.2-69.2 0-38.22-30.981-69.2-69.2-69.2zm0 7.422c34.12 0 61.777 27.657 61.777 61.777s-27.657 61.777-61.777 61.777-61.786-27.65-61.786-61.773c0-34.12 27.666-61.777 61.786-61.777z"
       stroke-opacity="0.31"
       stroke="#000"
       stroke-width="1.384"
       fill="#fff" />
  </g>
  <g
     id="g66"
     transform="matrix(3.5433 0 0 3.5433 -.0039308 -.00038744)"
     fill="#BF9E73"
     style="fill:#ffffff">
    <path
       id="path68"
       fill-opacity="0.133"
       d="m100.87 71.417a29.458 29.457 0 0 1 -58.915 0 29.458 29.457 0 1 1 58.915 0"
       style="fill:#ffffff" />
    <rect
       id="rect70"
       rx="2.693"
       transform="matrix(-.7494 -.66211 .66211 -.7494 0 0)"
       height="5.386"
       width="44.31"
       y="-8.981"
       x="-99.13"
       style="fill:#ffffff" />
    <rect
       id="rect72"
       rx="2.943"
       transform="rotate(-45)"
       height="5.887"
       width="54.02"
       y="96.82"
       x="-2.235"
       style="fill:#ffffff" />
  </g>
  <rect
     id="rect74"
     rx="4.993"
     transform="matrix(.47720 -.87879 .85224 .52315 0 0)"
     height="9.985"
     width="164.69"
     y="341.22"
     x="-262.91"
     fill="#BF9E73"
     style="fill:#ffffff" />
  <path
     id="path76"
     fill="#BF9E73"
     d="m273.91 253.05a20.875 20.875 0 0 1 -41.751 0 20.875 20.875 0 1 1 41.751 0"
     style="fill:#ffffff" />
</svg>
