<?xml version="1.0" encoding="UTF-8" standalone="no"?>
<svg xmlns="http://www.w3.org/2000/svg" height="512" viewBox="0 0 512 512" width="512" version="1.1">
 <metadata id="metadata72"/>
 <path id="path4" d="m471.95 253.05c0 120.9-98.01 218.9-218.9 218.9-120.9 0-218.9-98.01-218.9-218.9 0-120.9 98.01-218.9 218.9-218.9 120.9 0 218.9 98.01 218.9 218.9" fill-rule="evenodd" fill="#BF9E73"/>
 
 <g id="g8" fill-rule="evenodd">
  <path id="path10" fill-opacity="0.067" d="m256 1c-140.83 0-255 114.17-255 255s114.17 255 255 255 255-114.17 255-255-114.17-255-255-255m8.827 44.931c120.9 0 218.9 98 218.9 218.9s-98 218.9-218.9 218.9-218.93-98-218.93-218.9 98.03-218.9 218.93-218.9"/>
  <g id="g12" fill-opacity="0.129">
   <path id="path14" d="m256 4.433c-138.94 0-251.57 112.63-251.57 251.57s112.63 251.57 251.57 251.57 251.57-112.63 251.57-251.57-112.63-251.57-251.57-251.57m5.885 38.556c120.9 0 218.9 98 218.9 218.9s-98 218.9-218.9 218.9-218.93-98-218.93-218.9 98.03-218.9 218.93-218.9"/>
   <path id="path16" d="m256 8.356c-136.77 0-247.64 110.87-247.64 247.64s110.87 247.64 247.64 247.64 247.64-110.87 247.64-247.64-110.87-247.64-247.64-247.64m2.942 31.691c120.9 0 218.9 98 218.9 218.9s-98 218.9-218.9 218.9-218.93-98-218.93-218.9 98.03-218.9 218.93-218.9"/>
  </g>
  <path id="path18" d="m253.04 7.859c-135.42 0-245.19 109.78-245.19 245.19 0 135.42 109.78 245.19 245.19 245.19 135.42 0 245.19-109.78 245.19-245.19 0-135.42-109.78-245.19-245.19-245.19zm0 26.297c120.9 0 218.9 98 218.9 218.9s-98 218.9-218.9 218.9-218.93-98-218.93-218.9 98.03-218.9 218.93-218.9z" stroke-opacity="0.31" stroke="#000" stroke-width="4.904" fill="#fff"/>
 </g>
 <path id="path66" stroke="#fff" stroke-width="3.258" fill="#fff" d="m246.8 111.09-7.03 21.526v1.901l2.512 18.674-25.803 6.926-7.198-17.451-0.917-1.664-16.84-15.11-15.957 9.201 4.651 22.17 0.985 1.63 11.51 14.939-18.877 18.877-14.939-11.51-1.63-0.985-22.17-4.651-9.201 15.957 15.11 16.84 1.664 0.917 17.451 7.198-6.926 25.803-18.674-2.512h-1.901l-21.525 7.03v18.402l21.525 7.03h1.901l18.674-2.512 6.926 25.803-17.451 7.198-1.664 0.917-15.11 16.84 9.201 15.957 22.17-4.651 1.63-0.985 14.939-11.51 18.877 18.877-11.51 14.939-0.985 1.63-4.651 22.17 15.957 9.201 16.84-15.11 0.917-1.664 7.198-17.451 25.803 6.926-2.512 18.674v1.901l7.03 21.526h18.402l7.03-21.526v-1.901l-2.512-18.674 25.803-6.926 7.198 17.451 0.917 1.664 16.84 15.11 15.957-9.201-4.651-22.17-0.985-1.63-11.51-14.939 18.877-18.877 14.939 11.51 1.63 0.985 22.17 4.651 9.201-15.957-15.11-16.84-1.664-0.917-17.451-7.198 6.926-25.803 18.674 2.512h1.901l21.526-7.03v-18.402l-21.526-7.03h-1.901l-18.674 2.512-6.926-25.803 17.451-7.198 1.664-0.917 15.11-16.84-9.201-15.957-22.17 4.651-1.63 0.985-14.939 11.51-18.877-18.877 11.51-14.939 0.985-1.63 4.651-22.17-15.957-9.201-16.84 15.11-0.917 1.664-7.198 17.451-25.803-6.926 2.512-18.674v-1.901l-7.03-21.526h-18.39zm9.201 93.23c28.544 0 51.675 23.13 51.675 51.675 0 28.544-23.13 51.675-51.675 51.675-28.544 0-51.675-23.13-51.675-51.675 0-28.544 23.13-51.675 51.675-51.675z"/>
</svg>
