<?xml version="1.0" encoding="UTF-8" standalone="no"?>
<svg xmlns:dc="http://purl.org/dc/elements/1.1/" xmlns:cc="http://creativecommons.org/ns#" xmlns:rdf="http://www.w3.org/1999/02/22-rdf-syntax-ns#" xmlns:svg="http://www.w3.org/2000/svg" xmlns="http://www.w3.org/2000/svg" xmlns:sodipodi="http://sodipodi.sourceforge.net/DTD/sodipodi-0.dtd" xmlns:inkscape="http://www.inkscape.org/namespaces/inkscape" height="512" viewBox="0 0 512 512" width="512" version="1.1" id="svg2" inkscape:version="0.91 r" sodipodi:docname="kate.svg">
<defs id="defs17" />
<sodipodi:namedview pagecolor="#ffffff" bordercolor="#666666" borderopacity="1" objecttolerance="10" gridtolerance="10" guidetolerance="10" inkscape:pageopacity="0" inkscape:pageshadow="2" inkscape:window-width="1680" inkscape:window-height="1022" id="namedview15" showgrid="false" inkscape:zoom="1.3037281" inkscape:cx="52.823198" inkscape:cy="244.919" inkscape:window-x="1680" inkscape:window-y="0" inkscape:window-maximized="1" inkscape:current-layer="svg2" />
<metadata id="metadata28">
<rdf:RDF>
<cc:Work rdf:about="">
<dc:format>image/svg+xml</dc:format>
<dc:type rdf:resource="http://purl.org/dc/dcmitype/StillImage" />
<dc:title></dc:title>
</cc:Work>
</rdf:RDF>
</metadata>
<path style="fill:#BF9E73;fill-rule:evenodd" inkscape:connector-curvature="0" d="m 471.95,253.05 c 0,120.9 -98.01,218.9 -218.9,218.9 -120.9,0 -218.9,-98.01 -218.9,-218.9 0,-120.9 98.01,-218.9 218.9,-218.9 120.9,0 218.9,98.01 218.9,218.9" id="path6" />
<path style="fill-opacity:0.06700003;fill-rule:evenodd" inkscape:connector-curvature="0" d="M 256,1 C 115.17,1 1,115.17 1,256 1,396.83 115.17,511 256,511 396.83,511 511,396.83 511,256 511,115.17 396.83,1 256,1 m 8.827,44.931 c 120.9,0 218.9,98 218.9,218.9 0,120.9 -98,218.9 -218.9,218.9 -120.9,0 -218.93,-98 -218.93,-218.9 0,-120.9 98.03,-218.9 218.93,-218.9" id="path8" />
<g style="fill-opacity:0.12900002;fill-rule:evenodd" id="g10">
<path inkscape:connector-curvature="0" d="m 256,4.433 c -138.94,0 -251.57,112.63 -251.57,251.57 0,138.94 112.63,251.57 251.57,251.57 138.94,0 251.57,-112.63 251.57,-251.57 C 507.57,117.063 394.94,4.433 256,4.433 m 5.885,38.556 c 120.9,0 218.9,98 218.9,218.9 0,120.9 -98,218.9 -218.9,218.9 -120.9,0 -218.93,-98 -218.93,-218.9 0,-120.9 98.03,-218.9 218.93,-218.9" id="path12" />
<path inkscape:connector-curvature="0" d="m 256,8.356 c -136.77,0 -247.64,110.87 -247.64,247.64 0,136.77 110.87,247.64 247.64,247.64 136.77,0 247.64,-110.87 247.64,-247.64 C 503.64,119.226 392.77,8.356 256,8.356 m 2.942,31.691 c 120.9,0 218.9,98 218.9,218.9 0,120.9 -98,218.9 -218.9,218.9 -120.9,0 -218.93,-98 -218.93,-218.9 0,-120.9 98.03,-218.9 218.93,-218.9" id="path14" />
</g>
<path inkscape:connector-curvature="0" style="opacity:0.25" d="m 165.336,93.86867 9.217,9.217 0,0.006 -9.219,-9.219 c -5.106,0 -9.25,4.144 -9.25,9.25 l 0,18.471 c 0,0.121 0.013,0.238 0.018,0.357 l -9.576,-9.578 c -15.189,0.166 -27.374,12.456 -27.375,27.688 l -0.006,-0.006 0,221.78 27.689,27.689 0.002,0.004 -0.008,0 -27.684,-27.684 c 0,7.776 3.177,14.784 8.307,19.805 l 84.12001,84.12 c 13.76,2.71 27.978,4.145 42.533,4.145 120.89,0 218.9,-98 218.9,-218.9 0,-9.898 -0.669,-19.638 -1.941,-29.19 l -101.38,-101.38 c 0.027,0.027 0.053,0.057 0.08,0.084 l -0.076,-0.076 c -4.935,-4.935 -11.736,-8 -19.283,-8.08 l 27.365,27.365 0,0.008 -27.373,-27.373 0,0.311 -9.561,-9.561 c 0,-5.106 -4.144,-9.25 -9.25,-9.25 -5.106,0 -9.219,4.144 -9.219,9.25 l 0,18.471 c 0,0.121 0.013,0.239 0.018,0.359 l -9.578,-9.578 0,-0.002 -125.15001,0 -15.809,-15.809 c -1.665,-1.665 -3.963,-2.695 -6.508,-2.695 m -0.359,36.957 c 0.12,0.005 0.237,0.018 0.357,0.018 l 7.803,7.803 c -0.076,0.036 -0.15,0.077 -0.227,0.111 l -7.934,-7.932" id="path3774" />
<path inkscape:connector-curvature="0" style="fill:#ffffff" d="m 165.336,93.87867 c -5.106,0 -9.25,4.144 -9.25,9.25 l 0,18.469 c 0,5.106 4.144,9.25 9.25,9.25 5.106,0 9.219,-4.144 9.219,-9.25 l 0,-18.469 c 0,-5.106 -4.113,-9.25 -9.219,-9.25 m 166.25001,0 c -5.106,0 -9.219,4.144 -9.219,9.25 l 0,18.469 c 0,5.106 4.113,9.25 9.219,9.25 5.106,0 9.25,-4.144 9.25,-9.25 l 0,-18.469 c 0,-5.106 -4.144,-9.25 -9.25,-9.25 m -185.06001,18.5 c -15.19,0.166 -27.375,12.456 -27.375,27.688 l 0,221.78 c 0,15.335 12.352,27.688 27.688,27.688 l 35.906,0 c 4.718,-19.641 13.43101,-38.421 18.37501,-57.938 23.751,-27.803 50.767,-53.08 76.63,-78.906 17.377,-16.406 33.485,-34.33 50.844,-50.688 10.243,-9.53 18.99,-24.561 34.688,-25.19 0.511,-0.022 1.021,-0.031 1.531,-0.031 4.437,0 8.793,0.859 12.969,2.281 l 0,-39 c 0,-15.239 -12.173,-27.535 -27.375,-27.688 l 0,9.219 c 0,10.273 -8.539,18.813 -18.813,18.813 -10.273,0 -18.781,-8.578 -18.781,-18.813 l 0,-9.219 -128.69001,0 0,9.219 c 0,10.234 -8.508,18.813 -18.781,18.813 -10.273,0 -18.813,-8.539 -18.813,-18.813 l 0,-9.219 m 217.59001,80.37 c -2.702,0.14 -5.02,1.01 -6.719,2.656 l -0.094,0.094 -13.156,13.188 56.25,56.22 12.969,-13 0.219,-0.188 c 0.03,-0.03 0.033,-0.064 0.063,-0.094 6.111,-6.295 1.451,-20.893 -10.531,-32.875 l -12.75,-12.781 c -8.277,-8.278 -17.847,-13.06 -25.03,-13.219 -0.401,-0.009 -0.801,-0.02 -1.188,0 l -0.031,0 m -196.66001,10.25 146.13001,0 c -7.559,7.7 -15.207,15.314 -22.906,22.906 l -123.22001,0 c -6.348,0 -11.469,-5.121 -11.469,-11.469 0,-6.348 5.121,-11.438 11.469,-11.438 m 169.44001,12.969 -13.906,13.938 56.22,56.25 13.906,-13.969 -56.22,-56.22 m -22.531,22.531 -84.87,84.91 -10.469,10.438 -2.656,2.656 -21.19,66.38 a 8.6413,9.6276 0 0 0 2.8125,9.5625 8.6413,9.6276 0 0 0 7.75,1.0625 l 67.31,-21.25 2.188,-2.219 10.125,-10.125 85.22,-85.19 -56.22,-56.22 m -146.91001,22.406 87.59001,0 c -7.684,7.586 -15.356,15.196 -22.906,22.906 l -64.69001,0 c -6.348,0 -11.469,-5.121 -11.469,-11.469 0,-6.348 5.121,-11.438 11.469,-11.438 m 210.31001,49.22 c -26.11,26.07 -52.32,52.05 -78.34,78.19 -0.002,0.403 -0.031,0.816 -0.063,1.219 l 50.75,0 c 15.335,0 27.656,-12.352 27.656,-27.688 l 0,-51.719 m -210.31001,8.688 31.93801,0 c -1.672,1.884 -3.347,3.755 -5,5.656 -3.324,5.335 -5.13901,11.258 -6.81301,17.25 l -20.12,0 c -6.348,0 -11.469,-5.09 -11.469,-11.438 0,-6.348 5.121,-11.469 11.469,-11.469 m 63.75001,27.375 a 2.4116,2.4116 0 0 1 0.25,0 l 0,0.031 a 2.4116,2.4116 0 0 1 0.0312,0 2.4116,2.4116 0 0 1 1.6875,0.71875 l 4.938,4.938 18.438,-0.938 a 2.4116,2.4116 0 0 1 1.7188,0.59375 2.4116,2.4116 0 0 1 0.8125,1.9375 l -0.906,20.06 3.656,3.656 a 2.4116,2.4116 0 0 1 -1.0937,4.0313 l -31.75,8.5 a 2.4116,2.4116 0 0 1 -2.3438,-0.59375 l -6.156,-6.156 a 2.4116,2.4116 0 0 1 -0.625,-2.375 l 9.281,-32.625 a 2.4116,2.4116 0 0 1 2.0625,-1.7812 m 51.688,42.719 -0.625,0.625 0.625,0 0,-0.625" id="path3776" />
<path style="fill:#ffffff;fill-rule:evenodd;stroke:#000000;stroke-width:4.90399981;stroke-opacity:0.31000001" inkscape:connector-curvature="0" d="m 253.04,7.859 c -135.42,0 -245.19,109.78 -245.19,245.19 0,135.42 109.78,245.19 245.19,245.19 135.42,0 245.19,-109.78 245.19,-245.19 0,-135.42 -109.78,-245.19 -245.19,-245.19 z m 0,26.297 c 120.9,0 218.9,98 218.9,218.9 0,120.9 -98,218.9 -218.9,218.9 -120.9,0 -218.93,-98 -218.93,-218.9 0,-120.9 98.03,-218.9 218.93,-218.9 z" id="path16" />
</svg>
