<?xml version="1.0" encoding="UTF-8" standalone="no"?>
<svg
   xmlns:dc="http://purl.org/dc/elements/1.1/"
   xmlns:cc="http://creativecommons.org/ns#"
   xmlns:rdf="http://www.w3.org/1999/02/22-rdf-syntax-ns#"
   xmlns:svg="http://www.w3.org/2000/svg"
   xmlns="http://www.w3.org/2000/svg"
   xmlns:xlink="http://www.w3.org/1999/xlink"
   xmlns:sodipodi="http://sodipodi.sourceforge.net/DTD/sodipodi-0.dtd"
   xmlns:inkscape="http://www.inkscape.org/namespaces/inkscape"
   sodipodi:docname="katomic.svg"
   inkscape:version="0.91 r13725"
   id="svg2"
   version="1.1"
   width="512"
   viewBox="0 0 512 512"
   height="512">
  <defs
     id="defs17">
    <radialGradient
       xlink:href="#linearGradient4241"
       id="radialGradient3030"
       gradientUnits="userSpaceOnUse"
       gradientTransform="matrix(-0.67550232,0,-5.0833709e-8,-1.1258375,39.536553,52.708853)"
       cx="23"
       cy="25.5"
       r="13.323" />
    <linearGradient
       id="linearGradient4241">
      <stop
         style="stop-color:#e99797;stop-opacity:1"
         id="stop17" />
      <stop
         offset="1"
         style="stop-color:#e17373;stop-opacity:1"
         id="stop19" />
    </linearGradient>
    <radialGradient
       xlink:href="#linearGradient4241"
       id="radialGradient3032"
       gradientUnits="userSpaceOnUse"
       gradientTransform="matrix(-0.33775116,0.58500217,-0.9750039,-0.56291871,56.630874,24.899378)"
       cx="23"
       cy="25.5"
       r="13.323" />
    <radialGradient
       xlink:href="#linearGradient4241"
       id="radialGradient3034"
       gradientUnits="userSpaceOnUse"
       gradientTransform="matrix(0.33775116,0.58077477,0.9750039,-0.5588509,-8.630874,24.892878)"
       cx="23"
       cy="25.5"
       r="13.323" />
    <radialGradient
       xlink:href="#linearGradient4213"
       id="radialGradient4235"
       cx="23"
       cy="22.5"
       r="2.5"
       gradientUnits="userSpaceOnUse" />
    <linearGradient
       id="linearGradient4213">
      <stop
         style="stop-color:#bfbfef;stop-opacity:1"
         id="stop12" />
      <stop
         offset="1"
         style="stop-color:#a6a6ea;stop-opacity:1"
         id="stop14" />
    </linearGradient>
    <radialGradient
       xlink:href="#linearGradient4237"
       id="radialGradient4259"
       cx="24.75"
       cy="22"
       r="2.5"
       gradientUnits="userSpaceOnUse" />
    <linearGradient
       id="linearGradient4237">
      <stop
         style="stop-color:#dedede;stop-opacity:1"
         id="stop7" />
      <stop
         offset="1"
         style="stop-color:#d3d3d3;stop-opacity:1"
         id="stop9" />
    </linearGradient>
    <radialGradient
       xlink:href="#linearGradient4213"
       id="radialGradient4219"
       cx="27"
       cy="22.75"
       r="2.5"
       gradientUnits="userSpaceOnUse" />
    <radialGradient
       xlink:href="#linearGradient4237"
       id="radialGradient4251"
       cx="22.799999"
       cy="25"
       r="2.5"
       gradientUnits="userSpaceOnUse" />
    <radialGradient
       xlink:href="#linearGradient4237"
       id="radialGradient4243"
       cx="26.75"
       cy="25.25"
       r="2.5"
       gradientUnits="userSpaceOnUse" />
    <radialGradient
       xlink:href="#linearGradient4213"
       id="radialGradient4227"
       cx="24.75"
       cy="26"
       r="2.5"
       gradientUnits="userSpaceOnUse" />
  </defs>
  <sodipodi:namedview
     inkscape:current-layer="svg2"
     inkscape:window-maximized="0"
     inkscape:window-y="75"
     inkscape:window-x="88"
     inkscape:cy="253.83051"
     inkscape:cx="264.67797"
     inkscape:zoom="0.4609375"
     showgrid="false"
     id="namedview15"
     inkscape:window-height="480"
     inkscape:window-width="743"
     inkscape:pageshadow="2"
     inkscape:pageopacity="0"
     guidetolerance="10"
     gridtolerance="10"
     objecttolerance="10"
     borderopacity="1"
     bordercolor="#666666"
     pagecolor="#ffffff" />
  <metadata
     id="metadata74">
    <rdf:RDF>
      <cc:Work
         rdf:about="">
        <dc:format>image/svg+xml</dc:format>
        <dc:type
           rdf:resource="http://purl.org/dc/dcmitype/StillImage" />
        <dc:title></dc:title>
      </cc:Work>
    </rdf:RDF>
  </metadata>
  <path
     style="fill:#BF9E73;fill-rule:evenodd;fill-opacity:1"
     inkscape:connector-curvature="0"
     d="m 490.30678,256.00699 c 0,129.40454 -104.90024,234.30479 -234.30478,234.30479 -129.40454,0 -234.304785,-104.90025 -234.304785,-234.30479 0,-129.40453 104.900245,-234.304784 234.304785,-234.304784 129.40454,0 234.30478,104.900254 234.30478,234.304784"
     id="path6" />
  <g
     style="fill-rule:evenodd"
     id="g10"
     transform="translate(0,-540.36)">
    <path
       style="fill-opacity:0.06700003"
       inkscape:connector-curvature="0"
       d="m 256,541.36 c -140.83,0 -255,114.17 -255,255 0,140.83 114.17,255 255,255 140.83,0 255,-114.17 255,-255 0,-140.83 -114.17,-255 -255,-255 m 8.827,44.931 c 120.9,0 218.9,98 218.9,218.9 0,120.9 -98,218.9 -218.9,218.9 -120.9,0 -218.93,-98 -218.93,-218.9 0,-120.9 98.03,-218.9 218.93,-218.9"
       id="path12" />
    <g
       style="fill-opacity:0.12900002"
       id="g14">
      <path
         inkscape:connector-curvature="0"
         d="M 256,544.79 C 117.06,544.79 4.43,657.42 4.43,796.36 4.43,935.3 117.06,1047.9 256,1047.9 394.94,1047.9 507.57,935.3 507.57,796.36 507.57,657.42 394.94,544.79 256,544.79 m 5.885,38.556 c 120.9,0 218.9,98 218.9,218.9 0,120.9 -98,218.9 -218.9,218.9 -120.9,0 -218.93,-98 -218.93,-218.9 0,-120.9 98.03,-218.9 218.93,-218.9"
         id="path16" />
      <path
         inkscape:connector-curvature="0"
         d="M 256,548.72 C 119.23,548.72 8.36,659.59 8.36,796.36 8.36,933.13 119.23,1044 256,1044 392.77,1044 503.64,933.13 503.64,796.36 503.64,659.59 392.77,548.72 256,548.72 m 2.942,31.691 c 120.9,0 218.9,98 218.9,218.9 0,120.9 -98,218.9 -218.9,218.9 -120.9,0 -218.93,-98 -218.93,-218.9 0,-120.9 98.03,-218.9 218.93,-218.9"
         id="path18" />
    </g>
    <path
       style="fill:#ffffff;stroke:#000000;stroke-width:4.90399981;stroke-opacity:0.31000001"
       inkscape:connector-curvature="0"
       d="M 253.04,548.22 C 117.62,548.22 7.85,658 7.85,793.41 c 0,135.42 109.78,245.19 245.19,245.19 135.42,0 245.19,-109.78 245.19,-245.19 0,-135.42 -109.78,-245.19 -245.19,-245.19 z m 0,26.297 c 120.9,0 218.9,98 218.9,218.9 0,120.9 -98,218.9 -218.9,218.9 -120.9,0 -218.93,-98 -218.93,-218.9 0,-120.9 98.03,-218.9 218.93,-218.9 z"
       id="path20" />
  </g>
  <g
     id="g59"
     transform="matrix(11.686475,0,0,11.687966,-28.814374,-35.382013)"
     style="fill:#ffffff;fill-opacity:1">
    <path
       id="path61"
       style="color:#000000;display:inline;visibility:visible;fill:#ffffff;fill-opacity:1;stroke:none"
       d="m 24,16 c -4.03,0 -7.684,0.66 -10.352,2.04 -1.334,0.69 -2.423,1.519 -3.207,2.478 C 9.657,21.477 9,22.617 9,24 c 0,1.383 0.657,2.523 1.441,3.482 0.784,0.959 1.873,1.788 3.207,2.478 C 16.316,31.34 19.97,32 24,32 c 4.03,0 7.684,-0.66 10.352,-2.04 1.334,-0.69 2.423,-1.519 3.207,-2.478 C 38.343,26.523 39,25.383 39,24 39,22.617 38.343,21.477 37.559,20.518 36.775,19.559 35.686,18.73 34.352,18.04 31.684,16.66 28.03,16 24,16 m 0,1.3 c 3.978,0 7.564,0.745 10.143,2.079 1.29,0.667 2.123,1.441 2.807,2.277 0.684,0.836 0.85,1.656 0.85,2.344 0,0.688 -0.166,1.508 -0.85,2.344 -0.684,0.836 -1.517,1.61 -2.807,2.277 C 31.563,29.955 27.978,30.7 24,30.7 20.022,30.7 16.437,29.955 13.857,28.621 12.567,27.954 11.733,27.18 11.05,26.344 10.366,25.508 10.2,24.688 10.2,24 c 0,-0.688 0.166,-1.508 0.85,-2.344 0.684,-0.836 1.517,-1.61 2.807,-2.277 C 16.437,18.045 20.022,17.3 24,17.3"
       inkscape:connector-curvature="0" />
    <path
       id="path63"
       style="color:#000000;display:inline;visibility:visible;fill:#ffffff;fill-opacity:1;stroke:none"
       d="m 17.07,20 c -2.02,3.49 -3.27,6.984 -3.409,9.985 -0.069,1.501 0.104,2.858 0.542,4.02 0.438,1.158 1.097,2.297 2.295,2.989 1.198,0.692 2.514,0.693 3.736,0.493 1.222,-0.2 2.484,-0.728 3.749,-1.538 2.53,-1.621 4.928,-4.455 6.943,-7.945 2.02,-3.49 3.27,-6.984 3.409,-9.985 0.069,-1.501 -0.104,-2.858 -0.542,-4.02 -0.438,-1.158 -1.097,-2.297 -2.295,-2.989 -1.198,-0.692 -2.514,-0.693 -3.736,-0.493 -1.222,0.2 -2.484,0.728 -3.749,1.538 -2.53,1.621 -4.928,4.455 -6.943,7.945 m 1.126,0.65 c 1.989,-3.445 4.427,-6.178 6.872,-7.744 1.223,-0.783 2.31,-1.119 3.375,-1.293 1.066,-0.174 1.859,0.092 2.455,0.436 0.596,0.344 1.223,0.898 1.605,1.908 0.382,1.01 0.635,2.119 0.568,3.569 -0.134,2.901 -1.282,6.379 -3.271,9.824 -1.989,3.445 -4.427,6.177 -6.872,7.744 -1.223,0.783 -2.31,1.119 -3.375,1.293 -1.066,0.174 -1.859,-0.092 -2.455,-0.436 -0.596,-0.344 -1.223,-0.898 -1.605,-1.908 -0.382,-1.01 -0.635,-2.119 -0.568,-3.569 0.134,-2.901 1.282,-6.379 3.271,-9.824"
       inkscape:connector-curvature="0" />
    <path
       id="path65"
       style="color:#000000;display:inline;visibility:visible;fill:#ffffff;fill-opacity:1;stroke:none"
       d="m 30.928,20.03 c 2.02,3.465 3.27,6.934 3.409,9.913 0.069,1.49 -0.104,2.837 -0.542,3.987 -0.438,1.15 -1.097,2.281 -2.295,2.968 -1.198,0.687 -2.514,0.688 -3.736,0.489 -1.222,-0.198 -2.484,-0.723 -3.749,-1.527 -2.53,-1.609 -4.928,-4.423 -6.943,-7.888 -2.02,-3.465 -3.27,-6.934 -3.409,-9.913 -0.069,-1.49 0.104,-2.837 0.542,-3.987 0.438,-1.15 1.097,-2.281 2.295,-2.968 1.198,-0.687 2.514,-0.688 3.736,-0.489 1.222,0.198 2.484,0.723 3.749,1.527 2.53,1.609 4.928,4.423 6.943,7.888 z m -1.126,0.645 c -1.989,-3.42 -4.427,-6.133 -6.872,-7.688 -1.223,-0.778 -2.31,-1.11 -3.375,-1.283 -1.066,-0.173 -1.859,0.091 -2.455,0.433 -0.596,0.341 -1.223,0.892 -1.605,1.894 -0.382,1 -0.635,2.103 -0.568,3.544 0.134,2.88 1.282,6.333 3.271,9.753 1.989,3.42 4.427,6.133 6.872,7.688 1.223,0.778 2.31,1.111 3.375,1.283 1.066,0.173 1.859,-0.091 2.455,-0.433 0.596,-0.341 1.223,-0.892 1.605,-1.894 0.382,-1 0.635,-2.103 0.568,-3.544 -0.134,-2.88 -1.282,-6.333 -3.271,-9.753 z"
       inkscape:connector-curvature="0" />
  </g>
</svg>
