<?xml version="1.0" encoding="UTF-8" standalone="no"?>
<svg xmlns:dc="http://purl.org/dc/elements/1.1/" xmlns:cc="http://creativecommons.org/ns#" xmlns:rdf="http://www.w3.org/1999/02/22-rdf-syntax-ns#" xmlns:svg="http://www.w3.org/2000/svg" xmlns="http://www.w3.org/2000/svg" xmlns:sodipodi="http://sodipodi.sourceforge.net/DTD/sodipodi-0.dtd" xmlns:inkscape="http://www.inkscape.org/namespaces/inkscape" height="512" viewBox="0 0 512 512" width="512" version="1.1" id="svg2" inkscape:version="0.91 r" sodipodi:docname="kblocks.svg">
<defs id="defs17" />
<sodipodi:namedview pagecolor="#ffffff" bordercolor="#666666" borderopacity="1" objecttolerance="10" gridtolerance="10" guidetolerance="10" inkscape:pageopacity="0" inkscape:pageshadow="2" inkscape:window-width="1680" inkscape:window-height="1022" id="namedview15" showgrid="false" inkscape:zoom="1.3037281" inkscape:cx="52.823198" inkscape:cy="244.919" inkscape:window-x="1680" inkscape:window-y="0" inkscape:window-maximized="1" inkscape:current-layer="svg2" />
<metadata id="metadata28">
<rdf:RDF>
<cc:Work rdf:about="">
<dc:format>image/svg+xml</dc:format>
<dc:type rdf:resource="http://purl.org/dc/dcmitype/StillImage" />
<dc:title></dc:title>
</cc:Work>
</rdf:RDF>
</metadata>
<path style="fill:#BF9E73;fill-rule:evenodd" inkscape:connector-curvature="0" d="m 471.95,253.05 c 0,120.9 -98.01,218.9 -218.9,218.9 -120.9,0 -218.9,-98.01 -218.9,-218.9 0,-120.9 98.01,-218.9 218.9,-218.9 120.9,0 218.9,98.01 218.9,218.9" id="path6" />
<path inkscape:connector-curvature="0" style="fill:#BF9E73;fill-rule:evenodd" d="m 474.33136,251.97145 c 0,120.9 -98.01,218.91 -218.91,218.91 -120.9,0 -218.910004,-98.01 -218.910004,-218.91 0,-120.9 98.010004,-218.909993 218.910004,-218.909993 120.9,0 218.91,98.009993 218.91,218.909993" id="path3748" />
<path style="fill-opacity:0.06700003;fill-rule:evenodd" inkscape:connector-curvature="0" d="M 256,1 C 115.17,1 1,115.17 1,256 1,396.83 115.17,511 256,511 396.83,511 511,396.83 511,256 511,115.17 396.83,1 256,1 m 8.827,44.931 c 120.9,0 218.9,98 218.9,218.9 0,120.9 -98,218.9 -218.9,218.9 -120.9,0 -218.93,-98 -218.93,-218.9 0,-120.9 98.03,-218.9 218.93,-218.9" id="path8" />
<path inkscape:connector-curvature="0" style="fill:#BF9E73" d="m 36.541356,254.42145 c 1.315,119.77 98.800004,216.47 218.880004,216.47 1.159,0 2.314,-0.045 3.469,-0.063 l 0,-216.41 -222.340004,0" id="path3750" />
<g style="fill-opacity:0.12900002;fill-rule:evenodd" id="g10">
<path inkscape:connector-curvature="0" d="m 256,4.433 c -138.94,0 -251.57,112.63 -251.57,251.57 0,138.94 112.63,251.57 251.57,251.57 138.94,0 251.57,-112.63 251.57,-251.57 C 507.57,117.063 394.94,4.433 256,4.433 m 5.885,38.556 c 120.9,0 218.9,98 218.9,218.9 0,120.9 -98,218.9 -218.9,218.9 -120.9,0 -218.93,-98 -218.93,-218.9 0,-120.9 98.03,-218.9 218.93,-218.9" id="path12" />
<path inkscape:connector-curvature="0" d="m 256,8.356 c -136.77,0 -247.64,110.87 -247.64,247.64 0,136.77 110.87,247.64 247.64,247.64 136.77,0 247.64,-110.87 247.64,-247.64 C 503.64,119.226 392.77,8.356 256,8.356 m 2.942,31.691 c 120.9,0 218.9,98 218.9,218.9 0,120.9 -98,218.9 -218.9,218.9 -120.9,0 -218.93,-98 -218.93,-218.9 0,-120.9 98.03,-218.9 218.93,-218.9" id="path14" />
</g>
<path inkscape:connector-curvature="0" style="fill:#ffffff" d="m 120.44136,116.74145 0,118.17 118.38,0 0,-118.17 -118.38,0 m 157.5,0 0,118.17 118.38,0 0,-118.17 -118.38,0 m -129.13,28.327 61.64,0 0,61.52 -61.64,0 0,-61.52 m 157.5,0 61.64,0 0,61.52 -61.64,0 0,-61.52 m -185.87,129.91 0,118.13 118.38,0 0,-118.13 -118.38,0 m 157.5,0 0,118.13 118.38,0 0,-118.13 -118.38,0 m -129.13,28.327 61.64,0 0,61.48 -61.64,0 0,-61.48 m 157.5,0 61.64,0 0,61.48 -61.64,0 0,-61.48" id="path3812" />
<path style="fill:#ffffff;fill-rule:evenodd;stroke:#000000;stroke-width:4.90399981;stroke-opacity:0.31000001" inkscape:connector-curvature="0" d="m 253.04,7.859 c -135.42,0 -245.19,109.78 -245.19,245.19 0,135.42 109.78,245.19 245.19,245.19 135.42,0 245.19,-109.78 245.19,-245.19 0,-135.42 -109.78,-245.19 -245.19,-245.19 z m 0,26.297 c 120.9,0 218.9,98 218.9,218.9 0,120.9 -98,218.9 -218.9,218.9 -120.9,0 -218.93,-98 -218.93,-218.9 0,-120.9 98.03,-218.9 218.93,-218.9 z" id="path16" />
</svg>
