<?xml version="1.0" encoding="UTF-8" standalone="no"?>
<svg
   xmlns:dc="http://purl.org/dc/elements/1.1/"
   xmlns:cc="http://creativecommons.org/ns#"
   xmlns:rdf="http://www.w3.org/1999/02/22-rdf-syntax-ns#"
   xmlns:svg="http://www.w3.org/2000/svg"
   xmlns="http://www.w3.org/2000/svg"
   xmlns:sodipodi="http://sodipodi.sourceforge.net/DTD/sodipodi-0.dtd"
   xmlns:inkscape="http://www.inkscape.org/namespaces/inkscape"
   viewBox="0 0 512 512"
   id="svg2"
   version="1.1"
   inkscape:version="0.91 r13725"
   sodipodi:docname="kdeconnect.svg">
  <metadata
     id="metadata35">
    <rdf:RDF>
      <cc:Work
         rdf:about="">
        <dc:format>image/svg+xml</dc:format>
        <dc:type
           rdf:resource="http://purl.org/dc/dcmitype/StillImage" />
      </cc:Work>
    </rdf:RDF>
  </metadata>
  <sodipodi:namedview
     pagecolor="#ffffff"
     bordercolor="#666666"
     borderopacity="1"
     objecttolerance="10"
     gridtolerance="10"
     guidetolerance="10"
     inkscape:pageopacity="0"
     inkscape:pageshadow="2"
     inkscape:window-width="1680"
     inkscape:window-height="1024"
     id="namedview33"
     showgrid="false"
     inkscape:zoom="0.4609375"
     inkscape:cx="-162.71186"
     inkscape:cy="256"
     inkscape:window-x="0"
     inkscape:window-y="0"
     inkscape:window-maximized="0"
     inkscape:current-layer="svg2" />
  <defs
     id="defs4">
    <linearGradient
       id="0"
       y2="536.85"
       gradientUnits="userSpaceOnUse"
       x2="510.3"
       y1="58.23"
       x1="51.01">
      <stop
         stop-color="#0078ad"
         id="stop7" />
      <stop
         stop-color="#21ad00"
         stop-opacity="0.498"
         offset="0.5"
         id="stop9" />
      <stop
         stop-color="#ad9e00"
         offset="1"
         id="stop11" />
    </linearGradient>
  </defs>
  <path
     style="fill:#ffffff;fill-rule:evenodd"
     inkscape:connector-curvature="0"
     id="path15"
     d="m 470.41,253.05 c 0,120.9 -98.01,218.91 -218.91,218.91 -120.9,0 -218.91,-98.01 -218.91,-218.91 0,-120.9 98.01,-218.91 218.91,-218.91 120.9,0 218.91,98.01 218.91,218.91" />
  <path
     inkscape:connector-curvature="0"
     style="fill:#BF9E73;fill-rule:evenodd;fill-opacity:1"
     id="path17"
     d="m 470.41,253.05 c 0,120.9 -98.01,218.91 -218.91,218.91 -120.9,0 -218.91,-98.01 -218.91,-218.91 0,-120.9 98.01,-218.91 218.91,-218.91 120.9,0 218.91,98.01 218.91,218.91" />
  <path
     style="fill-opacity:0.06700003;fill-rule:evenodd"
     inkscape:connector-curvature="0"
     id="path19"
     d="M 256,3.1694915 C 115.17,3.1694915 1,117.33949 1,258.16949 c 0,140.83 114.17,255 255,255 140.83,0 255,-114.17 255,-255 C 511,117.33949 396.83,3.1694915 256,3.1694915 m 8.827,44.9310005 c 120.9,0 218.9,97.999998 218.9,218.899998 0,120.9 -98,218.9 -218.9,218.9 -120.9,0 -218.93,-98 -218.93,-218.9 0,-120.9 98.03,-218.899998 218.93,-218.899998" />
  <g
     style="fill-opacity:0.12900002;fill-rule:evenodd"
     id="g21">
    <path
       inkscape:connector-curvature="0"
       id="path23"
       d="M 256,4.43 C 117.06,4.43 4.43,117.06 4.43,256 4.43,394.94 117.06,507.57 256,507.57 394.94,507.57 507.57,394.94 507.57,256 507.57,117.06 394.94,4.43 256,4.43 m 5.885,38.556 c 120.9,0 218.9,98 218.9,218.9 0,120.9 -98,218.9 -218.9,218.9 -120.9,0 -218.93,-98 -218.93,-218.9 0,-120.9 98.03,-218.9 218.93,-218.9" />
    <path
       inkscape:connector-curvature="0"
       id="path25"
       d="M 256,8.36 C 119.23,8.36 8.36,119.23 8.36,256 8.36,392.77 119.23,503.64 256,503.64 392.77,503.64 503.64,392.77 503.64,256 503.64,119.23 392.77,8.36 256,8.36 m 2.942,31.691 c 120.9,0 218.9,98 218.9,218.9 0,120.9 -98,218.9 -218.9,218.9 -120.9,0 -218.93,-98 -218.93,-218.9 0,-120.9 98.03,-218.9 218.93,-218.9" />
  </g>
  <path
     style="fill:#ffffff;fill-rule:evenodd;stroke:#000000;stroke-width:4.90399981;stroke-opacity:0.31000001"
     inkscape:connector-curvature="0"
     id="path27"
     d="M 253.04,7.86 C 117.62,7.86 7.85,117.64 7.85,253.05 c 0,135.42 109.78,245.19 245.19,245.19 135.42,0 245.19,-109.78 245.19,-245.19 C 498.23,117.63 388.45,7.86 253.04,7.86 Z m 0,26.297 c 120.9,0 218.9,98 218.9,218.9 0,120.9 -98,218.9 -218.9,218.9 -120.9,0 -218.93,-98 -218.93,-218.9 0,-120.9 98.03,-218.9 218.93,-218.9 z" />
  <path
     opacity="0.25"
     d="m277.61 118.39l-45.768 4.395v67.44l-8.906-8.906c-4.582 1.604-9.02 3.535-13.227 5.822l-0.076-0.076-34.24-22.479c-0.462-0.302-0.986-0.286-1.504-0.232-0.517 0.053-1.076 0.188-1.465 0.578l-18.01 17.93c-0.755 0.758-0.824 1.936-0.27 2.854l21.05 34.701c-3.732 6.273-6.773 12.992-8.906 20.13l-38.672 8.02c-1.075 0.222-1.813 1.289-1.813 2.391v25.408c0 0.607 0.246 1.151 0.648 1.553l41.992 41.992-15.844 24.16c-0.605 0.923-0.549 2.19 0.23 2.969l123.51 123.51c109.2-12.341 194.06-105 194.06-217.49 0-14.09-1.348-27.869-3.893-41.22l-80.33-80.33-48.658-11.182-24.793 33.2-35.12-35.13"
     id="path29" />
  <path
     d="m277.61 118.39l-45.767 4.396v188.43l45.3-6.863v-80.31l60.843 89.18 47.772-15.192-62.42-85.75 62.848-80.78-48.659-11.182-60.38 80.85 0.463-82.78m-103.72 45.96c-0.517 0.053-1.076 0.188-1.465 0.578l-18.01 17.929c-0.755 0.758-0.825 1.936-0.27 2.853l21.05 34.701c-3.732 6.274-6.773 12.992-8.907 20.13l-38.673 8.02c-1.075 0.222-1.812 1.289-1.812 2.391v25.409c0 1.075 0.772 1.944 1.812 2.198l37.478 9.099c2 8.26 5.083 16.17 9.177 23.366l-21.669 33.04c-0.605 0.923-0.549 2.19 0.231 2.969l18.01 18.01c0.757 0.755 1.938 0.788 2.853 0.231l34.01-20.628c6.672 3.852 13.866 6.967 21.476 9.02l7.943 38.13c0.222 1.076 1.175 1.812 2.275 1.812h25.409c1.067 0 2.02-0.691 2.275-1.735l9.331-38.33c7.849-2.116 15.249-5.263 22.09-9.292l33.545 22.02c0.925 0.602 2.147 0.509 2.93-0.27l17.929-18.01c0.76-0.758 0.942-1.938 0.386-2.853l-12.261-20.13-4.01 1.311c-0.579 0.178-1.198-0.113-1.542-0.617 0 0-7.741-11.357-17.813-26.1-12.05 23.572-36.634 39.675-64.93 39.675-40.21 0-72.796-32.588-72.796-72.796 0-29.576 17.664-54.998 42.991-66.4v-18.777c-4.61 1.613-9.07 3.555-13.302 5.861-0.018-0.002 0.018-0.111 0-0.116l-34.24-22.479c-0.462-0.302-0.986-0.285-1.504-0.231"
     fill="#fff"
     id="path31" />
</svg>
