<?xml version="1.0" encoding="UTF-8" standalone="no"?>
<svg
   xmlns:dc="http://purl.org/dc/elements/1.1/"
   xmlns:cc="http://creativecommons.org/ns#"
   xmlns:rdf="http://www.w3.org/1999/02/22-rdf-syntax-ns#"
   xmlns:svg="http://www.w3.org/2000/svg"
   xmlns="http://www.w3.org/2000/svg"
   xmlns:sodipodi="http://sodipodi.sourceforge.net/DTD/sodipodi-0.dtd"
   xmlns:inkscape="http://www.inkscape.org/namespaces/inkscape"
   viewBox="0 0 512 512"
   id="svg2"
   version="1.1"
   inkscape:version="0.91 r"
   sodipodi:docname="kdenlive.svg">
  <metadata
     id="metadata322">
    <rdf:RDF>
      <cc:Work
         rdf:about="">
        <dc:format>image/svg+xml</dc:format>
        <dc:type
           rdf:resource="http://purl.org/dc/dcmitype/StillImage" />
      </cc:Work>
    </rdf:RDF>
  </metadata>
  <defs
     id="defs320" />
  <sodipodi:namedview
     pagecolor="#ffffff"
     bordercolor="#666666"
     borderopacity="1"
     objecttolerance="10"
     gridtolerance="10"
     guidetolerance="10"
     inkscape:pageopacity="0"
     inkscape:pageshadow="2"
     inkscape:window-width="1678"
     inkscape:window-height="997"
     id="namedview318"
     showgrid="false"
     inkscape:zoom="0.4609375"
     inkscape:cx="-490.30508"
     inkscape:cy="256"
     inkscape:window-x="0"
     inkscape:window-y="0"
     inkscape:window-maximized="0"
     inkscape:current-layer="svg2" />
  <text
     font-size="129.23"
     y="231.36"
     x="729.64"
     font-family="Gentium Book Basic"
     line-height="125%"
     word-spacing="0"
     letter-spacing="0"
     id="text4">
    <tspan
       y="231.36"
       x="729.64"
       id="tspan6" />
  </text>
  <text
     transform="scale(4.0128.2492)"
     font-size="46.954"
     y="579.26"
     x="378.91"
     font-family="Arial"
     text-anchor="middle"
     id="text8" />
  <text
     font-size="129.23"
     y="151.36"
     x="1310.91"
     font-family="Gentium Book Basic"
     line-height="125%"
     word-spacing="0"
     letter-spacing="0"
     id="text10">
    <tspan
       y="151.36"
       x="1310.91"
       id="tspan12" />
  </text>
  <text
     transform="scale(4.0128.2492)"
     font-size="46.954"
     y="258.22"
     x="523.76"
     font-family="Arial"
     text-anchor="middle"
     id="text14" />
  <text
     font-size="129.23"
     y="-29.9"
     x="239.33"
     font-family="Gentium Book Basic"
     line-height="125%"
     word-spacing="0"
     letter-spacing="0"
     id="text16">
    <tspan
       y="-29.9"
       x="239.33"
       id="tspan18" />
  </text>
  <text
     transform="scale(4.0128.2492)"
     font-size="46.954"
     y="-469.13"
     x="256.72"
     font-family="Arial"
     text-anchor="middle"
     id="text20" />
  <text
     font-size="129.23"
     y="-246.37"
     x="1337.38"
     font-family="Gentium Book Basic"
     line-height="125%"
     word-spacing="0"
     letter-spacing="0"
     id="text22">
    <tspan
       y="-246.37"
       x="1337.38"
       id="tspan24" />
  </text>
  <text
     transform="scale(4.0128.2492)"
     font-size="46.954"
     y="-1337.8"
     x="530.36"
     font-family="Arial"
     text-anchor="middle"
     id="text26" />
  <text
     font-size="129.23"
     y="-326.37"
     x="1918.65"
     font-family="Gentium Book Basic"
     line-height="125%"
     word-spacing="0"
     letter-spacing="0"
     id="text28">
    <tspan
       y="-326.37"
       x="1918.65"
       id="tspan30" />
  </text>
  <text
     transform="scale(4.0128.2492)"
     font-size="46.954"
     y="-1658.83"
     x="675.21"
     font-family="Arial"
     text-anchor="middle"
     id="text32" />
  <text
     font-size="129.23"
     y="-798.77"
     x="1529.53"
     font-family="Gentium Book Basic"
     line-height="125%"
     word-spacing="0"
     letter-spacing="0"
     id="text34">
    <tspan
       y="-798.77"
       x="1529.53"
       id="tspan36" />
  </text>
  <text
     transform="scale(4.0128.2492)"
     font-size="46.954"
     y="-3554.48"
     x="578.24"
     font-family="Arial"
     text-anchor="middle"
     id="text38" />
  <text
     font-size="129.23"
     y="-878.78"
     x="2110.79"
     font-family="Gentium Book Basic"
     line-height="125%"
     word-spacing="0"
     letter-spacing="0"
     id="text40">
    <tspan
       y="-878.78"
       x="2110.79"
       id="tspan42" />
  </text>
  <text
     transform="scale(4.0128.2492)"
     font-size="46.954"
     y="-3875.52"
     x="723.09"
     font-family="Arial"
     text-anchor="middle"
     id="text44" />
  <text
     font-size="208.33"
     y="535.94"
     x="277.99"
     font-family="Gentium Book Basic"
     line-height="125%"
     word-spacing="0"
     letter-spacing="0"
     id="text46">
    <tspan
       y="535.94"
       x="277.99"
       id="tspan48" />
  </text>
  <path
     style="fill:#BF9E73;fill-rule:evenodd"
     inkscape:connector-curvature="0"
     id="path52"
     d="m 471.95,253.05 c 0,120.9 -98.01,218.9 -218.9,218.9 -120.9,0 -218.9,-98.01 -218.9,-218.9 0,-120.9 98.01,-218.9 218.9,-218.9 120.9,0 218.9,98.01 218.9,218.9" />
  <path
     style="opacity:0.99999999;fill:#ffffff;fill-rule:evenodd"
     inkscape:connector-curvature="0"
     id="path54"
     d="m 447.66,152.78 c 5.31,10.284 9.821,21.03 13.469,32.19 l 0,13.594 c 0,2.223 1.777,4.03 4,4.03 l 0.969,0 c 3.824,16.202 5.844,33.1 5.844,50.47 0,19.659 -2.609,38.687 -7.469,56.813 -1.906,0.31 -3.344,1.938 -3.344,3.938 l 0,7.313 c -4.348,13.3 -9.934,26.02 -16.625,38.06 l -229.75,0 c -4.396,0 -7.938,-3.541 -7.938,-7.938 l 0,-190.53 c 0,-4.396 3.541,-7.938 7.938,-7.938 l 232.91,0 m -271.22,0 c 4.396,0 7.938,3.541 7.938,7.938 l 0,190.53 c 0,4.396 -3.541,7.938 -7.938,7.938 l -114.87,0 C 44.112,327.75 34.168,291.578 34.168,253.068 c 0,-36.14 8.768,-70.24 24.281,-100.28 l 118,0 m 259.31,20.75 -11.03,0 c -2.223,0 -4.03,1.808 -4.03,4.03 l 0,21 c 0,2.223 1.808,4.03 4.03,4.03 l 11.03,0 c 2.223,0 4.03,-1.808 4.03,-4.03 l 0,-21 c 0,-2.223 -1.808,-4.03 -4.03,-4.03 m -40.41,0 -11.06,0 c -2.223,0 -4,1.808 -4,4.03 l 0,21 c 0,2.223 1.777,4.03 4,4.03 l 11.06,0 c 2.223,0 4,-1.808 4,-4.03 l 0,-21 c 0,-2.223 -1.777,-4.03 -4,-4.03 m -40.41,0 -11.06,0 c -2.223,0 -4.03,1.808 -4.03,4.03 l 0,21 c 0,2.223 1.808,4.03 4.03,4.03 l 11.06,0 c 2.223,0 4,-1.808 4,-4.03 l 0,-21 c 0,-2.223 -1.777,-4.03 -4,-4.03 m -40.44,0 -11.03,0 c -2.223,0 -4.03,1.808 -4.03,4.03 l 0,21 c 0,2.223 1.808,4.03 4.03,4.03 l 11.03,0 c 2.223,0 4.03,-1.808 4.03,-4.03 l 0,-21 c 0,-2.223 -1.808,-4.03 -4.03,-4.03 m -40.41,0 -11.06,0 c -2.223,0 -4,1.808 -4,4.03 l 0,21 c 0,2.223 1.777,4.03 4,4.03 l 11.06,0 c 2.223,0 4,-1.808 4,-4.03 l 0,-21 c 0,-2.223 -1.777,-4.03 -4,-4.03 m -40.41,0 -11.06,0 c -2.223,0 -4.03,1.808 -4.03,4.03 l 0,21 c 0,2.223 1.808,4.03 4.03,4.03 l 11.06,0 c 2.223,0 4,-1.808 4,-4.03 l 0,-21 c 0,-2.223 -1.777,-4.03 -4,-4.03 m -77.22,0 -11.06,0 c -2.223,0 -4,1.808 -4,4.03 l 0,21 c 0,2.223 1.777,4.03 4,4.03 l 11.06,0 c 2.223,0 4,-1.808 4,-4.03 l 0,-21 c 0,-2.223 -1.777,-4.03 -4,-4.03 m -40.41,0 -11.06,0 c -2.223,0 -4.03,1.808 -4.03,4.03 l 0,21 c 0,2.223 1.808,4.03 4.03,4.03 l 11.06,0 c 2.223,0 4,-1.808 4,-4.03 l 0,-21 c 0,-2.223 -1.777,-4.03 -4,-4.03 m -40.44,0 -11.06,0 c -2.223,0 -4,1.808 -4,4.03 l 0,21 c 0,2.223 1.777,4.03 4,4.03 l 11.06,0 c 2.223,0 4.03,-1.808 4.03,-4.03 l 0,-21 c 0,-2.223 -1.808,-4.03 -4.03,-4.03 m 80.84,132.34 -11.06,0 c -2.223,0 -4,1.777 -4,4 l 0,21.03 c 0,2.223 1.777,4 4,4 l 11.06,0 c 2.223,0 4,-1.777 4,-4 l 0,-21.03 c 0,-2.223 -1.777,-4 -4,-4 m -40.41,0 -11.06,0 c -2.223,0 -4.03,1.777 -4.03,4 l 0,21.03 c 0,2.223 1.808,4 4.03,4 l 11.06,0 c 2.223,0 4,-1.777 4,-4 l 0,-21.03 c 0,-2.223 -1.777,-4 -4,-4 m -40.44,0 -11.06,0 c -2.223,0 -4,1.777 -4,4 l 0,21.03 c 0,2.223 1.777,4 4,4 l 11.06,0 c 2.223,0 4.03,-1.777 4.03,-4 l 0,-21.03 c 0,-2.223 -1.808,-4 -4.03,-4 m 360.13,3.938 -11.03,0 c -2.223,0 -4.03,1.777 -4.03,4 l 0,21.03 c 0,2.223 1.808,4 4.03,4 l 11.03,0 c 2.223,0 4.03,-1.777 4.03,-4 l 0,-21.03 c 0,-2.223 -1.808,-4 -4.03,-4 m -40.41,0 -11.06,0 c -2.223,0 -4,1.777 -4,4 l 0,21.03 c 0,2.223 1.777,4 4,4 l 11.06,0 c 2.223,0 4,-1.777 4,-4 l 0,-21.03 c 0,-2.223 -1.777,-4 -4,-4 m -40.41,0 -11.06,0 c -2.223,0 -4.03,1.777 -4.03,4 l 0,21.03 c 0,2.223 1.808,4 4.03,4 l 11.06,0 c 2.223,0 4,-1.777 4,-4 l 0,-21.03 c 0,-2.223 -1.777,-4 -4,-4 m -40.44,0 -11.03,0 c -2.223,0 -4.03,1.777 -4.03,4 l 0,21.03 c 0,2.223 1.808,4 4.03,4 l 11.03,0 c 2.223,0 4.03,-1.777 4.03,-4 l 0,-21.03 c 0,-2.223 -1.808,-4 -4.03,-4 m -40.41,0 -11.06,0 c -2.223,0 -4,1.777 -4,4 l 0,21.03 c 0,2.223 1.777,4 4,4 l 11.06,0 c 2.223,0 4,-1.777 4,-4 l 0,-21.03 c 0,-2.223 -1.777,-4 -4,-4 m -40.41,0 -11.06,0 c -2.223,0 -4.03,1.777 -4.03,4 l 0,21.03 c 0,2.223 1.808,4 4.03,4 l 11.06,0 c 2.223,0 4,-1.777 4,-4 l 0,-21.03 c 0,-2.223 -1.777,-4 -4,-4" />
  <path
     style="fill-opacity:0.06700003;fill-rule:evenodd"
     inkscape:connector-curvature="0"
     id="path56"
     d="M 256,1 C 115.17,1 1,115.17 1,256 1,396.83 115.17,511 256,511 396.83,511 511,396.83 511,256 511,115.17 396.83,1 256,1 m 8.827,44.931 c 120.9,0 218.9,98 218.9,218.9 0,120.9 -98,218.9 -218.9,218.9 -120.9,0 -218.93,-98 -218.93,-218.9 0,-120.9 98.03,-218.9 218.93,-218.9" />
  <g
     style="fill-opacity:0.12900002;fill-rule:evenodd"
     id="g58">
    <path
       inkscape:connector-curvature="0"
       id="path60"
       d="m 256,4.433 c -138.94,0 -251.57,112.63 -251.57,251.57 0,138.94 112.63,251.57 251.57,251.57 138.94,0 251.57,-112.63 251.57,-251.57 C 507.57,117.063 394.94,4.433 256,4.433 m 5.885,38.556 c 120.9,0 218.9,98 218.9,218.9 0,120.9 -98,218.9 -218.9,218.9 -120.9,0 -218.93,-98 -218.93,-218.9 0,-120.9 98.03,-218.9 218.93,-218.9" />
    <path
       inkscape:connector-curvature="0"
       id="path62"
       d="m 256,8.356 c -136.77,0 -247.64,110.87 -247.64,247.64 0,136.77 110.87,247.64 247.64,247.64 136.77,0 247.64,-110.87 247.64,-247.64 C 503.64,119.226 392.77,8.356 256,8.356 m 2.942,31.691 c 120.9,0 218.9,98 218.9,218.9 0,120.9 -98,218.9 -218.9,218.9 -120.9,0 -218.93,-98 -218.93,-218.9 0,-120.9 98.03,-218.9 218.93,-218.9" />
  </g>
  <path
     style="fill:#ffffff;fill-rule:evenodd;stroke:#000000;stroke-width:4.90399981;stroke-opacity:0.31000001"
     inkscape:connector-curvature="0"
     id="path64"
     d="m 253.04,7.859 c -135.42,0 -245.19,109.78 -245.19,245.19 0,135.42 109.78,245.19 245.19,245.19 135.42,0 245.19,-109.78 245.19,-245.19 0,-135.42 -109.78,-245.19 -245.19,-245.19 z m 0,26.297 c 120.9,0 218.9,98 218.9,218.9 0,120.9 -98,218.9 -218.9,218.9 -120.9,0 -218.93,-98 -218.93,-218.9 0,-120.9 98.03,-218.9 218.93,-218.9 z" />
  <text
     font-size="129.23"
     y="231.36"
     x="729.64"
     font-family="'Gentium Book Basic'"
     line-height="125%"
     word-spacing="0"
     letter-spacing="0"
     id="text66">
    <tspan
       y="231.36"
       x="729.64"
       id="tspan68" />
  </text>
  <text
     transform="scale(4.0128.2492)"
     font-size="46.954"
     y="579.25"
     x="378.91"
     font-family="Arial"
     text-anchor="middle"
     id="text70" />
  <text
     font-size="129.23"
     y="151.36"
     x="1310.91"
     font-family="'Gentium Book Basic'"
     line-height="125%"
     word-spacing="0"
     letter-spacing="0"
     id="text72">
    <tspan
       y="151.36"
       x="1310.91"
       id="tspan74" />
  </text>
  <text
     transform="scale(4.0128.2492)"
     font-size="46.954"
     y="258.22"
     x="523.76"
     font-family="Arial"
     text-anchor="middle"
     id="text76" />
  <text
     font-size="129.23"
     y="-29.901"
     x="239.33"
     font-family="'Gentium Book Basic'"
     line-height="125%"
     word-spacing="0"
     letter-spacing="0"
     id="text78">
    <tspan
       y="-29.901"
       x="239.33"
       id="tspan80" />
  </text>
  <text
     transform="scale(4.0128.2492)"
     font-size="46.954"
     y="-469.14"
     x="256.72"
     font-family="Arial"
     text-anchor="middle"
     id="text82" />
  <text
     font-size="129.23"
     y="-246.37"
     x="1337.38"
     font-family="'Gentium Book Basic'"
     line-height="125%"
     word-spacing="0"
     letter-spacing="0"
     id="text84">
    <tspan
       y="-246.37"
       x="1337.38"
       id="tspan86" />
  </text>
  <text
     transform="scale(4.0128.2492)"
     font-size="46.954"
     y="-1337.8"
     x="530.36"
     font-family="Arial"
     text-anchor="middle"
     id="text88" />
  <text
     font-size="129.23"
     y="-326.38"
     x="1918.65"
     font-family="'Gentium Book Basic'"
     line-height="125%"
     word-spacing="0"
     letter-spacing="0"
     id="text90">
    <tspan
       y="-326.38"
       x="1918.65"
       id="tspan92" />
  </text>
  <text
     transform="scale(4.0128.2492)"
     font-size="46.954"
     y="-1658.84"
     x="675.21"
     font-family="Arial"
     text-anchor="middle"
     id="text94" />
  <text
     font-size="129.23"
     y="-798.78"
     x="1529.53"
     font-family="'Gentium Book Basic'"
     line-height="125%"
     word-spacing="0"
     letter-spacing="0"
     id="text96">
    <tspan
       y="-798.78"
       x="1529.53"
       id="tspan98" />
  </text>
  <text
     transform="scale(4.0128.2492)"
     font-size="46.954"
     y="-3554.49"
     x="578.24"
     font-family="Arial"
     text-anchor="middle"
     id="text100" />
  <text
     font-size="129.23"
     y="-878.78"
     x="2110.79"
     font-family="'Gentium Book Basic'"
     line-height="125%"
     word-spacing="0"
     letter-spacing="0"
     id="text102">
    <tspan
       y="-878.78"
       x="2110.79"
       id="tspan104" />
  </text>
  <text
     transform="scale(4.0128.2492)"
     font-size="46.954"
     y="-3875.52"
     x="723.09"
     font-family="Arial"
     text-anchor="middle"
     id="text106" />
  <g
     font-family="'Gentium Book Basic'"
     line-height="125%"
     word-spacing="0"
     letter-spacing="0"
     id="g108">
    <text
       y="535.94"
       x="277.99"
       font-size="208.33"
       id="text110">
      <tspan
         y="535.94"
         x="277.99"
         id="tspan112" />
    </text>
    <text
       y="270.87"
       x="-1745.96"
       font-size="129.23"
       id="text114">
      <tspan
         y="270.87"
         x="-1745.96"
         id="tspan116" />
    </text>
  </g>
  <text
     transform="scale(4.0128.2492)"
     font-size="46.954"
     y="737.79"
     x="-238.01"
     font-family="Arial"
     text-anchor="middle"
     id="text118" />
  <text
     font-size="129.23"
     y="190.87"
     x="-1164.69"
     font-family="'Gentium Book Basic'"
     line-height="125%"
     word-spacing="0"
     letter-spacing="0"
     id="text120">
    <tspan
       y="190.87"
       x="-1164.69"
       id="tspan122" />
  </text>
  <text
     transform="scale(4.0128.2492)"
     font-size="46.954"
     y="416.76"
     x="-93.17"
     font-family="Arial"
     text-anchor="middle"
     id="text124" />
  <text
     font-size="129.23"
     y="9.608"
     x="-2236.27"
     font-family="'Gentium Book Basic'"
     line-height="125%"
     word-spacing="0"
     letter-spacing="0"
     id="text126">
    <tspan
       y="9.608"
       x="-2236.27"
       id="tspan128" />
  </text>
  <text
     transform="scale(4.0128.2492)"
     font-size="46.954"
     y="-310.6"
     x="-360.2"
     font-family="Arial"
     text-anchor="middle"
     id="text130" />
  <text
     font-size="129.23"
     y="-206.86"
     x="-1138.22"
     font-family="'Gentium Book Basic'"
     line-height="125%"
     word-spacing="0"
     letter-spacing="0"
     id="text132">
    <tspan
       y="-206.86"
       x="-1138.22"
       id="tspan134" />
  </text>
  <text
     transform="scale(4.0128.2492)"
     font-size="46.954"
     y="-1179.26"
     x="-86.57"
     font-family="Arial"
     text-anchor="middle"
     id="text136" />
  <text
     font-size="129.23"
     y="-286.87"
     x="-556.95"
     font-family="'Gentium Book Basic'"
     line-height="125%"
     word-spacing="0"
     letter-spacing="0"
     id="text138">
    <tspan
       y="-286.87"
       x="-556.95"
       id="tspan140" />
  </text>
  <text
     transform="scale(4.0128.2492)"
     font-size="46.954"
     y="-1500.3"
     x="58.28"
     font-family="Arial"
     text-anchor="middle"
     id="text142" />
  <text
     font-size="129.23"
     y="-759.27"
     x="-946.07"
     font-family="'Gentium Book Basic'"
     line-height="125%"
     word-spacing="0"
     letter-spacing="0"
     id="text144">
    <tspan
       y="-759.27"
       x="-946.07"
       id="tspan146" />
  </text>
  <text
     transform="scale(4.0128.2492)"
     font-size="46.954"
     y="-3395.95"
     x="-38.686"
     font-family="Arial"
     text-anchor="middle"
     id="text148" />
  <text
     font-size="129.23"
     y="-839.27"
     x="-364.81"
     font-family="'Gentium Book Basic'"
     line-height="125%"
     word-spacing="0"
     letter-spacing="0"
     id="text150">
    <tspan
       y="-839.27"
       x="-364.81"
       id="tspan152" />
  </text>
  <text
     transform="scale(4.0128.2492)"
     font-size="46.954"
     y="-3716.98"
     x="106.16"
     font-family="Arial"
     text-anchor="middle"
     id="text154" />
  <g
     font-family="'Gentium Book Basic'"
     line-height="125%"
     word-spacing="0"
     letter-spacing="0"
     id="g156">
    <text
       y="575.45"
       x="-2197.61"
       font-size="208.33"
       id="text158">
      <tspan
         y="575.45"
         x="-2197.61"
         id="tspan160" />
    </text>
    <text
       y="525.1"
       x="-1144.61"
       font-size="129.23"
       id="text162">
      <tspan
         y="525.1"
         x="-1144.61"
         id="tspan164" />
    </text>
  </g>
  <text
     transform="scale(4.0128.2492)"
     font-size="46.954"
     y="1757.96"
     x="-88.16"
     font-family="Arial"
     text-anchor="middle"
     id="text166" />
  <text
     font-size="129.23"
     y="445.1"
     x="-563.34"
     font-family="'Gentium Book Basic'"
     line-height="125%"
     word-spacing="0"
     letter-spacing="0"
     id="text168">
    <tspan
       y="445.1"
       x="-563.34"
       id="tspan170" />
  </text>
  <text
     transform="scale(4.0128.2492)"
     font-size="46.954"
     y="1436.93"
     x="56.693"
     font-family="Arial"
     text-anchor="middle"
     id="text172" />
  <text
     font-size="129.23"
     y="263.84"
     x="-1634.92"
     font-family="'Gentium Book Basic'"
     line-height="125%"
     word-spacing="0"
     letter-spacing="0"
     id="text174">
    <tspan
       y="263.84"
       x="-1634.92"
       id="tspan176" />
  </text>
  <text
     transform="scale(4.0128.2492)"
     font-size="46.954"
     y="709.58"
     x="-210.35"
     font-family="Arial"
     text-anchor="middle"
     id="text178" />
  <text
     font-size="129.23"
     y="47.37"
     x="-536.87"
     font-family="'Gentium Book Basic'"
     line-height="125%"
     word-spacing="0"
     letter-spacing="0"
     id="text180">
    <tspan
       y="47.37"
       x="-536.87"
       id="tspan182" />
  </text>
  <text
     transform="scale(4.0128.2492)"
     font-size="46.954"
     y="-159.09"
     x="63.29"
     font-family="Arial"
     text-anchor="middle"
     id="text184" />
  <text
     font-size="129.23"
     y="-32.643"
     x="44.4"
     font-family="'Gentium Book Basic'"
     line-height="125%"
     word-spacing="0"
     letter-spacing="0"
     id="text186">
    <tspan
       y="-32.643"
       x="44.4"
       id="tspan188" />
  </text>
  <text
     transform="scale(4.0128.2492)"
     font-size="46.954"
     y="-480.13"
     x="208.14"
     font-family="Arial"
     text-anchor="middle"
     id="text190" />
  <text
     font-size="129.23"
     y="-505.04"
     x="-344.72"
     font-family="'Gentium Book Basic'"
     line-height="125%"
     word-spacing="0"
     letter-spacing="0"
     id="text192">
    <tspan
       y="-505.04"
       x="-344.72"
       id="tspan194" />
  </text>
  <text
     transform="scale(4.0128.2492)"
     font-size="46.954"
     y="-2375.78"
     x="111.17"
     font-family="Arial"
     text-anchor="middle"
     id="text196" />
  <text
     font-size="129.23"
     y="-585.04"
     x="236.54"
     font-family="'Gentium Book Basic'"
     line-height="125%"
     word-spacing="0"
     letter-spacing="0"
     id="text198">
    <tspan
       y="-585.04"
       x="236.54"
       id="tspan200" />
  </text>
  <text
     transform="scale(4.0128.2492)"
     font-size="46.954"
     y="-2696.8"
     x="256.02"
     font-family="Arial"
     text-anchor="middle"
     id="text202" />
  <g
     font-family="'Gentium Book Basic'"
     line-height="125%"
     word-spacing="0"
     letter-spacing="0"
     id="g204">
    <text
       y="829.68"
       x="-1596.26"
       font-size="208.33"
       id="text206">
      <tspan
         y="829.68"
         x="-1596.26"
         id="tspan208" />
    </text>
    <text
       y="246.55"
       x="1403.27"
       font-size="129.23"
       id="text210">
      <tspan
         y="246.55"
         x="1403.27"
         id="tspan212" />
    </text>
  </g>
  <text
     transform="scale(4.0128.2492)"
     font-size="46.954"
     y="640.19"
     x="546.78"
     font-family="Arial"
     text-anchor="middle"
     id="text214" />
  <text
     font-size="129.23"
     y="166.55"
     x="1984.54"
     font-family="'Gentium Book Basic'"
     line-height="125%"
     word-spacing="0"
     letter-spacing="0"
     id="text216">
    <tspan
       y="166.55"
       x="1984.54"
       id="tspan218" />
  </text>
  <text
     transform="scale(4.0128.2492)"
     font-size="46.954"
     y="319.16"
     x="691.63"
     font-family="Arial"
     text-anchor="middle"
     id="text220" />
  <text
     font-size="129.23"
     y="-14.715"
     x="912.96"
     font-family="'Gentium Book Basic'"
     line-height="125%"
     word-spacing="0"
     letter-spacing="0"
     id="text222">
    <tspan
       y="-14.715"
       x="912.96"
       id="tspan224" />
  </text>
  <text
     transform="scale(4.0128.2492)"
     font-size="46.954"
     y="-408.2"
     x="424.59"
     font-family="Arial"
     text-anchor="middle"
     id="text226" />
  <text
     font-size="129.23"
     y="-231.18"
     x="2011.01"
     font-family="'Gentium Book Basic'"
     line-height="125%"
     word-spacing="0"
     letter-spacing="0"
     id="text228">
    <tspan
       y="-231.18"
       x="2011.01"
       id="tspan230" />
  </text>
  <text
     transform="scale(4.0128.2492)"
     font-size="46.954"
     y="-1276.86"
     x="698.23"
     font-family="Arial"
     text-anchor="middle"
     id="text232" />
  <text
     font-size="129.23"
     y="-311.19"
     x="2592.28"
     font-family="'Gentium Book Basic'"
     line-height="125%"
     word-spacing="0"
     letter-spacing="0"
     id="text234">
    <tspan
       y="-311.19"
       x="2592.28"
       id="tspan236" />
  </text>
  <text
     transform="scale(4.0128.2492)"
     font-size="46.954"
     y="-1597.9"
     x="843.08"
     font-family="Arial"
     text-anchor="middle"
     id="text238" />
  <text
     font-size="129.23"
     y="-783.59"
     x="2203.16"
     font-family="'Gentium Book Basic'"
     line-height="125%"
     word-spacing="0"
     letter-spacing="0"
     id="text240">
    <tspan
       y="-783.59"
       x="2203.16"
       id="tspan242" />
  </text>
  <text
     transform="scale(4.0128.2492)"
     font-size="46.954"
     y="-3493.55"
     x="746.11"
     font-family="Arial"
     text-anchor="middle"
     id="text244" />
  <text
     font-size="129.23"
     y="-863.59"
     x="2784.42"
     font-family="'Gentium Book Basic'"
     line-height="125%"
     word-spacing="0"
     letter-spacing="0"
     id="text246">
    <tspan
       y="-863.59"
       x="2784.42"
       id="tspan248" />
  </text>
  <text
     transform="scale(4.0128.2492)"
     font-size="46.954"
     y="-3814.58"
     x="890.96"
     font-family="Arial"
     text-anchor="middle"
     id="text250" />
  <g
     font-family="'Gentium Book Basic'"
     line-height="125%"
     word-spacing="0"
     letter-spacing="0"
     id="g252">
    <text
       y="551.13"
       x="951.62"
       font-size="208.33"
       id="text254">
      <tspan
         y="551.13"
         x="951.62"
         id="tspan256" />
    </text>
    <text
       y="246.55"
       x="1403.27"
       font-size="129.23"
       id="text258">
      <tspan
         y="246.55"
         x="1403.27"
         id="tspan260" />
    </text>
  </g>
  <text
     transform="scale(4.0128.2492)"
     font-size="46.954"
     y="640.19"
     x="546.78"
     font-family="Arial"
     text-anchor="middle"
     id="text262" />
  <text
     font-size="129.23"
     y="166.55"
     x="1984.54"
     font-family="'Gentium Book Basic'"
     line-height="125%"
     word-spacing="0"
     letter-spacing="0"
     id="text264">
    <tspan
       y="166.55"
       x="1984.54"
       id="tspan266" />
  </text>
  <text
     transform="scale(4.0128.2492)"
     font-size="46.954"
     y="319.16"
     x="691.63"
     font-family="Arial"
     text-anchor="middle"
     id="text268" />
  <text
     font-size="129.23"
     y="-14.715"
     x="912.96"
     font-family="'Gentium Book Basic'"
     line-height="125%"
     word-spacing="0"
     letter-spacing="0"
     id="text270">
    <tspan
       y="-14.715"
       x="912.96"
       id="tspan272" />
  </text>
  <text
     transform="scale(4.0128.2492)"
     font-size="46.954"
     y="-408.2"
     x="424.59"
     font-family="Arial"
     text-anchor="middle"
     id="text274" />
  <text
     font-size="129.23"
     y="-231.18"
     x="2011.01"
     font-family="'Gentium Book Basic'"
     line-height="125%"
     word-spacing="0"
     letter-spacing="0"
     id="text276">
    <tspan
       y="-231.18"
       x="2011.01"
       id="tspan278" />
  </text>
  <text
     transform="scale(4.0128.2492)"
     font-size="46.954"
     y="-1276.85"
     x="698.23"
     font-family="Arial"
     text-anchor="middle"
     id="text280" />
  <text
     font-size="129.23"
     y="-311.19"
     x="2592.28"
     font-family="'Gentium Book Basic'"
     line-height="125%"
     word-spacing="0"
     letter-spacing="0"
     id="text282">
    <tspan
       y="-311.19"
       x="2592.28"
       id="tspan284" />
  </text>
  <text
     transform="scale(4.0128.2492)"
     font-size="46.954"
     y="-1597.89"
     x="843.08"
     font-family="Arial"
     text-anchor="middle"
     id="text286" />
  <text
     font-size="129.23"
     y="-783.59"
     x="2203.16"
     font-family="'Gentium Book Basic'"
     line-height="125%"
     word-spacing="0"
     letter-spacing="0"
     id="text288">
    <tspan
       y="-783.59"
       x="2203.16"
       id="tspan290" />
  </text>
  <text
     transform="scale(4.0128.2492)"
     font-size="46.954"
     y="-3493.53"
     x="746.11"
     font-family="Arial"
     text-anchor="middle"
     id="text292" />
  <text
     font-size="129.23"
     y="-863.59"
     x="2784.42"
     font-family="'Gentium Book Basic'"
     line-height="125%"
     word-spacing="0"
     letter-spacing="0"
     id="text294">
    <tspan
       y="-863.59"
       x="2784.42"
       id="tspan296" />
  </text>
  <text
     transform="scale(4.0128.2492)"
     font-size="46.954"
     y="-3814.56"
     x="890.96"
     font-family="Arial"
     text-anchor="middle"
     id="text298" />
  <g
     font-family="'Gentium Book Basic'"
     line-height="125%"
     font-size="208.33"
     word-spacing="0"
     letter-spacing="0"
     id="g300">
    <text
       y="551.13"
       x="951.62"
       id="text302">
      <tspan
         y="551.13"
         x="951.62"
         id="tspan304" />
    </text>
    <text
       y="46.35"
       x="-1154.36"
       id="text306">
      <tspan
         y="46.35"
         x="-1154.36"
         id="tspan308" />
    </text>
  </g>
  <text
     transform="scale(4.0128.2492)"
     font-size="75.7"
     y="-376.91"
     x="30.06"
     font-family="Arial"
     text-anchor="middle"
     id="text310" />
  <path
     style="opacity:0.25;fill-rule:evenodd"
     inkscape:connector-curvature="0"
     id="path314"
     d="m 144.53,98.17 0,315.66 50.27,50.27 c 18.547,5.107 38.08,7.848 58.25,7.848 100.91,0 185.87,-68.29 211.2,-161.19 l -212.59,-212.59 -107.12,0" />
  <path
     style="opacity:0.99999999;fill:#ffffff;fill-rule:evenodd"
     inkscape:connector-curvature="0"
     id="path316"
     d="m 144.53,98.17 0,315.66 107.13,0 0,-315.66 -107.12,0" />
</svg>
