<?xml version="1.0" encoding="UTF-8" standalone="no"?>
<svg xmlns="http://www.w3.org/2000/svg" viewBox="0 0 512 512">
 <text font-size="129.23" y="231.36" x="729.64" font-family="Gentium Book Basic" line-height="125%" word-spacing="0" letter-spacing="0"><tspan y="231.36" x="729.64"/>
 </text>
 <text transform="scale(4.0128.2492)" font-size="46.954" y="579.26" x="378.91" font-family="Arial" text-anchor="middle"/>
 <text font-size="129.23" y="151.36" x="1310.91" font-family="Gentium Book Basic" line-height="125%" word-spacing="0" letter-spacing="0"><tspan y="151.36" x="1310.91"/>
 </text>
 <text transform="scale(4.0128.2492)" font-size="46.954" y="258.22" x="523.76" font-family="Arial" text-anchor="middle"/>
 <text font-size="129.23" y="-29.9" x="239.33" font-family="Gentium Book Basic" line-height="125%" word-spacing="0" letter-spacing="0"><tspan y="-29.9" x="239.33"/>
 </text>
 <text transform="scale(4.0128.2492)" font-size="46.954" y="-469.13" x="256.72" font-family="Arial" text-anchor="middle"/>
 <text font-size="129.23" y="-246.37" x="1337.38" font-family="Gentium Book Basic" line-height="125%" word-spacing="0" letter-spacing="0"><tspan y="-246.37" x="1337.38"/>
 </text>
 <text transform="scale(4.0128.2492)" font-size="46.954" y="-1337.8" x="530.36" font-family="Arial" text-anchor="middle"/>
 <text font-size="129.23" y="-326.37" x="1918.65" font-family="Gentium Book Basic" line-height="125%" word-spacing="0" letter-spacing="0"><tspan y="-326.37" x="1918.65"/>
 </text>
 <text transform="scale(4.0128.2492)" font-size="46.954" y="-1658.83" x="675.21" font-family="Arial" text-anchor="middle"/>
 <text font-size="129.23" y="-798.77" x="1529.53" font-family="Gentium Book Basic" line-height="125%" word-spacing="0" letter-spacing="0"><tspan y="-798.77" x="1529.53"/>
 </text>
 <text transform="scale(4.0128.2492)" font-size="46.954" y="-3554.48" x="578.24" font-family="Arial" text-anchor="middle"/>
 <text font-size="129.23" y="-878.78" x="2110.79" font-family="Gentium Book Basic" line-height="125%" word-spacing="0" letter-spacing="0"><tspan y="-878.78" x="2110.79"/>
 </text>
 <text transform="scale(4.0128.2492)" font-size="46.954" y="-3875.52" x="723.09" font-family="Arial" text-anchor="middle"/>
 <g line-height="125%" word-spacing="0" letter-spacing="0">
  <text y="535.94" x="277.99" font-size="208.33" font-family="Gentium Book Basic"><tspan y="535.94" x="277.99"/>
  </text>
  <text y="231.36" x="729.64" font-size="129.23" font-family="&apos;Gentium Book Basic&apos;"><tspan y="231.36" x="729.64"/>
  </text>
 </g>
 <text transform="scale(4.0128.2492)" font-size="46.954" y="579.25" x="378.91" font-family="Arial" text-anchor="middle"/>
 <text font-size="129.23" y="151.36" x="1310.91" font-family="&apos;Gentium Book Basic&apos;" line-height="125%" word-spacing="0" letter-spacing="0"><tspan y="151.36" x="1310.91"/>
 </text>
 <text transform="scale(4.0128.2492)" font-size="46.954" y="258.22" x="523.76" font-family="Arial" text-anchor="middle"/>
 <text font-size="129.23" y="-29.901" x="239.33" font-family="&apos;Gentium Book Basic&apos;" line-height="125%" word-spacing="0" letter-spacing="0"><tspan y="-29.901" x="239.33"/>
 </text>
 <text transform="scale(4.0128.2492)" font-size="46.954" y="-469.14" x="256.72" font-family="Arial" text-anchor="middle"/>
 <text font-size="129.23" y="-246.37" x="1337.38" font-family="&apos;Gentium Book Basic&apos;" line-height="125%" word-spacing="0" letter-spacing="0"><tspan y="-246.37" x="1337.38"/>
 </text>
 <text transform="scale(4.0128.2492)" font-size="46.954" y="-1337.8" x="530.36" font-family="Arial" text-anchor="middle"/>
 <text font-size="129.23" y="-326.38" x="1918.65" font-family="&apos;Gentium Book Basic&apos;" line-height="125%" word-spacing="0" letter-spacing="0"><tspan y="-326.38" x="1918.65"/>
 </text>
 <text transform="scale(4.0128.2492)" font-size="46.954" y="-1658.84" x="675.21" font-family="Arial" text-anchor="middle"/>
 <text font-size="129.23" y="-798.78" x="1529.53" font-family="&apos;Gentium Book Basic&apos;" line-height="125%" word-spacing="0" letter-spacing="0"><tspan y="-798.78" x="1529.53"/>
 </text>
 <text transform="scale(4.0128.2492)" font-size="46.954" y="-3554.49" x="578.24" font-family="Arial" text-anchor="middle"/>
 <text font-size="129.23" y="-878.78" x="2110.79" font-family="&apos;Gentium Book Basic&apos;" line-height="125%" word-spacing="0" letter-spacing="0"><tspan y="-878.78" x="2110.79"/>
 </text>
 <text transform="scale(4.0128.2492)" font-size="46.954" y="-3875.52" x="723.09" font-family="Arial" text-anchor="middle"/>
 <g font-family="&apos;Gentium Book Basic&apos;" line-height="125%" word-spacing="0" letter-spacing="0">
  <text y="535.94" x="277.99" font-size="208.33"><tspan y="535.94" x="277.99"/>
  </text>
  <text y="270.87" x="-1745.96" font-size="129.23"><tspan y="270.87" x="-1745.96"/>
  </text>
 </g>
 <text transform="scale(4.0128.2492)" font-size="46.954" y="737.79" x="-238.01" font-family="Arial" text-anchor="middle"/>
 <text font-size="129.23" y="190.87" x="-1164.69" font-family="&apos;Gentium Book Basic&apos;" line-height="125%" word-spacing="0" letter-spacing="0"><tspan y="190.87" x="-1164.69"/>
 </text>
 <text transform="scale(4.0128.2492)" font-size="46.954" y="416.76" x="-93.17" font-family="Arial" text-anchor="middle"/>
 <text font-size="129.23" y="9.608" x="-2236.27" font-family="&apos;Gentium Book Basic&apos;" line-height="125%" word-spacing="0" letter-spacing="0"><tspan y="9.608" x="-2236.27"/>
 </text>
 <text transform="scale(4.0128.2492)" font-size="46.954" y="-310.6" x="-360.2" font-family="Arial" text-anchor="middle"/>
 <text font-size="129.23" y="-206.86" x="-1138.22" font-family="&apos;Gentium Book Basic&apos;" line-height="125%" word-spacing="0" letter-spacing="0"><tspan y="-206.86" x="-1138.22"/>
 </text>
 <text transform="scale(4.0128.2492)" font-size="46.954" y="-1179.26" x="-86.57" font-family="Arial" text-anchor="middle"/>
 <text font-size="129.23" y="-286.87" x="-556.95" font-family="&apos;Gentium Book Basic&apos;" line-height="125%" word-spacing="0" letter-spacing="0"><tspan y="-286.87" x="-556.95"/>
 </text>
 <text transform="scale(4.0128.2492)" font-size="46.954" y="-1500.3" x="58.28" font-family="Arial" text-anchor="middle"/>
 <text font-size="129.23" y="-759.27" x="-946.07" font-family="&apos;Gentium Book Basic&apos;" line-height="125%" word-spacing="0" letter-spacing="0"><tspan y="-759.27" x="-946.07"/>
 </text>
 <text transform="scale(4.0128.2492)" font-size="46.954" y="-3395.95" x="-38.686" font-family="Arial" text-anchor="middle"/>
 <text font-size="129.23" y="-839.27" x="-364.81" font-family="&apos;Gentium Book Basic&apos;" line-height="125%" word-spacing="0" letter-spacing="0"><tspan y="-839.27" x="-364.81"/>
 </text>
 <text transform="scale(4.0128.2492)" font-size="46.954" y="-3716.98" x="106.16" font-family="Arial" text-anchor="middle"/>
 <g font-family="&apos;Gentium Book Basic&apos;" line-height="125%" word-spacing="0" letter-spacing="0">
  <text y="575.45" x="-2197.61" font-size="208.33"><tspan y="575.45" x="-2197.61"/>
  </text>
  <text y="525.1" x="-1144.61" font-size="129.23"><tspan y="525.1" x="-1144.61"/>
  </text>
 </g>
 <text transform="scale(4.0128.2492)" font-size="46.954" y="1757.96" x="-88.16" font-family="Arial" text-anchor="middle"/>
 <text font-size="129.23" y="445.1" x="-563.34" font-family="&apos;Gentium Book Basic&apos;" line-height="125%" word-spacing="0" letter-spacing="0"><tspan y="445.1" x="-563.34"/>
 </text>
 <text transform="scale(4.0128.2492)" font-size="46.954" y="1436.93" x="56.693" font-family="Arial" text-anchor="middle"/>
 <text font-size="129.23" y="263.84" x="-1634.92" font-family="&apos;Gentium Book Basic&apos;" line-height="125%" word-spacing="0" letter-spacing="0"><tspan y="263.84" x="-1634.92"/>
 </text>
 <text transform="scale(4.0128.2492)" font-size="46.954" y="709.58" x="-210.35" font-family="Arial" text-anchor="middle"/>
 <text font-size="129.23" y="47.37" x="-536.87" font-family="&apos;Gentium Book Basic&apos;" line-height="125%" word-spacing="0" letter-spacing="0"><tspan y="47.37" x="-536.87"/>
 </text>
 <text transform="scale(4.0128.2492)" font-size="46.954" y="-159.09" x="63.29" font-family="Arial" text-anchor="middle"/>
 <text font-size="129.23" y="-32.643" x="44.4" font-family="&apos;Gentium Book Basic&apos;" line-height="125%" word-spacing="0" letter-spacing="0"><tspan y="-32.643" x="44.4"/>
 </text>
 <text transform="scale(4.0128.2492)" font-size="46.954" y="-480.13" x="208.14" font-family="Arial" text-anchor="middle"/>
 <text font-size="129.23" y="-505.04" x="-344.72" font-family="&apos;Gentium Book Basic&apos;" line-height="125%" word-spacing="0" letter-spacing="0"><tspan y="-505.04" x="-344.72"/>
 </text>
 <text transform="scale(4.0128.2492)" font-size="46.954" y="-2375.78" x="111.17" font-family="Arial" text-anchor="middle"/>
 <text font-size="129.23" y="-585.04" x="236.54" font-family="&apos;Gentium Book Basic&apos;" line-height="125%" word-spacing="0" letter-spacing="0"><tspan y="-585.04" x="236.54"/>
 </text>
 <text transform="scale(4.0128.2492)" font-size="46.954" y="-2696.8" x="256.02" font-family="Arial" text-anchor="middle"/>
 <g font-family="&apos;Gentium Book Basic&apos;" line-height="125%" word-spacing="0" letter-spacing="0">
  <text y="829.68" x="-1596.26" font-size="208.33"><tspan y="829.68" x="-1596.26"/>
  </text>
  <text y="246.55" x="1403.27" font-size="129.23"><tspan y="246.55" x="1403.27"/>
  </text>
 </g>
 <text transform="scale(4.0128.2492)" font-size="46.954" y="640.19" x="546.78" font-family="Arial" text-anchor="middle"/>
 <text font-size="129.23" y="166.55" x="1984.54" font-family="&apos;Gentium Book Basic&apos;" line-height="125%" word-spacing="0" letter-spacing="0"><tspan y="166.55" x="1984.54"/>
 </text>
 <text transform="scale(4.0128.2492)" font-size="46.954" y="319.16" x="691.63" font-family="Arial" text-anchor="middle"/>
 <text font-size="129.23" y="-14.715" x="912.96" font-family="&apos;Gentium Book Basic&apos;" line-height="125%" word-spacing="0" letter-spacing="0"><tspan y="-14.715" x="912.96"/>
 </text>
 <text transform="scale(4.0128.2492)" font-size="46.954" y="-408.2" x="424.59" font-family="Arial" text-anchor="middle"/>
 <text font-size="129.23" y="-231.18" x="2011.01" font-family="&apos;Gentium Book Basic&apos;" line-height="125%" word-spacing="0" letter-spacing="0"><tspan y="-231.18" x="2011.01"/>
 </text>
 <text transform="scale(4.0128.2492)" font-size="46.954" y="-1276.86" x="698.23" font-family="Arial" text-anchor="middle"/>
 <text font-size="129.23" y="-311.19" x="2592.28" font-family="&apos;Gentium Book Basic&apos;" line-height="125%" word-spacing="0" letter-spacing="0"><tspan y="-311.19" x="2592.28"/>
 </text>
 <text transform="scale(4.0128.2492)" font-size="46.954" y="-1597.9" x="843.08" font-family="Arial" text-anchor="middle"/>
 <text font-size="129.23" y="-783.59" x="2203.16" font-family="&apos;Gentium Book Basic&apos;" line-height="125%" word-spacing="0" letter-spacing="0"><tspan y="-783.59" x="2203.16"/>
 </text>
 <text transform="scale(4.0128.2492)" font-size="46.954" y="-3493.55" x="746.11" font-family="Arial" text-anchor="middle"/>
 <text font-size="129.23" y="-863.59" x="2784.42" font-family="&apos;Gentium Book Basic&apos;" line-height="125%" word-spacing="0" letter-spacing="0"><tspan y="-863.59" x="2784.42"/>
 </text>
 <text transform="scale(4.0128.2492)" font-size="46.954" y="-3814.58" x="890.96" font-family="Arial" text-anchor="middle"/>
 <g font-family="&apos;Gentium Book Basic&apos;" line-height="125%" word-spacing="0" letter-spacing="0">
  <text y="551.13" x="951.62" font-size="208.33"><tspan y="551.13" x="951.62"/>
  </text>
  <text y="246.55" x="1403.27" font-size="129.23"><tspan y="246.55" x="1403.27"/>
  </text>
 </g>
 <text transform="scale(4.0128.2492)" font-size="46.954" y="640.19" x="546.78" font-family="Arial" text-anchor="middle"/>
 <text font-size="129.23" y="166.55" x="1984.54" font-family="&apos;Gentium Book Basic&apos;" line-height="125%" word-spacing="0" letter-spacing="0"><tspan y="166.55" x="1984.54"/>
 </text>
 <text transform="scale(4.0128.2492)" font-size="46.954" y="319.16" x="691.63" font-family="Arial" text-anchor="middle"/>
 <text font-size="129.23" y="-14.715" x="912.96" font-family="&apos;Gentium Book Basic&apos;" line-height="125%" word-spacing="0" letter-spacing="0"><tspan y="-14.715" x="912.96"/>
 </text>
 <text transform="scale(4.0128.2492)" font-size="46.954" y="-408.2" x="424.59" font-family="Arial" text-anchor="middle"/>
 <text font-size="129.23" y="-231.18" x="2011.01" font-family="&apos;Gentium Book Basic&apos;" line-height="125%" word-spacing="0" letter-spacing="0"><tspan y="-231.18" x="2011.01"/>
 </text>
 <text transform="scale(4.0128.2492)" font-size="46.954" y="-1276.85" x="698.23" font-family="Arial" text-anchor="middle"/>
 <text font-size="129.23" y="-311.19" x="2592.28" font-family="&apos;Gentium Book Basic&apos;" line-height="125%" word-spacing="0" letter-spacing="0"><tspan y="-311.19" x="2592.28"/>
 </text>
 <text transform="scale(4.0128.2492)" font-size="46.954" y="-1597.89" x="843.08" font-family="Arial" text-anchor="middle"/>
 <text font-size="129.23" y="-783.59" x="2203.16" font-family="&apos;Gentium Book Basic&apos;" line-height="125%" word-spacing="0" letter-spacing="0"><tspan y="-783.59" x="2203.16"/>
 </text>
 <text transform="scale(4.0128.2492)" font-size="46.954" y="-3493.53" x="746.11" font-family="Arial" text-anchor="middle"/>
 <text font-size="129.23" y="-863.59" x="2784.42" font-family="&apos;Gentium Book Basic&apos;" line-height="125%" word-spacing="0" letter-spacing="0"><tspan y="-863.59" x="2784.42"/>
 </text>
 <text transform="scale(4.0128.2492)" font-size="46.954" y="-3814.56" x="890.96" font-family="Arial" text-anchor="middle"/>
 <g font-family="&apos;Gentium Book Basic&apos;" line-height="125%" font-size="208.33" word-spacing="0" letter-spacing="0">
  <text y="551.13" x="951.62"><tspan y="551.13" x="951.62"/>
  </text>
  <text y="46.35" x="-1154.36"><tspan y="46.35" x="-1154.36"/>
  </text>
 </g>
 <text transform="scale(4.0128.2492)" font-size="75.7" y="-376.91" x="30.06" font-family="Arial" text-anchor="middle"/>
 <g fill-rule="evenodd">
  <path d="m471.95 253.05c0 120.9-98.01 218.91-218.91 218.91s-218.91-98.01-218.91-218.91 98.01-218.91 218.91-218.91 218.91 98.01 218.91 218.91" fill="#BF9E73"/>
  <path d="m256 1c-140.83 0-255 114.17-255 255s114.17 255 255 255 255-114.17 255-255-114.17-255-255-255m8.827 44.931c120.9 0 218.9 98 218.9 218.9s-98 218.9-218.9 218.9-218.93-98-218.93-218.9 98.03-218.9 218.93-218.9" fill-opacity="0.067"/>
  <g transform="translate(0-540.36)" fill-opacity="0.129">
   <path d="m256 544.79c-138.94 0-251.57 112.63-251.57 251.57s112.63 251.57 251.57 251.57 251.57-112.63 251.57-251.57-112.63-251.57-251.57-251.57m5.885 38.556c120.9 0 218.9 98 218.9 218.9s-98 218.9-218.9 218.9-218.93-98-218.93-218.9 98.03-218.9 218.93-218.9"/>
   <path d="m256 548.72c-136.77 0-247.64 110.87-247.64 247.64s110.87 247.64 247.64 247.64 247.64-110.87 247.64-247.64-110.87-247.64-247.64-247.64m2.942 31.691c120.9 0 218.9 98 218.9 218.9s-98 218.9-218.9 218.9-218.93-98-218.93-218.9 98.03-218.9 218.93-218.9"/>
  </g>
  <path stroke="#000" stroke-width="4.904" d="m253.04 7.86c-135.42 0-245.19 109.78-245.19 245.19 0 135.42 109.78 245.19 245.19 245.19 135.42 0 245.19-109.78 245.19-245.19 0-135.42-109.78-245.19-245.19-245.19m0 26.297c120.9 0 218.9 98 218.9 218.9s-98 218.9-218.9 218.9-218.93-98-218.93-218.9 98.03-218.9 218.93-218.9z" stroke-opacity="0.31" fill="#fff"/>
 </g>
 <text font-size="129.23" y="231.36" x="729.64" font-family="&apos;Gentium Book Basic&apos;" line-height="125%" word-spacing="0" letter-spacing="0"><tspan y="231.36" x="729.64"/>
 </text>
 <text transform="scale(4.0128.2492)" font-size="46.954" y="579.26" x="378.91" font-family="Arial" text-anchor="middle"/>
 <text font-size="129.23" y="151.36" x="1310.91" font-family="&apos;Gentium Book Basic&apos;" line-height="125%" word-spacing="0" letter-spacing="0"><tspan y="151.36" x="1310.91"/>
 </text>
 <text transform="scale(4.0128.2492)" font-size="46.954" y="258.22" x="523.76" font-family="Arial" text-anchor="middle"/>
 <text font-size="129.23" y="-29.9" x="239.33" font-family="&apos;Gentium Book Basic&apos;" line-height="125%" word-spacing="0" letter-spacing="0"><tspan y="-29.9" x="239.33"/>
 </text>
 <text transform="scale(4.0128.2492)" font-size="46.954" y="-469.13" x="256.72" font-family="Arial" text-anchor="middle"/>
 <text font-size="129.23" y="-246.37" x="1337.38" font-family="&apos;Gentium Book Basic&apos;" line-height="125%" word-spacing="0" letter-spacing="0"><tspan y="-246.37" x="1337.38"/>
 </text>
 <text transform="scale(4.0128.2492)" font-size="46.954" y="-1337.79" x="530.36" font-family="Arial" text-anchor="middle"/>
 <text font-size="129.23" y="-326.37" x="1918.65" font-family="&apos;Gentium Book Basic&apos;" line-height="125%" word-spacing="0" letter-spacing="0"><tspan y="-326.37" x="1918.65"/>
 </text>
 <text transform="scale(4.0128.2492)" font-size="46.954" y="-1658.82" x="675.21" font-family="Arial" text-anchor="middle"/>
 <text font-size="129.23" y="-798.77" x="1529.53" font-family="&apos;Gentium Book Basic&apos;" line-height="125%" word-spacing="0" letter-spacing="0"><tspan y="-798.77" x="1529.53"/>
 </text>
 <text transform="scale(4.0128.2492)" font-size="46.954" y="-3554.46" x="578.24" font-family="Arial" text-anchor="middle"/>
 <text font-size="129.23" y="-878.78" x="2110.79" font-family="&apos;Gentium Book Basic&apos;" line-height="125%" word-spacing="0" letter-spacing="0"><tspan y="-878.78" x="2110.79"/>
 </text>
 <text transform="scale(4.0128.2492)" font-size="46.954" y="-3875.5" x="723.09" font-family="Arial" text-anchor="middle"/>
 <g font-family="&apos;Gentium Book Basic&apos;" line-height="125%" word-spacing="0" letter-spacing="0">
  <text y="535.94" x="277.99" font-size="208.33"><tspan y="535.94" x="277.99"/>
  </text>
  <text y="88.17" x="-179.38" font-size="129.23"><tspan y="88.17" x="-179.38"/>
  </text>
 </g>
 <text transform="scale(4.0128.2492)" font-size="46.954" y="4.666" x="152.38" font-family="Arial" text-anchor="middle"/>
 <text font-size="129.23" y="8.174" x="401.89" font-family="&apos;Gentium Book Basic&apos;" line-height="125%" word-spacing="0" letter-spacing="0"><tspan y="8.174" x="401.89"/>
 </text>
 <text transform="scale(4.0128.2492)" font-size="46.954" y="-316.36" x="297.23" font-family="Arial" text-anchor="middle"/>
 <text font-size="129.23" y="-173.09" x="-669.69" font-family="&apos;Gentium Book Basic&apos;" line-height="125%" word-spacing="0" letter-spacing="0"><tspan y="-173.09" x="-669.69"/>
 </text>
 <text transform="scale(4.0128.2492)" font-size="46.954" y="-1043.71" x="30.19" font-family="Arial" text-anchor="middle"/>
 <text font-size="129.23" y="-389.56" x="428.36" font-family="&apos;Gentium Book Basic&apos;" line-height="125%" word-spacing="0" letter-spacing="0"><tspan y="-389.56" x="428.36"/>
 </text>
 <text transform="scale(4.0128.2492)" font-size="46.954" y="-1912.37" x="303.83" font-family="Arial" text-anchor="middle"/>
 <text font-size="129.23" y="-469.57" x="1009.63" font-family="&apos;Gentium Book Basic&apos;" line-height="125%" word-spacing="0" letter-spacing="0"><tspan y="-469.57" x="1009.63"/>
 </text>
 <text transform="scale(4.0128.2492)" font-size="46.954" y="-2233.41" x="448.68" font-family="Arial" text-anchor="middle"/>
 <text font-size="129.23" y="-941.97" x="620.51" font-family="&apos;Gentium Book Basic&apos;" line-height="125%" word-spacing="0" letter-spacing="0"><tspan y="-941.97" x="620.51"/>
 </text>
 <text transform="scale(4.0128.2492)" font-size="46.954" y="-4129.05" x="351.71" font-family="Arial" text-anchor="middle"/>
 <text font-size="129.23" y="-1021.97" x="1201.77" font-family="&apos;Gentium Book Basic&apos;" line-height="125%" word-spacing="0" letter-spacing="0"><tspan y="-1021.97" x="1201.77"/>
 </text>
 <text transform="scale(4.0128.2492)" font-size="46.954" y="-4450.08" x="496.56" font-family="Arial" text-anchor="middle"/>
 <text font-size="208.33" y="392.75" x="-631.03" font-family="&apos;Gentium Book Basic&apos;" line-height="125%" word-spacing="0" letter-spacing="0"><tspan y="392.75" x="-631.03"/>
 </text>
 <path opacity="0.25" d="m126.81 109.53c-0.403 0-0.81 0.153-1.094 0.438l-11.375 11.406c-0.596 0.596-0.596 1.559 0 2.156l15.813 15.844-4.375 4.406c-0.993 0.993-1.165 2.518-0.438 3.719l27.969 46.09c-4.666 8.01-8.396 16.54-11.09 25.5l-51.53 10.75c-1.411 0.294-2.406 1.527-2.406 2.969v33.31c0 0.827 0.331 1.584 0.881 2.135l54.938 54.938-20.787 31.709c-0.789 1.208-0.611 2.821 0.406 3.844l112.58 112.58c5.526 0.418 11.11 0.633 16.742 0.633 93.92 0 174.02-59.16 205.09-142.24l-139.72-139.72c-15.769-15.769-37.509-25.561-61.51-25.561-5.5 0-10.886 0.527-16.12 1.523l-23.883-23.883c-0.091-0.091-0.196-0.17-0.314-0.234-0.388-0.208-0.869-0.272-1.281-0.125-5.936 2.146-11.593 4.754-17 7.75-0.075-0.057-0.14-0.14-0.219-0.188l-44.969-29.438c-1.208-0.791-2.79-0.645-3.813 0.375l-5.594 5.594-15.844-15.844c-0.286-0.286-0.656-0.438-1.063-0.438"/>
 <path d="m126.81 109.53c-0.403 0-0.81 0.153-1.094 0.438l-11.375 11.406c-0.596 0.596-0.596 1.559 0 2.156l15.813 15.844-4.375 4.406c-0.993 0.993-1.165 2.518-0.438 3.719l27.969 46.09c-4.666 8.01-8.396 16.54-11.09 25.5l-51.53 10.75c-1.411 0.294-2.406 1.527-2.406 2.969v33.31c0 1.403 0.95 2.604 2.313 2.938l50.06 12.25c2.566 10.424 6.497 20.272 11.625 29.406l-28.969 44.19c-0.789 1.208-0.611 2.821 0.406 3.844l23.531 23.531c0.993 0.995 2.52 1.196 3.719 0.469l45.19-27.438c8.532 4.97 17.732 8.9 27.438 11.625l10.5 50.44c0.292 1.417 1.527 2.438 2.969 2.438h33.28c1.403 0 2.636-0.986 2.969-2.344l12.219-50.03c10.289-2.717 20.11-6.787 29.22-12.06l43.656 28.625c1.205 0.793 2.819 0.647 3.844-0.375l6.094-6.094 15.344 15.344c0.601 0.598 1.56 0.598 2.156 0l11.406-11.375c0.594-0.594 0.594-1.56 0-2.156l-15.375-15.375 3.906-3.906c0.993-0.995 1.17-2.525 0.438-3.719l-27.5-45.34c3.059-5.423 5.684-11.11 7.875-17.06 0.147-0.399 0.162-0.874-0.031-1.25-0.197-0.38-0.554-0.635-0.969-0.75l-14.25-3.938c-14.518 38.23-51.33 65.47-94.44 65.47-55.42 0-101.06-45.627-101.06-101.66 0-42.796 27.02-79.7 64.69-94.47l-3.219-14.5c-0.093-0.428-0.335-0.79-0.719-1-0.388-0.208-0.869-0.272-1.281-0.125-5.936 2.146-11.593 4.754-17 7.75-0.075-0.057-0.14-0.14-0.219-0.188l-44.969-29.438c-1.208-0.791-2.79-0.645-3.813 0.375l-5.594 5.594-15.844-15.844c-0.286-0.286-0.656-0.438-1.063-0.438m130.09 54.906c-47.791 0-87.16 39.4-87.16 87.41 0 48.32 39.36 87.69 87.16 87.69 48.13 0 87.19-39.37 87.19-87.69 0-48.01-39.05-87.41-87.19-87.41m-31.156 43.781a7.4505 7.5521 0 0 1 0.53125 0 7.4505 7.5521 0 0 1 3.5625 0.96875l31.13 17.75a7.4505 7.5521 0 0 1 0.15625 0.0937l30.75 18.438a7.4505 7.5521 0 0 1 0 13.031l-30.75 18.438a7.4505 7.5521 0 0 1 -0.15625 0.0937l-31.12 17.75a7.4505 7.5521 0 0 1 -11.094 -6.5l-0.438-36.22a7.4505 7.5521 0 0 1 0 -0.15625l0.438-36.22a7.4505 7.5521 0 0 1 7 -7.4688" fill="#fff"/>
</svg>
