<?xml version="1.0" encoding="UTF-8" standalone="no"?>
<svg xmlns="http://www.w3.org/2000/svg" viewBox="0 0 512 512">
 <g fill-rule="evenodd">
  <path d="m471.93 253.06c0 120.9-98.01 218.9-218.9 218.9-120.9 0-218.9-98.01-218.9-218.9 0-120.9 98.01-218.9 218.9-218.9 120.9 0 218.9 98.01 218.9 218.9" fill="#BF9E73"/>
  <g transform="matrix(3.5433 0 0 3.5433 -.004 0)">
   <path d="m72.25 0.282c-39.746 0-71.967 32.22-71.967 71.967 0 39.746 32.22 71.967 71.967 71.967 39.746 0 71.967-32.22 71.967-71.967 0-39.746-32.22-71.967-71.967-71.967m2.491 12.681c34.12 0 61.777 27.657 61.777 61.777s-27.657 61.777-61.777 61.777-61.786-27.657-61.786-61.777 27.666-61.777 61.786-61.777" fill-opacity="0.067"/>
   <g fill-opacity="0.129">
    <path d="m72.25 1.251c-39.21 0-70.998 31.787-70.998 70.998 0 39.21 31.787 70.998 70.998 70.998 39.21 0 70.998-31.787 70.998-70.998 0-39.21-31.787-70.998-70.998-70.998m1.661 10.881c34.12 0 61.777 27.657 61.777 61.777s-27.657 61.777-61.777 61.777-61.786-27.657-61.786-61.777 27.666-61.777 61.786-61.777"/>
    <path d="m72.25 2.358c-38.6 0-69.891 31.29-69.891 69.891 0 38.6 31.29 69.891 69.891 69.891 38.6 0 69.891-31.29 69.891-69.891 0-38.6-31.29-69.891-69.891-69.891m0.83 8.944c34.12 0 61.777 27.657 61.777 61.777s-27.657 61.777-61.777 61.777-61.786-27.657-61.786-61.777 27.666-61.777 61.786-61.777"/>
   </g>
   <path stroke="#000" stroke-width="1.384" d="m71.41 2.218c-38.22 0-69.2 30.981-69.2 69.2 0 38.22 30.981 69.2 69.2 69.2 38.22 0 69.2-30.981 69.2-69.2 0-38.22-30.981-69.2-69.2-69.2zm0 7.422c34.12 0 61.777 27.657 61.777 61.777s-27.657 61.777-61.777 61.777-61.786-27.657-61.786-61.777 27.666-61.777 61.786-61.777" stroke-opacity="0.31" fill="#fff"/>
  </g>
 </g>
 <text font-size="129.22" y="231.34" x="729.63" font-family="&apos;Gentium Book Basic&apos;" line-height="125%" word-spacing="0" letter-spacing="0"><tspan y="231.34" x="729.63"/>
 </text>
 <text transform="scale(4.0128.2492)" font-size="46.952" y="579.26" x="378.92" font-family="Arial" text-anchor="middle"/>
 <text font-size="129.22" y="151.36" x="1310.91" font-family="&apos;Gentium Book Basic&apos;" line-height="125%" word-spacing="0" letter-spacing="0"><tspan y="151.36" x="1310.91"/>
 </text>
 <text transform="scale(4.0128.2492)" font-size="46.952" y="258.22" x="523.77" font-family="Arial" text-anchor="middle"/>
 <text font-size="129.22" y="-29.902" x="239.31" font-family="&apos;Gentium Book Basic&apos;" line-height="125%" word-spacing="0" letter-spacing="0"><tspan y="-29.902" x="239.31"/>
 </text>
 <text transform="scale(4.0128.2492)" font-size="46.952" y="-469.13" x="256.71" font-family="Arial" text-anchor="middle"/>
 <text font-size="129.22" y="-246.37" x="1337.38" font-family="&apos;Gentium Book Basic&apos;" line-height="125%" word-spacing="0" letter-spacing="0"><tspan y="-246.37" x="1337.38"/>
 </text>
 <text transform="scale(4.0128.2492)" font-size="46.952" y="-1337.81" x="530.36" font-family="Arial" text-anchor="middle"/>
 <text font-size="129.22" y="-326.37" x="1918.66" font-family="&apos;Gentium Book Basic&apos;" line-height="125%" word-spacing="0" letter-spacing="0"><tspan y="-326.37" x="1918.66"/>
 </text>
 <text transform="scale(4.0128.2492)" font-size="46.952" y="-1658.83" x="675.21" font-family="Arial" text-anchor="middle"/>
 <text font-size="129.22" y="-798.77" x="1529.54" font-family="&apos;Gentium Book Basic&apos;" line-height="125%" word-spacing="0" letter-spacing="0"><tspan y="-798.77" x="1529.54"/>
 </text>
 <text transform="scale(4.0128.2492)" font-size="46.952" y="-3554.49" x="578.23" font-family="Arial" text-anchor="middle"/>
 <text font-size="129.22" y="-878.78" x="2110.78" font-family="&apos;Gentium Book Basic&apos;" line-height="125%" word-spacing="0" letter-spacing="0"><tspan y="-878.78" x="2110.78"/>
 </text>
 <text transform="scale(4.0128.2492)" font-size="46.952" y="-3875.51" x="723.08" font-family="Arial" text-anchor="middle"/>
 <text font-size="208.33" y="535.92" x="277.97" font-family="&apos;Gentium Book Basic&apos;" line-height="125%" word-spacing="0" letter-spacing="0"><tspan y="535.92" x="277.97"/>
 </text>
 <g fill-rule="evenodd">
  <path opacity="0.25" d="m245.19 97.19v34.34l-14.563-14.563h-95.59v21.656l29.22 29.22h-77.75v21.656l43.31 43.31v7.563l29.19 29.19h-6.781v21.656l41.844 41.844h-14.281v8.75l-8.75-8.75h-16.06l-10.924 13.201-13.201-13.201h-14.469v65.53l59.29 59.29c24.06 9.09 50.12 14.08 77.36 14.08 120.89 0 218.9-98 218.9-218.9 0-8.601-0.514-17.08-1.479-25.422l-110.67-110.67h-73.19l-19.781-19.781h-21.625"/>
  <path d="m245.19 97.19v207.59h21.625v-207.59h-21.625m-110.16 19.781v21.656h95.59v-21.656h-95.59m146.34 0v21.656h78.41v-21.656h-78.41m-194.87 50.875v21.656h144.13v-21.656h-144.12m194.88 0v21.656h100.84v-21.656h-100.84m-151.56 50.875v21.656h100.81v-21.656h-100.81m151.56 0v21.656h144.13v-21.656h-144.12m-129.16 50.844v21.656h78.41v-21.656h-78.41m129.16 0v21.656h95.59v-21.656h-95.59m17.75 58.781c-6.433 0-11.11 1.308-14.03 3.938-2.921 2.63-4.375 6.824-4.375 12.531v3.656l-7.844 3.688v6.594h7.844v39.844h14.219v-39.844h12.281v-10.281h-12.281v-3.125c0-1.793 0.442-3.271 1.344-4.406 0.901-1.165 2.355-1.75 4.375-1.75 2.424 0 5.078 0.446 7.938 1.313l3.625-10.03c-3.823-1.404-8.184-2.125-13.09-2.125m36.906 0c-6.433 0-11.11 1.308-14.03 3.938-2.921 2.63-4.375 6.824-4.375 12.531v3.656l-7.844 3.688v6.594h7.844v39.844h14.219v-39.844h12.313v-10.281h-12.313v-3.125c0-1.793 0.442-3.271 1.344-4.406 0.901-1.165 2.355-1.75 4.375-1.75 2.424 0 5.078 0.446 7.938 1.313l3.625-10.03c-3.823-1.404-8.184-2.125-13.09-2.125m-79.56 0.5c-5.159 0-7.75 2.235-7.75 6.688 0 4.482 2.591 6.719 7.75 6.719 2.579 0 4.507-0.585 5.781-1.75 1.305-1.195 1.969-2.847 1.969-4.969 0-4.452-2.591-6.687-7.75-6.688m112.69 3.281c-7.93 0.252-14.798 2.403-20.625 6.438l6.656 9.563c2.828-1.763 5.388-3 7.688-3.719 2.331-0.717 4.637-1.094 6.875-1.094 6.464 0 9.687 2.477 9.688 7.438 0 3.227-1.232 5.53-3.688 6.875-2.424 1.315-6.279 1.969-11.563 1.969h-5.25v10.625h5.156c5.718 0 9.889 0.653 12.5 1.938 2.61 1.285 3.906 3.453 3.906 6.531 0 3.436-1.138 5.915-3.406 7.469-2.269 1.554-5.776 2.344-10.531 2.344-3.108 0-6.236-0.412-9.406-1.219s-6.077-1.84-8.719-3.125v11.781c5.718 2.361 12.291 3.531 19.688 3.531 8.826 0 15.589-1.723 20.344-5.219 4.755-3.526 7.156-8.445 7.156-14.75 0-4.333-1.422-7.772-4.25-10.313-2.828-2.57-6.999-4.186-12.5-4.844v-0.281c4.662-1.076 8.296-3.038 10.875-5.906 2.579-2.869 3.875-6.344 3.875-10.438 0-4.901-2.054-8.72-6.156-11.469-4.071-2.749-9.633-4.125-16.688-4.125-0.538 0-1.096-0.017-1.625 0m-252.78 0.938v65.53h14.469v-23.406l6.094-4.219 17.844 27.625h16.438l-23.969-36.531 23.781-29h-16.06l-18.438 22.281-5.688 7.688v-29.969h-14.469m63.41 0v65.53h19.313c12.06 0 21.254-2.888 27.625-8.625 6.402-5.737 9.594-13.994 9.594-24.781 0-10.13-3.066-18.01-9.219-23.656-6.153-5.648-14.781-8.469-25.906-8.469h-21.406m14.438 11.375h7.719c12.928 0 19.375 7.05 19.375 21.13 0 14.373-6.952 21.563-20.875 21.563h-6.219v-42.688m55.13 4.03v50.13h14.219v-50.12h-14.219" fill="#fff"/>
 </g>
</svg>
