<?xml version="1.0" encoding="UTF-8" standalone="no"?>
<svg xmlns="http://www.w3.org/2000/svg" viewBox="0 0 512 512">
 <g fill-rule="evenodd">
  <path d="m471.93 253.06c0 120.9-98.01 218.9-218.9 218.9-120.9 0-218.9-98.01-218.9-218.9 0-120.9 98.01-218.9 218.9-218.9 120.9 0 218.9 98.01 218.9 218.9" fill="#BF9E73"/>
  <g transform="matrix(3.5433 0 0 3.5433 -.004 0)">
   <path d="m72.25 0.282c-39.746 0-71.967 32.22-71.967 71.967 0 39.746 32.22 71.967 71.967 71.967 39.746 0 71.967-32.22 71.967-71.967 0-39.746-32.22-71.967-71.967-71.967m2.491 12.681c34.12 0 61.777 27.657 61.777 61.777s-27.657 61.777-61.777 61.777-61.786-27.657-61.786-61.777 27.666-61.777 61.786-61.777" fill-opacity="0.067"/>
   <g fill-opacity="0.129">
    <path d="m72.25 1.251c-39.21 0-70.998 31.787-70.998 70.998 0 39.21 31.787 70.998 70.998 70.998 39.21 0 70.998-31.787 70.998-70.998 0-39.21-31.787-70.998-70.998-70.998m1.661 10.881c34.12 0 61.777 27.657 61.777 61.777s-27.657 61.777-61.777 61.777-61.786-27.657-61.786-61.777 27.666-61.777 61.786-61.777"/>
    <path d="m72.25 2.358c-38.6 0-69.891 31.29-69.891 69.891 0 38.6 31.29 69.891 69.891 69.891 38.6 0 69.891-31.29 69.891-69.891 0-38.6-31.29-69.891-69.891-69.891m0.83 8.944c34.12 0 61.777 27.657 61.777 61.777s-27.657 61.777-61.777 61.777-61.786-27.657-61.786-61.777 27.666-61.777 61.786-61.777"/>
   </g>
   <path stroke="#000" stroke-width="1.384" d="m71.41 2.218c-38.22 0-69.2 30.981-69.2 69.2 0 38.22 30.981 69.2 69.2 69.2 38.22 0 69.2-30.981 69.2-69.2 0-38.22-30.981-69.2-69.2-69.2zm0 7.422c34.12 0 61.777 27.657 61.777 61.777s-27.657 61.777-61.777 61.777-61.786-27.657-61.786-61.777 27.666-61.777 61.786-61.777" stroke-opacity="0.31" fill="#fff"/>
  </g>
 </g>
 <path opacity="0.25" d="m255.97 139.48c-82.84 0-149.97 17.962-149.97 40.13 0 3.597 1.769 7.083 5.086 10.4l25.977 25.977c-5.057-1.769-9.572-3.653-13.488-5.637l-17.23-17.23c-2.677 3.892-4.25 7.959-4.25 12.13v37.9c0 6.05 2.945 11.87 8.367 17.293l31.17 31.17c-10.538-4.058-19.292-8.677-25.842-13.715l-9.01-9.01h-0.031c-2.942 4.051-4.656 8.363-4.656 12.734v37.9c0 6.05 2.939 11.861 8.352 17.273l135.03 135.03c2.51 0.085 5.03 0.145 7.557 0.145 120.89 0 218.9-98 218.9-218.9 0-4.438-0.148-8.84-0.408-13.213l-70.64-70.64c-17.12-17.12-75.51-29.729-144.92-29.729"/>
 <path d="m255.97 139.48c-82.84 0-149.97 17.961-149.97 40.12 0 22.16 67.11 40.12 149.97 40.12 82.84 0 150-17.961 150-40.12 0-22.16-67.16-40.12-150-40.12m-149.62 53.634c-2.677 3.892-4.25 7.96-4.25 12.13v37.901c0 29.28 68.947 53.09 153.88 53.09 84.999 0 153.94-23.836 153.94-53.09v-37.901c0-4.168-1.582-8.236-4.219-12.13-2.942 21.448-68.779 38.608-149.72 38.608-80.945 0-146.64-17.16-149.62-38.608m0.406 75.77c-2.942 4.051-4.656 8.363-4.656 12.735v37.901c0 29.3 68.947 52.994 153.88 52.994 84.999 0 153.94-23.703 153.94-52.994v-37.901c0-4.37-1.78-8.681-4.688-12.735-16.523 23.18-76.956 40.36-149.25 40.36-72.24 0-132.69-17.199-149.19-40.36h-0.031" fill="#fff"/>
</svg>
