<?xml version="1.0" encoding="UTF-8" standalone="no"?>
<svg xmlns="http://www.w3.org/2000/svg" height="512" viewBox="0 0 512 512" width="512" version="1.1">
 <metadata id="metadata48"/>
 <path id="path4" d="m471.95 253.05c0 120.9-98.01 218.9-218.9 218.9-120.9 0-218.9-98.01-218.9-218.9 0-120.9 98.01-218.9 218.9-218.9 120.9 0 218.9 98.01 218.9 218.9" fill-rule="evenodd" fill="#BF9E73"/>
 <path id="path6" fill-opacity="0.235" d="m247.72 125.06c-6.868 0.026-13.781 0.467-20.563 0.563-14.857 2.062-15.971 19.12-15.531 29.938-10.229-9.469-19.02-20.787-30.5-28.688-11.829-3.117-24.573-1.019-36.75-1.625-17.317-0.315-20.666 18.19-19.19 31.688 0.023 11.988-1.947 26.16 9.563 33.969 11.525 11.526 23.08 23.03 34.563 34.594-2.371 6.704 2.629 25.461-6.938 11.469-11.205-9.703-19.705-27.11-36.844-25.09-13.68 1.282-30.87-4.449-40.41 8.5-5.841 12.213-2.308 26.361-3.281 39.531 1.325 15.08 16.725 22.385 25.719 32.969 16.1 10.663-21.961 2.892-18.09 21.03-0.144 13.546-1.814 27.608 1.406 40.813 13.754 17.03 31.21 31.02 46.563 46.719 20.25 21.548 40.02 44.05 60.969 63.63 17.468 4.489 35.756 6.906 54.625 6.906 120.9 0 218.91-98.01 218.91-218.91 0-2.13-0.033-4.259-0.094-6.375-37.869-39.24-75.54-78.65-113.72-117.59-12.289-6.727-26.992-2.776-40.5-3.844-17.14-0.335-20.737 17.933-19.219 31.375-10.246-9.728-18.908-21.419-30.406-29.625-6.611-1.574-13.414-1.964-20.281-1.938"/>
 <g id="g8" transform="matrix(.96248 0 0 .96248 -.905 -521.62)" fill="#fff">
  <g id="g10" transform="translate(.357 -4.286)">
   <rect id="rect12" rx="22.625" ry="22.748" height="70" width="70" y="766.36" x="85.64"/>
   <rect id="rect14" rx="22.625" ry="22.748" height="70" width="70" y="766.36" x="175.64"/>
   <rect id="rect16" rx="22.625" ry="22.748" height="70" width="70" y="766.36" x="265.64"/>
   <rect id="rect18" rx="22.625" ry="22.748" height="70" width="70" y="766.36" x="355.64"/>
  </g>
  <g id="g20" transform="translate(5.204)">
   <rect id="rect22" rx="22.625" ry="22.748" height="70" width="70" y="672.08" x="125.8"/>
   <rect id="rect24" rx="22.625" ry="22.748" height="70" width="70" y="672.08" x="215.8"/>
   <rect id="rect26" rx="22.625" ry="22.748" height="70" width="70" y="672.08" x="305.8"/>
  </g>
  <rect id="rect28" rx="22.625" ry="22.748" height="70" width="325" y="852.08" x="93.5"/>
 </g>
 <g id="g30" fill-rule="evenodd">
  <g id="g32">
   <path id="path34" fill-opacity="0.067" d="m256 1c-140.83 0-255 114.17-255 255s114.17 255 255 255 255-114.17 255-255-114.17-255-255-255m8.827 44.931c120.9 0 218.9 98 218.9 218.9s-98 218.9-218.9 218.9-218.93-98-218.93-218.9 98.03-218.9 218.93-218.9"/>
   <g id="g36" fill-opacity="0.129">
    <path id="path38" d="m256 4.433c-138.94 0-251.57 112.63-251.57 251.57s112.63 251.57 251.57 251.57 251.57-112.63 251.57-251.57-112.63-251.57-251.57-251.57m5.885 38.556c120.9 0 218.9 98 218.9 218.9s-98 218.9-218.9 218.9-218.93-98-218.93-218.9 98.03-218.9 218.93-218.9"/>
    <path id="path40" d="m256 8.356c-136.77 0-247.64 110.87-247.64 247.64s110.87 247.64 247.64 247.64 247.64-110.87 247.64-247.64-110.87-247.64-247.64-247.64m2.942 31.691c120.9 0 218.9 98 218.9 218.9s-98 218.9-218.9 218.9-218.93-98-218.93-218.9 98.03-218.9 218.93-218.9"/>
   </g>
  </g>
  <path id="path42" d="m253.04 7.859c-135.42 0-245.19 109.78-245.19 245.19 0 135.42 109.78 245.19 245.19 245.19 135.42 0 245.19-109.78 245.19-245.19 0-135.42-109.78-245.19-245.19-245.19zm0 26.297c120.9 0 218.9 98 218.9 218.9s-98 218.9-218.9 218.9-218.93-98-218.93-218.9 98.03-218.9 218.93-218.9z" stroke-opacity="0.31" stroke="#000" stroke-width="4.904" fill="#fff"/>
 </g>
</svg>
