<?xml version="1.0" encoding="UTF-8" standalone="no"?>
<svg xmlns="http://www.w3.org/2000/svg" height="512" viewBox="0 0 512 512" width="512" version="1.1">
 <metadata id="metadata72"/>
 <path id="path4" d="m471.95 253.05c0 120.9-98.01 218.9-218.9 218.9-120.9 0-218.9-98.01-218.9-218.9 0-120.9 98.01-218.9 218.9-218.9 120.9 0 218.9 98.01 218.9 218.9" fill-rule="evenodd" fill="#BF9E73"/>
 <path id="path6" fill-opacity="0.235" d="m215 131.81c-4.813-0.018-14.512 2.561-19.25 5.125-11.615 6.284-19.02 17.764-20.875 32.469-0.418 3.324-0.629 3.662-3.25 4.5-9.233 2.951-20.71 10.995-32.969 23.13-21.463 21.237-37.01 46.5-43 69.813-2.43 9.45-2.474 23.11-0.094 32.75 3.238 13.11 10.122 24.821 19.594 33.938 0.143 0.149 0.293 0.29 0.438 0.438 0.187 0.184 0.373 0.38 0.563 0.563 0.143 0.149 0.293 0.29 0.438 0.438 0.251 0.247 0.495 0.507 0.75 0.75l0.156 0.156c0.031 0.032 0.063 0.062 0.094 0.094 0.184 0.181 0.376 0.352 0.563 0.531 0.148 0.154 0.288 0.316 0.438 0.469 0.184 0.181 0.376 0.352 0.563 0.531 0.147 0.153 0.29 0.317 0.438 0.469 0.181 0.178 0.349 0.356 0.531 0.531 0.144 0.15 0.292 0.288 0.438 0.438 0.191 0.188 0.369 0.376 0.563 0.563 0.143 0.149 0.293 0.29 0.438 0.438 0.187 0.184 0.373 0.38 0.563 0.563 0.143 0.149 0.293 0.29 0.438 0.438 0.251 0.247 0.495 0.507 0.75 0.75l0.156 0.156c0.031 0.032 0.063 0.062 0.094 0.094 0.184 0.181 0.376 0.352 0.563 0.531 0.148 0.154 0.288 0.316 0.438 0.469 0.184 0.181 0.376 0.352 0.563 0.531 0.147 0.153 0.29 0.317 0.438 0.469 0.184 0.181 0.376 0.352 0.563 0.531 0.139 0.145 0.266 0.294 0.406 0.438 0.191 0.188 0.369 0.376 0.563 0.563 0.143 0.149 0.293 0.29 0.438 0.438 0.187 0.184 0.373 0.38 0.563 0.563 0.143 0.149 0.293 0.29 0.438 0.438 0.187 0.184 0.373 0.38 0.563 0.563 0.143 0.149 0.293 0.29 0.438 0.438 0.251 0.247 0.495 0.507 0.75 0.75l0.156 0.156c0.031 0.032 0.063 0.062 0.094 0.094 0.184 0.181 0.376 0.352 0.563 0.531 0.147 0.153 0.29 0.317 0.438 0.469 0.184 0.181 0.376 0.352 0.563 0.531 0.143 0.149 0.293 0.29 0.438 0.438 0.254 0.25 0.493 0.504 0.75 0.75 0.077 0.08 0.141 0.171 0.219 0.25 0.189 0.186 0.371 0.378 0.563 0.563 0.143 0.149 0.293 0.29 0.438 0.438 0.187 0.184 0.373 0.38 0.563 0.563 0.143 0.149 0.293 0.29 0.438 0.438 0.251 0.247 0.495 0.507 0.75 0.75l0.156 0.156c0.031 0.032 0.063 0.062 0.094 0.094 0.184 0.181 0.376 0.352 0.563 0.531 0.148 0.154 0.288 0.316 0.438 0.469 0.184 0.181 0.376 0.352 0.563 0.531 0.147 0.153 0.29 0.317 0.438 0.469 0.181 0.178 0.349 0.356 0.531 0.531 0.143 0.149 0.293 0.29 0.438 0.438 0.191 0.188 0.369 0.376 0.563 0.563 0.143 0.149 0.293 0.29 0.438 0.438 0.187 0.184 0.373 0.38 0.563 0.563 0.143 0.149 0.293 0.29 0.438 0.438 0.251 0.247 0.495 0.507 0.75 0.75l0.156 0.156c0.031 0.032 0.063 0.062 0.094 0.094 0.184 0.181 0.376 0.352 0.563 0.531 0.148 0.154 0.288 0.316 0.438 0.469 0.184 0.181 0.376 0.352 0.563 0.531 0.147 0.153 0.29 0.317 0.438 0.469 0.184 0.181 0.376 0.352 0.563 0.531 0.139 0.145 0.266 0.294 0.406 0.438 0.191 0.188 0.369 0.376 0.563 0.563 0.143 0.149 0.293 0.29 0.438 0.438 0.187 0.184 0.373 0.38 0.563 0.563 0.143 0.149 0.293 0.29 0.438 0.438 0.251 0.247 0.495 0.507 0.75 0.75l0.156 0.156c0.031 0.032 0.063 0.062 0.094 0.094 0.184 0.181 0.376 0.352 0.563 0.531 0.148 0.154 0.288 0.316 0.438 0.469 0.184 0.181 0.376 0.352 0.563 0.531 0.147 0.153 0.29 0.317 0.438 0.469 0.184 0.181 0.376 0.352 0.563 0.531 0.139 0.145 0.266 0.294 0.406 0.438 0.191 0.188 0.369 0.376 0.563 0.563 0.143 0.149 0.293 0.29 0.438 0.438 0.187 0.184 0.373 0.38 0.563 0.563 0.143 0.149 0.293 0.29 0.438 0.438 0.187 0.184 0.373 0.38 0.563 0.563 0.143 0.149 0.293 0.29 0.438 0.438 0.251 0.247 0.495 0.507 0.75 0.75l0.156 0.156c0.031 0.032 0.063 0.062 0.094 0.094 0.184 0.181 0.376 0.352 0.563 0.531 0.148 0.154 0.288 0.316 0.438 0.469 0.184 0.181 0.376 0.352 0.563 0.531 0.147 0.153 0.29 0.317 0.438 0.469 0.181 0.178 0.349 0.356 0.531 0.531 0.143 0.149 0.293 0.29 0.438 0.438 0.191 0.188 0.369 0.376 0.563 0.563 0.143 0.149 0.293 0.29 0.438 0.438 0.187 0.184 0.373 0.38 0.563 0.563 0.143 0.149 0.293 0.29 0.438 0.438 0.251 0.247 0.495 0.507 0.75 0.75l0.156 0.156c0.031 0.032 0.063 0.062 0.094 0.094 0.184 0.181 0.376 0.352 0.563 0.531 0.148 0.154 0.288 0.316 0.438 0.469 0.184 0.181 0.376 0.352 0.563 0.531 0.147 0.153 0.29 0.317 0.438 0.469 0.181 0.178 0.349 0.356 0.531 0.531 0.144 0.15 0.292 0.288 0.438 0.438 0.191 0.188 0.369 0.376 0.563 0.563 0.143 0.149 0.293 0.29 0.438 0.438 0.187 0.184 0.373 0.38 0.563 0.563 0.143 0.149 0.293 0.29 0.438 0.438 0.251 0.247 0.495 0.507 0.75 0.75l0.156 0.156c0.031 0.032 0.063 0.062 0.094 0.094 0.184 0.181 0.376 0.352 0.563 0.531 0.148 0.154 0.288 0.316 0.438 0.469 0.184 0.181 0.376 0.352 0.563 0.531 0.147 0.153 0.29 0.317 0.438 0.469 0.184 0.181 0.376 0.352 0.563 0.531 0.139 0.145 0.266 0.294 0.406 0.438 0.191 0.188 0.369 0.376 0.563 0.563 0.143 0.149 0.293 0.29 0.438 0.438 0.187 0.184 0.373 0.38 0.563 0.563 0.143 0.149 0.293 0.29 0.438 0.438 0.282 0.277 0.557 0.571 0.844 0.844 0.031 0.031 0.062 0.063 0.094 0.094 0.021 0.021 0.042 0.041 0.063 0.063 0.184 0.181 0.376 0.352 0.563 0.531 0.148 0.154 0.288 0.316 0.438 0.469 0.184 0.181 0.376 0.352 0.563 0.531 0.147 0.153 0.29 0.317 0.438 0.469 0.184 0.181 0.376 0.352 0.563 0.531 0.143 0.149 0.293 0.29 0.438 0.438 0.186 0.183 0.343 0.382 0.531 0.563 0.068 0.068 0.151 0.12 0.219 0.188 0.077 0.08 0.141 0.171 0.219 0.25 0.189 0.186 0.371 0.378 0.563 0.563 0.143 0.149 0.293 0.29 0.438 0.438 0.187 0.184 0.373 0.38 0.563 0.563 0.143 0.149 0.293 0.29 0.438 0.438 0.251 0.247 0.495 0.507 0.75 0.75l0.156 0.156c0.031 0.032 0.063 0.062 0.094 0.094 0.184 0.181 0.376 0.352 0.563 0.531 0.148 0.154 0.288 0.316 0.438 0.469 0.184 0.181 0.376 0.352 0.563 0.531 0.147 0.153 0.29 0.317 0.438 0.469 0.181 0.178 0.349 0.356 0.531 0.531 0.143 0.149 0.293 0.29 0.438 0.438 0.191 0.188 0.369 0.376 0.563 0.563 0.143 0.149 0.293 0.29 0.438 0.438 0.187 0.184 0.373 0.38 0.563 0.563 0.143 0.149 0.293 0.29 0.438 0.438 0.251 0.247 0.495 0.507 0.75 0.75l0.156 0.156c0.031 0.032 0.063 0.062 0.094 0.094 0.184 0.181 0.376 0.352 0.563 0.531 0.148 0.154 0.288 0.316 0.438 0.469 0.184 0.181 0.376 0.352 0.563 0.531 0.147 0.153 0.29 0.317 0.438 0.469 0.184 0.181 0.376 0.352 0.563 0.531 0.139 0.145 0.266 0.294 0.406 0.438 0.191 0.188 0.369 0.376 0.563 0.563 0.143 0.149 0.293 0.29 0.438 0.438 0.187 0.184 0.373 0.38 0.563 0.563 0.143 0.149 0.293 0.29 0.438 0.438 0.251 0.247 0.495 0.507 0.75 0.75l0.156 0.156c0.031 0.032 0.063 0.062 0.094 0.094 0.184 0.181 0.376 0.352 0.563 0.531 0.148 0.154 0.288 0.316 0.438 0.469 0.184 0.181 0.376 0.352 0.563 0.531 0.147 0.153 0.29 0.317 0.438 0.469 0.184 0.181 0.376 0.352 0.563 0.531 0.139 0.145 0.266 0.294 0.406 0.438 0.191 0.188 0.369 0.376 0.563 0.563 0.143 0.149 0.293 0.29 0.438 0.438 0.187 0.184 0.373 0.38 0.563 0.563 0.143 0.149 0.293 0.29 0.438 0.438 0.187 0.184 0.373 0.38 0.563 0.563 0.143 0.149 0.293 0.29 0.438 0.438 0.251 0.247 0.495 0.507 0.75 0.75l0.156 0.156c0.031 0.032 0.063 0.062 0.094 0.094 0.184 0.181 0.376 0.352 0.563 0.531 0.148 0.154 0.288 0.316 0.438 0.469 0.184 0.181 0.376 0.352 0.563 0.531 0.143 0.149 0.293 0.29 0.438 0.438 0.254 0.25 0.493 0.504 0.75 0.75 0.077 0.08 0.141 0.171 0.219 0.25 0.189 0.186 0.371 0.378 0.563 0.563 0.143 0.149 0.293 0.29 0.438 0.438 0.187 0.184 0.373 0.38 0.563 0.563 0.143 0.149 0.293 0.29 0.438 0.438 0.251 0.247 0.495 0.507 0.75 0.75l0.156 0.156c0.031 0.032 0.063 0.062 0.094 0.094 0.184 0.181 0.376 0.352 0.563 0.531 0.148 0.154 0.288 0.316 0.438 0.469 0.184 0.181 0.376 0.352 0.563 0.531 0.147 0.153 0.29 0.317 0.438 0.469 0.181 0.178 0.349 0.356 0.531 0.531 0.144 0.15 0.292 0.288 0.438 0.438 0.191 0.188 0.369 0.376 0.563 0.563 0.143 0.149 0.293 0.29 0.438 0.438 0.187 0.184 0.373 0.38 0.563 0.563 0.143 0.149 0.293 0.29 0.438 0.438 0.251 0.247 0.495 0.507 0.75 0.75l0.156 0.156c0.031 0.032 0.063 0.062 0.094 0.094 0.184 0.181 0.376 0.352 0.563 0.531 0.148 0.154 0.288 0.316 0.438 0.469 0.184 0.181 0.376 0.352 0.563 0.531 0.147 0.153 0.29 0.317 0.438 0.469 0.184 0.181 0.376 0.352 0.563 0.531 0.139 0.145 0.266 0.294 0.406 0.438 0.191 0.188 0.369 0.376 0.563 0.563 0.143 0.149 0.293 0.29 0.438 0.438 0.187 0.184 0.373 0.38 0.563 0.563 0.143 0.149 0.293 0.29 0.438 0.438 0.282 0.277 0.557 0.571 0.844 0.844 0.031 0.031 0.062 0.063 0.094 0.094 0.021 0.021 0.042 0.041 0.063 0.063 0.184 0.181 0.376 0.352 0.563 0.531 0.148 0.154 0.288 0.316 0.438 0.469 0.184 0.181 0.376 0.352 0.563 0.531 0.147 0.153 0.29 0.317 0.438 0.469 0.184 0.181 0.376 0.352 0.563 0.531 0.143 0.149 0.293 0.29 0.438 0.438 0.254 0.25 0.493 0.504 0.75 0.75 0.077 0.08 0.141 0.171 0.219 0.25 0.189 0.186 0.371 0.378 0.563 0.563 0.143 0.149 0.293 0.29 0.438 0.438 0.187 0.184 0.373 0.38 0.563 0.563 0.143 0.149 0.293 0.29 0.438 0.438 0.251 0.247 0.495 0.507 0.75 0.75l0.156 0.156c0.031 0.032 0.063 0.062 0.094 0.094 0.184 0.181 0.376 0.352 0.563 0.531 0.148 0.154 0.288 0.316 0.438 0.469 0.184 0.181 0.376 0.352 0.563 0.531 0.147 0.153 0.29 0.317 0.438 0.469 0.181 0.178 0.349 0.356 0.531 0.531 0.143 0.149 0.293 0.29 0.438 0.438 0.191 0.188 0.369 0.376 0.563 0.563 0.143 0.149 0.293 0.29 0.438 0.438 0.187 0.184 0.373 0.38 0.563 0.563 0.143 0.149 0.293 0.29 0.438 0.438 0.251 0.247 0.495 0.507 0.75 0.75l0.156 0.156c0.031 0.032 0.063 0.062 0.094 0.094 0.184 0.181 0.376 0.352 0.563 0.531 0.148 0.154 0.288 0.316 0.438 0.469 0.184 0.181 0.376 0.352 0.563 0.531 0.147 0.153 0.29 0.317 0.438 0.469 0.184 0.181 0.376 0.352 0.563 0.531 0.139 0.145 0.266 0.294 0.406 0.438 0.191 0.188 0.369 0.376 0.563 0.563 0.143 0.149 0.293 0.29 0.438 0.438 0.187 0.184 0.373 0.38 0.563 0.563 0.143 0.149 0.293 0.29 0.438 0.438 0.251 0.247 0.495 0.507 0.75 0.75l0.156 0.156c0.031 0.032 0.063 0.062 0.094 0.094 0.184 0.181 0.376 0.352 0.563 0.531 0.148 0.154 0.288 0.316 0.438 0.469 0.184 0.181 0.376 0.352 0.563 0.531 0.147 0.153 0.29 0.317 0.438 0.469 0.184 0.181 0.376 0.352 0.563 0.531 0.139 0.145 0.266 0.294 0.406 0.438 0.191 0.188 0.369 0.376 0.563 0.563 0.143 0.149 0.293 0.29 0.438 0.438 0.187 0.184 0.373 0.38 0.563 0.563 0.143 0.149 0.293 0.29 0.438 0.438 0.187 0.184 0.373 0.38 0.563 0.563 0.143 0.149 0.293 0.29 0.438 0.438 0.251 0.247 0.495 0.507 0.75 0.75l0.156 0.156c0.031 0.032 0.063 0.062 0.094 0.094 0.184 0.181 0.376 0.352 0.563 0.531 0.147 0.153 0.29 0.317 0.438 0.469 0.184 0.181 0.376 0.352 0.563 0.531 0.143 0.149 0.293 0.29 0.438 0.438 0.254 0.25 0.493 0.504 0.75 0.75 0.077 0.08 0.141 0.171 0.219 0.25 0.189 0.186 0.371 0.378 0.563 0.563 0.143 0.149 0.293 0.29 0.438 0.438 0.187 0.184 0.373 0.38 0.563 0.563 0.143 0.149 0.293 0.29 0.438 0.438 0.251 0.247 0.495 0.507 0.75 0.75l0.156 0.156c0.031 0.032 0.063 0.062 0.094 0.094 0.184 0.181 0.376 0.352 0.563 0.531 0.148 0.154 0.288 0.316 0.438 0.469 0.184 0.181 0.376 0.352 0.563 0.531 0.147 0.153 0.29 0.317 0.438 0.469 0.181 0.178 0.349 0.356 0.531 0.531 0.144 0.15 0.292 0.288 0.438 0.438 0.191 0.188 0.369 0.376 0.563 0.563 0.143 0.149 0.293 0.29 0.438 0.438 0.187 0.184 0.373 0.38 0.563 0.563 0.041 0.043 0.083 0.083 0.125 0.125 108.89-0.274 199.09-80.08 215.63-184.37-0.184-0.188-0.365-0.38-0.563-0.563-0.016-0.016-0.046-0.015-0.063-0.031-0.086-0.08-0.163-0.171-0.25-0.25-0.385-0.406-0.753-0.83-1.156-1.219-0.485-0.504-0.987-0.993-1.5-1.469-0.328-0.328-0.659-0.684-1-1-0.328-0.328-0.659-0.684-1-1-0.338-0.338-0.649-0.675-1-1-0.016-0.016-0.046-0.015-0.063-0.031-0.086-0.08-0.163-0.171-0.25-0.25-0.385-0.406-0.753-0.83-1.156-1.219-0.485-0.504-0.987-0.993-1.5-1.469-0.328-0.328-0.659-0.684-1-1-0.328-0.328-0.659-0.684-1-1-0.338-0.338-0.649-0.675-1-1-0.016-0.016-0.046-0.015-0.063-0.031-0.086-0.08-0.163-0.171-0.25-0.25-0.385-0.406-0.753-0.83-1.156-1.219-0.485-0.504-0.987-0.993-1.5-1.469-0.328-0.328-0.659-0.684-1-1-0.328-0.328-0.659-0.684-1-1-0.338-0.338-0.649-0.675-1-1-0.1-0.101-0.211-0.182-0.313-0.281-0.385-0.406-0.753-0.83-1.156-1.219-0.485-0.504-0.987-0.993-1.5-1.469-0.328-0.328-0.659-0.684-1-1-0.328-0.328-0.659-0.684-1-1-0.307-0.307-0.62-0.61-0.938-0.906-0.025-0.027-0.038-0.067-0.063-0.094-0.338-0.338-0.649-0.675-1-1-0.016-0.016-0.046-0.015-0.063-0.031-0.086-0.08-0.163-0.171-0.25-0.25-0.385-0.406-0.753-0.83-1.156-1.219-0.485-0.504-0.987-0.993-1.5-1.469-0.328-0.328-0.659-0.684-1-1-0.328-0.328-0.659-0.684-1-1-0.338-0.338-0.649-0.675-1-1-0.016-0.016-0.046-0.015-0.063-0.031-0.086-0.08-0.163-0.171-0.25-0.25-0.385-0.406-0.753-0.83-1.156-1.219-0.485-0.504-0.987-0.993-1.5-1.469-0.328-0.328-0.659-0.684-1-1-0.328-0.328-0.659-0.684-1-1-0.338-0.338-0.649-0.675-1-1-0.1-0.101-0.211-0.182-0.313-0.281-0.385-0.406-0.753-0.83-1.156-1.219-0.485-0.504-0.987-0.993-1.5-1.469-0.328-0.328-0.659-0.684-1-1-0.328-0.328-0.659-0.684-1-1-0.026-0.026-0.067-0.036-0.094-0.063-0.157-0.145-0.309-0.295-0.469-0.438-0.132-0.127-0.241-0.281-0.375-0.406-0.025-0.027-0.038-0.067-0.063-0.094-0.338-0.338-0.649-0.675-1-1-0.016-0.016-0.046-0.015-0.063-0.031-0.086-0.08-0.163-0.171-0.25-0.25-0.385-0.406-0.753-0.83-1.156-1.219-0.485-0.504-0.987-0.993-1.5-1.469-0.328-0.328-0.659-0.684-1-1-0.328-0.328-0.659-0.684-1-1-0.338-0.338-0.649-0.675-1-1-0.016-0.016-0.046-0.015-0.063-0.031-0.086-0.08-0.163-0.171-0.25-0.25-0.385-0.406-0.753-0.83-1.156-1.219-0.485-0.504-0.987-0.993-1.5-1.469-0.328-0.328-0.659-0.684-1-1-0.328-0.328-0.659-0.684-1-1-0.338-0.338-0.649-0.675-1-1-0.016-0.016-0.046-0.015-0.063-0.031-0.086-0.08-0.163-0.171-0.25-0.25-0.385-0.406-0.753-0.83-1.156-1.219-0.485-0.504-0.987-0.993-1.5-1.469-0.328-0.328-0.659-0.684-1-1-0.328-0.328-0.659-0.684-1-1-0.338-0.338-0.649-0.675-1-1-0.1-0.101-0.211-0.182-0.313-0.281-0.385-0.406-0.753-0.83-1.156-1.219-0.485-0.504-0.987-0.993-1.5-1.469-0.328-0.328-0.659-0.684-1-1-0.328-0.328-0.659-0.684-1-1-0.026-0.026-0.067-0.036-0.094-0.063-0.157-0.145-0.309-0.295-0.469-0.438-0.132-0.127-0.241-0.281-0.375-0.406-0.025-0.027-0.038-0.067-0.063-0.094-0.338-0.338-0.649-0.675-1-1-0.016-0.016-0.046-0.015-0.063-0.031-0.086-0.08-0.163-0.171-0.25-0.25-0.385-0.406-0.753-0.83-1.156-1.219-0.485-0.504-0.987-0.993-1.5-1.469-0.328-0.328-0.659-0.684-1-1-0.328-0.328-0.659-0.684-1-1-0.338-0.338-0.649-0.675-1-1-0.016-0.016-0.046-0.015-0.063-0.031-0.086-0.08-0.163-0.171-0.25-0.25-0.385-0.406-0.753-0.83-1.156-1.219-0.485-0.504-0.987-0.993-1.5-1.469-0.328-0.328-0.659-0.684-1-1-0.328-0.328-0.659-0.684-1-1-0.338-0.338-0.649-0.675-1-1-0.016-0.016-0.046-0.015-0.063-0.031-0.086-0.08-0.163-0.171-0.25-0.25-0.385-0.406-0.753-0.83-1.156-1.219-0.485-0.504-0.987-0.993-1.5-1.469-0.328-0.328-0.659-0.684-1-1-0.328-0.328-0.659-0.684-1-1-0.307-0.307-0.62-0.61-0.938-0.906-0.025-0.027-0.038-0.067-0.063-0.094-0.338-0.338-0.649-0.675-1-1-0.016-0.016-0.046-0.015-0.063-0.031-0.086-0.08-0.163-0.171-0.25-0.25-0.385-0.406-0.753-0.83-1.156-1.219-0.485-0.504-0.987-0.993-1.5-1.469-0.328-0.328-0.659-0.684-1-1-0.026-0.026-0.067-0.036-0.094-0.063-0.157-0.145-0.309-0.295-0.469-0.438-0.132-0.127-0.241-0.281-0.375-0.406-0.025-0.027-0.038-0.067-0.063-0.094-0.338-0.338-0.649-0.675-1-1-0.016-0.016-0.046-0.015-0.063-0.031-0.086-0.08-0.163-0.171-0.25-0.25-0.385-0.406-0.753-0.83-1.156-1.219-0.485-0.504-0.987-0.993-1.5-1.469-0.328-0.328-0.659-0.684-1-1-0.328-0.328-0.659-0.684-1-1-0.338-0.338-0.649-0.675-1-1-0.016-0.016-0.046-0.015-0.063-0.031-0.086-0.08-0.163-0.171-0.25-0.25-0.385-0.406-0.753-0.83-1.156-1.219-0.485-0.504-0.987-0.993-1.5-1.469-0.328-0.328-0.659-0.684-1-1-0.328-0.328-0.659-0.684-1-1-0.338-0.338-0.649-0.675-1-1-0.1-0.101-0.211-0.182-0.313-0.281-0.385-0.406-0.753-0.83-1.156-1.219-0.485-0.504-0.987-0.993-1.5-1.469-0.328-0.328-0.659-0.684-1-1-0.328-0.328-0.659-0.684-1-1-0.307-0.307-0.62-0.61-0.938-0.906-0.025-0.027-0.038-0.067-0.063-0.094-0.338-0.338-0.649-0.675-1-1-0.016-0.016-0.046-0.015-0.063-0.031-0.086-0.08-0.163-0.171-0.25-0.25-0.385-0.406-0.753-0.83-1.156-1.219-0.485-0.504-0.987-0.993-1.5-1.469-0.328-0.328-0.659-0.684-1-1-0.328-0.328-0.659-0.684-1-1-0.338-0.338-0.649-0.675-1-1-0.016-0.016-0.046-0.015-0.063-0.031-0.086-0.08-0.163-0.171-0.25-0.25-0.385-0.406-0.753-0.83-1.156-1.219-0.485-0.504-0.987-0.993-1.5-1.469-0.328-0.328-0.659-0.684-1-1-0.328-0.328-0.659-0.684-1-1-0.338-0.338-0.649-0.675-1-1-0.016-0.016-0.046-0.015-0.063-0.031-0.086-0.08-0.163-0.171-0.25-0.25-0.385-0.406-0.753-0.83-1.156-1.219-0.485-0.504-0.987-0.993-1.5-1.469-0.328-0.328-0.659-0.684-1-1-0.328-0.328-0.659-0.684-1-1-0.338-0.338-0.649-0.675-1-1-0.338-0.338-0.649-0.675-1-1-0.016-0.016-0.046-0.015-0.063-0.031-0.086-0.08-0.163-0.171-0.25-0.25-0.385-0.406-0.753-0.83-1.156-1.219-0.485-0.504-0.987-0.993-1.5-1.469-0.328-0.328-0.659-0.684-1-1-0.307-0.307-0.62-0.61-0.938-0.906-0.025-0.027-0.038-0.067-0.063-0.094-0.338-0.338-0.649-0.675-1-1-0.016-0.016-0.046-0.015-0.063-0.031-0.086-0.08-0.163-0.171-0.25-0.25-0.385-0.406-0.753-0.83-1.156-1.219-0.485-0.504-0.987-0.993-1.5-1.469-0.328-0.328-0.659-0.684-1-1-0.328-0.328-0.659-0.684-1-1-0.338-0.338-0.649-0.675-1-1-4.955-4.959-11.321-8.521-18.938-10.469-7.03-1.797-11.1-1.86-18.313-0.344-13.566 2.853-24.806 12.785-29.563 25.656-0.247-0.24-0.497-0.485-0.75-0.719-0.047-0.046-0.078-0.11-0.125-0.156-0.319-0.334-0.67-0.677-1-1-0.328-0.342-0.661-0.669-1-1-0.328-0.342-0.661-0.669-1-1-0.328-0.342-0.661-0.669-1-1-0.328-0.342-0.661-0.669-1-1-0.072-0.075-0.147-0.144-0.219-0.219-0.258-0.248-0.517-0.508-0.781-0.75-0.076-0.079-0.142-0.171-0.219-0.25-0.101-0.098-0.21-0.185-0.313-0.281-0.149-0.151-0.286-0.32-0.438-0.469-0.081-0.084-0.168-0.166-0.25-0.25-0.189-0.182-0.37-0.353-0.563-0.531-0.067-0.067-0.12-0.152-0.188-0.219-0.328-0.342-0.661-0.669-1-1-0.328-0.342-0.661-0.669-1-1-0.328-0.342-0.661-0.669-1-1-0.072-0.075-0.147-0.144-0.219-0.219-0.258-0.248-0.517-0.508-0.781-0.75-0.076-0.079-0.142-0.171-0.219-0.25-0.101-0.098-0.21-0.185-0.313-0.281-0.149-0.151-0.286-0.32-0.438-0.469-0.081-0.084-0.168-0.166-0.25-0.25-0.043-0.042-0.082-0.084-0.125-0.125-7.562-7.704-18.14-12.551-29.375-12.594"/>
 <g id="g8" fill-rule="evenodd">
  <path id="path10" fill-opacity="0.067" d="m256 1c-140.83 0-255 114.17-255 255s114.17 255 255 255 255-114.17 255-255-114.17-255-255-255m8.827 44.931c120.9 0 218.9 98 218.9 218.9s-98 218.9-218.9 218.9-218.93-98-218.93-218.9 98.03-218.9 218.93-218.9"/>
  <g id="g12" fill-opacity="0.129">
   <path id="path14" d="m256 4.433c-138.94 0-251.57 112.63-251.57 251.57s112.63 251.57 251.57 251.57 251.57-112.63 251.57-251.57-112.63-251.57-251.57-251.57m5.885 38.556c120.9 0 218.9 98 218.9 218.9s-98 218.9-218.9 218.9-218.93-98-218.93-218.9 98.03-218.9 218.93-218.9"/>
   <path id="path16" d="m256 8.356c-136.77 0-247.64 110.87-247.64 247.64s110.87 247.64 247.64 247.64 247.64-110.87 247.64-247.64-110.87-247.64-247.64-247.64m2.942 31.691c120.9 0 218.9 98 218.9 218.9s-98 218.9-218.9 218.9-218.93-98-218.93-218.9 98.03-218.9 218.93-218.9"/>
  </g>
  <path id="path18" d="m253.04 7.859c-135.42 0-245.19 109.78-245.19 245.19 0 135.42 109.78 245.19 245.19 245.19 135.42 0 245.19-109.78 245.19-245.19 0-135.42-109.78-245.19-245.19-245.19zm0 26.297c120.9 0 218.9 98 218.9 218.9s-98 218.9-218.9 218.9-218.93-98-218.93-218.9 98.03-218.9 218.93-218.9z" stroke-opacity="0.31" stroke="#000" stroke-width="4.904" fill="#fff"/>
 </g>
 <path id="path66" fill="#fff" d="m214.99 131.81c-4.813-0.018-14.51 2.553-19.248 5.117-11.615 6.284-19 17.79-20.85 32.495-0.418 3.324-0.655 3.658-3.276 4.495-9.233 2.951-20.69 10.992-32.949 23.12-21.463 21.237-37.02 46.48-43.02 69.795-2.43 9.45-2.476 23.12-0.096 32.758 5.757 23.311 23.09 42.18 45.861 49.949 4.108 1.402 9.698 2.866 12.434 3.252 22.279 3.141 44.34-3.981 60.09-19.391 6.345-6.211 10.83-12.205 14.322-19.13 2.803-5.558 5.964-16.09 6.48-21.615 0.246-2.633 0.695-4.782 1-4.782 0.309 0 2.402 0.856 4.663 1.889 9.109 4.164 22.08 4.156 31.16 0 2.274-1.041 4.377-1.889 4.686-1.889s0.782 2.149 1.028 4.782c0.516 5.522 3.652 16.06 6.456 21.615 5.624 11.15 16.312 22.692 26.828 28.98 13.283 7.942 29.725 11.559 44.689 9.803 29.811-3.498 54.09-24.717 61.19-53.46 2.38-9.639 2.358-23.308-0.072-32.758-5.994-23.313-21.576-48.558-43.04-69.795-12.259-12.13-23.692-20.17-32.925-23.12-2.621-0.838-2.857-1.171-3.276-4.495-2.371-18.836-13.267-31.676-30.677-36.13-7.03-1.797-11.11-1.875-18.316-0.359-15.563 3.274-28.03 15.889-31.2 31.538l-0.98 4.758-0.885-4.734c-3.513-18.488-20.846-32.613-40.07-32.686m40.767 100.95c2.897-0.063 5.838 0.531 8.656 1.865 15.333 7.261 15.862 28.681 0.885 36.01-14.14 6.92-29.62-2.633-29.553-18.244 0.047-11.03 9.667-19.406 20.01-19.631m-91.2 0.024c14.341 0 25.649 4.793 35.985 15.231 7.171 7.241 11.05 13.917 13.39 23.03 1.632 6.362 1.64 17.984 0 24.1-4.825 18-18.868 32.2-36.32 36.727-4.988 1.293-15.572 2.049-19.559 1.411-20.934-3.35-37.709-18.12-42.872-37.755-1.714-6.517-1.761-17.979-0.096-24.484 2.303-8.997 6.28-15.773 13.486-23.03 5.275-5.31 7.783-7.199 13.03-9.756 8.55-4.165 14.05-5.476 22.954-5.476m182.87 0c14.321 0 25.628 4.782 36.01 15.231 10.34 10.408 14.76 21.03 14.705 35.27-0.035 8.92-1.596 15.183-5.81 23.337-6.124 11.849-18.716 21.853-31.777 25.23-5.05 1.304-15.631 2.075-19.631 1.435-25.91-4.146-44.01-24.659-44.12-49.997-0.059-14.222 4.371-24.905 14.633-35.27 5.289-5.34 7.759-7.194 13.03-9.756 8.559-4.159 14.06-5.476 22.954-5.476"/>
</svg>
