<?xml version="1.0" encoding="UTF-8" standalone="no"?>
<svg xmlns="http://www.w3.org/2000/svg" viewBox="0 0 512 512">
 <g fill-rule="evenodd">
  <path d="m471.95 253.05c0 120.9-98.01 218.91-218.91 218.91s-218.91-98.01-218.91-218.91 98.01-218.91 218.91-218.91 218.91 98.01 218.91 218.91" fill="#BF9E73"/>
  <path d="m256 1c-140.83 0-255 114.17-255 255s114.17 255 255 255 255-114.17 255-255-114.17-255-255-255m8.827 44.931c120.9 0 218.9 98 218.9 218.9s-98 218.9-218.9 218.9-218.93-98-218.93-218.9 98.03-218.9 218.93-218.9" fill-opacity="0.067"/>
  <g fill-opacity="0.129">
   <path d="m256 4.43c-138.94 0-251.57 112.63-251.57 251.57s112.63 251.57 251.57 251.57 251.57-112.63 251.57-251.57-112.63-251.57-251.57-251.57m5.885 38.556c120.9 0 218.9 98 218.9 218.9s-98 218.9-218.9 218.9-218.93-98-218.93-218.9 98.03-218.9 218.93-218.9"/>
   <path d="m256 8.36c-136.77 0-247.64 110.87-247.64 247.64s110.87 247.64 247.64 247.64 247.64-110.87 247.64-247.64-110.87-247.64-247.64-247.64m2.942 31.691c120.9 0 218.9 98 218.9 218.9s-98 218.9-218.9 218.9-218.93-98-218.93-218.9 98.03-218.9 218.93-218.9"/>
  </g>
  <path stroke="#000" stroke-width="4.904" d="m253.04 7.86c-135.42 0-245.19 109.78-245.19 245.19 0 135.42 109.78 245.19 245.19 245.19 135.42 0 245.19-109.78 245.19-245.19 0-135.42-109.78-245.19-245.19-245.19m0 26.297c120.9 0 218.9 98 218.9 218.9s-98 218.9-218.9 218.9-218.93-98-218.93-218.9 98.03-218.9 218.93-218.9z" stroke-opacity="0.31" fill="#fff"/>
 </g>
 <path opacity="0.25" d="m278.08 68.56c-3.985 0.027-7.968 0.544-11.844 1.594l26.25 26.25-6.875 25.719-25.719 6.906-26.28-26.25c-4.172 15.495-0.215 32.723 11.965 44.902l203.29 203.29c14.761-29.464 23.08-62.714 23.08-97.91 0-3.492-0.09-6.964-0.252-10.416l-160.55-160.55c-9.138-9.114-21.11-13.614-33.06-13.531m-150.19 118v209.16l68.951 68.951c17.933 4.75 36.765 7.293 56.19 7.293 85.09 0 158.83-48.546 195.06-119.45l-165.95-165.95h-154.25"/>
 <path d="m278.08 68.56c-3.985 0.027-7.968 0.544-11.844 1.594l26.25 26.25-6.875 25.719-25.719 6.906-26.28-26.25c-4.173 15.496-0.214 32.726 11.969 44.906 12.759 12.767 31.14 16.511 47.22 11.281l0.156 0.125 108.03 108.03c4.272 4.264 9.833 6.406 15.438 6.406 5.604 0 11.203-2.143 15.5-6.406 8.553-8.52 8.553-22.354 0-30.938l-108.03-108-0.875-0.813c4.345-15.594 0.381-33.02-11.875-45.28-9.138-9.114-21.11-13.614-33.06-13.531m-150.19 118v209.16h32.16v-78.938h144.84v78.938h32.16v-154.09l-54.875-54.875v77.34h-122.56v-69.69h70.25v62.06h39.22v-62.06h13.06v-7.844h-154.25m290.44 60.19c4.63 0 8.375 3.714 8.375 8.344 0.008 4.613-3.737 8.344-8.375 8.344-4.597 0-8.313-3.734-8.313-8.344 0-4.63 3.719-8.344 8.313-8.344m-250.41 77.875v71.06h129.13v-71.06h-129.12" fill="#fff"/>
</svg>
