<?xml version="1.0" encoding="UTF-8" standalone="no"?>
<svg xmlns="http://www.w3.org/2000/svg" height="512" viewBox="0 0 512 512" width="512" version="1.1">
 <metadata id="metadata76"/>
 <path id="path4" d="m471.95 253.05c0 120.9-98.01 218.9-218.9 218.9-120.9 0-218.9-98.01-218.9-218.9 0-120.9 98.01-218.9 218.9-218.9 120.9 0 218.9 98.01 218.9 218.9" fill-rule="evenodd" fill="#BF9E73"/>
 <path id="path6" fill-opacity="0.235" d="m115.09 163.41v185.19h1v1h1v1h1v1h0.969v0.969h1v1h1v1h1v1h1v1h1v1h0.969v0.969h1v1h1v1h1v1h1v1h1v1h0.969v0.969h1v1h1v1h1v1h1v1h1v1h0.969v0.969h1v1h1v1h1v1h1v1h1v1h1v1h0.969v0.969h1v1h1v1h1v1h1v1h1v1h0.969v0.969h1v1h1v1h1v1h1v1h1v1h0.969v0.969h1v1h1v1h1v1h1v1h1v1h1v1h0.969v0.969h1v1h1v1h1v1h1v1h1v1h0.969v0.969h1v1h1v1h1v1h1v1h1v1h0.969v0.969h1v1h1v1h1v1h1v1h1v1h0.969v0.969h1v1h1v1h1v1h1v1h1v1h1v1h0.969v0.969h1v1h1v1h1v1h1v1h1v1h0.969v0.969h1v1h1v1h1v1h1v1h1v1h0.969v0.969h1v1h1v1h1v1h1v1h1v1h1v1h0.969v0.969h1v1h1v1h1v1h1v1h1v1h0.969v0.969h1v1h1v1h1v1h1v1h1v1h0.969v0.969h1v1h1v1h1v1h1v1h1v1h0.969v0.969h1v1h1v1h1v1h1v1h1v1h1v1h0.969v0.969h1v1h1v1h1v1h1v1h1v1h0.969v0.969h1v0.469c4.817 0.317 9.666 0.531 14.563 0.531 103.78 0 190.69-72.23 213.22-169.16-0.171-0.174-0.35-0.343-0.531-0.5-0.244-0.263-0.488-0.51-0.75-0.75-0.333-0.381-0.693-0.727-1.063-1.063-0.388-0.438-0.782-0.873-1.219-1.25-0.332-0.359-0.665-0.715-1.031-1.031-0.232-0.249-0.471-0.491-0.719-0.719-0.363-0.415-0.751-0.794-1.156-1.156-0.297-0.33-0.614-0.642-0.938-0.938-0.399-0.449-0.802-0.894-1.25-1.281-0.271-0.291-0.551-0.549-0.844-0.813-0.315-0.35-0.624-0.688-0.969-1-0.397-0.444-0.806-0.866-1.25-1.25-0.246-0.262-0.487-0.541-0.75-0.781-0.403-0.451-0.83-0.891-1.281-1.281-0.257-0.272-0.537-0.533-0.813-0.781-0.311-0.344-0.599-0.691-0.938-1-0.412-0.46-0.851-0.883-1.313-1.281-0.237-0.251-0.466-0.519-0.719-0.75-0.314-0.349-0.659-0.655-1-0.969-0.321-0.359-0.65-0.709-1-1.031-0.427-0.478-0.866-0.931-1.344-1.344-0.227-0.239-0.447-0.497-0.688-0.719-0.313-0.348-0.661-0.655-1-0.969-0.348-0.39-0.713-0.746-1.094-1.094-0.302-0.333-0.611-0.667-0.938-0.969-0.438-0.489-0.885-0.952-1.375-1.375-0.206-0.215-0.409-0.424-0.625-0.625-0.35-0.392-0.742-0.744-1.125-1.094-0.305-0.336-0.608-0.664-0.938-0.969-0.34-0.378-0.692-0.754-1.063-1.094-0.43-0.473-0.866-0.931-1.344-1.344-0.196-0.203-0.388-0.402-0.594-0.594-0.459-0.513-0.924-0.994-1.438-1.438-0.206-0.214-0.409-0.424-0.625-0.625-0.341-0.378-0.692-0.753-1.063-1.094-0.32-0.35-0.655-0.682-1-1-0.328-0.361-0.677-0.705-1.031-1.031-0.435-0.477-0.862-0.957-1.344-1.375-0.221-0.229-0.455-0.442-0.688-0.656-0.29-0.317-0.596-0.615-0.906-0.906-0.353-0.393-0.711-0.771-1.094-1.125-0.329-0.361-0.677-0.704-1.031-1.031-0.319-0.348-0.657-0.683-1-1-0.342-0.374-0.693-0.723-1.063-1.063-0.28-0.304-0.577-0.594-0.875-0.875-0.352-0.39-0.713-0.772-1.094-1.125-0.329-0.361-0.677-0.703-1.031-1.031-0.314-0.342-0.632-0.687-0.969-1-0.357-0.391-0.739-0.74-1.125-1.094-0.299-0.323-0.587-0.64-0.906-0.938-0.329-0.36-0.677-0.702-1.031-1.031-0.323-0.352-0.685-0.678-1.031-1-0.287-0.313-0.57-0.617-0.875-0.906-0.386-0.429-0.799-0.833-1.219-1.219-0.294-0.317-0.593-0.613-0.906-0.906-0.345-0.378-0.692-0.75-1.063-1.094-0.28-0.303-0.578-0.593-0.875-0.875-0.359-0.398-0.737-0.763-1.125-1.125-0.299-0.325-0.619-0.637-0.938-0.938-0.454-0.499-0.908-0.996-1.406-1.438-0.18-0.187-0.375-0.353-0.563-0.531-0.352-0.39-0.715-0.769-1.094-1.125-0.34-0.372-0.698-0.721-1.063-1.063-0.28-0.303-0.579-0.592-0.875-0.875-0.471-0.521-0.951-1.039-1.469-1.5-0.18-0.187-0.376-0.353-0.563-0.531-0.375-0.415-0.752-0.81-1.156-1.188-0.33-0.356-0.679-0.703-1.031-1.031-0.269-0.291-0.56-0.572-0.844-0.844-0.4-0.442-0.817-0.85-1.25-1.25-0.274-0.293-0.555-0.57-0.844-0.844-0.356-0.389-0.712-0.768-1.094-1.125-0.33-0.357-0.679-0.702-1.031-1.031-0.297-0.321-0.623-0.608-0.938-0.906-0.295-0.321-0.594-0.638-0.906-0.938-0.367-0.405-0.763-0.786-1.156-1.156-2.192-2.377-4.832-4.163-7.969-5.344l-2.313 9.188v-0.188h-1v-1h-1v-1h-0.969v-0.969h-1v-1h-1v-1h-1v-1h-1v-1h-1v-1h-0.969v-0.969h-1v-1h-1v-1h-1v-1h-1.063c-10.667 0-19.18 2.42-25.563 7.25h-0.219l0.75-1h-1.75l0.75-1h-1.688c0.015-0.02 0.719-0.969 0.719-0.969h-1.75c0.016-0.022 0.75-1 0.75-1h-1.75c0.016-0.022 0.75-1 0.75-1h-1.75l0.75-1h-1.75l0.75-1h-1.75c0.016-0.022 0.75-1 0.75-1h-1.688c0.015-0.02 0.719-0.969 0.719-0.969h-1.75c0.016-0.022 0.75-1 0.75-1h-1.75c0.016-0.022 0.75-1 0.75-1h-1.75l0.75-1h-1.75l0.75-1h-1.75c0.016-0.022 0.75-1 0.75-1h-1.688c0.015-0.02 0.719-0.969 0.719-0.969h-1.75c0.016-0.022 0.75-1 0.75-1h-1.75c0.016-0.022 0.75-1 0.75-1h-1.75l0.75-1h-1.75l0.75-1h-1.75c0.016-0.022 0.75-1 0.75-1h-1.75c0.016-0.022 0.75-1 0.75-1h-1.688c0.015-0.02 0.719-0.969 0.719-0.969h-1.75c0.016-0.022 0.75-1 0.75-1h-1.75l0.75-1h-1.75c0.016-0.022 0.75-1 0.75-1h-1.75c0.016-0.022 0.75-1 0.75-1h-1.75c0.016-0.022 0.75-1 0.75-1h-1.688c0.015-0.02 0.719-0.969 0.719-0.969h-1.75l0.75-1h-1.75c0.016-0.022 0.75-1 0.75-1h-1.75c0.016-0.022 0.75-1 0.75-1h-1.75c0.016-0.022 0.75-1 0.75-1h-1.75c0.016-0.022 0.75-1 0.75-1h-1.688l0.719-0.969h-1.75c0.016-0.022 0.75-1 0.75-1h-1.75c0.016-0.022 0.75-1 0.75-1h-1.75c0.016-0.022 0.75-1 0.75-1h-1.75c0.016-0.022 0.75-1 0.75-1h-1.75l0.75-1h-1.75l0.75-1h-1.688c0.015-0.02 0.719-0.969 0.719-0.969h-1.75c0.016-0.022 0.75-1 0.75-1h-1.75c0.016-0.022 0.75-1 0.75-1h-1.75c0.016-0.022 0.75-1 0.75-1h-1.75l0.75-1h-1.75l0.75-1h-1.688c0.015-0.02 0.719-0.969 0.719-0.969h-1.75c0.016-0.022 0.75-1 0.75-1h-1.75c0.016-0.022 0.75-1 0.75-1h-1.75c0.016-0.022 0.75-1 0.75-1h-1.75c0.016-0.022 0.75-1 0.75-1h-1.75c0.016-0.022 0.75-1 0.75-1h-1.688l0.719-0.969h-1.75c0.016-0.022 0.75-1 0.75-1h-1.75c0.016-0.022 0.75-1 0.75-1h-1.75c0.016-0.022 0.75-1 0.75-1h-1.75l0.75-1h-1.75l0.75-1h-1.688c0.015-0.02 0.719-0.969 0.719-0.969h-1.75c0.016-0.022 0.75-1 0.75-1h-1.75l0.75-1h-1.75l0.75-1h-58.31l-23.938 34.813h-0.25v-0.969h-1v-1h-1v-1h-1v-1h-1v-1h-1v-1h-0.969v-0.969h-1v-1h-1v-1h-1v-1h-1v-1h-1v-1h-1v-1h-0.969v-0.969h-1v-1h-1v-1h-1v-1h-1v-1h-1v-1h-0.969v-0.969h-1v-1h-1v-1h-1v-1h-1v-1h-1v-1h-0.969v-0.969h-1v-1h-1v-1h-1v-1h-1v-1h-1v-1h-0.969v-0.969h-1v-1h-1v-1h-1v-1h-49.53"/>
 <g id="g8" fill-rule="evenodd">
  <path id="path10" fill-opacity="0.067" d="m256 1c-140.83 0-255 114.17-255 255s114.17 255 255 255 255-114.17 255-255-114.17-255-255-255m8.827 44.931c120.9 0 218.9 98 218.9 218.9s-98 218.9-218.9 218.9-218.93-98-218.93-218.9 98.03-218.9 218.93-218.9"/>
  <g id="g12" fill-opacity="0.129">
   <path id="path14" d="m256 4.433c-138.94 0-251.57 112.63-251.57 251.57s112.63 251.57 251.57 251.57 251.57-112.63 251.57-251.57-112.63-251.57-251.57-251.57m5.885 38.556c120.9 0 218.9 98 218.9 218.9s-98 218.9-218.9 218.9-218.93-98-218.93-218.9 98.03-218.9 218.93-218.9"/>
   <path id="path16" d="m256 8.356c-136.77 0-247.64 110.87-247.64 247.64s110.87 247.64 247.64 247.64 247.64-110.87 247.64-247.64-110.87-247.64-247.64-247.64m2.942 31.691c120.9 0 218.9 98 218.9 218.9s-98 218.9-218.9 218.9-218.93-98-218.93-218.9 98.03-218.9 218.93-218.9"/>
  </g>
  <path id="path18" d="m253.04 7.859c-135.42 0-245.19 109.78-245.19 245.19 0 135.42 109.78 245.19 245.19 245.19 135.42 0 245.19-109.78 245.19-245.19 0-135.42-109.78-245.19-245.19-245.19zm0 26.297c120.9 0 218.9 98 218.9 218.9s-98 218.9-218.9 218.9-218.93-98-218.93-218.9 98.03-218.9 218.93-218.9z" stroke-opacity="0.31" stroke="#000" stroke-width="4.904" fill="#fff"/>
 </g>
 <g id="g66" transform="matrix(.78631 0 0 .78631 50.02 57.03)" fill="#fff">
  <path id="path68" d="m82.76 370.8v-235.52h62.987v106.98l73.831-106.98h74.15l-86.27 114.86 93.76 120.66h-79.41l-76.06-105.69v105.69h-62.989"/>
  <path id="path70" d="m334.21 370.8c-4.235 0-7.842-1.355-10.822-4.066-2.98-2.758-4.47-6.06-4.47-9.915 0-3.994 1.464-7.323 4.391-9.986 2.928-2.71 6.561-4.066 10.9-4.066s8.02 1.379 11.06 4.137c3.03 2.71 4.548 6.02 4.548 9.915 0 3.804-1.542 7.085-4.627 9.843-3.084 2.758-6.744 4.137-10.978 4.137m103.9-1.284h-79.2v-25.464h79.2v25.464m0-45.65h-121.55v-25.464h121.55v25.464m-49.795-94.3c-4.496 0.476-8.103 2.045-10.822 4.708-2.718 2.615-4.078 5.849-4.078 9.701 0 4.137 1.255 7.442 3.764 9.915 2.457 2.425 6.169 4.04 11.135 4.851v-29.17m15.762-25.04v54.781c6.117-0.048 10.848-1.474 14.194-4.28 3.294-2.805 4.94-6.776 4.94-11.912 0-3.852-0.784-7.085-2.353-9.701-1.621-2.663-0.324-4.684-3.461-6.06l4.794-19.12c6.06 2.283 10.743 6.325 14.04 12.13 3.294 5.801 4.94 12.911 4.94 21.327 0 12.554-3.816 22.635-11.449 30.24-7.685 7.561-17.801 11.341-30.348 11.341-12.338 0-22.584-3.78-30.74-11.341-8.155-7.608-12.233-17.214-12.233-28.817 0-11.936 4.13-21.351 12.39-28.25 8.26-6.895 19.578-10.343 33.955-10.343h1.333"/>
 </g>
</svg>
