<?xml version="1.0" encoding="UTF-8" standalone="no"?>
<svg xmlns="http://www.w3.org/2000/svg" viewBox="0 0 512 512">
 <g fill-rule="evenodd">
  <path d="m471.95 253.05c0 120.9-98.01 218.91-218.91 218.91s-218.91-98.01-218.91-218.91 98.01-218.91 218.91-218.91 218.91 98.01 218.91 218.91" fill="#BF9E73"/>
  <path d="m256 1c-140.83 0-255 114.17-255 255s114.17 255 255 255 255-114.17 255-255-114.17-255-255-255m8.827 44.931c120.9 0 218.9 98 218.9 218.9s-98 218.9-218.9 218.9-218.93-98-218.93-218.9 98.03-218.9 218.93-218.9" fill-opacity="0.067"/>
  <g fill-opacity="0.129">
   <path d="m256 4.43c-138.94 0-251.57 112.63-251.57 251.57s112.63 251.57 251.57 251.57 251.57-112.63 251.57-251.57-112.63-251.57-251.57-251.57m5.885 38.556c120.9 0 218.9 98 218.9 218.9s-98 218.9-218.9 218.9-218.93-98-218.93-218.9 98.03-218.9 218.93-218.9"/>
   <path d="m256 8.36c-136.77 0-247.64 110.87-247.64 247.64s110.87 247.64 247.64 247.64 247.64-110.87 247.64-247.64-110.87-247.64-247.64-247.64m2.942 31.691c120.9 0 218.9 98 218.9 218.9s-98 218.9-218.9 218.9-218.93-98-218.93-218.9 98.03-218.9 218.93-218.9"/>
  </g>
  <path stroke="#000" stroke-width="4.904" d="m253.04 7.86c-135.42 0-245.19 109.78-245.19 245.19 0 135.42 109.78 245.19 245.19 245.19 135.42 0 245.19-109.78 245.19-245.19 0-135.42-109.78-245.19-245.19-245.19m0 26.297c120.9 0 218.9 98 218.9 218.9s-98 218.9-218.9 218.9-218.93-98-218.93-218.9 98.03-218.9 218.93-218.9z" stroke-opacity="0.31" fill="#fff"/>
 </g>
 <text font-size="129.23" y="231.36" x="729.64" font-family="&apos;Gentium Book Basic&apos;" line-height="125%" word-spacing="0" letter-spacing="0"><tspan y="231.36" x="729.64"/>
 </text>
 <text transform="scale(4.0128.2492)" font-size="46.954" y="579.26" x="378.91" font-family="Arial" text-anchor="middle"/>
 <text font-size="129.23" y="151.36" x="1310.91" font-family="&apos;Gentium Book Basic&apos;" line-height="125%" word-spacing="0" letter-spacing="0"><tspan y="151.36" x="1310.91"/>
 </text>
 <text transform="scale(4.0128.2492)" font-size="46.954" y="258.22" x="523.76" font-family="Arial" text-anchor="middle"/>
 <text font-size="129.23" y="-29.9" x="239.33" font-family="&apos;Gentium Book Basic&apos;" line-height="125%" word-spacing="0" letter-spacing="0"><tspan y="-29.9" x="239.33"/>
 </text>
 <text transform="scale(4.0128.2492)" font-size="46.954" y="-469.13" x="256.72" font-family="Arial" text-anchor="middle"/>
 <text font-size="129.23" y="-246.37" x="1337.38" font-family="&apos;Gentium Book Basic&apos;" line-height="125%" word-spacing="0" letter-spacing="0"><tspan y="-246.37" x="1337.38"/>
 </text>
 <text transform="scale(4.0128.2492)" font-size="46.954" y="-1337.79" x="530.36" font-family="Arial" text-anchor="middle"/>
 <text font-size="129.23" y="-326.37" x="1918.65" font-family="&apos;Gentium Book Basic&apos;" line-height="125%" word-spacing="0" letter-spacing="0"><tspan y="-326.37" x="1918.65"/>
 </text>
 <text transform="scale(4.0128.2492)" font-size="46.954" y="-1658.82" x="675.21" font-family="Arial" text-anchor="middle"/>
 <text font-size="129.23" y="-798.77" x="1529.53" font-family="&apos;Gentium Book Basic&apos;" line-height="125%" word-spacing="0" letter-spacing="0"><tspan y="-798.77" x="1529.53"/>
 </text>
 <text transform="scale(4.0128.2492)" font-size="46.954" y="-3554.46" x="578.24" font-family="Arial" text-anchor="middle"/>
 <text font-size="129.23" y="-878.78" x="2110.79" font-family="&apos;Gentium Book Basic&apos;" line-height="125%" word-spacing="0" letter-spacing="0"><tspan y="-878.78" x="2110.79"/>
 </text>
 <text transform="scale(4.0128.2492)" font-size="46.954" y="-3875.5" x="723.09" font-family="Arial" text-anchor="middle"/>
 <g font-family="&apos;Gentium Book Basic&apos;" line-height="125%" word-spacing="0" letter-spacing="0">
  <text y="535.94" x="277.99" font-size="208.33"><tspan y="535.94" x="277.99"/>
  </text>
  <text y="88.17" x="-179.38" font-size="129.23"><tspan y="88.17" x="-179.38"/>
  </text>
 </g>
 <text transform="scale(4.0128.2492)" font-size="46.954" y="4.666" x="152.38" font-family="Arial" text-anchor="middle"/>
 <text font-size="129.23" y="8.174" x="401.89" font-family="&apos;Gentium Book Basic&apos;" line-height="125%" word-spacing="0" letter-spacing="0"><tspan y="8.174" x="401.89"/>
 </text>
 <text transform="scale(4.0128.2492)" font-size="46.954" y="-316.36" x="297.23" font-family="Arial" text-anchor="middle"/>
 <text font-size="129.23" y="-173.09" x="-669.69" font-family="&apos;Gentium Book Basic&apos;" line-height="125%" word-spacing="0" letter-spacing="0"><tspan y="-173.09" x="-669.69"/>
 </text>
 <text transform="scale(4.0128.2492)" font-size="46.954" y="-1043.71" x="30.19" font-family="Arial" text-anchor="middle"/>
 <text font-size="129.23" y="-389.56" x="428.36" font-family="&apos;Gentium Book Basic&apos;" line-height="125%" word-spacing="0" letter-spacing="0"><tspan y="-389.56" x="428.36"/>
 </text>
 <text transform="scale(4.0128.2492)" font-size="46.954" y="-1912.37" x="303.83" font-family="Arial" text-anchor="middle"/>
 <text font-size="129.23" y="-469.57" x="1009.63" font-family="&apos;Gentium Book Basic&apos;" line-height="125%" word-spacing="0" letter-spacing="0"><tspan y="-469.57" x="1009.63"/>
 </text>
 <text transform="scale(4.0128.2492)" font-size="46.954" y="-2233.41" x="448.68" font-family="Arial" text-anchor="middle"/>
 <text font-size="129.23" y="-941.97" x="620.51" font-family="&apos;Gentium Book Basic&apos;" line-height="125%" word-spacing="0" letter-spacing="0"><tspan y="-941.97" x="620.51"/>
 </text>
 <text transform="scale(4.0128.2492)" font-size="46.954" y="-4129.05" x="351.71" font-family="Arial" text-anchor="middle"/>
 <text font-size="129.23" y="-1021.97" x="1201.77" font-family="&apos;Gentium Book Basic&apos;" line-height="125%" word-spacing="0" letter-spacing="0"><tspan y="-1021.97" x="1201.77"/>
 </text>
 <text transform="scale(4.0128.2492)" font-size="46.954" y="-4450.08" x="496.56" font-family="Arial" text-anchor="middle"/>
 <text font-size="208.33" y="392.75" x="-631.03" font-family="&apos;Gentium Book Basic&apos;" line-height="125%" word-spacing="0" letter-spacing="0"><tspan y="392.75" x="-631.03"/>
 </text>
 <path opacity="0.25" d="m368.13 106.28c-0.392 0-0.787 0.163-1.064 0.439l13.08 13.08-0.004 0.004-13.08-13.08-15.25 15.279-3.199-3.18-2.23-2.23c-0.987-0.984-2.523-1.138-3.689-0.375l26.795 26.795-0.002 0.004-26.795-26.793-43.37 28.438 43.809 43.809c0.005 0.009 0.01 0.018 0.016 0.027l-43.834-43.834c-0.075 0.046-0.146 0.1-0.217 0.154l-0.004-0.004c-5.214-2.889-10.671-5.395-16.395-7.465l-0.006-0.006c-0.398-0.142-0.845-0.107-1.219 0.094l70.42 70.42c0.001 0.003 0.003 0.006 0.004 0.01l-70.43-70.43c-0.37 0.203-0.629 0.556-0.719 0.969l71.975 71.975c0.001 0.002 0.001 0.004 0.002 0.006l-71.979-71.979-3.094 14 55.74 55.74c1.395 3.552 2.589 7.201 3.564 10.936l-35.1-35.1c0.041 0.041 0.08 0.086 0.121 0.127l-0.127-0.127c-15.262-15.262-36.27-24.742-59.3-24.742v0.002c-46.45 0-84.12 38.01-84.12 84.34 0 23.426 9.509 44.679 24.861 60.03l0.25 0.25c-0.082-0.081-0.169-0.157-0.25-0.238l34.986 34.986c-3.375-0.872-6.678-1.928-9.902-3.145l-56.975-56.973-13.748 3.813-0.002-0.002c-0.4 0.111-0.716 0.352-0.906 0.719l69.42 69.42c-0.002-0.001-0.004-0.001-0.006-0.002l-69.42-69.42c-0.186 0.363-0.203 0.804-0.063 1.189l0.002 0.002c2.114 5.745 4.673 11.267 7.625 16.5l43.28 43.28c-0.003-0.002-0.006-0.004-0.01-0.006l-43.27-43.27-26.531 43.719c-0.707 1.152-0.552 2.665 0.406 3.625l3.75 3.75-14.809 14.84 0.004 0.006 13.06 13.06-0.002 0.002-13.06-13.06c-0.573 0.575-0.573 1.521 0 2.094l97.91 97.91c15.447 3.456 31.505 5.293 47.994 5.293 120.9 0 218.91-98.01 218.91-218.91 0-16.871-1.913-33.3-5.525-49.07l-86.26-86.26c0.024 0.024 0.041 0.051 0.063 0.076l-11.07-11.07c-0.27-0.27-0.632-0.431-1.014-0.436l-0.006-0.006"/>
 <path d="m368.13 106.28c-0.392 0-0.786 0.162-1.063 0.438l-15.25 15.281-5.438-5.406c-0.987-0.984-2.522-1.138-3.688-0.375l-43.37 28.438c-0.076 0.046-0.147 0.101-0.219 0.156-5.218-2.891-10.678-5.398-16.406-7.469-0.398-0.142-0.845-0.107-1.219 0.094-0.37 0.203-0.629 0.556-0.719 0.969l-3.094 14c36.35 14.248 62.44 49.856 62.44 91.16 0 54.07-44.05 98.13-97.53 98.13-41.599 0-77.15-26.293-91.16-63.19l-13.75 3.813c-0.4 0.111-0.716 0.352-0.906 0.719-0.186 0.363-0.204 0.803-0.063 1.188 2.114 5.745 4.673 11.267 7.625 16.5l-26.531 43.719c-0.707 1.152-0.552 2.665 0.406 3.625l3.75 3.75-14.813 14.844c-0.573 0.575-0.573 1.521 0 2.094l11 10.969c0.575 0.577 1.483 0.577 2.063 0l14.844-14.813 5.875 5.875c0.989 0.986 2.524 1.14 3.688 0.375l42.16-27.625c8.786 5.091 18.258 9 28.19 11.625l11.781 48.31c0.321 1.31 1.521 2.25 2.875 2.25h32.13c1.391 0 2.593-1.01 2.875-2.375l10.09-48.656c9.366-2.63 18.266-6.423 26.5-11.219l43.625 26.469c1.157 0.702 2.604 0.522 3.563-0.438l22.719-22.719c0.982-0.987 1.167-2.522 0.406-3.688l-27.969-42.656c4.949-8.815 8.743-18.315 11.219-28.375l48.31-11.844c1.315-0.322 2.25-1.49 2.25-2.844v-32.12c0-1.391-0.982-2.591-2.344-2.875l-49.719-10.344c-2.603-8.647-6.216-16.896-10.719-24.625l27-44.47c0.702-1.159 0.552-2.667-0.406-3.625l-4.25-4.219 15.281-15.313c0.575-0.576 0.575-1.487 0-2.063l-11-11c-0.274-0.275-0.642-0.438-1.031-0.438m-125.56 52.969c-46.45 0-84.12 38.01-84.12 84.34 0 46.631 37.675 84.66 84.13 84.66 46.12 0 84.13-38.02 84.13-84.66 0-46.33-38-84.34-84.12-84.34m-34.875 43.22h74.5v73.938c-4.962-5.207-0.015 0.051-29.813-29.344-20.642 9.05-26.659 23.879-18.469 56.38-30.07-31.634-41.25-54.859-6.094-81.09l-19.563-19.406-0.563-0.469" fill="#fff"/>
</svg>
