<?xml version="1.0" encoding="UTF-8" standalone="no"?>
<svg xmlns="http://www.w3.org/2000/svg" height="512" viewBox="0 0 512 512" width="512" version="1.1">
 <metadata id="metadata74"/>
 <path id="path4" d="m471.95 253.05c0 120.9-98.01 218.9-218.9 218.9-120.9 0-218.9-98.01-218.9-218.9 0-120.9 98.01-218.9 218.9-218.9 120.9 0 218.9 98.01 218.9 218.9" fill-rule="evenodd" fill="#BF9E73"/>
 <path id="path6" fill-opacity="0.235" d="m256 103.53c-16.01 3.498-2.4 27.783-25.22 21.375-34.64 6.399-66.19 27.27-86 56.34-18.808-18.477-31.32 9.499-11.906 18.75-9.07 24.04-15.05 52.41-9.531 78.906 0.626 18.249 21.518 36.21-1.563 46.03 0.378 12.561 14.391 18.845 21.5 28.16 0 0 58.03 58.24 118.53 118.66 113.9-4.49 205.42-95.99 209.94-209.87-28.636-28.633-57.29-57.2-86.09-85.66-11.635-0.429-20.09 6.283-27.625-7.375-20.19-22.816-48.07-38.15-77.44-44.688-8.104-6.814-14.329-17.542-24.594-20.625"/>
 <g id="g8" fill-rule="evenodd">
  <path id="path10" fill-opacity="0.067" d="m256 1c-140.83 0-255 114.17-255 255s114.17 255 255 255 255-114.17 255-255-114.17-255-255-255m8.827 44.931c120.9 0 218.9 98 218.9 218.9s-98 218.9-218.9 218.9-218.93-98-218.93-218.9 98.03-218.9 218.93-218.9"/>
  <g id="g12" fill-opacity="0.129">
   <path id="path14" d="m256 4.433c-138.94 0-251.57 112.63-251.57 251.57s112.63 251.57 251.57 251.57 251.57-112.63 251.57-251.57-112.63-251.57-251.57-251.57m5.885 38.556c120.9 0 218.9 98 218.9 218.9s-98 218.9-218.9 218.9-218.93-98-218.93-218.9 98.03-218.9 218.93-218.9"/>
   <path id="path16" d="m256 8.356c-136.77 0-247.64 110.87-247.64 247.64s110.87 247.64 247.64 247.64 247.64-110.87 247.64-247.64-110.87-247.64-247.64-247.64m2.942 31.691c120.9 0 218.9 98 218.9 218.9s-98 218.9-218.9 218.9-218.93-98-218.93-218.9 98.03-218.9 218.93-218.9"/>
  </g>
  <path id="path18" d="m253.04 7.859c-135.42 0-245.19 109.78-245.19 245.19 0 135.42 109.78 245.19 245.19 245.19 135.42 0 245.19-109.78 245.19-245.19 0-135.42-109.78-245.19-245.19-245.19zm0 26.297c120.9 0 218.9 98 218.9 218.9s-98 218.9-218.9 218.9-218.93-98-218.93-218.9 98.03-218.9 218.93-218.9z" stroke-opacity="0.31" stroke="#000" stroke-width="4.904" fill="#fff"/>
 </g>
 <g id="g66" fill="#fff">
  <path id="path68" d="m6.773 285.59c-0.161 0-0.291 0.129-0.291 0.29v0.299c-1.283 0.09-2.395 0.777-3.078 1.775l-0.273-0.16c-0.14-0.08-0.311-0.03-0.392 0.109s-0.04 0.318 0.1 0.398l0.264 0.154c-0.261 0.534-0.41 1.132-0.41 1.766s0.149 1.232 0.41 1.766l-0.264 0.154c-0.14 0.08-0.181 0.259-0.1 0.398s0.252 0.189 0.392 0.109l0.273-0.15c0.683 0.998 1.795 1.685 3.078 1.775v0.299c0 0.161 0.13 0.29 0.291 0.29s0.291-0.129 0.291-0.29v-0.299c1.283-0.09 2.395-0.777 3.078-1.775l0.273 0.154c0.14 0.08 0.311 0.03 0.392-0.109s0.04-0.318-0.1-0.398l-0.264-0.154c0.261-0.534 0.41-1.132 0.41-1.766s-0.149-1.232-0.41-1.766l0.264-0.154c0.14-0.08 0.181-0.259 0.1-0.398s-0.252-0.189-0.392-0.109l-0.273 0.154c-0.683-0.998-1.795-1.685-3.078-1.775v-0.299c0-0.161-0.13-0.29-0.291-0.29m-1.494 1.829c0.113-0.014 0.231 0.041 0.291 0.145l0.291 0.507c0.081 0.139 0.031 0.309-0.109 0.389s-0.32 0.039-0.401-0.1l-0.291-0.51c-0.081-0.139-0.031-0.318 0.109-0.398 0.035-0.02 0.072-0.032 0.109-0.036m2.914 0.009c0.028-0.005 0.054-0.003 0.082 0 0.038 0.004 0.074 0.016 0.109 0.036 0.14 0.08 0.19 0.259 0.109 0.398l-0.291 0.5c-0.081 0.14-0.261 0.19-0.401 0.11s-0.19-0.26-0.109-0.4l0.291-0.498c0.045-0.078 0.126-0.131 0.209-0.145m-4.317 2.499h0.583c0.161 0 0.291 0.129 0.291 0.29s-0.13 0.29-0.291 0.29h-0.583c-0.161 0-0.291-0.129-0.291-0.29s0.13-0.29 0.291-0.29m5.228 0h0.583c0.161 0 0.291 0.129 0.291 0.29s-0.13 0.29-0.291 0.29h-0.583c-0.161 0-0.291-0.129-0.291-0.29s0.13-0.29 0.291-0.29m-2.331 0.009c0.161 0 0.291 0.13 0.291 0.29s-0.13 0.29-0.291 0.29-0.291-0.13-0.291-0.29 0.13-0.29 0.291-0.29m-1.202 2.028c0.027-0.005 0.054-0.003 0.082 0 0.038 0.004 0.074 0.025 0.109 0.045 0.14 0.08 0.19 0.25 0.109 0.389l-0.291 0.507c-0.081 0.139-0.261 0.18-0.401 0.1s-0.181-0.25-0.1-0.389l0.291-0.507c0.045-0.078 0.119-0.131 0.2-0.145m2.331 0.009c0.113-0.014 0.231 0.032 0.291 0.136l0.291 0.507c0.081 0.139 0.031 0.318-0.109 0.398s-0.32 0.03-0.401-0.109l-0.291-0.51c-0.081-0.139-0.031-0.309 0.109-0.389 0.035-0.02 0.072-0.032 0.109-0.036" transform="matrix(33.006 0 0 32.881 32.439 -9287.1)"/>
 </g>
</svg>
