<?xml version="1.0" encoding="UTF-8" standalone="no"?>
<svg xmlns="http://www.w3.org/2000/svg" height="512" viewBox="0 0 512 512" width="512" version="1.1">
 <metadata id="metadata86"/>
 <g id="g4" transform="translate(0,-540.36)">
  <text id="text6" font-size="208.33" line-height="125%" y="1089.88" x="-1160.48" font-family="Gentium Book Basic" word-spacing="0" letter-spacing="0"><tspan id="tspan8" y="1089.88" x="-1160.48"/>
  </text>
  <text id="text10" font-size="75.7" transform="scale(4.0128 .2492)" y="3810.63" x="28.534" font-family="Arial" text-anchor="middle"/>
  <g id="g12" fill-rule="evenodd">
   <path id="path14" fill="#BF9E73" d="m471.95 793.41c0 120.9-98.01 218.9-218.9 218.9-120.9 0-218.9-98.01-218.9-218.9 0-120.9 98.01-218.9 218.9-218.9 120.9 0 218.9 98.01 218.9 218.9"/>
   <path id="path16" d="m161.38 124.66c-16.11 0-29.19 13.08-29.19 29.19 0 8.44 3.598 16.04 9.344 21.375 0.328 0.335 0.656 0.681 1 1 0.328 0.335 0.656 0.681 1 1 0.328 0.335 0.656 0.681 1 1 0.328 0.335 0.625 0.681 0.969 1 0.332 0.34 0.651 0.645 1 0.969 0.328 0.335 0.656 0.681 1 1 0.328 0.335 0.656 0.681 1 1 0.328 0.335 0.656 0.681 1 1 0.328 0.335 0.656 0.681 1 1 0.328 0.335 0.625 0.681 0.969 1 0.332 0.34 0.651 0.676 1 1 0.328 0.335 0.656 0.65 1 0.969 0.328 0.335 0.656 0.681 1 1 0.328 0.335 0.656 0.681 1 1 0.174 0.178 0.352 0.358 0.531 0.531-12.958 19.4-20.656 42.608-20.656 67.72 0 26.863 8.599 51.688 23.22 71.875-14.709 1.496-26.375 13.774-26.375 28.875 0 8.557 3.687 16.253 9.563 21.594 0.005 0.005-0.005 0.026 0 0.031 0.471 0.519 0.993 0.985 1.5 1.469 0.323 0.338 0.662 0.677 1 1 0.378 0.396 0.757 0.813 1.156 1.188 0.103 0.106 0.208 0.208 0.313 0.313 0.006 0.005 0.026-0.005 0.031 0 0.325 0.325 0.629 0.66 0.969 0.969 0.005 0.005-0.005 0.026 0 0.031s0.027-0.005 0.031 0c0.325 0.325 0.629 0.66 0.969 0.969 0.005 0.005-0.005 0.026 0 0.031 0.471 0.518 0.962 1.017 1.469 1.5 0.322 0.338 0.662 0.678 1 1 0.322 0.338 0.662 0.678 1 1 0.483 0.507 0.982 0.966 1.5 1.438 0.005 0.005-0.005 0.026 0 0.031s0.027-0.005 0.031 0c0.325 0.325 0.629 0.66 0.969 0.969 0.005 0.005-0.005 0.026 0 0.031s0.027-0.005 0.031 0c0.11 0.11 0.201 0.236 0.313 0.344 0.371 0.396 0.764 0.751 1.156 1.125 0.323 0.338 0.662 0.677 1 1 0.323 0.338 0.662 0.677 1 1 0.484 0.507 0.95 1.029 1.469 1.5 0.33 0.33 0.654 0.655 1 0.969 0.005 0.005-0.005 0.026 0 0.031s0.027-0.005 0.031 0c0.325 0.325 0.629 0.66 0.969 0.969 0.005 0.005-0.005 0.026 0 0.031 0.471 0.518 0.962 1.017 1.469 1.5 0.322 0.338 0.662 0.678 1 1 0.483 0.507 0.982 0.998 1.5 1.469 0.33 0.33 0.654 0.655 1 0.969 0.005 0.005-0.005 0.026 0 0.031s0.027-0.005 0.031 0c0.325 0.325 0.629 0.66 0.969 0.969 0.005 0.005-0.005 0.026 0 0.031 0.471 0.519 0.993 0.985 1.5 1.469 0.323 0.338 0.662 0.677 1 1 0.323 0.338 0.662 0.677 1 1 0.484 0.507 0.95 0.997 1.469 1.469 0.005 0.005-0.005 0.026 0 0.031s0.027-0.005 0.031 0c0.325 0.325 0.629 0.66 0.969 0.969 0.005 0.005-0.005 0.026 0 0.031s0.027-0.005 0.031 0c0.11 0.11 0.201 0.236 0.313 0.344 0.371 0.395 0.733 0.782 1.125 1.156 0.322 0.338 0.662 0.678 1 1 0.322 0.338 0.662 0.678 1 1 0.483 0.507 0.982 0.966 1.5 1.438 0.005 0.005-0.005 0.026 0 0.031s0.027-0.005 0.031 0c0.325 0.325 0.629 0.66 0.969 0.969 0.005 0.005-0.005 0.026 0 0.031s0.027-0.005 0.031 0c0.11 0.11 0.201 0.236 0.313 0.344 0.371 0.396 0.764 0.751 1.156 1.125 0.323 0.338 0.662 0.677 1 1 0.323 0.338 0.662 0.677 1 1 0.484 0.507 0.95 1.029 1.469 1.5 0.33 0.33 0.654 0.655 1 0.969 0.005 0.005-0.005 0.026 0 0.031s0.027-0.005 0.031 0c0.325 0.325 0.629 0.66 0.969 0.969 0.005 0.005-0.005 0.026 0 0.031 0.471 0.518 0.962 1.017 1.469 1.5 0.322 0.338 0.662 0.678 1 1 0.377 0.396 0.789 0.782 1.188 1.156 0.103 0.106 0.208 0.208 0.313 0.313 0.006 0.005 0.026-0.005 0.031 0 0.325 0.325 0.629 0.66 0.969 0.969 0.005 0.005-0.005 0.026 0 0.031s0.027-0.005 0.031 0c0.325 0.325 0.629 0.66 0.969 0.969 0.005 0.005-0.005 0.026 0 0.031 0.471 0.519 0.993 0.985 1.5 1.469 0.323 0.338 0.662 0.677 1 1 0.323 0.338 0.662 0.677 1 1 0.484 0.507 0.95 0.997 1.469 1.469 0.005 0.005-0.005 0.026 0 0.031s0.027-0.005 0.031 0c0.325 0.325 0.629 0.66 0.969 0.969 0.005 0.005-0.005 0.026 0 0.031s0.027-0.005 0.031 0c0.11 0.11 0.201 0.236 0.313 0.344 0.371 0.395 0.733 0.782 1.125 1.156 0.322 0.338 0.662 0.678 1 1 0.322 0.338 0.662 0.678 1 1 0.483 0.507 0.982 0.998 1.5 1.469 0.33 0.33 0.654 0.655 1 0.969 0.005 0.005-0.005 0.026 0 0.031s0.027-0.005 0.031 0c0.325 0.325 0.629 0.66 0.969 0.969 0.005 0.005-0.005 0.026 0 0.031 0.471 0.519 0.993 0.985 1.5 1.469 0.323 0.338 0.662 0.677 1 1 0.484 0.507 0.95 1.029 1.469 1.5 0.33 0.33 0.654 0.655 1 0.969 0.005 0.005-0.005 0.026 0 0.031s0.027-0.005 0.031 0c0.325 0.325 0.629 0.66 0.969 0.969 0.005 0.005-0.005 0.026 0 0.031 0.471 0.518 0.962 1.017 1.469 1.5 0.322 0.338 0.662 0.678 1 1 0.322 0.338 0.662 0.678 1 1 0.483 0.507 0.982 0.966 1.5 1.438 0.005 0.005-0.005 0.026 0 0.031s0.027-0.005 0.031 0c0.325 0.325 0.629 0.66 0.969 0.969 0.005 0.005-0.005 0.026 0 0.031s0.027-0.005 0.031 0c0.11 0.11 0.201 0.236 0.313 0.344 0.371 0.396 0.764 0.751 1.156 1.125 0.323 0.338 0.662 0.677 1 1 0.323 0.338 0.662 0.677 1 1 0.484 0.507 0.95 0.997 1.469 1.469 0.005 0.005-0.005 0.026 0 0.031s0.027-0.005 0.031 0c0.325 0.325 0.629 0.66 0.969 0.969 0.005 0.005-0.005 0.026 0 0.031s0.027-0.005 0.031 0c0.11 0.11 0.201 0.236 0.313 0.344 0.371 0.395 0.733 0.782 1.125 1.156 0.322 0.338 0.662 0.678 1 1 0.322 0.338 0.662 0.678 1 1 0.483 0.507 0.982 0.998 1.5 1.469 0.33 0.33 0.654 0.655 1 0.969 0.005 0.005-0.005 0.026 0 0.031s0.027-0.005 0.031 0c0.325 0.325 0.629 0.66 0.969 0.969 0.005 0.005-0.005 0.026 0 0.031 0.471 0.519 0.993 0.985 1.5 1.469 0.323 0.338 0.662 0.677 1 1 0.378 0.396 0.757 0.813 1.156 1.188 0.01 0.011 0.021 0.021 0.031 0.031 6.599 0.599 13.276 0.938 20.03 0.938 120.9 0 218.91-98.01 218.91-218.91 0-4.786-0.166-9.54-0.469-14.25-0.032-0.03-0.061-0.064-0.094-0.094-0.005-0.005 0.005-0.026 0-0.031-0.476-0.524-0.987-1.012-1.5-1.5-0.323-0.338-0.662-0.678-1-1-0.323-0.338-0.662-0.678-1-1-0.479-0.501-0.956-0.971-1.469-1.438l-0.031-0.031c-0.155-0.17-0.31-0.334-0.469-0.5-0.166-0.159-0.33-0.314-0.5-0.469l-0.031-0.031c-0.466-0.513-0.936-0.99-1.438-1.469-0.322-0.338-0.662-0.677-1-1-0.322-0.338-0.662-0.677-1-1-0.494-0.518-1-1.019-1.531-1.5-0.155-0.17-0.31-0.334-0.469-0.5-0.166-0.159-0.33-0.314-0.5-0.469l-0.031-0.031c-0.309-0.34-0.644-0.644-0.969-0.969-0.005-0.006 0.005-0.026 0-0.031-0.105-0.105-0.206-0.209-0.313-0.313-0.379-0.404-0.786-0.805-1.188-1.188-0.323-0.338-0.662-0.678-1-1-0.484-0.507-0.981-0.997-1.5-1.469-0.155-0.17-0.31-0.334-0.469-0.5-0.166-0.159-0.33-0.314-0.5-0.469l-0.031-0.031c-0.155-0.17-0.31-0.334-0.469-0.5-0.166-0.159-0.33-0.314-0.5-0.469-0.005-0.005 0.005-0.026 0-0.031-0.466-0.513-0.967-0.99-1.469-1.469-0.322-0.338-0.662-0.677-1-1-0.322-0.338-0.662-0.677-1-1-0.488-0.513-0.976-0.993-1.5-1.469l-0.031-0.031c-0.155-0.17-0.31-0.334-0.469-0.5-0.166-0.159-0.33-0.314-0.5-0.469l-0.031-0.031c-0.476-0.524-0.956-1.012-1.469-1.5-0.323-0.338-0.662-0.678-1-1-0.323-0.338-0.662-0.678-1-1-0.479-0.501-0.956-0.971-1.469-1.438l-0.031-0.031c-0.155-0.17-0.31-0.334-0.469-0.5-0.166-0.159-0.33-0.314-0.5-0.469l-0.031-0.031c-0.466-0.513-0.936-0.99-1.438-1.469-0.322-0.338-0.662-0.677-1-1-0.322-0.338-0.662-0.677-1-1-0.494-0.518-1-1.019-1.531-1.5-0.155-0.17-0.31-0.334-0.469-0.5-0.166-0.159-0.33-0.314-0.5-0.469l-0.031-0.031c-0.155-0.17-0.31-0.334-0.469-0.5-0.166-0.159-0.33-0.314-0.5-0.469-0.005-0.005 0.005-0.026 0-0.031-0.476-0.524-0.987-1.012-1.5-1.5-0.323-0.338-0.662-0.678-1-1-0.474-0.496-0.962-1.01-1.469-1.469-0.005-0.005-0.026 0.005-0.031 0-0.155-0.17-0.31-0.334-0.469-0.5-0.166-0.159-0.33-0.314-0.5-0.469l-0.031-0.031c-0.155-0.17-0.31-0.334-0.469-0.5-0.166-0.159-0.33-0.314-0.5-0.469-0.005-0.005 0.005-0.026 0-0.031-0.466-0.513-0.967-0.99-1.469-1.469-0.322-0.338-0.662-0.677-1-1-0.322-0.338-0.662-0.677-1-1-0.488-0.513-0.976-0.993-1.5-1.469l-0.031-0.031c-0.155-0.17-0.31-0.334-0.469-0.5-0.166-0.159-0.33-0.314-0.5-0.469l-0.031-0.031c-0.476-0.524-0.956-1.012-1.469-1.5-0.323-0.338-0.662-0.678-1-1-0.323-0.338-0.662-0.678-1-1-0.484-0.507-0.981-0.997-1.5-1.469-0.155-0.17-0.31-0.334-0.469-0.5-0.166-0.159-0.33-0.314-0.5-0.469l-0.031-0.031c-0.309-0.34-0.644-0.644-0.969-0.969-0.005-0.006 0.005-0.026 0-0.031-0.105-0.105-0.206-0.209-0.313-0.313-0.369-0.394-0.766-0.783-1.156-1.156-0.322-0.338-0.662-0.677-1-1-0.494-0.518-1-1.019-1.531-1.5-0.155-0.17-0.31-0.334-0.469-0.5-0.166-0.159-0.33-0.314-0.5-0.469l-0.031-0.031c-0.155-0.17-0.31-0.334-0.469-0.5-0.166-0.159-0.33-0.314-0.5-0.469-0.005-0.005 0.005-0.026 0-0.031-0.476-0.524-0.987-1.012-1.5-1.5-0.323-0.338-0.662-0.678-1-1-0.323-0.338-0.662-0.678-1-1-0.479-0.501-0.956-0.971-1.469-1.438l-0.031-0.031c-0.155-0.17-0.31-0.334-0.469-0.5-0.166-0.159-0.33-0.314-0.5-0.469l-0.031-0.031c-0.466-0.513-0.936-0.99-1.438-1.469-0.322-0.338-0.662-0.677-1-1-0.322-0.338-0.662-0.677-1-1-0.488-0.513-0.976-0.993-1.5-1.469l-0.031-0.031c-0.155-0.17-0.31-0.334-0.469-0.5-0.166-0.159-0.33-0.314-0.5-0.469l-0.031-0.031c-0.476-0.524-0.956-1.012-1.469-1.5-0.323-0.338-0.662-0.678-1-1-0.323-0.338-0.662-0.678-1-1-0.484-0.507-0.981-0.997-1.5-1.469-0.155-0.17-0.31-0.334-0.469-0.5-0.166-0.159-0.33-0.314-0.5-0.469l-0.031-0.031c-0.155-0.17-0.31-0.334-0.469-0.5-0.166-0.159-0.33-0.314-0.5-0.469-0.005-0.005 0.005-0.026 0-0.031-0.466-0.513-0.967-0.99-1.469-1.469-0.322-0.338-0.662-0.677-1-1-0.494-0.518-1-1.019-1.531-1.5-0.155-0.17-0.31-0.334-0.469-0.5-0.166-0.159-0.33-0.314-0.5-0.469l-0.031-0.031c-0.155-0.17-0.31-0.334-0.469-0.5-0.166-0.159-0.33-0.314-0.5-0.469-0.005-0.005 0.005-0.026 0-0.031-0.476-0.524-0.987-1.012-1.5-1.5-0.323-0.338-0.662-0.678-1-1-0.323-0.338-0.662-0.678-1-1-0.479-0.501-0.956-0.971-1.469-1.438l-0.031-0.031c-0.155-0.17-0.31-0.334-0.469-0.5-0.166-0.159-0.33-0.314-0.5-0.469l-0.031-0.031c-0.466-0.513-0.936-0.99-1.438-1.469-0.322-0.338-0.662-0.677-1-1-0.322-0.338-0.662-0.677-1-1-0.494-0.518-1-1.019-1.531-1.5-0.155-0.17-0.31-0.334-0.469-0.5-0.166-0.159-0.33-0.314-0.5-0.469l-0.031-0.031c-0.309-0.34-0.644-0.644-0.969-0.969-0.005-0.006 0.005-0.026 0-0.031-0.105-0.105-0.206-0.209-0.313-0.313-0.379-0.404-0.786-0.805-1.188-1.188-0.323-0.338-0.662-0.678-1-1-0.484-0.507-0.981-0.997-1.5-1.469-0.155-0.17-0.31-0.334-0.469-0.5-0.166-0.159-0.33-0.314-0.5-0.469-5.285-5.293-12.563-8.594-20.625-8.594-14.839 0-27.03 11.1-28.875 25.438-17.486-9.631-37.631-15.06-59-15.06-21.21 0-41.14 5.529-58.5 15.06-0.16-0.16-0.336-0.313-0.5-0.469-0.317-0.332-0.636-0.683-0.969-1-0.322-0.338-0.662-0.678-1-1-0.483-0.507-0.982-0.966-1.5-1.438l-0.031-0.031c-0.155-0.17-0.31-0.334-0.469-0.5-0.166-0.159-0.33-0.314-0.5-0.469l-0.031-0.031c-0.471-0.519-0.962-0.985-1.469-1.469-0.323-0.338-0.662-0.677-1-1-0.323-0.338-0.662-0.677-1-1-0.489-0.513-0.975-1.024-1.5-1.5-0.155-0.17-0.31-0.334-0.469-0.5-0.166-0.159-0.33-0.314-0.5-0.469l-0.031-0.031c-0.309-0.34-0.644-0.644-0.969-0.969-0.471-0.518-0.962-1.048-1.469-1.531-0.322-0.338-0.662-0.678-1-1-0.489-0.513-1.01-0.993-1.531-1.469-0.155-0.17-0.31-0.334-0.469-0.5-0.166-0.159-0.33-0.314-0.5-0.469-5.285-5.293-12.563-8.594-20.625-8.594" fill-opacity="0.235" transform="translate(0,540.36)"/>
   <path id="path18" fill-opacity="0.067" d="m256 541.36c-140.83 0-255 114.17-255 255s114.17 255 255 255 255-114.17 255-255-114.17-255-255-255m8.827 44.931c120.9 0 218.9 98 218.9 218.9s-98 218.9-218.9 218.9-218.93-98-218.93-218.9 98.03-218.9 218.93-218.9"/>
   <g id="g20" fill-opacity="0.129">
    <path id="path22" d="m256 544.79c-138.94 0-251.57 112.63-251.57 251.57s112.63 251.54 251.57 251.54 251.57-112.6 251.57-251.54-112.63-251.57-251.57-251.57m5.885 38.556c120.9 0 218.9 98 218.9 218.9s-98 218.9-218.9 218.9-218.93-98-218.93-218.9 98.03-218.9 218.93-218.9"/>
    <path id="path24" d="m256 548.72c-136.77 0-247.64 110.87-247.64 247.64s110.87 247.64 247.64 247.64 247.64-110.87 247.64-247.64-110.87-247.64-247.64-247.64m2.942 31.691c120.9 0 218.9 98 218.9 218.9s-98 218.9-218.9 218.9-218.93-98-218.93-218.9 98.03-218.9 218.93-218.9"/>
   </g>
   <path id="path26" d="m253.04 548.22c-135.42 0-245.19 109.78-245.19 245.19 0 135.42 109.78 245.19 245.19 245.19 135.42 0 245.19-109.78 245.19-245.19 0-135.42-109.78-245.19-245.19-245.19zm0 26.297c120.9 0 218.9 98 218.9 218.9s-98 218.9-218.9 218.9-218.93-98-218.93-218.9 98.03-218.9 218.93-218.9z" stroke-opacity="0.31" stroke="#000" stroke-width="4.904" fill="#fff"/>
  </g>
  <text id="text28" font-size="129.23" line-height="125%" y="771.72" x="729.64" font-family="Gentium Book Basic" word-spacing="0" letter-spacing="0"><tspan id="tspan30" y="771.72" x="729.64"/>
  </text>
  <text id="text32" font-size="46.954" transform="scale(4.0128 .2492)" y="2747.64" x="378.91" font-family="Arial" text-anchor="middle"/>
  <text id="text34" font-size="129.23" line-height="125%" y="691.72" x="1310.91" font-family="Gentium Book Basic" word-spacing="0" letter-spacing="0"><tspan id="tspan36" y="691.72" x="1310.91"/>
  </text>
  <text id="text38" font-size="46.954" transform="scale(4.0128 .2492)" y="2426.6" x="523.76" font-family="Arial" text-anchor="middle"/>
  <text id="text40" font-size="129.23" line-height="125%" y="510.46" x="239.33" font-family="Gentium Book Basic" word-spacing="0" letter-spacing="0"><tspan id="tspan42" y="510.46" x="239.33"/>
  </text>
  <text id="text44" font-size="46.954" transform="scale(4.0128 .2492)" y="1699.25" x="256.72" font-family="Arial" text-anchor="middle"/>
  <text id="text46" font-size="129.23" line-height="125%" y="293.99" x="1337.38" font-family="Gentium Book Basic" word-spacing="0" letter-spacing="0"><tspan id="tspan48" y="293.99" x="1337.38"/>
  </text>
  <text id="text50" font-size="46.954" transform="scale(4.0128 .2492)" y="830.57" x="530.36" font-family="Arial" text-anchor="middle"/>
  <text id="text52" font-size="129.23" line-height="125%" y="213.99" x="1918.65" font-family="Gentium Book Basic" word-spacing="0" letter-spacing="0"><tspan id="tspan54" y="213.99" x="1918.65"/>
  </text>
  <text id="text56" font-size="46.954" transform="scale(4.0128 .2492)" y="509.54" x="675.21" font-family="Arial" text-anchor="middle"/>
  <text id="text58" font-size="129.23" line-height="125%" y="-258.41" x="1529.53" font-family="Gentium Book Basic" word-spacing="0" letter-spacing="0"><tspan id="tspan60" y="-258.41" x="1529.53"/>
  </text>
  <text id="text62" font-size="46.954" transform="scale(4.0128 .2492)" y="-1386.12" x="578.24" font-family="Arial" text-anchor="middle"/>
  <text id="text64" font-size="129.23" line-height="125%" y="-338.42" x="2110.79" font-family="Gentium Book Basic" word-spacing="0" letter-spacing="0"><tspan id="tspan66" y="-338.42" x="2110.79"/>
  </text>
  <text id="text68" font-size="46.954" transform="scale(4.0128 .2492)" y="-1707.16" x="723.09" font-family="Arial" text-anchor="middle"/>
  <text id="text70" font-size="208.33" line-height="125%" y="1076.3" x="277.99" font-family="Gentium Book Basic" word-spacing="0" letter-spacing="0"><tspan id="tspan72" y="1076.3" x="277.99"/>
  </text>
  <g id="g74" fill="#fff" transform="matrix(10.043 0 0 10.043 -8470.6 -8960.1)" fill-rule="evenodd">
   <path id="path76" d="m859.53 418.06c-1.604 0-2.906 1.302-2.906 2.906 0 1.582 1.27 2.871 2.844 2.906-1.575 2.056-2.531 4.613-2.531 7.406 0 2.675 0.857 5.146 2.313 7.156-1.465 0.149-2.625 1.371-2.625 2.875 0 1.604 1.302 2.906 2.906 2.906 1.551 0 2.792-1.22 2.875-2.75 1.914 1.262 4.219 2 6.688 2 2.143 0 4.156-0.559 5.906-1.531 0.282 1.309 1.451 2.281 2.844 2.281 1.604 0 2.906-1.302 2.906-2.906 0-1.263-0.811-2.318-1.938-2.719 1.537-2.04 2.469-4.563 2.469-7.313 0-2.847-0.988-5.456-2.625-7.531 1.208-0.353 2.094-1.46 2.094-2.781 0-1.604-1.302-2.906-2.906-2.906-1.478 0-2.692 1.103-2.875 2.531-1.741-0.959-3.747-1.5-5.875-1.5-2.459 0-4.747 0.747-6.656 2 0.002-0.041 0-0.083 0-0.125 0-1.604-1.302-2.906-2.906-2.906m0 1.75c0.628 0 1.156 0.529 1.156 1.156 0 0.628-0.529 1.125-1.156 1.125-0.628 0-1.125-0.497-1.125-1.125s0.497-1.156 1.125-1.156m18.313 0c0.628 0 1.156 0.529 1.156 1.156 0 0.628-0.529 1.125-1.156 1.125-0.628 0-1.125-0.497-1.125-1.125s0.497-1.156 1.125-1.156m-8.75 1.188c5.684 0 10.313 4.598 10.313 10.281 0 5.684-4.629 10.281-10.313 10.281s-10.281-4.598-10.281-10.281c0-5.684 4.598-10.281 10.281-10.281m-9.563 19.16c0.628 0 1.156 0.529 1.156 1.156 0 0.628-0.529 1.125-1.156 1.125-0.628 0-1.125-0.497-1.125-1.125s0.497-1.156 1.125-1.156m18.313 0c0.628 0 1.156 0.529 1.156 1.156 0 0.628-0.529 1.125-1.156 1.125-0.628 0-1.125-0.497-1.125-1.125s0.497-1.156 1.125-1.156" transform="translate(0,540.36)"/>
   <path id="path78" d="m871 422.98c0 5.858-4.749 10.607-10.607 10.607s-10.607-4.749-10.607-10.607 4.749-10.607 10.607-10.607 10.607 4.749 10.607 10.607" transform="matrix(.29762 0 0 .29762 613.04 845.76)"/>
   <path id="path80" d="m869.09 422.69c-4.742 0-8.563 3.852-8.563 8.594s3.82 8.594 8.563 8.594c4.742 0 8.594-3.852 8.594-8.594s-3.852-8.594-8.594-8.594m0 3.813c2.65 0 4.813 2.131 4.813 4.781s-2.163 4.813-4.813 4.813-4.781-2.163-4.781-4.813 2.131-4.781 4.781-4.781" transform="translate(0,540.36)"/>
  </g>
 </g>
</svg>
