<?xml version="1.0" encoding="UTF-8" standalone="no"?>
<svg
   xmlns:dc="http://purl.org/dc/elements/1.1/"
   xmlns:cc="http://creativecommons.org/ns#"
   xmlns:rdf="http://www.w3.org/1999/02/22-rdf-syntax-ns#"
   xmlns:svg="http://www.w3.org/2000/svg"
   xmlns="http://www.w3.org/2000/svg"
   xmlns:sodipodi="http://sodipodi.sourceforge.net/DTD/sodipodi-0.dtd"
   xmlns:inkscape="http://www.inkscape.org/namespaces/inkscape"
   height="512"
   viewBox="0 0 512 512"
   width="512"
   version="1.1"
   id="svg2"
   inkscape:version="0.91 r13725"
   sodipodi:docname="knemo.svg">
  <defs
     id="defs17" />
  <sodipodi:namedview
     pagecolor="#ffffff"
     bordercolor="#666666"
     borderopacity="1"
     objecttolerance="10"
     gridtolerance="10"
     guidetolerance="10"
     inkscape:pageopacity="0"
     inkscape:pageshadow="2"
     inkscape:window-width="1680"
     inkscape:window-height="1024"
     id="namedview15"
     showgrid="false"
     inkscape:zoom="0.4609375"
     inkscape:cx="-162.71186"
     inkscape:cy="256"
     inkscape:window-x="0"
     inkscape:window-y="0"
     inkscape:window-maximized="0"
     inkscape:current-layer="svg2" />
  <metadata
     id="metadata74">
    <rdf:RDF>
      <cc:Work
         rdf:about="">
        <dc:format>image/svg+xml</dc:format>
        <dc:type
           rdf:resource="http://purl.org/dc/dcmitype/StillImage" />
      </cc:Work>
    </rdf:RDF>
  </metadata>
  <path
     id="path4"
     d="m471.95 253.05c0 120.9-98.01 218.9-218.9 218.9-120.9 0-218.9-98.01-218.9-218.9 0-120.9 98.01-218.9 218.9-218.9 120.9 0 218.9 98.01 218.9 218.9"
     fill-rule="evenodd"
     fill="#BF9E73" />
  <path
     id="path6"
     d="m255.6 30.3c-23.675 0-46.528 3.482-68.1 9.952 2.407 11.629-0.167 23.919 11.431 23.757 7.491 10.05-14.926 2.979 1.263 10.723 9.31 6.956-9.835 10.951 1.695 17.193-13.288 6.505 2.147 34.03 12.02 40.919 16.244 12.974 7.203-27.476 25.328-29.58 9.849-10.667 27.12-17.524 39.41-28.26-12.01-0.925-19.04-8.03-7.672-12.417 20.927 20.343 5.267-9.612-6.317-14.359 11.209-3.383 22.11-0.931 20.552-9.706 3.681-2.555 3.969-4.557 2.373-6.07-10.461-1.414-21.14-2.157-31.983-2.157m-115.52 30.07c-6.91 3.872-13.6 8.08-20.06 12.602 6.096 0.244 10.591 1.597 14.174 10.384 16.02 8.757 1.404 23.618-5.577 28.717 11.676-6.544 32.14 25.865 26.56 7.888-6.872-4.76 18.469 7.645 5.331-7.826-12.09-18.481 0.942-8.257 6.04-3.944 17.338-14.749-19.609-16.558-10.384-31.737-4.511-3.466-9.797-10.867-16.08-16.08m-11.462 51.704c-0.377 0.211-0.721 0.444-1.078 0.74 0.335-0.221 0.69-0.456 1.078-0.74m64.15-39.19c-9.03 7.141 17.18 8.486 0 0m204.6 4.591c-11.663 9.718-18.901 24.22-27.27 36.914-18.01 7.704-17.349 40.763 2.773 30.2 5.386 8.924-3.763 22.976 11.924 11.308 12.653-15.885 2.224-41.564 23.757-51.58 1.568 7.789-19.86 36.887 5.177 32.11 22.633 0.81-16.431 2.122-5.423 15.838-11.437-6.438-5.5 17.576-20.429 11.986-12.933 6.674-21.419-3.098-18.457-13.804-10.174 5.631 3.18 21.538-14.482 22.493-3.956 13.328-36.496 11.294-17.995 24.866 8.214 20.2-30.587 1.276-19.566 25.513 9.429 23.966 29.17-7.917 37.19-14.08 14.985-11.03 36.963 17.5 25.667 20.336 14.221-2.548 10.878-16.05-1.294-21.353-6.754-16.618 21.373 8.184 19.813 16.516 9.927 17.635 5.859-18.08 15.961-2.28-1.179 16.668 40.64 3.931 20.675 25.17-17.16 3.28-34.09-4.173-48.869 0.616-13.754-0.116-13.02-14.07-18.03-17.563-17.495 1.348-39.16 1.197-50.872 14.605-12.666 16.486-30.906 39.527-17.1 60.58 13.814 31.19 48.06 1.606 67.757 20.03 5.853 7.681-5.076 16.823 8.01 25.14 4.925 17.724-5.594 34.545 6.502 51.49 6.254 15.934 10.153 39.796 33.432 25.24 24.637-14.07 18.06-39.992 38.39-54.35-16.09-29.533 19.702-42.46 28.625-66.43-19.496 2.708-36.887-15.765-41.597-34.33-8.19-9.02-6.067-22.297 3.081-5.361 12.574 11.559 12.852 45.838 36.11 28.19 2.636-1.046 6.404-2.801 10.23-4.992 0.682-6.902 1.064-13.89 1.14-20.953-13.04-0.031-23.681-29.56-4.314-8.597 1.47 0.592 2.899 1.134 4.283 1.664-0.2-11.1-1.127-22.02-2.804-32.692-1.869 2.946-5.721 3.185-11.493-2.835 2.318-14.528-15.375-25.612 3.636-30.813-14.988-47.956-44.846-89.33-84.15-118.78m-285.42 1.417c-1.576 1.205-3.139 2.423-4.684 3.667-2.503 6.145-7.1 12.08-8.658 7.333-44.23 39.24-73.64 94.8-78.82 157.24 6.203 10.748 17.34 29.11 17.964 21.877-8.29-8.236-16.832-32.947-2.804-10.938 12.565 20.92 29.531 34.493 54.29 39.471 13.537 4.368 24.67 19.388 36.575 16.08 6.732 16.835-19.952 33.01 0.894 48.715 10.882 15.897 29.18 26.336 19.289 48.653-6.369 20.07-4.404 41.75-8.72 60.917 6.108 3.533 12.389 6.811 18.826 9.798 3.02-13.186 5.601-26.11 15.807-35.28 18.835 0.142 3.612-19.229 22.308-16.7 11.408-14.186 14.703-31.13 33.956-36.759 2.3-17.22 32.02-43.582 1.325-50.29-8.342-3.901-29.835-5.285-28.19-7.21 3.326-17.09-27.748-21.973-40.981-28.964-17.374-11.7-43.487 19.433-49.608-7.395-3.652-8.441-17.01-8.544-10.877-21.569-11.06 10.436-32.687 7.244-27.02-12.91 8.602-16.974 41.638-17.798 47.27 2.619-7.815-22.517 15.1-40.06 27.824-56.08 2.591-7.657 17.993-14.213 12.695-4.04 9.03-0.309 22.689-15.759 6.656-8.628-0.227-14.09-14.04-10.07-18.518-8.07 8.306-12.507 50.987-5.655 33.12-26.1-13.842-5.321-12.714-36.37-26.714-19.07 1.178-10.658-28.502-31.522-27.855-13.65 3.622 15.992 0.652 34.411-7.06 44.894-1.609-23.434-43.747-18.289-38.33-43.26 7.847-11.902 17.06-28.318 17.933-26.838 13.06-4.732 23.719-17.865 12.11-27.516m18.734 7.765c-7.652 11.891 11.306 4.39 0 0m167.53 14.08c-8.958 9.784-20.76-2.586-20.953 5.824 1.624 2.541 8.123 20.686 22.37 7.303 7.646-3.058 4.617-10.766-1.417-13.13m-190.73 5.824c-16.991 14.08 28.862 15.393 3.605 1.633l-3.605-1.633m223.95 39.13c-11.789 7.625 6.097 23.525 0 31.03-7.665 12.671 28.491-0.891 9.182-11-1.323-8.354-10.586-18.462-9.151-20.03h-0.031m-8.04 15.13c-17.04 4.572-3.88 28.18 2.157 5.947 0.339-1.289 0.81-5.99-2.157-5.947m-136.47 17.07c-15.856 10.258-2.469 20.515 9.151 15.899-2.386-6.189-9.04-10.11-9.151-15.899m258.86 17.409c-1.073 10.04 22.812 25.614-2.958 20.521-13.628 1.517-34.05-0.405-16.885-16.516 5.425-3.09 19.676 10.695 12.263-2.157 2.628-0.159 5.104-1.092 7.58-1.849m37.715 7.734c-2.532 2.742-3.99 5.758 2.28 8.843-0.708-2.971-1.461-5.917-2.28-8.843m-116.44 13.989c-9.94 6.075 6.874 10.734 0 0m-249.61 56.634c-1.676 5.304 31.447 10.685 8.597 2.188l-3.42-1.14-5.177-1.048m25.698 7.549c-10.04 9.674 20.694 2.89 0 0"
     fill-opacity="0.33"
     fill="#fff"
     style="fill:#BF9E73;fill-opacity:0" />
  <g
     id="g8"
     fill-rule="evenodd">
    <path
       id="path10"
       fill-opacity="0.235"
       d="m378.81 114.88c-10.25-0.045-21.09 1.432-30.781 0.469h-110.94v120.19c9.527 8.382 34.466 28.2 5.875 22.16-42.563 0.401-85.17 0.078-127.75 0.188v120.16c35.3 35.3 63.51 63.2 89.16 88.47 15.651 3.553 31.93 5.469 48.656 5.469 120.9 0 218.91-98.01 218.91-218.91 0-26.436-4.694-51.789-13.281-75.25-0.005-0.005 0.005-0.026 0-0.031-15.617-15.605-31.26-31.19-46.906-46.781-7.557-13.487-19.759-16.07-32.938-16.12" />
    <path
       id="path12"
       fill-opacity="0.067"
       d="m256 1c-140.83 0-255 114.17-255 255s114.17 255 255 255 255-114.17 255-255-114.17-255-255-255m8.827 44.931c120.9 0 218.9 98 218.9 218.9s-98 218.9-218.9 218.9-218.93-98-218.93-218.9 98.03-218.9 218.93-218.9" />
    <g
       id="g14"
       fill-opacity="0.129">
      <path
         id="path16"
         d="m256 4.433c-138.94 0-251.57 112.63-251.57 251.57s112.63 251.57 251.57 251.57 251.57-112.63 251.57-251.57-112.63-251.57-251.57-251.57m5.885 38.556c120.9 0 218.9 98 218.9 218.9s-98 218.9-218.9 218.9-218.93-98-218.93-218.9 98.03-218.9 218.93-218.9" />
      <path
         id="path18"
         d="m256 8.356c-136.77 0-247.64 110.87-247.64 247.64s110.87 247.64 247.64 247.64 247.64-110.87 247.64-247.64-110.87-247.64-247.64-247.64m2.942 31.691c120.9 0 218.9 98 218.9 218.9s-98 218.9-218.9 218.9-218.93-98-218.93-218.9 98.03-218.9 218.93-218.9" />
    </g>
    <path
       id="path20"
       d="m253.04 7.859c-135.42 0-245.19 109.78-245.19 245.19 0 135.42 109.78 245.19 245.19 245.19 135.42 0 245.19-109.78 245.19-245.19 0-135.42-109.78-245.19-245.19-245.19zm0 26.297c120.9 0 218.9 98 218.9 218.9s-98 218.9-218.9 218.9-218.93-98-218.93-218.9 98.03-218.9 218.93-218.9z"
       stroke-opacity="0.31"
       stroke="#000"
       stroke-width="4.904"
       fill="#fff" />
  </g>
  <path
     id="path68"
     d="m396.79 115.36v120.18h-72.16v5h28.433l9.615 9.639 0.193 3.962h-91.56l0.362-4.131 5.29-9.47h32.3v-5h-72.16v-120.18h159.68m-121.9 142.5v120.18h-72.16v5h28.433l9.614 9.615 0.193 3.986h-91.56l0.362-4.131 5.29-9.47h32.3v-5h-72.16v-120.18h159.68"
     fill-rule="evenodd"
     fill="#fff" />
</svg>
