<?xml version="1.0" encoding="UTF-8" standalone="no"?>
<svg
   xmlns:dc="http://purl.org/dc/elements/1.1/"
   xmlns:cc="http://creativecommons.org/ns#"
   xmlns:rdf="http://www.w3.org/1999/02/22-rdf-syntax-ns#"
   xmlns:svg="http://www.w3.org/2000/svg"
   xmlns="http://www.w3.org/2000/svg"
   xmlns:sodipodi="http://sodipodi.sourceforge.net/DTD/sodipodi-0.dtd"
   xmlns:inkscape="http://www.inkscape.org/namespaces/inkscape"
   height="512"
   viewBox="0 0 512 512"
   width="512"
   version="1.1"
   id="svg2"
   inkscape:version="0.91 r13725"
   sodipodi:docname="knights.svg">
  <defs
     id="defs17" />
  <sodipodi:namedview
     pagecolor="#ffffff"
     bordercolor="#666666"
     borderopacity="1"
     objecttolerance="10"
     gridtolerance="10"
     guidetolerance="10"
     inkscape:pageopacity="0"
     inkscape:pageshadow="2"
     inkscape:window-width="1920"
     inkscape:window-height="1022"
     id="namedview15"
     showgrid="false"
     inkscape:zoom="1.5087994"
     inkscape:cx="232.63329"
     inkscape:cy="222.78079"
     inkscape:window-x="0"
     inkscape:window-y="0"
     inkscape:window-maximized="1"
     inkscape:current-layer="svg2" />
  <metadata
     id="metadata28">
    <rdf:RDF>
      <cc:Work
         rdf:about="">
        <dc:format>image/svg+xml</dc:format>
        <dc:type
           rdf:resource="http://purl.org/dc/dcmitype/StillImage" />
        <dc:title></dc:title>
      </cc:Work>
    </rdf:RDF>
  </metadata>
  <path
     style="fill:#BF9E73;fill-rule:evenodd;fill-opacity:1"
     inkscape:connector-curvature="0"
     d="m 471.95,253.05 c 0,120.9 -98.01,218.9 -218.9,218.9 -120.9,0 -218.9,-98.01 -218.9,-218.9 0,-120.9 98.01,-218.9 218.9,-218.9 120.9,0 218.9,98.01 218.9,218.9"
     id="path6" />
  <path
     style="fill-opacity:0.06700003;fill-rule:evenodd"
     inkscape:connector-curvature="0"
     d="M 256,1 C 115.17,1 1,115.17 1,256 1,396.83 115.17,511 256,511 396.83,511 511,396.83 511,256 511,115.17 396.83,1 256,1 m 8.827,44.931 c 120.9,0 218.9,98 218.9,218.9 0,120.9 -98,218.9 -218.9,218.9 -120.9,0 -218.93,-98 -218.93,-218.9 0,-120.9 98.03,-218.9 218.93,-218.9"
     id="path8" />
  <g
     style="fill-opacity:0.12900002;fill-rule:evenodd"
     id="g10">
    <path
       inkscape:connector-curvature="0"
       d="m 256,4.433 c -138.94,0 -251.57,112.63 -251.57,251.57 0,138.94 112.63,251.57 251.57,251.57 138.94,0 251.57,-112.63 251.57,-251.57 C 507.57,117.063 394.94,4.433 256,4.433 m 5.885,38.556 c 120.9,0 218.9,98 218.9,218.9 0,120.9 -98,218.9 -218.9,218.9 -120.9,0 -218.93,-98 -218.93,-218.9 0,-120.9 98.03,-218.9 218.93,-218.9"
       id="path12" />
    <path
       inkscape:connector-curvature="0"
       d="m 256,8.356 c -136.77,0 -247.64,110.87 -247.64,247.64 0,136.77 110.87,247.64 247.64,247.64 136.77,0 247.64,-110.87 247.64,-247.64 C 503.64,119.226 392.77,8.356 256,8.356 m 2.942,31.691 c 120.9,0 218.9,98 218.9,218.9 0,120.9 -98,218.9 -218.9,218.9 -120.9,0 -218.93,-98 -218.93,-218.9 0,-120.9 98.03,-218.9 218.93,-218.9"
       id="path14" />
  </g>
  <path
     inkscape:connector-curvature="0"
     style="opacity:0.25"
     id="path4190"
     d="m 240.17689,87.506107 c 0,0 -5.85953,33.168703 -14.99853,40.498703 -0.379,0.304 -0.744,0.621 -1.113,0.934 l -4.193,-4.193 c -8.754,-2.926 -31.29621,-7.50844 -31.29621,-7.50844 -15.08037,47.89858 -54.86856,87.56123 -45.24112,143.69575 l 82.50286,42.64912 -71.03857,86.96191 144.52181,76.66922 c 97.12,-22.39 174.83223,-110.72556 174.83223,-214.63556 0,-14.14 -1.357,-27.971 -3.92,-41.37"
     sodipodi:nodetypes="cccccccccsc" />
  <path
     inkscape:connector-curvature="0"
     d="m 239.22747,87.413954 c -3.8981,0 -9.62234,6.227599 -17.14931,18.682796 -11.27289,-6.742663 -28.58608,-13.192676 -43.6049,-13.12244 1.29937,10.59394 1.9432,17.75802 1.9432,21.46883 0,4.50681 -0.12877,7.94838 -0.3863,10.33641 -13.12244,47.17523 -39.96433,73.38499 -48.6736,120.44316 -0.79601,4.29611 3.52351,7.15237 5.08041,9.52869 4.6707,7.15238 12.57225,12.19767 23.72808,15.11247 5.19747,1.32277 7.79621,1.99002 7.79621,1.99002 3.37133,0 6.36807,-1.72079 8.9668,-5.16235 0,8.21762 3.25428,12.32643 9.73941,12.32643 2.59874,0 4.53023,-1.05354 5.8296,-3.17233 13.34485,-20.90694 24.81674,-40.23357 51.4011,-51.28404 -6.70755,33.79526 -40.77205,54.98314 -42.27041,96.98431 l -17.67608,0 c -3.24257,0 -5.85301,2.61044 -5.85301,5.85301 l 0,5.853 -23.41203,58.53007 257.53228,0 -23.41202,-58.53007 0,-5.853 c 0,-3.24257 -2.61044,-5.85301 -5.85301,-5.85301 l -17.44196,0 c 0,-93.6481 -23.40032,-187.2962 -104.07816,-201.92872 -3.92151,-12.15084 -7.94838,-24.488973 -22.1946,-32.19153 m 17.8985,49.68032 c 58.9983,2.75091 88.41551,82.98392 89.16469,141.87687 l 0,14.70275 c -0.51506,6.89484 -2.84456,10.33641 -7.00019,10.33641 -4.92823,0 -7.40991,-5.82959 -7.40991,-17.48878 -0.25753,-60.1455 -16.58742,-121.05188 -74.02882,-138.52896 -5.43159,-1.15889 -5.78277,-5.50182 -5.78277,-6.56707 0,-2.9148 1.67396,-4.36634 5.057,-4.36634 z m -54.8895,15.90847 c 6.2276,0 9.35311,1.72078 9.35311,5.16235 0,2.9148 -1.95491,6.35636 -5.85301,10.33641 -7.26943,7.67914 -14.15257,11.51871 -20.6494,11.51871 -3.37134,0 -5.05701,-2.38802 -5.05701,-7.15237 0.0819,-8.34639 8.68587,-18.79985 22.19461,-19.8651 z m -47.17523,79.49553 -0.0702,0.0117 c 2.01343,6.28612 -3.26598,14.7964 -11.99866,16.166 -1.81444,-7.15237 0.796,-14.04722 12.06889,-16.28306 z"
     style="display:inline;fill:#ffffff;fill-opacity:1;stroke:none"
     id="path29" />
  <path
     style="fill:#ffffff;fill-rule:evenodd;stroke:#000000;stroke-width:4.90399981;stroke-opacity:0.31000001"
     inkscape:connector-curvature="0"
     d="m 253.04,7.859 c -135.42,0 -245.19,109.78 -245.19,245.19 0,135.42 109.78,245.19 245.19,245.19 135.42,0 245.19,-109.78 245.19,-245.19 0,-135.42 -109.78,-245.19 -245.19,-245.19 z m 0,26.297 c 120.9,0 218.9,98 218.9,218.9 0,120.9 -98,218.9 -218.9,218.9 -120.9,0 -218.93,-98 -218.93,-218.9 0,-120.9 98.03,-218.9 218.93,-218.9 z"
     id="path16" />
</svg>
