<?xml version="1.0" encoding="UTF-8" standalone="no"?>
<svg xmlns="http://www.w3.org/2000/svg" height="512" viewBox="0 0 512 512" width="512" version="1.1">
 <metadata id="metadata72"/>
 <path id="path4" d="m471.95 253.05c0 120.9-98.01 218.9-218.9 218.9-120.9 0-218.9-98.01-218.9-218.9 0-120.9 98.01-218.9 218.9-218.9 120.9 0 218.9 98.01 218.9 218.9" fill-rule="evenodd" fill="#BF9E73"/>
 <path id="path6" fill-opacity="0.235" d="m255.72 133.56c-18.877 0-35.11 11.199-42.469 27.313h-81.62c-6.301 0-11.344 4.465-11.344 10.03v18.656c0 2.812 1.288 5.363 3.375 7.188 0.297 0.338 0.626 0.667 0.969 0.969 0.294 0.338 0.629 0.636 0.969 0.938 0.337 0.391 0.697 0.751 1.094 1.094 0.317 0.358 0.632 0.715 1 1.031 0.311 0.35 0.64 0.69 1 1 0.292 0.328 0.602 0.644 0.938 0.938 0.296 0.338 0.627 0.667 0.969 0.969 0.304 0.349 0.648 0.69 1 1 0.327 0.376 0.679 0.701 1.063 1.031 0.316 0.358 0.632 0.715 1 1.031 0.311 0.35 0.64 0.69 1 1 0.292 0.328 0.602 0.644 0.938 0.938 0.296 0.338 0.627 0.667 0.969 0.969 0.304 0.349 0.648 0.69 1 1 0.294 0.338 0.629 0.636 0.969 0.938 0.341 0.395 0.692 0.779 1.094 1.125 0.311 0.35 0.64 0.69 1 1 0.292 0.328 0.602 0.644 0.938 0.938 0.306 0.349 0.646 0.69 1 1 0.297 0.338 0.626 0.667 0.969 0.969 0.294 0.338 0.629 0.636 0.969 0.938 0.337 0.391 0.697 0.751 1.094 1.094 0.316 0.358 0.632 0.715 1 1.031 0.311 0.35 0.64 0.69 1 1 0.292 0.328 0.602 0.644 0.938 0.938 0.297 0.338 0.626 0.667 0.969 0.969 0.319 0.366 0.69 0.708 1.063 1.031 0.074 0.084 0.142 0.168 0.219 0.25l-50.594 81.63h-0.25c-0.145 1.801-0.219 3.599-0.219 5.438 0 20.08 8.857 38.08 22.844 50.38 0.331 0.306 0.662 0.607 1 0.906 0.465 0.433 0.96 0.83 1.438 1.25 0.434 0.4 0.868 0.799 1.313 1.188 0.087 0.08 0.163 0.171 0.25 0.25 0.386 0.334 0.763 0.675 1.156 1 0.022 0.02 0.041 0.043 0.063 0.063 0.263 0.228 0.515 0.464 0.781 0.688 0.408 0.378 0.832 0.726 1.25 1.094 0.509 0.471 1.01 0.952 1.531 1.406 0.027 0.025 0.066 0.038 0.094 0.063 0.252 0.218 0.495 0.442 0.75 0.656 0.521 0.484 1.056 0.94 1.594 1.406 0.033 0.03 0.061 0.064 0.094 0.094 0.242 0.209 0.474 0.42 0.719 0.625 0.401 0.373 0.808 0.731 1.219 1.094 0.51 0.474 1.037 0.918 1.563 1.375 0.054 0.05 0.102 0.107 0.156 0.156 0.23 0.199 0.454 0.398 0.688 0.594 0.465 0.433 0.928 0.862 1.406 1.281 0.114 0.105 0.229 0.209 0.344 0.313 0.342 0.295 0.683 0.587 1.031 0.875 0.065 0.06 0.122 0.128 0.188 0.188 0.219 0.189 0.435 0.377 0.656 0.563 0.907 0.846 1.824 1.678 2.781 2.469 0.277 0.254 0.562 0.501 0.844 0.75 0.525 0.49 1.052 0.966 1.594 1.438 0.341 0.313 0.714 0.601 1.063 0.906 0.516 0.478 1.03 0.947 1.563 1.406 0.011 0.01 0.02 0.021 0.031 0.031 0.314 0.271 0.618 0.548 0.938 0.813 0.378 0.349 0.769 0.692 1.156 1.031 0.493 0.456 0.991 0.905 1.5 1.344 0.022 0.02 0.041 0.043 0.063 0.063 0.303 0.261 0.598 0.527 0.906 0.781 0.304 0.28 0.628 0.539 0.938 0.813 0.565 0.528 1.133 1.057 1.719 1.563 0.033 0.03 0.061 0.064 0.094 0.094 0.291 0.251 0.579 0.505 0.875 0.75 0.478 0.442 0.945 0.887 1.438 1.313 0.038 0.035 0.087 0.059 0.125 0.094 0.282 0.242 0.557 0.482 0.844 0.719 0.393 0.365 0.784 0.74 1.188 1.094 0.488 0.453 0.996 0.877 1.5 1.313 0.043 0.04 0.081 0.085 0.125 0.125 0.27 0.232 0.538 0.461 0.813 0.688 0.489 0.454 0.994 0.907 1.5 1.344 0.044 0.04 0.081 0.085 0.125 0.125 0.267 0.229 0.541 0.463 0.813 0.688 0.389 0.362 0.788 0.712 1.188 1.063 0.483 0.45 0.969 0.881 1.469 1.313 0.357 0.328 0.728 0.651 1.094 0.969 0.346 0.32 0.708 0.626 1.063 0.938 0.482 0.449 0.97 0.881 1.469 1.313 0.356 0.328 0.729 0.651 1.094 0.969 0.367 0.34 0.749 0.671 1.125 1 0.421 0.392 0.848 0.779 1.281 1.156 0.342 0.317 0.712 0.598 1.063 0.906 0.787 0.737 1.606 1.469 2.438 2.156 0.011 0.01 0.02 0.022 0.031 0.031 0.177 0.166 0.352 0.337 0.531 0.5 0.209 0.178 0.413 0.357 0.625 0.531 0.117 0.103 0.226 0.211 0.344 0.313 0.081 0.075 0.168 0.144 0.25 0.219 0.209 0.178 0.413 0.356 0.625 0.531 0.388 0.365 0.788 0.71 1.188 1.063 0.5 0.471 1.012 0.925 1.531 1.375 0.103 0.095 0.209 0.187 0.313 0.281 0.198 0.168 0.393 0.335 0.594 0.5 0.387 0.365 0.789 0.71 1.188 1.063 0.509 0.48 1.033 0.948 1.563 1.406 0.104 0.096 0.208 0.186 0.313 0.281 0.186 0.159 0.374 0.313 0.563 0.469 0.496 0.468 1.016 0.897 1.531 1.344 0.481 0.446 0.939 0.918 1.438 1.344 0.18 0.165 0.38 0.307 0.563 0.469 0.023 0.019 0.04 0.044 0.063 0.063 0.133 0.118 0.272 0.227 0.406 0.344 0.364 0.337 0.751 0.643 1.125 0.969 0.489 0.456 0.96 0.94 1.469 1.375 0.049 0.045 0.107 0.081 0.156 0.125 0.158 0.134 0.309 0.275 0.469 0.406 0.238 0.211 0.476 0.419 0.719 0.625 0.011 0.01 0.02 0.021 0.031 0.031 0.158 0.134 0.309 0.274 0.469 0.406 0.121 0.107 0.253 0.206 0.375 0.313 0.402 0.374 0.804 0.734 1.219 1.094 0.501 0.467 1.01 0.931 1.531 1.375 0.022 0.02 0.041 0.043 0.063 0.063 0.147 0.124 0.289 0.253 0.438 0.375 0.16 0.142 0.306 0.297 0.469 0.438 0.103 0.095 0.209 0.187 0.313 0.281 0.136 0.115 0.269 0.23 0.406 0.344 0.111 0.099 0.231 0.183 0.344 0.281 0.52 0.487 1.051 0.975 1.594 1.438 0.033 0.03 0.061 0.064 0.094 0.094 0.135 0.114 0.27 0.231 0.406 0.344 0.155 0.138 0.312 0.271 0.469 0.406 0.118 0.11 0.224 0.235 0.344 0.344 0.125 0.105 0.249 0.209 0.375 0.313 0.21 0.187 0.411 0.379 0.625 0.563 0.07 0.065 0.148 0.123 0.219 0.188 0.125 0.105 0.249 0.208 0.375 0.313 0.104 0.093 0.207 0.189 0.313 0.281 0.484 0.455 0.965 0.911 1.469 1.344 0.091 0.085 0.189 0.166 0.281 0.25 0.113 0.095 0.23 0.187 0.344 0.281 0.199 0.177 0.392 0.358 0.594 0.531 0.092 0.085 0.189 0.166 0.281 0.25 0.113 0.096 0.229 0.187 0.344 0.281 0.138 0.123 0.266 0.253 0.406 0.375 0.156 0.146 0.311 0.294 0.469 0.438 0.103 0.086 0.209 0.165 0.313 0.25 0.189 0.168 0.371 0.335 0.563 0.5 0.114 0.106 0.229 0.208 0.344 0.313 0.103 0.087 0.209 0.164 0.313 0.25 0.131 0.117 0.274 0.228 0.406 0.344 0.394 0.371 0.779 0.738 1.188 1.094 0.431 0.406 0.895 0.768 1.344 1.156 0.14 0.131 0.265 0.277 0.406 0.406 0.091 0.077 0.189 0.143 0.281 0.219 0.114 0.102 0.229 0.212 0.344 0.313 0.398 0.377 0.806 0.733 1.219 1.094 0.467 0.442 0.95 0.862 1.438 1.281 0.271 0.253 0.566 0.473 0.844 0.719 0.629 0.603 1.27 1.189 1.938 1.75 0.011 0.01 0.02 0.021 0.031 0.031 0.074 0.062 0.145 0.126 0.219 0.188 0.191 0.171 0.399 0.332 0.594 0.5 0.396 0.371 0.777 0.74 1.188 1.094 0.188 0.176 0.371 0.359 0.563 0.531 0.04 0.043 0.085 0.082 0.125 0.125 0.335 0.39 0.681 0.78 1.031 1.156 0.37 0.432 0.737 0.866 1.125 1.281 0.274 0.319 0.56 0.627 0.844 0.938 0.404 0.478 0.824 0.947 1.25 1.406 0.37 0.433 0.737 0.865 1.125 1.281 0.246 0.286 0.496 0.565 0.75 0.844 0.449 0.535 0.9 1.051 1.375 1.563 0.354 0.413 0.724 0.82 1.094 1.219 0.256 0.298 0.517 0.584 0.781 0.875 0.44 0.524 0.879 1.029 1.344 1.531 0.317 0.369 0.64 0.736 0.969 1.094 0.438 0.515 0.882 1.01 1.344 1.5 0.3 0.346 0.596 0.695 0.906 1.031 0.163 0.191 0.333 0.375 0.5 0.563 0.009 0.011 0.022 0.02 0.031 0.031 0.103 0.116 0.208 0.229 0.313 0.344 0.477 0.566 0.964 1.115 1.469 1.656 0.17 0.196 0.33 0.399 0.5 0.594 3.557 0.172 7.119 0.281 10.719 0.281 120.9 0 218.91-98.01 218.91-218.91 0-1.764-0.021-3.527-0.063-5.281-0.148-0.146-0.283-0.302-0.438-0.438-0.305-0.348-0.647-0.691-1-1-0.329-0.374-0.678-0.702-1.063-1.031-0.314-0.352-0.637-0.689-1-1-0.318-0.357-0.631-0.716-1-1.031-0.284-0.317-0.582-0.623-0.906-0.906-0.305-0.347-0.647-0.691-1-1-0.305-0.348-0.647-0.691-1-1-0.329-0.374-0.678-0.702-1.063-1.031-0.314-0.352-0.637-0.689-1-1-0.318-0.357-0.631-0.716-1-1.031-0.284-0.317-0.582-0.623-0.906-0.906-0.305-0.347-0.647-0.691-1-1-0.305-0.347-0.647-0.691-1-1-0.295-0.337-0.628-0.637-0.969-0.938-0.341-0.393-0.692-0.75-1.094-1.094-0.314-0.352-0.637-0.689-1-1-0.28-0.314-0.555-0.624-0.875-0.906-0.314-0.361-0.665-0.711-1.031-1.031-0.305-0.347-0.647-0.691-1-1-0.295-0.337-0.628-0.637-0.969-0.938-0.341-0.393-0.692-0.75-1.094-1.094-0.314-0.352-0.637-0.689-1-1-0.299-0.335-0.593-0.67-0.938-0.969-0.298-0.337-0.626-0.669-0.969-0.969-0.305-0.347-0.647-0.691-1-1-0.305-0.348-0.647-0.691-1-1-0.329-0.374-0.678-0.702-1.063-1.031-0.314-0.352-0.637-0.689-1-1-0.318-0.357-0.631-0.716-1-1.031-0.284-0.317-0.582-0.623-0.906-0.906-0.305-0.347-0.647-0.691-1-1-0.305-0.348-0.647-0.691-1-1-0.295-0.337-0.628-0.637-0.969-0.938-0.341-0.393-0.692-0.75-1.094-1.094-0.318-0.357-0.631-0.716-1-1.031-0.284-0.317-0.582-0.623-0.906-0.906-0.305-0.347-0.647-0.691-1-1-0.305-0.347-0.647-0.691-1-1-0.295-0.337-0.628-0.637-0.969-0.938-0.341-0.393-0.692-0.75-1.094-1.094-0.314-0.352-0.637-0.689-1-1-0.299-0.335-0.593-0.67-0.938-0.969-0.298-0.337-0.626-0.669-0.969-0.969-0.305-0.347-0.647-0.691-1-1-0.305-0.348-0.647-0.691-1-1-0.329-0.374-0.678-0.702-1.063-1.031-0.314-0.352-0.637-0.689-1-1-0.318-0.357-0.631-0.716-1-1.031-0.284-0.317-0.582-0.623-0.906-0.906-0.305-0.347-0.647-0.691-1-1-0.305-0.348-0.647-0.691-1-1-0.329-0.374-0.678-0.702-1.063-1.031-0.314-0.352-0.637-0.689-1-1-0.318-0.357-0.631-0.716-1-1.031-0.284-0.317-0.582-0.623-0.906-0.906-0.305-0.347-0.647-0.691-1-1-0.305-0.347-0.647-0.691-1-1-0.295-0.337-0.628-0.637-0.969-0.938-0.341-0.393-0.692-0.75-1.094-1.094-0.314-0.352-0.637-0.689-1-1-0.299-0.335-0.593-0.67-0.938-0.969-0.298-0.337-0.625-0.669-0.969-0.969-0.305-0.347-0.647-0.691-1-1-0.295-0.337-0.628-0.637-0.969-0.938-0.341-0.393-0.692-0.75-1.094-1.094-0.314-0.352-0.637-0.689-1-1-0.299-0.335-0.593-0.67-0.938-0.969-0.298-0.337-0.626-0.669-0.969-0.969-0.305-0.347-0.647-0.691-1-1-0.305-0.348-0.647-0.691-1-1-0.329-0.374-0.678-0.702-1.063-1.031-0.314-0.352-0.637-0.689-1-1-0.318-0.357-0.631-0.716-1-1.031-0.284-0.317-0.582-0.623-0.906-0.906-0.305-0.347-0.647-0.691-1-1-0.305-0.348-0.647-0.691-1-1-0.295-0.337-0.628-0.637-0.969-0.938-0.338-0.389-0.696-0.753-1.094-1.094-0.318-0.357-0.631-0.716-1-1.031-0.284-0.317-0.582-0.623-0.906-0.906-0.295-0.337-0.628-0.669-0.969-0.969-0.313-0.359-0.667-0.713-1.031-1.031-0.295-0.337-0.628-0.637-0.969-0.938-2.075-2.397-5.333-3.938-9.03-3.938h-77.47c-0.492-0.512-0.985-1.042-1.5-1.531-0.329-0.331-0.662-0.679-1-1-0.272-0.274-0.565-0.545-0.844-0.813-0.015-0.016-0.016-0.046-0.031-0.063-0.042-0.04-0.083-0.085-0.125-0.125-0.184-0.197-0.406-0.369-0.594-0.563-0.085-0.082-0.165-0.168-0.25-0.25-0.387-0.394-0.756-0.776-1.156-1.156-0.05-0.054-0.106-0.103-0.156-0.156-0.085-0.08-0.165-0.171-0.25-0.25-0.195-0.192-0.364-0.405-0.563-0.594-0.329-0.331-0.662-0.679-1-1-0.329-0.331-0.662-0.679-1-1-0.329-0.331-0.662-0.679-1-1-0.276-0.278-0.561-0.541-0.844-0.813-0.213-0.23-0.439-0.462-0.656-0.688-0.171-0.168-0.326-0.335-0.5-0.5-0.332-0.335-0.658-0.644-1-0.969-0.05-0.054-0.106-0.103-0.156-0.156-0.086-0.081-0.163-0.17-0.25-0.25-0.195-0.192-0.364-0.405-0.563-0.594-8.473-8.544-20.241-13.844-33.22-13.844"/>
 <g id="g8" fill-rule="evenodd">
  <path id="path10" fill-opacity="0.067" d="m256 1c-140.83 0-255 114.17-255 255s114.17 255 255 255 255-114.17 255-255-114.17-255-255-255m8.827 44.931c120.9 0 218.9 98 218.9 218.9s-98 218.9-218.9 218.9-218.93-98-218.93-218.9 98.03-218.9 218.93-218.9"/>
  <g id="g12" fill-opacity="0.129">
   <path id="path14" d="m256 4.433c-138.94 0-251.57 112.63-251.57 251.57s112.63 251.57 251.57 251.57 251.57-112.63 251.57-251.57-112.63-251.57-251.57-251.57m5.885 38.556c120.9 0 218.9 98 218.9 218.9s-98 218.9-218.9 218.9-218.93-98-218.93-218.9 98.03-218.9 218.93-218.9"/>
   <path id="path16" d="m256 8.356c-136.77 0-247.64 110.87-247.64 247.64s110.87 247.64 247.64 247.64 247.64-110.87 247.64-247.64-110.87-247.64-247.64-247.64m2.942 31.691c120.9 0 218.9 98 218.9 218.9s-98 218.9-218.9 218.9-218.93-98-218.93-218.9 98.03-218.9 218.93-218.9"/>
  </g>
  <path id="path18" d="m253.04 7.859c-135.42 0-245.19 109.78-245.19 245.19 0 135.42 109.78 245.19 245.19 245.19 135.42 0 245.19-109.78 245.19-245.19 0-135.42-109.78-245.19-245.19-245.19zm0 26.297c120.9 0 218.9 98 218.9 218.9s-98 218.9-218.9 218.9-218.93-98-218.93-218.9 98.03-218.9 218.93-218.9z" stroke-opacity="0.31" stroke="#000" stroke-width="4.904" fill="#fff"/>
 </g>
 <path id="path66" fill="#fff" d="m255.73 133.55c-18.877 0-35.13 11.201-42.488 27.315h-81.61c-6.301 0-11.367 4.468-11.367 10.03v18.663c0 5.567 5.066 10.06 11.367 10.06h81.63c7.366 16.1 23.598 27.29 42.463 27.29s35.12-11.186 42.488-27.29h81.63c6.301 0 11.367-4.492 11.367-10.06v-18.663c0-5.567-5.066-10.03-11.367-10.03h-81.61c-7.36-16.11-23.635-27.315-42.512-27.315m0 29.424c0.298 0 0.603 0.009 0.897 0.024 0.04 0.002 0.082-0.002 0.121 0 9.07 0.522 16.263 8.04 16.263 17.233 0 9.535-7.747 17.257-17.281 17.257-0.296 0-0.58 0.012-0.873 0-9.122-0.463-16.384-8.02-16.384-17.257 0-9.195 7.198-16.71 16.263-17.233 0.333-0.015 0.656-0.024 0.994-0.024m-88.974 41.421a6.8366 6.8366 0 0 0 -5.9139 3.2235l-60.666 97.87h-0.242c-0.145 1.802-0.218 3.614-0.218 5.453 0 37.02 30.02 67.04 67.04 67.04s67.02-30.02 67.02-67.04c0-1.544-0.067-3.065-0.17-4.581l0.048-0.024-0.048-0.073c-0.018-0.258-0.028-0.518-0.048-0.776h-0.436l-60.666-97.87a6.8366 6.8366 0 0 0 -5.6957 -3.2235m178.51 0.46046a6.8366 6.8366 0 0 0 -5.9139 3.2478l-60.666 97.85h-0.242c-0.145 1.802-0.218 3.614-0.218 5.453 0 37.02 30.02 67.04 67.04 67.04s67.02-30.02 67.02-67.04c0-1.544-0.067-3.065-0.17-4.581l0.048-0.024-0.048-0.073c-0.018-0.258-0.028-0.518-0.048-0.776h-0.436l-60.64-97.85a6.8366 6.8366 0 0 0 -5.72 -3.2478m-178.6 19.341 50.36 81.29h-100.75l50.39-81.29m178.51 0.485 50.36 81.27h-100.75l50.39-81.27"/>
</svg>
