<?xml version="1.0" encoding="UTF-8" standalone="no"?>
<svg xmlns="http://www.w3.org/2000/svg" viewBox="0 0 512 512">
  <path fill-rule="evenodd" d="m471.95 253.05c0 120.9-98.01 218.91-218.91 218.91s-218.91-98.01-218.91-218.91 98.01-218.91 218.91-218.91 218.91 98.01 218.91 218.91" fill="#BF9E73"/>
 <path fill-opacity="0.235" d="m256.74 41.3c-119.06 0-216.41 93.37-223.62 211.27 2.263 5.493 7.424 9.187 10.357 14.599l1.414 13.07 2.37-12.12 26.1 11.08 18.04 16.893 15.479 2.293c-5.528 12.662-16.713 33.06-14.676 47.2 1.185 8.221 9.466 19.947 14.217 26.638 6.637 9.346 19.17 14.873 22.511 26.638l0.535 19.377 3.631 14.523c-0.6 5.087-4.576 13.239-3.822 19.15 10.253 7.143 21.13 13.435 32.524 18.804 1.994-1.897 1.739-5.998-0.077-8.905l8.828-12.345 11.198-8.37 7.873-27.632 16.969-11.122c6.946-10.534 1.911-19.296 4.51-30.12l11.427-32.677c-12.92-4.898-31.435-10.909-40.55-21.785l-2.37 1.223-2.408-10.892-14.294-7.262-2.37 2.408-3.593-16.931-19.07-1.567-14.332-7.911c-6.171-0.891-14.341 9.342-16.663 14.294l-8.37-1.185 2.408-2.446-7.147-4.854 1.185 4.854c-5.142-5.397-6.03-12.205-4.777-19.377l-8.332-3.631-1.223 3.631c-1.491-5.99-0.862-13.726 3.593-18.15-6.534-4.525-10.926-0.267-15.479 4.854l-9.555-19.377c-2.627 5.941-1.669 11.867-1.185 18.15h-2.408c-0.527-6.773-2.159-14.178 1.223-20.562 6.32-11.93 25.301-16.963 36.957-14.523l-1.223 2.408 10.739 9.708c0.049-18.508 7.236-20.464 17.313-33.938l7.03-12.994c7.82-8.732 19.967-14.686 30.46-18.612l13.147-8.293c-4.256-7.479-15.442-5.339-22.625-4.854 12.917-7.462 30.479-3.419 39.33-16.931-9.652-7.131-9.652-25.736-25.03-18.15l2.37-7.262-13.11-6.077-9.555 20.256-13.11 16.05-1.185-8.446c-5.04-2.378-18.915-6.559-19.19-13.338-0.294-7.368 22.13-18.498 27.556-22.969l-2.408 6.04 9.249-0.879c1.959-1.256 20.545-27.871 22.931-11.236 12.927 4.975 14.404 10.677 27.441 2.446l-8.332-3.669c-1.315-11.954-11.728-12.07-21.479-12.08l30.995-14.523c3.451 8.594 14.269 10.353 17.772 18.268 2.488 5.624-4.888 9.01-4.701 14.408 0.231 6.653 6.6 14.787 9.593 20.562l17.925-19.874c9.897-5.357 25.827-5.944 33.709-14.599 9.125-10.02 4.104-25.966 21.1-26.03-3.448-1.473-9-2.591-11.924 0l-3.593-3.631h4.777c-2.493-3.471-4.163-5.364-8.332-6.077-0.974-1.223-2.229-2.042-3.631-2.637-3.657-0.178-7.344-0.268-11.05-0.268m104.07 35.581c-4.191 3.484-11.301 5.241-16.663 6.077l-9.746 13.606-11.351 9.593c-1.828 4.409 1.086 11.08 1.987 15.517l11.924-6.04c1.715 6.01 6.362 7.559 10.739 10.892 7.07-13.616 0.985-26.635 17.886-33.9l-10.739 13.338 3.593-2.446 1.185 7.262 1.185-9.669c3.149 10.919-0.146 25.918-11.924 30.04l-11.924-0.994v-7.262c-6.781 1.437-6.526 4.865-4.739 10.892-4.602-1.328-7.348-1.107-10.739 2.408-3.642-3.8-6.607-6.688-7.147-12.08-2.315-2.341-3.354-3.935-3.593-7.262l-8.332-1.223 3.554 19.377c-3.181-6.06-6.475-7.537-13.11-6.077l3.593 14.523 4.777-1.185-3.593-1.223 4.777-8.485 2.37 13.338 10.739-2.446c-3.01 2.916-5.409 3.624-9.555 3.631l1.223 3.631h-5.962l8.332 14.523c-19.535 0.164-19.761 10.318-19.07 26.638 3.813 0.279 5.668 0.852 8.332 3.631 15.776-8.439 19.413-24.12 38.14-29.05 3.039 9.595 12.439 9.02 9.555 20.6 9.202-1.907 11.778-9.789 5.962-16.969 7.84 4.741 10.08 14.476 15.478 21.785 3.801-5.067 2.342-10.858 8.37-14.523v3.631c10.1 9.1 17.07 11.152 29.81 15.746-4.379 6.311-9.662 12.48-17.886 11.962-10.07-0.633-22.918-10.649-29.81 1.338l-19.19-15.44c-10.641-4.556-21.1-0.248-32.07-1.491l-4.777 2.408 2.37 1.223c-21.843 9.977-33.959 36.25-36.23 58.09l-4.166 14.523c2.323 14.184 14.175 28.872 24.12 38.524 7 6.795 12.03-6.486 18.689 0.229 8.812-3.387 22.11-9.299 30.19 0.153 5.309 6.211-0.237 11.356 1.605 18 3.187 11.498 10.796 24.971 10.778 37.531l-2.981 30.23c2.612 18.436 12.684 33.959 12.841 53.28 14.618-1.529 31.06-8.993 39.17-21.785l3.478-10.778 6.04-7.491-2.293-11.886c3.412-8.314 17.222-9.223 19.3-18.307 2.83-12.367-4.562-27.01-0.153-39.9 6.8-19.868 25.735-34.418 26.26-56.907l-14.294 1.223c12.868-16.03 40.13-24.1 26.22-48.42l-5.962 7.262h-2.37c-4.604-9.807-11.915-10.83-11.924-23.01 11.161 9.752 22.707 10.06 33.365 21.785 0.973-0.535 1.783-1.211 2.446-2.026-8.147-62.56-41.822-117.04-90.16-152.53-9.09-0.905-19.831-2.204-25.53-7.605h-2.408v-0.038" fill="#fff"/>
   <path d="m256 1c-140.83 0-255 114.17-255 255s114.17 255 255 255 255-114.17 255-255-114.17-255-255-255m8.827 44.931c120.9 0 218.9 98 218.9 218.9s-98 218.9-218.9 218.9-218.93-98-218.93-218.9 98.03-218.9 218.93-218.9" fill-opacity="0.067"/>
  <g transform="translate(0-540.36)" fill-opacity="0.129">
   <path d="m256 544.79c-138.94 0-251.57 112.63-251.57 251.57s112.63 251.57 251.57 251.57 251.57-112.63 251.57-251.57-112.63-251.57-251.57-251.57m5.885 38.556c120.9 0 218.9 98 218.9 218.9s-98 218.9-218.9 218.9-218.93-98-218.93-218.9 98.03-218.9 218.93-218.9"/>
   <path d="m256 548.72c-136.77 0-247.64 110.87-247.64 247.64s110.87 247.64 247.64 247.64 247.64-110.87 247.64-247.64-110.87-247.64-247.64-247.64m2.942 31.691c120.9 0 218.9 98 218.9 218.9s-98 218.9-218.9 218.9-218.93-98-218.93-218.9 98.03-218.9 218.93-218.9"/>
  </g>
  <path stroke="#000" stroke-width="4.904" d="m253.04 7.86c-135.42 0-245.19 109.78-245.19 245.19 0 135.42 109.78 245.19 245.19 245.19 135.42 0 245.19-109.78 245.19-245.19 0-135.42-109.78-245.19-245.19-245.19m0 26.297c120.9 0 218.9 98 218.9 218.9s-98 218.9-218.9 218.9-218.93-98-218.93-218.9 98.03-218.9 218.93-218.9z" stroke-opacity="0.31" fill="#fff"/>
  <path opacity="0.25" d="m368.12 106.29l12.463 12.463v0.008l-12.467-12.467c-0.391 0-0.767 0.141-1.043 0.416l-0.004-0.004-15.268 15.295 17.309 17.311c0.015 0.015 0.026 0.033 0.041 0.049l-22.764-22.764c-0.987-0.984-2.522-1.128-3.688-0.365l0.004 0.004-43.37 28.416-0.004-0.004c-0.076 0.046-0.136 0.129-0.207 0.184l-0.002-0.002c-5.218-2.891-10.692-5.408-16.42-7.479l68.48 68.48c0.001 0.003 0.003 0.006 0.004 0.01l-68.48-68.48c-0.395-0.141-0.846-0.095-1.219 0.102l-0.004-0.004c-0.37 0.203-0.617 0.554-0.707 0.967l71.945 71.945c0.001 0.003 0.003 0.006 0.004 0.01l-71.953-71.953-3.086 13.988h0.002l55.691 55.691c1.402 3.568 2.603 7.235 3.582 10.988l-35.1-35.1c-15.26-15.257-36.26-24.734-59.29-24.734-46.45 0-84.14 38.02-84.14 84.35l0.002 0.002c0.001 23.414 9.503 44.653 24.848 59.998l35.03 35.03c-3.374-0.871-6.676-1.927-9.898-3.143l-56.986-56.986-13.748 3.789c-0.001 0-0.004 0.002-0.006 0.002-0.397 0.112-0.721 0.363-0.91 0.729l69.45 69.45c-0.008-0.003-0.016-0.005-0.023-0.008l-69.43-69.43c-0.186 0.363-0.195 0.818-0.053 1.203l0.004 0.004c2.113 5.742 4.655 11.233 7.605 16.463l-26.539 43.742 0.002 0.002c-0.707 1.152-0.54 2.649 0.418 3.609l3.766 3.766-14.824 14.824c-0.572 0.576-0.572 1.517 0 2.09l97.93 97.93c15.441 3.453 31.492 5.289 47.975 5.289 24.12 0 47.32-3.914 69.02-11.12l-0.502-0.502c0.008 0.007 0.017 0.014 0.025 0.021l0.48 0.48c87.07-28.912 149.88-111.01 149.88-207.79 0-16.877-1.914-33.31-5.529-49.09l-97.26-97.26c-0.273-0.274-0.656-0.416-1.043-0.416"/>
 <path d="m368.12 106.29c0.389 0 0.772 0.143 1.046 0.418l10.981 11.01c0.575 0.575 0.575 1.49 0 2.066l-15.269 15.295 4.236 4.236c0.958 0.958 1.12 2.449 0.418 3.608l-27.01 44.47c4.503 7.729 8.117 15.982 10.72 24.629l49.729 10.354c1.362 0.284 2.327 1.485 2.327 2.876v32.13c0 1.354-0.934 2.528-2.249 2.85l-48.29 11.818c-2.476 10.06-6.294 19.579-11.243 28.394l27.976 42.643c0.761 1.166 0.59 2.7-0.392 3.687l-22.721 22.721c-0.958 0.96-2.425 1.146-3.582 0.444l-43.611-26.459c-8.234 4.796-17.12 8.586-26.486 11.216l-10.118 48.657c-0.282 1.367-1.485 2.353-2.876 2.353h-32.11c-1.354 0-2.555-0.939-2.876-2.249l-11.792-48.29c-9.929-2.622-19.394-6.544-28.18-11.635l-42.15 27.61c-1.163 0.765-2.698 0.62-3.687-0.366l-5.883-5.883-14.825 14.825c-0.58 0.577-1.49 0.577-2.065 0l-11.01-10.981c-0.573-0.573-0.573-1.517 0-2.092l14.825-14.825-3.765-3.765c-0.958-0.96-1.125-2.456-0.418-3.608l26.538-43.742c-2.952-5.233-5.494-10.727-7.608-16.472-0.142-0.385-0.134-0.84 0.052-1.203 0.19-0.367 0.515-0.621 0.915-0.732l13.753-3.791c14.01 36.894 49.541 63.19 91.14 63.19 53.48 0 97.52-44.05 97.52-98.12 0-41.3-26.06-76.922-62.41-91.17l3.085-13.988c0.09-0.413 0.336-0.764 0.706-0.967 0.374-0.201 0.831-0.247 1.229-0.105 5.728 2.071 11.201 4.587 16.419 7.478 0.072-0.055 0.133-0.137 0.209-0.183l43.38-28.42c1.166-0.763 2.7-0.618 3.687 0.366l5.412 5.412 15.269-15.295c0.276-0.276 0.654-0.418 1.046-0.418m-125.55 52.971c46.12 0 84.11 38.02 84.11 84.35 0 46.634-37.987 84.63-84.11 84.63-46.45 0-84.14-37.999-84.14-84.63 0-46.33 37.689-84.35 84.14-84.35" fill="#fff"/>
</svg>
