<?xml version="1.0" encoding="UTF-8" standalone="no"?>
<svg xmlns:dc="http://purl.org/dc/elements/1.1/" xmlns:cc="http://creativecommons.org/ns#" xmlns:rdf="http://www.w3.org/1999/02/22-rdf-syntax-ns#" xmlns:svg="http://www.w3.org/2000/svg" xmlns="http://www.w3.org/2000/svg" xmlns:sodipodi="http://sodipodi.sourceforge.net/DTD/sodipodi-0.dtd" xmlns:inkscape="http://www.inkscape.org/namespaces/inkscape" height="512" viewBox="0 0 512 512" width="512" version="1.1" id="svg2" inkscape:version="0.91 r" sodipodi:docname="kontact-import-wizard.svg">
<defs id="defs17" />
<sodipodi:namedview pagecolor="#ffffff" bordercolor="#666666" borderopacity="1" objecttolerance="10" gridtolerance="10" guidetolerance="10" inkscape:pageopacity="0" inkscape:pageshadow="2" inkscape:window-width="1680" inkscape:window-height="1022" id="namedview15" showgrid="false" inkscape:zoom="1.3037281" inkscape:cx="52.823198" inkscape:cy="244.919" inkscape:window-x="1680" inkscape:window-y="0" inkscape:window-maximized="1" inkscape:current-layer="svg2" />
<metadata id="metadata28">
<rdf:RDF>
<cc:Work rdf:about="">
<dc:format>image/svg+xml</dc:format>
<dc:type rdf:resource="http://purl.org/dc/dcmitype/StillImage" />
<dc:title></dc:title>
</cc:Work>
</rdf:RDF>
</metadata>
<path style="fill:#BF9E73;fill-rule:evenodd" inkscape:connector-curvature="0" d="m 471.95,253.05 c 0,120.9 -98.01,218.9 -218.9,218.9 -120.9,0 -218.9,-98.01 -218.9,-218.9 0,-120.9 98.01,-218.9 218.9,-218.9 120.9,0 218.9,98.01 218.9,218.9" id="path6" />
<path style="fill-opacity:0.06700003;fill-rule:evenodd" inkscape:connector-curvature="0" d="M 256,1 C 115.17,1 1,115.17 1,256 1,396.83 115.17,511 256,511 396.83,511 511,396.83 511,256 511,115.17 396.83,1 256,1 m 8.827,44.931 c 120.9,0 218.9,98 218.9,218.9 0,120.9 -98,218.9 -218.9,218.9 -120.9,0 -218.93,-98 -218.93,-218.9 0,-120.9 98.03,-218.9 218.93,-218.9" id="path8" />
<g style="fill-opacity:0.12900002;fill-rule:evenodd" id="g10">
<path inkscape:connector-curvature="0" d="m 256,4.433 c -138.94,0 -251.57,112.63 -251.57,251.57 0,138.94 112.63,251.57 251.57,251.57 138.94,0 251.57,-112.63 251.57,-251.57 C 507.57,117.063 394.94,4.433 256,4.433 m 5.885,38.556 c 120.9,0 218.9,98 218.9,218.9 0,120.9 -98,218.9 -218.9,218.9 -120.9,0 -218.93,-98 -218.93,-218.9 0,-120.9 98.03,-218.9 218.93,-218.9" id="path12" />
<path inkscape:connector-curvature="0" d="m 256,8.356 c -136.77,0 -247.64,110.87 -247.64,247.64 0,136.77 110.87,247.64 247.64,247.64 136.77,0 247.64,-110.87 247.64,-247.64 C 503.64,119.226 392.77,8.356 256,8.356 m 2.942,31.691 c 120.9,0 218.9,98 218.9,218.9 0,120.9 -98,218.9 -218.9,218.9 -120.9,0 -218.93,-98 -218.93,-218.9 0,-120.9 98.03,-218.9 218.93,-218.9" id="path14" />
</g>
<path inkscape:connector-curvature="0" style="opacity:0.25" id="path4094" d="m 231.15875,85.426514 0,71.957006 -23.971,0 67.1,67.1 -11.521,0 -60.15,-60.15 -13.42,0 -29.975,59.949 0,43.46 0.023,0.023 0,156.27 40.25,40.25 c 16.879,4.171 34.522,6.4 52.689,6.4 112.69,0 205.48,-85.16 217.56,-194.63 l -190.63,-190.630006 -47.963,0" />
<path inkscape:connector-curvature="0" style="fill:#ffffff" id="path4096" d="m 231.15875,85.426514 0,71.956006 -23.971,0 47.963,47.941 47.963,-47.941 -23.993,0 0,-71.956006 -47.963,0 m -41.96,78.909006 -29.974,59.949 0,43.46 0.022,0 0,156.3 191.83,0 0,-199.76 -29.996,-59.949 -13.398,0 29.974,59.949 -34.543,0 0,0.199 -95.93,0 0,-0.199 -34.543,0 29.974,-59.949 -13.42,0 m 70.875,89.79 0,0.022 c 11.579,0 21.93,2.371 31.03,7.107 9.105,4.737 16.15,11.456 21.1,20.2 4.945,8.737 7.416,18.844 7.416,30.26 0,7.579 -1.221,14.521 -3.642,20.836 -2.421,6.316 -5.842,11.221 -10.264,14.744 -4.422,3.526 -9.564,5.297 -15.407,5.297 -3.895,0 -7.365,-0.917 -10.418,-2.759 -3,-1.895 -5.116,-4.367 -6.379,-7.416 l -1.28,0 c -2.579,3.158 -5.697,5.64 -9.381,7.483 -3.685,1.79 -7.793,2.693 -12.316,2.693 -9.316,0 -16.66,-2.787 -22.03,-8.365 -5.368,-5.632 -8.06,-13.291 -8.06,-22.977 0,-11 3.471,-19.91 10.418,-26.752 7,-6.842 16.265,-10.263 27.789,-10.264 4.263,0 9.19,0.416 14.766,1.258 5.579,0.79 10.115,1.806 13.641,3.068 l -1.81,38.627 c 0,7.369 2,11.04 6,11.04 3.368,0 6.06,-2.454 8.06,-7.35 2,-4.945 3,-11.388 3,-19.335 0,-8.473 -1.771,-15.93 -5.297,-22.404 -3.474,-6.526 -8.41,-11.521 -14.833,-14.943 -6.369,-3.473 -13.677,-5.209 -21.94,-5.209 -10.579,0 -19.828,2.201 -27.723,6.622 -7.895,4.422 -13.915,10.749 -18.08,18.96 -4.158,8.21 -6.224,17.692 -6.224,28.429 0,14.579 3.851,25.742 11.588,33.528 7.789,7.736 19.05,11.61 33.793,11.61 5.895,0 12.223,-0.649 18.96,-1.964 6.737,-1.316 13.13,-3.123 19.18,-5.386 l 0,15.252 c -11.158,4.737 -23.683,7.107 -37.523,7.107 -20,0 -35.586,-5.277 -46.794,-15.804 -11.158,-10.527 -16.753,-25.14 -16.753,-43.88 0,-13 2.893,-24.815 8.63,-35.448 5.789,-10.634 13.968,-18.927 24.545,-24.876 10.579,-6 22.638,-9.01 36.22,-9.01 m -0.464,44.45 c -6.578,0 -11.723,2.053 -15.407,6.158 -3.632,4.105 -5.43,9.714 -5.43,16.819 0,11.11 4.522,16.665 13.575,16.665 4.684,0 8.254,-1.651 10.727,-4.966 2.527,-3.368 4.065,-8.847 4.591,-16.422 l 1.037,-17.459 c -2.421,-0.526 -5.462,-0.773 -9.09,-0.773 l 0,-0.022" />
<path style="fill:#ffffff;fill-rule:evenodd;stroke:#000000;stroke-width:4.90399981;stroke-opacity:0.31000001" inkscape:connector-curvature="0" d="m 253.04,7.859 c -135.42,0 -245.19,109.78 -245.19,245.19 0,135.42 109.78,245.19 245.19,245.19 135.42,0 245.19,-109.78 245.19,-245.19 0,-135.42 -109.78,-245.19 -245.19,-245.19 z m 0,26.297 c 120.9,0 218.9,98 218.9,218.9 0,120.9 -98,218.9 -218.9,218.9 -120.9,0 -218.93,-98 -218.93,-218.9 0,-120.9 98.03,-218.9 218.93,-218.9 z" id="path16" />
</svg>
