<?xml version="1.0" encoding="UTF-8" standalone="no"?>
<svg xmlns="http://www.w3.org/2000/svg" height="512" viewBox="0 0 512 512" width="512" version="1.1">
 <metadata id="metadata78"/>
 <g id="g4" transform="translate(0,-540.36)">
  <path id="path6" d="m471.95 793.41c0 120.9-98.01 218.9-218.9 218.9-120.9 0-218.9-98.01-218.9-218.9 0-120.9 98.01-218.9 218.9-218.9 120.9 0 218.9 98.01 218.9 218.9" fill-rule="evenodd" fill="#BF9E73"/>
  <path id="path8" d="m349.28 125.34-97.72 97.69 1 1 20.875 20.875 0.031 0.031 78.78 78.78 1 1 1 1 1 1 0.969 0.969 1 1 1 1 1 1 1 1 1 1 0.969 0.969 1 1 1 1 1 1 1 1 1 1 0.969 0.969 1 1 1 1 1 1 1 1 1 1 0.969 0.969 1 1 1 1 1 1 1 1 1 1 1 1 0.969 0.969 1 1 1 1 1 1 1 1 1 1 0.969 0.969 1 1 1 1 1 1 1 1 1 1 0.969 0.969 1 1 1 1 0.813 0.813 0.188 0.188 1 1 1 1 1 1 0.969 0.969 1 1 1 1 1 1 1 1 1 1 0.969 0.969 1 1 1 1 1 1 1 1 1 1 0.969 0.969 1 1 1 1 1 1 1 1 1 1 0.969 0.969 1 1 1 1 1 1 0.531 0.531c31.54-37.93 50.5-86.66 50.5-139.84 0-1.722-0.023-3.444-0.063-5.156l-0.406-0.406c-0.001-0.001-0.957-0.958-1-1-0.001-0.001-0.957-0.958-1-1l-0.969-0.969-1-1-1-1-1-1-1-1-1-1-1-1-0.969-0.969-1-1-1-1-1-1-1-1-1-1-0.969-0.969-1-1-1-1-1-1-1-1-1-1-0.969-0.969-1-1-1-1-1-1-1-1-1-1-0.969-0.969-1-1-1-1-1-1-1-1-1-1-1-1-0.969-0.969-1-1-1-1-1-1-1-1-1-1-0.969-0.969-1-1-1-1-1-1-1-1-1-1-0.969-0.969-1-1-1-1-1-1-1-1-1-1-1-1-0.969-0.969-1-1-1-1-1-1-1-1-1-1-0.969-0.969-1-1-1-1-1-1-1-1-1-1-0.969-0.969-1-1-1-1-1-1-1-1-1-1-0.969-0.969-1-1-1-1-1-1-47.563-47.531m-186.56 62.938-47.563 47.563 49.844 52.47-51.813 51.781 1 1 46.31 46.31 0.781 0.781 0.75 0.75 0.781 0.781 0.75 0.75 0.156 0.156 0.625 0.625l0.375 0.375 0.375 0.375 0.625 0.625 0.125 0.125 0.781 0.781 0.094 0.094 0.656 0.656 0.344 0.344 0.438 0.438 0.563 0.563 0.188 0.188 0.781 0.781 0.75 0.75 0.25 0.25 0.5 0.5 0.5 0.5 0.281 0.281 0.719 0.719 0.031 0.031 0.781 0.781 0.188 0.188 0.563 0.563 0.438 0.438 0.344 0.344 0.625 0.625 0.125 0.125 0.75 0.75 0.125 0.125 0.656 0.656 0.344 0.344 0.406 0.406 0.594 0.594 0.188 0.188 0.75 0.75 0.063 0.063 0.719 0.719 0.281 0.281 0.469 0.469c0.093 0.093 0.531 0.5 0.531 0.5l0.219 0.25 0.75 0.75 0.031 0.031 0.75 0.75 0.219 0.219 0.563 0.563c0.061 0.061 0.437 0.438 0.438 0.438l0.313 0.313c0.138 0.138 0.687 0.688 0.688 0.688l0.094 0.094 0.75 0.75 0.156 0.156 0.594 0.594 0.406 0.406 0.375 0.375 0.594 0.594 0.156 0.156 0.781 0.781 0.063 0.063 0.688 0.688c0.026 0.026 0.312 0.313 0.313 0.313l0.469 0.469 0.531 0.531 0.219 0.219 0.75 0.75 0.031 0.031 0.75 0.75 0.25 0.25 0.5 0.5 0.469 0.469 0.313 0.313c0.104 0.104 0.687 0.688 0.688 0.688l0.063 0.063 0.781 0.781 0.156 0.156 0.594 0.594 0.406 0.406 0.344 0.344 0.656 0.656 0.125 0.125 0.75 0.75 0.125 0.125 0.656 0.656 0.313 0.313 0.438 0.438c0.061 0.061 0.562 0.563 0.563 0.563l0.219 0.219 0.75 0.75 0.031 0.031 0.719 0.719 0.281 0.281 0.5 0.5 0.5 0.5 0.25 0.25 0.75 0.75 0.031 0.031 0.75 0.75 0.219 0.219 0.563 0.563 0.406 0.406 0.344 0.344 0.656 0.656 0.094 0.094 0.781 0.781 0.125 0.125 0.625 0.625 0.375 0.375 0.406 0.406 0.594 0.594 0.156 0.156 0.781 0.781 0.063 0.063 0.688 0.688 0.281 0.281 0.469 0.469 0.531 0.531 0.25 0.25 0.75 0.75 0.781 0.781 0.219 0.219 0.531 0.531 0.469 0.469 0.313 0.313c0.065 0.065 0.687 0.688 0.688 0.688l0.063 0.063 0.75 0.75 0.156 0.156 0.625 0.625 0.375 0.375 0.375 0.375 0.625 0.625 0.156 0.156 0.75 0.75 0.094 0.094 0.688 0.688 0.313 0.313 0.438 0.438 0.563 0.563 0.188 0.188 0.781 0.781 0.75 0.75 0.25 0.25 0.531 0.531 0.469 0.469 0.281 0.281 0.719 0.719 0.063 0.063 0.75 0.75 0.188 0.188 0.563 0.563 0.438 0.438 0.344 0.344 0.656 0.656 0.094 0.094 0.781 0.781 0.094 0.094 0.656 0.656 0.344 0.344 0.438 0.438 0.563 0.563 0.188 0.188 0.75 0.75 0.063 0.063 0.719 0.719 0.281 0.281 0.469 0.469 0.531 0.531 0.25 0.25 0.719 0.719 0.031 0.031 0.781 0.781 0.188 0.188 0.563 0.563 0.438 0.438 0.313 0.313 0.688 0.688 0.094 0.094 0.75 0.75 0.156 0.156 0.625 0.625 0.375 0.375 0.375 0.375 0.594 0.594c0.003 0.003 0.188 0.156 0.188 0.156l0.375 0.406c2.715 0.1 5.417 0.188 8.156 0.188 53.941 0 103.34-19.527 141.5-51.875l-0.75-0.75-1-1-0.469-0.469-0.531-0.531-0.969-0.969-0.031-0.031-1-1-0.438-0.438-0.563-0.563-0.938-0.938-0.031-0.031-1-1-0.438-0.438-0.563-0.563-0.906-0.906-0.094-0.094-1-1-0.406-0.406-0.594-0.594-0.875-0.875-0.094-0.094-1-1-0.375-0.375-0.625-0.625-0.875-0.875-0.125-0.125-1-1-0.344-0.344-0.656-0.656-0.844-0.844-0.125-0.125-1-1-0.344-0.344-0.656-0.656-0.813-0.813-0.188-0.188-1-1-0.313-0.313-0.688-0.688-0.781-0.781-0.219-0.219-0.969-0.969-0.313-0.313-0.688-0.688-0.781-0.781-0.219-0.219-1-1-0.25-0.25-0.75-0.75-0.75-0.75-0.25-0.25-0.969-0.969-0.219-0.219-0.031-0.031-0.75-0.75-0.75-0.75-0.25-0.25-1-1-0.219-0.219-0.781-0.781-0.688-0.688-0.313-0.313-0.969-0.969-0.219-0.219-0.781-0.781-0.688-0.688-0.313-0.313-1-1-0.188-0.188-0.813-0.813-0.656-0.656-0.344-0.344-0.969-0.969-0.156-0.156-0.844-0.844-0.656-0.656-0.344-0.344-1-1-0.125-0.125-0.875-0.875-0.625-0.625-0.375-0.375-1-1-0.094-0.094-0.875-0.875-0.594-0.594-0.406-0.406-1-1-0.094-0.094-0.906-0.906-0.563-0.563-0.438-0.438-1-1-0.063-0.063-0.906-0.906-0.563-0.563-0.438-0.438-1-1-0.031-0.031-0.969-0.969-0.531-0.531-0.469-0.469-1-1-0.969-0.969-0.531-0.531-0.469-0.469-1-1-1-1-0.469-0.469-0.531-0.531-0.969-0.969-0.031-0.031-1-1-0.438-0.438-0.531-0.531-0.969-0.969-0.031-0.031-1-1-0.438-0.438-0.563-0.563-0.906-0.906-0.094-0.094-1-1-0.406-0.406-0.563-0.563-0.906-0.906-0.094-0.094-1-1-0.406-0.406-0.594-0.594-0.875-0.875-0.125-0.125-1-1-0.344-0.344-0.625-0.625-0.875-0.875-0.125-0.125-1-1-0.344-0.344-0.656-0.656-0.844-0.844-0.156-0.156-1-1-0.313-0.313-0.656-0.656-0.813-0.813-0.188-0.188-1-1-0.313-0.313-0.688-0.688-0.781-0.781-0.219-0.219-1-1-0.281-0.281-0.719-0.719-0.75-0.75-0.219-0.219-1-1-0.25-0.25-0.75-0.75-0.75-0.75-0.25-0.25-1-1-0.219-0.219-0.781-0.781-0.719-0.719-0.25-0.25-1-1-0.219-0.219-0.781-0.781-0.688-0.688-0.313-0.313-1-1-0.188-0.188-0.813-0.813-0.656-0.656-0.313-0.313-1-1-0.188-0.188-0.813-0.813-0.656-0.656-0.344-0.344-1-1-0.125-0.125-0.875-0.875-0.625-0.625-0.375-0.375-0.969-0.969-0.125-0.125-0.875-0.875-0.625-0.625-0.375-0.375-1-1-0.094-0.094-0.906-0.906-0.563-0.563-0.438-0.438-0.969-0.969-0.094-0.094-0.906-0.906-0.563-0.563-0.438-0.438-1-1-0.063-0.063-0.938-0.938-0.531-0.531-0.469-0.469-0.969-0.969-0.031-0.031-0.969-0.969-0.531-0.531-0.469-0.469-1-1-1-1-0.5-0.5-0.5-0.5-0.969-0.969-1-1-0.469-0.469-0.531-0.531-0.969-0.969-0.031-0.031-1.438-1.438-1.5-1.5-1.469-1.469-1.469-1.469-1.5-1.5-1.469-1.469-1.5-1.5-1.469-1.469-1.469-1.469-1.5-1.5-1.469-1.469-1.5-1.5-1.469-1.469-1.469-1.469-1.5-1.5-1.469-1.469-1.469-1.469-1.5-1.5-1.469-1.469-1.5-1.5-1.469-1.469-1.469-1.469-1.5-1.5-1.469-1.469-1.5-1.5-1.469-1.469-1.469-1.469-1.5-1.5-1.469-1.469-1.5-1.5-1.469-1.469-1.469-1.469-1.5-1.5-1.469-1.469-1.5-1.5-1.469-1.469-1.469-1.469-1.5-1.5-1.469-1.469-1.5-1.5-1.469-1.469-1.469-1.469-1.5-1.5-1.469-1.469-1.5-1.5-1.469-1.469-1.469-1.469-1.5-1.5-1.469-1.469-1.5-1.5-1.469-1.469-1.469-1.469-1.5-1.5-1.469-1.469-1.5-1.5-1.469-1.469-1.469-1.469-1.5-1.5-1.469-1.469-1.5-1.5-1.469-1.469-1.469-1.469-1.5-1.5-1.438-1.438-0.031-0.031-0.969-0.969-0.531-0.531-0.469-0.469-1-1" fill-opacity="0.235" transform="translate(0,540.36)"/>
  <g id="g10" fill-rule="evenodd">
   <path id="path12" fill-opacity="0.067" d="m256 541.36c-140.83 0-255 114.17-255 255s114.17 255 255 255 255-114.17 255-255-114.17-255-255-255m8.827 44.931c120.9 0 218.9 98 218.9 218.9s-98 218.9-218.9 218.9-218.93-98-218.93-218.9 98.03-218.9 218.93-218.9"/>
   <g id="g14" fill-opacity="0.129">
    <path id="path16" d="m256 544.79c-138.94 0-251.57 112.63-251.57 251.57s112.63 251.54 251.57 251.54 251.57-112.6 251.57-251.54-112.63-251.57-251.57-251.57m5.885 38.556c120.9 0 218.9 98 218.9 218.9s-98 218.9-218.9 218.9-218.93-98-218.93-218.9 98.03-218.9 218.93-218.9"/>
    <path id="path18" d="m256 548.72c-136.77 0-247.64 110.87-247.64 247.64s110.87 247.64 247.64 247.64 247.64-110.87 247.64-247.64-110.87-247.64-247.64-247.64m2.942 31.691c120.9 0 218.9 98 218.9 218.9s-98 218.9-218.9 218.9-218.93-98-218.93-218.9 98.03-218.9 218.93-218.9"/>
   </g>
   <path id="path20" d="m253.04 548.22c-135.42 0-245.19 109.78-245.19 245.19 0 135.42 109.78 245.19 245.19 245.19 135.42 0 245.19-109.78 245.19-245.19 0-135.42-109.78-245.19-245.19-245.19zm0 26.297c120.9 0 218.9 98 218.9 218.9s-98 218.9-218.9 218.9-218.93-98-218.93-218.9 98.03-218.9 218.93-218.9z" stroke-opacity="0.31" stroke="#000" stroke-width="4.904" fill="#fff"/>
  </g>
  <g id="g68" stroke="#fff" transform="matrix(1.2984 0 0 1.2984 -1241.7 -82.61)" fill="#fff">
   <path id="path70" d="m1045 121.07 36.618-36.618 75.26 75.26-77.53 77.53-35.86-35.86 39.901-39.901z" transform="translate(0,540.36)"/>
   <path id="path72" d="m1261.9 612.95-36.618-36.618-75.26 75.26 77.53 77.53 35.86-35.86-39.901-39.901z"/>
  </g>
 </g>
</svg>
