<?xml version="1.0" encoding="UTF-8" standalone="no"?>
<svg xmlns="http://www.w3.org/2000/svg" height="512" viewBox="0 0 512 512" width="512" version="1.1">
 <metadata id="metadata72"/>
 <path id="path4" d="m471.95 253.05c0 120.9-98.01 218.9-218.9 218.9-120.9 0-218.9-98.01-218.9-218.9 0-120.9 98.01-218.9 218.9-218.9 120.9 0 218.9 98.01 218.9 218.9" fill-rule="evenodd" fill="#BF9E73"/>
 <path id="path6" fill-opacity="0.235" d="m407.72 98.13c-23.24 24.811-46.648 49.47-69.781 74.38-19.08 10.767-37 18.948-48.938 21.781-20.556-21.04-43.903-42.984-64.5-64.16-4.641-6.967-15.735-8.14-18.469 1.719-4.41 9.972 6.174 21.432 10.344 23.75 2.01 3.715 5.03 4.91 7.156 8.03 2.546 2.251 4.871 4.197 7.094 7.25 2.678 1.268 4.574 5.146 7.438 6.5 2.6 3.708 6.178 6.446 9.06 9.469 3.887 4.05 8.411 8.852 12.719 12.813-3.315 11.34 9.531 16.472 15.281 24.16-0.421 9.556-7.159-2.909-10.75-5.156-10.556-9.533-19.957-21.842-31.5-30-7.208 8.505 2.794 49.03-17.688 34.406-14.786-13.643-27.29-30.378-44.06-41.34-4.855 13.259-31.507 9.209-36.844 20.06 9.422 12.29 21.866 22.496 32.531 33.906 3.365 3.301 6.65 6.636 10 9.969-7.939 0.816-35.773-10.529-21.375 2.656 7.307 7.274 14.587 14.605 21.906 21.875 3.039 20.93-6.712 26.12-17.344 9.344-9.427-8.479-19.05-24.296-33.719-18.12-7.766 9.4 5.464 15.913 10.656 22.313 9.363 9.592 19.07 18.919 28.344 28.531 3.244 16.03-2.783 6.292-7.969 1.125-6.466-4.607-10.257-12.924-18.219-15.469-10.608 6.05 5.386 17.451 10.406 22.938 8.445 8.569 17.18 16.911 25.438 25.625 2.03 2.053-0.895 5.588-9.906 18.906 26.14 26.11 64.65 63.31 89.44 88.94 6.108 5.42 11.663 11.312 17.313 16.813 112.12-9.509 200.16-103.48 200.16-218.06 0-60.45-24.48-115.2-64.09-154.81l-0.125-0.125"/>
 <path id="path8" fill="#fff" d="m407.72 98.13-68.31 72.69c-0.515 0.549-1.01 1.112-1.469 1.688-2.785-0.516-5.665-0.786-8.594-0.781-15.436 0.027-32.28 7.656-44.41 26.813-17.84 28.19-8.29 71.16-42.22 98.09 0 0 59.4 3.429 94.53-21.22 26.448-18.553 39.41-41.32 36.13-63.813 2.635-1.406 5.084-3.259 7.219-5.531l60.75-64.66c-9.395-15.813-20.686-30.363-33.625-43.28m-193.16 26c-0.628-0.022-1.261 0.078-1.781 0.25-0.529 0.175-0.953 0.407-1.406 0.75-0.357 0.27-0.701 0.581-1.031 0.938-0.301 0.319-0.77 0.561-1.063 0.938-0.137 0.18-0.207 0.372-0.344 0.563-0.902 1.227-1.788 2.778-2.906 4.281-1.431 1.924-1.723 3.968-1.438 6.06 0.285 2.095 1.228 4.081 2.281 5.969 2.107 3.777 4.822 6.878 4.313 7.563 1.613-1.03 2.962-1.936 4.03-2.844 3.305-2.645 4.701-4.862 6.375-8.563 0.496-1.095 0.84-4.095 0.875-6.969s-0.291-5.666-1.406-6.375c-0.693-0.44-1.204-0.708-1.813-1.031-0.082-0.044-0.107-0.146-0.188-0.188-0.559-0.289-1.131-0.492-1.625-0.688-0.438-0.17-0.857-0.211-1.25-0.313-0.574-0.152-1.135-0.327-1.625-0.344m-46.813 57.19c-0.949 0.044-1.904 0.226-2.875 0.563-1.792 0.622-3.61 1.972-5.438 3.781-5.713 8.492-19.697 1.01-24.969 10.563-0.102 0.444-0.091 0.776-0.156 1.188-0.115 0.72-0.271 1.374-0.281 2-0.004 0.262 0.05 0.473 0.063 0.719 0.029 0.581 0.067 1.159 0.188 1.656 0.15 0.621 0.316 1.156 0.594 1.656 0.285 0.514 0.628 0.944 1.031 1.344 0.261 0.258 0.571 0.629 0.875 0.844 0.133 0.094 0.328 0.133 0.469 0.219 0.345 0.209 0.582 0.428 0.969 0.594 0.191 0.085 0.456 0.081 0.656 0.156 1.128 0.406 2.395 0.636 3.75 0.781 1.217 0.131 2.439 0.199 3.75 0.188 0.625-0.004 1.242-0.068 1.875-0.094 0.898-0.038 1.828 0.064 2.719 0 3.054-0.214 5.985-0.587 8.281-0.594 10.68-1.201 17.18 5.839 23.75 11 1.146-0.127 2.185-0.372 3.063-0.688 0.359-0.127 0.652-0.376 0.969-0.531 0.112-0.055 0.237-0.066 0.344-0.125 0.79-0.42 1.247-0.981 1.781-1.563 0.447-0.487 0.902-0.952 1.188-1.531 0.348-0.706 0.615-1.531 0.75-2.344 0.009-0.052-0.07-0.103-0.063-0.156 0.094-0.714 0.199-1.577 0.156-2.344-0.009-0.193 0.017-0.367 0-0.563-0.081-0.934-0.352-1.845-0.594-2.813-0.202-0.779-0.372-1.63-0.656-2.406-0.08-0.225-0.132-0.464-0.219-0.688-0.303-0.768-0.639-1.541-1-2.281-0.111-0.228-0.29-0.401-0.406-0.625-1.142-2.213-2.468-4.352-3.781-5.875-4.096-5.982-10.135-12.338-16.781-12.03m65.13 7.344c-2.054 1.657-3.102 3.57-3.656 5.688-0.281 1.072-0.534 2.256-0.563 3.406-0.037 1.268 0.223 2.578 0.375 3.906 0.308 2.46 0.709 5 1.094 7.5-0.014 0.057 0.014 0.132 0 0.188 0.982 6.502 0.993 12.724-6.75 16.75-12.358 8.912-30.542 1.252-40.563 14.813-5.958 8.097-12.992 5.242-19.719 2.5-0.566-0.231-1.061-0.495-1.625-0.719-1.143-0.451-2.351-0.92-3.469-1.25-1.713-0.506-3.32-0.83-4.938-0.719-1.337 0.092-2.599 0.486-3.844 1.25 0.532 0.646 1.031 1.191 1.656 1.781 0.581 0.556 1.164 1.077 1.813 1.594 1.121 0.889 2.396 1.689 3.656 2.5 0.188 0.121 0.372 0.255 0.563 0.375 0.188 0.118 0.342 0.226 0.531 0.344 2.802 1.738 5.8 3.375 8.594 5.188 0.365 0.238 0.736 0.443 1.094 0.688 0.326 0.222 0.588 0.491 0.906 0.719 1.097 0.788 2.126 1.802 3.094 2.688 0.095 0.088 0.281 0.099 0.375 0.188 0.657 0.618 1.272 1.101 1.844 1.781 0.138 0.165 0.211 0.363 0.344 0.531 0.411 0.524 0.742 1.028 1.094 1.594 0.111 0.176 0.27 0.351 0.375 0.531 0.341 0.597 0.638 1.32 0.906 1.969 0.216 0.516 0.398 1.041 0.563 1.594 0.107 0.359 0.26 0.718 0.344 1.094 0.013 0.058-0.013 0.098 0 0.156 0.189 0.89 0.326 1.887 0.375 2.875 0.052 1.049-0.066 2.02-0.188 3.188 2.155 14.328-9.292 25.739-11.875 38.719-0.012 0.058 0.012 0.129 0 0.188-0.494 2.564-0.532 5.111-0.156 7.844 0.422 1.547 0.906 3.046 1.625 4.625 0.296 0.656 0.579 1.31 0.906 1.969 1.262 2.534 2.76 5.121 4.03 7.656 0.179 0.357 0.392 0.706 0.563 1.063 0.083 0.174 0.075 0.389 0.156 0.563 0.693 1.483 1.395 2.978 1.844 4.438 0.495 1.622 0.712 3.241 0.719 4.813 0.001 0.232 0.013 0.488 0 0.719-0.075 1.5-0.376 3.03-1.094 4.469-0.225 0.451-0.605 0.807-0.906 1.25-0.194 0.284-0.336 0.595-0.563 0.875-0.368 0.46-0.819 0.8-1.281 1.25-0.253 0.247-0.436 0.475-0.719 0.719-0.778 0.679-1.537 1.317-2.563 1.969-6.237 5.562-4.788 10.718-0.906 8.563 0.647-0.359 1.242-0.828 2-1.625s1.555-1.89 2.375-3.188c3.992-12.37 24.265-20.594 27.781-5.719 0.234 0.992 0.266 2.204 0.344 3.406 1.278 4.506-0.44 11.145-1.281 17.09-0.841 5.949-0.731 11.199 3.844 12.844 1.307-15.04 1.922-33.938 16.438-42.625 0.968-0.579 1.999-1.11 3.094-1.594 13.687-7.145 22.11 11.345 34.875 9.813 0.851-0.102 1.67-0.425 2.563-0.719 16.403-6.891 21.857 10.653 32.875 17.469 9.358 0.365 12.979-5.51 14.625-13.531 0.235-1.146 0.364-2.379 0.531-3.594 1.338-9.717 0.747-21.256 4.188-28 8.715-8.262 11.761-18.752 14.09-29.75-35.14 15.279-75.56 14.707-113.37 11.656 8.712-8.998 19.532-15.74 28.469-24.375 12.365-12.505 16.17-29.27 19.656-46.03-4.513-1.981-8.577-5.13-11.844-9.563-13.529-8.875-5.853-25.442-12.406-36.938-0.513-1.58-1.779-1.26-2.906-1.406m36.531 3.375c-2.3 0.017-4.563 1.203-6.938 3.563-1.2 1.193-1.984 2.541-2.563 3.906-0.353 0.834-0.577 1.655-0.719 2.5-0.305 1.708-0.121 3.498 0.344 5 0.168 0.501 0.318 0.986 0.563 1.438 0.204 0.388 0.461 0.719 0.719 1.063 0.102 0.133 0.266 0.218 0.375 0.344 0.482 0.565 0.995 1.049 1.625 1.438 0.186 0.115 0.365 0.277 0.563 0.375 0.385 0.187 0.853 0.23 1.281 0.344 0.391 0.107 0.757 0.247 1.156 0.313 1.678-6.618 4.403-13 7.969-18.906-1.511-0.926-2.935-1.386-4.375-1.375m-138.84 68.13c-2.028 0.079-3.728 0.428-4.281 1.25-0.458 0.681-0.755 1.182-1.094 1.781-0.046 0.081-0.144 0.108-0.188 0.188-0.304 0.552-0.511 1.105-0.719 1.594-0.182 0.433-0.263 0.86-0.375 1.25-0.167 0.569-0.345 1.136-0.375 1.625-0.038 0.627 0.029 1.257 0.188 1.781 0.161 0.533 0.419 0.944 0.75 1.406 0.261 0.364 0.559 0.754 0.906 1.094 0.311 0.31 0.537 0.76 0.906 1.063 0.176 0.142 0.376 0.202 0.563 0.344 1.203 0.934 2.715 1.873 4.188 3.03 1.885 1.482 3.93 1.854 6.03 1.625 2.102-0.229 4.116-1.153 6.03-2.156 3.831-2.01 6.986-4.621 7.656-4.094-0.987-1.64-1.871-3-2.75-4.094-2.557-3.374-4.72-4.853-8.375-6.625-1.082-0.524-4.066-0.952-6.938-1.063-0.718-0.028-1.449-0.026-2.125 0m233.41 8.219c-2.963 3.165-6.114 6.15-9.438 8.938 6.496 0.834 12.838 1.534 17.844-1.094-0.209-1.899-0.783-3.52-1.656-4.656-0.051-0.066-0.103-0.092-0.156-0.156-0.419-0.511-0.931-0.875-1.469-1.25-0.068-0.048-0.118-0.142-0.188-0.188-0.163-0.106-0.391-0.092-0.563-0.188-0.485-0.272-0.883-0.525-1.438-0.719-0.897-0.313-1.892-0.538-2.938-0.688m-224.87 29.531c-0.306 0-0.616 0.021-0.875 0.063-0.685 0.111-1.201 0.365-1.625 0.719-0.038 0.034 0.036 0.151 0 0.188-0.299 0.299-0.577 0.658-0.75 1.063-0.22 0.497-0.299 0.973-0.344 1.594-0.027 0.365-0.024 0.7 0 1.094 0.034 0.794 0.13 1.649 0.344 2.5 0.916 3.642 1.725 4.461 2.75 4.281 0.512-0.09 1.026-0.475 1.656-0.906 0.631-0.431 1.378-0.887 2.188-1.25 4.542-2.036 2.646-2.455 0-8.75-1.304-0.41-2.424-0.595-3.344-0.594m186 25.781c-1.118 0.193 0.223 3.738 4 10.594 3.387 6.147 6.838 13.341 7.688 15.719 2.171 6.077 7.02 6.699 9.656 1.406 0.537-1.077 0.882-1.92 1-2.688 0.065-0.421-0.025-0.775-0.125-1.188-0.079-0.323-0.18-0.744-0.375-1.094-0.034-0.061-0.056-0.157-0.094-0.219-0.765-1.262-2.282-2.654-4.906-5.125-1.376-1.295-2.822-2.907-4.313-4.5-0.058-0.062-0.067-0.188-0.125-0.25-0.425-0.455-0.868-0.801-1.281-1.25-0.722-0.799-1.047-1.432-1.688-2.188-1.197-1.353-2.283-2.386-3-3.406-2.091-2.974-4.887-5.583-6.188-5.813-0.097-0.017-0.175-0.013-0.25 0"/>
 <g id="g10" fill-rule="evenodd">
  <path id="path12" fill-opacity="0.067" d="m256 1c-140.83 0-255 114.17-255 255s114.17 255 255 255 255-114.17 255-255-114.17-255-255-255m8.827 44.931c120.9 0 218.9 98 218.9 218.9s-98 218.9-218.9 218.9-218.93-98-218.93-218.9 98.03-218.9 218.93-218.9"/>
  <g id="g14" fill-opacity="0.129">
   <path id="path16" d="m256 4.433c-138.94 0-251.57 112.63-251.57 251.57s112.63 251.57 251.57 251.57 251.57-112.63 251.57-251.57-112.63-251.57-251.57-251.57m5.885 38.556c120.9 0 218.9 98 218.9 218.9s-98 218.9-218.9 218.9-218.93-98-218.93-218.9 98.03-218.9 218.93-218.9"/>
   <path id="path18" d="m256 8.356c-136.77 0-247.64 110.87-247.64 247.64s110.87 247.64 247.64 247.64 247.64-110.87 247.64-247.64-110.87-247.64-247.64-247.64m2.942 31.691c120.9 0 218.9 98 218.9 218.9s-98 218.9-218.9 218.9-218.93-98-218.93-218.9 98.03-218.9 218.93-218.9"/>
  </g>
  <path id="path20" d="m253.04 7.859c-135.42 0-245.19 109.78-245.19 245.19 0 135.42 109.78 245.19 245.19 245.19 135.42 0 245.19-109.78 245.19-245.19 0-135.42-109.78-245.19-245.19-245.19zm0 26.297c120.9 0 218.9 98 218.9 218.9s-98 218.9-218.9 218.9-218.93-98-218.93-218.9 98.03-218.9 218.93-218.9z" stroke-opacity="0.31" stroke="#000" stroke-width="4.904" fill="#fff"/>
 </g>
</svg>
