<?xml version="1.0" encoding="UTF-8" standalone="no"?>
<svg xmlns="http://www.w3.org/2000/svg" xmlns:sodipodi="http://sodipodi.sourceforge.net/DTD/sodipodi-0.dtd" xmlns:inkscape="http://www.inkscape.org/namespaces/inkscape" version="1.1" viewBox="0 0 512 512">
 <metadata id="metadata4752"/>
 <path inkscape:connector-curvature="0" id="path4678" d="m 471.95,253.05 c 0,120.9 -98.01,218.91 -218.91,218.91 -120.9,0 -218.91,-98.01 -218.91,-218.91 0,-120.9 98.01,-218.91 218.91,-218.91 120.9,0 218.91,98.01 218.91,218.91" fill="#BF9E73" fill-rule="evenodd"/>
 <path inkscape:connector-curvature="0" id="path4680" d="m 253.03,478.84 c -120.9,0 -218.91,-98.01 -218.91,-218.91 0,-1.154 0.013,-2.287 0.031,-3.438 l 222.34,0 0,222.31 c -1.154,0.018 -2.31,0.031 -3.469,0.031" fill="#BF9E73"/>
 <path inkscape:connector-curvature="0" id="path4682" d="m 253.03,34.16 c -120.9,0 -218.91,98.01 -218.91,218.91 0,1.154 0.013,2.287 0.031,3.438 l 222.34,0 0,-222.31 c -1.154,-0.018 -2.31,-0.031 -3.469,-0.031" fill="#BF9E73"/>
 <path inkscape:connector-curvature="0" id="path4684" d="m 255.5,478.81 0,-222.31 216.41,0 c 0.018,1.15 0.031,2.283 0.031,3.438 0,120.08 -96.68,217.55 -216.44,218.88" fill="#BF9E73"/>
 <g id="g4686" fill-rule="evenodd">
  <path inkscape:connector-curvature="0" id="path4688" d="M 256,1 C 115.17,1 1,115.17 1,256 1,396.83 115.17,511 256,511 396.83,511 511,396.83 511,256 511,115.17 396.83,1 256,1 m 8.827,44.931 c 120.9,0 218.9,98 218.9,218.9 0,120.9 -98,218.9 -218.9,218.9 -120.9,0 -218.93,-98 -218.93,-218.9 0,-120.9 98.03,-218.9 218.93,-218.9" fill-opacity="0.067"/>
  <g id="g4690" fill-opacity="0.129">
   <path inkscape:connector-curvature="0" id="path4692" d="M 256,4.43 C 117.06,4.43 4.43,117.06 4.43,256 4.43,394.94 117.06,507.57 256,507.57 394.94,507.57 507.57,394.94 507.57,256 507.57,117.06 394.94,4.43 256,4.43 m 5.885,38.556 c 120.9,0 218.9,98 218.9,218.9 0,120.9 -98,218.9 -218.9,218.9 -120.9,0 -218.93,-98 -218.93,-218.9 0,-120.9 98.03,-218.9 218.93,-218.9"/>
   <path inkscape:connector-curvature="0" id="path4694" d="M 256,8.36 C 119.23,8.36 8.36,119.23 8.36,256 8.36,392.77 119.23,503.64 256,503.64 392.77,503.64 503.64,392.77 503.64,256 503.64,119.23 392.77,8.36 256,8.36 m 2.942,31.691 c 120.9,0 218.9,98 218.9,218.9 0,120.9 -98,218.9 -218.9,218.9 -120.9,0 -218.93,-98 -218.93,-218.9 0,-120.9 98.03,-218.9 218.93,-218.9"/>
  </g>
  <path inkscape:connector-curvature="0" id="path4696" d="M 253.04,7.86 C 117.62,7.86 7.85,117.64 7.85,253.05 c 0,135.42 109.78,245.19 245.19,245.19 135.42,0 245.19,-109.78 245.19,-245.19 C 498.23,117.63 388.45,7.86 253.04,7.86 m 0,26.297 c 120.9,0 218.9,98 218.9,218.9 0,120.9 -98,218.9 -218.9,218.9 -120.9,0 -218.93,-98 -218.93,-218.9 0,-120.9 98.03,-218.9 218.93,-218.9 z" stroke-opacity="0.31" fill="#ffffff" stroke="#000000" stroke-width="4.904"/>
 </g>
 <path inkscape:connector-curvature="0" id="path4744" d="m 254.71,94.56 c -13.325,0.675 -23.928,11.724 -23.928,25.22 0,6.955 2.82,13.243 7.375,17.799 l 9.936,9.936 0,91.91 c -7.563,2.497 -13.559,8.492 -16.06,16.05 l -91.9,0 -9.936,-9.936 c -4.555,-4.555 -10.844,-7.373 -17.799,-7.373 -13.928,0 -25.22,11.287 -25.22,25.21 0,6.964 2.822,13.269 7.385,17.832 l 188.67,188.67 c 92.49,-12.762 166.53,-83.3 184.52,-174.01 l -193.92,-193.92 c -4.563,-4.563 -10.868,-7.385 -17.832,-7.385 -0.435,0 -0.859,-0.022 -1.289,0" opacity="0.25"/>
 <path inkscape:connector-curvature="0" id="path4746" d="m 254.71,94.56 c -13.325,0.675 -23.928,11.724 -23.928,25.22 0,11.163 7.261,20.608 17.31,23.928 l 0,95.71 c -7.563,2.497 -13.559,8.493 -16.06,16.06 l -95.71,0 c -3.319,-10.05 -12.765,-17.31 -23.928,-17.31 -13.928,0 -25.22,11.288 -25.22,25.22 0,13.928 11.288,25.22 25.22,25.22 11.163,0 20.608,-7.261 23.928,-17.31 l 95.71,0 c 3.319,10.05 12.799,17.31 23.963,17.31 11.164,0 20.644,-7.258 23.963,-17.31 l 95.71,0 c 3.319,10.05 12.765,17.31 23.928,17.31 13.928,0 25.22,-11.288 25.22,-25.22 0,-13.928 -11.288,-25.22 -25.22,-25.22 -11.163,0 -20.608,7.261 -23.928,17.31 l -95.71,0 c -2.497,-7.563 -8.493,-13.559 -16.06,-16.06 l 0,-95.71 c 10.05,-3.319 17.31,-12.765 17.31,-23.928 0,-13.928 -11.288,-25.22 -25.22,-25.22 -0.435,0 -0.859,-0.022 -1.289,0" fill="#ffffff"/>
</svg>
