<?xml version="1.0" encoding="UTF-8" standalone="no"?>
<svg xmlns="http://www.w3.org/2000/svg" height="512" viewBox="0 0 512 512" width="512" version="1.1">
 <metadata id="metadata76"/>
 <path id="path4" d="m471.95 253.05c0 120.9-98.01 218.9-218.9 218.9-120.9 0-218.9-98.01-218.9-218.9 0-120.9 98.01-218.9 218.9-218.9 120.9 0 218.9 98.01 218.9 218.9" fill-rule="evenodd" fill="#BF9E73"/>
 <path id="path6" fill-opacity="0.235" d="m257.88 105c-72.39 0.287-138.66 59.655-146.34 131.81 3.899 17.469-15.516 9.246-25.875 11.09-12.11-2.076-8.765 2.246-1.969 8 30.815 30.808 61.67 61.687 92.47 92.44-6.485 8-26.03 15.914-11.875 24.09 33.15 33.07 66.19 66.17 99.25 99.25 116.02-5.472 208.39-101.23 208.41-218.59-0.005-0.005 0.005-0.026 0-0.031-37.12-37.23-74.24-74.43-111.78-111.22-27.12-23.645-62.861-36.978-98.84-36.813-1.152-0.025-2.288-0.036-3.438-0.031"/>
 <g id="g8" fill-rule="evenodd">
  <path id="path10" fill-opacity="0.067" d="m256 1c-140.83 0-255 114.17-255 255s114.17 255 255 255 255-114.17 255-255-114.17-255-255-255m8.827 44.931c120.9 0 218.9 98 218.9 218.9s-98 218.9-218.9 218.9-218.93-98-218.93-218.9 98.03-218.9 218.93-218.9"/>
  <g id="g12" fill-opacity="0.129">
   <path id="path14" d="m256 4.433c-138.94 0-251.57 112.63-251.57 251.57s112.63 251.57 251.57 251.57 251.57-112.63 251.57-251.57-112.63-251.57-251.57-251.57m5.885 38.556c120.9 0 218.9 98 218.9 218.9s-98 218.9-218.9 218.9-218.93-98-218.93-218.9 98.03-218.9 218.93-218.9"/>
   <path id="path16" d="m256 8.356c-136.77 0-247.64 110.87-247.64 247.64s110.87 247.64 247.64 247.64 247.64-110.87 247.64-247.64-110.87-247.64-247.64-247.64m2.942 31.691c120.9 0 218.9 98 218.9 218.9s-98 218.9-218.9 218.9-218.93-98-218.93-218.9 98.03-218.9 218.93-218.9"/>
  </g>
  <path id="path18" d="m253.04 7.859c-135.42 0-245.19 109.78-245.19 245.19 0 135.42 109.78 245.19 245.19 245.19 135.42 0 245.19-109.78 245.19-245.19 0-135.42-109.78-245.19-245.19-245.19zm0 26.297c120.9 0 218.9 98 218.9 218.9s-98 218.9-218.9 218.9-218.93-98-218.93-218.9 98.03-218.9 218.93-218.9z" stroke-opacity="0.31" stroke="#000" stroke-width="4.904" fill="#fff"/>
 </g>
 <g id="g66" transform="translate(-5.455,5.829)" fill="#fff">
  <path id="path68" d="m266.77 99.19c-80.67 0-146.57 63.27-150.78 142.89h-34.834l55.26 54.734 52.23-54.734h-41.742c4.165-62.58 56.23-112.07 119.86-112.07 66.36 0 120.16 53.802 120.16 120.16 0 66.36-53.802 120.13-120.16 120.13-31.25 0-59.709-11.932-81.08-31.479l-22.828 20.92c27.07 25.68 63.65 41.41 103.91 41.41 83.39 0 150.98-67.59 150.98-150.98s-67.59-150.98-150.98-150.98"/>
  <path id="path70" d="m269.44 162.63-8.906 0.5a3.3503 3.3503 0 0 0 -3.1875 3.1875l-4.438 95.06a3.3503 3.3503 0 0 0 1.125 2.6875l52.5 46.03a3.3503 3.3503 0 0 0 4.375 0.0312l6.938-5.938a3.3503 3.3503 0 0 0 0.25 -4.875l-41.22-43.12-3.906-90.34a3.3503 3.3503 0 0 0 -3.5312 -3.2188"/>
 </g>
</svg>
