<?xml version="1.0" encoding="UTF-8" standalone="no"?>
<svg xmlns="http://www.w3.org/2000/svg" height="512" viewBox="0 0 512 512" width="512" version="1.1">
 <metadata id="metadata90"/>
 <path id="path4" d="m471.95 253.05c0 120.9-98.01 218.9-218.9 218.9-120.9 0-218.9-98.01-218.9-218.9 0-120.9 98.01-218.9 218.9-218.9 120.9 0 218.9 98.01 218.9 218.9" fill-rule="evenodd" fill="#BF9E73"/>
 <path id="path6" fill-opacity="0.235" d="m253.22 88.53c-57.852-0.241-111.47 51.824-106.87 110.78 1.018 28.937 16.226 55.41 37.38 74.47 18.826 17.03 9.117 46.47 27.438 62.906 2.733 5.187 20.16 15.443 14.469 17.719-9.862 0.62-33.32 1.811-21.22 16.469 9.915 8.591 16.02 14.171-0.781 14.906-8.844 12.07 10.227 19.71 16.219 28.75 2.025 10.974 14.3 16.789 20.938 25.406 10.403 10.4 20.8 20.779 31.22 31.19 110.51-9.482 197.55-101.06 199.88-213.47-46.715-46.745-93.42-93.5-140.25-140.12-20.41-18.709-48.02-29.06-75.66-28.938-0.92-0.03-1.832-0.059-2.75-0.063"/>
 <g id="g8" fill-rule="evenodd">
  <path id="path10" fill-opacity="0.067" d="m256 1c-140.83 0-255 114.17-255 255s114.17 255 255 255 255-114.17 255-255-114.17-255-255-255m8.827 44.931c120.9 0 218.9 98 218.9 218.9s-98 218.9-218.9 218.9-218.93-98-218.93-218.9 98.03-218.9 218.93-218.9"/>
  <g id="g12" fill-opacity="0.129">
   <path id="path14" d="m256 4.433c-138.94 0-251.57 112.63-251.57 251.57s112.63 251.57 251.57 251.57 251.57-112.63 251.57-251.57-112.63-251.57-251.57-251.57m5.885 38.556c120.9 0 218.9 98 218.9 218.9s-98 218.9-218.9 218.9-218.93-98-218.93-218.9 98.03-218.9 218.93-218.9"/>
   <path id="path16" d="m256 8.356c-136.77 0-247.64 110.87-247.64 247.64s110.87 247.64 247.64 247.64 247.64-110.87 247.64-247.64-110.87-247.64-247.64-247.64m2.942 31.691c120.9 0 218.9 98 218.9 218.9s-98 218.9-218.9 218.9-218.93-98-218.93-218.9 98.03-218.9 218.93-218.9"/>
  </g>
  <path id="path18" d="m253.04 7.859c-135.42 0-245.19 109.78-245.19 245.19 0 135.42 109.78 245.19 245.19 245.19 135.42 0 245.19-109.78 245.19-245.19 0-135.42-109.78-245.19-245.19-245.19zm0 26.297c120.9 0 218.9 98 218.9 218.9s-98 218.9-218.9 218.9-218.93-98-218.93-218.9 98.03-218.9 218.93-218.9z" stroke-opacity="0.31" stroke="#000" stroke-width="4.904" fill="#fff"/>
 </g>
 <text id="text20" font-size="129.23" line-height="125%" y="231.36" x="729.64" font-family="Gentium Book Basic" word-spacing="0" letter-spacing="0"><tspan id="tspan22" y="231.36" x="729.64"/>
 </text>
 <text id="text24" font-size="46.954" transform="scale(4.0128 .2492)" y="579.25" x="378.91" font-family="Arial" text-anchor="middle"/>
 <text id="text26" font-size="129.23" line-height="125%" y="151.36" x="1310.91" font-family="Gentium Book Basic" word-spacing="0" letter-spacing="0"><tspan id="tspan28" y="151.36" x="1310.91"/>
 </text>
 <text id="text30" font-size="46.954" transform="scale(4.0128 .2492)" y="258.22" x="523.76" font-family="Arial" text-anchor="middle"/>
 <text id="text32" font-size="129.23" line-height="125%" y="-29.901" x="239.33" font-family="Gentium Book Basic" word-spacing="0" letter-spacing="0"><tspan id="tspan34" y="-29.901" x="239.33"/>
 </text>
 <text id="text36" font-size="46.954" transform="scale(4.0128 .2492)" y="-469.14" x="256.72" font-family="Arial" text-anchor="middle"/>
 <text id="text38" font-size="129.23" line-height="125%" y="-246.37" x="1337.38" font-family="Gentium Book Basic" word-spacing="0" letter-spacing="0"><tspan id="tspan40" y="-246.37" x="1337.38"/>
 </text>
 <text id="text42" font-size="46.954" transform="scale(4.0128 .2492)" y="-1337.81" x="530.36" font-family="Arial" text-anchor="middle"/>
 <text id="text44" font-size="129.23" line-height="125%" y="-326.38" x="1918.65" font-family="Gentium Book Basic" word-spacing="0" letter-spacing="0"><tspan id="tspan46" y="-326.38" x="1918.65"/>
 </text>
 <text id="text48" font-size="46.954" transform="scale(4.0128 .2492)" y="-1658.85" x="675.21" font-family="Arial" text-anchor="middle"/>
 <text id="text50" font-size="129.23" line-height="125%" y="-798.78" x="1529.53" font-family="Gentium Book Basic" word-spacing="0" letter-spacing="0"><tspan id="tspan52" y="-798.78" x="1529.53"/>
 </text>
 <text id="text54" font-size="46.954" transform="scale(4.0128 .2492)" y="-3554.51" x="578.24" font-family="Arial" text-anchor="middle"/>
 <text id="text56" font-size="129.23" line-height="125%" y="-878.78" x="2110.79" font-family="Gentium Book Basic" word-spacing="0" letter-spacing="0"><tspan id="tspan58" y="-878.78" x="2110.79"/>
 </text>
 <text id="text60" font-size="46.954" transform="scale(4.0128 .2492)" y="-3875.54" x="723.09" font-family="Arial" text-anchor="middle"/>
 <g id="g62" font-family="Gentium Book Basic" font-size="208.33" line-height="125%" word-spacing="0" letter-spacing="0">
  <text id="text64" y="535.94" x="277.99"><tspan id="tspan66" y="535.94" x="277.99"/>
  </text>
  <text id="text68" y="413.27" x="-1771.42"><tspan id="tspan70" y="413.27" x="-1771.42"/>
  </text>
 </g>
 <text id="text72" font-size="75.7" transform="scale(4.0128 .2492)" y="1095.49" x="-123.71" font-family="Arial" text-anchor="middle"/>
 <text id="text74" font-size="208.33" line-height="125%" y="859.18" x="-1213.24" font-family="Gentium Book Basic" word-spacing="0" letter-spacing="0"><tspan id="tspan76" y="859.18" x="-1213.24"/>
 </text>
 <text id="text78" font-size="75.7" transform="scale(4.0128 .2492)" y="2884.85" x="15.386" font-family="Arial" text-anchor="middle"/>
 <text id="text80" font-size="40" line-height="125%" y="621.66" x="875.45" font-family="Sans" word-spacing="0" letter-spacing="0"><tspan id="tspan82" y="621.66" x="875.45" font-weight="bold" font-style="italic"/>
 </text>
 <path id="path84" fill="#fff" d="m255.96 88.59c-60.65 0-109.76 47.11-109.76 105.29 0 29.955 13.03 56.989 33.945 76.17l0.03 0.089c4.578 3.966 9.279 10.682 13.05 19.16 3.928 8.826 6.02 17.795 6.229 25.03l0.03 0.06c0.993 15.77 14.01 28.16 30.04 28.16h53.17c16.681 0 30.13-13.419 30.13-30.1v-2.384c0.741-6.352 2.71-13.601 5.901-20.772 3.774-8.481 8.445-15.197 13.02-19.16 20.982-19.19 34.06-46.27 34.06-76.26 0-58.18-49.2-105.29-109.85-105.29m-3.9339 27.865a8.3727 8.3727 0 0 1 1.4603 16.66c-15.371 1.915-28.752 6.602-38.803 15.408-10.05 8.806-17.377 21.91-19.848 43a8.3812 8.3812 0 1 1 -16.63 -1.967c2.836-24.21 12.09-41.934 25.451-53.644 13.365-11.71 30.24-17.22 47.743-19.401a8.3727 8.3727 0 0 1 0.62585 -0.0596m54.538 228.38a7.5057 7.5057 0 0 0 -0.53644 0.0596l-98.59 11.623a7.5057 7.5057 0 1 0 1.7583 14.901l98.59-11.623a7.5057 7.5057 0 0 0 -1.2219 -14.961m0 27.895a7.6116 7.6116 0 0 0 -0.53644 0.0596l-98.62 11.623a7.6116 7.6116 0 1 0 1.7881 15.11l98.62-11.623a7.6116 7.6116 0 0 0 -1.2517 -15.169m-18.626 28.878a7.6196 7.6196 0 0 0 -0.32783 0.0298 7.6116 7.6116 0 0 0 -0.53644 0.0596l-60.56 6.527a7.614 7.614 0 1 0 1.6391 15.14l60.56-6.527a7.6244 7.6244 0 0 0 -0.77486 -15.229"/>
</svg>
