<?xml version="1.0" encoding="UTF-8" standalone="no"?>
<svg xmlns="http://www.w3.org/2000/svg" xmlns:sodipodi="http://sodipodi.sourceforge.net/DTD/sodipodi-0.dtd" xmlns:inkscape="http://www.inkscape.org/namespaces/inkscape" width="512" height="512" viewBox="0 0 135.46666 135.46667" version="1.1">
 <metadata id="metadata7346"/>
 <g inkscape:label="Layer 1" inkscape:groupmode="layer" id="layer1" transform="translate(0,-161.53332)">
  <g id="g7373" transform="translate(8.0130955,-0.45358778)">
   <g id="g7302" transform="matrix(0.26458334,0,0,0.26458334,-8.0129508,161.98694)" fill-rule="evenodd">
    <path d="m 471.93,253.06 c 0,120.9 -98.01,218.9 -218.9,218.9 -120.9,0 -218.9,-98.01 -218.9,-218.9 0,-120.9 98.01,-218.9 218.9,-218.9 120.9,0 218.9,98.01 218.9,218.9" id="path7304" inkscape:connector-curvature="0" fill="#BF9E73"/>
    <g transform="matrix(3.5433,0,0,3.5433,-0.004,0)" id="g7306">
     <path d="m 72.25,0.282 c -39.746,0 -71.967,32.22 -71.967,71.967 0,39.746 32.22,71.967 71.967,71.967 39.746,0 71.967,-32.22 71.967,-71.967 0,-39.746 -32.22,-71.967 -71.967,-71.967 m 2.491,12.681 c 34.12,0 61.777,27.657 61.777,61.777 0,34.12 -27.657,61.777 -61.777,61.777 -34.12,0 -61.786,-27.657 -61.786,-61.777 0,-34.12 27.666,-61.777 61.786,-61.777" id="path7308" inkscape:connector-curvature="0" fill-opacity="0.067"/>
     <g id="g7310" fill-opacity="0.129">
      <path d="m 72.25,1.251 c -39.21,0 -70.998,31.787 -70.998,70.998 0,39.21 31.787,70.998 70.998,70.998 39.21,0 70.998,-31.787 70.998,-70.998 0,-39.21 -31.787,-70.998 -70.998,-70.998 m 1.661,10.881 c 34.12,0 61.777,27.657 61.777,61.777 0,34.12 -27.657,61.777 -61.777,61.777 -34.12,0 -61.786,-27.657 -61.786,-61.777 0,-34.12 27.666,-61.777 61.786,-61.777" id="path7312" inkscape:connector-curvature="0"/>
      <path d="m 72.25,2.358 c -38.6,0 -69.891,31.29 -69.891,69.891 0,38.6 31.29,69.891 69.891,69.891 38.6,0 69.891,-31.29 69.891,-69.891 0,-38.6 -31.29,-69.891 -69.891,-69.891 m 0.83,8.944 c 34.12,0 61.777,27.657 61.777,61.777 0,34.12 -27.657,61.777 -61.777,61.777 -34.12,0 -61.786,-27.657 -61.786,-61.777 0,-34.12 27.666,-61.777 61.786,-61.777" id="path7314" inkscape:connector-curvature="0"/>
     </g>
     <path d="m 71.41,2.218 c -38.22,0 -69.2,30.981 -69.2,69.2 0,38.22 30.981,69.2 69.2,69.2 38.22,0 69.2,-30.981 69.2,-69.2 0,-38.22 -30.981,-69.2 -69.2,-69.2 z m 0,7.422 c 34.12,0 61.777,27.657 61.777,61.777 0,34.12 -27.657,61.777 -61.777,61.777 C 37.29,133.194 9.624,105.537 9.624,71.417 9.624,37.297 37.29,9.64 71.41,9.64" id="path7316" inkscape:connector-curvature="0" stroke-opacity="0.31" fill="#ffffff" stroke="#000000" stroke-width="1.384"/>
    </g>
   </g>
   <path d="m 59.720386,187.58803 c -13.191861,0 -23.883938,10.69181 -23.883938,23.88393 0,6.59501 2.672291,12.56242 6.99135,16.88333 l 13.155348,13.15535 0,0.93636 -15.836371,0 0,7.4639 15.836371,15.83637 0,6.10659 13.958359,13.95835 c 24.929046,-4.79689 44.169545,-25.57462 46.638105,-51.25773 L 76.609005,194.58387 c -4.321969,-4.32196 -10.293085,-6.99479 -16.888884,-6.99479" id="path7978" inkscape:connector-curvature="0" opacity="0.25"/>
   <path d="m 59.720386,187.58803 c -13.191861,0 -23.883938,10.69181 -23.883938,23.88393 0,11.92213 8.728869,21.79373 20.145375,23.58761 l 0,7.3877 -15.836371,0 0,7.46389 15.836371,0 0,21.94322 7.47448,0 0,-21.94322 15.836371,0 0,-7.46389 -15.836371,0 0,-7.3877 c 11.416771,-1.79229 20.145376,-11.66548 20.145376,-23.58761 0,-13.19186 -10.691813,-23.88393 -23.883939,-23.88393 m 0,5.46682 c 10.168732,0 18.417647,8.24706 18.417647,18.41764 0,10.16874 -8.247063,18.41765 -18.417647,18.41765 -10.168731,0 -18.417646,-8.24706 -18.417646,-18.41765 0,-10.16873 8.247063,-18.41764 18.417646,-18.41764" id="path7980" inkscape:connector-curvature="0" fill="#ffffff"/>
  </g>
 </g>
</svg>
