<?xml version="1.0" encoding="UTF-8" standalone="no"?>
<svg xmlns="http://www.w3.org/2000/svg" height="512" viewBox="0 0 512 512" width="512" version="1.1">
 <metadata id="metadata72"/>
 <g id="g4" fill-rule="evenodd">
  <path id="path6" fill="#BF9E73" d="m471.95 253.05c0 120.9-98.01 218.9-218.9 218.9-120.9 0-218.9-98.01-218.9-218.9 0-120.9 98.01-218.9 218.9-218.9 120.9 0 218.9 98.01 218.9 218.9"/>
  <path id="path8" fill-opacity="0.235" d="m292.97 114.34c-17.11-0.303-18.17 29.04-28.719 32.938-12.12-10.455-21.275-25.393-36.31-31.563l-4.438-0.469c-26.17 0.603-25.381 34.02-6.313 44.594 14.302 9.77-1.494 7.13-10.313 7.313-25.64 0.549-51.5-1.11-77 0.875-23.475 8.961 15.302 29.44 5.531 31.28-6.604 24.632-11.131 51.822-16.938 77.44-4.402 22.97-10.586 45.707-13.688 68.844-0.104 14.1 6.86 24.512 15.906 33.688 28.28 28.28 59.04 58.28 89.97 88.56 13.715 2.691 27.871 4.125 42.38 4.125 119.09 0 215.98-95.13 218.84-213.53-14.958-15.11-29.808-30.31-44.531-45.656-15.09-14.701-28.915-30.826-44.781-44.625-9.772-2.441-20.567 0.225-30.16-1.531-16.721-16.288-31.388-35.09-49.656-49.5-3.771-1.878-6.982-2.732-9.781-2.781"/>
  <path id="path10" fill-opacity="0.067" d="m256 1c-140.83 0-255 114.17-255 255s114.17 255 255 255 255-114.17 255-255-114.17-255-255-255m8.827 44.931c120.9 0 218.9 98 218.9 218.9s-98 218.9-218.9 218.9-218.93-98-218.93-218.9 98.03-218.9 218.93-218.9"/>
  <g id="g12" fill-opacity="0.129">
   <path id="path14" d="m256 4.433c-138.94 0-251.57 112.63-251.57 251.57s112.63 251.57 251.57 251.57 251.57-112.63 251.57-251.57-112.63-251.57-251.57-251.57m5.885 38.556c120.9 0 218.9 98 218.9 218.9s-98 218.9-218.9 218.9-218.93-98-218.93-218.9 98.03-218.9 218.93-218.9"/>
   <path id="path16" d="m256 8.356c-136.77 0-247.64 110.87-247.64 247.64s110.87 247.64 247.64 247.64 247.64-110.87 247.64-247.64-110.87-247.64-247.64-247.64m2.942 31.691c120.9 0 218.9 98 218.9 218.9s-98 218.9-218.9 218.9-218.93-98-218.93-218.9 98.03-218.9 218.93-218.9"/>
  </g>
  <path id="path18" d="m253.04 7.859c-135.42 0-245.19 109.78-245.19 245.19 0 135.42 109.78 245.19 245.19 245.19 135.42 0 245.19-109.78 245.19-245.19 0-135.42-109.78-245.19-245.19-245.19zm0 26.297c120.9 0 218.9 98 218.9 218.9s-98 218.9-218.9 218.9-218.93-98-218.93-218.9 98.03-218.9 218.93-218.9z" stroke-opacity="0.31" stroke="#000" stroke-width="4.904" fill="#fff"/>
 </g>
 <path id="path66" d="m223.51 115.26c-11.658 0-21.11 9.423-21.11 21.08 0 11.658 9.451 21.14 21.11 21.14 1.889 0 3.699-0.275 5.441-0.741l6.58 5.954 8.375-0.085 10.797-10.626-10.683-10.597c0.394-1.612 0.598-3.309 0.598-5.04 0-11.658-9.451-21.08-21.11-21.08m70.59 0c-11.658 0-21.11 9.423-21.11 21.08 0 1.575 0.186 3.11 0.513 4.586-4.075 4.02-21.676 21.392-27.06 26.24h-112.24c-6.156 0-11.11 4.926-11.11 11.08 0 6.156 4.954 11.138 11.11 11.138h243.79c6.156 0 11.11-4.983 11.11-11.138 0-6.156-4.954-11.08-11.11-11.08h-101.27l10.512-10.882c2.155 0.742 4.459 1.196 6.865 1.196 11.657 0 21.11-9.48 21.11-21.14 0-11.658-9.451-21.08-21.11-21.08m-159.3 84.06-28.26 134.06c-1.134 3.871-1.766 7.945-1.766 12.192 0 23.887 19.213 43.16 43.1 43.16h216.07c23.887 0 43.13-19.27 43.13-43.16 0-1.863-0.143-3.67-0.37-5.469h0.513l-30.96-140.79h-241.45" fill-rule="evenodd" fill="#fff"/>
</svg>
