<?xml version="1.0" encoding="UTF-8" standalone="no"?>
<svg xmlns="http://www.w3.org/2000/svg" height="512" viewBox="0 0 512 512" width="512" version="1.1">
 <metadata id="metadata76"/>
 <path id="path4" d="m471.95 253.05c0 120.9-98.01 218.9-218.9 218.9-120.9 0-218.9-98.01-218.9-218.9 0-120.9 98.01-218.9 218.9-218.9 120.9 0 218.9 98.01 218.9 218.9" fill-rule="evenodd" fill="#BF9E73"/>
 <path id="path6" fill-opacity="0.235" d="m256 111.97c-79.55 0-144.03 64.48-144.03 144.03 0 39.94 16.277 76.07 42.531 102.16 0.222 0.225 0.433 0.464 0.656 0.688 0.026 0.026 0.067 0.037 0.094 0.063 0.591 0.602 1.179 1.221 1.781 1.813 0.254 0.255 0.525 0.497 0.781 0.75 0.109 0.11 0.203 0.234 0.313 0.344 0.183 0.18 0.378 0.352 0.563 0.531 0.151 0.152 0.286 0.317 0.438 0.469 0.153 0.148 0.315 0.291 0.469 0.438 0.03 0.032 0.063 0.062 0.094 0.094 0.056 0.058 0.1 0.13 0.156 0.188 0.245 0.246 0.504 0.474 0.75 0.719 0.043 0.041 0.082 0.084 0.125 0.125 0.14 0.141 0.266 0.297 0.406 0.438 0.49 0.5 0.972 1.01 1.469 1.5 0.726 0.733 1.477 1.438 2.219 2.156 0.01 0.011 0.021 0.021 0.031 0.031 0.089 0.089 0.161 0.192 0.25 0.281 0.154 0.149 0.314 0.29 0.469 0.438 0.03 0.032 0.063 0.062 0.094 0.094 0.056 0.058 0.1 0.13 0.156 0.188 0.135 0.136 0.27 0.271 0.406 0.406 0.032 0.031 0.062 0.063 0.094 0.094 0.122 0.117 0.253 0.227 0.375 0.344 0.072 0.074 0.147 0.145 0.219 0.219 0.067 0.068 0.12 0.151 0.188 0.219 0.355 0.362 0.735 0.705 1.094 1.063 0.857 0.873 1.715 1.743 2.594 2.594 0.01 0.011 0.021 0.021 0.031 0.031 0.089 0.089 0.161 0.192 0.25 0.281 0.154 0.149 0.314 0.29 0.469 0.438 0.03 0.032 0.063 0.062 0.094 0.094 0.056 0.058 0.1 0.13 0.156 0.188 0.245 0.246 0.504 0.474 0.75 0.719 0.043 0.041 0.082 0.084 0.125 0.125 0.072 0.074 0.147 0.145 0.219 0.219 0.14 0.141 0.265 0.297 0.406 0.438 0.283 0.288 0.589 0.558 0.875 0.844 0.591 0.602 1.179 1.221 1.781 1.813 0.254 0.255 0.525 0.497 0.781 0.75 0.109 0.11 0.203 0.234 0.313 0.344 0.183 0.18 0.378 0.352 0.563 0.531 0.151 0.152 0.286 0.317 0.438 0.469 0.153 0.148 0.315 0.291 0.469 0.438 0.03 0.032 0.063 0.062 0.094 0.094 0.056 0.058 0.1 0.13 0.156 0.188 0.135 0.136 0.27 0.271 0.406 0.406 0.032 0.031 0.062 0.063 0.094 0.094 0.021 0.02 0.041 0.042 0.063 0.063 0.005 0.005 0.026-0.005 0.031 0 0.095 0.09 0.186 0.191 0.281 0.281 0.14 0.141 0.266 0.297 0.406 0.438 0.49 0.5 0.972 1.01 1.469 1.5 0.726 0.733 1.477 1.438 2.219 2.156 0.01 0.011 0.021 0.021 0.031 0.031 0.089 0.089 0.161 0.192 0.25 0.281 0.154 0.149 0.314 0.29 0.469 0.438 0.03 0.032 0.063 0.062 0.094 0.094 0.056 0.058 0.1 0.13 0.156 0.188 0.245 0.246 0.504 0.474 0.75 0.719 0.043 0.041 0.082 0.084 0.125 0.125 0.072 0.074 0.147 0.145 0.219 0.219 0.14 0.141 0.265 0.297 0.406 0.438 0.283 0.288 0.589 0.558 0.875 0.844 0.857 0.873 1.715 1.743 2.594 2.594 0.01 0.011 0.021 0.021 0.031 0.031 0.089 0.089 0.161 0.192 0.25 0.281 0.154 0.149 0.314 0.29 0.469 0.438 0.03 0.032 0.063 0.062 0.094 0.094 0.056 0.058 0.1 0.13 0.156 0.188 0.135 0.136 0.27 0.271 0.406 0.406 0.032 0.031 0.062 0.063 0.094 0.094 0.021 0.02 0.041 0.042 0.063 0.063 0.015 0.016 0.047 0.016 0.063 0.031 0.085 0.081 0.165 0.169 0.25 0.25 0.072 0.074 0.147 0.145 0.219 0.219 0.14 0.141 0.265 0.297 0.406 0.438 0.283 0.288 0.589 0.558 0.875 0.844 0.591 0.602 1.179 1.221 1.781 1.813 0.254 0.255 0.525 0.497 0.781 0.75 0.109 0.11 0.203 0.234 0.313 0.344 0.331 0.337 0.666 0.666 1 1 0.153 0.148 0.315 0.291 0.469 0.438 0.03 0.032 0.063 0.062 0.094 0.094 0.056 0.058 0.1 0.13 0.156 0.188 0.245 0.246 0.504 0.474 0.75 0.719 0.043 0.041 0.082 0.084 0.125 0.125 0.14 0.141 0.266 0.297 0.406 0.438 0.619 0.631 1.245 1.256 1.875 1.875 0.254 0.255 0.525 0.497 0.781 0.75 0.109 0.11 0.203 0.234 0.313 0.344 0.183 0.18 0.378 0.352 0.563 0.531 0.151 0.152 0.286 0.317 0.438 0.469 0.153 0.148 0.315 0.291 0.469 0.438 0.03 0.032 0.063 0.062 0.094 0.094 0.056 0.058 0.1 0.13 0.156 0.188 0.135 0.136 0.27 0.271 0.406 0.406 0.032 0.031 0.062 0.063 0.094 0.094 0.122 0.117 0.253 0.227 0.375 0.344 0.072 0.074 0.147 0.145 0.219 0.219 0.14 0.141 0.265 0.297 0.406 0.438 0.283 0.288 0.589 0.558 0.875 0.844 0.857 0.873 1.715 1.743 2.594 2.594 0.01 0.011 0.021 0.021 0.031 0.031 0.089 0.089 0.161 0.192 0.25 0.281 0.154 0.149 0.314 0.29 0.469 0.438 0.03 0.032 0.063 0.062 0.094 0.094 0.056 0.058 0.1 0.13 0.156 0.188 0.245 0.246 0.504 0.474 0.75 0.719 0.043 0.041 0.082 0.084 0.125 0.125 0.072 0.074 0.147 0.145 0.219 0.219 0.14 0.141 0.265 0.297 0.406 0.438 0.283 0.288 0.589 0.558 0.875 0.844 0.591 0.602 1.179 1.221 1.781 1.813 0.254 0.255 0.525 0.497 0.781 0.75 0.109 0.11 0.203 0.234 0.313 0.344 0.183 0.18 0.378 0.352 0.563 0.531 0.151 0.152 0.286 0.317 0.438 0.469 0.153 0.148 0.315 0.291 0.469 0.438 0.03 0.032 0.063 0.062 0.094 0.094 0.056 0.058 0.1 0.13 0.156 0.188 0.135 0.136 0.27 0.271 0.406 0.406 0.032 0.031 0.062 0.063 0.094 0.094 0.021 0.02 0.041 0.042 0.063 0.063 0.005 0.005 0.026-0.005 0.031 0 0.095 0.09 0.186 0.191 0.281 0.281 0.14 0.141 0.266 0.297 0.406 0.438 0.619 0.631 1.245 1.256 1.875 1.875 0.254 0.255 0.525 0.497 0.781 0.75 0.109 0.11 0.203 0.234 0.313 0.344 0.183 0.18 0.378 0.352 0.563 0.531 0.151 0.152 0.286 0.317 0.438 0.469 0.153 0.148 0.315 0.291 0.469 0.438 0.03 0.032 0.063 0.062 0.094 0.094 0.056 0.058 0.1 0.13 0.156 0.188 0.245 0.246 0.504 0.474 0.75 0.719 0.043 0.041 0.082 0.084 0.125 0.125 0.072 0.074 0.147 0.145 0.219 0.219 0.14 0.141 0.265 0.297 0.406 0.438 0.283 0.288 0.589 0.558 0.875 0.844 0.857 0.872 1.715 1.743 2.594 2.594 0.01 0.011 0.021 0.021 0.031 0.031 0.089 0.089 0.161 0.192 0.25 0.281 0.154 0.149 0.314 0.29 0.469 0.438 0.03 0.032 0.063 0.062 0.094 0.094 0.056 0.058 0.1 0.13 0.156 0.188 0.135 0.136 0.27 0.271 0.406 0.406 0.032 0.031 0.062 0.063 0.094 0.094 0.122 0.117 0.253 0.227 0.375 0.344 0.072 0.074 0.147 0.145 0.219 0.219 0.14 0.141 0.265 0.297 0.406 0.438 0.283 0.288 0.589 0.558 0.875 0.844 0.591 0.602 1.179 1.221 1.781 1.813 0.254 0.255 0.525 0.497 0.781 0.75 0.109 0.11 0.203 0.234 0.313 0.344 0.183 0.18 0.378 0.352 0.563 0.531 0.151 0.152 0.286 0.317 0.438 0.469 0.153 0.148 0.315 0.291 0.469 0.438 0.03 0.032 0.063 0.062 0.094 0.094 0.056 0.058 0.1 0.13 0.156 0.188 0.245 0.246 0.504 0.474 0.75 0.719 0.043 0.041 0.082 0.084 0.125 0.125 0.14 0.141 0.266 0.297 0.406 0.438 0.619 0.631 1.245 1.256 1.875 1.875 0.254 0.255 0.525 0.497 0.781 0.75 0.109 0.11 0.203 0.234 0.313 0.344 0.183 0.18 0.378 0.352 0.563 0.531 0.151 0.152 0.286 0.317 0.438 0.469 0.153 0.148 0.315 0.291 0.469 0.438 0.03 0.032 0.063 0.062 0.094 0.094 0.056 0.058 0.1 0.13 0.156 0.188 0.135 0.136 0.27 0.271 0.406 0.406 0.032 0.031 0.062 0.063 0.094 0.094 0.122 0.117 0.253 0.227 0.375 0.344 0.072 0.074 0.147 0.145 0.219 0.219 0.14 0.141 0.265 0.297 0.406 0.438 0.283 0.288 0.589 0.558 0.875 0.844 0.857 0.872 1.715 1.743 2.594 2.594 0.01 0.011 0.021 0.021 0.031 0.031 0.089 0.089 0.161 0.192 0.25 0.281 0.088 0.09 0.193 0.161 0.281 0.25 0.064 0.061 0.123 0.126 0.188 0.188 0.03 0.032 0.063 0.062 0.094 0.094 0.056 0.058 0.1 0.13 0.156 0.188 0.245 0.246 0.504 0.474 0.75 0.719 0.043 0.041 0.082 0.084 0.125 0.125 0.072 0.074 0.147 0.145 0.219 0.219 0.14 0.141 0.265 0.297 0.406 0.438 0.283 0.288 0.589 0.558 0.875 0.844 0.591 0.602 1.179 1.221 1.781 1.813 0.254 0.255 0.525 0.497 0.781 0.75 0.109 0.11 0.203 0.234 0.313 0.344 0.183 0.18 0.378 0.352 0.563 0.531 0.151 0.152 0.286 0.317 0.438 0.469 0.153 0.148 0.315 0.291 0.469 0.438 0.03 0.032 0.063 0.062 0.094 0.094 0.056 0.058 0.1 0.13 0.156 0.188 0.135 0.136 0.27 0.271 0.406 0.406 0.032 0.031 0.062 0.063 0.094 0.094 0.021 0.02 0.041 0.042 0.063 0.063 0.005 0.005 0.026-0.005 0.031 0 0.095 0.09 0.186 0.191 0.281 0.281 0.14 0.141 0.266 0.297 0.406 0.438 0.619 0.631 1.245 1.256 1.875 1.875 0.254 0.255 0.525 0.497 0.781 0.75 0.109 0.11 0.203 0.234 0.313 0.344 0.183 0.18 0.378 0.352 0.563 0.531 0.151 0.152 0.286 0.317 0.438 0.469 0.153 0.148 0.315 0.291 0.469 0.438 0.031 0.032 0.063 0.062 0.094 0.094 0.056 0.058 0.1 0.13 0.156 0.188 0.245 0.246 0.504 0.474 0.75 0.719 0.043 0.041 0.082 0.084 0.125 0.125 0.072 0.074 0.147 0.145 0.219 0.219 0.14 0.141 0.265 0.297 0.406 0.438 0.283 0.288 0.589 0.558 0.875 0.844 0.857 0.872 1.715 1.743 2.594 2.594 0.01 0.011 0.021 0.021 0.031 0.031 0.089 0.089 0.161 0.192 0.25 0.281 0.154 0.149 0.314 0.29 0.469 0.438 0.031 0.032 0.063 0.062 0.094 0.094 0.056 0.058 0.1 0.13 0.156 0.188 0.135 0.136 0.27 0.271 0.406 0.406 0.032 0.031 0.062 0.063 0.094 0.094 0.122 0.117 0.253 0.227 0.375 0.344 0.072 0.074 0.147 0.145 0.219 0.219 0.12 0.12 0.227 0.252 0.344 0.375 109.18-7.247 196.45-94.51 203.69-203.69-0.052-0.052-0.105-0.103-0.156-0.156-0.151-0.151-0.318-0.288-0.469-0.438-0.032-0.031-0.062-0.063-0.094-0.094-0.03-0.032-0.063-0.062-0.094-0.094-0.068-0.066-0.119-0.153-0.188-0.219-0.052-0.051-0.104-0.105-0.156-0.156-0.152-0.152-0.317-0.287-0.469-0.438-0.032-0.031-0.062-0.063-0.094-0.094-0.061-0.064-0.126-0.124-0.188-0.188l-0.063-0.063c-0.069-0.066-0.119-0.153-0.188-0.219-0.099-0.099-0.213-0.182-0.313-0.281-0.053-0.051-0.103-0.106-0.156-0.156-0.026-0.026-0.036-0.068-0.063-0.094-0.155-0.156-0.313-0.313-0.469-0.469-0.649-0.662-1.307-1.319-1.969-1.969-0.332-0.332-0.665-0.671-1-1-0.14-0.14-0.297-0.267-0.438-0.406-0.041-0.042-0.084-0.083-0.125-0.125-0.031-0.031-0.063-0.062-0.094-0.094-0.068-0.066-0.119-0.153-0.188-0.219-0.052-0.051-0.104-0.105-0.156-0.156-0.152-0.152-0.317-0.287-0.469-0.438-0.032-0.031-0.062-0.063-0.094-0.094-0.061-0.064-0.126-0.124-0.188-0.188l-0.063-0.063c-0.069-0.066-0.119-0.153-0.188-0.219-0.099-0.099-0.213-0.182-0.313-0.281-0.053-0.051-0.103-0.106-0.156-0.156-0.026-0.026-0.036-0.068-0.063-0.094-0.155-0.156-0.313-0.313-0.469-0.469-0.649-0.662-1.307-1.319-1.969-1.969-0.399-0.399-0.815-0.793-1.219-1.188-0.073-0.072-0.146-0.147-0.219-0.219-0.041-0.042-0.084-0.083-0.125-0.125-0.04-0.042-0.085-0.083-0.125-0.125-0.006-0.006 0.006-0.025 0-0.031-0.011-0.01-0.021-0.021-0.031-0.031l-0.063-0.063c-0.071-0.074-0.148-0.145-0.219-0.219-0.152-0.152-0.317-0.287-0.469-0.438-0.032-0.031-0.062-0.063-0.094-0.094-0.061-0.064-0.126-0.124-0.188-0.188l-0.063-0.063c-0.158-0.153-0.31-0.317-0.469-0.469l-0.031-0.031c-0.053-0.051-0.103-0.106-0.156-0.156-0.026-0.026-0.036-0.068-0.063-0.094-0.155-0.156-0.313-0.313-0.469-0.469-0.49-0.5-0.972-1.01-1.469-1.5-0.492-0.497-1-0.979-1.5-1.469-0.14-0.14-0.297-0.267-0.438-0.406-0.041-0.042-0.084-0.083-0.125-0.125-0.057-0.058-0.099-0.13-0.156-0.188-0.042-0.041-0.082-0.084-0.125-0.125-0.052-0.051-0.104-0.105-0.156-0.156-0.152-0.152-0.317-0.287-0.469-0.438-0.032-0.031-0.062-0.063-0.094-0.094-0.061-0.064-0.126-0.124-0.188-0.188l-0.063-0.063c-0.069-0.066-0.119-0.153-0.188-0.219-0.099-0.099-0.213-0.182-0.313-0.281-0.053-0.051-0.103-0.106-0.156-0.156-0.184-0.182-0.347-0.381-0.531-0.563-0.49-0.5-0.972-1.01-1.469-1.5-0.492-0.497-1-0.979-1.5-1.469-0.14-0.14-0.297-0.267-0.438-0.406-0.041-0.042-0.084-0.083-0.125-0.125-0.04-0.042-0.085-0.083-0.125-0.125l-0.031-0.031c-0.005-0.005 0.005-0.026 0-0.031l-0.063-0.063c-0.071-0.074-0.148-0.145-0.219-0.219-0.151-0.152-0.317-0.287-0.469-0.438-0.032-0.031-0.062-0.063-0.094-0.094-0.061-0.064-0.127-0.124-0.188-0.188l-0.063-0.063c-0.069-0.066-0.119-0.153-0.188-0.219-0.334-0.334-0.663-0.669-1-1-0.334-0.334-0.663-0.669-1-1l-0.094-0.094c-0.619-0.63-1.244-1.256-1.875-1.875-0.14-0.14-0.297-0.267-0.438-0.406-0.041-0.042-0.084-0.083-0.125-0.125-0.057-0.058-0.099-0.13-0.156-0.188-0.042-0.041-0.082-0.084-0.125-0.125-0.052-0.051-0.104-0.105-0.156-0.156-0.151-0.152-0.317-0.287-0.469-0.438-0.032-0.031-0.062-0.063-0.094-0.094-0.061-0.064-0.127-0.124-0.188-0.188l-0.063-0.063c-0.222-0.214-0.433-0.444-0.656-0.656-0.183-0.182-0.347-0.382-0.531-0.563-0.334-0.334-0.663-0.669-1-1l-0.094-0.094c-0.619-0.63-1.244-1.256-1.875-1.875-0.14-0.14-0.297-0.267-0.438-0.406-0.041-0.042-0.084-0.083-0.125-0.125-0.04-0.042-0.085-0.083-0.125-0.125l-0.031-0.031c-0.005-0.005 0.005-0.026 0-0.031l-0.063-0.063c-0.071-0.074-0.148-0.145-0.219-0.219-0.096-0.092-0.185-0.189-0.281-0.281-0.057-0.057-0.13-0.099-0.188-0.156-0.032-0.031-0.062-0.063-0.094-0.094-0.03-0.032-0.063-0.062-0.094-0.094-0.068-0.066-0.119-0.153-0.188-0.219-0.052-0.051-0.104-0.105-0.156-0.156-0.151-0.152-0.317-0.287-0.469-0.438-0.032-0.031-0.062-0.063-0.094-0.094-0.061-0.064-0.126-0.124-0.188-0.188l-0.063-0.063c-0.069-0.066-0.119-0.153-0.188-0.219-0.099-0.099-0.213-0.182-0.313-0.281-0.053-0.051-0.103-0.106-0.156-0.156-0.026-0.026-0.036-0.068-0.063-0.094-0.155-0.156-0.313-0.313-0.469-0.469-0.649-0.662-1.307-1.319-1.969-1.969-0.332-0.332-0.665-0.671-1-1-0.14-0.14-0.297-0.267-0.438-0.406-0.041-0.042-0.084-0.083-0.125-0.125-0.031-0.031-0.063-0.062-0.094-0.094-0.068-0.066-0.119-0.153-0.188-0.219-0.052-0.051-0.104-0.105-0.156-0.156-0.151-0.152-0.317-0.287-0.469-0.438-0.032-0.031-0.062-0.063-0.094-0.094-0.061-0.064-0.126-0.124-0.188-0.188l-0.063-0.063c-0.069-0.066-0.119-0.153-0.188-0.219-0.099-0.099-0.213-0.182-0.313-0.281-0.053-0.051-0.103-0.106-0.156-0.156-0.026-0.026-0.036-0.068-0.063-0.094-0.155-0.156-0.313-0.313-0.469-0.469-0.649-0.662-1.307-1.319-1.969-1.969-0.332-0.332-0.665-0.671-1-1-0.14-0.14-0.297-0.267-0.438-0.406-0.041-0.042-0.084-0.083-0.125-0.125-0.04-0.042-0.085-0.083-0.125-0.125-0.006-0.006 0.006-0.025 0-0.031-0.011-0.01-0.021-0.021-0.031-0.031l-0.063-0.063c-0.071-0.074-0.148-0.145-0.219-0.219-0.151-0.152-0.317-0.287-0.469-0.438-0.032-0.031-0.062-0.063-0.094-0.094-0.061-0.064-0.126-0.124-0.188-0.188l-0.063-0.063c-0.069-0.066-0.119-0.153-0.188-0.219-0.099-0.099-0.213-0.182-0.313-0.281-0.053-0.051-0.103-0.106-0.156-0.156-0.026-0.026-0.036-0.068-0.063-0.094-0.155-0.156-0.313-0.313-0.469-0.469-0.49-0.5-0.972-1.01-1.469-1.5-0.492-0.497-1-0.979-1.5-1.469-0.14-0.14-0.297-0.267-0.438-0.406-0.041-0.042-0.084-0.083-0.125-0.125-0.057-0.058-0.099-0.13-0.156-0.188-0.042-0.041-0.082-0.084-0.125-0.125-0.052-0.051-0.104-0.105-0.156-0.156-0.151-0.152-0.317-0.287-0.469-0.438-0.032-0.031-0.062-0.063-0.094-0.094-0.061-0.064-0.126-0.124-0.188-0.188l-0.063-0.063c-0.069-0.066-0.119-0.153-0.188-0.219-0.099-0.099-0.213-0.182-0.313-0.281-0.053-0.051-0.103-0.106-0.156-0.156-0.026-0.026-0.036-0.068-0.063-0.094-0.155-0.156-0.313-0.313-0.469-0.469-0.49-0.5-0.972-1.01-1.469-1.5-0.492-0.497-1-0.979-1.5-1.469-0.14-0.14-0.297-0.267-0.438-0.406-0.016-0.015-0.046-0.016-0.063-0.031-0.026-0.026-0.037-0.067-0.063-0.094-0.04-0.042-0.085-0.083-0.125-0.125l-0.031-0.031c-0.005-0.005 0.005-0.026 0-0.031l-0.063-0.063c-0.071-0.074-0.148-0.145-0.219-0.219-0.151-0.152-0.317-0.287-0.469-0.438-0.032-0.031-0.062-0.063-0.094-0.094-0.061-0.064-0.127-0.124-0.188-0.188l-0.063-0.063c-0.069-0.066-0.119-0.153-0.188-0.219-0.334-0.334-0.663-0.669-1-1-0.334-0.334-0.663-0.669-1-1l-0.094-0.094c-0.619-0.63-1.244-1.256-1.875-1.875-0.14-0.14-0.297-0.267-0.438-0.406-0.041-0.042-0.084-0.083-0.125-0.125-0.057-0.058-0.099-0.13-0.156-0.188-0.042-0.041-0.082-0.084-0.125-0.125-0.052-0.051-0.104-0.105-0.156-0.156-0.151-0.152-0.317-0.287-0.469-0.438-0.032-0.031-0.062-0.063-0.094-0.094-0.061-0.064-0.127-0.124-0.188-0.188l-0.063-0.063c-0.069-0.066-0.119-0.153-0.188-0.219-0.334-0.334-0.663-0.669-1-1-0.334-0.334-0.663-0.669-1-1l-0.094-0.094c-0.619-0.63-1.244-1.256-1.875-1.875-0.14-0.14-0.297-0.267-0.438-0.406-0.041-0.042-0.084-0.083-0.125-0.125-0.04-0.042-0.085-0.083-0.125-0.125l-0.031-0.031c-0.005-0.005 0.005-0.026 0-0.031l-0.063-0.063c-0.071-0.074-0.148-0.145-0.219-0.219-0.096-0.092-0.185-0.189-0.281-0.281-0.057-0.057-0.13-0.099-0.188-0.156-0.032-0.031-0.062-0.063-0.094-0.094-0.03-0.032-0.063-0.062-0.094-0.094-0.068-0.066-0.119-0.153-0.188-0.219-0.052-0.051-0.104-0.105-0.156-0.156-0.151-0.152-0.317-0.287-0.469-0.438-0.032-0.031-0.062-0.063-0.094-0.094-0.061-0.064-0.126-0.124-0.188-0.188l-0.063-0.063c-0.069-0.066-0.119-0.153-0.188-0.219-0.099-0.099-0.213-0.182-0.313-0.281-0.053-0.051-0.103-0.106-0.156-0.156-0.026-0.026-0.036-0.068-0.063-0.094-0.155-0.156-0.313-0.313-0.469-0.469-0.649-0.662-1.307-1.319-1.969-1.969-0.332-0.332-0.665-0.671-1-1-0.14-0.14-0.297-0.267-0.438-0.406-0.041-0.042-0.084-0.083-0.125-0.125-0.031-0.031-0.063-0.062-0.094-0.094-0.068-0.066-0.119-0.153-0.188-0.219-0.052-0.051-0.104-0.105-0.156-0.156-0.151-0.152-0.317-0.287-0.469-0.438-0.032-0.031-0.062-0.063-0.094-0.094-0.061-0.064-0.126-0.124-0.188-0.188l-0.063-0.063c-0.069-0.066-0.119-0.153-0.188-0.219-0.097-0.101-0.215-0.181-0.313-0.281-0.053-0.051-0.103-0.106-0.156-0.156-0.026-0.026-0.036-0.068-0.063-0.094-0.155-0.156-0.313-0.313-0.469-0.469-0.649-0.662-1.307-1.319-1.969-1.969-0.332-0.332-0.665-0.671-1-1-0.14-0.14-0.297-0.267-0.438-0.406-0.041-0.042-0.084-0.083-0.125-0.125-0.04-0.042-0.085-0.083-0.125-0.125-0.006-0.006 0.006-0.025 0-0.031-0.011-0.01-0.021-0.021-0.031-0.031l-0.063-0.063c-0.071-0.074-0.148-0.145-0.219-0.219-0.151-0.152-0.317-0.287-0.469-0.438-0.032-0.031-0.062-0.063-0.094-0.094-0.061-0.064-0.126-0.124-0.188-0.188l-0.063-0.063c-0.069-0.066-0.119-0.153-0.188-0.219-0.099-0.099-0.213-0.182-0.313-0.281-0.053-0.051-0.103-0.106-0.156-0.156-0.026-0.026-0.036-0.068-0.063-0.094-0.155-0.156-0.313-0.313-0.469-0.469-0.49-0.5-0.972-1.01-1.469-1.5-0.492-0.497-1-0.979-1.5-1.469-0.14-0.14-0.297-0.267-0.438-0.406-0.041-0.042-0.084-0.083-0.125-0.125-0.057-0.058-0.099-0.13-0.156-0.188-0.042-0.041-0.082-0.084-0.125-0.125-0.052-0.051-0.104-0.105-0.156-0.156-0.151-0.152-0.317-0.287-0.469-0.438-0.032-0.031-0.062-0.063-0.094-0.094-0.061-0.064-0.126-0.124-0.188-0.188l-0.063-0.063c-0.069-0.066-0.119-0.153-0.188-0.219-0.099-0.099-0.213-0.182-0.313-0.281-0.053-0.051-0.103-0.106-0.156-0.156-0.026-0.026-0.036-0.068-0.063-0.094-0.155-0.156-0.313-0.313-0.469-0.469-0.49-0.5-0.972-1.01-1.469-1.5-0.492-0.497-1-0.979-1.5-1.469-0.14-0.14-0.297-0.267-0.438-0.406-0.041-0.042-0.084-0.083-0.125-0.125-0.04-0.042-0.085-0.083-0.125-0.125l-0.031-0.031c-0.005-0.005 0.005-0.026 0-0.031l-0.063-0.063c-0.071-0.074-0.148-0.145-0.219-0.219-0.151-0.152-0.317-0.287-0.469-0.438-0.032-0.031-0.062-0.063-0.094-0.094-0.061-0.064-0.127-0.124-0.188-0.188l-0.063-0.063c-0.069-0.066-0.119-0.153-0.188-0.219-0.334-0.334-0.663-0.669-1-1-0.334-0.334-0.663-0.669-1-1l-0.094-0.094c-0.619-0.63-1.245-1.256-1.875-1.875-0.14-0.14-0.297-0.267-0.438-0.406-0.041-0.042-0.084-0.083-0.125-0.125-0.057-0.058-0.099-0.13-0.156-0.188-0.042-0.041-0.083-0.084-0.125-0.125-0.052-0.051-0.104-0.105-0.156-0.156-0.151-0.152-0.317-0.287-0.469-0.438-0.032-0.031-0.062-0.063-0.094-0.094-0.061-0.064-0.127-0.124-0.188-0.188l-0.063-0.063c-0.069-0.066-0.119-0.153-0.188-0.219-0.334-0.334-0.663-0.669-1-1-0.334-0.334-0.663-0.669-1-1l-0.094-0.094c-0.619-0.63-1.245-1.256-1.875-1.875-0.14-0.14-0.297-0.267-0.438-0.406-0.041-0.042-0.084-0.083-0.125-0.125-0.04-0.042-0.085-0.083-0.125-0.125l-0.031-0.031c-0.005-0.005 0.005-0.026 0-0.031l-0.156-0.156c-0.041-0.042-0.084-0.083-0.125-0.125-0.151-0.151-0.318-0.288-0.469-0.438-0.032-0.031-0.062-0.063-0.094-0.094-0.03-0.032-0.063-0.062-0.094-0.094-0.068-0.066-0.119-0.153-0.188-0.219-0.052-0.051-0.104-0.105-0.156-0.156-0.214-0.214-0.441-0.412-0.656-0.625-0.121-0.117-0.222-0.258-0.344-0.375-0.12-0.12-0.254-0.224-0.375-0.344-0.032-0.03-0.062-0.063-0.094-0.094-0.183-0.182-0.347-0.382-0.531-0.563-26.06-26.06-62.04-42.18-101.81-42.19h-0.031" color="#000000"/>
 <g id="g8" fill-rule="evenodd">
  <path id="path10" fill-opacity="0.067" d="m256 1c-140.83 0-255 114.17-255 255s114.17 255 255 255 255-114.17 255-255-114.17-255-255-255m8.827 44.931c120.9 0 218.9 98 218.9 218.9s-98 218.9-218.9 218.9-218.93-98-218.93-218.9 98.03-218.9 218.93-218.9"/>
  <g id="g12" fill-opacity="0.129">
   <path id="path14" d="m256 4.433c-138.94 0-251.57 112.63-251.57 251.57s112.63 251.57 251.57 251.57 251.57-112.63 251.57-251.57-112.63-251.57-251.57-251.57m5.885 38.556c120.9 0 218.9 98 218.9 218.9s-98 218.9-218.9 218.9-218.93-98-218.93-218.9 98.03-218.9 218.93-218.9"/>
   <path id="path16" d="m256 8.356c-136.77 0-247.64 110.87-247.64 247.64s110.87 247.64 247.64 247.64 247.64-110.87 247.64-247.64-110.87-247.64-247.64-247.64m2.942 31.691c120.9 0 218.9 98 218.9 218.9s-98 218.9-218.9 218.9-218.93-98-218.93-218.9 98.03-218.9 218.93-218.9"/>
  </g>
  <path id="path18" d="m253.04 7.859c-135.42 0-245.19 109.78-245.19 245.19 0 135.42 109.78 245.19 245.19 245.19 135.42 0 245.19-109.78 245.19-245.19 0-135.42-109.78-245.19-245.19-245.19zm0 26.297c120.9 0 218.9 98 218.9 218.9s-98 218.9-218.9 218.9-218.93-98-218.93-218.9 98.03-218.9 218.93-218.9z" stroke-opacity="0.31" stroke="#000" stroke-width="4.904" fill="#fff"/>
 </g>
 <g id="g66" transform="matrix(1.2546,0,0,1.2546,527.17,96.57)" fill="#fff" color="#000000">
  <path id="path68" d="m-151.56 127.08a64.58 64.58 0 0 1 -129.16 0 64.58 64.58 0 1 1 129.16 0"/>
  <path id="path70" d="m-216.14 12.268c-63.41 0-114.81 51.4-114.81 114.81s51.4 114.81 114.81 114.81 114.81-51.4 114.81-114.81-51.4-114.81-114.81-114.81m0 28.702c47.555 0 86.11 38.551 86.11 86.11 0 47.555-38.551 86.11-86.11 86.11-47.555 0-86.11-38.551-86.11-86.11 0-47.555 38.551-86.11 86.11-86.11"/>
 </g>
</svg>
