<?xml version="1.0" encoding="UTF-8" standalone="no"?>
<svg xmlns="http://www.w3.org/2000/svg" height="512" viewBox="0 0 512 512" width="512" version="1.1">
 <metadata id="metadata72"/>
 <path id="path4" d="m471.95 253.05c0 120.9-98.01 218.9-218.9 218.9-120.9 0-218.9-98.01-218.9-218.9 0-120.9 98.01-218.9 218.9-218.9 120.9 0 218.9 98.01 218.9 218.9" fill-rule="evenodd" fill="#BF9E73"/>
 <g id="g8" fill-rule="evenodd">
  <path id="path10" fill-opacity="0.067" d="m256 1c-140.83 0-255 114.17-255 255s114.17 255 255 255 255-114.17 255-255-114.17-255-255-255m8.827 44.931c120.9 0 218.9 98 218.9 218.9s-98 218.9-218.9 218.9-218.93-98-218.93-218.9 98.03-218.9 218.93-218.9"/>
  <g id="g12" fill-opacity="0.129">
   <path id="path14" d="m256 4.433c-138.94 0-251.57 112.63-251.57 251.57s112.63 251.57 251.57 251.57 251.57-112.63 251.57-251.57-112.63-251.57-251.57-251.57m5.885 38.556c120.9 0 218.9 98 218.9 218.9s-98 218.9-218.9 218.9-218.93-98-218.93-218.9 98.03-218.9 218.93-218.9"/>
   <path id="path16" d="m256 8.356c-136.77 0-247.64 110.87-247.64 247.64s110.87 247.64 247.64 247.64 247.64-110.87 247.64-247.64-110.87-247.64-247.64-247.64m2.942 31.691c120.9 0 218.9 98 218.9 218.9s-98 218.9-218.9 218.9-218.93-98-218.93-218.9 98.03-218.9 218.93-218.9"/>
  </g>
  <path id="path18" d="m253.04 7.859c-135.42 0-245.19 109.78-245.19 245.19 0 135.42 109.78 245.19 245.19 245.19 135.42 0 245.19-109.78 245.19-245.19 0-135.42-109.78-245.19-245.19-245.19zm0 26.297c120.9 0 218.9 98 218.9 218.9s-98 218.9-218.9 218.9-218.93-98-218.93-218.9 98.03-218.9 218.93-218.9z" stroke-opacity="0.31" stroke="#000" stroke-width="4.904" fill="#fff"/>
 </g>
 <path id="path66" fill="#fff" d="m196.84 167.16c-30.737 0.695-60.97 17.902-75.906 48.719-21.992 45.38-3.743 99.23 40.906 120.66 6.847 3.286 17.15 6.645 22.906 7.438 20.507 2.825 39.624-1.049 56.28-11.375 10.956-6.791 22.906-17.797 22.906-21.09 0-1.116-2.364-7.458-5.281-14.09l-5.313-12.06-2.688 4.375c-5.162 8.44-17.824 19.75-27.25 24.313-8.18 3.959-11.763 4.594-25.625 4.594-14.385 0-17.229-0.553-26.25-5.125-12.519-6.345-23.858-18.12-29.625-30.781-3.805-8.354-4.375-11.967-4.375-27.16 0-15.896 0.458-18.467 4.969-27.656 5.51-11.226 17.251-23.537 27.625-29 10.756-5.664 27.21-7.976 38.969-5.469 23.293 4.967 37.3 17.597 48.19 43.47 26.26 62.41 34.461 79.51 42.531 88.63 12.01 13.57 21.659 17.497 43.06 17.531 15.05 0.024 18.12-0.531 27.344-4.906 20.256-9.613 30.388-25.882 30.16-48.44-0.268-26.16-11.141-37.411-48.19-49.906-26.835-9.05-32.25-13.555-32.25-26.75 0-13.23 8.467-21.438 22.09-21.438 7.879 0 12.364 1.958 18.969 8.313 3.249 3.124 5.667 4.098 8.469 3.344 5.346-1.44 14.969-7.706 14.969-9.75 0-4.222-16.609-18.975-24.5-21.75-18.628-6.552-39.706-2.141-51.906 10.844-8.476 9.02-11.825 17.876-11.813 31.09 0.027 24.638 12.249 37.01 50.03 50.563 24.812 8.902 29.688 13.362 29.688 27.16 0 16.37-13.507 28.06-32.469 28.06-11.589 0-17.607-2.111-24.09-8.438-6.086-5.936-9.574-13.04-28.313-57.656-17.914-42.652-23.24-52.31-35.16-63.59-16.757-15.879-38.03-23.13-59.06-22.656"/>
</svg>
