<?xml version="1.0" encoding="UTF-8" standalone="no"?>
<svg
   xmlns:dc="http://purl.org/dc/elements/1.1/"
   xmlns:cc="http://creativecommons.org/ns#"
   xmlns:rdf="http://www.w3.org/1999/02/22-rdf-syntax-ns#"
   xmlns:svg="http://www.w3.org/2000/svg"
   xmlns="http://www.w3.org/2000/svg"
   xmlns:sodipodi="http://sodipodi.sourceforge.net/DTD/sodipodi-0.dtd"
   xmlns:inkscape="http://www.inkscape.org/namespaces/inkscape"
   height="512"
   viewBox="0 0 512 512"
   width="512"
   version="1.1"
   id="svg2"
   inkscape:version="0.91 r13725"
   sodipodi:docname="leafpad.svg">
  <defs
     id="defs17" />
  <sodipodi:namedview
     pagecolor="#ffffff"
     bordercolor="#666666"
     borderopacity="1"
     objecttolerance="10"
     gridtolerance="10"
     guidetolerance="10"
     inkscape:pageopacity="0"
     inkscape:pageshadow="2"
     inkscape:window-width="1920"
     inkscape:window-height="1019"
     id="namedview15"
     showgrid="false"
     inkscape:zoom="0.87831353"
     inkscape:cx="-116.82268"
     inkscape:cy="203.4079"
     inkscape:window-x="0"
     inkscape:window-y="13"
     inkscape:window-maximized="1"
     inkscape:current-layer="svg2" />
  <metadata
     id="metadata28">
    <rdf:RDF>
      <cc:Work
         rdf:about="">
        <dc:format>image/svg+xml</dc:format>
        <dc:type
           rdf:resource="http://purl.org/dc/dcmitype/StillImage" />
        <dc:title />
      </cc:Work>
    </rdf:RDF>
  </metadata>
  <path
     style="fill:#BF9E73;fill-rule:evenodd;fill-opacity:1"
     inkscape:connector-curvature="0"
     d="m 471.95,253.05 c 0,120.9 -98.01,218.9 -218.9,218.9 -120.9,0 -218.9,-98.01 -218.9,-218.9 0,-120.9 98.01,-218.9 218.9,-218.9 120.9,0 218.9,98.01 218.9,218.9"
     id="path6" />
  <path
     style="fill-opacity:0.06700003;fill-rule:evenodd"
     inkscape:connector-curvature="0"
     d="M 256,1 C 115.17,1 1,115.17 1,256 1,396.83 115.17,511 256,511 396.83,511 511,396.83 511,256 511,115.17 396.83,1 256,1 m 8.827,44.931 c 120.9,0 218.9,98 218.9,218.9 0,120.9 -98,218.9 -218.9,218.9 -120.9,0 -218.93,-98 -218.93,-218.9 0,-120.9 98.03,-218.9 218.93,-218.9"
     id="path8" />
  <g
     style="fill-opacity:0.12900002;fill-rule:evenodd"
     id="g10">
    <path
       inkscape:connector-curvature="0"
       d="m 256,4.433 c -138.94,0 -251.57,112.63 -251.57,251.57 0,138.94 112.63,251.57 251.57,251.57 138.94,0 251.57,-112.63 251.57,-251.57 C 507.57,117.063 394.94,4.433 256,4.433 m 5.885,38.556 c 120.9,0 218.9,98 218.9,218.9 0,120.9 -98,218.9 -218.9,218.9 -120.9,0 -218.93,-98 -218.93,-218.9 0,-120.9 98.03,-218.9 218.93,-218.9"
       id="path12" />
    <path
       inkscape:connector-curvature="0"
       d="m 256,8.356 c -136.77,0 -247.64,110.87 -247.64,247.64 0,136.77 110.87,247.64 247.64,247.64 136.77,0 247.64,-110.87 247.64,-247.64 C 503.64,119.226 392.77,8.356 256,8.356 m 2.942,31.691 c 120.9,0 218.9,98 218.9,218.9 0,120.9 -98,218.9 -218.9,218.9 -120.9,0 -218.93,-98 -218.93,-218.9 0,-120.9 98.03,-218.9 218.93,-218.9"
       id="path14" />
  </g>
  <path
     inkscape:connector-curvature="0"
     style="opacity:0.25"
     id="path4190"
     d="m 304.0859,99.409715 -0.0246,59.319195 51.51613,48.86768 1.0676,3.44856 -106.73774,-110.54334 29.97988,75.63978 33.19258,34.94727 -0.11126,8.81528 -88.95431,-101.36986 c -24.46193,21.03233 -44.80052,45.77771 -73.41046,59.36556 L 116.18495,201.5139 84.831597,257.34764 80.041822,269.51993 283.33923,472.5391 c 10.42712,18.24745 224.03098,-90.66704 190.8849,-217.43278 l -66.71704,-77.77481 -9.28562,24.36457"
     sodipodi:nodetypes="ccccccccccccccccc" />
  <path
     style="fill:#ffffff;fill-rule:evenodd;stroke:#000000;stroke-width:4.90399981;stroke-opacity:0.31000001"
     inkscape:connector-curvature="0"
     d="m 253.04,7.859 c -135.42,0 -245.19,109.78 -245.19,245.19 0,135.42 109.78,245.19 245.19,245.19 135.42,0 245.19,-109.78 245.19,-245.19 0,-135.42 -109.78,-245.19 -245.19,-245.19 z m 0,26.297 c 120.9,0 218.9,98 218.9,218.9 0,120.9 -98,218.9 -218.9,218.9 -120.9,0 -218.93,-98 -218.93,-218.9 0,-120.9 98.03,-218.9 218.93,-218.9 z"
     id="path16" />
  <g
     id="g4160"
     transform="matrix(0.90666959,0,0,0.90666959,22.68201,23.391037)">
    <path
       inkscape:connector-curvature="0"
       id="path3765"
       d="m 424.44286,169.69974 -2.0572,0.33341 -2.05722,0.32582 c -64.78702,9.37866 -134.2427,19.15547 -189.71037,56.0978 -26.28024,17.29051 -53.20358,40.74074 -59.89778,72.24861 -7.82537,36.83201 2.35379,70.85166 29.31998,98.71576 35.8107,37.00317 90.52522,52.62042 136.91623,25.68293 20.49178,-11.89876 36.13496,-31.16408 47.94853,-51.58937 16.7819,-29.01538 23.87474,-62.54303 29.95268,-95.1507 6.5314,-35.04049 6.15016,-71.14003 9.58515,-106.66426 z m -22.8263,20.52285 5.33813,4.94413 c -18.71721,20.20072 -34.53041,37.24381 -49.72539,53.61248 8.55535,6.40151 19.33783,10.39552 32.3357,12.33948 l -1.07595,7.19454 c -14.15269,-2.11667 -26.29372,-6.89045 -36.01822,-14.40425 -12.95688,13.95492 -23.74201,25.54971 -34.31337,36.91233 12.8238,10.12976 29.16718,16.40745 48.90706,19.35975 l -1.07597,7.19455 c -20.8697,-3.12126 -38.59308,-10.18514 -52.59334,-21.43212 -14.30085,15.36625 -26.64102,28.60969 -36.92751,39.6212 15.15009,12.19475 34.5409,19.73038 57.97697,23.23548 l -1.07597,7.19454 c -24.55923,-3.67308 -45.32537,-12.01932 -61.65569,-25.33436 -14.07221,15.05458 -24.10775,25.73568 -31.71057,33.79809 12.86536,10.25999 29.30776,16.60195 49.19117,19.5757 l -1.07594,7.19077 c -21.02619,-3.14467 -38.85509,-10.29617 -52.90402,-21.68974 -14.67449,15.51716 -16.9502,17.69278 -16.9502,17.69278 l -4.83426,-5.43666 c 0,0 2.12526,-2.02466 16.34402,-17.06384 -12.84686,-12.36456 -21.94022,-28.88836 -26.70585,-49.81252 l 7.09226,-1.61395 c 4.49886,19.75281 12.6796,35.01997 24.3948,46.3573 7.55184,-8.01037 17.51854,-18.62869 31.68785,-33.7905 -15.23371,-14.4055 -25.98757,-33.78111 -31.6045,-58.44296 l 7.09226,-1.61394 c 5.34913,23.48604 15.17159,41.59367 29.26315,54.96502 10.26715,-10.99312 22.61603,-24.24134 36.93127,-39.62498 -12.99695,-12.3947 -22.18552,-29.01106 -26.9862,-50.08907 l 7.09226,-1.61397 c 4.53038,19.89121 12.79001,35.23854 24.63729,46.59979 10.56783,-11.36012 21.34779,-22.95075 34.31712,-36.9199 -8.8148,-8.6728 -15.08864,-20.15216 -18.37091,-34.56341 l 7.09226,-1.61772 c 3.00717,13.20329 8.36038,23.42459 16.0182,31.0703 15.22935,-16.40654 31.10509,-33.5183 49.89209,-53.79434 z"
       style="fill:#ffffff;fill-opacity:1;stroke:none;stroke-width:3.75;stroke-miterlimit:4;stroke-dasharray:none;stroke-opacity:1" />
    <g
       transform="matrix(0.35997784,0.50516429,-0.50516429,0.35997784,499.83873,-234.35964)"
       id="g74"
       style="fill:#ffffff;fill-rule:evenodd">
      <path
         transform="translate(0,540.36)"
         d="m 185.53,141.97 0,245.63 56.656,109.75 a 15.316,17.064 0 0 0 15.469,8.5 15.316,17.064 0 0 0 11.031,-8.4062 l 57.75,-111 0,-244.47 -140.91,0 m 71.344,211.97 a 4.2743,4.2743 0 0 1 3.4375,1.375 l 24.03,26.375 9.219,0 a 4.2743,4.2743 0 0 1 3.6875,6.4062 l -29.16,50.44 a 4.2743,4.2743 0 0 1 -3.6875,2.1562 l -15.438,0 a 4.2743,4.2743 0 0 1 -3.75,-2.1875 l -29.28,-52.5 a 4.2743,4.2743 0 0 1 3.7188,-6.375 l 12.406,0 21.938,-24.281 a 4.2743,4.2743 0 0 1 2.875,-1.4062"
         id="path76"
         inkscape:connector-curvature="0" />
      <rect
         x="185.55"
         y="546.35999"
         width="140.92"
         height="56.5"
         ry="28.25"
         rx="62.130001"
         id="rect78" />
      <path
         d="m 185.55,574.38 140.92,0 0,33.24 -140.92,0 z"
         id="path80"
         inkscape:connector-curvature="0" />
      <path
         d="m 185.55,625.89 140.92,0 0,34.899 -140.92,0 z"
         id="path82"
         inkscape:connector-curvature="0" />
    </g>
  </g>
</svg>
