<?xml version="1.0" encoding="UTF-8" standalone="no"?>
<svg xmlns="http://www.w3.org/2000/svg" viewBox="0 0 512 512">
 <g fill-rule="evenodd">
  <path d="m471.95 253.05c0 120.9-98.01 218.91-218.91 218.91s-218.91-98.01-218.91-218.91 98.01-218.91 218.91-218.91 218.91 98.01 218.91 218.91" fill="#BF9E73"/>
  <path d="m256 1c-140.83 0-255 114.17-255 255s114.17 255 255 255 255-114.17 255-255-114.17-255-255-255m8.827 44.931c120.9 0 218.9 98 218.9 218.9s-98 218.9-218.9 218.9-218.93-98-218.93-218.9 98.03-218.9 218.93-218.9" fill-opacity="0.067"/>
  <g fill-opacity="0.129">
   <path d="m256 4.43c-138.94 0-251.57 112.63-251.57 251.57s112.63 251.57 251.57 251.57 251.57-112.63 251.57-251.57-112.63-251.57-251.57-251.57m5.885 38.556c120.9 0 218.9 98 218.9 218.9s-98 218.9-218.9 218.9-218.93-98-218.93-218.9 98.03-218.9 218.93-218.9"/>
   <path d="m256 8.36c-136.77 0-247.64 110.87-247.64 247.64s110.87 247.64 247.64 247.64 247.64-110.87 247.64-247.64-110.87-247.64-247.64-247.64m2.942 31.691c120.9 0 218.9 98 218.9 218.9s-98 218.9-218.9 218.9-218.93-98-218.93-218.9 98.03-218.9 218.93-218.9"/>
  </g>
  <path stroke="#000" stroke-width="4.904" d="m253.04 7.86c-135.42 0-245.19 109.78-245.19 245.19 0 135.42 109.78 245.19 245.19 245.19 135.42 0 245.19-109.78 245.19-245.19 0-135.42-109.78-245.19-245.19-245.19m0 26.297c120.9 0 218.9 98 218.9 218.9s-98 218.9-218.9 218.9-218.93-98-218.93-218.9 98.03-218.9 218.93-218.9z" stroke-opacity="0.31" fill="#fff"/>
 </g>
 <path opacity="0.25" d="m165.95 145.7c-6.734-0.021-9.536 1.52-17.08 9.395-20.802 21.71-34.44 50.16-38.811 80.939-1.469 10.342-1.469 29.367 0 39.709 2.302 16.215 6.91 31.03 14.217 45.707 0.425 0.853 0.861 1.705 1.305 2.555 0.288 0.552 0.587 1.101 0.883 1.65 0.175 0.324 0.346 0.649 0.523 0.973 0.217 0.395 0.441 0.788 0.662 1.182 0.271 0.483 0.54 0.967 0.816 1.447 0.164 0.285 0.332 0.567 0.498 0.852 0.348 0.597 0.696 1.193 1.053 1.785 0.157 0.26 0.316 0.518 0.475 0.777 0.335 0.549 0.671 1.097 1.012 1.641 0.238 0.38 0.481 0.755 0.723 1.133 0.296 0.464 0.592 0.927 0.893 1.387 0.232 0.355 0.468 0.706 0.703 1.059 0.304 0.456 0.608 0.912 0.916 1.363 0.254 0.372 0.511 0.74 0.768 1.109 0.301 0.432 0.602 0.863 0.906 1.291 0.265 0.372 0.53 0.741 0.797 1.109 0.305 0.42 0.61 0.839 0.918 1.254 0.258 0.348 0.519 0.693 0.779 1.037 0.315 0.417 0.63 0.831 0.947 1.242 0.274 0.354 0.549 0.705 0.824 1.055 0.322 0.409 0.646 0.814 0.971 1.217 0.255 0.316 0.511 0.631 0.768 0.943 0.341 0.415 0.682 0.825 1.025 1.232 0.265 0.314 0.529 0.626 0.795 0.936 0.315 0.366 0.631 0.727 0.947 1.086 0.308 0.35 0.616 0.699 0.926 1.043 0.281 0.312 0.564 0.617 0.846 0.924 0.324 0.352 0.648 0.703 0.973 1.047 0.321 0.34 0.643 0.672 0.965 1 0.266 0.275 0.532 0.551 0.799 0.82 0.105 0.106 0.209 0.217 0.314 0.322l113.77 113.77c112.48-5.432 202.67-95.75 207.92-208.27l-110.81-110.81c-0.178-0.178-0.335-0.315-0.508-0.484-0.322-0.315-0.644-0.623-0.951-0.91-0.37-0.345-0.732-0.671-1.084-0.977-0.373-0.325-0.752-0.655-1.109-0.938-0.091-0.072-0.185-0.15-0.275-0.219-0.099-0.076-0.197-0.146-0.295-0.219-0.2-0.149-0.4-0.295-0.598-0.432-0.127-0.088-0.253-0.169-0.379-0.252-0.152-0.099-0.304-0.199-0.455-0.291-0.145-0.089-0.291-0.172-0.436-0.254-0.154-0.088-0.309-0.173-0.463-0.254-0.132-0.069-0.266-0.135-0.398-0.199-0.149-0.072-0.299-0.143-0.449-0.209-0.143-0.063-0.287-0.124-0.432-0.182-0.157-0.062-0.315-0.122-0.473-0.178-0.131-0.046-0.262-0.093-0.395-0.135-0.18-0.058-0.363-0.11-0.547-0.16-0.115-0.031-0.23-0.063-0.346-0.092-0.193-0.047-0.389-0.089-0.586-0.129-0.126-0.025-0.251-0.052-0.379-0.074-0.18-0.032-0.365-0.058-0.549-0.084-0.145-0.02-0.288-0.043-0.436-0.061-0.212-0.025-0.433-0.042-0.652-0.061-0.116-0.01-0.229-0.023-0.348-0.031-0.714-0.048-1.465-0.067-2.271-0.061-5.472 0.044-9.03 1.486-12.691 5.143-3.809 3.806-5.15 7.186-5.141 12.947 0.01 6.074 1.315 8.877 7.03 15.05 14.8 15.986 24.458 34.04 28.721 53.52 0.135 0.617 0.259 1.238 0.383 1.857l-43.543-43.543-0.029-0.029c-6.657-6.653-9.667-8.172-16.16-8.158-4.183 0.009-4.945 0.199-8.344 2.061-6.655 3.646-10.232 10.127-9.643 17.467 0.389 4.849 2.465 8.624 7.684 13.971 7.783 7.975 12.999 17.212 15.607 27.643 0.687 2.745 0.971 6.317 0.971 12.223 0 1.091-0.021 2.026-0.041 2.967l-28.945-28.945c-0.073-0.073-0.153-0.14-0.227-0.213-0.39-0.383-0.788-0.758-1.195-1.125-0.101-0.091-0.201-0.183-0.303-0.273-0.496-0.437-1-0.862-1.525-1.273-0.101-0.08-0.205-0.157-0.307-0.236-0.436-0.338-0.881-0.665-1.334-0.984-0.135-0.095-0.268-0.192-0.404-0.285-0.541-0.371-1.093-0.73-1.656-1.074-0.111-0.068-0.224-0.131-0.336-0.197-0.485-0.289-0.977-0.568-1.477-0.836-0.152-0.082-0.304-0.163-0.457-0.242-0.599-0.311-1.206-0.612-1.826-0.893-0.06-0.027-0.122-0.051-0.182-0.078-0.567-0.253-1.143-0.49-1.727-0.717-0.168-0.065-0.335-0.13-0.504-0.193-0.651-0.243-1.308-0.474-1.979-0.684-3.4-1.061-8.609-1.461-13.367-1.195-0.415 0.023-0.807 0.072-1.213 0.105l-31.652-31.652c-3.084-3.084-5.797-4.549-9.639-5.061l-31.986-31.986c-0.14-0.14-0.294-0.268-0.439-0.404-0.171-0.16-0.34-0.32-0.518-0.475-0.247-0.215-0.506-0.419-0.766-0.623-0.18-0.141-0.355-0.287-0.541-0.422-0.322-0.234-0.658-0.454-0.998-0.67-0.136-0.086-0.266-0.178-0.404-0.262-0.495-0.298-1-0.58-1.535-0.838-2.303-1.12-3.797-1.403-7.482-1.414"/>
 <path d="m160.77 365.62c-3.7-1.223-4.937-2.061-9.42-6.376-10.06-9.679-19.959-23.501-27.07-37.79-7.307-14.677-11.916-29.493-14.218-45.708-1.469-10.342-1.469-29.366 0-39.708 4.371-30.78 18.01-59.23 38.812-80.94 7.544-7.875 10.346-9.416 17.08-9.395 3.685 0.011 5.178 0.294 7.481 1.414 8.807 4.285 12.837 14.254 9.436 23.343-0.881 2.353-2.412 4.514-5.625 7.934-9.376 9.982-15.321 18.52-20.792 29.856-14.557 30.16-14.557 65.12 0 95.28 5.471 11.337 11.417 19.874 20.792 29.856 3.213 3.421 4.744 5.581 5.625 7.934 3.308 8.84-0.579 19.02-8.797 23.04-3.721 1.821-9.843 2.399-13.299 1.256m181.27 0.229c-5.166-1.25-9.941-5.152-12.372-10.111-1.161-2.368-1.411-3.743-1.411-7.769 0-6.212 1.225-8.877 6.849-14.906 20.646-22.13 31.391-48.545 31.391-77.17 0-28.538-10.639-54.779-31.23-77.02-5.714-6.174-7.02-8.976-7.03-15.05-0.009-5.761 1.332-9.141 5.141-12.947 3.659-3.657 7.219-5.1 12.691-5.144 6.574-0.053 9.655 1.507 16.01 8.105 10.833 11.245 18.97 22.911 26.03 37.32 7.208 14.709 11.08 27 13.592 43.16 1.663 10.689 1.803 31.01 0.286 41.43-3.676 25.26-13.551 49.13-28.497 68.889-5.218 6.898-13.957 16.414-16.939 18.446-4.143 2.822-9.815 3.904-14.513 2.767m-139.94-37.09c-3.32-1.086-6.05-2.862-8.411-5.48-1.103-1.221-2.269-2.316-2.591-2.433s-2.029-1.835-3.793-3.818c-18.647-20.961-26.697-49.37-21.891-77.25 1.972-11.442 7.4-24.962 13.937-34.716 3.456-5.158 10.914-14.199 11.712-14.199 0.258 0 1.538-1.16 2.845-2.578s3.837-3.295 5.623-4.172c2.77-1.36 3.923-1.587 7.85-1.543 5.726 0.063 8.992 1.405 12.878 5.291 5.04 5.04 6.602 12.581 4.03 19.464-0.948 2.533-2.317 4.384-6.083 8.222-8.297 8.456-13.461 17.462-16.13 28.12-1.341 5.361-1.341 19.08 0 24.443 2.667 10.664 7.829 19.673 16.13 28.15 3.762 3.841 5.154 5.722 6.09 8.222 4.399 11.757-3.574 24.2-15.93 24.854-2.276 0.121-4.849-0.117-6.265-0.581m98.51 0.292c-5.29-1.384-9.95-5.205-12.372-10.145-1.159-2.363-1.412-3.751-1.417-7.769-0.006-4.249 0.206-5.296 1.606-7.967 0.886-1.691 3.56-5.058 5.942-7.481 7.721-7.855 12.966-17.14 15.575-27.576 0.686-2.744 0.97-6.315 0.97-12.222 0-5.906-0.283-9.477-0.97-12.222-2.608-10.431-7.825-19.669-15.608-27.644-5.219-5.347-7.295-9.122-7.684-13.971-0.589-7.34 2.988-13.82 9.643-17.466 3.399-1.862 4.161-2.051 8.344-2.06 6.493-0.014 9.503 1.505 16.16 8.158 36.34 36.31 36.32 94.38-0.048 130.45-6.03 5.978-9.505 7.888-14.882 8.18-1.943 0.105-4.31-0.012-5.259-0.26m-51.22-36.876c-3.914-0.843-8.975-2.805-12.303-4.77-4.097-2.419-10.183-8.515-12.621-12.643-12.154-20.579-1.877-46.994 21.07-54.16 5.44-1.698 15.515-1.698 20.955 0 16.388 5.115 27.12 20.434 26.17 37.35-0.519 9.264-4.123 17.224-10.789 23.829-7.02 6.961-14.696 10.314-24.424 10.672-3.165 0.117-6.793-0.012-8.06-0.285" fill="#fff"/>
</svg>
