<?xml version="1.0" encoding="UTF-8" standalone="no"?>
<svg xmlns="http://www.w3.org/2000/svg" viewBox="0 0 512 512">
 <g fill-rule="evenodd">
  <path d="m471.95 253.05c0 120.9-98.01 218.9-218.9 218.9-120.9 0-218.9-98.01-218.9-218.9 0-120.9 98.01-218.9 218.9-218.9 120.9 0 218.9 98.01 218.9 218.9" fill="#BF9E73"/>
  <path d="m256 1c-140.83 0-255 114.17-255 255s114.17 255 255 255 255-114.17 255-255-114.17-255-255-255m8.827 44.931c120.9 0 218.9 98 218.9 218.9s-98 218.9-218.9 218.9-218.93-98-218.93-218.9 98.03-218.9 218.93-218.9" fill-opacity="0.067"/>
  <g fill-opacity="0.129">
   <path d="m256 4.433c-138.94 0-251.57 112.63-251.57 251.57s112.63 251.57 251.57 251.57 251.57-112.63 251.57-251.57-112.63-251.57-251.57-251.57m5.885 38.556c120.9 0 218.9 98 218.9 218.9s-98 218.9-218.9 218.9-218.93-98-218.93-218.9 98.03-218.9 218.93-218.9"/>
   <path d="m256 8.356c-136.77 0-247.64 110.87-247.64 247.64s110.87 247.64 247.64 247.64 247.64-110.87 247.64-247.64-110.87-247.64-247.64-247.64m2.942 31.691c120.9 0 218.9 98 218.9 218.9s-98 218.9-218.9 218.9-218.93-98-218.93-218.9 98.03-218.9 218.93-218.9"/>
  </g>
  <path stroke="#000" stroke-width="4.904" d="m253.04 7.859c-135.42 0-245.19 109.78-245.19 245.19 0 135.42 109.78 245.19 245.19 245.19 135.42 0 245.19-109.78 245.19-245.19 0-135.42-109.78-245.19-245.19-245.19zm0 26.297c120.9 0 218.9 98 218.9 218.9s-98 218.9-218.9 218.9-218.93-98-218.93-218.9 98.03-218.9 218.93-218.9z" stroke-opacity="0.31" fill="#fff"/>
 </g>
 <text font-size="129.23" y="231.36" x="729.64" font-family="&apos;Gentium Book Basic&apos;" line-height="125%" word-spacing="0" letter-spacing="0"><tspan y="231.36" x="729.64"/>
 </text>
 <text transform="scale(4.0128.2492)" font-size="46.954" y="579.25" x="378.91" font-family="Arial" text-anchor="middle"/>
 <text font-size="129.23" y="151.36" x="1310.91" font-family="&apos;Gentium Book Basic&apos;" line-height="125%" word-spacing="0" letter-spacing="0"><tspan y="151.36" x="1310.91"/>
 </text>
 <text transform="scale(4.0128.2492)" font-size="46.954" y="258.22" x="523.76" font-family="Arial" text-anchor="middle"/>
 <text font-size="129.23" y="-29.901" x="239.33" font-family="&apos;Gentium Book Basic&apos;" line-height="125%" word-spacing="0" letter-spacing="0"><tspan y="-29.901" x="239.33"/>
 </text>
 <text transform="scale(4.0128.2492)" font-size="46.954" y="-469.14" x="256.72" font-family="Arial" text-anchor="middle"/>
 <text font-size="129.23" y="-246.37" x="1337.38" font-family="&apos;Gentium Book Basic&apos;" line-height="125%" word-spacing="0" letter-spacing="0"><tspan y="-246.37" x="1337.38"/>
 </text>
 <text transform="scale(4.0128.2492)" font-size="46.954" y="-1337.8" x="530.36" font-family="Arial" text-anchor="middle"/>
 <text font-size="129.23" y="-326.38" x="1918.65" font-family="&apos;Gentium Book Basic&apos;" line-height="125%" word-spacing="0" letter-spacing="0"><tspan y="-326.38" x="1918.65"/>
 </text>
 <text transform="scale(4.0128.2492)" font-size="46.954" y="-1658.84" x="675.21" font-family="Arial" text-anchor="middle"/>
 <text font-size="129.23" y="-798.78" x="1529.53" font-family="&apos;Gentium Book Basic&apos;" line-height="125%" word-spacing="0" letter-spacing="0"><tspan y="-798.78" x="1529.53"/>
 </text>
 <text transform="scale(4.0128.2492)" font-size="46.954" y="-3554.49" x="578.24" font-family="Arial" text-anchor="middle"/>
 <text font-size="129.23" y="-878.78" x="2110.79" font-family="&apos;Gentium Book Basic&apos;" line-height="125%" word-spacing="0" letter-spacing="0"><tspan y="-878.78" x="2110.79"/>
 </text>
 <text transform="scale(4.0128.2492)" font-size="46.954" y="-3875.52" x="723.09" font-family="Arial" text-anchor="middle"/>
 <g font-family="&apos;Gentium Book Basic&apos;" line-height="125%" word-spacing="0" letter-spacing="0">
  <text y="535.94" x="277.99" font-size="208.33"><tspan y="535.94" x="277.99"/>
  </text>
  <text y="87.6" x="550.75" font-size="129.23"><tspan y="87.6" x="550.75"/>
  </text>
 </g>
 <text transform="scale(4.0128.2492)" font-size="46.954" y="2.351" x="334.33" font-family="Arial" text-anchor="middle"/>
 <text font-size="129.23" y="7.597" x="1132.02" font-family="&apos;Gentium Book Basic&apos;" line-height="125%" word-spacing="0" letter-spacing="0"><tspan y="7.597" x="1132.02"/>
 </text>
 <text transform="scale(4.0128.2492)" font-size="46.954" y="-318.68" x="479.18" font-family="Arial" text-anchor="middle"/>
 <text font-size="129.23" y="-173.66" x="60.44" font-family="&apos;Gentium Book Basic&apos;" line-height="125%" word-spacing="0" letter-spacing="0"><tspan y="-173.66" x="60.44"/>
 </text>
 <text transform="scale(4.0128.2492)" font-size="46.954" y="-1046.03" x="212.14" font-family="Arial" text-anchor="middle"/>
 <text font-size="129.23" y="-390.13" x="1158.49" font-family="&apos;Gentium Book Basic&apos;" line-height="125%" word-spacing="0" letter-spacing="0"><tspan y="-390.13" x="1158.49"/>
 </text>
 <text transform="scale(4.0128.2492)" font-size="46.954" y="-1914.7" x="485.78" font-family="Arial" text-anchor="middle"/>
 <text font-size="129.23" y="-470.14" x="1739.76" font-family="&apos;Gentium Book Basic&apos;" line-height="125%" word-spacing="0" letter-spacing="0"><tspan y="-470.14" x="1739.76"/>
 </text>
 <text transform="scale(4.0128.2492)" font-size="46.954" y="-2235.74" x="630.63" font-family="Arial" text-anchor="middle"/>
 <text font-size="129.23" y="-942.54" x="1350.64" font-family="&apos;Gentium Book Basic&apos;" line-height="125%" word-spacing="0" letter-spacing="0"><tspan y="-942.54" x="1350.64"/>
 </text>
 <text transform="scale(4.0128.2492)" font-size="46.954" y="-4131.39" x="533.66" font-family="Arial" text-anchor="middle"/>
 <text font-size="129.23" y="-1022.54" x="1931.9" font-family="&apos;Gentium Book Basic&apos;" line-height="125%" word-spacing="0" letter-spacing="0"><tspan y="-1022.54" x="1931.9"/>
 </text>
 <text transform="scale(4.0128.2492)" font-size="46.954" y="-4452.42" x="678.51" font-family="Arial" text-anchor="middle"/>
 <g font-family="&apos;Gentium Book Basic&apos;" line-height="125%" font-size="208.33" word-spacing="0" letter-spacing="0">
  <text y="392.18" x="99.1"><tspan y="392.18" x="99.1"/>
  </text>
  <text y="-104.9" x="-329.8"><tspan y="-104.9" x="-329.8"/>
  </text>
 </g>
 <text transform="scale(4.0128.2492)" font-size="75.7" y="-983.82" x="235.54" font-family="Arial" text-anchor="middle"/>
 <text font-size="208.33" y="-872.85" x="-977.57" font-family="&apos;Gentium Book Basic&apos;" line-height="125%" word-spacing="0" letter-spacing="0"><tspan y="-872.85" x="-977.57"/>
 </text>
 <text transform="scale(4.0128.2492)" font-size="75.7" y="-4065.49" x="74.12" font-family="Arial" text-anchor="middle"/>
 <text font-size="208.33" y="-1028.48" x="-271.23" font-family="&apos;Gentium Book Basic&apos;" line-height="125%" word-spacing="0" letter-spacing="0"><tspan y="-1028.48" x="-271.23"/>
 </text>
 <text transform="scale(4.0128.2492)" font-size="75.7" y="-4690.01" x="250.14" font-family="Arial" text-anchor="middle"/>
 <text font-size="129.23" y="256.82" x="201.46" font-family="&apos;Gentium Book Basic&apos;" line-height="125%" word-spacing="0" letter-spacing="0"><tspan y="256.82" x="201.46"/>
 </text>
 <text transform="scale(4.0128.2492)" font-size="46.954" y="681.4" x="247.29" font-family="Arial" text-anchor="middle"/>
 <text font-size="129.23" y="176.82" x="782.73" font-family="&apos;Gentium Book Basic&apos;" line-height="125%" word-spacing="0" letter-spacing="0"><tspan y="176.82" x="782.73"/>
 </text>
 <text transform="scale(4.0128.2492)" font-size="46.954" y="360.37" x="392.14" font-family="Arial" text-anchor="middle"/>
 <text font-size="129.23" y="-4.444" x="-288.85" font-family="&apos;Gentium Book Basic&apos;" line-height="125%" word-spacing="0" letter-spacing="0"><tspan y="-4.444" x="-288.85"/>
 </text>
 <text transform="scale(4.0128.2492)" font-size="46.954" y="-366.98" x="125.1" font-family="Arial" text-anchor="middle"/>
 <text font-size="129.23" y="-220.91" x="809.2" font-family="&apos;Gentium Book Basic&apos;" line-height="125%" word-spacing="0" letter-spacing="0"><tspan y="-220.91" x="809.2"/>
 </text>
 <text transform="scale(4.0128.2492)" font-size="46.954" y="-1235.65" x="398.74" font-family="Arial" text-anchor="middle"/>
 <text font-size="129.23" y="-300.92" x="1390.47" font-family="&apos;Gentium Book Basic&apos;" line-height="125%" word-spacing="0" letter-spacing="0"><tspan y="-300.92" x="1390.47"/>
 </text>
 <text transform="scale(4.0128.2492)" font-size="46.954" y="-1556.69" x="543.58" font-family="Arial" text-anchor="middle"/>
 <text font-size="129.23" y="-773.32" x="1001.35" font-family="&apos;Gentium Book Basic&apos;" line-height="125%" word-spacing="0" letter-spacing="0"><tspan y="-773.32" x="1001.35"/>
 </text>
 <text transform="scale(4.0128.2492)" font-size="46.954" y="-3452.34" x="446.61" font-family="Arial" text-anchor="middle"/>
 <text font-size="129.23" y="-853.32" x="1582.61" font-family="&apos;Gentium Book Basic&apos;" line-height="125%" word-spacing="0" letter-spacing="0"><tspan y="-853.32" x="1582.61"/>
 </text>
 <text transform="scale(4.0128.2492)" font-size="46.954" y="-3773.37" x="591.46" font-family="Arial" text-anchor="middle"/>
 <text font-size="208.33" y="561.4" x="-250.19" font-family="&apos;Gentium Book Basic&apos;" line-height="125%" word-spacing="0" letter-spacing="0"><tspan y="561.4" x="-250.19"/>
 </text>
 <path opacity="0.25" d="m112.4 134.51v134.98l26.996 26.996h-26.996v27.03l26.967 26.967h-26.967v26.998l88.1 88.1c16.835 4.149 34.432 6.363 52.55 6.363 120.89 0 218.9-98 218.9-218.9 0-18.1-2.211-35.686-6.354-52.51l-65.998-65.996h-144.6v25.418l-25.449-25.449h-117.15"/>
 <path d="m112.4 134.51v134.98h117.15v-134.98h-117.15m142.6 0.03v26.966h144.6v-26.966h-144.6m0 53.963v26.997h144.6v-26.997h-144.6m0 54.02v26.966h144.6v-26.966h-144.6m-142.6 53.963v27.03h287.2v-27.03h-287.2m0 53.994v26.997h172.38v-26.997h-172.38" fill="#fff"/>
</svg>
