<?xml version="1.0" encoding="UTF-8" standalone="no"?>
<svg xmlns="http://www.w3.org/2000/svg" height="512" viewBox="0 0 512 512" width="512" version="1.1">
 <metadata id="metadata124"/>
 <path id="path4" d="m471.95 253.05c0 120.9-98.01 218.9-218.9 218.9-120.9 0-218.9-98.01-218.9-218.9 0-120.9 98.01-218.9 218.9-218.9 120.9 0 218.9 98.01 218.9 218.9" fill-rule="evenodd" fill="#BF9E73"/>
 <path id="path6" fill-opacity="0.235" d="m311.09 157.84c-33.733-1.72-65.923 20.19-78.14 52.55-3.731 6.64-5.04 21.542-9.326 24.713-78.25-74.59 0.373-0.153-78.24-74.59-4.754 0.138-13.552 1.892-21.03 0.982-5.849-0.08-10.241-2.703-7.471 5.835 0 59.777-3.931 124.1-3.931 183.88 123.57 117.94 6.584 5.693 123.48 119.24 2.472 2.401 6.526 1.718 9.801 1.724 36.03 0.256 72.69-6.568 104.73-23.621 31.548-13.763 25.931-12.722 46.41-30.912 40.22-35.403 67.32-85.81 73.09-139.21-35.07-34.518-69.08-70.17-104.84-103.96-15.431-11.888-35.3-16.756-54.53-16.626"/>
 <g id="g8" fill-rule="evenodd">
  <path id="path10" fill-opacity="0.067" d="m256 1c-140.83 0-255 114.17-255 255s114.17 255 255 255 255-114.17 255-255-114.17-255-255-255m8.827 44.931c120.9 0 218.9 98 218.9 218.9s-98 218.9-218.9 218.9-218.93-98-218.93-218.9 98.03-218.9 218.93-218.9"/>
  <g id="g12" fill-opacity="0.129">
   <path id="path14" d="m256 4.433c-138.94 0-251.57 112.63-251.57 251.57s112.63 251.57 251.57 251.57 251.57-112.63 251.57-251.57-112.63-251.57-251.57-251.57m5.885 38.556c120.9 0 218.9 98 218.9 218.9s-98 218.9-218.9 218.9-218.93-98-218.93-218.9 98.03-218.9 218.93-218.9"/>
   <path id="path16" d="m256 8.356c-136.77 0-247.64 110.87-247.64 247.64s110.87 247.64 247.64 247.64 247.64-110.87 247.64-247.64-110.87-247.64-247.64-247.64m2.942 31.691c120.9 0 218.9 98 218.9 218.9s-98 218.9-218.9 218.9-218.93-98-218.93-218.9 98.03-218.9 218.93-218.9"/>
  </g>
  <path id="path18" d="m253.04 7.859c-135.42 0-245.19 109.78-245.19 245.19 0 135.42 109.78 245.19 245.19 245.19 135.42 0 245.19-109.78 245.19-245.19 0-135.42-109.78-245.19-245.19-245.19zm0 26.297c120.9 0 218.9 98 218.9 218.9s-98 218.9-218.9 218.9-218.93-98-218.93-218.9 98.03-218.9 218.93-218.9z" stroke-opacity="0.31" stroke="#000" stroke-width="4.904" fill="#fff"/>
 </g>
 <text id="text20" font-size="129.23" line-height="125%" y="231.36" x="729.64" font-family="Gentium Book Basic" word-spacing="0" letter-spacing="0"><tspan id="tspan22" y="231.36" x="729.64"/>
 </text>
 <text id="text24" font-size="46.954" transform="scale(4.0128 .2492)" y="579.25" x="378.91" font-family="Arial" text-anchor="middle"/>
 <text id="text26" font-size="129.23" line-height="125%" y="151.36" x="1310.91" font-family="Gentium Book Basic" word-spacing="0" letter-spacing="0"><tspan id="tspan28" y="151.36" x="1310.91"/>
 </text>
 <text id="text30" font-size="46.954" transform="scale(4.0128 .2492)" y="258.22" x="523.76" font-family="Arial" text-anchor="middle"/>
 <text id="text32" font-size="129.23" line-height="125%" y="-29.901" x="239.33" font-family="Gentium Book Basic" word-spacing="0" letter-spacing="0"><tspan id="tspan34" y="-29.901" x="239.33"/>
 </text>
 <text id="text36" font-size="46.954" transform="scale(4.0128 .2492)" y="-469.14" x="256.72" font-family="Arial" text-anchor="middle"/>
 <text id="text38" font-size="129.23" line-height="125%" y="-246.37" x="1337.38" font-family="Gentium Book Basic" word-spacing="0" letter-spacing="0"><tspan id="tspan40" y="-246.37" x="1337.38"/>
 </text>
 <text id="text42" font-size="46.954" transform="scale(4.0128 .2492)" y="-1337.81" x="530.36" font-family="Arial" text-anchor="middle"/>
 <text id="text44" font-size="129.23" line-height="125%" y="-326.38" x="1918.65" font-family="Gentium Book Basic" word-spacing="0" letter-spacing="0"><tspan id="tspan46" y="-326.38" x="1918.65"/>
 </text>
 <text id="text48" font-size="46.954" transform="scale(4.0128 .2492)" y="-1658.85" x="675.21" font-family="Arial" text-anchor="middle"/>
 <text id="text50" font-size="129.23" line-height="125%" y="-798.78" x="1529.53" font-family="Gentium Book Basic" word-spacing="0" letter-spacing="0"><tspan id="tspan52" y="-798.78" x="1529.53"/>
 </text>
 <text id="text54" font-size="46.954" transform="scale(4.0128 .2492)" y="-3554.51" x="578.24" font-family="Arial" text-anchor="middle"/>
 <text id="text56" font-size="129.23" line-height="125%" y="-878.78" x="2110.79" font-family="Gentium Book Basic" word-spacing="0" letter-spacing="0"><tspan id="tspan58" y="-878.78" x="2110.79"/>
 </text>
 <text id="text60" font-size="46.954" transform="scale(4.0128 .2492)" y="-3875.54" x="723.09" font-family="Arial" text-anchor="middle"/>
 <g id="g62" font-family="Gentium Book Basic" font-size="208.33" line-height="125%" word-spacing="0" letter-spacing="0">
  <text id="text64" y="535.94" x="277.99"><tspan id="tspan66" y="535.94" x="277.99"/>
  </text>
  <text id="text68" y="445.33" x="-1784.22"><tspan id="tspan70" y="445.33" x="-1784.22"/>
  </text>
 </g>
 <text id="text72" font-size="75.7" transform="scale(4.0128 .2492)" y="1224.14" x="-126.9" font-family="Arial" text-anchor="middle"/>
 <text id="text74" font-size="208.33" line-height="125%" y="445.33" x="-1784.22" font-family="Gentium Book Basic" word-spacing="0" letter-spacing="0"><tspan id="tspan76" y="445.33" x="-1784.22"/>
 </text>
 <text id="text78" font-size="75.7" transform="scale(4.0128 .2492)" y="1224.14" x="-126.9" font-family="Arial" text-anchor="middle"/>
 <text id="text80" font-size="208.33" line-height="125%" y="445.33" x="-1784.22" font-family="Gentium Book Basic" word-spacing="0" letter-spacing="0"><tspan id="tspan82" y="445.33" x="-1784.22"/>
 </text>
 <text id="text84" font-size="75.7" transform="scale(4.0128 .2492)" y="1224.14" x="-126.9" font-family="Arial" text-anchor="middle"/>
 <text id="text86" font-size="208.33" line-height="125%" y="481.78" x="-1814.11" font-family="Gentium Book Basic" word-spacing="0" letter-spacing="0"><tspan id="tspan88" y="481.78" x="-1814.11"/>
 </text>
 <text id="text90" font-size="75.7" transform="scale(4.0128 .2492)" y="1370.42" x="-134.35" font-family="Arial" text-anchor="middle"/>
 <text id="text92" font-size="208.33" line-height="125%" y="-286.17" x="-2461.88" font-family="Gentium Book Basic" word-spacing="0" letter-spacing="0"><tspan id="tspan94" y="-286.17" x="-2461.88"/>
 </text>
 <text id="text96" font-size="75.7" transform="scale(4.0128 .2492)" y="-1711.24" x="-295.78" font-family="Arial" text-anchor="middle"/>
 <text id="text98" font-size="208.33" line-height="125%" y="-441.8" x="-1755.54" font-family="Gentium Book Basic" word-spacing="0" letter-spacing="0"><tspan id="tspan100" y="-441.8" x="-1755.54"/>
 </text>
 <text id="text102" font-size="75.7" transform="scale(4.0128 .2492)" y="-2335.77" x="-119.76" font-family="Arial" text-anchor="middle"/>
 <text id="text104" font-size="208.33" line-height="125%" y="248.78" x="-2860.46" font-family="Gentium Book Basic" word-spacing="0" letter-spacing="0"><tspan id="tspan106" y="248.78" x="-2860.46"/>
 </text>
 <text id="text108" font-size="75.7" transform="scale(4.0128 .2492)" y="435.42" x="-395.1" font-family="Arial" text-anchor="middle"/>
 <g id="g110" stroke-width="8.39" transform="matrix(1.1919 0 0 1.1919 1229.4 -458.94)" stroke="#fff" font-family="Sans" line-height="125%" fill="#fff" word-spacing="0" letter-spacing="0">
  <text id="text112" y="675.74" x="-953.36" font-size="212.73"><tspan id="tspan114" y="675.74" x="-953.36">L</tspan>
  </text>
  <text id="text116" y="675.89" x="-853.83" font-size="40"><tspan id="tspan118" y="675.89" x="-853.83" font-size="212.7">O</tspan>
  </text>
 </g>
</svg>
