<?xml version="1.0" encoding="UTF-8" standalone="no"?>
<svg
   xmlns:dc="http://purl.org/dc/elements/1.1/"
   xmlns:cc="http://creativecommons.org/ns#"
   xmlns:rdf="http://www.w3.org/1999/02/22-rdf-syntax-ns#"
   xmlns:svg="http://www.w3.org/2000/svg"
   xmlns="http://www.w3.org/2000/svg"
   xmlns:sodipodi="http://sodipodi.sourceforge.net/DTD/sodipodi-0.dtd"
   xmlns:inkscape="http://www.inkscape.org/namespaces/inkscape"
   height="512"
   viewBox="0 0 512 512"
   width="512"
   version="1.1"
   id="svg2"
   inkscape:version="0.91 r13725"
   sodipodi:docname="logoqle2.svg">
  <defs
     id="defs16" />
  <sodipodi:namedview
     pagecolor="#ffffff"
     bordercolor="#666666"
     borderopacity="1"
     objecttolerance="10"
     gridtolerance="10"
     guidetolerance="10"
     inkscape:pageopacity="0"
     inkscape:pageshadow="2"
     inkscape:window-width="1680"
     inkscape:window-height="1024"
     id="namedview14"
     showgrid="false"
     inkscape:zoom="0.4609375"
     inkscape:cx="-162.71186"
     inkscape:cy="256"
     inkscape:window-x="0"
     inkscape:window-y="0"
     inkscape:window-maximized="0"
     inkscape:current-layer="svg2" />
  <metadata
     id="metadata72">
    <rdf:RDF>
      <cc:Work
         rdf:about="">
        <dc:format>image/svg+xml</dc:format>
        <dc:type
           rdf:resource="http://purl.org/dc/dcmitype/StillImage" />
      </cc:Work>
    </rdf:RDF>
  </metadata>
  <path
     id="path4"
     d="m471.95 253.05c0 120.9-98.01 218.9-218.9 218.9-120.9 0-218.9-98.01-218.9-218.9 0-120.9 98.01-218.9 218.9-218.9 120.9 0 218.9 98.01 218.9 218.9"
     fill-rule="evenodd"
     fill="#BF9E73" />
  <path
     id="path6"
     fill-opacity="0.235"
     d="m256.5 120.81c-37.954 0-72.52 16.296-96.75 40.938-24.09 24.506-38.938 58.11-38.938 94.75 0 36.637 14.784 70.21 38.938 94.78 0.135 0.137 0.271 0.27 0.406 0.406 0.19 0.196 0.371 0.399 0.563 0.594 0.435 0.433 0.871 0.854 1.313 1.281 0.227 0.234 0.459 0.455 0.688 0.688 0.216 0.21 0.439 0.416 0.656 0.625 0.119 0.121 0.225 0.254 0.344 0.375 0.1 0.097 0.212 0.184 0.313 0.281 0.229 0.237 0.456 0.484 0.688 0.719 0.1 0.097 0.212 0.184 0.313 0.281 0.229 0.237 0.456 0.484 0.688 0.719 0.1 0.097 0.212 0.184 0.313 0.281 0.229 0.237 0.456 0.484 0.688 0.719 0.1 0.097 0.212 0.184 0.313 0.281 0.222 0.229 0.432 0.46 0.656 0.688 0.072 0.073 0.146 0.146 0.219 0.219 0.032 0.031 0.062 0.063 0.094 0.094 0.227 0.234 0.459 0.455 0.688 0.688 0.217 0.211 0.438 0.415 0.656 0.625 0.119 0.121 0.225 0.254 0.344 0.375 0.1 0.097 0.212 0.184 0.313 0.281 0.229 0.237 0.456 0.484 0.688 0.719 0.1 0.097 0.212 0.184 0.313 0.281 0.229 0.237 0.456 0.484 0.688 0.719 0.1 0.097 0.212 0.184 0.313 0.281 0.229 0.237 0.456 0.484 0.688 0.719 0.1 0.097 0.212 0.184 0.313 0.281 0.222 0.229 0.432 0.46 0.656 0.688 0.106 0.103 0.206 0.21 0.313 0.313 0.227 0.234 0.459 0.455 0.688 0.688 0.106 0.103 0.206 0.21 0.313 0.313 0.227 0.234 0.459 0.455 0.688 0.688 0.215 0.21 0.439 0.417 0.656 0.625 0.118 0.121 0.226 0.255 0.344 0.375 0.1 0.097 0.212 0.184 0.313 0.281 0.229 0.237 0.456 0.484 0.688 0.719 0.1 0.097 0.212 0.184 0.313 0.281 0.229 0.237 0.456 0.484 0.688 0.719 0.1 0.097 0.212 0.184 0.313 0.281 0.226 0.233 0.429 0.487 0.656 0.719 0.098 0.1 0.214 0.182 0.313 0.281 0.227 0.234 0.459 0.455 0.688 0.688 0.106 0.103 0.206 0.21 0.313 0.313 0.227 0.234 0.459 0.455 0.688 0.688 0.216 0.21 0.439 0.416 0.656 0.625 0.118 0.121 0.226 0.255 0.344 0.375 0.1 0.097 0.212 0.184 0.313 0.281 0.229 0.237 0.456 0.484 0.688 0.719 0.1 0.097 0.212 0.184 0.313 0.281 0.229 0.237 0.456 0.484 0.688 0.719 0.1 0.097 0.212 0.184 0.313 0.281 0.229 0.237 0.456 0.484 0.688 0.719 0.095 0.093 0.185 0.189 0.281 0.281 0.227 0.234 0.459 0.455 0.688 0.688 0.106 0.103 0.206 0.21 0.313 0.313 0.227 0.234 0.459 0.455 0.688 0.688 0.217 0.211 0.438 0.415 0.656 0.625 0.119 0.121 0.225 0.254 0.344 0.375 0.1 0.097 0.212 0.184 0.313 0.281 0.229 0.237 0.456 0.484 0.688 0.719 0.1 0.097 0.212 0.184 0.313 0.281 0.229 0.237 0.456 0.484 0.688 0.719 0.1 0.097 0.212 0.184 0.313 0.281 0.229 0.237 0.456 0.484 0.688 0.719 0.1 0.097 0.212 0.184 0.313 0.281 0.222 0.229 0.432 0.46 0.656 0.688 0.072 0.073 0.146 0.146 0.219 0.219 0.032 0.031 0.062 0.063 0.094 0.094 0.227 0.234 0.459 0.455 0.688 0.688 0.217 0.211 0.438 0.415 0.656 0.625 0.119 0.122 0.224 0.253 0.344 0.375 0.1 0.097 0.212 0.184 0.313 0.281 0.229 0.237 0.456 0.484 0.688 0.719 0.1 0.097 0.212 0.184 0.313 0.281 0.229 0.237 0.456 0.484 0.688 0.719 0.1 0.097 0.212 0.184 0.313 0.281 0.229 0.237 0.456 0.484 0.688 0.719 0.1 0.097 0.212 0.184 0.313 0.281 0.222 0.229 0.432 0.46 0.656 0.688 0.106 0.103 0.206 0.21 0.313 0.313 0.227 0.234 0.459 0.455 0.688 0.688 0.106 0.103 0.206 0.21 0.313 0.313 0.227 0.234 0.459 0.455 0.688 0.688 0.215 0.21 0.439 0.417 0.656 0.625 0.118 0.121 0.226 0.255 0.344 0.375 0.1 0.097 0.212 0.184 0.313 0.281 0.229 0.237 0.456 0.484 0.688 0.719 0.1 0.097 0.212 0.184 0.313 0.281 0.229 0.237 0.456 0.484 0.688 0.719 0.1 0.097 0.212 0.184 0.313 0.281 0.226 0.233 0.429 0.487 0.656 0.719 0.098 0.1 0.214 0.182 0.313 0.281 0.227 0.234 0.459 0.455 0.688 0.688 0.106 0.103 0.206 0.21 0.313 0.313 0.227 0.234 0.459 0.455 0.688 0.688 0.216 0.21 0.439 0.416 0.656 0.625 0.119 0.121 0.225 0.254 0.344 0.375 0.1 0.097 0.212 0.184 0.313 0.281 0.229 0.237 0.456 0.484 0.688 0.719 0.1 0.097 0.212 0.184 0.313 0.281 0.229 0.237 0.456 0.484 0.688 0.719 0.1 0.097 0.212 0.184 0.313 0.281 0.229 0.237 0.456 0.484 0.688 0.719 0.1 0.097 0.212 0.184 0.313 0.281 0.222 0.229 0.432 0.46 0.656 0.688 0.072 0.073 0.146 0.146 0.219 0.219 0.032 0.031 0.062 0.063 0.094 0.094 0.227 0.234 0.459 0.455 0.688 0.688 0.217 0.211 0.438 0.415 0.656 0.625 0.119 0.121 0.225 0.254 0.344 0.375 0.1 0.097 0.212 0.184 0.313 0.281 0.229 0.237 0.456 0.484 0.688 0.719 0.1 0.097 0.212 0.184 0.313 0.281 0.229 0.237 0.456 0.484 0.688 0.719 0.1 0.097 0.212 0.184 0.313 0.281 0.229 0.237 0.456 0.484 0.688 0.719 0.1 0.097 0.212 0.184 0.313 0.281 0.222 0.229 0.432 0.46 0.656 0.688 0.106 0.103 0.206 0.21 0.313 0.313 0.227 0.234 0.459 0.455 0.688 0.688 0.106 0.103 0.206 0.21 0.313 0.313 0.227 0.234 0.459 0.455 0.688 0.688 0.215 0.21 0.439 0.417 0.656 0.625 0.118 0.121 0.226 0.255 0.344 0.375 0.1 0.097 0.212 0.184 0.313 0.281 0.229 0.237 0.456 0.484 0.688 0.719 0.1 0.097 0.212 0.184 0.313 0.281 0.229 0.237 0.456 0.484 0.688 0.719 0.1 0.097 0.212 0.184 0.313 0.281 0.226 0.233 0.429 0.487 0.656 0.719 0.098 0.1 0.214 0.182 0.313 0.281 0.227 0.234 0.459 0.455 0.688 0.688 0.106 0.103 0.206 0.21 0.313 0.313 0.227 0.234 0.459 0.455 0.688 0.688 0.216 0.21 0.439 0.416 0.656 0.625 0.118 0.121 0.226 0.255 0.344 0.375 0.1 0.097 0.212 0.184 0.313 0.281 0.229 0.237 0.456 0.484 0.688 0.719 0.1 0.097 0.212 0.184 0.313 0.281 0.229 0.237 0.456 0.484 0.688 0.719 0.1 0.097 0.212 0.184 0.313 0.281 0.229 0.237 0.456 0.484 0.688 0.719 0.095 0.093 0.185 0.189 0.281 0.281 0.227 0.234 0.459 0.455 0.688 0.688 0.106 0.103 0.206 0.21 0.313 0.313 0.227 0.234 0.459 0.455 0.688 0.688 0.217 0.211 0.438 0.415 0.656 0.625 0.119 0.121 0.225 0.254 0.344 0.375 0.1 0.097 0.212 0.184 0.313 0.281 0.229 0.237 0.456 0.484 0.688 0.719 0.1 0.097 0.212 0.184 0.313 0.281 0.229 0.237 0.456 0.484 0.688 0.719 0.1 0.097 0.212 0.184 0.313 0.281 0.229 0.237 0.456 0.484 0.688 0.719 0.1 0.097 0.212 0.184 0.313 0.281 0.222 0.229 0.432 0.46 0.656 0.688 0.072 0.073 0.146 0.146 0.219 0.219 0.032 0.031 0.062 0.063 0.094 0.094 0.227 0.234 0.459 0.455 0.688 0.688 0.217 0.211 0.438 0.415 0.656 0.625 0.119 0.122 0.224 0.253 0.344 0.375 0.1 0.097 0.212 0.184 0.313 0.281 0.229 0.237 0.456 0.484 0.688 0.719 0.1 0.097 0.212 0.184 0.313 0.281 0.229 0.237 0.456 0.484 0.688 0.719 0.1 0.097 0.212 0.184 0.313 0.281 0.229 0.237 0.456 0.484 0.688 0.719 0.1 0.097 0.212 0.184 0.313 0.281 0.222 0.229 0.432 0.46 0.656 0.688 0.106 0.103 0.206 0.21 0.313 0.313 0.227 0.234 0.459 0.455 0.688 0.688 0.106 0.103 0.206 0.21 0.313 0.313 0.227 0.234 0.459 0.455 0.688 0.688 0.215 0.21 0.439 0.417 0.656 0.625 0.118 0.121 0.226 0.255 0.344 0.375 0.1 0.097 0.212 0.184 0.313 0.281 0.229 0.237 0.456 0.484 0.688 0.719 0.1 0.097 0.212 0.184 0.313 0.281 0.229 0.237 0.456 0.484 0.688 0.719 0.1 0.097 0.212 0.184 0.313 0.281 0.226 0.233 0.429 0.487 0.656 0.719 0.098 0.1 0.214 0.182 0.313 0.281 0.227 0.234 0.459 0.455 0.688 0.688 0.106 0.103 0.206 0.21 0.313 0.313 0.227 0.234 0.459 0.455 0.688 0.688 0.216 0.21 0.439 0.416 0.656 0.625 0.119 0.121 0.225 0.254 0.344 0.375 0.1 0.097 0.212 0.184 0.313 0.281 0.229 0.237 0.456 0.484 0.688 0.719 0.1 0.097 0.212 0.184 0.313 0.281 0.229 0.237 0.456 0.484 0.688 0.719 0.1 0.097 0.212 0.184 0.313 0.281 0.229 0.237 0.456 0.484 0.688 0.719 0.1 0.097 0.212 0.184 0.313 0.281 0.222 0.229 0.432 0.46 0.656 0.688 0.072 0.073 0.146 0.146 0.219 0.219 0.032 0.031 0.062 0.063 0.094 0.094 0.227 0.234 0.459 0.455 0.688 0.688 0.217 0.211 0.438 0.415 0.656 0.625 0.118 0.121 0.225 0.254 0.344 0.375 0.1 0.097 0.212 0.184 0.313 0.281 0.229 0.237 0.456 0.484 0.688 0.719 0.1 0.097 0.212 0.184 0.313 0.281 0.229 0.237 0.456 0.484 0.688 0.719 0.1 0.097 0.212 0.184 0.313 0.281 0.229 0.237 0.456 0.484 0.688 0.719 0.1 0.097 0.212 0.184 0.313 0.281 0.222 0.229 0.432 0.46 0.656 0.688 0.106 0.103 0.206 0.21 0.313 0.313 0.227 0.234 0.459 0.455 0.688 0.688 0.106 0.103 0.206 0.21 0.313 0.313 0.227 0.234 0.459 0.455 0.688 0.688 0.215 0.21 0.439 0.417 0.656 0.625 0.118 0.121 0.226 0.255 0.344 0.375 0.1 0.097 0.212 0.184 0.313 0.281 0.229 0.237 0.456 0.484 0.688 0.719 0.1 0.097 0.212 0.184 0.313 0.281 0.229 0.237 0.456 0.484 0.688 0.719 0.1 0.097 0.212 0.184 0.313 0.281 0.226 0.233 0.429 0.487 0.656 0.719 0.098 0.1 0.214 0.182 0.313 0.281 0.227 0.234 0.459 0.455 0.688 0.688 0.106 0.103 0.206 0.21 0.313 0.313 0.227 0.234 0.459 0.455 0.688 0.688 0.216 0.21 0.439 0.416 0.656 0.625 0.118 0.121 0.226 0.255 0.344 0.375 0.1 0.097 0.212 0.184 0.313 0.281 0.229 0.237 0.456 0.484 0.688 0.719 0.1 0.097 0.212 0.184 0.313 0.281 0.229 0.237 0.456 0.484 0.688 0.719 0.1 0.097 0.212 0.184 0.313 0.281 0.229 0.237 0.456 0.484 0.688 0.719 0.095 0.093 0.185 0.189 0.281 0.281 0.227 0.234 0.459 0.455 0.688 0.688 0.106 0.103 0.206 0.21 0.313 0.313 0.227 0.234 0.459 0.455 0.688 0.688 0.217 0.211 0.438 0.415 0.656 0.625 0.118 0.121 0.225 0.254 0.344 0.375 0.1 0.097 0.212 0.184 0.313 0.281 0.229 0.237 0.456 0.484 0.688 0.719 0.1 0.097 0.212 0.184 0.313 0.281 0.229 0.237 0.456 0.484 0.688 0.719 0.1 0.097 0.212 0.184 0.313 0.281 0.143 0.147 0.295 0.288 0.438 0.438 99.93-11.759 179.24-90.79 191.41-190.59-0.021-0.021-0.041-0.042-0.063-0.063-0.192-0.194-0.369-0.401-0.563-0.594-0.098-0.099-0.215-0.182-0.313-0.281-0.169-0.165-0.33-0.336-0.5-0.5-0.067-0.067-0.12-0.152-0.188-0.219-0.323-0.329-0.673-0.643-1-0.969-0.331-0.336-0.666-0.667-1-1-0.331-0.336-0.666-0.667-1-1-0.327-0.339-0.67-0.664-1-1-0.092-0.095-0.189-0.186-0.281-0.281-0.042-0.041-0.083-0.084-0.125-0.125-0.192-0.194-0.369-0.401-0.563-0.594-0.098-0.099-0.215-0.182-0.313-0.281-0.169-0.165-0.33-0.336-0.5-0.5-0.067-0.067-0.12-0.152-0.188-0.219-0.323-0.329-0.673-0.643-1-0.969-0.103-0.104-0.209-0.208-0.313-0.313-0.159-0.154-0.309-0.315-0.469-0.469-0.072-0.073-0.146-0.146-0.219-0.219-0.331-0.336-0.666-0.667-1-1-0.327-0.339-0.67-0.664-1-1-0.093-0.095-0.188-0.187-0.281-0.281-0.242-0.235-0.475-0.485-0.719-0.719-0.092-0.095-0.189-0.186-0.281-0.281-0.042-0.041-0.083-0.084-0.125-0.125-0.192-0.194-0.369-0.401-0.563-0.594-0.098-0.099-0.215-0.182-0.313-0.281-0.169-0.165-0.33-0.336-0.5-0.5-0.067-0.067-0.12-0.152-0.188-0.219-0.326-0.331-0.671-0.641-1-0.969-0.052-0.053-0.104-0.104-0.156-0.156-0.283-0.281-0.559-0.565-0.844-0.844-0.331-0.336-0.666-0.667-1-1-0.092-0.095-0.189-0.186-0.281-0.281-0.242-0.235-0.475-0.485-0.719-0.719-0.092-0.095-0.189-0.186-0.281-0.281-0.042-0.041-0.083-0.084-0.125-0.125-0.192-0.194-0.369-0.401-0.563-0.594-0.098-0.099-0.215-0.182-0.313-0.281-0.169-0.165-0.33-0.336-0.5-0.5-0.067-0.067-0.12-0.152-0.188-0.219-0.326-0.331-0.671-0.641-1-0.969-0.052-0.053-0.104-0.104-0.156-0.156-0.283-0.281-0.559-0.565-0.844-0.844-0.331-0.336-0.666-0.667-1-1-0.327-0.339-0.67-0.664-1-1-0.092-0.095-0.189-0.186-0.281-0.281-0.042-0.041-0.083-0.084-0.125-0.125-0.192-0.194-0.369-0.401-0.563-0.594-0.098-0.099-0.215-0.182-0.313-0.281-0.169-0.165-0.33-0.336-0.5-0.5-0.067-0.067-0.12-0.152-0.188-0.219-0.323-0.329-0.673-0.643-1-0.969-0.331-0.336-0.666-0.667-1-1-0.331-0.336-0.666-0.667-1-1-0.327-0.339-0.67-0.664-1-1-0.093-0.095-0.188-0.187-0.281-0.281-0.242-0.235-0.475-0.485-0.719-0.719-0.092-0.095-0.189-0.186-0.281-0.281-0.042-0.041-0.083-0.084-0.125-0.125-0.192-0.194-0.369-0.401-0.563-0.594-0.323-0.329-0.673-0.643-1-0.969-0.103-0.104-0.209-0.208-0.313-0.313-0.159-0.154-0.309-0.315-0.469-0.469-0.072-0.073-0.146-0.146-0.219-0.219-0.331-0.336-0.666-0.667-1-1-0.327-0.339-0.67-0.664-1-1-0.093-0.095-0.188-0.187-0.281-0.281-0.242-0.235-0.475-0.485-0.719-0.719-0.092-0.095-0.189-0.186-0.281-0.281-0.042-0.041-0.083-0.084-0.125-0.125-0.192-0.194-0.369-0.401-0.563-0.594-0.098-0.099-0.215-0.182-0.313-0.281-0.169-0.165-0.33-0.336-0.5-0.5-0.067-0.067-0.12-0.152-0.188-0.219-0.326-0.331-0.671-0.641-1-0.969-0.052-0.053-0.104-0.104-0.156-0.156-0.283-0.281-0.559-0.565-0.844-0.844-0.331-0.336-0.666-0.667-1-1-0.327-0.339-0.67-0.664-1-1-0.092-0.095-0.189-0.186-0.281-0.281-0.042-0.041-0.083-0.084-0.125-0.125-0.192-0.194-0.369-0.401-0.563-0.594-0.098-0.099-0.215-0.182-0.313-0.281-0.169-0.165-0.33-0.336-0.5-0.5-0.067-0.067-0.12-0.152-0.188-0.219-0.326-0.331-0.671-0.641-1-0.969-0.052-0.053-0.104-0.104-0.156-0.156-0.283-0.281-0.559-0.565-0.844-0.844-0.331-0.336-0.666-0.667-1-1-0.327-0.339-0.67-0.664-1-1-0.092-0.095-0.189-0.186-0.281-0.281-0.042-0.041-0.083-0.084-0.125-0.125-0.192-0.194-0.369-0.401-0.563-0.594-0.098-0.099-0.215-0.182-0.313-0.281-0.169-0.165-0.33-0.336-0.5-0.5-0.067-0.067-0.12-0.152-0.188-0.219-0.323-0.329-0.673-0.643-1-0.969-0.103-0.104-0.209-0.208-0.313-0.313-0.159-0.154-0.309-0.315-0.469-0.469-0.072-0.073-0.146-0.146-0.219-0.219-0.331-0.336-0.666-0.667-1-1-0.327-0.339-0.67-0.664-1-1-0.093-0.095-0.188-0.187-0.281-0.281-0.242-0.235-0.475-0.485-0.719-0.719-0.092-0.095-0.189-0.186-0.281-0.281-0.042-0.041-0.083-0.084-0.125-0.125-0.192-0.194-0.369-0.401-0.563-0.594-0.098-0.099-0.215-0.182-0.313-0.281-0.169-0.165-0.33-0.336-0.5-0.5-0.067-0.067-0.12-0.152-0.188-0.219-0.326-0.331-0.671-0.641-1-0.969-0.052-0.053-0.104-0.104-0.156-0.156-0.283-0.281-0.559-0.565-0.844-0.844-0.331-0.336-0.666-0.667-1-1-0.092-0.095-0.189-0.186-0.281-0.281-0.242-0.235-0.475-0.485-0.719-0.719-0.092-0.095-0.189-0.186-0.281-0.281-0.042-0.041-0.083-0.084-0.125-0.125-0.192-0.194-0.369-0.401-0.563-0.594-0.098-0.099-0.215-0.182-0.313-0.281-0.169-0.165-0.33-0.336-0.5-0.5-0.067-0.067-0.12-0.152-0.188-0.219-0.326-0.331-0.671-0.641-1-0.969-0.052-0.053-0.104-0.104-0.156-0.156-0.283-0.281-0.559-0.565-0.844-0.844-0.331-0.336-0.666-0.667-1-1-0.327-0.339-0.67-0.664-1-1-0.092-0.095-0.189-0.186-0.281-0.281-0.042-0.041-0.083-0.084-0.125-0.125-0.192-0.194-0.369-0.401-0.563-0.594-0.098-0.099-0.215-0.182-0.313-0.281-0.169-0.165-0.33-0.336-0.5-0.5-0.067-0.067-0.12-0.152-0.188-0.219-0.323-0.329-0.673-0.643-1-0.969-0.331-0.336-0.666-0.667-1-1-0.331-0.336-0.666-0.667-1-1-0.327-0.339-0.67-0.664-1-1-0.093-0.095-0.188-0.187-0.281-0.281-0.242-0.235-0.475-0.485-0.719-0.719-0.092-0.095-0.189-0.186-0.281-0.281-0.042-0.041-0.083-0.084-0.125-0.125-0.192-0.194-0.369-0.401-0.563-0.594-0.323-0.329-0.673-0.643-1-0.969-0.103-0.104-0.209-0.208-0.313-0.313-0.159-0.154-0.309-0.315-0.469-0.469-0.072-0.073-0.146-0.146-0.219-0.219-0.331-0.336-0.666-0.667-1-1-0.327-0.339-0.67-0.664-1-1-0.093-0.095-0.188-0.187-0.281-0.281-0.242-0.235-0.475-0.485-0.719-0.719-0.092-0.095-0.189-0.186-0.281-0.281-0.042-0.041-0.083-0.084-0.125-0.125-0.192-0.194-0.369-0.401-0.563-0.594-0.098-0.099-0.215-0.182-0.313-0.281-0.169-0.165-0.33-0.336-0.5-0.5-0.067-0.067-0.12-0.152-0.188-0.219-0.326-0.331-0.671-0.641-1-0.969-0.052-0.053-0.104-0.104-0.156-0.156-0.283-0.281-0.559-0.565-0.844-0.844-0.331-0.336-0.666-0.667-1-1-0.092-0.095-0.189-0.186-0.281-0.281-0.242-0.235-0.475-0.485-0.719-0.719-0.092-0.095-0.189-0.186-0.281-0.281-0.042-0.041-0.083-0.084-0.125-0.125-0.192-0.194-0.369-0.401-0.563-0.594-0.098-0.099-0.215-0.182-0.313-0.281-0.169-0.165-0.33-0.336-0.5-0.5-0.067-0.067-0.12-0.152-0.188-0.219-0.326-0.331-0.671-0.641-1-0.969-0.052-0.053-0.104-0.104-0.156-0.156-0.283-0.281-0.559-0.565-0.844-0.844-0.331-0.336-0.666-0.667-1-1-0.327-0.339-0.67-0.664-1-1-0.092-0.095-0.189-0.186-0.281-0.281-0.042-0.041-0.083-0.084-0.125-0.125-0.192-0.194-0.369-0.401-0.563-0.594-0.098-0.099-0.215-0.182-0.313-0.281-0.169-0.165-0.33-0.336-0.5-0.5-0.067-0.067-0.12-0.152-0.188-0.219-0.323-0.329-0.673-0.643-1-0.969-0.331-0.336-0.666-0.667-1-1-0.331-0.336-0.666-0.667-1-1-0.327-0.339-0.67-0.664-1-1-0.093-0.095-0.188-0.187-0.281-0.281-0.242-0.235-0.475-0.485-0.719-0.719-0.092-0.095-0.189-0.186-0.281-0.281-0.042-0.041-0.083-0.084-0.125-0.125-0.192-0.194-0.369-0.401-0.563-0.594-0.098-0.099-0.215-0.182-0.313-0.281-0.169-0.165-0.33-0.336-0.5-0.5-0.067-0.067-0.12-0.152-0.188-0.219-0.326-0.331-0.671-0.641-1-0.969-0.052-0.053-0.104-0.104-0.156-0.156-0.283-0.281-0.559-0.565-0.844-0.844-0.331-0.336-0.666-0.667-1-1-0.092-0.095-0.189-0.186-0.281-0.281-0.242-0.235-0.475-0.485-0.719-0.719-0.092-0.095-0.189-0.186-0.281-0.281-0.042-0.041-0.083-0.084-0.125-0.125-0.192-0.194-0.369-0.401-0.563-0.594-0.098-0.099-0.215-0.182-0.313-0.281-0.169-0.165-0.33-0.336-0.5-0.5-0.067-0.067-0.12-0.152-0.188-0.219-0.326-0.331-0.671-0.641-1-0.969-0.052-0.053-0.104-0.104-0.156-0.156-0.283-0.281-0.559-0.565-0.844-0.844-0.331-0.336-0.666-0.667-1-1-0.327-0.339-0.67-0.664-1-1-0.092-0.095-0.189-0.186-0.281-0.281-0.042-0.041-0.083-0.084-0.125-0.125-0.192-0.194-0.369-0.401-0.563-0.594-0.098-0.099-0.215-0.182-0.313-0.281-0.169-0.165-0.33-0.336-0.5-0.5-0.067-0.067-0.12-0.152-0.188-0.219-0.323-0.329-0.673-0.643-1-0.969-0.331-0.336-0.666-0.667-1-1-0.331-0.336-0.666-0.667-1-1-0.327-0.339-0.67-0.664-1-1-24.15-24.563-57.796-40.938-95.75-40.938"
     color="#000000" />
  <g
     id="g8"
     fill-rule="evenodd">
    <path
       id="path10"
       fill-opacity="0.067"
       d="m256 1c-140.83 0-255 114.17-255 255s114.17 255 255 255 255-114.17 255-255-114.17-255-255-255m8.827 44.931c120.9 0 218.9 98 218.9 218.9s-98 218.9-218.9 218.9-218.93-98-218.93-218.9 98.03-218.9 218.93-218.9" />
    <g
       id="g12"
       fill-opacity="0.129">
      <path
         id="path14"
         d="m256 4.433c-138.94 0-251.57 112.63-251.57 251.57s112.63 251.57 251.57 251.57 251.57-112.63 251.57-251.57-112.63-251.57-251.57-251.57m5.885 38.556c120.9 0 218.9 98 218.9 218.9s-98 218.9-218.9 218.9-218.93-98-218.93-218.9 98.03-218.9 218.93-218.9" />
      <path
         id="path16"
         d="m256 8.356c-136.77 0-247.64 110.87-247.64 247.64s110.87 247.64 247.64 247.64 247.64-110.87 247.64-247.64-110.87-247.64-247.64-247.64m2.942 31.691c120.9 0 218.9 98 218.9 218.9s-98 218.9-218.9 218.9-218.93-98-218.93-218.9 98.03-218.9 218.93-218.9" />
    </g>
    <path
       id="path18"
       d="m253.04 7.859c-135.42 0-245.19 109.78-245.19 245.19 0 135.42 109.78 245.19 245.19 245.19 135.42 0 245.19-109.78 245.19-245.19 0-135.42-109.78-245.19-245.19-245.19zm0 26.297c120.9 0 218.9 98 218.9 218.9s-98 218.9-218.9 218.9-218.93-98-218.93-218.9 98.03-218.9 218.93-218.9z"
       stroke-opacity="0.31"
       stroke="#000"
       stroke-width="4.904"
       fill="#fff" />
  </g>
  <path
     id="path66"
     fill="#BF9E73"
     d="m256.49 120.83c-37.954 0-72.53 16.284-96.76 40.926-24.09 24.506-38.914 58.11-38.914 94.74 0 36.637 14.76 70.21 38.914 94.78 24.23 24.642 58.802 39.903 96.76 39.903 37.954 0 71.62-15.34 95.77-39.903 24.15-24.567 38.914-58.14 38.914-94.78 0-36.637-14.82-70.24-38.914-94.74-24.15-24.563-57.813-40.926-95.77-40.926m0 49.895c21.84 0 41.648 9.466 56.853 24.931 15.12 15.382 24.931 36.766 24.931 60.843 0 4.114-0.265 8.163-0.819 12.11-8.927-13.05-23.925-21.622-40.926-21.622-27.371 0-49.554 22.18-49.554 49.554 0 18.55 10.216 34.716 25.306 43.21-5.105 1.01-10.38 1.535-15.791 1.535-21.976 0-41.806-8.638-56.853-23.942-14.966-15.221-24.931-36.607-24.931-60.843 0-24.24 9.896-45.552 24.931-60.843 15.12-15.374 35.01-24.931 56.853-24.931"
     color="#000000"
     style="fill:#ffffff" />
</svg>
