<?xml version="1.0" encoding="UTF-8" standalone="no"?>
<svg xmlns="http://www.w3.org/2000/svg" viewBox="0 0 512 512">
 <g fill-rule="evenodd">
  <path d="m471.95 253.05c0 120.9-98.01 218.91-218.91 218.91s-218.91-98.01-218.91-218.91 98.01-218.91 218.91-218.91 218.91 98.01 218.91 218.91" fill="#BF9E73"/>
  <path d="m256 1c-140.83 0-255 114.17-255 255s114.17 255 255 255 255-114.17 255-255-114.17-255-255-255m8.827 44.931c120.9 0 218.9 98 218.9 218.9s-98 218.9-218.9 218.9-218.93-98-218.93-218.9 98.03-218.9 218.93-218.9" fill-opacity="0.067"/>
  <g transform="translate(0-540.36)" fill-opacity="0.129">
   <path d="m256 544.79c-138.94 0-251.57 112.63-251.57 251.57s112.63 251.57 251.57 251.57 251.57-112.63 251.57-251.57-112.63-251.57-251.57-251.57m5.885 38.556c120.9 0 218.9 98 218.9 218.9s-98 218.9-218.9 218.9-218.93-98-218.93-218.9 98.03-218.9 218.93-218.9"/>
   <path d="m256 548.72c-136.77 0-247.64 110.87-247.64 247.64s110.87 247.64 247.64 247.64 247.64-110.87 247.64-247.64-110.87-247.64-247.64-247.64m2.942 31.691c120.9 0 218.9 98 218.9 218.9s-98 218.9-218.9 218.9-218.93-98-218.93-218.9 98.03-218.9 218.93-218.9"/>
  </g>
  <path stroke="#000" stroke-width="4.904" d="m253.04 7.86c-135.42 0-245.19 109.78-245.19 245.19 0 135.42 109.78 245.19 245.19 245.19 135.42 0 245.19-109.78 245.19-245.19 0-135.42-109.78-245.19-245.19-245.19m0 26.297c120.9 0 218.9 98 218.9 218.9s-98 218.9-218.9 218.9-218.93-98-218.93-218.9 98.03-218.9 218.93-218.9z" stroke-opacity="0.31" fill="#fff"/>
 </g>
 <text font-size="129.23" y="231.36" x="729.64" font-family="&apos;Gentium Book Basic&apos;" line-height="125%" word-spacing="0" letter-spacing="0"><tspan y="231.36" x="729.64"/>
 </text>
 <text transform="scale(4.0128.2492)" font-size="46.954" y="579.26" x="378.91" font-family="Arial" text-anchor="middle"/>
 <text font-size="129.23" y="151.36" x="1310.91" font-family="&apos;Gentium Book Basic&apos;" line-height="125%" word-spacing="0" letter-spacing="0"><tspan y="151.36" x="1310.91"/>
 </text>
 <text transform="scale(4.0128.2492)" font-size="46.954" y="258.22" x="523.76" font-family="Arial" text-anchor="middle"/>
 <text font-size="129.23" y="-29.9" x="239.33" font-family="&apos;Gentium Book Basic&apos;" line-height="125%" word-spacing="0" letter-spacing="0"><tspan y="-29.9" x="239.33"/>
 </text>
 <text transform="scale(4.0128.2492)" font-size="46.954" y="-469.13" x="256.72" font-family="Arial" text-anchor="middle"/>
 <text font-size="129.23" y="-246.37" x="1337.38" font-family="&apos;Gentium Book Basic&apos;" line-height="125%" word-spacing="0" letter-spacing="0"><tspan y="-246.37" x="1337.38"/>
 </text>
 <text transform="scale(4.0128.2492)" font-size="46.954" y="-1337.79" x="530.36" font-family="Arial" text-anchor="middle"/>
 <text font-size="129.23" y="-326.37" x="1918.65" font-family="&apos;Gentium Book Basic&apos;" line-height="125%" word-spacing="0" letter-spacing="0"><tspan y="-326.37" x="1918.65"/>
 </text>
 <text transform="scale(4.0128.2492)" font-size="46.954" y="-1658.82" x="675.21" font-family="Arial" text-anchor="middle"/>
 <text font-size="129.23" y="-798.77" x="1529.53" font-family="&apos;Gentium Book Basic&apos;" line-height="125%" word-spacing="0" letter-spacing="0"><tspan y="-798.77" x="1529.53"/>
 </text>
 <text transform="scale(4.0128.2492)" font-size="46.954" y="-3554.46" x="578.24" font-family="Arial" text-anchor="middle"/>
 <text font-size="129.23" y="-878.78" x="2110.79" font-family="&apos;Gentium Book Basic&apos;" line-height="125%" word-spacing="0" letter-spacing="0"><tspan y="-878.78" x="2110.79"/>
 </text>
 <text transform="scale(4.0128.2492)" font-size="46.954" y="-3875.5" x="723.09" font-family="Arial" text-anchor="middle"/>
 <text font-size="208.33" y="535.94" x="277.99" font-family="&apos;Gentium Book Basic&apos;" line-height="125%" word-spacing="0" letter-spacing="0"><tspan y="535.94" x="277.99"/>
 </text>
 <path opacity="0.25" d="m256.28 100.15c-22.957-0.189-45.24 9.104-61.91 26.549-11.955 12.507-19.319 25.6-23.654 42.05-3.591 13.63-3.792 34.988-0.447 47.557 3.03 11.39 15.929 37.1 32.453 64.7 15.26 25.495 25.792 46.26 32.361 63.836 2.984 7.994 6.067 17.554 8.252 25.354 0.079 0.283 0.14 0.527 0.217 0.805l-54.711-54.711c-0.213-0.209-6.153 0.84-13.213 2.33-50.05 10.563-74.5 30.388-64.31 52.13 0.271 0.579 0.576 1.154 0.902 1.725 0.046 0.081 0.09 0.162 0.137 0.242 0.321 0.548 0.672 1.091 1.043 1.631 0.061 0.089 0.123 0.179 0.186 0.268 0.382 0.543 0.787 1.082 1.219 1.617 0.057 0.07 0.116 0.141 0.174 0.211 0.456 0.554 0.933 1.105 1.441 1.65 0.01 0.011 0.019 0.023 0.029 0.033 0.296 0.316 0.599 0.63 0.912 0.943l87.57 87.57c15.48 3.471 31.574 5.316 48.1 5.316 111.99 0 204.32-84.09 217.33-192.58l-154.43-154.43c-0.051-0.051-0.103-0.098-0.154-0.148-0.364-0.362-0.729-0.712-1.094-1.064-0.325-0.314-0.649-0.631-0.975-0.938-0.346-0.325-0.695-0.64-1.043-0.957-0.345-0.314-0.689-0.63-1.035-0.936-0.324-0.286-0.649-0.565-0.975-0.844-0.386-0.331-0.772-0.661-1.16-0.982-0.312-0.258-0.626-0.508-0.939-0.76-0.383-0.307-0.768-0.614-1.154-0.912-0.347-0.268-0.696-0.53-1.045-0.791-0.359-0.268-0.72-0.534-1.082-0.795-0.353-0.254-0.709-0.503-1.064-0.75-0.384-0.267-0.77-0.53-1.158-0.789-0.35-0.234-0.703-0.464-1.057-0.691-0.385-0.247-0.773-0.49-1.162-0.73-0.371-0.229-0.744-0.457-1.119-0.68-0.377-0.224-0.759-0.443-1.141-0.66-0.387-0.221-0.776-0.44-1.168-0.654-0.394-0.215-0.792-0.426-1.191-0.635-0.387-0.203-0.774-0.407-1.166-0.604-0.442-0.222-0.891-0.436-1.34-0.65-0.349-0.167-0.696-0.335-1.049-0.498-0.478-0.22-0.965-0.433-1.451-0.646-0.363-0.159-0.724-0.322-1.092-0.477-0.441-0.186-0.892-0.365-1.34-0.545-0.427-0.171-0.85-0.345-1.283-0.512-0.46-0.177-0.932-0.346-1.4-0.518-0.403-0.148-0.8-0.298-1.209-0.441-0.679-0.238-1.372-0.467-2.068-0.695-0.224-0.073-0.442-0.152-0.668-0.225-0.941-0.301-1.897-0.593-2.871-0.877-7.62-2.22-15.348-3.337-23-3.4"/>
 <path d="m223.65 410.8c-59.5-4.361-102.85-19.813-112.33-40.05-10.19-21.743 14.264-41.567 64.31-52.13 7.06-1.49 13-2.539 13.213-2.33 0.209 0.209-3.489 1.415-8.217 2.681-29.603 7.923-43.23 24.483-32.686 39.706 9.66 13.939 43.06 24.287 86.53 26.81l12.381 0.719-0.766-4.595c-1.196-7.177-6.225-23.98-11-36.77-6.569-17.578-17.1-38.34-32.36-63.835-16.524-27.595-29.42-53.31-32.453-64.7-3.345-12.569-3.144-33.926 0.447-47.556 4.335-16.451 11.7-29.543 23.655-42.05 22.23-23.26 54.43-32.03 84.91-23.15 15.849 4.621 27.19 11.466 38.36 23.15 15.465 16.179 23.527 33.466 26.16 56.08 1.468 12.629 0.286 25.966-3.341 37.71-3.541 11.466-14.297 32.873-28.432 56.59-20.16 33.831-28.1 49.5-36.33 71.76-2.771 7.494-10.289 34.08-10.298 36.413 0 1.306 20.649-0.088 37.566-2.536 33.17-4.8 54.951-14.03 61.23-25.954 8.03-15.24-4.075-28.878-33.58-37.829-11.879-3.603-10.211-3.684 5.886-0.286 34.498 7.284 57.664 19.304 64.18 33.3 11.596 24.902-21.727 46.845-84.68 55.761-28.768 4.075-63.21 5.228-92.36 3.092m43.16-227.41c10.879-4.07 18.15-12.97 20.613-25.22 0.925-4.605 0.825-6.921-0.526-12.195-4.104-16.02-17.736-26.17-33.453-24.909-12.259 0.984-21.242 6.964-26.616 17.718-2.715 5.434-3.18 7.533-3.18 14.378 0 6.858 0.463 8.941 3.202 14.423 7.467 14.943 24.383 21.634 39.96 15.806" fill="#fff"/>
</svg>
