<?xml version="1.0" encoding="UTF-8" standalone="no"?>
<svg xmlns="http://www.w3.org/2000/svg" height="512" viewBox="0 0 512 512" width="512" version="1.1">
 <metadata id="metadata72"/>
 <g id="g4" fill-rule="evenodd">
  <path id="path6" fill="#BF9E73" d="m471.95 253.05c0 120.9-98.01 218.9-218.9 218.9-120.9 0-218.9-98.01-218.9-218.9 0-120.9 98.01-218.9 218.9-218.9 120.9 0 218.9 98.01 218.9 218.9"/>
  <path id="path8" fill-opacity="0.235" d="m397.13 142.22-51.813 2.813-10.656 21.906-0.5-0.75-0.313 0.031-0.688-1.031-0.313 0.031-0.688-1.031-0.313 0.031-0.688-1.031-0.344 0.031-0.656-1.031-0.313 0.031-0.656-1-0.313 0.031-0.688-1.031-0.313 0.031-0.688-1.031-0.313 0.031-0.688-1.031-0.313 0.031-0.688-1.031-0.313 0.031-0.688-1.031-0.313 0.031-0.656-1-0.313 0.031-0.688-1.031-0.313 0.031-0.688-1.031-0.313 0.031-0.688-1.031-0.313 0.031-0.688-1.031-0.313 0.031-0.688-1.031-0.313 0.031-0.656-1-0.313 0.031-0.688-1.031-0.313 0.031-0.688-1.031-0.313 0.031-0.688-1.031-47.09 3.406 31.344 52.719-44.938 6.06-10.906 29.719-0.781-0.938-0.125 0.031-0.875-1.031-0.125 0.031-0.875-1.031-0.125 0.031-0.844-1-0.125 0.031-0.875-1.031-0.125 0.031-0.875-1.031-0.125 0.031-0.875-1.031-0.125 0.031-0.875-1.031-0.125 0.031-0.875-1.031-0.125 0.031-0.844-1-0.125 0.031-0.875-1.031-0.125 0.031-0.875-1.031-0.125 0.031-0.875-1.031-0.125 0.031-0.875-1.031-0.125 0.031-0.875-1.031-0.125 0.031-0.844-1-0.125 0.031-0.875-1.031-0.125 0.031-0.875-1.031-0.125 0.031-0.875-1.031-0.125 0.031-0.875-1.031-0.125 0.031-0.875-1.031-0.125 0.031-0.844-1-0.125 0.031-0.875-1.031-0.125 0.031-0.875-1.031-0.125 0.031-0.875-1.031-53.09 6.781 32.31 39.03-18.625 16.719-0.563-0.75-0.094 0.188-0.906-1.188-0.094 0.219-0.906-1.219-0.094 0.188-0.906-1.188-0.063 0.188-0.906-1.156-0.094 0.219-0.906-1.219-0.094 0.188-0.906-1.188-0.094 0.219-0.906-1.219-0.094 0.188-0.906-1.188-0.094 0.219-0.906-1.219-0.063 0.188-0.906-1.156-0.094 0.188-0.906-1.188-0.094 0.219-0.906-1.219-0.094 0.188-0.906-1.188-0.094 0.219-0.906-1.219-0.094 0.188-0.906-1.188-0.063 0.188-0.906-1.156-0.094 0.219-0.906-1.219-0.094 0.188-0.906-1.188-0.094 0.219-0.906-1.219-0.094 0.188-0.906-1.188-0.094 0.219-0.906-1.219-0.094 0.188-0.906-1.188-0.063 0.188-0.906-1.156-0.094 0.219-0.906-1.219-0.094 0.188-0.906-1.188-0.094 0.219-0.906-1.219-0.094 0.188-0.906-1.188-0.094 0.188-0.906-1.188-0.063 0.188-0.906-1.156-0.094 0.188-0.906-1.188-0.094 0.219-0.906-1.219-0.094 0.188-0.906-1.188-0.094 0.219-0.906-1.219-0.094 0.188-0.906-1.188-0.063 0.188-0.906-1.156-0.094 0.219-0.906-1.219-0.094 0.188-0.906-1.188-0.094 0.219-0.906-1.219-0.094 0.188-0.906-1.188-0.094 0.188-0.906-1.188-0.094 0.188-0.906-1.188-0.063 0.188-0.906-1.156-0.094 0.219-0.906-1.219-0.094 0.188-0.906-1.188-0.094 0.219-0.906-1.219-0.094 0.188-0.906-1.188-0.094 0.188-0.906-1.188-0.063 0.188-0.906-1.156-0.094 0.188-0.906-1.188-0.094 0.219-0.906-1.219-0.094 0.188-0.906-1.188-0.094 0.188-0.906-1.188-0.094 0.188-0.906-1.188-0.063 0.188-0.906-1.156-0.094 0.219-0.906-1.219-0.094 0.188-0.906-1.188-0.094 0.219-0.906-1.219-0.094 0.188-0.906-1.188-0.094 0.188-0.906-1.188-0.063 0.188-0.906-1.156-0.094 0.188-0.906-1.188-0.094 0.219-0.906-1.219-0.094 0.188-0.906-1.188-0.625 1.594-35.844 30.22 82.5 104.28 0.125-0.094 0.875 1.094 0.125-0.094 0.875 1.094 0.125-0.094 0.875 1.094 0.125-0.094 0.844 1.063 0.125-0.094 0.875 1.094 0.125-0.094 0.875 1.094 0.125-0.094 0.875 1.094 0.125-0.094 0.875 1.094 0.125-0.094 0.875 1.094 0.125-0.094 0.844 1.063 0.125-0.094 0.875 1.094 0.125-0.094 0.875 1.094 0.125-0.094 0.875 1.094 0.125-0.094 0.875 1.094 0.125-0.094 0.875 1.094 0.125-0.094 0.844 1.063 0.125-0.094 0.875 1.094 0.125-0.094 0.875 1.094 0.125-0.094 0.875 1.094 0.125-0.094 0.875 1.094 0.125-0.094 0.875 1.094 0.125-0.094 0.844 1.063 0.125-0.094 0.875 1.094 0.125-0.094 0.875 1.094 0.125-0.094 0.875 1.094 0.125-0.094 0.875 1.094 0.125-0.094 0.875 1.094 0.125-0.094 0.875 1.094 0.125-0.094 0.844 1.063 0.125-0.094 0.875 1.094 0.125-0.094 0.875 1.094 0.125-0.094 0.875 1.094 0.125-0.094 0.875 1.094 0.125-0.094 0.875 1.094 0.125-0.094 0.844 1.063 0.125-0.094 0.875 1.094 0.125-0.094 0.875 1.094 0.125-0.094 0.875 1.094 0.125-0.094 0.875 1.094 0.125-0.094 0.875 1.094 0.125-0.094 0.844 1.063 0.125-0.094 0.875 1.094 0.125-0.094 0.875 1.094 0.125-0.094 0.875 1.094 0.125-0.094 0.875 1.094 0.125-0.094 0.875 1.094 0.125-0.094 0.875 1.094 0.125-0.094 0.844 1.063 0.125-0.094 0.875 1.094 0.125-0.094 0.875 1.094 0.125-0.094 0.875 1.094 0.125-0.094 0.875 1.094 0.125-0.094 0.875 1.094 0.125-0.094 0.844 1.063 0.125-0.094 0.875 1.094 0.125-0.094 0.875 1.094 0.125-0.094 0.875 1.094 0.125-0.094 0.875 1.094 0.125-0.094 0.875 1.094 0.125-0.094 0.844 1.063 0.125-0.094 0.875 1.094 0.125-0.094 0.875 1.094 0.125-0.094 0.875 1.094 0.125-0.094 0.875 1.094 0.125-0.094 0.875 1.094 0.125-0.094 0.844 1.063 0.125-0.094 0.875 1.094 0.125-0.094 0.875 1.094 0.125-0.094 0.875 1.094 0.125-0.094 0.875 1.094 0.125-0.094 0.875 1.094 0.125-0.094 0.875 1.094 0.125-0.094 0.844 1.063 0.125-0.094 0.875 1.094 0.125-0.094 0.875 1.094 0.125-0.094 0.875 1.094 0.125-0.094 0.875 1.094 0.125-0.094 0.875 1.094 0.125-0.094 0.844 1.063 0.125-0.094 0.875 1.094 0.125-0.094 0.875 1.094 0.125-0.094 0.875 1.094 0.125-0.094 0.875 1.094 0.125-0.094 0.875 1.094 0.125-0.094 0.844 1.063 0.125-0.094 0.875 1.094 0.125-0.094 0.875 1.094 0.125-0.094 0.875 1.094 0.125-0.094 0.875 1.094 0.125-0.094 0.875 1.094 0.125-0.094 0.875 1.094 0.125-0.094 0.844 1.063 0.125-0.094 0.875 1.094 0.125-0.094 0.875 1.094 0.125-0.094 0.875 1.094 0.125-0.094 0.875 1.094 0.125-0.094 0.875 1.094 0.125-0.094 0.844 1.063 0.125-0.094 0.875 1.094 0.125-0.094 0.875 1.094 0.125-0.094 0.875 1.094 0.125-0.094 0.875 1.094 0.125-0.094 0.875 1.094 0.125-0.094 0.844 1.063 0.125-0.094 0.875 1.094 0.125-0.094 0.875 1.094 0.125-0.094 0.875 1.094 0.125-0.094 0.875 1.094 0.125-0.094 0.875 1.094 0.125-0.094 0.844 1.063 0.125-0.094 0.875 1.094 0.125-0.094 0.875 1.094 0.125-0.094 0.875 1.094 0.125-0.094 0.875 1.094 0.125-0.094 0.875 1.094 0.125-0.094 0.875 1.094 0.125-0.094 0.844 1.063 0.125-0.094 0.875 1.094 0.125-0.094 0.875 1.094 0.125-0.094 0.875 1.094 0.125-0.094 0.875 1.094 0.125-0.094 0.844 1.063c0.031-0.004 0.063 0.004 0.094 0l0.063-0.063 0.031 0.031c106.75-14.577 189-106.09 189-216.84 0-13.02-1.134-25.765-3.313-38.16l-0.375 0.031 0.281-0.594c-0.026-0.147-0.067-0.291-0.094-0.438l-1.219 0.063 0.563-1.094-1.563 0.094 0.563-1.094-1.563 0.094 0.563-1.094-1.563 0.094 0.563-1.094-1.563 0.094 0.563-1.094-1.563 0.094 0.563-1.094-1.5 0.094 0.531-1.063-1.563 0.094 0.563-1.094-1.563 0.094 0.563-1.094-1.563 0.094 0.563-1.094-1.563 0.094 0.563-1.094-1.563 0.094 0.563-1.094-1.5 0.094 0.531-1.063-1.563 0.094 0.563-1.094-1.563 0.094 0.563-1.094-1.563 0.094 0.563-1.094-1.563 0.094 0.563-1.094-1.563 0.094 0.563-1.094-1.5 0.094 0.531-1.063-1.563 0.094 0.563-1.094-1.563 0.094 0.563-1.094-1.563 0.094 0.563-1.094-1.563 0.094 0.563-1.094-1.563 0.094 0.563-1.094-1.5 0.094 0.531-1.063-1.563 0.094 0.563-1.094-1.563 0.094 0.563-1.094-1.563 0.094 0.563-1.094-1.563 0.094 0.563-1.094-1.563 0.094 0.563-1.094-1.563 0.094 0.563-1.094-1.5 0.094 0.531-1.063-1.563 0.094 0.563-1.094-1.563 0.094 0.563-1.094-1.563 0.094 0.563-1.094-1.563 0.094 0.563-1.094-1.563 0.094 0.563-1.094-1.5 0.094 0.531-1.063-1.563 0.094 0.563-1.094-1.563 0.094 0.563-1.094-1.563 0.094 0.563-1.094-1.563 0.094 0.563-1.094-1.563 0.094 0.563-1.094-1.5 0.094 0.531-1.063-1.563 0.094 0.563-1.094-1.563 0.094 0.563-1.094-1.563 0.094 0.563-1.094-1.563 0.094 0.563-1.094-1.563 0.094 0.563-1.094-1.563 0.094 0.563-1.094-1.5 0.094 0.531-1.063-1.563 0.094 0.563-1.094-1.563 0.094 0.563-1.094-1.563 0.094 0.563-1.094-1.563 0.094 0.563-1.094-1.563 0.094 0.563-1.094-1.5 0.094 0.531-1.063-1.563 0.094 0.563-1.094-1.563 0.094 0.563-1.094-1.563 0.094 0.563-1.094-1.563 0.094 0.563-1.094-1.563 0.094 0.563-1.094-1.5 0.094 0.531-1.063-1.563 0.094 0.563-1.094-1.563 0.094 0.563-1.094-1.563 0.094 0.563-1.094-1.563 0.094 0.563-1.094-1.563 0.094 0.563-1.094-1.5 0.094 0.531-1.063-1.563 0.094 0.563-1.094-1.563 0.094 0.563-1.094-1.563 0.094 0.563-1.094"/>
  <path id="path10" fill-opacity="0.067" d="m256 1c-140.83 0-255 114.17-255 255s114.17 255 255 255 255-114.17 255-255-114.17-255-255-255m8.827 44.931c120.9 0 218.9 98 218.9 218.9s-98 218.9-218.9 218.9-218.93-98-218.93-218.9 98.03-218.9 218.93-218.9"/>
  <g id="g12" fill-opacity="0.129">
   <path id="path14" d="m256 4.433c-138.94 0-251.57 112.63-251.57 251.57s112.63 251.57 251.57 251.57 251.57-112.63 251.57-251.57-112.63-251.57-251.57-251.57m5.885 38.556c120.9 0 218.9 98 218.9 218.9s-98 218.9-218.9 218.9-218.93-98-218.93-218.9 98.03-218.9 218.93-218.9"/>
   <path id="path16" d="m256 8.356c-136.77 0-247.64 110.87-247.64 247.64s110.87 247.64 247.64 247.64 247.64-110.87 247.64-247.64-110.87-247.64-247.64-247.64m2.942 31.691c120.9 0 218.9 98 218.9 218.9s-98 218.9-218.9 218.9-218.93-98-218.93-218.9 98.03-218.9 218.93-218.9"/>
  </g>
  <path id="path18" d="m253.04 7.859c-135.42 0-245.19 109.78-245.19 245.19 0 135.42 109.78 245.19 245.19 245.19 135.42 0 245.19-109.78 245.19-245.19 0-135.42-109.78-245.19-245.19-245.19zm0 26.297c120.9 0 218.9 98 218.9 218.9s-98 218.9-218.9 218.9-218.93-98-218.93-218.9 98.03-218.9 218.93-218.9z" stroke-opacity="0.31" stroke="#000" stroke-width="4.904" fill="#fff"/>
 </g>
 <path id="path66" d="m397.13 142.22-51.813 2.813-13.656 27.688-17.406-26.438-47.09 3.406 31.344 52.719-44.938 6.06-11.813 32.625-23.75-27.719-53.09 6.781 32.31 39.03-27.313 24.594-54.56-71.31-0.625 1.594-35.844 30.22 82.5 104.28 63.53-55.875 1.313 1.563 7.281 60.19 49.969-5.219-5.719-67.69 1.031-2.813 42.594 1.75 15.13-39.03 20 37.13 54.19-9.03-44.47-66.44 30.906-60.875" fill-rule="evenodd" fill="#fff"/>
</svg>
