<?xml version="1.0" encoding="UTF-8" standalone="no"?>
<svg xmlns="http://www.w3.org/2000/svg" viewBox="0 0 512 512">
 <g fill-rule="evenodd">
  <path d="m471.95 253.05c0 120.9-98.01 218.9-218.9 218.9-120.9 0-218.9-98.01-218.9-218.9 0-120.9 98.01-218.9 218.9-218.9 120.9 0 218.9 98.01 218.9 218.9" fill="#BF9E73"/>
  <path d="m256 1c-140.83 0-255 114.17-255 255s114.17 255 255 255 255-114.17 255-255-114.17-255-255-255m8.827 44.931c120.9 0 218.9 98 218.9 218.9s-98 218.9-218.9 218.9-218.93-98-218.93-218.9 98.03-218.9 218.93-218.9" fill-opacity="0.067"/>
  <g fill-opacity="0.129">
   <path d="m256 4.433c-138.94 0-251.57 112.63-251.57 251.57s112.63 251.57 251.57 251.57 251.57-112.63 251.57-251.57-112.63-251.57-251.57-251.57m5.885 38.556c120.9 0 218.9 98 218.9 218.9s-98 218.9-218.9 218.9-218.93-98-218.93-218.9 98.03-218.9 218.93-218.9"/>
   <path d="m256 8.356c-136.77 0-247.64 110.87-247.64 247.64s110.87 247.64 247.64 247.64 247.64-110.87 247.64-247.64-110.87-247.64-247.64-247.64m2.942 31.691c120.9 0 218.9 98 218.9 218.9s-98 218.9-218.9 218.9-218.93-98-218.93-218.9 98.03-218.9 218.93-218.9"/>
  </g>
  <path stroke="#000" stroke-width="4.904" d="m253.04 7.859c-135.42 0-245.19 109.78-245.19 245.19 0 135.42 109.78 245.19 245.19 245.19 135.42 0 245.19-109.78 245.19-245.19 0-135.42-109.78-245.19-245.19-245.19zm0 26.297c120.9 0 218.9 98 218.9 218.9s-98 218.9-218.9 218.9-218.93-98-218.93-218.9 98.03-218.9 218.93-218.9z" stroke-opacity="0.31" fill="#fff"/>
 </g>
 <text font-size="129.23" y="231.36" x="729.64" font-family="&apos;Gentium Book Basic&apos;" line-height="125%" word-spacing="0" letter-spacing="0"><tspan y="231.36" x="729.64"/>
 </text>
 <text transform="scale(4.0128.2492)" font-size="46.954" y="579.25" x="378.91" font-family="Arial" text-anchor="middle"/>
 <text font-size="129.23" y="151.36" x="1310.91" font-family="&apos;Gentium Book Basic&apos;" line-height="125%" word-spacing="0" letter-spacing="0"><tspan y="151.36" x="1310.91"/>
 </text>
 <text transform="scale(4.0128.2492)" font-size="46.954" y="258.22" x="523.76" font-family="Arial" text-anchor="middle"/>
 <text font-size="129.23" y="-29.901" x="239.33" font-family="&apos;Gentium Book Basic&apos;" line-height="125%" word-spacing="0" letter-spacing="0"><tspan y="-29.901" x="239.33"/>
 </text>
 <text transform="scale(4.0128.2492)" font-size="46.954" y="-469.14" x="256.72" font-family="Arial" text-anchor="middle"/>
 <text font-size="129.23" y="-246.37" x="1337.38" font-family="&apos;Gentium Book Basic&apos;" line-height="125%" word-spacing="0" letter-spacing="0"><tspan y="-246.37" x="1337.38"/>
 </text>
 <text transform="scale(4.0128.2492)" font-size="46.954" y="-1337.8" x="530.36" font-family="Arial" text-anchor="middle"/>
 <text font-size="129.23" y="-326.38" x="1918.65" font-family="&apos;Gentium Book Basic&apos;" line-height="125%" word-spacing="0" letter-spacing="0"><tspan y="-326.38" x="1918.65"/>
 </text>
 <text transform="scale(4.0128.2492)" font-size="46.954" y="-1658.84" x="675.21" font-family="Arial" text-anchor="middle"/>
 <text font-size="129.23" y="-798.78" x="1529.53" font-family="&apos;Gentium Book Basic&apos;" line-height="125%" word-spacing="0" letter-spacing="0"><tspan y="-798.78" x="1529.53"/>
 </text>
 <text transform="scale(4.0128.2492)" font-size="46.954" y="-3554.49" x="578.24" font-family="Arial" text-anchor="middle"/>
 <text font-size="129.23" y="-878.78" x="2110.79" font-family="&apos;Gentium Book Basic&apos;" line-height="125%" word-spacing="0" letter-spacing="0"><tspan y="-878.78" x="2110.79"/>
 </text>
 <text transform="scale(4.0128.2492)" font-size="46.954" y="-3875.52" x="723.09" font-family="Arial" text-anchor="middle"/>
 <g font-family="&apos;Gentium Book Basic&apos;" line-height="125%" word-spacing="0" letter-spacing="0">
  <text y="535.94" x="277.99" font-size="208.33"><tspan y="535.94" x="277.99"/>
  </text>
  <text y="383.22" x="1623.47" font-size="129.23"><tspan y="383.22" x="1623.47"/>
  </text>
 </g>
 <text transform="scale(4.0128.2492)" font-size="46.954" y="1188.65" x="601.65" font-family="Arial" text-anchor="middle"/>
 <text font-size="129.23" y="303.22" x="2204.74" font-family="&apos;Gentium Book Basic&apos;" line-height="125%" word-spacing="0" letter-spacing="0"><tspan y="303.22" x="2204.74"/>
 </text>
 <text transform="scale(4.0128.2492)" font-size="46.954" y="867.62" x="746.5" font-family="Arial" text-anchor="middle"/>
 <text font-size="129.23" y="121.96" x="1133.16" font-family="&apos;Gentium Book Basic&apos;" line-height="125%" word-spacing="0" letter-spacing="0"><tspan y="121.96" x="1133.16"/>
 </text>
 <text transform="scale(4.0128.2492)" font-size="46.954" y="140.27" x="479.46" font-family="Arial" text-anchor="middle"/>
 <text font-size="129.23" y="-94.51" x="2231.21" font-family="&apos;Gentium Book Basic&apos;" line-height="125%" word-spacing="0" letter-spacing="0"><tspan y="-94.51" x="2231.21"/>
 </text>
 <text transform="scale(4.0128.2492)" font-size="46.954" y="-728.4" x="753.1" font-family="Arial" text-anchor="middle"/>
 <text font-size="129.23" y="-174.52" x="2812.48" font-family="&apos;Gentium Book Basic&apos;" line-height="125%" word-spacing="0" letter-spacing="0"><tspan y="-174.52" x="2812.48"/>
 </text>
 <text transform="scale(4.0128.2492)" font-size="46.954" y="-1049.44" x="897.95" font-family="Arial" text-anchor="middle"/>
 <text font-size="129.23" y="-646.92" x="2423.36" font-family="&apos;Gentium Book Basic&apos;" line-height="125%" word-spacing="0" letter-spacing="0"><tspan y="-646.92" x="2423.36"/>
 </text>
 <text transform="scale(4.0128.2492)" font-size="46.954" y="-2945.09" x="800.98" font-family="Arial" text-anchor="middle"/>
 <text font-size="129.23" y="-726.92" x="3004.62" font-family="&apos;Gentium Book Basic&apos;" line-height="125%" word-spacing="0" letter-spacing="0"><tspan y="-726.92" x="3004.62"/>
 </text>
 <text transform="scale(4.0128.2492)" font-size="46.954" y="-3266.12" x="945.83" font-family="Arial" text-anchor="middle"/>
 <text font-size="208.33" y="687.8" x="1171.82" font-family="&apos;Gentium Book Basic&apos;" line-height="125%" fill="#fff" word-spacing="0" letter-spacing="0"><tspan y="687.8" x="1171.82"/>
 </text>
 <path opacity="0.25" d="m259.19 105.44c-20.12 0-39.565 3.805-58.34 11.406-18.667 7.601-35.04 18.327-49.12 32.19-14.08 13.973-24.93 30.18-32.531 48.625-7.601 18.444-11.406 37.844-11.406 58.19 0 21.13 3.729 40.9 11.219 59.34 7.264 17.781 17.757 33.523 31.438 47.2l109.44 109.44c117.73-3.61 212.07-100.17 212.07-218.78 0-0.182-0.005-0.362-0.006-0.543l-105.5-105.5c-11.26-11.26-24.26-20.315-39-27.16-20.456-9.613-43.21-14.406-68.25-14.406"/>
 <path d="m259.19 105.44c-20.12 0-39.565 3.805-58.34 11.406-18.667 7.601-35.04 18.327-49.12 32.19-14.08 13.973-24.93 30.18-32.531 48.625-7.601 18.444-11.406 37.844-11.406 58.19 0 21.13 3.729 40.9 11.219 59.34 7.489 18.332 18.411 34.496 32.719 48.47 14.308 13.973 30.605 24.578 48.938 31.844 18.332 7.377 37.852 11.06 58.53 11.06 16.99 0 33.693-2.906 50.13-8.719 16.543-5.701 31.808-13.97 45.781-24.813l-17.938-27.16c-9.949 8.942-21.978 16.03-36.06 21.281-14.08 5.254-28.17 7.875-42.25 7.875-16.432 0-31.906-2.906-46.44-8.719-14.42-5.701-27.23-14.01-38.41-24.969-11.29-11.178-19.933-24.03-25.969-38.563-5.924-14.643-8.906-30.28-8.906-46.938 0-20.232 4.584-39.02 13.75-56.34 9.278-17.438 22.21-31.639 38.75-42.594 10.06-6.595 20.995-11.584 32.844-14.938 11.849-3.465 24.25-5.187 37.22-5.188 18.555 0 35.783 3.685 51.656 11.06 15.984 7.378 29.29 17.894 39.906 31.531 6.595 8.16 11.508 17.16 14.75 27 3.241 9.725 4.875 20.17 4.875 31.344 0 17.55-3.97 31.96-11.906 43.25-7.937 11.178-18.827 17.845-32.688 19.969v-116.19h-35.06v21.969c-3.354-7.936-8.761-14.15-16.25-18.625-7.378-4.471-16.05-6.719-26-6.719-19.11 0-34.709 6.996-46.781 20.969-12.07 13.973-18.09 32.14-18.09 54.5 0 22.356 5.977 40.528 17.938 54.5 12.07 13.861 27.711 20.781 46.938 20.781 9.948 0 18.622-2.172 26-6.531 7.489-4.471 12.896-10.689 16.25-18.625v25.813h6.531c33.2 0 58.905-8.358 77.13-25.12 18.22-16.767 27.343-40.3 27.344-70.59 0-14.08-2.172-27.507-6.531-40.25-4.248-12.855-10.554-24.764-18.938-35.719-13.749-17.996-30.857-31.748-51.31-41.25-20.456-9.613-43.21-14.406-68.25-14.406m-2.344 107.13c10.06 0 18.04 3.97 23.969 11.906 6.04 7.825 9.06 18.506 9.06 32.03 0 13.637-2.982 24.483-8.906 32.531-5.925 7.936-13.833 11.906-23.781 11.906-10.06 0-18.08-3.97-24-11.906-5.813-7.936-8.719-18.782-8.719-32.531 0-13.525 2.906-24.21 8.719-32.03 5.924-7.936 13.819-11.906 23.656-11.906" fill="#fff"/>
</svg>
