<?xml version="1.0" encoding="UTF-8" standalone="no"?>
<svg xmlns="http://www.w3.org/2000/svg" version="1.1" viewBox="0 0 512 512">
 <metadata id="metadata4102"/>

 <g id="g3418" fill-rule="evenodd">
  <path id="path3420" fill="#BF9E73" d="m471.93 253.06c0 120.9-98.01 218.9-218.9 218.9-120.9 0-218.9-98.01-218.9-218.9 0-120.9 98.01-218.9 218.9-218.9 120.9 0 218.9 98.01 218.9 218.9"/>
  <g id="g3422" transform="matrix(3.5433 0 0 3.5433-.004 0)">
   <path id="path3424" fill-opacity="0.067" d="m72.25 0.282c-39.746 0-71.967 32.22-71.967 71.967 0 39.746 32.22 71.967 71.967 71.967 39.746 0 71.967-32.22 71.967-71.967 0-39.746-32.22-71.967-71.967-71.967m2.491 12.681c34.12 0 61.777 27.657 61.777 61.777s-27.657 61.777-61.777 61.777-61.786-27.657-61.786-61.777 27.666-61.777 61.786-61.777"/>
   <g id="g3426" fill-opacity="0.129">
    <path id="path3428" d="m72.25 1.251c-39.21 0-70.998 31.787-70.998 70.998 0 39.21 31.787 70.998 70.998 70.998 39.21 0 70.998-31.787 70.998-70.998 0-39.21-31.787-70.998-70.998-70.998m1.661 10.881c34.12 0 61.777 27.657 61.777 61.777s-27.657 61.777-61.777 61.777-61.786-27.657-61.786-61.777 27.666-61.777 61.786-61.777"/>
    <path id="path3430" d="m72.25 2.358c-38.6 0-69.891 31.29-69.891 69.891 0 38.6 31.29 69.891 69.891 69.891 38.6 0 69.891-31.29 69.891-69.891 0-38.6-31.29-69.891-69.891-69.891m0.83 8.944c34.12 0 61.777 27.657 61.777 61.777s-27.657 61.777-61.777 61.777-61.786-27.657-61.786-61.777 27.666-61.777 61.786-61.777"/>
   </g>
   <path id="path3432" d="m71.41 2.218c-38.22 0-69.2 30.981-69.2 69.2 0 38.22 30.981 69.2 69.2 69.2 38.22 0 69.2-30.981 69.2-69.2 0-38.22-30.981-69.2-69.2-69.2zm0 7.422c34.12 0 61.777 27.657 61.777 61.777s-27.657 61.777-61.777 61.777-61.786-27.657-61.786-61.777 27.666-61.777 61.786-61.777" stroke-opacity="0.31" stroke="#000" stroke-width="1.384" fill="#fff"/>
  </g>
 </g>

 <path id="path4094" opacity="0.25" d="m256 112.99c-8.892 0-20.08 7.24-24.13 15.621-4.824 9.965-4.827 14.738-0.016 24.674 1.384 2.86 2.924 5.135 4.834 7.04l28.643 28.643v8.092l-18.652-18.652-6.994-1.873c-77.69-20.842-126.23-33.528-126.64-33.12-0.008 0.009 0.003 0.028 0.031 0.057l104.18 104.18c3.167 20.01 6.885 43.836 10.955 70.44l17.537 114.65 37.17 37.17c106.76-14.575 189.02-106.1 189.02-216.86 0-13.808-1.293-27.313-3.738-40.41l-69.23-69.23c-0.338-0.338-30.94 7.596-81.26 20.994l-42.37-42.37c-5.266-5.266-12.896-9.05-19.326-9.05"/>
 <path id="path4096" fill="#fff" d="m256 262.2h9.288l0.485 85.28 0.485 85.28 17.537-114.65c9.645-63.06 18.15-116.35 18.905-118.41 0.891-2.447 18.01-12.822 49.07-29.754 26.24-14.297 47.47-26.23 47.19-26.518-0.414-0.436-48.948 12.277-126.64 33.12l-6.994 1.873v46.49h-18.652v-46.49l-6.994-1.873c-77.69-20.842-126.23-33.528-126.64-33.12-0.285 0.291 20.949 12.221 47.19 26.518 31.07 16.932 48.18 27.307 49.07 29.754 0.753 2.065 9.259 55.35 18.904 118.41l17.537 114.65 0.485-85.28 0.486-85.28zm12.355-97.1c8.382-4.054 15.622-15.241 15.622-24.13 0-2.429-1.729-7.99-3.842-12.356-4.058-8.381-15.242-15.622-24.13-15.622-8.892 0-20.08 7.24-24.13 15.622-4.824 9.965-4.828 14.737-0.016 24.673 2.731 5.642 6.06 9.01 11.657 11.779 9.834 4.871 14.852 4.876 24.848 0z"/>
</svg>
