<?xml version="1.0" encoding="UTF-8" standalone="no"?>
<svg xmlns="http://www.w3.org/2000/svg" xmlns:sodipodi="http://sodipodi.sourceforge.net/DTD/sodipodi-0.dtd" xmlns:inkscape="http://www.inkscape.org/namespaces/inkscape" version="1.1" viewBox="0 0 512 512">
 <metadata id="metadata6462"/>
 <g transform="translate(5.8e-4,1.2e-4)" id="g5770" fill-rule="evenodd">
  <path inkscape:connector-curvature="0" id="path5772" d="m 471.93,253.06 c 0,120.9 -98.01,218.9 -218.9,218.9 -120.9,0 -218.9,-98.01 -218.9,-218.9 0,-120.9 98.01,-218.9 218.9,-218.9 120.9,0 218.9,98.01 218.9,218.9" fill="#BF9E73"/>
  <path inkscape:connector-curvature="0" id="path5774" d="m 162.31,35.719 c -13.777,7.664 -26.761,16.588 -38.781,26.625 l 0,383.94 c 13.817,11.537 28.893,21.629 45,30 l 0,-440.56 -6.219,0" fill="#BF9E73"/>
  <path inkscape:connector-curvature="0" id="path5776" d="M 79.13,110.53 C 53.238,147.294 37.01,191.34 34.13,239 l 0,30.625 c 2.878,47.66 19.11,91.7 45,128.47 l 0,-287.56" fill="#BF9E73"/>
  <path inkscape:connector-curvature="0" id="path5778" d="m 123.72,62.19 c -17.08,14.231 -32.22,30.687 -45,48.938 l 0,286.38 c 12.775,18.25 27.922,34.706 45,48.938 l 0,-384.25" fill="#BF9E73"/>
  <g id="g5780" transform="matrix(3.5433,0,0,3.5433,-0.004,0)">
   <path inkscape:connector-curvature="0" id="path5782" d="m 72.25,0.282 c -39.746,0 -71.967,32.22 -71.967,71.967 0,39.746 32.22,71.967 71.967,71.967 39.746,0 71.967,-32.22 71.967,-71.967 0,-39.746 -32.22,-71.967 -71.967,-71.967 m 2.491,12.681 c 34.12,0 61.777,27.657 61.777,61.777 0,34.12 -27.657,61.777 -61.777,61.777 -34.12,0 -61.786,-27.657 -61.786,-61.777 0,-34.12 27.666,-61.777 61.786,-61.777" fill-opacity="0.067"/>
   <g id="g5784" fill-opacity="0.129">
    <path inkscape:connector-curvature="0" id="path5786" d="m 72.25,1.251 c -39.21,0 -70.998,31.787 -70.998,70.998 0,39.21 31.787,70.998 70.998,70.998 39.21,0 70.998,-31.787 70.998,-70.998 0,-39.21 -31.787,-70.998 -70.998,-70.998 m 1.661,10.881 c 34.12,0 61.777,27.657 61.777,61.777 0,34.12 -27.657,61.777 -61.777,61.777 -34.12,0 -61.786,-27.657 -61.786,-61.777 0,-34.12 27.666,-61.777 61.786,-61.777"/>
    <path inkscape:connector-curvature="0" id="path5788" d="m 72.25,2.358 c -38.6,0 -69.891,31.29 -69.891,69.891 0,38.6 31.29,69.891 69.891,69.891 38.6,0 69.891,-31.29 69.891,-69.891 0,-38.6 -31.29,-69.891 -69.891,-69.891 m 0.83,8.944 c 34.12,0 61.777,27.657 61.777,61.777 0,34.12 -27.657,61.777 -61.777,61.777 -34.12,0 -61.786,-27.657 -61.786,-61.777 0,-34.12 27.666,-61.777 61.786,-61.777"/>
   </g>
   <path inkscape:connector-curvature="0" id="path5790" d="m 71.41,2.218 c -38.22,0 -69.2,30.981 -69.2,69.2 0,38.22 30.981,69.2 69.2,69.2 38.22,0 69.2,-30.981 69.2,-69.2 0,-38.22 -30.981,-69.2 -69.2,-69.2 z m 0,7.422 c 34.12,0 61.777,27.657 61.777,61.777 0,34.12 -27.657,61.777 -61.777,61.777 C 37.29,133.194 9.624,105.537 9.624,71.417 9.624,37.297 37.29,9.64 71.41,9.64" stroke-opacity="0.31" fill="#ffffff" stroke="#000000" stroke-width="1.384"/>
  </g>
 </g>
 <g transform="translate(5.8e-4,1.2e-4)" id="g6452" fill-rule="evenodd">
  <path inkscape:connector-curvature="0" id="path6454" d="m 251.23,89.47 c -7.095,0.073 -14.373,0.477 -21.813,1.25 l 159.08,159.08 0,0.002 c 0.105,2.218 0.157,4.436 0.168,6.654 l -66.902,-66.902 c -17.924,-17.924 -43.4,-29.698 -74.848,-29.334 -3.02,0.035 -6.089,0.204 -9.219,0.469 l 78.35,78.35 c 2.357,13.827 1.937,28.14 -1.123,41.803 l -27.955,-27.955 c -1.61,-27.13 -24.11,-48.639 -51.65,-48.639 -28.582,0 -51.75,23.17 -51.75,51.75 0,28.582 23.17,51.75 51.75,51.75 l 35.699,35.699 c -10.08,5.934 -21.698,10.05 -34.793,11.707 l 51.969,51.969 c -18.19,7.875 -38.718,13.243 -61.47,15.406 l 48.33,48.33 c 110.55,-11.05 196.87,-104.34 196.87,-217.8 0,-8.656 -0.519,-17.189 -1.496,-25.582 l -86.75,-86.74 c -31.23,-31.23 -76.37,-51.841 -132.46,-51.26" opacity="0.25"/>
  <path inkscape:connector-curvature="0" id="path6456" d="m 251.23,89.47 c -7.095,0.073 -14.373,0.477 -21.813,1.25 226.04,41.723 199.07,312.63 -2.688,331.81 296.15,-11.654 244.45,-335.34 24.5,-333.06 m -4.313,70.75 c -3.02,0.035 -6.089,0.204 -9.219,0.469 113.4,22.656 99.82,181.63 -1.469,194.47 166.75,-3.403 136.55,-196.4 10.688,-194.94 m -11.594,44.03 c -28.582,0 -51.75,23.17 -51.75,51.75 0,28.582 23.17,51.75 51.75,51.75 28.582,0 51.75,-23.17 51.75,-51.75 0,-28.582 -23.17,-51.75 -51.75,-51.75 m -0.031,13.688 c 18.512,0 29.469,7.644 29.469,20.344 0,8.933 -4.935,15.723 -14.406,19.813 -7.534,3.336 -8.844,4.855 -8.844,10.344 l 0,0.844 -10.75,0 c -0.215,-1.292 -0.219,-1.917 -0.219,-3.531 0,-7.857 1.411,-10.445 9.375,-16.688 3.552,-2.906 5.25,-6.132 5.25,-10.438 0,-6.888 -4.522,-11.313 -11.625,-11.313 -5.812,0 -10.969,2.705 -10.969,5.719 0,0.753 0.014,0.736 0.875,2.781 0.323,0.861 0.75,2.799 0.75,3.875 0,4.736 -3.771,8.188 -8.938,8.188 -5.812,0 -9.375,-3.758 -9.375,-10 0,-11.301 12.724,-19.938 29.406,-19.938 m 1.281,56.19 c 5.597,0 10,4.417 10,9.906 0,5.489 -4.511,10 -10,10 -5.489,0 -9.906,-4.514 -9.906,-10.219 0,-5.274 4.525,-9.688 9.906,-9.688" fill="#ffffff"/>
 </g>
</svg>
