<?xml version="1.0" encoding="UTF-8" standalone="no"?>
<svg xmlns="http://www.w3.org/2000/svg" height="512" viewBox="0 0 512 512" width="512" version="1.1">
 <metadata id="metadata82"/>
 <path id="path16" d="m471.95 253.05c0 120.9-98.01 218.91-218.91 218.91s-218.91-98.01-218.91-218.91 98.01-218.91 218.91-218.91 218.91 98.01 218.91 218.91" fill-rule="evenodd" fill="#BF9E73"/>
 <path id="path18" opacity="0.25" d="m253.03 34.16c-1.733 0-3.465 0.022-5.188 0.063-0.156 0.004-0.313-0.004-0.469 0-1.112 0.028-2.205 0.08-3.313 0.125-1.439 0.058-2.881 0.133-4.313 0.219-1.322 0.079-2.653 0.147-3.969 0.25-1.591 0.124-3.169 0.28-4.75 0.438-0.773 0.077-1.542 0.165-2.313 0.25-0.867 0.096-1.73 0.175-2.594 0.281-1.138 0.14-2.274 0.312-3.406 0.469-0.146 0.02-0.292 0.042-0.438 0.063-2.816 0.396-5.626 0.842-8.406 1.344-0.792 0.143-1.586 0.286-2.375 0.438-0.615 0.118-1.231 0.221-1.844 0.344-0.25 0.05-0.501 0.105-0.75 0.156-1.15 0.235-2.294 0.497-3.438 0.75-1.392 0.308-2.774 0.634-4.156 0.969s-2.754 0.67-4.125 1.031c-2.352 0.619-4.68 1.274-7 1.969-0.667 0.2-1.336 0.388-2 0.594-0.327 0.101-0.642 0.241-0.969 0.344-1.053 0.332-2.11 0.653-3.156 1-0.711 0.236-1.418 0.476-2.125 0.719-0.994 0.341-1.982 0.708-2.969 1.063-0.563 0.202-1.127 0.387-1.688 0.594-1.492 0.551-2.992 1.106-4.469 1.688-0.2 0.079-0.394 0.171-0.594 0.25-1.09 0.433-2.169 0.862-3.25 1.313-1.208 0.503-2.428 1.038-3.625 1.563-1.257 0.55-2.506 1.083-3.75 1.656-0.136 0.062-0.271 0.125-0.406 0.188-1.024 0.474-2.047 0.948-3.063 1.438-1.379 0.665-2.731 1.37-4.094 2.063-1.143 0.581-2.275 1.15-3.406 1.75-0.136 0.072-0.27 0.146-0.406 0.219-1.184 0.631-2.361 1.286-3.531 1.938-1.211 0.675-2.428 1.366-3.625 2.063-1.187 0.691-2.359 1.381-3.531 2.094-1.195 0.726-2.383 1.471-3.563 2.219-1.081 0.686-2.15 1.39-3.219 2.094-0.145 0.096-0.293 0.185-0.438 0.281-0.962 0.638-1.923 1.285-2.875 1.938-0.48 0.329-0.96 0.667-1.438 1-0.682 0.475-1.387 0.924-2.063 1.406-1.219 0.87-2.394 1.762-3.594 2.656-0.69 0.514-1.379 1.041-2.063 1.563-0.707 0.54-1.425 1.077-2.125 1.625-0.233 0.183-0.455 0.379-0.688 0.563-0.896 0.708-1.803 1.404-2.688 2.125-0.597 0.487-1.189 0.976-1.781 1.469-0.591 0.493-1.164 1-1.75 1.5-0.49 0.417-0.983 0.829-1.469 1.25-0.106 0.092-0.207 0.189-0.313 0.281-2.077 1.807-4.118 3.649-6.125 5.531-0.742 0.696-1.487 1.388-2.219 2.094-0.752 0.725-1.508 1.452-2.25 2.188-0.293 0.291-0.584 0.583-0.875 0.875-0.197 0.198-0.397 0.395-0.594 0.594-0.953 0.963-1.909 1.957-2.844 2.938-1.016 1.066-2.01 2.164-3 3.25-0.185 0.202-0.379 0.392-0.563 0.594-0.687 0.756-1.355 1.516-2.031 2.281-0.911 1.031-1.827 2.076-2.719 3.125-0.714 0.839-1.424 1.682-2.125 2.531-1.047 1.269-2.075 2.551-3.094 3.844-0.068 0.087-0.15 0.163-0.219 0.25-0.783 0.997-1.546 2.02-2.313 3.03-0.689 0.909-1.356 1.83-2.031 2.75-0.467 0.636-0.946 1.265-1.406 1.906-0.274 0.382-0.541 0.772-0.813 1.156-0.666 0.941-1.317 1.891-1.969 2.844-0.309 0.452-0.632 0.89-0.938 1.344-0.792 1.177-1.574 2.37-2.344 3.563-0.122 0.189-0.253 0.373-0.375 0.563-0.624 0.974-1.235 1.953-1.844 2.938-0.728 1.176-1.45 2.372-2.156 3.563-0.671 1.131-1.349 2.262-2 3.406-0.446 0.785-0.844 1.584-1.281 2.375-0.255 0.462-0.529 0.911-0.781 1.375-0.011 0.021-0.02 0.042-0.031 0.063-0.04 0.074-0.085 0.145-0.125 0.219-0.789 1.458-1.556 2.929-2.313 4.406-0.631 1.232-1.235 2.473-1.844 3.719-0.345 0.707-0.693 1.413-1.031 2.125-0.311 0.655-0.633 1.31-0.938 1.969-0.37 0.8-0.733 1.601-1.094 2.406-0.589 1.315-1.155 2.609-1.719 3.938-0.04 0.095-0.085 0.187-0.125 0.281-0.504 1.192-0.985 2.391-1.469 3.594-0.522 1.298-1.034 2.627-1.531 3.938-0.498 1.31-0.996 2.615-1.469 3.938-0.317 6.813-0.329 13.708-0.031 20.719 1.972 46.35 22.282 92.78 55.13 125.63l137.38 137.41c-10.828 2.211-21.795 3.56-32.75 3.938 14.967 3.233 30.503 4.969 46.44 4.969 120.9 0 218.91-98.01 218.91-218.91 0-23.913-3.85-46.928-10.938-68.47l-139.5-139.5c-4.04-1.329-8.142-2.559-12.281-3.656-2.708-0.718-5.408-1.384-8.156-2-0.052-0.012-0.104-0.02-0.156-0.031-0.114-0.025-0.23-0.037-0.344-0.063-2.647-0.587-5.318-1.135-8-1.625-0.042-0.008-0.083-0.024-0.125-0.031-0.218-0.04-0.438-0.086-0.656-0.125-1.204-0.215-2.414-0.398-3.625-0.594-1.429-0.231-2.874-0.453-4.313-0.656s-2.865-0.387-4.313-0.563c-1.447-0.175-2.919-0.353-4.375-0.5-0.613-0.062-1.229-0.1-1.844-0.156-0.844-0.078-1.684-0.151-2.531-0.219-1.371-0.11-2.747-0.196-4.125-0.281-0.094-0.006-0.187-0.026-0.281-0.031-0.062-0.004-0.125 0.004-0.188 0-1.327-0.079-2.636-0.164-3.969-0.219-0.301-0.012-0.605-0.02-0.906-0.031-0.87-0.032-1.752-0.072-2.625-0.094-0.145-0.004-0.292 0.003-0.438 0-1.733-0.041-3.476-0.063-5.219-0.063"/>
 <path id="path20" fill="#fff" d="m253.03 34.16c-95.02 0-175.89 60.54-206.16 145.16-0.317 6.813-0.329 13.708-0.031 20.719 3.854 90.6 77.74 181.53 178.44 170.63 57.53-6.228 103.53-60.934 74.16-107.62-9.332-14.832-31.998-16.11-42.656-9 51.21-1.445 26.21 59.56-18.781 68.875-61.47 12.721-108.65-46.673-112.91-101.94-7.957-103.28 91.92-176.43 187.44-176.09 3.01 0.011 6 0.095 8.969 0.219-21.54-7.087-44.556-10.938-68.47-10.938m52.09 106.22c-2.944-0.038-6 0.047-9 0.188-3.093 0.145-6.26 0.441-9.406 0.781-57.53 6.228-103.53 60.934-74.16 107.63 9.332 14.832 31.998 16.11 42.656 9-51.21 1.445-26.21-59.56 18.781-68.875 61.47-12.721 108.65 46.673 112.91 101.94 7.759 100.71-87.05 172.77-180.34 175.97 14.976 3.237 30.524 4.969 46.47 4.969 101.85 0 187.46-69.58 211.91-163.78-5.348-83.76-69.911-166.66-159.81-167.81"/>
 <g id="g22" fill-rule="evenodd">
  <path id="path24" fill-opacity="0.067" d="m256 1c-140.83 0-255 114.17-255 255s114.17 255 255 255 255-114.17 255-255-114.17-255-255-255m8.827 44.931c120.9 0 218.9 98 218.9 218.9s-98 218.9-218.9 218.9-218.93-98-218.93-218.9 98.03-218.9 218.93-218.9"/>
  <g id="g26" fill-opacity="0.129">
   <path id="path28" d="m256 4.43c-138.94 0-251.57 112.63-251.57 251.57s112.63 251.57 251.57 251.57 251.57-112.63 251.57-251.57-112.63-251.57-251.57-251.57m5.885 38.556c120.9 0 218.9 98 218.9 218.9s-98 218.9-218.9 218.9-218.93-98-218.93-218.9 98.03-218.9 218.93-218.9"/>
   <path id="path30" d="m256 8.36c-136.77 0-247.64 110.87-247.64 247.64s110.87 247.64 247.64 247.64 247.64-110.87 247.64-247.64-110.87-247.64-247.64-247.64m2.942 31.691c120.9 0 218.9 98 218.9 218.9s-98 218.9-218.9 218.9-218.93-98-218.93-218.9 98.03-218.9 218.93-218.9"/>
  </g>
  <path id="path32" d="m253.04 7.86c-135.42 0-245.19 109.78-245.19 245.19 0 135.42 109.78 245.19 245.19 245.19 135.42 0 245.19-109.78 245.19-245.19 0-135.42-109.78-245.19-245.19-245.19zm0 26.297c120.9 0 218.9 98 218.9 218.9s-98 218.9-218.9 218.9-218.93-98-218.93-218.9 98.03-218.9 218.93-218.9z" stroke-opacity="0.31" stroke="#000" stroke-width="4.904" fill="#fff"/>
 </g>
</svg>
