<?xml version="1.0" encoding="UTF-8" standalone="no"?>
<svg xmlns="http://www.w3.org/2000/svg" viewBox="0 0 512 512">
 <g fill-rule="evenodd">
  <path d="m471.95 253.05c0 120.9-98.01 218.91-218.91 218.91s-218.91-98.01-218.91-218.91 98.01-218.91 218.91-218.91 218.91 98.01 218.91 218.91" fill="#BF9E73"/>
  <path d="m256 1c-140.83 0-255 114.17-255 255s114.17 255 255 255 255-114.17 255-255-114.17-255-255-255m8.827 44.931c120.9 0 218.9 98 218.9 218.9s-98 218.9-218.9 218.9-218.93-98-218.93-218.9 98.03-218.9 218.93-218.9" fill-opacity="0.067"/>
  <g fill-opacity="0.129">
   <path d="m256 4.43c-138.94 0-251.57 112.63-251.57 251.57s112.63 251.57 251.57 251.57 251.57-112.63 251.57-251.57-112.63-251.57-251.57-251.57m5.885 38.556c120.9 0 218.9 98 218.9 218.9s-98 218.9-218.9 218.9-218.93-98-218.93-218.9 98.03-218.9 218.93-218.9"/>
   <path d="m256 8.36c-136.77 0-247.64 110.87-247.64 247.64s110.87 247.64 247.64 247.64 247.64-110.87 247.64-247.64-110.87-247.64-247.64-247.64m2.942 31.691c120.9 0 218.9 98 218.9 218.9s-98 218.9-218.9 218.9-218.93-98-218.93-218.9 98.03-218.9 218.93-218.9"/>
  </g>
  <path stroke="#000" stroke-width="4.904" d="m253.04 7.86c-135.42 0-245.19 109.78-245.19 245.19 0 135.42 109.78 245.19 245.19 245.19 135.42 0 245.19-109.78 245.19-245.19 0-135.42-109.78-245.19-245.19-245.19m0 26.297c120.9 0 218.9 98 218.9 218.9s-98 218.9-218.9 218.9-218.93-98-218.93-218.9 98.03-218.9 218.93-218.9z" stroke-opacity="0.31" fill="#fff"/>
 </g>
 <path opacity="0.25" d="m260.16 88.5v10.25l-9.563-9.563-141.66 81.78 107.65 107.65-107.65 62.16 130.76 130.76c4.414 0.265 8.859 0.416 13.34 0.416 120.9 0 218.91-98.01 218.91-218.91 0-3.768-0.095-7.513-0.283-11.234l-73.975-73.975-137.53-79.34"/>
 <path d="m260.16 88.5v158.78l137.53-79.44-137.53-79.34m-9.563 0.688l-141.66 81.78 141.41 81.66c0.442-54.47 0.297-108.95 0.25-163.44zm152.47 86.56c-46.14 26.605-92.19 53.3-138.34 79.875 46.1 26.699 92.27 53.23 138.34 79.969v-159.84m-152.72 83.38l-141.41 81.66 141.31 81.59c-0.014-54.42-0.067-108.84 0.094-163.25m9.469 4.625v159.75l138.28-79.875c-46.1-26.632-92.18-53.24-138.28-79.875" fill="#fff"/>
</svg>
