<?xml version="1.0" encoding="UTF-8" standalone="no"?>
<svg xmlns="http://www.w3.org/2000/svg" height="512" viewBox="0 0 512 512" width="512" version="1.1">
 <metadata id="metadata72"/>
 <path id="path4" d="m471.95 253.05c0 120.9-98.01 218.9-218.9 218.9-120.9 0-218.9-98.01-218.9-218.9 0-120.9 98.01-218.9 218.9-218.9 120.9 0 218.9 98.01 218.9 218.9" fill-rule="evenodd" fill="#BF9E73"/>
 <g id="g8" fill-rule="evenodd">
  <path id="path10" fill-opacity="0.067" d="m256 1c-140.83 0-255 114.17-255 255s114.17 255 255 255 255-114.17 255-255-114.17-255-255-255m8.827 44.931c120.9 0 218.9 98 218.9 218.9s-98 218.9-218.9 218.9-218.93-98-218.93-218.9 98.03-218.9 218.93-218.9"/>
  <g id="g12" fill-opacity="0.129">
   <path id="path14" d="m256 4.433c-138.94 0-251.57 112.63-251.57 251.57s112.63 251.57 251.57 251.57 251.57-112.63 251.57-251.57-112.63-251.57-251.57-251.57m5.885 38.556c120.9 0 218.9 98 218.9 218.9s-98 218.9-218.9 218.9-218.93-98-218.93-218.9 98.03-218.9 218.93-218.9"/>
   <path id="path16" d="m256 8.356c-136.77 0-247.64 110.87-247.64 247.64s110.87 247.64 247.64 247.64 247.64-110.87 247.64-247.64-110.87-247.64-247.64-247.64m2.942 31.691c120.9 0 218.9 98 218.9 218.9s-98 218.9-218.9 218.9-218.93-98-218.93-218.9 98.03-218.9 218.93-218.9"/>
  </g>
  <path id="path18" d="m253.04 7.859c-135.42 0-245.19 109.78-245.19 245.19 0 135.42 109.78 245.19 245.19 245.19 135.42 0 245.19-109.78 245.19-245.19 0-135.42-109.78-245.19-245.19-245.19zm0 26.297c120.9 0 218.9 98 218.9 218.9s-98 218.9-218.9 218.9-218.93-98-218.93-218.9 98.03-218.9 218.93-218.9z" stroke-opacity="0.31" stroke="#000" stroke-width="4.904" fill="#fff"/>
 </g>
 <path id="path66" fill="#fff" d="m193.34 171.63c-6.661 0.104-13.454 1.788-20.05 5.05-19.675 9.724-27.744 30.631-21.641 55.54 2.918 11.911 3.927 28.01 2.164 34.481-2.499 9.177-10.165 13.982-22.506 13.994-12.192 0.012-24.18 9.375-26.546 20.775-2.421 11.662 0.347 22.23 7.935 29.864 8.923 8.978 21.303 11.509 32.03 6.492 15.529-7.263 20.617-22.438 13.994-41.41-3.192-9.144-3.338-10.371-1.731-16.16 6.803-24.499 62.688-26.292 71.847-2.308 2.165 5.67 1.808 9.548-2.164 19.477-2.431 6.077-2.727 8.194-2.308 14.716 0.765 11.913 6.475 20.26 17.745 25.392 6.858 3.123 21.12 3.109 27.844 0 16.536-7.641 22.744-24.21 15.437-40.973-6.276-14.398-3.104-23.965 10.1-30.586 16.609-8.329 40.603-6.428 52.659 4.184 8.626 7.593 9.915 14.166 5.338 27.27-6.075 17.389-1.207 32.43 12.84 39.963 6.06 3.252 19.477 3.254 25.536 0 5.487-2.947 11.682-9.424 13.706-14.283 5.903-14.173 1.076-32.01-10.532-38.809-4.01-2.35-7.04-3.067-15.15-3.751-6.597-0.557-11.214-1.599-13.417-2.885-4.404-2.572-7.917-8.943-8.801-16.01-0.804-6.436 0.99-22.482 3.463-31.02 2.556-8.825 1.535-25.376-2.02-33.18-10.894-23.92-41.666-33.29-63.48-19.19-3.421 2.211-7.81 6.139-9.81 8.656-7.01 8.826-18.31 20.14-21.785 21.785-8.745 4.15-17.722 0.749-27.556-10.388-14.865-16.834-17.04-18.959-23.661-22.22-6.219-3.062-12.816-4.576-19.477-4.472m62.902 49.05c20.14-0.033 33.822 18.374 28.13 37.943-2.481 8.534-10.621 16.801-18.755 19.19-6.96 2.043-12.702 2.144-19.19 0.144-11.277-3.476-19.699-15.492-19.621-28.13 0.052-8.46 1.943-13.277 7.791-19.621 6.107-6.625 12.717-9.507 21.641-9.522" color="#000000"/>
</svg>
