<?xml version="1.0" encoding="UTF-8" standalone="no"?>
<svg xmlns="http://www.w3.org/2000/svg" viewBox="0 0 512 512">
 <text font-size="129.23" y="231.36" x="729.64" font-family="Gentium Book Basic" line-height="125%" word-spacing="0" letter-spacing="0"><tspan y="231.36" x="729.64"/>
 </text>
 <text transform="scale(4.0128.2492)" font-size="46.954" y="579.26" x="378.91" font-family="Arial" text-anchor="middle"/>
 <text font-size="129.23" y="151.36" x="1310.91" font-family="Gentium Book Basic" line-height="125%" word-spacing="0" letter-spacing="0"><tspan y="151.36" x="1310.91"/>
 </text>
 <text transform="scale(4.0128.2492)" font-size="46.954" y="258.22" x="523.76" font-family="Arial" text-anchor="middle"/>
 <text font-size="129.23" y="-29.9" x="239.33" font-family="Gentium Book Basic" line-height="125%" word-spacing="0" letter-spacing="0"><tspan y="-29.9" x="239.33"/>
 </text>
 <text transform="scale(4.0128.2492)" font-size="46.954" y="-469.13" x="256.72" font-family="Arial" text-anchor="middle"/>
 <text font-size="129.23" y="-246.37" x="1337.38" font-family="Gentium Book Basic" line-height="125%" word-spacing="0" letter-spacing="0"><tspan y="-246.37" x="1337.38"/>
 </text>
 <text transform="scale(4.0128.2492)" font-size="46.954" y="-1337.8" x="530.36" font-family="Arial" text-anchor="middle"/>
 <text font-size="129.23" y="-326.37" x="1918.65" font-family="Gentium Book Basic" line-height="125%" word-spacing="0" letter-spacing="0"><tspan y="-326.37" x="1918.65"/>
 </text>
 <text transform="scale(4.0128.2492)" font-size="46.954" y="-1658.83" x="675.21" font-family="Arial" text-anchor="middle"/>
 <text font-size="129.23" y="-798.77" x="1529.53" font-family="Gentium Book Basic" line-height="125%" word-spacing="0" letter-spacing="0"><tspan y="-798.77" x="1529.53"/>
 </text>
 <text transform="scale(4.0128.2492)" font-size="46.954" y="-3554.48" x="578.24" font-family="Arial" text-anchor="middle"/>
 <text font-size="129.23" y="-878.78" x="2110.79" font-family="Gentium Book Basic" line-height="125%" word-spacing="0" letter-spacing="0"><tspan y="-878.78" x="2110.79"/>
 </text>
 <text transform="scale(4.0128.2492)" font-size="46.954" y="-3875.52" x="723.09" font-family="Arial" text-anchor="middle"/>
 <g line-height="125%" word-spacing="0" letter-spacing="0">
  <text y="535.94" x="277.99" font-size="208.33" font-family="Gentium Book Basic"><tspan y="535.94" x="277.99"/>
  </text>
  <text y="231.36" x="729.64" font-size="129.23" font-family="&apos;Gentium Book Basic&apos;"><tspan y="231.36" x="729.64"/>
  </text>
 </g>
 <text transform="scale(4.0128.2492)" font-size="46.954" y="579.26" x="378.91" font-family="Arial" text-anchor="middle"/>
 <text font-size="129.23" y="151.36" x="1310.91" font-family="&apos;Gentium Book Basic&apos;" line-height="125%" word-spacing="0" letter-spacing="0"><tspan y="151.36" x="1310.91"/>
 </text>
 <text transform="scale(4.0128.2492)" font-size="46.954" y="258.22" x="523.76" font-family="Arial" text-anchor="middle"/>
 <text font-size="129.23" y="-29.9" x="239.33" font-family="&apos;Gentium Book Basic&apos;" line-height="125%" word-spacing="0" letter-spacing="0"><tspan y="-29.9" x="239.33"/>
 </text>
 <text transform="scale(4.0128.2492)" font-size="46.954" y="-469.13" x="256.72" font-family="Arial" text-anchor="middle"/>
 <text font-size="129.23" y="-246.37" x="1337.38" font-family="&apos;Gentium Book Basic&apos;" line-height="125%" word-spacing="0" letter-spacing="0"><tspan y="-246.37" x="1337.38"/>
 </text>
 <text transform="scale(4.0128.2492)" font-size="46.954" y="-1337.8" x="530.36" font-family="Arial" text-anchor="middle"/>
 <text font-size="129.23" y="-326.37" x="1918.65" font-family="&apos;Gentium Book Basic&apos;" line-height="125%" word-spacing="0" letter-spacing="0"><tspan y="-326.37" x="1918.65"/>
 </text>
 <text transform="scale(4.0128.2492)" font-size="46.954" y="-1658.83" x="675.21" font-family="Arial" text-anchor="middle"/>
 <text font-size="129.23" y="-798.77" x="1529.53" font-family="&apos;Gentium Book Basic&apos;" line-height="125%" word-spacing="0" letter-spacing="0"><tspan y="-798.77" x="1529.53"/>
 </text>
 <text transform="scale(4.0128.2492)" font-size="46.954" y="-3554.48" x="578.24" font-family="Arial" text-anchor="middle"/>
 <text font-size="129.23" y="-878.78" x="2110.79" font-family="&apos;Gentium Book Basic&apos;" line-height="125%" word-spacing="0" letter-spacing="0"><tspan y="-878.78" x="2110.79"/>
 </text>
 <text transform="scale(4.0128.2492)" font-size="46.954" y="-3875.52" x="723.09" font-family="Arial" text-anchor="middle"/>
 <text font-size="208.33" y="535.94" x="277.99" font-family="&apos;Gentium Book Basic&apos;" line-height="125%" word-spacing="0" letter-spacing="0"><tspan y="535.94" x="277.99"/>
 </text>
 <path fill-rule="evenodd" d="m471.95 253.05c0 120.9-98.01 218.91-218.91 218.91s-218.91-98.01-218.91-218.91 98.01-218.91 218.91-218.91 218.91 98.01 218.91 218.91" fill="#fff"/>
 <path d="m253.03 34.16c-120.9 0-218.91 98.01-218.91 218.91s98.01 218.91 218.91 218.91 218.91-98.01 218.91-218.91-98.01-218.91-218.91-218.91" fill="#BF9E73"/>
 <path d="m288 36.938v59.03h64v-38.22c-19.791-10.05-41.31-17.17-64-20.813" fill="#BF9E73"/>
 <path d="m352 160v288.34c24.3-12.339 46-29.06 64.03-49.16v-47.22h32.34c10.03-19.777 17.14-41.3 20.781-63.969h-53.12v-128h-64.03" fill="#BF9E73"/>
 <path d="m224 416v54.03c9.5 1.259 19.19 1.938 29.03 1.938 35.619 0 69.24-8.532 98.97-23.625v-32.34h-128" fill="#BF9E73"/>
 <path d="m160 416v35.25c19.88 9.347 41.4 15.786 64 18.781v-54.03h-64" fill="#BF9E73"/>
 <path d="m106.88 416c15.807 14.188 33.678 26.11 53.13 35.25v-35.25h-53.12" fill="#BF9E73"/>
 <path d="m416 351.97v47.25c12.746-14.201 23.658-30.07 32.375-47.25h-32.375" fill="#BF9E73"/>
 <path d="m223.98 351.97v64.01h128.01v-64.01h-128.01" fill="#BF9E73"/>
 <path d="m160 287.99v127.99h63.989v-64.01h64.02v-63.979h-128.01" fill="#BF9E73"/>
 <path d="m57.719 351.97c12.324 24.29 29.02 45.973 49.09 64h53.19v-64h-102.28" fill="#BF9E73"/>
 <path d="m287.99 287.98h63.999v63.999h-63.999z" fill="#BF9E73"/>
 <path d="m160 160v63.969h-64.03v64h-59.03c3.637 22.68 10.743 44.21 20.781 64h102.28v-64h128v-64h-64v-63.969h-64" fill="#BF9E73"/>
 <path d="m416 223.97v64h53.19c1.824-11.373 2.75-23.02 2.75-34.906 0-9.858-0.644-19.581-1.906-29.09h-54.03" fill="#BF9E73"/>
 <path d="m287.99 223.98h63.999v63.999h-63.999z" fill="#BF9E73"/>
 <path d="m36.03 223.97c-1.262 9.512-1.906 19.237-1.906 29.09 0 11.889 0.988 23.531 2.813 34.906h59.06v-64h-59.969" fill="#BF9E73"/>
 <path d="m416 159.97v64h54.03c-3-22.615-9.485-44.11-18.844-64h-35.19" fill="#BF9E73"/>
 <path d="m287.99 159.98h63.999v63.999h-63.999z" fill="#BF9E73"/>
 <path d="m224 159.98h63.999v63.999h-63.999z" fill="#BF9E73"/>
 <path d="m95.99 159.98h63.999v63.999h-63.999z" fill="#BF9E73"/>
 <path d="m95.97 100.59c-31.907 32.864-53.609 75.68-59.938 123.38h59.938v-123.38" fill="#BF9E73"/>
 <path d="m416 106.91v53.06h35.19c-9.136-19.414-21.02-37.28-35.19-53.06" fill="#BF9E73"/>
 <path d="m352 95.97v64h64v-53.06c-3.377-3.763-6.873-7.416-10.5-10.938h-53.5" fill="#BF9E73"/>
 <path d="m223.98 95.98v64.01h128.01v-64.01h-128.01" fill="#BF9E73"/>
 <path d="m160 95.98h63.999v63.999h-63.999z" fill="#BF9E73"/>
 <path d="m100.59 95.97c-1.552 1.506-3.087 3.042-4.594 4.594v59.41h64v-64h-59.41" fill="#BF9E73"/>
 <path d="m352 57.75v38.22h53.5c-15.731-15.271-33.759-28.19-53.5-38.22" fill="#BF9E73"/>
 <path d="m253.03 34.16c-33.27 0-64.795 7.411-93.03 20.688v41.13h128v-59.03c-11.387-1.828-23.07-2.781-34.969-2.781" fill="#BF9E73"/>
 <path d="m160 54.844c-22.07 10.377-42.11 24.34-59.41 41.13h59.41v-41.12" fill="#BF9E73"/>
 <g fill-rule="evenodd">
  <path d="m256 1c-140.83 0-255 114.17-255 255s114.17 255 255 255 255-114.17 255-255-114.17-255-255-255m8.827 44.931c120.9 0 218.9 98 218.9 218.9s-98 218.9-218.9 218.9-218.93-98-218.93-218.9 98.03-218.9 218.93-218.9" fill-opacity="0.067"/>
  <g transform="translate(0-540.36)" fill-opacity="0.129">
   <path d="m256 544.79c-138.94 0-251.57 112.63-251.57 251.57s112.63 251.57 251.57 251.57 251.57-112.63 251.57-251.57-112.63-251.57-251.57-251.57m5.885 38.556c120.9 0 218.9 98 218.9 218.9s-98 218.9-218.9 218.9-218.93-98-218.93-218.9 98.03-218.9 218.93-218.9"/>
   <path d="m256 548.72c-136.77 0-247.64 110.87-247.64 247.64s110.87 247.64 247.64 247.64 247.64-110.87 247.64-247.64-110.87-247.64-247.64-247.64m2.942 31.691c120.9 0 218.9 98 218.9 218.9s-98 218.9-218.9 218.9-218.93-98-218.93-218.9 98.03-218.9 218.93-218.9"/>
  </g>
  <path stroke="#000" stroke-width="4.904" d="m253.04 7.86c-135.42 0-245.19 109.78-245.19 245.19 0 135.42 109.78 245.19 245.19 245.19 135.42 0 245.19-109.78 245.19-245.19 0-135.42-109.78-245.19-245.19-245.19m0 26.297c120.9 0 218.9 98 218.9 218.9s-98 218.9-218.9 218.9-218.93-98-218.93-218.9 98.03-218.9 218.93-218.9z" stroke-opacity="0.31" fill="#fff"/>
 </g>
 <text font-size="129.23" y="231.36" x="729.64" font-family="&apos;Gentium Book Basic&apos;" line-height="125%" word-spacing="0" letter-spacing="0"><tspan y="231.36" x="729.64"/>
 </text>
 <text transform="scale(4.0128.2492)" font-size="46.954" y="579.26" x="378.91" font-family="Arial" text-anchor="middle"/>
 <text font-size="129.23" y="151.36" x="1310.91" font-family="&apos;Gentium Book Basic&apos;" line-height="125%" word-spacing="0" letter-spacing="0"><tspan y="151.36" x="1310.91"/>
 </text>
 <text transform="scale(4.0128.2492)" font-size="46.954" y="258.22" x="523.76" font-family="Arial" text-anchor="middle"/>
 <text font-size="129.23" y="-29.9" x="239.33" font-family="&apos;Gentium Book Basic&apos;" line-height="125%" word-spacing="0" letter-spacing="0"><tspan y="-29.9" x="239.33"/>
 </text>
 <text transform="scale(4.0128.2492)" font-size="46.954" y="-469.13" x="256.72" font-family="Arial" text-anchor="middle"/>
 <text font-size="129.23" y="-246.37" x="1337.38" font-family="&apos;Gentium Book Basic&apos;" line-height="125%" word-spacing="0" letter-spacing="0"><tspan y="-246.37" x="1337.38"/>
 </text>
 <text transform="scale(4.0128.2492)" font-size="46.954" y="-1337.79" x="530.36" font-family="Arial" text-anchor="middle"/>
 <text font-size="129.23" y="-326.37" x="1918.65" font-family="&apos;Gentium Book Basic&apos;" line-height="125%" word-spacing="0" letter-spacing="0"><tspan y="-326.37" x="1918.65"/>
 </text>
 <text transform="scale(4.0128.2492)" font-size="46.954" y="-1658.82" x="675.21" font-family="Arial" text-anchor="middle"/>
 <text font-size="129.23" y="-798.77" x="1529.53" font-family="&apos;Gentium Book Basic&apos;" line-height="125%" word-spacing="0" letter-spacing="0"><tspan y="-798.77" x="1529.53"/>
 </text>
 <text transform="scale(4.0128.2492)" font-size="46.954" y="-3554.46" x="578.24" font-family="Arial" text-anchor="middle"/>
 <text font-size="129.23" y="-878.78" x="2110.79" font-family="&apos;Gentium Book Basic&apos;" line-height="125%" word-spacing="0" letter-spacing="0"><tspan y="-878.78" x="2110.79"/>
 </text>
 <text transform="scale(4.0128.2492)" font-size="46.954" y="-3875.5" x="723.09" font-family="Arial" text-anchor="middle"/>
 <text font-size="208.33" y="535.94" x="277.99" font-family="&apos;Gentium Book Basic&apos;" line-height="125%" word-spacing="0" letter-spacing="0"><tspan y="535.94" x="277.99"/>
 </text>
 <path opacity="0.25" d="m123.75 121.31v86.35l50.43 50.43h-8.34v132.6l81.18 81.18c0.72 0.019 1.438 0.05 2.16 0.063 0.248 0.004 0.496 0.006 0.744 0.01 1.035 0.014 2.069 0.039 3.107 0.039 4.392 0 8.75-0.145 13.08-0.4 0.158-0.009 0.315-0.02 0.473-0.029 1.999-0.122 3.99-0.272 5.975-0.447 0.178-0.016 0.356-0.031 0.533-0.047 56.628-5.145 107.02-31.849 142.91-71.846v0.01c0.489-0.545 0.971-1.098 1.455-1.648 0.768-0.873 1.529-1.753 2.283-2.639 0.474-0.557 0.947-1.114 1.416-1.676 0.482-0.578 0.963-1.156 1.439-1.738 0.553-0.677 1.099-1.36 1.645-2.043 0.668-0.837 1.331-1.678 1.986-2.525 0.538-0.695 1.073-1.392 1.604-2.094 0.416-0.551 0.829-1.103 1.24-1.658 0.531-0.717 1.056-1.44 1.578-2.164 0.55-0.762 1.096-1.527 1.637-2.297 0.605-0.861 1.206-1.725 1.799-2.596 0.358-0.526 0.713-1.053 1.066-1.582 0.533-0.797 1.059-1.6 1.582-2.404 0.31-0.477 0.625-0.95 0.932-1.43 0.737-1.153 1.458-2.317 2.174-3.484 0.328-0.535 0.651-1.073 0.975-1.611 0.5-0.833 0.995-1.67 1.484-2.51 0.289-0.496 0.58-0.99 0.865-1.488 0.685-1.197 1.359-2.401 2.02-3.611 0.283-0.516 0.56-1.036 0.838-1.555l-146.82-146.82h-0.764l-88.34-88.34h-86.35m178.15 0v86.35l145.74 145.74c0.197-0.377 0.393-0.754 0.586-1.133 0.05-0.098 0.102-0.195 0.152-0.293h-0.006c1.246-2.456 2.441-4.939 3.596-7.447 0.01-0.021 0.02-0.042 0.029-0.063 0.001-0.002 0.001-0.004 0.002-0.006 0.199-0.433 0.409-0.86 0.605-1.295 0.34-0.752 0.662-1.515 0.994-2.271l0.195-0.447c0.314-0.721 0.639-1.437 0.945-2.162 6.725-15.896 11.615-32.756 14.43-50.31h0.023c0.084-0.526 0.158-1.057 0.238-1.584 0.002-0.014 0.004-0.029 0.006-0.043 0.263-1.724 0.505-3.455 0.727-5.191 0.016-0.126 0.033-0.251 0.049-0.377 0.437-3.47 0.797-6.961 1.068-10.479 0.046-0.589 0.08-1.181 0.121-1.771 0.071-1.03 0.14-2.061 0.197-3.096 0.046-0.833 0.086-1.667 0.123-2.502 0.033-0.759 0.06-1.52 0.086-2.281 0.034-0.989 0.067-1.978 0.088-2.971 0.008-0.387 0.008-0.775 0.014-1.162 0.018-1.154 0.043-2.305 0.043-3.463 0-0.733-0.02-1.46-0.027-2.191-0.007-0.682-0.013-1.364-0.025-2.045-0.017-0.892-0.037-1.784-0.064-2.674-0.024-0.781-0.058-1.559-0.09-2.338-0.052-1.248-0.113-2.494-0.186-3.736-0.051-0.873-0.105-1.745-0.166-2.615-0.051-0.723-0.102-1.446-0.16-2.168-0.111-1.395-0.234-2.787-0.371-4.174-0.051-0.511-0.11-1.019-0.164-1.529-0.124-1.17-0.258-2.336-0.4-3.5-0.062-0.505-0.122-1.01-0.188-1.514-0.026-0.197-0.048-0.395-0.074-0.592h-0.01v-0.004h0.006c-0.114-0.862-0.243-1.721-0.367-2.58-0.181-1.248-0.373-2.492-0.574-3.732-0.13-0.8-0.258-1.6-0.396-2.396-0.168-0.966-0.349-1.927-0.529-2.889-0.111-0.592-0.224-1.183-0.34-1.773-0.195-0.991-0.396-1.979-0.604-2.965-0.095-0.451-0.195-0.9-0.293-1.35-0.605-2.778-1.264-5.534-1.973-8.271l-76.7-76.7h-86.35"/>
 <path d="m123.75 121.31v86.35h86.35v-86.35h-86.35m178.15 0v86.35h86.35v-86.35h-86.35m-89.04 88.34v48.44h-47.02v132.6h44.972v-46.25h90.382v46.25h43.559v-132.6h-45.55v-48.44h-86.35" fill="#fff"/>
</svg>
