<?xml version="1.0" encoding="UTF-8" standalone="no"?>
<svg
   xmlns:dc="http://purl.org/dc/elements/1.1/"
   xmlns:cc="http://creativecommons.org/ns#"
   xmlns:rdf="http://www.w3.org/1999/02/22-rdf-syntax-ns#"
   xmlns:svg="http://www.w3.org/2000/svg"
   xmlns="http://www.w3.org/2000/svg"
   xmlns:sodipodi="http://sodipodi.sourceforge.net/DTD/sodipodi-0.dtd"
   xmlns:inkscape="http://www.inkscape.org/namespaces/inkscape"
   height="512"
   viewBox="0 0 512 512"
   width="512"
   version="1.1"
   id="svg2"
   inkscape:version="0.91 r"
   sodipodi:docname="mintnanny.svg">
  <defs
     id="defs17" />
  <sodipodi:namedview
     pagecolor="#ffffff"
     bordercolor="#666666"
     borderopacity="1"
     objecttolerance="10"
     gridtolerance="10"
     guidetolerance="10"
     inkscape:pageopacity="0"
     inkscape:pageshadow="2"
     inkscape:window-width="1678"
     inkscape:window-height="997"
     id="namedview15"
     showgrid="false"
     inkscape:zoom="1.3037281"
     inkscape:cx="121.08167"
     inkscape:cy="244.919"
     inkscape:window-x="0"
     inkscape:window-y="0"
     inkscape:window-maximized="0"
     inkscape:current-layer="svg2" />
  <metadata
     id="metadata28">
    <rdf:RDF>
      <cc:Work
         rdf:about="">
        <dc:format>image/svg+xml</dc:format>
        <dc:type
           rdf:resource="http://purl.org/dc/dcmitype/StillImage" />
        <dc:title />
      </cc:Work>
    </rdf:RDF>
  </metadata>
  <path
     style="fill:#BF9E73;fill-rule:evenodd;fill-opacity:1"
     inkscape:connector-curvature="0"
     d="m 471.95,253.05 c 0,120.9 -98.01,218.9 -218.9,218.9 -120.9,0 -218.9,-98.01 -218.9,-218.9 0,-120.9 98.01,-218.9 218.9,-218.9 120.9,0 218.9,98.01 218.9,218.9"
     id="path6" />
  <path
     style="fill-opacity:0.06700003;fill-rule:evenodd"
     inkscape:connector-curvature="0"
     d="M 256,1 C 115.17,1 1,115.17 1,256 1,396.83 115.17,511 256,511 396.83,511 511,396.83 511,256 511,115.17 396.83,1 256,1 m 8.827,44.931 c 120.9,0 218.9,98 218.9,218.9 0,120.9 -98,218.9 -218.9,218.9 -120.9,0 -218.93,-98 -218.93,-218.9 0,-120.9 98.03,-218.9 218.93,-218.9"
     id="path8" />
  <g
     style="fill-opacity:0.12900002;fill-rule:evenodd"
     id="g10">
    <path
       inkscape:connector-curvature="0"
       d="m 256,4.433 c -138.94,0 -251.57,112.63 -251.57,251.57 0,138.94 112.63,251.57 251.57,251.57 138.94,0 251.57,-112.63 251.57,-251.57 C 507.57,117.063 394.94,4.433 256,4.433 m 5.885,38.556 c 120.9,0 218.9,98 218.9,218.9 0,120.9 -98,218.9 -218.9,218.9 -120.9,0 -218.93,-98 -218.93,-218.9 0,-120.9 98.03,-218.9 218.93,-218.9"
       id="path12" />
    <path
       inkscape:connector-curvature="0"
       d="m 256,8.356 c -136.77,0 -247.64,110.87 -247.64,247.64 0,136.77 110.87,247.64 247.64,247.64 136.77,0 247.64,-110.87 247.64,-247.64 C 503.64,119.226 392.77,8.356 256,8.356 m 2.942,31.691 c 120.9,0 218.9,98 218.9,218.9 0,120.9 -98,218.9 -218.9,218.9 -120.9,0 -218.93,-98 -218.93,-218.9 0,-120.9 98.03,-218.9 218.93,-218.9"
       id="path14" />
  </g>
  <path
     style="fill:#ffffff;fill-rule:evenodd;stroke:#000000;stroke-width:4.90399981;stroke-opacity:0.31000001"
     inkscape:connector-curvature="0"
     d="m 253.04,7.859 c -135.42,0 -245.19,109.78 -245.19,245.19 0,135.42 109.78,245.19 245.19,245.19 135.42,0 245.19,-109.78 245.19,-245.19 0,-135.42 -109.78,-245.19 -245.19,-245.19 z m 0,26.297 c 120.9,0 218.9,98 218.9,218.9 0,120.9 -98,218.9 -218.9,218.9 -120.9,0 -218.93,-98 -218.93,-218.9 0,-120.9 98.03,-218.9 218.93,-218.9 z"
     id="path16" />
  <path
     d="m 251.81088,98.082142 c 54.09103,76.293788 91.44967,163.977408 78.10169,280.406788 -10.82294,6.15506 -25.59125,10.995 -40.67797,15.72881 19.887,-105.9435 7.69795,-185.45912 -37.42372,-296.135598 z"
     id="path4268"
     inkscape:connector-curvature="0"
     sodipodi:nodetypes="cccc"
     style="fill:#ffffff;stroke:#000000;stroke-width:0" />
  <path
     d="M 244.49209,98.624509 C 190.40106,174.91831 153.04242,262.60193 166.3904,379.03131 c 10.82294,6.15506 25.59125,10.995 40.67797,15.72881 -19.887,-105.9435 -7.69795,-185.45912 37.42372,-296.135611 z"
     id="path4268-0"
     inkscape:connector-curvature="0"
     sodipodi:nodetypes="cccc"
     style="fill:#ffffff;stroke:#000000;stroke-width:0" />
  <path
     d="M 86.852784,230.42728 C 178.35172,249.78004 292.64378,247.62643 394.2029,189.1481 385.31637,170.02464 385.68451,171.98583 369.7082,151.53495 280.3693,211.85144 206.34691,227.89653 86.852784,230.42728 Z"
     id="path4268-0-7"
     inkscape:connector-curvature="0"
     sodipodi:nodetypes="cccc"
     style="fill:#ffffff;stroke:#000000;stroke-width:0" />
  <path
     d="m 96.510239,304.84733 c 91.498941,19.35276 209.587601,17.74152 311.146721,-40.73681 1.35193,-12.37711 2.64227,-28.3955 -2.25741,-45.20636 -89.3389,60.31649 -189.39519,83.41242 -308.889311,85.94317 z"
     id="path4268-0-7-9"
     inkscape:connector-curvature="0"
     sodipodi:nodetypes="cccc"
     style="fill:#ffffff;stroke:#000000;stroke-width:0" />
</svg>
