<?xml version="1.0" encoding="UTF-8" standalone="no"?>
<svg
   xmlns:dc="http://purl.org/dc/elements/1.1/"
   xmlns:cc="http://creativecommons.org/ns#"
   xmlns:rdf="http://www.w3.org/1999/02/22-rdf-syntax-ns#"
   xmlns:svg="http://www.w3.org/2000/svg"
   xmlns="http://www.w3.org/2000/svg"
   xmlns:sodipodi="http://sodipodi.sourceforge.net/DTD/sodipodi-0.dtd"
   xmlns:inkscape="http://www.inkscape.org/namespaces/inkscape"
   viewBox="0 0 512 512"
   version="1.1"
   width="512"
   height="512"
   id="svg2"
   inkscape:version="0.91 r"
   sodipodi:docname="mintupload.svg">
  <sodipodi:namedview
     pagecolor="#ffffff"
     bordercolor="#666666"
     borderopacity="1"
     objecttolerance="10"
     gridtolerance="10"
     guidetolerance="10"
     inkscape:pageopacity="0"
     inkscape:pageshadow="2"
     inkscape:window-width="1680"
     inkscape:window-height="998"
     id="namedview288"
     showgrid="false"
     inkscape:zoom="0.4609375"
     inkscape:cx="-407.86441"
     inkscape:cy="256"
     inkscape:window-x="0"
     inkscape:window-y="0"
     inkscape:window-maximized="1"
     inkscape:current-layer="svg2" />
  <metadata
     id="metadata557">
    <rdf:RDF>
      <cc:Work
         rdf:about="">
        <dc:format>image/svg+xml</dc:format>
        <dc:type
           rdf:resource="http://purl.org/dc/dcmitype/StillImage" />
      </cc:Work>
    </rdf:RDF>
  </metadata>
  <defs
     id="defs4">
    <linearGradient
       id="0"
       y2="299.13"
       gradientUnits="userSpaceOnUse"
       x2="454.54"
       y1="280.65"
       x1="-10.11">
      <stop
         stop-color="#2bad28"
         id="stop7" />
      <stop
         stop-color="#cdbf1d"
         offset="1"
         id="stop9" />
    </linearGradient>
    <filter
       id="filter4309"
       inkscape:label="Drop Shadow"
       color-interpolation-filters="sRGB">
      <feFlood
         id="feFlood4311"
         flood-opacity="0.5"
         flood-color="#000000"
         result="flood" />
      <feComposite
         id="feComposite4313"
         in2="SourceGraphic"
         in="flood"
         operator="in"
         result="composite1" />
      <feGaussianBlur
         id="feGaussianBlur4315"
         in="composite"
         stdDeviation="2"
         result="blur" />
      <feOffset
         id="feOffset4317"
         dx="4"
         dy="4"
         result="offset" />
      <feComposite
         id="feComposite4319"
         in2="offset"
         in="SourceGraphic"
         operator="over"
         result="composite2" />
    </filter>
  </defs>
  <path
     fill-rule="evenodd"
     d="m471.95 253.05c0 120.9-98.01 218.9-218.9 218.9-120.9 0-218.9-98.01-218.9-218.9 0-120.9 98.01-218.9 218.9-218.9 120.9 0 218.9 98.01 218.9 218.9"
     fill="#fff"
     id="path489" />
  <path
     d="m256 31.25c-37.815 0-73.45 9.344-104.72 25.844-0.017 0.009-0.014 0.054-0.031 0.063-0.008 0.004-0.023-0.004-0.031 0-1.319 0.697-2.634 1.403-3.938 2.125-69.18 38.32-116.03 112.04-116.03 196.72 0 113.5 84.23 207.33 193.53 222.56 0.01 0.001 0.021-0.001 0.031 0 10.208 1.419 20.588 2.188 31.19 2.188 124.12 0 224.75-100.63 224.75-224.75 0-114.22-85.18-208.47-195.5-222.78-3.095-0.401-6.203-0.748-9.344-1.031-1.709-0.164-3.433-0.295-5.156-0.406-4.883-0.331-9.801-0.5-14.75-0.5v-0.031"
     fill="url(#0)"
     id="path491"
     style="fill:#BF9E73;fill-opacity:1" />
  <path
     d="m -531.61,-198.19423 -120.72,22.625 26.625,27.13 -0.063,0.063 -0.031,0.031 c -32.04,34.19 -38.36,82.599996 -27.687,124.469996 10.681,41.858 38.47,77.64 75.62,86.06 0.01,0.002 0.021,-0.002 0.031,0 l 5.188,1.188 1.375,0.313 -0.875,-1.125 -3.313,-4.25 c -42.19,-54.0900002 -46.915,-124.61 -8.469,-164.279996 l 28.28,28.812996 24.03,-121.029996 m 78.875,0 0.875,1.125 3.313,4.219 c 42.19,54.09 46.915,124.609996 8.469,164.279996 l -28.28,-28.813 -24.03,121.06 120.72,-22.656 -26.625,-27.12 0.063,-0.063 h 0.031 c 32.04,-34.19 38.36,-82.6 27.688,-124.469996 -10.681,-41.858 -38.47,-77.64 -75.62,-86.06 -0.01,-0.002 -0.022,0.002 -0.031,0 l -5.188,-1.188 -1.375,-0.313"
     id="path553"
     inkscape:connector-curvature="0"
     fill="#ffffff" />
  <path
     d="M 256.07683,78.91551 481.68727,224.70767 468.81084,342.21859 379.33145,446.22882 342.02904,458.05943 217.58806,418.79021 Z"
     id="path4041"
     inkscape:connector-curvature="0"
     style="opacity:0.25;fill:#000000;stroke:#000000"
     sodipodi:nodetypes="ccccccc" />
  <g
     fill-rule="evenodd"
     id="g493">
    <path
       d="m256 1c-140.83 0-255 114.17-255 255s114.17 255 255 255 255-114.17 255-255-114.17-255-255-255m8.827 44.931c120.9 0 218.9 98 218.9 218.9s-98 218.9-218.9 218.9-218.93-98-218.93-218.9 98.03-218.9 218.93-218.9"
       fill-opacity="0.067"
       id="path495" />
    <g
       transform="translate(0-540.36)"
       fill-opacity="0.129"
       id="g497">
      <path
         d="m256 544.79c-138.94 0-251.57 112.63-251.57 251.57s112.63 251.57 251.57 251.57 251.57-112.63 251.57-251.57-112.63-251.57-251.57-251.57m5.885 38.556c120.9 0 218.9 98 218.9 218.9s-98 218.9-218.9 218.9-218.93-98-218.93-218.9 98.03-218.9 218.93-218.9"
         id="path499" />
      <path
         d="m256 548.72c-136.77 0-247.64 110.87-247.64 247.64s110.87 247.64 247.64 247.64 247.64-110.87 247.64-247.64-110.87-247.64-247.64-247.64m2.942 31.691c120.9 0 218.9 98 218.9 218.9s-98 218.9-218.9 218.9-218.93-98-218.93-218.9 98.03-218.9 218.93-218.9"
         id="path501" />
    </g>
    <path
       stroke="#000"
       stroke-width="4.904"
       d="m253.04 7.86c-135.42 0-245.19 109.78-245.19 245.19 0 135.42 109.78 245.19 245.19 245.19 135.42 0 245.19-109.78 245.19-245.19 0-135.42-109.78-245.19-245.19-245.19m0 26.297c120.9 0 218.9 98 218.9 218.9s-98 218.9-218.9 218.9-218.93-98-218.93-218.9 98.03-218.9 218.93-218.9z"
       stroke-opacity="0.31"
       fill="#fff"
       id="path503" />
  </g>
  <path
     d="m 252.89953,65.661017 -50.06189,80.715463 -50.03097,80.71546 57.01923,-0.58875 0,198.71873 91.24931,0 0,-199.67195 55.93697,-0.58876 -52.04086,-79.6501 -52.07179,-79.650093 z"
     id="path3266"
     inkscape:connector-curvature="0"
     style="fill:#ffffff;fill-opacity:1;stroke-width:0" />
</svg>
