<?xml version="1.0" encoding="UTF-8" standalone="no"?>
<svg xmlns="http://www.w3.org/2000/svg" height="512" viewBox="0 0 512 512" width="512" version="1.1">
 <metadata id="metadata74"/>
 <g id="g4" transform="translate(0,-540.36)">
  <path id="path6" d="m471.95 793.41c0 120.9-98.01 218.9-218.9 218.9-120.9 0-218.9-98.01-218.9-218.9 0-120.9 98.01-218.9 218.9-218.9 120.9 0 218.9 98.01 218.9 218.9" fill-rule="evenodd" fill="#BF9E73"/>
  <path id="path8" d="m299.53 129.16c-42.474 0.166-86.89 23.15-119.53 50.25-33 27.476-50.639 60.45-74.09 96.31l-9.594 19.75c2.876 3.078 5.775 6.05 8.656 8.938 0.067 0.068 0.121 0.151 0.188 0.219 0.25 0.25 0.5 0.501 0.75 0.75 0.082 0.083 0.168 0.167 0.25 0.25 0.198 0.197 0.396 0.398 0.594 0.594 0.133 0.135 0.273 0.272 0.406 0.406 0.307 0.303 0.63 0.606 0.938 0.906l0.031 0.031 0.031 0.031c0.313 0.308 0.625 0.632 0.938 0.938l0.063 0.063c0.326 0.331 0.643 0.672 0.969 1 0.31 0.305 0.628 0.603 0.938 0.906 0.026 0.026 0.037 0.068 0.063 0.094 0.309 0.304 0.629 0.604 0.938 0.906 0.005 0.005-0.005 0.026 0 0.031 0.02 0.02 0.043 0.042 0.063 0.063 0.309 0.304 0.629 0.604 0.938 0.906 0.026 0.026 0.037 0.068 0.063 0.094 0.307 0.303 0.63 0.606 0.938 0.906l0.031 0.031 0.031 0.031c0.313 0.308 0.625 0.632 0.938 0.938l0.063 0.063c0.326 0.331 0.643 0.672 0.969 1 0.31 0.305 0.628 0.603 0.938 0.906 0.026 0.026 0.037 0.068 0.063 0.094 0.309 0.304 0.629 0.604 0.938 0.906 0.005 0.005-0.005 0.026 0 0.031 0.02 0.02 0.043 0.042 0.063 0.063 0.309 0.304 0.629 0.604 0.938 0.906 0.026 0.026 0.037 0.068 0.063 0.094 0.307 0.303 0.63 0.606 0.938 0.906l0.031 0.031 0.031 0.031c0.313 0.308 0.625 0.632 0.938 0.938l0.063 0.063c0.326 0.331 0.643 0.672 0.969 1 0.31 0.305 0.628 0.603 0.938 0.906 0.026 0.026 0.037 0.068 0.063 0.094 0.309 0.304 0.629 0.604 0.938 0.906 0.005 0.005-0.005 0.026 0 0.031 0.02 0.02 0.043 0.042 0.063 0.063 0.309 0.304 0.629 0.604 0.938 0.906 0.005 0.005-0.005 0.026 0 0.031l0.063 0.063c0.307 0.303 0.63 0.606 0.938 0.906 0.026 0.026 0.037 0.068 0.063 0.094 0.307 0.303 0.63 0.606 0.938 0.906l0.031 0.031 0.031 0.031c0.313 0.308 0.625 0.632 0.938 0.938 0.016 0.016 0.016 0.047 0.031 0.063 0.2 0.198 0.394 0.397 0.594 0.594 0.134 0.136 0.272 0.271 0.406 0.406 0.31 0.305 0.628 0.603 0.938 0.906 0.026 0.026 0.037 0.068 0.063 0.094 0.309 0.304 0.629 0.604 0.938 0.906 0.005 0.005-0.005 0.026 0 0.031 0.02 0.02 0.043 0.042 0.063 0.063 0.307 0.303 0.63 0.606 0.938 0.906 0.026 0.026 0.037 0.068 0.063 0.094 0.307 0.303 0.63 0.606 0.938 0.906l0.031 0.031 0.031 0.031c0.313 0.308 0.625 0.632 0.938 0.938l0.063 0.063c0.326 0.331 0.643 0.672 0.969 1 0.31 0.305 0.628 0.603 0.938 0.906 0.026 0.026 0.037 0.068 0.063 0.094 0.309 0.304 0.629 0.604 0.938 0.906 0.005 0.005-0.005 0.026 0 0.031 0.02 0.02 0.043 0.042 0.063 0.063 0.309 0.304 0.629 0.604 0.938 0.906 0.026 0.026 0.037 0.068 0.063 0.094 0.307 0.303 0.63 0.606 0.938 0.906l0.031 0.031 0.031 0.031c0.313 0.308 0.625 0.632 0.938 0.938l0.063 0.063c0.326 0.331 0.643 0.672 0.969 1 0.31 0.305 0.628 0.603 0.938 0.906 0.026 0.026 0.037 0.068 0.063 0.094 0.309 0.304 0.629 0.604 0.938 0.906 0.005 0.005-0.005 0.026 0 0.031 0.02 0.02 0.043 0.042 0.063 0.063 0.309 0.304 0.629 0.604 0.938 0.906 0.005 0.005-0.005 0.026 0 0.031l0.063 0.063c0.307 0.303 0.63 0.606 0.938 0.906l0.031 0.031c0.015 0.016 0.016 0.047 0.031 0.063 0.307 0.303 0.63 0.606 0.938 0.906l0.063 0.063c0.326 0.331 0.643 0.672 0.969 1 0.31 0.305 0.628 0.603 0.938 0.906 0.026 0.026 0.037 0.068 0.063 0.094 0.31 0.305 0.628 0.603 0.938 0.906 0.026 0.026 0.037 0.068 0.063 0.094 0.309 0.304 0.629 0.604 0.938 0.906 0.005 0.005-0.005 0.026 0 0.031 0.02 0.02 0.043 0.042 0.063 0.063 0.307 0.303 0.63 0.606 0.938 0.906 0.026 0.026 0.037 0.068 0.063 0.094 0.307 0.303 0.63 0.606 0.938 0.906l0.031 0.031 0.031 0.031c0.313 0.308 0.625 0.632 0.938 0.938l0.063 0.063c0.326 0.331 0.643 0.672 0.969 1 0.31 0.305 0.628 0.603 0.938 0.906 0.026 0.026 0.037 0.068 0.063 0.094 0.309 0.304 0.629 0.604 0.938 0.906 0.005 0.005-0.005 0.026 0 0.031 0.02 0.02 0.043 0.042 0.063 0.063 0.309 0.304 0.629 0.604 0.938 0.906 0.026 0.026 0.037 0.068 0.063 0.094 0.307 0.303 0.63 0.606 0.938 0.906l0.031 0.031 0.031 0.031c0.313 0.308 0.625 0.632 0.938 0.938l0.063 0.063c0.326 0.331 0.643 0.672 0.969 1 0.31 0.305 0.628 0.603 0.938 0.906 0.026 0.026 0.037 0.068 0.063 0.094 0.309 0.304 0.629 0.604 0.938 0.906 0.005 0.005-0.005 0.026 0 0.031 0.02 0.02 0.043 0.042 0.063 0.063 0.309 0.304 0.629 0.604 0.938 0.906 0.026 0.026 0.037 0.068 0.063 0.094 0.307 0.303 0.63 0.606 0.938 0.906l0.031 0.031 0.031 0.031c0.313 0.308 0.625 0.632 0.938 0.938l0.063 0.063c0.326 0.331 0.643 0.672 0.969 1 0.31 0.305 0.628 0.603 0.938 0.906 0.026 0.026 0.037 0.068 0.063 0.094 0.309 0.304 0.629 0.604 0.938 0.906 0.005 0.005-0.005 0.026 0 0.031 0.02 0.02 0.043 0.042 0.063 0.063 0.309 0.304 0.629 0.604 0.938 0.906 0.005 0.005-0.005 0.026 0 0.031l0.063 0.063c0.307 0.303 0.63 0.606 0.938 0.906 0.026 0.026 0.037 0.068 0.063 0.094 0.307 0.303 0.63 0.606 0.938 0.906l0.031 0.031 0.031 0.031c0.313 0.308 0.625 0.632 0.938 0.938 0.016 0.016 0.016 0.047 0.031 0.063 0.2 0.198 0.394 0.397 0.594 0.594 0.134 0.136 0.272 0.271 0.406 0.406 0.31 0.305 0.628 0.603 0.938 0.906 0.026 0.026 0.037 0.068 0.063 0.094 0.309 0.304 0.629 0.604 0.938 0.906 0.005 0.005-0.005 0.026 0 0.031 0.02 0.02 0.043 0.042 0.063 0.063 0.307 0.303 0.63 0.606 0.938 0.906 0.026 0.026 0.037 0.068 0.063 0.094 0.307 0.303 0.63 0.606 0.938 0.906l0.031 0.031 0.031 0.031c0.313 0.308 0.625 0.632 0.938 0.938l0.063 0.063c0.326 0.331 0.643 0.672 0.969 1 0.31 0.305 0.628 0.603 0.938 0.906 0.026 0.026 0.037 0.068 0.063 0.094 0.309 0.304 0.629 0.604 0.938 0.906 0.005 0.005-0.005 0.026 0 0.031 0.02 0.02 0.043 0.042 0.063 0.063 0.309 0.304 0.629 0.604 0.938 0.906 0.026 0.026 0.037 0.068 0.063 0.094 0.307 0.303 0.63 0.606 0.938 0.906l0.031 0.031 0.031 0.031c0.313 0.308 0.625 0.632 0.938 0.938l0.063 0.063c0.326 0.331 0.643 0.672 0.969 1 0.31 0.305 0.628 0.603 0.938 0.906 0.026 0.026 0.037 0.068 0.063 0.094 0.309 0.304 0.629 0.604 0.938 0.906 0.005 0.005-0.005 0.026 0 0.031 0.02 0.02 0.043 0.042 0.063 0.063 0.309 0.304 0.629 0.604 0.938 0.906 0.005 0.005-0.005 0.026 0 0.031l0.063 0.063c0.307 0.303 0.63 0.606 0.938 0.906l0.031 0.031c0.015 0.016 0.016 0.047 0.031 0.063 0.307 0.303 0.63 0.606 0.938 0.906l0.063 0.063c0.326 0.331 0.643 0.672 0.969 1 0.31 0.305 0.628 0.603 0.938 0.906 0.026 0.026 0.037 0.068 0.063 0.094 0.31 0.305 0.628 0.603 0.938 0.906 0.026 0.026 0.037 0.068 0.063 0.094 0.309 0.304 0.629 0.604 0.938 0.906 0.005 0.005-0.005 0.026 0 0.031 0.02 0.02 0.043 0.042 0.063 0.063 0.307 0.303 0.63 0.606 0.938 0.906 0.026 0.026 0.037 0.068 0.063 0.094 0.307 0.303 0.63 0.606 0.938 0.906l0.031 0.031 0.031 0.031c0.313 0.308 0.625 0.632 0.938 0.938l0.063 0.063c0.326 0.331 0.643 0.672 0.969 1 0.31 0.305 0.628 0.603 0.938 0.906 0.026 0.026 0.037 0.068 0.063 0.094 0.309 0.304 0.629 0.604 0.938 0.906 0.005 0.005-0.005 0.026 0 0.031 0.02 0.02 0.043 0.042 0.063 0.063 0.309 0.304 0.629 0.604 0.938 0.906 0.026 0.026 0.037 0.068 0.063 0.094 0.307 0.303 0.63 0.606 0.938 0.906l0.031 0.031 0.031 0.031c0.313 0.308 0.625 0.632 0.938 0.938l0.063 0.063c0.326 0.331 0.643 0.672 0.969 1 0.31 0.305 0.628 0.603 0.938 0.906 0.026 0.026 0.037 0.068 0.063 0.094 0.309 0.304 0.629 0.604 0.938 0.906 0.005 0.005-0.005 0.026 0 0.031 0.02 0.02 0.043 0.042 0.063 0.063 0.309 0.304 0.629 0.604 0.938 0.906 0.026 0.026 0.037 0.068 0.063 0.094 0.307 0.303 0.63 0.606 0.938 0.906l0.031 0.031 0.031 0.031c0.313 0.308 0.625 0.632 0.938 0.938l0.063 0.063c0.326 0.331 0.643 0.672 0.969 1 0.31 0.305 0.628 0.603 0.938 0.906 0.026 0.026 0.037 0.068 0.063 0.094 0.309 0.304 0.629 0.604 0.938 0.906 0.005 0.005-0.005 0.026 0 0.031 0.02 0.02 0.043 0.042 0.063 0.063 0.309 0.304 0.629 0.604 0.938 0.906 0.005 0.005-0.005 0.026 0 0.031l0.063 0.063c0.307 0.303 0.63 0.606 0.938 0.906 0.026 0.026 0.037 0.068 0.063 0.094 0.307 0.303 0.63 0.606 0.938 0.906l0.063 0.063c0.313 0.308 0.625 0.632 0.938 0.938 0.016 0.016 0.016 0.047 0.031 0.063 0.31 0.305 0.628 0.603 0.938 0.906 0.026 0.026 0.037 0.068 0.063 0.094 0.31 0.305 0.628 0.603 0.938 0.906 0.026 0.026 0.037 0.068 0.063 0.094 0.309 0.304 0.629 0.604 0.938 0.906 0.005 0.005-0.005 0.026 0 0.031 0.02 0.02 0.043 0.042 0.063 0.063 0.307 0.303 0.63 0.606 0.938 0.906 0.026 0.026 0.037 0.068 0.063 0.094 0.307 0.303 0.63 0.606 0.938 0.906l0.031 0.031 0.031 0.031c0.313 0.308 0.625 0.632 0.938 0.938l0.063 0.063c0.326 0.331 0.643 0.672 0.969 1 0.31 0.305 0.628 0.603 0.938 0.906 0.026 0.026 0.037 0.068 0.063 0.094 0.309 0.304 0.629 0.604 0.938 0.906 0.005 0.005-0.005 0.026 0 0.031 0.02 0.02 0.043 0.042 0.063 0.063 0.309 0.304 0.629 0.604 0.938 0.906 0.026 0.026 0.037 0.068 0.063 0.094 0.307 0.303 0.63 0.606 0.938 0.906l0.031 0.031 0.031 0.031c0.313 0.308 0.625 0.632 0.938 0.938l0.063 0.063c0.326 0.331 0.643 0.672 0.969 1 0.31 0.305 0.628 0.603 0.938 0.906 0.026 0.026 0.037 0.068 0.063 0.094 0.309 0.304 0.629 0.604 0.938 0.906 0.005 0.005-0.005 0.026 0 0.031 0.02 0.02 0.043 0.042 0.063 0.063 0.309 0.304 0.629 0.604 0.938 0.906 0.005 0.005-0.005 0.026 0 0.031l0.063 0.063c0.307 0.303 0.63 0.606 0.938 0.906l0.031 0.031c0.015 0.016 0.016 0.047 0.031 0.063 0.307 0.303 0.63 0.606 0.938 0.906l0.063 0.063c0.326 0.331 0.643 0.672 0.969 1 0.31 0.305 0.628 0.603 0.938 0.906 0.026 0.026 0.037 0.068 0.063 0.094 0.31 0.305 0.628 0.603 0.938 0.906 0.026 0.026 0.037 0.068 0.063 0.094 0.309 0.304 0.629 0.604 0.938 0.906 0.005 0.005-0.005 0.026 0 0.031 0.02 0.02 0.043 0.042 0.063 0.063 0.307 0.303 0.63 0.606 0.938 0.906 0.026 0.026 0.037 0.068 0.063 0.094 0.307 0.303 0.63 0.606 0.938 0.906l0.031 0.031 0.031 0.031c0.313 0.308 0.625 0.632 0.938 0.938 0.016 0.016 0.016 0.047 0.031 0.063 0.2 0.198 0.394 0.397 0.594 0.594 0.134 0.136 0.272 0.271 0.406 0.406 0.31 0.305 0.628 0.603 0.938 0.906 0.026 0.026 0.037 0.068 0.063 0.094 0.309 0.304 0.629 0.604 0.938 0.906 0.005 0.005-0.005 0.026 0 0.031 0.02 0.02 0.043 0.042 0.063 0.063 0.307 0.303 0.63 0.606 0.938 0.906 0.026 0.026 0.037 0.068 0.063 0.094 0.307 0.303 0.63 0.606 0.938 0.906l0.031 0.031 0.031 0.031c0.313 0.308 0.625 0.632 0.938 0.938l0.063 0.063c0.326 0.331 0.643 0.672 0.969 1 0.31 0.305 0.628 0.603 0.938 0.906 0.026 0.026 0.037 0.068 0.063 0.094 0.309 0.304 0.629 0.604 0.938 0.906 0.005 0.005-0.005 0.026 0 0.031 0.02 0.02 0.043 0.042 0.063 0.063 0.309 0.304 0.629 0.604 0.938 0.906 0.026 0.026 0.037 0.068 0.063 0.094 0.307 0.303 0.63 0.606 0.938 0.906l0.031 0.031 0.031 0.031c0.313 0.308 0.625 0.632 0.938 0.938l0.063 0.063c0.326 0.331 0.643 0.672 0.969 1 0.31 0.305 0.628 0.603 0.938 0.906 0.026 0.026 0.037 0.068 0.063 0.094 0.309 0.304 0.629 0.604 0.938 0.906 0.005 0.005-0.005 0.026 0 0.031 0.02 0.02 0.043 0.042 0.063 0.063 0.309 0.304 0.629 0.604 0.938 0.906 0.005 0.005-0.005 0.026 0 0.031l0.063 0.063c0.307 0.303 0.63 0.606 0.938 0.906l0.031 0.031c0.015 0.016 0.016 0.047 0.031 0.063 0.307 0.303 0.63 0.606 0.938 0.906l0.063 0.063c0.326 0.331 0.643 0.672 0.969 1 0.31 0.305 0.628 0.603 0.938 0.906 0.026 0.026 0.037 0.068 0.063 0.094 0.31 0.305 0.628 0.603 0.938 0.906 0.026 0.026 0.037 0.068 0.063 0.094 0.309 0.304 0.629 0.604 0.938 0.906 0.005 0.005-0.005 0.026 0 0.031 0.02 0.02 0.043 0.042 0.063 0.063 0.307 0.303 0.63 0.606 0.938 0.906 0.026 0.026 0.037 0.068 0.063 0.094 0.307 0.303 0.63 0.606 0.938 0.906l0.031 0.031 0.031 0.031c0.313 0.308 0.625 0.632 0.938 0.938l0.063 0.063c0.326 0.331 0.643 0.672 0.969 1 0.31 0.305 0.628 0.603 0.938 0.906 0.026 0.026 0.037 0.068 0.063 0.094 0.309 0.304 0.629 0.604 0.938 0.906 0.005 0.005-0.005 0.026 0 0.031 0.02 0.02 0.043 0.042 0.063 0.063 0.309 0.304 0.629 0.604 0.938 0.906 0.026 0.026 0.037 0.068 0.063 0.094 0.307 0.303 0.63 0.606 0.938 0.906l0.031 0.031 0.031 0.031c0.313 0.308 0.625 0.632 0.938 0.938l0.063 0.063c0.119 0.121 0.226 0.253 0.344 0.375 110.38-9.313 197.44-100.53 200.19-212.66-0.395-0.399-0.786-0.798-1.188-1.188-0.053-0.052-0.103-0.104-0.156-0.156-0.273-0.284-0.538-0.564-0.813-0.844-0.136-0.136-0.27-0.272-0.406-0.406-0.37-0.373-0.753-0.728-1.125-1.094-0.333-0.335-0.665-0.671-1-1-0.496-0.499-0.969-1.015-1.469-1.5-0.335-0.333-0.664-0.642-1-0.969-0.053-0.052-0.103-0.104-0.156-0.156-0.273-0.284-0.538-0.564-0.813-0.844-0.136-0.136-0.27-0.272-0.406-0.406-0.37-0.373-0.753-0.728-1.125-1.094-0.333-0.335-0.665-0.671-1-1-0.496-0.499-0.969-1.015-1.469-1.5-0.335-0.333-0.664-0.642-1-0.969-0.053-0.052-0.103-0.104-0.156-0.156-0.452-0.459-0.888-0.928-1.344-1.375-0.155-0.16-0.313-0.31-0.469-0.469-0.136-0.136-0.27-0.272-0.406-0.406-0.37-0.373-0.753-0.728-1.125-1.094-0.333-0.335-0.665-0.671-1-1-0.493-0.496-0.972-0.986-1.469-1.469-0.053-0.052-0.103-0.104-0.156-0.156-0.452-0.459-0.888-0.928-1.344-1.375-0.155-0.16-0.313-0.31-0.469-0.469-0.136-0.136-0.27-0.272-0.406-0.406-0.37-0.373-0.753-0.728-1.125-1.094-0.333-0.335-0.665-0.671-1-1-0.334-0.336-0.664-0.67-1-1-0.493-0.496-0.972-0.986-1.469-1.469-0.053-0.052-0.103-0.104-0.156-0.156-0.273-0.284-0.538-0.564-0.813-0.844-0.136-0.136-0.27-0.272-0.406-0.406-0.37-0.373-0.753-0.728-1.125-1.094-0.333-0.335-0.665-0.671-1-1-0.496-0.499-0.969-1.015-1.469-1.5-0.335-0.333-0.664-0.642-1-0.969-0.053-0.052-0.103-0.104-0.156-0.156-0.452-0.459-0.888-0.928-1.344-1.375-0.328-0.33-0.67-0.644-1-0.969-0.334-0.336-0.664-0.67-1-1-0.332-0.334-0.666-0.672-1-1-0.493-0.496-0.972-0.986-1.469-1.469-0.053-0.052-0.103-0.104-0.156-0.156-0.452-0.459-0.888-0.928-1.344-1.375-0.155-0.16-0.313-0.31-0.469-0.469-0.136-0.136-0.27-0.272-0.406-0.406-0.37-0.373-0.753-0.728-1.125-1.094-0.333-0.335-0.665-0.671-1-1-0.334-0.336-0.664-0.67-1-1-0.493-0.496-0.972-0.986-1.469-1.469-0.053-0.052-0.103-0.104-0.156-0.156-0.273-0.284-0.538-0.564-0.813-0.844-0.136-0.136-0.27-0.272-0.406-0.406-0.37-0.373-0.753-0.728-1.125-1.094-0.333-0.335-0.665-0.671-1-1-0.496-0.499-0.969-1.015-1.469-1.5-0.335-0.333-0.664-0.642-1-0.969-0.053-0.052-0.103-0.104-0.156-0.156-0.273-0.284-0.538-0.564-0.813-0.844-0.136-0.136-0.27-0.272-0.406-0.406-0.37-0.373-0.753-0.728-1.125-1.094-0.333-0.335-0.665-0.671-1-1-0.496-0.499-0.969-1.015-1.469-1.5-0.335-0.333-0.664-0.642-1-0.969-0.053-0.052-0.103-0.104-0.156-0.156-0.452-0.459-0.888-0.928-1.344-1.375-0.328-0.33-0.67-0.644-1-0.969-0.334-0.336-0.664-0.67-1-1-0.332-0.334-0.666-0.672-1-1-0.493-0.496-0.972-0.986-1.469-1.469-0.053-0.052-0.103-0.104-0.156-0.156-0.452-0.459-0.888-0.928-1.344-1.375-0.155-0.16-0.313-0.31-0.469-0.469-0.136-0.136-0.27-0.272-0.406-0.406-0.37-0.373-0.753-0.728-1.125-1.094-0.333-0.335-0.665-0.671-1-1-0.334-0.336-0.664-0.67-1-1-0.493-0.496-0.972-0.986-1.469-1.469-0.053-0.052-0.103-0.104-0.156-0.156-0.273-0.284-0.538-0.564-0.813-0.844-0.136-0.136-0.27-0.272-0.406-0.406-0.37-0.373-0.753-0.728-1.125-1.094-0.333-0.335-0.665-0.671-1-1-0.496-0.499-0.969-1.015-1.469-1.5-0.335-0.333-0.664-0.642-1-0.969-0.053-0.052-0.103-0.104-0.156-0.156-0.452-0.459-0.888-0.928-1.344-1.375-0.328-0.33-0.67-0.644-1-0.969-0.334-0.336-0.664-0.67-1-1-0.332-0.334-0.666-0.672-1-1-0.493-0.496-0.972-0.986-1.469-1.469-0.053-0.052-0.103-0.104-0.156-0.156-0.452-0.459-0.888-0.928-1.344-1.375-0.155-0.16-0.313-0.31-0.469-0.469-0.136-0.136-0.27-0.272-0.406-0.406-0.37-0.373-0.753-0.728-1.125-1.094-0.333-0.335-0.665-0.671-1-1-0.334-0.336-0.664-0.67-1-1-0.493-0.496-0.972-0.986-1.469-1.469-0.053-0.052-0.103-0.104-0.156-0.156-0.273-0.284-0.538-0.564-0.813-0.844-0.136-0.136-0.27-0.272-0.406-0.406-0.37-0.373-0.753-0.728-1.125-1.094-0.333-0.335-0.665-0.671-1-1-0.496-0.499-0.969-1.015-1.469-1.5-0.335-0.333-0.664-0.642-1-0.969-0.053-0.052-0.103-0.104-0.156-0.156-0.273-0.284-0.538-0.564-0.813-0.844-0.136-0.136-0.27-0.272-0.406-0.406-0.37-0.373-0.753-0.728-1.125-1.094-0.333-0.335-0.665-0.671-1-1-0.158-0.163-0.31-0.338-0.469-0.5-0.338-0.336-0.66-0.671-1-1-21.402-21.29-46.655-29.726-72.66-29.625" fill-opacity="0.235" transform="translate(0,540.36)"/>
  <g id="g10" fill-rule="evenodd">
   <path id="path12" fill-opacity="0.067" d="m256 541.36c-140.83 0-255 114.17-255 255s114.17 255 255 255 255-114.17 255-255-114.17-255-255-255m8.827 44.931c120.9 0 218.9 98 218.9 218.9s-98 218.9-218.9 218.9-218.93-98-218.93-218.9 98.03-218.9 218.93-218.9"/>
   <g id="g14" fill-opacity="0.129">
    <path id="path16" d="m256 544.79c-138.94 0-251.57 112.63-251.57 251.57s112.63 251.54 251.57 251.54 251.57-112.6 251.57-251.54-112.63-251.57-251.57-251.57m5.885 38.556c120.9 0 218.9 98 218.9 218.9s-98 218.9-218.9 218.9-218.93-98-218.93-218.9 98.03-218.9 218.93-218.9"/>
    <path id="path18" d="m256 548.72c-136.77 0-247.64 110.87-247.64 247.64s110.87 247.64 247.64 247.64 247.64-110.87 247.64-247.64-110.87-247.64-247.64-247.64m2.942 31.691c120.9 0 218.9 98 218.9 218.9s-98 218.9-218.9 218.9-218.93-98-218.93-218.9 98.03-218.9 218.93-218.9"/>
   </g>
   <path id="path20" d="m253.04 548.22c-135.42 0-245.19 109.78-245.19 245.19 0 135.42 109.78 245.19 245.19 245.19 135.42 0 245.19-109.78 245.19-245.19 0-135.42-109.78-245.19-245.19-245.19zm0 26.297c120.9 0 218.9 98 218.9 218.9s-98 218.9-218.9 218.9-218.93-98-218.93-218.9 98.03-218.9 218.93-218.9z" stroke-opacity="0.31" stroke="#000" stroke-width="4.904" fill="#fff"/>
  </g>
  <path id="path68" fill="#fff" d="m299.52 669.51c-42.474 0.166-86.89 23.14-119.52 50.24-33 27.476-50.647 60.46-74.1 96.32l-9.57 19.769c83.55 89.41 169.7 97.24 217.64 68.3 33.29-20.1 52.16-48.49 62.24-84.74 8.175-29.398 13.539-63.944 10.147-103.41-23.937-33.775-54.834-46.61-86.84-46.49m-114.52 74.57h114.52c17.486 0 31.567 14.08 31.567 31.567v38.83c0 1.433-0.105 2.84-0.288 4.221v27.346h-32.538v-67.43c0-6.474-5.193-11.693-11.667-11.693s-11.693 5.219-11.693 11.693v67.43h-32.957v-67.43c0-6.474-5.219-11.693-11.694-11.693-6.474 0-11.693 5.219-11.693 11.693v67.43h-33.56z"/>
 </g>
</svg>
