<?xml version="1.0" encoding="UTF-8" standalone="no"?>
<svg
   xmlns:dc="http://purl.org/dc/elements/1.1/"
   xmlns:cc="http://creativecommons.org/ns#"
   xmlns:rdf="http://www.w3.org/1999/02/22-rdf-syntax-ns#"
   xmlns:svg="http://www.w3.org/2000/svg"
   xmlns="http://www.w3.org/2000/svg"
   xmlns:sodipodi="http://sodipodi.sourceforge.net/DTD/sodipodi-0.dtd"
   xmlns:inkscape="http://www.inkscape.org/namespaces/inkscape"
   height="512"
   viewBox="0 0 512 512"
   width="512"
   version="1.1"
   id="svg2"
   inkscape:version="0.91 r13725"
   sodipodi:docname="monkeystudio.svg">
  <defs
     id="defs17" />
  <sodipodi:namedview
     pagecolor="#ffffff"
     bordercolor="#666666"
     borderopacity="1"
     objecttolerance="10"
     gridtolerance="10"
     guidetolerance="10"
     inkscape:pageopacity="0"
     inkscape:pageshadow="2"
     inkscape:window-width="1920"
     inkscape:window-height="1027"
     id="namedview15"
     showgrid="false"
     inkscape:zoom="1.8519902"
     inkscape:cx="161.97303"
     inkscape:cy="185.10383"
     inkscape:window-x="0"
     inkscape:window-y="0"
     inkscape:window-maximized="1"
     inkscape:current-layer="svg2" />
  <metadata
     id="metadata28">
    <rdf:RDF>
      <cc:Work
         rdf:about="">
        <dc:format>image/svg+xml</dc:format>
        <dc:type
           rdf:resource="http://purl.org/dc/dcmitype/StillImage" />
        <dc:title></dc:title>
      </cc:Work>
    </rdf:RDF>
  </metadata>
  <path
     style="fill:#BF9E73;fill-rule:evenodd;fill-opacity:1"
     inkscape:connector-curvature="0"
     d="m 471.95,253.05 c 0,120.9 -98.01,218.9 -218.9,218.9 -120.9,0 -218.9,-98.01 -218.9,-218.9 0,-120.9 98.01,-218.9 218.9,-218.9 120.9,0 218.9,98.01 218.9,218.9"
     id="path6" />
  <path
     style="fill-opacity:0.06700003;fill-rule:evenodd"
     inkscape:connector-curvature="0"
     d="M 256,1 C 115.17,1 1,115.17 1,256 1,396.83 115.17,511 256,511 396.83,511 511,396.83 511,256 511,115.17 396.83,1 256,1 m 8.827,44.931 c 120.9,0 218.9,98 218.9,218.9 0,120.9 -98,218.9 -218.9,218.9 -120.9,0 -218.93,-98 -218.93,-218.9 0,-120.9 98.03,-218.9 218.93,-218.9"
     id="path8" />
  <g
     style="fill-opacity:0.12900002;fill-rule:evenodd"
     id="g10">
    <path
       inkscape:connector-curvature="0"
       d="m 256,4.433 c -138.94,0 -251.57,112.63 -251.57,251.57 0,138.94 112.63,251.57 251.57,251.57 138.94,0 251.57,-112.63 251.57,-251.57 C 507.57,117.063 394.94,4.433 256,4.433 m 5.885,38.556 c 120.9,0 218.9,98 218.9,218.9 0,120.9 -98,218.9 -218.9,218.9 -120.9,0 -218.93,-98 -218.93,-218.9 0,-120.9 98.03,-218.9 218.93,-218.9"
       id="path12" />
    <path
       inkscape:connector-curvature="0"
       d="m 256,8.356 c -136.77,0 -247.64,110.87 -247.64,247.64 0,136.77 110.87,247.64 247.64,247.64 136.77,0 247.64,-110.87 247.64,-247.64 C 503.64,119.226 392.77,8.356 256,8.356 m 2.942,31.691 c 120.9,0 218.9,98 218.9,218.9 0,120.9 -98,218.9 -218.9,218.9 -120.9,0 -218.93,-98 -218.93,-218.9 0,-120.9 98.03,-218.9 218.93,-218.9"
       id="path14" />
  </g>
  <path
     inkscape:connector-curvature="0"
     style="opacity:0.25"
     id="path4190"
     d="m 393.26958,165.14406 c 15.68668,12.8933 -47.48899,16.44326 -60.56375,2.71572 -80.22092,-40.16252 -152.54482,16.06888 -203.19641,54.77599 55.25417,61.81666 42.47854,40.80972 49.24054,58.52372 6.535,17.12 -5.12854,55.33826 2.75146,63.21626 l 131.76129,118.27231 c 143.08728,-11.95875 176.16108,-174.09542 160.81472,-209.799"
     sodipodi:nodetypes="ccccccc" />
  <path
     style="fill:#ffffff;fill-rule:evenodd;stroke:#000000;stroke-width:4.90399981;stroke-opacity:0.31000001"
     inkscape:connector-curvature="0"
     d="m 253.04,7.859 c -135.42,0 -245.19,109.78 -245.19,245.19 0,135.42 109.78,245.19 245.19,245.19 135.42,0 245.19,-109.78 245.19,-245.19 0,-135.42 -109.78,-245.19 -245.19,-245.19 z m 0,26.297 c 120.9,0 218.9,98 218.9,218.9 0,120.9 -98,218.9 -218.9,218.9 -120.9,0 -218.93,-98 -218.93,-218.9 0,-120.9 98.03,-218.9 218.93,-218.9 z"
     id="path16" />
  <g
     id="g4290"
     transform="matrix(1.1422055,0,0,1.1422055,-37.010474,-34.185267)">
    <path
       d="m 131.66731,190.1167 c 9.86078,-22.46503 30.53052,-35.13758 46.13782,-28.28693 15.60729,6.85065 20.27114,30.6431 10.41035,53.10813 -9.86078,22.46505 -12.87005,33.18925 -42.51275,21.19226 -15.7997,-6.39442 -23.89621,-23.54841 -14.03542,-46.01346 z"
       id="path1160"
       sodipodi:nodetypes="ccccc"
       style="opacity:1;fill:#ffffff;fill-opacity:1;fill-rule:nonzero;stroke:none;stroke-width:4.87587547;stroke-linecap:round;stroke-linejoin:round;stroke-miterlimit:4;stroke-dasharray:none;stroke-dashoffset:0;stroke-opacity:1"
       inkscape:connector-curvature="0" />
    <path
       id="path1162"
       d="m 388.8538,191.05239 c -9.86079,-22.46503 -30.53052,-35.13758 -46.13783,-28.28693 -15.60729,6.85066 -20.27113,30.6431 -10.41034,53.10813 9.86078,22.46505 12.87005,33.18925 42.51275,21.19226 15.7997,-6.39442 23.89621,-23.54841 14.03542,-46.01346 z"
       style="opacity:1;fill:#ffffff;fill-opacity:1;fill-rule:nonzero;stroke:none;stroke-width:4.87587547;stroke-linecap:round;stroke-linejoin:round;stroke-miterlimit:4;stroke-dasharray:none;stroke-dashoffset:0;stroke-opacity:1"
       inkscape:connector-curvature="0" />
    <path
       sodipodi:nodetypes="sccccsccccccccccccccc"
       inkscape:connector-curvature="0"
       id="path1159"
       d="m 258.38477,125.32617 c -53.13597,-7.4e-4 -96.2114,49.82719 -96.21094,111.29297 0.0387,16.24129 11.24926,58.19405 17.21463,72.89658 l 160.69436,0 c 5.96402,-14.70288 14.47349,-56.65562 14.51093,-72.89658 4.6e-4,-61.46489 -43.07377,-111.29246 -96.20898,-111.29297 z m 24.48828,78.89649 c 3.98802,0.001 7.22061,6.13511 7.2207,13.70117 -9e-5,7.56606 -3.23268,13.69985 -7.2207,13.70117 -3.98879,7.3e-4 -7.22257,-6.13365 -7.22266,-13.70117 9e-5,-7.56752 3.23387,-13.7019 7.22266,-13.70117 z m -51.93555,0.35937 c 3.87314,-0.1542 7.25742,5.89642 7.55859,13.51367 0.30131,7.61651 -2.59399,13.91517 -6.46679,14.06836 -3.87314,0.15421 -7.25743,-5.89641 -7.5586,-13.51367 -0.30131,-7.61651 2.59399,-13.91518 6.4668,-14.06836 z m 26.99609,41.64063 c 9.22442,-1e-4 16.70256,3.65939 16.70313,8.17382 0.002,4.5152 -7.47713,8.17589 -16.70313,8.17579 -9.22599,10e-5 -16.70478,-3.6606 -16.70312,-8.17579 5.7e-4,-4.51442 7.4787,-8.17392 16.70312,-8.17382 z"
       style="fill:#ffffff;fill-opacity:1;fill-rule:nonzero;stroke:none;stroke-width:4.87487745;stroke-linecap:round;stroke-linejoin:round;stroke-miterlimit:4;stroke-dashoffset:0;stroke-opacity:1" />
    <path
       inkscape:connector-curvature="0"
       id="path4251"
       d="m 185.01927,274.67383 c -4.64057,5.28482 -8.90379,14.01497 -7.51368,27.91602 3.74279,37.4278 43.72023,53.2158 86.08399,52.86523 35.60459,-0.27303 76.19353,-17.30993 76.72657,-50.99414 0.2251,-17.51503 -2.87718,-25.16225 -7.05079,-29.78711 l -148.24609,0 z m 14.36914,28.19532 120.44922,0.75 c -32.11972,31.52566 -97.30412,24.39547 -120.44922,-0.75 z"
       style="fill:#ffffff;fill-opacity:1;fill-rule:evenodd;stroke:none;stroke-width:3.24991846;stroke-linecap:butt;stroke-linejoin:miter;stroke-miterlimit:4;stroke-opacity:1" />
  </g>
</svg>
