<?xml version="1.0" encoding="UTF-8" standalone="no"?>
<svg
   xmlns:dc="http://purl.org/dc/elements/1.1/"
   xmlns:cc="http://creativecommons.org/ns#"
   xmlns:rdf="http://www.w3.org/1999/02/22-rdf-syntax-ns#"
   xmlns:svg="http://www.w3.org/2000/svg"
   xmlns="http://www.w3.org/2000/svg"
   xmlns:sodipodi="http://sodipodi.sourceforge.net/DTD/sodipodi-0.dtd"
   xmlns:inkscape="http://www.inkscape.org/namespaces/inkscape"
   height="512"
   viewBox="0 0 512 512"
   width="512"
   version="1.1"
   id="svg2"
   inkscape:version="0.91 r13725"
   sodipodi:docname="mousepad.svg">
  <defs
     id="defs15" />
  <sodipodi:namedview
     pagecolor="#ffffff"
     bordercolor="#666666"
     borderopacity="1"
     objecttolerance="10"
     gridtolerance="10"
     guidetolerance="10"
     inkscape:pageopacity="0"
     inkscape:pageshadow="2"
     inkscape:window-width="1680"
     inkscape:window-height="1021"
     id="namedview13"
     showgrid="false"
     inkscape:zoom="1.0796499"
     inkscape:cx="415.17909"
     inkscape:cy="148.31974"
     inkscape:window-x="1920"
     inkscape:window-y="0"
     inkscape:window-maximized="1"
     inkscape:current-layer="svg2" />
  <metadata
     id="metadata72">
    <rdf:RDF>
      <cc:Work
         rdf:about="">
        <dc:format>image/svg+xml</dc:format>
        <dc:type
           rdf:resource="http://purl.org/dc/dcmitype/StillImage" />
        <dc:title></dc:title>
      </cc:Work>
    </rdf:RDF>
  </metadata>
  <path
     style="fill:#BF9E73;fill-rule:evenodd"
     inkscape:connector-curvature="0"
     d="m 471.95,253.05 c 0,120.9 -98.01,218.9 -218.9,218.9 -120.9,0 -218.9,-98.01 -218.9,-218.9 0,-120.9 98.01,-218.9 218.9,-218.9 120.9,0 218.9,98.01 218.9,218.9"
     id="path6" />
  <path
     style="opacity:0.25;fill:#000000;fill-opacity:1;fill-rule:evenodd;stroke:none;stroke-width:1px;stroke-linecap:butt;stroke-linejoin:miter;stroke-opacity:1"
     d="M 343.84394,77.283019 461.73329,178.63511 c 22.58463,56.0492 8.96549,128.82229 -15.06364,181.41862 -36.30331,52.17128 -70.31087,105.35425 -206.96131,113.30476 l -79.90278,-56.97985 5.89447,-8.51423 -21.94052,-16.70099 38.96898,-78.26544 -119.5267,-88.74448 72.37096,35.69428 54.36009,42.57115 17.02847,-7.85929 -99.71474,-73.68084 31.60089,-39.62392 128.3684,-45.84586 8.5961,-36.021753 39.21458,35.366813 -14.4087,-30.12728 4.01152,-18.17461 52.31339,40.44259 z"
     id="path4203"
     inkscape:connector-curvature="0"
     sodipodi:nodetypes="ccccccccccccccccccccc" />
  <path
     style="fill:#ffffff;fill-rule:evenodd;stroke:#ffffff;stroke-width:2.82399988"
     inkscape:connector-curvature="0"
     d="m 338.07281,220.97973 c -1.37,0.046 -2.869,0.373 -4.531,1.031 -13.1,4.876 -2.41,33.93 -1.563,37.688 0.782,3.459 -5.849,3.081 -7.094,1.563 -2.779,-3.394 -11.958,-33.691 -22.781,-28.28 -15.18,8.369 -0.91,34.496 -3.938,35.34 -5.624,3.143 -5.273,10.839 -9.781,17.09 -7.434,10.654 -63.08,-5.04 -81.06,-6.125 -13.164,-0.777 -25.749,10.06 -26.938,8.688 -16.03,-16.05 -50.212,-39.7132 -85.499999,-53.28 -14.509491,-4.7431 -43.788188,-18.43825 -25.962575,-9.24903 6.488335,3.24934 12.173774,5.993 26.032245,13.85013 22.157169,10.49632 82.799999,50.612 79.029999,56.47 -11.296,15.91 -18.60567,36.5599 -14.00767,69.1509 0.829,5.737 -17.02,15.687 -15.719,24.344 1.085,6.587 19.939,-6.527 22,-3.938 1.261,4.648 -10.08,28.19 -5.5,29.875 3.353,0.996 32.85,-27.984 34.563,-27.5 48.612,14.696 111.84,3.622 113.06,3.156 -0.115,-0.255 45.534,21.438 49.5,18.844 10,-10.832 -18.985,-26.09 -14.156,-32.19 2.117,-3.193 35.27,11.957 36.906,7.813 2.377,-7.174 -15.389,-22.19 -18.06,-26.656 -2.325,-4.115 -2.807,-10.811 3.156,-14.969 5.965,-4.158 66.964,-27.446 64.41,-45.5 -4.422,-32.804 -77.39,-34.989 -78.56,-37.75 -0.51,-1.196 2.67,-40.01 -13.5,-39.469 z m 75.969,21.75 c -1.214,0.524 -6.118,25.755 -3.75,26.906 2.099,1.57 5.729,-25.479 3.813,-26.875 -0.031,-0.036 -0.023,-0.048 -0.063,-0.031 z m 18,3.438 c -2.753,-0.05 -17.444,23.402 -14.06,25.906 2.099,1.57 15.181,-24.956 14.281,-25.844 -0.063,-0.052 -0.13,-0.061 -0.219,-0.063 z"
     id="path10"
     sodipodi:nodetypes="ccccccccccccccccccccccccccccccccccccc" />
  <path
     style="fill-opacity:0.06700003;fill-rule:evenodd"
     inkscape:connector-curvature="0"
     d="M 256,1 C 115.17,1 1,115.17 1,256 1,396.83 115.17,511 256,511 396.83,511 511,396.83 511,256 511,115.17 396.83,1 256,1 m 8.827,44.931 c 120.9,0 218.9,98 218.9,218.9 0,120.9 -98,218.9 -218.9,218.9 -120.9,0 -218.93,-98 -218.93,-218.9 0,-120.9 98.03,-218.9 218.93,-218.9"
     id="path12" />
  <g
     style="fill-opacity:0.12900002;fill-rule:evenodd"
     id="g14">
    <path
       inkscape:connector-curvature="0"
       d="m 256,4.433 c -138.94,0 -251.57,112.63 -251.57,251.57 0,138.94 112.63,251.57 251.57,251.57 138.94,0 251.57,-112.63 251.57,-251.57 C 507.57,117.063 394.94,4.433 256,4.433 m 5.885,38.556 c 120.9,0 218.9,98 218.9,218.9 0,120.9 -98,218.9 -218.9,218.9 -120.9,0 -218.93,-98 -218.93,-218.9 0,-120.9 98.03,-218.9 218.93,-218.9"
       id="path16" />
    <path
       inkscape:connector-curvature="0"
       d="m 256,8.356 c -136.77,0 -247.64,110.87 -247.64,247.64 0,136.77 110.87,247.64 247.64,247.64 136.77,0 247.64,-110.87 247.64,-247.64 C 503.64,119.226 392.77,8.356 256,8.356 m 2.942,31.691 c 120.9,0 218.9,98 218.9,218.9 0,120.9 -98,218.9 -218.9,218.9 -120.9,0 -218.93,-98 -218.93,-218.9 0,-120.9 98.03,-218.9 218.93,-218.9"
       id="path18" />
  </g>
  <path
     style="fill:#ffffff;fill-rule:evenodd;stroke:#000000;stroke-width:4.90399981;stroke-opacity:0.31000001"
     inkscape:connector-curvature="0"
     d="m 253.04,7.859 c -135.42,0 -245.19,109.78 -245.19,245.19 0,135.42 109.78,245.19 245.19,245.19 135.42,0 245.19,-109.78 245.19,-245.19 0,-135.42 -109.78,-245.19 -245.19,-245.19 z m 0,26.297 c 120.9,0 218.9,98 218.9,218.9 0,120.9 -98,218.9 -218.9,218.9 -120.9,0 -218.93,-98 -218.93,-218.9 0,-120.9 98.03,-218.9 218.93,-218.9 z"
     id="path20" />
  <g
     id="g4172"
     transform="matrix(1.3658533,0.52139307,-0.52139307,1.3658533,0.03203127,-134.70344)">
    <path
       inkscape:connector-curvature="0"
       d="m 233.26664,82.196556 -57.65575,57.655754 -7.08672,7.08672 -1.80328,1.80328 -14.38391,45.08484 a 5.8685216,6.5382457 45 0 0 1.88803,6.49364 5.8685216,6.5382457 45 0 0 5.26618,0.71119 l 45.7191,-14.42967 1.48987,-1.48986 6.88597,-6.88598 57.86165,-57.86164 -38.17542,-38.175424 m -38.09935,76.758044 a 1.637707,1.637707 0 0 1 0.55879,1.30388 l -0.63483,13.65642 2.49759,2.4976 a 1.637707,1.637707 0 0 1 -0.73658,2.73471 l -21.56443,5.76501 a 1.637707,1.637707 0 0 1 -1.58326,-0.41486 l -4.18249,-4.18249 a 1.637707,1.637707 0 0 1 -0.42332,-1.60865 l 6.2906,-22.15694 a 1.637707,1.637707 0 0 1 2.73472,-0.71966 l 3.3612,3.36121 12.52173,-0.63484 a 1.637707,1.637707 0 0 1 1.15992,0.39793"
       id="path22"
       style="fill:#ffffff;fill-rule:evenodd" />
    <path
       inkscape:connector-curvature="0"
       d="m 267.87954,51.135309 c -2.18075,-0.04804 -4.04351,0.532462 -5.36466,1.810714 l -0.0675,0.06749 -8.93575,8.952341 38.17942,38.179416 8.81737,-8.833951 0.13554,-0.11839 c 0.02,-0.02 0.0309,-0.0475 0.0509,-0.0675 4.14989,-4.27457 0.97857,-14.20147 -7.15878,-22.33939 l -8.66466,-8.664663 c -5.62145,-5.62145 -12.11337,-8.879134 -16.99132,-8.986084"
       id="path24"
       style="fill:#ffffff;fill-rule:evenodd" />
    <path
       inkscape:connector-curvature="0"
       d="m 248.55991,66.908998 38.18,38.179992 -9.45507,9.45507 -38.17999,-38.179994 z"
       id="path26"
       style="fill:#ffffff;fill-rule:evenodd" />
  </g>
</svg>
