<?xml version="1.0" encoding="UTF-8" standalone="no"?>
<svg xmlns="http://www.w3.org/2000/svg" height="512" viewBox="0 0 512 512" width="512" version="1.1">
 <metadata id="metadata78"/>
 <g id="g4" transform="translate(0,-540.36)">
  <g id="g6" fill-rule="evenodd">
   <path id="path8" d="m562.86-316.57c0 198.82-161.18 360-360 360s-360-161.18-360-360 161.18-360 360-360 360 161.18 360 360" fill="#BF9E73" transform="matrix(.63719 0 0 .63719 126.15 998.46)"/>
   <path id="path10" d="m562.86-316.57c0 198.82-161.18 360-360 360s-360-161.18-360-360 161.18-360 360-360 360 161.18 360 360" fill="#BF9E73" transform="matrix(.4805 0 0 .4805 169.48 933.47)"/>
   <g id="g12" transform="translate(0,540.36)">
    <path id="path14" fill-opacity="0.235" d="m256 145.84c-60.839 0-110.16 49.32-110.16 110.16 0 30.903 12.724 58.84 33.22 78.84l0.031 0.031c0.3 0.292 0.603 0.586 0.906 0.875 0.016 0.016 0.016 0.047 0.031 0.063l0.063 0.063c0.297 0.29 0.606 0.589 0.906 0.875 0.256 0.257 0.491 0.527 0.75 0.781 0.114 0.115 0.23 0.23 0.344 0.344 0.292 0.284 0.58 0.563 0.875 0.844 0.046 0.047 0.079 0.109 0.125 0.156 0.011 0.01 0.021 0.021 0.031 0.031 0.626 0.641 1.265 1.281 1.906 1.906l0.031 0.031c0.3 0.292 0.603 0.586 0.906 0.875 0.016 0.016 0.016 0.047 0.031 0.063l0.063 0.063c0.297 0.29 0.606 0.589 0.906 0.875 0.202 0.203 0.39 0.424 0.594 0.625 0.383 0.388 0.767 0.774 1.156 1.156 0.114 0.115 0.23 0.23 0.344 0.344 0.292 0.284 0.58 0.563 0.875 0.844 0.046 0.047 0.079 0.109 0.125 0.156 0.011 0.01 0.021 0.021 0.031 0.031 0.626 0.641 1.265 1.281 1.906 1.906l0.031 0.031c0.3 0.292 0.603 0.586 0.906 0.875 0.016 0.016 0.016 0.047 0.031 0.063 0.135 0.135 0.271 0.272 0.406 0.406 0.436 0.443 0.869 0.877 1.313 1.313 0.114 0.115 0.23 0.23 0.344 0.344 0.292 0.284 0.58 0.563 0.875 0.844 0.046 0.047 0.079 0.109 0.125 0.156 0.011 0.01 0.021 0.021 0.031 0.031 0.626 0.641 1.265 1.281 1.906 1.906l0.031 0.031c0.3 0.292 0.603 0.586 0.906 0.875 0.016 0.016 0.016 0.047 0.031 0.063 0.135 0.135 0.271 0.272 0.406 0.406 0.436 0.443 0.869 0.877 1.313 1.313 0.114 0.115 0.23 0.23 0.344 0.344 0.292 0.284 0.58 0.563 0.875 0.844 0.046 0.047 0.079 0.109 0.125 0.156 0.011 0.01 0.021 0.021 0.031 0.031 0.626 0.641 1.265 1.281 1.906 1.906l0.031 0.031c0.3 0.292 0.603 0.586 0.906 0.875 0.016 0.016 0.016 0.047 0.031 0.063l0.063 0.063c0.297 0.29 0.606 0.589 0.906 0.875 0.256 0.257 0.491 0.527 0.75 0.781 0.114 0.115 0.23 0.23 0.344 0.344 0.292 0.284 0.58 0.563 0.875 0.844 0.02 0.021 0.042 0.042 0.063 0.063 0.026 0.026 0.036 0.067 0.063 0.094 0.292 0.284 0.58 0.563 0.875 0.844 0.021 0.021 0.042 0.041 0.063 0.063 0.026 0.026 0.036 0.068 0.063 0.094 0.292 0.284 0.58 0.563 0.875 0.844 0.016 0.016 0.016 0.047 0.031 0.063l0.063 0.063c0.302 0.295 0.601 0.584 0.906 0.875 0.016 0.016 0.016 0.047 0.031 0.063l0.063 0.063c0.297 0.29 0.606 0.589 0.906 0.875 0.202 0.203 0.39 0.424 0.594 0.625 0.383 0.388 0.767 0.774 1.156 1.156 0.114 0.115 0.23 0.23 0.344 0.344 0.292 0.284 0.58 0.563 0.875 0.844 0.046 0.047 0.079 0.109 0.125 0.156 0.011 0.01 0.021 0.021 0.031 0.031 0.626 0.641 1.265 1.281 1.906 1.906l0.031 0.031c0.3 0.292 0.603 0.586 0.906 0.875 0.016 0.016 0.016 0.047 0.031 0.063 0.135 0.135 0.271 0.272 0.406 0.406 0.436 0.443 0.869 0.877 1.313 1.313 0.114 0.115 0.23 0.23 0.344 0.344 0.292 0.284 0.58 0.563 0.875 0.844 0.046 0.047 0.079 0.109 0.125 0.156 0.011 0.01 0.021 0.021 0.031 0.031 0.626 0.641 1.265 1.281 1.906 1.906l0.031 0.031c0.3 0.292 0.603 0.586 0.906 0.875 0.016 0.016 0.016 0.047 0.031 0.063 0.135 0.135 0.271 0.272 0.406 0.406 0.436 0.443 0.869 0.877 1.313 1.313 0.114 0.115 0.23 0.23 0.344 0.344 0.292 0.284 0.58 0.563 0.875 0.844 0.046 0.047 0.079 0.109 0.125 0.156 0.011 0.01 0.021 0.021 0.031 0.031 0.626 0.641 1.265 1.281 1.906 1.906l0.031 0.031c0.3 0.292 0.603 0.586 0.906 0.875 0.016 0.016 0.016 0.047 0.031 0.063l0.063 0.063c0.297 0.29 0.606 0.589 0.906 0.875 0.202 0.203 0.39 0.424 0.594 0.625 0.383 0.388 0.767 0.774 1.156 1.156 0.114 0.115 0.23 0.23 0.344 0.344 0.292 0.284 0.58 0.563 0.875 0.844 0.021 0.021 0.042 0.041 0.063 0.063 0.026 0.026 0.036 0.068 0.063 0.094 0.292 0.284 0.58 0.563 0.875 0.844 0.016 0.016 0.016 0.047 0.031 0.063l0.063 0.063c0.302 0.295 0.601 0.584 0.906 0.875 0.016 0.016 0.016 0.047 0.031 0.063l0.063 0.063c0.297 0.29 0.606 0.589 0.906 0.875 0.016 0.016 0.016 0.047 0.031 0.063 0.135 0.135 0.271 0.272 0.406 0.406 0.436 0.443 0.869 0.877 1.313 1.313 0.114 0.115 0.23 0.23 0.344 0.344 0.292 0.284 0.58 0.563 0.875 0.844 0.046 0.047 0.079 0.109 0.125 0.156 0.011 0.01 0.021 0.021 0.031 0.031 0.626 0.641 1.265 1.281 1.906 1.906l0.031 0.031c0.3 0.292 0.603 0.586 0.906 0.875 0.016 0.016 0.016 0.047 0.031 0.063 0.135 0.135 0.271 0.272 0.406 0.406 0.436 0.443 0.869 0.877 1.313 1.313 0.114 0.115 0.23 0.23 0.344 0.344 0.292 0.284 0.58 0.563 0.875 0.844 0.046 0.047 0.079 0.109 0.125 0.156 0.011 0.01 0.021 0.021 0.031 0.031 0.626 0.641 1.265 1.281 1.906 1.906l0.031 0.031c0.3 0.292 0.603 0.586 0.906 0.875 0.016 0.016 0.016 0.047 0.031 0.063l0.063 0.063c0.297 0.29 0.606 0.589 0.906 0.875 0.256 0.257 0.491 0.527 0.75 0.781 0.114 0.115 0.23 0.23 0.344 0.344 0.292 0.284 0.58 0.563 0.875 0.844 0.046 0.047 0.079 0.109 0.125 0.156 0.011 0.01 0.021 0.021 0.031 0.031 0.626 0.641 1.265 1.281 1.906 1.906l0.031 0.031c0.3 0.292 0.603 0.586 0.906 0.875 0.016 0.016 0.016 0.047 0.031 0.063l0.063 0.063c0.297 0.29 0.606 0.589 0.906 0.875 0.202 0.203 0.39 0.424 0.594 0.625 0.383 0.388 0.767 0.774 1.156 1.156 0.114 0.115 0.23 0.23 0.344 0.344 0.292 0.284 0.58 0.563 0.875 0.844 0.046 0.047 0.079 0.109 0.125 0.156 0.011 0.01 0.021 0.021 0.031 0.031 0.626 0.641 1.265 1.281 1.906 1.906l0.031 0.031c0.3 0.292 0.603 0.586 0.906 0.875 0.016 0.016 0.016 0.047 0.031 0.063 0.135 0.135 0.271 0.272 0.406 0.406 0.436 0.443 0.869 0.877 1.313 1.313 0.114 0.115 0.23 0.23 0.344 0.344 0.292 0.284 0.58 0.563 0.875 0.844 0.046 0.047 0.079 0.109 0.125 0.156 0.011 0.01 0.021 0.021 0.031 0.031 0.626 0.641 1.265 1.281 1.906 1.906l0.031 0.031c0.3 0.292 0.603 0.586 0.906 0.875 0.016 0.016 0.016 0.047 0.031 0.063 0.135 0.135 0.271 0.272 0.406 0.406 0.436 0.443 0.869 0.877 1.313 1.313 0.114 0.115 0.23 0.23 0.344 0.344 0.292 0.284 0.58 0.563 0.875 0.844 0.046 0.047 0.079 0.109 0.125 0.156 0.011 0.01 0.021 0.021 0.031 0.031 0.626 0.641 1.265 1.281 1.906 1.906l0.031 0.031c0.3 0.292 0.603 0.586 0.906 0.875 0.016 0.016 0.016 0.047 0.031 0.063l0.063 0.063c0.297 0.29 0.606 0.589 0.906 0.875 0.202 0.203 0.39 0.424 0.594 0.625 0.383 0.388 0.767 0.774 1.156 1.156 0.114 0.115 0.23 0.23 0.344 0.344 0.292 0.284 0.58 0.563 0.875 0.844 0.021 0.021 0.042 0.041 0.063 0.063 0.026 0.026 0.036 0.068 0.063 0.094 0.292 0.284 0.58 0.563 0.875 0.844 0.016 0.016 0.016 0.047 0.031 0.063l0.063 0.063c0.302 0.295 0.601 0.584 0.906 0.875 0.016 0.016 0.016 0.047 0.031 0.063l0.063 0.063c0.297 0.29 0.606 0.589 0.906 0.875 0.016 0.016 0.016 0.047 0.031 0.063 0.135 0.135 0.271 0.272 0.406 0.406 0.436 0.443 0.869 0.877 1.313 1.313 0.114 0.115 0.23 0.23 0.344 0.344 0.292 0.284 0.58 0.563 0.875 0.844 0.046 0.047 0.079 0.109 0.125 0.156 0.011 0.01 0.021 0.021 0.031 0.031 0.626 0.641 1.265 1.281 1.906 1.906l0.031 0.031c0.3 0.292 0.603 0.586 0.906 0.875 0.016 0.016 0.016 0.047 0.031 0.063 0.135 0.135 0.271 0.272 0.406 0.406 0.436 0.443 0.869 0.877 1.313 1.313 0.114 0.115 0.23 0.23 0.344 0.344 0.292 0.284 0.58 0.563 0.875 0.844 0.046 0.047 0.079 0.109 0.125 0.156 0.011 0.01 0.021 0.021 0.031 0.031 0.626 0.641 1.265 1.281 1.906 1.906l0.031 0.031c0.3 0.292 0.603 0.586 0.906 0.875 0.016 0.016 0.016 0.047 0.031 0.063l0.063 0.063c0.297 0.29 0.606 0.589 0.906 0.875 0.256 0.257 0.491 0.527 0.75 0.781 0.114 0.115 0.23 0.23 0.344 0.344 0.292 0.284 0.58 0.563 0.875 0.844 0.046 0.047 0.079 0.109 0.125 0.156 0.011 0.01 0.021 0.021 0.031 0.031 0.626 0.641 1.265 1.281 1.906 1.906l0.031 0.031c0.3 0.292 0.603 0.586 0.906 0.875 0.016 0.016 0.016 0.047 0.031 0.063l0.063 0.063c0.297 0.29 0.606 0.589 0.906 0.875 0.202 0.203 0.39 0.424 0.594 0.625 0.383 0.388 0.767 0.774 1.156 1.156 0.114 0.115 0.23 0.23 0.344 0.344 0.292 0.284 0.58 0.563 0.875 0.844 0.046 0.047 0.079 0.109 0.125 0.156 0.011 0.01 0.021 0.021 0.031 0.031 0.626 0.641 1.265 1.281 1.906 1.906l0.031 0.031c0.3 0.292 0.603 0.586 0.906 0.875 0.016 0.016 0.016 0.047 0.031 0.063 0.135 0.135 0.271 0.272 0.406 0.406 0.436 0.443 0.869 0.877 1.313 1.313 0.114 0.115 0.23 0.23 0.344 0.344 0.292 0.284 0.58 0.563 0.875 0.844 0.046 0.047 0.079 0.109 0.125 0.156 0.011 0.01 0.021 0.021 0.031 0.031 0.626 0.641 1.265 1.281 1.906 1.906l0.031 0.031c0.3 0.292 0.603 0.586 0.906 0.875 0.016 0.016 0.016 0.047 0.031 0.063 0.135 0.135 0.271 0.272 0.406 0.406 0.436 0.443 0.869 0.877 1.313 1.313 0.114 0.115 0.23 0.23 0.344 0.344 0.292 0.284 0.58 0.563 0.875 0.844 0.046 0.047 0.079 0.109 0.125 0.156 0.011 0.01 0.021 0.021 0.031 0.031 0.626 0.641 1.265 1.281 1.906 1.906l0.031 0.031c0.3 0.292 0.603 0.586 0.906 0.875 0.016 0.016 0.016 0.047 0.031 0.063l0.063 0.063c0.297 0.29 0.606 0.589 0.906 0.875 0.256 0.257 0.491 0.527 0.75 0.781 0.114 0.115 0.23 0.23 0.344 0.344 0.292 0.284 0.58 0.563 0.875 0.844 0.02 0.021 0.042 0.042 0.063 0.063 0.026 0.026 0.036 0.067 0.063 0.094 0.064 0.062 0.124 0.126 0.188 0.188 74.78-22.12 133.63-81.32 155.25-156.31-0.08-0.086-0.168-0.165-0.25-0.25-0.1-0.096-0.212-0.186-0.313-0.281-0.403-0.414-0.81-0.811-1.219-1.219-0.181-0.19-0.38-0.374-0.563-0.563-0.111-0.109-0.201-0.235-0.313-0.344-0.036-0.036-0.089-0.057-0.125-0.094-0.182-0.191-0.379-0.373-0.563-0.563-0.011-0.01-0.021-0.021-0.031-0.031-0.053-0.051-0.103-0.105-0.156-0.156-0.048-0.047-0.077-0.11-0.125-0.156-0.646-0.662-1.307-1.323-1.969-1.969-0.046-0.048-0.11-0.077-0.156-0.125-0.163-0.171-0.335-0.33-0.5-0.5-0.085-0.081-0.165-0.169-0.25-0.25-0.697-0.717-1.378-1.427-2.094-2.125-0.037-0.037-0.088-0.057-0.125-0.094-0.182-0.191-0.379-0.373-0.563-0.563-0.011-0.01-0.021-0.021-0.031-0.031-0.053-0.051-0.103-0.105-0.156-0.156-0.048-0.047-0.077-0.11-0.125-0.156-0.646-0.662-1.307-1.323-1.969-1.969-0.046-0.048-0.11-0.077-0.156-0.125-0.092-0.096-0.189-0.185-0.281-0.281-0.09-0.087-0.16-0.195-0.25-0.281-0.104-0.102-0.208-0.211-0.313-0.313-0.661-0.679-1.321-1.339-2-2-0.037-0.037-0.088-0.057-0.125-0.094-0.182-0.191-0.379-0.373-0.563-0.563-0.011-0.01-0.021-0.021-0.031-0.031-0.053-0.051-0.103-0.105-0.156-0.156-0.048-0.047-0.077-0.11-0.125-0.156-0.646-0.662-1.307-1.323-1.969-1.969-0.046-0.048-0.11-0.077-0.156-0.125-0.092-0.096-0.189-0.185-0.281-0.281-0.09-0.087-0.16-0.195-0.25-0.281-0.104-0.102-0.208-0.211-0.313-0.313-0.495-0.507-0.996-1-1.5-1.5-0.201-0.204-0.422-0.391-0.625-0.594-0.181-0.19-0.38-0.374-0.563-0.563-0.111-0.109-0.201-0.235-0.313-0.344-0.036-0.036-0.089-0.057-0.125-0.094-0.182-0.191-0.379-0.373-0.563-0.563-0.011-0.01-0.021-0.021-0.031-0.031-0.053-0.051-0.103-0.105-0.156-0.156-0.048-0.047-0.077-0.11-0.125-0.156-0.646-0.662-1.307-1.323-1.969-1.969-0.046-0.048-0.11-0.077-0.156-0.125-0.163-0.171-0.335-0.33-0.5-0.5-0.085-0.081-0.165-0.169-0.25-0.25-0.697-0.717-1.378-1.427-2.094-2.125-0.037-0.037-0.088-0.057-0.125-0.094-0.182-0.191-0.379-0.373-0.563-0.563-0.011-0.01-0.021-0.021-0.031-0.031-0.053-0.051-0.103-0.105-0.156-0.156-0.048-0.047-0.077-0.11-0.125-0.156-0.646-0.662-1.307-1.323-1.969-1.969-0.046-0.048-0.11-0.077-0.156-0.125-0.163-0.171-0.335-0.33-0.5-0.5-0.085-0.081-0.165-0.169-0.25-0.25-0.697-0.717-1.378-1.427-2.094-2.125-0.037-0.037-0.088-0.057-0.125-0.094-0.182-0.191-0.379-0.373-0.563-0.563-0.011-0.01-0.021-0.021-0.031-0.031-0.053-0.051-0.103-0.105-0.156-0.156-0.048-0.047-0.077-0.11-0.125-0.156-0.646-0.662-1.307-1.323-1.969-1.969-0.046-0.048-0.11-0.077-0.156-0.125-0.092-0.096-0.189-0.185-0.281-0.281-0.09-0.087-0.16-0.195-0.25-0.281-0.104-0.102-0.208-0.211-0.313-0.313-0.495-0.507-0.996-1-1.5-1.5-0.201-0.204-0.422-0.391-0.625-0.594-0.181-0.19-0.38-0.374-0.563-0.563-0.111-0.109-0.201-0.235-0.313-0.344-0.036-0.036-0.089-0.057-0.125-0.094-0.184-0.193-0.377-0.371-0.563-0.563-0.011-0.01-0.021-0.021-0.031-0.031-0.053-0.051-0.103-0.105-0.156-0.156-0.048-0.047-0.077-0.11-0.125-0.156-0.036-0.037-0.089-0.057-0.125-0.094-0.056-0.059-0.1-0.129-0.156-0.188-0.128-0.124-0.247-0.252-0.375-0.375-0.106-0.104-0.207-0.209-0.313-0.313-0.046-0.048-0.11-0.077-0.156-0.125-0.056-0.059-0.1-0.129-0.156-0.188-0.128-0.124-0.247-0.252-0.375-0.375-0.104-0.102-0.208-0.211-0.313-0.313-0.046-0.048-0.11-0.077-0.156-0.125-0.148-0.156-0.288-0.314-0.438-0.469-0.1-0.096-0.212-0.186-0.313-0.281-0.403-0.414-0.81-0.811-1.219-1.219-0.181-0.19-0.38-0.374-0.563-0.563-0.111-0.109-0.201-0.235-0.313-0.344-0.036-0.036-0.089-0.057-0.125-0.094-0.182-0.191-0.379-0.373-0.563-0.563-0.011-0.01-0.021-0.021-0.031-0.031-0.053-0.051-0.103-0.105-0.156-0.156-0.048-0.047-0.077-0.11-0.125-0.156-0.646-0.662-1.307-1.323-1.969-1.969-0.046-0.048-0.11-0.077-0.156-0.125-0.163-0.171-0.335-0.33-0.5-0.5-0.085-0.081-0.165-0.169-0.25-0.25-0.697-0.717-1.378-1.427-2.094-2.125-0.037-0.037-0.088-0.057-0.125-0.094-0.182-0.191-0.379-0.373-0.563-0.563-0.011-0.01-0.021-0.021-0.031-0.031-0.053-0.051-0.103-0.105-0.156-0.156-0.048-0.047-0.077-0.11-0.125-0.156-0.646-0.662-1.307-1.323-1.969-1.969-0.046-0.048-0.11-0.077-0.156-0.125-0.092-0.096-0.189-0.185-0.281-0.281-0.09-0.087-0.16-0.195-0.25-0.281-0.104-0.102-0.208-0.211-0.313-0.313-0.661-0.679-1.321-1.339-2-2-0.037-0.037-0.088-0.057-0.125-0.094-0.182-0.191-0.379-0.373-0.563-0.563-0.011-0.01-0.021-0.021-0.031-0.031-0.053-0.051-0.103-0.105-0.156-0.156-0.048-0.047-0.077-0.11-0.125-0.156-0.646-0.662-1.307-1.323-1.969-1.969-0.046-0.048-0.11-0.077-0.156-0.125-0.092-0.096-0.189-0.185-0.281-0.281-0.09-0.087-0.16-0.195-0.25-0.281-0.104-0.102-0.208-0.211-0.313-0.313-0.495-0.507-0.996-1-1.5-1.5-0.201-0.204-0.422-0.391-0.625-0.594-0.181-0.19-0.38-0.374-0.563-0.563-0.111-0.109-0.201-0.235-0.313-0.344-0.036-0.036-0.089-0.057-0.125-0.094-0.182-0.191-0.379-0.373-0.563-0.563-0.011-0.01-0.021-0.021-0.031-0.031-0.053-0.051-0.103-0.105-0.156-0.156-0.048-0.047-0.077-0.11-0.125-0.156-0.646-0.662-1.307-1.323-1.969-1.969-0.046-0.048-0.11-0.077-0.156-0.125-0.163-0.171-0.335-0.33-0.5-0.5-0.085-0.081-0.165-0.169-0.25-0.25-0.403-0.414-0.81-0.811-1.219-1.219-0.181-0.19-0.38-0.374-0.563-0.563-0.111-0.109-0.201-0.235-0.313-0.344-0.036-0.036-0.089-0.057-0.125-0.094-0.182-0.191-0.379-0.373-0.563-0.563-0.011-0.01-0.021-0.021-0.031-0.031-0.053-0.051-0.103-0.105-0.156-0.156-0.048-0.047-0.077-0.11-0.125-0.156-0.646-0.662-1.307-1.323-1.969-1.969-0.046-0.048-0.11-0.077-0.156-0.125-0.163-0.171-0.335-0.33-0.5-0.5-0.085-0.081-0.165-0.169-0.25-0.25-0.697-0.717-1.378-1.427-2.094-2.125-0.037-0.037-0.088-0.057-0.125-0.094-0.182-0.191-0.379-0.373-0.563-0.563-0.011-0.01-0.021-0.021-0.031-0.031-0.053-0.051-0.103-0.105-0.156-0.156-0.048-0.047-0.077-0.11-0.125-0.156-0.646-0.662-1.307-1.323-1.969-1.969-0.046-0.048-0.11-0.077-0.156-0.125-0.092-0.096-0.189-0.185-0.281-0.281-0.09-0.087-0.16-0.195-0.25-0.281-0.104-0.102-0.208-0.211-0.313-0.313-0.661-0.679-1.321-1.339-2-2-0.037-0.037-0.088-0.057-0.125-0.094-0.181-0.19-0.38-0.374-0.563-0.563-0.011-0.01-0.021-0.021-0.031-0.031-0.053-0.051-0.103-0.105-0.156-0.156-0.048-0.047-0.077-0.11-0.125-0.156-0.036-0.036-0.089-0.057-0.125-0.094-0.184-0.193-0.377-0.371-0.563-0.563-0.011-0.01-0.021-0.021-0.031-0.031-0.053-0.051-0.103-0.105-0.156-0.156-0.048-0.047-0.077-0.11-0.125-0.156-0.036-0.037-0.089-0.057-0.125-0.094-0.056-0.059-0.1-0.129-0.156-0.188-0.128-0.124-0.247-0.252-0.375-0.375-0.106-0.104-0.207-0.209-0.313-0.313-0.046-0.048-0.11-0.077-0.156-0.125-0.056-0.059-0.1-0.129-0.156-0.188-0.128-0.124-0.247-0.252-0.375-0.375-0.104-0.102-0.208-0.211-0.313-0.313-0.495-0.507-0.996-1-1.5-1.5-0.201-0.204-0.422-0.391-0.625-0.594-0.181-0.19-0.38-0.374-0.563-0.563-0.111-0.109-0.201-0.235-0.313-0.344-0.036-0.036-0.089-0.057-0.125-0.094-0.182-0.191-0.379-0.373-0.563-0.563-0.011-0.01-0.021-0.021-0.031-0.031-0.053-0.051-0.103-0.105-0.156-0.156-0.048-0.047-0.077-0.11-0.125-0.156-0.646-0.662-1.307-1.323-1.969-1.969-0.046-0.048-0.11-0.077-0.156-0.125-0.163-0.171-0.335-0.33-0.5-0.5-0.085-0.081-0.165-0.169-0.25-0.25-0.697-0.717-1.378-1.427-2.094-2.125-0.037-0.037-0.088-0.057-0.125-0.094-0.182-0.191-0.379-0.373-0.563-0.563-0.011-0.01-0.021-0.021-0.031-0.031-0.053-0.051-0.103-0.105-0.156-0.156-0.048-0.047-0.077-0.11-0.125-0.156-0.646-0.662-1.307-1.323-1.969-1.969-0.046-0.048-0.11-0.077-0.156-0.125-0.092-0.096-0.189-0.185-0.281-0.281-0.09-0.087-0.16-0.195-0.25-0.281-0.104-0.102-0.208-0.211-0.313-0.313-0.661-0.679-1.321-1.339-2-2-0.037-0.037-0.088-0.057-0.125-0.094-0.182-0.191-0.379-0.373-0.563-0.563-0.011-0.01-0.021-0.021-0.031-0.031-0.053-0.051-0.103-0.105-0.156-0.156-0.048-0.047-0.077-0.11-0.125-0.156-0.646-0.662-1.307-1.323-1.969-1.969-0.046-0.048-0.11-0.077-0.156-0.125-0.092-0.096-0.189-0.185-0.281-0.281-0.09-0.087-0.16-0.195-0.25-0.281-0.104-0.102-0.208-0.211-0.313-0.313-0.495-0.507-0.996-1-1.5-1.5-0.201-0.204-0.422-0.391-0.625-0.594-0.181-0.19-0.38-0.374-0.563-0.563-0.111-0.109-0.201-0.235-0.313-0.344-0.036-0.036-0.089-0.057-0.125-0.094-0.182-0.191-0.379-0.373-0.563-0.563-0.011-0.01-0.021-0.021-0.031-0.031-0.053-0.051-0.103-0.105-0.156-0.156-0.048-0.047-0.077-0.11-0.125-0.156-0.646-0.662-1.307-1.323-1.969-1.969-0.046-0.048-0.11-0.077-0.156-0.125-0.163-0.171-0.335-0.33-0.5-0.5-0.085-0.081-0.165-0.169-0.25-0.25-0.403-0.414-0.81-0.811-1.219-1.219-0.181-0.19-0.38-0.374-0.563-0.563-0.111-0.109-0.201-0.235-0.313-0.344-0.036-0.036-0.089-0.057-0.125-0.094-0.182-0.191-0.379-0.373-0.563-0.563-0.011-0.01-0.021-0.021-0.031-0.031-0.053-0.051-0.103-0.105-0.156-0.156-0.048-0.047-0.077-0.11-0.125-0.156-0.646-0.662-1.307-1.323-1.969-1.969-0.046-0.048-0.11-0.077-0.156-0.125-0.163-0.171-0.335-0.33-0.5-0.5-0.085-0.081-0.165-0.169-0.25-0.25-0.697-0.717-1.378-1.427-2.094-2.125-0.037-0.037-0.088-0.057-0.125-0.094-0.182-0.191-0.379-0.373-0.563-0.563-0.011-0.01-0.021-0.021-0.031-0.031-0.053-0.051-0.103-0.105-0.156-0.156-0.048-0.047-0.077-0.11-0.125-0.156-0.646-0.662-1.307-1.323-1.969-1.969-0.046-0.048-0.11-0.077-0.156-0.125-0.092-0.096-0.189-0.185-0.281-0.281-0.09-0.087-0.16-0.195-0.25-0.281-0.104-0.102-0.208-0.211-0.313-0.313-0.661-0.679-1.321-1.339-2-2-0.037-0.037-0.088-0.057-0.125-0.094-0.181-0.19-0.38-0.374-0.563-0.563-0.011-0.01-0.021-0.021-0.031-0.031-0.053-0.051-0.103-0.105-0.156-0.156-0.048-0.047-0.077-0.11-0.125-0.156-0.036-0.036-0.089-0.057-0.125-0.094-0.184-0.193-0.377-0.371-0.563-0.563-0.011-0.01-0.021-0.021-0.031-0.031-0.053-0.051-0.103-0.105-0.156-0.156-0.048-0.047-0.077-0.11-0.125-0.156-0.036-0.037-0.089-0.057-0.125-0.094-0.056-0.059-0.1-0.129-0.156-0.188-0.128-0.124-0.247-0.252-0.375-0.375-0.106-0.104-0.207-0.209-0.313-0.313-0.046-0.048-0.11-0.077-0.156-0.125-0.056-0.059-0.1-0.129-0.156-0.188-0.128-0.124-0.247-0.252-0.375-0.375-0.104-0.102-0.208-0.211-0.313-0.313-0.495-0.507-0.996-1-1.5-1.5-0.201-0.204-0.422-0.391-0.625-0.594-0.181-0.19-0.38-0.374-0.563-0.563-0.111-0.109-0.201-0.235-0.313-0.344-0.036-0.036-0.089-0.057-0.125-0.094-0.182-0.191-0.379-0.373-0.563-0.563-0.011-0.01-0.021-0.021-0.031-0.031-0.053-0.051-0.103-0.105-0.156-0.156-0.048-0.047-0.077-0.11-0.125-0.156-0.646-0.662-1.307-1.323-1.969-1.969-0.046-0.048-0.11-0.077-0.156-0.125-0.163-0.171-0.335-0.33-0.5-0.5-0.085-0.081-0.165-0.169-0.25-0.25-0.697-0.717-1.378-1.427-2.094-2.125-0.037-0.037-0.088-0.057-0.125-0.094-0.182-0.191-0.379-0.373-0.563-0.563-0.011-0.01-0.021-0.021-0.031-0.031-0.053-0.051-0.103-0.105-0.156-0.156-0.048-0.047-0.077-0.11-0.125-0.156-20.01-20.514-47.956-33.25-78.875-33.25"/>
    <path id="path16" fill="#fff" d="m256 145.84c-60.839 0-110.16 49.32-110.16 110.16 0 60.839 49.32 110.16 110.16 110.16 60.839 0 110.16-49.32 110.16-110.16 0-60.839-49.32-110.16-110.16-110.16m-40.28 55.09 95.84 54.25-95.5 52.875-0.344-107.12"/>
   </g>
   <path id="path18" fill-opacity="0.067" d="m256 541.36c-140.83 0-255 114.17-255 255s114.17 255 255 255 255-114.17 255-255-114.17-255-255-255m8.827 44.931c120.9 0 218.9 98 218.9 218.9s-98 218.9-218.9 218.9-218.93-98-218.93-218.9 98.03-218.9 218.93-218.9"/>
   <g id="g20" fill-opacity="0.129">
    <path id="path22" d="m256 544.79c-138.94 0-251.57 112.63-251.57 251.57s112.63 251.54 251.57 251.54 251.57-112.6 251.57-251.54-112.63-251.57-251.57-251.57m5.885 38.556c120.9 0 218.9 98 218.9 218.9s-98 218.9-218.9 218.9-218.93-98-218.93-218.9 98.03-218.9 218.93-218.9"/>
    <path id="path24" d="m256 548.72c-136.77 0-247.64 110.87-247.64 247.64s110.87 247.64 247.64 247.64 247.64-110.87 247.64-247.64-110.87-247.64-247.64-247.64m2.942 31.691c120.9 0 218.9 98 218.9 218.9s-98 218.9-218.9 218.9-218.93-98-218.93-218.9 98.03-218.9 218.93-218.9"/>
   </g>
   <path id="path26" d="m253.04 548.22c-135.42 0-245.19 109.78-245.19 245.19 0 135.42 109.78 245.19 245.19 245.19 135.42 0 245.19-109.78 245.19-245.19 0-135.42-109.78-245.19-245.19-245.19zm0 26.297c120.9 0 218.9 98 218.9 218.9s-98 218.9-218.9 218.9-218.93-98-218.93-218.9 98.03-218.9 218.93-218.9z" stroke-opacity="0.31" stroke="#000" stroke-width="4.904" fill="#fff"/>
  </g>
 </g>
</svg>
