<?xml version="1.0" encoding="UTF-8" standalone="no"?>
<svg
   xmlns:dc="http://purl.org/dc/elements/1.1/"
   xmlns:cc="http://creativecommons.org/ns#"
   xmlns:rdf="http://www.w3.org/1999/02/22-rdf-syntax-ns#"
   xmlns:svg="http://www.w3.org/2000/svg"
   xmlns="http://www.w3.org/2000/svg"
   xmlns:sodipodi="http://sodipodi.sourceforge.net/DTD/sodipodi-0.dtd"
   xmlns:inkscape="http://www.inkscape.org/namespaces/inkscape"
   height="512"
   viewBox="0 0 512 512"
   width="512"
   version="1.1"
   id="svg2"
   inkscape:version="0.91 r13725"
   sodipodi:docname="mutt.svg">
  <defs
     id="defs17" />
  <sodipodi:namedview
     pagecolor="#ffffff"
     bordercolor="#666666"
     borderopacity="1"
     objecttolerance="10"
     gridtolerance="10"
     guidetolerance="10"
     inkscape:pageopacity="0"
     inkscape:pageshadow="2"
     inkscape:window-width="1920"
     inkscape:window-height="1022"
     id="namedview15"
     showgrid="false"
     inkscape:zoom="0.31273699"
     inkscape:cx="260.09379"
     inkscape:cy="679.94749"
     inkscape:window-x="0"
     inkscape:window-y="0"
     inkscape:window-maximized="1"
     inkscape:current-layer="svg2" />
  <metadata
     id="metadata28">
    <rdf:RDF>
      <cc:Work
         rdf:about="">
        <dc:format>image/svg+xml</dc:format>
        <dc:type
           rdf:resource="http://purl.org/dc/dcmitype/StillImage" />
        <dc:title></dc:title>
      </cc:Work>
    </rdf:RDF>
  </metadata>
  <path
     style="fill:#BF9E73;fill-rule:evenodd;fill-opacity:1"
     inkscape:connector-curvature="0"
     d="m 471.95,253.05 c 0,120.9 -98.01,218.9 -218.9,218.9 -120.9,0 -218.9,-98.01 -218.9,-218.9 0,-120.9 98.01,-218.9 218.9,-218.9 120.9,0 218.9,98.01 218.9,218.9"
     id="path6" />
  <path
     style="fill-opacity:0.06700003;fill-rule:evenodd"
     inkscape:connector-curvature="0"
     d="M 256,1 C 115.17,1 1,115.17 1,256 1,396.83 115.17,511 256,511 396.83,511 511,396.83 511,256 511,115.17 396.83,1 256,1 m 8.827,44.931 c 120.9,0 218.9,98 218.9,218.9 0,120.9 -98,218.9 -218.9,218.9 -120.9,0 -218.93,-98 -218.93,-218.9 0,-120.9 98.03,-218.9 218.93,-218.9"
     id="path8" />
  <g
     style="fill-opacity:0.12900002;fill-rule:evenodd"
     id="g10">
    <path
       inkscape:connector-curvature="0"
       d="m 256,4.433 c -138.94,0 -251.57,112.63 -251.57,251.57 0,138.94 112.63,251.57 251.57,251.57 138.94,0 251.57,-112.63 251.57,-251.57 C 507.57,117.063 394.94,4.433 256,4.433 m 5.885,38.556 c 120.9,0 218.9,98 218.9,218.9 0,120.9 -98,218.9 -218.9,218.9 -120.9,0 -218.93,-98 -218.93,-218.9 0,-120.9 98.03,-218.9 218.93,-218.9"
       id="path12" />
    <path
       inkscape:connector-curvature="0"
       d="m 256,8.356 c -136.77,0 -247.64,110.87 -247.64,247.64 0,136.77 110.87,247.64 247.64,247.64 136.77,0 247.64,-110.87 247.64,-247.64 C 503.64,119.226 392.77,8.356 256,8.356 m 2.942,31.691 c 120.9,0 218.9,98 218.9,218.9 0,120.9 -98,218.9 -218.9,218.9 -120.9,0 -218.93,-98 -218.93,-218.9 0,-120.9 98.03,-218.9 218.93,-218.9"
       id="path14" />
  </g>
  <path
     inkscape:connector-curvature="0"
     style="opacity:0.25"
     id="path4190"
     d="m 352.85005,122.04499 c -9.25301,7.87995 -49.29027,54.55269 -50.29369,50.53901 9.45722,11.52781 15.60157,9.3789 15.55331,18.71314 12.77133,9.66505 148.45351,106.62533 148.45351,106.62533 l -2.37874,12.5694 -126.99667,-91.90858 c 0,0 -33.7091,8.32048 -35.31003,9.40136 l -146.05793,-105.61937 -35.11871,68.66766 59.64708,42.20245 -13.03942,19.86364 63.3887,42.30568 1.19555,7.86694 -26.52057,-18.68954 c -21.28125,-5.32032 -43.31085,75.46492 -19.86188,113.99423 l 119.1128,67.31147 c 97.12,-22.39 169.53,-109.4 169.53,-213.31 0,-14.14 -1.357,-27.971 -3.92,-41.37"
     sodipodi:nodetypes="ccccccccccccccccsc" />
  <path
     style="fill:#ffffff;fill-rule:evenodd;stroke:#000000;stroke-width:4.90399981;stroke-opacity:0.31000001"
     inkscape:connector-curvature="0"
     d="m 253.04,7.859 c -135.42,0 -245.19,109.78 -245.19,245.19 0,135.42 109.78,245.19 245.19,245.19 135.42,0 245.19,-109.78 245.19,-245.19 0,-135.42 -109.78,-245.19 -245.19,-245.19 z m 0,26.297 c 120.9,0 218.9,98 218.9,218.9 0,120.9 -98,218.9 -218.9,218.9 -120.9,0 -218.93,-98 -218.93,-218.9 0,-120.9 98.03,-218.9 218.93,-218.9 z"
     id="path16" />
  <path
     inkscape:connector-curvature="0"
     d="m 155.8691,121.55339 -52.22006,52.22007 17.40668,17.40668 34.81338,-34.81337 34.81338,34.81337 17.40668,-17.40668 -52.22006,-52.22007 z m 197.27579,0 -52.22005,52.22007 17.40668,17.40668 34.81337,-34.81337 34.81338,34.81337 17.40669,-17.40668 -52.22007,-52.22007 z m -168.26464,92.83566 a 23.208916,23.208916 0 0 0 -23.20892,23.20892 23.208916,23.208916 0 0 0 23.20892,23.20892 23.208916,23.208916 0 0 0 23.20891,-23.20892 23.208916,23.208916 0 0 0 -23.20891,-23.20892 z m 139.2535,0 a 23.208916,23.208916 0 0 0 -23.20891,23.20892 23.208916,23.208916 0 0 0 23.20891,23.20892 23.208916,23.208916 0 0 0 23.20891,-23.20892 23.208916,23.208916 0 0 0 -23.20891,-23.20892 z m -139.2535,69.62676 c 0,0 -23.20892,23.20892 -23.20892,58.02229 0,34.81337 23.20892,58.02229 23.20892,58.02229 l 23.20891,0 c 0,0 -23.20891,-23.20892 -23.20891,-58.02229 0,-34.81337 23.20891,-58.02229 23.20891,-58.02229 l -23.20891,0 z m 46.41783,0 0,23.20892 23.20892,0 0,58.02228 c 0,6.40567 -5.1988,11.60446 -11.60446,11.60446 -6.40566,0 -11.60446,-5.19879 -11.60446,-11.60446 l -23.20892,0 c 0,19.22859 15.58479,34.81338 34.81338,34.81338 19.22859,0 34.81338,-15.58479 34.81338,-34.81338 l 0,-58.02228 11.60446,0 0,-23.20892 -58.0223,0 z m 69.62676,0 c 0,0 23.20891,23.20892 23.20891,58.02229 0,34.81337 -23.20891,58.02229 -23.20891,58.02229 l 23.20891,0 c 0,0 23.20891,-23.20892 23.20891,-58.02229 0,-34.81337 -23.20891,-58.02229 -23.20891,-58.02229 l -23.20891,0 z"
     style="opacity:1;fill:#ffffff;fill-opacity:1;stroke:none"
     id="path27" />
</svg>
