<?xml version="1.0" encoding="UTF-8" standalone="no"?>
<svg xmlns="http://www.w3.org/2000/svg" viewBox="0 0 512 512">
 <g fill-rule="evenodd">
  <path d="m471.95 253.05c0 120.9-98.01 218.91-218.91 218.91s-218.91-98.01-218.91-218.91 98.01-218.91 218.91-218.91 218.91 98.01 218.91 218.91" fill="#BF9E73"/>
  <path d="m256 1c-140.83 0-255 114.17-255 255s114.17 255 255 255 255-114.17 255-255-114.17-255-255-255m8.827 44.931c120.9 0 218.9 98 218.9 218.9s-98 218.9-218.9 218.9-218.93-98-218.93-218.9 98.03-218.9 218.93-218.9" fill-opacity="0.067"/>
  <g fill-opacity="0.129">
   <path d="m256 4.43c-138.94 0-251.57 112.63-251.57 251.57s112.63 251.57 251.57 251.57 251.57-112.63 251.57-251.57-112.63-251.57-251.57-251.57m5.885 38.556c120.9 0 218.9 98 218.9 218.9s-98 218.9-218.9 218.9-218.93-98-218.93-218.9 98.03-218.9 218.93-218.9"/>
   <path d="m256 8.36c-136.77 0-247.64 110.87-247.64 247.64s110.87 247.64 247.64 247.64 247.64-110.87 247.64-247.64-110.87-247.64-247.64-247.64m2.942 31.691c120.9 0 218.9 98 218.9 218.9s-98 218.9-218.9 218.9-218.93-98-218.93-218.9 98.03-218.9 218.93-218.9"/>
  </g>
  <path stroke="#000" stroke-width="4.904" d="m253.04 7.86c-135.42 0-245.19 109.78-245.19 245.19 0 135.42 109.78 245.19 245.19 245.19 135.42 0 245.19-109.78 245.19-245.19 0-135.42-109.78-245.19-245.19-245.19m0 26.297c120.9 0 218.9 98 218.9 218.9s-98 218.9-218.9 218.9-218.93-98-218.93-218.9 98.03-218.9 218.93-218.9z" stroke-opacity="0.31" fill="#fff"/>
 </g>
 <text font-size="129.23" y="231.36" x="729.64" font-family="&apos;Gentium Book Basic&apos;" line-height="125%" word-spacing="0" letter-spacing="0"><tspan y="231.36" x="729.64"/>
 </text>
 <text transform="scale(4.0128.2492)" font-size="46.954" y="579.26" x="378.91" font-family="Arial" text-anchor="middle"/>
 <text font-size="129.23" y="151.36" x="1310.91" font-family="&apos;Gentium Book Basic&apos;" line-height="125%" word-spacing="0" letter-spacing="0"><tspan y="151.36" x="1310.91"/>
 </text>
 <text transform="scale(4.0128.2492)" font-size="46.954" y="258.22" x="523.76" font-family="Arial" text-anchor="middle"/>
 <text font-size="129.23" y="-29.9" x="239.33" font-family="&apos;Gentium Book Basic&apos;" line-height="125%" word-spacing="0" letter-spacing="0"><tspan y="-29.9" x="239.33"/>
 </text>
 <text transform="scale(4.0128.2492)" font-size="46.954" y="-469.13" x="256.72" font-family="Arial" text-anchor="middle"/>
 <text font-size="129.23" y="-246.37" x="1337.38" font-family="&apos;Gentium Book Basic&apos;" line-height="125%" word-spacing="0" letter-spacing="0"><tspan y="-246.37" x="1337.38"/>
 </text>
 <text transform="scale(4.0128.2492)" font-size="46.954" y="-1337.8" x="530.36" font-family="Arial" text-anchor="middle"/>
 <text font-size="129.23" y="-326.37" x="1918.65" font-family="&apos;Gentium Book Basic&apos;" line-height="125%" word-spacing="0" letter-spacing="0"><tspan y="-326.37" x="1918.65"/>
 </text>
 <text transform="scale(4.0128.2492)" font-size="46.954" y="-1658.83" x="675.21" font-family="Arial" text-anchor="middle"/>
 <text font-size="129.23" y="-798.77" x="1529.53" font-family="&apos;Gentium Book Basic&apos;" line-height="125%" word-spacing="0" letter-spacing="0"><tspan y="-798.77" x="1529.53"/>
 </text>
 <text transform="scale(4.0128.2492)" font-size="46.954" y="-3554.48" x="578.24" font-family="Arial" text-anchor="middle"/>
 <text font-size="129.23" y="-878.78" x="2110.79" font-family="&apos;Gentium Book Basic&apos;" line-height="125%" word-spacing="0" letter-spacing="0"><tspan y="-878.78" x="2110.79"/>
 </text>
 <text transform="scale(4.0128.2492)" font-size="46.954" y="-3875.52" x="723.09" font-family="Arial" text-anchor="middle"/>
 <text font-size="208.33" y="535.94" x="277.99" font-family="&apos;Gentium Book Basic&apos;" line-height="125%" word-spacing="0" letter-spacing="0"><tspan y="535.94" x="277.99"/>
 </text>
 <path opacity="0.25" d="m380.91 211.29c-11.27 0.192-22.24 3.046-31.24 8.191l-6.221-6.221-1.043-0.24c-4.02-0.926-6.27-1.237-9.713-1.332-4.149-0.115-6.877 0.131-9.908 0.895-4.829 1.215-8.891 3.553-12.369 7.098l-6.05-6.05-34.04-0.283 0.787 3.127c1.273 4.801 1.714 9.408 1.705 17.619l-9.08-9.08c-3.275-3.275-6.472-5.598-10.68-7.779-5.589-2.897-11.692-4.657-19.18-5.529-3.578-0.417-12.514-0.469-16.02-0.094-14.742 1.579-26.1 6.604-34.414 15.217-1.668 1.729-3.066 3.427-4.295 5.219l-10.316-10.316c-0.304-0.304-0.616-0.596-0.936-0.875-5.158-4.51-11.821-7.369-20.21-8.676-3.67-0.571-12.609-0.628-16.182-0.102-6.752 0.996-12 2.968-17.219 6.465-0.019 0.013-0.03 0.021-0.049 0.033l-4.996-4.996-33.686-0.139 0.906 2.498c1.648 4.532 2.419 7.689 2.816 11.531 0.947 23.706-0.085 47.47 0.42 71.19l173.29 173.29h0.059c114.03 0 207.67-87.18 217.95-198.52l-46.45-46.45c-1.442-1.442-3.01-2.801-4.697-4.068-6.916-5.196-16.01-8.955-25.689-10.619-4.395-0.755-8.845-1.085-13.252-1.01"/>
 <path d="m218.01 300.54c-12.272-0.832-22.22-4.303-30.31-10.572-3.567-2.765-7.518-7.257-9.819-11.164-0.539-0.914-1.266-1.79-1.367-1.947v21.802h-34.471l-0.086-25.17c-0.089-26.08-0.125-27.341-0.903-30.476-1.389-5.717-6.478-7.935-11.842-7.938-6.245-0.164-10.933 2.375-13.685 8.168-1.142 3.147-1.075 1.399-1.144 29.581l-0.06 25.831h-34.638c-0.505-23.715 0.527-47.48-0.42-71.19-0.397-3.842-1.168-7-2.816-11.533l-0.908-2.496 33.685 0.137 0.858 1.762c0.503 1.033 0.989 2.397 1.175 3.296 0.174 0.844 0.377 1.534 0.45 1.534 0.077 0 1.227-0.733 2.564-1.63 5.215-3.497 10.466-5.468 17.218-6.463 3.572-0.527 12.512-0.471 16.182 0.101 8.39 1.307 15.05 4.167 20.21 8.677 3.798 3.321 6.526 8.427 7.71 14.436l0.42 2.133 0.888-1.682c1.727-3.269 3.762-6.05 6.529-8.916 8.309-8.612 19.674-13.637 34.415-15.216 3.508-0.376 12.442-0.324 16.02 0.093 7.489 0.873 13.593 2.632 19.18 5.529 4.416 2.289 7.717 4.735 11.165 8.272 3.227 3.311 6.104 7.438 7.956 11.417l0.631 1.354 0.009-3.981c0.017-8.344-0.424-12.979-1.707-17.821l-0.786-3.128 34.05 0.284 0.442 1.422c0.694 2.236 1.197 5.02 1.346 7.449l0.137 2.235 1.227-1.663c4.064-5.507 9.03-8.922 15.266-10.491 3.03-0.763 5.759-1.01 9.908-0.893 3.443 0.095 5.695 0.405 9.714 1.331l1.043 0.241c-0.002 3.375-0.002 6.762 0 10.134 0.043 0 0.919-0.472 1.723-1.049 12.933-9.279 31.411-13.07 48.99-10.05 9.68 1.664 18.772 5.422 25.689 10.619 11.962 8.988 17.863 22.578 16.387 37.743-1.014 10.42-5.857 19.672-13.906 26.565-10.613 9.09-25.81 13.912-42.39 13.454-10.839-0.3-20-2.547-28.427-6.972-6.918-3.576-12.775-8.804-17.19-15.192-7.74-11.664-8.771-27.341-2.657-40.41 0.483-1.032 0.878-1.899 0.878-1.927-3.452-1.181-7.144-1.152-10.673-0.394-2.156 0.651-3.519 1.35-5.398 2.765-4.521 3.406-7.149 8.38-8.27 15.651-0.583 3.783-0.681 7.483-0.682 25.926v18.532h-34.601v-20.72l-1.01 1.706c-1.546 2.612-3.319 4.873-5.619 7.166-8.206 8.181-19.881 12.705-35.459 13.739-3.246 0.216-9.57 0.211-12.821-0.009zm25.455-28.574l29.547 0.53v-9.669h-66.968l0.136 1.28c0.077 0.704 0.332 2.054 0.571 3 1.644 6.496 6.575 10.517 14.408 11.748 8.856 0.831 16.221 0.412 22.304-6.89m147.86 4.984c5.696-3.548 9.182-10.24 9.838-18.885 0.476-6.267-1.128-12.917-4.225-17.513-1.012-1.502-3.191-3.754-4.491-4.64-4.596-3.185-10.256-3.564-15.602-2.412-8.253 2.546-13.293 10.29-13.722 21.08-0.315 7.926 1.881 14.654 6.267 19.2 2.742 2.843 5.213 4.224 9.05 5.056 4.398 0.699 8.916 0.175 12.885-1.889m-150.63-32.928c0.296-0.296-0.802-4.049-1.667-5.698-0.896-1.707-3.135-3.724-5.293-4.766-6.319-3.051-15.822-2.471-21.09 1.288-2.702 1.928-4.803 4.986-5.916 8.611l-0.252 0.82 17.04-0.06c9.373-0.034 17.1-0.121 17.17-0.193z" fill="#fff"/>
</svg>
