<?xml version="1.0" encoding="UTF-8" standalone="no"?>
<svg
   xmlns:dc="http://purl.org/dc/elements/1.1/"
   xmlns:cc="http://creativecommons.org/ns#"
   xmlns:rdf="http://www.w3.org/1999/02/22-rdf-syntax-ns#"
   xmlns:svg="http://www.w3.org/2000/svg"
   xmlns="http://www.w3.org/2000/svg"
   xmlns:sodipodi="http://sodipodi.sourceforge.net/DTD/sodipodi-0.dtd"
   xmlns:inkscape="http://www.inkscape.org/namespaces/inkscape"
   height="512"
   viewBox="0 0 512 512"
   width="512"
   version="1.1"
   id="svg2"
   inkscape:version="0.91 r13725"
   sodipodi:docname="network.svg">
  <defs
     id="defs17" />
  <sodipodi:namedview
     pagecolor="#ffffff"
     bordercolor="#666666"
     borderopacity="1"
     objecttolerance="10"
     gridtolerance="10"
     guidetolerance="10"
     inkscape:pageopacity="0"
     inkscape:pageshadow="2"
     inkscape:window-width="1920"
     inkscape:window-height="1019"
     id="namedview15"
     showgrid="false"
     inkscape:zoom="0.70044782"
     inkscape:cx="-89.424225"
     inkscape:cy="46.972178"
     inkscape:window-x="0"
     inkscape:window-y="13"
     inkscape:window-maximized="1"
     inkscape:current-layer="svg2"
     showguides="false" />
  <metadata
     id="metadata28">
    <rdf:RDF>
      <cc:Work
         rdf:about="">
        <dc:format>image/svg+xml</dc:format>
        <dc:type
           rdf:resource="http://purl.org/dc/dcmitype/StillImage" />
        <dc:title></dc:title>
      </cc:Work>
    </rdf:RDF>
  </metadata>
  <path
     style="fill:#BF9E73;fill-rule:evenodd;fill-opacity:1"
     inkscape:connector-curvature="0"
     d="m 471.95,253.05 c 0,120.9 -98.01,218.9 -218.9,218.9 -120.9,0 -218.9,-98.01 -218.9,-218.9 0,-120.9 98.01,-218.9 218.9,-218.9 120.9,0 218.9,98.01 218.9,218.9"
     id="path6" />
  <path
     inkscape:connector-curvature="0"
     style="opacity:0.25;fill-rule:evenodd"
     id="path1527"
     d="m 216.83975,150.59871 c -5.302,0 -9.592,4.262 -9.592,9.564 l 0,54.5 c 0,2.651 1.074,5.05 2.809,6.783 l 32.23,32.23 -111.06,0 0,41.569 15.09,15.09 -32,0 c -5.302,0 -9.564,4.262 -9.564,9.564 l 0,29.633 c 0,2.651 1.065,5.04 2.793,6.77 l 109.07,109.07 c 15.646,3.551 31.926,5.436 48.646,5.436 102.67,0 188.83,-70.69 212.47,-166.06 l -151.36,-151.36 c -1.728,-1.728 -4.12,-2.795 -6.771,-2.795 l -102.76,0" />
  <path
     style="fill-opacity:0.06700003;fill-rule:evenodd"
     inkscape:connector-curvature="0"
     d="M 256,1 C 115.17,1 1,115.17 1,256 1,396.83 115.17,511 256,511 396.83,511 511,396.83 511,256 511,115.17 396.83,1 256,1 m 8.827,44.931 c 120.9,0 218.9,98 218.9,218.9 0,120.9 -98,218.9 -218.9,218.9 -120.9,0 -218.93,-98 -218.93,-218.9 0,-120.9 98.03,-218.9 218.93,-218.9"
     id="path8" />
  <g
     style="fill-opacity:0.12900002;fill-rule:evenodd"
     id="g10">
    <path
       inkscape:connector-curvature="0"
       d="m 256,4.433 c -138.94,0 -251.57,112.63 -251.57,251.57 0,138.94 112.63,251.57 251.57,251.57 138.94,0 251.57,-112.63 251.57,-251.57 C 507.57,117.063 394.94,4.433 256,4.433 m 5.885,38.556 c 120.9,0 218.9,98 218.9,218.9 0,120.9 -98,218.9 -218.9,218.9 -120.9,0 -218.93,-98 -218.93,-218.9 0,-120.9 98.03,-218.9 218.93,-218.9"
       id="path12" />
    <path
       inkscape:connector-curvature="0"
       d="m 256,8.356 c -136.77,0 -247.64,110.87 -247.64,247.64 0,136.77 110.87,247.64 247.64,247.64 136.77,0 247.64,-110.87 247.64,-247.64 C 503.64,119.226 392.77,8.356 256,8.356 m 2.942,31.691 c 120.9,0 218.9,98 218.9,218.9 0,120.9 -98,218.9 -218.9,218.9 -120.9,0 -218.93,-98 -218.93,-218.9 0,-120.9 98.03,-218.9 218.93,-218.9"
       id="path14" />
  </g>
  <path
     style="fill:#ffffff;fill-rule:evenodd;stroke:#000000;stroke-width:4.90399981;stroke-opacity:0.31000001"
     inkscape:connector-curvature="0"
     d="m 253.04,7.859 c -135.42,0 -245.19,109.78 -245.19,245.19 0,135.42 109.78,245.19 245.19,245.19 135.42,0 245.19,-109.78 245.19,-245.19 0,-135.42 -109.78,-245.19 -245.19,-245.19 z m 0,26.297 c 120.9,0 218.9,98 218.9,218.9 0,120.9 -98,218.9 -218.9,218.9 -120.9,0 -218.93,-98 -218.93,-218.9 0,-120.9 98.03,-218.9 218.93,-218.9 z"
     id="path16" />
  <path
     inkscape:connector-curvature="0"
     style="fill:#ffffff;fill-rule:evenodd"
     id="path1529"
     d="m 212.55678,144.88808 c -5.302,0 -9.591,4.262 -9.591,9.565 l 0,54.5 c 0,5.302 4.288,9.591 9.591,9.591 l 102.76,0 c 5.302,0 9.565,-4.288 9.565,-9.591 l 0,-54.5 c 0,-5.302 -4.262,-9.565 -9.565,-9.565 l -102.76,0 m 39.484,86.84 0,16.237 -125.1,0 0,41.568 23.12,0 0,-19.546 102.01,0 0,20.954 23.09,0 0,-20.954 101.62,0 0,21.371 23.12,0 0,-43.393 -124.73,0 0,-16.237 -23.116,0 m -142.01,72.895 c -5.302,0 -9.565,4.262 -9.565,9.565 l 0,29.632 c 0,5.302 4.262,9.565 9.565,9.565 l 60.985,0 c 5.302,0 9.565,-4.262 9.565,-9.565 l 0,-29.632 c 0,-5.302 -4.262,-9.565 -9.565,-9.565 l -60.985,0 m 122.26,0 c -5.302,0 -9.565,4.262 -9.565,9.565 l 0,29.632 c 0,5.302 4.262,9.565 9.565,9.565 l 60.985,0 c 5.302,0 9.565,-4.262 9.565,-9.565 l 0,-29.632 c 0,-5.302 -4.262,-9.565 -9.565,-9.565 l -60.985,0 m 124.58,0 c -5.302,0 -9.565,4.262 -9.565,9.565 l 0,29.632 c 0,5.302 4.262,9.565 9.565,9.565 l 60.959,0 c 5.302,0 9.591,-4.262 9.591,-9.565 l 0,-29.632 c 0,-5.302 -4.288,-9.565 -9.591,-9.565 l -60.959,0" />
</svg>
