<?xml version="1.0" encoding="UTF-8" standalone="no"?>
<svg xmlns="http://www.w3.org/2000/svg" viewBox="0 0 512 512">
 <g fill-rule="evenodd">
  <path d="m471.95 253.05c0 120.9-98.01 218.91-218.91 218.91s-218.91-98.01-218.91-218.91 98.01-218.91 218.91-218.91 218.91 98.01 218.91 218.91" fill="#BF9E73"/>
  <path d="m256 1c-140.83 0-255 114.17-255 255s114.17 255 255 255 255-114.17 255-255-114.17-255-255-255m8.827 44.931c120.9 0 218.9 98 218.9 218.9s-98 218.9-218.9 218.9-218.93-98-218.93-218.9 98.03-218.9 218.93-218.9" fill-opacity="0.067"/>
  <g fill-opacity="0.129">
   <path d="m256 4.43c-138.94 0-251.57 112.63-251.57 251.57s112.63 251.57 251.57 251.57 251.57-112.63 251.57-251.57-112.63-251.57-251.57-251.57m5.885 38.556c120.9 0 218.9 98 218.9 218.9s-98 218.9-218.9 218.9-218.93-98-218.93-218.9 98.03-218.9 218.93-218.9"/>
   <path d="m256 8.36c-136.77 0-247.64 110.87-247.64 247.64s110.87 247.64 247.64 247.64 247.64-110.87 247.64-247.64-110.87-247.64-247.64-247.64m2.942 31.691c120.9 0 218.9 98 218.9 218.9s-98 218.9-218.9 218.9-218.93-98-218.93-218.9 98.03-218.9 218.93-218.9"/>
  </g>
  <path stroke="#000" stroke-width="4.904" d="m253.04 7.86c-135.42 0-245.19 109.78-245.19 245.19 0 135.42 109.78 245.19 245.19 245.19 135.42 0 245.19-109.78 245.19-245.19 0-135.42-109.78-245.19-245.19-245.19m0 26.297c120.9 0 218.9 98 218.9 218.9s-98 218.9-218.9 218.9-218.93-98-218.93-218.9 98.03-218.9 218.93-218.9z" stroke-opacity="0.31" fill="#fff"/>
 </g>
 <text font-size="129.23" y="231.36" x="729.64" font-family="&apos;Gentium Book Basic&apos;" line-height="125%" word-spacing="0" letter-spacing="0"><tspan y="231.36" x="729.64"/>
 </text>
 <text transform="scale(4.0128.2492)" font-size="46.954" y="579.26" x="378.91" font-family="Arial" text-anchor="middle"/>
 <text font-size="129.23" y="151.36" x="1310.91" font-family="&apos;Gentium Book Basic&apos;" line-height="125%" word-spacing="0" letter-spacing="0"><tspan y="151.36" x="1310.91"/>
 </text>
 <text transform="scale(4.0128.2492)" font-size="46.954" y="258.22" x="523.76" font-family="Arial" text-anchor="middle"/>
 <text font-size="129.23" y="-29.9" x="239.33" font-family="&apos;Gentium Book Basic&apos;" line-height="125%" word-spacing="0" letter-spacing="0"><tspan y="-29.9" x="239.33"/>
 </text>
 <text transform="scale(4.0128.2492)" font-size="46.954" y="-469.13" x="256.72" font-family="Arial" text-anchor="middle"/>
 <text font-size="129.23" y="-246.37" x="1337.38" font-family="&apos;Gentium Book Basic&apos;" line-height="125%" word-spacing="0" letter-spacing="0"><tspan y="-246.37" x="1337.38"/>
 </text>
 <text transform="scale(4.0128.2492)" font-size="46.954" y="-1337.8" x="530.36" font-family="Arial" text-anchor="middle"/>
 <text font-size="129.23" y="-326.37" x="1918.65" font-family="&apos;Gentium Book Basic&apos;" line-height="125%" word-spacing="0" letter-spacing="0"><tspan y="-326.37" x="1918.65"/>
 </text>
 <text transform="scale(4.0128.2492)" font-size="46.954" y="-1658.83" x="675.21" font-family="Arial" text-anchor="middle"/>
 <text font-size="129.23" y="-798.77" x="1529.53" font-family="&apos;Gentium Book Basic&apos;" line-height="125%" word-spacing="0" letter-spacing="0"><tspan y="-798.77" x="1529.53"/>
 </text>
 <text transform="scale(4.0128.2492)" font-size="46.954" y="-3554.48" x="578.24" font-family="Arial" text-anchor="middle"/>
 <text font-size="129.23" y="-878.78" x="2110.79" font-family="&apos;Gentium Book Basic&apos;" line-height="125%" word-spacing="0" letter-spacing="0"><tspan y="-878.78" x="2110.79"/>
 </text>
 <text transform="scale(4.0128.2492)" font-size="46.954" y="-3875.52" x="723.09" font-family="Arial" text-anchor="middle"/>
 <text font-size="208.33" y="535.94" x="277.99" font-family="&apos;Gentium Book Basic&apos;" line-height="125%" word-spacing="0" letter-spacing="0"><tspan y="535.94" x="277.99"/>
 </text>
 <path opacity="0.25" d="m257.74 81.04c-0.297-0.003-4.802 9.06-10.4 20.6l12.809 12.809c-1.494-0.045-2.993-0.068-4.498-0.068-4.983 0-9.928 0.25-14.779 0.746-2.34 4.858-4.427 9.164-6.768 14.03l12.369 12.369c-6.825 0.538-13.494 1.653-19.934 3.307-4.625 9.56-8.218 16.921-8.459 17.02-0.243 0.098-8.07-2.778-18.16-6.518-2.218 1.209-4.391 2.488-6.518 3.834l-10-10c-5.099-1.903-9.607-3.539-14.68-5.426-1.68 1.283-3.32 2.613-4.939 3.967l-9.191-9.191c-11.721-4.317-20.892-7.667-21.1-7.463-0.207 0.203 2.912 9.366 6.967 21.05l9.172 9.172c-1.448 1.591-2.87 3.204-4.246 4.859 1.768 5.04 3.288 9.492 5.076 14.58l9.891 9.891c-1.455 2.062-2.846 4.174-4.168 6.332 3.648 10.444 6.478 18.707 6.469 19.21l9.207 9.207c-0.023 0.06-0.045 0.121-0.068 0.182l-9.238-9.238c-0.398 0.375-8.574 4.141-18.859 8.857-1.824 6.28-3.131 12.784-3.883 19.455l-12.141-12.141c-4.99 2.277-9.279 4.275-14.182 6.52-0.802 6.138-1.193 12.403-1.193 18.76l-12.49-12.49c-10.625 4.909-18.757 8.727-18.76 9.01 0 0.009 0.008 0.024 0.025 0.041l169.7 169.7c1.824 3.857 3.197 6.679 3.455 6.938l37.596 37.596c89.82-16.06 160.66-86.9 176.71-176.72l-210.75-210.75c-0.015-0.015-0.027-0.021-0.035-0.021m123.21 52.45c-0.21-0.21-9.701 3.035-21.744 7.215l13.701 13.701c0.158 0.179 0.323 0.351 0.48 0.531l98.55 98.55c0-0.146 0.006-0.29 0.006-0.436 0-10.43-0.746-20.684-2.156-30.725l-88.84-88.84m-35.928 12.143c-5.114 1.79-9.654 3.378-14.777 5.174l32.29 32.29c0.082 0.118 0.168 0.233 0.25 0.352l106.11 106.11c1.049-6.244 1.84-12.575 2.348-18.986l-114.17-114.17c-3.812-3.812-7.84-7.41-12.06-10.777m-196.9 185.86c-1.928 5.161-3.553 9.555-5.424 14.58 3.601 4.601 7.482 8.982 11.611 13.11l112.35 112.35c6.566-0.403 13.06-1.082 19.455-2.051l-137.99-137.99m-10.648 28.662c-3.803 10.327-6.606 18.12-6.418 18.311l0.002 0.002 91.35 91.35c8.785 1.23 17.736 1.938 26.822 2.094l-111.76-111.76"/>
 <path d="m257.74 81.04c-0.297-0.003-4.802 9.06-10.4 20.601 2.746-0.143 5.528-0.199 8.31-0.199 4.047 0 8.07 0.146 12.04 0.448-5.371-11.657-9.655-20.847-9.952-20.85m-2.09 33.34c-4.983 0-9.927 0.25-14.779 0.746-2.34 4.858-4.426 9.165-6.768 14.03 7.01-1.165 14.205-1.791 21.547-1.791 8.494 0 16.79 0.839 24.831 2.389-2.252-4.933-4.264-9.302-6.519-14.232-5.995-0.764-12.11-1.144-18.312-1.144m-122.16 16.67c-0.207 0.203 2.911 9.366 6.967 21.05 4.419-4.812 9.147-9.357 14.13-13.585-11.721-4.317-20.891-7.668-21.1-7.464m247.46 2.438c-0.207-0.211-9.701 3.035-21.746 7.215 5.03 4.449 9.765 9.176 14.182 14.232 4.382-11.87 7.769-21.237 7.564-21.447m-125.3 7.663c-10.04 0-19.811 1.294-29.11 3.682-4.625 9.56-8.219 16.921-8.459 17.02-0.243 0.098-8.07-2.779-18.16-6.519-17.977 9.801-33.07 24.19-43.74 41.6 3.648 10.444 6.478 18.708 6.469 19.21 15.923-35.523 51.55-60.31 93-60.31 56.28 0 101.91 45.627 101.91 101.91 0 13.2-2.548 25.844-7.116 37.42 2.516-1.27 9.488-4.533 18.16-8.509 2.356-9.242 3.633-18.938 3.633-28.911 0-10.642-1.459-20.957-4.13-30.752-10.01-4.839-17.864-8.66-17.964-8.907-0.098-0.244 2.833-8.201 6.618-18.412-10.301-17.899-25.24-32.755-43.14-43.04-9.959 3.465-17.627 6.072-17.864 5.971s-3.623-7.415-8.01-16.969c-10.194-2.912-20.967-4.478-32.1-4.478m-86.93 2.588c-8.601 6.569-16.425 14.08-23.338 22.392 1.768 5.04 3.287 9.492 5.076 14.58 9.05-12.333 20.19-23.05 32.942-31.548-5.099-1.903-9.606-3.537-14.679-5.424m176.3 1.891c-5.114 1.79-9.656 3.379-14.779 5.175 12.681 8.862 23.716 19.937 32.544 32.643 1.886-5.05 3.55-9.497 5.424-14.53-6.813-8.621-14.601-16.434-23.19-23.288m-89.37 22.293c-49.606 0-89.82 40.21-89.82 89.82 0 49.606 40.21 89.87 89.82 89.87 49.606 0 89.82-40.26 89.82-89.87 0-49.606-40.21-89.82-89.82-89.82m-93.1 48.37c-0.398 0.375-8.574 4.141-18.859 8.857-3 10.342-4.628 21.283-4.628 32.593 0 9.07 1.075 17.896 3.035 26.373 8.158 3.936 14.803 7.157 17.814 8.708-4-10.926-6.17-22.769-6.17-35.08 0-14.772 3.154-28.78 8.808-41.45m-34.882 16.17c-4.99 2.277-9.28 4.274-14.182 6.519-0.802 6.138-1.194 12.403-1.194 18.76 0 4.135 0.155 8.245 0.498 12.291 4.761 2.295 8.924 4.282 13.784 6.618-0.897-6.174-1.344-12.487-1.344-18.909 0-8.651 0.831-17.1 2.438-25.279m256.32 2.189c1.338 7.492 2.04 15.211 2.04 23.09 0 7.429-0.649 14.706-1.841 21.795 4.912-2.242 9.144-4.209 13.983-6.419 0.538-5.05 0.846-10.186 0.846-15.376 0-5.499-0.343-10.934-0.945-16.272-4.872-2.348-9.153-4.447-14.08-6.817m-284.19 10.599c-10.625 4.909-18.757 8.728-18.76 9.01-0.003 0.277 7.953 4.245 18.362 9.305-0.071-1.931-0.1-3.874-0.1-5.822 0-4.201 0.172-8.373 0.498-12.49m311.85 2.737c0.198 3.221 0.299 6.482 0.299 9.753 0 3.085-0.073 6.165-0.249 9.206 10.868-4.999 19.255-8.923 19.258-9.206 0.003-0.285-8.407-4.46-19.307-9.753m-250.45 48.07c-1.125 3.284-3.736 10.473-6.967 19.16 9.626 16.958 23.346 31.31 39.859 41.6 8.23-2.872 15.14-5.23 18.909-6.469-23.44-10.818-42.06-30.27-51.801-54.29m188.49 0.995c-10.07 24.08-29.11 43.47-52.946 53.991 3.579 1.248 10.44 3.793 18.71 6.867 16.867-10.11 30.922-24.417 40.854-41.4-3.205-9.173-5.756-16.662-6.618-19.457m-201.58 34.435c-1.928 5.161-3.553 9.555-5.424 14.58 6.152 7.859 13.12 15.08 20.75 21.497 5.01-1.749 9.377-3.271 14.53-5.076-11.585-8.605-21.674-19.09-29.857-31m214.02 1.493c-8.434 11.922-18.832 22.352-30.703 30.852 5.105 1.905 9.451 3.52 14.431 5.374 7.874-6.385 15.03-13.606 21.397-21.497-1.777-5.076-3.303-9.539-5.125-14.729m-144.36 19.407c1.73 3.603 4.799 10.268 8.459 18.262 9.387 2.439 19.259 3.732 29.409 3.732 9.619 0 18.975-1.186 27.916-3.384 3.886-8.07 7.112-14.772 8.857-18.213-11.415 4.422-23.797 6.867-36.773 6.867-13.39 0-26.16-2.571-37.868-7.265m-80.31 7.763c-3.803 10.327-6.607 18.12-6.419 18.312 0.187 0.191 8.03-2.436 18.412-6.02-4.196-3.887-8.243-7.969-11.992-12.291m234.77 1.692c-3.929 4.4-8.092 8.609-12.49 12.54 10.534 3.885 18.566 6.758 18.76 6.568 0.195-0.191-2.551-8.37-6.27-19.11m-138.88 24.433c2.271 4.976 4.211 9.161 6.419 13.983 5.209 0.574 10.512 0.896 15.874 0.896 4.61 0 9.186-0.221 13.684-0.647 2.312-4.803 4.34-8.98 6.718-13.933-6.649 1.045-13.459 1.592-20.402 1.592-7.6 0-15.05-0.643-22.293-1.891m12.639 27.518c4.542 9.818 7.996 17.16 8.26 17.17 0.265 0.003 3.877-7.275 8.609-17.02-2.388 0.108-4.801 0.149-7.215 0.149-3.238 0-6.465-0.104-9.654-0.299" fill="#fff"/>
</svg>
