<?xml version="1.0" encoding="UTF-8" standalone="no"?>
<svg
   xmlns:dc="http://purl.org/dc/elements/1.1/"
   xmlns:cc="http://creativecommons.org/ns#"
   xmlns:rdf="http://www.w3.org/1999/02/22-rdf-syntax-ns#"
   xmlns:svg="http://www.w3.org/2000/svg"
   xmlns="http://www.w3.org/2000/svg"
   xmlns:sodipodi="http://sodipodi.sourceforge.net/DTD/sodipodi-0.dtd"
   xmlns:inkscape="http://www.inkscape.org/namespaces/inkscape"
   height="512"
   width="512"
   version="1.1"
   viewBox="0 0 512 512"
   id="svg2"
   inkscape:version="0.91 r"
   sodipodi:docname="nm-signal-100.svg">
  <defs
     id="defs18" />
  <sodipodi:namedview
     pagecolor="#ffffff"
     bordercolor="#666666"
     borderopacity="1"
     objecttolerance="10"
     gridtolerance="10"
     guidetolerance="10"
     inkscape:pageopacity="0"
     inkscape:pageshadow="2"
     inkscape:window-width="1678"
     inkscape:window-height="997"
     id="namedview16"
     showgrid="false"
     inkscape:zoom="0.4609375"
     inkscape:cx="-490.30508"
     inkscape:cy="236.47458"
     inkscape:window-x="0"
     inkscape:window-y="0"
     inkscape:window-maximized="0"
     inkscape:current-layer="svg2" />
  <metadata
     id="metadata70">
    <rdf:RDF>
      <cc:Work
         rdf:about="">
        <dc:format>image/svg+xml</dc:format>
        <dc:type
           rdf:resource="http://purl.org/dc/dcmitype/StillImage" />
      </cc:Work>
    </rdf:RDF>
  </metadata>
  <path
     id="path3595"
     fill="#fff"
     d="m366.83 279.88c-13.892 0-27.946 9.2837-27.946 23.358v25.599h-10.307v57.19h77.426v-57.19h-10.621v-26.312c0-10.576-10.938-22.646-28.553-22.646zm-0.20949 12.821c7.4798-0.0391 15.628 5.1775 15.628 13.135v23.002h-30.669l0.0208-0.0209v-22.876c0-8.6302 8.5856-13.206 15.02-13.24z"
     fill-rule="evenodd" />
  <path
     id="path8"
     d="m471.95 253.05c0 120.9-98.006 218.91-218.91 218.91s-218.91-98.006-218.91-218.91 98.006-218.91 218.91-218.91 218.91 98.006 218.91 218.91"
     fill-rule="evenodd"
     fill="#ef6a47"
     style="fill:#BF9E73;fill-opacity:1" />
  <path
     id="path6181"
     opacity="0.25"
     d="m330.25 143.22c16.453 7.0111 32.329 15.951 47.281 26.406-14.36-10.31-30.39-19.3-47.28-26.41zm-182.59 10.875c-1.3852 0.76075-2.7537 1.5268-4.125 2.3125 1.3753-0.7873 2.7382-1.5515 4.125-2.3125zm246.31 28.5c-122.37 149.22-45.56 56.63-107.22 131.21-7.8969-11.818-21.345-19.594-36.625-19.594-15.025 0-28.272 7.513-36.219 19 0.92643 1.0992 1.8553 2.217 2.7812 3.3125 6.8204 2.8999 7.9914 7.868 8 13.656 3.4173-10.742 13.473-18.531 25.344-18.531 0.45879 0 0.92192 0.008 1.375 0.0312 0.0309 0.001 0.063-0.002 0.0937 0 0.42136 0.0228 0.83409 0.0828 1.25 0.125 0.0309 0.003 0.0628-0.003 0.0937 0 0.41492 0.0436 0.80974 0.0937 1.2188 0.15625 12.819 1.8983 22.656 12.934 22.656 26.281s-9.8369 24.383-22.656 26.281c-1.29 0.19713-2.5935 0.30786-3.9375 0.3125-0.49052 0-0.98477-0.005-1.4688-0.0312-0.42174-0.0214-0.83367-0.0842-1.25-0.125-0.0308-0.003-0.0631 0.003-0.0937 0-0.41606-0.0423-0.83983-0.095-1.25-0.15625-0.031-0.005-0.0628 0.005-0.0937 0-4.347-0.66426-8.3337-2.3727-11.719-4.875 32.856 32.55 65.949 64.857 99.094 97.125 79.169-31.23 135.75-107.31 138.5-196.91-22.112-21.875-43.989-43.766-65.656-65.688-3.8278-3.9685-7.9129-7.838-12.219-11.594zm-250.66 45.09c16.087 19.677 32.181 39.38 48.219 58.75-2.3252-2.8504-29.844-36.387-48.219-58.75zm83.875 124.22c0.36166 0.62367 0.7623 1.236 1.2188 1.8438-0.42897-0.59739-0.83952-1.2108-1.2188-1.8438z"
     fill-rule="evenodd"
     color="#000000" />
  <path
     id="path10"
     fill-opacity="0.067"
     d="m256 1c-140.83 0-255 114.17-255 255s114.17 255 255 255 255-114.17 255-255-114.17-255-255-255m8.827 44.931c120.9 0 218.9 98 218.9 218.9s-98 218.9-218.9 218.9-218.93-98-218.93-218.9 98.03-218.9 218.93-218.9"
     fill-rule="evenodd" />
  <path
     id="path14"
     fill-opacity="0.129"
     d="m256 4.43c-138.94 0-251.57 112.63-251.57 251.57s112.63 251.57 251.57 251.57 251.57-112.63 251.57-251.57-112.63-251.57-251.57-251.57m5.885 38.556c120.9 0 218.9 98 218.9 218.9s-98 218.9-218.9 218.9-218.93-98-218.93-218.9 98.03-218.9 218.93-218.9"
     fill-rule="evenodd" />
  <path
     id="path16"
     fill-opacity="0.129"
     d="m256 8.36c-136.77 0-247.64 110.87-247.64 247.64s110.87 247.64 247.64 247.64 247.64-110.87 247.64-247.64-110.87-247.64-247.64-247.64m2.942 31.691c120.9 0 218.9 98 218.9 218.9s-98 218.9-218.9 218.9-218.93-98-218.93-218.9 98.03-218.9 218.93-218.9"
     fill-rule="evenodd" />
  <path
     id="path18"
     d="m253.04 7.86c-135.42 0-245.19 109.78-245.19 245.19 0 135.42 109.78 245.19 245.19 245.19 135.42 0 245.19-109.78 245.19-245.19 0-135.42-109.78-245.19-245.19-245.19zm0 26.297c120.9 0 218.9 98 218.9 218.9s-98 218.9-218.9 218.9-218.93-98-218.93-218.9 98.03-218.9 218.93-218.9z"
     stroke-opacity="0.31"
     fill-rule="evenodd"
     stroke="#000"
     stroke-width="4.904"
     fill="#fff" />
  <path
     id="path3093"
     d="m250.12 125.97c-51.147 0-102.29 22.194-144.12 56.281 122.39 149.05 47.827 58.107 107.69 131.28 7.921-11.665 21.275-19.312 36.438-19.312 15.28 0 28.728 7.7756 36.625 19.594 61.715-74.656-15.364 18.258 107.5-131.56-41.833-34.087-92.978-56.281-144.12-56.281zm51.44 22.53c1.0327 0.30619 2.0658 0.61483 3.0938 0.9375-1.0255-0.32188-2.0635-0.63202-3.0938-0.9375z"
     fill-rule="evenodd"
     fill="#fff"
     color="#000000" />
  <path
     id="path3189"
     opacity="0.4"
     d="m250.12 311.67c-14.681 0-26.584 11.903-26.584 26.584s11.903 26.584 26.584 26.584 26.584-11.903 26.584-26.584-11.903-26.584-26.584-26.584z"
     fill-rule="evenodd"
     fill="#fff"
     color="#000000" />
  <path
     id="path4413"
     fill="#fff"
     d="m250.03 311.67c-14.681 0-26.584 11.903-26.584 26.584s11.903 26.584 26.584 26.584 26.584-11.903 26.584-26.584-11.903-26.584-26.584-26.584z" />
  <path
     id="path9270"
     fill="#fff"
     d="m250.11 179.37c-43.024 0-82.542 14.999-113.67 39.991 46.253 56.306 29.136 35.436 77.195 94.184 7.9209-11.665 21.288-19.314 36.45-19.314 15.28 0 28.742 7.7688 36.639 19.587 55.434-67.058 0.11375-0.42314 77.069-94.436-31.13-25.009-70.679-40.012-113.69-40.012z" />
</svg>
