<?xml version="1.0" encoding="UTF-8" standalone="no"?>
<svg
   xmlns:dc="http://purl.org/dc/elements/1.1/"
   xmlns:cc="http://creativecommons.org/ns#"
   xmlns:rdf="http://www.w3.org/1999/02/22-rdf-syntax-ns#"
   xmlns:svg="http://www.w3.org/2000/svg"
   xmlns="http://www.w3.org/2000/svg"
   xmlns:sodipodi="http://sodipodi.sourceforge.net/DTD/sodipodi-0.dtd"
   xmlns:inkscape="http://www.inkscape.org/namespaces/inkscape"
   sodipodi:docname="node-red-icon.svg"
   inkscape:version="0.91 r13725"
   id="svg2"
   version="1.1"
   width="512"
   viewBox="0 0 512 512"
   height="512">
  <defs
     id="defs17" />
  <sodipodi:namedview
     inkscape:current-layer="svg2"
     inkscape:window-maximized="1"
     inkscape:window-y="0"
     inkscape:window-x="1920"
     inkscape:cy="226.82479"
     inkscape:cx="465.84419"
     inkscape:zoom="0.77333067"
     showgrid="false"
     id="namedview15"
     inkscape:window-height="1023"
     inkscape:window-width="1680"
     inkscape:pageshadow="2"
     inkscape:pageopacity="0"
     guidetolerance="10"
     gridtolerance="10"
     objecttolerance="10"
     borderopacity="1"
     bordercolor="#666666"
     pagecolor="#ffffff" />
  <metadata
     id="metadata28">
    <rdf:RDF>
      <cc:Work
         rdf:about="">
        <dc:format>image/svg+xml</dc:format>
        <dc:type
           rdf:resource="http://purl.org/dc/dcmitype/StillImage" />
        <dc:title></dc:title>
      </cc:Work>
    </rdf:RDF>
  </metadata>
  <path
     style="fill:#BF9E73;fill-rule:evenodd;fill-opacity:1"
     inkscape:connector-curvature="0"
     d="m 471.95,253.05 c 0,120.9 -98.01,218.9 -218.9,218.9 -120.9,0 -218.9,-98.01 -218.9,-218.9 0,-120.9 98.01,-218.9 218.9,-218.9 120.9,0 218.9,98.01 218.9,218.9"
     id="path6" />
  <path
     style="fill-opacity:0.06700003;fill-rule:evenodd"
     inkscape:connector-curvature="0"
     d="M 256,1 C 115.17,1 1,115.17 1,256 1,396.83 115.17,511 256,511 396.83,511 511,396.83 511,256 511,115.17 396.83,1 256,1 m 8.827,44.931 c 120.9,0 218.9,98 218.9,218.9 0,120.9 -98,218.9 -218.9,218.9 -120.9,0 -218.93,-98 -218.93,-218.9 0,-120.9 98.03,-218.9 218.93,-218.9"
     id="path8" />
  <g
     style="fill-opacity:0.12900002;fill-rule:evenodd"
     id="g10">
    <path
       inkscape:connector-curvature="0"
       d="m 256,4.433 c -138.94,0 -251.57,112.63 -251.57,251.57 0,138.94 112.63,251.57 251.57,251.57 138.94,0 251.57,-112.63 251.57,-251.57 C 507.57,117.063 394.94,4.433 256,4.433 m 5.885,38.556 c 120.9,0 218.9,98 218.9,218.9 0,120.9 -98,218.9 -218.9,218.9 -120.9,0 -218.93,-98 -218.93,-218.9 0,-120.9 98.03,-218.9 218.93,-218.9"
       id="path12" />
    <path
       inkscape:connector-curvature="0"
       d="m 256,8.356 c -136.77,0 -247.64,110.87 -247.64,247.64 0,136.77 110.87,247.64 247.64,247.64 136.77,0 247.64,-110.87 247.64,-247.64 C 503.64,119.226 392.77,8.356 256,8.356 m 2.942,31.691 c 120.9,0 218.9,98 218.9,218.9 0,120.9 -98,218.9 -218.9,218.9 -120.9,0 -218.93,-98 -218.93,-218.9 0,-120.9 98.03,-218.9 218.93,-218.9"
       id="path14" />
  </g>
  <path
     style="fill:#ffffff;fill-rule:evenodd;stroke:#000000;stroke-width:4.90399981;stroke-opacity:0.31000001"
     inkscape:connector-curvature="0"
     d="m 253.04,7.859 c -135.42,0 -245.19,109.78 -245.19,245.19 0,135.42 109.78,245.19 245.19,245.19 135.42,0 245.19,-109.78 245.19,-245.19 0,-135.42 -109.78,-245.19 -245.19,-245.19 z m 0,26.297 c 120.9,0 218.9,98 218.9,218.9 0,120.9 -98,218.9 -218.9,218.9 -120.9,0 -218.93,-98 -218.93,-218.9 0,-120.9 98.03,-218.9 218.93,-218.9 z"
     id="path16" />
  <g
     id="g4329"
     transform="matrix(1.1894404,0,0,1.1894404,-27.495423,-112.05365)"
     style="stroke:#ffffff;stroke-opacity:1">
    <rect
       ry="20.116037"
       y="268.77881"
       x="74.063591"
       height="49.375729"
       width="123.43932"
       id="rect4289"
       style="opacity:1;fill:none;fill-opacity:1;stroke:#ffffff;stroke-width:12.30000019;stroke-linejoin:round;stroke-miterlimit:3.9000001;stroke-dasharray:none;stroke-opacity:1" />
    <rect
       ry="20.116037"
       y="338.27057"
       x="266.53751"
       height="49.375729"
       width="123.43932"
       id="rect4289-3"
       style="opacity:1;fill:none;fill-opacity:1;stroke:#ffffff;stroke-width:12.30000019;stroke-linejoin:round;stroke-miterlimit:3.9000001;stroke-dasharray:none;stroke-opacity:1" />
    <rect
       ry="20.116037"
       y="225.80363"
       x="244.59274"
       height="49.375729"
       width="123.43932"
       id="rect4289-6"
       style="opacity:1;fill:none;fill-opacity:1;stroke:#ffffff;stroke-width:12.30000019;stroke-linejoin:round;stroke-miterlimit:3.9000001;stroke-dasharray:none;stroke-opacity:1" />
    <path
       sodipodi:nodetypes="ccc"
       inkscape:connector-curvature="0"
       id="path4312"
       d="m 200.24601,304.43906 c 37.54168,3.16269 40.28745,23.00576 45.51275,34.69542 8.84205,45.49322 23.06466,21.99524 23.06466,21.99524"
       style="fill:none;fill-rule:evenodd;stroke:#ffffff;stroke-width:9.69999981;stroke-linecap:butt;stroke-linejoin:miter;stroke-miterlimit:4;stroke-dasharray:none;stroke-opacity:1" />
    <path
       sodipodi:nodetypes="ccc"
       inkscape:connector-curvature="0"
       id="path4312-7"
       d="m 184.65952,271.68067 c 17.88283,-26.55418 16.05677,-24.99841 35.45473,-25.65269 17.98571,2.51805 25.35058,4.16512 25.35058,4.16512"
       style="fill:none;fill-rule:evenodd;stroke:#ffffff;stroke-width:9.69999981;stroke-linecap:butt;stroke-linejoin:miter;stroke-miterlimit:4;stroke-dasharray:none;stroke-opacity:1" />
  </g>
</svg>
