<?xml version="1.0" encoding="UTF-8" standalone="no"?>
<svg
   xmlns:dc="http://purl.org/dc/elements/1.1/"
   xmlns:cc="http://creativecommons.org/ns#"
   xmlns:rdf="http://www.w3.org/1999/02/22-rdf-syntax-ns#"
   xmlns:svg="http://www.w3.org/2000/svg"
   xmlns="http://www.w3.org/2000/svg"
   xmlns:sodipodi="http://sodipodi.sourceforge.net/DTD/sodipodi-0.dtd"
   xmlns:inkscape="http://www.inkscape.org/namespaces/inkscape"
   height="512"
   viewBox="0 0 512 512"
   width="512"
   version="1.1"
   id="svg2"
   inkscape:version="0.91 r13725"
   sodipodi:docname="semn.svg">
  <defs
     id="defs17" />
  <sodipodi:namedview
     pagecolor="#ffffff"
     bordercolor="#666666"
     borderopacity="1"
     objecttolerance="10"
     gridtolerance="10"
     guidetolerance="10"
     inkscape:pageopacity="0"
     inkscape:pageshadow="2"
     inkscape:window-width="537"
     inkscape:window-height="992"
     id="namedview15"
     showgrid="false"
     inkscape:zoom="0.4609375"
     inkscape:cx="376.1752"
     inkscape:cy="256"
     inkscape:window-x="1127"
     inkscape:window-y="16"
     inkscape:window-maximized="0"
     inkscape:current-layer="svg2" />
  <metadata
     id="metadata120">
    <rdf:RDF>
      <cc:Work
         rdf:about="">
        <dc:format>image/svg+xml</dc:format>
        <dc:type
           rdf:resource="http://purl.org/dc/dcmitype/StillImage" />
      </cc:Work>
    </rdf:RDF>
  </metadata>
  <path
     id="path50"
     d="m471.95 253.05c0 120.9-98.01 218.9-218.9 218.9-120.9 0-218.9-98.01-218.9-218.9 0-120.9 98.01-218.9 218.9-218.9 120.9 0 218.9 98.01 218.9 218.9"
     fill-rule="evenodd"
     fill="#BF9E73" />
  <path
     id="path52"
     fill-opacity="0.235"
     d="m138 149.81v23.594h1v1h1v1h1v1h0.969v0.969h1v1h1v1h1v1h1v1h1v1h0.969v0.969h1v1h1v1h1v1h1v1h1v1h0.969v0.969h1v1h1v1h1v1h1v1h1v1h0.969v0.969h1v1h1v0.719h-23.875v23.594h1v1h1v1h1v1h0.969v0.969h1v1h1v1h1v1h1v1h1v1h0.969v0.969h1v1h1v1h1v1h1v1h1v1h0.969v0.969h1v1h1v1h1v1h1v1h1v1h0.969v0.969h1v1h1v0.719h-23.875v23.625h1v1h1v1h1v1h0.969v0.969h1v1h1v1h1v1h1v1h1v1h0.969v0.969h1v1h1v1h1v1h1v1h1v1h0.969v0.969h1v1h1v1h1v1h1v1h1v1h0.969v0.969h1v1h1v0.719h-23.875v23.594h1v1h1v1h1v1h0.969v0.969h1v1h1v1h1v1h1v1h1v1h0.969v0.969h1v1h1v1h1v1h1v1h1v1h0.969v0.969h1v1h1v1h1v1h1v1h1v1h0.969v0.969h1v1h1v0.719h-23.875v23.594h1v1h1v1h1v1h0.969v0.969h1v1h1v1h1v1h1v1h1v1h0.969v0.969h1v1h1v1h1v1h1v1h1v1h0.969v0.969h1v1h1v1h1v1h1v1h1v1h0.969v0.969h1v1h1v1h1v1h1v1h1v1h1v1h0.969v0.969h1v1h1v1h1v1h1v1h1v1h0.969v0.969h1v1h1v1h1v1h1v1h1v1h0.969v0.969h1v1h1v1h1v1h1v1h1v1h1v1h0.969v0.969h1v1h1v1h1v1h1v1h1v1h0.969v0.969h1v1h1v1h1v1h1v1h1v1h0.969v0.969h1v1h1v1h1v1h1v1h1v1h0.969v0.969h1v1h1v1h1v1h1v1h1v1h1v1h0.969v0.969h1v1h1v1h1v1h1v1h1v1h0.969v0.969h1v1h1v1h1v1h1v1h1v1h0.969v0.969h1v1h1v1h1v1h1v1h1v1h1v1h0.969v0.969h1v1h1v1h1v1h1v1h1v1h0.969v0.969h1v1h1v1h1v1h1v1h1v1h0.969v0.969h1v1h1v1h1v1h1v1h1v1h0.969v0.969h1v0.281c1.535 0.032 3.051 0.063 4.594 0.063 120.9 0 218.91-98.01 218.91-218.91 0-1.586-0.029-3.172-0.063-4.75h-0.375v-1h-0.969v-0.969h-1v-1h-1v-1h-1v-1h-1v-1h-1v-1h-0.969v-0.969h-1v-1h-1v-1h-1v-1h-1v-1h-1v-1h-1v-1h-0.969v-0.969h-1v-1h-1v-1h-1v-1h-1v-1h-1v-1h-0.969v-0.969h-1v-1h-1v-1h-1v-1h-1v-1h-1v-1h-0.969v-0.969h-1v-1h-1v-1h-1v-1h-1v-1h-1v-1h-1v-1h-0.969v-0.969h-1v-1h-1v-1h-1v-1h-1v-1h-1v-1h-0.969v-0.969h-1v-1h-1v-1h-1v-1h-1v-1h-1v-1h-0.969v-0.969h-1v-1h-1v-1h-1v-1h-1v-1h-1v-1h-0.969v-0.969h-1v-1h-1v-1h-1v-1h-1v-1h-1v-1h-1v-1h-0.969v-0.969h-1v-1h-1v-1h-1v-1h-1v-1h-1v-1h-0.969v-0.969h-1v-1h-1v-1h-1v-1h-1v-1h-1v-1h-0.969v-0.969h-1v-1h-1v-1h-1v-1h-1v-1h-1v-1h-1v-1h-0.969v-0.969h-1v-1h-1v-1h-1v-1h-1v-1h-1v-1h-0.969v-0.969h-1v-1h-1v-1h-1v-1h-1v-1h-1v-1h-0.969v-0.969h-1v-1h-1v-1h-1v-1h-1v-1h-1v-1h-0.969v-0.969h-1v-1h-1v-1h-1v-1h-236" />
  <g
     id="g54"
     fill-rule="evenodd">
    <path
       id="path56"
       fill-opacity="0.067"
       d="m256 1c-140.83 0-255 114.17-255 255s114.17 255 255 255 255-114.17 255-255-114.17-255-255-255m8.827 44.931c120.9 0 218.9 98 218.9 218.9s-98 218.9-218.9 218.9-218.93-98-218.93-218.9 98.03-218.9 218.93-218.9" />
    <g
       id="g58"
       fill-opacity="0.129">
      <path
         id="path60"
         d="m256 4.433c-138.94 0-251.57 112.63-251.57 251.57s112.63 251.57 251.57 251.57 251.57-112.63 251.57-251.57-112.63-251.57-251.57-251.57m5.885 38.556c120.9 0 218.9 98 218.9 218.9s-98 218.9-218.9 218.9-218.93-98-218.93-218.9 98.03-218.9 218.93-218.9" />
      <path
         id="path62"
         d="m256 8.356c-136.77 0-247.64 110.87-247.64 247.64s110.87 247.64 247.64 247.64 247.64-110.87 247.64-247.64-110.87-247.64-247.64-247.64m2.942 31.691c120.9 0 218.9 98 218.9 218.9s-98 218.9-218.9 218.9-218.93-98-218.93-218.9 98.03-218.9 218.93-218.9" />
    </g>
    <path
       id="path64"
       d="m253.04 7.859c-135.42 0-245.19 109.78-245.19 245.19 0 135.42 109.78 245.19 245.19 245.19 135.42 0 245.19-109.78 245.19-245.19 0-135.42-109.78-245.19-245.19-245.19zm0 26.297c120.9 0 218.9 98 218.9 218.9s-98 218.9-218.9 218.9-218.93-98-218.93-218.9 98.03-218.9 218.93-218.9z"
       stroke-opacity="0.31"
       stroke="#000"
       stroke-width="4.904"
       fill="#fff" />
  </g>
  <path
     id="path112"
     fill="#BF9E73"
     d="m108.84 149.88v23.563h206.28c5.514-5.566 11.02-11.13 16.5-16.719 0.437-2.528 4.01-2.226 4.406-3.969 1.032-0.895 2.02-1.865 3-2.875h-230.19m0 47.16v23.563h159.19c7.881-7.855 15.759-15.699 23.625-23.563h-182.81m0 47.19v23.594h112.06c7.784-7.875 15.602-15.752 23.438-23.594h-135.5m0 47.22v23.563h84.34c2.641-7.814 5.221-15.652 7.406-23.563h-91.75m230.28 0c-7.861 7.854-15.704 15.706-23.563 23.563h29.25v-23.56h-5.688m-230.28 47.16v23.594h70.47c1.542-7.968 3.688-15.803 6.094-23.594h-76.56"
     style="fill:#ffffff" />
  <path
     id="path114"
     fill="#fff"
     d="m365.05 139.22c-2.919 0.151-5.467 1.091-7.339 2.904l-0.106 0.106-13.832 13.885-0.291 0.291 0.291 0.291 59.16 59.13 0.317 0.291 0.291-0.291 13.651-13.674 0.185-0.185c0.068-0.068 0.097-0.142 0.106-0.159 3.327-3.47 3.679-9.117 1.663-15.416-2.024-6.324-6.434-13.377-12.772-19.719l-13.41-13.436c-8.763-8.764-18.874-13.846-26.609-14.02-0.421-0.009-0.864-0.022-1.293 0m-28.641 24.23-0.291 0.317-14.625 14.651-0.291 0.291 0.291 0.317 59.13 59.1 0.291 0.317 0.317-0.317 14.625-14.651 0.291-0.291-0.291-0.291-59.13-59.13-0.317-0.317m-23.677 23.677-0.317 0.291-89.22 89.3-11.03 10.981-2.772 2.799-0.079 0.053-0.026 0.106-22.306 69.824-0.026 0.026c-0.802 3.762 0.426 7.933 3.088 10.453l0.026 0.026c2.468 1.846 5.745 2.307 8.553 1.188h0.026l70.771-22.359 0.079-0.026 0.079-0.079 2.297-2.323 10.665-10.638 89.62-89.59 0.291-0.317-0.291-0.291-59.13-59.13-0.291-0.291m-87.5 113.45h0.052c0.084-0.003 0.154-0.003 0.237 0 0.009 0 0.017-0.001 0.026 0h0.026c0.775 0.01 1.515 0.345 2.059 0.898l5.094 5.068 19.16-1c0.008-0.001 0.018 0 0.026 0 0.758-0.034 1.515 0.239 2.086 0.739 0.672 0.594 1.051 1.48 1 2.376l-0.95 20.933 3.722 3.722c0.737 0.741 1.039 1.842 0.765 2.851-0.274 1.01-1.102 1.818-2.112 2.086l-33.366 8.949h-0.026c-1 0.275-2.108-0.014-2.851-0.739h-0.026l-6.467-6.467c-0.759-0.749-1.057-1.878-0.765-2.904l9.767-34.32c0.307-1.162 1.34-2.057 2.534-2.191"
     color="#000000" />
</svg>
