<?xml version="1.0" encoding="UTF-8" standalone="no"?>
<svg xmlns="http://www.w3.org/2000/svg" height="512" viewBox="0 0 512 512" width="512" version="1.1">
 <metadata id="metadata72"/>
 <path id="path4" d="m471.95 253.05c0 120.9-98.01 218.9-218.9 218.9-120.9 0-218.9-98.01-218.9-218.9 0-120.9 98.01-218.9 218.9-218.9 120.9 0 218.9 98.01 218.9 218.9" fill-rule="evenodd" fill="#BF9E73"/>
 <path id="path6" fill-opacity="0.235" d="m223.5 148.38c-39.22 0-70.844 30.914-70.844 68.813 0 4.737 0.523 9.346 1.469 13.813-26.996 9.719-46.47 34.622-46.47 64.09 0 18.16 7.363 34.629 19.313 46.875 0.066 0.071 0.121 0.148 0.188 0.219 0.456 0.464 0.906 0.924 1.375 1.375 0.332 0.333 0.661 0.674 1 1 0.332 0.333 0.661 0.674 1 1 0.332 0.333 0.661 0.674 1 1 0.397 0.397 0.781 0.8 1.188 1.188 0.408 0.405 0.801 0.824 1.219 1.219 0.06 0.064 0.127 0.123 0.188 0.188 0.127 0.124 0.247 0.252 0.375 0.375 0.332 0.333 0.661 0.674 1 1 0.332 0.333 0.661 0.674 1 1 0.332 0.333 0.661 0.674 1 1 0.397 0.397 0.781 0.8 1.188 1.188 0.408 0.405 0.801 0.824 1.219 1.219 0.06 0.064 0.127 0.123 0.188 0.188 0.174 0.17 0.355 0.331 0.531 0.5 0.105 0.104 0.207 0.209 0.313 0.313 0.056 0.059 0.1 0.128 0.156 0.188 0.127 0.124 0.247 0.252 0.375 0.375 0.332 0.333 0.661 0.674 1 1 0.332 0.333 0.661 0.674 1 1 0.332 0.333 0.661 0.674 1 1 0.468 0.468 0.924 0.951 1.406 1.406 0.061 0.065 0.126 0.123 0.188 0.188 0.174 0.17 0.355 0.331 0.531 0.5 0.105 0.104 0.207 0.209 0.313 0.313 0.056 0.059 0.1 0.128 0.156 0.188 0.127 0.124 0.247 0.252 0.375 0.375 0.332 0.333 0.661 0.674 1 1 0.332 0.333 0.661 0.674 1 1 0.332 0.333 0.661 0.674 1 1 0.454 0.454 0.908 0.902 1.375 1.344 0.076 0.081 0.142 0.169 0.219 0.25 0.01 0.011 0.021 0.021 0.031 0.031 0.164 0.16 0.334 0.31 0.5 0.469 0.105 0.104 0.207 0.209 0.313 0.313 0.056 0.059 0.1 0.128 0.156 0.188 0.127 0.124 0.247 0.252 0.375 0.375 0.332 0.333 0.661 0.674 1 1 0.332 0.333 0.661 0.674 1 1 0.332 0.333 0.661 0.674 1 1 0.397 0.397 0.781 0.8 1.188 1.188 0.408 0.405 0.801 0.824 1.219 1.219 0.06 0.064 0.127 0.123 0.188 0.188 0.174 0.17 0.355 0.331 0.531 0.5 0.105 0.104 0.207 0.209 0.313 0.313 0.056 0.059 0.1 0.128 0.156 0.188 0.127 0.124 0.247 0.252 0.375 0.375 0.332 0.333 0.661 0.674 1 1 0.332 0.333 0.661 0.674 1 1 0.397 0.397 0.781 0.8 1.188 1.188 0.408 0.405 0.801 0.824 1.219 1.219 0.06 0.064 0.127 0.123 0.188 0.188 0.174 0.17 0.355 0.331 0.531 0.5 0.105 0.104 0.207 0.209 0.313 0.313 0.056 0.059 0.1 0.128 0.156 0.188 0.127 0.124 0.247 0.252 0.375 0.375 0.332 0.333 0.661 0.674 1 1 0.332 0.333 0.661 0.674 1 1 0.332 0.333 0.661 0.674 1 1 0.454 0.454 0.908 0.902 1.375 1.344 0.076 0.081 0.142 0.169 0.219 0.25 0.01 0.011 0.021 0.021 0.031 0.031 0.164 0.16 0.334 0.31 0.5 0.469 0.105 0.104 0.207 0.209 0.313 0.313 0.056 0.059 0.1 0.128 0.156 0.188 0.127 0.124 0.247 0.252 0.375 0.375 0.332 0.333 0.661 0.674 1 1 0.332 0.333 0.661 0.674 1 1 0.332 0.333 0.661 0.674 1 1 0.454 0.454 0.908 0.902 1.375 1.344 0.076 0.081 0.142 0.169 0.219 0.25 0.01 0.011 0.021 0.021 0.031 0.031 0.164 0.16 0.334 0.31 0.5 0.469 0.105 0.104 0.207 0.209 0.313 0.313 0.056 0.059 0.1 0.128 0.156 0.188 0.127 0.124 0.247 0.252 0.375 0.375 0.332 0.333 0.661 0.674 1 1 0.332 0.333 0.661 0.674 1 1 0.332 0.333 0.661 0.674 1 1 0.397 0.397 0.781 0.8 1.188 1.188 0.408 0.405 0.801 0.824 1.219 1.219 0.06 0.064 0.127 0.123 0.188 0.188 0.174 0.17 0.355 0.331 0.531 0.5 0.105 0.104 0.207 0.209 0.313 0.313 0.056 0.059 0.1 0.128 0.156 0.188 0.127 0.124 0.247 0.252 0.375 0.375 0.332 0.333 0.661 0.674 1 1 0.332 0.333 0.661 0.674 1 1 0.265 0.265 0.543 0.52 0.813 0.781 0.01 0.011 0.021 0.021 0.031 0.031 0.058 0.056 0.098 0.131 0.156 0.188 0.468 0.468 0.924 0.951 1.406 1.406 0.061 0.065 0.126 0.123 0.188 0.188 0.174 0.17 0.355 0.331 0.531 0.5 0.105 0.104 0.207 0.209 0.313 0.313 0.056 0.059 0.1 0.128 0.156 0.188 0.127 0.124 0.247 0.252 0.375 0.375 0.332 0.333 0.661 0.674 1 1 0.332 0.333 0.661 0.674 1 1 0.332 0.333 0.661 0.674 1 1 0.454 0.454 0.908 0.902 1.375 1.344 0.076 0.081 0.142 0.169 0.219 0.25 0.01 0.011 0.021 0.021 0.031 0.031 0.164 0.16 0.334 0.31 0.5 0.469 0.105 0.104 0.207 0.209 0.313 0.313 0.056 0.059 0.1 0.128 0.156 0.188 0.127 0.124 0.247 0.252 0.375 0.375 0.332 0.333 0.661 0.674 1 1 0.332 0.333 0.661 0.674 1 1 0.332 0.333 0.661 0.674 1 1 0.397 0.397 0.781 0.8 1.188 1.188 0.408 0.405 0.801 0.824 1.219 1.219 0.06 0.064 0.127 0.123 0.188 0.188 0.174 0.17 0.355 0.331 0.531 0.5 0.105 0.104 0.207 0.209 0.313 0.313 0.056 0.059 0.1 0.128 0.156 0.188 0.127 0.124 0.247 0.252 0.375 0.375 0.332 0.333 0.661 0.674 1 1 0.332 0.333 0.661 0.674 1 1 0.397 0.397 0.781 0.8 1.188 1.188 0.408 0.405 0.801 0.824 1.219 1.219 0.06 0.064 0.127 0.123 0.188 0.188 0.174 0.17 0.355 0.331 0.531 0.5 0.105 0.104 0.207 0.209 0.313 0.313 0.056 0.059 0.1 0.128 0.156 0.188 0.127 0.124 0.247 0.252 0.375 0.375 0.332 0.333 0.661 0.674 1 1 0.332 0.333 0.661 0.674 1 1 0.332 0.333 0.661 0.674 1 1 0.454 0.454 0.908 0.902 1.375 1.344 0.076 0.081 0.142 0.169 0.219 0.25 0.01 0.011 0.021 0.021 0.031 0.031 0.164 0.16 0.334 0.31 0.5 0.469 0.105 0.104 0.207 0.209 0.313 0.313 0.056 0.059 0.1 0.128 0.156 0.188 0.127 0.124 0.247 0.252 0.375 0.375 0.332 0.333 0.661 0.674 1 1 0.332 0.333 0.661 0.674 1 1 0.332 0.333 0.661 0.674 1 1 0.454 0.454 0.908 0.902 1.375 1.344 0.076 0.081 0.142 0.169 0.219 0.25 0.01 0.011 0.021 0.021 0.031 0.031 0.164 0.16 0.334 0.31 0.5 0.469 0.105 0.104 0.207 0.209 0.313 0.313 0.056 0.059 0.1 0.128 0.156 0.188 0.127 0.124 0.247 0.252 0.375 0.375 0.332 0.333 0.661 0.674 1 1 0.332 0.333 0.661 0.674 1 1 0.332 0.333 0.661 0.674 1 1 0.397 0.397 0.781 0.8 1.188 1.188 0.408 0.405 0.801 0.824 1.219 1.219 0.06 0.064 0.127 0.123 0.188 0.188 0.174 0.17 0.355 0.331 0.531 0.5 0.105 0.104 0.207 0.209 0.313 0.313 0.056 0.059 0.1 0.128 0.156 0.188 0.127 0.124 0.247 0.252 0.375 0.375 0.332 0.333 0.661 0.674 1 1 0.332 0.333 0.661 0.674 1 1 0.332 0.333 0.661 0.674 1 1 0.468 0.468 0.924 0.951 1.406 1.406 0.061 0.065 0.126 0.123 0.188 0.188 0.174 0.17 0.355 0.331 0.531 0.5 0.105 0.104 0.207 0.209 0.313 0.313 0.056 0.059 0.1 0.128 0.156 0.188 0.127 0.124 0.247 0.252 0.375 0.375 0.332 0.333 0.661 0.674 1 1 0.332 0.333 0.661 0.674 1 1 0.332 0.333 0.661 0.674 1 1 0.454 0.454 0.908 0.902 1.375 1.344 0.076 0.081 0.142 0.169 0.219 0.25 0.01 0.011 0.021 0.021 0.031 0.031 0.164 0.16 0.334 0.31 0.5 0.469 0.105 0.104 0.207 0.209 0.313 0.313 0.056 0.059 0.1 0.128 0.156 0.188 0.127 0.124 0.247 0.252 0.375 0.375 0.332 0.333 0.661 0.674 1 1 0.332 0.333 0.661 0.674 1 1 0.332 0.333 0.661 0.674 1 1 0.397 0.397 0.781 0.8 1.188 1.188 0.408 0.405 0.801 0.824 1.219 1.219 0.06 0.064 0.127 0.123 0.188 0.188 0.174 0.17 0.355 0.331 0.531 0.5 0.105 0.104 0.207 0.209 0.313 0.313 0.056 0.059 0.1 0.128 0.156 0.188 0.127 0.124 0.247 0.252 0.375 0.375 0.332 0.333 0.661 0.674 1 1 0.332 0.333 0.661 0.674 1 1 0.397 0.397 0.781 0.8 1.188 1.188 0.408 0.405 0.801 0.824 1.219 1.219 0.06 0.064 0.127 0.123 0.188 0.188 0.174 0.17 0.355 0.331 0.531 0.5 0.105 0.104 0.207 0.209 0.313 0.313 0.056 0.059 0.1 0.128 0.156 0.188 0.127 0.124 0.247 0.252 0.375 0.375 0.332 0.333 0.661 0.674 1 1 0.332 0.333 0.661 0.674 1 1 0.322 0.322 0.641 0.652 0.969 0.969 101.46-1.747 186.1-72.51 208.97-167.37-0.134-0.126-0.275-0.245-0.406-0.375-0.011-0.01-0.02-0.021-0.031-0.031-0.43-0.448-0.866-0.88-1.313-1.313-0.328-0.335-0.663-0.674-1-1-0.328-0.335-0.663-0.674-1-1-0.191-0.196-0.399-0.37-0.594-0.563-0.021-0.02-0.041-0.042-0.063-0.063-0.116-0.114-0.196-0.262-0.313-0.375-0.21-0.215-0.443-0.414-0.656-0.625-0.054-0.05-0.102-0.106-0.156-0.156-0.068-0.067-0.119-0.152-0.188-0.219-0.212-0.217-0.44-0.412-0.656-0.625-0.011-0.01-0.02-0.021-0.031-0.031-0.43-0.448-0.866-0.88-1.313-1.313-0.328-0.335-0.663-0.674-1-1-0.328-0.335-0.663-0.674-1-1-0.331-0.338-0.66-0.67-1-1-0.326-0.333-0.634-0.675-0.969-1-0.212-0.217-0.44-0.412-0.656-0.625-0.011-0.01-0.02-0.021-0.031-0.031-0.328-0.341-0.663-0.668-1-1-0.43-0.448-0.866-0.88-1.313-1.313-0.328-0.335-0.663-0.674-1-1-0.331-0.338-0.66-0.67-1-1-0.207-0.212-0.414-0.417-0.625-0.625-0.027-0.025-0.067-0.037-0.094-0.063-0.095-0.094-0.154-0.22-0.25-0.313-0.21-0.215-0.443-0.414-0.656-0.625-0.054-0.05-0.102-0.106-0.156-0.156-0.068-0.067-0.119-0.152-0.188-0.219-0.212-0.217-0.44-0.412-0.656-0.625-0.011-0.01-0.02-0.021-0.031-0.031-0.43-0.448-0.866-0.88-1.313-1.313-0.328-0.335-0.663-0.674-1-1-0.328-0.335-0.663-0.674-1-1-0.326-0.333-0.634-0.675-0.969-1-0.21-0.215-0.443-0.414-0.656-0.625-0.054-0.05-0.102-0.106-0.156-0.156-0.068-0.067-0.119-0.152-0.188-0.219-0.212-0.217-0.44-0.412-0.656-0.625-0.011-0.01-0.02-0.021-0.031-0.031-0.43-0.448-0.866-0.88-1.313-1.313-0.328-0.335-0.663-0.674-1-1-0.328-0.335-0.663-0.674-1-1-0.191-0.196-0.399-0.37-0.594-0.563-0.021-0.02-0.041-0.042-0.063-0.063-0.116-0.114-0.196-0.262-0.313-0.375-0.21-0.215-0.443-0.414-0.656-0.625-0.054-0.05-0.102-0.106-0.156-0.156-0.068-0.067-0.119-0.152-0.188-0.219-0.212-0.217-0.44-0.412-0.656-0.625-0.011-0.01-0.02-0.021-0.031-0.031-0.43-0.448-0.866-0.88-1.313-1.313-0.328-0.335-0.663-0.674-1-1-0.328-0.335-0.663-0.674-1-1-0.331-0.338-0.66-0.67-1-1-0.326-0.333-0.634-0.675-0.969-1-0.21-0.215-0.443-0.414-0.656-0.625-0.054-0.05-0.102-0.106-0.156-0.156-0.068-0.067-0.119-0.152-0.188-0.219-0.212-0.217-0.44-0.412-0.656-0.625-0.011-0.01-0.02-0.021-0.031-0.031-0.43-0.448-0.866-0.88-1.313-1.313-0.328-0.335-0.663-0.674-1-1-0.328-0.335-0.663-0.674-1-1-0.191-0.196-0.399-0.37-0.594-0.563-0.021-0.02-0.041-0.042-0.063-0.063-0.116-0.114-0.196-0.262-0.313-0.375-0.21-0.215-0.443-0.414-0.656-0.625-0.054-0.05-0.102-0.106-0.156-0.156-0.068-0.067-0.119-0.152-0.188-0.219-0.212-0.217-0.44-0.412-0.656-0.625-0.011-0.01-0.02-0.021-0.031-0.031-0.43-0.448-0.866-0.88-1.313-1.313-0.328-0.335-0.663-0.674-1-1-0.328-0.335-0.663-0.674-1-1-0.326-0.333-0.634-0.675-0.969-1-0.21-0.215-0.443-0.414-0.656-0.625-0.054-0.05-0.102-0.106-0.156-0.156-0.068-0.067-0.119-0.152-0.188-0.219-0.212-0.217-0.44-0.412-0.656-0.625-0.011-0.01-0.02-0.021-0.031-0.031-0.43-0.448-0.866-0.88-1.313-1.313-0.328-0.335-0.663-0.674-1-1-0.328-0.335-0.663-0.674-1-1-0.331-0.338-0.66-0.67-1-1-0.207-0.212-0.414-0.417-0.625-0.625-0.027-0.025-0.067-0.037-0.094-0.063-0.095-0.094-0.154-0.22-0.25-0.313-0.212-0.217-0.44-0.412-0.656-0.625-0.011-0.01-0.02-0.021-0.031-0.031-0.328-0.341-0.663-0.668-1-1-0.43-0.448-0.866-0.88-1.313-1.313-0.328-0.335-0.663-0.674-1-1-0.331-0.338-0.66-0.67-1-1-0.326-0.333-0.634-0.675-0.969-1-0.21-0.215-0.443-0.414-0.656-0.625-0.054-0.05-0.102-0.106-0.156-0.156-0.068-0.067-0.119-0.152-0.188-0.219-0.212-0.217-0.44-0.412-0.656-0.625-0.011-0.01-0.02-0.021-0.031-0.031-0.43-0.448-0.866-0.88-1.313-1.313-0.328-0.335-0.663-0.674-1-1-0.328-0.335-0.663-0.674-1-1-0.191-0.196-0.399-0.37-0.594-0.563-0.021-0.02-0.041-0.042-0.063-0.063-0.116-0.114-0.196-0.262-0.313-0.375-0.21-0.215-0.443-0.414-0.656-0.625-0.054-0.05-0.102-0.106-0.156-0.156-0.068-0.067-0.119-0.152-0.188-0.219-0.212-0.217-0.44-0.412-0.656-0.625-0.011-0.01-0.02-0.021-0.031-0.031-0.43-0.448-0.866-0.88-1.313-1.313-0.328-0.335-0.663-0.674-1-1-0.328-0.335-0.663-0.674-1-1-0.326-0.333-0.634-0.675-0.969-1-0.21-0.215-0.443-0.414-0.656-0.625-0.054-0.05-0.102-0.106-0.156-0.156-0.068-0.067-0.119-0.152-0.188-0.219-0.212-0.217-0.44-0.412-0.656-0.625-0.011-0.01-0.02-0.021-0.031-0.031-0.43-0.448-0.866-0.88-1.313-1.313-0.328-0.335-0.663-0.674-1-1-0.328-0.335-0.663-0.674-1-1-0.331-0.338-0.66-0.67-1-1-0.207-0.212-0.414-0.417-0.625-0.625-0.027-0.025-0.067-0.037-0.094-0.063-0.095-0.094-0.154-0.22-0.25-0.313-0.21-0.215-0.443-0.414-0.656-0.625-0.054-0.05-0.102-0.106-0.156-0.156-0.068-0.067-0.119-0.152-0.188-0.219-0.212-0.217-0.44-0.412-0.656-0.625-0.011-0.01-0.02-0.021-0.031-0.031-0.43-0.448-0.866-0.88-1.313-1.313-0.328-0.335-0.663-0.674-1-1-0.328-0.335-0.663-0.674-1-1-0.326-0.333-0.634-0.675-0.969-1-0.21-0.215-0.443-0.414-0.656-0.625-0.054-0.05-0.102-0.106-0.156-0.156-0.068-0.067-0.119-0.152-0.188-0.219-0.212-0.217-0.44-0.412-0.656-0.625-0.011-0.01-0.02-0.021-0.031-0.031-0.43-0.448-0.866-0.88-1.313-1.313-0.328-0.335-0.663-0.674-1-1-0.328-0.335-0.663-0.674-1-1-0.191-0.196-0.399-0.37-0.594-0.563-0.021-0.02-0.041-0.042-0.063-0.063-0.116-0.114-0.196-0.262-0.313-0.375-0.21-0.215-0.443-0.414-0.656-0.625-0.054-0.05-0.102-0.106-0.156-0.156-0.068-0.067-0.119-0.152-0.188-0.219-0.212-0.217-0.44-0.412-0.656-0.625-0.011-0.01-0.02-0.021-0.031-0.031-0.43-0.448-0.866-0.88-1.313-1.313-0.328-0.335-0.663-0.674-1-1-0.328-0.335-0.663-0.674-1-1-0.331-0.338-0.66-0.67-1-1-0.326-0.333-0.634-0.675-0.969-1-0.212-0.217-0.44-0.412-0.656-0.625-0.011-0.01-0.02-0.021-0.031-0.031-0.43-0.448-0.866-0.88-1.313-1.313-0.328-0.335-0.663-0.674-1-1-0.328-0.335-0.663-0.674-1-1-0.331-0.338-0.66-0.67-1-1-0.207-0.212-0.414-0.417-0.625-0.625-0.027-0.025-0.067-0.037-0.094-0.063-0.095-0.094-0.154-0.22-0.25-0.313-0.21-0.215-0.443-0.414-0.656-0.625-0.054-0.05-0.102-0.106-0.156-0.156-0.068-0.067-0.119-0.152-0.188-0.219-0.212-0.217-0.44-0.412-0.656-0.625-0.011-0.01-0.02-0.021-0.031-0.031-0.43-0.448-0.866-0.88-1.313-1.313-0.328-0.335-0.663-0.674-1-1-0.328-0.335-0.663-0.674-1-1-0.326-0.333-0.634-0.675-0.969-1-0.21-0.215-0.443-0.414-0.656-0.625-0.054-0.05-0.102-0.106-0.156-0.156-0.068-0.067-0.119-0.152-0.188-0.219-0.212-0.217-0.44-0.412-0.656-0.625-0.011-0.01-0.02-0.021-0.031-0.031-0.43-0.448-0.866-0.88-1.313-1.313-9.677-9.894-23.338-16.12-38.469-16.12-9.672 0-18.642 2.811-26.438 7.219-0.064-0.062-0.123-0.126-0.188-0.188-0.063-0.063-0.124-0.125-0.188-0.188-0.19-0.196-0.401-0.369-0.594-0.563-0.085-0.082-0.165-0.168-0.25-0.25-0.058-0.057-0.099-0.13-0.156-0.188-0.19-0.196-0.401-0.369-0.594-0.563-0.138-0.133-0.267-0.274-0.406-0.406-0.194-0.199-0.398-0.397-0.594-0.594-0.138-0.133-0.267-0.274-0.406-0.406-0.195-0.201-0.396-0.395-0.594-0.594-0.032-0.031-0.062-0.063-0.094-0.094-0.099-0.099-0.181-0.214-0.281-0.313-0.326-0.336-0.667-0.671-1-1-0.326-0.336-0.667-0.671-1-1-0.293-0.302-0.608-0.578-0.906-0.875-0.037-0.036-0.056-0.09-0.094-0.125-0.19-0.196-0.401-0.369-0.594-0.563-0.138-0.133-0.267-0.274-0.406-0.406-0.194-0.199-0.398-0.397-0.594-0.594-0.138-0.133-0.267-0.274-0.406-0.406-0.195-0.201-0.396-0.395-0.594-0.594-0.138-0.133-0.267-0.274-0.406-0.406-0.324-0.334-0.638-0.672-0.969-1-12.986-13.378-31.497-21.781-51.938-21.781"/>
 <g id="g8" fill-rule="evenodd">
  <path id="path10" fill-opacity="0.067" d="m256 1c-140.83 0-255 114.17-255 255s114.17 255 255 255 255-114.17 255-255-114.17-255-255-255m8.827 44.931c120.9 0 218.9 98 218.9 218.9s-98 218.9-218.9 218.9-218.93-98-218.93-218.9 98.03-218.9 218.93-218.9"/>
  <g id="g12" fill-opacity="0.129">
   <path id="path14" d="m256 4.433c-138.94 0-251.57 112.63-251.57 251.57s112.63 251.57 251.57 251.57 251.57-112.63 251.57-251.57-112.63-251.57-251.57-251.57m5.885 38.556c120.9 0 218.9 98 218.9 218.9s-98 218.9-218.9 218.9-218.93-98-218.93-218.9 98.03-218.9 218.93-218.9"/>
   <path id="path16" d="m256 8.356c-136.77 0-247.64 110.87-247.64 247.64s110.87 247.64 247.64 247.64 247.64-110.87 247.64-247.64-110.87-247.64-247.64-247.64m2.942 31.691c120.9 0 218.9 98 218.9 218.9s-98 218.9-218.9 218.9-218.93-98-218.93-218.9 98.03-218.9 218.93-218.9"/>
  </g>
  <path id="path18" d="m253.04 7.859c-135.42 0-245.19 109.78-245.19 245.19 0 135.42 109.78 245.19 245.19 245.19 135.42 0 245.19-109.78 245.19-245.19 0-135.42-109.78-245.19-245.19-245.19zm0 26.297c120.9 0 218.9 98 218.9 218.9s-98 218.9-218.9 218.9-218.93-98-218.93-218.9 98.03-218.9 218.93-218.9z" stroke-opacity="0.31" stroke="#000" stroke-width="4.904" fill="#fff"/>
 </g>
 <path id="path66" fill="#fff" d="m223.51 148.39c-39.22 0-70.861 30.904-70.861 68.803 0 4.737 0.524 9.352 1.47 13.819-26.996 9.719-46.46 34.626-46.46 64.1 0 37.899 31.935 68.51 71.15 68.51h144.67c0.095 0 0.199 0.001 0.294 0 44.635-0.148 80.56-35.04 80.56-78.21 0-28.16-15.432-52.647-38.518-66.45-3.475-25.07-25.732-44.692-52.631-44.692-10.417 0-20.03 3.222-28.23 8.233-12.32-20.355-35.29-34.11-61.45-34.11m9.703 86.44 66.16 41.458 0.294 0.294-2.058 1.176h-0.294l-64.1 39.988v-82.916"/>
</svg>
