<?xml version="1.0" encoding="UTF-8" standalone="no"?>
<svg
   xmlns:dc="http://purl.org/dc/elements/1.1/"
   xmlns:cc="http://creativecommons.org/ns#"
   xmlns:rdf="http://www.w3.org/1999/02/22-rdf-syntax-ns#"
   xmlns:svg="http://www.w3.org/2000/svg"
   xmlns="http://www.w3.org/2000/svg"
   xmlns:sodipodi="http://sodipodi.sourceforge.net/DTD/sodipodi-0.dtd"
   xmlns:inkscape="http://www.inkscape.org/namespaces/inkscape"
   height="512"
   viewBox="0 0 512 512"
   width="512"
   version="1.1"
   id="svg2"
   inkscape:version="0.91 r13725"
   sodipodi:docname="obs.svg">
  <defs
     id="defs17" />
  <sodipodi:namedview
     pagecolor="#ffffff"
     bordercolor="#666666"
     borderopacity="1"
     objecttolerance="10"
     gridtolerance="10"
     guidetolerance="10"
     inkscape:pageopacity="0"
     inkscape:pageshadow="2"
     inkscape:window-width="1920"
     inkscape:window-height="1019"
     id="namedview15"
     showgrid="false"
     inkscape:zoom="3.2735666"
     inkscape:cx="175.75108"
     inkscape:cy="127.64791"
     inkscape:window-x="0"
     inkscape:window-y="13"
     inkscape:window-maximized="1"
     inkscape:current-layer="svg2"
     showguides="false" />
  <metadata
     id="metadata28">
    <rdf:RDF>
      <cc:Work
         rdf:about="">
        <dc:format>image/svg+xml</dc:format>
        <dc:type
           rdf:resource="http://purl.org/dc/dcmitype/StillImage" />
        <dc:title />
      </cc:Work>
    </rdf:RDF>
  </metadata>
  <path
     style="fill:#BF9E73;fill-rule:evenodd;fill-opacity:1"
     inkscape:connector-curvature="0"
     d="m 471.95,253.05 c 0,120.9 -98.01,218.9 -218.9,218.9 -120.9,0 -218.9,-98.01 -218.9,-218.9 0,-120.9 98.01,-218.9 218.9,-218.9 120.9,0 218.9,98.01 218.9,218.9"
     id="path6" />
  <path
     inkscape:connector-curvature="0"
     style="opacity:0.25"
     id="path4190"
     d="m 168.61072,118.60671 -14.82332,17.1195 2.1929,18.21386 -1.6489,9.59574 -1.31908,7.3985 c 24.30588,24.79598 5.0913,-9.83456 3.89462,31.96312 l -1.18714,17.8629 91.38683,41.14225 -17.63835,84.07582 -42.87783,34.20291 -52.9242,-0.77261 198.05828,86.55026 c 41.54945,-25.3848 134.62351,-66.84838 142.71878,-243.01452 L 199.12937,90.49977"
     sodipodi:nodetypes="cccccccccccccc" />
  <path
     style="fill-opacity:0.06700003;fill-rule:evenodd"
     inkscape:connector-curvature="0"
     d="M 256,1 C 115.17,1 1,115.17 1,256 1,396.83 115.17,511 256,511 396.83,511 511,396.83 511,256 511,115.17 396.83,1 256,1 m 8.827,44.931 c 120.9,0 218.9,98 218.9,218.9 0,120.9 -98,218.9 -218.9,218.9 -120.9,0 -218.93,-98 -218.93,-218.9 0,-120.9 98.03,-218.9 218.93,-218.9"
     id="path8" />
  <g
     style="fill-opacity:0.12900002;fill-rule:evenodd"
     id="g10">
    <path
       inkscape:connector-curvature="0"
       d="m 256,4.433 c -138.94,0 -251.57,112.63 -251.57,251.57 0,138.94 112.63,251.57 251.57,251.57 138.94,0 251.57,-112.63 251.57,-251.57 C 507.57,117.063 394.94,4.433 256,4.433 m 5.885,38.556 c 120.9,0 218.9,98 218.9,218.9 0,120.9 -98,218.9 -218.9,218.9 -120.9,0 -218.93,-98 -218.93,-218.9 0,-120.9 98.03,-218.9 218.93,-218.9"
       id="path12" />
    <path
       inkscape:connector-curvature="0"
       d="m 256,8.356 c -136.77,0 -247.64,110.87 -247.64,247.64 0,136.77 110.87,247.64 247.64,247.64 136.77,0 247.64,-110.87 247.64,-247.64 C 503.64,119.226 392.77,8.356 256,8.356 m 2.942,31.691 c 120.9,0 218.9,98 218.9,218.9 0,120.9 -98,218.9 -218.9,218.9 -120.9,0 -218.93,-98 -218.93,-218.9 0,-120.9 98.03,-218.9 218.93,-218.9"
       id="path14" />
  </g>
  <path
     style="fill:#ffffff;fill-rule:evenodd;stroke:#000000;stroke-width:4.90399981;stroke-opacity:0.31000001"
     inkscape:connector-curvature="0"
     d="m 253.04,7.859 c -135.42,0 -245.19,109.78 -245.19,245.19 0,135.42 109.78,245.19 245.19,245.19 135.42,0 245.19,-109.78 245.19,-245.19 0,-135.42 -109.78,-245.19 -245.19,-245.19 z m 0,26.297 c 120.9,0 218.9,98 218.9,218.9 0,120.9 -98,218.9 -218.9,218.9 -120.9,0 -218.93,-98 -218.93,-218.9 0,-120.9 98.03,-218.9 218.93,-218.9 z"
     id="path16" />
  <path
     inkscape:connector-curvature="0"
     d="m 199.19699,90.527751 c -29.24041,15.430459 -53.71103,44.283569 -54.41427,78.630089 -0.56055,17.82554 3.15948,36.6193 11.8735,51.97841 30.57554,0.51978 62.05815,17.97841 72.77997,47.71822 15.70564,39.30995 -2.78237,91.4922 -44.11031,105.97481 -21.19903,7.63369 -44.77277,4.22961 -65.25838,-3.9952 28.00719,17.63189 65.29915,24.37889 95.39567,7.7458 15.75659,-8.34712 29.6277,-20.97482 39.07554,-35.93645 -14.86991,-26.80455 -15.46103,-62.76138 4.91247,-86.96702 26.1115,-33.28656 80.51558,-43.53956 113.76137,-15.01258 17.21403,14.52338 26.04017,36.63968 29.15887,58.4808 1.2536,-33.04196 -11.4964,-68.67265 -40.8693,-86.43704 -15.10431,-9.63129 -32.94004,-14.91067 -50.64328,-16.13369 -15.78716,26.28477 -46.62769,44.79316 -77.78416,39.27937 -41.85791,-5.91127 -77.988,-47.83033 -69.90587,-90.87049 3.95444,-22.17746 18.72242,-40.8693 36.05875,-54.465221 z"
     style="fill:#ffffff;fill-opacity:1;fill-rule:evenodd;stroke:none"
     id="path27" />
</svg>
