<?xml version="1.0" encoding="UTF-8" standalone="no"?>
<svg
   xmlns:dc="http://purl.org/dc/elements/1.1/"
   xmlns:cc="http://creativecommons.org/ns#"
   xmlns:rdf="http://www.w3.org/1999/02/22-rdf-syntax-ns#"
   xmlns:svg="http://www.w3.org/2000/svg"
   xmlns="http://www.w3.org/2000/svg"
   xmlns:sodipodi="http://sodipodi.sourceforge.net/DTD/sodipodi-0.dtd"
   xmlns:inkscape="http://www.inkscape.org/namespaces/inkscape"
   height="512"
   viewBox="0 0 512 512"
   width="512"
   version="1.1"
   id="svg2"
   inkscape:version="0.91 r13725"
   sodipodi:docname="ocenaudio.svg">
  <defs
     id="defs17" />
  <sodipodi:namedview
     pagecolor="#ffffff"
     bordercolor="#666666"
     borderopacity="1"
     objecttolerance="10"
     gridtolerance="10"
     guidetolerance="10"
     inkscape:pageopacity="0"
     inkscape:pageshadow="2"
     inkscape:window-width="1920"
     inkscape:window-height="1052"
     id="namedview15"
     showgrid="false"
     inkscape:zoom="0.6433966"
     inkscape:cx="-56.583924"
     inkscape:cy="599.15402"
     inkscape:window-x="1920"
     inkscape:window-y="0"
     inkscape:window-maximized="1"
     inkscape:current-layer="svg2" />
  <metadata
     id="metadata28">
    <rdf:RDF>
      <cc:Work
         rdf:about="">
        <dc:format>image/svg+xml</dc:format>
        <dc:type
           rdf:resource="http://purl.org/dc/dcmitype/StillImage" />
        <dc:title></dc:title>
      </cc:Work>
    </rdf:RDF>
  </metadata>
  <path
     style="fill:#BF9E73;fill-rule:evenodd;fill-opacity:1"
     inkscape:connector-curvature="0"
     d="m 471.95,253.05 c 0,120.9 -98.01,218.9 -218.9,218.9 -120.9,0 -218.9,-98.01 -218.9,-218.9 0,-120.9 98.01,-218.9 218.9,-218.9 120.9,0 218.9,98.01 218.9,218.9"
     id="path6" />
  <path
     style="fill-opacity:0.06700003;fill-rule:evenodd"
     inkscape:connector-curvature="0"
     d="M 256,1 C 115.17,1 1,115.17 1,256 1,396.83 115.17,511 256,511 396.83,511 511,396.83 511,256 511,115.17 396.83,1 256,1 m 8.827,44.931 c 120.9,0 218.9,98 218.9,218.9 0,120.9 -98,218.9 -218.9,218.9 -120.9,0 -218.93,-98 -218.93,-218.9 0,-120.9 98.03,-218.9 218.93,-218.9"
     id="path8" />
  <g
     style="fill-opacity:0.12900002;fill-rule:evenodd"
     id="g10">
    <path
       inkscape:connector-curvature="0"
       d="m 256,4.433 c -138.94,0 -251.57,112.63 -251.57,251.57 0,138.94 112.63,251.57 251.57,251.57 138.94,0 251.57,-112.63 251.57,-251.57 C 507.57,117.063 394.94,4.433 256,4.433 m 5.885,38.556 c 120.9,0 218.9,98 218.9,218.9 0,120.9 -98,218.9 -218.9,218.9 -120.9,0 -218.93,-98 -218.93,-218.9 0,-120.9 98.03,-218.9 218.93,-218.9"
       id="path12" />
    <path
       inkscape:connector-curvature="0"
       d="m 256,8.356 c -136.77,0 -247.64,110.87 -247.64,247.64 0,136.77 110.87,247.64 247.64,247.64 136.77,0 247.64,-110.87 247.64,-247.64 C 503.64,119.226 392.77,8.356 256,8.356 m 2.942,31.691 c 120.9,0 218.9,98 218.9,218.9 0,120.9 -98,218.9 -218.9,218.9 -120.9,0 -218.93,-98 -218.93,-218.9 0,-120.9 98.03,-218.9 218.93,-218.9"
       id="path14" />
  </g>
  <path
     inkscape:connector-curvature="0"
     style="opacity:0.25"
     id="path4190"
     d="m 277.39515,115.10725 -12.54174,-6.49378 c -41.78281,-5.75554 -10.26292,0.3191 -14.77617,-1.51332 -19.7938,2.63215 -10.72748,3.86569 -29.10586,6.24331 l -13.04291,8.93013 -10.15671,13.63384 -14.85094,17.01173 -9.73322,36.17182 -4.2831,15.40431 81.0577,103.42955 -103.37709,78.70085 158.03825,79.26212 c 84.38209,-30.11496 154.99239,-80.48256 169.53,-213.31 l -3.92,-33.67685 -161.37072,-106.20359"
     sodipodi:nodetypes="ccccccccccccccc" />
  <path
     style="fill:#ffffff;fill-rule:evenodd;stroke:#000000;stroke-width:4.90399981;stroke-opacity:0.31000001"
     inkscape:connector-curvature="0"
     d="m 253.04,7.859 c -135.42,0 -245.19,109.78 -245.19,245.19 0,135.42 109.78,245.19 245.19,245.19 135.42,0 245.19,-109.78 245.19,-245.19 0,-135.42 -109.78,-245.19 -245.19,-245.19 z m 0,26.297 c 120.9,0 218.9,98 218.9,218.9 0,120.9 -98,218.9 -218.9,218.9 -120.9,0 -218.93,-98 -218.93,-218.9 0,-120.9 98.03,-218.9 218.93,-218.9 z"
     id="path16" />
  <g
     transform="matrix(11.140135,0,0,11.140135,-9.2877367,-25.62824)"
     id="g35"
     style="fill:#ffffff">
    <g
       id="g37"
       style="fill:#ffffff">
      <!-- color: #ff8c32 -->
      <g
         id="g39"
         style="fill:#ffffff">
        <path
           inkscape:connector-curvature="0"
           d="m 22.367,14.828 3.27,0 c 4.895,0 4.797,4.852 4.797,4.852 l 0,4.156 c 0,1.582 -2.855,4.852 -2.855,4.852 l 0,2.078 6.426,3.465 0,2.773 -19.988,0 0,-2.773 6.43,-3.465 0,-2.078 c 0,0 -2.867,-3.27 -2.852,-4.852 l 0,-4.156 c 0,0 -0.105,-4.852 4.797,-4.852 m -0.023,0"
           style="fill:#ffffff;fill-opacity:1;fill-rule:nonzero;stroke:none"
           id="path41" />
        <path
           inkscape:connector-curvature="0"
           d="m 18.586,17.938 0.988,0 c 0.438,0 0.793,0.387 0.793,0.867 l 0,6.637 c 0,0.477 -0.355,0.867 -0.793,0.867 l -0.988,0 c -0.438,0 -0.797,-0.391 -0.797,-0.867 l 0,-6.637 c 0,-0.48 0.359,-0.867 0.797,-0.867 m 0,0"
           style="fill:#ffffff;fill-opacity:1;fill-rule:nonzero;stroke:none"
           id="path43" />
        <path
           inkscape:connector-curvature="0"
           d="m 19.266,22.12 c 0,1.887 -0.648,3.414 -1.445,3.414 -0.797,0 -1.441,-1.527 -1.441,-3.414 0,-1.887 0.645,-3.414 1.441,-3.414 0.797,0 1.445,1.527 1.445,3.414 m 0,0"
           style="fill:#ffffff;fill-opacity:1;fill-rule:nonzero;stroke:none"
           id="path45" />
        <path
           inkscape:connector-curvature="0"
           d="m 16.754,21.938 c 0,0.352 -0.293,0.637 -0.652,0.637 -0.359,0 -0.652,-0.285 -0.652,-0.637 0,-0.352 0.293,-0.637 0.652,-0.637 0.359,0 0.652,0.285 0.652,0.637 m 0,0"
           style="fill:#ffffff;fill-opacity:1;fill-rule:nonzero;stroke:none"
           id="path47" />
        <path
           inkscape:connector-curvature="0"
           d="m 23.996,10.992 c -4.781,0 -8.656,4.227 -8.656,9.441 0,0.523 0.043,1.039 0.117,1.539 l 1.309,0 c -0.086,-0.496 -0.137,-1.012 -0.137,-1.539 0,-4.438 3.297,-8.04 7.367,-8.04 4.066,0 7.363,3.598 7.363,8.04 0,0.527 -0.047,1.043 -0.137,1.539 l 1.309,0 c 0.078,-0.5 0.117,-1.016 0.117,-1.539 0,-5.215 -3.875,-9.441 -8.652,-9.441 m 0,0"
           style="fill:#ffffff;fill-opacity:1;fill-rule:nonzero;stroke:none"
           id="path49" />
        <path
           inkscape:connector-curvature="0"
           d="m 32.539,21.871 c 0,0.352 -0.285,0.637 -0.645,0.637 -0.355,0 -0.645,-0.285 -0.645,-0.637 0,-0.352 0.289,-0.637 0.645,-0.637 0.359,0 0.645,0.285 0.645,0.637 m 0,0"
           style="fill:#ffffff;fill-opacity:1;fill-rule:nonzero;stroke:none"
           id="path51" />
        <path
           inkscape:connector-curvature="0"
           d="m 29.406,17.938 -0.988,0 c -0.441,0 -0.797,0.387 -0.797,0.867 l 0,6.637 c 0,0.477 0.355,0.867 0.797,0.867 l 0.988,0 c 0.438,0 0.793,-0.391 0.793,-0.867 l 0,-6.637 c 0,-0.48 -0.355,-0.867 -0.793,-0.867 m 0,0"
           style="fill:#ffffff;fill-opacity:1;fill-rule:nonzero;stroke:none"
           id="path53" />
        <path
           inkscape:connector-curvature="0"
           d="m 28.727,22.12 c 0,1.887 0.645,3.414 1.441,3.414 0.797,0 1.441,-1.527 1.441,-3.414 0,-1.887 -0.645,-3.414 -1.441,-3.414 -0.797,0 -1.441,1.527 -1.441,3.414 m 0,0"
           style="fill:#ffffff;fill-opacity:1;fill-rule:nonzero;stroke:none"
           id="path55" />
      </g>
    </g>
  </g>
</svg>
