<?xml version="1.0" encoding="UTF-8" standalone="no"?>
<svg xmlns="http://www.w3.org/2000/svg" viewBox="0 0 512 512">
  <g fill-rule="evenodd">
  <path d="m471.95 253.05c0 120.9-98.01 218.9-218.9 218.9-120.9 0-218.9-98.01-218.9-218.9 0-120.9 98.01-218.9 218.9-218.9 120.9 0 218.9 98.01 218.9 218.9" fill="#BF9E73"/>
  <path d="m253.03 34.16c-120.9 0-218.91 98.01-218.91 218.91 0 63.5 27.05 120.67 70.25 160.66-36.28-39.06-58.47-91.39-58.47-148.91 0-120.9 98.01-218.87 218.91-218.87 57.46 0 109.73 22.14 148.78 58.34-39.98-43.12-97.12-70.12-160.56-70.12" fill-opacity="0.067"/>
  <g transform="translate(0-.003)" fill-opacity="0.129">
   <path d="m256 4.433c-138.94 0-251.57 112.63-251.57 251.57s112.63 251.57 251.57 251.57 251.57-112.63 251.57-251.57-112.63-251.57-251.57-251.57m5.885 38.556c120.9 0 218.9 98 218.9 218.9s-98 218.9-218.9 218.9-218.93-98-218.93-218.9 98.03-218.9 218.93-218.9"/>
   <path d="m256 8.356c-136.77 0-247.64 110.87-247.64 247.64s110.87 247.64 247.64 247.64 247.64-110.87 247.64-247.64-110.87-247.64-247.64-247.64m2.942 31.691c120.9 0 218.9 98 218.9 218.9s-98 218.9-218.9 218.9-218.93-98-218.93-218.9 98.03-218.9 218.93-218.9"/>
  </g>
  <path stroke="#000" stroke-width="4.904" d="m253.04 7.856c-135.42 0-245.19 109.78-245.19 245.19 0 135.42 109.78 245.19 245.19 245.19 135.42 0 245.19-109.78 245.19-245.19 0-135.42-109.78-245.19-245.19-245.19zm0 26.297c120.9 0 218.9 98 218.9 218.9s-98 218.9-218.9 218.9-218.93-98-218.93-218.9 98.03-218.9 218.93-218.9z" stroke-opacity="0.31" fill="#fff"/>
 </g>
 <path opacity="0.25" d="m145.47 114.41c-15.189 0.166-27.374 12.456-27.375 27.688l-0.006-0.006v221.78l27.689 27.689 0.002 0.004h-0.008l-27.684-27.684c0 7.776 3.177 14.784 8.307 19.805l84.12 84.12c13.76 2.71 27.978 4.145 42.533 4.145 120.89 0 218.9-98 218.9-218.9 0-9.898-0.669-19.638-1.941-29.19l-101.38-101.38c0.027 0.027 0.053 0.057 0.08 0.084l-0.076-0.076c-4.935-4.935-11.736-8-19.283-8.08l27.365 27.365v0.008l-27.373-27.373v9.221c0 2.777-0.641 5.418-1.754 7.807l-7.807-7.807c0 2.853-1.295 5.404-3.328 7.102l-5.938-5.629-9.203-1.473c0 0.121 0.013 0.239 0.018 0.359l-9.578-9.578v-0.002h-128.69v9.221c0 2.055-0.358 4.04-0.99 5.904l-8.57-5.904h-0.002c0 0.28-0.017 0.555-0.041 0.828l-6.109-5.537c-4.863 0-14.413-2.15-15.311 2.057l-6.566-6.568m18.451 18.453c0.12 0.005 0.237 0.018 0.357 0.018l7.803 7.803c-0.076 0.036-0.15 0.077-0.227 0.111l-7.934-7.932"/>
 <g fill="#fff">
  <path d="m145.47 114.4c-15.19 0.166-27.375 12.456-27.375 27.688v221.78c0 15.335 12.351 27.688 27.688 27.688h35.906c4.718-19.641 13.431-38.421 18.375-57.938 23.751-27.803 50.762-53.08 76.63-78.906 17.377-16.406 33.485-34.33 50.844-50.688 10.243-9.53 18.99-24.559 34.688-25.19 0.511-0.022 1.021-0.031 1.531-0.031 4.437 0 8.793 0.859 12.969 2.281v-39c0-15.239-12.173-27.535-27.375-27.688h-203.87m62.25 22.12c2.953 0 5.547 0.586 7.75 1.781s4.02 2.945 5.5 5.219c1.477 2.273 2.586 5.03 3.313 8.313 0.727 3.281 1.094 7.02 1.094 11.188 0 4.148-0.344 7.867-1 11.125-0.633 3.258-1.664 6.01-3.094 8.281-1.406 2.273-3.219 4.02-5.469 5.219-2.227 1.195-4.93 1.781-8.094 1.781-2.977 0-5.578-0.586-7.781-1.781s-4.02-2.945-5.469-5.219c-1.453-2.273-2.555-5.02-3.281-8.281-0.703-3.258-1.031-6.977-1.031-11.125s0.305-7.844 0.938-11.125c0.656-3.281 1.688-6.07 3.094-8.344 1.406-2.273 3.211-4.02 5.438-5.219 2.227-1.219 4.93-1.812 8.094-1.813m79.31 0c2.953 0 5.547 0.586 7.75 1.781s4.02 2.945 5.5 5.219c1.477 2.273 2.586 5.03 3.313 8.313 0.727 3.281 1.094 7.02 1.094 11.188 0 4.148-0.344 7.867-1 11.125-0.633 3.258-1.664 6.01-3.094 8.281-1.406 2.273-3.219 4.02-5.469 5.219-2.227 1.195-4.93 1.781-8.094 1.781-2.977 0-5.578-0.586-7.781-1.781s-4.02-2.945-5.469-5.219c-1.453-2.273-2.555-5.02-3.281-8.281-0.703-3.258-1.031-6.977-1.031-11.125s0.305-7.844 0.938-11.125c0.656-3.281 1.688-6.07 3.094-8.344 1.406-2.273 3.211-4.02 5.438-5.219 2.227-1.219 4.93-1.812 8.094-1.813m39.656 0c2.953 0 5.547 0.586 7.75 1.781s4.02 2.945 5.5 5.219c1.477 2.273 2.586 5.03 3.313 8.313 0.727 3.281 1.094 7.02 1.094 11.188 0 1.634-0.051 3.189-0.156 4.688-4.439 2.384-8.534 5.47-12.406 8.906 0.047-0.118 0.112-0.22 0.156-0.344 1.078-2.93 1.594-7.344 1.594-13.25 0-5.883-0.516-10.297-1.594-13.25-1.055-2.977-2.813-4.469-5.25-4.469-1.242 0-2.289 0.375-3.156 1.125-0.844 0.75-1.555 1.867-2.094 3.344s-0.922 3.336-1.156 5.563c-0.234 2.203-0.344 4.758-0.344 7.688 0 5.859 0.492 10.266 1.5 13.219 1.01 2.953 2.766 4.438 5.25 4.438 0.283 0 0.548-0.023 0.813-0.063-2.538 2.494-4.976 5.066-7.344 7.625-0.432-0.179-0.845-0.374-1.25-0.594-2.203-1.195-4.02-2.945-5.469-5.219-1.453-2.273-2.555-5.02-3.281-8.281-0.703-3.258-1.031-6.977-1.031-11.125s0.305-7.844 0.938-11.125c0.656-3.281 1.688-6.07 3.094-8.344 1.406-2.273 3.211-4.02 5.438-5.219 2.227-1.219 4.93-1.812 8.094-1.813m-158.62 0.813h8.938v51.41h-10.875v-31.938c0.023-0.867 0.039-1.742 0.063-2.656 0.047-0.937 0.102-1.875 0.125-2.813 0.047-0.937 0.07-1.82 0.094-2.594-0.117 0.141-0.313 0.375-0.594 0.656l-0.938 0.938c-0.352 0.328-0.719 0.68-1.094 1.031-0.375 0.352-0.742 0.656-1.094 0.938l-5.906 4.75-5.281-6.531 16.563-13.188m79.31 0h8.938v51.41h-10.875v-31.938c0.023-0.867 0.039-1.742 0.063-2.656 0.047-0.937 0.102-1.875 0.125-2.813 0.047-0.937 0.07-1.82 0.094-2.594-0.117 0.141-0.313 0.375-0.594 0.656l-0.938 0.938c-0.352 0.328-0.719 0.68-1.094 1.031-0.375 0.352-0.742 0.656-1.094 0.938l-5.906 4.75-5.281-6.531 16.563-13.188m-39.656 7.969c-1.242 0-2.289 0.375-3.156 1.125-0.844 0.75-1.555 1.867-2.094 3.344s-0.922 3.336-1.156 5.563c-0.234 2.203-0.344 4.758-0.344 7.688 0 5.859 0.492 10.266 1.5 13.219 1.01 2.953 2.766 4.438 5.25 4.438 2.437 0 4.195-1.477 5.25-4.406 1.078-2.93 1.594-7.344 1.594-13.25 0-5.883-0.516-10.297-1.594-13.25-1.055-2.977-2.813-4.469-5.25-4.469m79.31 0c-1.242 0-2.289 0.375-3.156 1.125-0.844 0.75-1.555 1.867-2.094 3.344s-0.922 3.336-1.156 5.563c-0.234 2.203-0.344 4.758-0.344 7.688 0 5.859 0.492 10.266 1.5 13.219 1.01 2.953 2.766 4.438 5.25 4.438 2.437 0 4.195-1.477 5.25-4.406 1.078-2.93 1.594-7.344 1.594-13.25 0-5.883-0.516-10.297-1.594-13.25-1.055-2.977-2.813-4.469-5.25-4.469m-118.97 81.22c2.953 0 5.547 0.586 7.75 1.781s4.02 2.945 5.5 5.219c1.477 2.273 2.586 5.03 3.313 8.313 0.727 3.281 1.094 7.02 1.094 11.188 0 4.148-0.344 7.867-1 11.125-0.633 3.258-1.664 6.01-3.094 8.281-1.406 2.273-3.219 4.02-5.469 5.219-2.227 1.195-4.93 1.781-8.094 1.781-2.977 0-5.578-0.586-7.781-1.781s-4.02-2.945-5.469-5.219c-1.453-2.273-2.555-5.02-3.281-8.281-0.703-3.258-1.031-6.977-1.031-11.125s0.305-7.844 0.938-11.125c0.656-3.281 1.688-6.07 3.094-8.344 1.406-2.273 3.211-4.02 5.438-5.219 2.227-1.219 4.93-1.812 8.094-1.813m79.31 0c2.953 0 5.547 0.586 7.75 1.781s4.02 2.945 5.5 5.219c1.477 2.273 2.586 5.03 3.313 8.313 0.175 0.789 0.304 1.596 0.438 2.438-3.397 3.309-6.799 6.62-10.188 9.938 0.005-0.393 0.031-0.781 0.031-1.188 0-5.883-0.516-10.297-1.594-13.25-1.055-2.977-2.813-4.469-5.25-4.469-1.242 0-2.289 0.375-3.156 1.125-0.844 0.75-1.555 1.867-2.094 3.344s-0.922 3.336-1.156 5.563c-0.234 2.203-0.344 4.758-0.344 7.688 0 5.801 0.481 10.173 1.469 13.13-2.431 2.415-4.867 4.819-7.281 7.25-0.235-0.318-0.469-0.627-0.688-0.969-1.453-2.273-2.555-5.02-3.281-8.281-0.703-3.258-1.031-6.977-1.031-11.125s0.305-7.844 0.938-11.125c0.656-3.281 1.688-6.07 3.094-8.344 1.406-2.273 3.211-4.02 5.438-5.219 2.227-1.219 4.93-1.812 8.094-1.813m-39.656 0.813h8.938v51.41h-10.875v-31.938c0.023-0.867 0.039-1.742 0.063-2.656 0.047-0.937 0.102-1.875 0.125-2.813 0.047-0.937 0.07-1.82 0.094-2.594-0.117 0.141-0.313 0.375-0.594 0.656l-0.938 0.938c-0.352 0.328-0.719 0.68-1.094 1.031-0.375 0.352-0.742 0.656-1.094 0.938l-5.906 4.75-5.281-6.531 16.563-13.188m-39.656 7.969c-1.242 0-2.289 0.375-3.156 1.125-0.844 0.75-1.555 1.867-2.094 3.344s-0.922 3.336-1.156 5.563c-0.234 2.203-0.344 4.758-0.344 7.688 0 5.859 0.492 10.266 1.5 13.219 1.01 2.953 2.766 4.438 5.25 4.438 2.437 0 4.195-1.477 5.25-4.406 1.078-2.93 1.594-7.344 1.594-13.25 0-5.883-0.516-10.297-1.594-13.25-1.055-2.977-2.813-4.469-5.25-4.469m0 82.03h8.938v36.5c-1.544 5.01-3.124 10.01-4.938 14.906h-5.938v-31.938c0.023-0.867 0.039-1.742 0.063-2.656 0.047-0.937 0.102-1.875 0.125-2.813 0.047-0.937 0.07-1.82 0.094-2.594-0.117 0.141-0.313 0.375-0.594 0.656l-0.938 0.938c-0.352 0.328-0.719 0.68-1.094 1.031-0.375 0.352-0.742 0.656-1.094 0.938l-5.906 4.75-5.281-6.531 16.563-13.188"/>
  <path d="m363.06 194.78c-2.702 0.14-5.02 1.01-6.719 2.656l-0.094 0.094-13.156 13.188 56.25 56.22 12.969-13 0.219-0.188c0.03-0.03 0.033-0.064 0.063-0.094 6.111-6.295 1.451-20.893-10.531-32.875l-12.75-12.781c-8.277-8.278-17.848-13.06-25.03-13.219-0.401-0.009-0.8-0.02-1.188 0h-0.031m-27.22 23.22l-13.906 13.938 56.22 56.25 13.906-13.969-56.22-56.22m-22.531 22.531l-84.87 84.91-10.469 10.438-2.656 2.656-21.19 66.38a8.6413 9.6276 0 0 0 2.8125 9.5625 8.6413 9.6276 0 0 0 7.75 1.0625l67.31-21.25 2.188-2.219 10.125-10.125 85.22-85.19-56.22-56.22m-83.156 107.69a2.4116 2.4116 0 0 1 0.25 0v0.031a2.4116 2.4116 0 0 1 0.0312 0 2.4116 2.4116 0 0 1 1.6875 0.71875l4.938 4.938 18.438-0.938a2.4116 2.4116 0 0 1 1.7188 0.59375 2.4116 2.4116 0 0 1 0.8125 1.9375l-0.906 20.06 3.656 3.656a2.4116 2.4116 0 0 1 -1.0937 4.0313l-31.75 8.5a2.4116 2.4116 0 0 1 -2.3438 -0.59375l-6.156-6.156a2.4116 2.4116 0 0 1 -0.625 -2.375l9.281-32.625a2.4116 2.4116 0 0 1 2.0625 -1.7812m51.688 42.719l-0.625 0.625h0.625v-0.625"/>
  <path d="m376.71 312.15c-26.11 26.07-52.32 52.05-78.34 78.19-0.002 0.403-0.031 0.816-0.063 1.219h50.75c15.335 0 27.656-12.352 27.656-27.688v-51.719"/>
 </g>
</svg>
