<?xml version="1.0" encoding="UTF-8" standalone="no"?>
<svg xmlns="http://www.w3.org/2000/svg" height="512" viewBox="0 0 512 512" width="512" version="1.1">
 <metadata id="metadata80"/>
 <path id="path4" d="m471.95 253.05c0 120.9-98.01 218.9-218.9 218.9-120.9 0-218.9-98.01-218.9-218.9 0-120.9 98.01-218.9 218.9-218.9 120.9 0 218.9 98.01 218.9 218.9" fill-rule="evenodd" fill="#BF9E73"/>
 <path id="path6" fill-opacity="0.235" d="m384.06 137.41c-39.06 10.304-74.02 33.07-105.78 57.56-16.13 21.349-33.12 47.4-64.37 42.38-32.819 6.367-61.812 25.433-89.75 42.969-25.836 10.1-38.496 38.714-12.09 56.28 45.15 44.986 90.09 90.2 135.16 135.28 1.94 0.051 3.861 0.094 5.813 0.094 120.9 0 218.91-98.01 218.91-218.91 0-12.372-1.028-24.501-3-36.31-25.739-25.735-51.52-51.45-77.37-77.06-1.756-2.504-5.639-0.4-7.5-2.281"/>
 <g id="g8" fill-rule="evenodd">
  <path id="path10" fill-opacity="0.067" d="m256 1c-140.83 0-255 114.17-255 255s114.17 255 255 255 255-114.17 255-255-114.17-255-255-255m8.827 44.931c120.9 0 218.9 98 218.9 218.9s-98 218.9-218.9 218.9-218.93-98-218.93-218.9 98.03-218.9 218.93-218.9"/>
  <g id="g12" fill-opacity="0.129">
   <path id="path14" d="m256 4.433c-138.94 0-251.57 112.63-251.57 251.57s112.63 251.57 251.57 251.57 251.57-112.63 251.57-251.57-112.63-251.57-251.57-251.57m5.885 38.556c120.9 0 218.9 98 218.9 218.9s-98 218.9-218.9 218.9-218.93-98-218.93-218.9 98.03-218.9 218.93-218.9"/>
   <path id="path16" d="m256 8.356c-136.77 0-247.64 110.87-247.64 247.64s110.87 247.64 247.64 247.64 247.64-110.87 247.64-247.64-110.87-247.64-247.64-247.64m2.942 31.691c120.9 0 218.9 98 218.9 218.9s-98 218.9-218.9 218.9-218.93-98-218.93-218.9 98.03-218.9 218.93-218.9"/>
  </g>
  <path id="path18" d="m253.04 7.859c-135.42 0-245.19 109.78-245.19 245.19 0 135.42 109.78 245.19 245.19 245.19 135.42 0 245.19-109.78 245.19-245.19 0-135.42-109.78-245.19-245.19-245.19zm0 26.297c120.9 0 218.9 98 218.9 218.9s-98 218.9-218.9 218.9-218.93-98-218.93-218.9 98.03-218.9 218.93-218.9z" stroke-opacity="0.31" stroke="#000" stroke-width="4.904" fill="#fff"/>
 </g>
 <text id="text20" font-size="129.23" line-height="125%" y="231.36" x="729.64" font-family="Gentium Book Basic" word-spacing="0" letter-spacing="0"><tspan id="tspan22" y="231.36" x="729.64"/>
 </text>
 <text id="text24" font-size="46.954" transform="scale(4.0128 .2492)" y="579.25" x="378.91" font-family="Arial" text-anchor="middle"/>
 <text id="text26" font-size="129.23" line-height="125%" y="151.36" x="1310.91" font-family="Gentium Book Basic" word-spacing="0" letter-spacing="0"><tspan id="tspan28" y="151.36" x="1310.91"/>
 </text>
 <text id="text30" font-size="46.954" transform="scale(4.0128 .2492)" y="258.22" x="523.76" font-family="Arial" text-anchor="middle"/>
 <text id="text32" font-size="129.23" line-height="125%" y="-29.901" x="239.33" font-family="Gentium Book Basic" word-spacing="0" letter-spacing="0"><tspan id="tspan34" y="-29.901" x="239.33"/>
 </text>
 <text id="text36" font-size="46.954" transform="scale(4.0128 .2492)" y="-469.14" x="256.72" font-family="Arial" text-anchor="middle"/>
 <text id="text38" font-size="129.23" line-height="125%" y="-246.37" x="1337.38" font-family="Gentium Book Basic" word-spacing="0" letter-spacing="0"><tspan id="tspan40" y="-246.37" x="1337.38"/>
 </text>
 <text id="text42" font-size="46.954" transform="scale(4.0128 .2492)" y="-1337.81" x="530.36" font-family="Arial" text-anchor="middle"/>
 <text id="text44" font-size="129.23" line-height="125%" y="-326.38" x="1918.65" font-family="Gentium Book Basic" word-spacing="0" letter-spacing="0"><tspan id="tspan46" y="-326.38" x="1918.65"/>
 </text>
 <text id="text48" font-size="46.954" transform="scale(4.0128 .2492)" y="-1658.85" x="675.21" font-family="Arial" text-anchor="middle"/>
 <text id="text50" font-size="129.23" line-height="125%" y="-798.78" x="1529.53" font-family="Gentium Book Basic" word-spacing="0" letter-spacing="0"><tspan id="tspan52" y="-798.78" x="1529.53"/>
 </text>
 <text id="text54" font-size="46.954" transform="scale(4.0128 .2492)" y="-3554.51" x="578.24" font-family="Arial" text-anchor="middle"/>
 <text id="text56" font-size="129.23" line-height="125%" y="-878.78" x="2110.79" font-family="Gentium Book Basic" word-spacing="0" letter-spacing="0"><tspan id="tspan58" y="-878.78" x="2110.79"/>
 </text>
 <text id="text60" font-size="46.954" transform="scale(4.0128 .2492)" y="-3875.54" x="723.09" font-family="Arial" text-anchor="middle"/>
 <g id="g62" font-family="Gentium Book Basic" font-size="208.33" line-height="125%" word-spacing="0" letter-spacing="0">
  <text id="text64" y="535.94" x="277.99"><tspan id="tspan66" y="535.94" x="277.99"/>
  </text>
  <text id="text68" y="375.07" x="-1649.18"><tspan id="tspan70" y="375.07" x="-1649.18"/>
  </text>
 </g>
 <text id="text72" font-size="75.7" transform="scale(4.0128 .2492)" y="942.22" x="-93.25" font-family="Arial" text-anchor="middle"/>
 <path id="path74" fill="#fff" d="m384.06 137.41c-2.255-0.043-4.29 0.388-5.656 0.906-23.806 7.915-50.08 21.399-75.938 38.906l-1.344 0.906c-15.779 10.664-24.492 16.555-32.5 27.625-1.86 2.573-3.709 5.325-5.313 7.813-2.857 4.439-7.407 10.08-10.156 12.594-1.108 1.014-2.211 2.05-3.219 2.938-1.447 1.28-4.637 3.105-6.469 3.719-1.275 0.424-2.724 0.892-4.156 1.344-3.543 1.123-10.696 2.245-15.969 2.5-2.956 0.145-6.28 0.363-9.438 0.688-13.591 1.4-23.03 5.98-40.16 14.313l-1.438 0.719c-28.1 13.646-52.972 29.704-71.59 46.25-3.105 2.542-7.94 9.399-4.063 17.13 0.787 1.579 2.491 4.363 4 6.844 0.984 1.632 1.881 3.119 2.344 3.969 2.792 5.112 5.787 6.04 8.188 6.781 0.771 0.242 1.415 0.436 2.031 0.781 1.374 0.768 2.705 1.96 3.969 3.5 27.432 33.439 31.732 37.655 51.906 36.875 9.66-0.372 26.37-6.536 41.625-15.344 11.893-6.866 28.17-18.361 38.16-34.06 14.542-22.879 0.661-64.843-0.063-66.938-0.09-0.205-2.04-5.01 7.469-10.5v-0.031l0.563-0.313c9.02-5.21 12.252-1.104 12.594-0.656 1.242 1.406 30.631 34.399 57.719 33.25 18.593-0.79 36.67-9.134 48.563-16 15.255-8.807 28.969-20.232 34.13-28.406 10.762-17.08 9.212-22.898-6.03-63.37-0.699-1.859-1.018-3.609-1-5.188 0.009-0.706 0.168-1.368 0.344-2.156 0.556-2.451 1.247-5.531-1.781-10.5-0.508-0.831-1.368-2.334-2.281-4-1.394-2.547-2.969-5.432-3.938-6.906-2.97-4.513-7.335-5.897-11.09-5.969"/>
</svg>
