<?xml version="1.0" encoding="UTF-8" standalone="no"?>
<svg xmlns="http://www.w3.org/2000/svg" viewBox="0 0 512 512" version="1.1">
 <metadata id="metadata1856"/>
 <path id="path1688" fill="#fff" d="m1209.5 987.72v-889.05h-37.294v503.33c0 49.76-7.2481 97.037-22.092 141.58-14.844 45.247-37.294 84.891-66.992 119.75-28.636 33.496-64.519 60.806-108.08 81.488-43.132 19.705-93.596 29.341-150.51 29.341-41.092 0-80.068-5.8286-117.37-16.264-35.884-11.751-68.054-28.297-96.689-52.147-27.31-23.86-49.054-53.473-64.867-89.789-16.264-36.946-17.589-82.55-17.589-134.6l-36.589 5.8286v42.154c2.0306 35.526 5.2176 68.054 16.884 97.658 17.232 38.713 40.744 71.852 70.79 100.49 30.76 26.248 66.992 46.573 107.74 60.448 42.154 12.814 88.022 18.99 137.78 18.99 94.198 0 170.53-22.45 228.91-67.349 59.386-45.247 97.658-102.17 115.33-171.54h3.4502v219.89h36.946"/>
 <path id="path1784" d="m471.95 253.05c0 120.9-98.01 218.91-218.91 218.91s-218.91-98.01-218.91-218.91 98.01-218.91 218.91-218.91 218.91 98.01 218.91 218.91" fill="#BF9E73" fill-rule="evenodd"/>
 <path id="path1786" d="m68.66 135c-21.852 34.06-34.531 74.59-34.531 118.06 0 120.9 98.01 218.91 218.91 218.91 12.71 0 25.16-1.108 37.28-3.188 2.619-9.226 5.277-18.959 7.813-28.406-2.25 0.477-4.503 0.942-6.781 1.344-0.249 0.044-0.5 0.082-0.75 0.125-1.318 0.227-2.642 0.455-3.969 0.656-1.443 0.219-2.89 0.405-4.344 0.594-0.964 0.125-1.938 0.232-2.906 0.344-1.136 0.131-2.264 0.263-3.406 0.375-1.352 0.133-2.703 0.269-4.063 0.375-0.219 0.017-0.437 0.015-0.656 0.031-0.749 0.056-1.498 0.108-2.25 0.156-0.783 0.05-1.558 0.116-2.344 0.156-0.197 0.01-0.397 0.022-0.594 0.031-3.302 0.161-6.625 0.248-9.969 0.25h-0.157c-3.344-0.002-6.697-0.089-10-0.25-0.199-0.01-0.395-0.021-0.594-0.031-0.785-0.041-1.561-0.106-2.344-0.156-0.752-0.048-1.5-0.1-2.25-0.156-0.218-0.016-0.438-0.014-0.656-0.031-1.36-0.106-2.711-0.242-4.063-0.375-1.142-0.112-2.27-0.244-3.406-0.375-0.968-0.111-1.943-0.219-2.906-0.344-1.453-0.188-2.901-0.375-4.344-0.594-1.327-0.202-2.65-0.429-3.969-0.656-0.25-0.043-0.501-0.081-0.75-0.125-91.12-16.06-160.16-93.02-160.16-185.69 0-5.813 0.281-11.571 0.813-17.25 0.065-0.691 0.115-1.376 0.188-2.063 0.733-6.97 1.88-13.838 3.375-20.563 0.007-0.032 0.024-0.062 0.031-0.094 0.128-0.573 0.242-1.148 0.375-1.719 0.09-0.388 0.188-0.769 0.281-1.156 0.15-0.623 0.282-1.254 0.438-1.875 0.344-1.37 0.719-2.736 1.094-4.094 0.269-0.977 0.527-1.936 0.813-2.906 0.061-0.208 0.125-0.417 0.188-0.625 0.208-0.7 0.44-1.397 0.656-2.094 0.259-0.833 0.511-1.672 0.781-2.5 0.4-1.226 0.793-2.442 1.219-3.656 0.04-0.115 0.085-0.229 0.125-0.344 0.003-0.009-0.003-0.022 0-0.031 1.404-3.98 2.959-7.894 4.625-11.75 0.116-0.27 0.226-0.544 0.344-0.813 0.445-1.015 0.913-2.025 1.375-3.03 0.582-1.267 1.171-2.53 1.781-3.781 0.521-1.069 1.053-2.13 1.594-3.188 0.219-0.428 0.434-0.855 0.656-1.281 0.394-0.757 0.814-1.499 1.219-2.25 0.536-0.995 1.071-1.984 1.625-2.969 0.263-0.467 0.514-0.941 0.781-1.406 0.25-0.435 0.497-0.879 0.75-1.313 0.387-0.662 0.792-1.312 1.188-1.969 0.37-0.615 0.748-1.233 1.125-1.844 0.369-0.599 0.749-1.187 1.125-1.781 0.25-0.396 0.497-0.794 0.75-1.188 0.557-0.866 1.117-1.737 1.688-2.594 0.781-1.172 1.568-2.315 2.375-3.469 0.789-1.128 1.593-2.265 2.406-3.375 0.039-0.054 0.085-0.103 0.125-0.156-8.933-3.954-18.343-7.987-27.75-11.906m265.34 294.25c-1.14 0.478-2.286 0.949-3.438 1.406 1.153-0.457 2.296-0.928 3.438-1.406z" fill="#BF9E73"/>
 <path id="path1788" d="m426.38 119.38l-6.813 1.813-18 8.75c0.145 0.157 0.293 0.311 0.438 0.469 1.158 1.255 2.283 2.528 3.406 3.813 0.116 0.134 0.228 0.272 0.344 0.406 1.144 1.316 2.299 2.654 3.406 4 0.122 0.148 0.253 0.289 0.375 0.438 0.174 0.213 0.327 0.443 0.5 0.656 0.89 1.098 1.791 2.195 2.656 3.313 0.023 0.03 0.04 0.064 0.063 0.094 0.154 0.199 0.315 0.394 0.469 0.594 0.756 0.985 1.483 1.969 2.219 2.969 0.093 0.126 0.189 0.249 0.281 0.375 0.159 0.218 0.31 0.438 0.469 0.656 0.022 0.03 0.041 0.063 0.063 0.094 0.63 0.872 1.261 1.747 1.875 2.625 0.008 0.012 0.023 0.019 0.031 0.031 0.456 0.653 0.898 1.311 1.344 1.969 0.092 0.136 0.189 0.269 0.281 0.406 0.241 0.356 0.481 0.705 0.719 1.063 0.071 0.106 0.148 0.206 0.219 0.313 0.663 1 1.294 2.02 1.938 3.03 0.036 0.056 0.089 0.1 0.125 0.156 0.145 0.229 0.293 0.458 0.438 0.688 0.598 0.951 1.2 1.913 1.781 2.875 0.208 0.345 0.419 0.685 0.625 1.031 0.509 0.855 1 1.731 1.5 2.594 0.267 0.465 0.518 0.939 0.781 1.406 0.215 0.382 0.412 0.774 0.625 1.156 0.204 0.367 0.424 0.724 0.625 1.094 0.323 0.594 0.652 1.183 0.969 1.781 0.337 0.635 0.67 1.267 1 1.906 0.096 0.186 0.186 0.376 0.281 0.563 0.541 1.057 1.073 2.119 1.594 3.188 0.282 0.578 0.538 1.168 0.813 1.75 0.32 0.679 0.655 1.349 0.969 2.031 0.462 1.01 0.93 2.02 1.375 3.03 0.026 0.06 0.037 0.127 0.063 0.188 0.089 0.21 0.191 0.416 0.281 0.625 1.666 3.856 3.221 7.77 4.625 11.75 0.003 0.009-0.003 0.022 0 0.031 0.041 0.115 0.085 0.229 0.125 0.344 0.425 1.215 0.818 2.431 1.219 3.656 0.082 0.251 0.169 0.498 0.25 0.75 0.352 1.095 0.699 2.209 1.031 3.313 0.116 0.384 0.23 0.771 0.344 1.156 0.285 0.97 0.543 1.93 0.813 2.906 0.375 1.358 0.75 2.724 1.094 4.094 0.002 0.01-0.002 0.022 0 0.031 0.008 0.032 0.023 0.062 0.031 0.094 0.145 0.58 0.267 1.168 0.406 1.75 0.015 0.064 0.047 0.124 0.063 0.188 0.077 0.322 0.144 0.646 0.219 0.969 0.133 0.571 0.247 1.146 0.375 1.719 0.007 0.032 0.024 0.062 0.031 0.094 1.495 6.724 2.642 13.593 3.375 20.563 0.667 6.35 1.031 12.792 1.031 19.313 0 92.67-69.06 169.63-160.19 185.69-0.249 0.044-0.5 0.082-0.75 0.125-1.01 0.173-2.02 0.338-3.03 0.5-0.313 0.05-0.624 0.109-0.938 0.156-0.468 0.071-0.937 0.119-1.406 0.188-0.481 0.07-0.955 0.152-1.438 0.219-0.5 0.066-0.999 0.123-1.5 0.188-2.043 0.266-4.094 0.514-6.156 0.719-2.922 8.784-5.823 17.469-9.25 27.719 114.45-7.14 205.06-102.22 205.06-218.47 0-50.34-17-96.71-45.563-133.69m-248.34 309.88c1.14 0.478 2.286 0.949 3.438 1.406-1.153-0.457-2.296-0.928-3.438-1.406" fill="#BF9E73"/>
 <path id="path1790" d="m253.03 34.16c-81.49 0-152.56 44.519-190.25 110.56l22.594 19.03c0.088-0.154 0.161-0.317 0.25-0.469 0.387-0.662 0.792-1.312 1.188-1.969 0.05-0.084 0.105-0.166 0.156-0.25 0.322-0.534 0.641-1.063 0.969-1.594 0.064-0.104 0.123-0.21 0.188-0.313 0.306-0.494 0.627-0.977 0.938-1.469 0.25-0.396 0.497-0.794 0.75-1.188 0.154-0.24 0.314-0.478 0.469-0.719 0.404-0.622 0.807-1.258 1.219-1.875 0.071-0.106 0.148-0.207 0.219-0.313 0.387-0.578 0.794-1.145 1.188-1.719 0.293-0.425 0.578-0.856 0.875-1.281 0.035-0.05 0.059-0.106 0.094-0.156 0.409-0.585 0.833-1.165 1.25-1.75 0.24-0.335 0.477-0.667 0.719-1 0.149-0.206 0.288-0.421 0.438-0.625 0.092-0.126 0.189-0.249 0.281-0.375 0.022-0.03 0.04-0.063 0.063-0.094 0.463-0.628 0.936-1.253 1.406-1.875 0.25-0.333 0.495-0.668 0.75-1 0.095-0.124 0.186-0.251 0.281-0.375 0.076-0.099 0.172-0.183 0.25-0.281 0.339-0.437 0.689-0.878 1.031-1.313 0.302-0.384 0.6-0.774 0.906-1.156 0.237-0.296 0.48-0.581 0.719-0.875 0.168-0.207 0.331-0.418 0.5-0.625 0.136-0.166 0.27-0.334 0.406-0.5 0.392-0.476 0.791-0.934 1.188-1.406 0.262-0.311 0.518-0.628 0.781-0.938 0.1-0.118 0.212-0.226 0.313-0.344 0.096-0.112 0.185-0.232 0.281-0.344 0.126-0.145 0.249-0.292 0.375-0.438 0.372-0.431 0.751-0.853 1.125-1.281 0.131-0.149 0.243-0.32 0.375-0.469 0.058-0.066 0.129-0.121 0.188-0.188 0.352-0.396 0.707-0.794 1.063-1.188 0.01-0.011 0.021-0.02 0.031-0.031 0.416-0.461 0.829-0.918 1.25-1.375 0.333-0.365 0.663-0.733 1-1.094 0.281-0.301 0.56-0.607 0.844-0.906 0.579-0.612 1.163-1.208 1.75-1.813 0.072-0.074 0.147-0.145 0.219-0.219 0.418-0.429 0.828-0.856 1.25-1.281 0.124-0.125 0.25-0.25 0.375-0.375 0.811-0.811 1.643-1.609 2.469-2.406 0.116-0.112 0.23-0.228 0.344-0.344 0.075-0.072 0.144-0.147 0.219-0.219 0.595-0.57 1.21-1.125 1.813-1.688 0.081-0.076 0.17-0.142 0.25-0.219 0.336-0.32 0.658-0.655 1-0.969 0.43-0.394 0.878-0.767 1.313-1.156 0.781-0.698 1.551-1.408 2.344-2.094 0.508-0.443 1.018-0.874 1.531-1.313 0.281-0.239 0.564-0.478 0.844-0.719 0.096-0.081 0.185-0.169 0.281-0.25 0.118-0.099 0.225-0.214 0.344-0.313 0.45-0.376 0.918-0.727 1.375-1.094 0.063-0.052 0.124-0.105 0.188-0.156 0.074-0.061 0.145-0.127 0.219-0.188 0.165-0.135 0.334-0.272 0.5-0.406 0.435-0.357 0.873-0.712 1.313-1.063 0.215-0.171 0.441-0.329 0.656-0.5 0.658-0.52 1.303-1.051 1.969-1.563 0.165-0.127 0.333-0.251 0.5-0.375 0.083-0.063 0.167-0.124 0.25-0.188 0.751-0.572 1.521-1.125 2.281-1.688 0.119-0.088 0.225-0.194 0.344-0.281 0.612-0.45 1.227-0.898 1.844-1.344 0.157-0.113 0.311-0.231 0.469-0.344 0.103-0.074 0.209-0.145 0.313-0.219 0.846-0.601 1.706-1.193 2.563-1.781 0.637-0.438 1.294-0.85 1.938-1.281 0.23-0.154 0.457-0.316 0.688-0.469 0.419-0.278 0.829-0.569 1.25-0.844 0.184-0.12 0.378-0.224 0.563-0.344 1.123-0.727 2.235-1.451 3.375-2.156 0.799-0.494 1.6-0.987 2.406-1.469 0.459-0.275 0.913-0.541 1.375-0.813 0.072-0.043 0.146-0.082 0.219-0.125 0.23-0.135 0.457-0.273 0.688-0.406 0.113-0.066 0.231-0.122 0.344-0.188 0.117-0.068 0.226-0.151 0.344-0.219 0.838-0.483 1.687-0.934 2.531-1.406 0.159-0.089 0.309-0.193 0.469-0.281 0.763-0.424 1.542-0.836 2.313-1.25 0.48-0.258 0.954-0.528 1.438-0.781 0.021-0.011 0.042-0.02 0.063-0.031 0.433-0.227 0.877-0.434 1.313-0.656 0.813-0.416 1.619-0.843 2.438-1.25 0.054-0.027 0.102-0.067 0.156-0.094 0.373-0.185 0.751-0.349 1.125-0.531 0.674-0.329 1.355-0.645 2.031-0.969 0.39-0.185 0.765-0.38 1.156-0.563 0.283-0.132 0.56-0.276 0.844-0.406 0.288-0.133 0.586-0.245 0.875-0.375 0.921-0.419 1.853-0.845 2.781-1.25 0.051-0.022 0.105-0.04 0.156-0.063 1.395-0.607 2.806-1.205 4.219-1.781 0.571-0.233 1.145-0.46 1.719-0.688 0.209-0.083 0.416-0.168 0.625-0.25 0.23-0.09 0.457-0.192 0.688-0.281 0.559-0.218 1.125-0.414 1.688-0.625 0.074-0.028 0.145-0.066 0.219-0.094 0.683-0.257 1.375-0.499 2.063-0.75 0.334-0.122 0.665-0.255 1-0.375 0.292-0.105 0.583-0.209 0.875-0.313 0.532-0.188 1.059-0.379 1.594-0.563 0.112-0.038 0.232-0.056 0.344-0.094 0.856-0.293 1.701-0.594 2.563-0.875 0.166-0.054 0.334-0.103 0.5-0.156 1.029-0.333 2.057-0.652 3.094-0.969 0.334-0.102 0.665-0.212 1-0.313 0.291-0.087 0.584-0.165 0.875-0.25 1.108-0.327 2.227-0.66 3.344-0.969 0.125-0.034 0.25-0.06 0.375-0.094 0.073-0.02 0.146-0.043 0.219-0.063 0.5-0.136 0.998-0.274 1.5-0.406 0.705-0.189 1.417-0.351 2.125-0.531 0.262-0.067 0.519-0.153 0.781-0.219 0.797-0.198 1.604-0.372 2.406-0.563 0.782-0.186 1.559-0.388 2.344-0.563 1.276-0.284 2.558-0.552 3.844-0.813 0.062-0.013 0.125-0.019 0.188-0.031 0.55-0.111 1.105-0.206 1.656-0.313 0.29-0.056 0.584-0.101 0.875-0.156 0.406-0.076 0.812-0.145 1.219-0.219 0.595-0.111 1.185-0.241 1.781-0.344 0.343-0.059 0.689-0.099 1.031-0.156 0.666-0.112 1.328-0.239 2-0.344 0.198-0.031 0.396-0.063 0.594-0.094 0.229-0.035 0.459-0.059 0.688-0.094 0.541-0.082 1.081-0.173 1.625-0.25 0.561-0.079 1.125-0.147 1.688-0.219 0.396-0.053 0.791-0.106 1.188-0.156 0.695-0.088 1.397-0.169 2.094-0.25 0.405-0.047 0.813-0.079 1.219-0.125 0.831-0.092 1.666-0.199 2.5-0.281 1.465-0.144 2.931-0.263 4.406-0.375 0.335-0.025 0.665-0.07 1-0.094 0.323-0.023 0.646-0.04 0.969-0.063 0.437-0.031 0.873-0.068 1.313-0.094 0.687-0.041 1.375-0.059 2.063-0.094 0.292-0.015 0.582-0.049 0.875-0.063 0.052-0.002 0.104 0.002 0.156 0 1.91-0.085 3.849-0.129 5.781-0.156 1.139-0.016 2.268-0.031 3.406-0.031h0.031c3.07 0 6.121 0.053 9.156 0.188 0.052 0.002 0.104-0.002 0.156 0 0.983 0.045 1.958 0.098 2.938 0.156 0.763 0.046 1.52 0.102 2.281 0.156 0.335 0.024 0.665 0.068 1 0.094 0.665 0.05 1.337 0.099 2 0.156 0.364 0.03 0.73 0.061 1.094 0.094 0.93 0.085 1.855 0.184 2.781 0.281 0.751 0.079 1.502 0.163 2.25 0.25 0.353 0.041 0.708 0.083 1.063 0.125 0.345 0.042 0.687 0.081 1.031 0.125 0.96 0.122 1.92 0.24 2.875 0.375 0.115 0.016 0.229 0.046 0.344 0.063 0.657 0.095 1.313 0.181 1.969 0.281 0.86 0.132 1.711 0.263 2.563 0.406 0.354 0.059 0.707 0.126 1.063 0.188 0.02 0.004 0.042-0.004 0.063 0 0.869 0.15 1.729 0.336 2.594 0.5 0.999 0.186 2.01 0.362 3 0.563 1.427 0.288 2.864 0.587 4.281 0.906 0.416 0.094 0.835 0.185 1.25 0.281 1.038 0.241 2.064 0.494 3.094 0.75 0.01 0.002 0.022-0.002 0.031 0 0.334 0.083 0.667 0.165 1 0.25 1.025 0.26 2.044 0.537 3.063 0.813 1.233 0.334 2.464 0.675 3.688 1.031 0.322 0.094 0.646 0.186 0.969 0.281 0.513 0.152 1.02 0.313 1.531 0.469 1.192 0.365 2.38 0.739 3.563 1.125 2.775 0.906 5.533 1.885 8.25 2.906 0.507 0.191 1.026 0.368 1.531 0.563 0.188 0.071 0.375 0.146 0.563 0.219 1.533 0.596 3.05 1.212 4.563 1.844 0.638 0.266 1.272 0.54 1.906 0.813 1.054 0.453 2.112 0.904 3.156 1.375 0.481 0.214 0.96 0.436 1.438 0.656 1.187 0.546 2.358 1.119 3.531 1.688 0.168 0.082 0.332 0.168 0.5 0.25 0.021 0.01 0.041 0.021 0.063 0.031 0.353 0.17 0.712 0.326 1.063 0.5 0.585 0.29 1.169 0.578 1.75 0.875 0.511 0.26 1.023 0.517 1.531 0.781 0.231 0.12 0.457 0.254 0.688 0.375 1.26 0.661 2.506 1.344 3.75 2.031 1.147 0.634 2.274 1.282 3.406 1.938 0.324 0.187 0.646 0.373 0.969 0.563 1.197 0.702 2.383 1.43 3.563 2.156 0.194 0.12 0.4 0.224 0.594 0.344 1.03 0.639 2.046 1.312 3.063 1.969 0.436 0.282 0.879 0.559 1.313 0.844 1.024 0.673 2.053 1.34 3.063 2.031 0.074 0.051 0.145 0.106 0.219 0.156 0.124 0.085 0.251 0.165 0.375 0.25 0.734 0.504 1.462 1.016 2.188 1.531 0.809 0.574 1.608 1.163 2.406 1.75 0.665 0.488 1.342 0.973 2 1.469 0.266 0.201 0.516 0.423 0.781 0.625 0.231 0.176 0.457 0.354 0.688 0.531 0.7 0.539 1.402 1.077 2.094 1.625 0.228 0.18 0.461 0.35 0.688 0.531 0.619 0.495 1.23 0.998 1.844 1.5 0.081 0.066 0.17 0.121 0.25 0.188 0.99 0.812 1.965 1.638 2.938 2.469 0.679 0.579 1.361 1.162 2.031 1.75 0.394 0.346 0.796 0.682 1.188 1.031 0.104 0.093 0.208 0.188 0.313 0.281 0.532 0.477 1.065 0.953 1.594 1.438 0.407 0.373 0.786 0.777 1.188 1.156 0.285 0.266 0.591 0.514 0.875 0.781 0.634 0.596 1.249 1.21 1.875 1.813 0.868 0.842 1.742 1.674 2.594 2.531 0.319 0.321 0.625 0.648 0.938 0.969 0.74 0.755 1.492 1.514 2.219 2.281 0.02 0.021 0.042 0.041 0.063 0.063 0.283 0.299 0.563 0.606 0.844 0.906 1.723 1.843 3.383 3.717 5.03 5.625 1.13 1.309 2.25 2.63 3.344 3.969 0.168 0.206 0.333 0.419 0.5 0.625 0.256 0.316 0.528 0.62 0.781 0.938l23.875-9.781c-39.32-58.35-106.01-96.72-181.66-96.72m-75 395.09c1.14 0.478 2.286 0.949 3.438 1.406-1.153-0.457-2.296-0.928-3.438-1.406z" fill="#BF9E73"/>
 <path id="path1794" fill-rule="evenodd" fill-opacity="0.067" d="m256 1c-140.83 0-255 114.17-255 255s114.17 255 255 255 255-114.17 255-255-114.17-255-255-255m8.827 44.931c120.9 0 218.9 98 218.9 218.9s-98 218.9-218.9 218.9-218.93-98-218.93-218.9 98.03-218.9 218.93-218.9"/>
 <g id="g1796" fill-rule="evenodd" fill-opacity="0.129">
  <path id="path1798" d="m256 4.43c-138.94 0-251.57 112.63-251.57 251.57s112.63 251.57 251.57 251.57 251.57-112.63 251.57-251.57-112.63-251.57-251.57-251.57m5.885 38.556c120.9 0 218.9 98 218.9 218.9s-98 218.9-218.9 218.9-218.93-98-218.93-218.9 98.03-218.9 218.93-218.9"/>
  <path id="path1800" d="m256 8.36c-136.77 0-247.64 110.87-247.64 247.64s110.87 247.64 247.64 247.64 247.64-110.87 247.64-247.64-110.87-247.64-247.64-247.64m2.942 31.691c120.9 0 218.9 98 218.9 218.9s-98 218.9-218.9 218.9-218.93-98-218.93-218.9 98.03-218.9 218.93-218.9"/>
 </g>
 <path id="path1802" d="m253.04 7.86c-135.42 0-245.19 109.78-245.19 245.19 0 135.42 109.78 245.19 245.19 245.19 135.42 0 245.19-109.78 245.19-245.19 0-135.42-109.78-245.19-245.19-245.19m0 26.297c120.9 0 218.9 98 218.9 218.9s-98 218.9-218.9 218.9-218.93-98-218.93-218.9 98.03-218.9 218.93-218.9z" stroke-opacity="0.31" fill-rule="evenodd" stroke="#000" stroke-width="4.904" fill="#fff"/>
 <path id="path1850" opacity="0.25" d="m411.25 176.14l-27.09 1.398 1.436 19.986 0.072 0.41-10.629-10.629c-3.436-3.436-7.649-6.157-12.643-7.613-3.789-1.136-9.108-1.662-15.754-1.625-2.215 0.012-4.558 0.054-7.06 0.189-10.398 0.57-18.65 2.546-24.635 5.705-5.621 2.998-10.215 6.89-13.719 11.631l-13.03-13.03-36.723 2.115-5.08 24.881-23.445-23.445-36.762 2.154 1.418 24.762-11.793-11.793c-0.669-0.669-1.366-1.316-2.094-1.938-8.08-6.951-19.08-10.356-32.871-10.09-0.919 0.018-1.851 0.063-2.795 0.113-14.731 0.798-26.1 5.488-33.891 13.902-7.794 8.416-11.175 19.582-10.352 33.891 0.59 10.241 3.298 18.721 7.857 25.314 1.469 2.123 3.056 4.03 4.762 5.736l16.82 16.82c-4.524 1.209-8.187 3.374-11 6.498-4.194 4.654-6.135 11.12-5.744 19.42 0.293 6.23 1.799 11.313 4.496 15.188 0.96 1.378 1.972 2.597 3.037 3.662l142.16 142.16c119.45-1.689 215.75-99.02 215.75-218.87 0-5.673-0.217-11.295-0.641-16.859l-60.05-60.05"/>
 <path id="path1852" d="m411.25 176.14l-27.09 1.398 1.436 19.987 7.103 39.935 16.775-1.058 2.871-40.31-1.096-19.949m-64.61 1.927c-2.215 0.012-4.559 0.054-7.07 0.189-10.398 0.57-18.649 2.546-24.634 5.705-7.67 4.091-13.439 9.842-17.12 17.15-3.679 7.274-5.16 15.751-4.609 25.314 0.523 9.09 2.986 17.06 7.103 23.878 4.159 6.811 9.804 11.815 16.775 14.999 7.01 3.188 15.64 4.511 26.41 3.929 8.748-0.456 16.2-2.01 22.442-4.307 6.281-2.339 13.443-6.566 21.422-12.468l-2.154-37.1-43.15 2.154 1.058 18.17 18.551-0.718 0.718 8.199c-3.551 2.312-6.838 3.961-9.634 4.987-2.797 1.043-5.781 1.606-8.917 1.776-6.602 0.375-11.732-1.461-15.679-5.327-3.906-3.869-6.255-10.502-6.801-19.987-0.514-8.927 0.912-15.687 4.307-19.987 3.434-4.343 8.096-6.434 14.244-6.763 4.126-0.228 7.61 0.158 10.352 1.776 2.783 1.613 5.118 4.234 6.423 7.481l26.75-6.05c-1.976-5.572-4.687-10.08-8.199-13.564-3.473-3.534-7.752-6.335-12.846-7.821-3.789-1.136-9.109-1.662-15.755-1.625m-58.45 4.496l-36.724 2.116-11.07 54.22-17.455-52.781-36.762 2.154 5.02 87.73 22.82-1.436-3.589-66.68 21.422 65.63 20.667-1.058 13.942-67.781 3.892 67.06 22.858-1.398-5.02-87.77m-147.35 6.65c-0.919 0.018-1.852 0.063-2.796 0.113-14.731 0.798-26.1 5.489-33.89 13.904-7.794 8.416-11.176 19.582-10.352 33.89 0.59 10.241 3.299 18.721 7.859 25.314 4.56 6.59 10.249 11.11 17.12 13.904 6.907 2.784 15.459 4.135 25.692 3.589 10.07-0.554 18.08-2.814 24.596-6.801 6.556-4.03 11.449-9.669 14.622-16.397 3.211-6.767 4.519-15.07 3.929-25.314-0.812-14.11-5.284-24.745-13.904-32.11-8.08-6.951-19.08-10.357-32.87-10.09m0.416 20.402c4.906 0.163 8.939 1.85 12.13 5.02 3.684 3.599 5.948 9.583 6.423 17.833 0.564 9.806-0.846 16.744-3.929 20.704-3.083 3.967-7.539 6.102-13.564 6.423-5.859 0.31-10.597-1.314-14.244-4.987-3.606-3.685-5.574-10.08-6.083-18.929-0.514-8.927 0.727-15.184 3.929-19.231 3.202-4.052 7.533-6.491 13.186-6.801 0.738-0.039 1.453-0.061 2.154-0.038m272.86 32.87l-24.974 1.058 1.058 21.725 25.352-1.398-1.436-21.385m2.305 28.828l-14.886 0.68 0.491 11.486 3.892 22.782 9.257-0.378 1.738-23.12-0.491-11.448m-15.453 0.718l-41.522 1.965 2.342 50.17 42.32-2-0.567-11.372-26.75 1.247-0.453-9.899 24.14-1.133-0.529-10.201-24.1 1.133-0.378-8.01 26.03-1.209-0.529-10.692m-43.638 2.078l-20.327 0.907-6.423 30.906-9.294-30.15-20.402 0.945 2.38 50.17 12.657-0.567-1.776-38.27 11.599 37.82 11.448-0.605 8.05-38.726 1.776 38.27 12.657-0.605-2.342-50.1m-77.23 2.947v0.264c-1.861-0.195-3.844-0.254-5.932-0.189-8.144 0.391-14.392 2.97-18.74 7.745-2.128 2.339-3.653 5.117-4.647 8.274-0.001 0 0.001-0.026 0-0.189-0.15-3.193-1.065-5.833-2.72-7.972-1.656-2.162-3.776-3.605-6.347-4.307-2.571-0.701-6.242-0.967-11.03-0.756l-25.805 1.247 2.342 50.14 15.566-0.756-0.945-20.364 1.36-0.151c1.415 0 2.7 0.249 3.854 0.982 0.849 0.554 1.842 1.805 2.985 3.74l8.992 14.924 17.531-0.831-8.161-14.168c-0.399-0.733-1.184-1.727-2.342-3.02-1.135-1.287-2.02-2.112-2.607-2.494-0.873-0.586-2.241-1.13-4.118-1.662 2.28-0.619 4.08-1.397 5.365-2.267 2.02-1.352 3.555-3.036 4.647-5.101 0.112-0.212 0.165-0.474 0.264-0.718-0.112 1.499-0.191 3.01-0.113 4.647 0.276 5.862 1.668 10.716 4.156 14.508 2.488 3.793 5.589 6.496 9.37 8.123 3.803 1.629 8.548 2.309 14.206 2.04 5.566-0.261 10.132-1.525 13.753-3.778 3.643-2.274 6.375-5.31 8.161-9.143 1.808-3.859 2.58-8.721 2.305-14.584-0.38-8.07-2.942-14.218-7.67-18.475-3.546-3.213-8.094-5.125-13.677-5.705m-78.13 4.345l-15.566 0.718 0.831 17.569-16.926 0.793-0.831-17.569-15.491 0.756 1.587 33.739-13.639-3.438c-0.535 3.203-1.535 5.667-2.985 7.405-1.427 1.737-3.608 2.656-6.574 2.796-3.057 0.163-5.469-0.736-7.254-2.72-1.786-1.997-2.799-5.807-3.06-11.372-0.211-4.496 0.309-7.809 1.625-9.974 1.738-2.911 4.383-4.44 7.896-4.609 1.551-0.163 2.947 0.169 4.232 0.756 1.285 0.586 2.402 1.411 3.325 2.569 0.558 0.684 1.112 1.782 1.662 3.287l13.564-3.703c-2.01-5.21-4.905-8.989-8.652-11.372-3.725-2.383-8.756-3.429-15.07-3.136-8.08 0.375-14.184 2.915-18.4 7.594-4.194 4.654-6.133 11.12-5.743 19.42 0.293 6.23 1.799 11.314 4.496 15.188 2.697 3.872 5.812 6.499 9.332 7.934 3.542 1.401 8.04 2.028 13.488 1.776 4.494-0.212 8.158-1.075 10.995-2.494 2.859-1.434 5.186-3.473 7.03-6.121 1.762-2.532 3.03-5.66 3.778-9.294l0.718 15.944 15.528-0.756-0.982-20.327 16.964-0.793 0.945 20.289 15.566-0.718-2.38-50.14m73.901 7.405c2.712 0.107 4.941 1.108 6.687 2.947 2.02 2.077 3.141 5.442 3.363 10.163 0.264 5.611-0.468 9.571-2.191 11.826-1.723 2.253-4.226 3.471-7.556 3.627-3.24 0.163-5.861-0.86-7.859-2.985-1.975-2.126-3.087-5.703-3.325-10.768-0.24-5.109 0.553-8.844 2.342-11.146 1.79-2.305 4.242-3.482 7.367-3.627 0.408-0.02 0.784-0.053 1.171-0.038m-46.21 1.511c1.789 0.072 3.091 0.423 3.892 1.058 1.067 0.815 1.662 2.046 1.738 3.665 0.052 1.091-0.247 2.113-0.869 2.985-0.599 0.88-1.401 1.413-2.418 1.662-2.01 0.521-3.372 0.825-4.08 0.907l-6.536 0.302-0.491-10.201 6.801-0.302v-0.038c0.707-0.041 1.368-0.062 1.965-0.038m188.04 18.891l-13.904 0.68 0.605 12.279 13.904-0.642-0.605-12.317" fill="#fff"/>
</svg>
