<?xml version="1.0" encoding="UTF-8" standalone="no"?>
<svg xmlns="http://www.w3.org/2000/svg" viewBox="0 0 512 512">
 <g fill-rule="evenodd">
  <path d="m471.95 253.05c0 120.9-98.01 218.91-218.91 218.91s-218.91-98.01-218.91-218.91 98.01-218.91 218.91-218.91 218.91 98.01 218.91 218.91" fill="#BF9E73"/>
  <path d="m256 1c-140.83 0-255 114.17-255 255s114.17 255 255 255 255-114.17 255-255-114.17-255-255-255m8.827 44.931c120.9 0 218.9 98 218.9 218.9s-98 218.9-218.9 218.9-218.93-98-218.93-218.9 98.03-218.9 218.93-218.9" fill-opacity="0.067"/>
  <g fill-opacity="0.129">
   <path d="m256 4.43c-138.94 0-251.57 112.63-251.57 251.57s112.63 251.57 251.57 251.57 251.57-112.63 251.57-251.57-112.63-251.57-251.57-251.57m5.885 38.556c120.9 0 218.9 98 218.9 218.9s-98 218.9-218.9 218.9-218.93-98-218.93-218.9 98.03-218.9 218.93-218.9"/>
   <path d="m256 8.36c-136.77 0-247.64 110.87-247.64 247.64s110.87 247.64 247.64 247.64 247.64-110.87 247.64-247.64-110.87-247.64-247.64-247.64m2.942 31.691c120.9 0 218.9 98 218.9 218.9s-98 218.9-218.9 218.9-218.93-98-218.93-218.9 98.03-218.9 218.93-218.9"/>
  </g>
  <path stroke="#000" stroke-width="4.904" d="m253.04 7.86c-135.42 0-245.19 109.78-245.19 245.19 0 135.42 109.78 245.19 245.19 245.19 135.42 0 245.19-109.78 245.19-245.19 0-135.42-109.78-245.19-245.19-245.19m0 26.297c120.9 0 218.9 98 218.9 218.9s-98 218.9-218.9 218.9-218.93-98-218.93-218.9 98.03-218.9 218.93-218.9z" stroke-opacity="0.31" fill="#fff"/>
 </g>
 <text font-size="129.23" y="231.36" x="729.64" font-family="&apos;Gentium Book Basic&apos;" line-height="125%" word-spacing="0" letter-spacing="0"><tspan y="231.36" x="729.64"/>
 </text>
 <text transform="scale(4.0128.2492)" font-size="46.954" y="579.26" x="378.91" font-family="Arial" text-anchor="middle"/>
 <text font-size="129.23" y="151.36" x="1310.91" font-family="&apos;Gentium Book Basic&apos;" line-height="125%" word-spacing="0" letter-spacing="0"><tspan y="151.36" x="1310.91"/>
 </text>
 <text transform="scale(4.0128.2492)" font-size="46.954" y="258.22" x="523.76" font-family="Arial" text-anchor="middle"/>
 <text font-size="129.23" y="-29.9" x="239.33" font-family="&apos;Gentium Book Basic&apos;" line-height="125%" word-spacing="0" letter-spacing="0"><tspan y="-29.9" x="239.33"/>
 </text>
 <text transform="scale(4.0128.2492)" font-size="46.954" y="-469.13" x="256.72" font-family="Arial" text-anchor="middle"/>
 <text font-size="129.23" y="-246.37" x="1337.38" font-family="&apos;Gentium Book Basic&apos;" line-height="125%" word-spacing="0" letter-spacing="0"><tspan y="-246.37" x="1337.38"/>
 </text>
 <text transform="scale(4.0128.2492)" font-size="46.954" y="-1337.8" x="530.36" font-family="Arial" text-anchor="middle"/>
 <text font-size="129.23" y="-326.37" x="1918.65" font-family="&apos;Gentium Book Basic&apos;" line-height="125%" word-spacing="0" letter-spacing="0"><tspan y="-326.37" x="1918.65"/>
 </text>
 <text transform="scale(4.0128.2492)" font-size="46.954" y="-1658.83" x="675.21" font-family="Arial" text-anchor="middle"/>
 <text font-size="129.23" y="-798.77" x="1529.53" font-family="&apos;Gentium Book Basic&apos;" line-height="125%" word-spacing="0" letter-spacing="0"><tspan y="-798.77" x="1529.53"/>
 </text>
 <text transform="scale(4.0128.2492)" font-size="46.954" y="-3554.48" x="578.24" font-family="Arial" text-anchor="middle"/>
 <text font-size="129.23" y="-878.78" x="2110.79" font-family="&apos;Gentium Book Basic&apos;" line-height="125%" word-spacing="0" letter-spacing="0"><tspan y="-878.78" x="2110.79"/>
 </text>
 <text transform="scale(4.0128.2492)" font-size="46.954" y="-3875.52" x="723.09" font-family="Arial" text-anchor="middle"/>
 <text font-size="208.33" y="535.94" x="277.99" font-family="&apos;Gentium Book Basic&apos;" line-height="125%" word-spacing="0" letter-spacing="0"><tspan y="535.94" x="277.99"/>
 </text>
 <path opacity="0.25" d="m412.75 173.89l-27.313 1.438 1.438 20.13 0.002 0.01-10.371-10.371-0.219-0.219c-3.471-3.471-7.72-5.908-12.773-7.381-5.093-1.558-12.893-1.987-23-1.447-10.481 0.561-18.764 2.565-24.797 5.752-5.733 3.056-10.21 7.01-13.654 11.859l-13.299-13.299-37.02 2.158-5.141 25.04-23.609-23.609-37.02 2.158 1.406 24.613-11.957-11.957c-0.649-0.649-1.326-1.273-2.029-1.875-8.691-7.471-20.715-10.521-35.938-9.705-14.848 0.788-26.28 5.177-34.14 13.66-7.856 8.479-11.252 20.08-10.422 34.498 0.594 10.324 2.951 18.873 7.547 25.518 1.482 2.141 3.081 4.065 4.801 5.785l21.12 21.12-1.559 6.783-12.139-12.139-16.893 0.721v0.361l16.17 54.625 133.71 133.71c2.451 0.081 4.91 0.139 7.381 0.139 120.9 0 218.91-98.01 218.91-218.91 0-7.08-0.349-14.07-1.01-20.977l-58.19-58.19"/>
 <path d="m412.75 173.89l-27.313 1.437 1.438 20.13 7.188 39.89 16.891-0.721 2.875-40.612-1.078-20.12m-72.24 2.155c-10.481 0.561-18.764 2.565-24.797 5.752-7.731 4.121-13.185 9.878-16.891 17.248-3.708 7.334-5.586 15.876-5.03 25.516 0.527 9.159 3.037 17.211 7.188 24.08 4.192 6.866 9.864 11.885 16.891 15.09 7.07 3.212 15.739 4.539 26.594 3.953 8.817-0.467 16.709-2 23-4.312 6.331-2.354 13.52-6.627 21.563-12.579l-2.156-37.37-43.845 2.156 1.078 18.327 19.05-1.068 0.359 8.625c-3.579 2.326-6.884 3.995-9.703 5.03-2.819 1.041-5.824 1.625-8.985 1.797-6.655 0.36-11.834-1.495-15.813-5.392-3.938-3.898-6.278-10.563-6.828-20.12-0.518-8.999 0.891-15.791 4.313-20.13 3.461-4.376 8.537-6.854 14.735-7.185 4.159-0.227 7.299 0.534 10.06 2.155 2.805 1.622 5.154 4.272 6.469 7.547l26.954-6.111c-1.992-5.613-4.726-10.497-8.266-14.01-3.501-3.559-7.804-6.05-12.938-7.547-5.093-1.558-12.894-1.985-23-1.446m-51.751 4.312l-37.02 2.158-11.141 54.27-17.61-52.831-37.02 2.158 5.03 88.05 23-1.068-3.953-67.2 21.922 66.13 20.844-1.068 14.02-68.28 3.953 67.2 23-1.068-5.03-88.44m-151.3 6.828c-14.848 0.788-26.29 5.176-34.14 13.659-7.856 8.479-11.252 20.08-10.422 34.499 0.594 10.324 2.951 18.872 7.547 25.516 4.596 6.642 10.33 11.203 17.25 14.02 6.962 2.809 15.92 4.145 26.23 3.594 10.148-0.547 18.228-2.81 24.797-6.828 6.608-4.061 11.537-9.752 14.735-16.531 3.237-6.822 4.547-15.193 3.953-25.516-0.819-14.223-5.328-25.27-14.02-32.704-8.691-7.471-20.716-10.521-35.938-9.705m1.078 20.486c5.948-0.32 10.701 1.362 14.375 5.03 3.713 3.627 5.99 9.653 6.469 17.969 0.569 9.882-0.846 16.848-3.953 20.845-3.108 3.993-7.584 6.135-13.657 6.467-5.906 0.32-10.699-1.322-14.375-5.03-3.635-3.713-5.956-10.128-6.469-19.05-0.518-8.999 1.085-15.683 4.313-19.765 3.228-4.083 7.599-6.159 13.297-6.47m277.08 32.704l-25.16 1.439 1.078 21.562 25.516-1.068-1.437-21.933m1.078 25.515l-17.25 1.068 0.719 12.578 4.672 25.15 10.781-0.36 1.797-25.875-0.719-12.565m-42.41 1.439c-5.997 0.32-11 1.215-14.375 2.876-3.347 1.626-5.608 3.818-7.188 6.467-1.555 2.621-2.322 5.408-2.156 8.266 0.253 4.351 2.235 7.794 5.75 10.424 3.489 2.626 8.989 4.477 16.891 5.748 4.825 0.748 7.968 1.806 9.344 2.876 1.375 1.068 2.073 2.154 2.156 3.594 0.088 1.514-0.477 3.073-1.797 4.312-1.296 1.215-3.21 1.66-5.75 1.797-3.404 0.187-5.942-0.734-7.906-2.876-1.207-1.322-1.995-3.113-2.516-5.748l-16.891 1.794c0.824 5.59 3.205 10.22 7.188 13.658s10.691 4.84 20.485 4.312c5.578-0.294 10.08-1.491 13.657-3.236 3.575-1.768 6.398-4.065 8.266-7.187 1.867-3.12 2.723-6.498 2.516-10.06-0.177-3.036-1.187-5.896-2.875-8.267-1.661-2.37-4.073-4.292-7.547-5.749-3.449-1.489-9.02-2.757-16.891-3.955-3.179-0.454-5.229-1.095-6.11-1.796-0.905-0.654-1.386-1.268-1.438-2.156-0.071-1.215 0.079-2.338 1.078-3.234 0.997-0.895 2.603-1.335 4.672-1.438 2.514-0.133 4.629 0.387 6.11 1.438 1.506 1.055 2.644 2.911 3.234 5.39l16.532-2.156c-1.069-5.726-3.519-9.798-7.547-12.219-4-2.451-9.532-3.276-16.89-2.876zm-54.626 3.953l-26.594 1.438 3.234 55.35 26.594-1.441c3.169-0.174 6.579-0.561 10.422-1.794 2.812-0.881 5.187-2.694 7.547-5.03 2.358-2.36 4.192-5.287 5.391-8.623 1.223-3.367 1.783-7.712 1.438-13.657-0.221-3.793-1.017-7.446-2.156-10.784-1.14-3.338-2.788-6.181-5.03-8.623-2.243-2.442-4.965-4.559-8.266-5.75-3.274-1.188-7.367-1.355-12.578-1.081zm-54.626 2.874l-29.829 1.438 3.234 55.705 17.969-0.721-1.438-22.642 1.797-0.36c1.624-0.133 2.979 0.28 4.313 1.068 0.981 0.601 2.261 2.18 3.594 4.316l10.422 16.528 20.13-1.068-9.703-15.813c-0.466-0.788-1.172-1.812-2.516-3.235-1.317-1.427-2.553-2.462-3.234-2.876-1.01-0.627-2.511-1.228-4.672-1.797 2.611-0.734 4.642-1.549 6.109-2.515 2.302-1.519 4.158-3.449 5.391-5.749 1.231-2.326 1.617-4.82 1.438-7.908-0.206-3.539-1.311-6.627-3.234-8.983-1.925-2.383-4.228-3.916-7.188-4.673-2.959-0.788-7.079-1.015-12.578-0.721zm-62.53 2.515c-9.349 0.507-16.62 3.283-21.563 8.625-4.943 5.344-6.997 12.483-6.469 21.563 0.378 6.502 2.135 11.99 5.03 16.17 2.896 4.179 6.423 7.21 10.781 8.984 4.385 1.764 9.678 2.501 16.17 2.156 6.389-0.347 11.678-1.78 15.813-4.314 4.159-2.559 7.333-6.152 9.344-10.422 2.036-4.296 2.894-9.674 2.516-16.17-0.521-8.953-3.512-15.808-8.985-20.484-5.474-4.7-13.06-6.625-22.641-6.108m-26.24 2.156l-16.891 1.068-4.313 31.27-10.422-30.546-16.891 1.068-7.188 31.27-7.906-30.548-16.891 0.721v0.36l16.17 54.625 17.25-0.721 7.906-35.579 12.219 34.499 17.61-1.068 9.344-56.41m139.8 5.03c4.609-0.24 7.946 0.801 10.06 2.874 2.117 2.071 3.251 5.967 3.594 11.861 0.259 4.451 0.056 7.657-0.719 9.703-0.776 2.02-1.71 3.427-3.234 4.314-1.526 0.868-4.188 1.59-7.906 1.796l-4.672 0.36-1.438-30.547 4.313-0.36zm-54.626 1.797c3.247-0.174 5.594 0.187 6.828 1.068 1.234 0.895 2.052 2.159 2.156 3.955 0.071 1.215-0.373 2.256-1.078 3.235-0.679 0.975-1.71 1.869-2.875 2.154-2.301 0.627-3.86 0.721-4.672 0.721l-7.188 0.36-0.719-11.14 7.547-0.347zm-58.22 3.955c3.745-0.2 6.67 0.921 8.985 3.234 2.339 2.284 3.649 5.906 3.953 11.141 0.362 6.223-0.201 10.778-2.156 13.298-1.955 2.518-4.802 3.746-8.625 3.955-3.718 0.2-7.03-0.908-9.344-3.234-2.29-2.342-3.627-6.246-3.953-11.861-0.329-5.667 0.485-10.01 2.516-12.579 2.031-2.571 5.04-3.758 8.626-3.953m215.27 18.327l-15.813 0.721 0.719 13.658 15.813-0.721-0.719-13.658" fill="#fff"/>
</svg>
