<?xml version="1.0" encoding="UTF-8" standalone="no"?>
<svg xmlns="http://www.w3.org/2000/svg" height="512" viewBox="0 0 512 512" width="512" version="1.1">
 <metadata id="metadata84"/>
 <path id="path4" d="m471.95 253.05c0 120.9-98.01 218.9-218.9 218.9-120.9 0-218.9-98.01-218.9-218.9 0-120.9 98.01-218.9 218.9-218.9 120.9 0 218.9 98.01 218.9 218.9" fill-rule="evenodd" fill="#fff"/>
 <g id="g6" color="#bebebe">
  <path id="path8" fill="#BF9E73" d="m256 256v215.91c118.54-1.58 214.34-97.36 215.91-215.91h-215.91"/>
  <path id="path10" fill="#BF9E73" d="m253.03 34.16c-120.9 0-218.91 98.01-218.91 218.91 0 0.987 0.049 1.954 0.063 2.938h221.81v-221.81c-0.988-0.013-1.977-0.031-2.969-0.031"/>
 </g>
 <path id="path12" fill-opacity="0.235" d="m167.16 100.44c-15.1 0-26.687 4.561-34.813 13.656-8.08 9.05-12.13 21.799-12.12 38.28 0 16.62 4.062 29.515 12.188 38.656 0.861 0.958 1.752 1.862 2.688 2.719 0.758 0.831 1.56 1.59 2.375 2.344 0.88 0.973 1.792 1.913 2.75 2.781 0.751 0.814 1.537 1.573 2.344 2.313 0.755 0.827 1.564 1.625 2.375 2.375 0.834 0.922 1.69 1.798 2.594 2.625 0.768 0.842 1.58 1.612 2.406 2.375 0.85 0.938 1.734 1.847 2.656 2.688 0.769 0.838 1.578 1.616 2.406 2.375 0.755 0.827 1.564 1.625 2.375 2.375 0.834 0.922 1.69 1.798 2.594 2.625 0.768 0.842 1.58 1.612 2.406 2.375 0.85 0.938 1.734 1.847 2.656 2.688 0.769 0.838 1.578 1.616 2.406 2.375 0.755 0.827 1.564 1.625 2.375 2.375 0.834 0.922 1.69 1.798 2.594 2.625 0.768 0.842 1.58 1.612 2.406 2.375 0.85 0.938 1.734 1.847 2.656 2.688 0.769 0.838 1.578 1.616 2.406 2.375 0.755 0.827 1.564 1.625 2.375 2.375 0.824 0.911 1.671 1.775 2.563 2.594 0.806 0.886 1.66 1.702 2.531 2.5 0.823 0.902 1.672 1.783 2.563 2.594 0.769 0.838 1.578 1.616 2.406 2.375 0.755 0.827 1.564 1.625 2.375 2.375 0.824 0.911 1.671 1.775 2.563 2.594 0.806 0.886 1.66 1.702 2.531 2.5 0.823 0.902 1.672 1.783 2.563 2.594 0.769 0.838 1.578 1.616 2.406 2.375 0.755 0.827 1.564 1.625 2.375 2.375 0.824 0.911 1.671 1.775 2.563 2.594 0.806 0.886 1.66 1.702 2.531 2.5 0.823 0.902 1.672 1.783 2.563 2.594 0.769 0.838 1.578 1.616 2.406 2.375 0.755 0.827 1.564 1.625 2.375 2.375 0.824 0.911 1.671 1.775 2.563 2.594 0.806 0.886 1.66 1.702 2.531 2.5 0.823 0.902 1.672 1.783 2.563 2.594 0.769 0.838 1.578 1.616 2.406 2.375 0.755 0.827 1.564 1.625 2.375 2.375 0.824 0.911 1.671 1.775 2.563 2.594 0.806 0.886 1.66 1.702 2.531 2.5 0.823 0.902 1.672 1.783 2.563 2.594 0.769 0.838 1.578 1.616 2.406 2.375 0.755 0.827 1.564 1.625 2.375 2.375 0.824 0.911 1.671 1.775 2.563 2.594 0.806 0.886 1.66 1.702 2.531 2.5 0.823 0.902 1.672 1.783 2.563 2.594 0.769 0.838 1.578 1.616 2.406 2.375 0.755 0.827 1.564 1.625 2.375 2.375 0.824 0.911 1.671 1.775 2.563 2.594 0.806 0.886 1.66 1.702 2.531 2.5 0.823 0.902 1.672 1.783 2.563 2.594 0.774 0.844 1.573 1.643 2.406 2.406 0.758 0.831 1.56 1.59 2.375 2.344 0.824 0.911 1.671 1.775 2.563 2.594 0.806 0.886 1.66 1.702 2.531 2.5 0.823 0.902 1.672 1.783 2.563 2.594 0.774 0.844 1.573 1.643 2.406 2.406 0.758 0.831 1.56 1.59 2.375 2.344 0.824 0.911 1.671 1.775 2.563 2.594 0.806 0.886 1.66 1.702 2.531 2.5 0.823 0.902 1.672 1.783 2.563 2.594 0.774 0.844 1.573 1.643 2.406 2.406 0.758 0.831 1.56 1.59 2.375 2.344 0.824 0.911 1.671 1.775 2.563 2.594 0.806 0.886 1.66 1.702 2.531 2.5 0.823 0.902 1.672 1.783 2.563 2.594 0.774 0.844 1.573 1.643 2.406 2.406 0.778 0.853 1.599 1.635 2.438 2.406v45.5h2.5v1.969s2.171 0.027 2.469 0.031v1.906s2.194 0.054 2.5 0.063v1.906s2.168 0.081 2.469 0.094v1.844s2.191 0.107 2.5 0.125v1.844s2.189 0.165 2.5 0.188v1.75s2.164 0.192 2.469 0.219v1.75s2.186 0.218 2.5 0.25v1.688c0 0.001 2.161 0.245 2.469 0.281v1.688c0 0.001 2.184 0.271 2.5 0.313v1.625c0 0.001 2.182 0.328 2.5 0.375v1.594c0 0.001 2.156 0.355 2.469 0.406v1.531c0 0.001 2.179 0.38 2.5 0.438v1.531c0 0.001 2.154 0.407 2.469 0.469v1.469c0 0.001 2.176 0.463 2.5 0.531v1.438c0 0.001 2.174 0.488 2.5 0.563v1.375c0 0.001 2.149 0.516 2.469 0.594v1.375c0 0.001 2.17 0.57 2.5 0.656v1.281c0 0.001 2.145 0.598 2.469 0.688v0.688c38.574-20.07 70.44-51.27 91.28-89.37-0.235-0.227-0.476-0.438-0.719-0.656-0.809-0.868-1.63-1.718-2.5-2.5-0.669-0.718-1.351-1.403-2.063-2.063-0.928-1.025-1.896-1.998-2.906-2.906-0.806-0.865-1.633-1.721-2.5-2.5-0.801-0.859-1.608-1.695-2.469-2.469-0.809-0.868-1.63-1.718-2.5-2.5-0.669-0.718-1.351-1.403-2.063-2.063-0.928-1.025-1.896-1.998-2.906-2.906-0.806-0.865-1.633-1.721-2.5-2.5-0.801-0.859-1.608-1.695-2.469-2.469-0.809-0.868-1.63-1.718-2.5-2.5-0.669-0.718-1.351-1.403-2.063-2.063-0.928-1.025-1.896-1.998-2.906-2.906-0.806-0.865-1.633-1.721-2.5-2.5-0.801-0.859-1.608-1.695-2.469-2.469-0.809-0.868-1.63-1.718-2.5-2.5-0.806-0.865-1.633-1.721-2.5-2.5-0.799-0.856-1.61-1.697-2.469-2.469-0.809-0.868-1.63-1.718-2.5-2.5-0.801-0.859-1.608-1.695-2.469-2.469-0.809-0.868-1.63-1.718-2.5-2.5-0.806-0.865-1.633-1.721-2.5-2.5-0.801-0.859-1.608-1.695-2.469-2.469-0.809-0.868-1.63-1.718-2.5-2.5-0.801-0.859-1.608-1.695-2.469-2.469-0.809-0.868-1.63-1.718-2.5-2.5-0.806-0.865-1.633-1.721-2.5-2.5-0.801-0.859-1.608-1.695-2.469-2.469-0.809-0.868-1.63-1.718-2.5-2.5-0.801-0.859-1.608-1.695-2.469-2.469-0.809-0.868-1.63-1.718-2.5-2.5-0.806-0.865-1.633-1.721-2.5-2.5-0.801-0.859-1.608-1.695-2.469-2.469-0.809-0.868-1.63-1.718-2.5-2.5-0.801-0.859-1.608-1.695-2.469-2.469-0.809-0.868-1.63-1.718-2.5-2.5-0.806-0.865-1.633-1.721-2.5-2.5-0.801-0.859-1.608-1.695-2.469-2.469-0.809-0.868-1.63-1.718-2.5-2.5-0.801-0.859-1.608-1.695-2.469-2.469-0.809-0.868-1.63-1.718-2.5-2.5-0.806-0.865-1.633-1.721-2.5-2.5-0.801-0.859-1.608-1.695-2.469-2.469-0.809-0.868-1.63-1.718-2.5-2.5-0.801-0.859-1.608-1.695-2.469-2.469-0.809-0.868-1.63-1.718-2.5-2.5-0.806-0.865-1.633-1.721-2.5-2.5-0.801-0.859-1.608-1.695-2.469-2.469-0.809-0.868-1.63-1.718-2.5-2.5-0.806-0.865-1.602-1.689-2.469-2.469-0.809-0.868-1.63-1.718-2.5-2.5-0.806-0.865-1.633-1.721-2.5-2.5-0.801-0.859-1.608-1.695-2.469-2.469-0.809-0.868-1.63-1.718-2.5-2.5-0.806-0.865-1.602-1.689-2.469-2.469-0.809-0.868-1.63-1.718-2.5-2.5-0.806-0.865-1.633-1.721-2.5-2.5-0.801-0.859-1.608-1.695-2.469-2.469-0.809-0.868-1.63-1.718-2.5-2.5-0.806-0.865-1.602-1.689-2.469-2.469-0.809-0.868-1.63-1.718-2.5-2.5-0.806-0.865-1.633-1.721-2.5-2.5-0.801-0.859-1.608-1.695-2.469-2.469-0.809-0.868-1.63-1.718-2.5-2.5-0.806-0.865-1.602-1.689-2.469-2.469-0.809-0.868-1.63-1.718-2.5-2.5-0.806-0.865-1.633-1.721-2.5-2.5-0.801-0.859-1.608-1.695-2.469-2.469-0.809-0.868-1.63-1.718-2.5-2.5-0.806-0.865-1.602-1.689-2.469-2.469-0.809-0.868-1.63-1.718-2.5-2.5-0.806-0.865-1.633-1.721-2.5-2.5-0.801-0.859-1.608-1.695-2.469-2.469-0.809-0.868-1.63-1.718-2.5-2.5-0.806-0.865-1.602-1.689-2.469-2.469-0.809-0.868-1.63-1.718-2.5-2.5-0.806-0.865-1.633-1.721-2.5-2.5-0.801-0.859-1.608-1.695-2.469-2.469-0.809-0.868-1.63-1.718-2.5-2.5-0.669-0.718-1.351-1.403-2.063-2.063-0.928-1.025-1.896-1.998-2.906-2.906-0.806-0.865-1.633-1.721-2.5-2.5-0.801-0.859-1.608-1.695-2.469-2.469-0.809-0.868-1.63-1.718-2.5-2.5-0.669-0.718-1.351-1.403-2.063-2.063-0.928-1.025-1.896-1.998-2.906-2.906-0.806-0.865-1.633-1.721-2.5-2.5-0.801-0.859-1.608-1.695-2.469-2.469-0.809-0.868-1.63-1.718-2.5-2.5-0.669-0.718-1.351-1.403-2.063-2.063-0.928-1.025-1.896-1.998-2.906-2.906-0.806-0.865-1.633-1.721-2.5-2.5-0.801-0.859-1.608-1.695-2.469-2.469-0.809-0.868-1.63-1.718-2.5-2.5-0.669-0.718-1.351-1.403-2.063-2.063-0.928-1.025-1.896-1.998-2.906-2.906-0.806-0.865-1.633-1.721-2.5-2.5-0.801-0.859-1.608-1.695-2.469-2.469-8.12-8.719-19.295-13.09-33.563-13.09"/>
 <g id="g14" fill-rule="evenodd">
  <path id="path16" fill-opacity="0.067" d="m256 1c-140.83 0-255 114.17-255 255s114.17 255 255 255 255-114.17 255-255-114.17-255-255-255m8.827 44.931c120.9 0 218.9 98 218.9 218.9s-98 218.9-218.9 218.9-218.93-98-218.93-218.9 98.03-218.9 218.93-218.9"/>
  <g id="g18" fill-opacity="0.129">
   <path id="path20" d="m256 4.433c-138.94 0-251.57 112.63-251.57 251.57s112.63 251.57 251.57 251.57 251.57-112.63 251.57-251.57-112.63-251.57-251.57-251.57m5.885 38.556c120.9 0 218.9 98 218.9 218.9s-98 218.9-218.9 218.9-218.93-98-218.93-218.9 98.03-218.9 218.93-218.9"/>
   <path id="path22" d="m256 8.356c-136.77 0-247.64 110.87-247.64 247.64s110.87 247.64 247.64 247.64 247.64-110.87 247.64-247.64-110.87-247.64-247.64-247.64m2.942 31.691c120.9 0 218.9 98 218.9 218.9s-98 218.9-218.9 218.9-218.93-98-218.93-218.9 98.03-218.9 218.93-218.9"/>
  </g>
  <path id="path24" d="m253.04 7.859c-135.42 0-245.19 109.78-245.19 245.19 0 135.42 109.78 245.19 245.19 245.19 135.42 0 245.19-109.78 245.19-245.19 0-135.42-109.78-245.19-245.19-245.19zm0 26.297c120.9 0 218.9 98 218.9 218.9s-98 218.9-218.9 218.9-218.93-98-218.93-218.9 98.03-218.9 218.93-218.9z" stroke-opacity="0.31" stroke="#000" stroke-width="4.904" fill="#fff"/>
 </g>
 <text id="text26" font-size="129.23" line-height="125%" y="231.36" x="729.64" font-family="Gentium Book Basic" word-spacing="0" letter-spacing="0"><tspan id="tspan28" y="231.36" x="729.64"/>
 </text>
 <text id="text30" font-size="46.954" transform="scale(4.0128 .2492)" y="579.25" x="378.91" font-family="Arial" text-anchor="middle"/>
 <text id="text32" font-size="129.23" line-height="125%" y="151.36" x="1310.91" font-family="Gentium Book Basic" word-spacing="0" letter-spacing="0"><tspan id="tspan34" y="151.36" x="1310.91"/>
 </text>
 <text id="text36" font-size="46.954" transform="scale(4.0128 .2492)" y="258.22" x="523.76" font-family="Arial" text-anchor="middle"/>
 <text id="text38" font-size="129.23" line-height="125%" y="-29.901" x="239.33" font-family="Gentium Book Basic" word-spacing="0" letter-spacing="0"><tspan id="tspan40" y="-29.901" x="239.33"/>
 </text>
 <text id="text42" font-size="46.954" transform="scale(4.0128 .2492)" y="-469.14" x="256.72" font-family="Arial" text-anchor="middle"/>
 <text id="text44" font-size="129.23" line-height="125%" y="-246.37" x="1337.38" font-family="Gentium Book Basic" word-spacing="0" letter-spacing="0"><tspan id="tspan46" y="-246.37" x="1337.38"/>
 </text>
 <text id="text48" font-size="46.954" transform="scale(4.0128 .2492)" y="-1337.81" x="530.36" font-family="Arial" text-anchor="middle"/>
 <text id="text50" font-size="129.23" line-height="125%" y="-326.38" x="1918.65" font-family="Gentium Book Basic" word-spacing="0" letter-spacing="0"><tspan id="tspan52" y="-326.38" x="1918.65"/>
 </text>
 <text id="text54" font-size="46.954" transform="scale(4.0128 .2492)" y="-1658.85" x="675.21" font-family="Arial" text-anchor="middle"/>
 <text id="text56" font-size="129.23" line-height="125%" y="-798.78" x="1529.53" font-family="Gentium Book Basic" word-spacing="0" letter-spacing="0"><tspan id="tspan58" y="-798.78" x="1529.53"/>
 </text>
 <text id="text60" font-size="46.954" transform="scale(4.0128 .2492)" y="-3554.51" x="578.24" font-family="Arial" text-anchor="middle"/>
 <text id="text62" font-size="129.23" line-height="125%" y="-878.78" x="2110.79" font-family="Gentium Book Basic" word-spacing="0" letter-spacing="0"><tspan id="tspan64" y="-878.78" x="2110.79"/>
 </text>
 <text id="text66" font-size="46.954" transform="scale(4.0128 .2492)" y="-3875.54" x="723.09" font-family="Arial" text-anchor="middle"/>
 <text id="text68" font-size="208.33" line-height="125%" y="535.94" x="277.99" font-family="Gentium Book Basic" word-spacing="0" letter-spacing="0"><tspan id="tspan70" y="535.94" x="277.99"/>
 </text>
 <g id="g72" fill="#fff">
  <path id="path74" d="m321.21 359.59v39.3h23.279c7.808 0 13.58-1.605 17.316-4.814 3.784-3.257 5.676-8.215 5.676-14.873 0-6.706-1.892-11.64-5.676-14.801-3.736-3.209-9.508-4.814-17.316-4.814h-23.28m0-44.12v32.33h21.483c7.089 0 12.358-1.317 15.807-3.952 3.497-2.682 5.245-6.754 5.245-12.215 0-5.413-1.748-9.46-5.245-12.143-3.449-2.682-8.718-4.02-15.807-4.02h-21.48m-14.514-11.927h37.07c11.06 0 19.591 2.299 25.579 6.898 5.987 4.599 8.981 11.137 8.981 19.615 0 6.562-1.533 11.784-4.598 15.663-3.066 3.88-7.568 6.299-13.508 7.257 7.137 1.533 12.669 4.742 16.597 9.628 3.976 4.838 5.964 10.897 5.964 18.18 0 9.58-3.257 16.981-9.772 22.2-6.514 5.221-15.783 7.832-27.806 7.832h-38.512v-107.27"/>
  <text id="text76" font-size="141.83" line-height="125%" y="203.28" x="111.56" font-family="Clear Sans" word-spacing="0" letter-spacing="0"><tspan id="tspan78" y="203.28" x="111.56" font-family="Sans">O</tspan>
  </text>
 </g>
</svg>
