<?xml version="1.0" encoding="UTF-8" standalone="no"?>
<svg xmlns="http://www.w3.org/2000/svg" height="512" viewBox="0 0 512 512" width="512" version="1.1">
 <metadata id="metadata182"/>
 <path id="path16" d="m471.95 253.05c0 120.9-98.01 218.9-218.9 218.9-120.9 0-218.9-98.01-218.9-218.9 0-120.9 98.01-218.9 218.9-218.9 120.9 0 218.9 98.01 218.9 218.9" fill-rule="evenodd" fill="#BF9E73"/>
 <path id="path18" fill="#BF9E73" d="m187.63 44.13c-88.93 27.822-153.47 110.83-153.47 208.94 0 101.71 69.37 187.2 163.38 211.78 21.571-67.43 19.591-130.31-1.125-207.62-23.14-86.37-31.33-144.98-8.781-213.09"/>
 <g id="g20" fill-rule="evenodd">
  <path id="path22" fill-opacity="0.067" d="m256 1c-140.83 0-255 114.17-255 255s114.17 255 255 255 255-114.17 255-255-114.17-255-255-255m8.827 44.931c120.9 0 218.9 98 218.9 218.9s-98 218.9-218.9 218.9-218.93-98-218.93-218.9 98.03-218.9 218.93-218.9"/>
  <g id="g24" fill-opacity="0.129">
   <path id="path26" d="m256 4.433c-138.94 0-251.57 112.63-251.57 251.57s112.63 251.57 251.57 251.57 251.57-112.63 251.57-251.57-112.63-251.57-251.57-251.57m5.885 38.556c120.9 0 218.9 98 218.9 218.9s-98 218.9-218.9 218.9-218.93-98-218.93-218.9 98.03-218.9 218.93-218.9"/>
   <path id="path28" d="m256 8.356c-136.77 0-247.64 110.87-247.64 247.64s110.87 247.64 247.64 247.64 247.64-110.87 247.64-247.64-110.87-247.64-247.64-247.64m2.942 31.691c120.9 0 218.9 98 218.9 218.9s-98 218.9-218.9 218.9-218.93-98-218.93-218.9 98.03-218.9 218.93-218.9"/>
  </g>
  <path id="path30" d="m253.04 7.859c-135.42 0-245.19 109.78-245.19 245.19 0 135.42 109.78 245.19 245.19 245.19 135.42 0 245.19-109.78 245.19-245.19 0-135.42-109.78-245.19-245.19-245.19zm0 26.297c120.9 0 218.9 98 218.9 218.9s-98 218.9-218.9 218.9-218.93-98-218.93-218.9 98.03-218.9 218.93-218.9z" stroke-opacity="0.31" stroke="#000" stroke-width="4.904" fill="#fff"/>
 </g>
 <text id="text32" font-size="129.23" line-height="125%" y="231.36" x="729.64" font-family="Gentium Book Basic" word-spacing="0" letter-spacing="0"><tspan id="tspan34" y="231.36" x="729.64"/>
 </text>
 <text id="text36" font-size="46.954" transform="scale(4.0128 .2492)" y="579.25" x="378.91" font-family="Arial" text-anchor="middle"/>
 <text id="text38" font-size="129.23" line-height="125%" y="151.36" x="1310.91" font-family="Gentium Book Basic" word-spacing="0" letter-spacing="0"><tspan id="tspan40" y="151.36" x="1310.91"/>
 </text>
 <text id="text42" font-size="46.954" transform="scale(4.0128 .2492)" y="258.22" x="523.76" font-family="Arial" text-anchor="middle"/>
 <text id="text44" font-size="129.23" line-height="125%" y="-29.901" x="239.33" font-family="Gentium Book Basic" word-spacing="0" letter-spacing="0"><tspan id="tspan46" y="-29.901" x="239.33"/>
 </text>
 <text id="text48" font-size="46.954" transform="scale(4.0128 .2492)" y="-469.14" x="256.72" font-family="Arial" text-anchor="middle"/>
 <text id="text50" font-size="129.23" line-height="125%" y="-246.37" x="1337.38" font-family="Gentium Book Basic" word-spacing="0" letter-spacing="0"><tspan id="tspan52" y="-246.37" x="1337.38"/>
 </text>
 <text id="text54" font-size="46.954" transform="scale(4.0128 .2492)" y="-1337.8" x="530.36" font-family="Arial" text-anchor="middle"/>
 <text id="text56" font-size="129.23" line-height="125%" y="-326.38" x="1918.65" font-family="Gentium Book Basic" word-spacing="0" letter-spacing="0"><tspan id="tspan58" y="-326.38" x="1918.65"/>
 </text>
 <text id="text60" font-size="46.954" transform="scale(4.0128 .2492)" y="-1658.84" x="675.21" font-family="Arial" text-anchor="middle"/>
 <text id="text62" font-size="129.23" line-height="125%" y="-798.78" x="1529.53" font-family="Gentium Book Basic" word-spacing="0" letter-spacing="0"><tspan id="tspan64" y="-798.78" x="1529.53"/>
 </text>
 <text id="text66" font-size="46.954" transform="scale(4.0128 .2492)" y="-3554.49" x="578.24" font-family="Arial" text-anchor="middle"/>
 <text id="text68" font-size="129.23" line-height="125%" y="-878.78" x="2110.79" font-family="Gentium Book Basic" word-spacing="0" letter-spacing="0"><tspan id="tspan70" y="-878.78" x="2110.79"/>
 </text>
 <text id="text72" font-size="46.954" transform="scale(4.0128 .2492)" y="-3875.52" x="723.09" font-family="Arial" text-anchor="middle"/>
 <g id="g74" font-family="Gentium Book Basic" line-height="125%" word-spacing="0" letter-spacing="0">
  <text id="text76" y="535.94" x="277.99" font-size="208.33"><tspan id="tspan78" y="535.94" x="277.99"/>
  </text>
  <text id="text80" y="2.596" x="117.74" font-size="129.23"><tspan id="tspan82" y="2.596" x="117.74"/>
  </text>
 </g>
 <text id="text84" font-size="46.954" transform="scale(4.0128 .2492)" y="-338.74" x="226.42" font-family="Arial" text-anchor="middle"/>
 <text id="text86" font-size="129.23" line-height="125%" y="-77.4" x="699.01" font-family="Gentium Book Basic" word-spacing="0" letter-spacing="0"><tspan id="tspan88" y="-77.4" x="699.01"/>
 </text>
 <text id="text90" font-size="46.954" transform="scale(4.0128 .2492)" y="-659.77" x="371.27" font-family="Arial" text-anchor="middle"/>
 <text id="text92" font-size="129.23" line-height="125%" y="-258.66" x="-372.57" font-family="Gentium Book Basic" word-spacing="0" letter-spacing="0"><tspan id="tspan94" y="-258.66" x="-372.57"/>
 </text>
 <text id="text96" font-size="46.954" transform="scale(4.0128 .2492)" y="-1387.13" x="104.23" font-family="Arial" text-anchor="middle"/>
 <text id="text98" font-size="129.23" line-height="125%" y="-475.13" x="725.48" font-family="Gentium Book Basic" word-spacing="0" letter-spacing="0"><tspan id="tspan100" y="-475.13" x="725.48"/>
 </text>
 <text id="text102" font-size="46.954" transform="scale(4.0128 .2492)" y="-2255.79" x="377.87" font-family="Arial" text-anchor="middle"/>
 <text id="text104" font-size="129.23" line-height="125%" y="-555.14" x="1306.75" font-family="Gentium Book Basic" word-spacing="0" letter-spacing="0"><tspan id="tspan106" y="-555.14" x="1306.75"/>
 </text>
 <text id="text108" font-size="46.954" transform="scale(4.0128 .2492)" y="-2576.83" x="522.72" font-family="Arial" text-anchor="middle"/>
 <text id="text110" font-size="129.23" line-height="125%" y="-1027.54" x="917.63" font-family="Gentium Book Basic" word-spacing="0" letter-spacing="0"><tspan id="tspan112" y="-1027.54" x="917.63"/>
 </text>
 <text id="text114" font-size="46.954" transform="scale(4.0128 .2492)" y="-4472.48" x="425.75" font-family="Arial" text-anchor="middle"/>
 <text id="text116" font-size="129.23" line-height="125%" y="-1107.54" x="1498.89" font-family="Gentium Book Basic" word-spacing="0" letter-spacing="0"><tspan id="tspan118" y="-1107.54" x="1498.89"/>
 </text>
 <text id="text120" font-size="46.954" transform="scale(4.0128 .2492)" y="-4793.51" x="570.6" font-family="Arial" text-anchor="middle"/>
 <g id="g122" font-family="Gentium Book Basic" line-height="125%" word-spacing="0" letter-spacing="0">
  <text id="text124" y="307.18" x="-333.91" font-size="208.33"><tspan id="tspan126" y="307.18" x="-333.91"/>
  </text>
  <text id="text128" y="31.767" x="20.22" font-size="129.23"><tspan id="tspan130" y="31.767" x="20.22"/>
  </text>
 </g>
 <text id="text132" font-size="46.954" transform="scale(4.0128 .2492)" y="-221.68" x="202.12" font-family="Arial" text-anchor="middle"/>
 <text id="text134" font-size="129.23" line-height="125%" y="-48.23" x="601.49" font-family="Gentium Book Basic" word-spacing="0" letter-spacing="0"><tspan id="tspan136" y="-48.23" x="601.49"/>
 </text>
 <text id="text138" font-size="46.954" transform="scale(4.0128 .2492)" y="-542.71" x="346.97" font-family="Arial" text-anchor="middle"/>
 <text id="text140" font-size="129.23" line-height="125%" y="-229.49" x="-470.09" font-family="Gentium Book Basic" word-spacing="0" letter-spacing="0"><tspan id="tspan142" y="-229.49" x="-470.09"/>
 </text>
 <text id="text144" font-size="46.954" transform="scale(4.0128 .2492)" y="-1270.07" x="79.929" font-family="Arial" text-anchor="middle"/>
 <text id="text146" font-size="129.23" line-height="125%" y="-445.96" x="627.96" font-family="Gentium Book Basic" word-spacing="0" letter-spacing="0"><tspan id="tspan148" y="-445.96" x="627.96"/>
 </text>
 <text id="text150" font-size="46.954" transform="scale(4.0128 .2492)" y="-2138.73" x="353.57" font-family="Arial" text-anchor="middle"/>
 <text id="text152" font-size="129.23" line-height="125%" y="-525.97" x="1209.23" font-family="Gentium Book Basic" word-spacing="0" letter-spacing="0"><tspan id="tspan154" y="-525.97" x="1209.23"/>
 </text>
 <text id="text156" font-size="46.954" transform="scale(4.0128 .2492)" y="-2459.77" x="498.42" font-family="Arial" text-anchor="middle"/>
 <text id="text158" font-size="129.23" line-height="125%" y="-998.37" x="820.11" font-family="Gentium Book Basic" word-spacing="0" letter-spacing="0"><tspan id="tspan160" y="-998.37" x="820.11"/>
 </text>
 <text id="text162" font-size="46.954" transform="scale(4.0128 .2492)" y="-4355.42" x="401.45" font-family="Arial" text-anchor="middle"/>
 <text id="text164" font-size="129.23" line-height="125%" y="-1078.37" x="1401.37" font-family="Gentium Book Basic" word-spacing="0" letter-spacing="0"><tspan id="tspan166" y="-1078.37" x="1401.37"/>
 </text>
 <text id="text168" font-size="46.954" transform="scale(4.0128 .2492)" y="-4676.45" x="546.3" font-family="Arial" text-anchor="middle"/>
 <text id="text170" font-size="208.33" line-height="125%" y="336.35" x="-431.43" font-family="Gentium Book Basic" word-spacing="0" letter-spacing="0"><tspan id="tspan172" y="336.35" x="-431.43"/>
 </text>
 <g id="g174" color="#000000">
  <path id="path176" opacity="0.25" d="m255.44 125c-12.09 4.746-10.279 21.762-11.344 32.719-0.36 5.577 1.05 15.14 5.375 19.469l7.219 7.219c-21.278 3.146-41.626 12.315-56.813 27.844-4.739 4.449-8.929 9.51-12.5 15l-16.12-16.12c-7.242-7.242-17.295-11.769-26.438-16.12-2.421-0.986-4.978-1.821-7.625-1.813-13.277 1.291-9.548 11.05-2.563 18.03l1.188 1.156 40.41 40.41c-4.701 18.544-2.986 38.495 7.406 55.22 3.02 4.975 6.646 9.521 10.719 13.594l136.22 136.22c73.49-27.834 128.07-94.09 139.25-174.25l-88.06-88.09c-1.619-1.619-4.045-2.545-6.438-2.281-11.913 2.52-22.09 10.137-31.563 17.719l-83.47-83.5c-1.233-1.233-2.802-2.097-4.844-2.406m-65.781 205.91c-12.838 3.221-22.18 14.11-31.12 23.281-6.961 4.463-6.463 12.724-2.531 16.656l0.531 0.531 100.5 100.53c22.618-0.404 44.4-4.264 64.844-11.03l-128.41-128.41c-0.98-0.98-2.31-1.594-3.781-1.563h-0.031"/>
  <path id="path178" fill="#fff" d="m255.42 125c-12.09 4.746-10.27 21.757-11.335 32.714-0.56 8.678 3.182 27.05 15.491 20.229 9.101-8.22 6.348-22.368 6.078-33.34-1.286-6.787-1.513-18.275-10.235-19.598m20.439 58.18c-27.862-0.539-56.26 8.902-75.974 29.06-25.362 23.813-35.25 65.18-16.253 95.75 14.05 23.11 40.816 36.689 67.26 38.87 23.386-0.118 46.17-11.03 63.25-26.598 16.459-14.751 22.607-38.713 16.07-59.7-6.336-26.411-32.502-46.12-59.729-44.07-23.54 0.712-48.14 15.09-53.895 39.13-4.933 18.01 7.616 38.2 24.536 44.612 11.791 5.919 29.03-10.642 11.606-16.427-13.245-3.861-21.714-20.43-10.586-31.343 12.206-15.437 37.19-21.968 52.919-7.968 13.824 12.236 22.655 35.464 10.537 51.814-11.142 14.728-27.08 28.951-46.786 28.07-14.417 0.486-31.01 0.975-41.41-10.949-10.935-9.844-22.458-22.01-21.01-37.977-2.206-36.33 29.14-68.37 64.36-72.13 13.652-2.479 26.887 2.065 40.13 4.41 22.04 3.805 13.774-21.307-2.377-21.786-7.342-2.147-15.04-2.744-22.661-2.77m-138.66 10.01c-19.282 1.875-2.725 21.577 7.642 24.77 8.573 5.693 30.03 15.873 31.12-1.064-7.04-10.809-19.786-16.485-31.14-21.895-2.421-0.986-4.977-1.82-7.624-1.812m238.14 0c-13.206 2.794-24.303 11.851-34.641 20.18-13.08 6.521-2.16 25.03 9.426 15.343 12.11-7.155 26.713-13.45 33.25-26.693 1.7-5.03-3.212-9.367-8.04-8.834m-185.65 137.7c-12.838 3.221-22.2 14.11-31.15 23.286-12.03 7.713-1.798 26.824 9.972 15.198 10.586-8.729 22.258-18.443 26.541-31.917 0.67-3.255-1.973-6.64-5.359-6.567m121.55 9.724c-12.911 6.469 2.145 23.06 6.784 31.32 4.02 11.183 26.03 25.17 24.501 4.308-3.824-12.929-13.602-23.483-23.481-32.3-2.238-1.699-4.855-3.481-7.805-3.327"/>
 </g>
</svg>
