<?xml version="1.0" encoding="UTF-8" standalone="no"?>
<svg xmlns="http://www.w3.org/2000/svg" xmlns:sodipodi="http://sodipodi.sourceforge.net/DTD/sodipodi-0.dtd" xmlns:inkscape="http://www.inkscape.org/namespaces/inkscape" height="512" viewBox="0 0 512 512" width="512" version="1.1">
 <defs id="defs39">
  <clipPath id="clipPath-718178204">
   <g transform="translate(0,-1004.3622)" id="g17">
    <path inkscape:connector-curvature="0" d="m -24,13 c 0,1.105 -0.672,2 -1.5,2 -0.828,0 -1.5,-0.895 -1.5,-2 0,-1.105 0.672,-2 1.5,-2 0.828,0 1.5,0.895 1.5,2 z" transform="matrix(15.333333,0,0,11.5,414.99999,878.8622)" id="path19" fill="#BF9E73"/>
   </g>
  </clipPath>
 </defs>
 <metadata id="metadata84"/>
 <path sodipodi:type="arc" id="path3054" sodipodi:cx="445.83051" sodipodi:cy="263.59323" sodipodi:rx="187.66101" sodipodi:ry="224.54237" d="m 633.49152,263.59323 a 187.66101,224.54237 0 1 1 -375.32203,0 187.66101,224.54237 0 1 1 375.32203,0 z" transform="matrix(1.1598663,0,0,0.96735575,-264.48958,-2.5603699)" opacity="0.995" fill="#BF9E73" stroke-width="0"/>
 <path d="m 388.58838,274.66996 73.73053,33.22621 c -3.83867,25.71229 -17.14719,45.74267 -28.79604,66.76885 -16.5516,22.06577 -35.38682,38.8031 -54.42769,55.06057 -28.19891,21.8326 -53.15353,27.13355 -81.64153,35.44128 L 55.693449,320.23733 z" id="path3799" inkscape:connector-curvature="0" sodipodi:nodetypes="ccccccc" opacity="0.2" stroke="#000000" stroke-width="0"/>
 <path d="m 431.07148,168.37007 26.038,8.53044 c 9.50699,31.02099 12.45066,63.13586 11.8527,95.84101 L 238.54667,170.67116 z" id="path3027" inkscape:connector-curvature="0" sodipodi:nodetypes="ccccc" opacity="0.191" stroke="#000000" stroke-width="0"/>
 <g id="g22" fill-rule="evenodd">
  <path inkscape:connector-curvature="0" id="path24" d="M 256,1 C 115.17,1 1,115.17 1,256 1,396.83 115.17,511 256,511 396.83,511 511,396.83 511,256 511,115.17 396.83,1 256,1 m 8.827,44.931 c 120.9,0 218.9,98 218.9,218.9 0,120.9 -98,218.9 -218.9,218.9 -120.9,0 -218.93,-98 -218.93,-218.9 0,-120.9 98.03,-218.9 218.93,-218.9" fill-opacity="0.067"/>
  <g id="g26" fill-opacity="0.129">
   <path inkscape:connector-curvature="0" id="path28" d="m 256,4.433 c -138.94,0 -251.57,112.63 -251.57,251.57 0,138.94 112.63,251.57 251.57,251.57 138.94,0 251.57,-112.63 251.57,-251.57 C 507.57,117.063 394.94,4.433 256,4.433 m 5.885,38.556 c 120.9,0 218.9,98 218.9,218.9 0,120.9 -98,218.9 -218.9,218.9 -120.9,0 -218.93,-98 -218.93,-218.9 0,-120.9 98.03,-218.9 218.93,-218.9"/>
   <path inkscape:connector-curvature="0" id="path30" d="m 256,8.356 c -136.77,0 -247.64,110.87 -247.64,247.64 0,136.77 110.87,247.64 247.64,247.64 136.77,0 247.64,-110.87 247.64,-247.64 C 503.64,119.226 392.77,8.356 256,8.356 m 2.942,31.691 c 120.9,0 218.9,98 218.9,218.9 0,120.9 -98,218.9 -218.9,218.9 -120.9,0 -218.93,-98 -218.93,-218.9 0,-120.9 98.03,-218.9 218.93,-218.9"/>
  </g>
  <path inkscape:connector-curvature="0" id="path32" d="m 253.04,7.859 c -135.42,0 -245.19,109.78 -245.19,245.19 0,135.42 109.78,245.19 245.19,245.19 135.42,0 245.19,-109.78 245.19,-245.19 0,-135.42 -109.78,-245.19 -245.19,-245.19 z m 0,26.297 c 120.9,0 218.9,98 218.9,218.9 0,120.9 -98,218.9 -218.9,218.9 -120.9,0 -218.93,-98 -218.93,-218.9 0,-120.9 98.03,-218.9 218.93,-218.9 z" stroke-opacity="0.31" fill="#ffffff" stroke="#000000" stroke-width="4.904"/>
 </g>
 <g transform="matrix(11.646729,0,0,15.199036,-37.681438,-91.604906)" id="g47" fill="#ffffff">
  <g id="g49" clip-path="url(#clipPath-718178204)">
   <g id="g51">
    <path inkscape:connector-curvature="0" d="m 36.18,16 c -1.582,-0.023 -3.086,0.391 -4.379,1.133 -1.012,-0.57 -2.164,-0.941 -3.398,-1.059 -1.699,-0.156 -3.328,0.191 -4.738,0.922 -0.016,0.008 -0.031,0.016 -0.043,0.023 -0.035,0.027 -0.059,0.07 -0.059,0.117 0,0.082 0.066,0.141 0.145,0.141 0.008,0 0.02,0 0.027,0 0.004,0 0.008,-0.004 0.008,-0.004 0.762,-0.137 1.551,-0.176 2.359,-0.102 2.258,0.211 4.23,0.906 5.613,2.461 0.07,0.074 0.133,0.066 0.203,-0.004 1.742,-1.996 4.406,-2.789 7.27,-2.52 0.16,0.016 0.32,0.031 0.477,0.059 0.055,0.008 0.141,0.02 0.191,0.023 0.094,0.012 0.145,-0.063 0.145,-0.141 0,-0.063 -0.023,-0.105 -0.078,-0.129 -0.055,-0.027 -0.109,-0.063 -0.164,-0.082 -0.887,-0.43 -1.863,-0.699 -2.898,-0.809 -0.227,-0.02 -0.457,-0.039 -0.684,-0.043 m 0.004,0.004" id="path53"/>
    <path inkscape:connector-curvature="0" d="m 30.938,22.84 c -3.191,0 -6.141,1.012 -8.555,2.711 -1.844,-0.82 -3.883,-1.277 -6.03,-1.277 -3.055,0 -5.887,0.922 -8.242,2.5 -0.004,0.004 -0.016,0.012 -0.02,0.016 -0.055,0.039 -0.082,0.098 -0.082,0.168 0,0.121 0.098,0.219 0.215,0.219 0.016,0 0.031,-0.004 0.043,-0.004 0.012,0 0.02,-0.004 0.023,-0.008 1.352,-0.406 2.785,-0.621 4.27,-0.621 3.934,0 7.449,0.926 10.09,3.391 0.008,0.004 0.016,0.012 0.023,0.016 0.039,0.035 0.086,0.047 0.145,0.047 0.066,0 0.125,-0.02 0.164,-0.07 0,0 0.086,-0.113 0.129,-0.18 2.691,-3.641 7.121,-5.438 12.04,-5.438 0.352,0 0.703,0.008 1.051,0.035 0.098,0.004 0.313,0.023 0.316,0.023 0.117,0 0.215,-0.098 0.215,-0.219 0,-0.086 -0.051,-0.156 -0.125,-0.188 -0.008,-0.004 -0.016,-0.008 -0.023,-0.012 -1.742,-0.711 -3.641,-1.113 -5.633,-1.113 m -0.008,0.004" id="path55"/>
   </g>
  </g>
 </g>
 <path d="m 388.11774,275.75442 71.33389,59.82843 -46.02187,72.10092 -99.71404,60.59546 -30.68124,5.36921 L 56.760301,318.70816 z" id="path3029" inkscape:connector-curvature="0" fill="none" stroke="#000000" stroke-width="0"/>
</svg>
