<?xml version="1.0" encoding="UTF-8" standalone="no"?>
<svg xmlns="http://www.w3.org/2000/svg" height="512" viewBox="0 0 512 512" width="512" version="1.1">
 <metadata id="metadata72"/>
 <g id="g4" fill-rule="evenodd">
  <path id="path6" fill="#BF9E73" d="m471.95 253.05c0 120.9-98.01 218.9-218.9 218.9-120.9 0-218.9-98.01-218.9-218.9 0-120.9 98.01-218.9 218.9-218.9 120.9 0 218.9 98.01 218.9 218.9"/>
  <path id="path8" fill-opacity="0.235" d="m254.13 112.69-6.688 16.13c-12.179 29.384-19.865 31.31-48.28 12.188l-15.688-10.563-11.438 7.875c-18.51 12.827-18.841 13.783-11.844 34 11.145 32.2 9.379 35.558-22.12 41.844-9.852 1.966-19.572 5.707-21.625 8.344-2.052 2.637-3.729 11.568-3.719 19.875 0.007 9.305 0.013 12.898 3.156 15.563 0.319 0.384 0.674 0.749 1.094 1.094 0.299 0.346 0.617 0.686 1 1 0.299 0.346 0.617 0.686 1 1 0.298 0.345 0.618 0.656 1 0.969 0.302 0.352 0.611 0.681 1 1 0.296 0.341 0.622 0.69 1 1 0.264 0.304 0.546 0.627 0.875 0.906 0.319 0.384 0.674 0.749 1.094 1.094 0.299 0.346 0.617 0.686 1 1 0.299 0.346 0.617 0.686 1 1 0.26 0.301 0.551 0.568 0.875 0.844 0.326 0.398 0.691 0.77 1.125 1.125 0.264 0.304 0.546 0.627 0.875 0.906 0.319 0.384 0.674 0.749 1.094 1.094 0.299 0.346 0.617 0.686 1 1 0.299 0.346 0.617 0.686 1 1 0.26 0.301 0.551 0.568 0.875 0.844 0.326 0.398 0.691 0.77 1.125 1.125 0.264 0.304 0.546 0.627 0.875 0.906 0.319 0.384 0.674 0.749 1.094 1.094 0.299 0.346 0.617 0.686 1 1 0.299 0.346 0.617 0.686 1 1 0.298 0.345 0.618 0.656 1 0.969 0.302 0.352 0.611 0.681 1 1 0.296 0.341 0.622 0.69 1 1 0.264 0.304 0.546 0.627 0.875 0.906 0.319 0.384 0.674 0.749 1.094 1.094 0.299 0.346 0.617 0.686 1 1 0.298 0.345 0.618 0.656 1 0.969 0.302 0.352 0.611 0.681 1 1 0.296 0.341 0.622 0.69 1 1 0.264 0.304 0.546 0.627 0.875 0.906 0.319 0.384 0.674 0.749 1.094 1.094 0.299 0.346 0.617 0.686 1 1 0.299 0.346 0.617 0.686 1 1 0.26 0.301 0.551 0.568 0.875 0.844 0.157 0.191 0.32 0.383 0.5 0.563-2.184 4.815-5.722 10.982-9.719 16.688l-12.03 17.16 10.813 14.688c4.211 5.737 8.294 10.673 10.719 13.06 0.023 0.025 0.04 0.069 0.063 0.094 0.109 0.106 0.242 0.248 0.344 0.344 0.39 0.404 0.776 0.769 1.094 1.063 0.405 0.417 0.77 0.8 1.094 1.094 0.276 0.282 0.575 0.59 0.813 0.813 0.35 0.363 0.708 0.726 1 1 0.35 0.363 0.708 0.726 1 1 0.436 0.452 0.812 0.844 1.156 1.156 0.14 0.143 0.276 0.278 0.406 0.406 0.081 0.087 0.14 0.167 0.219 0.25 0.092 0.089 0.194 0.17 0.281 0.25 0.405 0.417 0.77 0.8 1.094 1.094 0.276 0.282 0.575 0.59 0.813 0.813 0.35 0.363 0.708 0.726 1 1 0.35 0.363 0.708 0.726 1 1 0.427 0.443 0.816 0.816 1.156 1.125 0.146 0.149 0.271 0.304 0.406 0.438 0.081 0.087 0.14 0.167 0.219 0.25 0.092 0.089 0.194 0.17 0.281 0.25 0.405 0.417 0.77 0.8 1.094 1.094 0.363 0.371 0.704 0.732 1 1 0.276 0.282 0.575 0.59 0.813 0.813 0.35 0.363 0.708 0.726 1 1 0.426 0.441 0.786 0.848 1.125 1.156 0.146 0.149 0.302 0.273 0.438 0.406 0.081 0.087 0.14 0.167 0.219 0.25 0.092 0.089 0.194 0.17 0.281 0.25 0.405 0.417 0.77 0.8 1.094 1.094 0.363 0.371 0.704 0.732 1 1 0.276 0.282 0.575 0.59 0.813 0.813 0.35 0.363 0.708 0.726 1 1 0.35 0.363 0.708 0.726 1 1 0.436 0.452 0.812 0.844 1.156 1.156 0.14 0.143 0.276 0.278 0.406 0.406 0.081 0.087 0.14 0.167 0.219 0.25 0.092 0.089 0.194 0.17 0.281 0.25 0.405 0.417 0.77 0.8 1.094 1.094 0.276 0.282 0.575 0.59 0.813 0.813 0.35 0.363 0.708 0.726 1 1 0.35 0.363 0.708 0.726 1 1 0.426 0.441 0.786 0.848 1.125 1.156 0.146 0.149 0.302 0.273 0.438 0.406 0.081 0.087 0.14 0.167 0.219 0.25 0.092 0.089 0.194 0.17 0.281 0.25 0.405 0.417 0.77 0.8 1.094 1.094 0.276 0.282 0.575 0.59 0.813 0.813 0.35 0.363 0.708 0.726 1 1 0.35 0.363 0.708 0.726 1 1 0.427 0.443 0.816 0.816 1.156 1.125 0.146 0.149 0.271 0.304 0.406 0.438 0.081 0.087 0.14 0.167 0.219 0.25 0.092 0.089 0.194 0.17 0.281 0.25 0.405 0.417 0.77 0.8 1.094 1.094 0.363 0.371 0.704 0.732 1 1 0.276 0.282 0.575 0.59 0.813 0.813 0.35 0.363 0.708 0.726 1 1 0.35 0.363 0.708 0.726 1 1 0.199 0.206 0.382 0.384 0.563 0.563 0.023 0.025 0.04 0.069 0.063 0.094 0.109 0.106 0.242 0.248 0.344 0.344 0.39 0.404 0.776 0.769 1.094 1.063 0.405 0.417 0.77 0.8 1.094 1.094 0.276 0.282 0.575 0.59 0.813 0.813 0.35 0.363 0.708 0.726 1 1 0.35 0.363 0.708 0.726 1 1 0.436 0.452 0.812 0.844 1.156 1.156 0.14 0.143 0.276 0.278 0.406 0.406 0.081 0.087 0.14 0.167 0.219 0.25 0.092 0.089 0.194 0.17 0.281 0.25 0.405 0.417 0.77 0.8 1.094 1.094 0.276 0.282 0.575 0.59 0.813 0.813 0.35 0.363 0.708 0.726 1 1 0.35 0.363 0.708 0.726 1 1 0.426 0.441 0.786 0.848 1.125 1.156 0.146 0.149 0.302 0.273 0.438 0.406 0.081 0.087 0.14 0.167 0.219 0.25 0.092 0.089 0.194 0.17 0.281 0.25 0.405 0.417 0.77 0.8 1.094 1.094 0.363 0.371 0.704 0.732 1 1 0.276 0.282 0.575 0.59 0.813 0.813 0.35 0.363 0.708 0.726 1 1 0.427 0.443 0.816 0.816 1.156 1.125 0.146 0.149 0.271 0.304 0.406 0.438 0.081 0.087 0.14 0.167 0.219 0.25 0.092 0.089 0.194 0.17 0.281 0.25 0.405 0.417 0.77 0.8 1.094 1.094 0.363 0.371 0.704 0.732 1 1 0.276 0.282 0.575 0.59 0.813 0.813 0.35 0.363 0.708 0.726 1 1 0.35 0.363 0.708 0.726 1 1 0.436 0.452 0.812 0.844 1.156 1.156 0.14 0.143 0.276 0.278 0.406 0.406 0.081 0.087 0.14 0.167 0.219 0.25 0.092 0.089 0.194 0.17 0.281 0.25 0.405 0.417 0.77 0.8 1.094 1.094 0.276 0.282 0.575 0.59 0.813 0.813 0.35 0.363 0.708 0.726 1 1 0.35 0.363 0.708 0.726 1 1 0.427 0.443 0.816 0.816 1.156 1.125 0.146 0.149 0.271 0.304 0.406 0.438 0.081 0.087 0.14 0.167 0.219 0.25 0.092 0.089 0.194 0.17 0.281 0.25 0.405 0.417 0.77 0.8 1.094 1.094 0.276 0.282 0.575 0.59 0.813 0.813 0.35 0.363 0.708 0.726 1 1 0.35 0.363 0.708 0.726 1 1 0.426 0.441 0.786 0.848 1.125 1.156 0.146 0.149 0.302 0.273 0.438 0.406 0.081 0.087 0.14 0.167 0.219 0.25 0.092 0.089 0.194 0.17 0.281 0.25 0.405 0.417 0.77 0.8 1.094 1.094 0.363 0.371 0.704 0.732 1 1 0.276 0.282 0.575 0.59 0.813 0.813 0.35 0.363 0.708 0.726 1 1 0.35 0.363 0.708 0.726 1 1 0.199 0.206 0.382 0.384 0.563 0.563 0.023 0.025 0.04 0.069 0.063 0.094 0.109 0.106 0.242 0.248 0.344 0.344 0.39 0.404 0.776 0.769 1.094 1.063 0.405 0.417 0.77 0.8 1.094 1.094 0.276 0.282 0.575 0.59 0.813 0.813 0.35 0.363 0.708 0.726 1 1 0.35 0.363 0.708 0.726 1 1 0.436 0.452 0.812 0.844 1.156 1.156 0.14 0.143 0.276 0.278 0.406 0.406 0.081 0.087 0.14 0.167 0.219 0.25 0.092 0.089 0.194 0.17 0.281 0.25 0.405 0.417 0.77 0.8 1.094 1.094 0.276 0.282 0.575 0.59 0.813 0.813 0.35 0.363 0.708 0.726 1 1 0.35 0.363 0.708 0.726 1 1 0.427 0.443 0.816 0.816 1.156 1.125 0.146 0.149 0.271 0.304 0.406 0.438 0.081 0.087 0.14 0.167 0.219 0.25 0.092 0.089 0.194 0.17 0.281 0.25 0.405 0.417 0.77 0.8 1.094 1.094 0.363 0.371 0.704 0.732 1 1 0.276 0.282 0.575 0.59 0.813 0.813 0.35 0.363 0.708 0.726 1 1 0.426 0.441 0.786 0.848 1.125 1.156 0.146 0.149 0.302 0.273 0.438 0.406 0.081 0.087 0.14 0.167 0.219 0.25 0.092 0.089 0.194 0.17 0.281 0.25 0.405 0.417 0.77 0.8 1.094 1.094 0.363 0.371 0.704 0.732 1 1 0.276 0.282 0.575 0.59 0.813 0.813 0.35 0.363 0.708 0.726 1 1 0.35 0.363 0.708 0.726 1 1 0.199 0.206 0.382 0.384 0.563 0.563 0.023 0.025 0.04 0.069 0.063 0.094 0.109 0.106 0.242 0.248 0.344 0.344 0.39 0.404 0.776 0.769 1.094 1.063 0.405 0.417 0.77 0.8 1.094 1.094 0.191 0.195 0.377 0.379 0.563 0.563 109.18-7.154 196.52-94.34 203.88-203.47-0.31-0.328-0.609-0.659-0.906-0.938-0.129-0.134-0.28-0.249-0.406-0.375-0.038-0.041-0.056-0.085-0.094-0.125-0.111-0.11-0.203-0.208-0.313-0.313-0.183-0.192-0.385-0.354-0.563-0.531-0.047-0.051-0.078-0.106-0.125-0.156-0.106-0.105-0.209-0.182-0.313-0.281-0.183-0.192-0.385-0.385-0.563-0.563-0.047-0.051-0.078-0.106-0.125-0.156-0.106-0.105-0.209-0.182-0.313-0.281-0.183-0.192-0.385-0.385-0.563-0.563-0.047-0.051-0.078-0.106-0.125-0.156-0.106-0.105-0.209-0.182-0.313-0.281-0.183-0.192-0.385-0.385-0.563-0.563-0.048-0.052-0.078-0.105-0.125-0.156-0.073-0.072-0.147-0.118-0.219-0.188-0.397-0.42-0.785-0.805-1.156-1.156-0.569-0.594-1.076-1.171-1.594-1.625-0.1-0.099-0.214-0.155-0.313-0.25-0.191-0.201-0.378-0.409-0.563-0.594-0.047-0.051-0.078-0.106-0.125-0.156-0.106-0.105-0.209-0.182-0.313-0.281-0.183-0.192-0.385-0.385-0.563-0.563-0.047-0.051-0.078-0.106-0.125-0.156-0.106-0.105-0.209-0.182-0.313-0.281-0.183-0.192-0.385-0.385-0.563-0.563-0.048-0.052-0.078-0.105-0.125-0.156-0.073-0.072-0.147-0.118-0.219-0.188-0.397-0.42-0.785-0.804-1.156-1.156-0.529-0.552-1.016-1.069-1.5-1.5-0.333-0.361-0.655-0.655-0.969-0.969-0.047-0.051-0.078-0.106-0.125-0.156-0.106-0.105-0.209-0.182-0.313-0.281-0.183-0.192-0.385-0.385-0.563-0.563-0.047-0.051-0.078-0.106-0.125-0.156-0.106-0.105-0.209-0.182-0.313-0.281-0.183-0.192-0.385-0.385-0.563-0.563-0.048-0.052-0.078-0.105-0.125-0.156-0.073-0.072-0.147-0.118-0.219-0.188-0.397-0.42-0.785-0.804-1.156-1.156-0.382-0.399-0.736-0.79-1.094-1.125-0.129-0.134-0.28-0.249-0.406-0.375-0.038-0.041-0.056-0.085-0.094-0.125-0.111-0.11-0.203-0.208-0.313-0.313-0.183-0.192-0.385-0.354-0.563-0.531-0.047-0.051-0.078-0.106-0.125-0.156-0.106-0.105-0.209-0.182-0.313-0.281-0.183-0.192-0.385-0.385-0.563-0.563-0.047-0.051-0.078-0.106-0.125-0.156-0.106-0.105-0.209-0.182-0.313-0.281-0.183-0.192-0.385-0.385-0.563-0.563-0.048-0.052-0.078-0.105-0.125-0.156-0.073-0.072-0.147-0.118-0.219-0.188-0.397-0.42-0.785-0.804-1.156-1.156-0.342-0.357-0.677-0.694-1-1-0.517-0.54-0.994-1.045-1.469-1.469-0.334-0.362-0.685-0.685-1-1-0.047-0.051-0.078-0.106-0.125-0.156-0.106-0.105-0.209-0.182-0.313-0.281-0.183-0.192-0.385-0.385-0.563-0.563-0.047-0.051-0.078-0.106-0.125-0.156-0.106-0.105-0.209-0.182-0.313-0.281-0.183-0.192-0.385-0.385-0.563-0.563-0.048-0.052-0.078-0.105-0.125-0.156-0.073-0.072-0.147-0.118-0.219-0.188-0.397-0.42-0.785-0.804-1.156-1.156-0.529-0.552-1.016-1.069-1.5-1.5-0.333-0.361-0.655-0.655-0.969-0.969-0.047-0.051-0.078-0.106-0.125-0.156-0.106-0.105-0.209-0.182-0.313-0.281-0.183-0.192-0.385-0.385-0.563-0.563-0.047-0.051-0.078-0.106-0.125-0.156-0.106-0.105-0.209-0.182-0.313-0.281-0.183-0.192-0.385-0.385-0.563-0.563-0.048-0.052-0.078-0.105-0.125-0.156-0.073-0.072-0.147-0.118-0.219-0.188-0.397-0.42-0.785-0.804-1.156-1.156-0.529-0.552-1.016-1.069-1.5-1.5-0.333-0.361-0.655-0.655-0.969-0.969-0.047-0.051-0.078-0.106-0.125-0.156-0.106-0.105-0.209-0.182-0.313-0.281-0.183-0.192-0.385-0.385-0.563-0.563-0.047-0.051-0.078-0.106-0.125-0.156-0.106-0.105-0.209-0.182-0.313-0.281-0.183-0.192-0.385-0.385-0.563-0.563-0.048-0.052-0.078-0.105-0.125-0.156-0.073-0.072-0.147-0.118-0.219-0.188-0.397-0.42-0.785-0.804-1.156-1.156-0.382-0.399-0.736-0.79-1.094-1.125-0.129-0.134-0.28-0.249-0.406-0.375-0.038-0.041-0.056-0.085-0.094-0.125-0.111-0.11-0.203-0.208-0.313-0.313-0.183-0.192-0.385-0.354-0.563-0.531-0.047-0.051-0.078-0.106-0.125-0.156-0.106-0.105-0.209-0.182-0.313-0.281-0.183-0.192-0.385-0.385-0.563-0.563-0.047-0.051-0.078-0.106-0.125-0.156-0.106-0.105-0.209-0.182-0.313-0.281-0.183-0.192-0.385-0.385-0.563-0.563-0.047-0.051-0.078-0.106-0.125-0.156-0.106-0.105-0.209-0.182-0.313-0.281-0.183-0.192-0.385-0.385-0.563-0.563-0.048-0.052-0.078-0.105-0.125-0.156-0.073-0.072-0.147-0.118-0.219-0.188-0.397-0.42-0.785-0.804-1.156-1.156-0.569-0.594-1.076-1.171-1.594-1.625-0.1-0.099-0.214-0.155-0.313-0.25-0.191-0.201-0.378-0.409-0.563-0.594-0.047-0.051-0.078-0.106-0.125-0.156-0.106-0.105-0.209-0.182-0.313-0.281-0.183-0.192-0.385-0.385-0.563-0.563-0.047-0.051-0.078-0.106-0.125-0.156-0.106-0.105-0.209-0.182-0.313-0.281-0.183-0.192-0.385-0.385-0.563-0.563-0.048-0.052-0.078-0.105-0.125-0.156-0.073-0.072-0.147-0.118-0.219-0.188-0.397-0.42-0.785-0.804-1.156-1.156-0.529-0.552-1.016-1.069-1.5-1.5-0.333-0.361-0.655-0.655-0.969-0.969-0.047-0.051-0.078-0.106-0.125-0.156-0.106-0.105-0.209-0.182-0.313-0.281-0.183-0.192-0.385-0.385-0.563-0.563-0.047-0.051-0.078-0.106-0.125-0.156-0.106-0.105-0.209-0.182-0.313-0.281-0.183-0.192-0.385-0.385-0.563-0.563-0.048-0.052-0.078-0.105-0.125-0.156-0.073-0.072-0.147-0.118-0.219-0.188-0.397-0.42-0.785-0.804-1.156-1.156-0.529-0.552-1.016-1.069-1.5-1.5-0.333-0.361-0.655-0.655-0.969-0.969-0.047-0.051-0.078-0.106-0.125-0.156-0.106-0.105-0.209-0.182-0.313-0.281-0.183-0.192-0.385-0.385-0.563-0.563-0.047-0.051-0.078-0.106-0.125-0.156-0.106-0.105-0.209-0.182-0.313-0.281-0.183-0.192-0.385-0.385-0.563-0.563-0.048-0.052-0.078-0.105-0.125-0.156-0.073-0.072-0.147-0.118-0.219-0.188-0.397-0.42-0.785-0.804-1.156-1.156-0.342-0.357-0.677-0.694-1-1-0.517-0.54-0.994-1.045-1.469-1.469-0.334-0.362-0.685-0.685-1-1-0.047-0.051-0.078-0.106-0.125-0.156-0.106-0.105-0.209-0.182-0.313-0.281-0.183-0.192-0.385-0.385-0.563-0.563-0.047-0.051-0.078-0.106-0.125-0.156-0.106-0.105-0.209-0.182-0.313-0.281-0.183-0.192-0.385-0.385-0.563-0.563-0.048-0.052-0.078-0.105-0.125-0.156-0.073-0.072-0.147-0.118-0.219-0.188-0.397-0.42-0.785-0.804-1.156-1.156-0.529-0.552-1.016-1.069-1.5-1.5-0.333-0.361-0.655-0.655-0.969-0.969-0.047-0.051-0.078-0.106-0.125-0.156-0.106-0.105-0.209-0.182-0.313-0.281-0.183-0.192-0.385-0.385-0.563-0.563-0.047-0.051-0.078-0.106-0.125-0.156-0.106-0.105-0.209-0.182-0.313-0.281-0.183-0.192-0.385-0.385-0.563-0.563-0.048-0.052-0.078-0.105-0.125-0.156-0.073-0.072-0.147-0.118-0.219-0.188-0.397-0.42-0.785-0.804-1.156-1.156-0.529-0.552-1.016-1.069-1.5-1.5-0.333-0.361-0.655-0.655-0.969-0.969-0.047-0.051-0.078-0.106-0.125-0.156-0.106-0.105-0.209-0.182-0.313-0.281-0.183-0.192-0.385-0.385-0.563-0.563-0.047-0.051-0.078-0.106-0.125-0.156-0.106-0.105-0.209-0.182-0.313-0.281-0.183-0.192-0.385-0.385-0.563-0.563-0.048-0.052-0.078-0.105-0.125-0.156-0.073-0.072-0.147-0.118-0.219-0.188-0.397-0.42-0.785-0.804-1.156-1.156-0.382-0.399-0.736-0.79-1.094-1.125-0.129-0.134-0.28-0.249-0.406-0.375-0.038-0.041-0.056-0.085-0.094-0.125-0.111-0.11-0.203-0.208-0.313-0.313-0.183-0.192-0.385-0.354-0.563-0.531-0.047-0.051-0.078-0.106-0.125-0.156-0.106-0.105-0.209-0.182-0.313-0.281-0.183-0.192-0.385-0.385-0.563-0.563-0.047-0.051-0.078-0.106-0.125-0.156-0.106-0.105-0.209-0.182-0.313-0.281-0.183-0.192-0.385-0.385-0.563-0.563-0.047-0.051-0.078-0.106-0.125-0.156-0.106-0.105-0.209-0.182-0.313-0.281-0.183-0.192-0.385-0.385-0.563-0.563-0.048-0.052-0.078-0.105-0.125-0.156-0.073-0.072-0.147-0.118-0.219-0.188-0.397-0.42-0.785-0.804-1.156-1.156-0.517-0.54-0.994-1.045-1.469-1.469-0.334-0.362-0.685-0.685-1-1-0.047-0.051-0.078-0.106-0.125-0.156-0.106-0.105-0.209-0.182-0.313-0.281-0.183-0.192-0.385-0.385-0.563-0.563-0.047-0.051-0.078-0.106-0.125-0.156-0.106-0.105-0.209-0.182-0.313-0.281-0.183-0.192-0.385-0.385-0.563-0.563-0.048-0.052-0.078-0.105-0.125-0.156-0.073-0.072-0.147-0.118-0.219-0.188-0.397-0.42-0.785-0.804-1.156-1.156-0.529-0.552-1.016-1.069-1.5-1.5-0.333-0.361-0.655-0.655-0.969-0.969-0.047-0.051-0.078-0.106-0.125-0.156-0.106-0.105-0.209-0.182-0.313-0.281-0.183-0.192-0.385-0.385-0.563-0.563-0.047-0.051-0.078-0.106-0.125-0.156-0.106-0.105-0.209-0.182-0.313-0.281-0.183-0.192-0.385-0.385-0.563-0.563-0.048-0.052-0.078-0.105-0.125-0.156-0.073-0.072-0.147-0.118-0.219-0.188-0.397-0.42-0.785-0.804-1.156-1.156-0.529-0.552-1.016-1.069-1.5-1.5-0.043-0.047-0.082-0.079-0.125-0.125-4.115-4.425-6.692-5.16-10.188-4.03-2.845 0.919-10.701 3.216-18.688 5.5-0.132-0.133-0.248-0.276-0.375-0.375-0.044-0.035-0.108-0.059-0.156-0.094-0.293-0.362-0.57-0.693-0.844-0.906-0.055-0.043-0.127-0.083-0.188-0.125-0.282-0.343-0.55-0.639-0.813-0.844-0.037-0.029-0.085-0.065-0.125-0.094-0.302-0.376-0.594-0.688-0.875-0.906-0.011-0.008-0.02-0.023-0.031-0.031-0.322-0.409-0.67-0.737-0.969-0.969-0.011-0.008-0.02-0.023-0.031-0.031-0.322-0.409-0.639-0.737-0.938-0.969-0.026-0.021-0.066-0.042-0.094-0.063-0.312-0.392-0.617-0.712-0.906-0.938-0.034-0.026-0.089-0.036-0.125-0.063-0.307-0.385-0.59-0.715-0.875-0.938-0.044-0.035-0.108-0.059-0.156-0.094-0.293-0.362-0.57-0.693-0.844-0.906-0.055-0.043-0.127-0.083-0.188-0.125-0.282-0.343-0.55-0.639-0.813-0.844-0.027-0.021-0.066-0.042-0.094-0.063-0.311-0.39-0.618-0.713-0.906-0.938-0.011-0.008-0.02-0.023-0.031-0.031-0.322-0.409-0.639-0.737-0.938-0.969-0.026-0.021-0.066-0.042-0.094-0.063-0.312-0.392-0.617-0.712-0.906-0.938-0.034-0.026-0.089-0.036-0.125-0.063-0.307-0.385-0.59-0.715-0.875-0.938-0.044-0.035-0.108-0.059-0.156-0.094-0.293-0.362-0.57-0.693-0.844-0.906-0.055-0.043-0.127-0.083-0.188-0.125-0.282-0.343-0.55-0.639-0.813-0.844-0.027-0.021-0.066-0.042-0.094-0.063-0.311-0.39-0.618-0.713-0.906-0.938-0.011-0.008-0.02-0.023-0.031-0.031-0.322-0.409-0.67-0.737-0.969-0.969-0.011-0.008-0.02-0.023-0.031-0.031-0.322-0.409-0.639-0.737-0.938-0.969-0.026-0.021-0.066-0.042-0.094-0.063-0.312-0.392-0.617-0.712-0.906-0.938-0.044-0.035-0.108-0.059-0.156-0.094-0.293-0.362-0.57-0.693-0.844-0.906-0.055-0.043-0.127-0.083-0.188-0.125-0.282-0.343-0.55-0.639-0.813-0.844-0.037-0.029-0.085-0.065-0.125-0.094-0.302-0.376-0.594-0.688-0.875-0.906-0.011-0.008-0.02-0.023-0.031-0.031-0.322-0.409-0.67-0.737-0.969-0.969-0.011-0.008-0.02-0.023-0.031-0.031-0.322-0.409-0.639-0.737-0.938-0.969-0.026-0.021-0.066-0.042-0.094-0.063-0.312-0.392-0.617-0.712-0.906-0.938-0.044-0.035-0.108-0.059-0.156-0.094-0.293-0.362-0.57-0.693-0.844-0.906-0.055-0.043-0.127-0.083-0.188-0.125-0.282-0.343-0.55-0.639-0.813-0.844-0.037-0.029-0.085-0.065-0.125-0.094-0.302-0.376-0.594-0.688-0.875-0.906-0.027-0.021-0.066-0.042-0.094-0.063-0.311-0.39-0.618-0.713-0.906-0.938-0.011-0.008-0.02-0.023-0.031-0.031-0.322-0.409-0.639-0.737-0.938-0.969-0.026-0.021-0.066-0.042-0.094-0.063-0.312-0.392-0.617-0.712-0.906-0.938-0.034-0.026-0.089-0.036-0.125-0.063-0.307-0.385-0.59-0.715-0.875-0.938-0.044-0.035-0.108-0.059-0.156-0.094-0.293-0.362-0.57-0.693-0.844-0.906-0.055-0.043-0.127-0.083-0.188-0.125-0.282-0.343-0.55-0.639-0.813-0.844-0.027-0.021-0.066-0.042-0.094-0.063-0.311-0.39-0.618-0.713-0.906-0.938-0.011-0.008-0.02-0.023-0.031-0.031-0.322-0.409-0.639-0.737-0.938-0.969-0.026-0.021-0.066-0.042-0.094-0.063-0.312-0.392-0.617-0.712-0.906-0.938-0.034-0.026-0.089-0.036-0.125-0.063-0.307-0.385-0.59-0.715-0.875-0.938-0.044-0.035-0.108-0.059-0.156-0.094-0.293-0.362-0.57-0.693-0.844-0.906-0.055-0.043-0.127-0.083-0.188-0.125-0.282-0.343-0.55-0.639-0.813-0.844-0.027-0.021-0.066-0.042-0.094-0.063-0.311-0.39-0.618-0.713-0.906-0.938-0.011-0.008-0.02-0.023-0.031-0.031-0.322-0.409-0.67-0.737-0.969-0.969-0.011-0.008-0.02-0.023-0.031-0.031-0.322-0.409-0.639-0.737-0.938-0.969-0.026-0.021-0.066-0.042-0.094-0.063-0.312-0.392-0.617-0.712-0.906-0.938-0.044-0.035-0.108-0.059-0.156-0.094-0.293-0.362-0.57-0.693-0.844-0.906-2.637-2.053-11.678-3.719-20.09-3.719h-15.281"/>
  <path id="path10" fill-opacity="0.067" d="m256 1c-140.83 0-255 114.17-255 255s114.17 255 255 255 255-114.17 255-255-114.17-255-255-255m8.827 44.931c120.9 0 218.9 98 218.9 218.9s-98 218.9-218.9 218.9-218.93-98-218.93-218.9 98.03-218.9 218.93-218.9"/>
  <g id="g12" fill-opacity="0.129">
   <path id="path14" d="m256 4.433c-138.94 0-251.57 112.63-251.57 251.57s112.63 251.57 251.57 251.57 251.57-112.63 251.57-251.57-112.63-251.57-251.57-251.57m5.885 38.556c120.9 0 218.9 98 218.9 218.9s-98 218.9-218.9 218.9-218.93-98-218.93-218.9 98.03-218.9 218.93-218.9"/>
   <path id="path16" d="m256 8.356c-136.77 0-247.64 110.87-247.64 247.64s110.87 247.64 247.64 247.64 247.64-110.87 247.64-247.64-110.87-247.64-247.64-247.64m2.942 31.691c120.9 0 218.9 98 218.9 218.9s-98 218.9-218.9 218.9-218.93-98-218.93-218.9 98.03-218.9 218.93-218.9"/>
  </g>
  <path id="path18" d="m253.04 7.859c-135.42 0-245.19 109.78-245.19 245.19 0 135.42 109.78 245.19 245.19 245.19 135.42 0 245.19-109.78 245.19-245.19 0-135.42-109.78-245.19-245.19-245.19zm0 26.297c120.9 0 218.9 98 218.9 218.9s-98 218.9-218.9 218.9-218.93-98-218.93-218.9 98.03-218.9 218.93-218.9z" stroke-opacity="0.31" stroke="#000" stroke-width="4.904" fill="#fff"/>
 </g>
 <path id="path66" d="m254.12 112.69-6.687 16.11c-12.179 29.384-19.858 31.32-48.27 12.196l-15.698-10.572-11.431 7.897c-18.51 12.827-18.843 13.759-11.845 33.976 11.145 32.2 9.373 35.555-22.13 41.841-9.852 1.966-19.569 5.706-21.621 8.343s-3.736 11.595-3.726 19.902c0.011 15.08 0.03 15.11 13.374 20.602 18.374 7.556 28.404 16.09 28.404 24.1 0 3.714-5.394 14.445-12 23.882l-12.04 17.16 10.795 14.679c5.929 8.08 11.677 14.669 12.769 14.616 1.092-0.054 9.374-2.714 18.405-5.891 24.762-8.711 32.33-7.955 37.1 3.726 2.177 5.337 4.867 16.08 5.986 23.85 1.216 8.444 4.084 15.308 7.101 17.07 2.777 1.62 11.838 2.975 20.16 3.03l15.13 0.096 6.687-16.08c12.179-29.384 19.858-31.32 48.27-12.196l15.698 10.572 11.431-7.929c18.51-12.827 18.842-13.759 11.845-33.976-11.145-32.2-9.405-35.524 22.1-41.809 9.852-1.966 19.6-5.738 21.653-8.375 2.052-2.637 3.726-11.726 3.726-20.22v-15.476l-13.247-5.063c-17.952-6.856-28.531-15.682-28.531-23.818 0-3.714 5.394-14.477 12-23.914l12.04-17.16-10.954-14.902c-8.947-12.188-12.12-14.555-17.259-12.896-3.459 1.117-14.14 4.234-23.723 6.942-17.333 4.895-17.44 4.894-22.927-1.879-3.034-3.746-7.06-14.491-8.948-23.882s-5.61-18.773-8.247-20.825c-2.637-2.053-11.677-3.726-20.09-3.726h-15.284m2.579 84.48c40.888 0.333 71.857 46.4 51.43 85.91-9 17.413-34.489 32.846-53.623 32.48-3.284-0.063-11.359-2.01-17.927-4.331-24.706-8.739-43.36-39.441-38.784-63.813 4.309-22.97 21.902-42.37 43.72-48.24 4.485-1.208 8.918-1.855 13.247-1.974 0.654-0.018 1.293-0.037 1.942-0.032" fill-rule="evenodd" fill="#fff"/>
</svg>
