<?xml version="1.0" encoding="UTF-8" standalone="no"?>
<svg
   xmlns:dc="http://purl.org/dc/elements/1.1/"
   xmlns:cc="http://creativecommons.org/ns#"
   xmlns:rdf="http://www.w3.org/1999/02/22-rdf-syntax-ns#"
   xmlns:svg="http://www.w3.org/2000/svg"
   xmlns="http://www.w3.org/2000/svg"
   xmlns:sodipodi="http://sodipodi.sourceforge.net/DTD/sodipodi-0.dtd"
   xmlns:inkscape="http://www.inkscape.org/namespaces/inkscape"
   height="512"
   viewBox="0 0 512 512"
   width="512"
   version="1.1"
   id="svg2"
   inkscape:version="0.91 r13725"
   sodipodi:docname="orion.svg">
  <defs
     id="defs17" />
  <sodipodi:namedview
     pagecolor="#ffffff"
     bordercolor="#666666"
     borderopacity="1"
     objecttolerance="10"
     gridtolerance="10"
     guidetolerance="10"
     inkscape:pageopacity="0"
     inkscape:pageshadow="2"
     inkscape:window-width="1920"
     inkscape:window-height="1027"
     id="namedview15"
     showgrid="false"
     inkscape:zoom="0.9099002"
     inkscape:cx="-77.998965"
     inkscape:cy="239.39847"
     inkscape:window-x="0"
     inkscape:window-y="0"
     inkscape:window-maximized="1"
     inkscape:current-layer="svg2" />
  <metadata
     id="metadata28">
    <rdf:RDF>
      <cc:Work
         rdf:about="">
        <dc:format>image/svg+xml</dc:format>
        <dc:type
           rdf:resource="http://purl.org/dc/dcmitype/StillImage" />
        <dc:title></dc:title>
      </cc:Work>
    </rdf:RDF>
  </metadata>
  <path
     style="fill:#BF9E73;fill-rule:evenodd;fill-opacity:1"
     inkscape:connector-curvature="0"
     d="m 471.95,253.05 c 0,120.9 -98.01,218.9 -218.9,218.9 -120.9,0 -218.9,-98.01 -218.9,-218.9 0,-120.9 98.01,-218.9 218.9,-218.9 120.9,0 218.9,98.01 218.9,218.9"
     id="path6" />
  <path
     inkscape:connector-curvature="0"
     style="opacity:0.25"
     id="path4190"
     d="m 265.80693,134.24145 c -45.81876,18.80146 -14.32068,-27.80931 -72.47481,7.31551 l -14.82351,12.58601 -14.7681,19.93975 -22.42752,44.89226 17.35394,31.01084 -0.79376,51.6355 15.97299,58.64902 134.37561,106.2205 c 38.55033,-17.96543 111.12391,-9.91946 164.32241,-185.13869 l -113.9768,-110.7902 -48.85749,-9.20761"
     sodipodi:nodetypes="cccccccccccc" />
  <path
     style="fill-opacity:0.06700003;fill-rule:evenodd"
     inkscape:connector-curvature="0"
     d="M 256,1 C 115.17,1 1,115.17 1,256 1,396.83 115.17,511 256,511 396.83,511 511,396.83 511,256 511,115.17 396.83,1 256,1 m 8.827,44.931 c 120.9,0 218.9,98 218.9,218.9 0,120.9 -98,218.9 -218.9,218.9 -120.9,0 -218.93,-98 -218.93,-218.9 0,-120.9 98.03,-218.9 218.93,-218.9"
     id="path8" />
  <g
     style="fill-opacity:0.12900002;fill-rule:evenodd"
     id="g10">
    <path
       inkscape:connector-curvature="0"
       d="m 256,4.433 c -138.94,0 -251.57,112.63 -251.57,251.57 0,138.94 112.63,251.57 251.57,251.57 138.94,0 251.57,-112.63 251.57,-251.57 C 507.57,117.063 394.94,4.433 256,4.433 m 5.885,38.556 c 120.9,0 218.9,98 218.9,218.9 0,120.9 -98,218.9 -218.9,218.9 -120.9,0 -218.93,-98 -218.93,-218.9 0,-120.9 98.03,-218.9 218.93,-218.9"
       id="path12" />
    <path
       inkscape:connector-curvature="0"
       d="m 256,8.356 c -136.77,0 -247.64,110.87 -247.64,247.64 0,136.77 110.87,247.64 247.64,247.64 136.77,0 247.64,-110.87 247.64,-247.64 C 503.64,119.226 392.77,8.356 256,8.356 m 2.942,31.691 c 120.9,0 218.9,98 218.9,218.9 0,120.9 -98,218.9 -218.9,218.9 -120.9,0 -218.93,-98 -218.93,-218.9 0,-120.9 98.03,-218.9 218.93,-218.9"
       id="path14" />
  </g>
  <path
     style="fill:#ffffff;fill-rule:evenodd;stroke:#000000;stroke-width:4.90399981;stroke-opacity:0.31000001"
     inkscape:connector-curvature="0"
     d="m 253.04,7.859 c -135.42,0 -245.19,109.78 -245.19,245.19 0,135.42 109.78,245.19 245.19,245.19 135.42,0 245.19,-109.78 245.19,-245.19 0,-135.42 -109.78,-245.19 -245.19,-245.19 z m 0,26.297 c 120.9,0 218.9,98 218.9,218.9 0,120.9 -98,218.9 -218.9,218.9 -120.9,0 -218.93,-98 -218.93,-218.9 0,-120.9 98.03,-218.9 218.93,-218.9 z"
     id="path16" />
  <path
     style="fill:#ffffff;fill-opacity:1"
     d="m 255.20737,123.14725 c -42.60658,-0.25246 -84.5444,22.0351 -108.54595,57.27783 -17.82521,25.67446 -26.05682,57.72243 -22.85005,88.81392 3.70071,39.9021 26.86498,77.44074 60.78917,98.7986 30.44999,19.42809 68.84335,25.82762 103.85465,16.78539 32.64181,-8.14502 62.0245,-29.29598 79.89714,-57.9084 14.28701,-22.51461 21.62209,-49.59003 20.38026,-76.26721 -1.12972,-31.98152 -14.25692,-63.28726 -36.5592,-86.3617 -23.56311,-24.74623 -56.92209,-40.16224 -91.07497,-41.05933 -1.94703,-0.0683 -3.92953,-0.0941 -5.89105,-0.0791 z m -50.39359,44.58824 0,0.002 c 9.57256,0.22371 18.00301,9.78434 16.24926,19.38924 -0.93113,8.26703 -8.25876,15.53334 -16.72828,15.57468 -9.48896,0.46069 -18.51827,-7.99683 -18.09941,-17.6138 -0.0812,-8.20997 6.293,-16.2503 14.63642,-17.11941 0.99687,-0.14782 2.00519,-0.21576 3.01254,-0.22412 0.31087,-0.0127 0.62068,-0.0154 0.92947,-0.009 z m 61.04625,10.89217 c 6.89095,-0.28175 12.19973,8.54644 8.18286,14.34857 -2.99336,5.69188 -12.08576,6.21956 -15.7263,0.9053 -3.56638,-4.55062 -1.94401,-12.3242 3.64538,-14.43866 1.22271,-0.54311 2.56241,-0.80665 3.89806,-0.81521 z m -102.23082,31.2834 c 1.7986,0.0484 3.53996,0.46156 5.16153,1.15799 6.6e-4,3.3e-4 0.001,-3.2e-4 0.002,0 9.1e-4,4e-4 0.001,0.002 0.002,0.002 6.97615,2.99881 11.74,11.28805 9.36502,18.80256 -1.22921,4.65282 -4.84441,8.41222 -9.21121,10.33405 -0.0385,0.0683 -0.0849,0.0966 -0.14722,0.0637 -3.82274,1.63955 -8.20113,1.87788 -12.07654,0.0263 -7.91366,-3.37322 -12.23603,-13.83277 -7.94115,-21.54923 2.60625,-5.13976 8.10039,-8.81336 13.91789,-8.82887 0.31078,-0.0134 0.61957,-0.0165 0.92728,-0.009 z m 124.27444,19.63535 c 0.1903,-0.002 0.38083,-0.002 0.57131,0.004 8.08209,0.0514 14.32488,9.68904 10.7054,17.02932 -2.83046,6.90614 -12.68506,9.77006 -18.52789,4.88467 -6.03648,-4.27886 -6.57355,-14.38879 -0.5779,-18.95418 2.16048,-1.87389 4.97469,-2.9262 7.82908,-2.9642 z m 74.70047,40.28806 c 8.20274,0.16 15.47353,8.2794 14.02776,16.52393 -0.83766,9.0906 -11.56483,15.75122 -20.0089,11.95568 -7.33668,-2.74003 -11.5523,-11.87707 -8.38721,-19.15413 2.10411,-5.44783 7.71395,-9.3582 13.57292,-9.31449 0.26628,-0.0117 0.53082,-0.0143 0.79543,-0.009 l 0,-0.002 z m -101.78477,1.70073 c 0.33552,-3.5e-4 0.67192,0.007 1.00858,0.0242 12.56223,0.17266 22.75625,13.53477 19.86167,25.71096 -2.17715,10.98047 -14.05259,18.8016 -25.00782,16.4778 -10.47642,-1.99834 -18.40312,-12.69487 -17.06667,-23.32028 1.07945,-10.43644 10.80307,-18.88116 21.20424,-18.89266 z m 40.22654,77.19447 c 7.31343,0.0191 12.7066,9.08082 8.94754,15.45818 -2.99917,5.96662 -12.17411,7.62649 -16.73049,2.51153 -4.8103,-4.66327 -3.71601,-14.04166 2.61263,-16.82713 1.59284,-0.81812 3.3874,-1.16531 5.17032,-1.14258 z"
     id="path3709"
     inkscape:connector-curvature="0" />
</svg>
