<?xml version="1.0" encoding="UTF-8" standalone="no"?>
<svg xmlns:dc="http://purl.org/dc/elements/1.1/" xmlns:cc="http://creativecommons.org/ns#" xmlns:rdf="http://www.w3.org/1999/02/22-rdf-syntax-ns#" xmlns:svg="http://www.w3.org/2000/svg" xmlns="http://www.w3.org/2000/svg" xmlns:sodipodi="http://sodipodi.sourceforge.net/DTD/sodipodi-0.dtd" xmlns:inkscape="http://www.inkscape.org/namespaces/inkscape" height="512" viewBox="0 0 512 512" width="512" version="1.1" id="svg2" inkscape:version="0.91 r" sodipodi:docname="owncloud.svg">
<defs id="defs17" />
<sodipodi:namedview pagecolor="#ffffff" bordercolor="#666666" borderopacity="1" objecttolerance="10" gridtolerance="10" guidetolerance="10" inkscape:pageopacity="0" inkscape:pageshadow="2" inkscape:window-width="1680" inkscape:window-height="994" id="namedview15" showgrid="false" inkscape:zoom="1.3037281" inkscape:cx="172.48005" inkscape:cy="244.919" inkscape:window-x="0" inkscape:window-y="0" inkscape:window-maximized="1" inkscape:current-layer="svg2" />
<metadata id="metadata28">
<rdf:RDF>
<cc:Work rdf:about="">
<dc:format>image/svg+xml</dc:format>
<dc:type rdf:resource="http://purl.org/dc/dcmitype/StillImage" />
<dc:title></dc:title>
</cc:Work>
</rdf:RDF>
</metadata>
<path style="fill:#BF9E73;fill-rule:evenodd;fill-opacity:1" inkscape:connector-curvature="0" d="m 471.95,253.05 c 0,120.9 -98.01,218.9 -218.9,218.9 -120.9,0 -218.9,-98.01 -218.9,-218.9 0,-120.9 98.01,-218.9 218.9,-218.9 120.9,0 218.9,98.01 218.9,218.9" id="path6" />
<path style="fill-opacity:0.06700003;fill-rule:evenodd" inkscape:connector-curvature="0" d="M 256,1 C 115.17,1 1,115.17 1,256 1,396.83 115.17,511 256,511 396.83,511 511,396.83 511,256 511,115.17 396.83,1 256,1 m 8.827,44.931 c 120.9,0 218.9,98 218.9,218.9 0,120.9 -98,218.9 -218.9,218.9 -120.9,0 -218.93,-98 -218.93,-218.9 0,-120.9 98.03,-218.9 218.93,-218.9" id="path8" />
<g style="fill-opacity:0.12900002;fill-rule:evenodd" id="g10">
<path inkscape:connector-curvature="0" d="m 256,4.433 c -138.94,0 -251.57,112.63 -251.57,251.57 0,138.94 112.63,251.57 251.57,251.57 138.94,0 251.57,-112.63 251.57,-251.57 C 507.57,117.063 394.94,4.433 256,4.433 m 5.885,38.556 c 120.9,0 218.9,98 218.9,218.9 0,120.9 -98,218.9 -218.9,218.9 -120.9,0 -218.93,-98 -218.93,-218.9 0,-120.9 98.03,-218.9 218.93,-218.9" id="path12" />
<path inkscape:connector-curvature="0" d="m 256,8.356 c -136.77,0 -247.64,110.87 -247.64,247.64 0,136.77 110.87,247.64 247.64,247.64 136.77,0 247.64,-110.87 247.64,-247.64 C 503.64,119.226 392.77,8.356 256,8.356 m 2.942,31.691 c 120.9,0 218.9,98 218.9,218.9 0,120.9 -98,218.9 -218.9,218.9 -120.9,0 -218.93,-98 -218.93,-218.9 0,-120.9 98.03,-218.9 218.93,-218.9" id="path14" />
</g>
<path inkscape:connector-curvature="0" style="opacity:0.25" id="path3950" d="m 249.23191,148.53176 c -19.221,0 -35.803,11.133 -43.38,27.18 l -3.992,-3.992 c -3.516,-1.723 -7.477,-2.719 -11.688,-2.719 -14.415,0 -26.06,11.453 -26.06,25.563 0,3.602 0.786,7.02 2.156,10.125 l 3.896,3.896 c -12.12,6.952 -21.07,18.593 -24.26,32.396 l -4.387,-4.387 c -25.989,0.425 -46.969002,21.2 -46.969002,46.781 0,12.73 5.214,24.296 13.664002,32.746 l 152.81,152.81 c 0.371,0.002 0.74,0.014 1.111,0.014 95.2,0 176.18,-60.772 206.32,-145.63 l -40.643,-40.643 c -2.711,-2.711 -6.01,-4.854 -9.68,-6.248 l -31.02,-31.02 c -4.427,-4.427 -9.686,-8.05 -15.518,-10.646 l -35.816,-35.816 c -7.736,-7.736 -18.2,-12.838 -29.871,-13.842 l -22.521,-22.521 c -8.67,-8.67 -20.761,-14.05 -34.15,-14.05" />
<path style="fill:#ffffff;fill-rule:evenodd;stroke:#000000;stroke-width:4.90399981;stroke-opacity:0.31000001" inkscape:connector-curvature="0" d="m 253.04,7.859 c -135.42,0 -245.19,109.78 -245.19,245.19 0,135.42 109.78,245.19 245.19,245.19 135.42,0 245.19,-109.78 245.19,-245.19 0,-135.42 -109.78,-245.19 -245.19,-245.19 z m 0,26.297 c 120.9,0 218.9,98 218.9,218.9 0,120.9 -98,218.9 -218.9,218.9 -120.9,0 -218.93,-98 -218.93,-218.9 0,-120.9 98.03,-218.9 218.93,-218.9 z" id="path16" />
<path inkscape:connector-curvature="0" style="fill:#ffffff" id="path3952" d="m 250.28179,148.26947 c -26.363,0 -47.781,20.932 -47.781,46.781 0,0.411 0.02,0.81 0.031,1.219 8.997,0.8 17.409,3.639 24.719,8.06 l 2.219,1.344 c 10.703,-6.289 23.2,-9.906 36.531,-9.906 11.25,0 21.894,2.584 31.375,7.156 0.443,-2.562 0.688,-5.189 0.688,-7.875 0,-25.851 -21.365,-46.781 -47.781,-46.781 m -59.06,20.469 c -14.415,0 -26.06,11.453 -26.06,25.563 0,3.602 0.786,7.02 2.156,10.125 8.687,-5.292 18.905,-8.371 29.844,-8.406 -0.01,-0.285 -0.031,-0.554 -0.031,-0.969 0,-8.493 2.099,-16.51 5.781,-23.594 -3.516,-1.723 -7.477,-2.719 -11.688,-2.719 m 111.16,15.906 c 0.698,3.366 1.063,6.839 1.063,10.406 0,3.01 -0.289,5.938 -0.781,8.781 l -0.313,1.781 c 10.166,5.934 18.728,14.265 24.813,24.22 l 0.469,-0.219 c 6.83,-3.051 14.391,-4.825 22.344,-5 -3.38,-22.605 -23.21,-39.969 -47.25,-39.969 -0.115,0 -0.229,-0.001 -0.344,0 m -36.37,16.5 c -36.36,0 -65.875,28.835 -65.875,64.47 0,35.635 29.521,64.53 65.875,64.53 36.407,0 65.906,-28.898 65.906,-64.53 0,-35.633 -29.501,-64.47 -65.906,-64.47 m -68.66,0.25 c -28.583,0 -51.688,22.601 -51.688,50.563 0,15.597 7.207,29.58 18.563,38.875 5.1,-11.309 16.653,-19.219 29.938,-19.219 0.257,0 0.586,-0.002 0.875,0 -0.172,-1.975 -0.281,-3.982 -0.281,-6 0,-23.364 11.756,-44.01 29.719,-56.688 -7.884,-4.771 -17.17,-7.531 -27.12,-7.531 m 153.91,28.563 c -7.658,0 -14.904,1.644 -21.438,4.563 4.77,9.364 7.469,19.916 7.469,31.09 0,20.04 -8.647,38.1 -22.438,50.844 9.341,9.07 22.19,14.688 36.406,14.688 28.532,0 51.656,-22.653 51.656,-50.563 0,-28.01 -23.12,-50.625 -51.656,-50.625 m -208.69,6.375 c -25.989,0.425 -46.969002,21.2 -46.969002,46.781 0,25.799 21.416002,46.813 47.781002,46.813 9.05,0 17.53,-2.466 24.75,-6.75 -4.19,-5.386 -6.688,-12.11 -6.688,-19.406 0,-2.627 0.327,-5.181 0.938,-7.625 -13.417,-10.256 -22.09,-26.25 -22.09,-44.19 0,-5.424 0.811,-10.668 2.281,-15.625 m 266.78,38.03 c -0.471,0 -0.941,0.008 -1.406,0.031 0.229,2.036 0.344,4.091 0.344,6.188 0,15.795 -6.711,30.08 -17.469,40.25 4.876,4.398 11.379,7.06 18.531,7.06 15.09,0 27.344,-11.94 27.344,-26.719 0,-14.779 -12.256,-26.813 -27.344,-26.813 m -215.19,2.625 c -15.09,0 -27.344,12 -27.344,26.781 0,14.779 12.256,26.719 27.344,26.719 10.129,0 18.963,-5.395 23.688,-13.406 -11.471,-10.34 -19.481,-24.318 -22.12,-40.06 -0.516,-0.029 -1.039,-0.031 -1.563,-0.031" />
</svg>
