<?xml version="1.0" encoding="UTF-8" standalone="no"?>
<svg
   xmlns:dc="http://purl.org/dc/elements/1.1/"
   xmlns:cc="http://creativecommons.org/ns#"
   xmlns:rdf="http://www.w3.org/1999/02/22-rdf-syntax-ns#"
   xmlns:svg="http://www.w3.org/2000/svg"
   xmlns="http://www.w3.org/2000/svg"
   xmlns:sodipodi="http://sodipodi.sourceforge.net/DTD/sodipodi-0.dtd"
   xmlns:inkscape="http://www.inkscape.org/namespaces/inkscape"
   height="512"
   viewBox="0 0 512 512"
   width="512"
   version="1.1"
   id="svg2"
   inkscape:version="0.91 r13725"
   sodipodi:docname="package_system.svg">
  <defs
     id="defs77">
    <clipPath
       id="clipPath-615109420">
      <g
         transform="translate(0,-1004.3622)"
         id="g17">
        <path
           inkscape:connector-curvature="0"
           d="m -24,13 c 0,1.105 -0.672,2 -1.5,2 -0.828,0 -1.5,-0.895 -1.5,-2 0,-1.105 0.672,-2 1.5,-2 0.828,0 1.5,0.895 1.5,2 z"
           transform="matrix(15.333333,0,0,11.5,414.99999,878.8622)"
           style="fill:#1890d0"
           id="path19" />
      </g>
    </clipPath>
  </defs>
  <sodipodi:namedview
     pagecolor="#ffffff"
     bordercolor="#666666"
     borderopacity="1"
     objecttolerance="10"
     gridtolerance="10"
     guidetolerance="10"
     inkscape:pageopacity="0"
     inkscape:pageshadow="2"
     inkscape:window-width="1920"
     inkscape:window-height="1020"
     id="namedview75"
     showgrid="false"
     inkscape:zoom="0.52231781"
     inkscape:cx="-309.20158"
     inkscape:cy="579.29483"
     inkscape:window-x="0"
     inkscape:window-y="0"
     inkscape:window-maximized="1"
     inkscape:current-layer="svg2" />
  <metadata
     id="metadata148">
    <rdf:RDF>
      <cc:Work
         rdf:about="">
        <dc:format>image/svg+xml</dc:format>
        <dc:type
           rdf:resource="http://purl.org/dc/dcmitype/StillImage" />
      </cc:Work>
    </rdf:RDF>
  </metadata>
  <path
     id="path4"
     d="m471.95 253.05c0 120.9-98.01 218.9-218.9 218.9-120.9 0-218.9-98.01-218.9-218.9 0-120.9 98.01-218.9 218.9-218.9 120.9 0 218.9 98.01 218.9 218.9"
     fill-rule="evenodd"
     fill="#fff"
     style="fill:#BF9E73;fill-opacity:1" />
  <path
     style="fill-opacity:0.06700003;fill-rule:evenodd"
     inkscape:connector-curvature="0"
     d="M 256,1 C 115.17,1 1,115.17 1,256 1,396.83 115.17,511 256,511 396.83,511 511,396.83 511,256 511,115.17 396.83,1 256,1 m 8.827,44.931 c 120.9,0 218.9,98 218.9,218.9 0,120.9 -98,218.9 -218.9,218.9 -120.9,0 -218.93,-98 -218.93,-218.9 0,-120.9 98.03,-218.9 218.93,-218.9"
     id="path28" />
  <g
     style="fill-opacity:0.12900002;fill-rule:evenodd"
     id="g30">
    <path
       inkscape:connector-curvature="0"
       d="m 256,4.433 c -138.94,0 -251.57,112.63 -251.57,251.57 0,138.94 112.63,251.57 251.57,251.57 138.94,0 251.57,-112.63 251.57,-251.57 C 507.57,117.063 394.94,4.433 256,4.433 m 5.885,38.556 c 120.9,0 218.9,98 218.9,218.9 0,120.9 -98,218.9 -218.9,218.9 -120.9,0 -218.93,-98 -218.93,-218.9 0,-120.9 98.03,-218.9 218.93,-218.9"
       id="path32" />
    <path
       inkscape:connector-curvature="0"
       d="m 256,8.356 c -136.77,0 -247.64,110.87 -247.64,247.64 0,136.77 110.87,247.64 247.64,247.64 136.77,0 247.64,-110.87 247.64,-247.64 C 503.64,119.226 392.77,8.356 256,8.356 m 2.942,31.691 c 120.9,0 218.9,98 218.9,218.9 0,120.9 -98,218.9 -218.9,218.9 -120.9,0 -218.93,-98 -218.93,-218.9 0,-120.9 98.03,-218.9 218.93,-218.9"
       id="path34" />
  </g>
  <text
     id="text38"
     font-size="129.23"
     line-height="125%"
     y="231.36"
     x="729.64"
     font-family="Gentium Book Basic"
     word-spacing="0"
     letter-spacing="0">
    <tspan
       id="tspan40"
       y="231.36"
       x="729.64" />
  </text>
  <text
     id="text42"
     font-size="46.954"
     transform="scale(4.0128 .2492)"
     y="579.25"
     x="378.91"
     font-family="Arial"
     text-anchor="middle" />
  <text
     id="text44"
     font-size="129.23"
     line-height="125%"
     y="151.36"
     x="1310.91"
     font-family="Gentium Book Basic"
     word-spacing="0"
     letter-spacing="0">
    <tspan
       id="tspan46"
       y="151.36"
       x="1310.91" />
  </text>
  <text
     id="text48"
     font-size="46.954"
     transform="scale(4.0128 .2492)"
     y="258.22"
     x="523.76"
     font-family="Arial"
     text-anchor="middle" />
  <text
     id="text50"
     font-size="129.23"
     line-height="125%"
     y="-29.901"
     x="239.33"
     font-family="Gentium Book Basic"
     word-spacing="0"
     letter-spacing="0">
    <tspan
       id="tspan52"
       y="-29.901"
       x="239.33" />
  </text>
  <text
     id="text54"
     font-size="46.954"
     transform="scale(4.0128 .2492)"
     y="-469.14"
     x="256.72"
     font-family="Arial"
     text-anchor="middle" />
  <text
     id="text56"
     font-size="129.23"
     line-height="125%"
     y="-246.37"
     x="1337.38"
     font-family="Gentium Book Basic"
     word-spacing="0"
     letter-spacing="0">
    <tspan
       id="tspan58"
       y="-246.37"
       x="1337.38" />
  </text>
  <text
     id="text60"
     font-size="46.954"
     transform="scale(4.0128 .2492)"
     y="-1337.81"
     x="530.36"
     font-family="Arial"
     text-anchor="middle" />
  <text
     id="text62"
     font-size="129.23"
     line-height="125%"
     y="-326.38"
     x="1918.65"
     font-family="Gentium Book Basic"
     word-spacing="0"
     letter-spacing="0">
    <tspan
       id="tspan64"
       y="-326.38"
       x="1918.65" />
  </text>
  <text
     id="text66"
     font-size="46.954"
     transform="scale(4.0128 .2492)"
     y="-1658.85"
     x="675.21"
     font-family="Arial"
     text-anchor="middle" />
  <text
     id="text68"
     font-size="129.23"
     line-height="125%"
     y="-798.78"
     x="1529.53"
     font-family="Gentium Book Basic"
     word-spacing="0"
     letter-spacing="0">
    <tspan
       id="tspan70"
       y="-798.78"
       x="1529.53" />
  </text>
  <text
     id="text72"
     font-size="46.954"
     transform="scale(4.0128 .2492)"
     y="-3554.51"
     x="578.24"
     font-family="Arial"
     text-anchor="middle" />
  <text
     id="text74"
     font-size="129.23"
     line-height="125%"
     y="-878.78"
     x="2110.79"
     font-family="Gentium Book Basic"
     word-spacing="0"
     letter-spacing="0">
    <tspan
       id="tspan76"
       y="-878.78"
       x="2110.79" />
  </text>
  <text
     id="text78"
     font-size="46.954"
     transform="scale(4.0128 .2492)"
     y="-3875.54"
     x="723.09"
     font-family="Arial"
     text-anchor="middle" />
  <g
     id="g80"
     font-family="Gentium Book Basic"
     line-height="125%"
     word-spacing="0"
     letter-spacing="0">
    <g
       id="g82"
       font-size="208.33">
      <text
         id="text84"
         y="535.94"
         x="277.99">
        <tspan
           id="tspan86"
           y="535.94"
           x="277.99" />
      </text>
      <text
         id="text88"
         y="465.59"
         x="-1110.48">
        <tspan
           id="tspan90"
           y="465.59"
           x="-1110.48" />
      </text>
      <text
         id="text92"
         y="307.75"
         x="-1403.55">
        <tspan
           id="tspan94"
           y="307.75"
           x="-1403.55" />
      </text>
      <text
         id="text96"
         y="502.73"
         x="-1824.76">
        <tspan
           id="tspan98"
           y="502.73"
           x="-1824.76" />
      </text>
    </g>
    <text
       id="text100"
       font-size="84.77"
       transform="scale(1.0508 .95163)"
       y="332.19"
       x="-537.77"
       fill="#654641">
      <tspan
         id="tspan102"
         y="332.19"
         x="-537.77" />
    </text>
  </g>
  <g
     id="g104"
     fill="#654641">
    <text
       id="text106"
       font-size="30.8"
       transform="scale(4.2168 .23715)"
       y="1103.98"
       x="-4.736"
       font-family="Arial"
       text-anchor="middle" />
    <text
       id="text108"
       transform="scale(1.0508 .95163)"
       font-size="45.38"
       y="308.69"
       x="-269.96"
       font-family="Gentium Book Basic"
       line-height="125%"
       word-spacing="0"
       letter-spacing="0">
      <tspan
         id="tspan110"
         y="308.69"
         x="-269.96" />
    </text>
    <text
       id="text112"
       font-size="16.488"
       transform="scale(4.2168 .23715)"
       y="1116.11"
       x="1.931"
       font-family="Arial"
       text-anchor="middle" />
    <text
       id="text114"
       font-size="132.57"
       line-height="125%"
       y="395.61"
       x="-1306.01"
       font-family="Gentium Book Basic"
       word-spacing="0"
       letter-spacing="0">
      <tspan
         id="tspan116"
         y="395.61"
         x="-1306.01" />
    </text>
    <text
       id="text118"
       font-size="48.17"
       transform="scale(4.0128 .2492)"
       y="1229.33"
       x="-123.28"
       font-family="Arial"
       text-anchor="middle" />
  </g>
  <g
     id="g120"
     font-family="Gentium Book Basic"
     font-size="208.33"
     line-height="125%"
     word-spacing="0"
     letter-spacing="0">
    <text
       id="text122"
       y="375.73"
       x="-1043.76">
      <tspan
         id="tspan124"
         y="375.73"
         x="-1043.76" />
    </text>
    <text
       id="text126"
       y="217.9"
       x="-1336.84">
      <tspan
         id="tspan128"
         y="217.9"
         x="-1336.84" />
    </text>
  </g>
  <path
     style="opacity:0.25;fill:#000000;fill-rule:evenodd;stroke:#000000;stroke-width:1px;stroke-linecap:butt;stroke-linejoin:miter;stroke-opacity:1"
     d="m 231.06992,56.995721 59.06953,45.672709 14.80434,-7.404928 172.15192,151.418728 c -3.02227,70.68456 -34.62786,109.21288 -56.21435,159.01269 -47.2891,37.37922 -94.56093,58.67486 -144.39867,68.01908 l -70.381,-0.76485 -112.41307,-88.35623 97.67401,-127.06323 -55.94378,-44.98205 z"
     id="path3433"
     inkscape:connector-curvature="0"
     sodipodi:nodetypes="ccccccccccc" />
  <g
     transform="matrix(15.467238,0,0,15.467238,-121.35584,-131.82614)"
     id="g49"
     style="fill:#ffffff">
    <g
       id="g51"
       clip-path="url(#clipPath-615109420)"
       style="fill:#ffffff">
      <!-- color: #3d3d3d -->
      <g
         id="g53"
         style="fill:#ffffff">
        <path
           inkscape:connector-curvature="0"
           d="m 31.13,20.06 c 1.086,0.348 0.133,1.965 1.691,2.754 1.777,0.902 2.664,-1.379 3.73,0.25 1.066,1.629 -1.477,1.379 -1.406,3.297 0.074,1.918 2.59,1.508 1.645,3.203 -0.941,1.691 -1.988,-0.527 -3.699,0.484 -1.707,1.016 -0.074,2.887 -2.086,2.953 -2.01,0.063 -0.516,-1.906 -2.297,-2.813 -1.777,-0.902 -2.664,1.379 -3.73,-0.25 -1.066,-1.629 1.473,-1.379 1.402,-3.297 -0.07,-1.914 -2.586,-1.508 -1.645,-3.203 0.945,-1.691 1.992,0.531 3.699,-0.484 1.711,-1.012 0.078,-2.887 2.09,-2.949 0.25,-0.008 0.449,0.004 0.605,0.055 m -0.023,4.883 c -0.895,-0.184 -1.777,0.363 -1.969,1.23 -0.191,0.855 0.383,1.707 1.281,1.887 0.895,0.184 1.777,-0.363 1.969,-1.23 0.191,-0.852 -0.383,-1.707 -1.281,-1.887 m 0,0"
           style="fill:#ffffff;fill-opacity:1;fill-rule:nonzero;stroke:none"
           id="path55" />
        <path
           inkscape:connector-curvature="0"
           d="m 22.484,12.06 c 1.09,0.348 0.137,1.961 1.691,2.754 1.777,0.902 2.664,-1.379 3.73,0.25 1.066,1.629 -1.473,1.379 -1.402,3.297 0.07,1.914 2.586,1.508 1.645,3.203 -0.941,1.691 -1.992,-0.531 -3.699,0.484 -1.707,1.012 -0.074,2.887 -2.086,2.949 -2.02,0.066 -0.52,-1.906 -2.297,-2.809 -1.781,-0.902 -2.664,1.379 -3.73,-0.25 -1.066,-1.629 1.473,-1.379 1.402,-3.297 -0.07,-1.918 -2.586,-1.508 -1.645,-3.203 0.941,-1.691 1.992,0.527 3.699,-0.484 1.707,-1.016 0.074,-2.887 2.086,-2.953 0.254,-0.008 0.449,0.008 0.605,0.059 m -0.02,4.883 c -0.898,-0.184 -1.777,0.363 -1.977,1.23 -0.188,0.855 0.391,1.707 1.277,1.887 0.898,0.184 1.777,-0.363 1.969,-1.23 0.191,-0.852 -0.383,-1.707 -1.27,-1.887 m 0,0"
           style="fill:#ffffff;fill-opacity:1;fill-rule:nonzero;stroke:none"
           id="path57" />
        <path
           inkscape:connector-curvature="0"
           d="m 19.605,23.05 c 1.086,0.348 0.133,1.965 1.691,2.754 1.777,0.906 2.664,-1.379 3.73,0.254 1.066,1.629 -1.477,1.375 -1.402,3.293 0.07,1.918 2.586,1.512 1.641,3.203 -0.941,1.695 -1.988,-0.527 -3.699,0.484 -1.707,1.016 -0.074,2.891 -2.086,2.953 -2.01,0.063 -0.516,-1.906 -2.297,-2.809 -1.777,-0.906 -2.664,1.379 -3.73,-0.254 -1.066,-1.629 1.477,-1.375 1.402,-3.293 -0.07,-1.918 -2.586,-1.52 -1.641,-3.203 0.941,-1.695 1.988,0.527 3.699,-0.484 1.707,-1.016 0.074,-2.891 2.086,-2.953 0.25,-0.008 0.449,0.008 0.605,0.055 m -0.023,4.883 c -0.895,-0.184 -1.777,0.367 -1.969,1.227 -0.191,0.863 0.383,1.707 1.281,1.891 0.895,0.184 1.777,-0.367 1.969,-1.227 0.191,-0.863 -0.383,-1.707 -1.281,-1.891 m 0,0"
           style="fill:#ffffff;fill-opacity:1;fill-rule:nonzero;stroke:none"
           id="path59" />
      </g>
    </g>
  </g>
  <path
     style="fill:#ffffff;fill-rule:evenodd;stroke:#000000;stroke-width:4.90399981;stroke-opacity:0.31000001"
     inkscape:connector-curvature="0"
     d="m 253.04,7.859 c -135.42,0 -245.19,109.78 -245.19,245.19 0,135.42 109.78,245.19 245.19,245.19 135.42,0 245.19,-109.78 245.19,-245.19 0,-135.42 -109.78,-245.19 -245.19,-245.19 z m 0,26.297 c 120.9,0 218.9,98 218.9,218.9 0,120.9 -98,218.9 -218.9,218.9 -120.9,0 -218.93,-98 -218.93,-218.9 0,-120.9 98.03,-218.9 218.93,-218.9 z"
     id="path36" />
</svg>
