<?xml version="1.0" encoding="UTF-8" standalone="no"?>
<svg xmlns:dc="http://purl.org/dc/elements/1.1/" xmlns:cc="http://creativecommons.org/ns#" xmlns:rdf="http://www.w3.org/1999/02/22-rdf-syntax-ns#" xmlns:svg="http://www.w3.org/2000/svg" xmlns="http://www.w3.org/2000/svg" xmlns:sodipodi="http://sodipodi.sourceforge.net/DTD/sodipodi-0.dtd" xmlns:inkscape="http://www.inkscape.org/namespaces/inkscape" height="512" viewBox="0 0 512 512" width="512" version="1.1" id="svg2" inkscape:version="0.91 r" sodipodi:docname="paypal.svg">
<defs id="defs17" />
<sodipodi:namedview pagecolor="#ffffff" bordercolor="#666666" borderopacity="1" objecttolerance="10" gridtolerance="10" guidetolerance="10" inkscape:pageopacity="0" inkscape:pageshadow="2" inkscape:window-width="1680" inkscape:window-height="994" id="namedview15" showgrid="false" inkscape:zoom="1.3037281" inkscape:cx="172.48005" inkscape:cy="244.919" inkscape:window-x="0" inkscape:window-y="0" inkscape:window-maximized="1" inkscape:current-layer="svg2" />
<metadata id="metadata28">
<rdf:RDF>
<cc:Work rdf:about="">
<dc:format>image/svg+xml</dc:format>
<dc:type rdf:resource="http://purl.org/dc/dcmitype/StillImage" />
<dc:title></dc:title>
</cc:Work>
</rdf:RDF>
</metadata>
<path style="fill:#BF9E73;fill-rule:evenodd;fill-opacity:1" inkscape:connector-curvature="0" d="m 471.95,253.05 c 0,120.9 -98.01,218.9 -218.9,218.9 -120.9,0 -218.9,-98.01 -218.9,-218.9 0,-120.9 98.01,-218.9 218.9,-218.9 120.9,0 218.9,98.01 218.9,218.9" id="path6" />
<path style="fill-opacity:0.06700003;fill-rule:evenodd" inkscape:connector-curvature="0" d="M 256,1 C 115.17,1 1,115.17 1,256 1,396.83 115.17,511 256,511 396.83,511 511,396.83 511,256 511,115.17 396.83,1 256,1 m 8.827,44.931 c 120.9,0 218.9,98 218.9,218.9 0,120.9 -98,218.9 -218.9,218.9 -120.9,0 -218.93,-98 -218.93,-218.9 0,-120.9 98.03,-218.9 218.93,-218.9" id="path8" />
<g style="fill-opacity:0.12900002;fill-rule:evenodd" id="g10">
<path inkscape:connector-curvature="0" d="m 256,4.433 c -138.94,0 -251.57,112.63 -251.57,251.57 0,138.94 112.63,251.57 251.57,251.57 138.94,0 251.57,-112.63 251.57,-251.57 C 507.57,117.063 394.94,4.433 256,4.433 m 5.885,38.556 c 120.9,0 218.9,98 218.9,218.9 0,120.9 -98,218.9 -218.9,218.9 -120.9,0 -218.93,-98 -218.93,-218.9 0,-120.9 98.03,-218.9 218.93,-218.9" id="path12" />
<path inkscape:connector-curvature="0" d="m 256,8.356 c -136.77,0 -247.64,110.87 -247.64,247.64 0,136.77 110.87,247.64 247.64,247.64 136.77,0 247.64,-110.87 247.64,-247.64 C 503.64,119.226 392.77,8.356 256,8.356 m 2.942,31.691 c 120.9,0 218.9,98 218.9,218.9 0,120.9 -98,218.9 -218.9,218.9 -120.9,0 -218.93,-98 -218.93,-218.9 0,-120.9 98.03,-218.9 218.93,-218.9" id="path14" />
</g>
<path inkscape:connector-curvature="0" style="opacity:0.25" id="path4046" d="m 181.55444,115.88114 c -7.529,0 -15.07,5.902 -16.766,13.14 l -49.29,211.07 c -0.962,4.053 0.091,7.682 2.51,10.1 l 120.14,120.14 c 5.262,0.379 10.575,0.58 15.934,0.58 115.5,0 210.1,-89.46 218.32,-202.86 l -89.23,-89.23 c -2.978,-2.978 -6.355,-5.639 -10.127,-7.957 -0.908,-0.551 -1.617,-0.727 -2.535,-1.246 0.862,1.626 1.637,3.328 2.33,5.104 l -36.66,-36.66 c -2.973,-2.973 -6.346,-5.626 -10.121,-7.943 -8.599,-5.251 -18.698,-8.883 -30.375,-11.04 -11.728,-2.121 -25.43,-3.197 -41.21,-3.197 l -72.916,0" />
<path style="fill:#ffffff;fill-rule:evenodd;stroke:#000000;stroke-width:4.90399981;stroke-opacity:0.31000001" inkscape:connector-curvature="0" d="m 253.04,7.859 c -135.42,0 -245.19,109.78 -245.19,245.19 0,135.42 109.78,245.19 245.19,245.19 135.42,0 245.19,-109.78 245.19,-245.19 0,-135.42 -109.78,-245.19 -245.19,-245.19 z m 0,26.297 c 120.9,0 218.9,98 218.9,218.9 0,120.9 -98,218.9 -218.9,218.9 -120.9,0 -218.93,-98 -218.93,-218.9 0,-120.9 98.03,-218.9 218.93,-218.9 z" id="path16" />
<path inkscape:connector-curvature="0" style="fill:#ffffff" id="path4048" d="m 181.55444,115.88114 c -7.529,0 -15.07,5.902 -16.767,13.14 l -49.29,211.07 c -1.726,7.27 3.03,13.179 10.528,13.179 l 35.05,0 c 7.529,0 15.02,-5.902 16.689,-13.14 l 12.01,-51.2 c 1.695,-7.207 9.199,-13.1 16.728,-13.1 l 9.982,0 c 42.712,0 75.974,-8.615 99.74,-25.93 23.799,-17.311 35.717,-40.09 35.717,-68.35 0,-12.423 -2.227,-22.812 -6.668,-31.19 -4.431,-8.279 -10.836,-15.09 -19.223,-20.237 -8.599,-5.251 -18.698,-8.883 -30.375,-11.03 -11.728,-2.121 -25.43,-3.197 -41.21,-3.197 l -72.916,0 m 55.49,41.527 11.464,0 c 13.363,0 23.515,2.24 30.3,6.707 6.812,4.435 10.177,11.293 10.177,20.549 0,14.02 -5.255,24.845 -15.792,32.442 -10.527,7.565 -25.16,11.425 -44.06,11.425 l -8.695,0 c -7.529,0 -12.31,-5.973 -10.645,-13.179 l 10.528,-44.841 c 1.706,-7.203 9.229,-13.1 16.728,-13.1 m 133.47,12.205 c 4.441,8.377 6.629,18.733 6.629,31.15 0,28.27 -11.91,51.04 -35.678,68.35 -23.799,17.312 -57.03,25.969 -99.74,25.969 l -10.02,0 c -7.499,0 -14.993,5.899 -16.689,13.1 l -12.01,51.16 c -1.665,7.207 -9.19,13.179 -16.689,13.179 l -21.914,0 -1.95,8.344 c -1.696,7.239 3.077,13.14 10.606,13.14 l 35.02,0 c 7.529,0 15.06,-5.933 16.728,-13.14 l 12.01,-51.16 c 1.696,-7.203 9.198,-13.14 16.728,-13.14 l 10.02,0 c 42.682,0 75.935,-8.619 99.7,-25.93 23.799,-17.312 35.678,-40.12 35.678,-68.35 0,-12.423 -2.198,-22.773 -6.629,-31.15 -4.441,-8.279 -10.875,-15.12 -19.262,-20.276 -0.908,-0.551 -1.616,-0.728 -2.534,-1.248" />
</svg>
