<?xml version="1.0" encoding="UTF-8" standalone="no"?>
<svg xmlns="http://www.w3.org/2000/svg" height="512" viewBox="0 0 512 512" width="512" version="1.1">
 <metadata id="metadata92"/>
 <g id="g4" fill-rule="evenodd">
  <path id="path6" fill="#BF9E73" d="m471.95 253.05c0 120.9-98.01 218.9-218.9 218.9-120.9 0-218.9-98.01-218.9-218.9 0-120.9 98.01-218.9 218.9-218.9 120.9 0 218.9 98.01 218.9 218.9"/>
  <path id="path8" fill-opacity="0.067" d="m256 1c-140.83 0-255 114.17-255 255s114.17 255 255 255 255-114.17 255-255-114.17-255-255-255m8.827 44.931c120.9 0 218.9 98 218.9 218.9s-98 218.9-218.9 218.9-218.93-98-218.93-218.9 98.03-218.9 218.93-218.9"/>
  <path id="path10" d="m562.86-316.57a360 360 0 1 1 -720 0 360 360 0 1 1 720 0" fill="#BF9E73" transform="matrix(.65 0 0 .65 124.14 461.77)"/>
 </g>
 <g id="g12" fill="#BF9E73">
  <path id="path14" d="m421.47 90.53-330.93 330.93c42.35 42.35 100.85 68.53 165.47 68.53 129.23 0 234-104.76 234-234 0-64.62-26.19-123.12-68.53-165.47"/>
  <g id="g16" fill-rule="evenodd">
   <path id="path18" d="m180.84 290.36c-19.418 0.784-35.02 16.704-35.22 36.36-0.209 20.287 16.07 36.871 36.36 37.08 20.287 0.209 36.906-16.04 37.12-36.32 0.209-20.287-16.07-36.906-36.36-37.12-0.634-0.007-1.271-0.025-1.897 0m1.656 23.15c7.49 0.077 13.495 6.238 13.418 13.728s-6.203 13.495-13.694 13.418c-7.49-0.077-13.495-6.203-13.418-13.694 0.077-7.49 6.203-13.53 13.694-13.453"/>
   <path id="path20" d="m327.57 146.62c-19.418 0.784-35.02 16.704-35.22 36.36-0.209 20.287 16.07 36.871 36.36 37.08 20.287 0.209 36.906-16.04 37.12-36.32 0.209-20.287-16.07-36.906-36.36-37.12-0.634-0.007-1.271-0.025-1.897 0m1.656 23.15c7.49 0.077 13.495 6.238 13.418 13.728s-6.204 13.495-13.694 13.418-13.495-6.238-13.418-13.728 6.204-13.495 13.694-13.418"/>
   <path id="path22" d="m256.55 203.5c-28.401-0.293-51.689 22.511-51.982 50.913-0.293 28.401 22.511 51.655 50.913 51.947 28.401 0.293 51.655-22.511 51.947-50.913 0.293-28.401-22.477-51.655-50.878-51.947m-0.241 23.732c15.293 0.158 27.546 12.681 27.388 27.974s-12.681 27.58-27.974 27.422-27.546-12.681-27.388-27.974 12.681-27.58 27.974-27.422"/>
  </g>
 </g>
 <g id="g24" fill-rule="evenodd">
  <path id="path26" fill-opacity="0.235" d="m386.34 125.66c-117.05 1.924-226.21 89.74-252.81 203.81-4.642 18.603-7.294 37.71-7.875 56.875 36.13 36.13 69.43 69.17 102.53 102 9.119 1.08 18.403 1.656 27.813 1.656 129.23 0 234-104.77 234-234 0-8.12-0.412-16.16-1.219-24.06-35.17-35.37-68.68-69.781-102.44-106.28"/>
  <g id="g28" fill-opacity="0.129">
   <path id="path30" d="m256 4.433c-138.94 0-251.57 112.63-251.57 251.57s112.63 251.57 251.57 251.57 251.57-112.63 251.57-251.57-112.63-251.57-251.57-251.57m5.885 38.556c120.9 0 218.9 98 218.9 218.9s-98 218.9-218.9 218.9-218.93-98-218.93-218.9 98.03-218.9 218.93-218.9"/>
   <path id="path32" d="m256 8.356c-136.77 0-247.64 110.87-247.64 247.64s110.87 247.64 247.64 247.64 247.64-110.87 247.64-247.64-110.87-247.64-247.64-247.64m2.942 31.691c120.9 0 218.9 98 218.9 218.9s-98 218.9-218.9 218.9-218.93-98-218.93-218.9 98.03-218.9 218.93-218.9"/>
  </g>
  <path id="path34" d="m253.04 7.859c-135.42 0-245.19 109.78-245.19 245.19 0 135.42 109.78 245.19 245.19 245.19 135.42 0 245.19-109.78 245.19-245.19 0-135.42-109.78-245.19-245.19-245.19zm0 26.297c120.9 0 218.9 98 218.9 218.9s-98 218.9-218.9 218.9-218.93-98-218.93-218.9 98.03-218.9 218.93-218.9z" stroke-opacity="0.31" stroke="#000" stroke-width="4.904" fill="#fff"/>
 </g>
 <g id="g82" fill-rule="evenodd" fill="#fff">
  <path id="path84" d="m386.35 125.65c-141.76 4.727-256.29 118.62-260.7 260.7 141.76-4.727 256.29-118.62 260.7-260.7m-58.777 20.972c0.626-0.025 1.263-0.007 1.897 0 20.287 0.209 36.566 16.828 36.36 37.12-0.209 20.287-16.828 36.531-37.12 36.32-20.287-0.209-36.566-16.794-36.36-37.08 0.203-19.653 15.8-35.573 35.22-36.36m-71.02 56.88c28.401 0.293 51.17 23.546 50.878 51.947-0.293 28.401-23.546 51.21-51.947 50.913-28.401-0.293-51.21-23.546-50.913-51.947 0.293-28.401 23.581-51.21 51.982-50.913m-75.71 86.86c0.626-0.025 1.263-0.007 1.897 0 20.287 0.209 36.566 16.828 36.36 37.12-0.209 20.287-16.828 36.531-37.12 36.32-20.287-0.209-36.566-16.794-36.36-37.08 0.203-19.653 15.8-35.573 35.22-36.36"/>
  <path id="path86" d="m329.22 169.78c-7.49-0.077-13.61 5.916-13.688 13.406-0.077 7.49 5.916 13.641 13.406 13.719 7.49 0.077 13.641-5.947 13.719-13.438 0.077-7.49-5.947-13.61-13.438-13.688m-74.34 57.47c-14.639 0.591-26.41 12.591-26.563 27.406-0.158 15.293 12.11 27.811 27.406 27.969 15.293 0.158 27.811-12.11 27.969-27.406 0.158-15.293-12.11-27.811-27.406-27.969-0.478-0.005-0.934-0.019-1.406 0m-72.37 86.25c-7.49-0.077-13.641 5.947-13.719 13.438-0.077 7.49 5.947 13.61 13.438 13.688 7.49 0.077 13.61-5.916 13.688-13.406 0.077-7.49-5.916-13.641-13.406-13.719"/>
 </g>
</svg>
