<?xml version="1.0" encoding="UTF-8" standalone="no"?>
<svg
   xmlns:dc="http://purl.org/dc/elements/1.1/"
   xmlns:cc="http://creativecommons.org/ns#"
   xmlns:rdf="http://www.w3.org/1999/02/22-rdf-syntax-ns#"
   xmlns:svg="http://www.w3.org/2000/svg"
   xmlns="http://www.w3.org/2000/svg"
   xmlns:sodipodi="http://sodipodi.sourceforge.net/DTD/sodipodi-0.dtd"
   xmlns:inkscape="http://www.inkscape.org/namespaces/inkscape"
   height="512"
   viewBox="0 0 512 512"
   width="512"
   version="1.1"
   id="svg2"
   inkscape:version="0.91 r13725"
   sodipodi:docname="peek.svg">
  <defs
     id="defs17" />
  <sodipodi:namedview
     pagecolor="#ffffff"
     bordercolor="#666666"
     borderopacity="1"
     objecttolerance="10"
     gridtolerance="10"
     guidetolerance="10"
     inkscape:pageopacity="0"
     inkscape:pageshadow="2"
     inkscape:window-width="1680"
     inkscape:window-height="992"
     id="namedview15"
     showgrid="false"
     inkscape:zoom="1.2867932"
     inkscape:cx="181.85974"
     inkscape:cy="223.69573"
     inkscape:window-x="0"
     inkscape:window-y="0"
     inkscape:window-maximized="1"
     inkscape:current-layer="svg2" />
  <metadata
     id="metadata28">
    <rdf:RDF>
      <cc:Work
         rdf:about="">
        <dc:format>image/svg+xml</dc:format>
        <dc:type
           rdf:resource="http://purl.org/dc/dcmitype/StillImage" />
        <dc:title></dc:title>
      </cc:Work>
    </rdf:RDF>
  </metadata>
  <path
     style="fill:#BF9E73;fill-rule:evenodd;fill-opacity:1"
     inkscape:connector-curvature="0"
     d="m 471.95,253.05 c 0,120.9 -98.01,218.9 -218.9,218.9 -120.9,0 -218.9,-98.01 -218.9,-218.9 0,-120.9 98.01,-218.9 218.9,-218.9 120.9,0 218.9,98.01 218.9,218.9"
     id="path6" />
  <path
     inkscape:connector-curvature="0"
     style="opacity:0.25"
     id="path4190"
     d="m 331.95631,107.91535 40.63532,42.0847 -113.3436,-59.361975 -79.81916,133.437645 44.09143,8.89036 -107.76992,-61.67321 -17.19631,134.35581 135.01094,58.90946 -65.15908,32.71217 136.21743,68.6175 c 92.56721,-29.70432 155.96637,-92.89787 169.53,-213.31 l -4.69713,-58.46676"
     sodipodi:nodetypes="cccccccccccc" />
  <path
     style="fill-opacity:0.06700003;fill-rule:evenodd"
     inkscape:connector-curvature="0"
     d="M 256,1 C 115.17,1 1,115.17 1,256 1,396.83 115.17,511 256,511 396.83,511 511,396.83 511,256 511,115.17 396.83,1 256,1 m 8.827,44.931 c 120.9,0 218.9,98 218.9,218.9 0,120.9 -98,218.9 -218.9,218.9 -120.9,0 -218.93,-98 -218.93,-218.9 0,-120.9 98.03,-218.9 218.93,-218.9"
     id="path8" />
  <g
     style="fill-opacity:0.12900002;fill-rule:evenodd"
     id="g10">
    <path
       inkscape:connector-curvature="0"
       d="m 256,4.433 c -138.94,0 -251.57,112.63 -251.57,251.57 0,138.94 112.63,251.57 251.57,251.57 138.94,0 251.57,-112.63 251.57,-251.57 C 507.57,117.063 394.94,4.433 256,4.433 m 5.885,38.556 c 120.9,0 218.9,98 218.9,218.9 0,120.9 -98,218.9 -218.9,218.9 -120.9,0 -218.93,-98 -218.93,-218.9 0,-120.9 98.03,-218.9 218.93,-218.9"
       id="path12" />
    <path
       inkscape:connector-curvature="0"
       d="m 256,8.356 c -136.77,0 -247.64,110.87 -247.64,247.64 0,136.77 110.87,247.64 247.64,247.64 136.77,0 247.64,-110.87 247.64,-247.64 C 503.64,119.226 392.77,8.356 256,8.356 m 2.942,31.691 c 120.9,0 218.9,98 218.9,218.9 0,120.9 -98,218.9 -218.9,218.9 -120.9,0 -218.93,-98 -218.93,-218.9 0,-120.9 98.03,-218.9 218.93,-218.9"
       id="path14" />
  </g>
  <path
     style="fill:#ffffff;fill-rule:evenodd;stroke:#000000;stroke-width:4.90399981;stroke-opacity:0.31000001"
     inkscape:connector-curvature="0"
     d="m 253.04,7.859 c -135.42,0 -245.19,109.78 -245.19,245.19 0,135.42 109.78,245.19 245.19,245.19 135.42,0 245.19,-109.78 245.19,-245.19 0,-135.42 -109.78,-245.19 -245.19,-245.19 z m 0,26.297 c 120.9,0 218.9,98 218.9,218.9 0,120.9 -98,218.9 -218.9,218.9 -120.9,0 -218.93,-98 -218.93,-218.9 0,-120.9 98.03,-218.9 218.93,-218.9 z"
     id="path16" />
  <g
     transform="matrix(0.34780321,0,0,0.34780321,90.120128,90.120128)"
     id="g3"
     style="fill:#ffffff">
    <path
       inkscape:connector-curvature="0"
       d="m 30.819,625.771 257.196,0 c 7.512,0 12.206,-8.133 8.449,-14.639 l -215.5,-373.1 C 77.202,231.518 67.822,231.548 64.049,238.056 23.321,308.3 0,389.894 0,476.937 c 0,49.441 7.529,97.121 21.493,141.965 1.271,4.083 5.049,6.869 9.326,6.869 z"
       id="path5"
       style="fill:#ffffff" />
    <path
       inkscape:connector-curvature="0"
       d="m 477.104,0.001 c -0.056,0 -0.113,0 -0.169,0 -138.499,0 -263.205,59.041 -350.335,153.32 -2.906,3.144 -3.433,7.812 -1.292,11.521 L 253.785,387.37 c 3.757,6.509 13.151,6.504 16.904,-0.007 L 485.5,14.63 C 489.232,8.149 484.586,0.003 477.104,0.001 Z"
       id="path7"
       style="fill:#ffffff" />
    <path
       inkscape:connector-curvature="0"
       d="m 923.156,328.436 -257.105,0 c -7.512,0 -12.207,8.134 -8.449,14.638 l 215.336,372.71 c 3.764,6.514 13.145,6.482 16.916,-0.025 40.707,-70.232 64.018,-151.805 64.018,-238.822 0,-49.317 -7.49,-96.881 -21.387,-141.626 -1.268,-4.087 -5.049,-6.875 -9.329,-6.875 z"
       id="path9"
       style="fill:#ffffff" />
    <path
       inkscape:connector-curvature="0"
       d="M 890.273,238.841 C 824.666,125.191 713.533,41.129 581.794,11.573 c -4.178,-0.937 -8.482,0.933 -10.623,4.64 L 442.598,238.908 c -3.756,6.506 0.939,14.638 8.453,14.636 l 430.75,-0.104 c 7.488,-0.002 12.217,-8.112 8.472,-14.599 z"
       id="path11"
       style="fill:#ffffff" />
    <path
       inkscape:connector-curvature="0"
       d="M 502.268,700.341 72.25,700.755 c -7.49,0.006 -12.212,8.121 -8.462,14.604 65.551,113.346 176.403,197.205 307.803,226.83 4.179,0.943 8.49,-0.928 10.632,-4.637 L 510.726,714.976 c 3.758,-6.508 -0.943,-14.643 -8.458,-14.635 z"
       id="path13"
       style="fill:#ffffff" />
    <path
       inkscape:connector-curvature="0"
       d="m 700.109,566.425 c -3.754,-6.504 -13.141,-6.504 -16.898,-0.002 L 467.861,939.23 c -3.744,6.482 0.902,14.631 8.387,14.641 0.229,0 0.459,0 0.688,0 138.522,0 263.245,-59.059 350.377,-153.365 2.906,-3.145 3.432,-7.812 1.293,-11.52 L 700.109,566.425 Z"
       id="path15"
       style="fill:#ffffff" />
  </g>
  <path
     style="font-style:normal;font-weight:normal;font-size:223.18508911px;line-height:125%;font-family:sans-serif;letter-spacing:0px;word-spacing:0px;fill:#ffffff;fill-opacity:1;stroke:none;stroke-width:1px;stroke-linecap:butt;stroke-linejoin:miter;stroke-opacity:1"
     d="m 268.13207,198.05293 c -16.77344,0.41412 -33.55214,0.004 -50.3278,0.15611 -10.31326,52.90328 -20.62292,105.80728 -30.93569,158.71066 13.20209,0 26.40418,0 39.60626,0 3.60528,-18.50497 7.21321,-37.00942 10.81952,-55.51419 21.28066,0.56265 45.06866,-0.10059 62.18144,-14.54535 21.09086,-17.75065 26.14541,-52.95325 8.33227,-74.64968 -9.99994,-10.78926 -25.42481,-14.48267 -39.676,-14.15755 z m 1.10603,35.84807 c 8.42374,0.25835 11.35386,11.29802 8.44636,18.01039 -2.42743,9.82526 -13.25945,14.61212 -22.47105,13.69421 -3.62711,0.11205 -7.25514,-0.027 -10.88097,-0.11957 2.02275,-10.50897 4.04549,-21.01794 6.06823,-31.5269 6.27921,0.003 12.55857,0.0236 18.83743,-0.0582 z"
     id="text4183"
     inkscape:connector-curvature="0" />
</svg>
