<?xml version="1.0" encoding="UTF-8" standalone="no"?>
<svg
   xmlns:dc="http://purl.org/dc/elements/1.1/"
   xmlns:cc="http://creativecommons.org/ns#"
   xmlns:rdf="http://www.w3.org/1999/02/22-rdf-syntax-ns#"
   xmlns:svg="http://www.w3.org/2000/svg"
   xmlns="http://www.w3.org/2000/svg"
   xmlns:sodipodi="http://sodipodi.sourceforge.net/DTD/sodipodi-0.dtd"
   xmlns:inkscape="http://www.inkscape.org/namespaces/inkscape"
   sodipodi:docname="peppermint.svg"
   inkscape:version="0.91 r13725"
   id="svg2"
   version="1.1"
   width="512"
   viewBox="0 0 512 512"
   height="512">
  <defs
     id="defs17" />
  <sodipodi:namedview
     inkscape:current-layer="svg2"
     inkscape:window-maximized="1"
     inkscape:window-y="0"
     inkscape:window-x="0"
     inkscape:cy="438.01142"
     inkscape:cx="6.6457994"
     inkscape:zoom="0.88455375"
     showgrid="false"
     id="namedview15"
     inkscape:window-height="1022"
     inkscape:window-width="1920"
     inkscape:pageshadow="2"
     inkscape:pageopacity="0"
     guidetolerance="10"
     gridtolerance="10"
     objecttolerance="10"
     borderopacity="1"
     bordercolor="#666666"
     pagecolor="#ffffff" />
  <metadata
     id="metadata28">
    <rdf:RDF>
      <cc:Work
         rdf:about="">
        <dc:format>image/svg+xml</dc:format>
        <dc:type
           rdf:resource="http://purl.org/dc/dcmitype/StillImage" />
        <dc:title></dc:title>
      </cc:Work>
    </rdf:RDF>
  </metadata>
  <path
     style="fill:#BF9E73;fill-rule:evenodd;fill-opacity:1"
     inkscape:connector-curvature="0"
     d="m 471.95,253.05 c 0,120.9 -98.01,218.9 -218.9,218.9 -120.9,0 -218.9,-98.01 -218.9,-218.9 0,-120.9 98.01,-218.9 218.9,-218.9 120.9,0 218.9,98.01 218.9,218.9"
     id="path6" />
  <path
     style="fill-opacity:0.06700003;fill-rule:evenodd"
     inkscape:connector-curvature="0"
     d="M 256,1 C 115.17,1 1,115.17 1,256 1,396.83 115.17,511 256,511 396.83,511 511,396.83 511,256 511,115.17 396.83,1 256,1 m 8.827,44.931 c 120.9,0 218.9,98 218.9,218.9 0,120.9 -98,218.9 -218.9,218.9 -120.9,0 -218.93,-98 -218.93,-218.9 0,-120.9 98.03,-218.9 218.93,-218.9"
     id="path8" />
  <g
     style="fill-opacity:0.12900002;fill-rule:evenodd"
     id="g10">
    <path
       inkscape:connector-curvature="0"
       d="m 256,4.433 c -138.94,0 -251.57,112.63 -251.57,251.57 0,138.94 112.63,251.57 251.57,251.57 138.94,0 251.57,-112.63 251.57,-251.57 C 507.57,117.063 394.94,4.433 256,4.433 m 5.885,38.556 c 120.9,0 218.9,98 218.9,218.9 0,120.9 -98,218.9 -218.9,218.9 -120.9,0 -218.93,-98 -218.93,-218.9 0,-120.9 98.03,-218.9 218.93,-218.9"
       id="path12" />
    <path
       inkscape:connector-curvature="0"
       d="m 256,8.356 c -136.77,0 -247.64,110.87 -247.64,247.64 0,136.77 110.87,247.64 247.64,247.64 136.77,0 247.64,-110.87 247.64,-247.64 C 503.64,119.226 392.77,8.356 256,8.356 m 2.942,31.691 c 120.9,0 218.9,98 218.9,218.9 0,120.9 -98,218.9 -218.9,218.9 -120.9,0 -218.93,-98 -218.93,-218.9 0,-120.9 98.03,-218.9 218.93,-218.9"
       id="path14" />
  </g>
  <path
     inkscape:connector-curvature="0"
     style="opacity:0.25"
     id="path4190"
     d="M 380.04201,146.54541 C 351.32002,127.21944 322.64085,107.74193 290.82857,99.354934 l -20.95779,-9.354625 c 19.57332,-3.479352 -24.11579,2.063848 -51.04142,4.206709 l -16.94952,8.311812 -30.35958,9.75005 -7.28267,37.63542 C 93.86077,102.86115 55.568393,322.90758 154.66217,384.5271 l 133.70009,87.44203 c 39.92614,-10.56422 77.68662,-28.70828 113.34936,-54.19443 69.29979,-27.42522 94.62049,-261.4881 74.93719,-161.21534"
     sodipodi:nodetypes="ccccccccccc" />
  <path
     style="fill:#ffffff;fill-rule:evenodd;stroke:#000000;stroke-width:4.90399981;stroke-opacity:0.31000001"
     inkscape:connector-curvature="0"
     d="m 253.04,7.859 c -135.42,0 -245.19,109.78 -245.19,245.19 0,135.42 109.78,245.19 245.19,245.19 135.42,0 245.19,-109.78 245.19,-245.19 0,-135.42 -109.78,-245.19 -245.19,-245.19 z m 0,26.297 c 120.9,0 218.9,98 218.9,218.9 0,120.9 -98,218.9 -218.9,218.9 -120.9,0 -218.93,-98 -218.93,-218.9 0,-120.9 98.03,-218.9 218.93,-218.9 z"
     id="path16" />
  <path
     style="fill:#ffffff"
     d="M 213.7679,413.38078 C 168.86356,401.53385 125.19008,367.08547 106.00468,328.38022 60.390183,236.356 104.4282,128.42314 201.14118,95.210121 c 26.64916,-9.151817 75.07311,-9.76865 100.01013,-1.273959 39.26053,13.373908 70.41524,36.951458 90.79757,68.714548 41.9435,65.3633 32.72629,152.10339 -21.97559,206.80532 -40.38079,40.38078 -102.94944,57.975 -156.20539,43.92475 z m 88.64821,-13.22723 c 19.15731,-6.59109 34.92824,-14.5161 34.79861,-17.4866 -0.0524,-1.20041 -6.06983,-5.80671 -13.37207,-10.23627 -15.07036,-9.14169 -34.51154,-33.36684 -28.14023,-35.06479 12.18687,-3.24783 11.95784,-4.30282 -2.75864,-12.70779 -21.23643,-12.1286 -31.6644,-27.03727 -18.91146,-27.03727 3.31454,0 6.02644,-0.65046 6.02644,-1.44547 0,-0.79504 -5.41795,-8.59175 -12.03992,-17.32602 -6.62195,-8.7343 -12.04575,-16.94638 -12.05289,-18.24909 -0.006,-1.30271 5.07186,1.11206 11.28663,5.36609 6.21476,4.25407 18.75729,9.92487 27.87229,12.60178 15.02305,4.41199 15.93876,5.15077 9.79297,7.90055 -3.72886,1.66839 -6.77975,4.06121 -6.77975,5.3174 0,4.70147 27.46756,15.34582 44.00361,17.05251 15.61427,1.61153 16.63985,2.15054 11.43369,6.00887 -5.60046,4.1506 -5.60127,4.32594 -0.0392,8.44847 3.12398,2.31545 11.81911,5.13052 19.32248,6.25572 16.29569,2.44369 18.58199,0.19435 27.54299,-27.09802 5.784,-17.6161 11.74855,-59.07076 8.49918,-59.07076 -0.85723,0 -8.95117,3.38442 -17.98649,7.52094 -16.27975,7.45311 -44.56476,13.33245 -44.56476,9.26324 0,-1.16283 1.40365,-4.73703 3.11923,-7.94261 3.95922,-7.39782 3.43049,-7.33918 -14.14072,1.56826 -16.80365,8.51838 -37.19005,13.00383 -37.19005,8.18267 0,-1.74389 1.35595,-4.00875 3.01322,-5.03301 7.67516,-4.7435 1.21949,-6.62712 -18.83263,-5.49493 -21.16525,1.19501 -21.54595,1.09533 -12.21924,-3.20014 5.29462,-2.43848 15.61587,-9.95432 22.93613,-16.7019 15.05583,-13.87798 17.25078,-14.79042 15.01527,-6.24185 -3.94603,15.08967 24.77253,-2.32398 39.8054,-24.13618 8.86255,-12.85925 9.05835,-12.95793 9.99311,-5.03629 0.52439,4.44396 2.1041,8.07992 3.51046,8.07992 3.10865,0 27.17492,-26.96332 27.17492,-30.44619 0,-7.40709 -56.59553,-59.95043 -64.57387,-59.95043 -0.94435,0 -1.72456,4.40682 -1.73381,9.79296 -0.021,11.48579 -4.72061,29.91053 -11.13298,43.63485 l -4.549,9.7361 -5.60986,-6.72288 c -5.59923,-6.71018 -5.61002,-6.68957 -5.71009,10.90104 -0.0555,9.72933 -2.2666,22.18922 -4.93644,27.81544 l -4.83616,10.1915 -5.45591,-6.72289 -5.4559,-6.72289 -2.18838,9.03966 c -2.36718,9.77827 -12.64745,31.63883 -14.87862,31.63883 -0.75355,0 -0.59249,-3.88787 0.35788,-8.63972 1.51351,-7.56756 -2.59613,-35.28597 -7.19588,-48.53414 -1.29327,-3.72488 -0.82589,-3.8825 2.46322,-0.83065 2.23265,2.07159 6.01042,3.76653 8.39505,3.76653 6.39234,0 2.86335,-31.73769 -5.31053,-47.75983 l -6.46453,-12.67153 8.0531,2.02121 c 7.89416,1.98131 8.01146,1.79925 5.94337,-9.22462 -2.75089,-14.66344 -7.59392,-25.065684 -12.55661,-26.970035 -7.80337,-2.994419 -42.24698,4.666725 -62.24995,13.846055 -11.18659,5.13347 -20.28973,10.14982 -20.22923,11.14744 0.0606,0.99762 6.29194,5.73343 13.84764,10.52403 7.55569,4.79063 17.78726,14.28228 22.73687,21.09255 l 8.99926,12.38235 -7.78077,0.95345 c -10.45907,1.28163 -9.80677,5.00929 1.71145,9.7803 9.9931,4.13926 29.67962,22.06959 29.67962,27.03195 0,1.60203 -2.7119,2.91278 -6.02644,2.91278 -7.82856,0 -7.60314,1.77608 1.61602,12.73243 4.20335,4.9954 9.71984,13.09971 12.25881,18.00957 l 4.61631,8.92697 -11.5055,-7.87457 c -6.328,-4.33103 -18.9632,-10.06476 -28.07819,-12.74168 -15.02304,-4.41199 -15.93877,-5.15073 -9.79297,-7.90054 3.72886,-1.66839 6.77975,-4.06122 6.77975,-5.3174 0,-4.70147 -27.46756,-15.34583 -44.0036,-17.05251 -14.8692,-1.53464 -16.45156,-2.28315 -11.88526,-5.62207 7.00746,-5.12402 3.84902,-9.38507 -9.75757,-13.16404 -20.82932,-5.78491 -23.23157,-4.69165 -31.83983,14.49003 -7.59591,16.92599 -16.050468,60.98784 -12.732388,66.35656 0.87868,1.42178 8.122668,-0.53771 16.097708,-4.35441 14.33763,-6.86174 45.9094,-13.06008 45.9094,-9.01317 0,1.15107 -1.40365,4.71565 -3.11922,7.92124 -3.95923,7.39782 -3.4305,7.33918 14.14071,-1.56826 16.80365,-8.51838 37.19005,-13.00383 37.19005,-8.18268 0,1.74391 -1.35595,4.00877 -3.01322,5.03302 -1.65727,1.02426 -3.01323,3.15421 -3.01323,4.73326 0,2.60155 8.59962,2.14818 33.89875,-1.78706 10.14338,-1.57778 11.08039,3.23229 1.11682,5.73296 -3.94326,0.98972 -13.97312,7.91645 -22.28859,15.39277 -16.73236,15.04384 -20.08704,16.51567 -17.24681,7.56689 4.89275,-15.4157 -26.08271,3.75149 -39.86708,24.66919 -8.21955,12.47316 -8.35874,12.54114 -9.29789,4.54302 -0.52439,-4.46583 -2.06156,-8.11967 -3.41591,-8.11967 -4.31891,0 -24.25626,23.92625 -24.25626,29.10926 0,8.27307 24.08912,36.83801 41.70194,49.45027 9.09167,6.5104 17.47237,11.83711 18.62375,11.83711 1.15141,0 2.9714,-8.3996 4.04441,-18.66579 1.07303,-10.26616 4.77728,-24.50414 8.23166,-31.63996 l 6.28073,-12.97424 5.65684,6.78092 5.65681,6.78093 0.10034,-17.42281 c 0.0551,-9.58253 2.27065,-22.46405 4.92333,-28.62561 4.6673,-10.8409 4.92551,-10.98379 7.9935,-4.42304 4.5199,9.66541 6.21538,8.59666 11.9508,-7.53305 2.79914,-7.87205 7.12332,-17.0247 9.60931,-20.33924 4.23605,-5.6479 4.41311,-5.34079 2.81899,4.8894 -1.56964,10.07289 1.60837,31.89928 6.7476,46.34207 1.75963,4.94518 1.41739,5.34739 -1.91734,2.2532 -13.71274,-12.72357 -16.69527,14.41932 -4.46987,40.67848 4.05076,8.70068 6.15145,15.81941 4.66823,15.81941 -1.48323,0 -3.53478,-1.35594 -4.55903,-3.01322 -1.02426,-1.65727 -3.13821,-3.01322 -4.69768,-3.01322 -4.77367,0 -3.03331,15.84482 3.26491,29.72513 l 5.968,13.15243 16.81386,-2.10075 c 9.24764,-1.15542 23.93881,-4.55211 32.64707,-7.54818 z"
     id="path4180"
     inkscape:connector-curvature="0" />
</svg>
