<?xml version="1.0" encoding="UTF-8" standalone="no"?>
<svg xmlns:dc="http://purl.org/dc/elements/1.1/" xmlns:cc="http://creativecommons.org/ns#" xmlns:rdf="http://www.w3.org/1999/02/22-rdf-syntax-ns#" xmlns:svg="http://www.w3.org/2000/svg" xmlns="http://www.w3.org/2000/svg" xmlns:sodipodi="http://sodipodi.sourceforge.net/DTD/sodipodi-0.dtd" xmlns:inkscape="http://www.inkscape.org/namespaces/inkscape" height="512" viewBox="0 0 512 512" width="512" version="1.1" id="svg2" inkscape:version="0.91 r" sodipodi:docname="php.svg">
<defs id="defs17" />
<sodipodi:namedview pagecolor="#ffffff" bordercolor="#666666" borderopacity="1" objecttolerance="10" gridtolerance="10" guidetolerance="10" inkscape:pageopacity="0" inkscape:pageshadow="2" inkscape:window-width="1680" inkscape:window-height="994" id="namedview15" showgrid="false" inkscape:zoom="1.3037281" inkscape:cx="172.48005" inkscape:cy="244.919" inkscape:window-x="0" inkscape:window-y="0" inkscape:window-maximized="1" inkscape:current-layer="svg2" />
<metadata id="metadata28">
<rdf:RDF>
<cc:Work rdf:about="">
<dc:format>image/svg+xml</dc:format>
<dc:type rdf:resource="http://purl.org/dc/dcmitype/StillImage" />
<dc:title></dc:title>
</cc:Work>
</rdf:RDF>
</metadata>
<path style="fill:#BF9E73;fill-rule:evenodd;fill-opacity:1" inkscape:connector-curvature="0" d="m 471.95,253.05 c 0,120.9 -98.01,218.9 -218.9,218.9 -120.9,0 -218.9,-98.01 -218.9,-218.9 0,-120.9 98.01,-218.9 218.9,-218.9 120.9,0 218.9,98.01 218.9,218.9" id="path6" />
<path style="fill-opacity:0.06700003;fill-rule:evenodd" inkscape:connector-curvature="0" d="M 256,1 C 115.17,1 1,115.17 1,256 1,396.83 115.17,511 256,511 396.83,511 511,396.83 511,256 511,115.17 396.83,1 256,1 m 8.827,44.931 c 120.9,0 218.9,98 218.9,218.9 0,120.9 -98,218.9 -218.9,218.9 -120.9,0 -218.93,-98 -218.93,-218.9 0,-120.9 98.03,-218.9 218.93,-218.9" id="path8" />
<g style="fill-opacity:0.12900002;fill-rule:evenodd" id="g10">
<path inkscape:connector-curvature="0" d="m 256,4.433 c -138.94,0 -251.57,112.63 -251.57,251.57 0,138.94 112.63,251.57 251.57,251.57 138.94,0 251.57,-112.63 251.57,-251.57 C 507.57,117.063 394.94,4.433 256,4.433 m 5.885,38.556 c 120.9,0 218.9,98 218.9,218.9 0,120.9 -98,218.9 -218.9,218.9 -120.9,0 -218.93,-98 -218.93,-218.9 0,-120.9 98.03,-218.9 218.93,-218.9" id="path12" />
<path inkscape:connector-curvature="0" d="m 256,8.356 c -136.77,0 -247.64,110.87 -247.64,247.64 0,136.77 110.87,247.64 247.64,247.64 136.77,0 247.64,-110.87 247.64,-247.64 C 503.64,119.226 392.77,8.356 256,8.356 m 2.942,31.691 c 120.9,0 218.9,98 218.9,218.9 0,120.9 -98,218.9 -218.9,218.9 -120.9,0 -218.93,-98 -218.93,-218.9 0,-120.9 98.03,-218.9 218.93,-218.9" id="path14" />
</g>
<g transform="translate(10.938188,-29.135828)" style="fill-rule:evenodd" id="g4238">
<path style="opacity:0.25" inkscape:connector-curvature="0" id="path4240" d="m 227.57,174.66 -11.986,58.5 -13.76,-13.76 c -6.602,-6.602 -16.757,-10.425 -30.467,-11.252 l -61.15,0 -26.443,129.18 202.67389,171.22561 c 12.325,2.154 -7.21531,-7.45343 5.72769,-7.45343 114.67,0 166.5533,-125.76452 175.9333,-238.00452 L 419.047,219.413 c -6.97891,-6.215 -16.772,-10.435 -30.488,-11.262 l -61.15,0 -4.652,22.732 -12.977,-12.977 c -3.533,-3.533 -8.682,-6.284 -15.539,-7.986 l -35.26,-35.26 -31.406,0" sodipodi:nodetypes="ccsccccscscccsccc" />
<path style="fill:#ffffff" inkscape:connector-curvature="0" id="path4242" d="m 227.57,174.66 -26.468,129.18 31.406,0 14.884,-71.78 24.807,0 c 11.571,0 11.552,4.78 9.899,12.754 l -11.561,59.02 33.07,0 11.561,-65.39 c 3.306,-15.948 -6.62,-28.712 -33.07,-30.31 l -29.745,0 6.623,-33.489 -31.406,0 m -117.36,33.489 -26.445,129.18 31.406,0 6.6,-33.489 29.745,0 c 28.1,1.595 59.51,-20.745 59.51,-59.02 0,-22.328 -13.22,-35.08 -39.667,-36.672 l -61.15,0 m 217.2,0 -26.445,129.18 31.406,0 6.599,-33.489 29.768,0 c 28.1,1.595 59.51,-20.745 59.51,-59.02 0,-22.328 -13.243,-35.08 -39.691,-36.672 l -61.15,0 m -190.75,23.917 21.484,0 c 11.571,0 19.845,4.776 19.845,14.346 -1.653,27.11 -14.891,31.918 -29.768,33.513 l -19.822,0 8.261,-47.858 m 217.2,0 21.484,0 c 11.571,0 19.845,4.776 19.845,14.346 -1.653,27.11 -14.891,31.918 -29.768,33.513 l -19.822,0 8.261,-47.858" />
</g>
<path style="fill:#ffffff;fill-rule:evenodd;stroke:#000000;stroke-width:4.90399981;stroke-opacity:0.31000001" inkscape:connector-curvature="0" d="m 253.04,7.859 c -135.42,0 -245.19,109.78 -245.19,245.19 0,135.42 109.78,245.19 245.19,245.19 135.42,0 245.19,-109.78 245.19,-245.19 0,-135.42 -109.78,-245.19 -245.19,-245.19 z m 0,26.297 c 120.9,0 218.9,98 218.9,218.9 0,120.9 -98,218.9 -218.9,218.9 -120.9,0 -218.93,-98 -218.93,-218.9 0,-120.9 98.03,-218.9 218.93,-218.9 z" id="path16" />
</svg>
