<?xml version="1.0" encoding="UTF-8" standalone="no"?>
<svg xmlns="http://www.w3.org/2000/svg" height="512" viewBox="0 0 512 512" width="512" version="1.1">
 <metadata id="metadata120"/>
 <path id="path4" d="m471.95 253.05c0 120.9-98.01 218.9-218.9 218.9-120.9 0-218.9-98.01-218.9-218.9 0-120.9 98.01-218.9 218.9-218.9 120.9 0 218.9 98.01 218.9 218.9" fill-rule="evenodd" fill="#BF9E73"/>
 <path id="path6" fill-opacity="0.235" d="m392.63 131.97c-28.591 14.607-50.94 39.22-75.56 59.56-26.44 23.696-52.48 47.826-78.28 72.22 8.22 7.511 14.912 15.14 23.13 22.656 5.831 6.628 13.808 13.423 19.219 19.688 6.801 5.991 11.951 12.149 18.563 18.06 5.216 5.912 11.886 11.578 16.906 17.406 7.05 6.322 12.74 12.767 19.406 19.03 6.405 6.555 12.876 13.03 19.469 19.469 6.376 6.53 12.877 13.03 19.438 19.438 5.993 6.171 12.13 12.269 18.313 18.313 0.6 0.615 1.21 1.23 1.813 1.844 47.07-40.15 76.906-99.88 76.906-166.59 0-17.973-2.165-35.442-6.25-52.16-21.929-21.915-43.874-43.815-65.844-65.69-2.01-2.133-4.474-3.055-7.219-3.25m-159.78 137.19c-14.537 18.656-48.09-1.886-58.813 28-12.14 15.766-26.329 46.987-50.594 30.438-11.928-11.461-26.713-6.976-14.281 8.719 18 22.382 41 40.28 61.34 60.56 26.15 25.22 53.43 49.33 79 75.03 1.181 0.019 2.345 0.063 3.531 0.063 52.14 0 100.03-18.255 137.63-48.688-28.18-27.725-56.15-55.68-83.44-84.31-22.309-21.789-42.546-45.891-66.56-65.781l-2.719-1.656-5.094-2.375"/>
 <g id="g8" fill-rule="evenodd">
  <path id="path10" fill-opacity="0.067" d="m256 1c-140.83 0-255 114.17-255 255s114.17 255 255 255 255-114.17 255-255-114.17-255-255-255m8.827 44.931c120.9 0 218.9 98 218.9 218.9s-98 218.9-218.9 218.9-218.93-98-218.93-218.9 98.03-218.9 218.93-218.9"/>
  <g id="g12" fill-opacity="0.129">
   <path id="path14" d="m256 4.433c-138.94 0-251.57 112.63-251.57 251.57s112.63 251.57 251.57 251.57 251.57-112.63 251.57-251.57-112.63-251.57-251.57-251.57m5.885 38.556c120.9 0 218.9 98 218.9 218.9s-98 218.9-218.9 218.9-218.93-98-218.93-218.9 98.03-218.9 218.93-218.9"/>
   <path id="path16" d="m256 8.356c-136.77 0-247.64 110.87-247.64 247.64s110.87 247.64 247.64 247.64 247.64-110.87 247.64-247.64-110.87-247.64-247.64-247.64m2.942 31.691c120.9 0 218.9 98 218.9 218.9s-98 218.9-218.9 218.9-218.93-98-218.93-218.9 98.03-218.9 218.93-218.9"/>
  </g>
  <path id="path18" d="m253.04 7.859c-135.42 0-245.19 109.78-245.19 245.19 0 135.42 109.78 245.19 245.19 245.19 135.42 0 245.19-109.78 245.19-245.19 0-135.42-109.78-245.19-245.19-245.19zm0 26.297c120.9 0 218.9 98 218.9 218.9s-98 218.9-218.9 218.9-218.93-98-218.93-218.9 98.03-218.9 218.93-218.9z" stroke-opacity="0.31" stroke="#000" stroke-width="4.904" fill="#fff"/>
 </g>
 <text id="text20" font-size="129.23" line-height="125%" y="231.36" x="729.64" font-family="Gentium Book Basic" word-spacing="0" letter-spacing="0"><tspan id="tspan22" y="231.36" x="729.64"/>
 </text>
 <text id="text24" font-size="46.954" transform="scale(4.0128 .2492)" y="579.25" x="378.91" font-family="Arial" text-anchor="middle"/>
 <text id="text26" font-size="129.23" line-height="125%" y="151.36" x="1310.91" font-family="Gentium Book Basic" word-spacing="0" letter-spacing="0"><tspan id="tspan28" y="151.36" x="1310.91"/>
 </text>
 <text id="text30" font-size="46.954" transform="scale(4.0128 .2492)" y="258.22" x="523.76" font-family="Arial" text-anchor="middle"/>
 <text id="text32" font-size="129.23" line-height="125%" y="-29.901" x="239.33" font-family="Gentium Book Basic" word-spacing="0" letter-spacing="0"><tspan id="tspan34" y="-29.901" x="239.33"/>
 </text>
 <text id="text36" font-size="46.954" transform="scale(4.0128 .2492)" y="-469.14" x="256.72" font-family="Arial" text-anchor="middle"/>
 <text id="text38" font-size="129.23" line-height="125%" y="-246.37" x="1337.38" font-family="Gentium Book Basic" word-spacing="0" letter-spacing="0"><tspan id="tspan40" y="-246.37" x="1337.38"/>
 </text>
 <text id="text42" font-size="46.954" transform="scale(4.0128 .2492)" y="-1337.81" x="530.36" font-family="Arial" text-anchor="middle"/>
 <text id="text44" font-size="129.23" line-height="125%" y="-326.38" x="1918.65" font-family="Gentium Book Basic" word-spacing="0" letter-spacing="0"><tspan id="tspan46" y="-326.38" x="1918.65"/>
 </text>
 <text id="text48" font-size="46.954" transform="scale(4.0128 .2492)" y="-1658.85" x="675.21" font-family="Arial" text-anchor="middle"/>
 <text id="text50" font-size="129.23" line-height="125%" y="-798.78" x="1529.53" font-family="Gentium Book Basic" word-spacing="0" letter-spacing="0"><tspan id="tspan52" y="-798.78" x="1529.53"/>
 </text>
 <text id="text54" font-size="46.954" transform="scale(4.0128 .2492)" y="-3554.51" x="578.24" font-family="Arial" text-anchor="middle"/>
 <text id="text56" font-size="129.23" line-height="125%" y="-878.78" x="2110.79" font-family="Gentium Book Basic" word-spacing="0" letter-spacing="0"><tspan id="tspan58" y="-878.78" x="2110.79"/>
 </text>
 <text id="text60" font-size="46.954" transform="scale(4.0128 .2492)" y="-3875.54" x="723.09" font-family="Arial" text-anchor="middle"/>
 <g id="g62" font-family="Gentium Book Basic" font-size="208.33" line-height="125%" word-spacing="0" letter-spacing="0">
  <text id="text64" y="535.94" x="277.99"><tspan id="tspan66" y="535.94" x="277.99"/>
  </text>
  <text id="text68" y="413.27" x="-1771.42"><tspan id="tspan70" y="413.27" x="-1771.42"/>
  </text>
 </g>
 <text id="text72" font-size="75.7" transform="scale(4.0128 .2492)" y="1095.49" x="-123.71" font-family="Arial" text-anchor="middle"/>
 <text id="text74" font-size="208.33" line-height="125%" y="859.18" x="-1213.24" font-family="Gentium Book Basic" word-spacing="0" letter-spacing="0"><tspan id="tspan76" y="859.18" x="-1213.24"/>
 </text>
 <text id="text78" font-size="75.7" transform="scale(4.0128 .2492)" y="2884.85" x="15.386" font-family="Arial" text-anchor="middle"/>
 <g id="g80" line-height="125%" word-spacing="0" letter-spacing="0">
  <text id="text82" y="621.66" x="875.45" font-size="40" font-family="Sans"><tspan id="tspan84" y="621.66" x="875.45" font-weight="bold" font-style="italic"/>
  </text>
  <text id="text86" y="424.14" x="-1886.19" font-size="208.33" font-family="Gentium Book Basic"><tspan id="tspan88" y="424.14" x="-1886.19"/>
  </text>
 </g>
 <text id="text90" font-size="75.7" transform="scale(4.0128 .2492)" y="1139.13" x="-152.31" font-family="Arial" text-anchor="middle"/>
 <text id="text92" font-size="208.33" line-height="125%" y="268.51" x="-1179.85" font-family="Gentium Book Basic" word-spacing="0" letter-spacing="0"><tspan id="tspan94" y="268.51" x="-1179.85"/>
 </text>
 <text id="text96" font-size="75.7" transform="scale(4.0128 .2492)" y="514.61" x="23.707" font-family="Arial" text-anchor="middle"/>
 <text id="text98" font-size="208.33" line-height="125%" y="260.39" x="-1146.48" font-family="Gentium Book Basic" word-spacing="0" letter-spacing="0"><tspan id="tspan100" y="260.39" x="-1146.48"/>
 </text>
 <text id="text102" font-size="75.7" transform="scale(4.0128 .2492)" y="482.01" x="32.02" font-family="Arial" text-anchor="middle"/>
 <text id="text104" font-size="208.33" line-height="125%" y="293.31" x="-1768.19" font-family="Gentium Book Basic" word-spacing="0" letter-spacing="0"><tspan id="tspan106" y="293.31" x="-1768.19"/>
 </text>
 <text id="text108" font-size="75.7" transform="scale(4.0128 .2492)" y="614.13" x="-122.91" font-family="Arial" text-anchor="middle"/>
 <g id="g110" transform="matrix(12.365 0 0 12.365 -42.04 16.392)" fill="#fff">
  <path id="path112" d="m22.23 20.442c-0.075-0.009-0.632 0.439-0.867 0.837-1.266-0.398-2.406-0.145-2.876 0.271-1.538 1.52-2.225 3.22-3.329 3.944-1.556 0.344-2.625-1.224-3.347-0.868 0.161 2.501 4.378 4.251 4.378 4.251 6.133 1.809 7.851-1.592 7.851-1.592 0.868-1.447 0.326-3 0.326-3 0.39-0.052 1.056-0.702 0.937-0.776-0.588-1.174-2.071-2.722-3.073-3.065"/>
  <path id="path114" d="m22.708 20s11.8-11.208 12.51-10.636c0.266-0.148 1.283 0.927 1.154 1.174 0.553 0.72-10.621 12.485-10.621 12.485-1.066-1.49-1.771-2.205-3.044-3.02"/>
 </g>
</svg>
