<?xml version="1.0" encoding="UTF-8" standalone="no"?>
<svg xmlns="http://www.w3.org/2000/svg" xmlns:sodipodi="http://sodipodi.sourceforge.net/DTD/sodipodi-0.dtd" xmlns:inkscape="http://www.inkscape.org/namespaces/inkscape" version="1.1" viewBox="0 0 512 512">
 <metadata id="metadata4584"/>
 <g id="g4514" fill-rule="evenodd">
  <path inkscape:connector-curvature="0" id="path4516" d="m 471.95,253.05 c 0,120.9 -98.01,218.9 -218.9,218.9 -120.9,0 -218.9,-98.01 -218.9,-218.9 0,-120.9 98.01,-218.9 218.9,-218.9 120.9,0 218.9,98.01 218.9,218.9" fill="#BF9E73"/>
  <g id="g4518" transform="translate(0,-540.36)">
   <path inkscape:connector-curvature="0" id="path4520" d="m 256,541.36 c -140.83,0 -255,114.17 -255,255 0,140.83 114.17,255 255,255 140.83,0 255,-114.17 255,-255 0,-140.83 -114.17,-255 -255,-255 m 8.827,44.931 c 120.9,0 218.9,98 218.9,218.9 0,120.9 -98,218.9 -218.9,218.9 -120.9,0 -218.93,-98 -218.93,-218.9 0,-120.9 98.03,-218.9 218.93,-218.9" fill-opacity="0.067"/>
   <g id="g4522" fill-opacity="0.129">
    <path inkscape:connector-curvature="0" id="path4524" d="M 256,544.79 C 117.06,544.79 4.43,657.42 4.43,796.36 4.43,935.3 117.06,1047.93 256,1047.93 394.94,1047.93 507.57,935.3 507.57,796.36 507.57,657.42 394.94,544.79 256,544.79 m 5.885,38.556 c 120.9,0 218.9,98 218.9,218.9 0,120.9 -98,218.9 -218.9,218.9 -120.9,0 -218.93,-98 -218.93,-218.9 0,-120.9 98.03,-218.9 218.93,-218.9"/>
    <path inkscape:connector-curvature="0" id="path4526" d="M 256,548.72 C 119.23,548.72 8.36,659.59 8.36,796.36 8.36,933.13 119.23,1044 256,1044 392.77,1044 503.64,933.13 503.64,796.36 503.64,659.59 392.77,548.72 256,548.72 m 2.942,31.691 c 120.9,0 218.9,98 218.9,218.9 0,120.9 -98,218.9 -218.9,218.9 -120.9,0 -218.93,-98 -218.93,-218.9 0,-120.9 98.03,-218.9 218.93,-218.9"/>
   </g>
   <path inkscape:connector-curvature="0" id="path4528" d="M 253.04,548.22 C 117.62,548.22 7.85,658 7.85,793.41 c 0,135.42 109.78,245.19 245.19,245.19 135.42,0 245.19,-109.78 245.19,-245.19 0,-135.42 -109.78,-245.19 -245.19,-245.19 z m 0,26.297 c 120.9,0 218.9,98 218.9,218.9 0,120.9 -98,218.9 -218.9,218.9 -120.9,0 -218.93,-98 -218.93,-218.9 0,-120.9 98.03,-218.9 218.93,-218.9 z" stroke-opacity="0.31" fill="#ffffff" stroke="#000000" stroke-width="4.904"/>
  </g>
 </g>
 <path inkscape:connector-curvature="0" id="path4576" d="m 256.38,97.06 c -29.06,0.038 -57.931,4.969 -73.06,14.25 -9.819,6.02 -12.09,16.601 -5.313,24.656 3.557,4.227 3.827,5.302 3.219,12.875 -0.797,9.925 -2.965,14.394 -17.688,36.31 -12.57,18.712 -16.826,28.3 -18.844,42.531 -3.844,27.1 10.717,65.869 37.469,99.72 15.731,19.905 20.492,27.708 23.22,38.13 2.314,8.841 1.909,15.08 -1.688,25.531 -2.141,6.221 -2.14,6.613 0.531,10.219 0.267,0.36 0.581,0.722 0.941,1.082 l 68.61,68.61 c 110.83,-10.407 197.64,-103.44 198.17,-216.88 l -139.42,-139.42 c -3.338,-3.338 -8.169,-6.291 -14.328,-8.578 -16.491,-6.125 -39.21,-9.06 -61.813,-9.03" opacity="0.25"/>
 <path inkscape:connector-curvature="0" id="path4578" d="m 256.38,97.06 c -29.06,0.038 -57.931,4.969 -73.06,14.25 -9.819,6.02 -12.09,16.601 -5.313,24.656 3.557,4.227 3.827,5.302 3.219,12.875 -0.797,9.925 -2.965,14.394 -17.688,36.31 -12.57,18.712 -16.826,28.3 -18.844,42.531 -3.844,27.1 10.717,65.869 37.469,99.72 15.731,19.905 20.492,27.708 23.22,38.13 2.314,8.841 1.909,15.08 -1.688,25.531 -2.141,6.221 -2.14,6.613 0.531,10.219 3.587,4.843 15.909,9.817 29.781,12 23.377,3.679 50.768,1.059 65.75,-6.281 10.125,-4.96 11.184,-7.435 8,-18.781 -5.624,-20.04 -1.325,-31.603 23.13,-62.22 26.947,-33.743 40.969,-72.941 36.09,-100.94 -2.217,-12.732 -8.367,-25.411 -22.19,-45.719 -9.162,-13.462 -12.04,-18.859 -13.313,-24.969 -1.883,-9.07 -1.273,-12.426 3.531,-19.469 7.309,-10.713 0.487,-22.388 -16.813,-28.813 -16.491,-6.125 -39.21,-9.06 -61.813,-9.03 m 5.406,69.09 15.969,0 c 0,26.651 61.67,47.26 31.625,94 -4.212,6.547 -6.455,3.744 -5.188,0 3.337,-9.878 1.429,-45.11 -26.438,-49.5 l 0,49.969 -0.031,0 0,27.781 c 0.275,13.04 -10.931,26.881 -28.09,33.13 -20.21,7.354 -40.926,1.398 -46.28,-13.313 -5.354,-14.706 6.668,-32.583 26.875,-39.938 11.279,-4.1 22.726,-4.055 31.563,-0.656 l 0,-101.47" fill="#ffffff"/>
</svg>
