<?xml version="1.0" encoding="UTF-8" standalone="no"?>
<svg xmlns="http://www.w3.org/2000/svg" height="512" viewBox="0 0 512 512" width="512" version="1.1">
 <metadata id="metadata72"/>
 <path id="path4" d="m471.95 253.05c0 120.9-98.01 218.9-218.9 218.9-120.9 0-218.9-98.01-218.9-218.9 0-120.9 98.01-218.9 218.9-218.9 120.9 0 218.9 98.01 218.9 218.9" fill-rule="evenodd" fill="#BF9E73"/>
 <path id="path6" fill-opacity="0.235" d="m272.66 115.63c-23.629 2.875-20.02 30.415-18.09 50.03 1.372 15.873-3.935 29.408-2.563 45.28-18.06-19.292-34.03-40.36-50.22-61.12-23.687-6.347-44.04 2.288-47.594 28.781-1.195 13.99 4.085 20.821-12.531 24.19-17.27 13.225-41.639 41.35-16.938 55.22 15.657 12.369 31.25 24.818 46.656 37.5-18.92 8.235-43.657 30.09-29.469 51.938 41.3 41.703 83.19 82.88 125.09 124.06 110.31-6.944 198.44-95.57 204.59-206.09-35.647-35.657-71.31-71.29-107.03-106.87-21.701 0-33.2-8.692-44.47-20.594-12.362-12.918-28.471-21.949-47.44-22.313"/>
 <g id="g8" fill-rule="evenodd">
  <path id="path10" fill-opacity="0.067" d="m256 1c-140.83 0-255 114.17-255 255s114.17 255 255 255 255-114.17 255-255-114.17-255-255-255m8.827 44.931c120.9 0 218.9 98 218.9 218.9s-98 218.9-218.9 218.9-218.93-98-218.93-218.9 98.03-218.9 218.93-218.9"/>
  <g id="g12" fill-opacity="0.129">
   <path id="path14" d="m256 4.433c-138.94 0-251.57 112.63-251.57 251.57s112.63 251.57 251.57 251.57 251.57-112.63 251.57-251.57-112.63-251.57-251.57-251.57m5.885 38.556c120.9 0 218.9 98 218.9 218.9s-98 218.9-218.9 218.9-218.93-98-218.93-218.9 98.03-218.9 218.93-218.9"/>
   <path id="path16" d="m256 8.356c-136.77 0-247.64 110.87-247.64 247.64s110.87 247.64 247.64 247.64 247.64-110.87 247.64-247.64-110.87-247.64-247.64-247.64m2.942 31.691c120.9 0 218.9 98 218.9 218.9s-98 218.9-218.9 218.9-218.93-98-218.93-218.9 98.03-218.9 218.93-218.9"/>
  </g>
  <path id="path18" d="m253.04 7.859c-135.42 0-245.19 109.78-245.19 245.19 0 135.42 109.78 245.19 245.19 245.19 135.42 0 245.19-109.78 245.19-245.19 0-135.42-109.78-245.19-245.19-245.19zm0 26.297c120.9 0 218.9 98 218.9 218.9s-98 218.9-218.9 218.9-218.93-98-218.93-218.9 98.03-218.9 218.93-218.9z" stroke-opacity="0.31" stroke="#000" stroke-width="4.904" fill="#fff"/>
 </g>
 <path id="path66" fill="#fff" d="m274.3 111.29c-26.806 0.974-27.04 44.718-27.04 44.718l8.736 100 90.98-42.43s57.25-33.414 7.404-62.19c-15.381-8.88-26.697-9.02-35.03-5.075-0.75-9.185-6.541-18.908-21.922-27.788-9.345-5.395-16.943-7.463-23.13-7.238m-18.303 144.72 42.43 90.93s33.414 57.25 62.19 7.404c8.881-15.382 9.02-26.697 5.075-35.03 9.185-0.751 18.907-6.541 27.788-21.922 28.775-49.84-37.48-50.13-37.48-50.13l-100 8.736-90.93 42.43s-57.25 33.372-7.404 62.15c15.381 8.88 26.696 9.06 35.03 5.117 0.75 9.185 6.541 18.908 21.922 27.788 49.841 28.776 50.13-37.522 50.13-37.522l-8.736-99.96-42.39-90.98s-33.414-57.25-62.19-7.405c-8.881 15.382-9.06 26.697-5.117 35.03-9.185 0.751-18.907 6.541-27.788 21.922-28.775 49.841 37.522 50.17 37.522 50.17l99.96-8.736"/>
</svg>
