<?xml version="1.0" encoding="UTF-8" standalone="no"?>
<svg
   xmlns:dc="http://purl.org/dc/elements/1.1/"
   xmlns:cc="http://creativecommons.org/ns#"
   xmlns:rdf="http://www.w3.org/1999/02/22-rdf-syntax-ns#"
   xmlns:svg="http://www.w3.org/2000/svg"
   xmlns="http://www.w3.org/2000/svg"
   xmlns:sodipodi="http://sodipodi.sourceforge.net/DTD/sodipodi-0.dtd"
   xmlns:inkscape="http://www.inkscape.org/namespaces/inkscape"
   height="512"
   viewBox="0 0 512 512"
   width="512"
   version="1.1"
   id="svg2"
   inkscape:version="0.91 r13725"
   sodipodi:docname="polari.svg">
  <defs
     id="defs16" />
  <sodipodi:namedview
     pagecolor="#ffffff"
     bordercolor="#666666"
     borderopacity="1"
     objecttolerance="10"
     gridtolerance="10"
     guidetolerance="10"
     inkscape:pageopacity="0"
     inkscape:pageshadow="2"
     inkscape:window-width="1680"
     inkscape:window-height="1024"
     id="namedview14"
     showgrid="false"
     inkscape:zoom="0.4609375"
     inkscape:cx="-162.71186"
     inkscape:cy="256"
     inkscape:window-x="0"
     inkscape:window-y="0"
     inkscape:window-maximized="0"
     inkscape:current-layer="svg2" />
  <metadata
     id="metadata72">
    <rdf:RDF>
      <cc:Work
         rdf:about="">
        <dc:format>image/svg+xml</dc:format>
        <dc:type
           rdf:resource="http://purl.org/dc/dcmitype/StillImage" />
      </cc:Work>
    </rdf:RDF>
  </metadata>
  <path
     id="path4"
     d="m471.95 253.05c0 120.9-98.01 218.9-218.9 218.9-120.9 0-218.9-98.01-218.9-218.9 0-120.9 98.01-218.9 218.9-218.9 120.9 0 218.9 98.01 218.9 218.9"
     fill-rule="evenodd"
     fill="#BF9E73" />
  <path
     id="path6"
     fill-opacity="0.235"
     d="m256 122.78c-73.57 0-133.22 57.691-133.22 128.72 0 33.884 13.691 64.42 35.906 87.28 0.269 0.283 0.541 0.563 0.813 0.844 0.395 0.4 0.787 0.793 1.188 1.188 0.4 0.402 0.782 0.821 1.188 1.219 0.332 0.333 0.665 0.671 1 1 0.504 0.505 1.019 1 1.531 1.5l0.063 0.063c0.085 0.082 0.165 0.168 0.25 0.25 0.249 0.251 0.499 0.501 0.75 0.75 0.101 0.107 0.211 0.206 0.313 0.313 0.339 0.34 0.658 0.695 1 1.031 0.303 0.304 0.6 0.605 0.906 0.906 0.384 0.387 0.767 0.774 1.156 1.156 0.504 0.505 1.019 1 1.531 1.5l0.063 0.063c0.085 0.082 0.165 0.168 0.25 0.25 0.249 0.251 0.499 0.501 0.75 0.75 0.101 0.107 0.211 0.206 0.313 0.313 0.333 0.335 0.663 0.669 1 1 0.108 0.111 0.204 0.233 0.313 0.344 0.199 0.198 0.394 0.397 0.594 0.594 0.384 0.387 0.767 0.774 1.156 1.156 0.301 0.301 0.603 0.608 0.906 0.906 0.405 0.407 0.839 0.785 1.25 1.188 0.031 0.032 0.063 0.062 0.094 0.094 0.099 0.101 0.182 0.212 0.281 0.313-1.13 4.273-2.519 8.763-4.594 13.344-8.325 18.374-16.656 18.406-16.656 18.406s1.692-0.044 4.438-0.219c-2.113 1.161-3.438 1.188-3.438 1.188s1.692-0.013 4.438-0.188c-2.119 1.166-3.438 1.188-3.438 1.188s1.692-0.013 4.438-0.188c-2.119 1.166-3.438 1.188-3.438 1.188s1.692-0.013 4.438-0.188c-2.119 1.166-3.469 1.188-3.469 1.188 0.001 0 1.737-0.042 4.5-0.219-2.137 1.184-3.5 1.219-3.5 1.219 0.001 0 1.707-0.045 4.438-0.219-2.113 1.161-3.438 1.219-3.438 1.219 0.001 0 1.691-0.044 4.438-0.219-2.113 1.161-3.438 1.188-3.438 1.188 0.001 0 1.691-0.013 4.438-0.188-2.119 1.166-3.438 1.188-3.438 1.188 0.001 0 1.691-0.013 4.438-0.188-2.119 1.166-3.438 1.188-3.438 1.188 0.001 0 1.691-0.013 4.438-0.188-2.119 1.166-3.438 1.188-3.438 1.188 0.001 0 1.706-0.042 4.469-0.219-2.137 1.184-3.5 1.219-3.5 1.219 0.001 0 1.737-0.042 4.5-0.219-2.137 1.184-3.5 1.219-3.5 1.219 0.002 0 1.691-0.044 4.438-0.219-2.113 1.161-3.438 1.188-3.438 1.188 0.002 0 1.691-0.013 4.438-0.188-2.113 1.161-3.438 1.188-3.438 1.188 0.002 0 1.691-0.012 4.438-0.188-2.119 1.166-3.438 1.188-3.438 1.188 0.002 0 1.691-0.012 4.438-0.188-2.119 1.166-3.438 1.188-3.438 1.188 0.002 0 1.706-0.042 4.469-0.219-2.137 1.184-3.5 1.219-3.5 1.219 0.002 0 1.738-0.042 4.5-0.219-2.137 1.184-3.5 1.219-3.5 1.219 0.002 0 1.706-0.045 4.438-0.219-2.113 1.161-3.438 1.219-3.438 1.219 0.002 0 1.691-0.044 4.438-0.219-2.113 1.161-3.438 1.188-3.438 1.188 0.003 0 1.691-0.012 4.438-0.188-2.119 1.166-3.438 1.188-3.438 1.188 0.003 0 1.691-0.012 4.438-0.188-2.119 1.166-3.438 1.188-3.438 1.188 0.003 0 1.676-0.014 4.406-0.188-2.102 1.151-3.438 1.188-3.438 1.188 0.003 0 1.737-0.042 4.5-0.219-2.137 1.184-3.5 1.219-3.5 1.219 0.003 0 1.706-0.045 4.438-0.219-2.113 1.161-3.438 1.219-3.438 1.219 0.003 0 1.706-0.045 4.438-0.219-2.113 1.161-3.438 1.188-3.438 1.188 0.003 0 1.691-0.012 4.438-0.188-2.119 1.166-3.438 1.188-3.438 1.188 0.003 0 1.691-0.012 4.438-0.188-2.119 1.166-3.438 1.188-3.438 1.188 0.003 0 1.691-0.012 4.438-0.188-2.119 1.166-3.469 1.188-3.469 1.188 0.004 0 1.737-0.042 4.5-0.219-2.137 1.184-3.5 1.219-3.5 1.219 0.004 0 1.722-0.044 4.469-0.219-2.119 1.166-3.469 1.219-3.469 1.219 0.004 0 1.706-0.045 4.438-0.219-2.113 1.161-3.438 1.188-3.438 1.188 0.004 0 1.691-0.012 4.438-0.188-2.113 1.161-3.438 1.188-3.438 1.188 0.004 0 1.691-0.012 4.438-0.188-2.119 1.166-3.438 1.188-3.438 1.188 0.004 0 1.691-0.012 4.438-0.188-2.119 1.166-3.438 1.188-3.438 1.188 0.004 0 1.706-0.042 4.469-0.219-2.137 1.184-3.5 1.219-3.5 1.219 0.005 0 1.737-0.042 4.5-0.219-2.137 1.184-3.5 1.219-3.5 1.219 0.005 0 1.706-0.045 4.438-0.219-2.113 1.161-3.438 1.188-3.438 1.188 0.005 0 1.706-0.014 4.438-0.188-2.113 1.161-3.438 1.188-3.438 1.188 0.005 0 1.69-0.012 4.438-0.188-2.119 1.166-3.438 1.188-3.438 1.188 0.005 0 1.69-0.012 4.438-0.188-2.119 1.166-3.438 1.188-3.438 1.188 0.005 0 1.705-0.042 4.469-0.219-2.137 1.184-3.5 1.219-3.5 1.219 0.005 0 1.737-0.042 4.5-0.219-2.137 1.184-3.5 1.219-3.5 1.219 0.005 0 1.706-0.045 4.438-0.219-2.113 1.161-3.438 1.219-3.438 1.219 0.005 0 1.705-0.045 4.438-0.219-2.113 1.161-3.438 1.188-3.438 1.188 0.006 0 1.69-0.012 4.438-0.188-2.119 1.166-3.438 1.188-3.438 1.188 0.006 0 1.69-0.012 4.438-0.188-2.119 1.166-3.438 1.188-3.438 1.188 0.006 0 1.69-0.012 4.438-0.188-2.119 1.166-3.469 1.188-3.469 1.188 0.006 0 1.736-0.042 4.5-0.219-2.137 1.184-3.5 1.219-3.5 1.219 0.006 0 1.706-0.045 4.438-0.219-2.113 1.161-3.438 1.219-3.438 1.219 0.006 0 1.706-0.045 4.438-0.219-2.113 1.161-3.438 1.188-3.438 1.188 0.006 0 1.705-0.014 4.438-0.188-2.119 1.166-3.438 1.188-3.438 1.188 0.006 0 1.69-0.012 4.438-0.188-2.119 1.166-3.438 1.188-3.438 1.188 0.007 0 1.69-0.012 4.438-0.188-2.119 1.166-3.438 1.188-3.438 1.188 0.007 0 1.705-0.042 4.469-0.219-2.137 1.184-3.5 1.219-3.5 1.219 0.007 0 1.721-0.043 4.469-0.219-2.119 1.166-3.469 1.219-3.469 1.219 0.007 0 1.706-0.045 4.438-0.219-2.113 1.161-3.438 1.188-3.438 1.188 0.007 0 1.705-0.014 4.438-0.188-2.113 1.161-3.438 1.188-3.438 1.188 0.007 0 1.69-0.012 4.438-0.188-2.119 1.166-3.438 1.188-3.438 1.188 0.007 0 1.69-0.012 4.438-0.188-2.119 1.166-3.438 1.188-3.438 1.188 0.007 0 1.705-0.042 4.469-0.219-2.137 1.184-3.5 1.219-3.5 1.219 0.008 0 1.736-0.042 4.5-0.219-2.137 1.184-3.5 1.219-3.5 1.219 0.008 0 1.706-0.045 4.438-0.219-2.113 1.161-3.438 1.219-3.438 1.219 0.008 0 1.706-0.045 4.438-0.219-2.113 1.161-3.438 1.188-3.438 1.188 0.008 0 1.705-0.014 4.438-0.188-2.119 1.166-3.438 1.188-3.438 1.188 0.008 0 1.689-0.012 4.438-0.188-2.119 1.166-3.438 1.188-3.438 1.188 0.008 0 1.705-0.042 4.469-0.219-2.137 1.184-3.5 1.219-3.5 1.219 0.008 0 1.736-0.042 4.5-0.219-2.137 1.184-3.5 1.219-3.5 1.219 0.008 0 1.705-0.045 4.438-0.219-2.113 1.161-3.438 1.219-3.438 1.219 0.009 0 1.705-0.045 4.438-0.219-2.113 1.161-3.438 1.188-3.438 1.188 0.009 0 1.705-0.014 4.438-0.188-2.119 1.166-3.438 1.188-3.438 1.188 0.009 0 1.704-0.014 4.438-0.188-2.119 1.166-3.438 1.188-3.438 1.188 0.009 0 1.689-0.012 4.438-0.188-2.119 1.166-3.469 1.188-3.469 1.188 0.009 0 1.736-0.042 4.5-0.219-2.137 1.184-3.5 1.219-3.5 1.219 0.009 0 1.72-0.043 4.469-0.219-2.119 1.166-3.469 1.219-3.469 1.219 0.009 0 1.705-0.045 4.438-0.219-2.113 1.161-3.438 1.188-3.438 1.188 0.009 0 1.705-0.014 4.438-0.188-2.113 1.161-3.438 1.188-3.438 1.188 0.01 0 1.704-0.014 4.438-0.188-2.119 1.166-3.438 1.188-3.438 1.188 0.01 0 1.689-0.012 4.438-0.188-2.119 1.166-3.438 1.188-3.438 1.188 0.01 0 1.704-0.042 4.469-0.219-2.137 1.184-3.5 1.219-3.5 1.219 0.01 0 1.735-0.042 4.5-0.219-2.137 1.184-3.5 1.219-3.5 1.219 0.01 0 1.705-0.045 4.438-0.219-2.113 1.161-3.438 1.188-3.438 1.188 0.01 0 1.705-0.014 4.438-0.188-0.931 0.511-1.671 0.772-2.25 0.938 0.634 0.038 1.27 0.093 1.906 0.125 0.011-0.001 0.02 0.001 0.031 0 0.462-0.023 0.761-0.027 1.313-0.063-0.075 0.041-0.146 0.055-0.219 0.094 3.362 0.153 6.725 0.281 10.125 0.281 111.59 0 203.7-83.51 217.22-191.44-0.136-0.136-0.271-0.272-0.406-0.406-0.329-0.333-0.667-0.67-1-1-0.331-0.336-0.665-0.668-1-1-0.328-0.333-0.668-0.639-1-0.969-0.331-0.336-0.665-0.668-1-1-0.072-0.075-0.146-0.144-0.219-0.219-0.011-0.01-0.021-0.021-0.031-0.031-0.244-0.246-0.473-0.506-0.719-0.75-0.329-0.333-0.667-0.67-1-1-0.329-0.333-0.667-0.67-1-1-0.331-0.336-0.665-0.668-1-1-0.328-0.333-0.668-0.639-1-0.969-0.331-0.336-0.665-0.668-1-1-0.331-0.336-0.665-0.668-1-1-0.072-0.075-0.146-0.144-0.219-0.219-0.011-0.01-0.021-0.021-0.031-0.031-0.244-0.246-0.473-0.506-0.719-0.75-0.329-0.333-0.667-0.67-1-1-0.331-0.336-0.665-0.668-1-1-0.328-0.333-0.668-0.639-1-0.969-0.331-0.336-0.665-0.668-1-1-0.331-0.336-0.665-0.668-1-1-0.072-0.075-0.146-0.144-0.219-0.219-0.011-0.01-0.021-0.021-0.031-0.031-0.244-0.246-0.473-0.506-0.719-0.75-0.329-0.333-0.667-0.67-1-1-0.329-0.333-0.667-0.67-1-1-0.326-0.331-0.67-0.642-1-0.969-0.041-0.042-0.084-0.083-0.125-0.125-0.293-0.29-0.579-0.587-0.875-0.875-0.331-0.336-0.665-0.668-1-1-0.072-0.075-0.146-0.144-0.219-0.219-0.011-0.01-0.021-0.021-0.031-0.031-0.244-0.246-0.473-0.506-0.719-0.75-0.329-0.333-0.667-0.67-1-1-0.329-0.333-0.667-0.67-1-1-0.331-0.336-0.665-0.668-1-1-0.328-0.333-0.668-0.639-1-0.969-0.331-0.336-0.665-0.668-1-1-0.331-0.336-0.665-0.668-1-1-0.072-0.075-0.146-0.144-0.219-0.219-0.011-0.01-0.021-0.021-0.031-0.031-0.244-0.246-0.473-0.506-0.719-0.75-0.329-0.333-0.667-0.67-1-1-0.331-0.336-0.665-0.668-1-1-0.328-0.333-0.668-0.639-1-0.969-0.331-0.336-0.665-0.668-1-1-0.331-0.336-0.665-0.668-1-1-0.072-0.075-0.146-0.144-0.219-0.219-0.011-0.01-0.021-0.021-0.031-0.031-0.244-0.246-0.473-0.506-0.719-0.75-0.329-0.333-0.667-0.67-1-1-0.331-0.336-0.665-0.668-1-1-0.326-0.331-0.67-0.642-1-0.969-0.041-0.042-0.084-0.083-0.125-0.125-0.293-0.29-0.579-0.587-0.875-0.875-0.331-0.336-0.665-0.668-1-1-0.072-0.075-0.146-0.144-0.219-0.219-0.011-0.01-0.021-0.021-0.031-0.031-0.244-0.246-0.473-0.506-0.719-0.75-0.329-0.333-0.667-0.67-1-1-0.329-0.333-0.667-0.67-1-1-0.331-0.336-0.665-0.668-1-1-0.328-0.333-0.668-0.639-1-0.969-0.331-0.336-0.665-0.668-1-1-0.072-0.075-0.146-0.144-0.219-0.219-0.011-0.01-0.021-0.021-0.031-0.031-0.244-0.246-0.473-0.506-0.719-0.75-0.329-0.333-0.667-0.67-1-1-0.329-0.333-0.667-0.67-1-1-0.331-0.336-0.665-0.668-1-1-0.328-0.333-0.668-0.639-1-0.969-0.331-0.336-0.665-0.668-1-1-0.331-0.336-0.665-0.668-1-1-0.072-0.075-0.146-0.144-0.219-0.219-0.011-0.01-0.021-0.021-0.031-0.031-0.244-0.246-0.473-0.506-0.719-0.75-0.329-0.333-0.667-0.67-1-1-0.331-0.336-0.665-0.668-1-1-0.328-0.333-0.668-0.639-1-0.969-0.331-0.336-0.665-0.668-1-1-0.331-0.336-0.665-0.668-1-1-0.072-0.075-0.146-0.144-0.219-0.219-0.011-0.01-0.021-0.021-0.031-0.031-0.244-0.246-0.473-0.506-0.719-0.75-0.329-0.333-0.667-0.67-1-1-0.329-0.333-0.667-0.67-1-1-0.326-0.331-0.67-0.642-1-0.969-0.041-0.042-0.084-0.083-0.125-0.125-0.293-0.29-0.579-0.587-0.875-0.875-0.331-0.336-0.665-0.668-1-1-0.072-0.075-0.146-0.144-0.219-0.219-0.011-0.01-0.021-0.021-0.031-0.031-0.244-0.246-0.473-0.506-0.719-0.75-0.329-0.333-0.667-0.67-1-1-0.329-0.333-0.667-0.67-1-1-0.331-0.336-0.665-0.668-1-1-0.328-0.333-0.668-0.639-1-0.969-0.331-0.336-0.665-0.668-1-1-0.072-0.075-0.146-0.144-0.219-0.219-0.011-0.01-0.021-0.021-0.031-0.031-0.244-0.246-0.473-0.506-0.719-0.75-0.329-0.333-0.667-0.67-1-1-0.329-0.333-0.667-0.67-1-1-0.331-0.336-0.665-0.668-1-1-0.328-0.333-0.668-0.639-1-0.969-0.331-0.336-0.665-0.668-1-1-0.331-0.336-0.665-0.668-1-1-0.072-0.075-0.146-0.144-0.219-0.219-0.011-0.01-0.021-0.021-0.031-0.031-0.244-0.246-0.473-0.506-0.719-0.75-0.329-0.333-0.667-0.67-1-1-0.331-0.336-0.665-0.668-1-1-0.326-0.331-0.67-0.642-1-0.969-0.041-0.042-0.084-0.083-0.125-0.125-0.293-0.29-0.579-0.587-0.875-0.875-0.331-0.336-0.665-0.668-1-1-0.072-0.075-0.146-0.144-0.219-0.219-0.011-0.01-0.021-0.021-0.031-0.031-0.244-0.246-0.473-0.506-0.719-0.75-0.329-0.333-0.667-0.67-1-1-0.329-0.333-0.667-0.67-1-1-0.331-0.336-0.665-0.668-1-1-0.328-0.333-0.668-0.639-1-0.969-0.331-0.336-0.665-0.668-1-1-0.072-0.075-0.146-0.144-0.219-0.219-0.011-0.01-0.021-0.021-0.031-0.031-0.244-0.246-0.473-0.506-0.719-0.75-0.329-0.333-0.667-0.67-1-1-0.329-0.333-0.667-0.67-1-1-0.331-0.336-0.665-0.668-1-1-0.328-0.333-0.668-0.639-1-0.969-0.331-0.336-0.665-0.668-1-1-0.331-0.336-0.665-0.668-1-1-0.072-0.075-0.146-0.144-0.219-0.219-0.011-0.01-0.021-0.021-0.031-0.031-0.244-0.246-0.473-0.506-0.719-0.75-0.329-0.333-0.667-0.67-1-1-0.331-0.336-0.665-0.668-1-1-0.328-0.333-0.668-0.639-1-0.969-0.331-0.336-0.665-0.668-1-1-0.331-0.336-0.665-0.668-1-1-0.072-0.075-0.146-0.144-0.219-0.219-0.011-0.01-0.021-0.021-0.031-0.031-0.244-0.246-0.473-0.506-0.719-0.75-0.329-0.333-0.667-0.67-1-1-0.329-0.333-0.667-0.67-1-1-0.326-0.331-0.67-0.642-1-0.969-0.041-0.042-0.084-0.083-0.125-0.125-0.293-0.29-0.579-0.587-0.875-0.875-0.331-0.336-0.665-0.668-1-1-0.072-0.075-0.146-0.144-0.219-0.219-0.011-0.01-0.021-0.021-0.031-0.031-0.244-0.246-0.473-0.506-0.719-0.75-0.329-0.333-0.667-0.67-1-1-0.329-0.333-0.667-0.67-1-1-0.331-0.336-0.665-0.668-1-1-0.328-0.333-0.668-0.639-1-0.969-0.331-0.336-0.665-0.668-1-1-0.072-0.075-0.146-0.144-0.219-0.219-0.011-0.01-0.021-0.021-0.031-0.031-0.244-0.246-0.473-0.506-0.719-0.75-24.26-24.59-58.5-39.938-96.44-39.938" />
  <g
     id="g8"
     fill-rule="evenodd">
    <path
       id="path10"
       fill-opacity="0.067"
       d="m256 1c-140.83 0-255 114.17-255 255s114.17 255 255 255 255-114.17 255-255-114.17-255-255-255m8.827 44.931c120.9 0 218.9 98 218.9 218.9s-98 218.9-218.9 218.9-218.93-98-218.93-218.9 98.03-218.9 218.93-218.9" />
    <g
       id="g12"
       fill-opacity="0.129">
      <path
         id="path14"
         d="m256 4.433c-138.94 0-251.57 112.63-251.57 251.57s112.63 251.57 251.57 251.57 251.57-112.63 251.57-251.57-112.63-251.57-251.57-251.57m5.885 38.556c120.9 0 218.9 98 218.9 218.9s-98 218.9-218.9 218.9-218.93-98-218.93-218.9 98.03-218.9 218.93-218.9" />
      <path
         id="path16"
         d="m256 8.356c-136.77 0-247.64 110.87-247.64 247.64s110.87 247.64 247.64 247.64 247.64-110.87 247.64-247.64-110.87-247.64-247.64-247.64m2.942 31.691c120.9 0 218.9 98 218.9 218.9s-98 218.9-218.9 218.9-218.93-98-218.93-218.9 98.03-218.9 218.93-218.9" />
    </g>
    <path
       id="path18"
       d="m253.04 7.859c-135.42 0-245.19 109.78-245.19 245.19 0 135.42 109.78 245.19 245.19 245.19 135.42 0 245.19-109.78 245.19-245.19 0-135.42-109.78-245.19-245.19-245.19zm0 26.297c120.9 0 218.9 98 218.9 218.9s-98 218.9-218.9 218.9-218.93-98-218.93-218.9 98.03-218.9 218.93-218.9z"
       stroke-opacity="0.31"
       stroke="#000"
       stroke-width="4.904"
       fill="#fff" />
  </g>
  <path
     id="path66"
     fill="#BF9E73"
     d="m256 122.8c-73.57 0-133.2 57.666-133.2 128.69 0 42.827 21.812 80.34 55.15 103.72-1.22 4.923-2.762 10.22-5.203 15.61-8.325 18.374-16.651 18.385-16.651 18.385s24.976-0.181 41.626-9.366c3.518-1.935 6.592-4.877 9.366-8.672 15.166 5.796 31.609 8.672 48.911 8.672 73.57 0 133.2-57.32 133.2-128.35s-59.64-128.69-133.2-128.69m76.31 114.82c7.02 0 12.428 1.858 16.304 5.203 3.997 3.25 5.897 7.819 5.897 14.222 0 6.212-1.901 11.224-5.897 14.569-3.997 3.345-9.4 4.856-16.304 4.856-6.177 0-11.492-1.547-15.61-4.51-3.997-3.058-5.897-8.03-5.897-14.916 0-6.404 1.917-10.973 5.55-14.222 3.754-3.345 9.05-5.203 15.957-5.203m-152.98 0.347c7.02 0 12.428 1.511 16.304 4.856 3.997 3.25 5.897 8.166 5.897 14.569 0 6.212-1.9 10.877-5.897 14.222s-9.4 5.203-16.304 5.203c-6.177 0-11.492-1.547-15.61-4.51-3.997-3.058-5.897-8.03-5.897-14.916 0-6.404 1.917-11.32 5.55-14.569 3.754-3.345 9.05-4.856 15.957-4.856m76.31 0c7.02 0 12.428 1.511 16.304 4.856 3.997 3.25 5.897 8.166 5.897 14.569 0 6.212-1.901 10.877-5.897 14.222-3.997 3.345-9.4 5.203-16.304 5.203-6.177 0-11.145-1.547-15.263-4.51-3.997-3.058-6.244-8.03-6.244-14.916 0-6.404 1.917-11.32 5.55-14.569 3.754-3.345 9.05-4.856 15.957-4.856"
     style="fill:#ffffff" />
</svg>
