<?xml version="1.0" encoding="UTF-8" standalone="no"?>
<svg
   xmlns:dc="http://purl.org/dc/elements/1.1/"
   xmlns:cc="http://creativecommons.org/ns#"
   xmlns:rdf="http://www.w3.org/1999/02/22-rdf-syntax-ns#"
   xmlns:svg="http://www.w3.org/2000/svg"
   xmlns="http://www.w3.org/2000/svg"
   xmlns:sodipodi="http://sodipodi.sourceforge.net/DTD/sodipodi-0.dtd"
   xmlns:inkscape="http://www.inkscape.org/namespaces/inkscape"
   height="512"
   viewBox="0 0 512 512"
   width="512"
   version="1.1"
   id="svg2"
   inkscape:version="0.91 r13725"
   sodipodi:docname="polly.svg">
  <defs
     id="defs20" />
  <sodipodi:namedview
     pagecolor="#ffffff"
     bordercolor="#666666"
     borderopacity="1"
     objecttolerance="10"
     gridtolerance="10"
     guidetolerance="10"
     inkscape:pageopacity="0"
     inkscape:pageshadow="2"
     inkscape:window-width="1680"
     inkscape:window-height="1024"
     id="namedview18"
     showgrid="false"
     inkscape:zoom="0.4609375"
     inkscape:cx="-162.71186"
     inkscape:cy="256"
     inkscape:window-x="0"
     inkscape:window-y="0"
     inkscape:window-maximized="0"
     inkscape:current-layer="svg2" />
  <metadata
     id="metadata80">
    <rdf:RDF>
      <cc:Work
         rdf:about="">
        <dc:format>image/svg+xml</dc:format>
        <dc:type
           rdf:resource="http://purl.org/dc/dcmitype/StillImage" />
      </cc:Work>
    </rdf:RDF>
  </metadata>
  <path
     id="path4"
     d="m471.95 253.05c0 120.9-98.01 218.9-218.9 218.9-120.9 0-218.9-98.01-218.9-218.9 0-120.9 98.01-218.9 218.9-218.9 120.9 0 218.9 98.01 218.9 218.9"
     fill-rule="evenodd"
     fill="#8a0"
     style="fill:#BF9E73;fill-opacity:1" />
  <path
     id="path6"
     fill-opacity="0.235"
     d="m248.56 103.75c-12.546 0.069-24.298 6.795-29.906 18.406-6.627 13.723-2.696 30.1 8.563 40.625 0.332 0.335 0.654 0.676 1 1 0.104 0.105 0.207 0.209 0.313 0.313 0.138 0.146 0.266 0.293 0.406 0.438 0.091 0.087 0.189 0.164 0.281 0.25 0.237 0.256 0.474 0.499 0.719 0.75 0.09 0.086 0.19 0.165 0.281 0.25 0.103 0.103 0.209 0.21 0.313 0.313 0.138 0.146 0.266 0.293 0.406 0.438 0.09 0.086 0.19 0.165 0.281 0.25 0.133 0.134 0.271 0.274 0.406 0.406 0.106 0.112 0.205 0.233 0.313 0.344 0.09 0.086 0.19 0.165 0.281 0.25 0.073 0.073 0.145 0.146 0.219 0.219 0.566 0.602 1.141 1.181 1.75 1.75 0.332 0.335 0.654 0.676 1 1 0.237 0.256 0.474 0.499 0.719 0.75 0.091 0.087 0.189 0.164 0.281 0.25 0.103 0.103 0.209 0.21 0.313 0.313 0.138 0.146 0.266 0.293 0.406 0.438 0.09 0.086 0.19 0.165 0.281 0.25 0.144 0.144 0.291 0.295 0.438 0.438 0.096 0.101 0.184 0.212 0.281 0.313 0.09 0.086 0.19 0.165 0.281 0.25 0.073 0.073 0.145 0.146 0.219 0.219 0.566 0.602 1.141 1.181 1.75 1.75 0.332 0.335 0.654 0.676 1 1 0.104 0.105 0.207 0.209 0.313 0.313 0.138 0.146 0.266 0.293 0.406 0.438 0.091 0.087 0.189 0.164 0.281 0.25 0.103 0.103 0.209 0.21 0.313 0.313 0.138 0.146 0.266 0.293 0.406 0.438 0.09 0.086 0.19 0.165 0.281 0.25 0.103 0.103 0.209 0.21 0.313 0.313 0.138 0.146 0.266 0.293 0.406 0.438 0.09 0.086 0.19 0.165 0.281 0.25 0.104 0.104 0.207 0.209 0.313 0.313 0.54 0.571 1.077 1.115 1.656 1.656 0.332 0.335 0.654 0.676 1 1 0.104 0.105 0.207 0.209 0.313 0.313 0.138 0.146 0.266 0.293 0.406 0.438 0.091 0.087 0.189 0.164 0.281 0.25 0.103 0.103 0.209 0.21 0.313 0.313 0.138 0.146 0.266 0.293 0.406 0.438 0.09 0.086 0.19 0.165 0.281 0.25 0.103 0.103 0.209 0.21 0.313 0.313 0.138 0.146 0.266 0.293 0.406 0.438 0.09 0.086 0.19 0.165 0.281 0.25 0.104 0.104 0.207 0.209 0.313 0.313 0.333 0.352 0.683 0.69 1.031 1.031 0.529 0.558 1.058 1.095 1.625 1.625 0.237 0.256 0.474 0.499 0.719 0.75 0.091 0.087 0.189 0.164 0.281 0.25 0.103 0.103 0.209 0.21 0.313 0.313 0.138 0.146 0.266 0.293 0.406 0.438 0.09 0.086 0.19 0.165 0.281 0.25 0.103 0.103 0.209 0.21 0.313 0.313 0.138 0.146 0.266 0.293 0.406 0.438 0.09 0.086 0.19 0.165 0.281 0.25 0.133 0.134 0.271 0.274 0.406 0.406 0.106 0.112 0.205 0.233 0.313 0.344 0.143 0.137 0.292 0.272 0.438 0.406-21.486 11.263-41.19 33.05-45.531 59.38-0.06 0.365-0.109 0.73-0.156 1.094-0.201 0.129-0.385 0.299-0.563 0.438 0.175-0.655 0.344-1.316 0.531-1.969-0.552 0.288-1.141 0.644-1.563 1.031 0.181-0.681 0.367-1.353 0.563-2.031-0.606 0.317-1.278 0.749-1.594 1.188 0.192-0.726 0.386-1.464 0.594-2.188-0.754 0.394-1.636 0.994-1.375 1.531-0.114 0.06-0.229 0.128-0.344 0.188 0.234-0.906 0.491-1.787 0.75-2.688-0.565 0.295-1.227 0.722-1.031 1.125-0.216 0.113-0.44 0.23-0.656 0.344 0.216-0.827 0.451-1.646 0.688-2.469-0.377 0.197-0.818 0.481-0.688 0.75-0.318 0.166-0.65 0.333-0.969 0.5 0.2-0.759 0.439-1.494 0.656-2.25-0.189 0.099-0.409 0.241-0.344 0.375-0.403 0.211-0.814 0.443-1.219 0.656 0.181-0.677 0.368-1.357 0.563-2.031-37.854 19.779-82.15 49.656-69 76.66 3.651 7.498 10.211 13.903 18.688 19.219 0.279 0.186 0.56 0.379 0.844 0.563 0.201 0.219 0.432 0.432 0.688 0.625 0.265 0.375 0.596 0.719 1 1.031 0.268 0.374 0.631 0.717 1.031 1.031 0.275 0.381 0.624 0.741 1.031 1.063 0.272 0.368 0.641 0.717 1.031 1.031 0.273 0.369 0.612 0.714 1 1.031 0.284 0.382 0.66 0.734 1.063 1.063 0.271 0.358 0.596 0.687 0.969 1 0.289 0.389 0.659 0.725 1.063 1.063 0.271 0.358 0.603 0.685 0.969 1 0.309 0.414 0.695 0.797 1.125 1.156 0.286 0.36 0.624 0.712 1 1.031 0.295 0.371 0.674 0.733 1.063 1.063 0.279 0.346 0.611 0.658 0.969 0.969 0.32 0.406 0.701 0.797 1.125 1.156 0.283 0.343 0.612 0.659 0.969 0.969 0.324 0.402 0.704 0.767 1.125 1.125 0.276 0.33 0.565 0.668 0.906 0.969 0.332 0.41 0.729 0.79 1.156 1.156 0.293 0.345 0.608 0.686 0.969 1 0.297 0.354 0.665 0.678 1.031 1 0.309 0.371 0.648 0.725 1.031 1.063 0.335 0.399 0.707 0.795 1.125 1.156 0.285 0.328 0.597 0.666 0.938 0.969 0.334 0.394 0.713 0.766 1.125 1.125 0.276 0.316 0.58 0.613 0.906 0.906 0.329 0.391 0.691 0.768 1.094 1.125 0.342 0.397 0.709 0.762 1.125 1.125 0.299 0.338 0.616 0.687 0.969 1 0.314 0.36 0.658 0.698 1.031 1.031 0.316 0.361 0.657 0.697 1.031 1.031 0.3 0.342 0.618 0.681 0.969 1 0.336 0.389 0.693 0.765 1.094 1.125 0.304 0.345 0.645 0.678 1 1 0.326 0.372 0.679 0.748 1.063 1.094 0.346 0.391 0.716 0.762 1.125 1.125 0.301 0.333 0.622 0.656 0.969 0.969 0.314 0.352 0.637 0.702 1 1.031 0.358 0.403 0.735 0.782 1.156 1.156 0.298 0.326 0.599 0.661 0.938 0.969 0.327 0.365 0.655 0.721 1.031 1.063 0.325 0.36 0.69 0.724 1.063 1.063 0.273 0.3 0.569 0.59 0.875 0.875 0.371 0.424 0.752 0.824 1.188 1.219 0.33 0.363 0.686 0.721 1.063 1.063 0.326 0.356 0.661 0.727 1.031 1.063 0.344 0.376 0.701 0.74 1.094 1.094 0.327 0.353 0.662 0.729 1.031 1.063 0.317 0.341 0.644 0.677 1 1 0.335 0.364 0.684 0.719 1.063 1.063 0.331 0.357 0.659 0.724 1.031 1.063 0.336 0.362 0.654 0.72 1.031 1.063 0.283 0.303 0.594 0.616 0.906 0.906 0.046 0.05 0.078 0.106 0.125 0.156 0.006 0.005 0.026-0.005 0.031 0 0.218 0.232 0.453 0.463 0.688 0.688 0.381 0.433 0.781 0.843 1.219 1.25 0.046 0.05 0.078 0.106 0.125 0.156 0.006 0.005 0.026-0.005 0.031 0 0.257 0.274 0.532 0.549 0.813 0.813 0.065 0.072 0.121 0.147 0.188 0.219 0.016 0.015 0.046 0.016 0.063 0.031 0.248 0.263 0.513 0.528 0.781 0.781 0.325 0.36 0.668 0.719 1.031 1.063 0.065 0.072 0.121 0.147 0.188 0.219 0.027 0.025 0.066 0.038 0.094 0.063 0.213 0.226 0.428 0.469 0.656 0.688 0.342 0.383 0.71 0.729 1.094 1.094 0.075 0.083 0.142 0.168 0.219 0.25 0.028 0.026 0.065 0.037 0.094 0.063 0.231 0.244 0.471 0.483 0.719 0.719 0.074 0.082 0.143 0.169 0.219 0.25 0.039 0.036 0.086 0.058 0.125 0.094 0.216 0.228 0.425 0.467 0.656 0.688 0.318 0.354 0.647 0.693 1 1.031 0.336 0.375 0.719 0.736 1.094 1.094 0.066 0.072 0.12 0.147 0.188 0.219 0.059 0.055 0.127 0.102 0.188 0.156 0.189 0.198 0.394 0.401 0.594 0.594 0.315 0.351 0.652 0.695 1 1.031 0.358 0.401 0.756 0.775 1.156 1.156 0.056 0.061 0.1 0.127 0.156 0.188 0.071 0.066 0.147 0.122 0.219 0.188 0.177 0.184 0.346 0.383 0.531 0.563 0.339 0.378 0.718 0.732 1.094 1.094 0.075 0.083 0.142 0.168 0.219 0.25 0.081 0.076 0.167 0.144 0.25 0.219 0.177 0.183 0.346 0.383 0.531 0.563 0.385 0.427 0.788 0.843 1.219 1.25 0.06 0.064 0.127 0.124 0.188 0.188 0.055 0.05 0.101 0.106 0.156 0.156 0.205 0.211 0.409 0.419 0.625 0.625 0.04 0.044 0.084 0.082 0.125 0.125 0.093 0.087 0.186 0.164 0.281 0.25 0.082 0.084 0.167 0.166 0.25 0.25 0.399 0.458 0.832 0.909 1.281 1.344 0.35 0.386 0.739 0.755 1.125 1.125 0.046 0.05 0.079 0.107 0.125 0.156 0.113 0.106 0.228 0.208 0.344 0.313 0.131 0.135 0.27 0.273 0.406 0.406 0.322 0.359 0.679 0.686 1.031 1.031 0.379 0.423 0.766 0.846 1.188 1.25 0.04 0.044 0.084 0.081 0.125 0.125 0.124 0.118 0.247 0.228 0.375 0.344 0.118 0.12 0.223 0.256 0.344 0.375 0.358 0.399 0.762 0.774 1.156 1.156 0.065 0.072 0.121 0.148 0.188 0.219 0.135 0.128 0.268 0.249 0.406 0.375 0.102 0.104 0.208 0.209 0.313 0.313 0.362 0.404 0.757 0.8 1.156 1.188 0.065 0.072 0.121 0.148 0.188 0.219 0.145 0.138 0.288 0.271 0.438 0.406 0.124 0.126 0.247 0.25 0.375 0.375 0.075 0.083 0.142 0.168 0.219 0.25 0.146 0.139 0.287 0.269 0.438 0.406 0.031 0.032 0.063 0.062 0.094 0.094 0.403 0.459 0.833 0.905 1.281 1.344 0.356 0.392 0.736 0.78 1.125 1.156 0.041 0.044 0.084 0.081 0.125 0.125 0.165 0.158 0.329 0.313 0.5 0.469 0.072 0.073 0.146 0.147 0.219 0.219 0.372 0.414 0.779 0.821 1.188 1.219 0.056 0.061 0.1 0.127 0.156 0.188 0.176 0.168 0.349 0.335 0.531 0.5 0.103 0.105 0.207 0.209 0.313 0.313 0.065 0.072 0.121 0.147 0.188 0.219 0.177 0.17 0.348 0.333 0.531 0.5 0.051 0.052 0.105 0.105 0.156 0.156 0.374 0.418 0.777 0.817 1.188 1.219 0.065 0.071 0.122 0.148 0.188 0.219 0.187 0.18 0.368 0.355 0.563 0.531 0.387 0.438 0.824 0.86 1.25 1.281 0.084 0.093 0.164 0.189 0.25 0.281 0.197 0.19 0.389 0.376 0.594 0.563 0.01 0.011 0.021 0.021 0.031 0.031 0.131 0.146 0.271 0.293 0.406 0.438 0.199 0.192 0.387 0.375 0.594 0.563 0.38 0.427 0.771 0.87 1.188 1.281 0.338 0.372 0.728 0.703 1.094 1.063 0.066 0.072 0.121 0.147 0.188 0.219 0.218 0.21 0.429 0.419 0.656 0.625 0.401 0.448 0.842 0.882 1.281 1.313 0.419 0.455 0.854 0.907 1.313 1.344 0.261 0.275 0.537 0.544 0.813 0.813 0.412 0.445 0.832 0.885 1.281 1.313 0.27 0.283 0.527 0.567 0.813 0.844 0.401 0.43 0.815 0.835 1.25 1.25 0.513 0.539 1.027 1.08 1.594 1.594 0.047 0.047 0.077 0.109 0.125 0.156 0.35 0.38 0.717 0.757 1.094 1.125 0.338 0.364 0.7 0.709 1.063 1.063 0.331 0.355 0.678 0.718 1.031 1.063 0.411 0.441 0.835 0.887 1.281 1.313 0.254 0.266 0.514 0.521 0.781 0.781 0.01 0.011 0.021 0.021 0.031 0.031 0.275 0.268 0.555 0.551 0.844 0.813 0.02 0.022 0.042 0.041 0.063 0.063 0.037 0.037 0.056 0.088 0.094 0.125 0.331 0.355 0.679 0.687 1.031 1.031 0.333 0.357 0.676 0.715 1.031 1.063 0.423 0.454 0.854 0.905 1.313 1.344 0.345 0.361 0.695 0.712 1.063 1.063 0.229 0.239 0.448 0.484 0.688 0.719 0.332 0.356 0.678 0.685 1.031 1.031 0.438 0.469 0.901 0.922 1.375 1.375 0.234 0.244 0.475 0.511 0.719 0.75 0.329 0.353 0.681 0.688 1.031 1.031 0.332 0.355 0.679 0.717 1.031 1.063 0.182 0.195 0.375 0.378 0.563 0.563 89.81-11.919 162.41-78.29 183.56-164.84-0.227-0.231-0.453-0.462-0.688-0.688-0.328-0.339-0.658-0.672-1-1-0.328-0.339-0.658-0.672-1-1-0.322-0.333-0.633-0.677-0.969-1-0.324-0.334-0.663-0.676-1-1-0.087-0.09-0.193-0.161-0.281-0.25-0.199-0.188-0.39-0.379-0.594-0.563-0.048-0.046-0.077-0.11-0.125-0.156-0.328-0.339-0.658-0.672-1-1-0.328-0.339-0.658-0.672-1-1-0.328-0.339-0.658-0.672-1-1-0.322-0.333-0.633-0.677-0.969-1-0.324-0.334-0.663-0.676-1-1-0.324-0.334-0.663-0.676-1-1-0.327-0.337-0.659-0.642-1-0.969-0.328-0.339-0.658-0.672-1-1-0.328-0.339-0.658-0.672-1-1-0.322-0.333-0.633-0.677-0.969-1-0.324-0.334-0.663-0.676-1-1-0.324-0.334-0.663-0.676-1-1-0.327-0.337-0.659-0.642-1-0.969-0.328-0.339-0.658-0.672-1-1-0.328-0.339-0.658-0.672-1-1-0.322-0.333-0.633-0.677-0.969-1-0.324-0.334-0.663-0.676-1-1-0.324-0.334-0.663-0.676-1-1-0.087-0.09-0.193-0.161-0.281-0.25-0.199-0.188-0.39-0.379-0.594-0.563-0.048-0.046-0.077-0.11-0.125-0.156-0.328-0.339-0.658-0.672-1-1-0.328-0.339-0.658-0.672-1-1-0.328-0.339-0.658-0.672-1-1-0.322-0.333-0.633-0.677-0.969-1-0.324-0.334-0.663-0.676-1-1-0.22-0.227-0.461-0.434-0.688-0.656-0.428-0.453-0.86-0.878-1.313-1.313-0.328-0.339-0.658-0.672-1-1-0.328-0.339-0.658-0.672-1-1-0.322-0.333-0.633-0.677-0.969-1-0.324-0.334-0.663-0.676-1-1-0.324-0.334-0.663-0.676-1-1-0.327-0.337-0.659-0.642-1-0.969-0.328-0.339-0.658-0.672-1-1-0.328-0.339-0.658-0.672-1-1-0.322-0.333-0.633-0.677-0.969-1-0.324-0.334-0.663-0.676-1-1-0.324-0.334-0.663-0.676-1-1-0.087-0.09-0.193-0.161-0.281-0.25-0.199-0.188-0.39-0.379-0.594-0.563-0.048-0.046-0.077-0.11-0.125-0.156-0.328-0.339-0.658-0.672-1-1-0.328-0.339-0.658-0.672-1-1-0.328-0.339-0.658-0.672-1-1-0.322-0.333-0.633-0.677-0.969-1-0.324-0.334-0.663-0.676-1-1-0.087-0.09-0.193-0.161-0.281-0.25-0.199-0.188-0.39-0.379-0.594-0.563-0.048-0.046-0.077-0.11-0.125-0.156-0.328-0.339-0.658-0.672-1-1-0.328-0.339-0.658-0.672-1-1-0.328-0.339-0.658-0.672-1-1-0.322-0.333-0.633-0.677-0.969-1-0.324-0.334-0.663-0.676-1-1-0.22-0.227-0.461-0.434-0.688-0.656-0.428-0.453-0.86-0.878-1.313-1.313-0.328-0.339-0.658-0.672-1-1-0.328-0.339-0.658-0.672-1-1-0.322-0.333-0.633-0.677-0.969-1-0.324-0.334-0.663-0.676-1-1-0.324-0.334-0.663-0.676-1-1-0.327-0.337-0.659-0.642-1-0.969-0.328-0.339-0.658-0.672-1-1-0.328-0.339-0.658-0.672-1-1-0.322-0.333-0.633-0.677-0.969-1-0.324-0.334-0.663-0.676-1-1-0.324-0.334-0.663-0.676-1-1-0.087-0.09-0.193-0.161-0.281-0.25-0.199-0.188-0.39-0.379-0.594-0.563-0.048-0.046-0.077-0.11-0.125-0.156-0.328-0.339-0.658-0.672-1-1-0.328-0.339-0.658-0.672-1-1-0.328-0.339-0.658-0.672-1-1-0.322-0.333-0.633-0.677-0.969-1-0.324-0.334-0.663-0.676-1-1-0.087-0.09-0.193-0.161-0.281-0.25-0.199-0.188-0.39-0.379-0.594-0.563-0.048-0.046-0.077-0.11-0.125-0.156-0.328-0.339-0.658-0.672-1-1-0.328-0.339-0.658-0.672-1-1-0.328-0.339-0.658-0.672-1-1-0.322-0.333-0.633-0.677-0.969-1-0.324-0.334-0.663-0.676-1-1-0.324-0.334-0.663-0.676-1-1-0.327-0.337-0.659-0.642-1-0.969-0.328-0.339-0.658-0.672-1-1-0.328-0.339-0.658-0.672-1-1-0.322-0.333-0.633-0.677-0.969-1-0.324-0.334-0.663-0.676-1-1-0.324-0.334-0.663-0.676-1-1-0.087-0.09-0.193-0.161-0.281-0.25-0.199-0.188-0.39-0.379-0.594-0.563-0.048-0.046-0.077-0.11-0.125-0.156-0.328-0.339-0.658-0.672-1-1-0.328-0.339-0.658-0.672-1-1-0.322-0.333-0.633-0.677-0.969-1-0.324-0.334-0.663-0.676-1-1-0.324-0.334-0.663-0.676-1-1-0.087-0.09-0.193-0.161-0.281-0.25-0.199-0.188-0.39-0.379-0.594-0.563-0.048-0.046-0.077-0.11-0.125-0.156-0.328-0.339-0.658-0.672-1-1-0.328-0.339-0.658-0.672-1-1-0.328-0.339-0.658-0.672-1-1-0.322-0.333-0.633-0.677-0.969-1-0.324-0.334-0.663-0.676-1-1-0.22-0.227-0.461-0.434-0.688-0.656-0.428-0.453-0.86-0.878-1.313-1.313-0.328-0.339-0.658-0.672-1-1-0.328-0.339-0.658-0.672-1-1-0.322-0.333-0.633-0.677-0.969-1-0.324-0.334-0.663-0.676-1-1-0.324-0.334-0.663-0.676-1-1-0.327-0.337-0.659-0.642-1-0.969-0.328-0.339-0.658-0.672-1-1-0.328-0.339-0.658-0.672-1-1-0.322-0.333-0.633-0.677-0.969-1-0.324-0.334-0.663-0.676-1-1-0.324-0.334-0.663-0.676-1-1-0.087-0.09-0.193-0.161-0.281-0.25-0.199-0.188-0.39-0.379-0.594-0.563-0.048-0.046-0.077-0.11-0.125-0.156-0.328-0.339-0.658-0.672-1-1-0.328-0.339-0.658-0.672-1-1-0.328-0.339-0.658-0.672-1-1-0.322-0.333-0.633-0.677-0.969-1-0.324-0.334-0.663-0.676-1-1-0.087-0.09-0.193-0.161-0.281-0.25-0.199-0.188-0.39-0.379-0.594-0.563-0.048-0.046-0.077-0.11-0.125-0.156-0.328-0.339-0.658-0.672-1-1-0.328-0.339-0.658-0.672-1-1-0.328-0.339-0.658-0.672-1-1-0.322-0.333-0.633-0.677-0.969-1-0.324-0.334-0.663-0.676-1-1-0.324-0.334-0.663-0.676-1-1-0.327-0.337-0.659-0.642-1-0.969-0.328-0.339-0.658-0.672-1-1-0.328-0.339-0.658-0.672-1-1-0.322-0.333-0.633-0.677-0.969-1-0.324-0.334-0.663-0.676-1-1-0.324-0.334-0.663-0.676-1-1-0.087-0.09-0.193-0.161-0.281-0.25-0.199-0.188-0.39-0.379-0.594-0.563-0.048-0.046-0.077-0.11-0.125-0.156-0.328-0.339-0.658-0.672-1-1-0.328-0.339-0.658-0.672-1-1-0.322-0.333-0.633-0.677-0.969-1-0.324-0.334-0.663-0.676-1-1-0.324-0.334-0.663-0.676-1-1-0.087-0.09-0.193-0.161-0.281-0.25-0.199-0.188-0.39-0.379-0.594-0.563-0.048-0.046-0.077-0.11-0.125-0.156-0.328-0.339-0.658-0.672-1-1-0.328-0.339-0.658-0.672-1-1-0.328-0.339-0.658-0.672-1-1-0.322-0.333-0.633-0.677-0.969-1-0.324-0.334-0.663-0.676-1-1-0.22-0.227-0.461-0.434-0.688-0.656-0.428-0.453-0.86-0.878-1.313-1.313-0.328-0.339-0.658-0.672-1-1-0.328-0.339-0.658-0.672-1-1-0.322-0.333-0.633-0.677-0.969-1-0.324-0.334-0.663-0.676-1-1-0.324-0.334-0.663-0.676-1-1-0.327-0.337-0.659-0.642-1-0.969-0.328-0.339-0.658-0.672-1-1-0.328-0.339-0.658-0.672-1-1-0.322-0.333-0.633-0.677-0.969-1-0.324-0.334-0.663-0.676-1-1-0.324-0.334-0.663-0.676-1-1-0.087-0.09-0.193-0.161-0.281-0.25-0.199-0.188-0.39-0.379-0.594-0.563-0.048-0.046-0.077-0.11-0.125-0.156-0.328-0.339-0.658-0.672-1-1-0.328-0.339-0.658-0.672-1-1-0.328-0.339-0.658-0.672-1-1-0.322-0.333-0.633-0.677-0.969-1-0.324-0.334-0.663-0.676-1-1-0.087-0.09-0.193-0.161-0.281-0.25-0.199-0.188-0.39-0.379-0.594-0.563-0.048-0.046-0.077-0.11-0.125-0.156-0.328-0.339-0.658-0.672-1-1-0.328-0.339-0.658-0.672-1-1-0.328-0.339-0.658-0.672-1-1-0.322-0.333-0.633-0.677-0.969-1-0.324-0.334-0.663-0.676-1-1-0.324-0.334-0.663-0.676-1-1-0.327-0.337-0.659-0.642-1-0.969-0.328-0.339-0.658-0.672-1-1-0.328-0.339-0.658-0.672-1-1-0.322-0.333-0.633-0.677-0.969-1-0.324-0.334-0.663-0.676-1-1-0.324-0.334-0.663-0.676-1-1-0.327-0.337-0.659-0.642-1-0.969-0.328-0.339-0.658-0.672-1-1-0.328-0.339-0.658-0.672-1-1-0.322-0.333-0.633-0.677-0.969-1-0.324-0.334-0.663-0.676-1-1-0.324-0.334-0.663-0.676-1-1-0.087-0.09-0.193-0.161-0.281-0.25-0.199-0.188-0.39-0.379-0.594-0.563-0.048-0.046-0.077-0.11-0.125-0.156-0.328-0.339-0.658-0.672-1-1-0.328-0.339-0.658-0.672-1-1-0.328-0.339-0.658-0.672-1-1-0.322-0.333-0.633-0.677-0.969-1-0.324-0.334-0.663-0.676-1-1-0.22-0.227-0.461-0.434-0.688-0.656-0.428-0.453-0.86-0.878-1.313-1.313-0.328-0.339-0.658-0.672-1-1-0.328-0.339-0.658-0.672-1-1-2.867-2.962-6.263-5.52-10.156-7.5-5.561-2.83-11.516-4.218-17.219-4.188m-39.781 148.81c0.009 0.032 0.016 0.062 0.031 0.094-0.02 0.011-0.042 0.021-0.063 0.031 0.011-0.042 0.021-0.083 0.031-0.125" />
  <path
     style="fill-opacity:0.06700003;fill-rule:evenodd"
     inkscape:connector-curvature="0"
     d="M 256,1 C 115.17,1 1,115.17 1,256 1,396.83 115.17,511 256,511 396.83,511 511,396.83 511,256 511,115.17 396.83,1 256,1 m 8.827,44.931 c 120.9,0 218.9,98 218.9,218.9 0,120.9 -98,218.9 -218.9,218.9 -120.9,0 -218.93,-98 -218.93,-218.9 0,-120.9 98.03,-218.9 218.93,-218.9"
     id="path10" />
  <g
     style="fill-opacity:0.12900002;fill-rule:evenodd"
     id="g12">
    <path
       inkscape:connector-curvature="0"
       d="m 256,4.433 c -138.94,0 -251.57,112.63 -251.57,251.57 0,138.94 112.63,251.57 251.57,251.57 138.94,0 251.57,-112.63 251.57,-251.57 C 507.57,117.063 394.94,4.433 256,4.433 m 5.885,38.556 c 120.9,0 218.9,98 218.9,218.9 0,120.9 -98,218.9 -218.9,218.9 -120.9,0 -218.93,-98 -218.93,-218.9 0,-120.9 98.03,-218.9 218.93,-218.9"
       id="path14" />
    <path
       inkscape:connector-curvature="0"
       d="m 256,8.356 c -136.77,0 -247.64,110.87 -247.64,247.64 0,136.77 110.87,247.64 247.64,247.64 136.77,0 247.64,-110.87 247.64,-247.64 C 503.64,119.226 392.77,8.356 256,8.356 m 2.942,31.691 c 120.9,0 218.9,98 218.9,218.9 0,120.9 -98,218.9 -218.9,218.9 -120.9,0 -218.93,-98 -218.93,-218.9 0,-120.9 98.03,-218.9 218.93,-218.9"
       id="path16" />
  </g>
  <path
     style="fill:#ffffff;fill-rule:evenodd;stroke:#000000;stroke-width:4.90399981;stroke-opacity:0.31000001"
     inkscape:connector-curvature="0"
     d="m 253.04,7.859 c -135.42,0 -245.19,109.78 -245.19,245.19 0,135.42 109.78,245.19 245.19,245.19 135.42,0 245.19,-109.78 245.19,-245.19 0,-135.42 -109.78,-245.19 -245.19,-245.19 z m 0,26.297 c 120.9,0 218.9,98 218.9,218.9 0,120.9 -98,218.9 -218.9,218.9 -120.9,0 -218.93,-98 -218.93,-218.9 0,-120.9 98.03,-218.9 218.93,-218.9 z"
     id="path18" />
  <g
     id="g66"
     fill="#fff">
    <path
       id="path68"
       d="m248.56 103.75c-12.546 0.069-24.296 6.804-29.904 18.415-8.157 16.889-0.292 37.807 17.505 46.86 17.796 9.05 38.814 2.816 46.971-14.07 8.157-16.889 0.437-37.957-17.359-47.01-5.561-2.83-11.51-4.223-17.213-4.192m-8.606 17.816c3.976-0.402 8.168 0.392 12.11 2.394 10.505 5.344 15.172 17.727 10.357 27.697s-17.211 13.728-27.716 8.384-15.172-17.727-10.357-27.697c3.01-6.231 8.982-10.11 15.608-10.779z" />
    <path
       id="path70"
       d="m205.55 245.79c-37.854 19.779-82.13 49.653-68.982 76.65 17.741 36.437 103.8 47.551 147.9 28.894-21.657-23.473-87.02-57.16-80.955-96.57 0.475-3.087 1.192-6.03 2.041-8.983" />
    <path
       id="path72"
       d="m297.44 185.78c-29.768-7.923-78.57 23.1-85.73 66.42-7.153 43.32 78.48 79.84 92.37 103.35 13.893 23.503 6.676 52.703 6.676 52.703s60.43-49.09 66.56-114.06c6.134-64.971-49.24-100.26-79.885-108.41" />
  </g>
  <path
     id="path74"
     fill="#8a0"
     d="m264.32 154.69a23.789 20.438 34.983 1 1 -40.629 -24.692 23.789 20.438 34.983 1 1 40.629 24.692"
     style="fill:#BF9E73;fill-opacity:1" />
</svg>
