<?xml version="1.0" encoding="UTF-8" standalone="no"?>
<svg xmlns="http://www.w3.org/2000/svg" xmlns:sodipodi="http://sodipodi.sourceforge.net/DTD/sodipodi-0.dtd" xmlns:inkscape="http://www.inkscape.org/namespaces/inkscape" version="1.1" viewBox="0 0 512 512">
 <metadata id="metadata4822"/>
 <g id="g4754" fill-rule="evenodd">
  <path inkscape:connector-curvature="0" id="path4756" d="m 476.62,256 a 220.62,220.62 0 0 1 -441.24,0 220.62,220.62 0 1 1 441.24,0" fill="#BF9E73"/>
  <path inkscape:connector-curvature="0" id="path4758" d="m 313.13,69.59 c -1.604,1.948 -3.209,3.896 -4.814,5.844 l 3.223,3.223 c -10e-4,0.003 -10e-4,0.006 -0.002,0.01 L 308.31,75.44 c -55.822,71.16 -110,143.61 -164.97,215.44 l 68.754,68.754 c -6.762,27.529 -13.439,55.08 -19.475,82.78 l 31.801,31.801 a 220.62,220.62 0 0 0 252.2,-218.21 220.62,220.62 0 0 0 -1.6016,-24.525 L 313.1384,69.6" opacity="0.25"/>
  <path inkscape:connector-curvature="0" id="path4760" d="M 256,1 C 115.17,1 1,115.17 1,256 1,396.83 115.17,511 256,511 396.83,511 511,396.83 511,256 511,115.17 396.83,1 256,1 m 8.827,44.931 c 120.9,0 218.9,98 218.9,218.9 0,120.9 -98,218.9 -218.9,218.9 -120.9,0 -218.93,-98 -218.93,-218.9 0,-120.9 98.03,-218.9 218.93,-218.9" fill-opacity="0.067"/>
  <g id="g4762" fill-opacity="0.129">
   <path inkscape:connector-curvature="0" id="path4764" d="m 256,4.433 c -138.94,0 -251.57,112.63 -251.57,251.57 0,138.94 112.63,251.57 251.57,251.57 138.94,0 251.57,-112.63 251.57,-251.57 C 507.57,117.063 394.94,4.433 256,4.433 m 5.885,38.556 c 120.9,0 218.9,98 218.9,218.9 0,120.9 -98,218.9 -218.9,218.9 -120.9,0 -218.93,-98 -218.93,-218.9 0,-120.9 98.03,-218.9 218.93,-218.9"/>
   <path inkscape:connector-curvature="0" id="path4766" d="m 256,8.356 c -136.77,0 -247.64,110.87 -247.64,247.64 0,136.77 110.87,247.64 247.64,247.64 136.77,0 247.64,-110.87 247.64,-247.64 C 503.64,119.226 392.77,8.356 256,8.356 m 2.942,31.691 c 120.9,0 218.9,98 218.9,218.9 0,120.9 -98,218.9 -218.9,218.9 -120.9,0 -218.93,-98 -218.93,-218.9 0,-120.9 98.03,-218.9 218.93,-218.9"/>
  </g>
  <path inkscape:connector-curvature="0" id="path4768" d="m 253.04,7.859 c -135.42,0 -245.19,109.78 -245.19,245.19 0,135.42 109.78,245.19 245.19,245.19 135.42,0 245.19,-109.78 245.19,-245.19 0,-135.42 -109.78,-245.19 -245.19,-245.19 z m 0,26.297 c 120.9,0 218.9,98 218.9,218.9 0,120.9 -98,218.9 -218.9,218.9 -120.9,0 -218.93,-98 -218.93,-218.9 0,-120.9 98.03,-218.9 218.93,-218.9 z" stroke-opacity="0.31" fill="#ffffff" stroke="#000000" stroke-width="4.904"/>
 </g>
 <path inkscape:connector-curvature="0" id="path4816" d="m 308.31,75.44 c -55.822,71.16 -110,143.61 -164.97,215.44 28.479,0.031 56.958,0.212 85.44,0.25 -11.946,50.45 -25.12,100.62 -36.16,151.28 177.02,-216.95 122.22,-149.85 176.03,-217.72 -27.925,-0.43 -55.854,-0.281 -83.78,-0.313 9.317,-51.611 19.291,-103.1 28.25,-154.78 -1.604,1.948 -3.208,3.896 -4.813,5.844" fill="#ffffff" fill-rule="evenodd"/>
</svg>
