<?xml version="1.0" encoding="UTF-8" standalone="no"?>
<svg xmlns="http://www.w3.org/2000/svg" height="512" viewBox="0 0 512 512" width="512" version="1.1">
 <metadata id="metadata72"/>
 <path id="path4" d="m471.95 253.05c0 120.9-98.01 218.9-218.9 218.9-120.9 0-218.9-98.01-218.9-218.9 0-120.9 98.01-218.9 218.9-218.9 120.9 0 218.9 98.01 218.9 218.9" fill-rule="evenodd" fill="#BF9E73"/>
 <path id="path6" fill-opacity="0.235" d="m251.97 129.41c-39.797 21.311-80.14 42.04-123.37 55.53-28.848 10.773-6.695 46.25-3.781 66.906 16.13 52.862 48.51 99.2 88.78 136.5 26.675 26.574 53.27 53.23 79.875 79.875 96.24-17.974 170.33-98.91 177.84-198.44-27.422-26.881-55.03-53.683-79.16-79.34-13.362-3.58-4.524 3.461-11.75-5.063-43.29-17.528-87.07-34.14-128.44-55.969"/>
 <path id="path8" fill="#fff" d="m251.96 129.41-37.695 19.764c-20.731 10.872-51.799 24.348-69.11 29.973-35.843 11.648-36.09 12.424-24.345 58.64 16.14 63.48 59.17 127.98 104.58 156.8 25.858 16.411 31.693 16.388 54.32-0.131 50.39-36.789 87.91-96.23 104.32-164.92 5.01-20.987 8.685-38.578 8.115-39.13-0.57-0.557-22.8-9.589-49.34-20.16-26.544-10.567-57.797-24.16-69.5-30.1l-21.334-10.733m-7.199 74.47h16.361c19.351 0 34.946 15.465 34.946 34.816v24.606h10.733v69.11h-107.59v-69.11h10.602v-24.606c0-19.351 15.596-34.816 34.946-34.816m-2.487 17.539c-9.612 0-17.277 7.665-17.277 17.277v24.606h55.888v-24.606c0-9.612-7.665-17.277-17.277-17.277h-21.334"/>
 <g id="g10" fill-rule="evenodd">
  <path id="path12" fill-opacity="0.067" d="m256 1c-140.83 0-255 114.17-255 255s114.17 255 255 255 255-114.17 255-255-114.17-255-255-255m8.827 44.931c120.9 0 218.9 98 218.9 218.9s-98 218.9-218.9 218.9-218.93-98-218.93-218.9 98.03-218.9 218.93-218.9"/>
  <g id="g14" fill-opacity="0.129">
   <path id="path16" d="m256 4.433c-138.94 0-251.57 112.63-251.57 251.57s112.63 251.57 251.57 251.57 251.57-112.63 251.57-251.57-112.63-251.57-251.57-251.57m5.885 38.556c120.9 0 218.9 98 218.9 218.9s-98 218.9-218.9 218.9-218.93-98-218.93-218.9 98.03-218.9 218.93-218.9"/>
   <path id="path18" d="m256 8.356c-136.77 0-247.64 110.87-247.64 247.64s110.87 247.64 247.64 247.64 247.64-110.87 247.64-247.64-110.87-247.64-247.64-247.64m2.942 31.691c120.9 0 218.9 98 218.9 218.9s-98 218.9-218.9 218.9-218.93-98-218.93-218.9 98.03-218.9 218.93-218.9"/>
  </g>
  <path id="path20" d="m253.04 7.859c-135.42 0-245.19 109.78-245.19 245.19 0 135.42 109.78 245.19 245.19 245.19 135.42 0 245.19-109.78 245.19-245.19 0-135.42-109.78-245.19-245.19-245.19zm0 26.297c120.9 0 218.9 98 218.9 218.9s-98 218.9-218.9 218.9-218.93-98-218.93-218.9 98.03-218.9 218.93-218.9z" stroke-opacity="0.31" stroke="#000" stroke-width="4.904" fill="#fff"/>
 </g>
</svg>
