<?xml version="1.0" encoding="UTF-8" standalone="no"?>
<svg xmlns="http://www.w3.org/2000/svg" viewBox="0 0 512 512">
 <text font-size="208.33" y="549.52" x="-1160.48" font-family="Gentium Book Basic" line-height="125%" word-spacing="0" letter-spacing="0"><tspan y="549.52" x="-1160.48"/>
 </text>
 <text transform="scale(4.0128.2492)" font-size="75.7" y="1642.24" x="28.534" font-family="Arial" text-anchor="middle"/>
 <g fill-rule="evenodd">
  <path d="m471.95 253.05c0 120.9-98.01 218.9-218.9 218.9-120.9 0-218.9-98.01-218.9-218.9 0-120.9 98.01-218.9 218.9-218.9 120.9 0 218.9 98.01 218.9 218.9" fill="#BF9E73"/>
  <path d="m256 1c-140.83 0-255 114.17-255 255s114.17 255 255 255 255-114.17 255-255-114.17-255-255-255m8.827 44.931c120.9 0 218.9 98 218.9 218.9s-98 218.9-218.9 218.9-218.93-98-218.93-218.9 98.03-218.9 218.93-218.9" fill-opacity="0.067"/>
  <g fill-opacity="0.129">
   <path d="m256 4.43c-138.94 0-251.57 112.63-251.57 251.57s112.63 251.57 251.57 251.57 251.57-112.63 251.57-251.57-112.63-251.57-251.57-251.57m5.885 38.556c120.9 0 218.9 98 218.9 218.9s-98 218.9-218.9 218.9-218.93-98-218.93-218.9 98.03-218.9 218.93-218.9"/>
   <path d="m256 8.36c-136.77 0-247.64 110.87-247.64 247.64s110.87 247.64 247.64 247.64 247.64-110.87 247.64-247.64-110.87-247.64-247.64-247.64m2.942 31.691c120.9 0 218.9 98 218.9 218.9s-98 218.9-218.9 218.9-218.93-98-218.93-218.9 98.03-218.9 218.93-218.9"/>
  </g>
  <path stroke="#000" stroke-width="4.904" d="m253.04 7.86c-135.42 0-245.19 109.78-245.19 245.19 0 135.42 109.78 245.19 245.19 245.19 135.42 0 245.19-109.78 245.19-245.19 0-135.42-109.78-245.19-245.19-245.19zm0 26.297c120.9 0 218.9 98 218.9 218.9s-98 218.9-218.9 218.9-218.93-98-218.93-218.9 98.03-218.9 218.93-218.9z" stroke-opacity="0.31" fill="#fff"/>
 </g>
 <g fill-rule="evenodd">
  <path opacity="0.25" d="m255.81 101.07c-43.743 0-79.31 36.882-79.31 82.79 0 23.68 9.467 45.08 24.639 60.25l69.05 69.05c-4.717 0.573-9.512 0.873-14.373 0.873-27.687 0-53.28-9.554-73.951-25.689-31.956 7.963-58.45 48.731-57.24 98.73l79.36 79.36c15.776 3.614 32.2 5.525 49.07 5.525 110.65 0 202.12-82.11 216.82-188.73l-159.16-159.16c-14.259-14.259-33.612-22.994-54.9-22.994"/>
  <path d="m255.82 101.07c-43.743 0-79.31 36.883-79.31 82.79 0 45.902 35.572 83.24 79.31 83.24 43.743 0 79.31-37.34 79.31-83.24 0-45.902-35.572-82.79-79.31-82.79m-73.952 187.27c-31.956 7.963-58.45 48.733-57.24 98.73h262.76c1.144-50-25.59-90.79-57.62-98.73-20.669 16.14-46.26 25.69-73.952 25.69-27.687 0-53.28-9.555-73.952-25.69" fill="#fff"/>
 </g>
</svg>
