<?xml version="1.0" encoding="UTF-8" standalone="no"?>
<svg xmlns="http://www.w3.org/2000/svg" viewBox="0 0 512 512">
 <g font-family="Gentium Book Basic" line-height="125%" font-size="208.33" word-spacing="0" letter-spacing="0">
 </g>
 <g fill-rule="evenodd">
  <path d="m471.95 253.05c0 120.9-98.01 218.9-218.9 218.9-120.9 0-218.9-98.01-218.9-218.9 0-120.9 98.01-218.9 218.9-218.9 120.9 0 218.9 98.01 218.9 218.9" fill="#BF9E73"/>
  <path d="m256 1c-140.83 0-255 114.17-255 255s114.17 255 255 255 255-114.17 255-255-114.17-255-255-255m8.827 44.931c120.9 0 218.9 98 218.9 218.9s-98 218.9-218.9 218.9-218.93-98-218.93-218.9 98.03-218.9 218.93-218.9" fill-opacity="0.067"/>
  <g fill-opacity="0.129">
   <path d="m256 4.433c-138.94 0-251.57 112.63-251.57 251.57s112.63 251.57 251.57 251.57 251.57-112.63 251.57-251.57-112.63-251.57-251.57-251.57m5.885 38.556c120.9 0 218.9 98 218.9 218.9s-98 218.9-218.9 218.9-218.93-98-218.93-218.9 98.03-218.9 218.93-218.9"/>
   <path d="m256 8.356c-136.77 0-247.64 110.87-247.64 247.64s110.87 247.64 247.64 247.64 247.64-110.87 247.64-247.64-110.87-247.64-247.64-247.64m2.942 31.691c120.9 0 218.9 98 218.9 218.9s-98 218.9-218.9 218.9-218.93-98-218.93-218.9 98.03-218.9 218.93-218.9"/>
  </g>
  <path stroke="#000" stroke-width="4.904" d="m253.04 7.859c-135.42 0-245.19 109.78-245.19 245.19 0 135.42 109.78 245.19 245.19 245.19 135.42 0 245.19-109.78 245.19-245.19 0-135.42-109.78-245.19-245.19-245.19zm0 26.297c120.9 0 218.9 98 218.9 218.9s-98 218.9-218.9 218.9-218.93-98-218.93-218.9 98.03-218.9 218.93-218.9z" stroke-opacity="0.31" fill="#fff"/>
 </g>
 <path opacity="0.25" d="m256 96.31c-59.26 0-107.3 48.04-107.3 107.29 0 29.62 12 56.43 31.412 75.838l68.27 68.27 2.746 25.02-31.66-9.04-2.385 15.365 18.484 18.484-0.381 0.514-34.36-34.36-4.494 1.268-24.22-24.22h-16.293l3.51 31.99-31.658-9.04-2.352 15.365 18.465 18.465-7.67 10.348 55.26 55.26c19.563 5.734 40.26 8.822 61.676 8.822 116.04 0 210.98-90.29 218.41-204.46l-136.25-136.25c-19.62-21.465-47.847-34.93-79.22-34.93"/>
 <path d="m256 96.31c-59.26 0-107.3 48.04-107.3 107.3s48.04 107.26 107.3 107.26 107.3-48.01 107.3-107.26c0-59.26-48.04-107.3-107.3-107.3m0 16.26c50.28 0 91.04 40.757 91.04 91.04 0 50.28-40.757 91-91.04 91-50.28 0-91.04-40.724-91.04-91 0-50.28 40.757-91.04 91.04-91.04m0 28.12c-16.953 0-30.734 13.677-30.864 30.599-0.001 0.081 0 0.151 0 0.232v12.352h11.591v-11.888c0.081-10.577 8.678-19.11 19.274-19.11s19.19 8.531 19.274 19.11v11.888h11.591v-12.352c0-0.081 0.001-0.151 0-0.232-0.13-16.923-13.911-30.599-30.864-30.599m-29.407 50.8c-8.813 0-15.929 7.083-15.929 15.896v43.22c0 8.813 7.116 15.896 15.929 15.896h58.814c8.813 0 15.929-7.083 15.929-15.896v-43.22c0-8.813-7.116-15.896-15.929-15.896h-58.814m29.407 17.253c6.256 0 11.326 5.04 11.326 11.293 0 3.634-1.71 6.869-4.371 8.941v13.346c0 3.867-3.088 6.954-6.954 6.954-3.867 0-6.954-3.088-6.954-6.954v-13.346c-2.661-2.073-4.371-5.307-4.371-8.941 0-6.256 5.07-11.293 11.326-11.293m-100.18 132l3.51 31.99-31.659-9.04-2.351 15.366 30.334 2.451-19.538 26.36 14.836 7.815 12.849-29.14 14.14 29.14 14.339-7.815-19.77-26.36 30.599-2.451-2.285-15.366-32.06 9.04 3.345-31.99h-16.293m91.8 0l3.51 31.99-31.659-9.04-2.384 15.366 30.367 2.451-19.538 26.36 14.803 7.815 12.882-29.14 14.14 29.14 14.339-7.815-19.77-26.36 30.599-2.451-2.285-15.366-32.06 9.04 3.312-31.99h-16.26m91.8 0l3.477 31.99-31.659-9.04-2.351 15.366 30.367 2.451-19.539 26.36 14.803 7.815 12.882-29.14 14.14 29.14 14.339-7.815-19.803-26.36 30.599-2.451-2.252-15.366-32.09 9.04 3.345-31.99h-16.26" fill="#fff"/>
</svg>
