<?xml version="1.0" encoding="UTF-8" standalone="no"?>
<svg xmlns="http://www.w3.org/2000/svg" height="512" viewBox="0 0 512 512" width="512" version="1.1">
 <metadata id="metadata74"/>
 <g id="g4" fill-rule="evenodd">
  <path id="path6" fill="#BF9E73" d="m471.95 253.05c0 120.9-98.01 218.9-218.9 218.9-120.9 0-218.9-98.01-218.9-218.9 0-120.9 98.01-218.9 218.9-218.9 120.9 0 218.9 98.01 218.9 218.9"/>
  <path id="path8" fill-opacity="0.067" d="m256 1c-140.83 0-255 114.17-255 255s114.17 255 255 255 255-114.17 255-255-114.17-255-255-255m8.827 44.931c120.9 0 218.9 98 218.9 218.9s-98 218.9-218.9 218.9-218.93-98-218.93-218.9 98.03-218.9 218.93-218.9"/>
  <g id="g10" fill-opacity="0.129">
   <path id="path12" d="m256 4.433c-138.94 0-251.57 112.63-251.57 251.57s112.63 251.57 251.57 251.57 251.57-112.63 251.57-251.57-112.63-251.57-251.57-251.57m5.885 38.556c120.9 0 218.9 98 218.9 218.9s-98 218.9-218.9 218.9-218.93-98-218.93-218.9 98.03-218.9 218.93-218.9"/>
   <path id="path14" d="m256 8.356c-136.77 0-247.64 110.87-247.64 247.64s110.87 247.64 247.64 247.64 247.64-110.87 247.64-247.64-110.87-247.64-247.64-247.64m2.942 31.691c120.9 0 218.9 98 218.9 218.9s-98 218.9-218.9 218.9-218.93-98-218.93-218.9 98.03-218.9 218.93-218.9"/>
  </g>
  <path id="path16" d="m253.04 7.859c-135.42 0-245.19 109.78-245.19 245.19 0 135.42 109.78 245.19 245.19 245.19 135.42 0 245.19-109.78 245.19-245.19 0-135.42-109.78-245.19-245.19-245.19zm0 26.297c120.9 0 218.9 98 218.9 218.9s-98 218.9-218.9 218.9-218.93-98-218.93-218.9 98.03-218.9 218.93-218.9z" stroke-opacity="0.31" stroke="#000" stroke-width="4.904" fill="#fff"/>
 </g>
 <g id="g64" fill-rule="evenodd">
  <path id="path66" fill-opacity="0.235" d="m336.38 99.97c-25.969-0.273-51.27 15.856-61.34 39.906 63.741 61.59 121.02 120.98 176.84 175.66 1.929 2.563 5.397 6.01 8.469 7.969 7.513-22.11 11.594-45.786 11.594-70.44 0-17.683-2.104-34.875-6.06-51.34-25.487-25.807-57.3-57.6-72.938-73.16-10.626-11.88-25.723-24.647-43.625-27.406-4.26-0.814-8.6-1.217-12.938-1.188m-89.06 61.31c-40.43 0.884-78.3 31.488-85.53 71.78-7.518 33.64 6.925 69.2 32.28 91.41 44.46 44.48 92.59 92.22 134.22 134.19 59.795-21.885 107.35-69.1 129.72-128.66-48.31-47.897-99.88-99.94-144.37-144.66-17.761-14.4-39.02-24.502-62.41-24.03-1.309-0.034-2.602-0.06-3.906-0.031m-108.62 114.94c-36.14 14.473-51.2 62.812-30.625 95.59 21 26.75 66.841 68.69 93.38 94 16.549 3.999 33.816 6.156 51.594 6.156 5.221 0 10.402-0.203 15.531-0.563 15.3-4.153 30.25-8.592 49.563-9.281 0.022-0.007 0.041-0.024 0.063-0.031 1.305-0.406 2.611-0.851 3.906-1.281-60.828-61.686-118.99-119.25-176.28-176.84-3.207-2.554-6.01-3.988-7.125-7.75"/>
  <path id="path68" fill="#fff" d="m186.6 187.79c-35.593 35.598-35.593 93.63 0 129.23 35.598 35.593 93.63 35.593 129.23 0 35.593-35.598 35.593-93.63 0-129.23-35.598-35.593-93.63-35.593-129.23 0m-67.912 101.87c-26.22 26.22-26.69 69.53-0.474 95.75 26.22 26.22 69.53 25.743 95.75-0.474 5.881-5.876 9.966-12.635 13.209-19.803-21.11-4.494-41.14-14.733-57.54-31.13-16.397-16.397-26.634-36.434-31.13-57.54-7.172 3.241-13.932 7.326-19.803 13.209m169.8-169.8c-5.881 5.876-10 12.673-13.209 19.803 21.11 4.494 41.14 14.733 57.54 31.13 16.397 16.397 26.634 36.434 31.13 57.54 7.134-3.207 13.932-7.326 19.803-13.209 26.22-26.22 26.69-69.53 0.474-95.75-26.22-26.22-69.53-25.743-95.75 0.474"/>
 </g>
</svg>
