<?xml version="1.0" encoding="UTF-8" standalone="no"?>
<svg
   xmlns:dc="http://purl.org/dc/elements/1.1/"
   xmlns:cc="http://creativecommons.org/ns#"
   xmlns:rdf="http://www.w3.org/1999/02/22-rdf-syntax-ns#"
   xmlns:svg="http://www.w3.org/2000/svg"
   xmlns="http://www.w3.org/2000/svg"
   xmlns:sodipodi="http://sodipodi.sourceforge.net/DTD/sodipodi-0.dtd"
   xmlns:inkscape="http://www.inkscape.org/namespaces/inkscape"
   height="512"
   viewBox="0 0 512 512"
   width="512"
   version="1.1"
   id="svg2"
   inkscape:version="0.91 r13725"
   sodipodi:docname="pychess.svg">
  <defs
     id="defs16" />
  <sodipodi:namedview
     pagecolor="#ffffff"
     bordercolor="#666666"
     borderopacity="1"
     objecttolerance="10"
     gridtolerance="10"
     guidetolerance="10"
     inkscape:pageopacity="0"
     inkscape:pageshadow="2"
     inkscape:window-width="1680"
     inkscape:window-height="1024"
     id="namedview14"
     showgrid="false"
     inkscape:zoom="0.4609375"
     inkscape:cx="218.0339"
     inkscape:cy="256"
     inkscape:window-x="0"
     inkscape:window-y="0"
     inkscape:window-maximized="0"
     inkscape:current-layer="svg2" />
  <metadata
     id="metadata72">
    <rdf:RDF>
      <cc:Work
         rdf:about="">
        <dc:format>image/svg+xml</dc:format>
        <dc:type
           rdf:resource="http://purl.org/dc/dcmitype/StillImage" />
      </cc:Work>
    </rdf:RDF>
  </metadata>
  <path
     id="path4"
     d="m471.95 253.05c0 120.9-98.01 218.9-218.9 218.9-120.9 0-218.9-98.01-218.9-218.9 0-120.9 98.01-218.9 218.9-218.9 120.9 0 218.9 98.01 218.9 218.9"
     fill-rule="evenodd"
     fill="#BF9E73" />
  <path
     id="path6"
     fill-opacity="0.235"
     d="m255.06 123.75c-25.614 4.411-6.293 26.06-3.156 37.5-1.911 16.479 12.673 44.486-16.688 15.13-14.06-13.05-26.296-28.51-41.719-39.781-18.448-4.62-17.211 16.668-16.474 23.772 7.487 7.103 5.144 5.02 9.881 9.76-3.423 11.418 30.21 72.3-12.156 29.938-14.449-13.12-26.574-29.398-42.781-40.12-26.944-3.01-19.445 27.27-3.125 36 7.144 21.45 13.878 50.753 18.06 73.66-2.055 22.31 11.595 38.568 25.656 54 15.723 17.917 2.32 33.855-5.25 51.844 32.2 32.03 64.32 64.12 96.31 96.25 115.98-5.519 208.31-101.28 208.31-218.62 0-4.256-0.135-8.492-0.375-12.688l-75.81-75.81c-14.229-13.783-28.05 15.311-26.03 10.576-12.821-11.888-26.505-28.434-40.687-38.545-19.1-6.847-26.503 19.842-9.894 28.17-1.875 20.701 20.642 36.489-22.294-6.446-11.936-10.987-22.19-24.17-35.34-33.563-2.04-0.924-4.251-1.01-6.438-1" />
  <g
     id="g8"
     fill-rule="evenodd">
    <path
       id="path10"
       fill-opacity="0.067"
       d="m256 1c-140.83 0-255 114.17-255 255s114.17 255 255 255 255-114.17 255-255-114.17-255-255-255m8.827 44.931c120.9 0 218.9 98 218.9 218.9s-98 218.9-218.9 218.9-218.93-98-218.93-218.9 98.03-218.9 218.93-218.9" />
    <g
       id="g12"
       fill-opacity="0.129">
      <path
         id="path14"
         d="m256 4.433c-138.94 0-251.57 112.63-251.57 251.57s112.63 251.57 251.57 251.57 251.57-112.63 251.57-251.57-112.63-251.57-251.57-251.57m5.885 38.556c120.9 0 218.9 98 218.9 218.9s-98 218.9-218.9 218.9-218.93-98-218.93-218.9 98.03-218.9 218.93-218.9" />
      <path
         id="path16"
         d="m256 8.356c-136.77 0-247.64 110.87-247.64 247.64s110.87 247.64 247.64 247.64 247.64-110.87 247.64-247.64-110.87-247.64-247.64-247.64m2.942 31.691c120.9 0 218.9 98 218.9 218.9s-98 218.9-218.9 218.9-218.93-98-218.93-218.9 98.03-218.9 218.93-218.9" />
    </g>
    <path
       id="path18"
       d="m253.04 7.859c-135.42 0-245.19 109.78-245.19 245.19 0 135.42 109.78 245.19 245.19 245.19 135.42 0 245.19-109.78 245.19-245.19 0-135.42-109.78-245.19-245.19-245.19zm0 26.297c120.9 0 218.9 98 218.9 218.9s-98 218.9-218.9 218.9-218.93-98-218.93-218.9 98.03-218.9 218.93-218.9z"
       stroke-opacity="0.31"
       stroke="#000"
       stroke-width="4.904"
       fill="#fff" />
  </g>
  <path
     id="path66"
     fill="#BF9E73"
     d="m212.99 387.94c-12.526-0.864-24.17-3.258-33.511-6.89-5.652-2.197-12.708-5.775-13.324-6.756-0.194-0.308 2.245-6.436 5.418-13.617 3.174-7.181 5.771-13.369 5.771-13.751 0-0.747-9.591-22.584-11.486-26.15-0.629-1.185-6.04-8.02-12.01-15.181l-10.869-13.03-0.717-5.727c-0.394-3.15-3.355-26.491-6.579-51.869l-5.862-46.14-3.446-0.424c-9.95-1.223-15.892-9.931-12.876-18.868 1.282-3.798 3.242-6.147 6.89-8.258 2.386-1.38 3.495-1.626 7.348-1.626s4.962 0.245 7.348 1.626c3.648 2.111 5.608 4.459 6.89 8.258 2.189 6.486-0.661 13.74-6.707 17.07-0.699 0.385 3.776 9.903 22.19 47.2 12.688 25.693 23.11 46.763 23.15 46.823 0.124 0.165 6.475-111.81 6.443-113.61-0.024-1.342-0.401-1.659-2.63-2.211-3.612-0.895-7.29-3.686-9.307-7.06-1.464-2.451-1.704-3.489-1.704-7.365 0-3.981 0.216-4.857 1.833-7.442 6.08-9.721 19.9-9.721 25.98 0 1.621 2.592 1.833 3.456 1.833 7.489 0 4.03-0.213 4.9-1.826 7.489-1.09 1.749-3.055 3.729-4.875 4.912l-3.049 1.981 19.09 54.43c10.5 29.937 19.228 54.43 19.396 54.43 0.21 0 20.05-111.07 21.405-119.86 0.041-0.265-0.947-0.836-2.196-1.27-3.338-1.159-6.255-3.576-8.153-6.753-1.434-2.401-1.677-3.461-1.677-7.32 0-3.981 0.216-4.857 1.833-7.442 6.08-9.721 19.9-9.721 25.98 0 1.617 2.585 1.833 3.461 1.833 7.442 0 3.859-0.243 4.919-1.677 7.32-1.898 3.177-4.815 5.594-8.153 6.753-1.248 0.434-2.236 1.01-2.196 1.27 1.359 8.783 21.2 119.86 21.405 119.86 0.168 0 8.896-24.494 19.396-54.43l19.09-54.43-3.049-1.981c-1.82-1.183-3.786-3.163-4.876-4.912-1.613-2.589-1.826-3.462-1.826-7.489 0-4.03 0.211-4.897 1.833-7.489 6.08-9.721 19.9-9.721 25.98 0 1.617 2.585 1.833 3.461 1.833 7.442 0 3.876-0.24 4.914-1.704 7.365-2.02 3.377-5.694 6.168-9.307 7.06-2.228 0.552-2.606 0.87-2.63 2.211-0.032 1.795 6.319 113.77 6.443 113.61 0.045-0.06 10.463-21.13 23.15-46.823 18.418-37.29 22.893-46.811 22.19-47.2-6.05-3.33-8.897-10.584-6.707-17.07 1.282-3.798 3.242-6.147 6.89-8.258 2.386-1.38 3.495-1.626 7.348-1.626s4.962 0.245 7.348 1.626c3.648 2.111 5.608 4.459 6.89 8.258 3.02 8.937-2.926 17.645-12.876 18.868l-3.446 0.424-5.862 46.14c-3.224 25.378-6.185 48.719-6.579 51.869l-0.717 5.727-10.869 13.03c-5.978 7.165-11.384 13.997-12.01 15.181-1.896 3.569-11.486 25.405-11.486 26.15 0 0.382 2.597 6.57 5.771 13.751s5.612 13.309 5.418 13.617c-1.388 2.21-15.937 8.209-25.288 10.426-13.549 3.213-16.259 3.372-60.32 3.522-22.461 0.078-43.719-0.059-47.24-0.301z"
     style="fill:#ffffff" />
</svg>
