<?xml version="1.0" encoding="UTF-8" standalone="no"?>
<svg xmlns="http://www.w3.org/2000/svg" height="512" viewBox="0 0 512 512" width="512" version="1.1">
 <metadata id="metadata72"/>
 <path id="path4" d="m471.95 253.05c0 120.9-98.01 218.9-218.9 218.9-120.9 0-218.9-98.01-218.9-218.9 0-120.9 98.01-218.9 218.9-218.9 120.9 0 218.9 98.01 218.9 218.9" fill-rule="evenodd" fill="#BF9E73"/>
 <path id="path6" fill-opacity="0.235" d="m314.16 139.72c-15.534 0.068-31.11 0.352-46.563 0.094 2.39 5.423 1.749 19.747 0.156 23.22 7.854 7.854 17.1 15.573 25.09 23.438-0.609-0.094-1.265-0.156-2-0.188-14.57 0.073-24.388 1.056-35.22-0.031h-150.62v139.5c32.36 30.798 63.51 63.3 95.38 94.84 17.201 17.06 34.29 34.21 51.41 51.34 0.419 0.002 0.83 0.031 1.25 0.031 120.9 0 218.91-98.01 218.91-218.91 0-0.522-0.028-1.041-0.031-1.563-37.05-37.07-73.955-74.24-111.37-110.56-15.345-1.14-30.841-1.287-46.37-1.219" color="#000000"/>
 <g id="g8" fill-rule="evenodd">
  <path id="path10" fill-opacity="0.067" d="m256 1c-140.83 0-255 114.17-255 255s114.17 255 255 255 255-114.17 255-255-114.17-255-255-255m8.827 44.931c120.9 0 218.9 98 218.9 218.9s-98 218.9-218.9 218.9-218.93-98-218.93-218.9 98.03-218.9 218.93-218.9"/>
  <g id="g12" fill-opacity="0.129">
   <path id="path14" d="m256 4.433c-138.94 0-251.57 112.63-251.57 251.57s112.63 251.57 251.57 251.57 251.57-112.63 251.57-251.57-112.63-251.57-251.57-251.57m5.885 38.556c120.9 0 218.9 98 218.9 218.9s-98 218.9-218.9 218.9-218.93-98-218.93-218.9 98.03-218.9 218.93-218.9"/>
   <path id="path16" d="m256 8.356c-136.77 0-247.64 110.87-247.64 247.64s110.87 247.64 247.64 247.64 247.64-110.87 247.64-247.64-110.87-247.64-247.64-247.64m2.942 31.691c120.9 0 218.9 98 218.9 218.9s-98 218.9-218.9 218.9-218.93-98-218.93-218.9 98.03-218.9 218.93-218.9"/>
  </g>
  <path id="path18" d="m253.04 7.859c-135.42 0-245.19 109.78-245.19 245.19 0 135.42 109.78 245.19 245.19 245.19 135.42 0 245.19-109.78 245.19-245.19 0-135.42-109.78-245.19-245.19-245.19zm0 26.297c120.9 0 218.9 98 218.9 218.9s-98 218.9-218.9 218.9-218.93-98-218.93-218.9 98.03-218.9 218.93-218.9z" stroke-opacity="0.31" stroke="#000" stroke-width="4.904" fill="#fff"/>
 </g>
 <path id="path66" fill="#fff" d="m267.6 139.8v23.271h34.907v185.86h-34.91v23.271h92.93v-23.27h-34.83v-185.86h34.83v-23.27h-92.93m-162.59 46.46v139.48h185.86v-23.271h-162.66v-92.93h162.66v-23.28h-185.86m232.32 0v23.271h46.46v92.93h-46.46v23.271h69.658v-139.48h-69.658m-197.49 46.46v46.543h104.56v-46.53h-104.56" color="#000000"/>
</svg>
