<?xml version="1.0" encoding="UTF-8" standalone="no"?>
<svg xmlns="http://www.w3.org/2000/svg" height="512" viewBox="0 0 512 512" width="512" version="1.1">
 <metadata id="metadata72"/>
 <g id="g4" fill-rule="evenodd">
  <path id="path6" fill="#BF9E73" d="m471.95 253.05c0 120.9-98.01 218.9-218.9 218.9-120.9 0-218.9-98.01-218.9-218.9 0-120.9 98.01-218.9 218.9-218.9 120.9 0 218.9 98.01 218.9 218.9"/>
  <path id="path8" fill-opacity="0.235" d="m253.03 34.16c-13.27-0.557-4.948 18.856-7.03 28.17v114.99c-15.15 2.085-26.345 17.405-23.09 32.45v79.74c7.739 11.639 17.15 22.613 17.843 36.581 0 8.04-0.05 3.777-0.05 16.312 0 11.953 1.814 21.232 1.814 29.23 0 10.477 4.163 19.58 0.687 31.25 21.05 21.05 38.24 39.08 59.2 60.05 3.981 2.029 8.388 2.43 13.563-0.102 80.946-23.673 145.79-98.05 153.36-182.72l6.957-49.8c-22.463-22.593-44.819-45.07-67.33-67.58-21.842-21.606-43.42-43.43-65.26-65.09-18.587-18.846-37.548-37.39-56.13-56.31-8.534-10.714-22.908-5.136-34.53-7.158"/>
  <path id="path10" fill="#fff" d="m246 19.344v157.97c-13.416 3.133-23.09 12.414-23.09 23.438v88.752c0 4.433 3.252 8 7.281 8h51.626c4.03 0 7.281-3.567 7.281-8v-88.752c0-11.02-9.686-20.298-23.09-23.438v-157.97h-20m9.875 281.03c-19.08 0.081-19.7 0.14-20.344 2.25-1.208 3.961-0.585 7.872 1.344 8.469 1.49 0.461 1.788 1.639 1.781 7.313-0.008 6.608 0.04 6.775 2.656 7.531 1.471 0.425 9.407 0.683 17.625 0.594 17.14-0.187 16.713 0.085 16.656-9.75-0.026-4.584 0.188-5.567 1.125-5.281 1.402 0.428 2.196-2 2.219-6.656 0.013-2.593-0.404-3.631-1.688-4.03-0.948-0.296-10.564-0.483-21.375-0.438m-0.594 30.531c-13.242 0.003-15.632 0.245-16.06 1.625-0.278 0.892-0.499 8.441-0.469 16.781 0.047 13.217 0.294 15.234 1.781 15.688 0.939 0.285 8.808 0.516 17.5 0.5 15.396-0.029 15.834-0.117 16.813-2.344 0.552-1.257 0.987-8.679 0.969-16.5-0.032-14.211-0.03-14.196-2.5-14.969-1.36-0.425-9.474-0.783-18.03-0.781m-12.375 40.16c-2.42 0-4.375 2.645-4.375 5.906v0.656c0 3.147 1.855 5.7 4.156 5.875v17.376c0 4.913 3.323 8.875 7.438 8.875h14.344c4.114 0 7.406-3.962 7.406-8.875v-17.376c2.308-0.166 4.156-2.721 4.156-5.875v-0.656c0-3.261-1.955-5.906-4.375-5.906h-28.75"/>
  <path id="path12" fill-opacity="0.067" d="m256 1c-140.83 0-255 114.17-255 255s114.17 255 255 255 255-114.17 255-255-114.17-255-255-255m8.827 44.931c120.9 0 218.9 98 218.9 218.9s-98 218.9-218.9 218.9-218.93-98-218.93-218.9 98.03-218.9 218.93-218.9"/>
  <g id="g14" fill-opacity="0.129">
   <path id="path16" d="m256 4.433c-138.94 0-251.57 112.63-251.57 251.57s112.63 251.57 251.57 251.57 251.57-112.63 251.57-251.57-112.63-251.57-251.57-251.57m5.885 38.556c120.9 0 218.9 98 218.9 218.9s-98 218.9-218.9 218.9-218.93-98-218.93-218.9 98.03-218.9 218.93-218.9"/>
   <path id="path18" d="m256 8.356c-136.77 0-247.64 110.87-247.64 247.64s110.87 247.64 247.64 247.64 247.64-110.87 247.64-247.64-110.87-247.64-247.64-247.64m2.942 31.691c120.9 0 218.9 98 218.9 218.9s-98 218.9-218.9 218.9-218.93-98-218.93-218.9 98.03-218.9 218.93-218.9"/>
  </g>
  <path id="path20" d="m253.04 7.859c-135.42 0-245.19 109.78-245.19 245.19 0 135.42 109.78 245.19 245.19 245.19 135.42 0 245.19-109.78 245.19-245.19 0-135.42-109.78-245.19-245.19-245.19zm0 26.297c120.9 0 218.9 98 218.9 218.9s-98 218.9-218.9 218.9-218.93-98-218.93-218.9 98.03-218.9 218.93-218.9z" stroke-opacity="0.31" stroke="#000" stroke-width="4.904" fill="#fff"/>
 </g>
</svg>
