<?xml version="1.0" encoding="UTF-8" standalone="no"?>
<svg xmlns="http://www.w3.org/2000/svg" height="512" viewBox="0 0 512 512" width="512" version="1.1">
 <metadata id="metadata78"/>
 <g id="g4" transform="translate(0,-540.36)">
  <g id="g6" fill-rule="evenodd">
   <path id="path8" fill="#BF9E73" d="m471.95 793.41c0 120.9-98.01 218.9-218.9 218.9-120.9 0-218.9-98.01-218.9-218.9 0-120.9 98.01-218.9 218.9-218.9 120.9 0 218.9 98.01 218.9 218.9"/>
   <path id="path10" d="m139.72 135.72c-61.43 0-61.719 66.16-61.719 66.16v75.22c0 14.15 9.737 33.01 19.19 42.44 0.186 0.186 0.377 0.35 0.563 0.531 0.147 0.151 0.291 0.323 0.438 0.469 0.248 0.247 0.473 0.48 0.719 0.719 0.091 0.092 0.19 0.191 0.281 0.281 0.175 0.169 0.357 0.335 0.531 0.5 0.157 0.161 0.312 0.344 0.469 0.5 0.175 0.169 0.357 0.335 0.531 0.5 0.148 0.152 0.29 0.321 0.438 0.469 0.186 0.179 0.378 0.356 0.563 0.531 0.147 0.151 0.291 0.323 0.438 0.469 0.182 0.176 0.382 0.36 0.563 0.531 0.147 0.151 0.291 0.323 0.438 0.469 0.186 0.186 0.377 0.35 0.563 0.531 0.147 0.151 0.291 0.323 0.438 0.469 0.186 0.186 0.377 0.35 0.563 0.531 0.147 0.151 0.291 0.323 0.438 0.469 0.248 0.247 0.473 0.48 0.719 0.719 0.091 0.092 0.19 0.191 0.281 0.281 0.175 0.169 0.357 0.335 0.531 0.5 0.148 0.152 0.29 0.321 0.438 0.469 0.186 0.179 0.378 0.356 0.563 0.531 0.148 0.152 0.29 0.321 0.438 0.469 0.182 0.176 0.382 0.36 0.563 0.531 0.147 0.151 0.291 0.323 0.438 0.469 0.182 0.176 0.382 0.36 0.563 0.531 0.147 0.151 0.291 0.323 0.438 0.469 0.186 0.186 0.377 0.35 0.563 0.531 0.147 0.151 0.291 0.323 0.438 0.469 0.248 0.247 0.473 0.48 0.719 0.719 0.091 0.092 0.19 0.191 0.281 0.281 0.175 0.169 0.357 0.335 0.531 0.5 0.148 0.152 0.29 0.321 0.438 0.469 0.186 0.179 0.378 0.356 0.563 0.531 0.148 0.152 0.29 0.321 0.438 0.469 0.182 0.176 0.382 0.36 0.563 0.531 0.147 0.151 0.291 0.323 0.438 0.469 0.182 0.176 0.382 0.36 0.563 0.531 0.147 0.151 0.291 0.323 0.438 0.469 0.186 0.186 0.377 0.35 0.563 0.531 0.147 0.151 0.291 0.323 0.438 0.469 0.248 0.247 0.473 0.48 0.719 0.719 0.091 0.092 0.19 0.191 0.281 0.281 0.175 0.169 0.357 0.335 0.531 0.5 0.148 0.152 0.29 0.321 0.438 0.469 0.186 0.179 0.378 0.356 0.563 0.531 0.148 0.152 0.29 0.321 0.438 0.469 0.182 0.176 0.382 0.36 0.563 0.531 0.147 0.151 0.291 0.323 0.438 0.469 0.182 0.176 0.382 0.36 0.563 0.531 0.147 0.151 0.291 0.323 0.438 0.469 0.186 0.186 0.377 0.35 0.563 0.531 0.147 0.151 0.291 0.323 0.438 0.469 0.248 0.247 0.473 0.48 0.719 0.719 0.091 0.092 0.19 0.191 0.281 0.281 0.175 0.169 0.357 0.335 0.531 0.5 0.157 0.161 0.312 0.344 0.469 0.5 0.175 0.169 0.357 0.335 0.531 0.5 0.148 0.152 0.29 0.321 0.438 0.469 0.186 0.179 0.378 0.356 0.563 0.531 0.147 0.151 0.291 0.323 0.438 0.469 0.182 0.176 0.382 0.36 0.563 0.531 0.147 0.151 0.291 0.323 0.438 0.469 0.186 0.186 0.377 0.35 0.563 0.531 0.147 0.151 0.291 0.323 0.438 0.469 0.176 0.175 0.357 0.329 0.531 0.5 0.157 0.161 0.312 0.344 0.469 0.5 0.097 0.097 0.185 0.186 0.281 0.281 1.775 5.282 4.847 9.92 8.719 13.656 0.322 0.336 0.666 0.677 1 1 0.322 0.336 0.666 0.646 1 0.969 0.327 0.342 0.66 0.672 1 1 0.433 0.452 0.858 0.885 1.313 1.313 0.305 0.311 0.59 0.639 0.906 0.938 0.248 0.254 0.495 0.504 0.75 0.75 0.322 0.336 0.666 0.677 1 1 0.332 0.347 0.686 0.699 1.031 1.031 0.312 0.325 0.645 0.625 0.969 0.938 0.433 0.452 0.858 0.885 1.313 1.313 0.305 0.311 0.59 0.639 0.906 0.938 0.248 0.254 0.495 0.504 0.75 0.75 0.322 0.336 0.666 0.677 1 1 0.332 0.347 0.686 0.699 1.031 1.031 0.312 0.325 0.645 0.625 0.969 0.938 0.327 0.342 0.66 0.672 1 1 0.403 0.421 0.796 0.85 1.219 1.25 0.33 0.338 0.657 0.676 1 1 0.248 0.254 0.495 0.504 0.75 0.75 0.322 0.336 0.666 0.677 1 1 0.322 0.336 0.666 0.646 1 0.969 0.327 0.342 0.66 0.672 1 1 0.433 0.452 0.858 0.885 1.313 1.313 0.305 0.311 0.59 0.639 0.906 0.938 0.248 0.254 0.495 0.504 0.75 0.75 0.322 0.336 0.666 0.677 1 1 0.322 0.336 0.666 0.646 1 0.969 0.327 0.342 0.66 0.672 1 1 0.433 0.452 0.858 0.885 1.313 1.313 0.305 0.311 0.59 0.639 0.906 0.938 0.248 0.254 0.495 0.504 0.75 0.75 0.322 0.336 0.666 0.677 1 1 0.332 0.347 0.686 0.699 1.031 1.031 0.312 0.325 0.645 0.625 0.969 0.938 0.433 0.452 0.858 0.885 1.313 1.313 0.305 0.311 0.59 0.639 0.906 0.938 0.248 0.254 0.495 0.504 0.75 0.75 0.322 0.336 0.666 0.677 1 1 0.332 0.347 0.686 0.699 1.031 1.031 0.312 0.325 0.645 0.625 0.969 0.938 0.327 0.342 0.66 0.672 1 1 0.408 0.427 0.791 0.845 1.219 1.25 0.33 0.338 0.657 0.676 1 1 0.248 0.254 0.495 0.504 0.75 0.75 0.322 0.336 0.666 0.677 1 1 0.322 0.336 0.666 0.646 1 0.969 0.327 0.342 0.66 0.672 1 1 0.433 0.452 0.858 0.885 1.313 1.313 0.305 0.311 0.59 0.639 0.906 0.938 0.248 0.254 0.495 0.504 0.75 0.75 0.322 0.336 0.666 0.677 1 1 0.332 0.347 0.686 0.699 1.031 1.031 0.312 0.325 0.645 0.625 0.969 0.938 0.433 0.452 0.858 0.885 1.313 1.313 0.305 0.311 0.59 0.639 0.906 0.938 0.248 0.254 0.495 0.504 0.75 0.75 0.322 0.336 0.666 0.677 1 1 0.332 0.347 0.686 0.699 1.031 1.031 0.312 0.325 0.645 0.625 0.969 0.938 0.327 0.342 0.66 0.672 1 1 0.403 0.421 0.796 0.85 1.219 1.25 0.33 0.338 0.657 0.676 1 1 0.248 0.254 0.495 0.504 0.75 0.75 0.322 0.336 0.666 0.677 1 1 0.322 0.336 0.666 0.646 1 0.969 0.327 0.342 0.66 0.672 1 1 0.433 0.452 0.858 0.885 1.313 1.313 0.305 0.311 0.59 0.639 0.906 0.938 0.248 0.254 0.495 0.504 0.75 0.75 0.322 0.336 0.666 0.677 1 1 0.322 0.336 0.666 0.646 1 0.969 0.327 0.342 0.66 0.672 1 1 0.433 0.452 0.858 0.885 1.313 1.313 0.305 0.311 0.59 0.639 0.906 0.938 0.248 0.254 0.495 0.504 0.75 0.75 0.322 0.336 0.666 0.677 1 1 0.332 0.347 0.686 0.699 1.031 1.031 0.312 0.325 0.645 0.625 0.969 0.938 0.433 0.452 0.858 0.885 1.313 1.313 0.305 0.311 0.59 0.639 0.906 0.938 0.248 0.254 0.495 0.504 0.75 0.75 0.322 0.336 0.666 0.677 1 1 0.332 0.347 0.686 0.699 1.031 1.031 0.312 0.325 0.645 0.625 0.969 0.938 0.327 0.342 0.66 0.672 1 1 0.408 0.427 0.791 0.845 1.219 1.25 0.33 0.338 0.657 0.676 1 1 0.248 0.254 0.495 0.504 0.75 0.75 0.322 0.336 0.666 0.677 1 1 0.322 0.336 0.666 0.646 1 0.969 0.327 0.342 0.66 0.672 1 1 0.433 0.452 0.858 0.885 1.313 1.313 0.305 0.311 0.59 0.639 0.906 0.938 0.248 0.254 0.495 0.504 0.75 0.75 0.322 0.336 0.666 0.677 1 1 0.332 0.347 0.686 0.699 1.031 1.031 0.312 0.325 0.645 0.625 0.969 0.938 0.433 0.452 0.858 0.885 1.313 1.313 0.305 0.311 0.59 0.639 0.906 0.938 0.248 0.254 0.495 0.504 0.75 0.75 0.322 0.336 0.666 0.677 1 1 0.332 0.347 0.686 0.699 1.031 1.031 0.312 0.325 0.645 0.625 0.969 0.938 0.327 0.342 0.66 0.672 1 1 0.403 0.421 0.796 0.85 1.219 1.25 0.237 0.243 0.478 0.481 0.719 0.719 2.849 0.11 5.687 0.219 8.563 0.219 120.9 0 218.91-98.01 218.91-218.91 0-5.02-0.167-10-0.5-14.938-0.21 0.759-0.44 1.501-0.656 2.25-0.029-0.312-0.313-3.375-0.313-3.375-0.213 0.781-0.435 1.544-0.656 2.313-0.027-0.295-0.313-3.281-0.313-3.281-0.217 0.796-0.462 1.56-0.688 2.344-0.028-0.306-0.313-3.344-0.313-3.344-0.22 0.808-0.458 1.58-0.688 2.375-0.029-0.312-0.313-3.375-0.313-3.375-0.22 0.808-0.458 1.58-0.688 2.375-0.029-0.312-0.313-3.375-0.313-3.375-0.219 0.803-0.46 1.585-0.688 2.375-0.029-0.312-0.313-3.375-0.313-3.375-0.219 0.803-0.46 1.585-0.688 2.375-0.029-0.312-0.313-3.375-0.313-3.375-0.213 0.781-0.435 1.544-0.656 2.313-0.027-0.295-0.313-3.281-0.313-3.281-0.217 0.796-0.462 1.56-0.688 2.344-0.028-0.306-0.313-3.344-0.313-3.344-0.22 0.808-0.458 1.58-0.688 2.375-0.029-0.312-0.313-3.375-0.313-3.375-0.22 0.808-0.458 1.58-0.688 2.375-0.029-0.312-0.313-3.375-0.313-3.375-0.219 0.803-0.46 1.585-0.688 2.375-0.029-0.312-0.313-3.375-0.313-3.375-0.219 0.803-0.46 1.585-0.688 2.375-0.029-0.312-0.313-3.375-0.313-3.375-0.219 0.803-0.46 1.585-0.688 2.375-0.029-0.312-0.313-3.375-0.313-3.375-0.213 0.781-0.435 1.544-0.656 2.313-0.027-0.295-0.313-3.281-0.313-3.281-0.217 0.796-0.462 1.56-0.688 2.344-0.029-0.306-0.313-3.344-0.313-3.344-0.22 0.808-0.458 1.58-0.688 2.375-0.029-0.312-0.313-3.375-0.313-3.375-0.219 0.803-0.46 1.585-0.688 2.375-0.029-0.312-0.313-3.375-0.313-3.375-0.219 0.803-0.46 1.585-0.688 2.375-0.029-0.312-0.313-3.375-0.313-3.375-0.219 0.803-0.46 1.585-0.688 2.375-0.029-0.312-0.313-3.375-0.313-3.375-0.213 0.781-0.435 1.544-0.656 2.313-0.027-0.295-0.313-3.281-0.313-3.281-0.217 0.796-0.462 1.56-0.688 2.344-0.029-0.306-0.313-3.344-0.313-3.344-0.22 0.808-0.458 1.58-0.688 2.375-0.029-0.312-0.313-3.375-0.313-3.375-0.22 0.808-0.458 1.58-0.688 2.375-0.029-0.312-0.313-3.375-0.313-3.375-0.219 0.803-0.46 1.585-0.688 2.375-0.029-0.312-0.313-3.375-0.313-3.375-0.219 0.803-0.46 1.585-0.688 2.375-0.029-0.312-0.313-3.375-0.313-3.375-0.213 0.781-0.435 1.544-0.656 2.313-0.027-0.295-0.313-3.281-0.313-3.281-0.217 0.796-0.462 1.56-0.688 2.344-0.029-0.306-0.313-3.344-0.313-3.344-0.22 0.808-0.458 1.58-0.688 2.375-0.029-0.312-0.313-3.375-0.313-3.375-0.22 0.808-0.458 1.58-0.688 2.375-0.029-0.312-0.313-3.375-0.313-3.375-0.219 0.803-0.46 1.585-0.688 2.375-0.029-0.312-0.313-3.375-0.313-3.375-0.219 0.803-0.46 1.585-0.688 2.375-0.029-0.312-0.313-3.375-0.313-3.375-0.213 0.781-0.435 1.544-0.656 2.313-0.027-0.295-0.313-3.281-0.313-3.281-0.217 0.796-0.462 1.56-0.688 2.344-0.029-0.306-0.313-3.344-0.313-3.344-0.22 0.808-0.458 1.58-0.688 2.375-0.029-0.312-0.313-3.375-0.313-3.375-0.22 0.808-0.458 1.58-0.688 2.375-0.029-0.312-0.313-3.375-0.313-3.375-0.219 0.803-0.46 1.585-0.688 2.375-0.029-0.312-0.313-3.375-0.313-3.375-0.219 0.803-0.46 1.585-0.688 2.375-0.029-0.312-0.313-3.375-0.313-3.375-0.219 0.803-0.46 1.585-0.688 2.375-0.029-0.312-0.313-3.375-0.313-3.375-0.213 0.781-0.435 1.544-0.656 2.313l-0.313-3.281c-0.217 0.796-0.462 1.56-0.688 2.344-0.029-0.306-0.313-3.344-0.313-3.344-0.22 0.808-0.458 1.58-0.688 2.375-0.029-0.312-0.313-3.375-0.313-3.375-0.22 0.808-0.458 1.58-0.688 2.375-0.029-0.312-0.313-3.375-0.313-3.375-0.219 0.803-0.46 1.585-0.688 2.375-0.029-0.312-0.313-3.375-0.313-3.375-0.219 0.803-0.46 1.585-0.688 2.375-0.029-0.312-0.313-3.375-0.313-3.375-0.213 0.781-0.435 1.544-0.656 2.313-0.027-0.295-0.313-3.281-0.313-3.281-0.217 0.796-0.462 1.56-0.688 2.344-0.029-0.306-0.313-3.344-0.313-3.344-0.22 0.808-0.458 1.58-0.688 2.375l-0.313-3.375c-0.22 0.808-0.458 1.58-0.688 2.375-0.029-0.312-0.313-3.375-0.313-3.375-0.219 0.803-0.46 1.585-0.688 2.375-0.029-0.312-0.313-3.375-0.313-3.375-0.219 0.803-0.46 1.585-0.688 2.375-0.029-0.312-0.313-3.375-0.313-3.375-0.213 0.781-0.435 1.544-0.656 2.313-0.027-0.295-0.313-3.281-0.313-3.281-0.217 0.796-0.462 1.56-0.688 2.344-0.029-0.306-0.313-3.344-0.313-3.344-0.22 0.808-0.458 1.58-0.688 2.375-0.029-0.312-0.313-3.375-0.313-3.375-0.22 0.808-0.458 1.58-0.688 2.375-0.029-0.312-0.313-3.375-0.313-3.375-0.219 0.803-0.46 1.585-0.688 2.375l-0.313-3.375c-0.219 0.803-0.46 1.585-0.688 2.375-0.029-0.312-0.313-3.375-0.313-3.375-0.219 0.803-0.46 1.585-0.688 2.375-0.029-0.312-0.313-3.375-0.313-3.375-0.213 0.781-0.435 1.544-0.656 2.313-0.027-0.295-0.313-3.281-0.313-3.281-0.217 0.796-0.462 1.56-0.688 2.344-0.029-0.306-0.313-3.344-0.313-3.344-0.22 0.808-0.458 1.58-0.688 2.375-0.029-0.312-0.313-3.375-0.313-3.375-0.219 0.803-0.46 1.585-0.688 2.375-0.029-0.312-0.313-3.375-0.313-3.375-0.219 0.803-0.46 1.585-0.688 2.375-0.029-0.312-0.313-3.375-0.313-3.375-0.219 0.803-0.46 1.585-0.688 2.375l-0.313-3.375c-0.213 0.781-0.435 1.544-0.656 2.313-0.027-0.295-0.313-3.281-0.313-3.281-0.217 0.796-0.462 1.56-0.688 2.344-0.029-0.306-0.313-3.344-0.313-3.344-0.22 0.808-0.458 1.58-0.688 2.375-0.029-0.312-0.313-3.375-0.313-3.375-0.22 0.808-0.458 1.58-0.688 2.375-0.029-0.312-0.313-3.375-0.313-3.375-0.219 0.803-0.46 1.585-0.688 2.375-0.029-0.312-0.313-3.375-0.313-3.375-0.219 0.803-0.46 1.585-0.688 2.375-0.029-0.312-0.313-3.375-0.313-3.375-0.213 0.781-0.435 1.544-0.656 2.313-0.028-0.295-0.313-3.281-0.313-3.281-0.217 0.796-0.462 1.56-0.688 2.344l-0.313-3.344c-0.22 0.808-0.458 1.58-0.688 2.375-0.029-0.312-0.313-3.375-0.313-3.375-0.22 0.808-0.458 1.58-0.688 2.375l-0.313-3.375c-0.219 0.803-0.46 1.585-0.688 2.375-0.029-0.312-0.313-3.375-0.313-3.375-0.219 0.803-0.46 1.585-0.688 2.375-0.029-0.312-0.313-3.375-0.313-3.375-0.213 0.781-0.435 1.544-0.656 2.313l-0.313-3.281c-0.217 0.796-0.462 1.56-0.688 2.344-0.029-0.306-0.313-3.344-0.313-3.344-0.22 0.808-0.458 1.58-0.688 2.375-0.029-0.312-0.313-3.375-0.313-3.375-0.22 0.808-0.458 1.58-0.688 2.375l-0.313-3.375c-10.601 38.852-31.38 62.809-49.781 82.22v-0.656h-1v-1h-1v-1h-1v-1h-0.969v-0.969h-1v-1h-1v-1h-1v-1h-1v-1h-1v-1h-1v-1h-0.969v-0.969h-1v-1h-1v-1h-1v-1h-1v-1h-1v-1h-0.969v-0.969h-1v-1h-1v-1h-1v-1h-1v-1h-1v-1h-0.969v-0.969h-1v-1h-1v-1h-1v-1h-1v-1h-1v-1h-1v-1h-0.969v-0.969h-1v-1h-1v-1h-1v-1h-1v-1h-1v-1h-0.969v-0.969h-1v-1h-1v-1h-1v-1h-1v-1h-1v-1h-0.969v-0.969h-1v-1h-1v-1h-1v-1h-1v-1h-1v-1h-0.969v-0.969h-1v-1h-1v-1h-1v-1h-1v-1h-1v-1h-1v-1h-0.969v-0.969h-1v-1h-1v-1h-1v-1h-1v-1h-1v-1h-0.969v-0.969h-1v-1h-1v-1h-1v-1h-1v-1h-1v-1h-0.969v-0.969h-1v-1h-1v-1h-1v-1h-1v-1h-1v-1h-1v-1h-0.969v-0.969h-1v-1h-1v-1h-1v-1h-1v-1h-1v-1h-0.969v-0.969h-1v-1h-1v-1h-1v-1h-1v-1h-1v-1h-0.969v-0.969h-1v-1h-1v-1h-1v-1h-1v-1h-1v-1h-0.969v-0.969h-1v-1h-1v-1h-1v-1h-14.25l-14.313 37.594h-6.875c-0.352-0.37-0.729-0.732-1.094-1.094-0.131-0.137-0.274-0.27-0.406-0.406-0.197-0.191-0.393-0.373-0.594-0.563-0.136-0.142-0.268-0.296-0.406-0.438-0.197-0.191-0.393-0.373-0.594-0.563-0.132-0.139-0.272-0.269-0.406-0.406-0.2-0.194-0.39-0.402-0.594-0.594-0.127-0.133-0.246-0.274-0.375-0.406-0.203-0.197-0.418-0.399-0.625-0.594-0.127-0.133-0.246-0.274-0.375-0.406-0.156-0.152-0.31-0.319-0.469-0.469l-0.125-0.125c-0.322-0.337-0.667-0.67-1-1-0.131-0.137-0.274-0.27-0.406-0.406-0.197-0.191-0.393-0.373-0.594-0.563-0.136-0.142-0.268-0.296-0.406-0.438-0.197-0.191-0.393-0.373-0.594-0.563-0.132-0.139-0.272-0.269-0.406-0.406-0.2-0.194-0.39-0.402-0.594-0.594-0.127-0.133-0.246-0.274-0.375-0.406-0.203-0.197-0.418-0.399-0.625-0.594-0.127-0.133-0.246-0.274-0.375-0.406-0.156-0.152-0.31-0.319-0.469-0.469l-0.125-0.125c-0.322-0.337-0.667-0.669-1-1-0.131-0.137-0.274-0.27-0.406-0.406-0.197-0.192-0.393-0.373-0.594-0.563-0.136-0.142-0.268-0.296-0.406-0.438-0.197-0.192-0.393-0.373-0.594-0.563-0.132-0.139-0.272-0.269-0.406-0.406-0.2-0.194-0.39-0.402-0.594-0.594-0.127-0.133-0.246-0.274-0.375-0.406-0.203-0.197-0.418-0.399-0.625-0.594-0.127-0.133-0.246-0.274-0.375-0.406-0.156-0.152-0.31-0.319-0.469-0.469l-0.125-0.125c-0.322-0.337-0.667-0.669-1-1-0.131-0.137-0.274-0.27-0.406-0.406-0.197-0.192-0.393-0.373-0.594-0.563-0.136-0.142-0.268-0.296-0.406-0.438-0.197-0.192-0.393-0.373-0.594-0.563-0.132-0.139-0.272-0.269-0.406-0.406-0.2-0.194-0.39-0.402-0.594-0.594-0.127-0.133-0.246-0.274-0.375-0.406-0.203-0.197-0.418-0.399-0.625-0.594-0.127-0.133-0.246-0.274-0.375-0.406-0.156-0.152-0.31-0.319-0.469-0.469l-0.125-0.125c-0.322-0.337-0.667-0.669-1-1-0.131-0.137-0.274-0.27-0.406-0.406-0.197-0.192-0.393-0.373-0.594-0.563-0.136-0.142-0.268-0.296-0.406-0.438-0.197-0.192-0.393-0.373-0.594-0.563-0.132-0.139-0.272-0.269-0.406-0.406-0.2-0.194-0.39-0.402-0.594-0.594-0.127-0.133-0.246-0.274-0.375-0.406-0.203-0.197-0.418-0.399-0.625-0.594-0.127-0.133-0.246-0.274-0.375-0.406-0.156-0.152-0.31-0.319-0.469-0.469l-0.125-0.125c-0.322-0.337-0.667-0.669-1-1-9.07-9.488-22.272-16.375-41.469-16.375" fill-opacity="0.235" transform="translate(0,540.36)"/>
   <path id="path12" fill-opacity="0.067" d="m256 541.36c-140.83 0-255 114.17-255 255s114.17 255 255 255 255-114.17 255-255-114.17-255-255-255m8.827 44.931c120.9 0 218.9 98 218.9 218.9s-98 218.9-218.9 218.9-218.93-98-218.93-218.9 98.03-218.9 218.93-218.9"/>
   <g id="g14" fill-opacity="0.129">
    <path id="path16" d="m256 544.79c-138.94 0-251.57 112.63-251.57 251.57s112.63 251.54 251.57 251.54 251.57-112.6 251.57-251.54-112.63-251.57-251.57-251.57m5.885 38.556c120.9 0 218.9 98 218.9 218.9s-98 218.9-218.9 218.9-218.93-98-218.93-218.9 98.03-218.9 218.93-218.9"/>
    <path id="path18" d="m256 548.72c-136.77 0-247.64 110.87-247.64 247.64s110.87 247.64 247.64 247.64 247.64-110.87 247.64-247.64-110.87-247.64-247.64-247.64m2.942 31.691c120.9 0 218.9 98 218.9 218.9s-98 218.9-218.9 218.9-218.93-98-218.93-218.9 98.03-218.9 218.93-218.9"/>
   </g>
   <path id="path20" d="m253.04 548.22c-135.42 0-245.19 109.78-245.19 245.19 0 135.42 109.78 245.19 245.19 245.19 135.42 0 245.19-109.78 245.19-245.19 0-135.42-109.78-245.19-245.19-245.19zm0 26.297c120.9 0 218.9 98 218.9 218.9s-98 218.9-218.9 218.9-218.93-98-218.93-218.9 98.03-218.9 218.93-218.9z" stroke-opacity="0.31" stroke="#000" stroke-width="4.904" fill="#fff"/>
  </g>
  <g id="g68" fill="#fff">
   <path id="path70" fill-rule="evenodd" d="m139.71 676.08c-61.43 0-61.698 66.15-61.698 66.15v75.22c0 14.15 9.712 33.01 19.16 42.44 16.706 16.673 28.26 14.28 28.26 14.28s0.157 4.649 4.882 18.796c4.725 14.15 18.626 23.678 32.802 23.678s19.16-4.882 19.16-4.882v-18.796s-4.83 0.169-14.28-4.546c-9.452-4.716-9.429-14.25-9.429-14.25s14.08-4.649 28.26-18.796c14.176-14.15 14.311-37.928 14.311-37.928v-70.7s0.006-70.67-61.42-70.67m93.58 9.734-14.311 37.592h-9.429v18.827h9.429v99.2s0.083 23.343 23.709 23.343 28.29-9.398 28.29-9.398v-18.16c-0.443 1.326-2.341 4.211-9.429 4.211-9.451 0-13.975-9.398-13.975-9.398v-89.8h23.404v-18.81h-23.404v-37.592h-14.28m-90.65 13.945c23.631 0 23.709 23.343 23.709 23.343v94.35s-0.083 33.05-23.709 33.05c-23.631 0-23.709-33.05-23.709-33.05v-89.5s0.083-28.19 23.709-28.19"/>
   <path id="path72" d="m391.88 158.41c-28.942 106.07-133.8 101.33-58.781 195.19 60.11-23.713 73.21-53.44 65.25-125.72l-6.469-69.47" transform="translate(0,540.36)"/>
  </g>
 </g>
</svg>
