<?xml version="1.0" encoding="UTF-8" standalone="no"?>
<svg xmlns="http://www.w3.org/2000/svg" height="512" viewBox="0 0 512 512" width="512" version="1.1">
 <metadata id="metadata78"/>
 <path id="path4" d="m471.95 253.05c0 120.9-98.01 218.9-218.9 218.9-120.9 0-218.9-98.01-218.9-218.9 0-120.9 98.01-218.9 218.9-218.9 120.9 0 218.9 98.01 218.9 218.9" fill-rule="evenodd" fill="#BF9E73"/>
 <path id="path6" fill-opacity="0.235" d="m358.16 111.47-26.813 26.406c19.724 19.432 30.23 44.504 31.406 69.906l-0.031 0.031c-0.311-0.354-0.628-0.695-0.969-1.031l-0.031 0.031c-0.307-0.35-0.632-0.7-0.969-1.031l-0.031 0.031c-0.305-0.348-0.634-0.701-0.969-1.031l-0.031 0.031c-0.302-0.346-0.605-0.672-0.938-1l-0.063 0.063c-0.311-0.36-0.593-0.723-0.938-1.063l-0.031 0.031c-0.308-0.356-0.628-0.695-0.969-1.031l-0.031 0.031c-0.308-0.358-0.627-0.694-0.969-1.031l-0.063 0.063c-0.304-0.354-0.599-0.729-0.938-1.063l-0.031 0.031c-0.3-0.351-0.634-0.701-0.969-1.031l-0.031 0.031c-0.3-0.352-0.633-0.701-0.969-1.031l-0.031 0.031c-0.299-0.352-0.602-0.67-0.938-1l-0.063 0.063c-0.303-0.36-0.595-0.725-0.938-1.063l-0.031 0.031c-0.299-0.356-0.631-0.698-0.969-1.031l-0.031 0.031c-0.299-0.358-0.63-0.697-0.969-1.031l-0.031 0.031c-0.298-0.36-0.629-0.696-0.969-1.031l-0.031 0.031c-0.294-0.356-0.633-0.7-0.969-1.031l-0.063 0.031c-0.286-0.345-0.58-0.679-0.906-1l-0.063 0.063c-0.298-0.366-0.593-0.723-0.938-1.063l-0.031 0.031c-0.293-0.362-0.629-0.697-0.969-1.031l-0.063 0.063c-0.293-0.366-0.595-0.725-0.938-1.063l-0.063 0.063c-0.291-0.366-0.596-0.726-0.938-1.063l-0.063 0.063c-0.287-0.363-0.6-0.73-0.938-1.063l-0.063 0.063c-0.283-0.36-0.572-0.702-0.906-1.031l-0.063 0.063c-0.289-0.375-0.591-0.721-0.938-1.063l-0.063 0.063c-0.285-0.374-0.593-0.723-0.938-1.063l-0.063 0.063c-0.28-0.369-0.598-0.728-0.938-1.063l-0.063 0.063c-0.277-0.37-0.598-0.728-0.938-1.063l-0.094 0.094c-0.277-0.375-0.564-0.756-0.906-1.094l-0.063 0.063c-0.271-0.372-0.599-0.729-0.938-1.063l-0.063 0.063c-0.265-0.367-0.573-0.703-0.906-1.031l-0.094 0.094c-0.268-0.384-0.561-0.753-0.906-1.094l-0.094 0.094c-0.263-0.383-0.563-0.755-0.906-1.094l-0.094 0.094c-0.26-0.388-0.561-0.753-0.906-1.094l-0.094 0.094c-0.254-0.388-0.563-0.755-0.906-1.094l-0.125 0.125c-0.247-0.388-0.533-0.788-0.875-1.125l-0.125 0.125c-0.24-0.389-0.503-0.758-0.844-1.094l-0.125 0.125c-0.237-0.407-0.523-0.779-0.875-1.125l-0.125 0.125c-0.228-0.409-0.525-0.78-0.875-1.125l-0.156 0.156c-0.219-0.421-0.488-0.806-0.844-1.156l-0.156 0.156c-0.206-0.418-0.493-0.811-0.844-1.156l-0.188 0.188c-0.191-0.421-0.464-0.844-0.813-1.188l-0.219 0.188c-0.174-0.422-0.405-0.816-0.75-1.156l-0.25 0.25c-0.149-0.458-0.383-0.889-0.75-1.25l-0.281 0.281c-0.116-0.47-0.349-0.917-0.719-1.281l-0.344 0.313c-0.074-0.476-0.286-0.948-0.656-1.313l-0.281 0.281c-0.057-0.069-0.099-0.149-0.156-0.219-0.064-0.391-0.259-0.763-0.563-1.063l-0.188 0.188c-0.134-0.158-0.271-0.312-0.406-0.469-0.069-0.259-0.202-0.517-0.406-0.719l-0.125 0.125c-0.206-0.234-0.385-0.487-0.594-0.719-0.058-0.141-0.135-0.262-0.25-0.375l-0.063 0.063c-0.288-0.316-0.581-0.626-0.875-0.938-0.028-0.04-0.026-0.089-0.063-0.125l-0.031 0.031c-0.288-0.305-0.581-0.605-0.875-0.906-0.019-0.047-0.055-0.087-0.094-0.125-0.328-0.335-0.665-0.67-1-1l-14.688 14.5c19.315 19.03 22.465 47.913 9.25 70.06-0.006-0.005-0.025 0.005-0.031 0-0.084-0.14-0.163-0.258-0.281-0.375-0.219-0.218-0.448-0.433-0.688-0.625-0.083-0.141-0.194-0.258-0.313-0.375-0.221-0.22-0.447-0.432-0.688-0.625-0.08-0.137-0.167-0.261-0.281-0.375-0.228-0.227-0.501-0.426-0.75-0.625-0.078-0.132-0.139-0.265-0.25-0.375-0.229-0.228-0.5-0.425-0.75-0.625-0.076-0.129-0.142-0.268-0.25-0.375-0.225-0.223-0.474-0.429-0.719-0.625-0.075-0.132-0.171-0.266-0.281-0.375-0.226-0.225-0.473-0.427-0.719-0.625-0.073-0.128-0.175-0.269-0.281-0.375-0.243-0.242-0.484-0.446-0.75-0.656-0.067-0.11-0.157-0.22-0.25-0.313-0.245-0.243-0.482-0.476-0.75-0.688-0.068-0.117-0.121-0.216-0.219-0.313-0.246-0.245-0.512-0.474-0.781-0.688-0.065-0.113-0.125-0.219-0.219-0.313-0.241-0.24-0.486-0.478-0.75-0.688-0.065-0.117-0.154-0.217-0.25-0.313-0.243-0.241-0.485-0.476-0.75-0.688-0.062-0.112-0.157-0.22-0.25-0.313-0.244-0.243-0.483-0.475-0.75-0.688-0.06-0.108-0.161-0.224-0.25-0.313-0.252-0.25-0.506-0.469-0.781-0.688-0.058-0.105-0.132-0.195-0.219-0.281-0.269-0.267-0.548-0.519-0.844-0.75-0.051-0.083-0.086-0.181-0.156-0.25-0.253-0.252-0.504-0.499-0.781-0.719-0.055-0.103-0.103-0.198-0.188-0.281-0.255-0.253-0.534-0.498-0.813-0.719-0.052-0.098-0.107-0.201-0.188-0.281-0.267-0.265-0.551-0.52-0.844-0.75-0.049-0.09-0.083-0.177-0.156-0.25-0.268-0.266-0.549-0.519-0.844-0.75-0.046-0.085-0.086-0.18-0.156-0.25-0.248-0.247-0.511-0.44-0.781-0.656-0.048-0.117-0.127-0.221-0.219-0.313-0.254-0.253-0.504-0.498-0.781-0.719-0.045-0.111-0.132-0.195-0.219-0.281-0.255-0.254-0.502-0.497-0.781-0.719-0.043-0.104-0.106-0.2-0.188-0.281-0.267-0.266-0.551-0.519-0.844-0.75-0.04-0.098-0.08-0.174-0.156-0.25-0.268-0.266-0.55-0.518-0.844-0.75-0.037-0.091-0.085-0.179-0.156-0.25-0.269-0.268-0.549-0.517-0.844-0.75-0.035-0.085-0.09-0.184-0.156-0.25-0.266-0.265-0.552-0.488-0.844-0.719-0.03-0.101-0.08-0.174-0.156-0.25-0.268-0.266-0.551-0.518-0.844-0.75-0.027-0.096-0.085-0.179-0.156-0.25-0.269-0.268-0.549-0.516-0.844-0.75-0.022-0.099-0.052-0.177-0.125-0.25-0.281-0.28-0.598-0.539-0.906-0.781-0.022-0.081-0.033-0.158-0.094-0.219-0.283-0.281-0.596-0.537-0.906-0.781-0.018-0.076-0.037-0.163-0.094-0.219-0.273-0.272-0.576-0.513-0.875-0.75-0.006-0.09-0.06-0.186-0.125-0.25-0.286-0.284-0.593-0.535-0.906-0.781-0.006-0.075-0.04-0.165-0.094-0.219-0.286-0.284-0.592-0.534-0.906-0.781 0.001-0.072-0.043-0.137-0.094-0.188-0.26-0.259-0.529-0.522-0.813-0.75-0.031-0.032-0.062-0.062-0.094-0.094 0.001-0.058-0.022-0.116-0.063-0.156-0.261-0.26-0.559-0.521-0.844-0.75-0.041-0.042-0.083-0.083-0.125-0.125 0.001-0.043-0.001-0.095-0.031-0.125-0.252-0.251-0.539-0.497-0.813-0.719-0.057-0.059-0.098-0.13-0.156-0.188 0-0.029-0.011-0.073-0.031-0.094-0.176-0.175-0.376-0.339-0.563-0.5-0.138-0.154-0.29-0.322-0.438-0.469 0-0.014 0.011-0.021 0-0.031-0.166-0.165-0.355-0.316-0.531-0.469-0.155-0.176-0.301-0.365-0.469-0.531-2.049-2.037-4.83-3.144-7.719-3.094-4.701 0.082-8.613 3.193-9.969 7.438l-0.25-0.25-1-1-1-1-0.969-0.969-1-1-1-1-1-1-1-1-1-1-0.969-0.969-1-1-1-1-1-1-1-1-1-1-1-0.969 0.031-0.031-1-0.969-0.875-0.875-0.125-0.125-1-1-1-1-1-1-1-1-0.969-0.969-1-1-1-1-1-1-1-1-1-1-0.969-0.969-1-1-1-1-1-1-1-1-1-1-0.969-0.969-1-1-1-1-1-1-11.469-11.281c-0.002-0.002-0.219-0.188-0.219-0.188l-0.875-0.875-0.125-0.125-0.938-0.938-0.063-0.063-1-1-0.156 0.156c-0.015-0.015-0.086-0.117-0.094-0.125-0.085-0.084-0.111-0.112-0.188-0.188-0.004-0.004-0.518-0.525-1-1-0.004-0.004-0.512-0.519-1-1-0.004-0.004-0.499-0.507-1-1-0.004-0.004-0.483-0.49-0.969-0.969-0.004-0.004-0.497-0.505-1-1-0.001-0.001-0.136-0.105-0.156-0.125l-0.844-0.844c-0.008-0.008 0.008-0.024 0-0.031-0.004-0.004-0.513-0.52-1-1-0.004-0.004-0.53-0.537-1-1-0.004-0.004-0.568-0.575-1-1-0.004-0.004-0.589-0.595-0.969-0.969-0.001-0.001-0.204-0.206-0.344-0.344l-0.656-0.656c-0.002-0.002-0.273-0.246-0.531-0.5l-0.469-0.5-0.063-0.063-0.875-0.875-0.063-0.063c-0.003-0.003-0.813-0.781-0.813-0.781l-0.031-0.031-0.156-0.188-0.656-0.656-0.344-0.344c-0.002-0.002-0.531-0.5-0.531-0.5l-0.438-0.469-0.406-0.406-0.594-0.594-0.281-0.281-0.719-0.719-0.125-0.125-0.875-0.875-26.813-26.406c-55.816 54.987-56.51 144.09-1.844 199.66 0.259 0.268 0.52 0.546 0.781 0.813 0.072 0.075 0.147 0.144 0.219 0.219 0.524 0.533 1.059 1.067 1.594 1.594 0.328 0.336 0.668 0.666 1 1 0.33 0.338 0.666 0.664 1 1 0.143 0.149 0.294 0.289 0.438 0.438 0.175 0.178 0.355 0.354 0.531 0.531 0.329 0.337 0.667 0.665 1 1 0.329 0.338 0.667 0.665 1 1 0.327 0.336 0.669 0.667 1 1 0.326 0.334 0.67 0.668 1 1 0.33 0.339 0.666 0.664 1 1 0.32 0.328 0.645 0.643 0.969 0.969 0.328 0.337 0.667 0.665 1 1 0.327 0.336 0.669 0.667 1 1 0.327 0.336 0.669 0.667 1 1 0.327 0.336 0.668 0.666 1 1 0.33 0.339 0.666 0.664 1 1 0.318 0.327 0.647 0.645 0.969 0.969 0.328 0.338 0.667 0.665 1 1 0.329 0.338 0.667 0.665 1 1 0.327 0.336 0.669 0.667 1 1 0.325 0.334 0.671 0.668 1 1 0.33 0.339 0.666 0.664 1 1 0.32 0.329 0.645 0.642 0.969 0.969 0.328 0.338 0.667 0.665 1 1 0.326 0.336 0.669 0.667 1 1 0.329 0.339 0.667 0.664 1 1 0.327 0.337 0.669 0.666 1 1 0.325 0.335 0.671 0.668 1 1 0.33 0.34 0.665 0.663 1 1 0.32 0.33 0.644 0.642 0.969 0.969 0.328 0.338 0.667 0.664 1 1 0.326 0.336 0.669 0.666 1 1 0.326 0.337 0.669 0.666 1 1 0.327 0.337 0.668 0.666 1 1 0.329 0.34 0.666 0.663 1 1 0.317 0.328 0.647 0.644 0.969 0.969 0.328 0.339 0.667 0.664 1 1 0.328 0.339 0.667 0.664 1 1 0.326 0.337 0.669 0.666 1 1 0.324 0.335 0.671 0.668 1 1 0.329 0.341 0.666 0.663 1 1 0.319 0.33 0.645 0.641 0.969 0.969 0.327 0.339 0.667 0.664 1 1 0.325 0.337 0.67 0.666 1 1 0.326 0.337 0.669 0.666 1 1 0.326 0.338 0.669 0.665 1 1 0.324 0.336 0.671 0.668 1 1 0.643 0.667 1.305 1.315 1.969 1.969 0.016 0.016 0.047 0.015 0.063 0.031 0.328 0.34 0.667 0.664 1 1 0.326 0.337 0.669 0.666 1 1 0.308 0.319 0.624 0.652 0.938 0.969 0.349 0.362 0.738 0.704 1.094 1.063 0.33 0.342 0.665 0.662 1 1 0.292 0.302 0.579 0.607 0.875 0.906 0.327 0.34 0.667 0.663 1 1 0.371 0.386 0.778 0.744 1.156 1.125 0.326 0.338 0.668 0.666 1 1 0.278 0.288 0.561 0.589 0.844 0.875 0.329 0.342 0.665 0.661 1 1 0.382 0.398 0.797 0.763 1.188 1.156 0.328 0.34 0.666 0.664 1 1 0.259 0.269 0.518 0.546 0.781 0.813 0.325 0.339 0.669 0.665 1 1 0.399 0.416 0.842 0.808 1.25 1.219 0.33 0.342 0.664 0.662 1 1 0.24 0.249 0.475 0.503 0.719 0.75 0.326 0.341 0.668 0.663 1 1 0.421 0.441 0.881 0.847 1.313 1.281 0.326 0.338 0.668 0.666 1 1 0.227 0.236 0.457 0.485 0.688 0.719 0.324 0.339 0.67 0.665 1 1 0.432 0.452 0.9 0.867 1.344 1.313 0.328 0.34 0.665 0.664 1 1 0.209 0.216 0.414 0.442 0.625 0.656 0.323 0.339 0.67 0.665 1 1 0.448 0.471 0.945 0.912 1.406 1.375 0.324 0.336 0.67 0.668 1 1 0.333 0.345 0.66 0.69 1 1.031 0.185 0.191 0.376 0.372 0.563 0.563 0.47 0.494 0.984 0.952 1.469 1.438 0.326 0.338 0.667 0.666 1 1 0.177 0.183 0.352 0.38 0.531 0.563 0.477 0.503 1.01 0.975 1.5 1.469 0.331 0.343 0.662 0.661 1 1 0.333 0.346 0.659 0.69 1 1.031 0.329 0.341 0.664 0.663 1 1 0.331 0.343 0.693 0.661 1.031 1 0.327 0.339 0.666 0.666 1 1 0.329 0.341 0.664 0.695 1 1.031 0.324 0.336 0.668 0.668 1 1 0.334 0.346 0.69 0.659 1.031 1 0.329 0.341 0.663 0.663 1 1 0.453 0.47 0.907 0.945 1.375 1.406l0.031-0.031c0.33 0.337 0.631 0.699 0.969 1.031l0.031-0.031c0.328 0.336 0.633 0.7 0.969 1.031l0.031-0.031c0.329 0.337 0.632 0.7 0.969 1.031l0.031-0.031c0.323 0.33 0.607 0.674 0.938 1l0.031-0.031c0.046 0.048 0.078 0.109 0.125 0.156l0.063 61.31c0.576 0.004 1.142 0.031 1.719 0.031 120.9 0 218.91-98.01 218.91-218.91 0-10.11-0.674-20.07-2-29.813-0.239-0.23-0.488-0.453-0.719-0.688-0.209-0.217-0.414-0.44-0.625-0.656h-0.031c-0.113-0.116-0.23-0.228-0.344-0.344-0.209-0.217-0.414-0.44-0.625-0.656h-0.031c-0.113-0.116-0.23-0.228-0.344-0.344-0.199-0.206-0.393-0.42-0.594-0.625h-0.031c-0.123-0.126-0.251-0.249-0.375-0.375-0.199-0.206-0.393-0.42-0.594-0.625h-0.031c-0.123-0.126-0.251-0.249-0.375-0.375-0.199-0.206-0.393-0.42-0.594-0.625h-0.031c-0.087-0.09-0.162-0.192-0.25-0.281l-0.094-0.094c-0.32-0.331-0.677-0.64-1-0.969-0.209-0.217-0.414-0.44-0.625-0.656h-0.031c-0.113-0.116-0.23-0.228-0.344-0.344-0.209-0.217-0.414-0.44-0.625-0.656h-0.031c-0.113-0.116-0.23-0.228-0.344-0.344-0.199-0.206-0.393-0.42-0.594-0.625h-0.031c-0.123-0.126-0.251-0.249-0.375-0.375-0.199-0.206-0.393-0.42-0.594-0.625h-0.031c-0.123-0.126-0.251-0.249-0.375-0.375-0.199-0.206-0.393-0.42-0.594-0.625h-0.031c-0.087-0.09-0.162-0.192-0.25-0.281l-0.094-0.094c-0.32-0.331-0.677-0.64-1-0.969-0.209-0.217-0.414-0.44-0.625-0.656h-0.031c-0.113-0.116-0.23-0.228-0.344-0.344-0.209-0.217-0.414-0.44-0.625-0.656h-0.031c-0.113-0.116-0.23-0.228-0.344-0.344-0.199-0.206-0.393-0.42-0.594-0.625h-0.031c-0.123-0.126-0.251-0.249-0.375-0.375-0.199-0.206-0.393-0.42-0.594-0.625h-0.031c-0.123-0.126-0.251-0.249-0.375-0.375-0.199-0.206-0.393-0.42-0.594-0.625h-0.031c-0.123-0.126-0.251-0.249-0.375-0.375-0.199-0.206-0.393-0.42-0.594-0.625h-0.031c-0.113-0.116-0.23-0.228-0.344-0.344-0.209-0.217-0.414-0.44-0.625-0.656h-0.031c-0.113-0.116-0.23-0.228-0.344-0.344-0.209-0.217-0.414-0.44-0.625-0.656h-0.031c-0.113-0.116-0.23-0.228-0.344-0.344-0.199-0.206-0.393-0.42-0.594-0.625h-0.031c-0.123-0.126-0.251-0.249-0.375-0.375-0.199-0.206-0.393-0.42-0.594-0.625h-0.031c-0.123-0.126-0.251-0.249-0.375-0.375-0.199-0.206-0.393-0.42-0.594-0.625h-0.031c-0.123-0.126-0.251-0.249-0.375-0.375-0.199-0.206-0.393-0.42-0.594-0.625h-0.031c-0.087-0.09-0.162-0.192-0.25-0.281l-0.094-0.094c-0.32-0.331-0.677-0.64-1-0.969-0.209-0.217-0.414-0.44-0.625-0.656h-0.031c-0.113-0.116-0.23-0.228-0.344-0.344-0.209-0.217-0.414-0.44-0.625-0.656h-0.031c-0.113-0.116-0.23-0.228-0.344-0.344-0.199-0.206-0.393-0.42-0.594-0.625h-0.031c-0.123-0.126-0.251-0.249-0.375-0.375-0.199-0.206-0.393-0.42-0.594-0.625h-0.031c-0.123-0.126-0.251-0.249-0.375-0.375-0.199-0.206-0.393-0.42-0.594-0.625h-0.031c-0.087-0.09-0.162-0.192-0.25-0.281l-0.094-0.094c-0.32-0.331-0.677-0.64-1-0.969-0.209-0.217-0.414-0.44-0.625-0.656h-0.031c-0.113-0.116-0.23-0.228-0.344-0.344-0.209-0.217-0.414-0.44-0.625-0.656h-0.031c-0.113-0.116-0.23-0.228-0.344-0.344-0.199-0.206-0.393-0.42-0.594-0.625h-0.031c-0.123-0.126-0.251-0.249-0.375-0.375-0.199-0.206-0.393-0.42-0.594-0.625h-0.031c-0.123-0.126-0.251-0.249-0.375-0.375-0.199-0.206-0.393-0.42-0.594-0.625h-0.031c-0.123-0.126-0.251-0.249-0.375-0.375-0.199-0.206-0.393-0.42-0.594-0.625h-0.031c-0.113-0.116-0.23-0.228-0.344-0.344-0.209-0.217-0.414-0.44-0.625-0.656h-0.031c-0.113-0.116-0.23-0.228-0.344-0.344-0.209-0.217-0.414-0.44-0.625-0.656h-0.031c-0.113-0.116-0.23-0.228-0.344-0.344-0.199-0.206-0.393-0.42-0.594-0.625h-0.031c-0.123-0.126-0.251-0.249-0.375-0.375-0.199-0.206-0.393-0.42-0.594-0.625h-0.031c-0.123-0.126-0.251-0.249-0.375-0.375-0.199-0.206-0.393-0.42-0.594-0.625h-0.031c-0.123-0.126-0.251-0.249-0.375-0.375-0.199-0.206-0.393-0.42-0.594-0.625h-0.031c-0.087-0.09-0.162-0.192-0.25-0.281l-0.094-0.094c-0.32-0.331-0.677-0.64-1-0.969-0.209-0.217-0.414-0.44-0.625-0.656h-0.031c-0.113-0.116-0.23-0.228-0.344-0.344-0.209-0.217-0.414-0.44-0.625-0.656h-0.031c-0.113-0.116-0.23-0.228-0.344-0.344-0.199-0.206-0.393-0.42-0.594-0.625h-0.031c-0.123-0.126-0.251-0.249-0.375-0.375-0.199-0.206-0.393-0.42-0.594-0.625h-0.031c-0.123-0.126-0.251-0.249-0.375-0.375-0.199-0.206-0.393-0.42-0.594-0.625h-0.031c-0.087-0.09-0.162-0.192-0.25-0.281l-0.094-0.094c-0.32-0.331-0.677-0.64-1-0.969-0.209-0.217-0.414-0.44-0.625-0.656h-0.031c-0.113-0.116-0.23-0.228-0.344-0.344-0.209-0.217-0.414-0.44-0.625-0.656h-0.031c-0.113-0.116-0.23-0.228-0.344-0.344-0.199-0.206-0.393-0.42-0.594-0.625h-0.031c-0.123-0.126-0.251-0.249-0.375-0.375-0.199-0.206-0.393-0.42-0.594-0.625h-0.031c-0.123-0.126-0.251-0.249-0.375-0.375-0.199-0.206-0.393-0.42-0.594-0.625h-0.031c-0.087-0.09-0.162-0.192-0.25-0.281l-0.094-0.094c-0.32-0.331-0.677-0.64-1-0.969-0.209-0.217-0.414-0.44-0.625-0.656h-0.031c-0.113-0.116-0.23-0.228-0.344-0.344-0.209-0.217-0.414-0.44-0.625-0.656h-0.031c-0.113-0.116-0.23-0.228-0.344-0.344-0.199-0.206-0.393-0.42-0.594-0.625h-0.031c-0.123-0.126-0.251-0.249-0.375-0.375-0.199-0.206-0.393-0.42-0.594-0.625h-0.031c-0.123-0.126-0.251-0.249-0.375-0.375-0.199-0.206-0.393-0.42-0.594-0.625h-0.031c-0.123-0.126-0.251-0.249-0.375-0.375-0.199-0.206-0.393-0.42-0.594-0.625h-0.031c-0.113-0.116-0.23-0.228-0.344-0.344-0.209-0.217-0.414-0.44-0.625-0.656h-0.031c-0.113-0.116-0.23-0.228-0.344-0.344-0.209-0.217-0.414-0.44-0.625-0.656h-0.031c-0.113-0.116-0.23-0.228-0.344-0.344-0.199-0.206-0.393-0.42-0.594-0.625h-0.031c-0.123-0.126-0.251-0.249-0.375-0.375-0.199-0.206-0.393-0.42-0.594-0.625h-0.031c-0.123-0.126-0.251-0.249-0.375-0.375-0.199-0.206-0.393-0.42-0.594-0.625h-0.031c-0.123-0.126-0.251-0.249-0.375-0.375-0.199-0.206-0.393-0.42-0.594-0.625h-0.031c-0.087-0.09-0.162-0.192-0.25-0.281l-0.094-0.094c-0.32-0.331-0.677-0.64-1-0.969-0.209-0.217-0.414-0.44-0.625-0.656h-0.031c-0.113-0.116-0.23-0.228-0.344-0.344-0.209-0.217-0.414-0.44-0.625-0.656h-0.031c-0.113-0.116-0.23-0.228-0.344-0.344-0.199-0.206-0.393-0.42-0.594-0.625h-0.031c-0.123-0.126-0.251-0.249-0.375-0.375-0.199-0.206-0.393-0.42-0.594-0.625h-0.031c-0.123-0.126-0.251-0.249-0.375-0.375-0.199-0.206-0.393-0.42-0.594-0.625h-0.031c-0.087-0.09-0.162-0.192-0.25-0.281l-0.094-0.094c-0.32-0.331-0.677-0.64-1-0.969-0.209-0.217-0.414-0.44-0.625-0.656h-0.031c-0.113-0.116-0.23-0.228-0.344-0.344-0.209-0.217-0.414-0.44-0.625-0.656h-0.031c-0.113-0.116-0.23-0.228-0.344-0.344-0.199-0.206-0.393-0.42-0.594-0.625h-0.031c-0.123-0.126-0.251-0.249-0.375-0.375-0.199-0.206-0.393-0.42-0.594-0.625h-0.031c-0.123-0.126-0.251-0.249-0.375-0.375-0.199-0.206-0.393-0.42-0.594-0.625h-0.031c-0.123-0.126-0.251-0.249-0.375-0.375-0.199-0.206-0.393-0.42-0.594-0.625h-0.031c-0.113-0.116-0.23-0.228-0.344-0.344-0.209-0.217-0.414-0.44-0.625-0.656h-0.031c-0.113-0.116-0.23-0.228-0.344-0.344-0.209-0.217-0.414-0.44-0.625-0.656h-0.031c-0.113-0.116-0.23-0.228-0.344-0.344-0.199-0.206-0.393-0.42-0.594-0.625h-0.031c-0.123-0.126-0.251-0.249-0.375-0.375-0.199-0.206-0.393-0.42-0.594-0.625h-0.031c-0.123-0.126-0.251-0.249-0.375-0.375-0.199-0.206-0.393-0.42-0.594-0.625h-0.031c-0.123-0.126-0.251-0.249-0.375-0.375-0.199-0.206-0.393-0.42-0.594-0.625h-0.031c-0.087-0.09-0.162-0.192-0.25-0.281l-0.094-0.094c-0.32-0.331-0.677-0.64-1-0.969-0.209-0.217-0.414-0.44-0.625-0.656h-0.031c-0.113-0.116-0.23-0.228-0.344-0.344-0.209-0.217-0.414-0.44-0.625-0.656h-0.031c-0.113-0.116-0.23-0.228-0.344-0.344-0.199-0.206-0.393-0.42-0.594-0.625h-0.031c-0.123-0.126-0.251-0.249-0.375-0.375-0.199-0.206-0.393-0.42-0.594-0.625h-0.031c-0.123-0.126-0.251-0.249-0.375-0.375-0.199-0.206-0.393-0.42-0.594-0.625h-0.031c-0.087-0.09-0.162-0.192-0.25-0.281l-0.094-0.094c-0.32-0.331-0.677-0.64-1-0.969-0.209-0.217-0.414-0.44-0.625-0.656h-0.031c-0.113-0.116-0.23-0.228-0.344-0.344-0.209-0.217-0.414-0.44-0.625-0.656h-0.031c-0.113-0.116-0.23-0.228-0.344-0.344-0.199-0.206-0.393-0.42-0.594-0.625h-0.031c-0.123-0.126-0.251-0.249-0.375-0.375-0.199-0.206-0.393-0.42-0.594-0.625h-0.031c-0.123-0.126-0.251-0.249-0.375-0.375-0.199-0.206-0.393-0.42-0.594-0.625h-0.031c-0.087-0.09-0.162-0.192-0.25-0.281l-0.094-0.094c-0.32-0.331-0.677-0.64-1-0.969-0.209-0.217-0.414-0.44-0.625-0.656h-0.031c-0.113-0.116-0.23-0.228-0.344-0.344-0.209-0.217-0.414-0.44-0.625-0.656h-0.031c-0.113-0.116-0.23-0.228-0.344-0.344-0.199-0.206-0.393-0.42-0.594-0.625h-0.031c-0.123-0.126-0.251-0.249-0.375-0.375-0.199-0.206-0.393-0.42-0.594-0.625h-0.031c-0.123-0.126-0.251-0.249-0.375-0.375-0.199-0.206-0.393-0.42-0.594-0.625h-0.031c-0.123-0.126-0.251-0.249-0.375-0.375-0.199-0.206-0.393-0.42-0.594-0.625h-0.031c-0.113-0.116-0.23-0.228-0.344-0.344-0.209-0.217-0.414-0.44-0.625-0.656h-0.031c-0.113-0.116-0.23-0.228-0.344-0.344-0.209-0.217-0.414-0.44-0.625-0.656h-0.031c-0.113-0.116-0.23-0.228-0.344-0.344-0.199-0.206-0.393-0.42-0.594-0.625h-0.031c-0.123-0.126-0.251-0.249-0.375-0.375-0.852-0.883-1.714-1.759-2.594-2.625" color="#000000"/>
 <g id="g8" fill-rule="evenodd">
  <path id="path10" fill-opacity="0.067" d="m256 1c-140.83 0-255 114.17-255 255s114.17 255 255 255 255-114.17 255-255-114.17-255-255-255m8.827 44.931c120.9 0 218.9 98 218.9 218.9s-98 218.9-218.9 218.9-218.93-98-218.93-218.9 98.03-218.9 218.93-218.9"/>
  <g id="g12" fill-opacity="0.129">
   <path id="path14" d="m256 4.433c-138.94 0-251.57 112.63-251.57 251.57s112.63 251.57 251.57 251.57 251.57-112.63 251.57-251.57-112.63-251.57-251.57-251.57m5.885 38.556c120.9 0 218.9 98 218.9 218.9s-98 218.9-218.9 218.9-218.93-98-218.93-218.9 98.03-218.9 218.93-218.9"/>
   <path id="path16" d="m256 8.356c-136.77 0-247.64 110.87-247.64 247.64s110.87 247.64 247.64 247.64 247.64-110.87 247.64-247.64-110.87-247.64-247.64-247.64m2.942 31.691c120.9 0 218.9 98 218.9 218.9s-98 218.9-218.9 218.9-218.93-98-218.93-218.9 98.03-218.9 218.93-218.9"/>
  </g>
  <path id="path18" d="m253.04 7.859c-135.42 0-245.19 109.78-245.19 245.19 0 135.42 109.78 245.19 245.19 245.19 135.42 0 245.19-109.78 245.19-245.19 0-135.42-109.78-245.19-245.19-245.19zm0 26.297c120.9 0 218.9 98 218.9 218.9s-98 218.9-218.9 218.9-218.93-98-218.93-218.9 98.03-218.9 218.93-218.9z" stroke-opacity="0.31" stroke="#000" stroke-width="4.904" fill="#fff"/>
 </g>
 <g id="g66" fill="#fff" color="#000000">
  <path id="path68" d="m199.99 157.18c-30.902 30.442-30.995 79.959-0.135 110.36l14.694-14.475c-22.921-22.58-22.817-58.798 0.135-81.41l-14.69-14.47m97.33 14.343c22.921 22.58 23.09 59.06 0.135 81.68l14.694 14.475c30.902-30.442 30.725-80.22-0.135-110.63l-14.694 14.475"/>
  <path id="path70" d="m153.84 111.72c-56.36 55.52-56.53 145.83-0.25 201.28l26.799-26.401c-41.804-41.18-41.615-107.24 0.246-148.48l-26.8-26.4m177.52 26.16c41.804 41.18 42.11 107.72 0.246 148.96l26.799 26.4c56.36-55.52 56.04-146.32-0.246-201.76l-26.799 26.401"/>
 </g>
 <path id="path72" d="m261.89 212.11 0.121 269.67" stroke="#fff" stroke-linecap="round" stroke-width="21.375" fill="none"/>
</svg>
