<?xml version="1.0" encoding="UTF-8" standalone="no"?>
<svg xmlns="http://www.w3.org/2000/svg" viewBox="0 0 512 512">
 <g fill-rule="evenodd">
  <path d="m471.95 253.05c0 120.9-98.01 218.91-218.91 218.91s-218.91-98.01-218.91-218.91 98.01-218.91 218.91-218.91 218.91 98.01 218.91 218.91" fill="#BF9E73"/>
  <path d="m256 1c-140.83 0-255 114.17-255 255s114.17 255 255 255 255-114.17 255-255-114.17-255-255-255m8.827 44.931c120.9 0 218.9 98 218.9 218.9s-98 218.9-218.9 218.9-218.93-98-218.93-218.9 98.03-218.9 218.93-218.9" fill-opacity="0.067"/>
  <g fill-opacity="0.129">
   <path d="m256 4.43c-138.94 0-251.57 112.63-251.57 251.57s112.63 251.57 251.57 251.57 251.57-112.63 251.57-251.57-112.63-251.57-251.57-251.57m5.885 38.556c120.9 0 218.9 98 218.9 218.9s-98 218.9-218.9 218.9-218.93-98-218.93-218.9 98.03-218.9 218.93-218.9"/>
   <path d="m256 8.36c-136.77 0-247.64 110.87-247.64 247.64s110.87 247.64 247.64 247.64 247.64-110.87 247.64-247.64-110.87-247.64-247.64-247.64m2.942 31.691c120.9 0 218.9 98 218.9 218.9s-98 218.9-218.9 218.9-218.93-98-218.93-218.9 98.03-218.9 218.93-218.9"/>
  </g>
  <path stroke="#000" stroke-width="4.904" d="m253.04 7.86c-135.42 0-245.19 109.78-245.19 245.19 0 135.42 109.78 245.19 245.19 245.19 135.42 0 245.19-109.78 245.19-245.19 0-135.42-109.78-245.19-245.19-245.19m0 26.297c120.9 0 218.9 98 218.9 218.9s-98 218.9-218.9 218.9-218.93-98-218.93-218.9 98.03-218.9 218.93-218.9z" stroke-opacity="0.31" fill="#fff"/>
 </g>
 <path opacity="0.25" d="m252.96 156.91c-62.13 0-112.45 50.49-112.45 112.74 0 0.384-0.003 0.757 0 1.141-9.597 5.717-18.634 11.619-26.783 17.57-34.08 24.891-45.532 45.17-35.04 55.666l121.5 121.5c16.927 4.197 34.627 6.438 52.852 6.438 120.9 0 218.91-98.01 218.91-218.91 0-1.585-0.025-3.165-0.059-4.742l-38.555-38.555c-8.04-8.04-28.89-9.847-60.988-3.555-6.196 1.215-12.587 2.706-19.13 4.42l-20.744-20.744c-20.365-20.365-48.48-32.969-79.51-32.969"/>
 <path d="m252.96 156.91c-62.13 0-112.45 50.49-112.45 112.74 0 0.384-0.003 0.756 0 1.14-9.597 5.717-18.634 11.619-26.783 17.571-54.886 40.08-51.07 68.21 8.548 62.78 59.62-5.426 152.45-42.36 207.33-82.44 22.429-16.38 35.07-30.788 38.09-41.695-5.65 6.221-13.198 12.976-22.604 20.14-50.17 38.18-134.99 73.28-189.48 78.45-51.624 4.896-57.19-18.873-15.01-53.852 0.103 4.788 0.474 9.529 1.14 14.15 22.13 3.366 47.04 4.084 66.39 2.184 12.657-1.237 24.341-3.688 35.901-6.838 14.255-3.5 27.339-7.984 40.18-13.11 28.313-10.398 50.25-22.619 74.37-37.421-2.185-5.944-4.869-11.669-7.978-17.1 47.02-3.971 57.22 15.969 20.705 48.628-40.797 36.493-124.16 74.865-186.25 85.76-11.643 2.044-21.799 3.02-30.2 2.944 10.05 5.192 29.26 5.722 56.51 0.38 66.69-13.07 156.88-56.13 201.35-96.21s26.329-61.987-40.37-48.913c-7.38 1.447-15.02 3.267-22.889 5.414-19.684-32.764-55.56-54.707-96.5-54.707" fill="#fff"/>
</svg>
