<?xml version="1.0" encoding="UTF-8" standalone="no"?>
<svg xmlns="http://www.w3.org/2000/svg" height="512" viewBox="0 0 512 512" width="512" version="1.1">
 <metadata id="metadata72"/>
 <path id="path4" d="m471.95 253.05c0 120.9-98.01 218.9-218.9 218.9-120.9 0-218.9-98.01-218.9-218.9 0-120.9 98.01-218.9 218.9-218.9 120.9 0 218.9 98.01 218.9 218.9" fill-rule="evenodd" fill="#BF9E73"/>
 <path id="path6" fill-opacity="0.235" d="m256 103.94c-47.25 0-85.53 38.32-85.53 85.56 0 25.427 11.07 48.27 27.719 65.844 16.629 17.558 17.342 40.08 17.219 58.844v0.031c-0.256 0.991-0.106 2.05 0.406 2.938v0.031c0.064 0.11 8.219 14.219 8.219 14.219-0.067 0.089-8.656 11.531-8.656 11.531-1.057 1.426-0.967 3.589 0.188 4.938 0.05 0.059 6.438 7.594 6.438 7.594h-0.031c-0.044 0.057-5.688 7.375-5.688 7.375-1.068 1.385-1.054 3.503 0.031 4.875l5.875 7.438v0.094c-0.04 0.053-5.094 6.813-5.094 6.813-1.301 1.745-0.745 4.515 1.063 5.688 0.269 0.393 0.569 0.737 0.969 1 0.267 0.386 0.607 0.741 1 1 0.267 0.386 0.607 0.741 1 1 0.263 0.379 0.584 0.711 0.969 0.969 0.266 0.392 0.605 0.735 1 1 0.276 0.406 0.618 0.732 1.031 1 0.264 0.386 0.548 0.738 0.938 1 0.271 0.399 0.627 0.733 1.031 1 0.267 0.386 0.607 0.741 1 1 0.268 0.387 0.605 0.74 1 1 0.263 0.379 0.584 0.712 0.969 0.969 0.276 0.406 0.618 0.732 1.031 1 0.264 0.386 0.548 0.738 0.938 1 0.271 0.399 0.627 0.733 1.031 1 0.267 0.386 0.607 0.741 1 1 0.268 0.387 0.605 0.74 1 1 0.263 0.379 0.584 0.711 0.969 0.969 0.276 0.406 0.618 0.732 1.031 1 0.264 0.386 0.548 0.738 0.938 1 0.271 0.399 0.627 0.733 1.031 1 0.267 0.386 0.607 0.741 1 1 0.267 0.386 0.607 0.741 1 1 0.263 0.379 0.584 0.711 0.969 0.969 0.266 0.392 0.605 0.735 1 1 0.276 0.406 0.618 0.732 1.031 1 0.269 0.394 0.569 0.737 0.969 1 0.267 0.386 0.607 0.741 1 1 0.267 0.386 0.607 0.741 1 1 0.263 0.379 0.584 0.711 0.969 0.969 0.267 0.394 0.604 0.735 1 1 0.276 0.406 0.618 0.732 1.031 1 0.264 0.386 0.548 0.738 0.938 1 0.271 0.399 0.627 0.733 1.031 1 0.267 0.386 0.607 0.741 1 1 0.268 0.387 0.605 0.74 1 1 0.263 0.379 0.584 0.711 0.969 0.969 0.276 0.406 0.618 0.732 1.031 1 0.264 0.386 0.548 0.738 0.938 1 0.271 0.399 0.627 0.733 1.031 1 0.267 0.386 0.607 0.741 1 1 0.267 0.386 0.607 0.741 1 1 0.263 0.379 0.584 0.711 0.969 0.969 0.266 0.392 0.605 0.735 1 1 0.276 0.406 0.618 0.732 1.031 1 0.269 0.394 0.569 0.737 0.969 1 0.267 0.386 0.607 0.741 1 1 0.267 0.386 0.607 0.741 1 1 0.263 0.379 0.584 0.711 0.969 0.969 0.266 0.392 0.605 0.735 1 1 0.276 0.406 0.618 0.732 1.031 1 0.264 0.386 0.548 0.738 0.938 1 0.271 0.399 0.627 0.733 1.031 1 0.267 0.386 0.607 0.741 1 1 0.268 0.387 0.605 0.74 1 1 0.263 0.379 0.584 0.711 0.969 0.969 0.276 0.406 0.618 0.732 1.031 1 0.264 0.386 0.548 0.738 0.938 1 0.271 0.399 0.627 0.733 1.031 1 0.267 0.386 0.607 0.741 1 1 0.268 0.387 0.605 0.74 1 1 0.263 0.379 0.584 0.711 0.969 0.969 0.276 0.406 0.618 0.732 1.031 1 0.264 0.386 0.548 0.738 0.938 1 0.271 0.399 0.627 0.733 1.031 1 0.267 0.386 0.607 0.741 1 1 0.267 0.386 0.607 0.741 1 1 0.263 0.379 0.584 0.711 0.969 0.969 0.266 0.392 0.605 0.735 1 1 0.276 0.406 0.618 0.732 1.031 1 0.269 0.394 0.569 0.736 0.969 1 0.267 0.386 0.607 0.741 1 1 0.267 0.386 0.607 0.741 1 1 0.263 0.379 0.584 0.711 0.969 0.969 0.267 0.394 0.604 0.735 1 1 0.276 0.406 0.618 0.732 1.031 1 0.264 0.386 0.548 0.738 0.938 1 0.271 0.399 0.627 0.733 1.031 1 0.267 0.386 0.607 0.741 1 1 0.268 0.387 0.605 0.74 1 1 0.263 0.379 0.584 0.711 0.969 0.969 0.008 0.012 0.023 0.019 0.031 0.031 90.04-18.688 159.82-92.69 172.22-184.87-0.085-0.082-0.165-0.168-0.25-0.25-0.166-0.166-0.332-0.335-0.5-0.5-0.33-0.336-0.665-0.67-1-1-0.33-0.336-0.665-0.67-1-1-0.237-0.241-0.479-0.48-0.719-0.719-0.402-0.412-0.809-0.815-1.219-1.219-0.363-0.369-0.724-0.731-1.094-1.094-0.477-0.484-0.95-0.965-1.438-1.438-0.166-0.166-0.332-0.335-0.5-0.5-0.33-0.336-0.665-0.67-1-1-0.33-0.336-0.665-0.67-1-1-0.237-0.241-0.479-0.48-0.719-0.719-0.434-0.445-0.869-0.877-1.313-1.313-0.477-0.484-0.95-0.965-1.438-1.438-0.166-0.166-0.332-0.335-0.5-0.5-0.33-0.336-0.665-0.67-1-1-0.33-0.336-0.665-0.67-1-1-0.237-0.241-0.479-0.48-0.719-0.719-0.418-0.429-0.823-0.861-1.25-1.281-0.492-0.501-0.995-0.98-1.5-1.469-0.166-0.166-0.332-0.335-0.5-0.5-0.33-0.336-0.665-0.67-1-1-0.33-0.336-0.665-0.67-1-1-0.237-0.241-0.479-0.48-0.719-0.719-0.418-0.429-0.823-0.861-1.25-1.281-0.492-0.501-0.995-0.98-1.5-1.469-0.166-0.166-0.332-0.335-0.5-0.5-0.33-0.336-0.665-0.67-1-1-0.33-0.336-0.665-0.67-1-1-0.237-0.241-0.479-0.48-0.719-0.719-0.421-0.432-0.851-0.858-1.281-1.281-0.342-0.348-0.683-0.689-1.031-1.031-0.477-0.484-0.95-0.965-1.438-1.438-0.166-0.166-0.332-0.335-0.5-0.5-0.33-0.336-0.665-0.67-1-1-0.33-0.336-0.665-0.67-1-1-0.237-0.241-0.479-0.48-0.719-0.719-0.434-0.445-0.869-0.877-1.313-1.313-0.477-0.484-0.95-0.965-1.438-1.438-0.166-0.166-0.332-0.335-0.5-0.5-0.33-0.336-0.665-0.67-1-1-0.33-0.336-0.665-0.67-1-1-0.237-0.241-0.479-0.48-0.719-0.719-0.418-0.429-0.823-0.861-1.25-1.281-0.492-0.501-0.995-0.98-1.5-1.469-0.166-0.166-0.332-0.335-0.5-0.5-0.33-0.336-0.665-0.67-1-1-0.33-0.336-0.665-0.67-1-1-0.237-0.241-0.479-0.48-0.719-0.719-0.402-0.412-0.809-0.815-1.219-1.219-0.363-0.369-0.724-0.731-1.094-1.094-0.477-0.484-0.95-0.965-1.438-1.438-0.166-0.166-0.332-0.335-0.5-0.5-0.33-0.336-0.665-0.67-1-1-0.33-0.336-0.665-0.67-1-1-0.237-0.241-0.479-0.48-0.719-0.719-0.434-0.445-0.869-0.877-1.313-1.313-0.477-0.484-0.95-0.965-1.438-1.438-0.166-0.166-0.332-0.335-0.5-0.5-0.33-0.336-0.665-0.67-1-1-0.33-0.336-0.665-0.67-1-1-0.237-0.241-0.479-0.48-0.719-0.719-0.418-0.429-0.823-0.861-1.25-1.281-0.492-0.501-0.995-0.98-1.5-1.469-0.166-0.166-0.332-0.335-0.5-0.5-0.33-0.336-0.665-0.67-1-1-0.33-0.336-0.665-0.67-1-1-0.237-0.241-0.479-0.48-0.719-0.719-0.418-0.429-0.823-0.861-1.25-1.281-0.492-0.501-0.995-0.98-1.5-1.469-0.166-0.166-0.332-0.335-0.5-0.5-0.33-0.336-0.665-0.67-1-1-0.33-0.336-0.665-0.67-1-1-0.237-0.241-0.479-0.48-0.719-0.719-0.421-0.432-0.851-0.858-1.281-1.281-0.342-0.348-0.683-0.689-1.031-1.031-0.477-0.484-0.95-0.965-1.438-1.438-0.166-0.166-0.332-0.335-0.5-0.5-0.33-0.336-0.665-0.67-1-1-0.33-0.336-0.665-0.67-1-1-0.237-0.241-0.479-0.48-0.719-0.719-0.434-0.445-0.869-0.877-1.313-1.313-0.477-0.484-0.95-0.965-1.438-1.438-0.166-0.166-0.332-0.335-0.5-0.5-0.33-0.336-0.665-0.67-1-1-0.33-0.336-0.665-0.67-1-1-0.237-0.241-0.479-0.48-0.719-0.719-0.418-0.429-0.823-0.861-1.25-1.281-0.492-0.501-0.995-0.98-1.5-1.469-0.166-0.166-0.332-0.335-0.5-0.5-0.33-0.336-0.665-0.67-1-1-0.33-0.336-0.665-0.67-1-1-0.237-0.241-0.479-0.48-0.719-0.719-0.402-0.412-0.809-0.815-1.219-1.219-0.508-0.517-1.01-1.027-1.531-1.531-0.166-0.166-0.332-0.335-0.5-0.5-0.33-0.336-0.665-0.67-1-1-0.33-0.336-0.665-0.67-1-1-0.33-0.336-0.665-0.67-1-1-0.237-0.241-0.479-0.48-0.719-0.719-0.434-0.445-0.869-0.877-1.313-1.313-0.477-0.484-0.95-0.965-1.438-1.438-0.166-0.166-0.332-0.335-0.5-0.5-0.33-0.336-0.665-0.67-1-1-0.33-0.336-0.665-0.67-1-1-0.237-0.241-0.479-0.48-0.719-0.719-0.418-0.429-0.823-0.861-1.25-1.281-0.492-0.501-0.995-0.98-1.5-1.469-0.166-0.166-0.332-0.335-0.5-0.5-0.33-0.336-0.665-0.67-1-1-0.33-0.336-0.665-0.67-1-1-0.237-0.241-0.479-0.48-0.719-0.719-0.418-0.429-0.823-0.861-1.25-1.281-0.492-0.501-0.995-0.98-1.5-1.469-0.166-0.166-0.332-0.335-0.5-0.5-0.33-0.336-0.665-0.67-1-1-0.33-0.336-0.665-0.67-1-1-0.237-0.241-0.479-0.48-0.719-0.719-0.402-0.412-0.809-0.815-1.219-1.219-0.363-0.369-0.724-0.731-1.094-1.094-0.477-0.484-0.95-0.965-1.438-1.438-0.166-0.166-0.332-0.335-0.5-0.5-0.33-0.336-0.665-0.67-1-1-0.33-0.336-0.665-0.67-1-1-0.237-0.241-0.479-0.48-0.719-0.719-0.434-0.445-0.869-0.877-1.313-1.313-0.477-0.484-0.95-0.965-1.438-1.438-0.166-0.166-0.332-0.335-0.5-0.5-0.33-0.336-0.665-0.67-1-1-0.33-0.336-0.665-0.67-1-1-0.237-0.241-0.479-0.48-0.719-0.719-0.418-0.429-0.823-0.861-1.25-1.281-0.492-0.501-0.995-0.98-1.5-1.469-0.166-0.166-0.332-0.335-0.5-0.5-0.33-0.336-0.665-0.67-1-1-0.33-0.336-0.665-0.67-1-1-0.237-0.241-0.479-0.48-0.719-0.719-0.418-0.429-0.823-0.861-1.25-1.281-0.492-0.501-0.995-0.98-1.5-1.469-0.166-0.166-0.332-0.335-0.5-0.5-0.33-0.336-0.665-0.67-1-1-0.33-0.336-0.665-0.67-1-1-0.237-0.241-0.479-0.48-0.719-0.719-0.421-0.432-0.851-0.858-1.281-1.281-0.342-0.348-0.683-0.689-1.031-1.031-0.477-0.484-0.95-0.965-1.438-1.438-0.166-0.166-0.332-0.335-0.5-0.5-0.33-0.336-0.665-0.67-1-1-0.33-0.336-0.665-0.67-1-1-0.237-0.241-0.479-0.48-0.719-0.719-0.434-0.445-0.869-0.877-1.313-1.313-0.477-0.484-0.95-0.965-1.438-1.438-0.166-0.166-0.332-0.335-0.5-0.5-0.33-0.336-0.665-0.67-1-1-0.33-0.336-0.665-0.67-1-1-15.514-15.778-37.09-25.563-60.969-25.563" color="#000000"/>
 <g id="g8" fill-rule="evenodd">
  <path id="path10" fill-opacity="0.067" d="m256 1c-140.83 0-255 114.17-255 255s114.17 255 255 255 255-114.17 255-255-114.17-255-255-255m8.827 44.931c120.9 0 218.9 98 218.9 218.9s-98 218.9-218.9 218.9-218.93-98-218.93-218.9 98.03-218.9 218.93-218.9"/>
  <g id="g12" fill-opacity="0.129">
   <path id="path14" d="m256 4.433c-138.94 0-251.57 112.63-251.57 251.57s112.63 251.57 251.57 251.57 251.57-112.63 251.57-251.57-112.63-251.57-251.57-251.57m5.885 38.556c120.9 0 218.9 98 218.9 218.9s-98 218.9-218.9 218.9-218.93-98-218.93-218.9 98.03-218.9 218.93-218.9"/>
   <path id="path16" d="m256 8.356c-136.77 0-247.64 110.87-247.64 247.64s110.87 247.64 247.64 247.64 247.64-110.87 247.64-247.64-110.87-247.64-247.64-247.64m2.942 31.691c120.9 0 218.9 98 218.9 218.9s-98 218.9-218.9 218.9-218.93-98-218.93-218.9 98.03-218.9 218.93-218.9"/>
  </g>
  <path id="path18" d="m253.04 7.859c-135.42 0-245.19 109.78-245.19 245.19 0 135.42 109.78 245.19 245.19 245.19 135.42 0 245.19-109.78 245.19-245.19 0-135.42-109.78-245.19-245.19-245.19zm0 26.297c120.9 0 218.9 98 218.9 218.9s-98 218.9-218.9 218.9-218.93-98-218.93-218.9 98.03-218.9 218.93-218.9z" stroke-opacity="0.31" stroke="#000" stroke-width="4.904" fill="#fff"/>
 </g>
 <path id="path66" fill="#fff" d="m256 103.94c-47.25 0-85.53 38.31-85.53 85.56 0 25.427 11.08 48.26 27.731 65.84 16.63 17.558 17.333 40.1 17.21 58.864-0.257 0.992-0.108 2.082 0.404 2.969l8.216 14.24-8.648 11.531c-1.057 1.426-0.981 3.581 0.173 4.929l6.428 7.581-5.708 7.38c-1.069 1.385-1.056 3.5 0.029 4.872l5.881 7.466v0.086l-5.102 6.803c-1.368 1.834-0.677 4.83 1.355 5.881 12.394 6.984 25.847 13.576 37.619 19.66 1.17 0.619 2.655 0.596 3.805-0.058l33.526-19.14c2.024-1.152 2.56-4.262 1.038-6.02l-5.564-6.457 8.533-8.273c1.593-1.534 1.492-4.459-0.202-5.881l-7.697-6.515 6.688-7.236c1.257-1.358 1.36-3.636 0.231-5.102l-7.38-9.542 7.06-17.383c0.207-0.51 0.306-1.064 0.288-1.614-0.118-18.229-1.059-41.35 12.223-57.45 20.03-15.654 32.92-40.03 32.92-67.43 0-47.25-38.28-85.56-85.53-85.56m0 19.2c36.65 0 66.36 29.709 66.36 66.36 0 21.728-10.461 41.04-27.21 53.53-15.361 15.433-20.02 47.878-19.17 67.51-3.997-0.01-8.01-0.023-12.02-0.029l-0.029-76.77c6.153-13.911 9.16-15.496 13.549-21.274 1.976-4.353 0.335-8.186-5.02-9.253-2.972-0.405-6.192-0.848-9.542-1.182-2.13-0.212-4.711-0.3-7.437-0.288-8.18 0.036-17.631 1.027-19.718 2.623-1.122 0.801-2.213 1.609-2.825 3.43-0.538 1.664-0.045 3.524 1.038 5.477 6.478 7.252 10.786 11.568 13 20.726v76.56c-3.704 0.033-7.419 0.072-11.127 0.144 0.897-19.639-3.673-52.24-17.411-66.59-0.008-0.005 0.008-0.024 0-0.029l-9.715-7.754c-9.667-7.767-19.08-26.21-19.08-46.843 0-36.65 29.709-66.36 66.36-66.36m-21.01 48.573c-1.462 0.066-2.851 1-3.459 2.335-3.76 8.3-9.287 14.598-20.871 18.1l2.306 7.668c11.578-3.503 18.818-10.316 23.494-18.276 6.568 4.711 11.871 7.611 17.901 7.754 6.149 0.146 12.139-2.468 20.21-6.947 4.365 8.822 11.669 14.326 19.775 17.815l3.171-7.351c-8.119-3.494-14.11-8.256-17.238-17.411-0.756-2.222-3.724-3.35-5.765-2.191-10.04 5.783-15.652 8.174-19.948 8.07-4.296-0.102-8.778-2.573-16.95-8.763-0.744-0.564-1.691-0.855-2.623-0.807m59.56 71.69c0.412-0.247-0.391 0.252-1.211 0.749v0.029l1.211-0.778m-38.714 75.01c10.218-0.021 20.48 0.037 30.729 0.029l-0.951 2.335-53.16 9.513c-0.072-0.189-0.159-0.372-0.259-0.548l-6.227-10.781c9.923-0.341 19.877-0.527 29.865-0.548m26.23 11.127-1.211 2.969c-0.508 1.273-0.292 2.808 0.548 3.892l3.373 4.353-56.27 10.147-4.872-5.765 4.439-5.909zm5.967 15.451 0.086 0.115-0.058 0.058-0.029-0.173m-3.43 3.92-3.719 4.04c-1.447 1.563-1.279 4.331 0.346 5.708l3.344 2.825-55.23 9.974-4.901-6.198 4.901-6.4zm3.171 15.278 0.98 0.836-0.721 0.692zm-3.863 5.535-3.229 3.142c-1.426 1.391-1.533 3.912-0.231 5.419l2.45 2.825-47.28 6.89-9.398-4.901 2.566-3.402zm-10.262 20.842-15.826 9.05-10.09-5.275z" color="#000000"/>
</svg>
