<?xml version="1.0" encoding="UTF-8" standalone="no"?>
<svg xmlns:dc="http://purl.org/dc/elements/1.1/" xmlns:cc="http://creativecommons.org/ns#" xmlns:rdf="http://www.w3.org/1999/02/22-rdf-syntax-ns#" xmlns:svg="http://www.w3.org/2000/svg" xmlns="http://www.w3.org/2000/svg" xmlns:sodipodi="http://sodipodi.sourceforge.net/DTD/sodipodi-0.dtd" xmlns:inkscape="http://www.inkscape.org/namespaces/inkscape" height="512" viewBox="0 0 512 512" width="512" version="1.1" id="svg2" inkscape:version="0.91 r" sodipodi:docname="reload.svg">
<defs id="defs17" />
<sodipodi:namedview pagecolor="#ffffff" bordercolor="#666666" borderopacity="1" objecttolerance="10" gridtolerance="10" guidetolerance="10" inkscape:pageopacity="0" inkscape:pageshadow="2" inkscape:window-width="1680" inkscape:window-height="994" id="namedview15" showgrid="false" inkscape:zoom="1.3037281" inkscape:cx="90.567989" inkscape:cy="244.919" inkscape:window-x="0" inkscape:window-y="0" inkscape:window-maximized="1" inkscape:current-layer="svg2" />
<metadata id="metadata28">
<rdf:RDF>
<cc:Work rdf:about="">
<dc:format>image/svg+xml</dc:format>
<dc:type rdf:resource="http://purl.org/dc/dcmitype/StillImage" />
<dc:title></dc:title>
</cc:Work>
</rdf:RDF>
</metadata>
<path style="fill:#BF9E73;fill-rule:evenodd;fill-opacity:1" inkscape:connector-curvature="0" d="m 471.95,253.05 c 0,120.9 -98.01,218.9 -218.9,218.9 -120.9,0 -218.9,-98.01 -218.9,-218.9 0,-120.9 98.01,-218.9 218.9,-218.9 120.9,0 218.9,98.01 218.9,218.9" id="path6" />
<path style="fill-opacity:0.06700003;fill-rule:evenodd" inkscape:connector-curvature="0" d="M 256,1 C 115.17,1 1,115.17 1,256 1,396.83 115.17,511 256,511 396.83,511 511,396.83 511,256 511,115.17 396.83,1 256,1 m 8.827,44.931 c 120.9,0 218.9,98 218.9,218.9 0,120.9 -98,218.9 -218.9,218.9 -120.9,0 -218.93,-98 -218.93,-218.9 0,-120.9 98.03,-218.9 218.93,-218.9" id="path8" />
<g style="fill-opacity:0.12900002;fill-rule:evenodd" id="g10">
<path inkscape:connector-curvature="0" d="m 256,4.433 c -138.94,0 -251.57,112.63 -251.57,251.57 0,138.94 112.63,251.57 251.57,251.57 138.94,0 251.57,-112.63 251.57,-251.57 C 507.57,117.063 394.94,4.433 256,4.433 m 5.885,38.556 c 120.9,0 218.9,98 218.9,218.9 0,120.9 -98,218.9 -218.9,218.9 -120.9,0 -218.93,-98 -218.93,-218.9 0,-120.9 98.03,-218.9 218.93,-218.9" id="path12" />
<path inkscape:connector-curvature="0" d="m 256,8.356 c -136.77,0 -247.64,110.87 -247.64,247.64 0,136.77 110.87,247.64 247.64,247.64 136.77,0 247.64,-110.87 247.64,-247.64 C 503.64,119.226 392.77,8.356 256,8.356 m 2.942,31.691 c 120.9,0 218.9,98 218.9,218.9 0,120.9 -98,218.9 -218.9,218.9 -120.9,0 -218.93,-98 -218.93,-218.9 0,-120.9 98.03,-218.9 218.93,-218.9" id="path14" />
</g>
<path inkscape:connector-curvature="0" style="opacity:0.25" id="path4190" d="m 330.30836,111.70481 c -11.198,0.1 -21.02,1.705 -27.752,3.223 -0.849,0.192 -1.489,0.381 -2.236,0.568 l 11.867,11.867 c -12.395,-6.969 -27.615,-11.738 -46.14,-12.02 -1.129,-0.018 -2.246,-0.024 -3.336,0 -16.356,0.358 -28.394,5.332 -37.533,12.662 -0.379,0.304 -0.744,0.621 -1.113,0.934 l -4.193,-4.193 c -8.754,-2.926 -29.06,-8.852 -49.85401,-8.834 -1.835,10e-4 1.70322,26.89709 -4.73097,18.56075 -14.657,0.81 -13.41638,-1.17125 -23.51838,9.14075 -10.1,10.313 -9.64472,20.91374 -41.20905,51.9089 0.286,5.357 231.17527,122.32718 250.47489,137.79311 0.85428,3.66924 -14.49412,30.0383 -28.48989,21.57294 -102.49432,-61.99381 -146.89818,-81.9677 -133.15833,-72.67923 -23.37921,4.08047 -73.89858,-4.6975 -33.80327,34.62878 l -15.89178,53.78491 159.56257,99.10025 c 97.12,-22.39 174.89922,-113.23516 174.89922,-217.14516 0,-14.14 4.77925,-46.37975 2.21625,-59.77875 l -24.58946,-15.99013 -4.39557,3.54794 -58.05044,-31.63953 c -24.09865,-13.13461 -44.06,-29.51922 -59.03078,-37.01253" sodipodi:nodetypes="ccccccccccccccsccccscccsc" />
<g transform="matrix(4.048651,0,0,4.048651,-0.60045954,-4.0848905)" style="fill:#ffffff;fill-opacity:0.9020004" id="g6">
<path inkscape:connector-curvature="0" d="M 102.98047,48.042969 C 96.222656,33.402344 81.117188,24 64.085938,24 46.671875,24 30.757812,34.289062 24.488281,49.597656 L 37.6875,54.402344 c 4.175781,-10.210938 14.789062,-17.066406 26.398438,-17.066406 11.207031,0 21.117187,6.128906 25.707031,15.667968 l -9.628907,3.625 24.624998,13.394532 7.19922,-25.371094 z" id="path8-9" />
<path inkscape:connector-curvature="0" d="m 64.085938,90.675781 c -11.101563,0 -21.226563,-6.316406 -25.753907,-15.792969 L 47.824219,71.425781 23.457031,58.324219 16,83.019531 l 9.085938,-3.3125 c 6.625,14.585938 22.09375,24.300779 39,24.300779 17.480468,0 32.957031,-9.886716 39.429692,-25.183591 L 90.378906,73.882812 C 86.058594,84.082031 75.742188,90.675781 64.085938,90.675781 Z" id="path10" />
</g>
<path style="fill:#ffffff;fill-rule:evenodd;stroke:#000000;stroke-width:4.90399981;stroke-opacity:0.31000001" inkscape:connector-curvature="0" d="m 253.04,7.859 c -135.42,0 -245.19,109.78 -245.19,245.19 0,135.42 109.78,245.19 245.19,245.19 135.42,0 245.19,-109.78 245.19,-245.19 0,-135.42 -109.78,-245.19 -245.19,-245.19 z m 0,26.297 c 120.9,0 218.9,98 218.9,218.9 0,120.9 -98,218.9 -218.9,218.9 -120.9,0 -218.93,-98 -218.93,-218.9 0,-120.9 98.03,-218.9 218.93,-218.9 z" id="path16" />
</svg>
