<?xml version="1.0" encoding="UTF-8" standalone="no"?>
<svg xmlns="http://www.w3.org/2000/svg" viewBox="0 0 512 512">
 <g fill-rule="evenodd">
  <path d="m471.95 253.05c0 120.9-98.01 218.91-218.91 218.91s-218.91-98.01-218.91-218.91 98.01-218.91 218.91-218.91 218.91 98.01 218.91 218.91" fill="#BF9E73"/>
  <path d="m256 1c-140.83 0-255 114.17-255 255s114.17 255 255 255 255-114.17 255-255-114.17-255-255-255m8.827 44.931c120.9 0 218.9 98 218.9 218.9s-98 218.9-218.9 218.9-218.93-98-218.93-218.9 98.03-218.9 218.93-218.9" fill-opacity="0.067"/>
  <g fill-opacity="0.129">
   <path d="m256 4.43c-138.94 0-251.57 112.63-251.57 251.57s112.63 251.57 251.57 251.57 251.57-112.63 251.57-251.57-112.63-251.57-251.57-251.57m5.885 38.556c120.9 0 218.9 98 218.9 218.9s-98 218.9-218.9 218.9-218.93-98-218.93-218.9 98.03-218.9 218.93-218.9"/>
   <path d="m256 8.36c-136.77 0-247.64 110.87-247.64 247.64s110.87 247.64 247.64 247.64 247.64-110.87 247.64-247.64-110.87-247.64-247.64-247.64m2.942 31.691c120.9 0 218.9 98 218.9 218.9s-98 218.9-218.9 218.9-218.93-98-218.93-218.9 98.03-218.9 218.93-218.9"/>
  </g>
  <path stroke="#000" stroke-width="4.904" d="m253.04 7.86c-135.42 0-245.19 109.78-245.19 245.19 0 135.42 109.78 245.19 245.19 245.19 135.42 0 245.19-109.78 245.19-245.19 0-135.42-109.78-245.19-245.19-245.19m0 26.297c120.9 0 218.9 98 218.9 218.9s-98 218.9-218.9 218.9-218.93-98-218.93-218.9 98.03-218.9 218.93-218.9z" stroke-opacity="0.31" fill="#fff"/>
 </g>
 <text font-size="129.23" y="231.36" x="729.64" font-family="&apos;Gentium Book Basic&apos;" line-height="125%" word-spacing="0" letter-spacing="0"><tspan y="231.36" x="729.64"/>
 </text>
 <text transform="scale(4.0128.2492)" font-size="46.954" y="579.26" x="378.91" font-family="Arial" text-anchor="middle"/>
 <text font-size="129.23" y="151.36" x="1310.91" font-family="&apos;Gentium Book Basic&apos;" line-height="125%" word-spacing="0" letter-spacing="0"><tspan y="151.36" x="1310.91"/>
 </text>
 <text transform="scale(4.0128.2492)" font-size="46.954" y="258.22" x="523.76" font-family="Arial" text-anchor="middle"/>
 <text font-size="129.23" y="-29.9" x="239.33" font-family="&apos;Gentium Book Basic&apos;" line-height="125%" word-spacing="0" letter-spacing="0"><tspan y="-29.9" x="239.33"/>
 </text>
 <text transform="scale(4.0128.2492)" font-size="46.954" y="-469.13" x="256.72" font-family="Arial" text-anchor="middle"/>
 <text font-size="129.23" y="-246.37" x="1337.38" font-family="&apos;Gentium Book Basic&apos;" line-height="125%" word-spacing="0" letter-spacing="0"><tspan y="-246.37" x="1337.38"/>
 </text>
 <text transform="scale(4.0128.2492)" font-size="46.954" y="-1337.8" x="530.36" font-family="Arial" text-anchor="middle"/>
 <text font-size="129.23" y="-326.37" x="1918.65" font-family="&apos;Gentium Book Basic&apos;" line-height="125%" word-spacing="0" letter-spacing="0"><tspan y="-326.37" x="1918.65"/>
 </text>
 <text transform="scale(4.0128.2492)" font-size="46.954" y="-1658.83" x="675.21" font-family="Arial" text-anchor="middle"/>
 <text font-size="129.23" y="-798.77" x="1529.53" font-family="&apos;Gentium Book Basic&apos;" line-height="125%" word-spacing="0" letter-spacing="0"><tspan y="-798.77" x="1529.53"/>
 </text>
 <text transform="scale(4.0128.2492)" font-size="46.954" y="-3554.48" x="578.24" font-family="Arial" text-anchor="middle"/>
 <text font-size="129.23" y="-878.78" x="2110.79" font-family="&apos;Gentium Book Basic&apos;" line-height="125%" word-spacing="0" letter-spacing="0"><tspan y="-878.78" x="2110.79"/>
 </text>
 <text transform="scale(4.0128.2492)" font-size="46.954" y="-3875.52" x="723.09" font-family="Arial" text-anchor="middle"/>
 <g font-family="&apos;Gentium Book Basic&apos;" line-height="125%" word-spacing="0" letter-spacing="0">
  <text y="535.94" x="277.99" font-size="208.33"><tspan y="535.94" x="277.99"/>
  </text>
  <text y="260.32" x="13.421" font-size="129.23"><tspan y="260.32" x="13.421"/>
  </text>
 </g>
 <text transform="scale(4.0128.2492)" font-size="46.954" y="695.45" x="200.43" font-family="Arial" text-anchor="middle"/>
 <text font-size="129.23" y="180.32" x="594.69" font-family="&apos;Gentium Book Basic&apos;" line-height="125%" word-spacing="0" letter-spacing="0"><tspan y="180.32" x="594.69"/>
 </text>
 <text transform="scale(4.0128.2492)" font-size="46.954" y="374.43" x="345.27" font-family="Arial" text-anchor="middle"/>
 <text font-size="129.23" y="-0.942" x="-476.89" font-family="&apos;Gentium Book Basic&apos;" line-height="125%" word-spacing="0" letter-spacing="0"><tspan y="-0.942" x="-476.89"/>
 </text>
 <text transform="scale(4.0128.2492)" font-size="46.954" y="-352.93" x="78.24" font-family="Arial" text-anchor="middle"/>
 <text font-size="129.23" y="-217.41" x="621.16" font-family="&apos;Gentium Book Basic&apos;" line-height="125%" word-spacing="0" letter-spacing="0"><tspan y="-217.41" x="621.16"/>
 </text>
 <text transform="scale(4.0128.2492)" font-size="46.954" y="-1221.6" x="351.87" font-family="Arial" text-anchor="middle"/>
 <text font-size="129.23" y="-297.42" x="1202.43" font-family="&apos;Gentium Book Basic&apos;" line-height="125%" word-spacing="0" letter-spacing="0"><tspan y="-297.42" x="1202.43"/>
 </text>
 <text transform="scale(4.0128.2492)" font-size="46.954" y="-1542.63" x="496.72" font-family="Arial" text-anchor="middle"/>
 <text font-size="129.23" y="-769.82" x="813.31" font-family="&apos;Gentium Book Basic&apos;" line-height="125%" word-spacing="0" letter-spacing="0"><tspan y="-769.82" x="813.31"/>
 </text>
 <text transform="scale(4.0128.2492)" font-size="46.954" y="-3438.29" x="399.75" font-family="Arial" text-anchor="middle"/>
 <text font-size="129.23" y="-849.82" x="1394.57" font-family="&apos;Gentium Book Basic&apos;" line-height="125%" word-spacing="0" letter-spacing="0"><tspan y="-849.82" x="1394.57"/>
 </text>
 <text transform="scale(4.0128.2492)" font-size="46.954" y="-3759.31" x="544.6" font-family="Arial" text-anchor="middle"/>
 <g font-family="&apos;Gentium Book Basic&apos;" line-height="125%" word-spacing="0" letter-spacing="0">
  <text y="564.9" x="-438.23" font-size="208.33"><tspan y="564.9" x="-438.23"/>
  </text>
  <text y="260.32" x="13.421" font-size="129.23"><tspan y="260.32" x="13.421"/>
  </text>
 </g>
 <text transform="scale(4.0128.2492)" font-size="46.954" y="695.45" x="200.43" font-family="Arial" text-anchor="middle"/>
 <text font-size="129.23" y="180.32" x="594.69" font-family="&apos;Gentium Book Basic&apos;" line-height="125%" word-spacing="0" letter-spacing="0"><tspan y="180.32" x="594.69"/>
 </text>
 <text transform="scale(4.0128.2492)" font-size="46.954" y="374.43" x="345.27" font-family="Arial" text-anchor="middle"/>
 <text font-size="129.23" y="-0.942" x="-476.89" font-family="&apos;Gentium Book Basic&apos;" line-height="125%" word-spacing="0" letter-spacing="0"><tspan y="-0.942" x="-476.89"/>
 </text>
 <text transform="scale(4.0128.2492)" font-size="46.954" y="-352.93" x="78.24" font-family="Arial" text-anchor="middle"/>
 <text font-size="129.23" y="-217.41" x="621.16" font-family="&apos;Gentium Book Basic&apos;" line-height="125%" word-spacing="0" letter-spacing="0"><tspan y="-217.41" x="621.16"/>
 </text>
 <text transform="scale(4.0128.2492)" font-size="46.954" y="-1221.59" x="351.87" font-family="Arial" text-anchor="middle"/>
 <text font-size="129.23" y="-297.42" x="1202.43" font-family="&apos;Gentium Book Basic&apos;" line-height="125%" word-spacing="0" letter-spacing="0"><tspan y="-297.42" x="1202.43"/>
 </text>
 <text transform="scale(4.0128.2492)" font-size="46.954" y="-1542.62" x="496.72" font-family="Arial" text-anchor="middle"/>
 <text font-size="129.23" y="-769.82" x="813.31" font-family="&apos;Gentium Book Basic&apos;" line-height="125%" word-spacing="0" letter-spacing="0"><tspan y="-769.82" x="813.31"/>
 </text>
 <text transform="scale(4.0128.2492)" font-size="46.954" y="-3438.27" x="399.75" font-family="Arial" text-anchor="middle"/>
 <text font-size="129.23" y="-849.82" x="1394.57" font-family="&apos;Gentium Book Basic&apos;" line-height="125%" word-spacing="0" letter-spacing="0"><tspan y="-849.82" x="1394.57"/>
 </text>
 <text transform="scale(4.0128.2492)" font-size="46.954" y="-3759.29" x="544.6" font-family="Arial" text-anchor="middle"/>
 <text font-size="208.33" y="564.9" x="-438.23" font-family="&apos;Gentium Book Basic&apos;" line-height="125%" word-spacing="0" letter-spacing="0"><tspan y="564.9" x="-438.23"/>
 </text>
 <path opacity="0.25" d="m264.51 94.87c-21.233 0-41.497 4.119-60.06 11.582l58.49 58.49c-5.105 0.878-9.841 1.694-16.963 3.842-14.05 4.377-21.947 7.706-33.613 14.545l-4.453-4.453c-7.525 2.196-14.507 8.982-19.303 14.11l-4.525-4.525c-5.986 8.05-10.336 14.14-14.359 23.303-3.173 8.461-4.454 16.389-9.588 21.611-5.894 6.27-12.702 12.74-17.523 21.492-0.509 2.215-1.483 4.372-0.27 5.586l4.086 4.086c-1.487 0.961-2.127 2.879-2.467 6.641 0.808 7.305 2.047 14.354 7.264 19.57l0.109 0.107 103.05 103.05c-6.385 0.889-12.902 1.359-19.527 1.359-33.22 0-63.812-11.526-88.12-30.855 2.501 2.883 5.103 5.673 7.797 8.367l99.16 99.16c120.59-0.362 218.24-98.23 218.24-218.9 0-6.14-0.266-12.218-0.762-18.23l-92.77-92.77c-29.15-29.15-69.41-47.18-113.9-47.18"/>
 <path d="m264.51 94.87c-21.233 0-41.497 4.118-60.06 11.581 9.798-2.157 19.981-3.303 30.413-3.303 59.936 0 111.25 37.509 132.65 90.74 3 1.191 6 2.411 9.02 3.484 2.29 0.813 4.586 1.604 6.888 2.357-2.303-0.749-4.599-1.543-6.888-2.357-4.579-1.627-9.138-3.376-13.676-5.277-19.812-8.484-34.11-13.04-56.757-17.382-2.226 9.297-3.833 16.994-10.07 24.17 2.872-9.01 4.095-14.417 4.209-23.807-0.618-7.731-0.056-12.204-3.787-18.449-9.243 2.274-16.896 5.058-25.337 6.808-9.234 1.914-14.494 2.149-25.14 5.358-15.999 4.985-24.01 8.603-38.711 17.603l-3.122 1.813c-1.129-0.261 1.472-5.609 3.766-9.325-13.549 3.953-25.559 22.954-25.64 19.94 0.727-3.434 1.708-6.833 1.813-10.352-5.986 8.05-10.337 14.14-14.361 23.303-3.173 8.461-4.453 16.389-9.587 21.611-5.894 6.27-12.701 12.738-17.523 21.49-0.618 2.685-1.919 5.287 0.826 6.224h9.587c2.706 0 5.443-0.344 5.257 1.269-0.101 0.879-0.333 1.309-3.847 1.309-7.868-0.183-9.781-0.152-10.473 7.513 0.813 7.355 2.063 14.451 7.372 19.678 1.38 1.222 5.797 2.529 7.654 2.336 4.898 8.851 8.281 13.22 17.603 16.959-2.594-7.333-7.899-15.722 4.31-25.337 3.7 7.646 6.168 11.02 15.488 14.199l-2.195-5.176c-4.956-11.152-11.03-17.785-0.786-27.05 15.695-11.66 25.276-6.663 33.394 2.84 9.474 9.259 15.1 16.87 5.841 23.565-5.652 4.782-11.05 6.952-18.13 10.352-6.484-3.89-9.886-7.624-15.03-14.502-0.258 4.517-0.05 6.994 1.43 11.521l1.732 6.506c-7.265-1.517-14.733-4.983-22.699-11.36 3.384 17.227 4.101 28.2 17.221 40.28 7.472 3.304 17.466-2.293 26.727-10.614 57.881-32.963 58.45-4.769 77.986 40.645l3.424 10.373c-20.809 11.998-44.838 18.872-70.45 18.872-33.22 0-63.812-11.526-88.12-30.856 7.592 8.752 16.1 16.654 25.358 23.585 26.16 18.349 58.02 29.12 92.41 29.12 17.994 0 35.28-2.997 51.44-8.439l0.02 0.06c39.39-13.266 71.949-41.37 91.1-77.64-19.58-10.766-40.541-18.815-67.51-27.13 30.15 1.512 52.2 6.087 73.817 13.776 1.571-3.784 3.01-7.638 4.29-11.561-28.42-15.333-55.29-23.404-93.64-30.715 40.605-2.461 67.21 2.222 98.49 12.145 0.933-4.686 1.679-9.437 2.195-14.26l-3.847-2.296c-38.948-16.07-69.72-20.858-116.76-21.752 47.896-11.211 77.34-8.703 120.38-1.289l0.967 0.141c-0.652-13.633-3.01-26.817-6.848-39.36-0.006-0.001-0.014 0.001-0.02 0-20.18-65.96-81.51-113.94-154.08-113.94m-70.836 120.64l-6.989 10.232-11.843 2.075c2.063-5.834 8.07-10.656 18.832-12.306z" fill="#fff"/>
</svg>
