<?xml version="1.0" encoding="UTF-8" standalone="no"?>
<svg xmlns="http://www.w3.org/2000/svg" viewBox="0 0 512 512">
 <g fill-rule="evenodd">
  <path d="m471.95 253.05c0 120.9-98.01 218.91-218.91 218.91s-218.91-98.01-218.91-218.91 98.01-218.91 218.91-218.91 218.91 98.01 218.91 218.91" fill="#BF9E73"/>
  <path d="m256 1c-140.83 0-255 114.17-255 255s114.17 255 255 255 255-114.17 255-255-114.17-255-255-255m8.827 44.931c120.9 0 218.9 98 218.9 218.9s-98 218.9-218.9 218.9-218.93-98-218.93-218.9 98.03-218.9 218.93-218.9" fill-opacity="0.067"/>
  <g fill-opacity="0.129">
   <path d="m256 4.43c-138.94 0-251.57 112.63-251.57 251.57s112.63 251.57 251.57 251.57 251.57-112.63 251.57-251.57-112.63-251.57-251.57-251.57m5.885 38.556c120.9 0 218.9 98 218.9 218.9s-98 218.9-218.9 218.9-218.93-98-218.93-218.9 98.03-218.9 218.93-218.9"/>
   <path d="m256 8.36c-136.77 0-247.64 110.87-247.64 247.64s110.87 247.64 247.64 247.64 247.64-110.87 247.64-247.64-110.87-247.64-247.64-247.64m2.942 31.691c120.9 0 218.9 98 218.9 218.9s-98 218.9-218.9 218.9-218.93-98-218.93-218.9 98.03-218.9 218.93-218.9"/>
  </g>
  <path stroke="#000" stroke-width="4.904" d="m253.04 7.86c-135.42 0-245.19 109.78-245.19 245.19 0 135.42 109.78 245.19 245.19 245.19 135.42 0 245.19-109.78 245.19-245.19 0-135.42-109.78-245.19-245.19-245.19m0 26.297c120.9 0 218.9 98 218.9 218.9s-98 218.9-218.9 218.9-218.93-98-218.93-218.9 98.03-218.9 218.93-218.9z" stroke-opacity="0.31" fill="#fff"/>
 </g>
 <path opacity="0.25" d="m195.07 92.4l-12.543 5.637c7.217 9.897 10.989 29.381 15.844 64.64-5.515 18.408-6.369 21.478-4.215 32.955 1.791 9.54 6.132 17.587 12.1 23.551l65.842 65.842c-4.858 2.427-9.05 5.987-12.33 10.348l-38.06-38.06c-7.322-7.321-17.953-11.598-29.574-11.1-2.356 0.1-4.742 0.407-7.16 0.914-20.451 4.284-32.683 21.886-36.813 45.75-11 13.329-26.533 24.287-38.691 26.607-6.8 1.31-11.834 2.122-15.844 1.32l5.586 12.543 138.05 138.05c5.214 0.372 10.477 0.572 15.785 0.572 120.9 0 218.91-98.01 218.91-218.91 0-5.63-0.213-11.21-0.631-16.732l-58.52-58.52c-9.897 7.217-29.381 10.987-64.64 15.842-18.408-5.515-21.478-6.369-32.955-4.215-6.223 1.168-11.803 3.429-16.592 6.51l-103.54-103.54"/>
 <path d="m195.07 92.4l-12.542 5.636c7.217 9.897 10.988 29.381 15.842 64.64-5.515 18.408-6.369 21.477-4.214 32.954 4.322 23.02 23.494 37.35 44.48 34.681 3.279-0.417 6.367-1.245 9.241-2.488 15.523-6.713 24.922-24.679 20.869-44.02-4.284-20.451-21.886-32.735-45.75-36.864-13.329-11-24.24-26.534-26.556-38.692-1.31-6.8-2.173-11.833-1.371-15.842m217.73 85.41c-9.897 7.217-29.381 10.988-64.64 15.842-18.408-5.515-21.477-6.369-32.954-4.214-23.02 4.322-37.35 23.494-34.681 44.48 0.418 3.279 1.245 6.367 2.488 9.241 6.713 15.523 24.679 24.922 44.02 20.869 20.451-4.284 32.734-21.886 36.864-45.75 11-13.329 26.483-24.24 38.641-26.556 6.8-1.31 11.833-2.173 15.842-1.371l-5.585-12.542m-220.68 68.4c-2.356 0.1-4.741 0.407-7.16 0.914-20.451 4.284-32.684 21.886-36.813 45.75-11 13.329-26.534 24.287-38.692 26.607-6.8 1.31-11.833 2.122-15.842 1.32l5.585 12.542c9.897-7.217 29.381-10.988 64.64-15.842 18.408 5.515 21.528 6.369 33 4.214 23.02-4.322 37.3-23.494 34.63-44.48-0.418-3.279-1.245-6.367-2.488-9.241-5.874-13.582-20.373-22.485-36.864-21.783m94.8 35.24c-1.294 0.036-2.598 0.138-3.91 0.305-3.279 0.417-6.367 1.245-9.241 2.488-15.523 6.713-24.922 24.679-20.869 44.02 4.284 20.451 21.886 32.735 45.75 36.864 13.329 11 24.287 26.483 26.607 38.641 1.31 6.8 2.122 11.833 1.32 15.842l12.542-5.585c-7.217-9.897-10.988-29.381-15.842-64.64 5.515-18.408 6.369-21.477 4.215-32.954-4.052-21.584-21.16-35.53-40.571-34.985" fill="#fff"/>
</svg>
