<?xml version="1.0" encoding="UTF-8" standalone="no"?>
<svg xmlns="http://www.w3.org/2000/svg" viewBox="0 0 512 512">
 <g fill-rule="evenodd">
  <path d="m471.95 253.05c0 120.9-98.01 218.91-218.91 218.91s-218.91-98.01-218.91-218.91 98.01-218.91 218.91-218.91 218.91 98.01 218.91 218.91" fill="#BF9E73"/>
  <path d="m256 1c-140.83 0-255 114.17-255 255s114.17 255 255 255 255-114.17 255-255-114.17-255-255-255m8.827 44.931c120.9 0 218.9 98 218.9 218.9s-98 218.9-218.9 218.9-218.93-98-218.93-218.9 98.03-218.9 218.93-218.9" fill-opacity="0.067"/>
  <g fill-opacity="0.129">
   <path d="m256 4.43c-138.94 0-251.57 112.63-251.57 251.57s112.63 251.57 251.57 251.57 251.57-112.63 251.57-251.57-112.63-251.57-251.57-251.57m5.885 38.556c120.9 0 218.9 98 218.9 218.9s-98 218.9-218.9 218.9-218.93-98-218.93-218.9 98.03-218.9 218.93-218.9"/>
   <path d="m256 8.36c-136.77 0-247.64 110.87-247.64 247.64s110.87 247.64 247.64 247.64 247.64-110.87 247.64-247.64-110.87-247.64-247.64-247.64m2.942 31.691c120.9 0 218.9 98 218.9 218.9s-98 218.9-218.9 218.9-218.93-98-218.93-218.9 98.03-218.9 218.93-218.9"/>
  </g>
  <path stroke="#000" stroke-width="4.904" d="m253.04 7.86c-135.42 0-245.19 109.78-245.19 245.19 0 135.42 109.78 245.19 245.19 245.19 135.42 0 245.19-109.78 245.19-245.19 0-135.42-109.78-245.19-245.19-245.19m0 26.297c120.9 0 218.9 98 218.9 218.9s-98 218.9-218.9 218.9-218.93-98-218.93-218.9 98.03-218.9 218.93-218.9z" stroke-opacity="0.31" fill="#fff"/>
 </g>
 <g fill-rule="evenodd">
  <path opacity="0.25" d="m329 182.86v62.25l-20.453-20.453h-105.84v20.646l-19.695-19.695h-105.84v63.808l18.826 18.826h-18.826v20.898l139.85 139.85c11.722 1.941 23.755 2.967 36.03 2.967 118.04 0 214.24-93.44 218.73-210.38l-36.926-36.926h-20.678l-41.797-41.797h-43.37"/>
  <path d="m329 182.86v146.28h105.84v-104.49h-62.47v-41.797h-43.37m-126.3 41.797v20.898h62.922v22.957h-62.922v60.63h105.84v-104.48h-105.84m-125.54 0.952v63.808h62.928v18.827h-62.928v20.898h105.84v-60.632h-62.922v-22.01h62.922v-20.898h-105.84m295.21 19.947h18.652v62.689h-18.652v-62.689m-126.3 43.862h20v18.827h-20v-18.827" fill="#fff"/>
 </g>
</svg>
