<?xml version="1.0" encoding="UTF-8" standalone="no"?>
<svg
   xmlns:dc="http://purl.org/dc/elements/1.1/"
   xmlns:cc="http://creativecommons.org/ns#"
   xmlns:rdf="http://www.w3.org/1999/02/22-rdf-syntax-ns#"
   xmlns:svg="http://www.w3.org/2000/svg"
   xmlns="http://www.w3.org/2000/svg"
   xmlns:sodipodi="http://sodipodi.sourceforge.net/DTD/sodipodi-0.dtd"
   xmlns:inkscape="http://www.inkscape.org/namespaces/inkscape"
   height="512"
   viewBox="0 0 512 512"
   width="512"
   version="1.1"
   id="svg2"
   inkscape:version="0.91 r13725"
   sodipodi:docname="sbackup.svg">
  <defs
     id="defs23" />
  <sodipodi:namedview
     pagecolor="#ffffff"
     bordercolor="#666666"
     borderopacity="1"
     objecttolerance="10"
     gridtolerance="10"
     guidetolerance="10"
     inkscape:pageopacity="0"
     inkscape:pageshadow="2"
     inkscape:window-width="1920"
     inkscape:window-height="1019"
     id="namedview21"
     showgrid="false"
     inkscape:zoom="1.5232544"
     inkscape:cx="361.52102"
     inkscape:cy="354.415"
     inkscape:window-x="0"
     inkscape:window-y="13"
     inkscape:window-maximized="1"
     inkscape:current-layer="svg2" />
  <metadata
     id="metadata86">
    <rdf:RDF>
      <cc:Work
         rdf:about="">
        <dc:format>image/svg+xml</dc:format>
        <dc:type
           rdf:resource="http://purl.org/dc/dcmitype/StillImage" />
        <dc:title></dc:title>
      </cc:Work>
    </rdf:RDF>
  </metadata>
  <path
     id="path4"
     d="m471.95 253.05c0 120.9-98.01 218.9-218.9 218.9-120.9 0-218.9-98.01-218.9-218.9 0-120.9 98.01-218.9 218.9-218.9 120.9 0 218.9 98.01 218.9 218.9"
     fill-rule="evenodd"
     fill="#BF9E73" />
  <path
     style="opacity:0.25;fill:#000000;fill-opacity:1;fill-rule:evenodd;stroke:none;stroke-width:1px;stroke-linecap:butt;stroke-linejoin:miter;stroke-opacity:1"
     d="m 319.21743,150.23805 55.86258,49.81422 15.54173,-43.90748 85.41426,103.05416 c -4.41926,48.93709 -25.66916,94.62009 -57.32044,138.6059 C 376.1812,437.01791 314.52911,469.62482 257.1712,476.7202 L 145.58721,361.94478 113.26674,217.69217 181.0411,152.70306 Z"
     id="path4164"
     inkscape:connector-curvature="0"
     sodipodi:nodetypes="cccccccccc" />
  <g
     id="g8"
     fill-rule="evenodd">
    <path
       id="path10"
       fill-opacity="0.067"
       d="m256 1c-140.83 0-255 114.17-255 255s114.17 255 255 255 255-114.17 255-255-114.17-255-255-255m8.827 44.931c120.9 0 218.9 98 218.9 218.9s-98 218.9-218.9 218.9-218.93-98-218.93-218.9 98.03-218.9 218.93-218.9" />
    <g
       id="g12"
       fill-opacity="0.129">
      <path
         id="path14"
         d="m256 4.433c-138.94 0-251.57 112.63-251.57 251.57s112.63 251.57 251.57 251.57 251.57-112.63 251.57-251.57-112.63-251.57-251.57-251.57m5.885 38.556c120.9 0 218.9 98 218.9 218.9s-98 218.9-218.9 218.9-218.93-98-218.93-218.9 98.03-218.9 218.93-218.9" />
      <path
         id="path16"
         d="m256 8.356c-136.77 0-247.64 110.87-247.64 247.64s110.87 247.64 247.64 247.64 247.64-110.87 247.64-247.64-110.87-247.64-247.64-247.64m2.942 31.691c120.9 0 218.9 98 218.9 218.9s-98 218.9-218.9 218.9-218.93-98-218.93-218.9 98.03-218.9 218.93-218.9" />
    </g>
    <path
       id="path18"
       d="m253.04 7.859c-135.42 0-245.19 109.78-245.19 245.19 0 135.42 109.78 245.19 245.19 245.19 135.42 0 245.19-109.78 245.19-245.19 0-135.42-109.78-245.19-245.19-245.19zm0 26.297c120.9 0 218.9 98 218.9 218.9s-98 218.9-218.9 218.9-218.93-98-218.93-218.9 98.03-218.9 218.93-218.9z"
       stroke-opacity="0.31"
       stroke="#000"
       stroke-width="4.904"
       fill="#fff" />
  </g>
  <path
     style="color:#000000;fill:#ffffff"
     inkscape:connector-curvature="0"
     d="m 241.25383,112.99352 c 50.97799,0 102.91924,58.1804 128.05541,98.84241 l 12.80709,-55.00734 c 0.20274,-0.11787 0.45262,-0.12887 0.66793,-0.21688 2.85874,-3.03633 8.99427,-1.19599 9.79107,2.90746 l 20.47795,119.41959 c 0.7245,3.3538 -2.36997,6.98105 -5.78663,6.9339 l -32.15525,-7.79897 c -11.12693,67.75168 -63.35717,120.95889 -133.85757,120.95889 -78.39298,0 -142.418404,-64.11971 -142.418404,-142.90559 0,-78.78431 64.026994,-143.12561 142.418404,-143.12561 z m -17.35047,43.3683 c -7.47924,0.099 -15.50061,1.03411 -23.58971,4.02487 -43.41769,16.0527 -73.88092,46.3842 -73.88092,95.7293 0,63.87611 52.60019,115.38687 116.1557,115.38687 58.03133,0 124.58372,-37.37505 132.45743,-93.47017 l -82.61571,-21.92927 c -4.14117,-0.12888 -6.92761,-5.83221 -4.45077,-9.16872 l 48.13416,-7.63961 c -0.55478,-2.17038 -32.75114,-40.719 -50.11155,-56.81642 -19.3308,-17.92446 -37.42338,-24.42556 -62.1112,-26.13099"
     id="path68"
     sodipodi:nodetypes="ccccccccsscccsssccccsc" />
</svg>
