<?xml version="1.0" encoding="UTF-8" standalone="no"?>
<svg
   xmlns:dc="http://purl.org/dc/elements/1.1/"
   xmlns:cc="http://creativecommons.org/ns#"
   xmlns:rdf="http://www.w3.org/1999/02/22-rdf-syntax-ns#"
   xmlns:svg="http://www.w3.org/2000/svg"
   xmlns="http://www.w3.org/2000/svg"
   xmlns:xlink="http://www.w3.org/1999/xlink"
   xmlns:sodipodi="http://sodipodi.sourceforge.net/DTD/sodipodi-0.dtd"
   xmlns:inkscape="http://www.inkscape.org/namespaces/inkscape"
   height="512"
   viewBox="0 0 512 512"
   width="512"
   version="1.1"
   id="svg2"
   inkscape:version="0.91 r"
   sodipodi:docname="utilities_log_viewer.svg">
  <defs
     id="defs17">
    <linearGradient
       x2="47"
       x1="1"
       gradientTransform="matrix(0,-1,1,0,-1.5e-6,47.999998)"
       gradientUnits="userSpaceOnUse"
       id="linearGradient3260">
      <stop
         id="stop9075"
         stop-color="#e4e4e4" />
      <stop
         id="stop9077"
         stop-color="#eee"
         offset="1" />
    </linearGradient>
    <radialGradient
       r="3.6689999"
       cy="6.7729998"
       cx="6.7729998"
       gradientTransform="scale(3.543307,3.543307)"
       gradientUnits="userSpaceOnUse"
       id="radialGradient3162"
       xlink:href="#radial0" />
    <radialGradient
       gradientTransform="scale(3.543307,3.543307)"
       r="3.6689999"
       cy="6.7729998"
       cx="6.7729998"
       gradientUnits="userSpaceOnUse"
       id="radial0">
      <stop
         id="stop9055" />
      <stop
         id="stop9057"
         stop-opacity="0"
         offset="1" />
    </radialGradient>
    <radialGradient
       r="3.6689999"
       cy="6.7729998"
       cx="6.7729998"
       gradientTransform="scale(3.543307,3.543307)"
       gradientUnits="userSpaceOnUse"
       id="radialGradient5406"
       xlink:href="#radial0" />
    <radialGradient
       gradientTransform="scale(3.543307,3.543307)"
       r="3.6689999"
       cy="6.7729998"
       cx="6.7729998"
       gradientUnits="userSpaceOnUse"
       id="radialGradient5408">
      <stop
         id="stop5410" />
      <stop
         id="stop5412"
         stop-opacity="0"
         offset="1" />
    </radialGradient>
    <radialGradient
       r="3.6689999"
       cy="6.7729998"
       cx="6.7729998"
       gradientTransform="scale(3.543307,3.543307)"
       gradientUnits="userSpaceOnUse"
       id="radialGradient3164"
       xlink:href="#radial1" />
    <radialGradient
       gradientTransform="scale(3.543307,3.543307)"
       r="3.6689999"
       cy="6.7729998"
       cx="6.7729998"
       gradientUnits="userSpaceOnUse"
       id="radial1">
      <stop
         id="stop9060"
         stop-opacity="0.251" />
      <stop
         id="stop9062"
         stop-opacity="0"
         offset="1" />
    </radialGradient>
    <radialGradient
       r="3.6689999"
       cy="6.7729998"
       cx="6.7729998"
       gradientTransform="scale(3.543307,3.543307)"
       gradientUnits="userSpaceOnUse"
       id="radialGradient5418"
       xlink:href="#radial1" />
    <radialGradient
       gradientTransform="scale(3.543307,3.543307)"
       r="3.6689999"
       cy="6.7729998"
       cx="6.7729998"
       gradientUnits="userSpaceOnUse"
       id="radialGradient5420">
      <stop
         id="stop5422"
         stop-opacity="0.251" />
      <stop
         id="stop5424"
         stop-opacity="0"
         offset="1" />
    </radialGradient>
    <radialGradient
       gradientTransform="matrix(5.31496,0,0,5.31496,-10.999999,-10.499999)"
       r="0.28200001"
       cy="5.927"
       cx="6.2090001"
       gradientUnits="userSpaceOnUse"
       id="radial2">
      <stop
         id="stop9065"
         stop-opacity="0.749"
         stop-color="#fff" />
      <stop
         id="stop9067"
         stop-opacity="0"
         stop-color="#fff"
         offset="1" />
    </radialGradient>
    <radialGradient
       gradientTransform="matrix(5.31496,0,0,5.31496,-10.999999,-10.499999)"
       r="0.28200001"
       cy="5.927"
       cx="6.2090001"
       gradientUnits="userSpaceOnUse"
       id="radialGradient5431">
      <stop
         id="stop5433"
         stop-opacity="0.749"
         stop-color="#fff" />
      <stop
         id="stop5435"
         stop-opacity="0"
         stop-color="#fff"
         offset="1" />
    </radialGradient>
    <radialGradient
       gradientTransform="translate(1.7525759,1.9755815)"
       id="1"
       gradientUnits="userSpaceOnUse"
       cy="253.06"
       cx="253.03"
       r="218.88">
      <stop
         stop-color="#fff"
         stop-opacity="0.628"
         id="stop12" />
      <stop
         stop-color="#fff"
         stop-opacity="0"
         offset="1"
         id="stop14" />
    </radialGradient>
  </defs>
  <sodipodi:namedview
     pagecolor="#ffffff"
     bordercolor="#666666"
     borderopacity="1"
     objecttolerance="10"
     gridtolerance="10"
     guidetolerance="10"
     inkscape:pageopacity="0"
     inkscape:pageshadow="2"
     inkscape:window-width="1680"
     inkscape:window-height="998"
     id="namedview15"
     showgrid="false"
     inkscape:zoom="1.3037281"
     inkscape:cx="-62.231467"
     inkscape:cy="244.919"
     inkscape:window-x="0"
     inkscape:window-y="0"
     inkscape:window-maximized="1"
     inkscape:current-layer="svg2" />
  <metadata
     id="metadata28">
    <rdf:RDF>
      <cc:Work
         rdf:about="">
        <dc:format>image/svg+xml</dc:format>
        <dc:type
           rdf:resource="http://purl.org/dc/dcmitype/StillImage" />
        <dc:title />
      </cc:Work>
    </rdf:RDF>
  </metadata>
  <path
     style="fill:#BF9E73;fill-rule:evenodd"
     inkscape:connector-curvature="0"
     id="path484"
     d="m 472.7873,252.1413 c 0,120.9 -98.01,218.9 -218.9,218.9 -120.9,0 -218.900006,-98.01 -218.900006,-218.9 0,-120.9 98.010006,-218.899999 218.900006,-218.899999 120.9,0 218.9,98.009999 218.9,218.899999"
     inkscape:transform-center-x="26.079057"
     inkscape:transform-center-y="-16.107653" />
  <path
     style="fill:#BF9E73;fill-rule:evenodd;fill-opacity:1"
     inkscape:connector-curvature="0"
     d="m 471.95,253.05 c 0,120.9 -98.01,218.9 -218.9,218.9 -120.9,0 -218.9,-98.01 -218.9,-218.9 0,-120.9 98.01,-218.9 218.9,-218.9 120.9,0 218.9,98.01 218.9,218.9"
     id="path6" />
  <path
     style="fill-opacity:0.06700003;fill-rule:evenodd"
     inkscape:connector-curvature="0"
     d="M 256,1 C 115.17,1 1,115.17 1,256 1,396.83 115.17,511 256,511 396.83,511 511,396.83 511,256 511,115.17 396.83,1 256,1 m 8.827,44.931 c 120.9,0 218.9,98 218.9,218.9 0,120.9 -98,218.9 -218.9,218.9 -120.9,0 -218.93,-98 -218.93,-218.9 0,-120.9 98.03,-218.9 218.93,-218.9"
     id="path8" />
  <path
     inkscape:connector-curvature="0"
     style="opacity:0.25"
     d="m 207.4373,141.9213 c -54.777,0 -98.94001,44.544 -98.94001,99.32 0,4.733 0.081,9.218 0.721,13.773 0.041,0.066 -0.056,0.274 -0.014,0.34 3.113,24.07 10.949,47.45 -2.461,64.3 l -20.800995,20.816 -0.604,0.604 c -5.355,5.98 -5.145,15.13 0.604,20.875 l 1.842,1.842 95.660005,95.66 c 22.11,7.509 45.799,11.584 70.44,11.584 87.42,0 162.87,-51.25 197.95,-125.35 l -174.41,-174.41 -0.014,-0.014 c -17.941,-17.941 -42.566,-29.3 -69.941,-29.31 l -0.029,-0.029"
     id="path1848"
     inkscape:transform-center-x="13.313854"
     inkscape:transform-center-y="38.229345" />
  <path
     style="fill:#ffffff;fill-rule:evenodd"
     inkscape:connector-curvature="0"
     id="path486"
     d="m 192.0273,91.971298 0,9.531002 c 0,3.657 -2.937,6.625 -6.594,6.625 l -15,0 c -3.657,0 -6.594,-2.968 -6.594,-6.625 l 0,-3.656002 c -12.402,7.348002 -20.688,20.857002 -20.688,36.380002 l 0,16.531 c 17.827,-12.963 39.25,-20.817 61.59,-20.781 6.798,-0.164 13.62,0.247 20.313,1.438 48.51,6.959 88.23,49.821 92.91,98.31 6.706,53.04 -31.342,106.12 -82.56,119.19 -26.21,8.156 -53.55,-0.03 -80.12,-1.125 -4.433,-0.647 -8.439,0.106 -12.12,1.75 l 0,26.438 c 0,15.518 8.286,29.03 20.688,36.38 0.175,-3.499 3.051,-6.281 6.594,-6.281 l 15,0 c 3.657,0 6.594,2.968 6.594,6.625 l 0,5.531 160,0 0,-5.531 c 0,-3.657 2.937,-6.625 6.594,-6.625 l 15,0 c 3.543,0 6.418,2.782 6.594,6.281 12.402,-7.348 20.688,-20.857 20.688,-36.37 l 0,-241.75 c 0,-15.518 -8.286,-29.03 -20.688,-36.370002 l 0,3.656002 c 0,3.657 -2.937,6.625 -6.594,6.625 l -15,0 c -3.657,0 -6.594,-2.968 -6.594,-6.625 l 0,-9.531002 -160,0 m 166.59,46.160002 15,0 c 3.657,0 6.594,2.937 6.594,6.594 l 0,10.375 c 0,3.657 -2.937,6.625 -6.594,6.625 l -15,0 c -3.657,0 -6.594,-2.968 -6.594,-6.625 l 0,-10.375 c 0,-3.657 2.937,-6.594 6.594,-6.594 m 0,53.594 15,0 c 3.657,0 6.594,2.937 6.594,6.594 l 0,10.375 c 0,3.657 -2.937,6.625 -6.594,6.625 l -15,0 c -3.657,0 -6.594,-2.968 -6.594,-6.625 l 0,-10.375 c 0,-3.657 2.937,-6.594 6.594,-6.594 m 0,53.594 15,0 c 3.657,0 6.594,2.937 6.594,6.594 l 0,10.375 c 0,3.657 -2.937,6.594 -6.594,6.594 l -15,0 c -3.657,0 -6.594,-2.937 -6.594,-6.594 l 0,-10.375 c 0,-3.657 2.937,-6.594 6.594,-6.594 m 0,53.56 15,0 c 3.657,0 6.594,2.968 6.594,6.625 l 0,10.375 c 0,3.657 -2.937,6.594 -6.594,6.594 l -15,0 c -3.657,0 -6.594,-2.937 -6.594,-6.594 l 0,-10.375 c 0,-3.657 2.937,-6.625 6.594,-6.625 m -188.19,53.594 15,0 c 3.657,0 6.594,2.968 6.594,6.625 l 0,10.375 c 0,3.657 -2.937,6.594 -6.594,6.594 l -15,0 c -3.657,0 -6.594,-2.937 -6.594,-6.594 l 0,-10.375 c 0,-3.657 2.937,-6.625 6.594,-6.625 m 188.19,0 15,0 c 3.657,0 6.594,2.968 6.594,6.625 l 0,10.375 c 0,3.657 -2.937,6.594 -6.594,6.594 l -15,0 c -3.657,0 -6.594,-2.937 -6.594,-6.594 l 0,-10.375 c 0,-3.657 2.937,-6.625 6.594,-6.625"
     inkscape:transform-center-x="7.9325554"
     inkscape:transform-center-y="-13.147155" />
  <g
     style="fill-opacity:0.12900002;fill-rule:evenodd"
     id="g10">
    <path
       inkscape:connector-curvature="0"
       d="m 256,4.433 c -138.94,0 -251.57,112.63 -251.57,251.57 0,138.94 112.63,251.57 251.57,251.57 138.94,0 251.57,-112.63 251.57,-251.57 C 507.57,117.063 394.94,4.433 256,4.433 m 5.885,38.556 c 120.9,0 218.9,98 218.9,218.9 0,120.9 -98,218.9 -218.9,218.9 -120.9,0 -218.93,-98 -218.93,-218.9 0,-120.9 98.03,-218.9 218.93,-218.9"
       id="path12" />
    <path
       inkscape:connector-curvature="0"
       d="m 256,8.356 c -136.77,0 -247.64,110.87 -247.64,247.64 0,136.77 110.87,247.64 247.64,247.64 136.77,0 247.64,-110.87 247.64,-247.64 C 503.64,119.226 392.77,8.356 256,8.356 m 2.942,31.691 c 120.9,0 218.9,98 218.9,218.9 0,120.9 -98,218.9 -218.9,218.9 -120.9,0 -218.93,-98 -218.93,-218.9 0,-120.9 98.03,-218.9 218.93,-218.9"
       id="path14" />
  </g>
  <path
     inkscape:connector-curvature="0"
     style="fill:#ffffff"
     d="m 207.4373,141.9213 c -54.777,0 -98.94001,44.545 -98.94001,99.32 0,4.733 0.082,9.218 0.722,13.774 0.041,0.066 -0.058,0.273 -0.015,0.339 3.113,24.07 10.95,47.45 -2.46,64.3 l -20.800995,20.816 -0.604,0.604 c -5.355,5.98 -5.144,15.13 0.604,20.875 l 1.841,1.841 c 5.748,5.748 14.879995,5.944 20.859995,0.589 l 0.015,0.015 0.604,-0.604 20.80101,-20.801 c 17.538,-13.438 40.725,-5.081 66.43,-2.828 3.574,0.392 7.268,0.015 10.946,0.015 1.855,0 3.473,0.081 5.303,-0.015 52.21,-2.867 93.63,-46.35 93.63,-99.28 0,-27.391 -11.01,-51.676 -28.962,-69.62 -17.948,-17.95 -42.586,-29.32 -69.976,-29.32 l 0,-0.029 m 0,26.517 c 20.13,0 38.41,8.01 51.605,21.2 13.19,13.187 21.18,31.476 21.18,51.605 0,40.25 -32.538,72.79 -72.79,72.79 -40.25,0 -72.79,-32.892 -72.79,-73.14 0,-40.25 32.538,-72.45 72.79,-72.45"
     id="path1850"
     inkscape:transform-center-x="86.043674"
     inkscape:transform-center-y="-13.165991" />
  <path
     style="fill:#ffffff;fill-rule:evenodd;stroke:#000000;stroke-width:4.90399981;stroke-opacity:0.31000001"
     inkscape:connector-curvature="0"
     d="m 253.04,7.859 c -135.42,0 -245.19,109.78 -245.19,245.19 0,135.42 109.78,245.19 245.19,245.19 135.42,0 245.19,-109.78 245.19,-245.19 0,-135.42 -109.78,-245.19 -245.19,-245.19 z m 0,26.297 c 120.9,0 218.9,98 218.9,218.9 0,120.9 -98,218.9 -218.9,218.9 -120.9,0 -218.93,-98 -218.93,-218.9 0,-120.9 98.03,-218.9 218.93,-218.9 z"
     id="path16" />
</svg>
