<?xml version="1.0" encoding="UTF-8" standalone="no"?>
<svg
   xmlns:dc="http://purl.org/dc/elements/1.1/"
   xmlns:cc="http://creativecommons.org/ns#"
   xmlns:rdf="http://www.w3.org/1999/02/22-rdf-syntax-ns#"
   xmlns:svg="http://www.w3.org/2000/svg"
   xmlns="http://www.w3.org/2000/svg"
   xmlns:sodipodi="http://sodipodi.sourceforge.net/DTD/sodipodi-0.dtd"
   xmlns:inkscape="http://www.inkscape.org/namespaces/inkscape"
   height="512"
   width="512"
   version="1.1"
   viewBox="0 0 512 512"
   id="svg2"
   inkscape:version="0.91 r"
   sodipodi:docname="security-medium.svg">
  <defs
     id="defs39" />
  <sodipodi:namedview
     pagecolor="#ffffff"
     bordercolor="#666666"
     borderopacity="1"
     objecttolerance="10"
     gridtolerance="10"
     guidetolerance="10"
     inkscape:pageopacity="0"
     inkscape:pageshadow="2"
     inkscape:window-width="1680"
     inkscape:window-height="998"
     id="namedview37"
     showgrid="false"
     inkscape:zoom="0.4609375"
     inkscape:cx="256"
     inkscape:cy="256"
     inkscape:window-x="0"
     inkscape:window-y="0"
     inkscape:window-maximized="1"
     inkscape:current-layer="svg2" />
  <metadata
     id="metadata86">
    <rdf:RDF>
      <cc:Work
         rdf:about="">
        <dc:format>image/svg+xml</dc:format>
        <dc:type
           rdf:resource="http://purl.org/dc/dcmitype/StillImage" />
      </cc:Work>
    </rdf:RDF>
  </metadata>
  <path
     style="fill:#BF9E73;fill-rule:evenodd;fill-opacity:1"
     inkscape:connector-curvature="0"
     d="m 471.95,253.05 c 0,120.9 -98.01,218.91 -218.91,218.91 -120.9,0 -218.91,-98.01 -218.91,-218.91 0,-120.9 98.01,-218.91 218.91,-218.91 120.9,0 218.91,98.01 218.91,218.91"
     id="path22" />
  <path
     style="fill-opacity:0.23500001;fill-rule:evenodd"
     inkscape:connector-curvature="0"
     d="m 250.81,104.44 c -25.21,0.891 -39.757,27.511 -62.781,36.16 -21.483,14.509 -51.994,21.625 -70.75,34.438 2.813,67.837 25.64,135.85 67.16,189.84 33.23,35.867 68.71,69.64 103.16,104.38 104.48,-16.57 184.34,-107.05 184.34,-216.19 0,-1.221 -0.011,-2.44 -0.031,-3.656 -2.319,-2.422 -4.603,-4.855 -7.344,-6.969 -3.672,-4.845 -8.938,-8.512 -12.594,-13.375 -5.127,-3.905 -8.614,-9.04 -13.75,-12.938 -3.628,-4.881 -8.923,-8.505 -12.563,-13.375 -5.126,-3.905 -8.612,-9.04 -13.75,-12.938 -3.638,-4.888 -8.95,-8.532 -12.594,-13.406 -10.418,-9.683 -32.16,-12.181 -46.44,-20.969 -27.805,-12.164 -53.29,-29.32 -76.62,-48.19 -6.518,-2.101 -13.445,-2.559 -20.25,-2.625 -1.781,-0.182 -3.507,-0.247 -5.188,-0.188"
     id="path24" />
  <path
     style="fill-opacity:0.06700003;fill-rule:evenodd"
     inkscape:connector-curvature="0"
     d="M 256,1 C 115.17,1 1,115.17 1,256 1,396.83 115.17,511 256,511 396.83,511 511,396.83 511,256 511,115.17 396.83,1 256,1 m 8.827,44.931 c 120.9,0 218.9,98 218.9,218.9 0,120.9 -98,218.9 -218.9,218.9 -120.9,0 -218.93,-98 -218.93,-218.9 0,-120.9 98.03,-218.9 218.93,-218.9"
     id="path26" />
  <g
     style="fill-opacity:0.12900002;fill-rule:evenodd"
     id="g28">
    <path
       inkscape:connector-curvature="0"
       d="M 256,4.43 C 117.06,4.43 4.43,117.06 4.43,256 4.43,394.94 117.06,507.57 256,507.57 394.94,507.57 507.57,394.94 507.57,256 507.57,117.06 394.94,4.43 256,4.43 m 5.885,38.556 c 120.9,0 218.9,98 218.9,218.9 0,120.9 -98,218.9 -218.9,218.9 -120.9,0 -218.93,-98 -218.93,-218.9 0,-120.9 98.03,-218.9 218.93,-218.9"
       id="path30" />
    <path
       inkscape:connector-curvature="0"
       d="M 256,8.36 C 119.23,8.36 8.36,119.23 8.36,256 8.36,392.77 119.23,503.64 256,503.64 392.77,503.64 503.64,392.77 503.64,256 503.64,119.23 392.77,8.36 256,8.36 m 2.942,31.691 c 120.9,0 218.9,98 218.9,218.9 0,120.9 -98,218.9 -218.9,218.9 -120.9,0 -218.93,-98 -218.93,-218.9 0,-120.9 98.03,-218.9 218.93,-218.9"
       id="path32" />
  </g>
  <path
     style="fill:#ffffff;fill-rule:evenodd;stroke:#000000;stroke-width:4.90399981;stroke-opacity:0.31000001"
     inkscape:connector-curvature="0"
     d="M 253.04,7.86 C 117.62,7.86 7.85,117.64 7.85,253.05 c 0,135.42 109.78,245.19 245.19,245.19 135.42,0 245.19,-109.78 245.19,-245.19 C 498.23,117.63 388.45,7.86 253.04,7.86 Z m 0,26.297 c 120.9,0 218.9,98 218.9,218.9 0,120.9 -98,218.9 -218.9,218.9 -120.9,0 -218.93,-98 -218.93,-218.9 0,-120.9 98.03,-218.9 218.93,-218.9 z"
     id="path34" />
  <text
     id="text36"
     font-size="129.23"
     line-height="125%"
     y="231.36"
     x="729.64"
     font-family="Gentium Book Basic"
     word-spacing="0"
     letter-spacing="0">
    <tspan
       id="tspan38"
       y="231.36"
       x="729.64" />
  </text>
  <text
     id="text40"
     transform="scale(4.0128 .2492)"
     font-size="46.954"
     y="579.26"
     x="378.91"
     font-family="Arial"
     text-anchor="middle" />
  <text
     id="text42"
     font-size="129.23"
     line-height="125%"
     y="151.36"
     x="1310.91"
     font-family="Gentium Book Basic"
     word-spacing="0"
     letter-spacing="0">
    <tspan
       id="tspan44"
       y="151.36"
       x="1310.91" />
  </text>
  <text
     id="text46"
     transform="scale(4.0128 .2492)"
     font-size="46.954"
     y="258.22"
     x="523.76"
     font-family="Arial"
     text-anchor="middle" />
  <text
     id="text48"
     font-size="129.23"
     line-height="125%"
     y="-29.9"
     x="239.33"
     font-family="Gentium Book Basic"
     word-spacing="0"
     letter-spacing="0">
    <tspan
       id="tspan50"
       y="-29.9"
       x="239.33" />
  </text>
  <text
     id="text52"
     transform="scale(4.0128 .2492)"
     font-size="46.954"
     y="-469.13"
     x="256.72"
     font-family="Arial"
     text-anchor="middle" />
  <text
     id="text54"
     font-size="129.23"
     line-height="125%"
     y="-246.37"
     x="1337.38"
     font-family="Gentium Book Basic"
     word-spacing="0"
     letter-spacing="0">
    <tspan
       id="tspan56"
       y="-246.37"
       x="1337.38" />
  </text>
  <text
     id="text58"
     transform="scale(4.0128 .2492)"
     font-size="46.954"
     y="-1337.8"
     x="530.36"
     font-family="Arial"
     text-anchor="middle" />
  <text
     id="text60"
     font-size="129.23"
     line-height="125%"
     y="-326.37"
     x="1918.65"
     font-family="Gentium Book Basic"
     word-spacing="0"
     letter-spacing="0">
    <tspan
       id="tspan62"
       y="-326.37"
       x="1918.65" />
  </text>
  <text
     id="text64"
     transform="scale(4.0128 .2492)"
     font-size="46.954"
     y="-1658.83"
     x="675.21"
     font-family="Arial"
     text-anchor="middle" />
  <text
     id="text66"
     font-size="129.23"
     line-height="125%"
     y="-798.77"
     x="1529.53"
     font-family="Gentium Book Basic"
     word-spacing="0"
     letter-spacing="0">
    <tspan
       id="tspan68"
       y="-798.77"
       x="1529.53" />
  </text>
  <text
     id="text70"
     transform="scale(4.0128 .2492)"
     font-size="46.954"
     y="-3554.48"
     x="578.24"
     font-family="Arial"
     text-anchor="middle" />
  <text
     id="text72"
     font-size="129.23"
     line-height="125%"
     y="-878.78"
     x="2110.79"
     font-family="Gentium Book Basic"
     word-spacing="0"
     letter-spacing="0">
    <tspan
       id="tspan74"
       y="-878.78"
       x="2110.79" />
  </text>
  <text
     id="text76"
     transform="scale(4.0128 .2492)"
     font-size="46.954"
     y="-3875.52"
     x="723.09"
     font-family="Arial"
     text-anchor="middle" />
  <text
     id="text78"
     font-size="208.33"
     line-height="125%"
     y="535.94"
     x="277.99"
     font-family="Gentium Book Basic"
     word-spacing="0"
     letter-spacing="0">
    <tspan
       id="tspan80"
       y="535.94"
       x="277.99" />
  </text>
  <path
     id="path82"
     fill="#fff"
     d="m256 104.63c-10.1 0-20.2 1.562-24.438 4.656-29.871 29.858-92.47 56.49-114.31 62.56 0 93.78 62.925 235.53 138.75 235.53 75.66 0 138.75-141.75 138.75-235.53-21.844-6.072-84.44-32.704-114.31-62.56-4.237-3.096-14.337-4.657-24.438-4.656m0 72.5c7.079 0 12.865 2.24 17.344 6.719 4.768 5.057 7.156 12.222 7.156 21.469 0 9.391-2.24 20.368-6.719 32.938l-5.438 15.375c-2.601 7.802-4.766 18.482-6.5 32.06h-11.688c-0.289-2.023-0.586-3.966-0.875-5.844-0.144-1.878-0.367-3.672-0.656-5.406-0.722-4.334-1.508-8.251-2.375-11.719-0.722-3.467-1.582-6.493-2.594-9.09l-5.438-15.375c-4.479-12.569-6.719-23.546-6.719-32.938 0-8.813 2.76-15.979 8.25-21.469 4.479-4.479 9.893-6.719 16.25-6.719m-0.438 131.53c6.068 0 11.07 2.048 14.969 6.094 4.045 4.045 6.06 8.94 6.06 14.719s-2.02 10.705-6.06 14.75c-3.901 3.901-8.901 5.844-14.969 5.844-5.779 0-10.673-1.943-14.719-5.844-4.045-4.045-6.094-8.971-6.094-14.75s2.048-10.673 6.094-14.719c4.045-4.045 8.94-6.094 14.719-6.094"
     fill-rule="evenodd" />
</svg>
