<?xml version="1.0" encoding="UTF-8" standalone="no"?>
<svg
   xmlns:dc="http://purl.org/dc/elements/1.1/"
   xmlns:cc="http://creativecommons.org/ns#"
   xmlns:rdf="http://www.w3.org/1999/02/22-rdf-syntax-ns#"
   xmlns:svg="http://www.w3.org/2000/svg"
   xmlns="http://www.w3.org/2000/svg"
   xmlns:sodipodi="http://sodipodi.sourceforge.net/DTD/sodipodi-0.dtd"
   xmlns:inkscape="http://www.inkscape.org/namespaces/inkscape"
   height="512"
   width="512"
   version="1.1"
   viewBox="0 0 512 512"
   id="svg2"
   inkscape:version="0.91 r"
   sodipodi:docname="security-high.svg">
  <defs
     id="defs124" />
  <sodipodi:namedview
     pagecolor="#ffffff"
     bordercolor="#666666"
     borderopacity="1"
     objecttolerance="10"
     gridtolerance="10"
     guidetolerance="10"
     inkscape:pageopacity="0"
     inkscape:pageshadow="2"
     inkscape:window-width="1678"
     inkscape:window-height="997"
     id="namedview122"
     showgrid="false"
     inkscape:zoom="0.4609375"
     inkscape:cx="-490.30508"
     inkscape:cy="256"
     inkscape:window-x="0"
     inkscape:window-y="0"
     inkscape:window-maximized="0"
     inkscape:current-layer="svg2" />
  <metadata
     id="metadata280">
    <rdf:RDF>
      <cc:Work
         rdf:about="">
        <dc:format>image/svg+xml</dc:format>
        <dc:type
           rdf:resource="http://purl.org/dc/dcmitype/StillImage" />
      </cc:Work>
    </rdf:RDF>
  </metadata>
  <path
     style="fill:#BF9E73;fill-rule:evenodd;fill-opacity:1"
     inkscape:connector-curvature="0"
     d="m 474.11949,253.05 c 0,120.9 -98.01,218.91 -218.91,218.91 -120.9,0 -218.909998,-98.01 -218.909998,-218.91 0,-120.9 98.009998,-218.91 218.909998,-218.91 120.9,0 218.91,98.01 218.91,218.91"
     id="path46" />
  <path
     style="fill-opacity:0.23500001;fill-rule:evenodd"
     inkscape:connector-curvature="0"
     d="m 250.81,104.44 c -25.21,0.891 -39.757,27.511 -62.781,36.16 -21.483,14.509 -51.994,21.625 -70.75,34.438 2.813,67.837 25.64,135.85 67.16,189.84 33.23,35.867 68.71,69.64 103.16,104.38 104.48,-16.57 184.34,-107.05 184.34,-216.19 0,-1.221 -0.011,-2.44 -0.031,-3.656 -2.319,-2.422 -4.603,-4.855 -7.344,-6.969 -3.672,-4.845 -8.938,-8.512 -12.594,-13.375 -5.127,-3.905 -8.614,-9.04 -13.75,-12.938 -3.628,-4.881 -8.923,-8.505 -12.563,-13.375 -5.126,-3.905 -8.612,-9.04 -13.75,-12.938 -3.638,-4.888 -8.95,-8.532 -12.594,-13.406 -10.418,-9.683 -32.16,-12.181 -46.44,-20.969 -27.805,-12.164 -53.29,-29.32 -76.62,-48.19 -6.518,-2.101 -13.445,-2.559 -20.25,-2.625 -1.781,-0.182 -3.507,-0.247 -5.188,-0.188"
     id="path48" />
  <path
     style="fill-opacity:0.06700003;fill-rule:evenodd"
     inkscape:connector-curvature="0"
     d="M 256,1 C 115.17,1 1,115.17 1,256 1,396.83 115.17,511 256,511 396.83,511 511,396.83 511,256 511,115.17 396.83,1 256,1 m 8.827,44.931 c 120.9,0 218.9,98 218.9,218.9 0,120.9 -98,218.9 -218.9,218.9 -120.9,0 -218.93,-98 -218.93,-218.9 0,-120.9 98.03,-218.9 218.93,-218.9"
     id="path50" />
  <g
     style="fill-opacity:0.12900002;fill-rule:evenodd"
     id="g52">
    <path
       inkscape:connector-curvature="0"
       d="M 256,4.43 C 117.06,4.43 4.43,117.06 4.43,256 4.43,394.94 117.06,507.57 256,507.57 394.94,507.57 507.57,394.94 507.57,256 507.57,117.06 394.94,4.43 256,4.43 m 5.885,38.556 c 120.9,0 218.9,98 218.9,218.9 0,120.9 -98,218.9 -218.9,218.9 -120.9,0 -218.93,-98 -218.93,-218.9 0,-120.9 98.03,-218.9 218.93,-218.9"
       id="path54" />
    <path
       inkscape:connector-curvature="0"
       d="M 256,8.36 C 119.23,8.36 8.36,119.23 8.36,256 8.36,392.77 119.23,503.64 256,503.64 392.77,503.64 503.64,392.77 503.64,256 503.64,119.23 392.77,8.36 256,8.36 m 2.942,31.691 c 120.9,0 218.9,98 218.9,218.9 0,120.9 -98,218.9 -218.9,218.9 -120.9,0 -218.93,-98 -218.93,-218.9 0,-120.9 98.03,-218.9 218.93,-218.9"
       id="path56" />
  </g>
  <path
     style="fill:#ffffff;fill-rule:evenodd;stroke:#000000;stroke-width:4.90399981;stroke-opacity:0.31000001"
     inkscape:connector-curvature="0"
     d="M 253.04,7.86 C 117.62,7.86 7.85,117.64 7.85,253.05 c 0,135.42 109.78,245.19 245.19,245.19 135.42,0 245.19,-109.78 245.19,-245.19 C 498.23,117.63 388.45,7.86 253.04,7.86 Z m 0,26.297 c 120.9,0 218.9,98 218.9,218.9 0,120.9 -98,218.9 -218.9,218.9 -120.9,0 -218.93,-98 -218.93,-218.9 0,-120.9 98.03,-218.9 218.93,-218.9 z"
     id="path58" />
  <text
     id="text60"
     font-size="129.23"
     line-height="125%"
     y="231.36"
     x="729.64"
     font-family="Gentium Book Basic"
     word-spacing="0"
     letter-spacing="0">
    <tspan
       id="tspan62"
       y="231.36"
       x="729.64" />
  </text>
  <text
     id="text64"
     transform="scale(4.0128 .2492)"
     font-size="46.954"
     y="579.26"
     x="378.91"
     font-family="Arial"
     text-anchor="middle" />
  <text
     id="text66"
     font-size="129.23"
     line-height="125%"
     y="151.36"
     x="1310.91"
     font-family="Gentium Book Basic"
     word-spacing="0"
     letter-spacing="0">
    <tspan
       id="tspan68"
       y="151.36"
       x="1310.91" />
  </text>
  <text
     id="text70"
     transform="scale(4.0128 .2492)"
     font-size="46.954"
     y="258.22"
     x="523.76"
     font-family="Arial"
     text-anchor="middle" />
  <text
     id="text72"
     font-size="129.23"
     line-height="125%"
     y="-29.9"
     x="239.33"
     font-family="Gentium Book Basic"
     word-spacing="0"
     letter-spacing="0">
    <tspan
       id="tspan74"
       y="-29.9"
       x="239.33" />
  </text>
  <text
     id="text76"
     transform="scale(4.0128 .2492)"
     font-size="46.954"
     y="-469.13"
     x="256.72"
     font-family="Arial"
     text-anchor="middle" />
  <text
     id="text78"
     font-size="129.23"
     line-height="125%"
     y="-246.37"
     x="1337.38"
     font-family="Gentium Book Basic"
     word-spacing="0"
     letter-spacing="0">
    <tspan
       id="tspan80"
       y="-246.37"
       x="1337.38" />
  </text>
  <text
     id="text82"
     transform="scale(4.0128 .2492)"
     font-size="46.954"
     y="-1337.8"
     x="530.36"
     font-family="Arial"
     text-anchor="middle" />
  <text
     id="text84"
     font-size="129.23"
     line-height="125%"
     y="-326.37"
     x="1918.65"
     font-family="Gentium Book Basic"
     word-spacing="0"
     letter-spacing="0">
    <tspan
       id="tspan86"
       y="-326.37"
       x="1918.65" />
  </text>
  <text
     id="text88"
     transform="scale(4.0128 .2492)"
     font-size="46.954"
     y="-1658.83"
     x="675.21"
     font-family="Arial"
     text-anchor="middle" />
  <text
     id="text90"
     font-size="129.23"
     line-height="125%"
     y="-798.77"
     x="1529.53"
     font-family="Gentium Book Basic"
     word-spacing="0"
     letter-spacing="0">
    <tspan
       id="tspan92"
       y="-798.77"
       x="1529.53" />
  </text>
  <text
     id="text94"
     transform="scale(4.0128 .2492)"
     font-size="46.954"
     y="-3554.48"
     x="578.24"
     font-family="Arial"
     text-anchor="middle" />
  <text
     id="text96"
     font-size="129.23"
     line-height="125%"
     y="-878.78"
     x="2110.79"
     font-family="Gentium Book Basic"
     word-spacing="0"
     letter-spacing="0">
    <tspan
       id="tspan98"
       y="-878.78"
       x="2110.79" />
  </text>
  <text
     id="text100"
     transform="scale(4.0128 .2492)"
     font-size="46.954"
     y="-3875.52"
     x="723.09"
     font-family="Arial"
     text-anchor="middle" />
  <text
     id="text102"
     font-size="208.33"
     line-height="125%"
     y="535.94"
     x="277.99"
     font-family="Gentium Book Basic"
     word-spacing="0"
     letter-spacing="0">
    <tspan
       id="tspan104"
       y="535.94"
       x="277.99" />
  </text>
  <path
     id="path106"
     fill="#fff"
     d="m256 104.63c-10.1 0-20.2 1.562-24.438 4.656-29.871 29.858-92.47 56.49-114.31 62.56 0 93.78 62.925 235.53 138.75 235.53 75.66 0 138.75-141.75 138.75-235.53-21.844-6.072-84.44-32.704-114.31-62.56-4.237-3.096-14.337-4.657-24.438-4.656m72.344 70.438a13.945 13.945 0 0 1 9.5625 24.156c-44.861 40.583-72.47 82.969-95.53 129.97a13.945 13.945 0 0 1 -22.938 3.0312l-46.25-53.688a13.945 13.945 0 0 1 17.562 -21.25l29.03 16.531c30.937-41.26 65.5-75.11 99.25-94.84 0.119-0.108 0.183-0.225 0.313-0.344 0.767-0.443 1.608-1.255 2.375-1.688a13.945 13.945 0 0 1 4.375 -1.6875 13.945 13.945 0 0 1 2.25 -0.1875"
     fill-rule="evenodd" />
  <text
     id="text108"
     font-size="129.23"
     line-height="125%"
     y="105.38"
     x="126.94"
     font-family="Gentium Book Basic"
     word-spacing="0"
     letter-spacing="0">
    <tspan
       id="tspan110"
       y="105.38"
       x="126.94" />
  </text>
  <text
     id="text112"
     transform="scale(4.0128 .2492)"
     font-size="46.954"
     y="73.72"
     x="228.71"
     font-family="Arial"
     text-anchor="middle" />
  <text
     id="text114"
     font-size="129.23"
     line-height="125%"
     y="25.379"
     x="708.21"
     font-family="Gentium Book Basic"
     word-spacing="0"
     letter-spacing="0">
    <tspan
       id="tspan116"
       y="25.379"
       x="708.21" />
  </text>
  <text
     id="text118"
     transform="scale(4.0128 .2492)"
     font-size="46.954"
     y="-247.32"
     x="373.56"
     font-family="Arial"
     text-anchor="middle" />
  <text
     id="text120"
     font-size="129.23"
     line-height="125%"
     y="-155.88"
     x="-363.37"
     font-family="Gentium Book Basic"
     word-spacing="0"
     letter-spacing="0">
    <tspan
       id="tspan122"
       y="-155.88"
       x="-363.37" />
  </text>
  <text
     id="text124"
     transform="scale(4.0128 .2492)"
     font-size="46.954"
     y="-974.67"
     x="106.53"
     font-family="Arial"
     text-anchor="middle" />
  <text
     id="text126"
     font-size="129.23"
     line-height="125%"
     y="-372.35"
     x="734.68"
     font-family="Gentium Book Basic"
     word-spacing="0"
     letter-spacing="0">
    <tspan
       id="tspan128"
       y="-372.35"
       x="734.68" />
  </text>
  <text
     id="text130"
     transform="scale(4.0128 .2492)"
     font-size="46.954"
     y="-1843.33"
     x="380.16"
     font-family="Arial"
     text-anchor="middle" />
  <text
     id="text132"
     font-size="129.23"
     line-height="125%"
     y="-452.35"
     x="1315.95"
     font-family="Gentium Book Basic"
     word-spacing="0"
     letter-spacing="0">
    <tspan
       id="tspan134"
       y="-452.35"
       x="1315.95" />
  </text>
  <text
     id="text136"
     transform="scale(4.0128 .2492)"
     font-size="46.954"
     y="-2164.36"
     x="525.01"
     font-family="Arial"
     text-anchor="middle" />
  <text
     id="text138"
     font-size="129.23"
     line-height="125%"
     y="-924.75"
     x="926.83"
     font-family="Gentium Book Basic"
     word-spacing="0"
     letter-spacing="0">
    <tspan
       id="tspan140"
       y="-924.75"
       x="926.83" />
  </text>
  <text
     id="text142"
     transform="scale(4.0128 .2492)"
     font-size="46.954"
     y="-4060"
     x="428.04"
     font-family="Arial"
     text-anchor="middle" />
  <text
     id="text144"
     font-size="129.23"
     line-height="125%"
     y="-1004.76"
     x="1508.09"
     font-family="Gentium Book Basic"
     word-spacing="0"
     letter-spacing="0">
    <tspan
       id="tspan146"
       y="-1004.76"
       x="1508.09" />
  </text>
  <text
     id="text148"
     transform="scale(4.0128 .2492)"
     font-size="46.954"
     y="-4381.04"
     x="572.89"
     font-family="Arial"
     text-anchor="middle" />
  <g
     id="g150"
     font-family="Gentium Book Basic"
     line-height="125%"
     word-spacing="0"
     letter-spacing="0">
    <text
       id="text152"
       y="409.96"
       x="-324.71"
       font-size="208.33">
      <tspan
         id="tspan154"
         y="409.96"
         x="-324.71" />
    </text>
    <text
       id="text156"
       y="1187.11"
       x="-28046.81"
       font-size="4848.4">
      <tspan
         id="tspan158"
         y="1187.11"
         x="-28046.81" />
    </text>
  </g>
  <text
     id="text160"
     transform="scale(4.0128 .2492)"
     font-size="1761.7"
     y="-8336.36"
     x="405"
     font-family="Arial"
     text-anchor="middle" />
  <text
     id="text162"
     font-size="4848.4"
     line-height="125%"
     y="2099.17"
     x="-28181.55"
     font-family="Gentium Book Basic"
     word-spacing="0"
     letter-spacing="0">
    <tspan
       id="tspan164"
       y="2099.17"
       x="-28181.55" />
  </text>
  <text
     id="text166"
     transform="scale(4.0128 .2492)"
     font-size="1761.7"
     y="-4676.51"
     x="371.47"
     font-family="Arial"
     text-anchor="middle" />
  <g
     id="g168"
     fill="#555753"
     transform="matrix(23.273 0 0 23.273 -918.71 -198.08)">
    <text
       id="text170"
       transform="scale(1.0508 .95163)"
       line-height="125%"
       font-size="127.88"
       y="-204.06"
       x="-549.96"
       font-family="Gentium Book Basic"
       word-spacing="0"
       letter-spacing="0">
      <tspan
         id="tspan172"
         y="-204.06"
         x="-549.96" />
    </text>
    <text
       id="text174"
       transform="scale(4.2168 .23715)"
       font-size="46.47"
       y="-1164.37"
       x="57.981"
       font-family="Arial"
       text-anchor="middle" />
    <text
       id="text176"
       transform="scale(1.0508 .95163)"
       line-height="125%"
       font-size="68.46"
       y="-239.51"
       x="-145.93"
       font-family="Gentium Book Basic"
       word-spacing="0"
       letter-spacing="0">
      <tspan
         id="tspan178"
         y="-239.51"
         x="-145.93" />
    </text>
    <text
       id="text180"
       transform="scale(4.2168 .23715)"
       font-size="24.874"
       y="-1146.06"
       x="68.04"
       font-family="Arial"
       text-anchor="middle" />
    <text
       id="text182"
       font-size="200"
       line-height="125%"
       y="-74.27"
       x="-1695.66"
       font-family="Gentium Book Basic"
       word-spacing="0"
       letter-spacing="0">
      <tspan
         id="tspan184"
         y="-74.27"
         x="-1695.66" />
    </text>
    <text
       id="text186"
       transform="scale(4.0128 .2492)"
       font-size="72.67"
       y="-838.39"
       x="-117.54"
       font-family="Arial"
       text-anchor="middle" />
  </g>
  <g
     id="g188"
     transform="matrix(23.273 0 0 23.273 -918.71 -198.08)">
    <g
       id="g190">
      <text
         id="text192"
         font-size="208.33"
         line-height="125%"
         stroke="#cd1d31"
         y="-599.63"
         x="-1086.23"
         font-family="Gentium Book Basic"
         word-spacing="0"
         letter-spacing="0">
        <tspan
           id="tspan194"
           y="-599.63"
           x="-1086.23" />
      </text>
      <text
         id="text196"
         transform="scale(4.0128 .2492)"
         font-size="75.7"
         y="-2969.12"
         x="47.04"
         font-family="Arial"
         text-anchor="middle" />
      <text
         id="text198"
         font-size="208.33"
         line-height="125%"
         stroke="#cd1d31"
         y="-560.44"
         x="-1092.03"
         font-family="Gentium Book Basic"
         word-spacing="0"
         letter-spacing="0">
        <tspan
           id="tspan200"
           y="-560.44"
           x="-1092.03" />
      </text>
      <text
         id="text202"
         transform="scale(4.0128 .2492)"
         font-size="75.7"
         y="-2811.85"
         x="45.593"
         font-family="Arial"
         text-anchor="middle" />
    </g>
    <g
       id="g204"
       fill="#555753">
      <g
         id="g206"
         stroke="#cd1d31">
        <text
           id="text208"
           transform="scale(1.0508 .95163)"
           line-height="125%"
           font-size="127.88"
           y="-896.71"
           x="-474.37"
           font-family="Gentium Book Basic"
           word-spacing="0"
           letter-spacing="0">
          <tspan
             id="tspan210"
             y="-896.71"
             x="-474.37" />
        </text>
        <text
           id="text212"
           transform="scale(4.2168 .23715)"
           font-size="46.47"
           y="-3943.87"
           x="76.82"
           font-family="Arial"
           text-anchor="middle" />
        <text
           id="text214"
           transform="scale(1.0508 .95163)"
           line-height="125%"
           font-size="68.46"
           y="-932.16"
           x="-70.35"
           font-family="Gentium Book Basic"
           word-spacing="0"
           letter-spacing="0">
          <tspan
             id="tspan216"
             y="-932.16"
             x="-70.35" />
        </text>
        <text
           id="text218"
           transform="scale(4.2168 .23715)"
           font-size="24.874"
           y="-3925.56"
           x="86.87"
           font-family="Arial"
           text-anchor="middle" />
        <text
           id="text220"
           font-size="200"
           line-height="125%"
           y="-733.42"
           x="-1616.23"
           font-family="Gentium Book Basic"
           word-spacing="0"
           letter-spacing="0">
          <tspan
             id="tspan222"
             y="-733.42"
             x="-1616.23" />
        </text>
      </g>
      <text
         id="text224"
         transform="scale(4.0128 .2492)"
         font-size="72.67"
         y="-3483.46"
         x="-97.75"
         font-family="Arial"
         text-anchor="middle" />
    </g>
    <g
       id="g226">
      <text
         id="text228"
         font-size="200"
         line-height="125%"
         stroke="#cd1d31"
         y="-887.07"
         x="-356.8"
         font-family="Gentium Book Basic"
         word-spacing="0"
         letter-spacing="0">
        <tspan
           id="tspan230"
           y="-887.07"
           x="-356.8" />
      </text>
      <text
         id="text232"
         transform="scale(4.0128 .2492)"
         font-size="72.67"
         y="-4100.03"
         x="216.1"
         font-family="Arial"
         text-anchor="middle" />
      <text
         id="text234"
         font-size="200"
         line-height="125%"
         stroke="#cd1d31"
         y="-1010.89"
         x="542.82"
         font-family="Gentium Book Basic"
         word-spacing="0"
         letter-spacing="0">
        <tspan
           id="tspan236"
           y="-1010.89"
           x="542.82" />
      </text>
      <text
         id="text238"
         transform="scale(4.0128 .2492)"
         font-size="72.67"
         y="-4596.89"
         x="440.29"
         font-family="Arial"
         text-anchor="middle" />
    </g>
    <g
       id="g240"
       fill="#555753">
      <text
         id="text242"
         font-size="200"
         line-height="125%"
         stroke="#555753"
         y="-21.434"
         x="90.92"
         font-family="Gentium Book Basic"
         word-spacing="0"
         letter-spacing="0">
        <tspan
           id="tspan244"
           y="-21.434"
           x="90.92" />
      </text>
      <text
         id="text246"
         transform="scale(4.0128 .2492)"
         font-size="72.67"
         y="-626.38"
         x="327.67"
         font-family="Arial"
         text-anchor="middle" />
      <text
         id="text248"
         font-size="200"
         line-height="125%"
         stroke="#555753"
         y="31.709"
         x="836.3"
         font-family="Gentium Book Basic"
         word-spacing="0"
         letter-spacing="0">
        <tspan
           id="tspan250"
           y="31.709"
           x="836.3" />
      </text>
      <text
         id="text252"
         transform="scale(4.0128 .2492)"
         font-size="72.67"
         y="-413.13"
         x="513.42"
         font-family="Arial"
         text-anchor="middle" />
      <text
         id="text254"
         font-size="200"
         line-height="125%"
         stroke="#555753"
         y="-92.11"
         x="1735.91"
         font-family="Gentium Book Basic"
         word-spacing="0"
         letter-spacing="0">
        <tspan
           id="tspan256"
           y="-92.11"
           x="1735.91" />
      </text>
      <text
         id="text258"
         transform="scale(4.0128 .2492)"
         font-size="72.67"
         y="-909.99"
         x="737.61"
         font-family="Arial"
         text-anchor="middle" />
      <text
         id="text260"
         font-size="200"
         line-height="125%"
         stroke="#555753"
         y="-144.75"
         x="863.76"
         font-family="Gentium Book Basic"
         word-spacing="0"
         letter-spacing="0">
        <tspan
           id="tspan262"
           y="-144.75"
           x="863.76" />
      </text>
      <text
         id="text264"
         transform="scale(4.0128 .2492)"
         font-size="72.67"
         y="-1121.21"
         x="520.27"
         font-family="Arial"
         text-anchor="middle" />
      <text
         id="text266"
         font-size="200"
         line-height="125%"
         stroke="#555753"
         y="-268.56"
         x="1763.38"
         font-family="Gentium Book Basic"
         word-spacing="0"
         letter-spacing="0">
        <tspan
           id="tspan268"
           y="-268.56"
           x="1763.38" />
      </text>
      <text
         id="text270"
         transform="scale(4.0128 .2492)"
         font-size="72.67"
         y="-1618.07"
         x="744.45"
         font-family="Arial"
         text-anchor="middle" />
      <text
         id="text272"
         font-size="200"
         line-height="125%"
         stroke="#555753"
         y="307.14"
         x="-2146.22"
         font-family="Gentium Book Basic"
         word-spacing="0"
         letter-spacing="0">
        <tspan
           id="tspan274"
           y="307.14"
           x="-2146.22" />
      </text>
      <text
         id="text276"
         transform="scale(4.0128 .2492)"
         font-size="72.67"
         y="692.12"
         x="-229.82"
         font-family="Arial"
         text-anchor="middle" />
    </g>
  </g>
</svg>
