<?xml version="1.0" encoding="UTF-8" standalone="no"?>
<svg
   xmlns:dc="http://purl.org/dc/elements/1.1/"
   xmlns:cc="http://creativecommons.org/ns#"
   xmlns:rdf="http://www.w3.org/1999/02/22-rdf-syntax-ns#"
   xmlns:svg="http://www.w3.org/2000/svg"
   xmlns="http://www.w3.org/2000/svg"
   xmlns:sodipodi="http://sodipodi.sourceforge.net/DTD/sodipodi-0.dtd"
   xmlns:inkscape="http://www.inkscape.org/namespaces/inkscape"
   sodipodi:docname="share.svg"
   inkscape:version="0.91 r13725"
   id="svg2"
   version="1.1"
   width="512"
   viewBox="0 0 512 512"
   height="512">
  <defs
     id="defs15" />
  <sodipodi:namedview
     inkscape:current-layer="svg2"
     inkscape:window-maximized="1"
     inkscape:window-y="25"
     inkscape:window-x="0"
     inkscape:cy="238.26863"
     inkscape:cx="188.6938"
     inkscape:zoom="1.84375"
     showgrid="false"
     id="namedview13"
     inkscape:window-height="999"
     inkscape:window-width="1680"
     inkscape:pageshadow="2"
     inkscape:pageopacity="0"
     guidetolerance="10"
     gridtolerance="10"
     objecttolerance="10"
     borderopacity="1"
     bordercolor="#666666"
     pagecolor="#ffffff" />
  <metadata
     id="metadata26">
    <rdf:RDF>
      <cc:Work
         rdf:about="">
        <dc:format>image/svg+xml</dc:format>
        <dc:type
           rdf:resource="http://purl.org/dc/dcmitype/StillImage" />
        <dc:title></dc:title>
      </cc:Work>
    </rdf:RDF>
  </metadata>
  <path
     style="fill:#BF9E73;fill-rule:evenodd;fill-opacity:1"
     inkscape:connector-curvature="0"
     d="m 471.94,253.04342 c 0,120.8954 -98.00438,218.90438 -218.90438,218.90438 -120.8954,0 -218.904376,-98.00438 -218.904376,-218.90438 0,-120.89541 98.004376,-218.904381 218.904376,-218.904381 120.89541,0 218.90438,98.004371 218.90438,218.904381"
     id="path6" />
  <path
     style="fill-opacity:0.06700003;fill-rule:evenodd"
     inkscape:connector-curvature="0"
     d="M 256,1 C 115.17,1 1,115.17 1,256 1,396.83 115.17,511 256,511 396.83,511 511,396.83 511,256 511,115.17 396.83,1 256,1 m 8.827,44.931 c 120.9,0 218.9,98 218.9,218.9 0,120.9 -98,218.9 -218.9,218.9 -120.9,0 -218.93,-98 -218.93,-218.9 0,-120.9 98.03,-218.9 218.93,-218.9"
     id="path10" />
  <g
     style="fill-opacity:0.12900002;fill-rule:evenodd"
     id="g12"
     transform="translate(0,-540.36)">
    <path
       inkscape:connector-curvature="0"
       d="M 256,544.79 C 117.06,544.79 4.43,657.42 4.43,796.36 4.43,935.3 117.06,1047.9 256,1047.9 394.94,1047.9 507.57,935.3 507.57,796.36 507.57,657.42 394.94,544.79 256,544.79 m 5.885,38.556 c 120.9,0 218.9,98 218.9,218.9 0,120.9 -98,218.9 -218.9,218.9 -120.9,0 -218.93,-98 -218.93,-218.9 0,-120.9 98.03,-218.9 218.93,-218.9"
       id="path14" />
    <path
       inkscape:connector-curvature="0"
       d="M 256,548.72 C 119.23,548.72 8.36,659.59 8.36,796.36 8.36,933.13 119.23,1044 256,1044 392.77,1044 503.64,933.13 503.64,796.36 503.64,659.59 392.77,548.72 256,548.72 m 2.942,31.691 c 120.9,0 218.9,98 218.9,218.9 0,120.9 -98,218.9 -218.9,218.9 -120.9,0 -218.93,-98 -218.93,-218.9 0,-120.9 98.03,-218.9 218.93,-218.9"
       id="path16" />
  </g>
  <path
     style="fill:#ffffff;fill-rule:evenodd;stroke:#000000;stroke-width:4.90399981;stroke-opacity:0.31000001"
     inkscape:connector-curvature="0"
     d="M 253.04,7.86 C 117.62,7.86 7.85,117.64 7.85,253.05 c 0,135.42 109.78,245.19 245.19,245.19 135.42,0 245.19,-109.78 245.19,-245.19 C 498.23,117.63 388.45,7.86 253.04,7.86 Z m 0,26.297 c 120.9,0 218.9,98 218.9,218.9 0,120.9 -98,218.9 -218.9,218.9 -120.9,0 -218.93,-98 -218.93,-218.9 0,-120.9 98.03,-218.9 218.93,-218.9 z"
     id="path18" />
  <path
     style="fill-opacity:0.23500001;fill-rule:evenodd"
     inkscape:connector-curvature="0"
     d="m 183.14303,104.14089 c -3.257,0.002 -6.532,0.803 -9.594,2.469 -9.798,5.331 -13.424,17.608 -8.094,27.406 1.054,1.938 2.383,3.63 3.906,5.063 0.03,0.032 0.064,0.062 0.094,0.094 0.07,0.065 0.148,0.124 0.219,0.188 0.192,0.199 0.394,0.404 0.594,0.594 0.065,0.071 0.122,0.149 0.188,0.219 0.069,0.064 0.149,0.125 0.219,0.188 0.246,0.255 0.492,0.51 0.75,0.75 0.015,0.017 0.016,0.046 0.031,0.063 0.065,0.06 0.122,0.129 0.188,0.188 0.328,0.34 0.652,0.686 1,1 0.338,0.351 0.672,0.708 1.031,1.031 0.156,0.161 0.308,0.314 0.469,0.469 0.376,0.419 0.781,0.806 1.188,1.188 0.03,0.032 0.064,0.062 0.094,0.094 0.07,0.065 0.148,0.124 0.219,0.188 0.192,0.199 0.394,0.404 0.594,0.594 0.065,0.071 0.122,0.149 0.188,0.219 0.069,0.064 0.149,0.125 0.219,0.188 0.246,0.255 0.492,0.51 0.75,0.75 0.015,0.017 0.016,0.046 0.031,0.063 0.065,0.06 0.122,0.129 0.188,0.188 0.328,0.34 0.652,0.686 1,1 0.338,0.351 0.672,0.708 1.031,1.031 0.208,0.215 0.409,0.421 0.625,0.625 0.049,0.054 0.107,0.103 0.156,0.156 0.06,0.056 0.127,0.102 0.188,0.156 0.155,0.162 0.309,0.313 0.469,0.469 0.389,0.435 0.798,0.854 1.219,1.25 0.03,0.032 0.064,0.062 0.094,0.094 0.07,0.065 0.148,0.124 0.219,0.188 0.192,0.199 0.394,0.404 0.594,0.594 0.065,0.071 0.122,0.149 0.188,0.219 0.069,0.064 0.149,0.125 0.219,0.188 0.241,0.25 0.467,0.515 0.719,0.75 0.02,0.021 0.043,0.041 0.063,0.063 0.065,0.06 0.122,0.129 0.188,0.188 0.338,0.351 0.672,0.708 1.031,1.031 0.208,0.215 0.409,0.421 0.625,0.625 0.049,0.054 0.107,0.103 0.156,0.156 0.06,0.056 0.127,0.102 0.188,0.156 0.155,0.162 0.309,0.313 0.469,0.469 0.389,0.435 0.798,0.854 1.219,1.25 0.03,0.032 0.064,0.062 0.094,0.094 0.07,0.065 0.148,0.124 0.219,0.188 0.192,0.199 0.394,0.404 0.594,0.594 0.065,0.071 0.122,0.149 0.188,0.219 0.069,0.064 0.149,0.125 0.219,0.188 0.246,0.255 0.492,0.51 0.75,0.75 0.015,0.017 0.016,0.046 0.031,0.063 0.065,0.06 0.122,0.129 0.188,0.188 0.328,0.34 0.652,0.686 1,1 0.338,0.351 0.672,0.708 1.031,1.031 0.156,0.161 0.308,0.314 0.469,0.469 0.376,0.419 0.781,0.806 1.188,1.188 0.03,0.032 0.064,0.062 0.094,0.094 0.07,0.065 0.148,0.124 0.219,0.188 0.192,0.199 0.394,0.404 0.594,0.594 0.065,0.071 0.122,0.149 0.188,0.219 0.069,0.064 0.149,0.125 0.219,0.188 0.246,0.255 0.492,0.51 0.75,0.75 0.015,0.017 0.016,0.046 0.031,0.063 0.065,0.06 0.122,0.129 0.188,0.188 0.328,0.34 0.652,0.686 1,1 0.338,0.351 0.672,0.708 1.031,1.031 0.156,0.161 0.308,0.314 0.469,0.469 0.337,0.375 0.702,0.717 1.063,1.063 0.357,0.394 0.741,0.764 1.125,1.125 0.03,0.032 0.064,0.062 0.094,0.094 0.07,0.065 0.148,0.124 0.219,0.188 0.246,0.255 0.492,0.51 0.75,0.75 0.015,0.017 0.016,0.046 0.031,0.063 0.065,0.06 0.122,0.129 0.188,0.188 0.328,0.34 0.652,0.686 1,1 0.364,0.378 0.736,0.748 1.125,1.094 0.016,0.016 0.016,0.047 0.031,0.063 l 25.688,47.31 c -1.015,0.77 -1.996,1.583 -2.938,2.438 -0.117,-0.113 -0.223,-0.233 -0.344,-0.344 -0.323,-0.343 -0.649,-0.678 -1,-1 -0.313,-0.332 -0.63,-0.656 -0.969,-0.969 -0.315,-0.334 -0.659,-0.685 -1,-1 -0.244,-0.259 -0.521,-0.502 -0.781,-0.75 -0.392,-0.43 -0.785,-0.851 -1.219,-1.25 -0.323,-0.343 -0.649,-0.678 -1,-1 -0.323,-0.343 -0.649,-0.678 -1,-1 -0.318,-0.337 -0.655,-0.651 -1,-0.969 -0.314,-0.333 -0.628,-0.686 -0.969,-1 -0.244,-0.259 -0.521,-0.502 -0.781,-0.75 -0.392,-0.43 -0.785,-0.851 -1.219,-1.25 -0.323,-0.343 -0.649,-0.678 -1,-1 -0.323,-0.343 -0.649,-0.678 -1,-1 -0.323,-0.343 -0.649,-0.678 -1,-1 -0.313,-0.332 -0.63,-0.656 -0.969,-0.969 -0.315,-0.334 -0.659,-0.685 -1,-1 -0.244,-0.259 -0.521,-0.502 -0.781,-0.75 -0.392,-0.43 -0.785,-0.851 -1.219,-1.25 -0.323,-0.343 -0.649,-0.678 -1,-1 -0.323,-0.343 -0.649,-0.678 -1,-1 -0.313,-0.332 -0.63,-0.656 -0.969,-0.969 -0.315,-0.334 -0.659,-0.685 -1,-1 -0.244,-0.259 -0.521,-0.502 -0.781,-0.75 -0.392,-0.43 -0.785,-0.851 -1.219,-1.25 -0.323,-0.343 -0.649,-0.678 -1,-1 -0.323,-0.343 -0.649,-0.678 -1,-1 -0.778,-0.825 -1.626,-1.581 -2.563,-2.281 -3.35,-2.505 -7.239,-3.719 -11.125,-3.906 -6.476,-0.312 -12.949,2.417 -17.12,8 -6.264,8.374 -5.066,20.01 2.469,26.938 0.318,0.335 0.656,0.684 1,1 0.247,0.261 0.518,0.501 0.781,0.75 0.385,0.42 0.793,0.827 1.219,1.219 0.339,0.358 0.662,0.726 1.031,1.063 0.325,0.341 0.648,0.679 1,1 0.325,0.341 0.647,0.679 1,1 0.302,0.317 0.612,0.638 0.938,0.938 0.247,0.261 0.518,0.501 0.781,0.75 0.316,0.345 0.656,0.674 1,1 0.405,0.441 0.801,0.872 1.25,1.281 0.325,0.341 0.648,0.679 1,1 0.335,0.352 0.667,0.701 1.031,1.031 0.294,0.307 0.59,0.615 0.906,0.906 0.318,0.335 0.656,0.684 1,1 0.247,0.261 0.518,0.501 0.781,0.75 0.385,0.42 0.793,0.827 1.219,1.219 0.339,0.358 0.662,0.726 1.031,1.063 0.34,0.356 0.693,0.696 1.063,1.031 0.29,0.302 0.564,0.62 0.875,0.906 0.318,0.335 0.656,0.684 1,1 0.247,0.261 0.518,0.501 0.781,0.75 0.385,0.42 0.793,0.827 1.219,1.219 0.339,0.358 0.662,0.726 1.031,1.063 0.335,0.351 0.667,0.701 1.031,1.031 0.062,0.065 0.124,0.123 0.188,0.188 l -69.53,-2.313 c -0.218,-0.218 -0.46,-0.417 -0.688,-0.625 -0.276,-0.288 -0.552,-0.572 -0.844,-0.844 -0.323,-0.345 -0.654,-0.678 -1,-1 -0.292,-0.312 -0.595,-0.613 -0.906,-0.906 -0.327,-0.354 -0.649,-0.701 -1,-1.031 -0.319,-0.345 -0.657,-0.678 -1,-1 -0.384,-0.415 -0.801,-0.806 -1.219,-1.188 -0.254,-0.265 -0.514,-0.53 -0.781,-0.781 -0.341,-0.368 -0.695,-0.721 -1.063,-1.063 -0.292,-0.312 -0.595,-0.613 -0.906,-0.906 -3.539,-3.832 -8.535,-6.314 -14.156,-6.5 -11.148004,-0.369 -20.506004,8.383 -20.875004,19.531 -0.198,5.978 2.24,11.42 6.25,15.25 0.316,0.347 0.66,0.675 1,1 0.356,0.391 0.739,0.763 1.125,1.125 0.02,0.022 0.042,0.041 0.063,0.063 0.135,0.125 0.268,0.253 0.406,0.375 0.165,0.167 0.329,0.339 0.5,0.5 0.106,0.114 0.204,0.232 0.313,0.344 0.065,0.059 0.121,0.129 0.188,0.188 0.105,0.105 0.206,0.209 0.313,0.313 0.331,0.366 0.706,0.69 1.063,1.031 0.317,0.349 0.659,0.674 1,1 0.322,0.354 0.654,0.7 1,1.031 0.356,0.391 0.739,0.763 1.125,1.125 0.02,0.022 0.042,0.041 0.063,0.063 0.135,0.125 0.268,0.253 0.406,0.375 0.165,0.167 0.329,0.339 0.5,0.5 0.106,0.114 0.204,0.232 0.313,0.344 0.065,0.059 0.121,0.129 0.188,0.188 0.162,0.163 0.332,0.311 0.5,0.469 0.035,0.038 0.058,0.087 0.094,0.125 0.125,0.116 0.247,0.231 0.375,0.344 0.083,0.085 0.165,0.167 0.250004,0.25 0.363,0.408 0.762,0.779 1.156,1.156 0.322,0.354 0.654,0.7 1,1.031 0.356,0.391 0.739,0.763 1.125,1.125 0.02,0.022 0.042,0.041 0.063,0.063 0.135,0.125 0.268,0.253 0.406,0.375 0.171,0.172 0.323,0.365 0.5,0.531 0.101,0.109 0.209,0.206 0.313,0.313 0.065,0.059 0.121,0.129 0.188,0.188 0.162,0.163 0.332,0.311 0.5,0.469 0.035,0.038 0.058,0.087 0.094,0.125 0.125,0.116 0.247,0.231 0.375,0.344 0.083,0.085 0.165,0.167 0.25,0.25 0.363,0.408 0.762,0.779 1.156,1.156 0.322,0.354 0.654,0.7 1,1.031 0.316,0.347 0.66,0.675 1,1 0.499,0.548 1.01,1.072 1.563,1.563 0.341,0.345 0.667,0.711 1.031,1.031 0.105,0.105 0.206,0.209 0.313,0.313 0.331,0.366 0.706,0.69 1.063,1.031 0.322,0.354 0.654,0.7 1,1.031 0.316,0.347 0.66,0.675 1,1 0.356,0.391 0.739,0.763 1.125,1.125 0.02,0.022 0.042,0.041 0.063,0.063 0.135,0.125 0.268,0.253 0.406,0.375 0.165,0.167 0.329,0.339 0.5,0.5 0.106,0.114 0.204,0.232 0.313,0.344 0.065,0.059 0.121,0.129 0.188,0.188 0.162,0.163 0.332,0.311 0.5,0.469 0.035,0.038 0.058,0.087 0.094,0.125 0.125,0.116 0.247,0.231 0.375,0.344 0.083,0.085 0.165,0.167 0.25,0.25 0.363,0.408 0.762,0.779 1.156,1.156 0.322,0.354 0.654,0.7 1,1.031 0.356,0.391 0.739,0.763 1.125,1.125 0.02,0.022 0.042,0.041 0.063,0.063 0.135,0.125 0.268,0.253 0.406,0.375 0.171,0.172 0.323,0.365 0.5,0.531 0.101,0.109 0.209,0.206 0.313,0.313 0.065,0.059 0.121,0.129 0.188,0.188 0.162,0.163 0.332,0.311 0.5,0.469 0.035,0.038 0.058,0.087 0.094,0.125 0.125,0.116 0.247,0.231 0.375,0.344 0.083,0.085 0.165,0.167 0.25,0.25 0.363,0.408 0.762,0.779 1.156,1.156 0.322,0.354 0.654,0.7 1,1.031 0.356,0.391 0.739,0.763 1.125,1.125 0.02,0.022 0.042,0.041 0.063,0.063 0.135,0.125 0.268,0.253 0.406,0.375 0.171,0.172 0.323,0.365 0.5,0.531 0.03,0.033 0.063,0.061 0.094,0.094 0.129,0.12 0.243,0.258 0.375,0.375 0.341,0.345 0.667,0.711 1.031,1.031 0.105,0.105 0.206,0.209 0.313,0.313 0.331,0.366 0.706,0.69 1.063,1.031 0.322,0.354 0.654,0.7 1,1.031 0.316,0.347 0.66,0.675 1,1 0.356,0.391 0.739,0.763 1.125,1.125 0.02,0.022 0.042,0.041 0.063,0.063 0.135,0.125 0.268,0.253 0.406,0.375 0.165,0.167 0.329,0.339 0.5,0.5 0.106,0.114 0.204,0.232 0.313,0.344 0.065,0.059 0.121,0.129 0.188,0.188 0.105,0.105 0.206,0.209 0.313,0.313 0.331,0.366 0.706,0.69 1.063,1.031 0.317,0.349 0.659,0.674 1,1 0.322,0.354 0.654,0.7 1,1.031 0.356,0.391 0.739,0.763 1.125,1.125 0.02,0.022 0.042,0.041 0.063,0.063 0.135,0.125 0.268,0.253 0.406,0.375 0.165,0.167 0.329,0.339 0.5,0.5 0.106,0.114 0.204,0.232 0.313,0.344 0.065,0.059 0.121,0.129 0.188,0.188 0.162,0.163 0.332,0.311 0.5,0.469 0.035,0.038 0.058,0.087 0.094,0.125 0.125,0.116 0.247,0.231 0.375,0.344 0.083,0.085 0.165,0.167 0.25,0.25 0.363,0.408 0.762,0.779 1.156,1.156 0.322,0.354 0.654,0.7 1,1.031 0.356,0.391 0.739,0.763 1.125,1.125 0.02,0.022 0.042,0.041 0.063,0.063 0.135,0.125 0.268,0.253 0.406,0.375 0.171,0.172 0.323,0.365 0.5,0.531 0.101,0.109 0.209,0.206 0.313,0.313 0.065,0.059 0.121,0.129 0.188,0.188 0.162,0.163 0.332,0.311 0.5,0.469 0.035,0.038 0.058,0.087 0.094,0.125 0.125,0.116 0.247,0.231 0.375,0.344 0.083,0.085 0.165,0.167 0.25,0.25 0.363,0.408 0.762,0.779 1.156,1.156 0.322,0.354 0.654,0.7 1,1.031 0.316,0.347 0.66,0.675 1,1 0.499,0.548 1.01,1.072 1.563,1.563 0.33,0.334 0.647,0.689 1,1 0.115,0.116 0.226,0.23 0.344,0.344 0.331,0.366 0.706,0.69 1.063,1.031 0.322,0.354 0.654,0.7 1,1.031 0.316,0.347 0.66,0.675 1,1 0.356,0.391 0.739,0.763 1.125,1.125 0.02,0.022 0.042,0.041 0.063,0.063 0.135,0.125 0.268,0.253 0.406,0.375 0.17,0.172 0.323,0.365 0.5,0.531 l -3.844,3.375 c -7.425,-5.063 -17.614,-4.696 -24.688,1.5 -8.391,7.349 -9.224,20.11 -1.875,28.5 0.49,0.559 0.996,1.102 1.531,1.594 0.289,0.305 0.602,0.592 0.906,0.875 0.324,0.346 0.658,0.681 1,1 0.324,0.346 0.658,0.681 1,1 0.356,0.38 0.716,0.747 1.094,1.094 0.323,0.341 0.628,0.686 0.969,1 0.328,0.347 0.653,0.681 1,1 0.289,0.305 0.602,0.592 0.906,0.875 0.324,0.346 0.658,0.681 1,1 0.324,0.346 0.658,0.681 1,1 0.356,0.38 0.716,0.747 1.094,1.094 0.323,0.341 0.628,0.686 0.969,1 0.323,0.341 0.659,0.655 1,0.969 0.294,0.311 0.597,0.618 0.906,0.906 0.324,0.346 0.658,0.681 1,1 0.324,0.346 0.658,0.681 1,1 0.32,0.342 0.662,0.685 1,1 0.351,0.375 0.69,0.751 1.063,1.094 0.364,0.385 0.739,0.744 1.125,1.094 0.259,0.27 0.51,0.529 0.781,0.781 0.324,0.346 0.658,0.681 1,1 0.324,0.346 0.658,0.681 1,1 0.324,0.346 0.658,0.681 1,1 0.351,0.375 0.69,0.751 1.063,1.094 0.364,0.385 0.739,0.744 1.125,1.094 0.291,0.303 0.57,0.625 0.875,0.906 0.289,0.305 0.602,0.592 0.906,0.875 0.324,0.346 0.658,0.681 1,1 0.324,0.346 0.658,0.681 1,1 0.356,0.38 0.716,0.747 1.094,1.094 0.323,0.341 0.628,0.686 0.969,1 0.323,0.341 0.659,0.655 1,0.969 0.294,0.311 0.597,0.618 0.906,0.906 0.324,0.346 0.658,0.681 1,1 0.324,0.346 0.658,0.681 1,1 0.356,0.38 0.716,0.747 1.094,1.094 0.323,0.341 0.628,0.686 0.969,1 0.323,0.341 0.659,0.655 1,0.969 0.294,0.311 0.597,0.618 0.906,0.906 0.324,0.346 0.658,0.681 1,1 0.324,0.346 0.658,0.681 1,1 0.32,0.342 0.662,0.685 1,1 0.351,0.375 0.69,0.751 1.063,1.094 0.364,0.385 0.739,0.744 1.125,1.094 0.291,0.303 0.57,0.625 0.875,0.906 0.289,0.305 0.602,0.592 0.906,0.875 0.324,0.346 0.658,0.681 1,1 0.324,0.346 0.658,0.681 1,1 0.356,0.38 0.716,0.747 1.094,1.094 0.323,0.341 0.628,0.686 0.969,1 0.328,0.347 0.653,0.681 1,1 0.289,0.305 0.602,0.592 0.906,0.875 0.324,0.346 0.658,0.681 1,1 0.324,0.346 0.658,0.681 1,1 0.356,0.38 0.716,0.747 1.094,1.094 0.323,0.341 0.628,0.686 0.969,1 0.323,0.341 0.659,0.655 1,0.969 0.294,0.311 0.597,0.618 0.906,0.906 0.324,0.346 0.658,0.681 1,1 0.324,0.346 0.658,0.681 1,1 0.32,0.342 0.662,0.685 1,1 0.351,0.375 0.69,0.751 1.063,1.094 0.364,0.385 0.739,0.744 1.125,1.094 0.259,0.27 0.51,0.529 0.781,0.781 0.324,0.346 0.658,0.681 1,1 0.324,0.346 0.658,0.681 1,1 0.324,0.346 0.658,0.681 1,1 0.351,0.375 0.69,0.751 1.063,1.094 0.364,0.385 0.739,0.744 1.125,1.094 0.291,0.303 0.57,0.625 0.875,0.906 0.289,0.305 0.602,0.592 0.906,0.875 0.324,0.346 0.658,0.681 1,1 0.324,0.346 0.658,0.681 1,1 0.356,0.38 0.716,0.747 1.094,1.094 0.323,0.341 0.628,0.686 0.969,1 0.323,0.341 0.659,0.655 1,0.969 0.294,0.311 0.597,0.618 0.906,0.906 0.324,0.346 0.658,0.681 1,1 0.324,0.346 0.658,0.681 1,1 0.356,0.38 0.716,0.747 1.094,1.094 0.323,0.341 0.628,0.686 0.969,1 0.364,0.385 0.739,0.744 1.125,1.094 0.259,0.27 0.51,0.529 0.781,0.781 0.324,0.346 0.658,0.681 1,1 0.324,0.346 0.658,0.681 1,1 0.32,0.342 0.662,0.685 1,1 0.351,0.375 0.69,0.751 1.063,1.094 0.364,0.385 0.739,0.744 1.125,1.094 0.291,0.303 0.57,0.625 0.875,0.906 0.289,0.305 0.602,0.592 0.906,0.875 0.324,0.346 0.658,0.681 1,1 0.324,0.346 0.658,0.681 1,1 0.356,0.38 0.716,0.747 1.094,1.094 0.323,0.341 0.628,0.686 0.969,1 0.328,0.347 0.653,0.681 1,1 0.289,0.305 0.602,0.592 0.906,0.875 0.324,0.346 0.658,0.681 1,1 0.324,0.346 0.658,0.681 1,1 0.102,0.109 0.21,0.206 0.313,0.313 7.946,0.874 16.01004,1.375 24.19004,1.375 120.9,0 218.91,-98.01 218.91,-218.91 0,-7.514 -0.386,-14.962 -1.125,-22.281 -0.064,-0.061 -0.123,-0.127 -0.188,-0.188 -0.325,-0.35 -0.657,-0.678 -1,-1 -0.031,-0.033 -0.063,-0.061 -0.094,-0.094 -0.126,-0.116 -0.247,-0.231 -0.375,-0.344 -0.173,-0.175 -0.322,-0.364 -0.5,-0.531 -0.318,-0.342 -0.665,-0.685 -1,-1 -0.32,-0.344 -0.663,-0.683 -1,-1 -0.323,-0.348 -0.659,-0.68 -1,-1 -0.325,-0.35 -0.657,-0.678 -1,-1 -0.325,-0.35 -0.657,-0.678 -1,-1 -0.325,-0.35 -0.657,-0.678 -1,-1 -0.031,-0.033 -0.063,-0.061 -0.094,-0.094 -0.126,-0.116 -0.247,-0.231 -0.375,-0.344 -0.173,-0.175 -0.322,-0.364 -0.5,-0.531 -0.318,-0.342 -0.665,-0.685 -1,-1 -0.323,-0.348 -0.659,-0.68 -1,-1 -0.325,-0.35 -0.657,-0.678 -1,-1 -0.325,-0.35 -0.657,-0.678 -1,-1 -0.325,-0.35 -0.657,-0.678 -1,-1 -0.031,-0.033 -0.063,-0.061 -0.094,-0.094 -0.126,-0.116 -0.247,-0.231 -0.375,-0.344 -0.173,-0.175 -0.322,-0.364 -0.5,-0.531 -0.318,-0.342 -0.665,-0.685 -1,-1 -0.32,-0.344 -0.663,-0.683 -1,-1 -0.323,-0.348 -0.659,-0.68 -1,-1 -0.325,-0.35 -0.657,-0.678 -1,-1 -0.325,-0.35 -0.657,-0.678 -1,-1 -0.031,-0.033 -0.063,-0.061 -0.094,-0.094 -0.126,-0.116 -0.247,-0.231 -0.375,-0.344 -0.173,-0.175 -0.322,-0.364 -0.5,-0.531 -0.318,-0.342 -0.665,-0.685 -1,-1 -0.32,-0.344 -0.663,-0.683 -1,-1 -0.323,-0.348 -0.659,-0.68 -1,-1 -0.325,-0.35 -0.657,-0.678 -1,-1 -0.325,-0.35 -0.657,-0.678 -1,-1 -0.031,-0.033 -0.063,-0.061 -0.094,-0.094 -0.126,-0.116 -0.247,-0.231 -0.375,-0.344 -0.183,-0.185 -0.343,-0.386 -0.531,-0.563 -0.318,-0.342 -0.633,-0.653 -0.969,-0.969 -0.318,-0.342 -0.665,-0.685 -1,-1 -0.323,-0.348 -0.659,-0.68 -1,-1 -0.325,-0.35 -0.657,-0.678 -1,-1 -0.325,-0.35 -0.657,-0.678 -1,-1 -0.325,-0.35 -0.657,-0.678 -1,-1 -0.031,-0.033 -0.063,-0.061 -0.094,-0.094 -0.126,-0.116 -0.247,-0.231 -0.375,-0.344 -0.173,-0.175 -0.322,-0.364 -0.5,-0.531 -0.318,-0.342 -0.665,-0.685 -1,-1 -0.323,-0.348 -0.659,-0.68 -1,-1 -0.325,-0.35 -0.657,-0.678 -1,-1 -0.325,-0.35 -0.657,-0.678 -1,-1 -0.325,-0.35 -0.657,-0.678 -1,-1 -0.031,-0.033 -0.063,-0.061 -0.094,-0.094 -0.126,-0.116 -0.247,-0.231 -0.375,-0.344 -0.173,-0.175 -0.322,-0.364 -0.5,-0.531 -0.318,-0.342 -0.665,-0.685 -1,-1 -0.32,-0.344 -0.663,-0.683 -1,-1 -0.323,-0.348 -0.659,-0.68 -1,-1 -0.325,-0.35 -0.657,-0.678 -1,-1 -0.325,-0.35 -0.657,-0.678 -1,-1 -0.031,-0.033 -0.063,-0.061 -0.094,-0.094 -0.126,-0.116 -0.247,-0.231 -0.375,-0.344 -0.173,-0.175 -0.322,-0.364 -0.5,-0.531 -0.318,-0.342 -0.665,-0.685 -1,-1 -0.32,-0.344 -0.663,-0.683 -1,-1 -0.323,-0.348 -0.659,-0.68 -1,-1 -0.325,-0.35 -0.657,-0.678 -1,-1 -0.325,-0.35 -0.657,-0.678 -1,-1 -0.031,-0.033 -0.063,-0.061 -0.094,-0.094 -0.126,-0.116 -0.247,-0.231 -0.375,-0.344 -0.183,-0.185 -0.343,-0.386 -0.531,-0.563 -0.318,-0.342 -0.633,-0.653 -0.969,-0.969 -0.318,-0.342 -0.665,-0.685 -1,-1 -0.323,-0.348 -0.659,-0.68 -1,-1 -0.325,-0.35 -0.657,-0.678 -1,-1 -0.325,-0.35 -0.657,-0.678 -1,-1 -0.325,-0.35 -0.657,-0.678 -1,-1 -0.031,-0.033 -0.063,-0.061 -0.094,-0.094 -0.126,-0.116 -0.247,-0.231 -0.375,-0.344 -0.173,-0.175 -0.322,-0.364 -0.5,-0.531 -0.318,-0.342 -0.665,-0.685 -1,-1 -0.32,-0.344 -0.663,-0.683 -1,-1 -0.323,-0.348 -0.659,-0.68 -1,-1 -0.325,-0.35 -0.657,-0.678 -1,-1 -0.325,-0.35 -0.657,-0.678 -1,-1 -0.031,-0.033 -0.063,-0.061 -0.094,-0.094 -0.126,-0.116 -0.247,-0.231 -0.375,-0.344 -0.173,-0.175 -0.322,-0.364 -0.5,-0.531 -0.318,-0.342 -0.665,-0.685 -1,-1 -0.32,-0.344 -0.663,-0.683 -1,-1 -0.323,-0.348 -0.659,-0.68 -1,-1 -0.325,-0.35 -0.657,-0.678 -1,-1 -0.325,-0.35 -0.657,-0.678 -1,-1 -0.031,-0.033 -0.063,-0.061 -0.094,-0.094 -0.126,-0.116 -0.247,-0.231 -0.375,-0.344 -0.183,-0.185 -0.343,-0.386 -0.531,-0.563 -0.318,-0.342 -0.633,-0.653 -0.969,-0.969 -0.32,-0.344 -0.663,-0.683 -1,-1 -0.323,-0.348 -0.659,-0.68 -1,-1 -0.325,-0.35 -0.657,-0.678 -1,-1 -0.325,-0.35 -0.657,-0.678 -1,-1 -0.325,-0.35 -0.657,-0.678 -1,-1 -0.031,-0.033 -0.063,-0.061 -0.094,-0.094 -0.126,-0.116 -0.247,-0.231 -0.375,-0.344 -0.173,-0.175 -0.322,-0.364 -0.5,-0.531 -0.318,-0.342 -0.665,-0.685 -1,-1 -0.323,-0.348 -0.659,-0.68 -1,-1 -0.325,-0.35 -0.657,-0.678 -1,-1 -0.325,-0.35 -0.657,-0.678 -1,-1 -0.325,-0.35 -0.657,-0.678 -1,-1 -0.031,-0.033 -0.063,-0.061 -0.094,-0.094 -0.126,-0.116 -0.247,-0.231 -0.375,-0.344 -0.173,-0.175 -0.322,-0.364 -0.5,-0.531 -0.318,-0.342 -0.665,-0.685 -1,-1 -0.32,-0.344 -0.663,-0.683 -1,-1 -0.323,-0.348 -0.659,-0.68 -1,-1 -0.325,-0.35 -0.657,-0.678 -1,-1 -0.325,-0.35 -0.657,-0.678 -1,-1 -0.031,-0.033 -0.063,-0.061 -0.094,-0.094 -0.126,-0.116 -0.247,-0.231 -0.375,-0.344 -0.173,-0.175 -0.322,-0.364 -0.5,-0.531 -0.318,-0.342 -0.665,-0.685 -1,-1 -0.32,-0.344 -0.663,-0.683 -1,-1 -0.323,-0.348 -0.659,-0.68 -1,-1 -7.59,-8.174 -20.358,-8.653 -28.531,-1.063 -6.897,6.404 -8.348,16.528 -4.063,24.438 l -33.438,30.969 c -0.202,-0.213 -0.414,-0.421 -0.625,-0.625 -0.315,-0.349 -0.662,-0.674 -1,-1 -0.377,-0.418 -0.776,-0.802 -1.188,-1.188 -0.32,-0.344 -0.657,-0.678 -1,-1 -0.32,-0.344 -0.657,-0.678 -1,-1 -0.232,-0.25 -0.474,-0.48 -0.719,-0.719 -0.333,-0.372 -0.703,-0.716 -1.063,-1.063 -0.315,-0.349 -0.662,-0.674 -1,-1 -0.377,-0.418 -0.776,-0.802 -1.188,-1.188 -0.32,-0.344 -0.657,-0.678 -1,-1 -0.32,-0.344 -0.657,-0.678 -1,-1 -0.315,-0.339 -0.631,-0.683 -0.969,-1 -0.255,-0.274 -0.543,-0.521 -0.813,-0.781 -0.315,-0.349 -0.662,-0.674 -1,-1 -0.377,-0.418 -0.776,-0.802 -1.188,-1.188 -0.32,-0.344 -0.657,-0.678 -1,-1 -0.32,-0.344 -0.657,-0.678 -1,-1 -0.315,-0.339 -0.631,-0.683 -0.969,-1 -0.255,-0.274 -0.543,-0.521 -0.813,-0.781 -0.315,-0.349 -0.662,-0.674 -1,-1 -0.382,-0.424 -0.771,-0.829 -1.188,-1.219 -0.318,-0.343 -0.659,-0.648 -1,-0.969 -0.32,-0.344 -0.657,-0.678 -1,-1 -0.32,-0.345 -0.657,-0.678 -1,-1 -0.232,-0.25 -0.474,-0.48 -0.719,-0.719 -0.333,-0.372 -0.703,-0.716 -1.063,-1.063 -0.315,-0.349 -0.662,-0.674 -1,-1 -0.377,-0.418 -0.776,-0.802 -1.188,-1.188 -0.32,-0.345 -0.657,-0.678 -1,-1 -0.32,-0.345 -0.657,-0.678 -1,-1 -0.232,-0.25 -0.474,-0.48 -0.719,-0.719 -0.333,-0.372 -0.703,-0.716 -1.063,-1.063 -0.315,-0.349 -0.662,-0.674 -1,-1 -0.377,-0.418 -0.776,-0.802 -1.188,-1.188 -0.32,-0.345 -0.657,-0.678 -1,-1 -0.32,-0.345 -0.657,-0.678 -1,-1 -0.315,-0.339 -0.631,-0.683 -0.969,-1 -0.255,-0.274 -0.543,-0.521 -0.813,-0.781 -3.528,-3.909 -8.574,-6.446 -14.25,-6.656 -6.733,-0.249 -12.84,2.818 -16.688,7.75 -0.109,-0.101 -0.201,-0.214 -0.313,-0.313 -0.214,-0.219 -0.402,-0.448 -0.625,-0.656 -0.34204,-0.368 -0.69704,-0.724 -1.06304,-1.063 -0.42,-0.447 -0.858,-0.878 -1.313,-1.281 -0.325,-0.332 -0.655,-0.694 -1,-1 -0.171,-0.174 -0.355,-0.333 -0.531,-0.5 -0.32,-0.35 -0.659,-0.677 -1,-1 -0.47,-0.513 -0.923,-1.012 -1.438,-1.469 -0.214,-0.219 -0.402,-0.448 -0.625,-0.656 -0.317,-0.341 -0.662,-0.653 -1,-0.969 -0.441,-0.475 -0.895,-0.95 -1.375,-1.375 -0.171,-0.174 -0.355,-0.333 -0.531,-0.5 -0.32,-0.35 -0.659,-0.677 -1,-1 -0.47,-0.513 -0.923,-1.012 -1.438,-1.469 -0.214,-0.219 -0.402,-0.448 -0.625,-0.656 -0.317,-0.341 -0.662,-0.653 -1,-0.969 -0.441,-0.475 -0.895,-0.95 -1.375,-1.375 -0.171,-0.174 -0.355,-0.333 -0.531,-0.5 -0.32,-0.35 -0.659,-0.677 -1,-1 -0.47,-0.513 -0.923,-1.012 -1.438,-1.469 -0.214,-0.219 -0.402,-0.448 -0.625,-0.656 -0.317,-0.341 -0.662,-0.653 -1,-0.969 -0.441,-0.475 -0.895,-0.95 -1.375,-1.375 -0.325,-0.332 -0.655,-0.694 -1,-1 -0.171,-0.174 -0.355,-0.333 -0.531,-0.5 -0.47,-0.513 -0.923,-1.012 -1.438,-1.469 -0.215,-0.22 -0.402,-0.448 -0.625,-0.656 -0.342,-0.368 -0.697,-0.724 -1.063,-1.063 -0.42,-0.447 -0.858,-0.878 -1.313,-1.281 -0.325,-0.332 -0.655,-0.694 -1,-1 -0.171,-0.174 -0.355,-0.333 -0.531,-0.5 -0.32,-0.35 -0.659,-0.677 -1,-1 -0.47,-0.513 -0.923,-1.012 -1.438,-1.469 -0.214,-0.219 -0.402,-0.448 -0.625,-0.656 -0.317,-0.341 -0.662,-0.653 -1,-0.969 -0.441,-0.475 -0.895,-0.95 -1.375,-1.375 -0.171,-0.174 -0.355,-0.333 -0.531,-0.5 -0.32,-0.35 -0.659,-0.677 -1,-1 -0.47,-0.513 -0.923,-1.012 -1.438,-1.469 -0.214,-0.219 -0.402,-0.448 -0.625,-0.656 -0.317,-0.341 -0.662,-0.653 -1,-0.969 -0.441,-0.475 -0.895,-0.95 -1.375,-1.375 -0.325,-0.332 -0.655,-0.694 -1,-1 -0.171,-0.174 -0.355,-0.333 -0.531,-0.5 -0.47,-0.513 -0.923,-1.012 -1.438,-1.469 -0.214,-0.219 -0.402,-0.448 -0.625,-0.656 -0.342,-0.368 -0.697,-0.724 -1.063,-1.063 -3.871,-4.123 -9.287,-6.378 -14.813,-6.375"
     id="path8" />
  <path
     style="fill:#ffffff;fill-rule:evenodd"
     inkscape:connector-curvature="0"
     d="m 183.11,103.87 c -3.257,0.002 -6.543,0.814 -9.605,2.48 -9.798,5.331 -13.425,17.591 -8.094,27.39 4.498,8.267 13.935,12.141 22.659,9.947 l 42.21,77.72 c -3.568,2.707 -6.693,5.942 -9.32,9.576 l -0.029,0 -15.733,-11.771 c 3.335,-8.328 0.853,-18.25 -6.641,-23.856 -3.35,-2.505 -7.23,-3.718 -11.12,-3.905 -6.476,-0.312 -12.954,2.398 -17.13,7.98 -6.681,8.932 -4.857,21.564 4.076,28.24 7.537,5.637 17.703,5.366 24.711,-0.228 l 16.787,12.512 c -1.981,4.719 -3.178,9.824 -3.449,15.191 0.052,-1.384 0.153,-2.771 0.342,-4.104 l -89.89,-2.993 c -1.993,-8.725 -9.673,-15.366 -19.04,-15.676 -11.148,-0.369 -20.494,8.375 -20.863,19.523 -0.369,11.148 8.375,20.465 19.523,20.834 9.365,0.31 17.47,-5.791 20.04,-14.365 l 90.01,3.02 c 0.773,9.04 4.213,17.288 9.519,23.998 l -64.955,56.889 c -7.425,-5.063 -17.609,-4.685 -24.682,1.511 -8.391,7.349 -9.231,20.11 -1.881,28.501 7.349,8.391 20.11,9.231 28.501,1.881 7.06,-6.18 8.761,-16.181 4.76,-24.2 l 65.41,-57.37 c 7.02,5.633 15.761,9.218 25.338,9.804 -1.551,-0.088 -3.064,-0.259 -4.589,-0.513 l -0.599,19.409 c -8.815,1.682 -15.74,9.125 -16.36,18.497 -0.737,11.13 7.681,20.753 18.811,21.49 11.13,0.737 20.754,-7.681 21.49,-18.811 0.621,-9.382 -5.263,-17.701 -13.795,-20.521 l 0,-0.2 0.57,-19.352 c 5.319,-0.315 10.405,-1.539 15.08,-3.534 l 44.576,74.958 c -6.256,6.398 -7.685,16.412 -2.879,24.454 5.722,9.575 18.13,12.705 27.703,6.983 9.575,-5.722 12.677,-18.13 6.954,-27.703 -4.833,-8.09 -14.423,-11.566 -23.06,-9.01 l -44.605,-74.64 c 4.01,-2.896 7.535,-6.432 10.403,-10.46 l 14.992,10.488 c -3.158,8.434 -0.347,18.269 7.382,23.656 9.151,6.379 21.723,4.134 28.1,-5.02 6.379,-9.151 4.134,-21.752 -5.02,-28.13 -7.68,-5.354 -17.777,-4.611 -24.597,1.169 l -15.932,-11.09 c 1.741,-4.229 2.852,-8.775 3.221,-13.538 l 86.7,3.164 c 1.926,8.776 9.586,15.498 18.982,15.847 11.147,0.414 20.506,-8.291 20.92,-19.438 0.414,-11.147 -8.263,-20.506 -19.409,-20.92 -9.374,-0.348 -17.502,5.758 -20.09,14.336 l -87.47,-3.306 c -1.402,-9.209 -5.59,-17.514 -11.686,-24.03 l 62.13,-57.744 c 7.558,4.775 17.679,4.091 24.54,-2.28 8.174,-7.59 8.645,-20.385 1.055,-28.558 -7.59,-8.174 -20.356,-8.645 -28.53,-1.055 -6.897,6.404 -8.333,16.516 -4.047,24.426 l -63.02,58.46 c 0.672,0.449 1.281,0.916 1.881,1.397 -6.06,-4.539 -13.29,-7.584 -21.15,-8.607 l 0.87,-24.49 c 8.717,-1.971 15.358,-9.6 15.704,-18.953 0.412,-11.147 -8.291,-20.536 -19.438,-20.948 -11.147,-0.412 -20.508,8.291 -20.92,19.438 -0.346,9.365 5.742,17.495 14.308,20.09 l -0.883,24.682 c -4.912,0.489 -9.594,1.789 -13.909,3.734 l -41.982,-77.47 c 6.533,-6.137 8.389,-16.13 3.905,-24.369 -3.665,-6.736 -10.62,-10.55 -17.785,-10.545 m 103.2,118.94 c 0.102,0.059 0.197,0.121 0.285,0.2 0.094,0.08 0.176,0.186 0.256,0.285 -0.182,-0.157 -0.357,-0.33 -0.541,-0.485 m -28.929,2.537 c 17.725,0 32.12,14.425 32.12,32.15 0,17.725 -14.396,32.15 -32.12,32.15 -17.725,0 -32.15,-14.425 -32.15,-32.15 0,-17.725 14.425,-32.15 32.15,-32.15 m 0,9.462 c -12.516,0 -22.716,10.171 -22.716,22.687 0,12.516 10.199,22.687 22.716,22.687 12.516,0 22.687,-10.171 22.687,-22.687 0,-12.516 -10.171,-22.687 -22.687,-22.687"
     id="path20" />
</svg>
