<?xml version="1.0" encoding="UTF-8" standalone="no"?>
<svg
   xmlns:dc="http://purl.org/dc/elements/1.1/"
   xmlns:cc="http://creativecommons.org/ns#"
   xmlns:rdf="http://www.w3.org/1999/02/22-rdf-syntax-ns#"
   xmlns:svg="http://www.w3.org/2000/svg"
   xmlns="http://www.w3.org/2000/svg"
   xmlns:sodipodi="http://sodipodi.sourceforge.net/DTD/sodipodi-0.dtd"
   xmlns:inkscape="http://www.inkscape.org/namespaces/inkscape"
   height="512"
   viewBox="0 0 512 512"
   width="512"
   version="1.1"
   id="svg2"
   inkscape:version="0.91 r13725"
   sodipodi:docname="skypeforlinux.svg">
  <defs
     id="defs17" />
  <sodipodi:namedview
     pagecolor="#ffffff"
     bordercolor="#666666"
     borderopacity="1"
     objecttolerance="10"
     gridtolerance="10"
     guidetolerance="10"
     inkscape:pageopacity="0"
     inkscape:pageshadow="2"
     inkscape:window-width="1920"
     inkscape:window-height="1024"
     id="namedview15"
     showgrid="false"
     inkscape:zoom="0.65186406"
     inkscape:cx="-352.76455"
     inkscape:cy="449.44125"
     inkscape:window-x="0"
     inkscape:window-y="0"
     inkscape:window-maximized="1"
     inkscape:current-layer="svg2" />
  <metadata
     id="metadata74">
    <rdf:RDF>
      <cc:Work
         rdf:about="">
        <dc:format>image/svg+xml</dc:format>
        <dc:type
           rdf:resource="http://purl.org/dc/dcmitype/StillImage" />
      </cc:Work>
    </rdf:RDF>
  </metadata>
  <path
     inkscape:connector-curvature="0"
     style="fill:#BF9E73;fill-opacity:1;fill-rule:evenodd"
     d="m 471.95,253.05 c 0,120.9 -98.01,218.9 -218.9,218.9 -120.9,0 -218.9,-98.01 -218.9,-218.9 0,-120.9 98.01,-218.9 218.9,-218.9 120.9,0 218.9,98.01 218.9,218.9"
     id="path6" />
  <path
     style="fill-opacity:0.23500001"
     inkscape:connector-curvature="0"
     d="m 190.03,120.06 c -39.24,0 -71.03,31.799 -71.03,71.03 0,13.12 3.553,25.362 9.75,35.906 -1.625,7.958 -2.469,16.217 -2.469,24.656 0,34.08 13.913,64.919 36.38,87.13 0.419,0.424 0.856,0.832 1.281,1.25 0.239,0.24 0.478,0.481 0.719,0.719 0.166,0.168 0.333,0.333 0.5,0.5 0.116,0.113 0.227,0.231 0.344,0.344 0.217,0.22 0.438,0.438 0.656,0.656 0.027,0.026 0.067,0.037 0.094,0.063 0.304,0.311 0.599,0.63 0.906,0.938 0.027,0.025 0.067,0.037 0.094,0.063 0.449,0.458 0.888,0.924 1.344,1.375 0.435,0.44 0.871,0.879 1.313,1.313 0.239,0.24 0.478,0.481 0.719,0.719 0.166,0.168 0.333,0.333 0.5,0.5 0.116,0.113 0.227,0.231 0.344,0.344 0.217,0.22 0.438,0.438 0.656,0.656 0.027,0.026 0.067,0.037 0.094,0.063 0.304,0.311 0.599,0.63 0.906,0.938 0.027,0.025 0.067,0.037 0.094,0.063 0.302,0.308 0.601,0.632 0.906,0.938 0.027,0.025 0.067,0.037 0.094,0.063 0.567,0.579 1.14,1.151 1.719,1.719 0.026,0.026 0.037,0.067 0.063,0.094 0.198,0.198 0.395,0.397 0.594,0.594 0.166,0.168 0.333,0.333 0.5,0.5 0.116,0.113 0.227,0.231 0.344,0.344 0.217,0.22 0.438,0.438 0.656,0.656 0.027,0.026 0.067,0.037 0.094,0.063 0.041,0.043 0.084,0.082 0.125,0.125 0.263,0.268 0.516,0.547 0.781,0.813 0.027,0.025 0.067,0.037 0.094,0.063 0.304,0.311 0.599,0.63 0.906,0.938 0.027,0.025 0.067,0.037 0.094,0.063 0.449,0.458 0.888,0.924 1.344,1.375 0.435,0.44 0.871,0.879 1.313,1.313 0.239,0.24 0.478,0.481 0.719,0.719 0.166,0.168 0.333,0.333 0.5,0.5 0.116,0.113 0.227,0.231 0.344,0.344 0.217,0.22 0.438,0.438 0.656,0.656 0.027,0.026 0.067,0.037 0.094,0.063 0.304,0.311 0.599,0.63 0.906,0.938 0.027,0.025 0.067,0.037 0.094,0.063 0.449,0.458 0.888,0.924 1.344,1.375 0.435,0.44 0.871,0.879 1.313,1.313 0.239,0.24 0.478,0.481 0.719,0.719 0.166,0.168 0.333,0.333 0.5,0.5 0.116,0.113 0.227,0.231 0.344,0.344 0.217,0.22 0.438,0.438 0.656,0.656 0.027,0.026 0.067,0.037 0.094,0.063 0.304,0.311 0.599,0.63 0.906,0.938 0.027,0.025 0.067,0.037 0.094,0.063 0.302,0.308 0.601,0.632 0.906,0.938 0.027,0.025 0.067,0.037 0.094,0.063 0.02,0.021 0.042,0.041 0.063,0.063 0.531,0.542 1.052,1.093 1.594,1.625 0.239,0.24 0.478,0.481 0.719,0.719 0.166,0.168 0.333,0.333 0.5,0.5 0.116,0.113 0.227,0.231 0.344,0.344 0.217,0.22 0.438,0.438 0.656,0.656 0.027,0.026 0.067,0.037 0.094,0.063 0.041,0.043 0.084,0.082 0.125,0.125 0.263,0.268 0.516,0.547 0.781,0.813 0.027,0.025 0.067,0.037 0.094,0.063 0.304,0.311 0.599,0.63 0.906,0.938 0.027,0.025 0.067,0.037 0.094,0.063 0.531,0.542 1.053,1.093 1.594,1.625 0.094,0.095 0.187,0.187 0.281,0.281 0.037,0.036 0.088,0.058 0.125,0.094 0.046,0.048 0.079,0.108 0.125,0.156 0.413,0.42 0.831,0.836 1.25,1.25 0.166,0.168 0.333,0.333 0.5,0.5 0.116,0.113 0.227,0.231 0.344,0.344 0.217,0.22 0.438,0.438 0.656,0.656 0.027,0.026 0.067,0.037 0.094,0.063 0.304,0.311 0.599,0.63 0.906,0.938 0.027,0.025 0.067,0.037 0.094,0.063 0.449,0.458 0.888,0.924 1.344,1.375 0.435,0.44 0.871,0.879 1.313,1.313 0.239,0.24 0.478,0.481 0.719,0.719 0.166,0.168 0.333,0.333 0.5,0.5 0.116,0.113 0.227,0.231 0.344,0.344 0.217,0.22 0.438,0.438 0.656,0.656 0.027,0.026 0.067,0.037 0.094,0.063 0.304,0.311 0.599,0.63 0.906,0.938 0.027,0.025 0.067,0.037 0.094,0.063 0.449,0.458 0.888,0.924 1.344,1.375 0.435,0.44 0.871,0.879 1.313,1.313 0.239,0.24 0.478,0.481 0.719,0.719 0.166,0.168 0.333,0.333 0.5,0.5 0.116,0.113 0.227,0.231 0.344,0.344 0.217,0.22 0.438,0.438 0.656,0.656 0.027,0.026 0.067,0.037 0.094,0.063 0.304,0.311 0.599,0.63 0.906,0.938 0.027,0.025 0.067,0.037 0.094,0.063 0.302,0.308 0.601,0.632 0.906,0.938 0.027,0.025 0.067,0.037 0.094,0.063 0.02,0.021 0.042,0.041 0.063,0.063 0.531,0.542 1.052,1.093 1.594,1.625 0.239,0.24 0.478,0.481 0.719,0.719 0.166,0.168 0.333,0.333 0.5,0.5 0.116,0.113 0.227,0.231 0.344,0.344 0.217,0.22 0.438,0.438 0.656,0.656 0.027,0.026 0.067,0.037 0.094,0.063 0.041,0.043 0.084,0.082 0.125,0.125 0.263,0.268 0.516,0.547 0.781,0.813 0.027,0.025 0.067,0.037 0.094,0.063 0.304,0.311 0.599,0.63 0.906,0.938 0.027,0.025 0.067,0.037 0.094,0.063 0.449,0.458 0.888,0.924 1.344,1.375 0.435,0.44 0.871,0.879 1.313,1.313 0.239,0.24 0.478,0.481 0.719,0.719 0.166,0.168 0.333,0.333 0.5,0.5 0.116,0.113 0.227,0.231 0.344,0.344 0.217,0.22 0.438,0.438 0.656,0.656 0.027,0.026 0.067,0.037 0.094,0.063 0.304,0.311 0.599,0.63 0.906,0.938 0.027,0.025 0.067,0.037 0.094,0.063 0.449,0.458 0.888,0.924 1.344,1.375 0.435,0.44 0.871,0.879 1.313,1.313 0.239,0.24 0.478,0.481 0.719,0.719 0.166,0.168 0.333,0.333 0.5,0.5 0.116,0.113 0.227,0.231 0.344,0.344 0.217,0.22 0.438,0.438 0.656,0.656 0.027,0.026 0.067,0.037 0.094,0.063 0.304,0.311 0.599,0.63 0.906,0.938 0.027,0.025 0.067,0.037 0.094,0.063 0.449,0.458 0.888,0.924 1.344,1.375 0.435,0.44 0.871,0.879 1.313,1.313 0.239,0.24 0.478,0.481 0.719,0.719 0.166,0.168 0.333,0.333 0.5,0.5 0.116,0.113 0.227,0.231 0.344,0.344 0.217,0.22 0.438,0.438 0.656,0.656 0.027,0.026 0.067,0.037 0.094,0.063 0.041,0.043 0.084,0.082 0.125,0.125 0.263,0.268 0.516,0.547 0.781,0.813 0.027,0.025 0.067,0.037 0.094,0.063 0.304,0.311 0.599,0.63 0.906,0.938 0.027,0.025 0.067,0.037 0.094,0.063 0.531,0.542 1.053,1.093 1.594,1.625 0.094,0.095 0.187,0.187 0.281,0.281 0.037,0.036 0.088,0.058 0.125,0.094 0.046,0.048 0.079,0.108 0.125,0.156 0.413,0.42 0.831,0.836 1.25,1.25 0.166,0.168 0.333,0.333 0.5,0.5 0.116,0.113 0.227,0.231 0.344,0.344 0.217,0.22 0.438,0.438 0.656,0.656 0.027,0.026 0.067,0.037 0.094,0.063 0.304,0.311 0.599,0.63 0.906,0.938 0.027,0.025 0.067,0.037 0.094,0.063 0.449,0.458 0.888,0.924 1.344,1.375 0.435,0.44 0.871,0.879 1.313,1.313 0.239,0.24 0.478,0.481 0.719,0.719 0.166,0.168 0.333,0.333 0.5,0.5 0.116,0.113 0.227,0.231 0.344,0.344 0.217,0.22 0.438,0.438 0.656,0.656 0.027,0.026 0.067,0.037 0.094,0.063 0.304,0.311 0.599,0.63 0.906,0.938 0.027,0.025 0.067,0.037 0.094,0.063 0.449,0.458 0.888,0.924 1.344,1.375 0.435,0.44 0.871,0.879 1.313,1.313 0.239,0.24 0.478,0.481 0.719,0.719 0.166,0.168 0.333,0.333 0.5,0.5 0.116,0.113 0.227,0.231 0.344,0.344 0.217,0.22 0.438,0.438 0.656,0.656 0.027,0.026 0.067,0.037 0.094,0.063 0.304,0.311 0.599,0.63 0.906,0.938 0.027,0.025 0.067,0.037 0.094,0.063 0.302,0.308 0.601,0.632 0.906,0.938 0.027,0.025 0.067,0.037 0.094,0.063 0.02,0.021 0.042,0.041 0.063,0.063 0.531,0.542 1.052,1.093 1.594,1.625 0.239,0.24 0.478,0.481 0.719,0.719 0.166,0.168 0.333,0.333 0.5,0.5 0.116,0.113 0.227,0.231 0.344,0.344 0.217,0.22 0.438,0.438 0.656,0.656 0.027,0.026 0.067,0.037 0.094,0.063 0.041,0.043 0.084,0.082 0.125,0.125 0.263,0.268 0.516,0.547 0.781,0.813 0.027,0.025 0.067,0.037 0.094,0.063 0.304,0.311 0.599,0.63 0.906,0.938 0.027,0.025 0.067,0.037 0.094,0.063 0.531,0.542 1.053,1.093 1.594,1.625 0.094,0.095 0.187,0.187 0.281,0.281 0.037,0.036 0.088,0.058 0.125,0.094 0.046,0.048 0.079,0.108 0.125,0.156 0.413,0.42 0.831,0.836 1.25,1.25 0.166,0.168 0.333,0.333 0.5,0.5 0.116,0.113 0.227,0.231 0.344,0.344 0.217,0.22 0.438,0.438 0.656,0.656 0.027,0.026 0.067,0.037 0.094,0.063 0.304,0.311 0.599,0.63 0.906,0.938 0.027,0.025 0.067,0.037 0.094,0.063 0.449,0.458 0.888,0.924 1.344,1.375 0.435,0.44 0.871,0.879 1.313,1.313 0.239,0.24 0.478,0.481 0.719,0.719 0.166,0.168 0.333,0.333 0.5,0.5 0.116,0.113 0.227,0.231 0.344,0.344 0.217,0.22 0.438,0.438 0.656,0.656 0.027,0.026 0.067,0.037 0.094,0.063 0.304,0.311 0.599,0.63 0.906,0.938 0.027,0.025 0.067,0.037 0.094,0.063 0.449,0.458 0.888,0.924 1.344,1.375 0.435,0.44 0.871,0.879 1.313,1.313 0.239,0.24 0.478,0.481 0.719,0.719 0.166,0.168 0.333,0.333 0.5,0.5 0.116,0.113 0.227,0.231 0.344,0.344 0.217,0.22 0.438,0.438 0.656,0.656 0.027,0.026 0.067,0.037 0.094,0.063 0.041,0.043 0.084,0.082 0.125,0.125 0.263,0.268 0.516,0.547 0.781,0.813 0.027,0.025 0.067,0.037 0.094,0.063 0.304,0.311 0.599,0.63 0.906,0.938 0.027,0.025 0.067,0.037 0.094,0.063 0.567,0.579 1.14,1.151 1.719,1.719 0.026,0.026 0.037,0.067 0.063,0.094 l 0.094,0.094 c 0.069,0.067 0.15,0.121 0.219,0.188 0.056,0.058 0.1,0.129 0.156,0.188 0.372,0.378 0.748,0.752 1.125,1.125 0.166,0.168 0.333,0.333 0.5,0.5 0.116,0.113 0.227,0.231 0.344,0.344 0.217,0.22 0.438,0.438 0.656,0.656 0.027,0.026 0.067,0.037 0.094,0.063 0.242,0.247 0.477,0.502 0.719,0.75 87.78,-15.916 157.33,-84.19 175.16,-171.28 0.002,-0.01 -0.002,-0.021 0,-0.031 -0.228,-0.22 -0.461,-0.435 -0.688,-0.656 -0.016,-0.015 -0.015,-0.047 -0.031,-0.063 -0.011,-0.01 -0.021,-0.021 -0.031,-0.031 -0.302,-0.302 -0.601,-0.607 -0.906,-0.906 l -0.094,-0.094 c -0.654,-0.669 -1.3,-1.346 -1.969,-2 -0.302,-0.302 -0.632,-0.576 -0.938,-0.875 -0.016,-0.015 -0.015,-0.047 -0.031,-0.063 -0.011,-0.01 -0.021,-0.021 -0.031,-0.031 -0.307,-0.307 -0.627,-0.602 -0.938,-0.906 -0.016,-0.016 -0.016,-0.046 -0.031,-0.063 -0.011,-0.01 -0.021,-0.021 -0.031,-0.031 -0.307,-0.307 -0.627,-0.602 -0.938,-0.906 -0.016,-0.015 -0.015,-0.047 -0.031,-0.063 -0.011,-0.01 -0.021,-0.021 -0.031,-0.031 -0.302,-0.302 -0.601,-0.607 -0.906,-0.906 l -0.094,-0.094 c -0.654,-0.669 -1.3,-1.346 -1.969,-2 -0.182,-0.182 -0.379,-0.35 -0.563,-0.531 -0.478,-0.483 -0.951,-0.962 -1.438,-1.438 -0.307,-0.307 -0.627,-0.602 -0.938,-0.906 -0.016,-0.015 -0.015,-0.047 -0.031,-0.063 -0.011,-0.01 -0.021,-0.021 -0.031,-0.031 -0.333,-0.333 -0.663,-0.671 -1,-1 -0.297,-0.297 -0.606,-0.581 -0.906,-0.875 -0.02,-0.021 -0.042,-0.042 -0.063,-0.063 -0.016,-0.015 -0.015,-0.047 -0.031,-0.063 -0.115,-0.115 -0.229,-0.23 -0.344,-0.344 -0.393,-0.399 -0.789,-0.794 -1.188,-1.188 -0.478,-0.483 -0.951,-0.962 -1.438,-1.438 -0.307,-0.307 -0.627,-0.602 -0.938,-0.906 -0.016,-0.015 -0.015,-0.047 -0.031,-0.063 -0.011,-0.01 -0.021,-0.021 -0.031,-0.031 -0.333,-0.333 -0.663,-0.671 -1,-1 -0.333,-0.333 -0.663,-0.671 -1,-1 l -0.219,-0.219 c -0.434,-0.441 -0.872,-0.878 -1.313,-1.313 -0.451,-0.456 -0.917,-0.895 -1.375,-1.344 -0.016,-0.016 -0.016,-0.046 -0.031,-0.063 -0.011,-0.01 -0.021,-0.021 -0.031,-0.031 -0.307,-0.307 -0.627,-0.602 -0.938,-0.906 -0.016,-0.016 -0.016,-0.046 -0.031,-0.063 -0.011,-0.01 -0.021,-0.021 -0.031,-0.031 -0.307,-0.307 -0.627,-0.602 -0.938,-0.906 -0.016,-0.015 -0.015,-0.047 -0.031,-0.063 -0.011,-0.01 -0.021,-0.021 -0.031,-0.031 -0.302,-0.302 -0.601,-0.607 -0.906,-0.906 l -0.094,-0.094 c -0.654,-0.669 -1.3,-1.346 -1.969,-2 -0.182,-0.182 -0.379,-0.35 -0.563,-0.531 -0.478,-0.483 -0.951,-0.962 -1.438,-1.438 -0.307,-0.307 -0.627,-0.602 -0.938,-0.906 -0.016,-0.015 -0.015,-0.047 -0.031,-0.063 -0.011,-0.01 -0.021,-0.021 -0.031,-0.031 -0.302,-0.302 -0.601,-0.607 -0.906,-0.906 l -0.094,-0.094 c -0.654,-0.669 -1.3,-1.346 -1.969,-2 -0.182,-0.182 -0.379,-0.35 -0.563,-0.531 -0.478,-0.483 -0.951,-0.962 -1.438,-1.438 -0.307,-0.307 -0.627,-0.602 -0.938,-0.906 -0.016,-0.015 -0.015,-0.047 -0.031,-0.063 -0.011,-0.01 -0.021,-0.021 -0.031,-0.031 -0.333,-0.333 -0.663,-0.671 -1,-1 -0.333,-0.333 -0.663,-0.671 -1,-1 l -0.219,-0.219 c -0.434,-0.441 -0.872,-0.878 -1.313,-1.313 -0.451,-0.456 -0.917,-0.895 -1.375,-1.344 -0.016,-0.016 -0.016,-0.046 -0.031,-0.063 -0.011,-0.01 -0.021,-0.021 -0.031,-0.031 -0.307,-0.307 -0.627,-0.602 -0.938,-0.906 -0.016,-0.016 -0.016,-0.046 -0.031,-0.063 -0.011,-0.01 -0.021,-0.021 -0.031,-0.031 -0.307,-0.307 -0.627,-0.602 -0.938,-0.906 -0.016,-0.015 -0.015,-0.047 -0.031,-0.063 -0.011,-0.01 -0.021,-0.021 -0.031,-0.031 -0.302,-0.302 -0.601,-0.607 -0.906,-0.906 l -0.094,-0.094 c -0.654,-0.669 -1.3,-1.346 -1.969,-2 -0.302,-0.302 -0.632,-0.576 -0.938,-0.875 -0.016,-0.015 -0.015,-0.047 -0.031,-0.063 -0.011,-0.01 -0.021,-0.021 -0.031,-0.031 -0.307,-0.307 -0.627,-0.602 -0.938,-0.906 -0.016,-0.016 -0.016,-0.046 -0.031,-0.063 -0.011,-0.01 -0.021,-0.021 -0.031,-0.031 -0.307,-0.307 -0.627,-0.602 -0.938,-0.906 -0.016,-0.015 -0.015,-0.047 -0.031,-0.063 -0.011,-0.01 -0.021,-0.021 -0.031,-0.031 -0.302,-0.302 -0.601,-0.607 -0.906,-0.906 l -0.094,-0.094 c -0.654,-0.669 -1.3,-1.346 -1.969,-2 -0.182,-0.182 -0.379,-0.35 -0.563,-0.531 -0.478,-0.483 -0.951,-0.962 -1.438,-1.438 -0.307,-0.307 -0.627,-0.602 -0.938,-0.906 -0.016,-0.015 -0.015,-0.047 -0.031,-0.063 -0.011,-0.01 -0.021,-0.021 -0.031,-0.031 -0.333,-0.333 -0.663,-0.671 -1,-1 -0.297,-0.297 -0.606,-0.581 -0.906,-0.875 -0.02,-0.021 -0.042,-0.042 -0.063,-0.063 -0.016,-0.015 -0.015,-0.047 -0.031,-0.063 -0.115,-0.115 -0.229,-0.23 -0.344,-0.344 -0.393,-0.399 -0.789,-0.794 -1.188,-1.188 -0.478,-0.483 -0.951,-0.962 -1.438,-1.438 -0.307,-0.307 -0.627,-0.602 -0.938,-0.906 -0.016,-0.015 -0.015,-0.047 -0.031,-0.063 -0.011,-0.01 -0.021,-0.021 -0.031,-0.031 -0.333,-0.333 -0.663,-0.671 -1,-1 -0.333,-0.333 -0.663,-0.671 -1,-1 l -0.219,-0.219 c -0.434,-0.441 -0.872,-0.878 -1.313,-1.313 -0.451,-0.456 -0.917,-0.895 -1.375,-1.344 -0.016,-0.016 -0.016,-0.046 -0.031,-0.063 -0.011,-0.01 -0.021,-0.021 -0.031,-0.031 -0.307,-0.307 -0.627,-0.602 -0.938,-0.906 -0.016,-0.016 -0.016,-0.046 -0.031,-0.063 -0.011,-0.01 -0.021,-0.021 -0.031,-0.031 -0.307,-0.307 -0.627,-0.602 -0.938,-0.906 -0.016,-0.015 -0.015,-0.047 -0.031,-0.063 -0.011,-0.01 -0.021,-0.021 -0.031,-0.031 -0.302,-0.302 -0.601,-0.607 -0.906,-0.906 l -0.094,-0.094 c -0.654,-0.669 -1.3,-1.346 -1.969,-2 -0.302,-0.302 -0.632,-0.576 -0.938,-0.875 -0.016,-0.015 -0.015,-0.047 -0.031,-0.063 -0.011,-0.01 -0.021,-0.021 -0.031,-0.031 -0.3,-0.314 -0.634,-0.595 -0.938,-0.906 -0.016,-0.016 -0.016,-0.046 -0.031,-0.063 -0.011,-0.01 -0.021,-0.021 -0.031,-0.031 -0.307,-0.307 -0.627,-0.602 -0.938,-0.906 -0.016,-0.015 -0.015,-0.047 -0.031,-0.063 -0.011,-0.01 -0.021,-0.021 -0.031,-0.031 -0.302,-0.302 -0.601,-0.607 -0.906,-0.906 l -0.094,-0.094 c -0.654,-0.669 -1.3,-1.346 -1.969,-2 -0.182,-0.182 -0.379,-0.35 -0.563,-0.531 -0.478,-0.483 -0.951,-0.962 -1.438,-1.438 -0.307,-0.307 -0.627,-0.602 -0.938,-0.906 -0.016,-0.015 -0.015,-0.047 -0.031,-0.063 -0.011,-0.01 -0.021,-0.021 -0.031,-0.031 -0.333,-0.333 -0.663,-0.671 -1,-1 -0.333,-0.333 -0.663,-0.671 -1,-1 l -0.219,-0.219 c -0.434,-0.441 -0.872,-0.878 -1.313,-1.313 -0.451,-0.456 -0.917,-0.895 -1.375,-1.344 -0.016,-0.016 -0.016,-0.046 -0.031,-0.063 -0.011,-0.01 -0.021,-0.021 -0.031,-0.031 -0.307,-0.307 -0.627,-0.602 -0.938,-0.906 -0.016,-0.016 -0.016,-0.046 -0.031,-0.063 -0.011,-0.01 -0.021,-0.021 -0.031,-0.031 -0.333,-0.333 -0.663,-0.671 -1,-1 -0.333,-0.333 -0.663,-0.671 -1,-1 l -0.219,-0.219 c -0.434,-0.441 -0.872,-0.878 -1.313,-1.313 -0.451,-0.456 -0.917,-0.895 -1.375,-1.344 -0.016,-0.016 -0.016,-0.046 -0.031,-0.063 -0.011,-0.01 -0.021,-0.021 -0.031,-0.031 -0.307,-0.307 -0.627,-0.602 -0.938,-0.906 -0.016,-0.016 -0.016,-0.046 -0.031,-0.063 -0.011,-0.01 -0.021,-0.021 -0.031,-0.031 -0.307,-0.307 -0.627,-0.602 -0.938,-0.906 -0.016,-0.015 -0.015,-0.047 -0.031,-0.063 -0.011,-0.01 -0.021,-0.021 -0.031,-0.031 -0.302,-0.302 -0.601,-0.607 -0.906,-0.906 l -0.094,-0.094 c -0.654,-0.669 -1.3,-1.346 -1.969,-2 -0.182,-0.182 -0.379,-0.35 -0.563,-0.531 -0.478,-0.483 -0.951,-0.962 -1.438,-1.438 -0.307,-0.307 -0.627,-0.602 -0.938,-0.906 -0.016,-0.015 -0.015,-0.047 -0.031,-0.063 -0.011,-0.01 -0.021,-0.021 -0.031,-0.031 -0.214,-0.224 -0.441,-0.434 -0.656,-0.656 -0.115,-0.114 -0.228,-0.23 -0.344,-0.344 -0.293,-0.3 -0.61,-0.578 -0.906,-0.875 -0.02,-0.021 -0.042,-0.042 -0.063,-0.063 -0.016,-0.015 -0.015,-0.047 -0.031,-0.063 -0.115,-0.115 -0.229,-0.23 -0.344,-0.344 -0.393,-0.399 -0.789,-0.794 -1.188,-1.188 -0.478,-0.483 -0.951,-0.962 -1.438,-1.438 -0.307,-0.307 -0.627,-0.602 -0.938,-0.906 -0.016,-0.015 -0.015,-0.047 -0.031,-0.063 -0.011,-0.01 -0.021,-0.021 -0.031,-0.031 -0.333,-0.333 -0.663,-0.671 -1,-1 -0.333,-0.333 -0.663,-0.671 -1,-1 l -0.219,-0.219 c -0.434,-0.441 -0.872,-0.878 -1.313,-1.313 -0.451,-0.456 -0.917,-0.895 -1.375,-1.344 -0.016,-0.016 -0.016,-0.046 -0.031,-0.063 -0.011,-0.01 -0.021,-0.021 -0.031,-0.031 -0.3,-0.314 -0.634,-0.595 -0.938,-0.906 -0.016,-0.016 -0.016,-0.046 -0.031,-0.063 -0.011,-0.01 -0.021,-0.021 -0.031,-0.031 -0.3,-0.314 -0.634,-0.595 -0.938,-0.906 -0.016,-0.015 -0.015,-0.047 -0.031,-0.063 -0.011,-0.01 -0.021,-0.021 -0.031,-0.031 -0.302,-0.302 -0.601,-0.607 -0.906,-0.906 l -0.094,-0.094 c -0.654,-0.669 -1.3,-1.346 -1.969,-2 -0.302,-0.302 -0.632,-0.576 -0.938,-0.875 -0.016,-0.015 -0.015,-0.047 -0.031,-0.063 -0.011,-0.01 -0.021,-0.021 -0.031,-0.031 -0.307,-0.307 -0.627,-0.602 -0.938,-0.906 -0.016,-0.016 -0.016,-0.046 -0.031,-0.063 -0.011,-0.01 -0.021,-0.021 -0.031,-0.031 -0.307,-0.307 -0.627,-0.602 -0.938,-0.906 -0.016,-0.015 -0.015,-0.047 -0.031,-0.063 -0.011,-0.01 -0.021,-0.021 -0.031,-0.031 -0.302,-0.302 -0.601,-0.607 -0.906,-0.906 l -0.094,-0.094 c -0.654,-0.669 -1.3,-1.346 -1.969,-2 -0.182,-0.182 -0.379,-0.35 -0.563,-0.531 -0.478,-0.483 -0.951,-0.962 -1.438,-1.438 -0.307,-0.307 -0.627,-0.602 -0.938,-0.906 -0.016,-0.015 -0.015,-0.047 -0.031,-0.063 -0.011,-0.01 -0.021,-0.021 -0.031,-0.031 -0.333,-0.333 -0.663,-0.671 -1,-1 -0.333,-0.333 -0.663,-0.671 -1,-1 l -0.219,-0.219 c -0.434,-0.441 -0.872,-0.878 -1.313,-1.313 -0.451,-0.456 -0.917,-0.895 -1.375,-1.344 -0.016,-0.016 -0.016,-0.046 -0.031,-0.063 -0.011,-0.01 -0.021,-0.021 -0.031,-0.031 -0.333,-0.333 -0.663,-0.671 -1,-1 -0.333,-0.333 -0.663,-0.671 -1,-1 -22.17,-22.17 -52.796,-35.875 -86.62,-35.875 -7.143,0 -14.13,0.608 -20.938,1.781 -10.99,-6.81 -23.96,-10.79 -37.86,-10.79"
     id="path8" />
  <g
     style="fill-rule:evenodd"
     id="g10"
     transform="translate(0,-540.36)">
    <path
       style="fill-opacity:0.06700003"
       inkscape:connector-curvature="0"
       d="m 256,541.36 c -140.83,0 -255,114.17 -255,255 0,140.83 114.17,255 255,255 140.83,0 255,-114.17 255,-255 0,-140.83 -114.17,-255 -255,-255 m 8.827,44.931 c 120.9,0 218.9,98 218.9,218.9 0,120.9 -98,218.9 -218.9,218.9 -120.9,0 -218.93,-98 -218.93,-218.9 0,-120.9 98.03,-218.9 218.93,-218.9"
       id="path12" />
    <g
       style="fill-opacity:0.12900002"
       id="g14">
      <path
         inkscape:connector-curvature="0"
         d="M 256,544.79 C 117.06,544.79 4.43,657.42 4.43,796.36 4.43,935.3 117.06,1047.9 256,1047.9 394.94,1047.9 507.57,935.3 507.57,796.36 507.57,657.42 394.94,544.79 256,544.79 m 5.885,38.556 c 120.9,0 218.9,98 218.9,218.9 0,120.9 -98,218.9 -218.9,218.9 -120.9,0 -218.93,-98 -218.93,-218.9 0,-120.9 98.03,-218.9 218.93,-218.9"
         id="path16" />
      <path
         inkscape:connector-curvature="0"
         d="M 256,548.72 C 119.23,548.72 8.36,659.59 8.36,796.36 8.36,933.13 119.23,1044 256,1044 392.77,1044 503.64,933.13 503.64,796.36 503.64,659.59 392.77,548.72 256,548.72 m 2.942,31.691 c 120.9,0 218.9,98 218.9,218.9 0,120.9 -98,218.9 -218.9,218.9 -120.9,0 -218.93,-98 -218.93,-218.9 0,-120.9 98.03,-218.9 218.93,-218.9"
         id="path18" />
    </g>
    <path
       style="fill:#ffffff;stroke:#000000;stroke-width:4.90399981;stroke-opacity:0.31000001"
       inkscape:connector-curvature="0"
       d="M 253.04,548.22 C 117.62,548.22 7.85,658 7.85,793.41 c 0,135.42 109.78,245.19 245.19,245.19 135.42,0 245.19,-109.78 245.19,-245.19 0,-135.42 -109.78,-245.19 -245.19,-245.19 z m 0,26.297 c 120.9,0 218.9,98 218.9,218.9 0,120.9 -98,218.9 -218.9,218.9 -120.9,0 -218.93,-98 -218.93,-218.9 0,-120.9 98.03,-218.9 218.93,-218.9 z"
       id="path20" />
  </g>
  <path
     style="fill:#ffffff"
     d="M 190.03516 120.04688 L 190.0293 120.05078 C 150.7893 120.05078 119 151.84908 119 191.08008 C 119 204.20008 122.56081 216.46381 128.75781 227.00781 C 127.13281 234.96581 126.28906 243.20944 126.28906 251.64844 C 126.28906 319.30844 181.13106 374.14844 248.78906 374.14844 C 256.45206 374.14844 263.9497 373.44756 271.2207 372.10156 C 281.2207 377.47756 292.64687 380.51953 304.79688 380.51953 C 344.03688 380.51953 375.85547 348.72523 375.85547 309.49023 C 375.85547 298.15423 373.19566 287.43955 368.47266 277.93555 C 370.32466 269.46555 371.29492 260.67344 371.29492 251.64844 C 371.29492 183.98844 316.45292 129.14844 248.79492 129.14844 C 241.65192 129.14844 234.6557 129.76155 227.8457 130.93555 C 216.8957 124.03555 203.92516 120.04688 190.03516 120.04688 z M 247.9707 165.44531 C 258.9107 165.44531 268.53255 166.71003 276.56055 169.20703 C 284.64055 171.72103 291.45569 175.11683 296.80469 179.29883 C 302.19169 183.50683 306.18517 188.02122 308.70117 192.69922 C 311.24317 197.42422 312.53516 202.11897 312.53516 206.66797 C 312.53516 211.04497 310.86139 215.02714 307.52539 218.49414 C 304.17039 221.98314 299.91587 223.73633 294.92188 223.73633 C 290.38488 223.73633 286.85267 222.62831 284.38867 220.44531 C 282.09667 218.41831 279.71517 215.28038 277.07617 210.73438 C 274.02117 204.93037 270.31317 200.34314 266.07617 197.11914 C 261.96017 193.98714 255.07514 192.39453 245.61914 192.39453 C 236.83714 192.39453 229.71316 194.15972 224.41016 197.63672 C 219.30016 200.98672 216.81445 204.81814 216.81445 209.36914 C 216.81445 212.16014 217.61577 214.51058 219.25977 216.51758 C 221.00077 218.64458 223.44483 220.51341 226.54883 222.06641 C 229.76883 223.68441 233.07739 224.95895 236.40039 225.87695 C 239.80539 226.82195 245.52052 228.22611 253.35352 230.03711 C 263.26652 232.16511 272.38336 234.54023 280.44336 237.11523 C 288.60036 239.72623 295.64553 242.94555 301.39453 246.68555 C 307.26253 250.50755 311.92175 255.42716 315.21875 261.28516 C 318.52475 267.16516 320.20312 274.41666 320.20312 282.84766 C 320.20312 292.93766 317.30809 302.14041 311.62109 310.19141 C 305.95409 318.21141 297.59209 324.56127 286.74609 329.07227 C 276.00209 333.53727 263.10231 335.79883 248.44531 335.79883 C 230.85131 335.79883 216.1067 332.71347 204.5957 326.60547 C 196.3647 322.15947 189.57578 316.14489 184.42578 308.71289 C 179.22178 301.20689 176.5957 293.7465 176.5957 286.5625 C 176.5957 282.0735 178.30727 278.17914 181.69727 274.99414 C 185.05327 271.83714 189.35928 270.24414 194.48828 270.24414 C 198.69828 270.24414 202.3283 271.51086 205.2793 274.00586 C 208.0993 276.39586 210.50817 279.92519 212.45117 284.49219 C 214.62217 289.46419 216.98047 293.67152 219.48047 296.97852 C 221.88247 300.15952 225.33986 302.83878 229.75586 304.92578 C 234.19586 307.02878 240.18969 308.07617 247.55469 308.07617 C 257.68269 308.07617 265.99719 305.92025 272.24219 301.65625 C 278.34319 297.49125 281.29297 292.49405 281.29297 286.37305 C 281.29297 281.53705 279.75041 277.74177 276.56641 274.75977 C 273.23341 271.64277 268.83309 269.20602 263.49609 267.54102 C 257.92709 265.80602 250.36753 263.92575 241.01953 261.96875 C 228.30653 259.24575 217.51569 256.02995 208.92969 252.37695 C 200.14469 248.63895 193.06467 243.45861 187.88867 236.97461 C 182.62867 230.39261 179.96484 222.13673 179.96484 212.42773 C 179.96484 203.17373 182.74563 194.81709 188.26562 187.62109 C 193.74363 180.47609 201.75955 174.92423 212.06055 171.11523 C 222.22655 167.35523 234.30233 165.44922 247.98633 165.44922 L 247.9707 165.44531 z M 322.75586 314.69336 C 333.19796 314.69336 336.98591 324.57736 337.83984 326.87695 L 343.64062 317.01367 L 355.24219 317.01367 L 341.32031 339.05859 C 341.32031 339.05859 344.80196 360.03642 356.4043 356.46289 C 356.4043 356.46289 351.09374 361.10352 347.12109 361.10352 C 337.83922 361.10352 335.51963 349.50016 334.35938 347.17969 C 331.60035 351.82063 322.30392 361.10352 314.63477 361.10352 L 311.1543 361.10352 C 300.7122 361.10352 296.07031 354.14441 296.07031 344.39844 C 296.07031 336.78034 305.35235 314.69336 322.75586 314.69336 z M 321.89258 320.50781 C 311.30562 320.47796 298.00203 355.2227 309.99414 355.30273 C 318.02296 355.34915 327.918 342.53946 330.87891 336.73828 C 329.13856 325.426 325.94718 320.92695 322.39453 320.53711 C 322.22797 320.51884 322.06063 320.50829 321.89258 320.50781 z "
     id="path68" />
</svg>
