<?xml version="1.0" encoding="UTF-8" standalone="no"?>
<svg xmlns="http://www.w3.org/2000/svg" viewBox="0 0 512 512">
 <g fill-rule="evenodd">
  <path d="m471.95 253.05c0 120.9-98.01 218.91-218.91 218.91s-218.91-98.01-218.91-218.91 98.01-218.91 218.91-218.91 218.91 98.01 218.91 218.91" fill="#BF9E73"/>
  <path d="m256 1c-140.83 0-255 114.17-255 255s114.17 255 255 255 255-114.17 255-255-114.17-255-255-255m8.827 44.931c120.9 0 218.9 98 218.9 218.9s-98 218.9-218.9 218.9-218.93-98-218.93-218.9 98.03-218.9 218.93-218.9" fill-opacity="0.067"/>
  <g fill-opacity="0.129">
   <path d="m256 4.43c-138.94 0-251.57 112.63-251.57 251.57s112.63 251.57 251.57 251.57 251.57-112.63 251.57-251.57-112.63-251.57-251.57-251.57m5.885 38.556c120.9 0 218.9 98 218.9 218.9s-98 218.9-218.9 218.9-218.93-98-218.93-218.9 98.03-218.9 218.93-218.9"/>
   <path d="m256 8.36c-136.77 0-247.64 110.87-247.64 247.64s110.87 247.64 247.64 247.64 247.64-110.87 247.64-247.64-110.87-247.64-247.64-247.64m2.942 31.691c120.9 0 218.9 98 218.9 218.9s-98 218.9-218.9 218.9-218.93-98-218.93-218.9 98.03-218.9 218.93-218.9"/>
  </g>
  <path stroke="#000" stroke-width="4.904" d="m253.04 7.86c-135.42 0-245.19 109.78-245.19 245.19 0 135.42 109.78 245.19 245.19 245.19 135.42 0 245.19-109.78 245.19-245.19 0-135.42-109.78-245.19-245.19-245.19m0 26.297c120.9 0 218.9 98 218.9 218.9s-98 218.9-218.9 218.9-218.93-98-218.93-218.9 98.03-218.9 218.93-218.9z" stroke-opacity="0.31" fill="#fff"/>
 </g>
 <g fill-rule="evenodd">
  <path opacity="0.25" d="m316.68 104.28l-27.02 105.34c-14.916 57.881-27.16 107.48-27.16 110.28 0 6.564-2.568 6.297-26.336-2.057-24.577-8.638-55.31-5.559-78.871 7.682-30.917 17.376-30.21 42.45-12.336 60.33l84.88 84.88c7.627 0.804 15.369 1.225 23.21 1.225 118.76 0 215.42-94.57 218.81-212.51l-155.17-155.17"/>
  <path d="m316.68 104.28l-27.02 105.34c-14.916 57.881-27.16 107.48-27.16 110.28 0 6.564-2.568 6.296-26.336-2.058-24.577-8.638-55.31-5.56-78.871 7.681-61.15 34.37 1.417 98.86 75.853 78.19 9.182-2.55 22.718-10.07 30.18-16.734 13.409-11.981 13.783-13.361 30.451-123.72 9.271-61.39 17.01-112.64 17.15-113.85 0.138-1.207 3.4 3.731 7.27 10.973s14.341 22.06 23.318 32.92c29.331 35.493 35.95 55.915 26.336 81.2-2.758 7.255-2.819 10.574-0.137 8.916 2.34-1.446 6.48-10.156 9.19-19.2 6.835-22.815 0.51-43.42-26.61-86.28-12.222-19.313-24.741-43.732-27.845-54.32l-5.761-19.341" fill="#fff"/>
 </g>
</svg>
