<?xml version="1.0" encoding="UTF-8" standalone="no"?>
<svg
   xmlns:dc="http://purl.org/dc/elements/1.1/"
   xmlns:cc="http://creativecommons.org/ns#"
   xmlns:rdf="http://www.w3.org/1999/02/22-rdf-syntax-ns#"
   xmlns:svg="http://www.w3.org/2000/svg"
   xmlns="http://www.w3.org/2000/svg"
   xmlns:sodipodi="http://sodipodi.sourceforge.net/DTD/sodipodi-0.dtd"
   xmlns:inkscape="http://www.inkscape.org/namespaces/inkscape"
   height="512"
   viewBox="0 0 512 512"
   width="512"
   version="1.1"
   id="svg2"
   inkscape:version="0.91 r13725"
   sodipodi:docname="sonic-pi.svg">
  <defs
     id="defs17" />
  <sodipodi:namedview
     pagecolor="#ffffff"
     bordercolor="#666666"
     borderopacity="1"
     objecttolerance="10"
     gridtolerance="10"
     guidetolerance="10"
     inkscape:pageopacity="0"
     inkscape:pageshadow="2"
     inkscape:window-width="1680"
     inkscape:window-height="991"
     id="namedview15"
     showgrid="false"
     inkscape:zoom="0.76432799"
     inkscape:cx="-373.37518"
     inkscape:cy="540.60823"
     inkscape:window-x="0"
     inkscape:window-y="0"
     inkscape:window-maximized="1"
     inkscape:current-layer="svg2" />
  <metadata
     id="metadata28">
    <rdf:RDF>
      <cc:Work
         rdf:about="">
        <dc:format>image/svg+xml</dc:format>
        <dc:type
           rdf:resource="http://purl.org/dc/dcmitype/StillImage" />
        <dc:title />
      </cc:Work>
    </rdf:RDF>
  </metadata>
  <path
     style="fill:#BF9E73;fill-rule:evenodd;fill-opacity:1"
     inkscape:connector-curvature="0"
     d="m 471.95,253.05 c 0,120.9 -98.01,218.9 -218.9,218.9 -120.9,0 -218.9,-98.01 -218.9,-218.9 0,-120.9 98.01,-218.9 218.9,-218.9 120.9,0 218.9,98.01 218.9,218.9"
     id="path6" />
  <path
     style="fill-opacity:0.06700003;fill-rule:evenodd"
     inkscape:connector-curvature="0"
     d="M 256,1 C 115.17,1 1,115.17 1,256 1,396.83 115.17,511 256,511 396.83,511 511,396.83 511,256 511,115.17 396.83,1 256,1 m 8.827,44.931 c 120.9,0 218.9,98 218.9,218.9 0,120.9 -98,218.9 -218.9,218.9 -120.9,0 -218.93,-98 -218.93,-218.9 0,-120.9 98.03,-218.9 218.93,-218.9"
     id="path8" />
  <g
     style="fill-opacity:0.12900002;fill-rule:evenodd"
     id="g10">
    <path
       inkscape:connector-curvature="0"
       d="m 256,4.433 c -138.94,0 -251.57,112.63 -251.57,251.57 0,138.94 112.63,251.57 251.57,251.57 138.94,0 251.57,-112.63 251.57,-251.57 C 507.57,117.063 394.94,4.433 256,4.433 m 5.885,38.556 c 120.9,0 218.9,98 218.9,218.9 0,120.9 -98,218.9 -218.9,218.9 -120.9,0 -218.93,-98 -218.93,-218.9 0,-120.9 98.03,-218.9 218.93,-218.9"
       id="path12" />
    <path
       inkscape:connector-curvature="0"
       d="m 256,8.356 c -136.77,0 -247.64,110.87 -247.64,247.64 0,136.77 110.87,247.64 247.64,247.64 136.77,0 247.64,-110.87 247.64,-247.64 C 503.64,119.226 392.77,8.356 256,8.356 m 2.942,31.691 c 120.9,0 218.9,98 218.9,218.9 0,120.9 -98,218.9 -218.9,218.9 -120.9,0 -218.93,-98 -218.93,-218.9 0,-120.9 98.03,-218.9 218.93,-218.9"
       id="path14" />
  </g>
  <path
     style="fill:#ffffff;fill-rule:evenodd;stroke:#000000;stroke-width:4.90399981;stroke-opacity:0.31000001"
     inkscape:connector-curvature="0"
     d="m 253.04,7.859 c -135.42,0 -245.19,109.78 -245.19,245.19 0,135.42 109.78,245.19 245.19,245.19 135.42,0 245.19,-109.78 245.19,-245.19 0,-135.42 -109.78,-245.19 -245.19,-245.19 z m 0,26.297 c 120.9,0 218.9,98 218.9,218.9 0,120.9 -98,218.9 -218.9,218.9 -120.9,0 -218.93,-98 -218.93,-218.9 0,-120.9 98.03,-218.9 218.93,-218.9 z"
     id="path16" />
  <path
     style="fill:#000000"
     d=""
     id="path4139"
     inkscape:connector-curvature="0" />
  <path
     inkscape:connector-curvature="0"
     style="fill:#ffffff;fill-opacity:1;stroke:none"
     d="m 285.88958,143.5365 c -45.62369,0.26894 -91.2494,-0.0506 -136.87296,0.12103 -12.39713,0.0996 -14.98838,0.44491 -16.93061,0.75953 -11.71216,1.89721 -16.55221,4.1647 -23.82131,11.19592 -8.393724,8.11902 -14.129329,16.85152 -19.212578,29.23057 -1.638388,3.98989 -4.401496,12.00724 -5.672295,16.44505 l -0.548927,1.92126 6.358447,-0.0113 2.321525,-3.76244 c 5.50895,-8.95529 12.097408,-16.51689 17.371378,-19.94448 6.58116,-4.27713 15.36885,-6.28058 27.65239,-6.28984 l 4.15128,0 c -0.95109,10.90686 -1.68053,21.83329 -2.47018,32.75287 -2.45292,34.1225 -2.4896,34.55528 -3.86539,43.36555 -4.00877,25.67122 -7.53694,35.40019 -18.22907,50.27292 -9.63513,13.40244 -11.28904,16.53519 -12.08792,22.90641 -1.10952,8.84858 3.54366,16.23931 12.08792,19.21258 3.98457,1.30989 8.61883,1.33551 12.45386,-0.44599 l 0,0.0113 c 4.41136,-2.17168 9.55177,-8.17647 12.7512,-14.88978 5.84977,-12.27436 12.36822,-46.23459 16.83389,-87.68025 0.37842,-3.51218 4.76883,-63.80609 4.76883,-65.4303 l 51.32504,-0.0755 c -3.37003,23.48951 -5.41684,47.17116 -7.43344,70.81208 -0.62744,8.22112 -0.85747,35.39664 -0.36596,42.8738 1.37301,20.88686 4.75332,33.89857 10.94431,42.0847 5.3723,7.1035 11.78872,11.46293 19.32695,13.14002 3.38111,0.75222 10.41645,0.55716 13.84907,-0.38882 5.78427,-1.59406 12.00023,-5.43716 17.2227,-10.64696 6.78352,-6.76715 11.15601,-15.28058 14.44375,-28.14416 1.26768,-4.95988 3.28215,-15.66981 3.28215,-17.4171 l -6.36988,0.12578 c -1.09198,5.30384 -1.52134,6.95576 -2.36727,9.03449 -2.41679,5.93873 -7.10087,10.35671 -13.22009,12.49959 -7.58668,2.26511 -15.65257,1.12015 -22.3918,-2.85898 -6.54971,-4.27847 -10.55953,-11.46248 -12.22515,-21.91149 -1.74516,-36.4628 2.4774,-73.03888 7.53637,-109.11147 l 49.40377,-0.0915 0,-29.66514 z"
     id="rect4886"
     sodipodi:nodetypes="ccsssccccscccssscccsscccssssssccscccccc" />
  <path
     style="opacity:1;fill:#ffffff;fill-opacity:1;stroke:none;stroke-width:10;stroke-linejoin:round;stroke-miterlimit:4;stroke-dasharray:none;stroke-opacity:1"
     d="m 311.06223,149.07386 a 59.208656,114.20357 0 0 1 25.35743,93.64313 59.208656,114.20357 0 0 1 -24.63282,92.53626 38.393112,95.752419 0 0 0 29.20313,-92.86987 38.393112,95.752419 0 0 0 -29.92774,-93.30952 z"
     id="path4149"
     inkscape:connector-curvature="0" />
  <path
     style="opacity:1;fill:#ffffff;fill-opacity:1;stroke:none;stroke-width:10;stroke-linejoin:round;stroke-miterlimit:4;stroke-dasharray:none;stroke-opacity:1"
     d="M 350.38975,126.16949 A 59.208656,147.50911 0 0 1 375.74718,247.12205 59.208656,147.50911 0 0 1 351.11436,366.64494 38.393112,123.67699 0 0 0 380.31749,246.69115 38.393112,123.67699 0 0 0 350.38975,126.16949 Z"
     id="path4149-3"
     inkscape:connector-curvature="0" />
  <path
     style="opacity:1;fill:#ffffff;fill-opacity:1;stroke:none;stroke-width:10;stroke-linejoin:round;stroke-miterlimit:4;stroke-dasharray:none;stroke-opacity:1"
     d="M 387.02325,101.31105 A 59.208656,179.4102 0 0 1 412.38068,248.42143 59.208656,179.4102 0 0 1 387.74786,393.79296 38.393112,150.42402 0 0 0 416.95099,247.89734 38.393112,150.42402 0 0 0 387.02325,101.31105 Z"
     id="path4149-3-6"
     inkscape:connector-curvature="0" />
</svg>
