<?xml version="1.0" encoding="UTF-8" standalone="no"?>
<svg
   xmlns:dc="http://purl.org/dc/elements/1.1/"
   xmlns:cc="http://creativecommons.org/ns#"
   xmlns:rdf="http://www.w3.org/1999/02/22-rdf-syntax-ns#"
   xmlns:svg="http://www.w3.org/2000/svg"
   xmlns="http://www.w3.org/2000/svg"
   xmlns:sodipodi="http://sodipodi.sourceforge.net/DTD/sodipodi-0.dtd"
   xmlns:inkscape="http://www.inkscape.org/namespaces/inkscape"
   viewBox="0 0 512 512"
   id="svg2"
   version="1.1"
   inkscape:version="0.91 r13725"
   sodipodi:docname="soundkonverter.svg">
  <metadata
     id="metadata31">
    <rdf:RDF>
      <cc:Work
         rdf:about="">
        <dc:format>image/svg+xml</dc:format>
        <dc:type
           rdf:resource="http://purl.org/dc/dcmitype/StillImage" />
      </cc:Work>
    </rdf:RDF>
  </metadata>
  <sodipodi:namedview
     pagecolor="#ffffff"
     bordercolor="#666666"
     borderopacity="1"
     objecttolerance="10"
     gridtolerance="10"
     guidetolerance="10"
     inkscape:pageopacity="0"
     inkscape:pageshadow="2"
     inkscape:window-width="1680"
     inkscape:window-height="1024"
     id="namedview29"
     showgrid="false"
     inkscape:zoom="0.4609375"
     inkscape:cx="-322.16949"
     inkscape:cy="256"
     inkscape:window-x="0"
     inkscape:window-y="0"
     inkscape:window-maximized="0"
     inkscape:current-layer="svg2" />
  <defs
     id="defs4">
    <linearGradient
       id="0"
       y2="107.7"
       gradientUnits="userSpaceOnUse"
       x2="500.78"
       y1="383.22"
       x1="-17.301">
      <stop
         stop-color="#cd1d31"
         id="stop7" />
      <stop
         stop-color="#e34547"
         offset="1"
         id="stop9" />
    </linearGradient>
  </defs>
  <path
     inkscape:connector-curvature="0"
     style="fill:#BF9E73;fill-rule:evenodd;fill-opacity:1"
     id="path13"
     d="m 470.41,253.05 c 0,120.9 -98.01,218.91 -218.91,218.91 -120.9,0 -218.91,-98.01 -218.91,-218.91 0,-120.9 98.01,-218.91 218.91,-218.91 120.9,0 218.91,98.01 218.91,218.91" />
  <path
     style="fill-opacity:0.06700003;fill-rule:evenodd"
     inkscape:connector-curvature="0"
     id="path15"
     d="M 256,1 C 115.17,1 1,115.17 1,256 1,396.83 115.17,511 256,511 396.83,511 511,396.83 511,256 511,115.17 396.83,1 256,1 m 8.827,44.931 c 120.9,0 218.9,98 218.9,218.9 0,120.9 -98,218.9 -218.9,218.9 -120.9,0 -218.93,-98 -218.93,-218.9 0,-120.9 98.03,-218.9 218.93,-218.9" />
  <g
     style="fill-opacity:0.12900002;fill-rule:evenodd"
     id="g17">
    <path
       inkscape:connector-curvature="0"
       id="path19"
       d="M 256,4.43 C 117.06,4.43 4.43,117.06 4.43,256 4.43,394.94 117.06,507.57 256,507.57 394.94,507.57 507.57,394.94 507.57,256 507.57,117.06 394.94,4.43 256,4.43 m 5.885,38.556 c 120.9,0 218.9,98 218.9,218.9 0,120.9 -98,218.9 -218.9,218.9 -120.9,0 -218.93,-98 -218.93,-218.9 0,-120.9 98.03,-218.9 218.93,-218.9" />
    <path
       inkscape:connector-curvature="0"
       id="path21"
       d="M 256,8.36 C 119.23,8.36 8.36,119.23 8.36,256 8.36,392.77 119.23,503.64 256,503.64 392.77,503.64 503.64,392.77 503.64,256 503.64,119.23 392.77,8.36 256,8.36 m 2.942,31.691 c 120.9,0 218.9,98 218.9,218.9 0,120.9 -98,218.9 -218.9,218.9 -120.9,0 -218.93,-98 -218.93,-218.9 0,-120.9 98.03,-218.9 218.93,-218.9" />
  </g>
  <path
     style="fill:#ffffff;fill-rule:evenodd;stroke:#000000;stroke-width:4.90399981;stroke-opacity:0.31000001"
     inkscape:connector-curvature="0"
     id="path23"
     d="M 253.04,7.86 C 117.62,7.86 7.85,117.64 7.85,253.05 c 0,135.42 109.78,245.19 245.19,245.19 135.42,0 245.19,-109.78 245.19,-245.19 C 498.23,117.63 388.45,7.86 253.04,7.86 Z m 0,26.297 c 120.9,0 218.9,98 218.9,218.9 0,120.9 -98,218.9 -218.9,218.9 -120.9,0 -218.93,-98 -218.93,-218.9 0,-120.9 98.03,-218.9 218.93,-218.9 z" />
  <path
     opacity="0.25"
     d="m163.81 124.2c-3.067 0.065-5.487 1.592-7.03 4.5-1.307 2.461-1.066 3.506 14.406 61.25 8.658 32.31 15.583 58.788 15.375 58.844s-3.314-0.409-6.906-1.063c-10.361-1.885-19.382-1.106-31.16 2.688-12.351 3.979-18.2 7.261-27.563 15.438-12.627 11.02-19.536 24.644-19.375 38.19 0.101 8.449 3.491 15.892 9.23 21.631l146.21 146.21c117.55-2.9 212.09-98.46 213.38-216.4l-69.18-69.18c-7.8-7.8-19.935-12.45-34.05-12.199-0.79 0.014-1.604 0.049-2.406 0.094-9.1 0.511-24.778 5.412-32.938 10.281-16.979 10.132-28.29 24.759-30.842 39.697l-59.52-59.52c-3.2-3.2-6.976-6.095-11.205-8.557-9.513-5.537-19.692-9.03-39.813-13.719l-5.752-1.338-15.08-15.08c-0.899-0.899-1.982-1.284-3.57-1.578-0.774-0.143-1.511-0.202-2.219-0.188"
     id="path25" />
  <path
     d="m163.81 124.2c-3.067 0.065-5.487 1.592-7.03 4.5-1.307 2.461-1.066 3.506 14.406 61.25 8.658 32.31 15.583 58.788 15.375 58.844s-3.314-0.409-6.906-1.063c-10.361-1.885-19.382-1.106-31.16 2.688-12.351 3.979-18.2 7.261-27.563 15.438-12.627 11.02-19.536 24.644-19.375 38.19 0.245 20.583 20.02 35.19 45.688 33.75 9.1-0.511 24.778-5.412 32.938-10.281 18.04-10.765 29.684-26.605 31.22-42.5 0.521-5.398 0.082-7.316-13.406-57.656l-13.969-52.06 5-0.656c21.888-2.79 45.43 5.663 60.875 21.844l3.75 3.938 0.281-3.375c0.452-5.349-2.121-17.1-4.906-22.313-3.863-7.233-10.444-13.772-18.781-18.625-9.513-5.537-19.692-9.03-39.813-13.719l-15.719-3.656-1.563-4.875c-2.416-7.539-3.324-8.765-7.125-9.469-0.774-0.143-1.511-0.202-2.219-0.188m203.34 49.906c-0.79 0.014-1.604 0.049-2.406 0.094-9.1 0.511-24.778 5.412-32.938 10.281-18.04 10.765-29.684 26.605-31.22 42.5-0.521 5.398-0.082 7.316 13.406 57.656l13.969 52.06-5 0.656c-21.888 2.79-45.43-5.663-60.875-21.844l-3.75-3.938-0.281 3.375c-0.452 5.349 2.121 17.1 4.906 22.313 3.863 7.233 10.444 13.772 18.781 18.625 9.513 5.537 19.692 9.03 39.813 13.719l15.719 3.656 1.563 4.875c2.416 7.539 3.324 8.765 7.125 9.469 4.129 0.765 7.349-0.733 9.25-4.313 1.307-2.461 1.066-3.506-14.406-61.25-8.658-32.31-15.583-58.788-15.375-58.844s3.314 0.409 6.906 1.063c10.361 1.885 19.382 1.106 31.16-2.688 12.351-3.979 18.2-7.261 27.563-15.438 12.627-11.02 19.536-24.644 19.375-38.19-0.237-19.939-18.782-34.28-43.28-33.844"
     fill="#fff"
     id="path27" />
</svg>
