<?xml version="1.0" encoding="UTF-8" standalone="no"?>
<svg xmlns="http://www.w3.org/2000/svg" viewBox="0 0 512 512">
 <g fill-rule="evenodd">
  <path d="m471.95 253.05c0 120.9-98.01 218.91-218.91 218.91s-218.91-98.01-218.91-218.91 98.01-218.91 218.91-218.91 218.91 98.01 218.91 218.91" fill="#BF9E73"/>
  <path d="m256 1c-140.83 0-255 114.17-255 255s114.17 255 255 255 255-114.17 255-255-114.17-255-255-255m8.827 44.931c120.9 0 218.9 98 218.9 218.9s-98 218.9-218.9 218.9-218.93-98-218.93-218.9 98.03-218.9 218.93-218.9" fill-opacity="0.067"/>
  <g fill-opacity="0.129">
   <path d="m256 4.43c-138.94 0-251.57 112.63-251.57 251.57s112.63 251.57 251.57 251.57 251.57-112.63 251.57-251.57-112.63-251.57-251.57-251.57m5.885 38.556c120.9 0 218.9 98 218.9 218.9s-98 218.9-218.9 218.9-218.93-98-218.93-218.9 98.03-218.9 218.93-218.9"/>
   <path d="m256 8.36c-136.77 0-247.64 110.87-247.64 247.64s110.87 247.64 247.64 247.64 247.64-110.87 247.64-247.64-110.87-247.64-247.64-247.64m2.942 31.691c120.9 0 218.9 98 218.9 218.9s-98 218.9-218.9 218.9-218.93-98-218.93-218.9 98.03-218.9 218.93-218.9"/>
  </g>
  <path stroke="#000" stroke-width="4.904" d="m253.04 7.86c-135.42 0-245.19 109.78-245.19 245.19 0 135.42 109.78 245.19 245.19 245.19 135.42 0 245.19-109.78 245.19-245.19 0-135.42-109.78-245.19-245.19-245.19zm0 26.297c120.9 0 218.9 98 218.9 218.9s-98 218.9-218.9 218.9-218.93-98-218.93-218.9 98.03-218.9 218.93-218.9z" stroke-opacity="0.31" fill="#fff"/>
 </g>
 <path opacity="0.25" d="m250.94 97.19l44.844 44.844c0.001 0.005 0.002 0.009 0.004 0.014l-44.824-44.824c-15.13 4.174-28.312 16.353-31.658 32.576-6.81 19.716-12.48 39.822-19.03 59.63-24.868 0.57-49.872-1.213-74.65 1.033-25.663 5.884-38.39 43.88-19.14 63.13l56.1 56.1c-6.545 21.539-14.431 42.754-18.607 64.881-0.635 10.583 3.956 20.31 11.141 27.494l67.832 67.832c9.839 1.353 19.881 2.066 30.09 2.066 115.64 0 210.31-89.66 218.34-203.25l-68.57-68.57c-1.456-1.456-3.03-2.794-4.713-3.992-10.565-7.15-22.794-7.197-35.04-6.816l-80.69-80.69c-7.02-7.02-20.528-11.451-31.43-11.451"/>
 <path d="m250.96 97.22c-15.13 4.174-28.312 16.354-31.658 32.577-6.81 19.716-12.481 39.821-19.03 59.63-24.868 0.57-49.873-1.212-74.65 1.034-26.552 6.088-39.26 46.549-17.03 65.06 18.09 15.815 38.03 29.24 56.957 43.991-6.939 25.08-16.746 49.46-21.579 75.06-1.775 29.576 37.27 52.45 59.65 31.905 17.439-12.968 34.789-26.06 52.21-39.06 20.746 14.719 40.05 31.767 61.901 44.728 24.821 11.2 56.56-14.7 49.23-42.36-5.836-23.729-14-46.818-20.855-70.28 19.893-15.691 41.19-29.613 60.02-46.654 15.01-16.78 9.437-44.28-8.03-56.705-15.673-10.608-35.01-5.602-52.63-6.719h-34.776c-8.171-24.493-14.861-49.618-23.976-73.71-2.889-10.98-21.554-18.528-35.776-18.528zm4.889 65.877c6.695 19.845 10.547 40.96 19.248 59.93 11.958 15.814 32.447 11.82 49.49 12.265h31.949c-17.12 13.215-35.26 25.05-51.644 39.26-1.778 1.235-4.776 14.155-3.255 6.02-7.784 13.57 1.638 28.31 4.79 41.914 3.51 11.442 7.02 22.885 10.531 34.33-16.75-11.869-31.938-26.616-49.784-36.502-12.779-3.953-26.983-0.823-36.494 8.904-11.979 9.199-23.959 18.399-35.938 27.6 5.619-20.411 13.708-40.31 17.635-61.08 0.464-13.473-7.133-25.754-18.622-31.806-12.865-9.543-25.73-19.09-38.596-28.629 20.916-0.538 42.01 1.123 62.81-0.929 12.597-3 20.603-14.672 23.02-27.13 4.953-14.712 9.909-29.425 14.861-44.14" fill="#fff"/>
</svg>
