<?xml version="1.0" encoding="UTF-8" standalone="no"?>
<svg xmlns="http://www.w3.org/2000/svg" viewBox="0 0 512 512">
 <g fill-rule="evenodd">
  <path d="m471.95 253.05c0 120.9-98.01 218.91-218.91 218.91s-218.91-98.01-218.91-218.91 98.01-218.91 218.91-218.91 218.91 98.01 218.91 218.91" fill="#BF9E73"/>
  <path d="m256 1c-140.83 0-255 114.17-255 255s114.17 255 255 255 255-114.17 255-255-114.17-255-255-255m8.827 44.931c120.9 0 218.9 98 218.9 218.9s-98 218.9-218.9 218.9-218.93-98-218.93-218.9 98.03-218.9 218.93-218.9" fill-opacity="0.067"/>
  <g fill-opacity="0.129">
   <path d="m256 4.43c-138.94 0-251.57 112.63-251.57 251.57s112.63 251.57 251.57 251.57 251.57-112.63 251.57-251.57-112.63-251.57-251.57-251.57m5.885 38.556c120.9 0 218.9 98 218.9 218.9s-98 218.9-218.9 218.9-218.93-98-218.93-218.9 98.03-218.9 218.93-218.9"/>
   <path d="m256 8.36c-136.77 0-247.64 110.87-247.64 247.64s110.87 247.64 247.64 247.64 247.64-110.87 247.64-247.64-110.87-247.64-247.64-247.64m2.942 31.691c120.9 0 218.9 98 218.9 218.9s-98 218.9-218.9 218.9-218.93-98-218.93-218.9 98.03-218.9 218.93-218.9"/>
  </g>
  <path stroke="#000" stroke-width="4.904" d="m253.04 7.86c-135.42 0-245.19 109.78-245.19 245.19 0 135.42 109.78 245.19 245.19 245.19 135.42 0 245.19-109.78 245.19-245.19 0-135.42-109.78-245.19-245.19-245.19m0 26.297c120.9 0 218.9 98 218.9 218.9s-98 218.9-218.9 218.9-218.93-98-218.93-218.9 98.03-218.9 218.93-218.9z" stroke-opacity="0.31" fill="#fff"/>
 </g>
 <path opacity="0.25" d="m237.45 116.73l-54.36 14.563 12.531 46.758-33.459-33.459-39.793 39.791 42.09 42.09-55.09-14.463-12.596 47.957 27.877 27.877-23.445 7.549 15.23 47.19 129.24 129.24c2.442 0.081 4.892 0.137 7.354 0.137 116.28 0 211.37-90.67 218.46-205.16l-118.87-118.87-3.4 3.398-19.2-19.2-54.36-14.564-7.902 29.492-30.32-30.32"/>
 <path d="m237.45 116.73l-54.36 14.564 12.531 46.757-33.46-33.46-39.792 39.792 42.09 42.09-55.09-14.464-12.597 47.957 63.02 16.563-58.59 18.863 15.23 47.19 107.81-34.726v87.41h56.29v-78.483c0-9.707-0.016-5.309-0.016-7.909 40.23 9.01 79.974 20.37 119.86 30.838l12.597-47.99-76.38-20.06 78.62-25.328-15.197-47.22-28.03 9.03 20.429-20.429-39.792-39.792-36.659 36.626 14.06-52.42-54.36-14.564-18.996 70.886z" fill="#fff"/>
</svg>
