<?xml version="1.0" encoding="UTF-8" standalone="no"?>
<svg xmlns="http://www.w3.org/2000/svg" height="512" viewBox="0 0 512 512" width="512" version="1.1">
 <metadata id="metadata82"/>
 <g id="g4" transform="translate(0,-540.36)">
  <path id="path6" d="m471.95 793.41c0 120.9-98.01 218.9-218.9 218.9-120.9 0-218.9-98.01-218.9-218.9 0-120.9 98.01-218.9 218.9-218.9 120.9 0 218.9 98.01 218.9 218.9" fill-rule="evenodd" fill="#BF9E73"/>
  <path id="path8" d="m257.28 151.13c-55.11 0.038-110.58 10.528-167.75 31.09-7.05 2.23-12.313 8.143-13.719 15.406-1.321 6.824 0.95 13.813 5.969 18.531 0.373 0.404 0.778 0.781 1.188 1.156 0.329 0.347 0.675 0.706 1.031 1.031 0.253 0.266 0.512 0.528 0.781 0.781 0.318 0.344 0.656 0.676 1 1 0.309 0.334 0.604 0.654 0.938 0.969 0.328 0.356 0.676 0.697 1.031 1.031 0.319 0.345 0.655 0.676 1 1 0.383 0.415 0.798 0.803 1.219 1.188 0.253 0.266 0.512 0.528 0.781 0.781 0.318 0.344 0.656 0.676 1 1 0.363 0.392 0.729 0.76 1.125 1.125 0.281 0.299 0.543 0.592 0.844 0.875 0.319 0.345 0.655 0.676 1 1 0.373 0.404 0.778 0.781 1.188 1.156 0.329 0.347 0.675 0.706 1.031 1.031 0.253 0.266 0.512 0.528 0.781 0.781 0.309 0.334 0.636 0.654 0.969 0.969 0.328 0.356 0.645 0.697 1 1.031 0.319 0.345 0.655 0.676 1 1 0.373 0.404 0.778 0.781 1.188 1.156 0.329 0.347 0.675 0.706 1.031 1.031 0.253 0.266 0.512 0.528 0.781 0.781 0.309 0.334 0.636 0.654 0.969 0.969 0.318 0.345 0.625 0.675 0.969 1 0.328 0.356 0.676 0.697 1.031 1.031 0.373 0.404 0.778 0.781 1.188 1.156 0.329 0.347 0.675 0.706 1.031 1.031 0.253 0.266 0.512 0.528 0.781 0.781 0.318 0.344 0.656 0.676 1 1 0.309 0.334 0.604 0.654 0.938 0.969 0.328 0.356 0.676 0.697 1.031 1.031 0.319 0.345 0.655 0.676 1 1 0.373 0.404 0.778 0.781 1.188 1.156 0.329 0.347 0.675 0.706 1.031 1.031 0.253 0.266 0.512 0.528 0.781 0.781 0.363 0.392 0.729 0.76 1.125 1.125 0.281 0.299 0.543 0.592 0.844 0.875 0.319 0.345 0.655 0.676 1 1 0.373 0.404 0.778 0.781 1.188 1.156 0.329 0.347 0.675 0.706 1.031 1.031 0.253 0.266 0.512 0.528 0.781 0.781 0.309 0.334 0.636 0.654 0.969 0.969 0.318 0.345 0.625 0.675 0.969 1 0.288 0.313 0.597 0.61 0.906 0.906-4.981 1.783-9.96 3.659-14.969 5.625-4.552 1.701-7.845 5.73-8.594 10.531-0.718 4.607 1.018 9.227 4.531 12.25 0.312 0.329 0.621 0.638 0.969 0.938 0.28 0.296 0.565 0.603 0.875 0.875 0.185 0.199 0.396 0.374 0.594 0.563 0.012 0.009 0.02 0.022 0.031 0.031 0.117 0.111 0.253 0.206 0.375 0.313 0.172 0.185 0.348 0.355 0.531 0.531 0.01 0.046 0.024 0.095 0.063 0.125 0.082 0.065 0.167 0.125 0.25 0.188 0.043 0.038 0.082 0.087 0.125 0.125 0.166 0.178 0.354 0.33 0.531 0.5 0.008 0.07 0.036 0.142 0.094 0.188 0.129 0.102 0.274 0.185 0.406 0.281 0.152 0.161 0.308 0.315 0.469 0.469 0.006 0.095 0.049 0.19 0.125 0.25 0.159 0.125 0.305 0.227 0.469 0.344 0.118 0.123 0.252 0.225 0.375 0.344 0.009 0.111 0.035 0.21 0.125 0.281 0.272 0.214 0.558 0.435 0.844 0.625 0.005 0.005-0.005 0.026 0 0.031 0.006 0.135 0.047 0.258 0.156 0.344 0.261 0.205 0.54 0.411 0.813 0.594 0.004 0.159 0.06 0.306 0.188 0.406 0.248 0.195 0.522 0.387 0.781 0.563 0.01 0.171 0.081 0.329 0.219 0.438 0.257 0.202 0.512 0.382 0.781 0.563 0.024 0.169 0.081 0.329 0.219 0.438 0.238 0.188 0.47 0.363 0.719 0.531 0.029 0.181 0.133 0.352 0.281 0.469 0.226 0.178 0.453 0.339 0.688 0.5 0.036 0.188 0.157 0.378 0.313 0.5 0.224 0.177 0.454 0.34 0.688 0.5 0.044 0.19 0.123 0.344 0.281 0.469 0.223 0.176 0.455 0.341 0.688 0.5 0.05 0.199 0.146 0.369 0.313 0.5 0.211 0.166 0.437 0.318 0.656 0.469 0.055 0.208 0.169 0.394 0.344 0.531 0.203 0.16 0.414 0.323 0.625 0.469 0.064 0.202 0.203 0.396 0.375 0.531 0.208 0.164 0.409 0.32 0.625 0.469 0.071 0.197 0.205 0.397 0.375 0.531 0.207 0.163 0.41 0.29 0.625 0.438 0.076 0.208 0.195 0.421 0.375 0.563 0.194 0.153 0.393 0.267 0.594 0.406 0.08 0.218 0.186 0.414 0.375 0.563 0.188 0.148 0.399 0.302 0.594 0.438 0.086 0.217 0.216 0.413 0.406 0.563 0.192 0.151 0.394 0.299 0.594 0.438 0.091 0.212 0.218 0.415 0.406 0.563 0.172 0.136 0.353 0.25 0.531 0.375 0.094 0.239 0.26 0.46 0.469 0.625 0.165 0.13 0.33 0.255 0.5 0.375 0.099 0.24 0.288 0.458 0.5 0.625 0.188 0.148 0.368 0.271 0.563 0.406 0.105 0.22 0.24 0.438 0.438 0.594 0.18 0.142 0.345 0.276 0.531 0.406 0.109 0.22 0.238 0.405 0.438 0.563 0.169 0.133 0.357 0.253 0.531 0.375 0.113 0.242 0.252 0.454 0.469 0.625 0.156 0.123 0.339 0.23 0.5 0.344 0.118 0.251 0.274 0.479 0.5 0.656 0.165 0.13 0.329 0.255 0.5 0.375 0.121 0.239 0.282 0.453 0.5 0.625 0.153 0.12 0.311 0.232 0.469 0.344 0.126 0.248 0.305 0.478 0.531 0.656 0.163 0.129 0.331 0.256 0.5 0.375 0.128 0.23 0.286 0.457 0.5 0.625 0.143 0.113 0.29 0.207 0.438 0.313 0.134 0.258 0.295 0.47 0.531 0.656 0.162 0.127 0.333 0.258 0.5 0.375 0.135 0.238 0.278 0.45 0.5 0.625 0.149 0.118 0.315 0.235 0.469 0.344 0.139 0.246 0.301 0.475 0.531 0.656 0.148 0.117 0.316 0.235 0.469 0.344 0.142 0.242 0.304 0.477 0.531 0.656 0.145 0.114 0.289 0.207 0.438 0.313 0.147 0.255 0.324 0.5 0.563 0.688 0.137 0.108 0.265 0.212 0.406 0.313 0.15 0.254 0.354 0.499 0.594 0.688 0.143 0.112 0.29 0.208 0.438 0.313 0.151 0.245 0.329 0.504 0.563 0.688 0.122 0.096 0.25 0.16 0.375 0.25 0.159 0.272 0.338 0.517 0.594 0.719 0.129 0.102 0.274 0.186 0.406 0.281 0.161 0.268 0.34 0.519 0.594 0.719 0.117 0.092 0.255 0.163 0.375 0.25 0.166 0.281 0.36 0.542 0.625 0.75 0.09 0.071 0.19 0.12 0.281 0.188-5.352 2.163-10.589 4.434-15.688 6.844-4.448 1.99-7.474 6.24-7.906 11.09-0.378 4.247 1.288 8.381 4.406 11.188 0.311 0.346 0.651 0.686 1 1 0.349 0.387 0.729 0.778 1.125 1.125 0.303 0.328 0.631 0.639 0.969 0.938 0.301 0.331 0.601 0.668 0.938 0.969 0.315 0.35 0.646 0.684 1 1 0.328 0.364 0.692 0.703 1.063 1.031 0.301 0.332 0.6 0.667 0.938 0.969 0.34 0.379 0.707 0.723 1.094 1.063 0.338 0.371 0.679 0.73 1.063 1.063 0.321 0.348 0.638 0.687 1 1 0.3 0.325 0.602 0.643 0.938 0.938 0.284 0.313 0.589 0.621 0.906 0.906 0.309 0.348 0.651 0.686 1 1 0.327 0.369 0.691 0.7 1.063 1.031 0.314 0.351 0.645 0.684 1 1 0.297 0.333 0.603 0.668 0.938 0.969 0.33 0.374 0.685 0.728 1.063 1.063 0.314 0.352 0.643 0.684 1 1 0.313 0.35 0.645 0.685 1 1 0.292 0.327 0.609 0.642 0.938 0.938 0.33 0.377 0.684 0.727 1.063 1.063 0.316 0.356 0.64 0.681 1 1 0.314 0.354 0.642 0.683 1 1 0.336 0.379 0.708 0.726 1.094 1.063 0.297 0.33 0.601 0.64 0.938 0.938 0.32 0.362 0.633 0.708 1 1.031 0.287 0.324 0.613 0.614 0.938 0.906 0.331 0.38 0.712 0.725 1.094 1.063 0.287 0.325 0.581 0.645 0.906 0.938 0.31 0.359 0.644 0.68 1 1 0.309 0.357 0.645 0.681 1 1 0.37 0.428 0.783 0.815 1.219 1.188 0.254 0.28 0.498 0.557 0.781 0.813 0.307 0.357 0.647 0.682 1 1 0.309 0.361 0.643 0.679 1 1 0.368 0.429 0.783 0.815 1.219 1.188 0.307 0.341 0.617 0.666 0.969 0.969 0.297 0.332 0.599 0.673 0.938 0.969 0.335 0.382 0.703 0.728 1.094 1.063 0.316 0.354 0.635 0.688 1 1 0.319 0.356 0.632 0.717 1 1.031 0.285 0.318 0.612 0.622 0.938 0.906 0.309 0.351 0.643 0.721 1 1.031 0.31 0.354 0.641 0.688 1 1 0.304 0.347 0.648 0.662 1 0.969 0.306 0.351 0.645 0.69 1 1 0.304 0.349 0.647 0.692 1 1 0.31 0.358 0.639 0.685 1 1 0.312 0.361 0.635 0.714 1 1.031 0.306 0.352 0.644 0.69 1 1 0.329 0.378 0.706 0.734 1.094 1.063 0.282 0.318 0.582 0.624 0.906 0.906 0.308 0.359 0.639 0.685 1 1 0.306 0.356 0.642 0.688 1 1 0.331 0.386 0.701 0.76 1.094 1.094 0.291 0.332 0.599 0.645 0.938 0.938 0.282 0.329 0.61 0.616 0.938 0.906 0.323 0.385 0.678 0.76 1.063 1.094 0.305 0.357 0.641 0.689 1 1 0.303 0.354 0.643 0.691 1 1 0.287 0.336 0.633 0.642 0.969 0.938 0.32 0.382 0.68 0.733 1.063 1.063 0.306 0.36 0.637 0.688 1 1 0.305 0.358 0.639 0.689 1 1 0.284 0.334 0.604 0.645 0.938 0.938 0.32 0.385 0.678 0.731 1.063 1.063 0.305 0.362 0.636 0.687 1 1 0.313 0.372 0.656 0.711 1.031 1.031 0.299 0.352 0.644 0.664 1 0.969 0.306 0.362 0.634 0.719 1 1.031 0.29 0.344 0.625 0.639 0.969 0.938 0.299 0.361 0.641 0.688 1 1 0.316 0.381 0.68 0.737 1.063 1.063 0.292 0.347 0.62 0.669 0.969 0.969 0.303 0.365 0.635 0.687 1 1 0.292 0.352 0.619 0.665 0.969 0.969 0.32 0.391 0.701 0.732 1.094 1.063 0.303 0.363 0.633 0.691 1 1 0.287 0.343 0.593 0.674 0.938 0.969 0.299 0.366 0.636 0.688 1 1 0.321 0.393 0.697 0.732 1.094 1.063 0.304 0.364 0.63 0.692 1 1 0.289 0.346 0.589 0.674 0.938 0.969 0.301 0.368 0.631 0.688 1 1 0.312 0.382 0.677 0.711 1.063 1.031 0.29 0.351 0.616 0.671 0.969 0.969 0.296 0.363 0.637 0.693 1 1 0.303 0.372 0.657 0.719 1.031 1.031 0.292 0.358 0.61 0.667 0.969 0.969 0.302 0.375 0.656 0.686 1.031 1 0.307 0.38 0.648 0.746 1.031 1.063 0.294 0.357 0.638 0.701 1 1 0.297 0.364 0.631 0.696 1 1 0.306 0.376 0.648 0.72 1.031 1.031 0.289 0.35 0.612 0.676 0.969 0.969 0.311 0.383 0.67 0.748 1.063 1.063 0.289 0.348 0.611 0.679 0.969 0.969 0.297 0.365 0.628 0.698 1 1 0.294 0.363 0.631 0.7 1 1 0.311 0.384 0.667 0.751 1.063 1.063 0.269 0.325 0.575 0.634 0.906 0.906 0.29 0.367 0.633 0.698 1 1 0.303 0.384 0.674 0.719 1.063 1.031 0.302 0.377 0.646 0.725 1.031 1.031 0.284 0.35 0.611 0.681 0.969 0.969 0.29 0.364 0.63 0.703 1 1 0.308 0.39 0.662 0.75 1.063 1.063 0.284 0.352 0.608 0.651 0.969 0.938 0.295 0.373 0.619 0.731 1 1.031 0.281 0.354 0.609 0.681 0.969 0.969 0.3 0.386 0.669 0.723 1.063 1.031 0.299 0.379 0.61 0.73 1 1.031 0.292 0.367 0.621 0.707 1 1 0.173 0.218 0.361 0.401 0.563 0.594 3.7 0.186 7.41 0.313 11.156 0.313 120.9 0 218.91-98.01 218.91-218.91 0-8.511-0.492-16.929-1.438-25.19-0.105-0.103-0.205-0.212-0.313-0.313-0.38-0.408-0.772-0.81-1.188-1.188-0.285-0.298-0.57-0.594-0.875-0.875-0.323-0.344-0.651-0.678-1-1-0.334-0.355-0.67-0.7-1.031-1.031-0.322-0.341-0.653-0.681-1-1-0.303-0.32-0.612-0.636-0.938-0.938-0.319-0.34-0.656-0.681-1-1-0.323-0.344-0.651-0.678-1-1-0.323-0.344-0.651-0.678-1-1-0.323-0.344-0.651-0.678-1-1-0.334-0.355-0.67-0.7-1.031-1.031-0.303-0.32-0.612-0.636-0.938-0.938-0.299-0.319-0.617-0.638-0.938-0.938-0.38-0.408-0.772-0.81-1.188-1.188-0.285-0.298-0.57-0.594-0.875-0.875-0.323-0.344-0.651-0.678-1-1-0.334-0.355-0.67-0.7-1.031-1.031-0.334-0.353-0.671-0.702-1.031-1.031-0.274-0.288-0.552-0.571-0.844-0.844-0.38-0.408-0.772-0.81-1.188-1.188-0.285-0.298-0.57-0.594-0.875-0.875-0.323-0.344-0.651-0.678-1-1-0.334-0.355-0.67-0.7-1.031-1.031-0.322-0.341-0.653-0.681-1-1-0.283-0.299-0.573-0.593-0.875-0.875-0.38-0.408-0.772-0.81-1.188-1.188-0.285-0.298-0.57-0.594-0.875-0.875-0.323-0.344-0.651-0.678-1-1-0.343-0.365-0.691-0.723-1.063-1.063-0.313-0.329-0.632-0.66-0.969-0.969-0.303-0.32-0.612-0.636-0.938-0.938-0.319-0.34-0.656-0.681-1-1-0.323-0.344-0.651-0.678-1-1-0.323-0.344-0.651-0.678-1-1-0.323-0.344-0.651-0.678-1-1-0.334-0.355-0.67-0.7-1.031-1.031-0.303-0.32-0.612-0.636-0.938-0.938-0.299-0.319-0.617-0.638-0.938-0.938-0.38-0.408-0.772-0.81-1.188-1.188-0.285-0.298-0.57-0.594-0.875-0.875-2.028-2.155-4.549-3.909-7.5-5.03-55.675-21.18-110.43-31.569-165.53-31.531" fill-opacity="0.235" transform="translate(0,540.36)" color="#000000"/>
  <g id="g10" fill-rule="evenodd">
   <path id="path12" fill-opacity="0.067" d="m256 541.36c-140.83 0-255 114.17-255 255s114.17 255 255 255 255-114.17 255-255-114.17-255-255-255m8.827 44.931c120.9 0 218.9 98 218.9 218.9s-98 218.9-218.9 218.9-218.93-98-218.93-218.9 98.03-218.9 218.93-218.9"/>
   <g id="g14" fill-opacity="0.129">
    <path id="path16" d="m256 544.79c-138.94 0-251.57 112.63-251.57 251.57s112.63 251.54 251.57 251.54 251.57-112.6 251.57-251.54-112.63-251.57-251.57-251.57m5.885 38.556c120.9 0 218.9 98 218.9 218.9s-98 218.9-218.9 218.9-218.93-98-218.93-218.9 98.03-218.9 218.93-218.9"/>
    <path id="path18" d="m256 548.72c-136.77 0-247.64 110.87-247.64 247.64s110.87 247.64 247.64 247.64 247.64-110.87 247.64-247.64-110.87-247.64-247.64-247.64m2.942 31.691c120.9 0 218.9 98 218.9 218.9s-98 218.9-218.9 218.9-218.93-98-218.93-218.9 98.03-218.9 218.93-218.9"/>
   </g>
   <path id="path20" d="m253.04 548.22c-135.42 0-245.19 109.78-245.19 245.19 0 135.42 109.78 245.19 245.19 245.19 135.42 0 245.19-109.78 245.19-245.19 0-135.42-109.78-245.19-245.19-245.19zm0 26.297c120.9 0 218.9 98 218.9 218.9s-98 218.9-218.9 218.9-218.93-98-218.93-218.9 98.03-218.9 218.93-218.9z" stroke-opacity="0.31" stroke="#000" stroke-width="4.904" fill="#fff"/>
  </g>
  <g id="g68" stroke-linejoin="round" transform="translate(-864.07,26.337)" stroke="#fff" stroke-linecap="round" fill="none">
   <path id="path70" stroke-width="40.35" d="m960.43 715.23c110.72-39.83 211.92-40.502 319.27 0.34"/>
   <g id="g72" stroke-width="26.899">
    <path id="path74" d="m979.45 791.98c95.35-37.428 182.33-41.15 282.95 0.655"/>
    <path id="path76" d="m1001.1 861.63c67.01-31.664 158.32-42.11 238.76-0.306"/>
   </g>
  </g>
 </g>
</svg>
