<?xml version="1.0" encoding="UTF-8" standalone="no"?>
<svg
   xmlns:dc="http://purl.org/dc/elements/1.1/"
   xmlns:cc="http://creativecommons.org/ns#"
   xmlns:rdf="http://www.w3.org/1999/02/22-rdf-syntax-ns#"
   xmlns:svg="http://www.w3.org/2000/svg"
   xmlns="http://www.w3.org/2000/svg"
   xmlns:sodipodi="http://sodipodi.sourceforge.net/DTD/sodipodi-0.dtd"
   xmlns:inkscape="http://www.inkscape.org/namespaces/inkscape"
   height="512"
   viewBox="0 0 512 512"
   width="512"
   version="1.1"
   id="svg2"
   inkscape:version="0.91 r"
   sodipodi:docname="spotlite.svg">
  <defs
     id="defs17" />
  <sodipodi:namedview
     pagecolor="#ffffff"
     bordercolor="#666666"
     borderopacity="1"
     objecttolerance="10"
     gridtolerance="10"
     guidetolerance="10"
     inkscape:pageopacity="0"
     inkscape:pageshadow="2"
     inkscape:window-width="1680"
     inkscape:window-height="997"
     id="namedview15"
     showgrid="false"
     inkscape:zoom="1.3037281"
     inkscape:cx="16.003165"
     inkscape:cy="361.12303"
     inkscape:window-x="0"
     inkscape:window-y="0"
     inkscape:window-maximized="1"
     inkscape:current-layer="svg2" />
  <metadata
     id="metadata28">
    <rdf:RDF>
      <cc:Work
         rdf:about="">
        <dc:format>image/svg+xml</dc:format>
        <dc:type
           rdf:resource="http://purl.org/dc/dcmitype/StillImage" />
        <dc:title />
      </cc:Work>
    </rdf:RDF>
  </metadata>
  <path
     style="fill:#BF9E73;fill-opacity:1;fill-rule:evenodd"
     inkscape:connector-curvature="0"
     d="m 473.3626,253.24184 c 0,120.9 -98.01,218.9 -218.9,218.9 -120.9,0 -218.899999,-98.01 -218.899999,-218.9 0,-120.9 98.009999,-218.900007 218.899999,-218.900007 120.9,0 218.9,98.010007 218.9,218.900007"
     id="path6-6" />
  <path
     style="fill-opacity:0.06700003;fill-rule:evenodd"
     inkscape:connector-curvature="0"
     d="M 256,1 C 115.17,1 1,115.17 1,256 1,396.83 115.17,511 256,511 396.83,511 511,396.83 511,256 511,115.17 396.83,1 256,1 m 8.827,44.931 c 120.9,0 218.9,98 218.9,218.9 0,120.9 -98,218.9 -218.9,218.9 -120.9,0 -218.93,-98 -218.93,-218.9 0,-120.9 98.03,-218.9 218.93,-218.9"
     id="path8" />
  <g
     style="fill-opacity:0.12900002;fill-rule:evenodd"
     id="g10">
    <path
       inkscape:connector-curvature="0"
       d="m 256,4.433 c -138.94,0 -251.57,112.63 -251.57,251.57 0,138.94 112.63,251.57 251.57,251.57 138.94,0 251.57,-112.63 251.57,-251.57 C 507.57,117.063 394.94,4.433 256,4.433 m 5.885,38.556 c 120.9,0 218.9,98 218.9,218.9 0,120.9 -98,218.9 -218.9,218.9 -120.9,0 -218.93,-98 -218.93,-218.9 0,-120.9 98.03,-218.9 218.93,-218.9"
       id="path12" />
    <path
       inkscape:connector-curvature="0"
       d="m 256,8.356 c -136.77,0 -247.64,110.87 -247.64,247.64 0,136.77 110.87,247.64 247.64,247.64 136.77,0 247.64,-110.87 247.64,-247.64 C 503.64,119.226 392.77,8.356 256,8.356 m 2.942,31.691 c 120.9,0 218.9,98 218.9,218.9 0,120.9 -98,218.9 -218.9,218.9 -120.9,0 -218.93,-98 -218.93,-218.9 0,-120.9 98.03,-218.9 218.93,-218.9"
       id="path14" />
  </g>
  <path
     style="fill:#ffffff;fill-rule:evenodd;stroke:#000000;stroke-width:4.90399981;stroke-opacity:0.31000001"
     inkscape:connector-curvature="0"
     d="m 253.04,7.859 c -135.42,0 -245.19,109.78 -245.19,245.19 0,135.42 109.78,245.19 245.19,245.19 135.42,0 245.19,-109.78 245.19,-245.19 0,-135.42 -109.78,-245.19 -245.19,-245.19 z m 0,26.297 c 120.9,0 218.9,98 218.9,218.9 0,120.9 -98,218.9 -218.9,218.9 -120.9,0 -218.93,-98 -218.93,-218.9 0,-120.9 98.03,-218.9 218.93,-218.9 z"
     id="path16" />
  <path
     inkscape:connector-curvature="0"
     style="fill:#ffffff;fill-opacity:0.23500001"
     d="m 256.62344,35.697556 c -119.06,0 -216.409995,93.369994 -223.619995,211.270004 2.263,5.493 7.424,9.187 10.357,14.599 l 1.414,13.07 2.37,-12.12 26.1,11.08 18.04,16.893 15.478995,2.293 c -5.528,12.662 -16.712995,33.06 -14.675995,47.2 1.185,8.221 9.465995,19.947 14.216995,26.638 6.637,9.346 19.17,14.873 22.511,26.638 l 0.535,19.377 3.631,14.523 c -0.6,5.087 -4.576,13.239 -3.822,19.15 10.253,7.143 21.13,13.435 32.524,18.804 1.994,-1.897 1.739,-5.998 -0.077,-8.905 l 8.828,-12.345 11.198,-8.37 7.873,-27.632 16.969,-11.122 c 6.946,-10.534 1.911,-19.296 4.51,-30.12 l 11.427,-32.677 c -12.92,-4.898 -31.435,-10.909 -40.55,-21.785 l -2.37,1.223 -2.408,-10.892 -14.294,-7.262 -2.37,2.408 -3.593,-16.931 -19.07,-1.567 -14.332,-7.911 c -6.171,-0.891 -14.341,9.342 -16.663,14.294 l -8.369997,-1.185 2.407997,-2.446 -7.146995,-4.854 1.185,4.854 c -5.142,-5.397 -6.03,-12.205 -4.777,-19.377 l -8.332,-3.631 -1.223,3.631 c -1.491,-5.99 -0.862,-13.726 3.593,-18.15 -6.534,-4.525 -10.926,-0.267 -15.479,4.854 l -9.555,-19.377 c -2.627,5.941 -1.669,11.867 -1.185,18.15 l -2.408,0 c -0.527,-6.773 -2.159,-14.178 1.223,-20.562 6.32,-11.93 25.301,-16.963 36.957,-14.523 l -1.223,2.408 10.738995,9.708 c 0.049,-18.508 7.236,-20.464 17.313,-33.938 l 7.03,-12.994 c 7.82,-8.732 19.967,-14.686 30.46,-18.612 l 13.147,-8.293 c -4.256,-7.479 -15.442,-5.339 -22.625,-4.854 12.917,-7.462 30.479,-3.419 39.33,-16.93101 -9.652,-7.131 -9.652,-25.73599 -25.03,-18.15 l 2.37,-7.26199 -13.11,-6.077 -9.555,20.25599 -13.11,16.05 -1.185,-8.446 c -5.04,-2.378 -18.915,-6.559 -19.19,-13.338 -0.294,-7.36799 22.13,-18.49799 27.556,-22.968994 l -2.408,6.040004 9.249,-0.879 c 1.959,-1.256 20.545,-27.871004 22.931,-11.236004 12.927,4.975 14.404,10.677004 27.441,2.446 l -8.332,-3.669 c -1.315,-11.954 -11.728,-12.07 -21.479,-12.08 l 30.995,-14.523 c 3.451,8.594 14.269,10.353 17.772,18.268 2.488,5.624 -4.888,9.01 -4.701,14.408 0.231,6.653004 6.6,14.787004 9.593,20.561994 l 17.925,-19.873994 c 9.897,-5.357 25.827,-5.944 33.709,-14.599 9.125,-10.02 4.104,-25.966 21.1,-26.03 -3.448,-1.473 -9,-2.591 -11.924,0 l -3.593,-3.631 4.777,0 c -2.493,-3.471 -4.163,-5.364 -8.332,-6.077 -0.974,-1.223 -2.229,-2.042 -3.631,-2.637 -3.657,-0.178 -7.344,-0.268 -11.05,-0.268 m 104.07,35.581 c -4.191,3.484 -11.301,5.241 -16.663,6.077 l -9.746,13.606 -11.351,9.593004 c -1.828,4.409 1.086,11.07999 1.987,15.51699 l 11.924,-6.04 c 1.715,6.01 6.362,7.559 10.739,10.892 7.07,-13.616 0.985,-26.63499 17.886,-33.899994 l -10.739,13.338004 3.593,-2.446 1.185,7.262 1.185,-9.669 c 3.149,10.919 -0.146,25.91799 -11.924,30.03999 l -11.924,-0.994 0,-7.262 c -6.781,1.437 -6.526,4.865 -4.739,10.892 -4.602,-1.328 -7.348,-1.107 -10.739,2.408 -3.642,-3.8 -6.607,-6.688 -7.147,-12.08 -2.315,-2.341 -3.354,-3.935 -3.593,-7.262 l -8.332,-1.223 3.554,19.377 c -3.181,-6.06 -6.475,-7.537 -13.11,-6.077 l 3.593,14.52301 4.777,-1.185 -3.593,-1.22301 4.777,-8.485 2.37,13.33801 10.739,-2.446 c -3.01,2.916 -5.409,3.624 -9.555,3.631 l 1.223,3.631 -5.962,0 8.332,14.523 c -19.535,0.164 -19.761,10.318 -19.07,26.638 3.813,0.279 5.668,0.852 8.332,3.631 15.776,-8.439 19.413,-24.12 38.14,-29.05 3.039,9.595 12.439,9.02 9.555,20.6 9.202,-1.907 11.778,-9.789 5.962,-16.969 7.84,4.741 10.08,14.476 15.478,21.785 3.801,-5.067 2.342,-10.858 8.37,-14.523 l 0,3.631 c 10.1,9.1 17.07,11.152 29.81,15.746 -4.379,6.311 -9.662,12.48 -17.886,11.962 -10.07,-0.633 -22.918,-10.649 -29.81,1.338 l -19.19,-15.44 c -10.641,-4.556 -21.1,-0.248 -32.07,-1.491 l -4.777,2.408 2.37,1.223 c -21.843,9.977 -33.959,36.25 -36.23,58.09 l -4.166,14.523 c 2.323,14.184 14.175,28.872 24.12,38.524 7,6.795 12.03,-6.486 18.689,0.229 8.812,-3.387 22.11,-9.299 30.19,0.153 5.309,6.211 -0.237,11.356 1.605,18 3.187,11.498 10.796,24.971 10.778,37.531 l -2.981,30.23 c 2.612,18.436 12.684,33.959 12.841,53.28 14.618,-1.529 31.06,-8.993 39.17,-21.785 l 3.478,-10.778 6.04,-7.491 -2.293,-11.886 c 3.412,-8.314 17.222,-9.223 19.3,-18.307 2.83,-12.367 -4.562,-27.01 -0.153,-39.9 6.8,-19.868 25.735,-34.418 26.26,-56.907 l -14.294,1.223 c 12.868,-16.03 40.13,-24.1 26.22,-48.42 l -5.962,7.262 -2.37,0 c -4.604,-9.807 -11.915,-10.83 -11.924,-23.01 11.161,9.752 22.707,10.06 33.365,21.785 0.973,-0.535 1.783,-1.211 2.446,-2.026 -8.147,-62.56 -41.822,-117.04001 -90.16,-152.530004 -9.09,-0.905 -19.831,-2.204 -25.53,-7.605 l -2.408,0 0,-0.038"
     id="path23242" />
  <path
     style="opacity:0.25;fill:#BF9E73;fill-opacity:1;fill-rule:evenodd;stroke:none;stroke-width:1px;stroke-linecap:butt;stroke-linejoin:miter;stroke-opacity:1"
     d="m 269.22792,105.47352 202.49621,174.88309 c -7.64878,34.77208 -20.76795,69.54415 -40.65265,104.31623 l -63.66358,55.22624 c -40.90833,23.8919 -81.81665,32.05014 -122.72498,42.1867 L 98.179981,359.36081 c 55.200379,-5.02948 87.605969,25.28903 158.008409,-29.14718 l -117.35576,-97.41295 -27.3152,-55.70665 34.36949,-54.56826 z"
     id="path4155"
     inkscape:connector-curvature="0"
     sodipodi:nodetypes="ccccccccccc" />
  <g
     style="font-style:normal;font-weight:normal;font-size:40px;line-height:125%;font-family:sans-serif;letter-spacing:0px;word-spacing:0px;fill:#ffffff;fill-opacity:1;stroke:none;stroke-width:1px;stroke-linecap:butt;stroke-linejoin:miter;stroke-opacity:1"
     id="text3341">
    <path
       d="m 271.25045,105.69495 0,68.28708 c -14.03809,-6.71387 -32.11282,-19.97191 -39.73389,-30.35527 -8.91242,-12.14276 -24.3554,-22.11776 -36.07177,-21.81853 -20.13504,0.51423 -35.70557,3.90625 -46.6919,11.71875 -10.86426,7.8125 -16.29639,18.9209 -16.29639,33.32519 0,12.08496 3.60108,21.24023 10.80323,27.46582 7.32422,6.10352 21.11816,11.04737 41.38183,14.83155 l 22.33887,4.57763 c 27.58789,5.24903 47.9126,14.52637 60.97412,27.83203 13.18359,13.18359 19.77539,30.88379 19.77539,53.10059 0,26.48926 -8.91113,46.56983 -26.7334,60.2417 -17.70019,13.67187 -43.70117,20.50781 -78.00293,20.50781 -12.93945,0 -26.7334,-1.46484 -41.38183,-4.39453 -14.52637,-2.92969 -29.60205,-7.26318 -45.227053,-13.00049 l 0.767031,-86.4089 c 15.011492,8.41024 33.930592,31.73059 54.099832,49.72421 20.16923,17.99362 23.42485,19.94861 35.57718,24.05041 20.0091,6.75372 33.57939,-4.15039 45.054,-12.45117 11.47461,-8.30078 17.21192,-20.1416 17.21192,-35.52246 0,-13.42773 -4.15039,-23.92578 -12.45117,-31.49414 -8.17871,-7.56836 -21.66748,-13.24463 -40.46631,-17.02881 l -22.52197,-4.39453 c -27.58789,-5.49316 -47.54639,-14.09912 -59.87549,-25.81787 -12.3291,-11.71875 -18.493655,-28.01513 -18.493655,-48.88916 0,-24.16992 8.483885,-43.21289 25.451655,-57.12891 17.08985,-13.916013 40.58838,-20.874019 70.49561,-20.874019 12.81738,0 25.8789,1.159668 39.18457,3.479004 13.30567,2.319335 26.91651,5.798345 40.83252,10.437015 z"
       style="font-size:375px;fill:#ffffff;fill-opacity:1"
       id="path4153"
       inkscape:connector-curvature="0"
       sodipodi:nodetypes="ccsscsccccscsccczssscccsscssc" />
  </g>
  <g
     style="font-style:normal;font-weight:normal;font-size:40px;line-height:125%;font-family:sans-serif;letter-spacing:0px;word-spacing:0px;fill:#ffffff;fill-opacity:1;stroke:none;stroke-width:1px;stroke-linecap:butt;stroke-linejoin:miter;stroke-opacity:1"
     id="text3345">
    <path
       d="m 328.31363,234.27637 36.16266,11.50547 -18.40875,104.77382 53.15804,-11.50547 10.73844,26.44688 -81.65039,0 z"
       style="font-size:180px;fill:#ffffff;fill-opacity:1"
       id="path4158"
       inkscape:connector-curvature="0"
       sodipodi:nodetypes="ccccccc" />
  </g>
</svg>
