<?xml version="1.0" encoding="UTF-8" standalone="no"?>
<svg xmlns="http://www.w3.org/2000/svg" viewBox="0 0 512 512">
 <path fill-rule="evenodd" d="m471.93 253.06c0 120.9-98.01 218.9-218.9 218.9-120.9 0-218.9-98.01-218.9-218.9 0-120.9 98.01-218.9 218.9-218.9 120.9 0 218.9 98.01 218.9 218.9" fill="#BF9E73"/>
 <path opacity="0.25" d="m354.12 37.22s-8.04 11.743-22.757 35.12c-0.048 0.001-0.097-0.001-0.145 0l-143.96 3.926c-1.608-10.444-3.298-21.455-5.09-33.591l-20.794 3.126c1.965 13.28 3.761 24.988 5.453 35.99-0.336 0.482-0.689 0.921-0.945 1.454l-86.38 107.97c-27.01 0.384-38.608-1.454-38.608-1.454l-3.635 20.722s10.893 1.825 35.34 1.89l29.737 134.07c-26.485 22.12-42.534 30.755-42.534 30.755l9.961 18.54s15.503-8.605 40.716-29.08a11.182 11.182 0 0 0 0.72707 0.43625l132.26 65c-2.537 27.12-4.072 40.13-4.072 40.13l20.867 2.545s1.58-13.677 4.217-41.807l134.58-64.27a11.182 11.182 0 0 0 1.3814 -0.72708c14.936 15.468 24.721 23.412 24.721 23.412l13.16-16.432s-12.04-9.699-29.737-29.01l30.683-132.47c22.998-9.634 35.481-14.832 35.481-14.832l-8.07-19.413v-0.145s-10.767 4.495-34.25 14.323l-84.49-107.83c15.205-24.2 23.557-36.28 23.557-36.28l-17.377-12.07m-36.79 57.803c-10.571 17.241-23.334 38.482-37.953 63.69-0.661 0.068-1.325 0.179-1.963 0.364l-72.49 21.01c-2.471-12.514-7.254-38.552-14.11-81.58l126.51-3.49m18.1 10.833l75.62 96.48c-20.838 8.745-46.798 19.602-81.29 34.17l-33.954-64.13c15.4-26.588 28.7-48.722 39.626-66.53m-163.88 6.03c6.77 42.16 10.746 62.63 12.506 71.11-30.331 3.796-55.02 5.902-74.961 7.05l62.46-78.16m104.19 70.89l5.02 9.02 31.19 58.966-50.39 52.49-65.22-32.06c2.819-22.528 6.963-46.24 9.525-68.05l69.872-20.358m-92.7 21.74l-9.888 71.62c-0.016 0.12 0.012 0.243 0 0.364-19 21.644-36.42 39.17-51.622 53.15l-26.17-117.71c22.05-0.782 51.01-2.9 87.69-7.416m230.77 19.631l-23.339 100.77c-15.01-18.425-31.953-41.806-48.569-70.45 31.13-13.151 51.29-21.663 71.908-30.32m-88.19 44.57c20.407 34.637 41.42 61.924 58.893 81.941v0.145l-117.71 56.35c1.947-22.2 4.243-50.19 6.762-84.12l52.06-54.31m-138.07 23.05l64.855 31.919c-2.52 34.23-4.905 62.55-6.834 84.56l-116.48-57.29c17.04-15.16 36.818-34.647 58.46-59.18" fill="#fff"/>
 <g transform="matrix(3.5433 0 0 3.5433 -.004 0)" fill-rule="evenodd">
  <path d="m72.25 0.282c-39.746 0-71.967 32.22-71.967 71.967 0 39.746 32.22 71.967 71.967 71.967 39.746 0 71.967-32.22 71.967-71.967 0-39.746-32.22-71.967-71.967-71.967m2.491 12.681c34.12 0 61.777 27.657 61.777 61.777s-27.657 61.777-61.777 61.777-61.786-27.657-61.786-61.777 27.666-61.777 61.786-61.777" fill-opacity="0.067"/>
  <g fill-opacity="0.129">
   <path d="m72.25 1.251c-39.21 0-70.998 31.787-70.998 70.998 0 39.21 31.787 70.998 70.998 70.998 39.21 0 70.998-31.787 70.998-70.998 0-39.21-31.787-70.998-70.998-70.998m1.661 10.881c34.12 0 61.777 27.657 61.777 61.777s-27.657 61.777-61.777 61.777-61.786-27.657-61.786-61.777 27.666-61.777 61.786-61.777"/>
   <path d="m72.25 2.358c-38.6 0-69.891 31.29-69.891 69.891 0 38.6 31.29 69.891 69.891 69.891 38.6 0 69.891-31.29 69.891-69.891 0-38.6-31.29-69.891-69.891-69.891m0.83 8.944c34.12 0 61.777 27.657 61.777 61.777s-27.657 61.777-61.777 61.777-61.786-27.657-61.786-61.777 27.666-61.777 61.786-61.777"/>
  </g>
  <path stroke="#000" stroke-width="1.384" d="m71.41 2.218c-38.22 0-69.2 30.981-69.2 69.2 0 38.22 30.981 69.2 69.2 69.2 38.22 0 69.2-30.981 69.2-69.2 0-38.22-30.981-69.2-69.2-69.2zm0 7.422c34.12 0 61.777 27.657 61.777 61.777s-27.657 61.777-61.777 61.777-61.786-27.657-61.786-61.777 27.666-61.777 61.786-61.777" stroke-opacity="0.31" fill="#fff"/>
 </g>
 <path opacity="0.25" d="m187.13 194.36c-16.581 0.132-33.01 6.507-45.24 18.932l-59.38 59.691 26.12 26.313 171.05 171.05c107.09-13 190.31-103.32 192.2-213.47l-50.33-50.33-0.121-0.123c-9.454-9.454-22.658-9.07-32.31-6.06-9.696 3.02-18.311 8.723-26.12 16.594-7.753 7.812-13.44 16.559-16.404 26.313-1.406 4.536-2.294 9.85-1.83 15.207l-13.883 14.01c-8.305 8.358-25.888 9.721-36.506 2.174l-61.23-61.23-0.215-0.217c-12.675-12.675-29.22-18.998-45.723-18.84h-0.063"/>
 <path d="m187.13 194.36c-16.581 0.132-33.01 6.505-45.24 18.93l-59.38 59.692 26.12 26.312 56.03-56.41 3.281-3.344c9.07-9.126 29.19-9.92 39.12 0.126l28.08 28.27-0.126 0.126 30.414 30.603c25.436 25.67 66.846 24.876 91.49 0.126l14.765-14.891c4.72 0.163 9.355-0.639 13.377-1.893 9.637-3.02 18.311-8.72 26.12-16.532 7.754-7.87 13.442-16.558 16.406-26.312s3.404-23.1-6.06-32.622c-9.462-9.579-22.737-9.206-32.433-6.184-9.696 3.02-18.311 8.725-26.12 16.595-7.753 7.812-13.442 16.558-16.406 26.312-1.406 4.536-2.294 9.85-1.83 15.207l-13.882 14.01c-9.07 9.126-29.2 9.92-39.25-0.126l-28.08-28.458-2.208-2.208-28.21-28.27c-12.702-12.819-29.34-19.215-45.936-19.06h-0.063" fill="#fff"/>
</svg>
