<?xml version="1.0" encoding="UTF-8" standalone="no"?>
<svg xmlns="http://www.w3.org/2000/svg" height="512" viewBox="0 0 512 512" width="512" version="1.1">
 <metadata id="metadata72"/>
 <g id="g4" fill-rule="evenodd">
  <path id="path6" fill="#BF9E73" d="m471.95 253.05c0 120.9-98.01 218.9-218.9 218.9-120.9 0-218.9-98.01-218.9-218.9 0-120.9 98.01-218.9 218.9-218.9 120.9 0 218.9 98.01 218.9 218.9"/>
  <path id="path10" stroke="#fff" stroke-width="2.824" fill="#fff" d="m313.84 162.69c-1.37 0.046-2.869 0.373-4.531 1.031-13.1 4.876-2.41 33.93-1.563 37.688 0.782 3.459-5.849 3.081-7.094 1.563-2.779-3.394-11.958-33.691-22.781-28.28-15.18 8.369-0.91 34.496-3.938 35.34-5.624 3.143-5.273 10.839-9.781 17.09-7.434 10.654-63.08-5.04-81.06-6.125-13.164-0.777-25.749 10.06-26.938 8.688-16.03-16.05-49.17-43.997-85.5-53.28-6.097-1.655-13.11-4.247-19.938-7.06-0.558 1.347-1.094 2.702-1.625 4.063 6.141 2.902 13.1 5.993 20.938 9.219 34.777 14.317 82.8 50.612 79.03 56.47-11.296 15.91-17.911 34.939-13.313 67.53 0.829 5.737-17.02 15.687-15.719 24.344 1.085 6.587 19.939-6.527 22-3.938 1.261 4.648-10.08 28.19-5.5 29.875 3.353 0.996 32.85-27.984 34.563-27.5 48.612 14.696 111.84 3.622 113.06 3.156-0.115-0.255 45.534 21.438 49.5 18.844 10-10.832-18.985-26.09-14.156-32.19 2.117-3.193 35.27 11.957 36.906 7.813 2.377-7.174-15.389-22.19-18.06-26.656-2.325-4.115-2.807-10.811 3.156-14.969 5.965-4.158 66.964-27.446 64.41-45.5-4.422-32.804-77.39-34.989-78.56-37.75-0.51-1.196 2.67-40.01-13.5-39.469zm75.969 21.75c-1.214 0.524-6.118 25.755-3.75 26.906 2.099 1.57 5.729-25.479 3.813-26.875-0.031-0.036-0.023-0.048-0.063-0.031zm18 3.438c-2.753-0.05-17.444 23.402-14.06 25.906 2.099 1.57 15.181-24.956 14.281-25.844-0.063-0.052-0.13-0.061-0.219-0.063z"/>
  <path id="path12" fill-opacity="0.067" d="m256 1c-140.83 0-255 114.17-255 255s114.17 255 255 255 255-114.17 255-255-114.17-255-255-255m8.827 44.931c120.9 0 218.9 98 218.9 218.9s-98 218.9-218.9 218.9-218.93-98-218.93-218.9 98.03-218.9 218.93-218.9"/>
  <g id="g14" fill-opacity="0.129">
   <path id="path16" d="m256 4.433c-138.94 0-251.57 112.63-251.57 251.57s112.63 251.57 251.57 251.57 251.57-112.63 251.57-251.57-112.63-251.57-251.57-251.57m5.885 38.556c120.9 0 218.9 98 218.9 218.9s-98 218.9-218.9 218.9-218.93-98-218.93-218.9 98.03-218.9 218.93-218.9"/>
   <path id="path18" d="m256 8.356c-136.77 0-247.64 110.87-247.64 247.64s110.87 247.64 247.64 247.64 247.64-110.87 247.64-247.64-110.87-247.64-247.64-247.64m2.942 31.691c120.9 0 218.9 98 218.9 218.9s-98 218.9-218.9 218.9-218.93-98-218.93-218.9 98.03-218.9 218.93-218.9"/>
  </g>
  <path id="path20" d="m253.04 7.859c-135.42 0-245.19 109.78-245.19 245.19 0 135.42 109.78 245.19 245.19 245.19 135.42 0 245.19-109.78 245.19-245.19 0-135.42-109.78-245.19-245.19-245.19zm0 26.297c120.9 0 218.9 98 218.9 218.9s-98 218.9-218.9 218.9-218.93-98-218.93-218.9 98.03-218.9 218.93-218.9z" stroke-opacity="0.31" stroke="#000" stroke-width="4.904" fill="#fff"/>
 </g>
</svg>
