<?xml version="1.0" encoding="UTF-8" standalone="no"?>
<svg xmlns="http://www.w3.org/2000/svg" height="512" viewBox="0 0 512 512" width="512" version="1.1">
 <metadata id="metadata74"/>
 <path id="path4" d="m471.95 253.05c0 120.9-98.01 218.9-218.9 218.9-120.9 0-218.9-98.01-218.9-218.9 0-120.9 98.01-218.9 218.9-218.9 120.9 0 218.9 98.01 218.9 218.9" fill-rule="evenodd" fill="#BF9E73"/>
 <path id="path6" fill-opacity="0.235" d="m344.94 117.47c-30.796 0-48.2 23.445-52.813 45.28-0.12-0.087-0.266-0.157-0.406-0.219-0.239-0.443-0.575-0.8-1.031-1-0.236-0.453-0.568-0.802-1.031-1-0.234-0.459-0.591-0.807-1.063-1-0.233-0.469-0.546-0.845-1.031-1.031-0.226-0.466-0.554-0.816-1.031-1-0.222-0.473-0.577-0.822-1.063-1-0.219-0.482-0.535-0.86-1.031-1.031-0.214-0.477-0.567-0.838-1.063-1-0.209-0.481-0.531-0.845-1.031-1-0.199-0.491-0.53-0.846-1.031-1-0.193-0.499-0.553-0.854-1.063-1-0.155-0.427-0.397-0.758-0.781-0.938-0.103-0.138-0.205-0.273-0.313-0.406-0.299-0.476-0.621-0.919-0.969-1.344-0.273-0.428-0.562-0.832-0.875-1.219-0.289-0.459-0.572-0.901-0.906-1.313-0.279-0.44-0.586-0.853-0.906-1.25-0.269-0.425-0.568-0.834-0.875-1.219-0.289-0.46-0.605-0.899-0.938-1.313-0.274-0.433-0.562-0.858-0.875-1.25-0.33-0.526-0.675-1.034-1.063-1.5-0.288-0.439-0.578-0.886-0.906-1.281-0.246-0.375-0.506-0.719-0.781-1.063-0.291-0.46-0.573-0.898-0.906-1.313-0.324-0.51-0.655-0.984-1.031-1.438-0.261-0.398-0.519-0.793-0.813-1.156-2.354-3.672-6.05-5.95-11.438-5.969-0.915-0.003-1.861 0.087-2.875 0.219-29.588 3.84-22.675 51.11-8.125 60.19 0.054 0.034 0.102 0.061 0.156 0.094 0.437 0.325 0.892 0.653 1.344 0.906 0.342 0.241 0.68 0.491 1.031 0.688 0.222 0.156 0.431 0.331 0.656 0.469 0.303 0.229 0.627 0.431 0.938 0.625 0.397 0.305 0.809 0.567 1.219 0.813 0.431 0.321 0.867 0.625 1.313 0.875 0.221 0.156 0.432 0.331 0.656 0.469 0.455 0.346 0.934 0.641 1.406 0.906 0.098 0.07 0.182 0.153 0.281 0.219 0.075 0.225 0.197 0.397 0.344 0.406 0.092 0.006 0.189-0.002 0.281 0 0.075 0.055 0.143 0.104 0.219 0.156 0.037 0.429 0.248 0.828 0.5 0.844 0.137 0.008 0.269 0 0.406 0 0.041 0.503 0.299 0.982 0.594 1 0.116 0.007 0.228-0.001 0.344 0 0.079 0.517 0.349 0.981 0.656 1 0.094 0.006 0.187-0.002 0.281 0 0.109 0.528 0.398 0.98 0.719 1 0.083 0.005 0.167-0.002 0.25 0 0.138 0.526 0.39 0.949 0.719 0.969 0.062 0.004 0.125-0.002 0.188 0 0.157 0.55 0.464 0.979 0.813 1 0.062 0.004 0.126-0.002 0.188 0 0.179 0.548 0.456 0.978 0.813 1 0.041 0.002 0.084-0.002 0.125 0 0.198 0.549 0.508 0.978 0.875 1 0.021 0.001 0.041-0.001 0.063 0 0.215 0.557 0.557 0.977 0.938 1 0.011 0.001 0.021-0.001 0.031 0 0.231 0.556 0.58 0.976 0.969 1 0.246 0.547 0.575 0.945 0.969 0.969 0.239 0.52 0.535 0.889 0.906 0.969 0.248 0.531 0.588 0.909 0.969 1 0.249 0.506 0.57 0.857 0.938 0.969 0.254 0.51 0.598 0.874 0.969 1 0.261 0.501 0.597 0.87 0.969 1 0.26 0.478 0.578 0.828 0.938 0.969 0.027 0.05 0.065 0.078 0.094 0.125-2.583 0.08-5.2 0.242-7.844 0.469-0.251-0.298-0.539-0.548-0.844-0.75-0.302-0.41-0.673-0.745-1.063-1-0.304-0.414-0.636-0.778-1.031-1.031-0.292-0.396-0.623-0.723-1-0.969-0.296-0.414-0.643-0.747-1.031-1-0.308-0.437-0.652-0.805-1.063-1.063-0.302-0.42-0.662-0.754-1.063-1-0.292-0.406-0.615-0.759-1-1-0.302-0.426-0.657-0.788-1.063-1.031-0.296-0.418-0.633-0.761-1.031-1-0.291-0.412-0.64-0.765-1.031-1-0.307-0.44-0.672-0.795-1.094-1.031-0.292-0.41-0.604-0.775-1-1-0.291-0.42-0.631-0.773-1.031-1-0.297-0.434-0.618-0.804-1.031-1.031-0.288-0.418-0.632-0.78-1.031-1-0.3-0.445-0.636-0.811-1.063-1.031-0.291-0.426-0.62-0.788-1.031-1-0.288-0.429-0.621-0.789-1.031-1-0.284-0.43-0.592-0.79-1-1-0.282-0.437-0.621-0.789-1.031-1-0.285-0.45-0.642-0.791-1.063-1-0.287-0.457-0.602-0.828-1.031-1.031-0.279-0.445-0.613-0.802-1.031-1-0.267-0.432-0.601-0.77-1-0.969-0.279-0.471-0.627-0.835-1.063-1.031-0.27-0.453-0.612-0.81-1.031-1-0.269-0.462-0.607-0.812-1.031-1-0.262-0.457-0.614-0.816-1.031-1-0.263-0.471-0.603-0.851-1.031-1.031-0.256-0.471-0.577-0.79-1-0.969-0.259-0.501-0.616-0.856-1.063-1.031-0.25-0.482-0.571-0.83-1-1-0.248-0.493-0.625-0.836-1.063-1-0.251-0.511-0.603-0.884-1.063-1.031-0.247-0.504-0.574-0.865-1.031-1-0.239-0.501-0.582-0.868-1.031-1-0.201-0.436-0.483-0.772-0.844-0.938-0.084-0.098-0.164-0.187-0.25-0.281-0.316-0.433-0.653-0.867-1-1.25-0.312-0.427-0.626-0.872-0.969-1.25-0.341-0.467-0.686-0.936-1.063-1.344-0.29-0.389-0.56-0.777-0.875-1.125-0.319-0.437-0.65-0.863-1-1.25-0.316-0.431-0.623-0.868-0.969-1.25-0.313-0.426-0.627-0.872-0.969-1.25-0.252-0.343-0.51-0.687-0.781-1-0.369-0.521-0.777-1.016-1.188-1.469-0.324-0.44-0.645-0.892-1-1.281-0.337-0.456-0.661-0.911-1.031-1.313-0.183-0.245-0.369-0.49-0.563-0.719-0.364-0.527-0.752-1.01-1.156-1.469-0.009-0.012-0.023-0.019-0.031-0.031-0.044-0.049-0.081-0.108-0.125-0.156-0.27-0.366-0.522-0.731-0.813-1.063-0.018-0.024-0.045-0.038-0.063-0.063-0.034-0.039-0.059-0.087-0.094-0.125-0.266-0.361-0.526-0.704-0.813-1.031-0.053-0.073-0.103-0.147-0.156-0.219-0.01-0.011-0.021-0.02-0.031-0.031-2.363-3.179-5.496-5.12-9.5-5.03-1.715 0.038-3.589 0.441-5.625 1.281-21.547 8.892-10.185 40.767 2.656 49.875 0.329 0.265 0.669 0.484 1 0.719 0.271 0.218 0.54 0.427 0.813 0.625 0.366 0.301 0.725 0.58 1.094 0.844 0.306 0.248 0.598 0.497 0.906 0.719 0.357 0.292 0.733 0.556 1.094 0.813 0.29 0.235 0.583 0.445 0.875 0.656 0.354 0.29 0.705 0.558 1.063 0.813 0.293 0.238 0.579 0.474 0.875 0.688 0.358 0.295 0.732 0.555 1.094 0.813 0.312 0.254 0.623 0.493 0.938 0.719 0.366 0.299 0.724 0.583 1.094 0.844 0.265 0.214 0.545 0.4 0.813 0.594 0.37 0.305 0.751 0.579 1.125 0.844 0.349 0.283 0.679 0.565 1.031 0.813 0.333 0.268 0.664 0.515 1 0.75 0.27 0.217 0.541 0.43 0.813 0.625 0.36 0.295 0.731 0.556 1.094 0.813 0.314 0.255 0.621 0.493 0.938 0.719 0.341 0.278 0.688 0.538 1.031 0.781 0.28 0.227 0.562 0.453 0.844 0.656 0.394 0.325 0.79 0.629 1.188 0.906 0.274 0.221 0.537 0.427 0.813 0.625 0.156 0.128 0.312 0.254 0.469 0.375 0.16 0.184 0.329 0.323 0.5 0.406 0.007 0.005 0.025-0.005 0.031 0 0.013 0.006 0.019 0.026 0.031 0.031 0.252 0.448 0.581 0.811 0.906 0.969 0.265 0.464 0.63 0.835 0.969 1 0.243 0.404 0.542 0.721 0.844 0.906-5.845 2.192-11.524 4.763-16.906 7.688-0.254-0.273-0.516-0.538-0.781-0.781-0.212-0.236-0.405-0.472-0.625-0.688-0.298-0.351-0.623-0.659-0.938-0.969-0.005-0.006 0.005-0.025 0-0.031-0.065-0.064-0.122-0.126-0.188-0.188-0.347-0.394-0.725-0.724-1.094-1.063-0.206-0.23-0.411-0.446-0.625-0.656-0.005-0.006 0.005-0.025 0-0.031-0.053-0.052-0.103-0.105-0.156-0.156-0.361-0.413-0.74-0.772-1.125-1.125-0.306-0.34-0.615-0.671-0.938-0.969-0.315-0.35-0.636-0.663-0.969-0.969-0.195-0.216-0.392-0.425-0.594-0.625-0.448-0.528-0.922-1-1.406-1.438-0.286-0.311-0.575-0.599-0.875-0.875-0.183-0.202-0.374-0.406-0.563-0.594-0.024-0.028-0.038-0.066-0.063-0.094-0.043-0.042-0.082-0.084-0.125-0.125-0.375-0.428-0.788-0.821-1.188-1.188-0.173-0.19-0.354-0.386-0.531-0.563-0.025-0.029-0.038-0.065-0.063-0.094-0.06-0.059-0.127-0.099-0.188-0.156-0.225-0.254-0.454-0.486-0.688-0.719-0.024-0.029-0.038-0.065-0.063-0.094-0.064-0.063-0.123-0.126-0.188-0.188-0.223-0.251-0.488-0.457-0.719-0.688-0.025-0.029-0.038-0.065-0.063-0.094-0.042-0.042-0.082-0.084-0.125-0.125-0.372-0.424-0.761-0.791-1.156-1.156-0.174-0.192-0.352-0.383-0.531-0.563-0.034-0.04-0.059-0.085-0.094-0.125-0.054-0.053-0.102-0.105-0.156-0.156-0.34-0.383-0.703-0.728-1.063-1.063-0.295-0.328-0.596-0.645-0.906-0.938-0.342-0.382-0.701-0.729-1.063-1.063-0.286-0.315-0.575-0.625-0.875-0.906-0.318-0.353-0.635-0.688-0.969-1-0.294-0.325-0.599-0.647-0.906-0.938-0.371-0.413-0.763-0.799-1.156-1.156-0.135-0.146-0.268-0.299-0.406-0.438-0.044-0.052-0.08-0.105-0.125-0.156-0.032-0.032-0.061-0.063-0.094-0.094-0.364-0.413-0.74-0.796-1.125-1.156-0.328-0.362-0.686-0.681-1.031-1-0.155-0.17-0.31-0.34-0.469-0.5-0.054-0.064-0.102-0.125-0.156-0.188-0.054-0.053-0.102-0.105-0.156-0.156-0.342-0.382-0.703-0.726-1.063-1.063-0.297-0.328-0.596-0.644-0.906-0.938-0.344-0.381-0.701-0.727-1.063-1.063-0.272-0.297-0.53-0.607-0.813-0.875-0.362-0.403-0.743-0.773-1.125-1.125-0.278-0.302-0.554-0.602-0.844-0.875-0.363-0.4-0.742-0.775-1.125-1.125-0.244-0.262-0.466-0.541-0.719-0.781-0.334-0.371-0.68-0.734-1.031-1.063-0.303-0.332-0.621-0.639-0.938-0.938-0.341-0.375-0.673-0.73-1.031-1.063-0.131-0.142-0.273-0.27-0.406-0.406-0.073-0.086-0.145-0.166-0.219-0.25-0.021-0.021-0.041-0.042-0.063-0.063-2.572-2.903-5.648-4.639-9.125-4.438-2.023 0.117-4.217 0.892-6.5 2.469-14.06 9.713-5.989 28.676 4.531 38.38 0.21 0.21 0.443 0.391 0.656 0.594 0.211 0.201 0.412 0.4 0.625 0.594 0.026 0.026 0.036 0.068 0.063 0.094 0.126 0.114 0.248 0.233 0.375 0.344 0.086 0.082 0.163 0.169 0.25 0.25 0.472 0.478 0.953 0.935 1.438 1.375l0.094 0.094c0.114 0.103 0.229 0.212 0.344 0.313 0.162 0.154 0.306 0.319 0.469 0.469 0.082 0.082 0.167 0.169 0.25 0.25 0.115 0.103 0.229 0.211 0.344 0.313 0.086 0.082 0.164 0.169 0.25 0.25 0.428 0.434 0.875 0.848 1.313 1.25 0.34 0.34 0.685 0.649 1.031 0.969 0.326 0.326 0.668 0.63 1 0.938 0.351 0.353 0.705 0.7 1.063 1.031 0.388 0.391 0.791 0.761 1.188 1.125 0.29 0.29 0.58 0.569 0.875 0.844 0.382 0.387 0.766 0.764 1.156 1.125 0.455 0.458 0.909 0.892 1.375 1.313 0.021 0.02 0.042 0.042 0.063 0.063 0.093 0.083 0.188 0.168 0.281 0.25 0.182 0.175 0.347 0.363 0.531 0.531 0.083 0.083 0.166 0.168 0.25 0.25 0.092 0.083 0.188 0.169 0.281 0.25 0.108 0.103 0.204 0.211 0.313 0.313 0.462 0.469 0.932 0.914 1.406 1.344 0.052 0.051 0.104 0.105 0.156 0.156 0.082 0.073 0.168 0.147 0.25 0.219 0.149 0.143 0.287 0.298 0.438 0.438 0.315 0.318 0.648 0.606 0.969 0.906 0.491 0.5 0.995 0.983 1.5 1.438l0.063 0.063c0.081 0.073 0.168 0.147 0.25 0.219 0.118 0.113 0.225 0.233 0.344 0.344 0.381 0.387 0.767 0.765 1.156 1.125 0.429 0.433 0.873 0.852 1.313 1.25 0.051 0.051 0.105 0.106 0.156 0.156 0.032 0.029 0.061 0.065 0.094 0.094-7.684 8.448-13.289 18.324-15.813 29.625-6.576 29.426 11.125 65.728 38.969 89.91 0.283 0.246 0.559 0.507 0.844 0.75 0.15 0.132 0.318 0.244 0.469 0.375 0.074 0.063 0.145 0.125 0.219 0.188 0.212 0.183 0.412 0.381 0.625 0.563 0.149 0.131 0.319 0.245 0.469 0.375 0.074 0.062 0.145 0.125 0.219 0.188 0.667 0.576 1.322 1.157 2 1.719 0.145 0.127 0.291 0.248 0.438 0.375 0.011 0.01 0.02 0.021 0.031 0.031 0.104 0.085 0.208 0.165 0.313 0.25 0.152 0.131 0.285 0.276 0.438 0.406 0.174 0.153 0.356 0.286 0.531 0.438 0.073 0.062 0.145 0.126 0.219 0.188 0.192 0.165 0.37 0.336 0.563 0.5 0.173 0.152 0.357 0.287 0.531 0.438 0.073 0.061 0.146 0.126 0.219 0.188 0.029 0.024 0.065 0.039 0.094 0.063 0.252 0.217 0.497 0.441 0.75 0.656 0.187 0.154 0.375 0.316 0.563 0.469 0.313 0.27 0.622 0.546 0.938 0.813 0.033 0.029 0.061 0.064 0.094 0.094 0.011 0.009 0.02 0.022 0.031 0.031 0.033 0.029 0.061 0.064 0.094 0.094 0.207 0.179 0.417 0.353 0.625 0.531 0.184 0.162 0.377 0.308 0.563 0.469 0.022 0.019 0.04 0.044 0.063 0.063 0.23 0.199 0.456 0.396 0.688 0.594 0.183 0.161 0.378 0.309 0.563 0.469 0.011 0.009 0.02 0.022 0.031 0.031 0.34 0.295 0.688 0.584 1.031 0.875 0.483 0.421 0.98 0.837 1.469 1.25 0.132 0.118 0.273 0.226 0.406 0.344 0.101 0.085 0.18 0.197 0.281 0.281 0.174 0.149 0.356 0.289 0.531 0.438 0.072 0.063 0.146 0.125 0.219 0.188 0.052 0.042 0.105 0.083 0.156 0.125 0.314 0.271 0.621 0.545 0.938 0.813 0.416 0.362 0.829 0.737 1.25 1.094 0.558 0.487 1.121 0.962 1.688 1.438 0.006 0.005 0.025-0.005 0.031 0 0.469 0.406 0.931 0.821 1.406 1.219 0.324 0.279 0.642 0.568 0.969 0.844 0.491 0.427 0.971 0.863 1.469 1.281 0.475 0.411 0.956 0.815 1.438 1.219 0.178 0.154 0.352 0.316 0.531 0.469 0.222 0.195 0.464 0.369 0.688 0.563 0.096 0.081 0.185 0.169 0.281 0.25 0.252 0.217 0.496 0.441 0.75 0.656 0.081 0.066 0.169 0.122 0.25 0.188 0.423 0.366 0.853 0.734 1.281 1.094 0.006 0.005 0.025-0.005 0.031 0 0.463 0.401 0.906 0.825 1.375 1.219 0.196 0.169 0.397 0.332 0.594 0.5 0.206 0.181 0.418 0.352 0.625 0.531 0.033 0.029 0.061 0.064 0.094 0.094 0.196 0.17 0.397 0.332 0.594 0.5 0.6 0.528 1.201 1.047 1.813 1.563 0.029 0.024 0.065 0.039 0.094 0.063 0.47 0.408 0.929 0.819 1.406 1.219 0.407 0.352 0.807 0.717 1.219 1.063 0.331 0.287 0.665 0.56 1 0.844 0.091 0.075 0.19 0.144 0.281 0.219 0.574 0.498 1.135 1.014 1.719 1.5 0.352 0.302 0.707 0.609 1.063 0.906 0.055 0.049 0.101 0.107 0.156 0.156 0.247 0.213 0.501 0.415 0.75 0.625 0.39 0.341 0.793 0.665 1.188 1 0.104 0.085 0.209 0.165 0.313 0.25 0.64 0.557 1.254 1.146 1.906 1.688 0.214 0.184 0.44 0.349 0.656 0.531 0.029 0.024 0.065 0.039 0.094 0.063 0.034 0.028 0.06 0.065 0.094 0.094 0.033 0.029 0.061 0.065 0.094 0.094 0.115 0.103 0.228 0.21 0.344 0.313 0.168 0.145 0.331 0.294 0.5 0.438 0.338 0.296 0.69 0.584 1.031 0.875 0.644 0.567 1.28 1.136 1.938 1.688 0.497 0.432 0.995 0.859 1.5 1.281 0.423 0.365 0.853 0.736 1.281 1.094 0.298 0.257 0.606 0.496 0.906 0.75 0.017 0.014 0.045 0.017 0.063 0.031 0.488 0.426 0.973 0.865 1.469 1.281 0.553 0.481 1.093 0.969 1.656 1.438 0.116 0.1 0.227 0.213 0.344 0.313 0.132 0.109 0.273 0.204 0.406 0.313 0.13 0.11 0.244 0.234 0.375 0.344 0.028 0.024 0.065 0.038 0.094 0.063 0.456 0.408 0.943 0.788 1.406 1.188 0.336 0.279 0.66 0.569 1 0.844 0.073 0.063 0.146 0.125 0.219 0.188 0.033 0.029 0.061 0.064 0.094 0.094 0.243 0.202 0.474 0.425 0.719 0.625 0.078 0.068 0.172 0.119 0.25 0.188 0.011 0.009 0.02 0.022 0.031 0.031s0.02 0.022 0.031 0.031c0.482 0.434 0.978 0.857 1.469 1.281 0.044 0.039 0.081 0.086 0.125 0.125 0.227 0.189 0.458 0.376 0.688 0.563 0.217 0.19 0.438 0.374 0.656 0.563 0.232 0.193 0.454 0.403 0.688 0.594 0.195 0.17 0.398 0.331 0.594 0.5 0.011 0.01 0.02 0.021 0.031 0.031 0.211 0.175 0.413 0.358 0.625 0.531 0.116 0.102 0.227 0.211 0.344 0.313 0.483 0.435 0.977 0.856 1.469 1.281 0.22 0.198 0.465 0.367 0.688 0.563 0.052 0.042 0.104 0.083 0.156 0.125 0.228 0.2 0.458 0.396 0.688 0.594 0.188 0.156 0.373 0.314 0.563 0.469 0.249 0.219 0.498 0.44 0.75 0.656 0.233 0.193 0.452 0.403 0.688 0.594 0.061 0.053 0.126 0.103 0.188 0.156 0.045 0.038 0.08 0.087 0.125 0.125 0.104 0.094 0.208 0.188 0.313 0.281 0.176 0.146 0.354 0.293 0.531 0.438 0.228 0.2 0.458 0.396 0.688 0.594 0.466 0.417 0.963 0.812 1.438 1.219 0.177 0.146 0.353 0.293 0.531 0.438 0.262 0.23 0.517 0.461 0.781 0.688 0.17 0.14 0.329 0.299 0.5 0.438 0.133 0.117 0.273 0.228 0.406 0.344 0.571 0.516 1.166 0.999 1.75 1.5 0.136 0.112 0.269 0.232 0.406 0.344 0.284 0.25 0.557 0.504 0.844 0.75 0.017 0.015 0.046 0.016 0.063 0.031 0.182 0.15 0.348 0.32 0.531 0.469 0.238 0.209 0.479 0.419 0.719 0.625 0.017 0.015 0.046 0.016 0.063 0.031 0.126 0.104 0.248 0.209 0.375 0.313 0.215 0.19 0.439 0.375 0.656 0.563 0.533 0.48 1.081 0.94 1.625 1.406 0.108 0.089 0.204 0.193 0.313 0.281 0.04 0.034 0.085 0.06 0.125 0.094 0.011 0.009 0.02 0.022 0.031 0.031 0.279 0.245 0.562 0.477 0.844 0.719 0.103 0.085 0.209 0.166 0.313 0.25 0.331 0.292 0.665 0.588 1 0.875 0.126 0.104 0.248 0.209 0.375 0.313 0.177 0.156 0.353 0.314 0.531 0.469 0.137 0.124 0.269 0.252 0.406 0.375 0.091 0.075 0.19 0.144 0.281 0.219 0.348 0.308 0.709 0.604 1.063 0.906 0.074 0.061 0.144 0.127 0.219 0.188 0.361 0.32 0.728 0.624 1.094 0.938 0.074 0.061 0.144 0.127 0.219 0.188 0.349 0.309 0.709 0.603 1.063 0.906 0.011 0.01 0.02 0.021 0.031 0.031 0.24 0.197 0.476 0.4 0.719 0.594 0.072 0.063 0.147 0.125 0.219 0.188 0.045 0.038 0.08 0.088 0.125 0.125 0.521 0.469 1.061 0.92 1.594 1.375 0.051 0.042 0.105 0.083 0.156 0.125 0.354 0.314 0.703 0.63 1.063 0.938 0.028 0.025 0.066 0.038 0.094 0.063 0.115 0.094 0.228 0.188 0.344 0.281 0.321 0.284 0.643 0.565 0.969 0.844 0.04 0.033 0.085 0.061 0.125 0.094 0.36 0.306 0.697 0.638 1.063 0.938 0.044 0.04 0.081 0.086 0.125 0.125 0.029 0.024 0.065 0.039 0.094 0.063 0.41 0.365 0.833 0.707 1.25 1.063 0.017 0.014 0.045 0.017 0.063 0.031 0.414 0.369 0.828 0.734 1.25 1.094 0.029 0.024 0.065 0.039 0.094 0.063 0.237 0.211 0.479 0.417 0.719 0.625 0.057 0.047 0.1 0.109 0.156 0.156 0.114 0.103 0.229 0.21 0.344 0.313 0.006 0.005 0.025-0.005 0.031 0 0.371 0.331 0.748 0.645 1.125 0.969 0.055 0.049 0.101 0.107 0.156 0.156 0.435 0.371 0.87 0.733 1.313 1.094 0.011 0.009 0.02 0.022 0.031 0.031 0.411 0.367 0.831 0.705 1.25 1.063 0.011 0.009 0.02 0.022 0.031 0.031 0.297 0.265 0.605 0.521 0.906 0.781 0.548 0.497 1.094 0.989 1.656 1.469 0.143 0.128 0.29 0.252 0.438 0.375 91.38-26.309 158.22-110.53 158.22-210.37 0-7.867-0.409-15.66-1.219-23.313-0.127-0.124-0.243-0.255-0.375-0.375-0.315-0.349-0.643-0.676-1-1-0.311-0.343-0.649-0.649-1-0.969-0.311-0.344-0.648-0.68-1-1-0.311-0.343-0.617-0.68-0.969-1-0.311-0.344-0.648-0.68-1-1-0.311-0.344-0.648-0.68-1-1-0.315-0.349-0.643-0.676-1-1-0.311-0.343-0.649-0.649-1-0.969-0.311-0.344-0.648-0.68-1-1-0.311-0.343-0.617-0.68-0.969-1-0.311-0.344-0.648-0.68-1-1-0.311-0.344-0.648-0.68-1-1-0.311-0.344-0.648-0.68-1-1-0.311-0.343-0.649-0.649-1-0.969-0.311-0.344-0.648-0.68-1-1-0.306-0.338-0.623-0.685-0.969-1-0.311-0.344-0.648-0.68-1-1-0.311-0.344-0.648-0.68-1-1-0.311-0.344-0.648-0.68-1-1-0.311-0.343-0.649-0.649-1-0.969-0.311-0.344-0.648-0.68-1-1-0.306-0.338-0.623-0.685-0.969-1-0.311-0.344-0.648-0.68-1-1-0.311-0.344-0.648-0.68-1-1-0.311-0.344-0.648-0.68-1-1-0.315-0.349-0.643-0.676-1-1-0.311-0.343-0.649-0.649-1-0.969-0.311-0.344-0.648-0.68-1-1-0.311-0.343-0.617-0.68-0.969-1-0.311-0.344-0.648-0.68-1-1-0.311-0.344-0.648-0.68-1-1-0.311-0.344-0.648-0.68-1-1-0.311-0.343-0.649-0.649-1-0.969-0.311-0.344-0.648-0.68-1-1-0.311-0.343-0.617-0.68-0.969-1-0.311-0.344-0.648-0.68-1-1-0.311-0.344-0.648-0.68-1-1-0.311-0.344-0.648-0.68-1-1-0.311-0.343-0.649-0.649-1-0.969-0.311-0.344-0.648-0.68-1-1-0.306-0.338-0.623-0.685-0.969-1-0.311-0.344-0.648-0.68-1-1-0.311-0.344-0.648-0.68-1-1-0.311-0.344-0.648-0.68-1-1-0.311-0.343-0.649-0.649-1-0.969-0.311-0.344-0.648-0.68-1-1-0.311-0.344-0.648-0.68-1-1-0.311-0.343-0.617-0.68-0.969-1-0.311-0.344-0.648-0.68-1-1-0.311-0.344-0.648-0.68-1-1-0.315-0.349-0.643-0.676-1-1-0.311-0.343-0.649-0.649-1-0.969-0.311-0.344-0.648-0.68-1-1-0.311-0.343-0.617-0.68-0.969-1-0.311-0.344-0.648-0.68-1-1-0.311-0.344-0.648-0.68-1-1-0.311-0.344-0.648-0.68-1-1-0.311-0.343-0.649-0.649-1-0.969-0.311-0.344-0.648-0.68-1-1-0.306-0.338-0.623-0.685-0.969-1-0.311-0.344-0.648-0.68-1-1-0.311-0.344-0.648-0.68-1-1-0.311-0.344-0.648-0.68-1-1-0.311-0.343-0.649-0.649-1-0.969-0.311-0.344-0.648-0.68-1-1-0.306-0.338-0.623-0.685-0.969-1-0.311-0.344-0.648-0.68-1-1-0.311-0.344-0.648-0.68-1-1-0.311-0.344-0.648-0.68-1-1-0.315-0.349-0.643-0.676-1-1-0.311-0.343-0.649-0.649-1-0.969-0.311-0.344-0.648-0.68-1-1-0.311-0.343-0.617-0.68-0.969-1-0.311-0.344-0.648-0.68-1-1-0.311-0.344-0.648-0.68-1-1-0.311-0.344-0.648-0.68-1-1-0.311-0.343-0.649-0.649-1-0.969-0.311-0.344-0.648-0.68-1-1-0.311-0.343-0.617-0.68-0.969-1-0.311-0.344-0.648-0.68-1-1-0.311-0.344-0.648-0.68-1-1-0.311-0.344-0.648-0.68-1-1-0.311-0.343-0.649-0.649-1-0.969-0.311-0.344-0.648-0.68-1-1-0.306-0.338-0.623-0.685-0.969-1-0.311-0.344-0.648-0.68-1-1-0.311-0.344-0.648-0.68-1-1-0.311-0.344-0.648-0.68-1-1-0.311-0.343-0.649-0.649-1-0.969-0.311-0.344-0.648-0.68-1-1-0.311-0.344-0.648-0.68-1-1-0.311-0.343-0.617-0.68-0.969-1-0.311-0.344-0.648-0.68-1-1-0.311-0.344-0.648-0.68-1-1-0.315-0.349-0.643-0.676-1-1-0.311-0.343-0.649-0.649-1-0.969-0.311-0.344-0.648-0.68-1-1-0.311-0.343-0.617-0.68-0.969-1-0.311-0.344-0.648-0.68-1-1-0.311-0.344-0.648-0.68-1-1-0.311-0.344-0.648-0.68-1-1-0.311-0.343-0.649-0.649-1-0.969-0.311-0.344-0.648-0.68-1-1-0.306-0.338-0.623-0.685-0.969-1-0.311-0.344-0.648-0.68-1-1-0.311-0.344-0.648-0.68-1-1-0.019-0.021-0.043-0.041-0.063-0.063-3.642-3.98-10.02-6.375-19.875-6.375"/>
 <g id="g8" fill-rule="evenodd">
  <path id="path10" fill-opacity="0.067" d="m256 1c-140.83 0-255 114.17-255 255s114.17 255 255 255 255-114.17 255-255-114.17-255-255-255m8.827 44.931c120.9 0 218.9 98 218.9 218.9s-98 218.9-218.9 218.9-218.93-98-218.93-218.9 98.03-218.9 218.93-218.9"/>
  <g id="g12" fill-opacity="0.129">
   <path id="path14" d="m256 4.433c-138.94 0-251.57 112.63-251.57 251.57s112.63 251.57 251.57 251.57 251.57-112.63 251.57-251.57-112.63-251.57-251.57-251.57m5.885 38.556c120.9 0 218.9 98 218.9 218.9s-98 218.9-218.9 218.9-218.93-98-218.93-218.9 98.03-218.9 218.93-218.9"/>
   <path id="path16" d="m256 8.356c-136.77 0-247.64 110.87-247.64 247.64s110.87 247.64 247.64 247.64 247.64-110.87 247.64-247.64-110.87-247.64-247.64-247.64m2.942 31.691c120.9 0 218.9 98 218.9 218.9s-98 218.9-218.9 218.9-218.93-98-218.93-218.9 98.03-218.9 218.93-218.9"/>
  </g>
  <path id="path18" d="m253.04 7.859c-135.42 0-245.19 109.78-245.19 245.19 0 135.42 109.78 245.19 245.19 245.19 135.42 0 245.19-109.78 245.19-245.19 0-135.42-109.78-245.19-245.19-245.19zm0 26.297c120.9 0 218.9 98 218.9 218.9s-98 218.9-218.9 218.9-218.93-98-218.93-218.9 98.03-218.9 218.93-218.9z" stroke-opacity="0.31" stroke="#000" stroke-width="4.904" fill="#fff"/>
 </g>
 <g id="g66" fill="#fff">
  <path id="path68" d="m352.31 106c-62.41 0-74.14 88.91-39.03 88.91 35.1 0 101.44-88.91 39.03-88.91m-96.44 10.875c-0.991-0.003-2.027 0.076-3.125 0.219-35.12 4.559-22.764 65.64-4.063 66.781 18.11 1.106 37.909-66.894 7.188-67m-60.844 24.19c-1.857 0.041-3.889 0.465-6.094 1.375-28.23 11.649-4.283 59.732 11.531 56.5 14.591-2.975 16.471-58.36-5.438-57.875m-45.906 37.688c-2.191 0.127-4.559 0.98-7.03 2.688-22.598 15.614 7.611 53.32 20.906 47.47 11.841-5.212 3.965-51.19-13.875-50.16m126.31 28.844c-47.947 0.425-108.97 24.725-119.59 72.31-11.804 52.818 48.58 126.09 111.59 126.09 30.999 0 66.748-27.978 73.44-63.44 5.109-27.04-60.13-16.204-57.781 1.688 2.808 21.446-15.717 32.01-33.875 18.19-57.806-44.01 95.71-65.967 85.59-126.09-3.281-19.496-28.64-29.02-59.37-28.75" transform="matrix(.92352 0 0 .92352 19.579 19.578)"/>
 </g>
</svg>
