<?xml version="1.0" encoding="UTF-8" standalone="no"?>
<svg xmlns="http://www.w3.org/2000/svg" height="512" viewBox="0 0 512 512" width="512" version="1.1">
 <metadata id="metadata72"/>
 <g id="g4" fill-rule="evenodd">
  <path id="path6" fill="#BF9E73" d="m471.95 253.05c0 120.9-98.01 218.9-218.9 218.9-120.9 0-218.9-98.01-218.9-218.9 0-120.9 98.01-218.9 218.9-218.9 120.9 0 218.9 98.01 218.9 218.9"/>
  <path id="path8" fill-opacity="0.235" d="m323.06 126.97c-0.242 0.009-0.483 0.04-0.719 0.094-10.155 2.547-23.15 8.342-31.719 12.188-1.212-0.2-2.303 0.063-3.344 0.281-1.708 0.358-3.597 0.983-5.813 1.875-4.431 1.783-10.153 4.609-16.969 8.219-13.632 7.22-31.552 17.651-50.844 29.31-38.583 23.323-82.62 51.52-108.34 68.25-1.612 1.088-2.164 3.205-1.281 4.938 0.305 0.599 0.757 1.083 1.281 1.438 0.276 0.396 0.614 0.74 1 1 0.276 0.396 0.614 0.74 1 1 0.277 0.397 0.612 0.74 1 1 0.262 0.374 0.576 0.685 0.938 0.938 0.281 0.42 0.628 0.759 1.031 1.031 0.275 0.394 0.616 0.74 1 1 0.276 0.396 0.614 0.74 1 1 0.276 0.396 0.614 0.74 1 1 0.277 0.397 0.612 0.74 1 1 0.262 0.374 0.576 0.685 0.938 0.938 0.273 0.407 0.612 0.731 1 1 0.28 0.416 0.631 0.761 1.031 1.031 0.276 0.396 0.614 0.74 1 1 0.276 0.396 0.614 0.74 1 1 0.277 0.397 0.612 0.74 1 1 0.262 0.376 0.574 0.683 0.938 0.938 0.281 0.42 0.628 0.759 1.031 1.031 0.278 0.405 0.608 0.735 1 1 0.275 0.394 0.616 0.74 1 1 0.276 0.396 0.614 0.74 1 1 0.277 0.397 0.612 0.74 1 1 0.262 0.376 0.574 0.683 0.938 0.938 0.269 0.402 0.618 0.733 1 1 0.281 0.42 0.628 0.759 1.031 1.031 0.275 0.394 0.616 0.74 1 1 0.276 0.396 0.614 0.74 1 1 0.276 0.396 0.614 0.74 1 1 0.277 0.397 0.612 0.739 1 1 0.262 0.374 0.576 0.685 0.938 0.938 0.273 0.407 0.612 0.731 1 1 0.28 0.416 0.631 0.761 1.031 1.031 0.276 0.396 0.614 0.74 1 1 0.276 0.396 0.614 0.74 1 1 0.277 0.397 0.612 0.739 1 1 0.262 0.376 0.574 0.683 0.938 0.938 0.273 0.407 0.612 0.731 1 1 0.28 0.416 0.631 0.761 1.031 1.031 0.275 0.394 0.616 0.74 1 1 0.276 0.396 0.614 0.74 1 1 0.277 0.397 0.612 0.739 1 1 0.262 0.376 0.574 0.683 0.938 0.938 0.281 0.42 0.628 0.759 1.031 1.031 0.278 0.405 0.608 0.735 1 1 0.275 0.394 0.616 0.74 1 1 0.276 0.396 0.614 0.74 1 1 0.277 0.397 0.612 0.739 1 1 0.268 0.385 0.596 0.712 0.969 0.969 0.265 0.387 0.598 0.709 0.969 0.969 0.04 0.06 0.082 0.131 0.125 0.188-7.93 11.574-16.05 24.05-23.875 37.28-0.998 1.69-0.571 3.853 1 5.03 0.03 0.023 0.063 0.041 0.094 0.063 0.237 0.359 0.545 0.666 0.906 0.938 0.049 0.037 0.106 0.06 0.156 0.094 0.23 0.33 0.506 0.653 0.844 0.906 0.049 0.037 0.106 0.06 0.156 0.094 0.23 0.33 0.506 0.653 0.844 0.906 0.043 0.033 0.081 0.063 0.125 0.094 0.231 0.335 0.534 0.65 0.875 0.906 0.043 0.033 0.081 0.063 0.125 0.094 0.231 0.335 0.502 0.619 0.844 0.875 0.037 0.027 0.088 0.037 0.125 0.063 0.236 0.352 0.519 0.67 0.875 0.938 0.03 0.023 0.063 0.041 0.094 0.063 0.237 0.359 0.545 0.666 0.906 0.938 0.037 0.028 0.087 0.036 0.125 0.063 0.235 0.351 0.52 0.671 0.875 0.938 0.049 0.037 0.106 0.06 0.156 0.094 0.23 0.33 0.506 0.653 0.844 0.906 0.043 0.033 0.081 0.063 0.125 0.094 0.231 0.335 0.534 0.65 0.875 0.906 0.043 0.033 0.081 0.063 0.125 0.094 0.231 0.335 0.502 0.65 0.844 0.906 0.061 0.046 0.125 0.084 0.188 0.125 0.226 0.32 0.484 0.597 0.813 0.844 0.03 0.023 0.063 0.041 0.094 0.063 0.237 0.359 0.545 0.666 0.906 0.938 0.03 0.023 0.063 0.041 0.094 0.063 0.237 0.359 0.545 0.666 0.906 0.938 0.049 0.037 0.106 0.06 0.156 0.094 0.23 0.33 0.506 0.653 0.844 0.906 0.049 0.037 0.106 0.06 0.156 0.094 0.23 0.33 0.506 0.653 0.844 0.906 0.043 0.033 0.081 0.063 0.125 0.094 0.231 0.335 0.502 0.65 0.844 0.906 0.061 0.046 0.125 0.084 0.188 0.125 0.226 0.32 0.484 0.597 0.813 0.844 0.03 0.023 0.063 0.041 0.094 0.063 0.237 0.359 0.545 0.666 0.906 0.938 0.03 0.023 0.063 0.041 0.094 0.063 0.237 0.359 0.545 0.666 0.906 0.938 0.049 0.037 0.106 0.06 0.156 0.094 0.23 0.33 0.506 0.653 0.844 0.906 0.049 0.037 0.106 0.06 0.156 0.094 0.23 0.33 0.506 0.653 0.844 0.906 0.043 0.033 0.081 0.063 0.125 0.094 0.231 0.335 0.534 0.65 0.875 0.906 0.043 0.033 0.081 0.063 0.125 0.094 0.231 0.335 0.502 0.619 0.844 0.875 0.037 0.027 0.088 0.037 0.125 0.063 0.236 0.352 0.519 0.67 0.875 0.938 0.03 0.023 0.063 0.041 0.094 0.063 0.237 0.359 0.545 0.666 0.906 0.938 0.049 0.037 0.106 0.06 0.156 0.094 0.104 0.15 0.217 0.302 0.344 0.438-0.705 1.488-1.421 2.91-1.906 3.75-0.968 1.711-0.503 3.884 1.094 5.03 0.031 0.023 0.062 0.041 0.094 0.063 0.245 0.353 0.54 0.674 0.906 0.938 0.031 0.023 0.062 0.041 0.094 0.063 0.245 0.353 0.54 0.643 0.906 0.906 0.012 0.008 0.019 0.023 0.031 0.031 0.249 0.369 0.589 0.696 0.969 0.969 0.012 0.008 0.019 0.023 0.031 0.031 0.249 0.369 0.589 0.696 0.969 0.969 0.012 0.008 0.019 0.023 0.031 0.031 0.249 0.369 0.589 0.696 0.969 0.969 0.012 0.008 0.019 0.023 0.031 0.031 0.249 0.369 0.558 0.696 0.938 0.969 0.038 0.027 0.086 0.037 0.125 0.063 0.243 0.346 0.514 0.678 0.875 0.938 0.031 0.023 0.062 0.041 0.094 0.063 0.245 0.353 0.54 0.674 0.906 0.938 0.027 0.019 0.066 0.012 0.094 0.031 0.243 0.348 0.544 0.677 0.906 0.938 0.012 0.008 0.019 0.023 0.031 0.031 0.249 0.369 0.589 0.696 0.969 0.969 0.012 0.008 0.019 0.023 0.031 0.031 0.249 0.369 0.589 0.696 0.969 0.969 0.012 0.008 0.019 0.023 0.031 0.031 0.249 0.369 0.558 0.696 0.938 0.969 0.031 0.022 0.063 0.041 0.094 0.063 0.245 0.354 0.539 0.673 0.906 0.938 0.031 0.023 0.062 0.041 0.094 0.063 0.245 0.353 0.54 0.674 0.906 0.938 0.039 0.028 0.085 0.036 0.125 0.063 0.24 0.339 0.521 0.652 0.875 0.906 0.012 0.008 0.019 0.023 0.031 0.031 0.249 0.369 0.589 0.696 0.969 0.969 0.012 0.008 0.019 0.023 0.031 0.031 0.249 0.369 0.589 0.696 0.969 0.969 0.012 0.008 0.019 0.023 0.031 0.031 0.249 0.369 0.558 0.696 0.938 0.969 0.031 0.022 0.063 0.041 0.094 0.063 0.245 0.354 0.539 0.673 0.906 0.938 0.031 0.023 0.062 0.041 0.094 0.063 0.245 0.353 0.54 0.674 0.906 0.938 0.031 0.023 0.062 0.041 0.094 0.063 0.245 0.353 0.54 0.643 0.906 0.906 0.012 0.008 0.019 0.023 0.031 0.031 0.249 0.369 0.589 0.696 0.969 0.969 0.012 0.008 0.019 0.023 0.031 0.031 0.249 0.369 0.589 0.696 0.969 0.969 0.012 0.008 0.019 0.023 0.031 0.031 0.249 0.369 0.589 0.696 0.969 0.969 0.012 0.008 0.019 0.023 0.031 0.031 0.249 0.369 0.558 0.696 0.938 0.969 0.038 0.027 0.086 0.037 0.125 0.063 0.243 0.346 0.514 0.678 0.875 0.938 0.031 0.023 0.062 0.041 0.094 0.063 0.245 0.353 0.54 0.643 0.906 0.906 0.012 0.008 0.019 0.023 0.031 0.031 0.249 0.369 0.589 0.696 0.969 0.969 0.012 0.008 0.019 0.023 0.031 0.031 0.249 0.369 0.589 0.696 0.969 0.969 0.012 0.008 0.019 0.023 0.031 0.031 0.249 0.369 0.589 0.696 0.969 0.969 0.012 0.008 0.019 0.023 0.031 0.031 0.249 0.369 0.558 0.696 0.938 0.969 0.038 0.027 0.086 0.037 0.125 0.063 0.243 0.346 0.514 0.678 0.875 0.938 0.031 0.023 0.062 0.041 0.094 0.063 0.245 0.353 0.54 0.674 0.906 0.938 0.027 0.019 0.066 0.012 0.094 0.031 0.243 0.348 0.544 0.677 0.906 0.938 0.012 0.008 0.019 0.023 0.031 0.031 0.249 0.369 0.589 0.696 0.969 0.969 0.012 0.008 0.019 0.023 0.031 0.031 0.249 0.369 0.589 0.696 0.969 0.969 0.012 0.008 0.019 0.023 0.031 0.031 0.249 0.369 0.558 0.696 0.938 0.969 0.031 0.022 0.063 0.041 0.094 0.063 0.245 0.354 0.539 0.673 0.906 0.938 0.031 0.023 0.062 0.041 0.094 0.063 0.245 0.353 0.54 0.674 0.906 0.938 0.031 0.023 0.062 0.041 0.094 0.063 0.245 0.353 0.54 0.643 0.906 0.906 0.012 0.008 0.019 0.023 0.031 0.031 0.249 0.369 0.589 0.696 0.969 0.969 0.012 0.008 0.019 0.023 0.031 0.031 0.249 0.369 0.589 0.696 0.969 0.969 0.012 0.008 0.019 0.023 0.031 0.031 0.249 0.369 0.558 0.696 0.938 0.969h0.031c0.02 0.014 0.043 0.017 0.063 0.031 0.247 0.362 0.532 0.7 0.906 0.969 0.031 0.023 0.062 0.041 0.094 0.063 0.245 0.353 0.54 0.674 0.906 0.938 0.031 0.023 0.062 0.041 0.094 0.063 0.245 0.353 0.54 0.643 0.906 0.906 0.012 0.008 0.019 0.023 0.031 0.031 0.249 0.369 0.589 0.696 0.969 0.969 0.012 0.008 0.019 0.023 0.031 0.031 0.249 0.369 0.589 0.696 0.969 0.969 0.012 0.008 0.019 0.023 0.031 0.031 0.249 0.369 0.589 0.696 0.969 0.969 0.012 0.008 0.019 0.023 0.031 0.031 0.249 0.369 0.558 0.696 0.938 0.969 0.038 0.027 0.086 0.037 0.125 0.063 0.243 0.346 0.514 0.678 0.875 0.938 0.031 0.023 0.062 0.041 0.094 0.063 0.245 0.353 0.54 0.674 0.906 0.938 0.027 0.019 0.066 0.012 0.094 0.031 0.243 0.348 0.544 0.677 0.906 0.938 0.012 0.008 0.019 0.023 0.031 0.031 0.249 0.369 0.589 0.696 0.969 0.969 0.012 0.008 0.019 0.023 0.031 0.031 0.249 0.369 0.589 0.696 0.969 0.969 0.012 0.008 0.019 0.023 0.031 0.031 0.249 0.369 0.558 0.696 0.938 0.969 0.031 0.022 0.063 0.041 0.094 0.063 0.245 0.354 0.539 0.673 0.906 0.938 0.031 0.023 0.062 0.041 0.094 0.063 0.245 0.353 0.54 0.674 0.906 0.938 0.039 0.028 0.085 0.036 0.125 0.063 0.24 0.339 0.521 0.652 0.875 0.906 0.012 0.008 0.019 0.023 0.031 0.031 0.249 0.369 0.589 0.696 0.969 0.969 0.012 0.008 0.019 0.023 0.031 0.031 0.249 0.369 0.589 0.696 0.969 0.969 0.012 0.008 0.019 0.023 0.031 0.031 0.249 0.369 0.558 0.696 0.938 0.969 0.031 0.022 0.063 0.041 0.094 0.063 0.245 0.354 0.539 0.673 0.906 0.938 0.031 0.023 0.062 0.041 0.094 0.063 0.245 0.353 0.54 0.674 0.906 0.938 0.031 0.023 0.062 0.041 0.094 0.063 0.245 0.353 0.54 0.643 0.906 0.906 0.012 0.008 0.019 0.023 0.031 0.031 0.249 0.369 0.589 0.696 0.969 0.969 0.012 0.008 0.019 0.023 0.031 0.031 0.249 0.369 0.589 0.696 0.969 0.969 0.012 0.008 0.019 0.023 0.031 0.031 0.249 0.369 0.589 0.696 0.969 0.969 0.012 0.008 0.019 0.023 0.031 0.031 0.249 0.369 0.558 0.696 0.938 0.969 0.031 0.023 0.062 0.041 0.094 0.063 0.245 0.353 0.54 0.674 0.906 0.938 0.031 0.023 0.062 0.041 0.094 0.063 0.245 0.353 0.54 0.643 0.906 0.906 0.012 0.008 0.019 0.023 0.031 0.031 0.249 0.369 0.589 0.696 0.969 0.969 0.012 0.008 0.019 0.023 0.031 0.031 0.249 0.369 0.589 0.696 0.969 0.969 0.012 0.008 0.019 0.023 0.031 0.031 0.249 0.369 0.589 0.696 0.969 0.969 0.012 0.008 0.019 0.023 0.031 0.031 0.249 0.369 0.558 0.696 0.938 0.969 0.038 0.027 0.086 0.037 0.125 0.063 0.243 0.346 0.514 0.678 0.875 0.938 0.031 0.023 0.062 0.041 0.094 0.063 0.245 0.353 0.54 0.674 0.906 0.938 0.027 0.019 0.066 0.012 0.094 0.031 0.243 0.348 0.544 0.677 0.906 0.938 0.012 0.008 0.019 0.023 0.031 0.031 0.249 0.369 0.589 0.696 0.969 0.969 0.012 0.008 0.019 0.023 0.031 0.031 0.249 0.369 0.589 0.696 0.969 0.969 0.012 0.008 0.019 0.023 0.031 0.031 0.249 0.369 0.558 0.696 0.938 0.969 0.031 0.022 0.063 0.041 0.094 0.063 0.245 0.354 0.539 0.673 0.906 0.938 0.031 0.023 0.062 0.041 0.094 0.063 0.245 0.353 0.54 0.674 0.906 0.938 0.039 0.028 0.085 0.036 0.125 0.063 0.241 0.34 0.52 0.651 0.875 0.906 0.012 0.008 0.019 0.023 0.031 0.031 0.249 0.369 0.589 0.696 0.969 0.969 0.012 0.008 0.019 0.023 0.031 0.031 0.249 0.369 0.589 0.696 0.969 0.969 0.012 0.008 0.019 0.023 0.031 0.031 0.249 0.369 0.558 0.696 0.938 0.969h0.031c0.02 0.014 0.043 0.017 0.063 0.031 0.247 0.362 0.532 0.7 0.906 0.969 0.031 0.023 0.062 0.041 0.094 0.063 0.245 0.353 0.54 0.674 0.906 0.938 0.031 0.023 0.062 0.041 0.094 0.063 0.245 0.353 0.54 0.643 0.906 0.906 0.012 0.008 0.019 0.023 0.031 0.031 0.249 0.369 0.589 0.696 0.969 0.969 0.012 0.008 0.019 0.023 0.031 0.031 0.249 0.369 0.589 0.696 0.969 0.969 0.012 0.008 0.019 0.023 0.031 0.031 0.249 0.369 0.589 0.696 0.969 0.969 0.012 0.008 0.019 0.023 0.031 0.031 0.087 0.129 0.179 0.257 0.281 0.375 1.441 0.028 2.864 0.063 4.313 0.063 114.12 0 207.85-87.34 218-198.81-0.114-0.101-0.219-0.197-0.344-0.281-0.258-0.366-0.58-0.654-0.938-0.906-0.276-0.416-0.631-0.756-1.031-1.031-0.27-0.394-0.586-0.736-0.969-1-0.28-0.411-0.629-0.761-1.031-1.031-0.275-0.391-0.613-0.74-1-1-0.275-0.391-0.613-0.74-1-1-0.258-0.366-0.58-0.654-0.938-0.906-0.276-0.416-0.631-0.756-1.031-1.031-0.27-0.394-0.586-0.736-0.969-1-0.28-0.411-0.629-0.761-1.031-1.031-0.275-0.391-0.613-0.74-1-1-0.275-0.391-0.613-0.74-1-1-0.267-0.38-0.596-0.712-0.969-0.969-0.261-0.378-0.603-0.679-0.969-0.938-0.276-0.416-0.631-0.756-1.031-1.031-0.279-0.408-0.6-0.763-1-1.031-0.275-0.391-0.613-0.74-1-1-0.275-0.391-0.613-0.74-1-1-0.275-0.391-0.613-0.74-1-1-0.258-0.366-0.58-0.654-0.938-0.906-0.276-0.416-0.631-0.756-1.031-1.031-0.27-0.394-0.586-0.736-0.969-1-0.28-0.411-0.629-0.761-1.031-1.031-0.275-0.391-0.613-0.74-1-1-0.275-0.391-0.613-0.74-1-1-0.258-0.366-0.58-0.654-0.938-0.906-0.276-0.416-0.631-0.756-1.031-1.031-0.27-0.394-0.586-0.736-0.969-1-0.28-0.411-0.629-0.761-1.031-1.031-0.275-0.391-0.613-0.74-1-1-0.275-0.391-0.613-0.74-1-1-0.258-0.366-0.58-0.654-0.938-0.906-0.268-0.404-0.615-0.728-1-1-0.28-0.422-0.624-0.754-1.031-1.031-0.279-0.408-0.6-0.763-1-1.031-0.275-0.391-0.613-0.74-1-1-0.275-0.391-0.613-0.74-1-1-0.267-0.379-0.596-0.712-0.969-0.969-0.261-0.378-0.603-0.679-0.969-0.938-0.276-0.416-0.631-0.756-1.031-1.031-0.279-0.408-0.6-0.763-1-1.031-0.275-0.391-0.613-0.74-1-1-0.275-0.391-0.613-0.74-1-1-0.275-0.391-0.613-0.74-1-1-0.258-0.366-0.58-0.654-0.938-0.906-0.276-0.416-0.631-0.756-1.031-1.031-0.27-0.394-0.586-0.736-0.969-1-0.28-0.411-0.629-0.761-1.031-1.031-0.275-0.391-0.613-0.74-1-1-0.275-0.391-0.613-0.74-1-1-0.258-0.366-0.58-0.654-0.938-0.906-0.276-0.416-0.631-0.756-1.031-1.031-0.27-0.394-0.586-0.736-0.969-1-0.28-0.411-0.629-0.761-1.031-1.031-0.275-0.391-0.613-0.74-1-1-0.275-0.391-0.613-0.74-1-1-0.267-0.379-0.596-0.712-0.969-0.969-0.261-0.378-0.603-0.679-0.969-0.938-0.28-0.422-0.624-0.754-1.031-1.031-0.279-0.408-0.6-0.763-1-1.031-0.275-0.391-0.613-0.74-1-1-0.275-0.391-0.613-0.74-1-1-0.275-0.391-0.613-0.74-1-1-0.258-0.366-0.58-0.654-0.938-0.906-0.276-0.416-0.631-0.756-1.031-1.031-0.27-0.394-0.586-0.736-0.969-1-0.28-0.411-0.629-0.761-1.031-1.031-0.275-0.391-0.613-0.74-1-1-0.275-0.391-0.613-0.74-1-1-0.258-0.366-0.58-0.654-0.938-0.906-0.276-0.416-0.631-0.756-1.031-1.031-0.27-0.394-0.586-0.736-0.969-1-0.28-0.411-0.629-0.761-1.031-1.031-0.275-0.391-0.613-0.74-1-1-0.275-0.391-0.613-0.74-1-1-0.258-0.366-0.58-0.654-0.938-0.906-0.268-0.404-0.615-0.728-1-1-0.28-0.422-0.624-0.754-1.031-1.031-0.279-0.408-0.6-0.763-1-1.031-0.275-0.391-0.613-0.74-1-1-0.275-0.391-0.613-0.74-1-1-0.267-0.379-0.596-0.712-0.969-0.969-0.261-0.378-0.603-0.679-0.969-0.938-0.276-0.416-0.631-0.756-1.031-1.031-0.279-0.408-0.6-0.763-1-1.031-0.275-0.391-0.613-0.74-1-1-0.275-0.391-0.613-0.74-1-1-0.275-0.391-0.613-0.74-1-1-0.258-0.366-0.58-0.654-0.938-0.906-0.276-0.416-0.631-0.756-1.031-1.031-0.27-0.394-0.586-0.736-0.969-1-0.28-0.411-0.629-0.761-1.031-1.031-0.275-0.391-0.613-0.74-1-1-0.275-0.391-0.613-0.74-1-1-0.258-0.366-0.58-0.654-0.938-0.906-0.276-0.416-0.631-0.756-1.031-1.031-0.27-0.394-0.586-0.736-0.969-1-0.28-0.411-0.629-0.761-1.031-1.031-0.275-0.391-0.613-0.74-1-1-0.275-0.391-0.613-0.74-1-1-0.267-0.379-0.596-0.712-0.969-0.969-0.261-0.378-0.603-0.679-0.969-0.938-0.28-0.422-0.624-0.754-1.031-1.031-0.279-0.408-0.6-0.763-1-1.031-0.275-0.391-0.613-0.74-1-1-0.275-0.391-0.613-0.74-1-1-0.272-0.387-0.617-0.71-1-0.969-0.26-0.375-0.573-0.681-0.938-0.938-0.276-0.416-0.631-0.756-1.031-1.031-0.27-0.394-0.586-0.736-0.969-1-0.28-0.411-0.629-0.761-1.031-1.031-0.275-0.391-0.613-0.74-1-1-0.275-0.391-0.613-0.74-1-1-0.258-0.366-0.58-0.654-0.938-0.906-0.276-0.416-0.631-0.756-1.031-1.031-0.27-0.394-0.586-0.736-0.969-1-0.28-0.411-0.629-0.761-1.031-1.031-0.275-0.391-0.613-0.74-1-1-0.275-0.391-0.613-0.74-1-1-0.258-0.366-0.58-0.654-0.938-0.906-0.268-0.404-0.615-0.728-1-1-0.275-0.414-0.602-0.756-1-1.031-0.28-0.411-0.629-0.761-1.031-1.031-0.275-0.391-0.613-0.74-1-1-0.275-0.391-0.613-0.74-1-1-0.267-0.379-0.596-0.712-0.969-0.969-0.261-0.378-0.603-0.679-0.969-0.938-0.276-0.416-0.631-0.756-1.031-1.031-0.279-0.408-0.6-0.763-1-1.031-0.275-0.391-0.613-0.74-1-1-0.275-0.391-0.613-0.74-1-1-0.275-0.391-0.613-0.74-1-1-0.258-0.366-0.58-0.654-0.938-0.906-0.276-0.416-0.631-0.756-1.031-1.031-0.27-0.394-0.586-0.736-0.969-1-0.28-0.411-0.629-0.761-1.031-1.031-0.275-0.391-0.613-0.74-1-1-0.275-0.391-0.613-0.74-1-1-0.258-0.366-0.58-0.654-0.938-0.906-0.276-0.416-0.631-0.756-1.031-1.031-0.27-0.394-0.586-0.736-0.969-1-0.28-0.411-0.629-0.761-1.031-1.031-0.275-0.391-0.613-0.74-1-1-0.275-0.391-0.613-0.74-1-1-0.267-0.379-0.596-0.712-0.969-0.969-0.756-1.095-2.032-1.727-3.375-1.656z"/>
  <path id="path10" fill-opacity="0.067" d="m256 1c-140.83 0-255 114.17-255 255s114.17 255 255 255 255-114.17 255-255-114.17-255-255-255m8.827 44.931c120.9 0 218.9 98 218.9 218.9s-98 218.9-218.9 218.9-218.93-98-218.93-218.9 98.03-218.9 218.93-218.9"/>
  <g id="g12" fill-opacity="0.129">
   <path id="path14" d="m256 4.433c-138.94 0-251.57 112.63-251.57 251.57s112.63 251.57 251.57 251.57 251.57-112.63 251.57-251.57-112.63-251.57-251.57-251.57m5.885 38.556c120.9 0 218.9 98 218.9 218.9s-98 218.9-218.9 218.9-218.93-98-218.93-218.9 98.03-218.9 218.93-218.9"/>
   <path id="path16" d="m256 8.356c-136.77 0-247.64 110.87-247.64 247.64s110.87 247.64 247.64 247.64 247.64-110.87 247.64-247.64-110.87-247.64-247.64-247.64m2.942 31.691c120.9 0 218.9 98 218.9 218.9s-98 218.9-218.9 218.9-218.93-98-218.93-218.9 98.03-218.9 218.93-218.9"/>
  </g>
  <path id="path18" d="m253.04 7.859c-135.42 0-245.19 109.78-245.19 245.19 0 135.42 109.78 245.19 245.19 245.19 135.42 0 245.19-109.78 245.19-245.19 0-135.42-109.78-245.19-245.19-245.19zm0 26.297c120.9 0 218.9 98 218.9 218.9s-98 218.9-218.9 218.9-218.93-98-218.93-218.9 98.03-218.9 218.93-218.9z" stroke-opacity="0.31" stroke="#000" stroke-width="4.904" fill="#fff"/>
 </g>
 <path id="path66" stroke-linejoin="round" d="m323.28 130.81c-10.01 2.509-24.06 8.779-32.543 12.589-7.132-5.686-131.95 73.58-183.33 107.01 30.668-11.717 98.7-37.25 104.36-30.632 6.298 7.364-40.26 55.13-79.17 120.95 32.11-34.574 93.08-113.7 104.32-107.93 0.734 2.183-11.323 20.15-27.27 46.29-19.02 31.17-33.25 59.13-47.26 85.962 1.468-1.115-2.347 7.454-4.285 10.811 17.355-19.487 60.64-81.1 78.4-106.45 16.238-23.18 37.839-61.14 53.796-61.35 26.612-0.356 59.61 53.49 94.02 134.05 5.868 13.74 5.083 15.979 8.26 24.952 2.472 1.939 3.247-3.424 4.02-4.306-0.367-7.931-4.728-24.692-12.157-51.26-16.34-58.45-33.33-122.16-73.73-151.16l2.6-16.488c2.886-3.746 7.375-9 9.965-13.02z" fill-rule="evenodd" stroke="#fff" stroke-linecap="round" stroke-width="7.702" fill="#fff"/>
</svg>
