<?xml version="1.0" encoding="UTF-8" standalone="no"?>
<svg xmlns="http://www.w3.org/2000/svg" viewBox="0 0 512 512">
 <g fill-rule="evenodd">
  <path d="m471.95 253.05c0 120.9-98.01 218.91-218.91 218.91s-218.91-98.01-218.91-218.91 98.01-218.91 218.91-218.91 218.91 98.01 218.91 218.91" fill="#BF9E73"/>
  <path d="m256 1c-140.83 0-255 114.17-255 255s114.17 255 255 255 255-114.17 255-255-114.17-255-255-255m8.827 44.931c120.9 0 218.9 98 218.9 218.9s-98 218.9-218.9 218.9-218.93-98-218.93-218.9 98.03-218.9 218.93-218.9" fill-opacity="0.067"/>
  <g fill-opacity="0.129">
   <path d="m256 4.43c-138.94 0-251.57 112.63-251.57 251.57s112.63 251.57 251.57 251.57 251.57-112.63 251.57-251.57-112.63-251.57-251.57-251.57m5.885 38.556c120.9 0 218.9 98 218.9 218.9s-98 218.9-218.9 218.9-218.93-98-218.93-218.9 98.03-218.9 218.93-218.9"/>
   <path d="m256 8.36c-136.77 0-247.64 110.87-247.64 247.64s110.87 247.64 247.64 247.64 247.64-110.87 247.64-247.64-110.87-247.64-247.64-247.64m2.942 31.691c120.9 0 218.9 98 218.9 218.9s-98 218.9-218.9 218.9-218.93-98-218.93-218.9 98.03-218.9 218.93-218.9"/>
  </g>
  <path stroke="#000" stroke-width="4.904" d="m253.04 7.86c-135.42 0-245.19 109.78-245.19 245.19 0 135.42 109.78 245.19 245.19 245.19 135.42 0 245.19-109.78 245.19-245.19 0-135.42-109.78-245.19-245.19-245.19m0 26.297c120.9 0 218.9 98 218.9 218.9s-98 218.9-218.9 218.9-218.93-98-218.93-218.9 98.03-218.9 218.93-218.9z" stroke-opacity="0.31" fill="#fff"/>
 </g>
 <path opacity="0.25" d="m255.94 134.5c-4.47 0.004-6.325 0.127-10.131 0.672-19.396 2.777-37.02 13.894-48.06 30.32-2.424 3.606-5.265 8.964-6.828 12.869-2.432 6.078-3.881 11.916-4.758 19.18-0.201 1.662-0.219 5.335-0.283 55.08-0.029 22.806-0.051 33.666-0.082 41.24l-33.2-33.2h-53.794l0.041 24.1c0.046 26.09 0.016 24.834 0.713 29.625 2.181 14.997 9.19 28.852 19.842 39.504l117.47 117.47c5.336 0.389 10.725 0.596 16.16 0.596 100.65 0 185.43-67.936 211-160.45l-50.848-50.848h-1.943l-105.68-105.68c-10.427-10.427-24.11-17.588-39.37-19.809-3.701-0.538-5.782-0.674-10.254-0.67"/>
 <path d="m166.05 374.41c-15.13-0.733-29.11-5.969-40.775-15.277-13.943-11.123-23.15-27.15-25.711-44.751-0.697-4.791-0.667-3.531-0.713-29.625l-0.043-24.1h53.796v22.13c0 18.661 0.029 22.318 0.178 23.301 1.015 6.686 5.895 12.04 12.495 13.705 1.689 0.427 4.964 0.547 6.695 0.246 3.01-0.523 6.04-1.963 8.204-3.9 2.825-2.527 4.478-5.37 5.417-9.315 0.208-0.875 0.223-3.605 0.288-54.22 0.064-49.741 0.083-53.41 0.284-55.08 0.877-7.266 2.325-13.1 4.757-19.18 1.563-3.905 4.405-9.262 6.829-12.868 11.04-16.426 28.661-27.545 48.06-30.32 3.806-0.545 5.661-0.668 10.131-0.672 4.472-0.004 6.553 0.132 10.254 0.671 30.343 4.415 54.46 28.359 59.12 58.689 0.725 4.72 0.723 4.69 0.775 18.321l0.048 12.611-0.468 0.127c-0.257 0.07-7.462 2.216-16.01 4.769l-15.544 4.642-10.735-4.999-10.735-4.999-0.067-11.03c-0.074-12.06-0.022-11.191-0.813-13.609-1.829-5.591-6.668-9.829-12.628-11.06-1.498-0.31-4.706-0.316-6.231-0.012-5.516 1.099-10.05 4.787-12.25 9.959-0.48 1.131-0.731 1.971-1.081 3.632-0.175 0.829-0.202 6.198-0.269 53.725-0.081 57.666-0.025 53.34-0.747 58.39-1.845 12.911-7.19 24.823-15.786 35.19-1.695 2.044-6.397 6.746-8.457 8.46-10.1 8.402-21.602 13.648-34.32 15.661-4.293 0.679-9.751 0.986-13.938 0.783m172.88-0.037c-9.821-0.616-18.737-2.989-27.303-7.267-3.1-1.548-4.838-2.547-7.552-4.339-15.334-10.128-26.323-26.341-29.964-44.21-0.839-4.119-1.225-7.339-1.41-11.77-0.123-2.952-0.175-45.546-0.056-45.666 0.037-0.037 0.355 0.071 0.706 0.241 2.295 1.11 20.678 9.642 20.777 9.643 0.068 0 7.196-2.109 15.841-4.688s15.815-4.718 15.933-4.753c0.204-0.061 0.215 1.071 0.215 22.554 0 24.622-0.022 23.772 0.686 26.25 0.168 0.587 0.63 1.732 1.026 2.546 2.329 4.772 6.631 8.06 11.896 9.104 1.469 0.29 4.602 0.288 6.081-0.003 5.957-1.175 10.84-5.437 12.725-11.11 0.86-2.586 0.789-0.337 0.832-26.58l0.038-23.67h53.79l-0.043 24.04c-0.047 26-0.018 24.797-0.711 29.625-1.742 12.13-6.796 23.87-14.389 33.435-2.488 3.134-6.265 7.094-9.06 9.497-11.55 9.937-25.15 15.666-40.34 16.992-2.02 0.176-7.751 0.252-9.721 0.128" fill="#fff"/>
</svg>
