<?xml version="1.0" encoding="UTF-8" standalone="no"?>
<svg xmlns="http://www.w3.org/2000/svg" height="512" viewBox="0 0 512 512" width="512" version="1.1">
 <metadata id="metadata72"/>
 <path id="path4" d="m471.95 253.05c0 120.9-98.01 218.9-218.9 218.9-120.9 0-218.9-98.01-218.9-218.9 0-120.9 98.01-218.9 218.9-218.9 120.9 0 218.9 98.01 218.9 218.9" fill-rule="evenodd" fill="#BF9E73"/>
 <path id="path6" fill-opacity="0.235" d="m262.44 106c-60.36 0-102.97 38.16-102.97 86.09 0 24.09 9.288 42.509 22.781 56.13 0.118 0.123 0.225 0.253 0.344 0.375 0.246 0.245 0.502 0.477 0.75 0.719 0.087 0.09 0.163 0.192 0.25 0.281 0.08 0.077 0.17 0.142 0.25 0.219 0.104 0.103 0.208 0.21 0.313 0.313 0.147 0.154 0.289 0.316 0.438 0.469 0.079 0.076 0.171 0.143 0.25 0.219 0.104 0.103 0.208 0.21 0.313 0.313 0.147 0.154 0.289 0.316 0.438 0.469 0.079 0.076 0.171 0.143 0.25 0.219 0.194 0.192 0.367 0.404 0.563 0.594 0.113 0.117 0.23 0.228 0.344 0.344 0.021 0.02 0.041 0.042 0.063 0.063 0.419 0.415 0.823 0.844 1.25 1.25 0.106 0.104 0.206 0.209 0.313 0.313 0.062 0.064 0.125 0.124 0.188 0.188 0.08 0.077 0.17 0.142 0.25 0.219 0.105 0.104 0.207 0.209 0.313 0.313 0.147 0.154 0.289 0.316 0.438 0.469 0.08 0.077 0.17 0.142 0.25 0.219 0.104 0.103 0.208 0.21 0.313 0.313 0.147 0.154 0.289 0.316 0.438 0.469 0.079 0.076 0.171 0.143 0.25 0.219 0.104 0.103 0.208 0.21 0.313 0.313 0.147 0.154 0.289 0.316 0.438 0.469 0.079 0.076 0.171 0.143 0.25 0.219 0.104 0.103 0.208 0.21 0.313 0.313 0.147 0.154 0.289 0.316 0.438 0.469 0.079 0.076 0.171 0.143 0.25 0.219 0.203 0.207 0.389 0.42 0.594 0.625 0.212 0.205 0.412 0.422 0.625 0.625 0.249 0.245 0.498 0.477 0.75 0.719 0.105 0.104 0.207 0.209 0.313 0.313 0.147 0.154 0.289 0.316 0.438 0.469 0.08 0.077 0.17 0.142 0.25 0.219 0.105 0.104 0.207 0.209 0.313 0.313 0.147 0.154 0.289 0.316 0.438 0.469 0.08 0.077 0.17 0.142 0.25 0.219 0.104 0.103 0.208 0.21 0.313 0.313 0.147 0.154 0.289 0.316 0.438 0.469 0.079 0.076 0.171 0.143 0.25 0.219 0.104 0.103 0.208 0.21 0.313 0.313 0.147 0.154 0.289 0.316 0.438 0.469 0.079 0.076 0.171 0.143 0.25 0.219 0.203 0.207 0.389 0.42 0.594 0.625 0.212 0.205 0.412 0.422 0.625 0.625 0.249 0.245 0.498 0.477 0.75 0.719 0.136 0.135 0.269 0.272 0.406 0.406 0.118 0.123 0.225 0.253 0.344 0.375 0.08 0.077 0.17 0.142 0.25 0.219 0.105 0.104 0.207 0.209 0.313 0.313 0.147 0.154 0.289 0.316 0.438 0.469 0.08 0.077 0.17 0.142 0.25 0.219 0.104 0.103 0.208 0.21 0.313 0.313 0.147 0.154 0.289 0.316 0.438 0.469 0.079 0.076 0.171 0.143 0.25 0.219 0.104 0.103 0.208 0.21 0.313 0.313 0.147 0.154 0.289 0.316 0.438 0.469 0.079 0.076 0.171 0.143 0.25 0.219 0.331 0.327 0.633 0.679 0.969 1 0.456 0.452 0.91 0.903 1.375 1.344 0.011 0.01 0.021 0.021 0.031 0.031 0.118 0.123 0.225 0.253 0.344 0.375 0.08 0.077 0.17 0.142 0.25 0.219 0.105 0.104 0.207 0.209 0.313 0.313 0.147 0.154 0.289 0.316 0.438 0.469 0.08 0.077 0.17 0.142 0.25 0.219 0.104 0.103 0.208 0.21 0.313 0.313 0.147 0.154 0.289 0.316 0.438 0.469 0.079 0.076 0.171 0.143 0.25 0.219 0.104 0.103 0.208 0.21 0.313 0.313 0.147 0.154 0.289 0.316 0.438 0.469 0.079 0.076 0.171 0.143 0.25 0.219 0.104 0.103 0.208 0.21 0.313 0.313 0.147 0.154 0.289 0.316 0.438 0.469 0.079 0.076 0.171 0.143 0.25 0.219 0.203 0.207 0.389 0.42 0.594 0.625 0.212 0.205 0.412 0.422 0.625 0.625 0.106 0.104 0.206 0.209 0.313 0.313 0.062 0.064 0.125 0.123 0.188 0.188 0.08 0.077 0.17 0.142 0.25 0.219 0.105 0.104 0.207 0.209 0.313 0.313 0.147 0.154 0.289 0.316 0.438 0.469 0.08 0.077 0.17 0.142 0.25 0.219 0.104 0.103 0.208 0.21 0.313 0.313 0.147 0.154 0.289 0.316 0.438 0.469 0.079 0.076 0.171 0.143 0.25 0.219 0.104 0.103 0.208 0.21 0.313 0.313 0.147 0.154 0.289 0.316 0.438 0.469 0.079 0.076 0.171 0.143 0.25 0.219 0.104 0.103 0.208 0.21 0.313 0.313 0.147 0.154 0.289 0.316 0.438 0.469 0.079 0.076 0.171 0.143 0.25 0.219 0.203 0.207 0.389 0.42 0.594 0.625 0.212 0.205 0.412 0.422 0.625 0.625 0.249 0.245 0.498 0.477 0.75 0.719 0.105 0.104 0.207 0.209 0.313 0.313 0.147 0.154 0.289 0.316 0.438 0.469 0.08 0.077 0.17 0.142 0.25 0.219 0.105 0.104 0.207 0.209 0.313 0.313 0.147 0.154 0.289 0.316 0.438 0.469 0.08 0.077 0.17 0.142 0.25 0.219 0.104 0.103 0.208 0.21 0.313 0.313 0.147 0.154 0.289 0.316 0.438 0.469 0.079 0.076 0.171 0.143 0.25 0.219 0.104 0.103 0.208 0.21 0.313 0.313 0.147 0.154 0.289 0.316 0.438 0.469 0.079 0.076 0.171 0.143 0.25 0.219 0.331 0.327 0.633 0.679 0.969 1 0.456 0.452 0.91 0.903 1.375 1.344 0.011 0.01 0.021 0.021 0.031 0.031 0.118 0.123 0.225 0.253 0.344 0.375 0.08 0.077 0.17 0.142 0.25 0.219 0.105 0.104 0.207 0.209 0.313 0.313 0.147 0.154 0.289 0.316 0.438 0.469 0.08 0.077 0.17 0.142 0.25 0.219 0.104 0.103 0.208 0.21 0.313 0.313 0.147 0.154 0.289 0.316 0.438 0.469 0.079 0.076 0.171 0.143 0.25 0.219 0.104 0.103 0.208 0.21 0.313 0.313 0.147 0.154 0.289 0.316 0.438 0.469 0.079 0.076 0.171 0.143 0.25 0.219 0.194 0.192 0.367 0.404 0.563 0.594 0.113 0.117 0.23 0.228 0.344 0.344 0.021 0.02 0.041 0.042 0.063 0.063 0.419 0.415 0.823 0.844 1.25 1.25 0.106 0.104 0.206 0.209 0.313 0.313 0.062 0.064 0.125 0.123 0.188 0.188 0.08 0.077 0.17 0.142 0.25 0.219 0.105 0.104 0.207 0.209 0.313 0.313 0.147 0.154 0.289 0.316 0.438 0.469 0.08 0.077 0.17 0.142 0.25 0.219 0.104 0.103 0.208 0.21 0.313 0.313 0.147 0.154 0.289 0.316 0.438 0.469 0.079 0.076 0.171 0.143 0.25 0.219 0.104 0.103 0.208 0.21 0.313 0.313 0.147 0.154 0.289 0.316 0.438 0.469 0.079 0.076 0.171 0.143 0.25 0.219 0.104 0.103 0.208 0.21 0.313 0.313 0.147 0.154 0.289 0.316 0.438 0.469 0.079 0.076 0.171 0.143 0.25 0.219 0.203 0.207 0.389 0.42 0.594 0.625 0.212 0.205 0.412 0.422 0.625 0.625 0.249 0.245 0.498 0.477 0.75 0.719 0.105 0.104 0.207 0.209 0.313 0.313 0.147 0.154 0.289 0.316 0.438 0.469 0.08 0.077 0.17 0.142 0.25 0.219 0.105 0.104 0.207 0.209 0.313 0.313 0.147 0.154 0.289 0.316 0.438 0.469 0.08 0.077 0.17 0.142 0.25 0.219 0.104 0.103 0.208 0.21 0.313 0.313 0.147 0.154 0.289 0.316 0.438 0.469 0.079 0.076 0.171 0.143 0.25 0.219 0.104 0.103 0.208 0.21 0.313 0.313 0.147 0.154 0.289 0.316 0.438 0.469 0.079 0.076 0.171 0.143 0.25 0.219 0.203 0.207 0.389 0.42 0.594 0.625 0.212 0.205 0.412 0.422 0.625 0.625 0.249 0.245 0.498 0.477 0.75 0.719 0.136 0.135 0.269 0.272 0.406 0.406 0.118 0.123 0.225 0.253 0.344 0.375 0.08 0.077 0.17 0.142 0.25 0.219 0.105 0.104 0.207 0.209 0.313 0.313 0.147 0.154 0.289 0.316 0.438 0.469 0.08 0.077 0.17 0.142 0.25 0.219 0.104 0.103 0.208 0.21 0.313 0.313 0.147 0.154 0.289 0.316 0.438 0.469 0.079 0.076 0.171 0.143 0.25 0.219 0.104 0.103 0.208 0.21 0.313 0.313 0.147 0.154 0.289 0.316 0.438 0.469 0.079 0.076 0.171 0.143 0.25 0.219 0.331 0.327 0.633 0.679 0.969 1 0.456 0.452 0.91 0.903 1.375 1.344 0.011 0.01 0.021 0.021 0.031 0.031 0.118 0.123 0.225 0.253 0.344 0.375 0.08 0.077 0.17 0.142 0.25 0.219 0.105 0.104 0.207 0.209 0.313 0.313 0.147 0.154 0.289 0.316 0.438 0.469 0.08 0.077 0.17 0.142 0.25 0.219 0.103 0.105 0.209 0.208 0.313 0.313 0.223 0.234 0.462 0.457 0.688 0.688 0.104 0.103 0.208 0.21 0.313 0.313 0.147 0.154 0.289 0.316 0.438 0.469 0.079 0.076 0.171 0.143 0.25 0.219 0.104 0.103 0.208 0.21 0.313 0.313 0.147 0.154 0.289 0.316 0.438 0.469 0.079 0.076 0.171 0.143 0.25 0.219 0.203 0.207 0.389 0.42 0.594 0.625 0.212 0.205 0.412 0.422 0.625 0.625 0.106 0.104 0.206 0.209 0.313 0.313 0.062 0.064 0.125 0.123 0.188 0.188 0.08 0.077 0.17 0.142 0.25 0.219 0.105 0.104 0.207 0.209 0.313 0.313 0.147 0.154 0.289 0.316 0.438 0.469 0.08 0.077 0.17 0.142 0.25 0.219 0.104 0.103 0.208 0.21 0.313 0.313 0.147 0.154 0.289 0.316 0.438 0.469 0.079 0.076 0.171 0.143 0.25 0.219 0.104 0.103 0.208 0.21 0.313 0.313 0.147 0.154 0.289 0.316 0.438 0.469 0.079 0.076 0.171 0.143 0.25 0.219 0.104 0.103 0.208 0.21 0.313 0.313 0.147 0.154 0.289 0.316 0.438 0.469 0.079 0.076 0.171 0.143 0.25 0.219 0.203 0.207 0.389 0.42 0.594 0.625 0.212 0.205 0.412 0.422 0.625 0.625 0.249 0.245 0.498 0.477 0.75 0.719 0.105 0.104 0.207 0.209 0.313 0.313 0.147 0.154 0.289 0.316 0.438 0.469 0.08 0.077 0.17 0.142 0.25 0.219 0.105 0.104 0.207 0.209 0.313 0.313 0.147 0.154 0.289 0.316 0.438 0.469 0.08 0.077 0.17 0.142 0.25 0.219 0.104 0.103 0.208 0.21 0.313 0.313 0.147 0.154 0.289 0.316 0.438 0.469 0.079 0.076 0.171 0.143 0.25 0.219 0.104 0.103 0.208 0.21 0.313 0.313 0.147 0.154 0.289 0.316 0.438 0.469 0.079 0.076 0.171 0.143 0.25 0.219 0.33 0.327 0.633 0.679 0.969 1 0.456 0.452 0.91 0.903 1.375 1.344 0.011 0.01 0.021 0.021 0.031 0.031 0.118 0.123 0.225 0.253 0.344 0.375 0.08 0.077 0.17 0.142 0.25 0.219 0.105 0.104 0.207 0.209 0.313 0.313 0.147 0.154 0.289 0.316 0.438 0.469 0.08 0.077 0.17 0.142 0.25 0.219 0.104 0.103 0.208 0.21 0.313 0.313 0.147 0.154 0.289 0.316 0.438 0.469 0.079 0.076 0.171 0.143 0.25 0.219 0.104 0.103 0.208 0.21 0.313 0.313 0.147 0.154 0.289 0.316 0.438 0.469 0.079 0.076 0.171 0.143 0.25 0.219 0.194 0.192 0.367 0.404 0.563 0.594 0.113 0.117 0.23 0.228 0.344 0.344 0.021 0.02 0.041 0.042 0.063 0.063 0.419 0.415 0.823 0.844 1.25 1.25 0.106 0.104 0.206 0.209 0.313 0.313 0.062 0.064 0.125 0.123 0.188 0.188 0.08 0.077 0.17 0.142 0.25 0.219 0.105 0.104 0.207 0.209 0.313 0.313 0.147 0.154 0.289 0.316 0.438 0.469 0.08 0.077 0.17 0.142 0.25 0.219 0.104 0.103 0.208 0.21 0.313 0.313 0.147 0.154 0.289 0.316 0.438 0.469 0.079 0.076 0.171 0.143 0.25 0.219 0.104 0.103 0.208 0.21 0.313 0.313 0.147 0.154 0.289 0.316 0.438 0.469 0.266 0.257 0.512 0.528 0.781 0.781-6.104 2.408-13.837 3.75-23.25 3.75-23.964 0-50.583-12.436-71.44-30.19l-37.28 44.813c0.339 0.319 0.689 0.622 1.031 0.938l-0.031 0.063c0.339 0.319 0.689 0.622 1.031 0.938 0 0-0.031 0.063-0.031 0.063 0.339 0.319 0.689 0.622 1.031 0.938 0 0-0.031 0.063-0.031 0.063 0.336 0.315 0.662 0.626 1 0.938l-0.031 0.031c0.342 0.322 0.686 0.651 1.031 0.969l-0.031 0.031c0.342 0.322 0.686 0.651 1.031 0.969l-0.031 0.031c0.339 0.319 0.689 0.622 1.031 0.938l-0.031 0.063c0.339 0.319 0.689 0.622 1.031 0.938 0 0-0.031 0.062-0.031 0.063 0.339 0.319 0.689 0.622 1.031 0.938 0 0-0.031 0.062-0.031 0.063 0.336 0.315 0.662 0.626 1 0.938l-0.031 0.031c0.342 0.322 0.686 0.651 1.031 0.969l-0.031 0.031c0.342 0.322 0.686 0.651 1.031 0.969l-0.031 0.031c0.339 0.319 0.689 0.622 1.031 0.938 0 0-0.031 0.062-0.031 0.063 0.339 0.319 0.689 0.622 1.031 0.938 0 0-0.031 0.062-0.031 0.063 0.339 0.319 0.689 0.622 1.031 0.938 0 0-0.031 0.062-0.031 0.063 0.341 0.321 0.687 0.62 1.031 0.938l-0.063 0.063c0.339 0.319 0.689 0.622 1.031 0.938l-0.031 0.031c0.342 0.322 0.686 0.651 1.031 0.969l-0.031 0.031c0.342 0.322 0.686 0.651 1.031 0.969l-0.031 0.031c0.339 0.319 0.689 0.622 1.031 0.938 0 0-0.031 0.062-0.031 0.063 0.339 0.319 0.689 0.622 1.031 0.938 0 0-0.031 0.062-0.031 0.063 0.339 0.319 0.689 0.622 1.031 0.938l-0.031 0.063c0.336 0.315 0.662 0.626 1 0.938l-0.031 0.031c0.342 0.322 0.686 0.651 1.031 0.969l-0.031 0.031c0.342 0.322 0.686 0.651 1.031 0.969l-0.031 0.031c0.339 0.319 0.689 0.622 1.031 0.938l-0.031 0.063c0.339 0.319 0.689 0.622 1.031 0.938 0 0-0.031 0.062-0.031 0.063 0.339 0.319 0.689 0.622 1.031 0.938 0 0-0.031 0.062-0.031 0.063 0.336 0.315 0.662 0.626 1 0.938l-0.031 0.031c0.342 0.322 0.686 0.651 1.031 0.969l-0.031 0.031c0.342 0.322 0.686 0.651 1.031 0.969l-0.031 0.031c0.339 0.319 0.689 0.622 1.031 0.938 0 0-0.031 0.062-0.031 0.063 0.339 0.319 0.689 0.622 1.031 0.938l-0.031 0.063c0.339 0.319 0.689 0.622 1.031 0.938 0 0-0.031 0.062-0.031 0.063 0.341 0.321 0.687 0.62 1.031 0.938l-0.063 0.063c0.339 0.319 0.689 0.622 1.031 0.938l-0.031 0.031c0.342 0.322 0.686 0.651 1.031 0.969l-0.031 0.031c0.342 0.322 0.686 0.651 1.031 0.969l-0.031 0.031c0.339 0.319 0.689 0.622 1.031 0.938 0 0-0.031 0.062-0.031 0.063 0.339 0.319 0.689 0.622 1.031 0.938 0 0-0.031 0.062-0.031 0.063 0.341 0.321 0.687 0.62 1.031 0.938l-0.063 0.063c0.339 0.319 0.689 0.622 1.031 0.938l-0.031 0.031c0.342 0.322 0.686 0.651 1.031 0.969l-0.031 0.031c0.342 0.322 0.686 0.651 1.031 0.969l-0.031 0.031c0.339 0.319 0.689 0.622 1.031 0.938 0 0-0.031 0.062-0.031 0.063 0.339 0.319 0.689 0.622 1.031 0.938l-0.031 0.063c0.339 0.319 0.689 0.622 1.031 0.938 0 0-0.031 0.062-0.031 0.063 0.336 0.315 0.662 0.626 1 0.938l-0.031 0.031c0.342 0.322 0.686 0.651 1.031 0.969l-0.031 0.031c0.342 0.322 0.686 0.651 1.031 0.969l-0.031 0.031c0.339 0.319 0.689 0.622 1.031 0.938 0 0-0.031 0.062-0.031 0.063 0.339 0.319 0.689 0.622 1.031 0.938 0 0-0.031 0.062-0.031 0.063 0.339 0.319 0.689 0.622 1.031 0.938 0 0-0.031 0.062-0.031 0.063 0.336 0.315 0.662 0.626 1 0.938l-0.031 0.031c0.342 0.322 0.686 0.651 1.031 0.969l-0.031 0.031c0.342 0.322 0.686 0.651 1.031 0.969l-0.031 0.031c0.339 0.319 0.689 0.622 1.031 0.938l-0.031 0.063c0.339 0.319 0.689 0.622 1.031 0.938 0 0-0.031 0.062-0.031 0.063 0.339 0.319 0.689 0.622 1.031 0.938l-0.031 0.063c0.341 0.321 0.687 0.62 1.031 0.938l-0.063 0.063c0.339 0.319 0.689 0.622 1.031 0.938l-0.031 0.031c0.342 0.322 0.686 0.651 1.031 0.969l-0.031 0.031c0.342 0.322 0.686 0.651 1.031 0.969l-0.031 0.031c0.339 0.319 0.689 0.622 1.031 0.938 0 0-0.031 0.062-0.031 0.063 0.339 0.319 0.689 0.622 1.031 0.938 0 0-0.031 0.062-0.031 0.063 0.339 0.319 0.689 0.622 1.031 0.938 0 0-0.031 0.062-0.031 0.063 0.336 0.315 0.662 0.626 1 0.938l-0.031 0.031c0.342 0.322 0.686 0.651 1.031 0.969l-0.031 0.031c0.342 0.322 0.686 0.651 1.031 0.969l-0.031 0.031c0.339 0.319 0.689 0.622 1.031 0.938l-0.031 0.063c0.339 0.319 0.689 0.622 1.031 0.938 0 0-0.031 0.062-0.031 0.063 0.339 0.319 0.689 0.622 1.031 0.938l-0.031 0.063c0.336 0.315 0.662 0.626 1 0.938l-0.031 0.031c0.342 0.322 0.686 0.651 1.031 0.969l-0.031 0.031c0.342 0.322 0.686 0.651 1.031 0.969l-0.031 0.031c0.339 0.319 0.689 0.622 1.031 0.938 0 0-0.031 0.062-0.031 0.063 0.339 0.319 0.689 0.622 1.031 0.938 0 0-0.031 0.062-0.031 0.063 0.339 0.319 0.689 0.622 1.031 0.938 0 0-0.031 0.062-0.031 0.063 0.341 0.321 0.687 0.62 1.031 0.938l-0.063 0.063c0.339 0.319 0.689 0.622 1.031 0.938l-0.031 0.031c0.342 0.322 0.686 0.651 1.031 0.969l-0.031 0.031c0.339 0.319 0.689 0.622 1.031 0.938 0 0-0.031 0.062-0.031 0.063 0.339 0.319 0.689 0.622 1.031 0.938l-0.031 0.063c0.339 0.319 0.689 0.622 1.031 0.938 0 0-0.031 0.062-0.031 0.063 0.341 0.321 0.687 0.62 1.031 0.938l-0.063 0.063c0.339 0.319 0.689 0.622 1.031 0.938l-0.031 0.031c0.342 0.322 0.686 0.651 1.031 0.969l-0.031 0.031c0.342 0.322 0.686 0.651 1.031 0.969l-0.031 0.031c0.339 0.319 0.689 0.622 1.031 0.938 0 0-0.031 0.062-0.031 0.063 0.339 0.319 0.689 0.622 1.031 0.938 0 0-0.031 0.062-0.031 0.063 0.339 0.319 0.689 0.622 1.031 0.938 0 0-0.031 0.062-0.031 0.063 0.336 0.315 0.662 0.626 1 0.938l-0.031 0.031c0.342 0.322 0.686 0.651 1.031 0.969l-0.031 0.031c0.342 0.322 0.686 0.651 1.031 0.969l-0.031 0.031c0.339 0.319 0.689 0.622 1.031 0.938 0 0-0.031 0.062-0.031 0.063 0.339 0.319 0.689 0.622 1.031 0.938l-0.031 0.063c0.339 0.319 0.689 0.622 1.031 0.938 0 0-0.031 0.062-0.031 0.063 0.336 0.315 0.662 0.626 1 0.938l-0.031 0.031c0.342 0.322 0.686 0.651 1.031 0.969l-0.031 0.031c0.342 0.322 0.686 0.651 1.031 0.969l-0.031 0.031c0.339 0.319 0.689 0.622 1.031 0.938 0 0-0.031 0.062-0.031 0.063 0.339 0.319 0.689 0.622 1.031 0.938 0 0-0.031 0.062-0.031 0.063 0.339 0.319 0.689 0.622 1.031 0.938 0 0-0.031 0.062-0.031 0.063 0.341 0.321 0.687 0.62 1.031 0.938l-0.063 0.063c0.339 0.319 0.689 0.622 1.031 0.938l-0.031 0.031c0.342 0.322 0.686 0.651 1.031 0.969l-0.031 0.031c0.342 0.322 0.686 0.651 1.031 0.969l-0.031 0.031c0.339 0.319 0.689 0.622 1.031 0.938 0 0-0.031 0.062-0.031 0.063 0.064 0.061 0.122 0.128 0.188 0.188 117.28-1.346 212.39-94.93 216.22-211.59-0.249-0.251-0.499-0.505-0.75-0.75-0.331-0.331-0.665-0.673-1-1-0.334-0.334-0.694-0.639-1.031-0.969l0.031-0.031c-0.336-0.336-0.661-0.668-1-1-0.336-0.336-0.661-0.668-1-1-0.325-0.325-0.64-0.647-0.969-0.969-0.331-0.331-0.665-0.673-1-1-0.331-0.331-0.665-0.673-1-1-0.331-0.331-0.665-0.673-1-1-0.336-0.336-0.661-0.668-1-1-0.336-0.336-0.661-0.668-1-1-0.325-0.325-0.64-0.647-0.969-0.969-0.331-0.331-0.665-0.673-1-1-0.331-0.331-0.665-0.673-1-1-0.331-0.331-0.665-0.673-1-1-0.336-0.336-0.661-0.668-1-1-0.336-0.336-0.661-0.668-1-1-0.325-0.325-0.64-0.647-0.969-0.969-0.331-0.331-0.665-0.673-1-1-0.331-0.331-0.665-0.673-1-1-0.331-0.331-0.665-0.673-1-1-0.334-0.334-0.694-0.639-1.031-0.969l0.031-0.031c-0.336-0.336-0.661-0.668-1-1-0.336-0.336-0.661-0.668-1-1-0.325-0.325-0.64-0.647-0.969-0.969-0.331-0.331-0.665-0.673-1-1-0.331-0.331-0.665-0.673-1-1-0.334-0.334-0.694-0.639-1.031-0.969l0.031-0.031c-0.336-0.336-0.661-0.668-1-1-0.336-0.336-0.661-0.668-1-1-0.325-0.325-0.64-0.647-0.969-0.969-0.331-0.331-0.665-0.673-1-1-0.331-0.331-0.665-0.673-1-1-0.331-0.331-0.665-0.673-1-1-0.336-0.336-0.661-0.668-1-1-0.336-0.336-0.661-0.668-1-1-0.325-0.325-0.64-0.647-0.969-0.969-0.331-0.331-0.665-0.673-1-1-0.331-0.331-0.665-0.673-1-1-0.331-0.331-0.665-0.673-1-1-0.336-0.336-0.661-0.668-1-1-0.336-0.336-0.661-0.668-1-1-0.331-0.331-0.666-0.642-1-0.969-0.328-0.328-0.668-0.644-1-0.969l0.031-0.031c-0.331-0.331-0.665-0.673-1-1-0.331-0.331-0.665-0.673-1-1-0.334-0.334-0.694-0.639-1.031-0.969l0.031-0.031c-0.336-0.336-0.661-0.668-1-1-0.336-0.336-0.661-0.668-1-1-0.325-0.325-0.64-0.647-0.969-0.969-0.331-0.331-0.665-0.673-1-1-0.331-0.331-0.665-0.673-1-1-0.331-0.331-0.665-0.673-1-1-0.336-0.336-0.661-0.668-1-1-0.336-0.336-0.661-0.668-1-1-0.325-0.325-0.64-0.647-0.969-0.969-0.331-0.331-0.665-0.673-1-1-0.331-0.331-0.665-0.673-1-1-0.331-0.331-0.665-0.673-1-1-0.336-0.336-0.661-0.668-1-1-0.336-0.336-0.661-0.668-1-1-0.325-0.325-0.64-0.647-0.969-0.969-0.331-0.331-0.665-0.673-1-1-0.331-0.331-0.665-0.673-1-1-0.331-0.331-0.665-0.673-1-1-0.334-0.334-0.694-0.639-1.031-0.969l0.031-0.031c-0.336-0.336-0.661-0.668-1-1-0.331-0.331-0.666-0.642-1-0.969-0.328-0.328-0.668-0.644-1-0.969l0.031-0.031c-0.331-0.331-0.665-0.673-1-1-0.331-0.331-0.665-0.673-1-1-0.334-0.334-0.694-0.639-1.031-0.969l0.031-0.031c-0.336-0.336-0.661-0.668-1-1-0.336-0.336-0.661-0.668-1-1-0.325-0.325-0.64-0.647-0.969-0.969-0.331-0.331-0.665-0.673-1-1-0.331-0.331-0.665-0.673-1-1-0.331-0.331-0.665-0.673-1-1-0.336-0.336-0.661-0.668-1-1-0.336-0.336-0.661-0.668-1-1-0.325-0.325-0.64-0.647-0.969-0.969-0.331-0.331-0.665-0.673-1-1-0.331-0.331-0.665-0.673-1-1-0.331-0.331-0.665-0.673-1-1-0.336-0.336-0.661-0.668-1-1-0.336-0.336-0.661-0.668-1-1-0.331-0.331-0.666-0.642-1-0.969-0.328-0.328-0.668-0.644-1-0.969l0.031-0.031c-0.331-0.331-0.665-0.673-1-1-0.331-0.331-0.665-0.673-1-1-0.334-0.334-0.694-0.639-1.031-0.969l0.031-0.031c-0.336-0.336-0.661-0.668-1-1-0.336-0.336-0.661-0.668-1-1-0.325-0.325-0.64-0.647-0.969-0.969-0.331-0.331-0.665-0.673-1-1-0.331-0.331-0.665-0.673-1-1-0.331-0.331-0.665-0.673-1-1-0.336-0.336-0.661-0.668-1-1-0.336-0.336-0.661-0.668-1-1-0.325-0.325-0.64-0.647-0.969-0.969-0.331-0.331-0.665-0.673-1-1-0.331-0.331-0.665-0.673-1-1-0.331-0.331-0.665-0.673-1-1-0.336-0.336-0.661-0.668-1-1-0.336-0.336-0.661-0.668-1-1-0.325-0.325-0.64-0.647-0.969-0.969-0.331-0.331-0.665-0.673-1-1-0.331-0.331-0.665-0.673-1-1-0.331-0.331-0.665-0.673-1-1-0.334-0.334-0.694-0.639-1.031-0.969l0.031-0.031c-0.336-0.336-0.661-0.668-1-1-0.331-0.331-0.666-0.642-1-0.969-0.328-0.328-0.668-0.644-1-0.969l0.031-0.031c-0.331-0.331-0.665-0.673-1-1-0.331-0.331-0.665-0.673-1-1-0.334-0.334-0.694-0.639-1.031-0.969l0.031-0.031c-0.336-0.336-0.661-0.668-1-1-24.852-24.852-59.907-38.16-93.19-38.16"/>
 <g id="g8" fill-rule="evenodd">
  <path id="path10" fill-opacity="0.067" d="m256 1c-140.83 0-255 114.17-255 255s114.17 255 255 255 255-114.17 255-255-114.17-255-255-255m8.827 44.931c120.9 0 218.9 98 218.9 218.9s-98 218.9-218.9 218.9-218.93-98-218.93-218.9 98.03-218.9 218.93-218.9"/>
  <g id="g12" fill-opacity="0.129">
   <path id="path14" d="m256 4.433c-138.94 0-251.57 112.63-251.57 251.57s112.63 251.57 251.57 251.57 251.57-112.63 251.57-251.57-112.63-251.57-251.57-251.57m5.885 38.556c120.9 0 218.9 98 218.9 218.9s-98 218.9-218.9 218.9-218.93-98-218.93-218.9 98.03-218.9 218.93-218.9"/>
   <path id="path16" d="m256 8.356c-136.77 0-247.64 110.87-247.64 247.64s110.87 247.64 247.64 247.64 247.64-110.87 247.64-247.64-110.87-247.64-247.64-247.64m2.942 31.691c120.9 0 218.9 98 218.9 218.9s-98 218.9-218.9 218.9-218.93-98-218.93-218.9 98.03-218.9 218.93-218.9"/>
  </g>
  <path id="path18" d="m253.04 7.859c-135.42 0-245.19 109.78-245.19 245.19 0 135.42 109.78 245.19 245.19 245.19 135.42 0 245.19-109.78 245.19-245.19 0-135.42-109.78-245.19-245.19-245.19zm0 26.297c120.9 0 218.9 98 218.9 218.9s-98 218.9-218.9 218.9-218.93-98-218.93-218.9 98.03-218.9 218.93-218.9z" stroke-opacity="0.31" stroke="#000" stroke-width="4.904" fill="#fff"/>
 </g>
 <path id="path66" fill="#fff" d="m185.22 319.46c20.855 17.751 47.49 30.18 71.45 30.18 27.07 0 40.38-10.654 40.38-27.959 0-18.2-16.417-23.964-41.716-34.615l-37.72-15.98c-29.737-11.982-58.14-36.834-58.14-78.997 0-47.929 42.607-86.09 102.97-86.09 33.28 0 68.35 13.314 93.2 38.17l-33.29 41.27c-19.08-14.645-36.838-23.08-59.911-23.08-22.633 0-36.838 9.763-36.838 26.18 0 17.751 19.08 23.964 43.942 34.17l37.28 15.09c35.06 14.201 57.25 37.725 57.25 78.55 0 47.932-39.944 89.64-109.18 89.64-37.719 0-77.66-14.198-106.95-41.716l37.28-44.819"/>
</svg>
