<?xml version="1.0" encoding="UTF-8" standalone="no"?>
<svg xmlns="http://www.w3.org/2000/svg" viewBox="0 0 512 512">
 <g fill-rule="evenodd">
  <path d="m471.95 253.05c0 120.9-98.01 218.91-218.91 218.91s-218.91-98.01-218.91-218.91 98.01-218.91 218.91-218.91 218.91 98.01 218.91 218.91" fill="#BF9E73"/>
  <path d="m256 1c-140.83 0-255 114.17-255 255s114.17 255 255 255 255-114.17 255-255-114.17-255-255-255m8.827 44.931c120.9 0 218.9 98 218.9 218.9s-98 218.9-218.9 218.9-218.93-98-218.93-218.9 98.03-218.9 218.93-218.9" fill-opacity="0.067"/>
  <g fill-opacity="0.129">
   <path d="m256 4.43c-138.94 0-251.57 112.63-251.57 251.57s112.63 251.57 251.57 251.57 251.57-112.63 251.57-251.57-112.63-251.57-251.57-251.57m5.885 38.556c120.9 0 218.9 98 218.9 218.9s-98 218.9-218.9 218.9-218.93-98-218.93-218.9 98.03-218.9 218.93-218.9"/>
   <path d="m256 8.36c-136.77 0-247.64 110.87-247.64 247.64s110.87 247.64 247.64 247.64 247.64-110.87 247.64-247.64-110.87-247.64-247.64-247.64m2.942 31.691c120.9 0 218.9 98 218.9 218.9s-98 218.9-218.9 218.9-218.93-98-218.93-218.9 98.03-218.9 218.93-218.9"/>
  </g>
  <path stroke="#000" stroke-width="4.904" d="m253.04 7.86c-135.42 0-245.19 109.78-245.19 245.19 0 135.42 109.78 245.19 245.19 245.19 135.42 0 245.19-109.78 245.19-245.19 0-135.42-109.78-245.19-245.19-245.19m0 26.297c120.9 0 218.9 98 218.9 218.9s-98 218.9-218.9 218.9-218.93-98-218.93-218.9 98.03-218.9 218.93-218.9z" stroke-opacity="0.31" fill="#fff"/>
 </g>
 <path opacity="0.25" d="m378.17 110.84c-5.442 0.107-10.732 2.105-14.688 6.525-30.416 29.391-59.823 59.812-89.92 89.54 3.961 4.201 8.01 8.318 12.1 12.404l0.768 0.768c-0.255-0.255-0.513-0.507-0.768-0.762l151.77 151.77c21.85-34.06 34.52-74.57 34.52-118.04 0-25.2-4.272-49.4-12.11-71.93l-62.43-62.43c-4.994-4.994-12.244-7.984-19.242-7.846m-111.98 100.9c-11.976 12.442-24.19 24.655-36.645 36.611l0.105 0.105c-0.037-0.036-0.074-0.072-0.111-0.107l168.6 168.6c12.972-11.493 24.567-24.5 34.514-38.748l-166.46-166.46m-46.34 39.37c-37.22 15.191-74.5 30.24-111.64 45.621l8.121 8.121c-1.815 5.155-2.382 7.663 1.389 11.465l6.504 6.557c-0.421-0.29-0.846-0.565-1.275-0.824l-5.129-5.158c1.644 1.644 2.485 3.38 4.127 4.586l0.002 0.004c0.001 0.001 0.003 0.001 0.004 0.002l21.18 21.18c-0.535 0.599-1.062 1.205-1.598 1.803l17.23 17.23c0.634 2.357 1.735 4.523 3.418 6.207l103.68 103.68c47.605-2.749 91.13-20.706 125.79-49.09l-153.28-153.28c-6.117-6.117-12.272-12.177-18.52-18.1"/>
 <path d="m403.76 132.43c-0.863-18.379-27.521-29.332-40.28-15.06-30.416 29.391-59.823 59.811-89.92 89.54 11.04 11.703 22.755 22.761 34.03 34.27 31.12-31.734 63.999-62.01 93.59-95.19 1.855-3.577 2.734-7.688 2.584-11.762 0.027-0.608 0.028-1.209 0-1.802m-101.07 116.19l-0.748-0.782-0.714-0.714c-11.63-11.931-23.845-23.21-35.05-35.389-11.976 12.442-24.19 24.656-36.646 36.612 12.582 11.942 24.468 24.386 36.782 36.68 12.343-11.94 24.547-23.975 36.37-36.408m-39.09 46.03c-14.54-14.596-28.884-29.452-43.751-43.547-37.22 15.191-74.5 30.24-111.64 45.621 2.708 1.279 9.12 4.407 6.96 7.544-2.667 7.544 1.306 13.189 6.774 17.204 6.257 3.27 11.262 10.972 19.14 8.703 6.785-1.595 22.12-11.529 28.903-13.14-6.166 7.306-22.03 20.255-28.461 27.418 4.719 4.174 15.16 1.844 21.335 2.067-1.764 7.45-4.299 21.478 3.923 24.18 26.86 1.182 20.873 3.204 24.908 8.805 3.919 8.458 8.848 23.21 19.999 21.484 7.638-1.249 14.503-8.441 13.496-16.453 12.81-29.959 25.642-59.907 38.41-89.88" fill="#fff"/>
</svg>
