<?xml version="1.0" encoding="UTF-8" standalone="no"?>
<svg xmlns="http://www.w3.org/2000/svg" height="512" viewBox="0 0 512 512" width="512" version="1.1">
 <metadata id="metadata114"/>
 <g id="g4" fill-rule="evenodd">
  <path id="path6" fill="#BF9E73" d="m471.95 253.05c0 120.9-98.01 218.9-218.9 218.9-120.9 0-218.9-98.01-218.9-218.9 0-120.9 98.01-218.9 218.9-218.9 120.9 0 218.9 98.01 218.9 218.9"/>
  <path id="path8" fill-opacity="0.235" d="m256 106c-82.84 0-150 67.16-150 150 0 41.674 16.999 79.38 44.44 106.56 0.494 0.499 0.999 0.977 1.5 1.469 0.005 0.005-0.005 0.026 0 0.031 0.021 0.02 0.041 0.042 0.063 0.063 0.598 0.609 1.204 1.214 1.813 1.813l0.094 0.094c0.126 0.124 0.249 0.252 0.375 0.375 0.374 0.378 0.747 0.751 1.125 1.125 0.166 0.167 0.333 0.333 0.5 0.5 0.126 0.124 0.249 0.252 0.375 0.375 0.207 0.209 0.417 0.417 0.625 0.625 0.186 0.179 0.376 0.353 0.563 0.531 0.098 0.1 0.183 0.213 0.281 0.313l0.156 0.156c0.011 0.01 0.021 0.021 0.031 0.031 0.609 0.62 1.225 1.235 1.844 1.844l0.094 0.094c0.126 0.124 0.249 0.252 0.375 0.375 0.332 0.335 0.665 0.668 1 1 0.374 0.378 0.747 0.751 1.125 1.125 0.494 0.499 0.999 0.977 1.5 1.469 0.005 0.005-0.005 0.026 0 0.031 0.021 0.02 0.041 0.042 0.063 0.063 0.469 0.478 0.931 0.966 1.406 1.438 0.461 0.465 0.939 0.916 1.406 1.375l0.094 0.094c0.126 0.124 0.249 0.252 0.375 0.375 0.374 0.378 0.747 0.751 1.125 1.125 0.166 0.167 0.333 0.333 0.5 0.5 0.184 0.18 0.378 0.352 0.563 0.531 0.149 0.151 0.287 0.319 0.438 0.469 0.186 0.179 0.376 0.353 0.563 0.531 0.098 0.1 0.183 0.213 0.281 0.313l0.156 0.156c0.011 0.01 0.021 0.021 0.031 0.031 0.609 0.62 1.225 1.235 1.844 1.844l0.094 0.094c0.126 0.124 0.249 0.252 0.375 0.375 0.374 0.378 0.747 0.751 1.125 1.125 0.166 0.167 0.333 0.333 0.5 0.5 0.126 0.124 0.249 0.252 0.375 0.375 0.207 0.209 0.417 0.417 0.625 0.625 0.186 0.179 0.376 0.353 0.563 0.531 0.098 0.1 0.183 0.213 0.281 0.313l0.156 0.156c0.011 0.01 0.021 0.021 0.031 0.031 0.609 0.62 1.225 1.235 1.844 1.844l0.094 0.094c0.126 0.124 0.249 0.252 0.375 0.375 0.285 0.289 0.587 0.557 0.875 0.844 0.113 0.116 0.231 0.228 0.344 0.344 0.306 0.308 0.598 0.632 0.906 0.938 0.494 0.499 0.999 0.977 1.5 1.469 0.005 0.005-0.005 0.026 0 0.031 0.021 0.02 0.041 0.042 0.063 0.063 0.598 0.609 1.204 1.214 1.813 1.813l0.094 0.094c0.126 0.124 0.249 0.252 0.375 0.375 0.332 0.335 0.665 0.668 1 1 0.374 0.378 0.747 0.751 1.125 1.125 0.494 0.499 0.999 0.977 1.5 1.469 0.005 0.005-0.005 0.026 0 0.031 0.186 0.179 0.376 0.353 0.563 0.531 0.098 0.1 0.183 0.213 0.281 0.313l0.219 0.219c0.598 0.609 1.204 1.214 1.813 1.813l0.094 0.094c0.126 0.124 0.249 0.252 0.375 0.375 0.374 0.378 0.747 0.751 1.125 1.125 0.166 0.167 0.333 0.333 0.5 0.5 0.126 0.124 0.249 0.252 0.375 0.375 0.207 0.209 0.417 0.417 0.625 0.625 0.186 0.179 0.376 0.353 0.563 0.531 0.098 0.1 0.183 0.213 0.281 0.313l0.156 0.156c0.011 0.01 0.021 0.021 0.031 0.031 0.609 0.62 1.225 1.235 1.844 1.844l0.094 0.094c0.126 0.124 0.249 0.252 0.375 0.375 0.374 0.378 0.747 0.751 1.125 1.125 0.166 0.167 0.333 0.333 0.5 0.5 0.126 0.124 0.249 0.252 0.375 0.375 0.207 0.209 0.417 0.417 0.625 0.625 0.186 0.179 0.376 0.353 0.563 0.531 0.098 0.1 0.183 0.213 0.281 0.313l0.156 0.156c0.011 0.01 0.021 0.021 0.031 0.031 0.609 0.62 1.225 1.235 1.844 1.844l0.094 0.094c0.126 0.124 0.249 0.252 0.375 0.375 0.332 0.335 0.665 0.668 1 1 0.374 0.378 0.747 0.751 1.125 1.125 0.494 0.499 0.999 0.977 1.5 1.469 0.005 0.005-0.005 0.026 0 0.031 0.021 0.02 0.041 0.042 0.063 0.063 0.469 0.478 0.931 0.966 1.406 1.438 0.461 0.465 0.939 0.916 1.406 1.375l0.094 0.094c0.126 0.124 0.249 0.252 0.375 0.375 0.374 0.378 0.747 0.751 1.125 1.125 0.494 0.499 0.999 0.977 1.5 1.469 0.005 0.005-0.005 0.026 0 0.031 0.186 0.179 0.376 0.353 0.563 0.531 0.098 0.1 0.183 0.213 0.281 0.313l0.219 0.219c0.598 0.609 1.204 1.214 1.813 1.813l0.094 0.094c0.126 0.124 0.249 0.252 0.375 0.375 0.374 0.378 0.747 0.751 1.125 1.125 0.166 0.167 0.333 0.333 0.5 0.5 0.126 0.124 0.249 0.252 0.375 0.375 0.207 0.209 0.417 0.417 0.625 0.625 0.186 0.179 0.376 0.353 0.563 0.531 0.098 0.1 0.183 0.213 0.281 0.313l0.156 0.156c0.011 0.01 0.021 0.021 0.031 0.031 0.609 0.62 1.225 1.235 1.844 1.844l0.094 0.094c0.126 0.124 0.249 0.252 0.375 0.375 0.285 0.289 0.587 0.557 0.875 0.844 0.113 0.116 0.231 0.228 0.344 0.344 0.306 0.308 0.598 0.632 0.906 0.938 0.494 0.499 0.999 0.977 1.5 1.469 0.005 0.005-0.005 0.026 0 0.031 0.021 0.02 0.041 0.042 0.063 0.063 0.598 0.609 1.204 1.214 1.813 1.813l0.094 0.094c0.126 0.124 0.249 0.252 0.375 0.375 0.332 0.335 0.665 0.668 1 1 0.374 0.378 0.747 0.751 1.125 1.125 0.494 0.499 0.999 0.977 1.5 1.469 0.005 0.005-0.005 0.026 0 0.031 0.186 0.179 0.376 0.353 0.563 0.531 0.098 0.1 0.183 0.213 0.281 0.313l0.219 0.219c0.598 0.609 1.204 1.214 1.813 1.813l0.094 0.094c0.126 0.124 0.249 0.252 0.375 0.375 0.374 0.378 0.747 0.751 1.125 1.125 0.166 0.167 0.333 0.333 0.5 0.5 0.184 0.18 0.378 0.352 0.563 0.531 0.149 0.151 0.287 0.319 0.438 0.469 0.186 0.179 0.376 0.353 0.563 0.531 0.098 0.1 0.183 0.213 0.281 0.313l0.156 0.156c0.011 0.01 0.021 0.021 0.031 0.031 0.609 0.62 1.225 1.235 1.844 1.844l0.094 0.094c0.126 0.124 0.249 0.252 0.375 0.375 0.374 0.378 0.747 0.751 1.125 1.125 0.166 0.167 0.333 0.333 0.5 0.5 0.126 0.124 0.249 0.252 0.375 0.375 0.207 0.209 0.417 0.417 0.625 0.625 0.186 0.179 0.376 0.353 0.563 0.531 0.098 0.1 0.183 0.213 0.281 0.313l0.156 0.156c0.011 0.01 0.021 0.021 0.031 0.031 0.609 0.62 1.225 1.235 1.844 1.844l0.094 0.094c0.126 0.124 0.249 0.252 0.375 0.375 0.332 0.335 0.665 0.668 1 1 0.374 0.378 0.747 0.751 1.125 1.125 0.494 0.499 0.999 0.977 1.5 1.469 0.005 0.005-0.005 0.026 0 0.031 0.021 0.02 0.041 0.042 0.063 0.063 0.469 0.478 0.931 0.966 1.406 1.438 0.461 0.465 0.939 0.916 1.406 1.375l0.094 0.094c0.126 0.124 0.249 0.252 0.375 0.375 0.374 0.378 0.747 0.751 1.125 1.125 0.494 0.499 0.999 0.977 1.5 1.469 0.005 0.005-0.005 0.026 0 0.031 0.186 0.179 0.376 0.353 0.563 0.531 0.098 0.1 0.183 0.213 0.281 0.313l0.219 0.219c0.413 0.42 0.832 0.835 1.25 1.25 115.59-3.465 208.66-96.54 212.13-212.12-0.436-0.439-0.871-0.879-1.313-1.313-0.148-0.154-0.32-0.284-0.469-0.438-0.081-0.085-0.169-0.165-0.25-0.25-0.099-0.098-0.182-0.215-0.281-0.313-0.204-0.212-0.42-0.414-0.625-0.625-0.126-0.124-0.249-0.251-0.375-0.375-0.165-0.168-0.334-0.333-0.5-0.5-0.167-0.166-0.332-0.335-0.5-0.5-0.335-0.335-0.662-0.668-1-1-0.65-0.662-1.307-1.319-1.969-1.969-0.15-0.15-0.318-0.288-0.469-0.438-0.081-0.085-0.169-0.165-0.25-0.25-0.104-0.103-0.208-0.21-0.313-0.313-0.179-0.186-0.352-0.378-0.531-0.563-0.146-0.144-0.291-0.294-0.438-0.438-0.165-0.168-0.334-0.333-0.5-0.5-0.167-0.166-0.332-0.335-0.5-0.5-0.335-0.335-0.662-0.668-1-1-0.49-0.499-0.972-1.01-1.469-1.5-0.497-0.502-1.027-0.974-1.531-1.469-0.087-0.09-0.163-0.191-0.25-0.281-0.095-0.093-0.186-0.189-0.281-0.281-0.146-0.144-0.291-0.294-0.438-0.438-0.165-0.168-0.334-0.333-0.5-0.5-0.167-0.166-0.332-0.335-0.5-0.5-0.335-0.335-0.662-0.668-1-1-0.335-0.335-0.662-0.668-1-1-0.65-0.662-1.307-1.319-1.969-1.969-0.148-0.154-0.32-0.284-0.469-0.438-0.081-0.085-0.169-0.165-0.25-0.25-0.099-0.098-0.182-0.215-0.281-0.313-0.204-0.212-0.42-0.414-0.625-0.625-0.126-0.124-0.249-0.251-0.375-0.375-0.165-0.168-0.334-0.333-0.5-0.5-0.167-0.166-0.332-0.335-0.5-0.5-0.335-0.335-0.662-0.668-1-1-0.65-0.662-1.307-1.319-1.969-1.969-0.148-0.154-0.32-0.284-0.469-0.438-0.081-0.085-0.169-0.165-0.25-0.25-0.099-0.098-0.182-0.215-0.281-0.313-0.148-0.154-0.32-0.284-0.469-0.438-0.182-0.18-0.349-0.383-0.531-0.563-0.165-0.168-0.334-0.333-0.5-0.5-0.167-0.166-0.332-0.335-0.5-0.5-0.335-0.335-0.662-0.668-1-1-0.65-0.662-1.307-1.319-1.969-1.969-0.15-0.15-0.318-0.288-0.469-0.438-0.081-0.085-0.169-0.165-0.25-0.25-0.104-0.103-0.208-0.21-0.313-0.313-0.179-0.186-0.352-0.378-0.531-0.563-0.146-0.144-0.291-0.294-0.438-0.438-0.165-0.168-0.334-0.333-0.5-0.5-0.167-0.166-0.332-0.335-0.5-0.5-0.335-0.335-0.662-0.668-1-1-0.335-0.335-0.662-0.668-1-1-0.655-0.667-1.333-1.314-2-1.969-0.087-0.09-0.163-0.191-0.25-0.281-0.095-0.093-0.186-0.189-0.281-0.281-0.146-0.144-0.291-0.294-0.438-0.438-0.165-0.168-0.334-0.333-0.5-0.5-0.167-0.166-0.332-0.335-0.5-0.5-0.276-0.276-0.566-0.539-0.844-0.813-0.058-0.056-0.098-0.131-0.156-0.188-0.335-0.335-0.662-0.668-1-1-0.65-0.662-1.307-1.319-1.969-1.969-0.148-0.154-0.32-0.284-0.469-0.438-0.081-0.085-0.169-0.165-0.25-0.25-0.099-0.098-0.182-0.215-0.281-0.313-0.204-0.212-0.42-0.414-0.625-0.625-0.126-0.124-0.249-0.251-0.375-0.375-0.165-0.168-0.334-0.333-0.5-0.5-0.167-0.166-0.332-0.335-0.5-0.5-0.335-0.335-0.662-0.668-1-1-0.65-0.662-1.307-1.319-1.969-1.969-0.15-0.15-0.318-0.288-0.469-0.438-0.081-0.085-0.169-0.165-0.25-0.25-0.104-0.103-0.208-0.21-0.313-0.313-0.179-0.186-0.352-0.378-0.531-0.563-0.146-0.144-0.291-0.294-0.438-0.438-0.165-0.168-0.334-0.333-0.5-0.5-0.167-0.166-0.332-0.335-0.5-0.5-0.335-0.335-0.662-0.668-1-1-0.49-0.499-0.972-1.01-1.469-1.5-0.497-0.502-1.027-0.974-1.531-1.469-0.092-0.095-0.189-0.186-0.281-0.281-0.089-0.087-0.16-0.194-0.25-0.281-0.146-0.144-0.291-0.294-0.438-0.438-0.165-0.168-0.334-0.333-0.5-0.5-0.167-0.166-0.332-0.335-0.5-0.5-0.335-0.335-0.662-0.668-1-1-0.335-0.335-0.662-0.668-1-1-0.65-0.662-1.307-1.319-1.969-1.969-0.148-0.154-0.32-0.284-0.469-0.438-0.081-0.085-0.169-0.165-0.25-0.25-0.099-0.098-0.182-0.215-0.281-0.313-0.204-0.212-0.42-0.414-0.625-0.625-0.126-0.124-0.249-0.251-0.375-0.375-0.165-0.168-0.334-0.333-0.5-0.5-0.167-0.166-0.332-0.335-0.5-0.5-0.335-0.335-0.662-0.668-1-1-0.65-0.662-1.307-1.319-1.969-1.969-0.148-0.154-0.32-0.284-0.469-0.438-0.081-0.085-0.169-0.165-0.25-0.25-0.099-0.098-0.182-0.215-0.281-0.313-0.204-0.212-0.42-0.414-0.625-0.625-0.126-0.124-0.249-0.251-0.375-0.375-0.165-0.168-0.334-0.333-0.5-0.5-0.167-0.166-0.332-0.335-0.5-0.5-0.335-0.335-0.662-0.668-1-1-0.65-0.662-1.307-1.319-1.969-1.969-0.15-0.15-0.318-0.288-0.469-0.438-0.081-0.085-0.169-0.165-0.25-0.25-0.104-0.103-0.208-0.21-0.313-0.313-0.179-0.186-0.352-0.378-0.531-0.563-0.146-0.144-0.291-0.294-0.438-0.438-0.165-0.168-0.334-0.333-0.5-0.5-0.167-0.166-0.332-0.335-0.5-0.5-0.335-0.335-0.662-0.668-1-1-0.335-0.335-0.662-0.668-1-1-0.655-0.667-1.333-1.314-2-1.969-0.092-0.095-0.189-0.186-0.281-0.281-0.089-0.087-0.16-0.194-0.25-0.281-0.146-0.144-0.291-0.294-0.438-0.438-0.165-0.168-0.334-0.333-0.5-0.5-0.167-0.166-0.332-0.335-0.5-0.5-0.276-0.276-0.566-0.539-0.844-0.813-0.058-0.056-0.098-0.131-0.156-0.188-0.335-0.335-0.662-0.668-1-1-0.65-0.662-1.307-1.319-1.969-1.969-0.148-0.154-0.32-0.284-0.469-0.438-0.081-0.085-0.169-0.165-0.25-0.25-0.099-0.098-0.182-0.215-0.281-0.313-0.204-0.212-0.42-0.414-0.625-0.625-0.126-0.124-0.249-0.251-0.375-0.375-0.165-0.168-0.334-0.333-0.5-0.5-0.167-0.166-0.332-0.335-0.5-0.5-0.335-0.335-0.662-0.668-1-1-0.65-0.662-1.307-1.319-1.969-1.969-0.15-0.15-0.318-0.288-0.469-0.438-0.081-0.085-0.169-0.165-0.25-0.25-0.104-0.103-0.208-0.21-0.313-0.313-0.179-0.186-0.352-0.378-0.531-0.563-0.146-0.144-0.291-0.294-0.438-0.438-0.165-0.168-0.334-0.333-0.5-0.5-0.167-0.166-0.332-0.335-0.5-0.5-0.335-0.335-0.662-0.668-1-1-0.49-0.499-0.972-1.01-1.469-1.5-0.497-0.502-1.027-0.974-1.531-1.469-0.087-0.09-0.163-0.191-0.25-0.281-0.095-0.093-0.186-0.189-0.281-0.281-0.146-0.144-0.291-0.294-0.438-0.438-0.165-0.168-0.334-0.333-0.5-0.5-0.167-0.166-0.332-0.335-0.5-0.5-0.335-0.335-0.662-0.668-1-1-0.335-0.335-0.662-0.668-1-1-0.655-0.667-1.333-1.314-2-1.969-0.092-0.095-0.189-0.186-0.281-0.281-0.089-0.087-0.16-0.194-0.25-0.281-0.146-0.144-0.291-0.294-0.438-0.438-0.165-0.168-0.334-0.333-0.5-0.5-0.167-0.166-0.332-0.335-0.5-0.5-27.14-27.15-64.64-43.938-106.06-43.938"/>
 </g>
 <text id="text10" font-size="208.33" line-height="125%" y="549.52" x="-1160.48" font-family="Gentium Book Basic" word-spacing="0" letter-spacing="0"><tspan id="tspan12" y="549.52" x="-1160.48"/>
 </text>
 <text id="text14" font-size="75.7" transform="scale(4.0128 .2492)" y="1642.24" x="28.534" font-family="Arial" text-anchor="middle"/>
 <text id="text16" font-size="208.33" line-height="125%" y="393.89" x="-454.14" font-family="Gentium Book Basic" word-spacing="0" letter-spacing="0"><tspan id="tspan18" y="393.89" x="-454.14"/>
 </text>
 <text id="text20" font-size="75.7" transform="scale(4.0128 .2492)" y="1017.72" x="204.55" font-family="Arial" text-anchor="middle"/>
 <text id="text22" font-size="208.33" line-height="125%" y="385.76" x="-420.77" font-family="Gentium Book Basic" word-spacing="0" letter-spacing="0"><tspan id="tspan24" y="385.76" x="-420.77"/>
 </text>
 <text id="text26" font-size="75.7" transform="scale(4.0128 .2492)" y="985.12" x="212.87" font-family="Arial" text-anchor="middle"/>
 <text id="text28" font-size="208.33" line-height="125%" y="575.2" x="-1843.19" font-family="Gentium Book Basic" word-spacing="0" letter-spacing="0"><tspan id="tspan30" y="575.2" x="-1843.19"/>
 </text>
 <text id="text32" font-size="75.7" transform="scale(4.0128 .2492)" y="1745.31" x="-141.6" font-family="Arial" text-anchor="middle"/>
 <text id="text34" font-size="208.33" line-height="125%" y="419.57" x="-1136.85" font-family="Gentium Book Basic" word-spacing="0" letter-spacing="0"><tspan id="tspan36" y="419.57" x="-1136.85"/>
 </text>
 <text id="text38" font-size="75.7" transform="scale(4.0128 .2492)" y="1120.79" x="34.423" font-family="Arial" text-anchor="middle"/>
 <text id="text40" font-size="208.33" line-height="125%" y="411.45" x="-1103.47" font-family="Gentium Book Basic" word-spacing="0" letter-spacing="0"><tspan id="tspan42" y="411.45" x="-1103.47"/>
 </text>
 <text id="text44" font-size="75.7" transform="scale(4.0128 .2492)" y="1088.19" x="42.74" font-family="Arial" text-anchor="middle"/>
 <g id="g46" fill-rule="evenodd">
  <path id="path48" fill-opacity="0.067" d="m256 1c-140.83 0-255 114.17-255 255s114.17 255 255 255 255-114.17 255-255-114.17-255-255-255m8.827 44.931c120.9 0 218.9 98 218.9 218.9s-98 218.9-218.9 218.9-218.93-98-218.93-218.9 98.03-218.9 218.93-218.9"/>
  <g id="g50" fill-opacity="0.129">
   <path id="path52" d="m256 4.433c-138.94 0-251.57 112.63-251.57 251.57s112.63 251.57 251.57 251.57 251.57-112.63 251.57-251.57-112.63-251.57-251.57-251.57m5.885 38.556c120.9 0 218.9 98 218.9 218.9s-98 218.9-218.9 218.9-218.93-98-218.93-218.9 98.03-218.9 218.93-218.9"/>
   <path id="path54" d="m256 8.356c-136.77 0-247.64 110.87-247.64 247.64s110.87 247.64 247.64 247.64 247.64-110.87 247.64-247.64-110.87-247.64-247.64-247.64m2.942 31.691c120.9 0 218.9 98 218.9 218.9s-98 218.9-218.9 218.9-218.93-98-218.93-218.9 98.03-218.9 218.93-218.9"/>
  </g>
  <path id="path56" d="m253.04 7.859c-135.42 0-245.19 109.78-245.19 245.19 0 135.42 109.78 245.19 245.19 245.19 135.42 0 245.19-109.78 245.19-245.19 0-135.42-109.78-245.19-245.19-245.19zm0 26.297c120.9 0 218.9 98 218.9 218.9s-98 218.9-218.9 218.9-218.93-98-218.93-218.9 98.03-218.9 218.93-218.9z" stroke-opacity="0.31" stroke="#000" stroke-width="4.904" fill="#fff"/>
 </g>
 <text id="text58" font-size="129.23" line-height="125%" y="231.36" x="729.64" font-family="Gentium Book Basic" word-spacing="0" letter-spacing="0"><tspan id="tspan60" y="231.36" x="729.64"/>
 </text>
 <text id="text62" font-size="46.954" transform="scale(4.0128 .2492)" y="579.25" x="378.91" font-family="Arial" text-anchor="middle"/>
 <text id="text64" font-size="129.23" line-height="125%" y="151.36" x="1310.91" font-family="Gentium Book Basic" word-spacing="0" letter-spacing="0"><tspan id="tspan66" y="151.36" x="1310.91"/>
 </text>
 <text id="text68" font-size="46.954" transform="scale(4.0128 .2492)" y="258.22" x="523.76" font-family="Arial" text-anchor="middle"/>
 <text id="text70" font-size="129.23" line-height="125%" y="-29.901" x="239.33" font-family="Gentium Book Basic" word-spacing="0" letter-spacing="0"><tspan id="tspan72" y="-29.901" x="239.33"/>
 </text>
 <text id="text74" font-size="46.954" transform="scale(4.0128 .2492)" y="-469.14" x="256.72" font-family="Arial" text-anchor="middle"/>
 <text id="text76" font-size="129.23" line-height="125%" y="-246.37" x="1337.38" font-family="Gentium Book Basic" word-spacing="0" letter-spacing="0"><tspan id="tspan78" y="-246.37" x="1337.38"/>
 </text>
 <text id="text80" font-size="46.954" transform="scale(4.0128 .2492)" y="-1337.81" x="530.36" font-family="Arial" text-anchor="middle"/>
 <text id="text82" font-size="129.23" line-height="125%" y="-326.38" x="1918.65" font-family="Gentium Book Basic" word-spacing="0" letter-spacing="0"><tspan id="tspan84" y="-326.38" x="1918.65"/>
 </text>
 <text id="text86" font-size="46.954" transform="scale(4.0128 .2492)" y="-1658.85" x="675.21" font-family="Arial" text-anchor="middle"/>
 <text id="text88" font-size="129.23" line-height="125%" y="-798.78" x="1529.53" font-family="Gentium Book Basic" word-spacing="0" letter-spacing="0"><tspan id="tspan90" y="-798.78" x="1529.53"/>
 </text>
 <text id="text92" font-size="46.954" transform="scale(4.0128 .2492)" y="-3554.51" x="578.24" font-family="Arial" text-anchor="middle"/>
 <text id="text94" font-size="129.23" line-height="125%" y="-878.78" x="2110.79" font-family="Gentium Book Basic" word-spacing="0" letter-spacing="0"><tspan id="tspan96" y="-878.78" x="2110.79"/>
 </text>
 <text id="text98" font-size="46.954" transform="scale(4.0128 .2492)" y="-3875.54" x="723.09" font-family="Arial" text-anchor="middle"/>
 <text id="text100" font-size="208.33" line-height="125%" y="535.94" x="277.99" font-family="Gentium Book Basic" word-spacing="0" letter-spacing="0"><tspan id="tspan102" y="535.94" x="277.99"/>
 </text>
 <g id="g104" fill-rule="evenodd" fill="#fff">
  <path id="path106" d="m256 106c-82.84 0-150 67.16-150 150s67.16 150 150 150 150-67.16 150-150-67.16-150-150-150m0 50.15c55.14 0 99.84 44.707 99.84 99.85 0 55.14-44.703 99.85-99.84 99.85-55.14 0-99.84-44.707-99.84-99.85 0-55.14 44.703-99.85 99.84-99.85"/>
  <rect id="rect108" rx="25" height="130.13" width="50" y="190.94" x="231"/>
 </g>
</svg>
