<?xml version="1.0" encoding="UTF-8" standalone="no"?>
<svg xmlns="http://www.w3.org/2000/svg" height="512" viewBox="0 0 512 512" width="512" version="1.1">
 <metadata id="metadata108"/>
 <path id="path4" d="m471.95 253.05c0 120.9-98.01 218.9-218.9 218.9-120.9 0-218.9-98.01-218.9-218.9 0-120.9 98.01-218.9 218.9-218.9 120.9 0 218.9 98.01 218.9 218.9" fill-rule="evenodd" fill="#BF9E73"/>
 <path id="path6" fill-opacity="0.235" d="m280.66 105.97c-4.603 0.819-13.264 0.767-19.469 0.031h-30.19c-0.084 10.703 0.168 21.614-0.125 32.19-24.606-25.938-0.032 0.017-24.656-26.16-2.384 4.225-18.12 9.703-26.906 14.844-59.988 35.792-89.24 114.39-64.28 179.63 11.629 35.764 39.593 61.961 69.03 83.63 55.25 57.46 72.39 75.25 78.56 81.59 111.09-4.786 200.71-92.34 208.72-202.56-77.95-86.62 22.13 23.862-109.94-122.22-14.227-11.361-43.21-33.34-54.16-30.656-0.783 4.269 0.537 14.91-1.813 14.906-24.492-25.17-16.627-17.232-24.781-25.22"/>
 <text id="text8" font-size="208.33" line-height="125%" y="549.52" x="-1160.48" font-family="Gentium Book Basic" word-spacing="0" letter-spacing="0"><tspan id="tspan10" y="549.52" x="-1160.48"/>
 </text>
 <text id="text12" font-size="75.7" transform="scale(4.0128 .2492)" y="1642.24" x="28.534" font-family="Arial" text-anchor="middle"/>
 <text id="text14" font-size="208.33" line-height="125%" y="393.89" x="-454.14" font-family="Gentium Book Basic" word-spacing="0" letter-spacing="0"><tspan id="tspan16" y="393.89" x="-454.14"/>
 </text>
 <text id="text18" font-size="75.7" transform="scale(4.0128 .2492)" y="1017.72" x="204.55" font-family="Arial" text-anchor="middle"/>
 <text id="text20" font-size="208.33" line-height="125%" y="385.77" x="-420.77" font-family="Gentium Book Basic" word-spacing="0" letter-spacing="0"><tspan id="tspan22" y="385.77" x="-420.77"/>
 </text>
 <text id="text24" font-size="75.7" transform="scale(4.0128 .2492)" y="985.12" x="212.87" font-family="Arial" text-anchor="middle"/>
 <text id="text26" font-size="208.33" line-height="125%" y="575.21" x="-1843.19" font-family="Gentium Book Basic" word-spacing="0" letter-spacing="0"><tspan id="tspan28" y="575.21" x="-1843.19"/>
 </text>
 <text id="text30" font-size="75.7" transform="scale(4.0128 .2492)" y="1745.31" x="-141.6" font-family="Arial" text-anchor="middle"/>
 <text id="text32" font-size="208.33" line-height="125%" y="419.57" x="-1136.85" font-family="Gentium Book Basic" word-spacing="0" letter-spacing="0"><tspan id="tspan34" y="419.57" x="-1136.85"/>
 </text>
 <text id="text36" font-size="75.7" transform="scale(4.0128 .2492)" y="1120.79" x="34.423" font-family="Arial" text-anchor="middle"/>
 <text id="text38" font-size="208.33" line-height="125%" y="411.45" x="-1103.47" font-family="Gentium Book Basic" word-spacing="0" letter-spacing="0"><tspan id="tspan40" y="411.45" x="-1103.47"/>
 </text>
 <text id="text42" font-size="75.7" transform="scale(4.0128 .2492)" y="1088.19" x="42.74" font-family="Arial" text-anchor="middle"/>
 <g id="g44" transform="translate(0,-540.36)" fill-rule="evenodd">
  <path id="path46" fill-opacity="0.067" d="m256 541.36c-140.83 0-255 114.17-255 255s114.17 255 255 255 255-114.17 255-255-114.17-255-255-255m8.827 44.931c120.9 0 218.9 98 218.9 218.9s-98 218.9-218.9 218.9-218.93-98-218.93-218.9 98.03-218.9 218.93-218.9"/>
  <g id="g48" fill-opacity="0.129">
   <path id="path50" d="m256 544.79c-138.94 0-251.57 112.63-251.57 251.57s112.63 251.54 251.57 251.54 251.57-112.6 251.57-251.54-112.63-251.57-251.57-251.57m5.885 38.556c120.9 0 218.9 98 218.9 218.9s-98 218.9-218.9 218.9-218.93-98-218.93-218.9 98.03-218.9 218.93-218.9"/>
   <path id="path52" d="m256 548.72c-136.77 0-247.64 110.87-247.64 247.64s110.87 247.64 247.64 247.64 247.64-110.87 247.64-247.64-110.87-247.64-247.64-247.64m2.942 31.691c120.9 0 218.9 98 218.9 218.9s-98 218.9-218.9 218.9-218.93-98-218.93-218.9 98.03-218.9 218.93-218.9"/>
  </g>
  <path id="path54" d="m253.04 548.22c-135.42 0-245.19 109.78-245.19 245.19 0 135.42 109.78 245.19 245.19 245.19 135.42 0 245.19-109.78 245.19-245.19 0-135.42-109.78-245.19-245.19-245.19zm0 26.297c120.9 0 218.9 98 218.9 218.9s-98 218.9-218.9 218.9-218.93-98-218.93-218.9 98.03-218.9 218.93-218.9z" stroke-opacity="0.31" stroke="#000" stroke-width="4.904" fill="#fff"/>
 </g>
 <text id="text56" font-size="129.23" line-height="125%" y="231.36" x="729.64" font-family="Gentium Book Basic" word-spacing="0" letter-spacing="0"><tspan id="tspan58" y="231.36" x="729.64"/>
 </text>
 <text id="text60" font-size="46.954" transform="scale(4.0128 .2492)" y="579.26" x="378.91" font-family="Arial" text-anchor="middle"/>
 <text id="text62" font-size="129.23" line-height="125%" y="151.36" x="1310.91" font-family="Gentium Book Basic" word-spacing="0" letter-spacing="0"><tspan id="tspan64" y="151.36" x="1310.91"/>
 </text>
 <text id="text66" font-size="46.954" transform="scale(4.0128 .2492)" y="258.22" x="523.76" font-family="Arial" text-anchor="middle"/>
 <text id="text68" font-size="129.23" line-height="125%" y="-29.9" x="239.33" font-family="Gentium Book Basic" word-spacing="0" letter-spacing="0"><tspan id="tspan70" y="-29.9" x="239.33"/>
 </text>
 <text id="text72" font-size="46.954" transform="scale(4.0128 .2492)" y="-469.13" x="256.72" font-family="Arial" text-anchor="middle"/>
 <text id="text74" font-size="129.23" line-height="125%" y="-246.37" x="1337.38" font-family="Gentium Book Basic" word-spacing="0" letter-spacing="0"><tspan id="tspan76" y="-246.37" x="1337.38"/>
 </text>
 <text id="text78" font-size="46.954" transform="scale(4.0128 .2492)" y="-1337.8" x="530.36" font-family="Arial" text-anchor="middle"/>
 <text id="text80" font-size="129.23" line-height="125%" y="-326.37" x="1918.65" font-family="Gentium Book Basic" word-spacing="0" letter-spacing="0"><tspan id="tspan82" y="-326.37" x="1918.65"/>
 </text>
 <text id="text84" font-size="46.954" transform="scale(4.0128 .2492)" y="-1658.83" x="675.21" font-family="Arial" text-anchor="middle"/>
 <text id="text86" font-size="129.23" line-height="125%" y="-798.77" x="1529.53" font-family="Gentium Book Basic" word-spacing="0" letter-spacing="0"><tspan id="tspan88" y="-798.77" x="1529.53"/>
 </text>
 <text id="text90" font-size="46.954" transform="scale(4.0128 .2492)" y="-3554.48" x="578.24" font-family="Arial" text-anchor="middle"/>
 <text id="text92" font-size="129.23" line-height="125%" y="-878.78" x="2110.79" font-family="Gentium Book Basic" word-spacing="0" letter-spacing="0"><tspan id="tspan94" y="-878.78" x="2110.79"/>
 </text>
 <text id="text96" font-size="46.954" transform="scale(4.0128 .2492)" y="-3875.52" x="723.09" font-family="Arial" text-anchor="middle"/>
 <text id="text98" font-size="208.33" line-height="125%" y="535.94" x="277.99" font-family="Gentium Book Basic" word-spacing="0" letter-spacing="0"><tspan id="tspan100" y="535.94" x="277.99"/>
 </text>
 <path id="path102" fill="#fff" d="m231 106v151.41h50v-151.41h-50m-25 5.906c-58.28 20.771-100 76.8-100 142.72 0 83.6 67.16 151.38 150 151.38s150-67.775 150-151.37c0-65.921-41.724-121.95-100-142.72v55.969c29.846 17.457 50 49.43 50 86.75 0 55.733-44.775 100.91-100 100.91-55.22 0-100-45.17-100-100.91 0-37.32 20.15-69.29 50-86.75v-55.969"/>
</svg>
