<?xml version="1.0" encoding="UTF-8" standalone="no"?>
<svg xmlns="http://www.w3.org/2000/svg" height="512" viewBox="0 0 512 512" width="512" version="1.1">
 <metadata id="metadata76"/>
 <g id="g4" fill-rule="evenodd">
  <path id="path6" fill="#BF9E73" d="m471.95 253.05c0 120.9-98.01 218.9-218.9 218.9-120.9 0-218.9-98.01-218.9-218.9 0-120.9 98.01-218.9 218.9-218.9 120.9 0 218.9 98.01 218.9 218.9"/>
  <path id="path8" fill-opacity="0.235" d="m251.28 161.97c-39.451 0.023-77.31 0.078-128.84 0.125-0.122 0-0.25 0.026-0.25 0.063v22.844c0 0.036 0.128 0.063 0.25 0.063h0.75v0.938c0 0.036 0.128 0.063 0.25 0.063h0.75v0.938c0 0.036 0.128 0.063 0.25 0.063h0.75v0.938c0 0.036 0.128 0.063 0.25 0.063h0.719v0.906c0 0.036 0.128 0.063 0.25 0.063h0.75v0.938c0 0.036 0.128 0.063 0.25 0.063h0.75v0.938c0 0.036 0.128 0.063 0.25 0.063h0.75v0.938c0 0.036 0.128 0.063 0.25 0.063h0.75v0.938c0 0.036 0.128 0.063 0.25 0.063h0.75v0.938c0 0.036 0.128 0.063 0.25 0.063h0.719v0.906c0 0.036 0.128 0.063 0.25 0.063h0.75v0.938c0 0.036 0.128 0.063 0.25 0.063h0.75v0.938c0 0.036 0.128 0.063 0.25 0.063h0.75v0.938c0 0.036 0.128 0.063 0.25 0.063h0.75v0.938c0 0.036 0.128 0.063 0.25 0.063h0.75v0.938c0 0.036 0.128 0.063 0.25 0.063h0.719v0.906c0 0.036 0.128 0.063 0.25 0.063h0.75v0.938c0 0.036 0.128 0.063 0.25 0.063h0.75v0.938c0 0.036 0.128 0.063 0.25 0.063h0.75v0.938c0 0.036 0.128 0.063 0.25 0.063h0.75v0.938c0 0.036 0.128 0.063 0.25 0.063h0.75v0.938c0 0.036 0.128 0.063 0.25 0.063h0.719v0.937c0 0.036 0.128 0.031 0.25 0.031h0.75v0.375h-22.625c-0.122 0-0.25 0.104-0.25 0.219v142.28c0 0.115 0.128 0.219 0.25 0.219h0.75v0.781c0 0.114 0.129 0.219 0.25 0.219h0.75v0.781c0 0.114 0.129 0.219 0.25 0.219h0.75v0.781c0 0.113 0.099 0.188 0.219 0.188 0 0.002 0.029 0.031 0.031 0.031h0.719v0.75c0 0.113 0.131 0.219 0.25 0.219h0.75v0.781c0 0.112 0.131 0.219 0.25 0.219h0.75v0.781c0 0.112 0.132 0.219 0.25 0.219h0.75v0.781c0 0.111 0.132 0.219 0.25 0.219h0.75v0.781c0 0.11 0.102 0.187 0.219 0.188 0 0.005 0.026 0.031 0.031 0.031h0.75v0.781c0 0.11 0.102 0.187 0.219 0.188 0 0.005 0.026 0.031 0.031 0.031h0.719v0.75c0 0.109 0.134 0.219 0.25 0.219h0.75v0.781c0 0.109 0.135 0.219 0.25 0.219h0.75v0.781c0 0.108 0.135 0.219 0.25 0.219h0.75v0.781c0 0.108 0.105 0.187 0.219 0.188 0 0.007 0.023 0.031 0.031 0.031h0.75v0.781c0 0.107 0.105 0.187 0.219 0.188 0 0.008 0.023 0.031 0.031 0.031h0.75v0.781c0 0.106 0.106 0.187 0.219 0.188 0 0.009 0.023 0.031 0.031 0.031h0.719v0.75c0 0.106 0.138 0.219 0.25 0.219h0.75v0.781c0 0.105 0.138 0.219 0.25 0.219h0.75v0.781c0 0.105 0.108 0.219 0.219 0.219 0 0.01 0.02 0 0.031 0h0.75v0.781c0 0.104 0.108 0.187 0.219 0.188 0 0.011 0.02 0.031 0.031 0.031h0.75v0.781c0 0.104 0.109 0.187 0.219 0.188 0 0.011 0.019 0.031 0.031 0.031h0.75v0.781c0 0.103 0.11 0.187 0.219 0.188 0 0.012 0.019 0.031 0.031 0.031h0.719v0.75c0 0.102 0.141 0.219 0.25 0.219h0.75v0.781c0 0.102 0.111 0.219 0.219 0.219 0 0.013 0.017 0 0.031 0h0.75v0.781c0 0.101 0.111 0.187 0.219 0.188 0 0.014 0.017 0.031 0.031 0.031h0.75v0.781c0 0.101 0.112 0.187 0.219 0.188 0 0.014 0.016 0.031 0.031 0.031h0.75v0.781c0 0.1 0.113 0.187 0.219 0.188 0 0.015 0.016 0.031 0.031 0.031h0.75v0.781c0 0.1 0.113 0.187 0.219 0.188 0 0.015 0.015 0.031 0.031 0.031h0.75v0.781c0 0.099 0.083 0.187 0.188 0.188 0 0.016 0.046 0.031 0.063 0.031h0.719v0.75c0 0.099 0.114 0.187 0.219 0.188 0 0.017 0.014 0.031 0.031 0.031h0.75v0.781c0 0.098 0.115 0.187 0.219 0.188 0 0.017 0.013 0.031 0.031 0.031h0.75v0.781c0 0.097 0.116 0.187 0.219 0.188 0 0.018 0.012 0.031 0.031 0.031h0.75v0.781c0 0.097 0.116 0.187 0.219 0.188 0 0.018 0.012 0.031 0.031 0.031h0.75v0.781c0 0.096 0.086 0.187 0.188 0.188 0 0.019 0.043 0.031 0.063 0.031h0.75v0.781c0 0.096 0.086 0.156 0.188 0.156 0 0.019 0.042 0.063 0.063 0.063h0.719v0.75c0 0.095 0.118 0.187 0.219 0.188 0 0.02 0.01 0.031 0.031 0.031h0.75v0.781c0 0.094 0.119 0.187 0.219 0.188 0 0.021 0.009 0.031 0.031 0.031h0.75v0.781c0 0.094 0.119 0.187 0.219 0.188 0 0.021 0.009 0.031 0.031 0.031h0.75v0.781c0 0.093 0.089 0.187 0.188 0.188 0 0.022 0.04 0.031 0.063 0.031h0.75v0.781c0 0.093 0.089 0.156 0.188 0.156 0 0.022 0.039 0.063 0.063 0.063h0.75v0.781c0 0.092 0.09 0.156 0.188 0.156 0 0.023 0.038 0.063 0.063 0.063h0.719v0.75c0 0.092 0.122 0.187 0.219 0.188 0 0.023 0.006 0.031 0.031 0.031h0.75v0.781c0 0.091 0.122 0.187 0.219 0.188 0 0.024 0.006 0.031 0.031 0.031h0.75v0.781c0 0.091 0.092 0.187 0.188 0.188 0 0.024 0.036 0.031 0.063 0.031h0.75v0.781c0 0.09 0.092 0.156 0.188 0.156 0 0.025 0.036 0.063 0.063 0.063h0.75v0.781c0 0.089 0.093 0.156 0.188 0.156 0 0.026 0.035 0.063 0.063 0.063h0.75v0.781c0 0.089 0.094 0.156 0.188 0.156 0 0.026 0.035 0.063 0.063 0.063h0.75v0.781c0 0.088 0.094 0.156 0.188 0.156 0 0.027 0.034 0.063 0.063 0.063h0.719v0.75c0 0.088 0.095 0.187 0.188 0.188 0 0.027 0.033 0.031 0.063 0.031h0.75v0.781c0 0.087 0.095 0.156 0.188 0.156 0 0.028 0.033 0.063 0.063 0.063h0.75v0.781c0 0.087 0.096 0.156 0.188 0.156 0 0.029 0.032 0.063 0.063 0.063h0.75v0.781c0 0.086 0.097 0.156 0.188 0.156 0 0.029 0.032 0.063 0.063 0.063h0.75v0.781c0 0.085 0.097 0.156 0.188 0.156 0 0.03 0.031 0.063 0.063 0.063h0.75v0.781c0 0.085 0.066 0.156 0.156 0.156 0 0.03 0.062 0.063 0.094 0.063h0.719v0.75c0 0.084 0.098 0.187 0.188 0.188 0 0.031 0.03 0.031 0.063 0.031h0.75v0.781c0 0.084 0.099 0.156 0.188 0.156 0 0.031 0.029 0.063 0.063 0.063h0.75v0.781c0 0.083 0.1 0.156 0.188 0.156 0 0.032 0.029 0.063 0.063 0.063h0.75v0.781c0 0.082 0.1 0.156 0.188 0.156 0 0.033 0.028 0.063 0.063 0.063h0.75v0.781c0 0.082 0.069 0.156 0.156 0.156 0 0.033 0.059 0.063 0.094 0.063h0.75v0.781c0 0.081 0.07 0.156 0.156 0.156 0 0.034 0.058 0.063 0.094 0.063h0.719v0.75c0 0.081 0.102 0.156 0.188 0.156 0 0.034 0.026 0.063 0.063 0.063h0.75v0.781c0 0.08 0.103 0.156 0.188 0.156 0 0.035 0.025 0.063 0.063 0.063h0.75v0.781c0 0.08 0.103 0.156 0.188 0.156 0 0.035 0.025 0.063 0.063 0.063h0.75v0.781c0 0.079 0.073 0.156 0.156 0.156 0 0.036 0.056 0.063 0.094 0.063h0.75v0.781c0 0.079 0.073 0.156 0.156 0.156 0 0.037 0.055 0.063 0.094 0.063h0.75v0.781c0 0.078 0.074 0.125 0.156 0.125 0 0.037 0.054 0.094 0.094 0.094h0.719v0.75c0 0.077 0.106 0.156 0.188 0.156 0 0.038 0.023 0.063 0.063 0.063h0.75v0.781c0 0.077 0.106 0.156 0.188 0.156 0 0.038 0.022 0.063 0.063 0.063h0.75v0.781c0 0.076 0.076 0.156 0.156 0.156 0 0.039 0.053 0.063 0.094 0.063h0.75v0.781c0 0.076 0.076 0.156 0.156 0.156 0 0.039 0.052 0.063 0.094 0.063h0.75v0.781c0 0.075 0.077 0.125 0.156 0.125 0 0.04 0.051 0.094 0.094 0.094h0.75v0.781c0 0.075 0.077 0.125 0.156 0.125 0 0.041 0.051 0.094 0.094 0.094h0.75v0.781c0 0.074 0.078 0.125 0.156 0.125 0 0.041 0.05 0.094 0.094 0.094h0.719v0.75c0 0.073 0.079 0.156 0.156 0.156 0 0.042 0.05 0.063 0.094 0.063h0.75v0.781c0 0.073 0.079 0.156 0.156 0.156 0 0.042 0.049 0.063 0.094 0.063h0.75v0.781c0 0.072 0.08 0.125 0.156 0.125 0 0.043 0.048 0.094 0.094 0.094h0.75v0.781c0 0.072 0.08 0.125 0.156 0.125 0 0.043 0.048 0.094 0.094 0.094h0.75v0.781c0 0.071 0.081 0.125 0.156 0.125 0 0.044 0.047 0.094 0.094 0.094h0.75v0.781c0 0.07 0.05 0.125 0.125 0.125 0 0.045 0.078 0.094 0.125 0.094h0.719v0.75c0 0.07 0.082 0.156 0.156 0.156 0 0.045 0.046 0.063 0.094 0.063h0.75v0.781c0 0.069 0.083 0.125 0.156 0.125 0 0.046 0.045 0.094 0.094 0.094h0.75v0.781c0 0.069 0.083 0.125 0.156 0.125 0 0.046 0.045 0.094 0.094 0.094h0.75v0.781c0 0.068 0.084 0.125 0.156 0.125 0 0.047 0.044 0.094 0.094 0.094h0.75v0.781c0 0.068 0.053 0.125 0.125 0.125 0 0.047 0.075 0.094 0.125 0.094h0.75v0.781c0 0.067 0.054 0.125 0.125 0.125 0 0.048 0.074 0.094 0.125 0.094h0.719v0.75c0 0.067 0.086 0.156 0.156 0.156 0 0.048 0.042 0.063 0.094 0.063h0.75v0.781c0 0.066 0.087 0.125 0.156 0.125 0 0.049 0.042 0.094 0.094 0.094h0.75v0.781c0 0.065 0.087 0.125 0.156 0.125 0 0.05 0.041 0.094 0.094 0.094h0.75v0.781c0 0.065 0.056 0.125 0.125 0.125 0 0.05 0.072 0.094 0.125 0.094h0.75v0.781c0 0.064 0.057 0.125 0.125 0.125 0 0.051 0.071 0.094 0.125 0.094h0.75v0.781c0 0.064 0.058 0.125 0.125 0.125 0 0.051 0.07 0.094 0.125 0.094h0.75v0.781c0 0.063 0.058 0.094 0.125 0.094 0 0.052 0.07 0.125 0.125 0.125h0.719v0.75c0 0.063 0.09 0.125 0.156 0.125 0 0.053 0.038 0.094 0.094 0.094h0.75v0.781c0 0.062 0.059 0.125 0.125 0.125 0 0.053 0.069 0.094 0.125 0.094h0.75v0.781c0 0.061 0.06 0.125 0.125 0.125 0 0.054 0.068 0.094 0.125 0.094h0.75v0.781c0 0.061 0.061 0.125 0.125 0.125 0 0.054 0.068 0.094 0.125 0.094h0.75v0.781c0 0.06 0.061 0.094 0.125 0.094 0 0.055 0.067 0.125 0.125 0.125h0.75v0.781c0 0.06 0.062 0.094 0.125 0.094 0 0.055 0.066 0.125 0.125 0.125h0.719v0.75c0 0.059 0.062 0.125 0.125 0.125 0 0.056 0.066 0.094 0.125 0.094h0.75v0.781c0 0.058 0.063 0.125 0.125 0.125 0 0.057 0.065 0.094 0.125 0.094h0.75v0.781c0 0.058 0.064 0.125 0.125 0.125 0 0.057 0.064 0.094 0.125 0.094h0.75v0.781c0 0.057 0.064 0.094 0.125 0.094 0 0.058 0.064 0.125 0.125 0.125h0.75v0.781c0 0.057 0.065 0.094 0.125 0.094 0 0.058 0.063 0.125 0.125 0.125h0.75v0.781c0 0.056 0.066 0.094 0.125 0.094 0 0.059 0.063 0.125 0.125 0.125h0.719v0.75c0 0.056 0.066 0.125 0.125 0.125 0 0.059 0.062 0.094 0.125 0.094h0.75v0.781c0 0.055 0.067 0.125 0.125 0.125 0 0.06 0.061 0.094 0.125 0.094h0.75v0.781c0 0.055 0.067 0.094 0.125 0.094 0 0.06 0.061 0.125 0.125 0.125h0.75v0.781c0 0.054 0.068 0.094 0.125 0.094 0 0.061 0.06 0.125 0.125 0.125h0.75v0.781c0 0.053 0.069 0.094 0.125 0.094 0 0.062 0.06 0.125 0.125 0.125h0.75v0.781c0 0.053 0.038 0.094 0.094 0.094 0 0.062 0.09 0.125 0.156 0.125h0.719v0.75c0 0.052 0.07 0.125 0.125 0.125 0 0.063 0.058 0.094 0.125 0.094h0.75v0.781c0 0.052 0.07 0.094 0.125 0.094 0 0.063 0.058 0.125 0.125 0.125h0.75v0.781c0 0.051 0.071 0.094 0.125 0.094 0 0.064 0.057 0.125 0.125 0.125h0.75v0.781c0 0.05 0.072 0.094 0.125 0.094 0 0.065 0.057 0.125 0.125 0.125h0.75v0.781c0 0.05 0.041 0.094 0.094 0.094 0 0.065 0.087 0.125 0.156 0.125h0.75v0.781c0 0.049 0.042 0.094 0.094 0.094 0 0.066 0.087 0.125 0.156 0.125h0.75v0.781c0 0.049 0.042 0.094 0.094 0.094 0 0.066 0.086 0.125 0.156 0.125h0.719v0.75c0 0.048 0.074 0.094 0.125 0.094 0 0.067 0.054 0.125 0.125 0.125h0.75v0.781c0 0.048 0.075 0.094 0.125 0.094 0 0.067 0.054 0.125 0.125 0.125h0.75v0.781c0 0.047 0.044 0.094 0.094 0.094 0 0.068 0.084 0.125 0.156 0.125h0.75v0.781c0 0.046 0.045 0.094 0.094 0.094 0 0.068 0.084 0.125 0.156 0.125h0.75v0.781c0 0.046 0.045 0.094 0.094 0.094 0 0.069 0.083 0.125 0.156 0.125h0.75v0.781c0 0.045 0.046 0.062 0.094 0.063 0 0.07 0.082 0.156 0.156 0.156h0.719v0.313c2.818 0.108 5.625 0.219 8.469 0.219 120.9 0 218.91-98.01 218.91-218.91 0-2.802-0.052-5.599-0.156-8.375h-0.375v-0.938c-0.001-0.036-0.128-0.063-0.25-0.063-0.285-0.001-0.466 0.001-0.75 0v-0.938c-0.001-0.036-0.128-0.063-0.25-0.063-0.285-0.001-0.466 0.001-0.75 0v-0.938c-0.001-0.036-0.128-0.063-0.25-0.063-0.285-0.001-0.466 0.001-0.75 0v-0.938c-0.001-0.036-0.128-0.063-0.25-0.063-0.273-0.001-0.446 0.001-0.719 0v-0.906c-0.001-0.036-0.128-0.063-0.25-0.063-0.285-0.001-0.466 0.001-0.75 0v-0.938c-0.001-0.036-0.128-0.063-0.25-0.063-0.285-0.001-0.466 0.001-0.75 0v-0.95c-0.001-0.036-0.128-0.063-0.25-0.063-0.285-0.001-0.466 0.001-0.75 0v-0.938c-0.001-0.036-0.128-0.063-0.25-0.063-0.285-0.001-0.466 0.001-0.75 0v-0.938c-0.001-0.036-0.128-0.063-0.25-0.063-0.285-0.001-0.466 0.001-0.75 0v-0.938c-0.001-0.036-0.128-0.063-0.25-0.063-0.273-0.001-0.446 0.001-0.719 0v-0.906c-0.001-0.036-0.128-0.063-0.25-0.063-0.285-0.001-0.466 0.001-0.75 0v-0.938c-0.001-0.036-0.128-0.063-0.25-0.063-0.285-0.001-0.466 0.001-0.75 0v-0.938c-0.001-0.036-0.128-0.063-0.25-0.063-0.285-0.001-0.466 0.001-0.75 0v-0.938c-0.001-0.036-0.128-0.063-0.25-0.063-0.285-0.001-0.466 0.001-0.75 0v-0.938c-0.001-0.036-0.128-0.063-0.25-0.063-0.285-0.001-0.466 0.001-0.75 0v-0.938c-0.001-0.036-0.128-0.063-0.25-0.063-0.285-0.001-0.466 0.001-0.75 0v-0.938c-0.001-0.036-0.128-0.063-0.25-0.063-0.273-0.001-0.446 0.001-0.719 0v-0.906c-0.001-0.036-0.128-0.063-0.25-0.063-0.285-0.001-0.466 0.001-0.75 0v-0.938c-0.001-0.036-0.128-0.063-0.25-0.063-0.285-0.001-0.466 0.001-0.75 0v-0.938c-0.001-0.036-0.128-0.063-0.25-0.063-0.285-0.001-0.466 0.001-0.75 0v-0.938c-0.001-0.036-0.128-0.063-0.25-0.063-0.285-0.001-0.466 0.001-0.75 0v-0.938c-0.001-0.036-0.128-0.063-0.25-0.063-0.285-0.001-0.466 0.001-0.75 0v-0.938c-0.001-0.036-0.128-0.063-0.25-0.063-0.273-0.001-0.446 0.001-0.719 0v-0.906c-0.001-0.036-0.128-0.063-0.25-0.063-0.285-0.001-0.466 0.001-0.75 0v-0.938c-0.001-0.036-0.128-0.063-0.25-0.063-0.285-0.001-0.466 0.001-0.75 0v-0.938c-0.001-0.036-0.128-0.063-0.25-0.063-0.285-0.001-0.466 0.001-0.75 0v-0.938c-0.001-0.036-0.128-0.063-0.25-0.063-0.285-0.001-0.466 0.001-0.75 0v-0.938c-0.001-0.036-0.128-0.063-0.25-0.063-0.285-0.001-0.466 0.001-0.75 0v-0.938c-0.001-0.036-0.128-0.063-0.25-0.063-0.273-0.001-0.446 0.001-0.719 0v-0.906c-0.001-0.036-0.128-0.063-0.25-0.063-0.285-0.001-0.466 0.001-0.75 0v-0.938c-0.001-0.036-0.128-0.063-0.25-0.063-0.285-0.001-0.466 0.001-0.75 0v-0.938c0-0.036-0.128-0.063-0.25-0.063-0.285-0.001-0.466 0.001-0.75 0v-0.938c0-0.036-0.128-0.063-0.25-0.063-0.285-0.001-0.466 0.001-0.75 0v-0.938c0-0.036-0.128-0.063-0.25-0.063-0.285-0.001-0.466 0.001-0.75 0v-0.96c0-0.036-0.128-0.063-0.25-0.063-0.273-0.001-0.446 0.001-0.719 0v-0.906c0-0.036-0.128-0.063-0.25-0.063-0.285-0.001-0.466 0.001-0.75 0v-0.938c0-0.036-0.128-0.063-0.25-0.063-0.285-0.001-0.466 0.001-0.75 0v-0.938c0-0.036-0.128-0.063-0.25-0.063-0.285-0.001-0.466 0.001-0.75 0v-0.938c0-0.036-0.128-0.063-0.25-0.063-0.285-0.001-0.466 0.001-0.75 0v-0.938c0-0.036-0.128-0.063-0.25-0.063-0.285-0.001-0.466 0.001-0.75 0v-0.938c0-0.036-0.128-0.063-0.25-0.063-0.285-0.001-0.466 0.001-0.75 0v-0.938c0-0.036-0.128-0.063-0.25-0.063-0.273-0.001-0.446 0.001-0.719 0v-0.906c0-0.036-0.128-0.063-0.25-0.063-0.285-0.001-0.466 0.001-0.75 0v-0.938c0-0.036-0.128-0.063-0.25-0.063-0.285-0.001-0.466 0.001-0.75 0v-0.938c0-0.036-0.128-0.063-0.25-0.063-0.285-0.001-0.466 0.001-0.75 0v-0.938c0-0.036-0.128-0.063-0.25-0.063-0.285-0.001-0.466 0.001-0.75 0v-0.938c0-0.036-0.128-0.063-0.25-0.063-0.285-0.001-0.466 0.001-0.75 0v-0.938c0-0.036-0.128-0.063-0.25-0.063-0.273-0.001-0.446 0.001-0.719 0v-0.906c0-0.036-0.128-0.063-0.25-0.063-0.285-0.001-0.466 0.001-0.75 0v-0.938c0-0.036-0.128-0.063-0.25-0.063-0.285-0.001-0.466 0.001-0.75 0v-0.938c0-0.036-0.128-0.063-0.25-0.063-0.285-0.001-0.466 0.001-0.75 0v-0.938c0-0.036-0.128-0.063-0.25-0.063-0.285-0.001-0.466 0.001-0.75 0v-0.938c0-0.036-0.128-0.063-0.25-0.063-0.285-0.001-0.466 0.001-0.75 0v-0.938c0-0.036-0.128-0.063-0.25-0.063-0.273-0.001-0.446 0.001-0.719 0v-0.906c0-0.036-0.128-0.063-0.25-0.063-0.285-0.001-0.466 0.001-0.75 0v-0.938c0-0.036-0.128-0.063-0.25-0.063-0.285-0.001-0.466 0.001-0.75 0v-0.938c0-0.036-0.128-0.063-0.25-0.063-0.285-0.001-0.466 0.001-0.75 0v-0.938c0-0.036-0.128-0.063-0.25-0.063-0.285-0.001-0.466 0.001-0.75 0v-0.938c0-0.036-0.128-0.063-0.25-0.063-0.285-0.001-0.466 0.001-0.75 0v-0.938c0-0.036-0.128-0.063-0.25-0.063-0.285-0.001-0.466 0.001-0.75 0v-0.938c0-0.036-0.128-0.063-0.25-0.063-0.273-0.001-0.446 0.001-0.719 0v-0.906c0-0.036-0.128-0.063-0.25-0.063-0.285-0.001-0.466 0.001-0.75 0v-0.938c0-0.036-0.128-0.063-0.25-0.063-0.285-0.001-0.466 0.001-0.75 0v-0.938c0-0.036-0.128-0.063-0.25-0.063-0.285-0.001-0.466 0.001-0.75 0v-0.938c0-0.036-0.128-0.063-0.25-0.063-0.285-0.001-0.466 0.001-0.75 0v-0.938c0-0.036-0.128-0.063-0.25-0.063-0.285-0.001-0.466 0.001-0.75 0v-0.938c0-0.036-0.128-0.063-0.25-0.063-0.273-0.001-0.446 0.001-0.719 0v-0.906c0-0.036-0.128-0.063-0.25-0.063-0.285-0.001-0.466 0.001-0.75 0v-0.938c0-0.036-0.128-0.063-0.25-0.063-0.285-0.001-0.466 0.001-0.75 0v-0.938c0-0.036-0.128-0.063-0.25-0.063-0.285-0.001-0.466 0.001-0.75 0v-0.938c0-0.036-0.128-0.063-0.25-0.063-0.285-0.001-0.466 0.001-0.75 0v-0.938c0-0.036-0.128-0.063-0.25-0.063-0.285-0.001-0.466 0.001-0.75 0v-0.938c0-0.036-0.128-0.063-0.25-0.063-0.273-0.001-0.446 0.001-0.719 0v-0.906c0-0.036-0.128-0.063-0.25-0.063-0.285-0.001-0.466 0.001-0.75 0v-0.938c0-0.036-0.128-0.063-0.25-0.063-0.285-0.001-0.466 0.001-0.75 0v-0.938c0-0.036-0.128-0.063-0.25-0.063-0.285-0.001-0.466 0.001-0.75 0v-0.938c0-0.036-0.128-0.063-0.25-0.063-0.285-0.001-0.466 0.001-0.75 0v-0.938c0-0.036-0.128-0.063-0.25-0.063-0.285-0.001-0.466 0.001-0.75 0v-0.938c0-0.036-0.128-0.063-0.25-0.063-0.273-0.001-0.446 0.001-0.719 0v-0.906c0-0.036-0.128-0.063-0.25-0.063-0.285-0.001-0.466 0.001-0.75 0v-0.938c0-0.036-0.128-0.063-0.25-0.063-0.285-0.001-0.466 0.001-0.75 0v-0.938c0-0.036-0.128-0.063-0.25-0.063-0.285-0.001-0.466 0.001-0.75 0v-0.938c0-0.036-0.128-0.063-0.25-0.063-57.82-0.138-98.83-0.148-138.28-0.125"/>
  <path id="path10" fill-opacity="0.067" d="m256 1c-140.83 0-255 114.17-255 255s114.17 255 255 255 255-114.17 255-255-114.17-255-255-255m8.827 44.931c120.9 0 218.9 98 218.9 218.9s-98 218.9-218.9 218.9-218.93-98-218.93-218.9 98.03-218.9 218.93-218.9"/>
  <g id="g12" fill-opacity="0.129">
   <path id="path14" d="m256 4.433c-138.94 0-251.57 112.63-251.57 251.57s112.63 251.57 251.57 251.57 251.57-112.63 251.57-251.57-112.63-251.57-251.57-251.57m5.885 38.556c120.9 0 218.9 98 218.9 218.9s-98 218.9-218.9 218.9-218.93-98-218.93-218.9 98.03-218.9 218.93-218.9"/>
   <path id="path16" d="m256 8.356c-136.77 0-247.64 110.87-247.64 247.64s110.87 247.64 247.64 247.64 247.64-110.87 247.64-247.64-110.87-247.64-247.64-247.64m2.942 31.691c120.9 0 218.9 98 218.9 218.9s-98 218.9-218.9 218.9-218.93-98-218.93-218.9 98.03-218.9 218.93-218.9"/>
  </g>
  <path id="path18" d="m253.04 7.859c-135.42 0-245.19 109.78-245.19 245.19 0 135.42 109.78 245.19 245.19 245.19 135.42 0 245.19-109.78 245.19-245.19 0-135.42-109.78-245.19-245.19-245.19zm0 26.297c120.9 0 218.9 98 218.9 218.9s-98 218.9-218.9 218.9-218.93-98-218.93-218.9 98.03-218.9 218.93-218.9z" stroke-opacity="0.31" stroke="#000" stroke-width="4.904" fill="#fff"/>
 </g>
 <g id="g66" fill="#fff" transform="matrix(1.1125 0 0 1.1125 -25.507 -104.2)" fill-rule="evenodd">
  <path id="path68" d="m132.98 280.02c-0.11 0-0.204 0.089-0.204 0.192v127.9c0 0.103 0.094 0.192 0.204 0.192h240.13c0.11 0 0.204-0.089 0.204-0.192v-127.9c0-0.103-0.094-0.192-0.204-0.192h-87.7v1.785c0 0.248-0.011 0.498-0.029 0.741 0.004 0.098 0 0.203 0 0.302v9.143c0 5.631-4.827 10.187-10.795 10.187h-43.09c-5.967 0-10.766-4.555-10.766-10.187v-9.143c0-0.171-0.008-0.353 0-0.522-0.004-0.072 0.002-0.147 0-0.22-0.003-0.101-0.029-0.201-0.029-0.302v-1.785h-87.73"/>
  <path id="path70" d="m248.81 239.27c-35.463 0.02-69.51 0.067-115.83 0.11-0.11 0-0.204 0.022-0.204 0.055v20.538c0 0.033 0.094 0.055 0.204 0.055h87.73v-3.515c0-5.586 4.759-10.1 10.678-10.1h43.35c5.92 0 10.678 4.518 10.678 10.1v3.515h87.7c0.11 0 0.204-0.022 0.204-0.055v-20.538c0-0.033-0.094-0.055-0.204-0.055-51.974-0.124-88.84-0.13-124.3-0.11"/>
 </g>
</svg>
