<?xml version="1.0" encoding="UTF-8" standalone="no"?>
<svg
   xmlns:dc="http://purl.org/dc/elements/1.1/"
   xmlns:cc="http://creativecommons.org/ns#"
   xmlns:rdf="http://www.w3.org/1999/02/22-rdf-syntax-ns#"
   xmlns:svg="http://www.w3.org/2000/svg"
   xmlns="http://www.w3.org/2000/svg"
   xmlns:sodipodi="http://sodipodi.sourceforge.net/DTD/sodipodi-0.dtd"
   xmlns:inkscape="http://www.inkscape.org/namespaces/inkscape"
   height="512"
   viewBox="0 0 512 512"
   width="512"
   version="1.1"
   id="svg2"
   inkscape:version="0.91 r"
   sodipodi:docname="system-lock-screen.svg">
  <defs
     id="defs54" />
  <sodipodi:namedview
     pagecolor="#ffffff"
     bordercolor="#666666"
     borderopacity="1"
     objecttolerance="10"
     gridtolerance="10"
     guidetolerance="10"
     inkscape:pageopacity="0"
     inkscape:pageshadow="2"
     inkscape:window-width="1680"
     inkscape:window-height="998"
     id="namedview52"
     showgrid="false"
     inkscape:zoom="0.4609375"
     inkscape:cx="-64"
     inkscape:cy="256"
     inkscape:window-x="0"
     inkscape:window-y="0"
     inkscape:window-maximized="1"
     inkscape:current-layer="svg2" />
  <metadata
     id="metadata102">
    <rdf:RDF>
      <cc:Work
         rdf:about="">
        <dc:format>image/svg+xml</dc:format>
        <dc:type
           rdf:resource="http://purl.org/dc/dcmitype/StillImage" />
      </cc:Work>
    </rdf:RDF>
  </metadata>
  <path
     style="fill:#BF9E73;fill-rule:evenodd;fill-opacity:1"
     inkscape:connector-curvature="0"
     d="m 471.95,253.05 c 0,120.9 -98.01,218.9 -218.9,218.9 -120.9,0 -218.9,-98.01 -218.9,-218.9 0,-120.9 98.01,-218.9 218.9,-218.9 120.9,0 218.9,98.01 218.9,218.9"
     id="path6" />
  <path
     style="fill-opacity:0.23500001;fill-rule:evenodd"
     inkscape:connector-curvature="0"
     d="m 254.75,109.38 c -38.38,0 -77.25,25.62 -77.25,64.5 l 0,70.75 -28.438,0 0,158 0.969,0 0,1 1,0 0,1 1,0 0,1 1,0 0,1 1,0 0,1 1,0 0,0.969 0.97,0 0,1 1,0 0,1 1,0 0,1 1,0 0,1 1,0 0,1 1,0 0,0.969 1,0 0,1 0.969,0 0,1 1,0 0,1 1,0 0,1 1,0 0,1 1,0 0,0.969 1,0 0,1 0.969,0 0,1 1,0 0,1 1,0 0,1 1,0 0,1 1,0 0,0.969 1,0 0,1 0.969,0 0,1 1,0 0,1 1,0 0,1 1,0 0,1 1,0 0,1 1,0 0,0.969 0.969,0 0,1 1,0 0,1 1,0 0,1 1,0 0,1 1,0 0,1 1,0 0,0.969 1,0 0,1 0.969,0 0,1 1,0 0,1 1,0 0,1 1,0 0,1 1,0 0,0.969 1,0 0,1 0.969,0 0,1 1,0 0,1 1,0 0,1 1,0 0,1 1,0 0,0.969 1,0 0,1 0.969,0 0,1 1,0 0,1 1,0 0,1 1,0 0,1 1,0 0,1 1,0 0,0.969 0.969,0 0,1 1,0 0,1 1,0 0,1 1,0 0,1 1,0 0,1 1,0 0,0.969 1,0 0,1 0.969,0 0,1 1,0 0,1 1,0 0,1 1,0 0,0.469 c 12.13,2.083 24.589,3.188 37.31,3.188 109.52,0 200.27,-80.46 216.38,-185.47 -0.084,-0.093 -0.164,-0.191 -0.25,-0.281 -0.214,-0.207 -0.439,-0.42 -0.656,-0.625 -0.115,-0.122 -0.227,-0.253 -0.344,-0.375 -0.216,-0.208 -0.437,-0.419 -0.656,-0.625 -0.116,-0.123 -0.227,-0.253 -0.344,-0.375 -0.095,-0.092 -0.185,-0.19 -0.281,-0.281 -0.094,-0.094 -0.186,-0.188 -0.281,-0.281 -0.021,-0.021 -0.042,-0.041 -0.063,-0.063 -0.32,-0.34 -0.671,-0.665 -1,-1 -0.116,-0.123 -0.227,-0.253 -0.344,-0.375 -0.215,-0.208 -0.437,-0.419 -0.656,-0.625 -0.33,-0.323 -0.662,-0.65 -1,-0.969 -0.115,-0.122 -0.227,-0.253 -0.344,-0.375 -0.214,-0.207 -0.439,-0.42 -0.656,-0.625 -0.115,-0.122 -0.227,-0.253 -0.344,-0.375 -0.214,-0.207 -0.439,-0.42 -0.656,-0.625 -0.115,-0.122 -0.227,-0.253 -0.344,-0.375 -0.053,-0.051 -0.103,-0.105 -0.156,-0.156 -0.094,-0.094 -0.187,-0.188 -0.281,-0.281 -0.061,-0.063 -0.126,-0.125 -0.188,-0.188 -0.32,-0.34 -0.671,-0.665 -1,-1 -0.436,-0.462 -0.892,-0.921 -1.344,-1.375 -0.068,-0.066 -0.15,-0.122 -0.219,-0.188 -0.472,-0.471 -0.948,-0.945 -1.438,-1.406 -0.115,-0.122 -0.227,-0.253 -0.344,-0.375 -0.214,-0.207 -0.439,-0.42 -0.656,-0.625 -0.115,-0.122 -0.227,-0.253 -0.344,-0.375 -0.053,-0.051 -0.103,-0.105 -0.156,-0.156 -0.094,-0.094 -0.187,-0.188 -0.281,-0.281 -0.061,-0.063 -0.126,-0.125 -0.188,-0.188 -0.32,-0.34 -0.671,-0.665 -1,-1 -0.436,-0.462 -0.892,-0.921 -1.344,-1.375 -0.068,-0.066 -0.15,-0.122 -0.219,-0.188 -0.472,-0.471 -0.948,-0.945 -1.438,-1.406 -0.115,-0.122 -0.227,-0.253 -0.344,-0.375 -0.214,-0.207 -0.439,-0.42 -0.656,-0.625 -0.115,-0.122 -0.227,-0.253 -0.344,-0.375 -0.216,-0.208 -0.437,-0.419 -0.656,-0.625 -0.116,-0.123 -0.227,-0.253 -0.344,-0.375 -0.095,-0.092 -0.185,-0.19 -0.281,-0.281 -0.094,-0.094 -0.186,-0.188 -0.281,-0.281 -0.021,-0.021 -0.042,-0.041 -0.063,-0.063 -0.32,-0.34 -0.671,-0.665 -1,-1 -0.116,-0.123 -0.227,-0.253 -0.344,-0.375 -0.215,-0.208 -0.437,-0.419 -0.656,-0.625 -0.33,-0.323 -0.662,-0.65 -1,-0.969 -0.115,-0.122 -0.227,-0.253 -0.344,-0.375 -0.214,-0.207 -0.439,-0.42 -0.656,-0.625 -0.115,-0.122 -0.227,-0.253 -0.344,-0.375 -0.216,-0.208 -0.437,-0.419 -0.656,-0.625 -0.116,-0.123 -0.227,-0.253 -0.344,-0.375 -0.095,-0.092 -0.185,-0.19 -0.281,-0.281 -0.094,-0.094 -0.186,-0.188 -0.281,-0.281 -0.021,-0.021 -0.042,-0.041 -0.063,-0.063 -0.32,-0.34 -0.671,-0.665 -1,-1 -0.115,-0.122 -0.227,-0.253 -0.344,-0.375 -0.215,-0.208 -0.437,-0.419 -0.656,-0.625 -0.118,-0.121 -0.224,-0.255 -0.344,-0.375 -0.068,-0.066 -0.15,-0.122 -0.219,-0.188 -0.472,-0.471 -0.948,-0.945 -1.438,-1.406 -0.115,-0.122 -0.227,-0.253 -0.344,-0.375 -0.214,-0.207 -0.439,-0.42 -0.656,-0.625 -0.115,-0.122 -0.227,-0.253 -0.344,-0.375 -0.053,-0.051 -0.103,-0.105 -0.156,-0.156 -0.094,-0.094 -0.187,-0.188 -0.281,-0.281 -0.061,-0.063 -0.126,-0.125 -0.188,-0.188 -0.32,-0.34 -0.671,-0.665 -1,-1 -0.436,-0.462 -0.892,-0.921 -1.344,-1.375 -0.068,-0.066 -0.15,-0.122 -0.219,-0.188 -0.472,-0.471 -0.948,-0.945 -1.438,-1.406 -0.115,-0.122 -0.227,-0.253 -0.344,-0.375 -0.214,-0.207 -0.439,-0.42 -0.656,-0.625 -0.115,-0.122 -0.227,-0.253 -0.344,-0.375 -0.217,-0.209 -0.436,-0.418 -0.656,-0.625 -0.116,-0.123 -0.227,-0.253 -0.344,-0.375 -0.095,-0.092 -0.185,-0.19 -0.281,-0.281 -0.094,-0.094 -0.186,-0.188 -0.281,-0.281 -0.021,-0.021 -0.042,-0.041 -0.063,-0.063 -0.32,-0.34 -0.671,-0.665 -1,-1 -0.116,-0.123 -0.227,-0.253 -0.344,-0.375 -0.215,-0.208 -0.437,-0.419 -0.656,-0.625 -0.33,-0.323 -0.662,-0.65 -1,-0.969 -0.115,-0.122 -0.227,-0.253 -0.344,-0.375 -0.214,-0.207 -0.439,-0.42 -0.656,-0.625 -0.115,-0.122 -0.227,-0.253 -0.344,-0.375 -0.216,-0.208 -0.437,-0.419 -0.656,-0.625 -0.116,-0.123 -0.227,-0.253 -0.344,-0.375 -0.095,-0.092 -0.185,-0.19 -0.281,-0.281 -0.094,-0.094 -0.186,-0.188 -0.281,-0.281 -0.021,-0.021 -0.042,-0.041 -0.063,-0.063 -0.32,-0.34 -0.671,-0.665 -1,-1 -0.116,-0.123 -0.227,-0.253 -0.344,-0.375 -0.215,-0.208 -0.437,-0.419 -0.656,-0.625 -0.33,-0.323 -0.662,-0.65 -1,-0.969 -0.115,-0.122 -0.227,-0.253 -0.344,-0.375 -0.214,-0.207 -0.439,-0.42 -0.656,-0.625 -0.115,-0.122 -0.227,-0.253 -0.344,-0.375 -0.214,-0.207 -0.439,-0.42 -0.656,-0.625 -0.115,-0.122 -0.227,-0.253 -0.344,-0.375 -0.053,-0.051 -0.103,-0.105 -0.156,-0.156 -0.094,-0.094 -0.187,-0.188 -0.281,-0.281 -0.061,-0.063 -0.126,-0.125 -0.188,-0.188 -0.32,-0.34 -0.671,-0.665 -1,-1 -0.436,-0.462 -0.892,-0.921 -1.344,-1.375 -0.068,-0.066 -0.15,-0.122 -0.219,-0.188 -0.472,-0.471 -0.948,-0.945 -1.438,-1.406 -0.115,-0.122 -0.227,-0.253 -0.344,-0.375 -0.214,-0.207 -0.439,-0.42 -0.656,-0.625 -0.115,-0.122 -0.227,-0.253 -0.344,-0.375 -0.053,-0.051 -0.103,-0.105 -0.156,-0.156 -0.094,-0.094 -0.187,-0.188 -0.281,-0.281 -0.061,-0.063 -0.126,-0.125 -0.188,-0.188 -0.32,-0.34 -0.671,-0.665 -1,-1 -0.436,-0.462 -0.892,-0.921 -1.344,-1.375 -0.068,-0.066 -0.15,-0.122 -0.219,-0.188 -0.472,-0.471 -0.948,-0.945 -1.438,-1.406 -0.115,-0.122 -0.227,-0.253 -0.344,-0.375 -0.214,-0.207 -0.439,-0.42 -0.656,-0.625 -0.115,-0.122 -0.227,-0.253 -0.344,-0.375 -0.216,-0.208 -0.437,-0.419 -0.656,-0.625 -0.116,-0.123 -0.227,-0.253 -0.344,-0.375 -0.095,-0.092 -0.185,-0.19 -0.281,-0.281 -0.094,-0.094 -0.186,-0.188 -0.281,-0.281 -0.021,-0.021 -0.042,-0.041 -0.063,-0.063 -0.32,-0.34 -0.671,-0.665 -1,-1 -0.116,-0.123 -0.227,-0.253 -0.344,-0.375 -0.215,-0.208 -0.437,-0.419 -0.656,-0.625 -0.33,-0.323 -0.662,-0.65 -1,-0.969 -0.115,-0.122 -0.227,-0.253 -0.344,-0.375 -0.214,-0.207 -0.439,-0.42 -0.656,-0.625 -0.115,-0.122 -0.227,-0.253 -0.344,-0.375 -0.216,-0.208 -0.437,-0.419 -0.656,-0.625 -0.116,-0.123 -0.227,-0.253 -0.344,-0.375 -0.095,-0.092 -0.185,-0.19 -0.281,-0.281 -0.094,-0.094 -0.186,-0.188 -0.281,-0.281 -0.021,-0.021 -0.042,-0.041 -0.063,-0.063 -0.32,-0.34 -0.671,-0.665 -1,-1 -0.116,-0.123 -0.227,-0.253 -0.344,-0.375 -0.215,-0.208 -0.437,-0.419 -0.656,-0.625 -0.33,-0.323 -0.662,-0.65 -1,-0.969 -0.115,-0.122 -0.227,-0.253 -0.344,-0.375 -0.214,-0.207 -0.439,-0.42 -0.656,-0.625 -0.115,-0.122 -0.227,-0.253 -0.344,-0.375 -0.214,-0.207 -0.439,-0.42 -0.656,-0.625 -0.115,-0.122 -0.227,-0.253 -0.344,-0.375 -0.053,-0.051 -0.103,-0.105 -0.156,-0.156 -0.094,-0.094 -0.187,-0.188 -0.281,-0.281 -0.061,-0.063 -0.126,-0.125 -0.188,-0.188 -0.32,-0.34 -0.671,-0.665 -1,-1 -0.436,-0.462 -0.892,-0.921 -1.344,-1.375 -0.068,-0.066 -0.15,-0.122 -0.219,-0.188 -0.472,-0.471 -0.948,-0.945 -1.438,-1.406 -0.115,-0.122 -0.227,-0.253 -0.344,-0.375 -0.214,-0.207 -0.439,-0.42 -0.656,-0.625 -0.115,-0.122 -0.227,-0.253 -0.344,-0.375 -0.217,-0.209 -0.436,-0.418 -0.656,-0.625 -0.116,-0.123 -0.227,-0.253 -0.344,-0.375 -0.095,-0.092 -0.185,-0.19 -0.281,-0.281 -0.094,-0.094 -0.186,-0.188 -0.281,-0.281 -0.021,-0.021 -0.042,-0.041 -0.063,-0.063 -0.436,-0.462 -0.892,-0.921 -1.344,-1.375 -0.068,-0.066 -0.15,-0.122 -0.219,-0.188 -0.472,-0.471 -0.948,-0.945 -1.438,-1.406 -0.115,-0.122 -0.227,-0.253 -0.344,-0.375 -0.214,-0.207 -0.439,-0.42 -0.656,-0.625 -0.115,-0.122 -0.227,-0.253 -0.344,-0.375 -0.216,-0.208 -0.437,-0.419 -0.656,-0.625 -0.116,-0.123 -0.227,-0.253 -0.344,-0.375 -0.095,-0.092 -0.185,-0.19 -0.281,-0.281 -0.094,-0.094 -0.186,-0.188 -0.281,-0.281 -0.021,-0.021 -0.042,-0.041 -0.063,-0.063 -0.32,-0.34 -0.671,-0.665 -1,-1 -0.116,-0.123 -0.227,-0.253 -0.344,-0.375 -0.215,-0.208 -0.437,-0.419 -0.656,-0.625 -0.33,-0.323 -0.662,-0.65 -1,-0.969 -0.115,-0.122 -0.227,-0.253 -0.344,-0.375 -0.214,-0.207 -0.439,-0.42 -0.656,-0.625 -0.115,-0.122 -0.227,-0.253 -0.344,-0.375 -0.214,-0.207 -0.439,-0.42 -0.656,-0.625 -0.116,-0.123 -0.227,-0.253 -0.344,-0.375 -0.095,-0.092 -0.185,-0.19 -0.281,-0.281 -0.094,-0.094 -0.186,-0.188 -0.281,-0.281 -0.021,-0.021 -0.042,-0.041 -0.063,-0.063 -0.32,-0.34 -0.671,-0.665 -1,-1 -0.115,-0.122 -0.227,-0.253 -0.344,-0.375 -0.215,-0.208 -0.437,-0.419 -0.656,-0.625 -0.118,-0.121 -0.224,-0.255 -0.344,-0.375 -0.068,-0.066 -0.15,-0.122 -0.219,-0.188 -0.472,-0.471 -0.948,-0.945 -1.438,-1.406 -0.115,-0.122 -0.227,-0.253 -0.344,-0.375 -0.214,-0.207 -0.439,-0.42 -0.656,-0.625 -0.115,-0.122 -0.227,-0.253 -0.344,-0.375 -0.053,-0.051 -0.103,-0.105 -0.156,-0.156 -0.094,-0.094 -0.187,-0.188 -0.281,-0.281 -0.061,-0.063 -0.126,-0.125 -0.188,-0.188 -0.32,-0.34 -0.671,-0.665 -1,-1 -0.436,-0.462 -0.892,-0.921 -1.344,-1.375 -0.068,-0.066 -0.15,-0.122 -0.219,-0.188 -0.472,-0.471 -0.948,-0.945 -1.438,-1.406 -0.115,-0.122 -0.227,-0.253 -0.344,-0.375 -0.214,-0.207 -0.439,-0.42 -0.656,-0.625 -0.115,-0.122 -0.227,-0.253 -0.344,-0.375 -0.217,-0.209 -0.436,-0.418 -0.656,-0.625 -0.116,-0.123 -0.227,-0.253 -0.344,-0.375 -0.095,-0.092 -0.185,-0.19 -0.281,-0.281 -0.094,-0.094 -0.186,-0.188 -0.281,-0.281 -0.021,-0.021 -0.042,-0.041 -0.063,-0.063 -0.32,-0.34 -0.671,-0.665 -1,-1 -0.116,-0.123 -0.227,-0.253 -0.344,-0.375 -0.215,-0.208 -0.437,-0.419 -0.656,-0.625 -0.33,-0.323 -0.662,-0.65 -1,-0.969 -0.115,-0.122 -0.227,-0.253 -0.344,-0.375 -0.214,-0.207 -0.439,-0.42 -0.656,-0.625 -0.115,-0.122 -0.227,-0.253 -0.344,-0.375 -0.216,-0.208 -0.437,-0.419 -0.656,-0.625 -0.116,-0.123 -0.227,-0.253 -0.344,-0.375 -0.095,-0.092 -0.185,-0.19 -0.281,-0.281 -0.094,-0.094 -0.186,-0.188 -0.281,-0.281 -0.021,-0.021 -0.042,-0.041 -0.063,-0.063 -0.32,-0.34 -0.671,-0.665 -1,-1 -0.116,-0.123 -0.227,-0.253 -0.344,-0.375 -0.215,-0.208 -0.437,-0.419 -0.656,-0.625 -0.33,-0.323 -0.662,-0.65 -1,-0.969 -0.115,-0.122 -0.227,-0.253 -0.344,-0.375 -0.214,-0.207 -0.439,-0.42 -0.656,-0.625 -0.115,-0.122 -0.227,-0.253 -0.344,-0.375 -0.214,-0.207 -0.439,-0.42 -0.656,-0.625 -0.115,-0.122 -0.227,-0.253 -0.344,-0.375 -0.053,-0.051 -0.103,-0.105 -0.156,-0.156 -0.094,-0.094 -0.187,-0.188 -0.281,-0.281 -0.061,-0.063 -0.126,-0.125 -0.188,-0.188 -0.32,-0.34 -0.671,-0.665 -1,-1 -0.436,-0.462 -0.892,-0.921 -1.344,-1.375 -0.068,-0.066 -0.15,-0.122 -0.219,-0.188 -0.472,-0.471 -0.948,-0.945 -1.438,-1.406 -0.115,-0.122 -0.227,-0.253 -0.344,-0.375 -0.214,-0.207 -0.439,-0.42 -0.656,-0.625 -0.115,-0.122 -0.227,-0.253 -0.344,-0.375 -0.217,-0.209 -0.436,-0.418 -0.656,-0.625 -0.116,-0.123 -0.227,-0.253 -0.344,-0.375 -0.095,-0.092 -0.185,-0.19 -0.281,-0.281 -0.094,-0.094 -0.186,-0.188 -0.281,-0.281 -0.021,-0.021 -0.042,-0.041 -0.063,-0.063 -0.436,-0.462 -0.892,-0.921 -1.344,-1.375 -0.068,-0.066 -0.15,-0.122 -0.219,-0.188 -0.472,-0.471 -0.948,-0.945 -1.438,-1.406 -0.115,-0.122 -0.227,-0.253 -0.344,-0.375 -0.214,-0.207 -0.439,-0.42 -0.656,-0.625 -0.115,-0.122 -0.227,-0.253 -0.344,-0.375 -0.216,-0.208 -0.437,-0.419 -0.656,-0.625 -0.116,-0.123 -0.227,-0.253 -0.344,-0.375 -0.095,-0.092 -0.185,-0.19 -0.281,-0.281 -0.094,-0.094 -0.186,-0.188 -0.281,-0.281 -0.021,-0.021 -0.042,-0.041 -0.063,-0.063 -0.32,-0.34 -0.671,-0.665 -1,-1 -0.116,-0.123 -0.227,-0.253 -0.344,-0.375 -0.215,-0.208 -0.437,-0.419 -0.656,-0.625 -0.33,-0.323 -0.662,-0.65 -1,-0.969 -0.115,-0.122 -0.227,-0.253 -0.344,-0.375 -0.214,-0.207 -0.439,-0.42 -0.656,-0.625 -0.115,-0.122 -0.227,-0.253 -0.344,-0.375 -0.214,-0.207 -0.439,-0.42 -0.656,-0.625 -0.116,-0.123 -0.227,-0.253 -0.344,-0.375 -0.095,-0.092 -0.185,-0.19 -0.281,-0.281 -0.094,-0.094 -0.186,-0.188 -0.281,-0.281 -0.021,-0.021 -0.042,-0.041 -0.063,-0.063 -0.32,-0.34 -0.671,-0.665 -1,-1 -0.115,-0.122 -0.227,-0.253 -0.344,-0.375 -0.215,-0.208 -0.437,-0.419 -0.656,-0.625 -0.118,-0.121 -0.224,-0.255 -0.344,-0.375 -0.068,-0.066 -0.15,-0.122 -0.219,-0.188 -0.472,-0.471 -0.948,-0.945 -1.438,-1.406 -0.115,-0.122 -0.227,-0.253 -0.344,-0.375 -0.214,-0.207 -0.439,-0.42 -0.656,-0.625 -0.115,-0.122 -0.227,-0.253 -0.344,-0.375 -0.053,-0.051 -0.103,-0.105 -0.156,-0.156 -0.094,-0.094 -0.187,-0.188 -0.281,-0.281 -0.061,-0.063 -0.126,-0.125 -0.188,-0.188 -0.32,-0.34 -0.671,-0.665 -1,-1 -0.436,-0.462 -0.892,-0.921 -1.344,-1.375 -0.068,-0.066 -0.15,-0.122 -0.219,-0.188 -0.472,-0.471 -0.948,-0.945 -1.438,-1.406 -0.115,-0.122 -0.227,-0.253 -0.344,-0.375 -0.214,-0.207 -0.439,-0.42 -0.656,-0.625 -0.115,-0.122 -0.227,-0.253 -0.344,-0.375 -0.217,-0.209 -0.436,-0.418 -0.656,-0.625 -0.116,-0.123 -0.227,-0.253 -0.344,-0.375 -0.063,-0.061 -0.124,-0.126 -0.188,-0.188 -0.143,-0.149 -0.293,-0.29 -0.438,-0.438 -0.127,-0.124 -0.247,-0.252 -0.375,-0.375 -13.66,-13.717 -34.662,-23.594 -61.16,-23.594"
     id="path8" />
  <path
     style="fill-opacity:0.06700003;fill-rule:evenodd"
     inkscape:connector-curvature="0"
     d="M 256,1 C 115.17,1 1,115.17 1,256 1,396.83 115.17,511 256,511 396.83,511 511,396.83 511,256 511,115.17 396.83,1 256,1 m 8.827,44.931 c 120.9,0 218.9,98 218.9,218.9 0,120.9 -98,218.9 -218.9,218.9 -120.9,0 -218.93,-98 -218.93,-218.9 0,-120.9 98.03,-218.9 218.93,-218.9"
     id="path10" />
  <g
     style="fill-opacity:0.12900002;fill-rule:evenodd"
     id="g12">
    <path
       inkscape:connector-curvature="0"
       d="m 256,4.433 c -138.94,0 -251.57,112.63 -251.57,251.57 0,138.94 112.63,251.57 251.57,251.57 138.94,0 251.57,-112.63 251.57,-251.57 C 507.57,117.063 394.94,4.433 256,4.433 m 5.885,38.556 c 120.9,0 218.9,98 218.9,218.9 0,120.9 -98,218.9 -218.9,218.9 -120.9,0 -218.93,-98 -218.93,-218.9 0,-120.9 98.03,-218.9 218.93,-218.9"
       id="path14" />
    <path
       inkscape:connector-curvature="0"
       d="m 256,8.356 c -136.77,0 -247.64,110.87 -247.64,247.64 0,136.77 110.87,247.64 247.64,247.64 136.77,0 247.64,-110.87 247.64,-247.64 C 503.64,119.226 392.77,8.356 256,8.356 m 2.942,31.691 c 120.9,0 218.9,98 218.9,218.9 0,120.9 -98,218.9 -218.9,218.9 -120.9,0 -218.93,-98 -218.93,-218.9 0,-120.9 98.03,-218.9 218.93,-218.9"
       id="path16" />
  </g>
  <path
     style="fill:#ffffff;fill-rule:evenodd;stroke:#000000;stroke-width:4.90399981;stroke-opacity:0.31000001"
     inkscape:connector-curvature="0"
     d="m 253.04,7.859 c -135.42,0 -245.19,109.78 -245.19,245.19 0,135.42 109.78,245.19 245.19,245.19 135.42,0 245.19,-109.78 245.19,-245.19 0,-135.42 -109.78,-245.19 -245.19,-245.19 z m 0,26.297 c 120.9,0 218.9,98 218.9,218.9 0,120.9 -98,218.9 -218.9,218.9 -120.9,0 -218.93,-98 -218.93,-218.9 0,-120.9 98.03,-218.9 218.93,-218.9 z"
     id="path18" />
  <text
     id="text20"
     font-size="129.23"
     line-height="125%"
     y="231.36"
     x="729.64"
     font-family="Gentium Book Basic"
     word-spacing="0"
     letter-spacing="0">
    <tspan
       id="tspan22"
       y="231.36"
       x="729.64" />
  </text>
  <text
     id="text24"
     font-size="46.954"
     transform="scale(4.0128 .2492)"
     y="579.25"
     x="378.91"
     font-family="Arial"
     text-anchor="middle" />
  <text
     id="text26"
     font-size="129.23"
     line-height="125%"
     y="151.36"
     x="1310.91"
     font-family="Gentium Book Basic"
     word-spacing="0"
     letter-spacing="0">
    <tspan
       id="tspan28"
       y="151.36"
       x="1310.91" />
  </text>
  <text
     id="text30"
     font-size="46.954"
     transform="scale(4.0128 .2492)"
     y="258.22"
     x="523.76"
     font-family="Arial"
     text-anchor="middle" />
  <text
     id="text32"
     font-size="129.23"
     line-height="125%"
     y="-29.901"
     x="239.33"
     font-family="Gentium Book Basic"
     word-spacing="0"
     letter-spacing="0">
    <tspan
       id="tspan34"
       y="-29.901"
       x="239.33" />
  </text>
  <text
     id="text36"
     font-size="46.954"
     transform="scale(4.0128 .2492)"
     y="-469.14"
     x="256.72"
     font-family="Arial"
     text-anchor="middle" />
  <text
     id="text38"
     font-size="129.23"
     line-height="125%"
     y="-246.37"
     x="1337.38"
     font-family="Gentium Book Basic"
     word-spacing="0"
     letter-spacing="0">
    <tspan
       id="tspan40"
       y="-246.37"
       x="1337.38" />
  </text>
  <text
     id="text42"
     font-size="46.954"
     transform="scale(4.0128 .2492)"
     y="-1337.81"
     x="530.36"
     font-family="Arial"
     text-anchor="middle" />
  <text
     id="text44"
     font-size="129.23"
     line-height="125%"
     y="-326.38"
     x="1918.65"
     font-family="Gentium Book Basic"
     word-spacing="0"
     letter-spacing="0">
    <tspan
       id="tspan46"
       y="-326.38"
       x="1918.65" />
  </text>
  <text
     id="text48"
     font-size="46.954"
     transform="scale(4.0128 .2492)"
     y="-1658.85"
     x="675.21"
     font-family="Arial"
     text-anchor="middle" />
  <text
     id="text50"
     font-size="129.23"
     line-height="125%"
     y="-798.78"
     x="1529.53"
     font-family="Gentium Book Basic"
     word-spacing="0"
     letter-spacing="0">
    <tspan
       id="tspan52"
       y="-798.78"
       x="1529.53" />
  </text>
  <text
     id="text54"
     font-size="46.954"
     transform="scale(4.0128 .2492)"
     y="-3554.51"
     x="578.24"
     font-family="Arial"
     text-anchor="middle" />
  <text
     id="text56"
     font-size="129.23"
     line-height="125%"
     y="-878.78"
     x="2110.79"
     font-family="Gentium Book Basic"
     word-spacing="0"
     letter-spacing="0">
    <tspan
       id="tspan58"
       y="-878.78"
       x="2110.79" />
  </text>
  <text
     id="text60"
     font-size="46.954"
     transform="scale(4.0128 .2492)"
     y="-3875.54"
     x="723.09"
     font-family="Arial"
     text-anchor="middle" />
  <g
     id="g62"
     font-family="Gentium Book Basic"
     font-size="208.33"
     line-height="125%"
     word-spacing="0"
     letter-spacing="0">
    <text
       id="text64"
       y="535.94"
       x="277.99">
      <tspan
         id="tspan66"
         y="535.94"
         x="277.99" />
    </text>
    <text
       id="text68"
       y="11.553"
       x="-860.84">
      <tspan
         id="tspan70"
         y="11.553"
         x="-860.84" />
    </text>
    <text
       id="text72"
       y="289.67"
       x="-3219.67">
      <tspan
         id="tspan74"
         y="289.67"
         x="-3219.67" />
    </text>
    <text
       id="text76"
       y="62.38"
       x="-2931.46">
      <tspan
         id="tspan78"
         y="62.38"
         x="-2931.46" />
    </text>
    <text
       id="text80"
       y="-194.52"
       x="1263.14">
      <tspan
         id="tspan82"
         y="-194.52"
         x="1263.14" />
    </text>
    <text
       id="text84"
       y="-49.48"
       x="-864.79">
      <tspan
         id="tspan86"
         y="-49.48"
         x="-864.79" />
    </text>
    <text
       id="text88"
       y="228.64"
       x="-3223.62">
      <tspan
         id="tspan90"
         y="228.64"
         x="-3223.62" />
    </text>
    <text
       id="text92"
       y="1.35"
       x="-2935.41">
      <tspan
         id="tspan94"
         y="1.35"
         x="-2935.41" />
    </text>
  </g>
  <path
     id="path96"
     d="m254.75 109.37c-38.38 0-77.24 25.637-77.24 64.52v70.74h-28.461v158.01h213.9v-158.01h-29.32v-72.7c0-29.22-30.22-62.56-78.886-62.56m-0.55 35.438c20.665-0.108 43.17 14.316 43.17 36.3v63.52h-84.73l0.034-0.034v-63.21c0-23.843 23.745-36.48 41.522-36.573m0.963 134.47c11.824 0 21.414 9.59 21.414 21.414 0 7.05-3.436 13.286-8.696 17.19l8.49 47.641h-42.04l8.421-47.4c-5.441-3.882-9.01-10.234-9.01-17.427 0-11.824 9.59-21.414 21.414-21.414"
     fill-rule="evenodd"
     fill="#fff" />
</svg>
