<?xml version="1.0" encoding="UTF-8" standalone="no"?>
<svg xmlns="http://www.w3.org/2000/svg" viewBox="0 0 512 512">
 <g fill-rule="evenodd">
  <path d="m471.95 253.05c0 120.9-98.01 218.91-218.91 218.91s-218.91-98.01-218.91-218.91 98.01-218.91 218.91-218.91 218.91 98.01 218.91 218.91" fill="#BF9E73"/>
  <path d="m256 1c-140.83 0-255 114.17-255 255s114.17 255 255 255 255-114.17 255-255-114.17-255-255-255m8.827 44.931c120.9 0 218.9 98 218.9 218.9s-98 218.9-218.9 218.9-218.93-98-218.93-218.9 98.03-218.9 218.93-218.9" fill-opacity="0.067"/>
  <g fill-opacity="0.129">
   <path d="m256 4.43c-138.94 0-251.57 112.63-251.57 251.57s112.63 251.57 251.57 251.57 251.57-112.63 251.57-251.57-112.63-251.57-251.57-251.57m5.885 38.556c120.9 0 218.9 98 218.9 218.9s-98 218.9-218.9 218.9-218.93-98-218.93-218.9 98.03-218.9 218.93-218.9"/>
   <path d="m256 8.36c-136.77 0-247.64 110.87-247.64 247.64s110.87 247.64 247.64 247.64 247.64-110.87 247.64-247.64-110.87-247.64-247.64-247.64m2.942 31.691c120.9 0 218.9 98 218.9 218.9s-98 218.9-218.9 218.9-218.93-98-218.93-218.9 98.03-218.9 218.93-218.9"/>
  </g>
  <path stroke="#000" stroke-width="4.904" d="m253.04 7.86c-135.42 0-245.19 109.78-245.19 245.19 0 135.42 109.78 245.19 245.19 245.19 135.42 0 245.19-109.78 245.19-245.19 0-135.42-109.78-245.19-245.19-245.19zm0 26.297c120.9 0 218.9 98 218.9 218.9s-98 218.9-218.9 218.9-218.93-98-218.93-218.9 98.03-218.9 218.93-218.9z" stroke-opacity="0.31" fill="#fff"/>
 </g>
 <text font-size="129.23" y="231.36" x="729.64" font-family="&apos;Gentium Book Basic&apos;" line-height="125%" word-spacing="0" letter-spacing="0"><tspan y="231.36" x="729.64"/>
 </text>
 <text transform="scale(4.0128.2492)" font-size="46.954" y="579.26" x="378.91" font-family="Arial" text-anchor="middle"/>
 <text font-size="129.23" y="151.36" x="1310.91" font-family="&apos;Gentium Book Basic&apos;" line-height="125%" word-spacing="0" letter-spacing="0"><tspan y="151.36" x="1310.91"/>
 </text>
 <text transform="scale(4.0128.2492)" font-size="46.954" y="258.22" x="523.76" font-family="Arial" text-anchor="middle"/>
 <text font-size="129.23" y="-29.9" x="239.33" font-family="&apos;Gentium Book Basic&apos;" line-height="125%" word-spacing="0" letter-spacing="0"><tspan y="-29.9" x="239.33"/>
 </text>
 <text transform="scale(4.0128.2492)" font-size="46.954" y="-469.13" x="256.72" font-family="Arial" text-anchor="middle"/>
 <text font-size="129.23" y="-246.37" x="1337.38" font-family="&apos;Gentium Book Basic&apos;" line-height="125%" word-spacing="0" letter-spacing="0"><tspan y="-246.37" x="1337.38"/>
 </text>
 <text transform="scale(4.0128.2492)" font-size="46.954" y="-1337.8" x="530.36" font-family="Arial" text-anchor="middle"/>
 <text font-size="129.23" y="-326.37" x="1918.65" font-family="&apos;Gentium Book Basic&apos;" line-height="125%" word-spacing="0" letter-spacing="0"><tspan y="-326.37" x="1918.65"/>
 </text>
 <text transform="scale(4.0128.2492)" font-size="46.954" y="-1658.83" x="675.21" font-family="Arial" text-anchor="middle"/>
 <text font-size="129.23" y="-798.77" x="1529.53" font-family="&apos;Gentium Book Basic&apos;" line-height="125%" word-spacing="0" letter-spacing="0"><tspan y="-798.77" x="1529.53"/>
 </text>
 <text transform="scale(4.0128.2492)" font-size="46.954" y="-3554.48" x="578.24" font-family="Arial" text-anchor="middle"/>
 <text font-size="129.23" y="-878.78" x="2110.79" font-family="&apos;Gentium Book Basic&apos;" line-height="125%" word-spacing="0" letter-spacing="0"><tspan y="-878.78" x="2110.79"/>
 </text>
 <text transform="scale(4.0128.2492)" font-size="46.954" y="-3875.52" x="723.09" font-family="Arial" text-anchor="middle"/>
 <g font-family="&apos;Gentium Book Basic&apos;" line-height="125%" word-spacing="0" letter-spacing="0">
  <text y="535.94" x="277.99" font-size="208.33"><tspan y="535.94" x="277.99"/>
  </text>
  <text y="272.72" x="1781.5" font-size="129.23"><tspan y="272.72" x="1781.5"/>
  </text>
 </g>
 <text transform="scale(4.0128.2492)" font-size="46.954" y="745.22" x="641.03" font-family="Arial" text-anchor="middle"/>
 <text font-size="129.23" y="192.72" x="2362.77" font-family="&apos;Gentium Book Basic&apos;" line-height="125%" word-spacing="0" letter-spacing="0"><tspan y="192.72" x="2362.77"/>
 </text>
 <text transform="scale(4.0128.2492)" font-size="46.954" y="424.18" x="785.88" font-family="Arial" text-anchor="middle"/>
 <text font-size="129.23" y="11.457" x="1291.19" font-family="&apos;Gentium Book Basic&apos;" line-height="125%" word-spacing="0" letter-spacing="0"><tspan y="11.457" x="1291.19"/>
 </text>
 <text transform="scale(4.0128.2492)" font-size="46.954" y="-303.17" x="518.84" font-family="Arial" text-anchor="middle"/>
 <text font-size="129.23" y="-205.01" x="2389.24" font-family="&apos;Gentium Book Basic&apos;" line-height="125%" word-spacing="0" letter-spacing="0"><tspan y="-205.01" x="2389.24"/>
 </text>
 <text transform="scale(4.0128.2492)" font-size="46.954" y="-1171.84" x="792.48" font-family="Arial" text-anchor="middle"/>
 <text font-size="129.23" y="-285.01" x="2970.51" font-family="&apos;Gentium Book Basic&apos;" line-height="125%" word-spacing="0" letter-spacing="0"><tspan y="-285.01" x="2970.51"/>
 </text>
 <text transform="scale(4.0128.2492)" font-size="46.954" y="-1492.87" x="937.33" font-family="Arial" text-anchor="middle"/>
 <text font-size="129.23" y="-757.41" x="2581.39" font-family="&apos;Gentium Book Basic&apos;" line-height="125%" word-spacing="0" letter-spacing="0"><tspan y="-757.41" x="2581.39"/>
 </text>
 <text transform="scale(4.0128.2492)" font-size="46.954" y="-3388.52" x="840.36" font-family="Arial" text-anchor="middle"/>
 <text font-size="129.23" y="-837.42" x="3162.65" font-family="&apos;Gentium Book Basic&apos;" line-height="125%" word-spacing="0" letter-spacing="0"><tspan y="-837.42" x="3162.65"/>
 </text>
 <text transform="scale(4.0128.2492)" font-size="46.954" y="-3709.56" x="985.21" font-family="Arial" text-anchor="middle"/>
 <text font-size="208.33" y="577.3" x="1329.85" font-family="&apos;Gentium Book Basic&apos;" line-height="125%" word-spacing="0" letter-spacing="0"><tspan y="577.3" x="1329.85"/>
 </text>
 <g fill-rule="evenodd">
  <path opacity="0.25" d="m159.13 128.84c-16.771 0-30.28 13.511-30.28 30.28v193.75c0 8.503 3.473 16.17 9.08 21.66l96.64 96.64c6.09 0.509 12.249 0.783 18.471 0.783 120.9 0 218.91-98.01 218.91-218.91 0-6.232-0.275-12.4-0.785-18.5l-96.63-96.63c-5.49-5.607-13.154-9.08-21.654-9.08h-193.75"/>
  <path d="m159.13 128.84c-16.771 0-30.28 13.511-30.28 30.28v193.75c0 16.771 13.511 30.28 30.28 30.28h193.75c16.771 0 30.28-13.51 30.28-30.28v-193.75c0-16.771-13.51-30.28-30.28-30.28h-193.75m33.938 31.31c18.18 0 32.938 14.722 32.938 32.906 0 18.18-14.753 32.938-32.938 32.938-18.18 0-32.906-14.753-32.906-32.938 0-18.18 14.722-32.906 32.906-32.906m125.88 0c18.18 0 32.906 14.722 32.906 32.906 0 18.18-14.722 32.938-32.906 32.938-18.18 0-32.938-14.753-32.938-32.938 0-18.18 14.753-32.906 32.938-32.906m-125.87 125.84c18.18 0 32.938 14.753 32.938 32.938 0 18.18-14.753 32.906-32.938 32.906-18.18 0-32.906-14.722-32.906-32.906 0-18.18 14.722-32.938 32.906-32.938m125.88 0c18.18 0 32.906 14.753 32.906 32.938 0 18.18-14.722 32.906-32.906 32.906-18.18 0-32.938-14.722-32.938-32.906 0-18.18 14.753-32.938 32.938-32.938" fill="#fff"/>
 </g>
</svg>
