<?xml version="1.0" encoding="UTF-8" standalone="no"?>
<svg
   xmlns:dc="http://purl.org/dc/elements/1.1/"
   xmlns:cc="http://creativecommons.org/ns#"
   xmlns:rdf="http://www.w3.org/1999/02/22-rdf-syntax-ns#"
   xmlns:svg="http://www.w3.org/2000/svg"
   xmlns="http://www.w3.org/2000/svg"
   xmlns:sodipodi="http://sodipodi.sourceforge.net/DTD/sodipodi-0.dtd"
   xmlns:inkscape="http://www.inkscape.org/namespaces/inkscape"
   height="512"
   viewBox="0 0 512 512"
   width="512"
   version="1.1"
   id="svg2"
   inkscape:version="0.91 r13725"
   sodipodi:docname="teamspeak.svg">
  <defs
     id="defs17">
    <linearGradient
       id="linearGradient3764"
       x1="1"
       x2="47"
       gradientUnits="userSpaceOnUse"
       gradientTransform="matrix(0,-1,1,0,-1.5e-6,47.999998)">
      <stop
         style="stop-color:#c4ccd2;stop-opacity:1"
         id="stop7" />
      <stop
         offset="1"
         style="stop-color:#cfd6db;stop-opacity:1"
         id="stop9" />
    </linearGradient>
  </defs>
  <sodipodi:namedview
     pagecolor="#ffffff"
     bordercolor="#666666"
     borderopacity="1"
     objecttolerance="10"
     gridtolerance="10"
     guidetolerance="10"
     inkscape:pageopacity="0"
     inkscape:pageshadow="2"
     inkscape:window-width="1920"
     inkscape:window-height="1023"
     id="namedview15"
     showgrid="false"
     inkscape:zoom="1.2867932"
     inkscape:cx="223.63498"
     inkscape:cy="195.67744"
     inkscape:window-x="0"
     inkscape:window-y="0"
     inkscape:window-maximized="1"
     inkscape:current-layer="svg2" />
  <metadata
     id="metadata28">
    <rdf:RDF>
      <cc:Work
         rdf:about="">
        <dc:format>image/svg+xml</dc:format>
        <dc:type
           rdf:resource="http://purl.org/dc/dcmitype/StillImage" />
        <dc:title></dc:title>
      </cc:Work>
    </rdf:RDF>
  </metadata>
  <path
     style="fill:#BF9E73;fill-rule:evenodd;fill-opacity:1"
     inkscape:connector-curvature="0"
     d="m 471.95,253.05 c 0,120.9 -98.01,218.9 -218.9,218.9 -120.9,0 -218.9,-98.01 -218.9,-218.9 0,-120.9 98.01,-218.9 218.9,-218.9 120.9,0 218.9,98.01 218.9,218.9"
     id="path6" />
  <path
     style="fill-opacity:0.06700003;fill-rule:evenodd"
     inkscape:connector-curvature="0"
     d="M 256,1 C 115.17,1 1,115.17 1,256 1,396.83 115.17,511 256,511 396.83,511 511,396.83 511,256 511,115.17 396.83,1 256,1 m 8.827,44.931 c 120.9,0 218.9,98 218.9,218.9 0,120.9 -98,218.9 -218.9,218.9 -120.9,0 -218.93,-98 -218.93,-218.9 0,-120.9 98.03,-218.9 218.93,-218.9"
     id="path8" />
  <g
     style="fill-opacity:0.12900002;fill-rule:evenodd"
     id="g10">
    <path
       inkscape:connector-curvature="0"
       d="m 256,4.433 c -138.94,0 -251.57,112.63 -251.57,251.57 0,138.94 112.63,251.57 251.57,251.57 138.94,0 251.57,-112.63 251.57,-251.57 C 507.57,117.063 394.94,4.433 256,4.433 m 5.885,38.556 c 120.9,0 218.9,98 218.9,218.9 0,120.9 -98,218.9 -218.9,218.9 -120.9,0 -218.93,-98 -218.93,-218.9 0,-120.9 98.03,-218.9 218.93,-218.9"
       id="path12" />
    <path
       inkscape:connector-curvature="0"
       d="m 256,8.356 c -136.77,0 -247.64,110.87 -247.64,247.64 0,136.77 110.87,247.64 247.64,247.64 136.77,0 247.64,-110.87 247.64,-247.64 C 503.64,119.226 392.77,8.356 256,8.356 m 2.942,31.691 c 120.9,0 218.9,98 218.9,218.9 0,120.9 -98,218.9 -218.9,218.9 -120.9,0 -218.93,-98 -218.93,-218.9 0,-120.9 98.03,-218.9 218.93,-218.9"
       id="path14" />
  </g>
  <path
     inkscape:connector-curvature="0"
     style="opacity:0.25"
     id="path4190"
     d="m 313.60016,116.17328 -10.07239,-2.79972 -2.236,0.568 11.867,11.867 -46.14,-12.02 -3.336,0 -15.96776,-7.73755 -14.32414,-1.59166 -10.02144,-1.47306 -44.21985,3.98858 -19.48626,5.20331 -12.04817,20.5226 -12.60434,52.85003 -31.90872,36.73928 6.31279,47.56703 115.69423,87.74798 c 2.65501,-18.55874 -35.12364,-2.63832 -41.99999,6.14515 l 64.5656,45.29648 -42.09903,-2.20258 -79.79354,-11.33201 117.16838,80.91066 c 89.91166,-11.35724 208.88734,-20.41532 232.17424,-225.39924 l 4.87217,-17.19152 -132.69824,-101.06845 -15.05252,-7.45908"
     sodipodi:nodetypes="ccccccccccccccccccccccccc" />
  <path
     style="fill:#ffffff;fill-rule:evenodd;stroke:#000000;stroke-width:4.90399981;stroke-opacity:0.31000001"
     inkscape:connector-curvature="0"
     d="m 253.04,7.859 c -135.42,0 -245.19,109.78 -245.19,245.19 0,135.42 109.78,245.19 245.19,245.19 135.42,0 245.19,-109.78 245.19,-245.19 0,-135.42 -109.78,-245.19 -245.19,-245.19 z m 0,26.297 c 120.9,0 218.9,98 218.9,218.9 0,120.9 -98,218.9 -218.9,218.9 -120.9,0 -218.93,-98 -218.93,-218.9 0,-120.9 98.03,-218.9 218.93,-218.9 z"
     id="path16" />
  <g
     transform="matrix(10.213075,0,0,10.213075,-158.99133,252.98749)"
     id="g23">
    <g
       id="g25">
      <g
         transform="translate(1,1)"
         id="g27">
        <g
           style="opacity:0.1"
           id="g29">
          <!-- color: #cfd6db -->
        </g>
      </g>
    </g>
  </g>
  <g
     id="g4221"
     transform="matrix(1.0209504,0,0,1.0209504,-32.414266,-25.543505)">
    <path
       sodipodi:nodetypes="ccccccccccccccccccccccccccccccccccccccccsccccc"
       inkscape:connector-curvature="0"
       id="path39"
       d="m 229.86733,138.94507 c -5.83594,0 -4.75976,1.37696 -4.75976,1.37696 18.04489,17.38859 14.17871,13.76078 18.05859,17.40429 -0.005,-4.1e-4 -0.009,-0.002 -0.0137,-0.002 l 0,-0.0137 c 0.005,0.005 0.009,0.0109 0.0137,0.0156 42.27998,3.83266 100.66662,24.71118 115.57617,76.04883 4.05237,13.91445 2.71449,29.11493 -1.61328,41.28516 -8.62932,24.24866 -25.0209,36.8776 -48.71875,52.3789 -8.07851,5.27202 -17.49449,10.11033 -27.5664,13.44141 -0.74752,0.24917 -1.40483,0.51311 -1.96875,0.4082 -0.95736,-1.39014 -0.56254,-2.70223 0.26367,-3.73828 0.45901,-0.2754 0.87833,-0.46008 1.23242,-0.66992 18.36026,-12.13088 34.94947,-37.21834 35.55273,-62.98828 0.50871,-21.87394 -20.0876,-44.97018 -38.23242,-46.38086 0.23616,3.21199 0.16985,7.5217 -1.20312,11.64063 -1.42948,3.48845 -4.96875,8.9707 -4.96875,8.9707 -0.97047,1.28522 -1.94179,3.54117 0.20898,6.25586 10.00634,12.82596 18.45131,25.67794 27.18555,38.87109 0,0 1.12831,1.42904 1.84961,3.43555 2.46552,8.65555 -7.68508,12.09202 -11.58008,13.0625 -0.40655,0.10491 -1.42969,0.30078 -1.42969,0.30078 -5.37693,1.33767 -13.00834,4.45894 -7.73633,11.12109 l 0,0.0527 c 0.10492,0.10491 0.20899,0.21121 0.30079,0.35547 0.40655,0.459 1.12773,1.3766 2.20312,3.06836 1.02293,2.15078 1.90194,5.63939 -1.23242,8.09179 -1.61085,1.05672 -6.82522,3.40554 -4.48047,6.0625 -0.007,-0.01 -0.0449,-0.0703 -0.0449,-0.0703 l 0.1582,0.21094 c -0.0462,-0.0471 -0.0718,-0.0937 -0.11328,-0.14063 0.0619,0.0848 0.34283,0.47985 0.625,1.26758 1.23276,4.61629 0.82513,7.84258 -0.39452,8.91797 -0.15738,0.10492 -0.262,0.26172 -0.40625,0.35352 l -0.0527,0.0527 c -3.14711,2.96878 -1.28514,6.71484 -1.28514,6.71484 l 0,0.0527 c 0.0525,0.30163 0.15848,0.66935 0.21093,1.02344 1.21965,8.51129 -0.72199,15.51356 -2.9121,23.46093 0,0 9.67941,0.30116 15.37108,-1.84961 60.70689,-16.1308 99.44727,-61.90001 99.44727,-116.20703 0,-60.54951 -49.49571,-111.09243 -121.21875,-121.0332 l 0,0.0137 c -0.20983,-0.0525 -0.35266,-0.10574 -0.5625,-0.1582 -9.27193,-1.48194 -29.96708,-2.46485 -35.76368,-2.46485 z"
       style="fill:#ffffff;fill-opacity:1;fill-rule:evenodd;stroke:none" />
    <path
       inkscape:connector-curvature="0"
       d="m 285.64299,292.13498 c -8.65555,-12.55055 -16.90455,-23.92079 -24.18308,-37.44181 -1.28522,-2.30815 -2.92453,-4.81301 -2.50486,-7.84245 0.56392,-3.84254 4.19663,-5.78348 5.83593,-8.60309 3.79009,-6.71461 1.18031,-15.58 -1.1803,-22.64869 -4.76055,-14.39969 -10.75385,-26.95024 -18.03239,-38.11065 -9.99323,-15.37016 -21.73068,-29.31084 -41.76959,-34.68778 l 0,70.22799 c 0.91802,0.91801 4.93104,2.15077 5.84905,2.87207 27.26499,20.49792 36.19594,54.7398 36.68118,79.2114 0.6426,32.56323 -11.01616,64.66745 -34.37302,84.8375 -0.51146,0.45901 -1.63932,0.86556 -1.48195,1.79669 15.82917,3.1737 49.99236,7.30476 53.84802,-7.63263 3.5409,-13.74396 -3.02944,-19.90776 2.24257,-30.98949 1.94094,-1.9016 1.94094,-1.9934 1.94094,-2.46552 0,-0.459 -2.50486,-1.9016 -2.50486,-1.9016 -1.28522,-0.97047 -2.46552,-1.84914 -2.46552,-3.73762 0,-4.14417 6.46543,-4.354 6.50478,-7.52771 0.0524,-4.11794 -2.22946,-8.03917 -3.54091,-11.63253 -0.45901,-2.60978 -0.56392,-5.63922 3.58025,-7.89491 6.29495,-1.84914 13.06201,-3.76386 17.62585,-7.26542 1.96717,-1.50816 -0.76064,-6.55723 -2.15078,-8.55063"
       style="fill:#ffffff;fill-opacity:1;fill-rule:evenodd;stroke:none"
       id="path43" />
    <path
       id="path49"
       style="opacity:1;fill:#ffffff;fill-opacity:1;stroke:none"
       d="m 242.71933,118.4994 c -14.25542,0.43279 -28.41904,2.13767 -42.21548,5.24579 -3.30484,0.74753 -6.51788,1.84914 -9.80962,2.60979 -12.44563,2.89829 -20.44545,9.31127 -22.28148,18.26845 l -17.06191,82.90968 39.3434,-4.22286 0,-84.62767 c 16.93078,-4.69498 34.6353,-7.12116 52.45788,-7.17362 94.1619,0 170.48818,64.58877 170.48818,144.25917 0,79.67041 -76.32628,144.25917 -170.48818,144.25917 -28.57643,0.0131 -56.68074,-6.05889 -81.75561,-17.65208 l -6.76706,9.67848 c 74.54264,35.6189 168.70455,25.35028 229.55568,-25.0224 60.85121,-50.37268 73.23128,-128.27264 30.2027,-189.94999 -32.66821,-46.83177 -92.06365,-76.50982 -157.37372,-78.58191 -4.76054,-0.14426 -9.5211,-0.14426 -14.26853,0 z"
       inkscape:connector-curvature="0" />
    <path
       inkscape:connector-curvature="0"
       id="circle51"
       d="m 171.02163,210.16968 a 45.900646,45.900646 0 0 0 -45.90038,45.90039 45.900646,45.900646 0 0 0 45.90038,45.9004 45.900646,45.900646 0 0 0 45.90234,-45.9004 45.900646,45.900646 0 0 0 -45.90234,-45.90039 z m -6.55664,26.22852 a 26.228939,26.228939 0 0 1 26.22852,26.22851 26.228939,26.228939 0 0 1 -26.22852,26.23047 26.228939,26.228939 0 0 1 -26.22852,-26.23047 26.228939,26.228939 0 0 1 26.22852,-26.22851 z"
       style="opacity:1;fill:#ffffff;fill-opacity:1;stroke:none" />
  </g>
</svg>
