<?xml version="1.0" encoding="UTF-8" standalone="no"?>
<svg xmlns="http://www.w3.org/2000/svg" height="512" viewBox="0 0 512 512" width="512" version="1.1">
 <metadata id="metadata72"/>
 <g id="g4" fill-rule="evenodd">
  <path id="path6" fill="#BF9E73" d="m471.95 253.05c0 120.9-98.01 218.9-218.9 218.9-120.9 0-218.9-98.01-218.9-218.9 0-120.9 98.01-218.9 218.9-218.9 120.9 0 218.9 98.01 218.9 218.9"/>
  <path id="path8" fill-opacity="0.235" d="m198.88 175.75-62.25 36-62.25 36 1.375 0.781-0.375 0.219 1.375 0.781-0.375 0.219s1.287 0.748 1.344 0.781l-0.375 0.219s1.316 0.747 1.375 0.781l-0.375 0.219s1.287 0.748 1.344 0.781l-0.344 0.188s1.316 0.747 1.375 0.781l-0.375 0.219s1.316 0.747 1.375 0.781l-0.375 0.219s1.316 0.747 1.375 0.781l-0.375 0.219s1.287 0.748 1.344 0.781l-0.375 0.219s1.316 0.747 1.375 0.781l-0.375 0.219s1.287 0.748 1.344 0.781l-0.344 0.188s1.316 0.747 1.375 0.781l-0.375 0.219s1.316 0.747 1.375 0.781l-0.375 0.219s1.316 0.747 1.375 0.781l-0.375 0.219s1.316 0.747 1.375 0.781l-0.375 0.219s1.286 0.748 1.344 0.781l-0.375 0.219s1.287 0.748 1.344 0.781l-0.344 0.188s1.316 0.747 1.375 0.781l-0.375 0.219s1.316 0.747 1.375 0.781l-0.375 0.219c0.001 0 1.316 0.747 1.375 0.781l-0.375 0.219c0.001 0 1.316 0.747 1.375 0.781l-0.375 0.219c0.001 0 1.286 0.748 1.344 0.781l-0.375 0.219c0.001 0 1.316 0.747 1.375 0.781l-0.375 0.219c0.001 0 1.286 0.748 1.344 0.781l-0.344 0.188c0.001 0 1.316 0.747 1.375 0.781l-0.375 0.219c0.001 0 1.316 0.747 1.375 0.781l-0.375 0.219c0.001 0 1.316 0.747 1.375 0.781l-0.375 0.219c0.001 0 1.286 0.748 1.344 0.781l-0.375 0.219c0.001 0 1.315 0.747 1.375 0.781l-0.375 0.219c0.001 0 1.286 0.748 1.344 0.781l-0.344 0.188c0.001 0 1.315 0.747 1.375 0.781l-0.375 0.219c0.001 0 1.315 0.747 1.375 0.781l-0.375 0.219c0.001 0 1.315 0.747 1.375 0.781l-0.375 0.219c0.001 0.001 1.315 0.747 1.375 0.781l-0.375 0.219c0.001 0.001 1.286 0.748 1.344 0.781l-0.375 0.219c0.001 0.001 1.286 0.748 1.344 0.781l-0.344 0.188c0.001 0.001 1.315 0.747 1.375 0.781l-0.375 0.219c0.001 0.001 1.315 0.747 1.375 0.781l-0.375 0.219c0.001 0.001 1.315 0.747 1.375 0.781l-0.375 0.219c0.001 0.001 1.315 0.747 1.375 0.781l-0.375 0.219c0.001 0.001 1.286 0.748 1.344 0.781l-0.375 0.219c0.001 0.001 1.286 0.748 1.344 0.781l-0.344 0.188c0.001 0.001 1.315 0.747 1.375 0.781l-0.375 0.219c0.001 0.001 1.315 0.747 1.375 0.781l-0.375 0.219c0.001 0.001 1.315 0.747 1.375 0.781l-0.375 0.219 1.375 0.781-0.375 0.219 1.344 0.781-0.375 0.219 1.375 0.781-0.375 0.219 1.344 0.781-0.344 0.188 1.375 0.781-0.375 0.219c0.001 0.001 1.315 0.746 1.375 0.781l-0.375 0.219c0.001 0.001 1.315 0.746 1.375 0.781l-0.375 0.219c0.001 0.001 1.286 0.748 1.344 0.781l-0.375 0.219c0.001 0.001 1.315 0.746 1.375 0.781-0.005 0.003-0.375 0.219-0.375 0.219 0.001 0.001 1.286 0.748 1.344 0.781l-0.344 0.188c0.001 0.001 1.315 0.746 1.375 0.781l-0.375 0.219c0.001 0.001 1.315 0.746 1.375 0.781l-0.375 0.219 1.375 0.781c-0.005 0.003-0.375 0.219-0.375 0.219l1.375 0.781c-0.005 0.003-0.375 0.219-0.375 0.219l1.344 0.781c-0.005 0.003-0.375 0.219-0.375 0.219l1.344 0.781c-0.004 0.002-0.344 0.188-0.344 0.188l1.375 0.781c-0.005 0.003-0.375 0.219-0.375 0.219 0.002 0.001 1.315 0.746 1.375 0.781-0.005 0.003-0.375 0.219-0.375 0.219 0.002 0.001 1.315 0.746 1.375 0.781l-0.375 0.219c0.002 0.001 1.315 0.746 1.375 0.781l-0.375 0.219c0.002 0.001 1.285 0.747 1.344 0.781l-0.375 0.219c0.002 0.001 1.315 0.746 1.375 0.781l-0.375 0.219c0.002 0.001 1.285 0.747 1.344 0.781l-0.344 0.188c0.002 0.001 1.315 0.746 1.375 0.781l-0.375 0.219c0.002 0.001 1.315 0.746 1.375 0.781l-0.375 0.219c0.002 0.001 1.314 0.746 1.375 0.781-0.005 0.003-0.375 0.219-0.375 0.219l1.344 0.781-0.375 0.219 1.375 0.781c-0.005 0.003-0.375 0.219-0.375 0.219l1.344 0.781c-0.004 0.002-0.344 0.188-0.344 0.188l1.375 0.781c-0.005 0.003-0.375 0.219-0.375 0.219 0.002 0.001 1.314 0.746 1.375 0.781-0.005 0.003-0.375 0.219-0.375 0.219 0.002 0.001 1.314 0.746 1.375 0.781-0.005 0.003-0.375 0.219-0.375 0.219 0.002 0.001 1.314 0.746 1.375 0.781-0.005 0.003-0.375 0.219-0.375 0.219 0.002 0.001 1.285 0.747 1.344 0.781-0.005 0.003-0.375 0.219-0.375 0.219 0.002 0.001 1.285 0.747 1.344 0.781-0.004 0.002-0.344 0.188-0.344 0.188 0.002 0.001 1.314 0.746 1.375 0.781-0.005 0.003-0.375 0.219-0.375 0.219 0.002 0.001 1.314 0.746 1.375 0.781-0.005 0.003-0.375 0.219-0.375 0.219 0.002 0.001 1.314 0.746 1.375 0.781-0.005 0.003-0.375 0.219-0.375 0.219 0.002 0.001 1.314 0.746 1.375 0.781-0.005 0.003-0.375 0.219-0.375 0.219 0.002 0.001 1.285 0.747 1.344 0.781-0.005 0.003-0.375 0.219-0.375 0.219 0.002 0.001 1.285 0.747 1.344 0.781-0.004 0.002-0.344 0.188-0.344 0.188 0.002 0.001 1.314 0.746 1.375 0.781-0.005 0.003-0.375 0.219-0.375 0.219 0.002 0.001 1.314 0.746 1.375 0.781-0.005 0.003-0.375 0.219-0.375 0.219 0.002 0.001 1.314 0.746 1.375 0.781-0.005 0.003-0.375 0.219-0.375 0.219 0.002 0.001 1.314 0.746 1.375 0.781-0.005 0.003-0.375 0.219-0.375 0.219 0.002 0.001 1.285 0.747 1.344 0.781-0.005 0.003-0.375 0.219-0.375 0.219 0.002 0.001 1.314 0.746 1.375 0.781-0.005 0.003-0.375 0.219-0.375 0.219 0.002 0.001 1.285 0.747 1.344 0.781-0.004 0.002-0.344 0.188-0.344 0.188 0.002 0.001 1.314 0.746 1.375 0.781-0.005 0.003-0.375 0.219-0.375 0.219 0.002 0.001 1.314 0.746 1.375 0.781-0.005 0.003-0.375 0.219-0.375 0.219 0.003 0.001 1.314 0.746 1.375 0.781-0.005 0.003-0.375 0.219-0.375 0.219 0.002 0.001 1.285 0.747 1.344 0.781-0.005 0.003-0.375 0.219-0.375 0.219 0.003 0.001 1.314 0.746 1.375 0.781l-0.375 0.219c0.003 0.001 1.285 0.747 1.344 0.781l-0.344 0.188c0.003 0.002 1.314 0.746 1.375 0.781l-0.375 0.219c0.003 0.002 1.314 0.746 1.375 0.781l-0.375 0.219c0.003 0.002 1.314 0.746 1.375 0.781l-0.375 0.219c0.003 0.002 1.314 0.746 1.375 0.781l-0.375 0.219c0.003 0.002 1.284 0.747 1.344 0.781l-0.375 0.219c0.003 0.002 1.284 0.747 1.344 0.781l-0.344 0.188c0.003 0.002 1.314 0.746 1.375 0.781-0.005 0.003-0.375 0.219-0.375 0.219 0.003 0.002 1.314 0.746 1.375 0.781-0.005 0.003-0.375 0.219-0.375 0.219 0.003 0.002 1.314 0.746 1.375 0.781-0.005 0.003-0.375 0.219-0.375 0.219l1.375 0.781c-0.005 0.003-0.375 0.219-0.375 0.219l1.344 0.781c-0.005 0.003-0.375 0.219-0.375 0.219l1.375 0.781c-0.005 0.003-0.375 0.219-0.375 0.219l1.344 0.781c-0.004 0.002-0.344 0.188-0.344 0.188l1.375 0.781c-0.005 0.003-0.375 0.219-0.375 0.219l1.375 0.781c-0.005 0.003-0.375 0.219-0.375 0.219l1.375 0.781c-0.005 0.003-0.375 0.219-0.375 0.219l1.344 0.781c-0.005 0.003-0.375 0.219-0.375 0.219l1.375 0.781c-0.005 0.003-0.375 0.219-0.375 0.219l1.344 0.781c-0.004 0.002-0.344 0.188-0.344 0.188l1.375 0.781c-0.005 0.003-0.375 0.219-0.375 0.219l1.375 0.781c-0.005 0.003-0.375 0.219-0.375 0.219 0.003 0.002 1.313 0.745 1.375 0.781-0.005 0.003-0.375 0.219-0.375 0.219l1.375 0.781c-0.005 0.003-0.375 0.219-0.375 0.219 0.003 0.002 1.284 0.747 1.344 0.781-0.005 0.003-0.375 0.219-0.375 0.219 0.003 0.002 1.284 0.747 1.344 0.781-0.004 0.002-0.344 0.188-0.344 0.188 0.003 0.002 1.313 0.745 1.375 0.781-0.005 0.003-0.375 0.219-0.375 0.219 0.003 0.002 1.313 0.745 1.375 0.781l-0.375 0.219c0.003 0.002 1.313 0.745 1.375 0.781l-0.375 0.219c0.003 0.002 1.313 0.745 1.375 0.781l-0.375 0.219c0.003 0.002 1.284 0.747 1.344 0.781-0.005 0.003-0.375 0.219-0.375 0.219 0.003 0.002 1.284 0.747 1.344 0.781-0.004 0.002-0.344 0.188-0.344 0.188 0.003 0.002 1.313 0.745 1.375 0.781-0.005 0.003-0.375 0.219-0.375 0.219 0.003 0.002 1.313 0.745 1.375 0.781-0.005 0.003-0.375 0.219-0.375 0.219 0.004 0.002 1.313 0.745 1.375 0.781-0.005 0.003-0.375 0.219-0.375 0.219 0.004 0.002 1.313 0.745 1.375 0.781-0.005 0.003-0.375 0.219-0.375 0.219 0.003 0.002 1.284 0.746 1.344 0.781-0.005 0.003-0.375 0.219-0.375 0.219 0.004 0.002 1.313 0.745 1.375 0.781l-0.375 0.219c0.004 0.002 1.284 0.746 1.344 0.781l-0.344 0.188c0.004 0.002 1.313 0.745 1.375 0.781l-0.375 0.219c0.004 0.002 1.313 0.745 1.375 0.781l-0.375 0.219c0.004 0.002 1.313 0.745 1.375 0.781-0.005 0.003-0.375 0.219-0.375 0.219 0.004 0.002 1.284 0.746 1.344 0.781-0.005 0.003-0.375 0.219-0.375 0.219 0.004 0.002 1.313 0.745 1.375 0.781-0.005 0.003-0.375 0.219-0.375 0.219 0.004 0.002 1.284 0.746 1.344 0.781-0.004 0.002-0.344 0.188-0.344 0.188 0.004 0.002 1.313 0.745 1.375 0.781-0.005 0.003-0.375 0.219-0.375 0.219l1.375 0.781c-0.005 0.003-0.375 0.219-0.375 0.219l1.375 0.781c-0.005 0.003-0.375 0.219-0.375 0.219l1.375 0.781c-0.005 0.003-0.375 0.219-0.375 0.219l1.344 0.781c-0.005 0.003-0.375 0.219-0.375 0.219l1.344 0.781c-0.004 0.002-0.344 0.188-0.344 0.188l1.375 0.781c-0.005 0.003-0.375 0.219-0.375 0.219l1.375 0.781c-0.005 0.003-0.375 0.219-0.375 0.219l1.375 0.781c-0.005 0.003-0.375 0.219-0.375 0.219l1.375 0.781c-0.005 0.003-0.375 0.219-0.375 0.219l1.344 0.781c-0.005 0.003-0.375 0.219-0.375 0.219l1.344 0.781c-0.004 0.002-0.344 0.188-0.344 0.188v0.031l1.344 0.781c-0.004 0.002-0.344 0.188-0.344 0.188l1.375 0.781c-0.005 0.003-0.375 0.219-0.375 0.219l1.375 0.781c-0.005 0.003-0.375 0.219-0.375 0.219l1.375 0.781c-0.005 0.003-0.375 0.219-0.375 0.219l1.344 0.781c-0.005 0.003-0.375 0.219-0.375 0.219l1.375 0.781c-0.005 0.003-0.375 0.219-0.375 0.219l1.344 0.781c-0.004 0.002-0.344 0.188-0.344 0.188l1.375 0.781-0.375 0.219 1.375 0.781-0.375 0.219 1.375 0.781-0.375 0.219 1.375 0.781-0.375 0.219 1.344 0.781c-0.005 0.003-0.375 0.219-0.375 0.219l1.344 0.781c-0.004 0.002-0.344 0.188-0.344 0.188l1.375 0.781c-0.005 0.003-0.375 0.219-0.375 0.219l1.375 0.781c-0.005 0.003-0.375 0.219-0.375 0.219l1.375 0.781c-0.005 0.003-0.375 0.219-0.375 0.219 0.005 0.003 1.312 0.745 1.375 0.781-0.005 0.003-0.375 0.219-0.375 0.219l1.344 0.781-0.375 0.219 1.344 0.781-0.344 0.188 1.375 0.781-0.375 0.219 1.375 0.781c-0.005 0.003-0.375 0.219-0.375 0.219l1.375 0.781c-0.005 0.003-0.375 0.219-0.375 0.219l1.375 0.781c-0.005 0.003-0.375 0.219-0.375 0.219l1.344 0.781c-0.005 0.003-0.375 0.219-0.375 0.219l1.375 0.781c-0.005 0.003-0.375 0.219-0.375 0.219l1.344 0.781c-0.004 0.002-0.344 0.188-0.344 0.188l1.375 0.781c-0.005 0.003-0.375 0.219-0.375 0.219l1.375 0.781c-0.005 0.003-0.375 0.219-0.375 0.219l1.375 0.781c-0.005 0.003-0.375 0.219-0.375 0.219l1.344 0.781c-0.005 0.003-0.375 0.219-0.375 0.219l1.375 0.781c-0.005 0.003-0.375 0.219-0.375 0.219l1.344 0.781c-0.004 0.002-0.344 0.188-0.344 0.188l1.375 0.781c-0.005 0.003-0.375 0.219-0.375 0.219l1.375 0.781c-0.005 0.003-0.375 0.219-0.375 0.219l1.375 0.781c-0.005 0.003-0.375 0.219-0.375 0.219l1.375 0.781c-0.005 0.003-0.375 0.219-0.375 0.219l1.344 0.781c-0.005 0.003-0.375 0.219-0.375 0.219l1.344 0.781c-0.004 0.002-0.344 0.188-0.344 0.188l1.375 0.781c-0.005 0.003-0.375 0.219-0.375 0.219l1.375 0.781c-0.005 0.003-0.375 0.219-0.375 0.219l1.375 0.781c-0.005 0.003-0.375 0.219-0.375 0.219l1.375 0.781c-0.005 0.003-0.375 0.219-0.375 0.219l1.344 0.781c-0.005 0.003-0.375 0.219-0.375 0.219l1.344 0.781c-0.004 0.002-0.344 0.188-0.344 0.188v0.031l1.344 0.781c-0.004 0.002-0.344 0.188-0.344 0.188l1.375 0.781-0.375 0.219 30.906 17.906c86.91-21.283 153.45-94.43 164.91-184.78-0.016-0.009-0.09-0.06-0.094-0.063 0.001-0.001 0.072-0.032 0.125-0.063 0.012-0.093 0.02-0.188 0.031-0.281-0.298-0.169-1.106-0.627-1.156-0.656 0.005-0.003 0.375-0.219 0.375-0.219-0.001 0-1.315-0.747-1.375-0.781 0.005-0.003 0.375-0.219 0.375-0.219-0.001 0-1.315-0.747-1.375-0.781 0.005-0.003 0.375-0.219 0.375-0.219-0.001 0-1.286-0.748-1.344-0.781 0.004-0.002 0.344-0.188 0.344-0.188-0.001 0-1.286-0.748-1.344-0.781 0.005-0.003 0.375-0.219 0.375-0.219l-1.375-0.781c0.005-0.003 0.375-0.219 0.375-0.219l-1.375-0.781c0.005-0.003 0.375-0.219 0.375-0.219l-1.375-0.781c0.005-0.003 0.375-0.219 0.375-0.219-0.001 0-1.316-0.747-1.375-0.781 0.005-0.003 0.375-0.219 0.375-0.219-0.001 0-1.286-0.748-1.344-0.781 0.004-0.002 0.344-0.188 0.344-0.188-0.001 0-1.286-0.748-1.344-0.781 0.005-0.003 0.375-0.219 0.375-0.219-0.001 0-1.316-0.747-1.375-0.781 0.005-0.003 0.375-0.219 0.375-0.219-0.001 0-1.316-0.747-1.375-0.781 0.005-0.003 0.375-0.219 0.375-0.219-0.001 0-1.316-0.747-1.375-0.781 0.005-0.003 0.375-0.219 0.375-0.219s-1.316-0.747-1.375-0.781c0.005-0.003 0.375-0.219 0.375-0.219s-1.316-0.747-1.375-0.781c0.005-0.003 0.375-0.219 0.375-0.219s-1.258-0.719-1.313-0.75c0.004-0.002 0.344-0.219 0.344-0.219s-1.316-0.747-1.375-0.781l0.375-0.219s-1.316-0.747-1.375-0.781c0.005-0.003 0.375-0.219 0.375-0.219s-1.316-0.747-1.375-0.781c0.005-0.003 0.375-0.219 0.375-0.219s-1.316-0.747-1.375-0.781c0.005-0.003 0.375-0.219 0.375-0.219s-1.316-0.747-1.375-0.781c0.005-0.003 0.375-0.219 0.375-0.219s-1.287-0.748-1.344-0.781c0.004-0.002 0.344-0.188 0.344-0.188s-1.287-0.748-1.344-0.781c0.005-0.003 0.375-0.219 0.375-0.219s-1.316-0.747-1.375-0.781c0.005-0.003 0.375-0.219 0.375-0.219s-1.316-0.747-1.375-0.781c0.005-0.003 0.375-0.219 0.375-0.219s-1.316-0.747-1.375-0.781c0.005-0.003 0.375-0.219 0.375-0.219s-1.316-0.747-1.375-0.781c0.005-0.003 0.375-0.219 0.375-0.219s-1.287-0.748-1.344-0.781c0.004-0.002 0.344-0.188 0.344-0.188s-1.287-0.748-1.344-0.781c0.005-0.003 0.375-0.219 0.375-0.219s-1.316-0.747-1.375-0.781c0.005-0.003 0.375-0.219 0.375-0.219s-1.316-0.747-1.375-0.781c0.005-0.003 0.375-0.219 0.375-0.219s-1.316-0.747-1.375-0.781l0.375-0.219-62.25-36-62.25-36v36h-78.29v-0.188l-0.313 0.188h-0.688v-1.188l-1 0.594v-1.594l-1 0.594v-1.59l-0.969 0.563v-1.56l-1 0.594v-1.59l-1 0.594v-1.59l-1 0.594v-1.59l-1 0.594v-1.59l-1 0.594v-1.59l-1 0.594v-1.563l-0.969 0.563v-1.563l-1 0.594v-1.594l-1 0.594v-1.594l-1 0.594v-1.594l-1 0.594v-1.594l-1 0.594v-1.563l-0.969 0.563v-1.563l-1 0.594v-1.594l-1 0.594v-1.594l-1 0.594v-1.594l-1 0.594v-1.594l-1 0.594v-1.563l-0.969 0.563v-1.563l-1 0.594v-1.594l-1 0.594v-1.594l-1 0.594v-1.594l-1 0.594v-1.594l-1 0.594v-1.563l-1 0.594v-1.594l-0.969 0.563v-1.563l-1 0.594v-1.594l-1 0.594v-1.594l-1 0.594v-1.594l-1 0.594v-1.594l-1 0.594v-1.563l-0.969 0.563v-1.563"/>
  <path id="path10" fill-opacity="0.067" d="m256 1c-140.83 0-255 114.17-255 255s114.17 255 255 255 255-114.17 255-255-114.17-255-255-255m8.827 44.931c120.9 0 218.9 98 218.9 218.9s-98 218.9-218.9 218.9-218.93-98-218.93-218.9 98.03-218.9 218.93-218.9"/>
  <g id="g12" fill-opacity="0.129">
   <path id="path14" d="m256 4.433c-138.94 0-251.57 112.63-251.57 251.57s112.63 251.57 251.57 251.57 251.57-112.63 251.57-251.57-112.63-251.57-251.57-251.57m5.885 38.556c120.9 0 218.9 98 218.9 218.9s-98 218.9-218.9 218.9-218.93-98-218.93-218.9 98.03-218.9 218.93-218.9"/>
   <path id="path16" d="m256 8.356c-136.77 0-247.64 110.87-247.64 247.64s110.87 247.64 247.64 247.64 247.64-110.87 247.64-247.64-110.87-247.64-247.64-247.64m2.942 31.691c120.9 0 218.9 98 218.9 218.9s-98 218.9-218.9 218.9-218.93-98-218.93-218.9 98.03-218.9 218.93-218.9"/>
  </g>
  <path id="path18" d="m253.04 7.859c-135.42 0-245.19 109.78-245.19 245.19 0 135.42 109.78 245.19 245.19 245.19 135.42 0 245.19-109.78 245.19-245.19 0-135.42-109.78-245.19-245.19-245.19zm0 26.297c120.9 0 218.9 98 218.9 218.9s-98 218.9-218.9 218.9-218.93-98-218.93-218.9 98.03-218.9 218.93-218.9z" stroke-opacity="0.31" stroke="#000" stroke-width="4.904" fill="#fff"/>
 </g>
 <path id="path66" d="m198.86 175.74-62.24 36.01-62.24 36.01 62.24 36.07 62.24 36.01v-41.18h114.28v41.18l62.24-36.01 62.24-36.07-62.24-36.01-62.24-36.01v36.01h-114.28v-36.01" fill-rule="evenodd" fill="#fff"/>
</svg>
