<?xml version="1.0" encoding="UTF-8" standalone="no"?>
<svg
   xmlns:dc="http://purl.org/dc/elements/1.1/"
   xmlns:cc="http://creativecommons.org/ns#"
   xmlns:rdf="http://www.w3.org/1999/02/22-rdf-syntax-ns#"
   xmlns:svg="http://www.w3.org/2000/svg"
   xmlns="http://www.w3.org/2000/svg"
   xmlns:sodipodi="http://sodipodi.sourceforge.net/DTD/sodipodi-0.dtd"
   xmlns:inkscape="http://www.inkscape.org/namespaces/inkscape"
   viewBox="0 0 512 512"
   version="1.1"
   id="svg2"
   inkscape:version="0.91 r13725"
   sodipodi:docname="telephony-service-message.svg">
  <sodipodi:namedview
     pagecolor="#ffffff"
     bordercolor="#666666"
     borderopacity="1"
     objecttolerance="10"
     gridtolerance="10"
     guidetolerance="10"
     inkscape:pageopacity="0"
     inkscape:pageshadow="2"
     inkscape:window-width="1920"
     inkscape:window-height="1052"
     id="namedview16"
     showgrid="false"
     inkscape:zoom="0.921875"
     inkscape:cx="648.77245"
     inkscape:cy="117.83966"
     inkscape:window-x="1920"
     inkscape:window-y="0"
     inkscape:window-maximized="1"
     inkscape:current-layer="svg2" />
  <metadata
     id="metadata6004">
    <rdf:RDF>
      <cc:Work
         rdf:about="">
        <dc:format>image/svg+xml</dc:format>
        <dc:type
           rdf:resource="http://purl.org/dc/dcmitype/StillImage" />
        <dc:title></dc:title>
      </cc:Work>
    </rdf:RDF>
  </metadata>
  <defs
     id="defs4">
    <path
       id="0"
       d="m-53.03 6.634h57.629v49.32h-57.629z" />
  </defs>
  <g
     id="g7"
     fill-rule="evenodd">
    <path
       inkscape:connector-curvature="0"
       id="path9"
       d="m 471.95,253.05 c 0,120.9 -98.01,218.91 -218.91,218.91 -120.9,0 -218.91,-98.01 -218.91,-218.91 0,-120.9 98.01,-218.91 218.91,-218.91 120.9,0 218.91,98.01 218.91,218.91"
       fill="#BF9E73" />
    <path
       inkscape:connector-curvature="0"
       id="path11"
       d="M 256,1 C 115.17,1 1,115.17 1,256 1,396.83 115.17,511 256,511 396.83,511 511,396.83 511,256 511,115.17 396.83,1 256,1 m 8.827,44.931 c 120.9,0 218.9,98 218.9,218.9 0,120.9 -98,218.9 -218.9,218.9 -120.9,0 -218.93,-98 -218.93,-218.9 0,-120.9 98.03,-218.9 218.93,-218.9"
       fill-opacity="0.067" />
    <g
       id="g13"
       fill-opacity="0.129">
      <path
         inkscape:connector-curvature="0"
         id="path15"
         d="M 256,4.43 C 117.06,4.43 4.43,117.06 4.43,256 4.43,394.94 117.06,507.57 256,507.57 394.94,507.57 507.57,394.94 507.57,256 507.57,117.06 394.94,4.43 256,4.43 m 5.885,38.556 c 120.9,0 218.9,98 218.9,218.9 0,120.9 -98,218.9 -218.9,218.9 -120.9,0 -218.93,-98 -218.93,-218.9 0,-120.9 98.03,-218.9 218.93,-218.9" />
      <path
         inkscape:connector-curvature="0"
         id="path17"
         d="M 256,8.36 C 119.23,8.36 8.36,119.23 8.36,256 8.36,392.77 119.23,503.64 256,503.64 392.77,503.64 503.64,392.77 503.64,256 503.64,119.23 392.77,8.36 256,8.36 m 2.942,31.691 c 120.9,0 218.9,98 218.9,218.9 0,120.9 -98,218.9 -218.9,218.9 -120.9,0 -218.93,-98 -218.93,-218.9 0,-120.9 98.03,-218.9 218.93,-218.9" />
    </g>
    <path
       inkscape:connector-curvature="0"
       id="path19"
       d="M 253.04,7.86 C 117.62,7.86 7.85,117.64 7.85,253.05 c 0,135.42 109.78,245.19 245.19,245.19 135.42,0 245.19,-109.78 245.19,-245.19 C 498.23,117.63 388.45,7.86 253.04,7.86 Z m 0,26.297 c 120.9,0 218.9,98 218.9,218.9 0,120.9 -98,218.9 -218.9,218.9 -120.9,0 -218.93,-98 -218.93,-218.9 0,-120.9 98.03,-218.9 218.93,-218.9 z"
       stroke-opacity="0.31"
       fill="#ffffff"
       stroke="#000000"
       stroke-width="4.904" />
  </g>
  <path
     inkscape:connector-curvature="0"
     id="path5998"
     d="m 231.35071,144.76042 -19.01156,6.70807 0,0.002 21.1,21.1 0,0.002 -21.1,-21.1 0,23.84 -7.84,-7.84 -44.47,0 -7.38475,137.78995 43.75932,49.2129 -8.96174,10.92359 99.78141,102.0825 C 395.34335,446.41778 461.06425,382.74311 473.66418,251.59501 l -116.3072,-100.59945 -100.4126,-5.27334"
     style="opacity:0.25"
     sodipodi:nodetypes="cccccccccccccccc" />
  <path
     inkscape:connector-curvature="0"
     id="path6000"
     d="m 183.98142,141.42434 c -22.12857,0 -39.96629,17.79206 -39.96629,39.92465 l 0,98.57904 c 0,21.14384 16.26863,38.3045 37.02826,39.79836 l 0,43.53437 c 0.0134,2.97699 1.99496,5.85188 4.78655,6.88495 2.7916,1.03308 6.19981,0.1545 8.14103,-2.09974 l 41.43598,-48.19464 92.61163,0 c 22.12857,0 39.96629,-17.8337 39.96629,-39.96629 l 0,-98.485 c 0,-22.12856 -17.83369,-39.96629 -39.96629,-39.96629 l -144.03985,0 m 3.64184,51.60689 152.20385,0 c 4.14844,0 7.47336,3.36657 7.47336,7.51501 0,4.14843 -3.32492,7.47336 -7.47336,7.47336 l -152.20385,0 c -4.14844,0 -7.47336,-3.32493 -7.47336,-7.47336 0,-4.14844 3.32492,-7.51501 7.47336,-7.51501 m 0.0121,32.71056 152.20385,0 c 4.14844,0 7.47336,3.36657 7.47336,7.51501 0,4.14843 -3.32492,7.47336 -7.47336,7.47336 l -152.20385,0 c -4.14844,0 -7.47336,-3.32493 -7.47336,-7.47336 0,-4.14844 3.32492,-7.51501 7.47336,-7.51501 m 0,32.7025 152.20385,0 c 4.14844,0 7.47336,3.36657 7.47336,7.51501 0,4.14843 -3.32492,7.47336 -7.47336,7.47336 l -152.20385,0 c -4.14844,0 -7.47336,-3.32493 -7.47336,-7.47336 0,-4.14844 3.32492,-7.51501 7.47336,-7.51501"
     style="fill:#ffffff"
     sodipodi:nodetypes="cssccsccssssccsssssccsssssccsssssc" />
</svg>
