<?xml version="1.0" encoding="UTF-8" standalone="no"?>
<svg xmlns="http://www.w3.org/2000/svg" height="512" viewBox="0 0 512 512" width="512" version="1.1">
 <metadata id="metadata76"/>
 <path id="path4" d="m471.95 253.05c0 120.9-98.01 218.9-218.9 218.9-120.9 0-218.9-98.01-218.9-218.9 0-120.9 98.01-218.9 218.9-218.9 120.9 0 218.9 98.01 218.9 218.9" fill-rule="evenodd" fill="#BF9E73"/>
 <path id="path6" fill-opacity="0.235" d="m140.97 134.41v29.375h-0.719v-1h-1v-1h-1v-1h-1v-1h-1v-1h-0.969v-0.969h-1v-1h-1v-1h-1v-1h-7.125v31.19h-0.469v-1h-1v-1h-1v-1h-1v-1h-1v-1h-0.969v-0.969h-1v-1h-1v-1h-1v-1h-7.875v177.13c0.33 0.025 0.669 0.038 1 0.063v0.938c0.331 0.025 0.669 0.038 1 0.063v0.938c0.33 0.025 0.669 0.038 1 0.063v0.938c0.321 0.025 0.647 0.039 0.969 0.063v0.906c0.329 0.025 0.67 0.038 1 0.063v0.938c0.33 0.025 0.669 0.038 1 0.063v0.938c0.33 0.025 0.67 0.038 1 0.063v0.938c0.33 0.025 0.669 0.038 1 0.063v0.938c0.33 0.025 0.669 0.038 1 0.063v0.938c0.32 0.025 0.648 0.039 0.969 0.063v0.906c0.329 0.025 0.67 0.038 1 0.063v0.938c0.33 0.025 0.669 0.038 1 0.063v0.938c0.329 0.025 0.67 0.038 1 0.063v0.938c0.33 0.025 0.669 0.038 1 0.063v0.938c0.331 0.025 0.668 0.038 1 0.063v0.938c0.32 0.025 0.648 0.039 0.969 0.063v0.906c0.33 0.025 0.669 0.038 1 0.063v0.938c0.329 0.025 0.67 0.038 1 0.063v0.938c0.33 0.025 0.669 0.038 1 0.063v0.938c0.33 0.025 0.669 0.038 1 0.063v0.938c0.331 0.025 0.668 0.038 1 0.063v0.938c0.32 0.025 0.648 0.039 0.969 0.063v0.906c0.33 0.025 0.669 0.038 1 0.063v0.938c0.329 0.025 0.67 0.038 1 0.063v0.938c0.33 0.025 0.669 0.038 1 0.063v0.938c0.329 0.025 0.67 0.038 1 0.063v0.938c0.33 0.025 0.669 0.038 1 0.063v0.938c0.33 0.025 0.669 0.038 1 0.063v0.938c0.32 0.025 0.647 0.039 0.969 0.063v0.906c0.33 0.025 0.669 0.038 1 0.063v0.938c0.33 0.025 0.669 0.038 1 0.063v0.938c0.331 0.025 0.669 0.038 1 0.063v0.938c0.33 0.025 0.669 0.038 1 0.063v0.938c0.331 0.025 0.668 0.038 1 0.063v0.938c0.32 0.025 0.648 0.039 0.969 0.063v0.906c0.33 0.025 0.669 0.038 1 0.063v0.938c0.329 0.025 0.67 0.038 1 0.063v0.938c0.33 0.025 0.669 0.038 1 0.063v0.938c0.33 0.025 0.669 0.038 1 0.063v0.938c0.331 0.025 0.668 0.038 1 0.063v0.938c0.32 0.025 0.648 0.039 0.969 0.063v0.906c0.329 0.025 0.67 0.038 1 0.063v0.938c0.329 0.025 0.67 0.038 1 0.063v0.938c0.33 0.025 0.669 0.038 1 0.063v0.938c0.329 0.025 0.67 0.038 1 0.063v0.938c0.33 0.025 0.669 0.038 1 0.063v0.938c0.331 0.025 0.668 0.038 1 0.063v0.938c0.32 0.025 0.647 0.039 0.969 0.063v0.906c0.33 0.025 0.669 0.038 1 0.063v0.938c0.329 0.025 0.669 0.038 1 0.063v0.938c0.33 0.025 0.668 0.038 1 0.063v0.938c0.33 0.025 0.669 0.038 1 0.063v0.938c0.331 0.025 0.668 0.038 1 0.063v0.938c0.32 0.025 0.648 0.039 0.969 0.063v0.906c0.33 0.025 0.669 0.038 1 0.063v0.938c0.329 0.025 0.67 0.038 1 0.063v0.938c0.33 0.025 0.669 0.038 1 0.063v0.938c0.33 0.025 0.669 0.038 1 0.063v0.938c0.331 0.025 0.668 0.038 1 0.063v0.938c0.32 0.024 0.648 0.039 0.969 0.063v0.906c0.329 0.025 0.67 0.038 1 0.063v0.938c0.33 0.025 0.669 0.038 1 0.063v0.938c0.33 0.025 0.669 0.038 1 0.063v0.938c0.331 0.025 0.668 0.038 1 0.063v0.938c0.33 0.025 0.669 0.038 1 0.063v0.938c0.321 0.025 0.647 0.039 0.969 0.063v0.906c0.329 0.025 0.67 0.038 1 0.063v0.938c0.33 0.025 0.669 0.038 1 0.063v0.938c0.329 0.025 0.67 0.038 1 0.063v0.938c0.33 0.025 0.668 0.038 1 0.063v0.938c0.33 0.025 0.669 0.038 1 0.063v0.938c0.331 0.025 0.668 0.038 1 0.063v0.938c0.32 0.025 0.648 0.039 0.969 0.063v0.906c0.329 0.025 0.669 0.038 1 0.063v0.938c0.329 0.025 0.67 0.038 1 0.063v0.938c0.33 0.025 0.669 0.038 1 0.063v0.938c0.331 0.025 0.668 0.038 1 0.063v0.938c0.331 0.025 0.668 0.038 1 0.063v0.938c0.321 0.025 0.646 0.039 0.969 0.063v0.906c0.329 0.025 0.67 0.038 1 0.063v0.938c0.33 0.025 0.669 0.038 1 0.063v0.938c0.329 0.025 0.669 0.038 1 0.063v0.938c0.331 0.025 0.668 0.038 1 0.063v0.938c0.33 0.025 0.669 0.038 1 0.063v0.938c0.321 0.025 0.647 0.039 0.969 0.063v0.906c0.328 0.025 0.67 0.038 1 0.063v0.938c0.33 0.025 0.669 0.038 1 0.063v0.938c0.329 0.025 0.67 0.038 1 0.063v0.938c0.33 0.025 0.668 0.038 1 0.063v0.938c0.33 0.025 0.669 0.038 1 0.063v0.938c0.331 0.025 0.668 0.038 1 0.063v0.938c0.32 0.025 0.648 0.039 0.969 0.063v0.906c0.329 0.025 0.669 0.038 1 0.063v0.938c0.331 0.025 0.668 0.038 1 0.063v0.938c0.33 0.025 0.669 0.038 1 0.063v0.938c0.331 0.025 0.667 0.038 1 0.063v0.938c0.33 0.025 0.668 0.038 1 0.063v0.938c0.322 0.025 0.646 0.039 0.969 0.063v0.906c0.329 0.025 0.67 0.039 1 0.063v0.938c0.33 0.025 0.668 0.038 1 0.063v0.938c0.329 0.025 0.669 0.038 1 0.063v0.938c0.331 0.025 0.668 0.038 1 0.063v0.938c0.33 0.025 0.669 0.038 1 0.063v0.938c0.321 0.025 0.646 0.039 0.969 0.063v0.906c0.328 0.025 0.671 0.039 1 0.063v0.938c0.329 0.025 0.669 0.039 1 0.063v0.938c0.329 0.025 0.67 0.039 1 0.063v0.938c0.33 0.025 0.668 0.039 1 0.063v0.938c0.332 0.025 0.667 0.038 1 0.063v0.938c0.321 0.025 0.647 0.039 0.969 0.063v0.906c0.33 0.025 0.669 0.039 1 0.063v0.938c0.329 0.025 0.67 0.039 1 0.063v0.938c0.33 0.025 0.668 0.039 1 0.063v0.938c0.33 0.025 0.669 0.039 1 0.063v0.938c0.331 0.025 0.667 0.039 1 0.063v0.938c0.33 0.025 0.668 0.039 1 0.063v0.938c0.322 0.025 0.645 0.039 0.969 0.063v0.531c9.1 1.153 18.368 1.781 27.781 1.781 120.9 0 218.91-98.01 218.91-218.91 0-6.102-0.26-12.149-0.75-18.12-0.229 0.014-0.459 0.014-0.688 0.031v-1.063c-0.333 0.025-0.667 0.038-1 0.063v-1.063c-0.334 0.025-0.666 0.038-1 0.063v-1.063c-0.324 0.025-0.645 0.038-0.969 0.063v-1.031c-0.333 0.025-0.667 0.038-1 0.063v-1.063c-0.333 0.025-0.667 0.038-1 0.063v-1.063c-0.334 0.025-0.666 0.038-1 0.063v-1.063c-0.334 0.025-0.666 0.038-1 0.063v-1.063c-0.333 0.025-0.667 0.038-1 0.063v-1.063c-0.323 0.025-0.646 0.038-0.969 0.063v-1.031c-0.332 0.025-0.668 0.038-1 0.063v-1.063c-0.332 0.025-0.668 0.038-1 0.063v-1.063c-0.333 0.025-0.668 0.038-1 0.063v-1.063c-0.333 0.025-0.667 0.038-1 0.063v-1.063c-0.333 0.025-0.667 0.038-1 0.063v-1.063c-0.333 0.025-0.667 0.038-1 0.063v-1.063c-0.323 0.025-0.646 0.038-0.969 0.063v-1.031c-0.333 0.025-0.667 0.038-1 0.063v-1.063c-0.333 0.025-0.667 0.038-1 0.063v-1.063c-0.333 0.025-0.667 0.038-1 0.063v-1.063c-0.333 0.025-0.667 0.038-1 0.063v-1.063c-0.334 0.025-0.666 0.038-1 0.063v-1.063c-0.323 0.025-0.645 0.038-0.969 0.063v-1.031c-0.333 0.025-0.667 0.038-1 0.063v-1.063c-0.333 0.025-0.667 0.038-1 0.063v-1.063c-0.333 0.025-0.667 0.038-1 0.063v-1.063c-0.334 0.025-0.666 0.038-1 0.063v-1.063c-0.334 0.025-0.666 0.037-1 0.063v-1.063c-0.323 0.025-0.646 0.038-0.969 0.063v-1.031c-0.332 0.025-0.668 0.038-1 0.063v-1.063c-0.332 0.025-0.668 0.038-1 0.063v-1.063c-0.333 0.025-0.668 0.038-1 0.063v-1.063c-0.333 0.025-0.667 0.038-1 0.063v-1.063c-0.333 0.025-0.667 0.038-1 0.063v-1.063c-0.333 0.025-0.667 0.038-1 0.063v-1.063c-0.323 0.025-0.646 0.038-0.969 0.063v-1.031c-0.333 0.025-0.667 0.038-1 0.063v-1.063c-0.333 0.025-0.667 0.038-1 0.063v-1.063c-0.333 0.025-0.667 0.038-1 0.063v-1.063c-0.333 0.025-0.667 0.037-1 0.063v-1.063c-0.334 0.025-0.666 0.037-1 0.063v-1.063c-0.323 0.025-0.645 0.038-0.969 0.063v-1.031c-0.333 0.025-0.667 0.038-1 0.063v-1.063c-0.333 0.025-0.667 0.037-1 0.063v-1.063c-0.333 0.025-0.667 0.037-1 0.063v-1.063c-0.334 0.025-0.666 0.037-1 0.063v-1.063c-0.334 0.025-0.666 0.037-1 0.063v-1.063c-0.323 0.025-0.646 0.038-0.969 0.063v-1.031c-0.332 0.025-0.668 0.038-1 0.063v-1.063c-0.332 0.025-0.668 0.038-1 0.063v-1.063c-0.333 0.025-0.667 0.038-1 0.063v-1.063c-0.333 0.025-0.667 0.038-1 0.063v-1.063c-0.333 0.025-0.667 0.037-1 0.063v-1.063c-0.323 0.025-0.646 0.038-0.969 0.063v-1.031c-0.332 0.025-0.668 0.038-1 0.063v-1.063c-0.333 0.025-0.667 0.038-1 0.063v-1.063c-0.333 0.025-0.667 0.037-1 0.063v-1.063c-0.333 0.025-0.667 0.037-1 0.063v-1.063c-0.333 0.025-0.667 0.037-1 0.063v-1.063c-0.333 0.025-0.667 0.037-1 0.063v-1.063c-0.323 0.025-0.646 0.038-0.969 0.063v-1.031c-0.333 0.025-0.667 0.037-1 0.063v-1.063c-0.333 0.025-0.667 0.037-1 0.063v-1.063c-0.333 0.025-0.667 0.037-1 0.063v-1.063c-0.334 0.025-0.667 0.037-1 0.063v-1.063c-0.334 0.025-0.666 0.037-1 0.063v-1.063c-0.323 0.025-0.645 0.038-0.969 0.063v-1.031c-0.332 0.025-0.668 0.038-1 0.063v-1.063c-0.332 0.025-0.668 0.037-1 0.063v-1.063c-0.333 0.025-0.667 0.037-1 0.063v-1.063c-0.333 0.025-0.667 0.037-1 0.063v-1.063c-0.333 0.025-0.667 0.037-1 0.063v-1.063c-0.323 0.025-0.646 0.038-0.969 0.063v-1.031c-0.333 0.025-0.667 0.037-1 0.063v-1.063c-0.333 0.025-0.667 0.037-1 0.063v-1.063c-0.333 0.025-0.667 0.037-1 0.063v-1.063c-0.333 0.025-0.667 0.037-1 0.063v-1.063c-0.333 0.025-0.667 0.037-1 0.063v-1.063c-0.333 0.025-0.667 0.037-1 0.063v-1.063c-0.323 0.025-0.646 0.038-0.969 0.063v-1.031c-0.333 0.025-0.667 0.037-1 0.063v-1.063c-0.333 0.025-0.667 0.037-1 0.063v-1.063c-0.333 0.025-0.667 0.037-1 0.063v-1.063c-0.333 0.025-0.667 0.037-1 0.063v-1.063c-0.334 0.025-0.666 0.037-1 0.063v-1.063c-0.323 0.025-0.645 0.038-0.969 0.063v-1.031c-0.333 0.025-0.667 0.037-1 0.063v-1.063c-0.333 0.025-0.668 0.037-1 0.063v-1.063c-0.333 0.025-0.667 0.037-1 0.063v-1.063c-0.333 0.025-0.667 0.037-1 0.063v-1.063c-0.333 0.025-0.667 0.037-1 0.063v-1.063c-0.323 0.025-0.646 0.038-0.969 0.063v-0.91c-0.333 0.025-0.667 0.037-1 0.063v-1.06c-0.333 0.025-0.667 0.037-1 0.063v-1.06c-0.333 0.025-0.667 0.037-1 0.063v-1.06c-0.333 0.025-0.667 0.037-1 0.063v-1.06c-0.333 0.025-0.667 0.037-1 0.063v-1.06c-0.323 0.025-0.646 0.038-0.969 0.063v-1.031c-0.333 0.025-0.667 0.037-1 0.063v-1.063c-0.333 0.025-0.667 0.037-1 0.063v-1.062c-0.333 0.025-0.667 0.037-1 0.063v-1.063c-37.03 2.821-73.895 3.727-113.56 39.563v2.906c-0.293-0.264-0.582-0.521-0.875-0.781v-0.125c-0.332-0.3-0.668-0.58-1-0.875v-0.125c-0.334-0.301-0.667-0.579-1-0.875v-0.125c-39.667-35.835-76.57-36.741-113.59-39.563"/>
 <g id="g8" fill-rule="evenodd">
  <path id="path10" fill-opacity="0.067" d="m256 1c-140.83 0-255 114.17-255 255s114.17 255 255 255 255-114.17 255-255-114.17-255-255-255m8.827 44.931c120.9 0 218.9 98 218.9 218.9s-98 218.9-218.9 218.9-218.93-98-218.93-218.9 98.03-218.9 218.93-218.9"/>
  <g id="g12" fill-opacity="0.129">
   <path id="path14" d="m256 4.433c-138.94 0-251.57 112.63-251.57 251.57s112.63 251.57 251.57 251.57 251.57-112.63 251.57-251.57-112.63-251.57-251.57-251.57m5.885 38.556c120.9 0 218.9 98 218.9 218.9s-98 218.9-218.9 218.9-218.93-98-218.93-218.9 98.03-218.9 218.93-218.9"/>
   <path id="path16" d="m256 8.356c-136.77 0-247.64 110.87-247.64 247.64s110.87 247.64 247.64 247.64 247.64-110.87 247.64-247.64-110.87-247.64-247.64-247.64m2.942 31.691c120.9 0 218.9 98 218.9 218.9s-98 218.9-218.9 218.9-218.93-98-218.93-218.9 98.03-218.9 218.93-218.9"/>
  </g>
  <path id="path18" d="m253.04 7.859c-135.42 0-245.19 109.78-245.19 245.19 0 135.42 109.78 245.19 245.19 245.19 135.42 0 245.19-109.78 245.19-245.19 0-135.42-109.78-245.19-245.19-245.19zm0 26.297c120.9 0 218.9 98 218.9 218.9s-98 218.9-218.9 218.9-218.93-98-218.93-218.9 98.03-218.9 218.93-218.9z" stroke-opacity="0.31" stroke="#000" stroke-width="4.904" fill="#fff"/>
 </g>
 <g id="g66" transform="matrix(1.0188 0 0 1.0188 -700.34 49.938)" fill="#fff">
  <path id="path68" d="m1051.6 82.906c-36.34 2.769-72.53 3.671-111.47 38.844l0.75 181.34c31.707-28.788 69.69-38.783 110.72-39.594zm-241.31 20.03v177.13c60.5 0.89 100.76 12.895 127.75 32.19 0.551 0.176 0.923 0.031 1.344 0 26.995-19.292 67.25-31.3 127.75-32.19v-177.12h-7.03v169.59c-33.04 2.945-58.965-2.711-121.41 35.875-62.43-38.571-88.37-32.93-121.41-35.875v-169.59zm-16.03 21.813v173.84c44.703 3.426 97.01 0.922 125.13 17.25 8.126 4.692 11.06 5.968 18.875 5.688h0.031c8.519 0.41 11.311-0.815 19.75-5.688 28.12-16.328 80.42-13.824 125.13-17.25v-173.84h-7.781v165.81c-40.454 1.766-80.88 3.619-118.72 17.781-7.284 6.859-10.02 7-17.594 7.156-8.394-0.173-10.71 0.003-18.313-7.156-37.844-14.162-78.3-16.01-118.75-17.781v-165.81z"/>
  <path id="path70" d="m936.5 303.09c-31.71-28.79-69.68-38.77-110.72-39.58v-180.6c36.34 2.769 72.53 3.653 111.47 38.826z"/>
 </g>
</svg>
