<?xml version="1.0" encoding="UTF-8" standalone="no"?>
<svg
   xmlns:dc="http://purl.org/dc/elements/1.1/"
   xmlns:cc="http://creativecommons.org/ns#"
   xmlns:rdf="http://www.w3.org/1999/02/22-rdf-syntax-ns#"
   xmlns:svg="http://www.w3.org/2000/svg"
   xmlns="http://www.w3.org/2000/svg"
   xmlns:sodipodi="http://sodipodi.sourceforge.net/DTD/sodipodi-0.dtd"
   xmlns:inkscape="http://www.inkscape.org/namespaces/inkscape"
   height="512"
   viewBox="0 0 512 512"
   width="512"
   version="1.1"
   id="svg2"
   inkscape:version="0.91 r13725"
   sodipodi:docname="text-editor.svg">
  <defs
     id="defs19" />
  <sodipodi:namedview
     pagecolor="#ffffff"
     bordercolor="#666666"
     borderopacity="1"
     objecttolerance="10"
     gridtolerance="10"
     guidetolerance="10"
     inkscape:pageopacity="0"
     inkscape:pageshadow="2"
     inkscape:window-width="1920"
     inkscape:window-height="1020"
     id="namedview17"
     showgrid="false"
     inkscape:zoom="1.5250549"
     inkscape:cx="256"
     inkscape:cy="256"
     inkscape:window-x="0"
     inkscape:window-y="0"
     inkscape:window-maximized="1"
     inkscape:current-layer="svg2" />
  <metadata
     id="metadata32">
    <rdf:RDF>
      <cc:Work
         rdf:about="">
        <dc:format>image/svg+xml</dc:format>
        <dc:type
           rdf:resource="http://purl.org/dc/dcmitype/StillImage" />
      </cc:Work>
    </rdf:RDF>
  </metadata>
  <path
     style="fill:#BF9E73;fill-rule:evenodd;fill-opacity:1"
     inkscape:connector-curvature="0"
     d="m 471.95,253.05 c 0,120.9 -98.01,218.9 -218.9,218.9 -120.9,0 -218.9,-98.01 -218.9,-218.9 0,-120.9 98.01,-218.9 218.9,-218.9 120.9,0 218.9,98.01 218.9,218.9"
     id="path6" />
  <path
     style="fill-opacity:0.23500001;fill-rule:evenodd"
     inkscape:connector-curvature="0"
     d="m 319.44,115.59 c -9.314,1.442 -32.22,16.467 -19.469,24.594 55.19,55.2 110.36,110.42 165.56,165.63 4.099,-16.559 6.319,-33.851 6.406,-51.656 -42.07,-42.17 -84.11,-84.37 -126.53,-126.34 -7.327,-6.2 -16.14,-11.704 -25.969,-12.219 m -33.75,27.594 -16.531,16.531 c 46.754,46.629 93.02,93.29 139.63,139.63 14.581,14.632 29.21,29.18 43.813,43.75 3.487,-7.715 6.538,-15.652 9.125,-23.813 -58.656,-58.691 -117.27,-117.4 -176.03,-176.09 m -26.75,26.719 c -38.789,38.794 -77.59,77.58 -116.37,116.38 l -25.16,78.81 c -1.277,12 11.557,17.592 18.13,25.688 27.488,27.18 53.07,52.602 78.34,77.69 12.705,2.294 25.791,3.5 39.16,3.5 83.33,0 155.8,-46.567 192.78,-115.09 -62.25,-62.31 -124.48,-124.59 -186.87,-186.97"
     id="path8" />
  <path
     style="fill-opacity:0.06700003;fill-rule:evenodd"
     inkscape:connector-curvature="0"
     d="m 253.03,34.16 c -120.9,0 -218.91,98.01 -218.91,218.91 0,63.5 27.05,120.67 70.25,160.66 C 68.09,374.67 45.9,322.34 45.9,264.82 c 0,-120.9 98.01,-218.87 218.91,-218.87 57.46,0 109.73,22.14 148.78,58.34 C 373.61,61.17 316.47,34.17 253.03,34.17"
     id="path10" />
  <g
     style="fill-opacity:0.12900002;fill-rule:evenodd"
     id="g12">
    <path
       inkscape:connector-curvature="0"
       d="m 256,4.433 c -138.94,0 -251.57,112.63 -251.57,251.57 0,138.94 112.63,251.57 251.57,251.57 138.94,0 251.57,-112.63 251.57,-251.57 C 507.57,117.063 394.94,4.433 256,4.433 m 5.885,38.556 c 120.9,0 218.9,98 218.9,218.9 0,120.9 -98,218.9 -218.9,218.9 -120.9,0 -218.93,-98 -218.93,-218.9 0,-120.9 98.03,-218.9 218.93,-218.9"
       id="path14" />
    <path
       inkscape:connector-curvature="0"
       d="m 256,8.356 c -136.77,0 -247.64,110.87 -247.64,247.64 0,136.77 110.87,247.64 247.64,247.64 136.77,0 247.64,-110.87 247.64,-247.64 C 503.64,119.226 392.77,8.356 256,8.356 m 2.942,31.691 c 120.9,0 218.9,98 218.9,218.9 0,120.9 -98,218.9 -218.9,218.9 -120.9,0 -218.93,-98 -218.93,-218.9 0,-120.9 98.03,-218.9 218.93,-218.9"
       id="path16" />
  </g>
  <g
     style="fill:#ffffff;fill-rule:evenodd"
     id="g18">
    <path
       style="stroke:#000000;stroke-width:4.90399981;stroke-opacity:0.31000001"
       inkscape:connector-curvature="0"
       d="m 253.04,7.859 c -135.42,0 -245.19,109.78 -245.19,245.19 0,135.42 109.78,245.19 245.19,245.19 135.42,0 245.19,-109.78 245.19,-245.19 0,-135.42 -109.78,-245.19 -245.19,-245.19 z m 0,26.297 c 120.9,0 218.9,98 218.9,218.9 0,120.9 -98,218.9 -218.9,218.9 -120.9,0 -218.93,-98 -218.93,-218.9 0,-120.9 98.03,-218.9 218.93,-218.9 z"
       id="path20" />
    <path
       inkscape:connector-curvature="0"
       d="m 258.93,169.91 -100.81,100.81 -12.391,12.391 -3.153,3.153 -25.15,78.83 a 10.261,11.432 45 0 0 3.3012,11.354 10.261,11.432 45 0 0 9.2078,1.2435 l 79.939,-25.23 2.605,-2.605 12.04,-12.04 101.17,-101.17 -66.749,-66.749 m -66.616,134.21 a 2.8635,2.8635 0 0 1 0.97704,2.2798 l -1.11,23.878 4.367,4.367 a 2.8635,2.8635 0 0 1 -1.2879,4.7816 l -37.705,10.08 a 2.8635,2.8635 0 0 1 -2.7683,-0.72537 l -7.313,-7.313 a 2.8635,2.8635 0 0 1 -0.74017,-2.8127 l 10.999,-38.741 a 2.8635,2.8635 0 0 1 4.7816,-1.2583 l 5.877,5.877 21.894,-1.11 a 2.8635,2.8635 0 0 1 2.0281,0.69577"
       id="path22" />
    <path
       inkscape:connector-curvature="0"
       d="m 319.45,115.6 c -3.813,-0.084 -7.07,0.931 -9.38,3.166 l -0.118,0.118 -15.624,15.653 66.756,66.756 15.417,-15.446 0.237,-0.207 c 0.035,-0.035 0.054,-0.083 0.089,-0.118 7.256,-7.474 1.711,-24.831 -12.517,-39.06 l -15.15,-15.15 c -9.829,-9.829 -21.18,-15.525 -29.709,-15.712"
       id="path24" />
    <path
       inkscape:connector-curvature="0"
       d="m 285.67,143.18 66.757,66.757 -16.532,16.532 -66.757,-66.757 z"
       id="path26" />
  </g>
</svg>
