<?xml version="1.0" encoding="UTF-8" standalone="no"?>
<svg xmlns="http://www.w3.org/2000/svg" height="512" viewBox="0 0 512 512" width="512" version="1.1">
 <metadata id="metadata78"/>
 <path id="path4" d="m471.95 253.05c0 120.9-98.01 218.9-218.9 218.9-120.9 0-218.9-98.01-218.9-218.9 0-120.9 98.01-218.9 218.9-218.9 120.9 0 218.9 98.01 218.9 218.9" fill-rule="evenodd" fill="#BF9E73"/>
 <path id="path6" fill-opacity="0.235" d="m355.99 150.06c-1.26 0.05-2.456 0.276-3.571 0.567-0.85 0.222-1.652 0.485-2.369 0.768-1.22 0.131-2.582 0.692-3.871 1.835l-65.11 57.43c-3.88 3.433-7.05 10.582-5.707 15.585l2.036 7.542c-0.187-0.189-0.398-0.363-0.601-0.534-0.308-0.365-0.642-0.726-1-1.035-0.362-0.438-0.768-0.843-1.201-1.201-0.316-0.368-0.633-0.725-1-1.035-0.333-0.393-0.71-0.773-1.101-1.101-0.326-0.383-0.687-0.713-1.068-1.035-0.332-0.393-0.679-0.772-1.068-1.101-0.343-0.406-0.697-0.763-1.101-1.101-0.327-0.383-0.687-0.746-1.068-1.068-0.316-0.372-0.634-0.719-1-1.035-0.347-0.416-0.725-0.788-1.135-1.135-2.281-2.684-5.982-3.976-9.611-3l-36.476 9.778c-5.01 1.344-7.985 6.499-6.641 11.514l2.97 11.146c-0.027-0.027-0.072-0.04-0.1-0.067-0.082-0.095-0.183-0.174-0.267-0.267-0.09-0.084-0.175-0.184-0.267-0.267-0.172-0.182-0.352-0.357-0.534-0.534-0.158-0.183-0.332-0.355-0.501-0.534-0.018-0.016-0.049-0.017-0.067-0.033-0.327-0.345-0.642-0.678-1-1-0.345-0.367-0.687-0.725-1.068-1.068-0.342-0.363-0.69-0.728-1.068-1.068-0.342-0.363-0.69-0.728-1.068-1.068-0.172-0.182-0.353-0.357-0.534-0.534-0.082-0.095-0.183-0.174-0.267-0.267-0.09-0.084-0.175-0.184-0.267-0.267-0.172-0.182-0.352-0.357-0.534-0.534-0.158-0.183-0.332-0.355-0.501-0.534-0.018-0.016-0.049-0.017-0.067-0.033-0.162-0.17-0.331-0.335-0.501-0.501-0.158-0.183-0.332-0.355-0.501-0.534-0.018-0.016-0.049-0.017-0.067-0.033-0.327-0.345-0.642-0.678-1-1-0.342-0.363-0.69-0.728-1.068-1.068-0.342-0.363-0.69-0.728-1.068-1.068-2.638-2.798-6.426-4.973-9.711-5.64l-85.1-17.19c-1.696-0.35-3.145-0.171-4.272 0.334-0.762 0.114-1.59 0.268-2.436 0.501-5.927 1.627-13.06 6.641-9.311 21.759 6.02 24.274-7 26.18-0.4 50.826 6.604 24.647 18.839 19.78 25.764 43.818 1.652 5.737 3.939 9.379 6.474 11.614 0.351 0.378 0.706 0.749 1.068 1.068 0.347 0.374 0.71 0.752 1.068 1.068 0.347 0.374 0.71 0.752 1.068 1.068 0.275 0.296 0.553 0.575 0.834 0.834 0.419 0.471 0.833 0.885 1.268 1.268 0.261 0.282 0.501 0.552 0.768 0.801 0.439 0.499 0.911 0.932 1.368 1.335 0.347 0.374 0.71 0.752 1.068 1.068 0.347 0.374 0.71 0.752 1.068 1.068 0.275 0.296 0.553 0.575 0.834 0.834 0.419 0.471 0.833 0.885 1.268 1.268 0.358 0.388 0.699 0.742 1.068 1.068 0.356 0.385 0.701 0.745 1.068 1.068 0.347 0.374 0.71 0.752 1.068 1.068 0.347 0.374 0.71 0.752 1.068 1.068 0.275 0.296 0.553 0.575 0.834 0.834 0.419 0.471 0.833 0.885 1.268 1.268 0.358 0.388 0.699 0.742 1.068 1.068 0.358 0.388 0.699 0.742 1.068 1.068 0.347 0.374 0.71 0.752 1.068 1.068 0.347 0.374 0.71 0.752 1.068 1.068 0.347 0.374 0.71 0.752 1.068 1.068 0.347 0.374 0.676 0.719 1.035 1.035 0.358 0.388 0.699 0.742 1.068 1.068 0.358 0.388 0.699 0.742 1.068 1.068 0.351 0.378 0.706 0.749 1.068 1.068 0.347 0.374 0.71 0.752 1.068 1.068 0.347 0.374 0.71 0.752 1.068 1.068 0.275 0.296 0.553 0.575 0.834 0.834 0.419 0.471 0.833 0.885 1.268 1.268 0.261 0.282 0.501 0.552 0.768 0.801 0.439 0.499 0.911 0.932 1.368 1.335 0.347 0.374 0.71 0.752 1.068 1.068 0.347 0.374 0.71 0.752 1.068 1.068 0.275 0.296 0.553 0.575 0.834 0.834 0.419 0.471 0.833 0.885 1.268 1.268 0.358 0.388 0.699 0.742 1.068 1.068 0.356 0.385 0.701 0.745 1.068 1.068 0.347 0.374 0.71 0.752 1.068 1.068 0.347 0.374 0.71 0.752 1.068 1.068 0.347 0.374 0.71 0.752 1.068 1.068 0.347 0.374 0.676 0.719 1.035 1.035 0.358 0.388 0.699 0.742 1.068 1.068 0.358 0.388 0.699 0.742 1.068 1.068 0.351 0.378 0.706 0.749 1.068 1.068 0.347 0.374 0.71 0.752 1.068 1.068 0.347 0.374 0.71 0.752 1.068 1.068 0.275 0.296 0.553 0.575 0.834 0.834 0.419 0.471 0.833 0.885 1.268 1.268 0.358 0.388 0.699 0.742 1.068 1.068 0.351 0.378 0.706 0.749 1.068 1.068 0.347 0.374 0.71 0.752 1.068 1.068 0.347 0.374 0.71 0.752 1.068 1.068 0.275 0.296 0.553 0.575 0.834 0.834 0.419 0.471 0.833 0.885 1.268 1.268 0.358 0.388 0.699 0.742 1.068 1.068 0.356 0.385 0.701 0.745 1.068 1.068 0.347 0.374 0.71 0.752 1.068 1.068 0.347 0.374 0.71 0.752 1.068 1.068 0.275 0.296 0.553 0.575 0.834 0.834 0.419 0.471 0.833 0.885 1.268 1.268 0.358 0.388 0.699 0.742 1.068 1.068 0.358 0.388 0.699 0.742 1.068 1.068 0.347 0.374 0.71 0.752 1.068 1.068 0.347 0.374 0.71 0.752 1.068 1.068 0.347 0.374 0.71 0.752 1.068 1.068 0.347 0.374 0.676 0.719 1.035 1.035 0.358 0.388 0.699 0.742 1.068 1.068 0.358 0.388 0.699 0.742 1.068 1.068 0.351 0.378 0.706 0.749 1.068 1.068 0.347 0.374 0.71 0.752 1.068 1.068 0.347 0.374 0.71 0.752 1.068 1.068 0.275 0.296 0.553 0.575 0.834 0.834 0.419 0.471 0.833 0.885 1.268 1.268 0.261 0.282 0.501 0.552 0.768 0.801 0.439 0.499 0.911 0.932 1.368 1.335 0.347 0.374 0.71 0.752 1.068 1.068 0.347 0.374 0.71 0.752 1.068 1.068 0.275 0.296 0.553 0.575 0.834 0.834 0.419 0.471 0.833 0.885 1.268 1.268 0.358 0.388 0.699 0.742 1.068 1.068 0.356 0.385 0.701 0.745 1.068 1.068 0.347 0.374 0.71 0.752 1.068 1.068 0.347 0.374 0.71 0.752 1.068 1.068 0.347 0.374 0.71 0.752 1.068 1.068 0.347 0.374 0.676 0.719 1.035 1.035 0.358 0.388 0.699 0.742 1.068 1.068 0.358 0.388 0.699 0.742 1.068 1.068 0.347 0.374 0.71 0.752 1.068 1.068 0.347 0.374 0.71 0.752 1.068 1.068 0.347 0.374 0.71 0.752 1.068 1.068 0.275 0.296 0.553 0.575 0.834 0.834 0.419 0.471 0.833 0.885 1.268 1.268 0.358 0.388 0.699 0.742 1.068 1.068 0.351 0.378 0.706 0.749 1.068 1.068 0.347 0.374 0.71 0.752 1.068 1.068 0.347 0.374 0.71 0.752 1.068 1.068 0.275 0.296 0.553 0.575 0.834 0.834 0.419 0.471 0.833 0.885 1.268 1.268 0.358 0.388 0.699 0.742 1.068 1.068 0.356 0.385 0.701 0.745 1.068 1.068 0.347 0.374 0.71 0.752 1.068 1.068 0.347 0.374 0.71 0.752 1.068 1.068 0.275 0.296 0.553 0.575 0.834 0.834 0.419 0.471 0.833 0.885 1.268 1.268 0.358 0.388 0.699 0.742 1.068 1.068 0.356 0.385 0.701 0.745 1.068 1.068 0.347 0.374 0.71 0.752 1.068 1.068 0.347 0.374 0.71 0.752 1.068 1.068 0.347 0.374 0.71 0.752 1.068 1.068 0.347 0.374 0.676 0.719 1.035 1.035 0.358 0.388 0.699 0.742 1.068 1.068 0.358 0.388 0.699 0.742 1.068 1.068 0.351 0.378 0.706 0.749 1.068 1.068 0.347 0.374 0.71 0.752 1.068 1.068 0.347 0.374 0.71 0.752 1.068 1.068 0.275 0.296 0.553 0.575 0.834 0.834 0.419 0.471 0.833 0.885 1.268 1.268 0.261 0.282 0.501 0.552 0.768 0.801 0.439 0.499 0.911 0.932 1.368 1.335 0.347 0.374 0.71 0.752 1.068 1.068 0.347 0.374 0.71 0.752 1.068 1.068 0.275 0.296 0.553 0.575 0.834 0.834 0.419 0.471 0.833 0.885 1.268 1.268 0.358 0.388 0.699 0.742 1.068 1.068 0.322 0.349 0.639 0.669 0.968 0.968 114.13-8.211 205.56-98.35 215.79-211.92-0.339-0.382-0.676-0.689-1.035-0.968-0.369-0.433-0.742-0.762-1.135-1.068-0.383-0.449-0.76-0.857-1.168-1.168-0.34-0.388-0.709-0.721-1.068-1-0.36-0.423-0.752-0.77-1.135-1.068-0.355-0.417-0.724-0.774-1.101-1.068-0.369-0.438-0.774-0.798-1.168-1.101-0.37-0.434-0.741-0.802-1.135-1.101-0.354-0.416-0.725-0.744-1.101-1.035-0.404-0.481-0.801-0.886-1.235-1.201-0.332-0.38-0.682-0.699-1.035-0.968-0.407-0.484-0.797-0.888-1.235-1.201-0.322-0.368-0.66-0.673-1-0.934-0.406-0.487-0.798-0.922-1.235-1.235-0.33-0.377-0.684-0.704-1.035-0.968-0.398-0.475-0.806-0.863-1.235-1.168-0.233-0.268-0.457-0.525-0.701-0.734-0.192-0.201-0.406-0.377-0.601-0.567-0.384-0.433-0.775-0.851-1.168-1.235-0.391-0.442-0.768-0.877-1.168-1.268-0.351-0.395-0.709-0.78-1.068-1.135-0.411-0.469-0.846-0.89-1.268-1.302-0.436-0.493-0.853-0.972-1.302-1.402-0.322-0.357-0.64-0.712-0.968-1.035-0.399-0.454-0.825-0.869-1.235-1.268-0.401-0.454-0.79-0.903-1.201-1.302-0.431-0.485-0.859-0.947-1.302-1.368-0.309-0.342-0.619-0.692-0.934-1-0.44-0.502-0.882-0.967-1.335-1.402-0.336-0.375-0.658-0.765-1-1.101-0.424-0.483-0.866-0.916-1.302-1.335-0.368-0.413-0.725-0.836-1.101-1.201-0.397-0.449-0.794-0.875-1.201-1.268-0.216-0.243-0.448-0.475-0.667-0.701-0.068-0.082-0.132-0.154-0.2-0.234l-0.067-0.067c-0.513-0.597-1.037-1.135-1.568-1.635-0.174-0.192-0.358-0.386-0.534-0.567-0.068-0.082-0.132-0.153-0.2-0.234-0.057-0.057-0.11-0.111-0.167-0.167-0.259-0.297-0.537-0.563-0.801-0.834-0.067-0.081-0.133-0.154-0.2-0.234l-0.067-0.067c-0.443-0.514-0.911-0.995-1.368-1.435-0.394-0.446-0.763-0.88-1.168-1.268-0.237-0.268-0.493-0.521-0.734-0.768-0.549-0.659-1.131-1.227-1.702-1.769-0.224-0.25-0.44-0.503-0.667-0.734-0.058-0.07-0.108-0.132-0.167-0.2-0.051-0.051-0.115-0.083-0.167-0.133-0.278-0.319-0.55-0.613-0.834-0.901-0.057-0.068-0.11-0.133-0.167-0.2-0.051-0.051-0.115-0.084-0.167-0.133-0.282-0.322-0.58-0.643-0.868-0.934-0.058-0.07-0.108-0.132-0.167-0.2-0.053-0.052-0.114-0.083-0.167-0.133-0.277-0.317-0.551-0.615-0.834-0.901-0.058-0.069-0.109-0.133-0.167-0.2-0.029-0.029-0.071-0.038-0.1-0.067-0.442-0.51-0.879-1-1.335-1.435-0.419-0.47-0.837-0.931-1.268-1.335-0.218-0.242-0.446-0.477-0.667-0.701-0.057-0.068-0.109-0.133-0.167-0.2-0.035-0.034-0.065-0.066-0.1-0.1-0.292-0.335-0.602-0.667-0.901-0.968-0.058-0.069-0.109-0.133-0.167-0.2-0.035-0.034-0.065-0.066-0.1-0.1-0.433-0.496-0.888-0.946-1.335-1.368-0.257-0.288-0.506-0.573-0.768-0.834-0.047-0.056-0.086-0.112-0.133-0.167-0.057-0.056-0.109-0.112-0.167-0.167-0.279-0.317-0.583-0.616-0.868-0.901-0.057-0.068-0.109-0.133-0.167-0.2-0.053-0.052-0.113-0.083-0.167-0.133-0.284-0.321-0.578-0.646-0.868-0.934-0.048-0.057-0.085-0.111-0.133-0.167-0.046-0.045-0.087-0.089-0.133-0.133-0.295-0.336-0.599-0.634-0.901-0.934-0.047-0.056-0.086-0.112-0.133-0.167-0.035-0.034-0.065-0.067-0.1-0.1-0.306-0.351-0.621-0.689-0.934-1-0.047-0.056-0.086-0.112-0.133-0.167-0.053-0.051-0.114-0.083-0.167-0.133-0.29-0.33-0.604-0.64-0.901-0.934-0.048-0.056-0.086-0.111-0.133-0.167-0.053-0.051-0.114-0.083-0.167-0.133-0.294-0.333-0.567-0.671-0.868-0.968-0.38-0.45-0.776-0.847-1.168-1.235-0.048-0.056-0.086-0.112-0.133-0.167-0.047-0.046-0.086-0.089-0.133-0.133-0.303-0.343-0.624-0.663-0.934-0.968-0.038-0.044-0.063-0.09-0.1-0.133-0.041-0.04-0.092-0.061-0.133-0.1-0.311-0.355-0.616-0.687-0.934-1-0.383-0.453-0.772-0.879-1.168-1.268-0.387-0.457-0.802-0.843-1.201-1.235-0.038-0.044-0.062-0.09-0.1-0.133-0.035-0.034-0.065-0.067-0.1-0.1-0.324-0.369-0.636-0.71-0.968-1.035-0.38-0.448-0.775-0.85-1.168-1.235-0.332-0.391-0.693-0.726-1.035-1.068-0.436-0.526-0.882-0.995-1.335-1.435-0.383-0.45-0.773-0.85-1.168-1.235-0.037-0.043-0.063-0.091-0.1-0.133-0.053-0.051-0.114-0.084-0.167-0.133-0.248-0.279-0.514-0.549-0.768-0.801-0.435-0.523-0.883-0.999-1.335-1.435-0.386-0.452-0.769-0.883-1.168-1.268-0.385-0.45-0.77-0.852-1.168-1.235-0.385-0.45-0.804-0.886-1.201-1.268-0.383-0.448-0.772-0.854-1.168-1.235-0.329-0.384-0.662-0.734-1-1.068-0.439-0.526-0.912-0.999-1.368-1.435-0.027-0.031-0.04-0.069-0.067-0.1-0.036-0.033-0.065-0.067-0.1-0.1-0.334-0.377-0.658-0.741-1-1.068-0.337-0.392-0.687-0.729-1.035-1.068-0.432-0.514-0.885-1.01-1.335-1.435-0.388-0.451-0.766-0.854-1.168-1.235-0.339-0.393-0.685-0.729-1.035-1.068-0.435-0.517-0.883-1.01-1.335-1.435-0.332-0.385-0.658-0.736-1-1.068-0.394-0.469-0.793-0.875-1.201-1.268-0.438-0.518-0.879-1.01-1.335-1.435-0.34-0.393-0.684-0.731-1.035-1.068-0.35-0.413-0.706-0.782-1.068-1.135-0.468-0.563-0.946-1.081-1.435-1.535-0.392-0.451-0.762-0.859-1.168-1.235-0.295-0.339-0.598-0.639-0.901-0.934-0.475-0.574-0.971-1.109-1.468-1.569-0.335-0.384-0.655-0.739-1-1.068-0.391-0.462-0.795-0.85-1.201-1.235-0.394-0.464-0.792-0.917-1.201-1.302-0.38-0.446-0.773-0.829-1.168-1.201-3.205-3.767-6.965-4.841-10.379-4.706"/>
 <g id="g8" fill-rule="evenodd">
  <path id="path10" fill-opacity="0.067" d="m256 1c-140.83 0-255 114.17-255 255s114.17 255 255 255 255-114.17 255-255-114.17-255-255-255m8.827 44.931c120.9 0 218.9 98 218.9 218.9s-98 218.9-218.9 218.9-218.93-98-218.93-218.9 98.03-218.9 218.93-218.9"/>
  <g id="g12" fill-opacity="0.129">
   <path id="path14" d="m256 4.433c-138.94 0-251.57 112.63-251.57 251.57s112.63 251.57 251.57 251.57 251.57-112.63 251.57-251.57-112.63-251.57-251.57-251.57m5.885 38.556c120.9 0 218.9 98 218.9 218.9s-98 218.9-218.9 218.9-218.93-98-218.93-218.9 98.03-218.9 218.93-218.9"/>
   <path id="path16" d="m256 8.356c-136.77 0-247.64 110.87-247.64 247.64s110.87 247.64 247.64 247.64 247.64-110.87 247.64-247.64-110.87-247.64-247.64-247.64m2.942 31.691c120.9 0 218.9 98 218.9 218.9s-98 218.9-218.9 218.9-218.93-98-218.93-218.9 98.03-218.9 218.93-218.9"/>
  </g>
  <path id="path18" d="m253.04 7.859c-135.42 0-245.19 109.78-245.19 245.19 0 135.42 109.78 245.19 245.19 245.19 135.42 0 245.19-109.78 245.19-245.19 0-135.42-109.78-245.19-245.19-245.19zm0 26.297c120.9 0 218.9 98 218.9 218.9s-98 218.9-218.9 218.9-218.93-98-218.93-218.9 98.03-218.9 218.93-218.9z" stroke-opacity="0.31" stroke="#000" stroke-width="4.904" fill="#fff"/>
 </g>
 <g id="g66" transform="matrix(6.1008 -1.6347 1.6347 6.1008 46.707 119.9)" fill="#fff">
  <path id="path68" d="m28 23.815h-5.985c-0.822 0-1.489 0.667-1.489 1.489v5.984c0 0.823 0.667 1.489 1.489 1.489h5.985c0.822 0 1.489-0.666 1.489-1.489v-5.984c0-0.823-0.666-1.489-1.489-1.489"/>
  <path id="path70" d="m17.898 23.483-12.311-6.113c-0.245-0.123-0.48-0.157-0.673-0.126-0.97-0.11-2.655 0.105-2.707 2.923-0.074 3.959-2.141 3.717-2.141 7.757s2.067 3.796 2.141 7.756c0.056 3.02 1.995 3.052 2.909 2.896 0.132-0.004 0.275-0.029 0.432-0.092l12.3-4.851c0.762-0.305 1.559-1.222 1.559-2.041v-5.955c0-0.819-0.774-1.788-1.509-2.154"/>
  <path id="path72" d="m47.811 20.17c-0.052-2.817-1.737-3.03-2.707-2.923-0.192-0.03-0.428 0.004-0.672 0.126l-12.313 6.114c-0.734 0.366-1.509 1.334-1.509 2.154v5.955c0 0.819 0.796 1.736 1.559 2.041l12.3 4.851c0.157 0.063 0.3 0.088 0.434 0.092 0.913 0.156 2.853 0.129 2.908-2.896 0.073-3.96 2.141-3.717 2.141-7.756-0.001-4.04-2.068-3.799-2.141-7.758"/>
 </g>
</svg>
