<?xml version="1.0" encoding="UTF-8" standalone="no"?>
<svg
   xmlns:dc="http://purl.org/dc/elements/1.1/"
   xmlns:cc="http://creativecommons.org/ns#"
   xmlns:rdf="http://www.w3.org/1999/02/22-rdf-syntax-ns#"
   xmlns:svg="http://www.w3.org/2000/svg"
   xmlns="http://www.w3.org/2000/svg"
   xmlns:sodipodi="http://sodipodi.sourceforge.net/DTD/sodipodi-0.dtd"
   xmlns:inkscape="http://www.inkscape.org/namespaces/inkscape"
   sodipodi:docname="transmageddon.svg"
   inkscape:version="0.91 r13725"
   id="svg2"
   version="1.1"
   width="512"
   viewBox="0 0 512 512"
   height="512">
  <defs
     id="defs17">
    <linearGradient
       id="linearGradient3764"
       y1="47"
       x2="0"
       y2="1"
       gradientUnits="userSpaceOnUse">
      <stop
         stop-color="#ffb81f"
         stop-opacity="1"
         id="stop7" />
      <stop
         offset="1"
         stop-color="#ffbe33"
         stop-opacity="1"
         id="stop9" />
    </linearGradient>
  </defs>
  <sodipodi:namedview
     inkscape:current-layer="svg2"
     inkscape:window-maximized="1"
     inkscape:window-y="13"
     inkscape:window-x="0"
     inkscape:cy="415.05644"
     inkscape:cx="41.513443"
     inkscape:zoom="0.93498299"
     showgrid="false"
     id="namedview15"
     inkscape:window-height="1019"
     inkscape:window-width="1920"
     inkscape:pageshadow="2"
     inkscape:pageopacity="0"
     guidetolerance="10"
     gridtolerance="10"
     objecttolerance="10"
     borderopacity="1"
     bordercolor="#666666"
     pagecolor="#ffffff" />
  <metadata
     id="metadata28">
    <rdf:RDF>
      <cc:Work
         rdf:about="">
        <dc:format>image/svg+xml</dc:format>
        <dc:type
           rdf:resource="http://purl.org/dc/dcmitype/StillImage" />
        <dc:title></dc:title>
      </cc:Work>
    </rdf:RDF>
  </metadata>
  <path
     style="fill:#BF9E73;fill-rule:evenodd;fill-opacity:1"
     inkscape:connector-curvature="0"
     d="m 471.95,253.05 c 0,120.9 -98.01,218.9 -218.9,218.9 -120.9,0 -218.9,-98.01 -218.9,-218.9 0,-120.9 98.01,-218.9 218.9,-218.9 120.9,0 218.9,98.01 218.9,218.9"
     id="path6" />
  <path
     style="fill-opacity:0.06700003;fill-rule:evenodd"
     inkscape:connector-curvature="0"
     d="M 256,1 C 115.17,1 1,115.17 1,256 1,396.83 115.17,511 256,511 396.83,511 511,396.83 511,256 511,115.17 396.83,1 256,1 m 8.827,44.931 c 120.9,0 218.9,98 218.9,218.9 0,120.9 -98,218.9 -218.9,218.9 -120.9,0 -218.93,-98 -218.93,-218.9 0,-120.9 98.03,-218.9 218.93,-218.9"
     id="path8" />
  <g
     style="fill-opacity:0.12900002;fill-rule:evenodd"
     id="g10">
    <path
       inkscape:connector-curvature="0"
       d="m 256,4.433 c -138.94,0 -251.57,112.63 -251.57,251.57 0,138.94 112.63,251.57 251.57,251.57 138.94,0 251.57,-112.63 251.57,-251.57 C 507.57,117.063 394.94,4.433 256,4.433 m 5.885,38.556 c 120.9,0 218.9,98 218.9,218.9 0,120.9 -98,218.9 -218.9,218.9 -120.9,0 -218.93,-98 -218.93,-218.9 0,-120.9 98.03,-218.9 218.93,-218.9"
       id="path12" />
    <path
       inkscape:connector-curvature="0"
       d="m 256,8.356 c -136.77,0 -247.64,110.87 -247.64,247.64 0,136.77 110.87,247.64 247.64,247.64 136.77,0 247.64,-110.87 247.64,-247.64 C 503.64,119.226 392.77,8.356 256,8.356 m 2.942,31.691 c 120.9,0 218.9,98 218.9,218.9 0,120.9 -98,218.9 -218.9,218.9 -120.9,0 -218.93,-98 -218.93,-218.9 0,-120.9 98.03,-218.9 218.93,-218.9"
       id="path14" />
  </g>
  <path
     style="fill:#ffffff;fill-rule:evenodd;stroke:#000000;stroke-width:4.90399981;stroke-opacity:0.31000001"
     inkscape:connector-curvature="0"
     d="m 253.04,7.859 c -135.42,0 -245.19,109.78 -245.19,245.19 0,135.42 109.78,245.19 245.19,245.19 135.42,0 245.19,-109.78 245.19,-245.19 0,-135.42 -109.78,-245.19 -245.19,-245.19 z m 0,26.297 c 120.9,0 218.9,98 218.9,218.9 0,120.9 -98,218.9 -218.9,218.9 -120.9,0 -218.93,-98 -218.93,-218.9 0,-120.9 98.03,-218.9 218.93,-218.9 z"
     id="path16" />
  <g
     id="g33"
     transform="matrix(3.3648521,0,0,3.3648521,7.3029569,306.75366)" />
  <path
     sodipodi:nodetypes="cccccccc"
     d="m 336.61826,114.14715 -107.81204,93.7201 37.08295,28.75579 -29.56249,36.01764 -31.4407,-23.42108 c -33.28484,43.85985 -34.38047,141.11672 -34.38047,141.11672 l 118.31044,83.12118 c 64.28901,-5.07009 198.70639,-104.64142 182.20398,-246.10788"
     id="path4190-3"
     style="opacity:0.25"
     inkscape:connector-curvature="0" />
  <path
     style="fill:#ffffff;fill-opacity:1;fill-rule:nonzero;stroke:none"
     inkscape:connector-curvature="0"
     id="path53"
     d="m 251.44181,89.206682 c -24.13311,0.545597 -50.46132,8.031682 -79.30179,24.983218 l 56.70394,93.9694 c 18.74061,-10.70888 35.78095,-8.67876 52.33917,0 l 55.51125,-93.9694 C 310.2266,99.027397 282.47734,88.470751 251.44181,89.206682 m 3.17205,132.440278 c -16.60896,0 -30.13467,13.88098 -30.13467,30.93404 0,17.05306 13.52571,30.93404 30.13467,30.93404 16.60896,0 30.13467,-13.88098 30.13467,-30.93404 0,-17.05306 -13.52571,-30.93404 -30.13467,-30.93404 M 95.617017,245.04417 c -0.647123,64.58334 24.285353,113.10332 74.936963,145.52192 l 57.49062,-93.57611 c -17.59863,-12.63752 -23.34643,-28.89121 -23.00385,-47.97439 m 207.77063,-2.77873 -107.85041,3.97142 c -0.29177,22.05224 -10.21407,35.98396 -25.7699,46.38837 l 55.11789,97.14149 c 66.81652,-43.07673 78.75619,-94.46425 78.51511,-147.50128 m 0,0" />
</svg>
