<?xml version="1.0" encoding="UTF-8" standalone="no"?>
<svg xmlns="http://www.w3.org/2000/svg" viewBox="0 0 512 512">
 <g fill-rule="evenodd">
  <path d="m471.95 253.05c0 120.9-98.01 218.91-218.91 218.91s-218.91-98.01-218.91-218.91 98.01-218.91 218.91-218.91 218.91 98.01 218.91 218.91" fill="#BF9E73"/>
  <path d="m256 1c-140.83 0-255 114.17-255 255s114.17 255 255 255 255-114.17 255-255-114.17-255-255-255m8.827 44.931c120.9 0 218.9 98 218.9 218.9s-98 218.9-218.9 218.9-218.93-98-218.93-218.9 98.03-218.9 218.93-218.9" fill-opacity="0.067"/>
  <g fill-opacity="0.129">
   <path d="m256 4.43c-138.94 0-251.57 112.63-251.57 251.57s112.63 251.57 251.57 251.57 251.57-112.63 251.57-251.57-112.63-251.57-251.57-251.57m5.885 38.556c120.9 0 218.9 98 218.9 218.9s-98 218.9-218.9 218.9-218.93-98-218.93-218.9 98.03-218.9 218.93-218.9"/>
   <path d="m256 8.36c-136.77 0-247.64 110.87-247.64 247.64s110.87 247.64 247.64 247.64 247.64-110.87 247.64-247.64-110.87-247.64-247.64-247.64m2.942 31.691c120.9 0 218.9 98 218.9 218.9s-98 218.9-218.9 218.9-218.93-98-218.93-218.9 98.03-218.9 218.93-218.9"/>
  </g>
  <path stroke="#000" stroke-width="4.904" d="m253.04 7.86c-135.42 0-245.19 109.78-245.19 245.19 0 135.42 109.78 245.19 245.19 245.19 135.42 0 245.19-109.78 245.19-245.19 0-135.42-109.78-245.19-245.19-245.19m0 26.297c120.9 0 218.9 98 218.9 218.9s-98 218.9-218.9 218.9-218.93-98-218.93-218.9 98.03-218.9 218.93-218.9z" stroke-opacity="0.31" fill="#fff"/>
 </g>
 <text font-size="129.23" y="231.36" x="729.64" font-family="&apos;Gentium Book Basic&apos;" line-height="125%" word-spacing="0" letter-spacing="0"><tspan y="231.36" x="729.64"/>
 </text>
 <text transform="scale(4.0128.2492)" font-size="46.954" y="579.26" x="378.91" font-family="Arial" text-anchor="middle"/>
 <text font-size="129.23" y="151.36" x="1310.91" font-family="&apos;Gentium Book Basic&apos;" line-height="125%" word-spacing="0" letter-spacing="0"><tspan y="151.36" x="1310.91"/>
 </text>
 <text transform="scale(4.0128.2492)" font-size="46.954" y="258.22" x="523.76" font-family="Arial" text-anchor="middle"/>
 <text font-size="129.23" y="-29.9" x="239.33" font-family="&apos;Gentium Book Basic&apos;" line-height="125%" word-spacing="0" letter-spacing="0"><tspan y="-29.9" x="239.33"/>
 </text>
 <text transform="scale(4.0128.2492)" font-size="46.954" y="-469.13" x="256.72" font-family="Arial" text-anchor="middle"/>
 <text font-size="129.23" y="-246.37" x="1337.38" font-family="&apos;Gentium Book Basic&apos;" line-height="125%" word-spacing="0" letter-spacing="0"><tspan y="-246.37" x="1337.38"/>
 </text>
 <text transform="scale(4.0128.2492)" font-size="46.954" y="-1337.8" x="530.36" font-family="Arial" text-anchor="middle"/>
 <text font-size="129.23" y="-326.37" x="1918.65" font-family="&apos;Gentium Book Basic&apos;" line-height="125%" word-spacing="0" letter-spacing="0"><tspan y="-326.37" x="1918.65"/>
 </text>
 <text transform="scale(4.0128.2492)" font-size="46.954" y="-1658.83" x="675.21" font-family="Arial" text-anchor="middle"/>
 <text font-size="129.23" y="-798.77" x="1529.53" font-family="&apos;Gentium Book Basic&apos;" line-height="125%" word-spacing="0" letter-spacing="0"><tspan y="-798.77" x="1529.53"/>
 </text>
 <text transform="scale(4.0128.2492)" font-size="46.954" y="-3554.48" x="578.24" font-family="Arial" text-anchor="middle"/>
 <text font-size="129.23" y="-878.78" x="2110.79" font-family="&apos;Gentium Book Basic&apos;" line-height="125%" word-spacing="0" letter-spacing="0"><tspan y="-878.78" x="2110.79"/>
 </text>
 <text transform="scale(4.0128.2492)" font-size="46.954" y="-3875.52" x="723.09" font-family="Arial" text-anchor="middle"/>
 <text font-size="208.33" y="535.94" x="277.99" font-family="&apos;Gentium Book Basic&apos;" line-height="125%" word-spacing="0" letter-spacing="0"><tspan y="535.94" x="277.99"/>
 </text>
 <path opacity="0.25" d="m307.37 99.42c-0.435-0.002-1.077 0.002-1.926 0.002h-89.77c-10.01 0-18.454 5.644-23.316 13.605-4.476 7.258-15.456 26.28-24.863 42.691-7.265 12.679-4.753 28.333 5.129 38.21l116.72 116.72c-3.664 5.573-7.197 11.373-10.131 16.928l-105.82-105.82c-1.595-1.595-3.167-2.875-4.697-3.758-5.926-3.417-17.319-4.438-29.58-4.316-15.764 0.156-32.982 2.188-41.965 3.402-2.789 0.377-3.55 1.653-2.162 3.041l17.727 17.727-16.244 28.12c-4.748 8.06-5.134 18.334-0.141 26.998l44.896 77.76c0.789 1.369 1.21 2.12 1.318 2.229l98.69 98.69c3.911 0.208 7.849 0.32 11.813 0.32 120.9 0 218.91-98.01 218.91-218.91 0-7.405-0.374-14.723-1.092-21.939l-96.37-96.37c-0.549-0.549-1.683-0.437-3.242 0.469l-12.11 7.02-25.9-25.9c-4.585-4.585-10.52-7.655-16.957-8.664l-8.215-8.215c-0.024-0.024-0.254-0.033-0.689-0.035"/>
 <path d="m215.68 99.42c-10.01 0-18.454 5.644-23.316 13.605-4.476 7.258-15.458 26.28-24.865 42.692-8.677 15.14-3.407 34.525 11.705 43.25l12.245 7.06c15.12 8.725 34.441 3.532 43.16-11.588 15.572-26.979 37.854-65.58 43.654-75.56 5.979-10.298 15.792-17.14 27.21-18.977 3.451-0.556 3.473-0.493-0.023-0.493h-89.77m95.87 7.882c-10.972 0.013-21.12 6.03-26.507 15.576-0.022 0.018-8.946 15.392-17.921 31.03l18.11 31.362-19.681 11.02c-3.04 1.704-2.733 3.528 0.727 3.988 15.975 2.16 58 6.903 71.54-0.915 13.523-7.815 30.424-46.543 36.546-61.46 1.323-3.228-0.102-4.45-3.12-2.698l-19.469 11.283c0.013 0-9.735-17.04-13.629-23.786-5.51-9.474-15.645-15.443-26.6-15.411m56.09 100.19c-5.094 0.134-10.221 1.516-14.942 4.246l-12.01 6.92c-15.12 8.725-20.277 28.05-11.541 43.16l23.08 39.994c18.04 0 35.825 0.023 35.843 0.023 10.99 0.083 21.21-5.811 26.718-15.294 5.471-9.488 5.427-21.299-0.141-30.752 0-0.013-8.557-14.798-18.789-32.512-6-10.39-17.01-16.08-28.22-15.787m-228.52 6.193c-15.764 0.156-32.982 2.187-41.965 3.401-3.465 0.469-3.801 2.323-0.774 4.058l19.516 11.213-19.423 33.614c-4.748 8.06-5.134 18.335-0.141 26.999l44.897 77.76c1.744 3.03 1.686 3.03 0.446-0.235-4.139-10.968-3.201-23.41 2.838-33.684l38.09-65.962 19.493 11.33c3.02 1.753 4.447 0.53 3.12-2.698-6.11-14.915-22.993-53.671-36.523-61.48-5.926-3.417-17.318-4.437-29.579-4.316m170.04 70.68c-0.622 0.109-1.381 0.676-2.182 1.712-9.86 12.751-34.975 46.762-34.975 62.4 0 15.625 25.11 49.65 34.975 62.4 2.133 2.764 3.903 2.13 3.894-1.361l-0.047-22.472h38.822c9.361 0.066 18.474-4.726 23.481-13.394l44.874-77.78c1.744-3.03 1.767-2.984-0.446-0.281l0.023 0.023c-7.433 9.09-18.703 14.485-30.612 14.379 0 0-76.14-0.018-76.14 0l0.047-22.542c0.005-2.179-0.675-3.255-1.712-3.073m-140.18 26.436c-8.993 15.62-17.908 31.03-17.921 31.06-5.554 9.439-5.617 21.22-0.117 30.729 5.484 9.509 15.712 15.377 26.671 15.294h37.555c17.455 0 31.62-14.15 31.62-31.597v-13.887c0-17.451-14.14-31.597-31.597-31.597h-46.21" fill="#fff"/>
</svg>
