<?xml version="1.0" encoding="UTF-8" standalone="no"?>
<svg xmlns="http://www.w3.org/2000/svg" height="512" viewBox="0 0 512 512" width="512" version="1.1">
 <metadata id="metadata74"/>
 <g id="g4" transform="translate(0,-540.36)">
  <path id="path6" d="m471.95 793.41c0 120.9-98.01 218.9-218.9 218.9-120.9 0-218.9-98.01-218.9-218.9 0-120.9 98.01-218.9 218.9-218.9 120.9 0 218.9 98.01 218.9 218.9" fill-rule="evenodd" fill="#BF9E73"/>
  <path id="path8" d="m299.59 123.75c-24.362 0.417-82.965 43.21-98.25 55.22-16.58 13.03-80.44 67.06-77.5 88 0.552 3.925 3.682 8.312 8.531 12.906 0.399 0.397 0.793 0.787 1.219 1.188 0.267 0.263 0.503 0.517 0.781 0.781 0.147 0.146 0.287 0.291 0.438 0.438 0.087 0.094 0.161 0.187 0.25 0.281 0.104 0.099 0.207 0.182 0.313 0.281 0.147 0.146 0.287 0.291 0.438 0.438 0.087 0.094 0.161 0.187 0.25 0.281 0.104 0.099 0.207 0.182 0.313 0.281 0.184 0.182 0.342 0.379 0.531 0.563 0.051 0.054 0.105 0.102 0.156 0.156 0.098 0.094 0.182 0.187 0.281 0.281 0.336 0.333 0.646 0.664 1 1 0.336 0.333 0.646 0.664 1 1 0.429 0.426 0.853 0.852 1.313 1.281 0.235 0.23 0.444 0.457 0.688 0.688 0.147 0.146 0.287 0.291 0.438 0.438 0.087 0.094 0.161 0.187 0.25 0.281 0.104 0.099 0.207 0.182 0.313 0.281 0.185 0.184 0.341 0.378 0.531 0.563 0.051 0.054 0.105 0.102 0.156 0.156 0.099 0.095 0.181 0.186 0.281 0.281 0.336 0.333 0.646 0.664 1 1 0.336 0.333 0.646 0.664 1 1 0.429 0.426 0.853 0.852 1.313 1.281 0.235 0.23 0.444 0.457 0.688 0.688 0.147 0.146 0.287 0.291 0.438 0.438 0.087 0.094 0.161 0.187 0.25 0.281 0.104 0.099 0.207 0.182 0.313 0.281 0.185 0.184 0.341 0.378 0.531 0.563 0.051 0.054 0.105 0.102 0.156 0.156 0.099 0.095 0.181 0.186 0.281 0.281 0.336 0.333 0.646 0.664 1 1 0.336 0.333 0.646 0.664 1 1 0.399 0.397 0.793 0.787 1.219 1.188 0.267 0.263 0.503 0.517 0.781 0.781 0.147 0.146 0.287 0.291 0.438 0.438 0.087 0.094 0.161 0.187 0.25 0.281 0.104 0.099 0.207 0.182 0.313 0.281 0.201 0.199 0.386 0.394 0.594 0.594 0.036 0.039 0.057 0.086 0.094 0.125 0.099 0.095 0.181 0.186 0.281 0.281 0.336 0.333 0.646 0.664 1 1 0.336 0.333 0.646 0.664 1 1 0.336 0.333 0.646 0.664 1 1 0.429 0.426 0.853 0.852 1.313 1.281 0.043 0.042 0.082 0.083 0.125 0.125 0.087 0.094 0.161 0.187 0.25 0.281 0.104 0.099 0.207 0.182 0.313 0.281 0.147 0.146 0.287 0.291 0.438 0.438 0.087 0.094 0.161 0.187 0.25 0.281 0.104 0.099 0.207 0.182 0.313 0.281 0.184 0.182 0.342 0.379 0.531 0.563 0.051 0.054 0.105 0.102 0.156 0.156 0.098 0.094 0.182 0.187 0.281 0.281 0.336 0.333 0.646 0.664 1 1 0.336 0.333 0.646 0.664 1 1 0.429 0.426 0.853 0.852 1.313 1.281 0.235 0.23 0.444 0.457 0.688 0.688 0.147 0.146 0.287 0.291 0.438 0.438 0.087 0.094 0.161 0.187 0.25 0.281 0.104 0.099 0.207 0.182 0.313 0.281 0.185 0.184 0.341 0.378 0.531 0.563 0.051 0.054 0.105 0.102 0.156 0.156 0.099 0.095 0.181 0.186 0.281 0.281 0.336 0.333 0.646 0.664 1 1 0.336 0.333 0.646 0.664 1 1 0.399 0.397 0.793 0.787 1.219 1.188 0.267 0.263 0.503 0.517 0.781 0.781 0.147 0.146 0.287 0.291 0.438 0.438 0.087 0.094 0.161 0.187 0.25 0.281 0.104 0.099 0.207 0.182 0.313 0.281 0.201 0.199 0.386 0.394 0.594 0.594 0.036 0.039 0.057 0.086 0.094 0.125 0.099 0.095 0.181 0.186 0.281 0.281 0.336 0.333 0.646 0.664 1 1 0.336 0.333 0.646 0.664 1 1 0.399 0.397 0.793 0.787 1.219 1.188 0.267 0.263 0.503 0.517 0.781 0.781 0.147 0.146 0.287 0.291 0.438 0.438 0.087 0.094 0.161 0.187 0.25 0.281 0.104 0.099 0.207 0.182 0.313 0.281 0.147 0.146 0.287 0.291 0.438 0.438 0.087 0.094 0.161 0.187 0.25 0.281 0.104 0.099 0.207 0.182 0.313 0.281 0.184 0.182 0.342 0.379 0.531 0.563 0.051 0.054 0.105 0.102 0.156 0.156 0.098 0.094 0.182 0.187 0.281 0.281 0.336 0.333 0.646 0.664 1 1 0.336 0.333 0.646 0.664 1 1 0.429 0.426 0.853 0.852 1.313 1.281 0.235 0.23 0.444 0.457 0.688 0.688 0.147 0.146 0.287 0.291 0.438 0.438 0.087 0.094 0.161 0.187 0.25 0.281 0.104 0.099 0.207 0.182 0.313 0.281 0.185 0.184 0.341 0.378 0.531 0.563 0.051 0.054 0.105 0.102 0.156 0.156 0.099 0.095 0.181 0.186 0.281 0.281 0.336 0.333 0.646 0.664 1 1 0.336 0.333 0.646 0.664 1 1 0.429 0.426 0.853 0.852 1.313 1.281 0.235 0.23 0.444 0.457 0.688 0.688 0.147 0.146 0.287 0.291 0.438 0.438 0.087 0.094 0.161 0.187 0.25 0.281 0.104 0.099 0.207 0.182 0.313 0.281 0.185 0.184 0.341 0.378 0.531 0.563 0.051 0.054 0.105 0.102 0.156 0.156 0.099 0.095 0.181 0.186 0.281 0.281 0.336 0.333 0.646 0.664 1 1 0.336 0.333 0.646 0.664 1 1 0.399 0.397 0.793 0.787 1.219 1.188 0.267 0.263 0.503 0.517 0.781 0.781 0.147 0.146 0.287 0.291 0.438 0.438 0.087 0.094 0.161 0.187 0.25 0.281 0.104 0.099 0.207 0.182 0.313 0.281 0.201 0.199 0.386 0.394 0.594 0.594 0.036 0.039 0.057 0.086 0.094 0.125 0.099 0.095 0.181 0.186 0.281 0.281 0.336 0.333 0.646 0.664 1 1 0.336 0.333 0.646 0.664 1 1 0.336 0.333 0.646 0.664 1 1 0.429 0.426 0.853 0.852 1.313 1.281 0.043 0.042 0.082 0.083 0.125 0.125 0.087 0.094 0.161 0.187 0.25 0.281 0.104 0.099 0.207 0.182 0.313 0.281 0.147 0.146 0.287 0.291 0.438 0.438 0.087 0.094 0.161 0.187 0.25 0.281 0.104 0.099 0.207 0.182 0.313 0.281 0.184 0.182 0.342 0.379 0.531 0.563 0.051 0.054 0.105 0.102 0.156 0.156 0.098 0.094 0.182 0.187 0.281 0.281 0.336 0.333 0.646 0.664 1 1 0.336 0.333 0.646 0.664 1 1 0.429 0.426 0.853 0.852 1.313 1.281 0.235 0.23 0.444 0.457 0.688 0.688 0.147 0.146 0.287 0.291 0.438 0.438 0.087 0.094 0.161 0.187 0.25 0.281 0.104 0.099 0.207 0.182 0.313 0.281 0.185 0.184 0.341 0.378 0.531 0.563 0.051 0.054 0.105 0.102 0.156 0.156 0.099 0.095 0.181 0.186 0.281 0.281 0.336 0.333 0.646 0.664 1 1 0.336 0.333 0.646 0.664 1 1 0.399 0.397 0.793 0.787 1.219 1.188 0.267 0.263 0.503 0.517 0.781 0.781 0.147 0.146 0.287 0.291 0.438 0.438 0.087 0.094 0.161 0.187 0.25 0.281 0.104 0.099 0.207 0.182 0.313 0.281 0.201 0.199 0.386 0.394 0.594 0.594 0.036 0.039 0.057 0.086 0.094 0.125 0.099 0.095 0.181 0.186 0.281 0.281 0.336 0.333 0.646 0.664 1 1 0.336 0.333 0.646 0.664 1 1 0.399 0.397 0.793 0.787 1.219 1.188 0.267 0.263 0.503 0.517 0.781 0.781 0.147 0.146 0.287 0.291 0.438 0.438 0.087 0.094 0.161 0.187 0.25 0.281 0.104 0.099 0.207 0.182 0.313 0.281 0.201 0.199 0.386 0.394 0.594 0.594 0.036 0.039 0.057 0.086 0.094 0.125 0.099 0.095 0.181 0.186 0.281 0.281 0.336 0.333 0.646 0.664 1 1 0.336 0.333 0.646 0.664 1 1 0.336 0.333 0.646 0.664 1 1 0.429 0.426 0.853 0.852 1.313 1.281 0.235 0.23 0.444 0.457 0.688 0.688 0.147 0.146 0.287 0.291 0.438 0.438 0.087 0.094 0.161 0.187 0.25 0.281 0.104 0.099 0.207 0.182 0.313 0.281 0.185 0.184 0.341 0.378 0.531 0.563 0.051 0.054 0.105 0.102 0.156 0.156 0.099 0.095 0.181 0.186 0.281 0.281 0.336 0.333 0.646 0.664 1 1 0.336 0.333 0.646 0.664 1 1 0.429 0.426 0.853 0.852 1.313 1.281 0.235 0.23 0.444 0.457 0.688 0.688 0.147 0.146 0.287 0.291 0.438 0.438 0.087 0.094 0.161 0.187 0.25 0.281 0.104 0.099 0.207 0.182 0.313 0.281 0.185 0.184 0.341 0.378 0.531 0.563 0.051 0.054 0.105 0.102 0.156 0.156 0.099 0.095 0.181 0.186 0.281 0.281 0.336 0.333 0.646 0.664 1 1 0.336 0.333 0.646 0.664 1 1 0.399 0.397 0.793 0.787 1.219 1.188 0.267 0.263 0.503 0.517 0.781 0.781 0.147 0.146 0.287 0.291 0.438 0.438 0.087 0.094 0.161 0.187 0.25 0.281 0.104 0.099 0.207 0.182 0.313 0.281 0.201 0.199 0.386 0.394 0.594 0.594 0.036 0.039 0.057 0.086 0.094 0.125 0.099 0.095 0.181 0.186 0.281 0.281 0.336 0.333 0.646 0.664 1 1 0.336 0.333 0.646 0.664 1 1 0.399 0.397 0.793 0.787 1.219 1.188 0.267 0.263 0.503 0.517 0.781 0.781 0.147 0.146 0.287 0.291 0.438 0.438 0.087 0.094 0.161 0.187 0.25 0.281 0.104 0.099 0.207 0.182 0.313 0.281 0.147 0.146 0.287 0.291 0.438 0.438 0.087 0.094 0.161 0.187 0.25 0.281 0.104 0.099 0.207 0.182 0.313 0.281 0.184 0.182 0.342 0.379 0.531 0.563 0.051 0.054 0.105 0.102 0.156 0.156 0.098 0.094 0.182 0.187 0.281 0.281 0.336 0.333 0.646 0.664 1 1 0.336 0.333 0.646 0.664 1 1 0.429 0.426 0.853 0.852 1.313 1.281 0.235 0.23 0.444 0.457 0.688 0.688 0.147 0.146 0.287 0.291 0.438 0.438 0.087 0.094 0.161 0.187 0.25 0.281 0.104 0.099 0.207 0.182 0.313 0.281 0.185 0.184 0.341 0.378 0.531 0.563 0.051 0.054 0.105 0.102 0.156 0.156 0.099 0.095 0.181 0.186 0.281 0.281 0.336 0.333 0.646 0.664 1 1 0.336 0.333 0.646 0.664 1 1 0.429 0.426 0.853 0.852 1.313 1.281 0.235 0.23 0.444 0.457 0.688 0.688 0.147 0.146 0.287 0.291 0.438 0.438 0.087 0.094 0.161 0.187 0.25 0.281 0.104 0.099 0.207 0.182 0.313 0.281 0.201 0.199 0.386 0.394 0.594 0.594 0.036 0.039 0.057 0.086 0.094 0.125 0.099 0.095 0.181 0.186 0.281 0.281 0.336 0.333 0.646 0.664 1 1 0.336 0.333 0.646 0.664 1 1 0.399 0.397 0.793 0.787 1.219 1.188 0.267 0.263 0.503 0.517 0.781 0.781 0.147 0.146 0.287 0.291 0.438 0.438 0.087 0.094 0.161 0.187 0.25 0.281 0.104 0.099 0.207 0.182 0.313 0.281 0.201 0.199 0.386 0.394 0.594 0.594 0.036 0.039 0.057 0.086 0.094 0.125 0.099 0.095 0.181 0.186 0.281 0.281 0.336 0.333 0.646 0.664 1 1 0.336 0.333 0.646 0.664 1 1 0.336 0.333 0.646 0.664 1 1 0.429 0.426 0.853 0.852 1.313 1.281 0.235 0.23 0.444 0.457 0.688 0.688 0.147 0.146 0.287 0.291 0.438 0.438 0.087 0.094 0.161 0.187 0.25 0.281 0.104 0.099 0.207 0.182 0.313 0.281 0.185 0.184 0.341 0.378 0.531 0.563 0.051 0.054 0.105 0.102 0.156 0.156 0.099 0.095 0.181 0.186 0.281 0.281 0.336 0.333 0.646 0.664 1 1 0.336 0.333 0.646 0.664 1 1 0.429 0.426 0.853 0.852 1.313 1.281 0.235 0.23 0.444 0.457 0.688 0.688 0.147 0.146 0.287 0.291 0.438 0.438 0.087 0.094 0.161 0.187 0.25 0.281 0.104 0.099 0.207 0.182 0.313 0.281 0.185 0.184 0.341 0.378 0.531 0.563 0.051 0.054 0.105 0.102 0.156 0.156 0.099 0.095 0.181 0.186 0.281 0.281 0.336 0.333 0.646 0.664 1 1 0.336 0.333 0.646 0.664 1 1 0.399 0.397 0.793 0.787 1.219 1.188 0.267 0.263 0.503 0.517 0.781 0.781 0.147 0.146 0.287 0.291 0.438 0.438 0.087 0.094 0.161 0.187 0.25 0.281 0.104 0.099 0.207 0.182 0.313 0.281 0.201 0.199 0.386 0.394 0.594 0.594 0.036 0.039 0.057 0.086 0.094 0.125 0.099 0.095 0.181 0.186 0.281 0.281 0.336 0.333 0.646 0.664 1 1 0.336 0.333 0.646 0.664 1 1 0.399 0.397 0.793 0.787 1.219 1.188 0.267 0.263 0.503 0.517 0.781 0.781 0.147 0.146 0.287 0.291 0.438 0.438 0.087 0.094 0.161 0.187 0.25 0.281 0.104 0.099 0.207 0.182 0.313 0.281 0.147 0.146 0.287 0.291 0.438 0.438 0.087 0.094 0.161 0.187 0.25 0.281 0.104 0.099 0.207 0.182 0.313 0.281 0.184 0.182 0.342 0.379 0.531 0.563 0.051 0.054 0.105 0.102 0.156 0.156 0.098 0.094 0.182 0.187 0.281 0.281 0.336 0.333 0.646 0.664 1 1 0.336 0.333 0.646 0.664 1 1 0.429 0.426 0.853 0.852 1.313 1.281 0.235 0.23 0.444 0.457 0.688 0.688 0.147 0.146 0.287 0.291 0.438 0.438 0.087 0.094 0.161 0.187 0.25 0.281 0.104 0.099 0.207 0.182 0.313 0.281 0.185 0.184 0.341 0.378 0.531 0.563 0.051 0.054 0.105 0.102 0.156 0.156 0.099 0.095 0.181 0.186 0.281 0.281 0.336 0.333 0.646 0.664 1 1 0.336 0.333 0.646 0.664 1 1 0.429 0.426 0.853 0.852 1.313 1.281 0.235 0.23 0.444 0.457 0.688 0.688 0.147 0.146 0.287 0.291 0.438 0.438 0.087 0.094 0.161 0.187 0.25 0.281 0.104 0.099 0.207 0.182 0.313 0.281 0.185 0.184 0.341 0.378 0.531 0.563 0.051 0.054 0.105 0.102 0.156 0.156 0.099 0.095 0.181 0.186 0.281 0.281 0.336 0.333 0.646 0.664 1 1 0.336 0.333 0.646 0.664 1 1 0.399 0.397 0.793 0.787 1.219 1.188 0.267 0.263 0.503 0.517 0.781 0.781 0.147 0.146 0.287 0.291 0.438 0.438 0.087 0.094 0.161 0.187 0.25 0.281 0.104 0.099 0.207 0.182 0.313 0.281 0.201 0.199 0.386 0.394 0.594 0.594 0.036 0.039 0.057 0.086 0.094 0.125 0.099 0.095 0.181 0.186 0.281 0.281 0.336 0.333 0.646 0.664 1 1 0.336 0.333 0.646 0.664 1 1 0.336 0.333 0.646 0.664 1 1 0.315 0.313 0.643 0.623 0.969 0.938 79.78-23.688 140.55-91.61 153.81-175.34-0.145-0.147-0.288-0.306-0.438-0.438-0.338-0.344-0.659-0.698-1-1-0.073-0.074-0.146-0.147-0.219-0.219-0.442-0.494-0.895-0.953-1.344-1.375-0.211-0.225-0.444-0.416-0.656-0.625-0.122-0.136-0.253-0.244-0.375-0.375-0.128-0.12-0.246-0.261-0.375-0.375-0.083-0.085-0.166-0.167-0.25-0.25-0.122-0.136-0.253-0.244-0.375-0.375-0.128-0.12-0.246-0.261-0.375-0.375-0.338-0.345-0.658-0.698-1-1-0.338-0.344-0.659-0.698-1-1-0.073-0.074-0.146-0.147-0.219-0.219-0.442-0.494-0.895-0.953-1.344-1.375-0.211-0.225-0.444-0.416-0.656-0.625-0.122-0.136-0.253-0.244-0.375-0.375-0.128-0.12-0.246-0.261-0.375-0.375-0.083-0.085-0.166-0.167-0.25-0.25-0.122-0.136-0.253-0.244-0.375-0.375-0.128-0.12-0.246-0.261-0.375-0.375-0.338-0.345-0.658-0.698-1-1-0.338-0.344-0.659-0.698-1-1-0.073-0.074-0.146-0.147-0.219-0.219-0.421-0.47-0.854-0.908-1.281-1.313-0.486-0.524-0.975-1-1.469-1.438-0.083-0.085-0.166-0.167-0.25-0.25-0.122-0.136-0.253-0.244-0.375-0.375-0.128-0.12-0.246-0.261-0.375-0.375-0.338-0.345-0.658-0.698-1-1-0.338-0.344-0.659-0.698-1-1-0.181-0.184-0.35-0.359-0.531-0.531-0.326-0.351-0.64-0.688-0.969-1-0.349-0.376-0.71-0.731-1.063-1.063-0.211-0.225-0.444-0.416-0.656-0.625-0.122-0.136-0.253-0.244-0.375-0.375-0.128-0.12-0.246-0.261-0.375-0.375-0.083-0.085-0.166-0.167-0.25-0.25-0.122-0.136-0.253-0.244-0.375-0.375-0.128-0.12-0.246-0.261-0.375-0.375-0.338-0.345-0.658-0.698-1-1-0.338-0.344-0.659-0.698-1-1-0.073-0.074-0.146-0.147-0.219-0.219-0.442-0.494-0.895-0.953-1.344-1.375-0.211-0.225-0.444-0.416-0.656-0.625-0.122-0.136-0.253-0.244-0.375-0.375-0.128-0.12-0.246-0.261-0.375-0.375-0.083-0.085-0.166-0.167-0.25-0.25-0.122-0.136-0.253-0.244-0.375-0.375-0.128-0.12-0.246-0.261-0.375-0.375-0.338-0.345-0.658-0.698-1-1-0.338-0.344-0.659-0.698-1-1-0.073-0.074-0.146-0.147-0.219-0.219-0.421-0.47-0.854-0.907-1.281-1.313-0.486-0.524-0.975-1-1.469-1.438-0.083-0.085-0.166-0.167-0.25-0.25-0.122-0.136-0.253-0.244-0.375-0.375-0.128-0.12-0.246-0.261-0.375-0.375-0.338-0.345-0.658-0.698-1-1-0.338-0.344-0.659-0.698-1-1-0.181-0.184-0.35-0.359-0.531-0.531-0.326-0.351-0.64-0.688-0.969-1-0.349-0.376-0.71-0.731-1.063-1.063-0.211-0.225-0.444-0.416-0.656-0.625-0.122-0.136-0.253-0.244-0.375-0.375-0.128-0.12-0.246-0.261-0.375-0.375-0.338-0.345-0.658-0.698-1-1-0.338-0.344-0.659-0.698-1-1-0.338-0.344-0.659-0.698-1-1-0.073-0.074-0.146-0.147-0.219-0.219-0.442-0.494-0.895-0.953-1.344-1.375-0.211-0.225-0.444-0.416-0.656-0.625-0.122-0.136-0.253-0.244-0.375-0.375-0.128-0.12-0.246-0.261-0.375-0.375-0.083-0.085-0.166-0.167-0.25-0.25-0.122-0.136-0.253-0.244-0.375-0.375-0.128-0.12-0.246-0.261-0.375-0.375-0.338-0.345-0.658-0.698-1-1-0.338-0.344-0.659-0.698-1-1-0.073-0.074-0.146-0.147-0.219-0.219-0.442-0.494-0.895-0.953-1.344-1.375-0.211-0.225-0.444-0.416-0.656-0.625-0.122-0.136-0.253-0.244-0.375-0.375-0.128-0.12-0.246-0.261-0.375-0.375-0.083-0.085-0.166-0.167-0.25-0.25-0.122-0.136-0.253-0.244-0.375-0.375-0.128-0.12-0.246-0.261-0.375-0.375-0.338-0.345-0.658-0.698-1-1-0.338-0.344-0.659-0.698-1-1-0.073-0.074-0.146-0.147-0.219-0.219-0.421-0.47-0.854-0.907-1.281-1.313-0.486-0.524-0.975-1-1.469-1.438-0.083-0.085-0.166-0.167-0.25-0.25-0.122-0.136-0.253-0.244-0.375-0.375-0.128-0.12-0.246-0.261-0.375-0.375-0.338-0.345-0.658-0.698-1-1-0.338-0.344-0.659-0.698-1-1-0.181-0.184-0.35-0.359-0.531-0.531-0.326-0.351-0.64-0.688-0.969-1-0.349-0.376-0.71-0.731-1.063-1.063-0.211-0.225-0.444-0.416-0.656-0.625-0.122-0.136-0.253-0.244-0.375-0.375-0.128-0.12-0.246-0.261-0.375-0.375-0.083-0.085-0.166-0.167-0.25-0.25-0.122-0.136-0.253-0.244-0.375-0.375-0.128-0.12-0.246-0.261-0.375-0.375-0.338-0.345-0.658-0.698-1-1-0.338-0.344-0.659-0.698-1-1-0.073-0.074-0.146-0.147-0.219-0.219-0.442-0.494-0.895-0.953-1.344-1.375-0.211-0.225-0.444-0.416-0.656-0.625-0.122-0.136-0.253-0.244-0.375-0.375-0.128-0.12-0.246-0.261-0.375-0.375-0.083-0.085-0.166-0.167-0.25-0.25-0.122-0.136-0.253-0.244-0.375-0.375-0.128-0.12-0.246-0.261-0.375-0.375-0.338-0.345-0.658-0.698-1-1-0.338-0.344-0.659-0.698-1-1-0.073-0.074-0.146-0.147-0.219-0.219-0.421-0.47-0.854-0.908-1.281-1.313-0.486-0.524-0.975-1-1.469-1.438-0.083-0.085-0.166-0.167-0.25-0.25-0.122-0.136-0.253-0.244-0.375-0.375-0.128-0.12-0.246-0.261-0.375-0.375-0.338-0.345-0.658-0.698-1-1-0.338-0.344-0.659-0.698-1-1-0.181-0.184-0.35-0.359-0.531-0.531-0.326-0.351-0.64-0.688-0.969-1-0.349-0.376-0.71-0.731-1.063-1.063-0.211-0.225-0.444-0.416-0.656-0.625-0.122-0.136-0.253-0.244-0.375-0.375-0.128-0.12-0.246-0.261-0.375-0.375-0.338-0.345-0.658-0.698-1-1-0.338-0.344-0.659-0.698-1-1-0.338-0.344-0.659-0.698-1-1-0.073-0.074-0.146-0.147-0.219-0.219-0.442-0.494-0.895-0.953-1.344-1.375-0.211-0.225-0.444-0.416-0.656-0.625-0.122-0.136-0.253-0.244-0.375-0.375-0.128-0.12-0.246-0.261-0.375-0.375-0.083-0.085-0.166-0.167-0.25-0.25-0.122-0.136-0.253-0.244-0.375-0.375-0.128-0.12-0.246-0.261-0.375-0.375-0.338-0.345-0.658-0.698-1-1-0.338-0.344-0.659-0.698-1-1-0.073-0.074-0.146-0.147-0.219-0.219-0.442-0.494-0.895-0.953-1.344-1.375-0.211-0.225-0.444-0.416-0.656-0.625-0.122-0.136-0.253-0.244-0.375-0.375-0.128-0.12-0.246-0.261-0.375-0.375-0.083-0.085-0.166-0.167-0.25-0.25-0.122-0.136-0.253-0.244-0.375-0.375-0.128-0.12-0.246-0.261-0.375-0.375-0.338-0.345-0.658-0.698-1-1-0.338-0.344-0.659-0.698-1-1-0.073-0.074-0.146-0.147-0.219-0.219-0.421-0.47-0.854-0.908-1.281-1.313-0.349-0.376-0.71-0.731-1.063-1.063-0.211-0.225-0.444-0.416-0.656-0.625-0.122-0.136-0.253-0.244-0.375-0.375-0.128-0.12-0.246-0.261-0.375-0.375-0.338-0.345-0.658-0.698-1-1-0.338-0.344-0.659-0.698-1-1-0.181-0.184-0.35-0.359-0.531-0.531-0.326-0.351-0.64-0.688-0.969-1-0.349-0.376-0.71-0.731-1.063-1.063-0.211-0.225-0.444-0.416-0.656-0.625-0.122-0.136-0.253-0.244-0.375-0.375-0.128-0.12-0.246-0.261-0.375-0.375-0.083-0.085-0.166-0.167-0.25-0.25-0.122-0.136-0.253-0.244-0.375-0.375-0.128-0.12-0.246-0.261-0.375-0.375-0.338-0.345-0.658-0.698-1-1-0.338-0.344-0.659-0.698-1-1-0.073-0.074-0.146-0.147-0.219-0.219-0.442-0.494-0.895-0.953-1.344-1.375-0.211-0.225-0.444-0.416-0.656-0.625-0.122-0.136-0.253-0.244-0.375-0.375-0.128-0.12-0.246-0.261-0.375-0.375-0.083-0.085-0.166-0.167-0.25-0.25-0.122-0.136-0.253-0.244-0.375-0.375-0.128-0.12-0.246-0.261-0.375-0.375-0.338-0.345-0.658-0.698-1-1-0.338-0.344-0.659-0.698-1-1-0.073-0.074-0.146-0.147-0.219-0.219-0.421-0.47-0.854-0.908-1.281-1.313-0.486-0.524-0.975-1-1.469-1.438-0.083-0.085-0.166-0.167-0.25-0.25-0.122-0.136-0.253-0.244-0.375-0.375-0.128-0.12-0.246-0.261-0.375-0.375-0.338-0.345-0.658-0.698-1-1-0.338-0.344-0.659-0.698-1-1-0.181-0.184-0.35-0.359-0.531-0.531-0.326-0.351-0.64-0.688-0.969-1-0.349-0.376-0.71-0.731-1.063-1.063-0.211-0.225-0.444-0.416-0.656-0.625-0.122-0.136-0.253-0.244-0.375-0.375-0.128-0.12-0.246-0.261-0.375-0.375-0.338-0.345-0.658-0.698-1-1-0.338-0.344-0.659-0.698-1-1-0.338-0.344-0.659-0.698-1-1-0.073-0.074-0.146-0.147-0.219-0.219-0.442-0.494-0.895-0.953-1.344-1.375-0.211-0.225-0.444-0.416-0.656-0.625-0.122-0.136-0.253-0.244-0.375-0.375-0.128-0.12-0.246-0.261-0.375-0.375-0.083-0.085-0.166-0.167-0.25-0.25-0.122-0.136-0.253-0.244-0.375-0.375-0.128-0.12-0.246-0.261-0.375-0.375-0.338-0.345-0.658-0.698-1-1-0.338-0.344-0.659-0.698-1-1-0.073-0.074-0.146-0.147-0.219-0.219-0.442-0.494-0.895-0.953-1.344-1.375-0.211-0.225-0.444-0.416-0.656-0.625-0.122-0.136-0.253-0.244-0.375-0.375-0.128-0.12-0.246-0.261-0.375-0.375-0.083-0.085-0.166-0.167-0.25-0.25-0.122-0.136-0.253-0.244-0.375-0.375-0.128-0.12-0.246-0.261-0.375-0.375-0.338-0.345-0.658-0.698-1-1-0.338-0.344-0.659-0.698-1-1-0.073-0.074-0.146-0.147-0.219-0.219-0.421-0.47-0.854-0.908-1.281-1.313-0.349-0.376-0.71-0.731-1.063-1.063-0.211-0.225-0.444-0.416-0.656-0.625-0.122-0.136-0.253-0.244-0.375-0.375-0.128-0.12-0.246-0.261-0.375-0.375-0.338-0.345-0.658-0.698-1-1-0.338-0.344-0.659-0.698-1-1-0.181-0.184-0.35-0.359-0.531-0.531-0.326-0.351-0.64-0.688-0.969-1-0.349-0.376-0.71-0.731-1.063-1.063-0.211-0.225-0.444-0.416-0.656-0.625-0.122-0.136-0.253-0.244-0.375-0.375-0.128-0.12-0.246-0.261-0.375-0.375-0.083-0.085-0.166-0.167-0.25-0.25-0.122-0.136-0.253-0.244-0.375-0.375-0.128-0.12-0.246-0.261-0.375-0.375-0.338-0.345-0.658-0.698-1-1-0.338-0.344-0.659-0.698-1-1-0.073-0.074-0.146-0.147-0.219-0.219-0.443-0.494-0.895-0.953-1.344-1.375-1.628-1.742-3.324-2.996-5.03-3.688-1.525-0.618-3.342-0.91-5.406-0.875" fill-opacity="0.235" transform="translate(0,540.36)"/>
  <g id="g10" fill-rule="evenodd">
   <path id="path12" fill-opacity="0.067" d="m256 541.36c-140.83 0-255 114.17-255 255s114.17 255 255 255 255-114.17 255-255-114.17-255-255-255m8.827 44.931c120.9 0 218.9 98 218.9 218.9s-98 218.9-218.9 218.9-218.93-98-218.93-218.9 98.03-218.9 218.93-218.9"/>
   <g id="g14" fill-opacity="0.129">
    <path id="path16" d="m256 544.79c-138.94 0-251.57 112.63-251.57 251.57s112.63 251.54 251.57 251.54 251.57-112.6 251.57-251.54-112.63-251.57-251.57-251.57m5.885 38.556c120.9 0 218.9 98 218.9 218.9s-98 218.9-218.9 218.9-218.93-98-218.93-218.9 98.03-218.9 218.93-218.9"/>
    <path id="path18" d="m256 548.72c-136.77 0-247.64 110.87-247.64 247.64s110.87 247.64 247.64 247.64 247.64-110.87 247.64-247.64-110.87-247.64-247.64-247.64m2.942 31.691c120.9 0 218.9 98 218.9 218.9s-98 218.9-218.9 218.9-218.93-98-218.93-218.9 98.03-218.9 218.93-218.9"/>
   </g>
   <path id="path20" d="m253.04 548.22c-135.42 0-245.19 109.78-245.19 245.19 0 135.42 109.78 245.19 245.19 245.19 135.42 0 245.19-109.78 245.19-245.19 0-135.42-109.78-245.19-245.19-245.19zm0 26.297c120.9 0 218.9 98 218.9 218.9s-98 218.9-218.9 218.9-218.93-98-218.93-218.9 98.03-218.9 218.93-218.9z" stroke-opacity="0.31" stroke="#000" stroke-width="4.904" fill="#fff"/>
  </g>
  <path id="path68" d="m86.87 370.58c-24.02 24.66-157.47-4.132-190.83-12.604-33.366-8.472-164.39-46.827-173.73-79.959-9.347-33.13 82.31-134.31 106.33-158.97s122.75-118.95 156.11-110.48c33.366 8.472 75.16 138.44 84.5 171.57 9.347 33.13 41.64 165.78 17.621 190.44" fill="#fff" transform="matrix(.60598 .08247 -.08211 .60863 314.95 661.01)"/>
 </g>
</svg>
