<?xml version="1.0" encoding="UTF-8" standalone="no"?>
<svg xmlns="http://www.w3.org/2000/svg" viewBox="0 0 512 512">
 <g fill-rule="evenodd">
  <path d="m471.95 253.05c0 120.9-98.01 218.91-218.91 218.91s-218.91-98.01-218.91-218.91 98.01-218.91 218.91-218.91 218.91 98.01 218.91 218.91" fill="#BF9E73"/>
  <path d="m256 1c-140.83 0-255 114.17-255 255s114.17 255 255 255 255-114.17 255-255-114.17-255-255-255m8.827 44.931c120.9 0 218.9 98 218.9 218.9s-98 218.9-218.9 218.9-218.93-98-218.93-218.9 98.03-218.9 218.93-218.9" fill-opacity="0.067"/>
  <g fill-opacity="0.129">
   <path d="m256 4.43c-138.94 0-251.57 112.63-251.57 251.57s112.63 251.57 251.57 251.57 251.57-112.63 251.57-251.57-112.63-251.57-251.57-251.57m5.885 38.556c120.9 0 218.9 98 218.9 218.9s-98 218.9-218.9 218.9-218.93-98-218.93-218.9 98.03-218.9 218.93-218.9"/>
   <path d="m256 8.36c-136.77 0-247.64 110.87-247.64 247.64s110.87 247.64 247.64 247.64 247.64-110.87 247.64-247.64-110.87-247.64-247.64-247.64m2.942 31.691c120.9 0 218.9 98 218.9 218.9s-98 218.9-218.9 218.9-218.93-98-218.93-218.9 98.03-218.9 218.93-218.9"/>
  </g>
  <path stroke="#000" stroke-width="4.904" d="m253.04 7.86c-135.42 0-245.19 109.78-245.19 245.19 0 135.42 109.78 245.19 245.19 245.19 135.42 0 245.19-109.78 245.19-245.19 0-135.42-109.78-245.19-245.19-245.19m0 26.297c120.9 0 218.9 98 218.9 218.9s-98 218.9-218.9 218.9-218.93-98-218.93-218.9 98.03-218.9 218.93-218.9z" stroke-opacity="0.31" fill="#fff"/>
 </g>
 <text font-size="129.23" y="231.36" x="729.64" font-family="&apos;Gentium Book Basic&apos;" line-height="125%" word-spacing="0" letter-spacing="0"><tspan y="231.36" x="729.64"/>
 </text>
 <text transform="scale(4.0128.2492)" font-size="46.954" y="579.26" x="378.91" font-family="Arial" text-anchor="middle"/>
 <text font-size="129.23" y="151.36" x="1310.91" font-family="&apos;Gentium Book Basic&apos;" line-height="125%" word-spacing="0" letter-spacing="0"><tspan y="151.36" x="1310.91"/>
 </text>
 <text transform="scale(4.0128.2492)" font-size="46.954" y="258.22" x="523.76" font-family="Arial" text-anchor="middle"/>
 <text font-size="129.23" y="-29.9" x="239.33" font-family="&apos;Gentium Book Basic&apos;" line-height="125%" word-spacing="0" letter-spacing="0"><tspan y="-29.9" x="239.33"/>
 </text>
 <text transform="scale(4.0128.2492)" font-size="46.954" y="-469.13" x="256.72" font-family="Arial" text-anchor="middle"/>
 <text font-size="129.23" y="-246.37" x="1337.38" font-family="&apos;Gentium Book Basic&apos;" line-height="125%" word-spacing="0" letter-spacing="0"><tspan y="-246.37" x="1337.38"/>
 </text>
 <text transform="scale(4.0128.2492)" font-size="46.954" y="-1337.8" x="530.36" font-family="Arial" text-anchor="middle"/>
 <text font-size="129.23" y="-326.37" x="1918.65" font-family="&apos;Gentium Book Basic&apos;" line-height="125%" word-spacing="0" letter-spacing="0"><tspan y="-326.37" x="1918.65"/>
 </text>
 <text transform="scale(4.0128.2492)" font-size="46.954" y="-1658.83" x="675.21" font-family="Arial" text-anchor="middle"/>
 <text font-size="129.23" y="-798.77" x="1529.53" font-family="&apos;Gentium Book Basic&apos;" line-height="125%" word-spacing="0" letter-spacing="0"><tspan y="-798.77" x="1529.53"/>
 </text>
 <text transform="scale(4.0128.2492)" font-size="46.954" y="-3554.48" x="578.24" font-family="Arial" text-anchor="middle"/>
 <text font-size="129.23" y="-878.78" x="2110.79" font-family="&apos;Gentium Book Basic&apos;" line-height="125%" word-spacing="0" letter-spacing="0"><tspan y="-878.78" x="2110.79"/>
 </text>
 <text transform="scale(4.0128.2492)" font-size="46.954" y="-3875.52" x="723.09" font-family="Arial" text-anchor="middle"/>
 <text font-size="208.33" y="535.94" x="277.99" font-family="&apos;Gentium Book Basic&apos;" line-height="125%" word-spacing="0" letter-spacing="0"><tspan y="535.94" x="277.99"/>
 </text>
 <g fill-rule="evenodd">
  <path opacity="0.25" d="m208.99 95.99c-10.451 0-18.932 8.481-18.932 18.932 0 5.219 2.116 9.939 5.535 13.357l61.29 61.29c-0.295-0.014-0.585-0.045-0.883-0.045-10.451 0-18.932 8.481-18.932 18.932 0 0.469 0.037 0.928 0.07 1.389l-14.787-14.787c-0.859-0.859-1.802-1.635-2.813-2.316l-44.2-44.2c-3.427-3.427-8.159-5.547-13.385-5.547-10.451 0-18.904 8.481-18.904 18.932 0 5.225 2.113 9.951 5.533 13.371l94.01 94.01 0.016 0.016 14.787 14.787c-0.465-0.034-0.929-0.07-1.402-0.07-10.451 0-18.932 8.481-18.932 18.932 0 5.219 2.114 9.939 5.533 13.357l14.9 14.9c-0.497-0.039-0.995-0.076-1.502-0.076-0.327 0-0.67-0.016-0.992 0-9.998 0.507-17.939 8.782-17.939 18.906 0 5.225 2.12 9.958 5.547 13.385l14.787 14.787c-0.465-0.034-0.929-0.07-1.402-0.07-10.451 0-18.932 8.454-18.932 18.904 0 0.44 0.037 0.872 0.066 1.305l-14.783-14.783c-3.419-3.419-8.141-5.533-13.359-5.533-10.451 0-18.932 8.481-18.932 18.932 0 5.225 2.12 9.958 5.547 13.385l61.53 61.53c39.639-0.728 76.7-11.985 108.51-31.1l-90.74-90.74v-0.002c0-0.507-0.037-1.01-0.076-1.502l91.71 91.71c62.13-37.746 103.97-105.55 105.36-183.23l-155.5-155.5c-3.427-3.427-8.159-5.547-13.385-5.547-10.451 0-18.932 8.481-18.932 18.932 0 0.47 0.037 0.93 0.07 1.391l-14.789-14.789c-3.419-3.419-8.139-5.533-13.357-5.533-10.451 0-18.932 8.481-18.932 18.932 0 0.469 0.037 0.928 0.07 1.389l-14.787-14.787c-3.419-3.419-8.141-5.533-13.359-5.533"/>
  <path d="m208.99 95.99c-10.451 0-18.932 8.481-18.932 18.932s8.481 18.905 18.932 18.905 18.905-8.454 18.905-18.905-8.454-18.932-18.905-18.932m47.01 0c-10.451 0-18.932 8.481-18.932 18.932s8.481 18.905 18.932 18.905 18.905-8.454 18.905-18.905-8.454-18.932-18.905-18.932m47.01 0c-10.451 0-18.932 8.481-18.932 18.932s8.481 18.905 18.932 18.905 18.932-8.454 18.932-18.905-8.481-18.932-18.932-18.932m-141.05 47.01c-10.451 0-18.905 8.481-18.905 18.932s8.454 18.905 18.905 18.905 18.932-8.454 18.932-18.905-8.481-18.932-18.932-18.932m188.05 0c-10.451 0-18.905 8.481-18.905 18.932s8.454 18.905 18.905 18.905 18.932-8.454 18.932-18.905-8.481-18.932-18.932-18.932m-141.02 46.524c-10.451 0-18.932 8.481-18.932 18.932s8.481 18.932 18.932 18.932 18.905-8.481 18.905-18.932-8.454-18.932-18.905-18.932m47.01 0c-10.451 0-18.932 8.481-18.932 18.932s8.481 18.932 18.932 18.932 18.905-8.481 18.905-18.932-8.454-18.932-18.905-18.932m47.01 0c-10.451 0-18.932 8.481-18.932 18.932s8.481 18.932 18.932 18.932 18.932-8.481 18.932-18.932-8.481-18.932-18.932-18.932m-47.01 47.52c-10.451 0-18.932 8.454-18.932 18.905s8.481 18.932 18.932 18.932 18.905-8.481 18.905-18.932-8.454-18.905-18.905-18.905m0 47.01c-10.451 0-18.932 8.481-18.932 18.932s8.481 18.905 18.932 18.905 18.905-8.454 18.905-18.905-8.454-18.932-18.905-18.932m-0.992 47.11c-9.998 0.507-17.939 8.781-17.939 18.905 0 10.451 8.481 18.932 18.932 18.932s18.905-8.481 18.905-18.932-8.454-18.905-18.905-18.905c-0.327 0-0.67-0.016-0.992 0m-46.01 46.9c-10.451 0-18.932 8.481-18.932 18.932s8.481 18.932 18.932 18.932 18.905-8.481 18.905-18.932-8.454-18.932-18.905-18.932m47.01 0.107c-10.451 0-18.932 8.454-18.932 18.905s8.481 18.932 18.932 18.932 18.905-8.481 18.905-18.932-8.454-18.905-18.905-18.905" fill="#fff"/>
 </g>
</svg>
