<?xml version="1.0" encoding="UTF-8" standalone="no"?>
<svg xmlns="http://www.w3.org/2000/svg" viewBox="0 0 512 512">
 <path fill-rule="evenodd" d="m471.95 253.05c0 120.9-98.01 218.91-218.91 218.91s-218.91-98.01-218.91-218.91 98.01-218.91 218.91-218.91 218.91 98.01 218.91 218.91" fill="#BF9E73"/>
 <path opacity="0.25" d="m300.83 120.52c-86.42 1.212-148.25 104.08-199.03 166.8l14.602 14.602c-2.113-0.805-4.17-1.623-6.123-2.457l-10.158-10.158c-2.958 3.618-5.974 7.234-8.859 10.539l171.87 171.88c116.21-5.278 208.81-101.15 208.81-218.67 0-22.324-3.35-43.864-9.561-64.15l-46.535-46.535-38.646 2.748c-27.49-17.672-52.811-24.923-76.37-24.592"/>
 <g fill-rule="evenodd">
  <path d="m256 1c-140.83 0-255 114.17-255 255s114.17 255 255 255 255-114.17 255-255-114.17-255-255-255m8.827 44.931c120.9 0 218.9 98 218.9 218.9s-98 218.9-218.9 218.9-218.93-98-218.93-218.9 98.03-218.9 218.93-218.9" fill-opacity="0.067"/>
  <g fill-opacity="0.129">
   <path d="m256 4.43c-138.94 0-251.57 112.63-251.57 251.57s112.63 251.57 251.57 251.57 251.57-112.63 251.57-251.57-112.63-251.57-251.57-251.57m5.885 38.556c120.9 0 218.9 98 218.9 218.9s-98 218.9-218.9 218.9-218.93-98-218.93-218.9 98.03-218.9 218.93-218.9"/>
   <path d="m256 8.36c-136.77 0-247.64 110.87-247.64 247.64s110.87 247.64 247.64 247.64 247.64-110.87 247.64-247.64-110.87-247.64-247.64-247.64m2.942 31.691c120.9 0 218.9 98 218.9 218.9s-98 218.9-218.9 218.9-218.93-98-218.93-218.9 98.03-218.9 218.93-218.9"/>
  </g>
  <path stroke="#000" stroke-width="4.904" d="m253.04 7.86c-135.42 0-245.19 109.78-245.19 245.19 0 135.42 109.78 245.19 245.19 245.19 135.42 0 245.19-109.78 245.19-245.19 0-135.42-109.78-245.19-245.19-245.19m0 26.297c120.9 0 218.9 98 218.9 218.9s-98 218.9-218.9 218.9-218.93-98-218.93-218.9 98.03-218.9 218.93-218.9z" stroke-opacity="0.31" fill="#fff"/>
 </g>
 <text font-size="129.23" y="231.36" x="729.64" font-family="&apos;Gentium Book Basic&apos;" line-height="125%" word-spacing="0" letter-spacing="0"><tspan y="231.36" x="729.64"/>
 </text>
 <text transform="scale(4.0128.2492)" font-size="46.954" y="579.26" x="378.91" font-family="Arial" text-anchor="middle"/>
 <text font-size="129.23" y="151.36" x="1310.91" font-family="&apos;Gentium Book Basic&apos;" line-height="125%" word-spacing="0" letter-spacing="0"><tspan y="151.36" x="1310.91"/>
 </text>
 <text transform="scale(4.0128.2492)" font-size="46.954" y="258.22" x="523.76" font-family="Arial" text-anchor="middle"/>
 <text font-size="129.23" y="-29.9" x="239.33" font-family="&apos;Gentium Book Basic&apos;" line-height="125%" word-spacing="0" letter-spacing="0"><tspan y="-29.9" x="239.33"/>
 </text>
 <text transform="scale(4.0128.2492)" font-size="46.954" y="-469.13" x="256.72" font-family="Arial" text-anchor="middle"/>
 <text font-size="129.23" y="-246.37" x="1337.38" font-family="&apos;Gentium Book Basic&apos;" line-height="125%" word-spacing="0" letter-spacing="0"><tspan y="-246.37" x="1337.38"/>
 </text>
 <text transform="scale(4.0128.2492)" font-size="46.954" y="-1337.8" x="530.36" font-family="Arial" text-anchor="middle"/>
 <text font-size="129.23" y="-326.37" x="1918.65" font-family="&apos;Gentium Book Basic&apos;" line-height="125%" word-spacing="0" letter-spacing="0"><tspan y="-326.37" x="1918.65"/>
 </text>
 <text transform="scale(4.0128.2492)" font-size="46.954" y="-1658.83" x="675.21" font-family="Arial" text-anchor="middle"/>
 <text font-size="129.23" y="-798.77" x="1529.53" font-family="&apos;Gentium Book Basic&apos;" line-height="125%" word-spacing="0" letter-spacing="0"><tspan y="-798.77" x="1529.53"/>
 </text>
 <text transform="scale(4.0128.2492)" font-size="46.954" y="-3554.48" x="578.24" font-family="Arial" text-anchor="middle"/>
 <text font-size="129.23" y="-878.78" x="2110.79" font-family="&apos;Gentium Book Basic&apos;" line-height="125%" word-spacing="0" letter-spacing="0"><tspan y="-878.78" x="2110.79"/>
 </text>
 <text transform="scale(4.0128.2492)" font-size="46.954" y="-3875.52" x="723.09" font-family="Arial" text-anchor="middle"/>
 <text font-size="208.33" y="535.94" x="277.99" font-family="&apos;Gentium Book Basic&apos;" line-height="125%" word-spacing="0" letter-spacing="0"><tspan y="535.94" x="277.99"/>
 </text>
 <path d="m300.83 120.52c-86.42 1.212-148.25 104.08-199.03 166.8 17.763 9.794 49.946 20.467 86.15 20.467 23.671 0 49.01-4.542 73.47-16.648 29.851-14.771 44.76-41.832 44.755-66.29-0.006-14.03-4.849-27.21-14.511-36.81-9.673-9.585-24.22-15.886-44.45-15.886-6.743 0-14.175 0.757-22.15 2.291l-1.375-7.03c8.376-1.617 16.278-2.444 23.523-2.444 21.707 0 38.34 6.943 49.49 18.02 11.151 11.08 16.655 26.18 16.649 41.852-0.006 27.336-16.552 56.784-48.726 72.71-25.608 12.674-52.11 17.413-76.68 17.413-37.945 0-71.23-11.05-90.12-21.537l2.291-4.125c-2.958 3.618-5.974 7.236-8.859 10.54 32.753 20.486 64.63 33.988 94.55 41.39 12.921 3.197 25.443 5.247 37.576 6.263l7.943 43.992 7.03-1.222-7.637-42.31c6.173 0.308 12.254 0.238 18.18 0l7.943 43.532 7.03-1.222-7.637-42.616c78.5-6.175 132.48-59.933 135.49-134.72 0.386-9.562-0.073-19.452-1.375-29.632l30.396-15.733-33.451-2.139 28.563-23.06-38.645 2.749c-27.49-17.672-52.811-24.923-76.37-24.593m28.26 31.924c2.207 0 4.182 0.625 6.263 1.68 2.08 1.062 4.241 2.622 6.415 4.431 4.342 3.62 8.917 8.638 13.442 14.664l-5.652 4.277c-6.351-8.503-13.04-14.76-17.413-16.955-1.435-0.739-2.531-0.927-3.055-0.927h-0.458l-0.305 0.308c-0.331 0.449-0.933 2.032-0.916 4.582-0.011 3.829 1.01 9.785 3.513 18.02l-6.721 2.137c-2.615-8.646-3.961-15.15-3.971-20.16 0.006-2.505 0.324-4.659 1.069-6.568 0.723-1.893 2.134-3.635 3.971-4.582 1.214-0.642 2.538-0.909 3.818-0.909m-62.47 29.48l-1.833 16.04c-46.44 17.06-77.16 57.21-87.68 92.56l-15.886 2.749 2.138-6.874c11.693-39.33 43.917-82.61 96.38-101.88l6.874-2.597" fill="#fff"/>
</svg>
