<?xml version="1.0" encoding="UTF-8" standalone="no"?>
<svg xmlns="http://www.w3.org/2000/svg" viewBox="0 0 512 512">
 <path fill-rule="evenodd" d="m471.95 253.05c0 120.9-98.01 218.91-218.91 218.91s-218.91-98.01-218.91-218.91 98.01-218.91 218.91-218.91 218.91 98.01 218.91 218.91" fill="#BF9E73"/>
 <path opacity="0.25" d="m131.73 133.93c-8.389 0-15.15 6.765-15.15 15.15v185.16c0 4.194 1.69 7.983 4.43 10.723l126.92 126.92c1.699 0.039 3.403 0.064 5.111 0.064 120.9 0 218.91-98.01 218.91-218.91 0-12.554-1.07-24.857-3.1-36.834l-77.854-77.854c-2.74-2.74-6.528-4.432-10.723-4.432l15.15 15.15v68.192l-49.828-49.828c-7.513 4.458-15.836 7.689-24.691 9.436l-0.883-0.883c-7.04-7.04-16.78-11.406-27.516-11.414l-0.031-0.031c-21.489 0-38.904 17.443-38.904 38.934 0 3.047 0.338 6.02 1 8.867-24.339-1.221-46.6-10.314-64.31-24.771l-15.904-15.904c-0.607 1.041-1.148 2.123-1.658 3.223l-40.969-40.969"/>
 <g fill-rule="evenodd">
  <path d="m256 1c-140.83 0-255 114.17-255 255s114.17 255 255 255 255-114.17 255-255-114.17-255-255-255m8.827 44.931c120.9 0 218.9 98 218.9 218.9s-98 218.9-218.9 218.9-218.93-98-218.93-218.9 98.03-218.9 218.93-218.9" fill-opacity="0.067"/>
  <g fill-opacity="0.129">
   <path d="m256 4.43c-138.94 0-251.57 112.63-251.57 251.57s112.63 251.57 251.57 251.57 251.57-112.63 251.57-251.57-112.63-251.57-251.57-251.57m5.885 38.556c120.9 0 218.9 98 218.9 218.9s-98 218.9-218.9 218.9-218.93-98-218.93-218.9 98.03-218.9 218.93-218.9"/>
   <path d="m256 8.36c-136.77 0-247.64 110.87-247.64 247.64s110.87 247.64 247.64 247.64 247.64-110.87 247.64-247.64-110.87-247.64-247.64-247.64m2.942 31.691c120.9 0 218.9 98 218.9 218.9s-98 218.9-218.9 218.9-218.93-98-218.93-218.9 98.03-218.9 218.93-218.9"/>
  </g>
  <path stroke="#000" stroke-width="4.904" d="m253.04 7.86c-135.42 0-245.19 109.78-245.19 245.19 0 135.42 109.78 245.19 245.19 245.19 135.42 0 245.19-109.78 245.19-245.19 0-135.42-109.78-245.19-245.19-245.19m0 26.297c120.9 0 218.9 98 218.9 218.9s-98 218.9-218.9 218.9-218.93-98-218.93-218.9 98.03-218.9 218.93-218.9z" stroke-opacity="0.31" fill="#fff"/>
 </g>
 <text font-size="129.23" y="231.36" x="729.64" font-family="&apos;Gentium Book Basic&apos;" line-height="125%" word-spacing="0" letter-spacing="0"><tspan y="231.36" x="729.64"/>
 </text>
 <text transform="scale(4.0128.2492)" font-size="46.954" y="579.26" x="378.91" font-family="Arial" text-anchor="middle"/>
 <text font-size="129.23" y="151.36" x="1310.91" font-family="&apos;Gentium Book Basic&apos;" line-height="125%" word-spacing="0" letter-spacing="0"><tspan y="151.36" x="1310.91"/>
 </text>
 <text transform="scale(4.0128.2492)" font-size="46.954" y="258.22" x="523.76" font-family="Arial" text-anchor="middle"/>
 <text font-size="129.23" y="-29.9" x="239.33" font-family="&apos;Gentium Book Basic&apos;" line-height="125%" word-spacing="0" letter-spacing="0"><tspan y="-29.9" x="239.33"/>
 </text>
 <text transform="scale(4.0128.2492)" font-size="46.954" y="-469.13" x="256.72" font-family="Arial" text-anchor="middle"/>
 <text font-size="129.23" y="-246.37" x="1337.38" font-family="&apos;Gentium Book Basic&apos;" line-height="125%" word-spacing="0" letter-spacing="0"><tspan y="-246.37" x="1337.38"/>
 </text>
 <text transform="scale(4.0128.2492)" font-size="46.954" y="-1337.8" x="530.36" font-family="Arial" text-anchor="middle"/>
 <text font-size="129.23" y="-326.37" x="1918.65" font-family="&apos;Gentium Book Basic&apos;" line-height="125%" word-spacing="0" letter-spacing="0"><tspan y="-326.37" x="1918.65"/>
 </text>
 <text transform="scale(4.0128.2492)" font-size="46.954" y="-1658.83" x="675.21" font-family="Arial" text-anchor="middle"/>
 <text font-size="129.23" y="-798.77" x="1529.53" font-family="&apos;Gentium Book Basic&apos;" line-height="125%" word-spacing="0" letter-spacing="0"><tspan y="-798.77" x="1529.53"/>
 </text>
 <text transform="scale(4.0128.2492)" font-size="46.954" y="-3554.48" x="578.24" font-family="Arial" text-anchor="middle"/>
 <text font-size="129.23" y="-878.78" x="2110.79" font-family="&apos;Gentium Book Basic&apos;" line-height="125%" word-spacing="0" letter-spacing="0"><tspan y="-878.78" x="2110.79"/>
 </text>
 <text transform="scale(4.0128.2492)" font-size="46.954" y="-3875.52" x="723.09" font-family="Arial" text-anchor="middle"/>
 <text font-size="208.33" y="535.94" x="277.99" font-family="&apos;Gentium Book Basic&apos;" line-height="125%" word-spacing="0" letter-spacing="0"><tspan y="535.94" x="277.99"/>
 </text>
 <path d="m131.73 133.93c-8.389 0-15.15 6.765-15.15 15.15v185.17c0 8.389 6.765 15.15 15.15 15.15h76.97l25.692 31.686 25.692 31.686 25.71-31.686 25.692-31.686h68.783c8.389 0 15.15-6.765 15.15-15.15v-185.17c0-8.389-6.765-15.15-15.15-15.15zm160.74 30.653c11.192 0 21.309 4.74 28.406 12.302 8.864-1.745 17.196-4.979 24.716-9.441-2.906 9.09-9.07 16.726-17.11 21.541 7.87-0.937 15.363-3.054 22.341-6.15-5.217 7.8-11.82 14.651-19.424 20.14 0.072 1.67 0.114 3.349 0.114 5.04 0 51.42-39.13 110.73-110.71 110.73-21.975 0-42.42-6.468-59.64-17.507 3.044 0.353 6.127 0.543 9.268 0.543 18.232 0 35.03-6.24 48.34-16.677-17.03-0.308-31.407-11.544-36.36-27 2.376 0.471 4.816 0.688 7.323 0.688 3.549 0 6.976-0.444 10.241-1.347-17.801-3.577-31.21-19.309-31.21-38.16 0-0.163-0.004-0.353 0-0.516 5.246 2.914 11.243 4.687 17.621 4.892-10.442-6.976-17.307-18.908-17.307-32.409 0-7.132 1.914-13.821 5.264-19.567 19.19 23.543 47.872 39.05 80.21 40.677-0.664-2.849-1-5.82-1-8.867 0-21.491 17.415-38.934 38.904-38.934z" fill="#fff"/>
</svg>
