<?xml version="1.0" encoding="UTF-8" standalone="no"?>
<svg xmlns="http://www.w3.org/2000/svg" height="512" viewBox="0 0 512 512" width="512" version="1.1">
 <metadata id="metadata72"/>
 <path id="path4" d="m471.95 253.05c0 120.9-98.01 218.9-218.9 218.9-120.9 0-218.9-98.01-218.9-218.9 0-120.9 98.01-218.9 218.9-218.9 120.9 0 218.9 98.01 218.9 218.9" fill-rule="evenodd" fill="#BF9E73"/>
 <path id="path6" fill-opacity="0.235" d="m305.44 149.75c-0.718-0.004-1.439 0.014-2.156 0.031-5.738 0.142-11.359 1-15.531 2.5-22.678 8.448-36.997 30.19-35.37 54l0.531 9.219-9.06-1.156c-30.874-4.04-58.1-17.1-81.53-38.875-0.118-0.121-0.873-0.873-0.875-0.875-0.549-0.559-1.995-1.995-2-2-0.536-0.546-1.964-1.964-1.969-1.969-0.153-0.156-0.997-0.997-1-1-0.551-0.562-1.995-1.995-2-2-0.549-0.559-1.995-1.995-2-2-0.146-0.149-0.969-1-0.969-1-0.548-0.558-2-2-2-2-0.151-0.153-1-1-1-1l-1-1-1.969-1.969-3.094 9c-6.539 20.05-2.351 41.28 11.25 55.53 7.245 7.854 5.623 8.978-6.906 4.281-4.342-1.484-8.165-2.629-8.531-2.063-1.256 1.323 3.078 18.377 6.531 25.13 2.354 4.697 5.941 9.35 10.25 13.5 0.329 0.331 0.662 0.675 1 1 0.329 0.331 0.662 0.675 1 1 0.329 0.331 0.662 0.675 1 1 0.131 0.138 0.274 0.269 0.406 0.406 0.191 0.189 0.369 0.376 0.563 0.563 0.01 0.011 0.021 0.021 0.031 0.031 0.127 0.134 0.246 0.273 0.375 0.406 0.196 0.194 0.394 0.371 0.594 0.563 0.133 0.141 0.271 0.266 0.406 0.406 0.199 0.197 0.391 0.399 0.594 0.594 0.133 0.141 0.271 0.266 0.406 0.406 0.197 0.195 0.393 0.401 0.594 0.594 0.329 0.331 0.662 0.675 1 1 0.329 0.331 0.662 0.675 1 1 0.131 0.138 0.274 0.269 0.406 0.406 0.324 0.321 0.636 0.654 0.969 0.969 0.005 0.006-0.005 0.026 0 0.031 0.196 0.194 0.394 0.371 0.594 0.563l0.031 0.031c0.127 0.134 0.246 0.273 0.375 0.406 0.194 0.192 0.396 0.372 0.594 0.563 0.133 0.141 0.271 0.266 0.406 0.406 0.199 0.197 0.391 0.399 0.594 0.594 0.329 0.331 0.662 0.675 1 1 0.329 0.331 0.662 0.675 1 1l-1.969 0.094c-10.175 0-10.51 0.184-9.438 4.125 1.652 5.543 5.532 11.22 10.75 16.313 0.327 0.335 0.661 0.67 1 1 0.277 0.284 0.558 0.563 0.844 0.844 0.428 0.443 0.864 0.878 1.313 1.313 0.17 0.173 0.358 0.328 0.531 0.5 0.421 0.438 0.841 0.883 1.281 1.313 0.327 0.335 0.661 0.67 1 1 0.327 0.335 0.661 0.67 1 1 0.277 0.284 0.558 0.563 0.844 0.844 0.428 0.443 0.864 0.878 1.313 1.313 0.17 0.173 0.358 0.328 0.531 0.5 0.421 0.438 0.841 0.883 1.281 1.313 0.327 0.335 0.661 0.67 1 1 0.327 0.335 0.661 0.67 1 1 0.277 0.284 0.558 0.563 0.844 0.844 0.428 0.443 0.864 0.878 1.313 1.313 0.17 0.173 0.358 0.328 0.531 0.5 0.421 0.438 0.841 0.883 1.281 1.313 0.327 0.335 0.661 0.67 1 1 0.327 0.335 0.661 0.67 1 1 0.327 0.335 0.661 0.67 1 1 0.333 0.342 0.686 0.663 1.031 1 0.222 0.227 0.429 0.463 0.656 0.688 0.398 0.414 0.803 0.812 1.219 1.219 0.331 0.341 0.656 0.695 1 1.031 0.215 0.221 0.436 0.437 0.656 0.656-14.475 8.566-31.459 13.374-48.44 13.75-8.161 0.187-14.906 0.964-14.906 1.531 0 0.237 0.382 0.609 1.031 1.094 0.086 0.241 0.424 0.604 1 1.031 0.103 0.242 0.466 0.583 1.031 1 0.118 0.236 0.439 0.576 0.969 0.969 0.096 0.238 0.444 0.556 1 0.969 0.077 0.239 0.42 0.569 1 1 0.08 0.237 0.405 0.579 0.969 1 0.085 0.236 0.441 0.583 1 1 0.087 0.243 0.444 0.598 1.031 1.031 0.118 0.236 0.439 0.576 0.969 0.969 0.096 0.238 0.444 0.556 1 0.969 0.077 0.239 0.42 0.569 1 1 0.076 0.237 0.4 0.575 0.969 1 0.085 0.236 0.441 0.583 1 1 0.086 0.241 0.424 0.604 1 1.031 0.102 0.239 0.445 0.558 1 0.969 0.096 0.238 0.444 0.556 1 0.969 0.077 0.239 0.42 0.569 1 1 0.076 0.237 0.4 0.575 0.969 1 0.085 0.236 0.441 0.583 1 1 0.086 0.241 0.424 0.604 1 1.031 0.103 0.242 0.466 0.583 1.031 1 0.118 0.236 0.439 0.576 0.969 0.969 0.096 0.238 0.444 0.556 1 0.969 0.076 0.237 0.4 0.575 0.969 1 0.076 0.237 0.431 0.575 1 1 0.085 0.236 0.441 0.583 1 1 0.087 0.243 0.444 0.598 1.031 1.031 0.118 0.236 0.439 0.576 0.969 0.969 0.096 0.238 0.444 0.556 1 0.969 0.077 0.239 0.42 0.569 1 1 0.08 0.237 0.405 0.579 0.969 1 0.085 0.236 0.441 0.583 1 1 0.087 0.243 0.444 0.598 1.031 1.031 0.118 0.236 0.439 0.576 0.969 0.969 0.096 0.238 0.444 0.556 1 0.969 0.077 0.239 0.42 0.569 1 1 0.076 0.237 0.4 0.575 0.969 1 0.085 0.236 0.441 0.583 1 1 0.086 0.241 0.424 0.604 1 1.031 0.103 0.242 0.466 0.583 1.031 1 0.117 0.235 0.445 0.549 0.969 0.938 0.077 0.239 0.42 0.569 1 1 0.076 0.237 0.4 0.575 0.969 1 0.076 0.237 0.43 0.575 1 1 0.085 0.236 0.441 0.583 1 1 0.087 0.243 0.444 0.598 1.031 1.031 0.118 0.236 0.439 0.576 0.969 0.969 0.096 0.238 0.444 0.556 1 0.969 0.077 0.239 0.42 0.569 1 1 0.08 0.237 0.405 0.579 0.969 1 0.085 0.236 0.441 0.583 1 1 0.087 0.243 0.444 0.598 1.031 1.031 0.118 0.236 0.439 0.576 0.969 0.969 0.096 0.238 0.444 0.556 1 0.969 0.077 0.239 0.42 0.569 1 1 0.076 0.237 0.399 0.575 0.969 1 0.085 0.236 0.441 0.583 1 1 0.086 0.241 0.424 0.604 1 1.031 0.102 0.239 0.445 0.558 1 0.969 0.096 0.238 0.444 0.556 1 0.969 0.077 0.239 0.42 0.569 1 1 0.076 0.237 0.399 0.575 0.969 1 0.085 0.236 0.441 0.583 1 1 0.086 0.241 0.424 0.604 1 1.031 0.103 0.242 0.466 0.583 1.031 1 0.118 0.236 0.439 0.576 0.969 0.969 0.096 0.238 0.444 0.556 1 0.969 0.076 0.237 0.399 0.575 0.969 1 0.076 0.237 0.431 0.575 1 1 0.085 0.237 0.441 0.583 1 1 0.087 0.243 0.444 0.598 1.031 1.031 0.118 0.236 0.439 0.576 0.969 0.969 0.096 0.238 0.444 0.556 1 0.969 0.077 0.24 0.42 0.569 1 1 0.081 0.237 0.405 0.579 0.969 1 0.085 0.237 0.441 0.583 1 1 0.087 0.243 0.444 0.598 1.031 1.031 0.118 0.236 0.439 0.576 0.969 0.969 0.096 0.238 0.444 0.556 1 0.969 0.077 0.24 0.42 0.569 1 1 0.076 0.237 0.399 0.575 0.969 1 0.085 0.237 0.441 0.583 1 1 0.086 0.241 0.424 0.604 1 1.031 0.103 0.242 0.466 0.583 1.031 1 0.117 0.235 0.445 0.549 0.969 0.938 0.077 0.24 0.42 0.569 1 1 0.076 0.237 0.399 0.575 0.969 1 0.076 0.237 0.431 0.575 1 1 0.085 0.237 0.441 0.583 1 1 0.087 0.243 0.444 0.598 1.031 1.031 0.118 0.236 0.439 0.576 0.969 0.969 0.096 0.238 0.444 0.556 1 0.969 0.077 0.24 0.42 0.569 1 1 0.081 0.237 0.405 0.579 0.969 1 0.085 0.237 0.441 0.583 1 1 0.087 0.243 0.444 0.598 1.031 1.031 0.118 0.236 0.439 0.576 0.969 0.969 0.096 0.238 0.444 0.556 1 0.969 0.077 0.24 0.42 0.569 1 1 0.076 0.237 0.399 0.575 0.969 1 0.085 0.237 0.441 0.583 1 1 0.086 0.241 0.423 0.604 1 1.031 0.102 0.239 0.445 0.558 1 0.969 0.096 0.238 0.444 0.556 1 0.969 0.077 0.24 0.42 0.569 1 1 0.076 0.237 0.399 0.575 0.969 1 0.085 0.237 0.441 0.583 1 1 0.086 0.241 0.423 0.604 1 1.031 0.103 0.242 0.466 0.583 1.031 1 0.118 0.236 0.439 0.576 0.969 0.969 0.096 0.238 0.444 0.556 1 0.969 0.076 0.237 0.399 0.575 0.969 1 0.076 0.237 0.431 0.575 1 1 0.085 0.237 0.441 0.583 1 1 0.087 0.243 0.444 0.598 1.031 1.031 0.118 0.236 0.439 0.576 0.969 0.969 0.096 0.238 0.444 0.556 1 0.969 0.077 0.24 0.42 0.569 1 1 0.081 0.237 0.405 0.579 0.969 1 0.085 0.237 0.441 0.583 1 1 0.087 0.243 0.444 0.598 1.031 1.031 0.118 0.236 0.439 0.576 0.969 0.969 0.096 0.238 0.444 0.556 1 0.969 0.077 0.24 0.42 0.569 1 1 0.076 0.237 0.399 0.575 0.969 1 0.085 0.237 0.441 0.583 1 1 0.086 0.241 0.423 0.604 1 1.031 0.103 0.242 0.466 0.583 1.031 1 0.118 0.236 0.439 0.576 0.969 0.969 0.096 0.238 0.444 0.556 1 0.969 0.077 0.237 0.399 0.575 0.969 1 0.077 0.237 0.431 0.575 1 1 116.36-5.111 209.13-101.03 209.13-218.66 0-0.417 0.002-0.833 0-1.25-0.064 0.015-0.118 0.012-0.188 0.031 0.088-0.364 0.156-0.704 0.156-0.969 0-0.224-0.448-0.229-1.156-0.031 0.088-0.364 0.156-0.704 0.156-0.969 0-0.224-0.449-0.229-1.156-0.031 0.089-0.366 0.156-0.703 0.156-0.969 0-0.224-0.448-0.198-1.156 0 0.094-0.379 0.156-0.726 0.156-1 0-0.224-0.448-0.198-1.156 0 0.094-0.379 0.156-0.726 0.156-1 0-0.227-0.435-0.204-1.156 0 0.094-0.379 0.156-0.695 0.156-0.969 0-0.224-0.417-0.229-1.125-0.031 0.088-0.364 0.156-0.704 0.156-0.969 0-0.224-0.448-0.229-1.156-0.031 0.088-0.364 0.156-0.704 0.156-0.969 0-0.224-0.448-0.229-1.156-0.031 0.088-0.364 0.156-0.704 0.156-0.969 0-0.221-0.433-0.222-1.125-0.031 0.088-0.364 0.125-0.704 0.125-0.969 0-0.224-0.448-0.198-1.156 0 0.094-0.379 0.156-0.726 0.156-1 0-0.224-0.448-0.198-1.156 0 0.094-0.379 0.156-0.726 0.156-1 0-0.224-0.417-0.198-1.125 0 0.088-0.364 0.156-0.704 0.156-0.969 0-0.224-0.448-0.229-1.156-0.031 0.088-0.364 0.156-0.704 0.156-0.969 0-0.224-0.448-0.229-1.156-0.031 0.088-0.364 0.156-0.704 0.156-0.969 0-0.224-0.449-0.229-1.156-0.031 0.089-0.366 0.156-0.703 0.156-0.969 0-0.224-0.448-0.198-1.156 0 0.094-0.379 0.156-0.726 0.156-1 0-0.224-0.448-0.198-1.156 0 0.094-0.379 0.156-0.726 0.156-1 0-0.227-0.435-0.204-1.156 0 0.092-0.375 0.188-0.698 0.188-0.969 0-0.224-0.448-0.229-1.156-0.031 0.088-0.364 0.156-0.704 0.156-0.969 0-0.224-0.448-0.229-1.156-0.031 0.088-0.364 0.156-0.704 0.156-0.969 0-0.224-0.449-0.229-1.156-0.031 0.089-0.366 0.156-0.703 0.156-0.969 0-0.224-0.448-0.198-1.156 0 0.094-0.379 0.156-0.726 0.156-1 0-0.224-0.448-0.198-1.156 0 0.094-0.379 0.156-0.726 0.156-1 0-0.227-0.435-0.204-1.156 0 0.092-0.375 0.156-0.698 0.156-0.969 0-0.224-0.417-0.229-1.125-0.031 0.088-0.364 0.156-0.704 0.156-0.969 0-0.224-0.448-0.229-1.156-0.031 0.088-0.364 0.156-0.704 0.156-0.969 0-0.224-0.448-0.229-1.156-0.031 0.089-0.366 0.156-0.703 0.156-0.969 0-0.222-0.433-0.222-1.125-0.031 0.088-0.364 0.125-0.704 0.125-0.969 0-0.224-0.448-0.198-1.156 0 0.094-0.379 0.156-0.726 0.156-1 0-0.227-0.435-0.204-1.156 0 0.094-0.379 0.156-0.695 0.156-0.969v-0.031c0-0.224-0.417-0.198-1.125 0 0.088-0.364 0.156-0.704 0.156-0.969 0-0.225-0.448-0.229-1.156-0.031 0.088-0.364 0.156-0.704 0.156-0.969 0-0.225-0.448-0.229-1.156-0.031 0.088-0.364 0.156-0.704 0.156-0.969 0-0.222-0.433-0.222-1.125-0.031 0.088-0.364 0.125-0.704 0.125-0.969 0-0.225-0.448-0.198-1.156 0 0.094-0.379 0.156-0.726 0.156-1 0-0.225-0.448-0.198-1.156 0 0.094-0.379 0.156-0.726 0.156-1 0-0.225-0.417-0.198-1.125 0 0.088-0.364 0.156-0.704 0.156-0.969 0-0.225-0.448-0.229-1.156-0.031 0.088-0.364 0.156-0.704 0.156-0.969 0-0.225-0.448-0.229-1.156-0.031 0.088-0.364 0.156-0.704 0.156-0.969 0-0.224-0.449-0.229-1.156-0.031 0.089-0.366 0.156-0.703 0.156-0.969 0-0.225-0.448-0.198-1.156 0 0.094-0.379 0.156-0.726 0.156-1 0-0.225-0.448-0.198-1.156 0 0.094-0.379 0.156-0.726 0.156-1 0-0.227-0.435-0.204-1.156 0 0.092-0.375 0.188-0.698 0.188-0.969 0-0.225-0.448-0.229-1.156-0.031 0.088-0.364 0.156-0.704 0.156-0.969 0-0.225-0.448-0.229-1.156-0.031 0.088-0.364 0.156-0.704 0.156-0.969 0-0.224-0.449-0.229-1.156-0.031 0.089-0.366 0.156-0.703 0.156-0.969 0-0.225-0.448-0.198-1.156 0 0.094-0.379 0.156-0.726 0.156-1 0-0.225-0.448-0.198-1.156 0 0.094-0.379 0.156-0.726 0.156-1 0-0.227-0.435-0.204-1.156 0 0.092-0.375 0.156-0.698 0.156-0.969 0-0.225-0.417-0.229-1.125-0.031 0.088-0.364 0.156-0.704 0.156-0.969 0-0.225-0.448-0.229-1.156-0.031 0.088-0.364 0.156-0.704 0.156-0.969 0-0.225-0.448-0.229-1.156-0.031 0.088-0.364 0.156-0.704 0.156-0.969 0-0.222-0.433-0.222-1.125-0.031 0.088-0.364 0.125-0.704 0.125-0.969 0-0.225-0.448-0.198-1.156 0 0.094-0.379 0.156-0.726 0.156-1 0-0.227-0.435-0.204-1.156 0 0.094-0.379 0.156-0.726 0.156-1 0-0.225-0.417-0.198-1.125 0 0.088-0.364 0.156-0.704 0.156-0.969 0-0.225-0.448-0.229-1.156-0.031 0.088-0.364 0.156-0.704 0.156-0.969 0-0.225-0.448-0.229-1.156-0.031 0.088-0.364 0.156-0.704 0.156-0.969 0-0.224-0.449-0.229-1.156-0.031 0.089-0.366 0.156-0.703 0.156-0.969 0-0.225-0.448-0.198-1.156 0 0.094-0.379 0.156-0.726 0.156-1 0-0.225-0.448-0.198-1.156 0 0.094-0.379 0.156-0.726 0.156-1 0-0.227-0.435-0.204-1.156 0 0.092-0.375 0.188-0.698 0.188-0.969 0-0.225-0.448-0.229-1.156-0.031 0.088-0.364 0.156-0.704 0.156-0.969 0-0.225-0.448-0.229-1.156-0.031 0.088-0.364 0.156-0.704 0.156-0.969 0-0.224-0.449-0.229-1.156-0.031 0.089-0.366 0.156-0.703 0.156-0.969 0-0.225-0.448-0.198-1.156 0 0.094-0.379 0.156-0.726 0.156-1 0-0.225-0.448-0.198-1.156 0 0.094-0.379 0.156-0.726 0.156-1 0-0.227-0.435-0.204-1.156 0 0.092-0.375 0.156-0.698 0.156-0.969 0-0.225-0.417-0.229-1.125-0.031 0.088-0.364 0.156-0.704 0.156-0.969 0-0.225-0.448-0.229-1.156-0.031 0.088-0.364 0.156-0.704 0.156-0.969 0-0.225-0.448-0.229-1.156-0.031 0.089-0.366 0.156-0.703 0.156-0.969 0-0.222-0.433-0.222-1.125-0.031 0.088-0.364 0.125-0.704 0.125-0.969 0-0.225-0.448-0.198-1.156 0 0.094-0.379 0.156-0.726 0.156-1 0-0.227-0.435-0.204-1.156 0 0.094-0.379 0.156-0.695 0.156-0.969 0-0.225-0.417-0.229-1.125-0.031 0.088-0.364 0.156-0.704 0.156-0.969 0-0.225-0.448-0.229-1.156-0.031 0.088-0.364 0.156-0.704 0.156-0.969 0-0.225-0.448-0.229-1.156-0.031 0.088-0.364 0.156-0.704 0.156-0.969 0-0.222-0.433-0.222-1.125-0.031 0.088-0.364 0.125-0.704 0.125-0.969 0-0.225-0.448-0.198-1.156 0 0.094-0.379 0.156-0.726 0.156-1 0-0.225-0.448-0.198-1.156 0 0.094-0.379 0.156-0.726 0.156-1 0-0.225-0.417-0.198-1.125 0 0.088-0.364 0.156-0.704 0.156-0.969 0-0.225-0.448-0.229-1.156-0.031 0.088-0.364 0.156-0.704 0.156-0.969 0-0.225-0.448-0.229-1.156-0.031 0.088-0.364 0.156-0.704 0.156-0.969 0-0.224-0.449-0.229-1.156-0.031 0.089-0.366 0.156-0.703 0.156-0.969 0-0.225-0.448-0.198-1.156 0 0.094-0.379 0.156-0.726 0.156-1 0-0.225-0.448-0.198-1.156 0 0.094-0.379 0.156-0.726 0.156-1 0-0.227-0.435-0.204-1.156 0 0.092-0.375 0.188-0.698 0.188-0.969 0-0.225-0.448-0.229-1.156-0.031 0.088-0.364 0.156-0.704 0.156-0.969 0-0.225-0.448-0.229-1.156-0.031 0.088-0.364 0.156-0.704 0.156-0.969 0-0.225-0.449-0.229-1.156-0.031 0.089-0.366 0.156-0.703 0.156-0.969 0-0.225-0.448-0.198-1.156 0 0.094-0.379 0.156-0.726 0.156-1 0-0.225-0.448-0.198-1.156 0 0.094-0.379 0.156-0.726 0.156-1 0-0.227-0.435-0.204-1.156 0 0.092-0.375 0.156-0.698 0.156-0.969 0-0.225-0.417-0.229-1.125-0.031 0.088-0.364 0.156-0.704 0.156-0.969 0-0.225-0.448-0.229-1.156-0.031 0.088-0.364 0.156-0.704 0.156-0.969 0-0.225-0.448-0.229-1.156-0.031 0.088-0.364 0.156-0.704 0.156-0.969 0-0.222-0.433-0.222-1.125-0.031 0.088-0.364 0.125-0.704 0.125-0.969 0-0.567-2.726 0.362-5.813 2.063-3.27 1.862-10.497 4.702-15.938 6.375l-9.813 3.188-8.906-6.188c-4.891-3.374-11.771-7.148-15.406-8.281-4.051-1.145-9.04-1.722-14.06-1.75"/>
 <g id="g8" fill-rule="evenodd">
  <path id="path10" fill-opacity="0.067" d="m256 1c-140.83 0-255 114.17-255 255s114.17 255 255 255 255-114.17 255-255-114.17-255-255-255m8.827 44.931c120.9 0 218.9 98 218.9 218.9s-98 218.9-218.9 218.9-218.93-98-218.93-218.9 98.03-218.9 218.93-218.9"/>
  <g id="g12" fill-opacity="0.129">
   <path id="path14" d="m256 4.433c-138.94 0-251.57 112.63-251.57 251.57s112.63 251.57 251.57 251.57 251.57-112.63 251.57-251.57-112.63-251.57-251.57-251.57m5.885 38.556c120.9 0 218.9 98 218.9 218.9s-98 218.9-218.9 218.9-218.93-98-218.93-218.9 98.03-218.9 218.93-218.9"/>
   <path id="path16" d="m256 8.356c-136.77 0-247.64 110.87-247.64 247.64s110.87 247.64 247.64 247.64 247.64-110.87 247.64-247.64-110.87-247.64-247.64-247.64m2.942 31.691c120.9 0 218.9 98 218.9 218.9s-98 218.9-218.9 218.9-218.93-98-218.93-218.9 98.03-218.9 218.93-218.9"/>
  </g>
  <path id="path18" d="m253.04 7.859c-135.42 0-245.19 109.78-245.19 245.19 0 135.42 109.78 245.19 245.19 245.19 135.42 0 245.19-109.78 245.19-245.19 0-135.42-109.78-245.19-245.19-245.19zm0 26.297c120.9 0 218.9 98 218.9 218.9s-98 218.9-218.9 218.9-218.93-98-218.93-218.9 98.03-218.9 218.93-218.9z" stroke-opacity="0.31" stroke="#000" stroke-width="4.904" fill="#fff"/>
 </g>
 <path id="path66" fill="#fff" d="m287.75 152.27c-22.678 8.448-37.01 30.2-35.39 54.01l0.55 9.204-9.08-1.134c-33.01-4.319-61.86-18.948-86.34-43.51l-11.98-12.2-3.086 9.02c-6.539 20.05-2.354 41.27 11.247 55.52 7.245 7.854 5.624 8.988-6.905 4.292-4.342-1.484-8.161-2.618-8.527-2.051-1.256 1.323 3.086 18.381 6.539 25.13 4.708 9.393 14.334 18.57 24.848 24.02l8.893 4.292-10.515 0.188c-10.175 0-10.515 0.188-9.442 4.13 3.636 12.2 17.969 25.13 33.925 30.77l11.247 3.941-9.782 5.992c-14.517 8.637-31.571 13.496-48.625 13.873-8.161 0.187-14.883 0.945-14.883 1.512 0 1.862 22.13 12.362 35.02 16.492 38.633 12.2 84.54 6.937 119.01-13.873 24.482-14.818 48.991-44.27 60.42-72.77 6.173-15.196 12.346-42.943 12.346-56.28 0-8.61 0.523-9.744 10.698-20.05 5.99-5.992 11.613-12.578 12.686-14.44 1.831-3.563 1.648-3.563-7.611-0.378-15.432 5.614-17.603 4.885-9.966-3.563 5.624-5.992 12.32-16.869 12.32-20.05 0-0.567-2.72 0.351-5.807 2.051-3.27 1.862-10.515 4.697-15.955 6.37l-9.809 3.185-8.893-6.181c-4.891-3.374-11.77-7.126-15.406-8.26-9.259-2.618-23.41-2.24-31.754 0.756"/>
</svg>
