<?xml version="1.0" encoding="UTF-8" standalone="no"?>
<svg
   xmlns:dc="http://purl.org/dc/elements/1.1/"
   xmlns:cc="http://creativecommons.org/ns#"
   xmlns:rdf="http://www.w3.org/1999/02/22-rdf-syntax-ns#"
   xmlns:svg="http://www.w3.org/2000/svg"
   xmlns="http://www.w3.org/2000/svg"
   xmlns:sodipodi="http://sodipodi.sourceforge.net/DTD/sodipodi-0.dtd"
   xmlns:inkscape="http://www.inkscape.org/namespaces/inkscape"
   height="512"
   viewBox="0 0 512 512"
   width="512"
   version="1.1"
   id="svg2"
   inkscape:version="0.91 r"
   sodipodi:docname="typecatcher.svg">
  <defs
     id="defs45" />
  <sodipodi:namedview
     pagecolor="#ffffff"
     bordercolor="#666666"
     borderopacity="1"
     objecttolerance="10"
     gridtolerance="10"
     guidetolerance="10"
     inkscape:pageopacity="0"
     inkscape:pageshadow="2"
     inkscape:window-width="1680"
     inkscape:window-height="998"
     id="namedview43"
     showgrid="false"
     inkscape:zoom="0.4609375"
     inkscape:cx="-56.40678"
     inkscape:cy="256"
     inkscape:window-x="0"
     inkscape:window-y="0"
     inkscape:window-maximized="1"
     inkscape:current-layer="svg2" />
  <metadata
     id="metadata84">
    <rdf:RDF>
      <cc:Work
         rdf:about="">
        <dc:format>image/svg+xml</dc:format>
        <dc:type
           rdf:resource="http://purl.org/dc/dcmitype/StillImage" />
      </cc:Work>
    </rdf:RDF>
  </metadata>
  <g
     style="fill-rule:evenodd;fill:#BF9E73;fill-opacity:1"
     id="g6"
     transform="translate(0,-540.36)">
    <path
       style="fill:#BF9E73;fill-opacity:1"
       inkscape:connector-curvature="0"
       d="m 471.95,793.41 c 0,120.9 -98.01,218.9 -218.9,218.9 -120.9,0 -218.9,-98.01 -218.9,-218.9 0,-120.9 98.01,-218.9 218.9,-218.9 120.9,0 218.9,98.01 218.9,218.9"
       id="path8" />
    <path
       style="fill:#BF9E73;fill-opacity:1"
       inkscape:connector-curvature="0"
       transform="matrix(0.63095,0,0,0.63095,125.99,996.1)"
       d="m 562.86,-316.57 c 0,198.82 -161.18,360 -360,360 -198.82,0 -360,-161.18 -360,-360 0,-198.82 161.18,-360 360,-360 198.82,0 360,161.18 360,360"
       id="path10" />
  </g>
  <path
     style="opacity:0.87599996;fill-opacity:0.23500001"
     inkscape:connector-curvature="0"
     d="M 277.32389,62.727561 150.41018,281.52952 c -20.38387,33.83889 -36.15843,46.53383 -56.923528,46.53383 l -1.899,18.06075 1.30333,0 -0.11199,1.19135 1.30333,0 c -0.0155,0.14653 -0.11199,1.19134 -0.11199,1.19134 l 1.30333,0 c -0.0155,0.14653 -0.11198,1.19134 -0.11198,1.19134 l 1.26639,0 c -0.0143,0.1382 -0.11198,1.15441 -0.11198,1.15441 l 1.30333,0 c -0.0155,0.14654 -0.11199,1.19134 -0.11199,1.19134 l 1.30333,0 c -0.0155,0.14654 -0.11199,1.19135 -0.11199,1.19135 l 1.303328,0 -0.111988,1.19134 1.303328,0 c -0.0155,0.14653 -0.11198,1.19134 -0.11198,1.19134 l 1.30332,0 c -0.0155,0.14654 -0.11198,1.19134 -0.11198,1.19134 l 1.2664,0 c -0.0143,0.1382 -0.11199,1.15442 -0.11199,1.15442 l 1.30333,0 c -0.0155,0.14653 -0.11199,1.19134 -0.11199,1.19134 l 1.30333,0 -0.11199,1.19134 1.30333,0 c -0.0155,0.14654 -0.11198,1.19134 -0.11198,1.19134 l 1.30333,0 c -0.0155,0.14654 -0.11199,1.19135 -0.11199,1.19135 l 1.30333,0 c -0.0155,0.14653 -0.11199,1.19134 -0.11199,1.19134 l 1.2664,0 c -0.0143,0.13819 -0.11199,1.15441 -0.11199,1.15441 l 1.30333,0 c -0.0155,0.14653 -0.11198,1.19134 -0.11198,1.19134 l 1.30332,0 c -0.0155,0.14654 -0.11198,1.19134 -0.11198,1.19134 l 1.30333,0 c -0.0155,0.14654 -0.11199,1.19135 -0.11199,1.19135 l 1.30333,0 c -0.0155,0.14653 -0.11199,1.19134 -0.11199,1.19134 l 1.30333,0 c -0.0155,0.14653 -0.11199,1.19134 -0.11199,1.19134 l 1.2664,0 c -0.0143,0.1382 -0.11198,1.15441 -0.11198,1.15441 l 1.30332,0 c -0.0155,0.14654 -0.11198,1.19134 -0.11198,1.19134 l 1.30333,0 c -0.0155,0.14654 -0.11199,1.19135 -0.11199,1.19135 l 1.30333,0 c -0.0155,0.14653 -0.11199,1.19134 -0.11199,1.19134 l 1.30333,0 c -0.0155,0.14653 -0.11198,1.19134 -0.11198,1.19134 l 1.30332,0 c -0.0155,0.14654 -0.11198,1.19134 -0.11198,1.19134 l 1.30333,0 c -0.0155,0.14654 -0.11199,1.19135 -0.11199,1.19135 l 1.2664,0 c -0.0143,0.13819 -0.11199,1.15441 -0.11199,1.15441 l 1.30333,0 c -0.0155,0.14653 -0.11199,1.19134 -0.11199,1.19134 l 1.30333,0 c -0.0155,0.14653 -0.11198,1.19134 -0.11198,1.19134 l 1.30332,0 c -0.0155,0.14654 -0.11198,1.19134 -0.11198,1.19134 l 1.30333,0 c -0.0155,0.14654 -0.11199,1.19135 -0.11199,1.19135 l 1.30333,0 c -0.0155,0.14653 -0.11199,1.19134 -0.11199,1.19134 l 1.2664,0 c -0.0143,0.1382 -0.11199,1.15441 -0.11199,1.15441 l 1.30333,0 c -0.0155,0.14654 -0.11198,1.19134 -0.11198,1.19134 l 1.30333,0 c -0.0155,0.14654 -0.11199,1.19135 -0.11199,1.19135 l 1.30333,0 c -0.0155,0.14653 -0.11199,1.19134 -0.11199,1.19134 l 1.30333,0 c -0.0155,0.14653 -0.11199,1.19134 -0.11199,1.19134 l 1.30333,0 c -0.0155,0.14654 -0.11198,1.19134 -0.11198,1.19134 l 1.26639,0 c -0.0143,0.1382 -0.11198,1.15441 -0.11198,1.15441 l 1.30333,0 c -0.0155,0.14654 -0.11199,1.19135 -0.11199,1.19135 l 1.30333,0 c -0.0155,0.14653 -0.11199,1.19134 -0.11199,1.19134 l 1.30333,0 c -0.0155,0.14653 -0.11199,1.19134 -0.11199,1.19134 l 1.30333,0 c -0.0155,0.14654 -0.11198,1.19134 -0.11198,1.19134 l 1.30333,0 c -0.0155,0.14654 -0.11199,1.19135 -0.11199,1.19135 l 1.30333,0 c -0.0155,0.14653 -0.11199,1.19134 -0.11199,1.19134 l 1.2664,0 c -0.0143,0.13819 -0.11199,1.15441 -0.11199,1.15441 l 1.30333,0 -0.11198,1.19134 1.30332,0 c -0.0155,0.14654 -0.11198,1.19134 -0.11198,1.19134 l 1.30333,0 c -0.0155,0.14654 -0.11199,1.19135 -0.11199,1.19135 l 1.30333,0 c -0.0155,0.14653 -0.11199,1.19134 -0.11199,1.19134 l 1.30333,0 c -0.0155,0.14653 -0.11198,1.19134 -0.11198,1.19134 l 1.26639,0 c -0.0143,0.13701 -0.11198,1.15441 -0.11198,1.15441 l 1.30332,0 c -0.0155,0.14654 -0.11198,1.19134 -0.11198,1.19134 l 1.30333,0 c -0.0155,0.14654 -0.11199,1.19135 -0.11199,1.19135 l 1.30333,0 c -0.0155,0.14653 -0.11199,1.19134 -0.11199,1.19134 l 1.30333,0 c -0.0155,0.14653 -0.11198,1.19134 -0.11198,1.19134 l 1.30332,0 c -0.0155,0.14654 -0.11198,1.19134 -0.11198,1.19134 l 1.2664,0 c -0.0143,0.13701 -0.11199,1.15441 -0.11199,1.15441 l 1.30333,0 c -0.0155,0.14654 -0.11199,1.19135 -0.11199,1.19135 l 1.30333,0 c -0.0155,0.14653 -0.11199,1.19134 -0.11199,1.19134 l 1.30333,0 c -0.0155,0.14654 -0.11198,1.19134 -0.11198,1.19134 l 1.30333,0 c -0.0155,0.14654 -0.11199,1.19134 -0.11199,1.19134 l 1.30333,0 -0.11199,1.19135 1.2664,0 c -0.0143,0.137 -0.11199,1.15441 -0.11199,1.15441 l 1.30333,0 c -0.0155,0.14653 -0.11199,1.19134 -0.11199,1.19134 l 1.30333,0 c -0.0155,0.14654 -0.11198,1.19134 -0.11198,1.19134 l 1.30333,0 c -0.0155,0.14654 -0.11199,1.19135 -0.11199,1.19135 l 1.30333,0 c -0.0155,0.14653 -0.11199,1.19134 -0.11199,1.19134 l 1.30333,0 c -0.0155,0.14653 -0.11199,1.19134 -0.11199,1.19134 l 1.30333,0 c -0.0155,0.14654 -0.11198,1.19134 -0.11198,1.19134 l 1.26639,0 c -0.0143,0.13701 -0.11198,1.15441 -0.11198,1.15441 l 1.30333,0 c -0.0155,0.14654 -0.11199,1.19135 -0.11199,1.19135 l 1.30333,0 c -0.0155,0.14653 -0.11199,1.19134 -0.11199,1.19134 l 1.30333,0 c -0.0155,0.14653 -0.11198,1.19134 -0.11198,1.19134 l 1.30332,0 c -0.0155,0.14654 -0.11198,1.19134 -0.11198,1.19134 l 1.30333,0 c -0.0155,0.14654 -0.11199,1.19135 -0.11199,1.19135 l 1.2664,0 c -0.0143,0.137 -0.11199,1.15441 -0.11199,1.15441 l 1.30333,0 c -0.0155,0.14653 -0.11199,1.19134 -0.11199,1.19134 l 1.30333,0 c -0.0155,0.14653 -0.11198,1.19134 -0.11198,1.19134 l 1.30332,0 c -0.0155,0.14654 -0.11198,1.19134 -0.11198,1.19134 l 1.30333,0 c -0.0155,0.14654 -0.11199,1.19135 -0.11199,1.19135 l 1.30333,0 c -0.0155,0.14653 -0.11199,1.19134 -0.11199,1.19134 l 1.2664,0 c -0.0143,0.137 -0.11199,1.15441 -0.11199,1.15441 l 1.30333,0 c -0.0155,0.14653 -0.11198,1.19134 -0.11198,1.19134 l 1.30333,0 c -0.0155,0.14654 -0.11199,1.19134 -0.11199,1.19134 l 1.30333,0 c -0.0155,0.14654 -0.11199,1.19135 -0.11199,1.19135 l 1.30333,0 c -0.0155,0.14653 -0.11199,1.19134 -0.11199,1.19134 l 1.30333,0 c -0.0155,0.14653 -0.11198,1.19134 -0.11198,1.19134 l 1.30332,0 c -0.0155,0.14654 -0.11198,1.19134 -0.11198,1.19134 l 1.2664,0 c -0.0143,0.13701 -0.11199,1.15442 -0.11199,1.15442 l 1.30333,0 c -0.0155,0.14653 -0.11199,1.19134 -0.11199,1.19134 l 1.30333,0 c -0.0155,0.14653 -0.11199,1.19134 -0.11199,1.19134 l 1.30333,0 c -0.0155,0.14654 -0.11198,1.19134 -0.11198,1.19134 l 1.30333,0 c -0.0155,0.14654 -0.11199,1.19135 -0.11199,1.19135 l 1.30333,0 c -0.0155,0.14653 -0.11199,1.19134 -0.11199,1.19134 l 1.2664,0 c -0.0143,0.137 -0.11199,1.15441 -0.11199,1.15441 l 1.30333,0 c -0.0155,0.14653 -0.11198,1.19134 -0.11198,1.19134 l 1.30332,0 c -0.0155,0.14654 -0.11198,1.19134 -0.11198,1.19134 l 1.30333,0 c -0.0155,0.14654 -0.11199,1.19135 -0.11199,1.19135 l 1.30333,0 c -0.0155,0.14653 -0.11199,1.19134 -0.11199,1.19134 l 1.30333,0 c -0.0155,0.14653 -0.11199,1.19134 -0.11199,1.19134 l 1.2664,0 c -0.0143,0.13701 -0.11198,1.15441 -0.11198,1.15441 l 1.30332,0 c -0.0155,0.14535 -0.11198,1.19134 -0.11198,1.19134 l 1.30333,0 c -0.0155,0.14535 -0.11199,1.19135 -0.11199,1.19135 l 1.30333,0 c -0.0155,0.14534 -0.11199,1.19134 -0.11199,1.19134 l 1.30333,0 c -0.0155,0.14534 -0.11198,1.19134 -0.11198,1.19134 l 1.30332,0 c -0.007,0.0679 -0.0131,0.29545 -0.0369,0.55874 4.13753,0.18823 8.28817,0.33477 12.47217,0.33477 128.04548,0 235.33778,-88.93372 263.44155,-208.41345 l -0.78152,0 c -0.002,-0.0119 -0.22397,-1.19134 -0.22397,-1.19134 l -0.96856,0 c -0.002,-0.0119 -0.22397,-1.19135 -0.22397,-1.19135 l -0.96857,0 c -0.002,-0.0119 -0.22397,-1.19134 -0.22397,-1.19134 l -0.96856,0 c -0.002,-0.0119 -0.22397,-1.19134 -0.22397,-1.19134 l -0.96856,0 c -0.002,-0.0119 -0.22398,-1.19134 -0.22398,-1.19134 l -0.93043,0 c -0.002,-0.0107 -0.22398,-1.15441 -0.22398,-1.15441 l -0.96856,0 -0.22397,-1.19135 -0.96856,0 -0.22397,-1.19134 -0.96857,0 -0.22397,-1.19134 -0.96856,0 -0.22397,-1.19134 -0.96856,0 c -0.002,-0.0119 -0.22398,-1.19135 -0.22398,-1.19135 l -0.93043,0 c -0.002,-0.0107 -0.22398,-1.15441 -0.22398,-1.15441 l -0.96856,0 c -0.002,-0.0119 -0.22397,-1.19134 -0.22397,-1.19134 l -0.96856,0 c -0.002,-0.0119 -0.22397,-1.19134 -0.22397,-1.19134 l -0.96856,0 c -0.002,-0.0119 -0.22398,-1.19134 -0.22398,-1.19134 l -0.96856,0 c -0.002,-0.0119 -0.22397,-1.19135 -0.22397,-1.19135 l -0.96856,0 c -0.002,-0.0119 -0.22397,-1.19134 -0.22397,-1.19134 l -0.96857,0 c -0.002,-0.0119 -0.22397,-1.19134 -0.22397,-1.19134 l -0.93044,0 c -0.002,-0.0107 -0.22397,-1.15441 -0.22397,-1.15441 l -0.96856,0 c -0.002,-0.0119 -0.22397,-1.19134 -0.22397,-1.19134 l -0.96856,0 c -0.002,-0.0119 -0.22398,-1.19135 -0.22398,-1.19135 l -0.96856,0 c -0.002,-0.0119 -0.22397,-1.19134 -0.22397,-1.19134 l -0.96856,0 c -0.002,-0.0119 -0.22397,-1.19134 -0.22397,-1.19134 l -0.96857,0 c -0.002,-0.0119 -0.22397,-1.19134 -0.22397,-1.19134 l -0.93044,0 c -0.002,-0.0107 -0.22397,-1.15442 -0.22397,-1.15442 l -0.96856,0 c -0.002,-0.0119 -0.22397,-1.19134 -0.22397,-1.19134 l -0.96856,0 c -0.002,-0.0119 -0.22398,-1.19134 -0.22398,-1.19134 l -0.96856,0 -0.22397,-1.19134 -0.96856,0 -0.22397,-1.19134 -0.96857,0 c -0.002,-0.0119 -0.22397,-1.19135 -0.22397,-1.19135 l -0.93044,0 c -0.002,-0.0107 -0.22397,-1.15441 -0.22397,-1.15441 l -0.96856,0 c -0.002,-0.0119 -0.22397,-1.19134 -0.22397,-1.19134 l -0.96856,0 c -0.002,-0.0119 -0.22398,-1.19134 -0.22398,-1.19134 l -0.96856,0 c -0.002,-0.0119 -0.22397,-1.19135 -0.22397,-1.19135 l -0.96856,0 c -0.002,-0.0119 -0.22397,-1.19134 -0.22397,-1.19134 l -0.96857,0 c -0.002,-0.0119 -0.22397,-1.19134 -0.22397,-1.19134 l -0.93044,0 c -0.002,-0.0107 -0.22397,-1.15441 -0.22397,-1.15441 l -0.96856,0 -0.22397,-1.19134 -0.96856,0 -0.22398,-1.19135 -0.96856,0 -0.22397,-1.19134 -0.96856,0 -0.22397,-1.19134 -0.96857,0 c -0.002,-0.0119 -0.22397,-1.19134 -0.22397,-1.19134 l -0.96856,0 c -0.002,-0.0119 -0.22397,-1.19135 -0.22397,-1.19135 l -0.93044,0 c -0.002,-0.0107 -0.22397,-1.15441 -0.22397,-1.15441 l -0.96856,0 c -0.002,-0.0119 -0.22398,-1.19134 -0.22398,-1.19134 l -0.96856,0 c -0.002,-0.0119 -0.22397,-1.19134 -0.22397,-1.19134 l -0.96856,0 c -0.002,-0.0119 -0.22397,-1.19134 -0.22397,-1.19134 l -0.96857,0 c -0.002,-0.0119 -0.22397,-1.19135 -0.22397,-1.19135 l -0.96856,0 -0.22397,-1.19134 -0.93044,0 -0.22397,-1.15441 -0.96856,0 -0.22398,-1.19134 -0.96856,0 -0.22397,-1.19134 -0.96856,0 c -0.002,-0.0119 -0.22397,-1.19135 -0.22397,-1.19135 l -0.96857,0 c -0.002,-0.0119 -0.22397,-1.19134 -0.22397,-1.19134 l -0.96856,0 c -0.002,-0.0119 -0.22397,-1.19134 -0.22397,-1.19134 l -0.93044,0 c -0.002,-0.0107 -0.22397,-1.15441 -0.22397,-1.15441 l -0.96856,0 c -0.002,-0.0119 -0.22398,-1.19135 -0.22398,-1.19135 l -0.96856,0 c -0.002,-0.0119 -0.22397,-1.19134 -0.22397,-1.19134 l -0.96856,0 c -0.002,-0.0119 -0.22397,-1.19134 -0.22397,-1.19134 l -0.96856,0 c -0.002,-0.0119 -0.22398,-1.19134 -0.22398,-1.19134 l -0.96856,0 c -0.002,-0.0119 -0.22397,-1.19135 -0.22397,-1.19135 l -0.96856,0 -0.22397,-1.19134 -0.93044,0 -0.22398,-1.15441 -0.96856,0 c -0.002,-0.0119 -0.22397,-1.19134 -0.22397,-1.19134 l -0.96856,0 c -0.002,-0.0119 -0.22397,-1.19134 -0.22397,-1.19134 l -0.96856,0 c -0.002,-0.0119 -0.22398,-1.19135 -0.22398,-1.19135 l -0.96856,0 c -0.002,-0.0119 -0.22397,-1.19134 -0.22397,-1.19134 l -0.96856,0 c -0.002,-0.0119 -0.22397,-1.19134 -0.22397,-1.19134 l -0.93044,0 c -0.002,-0.0107 -0.22398,-1.15441 -0.22398,-1.15441 l -0.96856,0 c -0.002,-0.0119 -0.22397,-1.19134 -0.22397,-1.19134 l -0.96856,0 c -0.002,-0.0119 -0.22397,-1.19135 -0.22397,-1.19135 l -0.96856,0 c -0.002,-0.0119 -0.22398,-1.19134 -0.22398,-1.19134 l -0.96856,0 -0.22397,-1.19134 -0.96856,0 -0.22397,-1.19134 -0.93044,0 -0.22398,-1.15441 -0.96856,0 c -0.002,-0.0119 -0.22397,-1.19135 -0.22397,-1.19135 l -0.96856,0 c -0.002,-0.0119 -0.22397,-1.19134 -0.22397,-1.19134 l -0.96856,0 c -0.002,-0.0119 -0.22398,-1.19134 -0.22398,-1.19134 l -0.96856,0 c -0.002,-0.0119 -0.22397,-1.19134 -0.22397,-1.19134 l -0.96856,0 c -0.002,-0.0119 -0.22397,-1.19135 -0.22397,-1.19135 l -0.93044,0 c -0.002,-0.0107 -0.22398,-1.15441 -0.22398,-1.15441 l -0.96856,0 c -0.002,-0.0119 -0.22397,-1.19134 -0.22397,-1.19134 l -0.96856,0 c -0.002,-0.0119 -0.22397,-1.19134 -0.22397,-1.19134 l -0.96856,0 c -0.002,-0.0119 -0.22398,-1.19135 -0.22398,-1.19135 l -0.96856,0 -0.22397,-1.19134 -0.96856,0 -0.22397,-1.19134 -0.96857,0 c -0.002,-0.0119 -0.22397,-1.19134 -0.22397,-1.19134 l -0.93044,0 c -0.002,-0.0107 -0.22397,-1.15441 -0.22397,-1.15441 l -0.96856,0 c -0.002,-0.0119 -0.22397,-1.19135 -0.22397,-1.19135 l -0.96856,0 c -0.002,-0.0119 -0.22398,-1.19134 -0.22398,-1.19134 l -0.96856,0 c -0.002,-0.0119 -0.22397,-1.19134 -0.22397,-1.19134 l -0.96856,0 c -0.002,-0.0119 -0.22397,-1.19134 -0.22397,-1.19134 l -0.96857,0 c -0.002,-0.0119 -0.22397,-1.19135 -0.22397,-1.19135 l -0.93044,0 c -0.002,-0.0107 -0.22397,-1.15441 -0.22397,-1.15441 l -0.96856,0 c -0.002,-0.0119 -0.22397,-1.19134 -0.22397,-1.19134 l -0.96856,0 -0.22398,-1.19134 -0.96856,0 -0.22397,-1.19134 -0.96856,0 c -0.002,-0.0119 -0.22397,-1.19135 -0.22397,-1.19135 l -0.96857,0 c -0.002,-0.0119 -0.22397,-1.19134 -0.22397,-1.19134 l -0.93044,0 c -0.002,-0.0107 -0.22397,-1.15441 -0.22397,-1.15441 l -0.96856,0 c -0.002,-0.0119 -0.22397,-1.19134 -0.22397,-1.19134 l -0.96856,0 c -0.002,-0.0119 -0.22398,-1.19134 -0.22398,-1.19134 l -0.96856,0 c -0.002,-0.0119 -0.22397,-1.19135 -0.22397,-1.19135 l -0.96856,0 c -0.002,-0.0119 -0.22397,-1.19134 -0.22397,-1.19134 l -0.96856,0 c -0.002,-0.0119 -0.22398,-1.19134 -0.22398,-1.19134 l -0.96856,0 c -0.002,-0.0119 -0.22397,-1.19134 -0.22397,-1.19134 l -0.93044,0 -0.22397,-1.15442 -0.96856,0 -0.22398,-1.19134 -0.96856,0 -0.22397,-1.19134 -0.96856,0 c -0.002,-0.0119 -0.22397,-1.19134 -0.22397,-1.19134 l -0.96856,0 c -0.002,-0.0119 -0.22398,-1.19134 -0.22398,-1.19134 l -0.96856,0 c -0.002,-0.0119 -0.22397,-1.19135 -0.22397,-1.19135 l -0.93044,0 c -0.002,-0.0107 -0.22397,-1.15441 -0.22397,-1.15441 l -0.96856,0 c -0.002,-0.0119 -0.22398,-1.19134 -0.22398,-1.19134 l -0.96856,0 c -0.002,-0.0119 -0.22397,-1.19134 -0.22397,-1.19134 l -0.96856,0 c -0.002,-0.0119 -0.22397,-1.19135 -0.22397,-1.19135 l -0.96856,0 c -0.002,-0.0119 -0.22398,-1.19134 -0.22398,-1.19134 l -0.96856,0 c -0.002,-0.0119 -0.22397,-1.19134 -0.22397,-1.19134 l -0.93044,0 -0.22397,-1.15441 -0.96856,0 -0.22398,-1.19134 -0.96856,0 c -0.002,-0.0119 -0.22397,-1.19135 -0.22397,-1.19135 l -0.96856,0 c -0.002,-0.0119 -0.22397,-1.19134 -0.22397,-1.19134 l -0.96856,0 c -0.002,-0.0119 -0.22398,-1.19134 -0.22398,-1.19134 l -0.96856,0 c -0.002,-0.0119 -0.22397,-1.19134 -0.22397,-1.19134 l -0.93044,0 c -0.002,-0.0107 -0.22397,-1.15441 -0.22397,-1.15441 l -0.96856,0 c -0.002,-0.0119 -0.22398,-1.19135 -0.22398,-1.19135 l -0.96856,0 c -0.002,-0.0119 -0.22397,-1.19134 -0.22397,-1.19134 l -0.96856,0 c -0.002,-0.0119 -0.22397,-1.19134 -0.22397,-1.19134 l -0.96856,0 c -0.002,-0.0119 -0.22398,-1.19134 -0.22398,-1.19134 l -0.96856,0 -0.22397,-1.19135 -0.96856,0 -0.22397,-1.19134 -0.93044,0 -0.22397,-1.15441 -0.96857,0 c -0.002,-0.0119 -0.22397,-1.19134 -0.22397,-1.19134 l -0.96856,0 c -0.002,-0.0119 -0.22397,-1.19134 -0.22397,-1.19134 l -0.96856,0 c -0.002,-0.0119 -0.22398,-1.19135 -0.22398,-1.19135 l -0.96856,0 c -0.002,-0.0119 -0.22397,-1.19134 -0.22397,-1.19134 l -0.96856,0 c -0.002,-0.0119 -0.22397,-1.19134 -0.22397,-1.19134 l -0.93044,0 c -0.002,-0.0107 -0.22397,-1.15441 -0.22397,-1.15441 l -0.96857,0 c -0.002,-0.0119 -0.22397,-1.19135 -0.22397,-1.19135 l -0.96856,0 c -0.002,-0.0119 -0.22397,-1.19134 -0.22397,-1.19134 l -0.96856,0 c -0.002,-0.0119 -0.22398,-1.191339 -0.22398,-1.191339 l -0.96856,0 -0.22397,-1.19134 -0.96856,0 -0.22397,-1.19135 -0.93044,0 c -0.002,-0.0107 -0.22397,-1.15441 -0.22397,-1.15441 l -0.96857,0 c -0.002,-0.0119 -0.22397,-1.19134 -0.22397,-1.19134 l -0.96856,0 c -0.002,-0.0119 -0.22397,-1.19134 -0.22397,-1.19134 l -0.96856,0 c -0.002,-0.0119 -0.22398,-1.19134 -0.22398,-1.19134 l -0.96856,0 c -0.002,-0.0119 -0.22397,-1.19135 -0.22397,-1.19135 l -0.96856,0 c -0.002,-0.0119 -0.22397,-1.19134 -0.22397,-1.19134 l -0.96856,0 c -0.002,-0.0119 -0.22398,-1.19134 -0.22398,-1.19134 l -0.93044,0 c -0.002,-0.0107 -0.22397,-1.15441 -0.22397,-1.15441 l -0.96856,0 c -0.002,-0.0119 -0.22397,-1.19134 -0.22397,-1.19134 l -0.96856,0 -0.22398,-1.19135 -0.96856,0 -0.22397,-1.19134 -0.96856,0 -0.22397,-1.19134 -0.96856,0 c -0.002,-0.0119 -0.22398,-1.19134 -0.22398,-1.19134 l -0.93044,0 c -0.002,-0.0107 -0.22397,-1.15441 -0.22397,-1.15441 l -0.96856,0 c -0.002,-0.0119 -0.22397,-1.19135 -0.22397,-1.19135 l -0.96856,0 -0.22398,-1.19134 -0.96856,0 c -0.002,-0.0119 -0.22397,-1.19134 -0.22397,-1.19134 l -0.96856,0 c -0.002,-0.0119 -0.22397,-1.19134 -0.22397,-1.19134 l -0.96856,0 c -0.002,-0.0119 -0.22398,-1.19135 -0.22398,-1.19135 l -0.93044,0 c -0.002,-0.0107 -0.22397,-1.15441 -0.22397,-1.15441 l -0.96856,0 c -0.002,-0.0119 -0.22397,-1.19134 -0.22397,-1.19134 l -0.96856,0 -0.22398,-1.19134 -0.96856,0 -0.22397,-1.19135 -0.96856,0 c -0.002,-0.0119 -0.22397,-1.19134 -0.22397,-1.19134 l -0.96856,0 c -0.002,-0.0119 -0.22398,-1.19134 -0.22398,-1.19134 l -0.93044,0 c -0.002,-0.0107 -0.22397,-1.15441 -0.22397,-1.15441 l -0.96856,0 c -0.002,-0.0119 -0.22397,-1.19134 -0.22397,-1.19134 l -0.96856,0 c -0.002,-0.0119 -0.22398,-1.19135 -0.22398,-1.19135 l -0.96856,0 c -0.002,-0.0119 -0.22397,-1.19134 -0.22397,-1.19134 l -15.90442,0"
     id="path12" />
  <text
     id="text18"
     line-height="125%"
     font-size="322.78"
     y="346.13605"
     x="123.1046"
     font-style="italic"
     word-spacing="0"
     letter-spacing="0"
     sodipodi:linespacing="125%"
     style="font-style:italic;font-size:384.54150391px;line-height:125%;font-family:'Century Schoolbook L';letter-spacing:0;word-spacing:0;opacity:0.87599996;fill:#ffffff">
    <tspan
       id="tspan20"
       y="346.13605"
       x="123.1046">A</tspan>
  </text>
  <g
     style="fill-rule:evenodd"
     id="g22"
     transform="translate(0,-540.36)">
    <path
       style="fill-opacity:0.06700003"
       inkscape:connector-curvature="0"
       d="m 256,541.36 c -140.83,0 -255,114.17 -255,255 0,140.83 114.17,255 255,255 140.83,0 255,-114.17 255,-255 0,-140.83 -114.17,-255 -255,-255 m 8.827,44.931 c 120.9,0 218.9,98 218.9,218.9 0,120.9 -98,218.9 -218.9,218.9 -120.9,0 -218.93,-98 -218.93,-218.9 0,-120.9 98.03,-218.9 218.93,-218.9"
       id="path24" />
    <g
       style="fill-opacity:0.12900002"
       id="g26">
      <path
         inkscape:connector-curvature="0"
         d="M 256,544.79 C 117.06,544.79 4.43,657.42 4.43,796.36 4.43,935.3 117.06,1047.9 256,1047.9 394.94,1047.9 507.57,935.3 507.57,796.36 507.57,657.42 394.94,544.79 256,544.79 m 5.885,38.556 c 120.9,0 218.9,98 218.9,218.9 0,120.9 -98,218.9 -218.9,218.9 -120.9,0 -218.93,-98 -218.93,-218.9 0,-120.9 98.03,-218.9 218.93,-218.9"
         id="path28" />
      <path
         inkscape:connector-curvature="0"
         d="M 256,548.72 C 119.23,548.72 8.36,659.59 8.36,796.36 8.36,933.13 119.23,1044 256,1044 392.77,1044 503.64,933.13 503.64,796.36 503.64,659.59 392.77,548.72 256,548.72 m 2.942,31.691 c 120.9,0 218.9,98 218.9,218.9 0,120.9 -98,218.9 -218.9,218.9 -120.9,0 -218.93,-98 -218.93,-218.9 0,-120.9 98.03,-218.9 218.93,-218.9"
         id="path30" />
    </g>
    <path
       style="fill:#ffffff;stroke:#000000;stroke-width:4.90399981;stroke-opacity:0.31000001"
       inkscape:connector-curvature="0"
       d="M 253.04,548.22 C 117.62,548.22 7.85,658 7.85,793.41 c 0,135.42 109.78,245.19 245.19,245.19 135.42,0 245.19,-109.78 245.19,-245.19 0,-135.42 -109.78,-245.19 -245.19,-245.19 z m 0,26.297 c 120.9,0 218.9,98 218.9,218.9 0,120.9 -98,218.9 -218.9,218.9 -120.9,0 -218.93,-98 -218.93,-218.9 0,-120.9 98.03,-218.9 218.93,-218.9 z"
       id="path32" />
  </g>
  <text
     style="font-size:129.22999573px;line-height:125%;font-family:'Gentium Book Basic';letter-spacing:0;word-spacing:0"
     sodipodi:linespacing="125%"
     letter-spacing="0"
     word-spacing="0"
     x="729.64001"
     y="231.35997"
     line-height="125%"
     font-size="129.23"
     id="text34">
    <tspan
       x="729.64001"
       y="231.35997"
       id="tspan36" />
  </text>
  <text
     style="font-size:46.95399857px;font-family:Arial;text-anchor:middle"
     x="378.90805"
     y="579.25812"
     transform="scale(4.0128205,0.24920128)"
     font-size="46.954"
     id="text38" />
  <text
     style="font-size:129.22999573px;line-height:125%;font-family:'Gentium Book Basic';letter-spacing:0;word-spacing:0"
     sodipodi:linespacing="125%"
     letter-spacing="0"
     word-spacing="0"
     x="1310.91"
     y="151.35997"
     line-height="125%"
     font-size="129.23"
     id="text40">
    <tspan
       x="1310.91"
       y="151.35997"
       id="tspan42" />
  </text>
  <text
     style="font-size:46.95399857px;font-family:Arial;text-anchor:middle"
     x="523.75732"
     y="258.21997"
     transform="scale(4.0128205,0.24920128)"
     font-size="46.954"
     id="text44" />
  <text
     style="font-size:129.22999573px;line-height:125%;font-family:'Gentium Book Basic';letter-spacing:0;word-spacing:0"
     sodipodi:linespacing="125%"
     letter-spacing="0"
     word-spacing="0"
     x="239.33"
     y="-29.900009"
     line-height="125%"
     font-size="129.23"
     id="text46">
    <tspan
       x="239.33"
       y="-29.900009"
       id="tspan48" />
  </text>
  <text
     style="font-size:46.95399857px;font-family:Arial;text-anchor:middle"
     x="256.71869"
     y="-469.1264"
     transform="scale(4.0128205,0.24920128)"
     font-size="46.954"
     id="text50" />
  <text
     style="font-size:129.22999573px;line-height:125%;font-family:'Gentium Book Basic';letter-spacing:0;word-spacing:0"
     sodipodi:linespacing="125%"
     letter-spacing="0"
     word-spacing="0"
     x="1337.38"
     y="-246.37001"
     line-height="125%"
     font-size="129.23"
     id="text52">
    <tspan
       x="1337.38"
       y="-246.37001"
       id="tspan54" />
  </text>
  <text
     style="font-size:46.95399857px;font-family:Arial;text-anchor:middle"
     x="530.3573"
     y="-1337.802"
     transform="scale(4.0128205,0.24920128)"
     font-size="46.954"
     id="text56" />
  <text
     style="font-size:129.22999573px;line-height:125%;font-family:'Gentium Book Basic';letter-spacing:0;word-spacing:0"
     sodipodi:linespacing="125%"
     letter-spacing="0"
     word-spacing="0"
     x="1918.65"
     y="-326.37"
     line-height="125%"
     font-size="129.23"
     id="text58">
    <tspan
       x="1918.65"
       y="-326.37"
       id="tspan60" />
  </text>
  <text
     style="font-size:46.95399857px;font-family:Arial;text-anchor:middle"
     x="675.20654"
     y="-1658.8303"
     transform="scale(4.0128205,0.24920128)"
     font-size="46.954"
     id="text62" />
  <text
     style="font-size:129.22999573px;line-height:125%;font-family:'Gentium Book Basic';letter-spacing:0;word-spacing:0"
     sodipodi:linespacing="125%"
     letter-spacing="0"
     word-spacing="0"
     x="1529.53"
     y="-798.77002"
     line-height="125%"
     font-size="129.23"
     id="text64">
    <tspan
       x="1529.53"
       y="-798.77002"
       id="tspan66" />
  </text>
  <text
     style="font-size:46.95399857px;font-family:Arial;text-anchor:middle"
     x="578.237"
     y="-3554.4807"
     transform="scale(4.0128205,0.24920128)"
     font-size="46.954"
     id="text68" />
  <text
     style="font-size:129.22999573px;line-height:125%;font-family:'Gentium Book Basic';letter-spacing:0;word-spacing:0"
     sodipodi:linespacing="125%"
     letter-spacing="0"
     word-spacing="0"
     x="2110.79"
     y="-878.78003"
     line-height="125%"
     font-size="129.23"
     id="text70">
    <tspan
       x="2110.79"
       y="-878.78003"
       id="tspan72" />
  </text>
  <text
     style="font-size:46.95399857px;font-family:Arial;text-anchor:middle"
     x="723.0863"
     y="-3875.519"
     transform="scale(4.0128205,0.24920128)"
     font-size="46.954"
     id="text74" />
  <text
     style="font-size:208.33000183px;line-height:125%;font-family:'Gentium Book Basic';letter-spacing:0;word-spacing:0"
     sodipodi:linespacing="125%"
     letter-spacing="0"
     word-spacing="0"
     x="277.98999"
     y="535.94006"
     line-height="125%"
     font-size="208.33"
     id="text76">
    <tspan
       x="277.98999"
       y="535.94006"
       id="tspan78" />
  </text>
</svg>
