<?xml version="1.0" encoding="UTF-8" standalone="no"?>
<svg
   xmlns:dc="http://purl.org/dc/elements/1.1/"
   xmlns:cc="http://creativecommons.org/ns#"
   xmlns:rdf="http://www.w3.org/1999/02/22-rdf-syntax-ns#"
   xmlns:svg="http://www.w3.org/2000/svg"
   xmlns="http://www.w3.org/2000/svg"
   xmlns:sodipodi="http://sodipodi.sourceforge.net/DTD/sodipodi-0.dtd"
   xmlns:inkscape="http://www.inkscape.org/namespaces/inkscape"
   height="512"
   viewBox="0 0 512 512"
   width="512"
   version="1.1"
   id="svg2"
   inkscape:version="0.91 r13725"
   sodipodi:docname="ubuntu-after-install.svg">
  <defs
     id="defs15" />
  <sodipodi:namedview
     pagecolor="#ffffff"
     bordercolor="#666666"
     borderopacity="1"
     objecttolerance="10"
     gridtolerance="10"
     guidetolerance="10"
     inkscape:pageopacity="0"
     inkscape:pageshadow="2"
     inkscape:window-width="1920"
     inkscape:window-height="1019"
     id="namedview13"
     showgrid="false"
     inkscape:zoom="0.53855176"
     inkscape:cx="709.1987"
     inkscape:cy="604.55188"
     inkscape:window-x="0"
     inkscape:window-y="13"
     inkscape:window-maximized="1"
     inkscape:current-layer="svg2" />
  <metadata
     id="metadata72">
    <rdf:RDF>
      <cc:Work
         rdf:about="">
        <dc:format>image/svg+xml</dc:format>
        <dc:type
           rdf:resource="http://purl.org/dc/dcmitype/StillImage" />
        <dc:title></dc:title>
      </cc:Work>
    </rdf:RDF>
  </metadata>
  <path
     id="path4"
     d="m471.95 253.05c0 120.9-98.01 218.9-218.9 218.9-120.9 0-218.9-98.01-218.9-218.9 0-120.9 98.01-218.9 218.9-218.9 120.9 0 218.9 98.01 218.9 218.9"
     fill-rule="evenodd"
     fill="#f15a24"
     style="fill:#BF9E73;fill-opacity:1" />
  <g
     id="g8"
     fill-rule="evenodd">
    <path
       id="path10"
       fill-opacity="0.067"
       d="m256 1c-140.83 0-255 114.17-255 255s114.17 255 255 255 255-114.17 255-255-114.17-255-255-255m8.827 44.931c120.9 0 218.9 98 218.9 218.9s-98 218.9-218.9 218.9-218.93-98-218.93-218.9 98.03-218.9 218.93-218.9" />
    <g
       id="g12"
       fill-opacity="0.129">
      <path
         id="path14"
         d="m256 4.433c-138.94 0-251.57 112.63-251.57 251.57s112.63 251.57 251.57 251.57 251.57-112.63 251.57-251.57-112.63-251.57-251.57-251.57m5.885 38.556c120.9 0 218.9 98 218.9 218.9s-98 218.9-218.9 218.9-218.93-98-218.93-218.9 98.03-218.9 218.93-218.9" />
      <path
         id="path16"
         d="m256 8.356c-136.77 0-247.64 110.87-247.64 247.64s110.87 247.64 247.64 247.64 247.64-110.87 247.64-247.64-110.87-247.64-247.64-247.64m2.942 31.691c120.9 0 218.9 98 218.9 218.9s-98 218.9-218.9 218.9-218.93-98-218.93-218.9 98.03-218.9 218.93-218.9" />
    </g>
    <path
       id="path18"
       d="m253.04 7.859c-135.42 0-245.19 109.78-245.19 245.19 0 135.42 109.78 245.19 245.19 245.19 135.42 0 245.19-109.78 245.19-245.19 0-135.42-109.78-245.19-245.19-245.19zm0 26.297c120.9 0 218.9 98 218.9 218.9s-98 218.9-218.9 218.9-218.93-98-218.93-218.9 98.03-218.9 218.93-218.9z"
       stroke-opacity="0.31"
       stroke="#000"
       stroke-width="4.904"
       fill="#fff" />
  </g>
  <path
     style="opacity:0.25;fill:#000000;fill-opacity:1;fill-rule:evenodd;stroke:none;stroke-width:1px;stroke-linecap:butt;stroke-linejoin:miter;stroke-opacity:1"
     d="M 353.19117,96.442361 473.98518,215.92339 c 2.47029,65.49596 -15.41341,140.54285 -62.36648,188.74063 -35.59115,35.43455 -76.87208,48.10996 -117.18331,64.66418 C 225.93437,401.98339 81.795898,281.34491 81.795898,281.34491 l 40.119292,-52.71508 39.79483,38.52014 8.64892,-66.32583 13.78627,-54.16036 37.55585,32.90411 c -13.59099,-26.43396 -12.63193,-35.43118 27.4828,-15.74855 l 43.28206,-33.89603 50.99855,45.06682 0.98023,-1.10049 -33.0095,-27.62205 z"
     id="path4151"
     inkscape:connector-curvature="0"
     sodipodi:nodetypes="cccccccccccccccc" />
  <path
     id="path66"
     d="m 334.19478,89.673707 c -18.27251,0 -33.09455,14.791243 -33.09455,33.063753 0,18.27251 14.82204,33.09455 33.09455,33.09455 18.27251,0 33.09456,-14.82204 33.09456,-33.09455 0,-18.27251 -14.82205,-33.063753 -33.09456,-33.063753 m -77.36282,34.587543 c -21.37579,0 -41.55482,4.99914 -59.44697,13.86109 l 24.39376,42.25392 c 10.65471,-4.9636 22.52515,-7.75406 35.04847,-7.75406 43.10705,0 78.53589,32.81966 82.70559,74.82711 l 49.97953,0 c -2.12336,-33.71308 -17.11603,-63.9674 -40.14714,-86.06006 -11.35856,4.45644 -24.5478,3.88769 -35.93835,-2.6862 -11.27679,-6.51108 -18.33768,-17.50231 -20.23827,-29.43081 -11.55644,-3.2431 -23.75746,-5.00743 -36.36136,-5.00743 m -73.02605,21.61514 c -27.01715,17.59829 -47.1713,44.67587 -55.59483,76.45044 9.88216,7.59054 16.27238,19.51785 16.27238,32.9417 0,13.51865 -6.45302,25.5135 -16.45604,33.09456 8.30623,32.17033 28.60375,59.58916 55.90409,77.32728 l 24.485,-42.40559 c -21.00018,-15.08865 -34.71789,-39.70043 -34.71789,-67.5328 0,-27.78497 13.64899,-52.37306 34.58755,-67.47119 l -24.485,-42.40559 m -80.84646,76.29641 c -18.272509,0 -33.094558,14.82205 -33.094558,33.09456 0,18.2725 14.822049,33.09455 33.094558,33.09455 18.27251,0 33.09456,-14.82205 33.09456,-33.09455 0,-18.27251 -14.82205,-33.09456 -33.09456,-33.09456 m 236.67407,40.91023 c -3.71351,42.47431 -39.36273,75.80585 -82.79682,75.80585 -12.48303,0 -24.30252,-2.7644 -34.92643,-7.69363 l -24.39376,42.25392 c 17.85661,8.82521 38.00009,13.79947 59.31664,13.79947 12.31359,0 24.22194,-1.6648 35.53665,-4.76334 1.96222,-11.83015 9.01599,-22.72659 20.21458,-29.18672 11.46757,-6.62128 24.76582,-7.12132 36.1777,-2.56415 23.60105,-22.35808 38.90773,-53.24752 40.81899,-87.6514 l -49.94399,0 m -6.28951,93.08659 c -18.27251,0 -33.09455,14.82204 -33.09455,33.09455 0,18.27251 14.82204,33.06375 33.09455,33.06375 18.27251,0 33.09456,-14.79124 33.09456,-33.06375 0,-18.27251 -14.82205,-33.09455 -33.09456,-33.09455"
     inkscape:connector-curvature="0"
     style="fill:#ffffff" />
  <path
     inkscape:connector-curvature="0"
     style="fill:#ffffff"
     d="m 242.7935,198.80636 0,39.04161 -15.52599,0 c -4.54725,0 -0.35412,3.95055 -0.35412,3.95055 l 27.554,33.29781 0.0107,0.0107 c 0,0 2.24653,2.63216 4.60355,0.26559 3.26817,-3.26498 26.71473,-34.38141 26.71473,-34.38141 0,0 4.14496,-4.14992 -1.37221,-4.14992 l -14.33084,0 0,-38.03238 -27.29903,0 m -21.96599,85.32143 c -6.30616,0 -11.38846,5.06991 -11.38846,11.37783 0,6.30616 5.08089,11.38848 11.38846,11.38848 l 70.80254,0 c 6.30615,0 11.38846,-5.0809 11.38846,-11.38848 0,-6.30614 -5.0809,-11.3743 -11.38846,-11.3743 l -70.80254,0 m -0.34314,5.25655 c 0.10451,-0.005 0.22628,0 0.33215,0 3.38503,0 6.11953,2.7345 6.11953,6.11953 0,3.38502 -2.7345,6.14183 -6.11953,6.14183 -3.38501,0 -6.11952,-2.75646 -6.11952,-6.14183 0,-3.2795 2.54895,-5.95557 5.78772,-6.11953"
     id="path737" />
</svg>
