<?xml version="1.0" encoding="UTF-8" standalone="no"?>
<svg xmlns="http://www.w3.org/2000/svg" height="512" viewBox="0 0 512 512" width="512" version="1.1">
 <metadata id="metadata70"/>
 <defs id="defs68">
  <filter id="filter3174" color-interpolation-filters="sRGB">
   <feGaussianBlur id="feGaussianBlur3176" stdDeviation="1.71"/>
  </filter>
  <linearGradient id="ButtonShadow" gradientUnits="userSpaceOnUse" y1="92.54" gradientTransform="scale(1.0059 .99417)" x2="0" y2="7.02">
   <stop id="stop3750"/>
   <stop id="stop3752" stop-opacity="0.588" offset="1"/>
  </linearGradient>
 </defs>
 <path id="path8" d="m471.95 253.05c0 120.9-98.006 218.91-218.91 218.91s-218.91-98.006-218.91-218.91 98.006-218.91 218.91-218.91 218.91 98.006 218.91 218.91" fill-rule="evenodd" fill="#BF9E73"/>
 <path id="path10" d="m256 1c-140.83 0-255 114.17-255 255s114.17 255 255 255 255-114.17 255-255-114.17-255-255-255m8.827 44.931c120.9 0 218.9 98 218.9 218.9s-98 218.9-218.9 218.9-218.93-98-218.93-218.9 98.03-218.9 218.93-218.9" fill-rule="evenodd" fill-opacity="0.067"/>
 <path id="path14" d="m256 4.43c-138.94 0-251.57 112.63-251.57 251.57s112.63 251.57 251.57 251.57 251.57-112.63 251.57-251.57-112.63-251.57-251.57-251.57m5.885 38.556c120.9 0 218.9 98 218.9 218.9s-98 218.9-218.9 218.9-218.93-98-218.93-218.9 98.03-218.9 218.93-218.9" fill-rule="evenodd" fill-opacity="0.129"/>
 <path id="path16" d="m256 8.36c-136.77 0-247.64 110.87-247.64 247.64s110.87 247.64 247.64 247.64 247.64-110.87 247.64-247.64-110.87-247.64-247.64-247.64m2.942 31.691c120.9 0 218.9 98 218.9 218.9s-98 218.9-218.9 218.9-218.93-98-218.93-218.9 98.03-218.9 218.93-218.9" fill-rule="evenodd" fill-opacity="0.129"/>
 <path id="path18" d="m253.04 7.86c-135.42 0-245.19 109.78-245.19 245.19 0 135.42 109.78 245.19 245.19 245.19 135.42 0 245.19-109.78 245.19-245.19 0-135.42-109.78-245.19-245.19-245.19zm0 26.297c120.9 0 218.9 98 218.9 218.9s-98 218.9-218.9 218.9-218.93-98-218.93-218.9 98.03-218.9 218.93-218.9z" stroke-opacity="0.31" fill-rule="evenodd" stroke="#000" stroke-width="4.904" fill="#fff"/>
 <path id="path3331" opacity="0.25" d="m223.09 98.719c-16.24 4.841-50.68 12.351-51.9 26.221l-3.19-3.19c3.2436 14.715-12.696 26.498-9.6562 36.594l-3.2812-3.2812c-7.6306 11.909-31.195 9.8212-30.156 16.156l-3.1875-3.1875c-8.98 17.03-25.448 39.75-19.9 57.97-0.52973-0.52088-1.059-1.01-1.6562-1.5 0.57342 0.5723 1.1453 1.1464 1.7188 1.7188 0.005 0.005-0.005 0.026 0 0.0312 0.003 0.01-0.003 0.0216 0 0.0312 0.67731 0.67696 1.354 1.3543 2.0312 2.0312 7.274 9.1697 7.0802 21.722 12.75 31.156l-3.4375-3.4375c2.75 14.9-14.098 26.16-11.21 36.16l-3.2812-3.25c4.2034 19.655 11.66 39.056 23.781 55.031-0.2597 0.008-0.5193-0.0129-0.78125 0l3.875 3.875c3.6308 4.3301 7.6433 8.3921 12.062 12.062l30.34 30.38c0.0408 0.032 0.0842 0.0619 0.125 0.0937l3.3125 3.3125c1.8659 3.1947 4.4426 6.053 8.25 8.2812l69.969 69.938c1.1231 0.017 2.2478 0.0625 3.375 0.0625 120.9 0 218.91-98.009 218.91-218.91 0-1.1376-0.014-2.2728-0.0312-3.4062l-78.469-78.438c-0.0215-0.0103-0.0202-0.039-0.0312-0.0312l-3.125-3.1562-27.344-27.344-7.7188-7.7188c-2.789-3.0385-5.5762-6.0642-7.8438-7.8438l-3.5312-3.5312c-12.679-8.9756-48.637-25.496-51.75-19.688l-3.1875-3.1875c-7.0989 12.347-30.692 11.127-29.719 17.688l-3.18-3.17c-11.417 1.8766-27.15-9.7662-28.562-10.156l-4.3438-4.3438z" color="#000000"/>
 <path id="path3683" fill="#fff" d="m223.09 98.723c-19.984 4.1642-38.582 12.186-55.087 23.023 0.48103 12.027-3.7732 24.162-12.942 33.332-9.1693 9.1693-21.305 13.424-33.332 12.942-10.837 16.505-18.859 35.103-23.023 55.087 8.9154 8.1579 14.503 19.872 14.503 32.909s-5.5879 24.751-14.503 32.909c4.1642 19.984 12.186 38.549 23.023 55.054 12.027-0.48103 24.162 3.8057 33.332 12.975 9.1693 9.1693 13.423 21.305 12.942 33.332 16.505 10.837 35.103 18.827 55.087 22.991 8.1579-8.9154 19.872-14.471 32.909-14.471s24.751 5.5554 32.909 14.471c19.92-4.1508 38.459-12.078 54.924-22.861-0.0281-0.64405 0-1.3072 0-1.9511 0-11.419 4.3928-22.798 13.105-31.511 9.1693-9.1693 21.305-13.456 33.332-12.975 10.837-16.505 18.859-35.07 23.023-55.054-8.9154-8.1579-14.503-19.872-14.503-32.909s5.5879-24.751 14.503-32.909c-4.1642-19.984-12.186-38.582-23.023-55.087-12.027 0.48104-24.162-3.7732-33.332-12.942-8.7122-8.7122-13.105-20.092-13.105-31.511 0-0.64394-0.0281-1.3396 0-1.9836-16.46-10.77-35-18.7-54.92-22.847-8.16 8.917-19.87 14.507-32.91 14.507-13.037 0-24.751-5.5879-32.909-14.503zm77.297 55.249c0.36144-0.0184 0.73961 0 1.1056 0 11.713 0 21.17 9.5117 21.17 21.267 0 11.756-9.457 21.3-21.17 21.3s-21.202-9.5442-21.202-21.3c0-11.388 8.8917-20.697 20.097-21.267zm-43.673 16.65c4.7603 0 9.7224 0.60698 14.829 1.4959 0.80185 0.13964 1.3983 0.91124 1.3983 1.7235 0 0.0273 0.002 0.57702 0 0.58534 0.002 16.303 13.262 29.625 29.592 29.625 5.5977 0 11.122-1.6814 15.999-4.8453 0.68998-0.44782 1.6004-0.38539 2.1462 0.22763 12.096 13.512 19.752 30.923 21.495 48.908 0.044 0.47339-0.13824 0.91745-0.45526 1.2682-0.31701 0.35082-0.79695 0.5203-1.2682 0.5203h-32.291c-0.8188 0-1.4971-0.58435-1.6259-1.3983-3.8482-24.24-25.275-42.502-49.819-42.502-6.6725 0-13.277 1.2974-19.641 3.9998-0.75439 0.31844-1.6456 0.0443-2.0812-0.65037l-17.202-27.348c-0.25086-0.40187-0.25889-0.87691-0.13007-1.3333 0.12714-0.45636 0.38918-0.82946 0.81297-1.0406 11.918-5.9156 25.17-9.2332 38.242-9.2353zm-51.542 17.853c0.10986 0.002 0.2095 0.012 0.32519 0.0325 0.46281 0.0817 0.85475 0.34946 1.1056 0.74793l17.202 27.316c0.43909 0.69988 0.26106 1.603-0.35771 2.1462-10.978 9.6057-17.267 23.436-17.267 37.917 0 14.374 6.24 28.119 17.105 37.722 0.61881 0.54662 0.73511 1.4823 0.29267 2.1788l-17.332 27.218c-0.2526 0.39677-0.64283 0.76547-1.1056 0.84549-0.46449 0.0818-0.89696-0.0991-1.2682-0.39023-13.843-10.82-24.287-26.01-29.364-42.73-0.20004-0.66068-0.0171-1.3611 0.5203-1.7885 7.0455-5.604 11.284-14.208 11.284-23.056 0-8.8479-4.2402-17.484-11.284-23.088-0.54065-0.42911-0.72032-1.1295-0.5203-1.7885 5.118-16.861 15.641-32.114 29.657-42.957 0.18393-0.14383 0.45914-0.23752 0.6829-0.29267 0.11189-0.0276 0.21533-0.0342 0.32518-0.0325zm50.82 31.84c19.714 0 35.706 15.992 35.706 35.706s-15.992 35.706-35.706 35.706-35.706-15.992-35.706-35.706 15.992-35.706 35.706-35.706zm-98.955 14.926c11.987 0 21.69 9.788 21.69 21.82s-9.703 21.755-21.69 21.755-21.723-9.723-21.723-21.755 9.7355-21.82 21.723-21.82zm183.41 28.161c0.47128-0.002 0.94948 0.16783 1.2682 0.5203 0.31866 0.3525 0.50272 0.79655 0.45526 1.2682-1.919 19.22-10.495 37.481-24.031 51.347-0.51706 0.52957-1.2659 0.66746-1.9186 0.32518-4.2924-2.2477-9.0488-3.447-13.69-3.447-14.972 0-27.577 11.268-29.299 26.21-0.0865 0.73391-0.6077 1.3031-1.3333 1.4308-5.1688 0.92124-10.282 1.3983-15.186 1.3983-13.223 0-26.589-3.1954-38.6-9.2353-0.42213-0.21116-0.68759-0.58424-0.81297-1.0406-0.12537-0.45805-0.12251-0.93309 0.13008-1.3333l17.332-27.316c0.44247-0.68963 1.3285-0.93969 2.0812-0.61786 6.4352 2.7688 13.118 4.1949 19.869 4.1949 24.476 0 45.82-18.15 49.721-42.209 0.13053-0.80714 0.90808-1.4287 1.7235-1.4308l32.291-0.065zm-38.144 57.526c11.987 0 21.69 9.72 21.69 21.69s-9.703 21.657-21.69 21.657-21.723-9.6875-21.723-21.657 9.7355-21.69 21.723-21.69z" color="#000000"/>
</svg>
