<?xml version="1.0" encoding="UTF-8" standalone="no"?>
<svg xmlns="http://www.w3.org/2000/svg" viewBox="0 0 512 512">
 <g fill-rule="evenodd">
  <path fill-opacity="0.929" d="m471.95 253.05c0 120.9-98.01 218.91-218.91 218.91s-218.91-98.01-218.91-218.91 98.01-218.91 218.91-218.91 218.91 98.01 218.91 218.91" fill="#BF9E73"/>
  <path d="m256 1c-140.83 0-255 114.17-255 255s114.17 255 255 255 255-114.17 255-255-114.17-255-255-255m8.827 44.931c120.9 0 218.9 98 218.9 218.9s-98 218.9-218.9 218.9-218.93-98-218.93-218.9 98.03-218.9 218.93-218.9" fill-opacity="0.067"/>
  <g fill-opacity="0.129">
   <path d="m256 4.43c-138.94 0-251.57 112.63-251.57 251.57s112.63 251.57 251.57 251.57 251.57-112.63 251.57-251.57-112.63-251.57-251.57-251.57m5.885 38.556c120.9 0 218.9 98 218.9 218.9s-98 218.9-218.9 218.9-218.93-98-218.93-218.9 98.03-218.9 218.93-218.9"/>
   <path d="m256 8.36c-136.77 0-247.64 110.87-247.64 247.64s110.87 247.64 247.64 247.64 247.64-110.87 247.64-247.64-110.87-247.64-247.64-247.64m2.942 31.691c120.9 0 218.9 98 218.9 218.9s-98 218.9-218.9 218.9-218.93-98-218.93-218.9 98.03-218.9 218.93-218.9"/>
  </g>
  <path stroke="#000" stroke-width="4.904" d="m253.04 7.86c-135.42 0-245.19 109.78-245.19 245.19 0 135.42 109.78 245.19 245.19 245.19 135.42 0 245.19-109.78 245.19-245.19 0-135.42-109.78-245.19-245.19-245.19m0 26.297c120.9 0 218.9 98 218.9 218.9s-98 218.9-218.9 218.9-218.93-98-218.93-218.9 98.03-218.9 218.93-218.9z" stroke-opacity="0.31" fill="#fff"/>
 </g>
 <path opacity="0.25" d="m160.95 115.67c-23.965 0-43.35 19.383-43.35 43.35 0 11.969 4.867 22.81 12.721 30.664l19.973 19.973v13.283h-37.29v23.326l31.789 31.789-30.688 30.844 16.531 16.531 145.33 145.33c70.34-7.325 130.77-47.962 165.26-105.86l-56.23-56.23c-12.52-12.52-32.494-21.664-55.936-24.885l-124.78-124.78v-0.002c-0.001-23.964-19.381-43.35-43.35-43.35"/>
 <path d="m160.95 115.67c-23.965 0-43.35 19.382-43.35 43.35 0 20.251 13.934 37.28 32.694 42.06v21.857h-37.29v23.327h37.29v26.27l-36.18 36.37 16.531 16.531 31.408-31.592 31.408 31.592 16.531-16.531-36.37-36.551v-26.08h37.29v-23.327h-37.29v-22.408c7.841-2.403 14.764-6.827 20.02-12.857l96.43 96.43c-39.22 5.893-68.51 28.336-68.51 55.29 0 31.434 39.703 56.939 88.71 56.939 49.01 0 88.71-25.505 88.71-56.939 0-29.47-34.781-53.657-79.53-56.57l-115.71-115.71c0.483-2.591 0.551-5.351 0.551-8.08 0-23.965-19.382-43.35-43.35-43.35" fill="#fff"/>
</svg>
