<?xml version="1.0" encoding="UTF-8" standalone="no"?>
<svg xmlns="http://www.w3.org/2000/svg" height="512" viewBox="0 0 512 512" width="512" version="1.1">
 <metadata id="metadata72"/>
 <path id="path4" d="m471.95 253.05c0 120.9-98.01 218.9-218.9 218.9-120.9 0-218.9-98.01-218.9-218.9 0-120.9 98.01-218.9 218.9-218.9 120.9 0 218.9 98.01 218.9 218.9" fill-rule="evenodd" fill="#BF9E73"/>
 <path id="path6" fill-opacity="0.235" d="m171.94 177.06c-40.876 0-73.78 32.937-73.78 73.813v10.25c0 20.845 8.567 39.631 22.375 53.03 0.062 0.063 0.125 0.125 0.188 0.188 0.154 0.148 0.314 0.291 0.469 0.438 0.32 0.327 0.643 0.648 0.969 0.969 0.257 0.263 0.52 0.522 0.781 0.781 0.421 0.434 0.819 0.889 1.25 1.313 0.33 0.337 0.664 0.67 1 1 0.428 0.437 0.874 0.855 1.313 1.281 0.253 0.255 0.524 0.499 0.781 0.75 0.263 0.268 0.514 0.549 0.781 0.813 0.272 0.279 0.567 0.538 0.844 0.813 0.421 0.434 0.819 0.889 1.25 1.313 0.33 0.337 0.664 0.67 1 1 0.428 0.437 0.874 0.855 1.313 1.281 0.253 0.255 0.524 0.499 0.781 0.75 0.289 0.294 0.581 0.586 0.875 0.875 0.242 0.248 0.473 0.506 0.719 0.75 0.426 0.439 0.845 0.884 1.281 1.313 0.33 0.337 0.664 0.67 1 1 0.423 0.431 0.879 0.829 1.313 1.25 0.259 0.261 0.519 0.524 0.781 0.781 0.289 0.294 0.581 0.586 0.875 0.875 0.242 0.248 0.473 0.506 0.719 0.75 0.426 0.439 0.845 0.884 1.281 1.313 0.33 0.337 0.664 0.67 1 1 0.33 0.337 0.664 0.67 1 1 0.428 0.437 0.874 0.855 1.313 1.281 0.062 0.063 0.125 0.125 0.188 0.188 0.154 0.148 0.314 0.291 0.469 0.438 0.32 0.327 0.643 0.648 0.969 0.969 0.257 0.263 0.52 0.522 0.781 0.781 0.421 0.434 0.819 0.889 1.25 1.313 0.33 0.337 0.664 0.67 1 1 0.428 0.437 0.874 0.855 1.313 1.281 0.253 0.255 0.524 0.499 0.781 0.75 0.289 0.294 0.581 0.586 0.875 0.875 0.248 0.253 0.498 0.5 0.75 0.75 0.421 0.434 0.819 0.889 1.25 1.313 0.33 0.337 0.664 0.67 1 1 0.423 0.431 0.879 0.829 1.313 1.25 0.259 0.261 0.519 0.524 0.781 0.781 0.289 0.294 0.581 0.586 0.875 0.875 0.242 0.248 0.473 0.506 0.719 0.75 0.426 0.439 0.845 0.884 1.281 1.313 0.33 0.337 0.664 0.67 1 1 0.33 0.337 0.664 0.67 1 1 0.428 0.437 0.874 0.855 1.313 1.281 0.062 0.063 0.125 0.125 0.188 0.188 0.154 0.148 0.314 0.291 0.469 0.438 0.32 0.327 0.643 0.648 0.969 0.969 0.257 0.263 0.52 0.522 0.781 0.781 0.421 0.434 0.819 0.889 1.25 1.313 0.33 0.337 0.664 0.67 1 1 0.428 0.437 0.874 0.855 1.313 1.281 0.253 0.255 0.524 0.499 0.781 0.75 0.263 0.268 0.514 0.549 0.781 0.813 0.272 0.279 0.567 0.538 0.844 0.813 0.421 0.434 0.819 0.889 1.25 1.313 0.33 0.337 0.664 0.67 1 1 0.428 0.437 0.874 0.855 1.313 1.281 0.253 0.255 0.524 0.499 0.781 0.75 0.289 0.294 0.581 0.586 0.875 0.875 0.242 0.248 0.473 0.506 0.719 0.75 0.426 0.439 0.845 0.884 1.281 1.313 0.33 0.337 0.664 0.67 1 1 0.423 0.431 0.879 0.829 1.313 1.25 0.259 0.261 0.519 0.524 0.781 0.781 0.289 0.294 0.581 0.586 0.875 0.875 0.242 0.248 0.473 0.506 0.719 0.75 0.426 0.439 0.845 0.884 1.281 1.313 0.33 0.337 0.664 0.67 1 1 0.33 0.337 0.664 0.67 1 1 0.428 0.437 0.874 0.855 1.313 1.281 0.062 0.063 0.125 0.125 0.188 0.188 0.154 0.148 0.314 0.291 0.469 0.438 0.32 0.327 0.643 0.648 0.969 0.969 0.257 0.263 0.52 0.522 0.781 0.781 0.421 0.434 0.819 0.889 1.25 1.313 0.33 0.337 0.664 0.67 1 1 0.428 0.437 0.874 0.855 1.313 1.281 0.253 0.255 0.524 0.499 0.781 0.75 0.289 0.294 0.581 0.586 0.875 0.875 0.248 0.253 0.498 0.5 0.75 0.75 0.421 0.434 0.819 0.889 1.25 1.313 0.33 0.337 0.664 0.67 1 1 0.423 0.431 0.879 0.829 1.313 1.25 0.259 0.261 0.519 0.524 0.781 0.781 0.289 0.294 0.581 0.586 0.875 0.875 0.242 0.248 0.473 0.506 0.719 0.75 0.426 0.439 0.845 0.884 1.281 1.313 0.33 0.337 0.664 0.67 1 1 0.33 0.337 0.664 0.67 1 1 0.428 0.437 0.874 0.855 1.313 1.281 0.062 0.063 0.125 0.125 0.188 0.188 0.154 0.148 0.314 0.291 0.469 0.438 0.32 0.327 0.643 0.648 0.969 0.969 0.257 0.263 0.52 0.522 0.781 0.781 0.421 0.434 0.819 0.889 1.25 1.313 0.33 0.337 0.664 0.67 1 1 0.428 0.437 0.874 0.855 1.313 1.281 0.253 0.255 0.524 0.499 0.781 0.75 0.263 0.268 0.514 0.549 0.781 0.813 0.272 0.279 0.567 0.538 0.844 0.813 0.421 0.434 0.819 0.889 1.25 1.313 0.33 0.337 0.664 0.67 1 1 0.428 0.437 0.874 0.855 1.313 1.281 0.253 0.255 0.524 0.499 0.781 0.75 0.289 0.294 0.581 0.586 0.875 0.875 0.242 0.248 0.473 0.506 0.719 0.75 0.426 0.439 0.845 0.884 1.281 1.313 0.33 0.337 0.664 0.67 1 1 0.423 0.431 0.879 0.829 1.313 1.25 0.259 0.261 0.519 0.524 0.781 0.781 0.289 0.294 0.581 0.586 0.875 0.875 0.242 0.248 0.473 0.506 0.719 0.75 0.426 0.439 0.845 0.884 1.281 1.313 0.33 0.337 0.664 0.67 1 1 0.33 0.337 0.664 0.67 1 1 0.428 0.437 0.874 0.855 1.313 1.281 0.062 0.063 0.125 0.125 0.188 0.188 0.154 0.148 0.314 0.291 0.469 0.438 0.32 0.327 0.643 0.648 0.969 0.969 0.257 0.263 0.52 0.522 0.781 0.781 0.421 0.434 0.819 0.889 1.25 1.313 0.33 0.337 0.664 0.67 1 1 0.428 0.437 0.874 0.855 1.313 1.281 0.253 0.255 0.524 0.499 0.781 0.75 0.289 0.294 0.581 0.586 0.875 0.875 0.248 0.253 0.498 0.5 0.75 0.75 0.421 0.434 0.819 0.889 1.25 1.313 0.33 0.337 0.664 0.67 1 1 0.423 0.431 0.879 0.829 1.313 1.25 0.259 0.261 0.519 0.524 0.781 0.781 0.289 0.294 0.581 0.586 0.875 0.875 0.242 0.248 0.473 0.506 0.719 0.75 0.426 0.439 0.845 0.884 1.281 1.313 0.33 0.337 0.664 0.67 1 1 0.423 0.431 0.879 0.829 1.313 1.25 0.259 0.261 0.519 0.524 0.781 0.781 0.289 0.294 0.581 0.586 0.875 0.875 0.32 0.327 0.643 0.648 0.969 0.969 0.257 0.263 0.52 0.522 0.781 0.781 0.421 0.434 0.819 0.889 1.25 1.313 0.33 0.337 0.664 0.67 1 1 0.428 0.437 0.874 0.855 1.313 1.281 0.253 0.255 0.524 0.499 0.781 0.75 0.263 0.268 0.514 0.549 0.781 0.813 0.272 0.279 0.567 0.538 0.844 0.813 0.421 0.434 0.819 0.889 1.25 1.313 0.33 0.337 0.664 0.67 1 1 0.428 0.437 0.874 0.855 1.313 1.281 0.253 0.255 0.524 0.499 0.781 0.75 0.289 0.294 0.581 0.586 0.875 0.875 0.242 0.248 0.473 0.506 0.719 0.75 0.426 0.439 0.845 0.884 1.281 1.313 0.33 0.337 0.664 0.67 1 1 0.423 0.431 0.879 0.829 1.313 1.25 0.259 0.261 0.519 0.524 0.781 0.781 0.289 0.294 0.581 0.586 0.875 0.875 0.242 0.248 0.473 0.506 0.719 0.75 0.426 0.439 0.845 0.884 1.281 1.313 0.33 0.337 0.664 0.67 1 1 0.33 0.337 0.664 0.67 1 1 0.428 0.437 0.874 0.855 1.313 1.281 0.062 0.063 0.125 0.125 0.188 0.188 0.021 0.02 0.041 0.042 0.063 0.063 101.75-11.07 182.54-91.84 193.63-193.59-0.409-0.424-0.798-0.868-1.219-1.281-0.33-0.337-0.664-0.67-1-1-0.49-0.5-0.996-0.983-1.5-1.469-0.192-0.192-0.4-0.373-0.594-0.563-0.32-0.326-0.642-0.649-0.969-0.969-0.147-0.155-0.289-0.315-0.438-0.469-0.062-0.063-0.125-0.125-0.188-0.188-0.426-0.439-0.845-0.884-1.281-1.313-0.33-0.337-0.664-0.67-1-1-0.49-0.5-0.996-0.983-1.5-1.469-0.192-0.192-0.4-0.373-0.594-0.563-0.32-0.326-0.642-0.649-0.969-0.969-0.289-0.295-0.581-0.585-0.875-0.875-0.257-0.263-0.52-0.522-0.781-0.781-0.421-0.434-0.819-0.889-1.25-1.313-0.33-0.337-0.664-0.67-1-1-0.49-0.5-0.996-0.983-1.5-1.469-0.182-0.182-0.378-0.351-0.563-0.531-0.289-0.295-0.581-0.585-0.875-0.875-0.257-0.263-0.52-0.522-0.781-0.781-0.421-0.434-0.819-0.889-1.25-1.313-0.33-0.337-0.664-0.67-1-1-0.49-0.5-0.996-0.983-1.5-1.469-0.192-0.192-0.4-0.373-0.594-0.563-0.32-0.326-0.642-0.649-0.969-0.969-0.147-0.155-0.289-0.315-0.438-0.469-0.068-0.068-0.15-0.12-0.219-0.188-0.421-0.434-0.819-0.889-1.25-1.313-0.33-0.337-0.664-0.67-1-1-0.49-0.5-0.996-0.983-1.5-1.469-0.192-0.192-0.4-0.373-0.594-0.563-0.32-0.326-0.642-0.649-0.969-0.969-0.147-0.155-0.289-0.315-0.438-0.469-0.062-0.063-0.125-0.125-0.188-0.188-0.426-0.439-0.845-0.884-1.281-1.313-0.33-0.337-0.664-0.67-1-1-0.33-0.337-0.664-0.67-1-1-0.49-0.5-0.996-0.983-1.5-1.469-0.182-0.182-0.378-0.351-0.563-0.531-0.289-0.294-0.581-0.585-0.875-0.875-0.257-0.263-0.52-0.522-0.781-0.781-0.421-0.434-0.819-0.889-1.25-1.313-0.33-0.337-0.664-0.67-1-1-0.49-0.5-0.996-0.983-1.5-1.469-0.207-0.207-0.416-0.42-0.625-0.625-0.264-0.268-0.545-0.518-0.813-0.781-0.257-0.263-0.52-0.522-0.781-0.781-0.421-0.434-0.819-0.889-1.25-1.313-0.33-0.337-0.664-0.67-1-1-0.49-0.5-0.996-0.983-1.5-1.469-0.192-0.192-0.4-0.373-0.594-0.563-0.32-0.326-0.642-0.649-0.969-0.969-0.147-0.155-0.289-0.315-0.438-0.469-0.062-0.063-0.125-0.125-0.188-0.188-0.426-0.439-0.845-0.884-1.281-1.313-0.33-0.337-0.664-0.67-1-1-0.49-0.5-0.996-0.983-1.5-1.469-0.192-0.192-0.4-0.373-0.594-0.563-0.32-0.326-0.642-0.649-0.969-0.969-0.147-0.155-0.289-0.315-0.438-0.469-0.062-0.063-0.125-0.125-0.188-0.188-0.426-0.439-0.845-0.884-1.281-1.313-0.33-0.337-0.664-0.67-1-1-0.33-0.337-0.664-0.67-1-1-0.49-0.5-0.996-0.983-1.5-1.469-0.182-0.182-0.378-0.351-0.563-0.531-0.289-0.294-0.581-0.585-0.875-0.875-0.257-0.263-0.52-0.522-0.781-0.781-0.421-0.434-0.819-0.889-1.25-1.313-0.33-0.337-0.664-0.67-1-1-0.49-0.5-0.996-0.983-1.5-1.469-0.192-0.192-0.4-0.373-0.594-0.563-0.32-0.326-0.642-0.649-0.969-0.969-0.147-0.155-0.289-0.315-0.438-0.469-0.068-0.068-0.15-0.12-0.219-0.188-0.421-0.434-0.819-0.889-1.25-1.313-0.33-0.337-0.664-0.67-1-1-0.49-0.5-0.996-0.983-1.5-1.469-0.192-0.192-0.4-0.373-0.594-0.563-0.32-0.326-0.642-0.649-0.969-0.969-0.147-0.155-0.289-0.315-0.438-0.469-0.062-0.063-0.125-0.125-0.188-0.188-0.426-0.439-0.845-0.884-1.281-1.313-0.33-0.337-0.664-0.67-1-1-0.33-0.337-0.664-0.67-1-1-13.373-13.639-32.03-22.06-52.719-22.06h-168.12" color="#000000"/>
 <g id="g8" fill-rule="evenodd">
  <path id="path10" fill-opacity="0.067" d="m256 1c-140.83 0-255 114.17-255 255s114.17 255 255 255 255-114.17 255-255-114.17-255-255-255m8.827 44.931c120.9 0 218.9 98 218.9 218.9s-98 218.9-218.9 218.9-218.93-98-218.93-218.9 98.03-218.9 218.93-218.9"/>
  <g id="g12" fill-opacity="0.129">
   <path id="path14" d="m256 4.433c-138.94 0-251.57 112.63-251.57 251.57s112.63 251.57 251.57 251.57 251.57-112.63 251.57-251.57-112.63-251.57-251.57-251.57m5.885 38.556c120.9 0 218.9 98 218.9 218.9s-98 218.9-218.9 218.9-218.93-98-218.93-218.9 98.03-218.9 218.93-218.9"/>
   <path id="path16" d="m256 8.356c-136.77 0-247.64 110.87-247.64 247.64s110.87 247.64 247.64 247.64 247.64-110.87 247.64-247.64-110.87-247.64-247.64-247.64m2.942 31.691c120.9 0 218.9 98 218.9 218.9s-98 218.9-218.9 218.9-218.93-98-218.93-218.9 98.03-218.9 218.93-218.9"/>
  </g>
  <path id="path18" d="m253.04 7.859c-135.42 0-245.19 109.78-245.19 245.19 0 135.42 109.78 245.19 245.19 245.19 135.42 0 245.19-109.78 245.19-245.19 0-135.42-109.78-245.19-245.19-245.19zm0 26.297c120.9 0 218.9 98 218.9 218.9s-98 218.9-218.9 218.9-218.93-98-218.93-218.9 98.03-218.9 218.93-218.9z" stroke-opacity="0.31" stroke="#000" stroke-width="4.904" fill="#fff"/>
 </g>
 <path id="path66" fill="#fff" d="m340.06 177.06c40.876 0 73.78 32.937 73.78 73.813v10.25c0 40.876-32.906 73.813-73.78 73.813h-168.12c-40.876 0-73.78-32.937-73.78-73.813v-10.25c0-40.876 32.906-73.813 73.78-73.813h168.13m-163 20.969c-32.02 0-57.969 25.953-57.969 57.969 0 32.02 25.953 57.969 57.969 57.969 32.02 0 57.969-25.953 57.969-57.969 0-32.02-25.953-57.969-57.969-57.969" color="#000000"/>
</svg>
