<?xml version="1.0" encoding="UTF-8" standalone="no"?>
<svg xmlns="http://www.w3.org/2000/svg" height="512" viewBox="0 0 512 512" width="512" version="1.1">
 <metadata id="metadata78"/>
 <path id="path4" d="m471.95 253.05c0 120.9-98.01 218.9-218.9 218.9-120.9 0-218.9-98.01-218.9-218.9 0-120.9 98.01-218.9 218.9-218.9 120.9 0 218.9 98.01 218.9 218.9" fill-rule="evenodd" fill="#BF9E73"/>
 <path id="path6" fill-opacity="0.235" d="m121 139.78-3.375 4.313v11.875c0.015 0.012 0.627 0.51 1 0.813v0.188c0.015 0.012 0.627 0.511 1 0.813v0.188l1 0.813v0.188c0.015 0.012 0.616 0.496 0.969 0.781v0.188c0.015 0.012 0.627 0.511 1 0.813v0.188c0.015 0.012 0.627 0.511 1 0.813v0.188c0.015 0.012 0.627 0.511 1 0.813v0.188l1 0.813v0.188c0.015 0.012 0.627 0.511 1 0.813v0.188l0.969 0.781v0.188l1 0.813v0.188c0.015 0.012 0.627 0.511 1 0.813v0.188l1 0.813v0.188c0.014 0.012 0.627 0.511 1 0.813v0.188c0.014 0.012 0.627 0.511 1 0.813v0.188c0.014 0.011 0.617 0.496 0.969 0.781v0.188c0.014 0.011 0.627 0.511 1 0.813v0.188l1 0.813v0.188c0.014 0.011 0.627 0.511 1 0.813v0.188c0.006 0.005 0.328 0.28 0.406 0.344v192.56c0.036 0.059 2.344 3.844 2.344 3.844h0.406c0.229 0.376 0.594 1 0.594 1h0.406c0.229 0.376 0.594 1 0.594 1h0.406c0.229 0.376 0.594 1 0.594 1h0.375l0.594 0.969h0.406c0.229 0.376 0.594 1 0.594 1h0.406l0.594 1h0.406c0.229 0.376 0.594 1 0.594 1h0.406c0.229 0.376 0.594 1 0.594 1h0.406c0.229 0.376 0.594 1 0.594 1h0.375c0.22 0.362 0.594 0.969 0.594 0.969h0.406c0.229 0.376 0.594 1 0.594 1h0.406l0.594 1h0.406c0.229 0.376 0.594 1 0.594 1h0.406c0.229 0.376 0.594 1 0.594 1h0.406c0.229 0.376 0.594 1 0.594 1h0.375c0.221 0.362 0.594 0.969 0.594 0.969h0.406c0.229 0.376 0.594 1 0.594 1h0.406l0.594 1h0.406c0.229 0.376 0.594 1 0.594 1h0.406c0.229 0.376 0.594 1 0.594 1h0.406c0.229 0.376 0.594 1 0.594 1h0.375c0.224 0.368 0.594 0.969 0.594 0.969h0.406c0.229 0.376 0.594 1 0.594 1h0.406c0.229 0.376 0.594 1 0.594 1h0.406c0.229 0.376 0.594 1 0.594 1h0.406l0.594 1h0.406c0.229 0.376 0.594 1 0.594 1h0.406c0.229 0.376 0.594 1 0.594 1h0.375c0.221 0.362 0.594 0.969 0.594 0.969h0.406c0.229 0.376 0.594 1 0.594 1h0.406c0.229 0.376 0.594 1 0.594 1h0.406l0.594 1h0.406c0.229 0.376 0.594 1 0.594 1h0.406c0.229 0.376 0.594 1 0.594 1h0.375c0.221 0.362 0.594 0.969 0.594 0.969h0.406c0.23 0.376 0.594 1 0.594 1h0.406l0.594 1h0.406l0.594 1h0.406c0.23 0.377 0.594 1 0.594 1h0.406l0.594 1h0.375c0.221 0.362 0.594 0.969 0.594 0.969h0.406c0.23 0.377 0.594 1 0.594 1h0.406c0.23 0.377 0.594 1 0.594 1h0.406c0.23 0.377 0.594 1 0.594 1h0.406c0.23 0.377 0.594 1 0.594 1h0.406l0.594 1h0.406c0.23 0.377 0.594 1 0.594 1h0.375c0.221 0.362 0.594 0.969 0.594 0.969h0.406c0.23 0.377 0.594 1 0.594 1h0.406c0.23 0.377 0.594 1 0.594 1h0.406l0.594 1h0.406l0.594 1h0.406c0.23 0.377 0.594 1 0.594 1h0.375c0.221 0.363 0.594 0.969 0.594 0.969h0.406c0.23 0.377 0.594 1 0.594 1h0.406c0.23 0.377 0.594 1 0.594 1h0.406c0.23 0.377 0.594 1 0.594 1h0.406c0.23 0.377 0.594 1 0.594 1h0.406c0.23 0.377 0.594 1 0.594 1h0.375l0.594 0.969h0.406c0.23 0.377 0.594 1 0.594 1h0.406c0.23 0.377 0.594 1 0.594 1h0.406c0.23 0.377 0.594 1 0.594 1h0.406c0.23 0.377 0.594 1 0.594 1h0.406l0.594 1h0.375l0.594 0.969h0.406c0.23 0.377 0.594 1 0.594 1h0.406c0.23 0.377 0.594 1 0.594 1h0.406c0.23 0.377 0.594 1 0.594 1h0.406c0.23 0.377 0.594 1 0.594 1h0.406l0.594 1h0.406l0.594 1h0.375c0.221 0.363 0.594 0.969 0.594 0.969h0.406l0.594 1h0.406c0.23 0.377 0.594 1 0.594 1h0.406c0.23 0.377 0.594 1 0.594 1h0.406c0.23 0.377 0.594 1 0.594 1h0.406c0.23 0.377 0.594 1 0.594 1h0.375l0.594 0.969h0.406l0.594 1h0.406c0.23 0.378 0.594 1 0.594 1h0.406c0.23 0.378 0.594 1 0.594 1h0.406c0.23 0.378 0.594 1 0.594 1h0.406c0.23 0.378 0.594 1 0.594 1h0.375l0.594 0.969h0.406l0.594 1h0.406c0.23 0.378 0.594 1 0.594 1h0.406c0.23 0.378 0.594 1 0.594 1h0.406c0.23 0.378 0.594 1 0.594 1h0.406c0.23 0.378 0.594 1 0.594 1h0.406c0.23 0.378 0.594 1 0.594 1h0.375c0.222 0.364 0.594 0.969 0.594 0.969h0.406c0.23 0.378 0.594 1 0.594 1h0.406c0.23 0.378 0.594 1 0.594 1h0.406c0.23 0.378 0.594 1 0.594 1h0.406c0.23 0.378 0.594 1 0.594 1h0.406c0.23 0.378 0.594 1 0.594 1h0.375c0.222 0.364 0.594 0.969 0.594 0.969h0.406l0.594 1h0.406c0.23 0.378 0.594 1 0.594 1h0.406c0.086 0.141 0.122 0.211 0.219 0.375 4.51 0.277 9.04 0.469 13.625 0.469 120.9 0 218.91-98.01 218.91-218.91 0-12.547-1.067-24.843-3.094-36.813-0.759-0.576-0.819-0.616-0.844-0.625v-0.281c-0.992-0.759-0.973-0.709-1-0.719v-0.281c-0.972-0.744-0.937-0.706-0.969-0.719v-0.25c-0.977-0.748-0.97-0.738-1-0.75v-0.25c-0.977-0.748-0.97-0.738-1-0.75v-0.25c-0.977-0.748-0.97-0.738-1-0.75v-0.25c-0.992-0.759-0.973-0.709-1-0.719v-0.281c-0.992-0.759-0.973-0.709-1-0.719v-0.281c-0.992-0.759-0.973-0.709-1-0.719v-0.281c-0.972-0.744-0.937-0.706-0.969-0.719v-0.25c-0.977-0.748-0.97-0.738-1-0.75v-0.25c-0.977-0.748-0.97-0.738-1-0.75v-0.25c-0.975-0.746-0.969-0.707-1-0.719v-0.281c-0.992-0.759-0.973-0.709-1-0.719v-0.281c-0.992-0.759-0.973-0.709-1-0.719v-0.281c-0.972-0.744-0.937-0.706-0.969-0.719v-0.25c-0.977-0.748-0.97-0.738-1-0.75v-0.25c-0.977-0.748-0.97-0.738-1-0.75v-0.25c-0.975-0.746-0.969-0.707-1-0.719v-0.281c-0.992-0.759-0.973-0.709-1-0.719v-0.281c-0.992-0.759-0.973-0.709-1-0.719v-0.281c-0.972-0.744-0.937-0.706-0.969-0.719v-0.25c-0.977-0.748-0.97-0.738-1-0.75v-0.25c-0.977-0.748-0.97-0.738-1-0.75v-0.25c-0.977-0.748-0.97-0.738-1-0.75v-0.25c-0.992-0.759-0.973-0.709-1-0.719v-0.281c-0.992-0.759-0.973-0.709-1-0.719v-0.281c-0.972-0.744-0.937-0.706-0.969-0.719v-0.25h-0.031c-0.959-0.734-0.934-0.704-0.969-0.719v-0.281c-0.977-0.748-0.97-0.738-1-0.75v-0.25c-0.977-0.748-0.97-0.738-1-0.75v-0.25c-0.975-0.746-0.969-0.707-1-0.719v-0.281c-0.992-0.759-0.973-0.709-1-0.719v-0.281c-0.992-0.759-0.973-0.709-1-0.719v-0.281c-0.972-0.744-0.937-0.706-0.969-0.719v-0.25c-0.977-0.748-0.97-0.738-1-0.75v-0.25c-0.977-0.748-0.97-0.738-1-0.75v-0.25c-0.975-0.746-0.969-0.707-1-0.719v-0.281c-0.992-0.759-0.973-0.709-1-0.719v-0.281c-0.992-0.759-0.973-0.709-1-0.719v-0.281c-0.972-0.744-0.937-0.706-0.969-0.719v-0.25c-0.977-0.748-0.97-0.738-1-0.75v-0.25c-0.977-0.748-0.97-0.738-1-0.75v-0.25c-0.975-0.746-0.969-0.707-1-0.719v-0.281c-0.992-0.759-0.973-0.709-1-0.719v-0.281c-0.992-0.759-0.973-0.709-1-0.719v-0.281c-0.972-0.744-0.937-0.706-0.969-0.719v-0.25c-0.977-0.748-0.97-0.738-1-0.75v-0.25c-0.977-0.748-0.97-0.738-1-0.75v-0.25c-0.977-0.748-0.97-0.738-1-0.75v-0.25c-0.992-0.759-0.973-0.709-1-0.719v-0.281c-0.992-0.759-0.973-0.709-1-0.719v-0.281c-0.992-0.759-0.973-0.709-1-0.719v-0.281c-0.972-0.744-0.937-0.706-0.969-0.719v-0.25c-0.977-0.748-0.97-0.738-1-0.75v-0.25c-0.977-0.748-0.97-0.738-1-0.75v-0.25c-0.975-0.746-0.969-0.707-1-0.719v-0.281c-0.992-0.759-0.973-0.709-1-0.719v-0.281c-0.992-0.759-0.973-0.709-1-0.719v-0.281c-0.972-0.744-0.937-0.706-0.969-0.719v-0.25c-0.977-0.748-0.97-0.738-1-0.75v-0.25c-0.977-0.748-0.97-0.738-1-0.75v-0.25c-0.975-0.746-0.969-0.707-1-0.719v-0.281c-0.992-0.759-0.973-0.709-1-0.719v-0.281c-0.992-0.759-0.973-0.709-1-0.719v-0.281c-0.972-0.744-0.937-0.706-0.969-0.719v-0.25c-0.977-0.748-0.97-0.738-1-0.75v-0.25c-0.977-0.748-0.97-0.738-1-0.75v-0.25c-0.977-0.748-0.97-0.738-1-0.75v-0.25c-0.992-0.759-0.973-0.709-1-0.719v-0.281c-0.992-0.759-0.973-0.709-1-0.719v-0.281c-0.972-0.743-0.937-0.706-0.969-0.719v-0.25h-0.031c-0.959-0.734-0.934-0.704-0.969-0.719v-0.281c-0.977-0.748-0.97-0.738-1-0.75v-0.25c-0.977-0.748-0.97-0.738-1-0.75v-0.25c-2.306-1.764-0.038 0.108-2.344-1.875h-97.97c-0.046 0.055-3 3.594-3 3.594-0.002 0.094-0.313 12.06-0.313 12.06 0.015 0.013 0.575 0.465 1 0.813v0.188c0.015 0.012 0.575 0.465 1 0.813v0.188c0.015 0.012 0.575 0.465 1 0.813v0.188c0.015 0.012 0.566 0.452 0.969 0.781v0.188c0.015 0.012 0.575 0.465 1 0.813v0.188l1 0.813v0.188c0.015 0.012 0.575 0.465 1 0.813v0.188l1 0.813v0.188c0.015 0.012 0.575 0.465 1 0.813v0.188c0.014 0.012 0.566 0.452 0.969 0.781v0.188c0.015 0.012 0.575 0.465 1 0.813v0.188c0.015 0.012 0.575 0.465 1 0.813v0.188c0.014 0.012 0.575 0.465 1 0.813v0.188c0.014 0.012 0.575 0.465 1 0.813v0.188l1 0.813v0.188c0.014 0.011 0.566 0.452 0.969 0.781v0.188l1 0.813v0.188c0.011 0.009 0.508 0.407 0.813 0.656l-30 27.781-0.344-0.375h-0.094c-0.296-0.325-0.906-1-0.906-1h-0.094c-0.279-0.307-0.875-0.969-0.875-0.969h-0.094l-0.906-1h-0.094c-0.296-0.325-0.906-1-0.906-1h-0.094c-0.296-0.325-0.906-1-0.906-1h-0.094l-0.906-1h-0.094c-0.296-0.325-0.906-1-0.906-1h-0.094c-0.279-0.307-0.875-0.969-0.875-0.969h-0.094l-0.906-1h-0.094c-0.296-0.325-0.906-1-0.906-1h-0.094c-0.296-0.325-0.906-1-0.906-1h-0.094l-0.906-1h-0.094c-0.295-0.325-0.906-1-0.906-1h-0.094c-0.282-0.31-0.875-0.969-0.875-0.969h-0.094l-0.906-1h-0.094c-0.295-0.325-0.906-1-0.906-1h-0.094c-0.295-0.325-0.906-1-0.906-1h-0.094l-0.906-1h-0.094c-0.295-0.325-0.906-1-0.906-1h-0.094c-0.295-0.325-0.906-1-0.906-1h-0.094l-0.875-0.969h-0.094c-0.295-0.325-0.906-1-0.906-1h-0.094c-0.295-0.325-0.906-1-0.906-1h-0.094l-0.906-1h-0.094c-0.295-0.325-0.906-1-0.906-1h-0.094c-0.295-0.325-0.906-1-0.906-1h-0.094l-0.875-0.969h-0.094c-0.295-0.325-0.906-1-0.906-1h-0.094c-0.295-0.325-0.906-1-0.906-1h-0.094l-0.906-1h-0.094c-0.295-0.325-0.906-1-0.906-1h-0.094c-0.295-0.325-0.906-1-0.906-1h-0.094l-0.875-0.969h-0.094c-0.295-0.325-0.906-1-0.906-1h-0.094c-0.295-0.325-0.906-1-0.906-1h-0.094l-0.906-1h-0.094c-0.295-0.325-0.906-1-0.906-1h-0.094c-0.295-0.324-0.906-1-0.906-1h-0.094l-0.906-1h-0.094c-0.278-0.306-0.875-0.969-0.875-0.969h-0.094c-0.295-0.324-0.906-1-0.906-1h-0.094l-0.906-1h-0.094c-0.295-0.324-0.906-1-0.906-1h-0.094c-0.295-0.324-0.906-1-0.906-1h-0.094l-0.906-1h-0.094c-0.278-0.306-0.875-0.969-0.875-0.969h-0.094c-0.295-0.324-0.906-1-0.906-1h-0.094l-0.906-1h-0.094c-0.295-0.324-0.906-1-0.906-1h-0.094c-0.295-0.324-0.906-1-0.906-1h-0.094c-0.295-0.324-0.906-1-0.906-1h-0.094c-0.278-0.306-0.875-0.969-0.875-0.969h-0.094c-0.295-0.324-0.906-1-0.906-1h-0.094l-0.906-1h-0.094c-0.295-0.324-0.906-1-0.906-1h-0.094c-0.295-0.324-0.906-1-0.906-1h-0.094c-0.295-0.324-0.906-1-0.906-1h-0.094c-0.281-0.309-0.875-0.969-0.875-0.969h-0.094c-0.295-0.324-0.906-1-0.906-1h-0.094c-0.295-0.324-0.906-1-0.906-1h-0.094c-0.295-0.324-0.906-1-0.906-1h-96.44"/>
 <g id="g8" transform="translate(0,-540.36)" fill-rule="evenodd">
  <path id="path10" fill-opacity="0.067" d="m256 541.36c-140.83 0-255 114.17-255 255s114.17 255 255 255 255-114.17 255-255-114.17-255-255-255m8.827 44.931c120.9 0 218.9 98 218.9 218.9s-98 218.9-218.9 218.9-218.93-98-218.93-218.9 98.03-218.9 218.93-218.9"/>
  <g id="g12" fill-opacity="0.129">
   <path id="path14" d="m256 544.79c-138.94 0-251.57 112.63-251.57 251.57s112.63 251.54 251.57 251.54 251.57-112.6 251.57-251.54-112.63-251.57-251.57-251.57m5.885 38.556c120.9 0 218.9 98 218.9 218.9s-98 218.9-218.9 218.9-218.93-98-218.93-218.9 98.03-218.9 218.93-218.9"/>
   <path id="path16" d="m256 548.72c-136.77 0-247.64 110.87-247.64 247.64s110.87 247.64 247.64 247.64 247.64-110.87 247.64-247.64-110.87-247.64-247.64-247.64m2.942 31.691c120.9 0 218.9 98 218.9 218.9s-98 218.9-218.9 218.9-218.93-98-218.93-218.9 98.03-218.9 218.93-218.9"/>
  </g>
  <path id="path18" d="m253.04 548.22c-135.42 0-245.19 109.78-245.19 245.19 0 135.42 109.78 245.19 245.19 245.19 135.42 0 245.19-109.78 245.19-245.19 0-135.42-109.78-245.19-245.19-245.19zm0 26.297c120.9 0 218.9 98 218.9 218.9s-98 218.9-218.9 218.9-218.93-98-218.93-218.9 98.03-218.9 218.93-218.9z" stroke-opacity="0.31" stroke="#000" stroke-width="4.904" fill="#fff"/>
 </g>
 <text id="text20" font-size="129.23" line-height="125%" y="231.36" x="729.64" font-family="Gentium Book Basic" word-spacing="0" letter-spacing="0"><tspan id="tspan22" y="231.36" x="729.64"/>
 </text>
 <text id="text24" font-size="46.954" transform="scale(4.0128 .2492)" y="579.26" x="378.91" font-family="Arial" text-anchor="middle"/>
 <text id="text26" font-size="129.23" line-height="125%" y="151.36" x="1310.91" font-family="Gentium Book Basic" word-spacing="0" letter-spacing="0"><tspan id="tspan28" y="151.36" x="1310.91"/>
 </text>
 <text id="text30" font-size="46.954" transform="scale(4.0128 .2492)" y="258.22" x="523.76" font-family="Arial" text-anchor="middle"/>
 <text id="text32" font-size="129.23" line-height="125%" y="-29.9" x="239.33" font-family="Gentium Book Basic" word-spacing="0" letter-spacing="0"><tspan id="tspan34" y="-29.9" x="239.33"/>
 </text>
 <text id="text36" font-size="46.954" transform="scale(4.0128 .2492)" y="-469.13" x="256.72" font-family="Arial" text-anchor="middle"/>
 <text id="text38" font-size="129.23" line-height="125%" y="-246.37" x="1337.38" font-family="Gentium Book Basic" word-spacing="0" letter-spacing="0"><tspan id="tspan40" y="-246.37" x="1337.38"/>
 </text>
 <text id="text42" font-size="46.954" transform="scale(4.0128 .2492)" y="-1337.8" x="530.36" font-family="Arial" text-anchor="middle"/>
 <text id="text44" font-size="129.23" line-height="125%" y="-326.37" x="1918.65" font-family="Gentium Book Basic" word-spacing="0" letter-spacing="0"><tspan id="tspan46" y="-326.37" x="1918.65"/>
 </text>
 <text id="text48" font-size="46.954" transform="scale(4.0128 .2492)" y="-1658.83" x="675.21" font-family="Arial" text-anchor="middle"/>
 <text id="text50" font-size="129.23" line-height="125%" y="-798.77" x="1529.53" font-family="Gentium Book Basic" word-spacing="0" letter-spacing="0"><tspan id="tspan52" y="-798.77" x="1529.53"/>
 </text>
 <text id="text54" font-size="46.954" transform="scale(4.0128 .2492)" y="-3554.48" x="578.24" font-family="Arial" text-anchor="middle"/>
 <text id="text56" font-size="129.23" line-height="125%" y="-878.78" x="2110.79" font-family="Gentium Book Basic" word-spacing="0" letter-spacing="0"><tspan id="tspan58" y="-878.78" x="2110.79"/>
 </text>
 <text id="text60" font-size="46.954" transform="scale(4.0128 .2492)" y="-3875.52" x="723.09" font-family="Arial" text-anchor="middle"/>
 <text id="text62" font-size="208.33" line-height="125%" y="535.94" x="277.99" font-family="Gentium Book Basic" word-spacing="0" letter-spacing="0"><tspan id="tspan64" y="535.94" x="277.99"/>
 </text>
 <g id="g66" transform="matrix(.81547 0 0 .81547 -651.34 -397.14)" fill="#fff">
  <path id="path68" d="m969.54 942.73 26.43 0.724 286.39-268.64v-14.01c-2.829-2.165-0.067 0.149-2.895-2.283h-120.11l-3.711 4.39-0.362 14.799 3.983 3.259h19.913v16.292l-135.41 124.91v-140.84h21.956l5.02-3.802v-13.215l-5.377-5.876h-118.26l-4.134 5.275v14.585l5.03 4.049h18.651v255.68z"/>
  <text id="text70" line-height="125%" font-family="Serif" font-size="144" y="941.52" x="1082.76" font-weight="bold" font-style="italic" word-spacing="0" letter-spacing="0"><tspan id="tspan72" y="941.52" x="1082.76" fill="#ffffff">im</tspan>
  </text>
 </g>
</svg>
