<?xml version="1.0" encoding="UTF-8" standalone="no"?>
<svg xmlns="http://www.w3.org/2000/svg" height="512" viewBox="0 0 512 512" width="512" version="1.1">
 <metadata id="metadata70"/>
 <path id="path8" d="m471.95 253.05c0 120.9-98.006 218.91-218.91 218.91s-218.91-98.006-218.91-218.91 98.006-218.91 218.91-218.91 218.91 98.006 218.91 218.91" fill-rule="evenodd" fill="#BF9E73"/>
 <path id="path10" d="m256 1c-140.83 0-255 114.17-255 255s114.17 255 255 255 255-114.17 255-255-114.17-255-255-255m8.827 44.931c120.9 0 218.9 98 218.9 218.9s-98 218.9-218.9 218.9-218.93-98-218.93-218.9 98.03-218.9 218.93-218.9" fill-rule="evenodd" fill-opacity="0.067"/>
 <path id="path14" d="m256 4.43c-138.94 0-251.57 112.63-251.57 251.57s112.63 251.57 251.57 251.57 251.57-112.63 251.57-251.57-112.63-251.57-251.57-251.57m5.885 38.556c120.9 0 218.9 98 218.9 218.9s-98 218.9-218.9 218.9-218.93-98-218.93-218.9 98.03-218.9 218.93-218.9" fill-rule="evenodd" fill-opacity="0.129"/>
 <path id="path16" d="m256 8.36c-136.77 0-247.64 110.87-247.64 247.64s110.87 247.64 247.64 247.64 247.64-110.87 247.64-247.64-110.87-247.64-247.64-247.64m2.942 31.691c120.9 0 218.9 98 218.9 218.9s-98 218.9-218.9 218.9-218.93-98-218.93-218.9 98.03-218.9 218.93-218.9" fill-rule="evenodd" fill-opacity="0.129"/>
 <path id="path18" d="m253.04 7.86c-135.42 0-245.19 109.78-245.19 245.19 0 135.42 109.78 245.19 245.19 245.19 135.42 0 245.19-109.78 245.19-245.19 0-135.42-109.78-245.19-245.19-245.19zm0 26.297c120.9 0 218.9 98 218.9 218.9s-98 218.9-218.9 218.9-218.93-98-218.93-218.9 98.03-218.9 218.93-218.9z" stroke-opacity="0.31" fill-rule="evenodd" stroke="#000" stroke-width="4.904" fill="#fff"/>
 <path id="path3587" opacity="0.25" fill-rule="evenodd" d="m127.06 129.53c-11 0-19.844 9.314-19.844 20.875v21.344c0 5.9728 2.3574 11.357 6.1562 15.156l37.562 37.562h-23.875c-11 0-19.844 9.2828-19.844 20.844v21.375c0 5.9648 2.3664 11.335 6.1562 15.125l37.594 37.594h-23.906c-11 0-19.844 9.2828-19.844 20.844v21.344c0 5.9728 2.3574 11.357 6.1562 15.156l89.406 89.406c16.136 3.7904 32.957 5.8125 50.25 5.8125 120.9 0 218.91-98.009 218.91-218.91 0-17.315-2.0125-34.157-5.8125-50.312l-67.5-67.5c-3.5542-3.5542-8.3705-5.7188-13.688-5.7188h-257.88z" color="#000000"/>
 <path id="rect3476" fill-rule="evenodd" fill="#fff" d="m127.06 129.53c-11 0-19.844 9.314-19.844 20.875v21.344c0 11.561 8.8438 20.875 19.844 20.875h257.88c11 0 19.844-9.314 19.844-20.875v-21.344c0-11.561-8.8437-20.875-19.844-20.875h-257.88zm94.406 9.0625c3.9847 0 7.1875 3.3746 7.1875 7.5625v29.844c0 4.1879-3.2028 7.5625-7.1875 7.5625s-7.1875-3.3746-7.1875-7.5625v-29.844c0-4.1879 3.2028-7.5625 7.1875-7.5625zm30.312 0c3.9847 0 7.1875 3.3746 7.1875 7.5625v29.844c0 4.1879-3.2028 7.5625-7.1875 7.5625s-7.1875-3.3746-7.1875-7.5625v-29.844c0-4.1879 3.2028-7.5625 7.1875-7.5625zm30.281 0c3.9847 0 7.1875 3.3746 7.1875 7.5625v29.844c0 4.1879-3.2028 7.5625-7.1875 7.5625s-7.1875-3.3746-7.1875-7.5625v-29.844c0-4.1879 3.2028-7.5625 7.1875-7.5625zm30.281 0c3.9847 0 7.2188 3.3746 7.2188 7.5625v29.844c0 4.1879-3.234 7.5625-7.2188 7.5625-3.9847 0-7.1562-3.3746-7.1562-7.5625v-29.844c0-4.1879 3.1715-7.5625 7.1562-7.5625zm-166.5 8.6562c7.2638 0 13.156 6.2096 13.156 13.844 0 7.6342-5.8925 13.812-13.156 13.812-7.2638 0-13.156-6.1783-13.156-13.812 0-7.6342 5.8925-13.844 13.156-13.844zm-18.781 77.219c-11 0-19.844 9.2828-19.844 20.844v21.375c0 11.561 8.8438 20.844 19.844 20.844h257.88c11 0 19.844-9.2828 19.844-20.844v-21.375c0-11.561-8.8437-20.844-19.844-20.844h-257.88zm94.406 9.0625c3.9847 0 7.1875 3.3746 7.1875 7.5625v29.812c0 4.1879-3.2028 7.5625-7.1875 7.5625s-7.1875-3.3746-7.1875-7.5625v-29.812c0-4.1879 3.2028-7.5625 7.1875-7.5625zm30.312 0c3.9847 0 7.1875 3.3746 7.1875 7.5625v29.812c0 4.1879-3.2028 7.5625-7.1875 7.5625s-7.1875-3.3746-7.1875-7.5625v-29.812c0-4.1879 3.2028-7.5625 7.1875-7.5625zm30.281 0c3.9847 0 7.1875 3.3746 7.1875 7.5625v29.812c0 4.1879-3.2028 7.5625-7.1875 7.5625s-7.1875-3.3746-7.1875-7.5625v-29.812c0-4.1879 3.2028-7.5625 7.1875-7.5625zm30.281 0c3.9847 0 7.2188 3.3746 7.2188 7.5625v29.812c0 4.1879-3.234 7.5625-7.2188 7.5625-3.9847 0-7.1562-3.3746-7.1562-7.5625v-29.812c0-4.1879 3.1715-7.5625 7.1562-7.5625zm-166.5 8.6562c7.27 0 13.16 6.18 13.16 13.81 0 7.6342-5.8925 13.812-13.156 13.812-7.2638 0-13.156-6.1783-13.156-13.812 0-7.6342 5.8925-13.812 13.156-13.812zm-18.781 77.219c-11 0-19.844 9.2828-19.844 20.844v21.344c0 11.561 8.8438 20.875 19.844 20.875h257.88c11 0 19.844-9.314 19.844-20.875v-21.344c0-11.561-8.8437-20.844-19.844-20.844h-257.88zm94.406 9.0625c3.9847 0 7.1875 3.3746 7.1875 7.5625v29.812c0 4.1879-3.2028 7.5625-7.1875 7.5625s-7.1875-3.3746-7.1875-7.5625v-29.812c0-4.1879 3.2028-7.5625 7.1875-7.5625zm30.312 0c3.9847 0 7.1875 3.3746 7.1875 7.5625v29.812c0 4.1879-3.2028 7.5625-7.1875 7.5625s-7.1875-3.3746-7.1875-7.5625v-29.812c0-4.1879 3.2028-7.5625 7.1875-7.5625zm30.281 0c3.9847 0 7.1875 3.3746 7.1875 7.5625v29.812c0 4.1879-3.2028 7.5625-7.1875 7.5625s-7.1875-3.3746-7.1875-7.5625v-29.812c0-4.1879 3.2028-7.5625 7.1875-7.5625zm30.281 0c3.9847 0 7.2188 3.3746 7.2188 7.5625v29.812c0 4.1879-3.234 7.5625-7.2188 7.5625-3.9847 0-7.1562-3.3746-7.1562-7.5625v-29.812c0-4.1879 3.1715-7.5625 7.1562-7.5625zm-166.5 8.6562c7.2638 0 13.156 6.1783 13.156 13.812 0 7.6342-5.8925 13.812-13.156 13.812-7.2638 0-13.156-6.1783-13.156-13.812 0-7.6342 5.8925-13.812 13.156-13.812z" color="#000000"/>
</svg>
