<?xml version="1.0" encoding="UTF-8" standalone="no"?>
<svg xmlns="http://www.w3.org/2000/svg" viewBox="0 0 512 512">
 <g fill-rule="evenodd">
  <path d="m471.95 253.05c0 120.9-98.01 218.91-218.91 218.91s-218.91-98.01-218.91-218.91 98.01-218.91 218.91-218.91 218.91 98.01 218.91 218.91" fill="#BF9E73"/>
  <path d="m256 1c-140.83 0-255 114.17-255 255s114.17 255 255 255 255-114.17 255-255-114.17-255-255-255m8.827 44.931c120.9 0 218.9 98 218.9 218.9s-98 218.9-218.9 218.9-218.93-98-218.93-218.9 98.03-218.9 218.93-218.9" fill-opacity="0.067"/>
  <g fill-opacity="0.129">
   <path d="m256 4.43c-138.94 0-251.57 112.63-251.57 251.57s112.63 251.57 251.57 251.57 251.57-112.63 251.57-251.57-112.63-251.57-251.57-251.57m5.885 38.556c120.9 0 218.9 98 218.9 218.9s-98 218.9-218.9 218.9-218.93-98-218.93-218.9 98.03-218.9 218.93-218.9"/>
   <path d="m256 8.36c-136.77 0-247.64 110.87-247.64 247.64s110.87 247.64 247.64 247.64 247.64-110.87 247.64-247.64-110.87-247.64-247.64-247.64m2.942 31.691c120.9 0 218.9 98 218.9 218.9s-98 218.9-218.9 218.9-218.93-98-218.93-218.9 98.03-218.9 218.93-218.9"/>
  </g>
  <path stroke="#000" stroke-width="4.904" d="m253.04 7.86c-135.42 0-245.19 109.78-245.19 245.19 0 135.42 109.78 245.19 245.19 245.19 135.42 0 245.19-109.78 245.19-245.19 0-135.42-109.78-245.19-245.19-245.19m0 26.297c120.9 0 218.9 98 218.9 218.9s-98 218.9-218.9 218.9-218.93-98-218.93-218.9 98.03-218.9 218.93-218.9z" stroke-opacity="0.31" fill="#fff"/>
 </g>
 <text font-size="129.23" y="231.36" x="729.64" font-family="&apos;Gentium Book Basic&apos;" line-height="125%" word-spacing="0" letter-spacing="0"><tspan y="231.36" x="729.64"/>
 </text>
 <text transform="scale(4.0128.2492)" font-size="46.954" y="579.26" x="378.91" font-family="Arial" text-anchor="middle"/>
 <text font-size="129.23" y="151.36" x="1310.91" font-family="&apos;Gentium Book Basic&apos;" line-height="125%" word-spacing="0" letter-spacing="0"><tspan y="151.36" x="1310.91"/>
 </text>
 <text transform="scale(4.0128.2492)" font-size="46.954" y="258.22" x="523.76" font-family="Arial" text-anchor="middle"/>
 <text font-size="129.23" y="-29.9" x="239.33" font-family="&apos;Gentium Book Basic&apos;" line-height="125%" word-spacing="0" letter-spacing="0"><tspan y="-29.9" x="239.33"/>
 </text>
 <text transform="scale(4.0128.2492)" font-size="46.954" y="-469.13" x="256.72" font-family="Arial" text-anchor="middle"/>
 <text font-size="129.23" y="-246.37" x="1337.38" font-family="&apos;Gentium Book Basic&apos;" line-height="125%" word-spacing="0" letter-spacing="0"><tspan y="-246.37" x="1337.38"/>
 </text>
 <text transform="scale(4.0128.2492)" font-size="46.954" y="-1337.8" x="530.36" font-family="Arial" text-anchor="middle"/>
 <text font-size="129.23" y="-326.37" x="1918.65" font-family="&apos;Gentium Book Basic&apos;" line-height="125%" word-spacing="0" letter-spacing="0"><tspan y="-326.37" x="1918.65"/>
 </text>
 <text transform="scale(4.0128.2492)" font-size="46.954" y="-1658.83" x="675.21" font-family="Arial" text-anchor="middle"/>
 <text font-size="129.23" y="-798.77" x="1529.53" font-family="&apos;Gentium Book Basic&apos;" line-height="125%" word-spacing="0" letter-spacing="0"><tspan y="-798.77" x="1529.53"/>
 </text>
 <text transform="scale(4.0128.2492)" font-size="46.954" y="-3554.48" x="578.24" font-family="Arial" text-anchor="middle"/>
 <text font-size="129.23" y="-878.78" x="2110.79" font-family="&apos;Gentium Book Basic&apos;" line-height="125%" word-spacing="0" letter-spacing="0"><tspan y="-878.78" x="2110.79"/>
 </text>
 <text transform="scale(4.0128.2492)" font-size="46.954" y="-3875.52" x="723.09" font-family="Arial" text-anchor="middle"/>
 <text font-size="208.33" y="535.94" x="277.99" font-family="&apos;Gentium Book Basic&apos;" line-height="125%" word-spacing="0" letter-spacing="0"><tspan y="535.94" x="277.99"/>
 </text>
 <g fill-rule="evenodd">
  <path opacity="0.25" d="m232.65 159.35c-14.501-0.036-26.647 0.629-33.836 4.369-5.03 2.594-8.982 8.02-7.723 9.279l18.584 18.584c1.08 6.283 1.01 12.281 1.01 12.281s1.021 15.712-0.195 29.514l-61.65-61.65c-0.249-0.249-0.512-0.487-0.787-0.703-3.104-2.395-7.42-3.146-7.42-3.146l-46.02 0.334s-6.928 0.215-9.484 3.361c-2.223 2.814-0.172 8.645-0.172 8.645s36.03 88.65 76.854 133.37c1.408 1.541 2.824 3.02 4.244 4.441l145.91 145.91c92.28-25.728 159.99-110.39 159.99-210.87 0-4.992-0.183-9.941-0.512-14.85l-67.08-67.08c-4.334-4.334-15.541-2.912-15.541-2.912l-48.46 0.291s-3.565-0.505-6.25 1.17c-2.599 1.632-4.242 5.455-4.242 5.455s-6.675 18.555-15.766 35.824l-45.592-45.592c-1.667-1.667-3.919-2.848-6.938-3.613-5.241-1.342-9.15-2.223-22.574-2.352-2.16-0.027-4.28-0.048-6.352-0.053"/>
  <path d="m241.8 351.84h19.256s5.789-0.677 8.764-4.03c2.728-3.104 2.642-8.892 2.642-8.892s-0.376-27.18 11.62-31.17c11.835-3.941 27.02 26.26 43.07 37.879 12.168 8.764 21.35 6.841 21.35 6.841l42.959-0.634s22.607-1.471 11.867-20.05c-0.838-1.514-6.208-13.758-32-38.931-26.978-26.344-23.37-22.07 9.182-67.63 19.761-27.73 27.687-44.677 25.22-51.937-2.352-6.927-16.904-5.08-16.904-5.08l-48.46 0.29s-3.566-0.505-6.25 1.171c-2.599 1.632-4.242 5.456-4.242 5.456s-7.722 21.479-17.871 39.726c-21.587 38.513-30.24 40.564-33.776 38.18-8.227-5.585-6.122-22.403-6.122-34.36 0-37.34 5.37-52.904-10.525-56.931-5.241-1.342-9.15-2.223-22.575-2.352-17.28-0.215-31.972 0.043-40.19 4.317-5.542 2.857-9.773 9.15-7.174 9.526 3.19 0.462 10.45 2.051 14.305 7.55 4.951 7.131 4.736 23.07 4.736 23.07s2.9 43.925-6.669 49.38c-6.465 3.78-15.444-3.899-34.657-38.845-9.859-17.871-17.323-37.675-17.323-37.675s-1.428-3.694-3.984-5.703c-3.104-2.395-7.421-3.147-7.421-3.147l-46.02 0.333s-6.927 0.215-9.483 3.362c-2.223 2.814-0.172 8.645-0.172 8.645s36.03 88.65 76.853 133.37c37.417 40.95 79.914 38.27 79.914 38.27" fill="#fff"/>
 </g>
</svg>
