<?xml version="1.0" encoding="UTF-8" standalone="no"?>
<svg xmlns="http://www.w3.org/2000/svg" height="512" viewBox="0 0 512 512" width="512" version="1.1">
 <metadata id="metadata70"/>
 <defs id="defs68">
  <filter id="filter3174" color-interpolation-filters="sRGB">
   <feGaussianBlur id="feGaussianBlur3176" stdDeviation="1.71"/>
  </filter>
  <linearGradient id="ButtonShadow" gradientUnits="userSpaceOnUse" y1="92.54" gradientTransform="scale(1.0059 .99417)" x2="0" y2="7.02">
   <stop id="stop3750"/>
   <stop id="stop3752" stop-opacity="0.588" offset="1"/>
  </linearGradient>
  <clipPath id="clipPath31552">
   <path id="path31554" d="m471.95 253.05c0 120.9-98.006 218.91-218.91 218.91s-218.91-98.006-218.91-218.91 98.006-218.91 218.91-218.91 218.91 98.006 218.91 218.91"/>
  </clipPath>
 </defs>
 <path id="path8" fill-rule="evenodd" fill="#BF9E73" d="m471.95 253.05c0 120.9-98.006 218.91-218.91 218.91s-218.91-98.006-218.91-218.91 98.006-218.91 218.91-218.91 218.91 98.006 218.91 218.91"/>
 <path id="path29926" opacity="0.25" clip-path="url(#clipPath31552)" d="m256.03 101.34c-40.34-0.01-79.03 16.02-107.56 44.54-28.53 28.51-44.56 67.19-44.56 107.53 0.05 10.41 1.17 20.78 3.34 30.97 0.08-1.52 0.21-3.04 0.34-4.54 0.35 2.01 0.73 4.04 1.16 6.04 0.08-1.56 0.17-3.12 0.31-4.66 0.35 2.05 0.76 4.12 1.19 6.16 0.08-1.54 0.17-3.08 0.31-4.6 0.35 2.03 0.73 4.05 1.16 6.06 0.08-1.53 0.2-3.04 0.34-4.56 0.35 2.03 0.73 4.05 1.16 6.06 0.08-1.51 0.2-3.03 0.34-4.53 0.35 2.01 0.73 4.04 1.16 6.03 0.08-1.55 0.2-3.09 0.34-4.62 0.35 2.04 0.73 4.1 1.16 6.12 0.08-1.55 0.17-3.11 0.31-4.65 0.35 2.05 0.72 4.08 1.16 6.12 0.08-1.53 0.2-3.04 0.34-4.56 0.35 2.03 0.73 4.04 1.16 6.06 0.08-1.52 0.2-3.03 0.34-4.53 0.35 2.01 0.73 4.04 1.16 6.03 0.08-1.55 0.2-3.09 0.34-4.62 0.35 2.04 0.73 4.1 1.16 6.12 0.01-0.21 0.02-0.44 0.03-0.65-0.01 0.51-0.03 1.02-0.03 1.53 0 28.47 13.82 56.77 37.62 77.15 0.3 0.27 0.61 0.52 0.91 0.78 0.07 0.07 0.14 0.13 0.22 0.19 0.08 0.07 0.16 0.15 0.25 0.22 0.03 0.03 0.06 0.04 0.09 0.06 0.32 0.28 0.65 0.55 0.97 0.82 0.01 0-0.01 0.02 0 0.03 0.01 0.13 0.07 0.28 0.19 0.37 0.37 0.31 0.75 0.6 1.12 0.91 0.05 0.22 0.19 0.43 0.38 0.59 0.34 0.29 0.69 0.54 1.03 0.81 0.1 0.25 0.22 0.48 0.44 0.66 0.3 0.26 0.63 0.5 0.93 0.75 0.14 0.28 0.31 0.54 0.57 0.75 0.27 0.23 0.56 0.46 0.84 0.69 0.16 0.29 0.38 0.58 0.66 0.81 0.25 0.21 0.49 0.42 0.75 0.63 0.19 0.31 0.45 0.62 0.75 0.87 0.22 0.19 0.46 0.35 0.68 0.53 0.22 0.34 0.46 0.67 0.79 0.94 0.21 0.18 0.44 0.35 0.65 0.53 0.24 0.35 0.5 0.69 0.85 0.97 0.18 0.15 0.38 0.29 0.56 0.44 0.26 0.38 0.56 0.75 0.94 1.06 0.16 0.14 0.33 0.27 0.5 0.41 0.27 0.39 0.61 0.77 1 1.09 0.14 0.12 0.28 0.25 0.43 0.37 0.3 0.41 0.63 0.76 1.03 1.1 0.14 0.11 0.27 0.23 0.41 0.34 0.31 0.42 0.68 0.81 1.09 1.16 0.12 0.09 0.23 0.19 0.35 0.28 0.33 0.44 0.72 0.85 1.15 1.22 0.1 0.08 0.19 0.17 0.28 0.25 0.35 0.44 0.77 0.87 1.22 1.25 0.08 0.06 0.15 0.12 0.22 0.19 0.37 0.46 0.78 0.89 1.25 1.28 0.06 0.05 0.13 0.1 0.19 0.15 0.38 0.48 0.83 0.94 1.31 1.35 0.05 0.04 0.11 0.08 0.16 0.12 0.4 0.5 0.84 0.96 1.34 1.38 0.04 0.03 0.06 0.06 0.1 0.09 0.41 0.51 0.88 0.97 1.4 1.41 0.03 0.02 0.04 0.04 0.07 0.06 0.42 0.51 0.88 0.97 1.4 1.41 0.02 0.01 0.05 0.01 0.06 0.03 0.44 0.52 0.9 1.01 1.44 1.47l0.03 0.03c0.44 0.52 0.93 1.01 1.47 1.47 0.45 0.52 0.95 1.04 1.5 1.5 0.45 0.52 0.96 1.04 1.5 1.5 0.46 0.51 0.92 1.01 1.47 1.46 0.42 0.48 0.85 0.96 1.34 1.38 0.45 0.51 0.95 0.98 1.47 1.44 0.45 0.51 0.95 1.01 1.47 1.47 0.41 0.45 0.82 0.89 1.28 1.31 0.49 0.56 1.02 1.09 1.6 1.59 0.44 0.5 0.92 0.99 1.43 1.44 0.46 0.51 0.95 1 1.47 1.47 0.42 0.47 0.87 0.91 1.35 1.34 0.42 0.48 0.86 0.94 1.34 1.38 0.49 0.55 1.04 1.09 1.59 1.59 0.47 0.52 0.98 1.03 1.5 1.5 0.45 0.5 0.91 0.98 1.41 1.44 0.46 0.51 0.95 0.97 1.47 1.44 0.46 0.5 0.95 1 1.47 1.47 0.46 0.5 0.92 1 1.44 1.46 0.43 0.48 0.89 0.93 1.37 1.38 0.5 0.55 1.04 1.08 1.59 1.59 0.47 0.51 0.95 1.03 1.47 1.5 0.49 0.53 1 1.05 1.53 1.53 0.43 0.45 0.86 0.89 1.32 1.32 0.45 0.49 0.93 0.97 1.43 1.43 0.47 0.51 0.96 1 1.47 1.47 0.5 0.54 0.99 1.04 1.53 1.53 0.46 0.49 0.92 0.95 1.41 1.41 0.51 0.55 1.03 1.11 1.59 1.62 0.45 0.47 0.9 0.94 1.38 1.38 0.46 0.5 0.96 0.97 1.47 1.44 0.47 0.5 0.95 0.99 1.47 1.47 0.37 0.39 0.75 0.8 1.15 1.18 0.56 0.61 1.17 1.19 1.78 1.75 0.37 0.39 0.74 0.76 1.13 1.13 0.58 0.63 1.17 1.25 1.81 1.84 0.47 0.5 0.96 1 1.47 1.47 0.48 0.5 0.96 1 1.47 1.47 0.47 0.49 0.96 1 1.47 1.47 0.48 0.5 0.95 0.99 1.47 1.47 0.31 0.33 0.63 0.65 0.96 0.97 0.63 0.68 1.28 1.33 1.97 1.96 0.49 0.5 0.96 1.03 1.47 1.5 0.48 0.5 0.96 1 1.47 1.47 0.48 0.5 0.96 1 1.47 1.47 0.48 0.5 0.95 1 1.47 1.47 0.48 0.5 0.96 1 1.47 1.47 0.48 0.5 0.95 0.99 1.47 1.47 0.3 0.31 0.59 0.63 0.9 0.94 0.65 0.69 1.33 1.34 2.03 2 0.37 0.37 0.72 0.76 1.1 1.12 0.12 0.13 0.22 0.25 0.34 0.38 0.01 0 0.03-0.01 0.03 0 0.27 0.27 0.57 0.54 0.85 0.81 0.5 0.54 1.02 1.08 1.56 1.59 0.46 0.49 0.95 0.97 1.44 1.44 0.47 0.5 0.96 0.99 1.46 1.47 0.44 0.46 0.89 0.9 1.35 1.34 0.44 0.47 0.91 0.92 1.37 1.38 0.61 0.64 1.23 1.29 1.88 1.9 0.07 0.08 0.15 0.15 0.22 0.22 0.06 0.06 0.13 0.1 0.18 0.16l0.72 0.72c0.18 0.19 0.35 0.37 0.54 0.56 0.07 0.07 0.14 0.12 0.21 0.19 0.14 0.14 0.27 0.3 0.41 0.43 0.65 0.7 1.33 1.37 2.03 2.04 0.08 0.08 0.17 0.16 0.25 0.25 0.08 0.07 0.17 0.14 0.25 0.21 0.18 0.18 0.35 0.36 0.53 0.54 0.62 0.65 1.25 1.28 1.91 1.9 0.08 0.08 0.14 0.17 0.22 0.25 0.09 0.09 0.19 0.17 0.28 0.25 0.1 0.11 0.21 0.21 0.31 0.32 0.65 0.69 1.31 1.39 2 2.06 0.09 0.09 0.19 0.18 0.28 0.28 0.12 0.11 0.23 0.21 0.35 0.31 0.22 0.23 0.45 0.46 0.68 0.69 0.15 0.15 0.29 0.31 0.44 0.47 0.11 0.1 0.23 0.21 0.35 0.31 0.21 0.22 0.43 0.44 0.65 0.66 0.15 0.15 0.29 0.31 0.44 0.46 0.12 0.12 0.25 0.23 0.37 0.35 0.22 0.22 0.44 0.44 0.66 0.65 0.15 0.16 0.29 0.32 0.44 0.47 0.12 0.12 0.25 0.23 0.37 0.35 0.21 0.21 0.41 0.42 0.63 0.62 0.15 0.16 0.28 0.32 0.44 0.47 0.13 0.13 0.26 0.25 0.4 0.38 0.11 0.1 0.21 0.21 0.31 0.31 0.65 0.69 1.31 1.34 2 2 0.07 0.07 0.12 0.15 0.19 0.22 0.15 0.14 0.29 0.27 0.44 0.4 0.07 0.08 0.14 0.15 0.22 0.22 0.58 0.63 1.19 1.25 1.81 1.85 0.47 0.49 0.97 0.98 1.47 1.47 0.45 0.46 0.91 0.92 1.37 1.37 0.48 0.5 0.98 0.99 1.47 1.47 0.49 0.51 0.99 1 1.5 1.5 0.41 0.42 0.83 0.83 1.25 1.25 0.57 0.6 1.16 1.17 1.75 1.75 0.39 0.4 0.79 0.79 1.19 1.19 0.52 0.54 1.05 1.09 1.59 1.62 0.5 0.52 1.02 1.03 1.54 1.53 0.44 0.47 0.9 0.92 1.37 1.38 0.57 0.59 1.15 1.17 1.75 1.75l0.12 0.12c0.25 0.23 0.48 0.46 0.72 0.69 0.6 0.63 1.19 1.24 1.82 1.84 0.51 0.54 1.03 1.08 1.56 1.6 0.08 0.08 0.17 0.16 0.25 0.25l0.78 0.75 0.22 0.22c0.15 0.15 0.29 0.31 0.44 0.46 0.27 0.27 0.53 0.53 0.81 0.79 0.65 0.68 1.31 1.36 2 2.03l0.09 0.09c0.28 0.27 0.56 0.55 0.85 0.81 0.51 0.54 1.06 1.04 1.59 1.57 0.42 0.44 0.85 0.88 1.28 1.31 0.52 0.55 1.05 1.09 1.59 1.62 0.5 0.52 1.02 1.03 1.54 1.54 0.48 0.5 0.99 1 1.5 1.5 0.39 0.41 0.81 0.81 1.22 1.21 0.58 0.62 1.19 1.22 1.81 1.82 0.33 0.34 0.66 0.69 1 1.03 0.61 0.64 1.26 1.25 1.9 1.87 0.36 0.37 0.73 0.73 1.1 1.1 0.54 0.56 1.09 1.13 1.65 1.68 0.48 0.5 0.98 0.99 1.47 1.47 0.47 0.49 0.95 0.96 1.44 1.44 0.39 0.41 0.78 0.82 1.19 1.22 0.61 0.64 1.24 1.25 1.87 1.87 0.34 0.35 0.69 0.67 1.03 1 0.62 0.65 1.24 1.28 1.88 1.91 0.33 0.34 0.69 0.66 1.03 1 0.55 0.58 1.11 1.15 1.69 1.72 0.58 0.6 1.17 1.19 1.78 1.78l0.03 0.03c0.27 0.27 0.53 0.55 0.81 0.81 0.5 0.52 1.02 1.03 1.53 1.54 0.64 0.66 1.3 1.35 1.97 2 0.47 0.48 0.96 0.96 1.44 1.43 0.48 0.5 0.97 0.99 1.47 1.47 0.47 0.49 0.95 0.96 1.44 1.44 0.48 0.49 0.97 0.99 1.47 1.47 0.59 0.61 1.19 1.22 1.81 1.81 0.36 0.37 0.72 0.76 1.09 1.12 0.36 0.37 0.73 0.71 1.1 1.07 0.11 0.12 0.22 0.25 0.34 0.37 0 0.01 0.02 0 0.03 0 0.32 0.33 0.65 0.65 0.97 0.97 0.16 0.16 0.31 0.34 0.47 0.5 0 0.01 0.02 0 0.03 0 0.46 0.47 0.9 0.95 1.37 1.41l0.03 0.03c0.02 0.01 0.03 0.02 0.04 0.03 0.48 0.49 0.97 0.99 1.46 1.47l1.47 1.47c0.45 0.45 0.89 0.93 1.35 1.37 0.02 0.02 0.04 0.04 0.06 0.07l0.06 0.06c0.47 0.48 0.96 0.93 1.44 1.4 0.29 0.3 0.58 0.59 0.88 0.88 0.16 0.17 0.33 0.36 0.5 0.53 0.02 0.03 0.06 0.04 0.09 0.06 0.43 0.44 0.84 0.88 1.28 1.31 0.02 0.03 0.04 0.05 0.06 0.07 0.03 0.03 0.06 0.06 0.1 0.09 0.48 0.49 0.97 0.99 1.47 1.47 0.5 0.51 1.01 1.03 1.53 1.53 0.26 0.27 0.54 0.54 0.81 0.81 0.15 0.16 0.31 0.32 0.47 0.47 0.03 0.04 0.09 0.06 0.12 0.1 0.39 0.4 0.76 0.79 1.16 1.18 0.05 0.06 0.1 0.11 0.15 0.16 0.05 0.04 0.09 0.08 0.13 0.12 0.31 0.32 0.62 0.63 0.94 0.94 0.13 0.14 0.24 0.28 0.37 0.41 0.05 0.05 0.11 0.08 0.16 0.12 0.48 0.5 0.97 0.99 1.47 1.47 0.41 0.42 0.8 0.84 1.22 1.25 0.05 0.06 0.1 0.11 0.15 0.16 0.04 0.04 0.09 0.08 0.13 0.12 0.29 0.3 0.58 0.59 0.87 0.88 0.12 0.12 0.23 0.23 0.35 0.34 0.05 0.06 0.12 0.1 0.18 0.16 0.49 0.49 0.98 0.99 1.47 1.47l0.72 0.72c0.18 0.18 0.35 0.37 0.53 0.56 0.07 0.07 0.15 0.12 0.22 0.19 0.6 0.6 1.2 1.22 1.81 1.81 0.23 0.22 0.43 0.46 0.66 0.69 0.07 0.07 0.15 0.14 0.22 0.21 0.07 0.08 0.14 0.15 0.22 0.22 0.48 0.49 0.97 0.99 1.47 1.47 0.47 0.48 0.95 0.97 1.43 1.44 0.49 0.5 0.97 0.98 1.47 1.47 0.21 0.21 0.42 0.42 0.63 0.62 0.19 0.2 0.37 0.4 0.56 0.6 0.09 0.08 0.19 0.16 0.28 0.25 0.48 0.49 0.98 0.99 1.47 1.47 0.32 0.33 0.64 0.67 0.97 1 0.11 0.11 0.23 0.22 0.34 0.34 0.09 0.09 0.19 0.16 0.28 0.25 0.44 0.44 0.87 0.88 1.32 1.31 0.19 0.2 0.39 0.4 0.59 0.6 0.19 0.19 0.37 0.4 0.56 0.59 0.1 0.1 0.21 0.18 0.31 0.28 0.23 0.23 0.44 0.46 0.66 0.69l0.47 0.47c0.11 0.1 0.21 0.21 0.31 0.31 0.48 0.49 0.98 0.99 1.47 1.47 0.49 0.49 0.97 0.98 1.47 1.47 0.22 0.22 0.44 0.43 0.66 0.65 0.15 0.16 0.28 0.32 0.43 0.47 0.11 0.11 0.24 0.21 0.35 0.32 0.48 0.49 0.97 0.98 1.47 1.46 0.21 0.22 0.43 0.44 0.65 0.66 0.15 0.15 0.29 0.32 0.44 0.47 0.12 0.12 0.25 0.22 0.38 0.34 0.48 0.49 0.97 0.99 1.46 1.47 0.27 0.27 0.54 0.54 0.82 0.81 0.08 0.09 0.16 0.19 0.25 0.29 0.12 0.12 0.24 0.25 0.37 0.37 0.53 0.53 1.05 1.07 1.6 1.59 0.21 0.22 0.44 0.42 0.65 0.63 0.1 0.1 0.18 0.21 0.28 0.31 0.13 0.13 0.28 0.25 0.41 0.38 0.25 0.25 0.5 0.49 0.75 0.75 0.1 0.1 0.18 0.21 0.28 0.31 0.14 0.13 0.27 0.27 0.41 0.4 0.48 0.5 0.97 0.99 1.46 1.47 0.49 0.5 0.97 0.99 1.47 1.47l0.53 0.53c0.16 0.17 0.31 0.34 0.47 0.5 0.16 0.15 0.32 0.29 0.47 0.44 0.48 0.49 0.95 0.96 1.44 1.44 0.49 0.49 0.97 0.98 1.47 1.47l0.34 0.34c0.21 0.22 0.42 0.44 0.63 0.66 0.16 0.16 0.33 0.31 0.5 0.47 0.31 0.33 0.65 0.64 0.97 0.97 0.26 0.25 0.51 0.52 0.78 0.78 0.01 0.01 0.01 0.04 0.03 0.06 0.3 0.32 0.63 0.62 0.94 0.94 0.11 0.11 0.22 0.23 0.34 0.34 0.43 0.43 0.87 0.85 1.31 1.28 0.24 0.24 0.45 0.48 0.69 0.72l0.25 0.25 0.5 0.5c0.49 0.49 0.97 0.98 1.47 1.47 0.48 0.49 0.97 0.99 1.47 1.47 0.48 0.49 0.97 0.98 1.47 1.47l0.4 0.4c0.16 0.17 0.31 0.34 0.47 0.5 0.19 0.18 0.38 0.35 0.56 0.53 0.49 0.5 0.97 0.99 1.47 1.47l0.38 0.38c0.17 0.17 0.33 0.35 0.5 0.53 0.19 0.19 0.4 0.37 0.59 0.56 0.58 0.59 1.16 1.18 1.75 1.75 0.19 0.2 0.37 0.4 0.56 0.6 0.2 0.19 0.4 0.39 0.6 0.59 0.55 0.56 1.12 1.11 1.68 1.65 0.21 0.22 0.42 0.45 0.63 0.66 0.2 0.2 0.42 0.4 0.63 0.6 2.55 2.57 5.22 5.07 8.06 7.43 24.49 20.45 58.92 32.35 93.56 32.35 21.13-0.01 42.25-4.33 61-12.47 18.75-8.15 35.11-20.09 47.25-34.53-1.02 0.12-2.04 0.21-3.06 0.31 0.52-0.6 1.05-1.21 1.56-1.81-0.11 0.01-0.22 0-0.31-0.04-0.9 0.11-1.79 0.2-2.69 0.29 0.51-0.58 1.01-1.17 1.5-1.75-0.21 0.02-0.4 0.01-0.59-0.07-0.77 0.09-1.54 0.18-2.32 0.25 0.48-0.55 0.97-1.1 1.44-1.65-0.32 0.03-0.65-0.01-0.94-0.13-0.63 0.08-1.27 0.13-1.9 0.19 0.45-0.52 0.9-1.04 1.34-1.56-0.42 0.05-0.87-0.03-1.25-0.19-0.5 0.06-1 0.1-1.5 0.16 0.42-0.49 0.84-0.98 1.25-1.47-0.53 0.06-1.05-0.02-1.53-0.22-0.38 0.04-0.77 0.08-1.16 0.12 0.4-0.46 0.8-0.94 1.19-1.4-0.63 0.07-1.27-0.01-1.84-0.25l-0.75 0.09c0.38-0.44 0.75-0.87 1.12-1.31-0.74 0.09-1.52-0.03-2.19-0.31-0.13 0.01-0.27 0.01-0.4 0.03 0.36-0.41 0.74-0.81 1.09-1.22-0.84 0.1-1.73-0.02-2.5-0.34 0.34-0.39 0.68-0.77 1-1.16-0.8 0.09-1.62 0-2.37-0.25 9.83-0.65 20.01-2.03 29.97-4.47 20.19-26.46 31.14-58.81 31.18-92.09 0-42.19-17.22-80.36-44.97-107.91-0.13-0.14-0.27-0.27-0.4-0.41-0.22-0.22-0.44-0.46-0.66-0.68-0.16-0.17-0.33-0.34-0.5-0.5-0.57-0.59-1.16-1.18-1.75-1.75-0.49-0.51-0.99-1.01-1.5-1.5-0.49-0.5-1-0.98-1.5-1.47-0.49-0.5-0.97-1.01-1.47-1.5-0.49-0.51-0.99-1.01-1.5-1.5-0.49-0.51-0.99-1.01-1.5-1.5-0.49-0.5-1-0.98-1.5-1.47-0.49-0.5-0.97-1.01-1.46-1.5l-1.5-1.5-1.5-1.5c-0.5-0.5-1.01-0.98-1.5-1.47-0.5-0.5-0.98-1.01-1.47-1.5l-1.5-1.5-1.5-1.5c-0.5-0.5-1.01-0.98-1.5-1.47-0.5-0.5-0.97-1.01-1.47-1.5l-1.5-1.5c-0.75-0.75-1.49-1.51-2.25-2.25-0.98-1-1.97-1.99-2.97-2.97l-0.75-0.75-1.5-1.5-1.5-1.5c-0.38-0.38-0.78-0.74-1.16-1.12-0.35-0.37-0.71-0.73-1.06-1.1-0.17-0.16-0.33-0.33-0.5-0.5-0.58-0.58-1.16-1.17-1.75-1.75l-1.5-1.5c-0.49-0.49-1-0.97-1.5-1.46-0.49-0.5-0.97-1.01-1.47-1.5-0.5-0.51-1-1.01-1.5-1.5-0.5-0.51-1-1.01-1.5-1.5-0.49-0.5-1-0.98-1.5-1.47-0.49-0.5-0.97-1.01-1.47-1.5-0.49-0.51-0.99-1.01-1.5-1.5-0.49-0.51-0.99-1.01-1.5-1.5-0.49-0.5-1-0.98-1.5-1.47-0.49-0.5-0.97-1.01-1.47-1.5-0.49-0.51-0.99-1.01-1.5-1.5-0.74-0.76-1.49-1.51-2.25-2.25-0.24-0.25-0.5-0.48-0.75-0.72l-0.06-0.06c-0.09-0.1-0.18-0.19-0.28-0.29-0.38-0.38-0.74-0.77-1.13-1.15-0.49-0.5-0.99-1-1.5-1.5-0.49-0.5-0.99-1.01-1.5-1.5-0.49-0.5-0.99-1-1.5-1.5-0.37-0.38-0.77-0.75-1.15-1.13-0.35-0.36-0.71-0.73-1.06-1.09l-0.5-0.5c-0.58-0.59-1.17-1.17-1.75-1.75l-1.5-1.5c-0.5-0.5-1.01-0.98-1.5-1.47-0.5-0.5-0.97-1.01-1.47-1.5l-1.5-1.5-1.5-1.5c-0.49-0.5-1-0.98-1.5-1.47-0.49-0.5-0.97-1.01-1.47-1.5l-1.5-1.5-1.5-1.5c-0.49-0.5-1-0.97-1.5-1.47-0.49-0.49-0.97-1-1.47-1.5l-1.5-1.5c-0.74-0.75-1.49-1.51-2.25-2.25-0.25-0.24-0.5-0.47-0.75-0.72l-0.06-0.06c-0.1-0.09-0.19-0.19-0.28-0.28-0.38-0.38-0.75-0.78-1.13-1.16l-1.5-1.5c-0.49-0.5-1-1-1.5-1.5l-1.5-1.5c-0.38-0.38-0.77-0.74-1.16-1.12-0.35-0.37-0.7-0.73-1.06-1.09-0.16-0.17-0.33-0.34-0.5-0.5-0.57-0.59-1.16-1.18-1.75-1.75-0.49-0.51-0.99-1.01-1.5-1.5-0.49-0.5-1-0.98-1.5-1.47-0.49-0.5-0.97-1.01-1.47-1.5-0.49-0.51-0.99-1.01-1.5-1.5-0.49-0.51-0.99-1.01-1.5-1.5-0.49-0.5-1-0.98-1.5-1.47-0.49-0.5-0.97-1.01-1.46-1.5l-1.5-1.5-1.5-1.5c-0.5-0.5-1.01-0.98-1.5-1.47-0.5-0.5-0.98-1.01-1.47-1.5l-1.5-1.5-1.5-1.5c-0.5-0.5-1.01-0.98-1.5-1.47-0.5-0.5-0.97-1.01-1.47-1.5l-1.5-1.5c-0.75-0.75-1.49-1.51-2.25-2.25-0.25-0.25-0.5-0.47-0.75-0.72l-0.06-0.06c-0.1-0.09-0.19-0.19-0.29-0.28-0.37-0.38-0.74-0.78-1.12-1.16l-1.5-1.5-1.5-1.5-1.5-1.5c-0.38-0.38-0.78-0.74-1.16-1.12-0.35-0.37-0.71-0.73-1.06-1.1-0.17-0.16-0.33-0.33-0.5-0.5-0.58-0.58-1.16-1.17-1.75-1.75l-1.5-1.5c-0.49-0.49-1-0.97-1.5-1.46-0.49-0.5-0.97-1.01-1.47-1.5-0.5-0.51-1-1.01-1.5-1.5-0.5-0.51-1-1.01-1.5-1.5-0.49-0.5-1-0.98-1.5-1.47-0.49-0.5-0.97-1.01-1.47-1.5-0.49-0.51-0.99-1.01-1.5-1.5-0.49-0.51-0.99-1.01-1.5-1.5-0.49-0.5-1-0.98-1.5-1.47-0.49-0.5-0.97-1.01-1.47-1.5-0.49-0.51-0.99-1.01-1.5-1.5-0.74-0.76-1.49-1.51-2.25-2.25-0.24-0.25-0.5-0.48-0.75-0.72l-0.06-0.06c-0.09-0.1-0.18-0.19-0.28-0.29-0.38-0.38-0.74-0.77-1.13-1.15-0.49-0.5-0.99-1-1.5-1.5-0.49-0.5-0.99-1.01-1.5-1.5-0.49-0.5-0.99-1-1.5-1.5-0.37-0.38-0.77-0.75-1.15-1.13-0.35-0.36-0.71-0.73-1.06-1.09l-0.5-0.5c-0.58-0.59-1.17-1.17-1.75-1.75l-1.5-1.5c-0.5-0.5-1.01-0.98-1.5-1.47-0.5-0.5-0.97-1.01-1.47-1.5l-1.5-1.5-1.5-1.5c-0.49-0.5-1-0.98-1.5-1.47-0.49-0.5-0.97-1.01-1.47-1.5l-1.5-1.5-1.5-1.5c-0.49-0.5-1-0.97-1.5-1.47-0.49-0.49-0.97-1-1.47-1.5l-1.5-1.5c-0.74-0.75-1.49-1.51-2.25-2.25-0.25-0.24-0.5-0.47-0.75-0.72l-0.06-0.06c-0.1-0.09-0.19-0.19-0.28-0.28-0.38-0.38-0.75-0.78-1.13-1.16l-1.5-1.5c-0.49-0.5-1-1-1.5-1.5-0.25-0.25-0.5-0.5-0.75-0.74-0.98-1.01-1.96-2-2.97-2.97-0.16-0.17-0.33-0.34-0.5-0.5-0.57-0.59-1.16-1.18-1.75-1.75-0.49-0.51-0.99-1.01-1.5-1.5-0.49-0.5-1-0.98-1.5-1.47-0.49-0.5-0.97-1.01-1.47-1.5-0.49-0.51-0.99-1.01-1.5-1.5-0.49-0.51-0.99-1.01-1.5-1.5-0.49-0.5-1-0.98-1.5-1.47-0.49-0.5-0.97-1.01-1.46-1.5l-1.5-1.5-1.5-1.5c-0.5-0.5-1.01-0.98-1.5-1.47-0.5-0.5-0.98-1.01-1.47-1.5l-1.5-1.5-1.5-1.5c-0.5-0.5-1.01-0.98-1.5-1.47-0.5-0.5-0.97-1.01-1.47-1.5l-1.5-1.5c-0.75-0.75-1.49-1.51-2.25-2.25-0.25-0.25-0.5-0.47-0.75-0.72l-0.06-0.06c-0.1-0.09-0.19-0.19-0.29-0.28-0.37-0.38-0.74-0.78-1.12-1.16l-1.5-1.5-1.5-1.5-1.5-1.5c-0.38-0.38-0.78-0.74-1.16-1.12-0.35-0.37-0.71-0.73-1.06-1.1-0.17-0.16-0.33-0.33-0.5-0.5-0.58-0.58-1.16-1.17-1.75-1.75l-1.5-1.5c-0.49-0.49-1-0.97-1.5-1.46-0.49-0.5-0.97-1.01-1.47-1.5-0.5-0.51-1-1.01-1.5-1.5-0.5-0.51-1-1.01-1.5-1.5-0.49-0.5-1-0.98-1.5-1.47-0.49-0.5-0.97-1.01-1.47-1.5-0.49-0.51-0.99-1.01-1.5-1.5-0.49-0.51-0.99-1.01-1.5-1.5-0.49-0.5-1-0.98-1.5-1.47-0.49-0.5-0.97-1.01-1.47-1.5-0.49-0.51-0.99-1.01-1.5-1.5-0.74-0.76-1.49-1.51-2.25-2.25-0.24-0.25-0.5-0.48-0.75-0.72l-0.06-0.06c-0.09-0.1-0.18-0.19-0.28-0.29-0.38-0.38-0.74-0.77-1.13-1.15-0.49-0.5-0.99-1-1.5-1.5-0.49-0.5-0.99-1.01-1.5-1.5-0.49-0.5-0.99-1-1.5-1.5-0.37-0.38-0.77-0.75-1.15-1.13-0.35-0.36-0.71-0.73-1.06-1.09l-0.5-0.5c-0.58-0.59-1.17-1.17-1.75-1.75l-1.5-1.5c-0.5-0.5-1.01-0.98-1.5-1.47-0.5-0.5-0.97-1.01-1.47-1.5l-1.5-1.5-1.5-1.5c-0.49-0.5-1-0.98-1.5-1.47-0.49-0.5-0.97-1.01-1.47-1.5l-1.5-1.5-1.5-1.5c-0.49-0.5-1-0.97-1.5-1.47-0.49-0.49-0.97-1-1.47-1.5l-1.5-1.5-1.5-1.5c-0.49-0.49-1-0.97-1.5-1.47-0.49-0.49-0.97-1-1.47-1.5l-1.5-1.5c-0.74-0.75-1.49-1.51-2.25-2.24-27.62-28.4-66.26-46.03-109-46.04z"/>
 <path id="path10" fill-rule="evenodd" fill-opacity="0.067" d="m256 1c-140.83 0-255 114.17-255 255s114.17 255 255 255 255-114.17 255-255-114.17-255-255-255m8.827 44.931c120.9 0 218.9 98 218.9 218.9s-98 218.9-218.9 218.9-218.93-98-218.93-218.9 98.03-218.9 218.93-218.9"/>
 <path id="path14" d="m256 4.43c-138.94 0-251.57 112.63-251.57 251.57s112.63 251.57 251.57 251.57 251.57-112.63 251.57-251.57-112.63-251.57-251.57-251.57m5.885 38.556c120.9 0 218.9 98 218.9 218.9s-98 218.9-218.9 218.9-218.93-98-218.93-218.9 98.03-218.9 218.93-218.9" fill-rule="evenodd" fill-opacity="0.129"/>
 <path id="path16" d="m256 8.36c-136.77 0-247.64 110.87-247.64 247.64s110.87 247.64 247.64 247.64 247.64-110.87 247.64-247.64-110.87-247.64-247.64-247.64m2.942 31.691c120.9 0 218.9 98 218.9 218.9s-98 218.9-218.9 218.9-218.93-98-218.93-218.9 98.03-218.9 218.93-218.9" fill-rule="evenodd" fill-opacity="0.129"/>
 <path id="path18" d="m253.04 7.86c-135.42 0-245.19 109.78-245.19 245.19 0 135.42 109.78 245.19 245.19 245.19 135.42 0 245.19-109.78 245.19-245.19 0-135.42-109.78-245.19-245.19-245.19zm0 26.297c120.9 0 218.9 98 218.9 218.9s-98 218.9-218.9 218.9-218.93-98-218.93-218.9 98.03-218.9 218.93-218.9z" stroke-opacity="0.31" fill-rule="evenodd" stroke="#000" stroke-width="4.904" fill="#fff"/>
 <path id="path27464" d="m256.03 101.34a152.09 152.09 0 0 0 -152.12 152.07 152.09 152.09 0 0 0 3.34 30.97 112.29 112.29 0 0 1 112 -106.47 112.29 112.29 0 0 1 112.31 112.25 112.29 112.29 0 0 1 -17.18 59.37c17.86 1.69 40.74 1.32 62.53-4.03a152.09 152.09 0 0 0 31.18 -92.09 152.09 152.09 0 0 0 -152.06 -152.07zm-26.78 99.72c-1.45-0.01-2.89 0-4.31 0.03-34.08 0.7-60.83 14.32-81.82 39.6-13.55 17.63-20.9 38.55-20.93 59.5 0 28.92 14.25 57.67 38.75 78.12 24.49 20.45 58.92 32.35 93.56 32.35 21.13-0.01 42.25-4.33 61-12.47 18.75-8.15 35.11-20.09 47.25-34.53-21.17 2.5-43.2-0.53-62.37-8.6-19.18-8.07-35.42-21.16-46-37.03-13.65-16.7-20.54-37.35-19.26-57.69 1.29-20.34 10.75-40.24 26.41-55.59-11.41-2.35-22.16-3.58-32.28-3.69z" fill="#fff"/>
</svg>
