<?xml version="1.0" encoding="UTF-8" standalone="no"?>
<svg
   xmlns:dc="http://purl.org/dc/elements/1.1/"
   xmlns:cc="http://creativecommons.org/ns#"
   xmlns:rdf="http://www.w3.org/1999/02/22-rdf-syntax-ns#"
   xmlns:svg="http://www.w3.org/2000/svg"
   xmlns="http://www.w3.org/2000/svg"
   xmlns:sodipodi="http://sodipodi.sourceforge.net/DTD/sodipodi-0.dtd"
   xmlns:inkscape="http://www.inkscape.org/namespaces/inkscape"
   height="512"
   viewBox="0 0 512 512"
   width="512"
   version="1.1"
   id="svg2"
   inkscape:version="0.91 r13725"
   sodipodi:docname="webcam.svg">
  <defs
     id="defs17" />
  <sodipodi:namedview
     pagecolor="#ffffff"
     bordercolor="#666666"
     borderopacity="1"
     objecttolerance="10"
     gridtolerance="10"
     guidetolerance="10"
     inkscape:pageopacity="0"
     inkscape:pageshadow="2"
     inkscape:window-width="1680"
     inkscape:window-height="1021"
     id="namedview15"
     showgrid="false"
     inkscape:zoom="1.5070222"
     inkscape:cx="149.97042"
     inkscape:cy="206.22998"
     inkscape:window-x="1920"
     inkscape:window-y="0"
     inkscape:window-maximized="1"
     inkscape:current-layer="svg2" />
  <metadata
     id="metadata28">
    <rdf:RDF>
      <cc:Work
         rdf:about="">
        <dc:format>image/svg+xml</dc:format>
        <dc:type
           rdf:resource="http://purl.org/dc/dcmitype/StillImage" />
        <dc:title></dc:title>
      </cc:Work>
    </rdf:RDF>
  </metadata>
  <path
     style="fill:#BF9E73;fill-rule:evenodd;fill-opacity:1"
     inkscape:connector-curvature="0"
     d="m 471.95,253.05 c 0,120.9 -98.01,218.9 -218.9,218.9 -120.9,0 -218.9,-98.01 -218.9,-218.9 0,-120.9 98.01,-218.9 218.9,-218.9 120.9,0 218.9,98.01 218.9,218.9"
     id="path6" />
  <path
     style="fill-opacity:0.06700003;fill-rule:evenodd"
     inkscape:connector-curvature="0"
     d="M 256,1 C 115.17,1 1,115.17 1,256 1,396.83 115.17,511 256,511 396.83,511 511,396.83 511,256 511,115.17 396.83,1 256,1 m 8.827,44.931 c 120.9,0 218.9,98 218.9,218.9 0,120.9 -98,218.9 -218.9,218.9 -120.9,0 -218.93,-98 -218.93,-218.9 0,-120.9 98.03,-218.9 218.93,-218.9"
     id="path8" />
  <g
     style="fill-opacity:0.12900002;fill-rule:evenodd"
     id="g10">
    <path
       inkscape:connector-curvature="0"
       d="m 256,4.433 c -138.94,0 -251.57,112.63 -251.57,251.57 0,138.94 112.63,251.57 251.57,251.57 138.94,0 251.57,-112.63 251.57,-251.57 C 507.57,117.063 394.94,4.433 256,4.433 m 5.885,38.556 c 120.9,0 218.9,98 218.9,218.9 0,120.9 -98,218.9 -218.9,218.9 -120.9,0 -218.93,-98 -218.93,-218.9 0,-120.9 98.03,-218.9 218.93,-218.9"
       id="path12" />
    <path
       inkscape:connector-curvature="0"
       d="m 256,8.356 c -136.77,0 -247.64,110.87 -247.64,247.64 0,136.77 110.87,247.64 247.64,247.64 136.77,0 247.64,-110.87 247.64,-247.64 C 503.64,119.226 392.77,8.356 256,8.356 m 2.942,31.691 c 120.9,0 218.9,98 218.9,218.9 0,120.9 -98,218.9 -218.9,218.9 -120.9,0 -218.93,-98 -218.93,-218.9 0,-120.9 98.03,-218.9 218.93,-218.9"
       id="path14" />
  </g>
  <path
     inkscape:connector-curvature="0"
     style="opacity:0.25"
     id="path4190"
     d="m 302.55636,114.92781 c -0.849,0.192 -1.489,0.381 -2.236,0.568 l 11.867,11.867 c -12.395,-6.969 -23.63364,-18.3736 -42.15864,-18.6556 0,0 15.67013,23.86417 7.28097,-8.62629 -16.356,0.358 -42.99233,20.59389 -52.13133,27.92389 -0.379,0.304 -0.744,0.621 -1.113,0.934 l -4.193,-4.193 c -16.89196,-3.96126 -37.72453,49.00713 -63.2403,49.58383 -12.08401,0.27312 25.08802,13.4705 18.28096,18.10598 -5.69626,3.87906 -36.96403,7.65446 -41.9525,12.56037 27.57982,28.35705 45.64259,64.22279 60.81681,107.01251 11.17992,17.12 89.29231,38.09204 80.5833,41.98868 L 135.40318,401.2516 245.5665,472.52341 c 121.95793,14.21327 235.00994,-106.57001 228.58686,-219.9456 -0.79979,-14.11736 -1.357,-27.971 -3.92,-41.37 -45.34959,-33.83941 -83.90137,-58.95237 -149.21984,-99.503"
     sodipodi:nodetypes="ccccccccsscccccscc" />
  <path
     style="fill:#ffffff;fill-rule:evenodd;stroke:#000000;stroke-width:4.90399981;stroke-opacity:0.31000001"
     inkscape:connector-curvature="0"
     d="m 253.04,7.859 c -135.42,0 -245.19,109.78 -245.19,245.19 0,135.42 109.78,245.19 245.19,245.19 135.42,0 245.19,-109.78 245.19,-245.19 0,-135.42 -109.78,-245.19 -245.19,-245.19 z m 0,26.297 c 120.9,0 218.9,98 218.9,218.9 0,120.9 -98,218.9 -218.9,218.9 -120.9,0 -218.93,-98 -218.93,-218.9 0,-120.9 98.03,-218.9 218.93,-218.9 z"
     id="path16" />
  <g
     transform="matrix(4.4693852,0,0,4.4693852,62.519773,23.559716)"
     id="g4706"
     style="fill:#ffffff;fill-opacity:1">
    <path
       d="M 69.502,78.115 57.846,66.684 c -4.389,2.605 -9.508,4.106 -14.974,4.106 -5.465,0 -10.586,-1.501 -14.975,-4.108 L 16.105,78.247 c -1.658,1.627 -1.814,4.244 -0.363,6.058 1.454,1.812 4.042,2.23 5.991,0.967 2.899,-1.88 12.226,-6.758 20.457,-6.758 11.184,0 21.719,6.694 21.825,6.762 0.756,0.488 1.608,0.724 2.452,0.724 0.041,0 0.08,-0.001 0.123,-0.001 2.445,-0.061 4.41,-2.062 4.41,-4.523 0,-1.333 -0.578,-2.533 -1.498,-3.361 z"
       id="path6-3"
       inkscape:connector-curvature="0"
       style="fill:#ffffff;fill-opacity:1" />
    <circle
       cx="42.872002"
       cy="41.373001"
       r="7.599"
       id="circle8"
       style="fill:#ffffff;fill-opacity:1" />
    <path
       d="M 42.872,14.985 C 28.268,14.985 16.364,26 15.793,41 l 16.203,0 c 0.548,-6 5.216,-9.843 10.876,-9.843 5.659,0 10.328,3.843 10.875,9.843 l 16.205,0 C 69.381,26 57.475,14.985 42.872,14.985 Z m -10e-4,9.447 c -1.469,0 -2.66,-1.192 -2.66,-2.662 0,-1.47 1.191,-2.662 2.66,-2.662 1.472,0 2.663,1.192 2.663,2.662 0,1.47 -1.192,2.662 -2.663,2.662 z"
       id="path10"
       inkscape:connector-curvature="0"
       style="fill:#ffffff;fill-opacity:1" />
    <path
       d="m 42.872,52.304 c -5.66,0 -10.328,-4.325 -10.876,-9.843 l -16.203,0 c 0.08606,2.176131 0.428601,4.286324 0.998239,6.301162 C 20.007788,60.139267 30.465194,68.476 42.872,68.476 c 14.603,0 26.509,-11.551 27.08,-26.015 l -16.206,0 c -0.547,5.518 -5.215,9.843 -10.874,9.843 z"
       id="path12-6"
       inkscape:connector-curvature="0"
       style="fill:#ffffff;fill-opacity:1"
       sodipodi:nodetypes="sccssccs" />
  </g>
</svg>
