<?xml version="1.0" encoding="UTF-8" standalone="no"?>
<svg
   xmlns:dc="http://purl.org/dc/elements/1.1/"
   xmlns:cc="http://creativecommons.org/ns#"
   xmlns:rdf="http://www.w3.org/1999/02/22-rdf-syntax-ns#"
   xmlns:svg="http://www.w3.org/2000/svg"
   xmlns="http://www.w3.org/2000/svg"
   xmlns:sodipodi="http://sodipodi.sourceforge.net/DTD/sodipodi-0.dtd"
   xmlns:inkscape="http://www.inkscape.org/namespaces/inkscape"
   viewBox="0 0 512 512"
   id="svg2"
   version="1.1"
   inkscape:version="0.91 r13725"
   sodipodi:docname="weebly.svg">
  <metadata
     id="metadata74">
    <rdf:RDF>
      <cc:Work
         rdf:about="">
        <dc:format>image/svg+xml</dc:format>
        <dc:type
           rdf:resource="http://purl.org/dc/dcmitype/StillImage" />
      </cc:Work>
    </rdf:RDF>
  </metadata>
  <defs
     id="defs72" />
  <sodipodi:namedview
     pagecolor="#ffffff"
     bordercolor="#666666"
     borderopacity="1"
     objecttolerance="10"
     gridtolerance="10"
     guidetolerance="10"
     inkscape:pageopacity="0"
     inkscape:pageshadow="2"
     inkscape:window-width="1680"
     inkscape:window-height="1024"
     id="namedview70"
     showgrid="false"
     inkscape:zoom="0.4609375"
     inkscape:cx="-322.16949"
     inkscape:cy="256"
     inkscape:window-x="0"
     inkscape:window-y="0"
     inkscape:window-maximized="0"
     inkscape:current-layer="svg2" />
  <g
     fill-rule="evenodd"
     id="g4">
    <path
       d="m471.95 253.05c0 120.9-98.01 218.91-218.91 218.91s-218.91-98.01-218.91-218.91 98.01-218.91 218.91-218.91 218.91 98.01 218.91 218.91"
       fill="#BF9E73"
       id="path6" />
    <path
       d="m256 1c-140.83 0-255 114.17-255 255s114.17 255 255 255 255-114.17 255-255-114.17-255-255-255m8.827 44.931c120.9 0 218.9 98 218.9 218.9s-98 218.9-218.9 218.9-218.93-98-218.93-218.9 98.03-218.9 218.93-218.9"
       fill-opacity="0.067"
       id="path8" />
    <g
       fill-opacity="0.129"
       id="g10">
      <path
         d="m256 4.43c-138.94 0-251.57 112.63-251.57 251.57s112.63 251.57 251.57 251.57 251.57-112.63 251.57-251.57-112.63-251.57-251.57-251.57m5.885 38.556c120.9 0 218.9 98 218.9 218.9s-98 218.9-218.9 218.9-218.93-98-218.93-218.9 98.03-218.9 218.93-218.9"
         id="path12" />
      <path
         d="m256 8.36c-136.77 0-247.64 110.87-247.64 247.64s110.87 247.64 247.64 247.64 247.64-110.87 247.64-247.64-110.87-247.64-247.64-247.64m2.942 31.691c120.9 0 218.9 98 218.9 218.9s-98 218.9-218.9 218.9-218.93-98-218.93-218.9 98.03-218.9 218.93-218.9"
         id="path14" />
    </g>
    <path
       stroke="#000"
       stroke-width="4.904"
       d="m253.04 7.86c-135.42 0-245.19 109.78-245.19 245.19 0 135.42 109.78 245.19 245.19 245.19 135.42 0 245.19-109.78 245.19-245.19 0-135.42-109.78-245.19-245.19-245.19m0 26.297c120.9 0 218.9 98 218.9 218.9s-98 218.9-218.9 218.9-218.93-98-218.93-218.9 98.03-218.9 218.93-218.9z"
       stroke-opacity="0.31"
       fill="#fff"
       id="path16" />
  </g>
  <text
     font-size="129.23"
     y="231.36"
     x="729.64"
     font-family="'Gentium Book Basic'"
     line-height="125%"
     word-spacing="0"
     letter-spacing="0"
     id="text18">
    <tspan
       y="231.36"
       x="729.64"
       id="tspan20" />
  </text>
  <text
     transform="scale(4.0128.2492)"
     font-size="46.954"
     y="579.26"
     x="378.91"
     font-family="Arial"
     text-anchor="middle"
     id="text22" />
  <text
     font-size="129.23"
     y="151.36"
     x="1310.91"
     font-family="'Gentium Book Basic'"
     line-height="125%"
     word-spacing="0"
     letter-spacing="0"
     id="text24">
    <tspan
       y="151.36"
       x="1310.91"
       id="tspan26" />
  </text>
  <text
     transform="scale(4.0128.2492)"
     font-size="46.954"
     y="258.22"
     x="523.76"
     font-family="Arial"
     text-anchor="middle"
     id="text28" />
  <text
     font-size="129.23"
     y="-29.9"
     x="239.33"
     font-family="'Gentium Book Basic'"
     line-height="125%"
     word-spacing="0"
     letter-spacing="0"
     id="text30">
    <tspan
       y="-29.9"
       x="239.33"
       id="tspan32" />
  </text>
  <text
     transform="scale(4.0128.2492)"
     font-size="46.954"
     y="-469.13"
     x="256.72"
     font-family="Arial"
     text-anchor="middle"
     id="text34" />
  <text
     font-size="129.23"
     y="-246.37"
     x="1337.38"
     font-family="'Gentium Book Basic'"
     line-height="125%"
     word-spacing="0"
     letter-spacing="0"
     id="text36">
    <tspan
       y="-246.37"
       x="1337.38"
       id="tspan38" />
  </text>
  <text
     transform="scale(4.0128.2492)"
     font-size="46.954"
     y="-1337.8"
     x="530.36"
     font-family="Arial"
     text-anchor="middle"
     id="text40" />
  <text
     font-size="129.23"
     y="-326.37"
     x="1918.65"
     font-family="'Gentium Book Basic'"
     line-height="125%"
     word-spacing="0"
     letter-spacing="0"
     id="text42">
    <tspan
       y="-326.37"
       x="1918.65"
       id="tspan44" />
  </text>
  <text
     transform="scale(4.0128.2492)"
     font-size="46.954"
     y="-1658.83"
     x="675.21"
     font-family="Arial"
     text-anchor="middle"
     id="text46" />
  <text
     font-size="129.23"
     y="-798.77"
     x="1529.53"
     font-family="'Gentium Book Basic'"
     line-height="125%"
     word-spacing="0"
     letter-spacing="0"
     id="text48">
    <tspan
       y="-798.77"
       x="1529.53"
       id="tspan50" />
  </text>
  <text
     transform="scale(4.0128.2492)"
     font-size="46.954"
     y="-3554.48"
     x="578.24"
     font-family="Arial"
     text-anchor="middle"
     id="text52" />
  <text
     font-size="129.23"
     y="-878.78"
     x="2110.79"
     font-family="'Gentium Book Basic'"
     line-height="125%"
     word-spacing="0"
     letter-spacing="0"
     id="text54">
    <tspan
       y="-878.78"
       x="2110.79"
       id="tspan56" />
  </text>
  <text
     transform="scale(4.0128.2492)"
     font-size="46.954"
     y="-3875.52"
     x="723.09"
     font-family="Arial"
     text-anchor="middle"
     id="text58" />
  <text
     font-size="208.33"
     y="535.94"
     x="277.99"
     font-family="'Gentium Book Basic'"
     line-height="125%"
     word-spacing="0"
     letter-spacing="0"
     id="text60">
    <tspan
       y="535.94"
       x="277.99"
       id="tspan62" />
  </text>
  <path
     opacity="0.25"
     d="m255.92 128.95c-12.681 0.05-22.768 8.913-30.484 20.367-6.771 10.05-12.79 23.277-18.639 39.992l-47.19-47.19c-17-17-45.946-15.05-61.55 4.383-3.25 4.046-5.932 9.743-6.719 15.875s-0.186 12.579 1.344 20.531c3.06 15.905 10.124 38.494 22.594 76.22 8.132 24.601 16.964 48.46 24.75 67.31 6.65 14.04 12.198 29.23 20.22 39.469 0.496 0.523 0.995 1.036 1.498 1.539l104.13 104.13c114.92-6.649 206.07-101.94 206.07-218.52 0-20.15-2.736-39.654-7.832-58.18l-53.04-53.04c-6.249-6.249-14.362-9.138-22.699-10.832-6.872-1.397-14.335-1.21-21.16 1.625-6.821 2.835-12.417 7.958-16.906 14.281-7.542 10.622-13.07 24.994-18.771 45.05l-52.31-52.31c-6.219-6.219-13.407-10.326-22.08-10.68-0.414-0.017-0.825-0.025-1.234-0.023"
     id="path64" />
  <path
     d="m257.16 128.97c-13.263-0.541-23.754 8.52-31.719 20.344s-14.889 27.988-21.719 49.13c-3.355 10.385-6.913 19.464-10.188 26.938-2.505-6.295-5.118-13.551-7.5-21.844-3.482-12.12-7.644-24.325-11.656-34.5-4.01-10.175-6.785-17.357-11.844-23.656-16.409-20.432-47.932-19.467-64.47 1.125-3.25 4.046-5.932 9.743-6.719 15.875s-0.186 12.579 1.344 20.531c3.06 15.905 10.124 38.494 22.594 76.22 8.132 24.601 16.964 48.46 24.75 67.31 6.65 14.04 12.198 29.23 20.22 39.469 7.792 8.209 16.431 14.03 26.13 16.219 17.06 1.041 23.08-1.786 28.375-5.25 16.679-10.638 27.41-31.24 35.5-60 2.404-8.544 5.02-15.556 7.344-21.16 6.818 23.25 13.289 41.23 20.344 54.59 8.169 15.475 17.867 26.389 31.19 29.844 8.52 2.21 17.752 2.847 26.531-0.563 8.78-3.41 15.901-10.243 22.09-19.344 12.386-18.202 23.289-47.11 39.438-95.34 15.431-46.09 23.688-73.896 23.813-94.75 0.062-10.427-2.466-20.15-8.844-27.19s-14.955-10.175-23.781-11.969c-6.872-1.397-14.335-1.21-21.16 1.625-6.821 2.835-12.417 7.958-16.906 14.281-8.979 12.646-15.11 30.574-22.06 57.13-2.313 8.831-4.704 16.626-7 23.656-3.145-7.62-6.492-16.265-9.875-26.09-7.455-21.659-14.841-38.3-23-50.53-8.159-12.229-17.956-21.552-31.22-22.09m-1.031 25.375c0.69 0.028 5.04 1.685 11.125 10.813 6.09 9.128 13.07 24.23 20.13 44.719 4.91 14.263 9.965 27.19 14.344 36.906 2.19 4.857 4.155 8.878 6.125 12.188 0.985 1.655 1.924 3.102 3.344 4.75s2.568 5.438 11.06 5.438c8.255 0 9.882-4.02 11.281-5.781 1.4-1.76 2.227-3.272 3.094-4.938 1.734-3.331 3.358-7.248 5.125-12 3.533-9.504 7.426-22.09 11.06-35.969 6.68-25.503 13.02-41.571 18.19-48.844 2.582-3.636 4.516-4.959 5.969-5.563 1.452-0.604 3.02-0.862 6.344-0.188 6.227 1.266 8.922 2.901 10.03 4.125 1.109 1.224 2.29 3.297 2.25 10-0.08 13.406-7.239 41.26-22.5 86.84-15.989 47.76-27.405 75.989-36.34 89.13-4.469 6.568-7.783 8.967-10.281 9.938-2.498 0.97-5.384 1.136-10.969-0.313-3.269-0.848-8.508-4.649-15.09-17.12-6.586-12.476-13.778-32.454-21.594-60.62-1.822-6.565-3.53-12.987-11.781-17.188-4.126-2.1-9.834-2.132-13.719-0.594s-6.379 3.83-8.469 6.188c-8.359 9.43-13.229 23.12-19.03 43.75-7.231 25.706-17.546 40.894-24.719 45.47-3.586 2.287-5.878 2.639-9.125 1.906-3.247-0.732-7.892-3.227-13.313-8.938 0.749 0.789-2.296-3.441-5.125-9.156-2.829-5.716-6.288-13.466-10.03-22.531-7.487-18.13-16.18-41.556-24.12-65.59-12.403-37.525-19.244-60.04-21.75-73.06-1.253-6.512-1.347-10.497-1.094-12.469s0.369-2.044 1.313-3.219c8.02-9.992 17.727-10.06 24.906-1.125-0.135-0.169 4.334 7.765 8 17.06 3.666 9.298 7.631 20.896 10.875 32.19 3.511 12.221 7.493 23.32 11.375 31.875 1.941 4.277 3.807 7.869 5.969 11.06 1.081 1.597 2.174 3.12 3.938 4.75 1.76 1.626 4.378 4.123 9.938 4.281h0.031c6.268 0.171 8.956-2.676 10.75-4.344 1.798-1.671 2.95-3.204 4.094-4.875 2.287-3.342 4.344-7.242 6.563-11.906 4.437-9.329 9.213-21.597 13.594-35.16 6.421-19.873 12.97-34.32 18.625-42.719 5.655-8.395 8.935-9.184 9.625-9.156m73.59 91.66c0.418 0.548 0.598 1.053 0.688 1.156 0.243 0.282-0.163-0.286-0.688-1.156"
     fill="#BF9E73"
     id="path66" />
  <path
     d="m169.46 357.2c-7.097-7.48-26.06-53.4-42.13-102.06-24.872-75.27-27.761-90.29-19.375-100.73 12.281-15.296 32.896-15.815 44.69-1.126 4.923 6.132 14.455 30.31 21.18 53.732 6.726 23.42 15.459 42.669 19.407 42.774 3.948 0.115 14.11-21.261 22.577-47.48 26.5-82.04 54.55-80.896 83.57 3.412 9.605 27.91 19.896 50.746 22.87 50.746s11.21-22.16 18.303-49.25c13.635-52.07 24.911-67.953 45.29-63.809 30.11 6.121 29.989 25.75-0.702 117.45-32.14 96.02-44.614 114.36-72.822 107.04-16.589-4.304-29.872-29.474-45.736-86.67-5.733-20.669-17.365-7.543-28.545 32.21-15.321 54.48-42.15 71.6-68.58 43.749"
     fill="#BF9E73"
     id="path68"
     style="fill:#ffffff;stroke:none" />
</svg>
