<?xml version="1.0" encoding="UTF-8" standalone="no"?>
<svg xmlns="http://www.w3.org/2000/svg" height="512" viewBox="0 0 512 512" width="512" version="1.1">
 <metadata id="metadata72"/>
 <path id="path4" d="m471.95 253.05c0 120.9-98.01 218.9-218.9 218.9-120.9 0-218.9-98.01-218.9-218.9 0-120.9 98.01-218.9 218.9-218.9 120.9 0 218.9 98.01 218.9 218.9" fill-rule="evenodd" fill="#BF9E73"/>
 <path id="path6" fill-opacity="0.235" d="m337.22 136.69-21.281 20.813c15.851 15.487 24.21 35.539 25 55.781-0.202-0.206-0.387-0.422-0.594-0.625-0.324-0.337-0.633-0.67-0.969-1l-0.031 0.031c-0.326-0.339-0.631-0.7-0.969-1.031l-0.031 0.031c-0.328-0.341-0.629-0.698-0.969-1.031l-0.031 0.031c-0.325-0.337-0.633-0.701-0.969-1.031l-0.031 0.031c-0.327-0.339-0.631-0.699-0.969-1.031l-0.031 0.031c-0.031-0.032-0.063-0.062-0.094-0.094-0.283-0.308-0.583-0.603-0.875-0.906h-0.031c-0.021-0.021-0.042-0.041-0.063-0.063-0.605-0.658-1.23-1.304-1.875-1.938l-0.031 0.031c-0.327-0.339-0.631-0.699-0.969-1.031l-0.031 0.031c-0.326-0.338-0.632-0.7-0.969-1.031l-0.031 0.031c-0.325-0.337-0.633-0.701-0.969-1.031l-0.031 0.031c-0.322-0.333-0.636-0.673-0.969-1h-0.031c-0.626-0.682-1.27-1.344-1.938-2l-0.031 0.031c-0.317-0.345-0.642-0.693-0.969-1.031h-0.031c-0.322-0.333-0.636-0.673-0.969-1l-0.031 0.031c-0.327-0.338-0.632-0.7-0.969-1.031l-0.031 0.031c-0.308-0.318-0.62-0.625-0.938-0.938-0.648-0.705-1.31-1.384-2-2.063l-0.031 0.031c-0.636-0.69-1.292-1.366-1.969-2.031l-0.031 0.031c-0.328-0.338-0.631-0.699-0.969-1.031l-0.031 0.031c-0.288-0.298-0.579-0.582-0.875-0.875-0.669-0.728-1.349-1.424-2.063-2.125l-0.031 0.031c-0.33-0.341-0.629-0.697-0.969-1.031l-0.031 0.031c-0.327-0.337-0.632-0.7-0.969-1.031l-0.031 0.031c-0.329-0.339-0.63-0.698-0.969-1.031l-0.031 0.031c-0.326-0.336-0.633-0.701-0.969-1.031l-0.031 0.031c-0.325-0.335-0.634-0.671-0.969-1l-0.031 0.031c-0.638-0.688-1.261-1.366-1.938-2.031l-0.031 0.031c-0.636-0.686-1.295-1.369-1.969-2.031l-0.031 0.031c-0.327-0.337-0.632-0.701-0.969-1.031l-0.031 0.031c-0.226-0.232-0.457-0.458-0.688-0.688-0.01-0.011-0.021-0.021-0.031-0.031-0.716-0.779-1.456-1.531-2.219-2.281l-0.031 0.031c-0.329-0.339-0.63-0.698-0.969-1.031-0.091 0.089-11.719 11.469-11.719 11.469 0.353 0.347 0.692 0.707 1.031 1.063 0.042 0.085 0.041 0.179-0.031 0.25 0.376 0.37 0.733 0.746 1.094 1.125-0.022 0.067-0.04 0.134-0.094 0.188 0.388 0.382 0.753 0.765 1.125 1.156-0.032 0.059-0.074 0.106-0.125 0.156 0.381 0.375 0.729 0.772 1.094 1.156-0.037 0.058-0.074 0.106-0.125 0.156 0.39 0.383 0.752 0.794 1.125 1.188-0.038 0.053-0.077 0.109-0.125 0.156 0.386 0.38 0.756 0.767 1.125 1.156-0.039 0.051-0.078 0.11-0.125 0.156 0.384 0.378 0.757 0.769 1.125 1.156-0.041 0.051-0.077 0.109-0.125 0.156 0.248 0.244 0.477 0.502 0.719 0.75 0.103 0.179 0.213 0.352 0.313 0.531-0.01 0.011-0.021 0.021-0.031 0.031 0.042 0.041 0.083 0.084 0.125 0.125 6.855 12.43 7.423 27.26 1.719 40.09-0.192-0.204-0.391-0.401-0.594-0.594-0.322-0.367-0.675-0.698-1.031-1.031-0.283-0.317-0.566-0.646-0.875-0.938-0.275-0.31-0.575-0.62-0.875-0.906-0.326-0.371-0.671-0.725-1.031-1.063-0.277-0.31-0.543-0.62-0.844-0.906-0.297-0.337-0.612-0.659-0.938-0.969-0.337-0.382-0.69-0.747-1.063-1.094-0.271-0.3-0.55-0.597-0.844-0.875-0.277-0.311-0.574-0.618-0.875-0.906-0.328-0.372-0.67-0.723-1.031-1.063-0.278-0.311-0.542-0.619-0.844-0.906-0.337-0.381-0.691-0.747-1.063-1.094-0.301-0.332-0.61-0.663-0.938-0.969-0.273-0.301-0.549-0.595-0.844-0.875-0.299-0.335-0.612-0.66-0.938-0.969-0.269-0.302-0.553-0.594-0.844-0.875-0.313-0.356-0.626-0.703-0.969-1.031-0.318-0.358-0.652-0.702-1-1.031-0.299-0.333-0.612-0.661-0.938-0.969-0.271-0.302-0.551-0.594-0.844-0.875-0.297-0.335-0.615-0.658-0.938-0.969-0.317-0.358-0.654-0.702-1-1.031-0.271-0.303-0.551-0.592-0.844-0.875-0.331-0.373-0.669-0.751-1.031-1.094-0.301-0.334-0.611-0.66-0.938-0.969-0.273-0.303-0.55-0.593-0.844-0.875-0.312-0.351-0.629-0.707-0.969-1.031-0.3-0.335-0.612-0.658-0.938-0.969-0.297-0.331-0.616-0.63-0.938-0.938-0.278-0.31-0.575-0.617-0.875-0.906-0.334-0.376-0.666-0.748-1.031-1.094-3.231-3.573-7.891-5.844-13.09-5.844-5.146 0-9.774 2.213-13 5.719l-0.938-0.938-1-1-1-1-0.031-0.031c-0.007-0.007-0.78-0.783-0.938-0.938l-0.031-0.031-0.906-0.906-0.063-0.063-0.875-0.875-0.125-0.125-0.813-0.813c-0.007-0.007-0.782-0.785-0.938-0.938l-0.25-0.25-0.688-0.688-0.313-0.313-0.625-0.625c-0.003-0.003-0.347-0.348-0.375-0.375l-0.563-0.563c-0.003-0.003-0.374-0.375-0.406-0.406l-0.531-0.531c-0.004-0.004-0.427-0.428-0.469-0.469l-0.469-0.469c-0.004-0.004-0.479-0.48-0.531-0.531l-0.406-0.406c-0.005-0.005-0.53-0.531-0.594-0.594l-0.344-0.344c-0.005-0.005-0.579-0.581-0.656-0.656l-0.281-0.281c-0.006-0.006-0.628-0.63-0.719-0.719l-0.219-0.219c-0.006-0.006-0.679-0.65-0.781-0.75l0.031-0.031-0.188-0.156-0.813-0.813-0.125-0.125-0.938-0.938-0.938-0.938c-0.091-0.089-11.719-11.469-11.719-11.469-0.021 0.021-0.041 0.042-0.063 0.063l-0.188-0.188c-0.001-0.001-0.214-0.183-0.219-0.188 0.011-0.01 0.021-0.021 0.031-0.031l-1-1-0.594-0.563c-0.002-0.002-0.418-0.387-0.438-0.406 0.011-0.01 0.021-0.021 0.031-0.031l-1-1-1-1-0.969-0.969-1-1-0.063-0.031c-0.004-0.003-0.824-0.826-0.906-0.906l-0.031-0.031c0.005-0.005-0.005-0.026 0-0.031l-0.844-0.844-0.156-0.156-0.75-0.719c-0.024-0.023-0.22-0.252-0.25-0.281l-0.625-0.625-0.375-0.375-0.531-0.5-0.375-0.375-0.094-0.094-0.406-0.438-0.563-0.563-0.344-0.313-0.688-0.656c0.011-0.01 0.021-0.021 0.031-0.031l-0.219-0.219-0.781-0.781-0.094-0.094c-0.004-0.003-0.827-0.829-0.906-0.906-0.083-0.081-21.281-20.781-21.281-20.781-44.811 43.784-44.939 114.99-0.188 158.72 0.323 0.331 0.641 0.672 0.969 1 0.324 0.332 0.671 0.639 1 0.969v0.031c0.21 0.215 0.445 0.411 0.656 0.625 0.108 0.112 0.204 0.232 0.313 0.344 0.337 0.338 0.689 0.665 1.031 1 0.333 0.334 0.662 0.67 1 1 0.334 0.335 0.661 0.669 1 1 0.332 0.333 0.663 0.67 1 1 0.326 0.335 0.669 0.668 1 1 0.322 0.331 0.642 0.672 0.969 1 0.01 0.011 0.021 0.021 0.031 0.031 0.317 0.317 0.647 0.623 0.969 0.938 0.328 0.338 0.666 0.665 1 1 0.327 0.337 0.668 0.667 1 1 0.02 0.021 0.042 0.041 0.063 0.063 0.312 0.312 0.621 0.628 0.938 0.938 0.346 0.357 0.71 0.709 1.063 1.063 0.301 0.31 0.6 0.63 0.906 0.938 0.031 0.032 0.063 0.062 0.094 0.094 0.296 0.296 0.606 0.581 0.906 0.875 0.328 0.338 0.667 0.665 1 1 0.327 0.337 0.668 0.666 1 1 0.041 0.042 0.084 0.083 0.125 0.125 0.291 0.291 0.58 0.586 0.875 0.875 0.367 0.379 0.751 0.751 1.125 1.125 0.281 0.289 0.558 0.588 0.844 0.875 0.052 0.053 0.105 0.103 0.156 0.156 0.276 0.276 0.564 0.539 0.844 0.813 0.327 0.338 0.667 0.665 1 1 0.327 0.338 0.668 0.666 1 1 0.061 0.063 0.126 0.124 0.188 0.188 0.271 0.271 0.538 0.544 0.813 0.813 0.321 0.332 0.642 0.671 0.969 1 0.326 0.337 0.668 0.666 1 1 0.404 0.418 0.837 0.806 1.25 1.219 0.247 0.254 0.5 0.498 0.75 0.75 0.327 0.338 0.667 0.665 1 1 0.325 0.336 0.669 0.667 1 1 0.083 0.086 0.167 0.165 0.25 0.25 0.249 0.248 0.498 0.504 0.75 0.75 0.087 0.09 0.163 0.192 0.25 0.281 0.239 0.239 0.477 0.482 0.719 0.719 0.424 0.44 0.878 0.847 1.313 1.281 0.227 0.233 0.458 0.456 0.688 0.688 0.326 0.339 0.667 0.665 1 1 0.324 0.337 0.669 0.667 1 1 0.103 0.107 0.209 0.206 0.313 0.313 0.228 0.228 0.456 0.462 0.688 0.688 0.108 0.112 0.204 0.232 0.313 0.344 0.218 0.218 0.435 0.44 0.656 0.656 0.445 0.462 0.918 0.889 1.375 1.344 0.206 0.212 0.416 0.415 0.625 0.625 0.326 0.339 0.667 0.664 1 1 0.325 0.339 0.668 0.665 1 1 0.124 0.129 0.25 0.247 0.375 0.375 0.208 0.207 0.415 0.42 0.625 0.625 0.128 0.134 0.246 0.273 0.375 0.406 0.198 0.197 0.394 0.398 0.594 0.594 0.14 0.141 0.296 0.266 0.438 0.406 0.197 0.203 0.394 0.392 0.594 0.594 0.317 0.33 0.645 0.642 0.969 0.969 0.325 0.339 0.668 0.665 1 1 0.325 0.34 0.668 0.665 1 1 0.323 0.337 0.67 0.667 1 1 0.149 0.155 0.287 0.314 0.438 0.469 0.181 0.18 0.38 0.353 0.563 0.531 0.477 0.498 0.977 0.98 1.469 1.469 0.175 0.18 0.354 0.352 0.531 0.531 0.314 0.329 0.648 0.644 0.969 0.969 0.326 0.341 0.667 0.664 1 1 0.333 0.349 0.69 0.687 1.031 1.031 0.159 0.166 0.308 0.335 0.469 0.5 0.16 0.159 0.338 0.311 0.5 0.469 0.496 0.52 1.018 1.022 1.531 1.531 0.155 0.159 0.312 0.31 0.469 0.469 0.314 0.329 0.648 0.644 0.969 0.969 0.326 0.342 0.667 0.663 1 1 0.363 0.381 0.752 0.75 1.125 1.125 0.077 0.081 0.141 0.17 0.219 0.25h-51.31v17.656h0.969v1h1v1h1v1h1v1h1v1h1v0.969h0.969v1h1v1h1v1h1v1h1v1h1v0.969h1v1h0.969v1h1v1h1v1h1v1h1v0.969h1v1h0.969v1h1v1h1v1h1v1h1v1h1v0.969h0.969v1h1v1h1v1h1v1h1v1h1v0.969h0.969v1h1v1h1v1h1v1h1v1h1v0.969h1v1h0.969v1h1v1h1v1h1v1h1v1h1v0.969h0.969v1h1v1h1v1h1v1h1v1h1v0.969h0.969v1h1v1h1v1h1v1h1v1h1v0.969h0.969v1h1v1h1v1h1v1h1v1h1v0.969h1v1h0.969v1h1v1h1v1h1v1h1v1h1v0.969h0.969v1h1v1h1v1h1v1h1v1h1v0.969h0.969v1h1v1h1v1h1v1h1v1h1v0.969h1v1h0.969v1h1v1h1v1h1v1h1v1h1v0.969h0.969v1h1v1h1v1h1v1h1v1h1v0.969h0.969v1h1v0.344c102.04-12.913 182.18-96.04 190.44-199.47-0.209-0.209-0.418-0.417-0.625-0.625-0.026-0.026-0.037-0.067-0.063-0.094h-0.031c-0.298-0.306-0.604-0.603-0.906-0.906-0.026-0.026-0.037-0.067-0.063-0.094h-0.031c-0.298-0.306-0.604-0.603-0.906-0.906-0.323-0.332-0.64-0.671-0.969-1-0.326-0.335-0.669-0.668-1-1-0.323-0.332-0.672-0.639-1-0.969-0.326-0.335-0.669-0.668-1-1-0.026-0.026-0.037-0.067-0.063-0.094h-0.031c-0.298-0.306-0.604-0.603-0.906-0.906-0.026-0.026-0.037-0.067-0.063-0.094h-0.031c-0.298-0.306-0.604-0.603-0.906-0.906-0.323-0.332-0.64-0.671-0.969-1-0.326-0.335-0.669-0.668-1-1-0.323-0.332-0.672-0.639-1-0.969-0.326-0.335-0.669-0.668-1-1-0.026-0.026-0.037-0.067-0.063-0.094h-0.031c-0.298-0.306-0.604-0.603-0.906-0.906-0.026-0.026-0.037-0.067-0.063-0.094h-0.031c-0.298-0.306-0.604-0.603-0.906-0.906-0.328-0.338-0.666-0.665-1-1-0.323-0.332-0.64-0.671-0.969-1-0.323-0.332-0.672-0.639-1-0.969-0.326-0.335-0.669-0.668-1-1-0.025-0.026-0.037-0.068-0.063-0.094h-0.031c-0.296-0.304-0.606-0.605-0.906-0.906-0.026-0.026-0.037-0.067-0.063-0.094h-0.031c-0.298-0.306-0.604-0.603-0.906-0.906-0.026-0.026-0.037-0.067-0.063-0.094h-0.031c-0.298-0.306-0.604-0.603-0.906-0.906-0.323-0.332-0.64-0.671-0.969-1-0.323-0.332-0.672-0.639-1-0.969-0.326-0.335-0.669-0.668-1-1-0.025-0.026-0.037-0.068-0.063-0.094h-0.031c-0.296-0.304-0.606-0.605-0.906-0.906-0.026-0.026-0.037-0.067-0.063-0.094h-0.031c-0.298-0.306-0.604-0.603-0.906-0.906-0.026-0.026-0.037-0.067-0.063-0.094h-0.031c-0.298-0.306-0.604-0.603-0.906-0.906-0.323-0.332-0.64-0.671-0.969-1-0.326-0.335-0.669-0.668-1-1-0.323-0.332-0.672-0.639-1-0.969-0.326-0.335-0.669-0.668-1-1-0.026-0.026-0.037-0.067-0.063-0.094h-0.031c-0.298-0.306-0.604-0.603-0.906-0.906-0.026-0.026-0.037-0.067-0.063-0.094h-0.031c-0.298-0.306-0.604-0.603-0.906-0.906-0.323-0.332-0.64-0.671-0.969-1-0.326-0.335-0.669-0.668-1-1-0.323-0.332-0.672-0.639-1-0.969-0.326-0.335-0.669-0.668-1-1-0.026-0.026-0.037-0.067-0.063-0.094h-0.031c-0.298-0.306-0.604-0.603-0.906-0.906-0.026-0.026-0.037-0.067-0.063-0.094h-0.031c-0.298-0.306-0.604-0.603-0.906-0.906-0.328-0.338-0.666-0.665-1-1-0.323-0.332-0.64-0.671-0.969-1-0.323-0.332-0.672-0.639-1-0.969-0.326-0.335-0.669-0.668-1-1-0.025-0.026-0.037-0.068-0.063-0.094h-0.031c-0.296-0.304-0.606-0.605-0.906-0.906-0.026-0.026-0.037-0.067-0.063-0.094h-0.031c-0.298-0.306-0.604-0.603-0.906-0.906-0.026-0.026-0.037-0.067-0.063-0.094h-0.031c-0.298-0.306-0.604-0.603-0.906-0.906-0.323-0.332-0.64-0.671-0.969-1-0.321-0.33-0.674-0.642-1-0.969-0.326-0.335-0.669-0.668-1-1-0.326-0.335-0.669-0.668-1-1-0.026-0.026-0.037-0.067-0.063-0.094h-0.031c-0.298-0.306-0.604-0.603-0.906-0.906-0.026-0.026-0.037-0.067-0.063-0.094h-0.031c-0.298-0.306-0.604-0.603-0.906-0.906-0.323-0.332-0.64-0.671-0.969-1-0.326-0.335-0.669-0.668-1-1-0.323-0.332-0.672-0.639-1-0.969-0.326-0.335-0.669-0.668-1-1-0.026-0.026-0.037-0.067-0.063-0.094h-0.031c-0.298-0.306-0.604-0.603-0.906-0.906-0.328-0.338-0.666-0.665-1-1-0.328-0.338-0.666-0.665-1-1-0.323-0.332-0.64-0.671-0.969-1-0.323-0.332-0.672-0.639-1-0.969-0.326-0.335-0.669-0.668-1-1-0.025-0.026-0.037-0.068-0.063-0.094h-0.031c-0.296-0.304-0.606-0.605-0.906-0.906-0.026-0.026-0.037-0.067-0.063-0.094h-0.031c-0.298-0.306-0.604-0.603-0.906-0.906-0.026-0.026-0.037-0.067-0.063-0.094h-0.031c-0.298-0.306-0.604-0.603-0.906-0.906-0.323-0.332-0.64-0.671-0.969-1-0.323-0.332-0.672-0.639-1-0.969-0.326-0.335-0.669-0.668-1-1-0.025-0.026-0.037-0.068-0.063-0.094h-0.031c-0.296-0.304-0.606-0.605-0.906-0.906-0.026-0.026-0.037-0.067-0.063-0.094h-0.031c-0.298-0.306-0.604-0.603-0.906-0.906-0.026-0.026-0.037-0.067-0.063-0.094h-0.031c-0.298-0.306-0.604-0.603-0.906-0.906-0.323-0.332-0.64-0.671-0.969-1-0.326-0.335-0.669-0.668-1-1-0.323-0.332-0.672-0.639-1-0.969-0.326-0.335-0.669-0.668-1-1-0.026-0.026-0.037-0.067-0.063-0.094h-0.031c-0.298-0.306-0.604-0.603-0.906-0.906-0.026-0.026-0.037-0.067-0.063-0.094h-0.031c-0.298-0.306-0.604-0.603-0.906-0.906-0.323-0.332-0.64-0.671-0.969-1-0.326-0.335-0.669-0.668-1-1-0.323-0.332-0.672-0.639-1-0.969-0.326-0.335-0.669-0.668-1-1-0.026-0.026-0.037-0.067-0.063-0.094h-0.031c-0.298-0.306-0.604-0.603-0.906-0.906-0.026-0.026-0.037-0.067-0.063-0.094h-0.031c-0.298-0.306-0.604-0.603-0.906-0.906-0.328-0.338-0.666-0.665-1-1-0.323-0.332-0.64-0.671-0.969-1-0.323-0.332-0.672-0.639-1-0.969-0.326-0.335-0.669-0.668-1-1-0.025-0.026-0.037-0.068-0.063-0.094h-0.031c-0.296-0.304-0.606-0.605-0.906-0.906-0.026-0.026-0.037-0.067-0.063-0.094h-0.031c-0.298-0.306-0.604-0.603-0.906-0.906-0.026-0.026-0.037-0.067-0.063-0.094h-0.031c-0.298-0.306-0.604-0.603-0.906-0.906-0.323-0.332-0.64-0.671-0.969-1-0.321-0.33-0.674-0.642-1-0.969-0.326-0.335-0.669-0.668-1-1-0.326-0.335-0.669-0.668-1-1-0.026-0.026-0.037-0.067-0.063-0.094h-0.031c-0.298-0.306-0.604-0.603-0.906-0.906-0.026-0.026-0.037-0.067-0.063-0.094h-0.031c-0.298-0.306-0.604-0.603-0.906-0.906-0.323-0.332-0.64-0.671-0.969-1-0.326-0.335-0.669-0.668-1-1-0.323-0.332-0.672-0.639-1-0.969-0.326-0.335-0.669-0.668-1-1-0.026-0.026-0.037-0.067-0.063-0.094h-0.031c-0.298-0.306-0.604-0.603-0.906-0.906-0.026-0.026-0.037-0.067-0.063-0.094h-0.031c-0.298-0.306-0.604-0.603-0.906-0.906-0.328-0.338-0.666-0.665-1-1-0.323-0.332-0.64-0.671-0.969-1-0.323-0.332-0.672-0.639-1-0.969-0.326-0.335-0.669-0.668-1-1-0.026-0.026-0.037-0.067-0.063-0.094h-0.031c-0.298-0.306-0.604-0.603-0.906-0.906-0.026-0.026-0.037-0.067-0.063-0.094h-0.031c-0.298-0.306-0.604-0.603-0.906-0.906-0.328-0.338-0.666-0.665-1-1-0.323-0.332-0.64-0.671-0.969-1-0.323-0.332-0.672-0.639-1-0.969-0.326-0.335-0.669-0.668-1-1-0.025-0.026-0.037-0.068-0.063-0.094h-0.031c-0.296-0.304-0.606-0.605-0.906-0.906-0.026-0.026-0.037-0.067-0.063-0.094h-0.031c-0.298-0.306-0.604-0.603-0.906-0.906-0.026-0.026-0.037-0.067-0.063-0.094h-0.031c-0.298-0.306-0.604-0.603-0.906-0.906-0.323-0.332-0.64-0.671-0.969-1-0.326-0.335-0.669-0.668-1-1-0.323-0.332-0.672-0.639-1-0.969-0.326-0.335-0.669-0.668-1-1-0.026-0.026-0.037-0.067-0.063-0.094h-0.031c-0.298-0.306-0.604-0.603-0.906-0.906-0.026-0.026-0.037-0.067-0.063-0.094h-0.031c-0.298-0.306-0.604-0.603-0.906-0.906-0.323-0.332-0.64-0.671-0.969-1-0.326-0.335-0.669-0.668-1-1-0.323-0.332-0.672-0.639-1-0.969-0.326-0.335-0.669-0.668-1-1-0.026-0.026-0.037-0.067-0.063-0.094h-0.031c-0.298-0.306-0.604-0.603-0.906-0.906-0.026-0.026-0.037-0.067-0.063-0.094h-0.031c-0.298-0.306-0.604-0.603-0.906-0.906-0.328-0.338-0.666-0.665-1-1-0.323-0.332-0.64-0.671-0.969-1-0.323-0.332-0.672-0.639-1-0.969-0.326-0.335-0.669-0.668-1-1-0.025-0.026-0.037-0.068-0.063-0.094h-0.031c-0.296-0.304-0.606-0.605-0.906-0.906-0.354-0.364-0.702-0.733-1.063-1.094h-0.031c-0.324-0.324-0.64-0.648-0.969-0.969m-135.41 15.09h0.031-0.031" color="#000000"/>
 <g id="g8" fill-rule="evenodd">
  <path id="path10" fill-opacity="0.067" d="m256 1c-140.83 0-255 114.17-255 255s114.17 255 255 255 255-114.17 255-255-114.17-255-255-255m8.827 44.931c120.9 0 218.9 98 218.9 218.9s-98 218.9-218.9 218.9-218.93-98-218.93-218.9 98.03-218.9 218.93-218.9"/>
  <g id="g12" fill-opacity="0.129">
   <path id="path14" d="m256 4.433c-138.94 0-251.57 112.63-251.57 251.57s112.63 251.57 251.57 251.57 251.57-112.63 251.57-251.57-112.63-251.57-251.57-251.57m5.885 38.556c120.9 0 218.9 98 218.9 218.9s-98 218.9-218.9 218.9-218.93-98-218.93-218.9 98.03-218.9 218.93-218.9"/>
   <path id="path16" d="m256 8.356c-136.77 0-247.64 110.87-247.64 247.64s110.87 247.64 247.64 247.64 247.64-110.87 247.64-247.64-110.87-247.64-247.64-247.64m2.942 31.691c120.9 0 218.9 98 218.9 218.9s-98 218.9-218.9 218.9-218.93-98-218.93-218.9 98.03-218.9 218.93-218.9"/>
  </g>
  <path id="path18" d="m253.04 7.859c-135.42 0-245.19 109.78-245.19 245.19 0 135.42 109.78 245.19 245.19 245.19 135.42 0 245.19-109.78 245.19-245.19 0-135.42-109.78-245.19-245.19-245.19zm0 26.297c120.9 0 218.9 98 218.9 218.9s-98 218.9-218.9 218.9-218.93-98-218.93-218.9 98.03-218.9 218.93-218.9z" stroke-opacity="0.31" stroke="#000" stroke-width="4.904" fill="#fff"/>
 </g>
 <path id="path66" fill="#fff" d="m337.22 136.68-21.285 20.838c33.24 32.476 33.483 84.92 0.198 117.44l21.285 20.838c44.812-43.783 44.553-115.39-0.198-159.11m-162.44 0.198c-44.812 43.784-44.95 114.99-0.198 158.72l21.285-20.838c-33.24-32.476-33.09-84.57 0.198-117.09l-21.28-20.79m125.77 35.971-11.709 11.461c18.225 17.916 18.349 46.856 0.099 64.797l11.709 11.511c24.57-24.15 24.438-63.65-0.099-87.77m-89.11 0.099c-24.57 24.15-24.636 63.45-0.099 87.57l11.709-11.511c-18.225-17.916-18.15-46.658 0.099-64.6l-11.71-11.47m44.554 25.601c-9.764 0-17.663 7.899-17.663 17.663 0 6.544 3.547 12.274 8.831 15.331l0.149 126.12h-62.02v17.663h141.4v-17.663h-61.87l-0.149-126.02c5.371-3.034 8.98-8.822 8.98-15.43 0-9.764-7.899-17.663-17.663-17.663" color="#000000"/>
</svg>
