<?xml version="1.0" encoding="UTF-8" standalone="no"?>
<svg xmlns="http://www.w3.org/2000/svg" height="512" viewBox="0 0 512 512" width="512" version="1.1">
 <metadata id="metadata242"/>
 <g id="g4" fill-rule="evenodd">
  <path id="path6" fill="#BF9E73" d="m471.95 253.05c0 120.9-98.01 218.9-218.9 218.9-120.9 0-218.9-98.01-218.9-218.9 0-120.9 98.01-218.9 218.9-218.9 120.9 0 218.9 98.01 218.9 218.9"/>
  <path id="path8" fill-opacity="0.235" d="m323.13 128c-1.429-0.011-2.864 0.013-4.313 0.063h-0.031c-3.863 0.131-8.08 0.434-11.844 0.5h-181.78c-19.79 6.69-11.618 29.923-13.344 45.719 0.345 46.73 3.146 127.93 0.5 141.78 1.068-1.2 4.849 0.703 0 1.031 0.049-0.197-0.049-0.785 0-1.031-0.641 0.723-0.457 2.277 3.094 6.156 9.435 10.355 0.775 0.553 45.19 51.38 1.611 4.865 3.795 9.169 6.688 13.344 14.79 15.08 63.06 61.686 86.969 85 116.83-0.638 212-92.8 217.44-208.44-33.906-33.854-97.9-97.53-123.62-123.09-5.638-10.312-14.935-12.33-24.938-12.406"/>
  <path id="path10" fill-opacity="0.067" d="m256 1c-140.83 0-255 114.17-255 255s114.17 255 255 255 255-114.17 255-255-114.17-255-255-255m8.827 44.931c120.9 0 218.9 98 218.9 218.9s-98 218.9-218.9 218.9-218.93-98-218.93-218.9 98.03-218.9 218.93-218.9"/>
  <g id="g12" fill-opacity="0.129">
   <path id="path14" d="m256 4.433c-138.94 0-251.57 112.63-251.57 251.57s112.63 251.57 251.57 251.57 251.57-112.63 251.57-251.57-112.63-251.57-251.57-251.57m5.885 38.556c120.9 0 218.9 98 218.9 218.9s-98 218.9-218.9 218.9-218.93-98-218.93-218.9 98.03-218.9 218.93-218.9"/>
   <path id="path16" d="m256 8.356c-136.77 0-247.64 110.87-247.64 247.64s110.87 247.64 247.64 247.64 247.64-110.87 247.64-247.64-110.87-247.64-247.64-247.64m2.942 31.691c120.9 0 218.9 98 218.9 218.9s-98 218.9-218.9 218.9-218.93-98-218.93-218.9 98.03-218.9 218.93-218.9"/>
  </g>
  <path id="path18" d="m253.04 7.859c-135.42 0-245.19 109.78-245.19 245.19 0 135.42 109.78 245.19 245.19 245.19 135.42 0 245.19-109.78 245.19-245.19 0-135.42-109.78-245.19-245.19-245.19zm0 26.297c120.9 0 218.9 98 218.9 218.9s-98 218.9-218.9 218.9-218.93-98-218.93-218.9 98.03-218.9 218.93-218.9z" stroke-opacity="0.31" stroke="#000" stroke-width="4.904" fill="#fff"/>
 </g>
 <text id="text20" font-size="129.23" line-height="125%" y="231.36" x="729.64" font-family="Gentium Book Basic" word-spacing="0" letter-spacing="0"><tspan id="tspan22" y="231.36" x="729.64"/>
 </text>
 <text id="text24" font-size="46.954" transform="scale(4.0128 .2492)" y="579.25" x="378.91" font-family="Arial" text-anchor="middle"/>
 <text id="text26" font-size="129.23" line-height="125%" y="151.36" x="1310.91" font-family="Gentium Book Basic" word-spacing="0" letter-spacing="0"><tspan id="tspan28" y="151.36" x="1310.91"/>
 </text>
 <text id="text30" font-size="46.954" transform="scale(4.0128 .2492)" y="258.22" x="523.76" font-family="Arial" text-anchor="middle"/>
 <text id="text32" font-size="129.23" line-height="125%" y="-29.901" x="239.33" font-family="Gentium Book Basic" word-spacing="0" letter-spacing="0"><tspan id="tspan34" y="-29.901" x="239.33"/>
 </text>
 <text id="text36" font-size="46.954" transform="scale(4.0128 .2492)" y="-469.14" x="256.72" font-family="Arial" text-anchor="middle"/>
 <text id="text38" font-size="129.23" line-height="125%" y="-246.37" x="1337.38" font-family="Gentium Book Basic" word-spacing="0" letter-spacing="0"><tspan id="tspan40" y="-246.37" x="1337.38"/>
 </text>
 <text id="text42" font-size="46.954" transform="scale(4.0128 .2492)" y="-1337.81" x="530.36" font-family="Arial" text-anchor="middle"/>
 <text id="text44" font-size="129.23" line-height="125%" y="-326.38" x="1918.65" font-family="Gentium Book Basic" word-spacing="0" letter-spacing="0"><tspan id="tspan46" y="-326.38" x="1918.65"/>
 </text>
 <text id="text48" font-size="46.954" transform="scale(4.0128 .2492)" y="-1658.85" x="675.21" font-family="Arial" text-anchor="middle"/>
 <text id="text50" font-size="129.23" line-height="125%" y="-798.78" x="1529.53" font-family="Gentium Book Basic" word-spacing="0" letter-spacing="0"><tspan id="tspan52" y="-798.78" x="1529.53"/>
 </text>
 <text id="text54" font-size="46.954" transform="scale(4.0128 .2492)" y="-3554.51" x="578.24" font-family="Arial" text-anchor="middle"/>
 <text id="text56" font-size="129.23" line-height="125%" y="-878.78" x="2110.79" font-family="Gentium Book Basic" word-spacing="0" letter-spacing="0"><tspan id="tspan58" y="-878.78" x="2110.79"/>
 </text>
 <text id="text60" font-size="46.954" transform="scale(4.0128 .2492)" y="-3875.54" x="723.09" font-family="Arial" text-anchor="middle"/>
 <g id="g62" font-family="Gentium Book Basic" line-height="125%" word-spacing="0" letter-spacing="0">
  <text id="text64" y="535.94" x="277.99" font-size="208.33"><tspan id="tspan66" y="535.94" x="277.99"/>
  </text>
  <text id="text68" y="1302.69" x="-27836.29" font-size="4848.2"><tspan id="tspan70" y="1302.69" x="-27836.29"/>
  </text>
 </g>
 <text id="text72" font-size="1761.7" transform="scale(4.0128 .2492)" y="-7871.97" x="457.12" font-family="Arial" text-anchor="middle"/>
 <text id="text74" font-size="4848.2" line-height="125%" y="2214.71" x="-27971.03" font-family="Gentium Book Basic" word-spacing="0" letter-spacing="0"><tspan id="tspan76" y="2214.71" x="-27971.03"/>
 </text>
 <text id="text78" font-size="1761.7" transform="scale(4.0128 .2492)" y="-4212.28" x="423.59" font-family="Arial" text-anchor="middle"/>
 <g id="g80" fill="#BF9E73">
  <text id="text82" transform="scale(1.0508 .95163)" font-size="2976" y="-4835.43" x="-13473.56" font-family="Gentium Book Basic" line-height="125%" word-spacing="0" letter-spacing="0"><tspan id="tspan84" y="-4835.43" x="-13473.56"/>
  </text>
  <text id="text86" font-size="1081.4" transform="scale(4.2168 .23715)" y="-27444.63" x="1181.08" font-family="Arial" text-anchor="middle"/>
  <text id="text88" transform="scale(1.0508 .95163)" font-size="1593.2" y="-5660.41" x="-4071.14" font-family="Gentium Book Basic" line-height="125%" word-spacing="0" letter-spacing="0"><tspan id="tspan90" y="-5660.41" x="-4071.14"/>
  </text>
  <text id="text92" font-size="578.86" transform="scale(4.2168 .23715)" y="-27018.52" x="1415.17" font-family="Arial" text-anchor="middle"/>
  <text id="text94" font-size="4654.3" line-height="125%" y="-1810.83" x="-40170.28" font-family="Gentium Book Basic" word-spacing="0" letter-spacing="0"><tspan id="tspan96" y="-1810.83" x="-40170.28"/>
  </text>
  <text id="text98" font-size="1691.1" transform="scale(4.0128 .2492)" y="-19841.46" x="-2912.13" font-family="Arial" text-anchor="middle"/>
 </g>
 <g id="g100">
  <text id="text102" font-family="Gentium Book Basic" font-size="4848.2" line-height="125%" stroke="#cd1d31" y="-14036.83" x="-25987.82" stroke-width="23.272" word-spacing="0" letter-spacing="0"><tspan id="tspan104" y="-14036.83" x="-25987.82"/>
  </text>
  <text id="text106" font-size="1761.7" transform="scale(4.0128 .2492)" y="-69426.85" x="917.9" font-family="Arial" text-anchor="middle"/>
  <text id="text108" font-family="Gentium Book Basic" font-size="4848.2" line-height="125%" stroke="#cd1d31" y="-13124.82" x="-26122.8" stroke-width="23.272" word-spacing="0" letter-spacing="0"><tspan id="tspan110" y="-13124.82" x="-26122.8"/>
  </text>
  <text id="text112" font-size="1761.7" transform="scale(4.0128 .2492)" y="-65766.93" x="884.23" font-family="Arial" text-anchor="middle"/>
 </g>
 <g id="g114" fill="#BF9E73">
  <g id="g116" stroke="#cd1d31" stroke-width="23.272">
   <text id="text118" transform="scale(1.0508 .95163)" font-size="2976" y="-20954.48" x="-11714.46" font-family="Gentium Book Basic" line-height="125%" word-spacing="0" letter-spacing="0"><tspan id="tspan120" y="-20954.48" x="-11714.46"/>
   </text>
   <text id="text122" font-size="1081.4" transform="scale(4.2168 .23715)" y="-92128.62" x="1619.5" font-family="Arial" text-anchor="middle"/>
   <text id="text124" transform="scale(1.0508 .95163)" font-size="1593.2" y="-21779.46" x="-2312.28" font-family="Gentium Book Basic" line-height="125%" word-spacing="0" letter-spacing="0"><tspan id="tspan126" y="-21779.46" x="-2312.28"/>
   </text>
   <text id="text128" font-size="578.86" transform="scale(4.2168 .23715)" y="-91702.51" x="1853.38" font-family="Arial" text-anchor="middle"/>
   <text id="text130" font-size="4654.3" line-height="125%" y="-17150.35" x="-38321.81" font-family="Gentium Book Basic" word-spacing="0" letter-spacing="0"><tspan id="tspan132" y="-17150.35" x="-38321.81"/>
   </text>
  </g>
  <text id="text134" font-size="1691.1" transform="scale(4.0128 .2492)" y="-81396.34" x="-2451.59" font-family="Arial" text-anchor="middle"/>
 </g>
 <g id="g136">
  <text id="text138" font-family="Gentium Book Basic" font-size="4654.3" line-height="125%" stroke="#cd1d31" y="-20726.04" x="-9012.77" stroke-width="23.272" word-spacing="0" letter-spacing="0"><tspan id="tspan140" y="-20726.04" x="-9012.77"/>
  </text>
  <text id="text142" font-size="1691.1" transform="scale(4.0128 .2492)" y="-95744.87" x="4852.19" font-family="Arial" text-anchor="middle"/>
  <text id="text144" font-family="Gentium Book Basic" font-size="4654.3" line-height="125%" stroke="#cd1d31" y="-23607.54" x="11922.89" stroke-width="23.272" word-spacing="0" letter-spacing="0"><tspan id="tspan146" y="-23607.54" x="11922.89"/>
  </text>
  <text id="text148" font-size="1691.1" transform="scale(4.0128 .2492)" y="-107307.59" x="10069.44" font-family="Arial" text-anchor="middle"/>
 </g>
 <text id="text150" font-size="4848.2" line-height="125%" y="1318.75" x="-28681.28" font-family="Gentium Book Basic" word-spacing="0" letter-spacing="0"><tspan id="tspan152" y="1318.75" x="-28681.28"/>
 </text>
 <text id="text154" font-size="1761.7" transform="scale(4.0128 .2492)" y="-7807.74" x="246.52" font-family="Arial" text-anchor="middle"/>
 <text id="text156" font-size="4848.2" line-height="125%" y="2230.76" x="-28816.26" font-family="Gentium Book Basic" word-spacing="0" letter-spacing="0"><tspan id="tspan158" y="2230.76" x="-28816.26"/>
 </text>
 <text id="text160" font-size="1761.7" transform="scale(4.0128 .2492)" y="-4148.05" x="213.01" font-family="Arial" text-anchor="middle"/>
 <g id="g162" fill="#BF9E73">
  <text id="text164" transform="scale(1.0508 .95163)" font-size="2976" y="-4818.44" x="-14277.59" font-family="Gentium Book Basic" line-height="125%" word-spacing="0" letter-spacing="0"><tspan id="tspan166" y="-4818.44" x="-14277.59"/>
  </text>
  <text id="text168" font-size="1081.4" transform="scale(4.2168 .23715)" y="-27377.14" x="980.69" font-family="Arial" text-anchor="middle"/>
  <text id="text170" transform="scale(1.0508 .95163)" font-size="1593.2" y="-5643.42" x="-4875.41" font-family="Gentium Book Basic" line-height="125%" word-spacing="0" letter-spacing="0"><tspan id="tspan172" y="-5643.42" x="-4875.41"/>
  </text>
  <text id="text174" font-size="578.86" transform="scale(4.2168 .23715)" y="-26951.03" x="1214.8" font-family="Arial" text-anchor="middle"/>
  <text id="text176" font-size="4654.3" line-height="125%" y="-1794.77" x="-41015.27" font-family="Gentium Book Basic" word-spacing="0" letter-spacing="0"><tspan id="tspan178" y="-1794.77" x="-41015.27"/>
  </text>
  <text id="text180" font-size="1691.1" transform="scale(4.0128 .2492)" y="-19777.23" x="-3122.74" font-family="Arial" text-anchor="middle"/>
 </g>
 <g id="g182">
  <text id="text184" font-family="Gentium Book Basic" font-size="4848.2" line-height="125%" stroke="#cd1d31" y="-14020.77" x="-26833.05" stroke-width="23.272" word-spacing="0" letter-spacing="0"><tspan id="tspan186" y="-14020.77" x="-26833.05"/>
  </text>
  <text id="text188" font-size="1761.7" transform="scale(4.0128 .2492)" y="-69362.62" x="707.22" font-family="Arial" text-anchor="middle"/>
  <text id="text190" font-family="Gentium Book Basic" font-size="4848.2" line-height="125%" stroke="#cd1d31" y="-13108.76" x="-26967.79" stroke-width="23.272" word-spacing="0" letter-spacing="0"><tspan id="tspan192" y="-13108.76" x="-26967.79"/>
  </text>
  <text id="text194" font-size="1761.7" transform="scale(4.0128 .2492)" y="-65702.7" x="673.64" font-family="Arial" text-anchor="middle"/>
 </g>
 <g id="g196" fill="#BF9E73">
  <g id="g198" stroke="#cd1d31" stroke-width="23.272">
   <text id="text200" transform="scale(1.0508 .95163)" font-size="2976" y="-20937.73" x="-12518.73" font-family="Gentium Book Basic" line-height="125%" word-spacing="0" letter-spacing="0"><tspan id="tspan202" y="-20937.73" x="-12518.73"/>
   </text>
   <text id="text204" font-size="1081.4" transform="scale(4.2168 .23715)" y="-92061.12" x="1419.13" font-family="Arial" text-anchor="middle"/>
   <text id="text206" transform="scale(1.0508 .95163)" font-size="1593.2" y="-21762.71" x="-3116.31" font-family="Gentium Book Basic" line-height="125%" word-spacing="0" letter-spacing="0"><tspan id="tspan208" y="-21762.71" x="-3116.31"/>
   </text>
   <text id="text210" font-size="578.86" transform="scale(4.2168 .23715)" y="-91635.02" x="1653.01" font-family="Arial" text-anchor="middle"/>
   <text id="text212" font-size="4654.3" line-height="125%" y="-17134.29" x="-39166.8" font-family="Gentium Book Basic" word-spacing="0" letter-spacing="0"><tspan id="tspan214" y="-17134.29" x="-39166.8"/>
   </text>
  </g>
  <text id="text216" font-size="1691.1" transform="scale(4.0128 .2492)" y="-81332.11" x="-2662.19" font-family="Arial" text-anchor="middle"/>
 </g>
 <g id="g218">
  <text id="text220" font-family="Gentium Book Basic" font-size="4654.3" line-height="125%" stroke="#cd1d31" y="-20709.98" x="-9857.76" stroke-width="23.272" word-spacing="0" letter-spacing="0"><tspan id="tspan222" y="-20709.98" x="-9857.76"/>
  </text>
  <text id="text224" font-size="1691.1" transform="scale(4.0128 .2492)" y="-95680.87" x="4641.58" font-family="Arial" text-anchor="middle"/>
  <text id="text226" font-family="Gentium Book Basic" font-size="4654.3" line-height="125%" stroke="#cd1d31" y="-23591.48" x="11077.67" stroke-width="23.272" word-spacing="0" letter-spacing="0"><tspan id="tspan228" y="-23591.48" x="11077.67"/>
  </text>
  <text id="text230" font-size="1691.1" transform="scale(4.0128 .2492)" y="-107243.34" x="9858.83" font-family="Arial" text-anchor="middle"/>
 </g>
 <g id="g232" fill-rule="evenodd" fill="#fff">
  <path id="path234" d="m124.39 127.12c-7.658 1.547-13.402 8.623-13.402 16.757v167.52c0 9.251 7.459 16.757 16.757 16.757h16.757v-137.85c0-8.118 5.744-15.194 13.402-16.757 1.088-0.214 2.19 0 3.354 0h184.26v-29.684c0-9.282-7.505-16.757-16.757-16.757h-201.11c-1.164 0-2.267-0.214-3.354 0"/>
  <path id="path236" d="m173.59 189.23c-7.658 1.547-13.356 8.47-13.356 16.588v167.6c0 9.251 7.704 16.588 17 16.588h200.8c9.205 0 17-7.352 17-16.588v-167.6c0-9.282-7.766-16.588-17-16.588h-200.8c-1.164 0-2.558-0.214-3.645 0m3.645 42.11h200.8v142.09h-200.8v-142.09"/>
 </g>
</svg>
