<?xml version="1.0" encoding="UTF-8" standalone="no"?>
<svg xmlns="http://www.w3.org/2000/svg" height="512" viewBox="0 0 512 512" width="512" version="1.1">
 <metadata id="metadata80"/>
 <g id="g4" transform="translate(0,-540.36)">
  <text id="text6" font-size="208.33" line-height="125%" y="1089.88" x="-1160.48" font-family="Gentium Book Basic" word-spacing="0" letter-spacing="0"><tspan id="tspan8" y="1089.88" x="-1160.48"/>
  </text>
  <text id="text10" font-size="75.7" transform="scale(4.0128 .2492)" y="3810.63" x="28.534" font-family="Arial" text-anchor="middle"/>
  <path id="path12" d="m471.95 793.41c0 120.9-98.01 218.9-218.9 218.9-120.9 0-218.9-98.01-218.9-218.9 0-120.9 98.01-218.9 218.9-218.9 120.9 0 218.9 98.01 218.9 218.9" fill-rule="evenodd" fill="#BF9E73"/>
  <path id="path14" d="m142.28 131.47v249.03h1v1h1v1h1v1h0.969v0.969h1v1h1v1h1v1h1v1h1v1h0.969v0.969h1v1h1v1h1v1h1v1h1v1h0.969v0.969h1v1h1v1h1v1h1v1h1v1h0.969v0.969h1v1h1v1h1v1h1v1h1v1h1v1h0.969v0.969h1v1h1v1h1v1h1v1h1v1h0.969v0.969h1v1h1v1h1v1h1v1h1v1h0.969v0.969h1v1h1v1h1v1h1v1h1v1h1v1h0.969v0.969h1v1h1v1h1v1h1v1h1v1h0.969v0.969h1v1h1v1h1v1h1v1h1v1h0.969v0.969h1v1h1v1h1v1h1v1h1v1h0.969v0.969h1v1h1v1h1v1h1v1h1v1h1v1h0.969v0.969h1v1h1v1h1v1h1v1h1v1h0.969v0.969h1v1h1v1h1v1h1v1h1v1h0.969v0.969h1v1h1v1h1v1h1v1h1v1h1v0.938c0.198 0.018 0.395 0.045 0.594 0.063h0.375v0.031c6.335 0.551 12.74 0.875 19.219 0.875 120.9 0 218.91-98.01 218.91-218.91 0-6.77-0.305-13.48-0.906-20.09h-0.813v-1h-1v-1h-1v-1h-1v-1h-0.969v-0.969h-1v-1h-1v-1h-1v-1h-1v-1h-1v-1h-0.969v-0.969h-1v-1h-1v-1h-1v-1h-1v-1h-1v-1h-1v-1h-0.969v-0.969h-1v-1h-1v-1h-1v-1h-1v-1h-1v-1h-0.969v-0.969h-1v-1h-1v-1h-1v-1h-1v-1h-1v-1h-0.969v-0.969h-1v-1h-1v-1h-1v-1h-1v-1h-1v-1h-1v-1h-0.969v-0.969h-1v-1h-1v-1h-1v-1h-1v-1h-1v-1h-0.969v-0.969h-1v-1h-1v-1h-1v-1h-1v-1h-1v-1h-0.969v-0.969h-1v-1h-1v-1h-1v-1h-1v-1h-1v-1h-0.969v-0.969h-1v-1h-1v-1h-1v-1h-1v-1h-1v-1h-1v-1h-0.969v-0.969h-1v-1h-1v-1h-1v-1h-1v-1h-1v-1h-0.969v-0.969h-1v-1h-1v-1h-1v-1h-1v-1h-1v-1h-0.969v-0.969h-1v-1h-1v-1h-1v-1h-1v-1h-1v-1h-1v-1h-0.969v-0.969h-1v-1h-1v-1h-1v-1h-1v-1h-1v-1h-0.969v-0.969h-1v-1h-1v-1h-1v-1h-1v-1h-1v-1h-0.969v-0.969h-1v-1h-1v-1h-1v-1h-1v-1h-1v-1h-0.969v-0.969h-1v-1h-1v-1h-1v-1h-57.47v113.44h-0.063v-1h-1v-1h-1v-1h-1v-1h-0.969v-0.969h-1v-1h-1v-1h-1v-1h-1v-1h-1v-1h-0.969v-0.969h-1v-1h-1v-1h-1v-1h-1v-1h-1v-1h-0.969v-0.969h-1v-1h-1v-1h-1v-1h-1v-1h-1v-1h-0.969v-0.969h-1v-1h-1v-1h-1v-1h-1v-1h-1v-1h-1v-1h-0.969v-0.969h-1v-1h-1v-1h-1v-1h-1v-1h-1v-1h-0.969v-0.969h-1v-1h-1v-1h-1v-1h-1v-1h-1v-1h-0.969v-0.969h-1v-1h-1v-1h-1v-1h-1v-1h-1v-1h-1v-1h-0.969v-0.969h-1v-1h-1v-1h-1v-1h-1v-1h-1v-1h-0.969v-0.969h-1v-1h-1v-1h-1v-1h-1v-1h-1v-1h-0.969v-0.969h-1v-1h-1v-1h-1v-1h-1v-1h-1v-1h-0.969v-0.969h-1v-1h-1v-1h-1v-1h-1v-1h-1v-1h-1v-1h-0.969v-0.969h-1v-1h-1v-1h-1v-1h-1v-1h-1v-1h-0.969v-0.969h-1v-1h-1v-1h-1v-1h-1v-1h-1v-1h-0.969v-0.969h-1v-1h-1v-1h-1v-1h-1v-1h-1v-1h-1v-1h-0.969v-0.969h-1v-1h-1v-1h-1v-1h-1v-1h-1v-1h-0.969v-0.969h-1v-1h-1v-1h-1v-1h-1v-1h-1v-1h-0.969v-0.969h-1v-1h-1v-1h-1v-1h-1v-1h-1v-1h-0.969v-0.969h-1v-1h-1v-1h-1v-1h-57.47" fill-opacity="0.235" transform="translate(0,540.36)"/>
  <g id="g16" fill-rule="evenodd">
   <path id="path18" fill-opacity="0.067" d="m256 541.36c-140.83 0-255 114.17-255 255s114.17 255 255 255 255-114.17 255-255-114.17-255-255-255m8.827 44.931c120.9 0 218.9 98 218.9 218.9s-98 218.9-218.9 218.9-218.93-98-218.93-218.9 98.03-218.9 218.93-218.9"/>
   <g id="g20" fill-opacity="0.129">
    <path id="path22" d="m256 544.79c-138.94 0-251.57 112.63-251.57 251.57s112.63 251.54 251.57 251.54 251.57-112.6 251.57-251.54-112.63-251.57-251.57-251.57m5.885 38.556c120.9 0 218.9 98 218.9 218.9s-98 218.9-218.9 218.9-218.93-98-218.93-218.9 98.03-218.9 218.93-218.9"/>
    <path id="path24" d="m256 548.72c-136.77 0-247.64 110.87-247.64 247.64s110.87 247.64 247.64 247.64 247.64-110.87 247.64-247.64-110.87-247.64-247.64-247.64m2.942 31.691c120.9 0 218.9 98 218.9 218.9s-98 218.9-218.9 218.9-218.93-98-218.93-218.9 98.03-218.9 218.93-218.9"/>
   </g>
   <path id="path26" d="m253.04 548.22c-135.42 0-245.19 109.78-245.19 245.19 0 135.42 109.78 245.19 245.19 245.19 135.42 0 245.19-109.78 245.19-245.19 0-135.42-109.78-245.19-245.19-245.19zm0 26.297c120.9 0 218.9 98 218.9 218.9s-98 218.9-218.9 218.9-218.93-98-218.93-218.9 98.03-218.9 218.93-218.9z" stroke-opacity="0.31" stroke="#000" stroke-width="4.904" fill="#fff"/>
  </g>
  <text id="text28" font-size="129.23" line-height="125%" y="771.72" x="729.64" font-family="Gentium Book Basic" word-spacing="0" letter-spacing="0"><tspan id="tspan30" y="771.72" x="729.64"/>
  </text>
  <text id="text32" font-size="46.954" transform="scale(4.0128 .2492)" y="2747.64" x="378.91" font-family="Arial" text-anchor="middle"/>
  <text id="text34" font-size="129.23" line-height="125%" y="691.72" x="1310.91" font-family="Gentium Book Basic" word-spacing="0" letter-spacing="0"><tspan id="tspan36" y="691.72" x="1310.91"/>
  </text>
  <text id="text38" font-size="46.954" transform="scale(4.0128 .2492)" y="2426.6" x="523.76" font-family="Arial" text-anchor="middle"/>
  <text id="text40" font-size="129.23" line-height="125%" y="510.46" x="239.33" font-family="Gentium Book Basic" word-spacing="0" letter-spacing="0"><tspan id="tspan42" y="510.46" x="239.33"/>
  </text>
  <text id="text44" font-size="46.954" transform="scale(4.0128 .2492)" y="1699.25" x="256.72" font-family="Arial" text-anchor="middle"/>
  <text id="text46" font-size="129.23" line-height="125%" y="293.99" x="1337.38" font-family="Gentium Book Basic" word-spacing="0" letter-spacing="0"><tspan id="tspan48" y="293.99" x="1337.38"/>
  </text>
  <text id="text50" font-size="46.954" transform="scale(4.0128 .2492)" y="830.57" x="530.36" font-family="Arial" text-anchor="middle"/>
  <text id="text52" font-size="129.23" line-height="125%" y="213.99" x="1918.65" font-family="Gentium Book Basic" word-spacing="0" letter-spacing="0"><tspan id="tspan54" y="213.99" x="1918.65"/>
  </text>
  <text id="text56" font-size="46.954" transform="scale(4.0128 .2492)" y="509.54" x="675.21" font-family="Arial" text-anchor="middle"/>
  <text id="text58" font-size="129.23" line-height="125%" y="-258.41" x="1529.53" font-family="Gentium Book Basic" word-spacing="0" letter-spacing="0"><tspan id="tspan60" y="-258.41" x="1529.53"/>
  </text>
  <text id="text62" font-size="46.954" transform="scale(4.0128 .2492)" y="-1386.12" x="578.24" font-family="Arial" text-anchor="middle"/>
  <text id="text64" font-size="129.23" line-height="125%" y="-338.42" x="2110.79" font-family="Gentium Book Basic" word-spacing="0" letter-spacing="0"><tspan id="tspan66" y="-338.42" x="2110.79"/>
  </text>
  <text id="text68" font-size="46.954" transform="scale(4.0128 .2492)" y="-1707.16" x="723.09" font-family="Arial" text-anchor="middle"/>
  <text id="text70" font-size="208.33" line-height="125%" y="1076.3" x="277.99" font-family="Gentium Book Basic" word-spacing="0" letter-spacing="0"><tspan id="tspan72" y="1076.3" x="277.99"/>
  </text>
  <path id="path74" d="m142.28 131.47v249.03h57.47v-0.25l56.19-53.19 56.31 53.31v0.125h0.125l0.031 0.031 0.031-0.031h57.28v-249.03h-57.47v171.22l-56.31-54.31-56.19 53.47v-170.37h-57.47" fill="#fff" transform="translate(0,540.36)"/>
 </g>
</svg>
