<?xml version="1.0" encoding="UTF-8" standalone="no"?>
<svg xmlns="http://www.w3.org/2000/svg" viewBox="0 0 512 512">
  <path d="m471.95 253.05c0 120.9-98.01 218.91-218.91 218.91s-218.91-98.01-218.91-218.91 98.01-218.91 218.91-218.91 218.91 98.01 218.91 218.91" fill="#BF9E73"/>
  <path d="m256 1c-140.83 0-255 114.17-255 255s114.17 255 255 255 255-114.17 255-255-114.17-255-255-255m8.827 44.931c120.9 0 218.9 98 218.9 218.9s-98 218.9-218.9 218.9-218.93-98-218.93-218.9 98.03-218.9 218.93-218.9" fill-opacity="0.067"/>
  <g fill-opacity="0.129">
   <path d="m256 4.43c-138.94 0-251.57 112.63-251.57 251.57s112.63 251.57 251.57 251.57 251.57-112.63 251.57-251.57-112.63-251.57-251.57-251.57m5.885 38.556c120.9 0 218.9 98 218.9 218.9s-98 218.9-218.9 218.9-218.93-98-218.93-218.9 98.03-218.9 218.93-218.9"/>
   <path d="m256 8.36c-136.77 0-247.64 110.87-247.64 247.64s110.87 247.64 247.64 247.64 247.64-110.87 247.64-247.64-110.87-247.64-247.64-247.64m2.942 31.691c120.9 0 218.9 98 218.9 218.9s-98 218.9-218.9 218.9-218.93-98-218.93-218.9 98.03-218.9 218.93-218.9"/>
  </g>
  <path stroke="#000" stroke-width="4.904" d="m253.04 7.86c-135.42 0-245.19 109.78-245.19 245.19 0 135.42 109.78 245.19 245.19 245.19 135.42 0 245.19-109.78 245.19-245.19 0-135.42-109.78-245.19-245.19-245.19m0 26.297c120.9 0 218.9 98 218.9 218.9s-98 218.9-218.9 218.9-218.93-98-218.93-218.9 98.03-218.9 218.93-218.9z" stroke-opacity="0.31" fill="#fff"/>
  <path opacity="0.25" d="m129.94 154.09l-0.471 1.1c-0.441 0.124-0.721 0.208-0.785 0.393-0.717 1.87-0.425 11.953 0.471 15.316 1.424 5.348 4.266 10.145 8.148 14.03l87.46 87.46v0.002c-2.214 4.864-4.988 9.543-8.266 13.895-0.023 0.029-0.056 0.051-0.078 0.08-0.309 0.393-0.624 0.788-0.941 1.178-0.659 0.839-1.35 1.619-2.043 2.434-0.062 0.07-0.094 0.166-0.156 0.236-0.326 0.38-0.689 0.725-1.021 1.1-0.437 0.479-0.888 0.943-1.336 1.414-3.969 4.174-8.351 8.01-12.959 11.311-0.752 0.528-1.509 1.069-2.277 1.57-1.093 0.728-2.19 1.46-3.299 2.121-0.231 0.135-0.475 0.26-0.707 0.393-1.361 0.777-2.765 1.511-4.164 2.199-1.399 0.689-2.809 1.29-4.24 1.885-0.233 0.096-0.473 0.221-0.707 0.314-1.196 0.482-2.399 0.92-3.613 1.334-0.135 0.044-0.256 0.115-0.393 0.158-0.49 0.164-1 0.241-1.492 0.393-3.711 1.06-7.683 1.799-12.41 2.277-0.439 0.044-0.962 0.038-1.414 0.078-3.233 0.182-7.266 0.385-13.822 0.551-1.793 0.047-2.795 0.111-4.32 0.156-0.305 0.01-0.57-0.01-0.865 0-7.79 0.018-11.374 0.253-14.451 0.865-0.05 0.01-0.106-0.01-0.156 0-3.892 0.551-6.263 1.46-9.896 3.063-0.978 0.433-1.985 0.944-2.984 1.492-0.131 0.072-0.263 0.163-0.395 0.236-0.032 0.018-0.047 0.061-0.078 0.078-0.838 0.473-1.674 0.949-2.514 1.492-0.269 0.174-0.518 0.367-0.785 0.549-0.096 0.065-0.218 0.093-0.314 0.158-0.686 0.458-1.327 0.915-1.885 1.256v0.078c-4.942 3.665-9.611 8.306-12.881 12.961-3.359 4.78-6.962 12.348-7.225 15.629l-0.158 2.121 107.56 107.56c17.565 4.542 35.985 6.961 54.969 6.961 120.9 0 218.91-98.01 218.91-218.91 0-18.998-2.424-37.432-6.973-55.01l-43.482-43.482-15.469-0.154-0.318-0.318c-1.274 0.072-4.267 0.155-6.756 0.236l-8.639-0.078c-25.937-0.22-36.426 0.088-45.24 1.336-0.844 0.09-1.67 0.268-2.436 0.393-0.918 0.15-1.895 0.336-2.906 0.549-0.37 0.07-0.724 0.084-1.1 0.158-8.655 1.759-17.227 4.617-25.605 8.561-0.085 0.04-0.15 0.117-0.234 0.156-1.312 0.621-2.626 1.292-3.928 1.965-0.207 0.107-0.422 0.205-0.629 0.313-1.177 0.616-2.365 1.228-3.533 1.887-1.375 0.775-2.724 1.599-4.084 2.434-1.359 0.831-2.741 1.626-4.086 2.514-8.07 5.328-15.837 11.711-23.25 19.01-1.966 1.936-2.742 2.668-3.627 3.512l-18.75-18.75c-8.764-8.764-19.399-15.369-31.346-19.32-12.585-4.162-14.642-4.279-54.12-4.557l-35.502-0.314"/>
 <path d="m129.94 154.09l-0.471 1.1c-0.441 0.124-0.721 0.208-0.785 0.393-0.717 1.87-0.424 11.952 0.471 15.316 2.623 9.855 10.06 17.835 19.95 21.678 1.931 0.751 3.642 1.128 7.697 1.414 0.186 0.015 0.273 0.064 0.471 0.078 1.086 0.071 1.951 0.096 3.456 0.157 2.444 0.108 5.688 0.206 9.896 0.314 1.083 0.028 1.755 0.048 2.985 0.078 16.807 0.492 21.529 1.271 28.825 4.32 12.752 5.344 23.508 18.221 27.18 32.595 2.427 9.511 1.482 23.348-2.278 34.402-2.443 7.183-6.134 14.1-10.839 20.343-0.023 0.029-0.057 0.049-0.078 0.078-0.309 0.393-0.625 0.789-0.943 1.178-0.659 0.839-1.349 1.62-2.042 2.435-0.062 0.07-0.095 0.166-0.157 0.236-0.326 0.38-0.688 0.725-1.021 1.1-0.437 0.479-0.887 0.943-1.335 1.414-3.969 4.174-8.352 8.01-12.96 11.31-0.752 0.528-1.51 1.07-2.278 1.571-1.093 0.728-2.19 1.46-3.299 2.121-0.231 0.135-0.474 0.26-0.707 0.393-1.361 0.777-2.764 1.511-4.163 2.199-1.399 0.689-2.81 1.29-4.241 1.885-0.233 0.096-0.473 0.221-0.707 0.314-1.196 0.482-2.398 0.921-3.613 1.335-0.135 0.044-0.257 0.114-0.393 0.157-0.49 0.164-1 0.241-1.492 0.393-3.711 1.06-7.683 1.8-12.41 2.278-0.439 0.045-0.962 0.038-1.414 0.078-3.233 0.182-7.267 0.384-13.824 0.55-1.793 0.047-2.795 0.112-4.32 0.157-0.305 0.01-0.569-0.01-0.864 0-7.79 0.018-11.375 0.252-14.452 0.864-0.05 0.01-0.107-0.01-0.157 0-3.892 0.551-6.263 1.46-9.896 3.063-0.978 0.433-1.986 0.945-2.985 1.492-0.131 0.072-0.261 0.162-0.393 0.236-0.032 0.018-0.047 0.061-0.078 0.078-0.838 0.473-1.673 0.949-2.513 1.492-0.269 0.174-0.519 0.368-0.785 0.55-0.096 0.065-0.218 0.092-0.314 0.157-0.686 0.458-1.327 0.916-1.885 1.257v0.078c-4.942 3.665-9.611 8.304-12.881 12.96-3.359 4.78-6.963 12.349-7.226 15.63l-0.157 2.121 15.866 0.157-0.078 0.314c1.283-0.073 4.24-0.154 6.755-0.236l8.64 0.078c25.969 0.221 36.419-0.083 45.24-1.335 1.914-0.206 3.625-0.528 5.577-0.943 0.278-0.059 0.488-0.092 0.785-0.157 0.025-0.005 0.054 0.005 0.078 0 8.655-1.759 17.226-4.618 25.605-8.561 0.084-0.039 0.152-0.117 0.236-0.157 1.325-0.623 2.618-1.29 3.927-1.964 0.052-0.027 0.106-0.052 0.157-0.078 1.329-0.687 2.692-1.38 4.01-2.121 0.031-0.018 0.048-0.061 0.078-0.078 1.344-0.759 2.676-1.54 4.01-2.356 9.514-5.819 18.687-13.01 27.333-21.521 2.639-2.599 3.906-3.794 4.87-4.713 0.3-0.286 1.472-1.492 1.492-1.492 0.082 0 1.621 2.199 3.299 5.03 10.131 17.07 25.516 29.603 44.06 35.737 12.585 4.162 14.641 4.278 54.12 4.555l35.501 0.314 0.471-1.1c0.441-0.124 0.721-0.208 0.785-0.393 0.717-1.87 0.424-11.952-0.471-15.316-2.623-9.855-10.06-17.835-19.95-21.678-1.927-0.75-3.66-1.128-7.697-1.414-0.14-0.01-0.325-0.069-0.471-0.078-0.904-0.064-2.335-0.105-3.534-0.157-2.432-0.107-5.655-0.207-9.818-0.314-1.083-0.028-1.755-0.048-2.985-0.078-16.825-0.492-21.526-1.269-28.825-4.32-12.752-5.344-23.508-18.221-27.18-32.595-2.427-9.511-1.482-23.348 2.278-34.402 2.455-7.217 6.181-14.15 10.917-20.421 0.947-1.254 1.962-2.412 2.985-3.613 0.061-0.071 0.096-0.165 0.157-0.236 0.782-0.887 1.536-1.731 2.356-2.592 0.755-0.808 1.569-1.578 2.356-2.356 0.826-0.807 1.658-1.66 2.513-2.435 2.566-2.326 5.325-4.462 8.09-6.441 0.747-0.535 1.442-1.066 2.199-1.571 0.174-0.114 0.375-0.202 0.55-0.314 1.168-0.766 2.349-1.511 3.534-2.199 1.361-0.777 2.685-1.511 4.084-2.199 0.317-0.156 0.623-0.32 0.943-0.471 1.114-0.528 2.197-0.959 3.299-1.414 0.235-0.098 0.471-0.219 0.707-0.314 1.21-0.482 2.454-0.935 3.692-1.335 0.134-0.046 0.259-0.112 0.393-0.157 0.482-0.152 1-0.252 1.492-0.393 3.711-1.06 7.683-1.8 12.41-2.278 0.42-0.042 0.903-0.04 1.335-0.078 3.24-0.184 7.293-0.383 13.902-0.55 1.805-0.047 2.786-0.111 4.32-0.157 0.278-0.008 0.515 0.008 0.785 0 7.83-0.015 11.37-0.253 14.452-0.864 0.116-0.015 0.201-0.062 0.314-0.078 3.788-0.553 6.24-1.406 9.818-2.985 0.978-0.433 1.986-0.944 2.985-1.492 0.131-0.072 0.261-0.162 0.393-0.236 0.885-0.484 1.739-1.019 2.592-1.571 0.266-0.172 0.52-0.372 0.785-0.55 0.108-0.073 0.208-0.087 0.314-0.157 0.686-0.458 1.327-0.916 1.885-1.257v-0.078c4.942-3.665 9.611-8.304 12.881-12.96 3.358-4.78 6.963-12.349 7.226-15.63l0.157-2.121-15.866-0.157 0.078-0.314c-1.274 0.072-4.266 0.155-6.755 0.236l-8.64-0.078c-25.937-0.22-36.426 0.087-45.24 1.335-0.844 0.09-1.67 0.268-2.435 0.393-0.918 0.15-1.895 0.337-2.906 0.55-0.37 0.07-0.724 0.083-1.1 0.157-8.655 1.759-17.226 4.618-25.605 8.561-0.085 0.04-0.151 0.117-0.236 0.157-1.312 0.621-2.625 1.291-3.927 1.964-0.207 0.107-0.422 0.206-0.628 0.314-1.177 0.616-2.367 1.227-3.534 1.885-1.375 0.775-2.724 1.6-4.084 2.435-1.359 0.831-2.74 1.625-4.084 2.513-8.07 5.328-15.838 11.711-23.25 19.01-2.639 2.599-3.906 3.794-4.87 4.713l-1.492 1.492c-0.082 0-1.621-2.199-3.299-5.03-10.131-17.07-25.516-29.603-44.06-35.737-12.585-4.162-14.641-4.278-54.12-4.555l-35.501-0.314" fill="#fff"/>
</svg>
