<?xml version="1.0" encoding="UTF-8" standalone="no"?>
<svg xmlns="http://www.w3.org/2000/svg" height="512" viewBox="0 0 512 512" width="512" version="1.1">
 <metadata id="metadata184"/>
 <g id="g4" fill-rule="evenodd">
  <path id="path6" fill="#BF9E73" d="m471.95 253.05c0 120.9-98.01 218.9-218.9 218.9-120.9 0-218.9-98.01-218.9-218.9 0-120.9 98.01-218.9 218.9-218.9 120.9 0 218.9 98.01 218.9 218.9"/>
  <path id="path8" opacity="0.1" fill="#fff" d="m243.66 35.75 228.03 228.06c0.173-3.567 0.25-7.14 0.25-10.75 0-6.07-0.234-12.09-0.719-18.03l-199.31-199.28h-28.25m-26.906 1.406c-7.851 1.31-15.549 3.034-23.09 5.156l270.13 270.16c2.129-7.563 3.844-15.285 5.156-23.16l-252.19-252.16m88.03 3.156 161 161c-3.746-15.456-9.136-30.27-15.969-44.25l-100.81-100.78c-13.97-6.829-28.77-12.227-44.22-15.971m-132.28 9.156c-6.65 2.633-13.157 5.565-19.469 8.813l294.78 294.78c3.249-6.315 6.21-12.815 8.844-19.469l-284.15-284.12m-37.438 19.16c-5.696 3.652-11.212 7.57-16.531 11.719l291.63 291.63 15.594 15.594c4.149-5.319 8.07-10.835 11.719-16.531 0.005-0.007-0.005-0.024 0-0.031l-302.37-302.37h-0.031m-31.781 24.75c-4.871 4.57-9.501 9.38-13.938 14.375l264.25 264.22 44.781 44.781c4.983-4.427 9.752-9.08 14.313-13.938l-30.84-30.84-278.56-278.59m-26.594 30c-4.03 5.474-7.794 11.123-11.313 16.969l231.66 231.63 68.75 68.75c5.833-3.511 11.475-7.289 16.938-11.313l-57.44-57.44h-0.031l-248.56-248.59m-21.22 35.31c-3.101 6.481-5.881 13.12-8.344 19.938l193.34 193.34 86.969 87c6.815-2.462 13.456-5.243 19.938-8.344l-78.66-78.66h-0.031l-213.23-213.29m-14.903 41.66c-1.923 7.778-3.433 15.7-4.5 23.781l147.84 147.84 98.06 98.06c8.08-1.066 16.01-2.546 23.781-4.469l-93.59-93.59h-0.031l-171.56-171.62m-6.406 50.19c-0.01 0.843-0.031 1.686-0.031 2.531 0 9.294 0.594 18.448 1.719 27.438l91.47 91.47 98.25 98.28c8.999 1.127 18.16 1.719 27.469 1.719 0.845 0 1.688-0.022 2.531-0.031l-99.97-99.97h-0.031l-121.41-121.44m9.281 65.875c5.519 18.283 13.391 35.549 23.22 51.47l4.094 4.094 67.44 67.44c15.93 9.839 33.2 17.727 51.5 23.25l-90.66-90.69h-0.031l-55.56-55.56"/>
  <path id="path10" fill-opacity="0.067" d="m256 1c-140.83 0-255 114.17-255 255s114.17 255 255 255 255-114.17 255-255-114.17-255-255-255m8.827 44.931c120.9 0 218.9 98 218.9 218.9s-98 218.9-218.9 218.9-218.93-98-218.93-218.9 98.03-218.9 218.93-218.9"/>
  <g id="g12" fill-opacity="0.129">
   <path id="path14" d="m256 4.433c-138.94 0-251.57 112.63-251.57 251.57s112.63 251.57 251.57 251.57 251.57-112.63 251.57-251.57-112.63-251.57-251.57-251.57m5.885 38.556c120.9 0 218.9 98 218.9 218.9s-98 218.9-218.9 218.9-218.93-98-218.93-218.9 98.03-218.9 218.93-218.9"/>
   <path id="path16" d="m256 8.356c-136.77 0-247.64 110.87-247.64 247.64s110.87 247.64 247.64 247.64 247.64-110.87 247.64-247.64-110.87-247.64-247.64-247.64m2.942 31.691c120.9 0 218.9 98 218.9 218.9s-98 218.9-218.9 218.9-218.93-98-218.93-218.9 98.03-218.9 218.93-218.9"/>
  </g>
  <path id="path18" d="m253.04 7.859c-135.42 0-245.19 109.78-245.19 245.19 0 135.42 109.78 245.19 245.19 245.19 135.42 0 245.19-109.78 245.19-245.19 0-135.42-109.78-245.19-245.19-245.19zm0 26.297c120.9 0 218.9 98 218.9 218.9s-98 218.9-218.9 218.9-218.93-98-218.93-218.9 98.03-218.9 218.93-218.9z" stroke-opacity="0.31" stroke="#000" stroke-width="4.904" fill="#fff"/>
 </g>
 <text id="text20" font-size="129.23" line-height="125%" y="231.36" x="729.64" font-family="Gentium Book Basic" word-spacing="0" letter-spacing="0"><tspan id="tspan22" y="231.36" x="729.64"/>
 </text>
 <text id="text24" font-size="46.954" transform="scale(4.0128 .2492)" y="579.25" x="378.91" font-family="Arial" text-anchor="middle"/>
 <text id="text26" font-size="129.23" line-height="125%" y="151.36" x="1310.91" font-family="Gentium Book Basic" word-spacing="0" letter-spacing="0"><tspan id="tspan28" y="151.36" x="1310.91"/>
 </text>
 <text id="text30" font-size="46.954" transform="scale(4.0128 .2492)" y="258.22" x="523.76" font-family="Arial" text-anchor="middle"/>
 <text id="text32" font-size="129.23" line-height="125%" y="-29.901" x="239.33" font-family="Gentium Book Basic" word-spacing="0" letter-spacing="0"><tspan id="tspan34" y="-29.901" x="239.33"/>
 </text>
 <text id="text36" font-size="46.954" transform="scale(4.0128 .2492)" y="-469.14" x="256.72" font-family="Arial" text-anchor="middle"/>
 <text id="text38" font-size="129.23" line-height="125%" y="-246.37" x="1337.38" font-family="Gentium Book Basic" word-spacing="0" letter-spacing="0"><tspan id="tspan40" y="-246.37" x="1337.38"/>
 </text>
 <text id="text42" font-size="46.954" transform="scale(4.0128 .2492)" y="-1337.81" x="530.36" font-family="Arial" text-anchor="middle"/>
 <text id="text44" font-size="129.23" line-height="125%" y="-326.38" x="1918.65" font-family="Gentium Book Basic" word-spacing="0" letter-spacing="0"><tspan id="tspan46" y="-326.38" x="1918.65"/>
 </text>
 <text id="text48" font-size="46.954" transform="scale(4.0128 .2492)" y="-1658.85" x="675.21" font-family="Arial" text-anchor="middle"/>
 <text id="text50" font-size="129.23" line-height="125%" y="-798.78" x="1529.53" font-family="Gentium Book Basic" word-spacing="0" letter-spacing="0"><tspan id="tspan52" y="-798.78" x="1529.53"/>
 </text>
 <text id="text54" font-size="46.954" transform="scale(4.0128 .2492)" y="-3554.51" x="578.24" font-family="Arial" text-anchor="middle"/>
 <text id="text56" font-size="129.23" line-height="125%" y="-878.78" x="2110.79" font-family="Gentium Book Basic" word-spacing="0" letter-spacing="0"><tspan id="tspan58" y="-878.78" x="2110.79"/>
 </text>
 <text id="text60" font-size="46.954" transform="scale(4.0128 .2492)" y="-3875.54" x="723.09" font-family="Arial" text-anchor="middle"/>
 <g id="g62" font-family="Gentium Book Basic" line-height="125%" word-spacing="0" letter-spacing="0">
  <text id="text64" y="535.94" x="277.99" font-size="208.33"><tspan id="tspan66" y="535.94" x="277.99"/>
  </text>
  <text id="text68" y="-507.65" x="679.2" font-size="129.23"><tspan id="tspan70" y="-507.65" x="679.2"/>
  </text>
 </g>
 <text id="text72" font-size="46.954" transform="scale(4.0128 .2492)" y="-2386.28" x="366.34" font-family="Arial" text-anchor="middle"/>
 <text id="text74" font-size="129.23" line-height="125%" y="-587.66" x="1260.47" font-family="Gentium Book Basic" word-spacing="0" letter-spacing="0"><tspan id="tspan76" y="-587.66" x="1260.47"/>
 </text>
 <text id="text78" font-size="46.954" transform="scale(4.0128 .2492)" y="-2707.32" x="511.19" font-family="Arial" text-anchor="middle"/>
 <text id="text80" font-size="129.23" line-height="125%" y="-768.91" x="188.89" font-family="Gentium Book Basic" word-spacing="0" letter-spacing="0"><tspan id="tspan82" y="-768.91" x="188.89"/>
 </text>
 <text id="text84" font-size="46.954" transform="scale(4.0128 .2492)" y="-3434.67" x="244.15" font-family="Arial" text-anchor="middle"/>
 <text id="text86" font-size="129.23" line-height="125%" y="-985.39" x="1286.94" font-family="Gentium Book Basic" word-spacing="0" letter-spacing="0"><tspan id="tspan88" y="-985.39" x="1286.94"/>
 </text>
 <text id="text90" font-size="46.954" transform="scale(4.0128 .2492)" y="-4303.35" x="517.79" font-family="Arial" text-anchor="middle"/>
 <text id="text92" font-size="129.23" line-height="125%" y="-1065.39" x="1868.2" font-family="Gentium Book Basic" word-spacing="0" letter-spacing="0"><tspan id="tspan94" y="-1065.39" x="1868.2"/>
 </text>
 <text id="text96" font-size="46.954" transform="scale(4.0128 .2492)" y="-4624.38" x="662.64" font-family="Arial" text-anchor="middle"/>
 <text id="text98" font-size="129.23" line-height="125%" y="-1537.79" x="1479.08" font-family="Gentium Book Basic" word-spacing="0" letter-spacing="0"><tspan id="tspan100" y="-1537.79" x="1479.08"/>
 </text>
 <text id="text102" font-size="46.954" transform="scale(4.0128 .2492)" y="-6520.04" x="565.67" font-family="Arial" text-anchor="middle"/>
 <text id="text104" font-size="129.23" line-height="125%" y="-1617.79" x="2060.35" font-family="Gentium Book Basic" word-spacing="0" letter-spacing="0"><tspan id="tspan106" y="-1617.79" x="2060.35"/>
 </text>
 <text id="text108" font-size="46.954" transform="scale(4.0128 .2492)" y="-6841.08" x="710.52" font-family="Arial" text-anchor="middle"/>
 <g id="g110" font-family="Gentium Book Basic" line-height="125%" word-spacing="0" letter-spacing="0">
  <text id="text112" y="-203.08" x="227.54" font-size="208.33"><tspan id="tspan114" y="-203.08" x="227.54"/>
  </text>
  <text id="text116" y="-1250.53" x="3783.34" font-size="129.23"><tspan id="tspan118" y="-1250.53" x="3783.34"/>
  </text>
 </g>
 <text id="text120" font-size="46.954" transform="scale(4.0128 .2492)" y="-5367.31" x="1139.89" font-family="Arial" text-anchor="middle"/>
 <text id="text122" font-size="129.23" line-height="125%" y="-1330.53" x="4364.6" font-family="Gentium Book Basic" word-spacing="0" letter-spacing="0"><tspan id="tspan124" y="-1330.53" x="4364.6"/>
 </text>
 <text id="text126" font-size="46.954" transform="scale(4.0128 .2492)" y="-5688.35" x="1284.74" font-family="Arial" text-anchor="middle"/>
 <text id="text128" font-size="129.23" line-height="125%" y="-1511.79" x="3293.02" font-family="Gentium Book Basic" word-spacing="0" letter-spacing="0"><tspan id="tspan130" y="-1511.79" x="3293.02"/>
 </text>
 <text id="text132" font-size="46.954" transform="scale(4.0128 .2492)" y="-6415.7" x="1017.7" font-family="Arial" text-anchor="middle"/>
 <text id="text134" font-size="129.23" line-height="125%" y="-1728.26" x="4391.07" font-family="Gentium Book Basic" word-spacing="0" letter-spacing="0"><tspan id="tspan136" y="-1728.26" x="4391.07"/>
 </text>
 <text id="text138" font-size="46.954" transform="scale(4.0128 .2492)" y="-7284.38" x="1291.34" font-family="Arial" text-anchor="middle"/>
 <text id="text140" font-size="129.23" line-height="125%" y="-1808.26" x="4972.34" font-family="Gentium Book Basic" word-spacing="0" letter-spacing="0"><tspan id="tspan142" y="-1808.26" x="4972.34"/>
 </text>
 <text id="text144" font-size="46.954" transform="scale(4.0128 .2492)" y="-7605.41" x="1436.19" font-family="Arial" text-anchor="middle"/>
 <text id="text146" font-size="129.23" line-height="125%" y="-2280.66" x="4583.22" font-family="Gentium Book Basic" word-spacing="0" letter-spacing="0"><tspan id="tspan148" y="-2280.66" x="4583.22"/>
 </text>
 <text id="text150" font-size="46.954" transform="scale(4.0128 .2492)" y="-9501.08" x="1339.22" font-family="Arial" text-anchor="middle"/>
 <text id="text152" font-size="129.23" line-height="125%" y="-2360.66" x="5164.49" font-family="Gentium Book Basic" word-spacing="0" letter-spacing="0"><tspan id="tspan154" y="-2360.66" x="5164.49"/>
 </text>
 <text id="text156" font-size="46.954" transform="scale(4.0128 .2492)" y="-9822.11" x="1484.07" font-family="Arial" text-anchor="middle"/>
 <g id="g158" font-family="Gentium Book Basic" font-size="208.33" line-height="125%" word-spacing="0" letter-spacing="0">
  <text id="text160" y="-945.95" x="3331.68"><tspan id="tspan162" y="-945.95" x="3331.68"/>
  </text>
  <text id="text164" y="-191.87" x="-1210.93"><tspan id="tspan166" y="-191.87" x="-1210.93"/>
  </text>
 </g>
 <text id="text168" font-size="75.7" transform="scale(4.0128 .2492)" y="-1332.85" x="15.963" font-family="Arial" text-anchor="middle"/>
 <text id="text170" font-size="208.33" line-height="125%" y="-191.87" x="-1210.93" font-family="Gentium Book Basic" word-spacing="0" letter-spacing="0"><tspan id="tspan172" y="-191.87" x="-1210.93"/>
 </text>
 <text id="text174" font-size="75.7" transform="scale(4.0128 .2492)" y="-1332.85" x="15.963" font-family="Arial" text-anchor="middle"/>
 <path id="path176" opacity="0.25" d="m106.09 142.84v117.75l29.469 29.469c-16.747 4.925-29 20.383-29 38.719 0 11.143 4.508 21.23 11.813 28.531l113.63 113.63c6.927 0.661 13.963 1 21.06 1 26.02 0 50.971-4.541 74.13-12.875-0.289-1.012-0.603-2.02-0.969-3l2.469 2.469c83.62-30.79 143.25-111.16 143.25-205.47 0-17.17-1.981-33.876-5.719-49.906l-60.31-60.31h-299.81"/>
 <path id="path178" fill="#fff" d="m106.09 142.84v117.75h299.81v-117.75h-299.81m40.875 145.56c-22.301 0-40.41 18.07-40.41 40.38 0 22.301 18.11 40.38 40.41 40.38 22.301 0 40.38-18.07 40.38-40.37 0-22.301-18.07-40.37-40.37-40.37m109.03 0c-22.301 0-40.37 18.04-40.37 40.34 0 22.301 18.07 40.38 40.38 40.38 22.301 0 40.38-18.07 40.38-40.37 0-22.301-18.07-40.34-40.37-40.34m109 0c-22.301 0-40.37 18.04-40.37 40.34 0 22.301 18.07 40.38 40.38 40.38 22.301 0 40.38-18.07 40.38-40.37 0-22.301-18.07-40.34-40.37-40.34"/>
</svg>
