<?xml version="1.0" encoding="UTF-8" standalone="no"?>
<svg
   xmlns:dc="http://purl.org/dc/elements/1.1/"
   xmlns:cc="http://creativecommons.org/ns#"
   xmlns:rdf="http://www.w3.org/1999/02/22-rdf-syntax-ns#"
   xmlns:svg="http://www.w3.org/2000/svg"
   xmlns="http://www.w3.org/2000/svg"
   xmlns:sodipodi="http://sodipodi.sourceforge.net/DTD/sodipodi-0.dtd"
   xmlns:inkscape="http://www.inkscape.org/namespaces/inkscape"
   height="512"
   viewBox="0 0 512 512"
   width="512"
   version="1.1"
   id="svg2"
   inkscape:version="0.91 r13725"
   sodipodi:docname="xfdashboard.svg">
  <defs
     id="defs17" />
  <sodipodi:namedview
     pagecolor="#ffffff"
     bordercolor="#666666"
     borderopacity="1"
     objecttolerance="10"
     gridtolerance="10"
     guidetolerance="10"
     inkscape:pageopacity="0"
     inkscape:pageshadow="2"
     inkscape:window-width="1680"
     inkscape:window-height="1021"
     id="namedview15"
     showgrid="false"
     inkscape:zoom="2.4036757"
     inkscape:cx="268.88408"
     inkscape:cy="186.32379"
     inkscape:window-x="1920"
     inkscape:window-y="0"
     inkscape:window-maximized="1"
     inkscape:current-layer="svg2" />
  <metadata
     id="metadata28">
    <rdf:RDF>
      <cc:Work
         rdf:about="">
        <dc:format>image/svg+xml</dc:format>
        <dc:type
           rdf:resource="http://purl.org/dc/dcmitype/StillImage" />
        <dc:title />
      </cc:Work>
    </rdf:RDF>
  </metadata>
  <path
     style="fill:#BF9E73;fill-rule:evenodd;fill-opacity:1"
     inkscape:connector-curvature="0"
     d="m 471.95,253.05 c 0,120.9 -98.01,218.9 -218.9,218.9 -120.9,0 -218.9,-98.01 -218.9,-218.9 0,-120.9 98.01,-218.9 218.9,-218.9 120.9,0 218.9,98.01 218.9,218.9"
     id="path6" />
  <path
     inkscape:connector-curvature="0"
     style="opacity:0.25"
     id="path4190"
     d="m 368.71537,143.4053 c -159.72439,-38.52133 -201.36242,1.99901 -228.34187,33.55239 -27.20923,31.82212 4.33354,162.58094 32.49445,215.09508 l 119.9881,78.3819 C 372.54911,463.8457 500.40257,346.8232 471.45538,226.10765"
     sodipodi:nodetypes="csccc" />
  <path
     style="fill-opacity:0.06700003;fill-rule:evenodd"
     inkscape:connector-curvature="0"
     d="M 256,1 C 115.17,1 1,115.17 1,256 1,396.83 115.17,511 256,511 396.83,511 511,396.83 511,256 511,115.17 396.83,1 256,1 m 8.827,44.931 c 120.9,0 218.9,98 218.9,218.9 0,120.9 -98,218.9 -218.9,218.9 -120.9,0 -218.93,-98 -218.93,-218.9 0,-120.9 98.03,-218.9 218.93,-218.9"
     id="path8" />
  <g
     style="fill-opacity:0.12900002;fill-rule:evenodd"
     id="g10">
    <path
       inkscape:connector-curvature="0"
       d="m 256,4.433 c -138.94,0 -251.57,112.63 -251.57,251.57 0,138.94 112.63,251.57 251.57,251.57 138.94,0 251.57,-112.63 251.57,-251.57 C 507.57,117.063 394.94,4.433 256,4.433 m 5.885,38.556 c 120.9,0 218.9,98 218.9,218.9 0,120.9 -98,218.9 -218.9,218.9 -120.9,0 -218.93,-98 -218.93,-218.9 0,-120.9 98.03,-218.9 218.93,-218.9"
       id="path12" />
    <path
       inkscape:connector-curvature="0"
       d="m 256,8.356 c -136.77,0 -247.64,110.87 -247.64,247.64 0,136.77 110.87,247.64 247.64,247.64 136.77,0 247.64,-110.87 247.64,-247.64 C 503.64,119.226 392.77,8.356 256,8.356 m 2.942,31.691 c 120.9,0 218.9,98 218.9,218.9 0,120.9 -98,218.9 -218.9,218.9 -120.9,0 -218.93,-98 -218.93,-218.9 0,-120.9 98.03,-218.9 218.93,-218.9"
       id="path14" />
  </g>
  <path
     style="fill:#ffffff;fill-rule:evenodd;stroke:#000000;stroke-width:4.90399981;stroke-opacity:0.31000001"
     inkscape:connector-curvature="0"
     d="m 253.04,7.859 c -135.42,0 -245.19,109.78 -245.19,245.19 0,135.42 109.78,245.19 245.19,245.19 135.42,0 245.19,-109.78 245.19,-245.19 0,-135.42 -109.78,-245.19 -245.19,-245.19 z m 0,26.297 c 120.9,0 218.9,98 218.9,218.9 0,120.9 -98,218.9 -218.9,218.9 -120.9,0 -218.93,-98 -218.93,-218.9 0,-120.9 98.03,-218.9 218.93,-218.9 z"
     id="path16" />
  <path
     style="opacity:1;fill:#ffffff;fill-opacity:0.98678415;fill-rule:evenodd;stroke:none;stroke-width:9.09559345;stroke-linecap:square;stroke-linejoin:round;stroke-miterlimit:4;stroke-dasharray:none;stroke-dashoffset:0;stroke-opacity:1"
     d="M 256,96.810545 A 159.18964,159.18964 0 0 0 96.810549,256 159.18964,159.18964 0 0 0 256,415.18946 159.18964,159.18964 0 0 0 415.18945,256 159.18964,159.18964 0 0 0 256,96.810545 Z m -51.06055,35.029305 24.04688,0 19.56055,28.77148 19.50586,-28.77148 24.16601,0 -29.79297,43.72656 0.0117,0 30.98633,45.58594 -23.99414,0 -20.87305,-30.51172 -20.69922,30.51172 -24.11328,0 30.98828,-45.58594 -29.79297,-43.72656 z m -18.45312,131.78125 17.64648,0 0,15.12695 -12.75,0 c -3.26006,0 -5.5419,0.6016 -6.82226,1.80664 -1.29111,1.16201 -1.93555,3.19652 -1.93555,6.12305 l 0,5.02343 19.69922,0 0,16.48438 -19.69922,0 0,55.625 -23.04687,0 0,-55.625 -11.45899,0 0,-16.48438 11.45899,0 0,-5.02343 c 0,-7.85428 2.18347,-13.65325 6.5625,-17.38672 4.37903,-3.77651 11.15726,-5.66992 20.3457,-5.66992 z m 90.55078,8.65039 27.0918,0 c 15.12756,0 26.37204,1.08539 33.76367,3.26953 7.42391,2.13034 13.79336,5.7789 19.07617,10.94336 4.66953,4.49738 8.14485,9.6723 10.4043,15.54687 2.27021,5.87457 3.39844,12.52336 3.39844,19.94727 0,7.52074 -1.12823,14.23474 -3.39844,20.15234 -2.27021,5.87457 -5.73477,11.0495 -10.4043,15.54688 -5.33661,5.16446 -11.73909,8.83444 -19.2168,11.00781 -7.4777,2.13034 -18.67839,3.20508 -33.62304,3.20508 l -27.0918,0 0,-99.60938 0,-0.01 z m 25.69336,19.4082 0,60.7793 9.20898,0 c 10.50107,0 18.50688,-2.60306 24.01563,-7.81055 5.56255,-5.2075 8.33789,-12.75963 8.33789,-22.67969 0,-9.87703 -2.75393,-17.38827 -8.27344,-22.55273 -5.51952,-5.16445 -13.54574,-7.73633 -24.08984,-7.73633 l -9.19922,0 z"
     id="path4142"
     inkscape:connector-curvature="0" />
</svg>
