<?xml version="1.0" encoding="UTF-8" standalone="no"?>
<svg xmlns="http://www.w3.org/2000/svg" height="512" viewBox="0 0 512 512" width="512" version="1.1">
 <metadata id="metadata70"/>
 <path id="path8" fill-rule="evenodd" fill="#BF9E73" d="m471.95 253.05c0 120.9-98.006 218.91-218.91 218.91s-218.91-98.006-218.91-218.91 98.006-218.91 218.91-218.91 218.91 98.006 218.91 218.91"/>
 <path id="path10" d="m256 1c-140.83 0-255 114.17-255 255s114.17 255 255 255 255-114.17 255-255-114.17-255-255-255m8.827 44.931c120.9 0 218.9 98 218.9 218.9s-98 218.9-218.9 218.9-218.93-98-218.93-218.9 98.03-218.9 218.93-218.9" fill-rule="evenodd" fill-opacity="0.067"/>
 <path id="path14" d="m256 4.43c-138.94 0-251.57 112.63-251.57 251.57s112.63 251.57 251.57 251.57 251.57-112.63 251.57-251.57-112.63-251.57-251.57-251.57m5.885 38.556c120.9 0 218.9 98 218.9 218.9s-98 218.9-218.9 218.9-218.93-98-218.93-218.9 98.03-218.9 218.93-218.9" fill-rule="evenodd" fill-opacity="0.129"/>
 <path id="path16" d="m256 8.36c-136.77 0-247.64 110.87-247.64 247.64s110.87 247.64 247.64 247.64 247.64-110.87 247.64-247.64-110.87-247.64-247.64-247.64m2.942 31.691c120.9 0 218.9 98 218.9 218.9s-98 218.9-218.9 218.9-218.93-98-218.93-218.9 98.03-218.9 218.93-218.9" fill-rule="evenodd" fill-opacity="0.129"/>
 <path id="path18" d="m253.04 7.86c-135.42 0-245.19 109.78-245.19 245.19 0 135.42 109.78 245.19 245.19 245.19 135.42 0 245.19-109.78 245.19-245.19 0-135.42-109.78-245.19-245.19-245.19zm0 26.297c120.9 0 218.9 98 218.9 218.9s-98 218.9-218.9 218.9-218.93-98-218.93-218.9 98.03-218.9 218.93-218.9z" stroke-opacity="0.31" fill-rule="evenodd" stroke="#000" stroke-width="4.904" fill="#fff"/>
 <path id="path7806" opacity="0.25" d="m368.91 163.16l-78.79 12.96c0.68 29.17-17.57 53.04-42.78 48.13l-57.37-57.37-92.689 12.96c3.939 13.64 10.659 24.03 19.059 32.44l62.13 62.13c-29.19 10.41-75.69 15.02-74.06 74.43l121.43 121.44c8.91 1.1 17.99 1.68 27.2 1.68 116.62 0 211.91-91.19 218.52-206.15l-102.65-102.65z"/>
 <path id="path4206" d="m368.91 163.17-78.802 12.97c1.1364 49.008-51.114 83.067-100.13-9.2656l-92.712 12.981c14.427 49.925 66.242 56.074 100.79 82.329-17.278 24.629-95.763 9.7918-93.662 86.652l78.802-12.981c-1.1365-49.008 89.802-90.276 138.82 2.0566l92.712-12.981c-14.461-50.043-69.514-54.81-104.07-81.224 17.124-35.774 73.777-3.6031 58.247-80.538z" fill="#fff"/>
</svg>
