<?xml version="1.0" encoding="UTF-8" standalone="no"?>
<svg
   xmlns:dc="http://purl.org/dc/elements/1.1/"
   xmlns:cc="http://creativecommons.org/ns#"
   xmlns:rdf="http://www.w3.org/1999/02/22-rdf-syntax-ns#"
   xmlns:svg="http://www.w3.org/2000/svg"
   xmlns="http://www.w3.org/2000/svg"
   xmlns:sodipodi="http://sodipodi.sourceforge.net/DTD/sodipodi-0.dtd"
   xmlns:inkscape="http://www.inkscape.org/namespaces/inkscape"
   height="512"
   viewBox="0 0 512 512"
   width="512"
   version="1.1"
   id="svg2"
   inkscape:version="0.91 r"
   sodipodi:docname="xmlcopyeditor.svg">
  <defs
     id="defs16">
    <linearGradient
       id="T"
       x2="402.67999"
       gradientUnits="userSpaceOnUse"
       x1="109.47">
      <stop
         stop-color="#de6f42"
         id="stop10" />
      <stop
         stop-color="#a7d138"
         offset="0.5"
         id="stop12" />
      <stop
         stop-color="#69cdbf"
         offset="1"
         id="stop14" />
    </linearGradient>
    <filter
       id="U">
      <feGaussianBlur
         stdDeviation="4.79818"
         id="feGaussianBlur7" />
    </filter>
  </defs>
  <sodipodi:namedview
     pagecolor="#ffffff"
     bordercolor="#666666"
     borderopacity="1"
     objecttolerance="10"
     gridtolerance="10"
     guidetolerance="10"
     inkscape:pageopacity="0"
     inkscape:pageshadow="2"
     inkscape:window-width="1680"
     inkscape:window-height="998"
     id="namedview14"
     showgrid="false"
     inkscape:zoom="0.4609375"
     inkscape:cx="-71.59322"
     inkscape:cy="256"
     inkscape:window-x="0"
     inkscape:window-y="0"
     inkscape:window-maximized="1"
     inkscape:current-layer="svg2" />
  <metadata
     id="metadata36">
    <rdf:RDF>
      <cc:Work
         rdf:about="">
        <dc:format>image/svg+xml</dc:format>
        <dc:type
           rdf:resource="http://purl.org/dc/dcmitype/StillImage" />
        <dc:title />
      </cc:Work>
    </rdf:RDF>
  </metadata>
  <path
     style="fill:#BF9E73;fill-rule:evenodd"
     inkscape:connector-curvature="0"
     d="m 471.95,253.05 c 0,120.9 -98.01,218.9 -218.9,218.9 -120.9,0 -218.9,-98.01 -218.9,-218.9 0,-120.9 98.01,-218.9 218.9,-218.9 120.9,0 218.9,98.01 218.9,218.9"
     id="path6" />
  <path
     style="fill-opacity:0.06700003;fill-rule:evenodd"
     inkscape:connector-curvature="0"
     d="M 256,1 C 115.17,1 1,115.17 1,256 1,396.83 115.17,511 256,511 396.83,511 511,396.83 511,256 511,115.17 396.83,1 256,1 m 8.827,44.931 c 120.9,0 218.9,98 218.9,218.9 0,120.9 -98,218.9 -218.9,218.9 -120.9,0 -218.93,-98 -218.93,-218.9 0,-120.9 98.03,-218.9 218.93,-218.9"
     id="path10" />
  <g
     style="fill-opacity:0.12900002;fill-rule:evenodd"
     id="g12">
    <path
       inkscape:connector-curvature="0"
       d="m 256,4.433 c -138.94,0 -251.57,112.63 -251.57,251.57 0,138.94 112.63,251.57 251.57,251.57 138.94,0 251.57,-112.63 251.57,-251.57 C 507.57,117.063 394.94,4.433 256,4.433 m 5.885,38.556 c 120.9,0 218.9,98 218.9,218.9 0,120.9 -98,218.9 -218.9,218.9 -120.9,0 -218.93,-98 -218.93,-218.9 0,-120.9 98.03,-218.9 218.93,-218.9"
       id="path14" />
    <path
       inkscape:connector-curvature="0"
       d="m 256,8.356 c -136.77,0 -247.64,110.87 -247.64,247.64 0,136.77 110.87,247.64 247.64,247.64 136.77,0 247.64,-110.87 247.64,-247.64 C 503.64,119.226 392.77,8.356 256,8.356 m 2.942,31.691 c 120.9,0 218.9,98 218.9,218.9 0,120.9 -98,218.9 -218.9,218.9 -120.9,0 -218.93,-98 -218.93,-218.9 0,-120.9 98.03,-218.9 218.93,-218.9"
       id="path16" />
  </g>
  <path
     style="fill:#ffffff;fill-rule:evenodd;stroke:#000000;stroke-width:4.90399981;stroke-opacity:0.31000001"
     inkscape:connector-curvature="0"
     d="m 253.04,7.859 c -135.42,0 -245.19,109.78 -245.19,245.19 0,135.42 109.78,245.19 245.19,245.19 135.42,0 245.19,-109.78 245.19,-245.19 0,-135.42 -109.78,-245.19 -245.19,-245.19 z m 0,26.297 c 120.9,0 218.9,98 218.9,218.9 0,120.9 -98,218.9 -218.9,218.9 -120.9,0 -218.93,-98 -218.93,-218.9 0,-120.9 98.03,-218.9 218.93,-218.9 z"
     id="path18" />
  <g
     id="g20"
     font-family="Gentium Book Basic"
     font-size="208.33"
     line-height="125%"
     word-spacing="0"
     letter-spacing="0" />
  <path
     inkscape:connector-curvature="0"
     d="m 372.23303,71.418857 c 56.16227,38.936903 92.86568,103.822163 92.86568,177.334493 0,119.11124 -96.52739,215.67705 -215.67699,215.67705 -73.51234,0 -138.39757,-36.69386 -177.334473,-92.86574 9.940313,17.46505 22.104493,33.54018 36.243323,47.63107 39.15737,35.58193 91.19786,57.21674 148.28038,57.21674 121.76647,0 220.46996,-98.713 220.46996,-220.4699 0,-57.07294 -21.62525,-109.123 -57.21671,-148.28037 C 405.78277,93.523361 389.69808,81.359182 372.23303,71.418857 Z M 419.8642,107.6622 c 36.94303,39.42577 59.61307,92.37688 59.61307,150.67679 0,121.76648 -98.70347,220.46988 -220.4699,220.46988 -58.29032,0 -111.25103,-22.66046 -150.6768,-59.61314 39.8763,39.72293 94.73496,64.40597 155.46962,64.40597 121.76648,0 220.46982,-98.71299 220.46982,-220.46989 0,-60.72507 -24.68291,-115.6029 -64.40581,-155.46961 z"
     style="opacity:0.05"
     id="path11" />
  <path
     inkscape:connector-curvature="0"
     d="m 419.87365,107.6622 c 35.58201,39.15737 57.21683,91.19784 57.21683,148.28037 0,121.76648 -98.70343,220.4699 -220.46994,220.4699 -57.07295,0 -109.12301,-21.62522 -148.28038,-57.21674 39.42576,36.94309 92.37689,59.61314 150.6768,59.61314 121.76649,0 220.46989,-98.71299 220.46989,-220.46988 0,-58.29032 -22.66047,-111.25102 -59.6132,-150.67679 z"
     style="opacity:0.1"
     id="path13" />
  <path
     inkscape:connector-curvature="0"
     d="m 323.72965,46.256539 c 82.58034,30.233136 141.38833,109.439341 141.38833,202.544721 0,119.11127 -96.5275,215.67708 -215.67709,215.67708 -93.05746,0 -172.263662,-58.80795 -202.448872,-141.38831 A 220.46988,220.46988 0 0 0 477.14793,255.9905 220.46988,220.46988 0 0 0 323.77759,46.304466 Z"
     style="opacity:0.2"
     id="path15" />
  <path
     inkscape:connector-curvature="0"
     d="M 430.60961,121.23547 69.537469,133.19836 C 46.934505,167.81213 33.76383,209.12628 33.76383,253.54617 c 0,121.76647 98.7034,220.46988 220.46988,220.46988 121.7665,0 220.46986,-98.70341 220.46986,-220.46988 0,-49.64407 -16.40101,-95.45388 -44.09396,-132.3107"
     style="fill:#BF9E73;fill-opacity:1"
     id="path17" />
  <path
     inkscape:connector-curvature="0"
     d="m 76.889654,140.33008 c -0.440948,0.65183 -5.808903,-3.61378 -8.387443,-5.08998 -1.466607,2.30056 -3.115339,4.53402 -4.495671,6.89209 l 114.12672,66.50521 -63.20775,130.01014 -2.69358,-1.1982 -51.225691,22.17161 c 1.859606,3.38372 3.661711,6.91123 5.693866,10.18953 0.02873,0.0479 0.268399,-0.0479 0.297161,0 l 51.820014,-21.86485 141.38828,60.20745 -2.09924,65.90132 c 3.21119,-0.0574 6.4032,-0.4026 9.58564,-0.60391 l 2.09926,-66.50521 73.09056,-70.69415 90.16262,46.13572 c 1.88839,-2.60729 3.62334,-5.08998 5.3967,-7.79313 L 346.47639,327.56653 334.7915,237.70109 438.4411,134.05148 c -1.92669,-2.71274 -3.77666,-5.01329 -5.6939,-7.79313 C 330.79428,22.618332 169.09399,4.606901 76.927991,140.33008 m 156.380249,58.39577 92.26186,41.93721 11.68491,87.76618 -30.55905,29.65799 -42.83826,41.3429 -138.99188,-59.61313 64.1088,-130.30729"
     style="fill:#000000;fill-opacity:0.09800002;stroke:none"
     id="path19" />
  <path
     inkscape:connector-curvature="0"
     d="m 254.23371,33.076273 c -7.4097,0 -14.64687,0.488868 -21.86487,1.198206 l -3.29746,150.379641 94.65827,42.83826 106.93753,-106.30484 C 390.43621,67.718802 326.2986,33.114616 254.23371,33.114616 Z"
     style="fill:#BF9E73;fill-opacity:1;stroke:none"
     id="path21" />
  <path
     inkscape:connector-curvature="0"
     d="M 231.64033,34.216966 C 163.7452,41.128217 105.01394,78.876492 69.547044,133.19836 l 108.308226,64.0513 50.93814,-12.59554 3.89177,-150.379641 c -0.29716,0.02876 -0.62307,-0.02876 -0.92022,0 -0.048,-0.01917 -0.0863,-0.03834 -0.13421,-0.05751 z"
     style="fill:#BF9E73;fill-opacity:1;stroke:none"
     id="path25" />
  <path
     inkscape:connector-curvature="0"
     d="m 236.59612,33.977324 c -3.12492,0.249227 -6.20192,0.517624 -9.28849,0.901052 L 224.01016,180.1968 178.47833,191.58454 71.234113,130.7732 c -1.773331,2.63605 -3.43165,5.36796 -5.089969,8.09028 l 106.304826,60.20746 -63.80207,130.60443 -0.29715,0 -51.522857,21.86487 c 1.447432,2.91403 2.923625,5.84724 4.495669,8.68459 l 51.820008,-21.86485 141.3883,60.20744 -2.39641,75.48698 c 0.69974,0 1.3995,0 2.09925,0 2.50185,0 5.00371,-0.22047 7.4864,-0.29716 l 2.3964,-76.38802 73.09056,-70.69415 99.45109,50.92855 c 1.79252,-2.63606 3.41256,-5.37755 5.08994,-8.0903 L 340.8017,317.99048 329.11679,228.12503 432.76635,124.47542 c -1.89796,-2.61688 -3.68079,-5.25293 -5.6939,-7.79313 l -103.9467,103.94676 -89.56827,-40.44184 3.0003,-146.18113 z m -8.99133,155.172466 92.26185,41.9372 11.6849,87.76619 -30.55903,29.658 -42.83826,41.34289 -138.99189,-59.61314 64.10881,-130.30729 44.33362,-10.78385 z"
     style="color:#000000;display:inline;visibility:visible;fill:#ffffff;fill-opacity:1;stroke:none"
     id="path27" />
</svg>
