<?xml version="1.0" encoding="UTF-8" standalone="no"?>
<svg xmlns="http://www.w3.org/2000/svg" viewBox="0 0 512 512">
 <g fill-rule="evenodd">
  <path d="m471.95 253.05c0 120.9-98.01 218.91-218.91 218.91s-218.91-98.01-218.91-218.91 98.01-218.91 218.91-218.91 218.91 98.01 218.91 218.91" fill="#BF9E73"/>
  <path d="m256 1c-140.83 0-255 114.17-255 255s114.17 255 255 255 255-114.17 255-255-114.17-255-255-255m8.827 44.931c120.9 0 218.9 98 218.9 218.9s-98 218.9-218.9 218.9-218.93-98-218.93-218.9 98.03-218.9 218.93-218.9" fill-opacity="0.067"/>
  <g fill-opacity="0.129">
   <path d="m256 4.43c-138.94 0-251.57 112.63-251.57 251.57s112.63 251.57 251.57 251.57 251.57-112.63 251.57-251.57-112.63-251.57-251.57-251.57m5.885 38.556c120.9 0 218.9 98 218.9 218.9s-98 218.9-218.9 218.9-218.93-98-218.93-218.9 98.03-218.9 218.93-218.9"/>
   <path d="m256 8.36c-136.77 0-247.64 110.87-247.64 247.64s110.87 247.64 247.64 247.64 247.64-110.87 247.64-247.64-110.87-247.64-247.64-247.64m2.942 31.691c120.9 0 218.9 98 218.9 218.9s-98 218.9-218.9 218.9-218.93-98-218.93-218.9 98.03-218.9 218.93-218.9"/>
  </g>
  <path stroke="#000" stroke-width="4.904" d="m253.04 7.86c-135.42 0-245.19 109.78-245.19 245.19 0 135.42 109.78 245.19 245.19 245.19 135.42 0 245.19-109.78 245.19-245.19 0-135.42-109.78-245.19-245.19-245.19m0 26.297c120.9 0 218.9 98 218.9 218.9s-98 218.9-218.9 218.9-218.93-98-218.93-218.9 98.03-218.9 218.93-218.9z" stroke-opacity="0.31" fill="#fff"/>
 </g>
 <path opacity="0.25" d="m302.75 121.7l-28.28 45.734-44.531-44.531h-83.73l46.902 76.3 8.07 8.07c-0.419 0.072-0.835 0.153-1.252 0.23l-3.49-3.49-10.217 2.736 0.066 4.416c-3.329 1.185-6.572 2.568-9.707 4.121l-3.361-3.148-9.164 5.291 1.285 4.482c-2.85 1.973-5.576 4.096-8.174 6.377l-4.283-2.291-7.482 7.482 2.521 4.203c-2.194 2.582-4.251 5.287-6.146 8.107l-4.928-1.154-5.291 9.164 3.617 3.617c-1.415 2.985-2.681 6.066-3.766 9.221l-5.223 0.164-2.736 10.234 4.283 4.283c-0.435 2.672-0.761 5.38-0.955 8.125l-5.125 1.549v10.58l5.604 5.604c0.233 1.846 0.515 3.677 0.857 5.488l-4.598 2.852 2.752 10.232 9.07 9.07-3.695 3.92 5.291 9.164 9.479 9.479-0.908 1.693 7.482 7.482 105.34 105.34c118.46-2.806 213.62-99.71 213.62-218.84 0-17.98-2.183-35.448-6.271-52.17l-79.19-79.19h-83.73"/>
 <path d="m302.75 121.7l-36.01 58.24-36.799-57.04h-83.73l46.901 76.3c2.742-0.723 5.804-0.53 7.729 1.78 0.339 1.804 2.111 0.64 3.214 0.412 1.443 0.225 1.381-0.658 1.73-1.763 2.767-4.558 8.667-2.01 12.904-2.95 2.585-0.097 5.819 0.717 7.07 3.23 0.018 2.488 2.793 1.01 4.384 1.714 1.926-3.03 6.415-3.392 9.542-2.01 3.925 1.13 9.42 1.722 10.761 6.394-0.229 2.304 2.844 1.129 3.889 2.587 1.697-2.389 5.431-2.061 7.68-0.428 3.554 2.756 9.784 3.781 10.481 9.113-0.688 2.154 1.769 2.531 2.933 3.873 1.947-0.337 4.687-0.536 6.575 0.923 2.954 2.317 5.575 5.119 7.91 8.06 1.408 1.815 1.331 4.326 0.808 6.246 1.02 1.081 1.459 3.041 3.115 3.28 3.262-0.469 6.03 1.828 6.856 4.878 1.796 3.641 5.787 7.414 3.626 11.832-1.815 1.523 0.546 3.256 0.923 4.927 2.332 0.379 4.297 2.12 5.274 4.301 0.822 4.403 3.578 8.922 2.06 13.513-0.154 1.435-1.777 1.844-2.076 2.95 0.649 1.391-0.274 3.398 1.269 4.219 3.478 1.727 4.133 5.84 3.411 9.328 0.18 3.62 0.616 8.226-2.9 10.498-2.357 0.294-0.837 2.961-1.78 4.532 3.491 2.446 2.899 7.282 1.467 10.712-0.768 3.866-2.254 9.431-6.971 9.756-0.864 0.609-0.453 2.88-1.846 3.444 0.155 1.59 2.912 1.852 4.153 1.368-1.708 3.988-4.41 7.434-6.279 11.305-0.826 3.51-4.123 6.826-7.943 5.686-0.744 0.345-1.37 1.259-2.043 2.027l14.634 22.445h84.67l-78.69-129.48 74.835-126.2h-83.73m-92.25 80.42l-1.252 4.136c-3.565 0.282-7.06 0.781-10.498 1.467l-2.307-3.708-10.217 2.736 0.066 4.417c-3.329 1.185-6.572 2.567-9.707 4.12l-3.362-3.148-9.163 5.29 1.285 4.482c-2.85 1.973-5.576 4.097-8.174 6.378l-4.285-2.291-7.482 7.482 2.521 4.202c-2.194 2.582-4.252 5.287-6.147 8.108l-4.927-1.154-5.29 9.163 3.659 3.527c-1.432 3.01-2.712 6.125-3.807 9.311l-5.224 0.165-2.736 10.234 4.581 2.521c-0.594 3.239-1.016 6.537-1.252 9.888l-5.125 1.549v10.58l5.158 1.285c0.255 3.324 0.695 6.593 1.302 9.805l-4.598 2.851 2.752 10.234 5.339-0.099c1.094 3.115 2.357 6.166 3.774 9.113l-3.741 3.972 5.29 9.163 5.175-1.467c1.852 2.718 3.851 5.319 5.982 7.811l-2.587 4.829 7.482 7.482 4.581-2.752c2.487 2.157 5.097 4.171 7.811 6.05l-1.22 5.274 9.163 5.29 3.642-3.774c2.968 1.453 6.04 2.749 9.179 3.873l0.181 5.257 10.217 2.736 2.472-4.45c3.282 0.644 6.621 1.108 10.02 1.384l1.467 4.862h10.58l1.187-4.746c3.502-0.224 6.951-0.639 10.333-1.252l2.324 4.219 10.217-2.736 0.165-4.763c3.306-1.121 6.536-2.44 9.657-3.922l3.181 3.296 9.163-5.29-1.022-4.433c2.945-1.966 5.768-4.104 8.454-6.394l3.741 2.258 7.482-7.482-2.043-3.807c2.373-2.694 4.584-5.521 6.625-8.487l3.988 1.137 5.29-9.163-2.802-2.999c1.61-3.248 3.037-6.613 4.252-10.07l3.955 0.066 2.736-10.217-3.345-2.093c0.706-3.567 1.196-7.204 1.467-10.91l3.757-0.939v-10.58l-3.708-1.121c-0.246-3.738-0.728-7.409-1.417-11.01l3.312-1.829-2.736-10.217-3.823-0.132c-1.21-3.525-2.631-6.955-4.252-10.267l2.703-2.604-5.29-9.163-3.724 0.857c-2.084-3.076-4.35-6.01-6.79-8.8l1.945-3.23-7.482-7.465-3.395 1.813c-2.799-2.419-5.749-4.661-8.833-6.724l1.055-3.658-9.163-5.29-2.851 2.67c-3.295-1.587-6.714-2.971-10.217-4.153l0.066-3.939-10.217-2.736-2.159 3.477c-3.525-0.651-7.122-1.092-10.778-1.318l-1.01-4.04h-10.58m-4.04 33.27l0.808 1.549c2.377 13.471 0.856 25.756-1.154 36.14-0.271 0.123-0.542 0.247-0.808 0.379-0.059 0.029-0.106 0.069-0.165 0.099-0.216 0.11-0.447 0.214-0.659 0.33-0.508 0.274-0.997 0.581-1.483 0.89-0.217 0.138-0.431 0.267-0.643 0.412-10.05-3.456-21.55-8.316-32.1-17.17l-0.89-1.417c9.223-11.05 22.265-18.781 37.1-21.21m20.913 0.148c14.614 2.634 27.423 10.45 36.47 21.473l-0.626 1.01c-10.705 8.984-22.365 13.838-32.515 17.304-0.053-0.036-0.112-0.063-0.165-0.099-0.198-0.135-0.391-0.266-0.593-0.396-0.038-0.025-0.077-0.058-0.115-0.082-0.212-0.134-0.427-0.267-0.643-0.396-0.03-0.018-0.068-0.032-0.099-0.05-0.13-0.077-0.264-0.14-0.396-0.214-0.365-0.206-0.727-0.422-1.104-0.61-0.157-0.781-0.315-1.58-0.461-2.39-0.134-0.741-0.257-1.513-0.379-2.274-0.012-0.073-0.021-0.141-0.033-0.214-0.116-0.728-0.225-1.466-0.33-2.208-0.007-0.047-0.01-0.085-0.016-0.132-0.033-0.236-0.067-0.471-0.099-0.709-0.092-0.687-0.183-1.381-0.264-2.076-0.101-0.87-0.198-1.758-0.28-2.637-0.075-0.805-0.14-1.598-0.198-2.406-0.019-0.264-0.032-0.527-0.049-0.791-0.042-0.65-0.086-1.296-0.115-1.945-0.006-0.132-0.011-0.263-0.016-0.396-0.029-0.699-0.036-1.398-0.049-2.093-0.006-0.323-0.014-0.651-0.016-0.972-0.003-0.386-0.018-0.77-0.017-1.154 0.004-0.749 0.025-1.488 0.049-2.225 0.021-0.622 0.046-1.234 0.082-1.846 0.026-0.445 0.064-0.896 0.099-1.335 0.043-0.538 0.076-1.072 0.132-1.599 0.001-0.011-0.001-0.023 0-0.033 0.081-0.763 0.202-1.505 0.313-2.241 0.007-0.048 0.009-0.101 0.016-0.148 0.036-0.237 0.059-0.458 0.099-0.692 0.022-0.132 0.043-0.265 0.066-0.396 0.058-0.323 0.134-0.655 0.198-0.972 0.069-0.341 0.122-0.656 0.198-0.989 0.024-0.106 0.057-0.208 0.082-0.313 0.014-0.06 0.035-0.122 0.049-0.181 0.067-0.274 0.126-0.556 0.198-0.824 0.07-0.261 0.155-0.52 0.231-0.775 0.033-0.112 0.065-0.218 0.099-0.33 0.066-0.216 0.127-0.431 0.198-0.643m-68.49 39.17c10.445 2.095 23.421 10.892 32.63 18.968-0.062 0.72-0.099 1.456-0.099 2.192 0 0.475 0.023 0.949 0.049 1.417 0.026 0.463 0.065 0.912 0.115 1.368-7.784 6.64-17.359 13.625-29.598 18.08l-3.148 0.132c-2.388-6.55-3.691-13.619-3.691-20.995 0-7.436 1.316-14.566 3.741-21.16m115.14 0.148c2.393 6.555 3.708 13.629 3.708 21.01 0 7.366-1.309 14.421-3.691 20.962l-2.521-0.099c-12.538-4.562-22.29-11.772-30.17-18.556 0.035-0.384 0.065-0.765 0.082-1.154 0.023-0.382 0.033-0.765 0.033-1.154 0-0.57-0.028-1.137-0.066-1.697 9.07-8.06 22.07-16.974 32.63-19.314m-57.6 10.794c5.632 0 10.217 4.586 10.217 10.217 0 5.632-4.586 10.201-10.217 10.201-5.632 0-10.201-4.569-10.201-10.201s4.569-10.217 10.201-10.217m14.288 30.751c11.726 4.068 25.763 11.03 32.482 19.1-9.27 10.925-22.305 18.55-37.1 20.896l-0.313-0.61c-2.467-13.98-0.736-26.703 1.384-37.33 0.039-0.019 0.06-0.031 0.099-0.05 0.365-0.176 0.733-0.368 1.088-0.56 0.354-0.192 0.695-0.402 1.038-0.61 0.344-0.209 0.689-0.418 1.022-0.643 0.098-0.066 0.2-0.13 0.297-0.198m-28.362 0.148c0.362 0.247 0.729 0.466 1.104 0.692 0.345 0.208 0.683 0.418 1.038 0.61 0.006 0.005 0.01 0.013 0.016 0.016 0.25 0.134 0.504 0.269 0.758 0.396 2.482 11.777 3.817 27.545 0.692 38.02-14.301-2.461-26.912-9.879-35.992-20.418 6.511-8.127 20.563-15.16 32.383-19.314" fill="#fff"/>
</svg>
