<?xml version="1.0" encoding="UTF-8" standalone="no"?>
<svg xmlns="http://www.w3.org/2000/svg" viewBox="0 0 512 512">
 <text font-size="129.23" y="231.36" x="729.64" font-family="&apos;Gentium Book Basic&apos;" line-height="125%" word-spacing="0" letter-spacing="0"><tspan y="231.36" x="729.64"/>
 </text>
 <text transform="scale(4.0128.2492)" font-size="46.954" y="579.26" x="378.91" font-family="Arial" text-anchor="middle"/>
 <text font-size="129.23" y="151.36" x="1310.91" font-family="&apos;Gentium Book Basic&apos;" line-height="125%" word-spacing="0" letter-spacing="0"><tspan y="151.36" x="1310.91"/>
 </text>
 <text transform="scale(4.0128.2492)" font-size="46.954" y="258.22" x="523.76" font-family="Arial" text-anchor="middle"/>
 <text font-size="129.23" y="-29.9" x="239.33" font-family="&apos;Gentium Book Basic&apos;" line-height="125%" word-spacing="0" letter-spacing="0"><tspan y="-29.9" x="239.33"/>
 </text>
 <text transform="scale(4.0128.2492)" font-size="46.954" y="-469.13" x="256.72" font-family="Arial" text-anchor="middle"/>
 <text font-size="129.23" y="-246.37" x="1337.38" font-family="&apos;Gentium Book Basic&apos;" line-height="125%" word-spacing="0" letter-spacing="0"><tspan y="-246.37" x="1337.38"/>
 </text>
 <text transform="scale(4.0128.2492)" font-size="46.954" y="-1337.8" x="530.36" font-family="Arial" text-anchor="middle"/>
 <text font-size="129.23" y="-326.37" x="1918.65" font-family="&apos;Gentium Book Basic&apos;" line-height="125%" word-spacing="0" letter-spacing="0"><tspan y="-326.37" x="1918.65"/>
 </text>
 <text transform="scale(4.0128.2492)" font-size="46.954" y="-1658.83" x="675.21" font-family="Arial" text-anchor="middle"/>
 <text font-size="129.23" y="-798.77" x="1529.53" font-family="&apos;Gentium Book Basic&apos;" line-height="125%" word-spacing="0" letter-spacing="0"><tspan y="-798.77" x="1529.53"/>
 </text>
 <text transform="scale(4.0128.2492)" font-size="46.954" y="-3554.48" x="578.24" font-family="Arial" text-anchor="middle"/>
 <text font-size="129.23" y="-878.78" x="2110.79" font-family="&apos;Gentium Book Basic&apos;" line-height="125%" word-spacing="0" letter-spacing="0"><tspan y="-878.78" x="2110.79"/>
 </text>
 <text transform="scale(4.0128.2492)" font-size="46.954" y="-3875.52" x="723.09" font-family="Arial" text-anchor="middle"/>
 <g font-family="&apos;Gentium Book Basic&apos;" line-height="125%" word-spacing="0" letter-spacing="0">
  <text y="535.94" x="277.99" font-size="208.33"><tspan y="535.94" x="277.99"/>
  </text>
  <text y="231.36" x="729.64" font-size="129.23"><tspan y="231.36" x="729.64"/>
  </text>
 </g>
 <text transform="scale(4.0128.2492)" font-size="46.954" y="579.26" x="378.91" font-family="Arial" text-anchor="middle"/>
 <text font-size="129.23" y="151.36" x="1310.91" font-family="&apos;Gentium Book Basic&apos;" line-height="125%" word-spacing="0" letter-spacing="0"><tspan y="151.36" x="1310.91"/>
 </text>
 <text transform="scale(4.0128.2492)" font-size="46.954" y="258.22" x="523.76" font-family="Arial" text-anchor="middle"/>
 <text font-size="129.23" y="-29.9" x="239.33" font-family="&apos;Gentium Book Basic&apos;" line-height="125%" word-spacing="0" letter-spacing="0"><tspan y="-29.9" x="239.33"/>
 </text>
 <text transform="scale(4.0128.2492)" font-size="46.954" y="-469.13" x="256.72" font-family="Arial" text-anchor="middle"/>
 <text font-size="129.23" y="-246.37" x="1337.38" font-family="&apos;Gentium Book Basic&apos;" line-height="125%" word-spacing="0" letter-spacing="0"><tspan y="-246.37" x="1337.38"/>
 </text>
 <text transform="scale(4.0128.2492)" font-size="46.954" y="-1337.8" x="530.36" font-family="Arial" text-anchor="middle"/>
 <text font-size="129.23" y="-326.37" x="1918.65" font-family="&apos;Gentium Book Basic&apos;" line-height="125%" word-spacing="0" letter-spacing="0"><tspan y="-326.37" x="1918.65"/>
 </text>
 <text transform="scale(4.0128.2492)" font-size="46.954" y="-1658.83" x="675.21" font-family="Arial" text-anchor="middle"/>
 <text font-size="129.23" y="-798.77" x="1529.53" font-family="&apos;Gentium Book Basic&apos;" line-height="125%" word-spacing="0" letter-spacing="0"><tspan y="-798.77" x="1529.53"/>
 </text>
 <text transform="scale(4.0128.2492)" font-size="46.954" y="-3554.48" x="578.24" font-family="Arial" text-anchor="middle"/>
 <text font-size="129.23" y="-878.78" x="2110.79" font-family="&apos;Gentium Book Basic&apos;" line-height="125%" word-spacing="0" letter-spacing="0"><tspan y="-878.78" x="2110.79"/>
 </text>
 <text transform="scale(4.0128.2492)" font-size="46.954" y="-3875.52" x="723.09" font-family="Arial" text-anchor="middle"/>
 <text font-size="208.33" y="535.94" x="277.99" font-family="&apos;Gentium Book Basic&apos;" line-height="125%" word-spacing="0" letter-spacing="0"><tspan y="535.94" x="277.99"/>
 </text>
 <g fill-rule="evenodd">
  <path d="m471.95 253.05c0 120.9-98.01 218.91-218.91 218.91s-218.91-98.01-218.91-218.91 98.01-218.91 218.91-218.91 218.91 98.01 218.91 218.91" fill="#BF9E73"/>
  <path d="m256 1c-140.83 0-255 114.17-255 255s114.17 255 255 255 255-114.17 255-255-114.17-255-255-255m8.827 44.931c120.9 0 218.9 98 218.9 218.9s-98 218.9-218.9 218.9-218.93-98-218.93-218.9 98.03-218.9 218.93-218.9" fill-opacity="0.067"/>
  <g fill-opacity="0.129">
   <path d="m256 4.43c-138.94 0-251.57 112.63-251.57 251.57s112.63 251.57 251.57 251.57 251.57-112.63 251.57-251.57-112.63-251.57-251.57-251.57m5.885 38.556c120.9 0 218.9 98 218.9 218.9s-98 218.9-218.9 218.9-218.93-98-218.93-218.9 98.03-218.9 218.93-218.9"/>
   <path d="m256 8.36c-136.77 0-247.64 110.87-247.64 247.64s110.87 247.64 247.64 247.64 247.64-110.87 247.64-247.64-110.87-247.64-247.64-247.64m2.942 31.691c120.9 0 218.9 98 218.9 218.9s-98 218.9-218.9 218.9-218.93-98-218.93-218.9 98.03-218.9 218.93-218.9"/>
  </g>
  <path stroke="#000" stroke-width="4.904" d="m253.04 7.86c-135.42 0-245.19 109.78-245.19 245.19 0 135.42 109.78 245.19 245.19 245.19 135.42 0 245.19-109.78 245.19-245.19 0-135.42-109.78-245.19-245.19-245.19m0 26.297c120.9 0 218.9 98 218.9 218.9s-98 218.9-218.9 218.9-218.93-98-218.93-218.9 98.03-218.9 218.93-218.9z" stroke-opacity="0.31" fill="#fff"/>
 </g>
 <text font-size="129.23" y="231.36" x="729.64" font-family="&apos;Gentium Book Basic&apos;" line-height="125%" word-spacing="0" letter-spacing="0"><tspan y="231.36" x="729.64"/>
 </text>
 <text transform="scale(4.0128.2492)" font-size="46.954" y="579.26" x="378.91" font-family="Arial" text-anchor="middle"/>
 <text font-size="129.23" y="151.36" x="1310.91" font-family="&apos;Gentium Book Basic&apos;" line-height="125%" word-spacing="0" letter-spacing="0"><tspan y="151.36" x="1310.91"/>
 </text>
 <text transform="scale(4.0128.2492)" font-size="46.954" y="258.22" x="523.76" font-family="Arial" text-anchor="middle"/>
 <text font-size="129.23" y="-29.9" x="239.33" font-family="&apos;Gentium Book Basic&apos;" line-height="125%" word-spacing="0" letter-spacing="0"><tspan y="-29.9" x="239.33"/>
 </text>
 <text transform="scale(4.0128.2492)" font-size="46.954" y="-469.13" x="256.72" font-family="Arial" text-anchor="middle"/>
 <text font-size="129.23" y="-246.37" x="1337.38" font-family="&apos;Gentium Book Basic&apos;" line-height="125%" word-spacing="0" letter-spacing="0"><tspan y="-246.37" x="1337.38"/>
 </text>
 <text transform="scale(4.0128.2492)" font-size="46.954" y="-1337.79" x="530.36" font-family="Arial" text-anchor="middle"/>
 <text font-size="129.23" y="-326.37" x="1918.65" font-family="&apos;Gentium Book Basic&apos;" line-height="125%" word-spacing="0" letter-spacing="0"><tspan y="-326.37" x="1918.65"/>
 </text>
 <text transform="scale(4.0128.2492)" font-size="46.954" y="-1658.82" x="675.21" font-family="Arial" text-anchor="middle"/>
 <text font-size="129.23" y="-798.77" x="1529.53" font-family="&apos;Gentium Book Basic&apos;" line-height="125%" word-spacing="0" letter-spacing="0"><tspan y="-798.77" x="1529.53"/>
 </text>
 <text transform="scale(4.0128.2492)" font-size="46.954" y="-3554.46" x="578.24" font-family="Arial" text-anchor="middle"/>
 <text font-size="129.23" y="-878.78" x="2110.79" font-family="&apos;Gentium Book Basic&apos;" line-height="125%" word-spacing="0" letter-spacing="0"><tspan y="-878.78" x="2110.79"/>
 </text>
 <text transform="scale(4.0128.2492)" font-size="46.954" y="-3875.5" x="723.09" font-family="Arial" text-anchor="middle"/>
 <text font-size="208.33" y="535.94" x="277.99" font-family="&apos;Gentium Book Basic&apos;" line-height="125%" word-spacing="0" letter-spacing="0"><tspan y="535.94" x="277.99"/>
 </text>
 <path opacity="0.25" d="m204.49 134.17c-1.999 0.028-4.03 0.352-6.02 1.016l31.04 31.04 0.002 0.006-31.04-31.04c-10.645 3.539-16.666 15.293-13.35 26.01h-0.002l11.535 37.36 0.002 0.002c-2.539 1.01-5.05 2.087-7.547 3.197l-40.28-40.28-0.021-0.021c-3.692-3.692-8.765-5.724-13.971-5.6l22.826 22.826 0.006 0.014-22.832-22.832c-2.522 0.06-5.064 0.654-7.506 1.775l-0.004-0.004c-9.772 4.492-14.352 16.338-10.121 26.23l0.004 0.004 20.781 48.531c-11.488 8.805-22.356 18.486-32.461 28.725l111.77 111.77c-0.002-0.001-0.004-0.001-0.006-0.002l-111.77-111.77c-3.802 3.846-7.598 7.787-11.06 11.971-4.736 5.737-4.737 12.689 0 18.426v0.002c3.88 4.688 8.03 9.183 12.35 13.508v0.002c0.04 0.04 0.081 0.079 0.121 0.119l165.9 165.9c111.62-10.01 199.11-103.78 199.11-218.01 0-3.572-0.091-7.122-0.26-10.652l-81.31-81.31c-1.611-1.611-3.517-2.962-5.676-3.955l-0.006-0.004c-2.443-1.123-5.02-1.682-7.545-1.742l0.002 0.002c-7.568-0.178-14.851 4.158-18.03 11.572l29.885 29.885-0.002 0.006-29.883-29.883-2.02 4.713-31.424-31.424c-2.202-2.202-4.914-3.932-8.02-4.965l13.09 13.09c0.001 0.003 0.001 0.005 0.002 0.008l-13.09-13.09c-1.995-0.663-4.03-0.987-6.02-1.018l-0.004-0.004c-8.652-0.128-16.749 5.405-19.443 14.11l32.693 32.693-0.002 0.006-32.699-32.699-12.08 38.994 121.31 121.31c-0.001 0.001-0.003 0.001-0.004 0.002l-121.3-121.3c-0.132 0.429-0.22 0.868-0.322 1.299-4.558-0.716-9.1-1.223-13.689-1.531l-47.04-47.04-0.033-0.033c-3.809-3.809-9.07-5.986-14.537-5.908l-0.002-0.002"/>
 <path d="m204.49 134.17c-1.999 0.028-4.03 0.352-6.02 1.016-10.645 3.539-16.665 15.293-13.349 26.01l11.535 37.36c-7.223 2.868-14.282 6.181-21.15 9.758-1.409 0.734-2.812 1.485-4.208 2.249l-18.427-43.09c-3.173-7.416-10.46-11.788-18.03-11.608-2.523 0.06-5.066 0.654-7.509 1.777-9.772 4.492-14.352 16.339-10.121 26.23l20.785 48.535c-11.49 8.806-22.359 18.489-32.466 28.729-3.802 3.846-7.599 7.787-11.06 11.971-4.737 5.737-4.737 12.69 0 18.427 10.542 12.735 23.04 24.05 35.767 34.388 27.408 22.277 58.775 40.975 93.44 48.5 10.725 2.321 21.474 3.418 32.25 3.41 10.905 0.012 21.598-1.085 32.32-3.41 34.669-7.524 66.11-26.22 93.52-48.5 12.723-10.339 25.23-21.654 35.767-34.388 4.736-5.736 4.736-12.689 0-18.427-3.465-4.184-7.263-8.122-11.06-11.971-10.154-10.289-21.06-20.04-32.611-28.874l20.93-48.898c4.231-9.888-0.312-21.735-10.08-26.23-2.443-1.123-5.02-1.681-7.545-1.741-7.569-0.18-14.855 4.156-18.03 11.572l-18.609 43.493c-1.334-0.729-2.68-1.438-4.03-2.14-5.688-2.963-11.538-5.704-17.484-8.198l12.01-38.814c3.316-10.716-2.704-22.47-13.349-26.01-1.996-0.663-4.03-0.986-6.02-1.016-8.652-0.128-16.749 5.404-19.443 14.11l-12.08 38.995c-0.133 0.431-0.223 0.873-0.326 1.306-7.889-1.24-15.719-1.873-23.869-1.886-6.568 0.012-13.13 0.484-19.697 1.342-0.076-0.288-0.129-0.584-0.218-0.871l-12.04-38.995c-2.695-8.707-10.817-14.233-19.479-14.11m50.748 76.72c34.598 0 63.45 24.609 70.01 57.28h-29.926c-5.832-16.516-21.565-28.33-40.08-28.33-23.486 0-42.514 18.998-42.514 42.477 0 23.492 19.03 42.514 42.514 42.514 18.51 0 34.24-11.822 40.08-28.33h29.926c-6.578 32.651-35.424 57.24-70.01 57.24-39.439 0-71.42-31.985-71.42-71.42 0-39.439 31.985-71.42 71.42-71.42" fill="#fff"/>
</svg>
