<?xml version="1.0" encoding="UTF-8" standalone="no"?>
<svg xmlns="http://www.w3.org/2000/svg" height="512" viewBox="0 0 512 512" width="512" version="1.1">
 <metadata id="metadata74"/>
 <g id="g4" transform="translate(0,-540.36)">
  <path id="path6" d="m471.95 793.41c0 120.9-98.01 218.9-218.9 218.9-120.9 0-218.9-98.01-218.9-218.9 0-120.9 98.01-218.9 218.9-218.9 120.9 0 218.9 98.01 218.9 218.9" fill-rule="evenodd" fill="#BF9E73"/>
  <path id="path8" d="m125.78 125.19 99.72 134.38-99.72 127.25h1.781c-0.012 0.016-0.781 1-0.781 1h1.781c-0.012 0.016-0.781 1-0.781 1h1.781c-0.012 0.016-0.781 1-0.781 1h1.719c-0.011 0.014-0.75 0.969-0.75 0.969h1.781c-0.012 0.016-0.781 1-0.781 1h1.781c-0.012 0.016-0.781 1-0.781 1h1.781c-0.012 0.016-0.781 1-0.781 1h1.781c-0.012 0.016-0.781 1-0.781 1h1.781c-0.012 0.016-0.781 1-0.781 1h1.719c-0.011 0.014-0.75 0.969-0.75 0.969h1.781c-0.012 0.016-0.781 1-0.781 1h1.781l-0.781 1h1.781c-0.012 0.016-0.781 1-0.781 1h1.781c-0.012 0.016-0.781 1-0.781 1h1.781l-0.781 1h1.719c-0.011 0.014-0.75 0.969-0.75 0.969h1.781c-0.012 0.016-0.781 1-0.781 1h1.781l-0.781 1h1.781c-0.012 0.016-0.781 1-0.781 1h1.781c-0.012 0.016-0.781 1-0.781 1h1.781l-0.781 1h1.719c-0.011 0.014-0.75 0.969-0.75 0.969h1.781c-0.012 0.016-0.781 1-0.781 1h1.781l-0.781 1h1.781c-0.012 0.016-0.781 1-0.781 1h1.781c-0.012 0.016-0.781 1-0.781 1h1.781l-0.781 1h1.781c-0.012 0.016-0.781 1-0.781 1h1.719c-0.011 0.014-0.75 0.969-0.75 0.969h1.781l-0.781 1h1.781c-0.012 0.016-0.781 1-0.781 1h1.781c-0.012 0.016-0.781 1-0.781 1h1.781l-0.781 1h1.781c-0.012 0.016-0.781 1-0.781 1h1.719c-0.011 0.014-0.75 0.969-0.75 0.969h1.781l-0.781 1h1.781l-0.781 1h1.781c-0.012 0.016-0.781 1-0.781 1h1.781l-0.781 1h1.781l-0.781 1h1.719c-0.011 0.014-0.75 0.969-0.75 0.969h1.781l-0.781 1h1.781l-0.781 1h1.781c-0.012 0.016-0.781 1-0.781 1h1.781l-0.781 1h1.781l-0.781 1h1.781c-0.012 0.016-0.781 1-0.781 1h1.719l-0.75 0.969h1.781l-0.781 1h1.781c-0.012 0.016-0.781 1-0.781 1h1.781l-0.781 1h1.781l-0.781 1h1.781c-0.012 0.016-0.781 1-0.781 1h1.719l-0.75 0.969h1.781l-0.781 1h1.781c-0.012 0.016-0.781 1-0.781 1h1.781l-0.781 1h1.781l-0.781 1h1.781c-0.012 0.016-0.781 1-0.781 1h1.719c-0.011 0.014-0.75 0.969-0.75 0.969h1.781l-0.781 1h1.781c-0.012 0.016-0.781 1-0.781 1h1.781c-0.012 0.016-0.781 1-0.781 1h1.781l-0.781 1h1.781c-0.012 0.016-0.781 1-0.781 1h1.719c-0.011 0.014-0.75 0.969-0.75 0.969h1.781l-0.781 1h1.781c-0.012 0.016-0.781 1-0.781 1h1.781l-0.781 1h1.781l-0.781 1h1.781c-0.012 0.016-0.781 1-0.781 1h1.781c-0.012 0.016-0.781 1-0.781 1h1.719l-0.75 0.969h1.781c-0.012 0.016-0.781 1-0.781 1h1.781c-0.012 0.016-0.781 1-0.781 1h1.781l-0.781 1h1.781c-0.012 0.016-0.781 1-0.781 1h1.781c-0.012 0.016-0.781 1-0.781 1h1.719l-0.75 0.969h1.781c-0.012 0.016-0.781 1-0.781 1h1.781c-0.007 0.009-0.247 0.31-0.469 0.594 14.945 3.223 30.435 4.969 46.34 4.969 120.9 0 218.91-98.01 218.91-218.91 0-15.523-1.615-30.672-4.688-45.28h-0.219l0.156-0.219c-0.055-0.26-0.1-0.521-0.156-0.781h-1l0.781-1h-1.781l0.781-1h-1.781l0.781-1h-1.75l0.781-0.969h-1.781l0.781-1h-1.781l0.781-1h-1.781l0.781-1h-1.781l0.781-1h-1.781l0.781-1h-1.75l0.781-0.969h-1.781l0.781-1h-1.781l0.781-1h-1.781l0.781-1h-1.781l0.781-1h-1.781l0.781-1h-1.781l0.781-1h-1.75l0.781-0.969h-1.781l0.781-1h-1.781l0.781-1h-1.781l0.781-1h-1.781l0.781-1h-1.781l0.781-1h-1.75l0.781-0.969h-1.781l0.781-1h-1.781l0.781-1h-1.781l0.781-1h-1.781l0.781-1h-1.781l0.781-1h-1.75l0.781-0.969h-1.781l0.781-1h-1.781l0.781-1h-1.781l0.781-1h-1.781l0.781-1h-1.781l0.781-1h-1.75l0.781-0.969h-1.781l0.781-1h-1.781l0.781-1h-1.781l0.781-1h-1.781l0.781-1h-1.781l0.781-1h-1.781l0.781-1h-1.75l0.781-0.969h-1.781l0.781-1h-1.781l0.781-1h-1.781l0.781-1h-1.781l0.781-1h-1.781l0.781-1h-1.75l0.781-0.969h-1.781l0.781-1h-1.781l0.781-1h-1.781l0.781-1h-1.781l0.781-1h-1.781l0.781-1h-1.75l0.781-0.969h-1.781l0.781-1h-1.781l0.781-1h-1.781l0.781-1h-1.781l0.781-1h-1.781l0.781-1h-1.781l0.781-1h-1.75l0.781-0.969h-1.781l0.781-1h-1.781l0.781-1h-1.781l0.781-1h-1.781l0.781-1h-1.781l0.781-1h-1.75l0.781-0.969h-1.781l0.781-1h-1.781l0.781-1h-1.781l0.781-1h-1.781l0.781-1h-1.781l0.781-1h-1.75l0.781-0.969h-1.781l0.781-1h-1.781l0.781-1h-1.781l0.781-1h-1.781l0.781-1h-1.781l0.781-1h-1.75l0.781-0.969h-1.781l0.781-1h-1.781l0.781-1h-1.781l0.781-1h-23.438l-76.37 96.31-0.594-0.781h-0.281c-0.013-0.018-0.719-1-0.719-1h-0.281c-0.013-0.018-0.719-1-0.719-1h-0.25c-0.014-0.018-0.75-1-0.75-1h-0.281l-0.719-1h-0.25c-0.013-0.017-0.719-0.969-0.719-0.969h-0.281c-0.013-0.018-0.719-1-0.719-1h-0.25c-0.014-0.018-0.75-1-0.75-1h-0.281l-0.719-1h-0.25c-0.014-0.018-0.75-1-0.75-1h-0.281c-0.013-0.018-0.719-1-0.719-1h-0.25c-0.014-0.018-0.75-1-0.75-1h-0.25l-0.719-0.969h-0.281c-0.013-0.018-0.719-1-0.719-1h-0.25c-0.014-0.018-0.75-1-0.75-1h-0.281c-0.013-0.018-0.719-1-0.719-1h-0.281l-0.719-1h-0.281c-0.013-0.018-0.719-1-0.719-1h-0.25c-0.013-0.017-0.719-0.969-0.719-0.969h-0.281l-0.719-1h-0.25l-0.75-1h-0.281c-0.013-0.018-0.719-1-0.719-1h-0.25c-0.014-0.018-0.75-1-0.75-1h-0.281c-0.013-0.018-0.719-1-0.719-1h-0.25c-0.013-0.017-0.719-0.969-0.719-0.969h-0.281l-0.719-1h-0.25l-0.75-1h-0.281c-0.013-0.018-0.719-1-0.719-1h-0.25l-0.75-1h-0.281l-0.719-1h-0.281l-0.719-1h-0.25l-0.719-0.969h-0.281l-0.719-1h-0.25l-0.75-1h-0.281l-0.719-1h-0.281l-0.719-1h-0.281l-0.719-1h-0.25l-0.71-0.96h-0.281l-0.719-1h-0.25l-0.75-1h-0.281l-0.719-1h-0.25l-0.75-1h-0.281l-0.719-1h-0.25l-0.719-0.969h-0.281l-0.719-1h-0.281l-0.719-1h-0.281l-0.719-1h-0.281l-0.719-1h-0.281l-0.719-1h-0.25l-0.719-0.969h-0.25l-0.75-1h-0.281l-0.719-1h-0.281l-0.719-1h-0.25l-0.75-1h-0.281l-0.719-1h-0.281l-0.719-1h-0.25l-0.719-0.969h-0.281l-0.719-1h-0.25l-0.75-1h-0.281l-0.719-1h-0.25l-0.75-1h-0.281l-0.719-1h-0.25l-0.719-0.969h-0.281l-0.719-1h-0.281l-0.719-1h-0.281l-0.719-1h-0.281l-0.719-1h-0.281l-0.719-1h-0.25l-0.719-0.969h-0.25l-0.75-1h-0.281l-0.719-1h-0.281l-0.719-1h-0.25l-0.75-1h-0.281l-0.719-1h-0.281l-0.719-1h-0.25l-0.719-0.969h-0.281l-0.719-1h-0.25l-0.75-1h-0.281l-0.719-1h-0.281l-0.719-1h-0.281l-0.719-1h-0.25l-0.719-0.969h-0.25l-0.75-1h-0.281l-0.719-1h-0.281c-0.013-0.018-0.719-1-0.719-1h-0.281l-0.719-1h-0.281l-0.719-1h-0.25l-0.719-0.969h-0.281l-0.719-1h-0.281l-0.719-1h-0.25l-0.75-1h-0.281l-0.719-1h-0.281c-0.013-0.018-0.719-1-0.719-1h-0.25l-0.719-0.969h-0.281l-0.719-1h-0.281l-0.719-1h-0.281l-0.719-1h-64.5" fill-opacity="0.235" transform="translate(0,540.36)"/>
  <g id="g10" fill-rule="evenodd">
   <path id="path12" fill-opacity="0.067" d="m256 541.36c-140.83 0-255 114.17-255 255s114.17 255 255 255 255-114.17 255-255-114.17-255-255-255m8.827 44.931c120.9 0 218.9 98 218.9 218.9s-98 218.9-218.9 218.9-218.93-98-218.93-218.9 98.03-218.9 218.93-218.9"/>
   <g id="g14" fill-opacity="0.129">
    <path id="path16" d="m256 544.79c-138.94 0-251.57 112.63-251.57 251.57s112.63 251.54 251.57 251.54 251.57-112.6 251.57-251.54-112.63-251.57-251.57-251.57m5.885 38.556c120.9 0 218.9 98 218.9 218.9s-98 218.9-218.9 218.9-218.93-98-218.93-218.9 98.03-218.9 218.93-218.9"/>
    <path id="path18" d="m256 548.72c-136.77 0-247.64 110.87-247.64 247.64s110.87 247.64 247.64 247.64 247.64-110.87 247.64-247.64-110.87-247.64-247.64-247.64m2.942 31.691c120.9 0 218.9 98 218.9 218.9s-98 218.9-218.9 218.9-218.93-98-218.93-218.9 98.03-218.9 218.93-218.9"/>
   </g>
   <path id="path20" d="m253.04 548.22c-135.42 0-245.19 109.78-245.19 245.19 0 135.42 109.78 245.19 245.19 245.19 135.42 0 245.19-109.78 245.19-245.19 0-135.42-109.78-245.19-245.19-245.19zm0 26.297c120.9 0 218.9 98 218.9 218.9s-98 218.9-218.9 218.9-218.93-98-218.93-218.9 98.03-218.9 218.93-218.9z" stroke-opacity="0.31" stroke="#000" stroke-width="4.904" fill="#fff"/>
  </g>
  <path id="path68" d="m296.79 612.63l104.06-132.79-104.06-140.25h67.3l83.35 113.49-126.86 159.55h-23.786m120.5-112.56 126.83-160.47h24.455l-104.09 131.67 104.09 141.36h-67.3l-83.98-112.56" fill="#fff" transform="matrix(.95814 0 0 .95814 -158.57 340.18)"/>
 </g>
</svg>
