<?xml version="1.0" encoding="UTF-8" standalone="no"?>
<svg
   xmlns:dc="http://purl.org/dc/elements/1.1/"
   xmlns:cc="http://creativecommons.org/ns#"
   xmlns:rdf="http://www.w3.org/1999/02/22-rdf-syntax-ns#"
   xmlns:svg="http://www.w3.org/2000/svg"
   xmlns="http://www.w3.org/2000/svg"
   xmlns:sodipodi="http://sodipodi.sourceforge.net/DTD/sodipodi-0.dtd"
   xmlns:inkscape="http://www.inkscape.org/namespaces/inkscape"
   viewBox="0 0 512 512"
   id="svg2"
   version="1.1"
   inkscape:version="0.91 r13725"
   sodipodi:docname="xournal.svg">
  <metadata
     id="metadata358">
    <rdf:RDF>
      <cc:Work
         rdf:about="">
        <dc:format>image/svg+xml</dc:format>
        <dc:type
           rdf:resource="http://purl.org/dc/dcmitype/StillImage" />
      </cc:Work>
    </rdf:RDF>
  </metadata>
  <defs
     id="defs356" />
  <sodipodi:namedview
     pagecolor="#ffffff"
     bordercolor="#666666"
     borderopacity="1"
     objecttolerance="10"
     gridtolerance="10"
     guidetolerance="10"
     inkscape:pageopacity="0"
     inkscape:pageshadow="2"
     inkscape:window-width="1680"
     inkscape:window-height="1024"
     id="namedview354"
     showgrid="false"
     inkscape:zoom="0.4609375"
     inkscape:cx="-249.49153"
     inkscape:cy="256"
     inkscape:window-x="0"
     inkscape:window-y="0"
     inkscape:window-maximized="0"
     inkscape:current-layer="svg2" />
  <text
     font-size="129.23"
     y="231.36"
     x="729.64"
     font-family="'Gentium Book Basic'"
     line-height="125%"
     word-spacing="0"
     letter-spacing="0"
     id="text4">
    <tspan
       y="231.36"
       x="729.64"
       id="tspan6" />
  </text>
  <text
     transform="scale(4.0128.2492)"
     font-size="46.954"
     y="579.26"
     x="378.91"
     font-family="Arial"
     text-anchor="middle"
     id="text8" />
  <text
     font-size="129.23"
     y="151.36"
     x="1310.91"
     font-family="'Gentium Book Basic'"
     line-height="125%"
     word-spacing="0"
     letter-spacing="0"
     id="text10">
    <tspan
       y="151.36"
       x="1310.91"
       id="tspan12" />
  </text>
  <text
     transform="scale(4.0128.2492)"
     font-size="46.954"
     y="258.22"
     x="523.76"
     font-family="Arial"
     text-anchor="middle"
     id="text14" />
  <text
     font-size="129.23"
     y="-29.9"
     x="239.33"
     font-family="'Gentium Book Basic'"
     line-height="125%"
     word-spacing="0"
     letter-spacing="0"
     id="text16">
    <tspan
       y="-29.9"
       x="239.33"
       id="tspan18" />
  </text>
  <text
     transform="scale(4.0128.2492)"
     font-size="46.954"
     y="-469.13"
     x="256.72"
     font-family="Arial"
     text-anchor="middle"
     id="text20" />
  <text
     font-size="129.23"
     y="-246.37"
     x="1337.38"
     font-family="'Gentium Book Basic'"
     line-height="125%"
     word-spacing="0"
     letter-spacing="0"
     id="text22">
    <tspan
       y="-246.37"
       x="1337.38"
       id="tspan24" />
  </text>
  <text
     transform="scale(4.0128.2492)"
     font-size="46.954"
     y="-1337.8"
     x="530.36"
     font-family="Arial"
     text-anchor="middle"
     id="text26" />
  <text
     font-size="129.23"
     y="-326.37"
     x="1918.65"
     font-family="'Gentium Book Basic'"
     line-height="125%"
     word-spacing="0"
     letter-spacing="0"
     id="text28">
    <tspan
       y="-326.37"
       x="1918.65"
       id="tspan30" />
  </text>
  <text
     transform="scale(4.0128.2492)"
     font-size="46.954"
     y="-1658.83"
     x="675.21"
     font-family="Arial"
     text-anchor="middle"
     id="text32" />
  <text
     font-size="129.23"
     y="-798.77"
     x="1529.53"
     font-family="'Gentium Book Basic'"
     line-height="125%"
     word-spacing="0"
     letter-spacing="0"
     id="text34">
    <tspan
       y="-798.77"
       x="1529.53"
       id="tspan36" />
  </text>
  <text
     transform="scale(4.0128.2492)"
     font-size="46.954"
     y="-3554.48"
     x="578.24"
     font-family="Arial"
     text-anchor="middle"
     id="text38" />
  <text
     font-size="129.23"
     y="-878.78"
     x="2110.79"
     font-family="'Gentium Book Basic'"
     line-height="125%"
     word-spacing="0"
     letter-spacing="0"
     id="text40">
    <tspan
       y="-878.78"
       x="2110.79"
       id="tspan42" />
  </text>
  <text
     transform="scale(4.0128.2492)"
     font-size="46.954"
     y="-3875.52"
     x="723.09"
     font-family="Arial"
     text-anchor="middle"
     id="text44" />
  <g
     font-family="'Gentium Book Basic'"
     line-height="125%"
     word-spacing="0"
     letter-spacing="0"
     id="g46">
    <text
       y="535.94"
       x="277.99"
       font-size="208.33"
       id="text48">
      <tspan
         y="535.94"
         x="277.99"
         id="tspan50" />
    </text>
    <text
       y="231.36"
       x="729.64"
       font-size="129.23"
       id="text52">
      <tspan
         y="231.36"
         x="729.64"
         id="tspan54" />
    </text>
  </g>
  <text
     transform="scale(4.0128.2492)"
     font-size="46.954"
     y="579.26"
     x="378.91"
     font-family="Arial"
     text-anchor="middle"
     id="text56" />
  <text
     font-size="129.23"
     y="151.36"
     x="1310.91"
     font-family="'Gentium Book Basic'"
     line-height="125%"
     word-spacing="0"
     letter-spacing="0"
     id="text58">
    <tspan
       y="151.36"
       x="1310.91"
       id="tspan60" />
  </text>
  <text
     transform="scale(4.0128.2492)"
     font-size="46.954"
     y="258.22"
     x="523.76"
     font-family="Arial"
     text-anchor="middle"
     id="text62" />
  <text
     font-size="129.23"
     y="-29.9"
     x="239.33"
     font-family="'Gentium Book Basic'"
     line-height="125%"
     word-spacing="0"
     letter-spacing="0"
     id="text64">
    <tspan
       y="-29.9"
       x="239.33"
       id="tspan66" />
  </text>
  <text
     transform="scale(4.0128.2492)"
     font-size="46.954"
     y="-469.13"
     x="256.72"
     font-family="Arial"
     text-anchor="middle"
     id="text68" />
  <text
     font-size="129.23"
     y="-246.37"
     x="1337.38"
     font-family="'Gentium Book Basic'"
     line-height="125%"
     word-spacing="0"
     letter-spacing="0"
     id="text70">
    <tspan
       y="-246.37"
       x="1337.38"
       id="tspan72" />
  </text>
  <text
     transform="scale(4.0128.2492)"
     font-size="46.954"
     y="-1337.8"
     x="530.36"
     font-family="Arial"
     text-anchor="middle"
     id="text74" />
  <text
     font-size="129.23"
     y="-326.37"
     x="1918.65"
     font-family="'Gentium Book Basic'"
     line-height="125%"
     word-spacing="0"
     letter-spacing="0"
     id="text76">
    <tspan
       y="-326.37"
       x="1918.65"
       id="tspan78" />
  </text>
  <text
     transform="scale(4.0128.2492)"
     font-size="46.954"
     y="-1658.83"
     x="675.21"
     font-family="Arial"
     text-anchor="middle"
     id="text80" />
  <text
     font-size="129.23"
     y="-798.77"
     x="1529.53"
     font-family="'Gentium Book Basic'"
     line-height="125%"
     word-spacing="0"
     letter-spacing="0"
     id="text82">
    <tspan
       y="-798.77"
       x="1529.53"
       id="tspan84" />
  </text>
  <text
     transform="scale(4.0128.2492)"
     font-size="46.954"
     y="-3554.48"
     x="578.24"
     font-family="Arial"
     text-anchor="middle"
     id="text86" />
  <text
     font-size="129.23"
     y="-878.78"
     x="2110.79"
     font-family="'Gentium Book Basic'"
     line-height="125%"
     word-spacing="0"
     letter-spacing="0"
     id="text88">
    <tspan
       y="-878.78"
       x="2110.79"
       id="tspan90" />
  </text>
  <text
     transform="scale(4.0128.2492)"
     font-size="46.954"
     y="-3875.52"
     x="723.09"
     font-family="Arial"
     text-anchor="middle"
     id="text92" />
  <g
     font-family="'Gentium Book Basic'"
     line-height="125%"
     word-spacing="0"
     letter-spacing="0"
     id="g94">
    <text
       y="535.94"
       x="277.99"
       font-size="208.33"
       id="text96">
      <tspan
         y="535.94"
         x="277.99"
         id="tspan98" />
    </text>
    <text
       y="231.36"
       x="729.64"
       font-size="129.23"
       id="text100">
      <tspan
         y="231.36"
         x="729.64"
         id="tspan102" />
    </text>
  </g>
  <text
     transform="scale(4.0128.2492)"
     font-size="46.954"
     y="579.26"
     x="378.91"
     font-family="Arial"
     text-anchor="middle"
     id="text104" />
  <text
     font-size="129.23"
     y="151.36"
     x="1310.91"
     font-family="'Gentium Book Basic'"
     line-height="125%"
     word-spacing="0"
     letter-spacing="0"
     id="text106">
    <tspan
       y="151.36"
       x="1310.91"
       id="tspan108" />
  </text>
  <text
     transform="scale(4.0128.2492)"
     font-size="46.954"
     y="258.22"
     x="523.76"
     font-family="Arial"
     text-anchor="middle"
     id="text110" />
  <text
     font-size="129.23"
     y="-29.9"
     x="239.33"
     font-family="'Gentium Book Basic'"
     line-height="125%"
     word-spacing="0"
     letter-spacing="0"
     id="text112">
    <tspan
       y="-29.9"
       x="239.33"
       id="tspan114" />
  </text>
  <text
     transform="scale(4.0128.2492)"
     font-size="46.954"
     y="-469.13"
     x="256.72"
     font-family="Arial"
     text-anchor="middle"
     id="text116" />
  <text
     font-size="129.23"
     y="-246.37"
     x="1337.38"
     font-family="'Gentium Book Basic'"
     line-height="125%"
     word-spacing="0"
     letter-spacing="0"
     id="text118">
    <tspan
       y="-246.37"
       x="1337.38"
       id="tspan120" />
  </text>
  <text
     transform="scale(4.0128.2492)"
     font-size="46.954"
     y="-1337.79"
     x="530.36"
     font-family="Arial"
     text-anchor="middle"
     id="text122" />
  <text
     font-size="129.23"
     y="-326.37"
     x="1918.65"
     font-family="'Gentium Book Basic'"
     line-height="125%"
     word-spacing="0"
     letter-spacing="0"
     id="text124">
    <tspan
       y="-326.37"
       x="1918.65"
       id="tspan126" />
  </text>
  <text
     transform="scale(4.0128.2492)"
     font-size="46.954"
     y="-1658.82"
     x="675.21"
     font-family="Arial"
     text-anchor="middle"
     id="text128" />
  <text
     font-size="129.23"
     y="-798.77"
     x="1529.53"
     font-family="'Gentium Book Basic'"
     line-height="125%"
     word-spacing="0"
     letter-spacing="0"
     id="text130">
    <tspan
       y="-798.77"
       x="1529.53"
       id="tspan132" />
  </text>
  <text
     transform="scale(4.0128.2492)"
     font-size="46.954"
     y="-3554.46"
     x="578.24"
     font-family="Arial"
     text-anchor="middle"
     id="text134" />
  <text
     font-size="129.23"
     y="-878.78"
     x="2110.79"
     font-family="'Gentium Book Basic'"
     line-height="125%"
     word-spacing="0"
     letter-spacing="0"
     id="text136">
    <tspan
       y="-878.78"
       x="2110.79"
       id="tspan138" />
  </text>
  <text
     transform="scale(4.0128.2492)"
     font-size="46.954"
     y="-3875.5"
     x="723.09"
     font-family="Arial"
     text-anchor="middle"
     id="text140" />
  <g
     font-family="'Gentium Book Basic'"
     line-height="125%"
     word-spacing="0"
     letter-spacing="0"
     id="g142">
    <text
       y="535.94"
       x="277.99"
       font-size="208.33"
       id="text144">
      <tspan
         y="535.94"
         x="277.99"
         id="tspan146" />
    </text>
    <text
       y="231.36"
       x="729.64"
       font-size="129.23"
       id="text148">
      <tspan
         y="231.36"
         x="729.64"
         id="tspan150" />
    </text>
  </g>
  <text
     transform="scale(4.0128.2492)"
     font-size="46.954"
     y="579.26"
     x="378.91"
     font-family="Arial"
     text-anchor="middle"
     id="text152" />
  <text
     font-size="129.23"
     y="151.36"
     x="1310.91"
     font-family="'Gentium Book Basic'"
     line-height="125%"
     word-spacing="0"
     letter-spacing="0"
     id="text154">
    <tspan
       y="151.36"
       x="1310.91"
       id="tspan156" />
  </text>
  <text
     transform="scale(4.0128.2492)"
     font-size="46.954"
     y="258.22"
     x="523.76"
     font-family="Arial"
     text-anchor="middle"
     id="text158" />
  <text
     font-size="129.23"
     y="-29.9"
     x="239.33"
     font-family="'Gentium Book Basic'"
     line-height="125%"
     word-spacing="0"
     letter-spacing="0"
     id="text160">
    <tspan
       y="-29.9"
       x="239.33"
       id="tspan162" />
  </text>
  <text
     transform="scale(4.0128.2492)"
     font-size="46.954"
     y="-469.13"
     x="256.72"
     font-family="Arial"
     text-anchor="middle"
     id="text164" />
  <text
     font-size="129.23"
     y="-246.37"
     x="1337.38"
     font-family="'Gentium Book Basic'"
     line-height="125%"
     word-spacing="0"
     letter-spacing="0"
     id="text166">
    <tspan
       y="-246.37"
       x="1337.38"
       id="tspan168" />
  </text>
  <text
     transform="scale(4.0128.2492)"
     font-size="46.954"
     y="-1337.8"
     x="530.36"
     font-family="Arial"
     text-anchor="middle"
     id="text170" />
  <text
     font-size="129.23"
     y="-326.37"
     x="1918.65"
     font-family="'Gentium Book Basic'"
     line-height="125%"
     word-spacing="0"
     letter-spacing="0"
     id="text172">
    <tspan
       y="-326.37"
       x="1918.65"
       id="tspan174" />
  </text>
  <text
     transform="scale(4.0128.2492)"
     font-size="46.954"
     y="-1658.83"
     x="675.21"
     font-family="Arial"
     text-anchor="middle"
     id="text176" />
  <text
     font-size="129.23"
     y="-798.77"
     x="1529.53"
     font-family="'Gentium Book Basic'"
     line-height="125%"
     word-spacing="0"
     letter-spacing="0"
     id="text178">
    <tspan
       y="-798.77"
       x="1529.53"
       id="tspan180" />
  </text>
  <text
     transform="scale(4.0128.2492)"
     font-size="46.954"
     y="-3554.48"
     x="578.24"
     font-family="Arial"
     text-anchor="middle"
     id="text182" />
  <text
     font-size="129.23"
     y="-878.78"
     x="2110.79"
     font-family="'Gentium Book Basic'"
     line-height="125%"
     word-spacing="0"
     letter-spacing="0"
     id="text184">
    <tspan
       y="-878.78"
       x="2110.79"
       id="tspan186" />
  </text>
  <text
     transform="scale(4.0128.2492)"
     font-size="46.954"
     y="-3875.52"
     x="723.09"
     font-family="Arial"
     text-anchor="middle"
     id="text188" />
  <g
     font-family="'Gentium Book Basic'"
     line-height="125%"
     word-spacing="0"
     letter-spacing="0"
     id="g190">
    <text
       y="535.94"
       x="277.99"
       font-size="208.33"
       id="text192">
      <tspan
         y="535.94"
         x="277.99"
         id="tspan194" />
    </text>
    <text
       y="272.72"
       x="1781.5"
       font-size="129.23"
       id="text196">
      <tspan
         y="272.72"
         x="1781.5"
         id="tspan198" />
    </text>
  </g>
  <text
     transform="scale(4.0128.2492)"
     font-size="46.954"
     y="745.22"
     x="641.03"
     font-family="Arial"
     text-anchor="middle"
     id="text200" />
  <text
     font-size="129.23"
     y="192.72"
     x="2362.77"
     font-family="'Gentium Book Basic'"
     line-height="125%"
     word-spacing="0"
     letter-spacing="0"
     id="text202">
    <tspan
       y="192.72"
       x="2362.77"
       id="tspan204" />
  </text>
  <text
     transform="scale(4.0128.2492)"
     font-size="46.954"
     y="424.18"
     x="785.88"
     font-family="Arial"
     text-anchor="middle"
     id="text206" />
  <text
     font-size="129.23"
     y="11.457"
     x="1291.19"
     font-family="'Gentium Book Basic'"
     line-height="125%"
     word-spacing="0"
     letter-spacing="0"
     id="text208">
    <tspan
       y="11.457"
       x="1291.19"
       id="tspan210" />
  </text>
  <text
     transform="scale(4.0128.2492)"
     font-size="46.954"
     y="-303.17"
     x="518.84"
     font-family="Arial"
     text-anchor="middle"
     id="text212" />
  <text
     font-size="129.23"
     y="-205.01"
     x="2389.24"
     font-family="'Gentium Book Basic'"
     line-height="125%"
     word-spacing="0"
     letter-spacing="0"
     id="text214">
    <tspan
       y="-205.01"
       x="2389.24"
       id="tspan216" />
  </text>
  <text
     transform="scale(4.0128.2492)"
     font-size="46.954"
     y="-1171.84"
     x="792.48"
     font-family="Arial"
     text-anchor="middle"
     id="text218" />
  <text
     font-size="129.23"
     y="-285.01"
     x="2970.51"
     font-family="'Gentium Book Basic'"
     line-height="125%"
     word-spacing="0"
     letter-spacing="0"
     id="text220">
    <tspan
       y="-285.01"
       x="2970.51"
       id="tspan222" />
  </text>
  <text
     transform="scale(4.0128.2492)"
     font-size="46.954"
     y="-1492.87"
     x="937.33"
     font-family="Arial"
     text-anchor="middle"
     id="text224" />
  <text
     font-size="129.23"
     y="-757.41"
     x="2581.39"
     font-family="'Gentium Book Basic'"
     line-height="125%"
     word-spacing="0"
     letter-spacing="0"
     id="text226">
    <tspan
       y="-757.41"
       x="2581.39"
       id="tspan228" />
  </text>
  <text
     transform="scale(4.0128.2492)"
     font-size="46.954"
     y="-3388.52"
     x="840.36"
     font-family="Arial"
     text-anchor="middle"
     id="text230" />
  <text
     font-size="129.23"
     y="-837.42"
     x="3162.65"
     font-family="'Gentium Book Basic'"
     line-height="125%"
     word-spacing="0"
     letter-spacing="0"
     id="text232">
    <tspan
       y="-837.42"
       x="3162.65"
       id="tspan234" />
  </text>
  <text
     transform="scale(4.0128.2492)"
     font-size="46.954"
     y="-3709.56"
     x="985.21"
     font-family="Arial"
     text-anchor="middle"
     id="text236" />
  <g
     font-family="'Gentium Book Basic'"
     line-height="125%"
     word-spacing="0"
     letter-spacing="0"
     id="g238">
    <text
       y="577.3"
       x="1329.85"
       font-size="208.33"
       id="text240">
      <tspan
         y="577.3"
         x="1329.85"
         id="tspan242" />
    </text>
    <text
       y="231.36"
       x="729.64"
       font-size="129.23"
       id="text244">
      <tspan
         y="231.36"
         x="729.64"
         id="tspan246" />
    </text>
  </g>
  <text
     transform="scale(4.0128.2492)"
     font-size="46.954"
     y="579.26"
     x="378.91"
     font-family="Arial"
     text-anchor="middle"
     id="text248" />
  <text
     font-size="129.23"
     y="151.36"
     x="1310.91"
     font-family="'Gentium Book Basic'"
     line-height="125%"
     word-spacing="0"
     letter-spacing="0"
     id="text250">
    <tspan
       y="151.36"
       x="1310.91"
       id="tspan252" />
  </text>
  <text
     transform="scale(4.0128.2492)"
     font-size="46.954"
     y="258.22"
     x="523.76"
     font-family="Arial"
     text-anchor="middle"
     id="text254" />
  <text
     font-size="129.23"
     y="-29.9"
     x="239.33"
     font-family="'Gentium Book Basic'"
     line-height="125%"
     word-spacing="0"
     letter-spacing="0"
     id="text256">
    <tspan
       y="-29.9"
       x="239.33"
       id="tspan258" />
  </text>
  <text
     transform="scale(4.0128.2492)"
     font-size="46.954"
     y="-469.13"
     x="256.72"
     font-family="Arial"
     text-anchor="middle"
     id="text260" />
  <text
     font-size="129.23"
     y="-246.37"
     x="1337.38"
     font-family="'Gentium Book Basic'"
     line-height="125%"
     word-spacing="0"
     letter-spacing="0"
     id="text262">
    <tspan
       y="-246.37"
       x="1337.38"
       id="tspan264" />
  </text>
  <text
     transform="scale(4.0128.2492)"
     font-size="46.954"
     y="-1337.79"
     x="530.36"
     font-family="Arial"
     text-anchor="middle"
     id="text266" />
  <text
     font-size="129.23"
     y="-326.37"
     x="1918.65"
     font-family="'Gentium Book Basic'"
     line-height="125%"
     word-spacing="0"
     letter-spacing="0"
     id="text268">
    <tspan
       y="-326.37"
       x="1918.65"
       id="tspan270" />
  </text>
  <text
     transform="scale(4.0128.2492)"
     font-size="46.954"
     y="-1658.82"
     x="675.21"
     font-family="Arial"
     text-anchor="middle"
     id="text272" />
  <text
     font-size="129.23"
     y="-798.77"
     x="1529.53"
     font-family="'Gentium Book Basic'"
     line-height="125%"
     word-spacing="0"
     letter-spacing="0"
     id="text274">
    <tspan
       y="-798.77"
       x="1529.53"
       id="tspan276" />
  </text>
  <text
     transform="scale(4.0128.2492)"
     font-size="46.954"
     y="-3554.46"
     x="578.24"
     font-family="Arial"
     text-anchor="middle"
     id="text278" />
  <text
     font-size="129.23"
     y="-878.78"
     x="2110.79"
     font-family="'Gentium Book Basic'"
     line-height="125%"
     word-spacing="0"
     letter-spacing="0"
     id="text280">
    <tspan
       y="-878.78"
       x="2110.79"
       id="tspan282" />
  </text>
  <text
     transform="scale(4.0128.2492)"
     font-size="46.954"
     y="-3875.5"
     x="723.09"
     font-family="Arial"
     text-anchor="middle"
     id="text284" />
  <text
     font-size="208.33"
     y="535.94"
     x="277.99"
     font-family="'Gentium Book Basic'"
     line-height="125%"
     word-spacing="0"
     letter-spacing="0"
     id="text286">
    <tspan
       y="535.94"
       x="277.99"
       id="tspan288" />
  </text>
  <path
     style="fill:#BF9E73;fill-rule:evenodd;fill-opacity:1"
     inkscape:connector-curvature="0"
     id="path292"
     d="m 471.95,253.05 c 0,120.9 -98.01,218.91 -218.91,218.91 -120.9,0 -218.91,-98.01 -218.91,-218.91 0,-120.9 98.01,-218.91 218.91,-218.91 120.9,0 218.91,98.01 218.91,218.91" />
  <path
     style="fill-opacity:0.06700003;fill-rule:evenodd"
     inkscape:connector-curvature="0"
     id="path294"
     d="M 256,1 C 115.17,1 1,115.17 1,256 1,396.83 115.17,511 256,511 396.83,511 511,396.83 511,256 511,115.17 396.83,1 256,1 m 8.827,44.931 c 120.9,0 218.9,98 218.9,218.9 0,120.9 -98,218.9 -218.9,218.9 -120.9,0 -218.93,-98 -218.93,-218.9 0,-120.9 98.03,-218.9 218.93,-218.9" />
  <g
     style="fill-opacity:0.12900002;fill-rule:evenodd"
     id="g296">
    <path
       inkscape:connector-curvature="0"
       id="path298"
       d="M 256,4.43 C 117.06,4.43 4.43,117.06 4.43,256 4.43,394.94 117.06,507.57 256,507.57 394.94,507.57 507.57,394.94 507.57,256 507.57,117.06 394.94,4.43 256,4.43 m 5.885,38.556 c 120.9,0 218.9,98 218.9,218.9 0,120.9 -98,218.9 -218.9,218.9 -120.9,0 -218.93,-98 -218.93,-218.9 0,-120.9 98.03,-218.9 218.93,-218.9" />
    <path
       inkscape:connector-curvature="0"
       id="path300"
       d="M 256,8.36 C 119.23,8.36 8.36,119.23 8.36,256 8.36,392.77 119.23,503.64 256,503.64 392.77,503.64 503.64,392.77 503.64,256 503.64,119.23 392.77,8.36 256,8.36 m 2.942,31.691 c 120.9,0 218.9,98 218.9,218.9 0,120.9 -98,218.9 -218.9,218.9 -120.9,0 -218.93,-98 -218.93,-218.9 0,-120.9 98.03,-218.9 218.93,-218.9" />
  </g>
  <path
     style="fill:#ffffff;fill-rule:evenodd;stroke:#000000;stroke-width:4.90399981;stroke-opacity:0.31000001"
     inkscape:connector-curvature="0"
     id="path302"
     d="M 253.04,7.86 C 117.62,7.86 7.85,117.64 7.85,253.05 c 0,135.42 109.78,245.19 245.19,245.19 135.42,0 245.19,-109.78 245.19,-245.19 C 498.23,117.63 388.45,7.86 253.04,7.86 m 0,26.297 c 120.9,0 218.9,98 218.9,218.9 0,120.9 -98,218.9 -218.9,218.9 -120.9,0 -218.93,-98 -218.93,-218.9 0,-120.9 98.03,-218.9 218.93,-218.9 z" />
  <text
     font-size="129.23"
     y="231.36"
     x="729.64"
     font-family="'Gentium Book Basic'"
     line-height="125%"
     word-spacing="0"
     letter-spacing="0"
     id="text304">
    <tspan
       y="231.36"
       x="729.64"
       id="tspan306" />
  </text>
  <text
     transform="scale(4.0128.2492)"
     font-size="46.954"
     y="579.26"
     x="378.91"
     font-family="Arial"
     text-anchor="middle"
     id="text308" />
  <text
     font-size="129.23"
     y="151.36"
     x="1310.91"
     font-family="'Gentium Book Basic'"
     line-height="125%"
     word-spacing="0"
     letter-spacing="0"
     id="text310">
    <tspan
       y="151.36"
       x="1310.91"
       id="tspan312" />
  </text>
  <text
     transform="scale(4.0128.2492)"
     font-size="46.954"
     y="258.22"
     x="523.76"
     font-family="Arial"
     text-anchor="middle"
     id="text314" />
  <text
     font-size="129.23"
     y="-29.9"
     x="239.33"
     font-family="'Gentium Book Basic'"
     line-height="125%"
     word-spacing="0"
     letter-spacing="0"
     id="text316">
    <tspan
       y="-29.9"
       x="239.33"
       id="tspan318" />
  </text>
  <text
     transform="scale(4.0128.2492)"
     font-size="46.954"
     y="-469.13"
     x="256.72"
     font-family="Arial"
     text-anchor="middle"
     id="text320" />
  <text
     font-size="129.23"
     y="-246.37"
     x="1337.38"
     font-family="'Gentium Book Basic'"
     line-height="125%"
     word-spacing="0"
     letter-spacing="0"
     id="text322">
    <tspan
       y="-246.37"
       x="1337.38"
       id="tspan324" />
  </text>
  <text
     transform="scale(4.0128.2492)"
     font-size="46.954"
     y="-1337.8"
     x="530.36"
     font-family="Arial"
     text-anchor="middle"
     id="text326" />
  <text
     font-size="129.23"
     y="-326.37"
     x="1918.65"
     font-family="'Gentium Book Basic'"
     line-height="125%"
     word-spacing="0"
     letter-spacing="0"
     id="text328">
    <tspan
       y="-326.37"
       x="1918.65"
       id="tspan330" />
  </text>
  <text
     transform="scale(4.0128.2492)"
     font-size="46.954"
     y="-1658.83"
     x="675.21"
     font-family="Arial"
     text-anchor="middle"
     id="text332" />
  <text
     font-size="129.23"
     y="-798.77"
     x="1529.53"
     font-family="'Gentium Book Basic'"
     line-height="125%"
     word-spacing="0"
     letter-spacing="0"
     id="text334">
    <tspan
       y="-798.77"
       x="1529.53"
       id="tspan336" />
  </text>
  <text
     transform="scale(4.0128.2492)"
     font-size="46.954"
     y="-3554.48"
     x="578.24"
     font-family="Arial"
     text-anchor="middle"
     id="text338" />
  <text
     font-size="129.23"
     y="-878.78"
     x="2110.79"
     font-family="'Gentium Book Basic'"
     line-height="125%"
     word-spacing="0"
     letter-spacing="0"
     id="text340">
    <tspan
       y="-878.78"
       x="2110.79"
       id="tspan342" />
  </text>
  <text
     transform="scale(4.0128.2492)"
     font-size="46.954"
     y="-3875.52"
     x="723.09"
     font-family="Arial"
     text-anchor="middle"
     id="text344" />
  <text
     font-size="208.33"
     y="535.94"
     x="277.99"
     font-family="'Gentium Book Basic'"
     line-height="125%"
     word-spacing="0"
     letter-spacing="0"
     id="text346">
    <tspan
       y="535.94"
       x="277.99"
       id="tspan348" />
  </text>
  <path
     opacity="0.25"
     d="m346.57 118.92c-0.478-0.006-0.959-0.002-1.443 0.014-6.782 0.216-13.878 2.376-21.313 6.469-8.497 4.678-14.713 10.988-18.656 18.875-3.985 8.524-11.194 19.643-21.594 33.375-5.705 7.426-10.664 13.518-14.93 18.379l-64.51-64.51c-6.529-6.529-11.77-9.892-15.721-10.09-19.504-0.985-31.11 4.494-34.781 16.438-1.463 4.317 1.672 10.317 9.361 18.01l9.566 9.566c8.03 8.741 17.907 21.33 29.666 37.803 15.285 21.414 23.07 33.83 23.375 37.25-54.42 77.48-84.78 126.23-91.09 146.34-3.289 10.05-3.997 17.477-2.188 22.25 0.517 1.363 1.278 2.55 2.287 3.559l47.574 47.574c22.23 7.601 46.06 11.732 70.865 11.732 120.9 0 218.91-98.01 218.91-218.91 0-43.42-12.643-83.89-34.447-117.93-10.434 8.175-22.299 17.969-35.799 29.725l-42.09-42.09c-2.254-2.254-6.127-3.52-11.613-3.797-0.478-0.024-0.953-0.039-1.432-0.045"
     id="path350" />
  <path
     d="m345.13 118.94c-6.782 0.216-13.878 2.376-21.313 6.469-8.497 4.678-14.713 10.988-18.656 18.875-3.985 8.524-11.194 19.643-21.594 33.375-10.387 13.52-18.389 22.776-24 27.813-3.222-3.355-10.01-12.635-20.406-27.844-24.334-36.979-41.26-55.708-50.75-56.19-19.504-0.985-31.11 4.494-34.781 16.438-1.631 4.812 2.453 11.715 12.188 20.719 8.985 8.328 21.12 23.24 36.406 44.656 15.285 21.414 23.07 33.83 23.375 37.25-54.42 77.48-84.78 126.23-91.09 146.34-3.289 10.05-3.997 17.477-2.188 22.25s6.624 7.382 14.531 7.781c15.02 0.759 24.388-4.837 28.06-16.781 2.639-8.166 7.41-14.548 14.313-19.09 2.231-1.803 7.579-4.94 16.06-9.406 11.782-6.427 18.15-10.769 19.09-13.06 0.288-0.957 0.481-1.899 0.594-2.813-2.13 1.145-4.266 2.243-6.438 3.313-5.04 4.02-11.382-2-8.969-7.313 1.379-2.28 2.818-4.496 4.281-6.719-4.329 0.891-9.385 3.02-15.188 6.469 4.715-11.679 13.155-27.533 25.281-47.563 12.403-20.228 21.703-33.568 27.938-40.06 1.497 1.351 6.531 7.25 15.09 17.656 0.174-0.191 0.357-0.403 0.531-0.594 7.253-6.06 11.55-15.222 19.406-20.406 4.02-3.553 8.02-7.117 12.03-10.688-3.534-3.558-7.154-7.232-10.938-11-4.25-3.832-6.889-6.261-7.875-7.375 0.886-1.445 6.429-7.449 16.625-18 39.09-40.585 60.48-66.868 64.16-78.81 3.275-9.836-1.046-15.06-12.906-15.656-0.955-0.048-1.906-0.062-2.875-0.031m92.38 16.187c-12.07 9.46-26.05 21.07-42.28 35.406-0.061-0.058-0.531-0.469-0.531-0.469l-2.906 2.594c0.411 0.365 0.813 0.727 1.219 1.094-46.95 39.497-97.34 85.73-104.44 92.25-0.021-0.033-0.156-0.249-0.156-0.25l-0.094-0.188-0.156 0.156-0.063 0.031c-0.005-0.006-0.094-0.156-0.094-0.156l-3.875 3.625c0.036 0.051 0.089 0.105 0.125 0.156l-0.031 0.031 0.063 0.156s0.15 0.226 0.188 0.281c-44.3 46.25-71.69 81.17-70.5 85.19 1.532 5.16 82.85-52.857 93.25-60.781 0.312 0.255 0.479 0.378 0.594 0.469 0.029 0.026 0.313 0.281 0.313 0.281h0.031l0.063 0.094 4.219-3.938-0.188-0.156c-0.001-0.001-0.357-0.269-0.5-0.375 8.683-6.822 56.746-44.816 107.03-89 0.848 1.093 1.688 2.156 1.688 2.156l2.906-2.469c-0.126-0.184-0.275-0.375-0.406-0.563 2.689-2.16 17.01-13.765 33.594-28.406-5.188-13.07-11.571-25.525-19.06-37.22m-107.25 146.88c-6.238 4.768-12.432 9.613-17.375 15.688-7.256 3.443-13.805 8.351-20.438 13.156 26.604 30.18 42.01 45.585 45.906 45.781 6.325 0.32 13.424-1.224 21.313-4.656 7.902-3.644 12.685-8.107 14.344-13.344 1.67-5.152-12.971-24.09-43.75-56.625"
     fill="#fff"
     id="path352" />
</svg>
