<?xml version="1.0" encoding="UTF-8" standalone="no"?>
<svg
   xmlns:dc="http://purl.org/dc/elements/1.1/"
   xmlns:cc="http://creativecommons.org/ns#"
   xmlns:rdf="http://www.w3.org/1999/02/22-rdf-syntax-ns#"
   xmlns:svg="http://www.w3.org/2000/svg"
   xmlns="http://www.w3.org/2000/svg"
   xmlns:sodipodi="http://sodipodi.sourceforge.net/DTD/sodipodi-0.dtd"
   xmlns:inkscape="http://www.inkscape.org/namespaces/inkscape"
   height="512"
   viewBox="0 0 512 512"
   width="512"
   version="1.1"
   id="svg2"
   inkscape:version="0.91 r13725"
   sodipodi:docname="xperia-theme-creator.svg">
  <defs
     id="defs17" />
  <sodipodi:namedview
     pagecolor="#ffffff"
     bordercolor="#666666"
     borderopacity="1"
     objecttolerance="10"
     gridtolerance="10"
     guidetolerance="10"
     inkscape:pageopacity="0"
     inkscape:pageshadow="2"
     inkscape:window-width="1920"
     inkscape:window-height="1019"
     id="namedview15"
     showgrid="false"
     inkscape:zoom="1.1573806"
     inkscape:cx="120.47986"
     inkscape:cy="489.20808"
     inkscape:window-x="0"
     inkscape:window-y="13"
     inkscape:window-maximized="1"
     inkscape:current-layer="svg2"
     showguides="false" />
  <metadata
     id="metadata28">
    <rdf:RDF>
      <cc:Work
         rdf:about="">
        <dc:format>image/svg+xml</dc:format>
        <dc:type
           rdf:resource="http://purl.org/dc/dcmitype/StillImage" />
        <dc:title></dc:title>
      </cc:Work>
    </rdf:RDF>
  </metadata>
  <path
     style="fill:#BF9E73;fill-rule:evenodd;fill-opacity:1"
     inkscape:connector-curvature="0"
     d="m 471.95,253.05 c 0,120.9 -98.01,218.9 -218.9,218.9 -120.9,0 -218.9,-98.01 -218.9,-218.9 0,-120.9 98.01,-218.9 218.9,-218.9 120.9,0 218.9,98.01 218.9,218.9"
     id="path6" />
  <path
     inkscape:connector-curvature="0"
     style="opacity:0.25"
     id="path4190"
     d="M 301.71961,206.14674 176.65473,138.56799 c 6.54709,35.77278 22.04658,59.82924 39.29077,91.25947 l 57.41598,37.08705 -50.00473,9.36869 -40.3538,48.2088 -22.18113,27.54344 -8.8057,6.45633 -18.86078,6.57476 200.5882,90.79736 c 49.3239,-23.04134 149.41571,-62.37713 136.66174,-250.58582 l -100.8298,-66.79611"
     sodipodi:nodetypes="cccccccccccc" />
  <path
     style="fill-opacity:0.06700003;fill-rule:evenodd"
     inkscape:connector-curvature="0"
     d="M 256,1 C 115.17,1 1,115.17 1,256 1,396.83 115.17,511 256,511 396.83,511 511,396.83 511,256 511,115.17 396.83,1 256,1 m 8.827,44.931 c 120.9,0 218.9,98 218.9,218.9 0,120.9 -98,218.9 -218.9,218.9 -120.9,0 -218.93,-98 -218.93,-218.9 0,-120.9 98.03,-218.9 218.93,-218.9"
     id="path8" />
  <g
     style="fill-opacity:0.12900002;fill-rule:evenodd"
     id="g10">
    <path
       inkscape:connector-curvature="0"
       d="m 256,4.433 c -138.94,0 -251.57,112.63 -251.57,251.57 0,138.94 112.63,251.57 251.57,251.57 138.94,0 251.57,-112.63 251.57,-251.57 C 507.57,117.063 394.94,4.433 256,4.433 m 5.885,38.556 c 120.9,0 218.9,98 218.9,218.9 0,120.9 -98,218.9 -218.9,218.9 -120.9,0 -218.93,-98 -218.93,-218.9 0,-120.9 98.03,-218.9 218.93,-218.9"
       id="path12" />
    <path
       inkscape:connector-curvature="0"
       d="m 256,8.356 c -136.77,0 -247.64,110.87 -247.64,247.64 0,136.77 110.87,247.64 247.64,247.64 136.77,0 247.64,-110.87 247.64,-247.64 C 503.64,119.226 392.77,8.356 256,8.356 m 2.942,31.691 c 120.9,0 218.9,98 218.9,218.9 0,120.9 -98,218.9 -218.9,218.9 -120.9,0 -218.93,-98 -218.93,-218.9 0,-120.9 98.03,-218.9 218.93,-218.9"
       id="path14" />
  </g>
  <path
     style="fill:#ffffff;fill-rule:evenodd;stroke:#000000;stroke-width:4.90399981;stroke-opacity:0.31000001"
     inkscape:connector-curvature="0"
     d="m 253.04,7.859 c -135.42,0 -245.19,109.78 -245.19,245.19 0,135.42 109.78,245.19 245.19,245.19 135.42,0 245.19,-109.78 245.19,-245.19 0,-135.42 -109.78,-245.19 -245.19,-245.19 z m 0,26.297 c 120.9,0 218.9,98 218.9,218.9 0,120.9 -98,218.9 -218.9,218.9 -120.9,0 -218.93,-98 -218.93,-218.9 0,-120.9 98.03,-218.9 218.93,-218.9 z"
     id="path16" />
  <g
     id="g4179"
     style="fill:#ffffff"
     transform="matrix(4.9347641,0,0,4.9347641,-958.60245,-1147.0856)">
    <g
       transform="matrix(3.5720664,0,0,-3.5720664,261.73151,306.61453)"
       id="g87846"
       style="fill:#ffffff">
      <path
         id="path87848"
         style="fill:#ffffff;fill-opacity:1;fill-rule:nonzero;stroke:none"
         d="m 0,0 -4.501,5.241 -4.507,-5.24 -2.267,0 11.098,12.899 2.26,0 L -3.392,6.532 2.219,0 0,0"
         inkscape:connector-curvature="0" />
    </g>
    <g
       transform="matrix(3.5720664,0,0,-3.5720664,230.05085,260.53844)"
       id="g87850"
       style="fill:#ffffff">
      <path
         id="path87852"
         style="fill:#ffffff;fill-opacity:1;fill-rule:nonzero;stroke:none"
         d="M 0,0 3.342,-3.882 2.231,-5.176 -2.223,0 0,0"
         inkscape:connector-curvature="0" />
    </g>
  </g>
  <path
     inkscape:connector-curvature="0"
     style="fill:#ffffff"
     d="m 436.27069,201.43955 c -1.10666,0.002 -2.14625,0.29377 -2.96507,0.61309 -0.55652,0.0598 -1.17964,0.31977 -1.76764,0.84116 l -29.70541,26.20208 c -1.76992,1.56601 -3.20684,4.84538 -2.59466,7.12757 l 4.43346,16.56332 c 0.6108,2.27945 3.52204,4.23913 5.87311,4.51876 l 37.84749,4.33356 c 0.48399,0.0584 0.89272,0.0173 1.2686,-0.0712 2.65715,-0.24678 8.03259,-1.77585 5.93013,-10.23541 -2.75067,-11.07521 3.19771,-11.93782 0.1852,-23.17908 -3.01524,-11.24262 -8.59094,-9.02247 -11.74623,-19.98592 -1.54366,-5.36312 -4.32261,-6.73253 -6.75716,-6.72842 m -113.92702,30.3486 c -0.33072,0.0287 -0.62677,0.0985 -0.88404,0.21395 -2.78169,0.41739 -7.30319,2.28082 -5.34579,10.16379 2.74611,11.07293 -3.19771,11.93782 -0.18521,23.17908 3.01251,11.24308 8.5873,9.02019 11.74623,19.98592 2.40764,8.36286 7.82322,7.00303 10.24956,5.88725 0.36447,-0.10947 0.75039,-0.2778 1.14041,-0.5702 l 30.62231,-22.68003 c 1.89308,-1.41685 3.41895,-4.56164 2.80814,-6.84246 l -4.43346,-16.56333 c -0.6108,-2.27945 -3.49787,-4.40472 -5.81609,-4.87548 l -38.81502,-7.82778 c -0.38683,-0.0798 -0.75267,-0.10036 -1.08339,-0.0712 m 69.12257,1.15455 c -0.28465,0.0173 -0.56884,0.0657 -0.85531,0.14278 l -16.66413,4.46174 c -2.28539,0.61309 -3.63518,2.95823 -3.02209,5.24589 l 4.46174,16.66414 c 0.61354,2.28994 2.95823,3.63517 5.24589,3.02209 l 16.66414,-4.46175 c 2.28538,-0.61308 3.64931,-2.95549 3.03622,-5.24589 l -4.47633,-16.66413 c -0.53691,-2.00393 -2.39806,-3.28484 -4.39059,-3.16487"
     id="path160" />
</svg>
