<?xml version="1.0" encoding="UTF-8" standalone="no"?>
<svg xmlns="http://www.w3.org/2000/svg" height="512" viewBox="0 0 512 512" width="512" version="1.1">
 <metadata id="metadata74"/>
 <g id="g4" transform="translate(0,-540.36)">
  <path id="path6" d="m471.95 793.41c0 120.9-98.01 218.9-218.9 218.9-120.9 0-218.9-98.01-218.9-218.9 0-120.9 98.01-218.9 218.9-218.9 120.9 0 218.9 98.01 218.9 218.9" fill-rule="evenodd" fill="#BF9E73"/>
  <g id="g10" fill-rule="evenodd">
   <path id="path12" fill-opacity="0.067" d="m256 541.36c-140.83 0-255 114.17-255 255s114.17 255 255 255 255-114.17 255-255-114.17-255-255-255m8.827 44.931c120.9 0 218.9 98 218.9 218.9s-98 218.9-218.9 218.9-218.93-98-218.93-218.9 98.03-218.9 218.93-218.9"/>
   <g id="g14" fill-opacity="0.129">
    <path id="path16" d="m256 544.79c-138.94 0-251.57 112.63-251.57 251.57s112.63 251.54 251.57 251.54 251.57-112.6 251.57-251.54-112.63-251.57-251.57-251.57m5.885 38.556c120.9 0 218.9 98 218.9 218.9s-98 218.9-218.9 218.9-218.93-98-218.93-218.9 98.03-218.9 218.93-218.9"/>
    <path id="path18" d="m256 548.72c-136.77 0-247.64 110.87-247.64 247.64s110.87 247.64 247.64 247.64 247.64-110.87 247.64-247.64-110.87-247.64-247.64-247.64m2.942 31.691c120.9 0 218.9 98 218.9 218.9s-98 218.9-218.9 218.9-218.93-98-218.93-218.9 98.03-218.9 218.93-218.9"/>
   </g>
   <path id="path20" d="m253.04 548.22c-135.42 0-245.19 109.78-245.19 245.19 0 135.42 109.78 245.19 245.19 245.19 135.42 0 245.19-109.78 245.19-245.19 0-135.42-109.78-245.19-245.19-245.19zm0 26.297c120.9 0 218.9 98 218.9 218.9s-98 218.9-218.9 218.9-218.93-98-218.93-218.9 98.03-218.9 218.93-218.9z" stroke-opacity="0.31" stroke="#000" stroke-width="4.904" fill="#fff"/>
  </g>
  <path id="path68" fill="#fff" d="m160.15 665.34 13.304 44.541 21.344 25.465c-7.861 1.372-14.492 4.153-20.485 7.675-7.543 6.626-11.725 14.948-15.02 23.713l-23.987 18.655c-1.284-1.098-2.228-0.198-3.26 0.222-3.666 2.154-7.663 4.02-9.802 7.453-3.897 10.09 2.705 15.508 6.894 21.761 2.68 2.895 8.697 6.6 14.45 6.987l47.51-23.25 25.948-4.836c-4.542 31.606-4.129 65.994-5.02 99.64l-13.723 23.05-3.282 2.617 82.38-6.344 32.05 14.684 10.02-4.37 20.485-1.109-4.361-5.701 15.463-0.665-0.859 8.119 13.723-7.897h6.101l3.7 3.283 6.762-4.813 10.463-0.444c-6.03-34.04-9.852-68.45-13.304-102.92-0.669-8.905-1.384-17.731-3.7-23.713-5.517-11.677-12.665-20.935-21.12-28.3-10.619-8.784-21.579-16.741-33.789-21.517-10.824-4.093-21.644-1.256-32.468 0.887-12.12 2.741-23.77 6.904-35.09 12.07 2.25-5.269 6.05-10.31 10.969-12.888 6.714-3.515 12.474-5.113 19.538-7.08 6.332-2.37 10.329-6.228 14.604-9.893 11.768-14.15 21.884-28.773 31.807-43.45-17.871 4.117-35.743 11.07-53.613 17.79-11.325 4.226-21.483 9.623-30.07 17.99l-18.304 18.211c-4.113 3.172-6.191-0.087-8.502-2.617l-13.502-20.21-44.25-42.789m92.87 175.93 14.934 5.102 13.326 24.4-12.864 23.846-12.313 7.05s-8.72-55.07-8.26-55.3c0.46-0.231 5.176-5.102 5.176-5.102m83.06 12.267 11.146 21.783 2.401 19.964-15.639 18.855s-10.807-11.528-10.485-12.178c0.323-0.65 8.392-47.45 8.392-47.45l4.185-0.976"/>
 </g>
</svg>
