<?xml version="1.0" encoding="UTF-8" standalone="no"?>
<svg xmlns="http://www.w3.org/2000/svg" height="512" viewBox="0 0 512 512" width="512" version="1.1">
 <metadata id="metadata72"/>
 <path id="path4" d="m471.95 253.05c0 120.9-98.01 218.9-218.9 218.9-120.9 0-218.9-98.01-218.9-218.9 0-120.9 98.01-218.9 218.9-218.9 120.9 0 218.9 98.01 218.9 218.9" fill-rule="evenodd" fill="#BF9E73"/>
 <path id="path6" fill-opacity="0.235" d="m257.63 162.66c-31.497 0-77.82 1.796-91.75 2.25-15.13 1.332-20.869 2.108-29.16 9.09-12.626 11.06-15.563 32.883-15.563 66.13v31.75c0 36.958 4.927 56.14 12.969 63.63 0.317 0.344 0.673 0.663 1 0.969 0.331 0.361 0.658 0.682 1 1 0.393 0.428 0.778 0.819 1.188 1.188 0.301 0.318 0.596 0.623 0.906 0.906 0.293 0.314 0.573 0.625 0.875 0.906 0.322 0.35 0.667 0.69 1 1 0.317 0.344 0.673 0.663 1 0.969 0.331 0.361 0.658 0.682 1 1 0.393 0.428 0.778 0.819 1.188 1.188 0.301 0.318 0.596 0.623 0.906 0.906 0.293 0.314 0.573 0.625 0.875 0.906 0.322 0.35 0.667 0.69 1 1 0.317 0.344 0.673 0.663 1 0.969 0.284 0.309 0.583 0.597 0.875 0.875 0.368 0.409 0.742 0.77 1.125 1.125 0.364 0.396 0.716 0.749 1.094 1.094 0.33 0.354 0.658 0.688 1 1 0.293 0.314 0.573 0.625 0.875 0.906 0.317 0.344 0.673 0.663 1 0.969 0.321 0.35 0.668 0.69 1 1 0.331 0.361 0.658 0.682 1 1 0.364 0.396 0.716 0.749 1.094 1.094 0.33 0.354 0.658 0.688 1 1 0.293 0.314 0.573 0.625 0.875 0.906 0.322 0.35 0.667 0.69 1 1 0.317 0.344 0.673 0.663 1 0.969 0.331 0.361 0.658 0.682 1 1 0.393 0.428 0.778 0.819 1.188 1.188 0.301 0.318 0.596 0.623 0.906 0.906 0.293 0.314 0.573 0.625 0.875 0.906 0.322 0.35 0.667 0.69 1 1 0.317 0.344 0.673 0.663 1 0.969 0.331 0.361 0.658 0.682 1 1 0.331 0.361 0.658 0.682 1 1 0.364 0.396 0.716 0.749 1.094 1.094 0.293 0.314 0.573 0.625 0.875 0.906 0.322 0.35 0.667 0.69 1 1 0.317 0.344 0.673 0.663 1 0.969 0.284 0.309 0.583 0.597 0.875 0.875 0.368 0.409 0.742 0.77 1.125 1.125 0.364 0.396 0.716 0.749 1.094 1.094 0.33 0.354 0.658 0.688 1 1 0.293 0.314 0.573 0.625 0.875 0.906 0.322 0.35 0.667 0.69 1 1 0.317 0.344 0.673 0.663 1 0.969 0.331 0.361 0.658 0.682 1 1 0.393 0.428 0.778 0.819 1.188 1.188 0.301 0.318 0.596 0.623 0.906 0.906 0.293 0.314 0.573 0.625 0.875 0.906 0.322 0.35 0.667 0.69 1 1 0.317 0.344 0.673 0.663 1 0.969 0.331 0.361 0.658 0.682 1 1 0.393 0.428 0.778 0.819 1.188 1.188 0.301 0.318 0.596 0.623 0.906 0.906 0.293 0.314 0.573 0.625 0.875 0.906 0.322 0.35 0.667 0.69 1 1 0.317 0.344 0.673 0.663 1 0.969 0.284 0.309 0.583 0.597 0.875 0.875 0.368 0.409 0.742 0.77 1.125 1.125 0.364 0.396 0.716 0.749 1.094 1.094 0.33 0.354 0.658 0.688 1 1 0.293 0.314 0.573 0.625 0.875 0.906 0.317 0.344 0.673 0.663 1 0.969 0.321 0.35 0.668 0.69 1 1 0.331 0.361 0.658 0.682 1 1 0.364 0.396 0.716 0.749 1.094 1.094 0.33 0.354 0.658 0.688 1 1 0.293 0.314 0.573 0.625 0.875 0.906 0.322 0.35 0.667 0.69 1 1 0.317 0.344 0.673 0.663 1 0.969 0.331 0.361 0.658 0.682 1 1 0.393 0.428 0.778 0.819 1.188 1.188 0.301 0.318 0.596 0.623 0.906 0.906 0.293 0.314 0.573 0.625 0.875 0.906 0.322 0.35 0.667 0.69 1 1 0.317 0.344 0.673 0.663 1 0.969 0.331 0.361 0.658 0.682 1 1 0.331 0.361 0.658 0.682 1 1 0.364 0.396 0.716 0.749 1.094 1.094 0.293 0.314 0.573 0.625 0.875 0.906 0.322 0.35 0.667 0.69 1 1 0.317 0.344 0.673 0.663 1 0.969 0.284 0.309 0.583 0.597 0.875 0.875 0.368 0.409 0.742 0.77 1.125 1.125 0.364 0.396 0.716 0.749 1.094 1.094 0.33 0.354 0.658 0.688 1 1 0.293 0.314 0.573 0.625 0.875 0.906 0.317 0.344 0.673 0.663 1 0.969 0.321 0.35 0.668 0.69 1 1 0.331 0.361 0.658 0.682 1 1 0.393 0.428 0.778 0.819 1.188 1.188 0.301 0.318 0.596 0.623 0.906 0.906 0.293 0.314 0.573 0.625 0.875 0.906 0.322 0.35 0.667 0.69 1 1 0.317 0.344 0.673 0.663 1 0.969 0.331 0.361 0.658 0.682 1 1 0.393 0.428 0.778 0.819 1.188 1.188 0.301 0.318 0.596 0.623 0.906 0.906 0.293 0.314 0.573 0.625 0.875 0.906 0.322 0.35 0.667 0.69 1 1 0.317 0.344 0.673 0.663 1 0.969 0.284 0.309 0.583 0.597 0.875 0.875 0.368 0.409 0.742 0.77 1.125 1.125 0.364 0.396 0.716 0.749 1.094 1.094 0.33 0.354 0.658 0.688 1 1 0.293 0.314 0.573 0.625 0.875 0.906 0.317 0.344 0.673 0.663 1 0.969 0.284 0.309 0.583 0.597 0.875 0.875 0.368 0.409 0.742 0.77 1.125 1.125 0.364 0.396 0.716 0.749 1.094 1.094 0.33 0.354 0.658 0.688 1 1 0.293 0.314 0.573 0.625 0.875 0.906 0.322 0.35 0.667 0.69 1 1 0.317 0.344 0.673 0.663 1 0.969 0.331 0.361 0.658 0.682 1 1 0.393 0.428 0.778 0.819 1.188 1.188 0.301 0.318 0.596 0.623 0.906 0.906 0.293 0.314 0.573 0.625 0.875 0.906 0.322 0.35 0.667 0.69 1 1 0.317 0.344 0.673 0.663 1 0.969 0.331 0.361 0.658 0.682 1 1 0.393 0.428 0.778 0.819 1.188 1.188 0.301 0.318 0.596 0.623 0.906 0.906 0.293 0.314 0.573 0.625 0.875 0.906 0.322 0.35 0.667 0.69 1 1 0.317 0.344 0.673 0.663 1 0.969 0.284 0.309 0.583 0.597 0.875 0.875 0.368 0.409 0.742 0.77 1.125 1.125 0.364 0.396 0.716 0.749 1.094 1.094 0.33 0.354 0.658 0.688 1 1 0.293 0.314 0.573 0.625 0.875 0.906 0.317 0.344 0.673 0.663 1 0.969 0.321 0.35 0.668 0.69 1 1 0.331 0.361 0.658 0.682 1 1 0.364 0.396 0.716 0.749 1.094 1.094 0.33 0.354 0.658 0.688 1 1 0.128 0.138 0.248 0.272 0.375 0.406 107.41-8.203 193.16-93.91 201.38-201.31-0.135-0.126-0.274-0.249-0.406-0.375-0.317-0.342-0.667-0.682-1-1-0.322-0.346-0.662-0.678-1-1-0.046-0.049-0.079-0.107-0.125-0.156-0.055-0.046-0.101-0.079-0.156-0.125-0.238-0.248-0.472-0.484-0.719-0.719-0.326-0.351-0.657-0.673-1-1-0.321-0.346-0.631-0.678-0.969-1-0.317-0.341-0.667-0.651-1-0.969-0.317-0.342-0.667-0.682-1-1-0.322-0.346-0.662-0.678-1-1-0.045-0.049-0.079-0.108-0.125-0.156-0.055-0.046-0.101-0.079-0.156-0.125-0.234-0.244-0.476-0.487-0.719-0.719-0.046-0.049-0.079-0.107-0.125-0.156-0.055-0.046-0.101-0.079-0.156-0.125-0.238-0.248-0.472-0.484-0.719-0.719-0.326-0.351-0.657-0.673-1-1-0.316-0.34-0.637-0.652-0.969-0.969-0.317-0.342-0.667-0.682-1-1-0.322-0.346-0.662-0.678-1-1-0.045-0.049-0.079-0.108-0.125-0.156-0.055-0.046-0.101-0.079-0.156-0.125-0.234-0.244-0.476-0.487-0.719-0.719-0.046-0.049-0.079-0.107-0.125-0.156-0.055-0.046-0.101-0.079-0.156-0.125-0.238-0.248-0.472-0.484-0.719-0.719-0.326-0.351-0.657-0.673-1-1-0.316-0.34-0.637-0.652-0.969-0.969-0.317-0.342-0.667-0.682-1-1-0.322-0.346-0.662-0.678-1-1-0.045-0.049-0.079-0.108-0.125-0.156-0.055-0.046-0.101-0.079-0.156-0.125-0.234-0.244-0.476-0.487-0.719-0.719-0.046-0.049-0.079-0.107-0.125-0.156-0.055-0.046-0.101-0.079-0.156-0.125-0.238-0.248-0.472-0.484-0.719-0.719-0.326-0.351-0.657-0.673-1-1-0.321-0.346-0.631-0.678-0.969-1-0.317-0.341-0.667-0.651-1-0.969-0.317-0.342-0.667-0.682-1-1-0.322-0.346-0.662-0.678-1-1-0.046-0.049-0.079-0.107-0.125-0.156-0.055-0.046-0.101-0.079-0.156-0.125-0.238-0.248-0.472-0.484-0.719-0.719-0.326-0.351-0.657-0.673-1-1-0.321-0.346-0.631-0.678-0.969-1-0.317-0.341-0.667-0.651-1-0.969-0.317-0.342-0.667-0.682-1-1-0.322-0.346-0.662-0.678-1-1-0.045-0.049-0.079-0.108-0.125-0.156-0.055-0.046-0.101-0.079-0.156-0.125-0.234-0.244-0.476-0.487-0.719-0.719-0.046-0.049-0.079-0.107-0.125-0.156-0.055-0.046-0.101-0.079-0.156-0.125-0.238-0.248-0.472-0.484-0.719-0.719-0.326-0.351-0.657-0.673-1-1-0.316-0.34-0.637-0.652-0.969-0.969-0.317-0.342-0.667-0.682-1-1-0.322-0.346-0.662-0.678-1-1-0.045-0.049-0.079-0.108-0.125-0.156-0.055-0.046-0.101-0.079-0.156-0.125-0.234-0.244-0.476-0.487-0.719-0.719-0.046-0.049-0.079-0.107-0.125-0.156-0.055-0.046-0.101-0.079-0.156-0.125-0.238-0.248-0.472-0.484-0.719-0.719-0.326-0.351-0.657-0.673-1-1-0.321-0.346-0.631-0.678-0.969-1-0.317-0.341-0.667-0.651-1-0.969-0.317-0.342-0.667-0.682-1-1-0.322-0.346-0.662-0.678-1-1-0.046-0.049-0.079-0.107-0.125-0.156-0.055-0.046-0.101-0.079-0.156-0.125-0.238-0.248-0.472-0.484-0.719-0.719-0.326-0.351-0.657-0.673-1-1-0.321-0.346-0.631-0.678-0.969-1-0.317-0.341-0.667-0.651-1-0.969-0.317-0.342-0.667-0.682-1-1-0.322-0.346-0.662-0.678-1-1-0.045-0.049-0.079-0.108-0.125-0.156-0.055-0.046-0.101-0.079-0.156-0.125-0.234-0.244-0.476-0.487-0.719-0.719-0.046-0.049-0.079-0.107-0.125-0.156-0.055-0.046-0.101-0.079-0.156-0.125-0.238-0.248-0.472-0.484-0.719-0.719-0.326-0.351-0.657-0.673-1-1-0.316-0.34-0.637-0.652-0.969-0.969-0.317-0.342-0.667-0.682-1-1-0.322-0.346-0.662-0.678-1-1-0.045-0.049-0.079-0.108-0.125-0.156-0.055-0.046-0.101-0.079-0.156-0.125-0.234-0.244-0.476-0.487-0.719-0.719-0.046-0.049-0.079-0.107-0.125-0.156-0.055-0.046-0.101-0.079-0.156-0.125-0.238-0.248-0.472-0.484-0.719-0.719-0.326-0.351-0.657-0.673-1-1-0.316-0.34-0.637-0.652-0.969-0.969-0.317-0.342-0.667-0.682-1-1-0.322-0.346-0.662-0.678-1-1-0.045-0.049-0.079-0.108-0.125-0.156-0.055-0.046-0.101-0.079-0.156-0.125-0.234-0.244-0.476-0.487-0.719-0.719-0.046-0.049-0.079-0.107-0.125-0.156-0.055-0.046-0.101-0.079-0.156-0.125-0.238-0.248-0.472-0.484-0.719-0.719-0.326-0.351-0.657-0.673-1-1-0.321-0.346-0.631-0.678-0.969-1-0.317-0.341-0.667-0.651-1-0.969-0.317-0.342-0.667-0.682-1-1-0.322-0.346-0.662-0.678-1-1-0.046-0.049-0.079-0.107-0.125-0.156-0.055-0.046-0.101-0.079-0.156-0.125-0.238-0.248-0.472-0.484-0.719-0.719-0.326-0.351-0.657-0.673-1-1-0.321-0.346-0.631-0.678-0.969-1-0.317-0.341-0.667-0.651-1-0.969-0.317-0.342-0.667-0.682-1-1-0.322-0.346-0.662-0.678-1-1-0.045-0.049-0.079-0.108-0.125-0.156-0.055-0.046-0.101-0.079-0.156-0.125-0.234-0.244-0.476-0.487-0.719-0.719-0.046-0.049-0.079-0.107-0.125-0.156-0.055-0.046-0.101-0.079-0.156-0.125-0.238-0.248-0.472-0.484-0.719-0.719-0.326-0.351-0.657-0.673-1-1-0.316-0.34-0.637-0.652-0.969-0.969-0.317-0.342-0.667-0.682-1-1-0.322-0.346-0.662-0.678-1-1-0.045-0.049-0.079-0.108-0.125-0.156-0.055-0.046-0.101-0.079-0.156-0.125-0.234-0.244-0.476-0.487-0.719-0.719-0.046-0.049-0.079-0.107-0.125-0.156-0.055-0.046-0.101-0.079-0.156-0.125-0.238-0.248-0.472-0.484-0.719-0.719-0.326-0.351-0.657-0.673-1-1-0.316-0.34-0.637-0.652-0.969-0.969-0.317-0.342-0.667-0.682-1-1-0.317-0.342-0.667-0.682-1-1-0.322-0.346-0.662-0.678-1-1-0.046-0.049-0.079-0.107-0.125-0.156-0.055-0.046-0.101-0.079-0.156-0.125-0.238-0.248-0.472-0.484-0.719-0.719-0.326-0.351-0.657-0.673-1-1-0.321-0.346-0.631-0.678-0.969-1-0.367-0.395-0.768-0.761-1.156-1.125-9.416-7.849-12.922-10.07-32.406-11.03-5.51-0.249-53.599-2.25-87.19-2.25"/>
 <g id="g8" fill-rule="evenodd">
  <path id="path10" fill-opacity="0.067" d="m256 1c-140.83 0-255 114.17-255 255s114.17 255 255 255 255-114.17 255-255-114.17-255-255-255m8.827 44.931c120.9 0 218.9 98 218.9 218.9s-98 218.9-218.9 218.9-218.93-98-218.93-218.9 98.03-218.9 218.93-218.9"/>
  <g id="g12" fill-opacity="0.129">
   <path id="path14" d="m256 4.433c-138.94 0-251.57 112.63-251.57 251.57s112.63 251.57 251.57 251.57 251.57-112.63 251.57-251.57-112.63-251.57-251.57-251.57m5.885 38.556c120.9 0 218.9 98 218.9 218.9s-98 218.9-218.9 218.9-218.93-98-218.93-218.9 98.03-218.9 218.93-218.9"/>
   <path id="path16" d="m256 8.356c-136.77 0-247.64 110.87-247.64 247.64s110.87 247.64 247.64 247.64 247.64-110.87 247.64-247.64-110.87-247.64-247.64-247.64m2.942 31.691c120.9 0 218.9 98 218.9 218.9s-98 218.9-218.9 218.9-218.93-98-218.93-218.9 98.03-218.9 218.93-218.9"/>
  </g>
  <path id="path18" d="m253.04 7.859c-135.42 0-245.19 109.78-245.19 245.19 0 135.42 109.78 245.19 245.19 245.19 135.42 0 245.19-109.78 245.19-245.19 0-135.42-109.78-245.19-245.19-245.19zm0 26.297c120.9 0 218.9 98 218.9 218.9s-98 218.9-218.9 218.9-218.93-98-218.93-218.9 98.03-218.9 218.93-218.9z" stroke-opacity="0.31" stroke="#000" stroke-width="4.904" fill="#fff"/>
 </g>
 <path id="path66" fill="#fff" d="m257.62 162.65c-31.497 0-77.8 1.814-91.73 2.269-15.13 1.332-20.886 2.09-29.17 9.08-12.626 11.06-15.559 32.883-15.559 66.12v31.766c0 37.942 5.188 57.13 13.614 64.18 9.726 8.216 16.213 8.739 22.69 9.724 2.514 0.367 20.223 3.566 99.19 3.566 49.24 0 91.57-2.36 95.94-2.917 7.03-0.881 17-2.02 24.634-10.372 11.296-12.641 13.614-33.775 13.614-64.18v-36.628c0-19.68-1.184-47.672-13.614-59.32-9.416-7.849-12.929-10.06-32.414-11.02-5.51-0.249-53.605-2.269-87.19-2.269m-32.738 31.12h62.23v72.61h25.607l-56.71 58.34-56.72-58.34h25.607v-72.61"/>
</svg>
